<?xml version="1.0" encoding="utf-8" standalone="no"?>
<!DOCTYPE svg PUBLIC "-//W3C//DTD SVG 1.1//EN"
  "http://www.w3.org/Graphics/SVG/1.1/DTD/svg11.dtd">
<!-- Created with matplotlib (http://matplotlib.org/) -->
<svg height="345.6pt" version="1.1" viewBox="0 0 460.8 345.6" width="460.8pt" xmlns="http://www.w3.org/2000/svg" xmlns:xlink="http://www.w3.org/1999/xlink">
 <defs>
  <style type="text/css">
*{stroke-linecap:butt;stroke-linejoin:round;}
  </style>
 </defs>
 <g id="figure_1">
  <g id="patch_1">
   <path d="M 0 345.6 
L 460.8 345.6 
L 460.8 0 
L 0 0 
z
" style="fill:none;"/>
  </g>
  <g id="axes_1">
   <g id="patch_2">
    <path d="M 42.51125 309.8635 
L 447.48 309.8635 
L 447.48 23.36505 
L 42.51125 23.36505 
z
" style="fill:none;"/>
   </g>
   <g id="PolyCollection_1">
    <path clip-path="url(#p48c204b510)" d="M 42.51125 89.66419 
L 42.51125 309.8635 
L 44.558763 309.8635 
L 46.825652 309.8635 
L 49.019415 309.8635 
L 51.286304 309.8635 
L 53.480068 309.8635 
L 55.746957 309.8635 
L 58.013846 309.8635 
L 60.207609 309.8635 
L 62.474498 309.8635 
L 64.668262 309.8635 
L 66.935151 309.8635 
L 69.20204 309.8635 
L 71.322678 309.8635 
L 73.589567 309.8635 
L 75.78333 309.8635 
L 78.050219 245.239789 
L 80.243983 309.8635 
L 82.510872 259.600614 
L 84.777761 218.911611 
L 86.971524 218.911611 
L 89.238413 264.387556 
L 91.432177 309.8635 
L 93.699066 218.911611 
L 95.965955 309.8635 
L 98.013468 218.911611 
L 100.280357 284.732057 
L 102.47412 241.649583 
L 104.741009 241.649583 
L 106.934773 241.649583 
L 109.201662 238.059377 
L 111.468551 238.059377 
L 113.662314 261.994085 
L 115.929203 309.8635 
L 118.122967 309.8635 
L 120.389856 239.256113 
L 122.656745 309.8635 
L 124.704257 309.8635 
L 126.971146 309.8635 
L 129.16491 309.8635 
L 131.431799 309.8635 
L 133.625562 309.8635 
L 135.892451 264.387556 
L 138.15934 261.994085 
L 140.353104 309.8635 
L 142.619993 309.8635 
L 144.813757 264.387556 
L 147.080646 238.059377 
L 149.347535 309.8635 
L 151.395047 309.8635 
L 153.661936 309.8635 
L 155.8557 309.8635 
L 158.122589 309.8635 
L 160.316352 309.8635 
L 162.583241 309.8635 
L 164.85013 309.8635 
L 167.043894 309.8635 
L 169.310783 309.8635 
L 171.504546 309.8635 
L 173.771435 309.8635 
L 176.038324 309.8635 
L 178.158962 309.8635 
L 180.425851 309.8635 
L 182.619615 309.8635 
L 184.886504 309.8635 
L 187.080267 309.8635 
L 189.347156 309.8635 
L 191.614045 309.8635 
L 193.807809 309.8635 
L 196.074698 309.8635 
L 198.268462 309.8635 
L 200.535351 309.8635 
L 202.80224 309.8635 
L 204.849752 309.8635 
L 207.116641 309.8635 
L 209.310405 309.8635 
L 211.577294 309.8635 
L 213.771057 309.8635 
L 216.037946 309.8635 
L 218.304835 309.8635 
L 220.498599 309.8635 
L 222.765488 309.8635 
L 224.959251 309.8635 
L 227.22614 309.8635 
L 229.493029 309.8635 
L 231.540542 309.8635 
L 233.807431 309.8635 
L 236.001194 309.8635 
L 238.268083 309.8635 
L 240.461847 309.8635 
L 242.728736 309.8635 
L 244.995625 309.8635 
L 247.189389 309.8635 
L 249.456278 309.8635 
L 251.650041 309.8635 
L 253.91693 309.8635 
L 256.183819 309.8635 
L 258.231332 309.8635 
L 260.498221 309.8635 
L 262.691984 309.8635 
L 264.958873 309.8635 
L 267.152637 309.8635 
L 269.419526 309.8635 
L 271.686415 309.8635 
L 273.880178 309.8635 
L 276.147067 309.8635 
L 278.340831 309.8635 
L 280.60772 309.8635 
L 282.874609 309.8635 
L 284.995247 309.8635 
L 287.262136 309.8635 
L 289.455899 309.8635 
L 291.722788 309.8635 
L 293.916552 309.8635 
L 296.183441 309.8635 
L 298.45033 309.8635 
L 300.644094 309.8635 
L 302.910983 309.8635 
L 305.104746 309.8635 
L 307.371635 309.8635 
L 309.638524 309.8635 
L 311.686037 309.8635 
L 313.952926 309.8635 
L 316.146689 309.8635 
L 318.413578 309.8635 
L 320.607342 309.8635 
L 322.874231 309.8635 
L 325.14112 309.8635 
L 327.334883 309.8635 
L 329.601772 309.8635 
L 331.795536 309.8635 
L 334.062425 309.8635 
L 336.329314 309.8635 
L 338.376826 309.8635 
L 340.643715 309.8635 
L 342.837479 309.8635 
L 345.104368 309.8635 
L 347.298132 309.8635 
L 349.565021 309.8635 
L 351.83191 309.8635 
L 354.025673 309.8635 
L 356.292562 309.8635 
L 358.486326 309.8635 
L 360.753215 309.8635 
L 363.020104 309.8635 
L 365.067616 309.8635 
L 367.334505 309.8635 
L 369.528269 309.8635 
L 371.795158 309.8635 
L 373.988921 309.8635 
L 376.25581 309.8635 
L 378.522699 309.8635 
L 380.716463 309.8635 
L 382.983352 309.8635 
L 385.177115 309.8635 
L 387.444004 309.8635 
L 389.710893 309.8635 
L 391.831531 309.8635 
L 394.09842 309.8635 
L 396.292184 309.8635 
L 398.559073 309.8635 
L 400.752837 309.8635 
L 403.019726 309.8635 
L 405.286615 309.8635 
L 407.480378 309.8635 
L 409.747267 309.8635 
L 411.941031 309.8635 
L 414.20792 309.8635 
L 416.474809 309.8635 
L 418.522321 309.8635 
L 420.78921 309.8635 
L 422.982974 309.8635 
L 425.249863 309.8635 
L 427.443626 309.8635 
L 429.710515 309.8635 
L 431.977404 309.8635 
L 434.171168 309.8635 
L 436.438057 309.8635 
L 438.63182 309.8635 
L 440.898709 309.8635 
L 443.165598 309.8635 
L 445.213111 309.8635 
L 447.48 309.8635 
L 447.48 309.8635 
L 447.48 309.8635 
L 445.213111 309.8635 
L 443.165598 309.8635 
L 440.898709 212.927934 
L 438.63182 206.944257 
L 436.438057 206.944257 
L 434.171168 113.598898 
L 431.977404 72.909895 
L 429.710515 99.238073 
L 427.443626 110.008692 
L 425.249863 174.632402 
L 422.982974 154.287901 
L 420.78921 99.238073 
L 418.522321 198.56711 
L 416.474809 133.943399 
L 414.20792 199.763845 
L 411.941031 214.12467 
L 409.747267 173.435667 
L 407.480378 53.762129 
L 405.286615 94.451132 
L 403.019726 94.451132 
L 400.752837 123.172781 
L 398.559073 126.762987 
L 396.292184 105.22175 
L 394.09842 102.828279 
L 391.831531 60.942541 
L 389.710893 70.516424 
L 387.444004 94.451132 
L 385.177115 50.171923 
L 382.983352 46.581716 
L 380.716463 46.581716 
L 378.522699 46.581716 
L 376.25581 46.581716 
L 373.988921 46.581716 
L 371.795158 193.780168 
L 369.528269 309.8635 
L 367.334505 99.238073 
L 365.067616 132.746664 
L 363.020104 309.8635 
L 360.753215 309.8635 
L 358.486326 309.8635 
L 356.292562 309.8635 
L 354.025673 94.451132 
L 351.83191 94.451132 
L 349.565021 94.451132 
L 347.298132 94.451132 
L 345.104368 306.273294 
L 342.837479 309.8635 
L 340.643715 309.8635 
L 338.376826 309.8635 
L 336.329314 309.8635 
L 334.062425 137.533605 
L 331.795536 143.517282 
L 329.601772 104.025015 
L 327.334883 44.188246 
L 325.14112 44.188246 
L 322.874231 39.401304 
L 320.607342 44.188246 
L 318.413578 94.451132 
L 316.146689 106.418485 
L 313.952926 98.041338 
L 311.686037 94.451132 
L 309.638524 81.287042 
L 307.371635 123.172781 
L 305.104746 245.239789 
L 302.910983 59.745806 
L 300.644094 41.794775 
L 298.45033 40.598039 
L 296.183441 40.598039 
L 293.916552 54.958864 
L 291.722788 100.434808 
L 289.455899 113.598898 
L 287.262136 178.222608 
L 284.995247 118.385839 
L 282.874609 87.270719 
L 280.60772 110.008692 
L 278.340831 151.89443 
L 276.147067 132.746664 
L 273.880178 57.352335 
L 271.686415 45.384981 
L 269.419526 44.188246 
L 267.152637 45.384981 
L 264.958873 305.076558 
L 262.691984 104.025015 
L 260.498221 142.320547 
L 258.231332 101.631544 
L 256.183819 83.680513 
L 253.91693 105.22175 
L 251.650041 86.073984 
L 249.456278 94.451132 
L 247.189389 41.794775 
L 244.995625 45.384981 
L 242.728736 46.581716 
L 240.461847 50.171923 
L 238.268083 166.255254 
L 236.001194 100.434808 
L 233.807431 87.270719 
L 231.540542 94.451132 
L 229.493029 88.467455 
L 227.22614 133.943399 
L 224.959251 161.468313 
L 222.765488 92.057661 
L 220.498599 44.188246 
L 218.304835 44.188246 
L 216.037946 42.99151 
L 213.771057 44.188246 
L 211.577294 93.254396 
L 209.310405 117.189104 
L 207.116641 93.254396 
L 204.849752 92.057661 
L 202.80224 90.860925 
L 200.535351 95.647867 
L 198.268462 90.860925 
L 196.074698 93.254396 
L 193.807809 42.99151 
L 191.614045 42.99151 
L 189.347156 44.188246 
L 187.080267 40.598039 
L 184.886504 45.384981 
L 182.619615 51.368658 
L 180.425851 127.959722 
L 178.158962 37.007833 
L 176.038324 50.171923 
L 173.771435 87.270719 
L 171.504546 87.270719 
L 169.310783 199.763845 
L 167.043894 92.057661 
L 164.85013 93.254396 
L 162.583241 89.66419 
L 160.316352 90.860925 
L 158.122589 92.057661 
L 155.8557 90.860925 
L 153.661936 199.763845 
L 151.395047 99.238073 
L 149.347535 86.073984 
L 147.080646 87.270719 
L 144.813757 88.467455 
L 142.619993 86.073984 
L 140.353104 88.467455 
L 138.15934 87.270719 
L 135.892451 88.467455 
L 133.625562 94.451132 
L 131.431799 101.631544 
L 129.16491 205.747522 
L 126.971146 309.8635 
L 124.704257 223.698553 
L 122.656745 86.073984 
L 120.389856 83.680513 
L 118.122967 87.270719 
L 115.929203 87.270719 
L 113.662314 93.254396 
L 111.468551 89.66419 
L 109.201662 89.66419 
L 106.934773 90.860925 
L 104.741009 88.467455 
L 102.47412 86.073984 
L 100.280357 87.270719 
L 98.013468 87.270719 
L 95.965955 82.483778 
L 93.699066 84.877249 
L 91.432177 87.270719 
L 89.238413 90.860925 
L 86.971524 93.254396 
L 84.777761 89.66419 
L 82.510872 88.467455 
L 80.243983 88.467455 
L 78.050219 83.680513 
L 75.78333 83.680513 
L 73.589567 83.680513 
L 71.322678 92.057661 
L 69.20204 89.66419 
L 66.935151 86.073984 
L 64.668262 184.206285 
L 62.474498 88.467455 
L 60.207609 89.66419 
L 58.013846 88.467455 
L 55.746957 90.860925 
L 53.480068 92.057661 
L 51.286304 87.270719 
L 49.019415 86.073984 
L 46.825652 90.860925 
L 44.558763 90.860925 
L 42.51125 89.66419 
z
" style="fill:#808080;fill-opacity:0.3;"/>
   </g>
   <g id="PolyCollection_2">
    <path clip-path="url(#p48c204b510)" d="M 42.51125 309.8635 
L 42.51125 309.8635 
L 44.558763 309.8635 
L 46.825652 309.8635 
L 49.019415 309.8635 
L 51.286304 309.8635 
L 53.480068 309.8635 
L 55.746957 204.550787 
L 58.013846 261.096533 
L 60.207609 309.8635 
L 62.474498 309.8635 
L 64.668262 309.8635 
L 66.935151 309.8635 
L 69.20204 309.8635 
L 71.322678 309.8635 
L 73.589567 309.8635 
L 75.78333 204.550787 
L 78.050219 148.304224 
L 80.243983 175.829137 
L 82.510872 167.45199 
L 84.777761 175.829137 
L 86.971524 209.337728 
L 89.238413 214.12467 
L 91.432177 214.12467 
L 93.699066 162.665048 
L 95.965955 161.468313 
L 98.013468 127.959722 
L 100.280357 203.354051 
L 102.47412 198.56711 
L 104.741009 202.755683 
L 106.934773 209.337728 
L 109.201662 184.505469 
L 111.468551 180.616079 
L 113.662314 204.550787 
L 115.929203 212.927934 
L 118.122967 204.84997 
L 120.389856 184.206285 
L 122.656745 309.8635 
L 124.704257 309.8635 
L 126.971146 309.8635 
L 129.16491 309.8635 
L 131.431799 309.8635 
L 133.625562 309.8635 
L 135.892451 214.12467 
L 138.15934 214.12467 
L 140.353104 309.8635 
L 142.619993 309.8635 
L 144.813757 214.12467 
L 147.080646 202.157316 
L 149.347535 309.8635 
L 151.395047 309.8635 
L 153.661936 309.8635 
L 155.8557 309.8635 
L 158.122589 309.8635 
L 160.316352 309.8635 
L 162.583241 214.12467 
L 164.85013 271.567968 
L 167.043894 309.8635 
L 169.310783 309.8635 
L 171.504546 309.8635 
L 173.771435 259.600614 
L 176.038324 309.8635 
L 178.158962 268.276946 
L 180.425851 264.387556 
L 182.619615 309.8635 
L 184.886504 309.8635 
L 187.080267 309.8635 
L 189.347156 303.879823 
L 191.614045 309.8635 
L 193.807809 309.8635 
L 196.074698 309.8635 
L 198.268462 309.8635 
L 200.535351 309.8635 
L 202.80224 309.8635 
L 204.849752 309.8635 
L 207.116641 309.8635 
L 209.310405 309.8635 
L 211.577294 309.8635 
L 213.771057 309.8635 
L 216.037946 309.8635 
L 218.304835 308.965948 
L 220.498599 309.8635 
L 222.765488 309.8635 
L 224.959251 309.8635 
L 227.22614 309.8635 
L 229.493029 309.8635 
L 231.540542 309.8635 
L 233.807431 309.8635 
L 236.001194 309.8635 
L 238.268083 309.8635 
L 240.461847 309.8635 
L 242.728736 303.879823 
L 244.995625 309.8635 
L 247.189389 309.8635 
L 249.456278 309.8635 
L 251.650041 309.8635 
L 253.91693 309.8635 
L 256.183819 309.8635 
L 258.231332 309.8635 
L 260.498221 309.8635 
L 262.691984 309.8635 
L 264.958873 309.8635 
L 267.152637 309.8635 
L 269.419526 309.8635 
L 271.686415 309.8635 
L 273.880178 309.8635 
L 276.147067 309.8635 
L 278.340831 309.8635 
L 280.60772 309.8635 
L 282.874609 309.8635 
L 284.995247 309.8635 
L 287.262136 309.8635 
L 289.455899 309.8635 
L 291.722788 309.8635 
L 293.916552 309.8635 
L 296.183441 309.8635 
L 298.45033 309.8635 
L 300.644094 309.8635 
L 302.910983 309.8635 
L 305.104746 309.8635 
L 307.371635 309.8635 
L 309.638524 309.8635 
L 311.686037 309.8635 
L 313.952926 309.8635 
L 316.146689 309.8635 
L 318.413578 309.8635 
L 320.607342 309.8635 
L 322.874231 309.8635 
L 325.14112 309.8635 
L 327.334883 309.8635 
L 329.601772 309.8635 
L 331.795536 309.8635 
L 334.062425 309.8635 
L 336.329314 309.8635 
L 338.376826 309.8635 
L 340.643715 309.8635 
L 342.837479 309.8635 
L 345.104368 309.8635 
L 347.298132 309.8635 
L 349.565021 309.8635 
L 351.83191 309.8635 
L 354.025673 309.8635 
L 356.292562 309.8635 
L 358.486326 309.8635 
L 360.753215 309.8635 
L 363.020104 309.8635 
L 365.067616 309.8635 
L 367.334505 309.8635 
L 369.528269 309.8635 
L 371.795158 309.8635 
L 373.988921 309.8635 
L 376.25581 309.8635 
L 378.522699 309.8635 
L 380.716463 309.8635 
L 382.983352 309.8635 
L 385.177115 309.8635 
L 387.444004 309.8635 
L 389.710893 309.8635 
L 391.831531 309.8635 
L 394.09842 309.8635 
L 396.292184 309.8635 
L 398.559073 309.8635 
L 400.752837 309.8635 
L 403.019726 309.8635 
L 405.286615 309.8635 
L 407.480378 309.8635 
L 409.747267 309.8635 
L 411.941031 309.8635 
L 414.20792 309.8635 
L 416.474809 309.8635 
L 418.522321 309.8635 
L 420.78921 309.8635 
L 422.982974 309.8635 
L 425.249863 309.8635 
L 427.443626 309.8635 
L 429.710515 309.8635 
L 431.977404 309.8635 
L 434.171168 309.8635 
L 436.438057 309.8635 
L 438.63182 309.8635 
L 440.898709 309.8635 
L 443.165598 309.8635 
L 445.213111 309.8635 
L 447.48 309.8635 
L 447.48 309.8635 
L 447.48 309.8635 
L 445.213111 309.8635 
L 443.165598 309.8635 
L 440.898709 309.8635 
L 438.63182 309.8635 
L 436.438057 309.8635 
L 434.171168 262.592452 
L 431.977404 145.910753 
L 429.710515 153.091165 
L 427.443626 169.546277 
L 425.249863 247.63326 
L 422.982974 257.207143 
L 420.78921 194.976904 
L 418.522321 309.8635 
L 416.474809 309.8635 
L 414.20792 309.8635 
L 411.941031 309.8635 
L 409.747267 260.797349 
L 407.480378 259.600614 
L 405.286615 137.533605 
L 403.019726 181.51363 
L 400.752837 193.780168 
L 398.559073 200.96058 
L 396.292184 257.207143 
L 394.09842 199.763845 
L 391.831531 259.30143 
L 389.710893 303.281455 
L 387.444004 261.694901 
L 385.177115 206.944257 
L 382.983352 123.172781 
L 380.716463 130.054009 
L 378.522699 118.385839 
L 376.25581 137.234421 
L 373.988921 151.595246 
L 371.795158 309.8635 
L 369.528269 309.8635 
L 367.334505 308.965948 
L 365.067616 309.8635 
L 363.020104 309.8635 
L 360.753215 309.8635 
L 358.486326 309.8635 
L 356.292562 309.8635 
L 354.025673 174.931586 
L 351.83191 188.993227 
L 349.565021 139.627892 
L 347.298132 209.337728 
L 345.104368 309.8635 
L 342.837479 309.8635 
L 340.643715 309.8635 
L 338.376826 309.8635 
L 336.329314 309.8635 
L 334.062425 309.8635 
L 331.795536 309.8635 
L 329.601772 309.8635 
L 327.334883 258.703062 
L 325.14112 162.365864 
L 322.874231 95.647867 
L 320.607342 134.840951 
L 318.413578 189.591594 
L 316.146689 250.026731 
L 313.952926 205.747522 
L 311.686037 252.420202 
L 309.638524 254.813673 
L 307.371635 254.813673 
L 305.104746 309.8635 
L 302.910983 266.781026 
L 300.644094 157.878107 
L 298.45033 60.942541 
L 296.183441 107.316037 
L 293.916552 151.89443 
L 291.722788 204.550787 
L 289.455899 261.994085 
L 287.262136 261.994085 
L 284.995247 199.763845 
L 282.874609 266.781026 
L 280.60772 264.387556 
L 278.340831 309.8635 
L 276.147067 309.8635 
L 273.880178 217.116508 
L 271.686415 115.992368 
L 269.419526 145.611569 
L 267.152637 220.108346 
L 264.958873 309.8635 
L 262.691984 309.8635 
L 260.498221 309.8635 
L 258.231332 257.207143 
L 256.183819 288.920631 
L 253.91693 261.994085 
L 251.650041 301.187168 
L 249.456278 252.420202 
L 247.189389 173.734851 
L 244.995625 117.189104 
L 242.728736 88.168271 
L 240.461847 142.320547 
L 238.268083 309.8635 
L 236.001194 309.8635 
L 233.807431 218.911611 
L 231.540542 309.8635 
L 229.493029 309.8635 
L 227.22614 309.8635 
L 224.959251 309.8635 
L 222.765488 235.366723 
L 220.498599 93.254396 
L 218.304835 60.643357 
L 216.037946 53.462945 
L 213.771057 189.890778 
L 211.577294 166.255254 
L 209.310405 309.8635 
L 207.116641 230.878965 
L 204.849752 218.911611 
L 202.80224 266.182659 
L 200.535351 219.809163 
L 198.268462 205.747522 
L 196.074698 209.337728 
L 193.807809 64.233563 
L 191.614045 65.729482 
L 189.347156 72.610711 
L 187.080267 79.791123 
L 184.886504 166.255254 
L 182.619615 214.12467 
L 180.425851 257.207143 
L 178.158962 200.96058 
L 176.038324 214.12467 
L 173.771435 171.042196 
L 171.504546 207.841809 
L 169.310783 246.137341 
L 167.043894 154.886268 
L 164.85013 142.320547 
L 162.583241 123.172781 
L 160.316352 171.042196 
L 158.122589 167.152806 
L 155.8557 191.087514 
L 153.661936 268.875313 
L 151.395047 264.387556 
L 149.347535 199.763845 
L 147.080646 124.369516 
L 144.813757 140.824628 
L 142.619993 166.255254 
L 140.353104 166.255254 
L 138.15934 121.976045 
L 135.892451 130.054009 
L 133.625562 218.911611 
L 131.431799 309.8635 
L 129.16491 309.8635 
L 126.971146 309.8635 
L 124.704257 309.8635 
L 122.656745 213.526302 
L 120.389856 99.238073 
L 118.122967 96.545418 
L 115.929203 144.714018 
L 113.662314 110.008692 
L 111.468551 95.647867 
L 109.201662 98.041338 
L 106.934773 99.238073 
L 104.741009 95.647867 
L 102.47412 104.025015 
L 100.280357 123.172781 
L 98.013468 90.860925 
L 95.965955 89.66419 
L 93.699066 94.451132 
L 91.432177 127.959722 
L 89.238413 129.754825 
L 86.971524 99.238073 
L 84.777761 94.451132 
L 82.510872 93.254396 
L 80.243983 93.254396 
L 78.050219 90.860925 
L 75.78333 89.66419 
L 73.589567 259.30143 
L 71.322678 249.727547 
L 69.20204 242.846319 
L 66.935151 279.645932 
L 64.668262 309.8635 
L 62.474498 309.8635 
L 60.207609 121.976045 
L 58.013846 95.647867 
L 55.746957 115.992368 
L 53.480068 114.795633 
L 51.286304 137.234421 
L 49.019415 117.189104 
L 46.825652 184.206285 
L 44.558763 100.434808 
L 42.51125 309.8635 
z
" style="fill:#808080;fill-opacity:0.6;"/>
   </g>
   <g id="matplotlib.axis_1">
    <g id="xtick_1">
     <g id="line2d_1">
      <path clip-path="url(#p48c204b510)" d="M 93.772191 309.8635 
L 93.772191 23.36505 
" style="fill:none;stroke:#b0b0b0;stroke-linecap:square;stroke-width:0.8;"/>
     </g>
     <g id="line2d_2">
      <defs>
       <path d="M 0 0 
L 0 3.5 
" id="m350ca70a2d" style="stroke:#000000;stroke-width:0.8;"/>
      </defs>
      <g>
       <use style="stroke:#000000;stroke-width:0.8;" x="93.772191" xlink:href="#m350ca70a2d" y="309.8635"/>
      </g>
     </g>
     <g id="text_1">
      <!-- 2005 -->
      <defs>
       <path d="M 19.1875 8.296875 
L 53.609375 8.296875 
L 53.609375 0 
L 7.328125 0 
L 7.328125 8.296875 
Q 12.9375 14.109375 22.625 23.890625 
Q 32.328125 33.6875 34.8125 36.53125 
Q 39.546875 41.84375 41.421875 45.53125 
Q 43.3125 49.21875 43.3125 52.78125 
Q 43.3125 58.59375 39.234375 62.25 
Q 35.15625 65.921875 28.609375 65.921875 
Q 23.96875 65.921875 18.8125 64.3125 
Q 13.671875 62.703125 7.8125 59.421875 
L 7.8125 69.390625 
Q 13.765625 71.78125 18.9375 73 
Q 24.125 74.21875 28.421875 74.21875 
Q 39.75 74.21875 46.484375 68.546875 
Q 53.21875 62.890625 53.21875 53.421875 
Q 53.21875 48.921875 51.53125 44.890625 
Q 49.859375 40.875 45.40625 35.40625 
Q 44.1875 33.984375 37.640625 27.21875 
Q 31.109375 20.453125 19.1875 8.296875 
z
" id="DejaVuSans-32"/>
       <path d="M 31.78125 66.40625 
Q 24.171875 66.40625 20.328125 58.90625 
Q 16.5 51.421875 16.5 36.375 
Q 16.5 21.390625 20.328125 13.890625 
Q 24.171875 6.390625 31.78125 6.390625 
Q 39.453125 6.390625 43.28125 13.890625 
Q 47.125 21.390625 47.125 36.375 
Q 47.125 51.421875 43.28125 58.90625 
Q 39.453125 66.40625 31.78125 66.40625 
z
M 31.78125 74.21875 
Q 44.046875 74.21875 50.515625 64.515625 
Q 56.984375 54.828125 56.984375 36.375 
Q 56.984375 17.96875 50.515625 8.265625 
Q 44.046875 -1.421875 31.78125 -1.421875 
Q 19.53125 -1.421875 13.0625 8.265625 
Q 6.59375 17.96875 6.59375 36.375 
Q 6.59375 54.828125 13.0625 64.515625 
Q 19.53125 74.21875 31.78125 74.21875 
z
" id="DejaVuSans-30"/>
       <path d="M 10.796875 72.90625 
L 49.515625 72.90625 
L 49.515625 64.59375 
L 19.828125 64.59375 
L 19.828125 46.734375 
Q 21.96875 47.46875 24.109375 47.828125 
Q 26.265625 48.1875 28.421875 48.1875 
Q 40.625 48.1875 47.75 41.5 
Q 54.890625 34.8125 54.890625 23.390625 
Q 54.890625 11.625 47.5625 5.09375 
Q 40.234375 -1.421875 26.90625 -1.421875 
Q 22.3125 -1.421875 17.546875 -0.640625 
Q 12.796875 0.140625 7.71875 1.703125 
L 7.71875 11.625 
Q 12.109375 9.234375 16.796875 8.0625 
Q 21.484375 6.890625 26.703125 6.890625 
Q 35.15625 6.890625 40.078125 11.328125 
Q 45.015625 15.765625 45.015625 23.390625 
Q 45.015625 31 40.078125 35.4375 
Q 35.15625 39.890625 26.703125 39.890625 
Q 22.75 39.890625 18.8125 39.015625 
Q 14.890625 38.140625 10.796875 36.28125 
z
" id="DejaVuSans-35"/>
      </defs>
      <g transform="translate(81.047191 324.461937)scale(0.1 -0.1)">
       <use xlink:href="#DejaVuSans-32"/>
       <use x="63.623047" xlink:href="#DejaVuSans-30"/>
       <use x="127.246094" xlink:href="#DejaVuSans-30"/>
       <use x="190.869141" xlink:href="#DejaVuSans-35"/>
      </g>
     </g>
    </g>
    <g id="xtick_2">
     <g id="line2d_3">
      <path clip-path="url(#p48c204b510)" d="M 147.153771 309.8635 
L 147.153771 23.36505 
" style="fill:none;stroke:#b0b0b0;stroke-linecap:square;stroke-width:0.8;"/>
     </g>
     <g id="line2d_4">
      <g>
       <use style="stroke:#000000;stroke-width:0.8;" x="147.153771" xlink:href="#m350ca70a2d" y="309.8635"/>
      </g>
     </g>
     <g id="text_2">
      <!-- 2007 -->
      <defs>
       <path d="M 8.203125 72.90625 
L 55.078125 72.90625 
L 55.078125 68.703125 
L 28.609375 0 
L 18.3125 0 
L 43.21875 64.59375 
L 8.203125 64.59375 
z
" id="DejaVuSans-37"/>
      </defs>
      <g transform="translate(134.428771 324.461937)scale(0.1 -0.1)">
       <use xlink:href="#DejaVuSans-32"/>
       <use x="63.623047" xlink:href="#DejaVuSans-30"/>
       <use x="127.246094" xlink:href="#DejaVuSans-30"/>
       <use x="190.869141" xlink:href="#DejaVuSans-37"/>
      </g>
     </g>
    </g>
    <g id="xtick_3">
     <g id="line2d_5">
      <path clip-path="url(#p48c204b510)" d="M 200.608476 309.8635 
L 200.608476 23.36505 
" style="fill:none;stroke:#b0b0b0;stroke-linecap:square;stroke-width:0.8;"/>
     </g>
     <g id="line2d_6">
      <g>
       <use style="stroke:#000000;stroke-width:0.8;" x="200.608476" xlink:href="#m350ca70a2d" y="309.8635"/>
      </g>
     </g>
     <g id="text_3">
      <!-- 2009 -->
      <defs>
       <path d="M 10.984375 1.515625 
L 10.984375 10.5 
Q 14.703125 8.734375 18.5 7.8125 
Q 22.3125 6.890625 25.984375 6.890625 
Q 35.75 6.890625 40.890625 13.453125 
Q 46.046875 20.015625 46.78125 33.40625 
Q 43.953125 29.203125 39.59375 26.953125 
Q 35.25 24.703125 29.984375 24.703125 
Q 19.046875 24.703125 12.671875 31.3125 
Q 6.296875 37.9375 6.296875 49.421875 
Q 6.296875 60.640625 12.9375 67.421875 
Q 19.578125 74.21875 30.609375 74.21875 
Q 43.265625 74.21875 49.921875 64.515625 
Q 56.59375 54.828125 56.59375 36.375 
Q 56.59375 19.140625 48.40625 8.859375 
Q 40.234375 -1.421875 26.421875 -1.421875 
Q 22.703125 -1.421875 18.890625 -0.6875 
Q 15.09375 0.046875 10.984375 1.515625 
z
M 30.609375 32.421875 
Q 37.25 32.421875 41.125 36.953125 
Q 45.015625 41.5 45.015625 49.421875 
Q 45.015625 57.28125 41.125 61.84375 
Q 37.25 66.40625 30.609375 66.40625 
Q 23.96875 66.40625 20.09375 61.84375 
Q 16.21875 57.28125 16.21875 49.421875 
Q 16.21875 41.5 20.09375 36.953125 
Q 23.96875 32.421875 30.609375 32.421875 
z
" id="DejaVuSans-39"/>
      </defs>
      <g transform="translate(187.883476 324.461937)scale(0.1 -0.1)">
       <use xlink:href="#DejaVuSans-32"/>
       <use x="63.623047" xlink:href="#DejaVuSans-30"/>
       <use x="127.246094" xlink:href="#DejaVuSans-30"/>
       <use x="190.869141" xlink:href="#DejaVuSans-39"/>
      </g>
     </g>
    </g>
    <g id="xtick_4">
     <g id="line2d_7">
      <path clip-path="url(#p48c204b510)" d="M 253.990056 309.8635 
L 253.990056 23.36505 
" style="fill:none;stroke:#b0b0b0;stroke-linecap:square;stroke-width:0.8;"/>
     </g>
     <g id="line2d_8">
      <g>
       <use style="stroke:#000000;stroke-width:0.8;" x="253.990056" xlink:href="#m350ca70a2d" y="309.8635"/>
      </g>
     </g>
     <g id="text_4">
      <!-- 2011 -->
      <defs>
       <path d="M 12.40625 8.296875 
L 28.515625 8.296875 
L 28.515625 63.921875 
L 10.984375 60.40625 
L 10.984375 69.390625 
L 28.421875 72.90625 
L 38.28125 72.90625 
L 38.28125 8.296875 
L 54.390625 8.296875 
L 54.390625 0 
L 12.40625 0 
z
" id="DejaVuSans-31"/>
      </defs>
      <g transform="translate(241.265056 324.461937)scale(0.1 -0.1)">
       <use xlink:href="#DejaVuSans-32"/>
       <use x="63.623047" xlink:href="#DejaVuSans-30"/>
       <use x="127.246094" xlink:href="#DejaVuSans-31"/>
       <use x="190.869141" xlink:href="#DejaVuSans-31"/>
      </g>
     </g>
    </g>
    <g id="xtick_5">
     <g id="line2d_9">
      <path clip-path="url(#p48c204b510)" d="M 307.444761 309.8635 
L 307.444761 23.36505 
" style="fill:none;stroke:#b0b0b0;stroke-linecap:square;stroke-width:0.8;"/>
     </g>
     <g id="line2d_10">
      <g>
       <use style="stroke:#000000;stroke-width:0.8;" x="307.444761" xlink:href="#m350ca70a2d" y="309.8635"/>
      </g>
     </g>
     <g id="text_5">
      <!-- 2013 -->
      <defs>
       <path d="M 40.578125 39.3125 
Q 47.65625 37.796875 51.625 33 
Q 55.609375 28.21875 55.609375 21.1875 
Q 55.609375 10.40625 48.1875 4.484375 
Q 40.765625 -1.421875 27.09375 -1.421875 
Q 22.515625 -1.421875 17.65625 -0.515625 
Q 12.796875 0.390625 7.625 2.203125 
L 7.625 11.71875 
Q 11.71875 9.328125 16.59375 8.109375 
Q 21.484375 6.890625 26.8125 6.890625 
Q 36.078125 6.890625 40.9375 10.546875 
Q 45.796875 14.203125 45.796875 21.1875 
Q 45.796875 27.640625 41.28125 31.265625 
Q 36.765625 34.90625 28.71875 34.90625 
L 20.21875 34.90625 
L 20.21875 43.015625 
L 29.109375 43.015625 
Q 36.375 43.015625 40.234375 45.921875 
Q 44.09375 48.828125 44.09375 54.296875 
Q 44.09375 59.90625 40.109375 62.90625 
Q 36.140625 65.921875 28.71875 65.921875 
Q 24.65625 65.921875 20.015625 65.03125 
Q 15.375 64.15625 9.8125 62.3125 
L 9.8125 71.09375 
Q 15.4375 72.65625 20.34375 73.4375 
Q 25.25 74.21875 29.59375 74.21875 
Q 40.828125 74.21875 47.359375 69.109375 
Q 53.90625 64.015625 53.90625 55.328125 
Q 53.90625 49.265625 50.4375 45.09375 
Q 46.96875 40.921875 40.578125 39.3125 
z
" id="DejaVuSans-33"/>
      </defs>
      <g transform="translate(294.719761 324.461937)scale(0.1 -0.1)">
       <use xlink:href="#DejaVuSans-32"/>
       <use x="63.623047" xlink:href="#DejaVuSans-30"/>
       <use x="127.246094" xlink:href="#DejaVuSans-31"/>
       <use x="190.869141" xlink:href="#DejaVuSans-33"/>
      </g>
     </g>
    </g>
    <g id="xtick_6">
     <g id="line2d_11">
      <path clip-path="url(#p48c204b510)" d="M 360.82634 309.8635 
L 360.82634 23.36505 
" style="fill:none;stroke:#b0b0b0;stroke-linecap:square;stroke-width:0.8;"/>
     </g>
     <g id="line2d_12">
      <g>
       <use style="stroke:#000000;stroke-width:0.8;" x="360.82634" xlink:href="#m350ca70a2d" y="309.8635"/>
      </g>
     </g>
     <g id="text_6">
      <!-- 2015 -->
      <g transform="translate(348.10134 324.461937)scale(0.1 -0.1)">
       <use xlink:href="#DejaVuSans-32"/>
       <use x="63.623047" xlink:href="#DejaVuSans-30"/>
       <use x="127.246094" xlink:href="#DejaVuSans-31"/>
       <use x="190.869141" xlink:href="#DejaVuSans-35"/>
      </g>
     </g>
    </g>
    <g id="xtick_7">
     <g id="line2d_13">
      <path clip-path="url(#p48c204b510)" d="M 414.281045 309.8635 
L 414.281045 23.36505 
" style="fill:none;stroke:#b0b0b0;stroke-linecap:square;stroke-width:0.8;"/>
     </g>
     <g id="line2d_14">
      <g>
       <use style="stroke:#000000;stroke-width:0.8;" x="414.281045" xlink:href="#m350ca70a2d" y="309.8635"/>
      </g>
     </g>
     <g id="text_7">
      <!-- 2017 -->
      <g transform="translate(401.556045 324.461937)scale(0.1 -0.1)">
       <use xlink:href="#DejaVuSans-32"/>
       <use x="63.623047" xlink:href="#DejaVuSans-30"/>
       <use x="127.246094" xlink:href="#DejaVuSans-31"/>
       <use x="190.869141" xlink:href="#DejaVuSans-37"/>
      </g>
     </g>
    </g>
    <g id="text_8">
     <!-- Date -->
     <defs>
      <path d="M 19.671875 64.796875 
L 19.671875 8.109375 
L 31.59375 8.109375 
Q 46.6875 8.109375 53.6875 14.9375 
Q 60.6875 21.78125 60.6875 36.53125 
Q 60.6875 51.171875 53.6875 57.984375 
Q 46.6875 64.796875 31.59375 64.796875 
z
M 9.8125 72.90625 
L 30.078125 72.90625 
Q 51.265625 72.90625 61.171875 64.09375 
Q 71.09375 55.28125 71.09375 36.53125 
Q 71.09375 17.671875 61.125 8.828125 
Q 51.171875 0 30.078125 0 
L 9.8125 0 
z
" id="DejaVuSans-44"/>
      <path d="M 34.28125 27.484375 
Q 23.390625 27.484375 19.1875 25 
Q 14.984375 22.515625 14.984375 16.5 
Q 14.984375 11.71875 18.140625 8.90625 
Q 21.296875 6.109375 26.703125 6.109375 
Q 34.1875 6.109375 38.703125 11.40625 
Q 43.21875 16.703125 43.21875 25.484375 
L 43.21875 27.484375 
z
M 52.203125 31.203125 
L 52.203125 0 
L 43.21875 0 
L 43.21875 8.296875 
Q 40.140625 3.328125 35.546875 0.953125 
Q 30.953125 -1.421875 24.3125 -1.421875 
Q 15.921875 -1.421875 10.953125 3.296875 
Q 6 8.015625 6 15.921875 
Q 6 25.140625 12.171875 29.828125 
Q 18.359375 34.515625 30.609375 34.515625 
L 43.21875 34.515625 
L 43.21875 35.40625 
Q 43.21875 41.609375 39.140625 45 
Q 35.0625 48.390625 27.6875 48.390625 
Q 23 48.390625 18.546875 47.265625 
Q 14.109375 46.140625 10.015625 43.890625 
L 10.015625 52.203125 
Q 14.9375 54.109375 19.578125 55.046875 
Q 24.21875 56 28.609375 56 
Q 40.484375 56 46.34375 49.84375 
Q 52.203125 43.703125 52.203125 31.203125 
z
" id="DejaVuSans-61"/>
      <path d="M 18.3125 70.21875 
L 18.3125 54.6875 
L 36.8125 54.6875 
L 36.8125 47.703125 
L 18.3125 47.703125 
L 18.3125 18.015625 
Q 18.3125 11.328125 20.140625 9.421875 
Q 21.96875 7.515625 27.59375 7.515625 
L 36.8125 7.515625 
L 36.8125 0 
L 27.59375 0 
Q 17.1875 0 13.234375 3.875 
Q 9.28125 7.765625 9.28125 18.015625 
L 9.28125 47.703125 
L 2.6875 47.703125 
L 2.6875 54.6875 
L 9.28125 54.6875 
L 9.28125 70.21875 
z
" id="DejaVuSans-74"/>
      <path d="M 56.203125 29.59375 
L 56.203125 25.203125 
L 14.890625 25.203125 
Q 15.484375 15.921875 20.484375 11.0625 
Q 25.484375 6.203125 34.421875 6.203125 
Q 39.59375 6.203125 44.453125 7.46875 
Q 49.3125 8.734375 54.109375 11.28125 
L 54.109375 2.78125 
Q 49.265625 0.734375 44.1875 -0.34375 
Q 39.109375 -1.421875 33.890625 -1.421875 
Q 20.796875 -1.421875 13.15625 6.1875 
Q 5.515625 13.8125 5.515625 26.8125 
Q 5.515625 40.234375 12.765625 48.109375 
Q 20.015625 56 32.328125 56 
Q 43.359375 56 49.78125 48.890625 
Q 56.203125 41.796875 56.203125 29.59375 
z
M 47.21875 32.234375 
Q 47.125 39.59375 43.09375 43.984375 
Q 39.0625 48.390625 32.421875 48.390625 
Q 24.90625 48.390625 20.390625 44.140625 
Q 15.875 39.890625 15.1875 32.171875 
z
" id="DejaVuSans-65"/>
     </defs>
     <g transform="translate(233.044844 338.140062)scale(0.1 -0.1)">
      <use xlink:href="#DejaVuSans-44"/>
      <use x="77.001953" xlink:href="#DejaVuSans-61"/>
      <use x="138.28125" xlink:href="#DejaVuSans-74"/>
      <use x="177.490234" xlink:href="#DejaVuSans-65"/>
     </g>
    </g>
   </g>
   <g id="matplotlib.axis_2">
    <g id="ytick_1">
     <g id="line2d_15">
      <path clip-path="url(#p48c204b510)" d="M 42.51125 309.8635 
L 447.48 309.8635 
" style="fill:none;stroke:#b0b0b0;stroke-linecap:square;stroke-width:0.8;"/>
     </g>
     <g id="line2d_16">
      <defs>
       <path d="M 0 0 
L -3.5 0 
" id="m121af2f654" style="stroke:#000000;stroke-width:0.8;"/>
      </defs>
      <g>
       <use style="stroke:#000000;stroke-width:0.8;" x="42.51125" xlink:href="#m121af2f654" y="309.8635"/>
      </g>
     </g>
     <g id="text_9">
      <!-- 0 -->
      <g transform="translate(29.14875 313.662719)scale(0.1 -0.1)">
       <use xlink:href="#DejaVuSans-30"/>
      </g>
     </g>
    </g>
    <g id="ytick_2">
     <g id="line2d_17">
      <path clip-path="url(#p48c204b510)" d="M 42.51125 250.026731 
L 447.48 250.026731 
" style="fill:none;stroke:#b0b0b0;stroke-linecap:square;stroke-width:0.8;"/>
     </g>
     <g id="line2d_18">
      <g>
       <use style="stroke:#000000;stroke-width:0.8;" x="42.51125" xlink:href="#m121af2f654" y="250.026731"/>
      </g>
     </g>
     <g id="text_10">
      <!-- 50 -->
      <g transform="translate(22.78625 253.82595)scale(0.1 -0.1)">
       <use xlink:href="#DejaVuSans-35"/>
       <use x="63.623047" xlink:href="#DejaVuSans-30"/>
      </g>
     </g>
    </g>
    <g id="ytick_3">
     <g id="line2d_19">
      <path clip-path="url(#p48c204b510)" d="M 42.51125 190.189962 
L 447.48 190.189962 
" style="fill:none;stroke:#b0b0b0;stroke-linecap:square;stroke-width:0.8;"/>
     </g>
     <g id="line2d_20">
      <g>
       <use style="stroke:#000000;stroke-width:0.8;" x="42.51125" xlink:href="#m121af2f654" y="190.189962"/>
      </g>
     </g>
     <g id="text_11">
      <!-- 100 -->
      <g transform="translate(16.42375 193.989181)scale(0.1 -0.1)">
       <use xlink:href="#DejaVuSans-31"/>
       <use x="63.623047" xlink:href="#DejaVuSans-30"/>
       <use x="127.246094" xlink:href="#DejaVuSans-30"/>
      </g>
     </g>
    </g>
    <g id="ytick_4">
     <g id="line2d_21">
      <path clip-path="url(#p48c204b510)" d="M 42.51125 130.353193 
L 447.48 130.353193 
" style="fill:none;stroke:#b0b0b0;stroke-linecap:square;stroke-width:0.8;"/>
     </g>
     <g id="line2d_22">
      <g>
       <use style="stroke:#000000;stroke-width:0.8;" x="42.51125" xlink:href="#m121af2f654" y="130.353193"/>
      </g>
     </g>
     <g id="text_12">
      <!-- 150 -->
      <g transform="translate(16.42375 134.152412)scale(0.1 -0.1)">
       <use xlink:href="#DejaVuSans-31"/>
       <use x="63.623047" xlink:href="#DejaVuSans-35"/>
       <use x="127.246094" xlink:href="#DejaVuSans-30"/>
      </g>
     </g>
    </g>
    <g id="ytick_5">
     <g id="line2d_23">
      <path clip-path="url(#p48c204b510)" d="M 42.51125 70.516424 
L 447.48 70.516424 
" style="fill:none;stroke:#b0b0b0;stroke-linecap:square;stroke-width:0.8;"/>
     </g>
     <g id="line2d_24">
      <g>
       <use style="stroke:#000000;stroke-width:0.8;" x="42.51125" xlink:href="#m121af2f654" y="70.516424"/>
      </g>
     </g>
     <g id="text_13">
      <!-- 200 -->
      <g transform="translate(16.42375 74.315643)scale(0.1 -0.1)">
       <use xlink:href="#DejaVuSans-32"/>
       <use x="63.623047" xlink:href="#DejaVuSans-30"/>
       <use x="127.246094" xlink:href="#DejaVuSans-30"/>
      </g>
     </g>
    </g>
    <g id="text_14">
     <!-- Gross load (MW) -->
     <defs>
      <path d="M 59.515625 10.40625 
L 59.515625 29.984375 
L 43.40625 29.984375 
L 43.40625 38.09375 
L 69.28125 38.09375 
L 69.28125 6.78125 
Q 63.578125 2.734375 56.6875 0.65625 
Q 49.8125 -1.421875 42 -1.421875 
Q 24.90625 -1.421875 15.25 8.5625 
Q 5.609375 18.5625 5.609375 36.375 
Q 5.609375 54.25 15.25 64.234375 
Q 24.90625 74.21875 42 74.21875 
Q 49.125 74.21875 55.546875 72.453125 
Q 61.96875 70.703125 67.390625 67.28125 
L 67.390625 56.78125 
Q 61.921875 61.421875 55.765625 63.765625 
Q 49.609375 66.109375 42.828125 66.109375 
Q 29.4375 66.109375 22.71875 58.640625 
Q 16.015625 51.171875 16.015625 36.375 
Q 16.015625 21.625 22.71875 14.15625 
Q 29.4375 6.6875 42.828125 6.6875 
Q 48.046875 6.6875 52.140625 7.59375 
Q 56.25 8.5 59.515625 10.40625 
z
" id="DejaVuSans-47"/>
      <path d="M 41.109375 46.296875 
Q 39.59375 47.171875 37.8125 47.578125 
Q 36.03125 48 33.890625 48 
Q 26.265625 48 22.1875 43.046875 
Q 18.109375 38.09375 18.109375 28.8125 
L 18.109375 0 
L 9.078125 0 
L 9.078125 54.6875 
L 18.109375 54.6875 
L 18.109375 46.1875 
Q 20.953125 51.171875 25.484375 53.578125 
Q 30.03125 56 36.53125 56 
Q 37.453125 56 38.578125 55.875 
Q 39.703125 55.765625 41.0625 55.515625 
z
" id="DejaVuSans-72"/>
      <path d="M 30.609375 48.390625 
Q 23.390625 48.390625 19.1875 42.75 
Q 14.984375 37.109375 14.984375 27.296875 
Q 14.984375 17.484375 19.15625 11.84375 
Q 23.34375 6.203125 30.609375 6.203125 
Q 37.796875 6.203125 41.984375 11.859375 
Q 46.1875 17.53125 46.1875 27.296875 
Q 46.1875 37.015625 41.984375 42.703125 
Q 37.796875 48.390625 30.609375 48.390625 
z
M 30.609375 56 
Q 42.328125 56 49.015625 48.375 
Q 55.71875 40.765625 55.71875 27.296875 
Q 55.71875 13.875 49.015625 6.21875 
Q 42.328125 -1.421875 30.609375 -1.421875 
Q 18.84375 -1.421875 12.171875 6.21875 
Q 5.515625 13.875 5.515625 27.296875 
Q 5.515625 40.765625 12.171875 48.375 
Q 18.84375 56 30.609375 56 
z
" id="DejaVuSans-6f"/>
      <path d="M 44.28125 53.078125 
L 44.28125 44.578125 
Q 40.484375 46.53125 36.375 47.5 
Q 32.28125 48.484375 27.875 48.484375 
Q 21.1875 48.484375 17.84375 46.4375 
Q 14.5 44.390625 14.5 40.28125 
Q 14.5 37.15625 16.890625 35.375 
Q 19.28125 33.59375 26.515625 31.984375 
L 29.59375 31.296875 
Q 39.15625 29.25 43.1875 25.515625 
Q 47.21875 21.78125 47.21875 15.09375 
Q 47.21875 7.46875 41.1875 3.015625 
Q 35.15625 -1.421875 24.609375 -1.421875 
Q 20.21875 -1.421875 15.453125 -0.5625 
Q 10.6875 0.296875 5.421875 2 
L 5.421875 11.28125 
Q 10.40625 8.6875 15.234375 7.390625 
Q 20.0625 6.109375 24.8125 6.109375 
Q 31.15625 6.109375 34.5625 8.28125 
Q 37.984375 10.453125 37.984375 14.40625 
Q 37.984375 18.0625 35.515625 20.015625 
Q 33.0625 21.96875 24.703125 23.78125 
L 21.578125 24.515625 
Q 13.234375 26.265625 9.515625 29.90625 
Q 5.8125 33.546875 5.8125 39.890625 
Q 5.8125 47.609375 11.28125 51.796875 
Q 16.75 56 26.8125 56 
Q 31.78125 56 36.171875 55.265625 
Q 40.578125 54.546875 44.28125 53.078125 
z
" id="DejaVuSans-73"/>
      <path id="DejaVuSans-20"/>
      <path d="M 9.421875 75.984375 
L 18.40625 75.984375 
L 18.40625 0 
L 9.421875 0 
z
" id="DejaVuSans-6c"/>
      <path d="M 45.40625 46.390625 
L 45.40625 75.984375 
L 54.390625 75.984375 
L 54.390625 0 
L 45.40625 0 
L 45.40625 8.203125 
Q 42.578125 3.328125 38.25 0.953125 
Q 33.9375 -1.421875 27.875 -1.421875 
Q 17.96875 -1.421875 11.734375 6.484375 
Q 5.515625 14.40625 5.515625 27.296875 
Q 5.515625 40.1875 11.734375 48.09375 
Q 17.96875 56 27.875 56 
Q 33.9375 56 38.25 53.625 
Q 42.578125 51.265625 45.40625 46.390625 
z
M 14.796875 27.296875 
Q 14.796875 17.390625 18.875 11.75 
Q 22.953125 6.109375 30.078125 6.109375 
Q 37.203125 6.109375 41.296875 11.75 
Q 45.40625 17.390625 45.40625 27.296875 
Q 45.40625 37.203125 41.296875 42.84375 
Q 37.203125 48.484375 30.078125 48.484375 
Q 22.953125 48.484375 18.875 42.84375 
Q 14.796875 37.203125 14.796875 27.296875 
z
" id="DejaVuSans-64"/>
      <path d="M 31 75.875 
Q 24.46875 64.65625 21.28125 53.65625 
Q 18.109375 42.671875 18.109375 31.390625 
Q 18.109375 20.125 21.3125 9.0625 
Q 24.515625 -2 31 -13.1875 
L 23.1875 -13.1875 
Q 15.875 -1.703125 12.234375 9.375 
Q 8.59375 20.453125 8.59375 31.390625 
Q 8.59375 42.28125 12.203125 53.3125 
Q 15.828125 64.359375 23.1875 75.875 
z
" id="DejaVuSans-28"/>
      <path d="M 9.8125 72.90625 
L 24.515625 72.90625 
L 43.109375 23.296875 
L 61.8125 72.90625 
L 76.515625 72.90625 
L 76.515625 0 
L 66.890625 0 
L 66.890625 64.015625 
L 48.09375 14.015625 
L 38.1875 14.015625 
L 19.390625 64.015625 
L 19.390625 0 
L 9.8125 0 
z
" id="DejaVuSans-4d"/>
      <path d="M 3.328125 72.90625 
L 13.28125 72.90625 
L 28.609375 11.28125 
L 43.890625 72.90625 
L 54.984375 72.90625 
L 70.3125 11.28125 
L 85.59375 72.90625 
L 95.609375 72.90625 
L 77.296875 0 
L 64.890625 0 
L 49.515625 63.28125 
L 33.984375 0 
L 21.578125 0 
z
" id="DejaVuSans-57"/>
      <path d="M 8.015625 75.875 
L 15.828125 75.875 
Q 23.140625 64.359375 26.78125 53.3125 
Q 30.421875 42.28125 30.421875 31.390625 
Q 30.421875 20.453125 26.78125 9.375 
Q 23.140625 -1.703125 15.828125 -13.1875 
L 8.015625 -13.1875 
Q 14.5 -2 17.703125 9.0625 
Q 20.90625 20.125 20.90625 31.390625 
Q 20.90625 42.671875 17.703125 53.65625 
Q 14.5 64.65625 8.015625 75.875 
z
" id="DejaVuSans-29"/>
     </defs>
     <g transform="translate(10.344062 207.835369)rotate(-90)scale(0.1 -0.1)">
      <use xlink:href="#DejaVuSans-47"/>
      <use x="77.490234" xlink:href="#DejaVuSans-72"/>
      <use x="118.572266" xlink:href="#DejaVuSans-6f"/>
      <use x="179.753906" xlink:href="#DejaVuSans-73"/>
      <use x="231.853516" xlink:href="#DejaVuSans-73"/>
      <use x="283.953125" xlink:href="#DejaVuSans-20"/>
      <use x="315.740234" xlink:href="#DejaVuSans-6c"/>
      <use x="343.523438" xlink:href="#DejaVuSans-6f"/>
      <use x="404.705078" xlink:href="#DejaVuSans-61"/>
      <use x="465.984375" xlink:href="#DejaVuSans-64"/>
      <use x="529.460938" xlink:href="#DejaVuSans-20"/>
      <use x="561.248047" xlink:href="#DejaVuSans-28"/>
      <use x="600.261719" xlink:href="#DejaVuSans-4d"/>
      <use x="686.541016" xlink:href="#DejaVuSans-57"/>
      <use x="785.417969" xlink:href="#DejaVuSans-29"/>
     </g>
    </g>
   </g>
   <g id="line2d_25">
    <path clip-path="url(#p48c204b510)" d="M 42.51125 309.8635 
L 44.558763 177.62424 
L 46.825652 309.8635 
L 51.286304 309.8635 
L 53.480068 197.370374 
L 55.746957 149.500959 
L 58.013846 115.992368 
L 60.207609 309.8635 
L 73.589567 309.8635 
L 75.78333 146.509121 
L 78.050219 97.44297 
L 80.243983 98.041338 
L 82.510872 111.205427 
L 84.777761 108.811956 
L 86.971524 149.500959 
L 89.238413 194.976904 
L 91.432177 171.042196 
L 93.699066 132.148296 
L 95.965955 120.77931 
L 98.013468 94.451132 
L 100.280357 199.763845 
L 102.47412 157.878107 
L 104.741009 123.771148 
L 106.934773 155.484636 
L 109.201662 135.140135 
L 111.468551 127.959722 
L 113.662314 156.681371 
L 115.929203 172.238931 
L 118.122967 144.11565 
L 120.389856 144.714018 
L 122.656745 259.600614 
L 124.704257 309.8635 
L 133.625562 309.8635 
L 135.892451 175.829137 
L 138.15934 175.829137 
L 140.353104 232.0757 
L 142.619993 218.911611 
L 144.813757 180.616079 
L 147.080646 163.861784 
L 149.347535 237.46101 
L 151.395047 309.8635 
L 153.661936 309.8635 
L 155.8557 218.911611 
L 158.122589 218.911611 
L 160.316352 255.41204 
L 162.583241 175.829137 
L 167.043894 222.501817 
L 169.310783 276.953277 
L 171.504546 264.387556 
L 173.771435 214.12467 
L 176.038324 263.789188 
L 178.158962 251.223466 
L 180.425851 264.387556 
L 182.619615 264.387556 
L 184.886504 277.551645 
L 187.080267 199.763845 
L 189.347156 169.845461 
L 191.614045 163.263416 
L 193.807809 187.796491 
L 196.074698 302.08472 
L 198.268462 238.059377 
L 200.535351 279.945115 
L 202.80224 309.8635 
L 204.849752 264.387556 
L 207.116641 309.8635 
L 209.310405 309.8635 
L 211.577294 242.846319 
L 213.771057 309.8635 
L 216.037946 167.45199 
L 218.304835 168.648725 
L 220.498599 203.952419 
L 222.765488 309.8635 
L 240.461847 309.8635 
L 242.728736 160.869945 
L 244.995625 194.378536 
L 247.189389 299.691249 
L 249.456278 309.8635 
L 267.152637 309.8635 
L 269.419526 263.789188 
L 271.686415 214.12467 
L 273.880178 309.8635 
L 282.874609 309.8635 
L 284.995247 218.911611 
L 287.262136 309.8635 
L 289.455899 309.8635 
L 291.722788 299.691249 
L 293.916552 238.657745 
L 296.183441 212.927934 
L 298.45033 194.976904 
L 300.644094 270.371232 
L 302.910983 309.8635 
L 313.952926 309.8635 
L 316.146689 301.486352 
L 318.413578 269.772865 
L 320.607342 253.018569 
L 322.874231 221.90345 
L 325.14112 278.74838 
L 327.334883 309.8635 
L 347.298132 309.8635 
L 349.565021 214.12467 
L 351.83191 303.879823 
L 354.025673 291.314102 
L 356.292562 309.8635 
L 371.795158 309.8635 
L 373.988921 276.354909 
L 376.25581 214.12467 
L 378.522699 200.362213 
L 380.716463 233.272436 
L 382.983352 199.763845 
L 385.177115 309.8635 
L 398.559073 309.8635 
L 400.752837 245.239789 
L 403.019726 208.140993 
L 405.286615 204.550787 
L 407.480378 309.8635 
L 418.522321 309.8635 
L 420.78921 258.403879 
L 422.982974 309.8635 
L 425.249863 309.8635 
L 427.443626 199.763845 
L 429.710515 199.763845 
L 431.977404 190.189962 
L 434.171168 309.8635 
L 447.48 309.8635 
L 447.48 309.8635 
" style="fill:none;stroke:#1f77b4;stroke-linecap:square;stroke-width:1.5;"/>
   </g>
   <g id="patch_3">
    <path d="M 42.51125 309.8635 
L 42.51125 23.36505 
" style="fill:none;stroke:#000000;stroke-linecap:square;stroke-linejoin:miter;stroke-width:0.8;"/>
   </g>
   <g id="patch_4">
    <path d="M 447.48 309.8635 
L 447.48 23.36505 
" style="fill:none;stroke:#000000;stroke-linecap:square;stroke-linejoin:miter;stroke-width:0.8;"/>
   </g>
   <g id="patch_5">
    <path d="M 42.51125 309.8635 
L 447.48 309.8635 
" style="fill:none;stroke:#000000;stroke-linecap:square;stroke-linejoin:miter;stroke-width:0.8;"/>
   </g>
   <g id="patch_6">
    <path d="M 42.51125 23.36505 
L 447.48 23.36505 
" style="fill:none;stroke:#000000;stroke-linecap:square;stroke-linejoin:miter;stroke-width:0.8;"/>
   </g>
   <g id="text_15">
    <!-- Monthly gload trend -->
    <defs>
     <path d="M 54.890625 33.015625 
L 54.890625 0 
L 45.90625 0 
L 45.90625 32.71875 
Q 45.90625 40.484375 42.875 44.328125 
Q 39.84375 48.1875 33.796875 48.1875 
Q 26.515625 48.1875 22.3125 43.546875 
Q 18.109375 38.921875 18.109375 30.90625 
L 18.109375 0 
L 9.078125 0 
L 9.078125 54.6875 
L 18.109375 54.6875 
L 18.109375 46.1875 
Q 21.34375 51.125 25.703125 53.5625 
Q 30.078125 56 35.796875 56 
Q 45.21875 56 50.046875 50.171875 
Q 54.890625 44.34375 54.890625 33.015625 
z
" id="DejaVuSans-6e"/>
     <path d="M 54.890625 33.015625 
L 54.890625 0 
L 45.90625 0 
L 45.90625 32.71875 
Q 45.90625 40.484375 42.875 44.328125 
Q 39.84375 48.1875 33.796875 48.1875 
Q 26.515625 48.1875 22.3125 43.546875 
Q 18.109375 38.921875 18.109375 30.90625 
L 18.109375 0 
L 9.078125 0 
L 9.078125 75.984375 
L 18.109375 75.984375 
L 18.109375 46.1875 
Q 21.34375 51.125 25.703125 53.5625 
Q 30.078125 56 35.796875 56 
Q 45.21875 56 50.046875 50.171875 
Q 54.890625 44.34375 54.890625 33.015625 
z
" id="DejaVuSans-68"/>
     <path d="M 32.171875 -5.078125 
Q 28.375 -14.84375 24.75 -17.8125 
Q 21.140625 -20.796875 15.09375 -20.796875 
L 7.90625 -20.796875 
L 7.90625 -13.28125 
L 13.1875 -13.28125 
Q 16.890625 -13.28125 18.9375 -11.515625 
Q 21 -9.765625 23.484375 -3.21875 
L 25.09375 0.875 
L 2.984375 54.6875 
L 12.5 54.6875 
L 29.59375 11.921875 
L 46.6875 54.6875 
L 56.203125 54.6875 
z
" id="DejaVuSans-79"/>
     <path d="M 45.40625 27.984375 
Q 45.40625 37.75 41.375 43.109375 
Q 37.359375 48.484375 30.078125 48.484375 
Q 22.859375 48.484375 18.828125 43.109375 
Q 14.796875 37.75 14.796875 27.984375 
Q 14.796875 18.265625 18.828125 12.890625 
Q 22.859375 7.515625 30.078125 7.515625 
Q 37.359375 7.515625 41.375 12.890625 
Q 45.40625 18.265625 45.40625 27.984375 
z
M 54.390625 6.78125 
Q 54.390625 -7.171875 48.1875 -13.984375 
Q 42 -20.796875 29.203125 -20.796875 
Q 24.46875 -20.796875 20.265625 -20.09375 
Q 16.0625 -19.390625 12.109375 -17.921875 
L 12.109375 -9.1875 
Q 16.0625 -11.328125 19.921875 -12.34375 
Q 23.78125 -13.375 27.78125 -13.375 
Q 36.625 -13.375 41.015625 -8.765625 
Q 45.40625 -4.15625 45.40625 5.171875 
L 45.40625 9.625 
Q 42.625 4.78125 38.28125 2.390625 
Q 33.9375 0 27.875 0 
Q 17.828125 0 11.671875 7.65625 
Q 5.515625 15.328125 5.515625 27.984375 
Q 5.515625 40.671875 11.671875 48.328125 
Q 17.828125 56 27.875 56 
Q 33.9375 56 38.28125 53.609375 
Q 42.625 51.21875 45.40625 46.390625 
L 45.40625 54.6875 
L 54.390625 54.6875 
z
" id="DejaVuSans-67"/>
    </defs>
    <g transform="translate(184.405 17.36505)scale(0.12 -0.12)">
     <use xlink:href="#DejaVuSans-4d"/>
     <use x="86.279297" xlink:href="#DejaVuSans-6f"/>
     <use x="147.460938" xlink:href="#DejaVuSans-6e"/>
     <use x="210.839844" xlink:href="#DejaVuSans-74"/>
     <use x="250.048828" xlink:href="#DejaVuSans-68"/>
     <use x="313.427734" xlink:href="#DejaVuSans-6c"/>
     <use x="341.210938" xlink:href="#DejaVuSans-79"/>
     <use x="400.390625" xlink:href="#DejaVuSans-20"/>
     <use x="432.177734" xlink:href="#DejaVuSans-67"/>
     <use x="495.654297" xlink:href="#DejaVuSans-6c"/>
     <use x="523.4375" xlink:href="#DejaVuSans-6f"/>
     <use x="584.619141" xlink:href="#DejaVuSans-61"/>
     <use x="645.898438" xlink:href="#DejaVuSans-64"/>
     <use x="709.375" xlink:href="#DejaVuSans-20"/>
     <use x="741.162109" xlink:href="#DejaVuSans-74"/>
     <use x="780.371094" xlink:href="#DejaVuSans-72"/>
     <use x="821.453125" xlink:href="#DejaVuSans-65"/>
     <use x="882.976562" xlink:href="#DejaVuSans-6e"/>
     <use x="946.355469" xlink:href="#DejaVuSans-64"/>
    </g>
   </g>
  </g>
 </g>
 <defs>
  <clipPath id="p48c204b510">
   <rect height="286.49845" width="404.96875" x="42.51125" y="23.36505"/>
  </clipPath>
 </defs>
</svg>
