<?xml version="1.0" encoding="utf-8" standalone="no"?>
<!DOCTYPE svg PUBLIC "-//W3C//DTD SVG 1.1//EN"
  "http://www.w3.org/Graphics/SVG/1.1/DTD/svg11.dtd">
<!-- Created with matplotlib (http://matplotlib.org/) -->
<svg height="345.6pt" version="1.1" viewBox="0 0 460.8 345.6" width="460.8pt" xmlns="http://www.w3.org/2000/svg" xmlns:xlink="http://www.w3.org/1999/xlink">
 <defs>
  <style type="text/css">
*{stroke-linecap:butt;stroke-linejoin:round;}
  </style>
 </defs>
 <g id="figure_1">
  <g id="patch_1">
   <path d="M 0 345.6 
L 460.8 345.6 
L 460.8 0 
L 0 0 
z
" style="fill:none;"/>
  </g>
  <g id="axes_1">
   <g id="patch_2">
    <path d="M 37.93025 309.8635 
L 446.953073 309.8635 
L 446.953073 23.36505 
L 37.93025 23.36505 
z
" style="fill:none;"/>
   </g>
   <g id="PolyCollection_1">
    <path clip-path="url(#p8541496398)" d="M 37.93025 69.1085 
L 37.93025 309.8635 
L 40.01333 309.8635 
L 42.029214 309.8635 
L 44.112294 309.8635 
L 46.128177 309.8635 
L 48.211257 309.8635 
L 50.294337 309.8635 
L 52.175829 309.8635 
L 54.258909 309.8635 
L 56.274793 309.8635 
L 58.357872 309.8635 
L 60.373756 309.8635 
L 62.456836 309.8635 
L 64.539916 309.8635 
L 66.5558 309.8635 
L 68.63888 309.8635 
L 70.654764 309.8635 
L 72.737844 309.8635 
L 74.820924 309.8635 
L 76.702415 309.8635 
L 78.785495 309.8635 
L 80.801379 309.8635 
L 82.884459 309.8635 
L 84.900343 309.8635 
L 86.983422 309.8635 
L 89.066502 309.8635 
L 91.082386 309.8635 
L 93.165466 309.8635 
L 95.18135 309.8635 
L 97.26443 309.8635 
L 99.34751 309.8635 
L 101.296197 309.8635 
L 103.379277 309.8635 
L 105.395161 309.8635 
L 107.478241 309.8635 
L 109.494125 309.8635 
L 111.577205 309.8635 
L 113.660285 309.8635 
L 115.676168 309.8635 
L 117.759248 309.8635 
L 119.775132 309.8635 
L 121.858212 309.8635 
L 123.941292 309.8635 
L 125.822784 309.8635 
L 127.905864 309.8635 
L 129.921747 309.8635 
L 132.004827 309.8635 
L 134.020711 309.8635 
L 136.103791 309.8635 
L 138.186871 309.8635 
L 140.202755 309.8635 
L 142.285835 309.8635 
L 144.301718 309.8635 
L 146.384798 309.8635 
L 148.467878 309.8635 
L 150.34937 309.8635 
L 152.43245 309.8635 
L 154.448334 309.8635 
L 156.531413 309.8635 
L 158.547297 309.8635 
L 160.630377 309.8635 
L 162.713457 309.8635 
L 164.729341 309.8635 
L 166.812421 309.8635 
L 168.828305 309.8635 
L 170.911385 309.8635 
L 172.994465 309.8635 
L 174.875956 309.8635 
L 176.959036 309.8635 
L 178.97492 309.8635 
L 181.058 309.8635 
L 183.073883 309.8635 
L 185.156963 309.8635 
L 187.240043 309.8635 
L 189.255927 309.8635 
L 191.339007 309.8635 
L 193.354891 309.8635 
L 195.437971 309.8635 
L 197.521051 309.8635 
L 199.469738 309.8635 
L 201.552818 309.8635 
L 203.568702 309.8635 
L 205.651782 309.8635 
L 207.667666 309.8635 
L 209.750746 309.8635 
L 211.833826 309.8635 
L 213.849709 309.8635 
L 215.932789 309.8635 
L 217.948673 309.8635 
L 220.031753 309.8635 
L 222.114833 309.8635 
L 223.996325 309.8635 
L 226.079405 309.8635 
L 228.095288 309.8635 
L 230.178368 309.8635 
L 232.194252 309.8635 
L 234.277332 309.8635 
L 236.360412 309.8635 
L 238.376296 309.8635 
L 240.459376 309.8635 
L 242.475259 309.8635 
L 244.558339 309.8635 
L 246.641419 309.8635 
L 248.522911 309.8635 
L 250.605991 309.8635 
L 252.621875 309.8635 
L 254.704954 309.8635 
L 256.720838 309.8635 
L 258.803918 309.8635 
L 260.886998 309.8635 
L 262.902882 309.8635 
L 264.985962 309.8635 
L 267.001846 309.8635 
L 269.084926 309.8635 
L 271.168005 309.8635 
L 273.049497 309.8635 
L 275.132577 309.8635 
L 277.148461 309.8635 
L 279.231541 309.8635 
L 281.247424 309.8635 
L 283.330504 309.8635 
L 285.413584 309.8635 
L 287.429468 309.8635 
L 289.512548 309.8635 
L 291.528432 309.8635 
L 293.611512 309.8635 
L 295.694592 309.8635 
L 297.643279 309.8635 
L 299.726359 309.8635 
L 301.742243 309.8635 
L 303.825323 309.8635 
L 305.841207 309.8635 
L 307.924287 309.8635 
L 310.007367 309.8635 
L 312.02325 309.8635 
L 314.10633 309.8635 
L 316.122214 309.8635 
L 318.205294 309.8635 
L 320.288374 309.8635 
L 322.169866 309.8635 
L 324.252946 309.8635 
L 326.268829 309.8635 
L 328.351909 309.8635 
L 330.367793 309.8635 
L 332.450873 309.8635 
L 334.533953 309.8635 
L 336.549837 309.8635 
L 338.632917 309.8635 
L 340.6488 309.8635 
L 342.73188 309.8635 
L 344.81496 309.8635 
L 346.696452 309.8635 
L 348.779532 309.8635 
L 350.795416 309.8635 
L 352.878495 309.8635 
L 354.894379 309.8635 
L 356.977459 309.8635 
L 359.060539 309.8635 
L 361.076423 309.8635 
L 363.159503 309.8635 
L 365.175387 309.8635 
L 367.258467 309.8635 
L 369.341546 309.8635 
L 371.223038 309.8635 
L 373.306118 309.8635 
L 375.322002 309.8635 
L 377.405082 309.8635 
L 379.420965 309.8635 
L 381.504045 309.8635 
L 383.587125 309.8635 
L 385.603009 309.8635 
L 387.686089 309.8635 
L 389.701973 309.8635 
L 391.785053 309.8635 
L 393.868133 309.8635 
L 395.81682 309.8635 
L 397.8999 309.8635 
L 399.915784 309.8635 
L 401.998864 309.8635 
L 404.014748 309.8635 
L 406.097828 309.8635 
L 408.180908 309.8635 
L 410.196791 309.8635 
L 412.279871 309.8635 
L 414.295755 309.8635 
L 416.378835 309.8635 
L 418.461915 309.8635 
L 420.343407 309.8635 
L 422.426487 309.8635 
L 424.44237 309.8635 
L 426.52545 309.8635 
L 428.541334 309.8635 
L 430.624414 309.8635 
L 432.707494 309.8635 
L 434.723378 309.8635 
L 436.806458 309.8635 
L 438.822341 309.8635 
L 440.905421 309.8635 
L 442.988501 309.8635 
L 444.869993 309.8635 
L 446.953073 309.8635 
L 446.953073 290.6031 
L 446.953073 290.6031 
L 444.869993 136.5199 
L 442.988501 309.8635 
L 440.905421 75.528633 
L 438.822341 69.1085 
L 436.806458 85.158833 
L 434.723378 104.419233 
L 432.707494 81.948767 
L 430.624414 94.789033 
L 428.541334 85.158833 
L 426.52545 72.318567 
L 424.44237 59.4783 
L 422.426487 56.268233 
L 420.343407 107.6293 
L 418.461915 309.8635 
L 416.378835 309.8635 
L 414.295755 62.688367 
L 412.279871 72.318567 
L 410.196791 309.8635 
L 408.180908 94.789033 
L 406.097828 114.049433 
L 404.014748 117.2595 
L 401.998864 130.099767 
L 399.915784 155.7803 
L 397.8999 309.8635 
L 395.81682 110.839367 
L 393.868133 65.898433 
L 391.785053 309.8635 
L 389.701973 309.8635 
L 387.686089 75.528633 
L 385.603009 72.318567 
L 383.587125 101.209167 
L 381.504045 78.7387 
L 379.420965 75.528633 
L 377.405082 309.8635 
L 375.322002 158.990367 
L 373.306118 117.2595 
L 371.223038 207.141367 
L 369.341546 277.762833 
L 367.258467 59.4783 
L 365.175387 114.049433 
L 363.159503 309.8635 
L 361.076423 184.6709 
L 359.060539 146.1501 
L 356.977459 78.7387 
L 354.894379 155.7803 
L 352.878495 152.570233 
L 350.795416 117.2595 
L 348.779532 165.4105 
L 346.696452 117.2595 
L 344.81496 309.8635 
L 342.73188 309.8635 
L 340.6488 309.8635 
L 338.632917 91.578967 
L 336.549837 72.318567 
L 334.533953 114.049433 
L 332.450873 155.7803 
L 330.367793 91.578967 
L 328.351909 65.898433 
L 326.268829 75.528633 
L 324.252946 88.3689 
L 322.169866 110.839367 
L 320.288374 309.8635 
L 318.205294 136.5199 
L 316.122214 81.948767 
L 314.10633 178.250767 
L 312.02325 309.8635 
L 310.007367 75.528633 
L 307.924287 309.8635 
L 305.841207 81.948767 
L 303.825323 120.469567 
L 301.742243 91.578967 
L 299.726359 178.250767 
L 297.643279 229.611833 
L 295.694592 139.729967 
L 293.611512 165.4105 
L 291.528432 300.2333 
L 289.512548 152.570233 
L 287.429468 65.898433 
L 285.413584 78.7387 
L 283.330504 175.0407 
L 281.247424 155.7803 
L 279.231541 178.250767 
L 277.148461 168.620567 
L 275.132577 69.1085 
L 273.049497 40.2179 
L 271.168005 162.200433 
L 269.084926 152.570233 
L 267.001846 130.099767 
L 264.985962 219.981633 
L 262.902882 75.528633 
L 260.886998 158.990367 
L 258.803918 78.7387 
L 256.720838 72.318567 
L 254.704954 152.570233 
L 252.621875 117.2595 
L 250.605991 178.250767 
L 248.522911 152.570233 
L 246.641419 107.6293 
L 244.558339 75.528633 
L 242.475259 65.898433 
L 240.459376 158.990367 
L 238.376296 171.830633 
L 236.360412 178.250767 
L 234.277332 78.7387 
L 232.194252 88.3689 
L 230.178368 146.1501 
L 228.095288 210.351433 
L 226.079405 110.839367 
L 223.996325 309.8635 
L 222.114833 56.268233 
L 220.031753 97.9991 
L 217.948673 309.8635 
L 215.932789 309.8635 
L 213.849709 75.528633 
L 211.833826 75.528633 
L 209.750746 78.7387 
L 207.667666 75.528633 
L 205.651782 72.318567 
L 203.568702 65.898433 
L 201.552818 75.528633 
L 199.469738 72.318567 
L 197.521051 43.427967 
L 195.437971 85.158833 
L 193.354891 59.4783 
L 191.339007 69.1085 
L 189.255927 78.7387 
L 187.240043 78.7387 
L 185.156963 78.7387 
L 183.073883 75.528633 
L 181.058 114.049433 
L 178.97492 75.528633 
L 176.959036 59.4783 
L 174.875956 130.099767 
L 172.994465 114.049433 
L 170.911385 114.049433 
L 168.828305 101.209167 
L 166.812421 62.688367 
L 164.729341 81.948767 
L 162.713457 88.3689 
L 160.630377 81.948767 
L 158.547297 75.528633 
L 156.531413 69.1085 
L 154.448334 114.049433 
L 152.43245 81.948767 
L 150.34937 75.528633 
L 148.467878 81.948767 
L 146.384798 65.898433 
L 144.301718 62.688367 
L 142.285835 62.688367 
L 140.202755 78.7387 
L 138.186871 75.528633 
L 136.103791 81.948767 
L 134.020711 78.7387 
L 132.004827 69.1085 
L 129.921747 65.898433 
L 127.905864 158.990367 
L 125.822784 49.8481 
L 123.941292 97.9991 
L 121.858212 53.058167 
L 119.775132 43.427967 
L 117.759248 65.898433 
L 115.676168 75.528633 
L 113.660285 78.7387 
L 111.577205 72.318567 
L 109.494125 75.528633 
L 107.478241 69.1085 
L 105.395161 65.898433 
L 103.379277 94.789033 
L 101.296197 69.1085 
L 99.34751 85.158833 
L 97.26443 53.058167 
L 95.18135 49.8481 
L 93.165466 75.528633 
L 91.082386 69.1085 
L 89.066502 78.7387 
L 86.983422 78.7387 
L 84.900343 65.898433 
L 82.884459 62.688367 
L 80.801379 59.4783 
L 78.785495 62.688367 
L 76.702415 43.427967 
L 74.820924 49.8481 
L 72.737844 59.4783 
L 70.654764 56.268233 
L 68.63888 65.898433 
L 66.5558 69.1085 
L 64.539916 65.898433 
L 62.456836 72.318567 
L 60.373756 69.1085 
L 58.357872 59.4783 
L 56.274793 69.1085 
L 54.258909 37.007833 
L 52.175829 43.427967 
L 50.294337 37.007833 
L 48.211257 62.688367 
L 46.128177 40.2179 
L 44.112294 65.898433 
L 42.029214 65.898433 
L 40.01333 69.1085 
L 37.93025 69.1085 
z
" style="fill:#808080;fill-opacity:0.3;"/>
   </g>
   <g id="PolyCollection_2">
    <path clip-path="url(#p8541496398)" d="M 37.93025 309.8635 
L 37.93025 309.8635 
L 40.01333 309.8635 
L 42.029214 309.8635 
L 44.112294 309.8635 
L 46.128177 309.8635 
L 48.211257 309.8635 
L 50.294337 309.8635 
L 52.175829 309.8635 
L 54.258909 309.8635 
L 56.274793 309.8635 
L 58.357872 309.8635 
L 60.373756 309.8635 
L 62.456836 309.8635 
L 64.539916 309.8635 
L 66.5558 309.8635 
L 68.63888 309.8635 
L 70.654764 309.8635 
L 72.737844 309.8635 
L 74.820924 309.8635 
L 76.702415 309.8635 
L 78.785495 309.8635 
L 80.801379 309.8635 
L 82.884459 309.8635 
L 84.900343 309.8635 
L 86.983422 309.8635 
L 89.066502 309.8635 
L 91.082386 309.8635 
L 93.165466 309.8635 
L 95.18135 309.8635 
L 97.26443 309.8635 
L 99.34751 309.8635 
L 101.296197 309.8635 
L 103.379277 309.8635 
L 105.395161 309.8635 
L 107.478241 309.8635 
L 109.494125 309.8635 
L 111.577205 309.8635 
L 113.660285 309.8635 
L 115.676168 309.8635 
L 117.759248 309.8635 
L 119.775132 309.8635 
L 121.858212 309.8635 
L 123.941292 309.8635 
L 125.822784 309.8635 
L 127.905864 309.8635 
L 129.921747 309.8635 
L 132.004827 309.8635 
L 134.020711 309.8635 
L 136.103791 309.8635 
L 138.186871 309.8635 
L 140.202755 309.8635 
L 142.285835 309.8635 
L 144.301718 309.8635 
L 146.384798 309.8635 
L 148.467878 309.8635 
L 150.34937 309.8635 
L 152.43245 309.8635 
L 154.448334 309.8635 
L 156.531413 309.8635 
L 158.547297 309.8635 
L 160.630377 309.8635 
L 162.713457 309.8635 
L 164.729341 309.8635 
L 166.812421 309.8635 
L 168.828305 309.8635 
L 170.911385 309.8635 
L 172.994465 309.8635 
L 174.875956 309.8635 
L 176.959036 309.8635 
L 178.97492 309.8635 
L 181.058 309.8635 
L 183.073883 309.8635 
L 185.156963 309.8635 
L 187.240043 309.8635 
L 189.255927 309.8635 
L 191.339007 309.8635 
L 193.354891 309.8635 
L 195.437971 309.8635 
L 197.521051 309.8635 
L 199.469738 309.8635 
L 201.552818 309.8635 
L 203.568702 309.8635 
L 205.651782 309.8635 
L 207.667666 309.8635 
L 209.750746 309.8635 
L 211.833826 309.8635 
L 213.849709 309.8635 
L 215.932789 309.8635 
L 217.948673 309.8635 
L 220.031753 309.8635 
L 222.114833 309.8635 
L 223.996325 309.8635 
L 226.079405 309.8635 
L 228.095288 309.8635 
L 230.178368 309.8635 
L 232.194252 309.8635 
L 234.277332 309.8635 
L 236.360412 309.8635 
L 238.376296 309.8635 
L 240.459376 309.8635 
L 242.475259 309.8635 
L 244.558339 309.8635 
L 246.641419 309.8635 
L 248.522911 309.8635 
L 250.605991 309.8635 
L 252.621875 309.8635 
L 254.704954 309.8635 
L 256.720838 309.8635 
L 258.803918 309.8635 
L 260.886998 309.8635 
L 262.902882 309.8635 
L 264.985962 309.8635 
L 267.001846 309.8635 
L 269.084926 309.8635 
L 271.168005 309.8635 
L 273.049497 309.8635 
L 275.132577 309.8635 
L 277.148461 309.8635 
L 279.231541 309.8635 
L 281.247424 309.8635 
L 283.330504 309.8635 
L 285.413584 309.8635 
L 287.429468 309.8635 
L 289.512548 309.8635 
L 291.528432 309.8635 
L 293.611512 309.8635 
L 295.694592 309.8635 
L 297.643279 309.8635 
L 299.726359 309.8635 
L 301.742243 309.8635 
L 303.825323 309.8635 
L 305.841207 309.8635 
L 307.924287 309.8635 
L 310.007367 309.8635 
L 312.02325 309.8635 
L 314.10633 309.8635 
L 316.122214 309.8635 
L 318.205294 309.8635 
L 320.288374 309.8635 
L 322.169866 309.8635 
L 324.252946 309.8635 
L 326.268829 309.8635 
L 328.351909 309.8635 
L 330.367793 309.8635 
L 332.450873 309.8635 
L 334.533953 309.8635 
L 336.549837 309.8635 
L 338.632917 309.8635 
L 340.6488 309.8635 
L 342.73188 309.8635 
L 344.81496 309.8635 
L 346.696452 309.8635 
L 348.779532 309.8635 
L 350.795416 309.8635 
L 352.878495 309.8635 
L 354.894379 309.8635 
L 356.977459 309.8635 
L 359.060539 309.8635 
L 361.076423 309.8635 
L 363.159503 309.8635 
L 365.175387 309.8635 
L 367.258467 309.8635 
L 369.341546 309.8635 
L 371.223038 309.8635 
L 373.306118 309.8635 
L 375.322002 309.8635 
L 377.405082 309.8635 
L 379.420965 309.8635 
L 381.504045 309.8635 
L 383.587125 309.8635 
L 385.603009 309.8635 
L 387.686089 309.8635 
L 389.701973 309.8635 
L 391.785053 309.8635 
L 393.868133 309.8635 
L 395.81682 309.8635 
L 397.8999 309.8635 
L 399.915784 309.8635 
L 401.998864 309.8635 
L 404.014748 309.8635 
L 406.097828 309.8635 
L 408.180908 309.8635 
L 410.196791 309.8635 
L 412.279871 309.8635 
L 414.295755 309.8635 
L 416.378835 309.8635 
L 418.461915 309.8635 
L 420.343407 309.8635 
L 422.426487 309.8635 
L 424.44237 309.8635 
L 426.52545 309.8635 
L 428.541334 309.8635 
L 430.624414 309.8635 
L 432.707494 309.8635 
L 434.723378 309.8635 
L 436.806458 309.8635 
L 438.822341 309.8635 
L 440.905421 309.8635 
L 442.988501 309.8635 
L 444.869993 309.8635 
L 446.953073 309.8635 
L 446.953073 309.8635 
L 446.953073 309.8635 
L 444.869993 309.8635 
L 442.988501 309.8635 
L 440.905421 309.8635 
L 438.822341 309.8635 
L 436.806458 309.8635 
L 434.723378 309.8635 
L 432.707494 309.8635 
L 430.624414 309.8635 
L 428.541334 309.8635 
L 426.52545 309.8635 
L 424.44237 309.8635 
L 422.426487 309.8635 
L 420.343407 309.8635 
L 418.461915 309.8635 
L 416.378835 309.8635 
L 414.295755 309.8635 
L 412.279871 309.8635 
L 410.196791 309.8635 
L 408.180908 309.8635 
L 406.097828 309.8635 
L 404.014748 309.8635 
L 401.998864 309.8635 
L 399.915784 309.8635 
L 397.8999 309.8635 
L 395.81682 309.8635 
L 393.868133 309.8635 
L 391.785053 309.8635 
L 389.701973 309.8635 
L 387.686089 309.8635 
L 385.603009 309.8635 
L 383.587125 309.8635 
L 381.504045 309.8635 
L 379.420965 309.8635 
L 377.405082 309.8635 
L 375.322002 309.8635 
L 373.306118 309.8635 
L 371.223038 309.8635 
L 369.341546 309.8635 
L 367.258467 309.8635 
L 365.175387 309.8635 
L 363.159503 309.8635 
L 361.076423 309.8635 
L 359.060539 309.8635 
L 356.977459 309.8635 
L 354.894379 309.8635 
L 352.878495 309.8635 
L 350.795416 309.8635 
L 348.779532 309.8635 
L 346.696452 309.8635 
L 344.81496 309.8635 
L 342.73188 309.8635 
L 340.6488 309.8635 
L 338.632917 309.8635 
L 336.549837 309.8635 
L 334.533953 309.8635 
L 332.450873 309.8635 
L 330.367793 309.8635 
L 328.351909 309.8635 
L 326.268829 309.8635 
L 324.252946 309.8635 
L 322.169866 309.8635 
L 320.288374 309.8635 
L 318.205294 309.8635 
L 316.122214 309.8635 
L 314.10633 309.8635 
L 312.02325 309.8635 
L 310.007367 309.8635 
L 307.924287 309.8635 
L 305.841207 309.8635 
L 303.825323 309.8635 
L 301.742243 309.8635 
L 299.726359 309.8635 
L 297.643279 309.8635 
L 295.694592 309.8635 
L 293.611512 309.8635 
L 291.528432 309.8635 
L 289.512548 309.8635 
L 287.429468 309.8635 
L 285.413584 309.8635 
L 283.330504 309.8635 
L 281.247424 309.8635 
L 279.231541 309.8635 
L 277.148461 309.8635 
L 275.132577 309.8635 
L 273.049497 309.8635 
L 271.168005 309.8635 
L 269.084926 309.8635 
L 267.001846 309.8635 
L 264.985962 309.8635 
L 262.902882 309.8635 
L 260.886998 309.8635 
L 258.803918 309.8635 
L 256.720838 309.8635 
L 254.704954 309.8635 
L 252.621875 309.8635 
L 250.605991 309.8635 
L 248.522911 309.8635 
L 246.641419 309.8635 
L 244.558339 309.8635 
L 242.475259 309.8635 
L 240.459376 309.8635 
L 238.376296 309.8635 
L 236.360412 309.8635 
L 234.277332 309.8635 
L 232.194252 309.8635 
L 230.178368 309.8635 
L 228.095288 309.8635 
L 226.079405 309.8635 
L 223.996325 309.8635 
L 222.114833 309.8635 
L 220.031753 309.8635 
L 217.948673 309.8635 
L 215.932789 309.8635 
L 213.849709 309.8635 
L 211.833826 309.8635 
L 209.750746 309.8635 
L 207.667666 309.8635 
L 205.651782 309.8635 
L 203.568702 309.8635 
L 201.552818 309.8635 
L 199.469738 309.8635 
L 197.521051 309.8635 
L 195.437971 309.8635 
L 193.354891 309.8635 
L 191.339007 309.8635 
L 189.255927 309.8635 
L 187.240043 309.8635 
L 185.156963 309.8635 
L 183.073883 309.8635 
L 181.058 309.8635 
L 178.97492 309.8635 
L 176.959036 309.8635 
L 174.875956 309.8635 
L 172.994465 309.8635 
L 170.911385 309.8635 
L 168.828305 309.8635 
L 166.812421 309.8635 
L 164.729341 309.8635 
L 162.713457 309.8635 
L 160.630377 309.8635 
L 158.547297 309.8635 
L 156.531413 309.8635 
L 154.448334 309.8635 
L 152.43245 309.8635 
L 150.34937 309.8635 
L 148.467878 309.8635 
L 146.384798 309.8635 
L 144.301718 309.8635 
L 142.285835 309.8635 
L 140.202755 309.8635 
L 138.186871 309.8635 
L 136.103791 309.8635 
L 134.020711 309.8635 
L 132.004827 309.8635 
L 129.921747 309.8635 
L 127.905864 309.8635 
L 125.822784 309.8635 
L 123.941292 309.8635 
L 121.858212 309.8635 
L 119.775132 309.8635 
L 117.759248 309.8635 
L 115.676168 309.8635 
L 113.660285 309.8635 
L 111.577205 309.8635 
L 109.494125 309.8635 
L 107.478241 309.8635 
L 105.395161 309.8635 
L 103.379277 309.8635 
L 101.296197 309.8635 
L 99.34751 309.8635 
L 97.26443 309.8635 
L 95.18135 309.8635 
L 93.165466 309.8635 
L 91.082386 309.8635 
L 89.066502 309.8635 
L 86.983422 309.8635 
L 84.900343 309.8635 
L 82.884459 309.8635 
L 80.801379 309.8635 
L 78.785495 309.8635 
L 76.702415 309.8635 
L 74.820924 309.8635 
L 72.737844 309.8635 
L 70.654764 309.8635 
L 68.63888 309.8635 
L 66.5558 309.8635 
L 64.539916 309.8635 
L 62.456836 309.8635 
L 60.373756 212.758983 
L 58.357872 309.8635 
L 56.274793 309.8635 
L 54.258909 309.8635 
L 52.175829 309.8635 
L 50.294337 309.8635 
L 48.211257 309.8635 
L 46.128177 309.8635 
L 44.112294 309.8635 
L 42.029214 309.8635 
L 40.01333 299.430783 
L 37.93025 309.8635 
z
" style="fill:#808080;fill-opacity:0.6;"/>
   </g>
   <g id="matplotlib.axis_1">
    <g id="xtick_1">
     <g id="line2d_1">
      <path clip-path="url(#p8541496398)" d="M 48.278453 309.8635 
L 48.278453 23.36505 
" style="fill:none;stroke:#b0b0b0;stroke-linecap:square;stroke-width:0.8;"/>
     </g>
     <g id="line2d_2">
      <defs>
       <path d="M 0 0 
L 0 3.5 
" id="mc14621bfdb" style="stroke:#000000;stroke-width:0.8;"/>
      </defs>
      <g>
       <use style="stroke:#000000;stroke-width:0.8;" x="48.278453" xlink:href="#mc14621bfdb" y="309.8635"/>
      </g>
     </g>
     <g id="text_1">
      <!-- 2002 -->
      <defs>
       <path d="M 19.1875 8.296875 
L 53.609375 8.296875 
L 53.609375 0 
L 7.328125 0 
L 7.328125 8.296875 
Q 12.9375 14.109375 22.625 23.890625 
Q 32.328125 33.6875 34.8125 36.53125 
Q 39.546875 41.84375 41.421875 45.53125 
Q 43.3125 49.21875 43.3125 52.78125 
Q 43.3125 58.59375 39.234375 62.25 
Q 35.15625 65.921875 28.609375 65.921875 
Q 23.96875 65.921875 18.8125 64.3125 
Q 13.671875 62.703125 7.8125 59.421875 
L 7.8125 69.390625 
Q 13.765625 71.78125 18.9375 73 
Q 24.125 74.21875 28.421875 74.21875 
Q 39.75 74.21875 46.484375 68.546875 
Q 53.21875 62.890625 53.21875 53.421875 
Q 53.21875 48.921875 51.53125 44.890625 
Q 49.859375 40.875 45.40625 35.40625 
Q 44.1875 33.984375 37.640625 27.21875 
Q 31.109375 20.453125 19.1875 8.296875 
z
" id="DejaVuSans-32"/>
       <path d="M 31.78125 66.40625 
Q 24.171875 66.40625 20.328125 58.90625 
Q 16.5 51.421875 16.5 36.375 
Q 16.5 21.390625 20.328125 13.890625 
Q 24.171875 6.390625 31.78125 6.390625 
Q 39.453125 6.390625 43.28125 13.890625 
Q 47.125 21.390625 47.125 36.375 
Q 47.125 51.421875 43.28125 58.90625 
Q 39.453125 66.40625 31.78125 66.40625 
z
M 31.78125 74.21875 
Q 44.046875 74.21875 50.515625 64.515625 
Q 56.984375 54.828125 56.984375 36.375 
Q 56.984375 17.96875 50.515625 8.265625 
Q 44.046875 -1.421875 31.78125 -1.421875 
Q 19.53125 -1.421875 13.0625 8.265625 
Q 6.59375 17.96875 6.59375 36.375 
Q 6.59375 54.828125 13.0625 64.515625 
Q 19.53125 74.21875 31.78125 74.21875 
z
" id="DejaVuSans-30"/>
      </defs>
      <g transform="translate(35.553453 324.461937)scale(0.1 -0.1)">
       <use xlink:href="#DejaVuSans-32"/>
       <use x="63.623047" xlink:href="#DejaVuSans-30"/>
       <use x="127.246094" xlink:href="#DejaVuSans-30"/>
       <use x="190.869141" xlink:href="#DejaVuSans-32"/>
      </g>
     </g>
    </g>
    <g id="xtick_2">
     <g id="line2d_3">
      <path clip-path="url(#p8541496398)" d="M 97.331626 309.8635 
L 97.331626 23.36505 
" style="fill:none;stroke:#b0b0b0;stroke-linecap:square;stroke-width:0.8;"/>
     </g>
     <g id="line2d_4">
      <g>
       <use style="stroke:#000000;stroke-width:0.8;" x="97.331626" xlink:href="#mc14621bfdb" y="309.8635"/>
      </g>
     </g>
     <g id="text_2">
      <!-- 2004 -->
      <defs>
       <path d="M 37.796875 64.3125 
L 12.890625 25.390625 
L 37.796875 25.390625 
z
M 35.203125 72.90625 
L 47.609375 72.90625 
L 47.609375 25.390625 
L 58.015625 25.390625 
L 58.015625 17.1875 
L 47.609375 17.1875 
L 47.609375 0 
L 37.796875 0 
L 37.796875 17.1875 
L 4.890625 17.1875 
L 4.890625 26.703125 
z
" id="DejaVuSans-34"/>
      </defs>
      <g transform="translate(84.606626 324.461937)scale(0.1 -0.1)">
       <use xlink:href="#DejaVuSans-32"/>
       <use x="63.623047" xlink:href="#DejaVuSans-30"/>
       <use x="127.246094" xlink:href="#DejaVuSans-30"/>
       <use x="190.869141" xlink:href="#DejaVuSans-34"/>
      </g>
     </g>
    </g>
    <g id="xtick_3">
     <g id="line2d_5">
      <path clip-path="url(#p8541496398)" d="M 146.451994 309.8635 
L 146.451994 23.36505 
" style="fill:none;stroke:#b0b0b0;stroke-linecap:square;stroke-width:0.8;"/>
     </g>
     <g id="line2d_6">
      <g>
       <use style="stroke:#000000;stroke-width:0.8;" x="146.451994" xlink:href="#mc14621bfdb" y="309.8635"/>
      </g>
     </g>
     <g id="text_3">
      <!-- 2006 -->
      <defs>
       <path d="M 33.015625 40.375 
Q 26.375 40.375 22.484375 35.828125 
Q 18.609375 31.296875 18.609375 23.390625 
Q 18.609375 15.53125 22.484375 10.953125 
Q 26.375 6.390625 33.015625 6.390625 
Q 39.65625 6.390625 43.53125 10.953125 
Q 47.40625 15.53125 47.40625 23.390625 
Q 47.40625 31.296875 43.53125 35.828125 
Q 39.65625 40.375 33.015625 40.375 
z
M 52.59375 71.296875 
L 52.59375 62.3125 
Q 48.875 64.0625 45.09375 64.984375 
Q 41.3125 65.921875 37.59375 65.921875 
Q 27.828125 65.921875 22.671875 59.328125 
Q 17.53125 52.734375 16.796875 39.40625 
Q 19.671875 43.65625 24.015625 45.921875 
Q 28.375 48.1875 33.59375 48.1875 
Q 44.578125 48.1875 50.953125 41.515625 
Q 57.328125 34.859375 57.328125 23.390625 
Q 57.328125 12.15625 50.6875 5.359375 
Q 44.046875 -1.421875 33.015625 -1.421875 
Q 20.359375 -1.421875 13.671875 8.265625 
Q 6.984375 17.96875 6.984375 36.375 
Q 6.984375 53.65625 15.1875 63.9375 
Q 23.390625 74.21875 37.203125 74.21875 
Q 40.921875 74.21875 44.703125 73.484375 
Q 48.484375 72.75 52.59375 71.296875 
z
" id="DejaVuSans-36"/>
      </defs>
      <g transform="translate(133.726994 324.461937)scale(0.1 -0.1)">
       <use xlink:href="#DejaVuSans-32"/>
       <use x="63.623047" xlink:href="#DejaVuSans-30"/>
       <use x="127.246094" xlink:href="#DejaVuSans-30"/>
       <use x="190.869141" xlink:href="#DejaVuSans-36"/>
      </g>
     </g>
    </g>
    <g id="xtick_4">
     <g id="line2d_7">
      <path clip-path="url(#p8541496398)" d="M 195.505167 309.8635 
L 195.505167 23.36505 
" style="fill:none;stroke:#b0b0b0;stroke-linecap:square;stroke-width:0.8;"/>
     </g>
     <g id="line2d_8">
      <g>
       <use style="stroke:#000000;stroke-width:0.8;" x="195.505167" xlink:href="#mc14621bfdb" y="309.8635"/>
      </g>
     </g>
     <g id="text_4">
      <!-- 2008 -->
      <defs>
       <path d="M 31.78125 34.625 
Q 24.75 34.625 20.71875 30.859375 
Q 16.703125 27.09375 16.703125 20.515625 
Q 16.703125 13.921875 20.71875 10.15625 
Q 24.75 6.390625 31.78125 6.390625 
Q 38.8125 6.390625 42.859375 10.171875 
Q 46.921875 13.96875 46.921875 20.515625 
Q 46.921875 27.09375 42.890625 30.859375 
Q 38.875 34.625 31.78125 34.625 
z
M 21.921875 38.8125 
Q 15.578125 40.375 12.03125 44.71875 
Q 8.5 49.078125 8.5 55.328125 
Q 8.5 64.0625 14.71875 69.140625 
Q 20.953125 74.21875 31.78125 74.21875 
Q 42.671875 74.21875 48.875 69.140625 
Q 55.078125 64.0625 55.078125 55.328125 
Q 55.078125 49.078125 51.53125 44.71875 
Q 48 40.375 41.703125 38.8125 
Q 48.828125 37.15625 52.796875 32.3125 
Q 56.78125 27.484375 56.78125 20.515625 
Q 56.78125 9.90625 50.3125 4.234375 
Q 43.84375 -1.421875 31.78125 -1.421875 
Q 19.734375 -1.421875 13.25 4.234375 
Q 6.78125 9.90625 6.78125 20.515625 
Q 6.78125 27.484375 10.78125 32.3125 
Q 14.796875 37.15625 21.921875 38.8125 
z
M 18.3125 54.390625 
Q 18.3125 48.734375 21.84375 45.5625 
Q 25.390625 42.390625 31.78125 42.390625 
Q 38.140625 42.390625 41.71875 45.5625 
Q 45.3125 48.734375 45.3125 54.390625 
Q 45.3125 60.0625 41.71875 63.234375 
Q 38.140625 66.40625 31.78125 66.40625 
Q 25.390625 66.40625 21.84375 63.234375 
Q 18.3125 60.0625 18.3125 54.390625 
z
" id="DejaVuSans-38"/>
      </defs>
      <g transform="translate(182.780167 324.461937)scale(0.1 -0.1)">
       <use xlink:href="#DejaVuSans-32"/>
       <use x="63.623047" xlink:href="#DejaVuSans-30"/>
       <use x="127.246094" xlink:href="#DejaVuSans-30"/>
       <use x="190.869141" xlink:href="#DejaVuSans-38"/>
      </g>
     </g>
    </g>
    <g id="xtick_5">
     <g id="line2d_9">
      <path clip-path="url(#p8541496398)" d="M 244.625535 309.8635 
L 244.625535 23.36505 
" style="fill:none;stroke:#b0b0b0;stroke-linecap:square;stroke-width:0.8;"/>
     </g>
     <g id="line2d_10">
      <g>
       <use style="stroke:#000000;stroke-width:0.8;" x="244.625535" xlink:href="#mc14621bfdb" y="309.8635"/>
      </g>
     </g>
     <g id="text_5">
      <!-- 2010 -->
      <defs>
       <path d="M 12.40625 8.296875 
L 28.515625 8.296875 
L 28.515625 63.921875 
L 10.984375 60.40625 
L 10.984375 69.390625 
L 28.421875 72.90625 
L 38.28125 72.90625 
L 38.28125 8.296875 
L 54.390625 8.296875 
L 54.390625 0 
L 12.40625 0 
z
" id="DejaVuSans-31"/>
      </defs>
      <g transform="translate(231.900535 324.461937)scale(0.1 -0.1)">
       <use xlink:href="#DejaVuSans-32"/>
       <use x="63.623047" xlink:href="#DejaVuSans-30"/>
       <use x="127.246094" xlink:href="#DejaVuSans-31"/>
       <use x="190.869141" xlink:href="#DejaVuSans-30"/>
      </g>
     </g>
    </g>
    <g id="xtick_6">
     <g id="line2d_11">
      <path clip-path="url(#p8541496398)" d="M 293.678708 309.8635 
L 293.678708 23.36505 
" style="fill:none;stroke:#b0b0b0;stroke-linecap:square;stroke-width:0.8;"/>
     </g>
     <g id="line2d_12">
      <g>
       <use style="stroke:#000000;stroke-width:0.8;" x="293.678708" xlink:href="#mc14621bfdb" y="309.8635"/>
      </g>
     </g>
     <g id="text_6">
      <!-- 2012 -->
      <g transform="translate(280.953708 324.461937)scale(0.1 -0.1)">
       <use xlink:href="#DejaVuSans-32"/>
       <use x="63.623047" xlink:href="#DejaVuSans-30"/>
       <use x="127.246094" xlink:href="#DejaVuSans-31"/>
       <use x="190.869141" xlink:href="#DejaVuSans-32"/>
      </g>
     </g>
    </g>
    <g id="xtick_7">
     <g id="line2d_13">
      <path clip-path="url(#p8541496398)" d="M 342.799076 309.8635 
L 342.799076 23.36505 
" style="fill:none;stroke:#b0b0b0;stroke-linecap:square;stroke-width:0.8;"/>
     </g>
     <g id="line2d_14">
      <g>
       <use style="stroke:#000000;stroke-width:0.8;" x="342.799076" xlink:href="#mc14621bfdb" y="309.8635"/>
      </g>
     </g>
     <g id="text_7">
      <!-- 2014 -->
      <g transform="translate(330.074076 324.461937)scale(0.1 -0.1)">
       <use xlink:href="#DejaVuSans-32"/>
       <use x="63.623047" xlink:href="#DejaVuSans-30"/>
       <use x="127.246094" xlink:href="#DejaVuSans-31"/>
       <use x="190.869141" xlink:href="#DejaVuSans-34"/>
      </g>
     </g>
    </g>
    <g id="xtick_8">
     <g id="line2d_15">
      <path clip-path="url(#p8541496398)" d="M 391.852249 309.8635 
L 391.852249 23.36505 
" style="fill:none;stroke:#b0b0b0;stroke-linecap:square;stroke-width:0.8;"/>
     </g>
     <g id="line2d_16">
      <g>
       <use style="stroke:#000000;stroke-width:0.8;" x="391.852249" xlink:href="#mc14621bfdb" y="309.8635"/>
      </g>
     </g>
     <g id="text_8">
      <!-- 2016 -->
      <g transform="translate(379.127249 324.461937)scale(0.1 -0.1)">
       <use xlink:href="#DejaVuSans-32"/>
       <use x="63.623047" xlink:href="#DejaVuSans-30"/>
       <use x="127.246094" xlink:href="#DejaVuSans-31"/>
       <use x="190.869141" xlink:href="#DejaVuSans-36"/>
      </g>
     </g>
    </g>
    <g id="xtick_9">
     <g id="line2d_17">
      <path clip-path="url(#p8541496398)" d="M 440.972617 309.8635 
L 440.972617 23.36505 
" style="fill:none;stroke:#b0b0b0;stroke-linecap:square;stroke-width:0.8;"/>
     </g>
     <g id="line2d_18">
      <g>
       <use style="stroke:#000000;stroke-width:0.8;" x="440.972617" xlink:href="#mc14621bfdb" y="309.8635"/>
      </g>
     </g>
     <g id="text_9">
      <!-- 2018 -->
      <g transform="translate(428.247617 324.461937)scale(0.1 -0.1)">
       <use xlink:href="#DejaVuSans-32"/>
       <use x="63.623047" xlink:href="#DejaVuSans-30"/>
       <use x="127.246094" xlink:href="#DejaVuSans-31"/>
       <use x="190.869141" xlink:href="#DejaVuSans-38"/>
      </g>
     </g>
    </g>
    <g id="text_10">
     <!-- Date -->
     <defs>
      <path d="M 19.671875 64.796875 
L 19.671875 8.109375 
L 31.59375 8.109375 
Q 46.6875 8.109375 53.6875 14.9375 
Q 60.6875 21.78125 60.6875 36.53125 
Q 60.6875 51.171875 53.6875 57.984375 
Q 46.6875 64.796875 31.59375 64.796875 
z
M 9.8125 72.90625 
L 30.078125 72.90625 
Q 51.265625 72.90625 61.171875 64.09375 
Q 71.09375 55.28125 71.09375 36.53125 
Q 71.09375 17.671875 61.125 8.828125 
Q 51.171875 0 30.078125 0 
L 9.8125 0 
z
" id="DejaVuSans-44"/>
      <path d="M 34.28125 27.484375 
Q 23.390625 27.484375 19.1875 25 
Q 14.984375 22.515625 14.984375 16.5 
Q 14.984375 11.71875 18.140625 8.90625 
Q 21.296875 6.109375 26.703125 6.109375 
Q 34.1875 6.109375 38.703125 11.40625 
Q 43.21875 16.703125 43.21875 25.484375 
L 43.21875 27.484375 
z
M 52.203125 31.203125 
L 52.203125 0 
L 43.21875 0 
L 43.21875 8.296875 
Q 40.140625 3.328125 35.546875 0.953125 
Q 30.953125 -1.421875 24.3125 -1.421875 
Q 15.921875 -1.421875 10.953125 3.296875 
Q 6 8.015625 6 15.921875 
Q 6 25.140625 12.171875 29.828125 
Q 18.359375 34.515625 30.609375 34.515625 
L 43.21875 34.515625 
L 43.21875 35.40625 
Q 43.21875 41.609375 39.140625 45 
Q 35.0625 48.390625 27.6875 48.390625 
Q 23 48.390625 18.546875 47.265625 
Q 14.109375 46.140625 10.015625 43.890625 
L 10.015625 52.203125 
Q 14.9375 54.109375 19.578125 55.046875 
Q 24.21875 56 28.609375 56 
Q 40.484375 56 46.34375 49.84375 
Q 52.203125 43.703125 52.203125 31.203125 
z
" id="DejaVuSans-61"/>
      <path d="M 18.3125 70.21875 
L 18.3125 54.6875 
L 36.8125 54.6875 
L 36.8125 47.703125 
L 18.3125 47.703125 
L 18.3125 18.015625 
Q 18.3125 11.328125 20.140625 9.421875 
Q 21.96875 7.515625 27.59375 7.515625 
L 36.8125 7.515625 
L 36.8125 0 
L 27.59375 0 
Q 17.1875 0 13.234375 3.875 
Q 9.28125 7.765625 9.28125 18.015625 
L 9.28125 47.703125 
L 2.6875 47.703125 
L 2.6875 54.6875 
L 9.28125 54.6875 
L 9.28125 70.21875 
z
" id="DejaVuSans-74"/>
      <path d="M 56.203125 29.59375 
L 56.203125 25.203125 
L 14.890625 25.203125 
Q 15.484375 15.921875 20.484375 11.0625 
Q 25.484375 6.203125 34.421875 6.203125 
Q 39.59375 6.203125 44.453125 7.46875 
Q 49.3125 8.734375 54.109375 11.28125 
L 54.109375 2.78125 
Q 49.265625 0.734375 44.1875 -0.34375 
Q 39.109375 -1.421875 33.890625 -1.421875 
Q 20.796875 -1.421875 13.15625 6.1875 
Q 5.515625 13.8125 5.515625 26.8125 
Q 5.515625 40.234375 12.765625 48.109375 
Q 20.015625 56 32.328125 56 
Q 43.359375 56 49.78125 48.890625 
Q 56.203125 41.796875 56.203125 29.59375 
z
M 47.21875 32.234375 
Q 47.125 39.59375 43.09375 43.984375 
Q 39.0625 48.390625 32.421875 48.390625 
Q 24.90625 48.390625 20.390625 44.140625 
Q 15.875 39.890625 15.1875 32.171875 
z
" id="DejaVuSans-65"/>
     </defs>
     <g transform="translate(230.49088 338.140062)scale(0.1 -0.1)">
      <use xlink:href="#DejaVuSans-44"/>
      <use x="77.001953" xlink:href="#DejaVuSans-61"/>
      <use x="138.28125" xlink:href="#DejaVuSans-74"/>
      <use x="177.490234" xlink:href="#DejaVuSans-65"/>
     </g>
    </g>
   </g>
   <g id="matplotlib.axis_2">
    <g id="ytick_1">
     <g id="line2d_19">
      <path clip-path="url(#p8541496398)" d="M 37.93025 309.8635 
L 446.953073 309.8635 
" style="fill:none;stroke:#b0b0b0;stroke-linecap:square;stroke-width:0.8;"/>
     </g>
     <g id="line2d_20">
      <defs>
       <path d="M 0 0 
L -3.5 0 
" id="m6f9c672503" style="stroke:#000000;stroke-width:0.8;"/>
      </defs>
      <g>
       <use style="stroke:#000000;stroke-width:0.8;" x="37.93025" xlink:href="#m6f9c672503" y="309.8635"/>
      </g>
     </g>
     <g id="text_11">
      <!-- 0 -->
      <g transform="translate(24.56775 313.662719)scale(0.1 -0.1)">
       <use xlink:href="#DejaVuSans-30"/>
      </g>
     </g>
    </g>
    <g id="ytick_2">
     <g id="line2d_21">
      <path clip-path="url(#p8541496398)" d="M 37.93025 277.762833 
L 446.953073 277.762833 
" style="fill:none;stroke:#b0b0b0;stroke-linecap:square;stroke-width:0.8;"/>
     </g>
     <g id="line2d_22">
      <g>
       <use style="stroke:#000000;stroke-width:0.8;" x="37.93025" xlink:href="#m6f9c672503" y="277.762833"/>
      </g>
     </g>
     <g id="text_12">
      <!-- 10 -->
      <g transform="translate(18.20525 281.562052)scale(0.1 -0.1)">
       <use xlink:href="#DejaVuSans-31"/>
       <use x="63.623047" xlink:href="#DejaVuSans-30"/>
      </g>
     </g>
    </g>
    <g id="ytick_3">
     <g id="line2d_23">
      <path clip-path="url(#p8541496398)" d="M 37.93025 245.662167 
L 446.953073 245.662167 
" style="fill:none;stroke:#b0b0b0;stroke-linecap:square;stroke-width:0.8;"/>
     </g>
     <g id="line2d_24">
      <g>
       <use style="stroke:#000000;stroke-width:0.8;" x="37.93025" xlink:href="#m6f9c672503" y="245.662167"/>
      </g>
     </g>
     <g id="text_13">
      <!-- 20 -->
      <g transform="translate(18.20525 249.461385)scale(0.1 -0.1)">
       <use xlink:href="#DejaVuSans-32"/>
       <use x="63.623047" xlink:href="#DejaVuSans-30"/>
      </g>
     </g>
    </g>
    <g id="ytick_4">
     <g id="line2d_25">
      <path clip-path="url(#p8541496398)" d="M 37.93025 213.5615 
L 446.953073 213.5615 
" style="fill:none;stroke:#b0b0b0;stroke-linecap:square;stroke-width:0.8;"/>
     </g>
     <g id="line2d_26">
      <g>
       <use style="stroke:#000000;stroke-width:0.8;" x="37.93025" xlink:href="#m6f9c672503" y="213.5615"/>
      </g>
     </g>
     <g id="text_14">
      <!-- 30 -->
      <defs>
       <path d="M 40.578125 39.3125 
Q 47.65625 37.796875 51.625 33 
Q 55.609375 28.21875 55.609375 21.1875 
Q 55.609375 10.40625 48.1875 4.484375 
Q 40.765625 -1.421875 27.09375 -1.421875 
Q 22.515625 -1.421875 17.65625 -0.515625 
Q 12.796875 0.390625 7.625 2.203125 
L 7.625 11.71875 
Q 11.71875 9.328125 16.59375 8.109375 
Q 21.484375 6.890625 26.8125 6.890625 
Q 36.078125 6.890625 40.9375 10.546875 
Q 45.796875 14.203125 45.796875 21.1875 
Q 45.796875 27.640625 41.28125 31.265625 
Q 36.765625 34.90625 28.71875 34.90625 
L 20.21875 34.90625 
L 20.21875 43.015625 
L 29.109375 43.015625 
Q 36.375 43.015625 40.234375 45.921875 
Q 44.09375 48.828125 44.09375 54.296875 
Q 44.09375 59.90625 40.109375 62.90625 
Q 36.140625 65.921875 28.71875 65.921875 
Q 24.65625 65.921875 20.015625 65.03125 
Q 15.375 64.15625 9.8125 62.3125 
L 9.8125 71.09375 
Q 15.4375 72.65625 20.34375 73.4375 
Q 25.25 74.21875 29.59375 74.21875 
Q 40.828125 74.21875 47.359375 69.109375 
Q 53.90625 64.015625 53.90625 55.328125 
Q 53.90625 49.265625 50.4375 45.09375 
Q 46.96875 40.921875 40.578125 39.3125 
z
" id="DejaVuSans-33"/>
      </defs>
      <g transform="translate(18.20525 217.360719)scale(0.1 -0.1)">
       <use xlink:href="#DejaVuSans-33"/>
       <use x="63.623047" xlink:href="#DejaVuSans-30"/>
      </g>
     </g>
    </g>
    <g id="ytick_5">
     <g id="line2d_27">
      <path clip-path="url(#p8541496398)" d="M 37.93025 181.460833 
L 446.953073 181.460833 
" style="fill:none;stroke:#b0b0b0;stroke-linecap:square;stroke-width:0.8;"/>
     </g>
     <g id="line2d_28">
      <g>
       <use style="stroke:#000000;stroke-width:0.8;" x="37.93025" xlink:href="#m6f9c672503" y="181.460833"/>
      </g>
     </g>
     <g id="text_15">
      <!-- 40 -->
      <g transform="translate(18.20525 185.260052)scale(0.1 -0.1)">
       <use xlink:href="#DejaVuSans-34"/>
       <use x="63.623047" xlink:href="#DejaVuSans-30"/>
      </g>
     </g>
    </g>
    <g id="ytick_6">
     <g id="line2d_29">
      <path clip-path="url(#p8541496398)" d="M 37.93025 149.360167 
L 446.953073 149.360167 
" style="fill:none;stroke:#b0b0b0;stroke-linecap:square;stroke-width:0.8;"/>
     </g>
     <g id="line2d_30">
      <g>
       <use style="stroke:#000000;stroke-width:0.8;" x="37.93025" xlink:href="#m6f9c672503" y="149.360167"/>
      </g>
     </g>
     <g id="text_16">
      <!-- 50 -->
      <defs>
       <path d="M 10.796875 72.90625 
L 49.515625 72.90625 
L 49.515625 64.59375 
L 19.828125 64.59375 
L 19.828125 46.734375 
Q 21.96875 47.46875 24.109375 47.828125 
Q 26.265625 48.1875 28.421875 48.1875 
Q 40.625 48.1875 47.75 41.5 
Q 54.890625 34.8125 54.890625 23.390625 
Q 54.890625 11.625 47.5625 5.09375 
Q 40.234375 -1.421875 26.90625 -1.421875 
Q 22.3125 -1.421875 17.546875 -0.640625 
Q 12.796875 0.140625 7.71875 1.703125 
L 7.71875 11.625 
Q 12.109375 9.234375 16.796875 8.0625 
Q 21.484375 6.890625 26.703125 6.890625 
Q 35.15625 6.890625 40.078125 11.328125 
Q 45.015625 15.765625 45.015625 23.390625 
Q 45.015625 31 40.078125 35.4375 
Q 35.15625 39.890625 26.703125 39.890625 
Q 22.75 39.890625 18.8125 39.015625 
Q 14.890625 38.140625 10.796875 36.28125 
z
" id="DejaVuSans-35"/>
      </defs>
      <g transform="translate(18.20525 153.159385)scale(0.1 -0.1)">
       <use xlink:href="#DejaVuSans-35"/>
       <use x="63.623047" xlink:href="#DejaVuSans-30"/>
      </g>
     </g>
    </g>
    <g id="ytick_7">
     <g id="line2d_31">
      <path clip-path="url(#p8541496398)" d="M 37.93025 117.2595 
L 446.953073 117.2595 
" style="fill:none;stroke:#b0b0b0;stroke-linecap:square;stroke-width:0.8;"/>
     </g>
     <g id="line2d_32">
      <g>
       <use style="stroke:#000000;stroke-width:0.8;" x="37.93025" xlink:href="#m6f9c672503" y="117.2595"/>
      </g>
     </g>
     <g id="text_17">
      <!-- 60 -->
      <g transform="translate(18.20525 121.058719)scale(0.1 -0.1)">
       <use xlink:href="#DejaVuSans-36"/>
       <use x="63.623047" xlink:href="#DejaVuSans-30"/>
      </g>
     </g>
    </g>
    <g id="ytick_8">
     <g id="line2d_33">
      <path clip-path="url(#p8541496398)" d="M 37.93025 85.158833 
L 446.953073 85.158833 
" style="fill:none;stroke:#b0b0b0;stroke-linecap:square;stroke-width:0.8;"/>
     </g>
     <g id="line2d_34">
      <g>
       <use style="stroke:#000000;stroke-width:0.8;" x="37.93025" xlink:href="#m6f9c672503" y="85.158833"/>
      </g>
     </g>
     <g id="text_18">
      <!-- 70 -->
      <defs>
       <path d="M 8.203125 72.90625 
L 55.078125 72.90625 
L 55.078125 68.703125 
L 28.609375 0 
L 18.3125 0 
L 43.21875 64.59375 
L 8.203125 64.59375 
z
" id="DejaVuSans-37"/>
      </defs>
      <g transform="translate(18.20525 88.958052)scale(0.1 -0.1)">
       <use xlink:href="#DejaVuSans-37"/>
       <use x="63.623047" xlink:href="#DejaVuSans-30"/>
      </g>
     </g>
    </g>
    <g id="ytick_9">
     <g id="line2d_35">
      <path clip-path="url(#p8541496398)" d="M 37.93025 53.058167 
L 446.953073 53.058167 
" style="fill:none;stroke:#b0b0b0;stroke-linecap:square;stroke-width:0.8;"/>
     </g>
     <g id="line2d_36">
      <g>
       <use style="stroke:#000000;stroke-width:0.8;" x="37.93025" xlink:href="#m6f9c672503" y="53.058167"/>
      </g>
     </g>
     <g id="text_19">
      <!-- 80 -->
      <g transform="translate(18.20525 56.857385)scale(0.1 -0.1)">
       <use xlink:href="#DejaVuSans-38"/>
       <use x="63.623047" xlink:href="#DejaVuSans-30"/>
      </g>
     </g>
    </g>
    <g id="text_20">
     <!-- Gross load (MW) -->
     <defs>
      <path d="M 59.515625 10.40625 
L 59.515625 29.984375 
L 43.40625 29.984375 
L 43.40625 38.09375 
L 69.28125 38.09375 
L 69.28125 6.78125 
Q 63.578125 2.734375 56.6875 0.65625 
Q 49.8125 -1.421875 42 -1.421875 
Q 24.90625 -1.421875 15.25 8.5625 
Q 5.609375 18.5625 5.609375 36.375 
Q 5.609375 54.25 15.25 64.234375 
Q 24.90625 74.21875 42 74.21875 
Q 49.125 74.21875 55.546875 72.453125 
Q 61.96875 70.703125 67.390625 67.28125 
L 67.390625 56.78125 
Q 61.921875 61.421875 55.765625 63.765625 
Q 49.609375 66.109375 42.828125 66.109375 
Q 29.4375 66.109375 22.71875 58.640625 
Q 16.015625 51.171875 16.015625 36.375 
Q 16.015625 21.625 22.71875 14.15625 
Q 29.4375 6.6875 42.828125 6.6875 
Q 48.046875 6.6875 52.140625 7.59375 
Q 56.25 8.5 59.515625 10.40625 
z
" id="DejaVuSans-47"/>
      <path d="M 41.109375 46.296875 
Q 39.59375 47.171875 37.8125 47.578125 
Q 36.03125 48 33.890625 48 
Q 26.265625 48 22.1875 43.046875 
Q 18.109375 38.09375 18.109375 28.8125 
L 18.109375 0 
L 9.078125 0 
L 9.078125 54.6875 
L 18.109375 54.6875 
L 18.109375 46.1875 
Q 20.953125 51.171875 25.484375 53.578125 
Q 30.03125 56 36.53125 56 
Q 37.453125 56 38.578125 55.875 
Q 39.703125 55.765625 41.0625 55.515625 
z
" id="DejaVuSans-72"/>
      <path d="M 30.609375 48.390625 
Q 23.390625 48.390625 19.1875 42.75 
Q 14.984375 37.109375 14.984375 27.296875 
Q 14.984375 17.484375 19.15625 11.84375 
Q 23.34375 6.203125 30.609375 6.203125 
Q 37.796875 6.203125 41.984375 11.859375 
Q 46.1875 17.53125 46.1875 27.296875 
Q 46.1875 37.015625 41.984375 42.703125 
Q 37.796875 48.390625 30.609375 48.390625 
z
M 30.609375 56 
Q 42.328125 56 49.015625 48.375 
Q 55.71875 40.765625 55.71875 27.296875 
Q 55.71875 13.875 49.015625 6.21875 
Q 42.328125 -1.421875 30.609375 -1.421875 
Q 18.84375 -1.421875 12.171875 6.21875 
Q 5.515625 13.875 5.515625 27.296875 
Q 5.515625 40.765625 12.171875 48.375 
Q 18.84375 56 30.609375 56 
z
" id="DejaVuSans-6f"/>
      <path d="M 44.28125 53.078125 
L 44.28125 44.578125 
Q 40.484375 46.53125 36.375 47.5 
Q 32.28125 48.484375 27.875 48.484375 
Q 21.1875 48.484375 17.84375 46.4375 
Q 14.5 44.390625 14.5 40.28125 
Q 14.5 37.15625 16.890625 35.375 
Q 19.28125 33.59375 26.515625 31.984375 
L 29.59375 31.296875 
Q 39.15625 29.25 43.1875 25.515625 
Q 47.21875 21.78125 47.21875 15.09375 
Q 47.21875 7.46875 41.1875 3.015625 
Q 35.15625 -1.421875 24.609375 -1.421875 
Q 20.21875 -1.421875 15.453125 -0.5625 
Q 10.6875 0.296875 5.421875 2 
L 5.421875 11.28125 
Q 10.40625 8.6875 15.234375 7.390625 
Q 20.0625 6.109375 24.8125 6.109375 
Q 31.15625 6.109375 34.5625 8.28125 
Q 37.984375 10.453125 37.984375 14.40625 
Q 37.984375 18.0625 35.515625 20.015625 
Q 33.0625 21.96875 24.703125 23.78125 
L 21.578125 24.515625 
Q 13.234375 26.265625 9.515625 29.90625 
Q 5.8125 33.546875 5.8125 39.890625 
Q 5.8125 47.609375 11.28125 51.796875 
Q 16.75 56 26.8125 56 
Q 31.78125 56 36.171875 55.265625 
Q 40.578125 54.546875 44.28125 53.078125 
z
" id="DejaVuSans-73"/>
      <path id="DejaVuSans-20"/>
      <path d="M 9.421875 75.984375 
L 18.40625 75.984375 
L 18.40625 0 
L 9.421875 0 
z
" id="DejaVuSans-6c"/>
      <path d="M 45.40625 46.390625 
L 45.40625 75.984375 
L 54.390625 75.984375 
L 54.390625 0 
L 45.40625 0 
L 45.40625 8.203125 
Q 42.578125 3.328125 38.25 0.953125 
Q 33.9375 -1.421875 27.875 -1.421875 
Q 17.96875 -1.421875 11.734375 6.484375 
Q 5.515625 14.40625 5.515625 27.296875 
Q 5.515625 40.1875 11.734375 48.09375 
Q 17.96875 56 27.875 56 
Q 33.9375 56 38.25 53.625 
Q 42.578125 51.265625 45.40625 46.390625 
z
M 14.796875 27.296875 
Q 14.796875 17.390625 18.875 11.75 
Q 22.953125 6.109375 30.078125 6.109375 
Q 37.203125 6.109375 41.296875 11.75 
Q 45.40625 17.390625 45.40625 27.296875 
Q 45.40625 37.203125 41.296875 42.84375 
Q 37.203125 48.484375 30.078125 48.484375 
Q 22.953125 48.484375 18.875 42.84375 
Q 14.796875 37.203125 14.796875 27.296875 
z
" id="DejaVuSans-64"/>
      <path d="M 31 75.875 
Q 24.46875 64.65625 21.28125 53.65625 
Q 18.109375 42.671875 18.109375 31.390625 
Q 18.109375 20.125 21.3125 9.0625 
Q 24.515625 -2 31 -13.1875 
L 23.1875 -13.1875 
Q 15.875 -1.703125 12.234375 9.375 
Q 8.59375 20.453125 8.59375 31.390625 
Q 8.59375 42.28125 12.203125 53.3125 
Q 15.828125 64.359375 23.1875 75.875 
z
" id="DejaVuSans-28"/>
      <path d="M 9.8125 72.90625 
L 24.515625 72.90625 
L 43.109375 23.296875 
L 61.8125 72.90625 
L 76.515625 72.90625 
L 76.515625 0 
L 66.890625 0 
L 66.890625 64.015625 
L 48.09375 14.015625 
L 38.1875 14.015625 
L 19.390625 64.015625 
L 19.390625 0 
L 9.8125 0 
z
" id="DejaVuSans-4d"/>
      <path d="M 3.328125 72.90625 
L 13.28125 72.90625 
L 28.609375 11.28125 
L 43.890625 72.90625 
L 54.984375 72.90625 
L 70.3125 11.28125 
L 85.59375 72.90625 
L 95.609375 72.90625 
L 77.296875 0 
L 64.890625 0 
L 49.515625 63.28125 
L 33.984375 0 
L 21.578125 0 
z
" id="DejaVuSans-57"/>
      <path d="M 8.015625 75.875 
L 15.828125 75.875 
Q 23.140625 64.359375 26.78125 53.3125 
Q 30.421875 42.28125 30.421875 31.390625 
Q 30.421875 20.453125 26.78125 9.375 
Q 23.140625 -1.703125 15.828125 -13.1875 
L 8.015625 -13.1875 
Q 14.5 -2 17.703125 9.0625 
Q 20.90625 20.125 20.90625 31.390625 
Q 20.90625 42.671875 17.703125 53.65625 
Q 14.5 64.65625 8.015625 75.875 
z
" id="DejaVuSans-29"/>
     </defs>
     <g transform="translate(12.125562 207.835369)rotate(-90)scale(0.1 -0.1)">
      <use xlink:href="#DejaVuSans-47"/>
      <use x="77.490234" xlink:href="#DejaVuSans-72"/>
      <use x="118.572266" xlink:href="#DejaVuSans-6f"/>
      <use x="179.753906" xlink:href="#DejaVuSans-73"/>
      <use x="231.853516" xlink:href="#DejaVuSans-73"/>
      <use x="283.953125" xlink:href="#DejaVuSans-20"/>
      <use x="315.740234" xlink:href="#DejaVuSans-6c"/>
      <use x="343.523438" xlink:href="#DejaVuSans-6f"/>
      <use x="404.705078" xlink:href="#DejaVuSans-61"/>
      <use x="465.984375" xlink:href="#DejaVuSans-64"/>
      <use x="529.460938" xlink:href="#DejaVuSans-20"/>
      <use x="561.248047" xlink:href="#DejaVuSans-28"/>
      <use x="600.261719" xlink:href="#DejaVuSans-4d"/>
      <use x="686.541016" xlink:href="#DejaVuSans-57"/>
      <use x="785.417969" xlink:href="#DejaVuSans-29"/>
     </g>
    </g>
   </g>
   <g id="line2d_37">
    <path clip-path="url(#p8541496398)" d="M 37.93025 309.8635 
L 446.953073 309.8635 
L 446.953073 309.8635 
" style="fill:none;stroke:#1f77b4;stroke-linecap:square;stroke-width:1.5;"/>
   </g>
   <g id="patch_3">
    <path d="M 37.93025 309.8635 
L 37.93025 23.36505 
" style="fill:none;stroke:#000000;stroke-linecap:square;stroke-linejoin:miter;stroke-width:0.8;"/>
   </g>
   <g id="patch_4">
    <path d="M 446.953073 309.8635 
L 446.953073 23.36505 
" style="fill:none;stroke:#000000;stroke-linecap:square;stroke-linejoin:miter;stroke-width:0.8;"/>
   </g>
   <g id="patch_5">
    <path d="M 37.93025 309.8635 
L 446.953073 309.8635 
" style="fill:none;stroke:#000000;stroke-linecap:square;stroke-linejoin:miter;stroke-width:0.8;"/>
   </g>
   <g id="patch_6">
    <path d="M 37.93025 23.36505 
L 446.953073 23.36505 
" style="fill:none;stroke:#000000;stroke-linecap:square;stroke-linejoin:miter;stroke-width:0.8;"/>
   </g>
   <g id="text_21">
    <!-- Monthly gload trend -->
    <defs>
     <path d="M 54.890625 33.015625 
L 54.890625 0 
L 45.90625 0 
L 45.90625 32.71875 
Q 45.90625 40.484375 42.875 44.328125 
Q 39.84375 48.1875 33.796875 48.1875 
Q 26.515625 48.1875 22.3125 43.546875 
Q 18.109375 38.921875 18.109375 30.90625 
L 18.109375 0 
L 9.078125 0 
L 9.078125 54.6875 
L 18.109375 54.6875 
L 18.109375 46.1875 
Q 21.34375 51.125 25.703125 53.5625 
Q 30.078125 56 35.796875 56 
Q 45.21875 56 50.046875 50.171875 
Q 54.890625 44.34375 54.890625 33.015625 
z
" id="DejaVuSans-6e"/>
     <path d="M 54.890625 33.015625 
L 54.890625 0 
L 45.90625 0 
L 45.90625 32.71875 
Q 45.90625 40.484375 42.875 44.328125 
Q 39.84375 48.1875 33.796875 48.1875 
Q 26.515625 48.1875 22.3125 43.546875 
Q 18.109375 38.921875 18.109375 30.90625 
L 18.109375 0 
L 9.078125 0 
L 9.078125 75.984375 
L 18.109375 75.984375 
L 18.109375 46.1875 
Q 21.34375 51.125 25.703125 53.5625 
Q 30.078125 56 35.796875 56 
Q 45.21875 56 50.046875 50.171875 
Q 54.890625 44.34375 54.890625 33.015625 
z
" id="DejaVuSans-68"/>
     <path d="M 32.171875 -5.078125 
Q 28.375 -14.84375 24.75 -17.8125 
Q 21.140625 -20.796875 15.09375 -20.796875 
L 7.90625 -20.796875 
L 7.90625 -13.28125 
L 13.1875 -13.28125 
Q 16.890625 -13.28125 18.9375 -11.515625 
Q 21 -9.765625 23.484375 -3.21875 
L 25.09375 0.875 
L 2.984375 54.6875 
L 12.5 54.6875 
L 29.59375 11.921875 
L 46.6875 54.6875 
L 56.203125 54.6875 
z
" id="DejaVuSans-79"/>
     <path d="M 45.40625 27.984375 
Q 45.40625 37.75 41.375 43.109375 
Q 37.359375 48.484375 30.078125 48.484375 
Q 22.859375 48.484375 18.828125 43.109375 
Q 14.796875 37.75 14.796875 27.984375 
Q 14.796875 18.265625 18.828125 12.890625 
Q 22.859375 7.515625 30.078125 7.515625 
Q 37.359375 7.515625 41.375 12.890625 
Q 45.40625 18.265625 45.40625 27.984375 
z
M 54.390625 6.78125 
Q 54.390625 -7.171875 48.1875 -13.984375 
Q 42 -20.796875 29.203125 -20.796875 
Q 24.46875 -20.796875 20.265625 -20.09375 
Q 16.0625 -19.390625 12.109375 -17.921875 
L 12.109375 -9.1875 
Q 16.0625 -11.328125 19.921875 -12.34375 
Q 23.78125 -13.375 27.78125 -13.375 
Q 36.625 -13.375 41.015625 -8.765625 
Q 45.40625 -4.15625 45.40625 5.171875 
L 45.40625 9.625 
Q 42.625 4.78125 38.28125 2.390625 
Q 33.9375 0 27.875 0 
Q 17.828125 0 11.671875 7.65625 
Q 5.515625 15.328125 5.515625 27.984375 
Q 5.515625 40.671875 11.671875 48.328125 
Q 17.828125 56 27.875 56 
Q 33.9375 56 38.28125 53.609375 
Q 42.625 51.21875 45.40625 46.390625 
L 45.40625 54.6875 
L 54.390625 54.6875 
z
" id="DejaVuSans-67"/>
    </defs>
    <g transform="translate(181.851036 17.36505)scale(0.12 -0.12)">
     <use xlink:href="#DejaVuSans-4d"/>
     <use x="86.279297" xlink:href="#DejaVuSans-6f"/>
     <use x="147.460938" xlink:href="#DejaVuSans-6e"/>
     <use x="210.839844" xlink:href="#DejaVuSans-74"/>
     <use x="250.048828" xlink:href="#DejaVuSans-68"/>
     <use x="313.427734" xlink:href="#DejaVuSans-6c"/>
     <use x="341.210938" xlink:href="#DejaVuSans-79"/>
     <use x="400.390625" xlink:href="#DejaVuSans-20"/>
     <use x="432.177734" xlink:href="#DejaVuSans-67"/>
     <use x="495.654297" xlink:href="#DejaVuSans-6c"/>
     <use x="523.4375" xlink:href="#DejaVuSans-6f"/>
     <use x="584.619141" xlink:href="#DejaVuSans-61"/>
     <use x="645.898438" xlink:href="#DejaVuSans-64"/>
     <use x="709.375" xlink:href="#DejaVuSans-20"/>
     <use x="741.162109" xlink:href="#DejaVuSans-74"/>
     <use x="780.371094" xlink:href="#DejaVuSans-72"/>
     <use x="821.453125" xlink:href="#DejaVuSans-65"/>
     <use x="882.976562" xlink:href="#DejaVuSans-6e"/>
     <use x="946.355469" xlink:href="#DejaVuSans-64"/>
    </g>
   </g>
  </g>
 </g>
 <defs>
  <clipPath id="p8541496398">
   <rect height="286.49845" width="409.022823" x="37.93025" y="23.36505"/>
  </clipPath>
 </defs>
</svg>
