<?xml version="1.0" encoding="utf-8" standalone="no"?>
<!DOCTYPE svg PUBLIC "-//W3C//DTD SVG 1.1//EN"
  "http://www.w3.org/Graphics/SVG/1.1/DTD/svg11.dtd">
<!-- Created with matplotlib (http://matplotlib.org/) -->
<svg height="345.6pt" version="1.1" viewBox="0 0 460.8 345.6" width="460.8pt" xmlns="http://www.w3.org/2000/svg" xmlns:xlink="http://www.w3.org/1999/xlink">
 <defs>
  <style type="text/css">
*{stroke-linecap:butt;stroke-linejoin:round;}
  </style>
 </defs>
 <g id="figure_1">
  <g id="patch_1">
   <path d="M 0 345.6 
L 460.8 345.6 
L 460.8 0 
L 0 0 
z
" style="fill:none;"/>
  </g>
  <g id="axes_1">
   <g id="patch_2">
    <path d="M 42.51125 309.8635 
L 447.48 309.8635 
L 447.48 23.36505 
L 42.51125 23.36505 
z
" style="fill:none;"/>
   </g>
   <g id="PolyCollection_1">
    <path clip-path="url(#p9e94e31318)" d="M 42.51125 133.487185 
L 42.51125 231.850899 
L 44.3203 237.503986 
L 46.323177 235.996496 
L 48.261444 288.004897 
L 50.264321 232.981517 
L 52.202589 219.414108 
L 54.205466 246.548925 
L 56.208342 196.048015 
L 58.14661 222.429087 
L 60.149487 289.135514 
L 62.087755 248.433288 
L 64.090631 309.8635 
L 66.093508 230.720282 
L 67.902558 228.459047 
L 69.905435 243.910818 
L 71.843703 276.32185 
L 73.846579 229.966537 
L 75.784847 280.467448 
L 77.787724 259.739462 
L 79.7906 249.187033 
L 81.728868 250.694523 
L 83.731745 275.191233 
L 85.670013 246.172053 
L 87.672889 239.388349 
L 89.675766 265.769421 
L 91.484816 241.649583 
L 93.487693 253.33263 
L 95.425961 247.679543 
L 97.428837 242.026456 
L 99.367105 251.448267 
L 101.369982 238.634604 
L 103.372859 268.784401 
L 105.311126 213.761021 
L 107.314003 244.287691 
L 109.252271 295.542346 
L 111.255148 245.041436 
L 113.258024 227.705302 
L 115.131683 240.895838 
L 117.13456 256.724482 
L 119.072828 297.426709 
L 121.075704 257.855099 
L 123.013972 232.604644 
L 125.016849 250.694523 
L 127.019726 230.720282 
L 128.957993 227.32843 
L 130.96087 237.127114 
L 132.899138 223.559705 
L 134.902015 240.142093 
L 136.904891 214.891638 
L 138.713941 262.000697 
L 140.716818 303.833541 
L 142.655086 210.369169 
L 144.657962 228.082174 
L 146.59623 242.026456 
L 148.599107 213.384148 
L 150.601984 202.077974 
L 152.540251 237.127114 
L 154.543128 267.276911 
L 156.481396 249.187033 
L 158.484273 238.634604 
L 160.487149 239.011476 
L 162.296199 242.026456 
L 164.299076 240.895838 
L 166.237344 245.041436 
L 168.240221 217.152873 
L 170.178488 215.268511 
L 172.181365 263.508186 
L 174.184242 196.424887 
L 176.12251 245.041436 
L 178.125386 266.523166 
L 180.063654 249.940778 
L 182.066531 294.034856 
L 184.069408 207.354189 
L 185.878457 294.788601 
L 187.881334 239.388349 
L 189.819602 266.146294 
L 191.822479 221.675343 
L 193.760746 216.022256 
L 195.763623 248.433288 
L 197.7665 248.81016 
L 199.704768 201.324229 
L 201.707644 228.835919 
L 203.645912 235.996496 
L 205.648789 242.403328 
L 207.651666 194.917397 
L 209.525324 236.373369 
L 211.528201 247.679543 
L 213.466469 258.985717 
L 215.469346 225.82094 
L 217.407613 238.257731 
L 219.41049 228.082174 
L 221.413367 243.157073 
L 223.351635 242.026456 
L 225.354511 236.373369 
L 227.292779 245.79518 
L 229.295656 247.30267 
L 231.298533 263.131314 
L 233.107583 252.202012 
L 235.110459 289.135514 
L 237.048727 275.191233 
L 239.051604 281.598065 
L 240.989872 272.929998 
L 242.992748 245.418308 
L 244.995625 262.377569 
L 246.933893 260.493207 
L 248.93677 266.523166 
L 250.875037 281.221192 
L 252.877914 289.135514 
L 254.880791 272.176253 
L 256.689841 246.172053 
L 258.692717 307.979138 
L 260.630985 287.251152 
L 262.633862 309.8635 
L 264.57213 264.638804 
L 266.575006 260.870079 
L 268.577883 265.015676 
L 270.516151 253.709502 
L 272.519028 273.683743 
L 274.457295 263.131314 
L 276.460172 252.955757 
L 278.463049 247.679543 
L 280.272099 252.202012 
L 282.274975 309.8635 
L 284.213243 287.251152 
L 286.21612 284.613045 
L 288.154388 263.885059 
L 290.157264 248.81016 
L 292.160141 235.619624 
L 294.098409 246.925798 
L 296.101286 268.407529 
L 298.039553 302.326051 
L 300.04243 261.246952 
L 302.045307 263.508186 
L 303.918966 285.743662 
L 305.921842 298.557326 
L 307.86011 297.049836 
L 309.862987 288.381769 
L 311.801255 265.015676 
L 313.804132 264.638804 
L 315.807008 251.071395 
L 317.745276 264.638804 
L 319.748153 261.623824 
L 321.686421 249.563905 
L 323.689297 265.392549 
L 325.692174 251.448267 
L 327.501224 269.915018 
L 329.504101 257.101355 
L 331.442368 260.116334 
L 333.445245 266.523166 
L 335.383513 237.880859 
L 337.38639 228.082174 
L 339.389266 265.392549 
L 341.327534 271.799381 
L 343.330411 275.944978 
L 345.268679 248.056415 
L 347.271555 234.489006 
L 349.274432 266.523166 
L 351.083482 222.80596 
L 353.086359 272.929998 
L 355.024626 279.33683 
L 357.027503 250.31765 
L 358.965771 248.433288 
L 360.968648 205.846699 
L 362.971524 219.414108 
L 364.909792 247.679543 
L 366.912669 238.257731 
L 368.850937 242.026456 
L 370.853813 254.463247 
L 372.85669 259.739462 
L 374.66574 266.523166 
L 376.668617 287.251152 
L 378.606885 283.8593 
L 380.609761 309.8635 
L 382.548029 265.392549 
L 384.550906 266.900039 
L 386.553783 261.246952 
L 388.49205 268.407529 
L 390.494927 266.523166 
L 392.433195 266.523166 
L 394.436072 298.934198 
L 396.438948 272.553126 
L 398.312607 286.874279 
L 400.315484 287.251152 
L 402.253752 265.392549 
L 404.256628 264.638804 
L 406.194896 256.34761 
L 408.197773 257.478227 
L 410.20065 265.015676 
L 412.138917 266.146294 
L 414.141794 267.276911 
L 416.080062 286.874279 
L 418.082939 272.176253 
L 420.085815 286.874279 
L 421.894865 284.236172 
L 423.897742 288.381769 
L 425.83601 289.135514 
L 427.838886 279.713703 
L 429.777154 272.176253 
L 431.780031 266.523166 
L 433.782908 255.216992 
L 435.721175 309.8635 
L 437.724052 309.8635 
L 439.66232 287.251152 
L 441.665197 301.572306 
L 443.668073 274.060616 
L 445.477123 291.019877 
L 447.48 291.019877 
L 447.48 221.675343 
L 447.48 221.675343 
L 445.477123 211.876658 
L 443.668073 163.636983 
L 441.665197 221.29847 
L 439.66232 222.052215 
L 437.724052 220.167853 
L 435.721175 129.71846 
L 433.782908 120.673521 
L 431.780031 127.080353 
L 429.777154 119.166031 
L 427.838886 134.617802 
L 425.83601 221.675343 
L 423.897742 161.375748 
L 421.894865 155.345788 
L 420.085815 149.315829 
L 418.082939 148.562084 
L 416.080062 148.938956 
L 414.141794 148.185211 
L 412.138917 149.315829 
L 410.20065 120.673521 
L 408.197773 123.311628 
L 406.194896 120.296649 
L 404.256628 133.487185 
L 402.253752 148.562084 
L 400.315484 151.577064 
L 398.312607 150.446446 
L 396.438948 148.185211 
L 394.436072 147.808339 
L 392.433195 148.185211 
L 390.494927 148.185211 
L 388.49205 148.562084 
L 386.553783 119.919776 
L 384.550906 117.281669 
L 382.548029 116.151052 
L 380.609761 151.200191 
L 378.606885 218.28349 
L 376.668617 150.823319 
L 374.66574 148.185211 
L 372.85669 148.185211 
L 370.853813 148.185211 
L 368.850937 147.808339 
L 366.912669 160.24513 
L 364.909792 148.562084 
L 362.971524 148.562084 
L 360.968648 148.562084 
L 358.965771 138.386527 
L 357.027503 147.808339 
L 355.024626 153.084553 
L 353.086359 163.26011 
L 351.083482 147.808339 
L 349.274432 147.808339 
L 347.271555 147.431466 
L 345.268679 154.215171 
L 343.330411 156.476406 
L 341.327534 149.692701 
L 339.389266 146.300849 
L 337.38639 121.427266 
L 335.383513 116.904797 
L 333.445245 149.692701 
L 331.442368 148.562084 
L 329.504101 164.390727 
L 327.501224 163.636983 
L 325.692174 148.938956 
L 323.689297 165.144472 
L 321.686421 182.480606 
L 319.748153 170.797559 
L 317.745276 154.592043 
L 315.807008 142.908997 
L 313.804132 148.562084 
L 311.801255 164.013855 
L 309.862987 161.375748 
L 307.86011 237.880859 
L 305.921842 203.208592 
L 303.918966 188.887438 
L 302.045307 186.249331 
L 300.04243 183.234351 
L 298.039553 176.827519 
L 296.101286 151.200191 
L 294.098409 150.446446 
L 292.160141 147.431466 
L 290.157264 150.446446 
L 288.154388 150.069574 
L 286.21612 163.636983 
L 284.213243 232.981517 
L 282.274975 190.018055 
L 280.272099 151.200191 
L 278.463049 150.446446 
L 276.460172 153.838298 
L 274.457295 153.461426 
L 272.519028 148.938956 
L 270.516151 148.185211 
L 268.577883 122.181011 
L 266.575006 143.285869 
L 264.57213 147.054594 
L 262.633862 150.446446 
L 260.630985 165.898217 
L 258.692717 176.073774 
L 256.689841 173.812539 
L 254.880791 158.360768 
L 252.877914 150.823319 
L 250.875037 153.084553 
L 248.93677 148.185211 
L 246.933893 148.562084 
L 244.995625 145.547104 
L 242.992748 117.658541 
L 240.989872 148.938956 
L 239.051604 147.431466 
L 237.048727 196.80176 
L 235.110459 164.7676 
L 233.107583 163.636983 
L 231.298533 162.883238 
L 229.295656 155.722661 
L 227.292779 157.983895 
L 225.354511 128.210971 
L 223.351635 115.020434 
L 221.413367 109.74422 
L 219.41049 114.643562 
L 217.407613 125.949736 
L 215.469346 146.677721 
L 213.466469 155.722661 
L 211.528201 162.129493 
L 209.525324 147.054594 
L 207.651666 147.054594 
L 205.648789 146.300849 
L 203.645912 148.185211 
L 201.707644 124.819118 
L 199.704768 120.296649 
L 197.7665 119.166031 
L 195.763623 114.266689 
L 193.760746 113.512944 
L 191.822479 141.024634 
L 189.819602 147.431466 
L 187.881334 150.823319 
L 185.878457 151.953936 
L 184.069408 144.416487 
L 182.066531 147.054594 
L 180.063654 146.677721 
L 178.125386 135.371547 
L 176.12251 126.326608 
L 174.184242 115.774179 
L 172.181365 115.020434 
L 170.178488 116.527924 
L 168.240221 145.923977 
L 166.237344 148.938956 
L 164.299076 155.722661 
L 162.296199 154.592043 
L 160.487149 148.185211 
L 158.484273 145.923977 
L 156.481396 37.007833 
L 154.543128 144.039614 
L 152.540251 115.020434 
L 150.601984 114.266689 
L 148.599107 114.266689 
L 146.59623 109.74422 
L 144.657962 142.908997 
L 142.655086 154.215171 
L 140.716818 160.24513 
L 138.713941 153.838298 
L 136.904891 147.808339 
L 134.902015 148.185211 
L 132.899138 146.300849 
L 130.96087 146.677721 
L 128.957993 146.300849 
L 127.019726 115.397307 
L 125.016849 115.020434 
L 123.013972 114.643562 
L 121.075704 147.054594 
L 119.072828 214.137893 
L 117.13456 155.722661 
L 115.131683 157.230151 
L 113.258024 150.446446 
L 111.255148 149.692701 
L 109.252271 149.692701 
L 107.314003 121.050394 
L 105.311126 118.412286 
L 103.372859 122.181011 
L 101.369982 119.919776 
L 99.367105 119.919776 
L 97.428837 121.804139 
L 95.425961 126.326608 
L 93.487693 146.300849 
L 91.484816 145.547104 
L 89.675766 146.300849 
L 87.672889 147.054594 
L 85.670013 154.968916 
L 83.731745 133.487185 
L 81.728868 131.22595 
L 79.7906 131.979695 
L 77.787724 133.110313 
L 75.784847 129.71846 
L 73.846579 131.979695 
L 71.843703 138.009655 
L 69.905435 138.7634 
L 67.902558 145.923977 
L 66.093508 159.868258 
L 64.090631 159.114513 
L 62.087755 158.360768 
L 60.149487 132.73344 
L 58.14661 127.457226 
L 56.208342 127.457226 
L 54.205466 129.71846 
L 52.202589 124.819118 
L 50.264321 127.457226 
L 48.261444 131.602823 
L 46.323177 144.793359 
L 44.3203 155.722661 
L 42.51125 133.487185 
z
" style="fill:#808080;fill-opacity:0.3;"/>
   </g>
   <g id="PolyCollection_2">
    <path clip-path="url(#p9e94e31318)" d="M 42.51125 162.129493 
L 42.51125 164.013855 
L 44.3203 163.636983 
L 46.323177 204.339209 
L 48.261444 208.955897 
L 50.264321 160.622003 
L 52.202589 164.108073 
L 54.205466 162.129493 
L 56.208342 157.230151 
L 58.14661 174.189412 
L 60.149487 193.504126 
L 62.087755 203.30281 
L 64.090631 192.27929 
L 66.093508 188.510565 
L 67.902558 169.384288 
L 69.905435 211.594004 
L 71.843703 193.78678 
L 73.846579 180.596244 
L 75.784847 220.167853 
L 77.787724 217.529745 
L 79.7906 201.701102 
L 81.728868 202.454847 
L 83.731745 220.921598 
L 85.670013 208.107934 
L 87.672889 169.666942 
L 89.675766 167.876798 
L 91.484816 165.521345 
L 93.487693 207.448407 
L 95.425961 199.062994 
L 97.428837 178.335009 
L 99.367105 167.499925 
L 101.369982 157.983895 
L 103.372859 164.013855 
L 105.311126 158.360768 
L 107.314003 168.913197 
L 109.252271 186.626203 
L 111.255148 170.043814 
L 113.258024 167.028835 
L 115.131683 166.74618 
L 117.13456 236.373369 
L 119.072828 236.750241 
L 121.075704 170.514905 
L 123.013972 164.390727 
L 125.016849 163.26011 
L 127.019726 165.521345 
L 128.957993 170.797559 
L 130.96087 169.666942 
L 132.899138 164.7676 
L 134.902015 165.144472 
L 136.904891 166.369308 
L 138.713941 168.536325 
L 140.716818 172.681922 
L 142.655086 164.390727 
L 144.657962 167.123053 
L 146.59623 164.390727 
L 148.599107 157.983895 
L 150.601984 162.883238 
L 152.540251 165.23869 
L 154.543128 236.373369 
L 156.481396 236.373369 
L 158.484273 164.390727 
L 160.487149 166.74618 
L 162.296199 164.390727 
L 164.299076 164.7676 
L 166.237344 167.028835 
L 168.240221 165.898217 
L 170.178488 164.013855 
L 172.181365 166.651962 
L 174.184242 164.390727 
L 176.12251 165.898217 
L 178.125386 237.127114 
L 180.063654 237.880859 
L 182.066531 170.514905 
L 184.069408 165.144472 
L 185.878457 164.484946 
L 187.881334 165.898217 
L 189.819602 167.028835 
L 191.822479 165.144472 
L 193.760746 166.651962 
L 195.763623 164.861818 
L 197.7665 166.27509 
L 199.704768 165.521345 
L 201.707644 165.898217 
L 203.645912 167.028835 
L 205.648789 166.651962 
L 207.651666 165.144472 
L 209.525324 164.390727 
L 211.528201 237.880859 
L 213.466469 237.503986 
L 215.469346 165.898217 
L 217.407613 167.499925 
L 219.41049 167.028835 
L 221.413367 164.013855 
L 223.351635 165.521345 
L 225.354511 174.943157 
L 227.292779 184.836059 
L 229.295656 176.073774 
L 231.298533 187.379948 
L 233.107583 199.816739 
L 235.110459 253.33263 
L 237.048727 248.433288 
L 239.051604 241.272711 
L 240.989872 235.336969 
L 242.992748 196.519105 
L 244.995625 208.579024 
L 246.933893 224.690322 
L 248.93677 222.052215 
L 250.875037 256.724482 
L 252.877914 229.966537 
L 254.880791 214.137893 
L 256.689841 200.947357 
L 258.692717 295.542346 
L 260.630985 243.157073 
L 262.633862 231.097154 
L 264.57213 215.645383 
L 266.575006 199.157213 
L 268.577883 215.739601 
L 270.516151 217.906618 
L 272.519028 233.735262 
L 274.457295 231.097154 
L 276.460172 227.705302 
L 278.463049 216.493346 
L 280.272099 228.082174 
L 282.274975 256.34761 
L 284.213243 259.739462 
L 286.21612 244.664563 
L 288.154388 225.538285 
L 290.157264 206.600444 
L 292.160141 194.540525 
L 294.098409 214.514766 
L 296.101286 229.683882 
L 298.039553 237.127114 
L 300.04243 230.720282 
L 302.045307 241.272711 
L 303.918966 246.172053 
L 305.921842 286.120535 
L 307.86011 284.236172 
L 309.862987 256.064955 
L 311.801255 248.81016 
L 313.804132 229.966537 
L 315.807008 219.037235 
L 317.745276 229.589664 
L 319.748153 237.975077 
L 321.686421 232.604644 
L 323.689297 233.075735 
L 325.692174 215.645383 
L 327.501224 228.835919 
L 329.504101 221.29847 
L 331.442368 218.28349 
L 333.445245 225.067195 
L 335.383513 195.29427 
L 337.38639 188.981656 
L 339.389266 194.257871 
L 341.327534 226.574685 
L 343.330411 240.518966 
L 345.268679 213.384148 
L 347.271555 182.103733 
L 349.274432 185.118713 
L 351.083482 178.711881 
L 353.086359 239.105694 
L 355.024626 238.634604 
L 357.027503 194.163652 
L 358.965771 180.690462 
L 360.968648 172.305049 
L 362.971524 180.219371 
L 364.909792 172.305049 
L 366.912669 177.581264 
L 368.850937 175.320029 
L 370.853813 212.724621 
L 372.85669 227.516866 
L 374.66574 243.533946 
L 376.668617 264.261931 
L 378.606885 270.291891 
L 380.609761 269.915018 
L 382.548029 222.052215 
L 384.550906 200.28783 
L 386.553783 202.549065 
L 388.49205 233.735262 
L 390.494927 242.026456 
L 392.433195 248.81016 
L 394.436072 246.172053 
L 396.438948 244.664563 
L 398.312607 254.463247 
L 400.315484 248.81016 
L 402.253752 246.548925 
L 404.256628 241.743801 
L 406.194896 217.152873 
L 408.197773 199.062994 
L 410.20065 200.570484 
L 412.138917 214.891638 
L 414.141794 227.705302 
L 416.080062 265.015676 
L 418.082939 226.574685 
L 420.085815 219.508326 
L 421.894865 249.940778 
L 423.897742 268.784401 
L 425.83601 270.009237 
L 427.838886 242.780201 
L 429.777154 222.429087 
L 431.780031 215.268511 
L 433.782908 205.28139 
L 435.721175 262.754442 
L 437.724052 268.407529 
L 439.66232 267.748002 
L 441.665197 267.653784 
L 443.668073 253.33263 
L 445.477123 267.748002 
L 447.48 277.82934 
L 447.48 243.157073 
L 447.48 243.157073 
L 445.477123 241.932238 
L 443.668073 235.242751 
L 441.665197 239.011476 
L 439.66232 240.518966 
L 437.724052 239.671003 
L 435.721175 230.249191 
L 433.782908 154.78048 
L 431.780031 166.180872 
L 429.777154 160.527785 
L 427.838886 203.491246 
L 425.83601 241.178493 
L 423.897742 240.047875 
L 421.894865 215.268511 
L 420.085815 172.681922 
L 418.082939 175.696901 
L 416.080062 230.343409 
L 414.141794 175.696901 
L 412.138917 175.602683 
L 410.20065 158.360768 
L 408.197773 149.315829 
L 406.194896 149.598483 
L 404.256628 192.373508 
L 402.253752 205.375608 
L 400.315484 220.073635 
L 398.312607 227.32843 
L 396.438948 200.476266 
L 394.436072 193.033035 
L 392.433195 212.81884 
L 390.494927 181.632643 
L 388.49205 168.913197 
L 386.553783 152.613463 
L 384.550906 164.390727 
L 382.548029 156.476406 
L 380.609761 240.518966 
L 378.606885 244.287691 
L 376.668617 228.835919 
L 374.66574 191.808199 
L 372.85669 170.043814 
L 370.853813 166.27509 
L 368.850937 163.26011 
L 366.912669 165.144472 
L 364.909792 163.919637 
L 362.971524 164.7676 
L 360.968648 163.636983 
L 358.965771 163.636983 
L 357.027503 164.013855 
L 355.024626 172.681922 
L 353.086359 234.30057 
L 351.083482 163.542764 
L 349.274432 165.898217 
L 347.271555 164.390727 
L 345.268679 169.666942 
L 343.330411 197.743941 
L 341.327534 183.234351 
L 339.389266 163.26011 
L 337.38639 163.26011 
L 335.383513 163.26011 
L 333.445245 185.401368 
L 331.442368 199.816739 
L 329.504101 204.339209 
L 327.501224 202.360629 
L 325.692174 192.656163 
L 323.689297 212.630403 
L 321.686421 218.28349 
L 319.748153 212.630403 
L 317.745276 194.446307 
L 315.807008 169.949596 
L 313.804132 192.561944 
L 311.801255 216.022256 
L 309.862987 221.204252 
L 307.86011 272.83578 
L 305.921842 274.437488 
L 303.918966 221.675343 
L 302.045307 219.79098 
L 300.04243 207.731061 
L 298.039553 220.544725 
L 296.101286 199.439867 
L 294.098409 173.812539 
L 292.160141 164.7676 
L 290.157264 166.27509 
L 288.154388 174.095193 
L 286.21612 214.137893 
L 284.213243 246.925798 
L 282.274975 234.865879 
L 280.272099 203.208592 
L 278.463049 183.611223 
L 276.460172 179.465626 
L 274.457295 186.249331 
L 272.519028 180.502025 
L 270.516151 164.7676 
L 268.577883 164.390727 
L 266.575006 161.375748 
L 264.57213 164.013855 
L 262.633862 177.110173 
L 260.630985 199.345649 
L 258.692717 232.604644 
L 256.689841 185.495586 
L 254.880791 183.988096 
L 252.877914 187.28573 
L 250.875037 224.690322 
L 248.93677 178.240791 
L 246.933893 180.407807 
L 244.995625 164.7676 
L 242.992748 147.714121 
L 240.989872 197.178632 
L 239.051604 209.521205 
L 237.048727 239.765221 
L 235.110459 238.634604 
L 233.107583 168.159452 
L 231.298533 167.405707 
L 229.295656 165.898217 
L 227.292779 165.898217 
L 225.354511 163.26011 
L 223.351635 149.975356 
L 221.413367 146.206631 
L 219.41049 154.120953 
L 217.407613 160.998875 
L 215.469346 162.506365 
L 213.466469 224.31345 
L 211.528201 235.619624 
L 209.525324 162.506365 
L 207.651666 162.506365 
L 205.648789 162.506365 
L 203.645912 162.883238 
L 201.707644 159.868258 
L 199.704768 147.808339 
L 197.7665 139.894017 
L 195.763623 137.915437 
L 193.760746 147.054594 
L 191.822479 160.622003 
L 189.819602 162.506365 
L 187.881334 162.883238 
L 185.878457 162.883238 
L 184.069408 162.506365 
L 182.066531 162.883238 
L 180.063654 211.31135 
L 178.125386 165.144472 
L 176.12251 156.476406 
L 174.184242 142.437906 
L 172.181365 139.894017 
L 170.178488 147.808339 
L 168.240221 163.26011 
L 166.237344 163.26011 
L 164.299076 163.26011 
L 162.296199 163.26011 
L 160.487149 163.26011 
L 158.484273 162.883238 
L 156.481396 231.662463 
L 154.543128 163.636983 
L 152.540251 148.185211 
L 150.601984 137.632782 
L 148.599107 138.009655 
L 146.59623 146.677721 
L 144.657962 162.506365 
L 142.655086 162.506365 
L 140.716818 162.883238 
L 138.713941 162.883238 
L 136.904891 162.883238 
L 134.902015 162.883238 
L 132.899138 162.883238 
L 130.96087 162.883238 
L 128.957993 161.75262 
L 127.019726 145.452886 
L 125.016849 145.170232 
L 123.013972 147.431466 
L 121.075704 162.883238 
L 119.072828 223.182832 
L 117.13456 163.636983 
L 115.131683 162.883238 
L 113.258024 162.506365 
L 111.255148 165.521345 
L 109.252271 165.898217 
L 107.314003 159.77404 
L 105.311126 145.452886 
L 103.372859 147.431466 
L 101.369982 131.979695 
L 99.367105 144.039614 
L 97.428837 157.230151 
L 95.425961 160.24513 
L 93.487693 191.525545 
L 91.484816 162.129493 
L 89.675766 162.883238 
L 87.672889 163.636983 
L 85.670013 172.305049 
L 83.731745 206.977316 
L 81.728868 136.502165 
L 79.7906 137.25591 
L 77.787724 163.26011 
L 75.784847 138.009655 
L 73.846579 151.577064 
L 71.843703 162.883238 
L 69.905435 162.506365 
L 67.902558 162.129493 
L 66.093508 164.013855 
L 64.090631 162.883238 
L 62.087755 162.506365 
L 60.149487 154.215171 
L 58.14661 136.125292 
L 56.208342 135.74842 
L 54.205466 139.894017 
L 52.202589 132.73344 
L 50.264321 134.24093 
L 48.261444 178.523445 
L 46.323177 162.506365 
L 44.3203 162.506365 
L 42.51125 162.129493 
z
" style="fill:#808080;fill-opacity:0.6;"/>
   </g>
   <g id="matplotlib.axis_1">
    <g id="xtick_1">
     <g id="line2d_1">
      <path clip-path="url(#p9e94e31318)" d="M 87.737498 309.8635 
L 87.737498 23.36505 
" style="fill:none;stroke:#b0b0b0;stroke-linecap:square;stroke-width:0.8;"/>
     </g>
     <g id="line2d_2">
      <defs>
       <path d="M 0 0 
L 0 3.5 
" id="m602dceb981" style="stroke:#000000;stroke-width:0.8;"/>
      </defs>
      <g>
       <use style="stroke:#000000;stroke-width:0.8;" x="87.737498" xlink:href="#m602dceb981" y="309.8635"/>
      </g>
     </g>
     <g id="text_1">
      <!-- 2003 -->
      <defs>
       <path d="M 19.1875 8.296875 
L 53.609375 8.296875 
L 53.609375 0 
L 7.328125 0 
L 7.328125 8.296875 
Q 12.9375 14.109375 22.625 23.890625 
Q 32.328125 33.6875 34.8125 36.53125 
Q 39.546875 41.84375 41.421875 45.53125 
Q 43.3125 49.21875 43.3125 52.78125 
Q 43.3125 58.59375 39.234375 62.25 
Q 35.15625 65.921875 28.609375 65.921875 
Q 23.96875 65.921875 18.8125 64.3125 
Q 13.671875 62.703125 7.8125 59.421875 
L 7.8125 69.390625 
Q 13.765625 71.78125 18.9375 73 
Q 24.125 74.21875 28.421875 74.21875 
Q 39.75 74.21875 46.484375 68.546875 
Q 53.21875 62.890625 53.21875 53.421875 
Q 53.21875 48.921875 51.53125 44.890625 
Q 49.859375 40.875 45.40625 35.40625 
Q 44.1875 33.984375 37.640625 27.21875 
Q 31.109375 20.453125 19.1875 8.296875 
z
" id="DejaVuSans-32"/>
       <path d="M 31.78125 66.40625 
Q 24.171875 66.40625 20.328125 58.90625 
Q 16.5 51.421875 16.5 36.375 
Q 16.5 21.390625 20.328125 13.890625 
Q 24.171875 6.390625 31.78125 6.390625 
Q 39.453125 6.390625 43.28125 13.890625 
Q 47.125 21.390625 47.125 36.375 
Q 47.125 51.421875 43.28125 58.90625 
Q 39.453125 66.40625 31.78125 66.40625 
z
M 31.78125 74.21875 
Q 44.046875 74.21875 50.515625 64.515625 
Q 56.984375 54.828125 56.984375 36.375 
Q 56.984375 17.96875 50.515625 8.265625 
Q 44.046875 -1.421875 31.78125 -1.421875 
Q 19.53125 -1.421875 13.0625 8.265625 
Q 6.59375 17.96875 6.59375 36.375 
Q 6.59375 54.828125 13.0625 64.515625 
Q 19.53125 74.21875 31.78125 74.21875 
z
" id="DejaVuSans-30"/>
       <path d="M 40.578125 39.3125 
Q 47.65625 37.796875 51.625 33 
Q 55.609375 28.21875 55.609375 21.1875 
Q 55.609375 10.40625 48.1875 4.484375 
Q 40.765625 -1.421875 27.09375 -1.421875 
Q 22.515625 -1.421875 17.65625 -0.515625 
Q 12.796875 0.390625 7.625 2.203125 
L 7.625 11.71875 
Q 11.71875 9.328125 16.59375 8.109375 
Q 21.484375 6.890625 26.8125 6.890625 
Q 36.078125 6.890625 40.9375 10.546875 
Q 45.796875 14.203125 45.796875 21.1875 
Q 45.796875 27.640625 41.28125 31.265625 
Q 36.765625 34.90625 28.71875 34.90625 
L 20.21875 34.90625 
L 20.21875 43.015625 
L 29.109375 43.015625 
Q 36.375 43.015625 40.234375 45.921875 
Q 44.09375 48.828125 44.09375 54.296875 
Q 44.09375 59.90625 40.109375 62.90625 
Q 36.140625 65.921875 28.71875 65.921875 
Q 24.65625 65.921875 20.015625 65.03125 
Q 15.375 64.15625 9.8125 62.3125 
L 9.8125 71.09375 
Q 15.4375 72.65625 20.34375 73.4375 
Q 25.25 74.21875 29.59375 74.21875 
Q 40.828125 74.21875 47.359375 69.109375 
Q 53.90625 64.015625 53.90625 55.328125 
Q 53.90625 49.265625 50.4375 45.09375 
Q 46.96875 40.921875 40.578125 39.3125 
z
" id="DejaVuSans-33"/>
      </defs>
      <g transform="translate(75.012498 324.461937)scale(0.1 -0.1)">
       <use xlink:href="#DejaVuSans-32"/>
       <use x="63.623047" xlink:href="#DejaVuSans-30"/>
       <use x="127.246094" xlink:href="#DejaVuSans-30"/>
       <use x="190.869141" xlink:href="#DejaVuSans-33"/>
      </g>
     </g>
    </g>
    <g id="xtick_2">
     <g id="line2d_3">
      <path clip-path="url(#p9e94e31318)" d="M 134.966624 309.8635 
L 134.966624 23.36505 
" style="fill:none;stroke:#b0b0b0;stroke-linecap:square;stroke-width:0.8;"/>
     </g>
     <g id="line2d_4">
      <g>
       <use style="stroke:#000000;stroke-width:0.8;" x="134.966624" xlink:href="#m602dceb981" y="309.8635"/>
      </g>
     </g>
     <g id="text_2">
      <!-- 2005 -->
      <defs>
       <path d="M 10.796875 72.90625 
L 49.515625 72.90625 
L 49.515625 64.59375 
L 19.828125 64.59375 
L 19.828125 46.734375 
Q 21.96875 47.46875 24.109375 47.828125 
Q 26.265625 48.1875 28.421875 48.1875 
Q 40.625 48.1875 47.75 41.5 
Q 54.890625 34.8125 54.890625 23.390625 
Q 54.890625 11.625 47.5625 5.09375 
Q 40.234375 -1.421875 26.90625 -1.421875 
Q 22.3125 -1.421875 17.546875 -0.640625 
Q 12.796875 0.140625 7.71875 1.703125 
L 7.71875 11.625 
Q 12.109375 9.234375 16.796875 8.0625 
Q 21.484375 6.890625 26.703125 6.890625 
Q 35.15625 6.890625 40.078125 11.328125 
Q 45.015625 15.765625 45.015625 23.390625 
Q 45.015625 31 40.078125 35.4375 
Q 35.15625 39.890625 26.703125 39.890625 
Q 22.75 39.890625 18.8125 39.015625 
Q 14.890625 38.140625 10.796875 36.28125 
z
" id="DejaVuSans-35"/>
      </defs>
      <g transform="translate(122.241624 324.461937)scale(0.1 -0.1)">
       <use xlink:href="#DejaVuSans-32"/>
       <use x="63.623047" xlink:href="#DejaVuSans-30"/>
       <use x="127.246094" xlink:href="#DejaVuSans-30"/>
       <use x="190.869141" xlink:href="#DejaVuSans-35"/>
      </g>
     </g>
    </g>
    <g id="xtick_3">
     <g id="line2d_5">
      <path clip-path="url(#p9e94e31318)" d="M 182.13114 309.8635 
L 182.13114 23.36505 
" style="fill:none;stroke:#b0b0b0;stroke-linecap:square;stroke-width:0.8;"/>
     </g>
     <g id="line2d_6">
      <g>
       <use style="stroke:#000000;stroke-width:0.8;" x="182.13114" xlink:href="#m602dceb981" y="309.8635"/>
      </g>
     </g>
     <g id="text_3">
      <!-- 2007 -->
      <defs>
       <path d="M 8.203125 72.90625 
L 55.078125 72.90625 
L 55.078125 68.703125 
L 28.609375 0 
L 18.3125 0 
L 43.21875 64.59375 
L 8.203125 64.59375 
z
" id="DejaVuSans-37"/>
      </defs>
      <g transform="translate(169.40614 324.461937)scale(0.1 -0.1)">
       <use xlink:href="#DejaVuSans-32"/>
       <use x="63.623047" xlink:href="#DejaVuSans-30"/>
       <use x="127.246094" xlink:href="#DejaVuSans-30"/>
       <use x="190.869141" xlink:href="#DejaVuSans-37"/>
      </g>
     </g>
    </g>
    <g id="xtick_4">
     <g id="line2d_7">
      <path clip-path="url(#p9e94e31318)" d="M 229.360265 309.8635 
L 229.360265 23.36505 
" style="fill:none;stroke:#b0b0b0;stroke-linecap:square;stroke-width:0.8;"/>
     </g>
     <g id="line2d_8">
      <g>
       <use style="stroke:#000000;stroke-width:0.8;" x="229.360265" xlink:href="#m602dceb981" y="309.8635"/>
      </g>
     </g>
     <g id="text_4">
      <!-- 2009 -->
      <defs>
       <path d="M 10.984375 1.515625 
L 10.984375 10.5 
Q 14.703125 8.734375 18.5 7.8125 
Q 22.3125 6.890625 25.984375 6.890625 
Q 35.75 6.890625 40.890625 13.453125 
Q 46.046875 20.015625 46.78125 33.40625 
Q 43.953125 29.203125 39.59375 26.953125 
Q 35.25 24.703125 29.984375 24.703125 
Q 19.046875 24.703125 12.671875 31.3125 
Q 6.296875 37.9375 6.296875 49.421875 
Q 6.296875 60.640625 12.9375 67.421875 
Q 19.578125 74.21875 30.609375 74.21875 
Q 43.265625 74.21875 49.921875 64.515625 
Q 56.59375 54.828125 56.59375 36.375 
Q 56.59375 19.140625 48.40625 8.859375 
Q 40.234375 -1.421875 26.421875 -1.421875 
Q 22.703125 -1.421875 18.890625 -0.6875 
Q 15.09375 0.046875 10.984375 1.515625 
z
M 30.609375 32.421875 
Q 37.25 32.421875 41.125 36.953125 
Q 45.015625 41.5 45.015625 49.421875 
Q 45.015625 57.28125 41.125 61.84375 
Q 37.25 66.40625 30.609375 66.40625 
Q 23.96875 66.40625 20.09375 61.84375 
Q 16.21875 57.28125 16.21875 49.421875 
Q 16.21875 41.5 20.09375 36.953125 
Q 23.96875 32.421875 30.609375 32.421875 
z
" id="DejaVuSans-39"/>
      </defs>
      <g transform="translate(216.635265 324.461937)scale(0.1 -0.1)">
       <use xlink:href="#DejaVuSans-32"/>
       <use x="63.623047" xlink:href="#DejaVuSans-30"/>
       <use x="127.246094" xlink:href="#DejaVuSans-30"/>
       <use x="190.869141" xlink:href="#DejaVuSans-39"/>
      </g>
     </g>
    </g>
    <g id="xtick_5">
     <g id="line2d_9">
      <path clip-path="url(#p9e94e31318)" d="M 276.524781 309.8635 
L 276.524781 23.36505 
" style="fill:none;stroke:#b0b0b0;stroke-linecap:square;stroke-width:0.8;"/>
     </g>
     <g id="line2d_10">
      <g>
       <use style="stroke:#000000;stroke-width:0.8;" x="276.524781" xlink:href="#m602dceb981" y="309.8635"/>
      </g>
     </g>
     <g id="text_5">
      <!-- 2011 -->
      <defs>
       <path d="M 12.40625 8.296875 
L 28.515625 8.296875 
L 28.515625 63.921875 
L 10.984375 60.40625 
L 10.984375 69.390625 
L 28.421875 72.90625 
L 38.28125 72.90625 
L 38.28125 8.296875 
L 54.390625 8.296875 
L 54.390625 0 
L 12.40625 0 
z
" id="DejaVuSans-31"/>
      </defs>
      <g transform="translate(263.799781 324.461937)scale(0.1 -0.1)">
       <use xlink:href="#DejaVuSans-32"/>
       <use x="63.623047" xlink:href="#DejaVuSans-30"/>
       <use x="127.246094" xlink:href="#DejaVuSans-31"/>
       <use x="190.869141" xlink:href="#DejaVuSans-31"/>
      </g>
     </g>
    </g>
    <g id="xtick_6">
     <g id="line2d_11">
      <path clip-path="url(#p9e94e31318)" d="M 323.753906 309.8635 
L 323.753906 23.36505 
" style="fill:none;stroke:#b0b0b0;stroke-linecap:square;stroke-width:0.8;"/>
     </g>
     <g id="line2d_12">
      <g>
       <use style="stroke:#000000;stroke-width:0.8;" x="323.753906" xlink:href="#m602dceb981" y="309.8635"/>
      </g>
     </g>
     <g id="text_6">
      <!-- 2013 -->
      <g transform="translate(311.028906 324.461937)scale(0.1 -0.1)">
       <use xlink:href="#DejaVuSans-32"/>
       <use x="63.623047" xlink:href="#DejaVuSans-30"/>
       <use x="127.246094" xlink:href="#DejaVuSans-31"/>
       <use x="190.869141" xlink:href="#DejaVuSans-33"/>
      </g>
     </g>
    </g>
    <g id="xtick_7">
     <g id="line2d_13">
      <path clip-path="url(#p9e94e31318)" d="M 370.918422 309.8635 
L 370.918422 23.36505 
" style="fill:none;stroke:#b0b0b0;stroke-linecap:square;stroke-width:0.8;"/>
     </g>
     <g id="line2d_14">
      <g>
       <use style="stroke:#000000;stroke-width:0.8;" x="370.918422" xlink:href="#m602dceb981" y="309.8635"/>
      </g>
     </g>
     <g id="text_7">
      <!-- 2015 -->
      <g transform="translate(358.193422 324.461937)scale(0.1 -0.1)">
       <use xlink:href="#DejaVuSans-32"/>
       <use x="63.623047" xlink:href="#DejaVuSans-30"/>
       <use x="127.246094" xlink:href="#DejaVuSans-31"/>
       <use x="190.869141" xlink:href="#DejaVuSans-35"/>
      </g>
     </g>
    </g>
    <g id="xtick_8">
     <g id="line2d_15">
      <path clip-path="url(#p9e94e31318)" d="M 418.147547 309.8635 
L 418.147547 23.36505 
" style="fill:none;stroke:#b0b0b0;stroke-linecap:square;stroke-width:0.8;"/>
     </g>
     <g id="line2d_16">
      <g>
       <use style="stroke:#000000;stroke-width:0.8;" x="418.147547" xlink:href="#m602dceb981" y="309.8635"/>
      </g>
     </g>
     <g id="text_8">
      <!-- 2017 -->
      <g transform="translate(405.422547 324.461937)scale(0.1 -0.1)">
       <use xlink:href="#DejaVuSans-32"/>
       <use x="63.623047" xlink:href="#DejaVuSans-30"/>
       <use x="127.246094" xlink:href="#DejaVuSans-31"/>
       <use x="190.869141" xlink:href="#DejaVuSans-37"/>
      </g>
     </g>
    </g>
    <g id="text_9">
     <!-- Date -->
     <defs>
      <path d="M 19.671875 64.796875 
L 19.671875 8.109375 
L 31.59375 8.109375 
Q 46.6875 8.109375 53.6875 14.9375 
Q 60.6875 21.78125 60.6875 36.53125 
Q 60.6875 51.171875 53.6875 57.984375 
Q 46.6875 64.796875 31.59375 64.796875 
z
M 9.8125 72.90625 
L 30.078125 72.90625 
Q 51.265625 72.90625 61.171875 64.09375 
Q 71.09375 55.28125 71.09375 36.53125 
Q 71.09375 17.671875 61.125 8.828125 
Q 51.171875 0 30.078125 0 
L 9.8125 0 
z
" id="DejaVuSans-44"/>
      <path d="M 34.28125 27.484375 
Q 23.390625 27.484375 19.1875 25 
Q 14.984375 22.515625 14.984375 16.5 
Q 14.984375 11.71875 18.140625 8.90625 
Q 21.296875 6.109375 26.703125 6.109375 
Q 34.1875 6.109375 38.703125 11.40625 
Q 43.21875 16.703125 43.21875 25.484375 
L 43.21875 27.484375 
z
M 52.203125 31.203125 
L 52.203125 0 
L 43.21875 0 
L 43.21875 8.296875 
Q 40.140625 3.328125 35.546875 0.953125 
Q 30.953125 -1.421875 24.3125 -1.421875 
Q 15.921875 -1.421875 10.953125 3.296875 
Q 6 8.015625 6 15.921875 
Q 6 25.140625 12.171875 29.828125 
Q 18.359375 34.515625 30.609375 34.515625 
L 43.21875 34.515625 
L 43.21875 35.40625 
Q 43.21875 41.609375 39.140625 45 
Q 35.0625 48.390625 27.6875 48.390625 
Q 23 48.390625 18.546875 47.265625 
Q 14.109375 46.140625 10.015625 43.890625 
L 10.015625 52.203125 
Q 14.9375 54.109375 19.578125 55.046875 
Q 24.21875 56 28.609375 56 
Q 40.484375 56 46.34375 49.84375 
Q 52.203125 43.703125 52.203125 31.203125 
z
" id="DejaVuSans-61"/>
      <path d="M 18.3125 70.21875 
L 18.3125 54.6875 
L 36.8125 54.6875 
L 36.8125 47.703125 
L 18.3125 47.703125 
L 18.3125 18.015625 
Q 18.3125 11.328125 20.140625 9.421875 
Q 21.96875 7.515625 27.59375 7.515625 
L 36.8125 7.515625 
L 36.8125 0 
L 27.59375 0 
Q 17.1875 0 13.234375 3.875 
Q 9.28125 7.765625 9.28125 18.015625 
L 9.28125 47.703125 
L 2.6875 47.703125 
L 2.6875 54.6875 
L 9.28125 54.6875 
L 9.28125 70.21875 
z
" id="DejaVuSans-74"/>
      <path d="M 56.203125 29.59375 
L 56.203125 25.203125 
L 14.890625 25.203125 
Q 15.484375 15.921875 20.484375 11.0625 
Q 25.484375 6.203125 34.421875 6.203125 
Q 39.59375 6.203125 44.453125 7.46875 
Q 49.3125 8.734375 54.109375 11.28125 
L 54.109375 2.78125 
Q 49.265625 0.734375 44.1875 -0.34375 
Q 39.109375 -1.421875 33.890625 -1.421875 
Q 20.796875 -1.421875 13.15625 6.1875 
Q 5.515625 13.8125 5.515625 26.8125 
Q 5.515625 40.234375 12.765625 48.109375 
Q 20.015625 56 32.328125 56 
Q 43.359375 56 49.78125 48.890625 
Q 56.203125 41.796875 56.203125 29.59375 
z
M 47.21875 32.234375 
Q 47.125 39.59375 43.09375 43.984375 
Q 39.0625 48.390625 32.421875 48.390625 
Q 24.90625 48.390625 20.390625 44.140625 
Q 15.875 39.890625 15.1875 32.171875 
z
" id="DejaVuSans-65"/>
     </defs>
     <g transform="translate(233.044844 338.140062)scale(0.1 -0.1)">
      <use xlink:href="#DejaVuSans-44"/>
      <use x="77.001953" xlink:href="#DejaVuSans-61"/>
      <use x="138.28125" xlink:href="#DejaVuSans-74"/>
      <use x="177.490234" xlink:href="#DejaVuSans-65"/>
     </g>
    </g>
   </g>
   <g id="matplotlib.axis_2">
    <g id="ytick_1">
     <g id="line2d_17">
      <path clip-path="url(#p9e94e31318)" d="M 42.51125 309.8635 
L 447.48 309.8635 
" style="fill:none;stroke:#b0b0b0;stroke-linecap:square;stroke-width:0.8;"/>
     </g>
     <g id="line2d_18">
      <defs>
       <path d="M 0 0 
L -3.5 0 
" id="m00e34e8983" style="stroke:#000000;stroke-width:0.8;"/>
      </defs>
      <g>
       <use style="stroke:#000000;stroke-width:0.8;" x="42.51125" xlink:href="#m00e34e8983" y="309.8635"/>
      </g>
     </g>
     <g id="text_10">
      <!-- 0 -->
      <g transform="translate(29.14875 313.662719)scale(0.1 -0.1)">
       <use xlink:href="#DejaVuSans-30"/>
      </g>
     </g>
    </g>
    <g id="ytick_2">
     <g id="line2d_19">
      <path clip-path="url(#p9e94e31318)" d="M 42.51125 272.176253 
L 447.48 272.176253 
" style="fill:none;stroke:#b0b0b0;stroke-linecap:square;stroke-width:0.8;"/>
     </g>
     <g id="line2d_20">
      <g>
       <use style="stroke:#000000;stroke-width:0.8;" x="42.51125" xlink:href="#m00e34e8983" y="272.176253"/>
      </g>
     </g>
     <g id="text_11">
      <!-- 100 -->
      <g transform="translate(16.42375 275.975472)scale(0.1 -0.1)">
       <use xlink:href="#DejaVuSans-31"/>
       <use x="63.623047" xlink:href="#DejaVuSans-30"/>
       <use x="127.246094" xlink:href="#DejaVuSans-30"/>
      </g>
     </g>
    </g>
    <g id="ytick_3">
     <g id="line2d_21">
      <path clip-path="url(#p9e94e31318)" d="M 42.51125 234.489006 
L 447.48 234.489006 
" style="fill:none;stroke:#b0b0b0;stroke-linecap:square;stroke-width:0.8;"/>
     </g>
     <g id="line2d_22">
      <g>
       <use style="stroke:#000000;stroke-width:0.8;" x="42.51125" xlink:href="#m00e34e8983" y="234.489006"/>
      </g>
     </g>
     <g id="text_12">
      <!-- 200 -->
      <g transform="translate(16.42375 238.288225)scale(0.1 -0.1)">
       <use xlink:href="#DejaVuSans-32"/>
       <use x="63.623047" xlink:href="#DejaVuSans-30"/>
       <use x="127.246094" xlink:href="#DejaVuSans-30"/>
      </g>
     </g>
    </g>
    <g id="ytick_4">
     <g id="line2d_23">
      <path clip-path="url(#p9e94e31318)" d="M 42.51125 196.80176 
L 447.48 196.80176 
" style="fill:none;stroke:#b0b0b0;stroke-linecap:square;stroke-width:0.8;"/>
     </g>
     <g id="line2d_24">
      <g>
       <use style="stroke:#000000;stroke-width:0.8;" x="42.51125" xlink:href="#m00e34e8983" y="196.80176"/>
      </g>
     </g>
     <g id="text_13">
      <!-- 300 -->
      <g transform="translate(16.42375 200.600978)scale(0.1 -0.1)">
       <use xlink:href="#DejaVuSans-33"/>
       <use x="63.623047" xlink:href="#DejaVuSans-30"/>
       <use x="127.246094" xlink:href="#DejaVuSans-30"/>
      </g>
     </g>
    </g>
    <g id="ytick_5">
     <g id="line2d_25">
      <path clip-path="url(#p9e94e31318)" d="M 42.51125 159.114513 
L 447.48 159.114513 
" style="fill:none;stroke:#b0b0b0;stroke-linecap:square;stroke-width:0.8;"/>
     </g>
     <g id="line2d_26">
      <g>
       <use style="stroke:#000000;stroke-width:0.8;" x="42.51125" xlink:href="#m00e34e8983" y="159.114513"/>
      </g>
     </g>
     <g id="text_14">
      <!-- 400 -->
      <defs>
       <path d="M 37.796875 64.3125 
L 12.890625 25.390625 
L 37.796875 25.390625 
z
M 35.203125 72.90625 
L 47.609375 72.90625 
L 47.609375 25.390625 
L 58.015625 25.390625 
L 58.015625 17.1875 
L 47.609375 17.1875 
L 47.609375 0 
L 37.796875 0 
L 37.796875 17.1875 
L 4.890625 17.1875 
L 4.890625 26.703125 
z
" id="DejaVuSans-34"/>
      </defs>
      <g transform="translate(16.42375 162.913732)scale(0.1 -0.1)">
       <use xlink:href="#DejaVuSans-34"/>
       <use x="63.623047" xlink:href="#DejaVuSans-30"/>
       <use x="127.246094" xlink:href="#DejaVuSans-30"/>
      </g>
     </g>
    </g>
    <g id="ytick_6">
     <g id="line2d_27">
      <path clip-path="url(#p9e94e31318)" d="M 42.51125 121.427266 
L 447.48 121.427266 
" style="fill:none;stroke:#b0b0b0;stroke-linecap:square;stroke-width:0.8;"/>
     </g>
     <g id="line2d_28">
      <g>
       <use style="stroke:#000000;stroke-width:0.8;" x="42.51125" xlink:href="#m00e34e8983" y="121.427266"/>
      </g>
     </g>
     <g id="text_15">
      <!-- 500 -->
      <g transform="translate(16.42375 125.226485)scale(0.1 -0.1)">
       <use xlink:href="#DejaVuSans-35"/>
       <use x="63.623047" xlink:href="#DejaVuSans-30"/>
       <use x="127.246094" xlink:href="#DejaVuSans-30"/>
      </g>
     </g>
    </g>
    <g id="ytick_7">
     <g id="line2d_29">
      <path clip-path="url(#p9e94e31318)" d="M 42.51125 83.740019 
L 447.48 83.740019 
" style="fill:none;stroke:#b0b0b0;stroke-linecap:square;stroke-width:0.8;"/>
     </g>
     <g id="line2d_30">
      <g>
       <use style="stroke:#000000;stroke-width:0.8;" x="42.51125" xlink:href="#m00e34e8983" y="83.740019"/>
      </g>
     </g>
     <g id="text_16">
      <!-- 600 -->
      <defs>
       <path d="M 33.015625 40.375 
Q 26.375 40.375 22.484375 35.828125 
Q 18.609375 31.296875 18.609375 23.390625 
Q 18.609375 15.53125 22.484375 10.953125 
Q 26.375 6.390625 33.015625 6.390625 
Q 39.65625 6.390625 43.53125 10.953125 
Q 47.40625 15.53125 47.40625 23.390625 
Q 47.40625 31.296875 43.53125 35.828125 
Q 39.65625 40.375 33.015625 40.375 
z
M 52.59375 71.296875 
L 52.59375 62.3125 
Q 48.875 64.0625 45.09375 64.984375 
Q 41.3125 65.921875 37.59375 65.921875 
Q 27.828125 65.921875 22.671875 59.328125 
Q 17.53125 52.734375 16.796875 39.40625 
Q 19.671875 43.65625 24.015625 45.921875 
Q 28.375 48.1875 33.59375 48.1875 
Q 44.578125 48.1875 50.953125 41.515625 
Q 57.328125 34.859375 57.328125 23.390625 
Q 57.328125 12.15625 50.6875 5.359375 
Q 44.046875 -1.421875 33.015625 -1.421875 
Q 20.359375 -1.421875 13.671875 8.265625 
Q 6.984375 17.96875 6.984375 36.375 
Q 6.984375 53.65625 15.1875 63.9375 
Q 23.390625 74.21875 37.203125 74.21875 
Q 40.921875 74.21875 44.703125 73.484375 
Q 48.484375 72.75 52.59375 71.296875 
z
" id="DejaVuSans-36"/>
      </defs>
      <g transform="translate(16.42375 87.539238)scale(0.1 -0.1)">
       <use xlink:href="#DejaVuSans-36"/>
       <use x="63.623047" xlink:href="#DejaVuSans-30"/>
       <use x="127.246094" xlink:href="#DejaVuSans-30"/>
      </g>
     </g>
    </g>
    <g id="ytick_8">
     <g id="line2d_31">
      <path clip-path="url(#p9e94e31318)" d="M 42.51125 46.052773 
L 447.48 46.052773 
" style="fill:none;stroke:#b0b0b0;stroke-linecap:square;stroke-width:0.8;"/>
     </g>
     <g id="line2d_32">
      <g>
       <use style="stroke:#000000;stroke-width:0.8;" x="42.51125" xlink:href="#m00e34e8983" y="46.052773"/>
      </g>
     </g>
     <g id="text_17">
      <!-- 700 -->
      <g transform="translate(16.42375 49.851991)scale(0.1 -0.1)">
       <use xlink:href="#DejaVuSans-37"/>
       <use x="63.623047" xlink:href="#DejaVuSans-30"/>
       <use x="127.246094" xlink:href="#DejaVuSans-30"/>
      </g>
     </g>
    </g>
    <g id="text_18">
     <!-- Gross load (MW) -->
     <defs>
      <path d="M 59.515625 10.40625 
L 59.515625 29.984375 
L 43.40625 29.984375 
L 43.40625 38.09375 
L 69.28125 38.09375 
L 69.28125 6.78125 
Q 63.578125 2.734375 56.6875 0.65625 
Q 49.8125 -1.421875 42 -1.421875 
Q 24.90625 -1.421875 15.25 8.5625 
Q 5.609375 18.5625 5.609375 36.375 
Q 5.609375 54.25 15.25 64.234375 
Q 24.90625 74.21875 42 74.21875 
Q 49.125 74.21875 55.546875 72.453125 
Q 61.96875 70.703125 67.390625 67.28125 
L 67.390625 56.78125 
Q 61.921875 61.421875 55.765625 63.765625 
Q 49.609375 66.109375 42.828125 66.109375 
Q 29.4375 66.109375 22.71875 58.640625 
Q 16.015625 51.171875 16.015625 36.375 
Q 16.015625 21.625 22.71875 14.15625 
Q 29.4375 6.6875 42.828125 6.6875 
Q 48.046875 6.6875 52.140625 7.59375 
Q 56.25 8.5 59.515625 10.40625 
z
" id="DejaVuSans-47"/>
      <path d="M 41.109375 46.296875 
Q 39.59375 47.171875 37.8125 47.578125 
Q 36.03125 48 33.890625 48 
Q 26.265625 48 22.1875 43.046875 
Q 18.109375 38.09375 18.109375 28.8125 
L 18.109375 0 
L 9.078125 0 
L 9.078125 54.6875 
L 18.109375 54.6875 
L 18.109375 46.1875 
Q 20.953125 51.171875 25.484375 53.578125 
Q 30.03125 56 36.53125 56 
Q 37.453125 56 38.578125 55.875 
Q 39.703125 55.765625 41.0625 55.515625 
z
" id="DejaVuSans-72"/>
      <path d="M 30.609375 48.390625 
Q 23.390625 48.390625 19.1875 42.75 
Q 14.984375 37.109375 14.984375 27.296875 
Q 14.984375 17.484375 19.15625 11.84375 
Q 23.34375 6.203125 30.609375 6.203125 
Q 37.796875 6.203125 41.984375 11.859375 
Q 46.1875 17.53125 46.1875 27.296875 
Q 46.1875 37.015625 41.984375 42.703125 
Q 37.796875 48.390625 30.609375 48.390625 
z
M 30.609375 56 
Q 42.328125 56 49.015625 48.375 
Q 55.71875 40.765625 55.71875 27.296875 
Q 55.71875 13.875 49.015625 6.21875 
Q 42.328125 -1.421875 30.609375 -1.421875 
Q 18.84375 -1.421875 12.171875 6.21875 
Q 5.515625 13.875 5.515625 27.296875 
Q 5.515625 40.765625 12.171875 48.375 
Q 18.84375 56 30.609375 56 
z
" id="DejaVuSans-6f"/>
      <path d="M 44.28125 53.078125 
L 44.28125 44.578125 
Q 40.484375 46.53125 36.375 47.5 
Q 32.28125 48.484375 27.875 48.484375 
Q 21.1875 48.484375 17.84375 46.4375 
Q 14.5 44.390625 14.5 40.28125 
Q 14.5 37.15625 16.890625 35.375 
Q 19.28125 33.59375 26.515625 31.984375 
L 29.59375 31.296875 
Q 39.15625 29.25 43.1875 25.515625 
Q 47.21875 21.78125 47.21875 15.09375 
Q 47.21875 7.46875 41.1875 3.015625 
Q 35.15625 -1.421875 24.609375 -1.421875 
Q 20.21875 -1.421875 15.453125 -0.5625 
Q 10.6875 0.296875 5.421875 2 
L 5.421875 11.28125 
Q 10.40625 8.6875 15.234375 7.390625 
Q 20.0625 6.109375 24.8125 6.109375 
Q 31.15625 6.109375 34.5625 8.28125 
Q 37.984375 10.453125 37.984375 14.40625 
Q 37.984375 18.0625 35.515625 20.015625 
Q 33.0625 21.96875 24.703125 23.78125 
L 21.578125 24.515625 
Q 13.234375 26.265625 9.515625 29.90625 
Q 5.8125 33.546875 5.8125 39.890625 
Q 5.8125 47.609375 11.28125 51.796875 
Q 16.75 56 26.8125 56 
Q 31.78125 56 36.171875 55.265625 
Q 40.578125 54.546875 44.28125 53.078125 
z
" id="DejaVuSans-73"/>
      <path id="DejaVuSans-20"/>
      <path d="M 9.421875 75.984375 
L 18.40625 75.984375 
L 18.40625 0 
L 9.421875 0 
z
" id="DejaVuSans-6c"/>
      <path d="M 45.40625 46.390625 
L 45.40625 75.984375 
L 54.390625 75.984375 
L 54.390625 0 
L 45.40625 0 
L 45.40625 8.203125 
Q 42.578125 3.328125 38.25 0.953125 
Q 33.9375 -1.421875 27.875 -1.421875 
Q 17.96875 -1.421875 11.734375 6.484375 
Q 5.515625 14.40625 5.515625 27.296875 
Q 5.515625 40.1875 11.734375 48.09375 
Q 17.96875 56 27.875 56 
Q 33.9375 56 38.25 53.625 
Q 42.578125 51.265625 45.40625 46.390625 
z
M 14.796875 27.296875 
Q 14.796875 17.390625 18.875 11.75 
Q 22.953125 6.109375 30.078125 6.109375 
Q 37.203125 6.109375 41.296875 11.75 
Q 45.40625 17.390625 45.40625 27.296875 
Q 45.40625 37.203125 41.296875 42.84375 
Q 37.203125 48.484375 30.078125 48.484375 
Q 22.953125 48.484375 18.875 42.84375 
Q 14.796875 37.203125 14.796875 27.296875 
z
" id="DejaVuSans-64"/>
      <path d="M 31 75.875 
Q 24.46875 64.65625 21.28125 53.65625 
Q 18.109375 42.671875 18.109375 31.390625 
Q 18.109375 20.125 21.3125 9.0625 
Q 24.515625 -2 31 -13.1875 
L 23.1875 -13.1875 
Q 15.875 -1.703125 12.234375 9.375 
Q 8.59375 20.453125 8.59375 31.390625 
Q 8.59375 42.28125 12.203125 53.3125 
Q 15.828125 64.359375 23.1875 75.875 
z
" id="DejaVuSans-28"/>
      <path d="M 9.8125 72.90625 
L 24.515625 72.90625 
L 43.109375 23.296875 
L 61.8125 72.90625 
L 76.515625 72.90625 
L 76.515625 0 
L 66.890625 0 
L 66.890625 64.015625 
L 48.09375 14.015625 
L 38.1875 14.015625 
L 19.390625 64.015625 
L 19.390625 0 
L 9.8125 0 
z
" id="DejaVuSans-4d"/>
      <path d="M 3.328125 72.90625 
L 13.28125 72.90625 
L 28.609375 11.28125 
L 43.890625 72.90625 
L 54.984375 72.90625 
L 70.3125 11.28125 
L 85.59375 72.90625 
L 95.609375 72.90625 
L 77.296875 0 
L 64.890625 0 
L 49.515625 63.28125 
L 33.984375 0 
L 21.578125 0 
z
" id="DejaVuSans-57"/>
      <path d="M 8.015625 75.875 
L 15.828125 75.875 
Q 23.140625 64.359375 26.78125 53.3125 
Q 30.421875 42.28125 30.421875 31.390625 
Q 30.421875 20.453125 26.78125 9.375 
Q 23.140625 -1.703125 15.828125 -13.1875 
L 8.015625 -13.1875 
Q 14.5 -2 17.703125 9.0625 
Q 20.90625 20.125 20.90625 31.390625 
Q 20.90625 42.671875 17.703125 53.65625 
Q 14.5 64.65625 8.015625 75.875 
z
" id="DejaVuSans-29"/>
     </defs>
     <g transform="translate(10.344062 207.835369)rotate(-90)scale(0.1 -0.1)">
      <use xlink:href="#DejaVuSans-47"/>
      <use x="77.490234" xlink:href="#DejaVuSans-72"/>
      <use x="118.572266" xlink:href="#DejaVuSans-6f"/>
      <use x="179.753906" xlink:href="#DejaVuSans-73"/>
      <use x="231.853516" xlink:href="#DejaVuSans-73"/>
      <use x="283.953125" xlink:href="#DejaVuSans-20"/>
      <use x="315.740234" xlink:href="#DejaVuSans-6c"/>
      <use x="343.523438" xlink:href="#DejaVuSans-6f"/>
      <use x="404.705078" xlink:href="#DejaVuSans-61"/>
      <use x="465.984375" xlink:href="#DejaVuSans-64"/>
      <use x="529.460938" xlink:href="#DejaVuSans-20"/>
      <use x="561.248047" xlink:href="#DejaVuSans-28"/>
      <use x="600.261719" xlink:href="#DejaVuSans-4d"/>
      <use x="686.541016" xlink:href="#DejaVuSans-57"/>
      <use x="785.417969" xlink:href="#DejaVuSans-29"/>
     </g>
    </g>
   </g>
   <g id="line2d_33">
    <path clip-path="url(#p9e94e31318)" d="M 42.51125 162.883238 
L 44.3203 162.883238 
L 46.323177 163.636983 
L 48.261444 205.092954 
L 50.264321 139.894017 
L 52.202589 144.039614 
L 54.205466 150.446446 
L 56.208342 149.692701 
L 58.14661 150.823319 
L 60.149487 162.883238 
L 62.087755 164.7676 
L 64.090631 166.27509 
L 66.093508 170.232251 
L 67.902558 163.636983 
L 69.905435 170.797559 
L 71.843703 166.651962 
L 73.846579 164.390727 
L 75.784847 167.78258 
L 77.787724 179.654062 
L 79.7906 159.114513 
L 81.728868 153.27299 
L 83.731745 210.934477 
L 85.670013 191.902418 
L 87.672889 164.956036 
L 89.675766 163.636983 
L 91.484816 162.883238 
L 93.487693 196.80176 
L 95.425961 170.420687 
L 97.428837 168.536325 
L 99.367105 154.592043 
L 101.369982 151.200191 
L 103.372859 155.722661 
L 105.311126 154.592043 
L 107.314003 165.898217 
L 109.252271 168.159452 
L 111.255148 167.028835 
L 113.258024 163.636983 
L 115.131683 163.26011 
L 117.13456 228.459047 
L 119.072828 233.735262 
L 121.075704 164.013855 
L 123.013972 154.215171 
L 125.016849 154.215171 
L 127.019726 154.592043 
L 128.957993 164.013855 
L 130.96087 164.390727 
L 132.899138 163.26011 
L 136.904891 164.013855 
L 138.713941 164.013855 
L 140.716818 163.26011 
L 142.655086 162.883238 
L 144.657962 163.636983 
L 146.59623 160.24513 
L 148.599107 150.25801 
L 150.601984 154.215171 
L 152.540251 162.506365 
L 154.543128 220.921598 
L 156.481396 236.373369 
L 158.484273 163.26011 
L 160.487149 164.013855 
L 164.299076 163.26011 
L 166.237344 163.636983 
L 168.240221 163.26011 
L 170.178488 162.506365 
L 172.181365 162.883238 
L 174.184242 160.622003 
L 176.12251 163.636983 
L 178.125386 223.936577 
L 180.063654 237.127114 
L 182.066531 164.7676 
L 184.069408 163.636983 
L 187.881334 163.636983 
L 189.819602 164.013855 
L 191.822479 162.883238 
L 193.760746 162.506365 
L 195.763623 158.73764 
L 197.7665 160.998875 
L 199.704768 161.375748 
L 201.707644 163.26011 
L 203.645912 164.390727 
L 209.525324 163.26011 
L 211.528201 236.373369 
L 213.466469 235.996496 
L 215.469346 163.636983 
L 217.407613 164.013855 
L 219.41049 163.26011 
L 221.413367 161.187311 
L 223.351635 162.883238 
L 225.354511 165.521345 
L 227.292779 170.985996 
L 229.295656 169.29007 
L 233.107583 174.189412 
L 235.110459 241.83802 
L 237.048727 242.780201 
L 239.051604 229.589664 
L 240.989872 219.414108 
L 242.992748 175.696901 
L 244.995625 191.525545 
L 246.933893 209.238551 
L 248.93677 205.846699 
L 250.875037 242.591765 
L 254.880791 190.394928 
L 256.689841 188.510565 
L 258.692717 248.998596 
L 262.633862 214.326329 
L 264.57213 174.943157 
L 266.575006 168.536325 
L 268.577883 180.030935 
L 270.516151 180.973116 
L 272.519028 216.776 
L 274.457295 213.949457 
L 276.460172 213.949457 
L 278.463049 199.251431 
L 280.272099 215.645383 
L 282.274975 248.056415 
L 284.213243 253.709502 
L 286.21612 230.720282 
L 288.154388 200.758921 
L 290.157264 186.437767 
L 292.160141 173.058794 
L 294.098409 195.29427 
L 296.101286 214.891638 
L 298.039553 228.459047 
L 300.04243 218.660363 
L 302.045307 230.343409 
L 303.918966 234.489006 
L 305.921842 280.090575 
L 307.86011 279.33683 
L 309.862987 239.388349 
L 311.801255 234.865879 
L 313.804132 209.80386 
L 315.807008 198.30925 
L 317.745276 211.122913 
L 319.748153 226.951557 
L 321.686421 226.197812 
L 323.689297 223.182832 
L 325.692174 205.846699 
L 327.501224 214.891638 
L 329.504101 213.384148 
L 333.445245 203.585464 
L 335.383513 172.305049 
L 339.389266 176.450646 
L 341.327534 205.469826 
L 343.330411 222.429087 
L 345.268679 187.003076 
L 347.271555 171.174432 
L 349.274432 173.058794 
L 351.083482 168.536325 
L 353.086359 237.127114 
L 355.024626 206.78888 
L 357.027503 169.855378 
L 358.965771 167.405707 
L 360.968648 167.028835 
L 362.971524 171.174432 
L 364.909792 167.028835 
L 366.912669 169.666942 
L 368.850937 166.086654 
L 370.853813 175.696901 
L 372.85669 200.193612 
L 374.66574 226.763121 
L 376.668617 243.722382 
L 378.606885 254.086375 
L 380.609761 252.955757 
L 382.548029 178.146573 
L 384.550906 175.320029 
L 386.553783 172.870358 
L 388.49205 202.077974 
L 390.494927 210.746041 
L 392.433195 239.011476 
L 394.436072 227.139993 
L 396.438948 226.009376 
L 398.312607 244.287691 
L 400.315484 240.895838 
L 402.253752 229.212792 
L 404.256628 226.197812 
L 406.194896 184.364968 
L 408.197773 175.696901 
L 410.20065 178.523445 
L 412.138917 197.555505 
L 414.141794 201.512666 
L 416.080062 247.114234 
L 418.082939 203.208592 
L 420.085815 204.339209 
L 421.894865 234.489006 
L 423.897742 255.593865 
L 425.83601 253.897939 
L 427.838886 227.705302 
L 429.777154 187.191512 
L 431.780031 190.394928 
L 433.782908 179.27719 
L 435.721175 243.157073 
L 437.724052 254.651683 
L 439.66232 256.536046 
L 443.668073 242.214892 
L 445.477123 252.578885 
L 447.48 262.000697 
L 447.48 262.000697 
" style="fill:none;stroke:#1f77b4;stroke-linecap:square;stroke-width:1.5;"/>
   </g>
   <g id="patch_3">
    <path d="M 42.51125 309.8635 
L 42.51125 23.36505 
" style="fill:none;stroke:#000000;stroke-linecap:square;stroke-linejoin:miter;stroke-width:0.8;"/>
   </g>
   <g id="patch_4">
    <path d="M 447.48 309.8635 
L 447.48 23.36505 
" style="fill:none;stroke:#000000;stroke-linecap:square;stroke-linejoin:miter;stroke-width:0.8;"/>
   </g>
   <g id="patch_5">
    <path d="M 42.51125 309.8635 
L 447.48 309.8635 
" style="fill:none;stroke:#000000;stroke-linecap:square;stroke-linejoin:miter;stroke-width:0.8;"/>
   </g>
   <g id="patch_6">
    <path d="M 42.51125 23.36505 
L 447.48 23.36505 
" style="fill:none;stroke:#000000;stroke-linecap:square;stroke-linejoin:miter;stroke-width:0.8;"/>
   </g>
   <g id="text_19">
    <!-- Monthly gload trend -->
    <defs>
     <path d="M 54.890625 33.015625 
L 54.890625 0 
L 45.90625 0 
L 45.90625 32.71875 
Q 45.90625 40.484375 42.875 44.328125 
Q 39.84375 48.1875 33.796875 48.1875 
Q 26.515625 48.1875 22.3125 43.546875 
Q 18.109375 38.921875 18.109375 30.90625 
L 18.109375 0 
L 9.078125 0 
L 9.078125 54.6875 
L 18.109375 54.6875 
L 18.109375 46.1875 
Q 21.34375 51.125 25.703125 53.5625 
Q 30.078125 56 35.796875 56 
Q 45.21875 56 50.046875 50.171875 
Q 54.890625 44.34375 54.890625 33.015625 
z
" id="DejaVuSans-6e"/>
     <path d="M 54.890625 33.015625 
L 54.890625 0 
L 45.90625 0 
L 45.90625 32.71875 
Q 45.90625 40.484375 42.875 44.328125 
Q 39.84375 48.1875 33.796875 48.1875 
Q 26.515625 48.1875 22.3125 43.546875 
Q 18.109375 38.921875 18.109375 30.90625 
L 18.109375 0 
L 9.078125 0 
L 9.078125 75.984375 
L 18.109375 75.984375 
L 18.109375 46.1875 
Q 21.34375 51.125 25.703125 53.5625 
Q 30.078125 56 35.796875 56 
Q 45.21875 56 50.046875 50.171875 
Q 54.890625 44.34375 54.890625 33.015625 
z
" id="DejaVuSans-68"/>
     <path d="M 32.171875 -5.078125 
Q 28.375 -14.84375 24.75 -17.8125 
Q 21.140625 -20.796875 15.09375 -20.796875 
L 7.90625 -20.796875 
L 7.90625 -13.28125 
L 13.1875 -13.28125 
Q 16.890625 -13.28125 18.9375 -11.515625 
Q 21 -9.765625 23.484375 -3.21875 
L 25.09375 0.875 
L 2.984375 54.6875 
L 12.5 54.6875 
L 29.59375 11.921875 
L 46.6875 54.6875 
L 56.203125 54.6875 
z
" id="DejaVuSans-79"/>
     <path d="M 45.40625 27.984375 
Q 45.40625 37.75 41.375 43.109375 
Q 37.359375 48.484375 30.078125 48.484375 
Q 22.859375 48.484375 18.828125 43.109375 
Q 14.796875 37.75 14.796875 27.984375 
Q 14.796875 18.265625 18.828125 12.890625 
Q 22.859375 7.515625 30.078125 7.515625 
Q 37.359375 7.515625 41.375 12.890625 
Q 45.40625 18.265625 45.40625 27.984375 
z
M 54.390625 6.78125 
Q 54.390625 -7.171875 48.1875 -13.984375 
Q 42 -20.796875 29.203125 -20.796875 
Q 24.46875 -20.796875 20.265625 -20.09375 
Q 16.0625 -19.390625 12.109375 -17.921875 
L 12.109375 -9.1875 
Q 16.0625 -11.328125 19.921875 -12.34375 
Q 23.78125 -13.375 27.78125 -13.375 
Q 36.625 -13.375 41.015625 -8.765625 
Q 45.40625 -4.15625 45.40625 5.171875 
L 45.40625 9.625 
Q 42.625 4.78125 38.28125 2.390625 
Q 33.9375 0 27.875 0 
Q 17.828125 0 11.671875 7.65625 
Q 5.515625 15.328125 5.515625 27.984375 
Q 5.515625 40.671875 11.671875 48.328125 
Q 17.828125 56 27.875 56 
Q 33.9375 56 38.28125 53.609375 
Q 42.625 51.21875 45.40625 46.390625 
L 45.40625 54.6875 
L 54.390625 54.6875 
z
" id="DejaVuSans-67"/>
    </defs>
    <g transform="translate(184.405 17.36505)scale(0.12 -0.12)">
     <use xlink:href="#DejaVuSans-4d"/>
     <use x="86.279297" xlink:href="#DejaVuSans-6f"/>
     <use x="147.460938" xlink:href="#DejaVuSans-6e"/>
     <use x="210.839844" xlink:href="#DejaVuSans-74"/>
     <use x="250.048828" xlink:href="#DejaVuSans-68"/>
     <use x="313.427734" xlink:href="#DejaVuSans-6c"/>
     <use x="341.210938" xlink:href="#DejaVuSans-79"/>
     <use x="400.390625" xlink:href="#DejaVuSans-20"/>
     <use x="432.177734" xlink:href="#DejaVuSans-67"/>
     <use x="495.654297" xlink:href="#DejaVuSans-6c"/>
     <use x="523.4375" xlink:href="#DejaVuSans-6f"/>
     <use x="584.619141" xlink:href="#DejaVuSans-61"/>
     <use x="645.898438" xlink:href="#DejaVuSans-64"/>
     <use x="709.375" xlink:href="#DejaVuSans-20"/>
     <use x="741.162109" xlink:href="#DejaVuSans-74"/>
     <use x="780.371094" xlink:href="#DejaVuSans-72"/>
     <use x="821.453125" xlink:href="#DejaVuSans-65"/>
     <use x="882.976562" xlink:href="#DejaVuSans-6e"/>
     <use x="946.355469" xlink:href="#DejaVuSans-64"/>
    </g>
   </g>
  </g>
 </g>
 <defs>
  <clipPath id="p9e94e31318">
   <rect height="286.49845" width="404.96875" x="42.51125" y="23.36505"/>
  </clipPath>
 </defs>
</svg>
