<?xml version="1.0" encoding="utf-8" standalone="no"?>
<!DOCTYPE svg PUBLIC "-//W3C//DTD SVG 1.1//EN"
  "http://www.w3.org/Graphics/SVG/1.1/DTD/svg11.dtd">
<!-- Created with matplotlib (http://matplotlib.org/) -->
<svg height="345.6pt" version="1.1" viewBox="0 0 460.8 345.6" width="460.8pt" xmlns="http://www.w3.org/2000/svg" xmlns:xlink="http://www.w3.org/1999/xlink">
 <defs>
  <style type="text/css">
*{stroke-linecap:butt;stroke-linejoin:round;}
  </style>
 </defs>
 <g id="figure_1">
  <g id="patch_1">
   <path d="M 0 345.6 
L 460.8 345.6 
L 460.8 0 
L 0 0 
z
" style="fill:none;"/>
  </g>
  <g id="axes_1">
   <g id="patch_2">
    <path d="M 42.51125 309.8635 
L 447.48 309.8635 
L 447.48 23.36505 
L 42.51125 23.36505 
z
" style="fill:none;"/>
   </g>
   <g id="PolyCollection_1">
    <path clip-path="url(#pc90aae3426)" d="M 42.51125 37.007833 
L 42.51125 295.676325 
L 44.3203 309.8635 
L 46.323177 309.8635 
L 48.261444 295.676325 
L 50.264321 309.8635 
L 52.202589 295.346391 
L 54.205466 281.159216 
L 56.208342 274.56053 
L 58.14661 274.230596 
L 60.149487 295.346391 
L 62.087755 295.346391 
L 64.090631 295.676325 
L 66.093508 295.676325 
L 67.902558 296.006259 
L 69.905435 295.676325 
L 71.843703 295.676325 
L 73.846579 295.346391 
L 75.784847 295.676325 
L 77.787724 295.346391 
L 79.7906 295.346391 
L 81.728868 295.676325 
L 83.731745 309.8635 
L 85.670013 295.346391 
L 87.672889 295.676325 
L 89.675766 295.676325 
L 91.484816 295.346391 
L 93.487693 295.016456 
L 95.425961 295.346391 
L 97.428837 295.676325 
L 99.367105 280.499347 
L 101.369982 295.676325 
L 103.372859 295.016456 
L 105.311126 275.220398 
L 107.314003 280.829282 
L 109.252271 280.829282 
L 111.255148 295.676325 
L 113.258024 286.438165 
L 115.131683 292.047048 
L 117.13456 280.829282 
L 119.072828 280.829282 
L 121.075704 295.346391 
L 123.013972 295.346391 
L 125.016849 295.346391 
L 127.019726 274.890464 
L 128.957993 275.220398 
L 130.96087 295.676325 
L 132.899138 295.676325 
L 134.902015 296.666128 
L 136.904891 296.666128 
L 138.713941 296.336194 
L 140.716818 296.996062 
L 142.655086 304.254617 
L 144.657962 296.996062 
L 146.59623 295.676325 
L 148.599107 275.220398 
L 150.601984 281.48915 
L 152.540251 308.543763 
L 154.543128 296.336194 
L 156.481396 296.336194 
L 158.484273 297.325997 
L 160.487149 309.8635 
L 162.296199 296.666128 
L 164.299076 296.006259 
L 166.237344 295.346391 
L 168.240221 295.676325 
L 170.178488 295.346391 
L 172.181365 293.036851 
L 174.184242 293.366785 
L 176.12251 293.036851 
L 178.125386 296.336194 
L 180.063654 276.210201 
L 182.066531 295.016456 
L 184.069408 275.220398 
L 185.878457 296.336194 
L 187.881334 296.336194 
L 189.819602 296.006259 
L 191.822479 296.006259 
L 193.760746 295.676325 
L 195.763623 281.48915 
L 197.7665 275.880267 
L 199.704768 296.006259 
L 201.707644 295.676325 
L 203.645912 295.676325 
L 205.648789 296.336194 
L 207.651666 296.006259 
L 209.525324 296.996062 
L 211.528201 296.006259 
L 213.466469 297.655931 
L 215.469346 296.006259 
L 217.407613 296.006259 
L 219.41049 295.676325 
L 221.413367 275.550333 
L 223.351635 275.880267 
L 225.354511 296.006259 
L 227.292779 296.006259 
L 229.295656 296.336194 
L 231.298533 296.006259 
L 233.107583 309.8635 
L 235.110459 296.006259 
L 237.048727 295.676325 
L 239.051604 309.8635 
L 240.989872 296.336194 
L 242.992748 296.006259 
L 244.995625 276.210201 
L 246.933893 296.006259 
L 248.93677 296.006259 
L 250.875037 309.8635 
L 252.877914 296.336194 
L 254.880791 309.8635 
L 256.689841 309.8635 
L 258.692717 309.8635 
L 260.630985 309.8635 
L 262.633862 309.8635 
L 264.57213 309.8635 
L 266.575006 295.676325 
L 268.577883 274.890464 
L 270.516151 295.676325 
L 272.519028 274.56053 
L 274.457295 293.036851 
L 276.460172 309.8635 
L 278.463049 309.8635 
L 280.272099 296.336194 
L 282.274975 295.676325 
L 284.213243 275.550333 
L 286.21612 296.666128 
L 288.154388 295.346391 
L 290.157264 295.346391 
L 292.160141 294.356588 
L 294.098409 293.696719 
L 296.101286 295.676325 
L 298.039553 309.8635 
L 300.04243 309.8635 
L 302.045307 309.8635 
L 303.918966 309.8635 
L 305.921842 309.8635 
L 307.86011 295.016456 
L 309.862987 295.676325 
L 311.801255 295.676325 
L 313.804132 294.686522 
L 315.807008 293.696719 
L 317.745276 274.890464 
L 319.748153 292.047048 
L 321.686421 295.016456 
L 323.689297 309.8635 
L 325.692174 295.016456 
L 327.501224 293.696719 
L 329.504101 273.240793 
L 331.442368 274.56053 
L 333.445245 295.016456 
L 335.383513 295.016456 
L 337.38639 277.529939 
L 339.389266 295.346391 
L 341.327534 274.56053 
L 343.330411 274.230596 
L 345.268679 295.676325 
L 347.271555 295.676325 
L 349.274432 295.676325 
L 351.083482 295.346391 
L 353.086359 279.509544 
L 355.024626 295.676325 
L 357.027503 295.346391 
L 358.965771 274.890464 
L 360.968648 276.87007 
L 362.971524 295.676325 
L 364.909792 296.006259 
L 366.912669 295.016456 
L 368.850937 296.996062 
L 370.853813 294.026654 
L 372.85669 293.696719 
L 374.66574 274.230596 
L 376.668617 273.240793 
L 378.606885 295.346391 
L 380.609761 295.346391 
L 382.548029 294.356588 
L 384.550906 274.230596 
L 386.553783 293.366785 
L 388.49205 274.56053 
L 390.494927 273.900661 
L 392.433195 276.210201 
L 394.436072 309.8635 
L 396.438948 309.8635 
L 398.312607 295.016456 
L 400.315484 295.346391 
L 402.253752 309.8635 
L 404.256628 295.346391 
L 406.194896 295.346391 
L 408.197773 309.8635 
L 410.20065 278.519741 
L 412.138917 295.016456 
L 414.141794 280.169413 
L 416.080062 309.8635 
L 418.082939 295.676325 
L 420.085815 295.676325 
L 421.894865 309.8635 
L 423.897742 295.346391 
L 425.83601 309.8635 
L 427.838886 309.8635 
L 429.777154 309.8635 
L 431.780031 284.458559 
L 433.782908 284.458559 
L 435.721175 294.686522 
L 437.724052 309.8635 
L 439.66232 309.8635 
L 441.665197 309.8635 
L 443.668073 284.458559 
L 445.477123 309.8635 
L 447.48 309.8635 
L 447.48 240.577297 
L 447.48 240.577297 
L 445.477123 204.614458 
L 443.668073 189.767415 
L 441.665197 204.944392 
L 439.66232 204.614458 
L 437.724052 157.433853 
L 435.721175 155.454247 
L 433.782908 121.800949 
L 431.780031 170.631225 
L 429.777154 203.954589 
L 427.838886 204.614458 
L 425.83601 174.260502 
L 423.897742 189.107546 
L 421.894865 170.631225 
L 420.085815 171.621028 
L 418.082939 176.240108 
L 416.080062 175.250305 
L 414.141794 146.875955 
L 412.138917 141.267072 
L 410.20065 100.355219 
L 408.197773 141.597007 
L 406.194896 153.804576 
L 404.256628 140.277269 
L 402.253752 146.216087 
L 400.315484 125.76016 
L 398.312607 143.246678 
L 396.438948 155.454247 
L 394.436072 151.165101 
L 392.433195 150.175298 
L 390.494927 130.709175 
L 388.49205 130.37924 
L 386.553783 104.644365 
L 384.550906 138.957532 
L 382.548029 119.491409 
L 380.609761 142.256875 
L 378.606885 161.722999 
L 376.668617 138.627598 
L 374.66574 144.236481 
L 372.85669 164.692408 
L 370.853813 177.559845 
L 368.850937 276.87007 
L 366.912669 199.005575 
L 364.909792 124.770357 
L 362.971524 136.318058 
L 360.968648 128.399635 
L 358.965771 153.804576 
L 357.027503 134.668386 
L 355.024626 201.645049 
L 353.086359 201.315115 
L 351.083482 165.682211 
L 349.274432 150.175298 
L 347.271555 256.414143 
L 345.268679 193.066758 
L 343.330411 167.661816 
L 341.327534 127.409832 
L 339.389266 160.403262 
L 337.38639 107.613774 
L 335.383513 107.943708 
L 333.445245 140.937138 
L 331.442368 141.597007 
L 329.504101 179.869386 
L 327.501224 114.872328 
L 325.692174 119.491409 
L 323.689297 181.519057 
L 321.686421 255.754275 
L 319.748153 102.004891 
L 317.745276 94.086467 
L 315.807008 109.263445 
L 313.804132 111.572985 
L 311.801255 258.063815 
L 309.862987 258.393749 
L 307.86011 139.617401 
L 305.921842 162.052933 
L 303.918966 170.961159 
L 302.045307 126.420029 
L 300.04243 253.444735 
L 298.039553 254.764472 
L 296.101286 90.127256 
L 294.098409 74.290409 
L 292.160141 87.817716 
L 290.157264 125.76016 
L 288.154388 228.699662 
L 286.21612 153.144707 
L 284.213243 105.964102 
L 282.274975 126.090095 
L 280.272099 256.084209 
L 278.463049 257.074012 
L 276.460172 135.328255 
L 274.457295 103.654562 
L 272.519028 110.253248 
L 270.516151 110.583182 
L 268.577883 93.756533 
L 266.575006 128.729569 
L 264.57213 257.403946 
L 262.633862 239.25756 
L 260.630985 163.042736 
L 258.692717 172.610831 
L 256.689841 171.291094 
L 254.880791 256.744078 
L 252.877914 162.712802 
L 250.875037 192.406889 
L 248.93677 107.283839 
L 246.933893 61.752906 
L 244.995625 54.494351 
L 242.992748 104.314431 
L 240.989872 210.88321 
L 239.051604 162.712802 
L 237.048727 112.562788 
L 235.110459 227.049991 
L 233.107583 254.434537 
L 231.298533 147.865758 
L 229.295656 221.771042 
L 227.292779 203.954589 
L 225.354511 149.185496 
L 223.351635 148.855561 
L 221.413367 53.504548 
L 219.41049 107.283839 
L 217.407613 68.021658 
L 215.469346 46.245994 
L 213.466469 47.235797 
L 211.528201 124.770357 
L 209.525324 233.648677 
L 207.651666 198.015772 
L 205.648789 242.226968 
L 203.645912 55.814088 
L 201.707644 45.256191 
L 199.704768 104.314431 
L 197.7665 47.565731 
L 195.763623 50.53514 
L 193.760746 56.803891 
L 191.822479 255.094406 
L 189.819602 250.145392 
L 187.881334 256.084209 
L 185.878457 136.647992 
L 184.069408 122.130883 
L 182.066531 140.937138 
L 180.063654 94.086467 
L 178.125386 116.851934 
L 176.12251 101.345022 
L 174.184242 85.83811 
L 172.181365 57.133826 
L 170.178488 103.654562 
L 168.240221 157.103919 
L 166.237344 103.984496 
L 164.299076 71.980869 
L 162.296199 205.274327 
L 160.487149 254.104603 
L 158.484273 253.774669 
L 156.481396 252.454932 
L 154.543128 118.171671 
L 152.540251 101.674956 
L 150.601984 101.345022 
L 148.599107 145.226284 
L 146.59623 145.886153 
L 144.657962 251.795063 
L 142.655086 167.331882 
L 140.716818 193.726626 
L 138.713941 216.822027 
L 136.904891 174.920371 
L 134.902015 253.774669 
L 132.899138 131.039109 
L 130.96087 100.355219 
L 128.957993 87.817716 
L 127.019726 48.885468 
L 125.016849 43.606519 
L 123.013972 107.613774 
L 121.075704 190.097349 
L 119.072828 191.087152 
L 117.13456 101.345022 
L 115.131683 46.905862 
L 113.258024 122.790752 
L 111.255148 118.171671 
L 109.252271 105.304234 
L 107.314003 52.514745 
L 105.311126 44.596322 
L 103.372859 40.967045 
L 101.369982 42.616716 
L 99.367105 54.824286 
L 97.428837 107.943708 
L 95.425961 99.035482 
L 93.487693 100.025285 
L 91.484816 39.317373 
L 89.675766 118.83154 
L 87.672889 123.45062 
L 85.670013 248.825654 
L 83.731745 249.155589 
L 81.728868 152.484839 
L 79.7906 97.38581 
L 77.787724 39.317373 
L 75.784847 189.43748 
L 73.846579 248.825654 
L 71.843703 188.447677 
L 69.905435 188.777612 
L 67.902558 188.447677 
L 66.093508 121.14108 
L 64.090631 98.045679 
L 62.087755 98.705548 
L 60.149487 39.317373 
L 58.14661 38.327571 
L 56.208342 37.007833 
L 54.205466 99.035482 
L 52.202589 188.777612 
L 50.264321 248.825654 
L 48.261444 248.825654 
L 46.323177 248.825654 
L 44.3203 97.38581 
L 42.51125 37.007833 
z
" style="fill:#808080;fill-opacity:0.3;"/>
   </g>
   <g id="PolyCollection_2">
    <path clip-path="url(#pc90aae3426)" d="M 42.51125 105.22175 
L 42.51125 258.146298 
L 44.3203 295.016456 
L 46.323177 295.016456 
L 48.261444 295.016456 
L 50.264321 295.016456 
L 52.202589 280.499347 
L 54.205466 273.900661 
L 56.208342 260.373355 
L 58.14661 271.34367 
L 60.149487 265.074919 
L 62.087755 282.231502 
L 64.090631 293.779203 
L 66.093508 280.169413 
L 67.902558 295.016456 
L 69.905435 283.468756 
L 71.843703 280.829282 
L 73.846579 295.016456 
L 75.784847 295.016456 
L 77.787724 279.839479 
L 79.7906 265.734787 
L 81.728868 294.686522 
L 83.731745 295.016456 
L 85.670013 295.016456 
L 87.672889 295.016456 
L 89.675766 295.016456 
L 91.484816 251.465129 
L 93.487693 240.577297 
L 95.425961 273.570727 
L 97.428837 295.016456 
L 99.367105 273.900661 
L 101.369982 259.053618 
L 103.372859 258.393749 
L 105.311126 267.384459 
L 107.314003 272.910858 
L 109.252271 272.910858 
L 111.255148 272.910858 
L 113.258024 267.961844 
L 115.131683 262.435444 
L 117.13456 258.393749 
L 119.072828 280.169413 
L 121.075704 280.169413 
L 123.013972 274.230596 
L 125.016849 259.713486 
L 127.019726 273.570727 
L 128.957993 273.900661 
L 130.96087 295.016456 
L 132.899138 295.016456 
L 134.902015 295.016456 
L 136.904891 292.129531 
L 138.713941 295.016456 
L 140.716818 295.016456 
L 142.655086 295.016456 
L 144.657962 295.016456 
L 146.59623 280.169413 
L 148.599107 273.240793 
L 150.601984 273.570727 
L 152.540251 273.900661 
L 154.543128 289.407573 
L 156.481396 295.016456 
L 158.484273 295.016456 
L 160.487149 295.346391 
L 162.296199 295.346391 
L 164.299076 274.230596 
L 166.237344 273.240793 
L 168.240221 295.016456 
L 170.178488 293.036851 
L 172.181365 273.570727 
L 174.184242 273.570727 
L 176.12251 249.815457 
L 178.125386 273.570727 
L 180.063654 272.25099 
L 182.066531 273.900661 
L 184.069408 264.992435 
L 185.878457 294.026654 
L 187.881334 295.016456 
L 189.819602 294.686522 
L 191.822479 295.016456 
L 193.760746 273.900661 
L 195.763623 271.591121 
L 197.7665 271.921055 
L 199.704768 295.016456 
L 201.707644 294.686522 
L 203.645912 277.859873 
L 205.648789 295.346391 
L 207.651666 294.356588 
L 209.525324 294.769006 
L 211.528201 287.345484 
L 213.466469 294.686522 
L 215.469346 274.230596 
L 217.407613 294.686522 
L 219.41049 274.56053 
L 221.413367 273.240793 
L 223.351635 274.230596 
L 225.354511 273.900661 
L 227.292779 288.17032 
L 229.295656 295.016456 
L 231.298533 295.016456 
L 233.107583 295.016456 
L 235.110459 295.016456 
L 237.048727 294.356588 
L 239.051604 295.346391 
L 240.989872 295.346391 
L 242.992748 294.356588 
L 244.995625 274.230596 
L 246.933893 273.900661 
L 248.93677 274.230596 
L 250.875037 295.346391 
L 252.877914 295.346391 
L 254.880791 309.8635 
L 256.689841 295.016456 
L 258.692717 295.346391 
L 260.630985 295.016456 
L 262.633862 294.686522 
L 264.57213 295.016456 
L 266.575006 294.686522 
L 268.577883 272.25099 
L 270.516151 277.529939 
L 272.519028 272.580924 
L 274.457295 272.580924 
L 276.460172 294.026654 
L 278.463049 295.016456 
L 280.272099 294.686522 
L 282.274975 273.900661 
L 284.213243 273.570727 
L 286.21612 293.366785 
L 288.154388 293.366785 
L 290.157264 273.240793 
L 292.160141 273.240793 
L 294.098409 273.240793 
L 296.101286 293.696719 
L 298.039553 293.696719 
L 300.04243 294.026654 
L 302.045307 295.016456 
L 303.918966 294.686522 
L 305.921842 294.356588 
L 307.86011 273.570727 
L 309.862987 294.026654 
L 311.801255 293.696719 
L 313.804132 272.910858 
L 315.807008 271.921055 
L 317.745276 272.25099 
L 319.748153 272.910858 
L 321.686421 293.366785 
L 323.689297 294.026654 
L 325.692174 281.076732 
L 327.501224 285.448362 
L 329.504101 271.591121 
L 331.442368 272.25099 
L 333.445245 293.036851 
L 335.383513 294.686522 
L 337.38639 272.580924 
L 339.389266 272.910858 
L 341.327534 272.910858 
L 343.330411 272.580924 
L 345.268679 295.016456 
L 347.271555 295.016456 
L 349.274432 295.346391 
L 351.083482 295.346391 
L 353.086359 273.900661 
L 355.024626 295.346391 
L 357.027503 273.900661 
L 358.965771 273.900661 
L 360.968648 273.570727 
L 362.971524 248.825654 
L 364.909792 273.240793 
L 366.912669 278.849676 
L 368.850937 295.016456 
L 370.853813 271.921055 
L 372.85669 271.591121 
L 374.66574 271.921055 
L 376.668617 271.921055 
L 378.606885 294.026654 
L 380.609761 293.366785 
L 382.548029 272.580924 
L 384.550906 272.910858 
L 386.553783 272.25099 
L 388.49205 272.580924 
L 390.494927 272.580924 
L 392.433195 272.580924 
L 394.436072 294.686522 
L 396.438948 294.686522 
L 398.312607 294.356588 
L 400.315484 294.026654 
L 402.253752 246.598598 
L 404.256628 294.356588 
L 406.194896 294.026654 
L 408.197773 268.621712 
L 410.20065 248.165786 
L 412.138917 286.603132 
L 414.141794 231.091686 
L 416.080062 294.686522 
L 418.082939 268.951647 
L 420.085815 243.216771 
L 421.894865 263.755181 
L 423.897742 294.686522 
L 425.83601 283.79869 
L 427.838886 309.8635 
L 429.777154 309.8635 
L 431.780031 244.289058 
L 433.782908 244.289058 
L 435.721175 247.505917 
L 437.724052 258.063815 
L 439.66232 284.458559 
L 441.665197 266.972041 
L 443.668073 249.897941 
L 445.477123 296.666128 
L 447.48 309.8635 
L 447.48 295.016456 
L 447.48 295.016456 
L 445.477123 239.917428 
L 443.668073 239.587494 
L 441.665197 240.247363 
L 439.66232 239.917428 
L 437.724052 240.247363 
L 435.721175 221.936009 
L 433.782908 231.669071 
L 431.780031 239.587494 
L 429.777154 243.87664 
L 427.838886 250.475326 
L 425.83601 240.907231 
L 423.897742 233.813644 
L 421.894865 239.25756 
L 420.085815 225.070385 
L 418.082939 224.080582 
L 416.080062 227.379925 
L 414.141794 224.080582 
L 412.138917 223.090779 
L 410.20065 177.147428 
L 408.197773 213.110266 
L 406.194896 240.577297 
L 404.256628 223.750648 
L 402.253752 207.501383 
L 400.315484 224.080582 
L 398.312607 241.649583 
L 396.438948 235.463315 
L 394.436072 248.743171 
L 392.433195 230.349334 
L 390.494927 217.069478 
L 388.49205 195.623748 
L 386.553783 197.27342 
L 384.550906 223.998098 
L 382.548029 250.475326 
L 380.609761 271.261187 
L 378.606885 270.601318 
L 376.668617 258.6412 
L 374.66574 263.012829 
L 372.85669 270.601318 
L 370.853813 263.012829 
L 368.850937 293.366785 
L 366.912669 247.753368 
L 364.909792 244.866443 
L 362.971524 233.318742 
L 360.968648 230.926719 
L 358.965771 248.49572 
L 357.027503 230.926719 
L 355.024626 272.910858 
L 353.086359 248.825654 
L 351.083482 202.964787 
L 349.274432 285.778296 
L 347.271555 290.644827 
L 345.268679 272.580924 
L 343.330411 270.931253 
L 341.327534 257.074012 
L 339.389266 247.505917 
L 337.38639 256.084209 
L 335.383513 281.076732 
L 333.445245 264.250083 
L 331.442368 206.181646 
L 329.504101 241.897034 
L 327.501224 215.172356 
L 325.692174 215.667257 
L 323.689297 272.25099 
L 321.686421 276.210201 
L 319.748153 201.645049 
L 317.745276 187.375391 
L 315.807008 186.715522 
L 313.804132 252.042514 
L 311.801255 293.036851 
L 309.862987 293.036851 
L 307.86011 242.556903 
L 305.921842 247.423434 
L 303.918966 284.128625 
L 302.045307 273.570727 
L 300.04243 292.706916 
L 298.039553 291.717113 
L 296.101286 279.427061 
L 294.098409 239.834945 
L 292.160141 238.927625 
L 290.157264 268.621712 
L 288.154388 292.706916 
L 286.21612 273.240793 
L 284.213243 248.49572 
L 282.274975 241.154682 
L 280.272099 293.036851 
L 278.463049 293.036851 
L 276.460172 272.25099 
L 274.457295 205.769228 
L 272.519028 212.03798 
L 270.516151 246.433631 
L 268.577883 188.777612 
L 266.575006 243.134288 
L 264.57213 293.036851 
L 262.633862 294.356588 
L 260.630985 294.356588 
L 258.692717 274.56053 
L 256.689841 263.342764 
L 254.880791 294.686522 
L 252.877914 274.56053 
L 250.875037 277.200004 
L 248.93677 226.637573 
L 246.933893 209.480989 
L 244.995625 183.168729 
L 242.992748 187.787809 
L 240.989872 293.366785 
L 239.051604 273.488243 
L 237.048727 273.488243 
L 235.110459 281.159216 
L 233.107583 292.047048 
L 231.298533 273.570727 
L 229.295656 275.880267 
L 227.292779 268.209295 
L 225.354511 228.699662 
L 223.351635 184.158531 
L 221.413367 151.82497 
L 219.41049 227.379925 
L 217.407613 258.971134 
L 215.469346 233.318742 
L 213.466469 199.995378 
L 211.528201 257.074012 
L 209.525324 271.921055 
L 207.651666 272.910858 
L 205.648789 286.685615 
L 203.645912 161.722999 
L 201.707644 238.35024 
L 199.704768 267.137008 
L 197.7665 131.698978 
L 195.763623 149.267979 
L 193.760746 195.046363 
L 191.822479 293.036851 
L 189.819602 283.468756 
L 187.881334 293.696719 
L 185.878457 272.828375 
L 184.069408 184.488466 
L 182.066531 230.019399 
L 180.063654 188.695128 
L 178.125386 229.359531 
L 176.12251 188.942579 
L 174.184242 214.100069 
L 172.181365 137.637795 
L 170.178488 253.1148 
L 168.240221 269.94145 
L 166.237344 222.513394 
L 164.299076 230.679268 
L 162.296199 292.706916 
L 160.487149 294.026654 
L 158.484273 289.407573 
L 156.481396 275.137915 
L 154.543128 231.009202 
L 152.540251 231.999005 
L 150.601984 197.603354 
L 148.599107 163.620121 
L 146.59623 231.586587 
L 144.657962 283.79869 
L 142.655086 285.448362 
L 140.716818 279.756995 
L 138.713941 281.819084 
L 136.904891 268.621712 
L 134.902015 275.550333 
L 132.899138 254.104603 
L 130.96087 260.703289 
L 128.957993 192.406889 
L 127.019726 192.324405 
L 125.016849 143.164195 
L 123.013972 212.862816 
L 121.075704 235.133381 
L 119.072828 237.607888 
L 117.13456 157.763787 
L 115.131683 184.405982 
L 113.258024 194.633945 
L 111.255148 211.378111 
L 109.252271 202.634852 
L 107.314003 179.04455 
L 105.311126 149.680397 
L 103.372859 141.761974 
L 101.369982 96.643458 
L 99.367105 175.910174 
L 97.428837 269.529032 
L 95.425961 193.396692 
L 93.487693 142.83426 
L 91.484816 144.236481 
L 89.675766 278.107324 
L 87.672889 265.652304 
L 85.670013 268.951647 
L 83.731745 269.94145 
L 81.728868 250.80526 
L 79.7906 205.521777 
L 77.787724 196.366101 
L 75.784847 268.869163 
L 73.846579 266.229689 
L 71.843703 242.144485 
L 69.905435 249.485523 
L 67.902558 251.465129 
L 66.093508 216.492093 
L 64.090631 229.524498 
L 62.087755 181.271606 
L 60.149487 142.504326 
L 58.14661 164.032539 
L 56.208342 173.765601 
L 54.205466 222.018492 
L 52.202589 235.298348 
L 50.264321 258.063815 
L 48.261444 254.352054 
L 46.323177 251.382645 
L 44.3203 225.977704 
L 42.51125 105.22175 
z
" style="fill:#808080;fill-opacity:0.6;"/>
   </g>
   <g id="matplotlib.axis_1">
    <g id="xtick_1">
     <g id="line2d_1">
      <path clip-path="url(#pc90aae3426)" d="M 87.737498 309.8635 
L 87.737498 23.36505 
" style="fill:none;stroke:#b0b0b0;stroke-linecap:square;stroke-width:0.8;"/>
     </g>
     <g id="line2d_2">
      <defs>
       <path d="M 0 0 
L 0 3.5 
" id="mbf3bd28845" style="stroke:#000000;stroke-width:0.8;"/>
      </defs>
      <g>
       <use style="stroke:#000000;stroke-width:0.8;" x="87.737498" xlink:href="#mbf3bd28845" y="309.8635"/>
      </g>
     </g>
     <g id="text_1">
      <!-- 2003 -->
      <defs>
       <path d="M 19.1875 8.296875 
L 53.609375 8.296875 
L 53.609375 0 
L 7.328125 0 
L 7.328125 8.296875 
Q 12.9375 14.109375 22.625 23.890625 
Q 32.328125 33.6875 34.8125 36.53125 
Q 39.546875 41.84375 41.421875 45.53125 
Q 43.3125 49.21875 43.3125 52.78125 
Q 43.3125 58.59375 39.234375 62.25 
Q 35.15625 65.921875 28.609375 65.921875 
Q 23.96875 65.921875 18.8125 64.3125 
Q 13.671875 62.703125 7.8125 59.421875 
L 7.8125 69.390625 
Q 13.765625 71.78125 18.9375 73 
Q 24.125 74.21875 28.421875 74.21875 
Q 39.75 74.21875 46.484375 68.546875 
Q 53.21875 62.890625 53.21875 53.421875 
Q 53.21875 48.921875 51.53125 44.890625 
Q 49.859375 40.875 45.40625 35.40625 
Q 44.1875 33.984375 37.640625 27.21875 
Q 31.109375 20.453125 19.1875 8.296875 
z
" id="DejaVuSans-32"/>
       <path d="M 31.78125 66.40625 
Q 24.171875 66.40625 20.328125 58.90625 
Q 16.5 51.421875 16.5 36.375 
Q 16.5 21.390625 20.328125 13.890625 
Q 24.171875 6.390625 31.78125 6.390625 
Q 39.453125 6.390625 43.28125 13.890625 
Q 47.125 21.390625 47.125 36.375 
Q 47.125 51.421875 43.28125 58.90625 
Q 39.453125 66.40625 31.78125 66.40625 
z
M 31.78125 74.21875 
Q 44.046875 74.21875 50.515625 64.515625 
Q 56.984375 54.828125 56.984375 36.375 
Q 56.984375 17.96875 50.515625 8.265625 
Q 44.046875 -1.421875 31.78125 -1.421875 
Q 19.53125 -1.421875 13.0625 8.265625 
Q 6.59375 17.96875 6.59375 36.375 
Q 6.59375 54.828125 13.0625 64.515625 
Q 19.53125 74.21875 31.78125 74.21875 
z
" id="DejaVuSans-30"/>
       <path d="M 40.578125 39.3125 
Q 47.65625 37.796875 51.625 33 
Q 55.609375 28.21875 55.609375 21.1875 
Q 55.609375 10.40625 48.1875 4.484375 
Q 40.765625 -1.421875 27.09375 -1.421875 
Q 22.515625 -1.421875 17.65625 -0.515625 
Q 12.796875 0.390625 7.625 2.203125 
L 7.625 11.71875 
Q 11.71875 9.328125 16.59375 8.109375 
Q 21.484375 6.890625 26.8125 6.890625 
Q 36.078125 6.890625 40.9375 10.546875 
Q 45.796875 14.203125 45.796875 21.1875 
Q 45.796875 27.640625 41.28125 31.265625 
Q 36.765625 34.90625 28.71875 34.90625 
L 20.21875 34.90625 
L 20.21875 43.015625 
L 29.109375 43.015625 
Q 36.375 43.015625 40.234375 45.921875 
Q 44.09375 48.828125 44.09375 54.296875 
Q 44.09375 59.90625 40.109375 62.90625 
Q 36.140625 65.921875 28.71875 65.921875 
Q 24.65625 65.921875 20.015625 65.03125 
Q 15.375 64.15625 9.8125 62.3125 
L 9.8125 71.09375 
Q 15.4375 72.65625 20.34375 73.4375 
Q 25.25 74.21875 29.59375 74.21875 
Q 40.828125 74.21875 47.359375 69.109375 
Q 53.90625 64.015625 53.90625 55.328125 
Q 53.90625 49.265625 50.4375 45.09375 
Q 46.96875 40.921875 40.578125 39.3125 
z
" id="DejaVuSans-33"/>
      </defs>
      <g transform="translate(75.012498 324.461937)scale(0.1 -0.1)">
       <use xlink:href="#DejaVuSans-32"/>
       <use x="63.623047" xlink:href="#DejaVuSans-30"/>
       <use x="127.246094" xlink:href="#DejaVuSans-30"/>
       <use x="190.869141" xlink:href="#DejaVuSans-33"/>
      </g>
     </g>
    </g>
    <g id="xtick_2">
     <g id="line2d_3">
      <path clip-path="url(#pc90aae3426)" d="M 134.966624 309.8635 
L 134.966624 23.36505 
" style="fill:none;stroke:#b0b0b0;stroke-linecap:square;stroke-width:0.8;"/>
     </g>
     <g id="line2d_4">
      <g>
       <use style="stroke:#000000;stroke-width:0.8;" x="134.966624" xlink:href="#mbf3bd28845" y="309.8635"/>
      </g>
     </g>
     <g id="text_2">
      <!-- 2005 -->
      <defs>
       <path d="M 10.796875 72.90625 
L 49.515625 72.90625 
L 49.515625 64.59375 
L 19.828125 64.59375 
L 19.828125 46.734375 
Q 21.96875 47.46875 24.109375 47.828125 
Q 26.265625 48.1875 28.421875 48.1875 
Q 40.625 48.1875 47.75 41.5 
Q 54.890625 34.8125 54.890625 23.390625 
Q 54.890625 11.625 47.5625 5.09375 
Q 40.234375 -1.421875 26.90625 -1.421875 
Q 22.3125 -1.421875 17.546875 -0.640625 
Q 12.796875 0.140625 7.71875 1.703125 
L 7.71875 11.625 
Q 12.109375 9.234375 16.796875 8.0625 
Q 21.484375 6.890625 26.703125 6.890625 
Q 35.15625 6.890625 40.078125 11.328125 
Q 45.015625 15.765625 45.015625 23.390625 
Q 45.015625 31 40.078125 35.4375 
Q 35.15625 39.890625 26.703125 39.890625 
Q 22.75 39.890625 18.8125 39.015625 
Q 14.890625 38.140625 10.796875 36.28125 
z
" id="DejaVuSans-35"/>
      </defs>
      <g transform="translate(122.241624 324.461937)scale(0.1 -0.1)">
       <use xlink:href="#DejaVuSans-32"/>
       <use x="63.623047" xlink:href="#DejaVuSans-30"/>
       <use x="127.246094" xlink:href="#DejaVuSans-30"/>
       <use x="190.869141" xlink:href="#DejaVuSans-35"/>
      </g>
     </g>
    </g>
    <g id="xtick_3">
     <g id="line2d_5">
      <path clip-path="url(#pc90aae3426)" d="M 182.13114 309.8635 
L 182.13114 23.36505 
" style="fill:none;stroke:#b0b0b0;stroke-linecap:square;stroke-width:0.8;"/>
     </g>
     <g id="line2d_6">
      <g>
       <use style="stroke:#000000;stroke-width:0.8;" x="182.13114" xlink:href="#mbf3bd28845" y="309.8635"/>
      </g>
     </g>
     <g id="text_3">
      <!-- 2007 -->
      <defs>
       <path d="M 8.203125 72.90625 
L 55.078125 72.90625 
L 55.078125 68.703125 
L 28.609375 0 
L 18.3125 0 
L 43.21875 64.59375 
L 8.203125 64.59375 
z
" id="DejaVuSans-37"/>
      </defs>
      <g transform="translate(169.40614 324.461937)scale(0.1 -0.1)">
       <use xlink:href="#DejaVuSans-32"/>
       <use x="63.623047" xlink:href="#DejaVuSans-30"/>
       <use x="127.246094" xlink:href="#DejaVuSans-30"/>
       <use x="190.869141" xlink:href="#DejaVuSans-37"/>
      </g>
     </g>
    </g>
    <g id="xtick_4">
     <g id="line2d_7">
      <path clip-path="url(#pc90aae3426)" d="M 229.360265 309.8635 
L 229.360265 23.36505 
" style="fill:none;stroke:#b0b0b0;stroke-linecap:square;stroke-width:0.8;"/>
     </g>
     <g id="line2d_8">
      <g>
       <use style="stroke:#000000;stroke-width:0.8;" x="229.360265" xlink:href="#mbf3bd28845" y="309.8635"/>
      </g>
     </g>
     <g id="text_4">
      <!-- 2009 -->
      <defs>
       <path d="M 10.984375 1.515625 
L 10.984375 10.5 
Q 14.703125 8.734375 18.5 7.8125 
Q 22.3125 6.890625 25.984375 6.890625 
Q 35.75 6.890625 40.890625 13.453125 
Q 46.046875 20.015625 46.78125 33.40625 
Q 43.953125 29.203125 39.59375 26.953125 
Q 35.25 24.703125 29.984375 24.703125 
Q 19.046875 24.703125 12.671875 31.3125 
Q 6.296875 37.9375 6.296875 49.421875 
Q 6.296875 60.640625 12.9375 67.421875 
Q 19.578125 74.21875 30.609375 74.21875 
Q 43.265625 74.21875 49.921875 64.515625 
Q 56.59375 54.828125 56.59375 36.375 
Q 56.59375 19.140625 48.40625 8.859375 
Q 40.234375 -1.421875 26.421875 -1.421875 
Q 22.703125 -1.421875 18.890625 -0.6875 
Q 15.09375 0.046875 10.984375 1.515625 
z
M 30.609375 32.421875 
Q 37.25 32.421875 41.125 36.953125 
Q 45.015625 41.5 45.015625 49.421875 
Q 45.015625 57.28125 41.125 61.84375 
Q 37.25 66.40625 30.609375 66.40625 
Q 23.96875 66.40625 20.09375 61.84375 
Q 16.21875 57.28125 16.21875 49.421875 
Q 16.21875 41.5 20.09375 36.953125 
Q 23.96875 32.421875 30.609375 32.421875 
z
" id="DejaVuSans-39"/>
      </defs>
      <g transform="translate(216.635265 324.461937)scale(0.1 -0.1)">
       <use xlink:href="#DejaVuSans-32"/>
       <use x="63.623047" xlink:href="#DejaVuSans-30"/>
       <use x="127.246094" xlink:href="#DejaVuSans-30"/>
       <use x="190.869141" xlink:href="#DejaVuSans-39"/>
      </g>
     </g>
    </g>
    <g id="xtick_5">
     <g id="line2d_9">
      <path clip-path="url(#pc90aae3426)" d="M 276.524781 309.8635 
L 276.524781 23.36505 
" style="fill:none;stroke:#b0b0b0;stroke-linecap:square;stroke-width:0.8;"/>
     </g>
     <g id="line2d_10">
      <g>
       <use style="stroke:#000000;stroke-width:0.8;" x="276.524781" xlink:href="#mbf3bd28845" y="309.8635"/>
      </g>
     </g>
     <g id="text_5">
      <!-- 2011 -->
      <defs>
       <path d="M 12.40625 8.296875 
L 28.515625 8.296875 
L 28.515625 63.921875 
L 10.984375 60.40625 
L 10.984375 69.390625 
L 28.421875 72.90625 
L 38.28125 72.90625 
L 38.28125 8.296875 
L 54.390625 8.296875 
L 54.390625 0 
L 12.40625 0 
z
" id="DejaVuSans-31"/>
      </defs>
      <g transform="translate(263.799781 324.461937)scale(0.1 -0.1)">
       <use xlink:href="#DejaVuSans-32"/>
       <use x="63.623047" xlink:href="#DejaVuSans-30"/>
       <use x="127.246094" xlink:href="#DejaVuSans-31"/>
       <use x="190.869141" xlink:href="#DejaVuSans-31"/>
      </g>
     </g>
    </g>
    <g id="xtick_6">
     <g id="line2d_11">
      <path clip-path="url(#pc90aae3426)" d="M 323.753906 309.8635 
L 323.753906 23.36505 
" style="fill:none;stroke:#b0b0b0;stroke-linecap:square;stroke-width:0.8;"/>
     </g>
     <g id="line2d_12">
      <g>
       <use style="stroke:#000000;stroke-width:0.8;" x="323.753906" xlink:href="#mbf3bd28845" y="309.8635"/>
      </g>
     </g>
     <g id="text_6">
      <!-- 2013 -->
      <g transform="translate(311.028906 324.461937)scale(0.1 -0.1)">
       <use xlink:href="#DejaVuSans-32"/>
       <use x="63.623047" xlink:href="#DejaVuSans-30"/>
       <use x="127.246094" xlink:href="#DejaVuSans-31"/>
       <use x="190.869141" xlink:href="#DejaVuSans-33"/>
      </g>
     </g>
    </g>
    <g id="xtick_7">
     <g id="line2d_13">
      <path clip-path="url(#pc90aae3426)" d="M 370.918422 309.8635 
L 370.918422 23.36505 
" style="fill:none;stroke:#b0b0b0;stroke-linecap:square;stroke-width:0.8;"/>
     </g>
     <g id="line2d_14">
      <g>
       <use style="stroke:#000000;stroke-width:0.8;" x="370.918422" xlink:href="#mbf3bd28845" y="309.8635"/>
      </g>
     </g>
     <g id="text_7">
      <!-- 2015 -->
      <g transform="translate(358.193422 324.461937)scale(0.1 -0.1)">
       <use xlink:href="#DejaVuSans-32"/>
       <use x="63.623047" xlink:href="#DejaVuSans-30"/>
       <use x="127.246094" xlink:href="#DejaVuSans-31"/>
       <use x="190.869141" xlink:href="#DejaVuSans-35"/>
      </g>
     </g>
    </g>
    <g id="xtick_8">
     <g id="line2d_15">
      <path clip-path="url(#pc90aae3426)" d="M 418.147547 309.8635 
L 418.147547 23.36505 
" style="fill:none;stroke:#b0b0b0;stroke-linecap:square;stroke-width:0.8;"/>
     </g>
     <g id="line2d_16">
      <g>
       <use style="stroke:#000000;stroke-width:0.8;" x="418.147547" xlink:href="#mbf3bd28845" y="309.8635"/>
      </g>
     </g>
     <g id="text_8">
      <!-- 2017 -->
      <g transform="translate(405.422547 324.461937)scale(0.1 -0.1)">
       <use xlink:href="#DejaVuSans-32"/>
       <use x="63.623047" xlink:href="#DejaVuSans-30"/>
       <use x="127.246094" xlink:href="#DejaVuSans-31"/>
       <use x="190.869141" xlink:href="#DejaVuSans-37"/>
      </g>
     </g>
    </g>
    <g id="text_9">
     <!-- Date -->
     <defs>
      <path d="M 19.671875 64.796875 
L 19.671875 8.109375 
L 31.59375 8.109375 
Q 46.6875 8.109375 53.6875 14.9375 
Q 60.6875 21.78125 60.6875 36.53125 
Q 60.6875 51.171875 53.6875 57.984375 
Q 46.6875 64.796875 31.59375 64.796875 
z
M 9.8125 72.90625 
L 30.078125 72.90625 
Q 51.265625 72.90625 61.171875 64.09375 
Q 71.09375 55.28125 71.09375 36.53125 
Q 71.09375 17.671875 61.125 8.828125 
Q 51.171875 0 30.078125 0 
L 9.8125 0 
z
" id="DejaVuSans-44"/>
      <path d="M 34.28125 27.484375 
Q 23.390625 27.484375 19.1875 25 
Q 14.984375 22.515625 14.984375 16.5 
Q 14.984375 11.71875 18.140625 8.90625 
Q 21.296875 6.109375 26.703125 6.109375 
Q 34.1875 6.109375 38.703125 11.40625 
Q 43.21875 16.703125 43.21875 25.484375 
L 43.21875 27.484375 
z
M 52.203125 31.203125 
L 52.203125 0 
L 43.21875 0 
L 43.21875 8.296875 
Q 40.140625 3.328125 35.546875 0.953125 
Q 30.953125 -1.421875 24.3125 -1.421875 
Q 15.921875 -1.421875 10.953125 3.296875 
Q 6 8.015625 6 15.921875 
Q 6 25.140625 12.171875 29.828125 
Q 18.359375 34.515625 30.609375 34.515625 
L 43.21875 34.515625 
L 43.21875 35.40625 
Q 43.21875 41.609375 39.140625 45 
Q 35.0625 48.390625 27.6875 48.390625 
Q 23 48.390625 18.546875 47.265625 
Q 14.109375 46.140625 10.015625 43.890625 
L 10.015625 52.203125 
Q 14.9375 54.109375 19.578125 55.046875 
Q 24.21875 56 28.609375 56 
Q 40.484375 56 46.34375 49.84375 
Q 52.203125 43.703125 52.203125 31.203125 
z
" id="DejaVuSans-61"/>
      <path d="M 18.3125 70.21875 
L 18.3125 54.6875 
L 36.8125 54.6875 
L 36.8125 47.703125 
L 18.3125 47.703125 
L 18.3125 18.015625 
Q 18.3125 11.328125 20.140625 9.421875 
Q 21.96875 7.515625 27.59375 7.515625 
L 36.8125 7.515625 
L 36.8125 0 
L 27.59375 0 
Q 17.1875 0 13.234375 3.875 
Q 9.28125 7.765625 9.28125 18.015625 
L 9.28125 47.703125 
L 2.6875 47.703125 
L 2.6875 54.6875 
L 9.28125 54.6875 
L 9.28125 70.21875 
z
" id="DejaVuSans-74"/>
      <path d="M 56.203125 29.59375 
L 56.203125 25.203125 
L 14.890625 25.203125 
Q 15.484375 15.921875 20.484375 11.0625 
Q 25.484375 6.203125 34.421875 6.203125 
Q 39.59375 6.203125 44.453125 7.46875 
Q 49.3125 8.734375 54.109375 11.28125 
L 54.109375 2.78125 
Q 49.265625 0.734375 44.1875 -0.34375 
Q 39.109375 -1.421875 33.890625 -1.421875 
Q 20.796875 -1.421875 13.15625 6.1875 
Q 5.515625 13.8125 5.515625 26.8125 
Q 5.515625 40.234375 12.765625 48.109375 
Q 20.015625 56 32.328125 56 
Q 43.359375 56 49.78125 48.890625 
Q 56.203125 41.796875 56.203125 29.59375 
z
M 47.21875 32.234375 
Q 47.125 39.59375 43.09375 43.984375 
Q 39.0625 48.390625 32.421875 48.390625 
Q 24.90625 48.390625 20.390625 44.140625 
Q 15.875 39.890625 15.1875 32.171875 
z
" id="DejaVuSans-65"/>
     </defs>
     <g transform="translate(233.044844 338.140062)scale(0.1 -0.1)">
      <use xlink:href="#DejaVuSans-44"/>
      <use x="77.001953" xlink:href="#DejaVuSans-61"/>
      <use x="138.28125" xlink:href="#DejaVuSans-74"/>
      <use x="177.490234" xlink:href="#DejaVuSans-65"/>
     </g>
    </g>
   </g>
   <g id="matplotlib.axis_2">
    <g id="ytick_1">
     <g id="line2d_17">
      <path clip-path="url(#pc90aae3426)" d="M 42.51125 309.8635 
L 447.48 309.8635 
" style="fill:none;stroke:#b0b0b0;stroke-linecap:square;stroke-width:0.8;"/>
     </g>
     <g id="line2d_18">
      <defs>
       <path d="M 0 0 
L -3.5 0 
" id="mc22f835e1d" style="stroke:#000000;stroke-width:0.8;"/>
      </defs>
      <g>
       <use style="stroke:#000000;stroke-width:0.8;" x="42.51125" xlink:href="#mc22f835e1d" y="309.8635"/>
      </g>
     </g>
     <g id="text_10">
      <!-- 0 -->
      <g transform="translate(29.14875 313.662719)scale(0.1 -0.1)">
       <use xlink:href="#DejaVuSans-30"/>
      </g>
     </g>
    </g>
    <g id="ytick_2">
     <g id="line2d_19">
      <path clip-path="url(#pc90aae3426)" d="M 42.51125 276.87007 
L 447.48 276.87007 
" style="fill:none;stroke:#b0b0b0;stroke-linecap:square;stroke-width:0.8;"/>
     </g>
     <g id="line2d_20">
      <g>
       <use style="stroke:#000000;stroke-width:0.8;" x="42.51125" xlink:href="#mc22f835e1d" y="276.87007"/>
      </g>
     </g>
     <g id="text_11">
      <!-- 100 -->
      <g transform="translate(16.42375 280.669289)scale(0.1 -0.1)">
       <use xlink:href="#DejaVuSans-31"/>
       <use x="63.623047" xlink:href="#DejaVuSans-30"/>
       <use x="127.246094" xlink:href="#DejaVuSans-30"/>
      </g>
     </g>
    </g>
    <g id="ytick_3">
     <g id="line2d_21">
      <path clip-path="url(#pc90aae3426)" d="M 42.51125 243.87664 
L 447.48 243.87664 
" style="fill:none;stroke:#b0b0b0;stroke-linecap:square;stroke-width:0.8;"/>
     </g>
     <g id="line2d_22">
      <g>
       <use style="stroke:#000000;stroke-width:0.8;" x="42.51125" xlink:href="#mc22f835e1d" y="243.87664"/>
      </g>
     </g>
     <g id="text_12">
      <!-- 200 -->
      <g transform="translate(16.42375 247.675859)scale(0.1 -0.1)">
       <use xlink:href="#DejaVuSans-32"/>
       <use x="63.623047" xlink:href="#DejaVuSans-30"/>
       <use x="127.246094" xlink:href="#DejaVuSans-30"/>
      </g>
     </g>
    </g>
    <g id="ytick_4">
     <g id="line2d_23">
      <path clip-path="url(#pc90aae3426)" d="M 42.51125 210.88321 
L 447.48 210.88321 
" style="fill:none;stroke:#b0b0b0;stroke-linecap:square;stroke-width:0.8;"/>
     </g>
     <g id="line2d_24">
      <g>
       <use style="stroke:#000000;stroke-width:0.8;" x="42.51125" xlink:href="#mc22f835e1d" y="210.88321"/>
      </g>
     </g>
     <g id="text_13">
      <!-- 300 -->
      <g transform="translate(16.42375 214.682429)scale(0.1 -0.1)">
       <use xlink:href="#DejaVuSans-33"/>
       <use x="63.623047" xlink:href="#DejaVuSans-30"/>
       <use x="127.246094" xlink:href="#DejaVuSans-30"/>
      </g>
     </g>
    </g>
    <g id="ytick_5">
     <g id="line2d_25">
      <path clip-path="url(#pc90aae3426)" d="M 42.51125 177.88978 
L 447.48 177.88978 
" style="fill:none;stroke:#b0b0b0;stroke-linecap:square;stroke-width:0.8;"/>
     </g>
     <g id="line2d_26">
      <g>
       <use style="stroke:#000000;stroke-width:0.8;" x="42.51125" xlink:href="#mc22f835e1d" y="177.88978"/>
      </g>
     </g>
     <g id="text_14">
      <!-- 400 -->
      <defs>
       <path d="M 37.796875 64.3125 
L 12.890625 25.390625 
L 37.796875 25.390625 
z
M 35.203125 72.90625 
L 47.609375 72.90625 
L 47.609375 25.390625 
L 58.015625 25.390625 
L 58.015625 17.1875 
L 47.609375 17.1875 
L 47.609375 0 
L 37.796875 0 
L 37.796875 17.1875 
L 4.890625 17.1875 
L 4.890625 26.703125 
z
" id="DejaVuSans-34"/>
      </defs>
      <g transform="translate(16.42375 181.688998)scale(0.1 -0.1)">
       <use xlink:href="#DejaVuSans-34"/>
       <use x="63.623047" xlink:href="#DejaVuSans-30"/>
       <use x="127.246094" xlink:href="#DejaVuSans-30"/>
      </g>
     </g>
    </g>
    <g id="ytick_6">
     <g id="line2d_27">
      <path clip-path="url(#pc90aae3426)" d="M 42.51125 144.89635 
L 447.48 144.89635 
" style="fill:none;stroke:#b0b0b0;stroke-linecap:square;stroke-width:0.8;"/>
     </g>
     <g id="line2d_28">
      <g>
       <use style="stroke:#000000;stroke-width:0.8;" x="42.51125" xlink:href="#mc22f835e1d" y="144.89635"/>
      </g>
     </g>
     <g id="text_15">
      <!-- 500 -->
      <g transform="translate(16.42375 148.695568)scale(0.1 -0.1)">
       <use xlink:href="#DejaVuSans-35"/>
       <use x="63.623047" xlink:href="#DejaVuSans-30"/>
       <use x="127.246094" xlink:href="#DejaVuSans-30"/>
      </g>
     </g>
    </g>
    <g id="ytick_7">
     <g id="line2d_29">
      <path clip-path="url(#pc90aae3426)" d="M 42.51125 111.90292 
L 447.48 111.90292 
" style="fill:none;stroke:#b0b0b0;stroke-linecap:square;stroke-width:0.8;"/>
     </g>
     <g id="line2d_30">
      <g>
       <use style="stroke:#000000;stroke-width:0.8;" x="42.51125" xlink:href="#mc22f835e1d" y="111.90292"/>
      </g>
     </g>
     <g id="text_16">
      <!-- 600 -->
      <defs>
       <path d="M 33.015625 40.375 
Q 26.375 40.375 22.484375 35.828125 
Q 18.609375 31.296875 18.609375 23.390625 
Q 18.609375 15.53125 22.484375 10.953125 
Q 26.375 6.390625 33.015625 6.390625 
Q 39.65625 6.390625 43.53125 10.953125 
Q 47.40625 15.53125 47.40625 23.390625 
Q 47.40625 31.296875 43.53125 35.828125 
Q 39.65625 40.375 33.015625 40.375 
z
M 52.59375 71.296875 
L 52.59375 62.3125 
Q 48.875 64.0625 45.09375 64.984375 
Q 41.3125 65.921875 37.59375 65.921875 
Q 27.828125 65.921875 22.671875 59.328125 
Q 17.53125 52.734375 16.796875 39.40625 
Q 19.671875 43.65625 24.015625 45.921875 
Q 28.375 48.1875 33.59375 48.1875 
Q 44.578125 48.1875 50.953125 41.515625 
Q 57.328125 34.859375 57.328125 23.390625 
Q 57.328125 12.15625 50.6875 5.359375 
Q 44.046875 -1.421875 33.015625 -1.421875 
Q 20.359375 -1.421875 13.671875 8.265625 
Q 6.984375 17.96875 6.984375 36.375 
Q 6.984375 53.65625 15.1875 63.9375 
Q 23.390625 74.21875 37.203125 74.21875 
Q 40.921875 74.21875 44.703125 73.484375 
Q 48.484375 72.75 52.59375 71.296875 
z
" id="DejaVuSans-36"/>
      </defs>
      <g transform="translate(16.42375 115.702138)scale(0.1 -0.1)">
       <use xlink:href="#DejaVuSans-36"/>
       <use x="63.623047" xlink:href="#DejaVuSans-30"/>
       <use x="127.246094" xlink:href="#DejaVuSans-30"/>
      </g>
     </g>
    </g>
    <g id="ytick_8">
     <g id="line2d_31">
      <path clip-path="url(#pc90aae3426)" d="M 42.51125 78.90949 
L 447.48 78.90949 
" style="fill:none;stroke:#b0b0b0;stroke-linecap:square;stroke-width:0.8;"/>
     </g>
     <g id="line2d_32">
      <g>
       <use style="stroke:#000000;stroke-width:0.8;" x="42.51125" xlink:href="#mc22f835e1d" y="78.90949"/>
      </g>
     </g>
     <g id="text_17">
      <!-- 700 -->
      <g transform="translate(16.42375 82.708708)scale(0.1 -0.1)">
       <use xlink:href="#DejaVuSans-37"/>
       <use x="63.623047" xlink:href="#DejaVuSans-30"/>
       <use x="127.246094" xlink:href="#DejaVuSans-30"/>
      </g>
     </g>
    </g>
    <g id="ytick_9">
     <g id="line2d_33">
      <path clip-path="url(#pc90aae3426)" d="M 42.51125 45.916059 
L 447.48 45.916059 
" style="fill:none;stroke:#b0b0b0;stroke-linecap:square;stroke-width:0.8;"/>
     </g>
     <g id="line2d_34">
      <g>
       <use style="stroke:#000000;stroke-width:0.8;" x="42.51125" xlink:href="#mc22f835e1d" y="45.916059"/>
      </g>
     </g>
     <g id="text_18">
      <!-- 800 -->
      <defs>
       <path d="M 31.78125 34.625 
Q 24.75 34.625 20.71875 30.859375 
Q 16.703125 27.09375 16.703125 20.515625 
Q 16.703125 13.921875 20.71875 10.15625 
Q 24.75 6.390625 31.78125 6.390625 
Q 38.8125 6.390625 42.859375 10.171875 
Q 46.921875 13.96875 46.921875 20.515625 
Q 46.921875 27.09375 42.890625 30.859375 
Q 38.875 34.625 31.78125 34.625 
z
M 21.921875 38.8125 
Q 15.578125 40.375 12.03125 44.71875 
Q 8.5 49.078125 8.5 55.328125 
Q 8.5 64.0625 14.71875 69.140625 
Q 20.953125 74.21875 31.78125 74.21875 
Q 42.671875 74.21875 48.875 69.140625 
Q 55.078125 64.0625 55.078125 55.328125 
Q 55.078125 49.078125 51.53125 44.71875 
Q 48 40.375 41.703125 38.8125 
Q 48.828125 37.15625 52.796875 32.3125 
Q 56.78125 27.484375 56.78125 20.515625 
Q 56.78125 9.90625 50.3125 4.234375 
Q 43.84375 -1.421875 31.78125 -1.421875 
Q 19.734375 -1.421875 13.25 4.234375 
Q 6.78125 9.90625 6.78125 20.515625 
Q 6.78125 27.484375 10.78125 32.3125 
Q 14.796875 37.15625 21.921875 38.8125 
z
M 18.3125 54.390625 
Q 18.3125 48.734375 21.84375 45.5625 
Q 25.390625 42.390625 31.78125 42.390625 
Q 38.140625 42.390625 41.71875 45.5625 
Q 45.3125 48.734375 45.3125 54.390625 
Q 45.3125 60.0625 41.71875 63.234375 
Q 38.140625 66.40625 31.78125 66.40625 
Q 25.390625 66.40625 21.84375 63.234375 
Q 18.3125 60.0625 18.3125 54.390625 
z
" id="DejaVuSans-38"/>
      </defs>
      <g transform="translate(16.42375 49.715278)scale(0.1 -0.1)">
       <use xlink:href="#DejaVuSans-38"/>
       <use x="63.623047" xlink:href="#DejaVuSans-30"/>
       <use x="127.246094" xlink:href="#DejaVuSans-30"/>
      </g>
     </g>
    </g>
    <g id="text_19">
     <!-- Gross load (MW) -->
     <defs>
      <path d="M 59.515625 10.40625 
L 59.515625 29.984375 
L 43.40625 29.984375 
L 43.40625 38.09375 
L 69.28125 38.09375 
L 69.28125 6.78125 
Q 63.578125 2.734375 56.6875 0.65625 
Q 49.8125 -1.421875 42 -1.421875 
Q 24.90625 -1.421875 15.25 8.5625 
Q 5.609375 18.5625 5.609375 36.375 
Q 5.609375 54.25 15.25 64.234375 
Q 24.90625 74.21875 42 74.21875 
Q 49.125 74.21875 55.546875 72.453125 
Q 61.96875 70.703125 67.390625 67.28125 
L 67.390625 56.78125 
Q 61.921875 61.421875 55.765625 63.765625 
Q 49.609375 66.109375 42.828125 66.109375 
Q 29.4375 66.109375 22.71875 58.640625 
Q 16.015625 51.171875 16.015625 36.375 
Q 16.015625 21.625 22.71875 14.15625 
Q 29.4375 6.6875 42.828125 6.6875 
Q 48.046875 6.6875 52.140625 7.59375 
Q 56.25 8.5 59.515625 10.40625 
z
" id="DejaVuSans-47"/>
      <path d="M 41.109375 46.296875 
Q 39.59375 47.171875 37.8125 47.578125 
Q 36.03125 48 33.890625 48 
Q 26.265625 48 22.1875 43.046875 
Q 18.109375 38.09375 18.109375 28.8125 
L 18.109375 0 
L 9.078125 0 
L 9.078125 54.6875 
L 18.109375 54.6875 
L 18.109375 46.1875 
Q 20.953125 51.171875 25.484375 53.578125 
Q 30.03125 56 36.53125 56 
Q 37.453125 56 38.578125 55.875 
Q 39.703125 55.765625 41.0625 55.515625 
z
" id="DejaVuSans-72"/>
      <path d="M 30.609375 48.390625 
Q 23.390625 48.390625 19.1875 42.75 
Q 14.984375 37.109375 14.984375 27.296875 
Q 14.984375 17.484375 19.15625 11.84375 
Q 23.34375 6.203125 30.609375 6.203125 
Q 37.796875 6.203125 41.984375 11.859375 
Q 46.1875 17.53125 46.1875 27.296875 
Q 46.1875 37.015625 41.984375 42.703125 
Q 37.796875 48.390625 30.609375 48.390625 
z
M 30.609375 56 
Q 42.328125 56 49.015625 48.375 
Q 55.71875 40.765625 55.71875 27.296875 
Q 55.71875 13.875 49.015625 6.21875 
Q 42.328125 -1.421875 30.609375 -1.421875 
Q 18.84375 -1.421875 12.171875 6.21875 
Q 5.515625 13.875 5.515625 27.296875 
Q 5.515625 40.765625 12.171875 48.375 
Q 18.84375 56 30.609375 56 
z
" id="DejaVuSans-6f"/>
      <path d="M 44.28125 53.078125 
L 44.28125 44.578125 
Q 40.484375 46.53125 36.375 47.5 
Q 32.28125 48.484375 27.875 48.484375 
Q 21.1875 48.484375 17.84375 46.4375 
Q 14.5 44.390625 14.5 40.28125 
Q 14.5 37.15625 16.890625 35.375 
Q 19.28125 33.59375 26.515625 31.984375 
L 29.59375 31.296875 
Q 39.15625 29.25 43.1875 25.515625 
Q 47.21875 21.78125 47.21875 15.09375 
Q 47.21875 7.46875 41.1875 3.015625 
Q 35.15625 -1.421875 24.609375 -1.421875 
Q 20.21875 -1.421875 15.453125 -0.5625 
Q 10.6875 0.296875 5.421875 2 
L 5.421875 11.28125 
Q 10.40625 8.6875 15.234375 7.390625 
Q 20.0625 6.109375 24.8125 6.109375 
Q 31.15625 6.109375 34.5625 8.28125 
Q 37.984375 10.453125 37.984375 14.40625 
Q 37.984375 18.0625 35.515625 20.015625 
Q 33.0625 21.96875 24.703125 23.78125 
L 21.578125 24.515625 
Q 13.234375 26.265625 9.515625 29.90625 
Q 5.8125 33.546875 5.8125 39.890625 
Q 5.8125 47.609375 11.28125 51.796875 
Q 16.75 56 26.8125 56 
Q 31.78125 56 36.171875 55.265625 
Q 40.578125 54.546875 44.28125 53.078125 
z
" id="DejaVuSans-73"/>
      <path id="DejaVuSans-20"/>
      <path d="M 9.421875 75.984375 
L 18.40625 75.984375 
L 18.40625 0 
L 9.421875 0 
z
" id="DejaVuSans-6c"/>
      <path d="M 45.40625 46.390625 
L 45.40625 75.984375 
L 54.390625 75.984375 
L 54.390625 0 
L 45.40625 0 
L 45.40625 8.203125 
Q 42.578125 3.328125 38.25 0.953125 
Q 33.9375 -1.421875 27.875 -1.421875 
Q 17.96875 -1.421875 11.734375 6.484375 
Q 5.515625 14.40625 5.515625 27.296875 
Q 5.515625 40.1875 11.734375 48.09375 
Q 17.96875 56 27.875 56 
Q 33.9375 56 38.25 53.625 
Q 42.578125 51.265625 45.40625 46.390625 
z
M 14.796875 27.296875 
Q 14.796875 17.390625 18.875 11.75 
Q 22.953125 6.109375 30.078125 6.109375 
Q 37.203125 6.109375 41.296875 11.75 
Q 45.40625 17.390625 45.40625 27.296875 
Q 45.40625 37.203125 41.296875 42.84375 
Q 37.203125 48.484375 30.078125 48.484375 
Q 22.953125 48.484375 18.875 42.84375 
Q 14.796875 37.203125 14.796875 27.296875 
z
" id="DejaVuSans-64"/>
      <path d="M 31 75.875 
Q 24.46875 64.65625 21.28125 53.65625 
Q 18.109375 42.671875 18.109375 31.390625 
Q 18.109375 20.125 21.3125 9.0625 
Q 24.515625 -2 31 -13.1875 
L 23.1875 -13.1875 
Q 15.875 -1.703125 12.234375 9.375 
Q 8.59375 20.453125 8.59375 31.390625 
Q 8.59375 42.28125 12.203125 53.3125 
Q 15.828125 64.359375 23.1875 75.875 
z
" id="DejaVuSans-28"/>
      <path d="M 9.8125 72.90625 
L 24.515625 72.90625 
L 43.109375 23.296875 
L 61.8125 72.90625 
L 76.515625 72.90625 
L 76.515625 0 
L 66.890625 0 
L 66.890625 64.015625 
L 48.09375 14.015625 
L 38.1875 14.015625 
L 19.390625 64.015625 
L 19.390625 0 
L 9.8125 0 
z
" id="DejaVuSans-4d"/>
      <path d="M 3.328125 72.90625 
L 13.28125 72.90625 
L 28.609375 11.28125 
L 43.890625 72.90625 
L 54.984375 72.90625 
L 70.3125 11.28125 
L 85.59375 72.90625 
L 95.609375 72.90625 
L 77.296875 0 
L 64.890625 0 
L 49.515625 63.28125 
L 33.984375 0 
L 21.578125 0 
z
" id="DejaVuSans-57"/>
      <path d="M 8.015625 75.875 
L 15.828125 75.875 
Q 23.140625 64.359375 26.78125 53.3125 
Q 30.421875 42.28125 30.421875 31.390625 
Q 30.421875 20.453125 26.78125 9.375 
Q 23.140625 -1.703125 15.828125 -13.1875 
L 8.015625 -13.1875 
Q 14.5 -2 17.703125 9.0625 
Q 20.90625 20.125 20.90625 31.390625 
Q 20.90625 42.671875 17.703125 53.65625 
Q 14.5 64.65625 8.015625 75.875 
z
" id="DejaVuSans-29"/>
     </defs>
     <g transform="translate(10.344062 207.835369)rotate(-90)scale(0.1 -0.1)">
      <use xlink:href="#DejaVuSans-47"/>
      <use x="77.490234" xlink:href="#DejaVuSans-72"/>
      <use x="118.572266" xlink:href="#DejaVuSans-6f"/>
      <use x="179.753906" xlink:href="#DejaVuSans-73"/>
      <use x="231.853516" xlink:href="#DejaVuSans-73"/>
      <use x="283.953125" xlink:href="#DejaVuSans-20"/>
      <use x="315.740234" xlink:href="#DejaVuSans-6c"/>
      <use x="343.523438" xlink:href="#DejaVuSans-6f"/>
      <use x="404.705078" xlink:href="#DejaVuSans-61"/>
      <use x="465.984375" xlink:href="#DejaVuSans-64"/>
      <use x="529.460938" xlink:href="#DejaVuSans-20"/>
      <use x="561.248047" xlink:href="#DejaVuSans-28"/>
      <use x="600.261719" xlink:href="#DejaVuSans-4d"/>
      <use x="686.541016" xlink:href="#DejaVuSans-57"/>
      <use x="785.417969" xlink:href="#DejaVuSans-29"/>
     </g>
    </g>
   </g>
   <g id="line2d_35">
    <path clip-path="url(#pc90aae3426)" d="M 42.51125 211.378111 
L 44.3203 264.662501 
L 46.323177 288.252803 
L 48.261444 294.686522 
L 50.264321 295.016456 
L 52.202589 279.839479 
L 54.205466 248.165786 
L 56.208342 230.844235 
L 58.14661 221.441107 
L 60.149487 191.74702 
L 62.087755 252.949833 
L 64.090631 266.972041 
L 66.093508 264.167599 
L 67.902558 275.385366 
L 69.905435 262.187994 
L 71.843703 276.540136 
L 73.846579 295.016456 
L 75.784847 280.499347 
L 77.787724 257.403946 
L 79.7906 238.927625 
L 81.728868 280.169413 
L 83.731745 292.047048 
L 87.672889 280.829282 
L 89.675766 294.356588 
L 91.484816 214.842421 
L 93.487693 187.12794 
L 95.425961 232.823841 
L 97.428837 274.725497 
L 99.367105 259.053618 
L 101.369982 208.57367 
L 103.372859 204.779425 
L 107.314003 232.823841 
L 109.252271 231.669071 
L 111.255148 245.526311 
L 113.258024 224.575483 
L 115.131683 221.27614 
L 117.13456 211.543078 
L 119.072828 268.78668 
L 121.075704 274.56053 
L 123.013972 258.393749 
L 125.016849 240.247363 
L 127.019726 253.774669 
L 128.957993 263.177796 
L 130.96087 277.364971 
L 132.899138 274.065628 
L 134.902015 294.356588 
L 136.904891 280.169413 
L 138.713941 293.366785 
L 140.716818 292.376982 
L 142.655086 294.686522 
L 144.657962 294.686522 
L 146.59623 273.40576 
L 148.599107 239.917428 
L 152.540251 272.580924 
L 154.543128 272.910858 
L 156.481396 294.026654 
L 158.484273 294.686522 
L 160.487149 295.016456 
L 162.296199 294.686522 
L 164.299076 270.766285 
L 166.237344 263.177796 
L 168.240221 288.582738 
L 170.178488 273.570727 
L 172.181365 232.163972 
L 174.184242 255.919242 
L 176.12251 246.846049 
L 178.125386 272.25099 
L 180.063654 243.87664 
L 182.066531 269.446548 
L 184.069408 223.750648 
L 185.878457 291.387179 
L 187.881334 294.686522 
L 189.819602 293.366785 
L 191.822479 294.686522 
L 193.760746 265.652304 
L 195.763623 233.318742 
L 197.7665 224.410516 
L 199.704768 281.984052 
L 201.707644 279.014643 
L 203.645912 257.73388 
L 205.648789 294.686522 
L 207.651666 288.747705 
L 209.525324 291.387179 
L 211.528201 278.849676 
L 213.466469 262.517928 
L 215.469346 273.240793 
L 217.407613 289.077639 
L 219.41049 267.301975 
L 221.413367 223.090779 
L 223.351635 262.682895 
L 225.354511 266.477139 
L 227.292779 280.499347 
L 229.295656 288.747705 
L 231.298533 274.56053 
L 233.107583 293.696719 
L 235.110459 294.356588 
L 237.048727 292.376982 
L 239.051604 287.757902 
L 240.989872 295.016456 
L 242.992748 273.900661 
L 244.995625 263.012829 
L 246.933893 258.723683 
L 248.93677 272.910858 
L 250.875037 293.696719 
L 252.877914 295.016456 
L 254.880791 295.676325 
L 256.689841 290.232409 
L 258.692717 294.686522 
L 262.633862 294.686522 
L 264.57213 294.026654 
L 268.577883 254.104603 
L 270.516151 264.002632 
L 272.519028 263.342764 
L 274.457295 271.261187 
L 276.460172 293.036851 
L 278.463049 293.696719 
L 280.272099 294.026654 
L 282.274975 272.910858 
L 284.213243 272.580924 
L 286.21612 274.230596 
L 288.154388 293.036851 
L 290.157264 272.580924 
L 292.160141 272.25099 
L 294.098409 272.25099 
L 296.101286 293.366785 
L 300.04243 293.366785 
L 302.045307 293.696719 
L 303.918966 293.696719 
L 305.921842 293.036851 
L 307.86011 271.591121 
L 309.862987 293.696719 
L 311.801255 293.366785 
L 313.804132 271.921055 
L 315.807008 254.434537 
L 317.745276 257.074012 
L 319.748153 256.909045 
L 321.686421 293.036851 
L 323.689297 293.036851 
L 325.692174 271.591121 
L 327.501224 263.672698 
L 329.504101 263.672698 
L 331.442368 247.34095 
L 333.445245 272.580924 
L 335.383513 293.366785 
L 337.38639 271.591121 
L 339.389266 271.921055 
L 341.327534 270.271384 
L 343.330411 271.921055 
L 345.268679 294.521555 
L 347.271555 294.686522 
L 349.274432 295.016456 
L 351.083482 273.570727 
L 353.086359 273.240793 
L 355.024626 295.346391 
L 357.027503 264.002632 
L 358.965771 273.240793 
L 360.968648 273.240793 
L 362.971524 248.165786 
L 364.909792 258.393749 
L 368.850937 294.686522 
L 370.853813 263.672698 
L 372.85669 271.261187 
L 374.66574 271.261187 
L 376.668617 271.591121 
L 378.606885 272.580924 
L 380.609761 272.580924 
L 382.548029 271.261187 
L 384.550906 271.921055 
L 386.553783 256.744078 
L 388.49205 268.456745 
L 390.494927 257.73388 
L 392.433195 262.352961 
L 394.436072 271.591121 
L 396.438948 286.438165 
L 398.312607 280.499347 
L 400.315484 260.373355 
L 402.253752 225.070385 
L 404.256628 262.682895 
L 406.194896 266.642107 
L 408.197773 225.730253 
L 410.20065 224.410516 
L 412.138917 235.793249 
L 414.141794 224.410516 
L 416.080062 266.642107 
L 418.082939 225.400319 
L 420.085815 239.587494 
L 421.894865 242.556903 
L 423.897742 292.706916 
L 425.83601 247.505917 
L 427.838886 294.686522 
L 429.777154 309.8635 
L 431.780031 240.907231 
L 433.782908 239.917428 
L 435.721175 239.422527 
L 437.724052 244.206574 
L 439.66232 253.444735 
L 441.665197 246.846049 
L 443.668073 241.237165 
L 445.477123 255.259373 
L 447.48 309.8635 
L 447.48 309.8635 
" style="fill:none;stroke:#1f77b4;stroke-linecap:square;stroke-width:1.5;"/>
   </g>
   <g id="patch_3">
    <path d="M 42.51125 309.8635 
L 42.51125 23.36505 
" style="fill:none;stroke:#000000;stroke-linecap:square;stroke-linejoin:miter;stroke-width:0.8;"/>
   </g>
   <g id="patch_4">
    <path d="M 447.48 309.8635 
L 447.48 23.36505 
" style="fill:none;stroke:#000000;stroke-linecap:square;stroke-linejoin:miter;stroke-width:0.8;"/>
   </g>
   <g id="patch_5">
    <path d="M 42.51125 309.8635 
L 447.48 309.8635 
" style="fill:none;stroke:#000000;stroke-linecap:square;stroke-linejoin:miter;stroke-width:0.8;"/>
   </g>
   <g id="patch_6">
    <path d="M 42.51125 23.36505 
L 447.48 23.36505 
" style="fill:none;stroke:#000000;stroke-linecap:square;stroke-linejoin:miter;stroke-width:0.8;"/>
   </g>
   <g id="text_20">
    <!-- Monthly gload trend -->
    <defs>
     <path d="M 54.890625 33.015625 
L 54.890625 0 
L 45.90625 0 
L 45.90625 32.71875 
Q 45.90625 40.484375 42.875 44.328125 
Q 39.84375 48.1875 33.796875 48.1875 
Q 26.515625 48.1875 22.3125 43.546875 
Q 18.109375 38.921875 18.109375 30.90625 
L 18.109375 0 
L 9.078125 0 
L 9.078125 54.6875 
L 18.109375 54.6875 
L 18.109375 46.1875 
Q 21.34375 51.125 25.703125 53.5625 
Q 30.078125 56 35.796875 56 
Q 45.21875 56 50.046875 50.171875 
Q 54.890625 44.34375 54.890625 33.015625 
z
" id="DejaVuSans-6e"/>
     <path d="M 54.890625 33.015625 
L 54.890625 0 
L 45.90625 0 
L 45.90625 32.71875 
Q 45.90625 40.484375 42.875 44.328125 
Q 39.84375 48.1875 33.796875 48.1875 
Q 26.515625 48.1875 22.3125 43.546875 
Q 18.109375 38.921875 18.109375 30.90625 
L 18.109375 0 
L 9.078125 0 
L 9.078125 75.984375 
L 18.109375 75.984375 
L 18.109375 46.1875 
Q 21.34375 51.125 25.703125 53.5625 
Q 30.078125 56 35.796875 56 
Q 45.21875 56 50.046875 50.171875 
Q 54.890625 44.34375 54.890625 33.015625 
z
" id="DejaVuSans-68"/>
     <path d="M 32.171875 -5.078125 
Q 28.375 -14.84375 24.75 -17.8125 
Q 21.140625 -20.796875 15.09375 -20.796875 
L 7.90625 -20.796875 
L 7.90625 -13.28125 
L 13.1875 -13.28125 
Q 16.890625 -13.28125 18.9375 -11.515625 
Q 21 -9.765625 23.484375 -3.21875 
L 25.09375 0.875 
L 2.984375 54.6875 
L 12.5 54.6875 
L 29.59375 11.921875 
L 46.6875 54.6875 
L 56.203125 54.6875 
z
" id="DejaVuSans-79"/>
     <path d="M 45.40625 27.984375 
Q 45.40625 37.75 41.375 43.109375 
Q 37.359375 48.484375 30.078125 48.484375 
Q 22.859375 48.484375 18.828125 43.109375 
Q 14.796875 37.75 14.796875 27.984375 
Q 14.796875 18.265625 18.828125 12.890625 
Q 22.859375 7.515625 30.078125 7.515625 
Q 37.359375 7.515625 41.375 12.890625 
Q 45.40625 18.265625 45.40625 27.984375 
z
M 54.390625 6.78125 
Q 54.390625 -7.171875 48.1875 -13.984375 
Q 42 -20.796875 29.203125 -20.796875 
Q 24.46875 -20.796875 20.265625 -20.09375 
Q 16.0625 -19.390625 12.109375 -17.921875 
L 12.109375 -9.1875 
Q 16.0625 -11.328125 19.921875 -12.34375 
Q 23.78125 -13.375 27.78125 -13.375 
Q 36.625 -13.375 41.015625 -8.765625 
Q 45.40625 -4.15625 45.40625 5.171875 
L 45.40625 9.625 
Q 42.625 4.78125 38.28125 2.390625 
Q 33.9375 0 27.875 0 
Q 17.828125 0 11.671875 7.65625 
Q 5.515625 15.328125 5.515625 27.984375 
Q 5.515625 40.671875 11.671875 48.328125 
Q 17.828125 56 27.875 56 
Q 33.9375 56 38.28125 53.609375 
Q 42.625 51.21875 45.40625 46.390625 
L 45.40625 54.6875 
L 54.390625 54.6875 
z
" id="DejaVuSans-67"/>
    </defs>
    <g transform="translate(184.405 17.36505)scale(0.12 -0.12)">
     <use xlink:href="#DejaVuSans-4d"/>
     <use x="86.279297" xlink:href="#DejaVuSans-6f"/>
     <use x="147.460938" xlink:href="#DejaVuSans-6e"/>
     <use x="210.839844" xlink:href="#DejaVuSans-74"/>
     <use x="250.048828" xlink:href="#DejaVuSans-68"/>
     <use x="313.427734" xlink:href="#DejaVuSans-6c"/>
     <use x="341.210938" xlink:href="#DejaVuSans-79"/>
     <use x="400.390625" xlink:href="#DejaVuSans-20"/>
     <use x="432.177734" xlink:href="#DejaVuSans-67"/>
     <use x="495.654297" xlink:href="#DejaVuSans-6c"/>
     <use x="523.4375" xlink:href="#DejaVuSans-6f"/>
     <use x="584.619141" xlink:href="#DejaVuSans-61"/>
     <use x="645.898438" xlink:href="#DejaVuSans-64"/>
     <use x="709.375" xlink:href="#DejaVuSans-20"/>
     <use x="741.162109" xlink:href="#DejaVuSans-74"/>
     <use x="780.371094" xlink:href="#DejaVuSans-72"/>
     <use x="821.453125" xlink:href="#DejaVuSans-65"/>
     <use x="882.976562" xlink:href="#DejaVuSans-6e"/>
     <use x="946.355469" xlink:href="#DejaVuSans-64"/>
    </g>
   </g>
  </g>
 </g>
 <defs>
  <clipPath id="pc90aae3426">
   <rect height="286.49845" width="404.96875" x="42.51125" y="23.36505"/>
  </clipPath>
 </defs>
</svg>
