<?xml version="1.0" encoding="utf-8" standalone="no"?>
<!DOCTYPE svg PUBLIC "-//W3C//DTD SVG 1.1//EN"
  "http://www.w3.org/Graphics/SVG/1.1/DTD/svg11.dtd">
<!-- Created with matplotlib (http://matplotlib.org/) -->
<svg height="345.6pt" version="1.1" viewBox="0 0 460.8 345.6" width="460.8pt" xmlns="http://www.w3.org/2000/svg" xmlns:xlink="http://www.w3.org/1999/xlink">
 <defs>
  <style type="text/css">
*{stroke-linecap:butt;stroke-linejoin:round;}
  </style>
 </defs>
 <g id="figure_1">
  <g id="patch_1">
   <path d="M 0 345.6 
L 460.8 345.6 
L 460.8 0 
L 0 0 
z
" style="fill:none;"/>
  </g>
  <g id="axes_1">
   <g id="patch_2">
    <path d="M 42.51125 309.8635 
L 447.48 309.8635 
L 447.48 23.36505 
L 42.51125 23.36505 
z
" style="fill:none;"/>
   </g>
   <g id="PolyCollection_1">
    <path clip-path="url(#p84c4771cf0)" d="M 42.51125 51.04041 
L 42.51125 172.656079 
L 44.3203 167.666718 
L 46.323177 166.731213 
L 48.261444 168.602223 
L 50.264321 188.559666 
L 52.202589 242.50713 
L 54.205466 252.174016 
L 56.208342 234.087583 
L 58.14661 170.161399 
L 60.149487 164.860203 
L 62.087755 193.549027 
L 64.090631 227.850882 
L 66.093508 178.89278 
L 67.902558 172.656079 
L 69.905435 175.150759 
L 71.843703 174.215254 
L 73.846579 168.290388 
L 75.784847 193.237192 
L 77.787724 248.431996 
L 79.7906 151.763131 
L 81.728868 110.91274 
L 83.731745 194.484532 
L 85.670013 243.442635 
L 87.672889 179.51645 
L 89.675766 139.289729 
L 91.484816 191.054347 
L 93.487693 248.743831 
L 95.425961 249.991171 
L 97.428837 248.120161 
L 99.367105 188.559666 
L 101.369982 247.49649 
L 103.372859 206.957934 
L 105.311126 173.903419 
L 107.314003 175.462594 
L 109.252271 171.408739 
L 111.255148 177.333605 
L 113.258024 213.194635 
L 115.131683 172.967914 
L 117.13456 184.193976 
L 119.072828 199.473893 
L 121.075704 193.237192 
L 123.013972 197.602883 
L 125.016849 212.25913 
L 127.019726 205.710594 
L 128.957993 124.633482 
L 130.96087 177.333605 
L 132.899138 131.493853 
L 134.902015 242.195295 
L 136.904891 251.238511 
L 138.713941 119.332286 
L 140.716818 177.02177 
L 142.655086 243.1308 
L 144.657962 248.431996 
L 146.59623 198.226553 
L 148.599107 152.698636 
L 150.601984 124.633482 
L 152.540251 249.367501 
L 154.543128 134.924038 
L 156.481396 175.150759 
L 158.484273 202.280409 
L 160.487149 249.367501 
L 162.296199 106.858884 
L 164.299076 189.807007 
L 166.237344 174.838924 
L 168.240221 226.915377 
L 170.178488 134.300368 
L 172.181365 211.323625 
L 174.184242 144.90276 
L 176.12251 131.805688 
L 178.125386 194.172697 
L 180.063654 128.375502 
L 182.066531 122.138801 
L 184.069408 170.161399 
L 185.878457 309.8635 
L 187.881334 202.904079 
L 189.819602 149.892121 
L 191.822479 146.461935 
L 193.760746 138.354224 
L 195.763623 138.354224 
L 197.7665 200.097563 
L 199.704768 206.646099 
L 201.707644 180.76379 
L 203.645912 170.473234 
L 205.648789 175.77443 
L 207.651666 170.161399 
L 209.525324 102.493193 
L 211.528201 225.668037 
L 213.466469 135.235873 
L 215.469346 246.24915 
L 217.407613 205.398759 
L 219.41049 218.183996 
L 221.413367 178.26911 
L 223.351635 174.215254 
L 225.354511 231.904738 
L 227.292779 170.473234 
L 229.295656 123.697977 
L 231.298533 149.580286 
L 233.107583 169.225894 
L 235.110459 245.00181 
L 237.048727 217.872161 
L 239.051604 201.968574 
L 240.989872 218.495831 
L 242.992748 214.13014 
L 244.995625 244.066305 
L 246.933893 196.979213 
L 248.93677 179.204615 
L 250.875037 195.108202 
L 252.877914 257.475212 
L 254.880791 196.043708 
L 256.689841 141.160739 
L 258.692717 212.570965 
L 260.630985 245.00181 
L 262.633862 264.959253 
L 264.57213 245.62548 
L 266.575006 188.559666 
L 268.577883 250.303006 
L 270.516151 223.173357 
L 272.519028 270.260449 
L 274.457295 259.969892 
L 276.460172 214.13014 
L 278.463049 219.431336 
L 280.272099 245.00181 
L 282.274975 215.689316 
L 284.213243 253.733191 
L 286.21612 215.689316 
L 288.154388 213.50647 
L 290.157264 224.732532 
L 292.160141 281.174676 
L 294.098409 213.818305 
L 296.101286 211.323625 
L 298.039553 219.743171 
L 300.04243 175.77443 
L 302.045307 193.549027 
L 303.918966 202.592244 
L 305.921842 216.936656 
L 307.86011 266.206593 
L 309.862987 206.957934 
L 311.801255 149.26845 
L 313.804132 206.646099 
L 315.807008 213.818305 
L 317.745276 188.559666 
L 319.748153 201.968574 
L 321.686421 197.914718 
L 323.689297 264.647418 
L 325.692174 148.02111 
L 327.501224 182.946636 
L 329.504101 146.461935 
L 331.442368 220.678676 
L 333.445245 194.172697 
L 335.383513 132.117523 
L 337.38639 156.128822 
L 339.389266 144.90276 
L 341.327534 163.301028 
L 343.330411 248.743831 
L 345.268679 189.183337 
L 347.271555 252.797686 
L 349.274432 272.443294 
L 351.083482 151.763131 
L 353.086359 192.301687 
L 355.024626 233.775748 
L 357.027503 213.818305 
L 358.965771 204.151419 
L 360.968648 185.441316 
L 362.971524 193.549027 
L 364.909792 168.914058 
L 366.912669 173.903419 
L 368.850937 194.172697 
L 370.853813 164.236533 
L 372.85669 202.592244 
L 374.66574 188.559666 
L 376.668617 216.312986 
L 378.606885 259.658057 
L 380.609761 247.808326 
L 382.548029 199.473893 
L 384.550906 251.862181 
L 386.553783 191.678017 
L 388.49205 193.237192 
L 390.494927 201.344903 
L 392.433195 164.860203 
L 394.436072 154.257811 
L 396.438948 182.01113 
L 398.312607 191.366182 
L 400.315484 247.184655 
L 402.253752 221.614182 
L 404.256628 154.257811 
L 406.194896 215.065646 
L 408.197773 141.472574 
L 410.20065 205.710594 
L 412.138917 217.560326 
L 414.141794 250.926676 
L 416.080062 207.581604 
L 418.082939 191.054347 
L 420.085815 142.096244 
L 421.894865 211.323625 
L 423.897742 263.711913 
L 425.83601 285.852201 
L 427.838886 247.49649 
L 429.777154 163.301028 
L 431.780031 211.01179 
L 433.782908 189.495172 
L 435.721175 223.485192 
L 437.724052 223.173357 
L 439.66232 234.087583 
L 441.665197 240.012449 
L 443.668073 184.193976 
L 445.477123 186.688656 
L 447.48 220.366841 
L 447.48 62.890142 
L 447.48 62.890142 
L 445.477123 65.384823 
L 443.668073 66.632163 
L 441.665197 66.320328 
L 439.66232 65.696658 
L 437.724052 77.54639 
L 435.721175 66.008493 
L 433.782908 66.320328 
L 431.780031 65.384823 
L 429.777154 60.083627 
L 427.838886 63.825647 
L 425.83601 172.967914 
L 423.897742 69.126843 
L 421.894865 66.320328 
L 420.085815 64.449318 
L 418.082939 65.072988 
L 416.080062 61.954637 
L 414.141794 66.008493 
L 412.138917 66.008493 
L 410.20065 75.675379 
L 408.197773 74.116204 
L 406.194896 72.557029 
L 404.256628 69.438678 
L 402.253752 69.126843 
L 400.315484 71.933359 
L 398.312607 71.309689 
L 396.438948 69.126843 
L 394.436072 69.438678 
L 392.433195 70.062348 
L 390.494927 66.632163 
L 388.49205 66.632163 
L 386.553783 69.750513 
L 384.550906 70.374183 
L 382.548029 76.299049 
L 380.609761 76.610884 
L 378.606885 75.363544 
L 376.668617 75.051709 
L 374.66574 70.686018 
L 372.85669 70.062348 
L 370.853813 71.309689 
L 368.850937 66.632163 
L 366.912669 66.632163 
L 364.909792 65.384823 
L 362.971524 68.503173 
L 360.968648 70.997854 
L 358.965771 70.374183 
L 357.027503 73.180699 
L 355.024626 68.191338 
L 353.086359 68.503173 
L 351.083482 68.191338 
L 349.274432 78.79373 
L 347.271555 75.675379 
L 345.268679 72.245194 
L 343.330411 75.675379 
L 341.327534 91.890802 
L 339.389266 85.342266 
L 337.38639 85.342266 
L 335.383513 71.933359 
L 333.445245 69.438678 
L 331.442368 61.019132 
L 329.504101 71.309689 
L 327.501224 69.438678 
L 325.692174 69.750513 
L 323.689297 76.610884 
L 321.686421 76.610884 
L 319.748153 72.868864 
L 317.745276 70.686018 
L 315.807008 74.739874 
L 313.804132 76.922719 
L 311.801255 73.804369 
L 309.862987 72.868864 
L 307.86011 94.697317 
L 305.921842 75.051709 
L 303.918966 68.503173 
L 302.045307 70.997854 
L 300.04243 74.116204 
L 298.039553 70.686018 
L 296.101286 71.933359 
L 294.098409 66.008493 
L 292.160141 65.696658 
L 290.157264 68.191338 
L 288.154388 69.750513 
L 286.21612 63.825647 
L 284.213243 60.395462 
L 282.274975 71.933359 
L 280.272099 75.051709 
L 278.463049 74.116204 
L 276.460172 75.051709 
L 274.457295 84.406761 
L 272.519028 70.062348 
L 270.516151 66.008493 
L 268.577883 70.997854 
L 266.575006 65.696658 
L 264.57213 65.696658 
L 262.633862 79.105565 
L 260.630985 132.117523 
L 258.692717 61.019132 
L 256.689841 61.330967 
L 254.880791 64.137482 
L 252.877914 67.255833 
L 250.875037 53.535091 
L 248.93677 56.341606 
L 246.933893 57.900782 
L 244.995625 56.341606 
L 242.992748 56.341606 
L 240.989872 55.717936 
L 239.051604 163.612863 
L 237.048727 162.989193 
L 235.110459 73.180699 
L 233.107583 58.524452 
L 231.298533 59.148122 
L 229.295656 56.965276 
L 227.292779 52.911421 
L 225.354511 73.804369 
L 223.351635 62.578307 
L 221.413367 59.148122 
L 219.41049 59.771792 
L 217.407613 56.029771 
L 215.469346 66.943998 
L 213.466469 60.395462 
L 211.528201 61.330967 
L 209.525324 61.019132 
L 207.651666 56.029771 
L 205.648789 53.846926 
L 203.645912 37.007833 
L 201.707644 56.029771 
L 199.704768 56.653441 
L 197.7665 61.642802 
L 195.763623 60.083627 
L 193.760746 58.524452 
L 191.822479 57.277111 
L 189.819602 57.900782 
L 187.881334 66.320328 
L 185.878457 63.825647 
L 184.069408 66.320328 
L 182.066531 61.019132 
L 180.063654 62.578307 
L 178.125386 57.900782 
L 176.12251 61.954637 
L 174.184242 64.761153 
L 172.181365 66.943998 
L 170.178488 64.449318 
L 168.240221 63.825647 
L 166.237344 61.019132 
L 164.299076 60.083627 
L 162.296199 55.717936 
L 160.487149 55.406101 
L 158.484273 53.846926 
L 156.481396 52.287751 
L 154.543128 51.664081 
L 152.540251 53.223256 
L 150.601984 56.029771 
L 148.599107 56.653441 
L 146.59623 53.223256 
L 144.657962 127.128162 
L 142.655086 54.782431 
L 140.716818 51.975916 
L 138.713941 53.535091 
L 136.904891 52.911421 
L 134.902015 50.104905 
L 132.899138 50.41674 
L 130.96087 57.277111 
L 128.957993 57.900782 
L 127.019726 55.094266 
L 125.016849 56.341606 
L 123.013972 55.717936 
L 121.075704 56.965276 
L 119.072828 52.911421 
L 117.13456 54.782431 
L 115.131683 54.470596 
L 113.258024 55.406101 
L 111.255148 53.846926 
L 109.252271 50.728575 
L 107.314003 59.459957 
L 105.311126 55.406101 
L 103.372859 58.212617 
L 101.369982 58.524452 
L 99.367105 60.395462 
L 97.428837 60.395462 
L 95.425961 166.419378 
L 93.487693 69.750513 
L 91.484816 59.771792 
L 89.675766 57.588946 
L 87.672889 59.148122 
L 85.670013 54.782431 
L 83.731745 56.341606 
L 81.728868 57.588946 
L 79.7906 59.771792 
L 77.787724 61.330967 
L 75.784847 62.266472 
L 73.846579 61.954637 
L 71.843703 56.965276 
L 69.905435 54.470596 
L 67.902558 52.911421 
L 66.093508 54.782431 
L 64.090631 56.965276 
L 62.087755 55.406101 
L 60.149487 54.158761 
L 58.14661 59.459957 
L 56.208342 60.083627 
L 54.205466 53.535091 
L 52.202589 51.04041 
L 50.264321 52.599586 
L 48.261444 50.104905 
L 46.323177 50.41674 
L 44.3203 52.287751 
L 42.51125 51.04041 
z
" style="fill:#808080;fill-opacity:0.3;"/>
   </g>
   <g id="PolyCollection_2">
    <path clip-path="url(#p84c4771cf0)" d="M 42.51125 55.717936 
L 42.51125 128.999172 
L 44.3203 89.707956 
L 46.323177 63.825647 
L 48.261444 95.320987 
L 50.264321 165.561832 
L 52.202589 167.354883 
L 54.205466 134.612203 
L 56.208342 172.967914 
L 58.14661 73.258658 
L 60.149487 80.742699 
L 62.087755 71.621524 
L 64.090631 99.374843 
L 66.093508 134.300368 
L 67.902558 65.384823 
L 69.905435 67.567668 
L 71.843703 74.116204 
L 73.846579 99.374843 
L 75.784847 107.170719 
L 77.787724 173.357708 
L 79.7906 114.03109 
L 81.728868 72.868864 
L 83.731745 76.922719 
L 85.670013 90.565503 
L 87.672889 76.065173 
L 89.675766 71.933359 
L 91.484816 93.138142 
L 93.487693 173.357708 
L 95.425961 196.667378 
L 97.428837 171.408739 
L 99.367105 171.408739 
L 101.369982 96.334451 
L 103.372859 119.176368 
L 105.311126 83.861049 
L 107.314003 109.041729 
L 109.252271 61.954637 
L 111.255148 66.943998 
L 113.258024 94.073647 
L 115.131683 66.943998 
L 117.13456 131.493853 
L 119.072828 100.076472 
L 121.075704 97.815668 
L 123.013972 117.851069 
L 125.016849 135.859543 
L 127.019726 80.66474 
L 128.957993 68.191338 
L 130.96087 97.893626 
L 132.899138 57.666905 
L 134.902015 89.084286 
L 136.904891 80.430864 
L 138.713941 63.201977 
L 140.716818 91.578967 
L 142.655086 173.279749 
L 144.657962 141.550533 
L 146.59623 138.120348 
L 148.599107 84.796554 
L 150.601984 75.675379 
L 152.540251 132.117523 
L 154.543128 64.761153 
L 156.481396 87.836946 
L 158.484273 67.255833 
L 160.487149 88.85041 
L 162.296199 73.492534 
L 164.299076 141.238698 
L 166.237344 83.15942 
L 168.240221 138.977894 
L 170.178488 88.772451 
L 172.181365 115.044554 
L 174.184242 91.267132 
L 176.12251 84.094926 
L 178.125386 143.65542 
L 180.063654 74.428039 
L 182.066531 74.428039 
L 184.069408 90.643462 
L 185.878457 95.320987 
L 187.881334 111.224575 
L 189.819602 95.944657 
L 191.822479 99.374843 
L 193.760746 85.342266 
L 195.763623 79.105565 
L 197.7665 98.595255 
L 199.704768 168.056512 
L 201.707644 109.743358 
L 203.645912 80.508822 
L 205.648789 100.15443 
L 207.651666 66.320328 
L 209.525324 67.957462 
L 211.528201 162.677358 
L 213.466469 101.245853 
L 215.469346 110.133152 
L 217.407613 168.290388 
L 219.41049 90.019791 
L 221.413367 93.449977 
L 223.351635 106.235214 
L 225.354511 129.622842 
L 227.292779 115.356389 
L 229.295656 77.078637 
L 231.298533 86.901441 
L 233.107583 85.965936 
L 235.110459 168.914058 
L 237.048727 167.978553 
L 239.051604 170.239357 
L 240.989872 167.354883 
L 242.992748 101.635647 
L 244.995625 140.848904 
L 246.933893 100.310348 
L 248.93677 109.041729 
L 250.875037 132.507317 
L 252.877914 169.225894 
L 254.880791 127.050203 
L 256.689841 91.96876 
L 258.692717 151.451296 
L 260.630985 167.666718 
L 262.633862 156.440657 
L 264.57213 133.520781 
L 266.575006 158.311667 
L 268.577883 153.634141 
L 270.516151 144.590925 
L 272.519028 198.850223 
L 274.457295 180.685832 
L 276.460172 152.074966 
L 278.463049 151.529255 
L 280.272099 142.096244 
L 282.274975 182.946636 
L 284.213243 103.428698 
L 286.21612 125.179193 
L 288.154388 121.671049 
L 290.157264 175.462594 
L 292.160141 109.665399 
L 294.098409 115.590265 
L 296.101286 118.864533 
L 298.039553 154.101894 
L 300.04243 140.303193 
L 302.045307 129.311007 
L 303.918966 138.666059 
L 305.921842 186.064986 
L 307.86011 248.431996 
L 309.862987 135.313832 
L 311.801255 113.40742 
L 313.804132 100.622183 
L 315.807008 111.770286 
L 317.745276 113.095585 
L 319.748153 133.364863 
L 321.686421 115.9021 
L 323.689297 143.421543 
L 325.692174 120.267791 
L 327.501224 126.192657 
L 329.504101 110.990698 
L 331.442368 113.095585 
L 333.445245 104.987874 
L 335.383513 91.267132 
L 337.38639 104.676039 
L 339.389266 102.181358 
L 341.327534 131.182018 
L 343.330411 188.013955 
L 345.268679 125.568987 
L 347.271555 120.891461 
L 349.274432 157.142285 
L 351.083482 118.084946 
L 353.086359 135.001997 
L 355.024626 142.719914 
L 357.027503 144.90276 
L 358.965771 114.65476 
L 360.968648 97.503833 
L 362.971524 143.65542 
L 364.909792 108.184183 
L 366.912669 116.837606 
L 368.850937 130.558348 
L 370.853813 109.119688 
L 372.85669 118.396781 
L 374.66574 100.076472 
L 376.668617 123.074306 
L 378.606885 149.26845 
L 380.609761 148.332945 
L 382.548029 111.848245 
L 384.550906 144.357048 
L 386.553783 94.775276 
L 388.49205 117.305358 
L 390.494927 108.418059 
L 392.433195 109.041729 
L 394.436072 121.515131 
L 396.438948 108.418059 
L 398.312607 151.763131 
L 400.315484 216.936656 
L 402.253752 149.580286 
L 404.256628 117.773111 
L 406.194896 115.668224 
L 408.197773 93.138142 
L 410.20065 149.580286 
L 412.138917 154.33577 
L 414.141794 147.085605 
L 416.080062 99.140967 
L 418.082939 99.764637 
L 420.085815 105.611544 
L 421.894865 128.297544 
L 423.897742 242.273253 
L 425.83601 246.560985 
L 427.838886 159.247172 
L 429.777154 99.063008 
L 431.780031 164.39245 
L 433.782908 103.740534 
L 435.721175 138.354224 
L 437.724052 169.537729 
L 439.66232 219.19746 
L 441.665197 196.589419 
L 443.668073 136.873007 
L 445.477123 108.573977 
L 447.48 135.859543 
L 447.48 78.17006 
L 447.48 78.17006 
L 445.477123 74.116204 
L 443.668073 87.836946 
L 441.665197 93.683853 
L 439.66232 136.405255 
L 437.724052 126.426533 
L 435.721175 84.406761 
L 433.782908 74.116204 
L 431.780031 86.901441 
L 429.777154 69.750513 
L 427.838886 83.15942 
L 425.83601 195.731873 
L 423.897742 121.515131 
L 421.894865 83.15942 
L 420.085815 69.126843 
L 418.082939 76.922719 
L 416.080062 69.750513 
L 414.141794 75.831297 
L 412.138917 76.299049 
L 410.20065 90.955297 
L 408.197773 80.66474 
L 406.194896 81.91208 
L 404.256628 80.04107 
L 402.253752 100.310348 
L 400.315484 111.770286 
L 398.312607 100.544224 
L 396.438948 75.987214 
L 394.436072 78.17006 
L 392.433195 75.675379 
L 390.494927 74.116204 
L 388.49205 76.922719 
L 386.553783 78.17006 
L 384.550906 81.28841 
L 382.548029 89.396121 
L 380.609761 138.977894 
L 378.606885 85.030431 
L 376.668617 93.138142 
L 374.66574 77.858225 
L 372.85669 78.715771 
L 370.853813 75.675379 
L 368.850937 72.790905 
L 366.912669 76.299049 
L 364.909792 76.922719 
L 362.971524 81.600245 
L 360.968648 76.610884 
L 358.965771 77.858225 
L 357.027503 82.847585 
L 355.024626 104.676039 
L 353.086359 79.339441 
L 351.083482 78.481895 
L 349.274432 110.91274 
L 347.271555 84.406761 
L 345.268679 84.718596 
L 343.330411 88.148781 
L 341.327534 101.557688 
L 339.389266 93.995688 
L 337.38639 93.761812 
L 335.383513 79.105565 
L 333.445245 80.976575 
L 331.442368 72.245194 
L 329.504101 79.105565 
L 327.501224 76.299049 
L 325.692174 84.406761 
L 323.689297 85.965936 
L 321.686421 83.15942 
L 319.748153 86.277771 
L 317.745276 78.17006 
L 315.807008 84.718596 
L 313.804132 86.277771 
L 311.801255 83.78309 
L 309.862987 83.15942 
L 307.86011 186.064986 
L 305.921842 124.009812 
L 303.918966 76.922719 
L 302.045307 95.476905 
L 300.04243 81.600245 
L 298.039553 80.352905 
L 296.101286 83.081462 
L 294.098409 74.739874 
L 292.160141 74.116204 
L 290.157264 75.363544 
L 288.154388 75.675379 
L 286.21612 70.997854 
L 284.213243 71.621524 
L 282.274975 78.79373 
L 280.272099 91.890802 
L 278.463049 119.644121 
L 276.460172 93.449977 
L 274.457295 99.998513 
L 272.519028 85.342266 
L 270.516151 83.15942 
L 268.577883 106.46909 
L 266.575006 80.976575 
L 264.57213 89.084286 
L 262.633862 139.289729 
L 260.630985 135.859543 
L 258.692717 93.761812 
L 256.689841 70.686018 
L 254.880791 72.557029 
L 252.877914 94.073647 
L 250.875037 57.588946 
L 248.93677 67.879503 
L 246.933893 71.8554 
L 244.995625 71.309689 
L 242.992748 66.943998 
L 240.989872 71.23173 
L 239.051604 165.795708 
L 237.048727 165.795708 
L 235.110459 165.172038 
L 233.107583 65.696658 
L 231.298533 64.761153 
L 229.295656 62.890142 
L 227.292779 61.253008 
L 225.354511 96.568327 
L 223.351635 75.909256 
L 221.413367 74.428039 
L 219.41049 71.933359 
L 217.407613 65.306864 
L 215.469346 99.998513 
L 213.466469 67.567668 
L 211.528201 67.879503 
L 209.525324 65.072988 
L 207.651666 61.330967 
L 205.648789 61.954637 
L 203.645912 60.707297 
L 201.707644 63.825647 
L 199.704768 63.513812 
L 197.7665 66.943998 
L 195.763623 66.632163 
L 193.760746 66.866039 
L 191.822479 69.438678 
L 189.819602 67.255833 
L 187.881334 93.761812 
L 185.878457 69.98439 
L 184.069408 70.997854 
L 182.066531 70.997854 
L 180.063654 68.503173 
L 178.125386 65.384823 
L 176.12251 69.438678 
L 174.184242 75.675379 
L 172.181365 78.403936 
L 170.178488 72.557029 
L 168.240221 74.116204 
L 166.237344 67.879503 
L 164.299076 69.36072 
L 162.296199 61.954637 
L 160.487149 59.148122 
L 158.484273 57.277111 
L 156.481396 59.148122 
L 154.543128 55.717936 
L 152.540251 60.005668 
L 150.601984 64.761153 
L 148.599107 64.761153 
L 146.59623 80.976575 
L 144.657962 131.493853 
L 142.655086 90.955297 
L 140.716818 59.459957 
L 138.713941 58.524452 
L 136.904891 60.083627 
L 134.902015 56.653441 
L 132.899138 54.470596 
L 130.96087 64.761153 
L 128.957993 63.435854 
L 127.019726 61.954637 
L 125.016849 62.578307 
L 123.013972 64.683194 
L 121.075704 62.266472 
L 119.072828 59.148122 
L 117.13456 61.954637 
L 115.131683 58.524452 
L 113.258024 59.771792 
L 111.255148 57.588946 
L 109.252271 56.029771 
L 107.314003 92.826307 
L 105.311126 61.019132 
L 103.372859 74.97375 
L 101.369982 68.815008 
L 99.367105 68.191338 
L 97.428837 130.246513 
L 95.425961 170.161399 
L 93.487693 76.299049 
L 91.484816 66.320328 
L 89.675766 65.696658 
L 87.672889 65.384823 
L 85.670013 61.642802 
L 83.731745 63.825647 
L 81.728868 65.384823 
L 79.7906 69.438678 
L 77.787724 71.621524 
L 75.784847 69.438678 
L 73.846579 67.879503 
L 71.843703 62.890142 
L 69.905435 62.266472 
L 67.902558 59.771792 
L 66.093508 62.890142 
L 64.090631 63.825647 
L 62.087755 60.707297 
L 60.149487 63.825647 
L 58.14661 64.761153 
L 56.208342 68.737049 
L 54.205466 61.642802 
L 52.202589 78.481895 
L 50.264321 61.019132 
L 48.261444 60.083627 
L 46.323177 57.588946 
L 44.3203 57.588946 
L 42.51125 55.717936 
z
" style="fill:#808080;fill-opacity:0.6;"/>
   </g>
   <g id="matplotlib.axis_1">
    <g id="xtick_1">
     <g id="line2d_1">
      <path clip-path="url(#p84c4771cf0)" d="M 87.737498 309.8635 
L 87.737498 23.36505 
" style="fill:none;stroke:#b0b0b0;stroke-linecap:square;stroke-width:0.8;"/>
     </g>
     <g id="line2d_2">
      <defs>
       <path d="M 0 0 
L 0 3.5 
" id="mf36ee24e2e" style="stroke:#000000;stroke-width:0.8;"/>
      </defs>
      <g>
       <use style="stroke:#000000;stroke-width:0.8;" x="87.737498" xlink:href="#mf36ee24e2e" y="309.8635"/>
      </g>
     </g>
     <g id="text_1">
      <!-- 2003 -->
      <defs>
       <path d="M 19.1875 8.296875 
L 53.609375 8.296875 
L 53.609375 0 
L 7.328125 0 
L 7.328125 8.296875 
Q 12.9375 14.109375 22.625 23.890625 
Q 32.328125 33.6875 34.8125 36.53125 
Q 39.546875 41.84375 41.421875 45.53125 
Q 43.3125 49.21875 43.3125 52.78125 
Q 43.3125 58.59375 39.234375 62.25 
Q 35.15625 65.921875 28.609375 65.921875 
Q 23.96875 65.921875 18.8125 64.3125 
Q 13.671875 62.703125 7.8125 59.421875 
L 7.8125 69.390625 
Q 13.765625 71.78125 18.9375 73 
Q 24.125 74.21875 28.421875 74.21875 
Q 39.75 74.21875 46.484375 68.546875 
Q 53.21875 62.890625 53.21875 53.421875 
Q 53.21875 48.921875 51.53125 44.890625 
Q 49.859375 40.875 45.40625 35.40625 
Q 44.1875 33.984375 37.640625 27.21875 
Q 31.109375 20.453125 19.1875 8.296875 
z
" id="DejaVuSans-32"/>
       <path d="M 31.78125 66.40625 
Q 24.171875 66.40625 20.328125 58.90625 
Q 16.5 51.421875 16.5 36.375 
Q 16.5 21.390625 20.328125 13.890625 
Q 24.171875 6.390625 31.78125 6.390625 
Q 39.453125 6.390625 43.28125 13.890625 
Q 47.125 21.390625 47.125 36.375 
Q 47.125 51.421875 43.28125 58.90625 
Q 39.453125 66.40625 31.78125 66.40625 
z
M 31.78125 74.21875 
Q 44.046875 74.21875 50.515625 64.515625 
Q 56.984375 54.828125 56.984375 36.375 
Q 56.984375 17.96875 50.515625 8.265625 
Q 44.046875 -1.421875 31.78125 -1.421875 
Q 19.53125 -1.421875 13.0625 8.265625 
Q 6.59375 17.96875 6.59375 36.375 
Q 6.59375 54.828125 13.0625 64.515625 
Q 19.53125 74.21875 31.78125 74.21875 
z
" id="DejaVuSans-30"/>
       <path d="M 40.578125 39.3125 
Q 47.65625 37.796875 51.625 33 
Q 55.609375 28.21875 55.609375 21.1875 
Q 55.609375 10.40625 48.1875 4.484375 
Q 40.765625 -1.421875 27.09375 -1.421875 
Q 22.515625 -1.421875 17.65625 -0.515625 
Q 12.796875 0.390625 7.625 2.203125 
L 7.625 11.71875 
Q 11.71875 9.328125 16.59375 8.109375 
Q 21.484375 6.890625 26.8125 6.890625 
Q 36.078125 6.890625 40.9375 10.546875 
Q 45.796875 14.203125 45.796875 21.1875 
Q 45.796875 27.640625 41.28125 31.265625 
Q 36.765625 34.90625 28.71875 34.90625 
L 20.21875 34.90625 
L 20.21875 43.015625 
L 29.109375 43.015625 
Q 36.375 43.015625 40.234375 45.921875 
Q 44.09375 48.828125 44.09375 54.296875 
Q 44.09375 59.90625 40.109375 62.90625 
Q 36.140625 65.921875 28.71875 65.921875 
Q 24.65625 65.921875 20.015625 65.03125 
Q 15.375 64.15625 9.8125 62.3125 
L 9.8125 71.09375 
Q 15.4375 72.65625 20.34375 73.4375 
Q 25.25 74.21875 29.59375 74.21875 
Q 40.828125 74.21875 47.359375 69.109375 
Q 53.90625 64.015625 53.90625 55.328125 
Q 53.90625 49.265625 50.4375 45.09375 
Q 46.96875 40.921875 40.578125 39.3125 
z
" id="DejaVuSans-33"/>
      </defs>
      <g transform="translate(75.012498 324.461937)scale(0.1 -0.1)">
       <use xlink:href="#DejaVuSans-32"/>
       <use x="63.623047" xlink:href="#DejaVuSans-30"/>
       <use x="127.246094" xlink:href="#DejaVuSans-30"/>
       <use x="190.869141" xlink:href="#DejaVuSans-33"/>
      </g>
     </g>
    </g>
    <g id="xtick_2">
     <g id="line2d_3">
      <path clip-path="url(#p84c4771cf0)" d="M 134.966624 309.8635 
L 134.966624 23.36505 
" style="fill:none;stroke:#b0b0b0;stroke-linecap:square;stroke-width:0.8;"/>
     </g>
     <g id="line2d_4">
      <g>
       <use style="stroke:#000000;stroke-width:0.8;" x="134.966624" xlink:href="#mf36ee24e2e" y="309.8635"/>
      </g>
     </g>
     <g id="text_2">
      <!-- 2005 -->
      <defs>
       <path d="M 10.796875 72.90625 
L 49.515625 72.90625 
L 49.515625 64.59375 
L 19.828125 64.59375 
L 19.828125 46.734375 
Q 21.96875 47.46875 24.109375 47.828125 
Q 26.265625 48.1875 28.421875 48.1875 
Q 40.625 48.1875 47.75 41.5 
Q 54.890625 34.8125 54.890625 23.390625 
Q 54.890625 11.625 47.5625 5.09375 
Q 40.234375 -1.421875 26.90625 -1.421875 
Q 22.3125 -1.421875 17.546875 -0.640625 
Q 12.796875 0.140625 7.71875 1.703125 
L 7.71875 11.625 
Q 12.109375 9.234375 16.796875 8.0625 
Q 21.484375 6.890625 26.703125 6.890625 
Q 35.15625 6.890625 40.078125 11.328125 
Q 45.015625 15.765625 45.015625 23.390625 
Q 45.015625 31 40.078125 35.4375 
Q 35.15625 39.890625 26.703125 39.890625 
Q 22.75 39.890625 18.8125 39.015625 
Q 14.890625 38.140625 10.796875 36.28125 
z
" id="DejaVuSans-35"/>
      </defs>
      <g transform="translate(122.241624 324.461937)scale(0.1 -0.1)">
       <use xlink:href="#DejaVuSans-32"/>
       <use x="63.623047" xlink:href="#DejaVuSans-30"/>
       <use x="127.246094" xlink:href="#DejaVuSans-30"/>
       <use x="190.869141" xlink:href="#DejaVuSans-35"/>
      </g>
     </g>
    </g>
    <g id="xtick_3">
     <g id="line2d_5">
      <path clip-path="url(#p84c4771cf0)" d="M 182.13114 309.8635 
L 182.13114 23.36505 
" style="fill:none;stroke:#b0b0b0;stroke-linecap:square;stroke-width:0.8;"/>
     </g>
     <g id="line2d_6">
      <g>
       <use style="stroke:#000000;stroke-width:0.8;" x="182.13114" xlink:href="#mf36ee24e2e" y="309.8635"/>
      </g>
     </g>
     <g id="text_3">
      <!-- 2007 -->
      <defs>
       <path d="M 8.203125 72.90625 
L 55.078125 72.90625 
L 55.078125 68.703125 
L 28.609375 0 
L 18.3125 0 
L 43.21875 64.59375 
L 8.203125 64.59375 
z
" id="DejaVuSans-37"/>
      </defs>
      <g transform="translate(169.40614 324.461937)scale(0.1 -0.1)">
       <use xlink:href="#DejaVuSans-32"/>
       <use x="63.623047" xlink:href="#DejaVuSans-30"/>
       <use x="127.246094" xlink:href="#DejaVuSans-30"/>
       <use x="190.869141" xlink:href="#DejaVuSans-37"/>
      </g>
     </g>
    </g>
    <g id="xtick_4">
     <g id="line2d_7">
      <path clip-path="url(#p84c4771cf0)" d="M 229.360265 309.8635 
L 229.360265 23.36505 
" style="fill:none;stroke:#b0b0b0;stroke-linecap:square;stroke-width:0.8;"/>
     </g>
     <g id="line2d_8">
      <g>
       <use style="stroke:#000000;stroke-width:0.8;" x="229.360265" xlink:href="#mf36ee24e2e" y="309.8635"/>
      </g>
     </g>
     <g id="text_4">
      <!-- 2009 -->
      <defs>
       <path d="M 10.984375 1.515625 
L 10.984375 10.5 
Q 14.703125 8.734375 18.5 7.8125 
Q 22.3125 6.890625 25.984375 6.890625 
Q 35.75 6.890625 40.890625 13.453125 
Q 46.046875 20.015625 46.78125 33.40625 
Q 43.953125 29.203125 39.59375 26.953125 
Q 35.25 24.703125 29.984375 24.703125 
Q 19.046875 24.703125 12.671875 31.3125 
Q 6.296875 37.9375 6.296875 49.421875 
Q 6.296875 60.640625 12.9375 67.421875 
Q 19.578125 74.21875 30.609375 74.21875 
Q 43.265625 74.21875 49.921875 64.515625 
Q 56.59375 54.828125 56.59375 36.375 
Q 56.59375 19.140625 48.40625 8.859375 
Q 40.234375 -1.421875 26.421875 -1.421875 
Q 22.703125 -1.421875 18.890625 -0.6875 
Q 15.09375 0.046875 10.984375 1.515625 
z
M 30.609375 32.421875 
Q 37.25 32.421875 41.125 36.953125 
Q 45.015625 41.5 45.015625 49.421875 
Q 45.015625 57.28125 41.125 61.84375 
Q 37.25 66.40625 30.609375 66.40625 
Q 23.96875 66.40625 20.09375 61.84375 
Q 16.21875 57.28125 16.21875 49.421875 
Q 16.21875 41.5 20.09375 36.953125 
Q 23.96875 32.421875 30.609375 32.421875 
z
" id="DejaVuSans-39"/>
      </defs>
      <g transform="translate(216.635265 324.461937)scale(0.1 -0.1)">
       <use xlink:href="#DejaVuSans-32"/>
       <use x="63.623047" xlink:href="#DejaVuSans-30"/>
       <use x="127.246094" xlink:href="#DejaVuSans-30"/>
       <use x="190.869141" xlink:href="#DejaVuSans-39"/>
      </g>
     </g>
    </g>
    <g id="xtick_5">
     <g id="line2d_9">
      <path clip-path="url(#p84c4771cf0)" d="M 276.524781 309.8635 
L 276.524781 23.36505 
" style="fill:none;stroke:#b0b0b0;stroke-linecap:square;stroke-width:0.8;"/>
     </g>
     <g id="line2d_10">
      <g>
       <use style="stroke:#000000;stroke-width:0.8;" x="276.524781" xlink:href="#mf36ee24e2e" y="309.8635"/>
      </g>
     </g>
     <g id="text_5">
      <!-- 2011 -->
      <defs>
       <path d="M 12.40625 8.296875 
L 28.515625 8.296875 
L 28.515625 63.921875 
L 10.984375 60.40625 
L 10.984375 69.390625 
L 28.421875 72.90625 
L 38.28125 72.90625 
L 38.28125 8.296875 
L 54.390625 8.296875 
L 54.390625 0 
L 12.40625 0 
z
" id="DejaVuSans-31"/>
      </defs>
      <g transform="translate(263.799781 324.461937)scale(0.1 -0.1)">
       <use xlink:href="#DejaVuSans-32"/>
       <use x="63.623047" xlink:href="#DejaVuSans-30"/>
       <use x="127.246094" xlink:href="#DejaVuSans-31"/>
       <use x="190.869141" xlink:href="#DejaVuSans-31"/>
      </g>
     </g>
    </g>
    <g id="xtick_6">
     <g id="line2d_11">
      <path clip-path="url(#p84c4771cf0)" d="M 323.753906 309.8635 
L 323.753906 23.36505 
" style="fill:none;stroke:#b0b0b0;stroke-linecap:square;stroke-width:0.8;"/>
     </g>
     <g id="line2d_12">
      <g>
       <use style="stroke:#000000;stroke-width:0.8;" x="323.753906" xlink:href="#mf36ee24e2e" y="309.8635"/>
      </g>
     </g>
     <g id="text_6">
      <!-- 2013 -->
      <g transform="translate(311.028906 324.461937)scale(0.1 -0.1)">
       <use xlink:href="#DejaVuSans-32"/>
       <use x="63.623047" xlink:href="#DejaVuSans-30"/>
       <use x="127.246094" xlink:href="#DejaVuSans-31"/>
       <use x="190.869141" xlink:href="#DejaVuSans-33"/>
      </g>
     </g>
    </g>
    <g id="xtick_7">
     <g id="line2d_13">
      <path clip-path="url(#p84c4771cf0)" d="M 370.918422 309.8635 
L 370.918422 23.36505 
" style="fill:none;stroke:#b0b0b0;stroke-linecap:square;stroke-width:0.8;"/>
     </g>
     <g id="line2d_14">
      <g>
       <use style="stroke:#000000;stroke-width:0.8;" x="370.918422" xlink:href="#mf36ee24e2e" y="309.8635"/>
      </g>
     </g>
     <g id="text_7">
      <!-- 2015 -->
      <g transform="translate(358.193422 324.461937)scale(0.1 -0.1)">
       <use xlink:href="#DejaVuSans-32"/>
       <use x="63.623047" xlink:href="#DejaVuSans-30"/>
       <use x="127.246094" xlink:href="#DejaVuSans-31"/>
       <use x="190.869141" xlink:href="#DejaVuSans-35"/>
      </g>
     </g>
    </g>
    <g id="xtick_8">
     <g id="line2d_15">
      <path clip-path="url(#p84c4771cf0)" d="M 418.147547 309.8635 
L 418.147547 23.36505 
" style="fill:none;stroke:#b0b0b0;stroke-linecap:square;stroke-width:0.8;"/>
     </g>
     <g id="line2d_16">
      <g>
       <use style="stroke:#000000;stroke-width:0.8;" x="418.147547" xlink:href="#mf36ee24e2e" y="309.8635"/>
      </g>
     </g>
     <g id="text_8">
      <!-- 2017 -->
      <g transform="translate(405.422547 324.461937)scale(0.1 -0.1)">
       <use xlink:href="#DejaVuSans-32"/>
       <use x="63.623047" xlink:href="#DejaVuSans-30"/>
       <use x="127.246094" xlink:href="#DejaVuSans-31"/>
       <use x="190.869141" xlink:href="#DejaVuSans-37"/>
      </g>
     </g>
    </g>
    <g id="text_9">
     <!-- Date -->
     <defs>
      <path d="M 19.671875 64.796875 
L 19.671875 8.109375 
L 31.59375 8.109375 
Q 46.6875 8.109375 53.6875 14.9375 
Q 60.6875 21.78125 60.6875 36.53125 
Q 60.6875 51.171875 53.6875 57.984375 
Q 46.6875 64.796875 31.59375 64.796875 
z
M 9.8125 72.90625 
L 30.078125 72.90625 
Q 51.265625 72.90625 61.171875 64.09375 
Q 71.09375 55.28125 71.09375 36.53125 
Q 71.09375 17.671875 61.125 8.828125 
Q 51.171875 0 30.078125 0 
L 9.8125 0 
z
" id="DejaVuSans-44"/>
      <path d="M 34.28125 27.484375 
Q 23.390625 27.484375 19.1875 25 
Q 14.984375 22.515625 14.984375 16.5 
Q 14.984375 11.71875 18.140625 8.90625 
Q 21.296875 6.109375 26.703125 6.109375 
Q 34.1875 6.109375 38.703125 11.40625 
Q 43.21875 16.703125 43.21875 25.484375 
L 43.21875 27.484375 
z
M 52.203125 31.203125 
L 52.203125 0 
L 43.21875 0 
L 43.21875 8.296875 
Q 40.140625 3.328125 35.546875 0.953125 
Q 30.953125 -1.421875 24.3125 -1.421875 
Q 15.921875 -1.421875 10.953125 3.296875 
Q 6 8.015625 6 15.921875 
Q 6 25.140625 12.171875 29.828125 
Q 18.359375 34.515625 30.609375 34.515625 
L 43.21875 34.515625 
L 43.21875 35.40625 
Q 43.21875 41.609375 39.140625 45 
Q 35.0625 48.390625 27.6875 48.390625 
Q 23 48.390625 18.546875 47.265625 
Q 14.109375 46.140625 10.015625 43.890625 
L 10.015625 52.203125 
Q 14.9375 54.109375 19.578125 55.046875 
Q 24.21875 56 28.609375 56 
Q 40.484375 56 46.34375 49.84375 
Q 52.203125 43.703125 52.203125 31.203125 
z
" id="DejaVuSans-61"/>
      <path d="M 18.3125 70.21875 
L 18.3125 54.6875 
L 36.8125 54.6875 
L 36.8125 47.703125 
L 18.3125 47.703125 
L 18.3125 18.015625 
Q 18.3125 11.328125 20.140625 9.421875 
Q 21.96875 7.515625 27.59375 7.515625 
L 36.8125 7.515625 
L 36.8125 0 
L 27.59375 0 
Q 17.1875 0 13.234375 3.875 
Q 9.28125 7.765625 9.28125 18.015625 
L 9.28125 47.703125 
L 2.6875 47.703125 
L 2.6875 54.6875 
L 9.28125 54.6875 
L 9.28125 70.21875 
z
" id="DejaVuSans-74"/>
      <path d="M 56.203125 29.59375 
L 56.203125 25.203125 
L 14.890625 25.203125 
Q 15.484375 15.921875 20.484375 11.0625 
Q 25.484375 6.203125 34.421875 6.203125 
Q 39.59375 6.203125 44.453125 7.46875 
Q 49.3125 8.734375 54.109375 11.28125 
L 54.109375 2.78125 
Q 49.265625 0.734375 44.1875 -0.34375 
Q 39.109375 -1.421875 33.890625 -1.421875 
Q 20.796875 -1.421875 13.15625 6.1875 
Q 5.515625 13.8125 5.515625 26.8125 
Q 5.515625 40.234375 12.765625 48.109375 
Q 20.015625 56 32.328125 56 
Q 43.359375 56 49.78125 48.890625 
Q 56.203125 41.796875 56.203125 29.59375 
z
M 47.21875 32.234375 
Q 47.125 39.59375 43.09375 43.984375 
Q 39.0625 48.390625 32.421875 48.390625 
Q 24.90625 48.390625 20.390625 44.140625 
Q 15.875 39.890625 15.1875 32.171875 
z
" id="DejaVuSans-65"/>
     </defs>
     <g transform="translate(233.044844 338.140062)scale(0.1 -0.1)">
      <use xlink:href="#DejaVuSans-44"/>
      <use x="77.001953" xlink:href="#DejaVuSans-61"/>
      <use x="138.28125" xlink:href="#DejaVuSans-74"/>
      <use x="177.490234" xlink:href="#DejaVuSans-65"/>
     </g>
    </g>
   </g>
   <g id="matplotlib.axis_2">
    <g id="ytick_1">
     <g id="line2d_17">
      <path clip-path="url(#p84c4771cf0)" d="M 42.51125 309.8635 
L 447.48 309.8635 
" style="fill:none;stroke:#b0b0b0;stroke-linecap:square;stroke-width:0.8;"/>
     </g>
     <g id="line2d_18">
      <defs>
       <path d="M 0 0 
L -3.5 0 
" id="m402d352cfb" style="stroke:#000000;stroke-width:0.8;"/>
      </defs>
      <g>
       <use style="stroke:#000000;stroke-width:0.8;" x="42.51125" xlink:href="#m402d352cfb" y="309.8635"/>
      </g>
     </g>
     <g id="text_10">
      <!-- 0 -->
      <g transform="translate(29.14875 313.662719)scale(0.1 -0.1)">
       <use xlink:href="#DejaVuSans-30"/>
      </g>
     </g>
    </g>
    <g id="ytick_2">
     <g id="line2d_19">
      <path clip-path="url(#p84c4771cf0)" d="M 42.51125 247.49649 
L 447.48 247.49649 
" style="fill:none;stroke:#b0b0b0;stroke-linecap:square;stroke-width:0.8;"/>
     </g>
     <g id="line2d_20">
      <g>
       <use style="stroke:#000000;stroke-width:0.8;" x="42.51125" xlink:href="#m402d352cfb" y="247.49649"/>
      </g>
     </g>
     <g id="text_11">
      <!-- 200 -->
      <g transform="translate(16.42375 251.295709)scale(0.1 -0.1)">
       <use xlink:href="#DejaVuSans-32"/>
       <use x="63.623047" xlink:href="#DejaVuSans-30"/>
       <use x="127.246094" xlink:href="#DejaVuSans-30"/>
      </g>
     </g>
    </g>
    <g id="ytick_3">
     <g id="line2d_21">
      <path clip-path="url(#p84c4771cf0)" d="M 42.51125 185.129481 
L 447.48 185.129481 
" style="fill:none;stroke:#b0b0b0;stroke-linecap:square;stroke-width:0.8;"/>
     </g>
     <g id="line2d_22">
      <g>
       <use style="stroke:#000000;stroke-width:0.8;" x="42.51125" xlink:href="#m402d352cfb" y="185.129481"/>
      </g>
     </g>
     <g id="text_12">
      <!-- 400 -->
      <defs>
       <path d="M 37.796875 64.3125 
L 12.890625 25.390625 
L 37.796875 25.390625 
z
M 35.203125 72.90625 
L 47.609375 72.90625 
L 47.609375 25.390625 
L 58.015625 25.390625 
L 58.015625 17.1875 
L 47.609375 17.1875 
L 47.609375 0 
L 37.796875 0 
L 37.796875 17.1875 
L 4.890625 17.1875 
L 4.890625 26.703125 
z
" id="DejaVuSans-34"/>
      </defs>
      <g transform="translate(16.42375 188.9287)scale(0.1 -0.1)">
       <use xlink:href="#DejaVuSans-34"/>
       <use x="63.623047" xlink:href="#DejaVuSans-30"/>
       <use x="127.246094" xlink:href="#DejaVuSans-30"/>
      </g>
     </g>
    </g>
    <g id="ytick_4">
     <g id="line2d_23">
      <path clip-path="url(#p84c4771cf0)" d="M 42.51125 122.762471 
L 447.48 122.762471 
" style="fill:none;stroke:#b0b0b0;stroke-linecap:square;stroke-width:0.8;"/>
     </g>
     <g id="line2d_24">
      <g>
       <use style="stroke:#000000;stroke-width:0.8;" x="42.51125" xlink:href="#m402d352cfb" y="122.762471"/>
      </g>
     </g>
     <g id="text_13">
      <!-- 600 -->
      <defs>
       <path d="M 33.015625 40.375 
Q 26.375 40.375 22.484375 35.828125 
Q 18.609375 31.296875 18.609375 23.390625 
Q 18.609375 15.53125 22.484375 10.953125 
Q 26.375 6.390625 33.015625 6.390625 
Q 39.65625 6.390625 43.53125 10.953125 
Q 47.40625 15.53125 47.40625 23.390625 
Q 47.40625 31.296875 43.53125 35.828125 
Q 39.65625 40.375 33.015625 40.375 
z
M 52.59375 71.296875 
L 52.59375 62.3125 
Q 48.875 64.0625 45.09375 64.984375 
Q 41.3125 65.921875 37.59375 65.921875 
Q 27.828125 65.921875 22.671875 59.328125 
Q 17.53125 52.734375 16.796875 39.40625 
Q 19.671875 43.65625 24.015625 45.921875 
Q 28.375 48.1875 33.59375 48.1875 
Q 44.578125 48.1875 50.953125 41.515625 
Q 57.328125 34.859375 57.328125 23.390625 
Q 57.328125 12.15625 50.6875 5.359375 
Q 44.046875 -1.421875 33.015625 -1.421875 
Q 20.359375 -1.421875 13.671875 8.265625 
Q 6.984375 17.96875 6.984375 36.375 
Q 6.984375 53.65625 15.1875 63.9375 
Q 23.390625 74.21875 37.203125 74.21875 
Q 40.921875 74.21875 44.703125 73.484375 
Q 48.484375 72.75 52.59375 71.296875 
z
" id="DejaVuSans-36"/>
      </defs>
      <g transform="translate(16.42375 126.56169)scale(0.1 -0.1)">
       <use xlink:href="#DejaVuSans-36"/>
       <use x="63.623047" xlink:href="#DejaVuSans-30"/>
       <use x="127.246094" xlink:href="#DejaVuSans-30"/>
      </g>
     </g>
    </g>
    <g id="ytick_5">
     <g id="line2d_25">
      <path clip-path="url(#p84c4771cf0)" d="M 42.51125 60.395462 
L 447.48 60.395462 
" style="fill:none;stroke:#b0b0b0;stroke-linecap:square;stroke-width:0.8;"/>
     </g>
     <g id="line2d_26">
      <g>
       <use style="stroke:#000000;stroke-width:0.8;" x="42.51125" xlink:href="#m402d352cfb" y="60.395462"/>
      </g>
     </g>
     <g id="text_14">
      <!-- 800 -->
      <defs>
       <path d="M 31.78125 34.625 
Q 24.75 34.625 20.71875 30.859375 
Q 16.703125 27.09375 16.703125 20.515625 
Q 16.703125 13.921875 20.71875 10.15625 
Q 24.75 6.390625 31.78125 6.390625 
Q 38.8125 6.390625 42.859375 10.171875 
Q 46.921875 13.96875 46.921875 20.515625 
Q 46.921875 27.09375 42.890625 30.859375 
Q 38.875 34.625 31.78125 34.625 
z
M 21.921875 38.8125 
Q 15.578125 40.375 12.03125 44.71875 
Q 8.5 49.078125 8.5 55.328125 
Q 8.5 64.0625 14.71875 69.140625 
Q 20.953125 74.21875 31.78125 74.21875 
Q 42.671875 74.21875 48.875 69.140625 
Q 55.078125 64.0625 55.078125 55.328125 
Q 55.078125 49.078125 51.53125 44.71875 
Q 48 40.375 41.703125 38.8125 
Q 48.828125 37.15625 52.796875 32.3125 
Q 56.78125 27.484375 56.78125 20.515625 
Q 56.78125 9.90625 50.3125 4.234375 
Q 43.84375 -1.421875 31.78125 -1.421875 
Q 19.734375 -1.421875 13.25 4.234375 
Q 6.78125 9.90625 6.78125 20.515625 
Q 6.78125 27.484375 10.78125 32.3125 
Q 14.796875 37.15625 21.921875 38.8125 
z
M 18.3125 54.390625 
Q 18.3125 48.734375 21.84375 45.5625 
Q 25.390625 42.390625 31.78125 42.390625 
Q 38.140625 42.390625 41.71875 45.5625 
Q 45.3125 48.734375 45.3125 54.390625 
Q 45.3125 60.0625 41.71875 63.234375 
Q 38.140625 66.40625 31.78125 66.40625 
Q 25.390625 66.40625 21.84375 63.234375 
Q 18.3125 60.0625 18.3125 54.390625 
z
" id="DejaVuSans-38"/>
      </defs>
      <g transform="translate(16.42375 64.194681)scale(0.1 -0.1)">
       <use xlink:href="#DejaVuSans-38"/>
       <use x="63.623047" xlink:href="#DejaVuSans-30"/>
       <use x="127.246094" xlink:href="#DejaVuSans-30"/>
      </g>
     </g>
    </g>
    <g id="text_15">
     <!-- Gross load (MW) -->
     <defs>
      <path d="M 59.515625 10.40625 
L 59.515625 29.984375 
L 43.40625 29.984375 
L 43.40625 38.09375 
L 69.28125 38.09375 
L 69.28125 6.78125 
Q 63.578125 2.734375 56.6875 0.65625 
Q 49.8125 -1.421875 42 -1.421875 
Q 24.90625 -1.421875 15.25 8.5625 
Q 5.609375 18.5625 5.609375 36.375 
Q 5.609375 54.25 15.25 64.234375 
Q 24.90625 74.21875 42 74.21875 
Q 49.125 74.21875 55.546875 72.453125 
Q 61.96875 70.703125 67.390625 67.28125 
L 67.390625 56.78125 
Q 61.921875 61.421875 55.765625 63.765625 
Q 49.609375 66.109375 42.828125 66.109375 
Q 29.4375 66.109375 22.71875 58.640625 
Q 16.015625 51.171875 16.015625 36.375 
Q 16.015625 21.625 22.71875 14.15625 
Q 29.4375 6.6875 42.828125 6.6875 
Q 48.046875 6.6875 52.140625 7.59375 
Q 56.25 8.5 59.515625 10.40625 
z
" id="DejaVuSans-47"/>
      <path d="M 41.109375 46.296875 
Q 39.59375 47.171875 37.8125 47.578125 
Q 36.03125 48 33.890625 48 
Q 26.265625 48 22.1875 43.046875 
Q 18.109375 38.09375 18.109375 28.8125 
L 18.109375 0 
L 9.078125 0 
L 9.078125 54.6875 
L 18.109375 54.6875 
L 18.109375 46.1875 
Q 20.953125 51.171875 25.484375 53.578125 
Q 30.03125 56 36.53125 56 
Q 37.453125 56 38.578125 55.875 
Q 39.703125 55.765625 41.0625 55.515625 
z
" id="DejaVuSans-72"/>
      <path d="M 30.609375 48.390625 
Q 23.390625 48.390625 19.1875 42.75 
Q 14.984375 37.109375 14.984375 27.296875 
Q 14.984375 17.484375 19.15625 11.84375 
Q 23.34375 6.203125 30.609375 6.203125 
Q 37.796875 6.203125 41.984375 11.859375 
Q 46.1875 17.53125 46.1875 27.296875 
Q 46.1875 37.015625 41.984375 42.703125 
Q 37.796875 48.390625 30.609375 48.390625 
z
M 30.609375 56 
Q 42.328125 56 49.015625 48.375 
Q 55.71875 40.765625 55.71875 27.296875 
Q 55.71875 13.875 49.015625 6.21875 
Q 42.328125 -1.421875 30.609375 -1.421875 
Q 18.84375 -1.421875 12.171875 6.21875 
Q 5.515625 13.875 5.515625 27.296875 
Q 5.515625 40.765625 12.171875 48.375 
Q 18.84375 56 30.609375 56 
z
" id="DejaVuSans-6f"/>
      <path d="M 44.28125 53.078125 
L 44.28125 44.578125 
Q 40.484375 46.53125 36.375 47.5 
Q 32.28125 48.484375 27.875 48.484375 
Q 21.1875 48.484375 17.84375 46.4375 
Q 14.5 44.390625 14.5 40.28125 
Q 14.5 37.15625 16.890625 35.375 
Q 19.28125 33.59375 26.515625 31.984375 
L 29.59375 31.296875 
Q 39.15625 29.25 43.1875 25.515625 
Q 47.21875 21.78125 47.21875 15.09375 
Q 47.21875 7.46875 41.1875 3.015625 
Q 35.15625 -1.421875 24.609375 -1.421875 
Q 20.21875 -1.421875 15.453125 -0.5625 
Q 10.6875 0.296875 5.421875 2 
L 5.421875 11.28125 
Q 10.40625 8.6875 15.234375 7.390625 
Q 20.0625 6.109375 24.8125 6.109375 
Q 31.15625 6.109375 34.5625 8.28125 
Q 37.984375 10.453125 37.984375 14.40625 
Q 37.984375 18.0625 35.515625 20.015625 
Q 33.0625 21.96875 24.703125 23.78125 
L 21.578125 24.515625 
Q 13.234375 26.265625 9.515625 29.90625 
Q 5.8125 33.546875 5.8125 39.890625 
Q 5.8125 47.609375 11.28125 51.796875 
Q 16.75 56 26.8125 56 
Q 31.78125 56 36.171875 55.265625 
Q 40.578125 54.546875 44.28125 53.078125 
z
" id="DejaVuSans-73"/>
      <path id="DejaVuSans-20"/>
      <path d="M 9.421875 75.984375 
L 18.40625 75.984375 
L 18.40625 0 
L 9.421875 0 
z
" id="DejaVuSans-6c"/>
      <path d="M 45.40625 46.390625 
L 45.40625 75.984375 
L 54.390625 75.984375 
L 54.390625 0 
L 45.40625 0 
L 45.40625 8.203125 
Q 42.578125 3.328125 38.25 0.953125 
Q 33.9375 -1.421875 27.875 -1.421875 
Q 17.96875 -1.421875 11.734375 6.484375 
Q 5.515625 14.40625 5.515625 27.296875 
Q 5.515625 40.1875 11.734375 48.09375 
Q 17.96875 56 27.875 56 
Q 33.9375 56 38.25 53.625 
Q 42.578125 51.265625 45.40625 46.390625 
z
M 14.796875 27.296875 
Q 14.796875 17.390625 18.875 11.75 
Q 22.953125 6.109375 30.078125 6.109375 
Q 37.203125 6.109375 41.296875 11.75 
Q 45.40625 17.390625 45.40625 27.296875 
Q 45.40625 37.203125 41.296875 42.84375 
Q 37.203125 48.484375 30.078125 48.484375 
Q 22.953125 48.484375 18.875 42.84375 
Q 14.796875 37.203125 14.796875 27.296875 
z
" id="DejaVuSans-64"/>
      <path d="M 31 75.875 
Q 24.46875 64.65625 21.28125 53.65625 
Q 18.109375 42.671875 18.109375 31.390625 
Q 18.109375 20.125 21.3125 9.0625 
Q 24.515625 -2 31 -13.1875 
L 23.1875 -13.1875 
Q 15.875 -1.703125 12.234375 9.375 
Q 8.59375 20.453125 8.59375 31.390625 
Q 8.59375 42.28125 12.203125 53.3125 
Q 15.828125 64.359375 23.1875 75.875 
z
" id="DejaVuSans-28"/>
      <path d="M 9.8125 72.90625 
L 24.515625 72.90625 
L 43.109375 23.296875 
L 61.8125 72.90625 
L 76.515625 72.90625 
L 76.515625 0 
L 66.890625 0 
L 66.890625 64.015625 
L 48.09375 14.015625 
L 38.1875 14.015625 
L 19.390625 64.015625 
L 19.390625 0 
L 9.8125 0 
z
" id="DejaVuSans-4d"/>
      <path d="M 3.328125 72.90625 
L 13.28125 72.90625 
L 28.609375 11.28125 
L 43.890625 72.90625 
L 54.984375 72.90625 
L 70.3125 11.28125 
L 85.59375 72.90625 
L 95.609375 72.90625 
L 77.296875 0 
L 64.890625 0 
L 49.515625 63.28125 
L 33.984375 0 
L 21.578125 0 
z
" id="DejaVuSans-57"/>
      <path d="M 8.015625 75.875 
L 15.828125 75.875 
Q 23.140625 64.359375 26.78125 53.3125 
Q 30.421875 42.28125 30.421875 31.390625 
Q 30.421875 20.453125 26.78125 9.375 
Q 23.140625 -1.703125 15.828125 -13.1875 
L 8.015625 -13.1875 
Q 14.5 -2 17.703125 9.0625 
Q 20.90625 20.125 20.90625 31.390625 
Q 20.90625 42.671875 17.703125 53.65625 
Q 14.5 64.65625 8.015625 75.875 
z
" id="DejaVuSans-29"/>
     </defs>
     <g transform="translate(10.344062 207.835369)rotate(-90)scale(0.1 -0.1)">
      <use xlink:href="#DejaVuSans-47"/>
      <use x="77.490234" xlink:href="#DejaVuSans-72"/>
      <use x="118.572266" xlink:href="#DejaVuSans-6f"/>
      <use x="179.753906" xlink:href="#DejaVuSans-73"/>
      <use x="231.853516" xlink:href="#DejaVuSans-73"/>
      <use x="283.953125" xlink:href="#DejaVuSans-20"/>
      <use x="315.740234" xlink:href="#DejaVuSans-6c"/>
      <use x="343.523438" xlink:href="#DejaVuSans-6f"/>
      <use x="404.705078" xlink:href="#DejaVuSans-61"/>
      <use x="465.984375" xlink:href="#DejaVuSans-64"/>
      <use x="529.460938" xlink:href="#DejaVuSans-20"/>
      <use x="561.248047" xlink:href="#DejaVuSans-28"/>
      <use x="600.261719" xlink:href="#DejaVuSans-4d"/>
      <use x="686.541016" xlink:href="#DejaVuSans-57"/>
      <use x="785.417969" xlink:href="#DejaVuSans-29"/>
     </g>
    </g>
   </g>
   <g id="line2d_27">
    <path clip-path="url(#p84c4771cf0)" d="M 42.51125 98.439338 
L 44.3203 65.696658 
L 46.323177 60.083627 
L 48.261444 65.384823 
L 50.264321 70.062348 
L 52.202589 133.208946 
L 54.205466 70.530101 
L 56.208342 86.277771 
L 58.14661 67.255833 
L 60.149487 67.879503 
L 62.087755 62.890142 
L 64.090631 67.41175 
L 66.093508 67.567668 
L 67.902558 61.330967 
L 69.905435 64.449318 
L 71.843703 65.696658 
L 73.846579 72.245194 
L 75.784847 75.363544 
L 77.787724 79.4174 
L 79.7906 76.922719 
L 81.728868 68.815008 
L 83.731745 66.008493 
L 85.670013 65.072988 
L 87.672889 69.126843 
L 89.675766 67.879503 
L 91.484816 70.218266 
L 93.487693 100.778101 
L 95.425961 171.408739 
L 97.428837 140.848904 
L 99.367105 82.067998 
L 101.369982 75.051709 
L 103.372859 90.331626 
L 105.311126 64.761153 
L 107.314003 95.944657 
L 109.252271 58.524452 
L 111.255148 61.330967 
L 113.258024 62.734225 
L 115.131683 60.707297 
L 117.13456 93.761812 
L 119.072828 90.643462 
L 121.075704 67.099915 
L 123.013972 93.761812 
L 125.016849 73.492534 
L 127.019726 66.008493 
L 128.957993 65.384823 
L 130.96087 68.815008 
L 132.899138 55.717936 
L 134.902015 61.642802 
L 136.904891 71.465606 
L 138.713941 60.707297 
L 140.716818 62.734225 
L 142.655086 171.408739 
L 144.657962 135.547708 
L 146.59623 110.133152 
L 148.599107 70.686018 
L 150.601984 68.815008 
L 152.540251 73.336616 
L 154.543128 59.459957 
L 156.481396 64.761153 
L 158.484273 60.083627 
L 160.487149 61.642802 
L 162.296199 65.072988 
L 164.299076 77.390472 
L 166.237344 72.245194 
L 168.240221 82.379833 
L 170.178488 77.54639 
L 172.181365 85.654101 
L 174.184242 81.444328 
L 176.12251 76.610884 
L 178.125386 72.245194 
L 180.063654 70.686018 
L 182.066531 72.245194 
L 184.069408 74.116204 
L 185.878457 73.180699 
L 187.881334 96.880162 
L 189.819602 92.514472 
L 191.822479 93.449977 
L 193.760746 73.492534 
L 195.763623 72.245194 
L 197.7665 70.374183 
L 199.704768 69.282761 
L 201.707644 86.433688 
L 203.645912 62.890142 
L 205.648789 67.567668 
L 207.651666 63.66973 
L 209.525324 66.320328 
L 211.528201 78.014142 
L 213.466469 70.374183 
L 215.469346 102.181358 
L 217.407613 76.922719 
L 219.41049 78.17006 
L 221.413367 80.976575 
L 223.351635 92.826307 
L 225.354511 103.116863 
L 227.292779 66.320328 
L 229.295656 66.008493 
L 231.298533 67.879503 
L 233.107583 69.126843 
L 235.110459 166.731213 
L 237.048727 166.731213 
L 239.051604 167.043048 
L 240.989872 113.875173 
L 242.992748 73.804369 
L 244.995625 80.196987 
L 246.933893 83.003503 
L 248.93677 77.54639 
L 250.875037 74.116204 
L 252.877914 122.918389 
L 254.880791 91.890802 
L 256.689841 78.481895 
L 258.692717 133.988533 
L 260.630985 138.354224 
L 262.633862 149.26845 
L 264.57213 108.262142 
L 266.575006 109.665399 
L 268.577883 146.461935 
L 270.516151 102.181358 
L 272.519028 117.773111 
L 274.457295 134.924038 
L 276.460172 113.563338 
L 278.463049 141.316657 
L 280.272099 131.805688 
L 282.274975 95.16507 
L 284.213243 90.331626 
L 286.21612 78.79373 
L 288.154388 80.66474 
L 290.157264 103.740534 
L 292.160141 82.53575 
L 294.098409 87.992864 
L 296.101286 105.299709 
L 298.039553 137.418719 
L 300.04243 111.380492 
L 302.045307 123.386142 
L 303.918966 112.315997 
L 305.921842 157.376162 
L 307.86011 191.989852 
L 309.862987 110.91274 
L 311.801255 97.815668 
L 313.804132 92.202637 
L 315.807008 89.084286 
L 317.745276 83.15942 
L 319.748153 99.374843 
L 321.686421 95.16507 
L 323.689297 102.805028 
L 325.692174 102.493193 
L 327.501224 83.471255 
L 329.504101 87.836946 
L 331.442368 80.04107 
L 333.445245 89.084286 
L 335.383513 83.471255 
L 337.38639 97.191998 
L 339.389266 96.256492 
L 341.327534 104.676039 
L 343.330411 129.311007 
L 345.268679 92.202637 
L 347.271555 96.880162 
L 349.274432 128.843255 
L 351.083482 102.493193 
L 353.086359 110.600905 
L 355.024626 127.128162 
L 357.027503 108.262142 
L 358.965771 85.965936 
L 360.968648 86.589606 
L 362.971524 101.713606 
L 364.909792 86.901441 
L 366.912669 103.584616 
L 368.850937 80.976575 
L 370.853813 82.847585 
L 372.85669 93.761812 
L 374.66574 86.277771 
L 376.668617 107.482554 
L 378.606885 121.047379 
L 380.609761 142.408079 
L 382.548029 100.466266 
L 384.550906 104.208286 
L 386.553783 83.15942 
L 388.49205 82.223915 
L 390.494927 84.718596 
L 392.433195 82.847585 
L 394.436072 85.965936 
L 396.438948 84.094926 
L 398.312607 139.289729 
L 400.315484 160.806347 
L 402.253752 123.853894 
L 404.256628 93.138142 
L 406.194896 86.901441 
L 408.197773 85.965936 
L 410.20065 112.471915 
L 412.138917 90.955297 
L 414.141794 95.632822 
L 416.080062 80.04107 
L 418.082939 85.654101 
L 420.085815 73.804369 
L 421.894865 100.310348 
L 425.83601 243.75447 
L 427.838886 128.687337 
L 429.777154 74.428039 
L 431.780031 95.632822 
L 433.782908 80.04107 
L 435.721175 98.595255 
L 437.724052 150.203956 
L 439.66232 174.059337 
L 441.665197 155.193316 
L 443.668073 109.509482 
L 445.477123 86.901441 
L 447.48 100.934018 
L 447.48 100.934018 
" style="fill:none;stroke:#1f77b4;stroke-linecap:square;stroke-width:1.5;"/>
   </g>
   <g id="patch_3">
    <path d="M 42.51125 309.8635 
L 42.51125 23.36505 
" style="fill:none;stroke:#000000;stroke-linecap:square;stroke-linejoin:miter;stroke-width:0.8;"/>
   </g>
   <g id="patch_4">
    <path d="M 447.48 309.8635 
L 447.48 23.36505 
" style="fill:none;stroke:#000000;stroke-linecap:square;stroke-linejoin:miter;stroke-width:0.8;"/>
   </g>
   <g id="patch_5">
    <path d="M 42.51125 309.8635 
L 447.48 309.8635 
" style="fill:none;stroke:#000000;stroke-linecap:square;stroke-linejoin:miter;stroke-width:0.8;"/>
   </g>
   <g id="patch_6">
    <path d="M 42.51125 23.36505 
L 447.48 23.36505 
" style="fill:none;stroke:#000000;stroke-linecap:square;stroke-linejoin:miter;stroke-width:0.8;"/>
   </g>
   <g id="text_16">
    <!-- Monthly gload trend -->
    <defs>
     <path d="M 54.890625 33.015625 
L 54.890625 0 
L 45.90625 0 
L 45.90625 32.71875 
Q 45.90625 40.484375 42.875 44.328125 
Q 39.84375 48.1875 33.796875 48.1875 
Q 26.515625 48.1875 22.3125 43.546875 
Q 18.109375 38.921875 18.109375 30.90625 
L 18.109375 0 
L 9.078125 0 
L 9.078125 54.6875 
L 18.109375 54.6875 
L 18.109375 46.1875 
Q 21.34375 51.125 25.703125 53.5625 
Q 30.078125 56 35.796875 56 
Q 45.21875 56 50.046875 50.171875 
Q 54.890625 44.34375 54.890625 33.015625 
z
" id="DejaVuSans-6e"/>
     <path d="M 54.890625 33.015625 
L 54.890625 0 
L 45.90625 0 
L 45.90625 32.71875 
Q 45.90625 40.484375 42.875 44.328125 
Q 39.84375 48.1875 33.796875 48.1875 
Q 26.515625 48.1875 22.3125 43.546875 
Q 18.109375 38.921875 18.109375 30.90625 
L 18.109375 0 
L 9.078125 0 
L 9.078125 75.984375 
L 18.109375 75.984375 
L 18.109375 46.1875 
Q 21.34375 51.125 25.703125 53.5625 
Q 30.078125 56 35.796875 56 
Q 45.21875 56 50.046875 50.171875 
Q 54.890625 44.34375 54.890625 33.015625 
z
" id="DejaVuSans-68"/>
     <path d="M 32.171875 -5.078125 
Q 28.375 -14.84375 24.75 -17.8125 
Q 21.140625 -20.796875 15.09375 -20.796875 
L 7.90625 -20.796875 
L 7.90625 -13.28125 
L 13.1875 -13.28125 
Q 16.890625 -13.28125 18.9375 -11.515625 
Q 21 -9.765625 23.484375 -3.21875 
L 25.09375 0.875 
L 2.984375 54.6875 
L 12.5 54.6875 
L 29.59375 11.921875 
L 46.6875 54.6875 
L 56.203125 54.6875 
z
" id="DejaVuSans-79"/>
     <path d="M 45.40625 27.984375 
Q 45.40625 37.75 41.375 43.109375 
Q 37.359375 48.484375 30.078125 48.484375 
Q 22.859375 48.484375 18.828125 43.109375 
Q 14.796875 37.75 14.796875 27.984375 
Q 14.796875 18.265625 18.828125 12.890625 
Q 22.859375 7.515625 30.078125 7.515625 
Q 37.359375 7.515625 41.375 12.890625 
Q 45.40625 18.265625 45.40625 27.984375 
z
M 54.390625 6.78125 
Q 54.390625 -7.171875 48.1875 -13.984375 
Q 42 -20.796875 29.203125 -20.796875 
Q 24.46875 -20.796875 20.265625 -20.09375 
Q 16.0625 -19.390625 12.109375 -17.921875 
L 12.109375 -9.1875 
Q 16.0625 -11.328125 19.921875 -12.34375 
Q 23.78125 -13.375 27.78125 -13.375 
Q 36.625 -13.375 41.015625 -8.765625 
Q 45.40625 -4.15625 45.40625 5.171875 
L 45.40625 9.625 
Q 42.625 4.78125 38.28125 2.390625 
Q 33.9375 0 27.875 0 
Q 17.828125 0 11.671875 7.65625 
Q 5.515625 15.328125 5.515625 27.984375 
Q 5.515625 40.671875 11.671875 48.328125 
Q 17.828125 56 27.875 56 
Q 33.9375 56 38.28125 53.609375 
Q 42.625 51.21875 45.40625 46.390625 
L 45.40625 54.6875 
L 54.390625 54.6875 
z
" id="DejaVuSans-67"/>
    </defs>
    <g transform="translate(184.405 17.36505)scale(0.12 -0.12)">
     <use xlink:href="#DejaVuSans-4d"/>
     <use x="86.279297" xlink:href="#DejaVuSans-6f"/>
     <use x="147.460938" xlink:href="#DejaVuSans-6e"/>
     <use x="210.839844" xlink:href="#DejaVuSans-74"/>
     <use x="250.048828" xlink:href="#DejaVuSans-68"/>
     <use x="313.427734" xlink:href="#DejaVuSans-6c"/>
     <use x="341.210938" xlink:href="#DejaVuSans-79"/>
     <use x="400.390625" xlink:href="#DejaVuSans-20"/>
     <use x="432.177734" xlink:href="#DejaVuSans-67"/>
     <use x="495.654297" xlink:href="#DejaVuSans-6c"/>
     <use x="523.4375" xlink:href="#DejaVuSans-6f"/>
     <use x="584.619141" xlink:href="#DejaVuSans-61"/>
     <use x="645.898438" xlink:href="#DejaVuSans-64"/>
     <use x="709.375" xlink:href="#DejaVuSans-20"/>
     <use x="741.162109" xlink:href="#DejaVuSans-74"/>
     <use x="780.371094" xlink:href="#DejaVuSans-72"/>
     <use x="821.453125" xlink:href="#DejaVuSans-65"/>
     <use x="882.976562" xlink:href="#DejaVuSans-6e"/>
     <use x="946.355469" xlink:href="#DejaVuSans-64"/>
    </g>
   </g>
  </g>
 </g>
 <defs>
  <clipPath id="p84c4771cf0">
   <rect height="286.49845" width="404.96875" x="42.51125" y="23.36505"/>
  </clipPath>
 </defs>
</svg>
