<?xml version="1.0" encoding="utf-8" standalone="no"?>
<!DOCTYPE svg PUBLIC "-//W3C//DTD SVG 1.1//EN"
  "http://www.w3.org/Graphics/SVG/1.1/DTD/svg11.dtd">
<!-- Created with matplotlib (http://matplotlib.org/) -->
<svg height="345.6pt" version="1.1" viewBox="0 0 460.8 345.6" width="460.8pt" xmlns="http://www.w3.org/2000/svg" xmlns:xlink="http://www.w3.org/1999/xlink">
 <defs>
  <style type="text/css">
*{stroke-linecap:butt;stroke-linejoin:round;}
  </style>
 </defs>
 <g id="figure_1">
  <g id="patch_1">
   <path d="M 0 345.6 
L 460.8 345.6 
L 460.8 0 
L 0 0 
z
" style="fill:none;"/>
  </g>
  <g id="axes_1">
   <g id="patch_2">
    <path d="M 47.09225 309.8635 
L 447.48 309.8635 
L 447.48 23.36505 
L 47.09225 23.36505 
z
" style="fill:none;"/>
   </g>
   <g id="PolyCollection_1">
    <path clip-path="url(#p33c1d7bfd6)" d="M 47.09225 131.267064 
L 47.09225 212.326458 
L 48.880836 161.298905 
L 50.861056 140.402856 
L 52.777398 144.788036 
L 54.757619 158.475114 
L 56.673961 161.963326 
L 58.654181 180.700006 
L 60.634401 161.830442 
L 62.550743 234.385244 
L 64.530963 203.124224 
L 66.447306 174.321562 
L 68.427526 170.700466 
L 70.407746 196.779 
L 72.196332 175.882952 
L 74.176552 176.912805 
L 76.092894 172.826614 
L 78.073115 184.154996 
L 79.989457 184.487207 
L 81.969677 181.364427 
L 83.949897 187.875756 
L 85.866239 258.30441 
L 87.846459 274.782057 
L 89.762802 134.190517 
L 91.743022 170.301813 
L 93.723242 158.774104 
L 95.511828 202.592687 
L 97.492048 253.520577 
L 99.40839 156.182861 
L 101.38861 252.723271 
L 103.304953 205.948014 
L 105.285173 152.927197 
L 107.265393 201.297065 
L 109.181735 162.727411 
L 111.161955 126.317125 
L 113.078298 229.601411 
L 115.058518 167.810233 
L 117.038738 140.402856 
L 118.891202 252.457503 
L 120.871422 193.789105 
L 122.787764 198.240727 
L 124.767985 179.736595 
L 126.684327 153.159744 
L 128.664547 180.899332 
L 130.644767 185.849271 
L 132.561109 176.580594 
L 134.541329 153.990271 
L 136.457672 179.969142 
L 138.437892 156.083198 
L 140.418112 240.232151 
L 142.206698 186.679797 
L 144.186918 174.055793 
L 146.10326 173.092382 
L 148.08348 125.386935 
L 149.999823 167.07937 
L 151.980043 250.331355 
L 153.960263 167.012928 
L 155.876605 246.610595 
L 157.856825 134.987823 
L 159.773168 118.244407 
L 161.753388 170.700466 
L 163.733608 159.039873 
L 165.522194 236.777161 
L 167.502414 237.042929 
L 169.418756 187.310997 
L 171.398976 214.718375 
L 173.315319 130.735527 
L 175.295539 180.567122 
L 177.275759 175.650404 
L 179.192101 167.909896 
L 181.172321 171.099119 
L 183.088663 193.423673 
L 185.068884 229.235979 
L 187.049104 172.328298 
L 188.83769 140.303193 
L 190.81791 157.179493 
L 192.734252 151.830902 
L 194.714472 184.786197 
L 196.630815 157.677809 
L 198.611035 167.777012 
L 200.591255 185.350955 
L 202.507597 228.804106 
L 204.487817 251.394429 
L 206.404159 155.319113 
L 208.38438 218.439134 
L 210.3646 138.177045 
L 212.217064 168.607539 
L 214.197284 260.430558 
L 216.113626 262.822474 
L 218.093846 204.88494 
L 220.010189 195.018284 
L 221.990409 116.649796 
L 223.970629 159.305641 
L 225.886971 248.736744 
L 227.867191 227.674589 
L 229.783534 216.844523 
L 231.763754 200.898412 
L 233.743974 277.173974 
L 235.53256 257.241336 
L 237.51278 270.263993 
L 239.429122 256.975567 
L 241.409342 238.106003 
L 243.325685 252.457503 
L 245.305905 171.697098 
L 247.286125 177.477563 
L 249.202467 221.096819 
L 251.182687 267.07477 
L 253.099029 268.503276 
L 255.07925 280.363196 
L 257.05947 231.960107 
L 258.848056 213.655301 
L 260.828276 227.774253 
L 262.744618 256.178262 
L 264.724838 252.98904 
L 266.641181 258.138304 
L 268.621401 199.835338 
L 270.601621 233.32217 
L 272.517963 229.202758 
L 274.498183 234.518128 
L 276.414525 244.484447 
L 278.394746 191.297525 
L 280.374966 201.164181 
L 282.163552 215.781449 
L 284.143772 227.209494 
L 286.060114 259.101715 
L 288.040334 219.070334 
L 289.956677 223.754504 
L 291.936897 214.452606 
L 293.917117 168.740423 
L 295.833459 218.040481 
L 297.813679 258.968831 
L 299.730021 246.610595 
L 301.710242 243.687142 
L 303.690462 194.387084 
L 305.542926 188.905608 
L 307.523146 260.297674 
L 309.439488 246.344827 
L 311.419708 296.840843 
L 313.336051 296.840843 
L 315.316271 238.072782 
L 317.296491 261.7594 
L 319.212833 267.872076 
L 321.193053 233.853707 
L 323.109395 231.196022 
L 325.089616 228.471895 
L 327.069836 267.606307 
L 328.858422 264.948622 
L 330.838642 232.790633 
L 332.754984 235.18255 
L 334.735204 266.277465 
L 336.651547 201.429949 
L 338.631767 241.162341 
L 340.611987 232.657749 
L 342.528329 245.281753 
L 344.508549 296.840843 
L 346.424891 238.371772 
L 348.405112 251.892745 
L 350.385332 266.543233 
L 352.173918 264.948622 
L 354.154138 233.853707 
L 356.07048 239.002972 
L 358.0507 237.973119 
L 359.967043 228.0068 
L 361.947263 226.545073 
L 363.927483 241.560994 
L 365.843825 207.37652 
L 367.824045 263.354011 
L 369.740387 296.840843 
L 371.720608 239.036193 
L 373.700828 248.470975 
L 375.489414 235.846971 
L 377.469634 273.718983 
L 379.385976 246.477711 
L 381.366196 260.696326 
L 383.282538 241.560994 
L 385.262759 258.171525 
L 387.242979 296.840843 
L 389.159321 233.587939 
L 391.139541 236.411729 
L 393.055883 291.093599 
L 395.036104 238.903309 
L 397.016324 277.838395 
L 398.868788 270.263993 
L 400.849008 240.232151 
L 402.76535 192.39382 
L 404.74557 236.245624 
L 406.661913 248.736744 
L 408.642133 239.301962 
L 410.622353 186.281144 
L 412.538695 246.610595 
L 414.518915 238.371772 
L 416.435257 247.939438 
L 418.415478 232.524865 
L 420.395698 217.110291 
L 422.184284 236.245624 
L 424.164504 244.484447 
L 426.080846 268.63616 
L 428.061066 233.056402 
L 429.977409 230.863811 
L 431.957629 185.118407 
L 433.937849 250.530681 
L 435.854191 296.840843 
L 437.834411 272.655909 
L 439.750753 272.921678 
L 441.730974 265.745928 
L 443.711194 260.364116 
L 445.49978 296.840843 
L 447.48 273.187446 
L 447.48 131.798601 
L 447.48 131.798601 
L 445.49978 130.469758 
L 443.711194 196.181021 
L 441.730974 83.162964 
L 439.750753 131.267064 
L 437.834411 132.330138 
L 435.854191 105.055645 
L 433.937849 46.48691 
L 431.957629 39.576929 
L 429.977409 51.004975 
L 428.061066 36.387707 
L 426.080846 46.48691 
L 424.164504 87.182713 
L 422.184284 82.897195 
L 420.395698 41.17154 
L 418.415478 54.493186 
L 416.435257 78.412352 
L 414.518915 98.743643 
L 412.538695 50.473438 
L 410.622353 38.779623 
L 408.642133 52.599586 
L 406.661913 48.878827 
L 404.74557 40.640003 
L 402.76535 40.640003 
L 400.849008 42.234614 
L 398.868788 42.500382 
L 397.016324 193.456894 
L 395.036104 203.02456 
L 393.055883 144.190057 
L 391.139541 40.108466 
L 389.159321 38.513855 
L 387.242979 39.576929 
L 385.262759 160.235831 
L 383.282538 159.438525 
L 381.366196 165.019664 
L 379.385976 160.501599 
L 377.469634 171.265224 
L 375.489414 164.88678 
L 373.700828 154.654692 
L 371.720608 153.32585 
L 369.740387 169.006192 
L 367.824045 152.528544 
L 365.843825 151.997007 
L 363.927483 151.997007 
L 361.947263 152.794313 
L 359.967043 154.654692 
L 358.0507 153.32585 
L 356.07048 151.731239 
L 354.154138 149.339322 
L 352.173918 150.402396 
L 350.385332 157.843914 
L 348.405112 159.438525 
L 346.424891 159.438525 
L 344.508549 192.39382 
L 342.528329 160.235831 
L 340.611987 158.375451 
L 338.631767 151.731239 
L 336.651547 150.136628 
L 334.735204 151.997007 
L 332.754984 161.996547 
L 330.838642 151.46547 
L 328.858422 150.668165 
L 327.069836 151.731239 
L 325.089616 167.478023 
L 323.109395 150.668165 
L 321.193053 162.09621 
L 319.212833 151.199702 
L 317.296491 150.136628 
L 315.316271 150.668165 
L 313.336051 150.402396 
L 311.419708 149.339322 
L 309.439488 154.388924 
L 307.523146 162.229095 
L 305.542926 176.746699 
L 303.690462 169.670613 
L 301.710242 124.357082 
L 299.730021 119.839018 
L 297.813679 193.722663 
L 295.833459 91.933325 
L 293.917117 91.136019 
L 291.936897 91.136019 
L 289.956677 136.848202 
L 288.040334 135.253591 
L 286.060114 94.325241 
L 284.143772 93.262167 
L 282.163552 92.996399 
L 280.374966 91.401788 
L 278.394746 91.401788 
L 276.414525 115.055185 
L 274.498183 165.152548 
L 272.517963 104.025792 
L 270.601621 92.464862 
L 268.621401 99.374843 
L 266.641181 91.401788 
L 264.724838 187.510324 
L 262.744618 192.39382 
L 260.828276 106.816361 
L 258.848056 141.366267 
L 257.05947 113.726342 
L 255.07925 131.001295 
L 253.099029 209.303341 
L 251.182687 173.125603 
L 249.202467 102.032528 
L 247.286125 97.248695 
L 245.305905 105.720066 
L 243.325685 135.253591 
L 241.409342 94.059473 
L 239.429122 168.34177 
L 237.51278 176.181941 
L 235.53256 242.889836 
L 233.743974 94.59101 
L 231.763754 92.996399 
L 229.783534 155.186229 
L 227.867191 95.122547 
L 225.886971 101.235222 
L 223.970629 96.982926 
L 221.990409 97.514463 
L 220.010189 112.131731 
L 218.093846 126.748999 
L 216.113626 105.354634 
L 214.197284 99.109074 
L 212.217064 92.199093 
L 210.3646 92.73063 
L 208.38438 98.046 
L 206.404159 121.699397 
L 204.487817 119.839018 
L 202.507597 97.248695 
L 200.591255 95.388315 
L 198.611035 94.59101 
L 196.630815 95.919852 
L 194.714472 107.613667 
L 192.734252 120.104786 
L 190.81791 95.786968 
L 188.83769 91.401788 
L 187.049104 94.856778 
L 185.068884 101.766759 
L 183.088663 98.34499 
L 181.172321 101.235222 
L 179.192101 95.388315 
L 177.275759 91.933325 
L 175.295539 90.072945 
L 173.315319 91.136019 
L 171.398976 87.149492 
L 169.418756 116.15148 
L 167.502414 115.088406 
L 165.522194 90.338714 
L 163.733608 95.255431 
L 161.753388 96.451389 
L 159.773168 94.856778 
L 157.856825 95.122547 
L 155.876605 94.59101 
L 153.960263 92.996399 
L 151.980043 93.793704 
L 149.999823 93.262167 
L 148.08348 92.73063 
L 146.10326 92.464862 
L 144.186918 91.401788 
L 142.206698 133.924749 
L 140.418112 92.199093 
L 138.437892 99.374843 
L 136.457672 99.042632 
L 134.541329 93.793704 
L 132.561109 94.325241 
L 130.644767 97.248695 
L 128.664547 91.933325 
L 126.684327 92.996399 
L 124.767985 99.90638 
L 122.787764 111.334426 
L 120.871422 96.185621 
L 118.891202 92.199093 
L 117.038738 93.793704 
L 115.058518 100.172148 
L 113.078298 103.095602 
L 111.161955 96.982926 
L 109.181735 92.199093 
L 107.265393 90.604482 
L 105.285173 91.401788 
L 103.304953 91.401788 
L 101.38861 94.59101 
L 99.40839 99.109074 
L 97.492048 190.799209 
L 95.511828 186.44725 
L 93.723242 98.311769 
L 91.743022 102.564065 
L 89.762802 93.793704 
L 87.846459 106.949245 
L 85.866239 202.493023 
L 83.949897 120.104786 
L 81.969677 94.856778 
L 79.989457 100.371475 
L 78.073115 132.861675 
L 76.092894 118.410512 
L 74.176552 95.188989 
L 72.196332 98.046 
L 70.407746 92.331977 
L 68.427526 96.982926 
L 66.447306 111.334426 
L 64.530963 120.370555 
L 62.550743 95.654084 
L 60.634401 94.325241 
L 58.654181 94.856778 
L 56.673961 91.667556 
L 54.757619 94.325241 
L 52.777398 91.933325 
L 50.861056 93.527936 
L 48.880836 127.812073 
L 47.09225 131.267064 
z
" style="fill:#808080;fill-opacity:0.6;"/>
   </g>
   <g id="matplotlib.axis_1">
    <g id="xtick_1">
     <g id="line2d_1">
      <path clip-path="url(#p33c1d7bfd6)" d="M 91.8069 309.8635 
L 91.8069 23.36505 
" style="fill:none;stroke:#b0b0b0;stroke-linecap:square;stroke-width:0.8;"/>
     </g>
     <g id="line2d_2">
      <defs>
       <path d="M 0 0 
L 0 3.5 
" id="mf8816a67c4" style="stroke:#000000;stroke-width:0.8;"/>
      </defs>
      <g>
       <use style="stroke:#000000;stroke-width:0.8;" x="91.8069" xlink:href="#mf8816a67c4" y="309.8635"/>
      </g>
     </g>
     <g id="text_1">
      <!-- 2003 -->
      <defs>
       <path d="M 19.1875 8.296875 
L 53.609375 8.296875 
L 53.609375 0 
L 7.328125 0 
L 7.328125 8.296875 
Q 12.9375 14.109375 22.625 23.890625 
Q 32.328125 33.6875 34.8125 36.53125 
Q 39.546875 41.84375 41.421875 45.53125 
Q 43.3125 49.21875 43.3125 52.78125 
Q 43.3125 58.59375 39.234375 62.25 
Q 35.15625 65.921875 28.609375 65.921875 
Q 23.96875 65.921875 18.8125 64.3125 
Q 13.671875 62.703125 7.8125 59.421875 
L 7.8125 69.390625 
Q 13.765625 71.78125 18.9375 73 
Q 24.125 74.21875 28.421875 74.21875 
Q 39.75 74.21875 46.484375 68.546875 
Q 53.21875 62.890625 53.21875 53.421875 
Q 53.21875 48.921875 51.53125 44.890625 
Q 49.859375 40.875 45.40625 35.40625 
Q 44.1875 33.984375 37.640625 27.21875 
Q 31.109375 20.453125 19.1875 8.296875 
z
" id="DejaVuSans-32"/>
       <path d="M 31.78125 66.40625 
Q 24.171875 66.40625 20.328125 58.90625 
Q 16.5 51.421875 16.5 36.375 
Q 16.5 21.390625 20.328125 13.890625 
Q 24.171875 6.390625 31.78125 6.390625 
Q 39.453125 6.390625 43.28125 13.890625 
Q 47.125 21.390625 47.125 36.375 
Q 47.125 51.421875 43.28125 58.90625 
Q 39.453125 66.40625 31.78125 66.40625 
z
M 31.78125 74.21875 
Q 44.046875 74.21875 50.515625 64.515625 
Q 56.984375 54.828125 56.984375 36.375 
Q 56.984375 17.96875 50.515625 8.265625 
Q 44.046875 -1.421875 31.78125 -1.421875 
Q 19.53125 -1.421875 13.0625 8.265625 
Q 6.59375 17.96875 6.59375 36.375 
Q 6.59375 54.828125 13.0625 64.515625 
Q 19.53125 74.21875 31.78125 74.21875 
z
" id="DejaVuSans-30"/>
       <path d="M 40.578125 39.3125 
Q 47.65625 37.796875 51.625 33 
Q 55.609375 28.21875 55.609375 21.1875 
Q 55.609375 10.40625 48.1875 4.484375 
Q 40.765625 -1.421875 27.09375 -1.421875 
Q 22.515625 -1.421875 17.65625 -0.515625 
Q 12.796875 0.390625 7.625 2.203125 
L 7.625 11.71875 
Q 11.71875 9.328125 16.59375 8.109375 
Q 21.484375 6.890625 26.8125 6.890625 
Q 36.078125 6.890625 40.9375 10.546875 
Q 45.796875 14.203125 45.796875 21.1875 
Q 45.796875 27.640625 41.28125 31.265625 
Q 36.765625 34.90625 28.71875 34.90625 
L 20.21875 34.90625 
L 20.21875 43.015625 
L 29.109375 43.015625 
Q 36.375 43.015625 40.234375 45.921875 
Q 44.09375 48.828125 44.09375 54.296875 
Q 44.09375 59.90625 40.109375 62.90625 
Q 36.140625 65.921875 28.71875 65.921875 
Q 24.65625 65.921875 20.015625 65.03125 
Q 15.375 64.15625 9.8125 62.3125 
L 9.8125 71.09375 
Q 15.4375 72.65625 20.34375 73.4375 
Q 25.25 74.21875 29.59375 74.21875 
Q 40.828125 74.21875 47.359375 69.109375 
Q 53.90625 64.015625 53.90625 55.328125 
Q 53.90625 49.265625 50.4375 45.09375 
Q 46.96875 40.921875 40.578125 39.3125 
z
" id="DejaVuSans-33"/>
      </defs>
      <g transform="translate(79.0819 324.461937)scale(0.1 -0.1)">
       <use xlink:href="#DejaVuSans-32"/>
       <use x="63.623047" xlink:href="#DejaVuSans-30"/>
       <use x="127.246094" xlink:href="#DejaVuSans-30"/>
       <use x="190.869141" xlink:href="#DejaVuSans-33"/>
      </g>
     </g>
    </g>
    <g id="xtick_2">
     <g id="line2d_3">
      <path clip-path="url(#p33c1d7bfd6)" d="M 138.50177 309.8635 
L 138.50177 23.36505 
" style="fill:none;stroke:#b0b0b0;stroke-linecap:square;stroke-width:0.8;"/>
     </g>
     <g id="line2d_4">
      <g>
       <use style="stroke:#000000;stroke-width:0.8;" x="138.50177" xlink:href="#mf8816a67c4" y="309.8635"/>
      </g>
     </g>
     <g id="text_2">
      <!-- 2005 -->
      <defs>
       <path d="M 10.796875 72.90625 
L 49.515625 72.90625 
L 49.515625 64.59375 
L 19.828125 64.59375 
L 19.828125 46.734375 
Q 21.96875 47.46875 24.109375 47.828125 
Q 26.265625 48.1875 28.421875 48.1875 
Q 40.625 48.1875 47.75 41.5 
Q 54.890625 34.8125 54.890625 23.390625 
Q 54.890625 11.625 47.5625 5.09375 
Q 40.234375 -1.421875 26.90625 -1.421875 
Q 22.3125 -1.421875 17.546875 -0.640625 
Q 12.796875 0.140625 7.71875 1.703125 
L 7.71875 11.625 
Q 12.109375 9.234375 16.796875 8.0625 
Q 21.484375 6.890625 26.703125 6.890625 
Q 35.15625 6.890625 40.078125 11.328125 
Q 45.015625 15.765625 45.015625 23.390625 
Q 45.015625 31 40.078125 35.4375 
Q 35.15625 39.890625 26.703125 39.890625 
Q 22.75 39.890625 18.8125 39.015625 
Q 14.890625 38.140625 10.796875 36.28125 
z
" id="DejaVuSans-35"/>
      </defs>
      <g transform="translate(125.77677 324.461937)scale(0.1 -0.1)">
       <use xlink:href="#DejaVuSans-32"/>
       <use x="63.623047" xlink:href="#DejaVuSans-30"/>
       <use x="127.246094" xlink:href="#DejaVuSans-30"/>
       <use x="190.869141" xlink:href="#DejaVuSans-35"/>
      </g>
     </g>
    </g>
    <g id="xtick_3">
     <g id="line2d_5">
      <path clip-path="url(#p33c1d7bfd6)" d="M 185.132762 309.8635 
L 185.132762 23.36505 
" style="fill:none;stroke:#b0b0b0;stroke-linecap:square;stroke-width:0.8;"/>
     </g>
     <g id="line2d_6">
      <g>
       <use style="stroke:#000000;stroke-width:0.8;" x="185.132762" xlink:href="#mf8816a67c4" y="309.8635"/>
      </g>
     </g>
     <g id="text_3">
      <!-- 2007 -->
      <defs>
       <path d="M 8.203125 72.90625 
L 55.078125 72.90625 
L 55.078125 68.703125 
L 28.609375 0 
L 18.3125 0 
L 43.21875 64.59375 
L 8.203125 64.59375 
z
" id="DejaVuSans-37"/>
      </defs>
      <g transform="translate(172.407762 324.461937)scale(0.1 -0.1)">
       <use xlink:href="#DejaVuSans-32"/>
       <use x="63.623047" xlink:href="#DejaVuSans-30"/>
       <use x="127.246094" xlink:href="#DejaVuSans-30"/>
       <use x="190.869141" xlink:href="#DejaVuSans-37"/>
      </g>
     </g>
    </g>
    <g id="xtick_4">
     <g id="line2d_7">
      <path clip-path="url(#p33c1d7bfd6)" d="M 231.827632 309.8635 
L 231.827632 23.36505 
" style="fill:none;stroke:#b0b0b0;stroke-linecap:square;stroke-width:0.8;"/>
     </g>
     <g id="line2d_8">
      <g>
       <use style="stroke:#000000;stroke-width:0.8;" x="231.827632" xlink:href="#mf8816a67c4" y="309.8635"/>
      </g>
     </g>
     <g id="text_4">
      <!-- 2009 -->
      <defs>
       <path d="M 10.984375 1.515625 
L 10.984375 10.5 
Q 14.703125 8.734375 18.5 7.8125 
Q 22.3125 6.890625 25.984375 6.890625 
Q 35.75 6.890625 40.890625 13.453125 
Q 46.046875 20.015625 46.78125 33.40625 
Q 43.953125 29.203125 39.59375 26.953125 
Q 35.25 24.703125 29.984375 24.703125 
Q 19.046875 24.703125 12.671875 31.3125 
Q 6.296875 37.9375 6.296875 49.421875 
Q 6.296875 60.640625 12.9375 67.421875 
Q 19.578125 74.21875 30.609375 74.21875 
Q 43.265625 74.21875 49.921875 64.515625 
Q 56.59375 54.828125 56.59375 36.375 
Q 56.59375 19.140625 48.40625 8.859375 
Q 40.234375 -1.421875 26.421875 -1.421875 
Q 22.703125 -1.421875 18.890625 -0.6875 
Q 15.09375 0.046875 10.984375 1.515625 
z
M 30.609375 32.421875 
Q 37.25 32.421875 41.125 36.953125 
Q 45.015625 41.5 45.015625 49.421875 
Q 45.015625 57.28125 41.125 61.84375 
Q 37.25 66.40625 30.609375 66.40625 
Q 23.96875 66.40625 20.09375 61.84375 
Q 16.21875 57.28125 16.21875 49.421875 
Q 16.21875 41.5 20.09375 36.953125 
Q 23.96875 32.421875 30.609375 32.421875 
z
" id="DejaVuSans-39"/>
      </defs>
      <g transform="translate(219.102632 324.461937)scale(0.1 -0.1)">
       <use xlink:href="#DejaVuSans-32"/>
       <use x="63.623047" xlink:href="#DejaVuSans-30"/>
       <use x="127.246094" xlink:href="#DejaVuSans-30"/>
       <use x="190.869141" xlink:href="#DejaVuSans-39"/>
      </g>
     </g>
    </g>
    <g id="xtick_5">
     <g id="line2d_9">
      <path clip-path="url(#p33c1d7bfd6)" d="M 278.458624 309.8635 
L 278.458624 23.36505 
" style="fill:none;stroke:#b0b0b0;stroke-linecap:square;stroke-width:0.8;"/>
     </g>
     <g id="line2d_10">
      <g>
       <use style="stroke:#000000;stroke-width:0.8;" x="278.458624" xlink:href="#mf8816a67c4" y="309.8635"/>
      </g>
     </g>
     <g id="text_5">
      <!-- 2011 -->
      <defs>
       <path d="M 12.40625 8.296875 
L 28.515625 8.296875 
L 28.515625 63.921875 
L 10.984375 60.40625 
L 10.984375 69.390625 
L 28.421875 72.90625 
L 38.28125 72.90625 
L 38.28125 8.296875 
L 54.390625 8.296875 
L 54.390625 0 
L 12.40625 0 
z
" id="DejaVuSans-31"/>
      </defs>
      <g transform="translate(265.733624 324.461937)scale(0.1 -0.1)">
       <use xlink:href="#DejaVuSans-32"/>
       <use x="63.623047" xlink:href="#DejaVuSans-30"/>
       <use x="127.246094" xlink:href="#DejaVuSans-31"/>
       <use x="190.869141" xlink:href="#DejaVuSans-31"/>
      </g>
     </g>
    </g>
    <g id="xtick_6">
     <g id="line2d_11">
      <path clip-path="url(#p33c1d7bfd6)" d="M 325.153494 309.8635 
L 325.153494 23.36505 
" style="fill:none;stroke:#b0b0b0;stroke-linecap:square;stroke-width:0.8;"/>
     </g>
     <g id="line2d_12">
      <g>
       <use style="stroke:#000000;stroke-width:0.8;" x="325.153494" xlink:href="#mf8816a67c4" y="309.8635"/>
      </g>
     </g>
     <g id="text_6">
      <!-- 2013 -->
      <g transform="translate(312.428494 324.461937)scale(0.1 -0.1)">
       <use xlink:href="#DejaVuSans-32"/>
       <use x="63.623047" xlink:href="#DejaVuSans-30"/>
       <use x="127.246094" xlink:href="#DejaVuSans-31"/>
       <use x="190.869141" xlink:href="#DejaVuSans-33"/>
      </g>
     </g>
    </g>
    <g id="xtick_7">
     <g id="line2d_13">
      <path clip-path="url(#p33c1d7bfd6)" d="M 371.784486 309.8635 
L 371.784486 23.36505 
" style="fill:none;stroke:#b0b0b0;stroke-linecap:square;stroke-width:0.8;"/>
     </g>
     <g id="line2d_14">
      <g>
       <use style="stroke:#000000;stroke-width:0.8;" x="371.784486" xlink:href="#mf8816a67c4" y="309.8635"/>
      </g>
     </g>
     <g id="text_7">
      <!-- 2015 -->
      <g transform="translate(359.059486 324.461937)scale(0.1 -0.1)">
       <use xlink:href="#DejaVuSans-32"/>
       <use x="63.623047" xlink:href="#DejaVuSans-30"/>
       <use x="127.246094" xlink:href="#DejaVuSans-31"/>
       <use x="190.869141" xlink:href="#DejaVuSans-35"/>
      </g>
     </g>
    </g>
    <g id="xtick_8">
     <g id="line2d_15">
      <path clip-path="url(#p33c1d7bfd6)" d="M 418.479356 309.8635 
L 418.479356 23.36505 
" style="fill:none;stroke:#b0b0b0;stroke-linecap:square;stroke-width:0.8;"/>
     </g>
     <g id="line2d_16">
      <g>
       <use style="stroke:#000000;stroke-width:0.8;" x="418.479356" xlink:href="#mf8816a67c4" y="309.8635"/>
      </g>
     </g>
     <g id="text_8">
      <!-- 2017 -->
      <g transform="translate(405.754356 324.461937)scale(0.1 -0.1)">
       <use xlink:href="#DejaVuSans-32"/>
       <use x="63.623047" xlink:href="#DejaVuSans-30"/>
       <use x="127.246094" xlink:href="#DejaVuSans-31"/>
       <use x="190.869141" xlink:href="#DejaVuSans-37"/>
      </g>
     </g>
    </g>
    <g id="text_9">
     <!-- Date -->
     <defs>
      <path d="M 19.671875 64.796875 
L 19.671875 8.109375 
L 31.59375 8.109375 
Q 46.6875 8.109375 53.6875 14.9375 
Q 60.6875 21.78125 60.6875 36.53125 
Q 60.6875 51.171875 53.6875 57.984375 
Q 46.6875 64.796875 31.59375 64.796875 
z
M 9.8125 72.90625 
L 30.078125 72.90625 
Q 51.265625 72.90625 61.171875 64.09375 
Q 71.09375 55.28125 71.09375 36.53125 
Q 71.09375 17.671875 61.125 8.828125 
Q 51.171875 0 30.078125 0 
L 9.8125 0 
z
" id="DejaVuSans-44"/>
      <path d="M 34.28125 27.484375 
Q 23.390625 27.484375 19.1875 25 
Q 14.984375 22.515625 14.984375 16.5 
Q 14.984375 11.71875 18.140625 8.90625 
Q 21.296875 6.109375 26.703125 6.109375 
Q 34.1875 6.109375 38.703125 11.40625 
Q 43.21875 16.703125 43.21875 25.484375 
L 43.21875 27.484375 
z
M 52.203125 31.203125 
L 52.203125 0 
L 43.21875 0 
L 43.21875 8.296875 
Q 40.140625 3.328125 35.546875 0.953125 
Q 30.953125 -1.421875 24.3125 -1.421875 
Q 15.921875 -1.421875 10.953125 3.296875 
Q 6 8.015625 6 15.921875 
Q 6 25.140625 12.171875 29.828125 
Q 18.359375 34.515625 30.609375 34.515625 
L 43.21875 34.515625 
L 43.21875 35.40625 
Q 43.21875 41.609375 39.140625 45 
Q 35.0625 48.390625 27.6875 48.390625 
Q 23 48.390625 18.546875 47.265625 
Q 14.109375 46.140625 10.015625 43.890625 
L 10.015625 52.203125 
Q 14.9375 54.109375 19.578125 55.046875 
Q 24.21875 56 28.609375 56 
Q 40.484375 56 46.34375 49.84375 
Q 52.203125 43.703125 52.203125 31.203125 
z
" id="DejaVuSans-61"/>
      <path d="M 18.3125 70.21875 
L 18.3125 54.6875 
L 36.8125 54.6875 
L 36.8125 47.703125 
L 18.3125 47.703125 
L 18.3125 18.015625 
Q 18.3125 11.328125 20.140625 9.421875 
Q 21.96875 7.515625 27.59375 7.515625 
L 36.8125 7.515625 
L 36.8125 0 
L 27.59375 0 
Q 17.1875 0 13.234375 3.875 
Q 9.28125 7.765625 9.28125 18.015625 
L 9.28125 47.703125 
L 2.6875 47.703125 
L 2.6875 54.6875 
L 9.28125 54.6875 
L 9.28125 70.21875 
z
" id="DejaVuSans-74"/>
      <path d="M 56.203125 29.59375 
L 56.203125 25.203125 
L 14.890625 25.203125 
Q 15.484375 15.921875 20.484375 11.0625 
Q 25.484375 6.203125 34.421875 6.203125 
Q 39.59375 6.203125 44.453125 7.46875 
Q 49.3125 8.734375 54.109375 11.28125 
L 54.109375 2.78125 
Q 49.265625 0.734375 44.1875 -0.34375 
Q 39.109375 -1.421875 33.890625 -1.421875 
Q 20.796875 -1.421875 13.15625 6.1875 
Q 5.515625 13.8125 5.515625 26.8125 
Q 5.515625 40.234375 12.765625 48.109375 
Q 20.015625 56 32.328125 56 
Q 43.359375 56 49.78125 48.890625 
Q 56.203125 41.796875 56.203125 29.59375 
z
M 47.21875 32.234375 
Q 47.125 39.59375 43.09375 43.984375 
Q 39.0625 48.390625 32.421875 48.390625 
Q 24.90625 48.390625 20.390625 44.140625 
Q 15.875 39.890625 15.1875 32.171875 
z
" id="DejaVuSans-65"/>
     </defs>
     <g transform="translate(235.335344 338.140062)scale(0.1 -0.1)">
      <use xlink:href="#DejaVuSans-44"/>
      <use x="77.001953" xlink:href="#DejaVuSans-61"/>
      <use x="138.28125" xlink:href="#DejaVuSans-74"/>
      <use x="177.490234" xlink:href="#DejaVuSans-65"/>
     </g>
    </g>
   </g>
   <g id="matplotlib.axis_2">
    <g id="ytick_1">
     <g id="line2d_17">
      <path clip-path="url(#p33c1d7bfd6)" d="M 47.09225 296.840843 
L 447.48 296.840843 
" style="fill:none;stroke:#b0b0b0;stroke-linecap:square;stroke-width:0.8;"/>
     </g>
     <g id="line2d_18">
      <defs>
       <path d="M 0 0 
L -3.5 0 
" id="mee9b0a76e3" style="stroke:#000000;stroke-width:0.8;"/>
      </defs>
      <g>
       <use style="stroke:#000000;stroke-width:0.8;" x="47.09225" xlink:href="#mee9b0a76e3" y="296.840843"/>
      </g>
     </g>
     <g id="text_10">
      <!-- 0 -->
      <g transform="translate(33.72975 300.640062)scale(0.1 -0.1)">
       <use xlink:href="#DejaVuSans-30"/>
      </g>
     </g>
    </g>
    <g id="ytick_2">
     <g id="line2d_19">
      <path clip-path="url(#p33c1d7bfd6)" d="M 47.09225 243.687142 
L 447.48 243.687142 
" style="fill:none;stroke:#b0b0b0;stroke-linecap:square;stroke-width:0.8;"/>
     </g>
     <g id="line2d_20">
      <g>
       <use style="stroke:#000000;stroke-width:0.8;" x="47.09225" xlink:href="#mee9b0a76e3" y="243.687142"/>
      </g>
     </g>
     <g id="text_11">
      <!-- 200 -->
      <g transform="translate(21.00475 247.486361)scale(0.1 -0.1)">
       <use xlink:href="#DejaVuSans-32"/>
       <use x="63.623047" xlink:href="#DejaVuSans-30"/>
       <use x="127.246094" xlink:href="#DejaVuSans-30"/>
      </g>
     </g>
    </g>
    <g id="ytick_3">
     <g id="line2d_21">
      <path clip-path="url(#p33c1d7bfd6)" d="M 47.09225 190.533441 
L 447.48 190.533441 
" style="fill:none;stroke:#b0b0b0;stroke-linecap:square;stroke-width:0.8;"/>
     </g>
     <g id="line2d_22">
      <g>
       <use style="stroke:#000000;stroke-width:0.8;" x="47.09225" xlink:href="#mee9b0a76e3" y="190.533441"/>
      </g>
     </g>
     <g id="text_12">
      <!-- 400 -->
      <defs>
       <path d="M 37.796875 64.3125 
L 12.890625 25.390625 
L 37.796875 25.390625 
z
M 35.203125 72.90625 
L 47.609375 72.90625 
L 47.609375 25.390625 
L 58.015625 25.390625 
L 58.015625 17.1875 
L 47.609375 17.1875 
L 47.609375 0 
L 37.796875 0 
L 37.796875 17.1875 
L 4.890625 17.1875 
L 4.890625 26.703125 
z
" id="DejaVuSans-34"/>
      </defs>
      <g transform="translate(21.00475 194.332659)scale(0.1 -0.1)">
       <use xlink:href="#DejaVuSans-34"/>
       <use x="63.623047" xlink:href="#DejaVuSans-30"/>
       <use x="127.246094" xlink:href="#DejaVuSans-30"/>
      </g>
     </g>
    </g>
    <g id="ytick_4">
     <g id="line2d_23">
      <path clip-path="url(#p33c1d7bfd6)" d="M 47.09225 137.379739 
L 447.48 137.379739 
" style="fill:none;stroke:#b0b0b0;stroke-linecap:square;stroke-width:0.8;"/>
     </g>
     <g id="line2d_24">
      <g>
       <use style="stroke:#000000;stroke-width:0.8;" x="47.09225" xlink:href="#mee9b0a76e3" y="137.379739"/>
      </g>
     </g>
     <g id="text_13">
      <!-- 600 -->
      <defs>
       <path d="M 33.015625 40.375 
Q 26.375 40.375 22.484375 35.828125 
Q 18.609375 31.296875 18.609375 23.390625 
Q 18.609375 15.53125 22.484375 10.953125 
Q 26.375 6.390625 33.015625 6.390625 
Q 39.65625 6.390625 43.53125 10.953125 
Q 47.40625 15.53125 47.40625 23.390625 
Q 47.40625 31.296875 43.53125 35.828125 
Q 39.65625 40.375 33.015625 40.375 
z
M 52.59375 71.296875 
L 52.59375 62.3125 
Q 48.875 64.0625 45.09375 64.984375 
Q 41.3125 65.921875 37.59375 65.921875 
Q 27.828125 65.921875 22.671875 59.328125 
Q 17.53125 52.734375 16.796875 39.40625 
Q 19.671875 43.65625 24.015625 45.921875 
Q 28.375 48.1875 33.59375 48.1875 
Q 44.578125 48.1875 50.953125 41.515625 
Q 57.328125 34.859375 57.328125 23.390625 
Q 57.328125 12.15625 50.6875 5.359375 
Q 44.046875 -1.421875 33.015625 -1.421875 
Q 20.359375 -1.421875 13.671875 8.265625 
Q 6.984375 17.96875 6.984375 36.375 
Q 6.984375 53.65625 15.1875 63.9375 
Q 23.390625 74.21875 37.203125 74.21875 
Q 40.921875 74.21875 44.703125 73.484375 
Q 48.484375 72.75 52.59375 71.296875 
z
" id="DejaVuSans-36"/>
      </defs>
      <g transform="translate(21.00475 141.178958)scale(0.1 -0.1)">
       <use xlink:href="#DejaVuSans-36"/>
       <use x="63.623047" xlink:href="#DejaVuSans-30"/>
       <use x="127.246094" xlink:href="#DejaVuSans-30"/>
      </g>
     </g>
    </g>
    <g id="ytick_5">
     <g id="line2d_25">
      <path clip-path="url(#p33c1d7bfd6)" d="M 47.09225 84.226038 
L 447.48 84.226038 
" style="fill:none;stroke:#b0b0b0;stroke-linecap:square;stroke-width:0.8;"/>
     </g>
     <g id="line2d_26">
      <g>
       <use style="stroke:#000000;stroke-width:0.8;" x="47.09225" xlink:href="#mee9b0a76e3" y="84.226038"/>
      </g>
     </g>
     <g id="text_14">
      <!-- 800 -->
      <defs>
       <path d="M 31.78125 34.625 
Q 24.75 34.625 20.71875 30.859375 
Q 16.703125 27.09375 16.703125 20.515625 
Q 16.703125 13.921875 20.71875 10.15625 
Q 24.75 6.390625 31.78125 6.390625 
Q 38.8125 6.390625 42.859375 10.171875 
Q 46.921875 13.96875 46.921875 20.515625 
Q 46.921875 27.09375 42.890625 30.859375 
Q 38.875 34.625 31.78125 34.625 
z
M 21.921875 38.8125 
Q 15.578125 40.375 12.03125 44.71875 
Q 8.5 49.078125 8.5 55.328125 
Q 8.5 64.0625 14.71875 69.140625 
Q 20.953125 74.21875 31.78125 74.21875 
Q 42.671875 74.21875 48.875 69.140625 
Q 55.078125 64.0625 55.078125 55.328125 
Q 55.078125 49.078125 51.53125 44.71875 
Q 48 40.375 41.703125 38.8125 
Q 48.828125 37.15625 52.796875 32.3125 
Q 56.78125 27.484375 56.78125 20.515625 
Q 56.78125 9.90625 50.3125 4.234375 
Q 43.84375 -1.421875 31.78125 -1.421875 
Q 19.734375 -1.421875 13.25 4.234375 
Q 6.78125 9.90625 6.78125 20.515625 
Q 6.78125 27.484375 10.78125 32.3125 
Q 14.796875 37.15625 21.921875 38.8125 
z
M 18.3125 54.390625 
Q 18.3125 48.734375 21.84375 45.5625 
Q 25.390625 42.390625 31.78125 42.390625 
Q 38.140625 42.390625 41.71875 45.5625 
Q 45.3125 48.734375 45.3125 54.390625 
Q 45.3125 60.0625 41.71875 63.234375 
Q 38.140625 66.40625 31.78125 66.40625 
Q 25.390625 66.40625 21.84375 63.234375 
Q 18.3125 60.0625 18.3125 54.390625 
z
" id="DejaVuSans-38"/>
      </defs>
      <g transform="translate(21.00475 88.025257)scale(0.1 -0.1)">
       <use xlink:href="#DejaVuSans-38"/>
       <use x="63.623047" xlink:href="#DejaVuSans-30"/>
       <use x="127.246094" xlink:href="#DejaVuSans-30"/>
      </g>
     </g>
    </g>
    <g id="ytick_6">
     <g id="line2d_27">
      <path clip-path="url(#p33c1d7bfd6)" d="M 47.09225 31.072337 
L 447.48 31.072337 
" style="fill:none;stroke:#b0b0b0;stroke-linecap:square;stroke-width:0.8;"/>
     </g>
     <g id="line2d_28">
      <g>
       <use style="stroke:#000000;stroke-width:0.8;" x="47.09225" xlink:href="#mee9b0a76e3" y="31.072337"/>
      </g>
     </g>
     <g id="text_15">
      <!-- 1000 -->
      <g transform="translate(14.64225 34.871555)scale(0.1 -0.1)">
       <use xlink:href="#DejaVuSans-31"/>
       <use x="63.623047" xlink:href="#DejaVuSans-30"/>
       <use x="127.246094" xlink:href="#DejaVuSans-30"/>
       <use x="190.869141" xlink:href="#DejaVuSans-30"/>
      </g>
     </g>
    </g>
    <g id="text_16">
     <!-- Gross load (MW) -->
     <defs>
      <path d="M 59.515625 10.40625 
L 59.515625 29.984375 
L 43.40625 29.984375 
L 43.40625 38.09375 
L 69.28125 38.09375 
L 69.28125 6.78125 
Q 63.578125 2.734375 56.6875 0.65625 
Q 49.8125 -1.421875 42 -1.421875 
Q 24.90625 -1.421875 15.25 8.5625 
Q 5.609375 18.5625 5.609375 36.375 
Q 5.609375 54.25 15.25 64.234375 
Q 24.90625 74.21875 42 74.21875 
Q 49.125 74.21875 55.546875 72.453125 
Q 61.96875 70.703125 67.390625 67.28125 
L 67.390625 56.78125 
Q 61.921875 61.421875 55.765625 63.765625 
Q 49.609375 66.109375 42.828125 66.109375 
Q 29.4375 66.109375 22.71875 58.640625 
Q 16.015625 51.171875 16.015625 36.375 
Q 16.015625 21.625 22.71875 14.15625 
Q 29.4375 6.6875 42.828125 6.6875 
Q 48.046875 6.6875 52.140625 7.59375 
Q 56.25 8.5 59.515625 10.40625 
z
" id="DejaVuSans-47"/>
      <path d="M 41.109375 46.296875 
Q 39.59375 47.171875 37.8125 47.578125 
Q 36.03125 48 33.890625 48 
Q 26.265625 48 22.1875 43.046875 
Q 18.109375 38.09375 18.109375 28.8125 
L 18.109375 0 
L 9.078125 0 
L 9.078125 54.6875 
L 18.109375 54.6875 
L 18.109375 46.1875 
Q 20.953125 51.171875 25.484375 53.578125 
Q 30.03125 56 36.53125 56 
Q 37.453125 56 38.578125 55.875 
Q 39.703125 55.765625 41.0625 55.515625 
z
" id="DejaVuSans-72"/>
      <path d="M 30.609375 48.390625 
Q 23.390625 48.390625 19.1875 42.75 
Q 14.984375 37.109375 14.984375 27.296875 
Q 14.984375 17.484375 19.15625 11.84375 
Q 23.34375 6.203125 30.609375 6.203125 
Q 37.796875 6.203125 41.984375 11.859375 
Q 46.1875 17.53125 46.1875 27.296875 
Q 46.1875 37.015625 41.984375 42.703125 
Q 37.796875 48.390625 30.609375 48.390625 
z
M 30.609375 56 
Q 42.328125 56 49.015625 48.375 
Q 55.71875 40.765625 55.71875 27.296875 
Q 55.71875 13.875 49.015625 6.21875 
Q 42.328125 -1.421875 30.609375 -1.421875 
Q 18.84375 -1.421875 12.171875 6.21875 
Q 5.515625 13.875 5.515625 27.296875 
Q 5.515625 40.765625 12.171875 48.375 
Q 18.84375 56 30.609375 56 
z
" id="DejaVuSans-6f"/>
      <path d="M 44.28125 53.078125 
L 44.28125 44.578125 
Q 40.484375 46.53125 36.375 47.5 
Q 32.28125 48.484375 27.875 48.484375 
Q 21.1875 48.484375 17.84375 46.4375 
Q 14.5 44.390625 14.5 40.28125 
Q 14.5 37.15625 16.890625 35.375 
Q 19.28125 33.59375 26.515625 31.984375 
L 29.59375 31.296875 
Q 39.15625 29.25 43.1875 25.515625 
Q 47.21875 21.78125 47.21875 15.09375 
Q 47.21875 7.46875 41.1875 3.015625 
Q 35.15625 -1.421875 24.609375 -1.421875 
Q 20.21875 -1.421875 15.453125 -0.5625 
Q 10.6875 0.296875 5.421875 2 
L 5.421875 11.28125 
Q 10.40625 8.6875 15.234375 7.390625 
Q 20.0625 6.109375 24.8125 6.109375 
Q 31.15625 6.109375 34.5625 8.28125 
Q 37.984375 10.453125 37.984375 14.40625 
Q 37.984375 18.0625 35.515625 20.015625 
Q 33.0625 21.96875 24.703125 23.78125 
L 21.578125 24.515625 
Q 13.234375 26.265625 9.515625 29.90625 
Q 5.8125 33.546875 5.8125 39.890625 
Q 5.8125 47.609375 11.28125 51.796875 
Q 16.75 56 26.8125 56 
Q 31.78125 56 36.171875 55.265625 
Q 40.578125 54.546875 44.28125 53.078125 
z
" id="DejaVuSans-73"/>
      <path id="DejaVuSans-20"/>
      <path d="M 9.421875 75.984375 
L 18.40625 75.984375 
L 18.40625 0 
L 9.421875 0 
z
" id="DejaVuSans-6c"/>
      <path d="M 45.40625 46.390625 
L 45.40625 75.984375 
L 54.390625 75.984375 
L 54.390625 0 
L 45.40625 0 
L 45.40625 8.203125 
Q 42.578125 3.328125 38.25 0.953125 
Q 33.9375 -1.421875 27.875 -1.421875 
Q 17.96875 -1.421875 11.734375 6.484375 
Q 5.515625 14.40625 5.515625 27.296875 
Q 5.515625 40.1875 11.734375 48.09375 
Q 17.96875 56 27.875 56 
Q 33.9375 56 38.25 53.625 
Q 42.578125 51.265625 45.40625 46.390625 
z
M 14.796875 27.296875 
Q 14.796875 17.390625 18.875 11.75 
Q 22.953125 6.109375 30.078125 6.109375 
Q 37.203125 6.109375 41.296875 11.75 
Q 45.40625 17.390625 45.40625 27.296875 
Q 45.40625 37.203125 41.296875 42.84375 
Q 37.203125 48.484375 30.078125 48.484375 
Q 22.953125 48.484375 18.875 42.84375 
Q 14.796875 37.203125 14.796875 27.296875 
z
" id="DejaVuSans-64"/>
      <path d="M 31 75.875 
Q 24.46875 64.65625 21.28125 53.65625 
Q 18.109375 42.671875 18.109375 31.390625 
Q 18.109375 20.125 21.3125 9.0625 
Q 24.515625 -2 31 -13.1875 
L 23.1875 -13.1875 
Q 15.875 -1.703125 12.234375 9.375 
Q 8.59375 20.453125 8.59375 31.390625 
Q 8.59375 42.28125 12.203125 53.3125 
Q 15.828125 64.359375 23.1875 75.875 
z
" id="DejaVuSans-28"/>
      <path d="M 9.8125 72.90625 
L 24.515625 72.90625 
L 43.109375 23.296875 
L 61.8125 72.90625 
L 76.515625 72.90625 
L 76.515625 0 
L 66.890625 0 
L 66.890625 64.015625 
L 48.09375 14.015625 
L 38.1875 14.015625 
L 19.390625 64.015625 
L 19.390625 0 
L 9.8125 0 
z
" id="DejaVuSans-4d"/>
      <path d="M 3.328125 72.90625 
L 13.28125 72.90625 
L 28.609375 11.28125 
L 43.890625 72.90625 
L 54.984375 72.90625 
L 70.3125 11.28125 
L 85.59375 72.90625 
L 95.609375 72.90625 
L 77.296875 0 
L 64.890625 0 
L 49.515625 63.28125 
L 33.984375 0 
L 21.578125 0 
z
" id="DejaVuSans-57"/>
      <path d="M 8.015625 75.875 
L 15.828125 75.875 
Q 23.140625 64.359375 26.78125 53.3125 
Q 30.421875 42.28125 30.421875 31.390625 
Q 30.421875 20.453125 26.78125 9.375 
Q 23.140625 -1.703125 15.828125 -13.1875 
L 8.015625 -13.1875 
Q 14.5 -2 17.703125 9.0625 
Q 20.90625 20.125 20.90625 31.390625 
Q 20.90625 42.671875 17.703125 53.65625 
Q 14.5 64.65625 8.015625 75.875 
z
" id="DejaVuSans-29"/>
     </defs>
     <g transform="translate(8.562563 207.835369)rotate(-90)scale(0.1 -0.1)">
      <use xlink:href="#DejaVuSans-47"/>
      <use x="77.490234" xlink:href="#DejaVuSans-72"/>
      <use x="118.572266" xlink:href="#DejaVuSans-6f"/>
      <use x="179.753906" xlink:href="#DejaVuSans-73"/>
      <use x="231.853516" xlink:href="#DejaVuSans-73"/>
      <use x="283.953125" xlink:href="#DejaVuSans-20"/>
      <use x="315.740234" xlink:href="#DejaVuSans-6c"/>
      <use x="343.523438" xlink:href="#DejaVuSans-6f"/>
      <use x="404.705078" xlink:href="#DejaVuSans-61"/>
      <use x="465.984375" xlink:href="#DejaVuSans-64"/>
      <use x="529.460938" xlink:href="#DejaVuSans-20"/>
      <use x="561.248047" xlink:href="#DejaVuSans-28"/>
      <use x="600.261719" xlink:href="#DejaVuSans-4d"/>
      <use x="686.541016" xlink:href="#DejaVuSans-57"/>
      <use x="785.417969" xlink:href="#DejaVuSans-29"/>
     </g>
    </g>
   </g>
   <g id="line2d_29">
    <path clip-path="url(#p33c1d7bfd6)" d="M 47.09225 162.361979 
L 48.880836 144.555489 
L 50.861056 109.208278 
L 52.777398 107.613667 
L 58.654181 130.469758 
L 60.634401 120.370555 
L 62.550743 157.71103 
L 64.530963 159.172757 
L 66.447306 142.827994 
L 68.427526 128.34361 
L 70.407746 144.555489 
L 72.196332 133.526096 
L 74.176552 136.050897 
L 76.092894 145.618563 
L 78.073115 148.276248 
L 79.989457 142.429341 
L 81.969677 137.911276 
L 83.949897 153.857387 
L 85.866239 232.790633 
L 87.846459 227.741031 
L 89.762802 111.068657 
L 91.743022 127.944957 
L 93.723242 116.118259 
L 95.511828 194.519968 
L 97.492048 205.283593 
L 99.40839 117.71287 
L 101.38861 154.388924 
L 103.304953 136.183781 
L 105.285173 109.075393 
L 107.265393 120.769208 
L 109.181735 110.802889 
L 111.161955 107.08213 
L 113.078298 134.987823 
L 115.058518 133.127443 
L 117.038738 107.613667 
L 118.891202 145.884331 
L 120.871422 132.595906 
L 122.787764 134.854938 
L 124.767985 137.379739 
L 126.684327 113.194805 
L 128.664547 113.726342 
L 130.644767 129.140916 
L 132.561109 113.194805 
L 134.541329 112.131731 
L 136.457672 139.505887 
L 138.437892 127.280536 
L 140.418112 138.708582 
L 142.206698 138.442813 
L 144.186918 123.02824 
L 146.10326 125.951694 
L 148.08348 99.374843 
L 149.999823 112.663268 
L 151.980043 157.046609 
L 153.960263 120.769208 
L 155.876605 128.609379 
L 157.856825 112.663268 
L 159.773168 103.095602 
L 161.753388 113.992111 
L 163.733608 127.147652 
L 165.522194 130.469758 
L 167.502414 199.303801 
L 169.418756 151.731239 
L 171.398976 134.190517 
L 173.315319 103.627139 
L 175.295539 124.755735 
L 177.275759 131.532832 
L 179.192101 127.546305 
L 181.172321 133.924749 
L 183.088663 145.884331 
L 185.068884 124.091314 
L 187.049104 117.71287 
L 188.83769 110.005583 
L 190.81791 126.483231 
L 192.734252 129.406684 
L 194.714472 143.625299 
L 196.630815 124.091314 
L 198.611035 121.433629 
L 200.591255 128.34361 
L 202.507597 144.555489 
L 204.487817 172.461182 
L 206.404159 128.609379 
L 208.38438 134.722054 
L 210.3646 113.460574 
L 212.217064 124.755735 
L 214.197284 143.359531 
L 216.113626 185.483839 
L 218.093846 169.006192 
L 220.010189 148.674901 
L 221.990409 107.08213 
L 223.970629 114.257879 
L 225.886971 143.093762 
L 227.867191 137.379739 
L 229.783534 195.848811 
L 231.763754 128.875147 
L 233.743974 171.929645 
L 235.53256 250.065586 
L 237.51278 223.222967 
L 239.429122 234.916781 
L 241.409342 148.276248 
L 243.325685 171.929645 
L 245.305905 138.708582 
L 247.286125 119.174597 
L 249.202467 148.807785 
L 251.182687 240.49792 
L 253.099029 238.903309 
L 255.07925 184.686533 
L 257.05947 152.528544 
L 258.848056 175.384636 
L 260.828276 165.285432 
L 262.744618 231.461791 
L 264.724838 225.880652 
L 266.641181 150.402396 
L 268.621401 149.605091 
L 270.601621 195.317274 
L 272.517963 166.614275 
L 274.498183 199.835338 
L 276.414525 173.524256 
L 278.394746 128.609379 
L 280.374966 142.163572 
L 282.163552 140.967614 
L 284.143772 177.245015 
L 286.060114 143.625299 
L 288.040334 163.159284 
L 289.956677 167.411581 
L 291.936897 137.645508 
L 293.917117 111.865963 
L 295.833459 153.060081 
L 297.813679 225.880652 
L 299.730021 179.238279 
L 301.710242 178.839626 
L 303.690462 182.028848 
L 305.542926 182.826154 
L 307.523146 211.263384 
L 309.439488 209.403005 
L 313.336051 198.240727 
L 315.316271 167.411581 
L 317.296491 195.583042 
L 319.212833 200.366875 
L 321.193053 197.974959 
L 323.109395 174.58733 
L 325.089616 197.974959 
L 327.069836 200.101107 
L 328.858422 198.506496 
L 330.838642 186.14826 
L 332.754984 198.772264 
L 334.735204 199.303801 
L 336.651547 162.229095 
L 338.631767 176.580594 
L 340.611987 179.636932 
L 342.528329 199.038033 
L 344.508549 256.178262 
L 346.424891 198.905149 
L 348.405112 201.164181 
L 350.385332 233.32217 
L 352.173918 198.506496 
L 354.154138 194.785737 
L 356.07048 177.510784 
L 358.0507 179.371163 
L 359.967043 169.803497 
L 361.947263 163.95659 
L 363.927483 182.560385 
L 365.843825 173.790025 
L 367.824045 199.835338 
L 369.740387 259.899021 
L 371.720608 174.853099 
L 373.700828 191.862283 
L 375.489414 200.366875 
L 377.469634 264.948622 
L 379.385976 203.02456 
L 381.366196 204.88494 
L 383.282538 200.366875 
L 385.262759 200.366875 
L 387.242979 185.483839 
L 389.159321 113.593458 
L 391.139541 119.307481 
L 393.055883 217.641828 
L 395.036104 232.524865 
L 397.016324 232.790633 
L 398.868788 161.298905 
L 400.849008 135.785128 
L 402.76535 108.278088 
L 404.74557 139.638772 
L 406.661913 150.668165 
L 408.642133 117.71287 
L 410.622353 105.620403 
L 414.518915 172.594066 
L 418.415478 158.64122 
L 420.395698 110.935773 
L 422.184284 167.411581 
L 424.164504 196.911885 
L 426.080846 139.771656 
L 428.061066 158.774104 
L 429.977409 123.825545 
L 431.957629 92.331977 
L 433.937849 142.296457 
L 435.854191 217.774712 
L 437.834411 193.058241 
L 439.750753 200.101107 
L 441.730974 175.650404 
L 443.711194 228.272569 
L 445.49978 207.276856 
L 447.48 186.14826 
L 447.48 186.14826 
" style="fill:none;stroke:#1f77b4;stroke-linecap:square;stroke-width:1.5;"/>
   </g>
   <g id="patch_3">
    <path d="M 47.09225 309.8635 
L 47.09225 23.36505 
" style="fill:none;stroke:#000000;stroke-linecap:square;stroke-linejoin:miter;stroke-width:0.8;"/>
   </g>
   <g id="patch_4">
    <path d="M 447.48 309.8635 
L 447.48 23.36505 
" style="fill:none;stroke:#000000;stroke-linecap:square;stroke-linejoin:miter;stroke-width:0.8;"/>
   </g>
   <g id="patch_5">
    <path d="M 47.09225 309.8635 
L 447.48 309.8635 
" style="fill:none;stroke:#000000;stroke-linecap:square;stroke-linejoin:miter;stroke-width:0.8;"/>
   </g>
   <g id="patch_6">
    <path d="M 47.09225 23.36505 
L 447.48 23.36505 
" style="fill:none;stroke:#000000;stroke-linecap:square;stroke-linejoin:miter;stroke-width:0.8;"/>
   </g>
   <g id="text_17">
    <!-- Monthly gload trend -->
    <defs>
     <path d="M 54.890625 33.015625 
L 54.890625 0 
L 45.90625 0 
L 45.90625 32.71875 
Q 45.90625 40.484375 42.875 44.328125 
Q 39.84375 48.1875 33.796875 48.1875 
Q 26.515625 48.1875 22.3125 43.546875 
Q 18.109375 38.921875 18.109375 30.90625 
L 18.109375 0 
L 9.078125 0 
L 9.078125 54.6875 
L 18.109375 54.6875 
L 18.109375 46.1875 
Q 21.34375 51.125 25.703125 53.5625 
Q 30.078125 56 35.796875 56 
Q 45.21875 56 50.046875 50.171875 
Q 54.890625 44.34375 54.890625 33.015625 
z
" id="DejaVuSans-6e"/>
     <path d="M 54.890625 33.015625 
L 54.890625 0 
L 45.90625 0 
L 45.90625 32.71875 
Q 45.90625 40.484375 42.875 44.328125 
Q 39.84375 48.1875 33.796875 48.1875 
Q 26.515625 48.1875 22.3125 43.546875 
Q 18.109375 38.921875 18.109375 30.90625 
L 18.109375 0 
L 9.078125 0 
L 9.078125 75.984375 
L 18.109375 75.984375 
L 18.109375 46.1875 
Q 21.34375 51.125 25.703125 53.5625 
Q 30.078125 56 35.796875 56 
Q 45.21875 56 50.046875 50.171875 
Q 54.890625 44.34375 54.890625 33.015625 
z
" id="DejaVuSans-68"/>
     <path d="M 32.171875 -5.078125 
Q 28.375 -14.84375 24.75 -17.8125 
Q 21.140625 -20.796875 15.09375 -20.796875 
L 7.90625 -20.796875 
L 7.90625 -13.28125 
L 13.1875 -13.28125 
Q 16.890625 -13.28125 18.9375 -11.515625 
Q 21 -9.765625 23.484375 -3.21875 
L 25.09375 0.875 
L 2.984375 54.6875 
L 12.5 54.6875 
L 29.59375 11.921875 
L 46.6875 54.6875 
L 56.203125 54.6875 
z
" id="DejaVuSans-79"/>
     <path d="M 45.40625 27.984375 
Q 45.40625 37.75 41.375 43.109375 
Q 37.359375 48.484375 30.078125 48.484375 
Q 22.859375 48.484375 18.828125 43.109375 
Q 14.796875 37.75 14.796875 27.984375 
Q 14.796875 18.265625 18.828125 12.890625 
Q 22.859375 7.515625 30.078125 7.515625 
Q 37.359375 7.515625 41.375 12.890625 
Q 45.40625 18.265625 45.40625 27.984375 
z
M 54.390625 6.78125 
Q 54.390625 -7.171875 48.1875 -13.984375 
Q 42 -20.796875 29.203125 -20.796875 
Q 24.46875 -20.796875 20.265625 -20.09375 
Q 16.0625 -19.390625 12.109375 -17.921875 
L 12.109375 -9.1875 
Q 16.0625 -11.328125 19.921875 -12.34375 
Q 23.78125 -13.375 27.78125 -13.375 
Q 36.625 -13.375 41.015625 -8.765625 
Q 45.40625 -4.15625 45.40625 5.171875 
L 45.40625 9.625 
Q 42.625 4.78125 38.28125 2.390625 
Q 33.9375 0 27.875 0 
Q 17.828125 0 11.671875 7.65625 
Q 5.515625 15.328125 5.515625 27.984375 
Q 5.515625 40.671875 11.671875 48.328125 
Q 17.828125 56 27.875 56 
Q 33.9375 56 38.28125 53.609375 
Q 42.625 51.21875 45.40625 46.390625 
L 45.40625 54.6875 
L 54.390625 54.6875 
z
" id="DejaVuSans-67"/>
    </defs>
    <g transform="translate(186.6955 17.36505)scale(0.12 -0.12)">
     <use xlink:href="#DejaVuSans-4d"/>
     <use x="86.279297" xlink:href="#DejaVuSans-6f"/>
     <use x="147.460938" xlink:href="#DejaVuSans-6e"/>
     <use x="210.839844" xlink:href="#DejaVuSans-74"/>
     <use x="250.048828" xlink:href="#DejaVuSans-68"/>
     <use x="313.427734" xlink:href="#DejaVuSans-6c"/>
     <use x="341.210938" xlink:href="#DejaVuSans-79"/>
     <use x="400.390625" xlink:href="#DejaVuSans-20"/>
     <use x="432.177734" xlink:href="#DejaVuSans-67"/>
     <use x="495.654297" xlink:href="#DejaVuSans-6c"/>
     <use x="523.4375" xlink:href="#DejaVuSans-6f"/>
     <use x="584.619141" xlink:href="#DejaVuSans-61"/>
     <use x="645.898438" xlink:href="#DejaVuSans-64"/>
     <use x="709.375" xlink:href="#DejaVuSans-20"/>
     <use x="741.162109" xlink:href="#DejaVuSans-74"/>
     <use x="780.371094" xlink:href="#DejaVuSans-72"/>
     <use x="821.453125" xlink:href="#DejaVuSans-65"/>
     <use x="882.976562" xlink:href="#DejaVuSans-6e"/>
     <use x="946.355469" xlink:href="#DejaVuSans-64"/>
    </g>
   </g>
  </g>
 </g>
 <defs>
  <clipPath id="p33c1d7bfd6">
   <rect height="286.49845" width="400.38775" x="47.09225" y="23.36505"/>
  </clipPath>
 </defs>
</svg>
