<?xml version="1.0" encoding="utf-8" standalone="no"?>
<!DOCTYPE svg PUBLIC "-//W3C//DTD SVG 1.1//EN"
  "http://www.w3.org/Graphics/SVG/1.1/DTD/svg11.dtd">
<!-- Created with matplotlib (http://matplotlib.org/) -->
<svg height="345.6pt" version="1.1" viewBox="0 0 460.8 345.6" width="460.8pt" xmlns="http://www.w3.org/2000/svg" xmlns:xlink="http://www.w3.org/1999/xlink">
 <defs>
  <style type="text/css">
*{stroke-linecap:butt;stroke-linejoin:round;}
  </style>
 </defs>
 <g id="figure_1">
  <g id="patch_1">
   <path d="M 0 345.6 
L 460.8 345.6 
L 460.8 0 
L 0 0 
z
" style="fill:none;"/>
  </g>
  <g id="axes_1">
   <g id="patch_2">
    <path d="M 47.09225 309.8635 
L 447.48 309.8635 
L 447.48 23.36505 
L 47.09225 23.36505 
z
" style="fill:none;"/>
   </g>
   <g id="PolyCollection_1">
    <path clip-path="url(#p826a528f80)" d="M 47.09225 182.331219 
L 47.09225 251.205697 
L 48.880836 274.10514 
L 50.861056 270.934447 
L 52.777398 288.549403 
L 54.757619 255.257137 
L 56.673961 274.281289 
L 58.654181 274.10514 
L 60.634401 274.10514 
L 62.550743 274.809738 
L 64.530963 281.327271 
L 66.447306 309.8635 
L 68.427526 274.809738 
L 70.407746 235.704536 
L 72.196332 274.985887 
L 74.176552 261.070072 
L 76.092894 274.457439 
L 78.073115 274.809738 
L 79.989457 269.701401 
L 81.969677 253.143342 
L 83.949897 275.690486 
L 85.866239 271.286747 
L 87.846459 251.734146 
L 89.762802 239.579826 
L 91.743022 266.354559 
L 93.723242 309.8635 
L 95.511828 273.92899 
L 97.492048 261.598521 
L 99.40839 281.503421 
L 101.38861 261.77467 
L 103.304953 273.224392 
L 105.285173 273.75284 
L 107.265393 239.227527 
L 109.181735 275.162037 
L 111.161955 274.985887 
L 113.078298 273.92899 
L 115.058518 272.695943 
L 117.038738 261.77467 
L 118.891202 249.97265 
L 120.871422 259.837025 
L 122.787764 248.211154 
L 124.767985 276.571233 
L 126.684327 309.335051 
L 128.664547 273.576691 
L 130.644767 249.444201 
L 132.561109 309.8635 
L 134.541329 309.8635 
L 136.457672 309.8635 
L 138.437892 282.736468 
L 140.418112 256.490184 
L 142.206698 271.462896 
L 144.186918 270.405999 
L 146.10326 258.251679 
L 148.08348 273.224392 
L 149.999823 309.8635 
L 151.980043 274.809738 
L 153.960263 309.8635 
L 155.876605 272.872093 
L 157.856825 309.8635 
L 159.773168 272.167494 
L 161.753388 238.875228 
L 163.733608 249.444201 
L 165.522194 248.211154 
L 167.502414 264.769213 
L 169.418756 271.462896 
L 171.398976 227.777806 
L 173.315319 282.03187 
L 175.295539 251.029547 
L 177.275759 271.462896 
L 179.192101 269.172952 
L 181.172321 265.473811 
L 183.088663 250.324949 
L 185.068884 275.690486 
L 187.049104 220.555674 
L 188.83769 276.395084 
L 190.81791 269.349101 
L 192.734252 253.84794 
L 194.714472 270.758298 
L 196.630815 278.332729 
L 198.611035 270.758298 
L 200.591255 274.985887 
L 202.507597 309.8635 
L 204.487817 309.8635 
L 206.404159 273.75284 
L 208.38438 243.631266 
L 210.3646 269.701401 
L 212.217064 269.701401 
L 214.197284 247.506556 
L 216.113626 271.991345 
L 218.093846 309.8635 
L 220.010189 264.416914 
L 221.990409 269.525251 
L 223.970629 251.557996 
L 225.886971 271.991345 
L 227.867191 309.8635 
L 229.783534 270.0537 
L 231.763754 276.923532 
L 233.743974 278.332729 
L 235.53256 253.143342 
L 237.51278 309.8635 
L 239.429122 269.349101 
L 241.409342 227.073207 
L 243.325685 267.587606 
L 245.305905 252.086445 
L 247.286125 268.468354 
L 249.202467 309.8635 
L 251.182687 268.116055 
L 253.099029 263.712316 
L 255.07925 273.92899 
L 257.05947 262.479269 
L 258.848056 269.525251 
L 260.828276 246.801958 
L 262.744618 309.8635 
L 264.724838 250.1488 
L 266.641181 268.644503 
L 268.621401 252.438744 
L 270.601621 224.607114 
L 272.517963 309.8635 
L 274.498183 309.8635 
L 276.414525 259.660876 
L 278.394746 252.086445 
L 280.374966 251.557996 
L 282.163552 212.628944 
L 284.143772 214.390439 
L 286.060114 235.528386 
L 288.040334 283.969515 
L 289.956677 309.8635 
L 291.936897 309.8635 
L 293.917117 186.734958 
L 295.833459 270.229849 
L 297.813679 227.601656 
L 299.730021 229.715451 
L 301.710242 258.603978 
L 303.690462 265.649961 
L 305.542926 226.01631 
L 307.523146 147.453607 
L 309.439488 183.740416 
L 311.419708 269.172952 
L 313.336051 187.263407 
L 315.316271 186.382659 
L 317.296491 247.858855 
L 319.212833 246.449659 
L 321.193053 225.135562 
L 323.109395 257.018632 
L 325.089616 216.328084 
L 327.069836 187.968005 
L 328.858422 155.204187 
L 330.838642 250.677248 
L 332.754984 267.235307 
L 334.735204 258.251679 
L 336.651547 267.059157 
L 338.631767 252.438744 
L 340.611987 255.609436 
L 342.528329 267.059157 
L 344.508549 225.664011 
L 346.424891 190.786398 
L 348.405112 147.982055 
L 350.385332 138.469979 
L 352.173918 217.032682 
L 354.154138 266.706858 
L 356.07048 248.915753 
L 358.0507 255.785585 
L 359.967043 267.411456 
L 361.947263 187.968005 
L 363.927483 212.805093 
L 365.843825 264.945362 
L 367.824045 248.915753 
L 369.740387 234.647638 
L 371.720608 263.888465 
L 373.700828 249.444201 
L 375.489414 144.106765 
L 377.469634 224.254814 
L 379.385976 192.019445 
L 381.366196 176.165985 
L 383.282538 175.989835 
L 385.262759 132.657044 
L 387.242979 159.431777 
L 389.159321 223.726366 
L 391.139541 267.763755 
L 393.055883 224.783263 
L 395.036104 221.260272 
L 397.016324 236.585284 
L 398.868788 249.091902 
L 400.849008 267.587606 
L 402.76535 309.8635 
L 404.74557 309.8635 
L 406.661913 227.073207 
L 408.642133 136.180035 
L 410.622353 170.881498 
L 412.538695 226.897058 
L 414.518915 190.610249 
L 416.435257 146.572859 
L 418.415478 185.325762 
L 420.395698 229.363152 
L 422.184284 219.146477 
L 424.164504 219.322627 
L 426.080846 309.8635 
L 428.061066 235.880685 
L 429.977409 233.414591 
L 431.957629 150.624299 
L 433.937849 218.794178 
L 435.854191 235.704536 
L 437.834411 246.09736 
L 439.750753 233.062292 
L 441.730974 184.092715 
L 443.711194 223.902515 
L 445.49978 189.024903 
L 447.48 249.97265 
L 447.48 44.758414 
L 447.48 44.758414 
L 445.49978 41.763871 
L 443.711194 42.116171 
L 441.730974 41.411572 
L 439.750753 42.116171 
L 437.834411 48.281405 
L 435.854191 70.12395 
L 433.937849 42.996918 
L 431.957629 43.877666 
L 429.977409 44.582264 
L 428.061066 41.940021 
L 426.080846 183.211967 
L 424.164504 43.701517 
L 422.184284 42.820769 
L 420.395698 42.46847 
L 418.415478 41.587722 
L 416.435257 41.235423 
L 414.518915 42.116171 
L 412.538695 41.587722 
L 410.622353 55.855836 
L 408.642133 44.582264 
L 406.661913 45.639162 
L 404.74557 87.386607 
L 402.76535 108.524554 
L 400.849008 45.463012 
L 398.868788 52.508995 
L 397.016324 41.411572 
L 395.036104 42.644619 
L 393.055883 182.683519 
L 391.139541 182.683519 
L 389.159321 52.685144 
L 387.242979 42.46847 
L 385.262759 37.007833 
L 383.282538 41.763871 
L 381.366196 43.525367 
L 379.385976 66.777109 
L 377.469634 67.834006 
L 375.489414 69.595502 
L 373.700828 55.855836 
L 371.720608 42.644619 
L 369.740387 92.847243 
L 367.824045 89.852701 
L 365.843825 183.388117 
L 363.927483 40.706974 
L 361.947263 40.530825 
L 359.967043 42.996918 
L 358.0507 105.882311 
L 356.07048 105.882311 
L 354.154138 50.3952 
L 352.173918 44.229965 
L 350.385332 50.21905 
L 348.405112 48.457555 
L 346.424891 45.815311 
L 344.508549 44.582264 
L 342.528329 185.325762 
L 340.611987 52.685144 
L 338.631767 54.27049 
L 336.651547 49.338302 
L 334.735204 47.576807 
L 332.754984 56.912733 
L 330.838642 47.048358 
L 328.858422 46.696059 
L 327.069836 46.51991 
L 325.089616 42.644619 
L 323.109395 51.452097 
L 321.193053 42.116171 
L 319.212833 43.525367 
L 317.296491 43.701517 
L 315.316271 42.996918 
L 313.336051 41.763871 
L 311.419708 43.349217 
L 309.439488 44.406115 
L 307.523146 44.053816 
L 305.542926 38.41703 
L 303.690462 47.576807 
L 301.710242 44.229965 
L 299.730021 183.211967 
L 297.813679 183.388117 
L 295.833459 42.996918 
L 293.917117 37.712432 
L 291.936897 53.037443 
L 289.956677 55.855836 
L 288.040334 53.213593 
L 286.060114 165.420862 
L 284.143772 101.302422 
L 282.163552 41.411572 
L 280.374966 42.644619 
L 278.394746 44.229965 
L 276.414525 100.245525 
L 274.498183 102.007021 
L 272.517963 71.004698 
L 270.601621 42.820769 
L 268.621401 43.701517 
L 266.641181 63.254118 
L 264.724838 49.690602 
L 262.744618 39.473927 
L 260.828276 51.980546 
L 258.848056 101.830871 
L 257.05947 130.3671 
L 255.07925 184.973463 
L 253.099029 183.916565 
L 251.182687 182.331219 
L 249.202467 182.15507 
L 247.286125 180.922023 
L 245.305905 183.916565 
L 243.325685 183.211967 
L 241.409342 184.621164 
L 239.429122 183.388117 
L 237.51278 182.331219 
L 235.53256 183.564266 
L 233.743974 182.331219 
L 231.763754 181.97892 
L 229.783534 181.97892 
L 227.867191 243.455116 
L 225.886971 244.512014 
L 223.970629 183.740416 
L 221.990409 183.740416 
L 220.010189 182.683519 
L 218.093846 183.564266 
L 216.113626 183.564266 
L 214.197284 184.092715 
L 212.217064 183.388117 
L 210.3646 184.445014 
L 208.38438 186.382659 
L 206.404159 185.501911 
L 204.487817 245.92121 
L 202.507597 187.615706 
L 200.591255 187.087257 
L 198.611035 185.854211 
L 196.630815 184.973463 
L 194.714472 188.320304 
L 192.734252 184.445014 
L 190.81791 181.97892 
L 188.83769 180.922023 
L 187.049104 182.683519 
L 185.068884 182.683519 
L 183.088663 182.331219 
L 181.172321 184.797313 
L 179.192101 181.274322 
L 177.275759 182.683519 
L 175.295539 184.268865 
L 173.315319 184.268865 
L 171.398976 182.859668 
L 169.418756 183.916565 
L 167.502414 183.740416 
L 165.522194 183.211967 
L 163.733608 184.092715 
L 161.753388 183.388117 
L 159.773168 184.797313 
L 157.856825 247.154257 
L 155.876605 182.683519 
L 153.960263 182.331219 
L 151.980043 182.859668 
L 149.999823 183.564266 
L 148.08348 183.564266 
L 146.10326 181.97892 
L 144.186918 182.683519 
L 142.206698 181.97892 
L 140.418112 182.331219 
L 138.437892 180.745873 
L 136.457672 182.683519 
L 134.541329 245.745061 
L 132.561109 199.946175 
L 130.644767 184.797313 
L 128.664547 184.268865 
L 126.684327 184.973463 
L 124.767985 183.564266 
L 122.787764 182.507369 
L 120.871422 182.507369 
L 118.891202 182.507369 
L 117.038738 181.802771 
L 115.058518 182.683519 
L 113.078298 182.683519 
L 111.161955 182.331219 
L 109.181735 182.683519 
L 107.265393 183.035818 
L 105.285173 182.331219 
L 103.304953 182.683519 
L 101.38861 181.802771 
L 99.40839 182.331219 
L 97.492048 183.211967 
L 95.511828 182.507369 
L 93.723242 183.564266 
L 91.743022 183.388117 
L 89.762802 183.916565 
L 87.846459 183.916565 
L 85.866239 182.507369 
L 83.949897 182.507369 
L 81.969677 181.626621 
L 79.989457 182.331219 
L 78.073115 184.621164 
L 76.092894 183.564266 
L 74.176552 183.388117 
L 72.196332 182.331219 
L 70.407746 182.859668 
L 68.427526 182.331219 
L 66.447306 182.683519 
L 64.530963 246.09736 
L 62.550743 183.740416 
L 60.634401 183.916565 
L 58.654181 183.211967 
L 56.673961 181.97892 
L 54.757619 182.683519 
L 52.777398 182.683519 
L 50.861056 182.15507 
L 48.880836 182.15507 
L 47.09225 182.331219 
z
" style="fill:#808080;fill-opacity:0.3;"/>
   </g>
   <g id="PolyCollection_2">
    <path clip-path="url(#p826a528f80)" d="M 47.09225 185.678061 
L 47.09225 206.11141 
L 48.880836 246.273509 
L 50.861056 246.273509 
L 52.777398 246.978107 
L 54.757619 215.271187 
L 56.673961 212.452794 
L 58.654181 212.100495 
L 60.634401 214.610626 
L 62.550743 248.387304 
L 64.530963 253.143342 
L 66.447306 233.018255 
L 68.427526 215.095037 
L 70.407746 203.116867 
L 72.196332 246.449659 
L 74.176552 211.924345 
L 76.092894 210.735336 
L 78.073115 254.728688 
L 79.989457 203.337054 
L 81.969677 212.628944 
L 83.949897 219.542814 
L 85.866239 235.880685 
L 87.846459 213.86199 
L 89.762802 219.674926 
L 91.743022 208.489429 
L 93.723242 218.309767 
L 95.511828 201.267297 
L 97.492048 209.282102 
L 99.40839 213.685841 
L 101.38861 217.252869 
L 103.304953 212.100495 
L 105.285173 202.456306 
L 107.265393 193.164417 
L 109.181735 246.09736 
L 111.161955 201.927858 
L 113.078298 246.273509 
L 115.058518 209.326139 
L 117.038738 205.274699 
L 118.891202 193.296529 
L 120.871422 208.313279 
L 122.787764 188.540491 
L 124.767985 247.858855 
L 126.684327 248.739603 
L 128.664547 216.019823 
L 130.644767 203.293017 
L 132.561109 261.246222 
L 134.541329 248.035005 
L 136.457672 247.506556 
L 138.437892 198.933315 
L 140.418112 246.273509 
L 142.206698 193.076342 
L 144.186918 203.997615 
L 146.10326 200.342512 
L 148.08348 248.563454 
L 149.999823 199.637914 
L 151.980043 245.568911 
L 153.960263 230.06775 
L 155.876605 249.091902 
L 157.856825 261.906783 
L 159.773168 249.488239 
L 161.753388 226.236497 
L 163.733608 228.130105 
L 165.522194 192.988268 
L 167.502414 225.84016 
L 169.418756 232.709993 
L 171.398976 191.182735 
L 173.315319 193.824978 
L 175.295539 189.024903 
L 177.275759 190.962548 
L 179.192101 204.261839 
L 181.172321 251.205697 
L 183.088663 186.911108 
L 185.068884 215.006963 
L 187.049104 187.087257 
L 188.83769 245.92121 
L 190.81791 193.076342 
L 192.734252 192.94423 
L 194.714472 209.14999 
L 196.630815 247.682706 
L 198.611035 209.502289 
L 200.591255 216.504234 
L 202.507597 301.980807 
L 204.487817 248.915753 
L 206.404159 248.915753 
L 208.38438 198.00853 
L 210.3646 208.401354 
L 212.217064 245.568911 
L 214.197284 191.490996 
L 216.113626 206.331597 
L 218.093846 227.821843 
L 220.010189 216.328084 
L 221.990409 200.03425 
L 223.970629 207.344457 
L 225.886971 248.563454 
L 227.867191 269.87755 
L 229.783534 250.897435 
L 231.763754 218.265729 
L 233.743974 248.387304 
L 235.53256 206.683896 
L 237.51278 210.515149 
L 239.429122 247.858855 
L 241.409342 195.718586 
L 243.325685 219.542814 
L 245.305905 199.285614 
L 247.286125 212.893168 
L 249.202467 245.745061 
L 251.182687 189.993725 
L 253.099029 197.347969 
L 255.07925 251.205697 
L 257.05947 214.962925 
L 258.848056 188.848753 
L 260.828276 190.25795 
L 262.744618 216.328084 
L 264.724838 172.290695 
L 266.641181 197.127782 
L 268.621401 164.011665 
L 270.601621 122.440369 
L 272.517963 171.145722 
L 274.498183 253.01123 
L 276.414525 238.434854 
L 278.394746 222.008908 
L 280.374966 128.121193 
L 282.163552 111.563134 
L 284.143772 124.025715 
L 286.060114 170.705349 
L 288.040334 248.167117 
L 289.956677 206.155447 
L 291.936897 198.536979 
L 293.917117 109.317227 
L 295.833459 189.597389 
L 297.813679 196.775483 
L 299.730021 188.320304 
L 301.710242 189.024903 
L 303.690462 201.575559 
L 305.542926 133.405679 
L 307.523146 131.247847 
L 309.439488 130.543249 
L 311.419708 190.0818 
L 313.336051 108.876853 
L 315.316271 60.435725 
L 317.296491 121.823846 
L 319.212833 135.123138 
L 321.193053 122.08807 
L 323.109395 217.208832 
L 325.089616 112.664069 
L 327.069836 113.456742 
L 328.858422 112.796181 
L 330.838642 142.34527 
L 332.754984 143.226017 
L 334.735204 118.917378 
L 336.651547 197.612194 
L 338.631767 130.0148 
L 340.611987 116.627434 
L 342.528329 218.662066 
L 344.508549 131.952446 
L 346.424891 104.120815 
L 348.405112 110.814498 
L 350.385332 107.996106 
L 352.173918 123.144968 
L 354.154138 213.553729 
L 356.07048 158.595066 
L 358.0507 148.378392 
L 359.967043 186.426697 
L 361.947263 75.804774 
L 363.927483 85.713186 
L 365.843825 199.373689 
L 367.824045 208.577504 
L 369.740387 160.929048 
L 371.720608 205.09855 
L 373.700828 144.150803 
L 375.489414 128.913866 
L 377.469634 164.716264 
L 379.385976 111.034685 
L 381.366196 126.051435 
L 383.282538 112.575994 
L 385.262759 94.08029 
L 387.242979 115.790724 
L 389.159321 187.791856 
L 391.139541 219.498776 
L 393.055883 197.700268 
L 395.036104 139.614951 
L 397.016324 126.359697 
L 398.868788 202.808606 
L 400.849008 168.239255 
L 402.76535 188.716641 
L 404.74557 216.328084 
L 406.661913 116.01091 
L 408.642133 104.561189 
L 410.622353 105.926348 
L 412.538695 126.667959 
L 414.518915 119.842163 
L 416.435257 133.934128 
L 418.415478 109.581452 
L 420.395698 184.797313 
L 422.184284 128.34138 
L 424.164504 129.706539 
L 426.080846 228.746628 
L 428.061066 187.263407 
L 429.977409 106.939208 
L 431.957629 66.689034 
L 433.937849 88.531579 
L 435.854191 119.093528 
L 437.834411 146.440747 
L 439.750753 106.851133 
L 441.730974 90.072888 
L 443.711194 113.985191 
L 445.49978 117.948556 
L 447.48 178.147667 
L 447.48 75.056138 
L 447.48 75.056138 
L 445.49978 46.34376 
L 443.711194 47.004321 
L 441.730974 44.758414 
L 439.750753 50.21905 
L 437.834411 106.23461 
L 435.854191 72.942343 
L 433.937849 47.929106 
L 431.957629 47.929106 
L 429.977409 48.105256 
L 428.061066 72.722156 
L 426.080846 186.20651 
L 424.164504 55.679687 
L 422.184284 55.107201 
L 420.395698 83.203055 
L 418.415478 45.286863 
L 416.435257 57.705406 
L 414.518915 55.4595 
L 412.538695 63.606417 
L 410.622353 61.844921 
L 408.642133 48.986003 
L 406.661913 52.597069 
L 404.74557 112.575994 
L 402.76535 136.356185 
L 400.849008 110.638349 
L 398.868788 139.394764 
L 397.016324 47.752956 
L 395.036104 59.554977 
L 393.055883 184.621164 
L 391.139541 185.501911 
L 389.159321 125.963361 
L 387.242979 61.668772 
L 385.262759 45.286863 
L 383.282538 47.400657 
L 381.366196 61.624734 
L 379.385976 72.237745 
L 377.469634 98.087693 
L 375.489414 75.232288 
L 373.700828 92.274757 
L 371.720608 90.205 
L 369.740387 116.275135 
L 367.824045 185.810173 
L 365.843825 185.325762 
L 363.927483 44.406115 
L 361.947263 45.110713 
L 359.967043 80.648887 
L 358.0507 114.33749 
L 356.07048 115.042088 
L 354.154138 92.274757 
L 352.173918 56.912733 
L 350.385332 57.088883 
L 348.405112 58.674229 
L 346.424891 51.804396 
L 344.508549 51.275948 
L 342.528329 190.0818 
L 340.611987 60.083426 
L 338.631767 92.098608 
L 336.651547 117.155883 
L 334.735204 58.674229 
L 332.754984 114.117303 
L 330.838642 113.985191 
L 328.858422 56.384285 
L 327.069836 53.742041 
L 325.089616 52.156695 
L 323.109395 187.615706 
L 321.193053 49.690602 
L 319.212833 105.706161 
L 317.296491 47.929106 
L 315.316271 46.34376 
L 313.336051 48.633704 
L 311.419708 72.898306 
L 309.439488 82.058083 
L 307.523146 77.654344 
L 305.542926 68.362455 
L 303.690462 185.325762 
L 301.710242 124.378015 
L 299.730021 186.20651 
L 297.813679 186.20651 
L 295.833459 140.715886 
L 293.917117 44.934563 
L 291.936897 62.285295 
L 289.956677 125.214725 
L 288.040334 105.882311 
L 286.060114 167.006208 
L 284.143772 105.882311 
L 282.163552 49.822714 
L 280.374966 66.997296 
L 278.394746 83.511317 
L 276.414525 109.933751 
L 274.498183 110.770461 
L 272.517963 111.166798 
L 270.601621 59.907276 
L 268.621401 51.275948 
L 266.641181 141.904896 
L 264.724838 84.832439 
L 262.744618 185.678061 
L 260.828276 107.996106 
L 258.848056 156.17301 
L 257.05947 186.03036 
L 255.07925 195.718586 
L 253.099029 186.558809 
L 251.182687 184.092715 
L 249.202467 185.501911 
L 247.286125 186.382659 
L 245.305905 187.968005 
L 243.325685 187.087257 
L 241.409342 187.087257 
L 239.429122 186.734958 
L 237.51278 186.558809 
L 235.53256 186.911108 
L 233.743974 186.20651 
L 231.763754 184.973463 
L 229.783534 191.975408 
L 227.867191 245.040462 
L 225.886971 245.745061 
L 223.970629 186.20651 
L 221.990409 186.03036 
L 220.010189 186.558809 
L 218.093846 187.791856 
L 216.113626 186.20651 
L 214.197284 186.20651 
L 212.217064 186.03036 
L 210.3646 188.672604 
L 208.38438 190.566211 
L 206.404159 195.542436 
L 204.487817 247.506556 
L 202.507597 248.035005 
L 200.591255 189.377202 
L 198.611035 189.377202 
L 196.630815 188.320304 
L 194.714472 190.786398 
L 192.734252 187.263407 
L 190.81791 185.325762 
L 188.83769 185.501911 
L 187.049104 184.797313 
L 185.068884 184.797313 
L 183.088663 184.797313 
L 181.172321 189.729501 
L 179.192101 186.558809 
L 177.275759 188.320304 
L 175.295539 186.734958 
L 173.315319 186.734958 
L 171.398976 185.149612 
L 169.418756 212.584906 
L 167.502414 206.771971 
L 165.522194 185.678061 
L 163.733608 190.786398 
L 161.753388 186.20651 
L 159.773168 209.810551 
L 157.856825 248.387304 
L 155.876605 186.03036 
L 153.960263 196.15896 
L 151.980043 187.923968 
L 149.999823 185.457874 
L 148.08348 191.843296 
L 146.10326 184.092715 
L 144.186918 184.973463 
L 142.206698 183.916565 
L 140.418112 184.621164 
L 138.437892 184.092715 
L 136.457672 216.107897 
L 134.541329 247.154257 
L 132.561109 212.628944 
L 130.644767 187.968005 
L 128.664547 187.087257 
L 126.684327 247.330407 
L 124.767985 185.501911 
L 122.787764 185.325762 
L 120.871422 185.149612 
L 118.891202 184.445014 
L 117.038738 184.621164 
L 115.058518 184.445014 
L 113.078298 184.268865 
L 111.161955 184.400977 
L 109.181735 185.678061 
L 107.265393 184.621164 
L 105.285173 184.621164 
L 103.304953 184.973463 
L 101.38861 184.797313 
L 99.40839 185.678061 
L 97.492048 185.149612 
L 95.511828 185.149612 
L 93.723242 189.377202 
L 91.743022 186.382659 
L 89.762802 191.667146 
L 87.846459 188.320304 
L 85.866239 192.371744 
L 83.949897 186.03036 
L 81.969677 185.325762 
L 79.989457 185.325762 
L 78.073115 224.651151 
L 76.092894 186.20651 
L 74.176552 185.854211 
L 72.196332 185.854211 
L 70.407746 185.501911 
L 68.427526 186.911108 
L 66.447306 186.382659 
L 64.530963 247.858855 
L 62.550743 189.157015 
L 60.634401 186.911108 
L 58.654181 186.734958 
L 56.673961 185.501911 
L 54.757619 186.03036 
L 52.777398 189.685463 
L 50.861056 186.734958 
L 48.880836 188.848753 
L 47.09225 185.678061 
z
" style="fill:#808080;fill-opacity:0.6;"/>
   </g>
   <g id="matplotlib.axis_1">
    <g id="xtick_1">
     <g id="line2d_1">
      <path clip-path="url(#p826a528f80)" d="M 91.8069 309.8635 
L 91.8069 23.36505 
" style="fill:none;stroke:#b0b0b0;stroke-linecap:square;stroke-width:0.8;"/>
     </g>
     <g id="line2d_2">
      <defs>
       <path d="M 0 0 
L 0 3.5 
" id="m4311d33064" style="stroke:#000000;stroke-width:0.8;"/>
      </defs>
      <g>
       <use style="stroke:#000000;stroke-width:0.8;" x="91.8069" xlink:href="#m4311d33064" y="309.8635"/>
      </g>
     </g>
     <g id="text_1">
      <!-- 2003 -->
      <defs>
       <path d="M 19.1875 8.296875 
L 53.609375 8.296875 
L 53.609375 0 
L 7.328125 0 
L 7.328125 8.296875 
Q 12.9375 14.109375 22.625 23.890625 
Q 32.328125 33.6875 34.8125 36.53125 
Q 39.546875 41.84375 41.421875 45.53125 
Q 43.3125 49.21875 43.3125 52.78125 
Q 43.3125 58.59375 39.234375 62.25 
Q 35.15625 65.921875 28.609375 65.921875 
Q 23.96875 65.921875 18.8125 64.3125 
Q 13.671875 62.703125 7.8125 59.421875 
L 7.8125 69.390625 
Q 13.765625 71.78125 18.9375 73 
Q 24.125 74.21875 28.421875 74.21875 
Q 39.75 74.21875 46.484375 68.546875 
Q 53.21875 62.890625 53.21875 53.421875 
Q 53.21875 48.921875 51.53125 44.890625 
Q 49.859375 40.875 45.40625 35.40625 
Q 44.1875 33.984375 37.640625 27.21875 
Q 31.109375 20.453125 19.1875 8.296875 
z
" id="DejaVuSans-32"/>
       <path d="M 31.78125 66.40625 
Q 24.171875 66.40625 20.328125 58.90625 
Q 16.5 51.421875 16.5 36.375 
Q 16.5 21.390625 20.328125 13.890625 
Q 24.171875 6.390625 31.78125 6.390625 
Q 39.453125 6.390625 43.28125 13.890625 
Q 47.125 21.390625 47.125 36.375 
Q 47.125 51.421875 43.28125 58.90625 
Q 39.453125 66.40625 31.78125 66.40625 
z
M 31.78125 74.21875 
Q 44.046875 74.21875 50.515625 64.515625 
Q 56.984375 54.828125 56.984375 36.375 
Q 56.984375 17.96875 50.515625 8.265625 
Q 44.046875 -1.421875 31.78125 -1.421875 
Q 19.53125 -1.421875 13.0625 8.265625 
Q 6.59375 17.96875 6.59375 36.375 
Q 6.59375 54.828125 13.0625 64.515625 
Q 19.53125 74.21875 31.78125 74.21875 
z
" id="DejaVuSans-30"/>
       <path d="M 40.578125 39.3125 
Q 47.65625 37.796875 51.625 33 
Q 55.609375 28.21875 55.609375 21.1875 
Q 55.609375 10.40625 48.1875 4.484375 
Q 40.765625 -1.421875 27.09375 -1.421875 
Q 22.515625 -1.421875 17.65625 -0.515625 
Q 12.796875 0.390625 7.625 2.203125 
L 7.625 11.71875 
Q 11.71875 9.328125 16.59375 8.109375 
Q 21.484375 6.890625 26.8125 6.890625 
Q 36.078125 6.890625 40.9375 10.546875 
Q 45.796875 14.203125 45.796875 21.1875 
Q 45.796875 27.640625 41.28125 31.265625 
Q 36.765625 34.90625 28.71875 34.90625 
L 20.21875 34.90625 
L 20.21875 43.015625 
L 29.109375 43.015625 
Q 36.375 43.015625 40.234375 45.921875 
Q 44.09375 48.828125 44.09375 54.296875 
Q 44.09375 59.90625 40.109375 62.90625 
Q 36.140625 65.921875 28.71875 65.921875 
Q 24.65625 65.921875 20.015625 65.03125 
Q 15.375 64.15625 9.8125 62.3125 
L 9.8125 71.09375 
Q 15.4375 72.65625 20.34375 73.4375 
Q 25.25 74.21875 29.59375 74.21875 
Q 40.828125 74.21875 47.359375 69.109375 
Q 53.90625 64.015625 53.90625 55.328125 
Q 53.90625 49.265625 50.4375 45.09375 
Q 46.96875 40.921875 40.578125 39.3125 
z
" id="DejaVuSans-33"/>
      </defs>
      <g transform="translate(79.0819 324.461937)scale(0.1 -0.1)">
       <use xlink:href="#DejaVuSans-32"/>
       <use x="63.623047" xlink:href="#DejaVuSans-30"/>
       <use x="127.246094" xlink:href="#DejaVuSans-30"/>
       <use x="190.869141" xlink:href="#DejaVuSans-33"/>
      </g>
     </g>
    </g>
    <g id="xtick_2">
     <g id="line2d_3">
      <path clip-path="url(#p826a528f80)" d="M 138.50177 309.8635 
L 138.50177 23.36505 
" style="fill:none;stroke:#b0b0b0;stroke-linecap:square;stroke-width:0.8;"/>
     </g>
     <g id="line2d_4">
      <g>
       <use style="stroke:#000000;stroke-width:0.8;" x="138.50177" xlink:href="#m4311d33064" y="309.8635"/>
      </g>
     </g>
     <g id="text_2">
      <!-- 2005 -->
      <defs>
       <path d="M 10.796875 72.90625 
L 49.515625 72.90625 
L 49.515625 64.59375 
L 19.828125 64.59375 
L 19.828125 46.734375 
Q 21.96875 47.46875 24.109375 47.828125 
Q 26.265625 48.1875 28.421875 48.1875 
Q 40.625 48.1875 47.75 41.5 
Q 54.890625 34.8125 54.890625 23.390625 
Q 54.890625 11.625 47.5625 5.09375 
Q 40.234375 -1.421875 26.90625 -1.421875 
Q 22.3125 -1.421875 17.546875 -0.640625 
Q 12.796875 0.140625 7.71875 1.703125 
L 7.71875 11.625 
Q 12.109375 9.234375 16.796875 8.0625 
Q 21.484375 6.890625 26.703125 6.890625 
Q 35.15625 6.890625 40.078125 11.328125 
Q 45.015625 15.765625 45.015625 23.390625 
Q 45.015625 31 40.078125 35.4375 
Q 35.15625 39.890625 26.703125 39.890625 
Q 22.75 39.890625 18.8125 39.015625 
Q 14.890625 38.140625 10.796875 36.28125 
z
" id="DejaVuSans-35"/>
      </defs>
      <g transform="translate(125.77677 324.461937)scale(0.1 -0.1)">
       <use xlink:href="#DejaVuSans-32"/>
       <use x="63.623047" xlink:href="#DejaVuSans-30"/>
       <use x="127.246094" xlink:href="#DejaVuSans-30"/>
       <use x="190.869141" xlink:href="#DejaVuSans-35"/>
      </g>
     </g>
    </g>
    <g id="xtick_3">
     <g id="line2d_5">
      <path clip-path="url(#p826a528f80)" d="M 185.132762 309.8635 
L 185.132762 23.36505 
" style="fill:none;stroke:#b0b0b0;stroke-linecap:square;stroke-width:0.8;"/>
     </g>
     <g id="line2d_6">
      <g>
       <use style="stroke:#000000;stroke-width:0.8;" x="185.132762" xlink:href="#m4311d33064" y="309.8635"/>
      </g>
     </g>
     <g id="text_3">
      <!-- 2007 -->
      <defs>
       <path d="M 8.203125 72.90625 
L 55.078125 72.90625 
L 55.078125 68.703125 
L 28.609375 0 
L 18.3125 0 
L 43.21875 64.59375 
L 8.203125 64.59375 
z
" id="DejaVuSans-37"/>
      </defs>
      <g transform="translate(172.407762 324.461937)scale(0.1 -0.1)">
       <use xlink:href="#DejaVuSans-32"/>
       <use x="63.623047" xlink:href="#DejaVuSans-30"/>
       <use x="127.246094" xlink:href="#DejaVuSans-30"/>
       <use x="190.869141" xlink:href="#DejaVuSans-37"/>
      </g>
     </g>
    </g>
    <g id="xtick_4">
     <g id="line2d_7">
      <path clip-path="url(#p826a528f80)" d="M 231.827632 309.8635 
L 231.827632 23.36505 
" style="fill:none;stroke:#b0b0b0;stroke-linecap:square;stroke-width:0.8;"/>
     </g>
     <g id="line2d_8">
      <g>
       <use style="stroke:#000000;stroke-width:0.8;" x="231.827632" xlink:href="#m4311d33064" y="309.8635"/>
      </g>
     </g>
     <g id="text_4">
      <!-- 2009 -->
      <defs>
       <path d="M 10.984375 1.515625 
L 10.984375 10.5 
Q 14.703125 8.734375 18.5 7.8125 
Q 22.3125 6.890625 25.984375 6.890625 
Q 35.75 6.890625 40.890625 13.453125 
Q 46.046875 20.015625 46.78125 33.40625 
Q 43.953125 29.203125 39.59375 26.953125 
Q 35.25 24.703125 29.984375 24.703125 
Q 19.046875 24.703125 12.671875 31.3125 
Q 6.296875 37.9375 6.296875 49.421875 
Q 6.296875 60.640625 12.9375 67.421875 
Q 19.578125 74.21875 30.609375 74.21875 
Q 43.265625 74.21875 49.921875 64.515625 
Q 56.59375 54.828125 56.59375 36.375 
Q 56.59375 19.140625 48.40625 8.859375 
Q 40.234375 -1.421875 26.421875 -1.421875 
Q 22.703125 -1.421875 18.890625 -0.6875 
Q 15.09375 0.046875 10.984375 1.515625 
z
M 30.609375 32.421875 
Q 37.25 32.421875 41.125 36.953125 
Q 45.015625 41.5 45.015625 49.421875 
Q 45.015625 57.28125 41.125 61.84375 
Q 37.25 66.40625 30.609375 66.40625 
Q 23.96875 66.40625 20.09375 61.84375 
Q 16.21875 57.28125 16.21875 49.421875 
Q 16.21875 41.5 20.09375 36.953125 
Q 23.96875 32.421875 30.609375 32.421875 
z
" id="DejaVuSans-39"/>
      </defs>
      <g transform="translate(219.102632 324.461937)scale(0.1 -0.1)">
       <use xlink:href="#DejaVuSans-32"/>
       <use x="63.623047" xlink:href="#DejaVuSans-30"/>
       <use x="127.246094" xlink:href="#DejaVuSans-30"/>
       <use x="190.869141" xlink:href="#DejaVuSans-39"/>
      </g>
     </g>
    </g>
    <g id="xtick_5">
     <g id="line2d_9">
      <path clip-path="url(#p826a528f80)" d="M 278.458624 309.8635 
L 278.458624 23.36505 
" style="fill:none;stroke:#b0b0b0;stroke-linecap:square;stroke-width:0.8;"/>
     </g>
     <g id="line2d_10">
      <g>
       <use style="stroke:#000000;stroke-width:0.8;" x="278.458624" xlink:href="#m4311d33064" y="309.8635"/>
      </g>
     </g>
     <g id="text_5">
      <!-- 2011 -->
      <defs>
       <path d="M 12.40625 8.296875 
L 28.515625 8.296875 
L 28.515625 63.921875 
L 10.984375 60.40625 
L 10.984375 69.390625 
L 28.421875 72.90625 
L 38.28125 72.90625 
L 38.28125 8.296875 
L 54.390625 8.296875 
L 54.390625 0 
L 12.40625 0 
z
" id="DejaVuSans-31"/>
      </defs>
      <g transform="translate(265.733624 324.461937)scale(0.1 -0.1)">
       <use xlink:href="#DejaVuSans-32"/>
       <use x="63.623047" xlink:href="#DejaVuSans-30"/>
       <use x="127.246094" xlink:href="#DejaVuSans-31"/>
       <use x="190.869141" xlink:href="#DejaVuSans-31"/>
      </g>
     </g>
    </g>
    <g id="xtick_6">
     <g id="line2d_11">
      <path clip-path="url(#p826a528f80)" d="M 325.153494 309.8635 
L 325.153494 23.36505 
" style="fill:none;stroke:#b0b0b0;stroke-linecap:square;stroke-width:0.8;"/>
     </g>
     <g id="line2d_12">
      <g>
       <use style="stroke:#000000;stroke-width:0.8;" x="325.153494" xlink:href="#m4311d33064" y="309.8635"/>
      </g>
     </g>
     <g id="text_6">
      <!-- 2013 -->
      <g transform="translate(312.428494 324.461937)scale(0.1 -0.1)">
       <use xlink:href="#DejaVuSans-32"/>
       <use x="63.623047" xlink:href="#DejaVuSans-30"/>
       <use x="127.246094" xlink:href="#DejaVuSans-31"/>
       <use x="190.869141" xlink:href="#DejaVuSans-33"/>
      </g>
     </g>
    </g>
    <g id="xtick_7">
     <g id="line2d_13">
      <path clip-path="url(#p826a528f80)" d="M 371.784486 309.8635 
L 371.784486 23.36505 
" style="fill:none;stroke:#b0b0b0;stroke-linecap:square;stroke-width:0.8;"/>
     </g>
     <g id="line2d_14">
      <g>
       <use style="stroke:#000000;stroke-width:0.8;" x="371.784486" xlink:href="#m4311d33064" y="309.8635"/>
      </g>
     </g>
     <g id="text_7">
      <!-- 2015 -->
      <g transform="translate(359.059486 324.461937)scale(0.1 -0.1)">
       <use xlink:href="#DejaVuSans-32"/>
       <use x="63.623047" xlink:href="#DejaVuSans-30"/>
       <use x="127.246094" xlink:href="#DejaVuSans-31"/>
       <use x="190.869141" xlink:href="#DejaVuSans-35"/>
      </g>
     </g>
    </g>
    <g id="xtick_8">
     <g id="line2d_15">
      <path clip-path="url(#p826a528f80)" d="M 418.479356 309.8635 
L 418.479356 23.36505 
" style="fill:none;stroke:#b0b0b0;stroke-linecap:square;stroke-width:0.8;"/>
     </g>
     <g id="line2d_16">
      <g>
       <use style="stroke:#000000;stroke-width:0.8;" x="418.479356" xlink:href="#m4311d33064" y="309.8635"/>
      </g>
     </g>
     <g id="text_8">
      <!-- 2017 -->
      <g transform="translate(405.754356 324.461937)scale(0.1 -0.1)">
       <use xlink:href="#DejaVuSans-32"/>
       <use x="63.623047" xlink:href="#DejaVuSans-30"/>
       <use x="127.246094" xlink:href="#DejaVuSans-31"/>
       <use x="190.869141" xlink:href="#DejaVuSans-37"/>
      </g>
     </g>
    </g>
    <g id="text_9">
     <!-- Date -->
     <defs>
      <path d="M 19.671875 64.796875 
L 19.671875 8.109375 
L 31.59375 8.109375 
Q 46.6875 8.109375 53.6875 14.9375 
Q 60.6875 21.78125 60.6875 36.53125 
Q 60.6875 51.171875 53.6875 57.984375 
Q 46.6875 64.796875 31.59375 64.796875 
z
M 9.8125 72.90625 
L 30.078125 72.90625 
Q 51.265625 72.90625 61.171875 64.09375 
Q 71.09375 55.28125 71.09375 36.53125 
Q 71.09375 17.671875 61.125 8.828125 
Q 51.171875 0 30.078125 0 
L 9.8125 0 
z
" id="DejaVuSans-44"/>
      <path d="M 34.28125 27.484375 
Q 23.390625 27.484375 19.1875 25 
Q 14.984375 22.515625 14.984375 16.5 
Q 14.984375 11.71875 18.140625 8.90625 
Q 21.296875 6.109375 26.703125 6.109375 
Q 34.1875 6.109375 38.703125 11.40625 
Q 43.21875 16.703125 43.21875 25.484375 
L 43.21875 27.484375 
z
M 52.203125 31.203125 
L 52.203125 0 
L 43.21875 0 
L 43.21875 8.296875 
Q 40.140625 3.328125 35.546875 0.953125 
Q 30.953125 -1.421875 24.3125 -1.421875 
Q 15.921875 -1.421875 10.953125 3.296875 
Q 6 8.015625 6 15.921875 
Q 6 25.140625 12.171875 29.828125 
Q 18.359375 34.515625 30.609375 34.515625 
L 43.21875 34.515625 
L 43.21875 35.40625 
Q 43.21875 41.609375 39.140625 45 
Q 35.0625 48.390625 27.6875 48.390625 
Q 23 48.390625 18.546875 47.265625 
Q 14.109375 46.140625 10.015625 43.890625 
L 10.015625 52.203125 
Q 14.9375 54.109375 19.578125 55.046875 
Q 24.21875 56 28.609375 56 
Q 40.484375 56 46.34375 49.84375 
Q 52.203125 43.703125 52.203125 31.203125 
z
" id="DejaVuSans-61"/>
      <path d="M 18.3125 70.21875 
L 18.3125 54.6875 
L 36.8125 54.6875 
L 36.8125 47.703125 
L 18.3125 47.703125 
L 18.3125 18.015625 
Q 18.3125 11.328125 20.140625 9.421875 
Q 21.96875 7.515625 27.59375 7.515625 
L 36.8125 7.515625 
L 36.8125 0 
L 27.59375 0 
Q 17.1875 0 13.234375 3.875 
Q 9.28125 7.765625 9.28125 18.015625 
L 9.28125 47.703125 
L 2.6875 47.703125 
L 2.6875 54.6875 
L 9.28125 54.6875 
L 9.28125 70.21875 
z
" id="DejaVuSans-74"/>
      <path d="M 56.203125 29.59375 
L 56.203125 25.203125 
L 14.890625 25.203125 
Q 15.484375 15.921875 20.484375 11.0625 
Q 25.484375 6.203125 34.421875 6.203125 
Q 39.59375 6.203125 44.453125 7.46875 
Q 49.3125 8.734375 54.109375 11.28125 
L 54.109375 2.78125 
Q 49.265625 0.734375 44.1875 -0.34375 
Q 39.109375 -1.421875 33.890625 -1.421875 
Q 20.796875 -1.421875 13.15625 6.1875 
Q 5.515625 13.8125 5.515625 26.8125 
Q 5.515625 40.234375 12.765625 48.109375 
Q 20.015625 56 32.328125 56 
Q 43.359375 56 49.78125 48.890625 
Q 56.203125 41.796875 56.203125 29.59375 
z
M 47.21875 32.234375 
Q 47.125 39.59375 43.09375 43.984375 
Q 39.0625 48.390625 32.421875 48.390625 
Q 24.90625 48.390625 20.390625 44.140625 
Q 15.875 39.890625 15.1875 32.171875 
z
" id="DejaVuSans-65"/>
     </defs>
     <g transform="translate(235.335344 338.140062)scale(0.1 -0.1)">
      <use xlink:href="#DejaVuSans-44"/>
      <use x="77.001953" xlink:href="#DejaVuSans-61"/>
      <use x="138.28125" xlink:href="#DejaVuSans-74"/>
      <use x="177.490234" xlink:href="#DejaVuSans-65"/>
     </g>
    </g>
   </g>
   <g id="matplotlib.axis_2">
    <g id="ytick_1">
     <g id="line2d_17">
      <path clip-path="url(#p826a528f80)" d="M 47.09225 309.8635 
L 447.48 309.8635 
" style="fill:none;stroke:#b0b0b0;stroke-linecap:square;stroke-width:0.8;"/>
     </g>
     <g id="line2d_18">
      <defs>
       <path d="M 0 0 
L -3.5 0 
" id="m5f5ae87e52" style="stroke:#000000;stroke-width:0.8;"/>
      </defs>
      <g>
       <use style="stroke:#000000;stroke-width:0.8;" x="47.09225" xlink:href="#m5f5ae87e52" y="309.8635"/>
      </g>
     </g>
     <g id="text_10">
      <!-- 0 -->
      <g transform="translate(33.72975 313.662719)scale(0.1 -0.1)">
       <use xlink:href="#DejaVuSans-30"/>
      </g>
     </g>
    </g>
    <g id="ytick_2">
     <g id="line2d_19">
      <path clip-path="url(#p826a528f80)" d="M 47.09225 274.633588 
L 447.48 274.633588 
" style="fill:none;stroke:#b0b0b0;stroke-linecap:square;stroke-width:0.8;"/>
     </g>
     <g id="line2d_20">
      <g>
       <use style="stroke:#000000;stroke-width:0.8;" x="47.09225" xlink:href="#m5f5ae87e52" y="274.633588"/>
      </g>
     </g>
     <g id="text_11">
      <!-- 200 -->
      <g transform="translate(21.00475 278.432807)scale(0.1 -0.1)">
       <use xlink:href="#DejaVuSans-32"/>
       <use x="63.623047" xlink:href="#DejaVuSans-30"/>
       <use x="127.246094" xlink:href="#DejaVuSans-30"/>
      </g>
     </g>
    </g>
    <g id="ytick_3">
     <g id="line2d_21">
      <path clip-path="url(#p826a528f80)" d="M 47.09225 239.403676 
L 447.48 239.403676 
" style="fill:none;stroke:#b0b0b0;stroke-linecap:square;stroke-width:0.8;"/>
     </g>
     <g id="line2d_22">
      <g>
       <use style="stroke:#000000;stroke-width:0.8;" x="47.09225" xlink:href="#m5f5ae87e52" y="239.403676"/>
      </g>
     </g>
     <g id="text_12">
      <!-- 400 -->
      <defs>
       <path d="M 37.796875 64.3125 
L 12.890625 25.390625 
L 37.796875 25.390625 
z
M 35.203125 72.90625 
L 47.609375 72.90625 
L 47.609375 25.390625 
L 58.015625 25.390625 
L 58.015625 17.1875 
L 47.609375 17.1875 
L 47.609375 0 
L 37.796875 0 
L 37.796875 17.1875 
L 4.890625 17.1875 
L 4.890625 26.703125 
z
" id="DejaVuSans-34"/>
      </defs>
      <g transform="translate(21.00475 243.202895)scale(0.1 -0.1)">
       <use xlink:href="#DejaVuSans-34"/>
       <use x="63.623047" xlink:href="#DejaVuSans-30"/>
       <use x="127.246094" xlink:href="#DejaVuSans-30"/>
      </g>
     </g>
    </g>
    <g id="ytick_4">
     <g id="line2d_23">
      <path clip-path="url(#p826a528f80)" d="M 47.09225 204.173765 
L 447.48 204.173765 
" style="fill:none;stroke:#b0b0b0;stroke-linecap:square;stroke-width:0.8;"/>
     </g>
     <g id="line2d_24">
      <g>
       <use style="stroke:#000000;stroke-width:0.8;" x="47.09225" xlink:href="#m5f5ae87e52" y="204.173765"/>
      </g>
     </g>
     <g id="text_13">
      <!-- 600 -->
      <defs>
       <path d="M 33.015625 40.375 
Q 26.375 40.375 22.484375 35.828125 
Q 18.609375 31.296875 18.609375 23.390625 
Q 18.609375 15.53125 22.484375 10.953125 
Q 26.375 6.390625 33.015625 6.390625 
Q 39.65625 6.390625 43.53125 10.953125 
Q 47.40625 15.53125 47.40625 23.390625 
Q 47.40625 31.296875 43.53125 35.828125 
Q 39.65625 40.375 33.015625 40.375 
z
M 52.59375 71.296875 
L 52.59375 62.3125 
Q 48.875 64.0625 45.09375 64.984375 
Q 41.3125 65.921875 37.59375 65.921875 
Q 27.828125 65.921875 22.671875 59.328125 
Q 17.53125 52.734375 16.796875 39.40625 
Q 19.671875 43.65625 24.015625 45.921875 
Q 28.375 48.1875 33.59375 48.1875 
Q 44.578125 48.1875 50.953125 41.515625 
Q 57.328125 34.859375 57.328125 23.390625 
Q 57.328125 12.15625 50.6875 5.359375 
Q 44.046875 -1.421875 33.015625 -1.421875 
Q 20.359375 -1.421875 13.671875 8.265625 
Q 6.984375 17.96875 6.984375 36.375 
Q 6.984375 53.65625 15.1875 63.9375 
Q 23.390625 74.21875 37.203125 74.21875 
Q 40.921875 74.21875 44.703125 73.484375 
Q 48.484375 72.75 52.59375 71.296875 
z
" id="DejaVuSans-36"/>
      </defs>
      <g transform="translate(21.00475 207.972983)scale(0.1 -0.1)">
       <use xlink:href="#DejaVuSans-36"/>
       <use x="63.623047" xlink:href="#DejaVuSans-30"/>
       <use x="127.246094" xlink:href="#DejaVuSans-30"/>
      </g>
     </g>
    </g>
    <g id="ytick_5">
     <g id="line2d_25">
      <path clip-path="url(#p826a528f80)" d="M 47.09225 168.943853 
L 447.48 168.943853 
" style="fill:none;stroke:#b0b0b0;stroke-linecap:square;stroke-width:0.8;"/>
     </g>
     <g id="line2d_26">
      <g>
       <use style="stroke:#000000;stroke-width:0.8;" x="47.09225" xlink:href="#m5f5ae87e52" y="168.943853"/>
      </g>
     </g>
     <g id="text_14">
      <!-- 800 -->
      <defs>
       <path d="M 31.78125 34.625 
Q 24.75 34.625 20.71875 30.859375 
Q 16.703125 27.09375 16.703125 20.515625 
Q 16.703125 13.921875 20.71875 10.15625 
Q 24.75 6.390625 31.78125 6.390625 
Q 38.8125 6.390625 42.859375 10.171875 
Q 46.921875 13.96875 46.921875 20.515625 
Q 46.921875 27.09375 42.890625 30.859375 
Q 38.875 34.625 31.78125 34.625 
z
M 21.921875 38.8125 
Q 15.578125 40.375 12.03125 44.71875 
Q 8.5 49.078125 8.5 55.328125 
Q 8.5 64.0625 14.71875 69.140625 
Q 20.953125 74.21875 31.78125 74.21875 
Q 42.671875 74.21875 48.875 69.140625 
Q 55.078125 64.0625 55.078125 55.328125 
Q 55.078125 49.078125 51.53125 44.71875 
Q 48 40.375 41.703125 38.8125 
Q 48.828125 37.15625 52.796875 32.3125 
Q 56.78125 27.484375 56.78125 20.515625 
Q 56.78125 9.90625 50.3125 4.234375 
Q 43.84375 -1.421875 31.78125 -1.421875 
Q 19.734375 -1.421875 13.25 4.234375 
Q 6.78125 9.90625 6.78125 20.515625 
Q 6.78125 27.484375 10.78125 32.3125 
Q 14.796875 37.15625 21.921875 38.8125 
z
M 18.3125 54.390625 
Q 18.3125 48.734375 21.84375 45.5625 
Q 25.390625 42.390625 31.78125 42.390625 
Q 38.140625 42.390625 41.71875 45.5625 
Q 45.3125 48.734375 45.3125 54.390625 
Q 45.3125 60.0625 41.71875 63.234375 
Q 38.140625 66.40625 31.78125 66.40625 
Q 25.390625 66.40625 21.84375 63.234375 
Q 18.3125 60.0625 18.3125 54.390625 
z
" id="DejaVuSans-38"/>
      </defs>
      <g transform="translate(21.00475 172.743072)scale(0.1 -0.1)">
       <use xlink:href="#DejaVuSans-38"/>
       <use x="63.623047" xlink:href="#DejaVuSans-30"/>
       <use x="127.246094" xlink:href="#DejaVuSans-30"/>
      </g>
     </g>
    </g>
    <g id="ytick_6">
     <g id="line2d_27">
      <path clip-path="url(#p826a528f80)" d="M 47.09225 133.713941 
L 447.48 133.713941 
" style="fill:none;stroke:#b0b0b0;stroke-linecap:square;stroke-width:0.8;"/>
     </g>
     <g id="line2d_28">
      <g>
       <use style="stroke:#000000;stroke-width:0.8;" x="47.09225" xlink:href="#m5f5ae87e52" y="133.713941"/>
      </g>
     </g>
     <g id="text_15">
      <!-- 1000 -->
      <g transform="translate(14.64225 137.51316)scale(0.1 -0.1)">
       <use xlink:href="#DejaVuSans-31"/>
       <use x="63.623047" xlink:href="#DejaVuSans-30"/>
       <use x="127.246094" xlink:href="#DejaVuSans-30"/>
       <use x="190.869141" xlink:href="#DejaVuSans-30"/>
      </g>
     </g>
    </g>
    <g id="ytick_7">
     <g id="line2d_29">
      <path clip-path="url(#p826a528f80)" d="M 47.09225 98.484029 
L 447.48 98.484029 
" style="fill:none;stroke:#b0b0b0;stroke-linecap:square;stroke-width:0.8;"/>
     </g>
     <g id="line2d_30">
      <g>
       <use style="stroke:#000000;stroke-width:0.8;" x="47.09225" xlink:href="#m5f5ae87e52" y="98.484029"/>
      </g>
     </g>
     <g id="text_16">
      <!-- 1200 -->
      <g transform="translate(14.64225 102.283248)scale(0.1 -0.1)">
       <use xlink:href="#DejaVuSans-31"/>
       <use x="63.623047" xlink:href="#DejaVuSans-32"/>
       <use x="127.246094" xlink:href="#DejaVuSans-30"/>
       <use x="190.869141" xlink:href="#DejaVuSans-30"/>
      </g>
     </g>
    </g>
    <g id="ytick_8">
     <g id="line2d_31">
      <path clip-path="url(#p826a528f80)" d="M 47.09225 63.254118 
L 447.48 63.254118 
" style="fill:none;stroke:#b0b0b0;stroke-linecap:square;stroke-width:0.8;"/>
     </g>
     <g id="line2d_32">
      <g>
       <use style="stroke:#000000;stroke-width:0.8;" x="47.09225" xlink:href="#m5f5ae87e52" y="63.254118"/>
      </g>
     </g>
     <g id="text_17">
      <!-- 1400 -->
      <g transform="translate(14.64225 67.053336)scale(0.1 -0.1)">
       <use xlink:href="#DejaVuSans-31"/>
       <use x="63.623047" xlink:href="#DejaVuSans-34"/>
       <use x="127.246094" xlink:href="#DejaVuSans-30"/>
       <use x="190.869141" xlink:href="#DejaVuSans-30"/>
      </g>
     </g>
    </g>
    <g id="ytick_9">
     <g id="line2d_33">
      <path clip-path="url(#p826a528f80)" d="M 47.09225 28.024206 
L 447.48 28.024206 
" style="fill:none;stroke:#b0b0b0;stroke-linecap:square;stroke-width:0.8;"/>
     </g>
     <g id="line2d_34">
      <g>
       <use style="stroke:#000000;stroke-width:0.8;" x="47.09225" xlink:href="#m5f5ae87e52" y="28.024206"/>
      </g>
     </g>
     <g id="text_18">
      <!-- 1600 -->
      <g transform="translate(14.64225 31.823425)scale(0.1 -0.1)">
       <use xlink:href="#DejaVuSans-31"/>
       <use x="63.623047" xlink:href="#DejaVuSans-36"/>
       <use x="127.246094" xlink:href="#DejaVuSans-30"/>
       <use x="190.869141" xlink:href="#DejaVuSans-30"/>
      </g>
     </g>
    </g>
    <g id="text_19">
     <!-- Gross load (MW) -->
     <defs>
      <path d="M 59.515625 10.40625 
L 59.515625 29.984375 
L 43.40625 29.984375 
L 43.40625 38.09375 
L 69.28125 38.09375 
L 69.28125 6.78125 
Q 63.578125 2.734375 56.6875 0.65625 
Q 49.8125 -1.421875 42 -1.421875 
Q 24.90625 -1.421875 15.25 8.5625 
Q 5.609375 18.5625 5.609375 36.375 
Q 5.609375 54.25 15.25 64.234375 
Q 24.90625 74.21875 42 74.21875 
Q 49.125 74.21875 55.546875 72.453125 
Q 61.96875 70.703125 67.390625 67.28125 
L 67.390625 56.78125 
Q 61.921875 61.421875 55.765625 63.765625 
Q 49.609375 66.109375 42.828125 66.109375 
Q 29.4375 66.109375 22.71875 58.640625 
Q 16.015625 51.171875 16.015625 36.375 
Q 16.015625 21.625 22.71875 14.15625 
Q 29.4375 6.6875 42.828125 6.6875 
Q 48.046875 6.6875 52.140625 7.59375 
Q 56.25 8.5 59.515625 10.40625 
z
" id="DejaVuSans-47"/>
      <path d="M 41.109375 46.296875 
Q 39.59375 47.171875 37.8125 47.578125 
Q 36.03125 48 33.890625 48 
Q 26.265625 48 22.1875 43.046875 
Q 18.109375 38.09375 18.109375 28.8125 
L 18.109375 0 
L 9.078125 0 
L 9.078125 54.6875 
L 18.109375 54.6875 
L 18.109375 46.1875 
Q 20.953125 51.171875 25.484375 53.578125 
Q 30.03125 56 36.53125 56 
Q 37.453125 56 38.578125 55.875 
Q 39.703125 55.765625 41.0625 55.515625 
z
" id="DejaVuSans-72"/>
      <path d="M 30.609375 48.390625 
Q 23.390625 48.390625 19.1875 42.75 
Q 14.984375 37.109375 14.984375 27.296875 
Q 14.984375 17.484375 19.15625 11.84375 
Q 23.34375 6.203125 30.609375 6.203125 
Q 37.796875 6.203125 41.984375 11.859375 
Q 46.1875 17.53125 46.1875 27.296875 
Q 46.1875 37.015625 41.984375 42.703125 
Q 37.796875 48.390625 30.609375 48.390625 
z
M 30.609375 56 
Q 42.328125 56 49.015625 48.375 
Q 55.71875 40.765625 55.71875 27.296875 
Q 55.71875 13.875 49.015625 6.21875 
Q 42.328125 -1.421875 30.609375 -1.421875 
Q 18.84375 -1.421875 12.171875 6.21875 
Q 5.515625 13.875 5.515625 27.296875 
Q 5.515625 40.765625 12.171875 48.375 
Q 18.84375 56 30.609375 56 
z
" id="DejaVuSans-6f"/>
      <path d="M 44.28125 53.078125 
L 44.28125 44.578125 
Q 40.484375 46.53125 36.375 47.5 
Q 32.28125 48.484375 27.875 48.484375 
Q 21.1875 48.484375 17.84375 46.4375 
Q 14.5 44.390625 14.5 40.28125 
Q 14.5 37.15625 16.890625 35.375 
Q 19.28125 33.59375 26.515625 31.984375 
L 29.59375 31.296875 
Q 39.15625 29.25 43.1875 25.515625 
Q 47.21875 21.78125 47.21875 15.09375 
Q 47.21875 7.46875 41.1875 3.015625 
Q 35.15625 -1.421875 24.609375 -1.421875 
Q 20.21875 -1.421875 15.453125 -0.5625 
Q 10.6875 0.296875 5.421875 2 
L 5.421875 11.28125 
Q 10.40625 8.6875 15.234375 7.390625 
Q 20.0625 6.109375 24.8125 6.109375 
Q 31.15625 6.109375 34.5625 8.28125 
Q 37.984375 10.453125 37.984375 14.40625 
Q 37.984375 18.0625 35.515625 20.015625 
Q 33.0625 21.96875 24.703125 23.78125 
L 21.578125 24.515625 
Q 13.234375 26.265625 9.515625 29.90625 
Q 5.8125 33.546875 5.8125 39.890625 
Q 5.8125 47.609375 11.28125 51.796875 
Q 16.75 56 26.8125 56 
Q 31.78125 56 36.171875 55.265625 
Q 40.578125 54.546875 44.28125 53.078125 
z
" id="DejaVuSans-73"/>
      <path id="DejaVuSans-20"/>
      <path d="M 9.421875 75.984375 
L 18.40625 75.984375 
L 18.40625 0 
L 9.421875 0 
z
" id="DejaVuSans-6c"/>
      <path d="M 45.40625 46.390625 
L 45.40625 75.984375 
L 54.390625 75.984375 
L 54.390625 0 
L 45.40625 0 
L 45.40625 8.203125 
Q 42.578125 3.328125 38.25 0.953125 
Q 33.9375 -1.421875 27.875 -1.421875 
Q 17.96875 -1.421875 11.734375 6.484375 
Q 5.515625 14.40625 5.515625 27.296875 
Q 5.515625 40.1875 11.734375 48.09375 
Q 17.96875 56 27.875 56 
Q 33.9375 56 38.25 53.625 
Q 42.578125 51.265625 45.40625 46.390625 
z
M 14.796875 27.296875 
Q 14.796875 17.390625 18.875 11.75 
Q 22.953125 6.109375 30.078125 6.109375 
Q 37.203125 6.109375 41.296875 11.75 
Q 45.40625 17.390625 45.40625 27.296875 
Q 45.40625 37.203125 41.296875 42.84375 
Q 37.203125 48.484375 30.078125 48.484375 
Q 22.953125 48.484375 18.875 42.84375 
Q 14.796875 37.203125 14.796875 27.296875 
z
" id="DejaVuSans-64"/>
      <path d="M 31 75.875 
Q 24.46875 64.65625 21.28125 53.65625 
Q 18.109375 42.671875 18.109375 31.390625 
Q 18.109375 20.125 21.3125 9.0625 
Q 24.515625 -2 31 -13.1875 
L 23.1875 -13.1875 
Q 15.875 -1.703125 12.234375 9.375 
Q 8.59375 20.453125 8.59375 31.390625 
Q 8.59375 42.28125 12.203125 53.3125 
Q 15.828125 64.359375 23.1875 75.875 
z
" id="DejaVuSans-28"/>
      <path d="M 9.8125 72.90625 
L 24.515625 72.90625 
L 43.109375 23.296875 
L 61.8125 72.90625 
L 76.515625 72.90625 
L 76.515625 0 
L 66.890625 0 
L 66.890625 64.015625 
L 48.09375 14.015625 
L 38.1875 14.015625 
L 19.390625 64.015625 
L 19.390625 0 
L 9.8125 0 
z
" id="DejaVuSans-4d"/>
      <path d="M 3.328125 72.90625 
L 13.28125 72.90625 
L 28.609375 11.28125 
L 43.890625 72.90625 
L 54.984375 72.90625 
L 70.3125 11.28125 
L 85.59375 72.90625 
L 95.609375 72.90625 
L 77.296875 0 
L 64.890625 0 
L 49.515625 63.28125 
L 33.984375 0 
L 21.578125 0 
z
" id="DejaVuSans-57"/>
      <path d="M 8.015625 75.875 
L 15.828125 75.875 
Q 23.140625 64.359375 26.78125 53.3125 
Q 30.421875 42.28125 30.421875 31.390625 
Q 30.421875 20.453125 26.78125 9.375 
Q 23.140625 -1.703125 15.828125 -13.1875 
L 8.015625 -13.1875 
Q 14.5 -2 17.703125 9.0625 
Q 20.90625 20.125 20.90625 31.390625 
Q 20.90625 42.671875 17.703125 53.65625 
Q 14.5 64.65625 8.015625 75.875 
z
" id="DejaVuSans-29"/>
     </defs>
     <g transform="translate(8.562563 207.835369)rotate(-90)scale(0.1 -0.1)">
      <use xlink:href="#DejaVuSans-47"/>
      <use x="77.490234" xlink:href="#DejaVuSans-72"/>
      <use x="118.572266" xlink:href="#DejaVuSans-6f"/>
      <use x="179.753906" xlink:href="#DejaVuSans-73"/>
      <use x="231.853516" xlink:href="#DejaVuSans-73"/>
      <use x="283.953125" xlink:href="#DejaVuSans-20"/>
      <use x="315.740234" xlink:href="#DejaVuSans-6c"/>
      <use x="343.523438" xlink:href="#DejaVuSans-6f"/>
      <use x="404.705078" xlink:href="#DejaVuSans-61"/>
      <use x="465.984375" xlink:href="#DejaVuSans-64"/>
      <use x="529.460938" xlink:href="#DejaVuSans-20"/>
      <use x="561.248047" xlink:href="#DejaVuSans-28"/>
      <use x="600.261719" xlink:href="#DejaVuSans-4d"/>
      <use x="686.541016" xlink:href="#DejaVuSans-57"/>
      <use x="785.417969" xlink:href="#DejaVuSans-29"/>
     </g>
    </g>
   </g>
   <g id="line2d_35">
    <path clip-path="url(#p826a528f80)" d="M 47.09225 191.490996 
L 48.880836 203.557241 
L 50.861056 201.179222 
L 52.777398 246.273509 
L 54.757619 192.195595 
L 56.673961 189.90565 
L 58.654181 194.397464 
L 60.634401 195.894735 
L 62.550743 205.406812 
L 64.530963 248.563454 
L 66.447306 198.18468 
L 68.427526 194.13324 
L 70.407746 187.439557 
L 72.196332 210.603224 
L 74.176552 188.144155 
L 76.092894 192.371744 
L 78.073115 246.801958 
L 79.989457 187.439557 
L 81.969677 188.936828 
L 83.949897 200.914998 
L 85.866239 207.696756 
L 87.846459 196.070885 
L 89.762802 201.003073 
L 91.743022 189.817576 
L 93.723242 197.744306 
L 95.511828 187.263407 
L 97.492048 187.615706 
L 99.40839 191.314847 
L 101.38861 198.18468 
L 103.304953 190.786398 
L 105.285173 186.03036 
L 107.265393 185.501911 
L 109.181735 204.526064 
L 111.161955 186.03036 
L 113.078298 191.93137 
L 115.058518 185.854211 
L 117.038738 188.408379 
L 118.891202 185.678061 
L 120.871422 188.496454 
L 122.787764 186.03036 
L 124.767985 197.920455 
L 126.684327 248.387304 
L 128.664547 212.893168 
L 130.644767 192.988268 
L 132.561109 248.035005 
L 134.541329 247.506556 
L 136.457672 246.625808 
L 138.437892 185.501911 
L 140.418112 187.527631 
L 142.206698 184.797313 
L 144.186918 186.911108 
L 146.10326 185.325762 
L 148.08348 197.215857 
L 149.999823 187.968005 
L 151.980043 234.295339 
L 153.960263 214.742738 
L 155.876605 232.181545 
L 157.856825 249.091902 
L 159.773168 248.035005 
L 161.753388 193.604791 
L 163.733608 224.254814 
L 165.522194 186.911108 
L 167.502414 219.851075 
L 169.418756 226.280534 
L 171.398976 186.20651 
L 173.315319 187.615706 
L 175.295539 187.968005 
L 177.275759 189.377202 
L 179.192101 187.968005 
L 181.172321 202.05997 
L 183.088663 185.678061 
L 185.068884 186.20651 
L 187.049104 185.678061 
L 188.83769 186.911108 
L 190.81791 187.087257 
L 192.734252 188.848753 
L 194.714472 192.547894 
L 196.630815 192.019445 
L 198.611035 192.019445 
L 200.591255 194.309389 
L 202.507597 254.200239 
L 204.487817 248.035005 
L 206.404159 228.658553 
L 208.38438 191.843296 
L 210.3646 191.667146 
L 212.217064 198.00853 
L 214.197284 187.263407 
L 216.113626 187.263407 
L 218.093846 204.173765 
L 220.010189 188.496454 
L 221.990409 187.615706 
L 223.970629 187.615706 
L 225.886971 247.330407 
L 227.867191 246.361584 
L 229.783534 220.379524 
L 231.763754 209.898625 
L 233.743974 215.095037 
L 235.53256 189.729501 
L 237.51278 188.672604 
L 239.429122 194.045165 
L 241.409342 190.610249 
L 243.325685 191.402922 
L 245.305905 190.610249 
L 247.286125 188.320304 
L 249.202467 188.936828 
L 251.182687 185.325762 
L 253.099029 188.144155 
L 255.07925 211.924345 
L 257.05947 190.346024 
L 258.848056 186.03036 
L 260.828276 144.723289 
L 262.744618 188.144155 
L 264.724838 112.047545 
L 266.641181 164.628189 
L 268.621401 80.4287 
L 270.601621 85.272812 
L 272.517963 125.611061 
L 274.498183 146.749009 
L 276.414525 128.957903 
L 278.394746 119.621976 
L 280.374966 102.799694 
L 282.163552 66.24866 
L 284.143772 109.757601 
L 286.060114 167.886956 
L 288.040334 153.354617 
L 289.956677 199.417727 
L 291.936897 103.416217 
L 293.917117 78.491054 
L 295.833459 186.382659 
L 297.813679 187.263407 
L 299.730021 187.263407 
L 301.710242 148.510504 
L 303.690462 187.615706 
L 305.542926 103.063918 
L 307.523146 97.955581 
L 309.439488 110.462199 
L 311.419708 112.487919 
L 313.336051 57.529257 
L 315.316271 47.488732 
L 317.296491 67.129408 
L 319.212833 109.141078 
L 321.193053 71.092773 
L 323.109395 190.610249 
L 325.089616 75.672662 
L 327.069836 84.215915 
L 328.858422 81.397522 
L 330.838642 121.031173 
L 332.754984 118.21278 
L 334.735204 94.08029 
L 336.651547 187.087257 
L 338.631767 117.332032 
L 340.611987 77.610307 
L 342.528329 194.309389 
L 344.508549 75.408437 
L 346.424891 64.487165 
L 348.405112 81.309447 
L 350.385332 69.243203 
L 352.173918 68.978978 
L 354.154138 158.110655 
L 356.07048 123.761491 
L 358.0507 121.735771 
L 359.967043 113.720966 
L 361.947263 49.074078 
L 363.927483 55.503537 
L 365.843825 186.382659 
L 367.824045 189.201052 
L 369.740387 126.579884 
L 371.720608 98.30788 
L 373.700828 122.176145 
L 375.489414 92.671094 
L 377.469634 132.480894 
L 379.385976 82.894793 
L 381.366196 103.944666 
L 383.282538 63.254118 
L 385.262759 48.809854 
L 387.242979 79.812176 
L 389.159321 184.356939 
L 391.139541 190.962548 
L 393.055883 185.501911 
L 395.036104 107.819956 
L 397.016324 71.356997 
L 398.868788 183.300042 
L 400.849008 130.0148 
L 402.76535 170.881498 
L 404.74557 150.272 
L 406.661913 79.459877 
L 408.642133 62.901818 
L 410.622353 75.496512 
L 412.538695 107.115358 
L 414.518915 90.028851 
L 416.435257 94.344515 
L 418.415478 69.683577 
L 420.395698 143.490242 
L 422.184284 93.992216 
L 424.164504 93.904141 
L 426.080846 197.568156 
L 428.061066 184.00464 
L 429.977409 61.844921 
L 431.957629 49.514452 
L 433.937849 72.32582 
L 435.854191 104.561189 
L 437.834411 110.462199 
L 439.750753 64.39909 
L 441.730974 48.633704 
L 443.711194 55.151238 
L 445.49978 61.492622 
L 447.48 117.596257 
L 447.48 117.596257 
" style="fill:none;stroke:#1f77b4;stroke-linecap:square;stroke-width:1.5;"/>
   </g>
   <g id="patch_3">
    <path d="M 47.09225 309.8635 
L 47.09225 23.36505 
" style="fill:none;stroke:#000000;stroke-linecap:square;stroke-linejoin:miter;stroke-width:0.8;"/>
   </g>
   <g id="patch_4">
    <path d="M 447.48 309.8635 
L 447.48 23.36505 
" style="fill:none;stroke:#000000;stroke-linecap:square;stroke-linejoin:miter;stroke-width:0.8;"/>
   </g>
   <g id="patch_5">
    <path d="M 47.09225 309.8635 
L 447.48 309.8635 
" style="fill:none;stroke:#000000;stroke-linecap:square;stroke-linejoin:miter;stroke-width:0.8;"/>
   </g>
   <g id="patch_6">
    <path d="M 47.09225 23.36505 
L 447.48 23.36505 
" style="fill:none;stroke:#000000;stroke-linecap:square;stroke-linejoin:miter;stroke-width:0.8;"/>
   </g>
   <g id="text_20">
    <!-- Monthly gload trend -->
    <defs>
     <path d="M 54.890625 33.015625 
L 54.890625 0 
L 45.90625 0 
L 45.90625 32.71875 
Q 45.90625 40.484375 42.875 44.328125 
Q 39.84375 48.1875 33.796875 48.1875 
Q 26.515625 48.1875 22.3125 43.546875 
Q 18.109375 38.921875 18.109375 30.90625 
L 18.109375 0 
L 9.078125 0 
L 9.078125 54.6875 
L 18.109375 54.6875 
L 18.109375 46.1875 
Q 21.34375 51.125 25.703125 53.5625 
Q 30.078125 56 35.796875 56 
Q 45.21875 56 50.046875 50.171875 
Q 54.890625 44.34375 54.890625 33.015625 
z
" id="DejaVuSans-6e"/>
     <path d="M 54.890625 33.015625 
L 54.890625 0 
L 45.90625 0 
L 45.90625 32.71875 
Q 45.90625 40.484375 42.875 44.328125 
Q 39.84375 48.1875 33.796875 48.1875 
Q 26.515625 48.1875 22.3125 43.546875 
Q 18.109375 38.921875 18.109375 30.90625 
L 18.109375 0 
L 9.078125 0 
L 9.078125 75.984375 
L 18.109375 75.984375 
L 18.109375 46.1875 
Q 21.34375 51.125 25.703125 53.5625 
Q 30.078125 56 35.796875 56 
Q 45.21875 56 50.046875 50.171875 
Q 54.890625 44.34375 54.890625 33.015625 
z
" id="DejaVuSans-68"/>
     <path d="M 32.171875 -5.078125 
Q 28.375 -14.84375 24.75 -17.8125 
Q 21.140625 -20.796875 15.09375 -20.796875 
L 7.90625 -20.796875 
L 7.90625 -13.28125 
L 13.1875 -13.28125 
Q 16.890625 -13.28125 18.9375 -11.515625 
Q 21 -9.765625 23.484375 -3.21875 
L 25.09375 0.875 
L 2.984375 54.6875 
L 12.5 54.6875 
L 29.59375 11.921875 
L 46.6875 54.6875 
L 56.203125 54.6875 
z
" id="DejaVuSans-79"/>
     <path d="M 45.40625 27.984375 
Q 45.40625 37.75 41.375 43.109375 
Q 37.359375 48.484375 30.078125 48.484375 
Q 22.859375 48.484375 18.828125 43.109375 
Q 14.796875 37.75 14.796875 27.984375 
Q 14.796875 18.265625 18.828125 12.890625 
Q 22.859375 7.515625 30.078125 7.515625 
Q 37.359375 7.515625 41.375 12.890625 
Q 45.40625 18.265625 45.40625 27.984375 
z
M 54.390625 6.78125 
Q 54.390625 -7.171875 48.1875 -13.984375 
Q 42 -20.796875 29.203125 -20.796875 
Q 24.46875 -20.796875 20.265625 -20.09375 
Q 16.0625 -19.390625 12.109375 -17.921875 
L 12.109375 -9.1875 
Q 16.0625 -11.328125 19.921875 -12.34375 
Q 23.78125 -13.375 27.78125 -13.375 
Q 36.625 -13.375 41.015625 -8.765625 
Q 45.40625 -4.15625 45.40625 5.171875 
L 45.40625 9.625 
Q 42.625 4.78125 38.28125 2.390625 
Q 33.9375 0 27.875 0 
Q 17.828125 0 11.671875 7.65625 
Q 5.515625 15.328125 5.515625 27.984375 
Q 5.515625 40.671875 11.671875 48.328125 
Q 17.828125 56 27.875 56 
Q 33.9375 56 38.28125 53.609375 
Q 42.625 51.21875 45.40625 46.390625 
L 45.40625 54.6875 
L 54.390625 54.6875 
z
" id="DejaVuSans-67"/>
    </defs>
    <g transform="translate(186.6955 17.36505)scale(0.12 -0.12)">
     <use xlink:href="#DejaVuSans-4d"/>
     <use x="86.279297" xlink:href="#DejaVuSans-6f"/>
     <use x="147.460938" xlink:href="#DejaVuSans-6e"/>
     <use x="210.839844" xlink:href="#DejaVuSans-74"/>
     <use x="250.048828" xlink:href="#DejaVuSans-68"/>
     <use x="313.427734" xlink:href="#DejaVuSans-6c"/>
     <use x="341.210938" xlink:href="#DejaVuSans-79"/>
     <use x="400.390625" xlink:href="#DejaVuSans-20"/>
     <use x="432.177734" xlink:href="#DejaVuSans-67"/>
     <use x="495.654297" xlink:href="#DejaVuSans-6c"/>
     <use x="523.4375" xlink:href="#DejaVuSans-6f"/>
     <use x="584.619141" xlink:href="#DejaVuSans-61"/>
     <use x="645.898438" xlink:href="#DejaVuSans-64"/>
     <use x="709.375" xlink:href="#DejaVuSans-20"/>
     <use x="741.162109" xlink:href="#DejaVuSans-74"/>
     <use x="780.371094" xlink:href="#DejaVuSans-72"/>
     <use x="821.453125" xlink:href="#DejaVuSans-65"/>
     <use x="882.976562" xlink:href="#DejaVuSans-6e"/>
     <use x="946.355469" xlink:href="#DejaVuSans-64"/>
    </g>
   </g>
  </g>
 </g>
 <defs>
  <clipPath id="p826a528f80">
   <rect height="286.49845" width="400.38775" x="47.09225" y="23.36505"/>
  </clipPath>
 </defs>
</svg>
