<?xml version="1.0" encoding="utf-8" standalone="no"?>
<!DOCTYPE svg PUBLIC "-//W3C//DTD SVG 1.1//EN"
  "http://www.w3.org/Graphics/SVG/1.1/DTD/svg11.dtd">
<!-- Created with matplotlib (http://matplotlib.org/) -->
<svg height="345.6pt" version="1.1" viewBox="0 0 460.8 345.6" width="460.8pt" xmlns="http://www.w3.org/2000/svg" xmlns:xlink="http://www.w3.org/1999/xlink">
 <defs>
  <style type="text/css">
*{stroke-linecap:butt;stroke-linejoin:round;}
  </style>
 </defs>
 <g id="figure_1">
  <g id="patch_1">
   <path d="M 0 345.6 
L 460.8 345.6 
L 460.8 0 
L 0 0 
z
" style="fill:none;"/>
  </g>
  <g id="axes_1">
   <g id="patch_2">
    <path d="M 47.09225 309.8635 
L 447.48 309.8635 
L 447.48 23.36505 
L 47.09225 23.36505 
z
" style="fill:none;"/>
   </g>
   <g id="PolyCollection_1">
    <path clip-path="url(#p36eda843c1)" d="M 47.09225 36.944945 
L 47.09225 173.468305 
L 48.880836 128.61063 
L 50.861056 207.292664 
L 52.777398 40.775958 
L 54.757619 46.975233 
L 56.673961 78.375605 
L 58.654181 49.580321 
L 60.634401 43.186013 
L 62.550743 186.117612 
L 64.530963 44.690556 
L 66.447306 104.050356 
L 68.427526 121.296878 
L 70.407746 74.461007 
L 72.196332 212.252084 
L 74.176552 47.253852 
L 76.092894 166.279932 
L 78.073115 87.152107 
L 79.989457 141.413177 
L 81.969677 71.925573 
L 83.949897 78.319882 
L 85.866239 86.427698 
L 87.846459 94.841994 
L 89.762802 51.084864 
L 91.743022 52.268996 
L 93.723242 151.847463 
L 95.511828 132.385918 
L 97.492048 296.840843 
L 99.40839 155.789923 
L 101.38861 187.39926 
L 103.304953 97.335635 
L 105.285173 50.360455 
L 107.265393 81.914068 
L 109.181735 79.044291 
L 111.161955 99.578519 
L 113.078298 66.297467 
L 115.058518 76.745684 
L 117.038738 55.891044 
L 118.891202 143.043099 
L 120.871422 141.315661 
L 122.787764 61.463426 
L 124.767985 74.154526 
L 126.684327 50.72266 
L 128.664547 97.83715 
L 130.644767 69.766275 
L 132.561109 52.603339 
L 134.541329 80.688144 
L 136.457672 51.60031 
L 138.437892 56.782625 
L 140.418112 140.479803 
L 142.206698 279.329633 
L 144.186918 150.120024 
L 146.10326 65.949194 
L 148.08348 110.430733 
L 149.999823 173.189686 
L 151.980043 42.893463 
L 153.960263 39.731136 
L 155.876605 72.050952 
L 157.856825 45.860756 
L 159.773168 140.034013 
L 161.753388 53.536713 
L 163.733608 53.884986 
L 165.522194 219.496181 
L 167.502414 183.275697 
L 169.418756 67.871665 
L 171.398976 56.838349 
L 173.315319 71.953435 
L 175.295539 46.027928 
L 177.275759 44.634832 
L 179.192101 45.637861 
L 181.172321 233.399274 
L 183.088663 64.528236 
L 185.068884 128.666353 
L 187.049104 151.067329 
L 188.83769 134.74025 
L 190.81791 51.377414 
L 192.734252 149.660303 
L 194.714472 120.948604 
L 196.630815 41.54216 
L 198.611035 147.7239 
L 200.591255 42.238708 
L 202.507597 76.703891 
L 204.487817 181.548259 
L 206.404159 44.342282 
L 208.38438 45.136347 
L 210.3646 54.81836 
L 212.217064 132.399849 
L 214.197284 48.424052 
L 216.113626 105.763863 
L 218.093846 55.83532 
L 220.010189 62.466455 
L 221.990409 54.205398 
L 223.970629 38.714176 
L 225.886971 45.080623 
L 227.867191 48.201157 
L 229.783534 212.739667 
L 231.763754 138.52947 
L 233.743974 199.923189 
L 235.53256 143.154547 
L 237.51278 183.763281 
L 239.429122 208.226038 
L 241.409342 67.927389 
L 243.325685 194.197566 
L 245.305905 81.51007 
L 247.286125 71.368335 
L 249.202467 71.033992 
L 251.182687 128.833525 
L 253.099029 156.946192 
L 255.07925 46.79413 
L 257.05947 62.633626 
L 258.848056 264.353856 
L 260.828276 138.640917 
L 262.744618 174.220576 
L 264.724838 179.932268 
L 266.641181 162.978296 
L 268.621401 171.601557 
L 270.601621 54.107882 
L 272.517963 53.369541 
L 274.498183 92.418008 
L 276.414525 85.201773 
L 278.394746 67.760218 
L 280.374966 75.282933 
L 282.163552 145.815359 
L 284.143772 166.377449 
L 286.060114 187.287812 
L 288.040334 126.089127 
L 289.956677 110.375009 
L 291.936897 65.280508 
L 293.917117 57.813516 
L 295.833459 66.47857 
L 297.813679 51.349553 
L 299.730021 69.195106 
L 301.710242 103.256291 
L 303.690462 107.282337 
L 305.542926 168.620333 
L 307.523146 187.69181 
L 309.439488 173.788717 
L 311.419708 225.068563 
L 313.336051 185.281755 
L 315.316271 174.680298 
L 317.296491 124.23631 
L 319.212833 144.51978 
L 321.193053 160.108519 
L 323.109395 115.613048 
L 325.089616 118.41317 
L 327.069836 115.543394 
L 328.858422 164.914698 
L 330.838642 192.302956 
L 332.754984 77.776574 
L 334.735204 138.557331 
L 336.651547 132.608814 
L 338.631767 98.018252 
L 340.611987 86.943143 
L 342.528329 139.281741 
L 344.508549 66.562156 
L 346.424891 108.104264 
L 348.405112 97.516738 
L 350.385332 89.548231 
L 352.173918 142.026139 
L 354.154138 151.067329 
L 356.07048 109.636669 
L 358.0507 186.730574 
L 359.967043 110.583974 
L 361.947263 54.790498 
L 363.927483 42.795946 
L 365.843825 45.080623 
L 367.824045 64.193893 
L 369.740387 172.688171 
L 371.720608 107.811714 
L 373.700828 240.78268 
L 375.489414 261.400493 
L 377.469634 190.129727 
L 379.385976 208.267831 
L 381.366196 172.911067 
L 383.282538 190.074003 
L 385.262759 176.477391 
L 387.242979 205.007987 
L 389.159321 221.613686 
L 391.139541 176.574908 
L 393.055883 216.152751 
L 395.036104 186.061888 
L 397.016324 226.963172 
L 398.868788 226.963172 
L 400.849008 289.248473 
L 402.76535 255.270873 
L 404.74557 226.62883 
L 406.661913 226.405934 
L 408.642133 188.736632 
L 410.622353 203.670616 
L 412.538695 196.872309 
L 414.518915 174.986779 
L 416.435257 206.456807 
L 418.415478 168.592471 
L 420.395698 207.23694 
L 422.184284 221.39079 
L 424.164504 221.502238 
L 426.080846 202.890482 
L 428.061066 204.004958 
L 429.977409 226.851725 
L 431.957629 128.164839 
L 433.937849 192.860194 
L 435.854191 178.929239 
L 437.834411 212.363532 
L 439.750753 185.393202 
L 441.730974 240.78268 
L 443.711194 192.957711 
L 445.49978 212.140636 
L 447.48 235.224229 
L 447.48 74.488869 
L 447.48 74.488869 
L 445.49978 37.613631 
L 443.711194 37.725079 
L 441.730974 38.059421 
L 439.750753 42.294432 
L 437.834411 37.947974 
L 435.854191 37.613631 
L 433.937849 38.61666 
L 431.957629 38.282317 
L 429.977409 38.61666 
L 428.061066 46.863785 
L 426.080846 95.566404 
L 424.164504 39.828653 
L 422.184284 57.855309 
L 420.395698 37.725079 
L 418.415478 37.279288 
L 416.435257 43.603942 
L 414.518915 37.613631 
L 412.538695 38.170869 
L 410.622353 39.06245 
L 408.642133 40.065479 
L 406.661913 70.26779 
L 404.74557 92.236906 
L 402.76535 105.053384 
L 400.849008 162.783262 
L 398.868788 171.309007 
L 397.016324 58.969785 
L 395.036104 47.532471 
L 393.055883 53.982503 
L 391.139541 37.725079 
L 389.159321 37.613631 
L 387.242979 37.502183 
L 385.262759 37.947974 
L 383.282538 37.279288 
L 381.366196 38.728107 
L 379.385976 75.366519 
L 377.469634 127.774772 
L 375.489414 127.997667 
L 373.700828 37.390736 
L 371.720608 36.72205 
L 369.740387 36.944945 
L 367.824045 36.944945 
L 365.843825 36.610602 
L 363.927483 36.499154 
L 361.947263 38.059421 
L 359.967043 37.725079 
L 358.0507 44.077594 
L 356.07048 38.505212 
L 354.154138 38.282317 
L 352.173918 128.220563 
L 350.385332 38.505212 
L 348.405112 38.393764 
L 346.424891 38.059421 
L 344.508549 38.282317 
L 342.528329 38.393764 
L 340.611987 38.393764 
L 338.631767 38.282317 
L 336.651547 37.947974 
L 334.735204 38.059421 
L 332.754984 38.059421 
L 330.838642 37.836526 
L 328.858422 108.243573 
L 327.069836 37.947974 
L 325.089616 38.282317 
L 323.109395 38.170869 
L 321.193053 43.297461 
L 319.212833 37.947974 
L 317.296491 37.947974 
L 315.316271 37.836526 
L 313.336051 38.170869 
L 311.419708 37.279288 
L 309.439488 38.282317 
L 307.523146 38.282317 
L 305.542926 110.779007 
L 303.690462 37.836526 
L 301.710242 37.836526 
L 299.730021 37.947974 
L 297.813679 38.170869 
L 295.833459 37.502183 
L 293.917117 37.836526 
L 291.936897 37.725079 
L 289.956677 37.725079 
L 288.040334 37.947974 
L 286.060114 37.613631 
L 284.143772 127.440429 
L 282.163552 112.631824 
L 280.374966 37.279288 
L 278.394746 37.056393 
L 276.414525 36.833497 
L 274.498183 37.056393 
L 272.517963 37.056393 
L 270.601621 37.613631 
L 268.621401 37.725079 
L 266.641181 37.836526 
L 264.724838 37.836526 
L 262.744618 88.461617 
L 260.828276 127.997667 
L 258.848056 128.33201 
L 257.05947 37.725079 
L 255.07925 37.613631 
L 253.099029 37.836526 
L 251.182687 127.16181 
L 249.202467 37.613631 
L 247.286125 37.725079 
L 245.305905 37.279288 
L 243.325685 37.502183 
L 241.409342 37.613631 
L 239.429122 37.613631 
L 237.51278 78.696017 
L 235.53256 127.551877 
L 233.743974 37.279288 
L 231.763754 100.414376 
L 229.783534 37.279288 
L 227.867191 37.16784 
L 225.886971 36.499154 
L 223.970629 36.387707 
L 221.990409 36.610602 
L 220.010189 36.944945 
L 218.093846 36.72205 
L 216.113626 36.72205 
L 214.197284 36.833497 
L 212.217064 123.37259 
L 210.3646 37.056393 
L 208.38438 37.056393 
L 206.404159 36.944945 
L 204.487817 36.944945 
L 202.507597 36.72205 
L 200.591255 36.387707 
L 198.611035 37.056393 
L 196.630815 37.056393 
L 194.714472 37.279288 
L 192.734252 36.944945 
L 190.81791 37.16784 
L 188.83769 121.700876 
L 187.049104 36.944945 
L 185.068884 127.328982 
L 183.088663 36.610602 
L 181.172321 36.833497 
L 179.192101 36.499154 
L 177.275759 36.833497 
L 175.295539 36.610602 
L 173.315319 36.499154 
L 171.398976 36.944945 
L 169.418756 37.16784 
L 167.502414 36.944945 
L 165.522194 37.390736 
L 163.733608 36.833497 
L 161.753388 36.833497 
L 159.773168 37.056393 
L 157.856825 36.72205 
L 155.876605 36.833497 
L 153.960263 36.833497 
L 151.980043 37.056393 
L 149.999823 37.056393 
L 148.08348 37.16784 
L 146.10326 36.72205 
L 144.186918 116.017046 
L 142.206698 127.663325 
L 140.418112 36.944945 
L 138.437892 37.16784 
L 136.457672 37.279288 
L 134.541329 37.279288 
L 132.561109 36.944945 
L 130.644767 37.056393 
L 128.664547 37.16784 
L 126.684327 37.056393 
L 124.767985 37.056393 
L 122.787764 37.16784 
L 120.871422 115.571256 
L 118.891202 127.551877 
L 117.038738 36.833497 
L 115.058518 36.944945 
L 113.078298 36.833497 
L 111.161955 36.72205 
L 109.181735 36.944945 
L 107.265393 36.72205 
L 105.285173 36.499154 
L 103.304953 36.610602 
L 101.38861 36.944945 
L 99.40839 127.328982 
L 97.492048 37.279288 
L 95.511828 123.609417 
L 93.723242 36.833497 
L 91.743022 37.056393 
L 89.762802 37.056393 
L 87.846459 36.944945 
L 85.866239 37.16784 
L 83.949897 37.056393 
L 81.969677 36.833497 
L 79.989457 36.944945 
L 78.073115 36.944945 
L 76.092894 37.056393 
L 74.176552 37.056393 
L 72.196332 45.414966 
L 70.407746 37.279288 
L 68.427526 37.502183 
L 66.447306 37.613631 
L 64.530963 37.16784 
L 62.550743 37.056393 
L 60.634401 37.279288 
L 58.654181 37.279288 
L 56.673961 37.056393 
L 54.757619 36.944945 
L 52.777398 36.610602 
L 50.861056 76.063067 
L 48.880836 126.938915 
L 47.09225 36.944945 
z
" style="fill:#808080;fill-opacity:0.6;"/>
   </g>
   <g id="matplotlib.axis_1">
    <g id="xtick_1">
     <g id="line2d_1">
      <path clip-path="url(#p36eda843c1)" d="M 91.8069 309.8635 
L 91.8069 23.36505 
" style="fill:none;stroke:#b0b0b0;stroke-linecap:square;stroke-width:0.8;"/>
     </g>
     <g id="line2d_2">
      <defs>
       <path d="M 0 0 
L 0 3.5 
" id="mb52ebcd338" style="stroke:#000000;stroke-width:0.8;"/>
      </defs>
      <g>
       <use style="stroke:#000000;stroke-width:0.8;" x="91.8069" xlink:href="#mb52ebcd338" y="309.8635"/>
      </g>
     </g>
     <g id="text_1">
      <!-- 2003 -->
      <defs>
       <path d="M 19.1875 8.296875 
L 53.609375 8.296875 
L 53.609375 0 
L 7.328125 0 
L 7.328125 8.296875 
Q 12.9375 14.109375 22.625 23.890625 
Q 32.328125 33.6875 34.8125 36.53125 
Q 39.546875 41.84375 41.421875 45.53125 
Q 43.3125 49.21875 43.3125 52.78125 
Q 43.3125 58.59375 39.234375 62.25 
Q 35.15625 65.921875 28.609375 65.921875 
Q 23.96875 65.921875 18.8125 64.3125 
Q 13.671875 62.703125 7.8125 59.421875 
L 7.8125 69.390625 
Q 13.765625 71.78125 18.9375 73 
Q 24.125 74.21875 28.421875 74.21875 
Q 39.75 74.21875 46.484375 68.546875 
Q 53.21875 62.890625 53.21875 53.421875 
Q 53.21875 48.921875 51.53125 44.890625 
Q 49.859375 40.875 45.40625 35.40625 
Q 44.1875 33.984375 37.640625 27.21875 
Q 31.109375 20.453125 19.1875 8.296875 
z
" id="DejaVuSans-32"/>
       <path d="M 31.78125 66.40625 
Q 24.171875 66.40625 20.328125 58.90625 
Q 16.5 51.421875 16.5 36.375 
Q 16.5 21.390625 20.328125 13.890625 
Q 24.171875 6.390625 31.78125 6.390625 
Q 39.453125 6.390625 43.28125 13.890625 
Q 47.125 21.390625 47.125 36.375 
Q 47.125 51.421875 43.28125 58.90625 
Q 39.453125 66.40625 31.78125 66.40625 
z
M 31.78125 74.21875 
Q 44.046875 74.21875 50.515625 64.515625 
Q 56.984375 54.828125 56.984375 36.375 
Q 56.984375 17.96875 50.515625 8.265625 
Q 44.046875 -1.421875 31.78125 -1.421875 
Q 19.53125 -1.421875 13.0625 8.265625 
Q 6.59375 17.96875 6.59375 36.375 
Q 6.59375 54.828125 13.0625 64.515625 
Q 19.53125 74.21875 31.78125 74.21875 
z
" id="DejaVuSans-30"/>
       <path d="M 40.578125 39.3125 
Q 47.65625 37.796875 51.625 33 
Q 55.609375 28.21875 55.609375 21.1875 
Q 55.609375 10.40625 48.1875 4.484375 
Q 40.765625 -1.421875 27.09375 -1.421875 
Q 22.515625 -1.421875 17.65625 -0.515625 
Q 12.796875 0.390625 7.625 2.203125 
L 7.625 11.71875 
Q 11.71875 9.328125 16.59375 8.109375 
Q 21.484375 6.890625 26.8125 6.890625 
Q 36.078125 6.890625 40.9375 10.546875 
Q 45.796875 14.203125 45.796875 21.1875 
Q 45.796875 27.640625 41.28125 31.265625 
Q 36.765625 34.90625 28.71875 34.90625 
L 20.21875 34.90625 
L 20.21875 43.015625 
L 29.109375 43.015625 
Q 36.375 43.015625 40.234375 45.921875 
Q 44.09375 48.828125 44.09375 54.296875 
Q 44.09375 59.90625 40.109375 62.90625 
Q 36.140625 65.921875 28.71875 65.921875 
Q 24.65625 65.921875 20.015625 65.03125 
Q 15.375 64.15625 9.8125 62.3125 
L 9.8125 71.09375 
Q 15.4375 72.65625 20.34375 73.4375 
Q 25.25 74.21875 29.59375 74.21875 
Q 40.828125 74.21875 47.359375 69.109375 
Q 53.90625 64.015625 53.90625 55.328125 
Q 53.90625 49.265625 50.4375 45.09375 
Q 46.96875 40.921875 40.578125 39.3125 
z
" id="DejaVuSans-33"/>
      </defs>
      <g transform="translate(79.0819 324.461937)scale(0.1 -0.1)">
       <use xlink:href="#DejaVuSans-32"/>
       <use x="63.623047" xlink:href="#DejaVuSans-30"/>
       <use x="127.246094" xlink:href="#DejaVuSans-30"/>
       <use x="190.869141" xlink:href="#DejaVuSans-33"/>
      </g>
     </g>
    </g>
    <g id="xtick_2">
     <g id="line2d_3">
      <path clip-path="url(#p36eda843c1)" d="M 138.50177 309.8635 
L 138.50177 23.36505 
" style="fill:none;stroke:#b0b0b0;stroke-linecap:square;stroke-width:0.8;"/>
     </g>
     <g id="line2d_4">
      <g>
       <use style="stroke:#000000;stroke-width:0.8;" x="138.50177" xlink:href="#mb52ebcd338" y="309.8635"/>
      </g>
     </g>
     <g id="text_2">
      <!-- 2005 -->
      <defs>
       <path d="M 10.796875 72.90625 
L 49.515625 72.90625 
L 49.515625 64.59375 
L 19.828125 64.59375 
L 19.828125 46.734375 
Q 21.96875 47.46875 24.109375 47.828125 
Q 26.265625 48.1875 28.421875 48.1875 
Q 40.625 48.1875 47.75 41.5 
Q 54.890625 34.8125 54.890625 23.390625 
Q 54.890625 11.625 47.5625 5.09375 
Q 40.234375 -1.421875 26.90625 -1.421875 
Q 22.3125 -1.421875 17.546875 -0.640625 
Q 12.796875 0.140625 7.71875 1.703125 
L 7.71875 11.625 
Q 12.109375 9.234375 16.796875 8.0625 
Q 21.484375 6.890625 26.703125 6.890625 
Q 35.15625 6.890625 40.078125 11.328125 
Q 45.015625 15.765625 45.015625 23.390625 
Q 45.015625 31 40.078125 35.4375 
Q 35.15625 39.890625 26.703125 39.890625 
Q 22.75 39.890625 18.8125 39.015625 
Q 14.890625 38.140625 10.796875 36.28125 
z
" id="DejaVuSans-35"/>
      </defs>
      <g transform="translate(125.77677 324.461937)scale(0.1 -0.1)">
       <use xlink:href="#DejaVuSans-32"/>
       <use x="63.623047" xlink:href="#DejaVuSans-30"/>
       <use x="127.246094" xlink:href="#DejaVuSans-30"/>
       <use x="190.869141" xlink:href="#DejaVuSans-35"/>
      </g>
     </g>
    </g>
    <g id="xtick_3">
     <g id="line2d_5">
      <path clip-path="url(#p36eda843c1)" d="M 185.132762 309.8635 
L 185.132762 23.36505 
" style="fill:none;stroke:#b0b0b0;stroke-linecap:square;stroke-width:0.8;"/>
     </g>
     <g id="line2d_6">
      <g>
       <use style="stroke:#000000;stroke-width:0.8;" x="185.132762" xlink:href="#mb52ebcd338" y="309.8635"/>
      </g>
     </g>
     <g id="text_3">
      <!-- 2007 -->
      <defs>
       <path d="M 8.203125 72.90625 
L 55.078125 72.90625 
L 55.078125 68.703125 
L 28.609375 0 
L 18.3125 0 
L 43.21875 64.59375 
L 8.203125 64.59375 
z
" id="DejaVuSans-37"/>
      </defs>
      <g transform="translate(172.407762 324.461937)scale(0.1 -0.1)">
       <use xlink:href="#DejaVuSans-32"/>
       <use x="63.623047" xlink:href="#DejaVuSans-30"/>
       <use x="127.246094" xlink:href="#DejaVuSans-30"/>
       <use x="190.869141" xlink:href="#DejaVuSans-37"/>
      </g>
     </g>
    </g>
    <g id="xtick_4">
     <g id="line2d_7">
      <path clip-path="url(#p36eda843c1)" d="M 231.827632 309.8635 
L 231.827632 23.36505 
" style="fill:none;stroke:#b0b0b0;stroke-linecap:square;stroke-width:0.8;"/>
     </g>
     <g id="line2d_8">
      <g>
       <use style="stroke:#000000;stroke-width:0.8;" x="231.827632" xlink:href="#mb52ebcd338" y="309.8635"/>
      </g>
     </g>
     <g id="text_4">
      <!-- 2009 -->
      <defs>
       <path d="M 10.984375 1.515625 
L 10.984375 10.5 
Q 14.703125 8.734375 18.5 7.8125 
Q 22.3125 6.890625 25.984375 6.890625 
Q 35.75 6.890625 40.890625 13.453125 
Q 46.046875 20.015625 46.78125 33.40625 
Q 43.953125 29.203125 39.59375 26.953125 
Q 35.25 24.703125 29.984375 24.703125 
Q 19.046875 24.703125 12.671875 31.3125 
Q 6.296875 37.9375 6.296875 49.421875 
Q 6.296875 60.640625 12.9375 67.421875 
Q 19.578125 74.21875 30.609375 74.21875 
Q 43.265625 74.21875 49.921875 64.515625 
Q 56.59375 54.828125 56.59375 36.375 
Q 56.59375 19.140625 48.40625 8.859375 
Q 40.234375 -1.421875 26.421875 -1.421875 
Q 22.703125 -1.421875 18.890625 -0.6875 
Q 15.09375 0.046875 10.984375 1.515625 
z
M 30.609375 32.421875 
Q 37.25 32.421875 41.125 36.953125 
Q 45.015625 41.5 45.015625 49.421875 
Q 45.015625 57.28125 41.125 61.84375 
Q 37.25 66.40625 30.609375 66.40625 
Q 23.96875 66.40625 20.09375 61.84375 
Q 16.21875 57.28125 16.21875 49.421875 
Q 16.21875 41.5 20.09375 36.953125 
Q 23.96875 32.421875 30.609375 32.421875 
z
" id="DejaVuSans-39"/>
      </defs>
      <g transform="translate(219.102632 324.461937)scale(0.1 -0.1)">
       <use xlink:href="#DejaVuSans-32"/>
       <use x="63.623047" xlink:href="#DejaVuSans-30"/>
       <use x="127.246094" xlink:href="#DejaVuSans-30"/>
       <use x="190.869141" xlink:href="#DejaVuSans-39"/>
      </g>
     </g>
    </g>
    <g id="xtick_5">
     <g id="line2d_9">
      <path clip-path="url(#p36eda843c1)" d="M 278.458624 309.8635 
L 278.458624 23.36505 
" style="fill:none;stroke:#b0b0b0;stroke-linecap:square;stroke-width:0.8;"/>
     </g>
     <g id="line2d_10">
      <g>
       <use style="stroke:#000000;stroke-width:0.8;" x="278.458624" xlink:href="#mb52ebcd338" y="309.8635"/>
      </g>
     </g>
     <g id="text_5">
      <!-- 2011 -->
      <defs>
       <path d="M 12.40625 8.296875 
L 28.515625 8.296875 
L 28.515625 63.921875 
L 10.984375 60.40625 
L 10.984375 69.390625 
L 28.421875 72.90625 
L 38.28125 72.90625 
L 38.28125 8.296875 
L 54.390625 8.296875 
L 54.390625 0 
L 12.40625 0 
z
" id="DejaVuSans-31"/>
      </defs>
      <g transform="translate(265.733624 324.461937)scale(0.1 -0.1)">
       <use xlink:href="#DejaVuSans-32"/>
       <use x="63.623047" xlink:href="#DejaVuSans-30"/>
       <use x="127.246094" xlink:href="#DejaVuSans-31"/>
       <use x="190.869141" xlink:href="#DejaVuSans-31"/>
      </g>
     </g>
    </g>
    <g id="xtick_6">
     <g id="line2d_11">
      <path clip-path="url(#p36eda843c1)" d="M 325.153494 309.8635 
L 325.153494 23.36505 
" style="fill:none;stroke:#b0b0b0;stroke-linecap:square;stroke-width:0.8;"/>
     </g>
     <g id="line2d_12">
      <g>
       <use style="stroke:#000000;stroke-width:0.8;" x="325.153494" xlink:href="#mb52ebcd338" y="309.8635"/>
      </g>
     </g>
     <g id="text_6">
      <!-- 2013 -->
      <g transform="translate(312.428494 324.461937)scale(0.1 -0.1)">
       <use xlink:href="#DejaVuSans-32"/>
       <use x="63.623047" xlink:href="#DejaVuSans-30"/>
       <use x="127.246094" xlink:href="#DejaVuSans-31"/>
       <use x="190.869141" xlink:href="#DejaVuSans-33"/>
      </g>
     </g>
    </g>
    <g id="xtick_7">
     <g id="line2d_13">
      <path clip-path="url(#p36eda843c1)" d="M 371.784486 309.8635 
L 371.784486 23.36505 
" style="fill:none;stroke:#b0b0b0;stroke-linecap:square;stroke-width:0.8;"/>
     </g>
     <g id="line2d_14">
      <g>
       <use style="stroke:#000000;stroke-width:0.8;" x="371.784486" xlink:href="#mb52ebcd338" y="309.8635"/>
      </g>
     </g>
     <g id="text_7">
      <!-- 2015 -->
      <g transform="translate(359.059486 324.461937)scale(0.1 -0.1)">
       <use xlink:href="#DejaVuSans-32"/>
       <use x="63.623047" xlink:href="#DejaVuSans-30"/>
       <use x="127.246094" xlink:href="#DejaVuSans-31"/>
       <use x="190.869141" xlink:href="#DejaVuSans-35"/>
      </g>
     </g>
    </g>
    <g id="xtick_8">
     <g id="line2d_15">
      <path clip-path="url(#p36eda843c1)" d="M 418.479356 309.8635 
L 418.479356 23.36505 
" style="fill:none;stroke:#b0b0b0;stroke-linecap:square;stroke-width:0.8;"/>
     </g>
     <g id="line2d_16">
      <g>
       <use style="stroke:#000000;stroke-width:0.8;" x="418.479356" xlink:href="#mb52ebcd338" y="309.8635"/>
      </g>
     </g>
     <g id="text_8">
      <!-- 2017 -->
      <g transform="translate(405.754356 324.461937)scale(0.1 -0.1)">
       <use xlink:href="#DejaVuSans-32"/>
       <use x="63.623047" xlink:href="#DejaVuSans-30"/>
       <use x="127.246094" xlink:href="#DejaVuSans-31"/>
       <use x="190.869141" xlink:href="#DejaVuSans-37"/>
      </g>
     </g>
    </g>
    <g id="text_9">
     <!-- Date -->
     <defs>
      <path d="M 19.671875 64.796875 
L 19.671875 8.109375 
L 31.59375 8.109375 
Q 46.6875 8.109375 53.6875 14.9375 
Q 60.6875 21.78125 60.6875 36.53125 
Q 60.6875 51.171875 53.6875 57.984375 
Q 46.6875 64.796875 31.59375 64.796875 
z
M 9.8125 72.90625 
L 30.078125 72.90625 
Q 51.265625 72.90625 61.171875 64.09375 
Q 71.09375 55.28125 71.09375 36.53125 
Q 71.09375 17.671875 61.125 8.828125 
Q 51.171875 0 30.078125 0 
L 9.8125 0 
z
" id="DejaVuSans-44"/>
      <path d="M 34.28125 27.484375 
Q 23.390625 27.484375 19.1875 25 
Q 14.984375 22.515625 14.984375 16.5 
Q 14.984375 11.71875 18.140625 8.90625 
Q 21.296875 6.109375 26.703125 6.109375 
Q 34.1875 6.109375 38.703125 11.40625 
Q 43.21875 16.703125 43.21875 25.484375 
L 43.21875 27.484375 
z
M 52.203125 31.203125 
L 52.203125 0 
L 43.21875 0 
L 43.21875 8.296875 
Q 40.140625 3.328125 35.546875 0.953125 
Q 30.953125 -1.421875 24.3125 -1.421875 
Q 15.921875 -1.421875 10.953125 3.296875 
Q 6 8.015625 6 15.921875 
Q 6 25.140625 12.171875 29.828125 
Q 18.359375 34.515625 30.609375 34.515625 
L 43.21875 34.515625 
L 43.21875 35.40625 
Q 43.21875 41.609375 39.140625 45 
Q 35.0625 48.390625 27.6875 48.390625 
Q 23 48.390625 18.546875 47.265625 
Q 14.109375 46.140625 10.015625 43.890625 
L 10.015625 52.203125 
Q 14.9375 54.109375 19.578125 55.046875 
Q 24.21875 56 28.609375 56 
Q 40.484375 56 46.34375 49.84375 
Q 52.203125 43.703125 52.203125 31.203125 
z
" id="DejaVuSans-61"/>
      <path d="M 18.3125 70.21875 
L 18.3125 54.6875 
L 36.8125 54.6875 
L 36.8125 47.703125 
L 18.3125 47.703125 
L 18.3125 18.015625 
Q 18.3125 11.328125 20.140625 9.421875 
Q 21.96875 7.515625 27.59375 7.515625 
L 36.8125 7.515625 
L 36.8125 0 
L 27.59375 0 
Q 17.1875 0 13.234375 3.875 
Q 9.28125 7.765625 9.28125 18.015625 
L 9.28125 47.703125 
L 2.6875 47.703125 
L 2.6875 54.6875 
L 9.28125 54.6875 
L 9.28125 70.21875 
z
" id="DejaVuSans-74"/>
      <path d="M 56.203125 29.59375 
L 56.203125 25.203125 
L 14.890625 25.203125 
Q 15.484375 15.921875 20.484375 11.0625 
Q 25.484375 6.203125 34.421875 6.203125 
Q 39.59375 6.203125 44.453125 7.46875 
Q 49.3125 8.734375 54.109375 11.28125 
L 54.109375 2.78125 
Q 49.265625 0.734375 44.1875 -0.34375 
Q 39.109375 -1.421875 33.890625 -1.421875 
Q 20.796875 -1.421875 13.15625 6.1875 
Q 5.515625 13.8125 5.515625 26.8125 
Q 5.515625 40.234375 12.765625 48.109375 
Q 20.015625 56 32.328125 56 
Q 43.359375 56 49.78125 48.890625 
Q 56.203125 41.796875 56.203125 29.59375 
z
M 47.21875 32.234375 
Q 47.125 39.59375 43.09375 43.984375 
Q 39.0625 48.390625 32.421875 48.390625 
Q 24.90625 48.390625 20.390625 44.140625 
Q 15.875 39.890625 15.1875 32.171875 
z
" id="DejaVuSans-65"/>
     </defs>
     <g transform="translate(235.335344 338.140062)scale(0.1 -0.1)">
      <use xlink:href="#DejaVuSans-44"/>
      <use x="77.001953" xlink:href="#DejaVuSans-61"/>
      <use x="138.28125" xlink:href="#DejaVuSans-74"/>
      <use x="177.490234" xlink:href="#DejaVuSans-65"/>
     </g>
    </g>
   </g>
   <g id="matplotlib.axis_2">
    <g id="ytick_1">
     <g id="line2d_17">
      <path clip-path="url(#p36eda843c1)" d="M 47.09225 308.765741 
L 447.48 308.765741 
" style="fill:none;stroke:#b0b0b0;stroke-linecap:square;stroke-width:0.8;"/>
     </g>
     <g id="line2d_18">
      <defs>
       <path d="M 0 0 
L -3.5 0 
" id="mb8acea27c5" style="stroke:#000000;stroke-width:0.8;"/>
      </defs>
      <g>
       <use style="stroke:#000000;stroke-width:0.8;" x="47.09225" xlink:href="#mb8acea27c5" y="308.765741"/>
      </g>
     </g>
     <g id="text_10">
      <!-- 0 -->
      <g transform="translate(33.72975 312.564959)scale(0.1 -0.1)">
       <use xlink:href="#DejaVuSans-30"/>
      </g>
     </g>
    </g>
    <g id="ytick_2">
     <g id="line2d_19">
      <path clip-path="url(#p36eda843c1)" d="M 47.09225 253.04192 
L 447.48 253.04192 
" style="fill:none;stroke:#b0b0b0;stroke-linecap:square;stroke-width:0.8;"/>
     </g>
     <g id="line2d_20">
      <g>
       <use style="stroke:#000000;stroke-width:0.8;" x="47.09225" xlink:href="#mb8acea27c5" y="253.04192"/>
      </g>
     </g>
     <g id="text_11">
      <!-- 500 -->
      <g transform="translate(21.00475 256.841139)scale(0.1 -0.1)">
       <use xlink:href="#DejaVuSans-35"/>
       <use x="63.623047" xlink:href="#DejaVuSans-30"/>
       <use x="127.246094" xlink:href="#DejaVuSans-30"/>
      </g>
     </g>
    </g>
    <g id="ytick_3">
     <g id="line2d_21">
      <path clip-path="url(#p36eda843c1)" d="M 47.09225 197.3181 
L 447.48 197.3181 
" style="fill:none;stroke:#b0b0b0;stroke-linecap:square;stroke-width:0.8;"/>
     </g>
     <g id="line2d_22">
      <g>
       <use style="stroke:#000000;stroke-width:0.8;" x="47.09225" xlink:href="#mb8acea27c5" y="197.3181"/>
      </g>
     </g>
     <g id="text_12">
      <!-- 1000 -->
      <g transform="translate(14.64225 201.117319)scale(0.1 -0.1)">
       <use xlink:href="#DejaVuSans-31"/>
       <use x="63.623047" xlink:href="#DejaVuSans-30"/>
       <use x="127.246094" xlink:href="#DejaVuSans-30"/>
       <use x="190.869141" xlink:href="#DejaVuSans-30"/>
      </g>
     </g>
    </g>
    <g id="ytick_4">
     <g id="line2d_23">
      <path clip-path="url(#p36eda843c1)" d="M 47.09225 141.59428 
L 447.48 141.59428 
" style="fill:none;stroke:#b0b0b0;stroke-linecap:square;stroke-width:0.8;"/>
     </g>
     <g id="line2d_24">
      <g>
       <use style="stroke:#000000;stroke-width:0.8;" x="47.09225" xlink:href="#mb8acea27c5" y="141.59428"/>
      </g>
     </g>
     <g id="text_13">
      <!-- 1500 -->
      <g transform="translate(14.64225 145.393498)scale(0.1 -0.1)">
       <use xlink:href="#DejaVuSans-31"/>
       <use x="63.623047" xlink:href="#DejaVuSans-35"/>
       <use x="127.246094" xlink:href="#DejaVuSans-30"/>
       <use x="190.869141" xlink:href="#DejaVuSans-30"/>
      </g>
     </g>
    </g>
    <g id="ytick_5">
     <g id="line2d_25">
      <path clip-path="url(#p36eda843c1)" d="M 47.09225 85.870459 
L 447.48 85.870459 
" style="fill:none;stroke:#b0b0b0;stroke-linecap:square;stroke-width:0.8;"/>
     </g>
     <g id="line2d_26">
      <g>
       <use style="stroke:#000000;stroke-width:0.8;" x="47.09225" xlink:href="#mb8acea27c5" y="85.870459"/>
      </g>
     </g>
     <g id="text_14">
      <!-- 2000 -->
      <g transform="translate(14.64225 89.669678)scale(0.1 -0.1)">
       <use xlink:href="#DejaVuSans-32"/>
       <use x="63.623047" xlink:href="#DejaVuSans-30"/>
       <use x="127.246094" xlink:href="#DejaVuSans-30"/>
       <use x="190.869141" xlink:href="#DejaVuSans-30"/>
      </g>
     </g>
    </g>
    <g id="ytick_6">
     <g id="line2d_27">
      <path clip-path="url(#p36eda843c1)" d="M 47.09225 30.146639 
L 447.48 30.146639 
" style="fill:none;stroke:#b0b0b0;stroke-linecap:square;stroke-width:0.8;"/>
     </g>
     <g id="line2d_28">
      <g>
       <use style="stroke:#000000;stroke-width:0.8;" x="47.09225" xlink:href="#mb8acea27c5" y="30.146639"/>
      </g>
     </g>
     <g id="text_15">
      <!-- 2500 -->
      <g transform="translate(14.64225 33.945858)scale(0.1 -0.1)">
       <use xlink:href="#DejaVuSans-32"/>
       <use x="63.623047" xlink:href="#DejaVuSans-35"/>
       <use x="127.246094" xlink:href="#DejaVuSans-30"/>
       <use x="190.869141" xlink:href="#DejaVuSans-30"/>
      </g>
     </g>
    </g>
    <g id="text_16">
     <!-- Gross load (MW) -->
     <defs>
      <path d="M 59.515625 10.40625 
L 59.515625 29.984375 
L 43.40625 29.984375 
L 43.40625 38.09375 
L 69.28125 38.09375 
L 69.28125 6.78125 
Q 63.578125 2.734375 56.6875 0.65625 
Q 49.8125 -1.421875 42 -1.421875 
Q 24.90625 -1.421875 15.25 8.5625 
Q 5.609375 18.5625 5.609375 36.375 
Q 5.609375 54.25 15.25 64.234375 
Q 24.90625 74.21875 42 74.21875 
Q 49.125 74.21875 55.546875 72.453125 
Q 61.96875 70.703125 67.390625 67.28125 
L 67.390625 56.78125 
Q 61.921875 61.421875 55.765625 63.765625 
Q 49.609375 66.109375 42.828125 66.109375 
Q 29.4375 66.109375 22.71875 58.640625 
Q 16.015625 51.171875 16.015625 36.375 
Q 16.015625 21.625 22.71875 14.15625 
Q 29.4375 6.6875 42.828125 6.6875 
Q 48.046875 6.6875 52.140625 7.59375 
Q 56.25 8.5 59.515625 10.40625 
z
" id="DejaVuSans-47"/>
      <path d="M 41.109375 46.296875 
Q 39.59375 47.171875 37.8125 47.578125 
Q 36.03125 48 33.890625 48 
Q 26.265625 48 22.1875 43.046875 
Q 18.109375 38.09375 18.109375 28.8125 
L 18.109375 0 
L 9.078125 0 
L 9.078125 54.6875 
L 18.109375 54.6875 
L 18.109375 46.1875 
Q 20.953125 51.171875 25.484375 53.578125 
Q 30.03125 56 36.53125 56 
Q 37.453125 56 38.578125 55.875 
Q 39.703125 55.765625 41.0625 55.515625 
z
" id="DejaVuSans-72"/>
      <path d="M 30.609375 48.390625 
Q 23.390625 48.390625 19.1875 42.75 
Q 14.984375 37.109375 14.984375 27.296875 
Q 14.984375 17.484375 19.15625 11.84375 
Q 23.34375 6.203125 30.609375 6.203125 
Q 37.796875 6.203125 41.984375 11.859375 
Q 46.1875 17.53125 46.1875 27.296875 
Q 46.1875 37.015625 41.984375 42.703125 
Q 37.796875 48.390625 30.609375 48.390625 
z
M 30.609375 56 
Q 42.328125 56 49.015625 48.375 
Q 55.71875 40.765625 55.71875 27.296875 
Q 55.71875 13.875 49.015625 6.21875 
Q 42.328125 -1.421875 30.609375 -1.421875 
Q 18.84375 -1.421875 12.171875 6.21875 
Q 5.515625 13.875 5.515625 27.296875 
Q 5.515625 40.765625 12.171875 48.375 
Q 18.84375 56 30.609375 56 
z
" id="DejaVuSans-6f"/>
      <path d="M 44.28125 53.078125 
L 44.28125 44.578125 
Q 40.484375 46.53125 36.375 47.5 
Q 32.28125 48.484375 27.875 48.484375 
Q 21.1875 48.484375 17.84375 46.4375 
Q 14.5 44.390625 14.5 40.28125 
Q 14.5 37.15625 16.890625 35.375 
Q 19.28125 33.59375 26.515625 31.984375 
L 29.59375 31.296875 
Q 39.15625 29.25 43.1875 25.515625 
Q 47.21875 21.78125 47.21875 15.09375 
Q 47.21875 7.46875 41.1875 3.015625 
Q 35.15625 -1.421875 24.609375 -1.421875 
Q 20.21875 -1.421875 15.453125 -0.5625 
Q 10.6875 0.296875 5.421875 2 
L 5.421875 11.28125 
Q 10.40625 8.6875 15.234375 7.390625 
Q 20.0625 6.109375 24.8125 6.109375 
Q 31.15625 6.109375 34.5625 8.28125 
Q 37.984375 10.453125 37.984375 14.40625 
Q 37.984375 18.0625 35.515625 20.015625 
Q 33.0625 21.96875 24.703125 23.78125 
L 21.578125 24.515625 
Q 13.234375 26.265625 9.515625 29.90625 
Q 5.8125 33.546875 5.8125 39.890625 
Q 5.8125 47.609375 11.28125 51.796875 
Q 16.75 56 26.8125 56 
Q 31.78125 56 36.171875 55.265625 
Q 40.578125 54.546875 44.28125 53.078125 
z
" id="DejaVuSans-73"/>
      <path id="DejaVuSans-20"/>
      <path d="M 9.421875 75.984375 
L 18.40625 75.984375 
L 18.40625 0 
L 9.421875 0 
z
" id="DejaVuSans-6c"/>
      <path d="M 45.40625 46.390625 
L 45.40625 75.984375 
L 54.390625 75.984375 
L 54.390625 0 
L 45.40625 0 
L 45.40625 8.203125 
Q 42.578125 3.328125 38.25 0.953125 
Q 33.9375 -1.421875 27.875 -1.421875 
Q 17.96875 -1.421875 11.734375 6.484375 
Q 5.515625 14.40625 5.515625 27.296875 
Q 5.515625 40.1875 11.734375 48.09375 
Q 17.96875 56 27.875 56 
Q 33.9375 56 38.25 53.625 
Q 42.578125 51.265625 45.40625 46.390625 
z
M 14.796875 27.296875 
Q 14.796875 17.390625 18.875 11.75 
Q 22.953125 6.109375 30.078125 6.109375 
Q 37.203125 6.109375 41.296875 11.75 
Q 45.40625 17.390625 45.40625 27.296875 
Q 45.40625 37.203125 41.296875 42.84375 
Q 37.203125 48.484375 30.078125 48.484375 
Q 22.953125 48.484375 18.875 42.84375 
Q 14.796875 37.203125 14.796875 27.296875 
z
" id="DejaVuSans-64"/>
      <path d="M 31 75.875 
Q 24.46875 64.65625 21.28125 53.65625 
Q 18.109375 42.671875 18.109375 31.390625 
Q 18.109375 20.125 21.3125 9.0625 
Q 24.515625 -2 31 -13.1875 
L 23.1875 -13.1875 
Q 15.875 -1.703125 12.234375 9.375 
Q 8.59375 20.453125 8.59375 31.390625 
Q 8.59375 42.28125 12.203125 53.3125 
Q 15.828125 64.359375 23.1875 75.875 
z
" id="DejaVuSans-28"/>
      <path d="M 9.8125 72.90625 
L 24.515625 72.90625 
L 43.109375 23.296875 
L 61.8125 72.90625 
L 76.515625 72.90625 
L 76.515625 0 
L 66.890625 0 
L 66.890625 64.015625 
L 48.09375 14.015625 
L 38.1875 14.015625 
L 19.390625 64.015625 
L 19.390625 0 
L 9.8125 0 
z
" id="DejaVuSans-4d"/>
      <path d="M 3.328125 72.90625 
L 13.28125 72.90625 
L 28.609375 11.28125 
L 43.890625 72.90625 
L 54.984375 72.90625 
L 70.3125 11.28125 
L 85.59375 72.90625 
L 95.609375 72.90625 
L 77.296875 0 
L 64.890625 0 
L 49.515625 63.28125 
L 33.984375 0 
L 21.578125 0 
z
" id="DejaVuSans-57"/>
      <path d="M 8.015625 75.875 
L 15.828125 75.875 
Q 23.140625 64.359375 26.78125 53.3125 
Q 30.421875 42.28125 30.421875 31.390625 
Q 30.421875 20.453125 26.78125 9.375 
Q 23.140625 -1.703125 15.828125 -13.1875 
L 8.015625 -13.1875 
Q 14.5 -2 17.703125 9.0625 
Q 20.90625 20.125 20.90625 31.390625 
Q 20.90625 42.671875 17.703125 53.65625 
Q 14.5 64.65625 8.015625 75.875 
z
" id="DejaVuSans-29"/>
     </defs>
     <g transform="translate(8.562563 207.835369)rotate(-90)scale(0.1 -0.1)">
      <use xlink:href="#DejaVuSans-47"/>
      <use x="77.490234" xlink:href="#DejaVuSans-72"/>
      <use x="118.572266" xlink:href="#DejaVuSans-6f"/>
      <use x="179.753906" xlink:href="#DejaVuSans-73"/>
      <use x="231.853516" xlink:href="#DejaVuSans-73"/>
      <use x="283.953125" xlink:href="#DejaVuSans-20"/>
      <use x="315.740234" xlink:href="#DejaVuSans-6c"/>
      <use x="343.523438" xlink:href="#DejaVuSans-6f"/>
      <use x="404.705078" xlink:href="#DejaVuSans-61"/>
      <use x="465.984375" xlink:href="#DejaVuSans-64"/>
      <use x="529.460938" xlink:href="#DejaVuSans-20"/>
      <use x="561.248047" xlink:href="#DejaVuSans-28"/>
      <use x="600.261719" xlink:href="#DejaVuSans-4d"/>
      <use x="686.541016" xlink:href="#DejaVuSans-57"/>
      <use x="785.417969" xlink:href="#DejaVuSans-29"/>
     </g>
    </g>
   </g>
   <g id="line2d_29">
    <path clip-path="url(#p36eda843c1)" d="M 47.09225 40.845612 
L 48.880836 127.774772 
L 50.861056 127.88622 
L 52.777398 37.725079 
L 56.673961 38.170869 
L 60.634401 38.170869 
L 62.550743 51.043072 
L 64.530963 38.170869 
L 66.447306 38.728107 
L 68.427526 49.371357 
L 70.407746 43.743251 
L 72.196332 128.833525 
L 74.176552 38.226593 
L 76.092894 51.767481 
L 78.073115 42.85167 
L 79.989457 46.585166 
L 81.969677 38.282317 
L 83.949897 38.282317 
L 85.866239 39.954031 
L 87.846459 41.514298 
L 89.762802 37.836526 
L 91.743022 37.89225 
L 93.723242 67.983113 
L 95.511828 127.997667 
L 97.492048 160.763274 
L 99.40839 135.687555 
L 101.38861 78.403467 
L 103.304953 38.282317 
L 105.285173 37.947974 
L 107.265393 38.282317 
L 109.181735 40.344098 
L 111.161955 51.60031 
L 113.078298 47.866814 
L 115.058518 43.687527 
L 117.038738 42.85167 
L 118.891202 132.678468 
L 120.871422 128.443458 
L 122.787764 42.405879 
L 124.767985 42.85167 
L 126.684327 38.059421 
L 128.664547 43.966146 
L 130.644767 38.505212 
L 132.561109 38.393764 
L 134.541329 43.743251 
L 136.457672 38.560936 
L 138.437892 40.734165 
L 140.418112 50.485833 
L 142.206698 144.547642 
L 144.186918 133.068535 
L 146.10326 38.951003 
L 148.08348 41.012784 
L 149.999823 48.98129 
L 151.980043 37.836526 
L 153.960263 37.725079 
L 155.876605 38.282317 
L 157.856825 37.836526 
L 159.773168 40.622717 
L 161.753388 40.288374 
L 163.733608 40.176927 
L 165.522194 128.109115 
L 167.502414 53.717815 
L 169.418756 40.622717 
L 171.398976 38.282317 
L 173.315319 40.734165 
L 175.295539 37.502183 
L 179.192101 37.613631 
L 181.172321 100.247205 
L 183.088663 40.288374 
L 185.068884 127.997667 
L 187.049104 127.328982 
L 188.83769 128.220563 
L 190.81791 37.836526 
L 192.734252 37.613631 
L 194.714472 42.12726 
L 196.630815 37.947974 
L 198.611035 73.165428 
L 200.591255 37.725079 
L 202.507597 45.860756 
L 204.487817 46.306547 
L 206.404159 37.613631 
L 208.38438 38.282317 
L 210.3646 38.226593 
L 212.217064 127.88622 
L 214.197284 40.065479 
L 216.113626 40.065479 
L 218.093846 37.613631 
L 220.010189 37.89225 
L 221.990409 37.613631 
L 223.970629 37.502183 
L 225.886971 37.725079 
L 227.867191 38.170869 
L 229.783534 105.039454 
L 231.763754 119.471923 
L 233.743974 69.153313 
L 235.53256 130.783859 
L 237.51278 131.229649 
L 239.429122 83.139992 
L 241.409342 43.520356 
L 243.325685 59.791711 
L 245.305905 41.012784 
L 247.286125 43.408908 
L 249.202467 43.408908 
L 251.182687 127.997667 
L 253.099029 82.304135 
L 255.07925 38.393764 
L 257.05947 43.408908 
L 258.848056 129.279315 
L 260.828276 128.777801 
L 262.744618 131.341097 
L 264.724838 52.547615 
L 266.641181 50.262938 
L 268.621401 43.966146 
L 270.601621 38.728107 
L 272.517963 38.951003 
L 274.498183 41.514298 
L 276.414525 43.241737 
L 278.394746 43.018841 
L 280.374966 43.520356 
L 282.163552 129.223592 
L 284.143772 133.57005 
L 286.060114 128.053391 
L 288.040334 45.805032 
L 289.956677 46.975233 
L 291.936897 38.61666 
L 293.917117 38.505212 
L 295.833459 40.566993 
L 297.813679 39.06245 
L 299.730021 42.071536 
L 301.710242 42.238708 
L 303.690462 50.485833 
L 305.542926 139.69967 
L 307.523146 83.418611 
L 311.419708 95.454956 
L 313.336051 73.444047 
L 315.316271 67.314427 
L 317.296491 44.077594 
L 319.212833 61.853493 
L 321.193053 88.935269 
L 323.109395 62.577902 
L 325.089616 64.751131 
L 327.069836 58.119997 
L 328.858422 136.579136 
L 330.838642 71.047923 
L 332.754984 43.966146 
L 334.735204 49.872871 
L 336.651547 47.142404 
L 338.631767 42.517327 
L 340.611987 44.857728 
L 342.528329 58.45434 
L 344.508549 42.238708 
L 346.424891 55.278082 
L 348.405112 49.872871 
L 350.385332 49.928595 
L 352.173918 129.112144 
L 354.154138 61.351978 
L 356.07048 66.92436 
L 358.0507 81.969792 
L 359.967043 49.482805 
L 361.947263 39.285345 
L 363.927483 38.61666 
L 365.843825 37.390736 
L 367.824045 37.947974 
L 369.740387 72.719638 
L 371.720608 63.302312 
L 373.700828 133.235707 
L 375.489414 181.158192 
L 377.469634 146.99949 
L 379.385976 141.817175 
L 381.366196 92.44587 
L 383.282538 106.15393 
L 385.262759 74.781419 
L 387.242979 93.671794 
L 389.159321 98.742662 
L 391.139541 82.582754 
L 393.055883 144.380471 
L 395.036104 136.300517 
L 397.016324 149.952853 
L 398.868788 213.812351 
L 400.849008 226.015868 
L 402.76535 181.492535 
L 404.74557 162.825055 
L 406.661913 150.510091 
L 408.642133 103.256291 
L 410.622353 101.6403 
L 412.538695 101.417405 
L 414.518915 88.600926 
L 416.435257 134.461631 
L 418.415478 89.102441 
L 420.395698 103.869253 
L 422.184284 144.491918 
L 424.164504 138.418022 
L 426.080846 149.228443 
L 428.061066 125.434372 
L 429.977409 135.130316 
L 431.957629 63.803826 
L 433.937849 95.956471 
L 435.854191 103.144844 
L 437.834411 112.339274 
L 439.750753 100.358653 
L 441.730974 147.055214 
L 443.711194 104.649387 
L 445.49978 104.872282 
L 447.48 154.856549 
L 447.48 154.856549 
" style="fill:none;stroke:#1f77b4;stroke-linecap:square;stroke-width:1.5;"/>
   </g>
   <g id="patch_3">
    <path d="M 47.09225 309.8635 
L 47.09225 23.36505 
" style="fill:none;stroke:#000000;stroke-linecap:square;stroke-linejoin:miter;stroke-width:0.8;"/>
   </g>
   <g id="patch_4">
    <path d="M 447.48 309.8635 
L 447.48 23.36505 
" style="fill:none;stroke:#000000;stroke-linecap:square;stroke-linejoin:miter;stroke-width:0.8;"/>
   </g>
   <g id="patch_5">
    <path d="M 47.09225 309.8635 
L 447.48 309.8635 
" style="fill:none;stroke:#000000;stroke-linecap:square;stroke-linejoin:miter;stroke-width:0.8;"/>
   </g>
   <g id="patch_6">
    <path d="M 47.09225 23.36505 
L 447.48 23.36505 
" style="fill:none;stroke:#000000;stroke-linecap:square;stroke-linejoin:miter;stroke-width:0.8;"/>
   </g>
   <g id="text_17">
    <!-- Monthly gload trend -->
    <defs>
     <path d="M 54.890625 33.015625 
L 54.890625 0 
L 45.90625 0 
L 45.90625 32.71875 
Q 45.90625 40.484375 42.875 44.328125 
Q 39.84375 48.1875 33.796875 48.1875 
Q 26.515625 48.1875 22.3125 43.546875 
Q 18.109375 38.921875 18.109375 30.90625 
L 18.109375 0 
L 9.078125 0 
L 9.078125 54.6875 
L 18.109375 54.6875 
L 18.109375 46.1875 
Q 21.34375 51.125 25.703125 53.5625 
Q 30.078125 56 35.796875 56 
Q 45.21875 56 50.046875 50.171875 
Q 54.890625 44.34375 54.890625 33.015625 
z
" id="DejaVuSans-6e"/>
     <path d="M 54.890625 33.015625 
L 54.890625 0 
L 45.90625 0 
L 45.90625 32.71875 
Q 45.90625 40.484375 42.875 44.328125 
Q 39.84375 48.1875 33.796875 48.1875 
Q 26.515625 48.1875 22.3125 43.546875 
Q 18.109375 38.921875 18.109375 30.90625 
L 18.109375 0 
L 9.078125 0 
L 9.078125 75.984375 
L 18.109375 75.984375 
L 18.109375 46.1875 
Q 21.34375 51.125 25.703125 53.5625 
Q 30.078125 56 35.796875 56 
Q 45.21875 56 50.046875 50.171875 
Q 54.890625 44.34375 54.890625 33.015625 
z
" id="DejaVuSans-68"/>
     <path d="M 32.171875 -5.078125 
Q 28.375 -14.84375 24.75 -17.8125 
Q 21.140625 -20.796875 15.09375 -20.796875 
L 7.90625 -20.796875 
L 7.90625 -13.28125 
L 13.1875 -13.28125 
Q 16.890625 -13.28125 18.9375 -11.515625 
Q 21 -9.765625 23.484375 -3.21875 
L 25.09375 0.875 
L 2.984375 54.6875 
L 12.5 54.6875 
L 29.59375 11.921875 
L 46.6875 54.6875 
L 56.203125 54.6875 
z
" id="DejaVuSans-79"/>
     <path d="M 45.40625 27.984375 
Q 45.40625 37.75 41.375 43.109375 
Q 37.359375 48.484375 30.078125 48.484375 
Q 22.859375 48.484375 18.828125 43.109375 
Q 14.796875 37.75 14.796875 27.984375 
Q 14.796875 18.265625 18.828125 12.890625 
Q 22.859375 7.515625 30.078125 7.515625 
Q 37.359375 7.515625 41.375 12.890625 
Q 45.40625 18.265625 45.40625 27.984375 
z
M 54.390625 6.78125 
Q 54.390625 -7.171875 48.1875 -13.984375 
Q 42 -20.796875 29.203125 -20.796875 
Q 24.46875 -20.796875 20.265625 -20.09375 
Q 16.0625 -19.390625 12.109375 -17.921875 
L 12.109375 -9.1875 
Q 16.0625 -11.328125 19.921875 -12.34375 
Q 23.78125 -13.375 27.78125 -13.375 
Q 36.625 -13.375 41.015625 -8.765625 
Q 45.40625 -4.15625 45.40625 5.171875 
L 45.40625 9.625 
Q 42.625 4.78125 38.28125 2.390625 
Q 33.9375 0 27.875 0 
Q 17.828125 0 11.671875 7.65625 
Q 5.515625 15.328125 5.515625 27.984375 
Q 5.515625 40.671875 11.671875 48.328125 
Q 17.828125 56 27.875 56 
Q 33.9375 56 38.28125 53.609375 
Q 42.625 51.21875 45.40625 46.390625 
L 45.40625 54.6875 
L 54.390625 54.6875 
z
" id="DejaVuSans-67"/>
    </defs>
    <g transform="translate(186.6955 17.36505)scale(0.12 -0.12)">
     <use xlink:href="#DejaVuSans-4d"/>
     <use x="86.279297" xlink:href="#DejaVuSans-6f"/>
     <use x="147.460938" xlink:href="#DejaVuSans-6e"/>
     <use x="210.839844" xlink:href="#DejaVuSans-74"/>
     <use x="250.048828" xlink:href="#DejaVuSans-68"/>
     <use x="313.427734" xlink:href="#DejaVuSans-6c"/>
     <use x="341.210938" xlink:href="#DejaVuSans-79"/>
     <use x="400.390625" xlink:href="#DejaVuSans-20"/>
     <use x="432.177734" xlink:href="#DejaVuSans-67"/>
     <use x="495.654297" xlink:href="#DejaVuSans-6c"/>
     <use x="523.4375" xlink:href="#DejaVuSans-6f"/>
     <use x="584.619141" xlink:href="#DejaVuSans-61"/>
     <use x="645.898438" xlink:href="#DejaVuSans-64"/>
     <use x="709.375" xlink:href="#DejaVuSans-20"/>
     <use x="741.162109" xlink:href="#DejaVuSans-74"/>
     <use x="780.371094" xlink:href="#DejaVuSans-72"/>
     <use x="821.453125" xlink:href="#DejaVuSans-65"/>
     <use x="882.976562" xlink:href="#DejaVuSans-6e"/>
     <use x="946.355469" xlink:href="#DejaVuSans-64"/>
    </g>
   </g>
  </g>
 </g>
 <defs>
  <clipPath id="p36eda843c1">
   <rect height="286.49845" width="400.38775" x="47.09225" y="23.36505"/>
  </clipPath>
 </defs>
</svg>
