<?xml version="1.0" encoding="utf-8" standalone="no"?>
<!DOCTYPE svg PUBLIC "-//W3C//DTD SVG 1.1//EN"
  "http://www.w3.org/Graphics/SVG/1.1/DTD/svg11.dtd">
<!-- Created with matplotlib (http://matplotlib.org/) -->
<svg height="345.6pt" version="1.1" viewBox="0 0 460.8 345.6" width="460.8pt" xmlns="http://www.w3.org/2000/svg" xmlns:xlink="http://www.w3.org/1999/xlink">
 <defs>
  <style type="text/css">
*{stroke-linecap:butt;stroke-linejoin:round;}
  </style>
 </defs>
 <g id="figure_1">
  <g id="patch_1">
   <path d="M 0 345.6 
L 460.8 345.6 
L 460.8 0 
L 0 0 
z
" style="fill:none;"/>
  </g>
  <g id="axes_1">
   <g id="patch_2">
    <path d="M 42.51125 309.8635 
L 447.48 309.8635 
L 447.48 23.36505 
L 42.51125 23.36505 
z
" style="fill:none;"/>
   </g>
   <g id="PolyCollection_1">
    <path clip-path="url(#p5a15f261f2)" d="M 42.51125 117.649387 
L 42.51125 309.8635 
L 44.3203 309.8635 
L 46.323177 309.8635 
L 48.261444 309.8635 
L 50.264321 309.8635 
L 52.202589 309.8635 
L 54.205466 309.8635 
L 56.208342 309.8635 
L 58.14661 217.07048 
L 60.149487 226.46025 
L 62.087755 249.658505 
L 64.090631 217.622819 
L 66.093508 255.734238 
L 67.902558 204.919013 
L 69.905435 309.8635 
L 71.843703 309.8635 
L 73.846579 309.8635 
L 75.784847 309.8635 
L 77.787724 309.8635 
L 79.7906 208.233049 
L 81.728868 223.146213 
L 83.731745 250.763184 
L 85.670013 237.507038 
L 87.672889 309.8635 
L 89.675766 222.593874 
L 91.484816 190.558188 
L 93.487693 309.8635 
L 95.425961 247.449147 
L 97.428837 309.8635 
L 99.367105 228.669607 
L 101.369982 239.716395 
L 103.372859 309.8635 
L 105.311126 185.587134 
L 107.314003 264.571669 
L 109.252271 218.727498 
L 111.255148 245.239789 
L 113.258024 309.8635 
L 115.131683 309.8635 
L 117.13456 309.8635 
L 119.072828 182.825437 
L 121.075704 309.8635 
L 123.013972 309.8635 
L 125.016849 190.558188 
L 127.019726 209.890067 
L 128.957993 186.139473 
L 130.96087 230.326626 
L 132.899138 172.883327 
L 134.902015 224.803231 
L 136.904891 215.965801 
L 138.713941 224.803231 
L 140.716818 245.239789 
L 142.655086 309.8635 
L 144.657962 309.8635 
L 146.59623 186.139473 
L 148.599107 202.709655 
L 150.601984 185.034794 
L 152.540251 235.85002 
L 154.543128 190.558188 
L 156.481396 173.988006 
L 158.484273 309.8635 
L 160.487149 175.092685 
L 162.296199 309.8635 
L 164.299076 212.651765 
L 166.237344 309.8635 
L 168.240221 309.8635 
L 170.178488 309.8635 
L 172.181365 221.489195 
L 174.184242 241.373414 
L 176.12251 224.250892 
L 178.125386 245.239789 
L 180.063654 178.406721 
L 182.066531 216.51814 
L 184.069408 237.507038 
L 185.878457 167.359933 
L 187.881334 309.8635 
L 189.819602 309.8635 
L 191.822479 251.867862 
L 193.760746 309.8635 
L 195.763623 309.8635 
L 197.7665 309.8635 
L 199.704768 309.8635 
L 201.707644 309.8635 
L 203.645912 223.146213 
L 205.648789 219.279837 
L 207.651666 165.150576 
L 209.525324 309.8635 
L 211.528201 309.8635 
L 213.466469 177.302043 
L 215.469346 252.972541 
L 217.407613 309.8635 
L 219.41049 309.8635 
L 221.413367 309.8635 
L 223.351635 309.8635 
L 225.354511 196.081582 
L 227.292779 222.593874 
L 229.295656 172.883327 
L 231.298533 219.832177 
L 233.107583 309.8635 
L 235.110459 240.821074 
L 237.048727 309.8635 
L 239.051604 309.8635 
L 240.989872 309.8635 
L 242.992748 309.8635 
L 244.995625 251.867862 
L 246.933893 188.348831 
L 248.93677 230.326626 
L 250.875037 251.867862 
L 252.877914 309.8635 
L 254.880791 309.8635 
L 256.689841 234.745341 
L 258.692717 249.106165 
L 260.630985 197.186261 
L 262.633862 309.8635 
L 264.57213 309.8635 
L 266.575006 309.8635 
L 268.577883 203.814334 
L 270.516151 209.337728 
L 272.519028 248.001487 
L 274.457295 239.716395 
L 276.460172 208.785389 
L 278.463049 183.930115 
L 280.272099 183.377776 
L 282.274975 309.8635 
L 284.213243 309.8635 
L 286.21612 309.8635 
L 288.154388 309.8635 
L 290.157264 309.8635 
L 292.160141 309.8635 
L 294.098409 309.8635 
L 296.101286 309.8635 
L 298.039553 207.12837 
L 300.04243 251.315523 
L 302.045307 262.362311 
L 303.918966 309.8635 
L 305.921842 309.8635 
L 307.86011 309.8635 
L 309.862987 309.8635 
L 311.801255 309.8635 
L 313.804132 309.8635 
L 315.807008 309.8635 
L 317.745276 309.8635 
L 319.748153 236.402359 
L 321.686421 224.803231 
L 323.689297 236.402359 
L 325.692174 220.384516 
L 327.501224 228.669607 
L 329.504101 226.46025 
L 331.442368 309.8635 
L 333.445245 309.8635 
L 335.383513 309.8635 
L 337.38639 309.8635 
L 339.389266 235.29768 
L 341.327534 309.8635 
L 343.330411 309.8635 
L 345.268679 155.208466 
L 347.271555 309.8635 
L 349.274432 308.758821 
L 351.083482 155.208466 
L 353.086359 309.8635 
L 355.024626 309.8635 
L 357.027503 309.8635 
L 358.965771 309.8635 
L 360.968648 309.8635 
L 362.971524 309.8635 
L 364.909792 309.8635 
L 366.912669 309.8635 
L 368.850937 309.8635 
L 370.853813 309.8635 
L 372.85669 309.8635 
L 374.66574 309.8635 
L 376.668617 309.8635 
L 378.606885 309.8635 
L 380.609761 230.878965 
L 382.548029 232.535983 
L 384.550906 232.535983 
L 386.553783 309.8635 
L 388.49205 224.803231 
L 390.494927 309.8635 
L 392.433195 309.8635 
L 394.436072 209.890067 
L 396.438948 309.8635 
L 398.312607 222.593874 
L 400.315484 229.221947 
L 402.253752 309.8635 
L 404.256628 309.8635 
L 406.194896 309.8635 
L 408.197773 309.8635 
L 410.20065 309.8635 
L 412.138917 309.8635 
L 414.141794 309.8635 
L 416.080062 309.8635 
L 418.082939 230.878965 
L 420.085815 231.431304 
L 421.894865 309.8635 
L 423.897742 309.8635 
L 425.83601 309.8635 
L 427.838886 309.8635 
L 429.777154 309.8635 
L 431.780031 309.8635 
L 433.782908 309.8635 
L 435.721175 309.8635 
L 437.724052 309.8635 
L 439.66232 309.8635 
L 441.665197 230.878965 
L 443.668073 233.088323 
L 445.477123 235.29768 
L 447.48 309.8635 
L 447.48 54.682694 
L 447.48 54.682694 
L 445.477123 57.996731 
L 443.668073 76.223931 
L 441.665197 65.177143 
L 439.66232 63.520125 
L 437.724052 66.281822 
L 435.721175 69.595858 
L 433.782908 72.909895 
L 431.780031 77.32861 
L 429.777154 106.050259 
L 427.838886 186.691812 
L 425.83601 190.558188 
L 423.897742 182.825437 
L 421.894865 49.71164 
L 420.085815 43.083567 
L 418.082939 52.473337 
L 416.080062 183.930115 
L 414.141794 186.139473 
L 412.138917 82.852004 
L 410.20065 88.375398 
L 408.197773 87.823059 
L 406.194896 77.880949 
L 404.256628 60.206088 
L 402.253752 57.996731 
L 400.315484 56.892052 
L 398.312607 49.71164 
L 396.438948 40.874209 
L 394.436072 50.816318 
L 392.433195 46.949943 
L 390.494927 61.863107 
L 388.49205 61.863107 
L 386.553783 70.148198 
L 384.550906 74.566913 
L 382.548029 71.805216 
L 380.609761 57.444391 
L 378.606885 67.93884 
L 376.668617 69.043519 
L 374.66574 72.909895 
L 372.85669 55.787373 
L 370.853813 40.874209 
L 368.850937 37.007833 
L 366.912669 55.787373 
L 364.909792 59.10141 
L 362.971524 80.642646 
L 360.968648 174.540345 
L 358.965771 190.005849 
L 357.027503 74.014574 
L 355.024626 97.212829 
L 353.086359 65.729482 
L 351.083482 44.740585 
L 349.274432 47.502282 
L 347.271555 46.949943 
L 345.268679 46.397603 
L 343.330411 52.473337 
L 341.327534 62.967785 
L 339.389266 68.491179 
L 337.38639 64.624804 
L 335.383513 76.776271 
L 333.445245 66.834161 
L 331.442368 57.996731 
L 329.504101 48.054621 
L 327.501224 60.206088 
L 325.692174 60.758428 
L 323.689297 52.473337 
L 321.686421 60.758428 
L 319.748153 47.502282 
L 317.745276 57.996731 
L 315.807008 111.021314 
L 313.804132 72.357555 
L 311.801255 160.179521 
L 309.862987 199.947958 
L 307.86011 132.562551 
L 305.921842 129.800854 
L 303.918966 125.382138 
L 302.045307 126.486817 
L 300.04243 122.620441 
L 298.039553 129.800854 
L 296.101286 133.11489 
L 294.098409 133.667229 
L 292.160141 145.266357 
L 290.157264 143.056999 
L 288.154388 159.627182 
L 286.21612 163.493557 
L 284.213243 162.941218 
L 282.274975 132.010211 
L 280.272099 134.219569 
L 278.463049 124.27746 
L 276.460172 132.010211 
L 274.457295 127.591496 
L 272.519028 126.486817 
L 270.516151 134.771908 
L 268.577883 134.771908 
L 266.575006 141.399981 
L 264.57213 136.981266 
L 262.633862 129.800854 
L 260.630985 128.696175 
L 258.692717 124.829799 
L 256.689841 124.27746 
L 254.880791 128.143835 
L 252.877914 120.963423 
L 250.875037 127.591496 
L 248.93677 127.591496 
L 246.933893 133.667229 
L 244.995625 136.981266 
L 242.992748 135.876587 
L 240.989872 140.295302 
L 239.051604 134.771908 
L 237.048727 125.382138 
L 235.110459 124.27746 
L 233.107583 125.934478 
L 231.298533 122.068102 
L 229.295656 120.963423 
L 227.292779 124.829799 
L 225.354511 123.172781 
L 223.351635 129.248514 
L 221.413367 133.667229 
L 219.41049 133.11489 
L 217.407613 144.161678 
L 215.469346 126.486817 
L 213.466469 125.382138 
L 211.528201 125.382138 
L 209.525324 125.382138 
L 207.651666 122.620441 
L 205.648789 125.934478 
L 203.645912 125.382138 
L 201.707644 125.382138 
L 199.704768 133.11489 
L 197.7665 135.324248 
L 195.763623 134.771908 
L 193.760746 133.11489 
L 191.822479 129.800854 
L 189.819602 127.039157 
L 187.881334 125.382138 
L 185.878457 124.27746 
L 184.069408 122.068102 
L 182.066531 124.27746 
L 180.063654 124.27746 
L 178.125386 125.382138 
L 176.12251 127.591496 
L 174.184242 130.905532 
L 172.181365 133.667229 
L 170.178488 138.638284 
L 168.240221 220.384516 
L 166.237344 130.353193 
L 164.299076 128.143835 
L 162.296199 126.486817 
L 160.487149 128.696175 
L 158.484273 123.172781 
L 156.481396 129.800854 
L 154.543128 128.696175 
L 152.540251 131.457872 
L 150.601984 134.219569 
L 148.599107 136.428926 
L 146.59623 134.219569 
L 144.657962 135.876587 
L 142.655086 128.143835 
L 140.716818 129.800854 
L 138.713941 126.486817 
L 136.904891 125.382138 
L 134.902015 128.696175 
L 132.899138 127.591496 
L 130.96087 129.800854 
L 128.957993 134.219569 
L 127.019726 138.638284 
L 125.016849 135.876587 
L 123.013972 133.11489 
L 121.075704 130.353193 
L 119.072828 131.457872 
L 117.13456 129.800854 
L 115.131683 126.486817 
L 113.258024 124.829799 
L 111.255148 124.27746 
L 109.252271 126.486817 
L 107.314003 124.27746 
L 105.311126 131.457872 
L 103.372859 134.219569 
L 101.369982 134.219569 
L 99.367105 133.667229 
L 97.428837 134.219569 
L 95.425961 127.591496 
L 93.487693 129.248514 
L 91.484816 127.591496 
L 89.675766 126.486817 
L 87.672889 126.486817 
L 85.670013 123.172781 
L 83.731745 125.934478 
L 81.728868 129.800854 
L 79.7906 135.876587 
L 77.787724 133.667229 
L 75.784847 143.609339 
L 73.846579 131.457872 
L 71.843703 126.486817 
L 69.905435 125.382138 
L 67.902558 124.27746 
L 66.093508 125.382138 
L 64.090631 125.382138 
L 62.087755 125.934478 
L 60.149487 127.039157 
L 58.14661 129.248514 
L 56.208342 134.219569 
L 54.205466 134.771908 
L 52.202589 131.457872 
L 50.264321 124.829799 
L 48.261444 124.829799 
L 46.323177 124.829799 
L 44.3203 118.201726 
L 42.51125 117.649387 
z
" style="fill:#808080;fill-opacity:0.3;"/>
   </g>
   <g id="PolyCollection_2">
    <path clip-path="url(#p5a15f261f2)" d="M 42.51125 124.27746 
L 42.51125 128.696175 
L 44.3203 130.905532 
L 46.323177 217.622819 
L 48.261444 138.638284 
L 50.264321 221.62728 
L 52.202589 143.056999 
L 54.205466 155.208466 
L 56.208342 148.028054 
L 58.14661 144.161678 
L 60.149487 139.190623 
L 62.087755 174.540345 
L 64.090631 135.324248 
L 66.093508 188.348831 
L 67.902558 134.219569 
L 69.905435 213.756443 
L 71.843703 207.12837 
L 73.846579 309.8635 
L 75.784847 309.8635 
L 77.787724 309.8635 
L 79.7906 164.045897 
L 81.728868 146.923375 
L 83.731745 144.161678 
L 85.670013 141.952321 
L 87.672889 152.999109 
L 89.675766 141.952321 
L 91.484816 140.433387 
L 93.487693 224.803231 
L 95.425961 227.012589 
L 97.428837 228.669607 
L 99.367105 155.484636 
L 101.369982 149.685072 
L 103.372859 230.326626 
L 105.311126 148.580393 
L 107.314003 145.818696 
L 109.252271 143.056999 
L 111.255148 162.941218 
L 113.258024 153.137193 
L 115.131683 147.475715 
L 117.13456 168.464612 
L 119.072828 146.371036 
L 121.075704 226.46025 
L 123.013972 162.941218 
L 125.016849 150.789751 
L 127.019726 155.208466 
L 128.957993 146.923375 
L 130.96087 144.161678 
L 132.899138 141.952321 
L 134.902015 145.266357 
L 136.904891 144.161678 
L 138.713941 139.742963 
L 140.716818 223.698553 
L 142.655086 144.299763 
L 144.657962 247.449147 
L 146.59623 158.522503 
L 148.599107 152.999109 
L 150.601984 146.371036 
L 152.540251 145.818696 
L 154.543128 141.399981 
L 156.481396 138.085945 
L 158.484273 136.981266 
L 160.487149 156.313145 
L 162.296199 161.422285 
L 164.299076 148.580393 
L 166.237344 309.8635 
L 168.240221 309.8635 
L 170.178488 309.8635 
L 172.181365 155.208466 
L 174.184242 149.823157 
L 176.12251 144.161678 
L 178.125386 147.613799 
L 180.063654 150.789751 
L 182.066531 147.475715 
L 184.069408 148.580393 
L 185.878457 140.295302 
L 187.881334 224.388977 
L 189.819602 165.150576 
L 191.822479 232.535983 
L 193.760746 162.941218 
L 195.763623 183.930115 
L 197.7665 166.255254 
L 199.704768 231.431304 
L 201.707644 225.90791 
L 203.645912 138.085945 
L 205.648789 157.555909 
L 207.651666 138.085945 
L 209.525324 136.428926 
L 211.528201 221.489195 
L 213.466469 134.771908 
L 215.469346 227.703013 
L 217.407613 309.8635 
L 219.41049 187.244152 
L 221.413367 148.580393 
L 223.351635 147.475715 
L 225.354511 139.190623 
L 227.292779 138.085945 
L 229.295656 138.085945 
L 231.298533 162.941218 
L 233.107583 155.208466 
L 235.110459 159.765266 
L 237.048727 224.250892 
L 239.051604 309.8635 
L 240.989872 309.8635 
L 242.992748 168.464612 
L 244.995625 153.551448 
L 246.933893 150.789751 
L 248.93677 142.50466 
L 250.875037 171.778648 
L 252.877914 227.564928 
L 254.880791 169.707376 
L 256.689841 157.555909 
L 258.692717 171.916733 
L 260.630985 167.359933 
L 262.633862 172.883327 
L 264.57213 309.8635 
L 266.575006 196.081582 
L 268.577883 181.720758 
L 270.516151 160.73186 
L 272.519028 187.244152 
L 274.457295 178.406721 
L 276.460172 181.720758 
L 278.463049 181.720758 
L 280.272099 181.720758 
L 282.274975 181.720758 
L 284.213243 308.758821 
L 286.21612 309.8635 
L 288.154388 309.8635 
L 290.157264 309.8635 
L 292.160141 309.8635 
L 294.098409 264.709754 
L 296.101286 199.395619 
L 298.039553 196.081582 
L 300.04243 193.872225 
L 302.045307 190.558188 
L 303.918966 190.558188 
L 305.921842 191.662867 
L 307.86011 283.075039 
L 309.862987 309.8635 
L 311.801255 309.8635 
L 313.804132 309.8635 
L 315.807008 309.8635 
L 317.745276 183.515861 
L 319.748153 119.44449 
L 321.686421 139.742963 
L 323.689297 137.533605 
L 325.692174 133.11489 
L 327.501224 143.609339 
L 329.504101 137.533605 
L 331.442368 222.041534 
L 333.445245 309.8635 
L 335.383513 309.8635 
L 337.38639 229.912371 
L 339.389266 208.785389 
L 341.327534 155.760806 
L 343.330411 151.89443 
L 345.268679 141.952321 
L 347.271555 137.533605 
L 349.274432 137.533605 
L 351.083482 139.328708 
L 353.086359 222.593874 
L 355.024626 226.46025 
L 357.027503 227.012589 
L 358.965771 231.431304 
L 360.968648 230.878965 
L 362.971524 226.46025 
L 364.909792 148.580393 
L 366.912669 203.952419 
L 368.850937 205.609437 
L 370.853813 250.348929 
L 372.85669 218.175159 
L 374.66574 305.720954 
L 376.668617 298.264372 
L 378.606885 308.206482 
L 380.609761 198.429025 
L 382.548029 142.090405 
L 384.550906 200.086043 
L 386.553783 172.330988 
L 388.49205 128.696175 
L 390.494927 210.994746 
L 392.433195 144.161678 
L 394.436072 129.800854 
L 396.438948 148.028054 
L 398.312607 143.056999 
L 400.315484 153.689533 
L 402.253752 309.8635 
L 404.256628 309.8635 
L 406.194896 309.8635 
L 408.197773 309.8635 
L 410.20065 301.02607 
L 412.138917 225.355571 
L 414.141794 232.535983 
L 416.080062 228.669607 
L 418.082939 219.279837 
L 420.085815 210.442407 
L 421.894865 226.46025 
L 423.897742 229.774286 
L 425.83601 309.8635 
L 427.838886 309.8635 
L 429.777154 309.8635 
L 431.780031 226.045995 
L 433.782908 189.453509 
L 435.721175 268.714214 
L 437.724052 196.357752 
L 439.66232 232.535983 
L 441.665197 150.099327 
L 443.668073 227.564928 
L 445.477123 230.878965 
L 447.48 235.85002 
L 447.48 183.377776 
L 447.48 183.377776 
L 445.477123 198.152855 
L 443.668073 210.442407 
L 441.665197 82.852004 
L 439.66232 113.783011 
L 437.724052 103.840901 
L 435.721175 123.034696 
L 433.782908 94.865386 
L 431.780031 100.38878 
L 429.777154 222.593874 
L 427.838886 229.774286 
L 425.83601 228.669607 
L 423.897742 225.355571 
L 421.894865 215.827716 
L 420.085815 99.284101 
L 418.082939 98.869847 
L 416.080062 220.936856 
L 414.141794 225.355571 
L 412.138917 108.673871 
L 410.20065 115.163859 
L 408.197773 186.553728 
L 406.194896 119.858744 
L 404.256628 139.604878 
L 402.253752 146.371036 
L 400.315484 118.754065 
L 398.312607 91.137095 
L 396.438948 87.823059 
L 394.436072 102.045798 
L 392.433195 109.226211 
L 390.494927 183.930115 
L 388.49205 88.375398 
L 386.553783 111.987908 
L 384.550906 132.562551 
L 382.548029 107.569192 
L 380.609761 111.021314 
L 378.606885 181.168418 
L 376.668617 189.315425 
L 374.66574 185.449049 
L 372.85669 103.288562 
L 370.853813 99.422186 
L 368.850937 90.860925 
L 366.912669 106.050259 
L 364.909792 75.671592 
L 362.971524 128.005751 
L 360.968648 215.965801 
L 358.965771 227.012589 
L 357.027503 149.685072 
L 355.024626 142.50466 
L 353.086359 137.533605 
L 351.083482 95.003471 
L 349.274432 101.631544 
L 347.271555 98.179423 
L 345.268679 113.092587 
L 343.330411 116.544708 
L 341.327534 111.021314 
L 339.389266 118.754065 
L 337.38639 123.72512 
L 335.383513 149.685072 
L 333.445245 144.023593 
L 331.442368 129.248514 
L 329.504101 96.10815 
L 327.501224 129.248514 
L 325.692174 127.039157 
L 323.689297 121.515762 
L 321.686421 115.992368 
L 319.748153 70.010113 
L 317.745276 91.689435 
L 315.807008 152.999109 
L 313.804132 156.313145 
L 311.801255 254.491475 
L 309.862987 253.524881 
L 307.86011 196.081582 
L 305.921842 185.034794 
L 303.918966 169.983545 
L 302.045307 168.464612 
L 300.04243 164.045897 
L 298.039553 170.12163 
L 296.101286 173.988006 
L 294.098409 178.406721 
L 292.160141 200.500298 
L 290.157264 201.604976 
L 288.154388 243.582771 
L 286.21612 244.135111 
L 284.213243 181.720758 
L 282.274975 180.616079 
L 280.272099 180.616079 
L 278.463049 180.616079 
L 276.460172 167.359933 
L 274.457295 166.255254 
L 272.519028 139.190623 
L 270.516151 141.399981 
L 268.577883 146.923375 
L 266.575006 172.883327 
L 264.57213 256.010408 
L 262.633862 142.50466 
L 260.630985 143.609339 
L 258.692717 138.085945 
L 256.689841 133.11489 
L 254.880791 146.371036 
L 252.877914 155.208466 
L 250.875037 135.324248 
L 248.93677 134.771908 
L 246.933893 141.399981 
L 244.995625 143.609339 
L 242.992748 146.923375 
L 240.989872 180.477994 
L 239.051604 228.117268 
L 237.048727 140.295302 
L 235.110459 132.976805 
L 233.107583 133.667229 
L 231.298533 139.742963 
L 229.295656 124.27746 
L 227.292779 130.353193 
L 225.354511 130.353193 
L 223.351635 138.638284 
L 221.413367 141.399981 
L 219.41049 146.371036 
L 217.407613 187.244152 
L 215.469346 135.324248 
L 213.466469 130.353193 
L 211.528201 130.767448 
L 209.525324 130.767448 
L 207.651666 128.696175 
L 205.648789 131.872126 
L 203.645912 128.696175 
L 201.707644 136.428926 
L 199.704768 143.056999 
L 197.7665 141.952321 
L 195.763623 145.266357 
L 193.760746 141.261896 
L 191.822479 168.464612 
L 189.819602 139.742963 
L 187.881334 143.056999 
L 185.878457 129.800854 
L 184.069408 129.800854 
L 182.066531 129.800854 
L 180.063654 132.010211 
L 178.125386 135.324248 
L 176.12251 136.428926 
L 174.184242 139.190623 
L 172.181365 143.609339 
L 170.178488 161.836539 
L 168.240221 309.8635 
L 166.237344 227.012589 
L 164.299076 135.738502 
L 162.296199 137.94786 
L 160.487149 135.876587 
L 158.484273 128.696175 
L 156.481396 132.010211 
L 154.543128 136.428926 
L 152.540251 136.981266 
L 150.601984 141.399981 
L 148.599107 143.056999 
L 146.59623 140.295302 
L 144.657962 225.90791 
L 142.655086 135.324248 
L 140.716818 135.876587 
L 138.713941 132.010211 
L 136.904891 132.562551 
L 134.902015 133.11489 
L 132.899138 132.562551 
L 130.96087 136.981266 
L 128.957993 140.295302 
L 127.019726 146.371036 
L 125.016849 144.161678 
L 123.013972 141.399981 
L 121.075704 140.295302 
L 119.072828 136.428926 
L 117.13456 136.428926 
L 115.131683 133.11489 
L 113.258024 132.976805 
L 111.255148 132.562551 
L 109.252271 131.457872 
L 107.314003 135.876587 
L 105.311126 139.190623 
L 103.372859 223.146213 
L 101.369982 141.399981 
L 99.367105 139.742963 
L 97.428837 149.685072 
L 95.425961 136.428926 
L 93.487693 137.533605 
L 91.484816 131.457872 
L 89.675766 130.905532 
L 87.672889 132.562551 
L 85.670013 133.11489 
L 83.731745 134.771908 
L 81.728868 139.190623 
L 79.7906 143.056999 
L 77.787724 236.954698 
L 75.784847 309.8635 
L 73.846579 223.698553 
L 71.843703 136.428926 
L 69.905435 129.800854 
L 67.902558 127.591496 
L 66.093508 132.010211 
L 64.090631 128.143835 
L 62.087755 133.11489 
L 60.149487 133.667229 
L 58.14661 137.39552 
L 56.208342 141.399981 
L 54.205466 141.399981 
L 52.202589 135.876587 
L 50.264321 133.667229 
L 48.261444 130.353193 
L 46.323177 129.800854 
L 44.3203 125.382138 
L 42.51125 124.27746 
z
" style="fill:#808080;fill-opacity:0.6;"/>
   </g>
   <g id="matplotlib.axis_1">
    <g id="xtick_1">
     <g id="line2d_1">
      <path clip-path="url(#p5a15f261f2)" d="M 87.737498 309.8635 
L 87.737498 23.36505 
" style="fill:none;stroke:#b0b0b0;stroke-linecap:square;stroke-width:0.8;"/>
     </g>
     <g id="line2d_2">
      <defs>
       <path d="M 0 0 
L 0 3.5 
" id="m2fdae6ba1b" style="stroke:#000000;stroke-width:0.8;"/>
      </defs>
      <g>
       <use style="stroke:#000000;stroke-width:0.8;" x="87.737498" xlink:href="#m2fdae6ba1b" y="309.8635"/>
      </g>
     </g>
     <g id="text_1">
      <!-- 2003 -->
      <defs>
       <path d="M 19.1875 8.296875 
L 53.609375 8.296875 
L 53.609375 0 
L 7.328125 0 
L 7.328125 8.296875 
Q 12.9375 14.109375 22.625 23.890625 
Q 32.328125 33.6875 34.8125 36.53125 
Q 39.546875 41.84375 41.421875 45.53125 
Q 43.3125 49.21875 43.3125 52.78125 
Q 43.3125 58.59375 39.234375 62.25 
Q 35.15625 65.921875 28.609375 65.921875 
Q 23.96875 65.921875 18.8125 64.3125 
Q 13.671875 62.703125 7.8125 59.421875 
L 7.8125 69.390625 
Q 13.765625 71.78125 18.9375 73 
Q 24.125 74.21875 28.421875 74.21875 
Q 39.75 74.21875 46.484375 68.546875 
Q 53.21875 62.890625 53.21875 53.421875 
Q 53.21875 48.921875 51.53125 44.890625 
Q 49.859375 40.875 45.40625 35.40625 
Q 44.1875 33.984375 37.640625 27.21875 
Q 31.109375 20.453125 19.1875 8.296875 
z
" id="DejaVuSans-32"/>
       <path d="M 31.78125 66.40625 
Q 24.171875 66.40625 20.328125 58.90625 
Q 16.5 51.421875 16.5 36.375 
Q 16.5 21.390625 20.328125 13.890625 
Q 24.171875 6.390625 31.78125 6.390625 
Q 39.453125 6.390625 43.28125 13.890625 
Q 47.125 21.390625 47.125 36.375 
Q 47.125 51.421875 43.28125 58.90625 
Q 39.453125 66.40625 31.78125 66.40625 
z
M 31.78125 74.21875 
Q 44.046875 74.21875 50.515625 64.515625 
Q 56.984375 54.828125 56.984375 36.375 
Q 56.984375 17.96875 50.515625 8.265625 
Q 44.046875 -1.421875 31.78125 -1.421875 
Q 19.53125 -1.421875 13.0625 8.265625 
Q 6.59375 17.96875 6.59375 36.375 
Q 6.59375 54.828125 13.0625 64.515625 
Q 19.53125 74.21875 31.78125 74.21875 
z
" id="DejaVuSans-30"/>
       <path d="M 40.578125 39.3125 
Q 47.65625 37.796875 51.625 33 
Q 55.609375 28.21875 55.609375 21.1875 
Q 55.609375 10.40625 48.1875 4.484375 
Q 40.765625 -1.421875 27.09375 -1.421875 
Q 22.515625 -1.421875 17.65625 -0.515625 
Q 12.796875 0.390625 7.625 2.203125 
L 7.625 11.71875 
Q 11.71875 9.328125 16.59375 8.109375 
Q 21.484375 6.890625 26.8125 6.890625 
Q 36.078125 6.890625 40.9375 10.546875 
Q 45.796875 14.203125 45.796875 21.1875 
Q 45.796875 27.640625 41.28125 31.265625 
Q 36.765625 34.90625 28.71875 34.90625 
L 20.21875 34.90625 
L 20.21875 43.015625 
L 29.109375 43.015625 
Q 36.375 43.015625 40.234375 45.921875 
Q 44.09375 48.828125 44.09375 54.296875 
Q 44.09375 59.90625 40.109375 62.90625 
Q 36.140625 65.921875 28.71875 65.921875 
Q 24.65625 65.921875 20.015625 65.03125 
Q 15.375 64.15625 9.8125 62.3125 
L 9.8125 71.09375 
Q 15.4375 72.65625 20.34375 73.4375 
Q 25.25 74.21875 29.59375 74.21875 
Q 40.828125 74.21875 47.359375 69.109375 
Q 53.90625 64.015625 53.90625 55.328125 
Q 53.90625 49.265625 50.4375 45.09375 
Q 46.96875 40.921875 40.578125 39.3125 
z
" id="DejaVuSans-33"/>
      </defs>
      <g transform="translate(75.012498 324.461937)scale(0.1 -0.1)">
       <use xlink:href="#DejaVuSans-32"/>
       <use x="63.623047" xlink:href="#DejaVuSans-30"/>
       <use x="127.246094" xlink:href="#DejaVuSans-30"/>
       <use x="190.869141" xlink:href="#DejaVuSans-33"/>
      </g>
     </g>
    </g>
    <g id="xtick_2">
     <g id="line2d_3">
      <path clip-path="url(#p5a15f261f2)" d="M 134.966624 309.8635 
L 134.966624 23.36505 
" style="fill:none;stroke:#b0b0b0;stroke-linecap:square;stroke-width:0.8;"/>
     </g>
     <g id="line2d_4">
      <g>
       <use style="stroke:#000000;stroke-width:0.8;" x="134.966624" xlink:href="#m2fdae6ba1b" y="309.8635"/>
      </g>
     </g>
     <g id="text_2">
      <!-- 2005 -->
      <defs>
       <path d="M 10.796875 72.90625 
L 49.515625 72.90625 
L 49.515625 64.59375 
L 19.828125 64.59375 
L 19.828125 46.734375 
Q 21.96875 47.46875 24.109375 47.828125 
Q 26.265625 48.1875 28.421875 48.1875 
Q 40.625 48.1875 47.75 41.5 
Q 54.890625 34.8125 54.890625 23.390625 
Q 54.890625 11.625 47.5625 5.09375 
Q 40.234375 -1.421875 26.90625 -1.421875 
Q 22.3125 -1.421875 17.546875 -0.640625 
Q 12.796875 0.140625 7.71875 1.703125 
L 7.71875 11.625 
Q 12.109375 9.234375 16.796875 8.0625 
Q 21.484375 6.890625 26.703125 6.890625 
Q 35.15625 6.890625 40.078125 11.328125 
Q 45.015625 15.765625 45.015625 23.390625 
Q 45.015625 31 40.078125 35.4375 
Q 35.15625 39.890625 26.703125 39.890625 
Q 22.75 39.890625 18.8125 39.015625 
Q 14.890625 38.140625 10.796875 36.28125 
z
" id="DejaVuSans-35"/>
      </defs>
      <g transform="translate(122.241624 324.461937)scale(0.1 -0.1)">
       <use xlink:href="#DejaVuSans-32"/>
       <use x="63.623047" xlink:href="#DejaVuSans-30"/>
       <use x="127.246094" xlink:href="#DejaVuSans-30"/>
       <use x="190.869141" xlink:href="#DejaVuSans-35"/>
      </g>
     </g>
    </g>
    <g id="xtick_3">
     <g id="line2d_5">
      <path clip-path="url(#p5a15f261f2)" d="M 182.13114 309.8635 
L 182.13114 23.36505 
" style="fill:none;stroke:#b0b0b0;stroke-linecap:square;stroke-width:0.8;"/>
     </g>
     <g id="line2d_6">
      <g>
       <use style="stroke:#000000;stroke-width:0.8;" x="182.13114" xlink:href="#m2fdae6ba1b" y="309.8635"/>
      </g>
     </g>
     <g id="text_3">
      <!-- 2007 -->
      <defs>
       <path d="M 8.203125 72.90625 
L 55.078125 72.90625 
L 55.078125 68.703125 
L 28.609375 0 
L 18.3125 0 
L 43.21875 64.59375 
L 8.203125 64.59375 
z
" id="DejaVuSans-37"/>
      </defs>
      <g transform="translate(169.40614 324.461937)scale(0.1 -0.1)">
       <use xlink:href="#DejaVuSans-32"/>
       <use x="63.623047" xlink:href="#DejaVuSans-30"/>
       <use x="127.246094" xlink:href="#DejaVuSans-30"/>
       <use x="190.869141" xlink:href="#DejaVuSans-37"/>
      </g>
     </g>
    </g>
    <g id="xtick_4">
     <g id="line2d_7">
      <path clip-path="url(#p5a15f261f2)" d="M 229.360265 309.8635 
L 229.360265 23.36505 
" style="fill:none;stroke:#b0b0b0;stroke-linecap:square;stroke-width:0.8;"/>
     </g>
     <g id="line2d_8">
      <g>
       <use style="stroke:#000000;stroke-width:0.8;" x="229.360265" xlink:href="#m2fdae6ba1b" y="309.8635"/>
      </g>
     </g>
     <g id="text_4">
      <!-- 2009 -->
      <defs>
       <path d="M 10.984375 1.515625 
L 10.984375 10.5 
Q 14.703125 8.734375 18.5 7.8125 
Q 22.3125 6.890625 25.984375 6.890625 
Q 35.75 6.890625 40.890625 13.453125 
Q 46.046875 20.015625 46.78125 33.40625 
Q 43.953125 29.203125 39.59375 26.953125 
Q 35.25 24.703125 29.984375 24.703125 
Q 19.046875 24.703125 12.671875 31.3125 
Q 6.296875 37.9375 6.296875 49.421875 
Q 6.296875 60.640625 12.9375 67.421875 
Q 19.578125 74.21875 30.609375 74.21875 
Q 43.265625 74.21875 49.921875 64.515625 
Q 56.59375 54.828125 56.59375 36.375 
Q 56.59375 19.140625 48.40625 8.859375 
Q 40.234375 -1.421875 26.421875 -1.421875 
Q 22.703125 -1.421875 18.890625 -0.6875 
Q 15.09375 0.046875 10.984375 1.515625 
z
M 30.609375 32.421875 
Q 37.25 32.421875 41.125 36.953125 
Q 45.015625 41.5 45.015625 49.421875 
Q 45.015625 57.28125 41.125 61.84375 
Q 37.25 66.40625 30.609375 66.40625 
Q 23.96875 66.40625 20.09375 61.84375 
Q 16.21875 57.28125 16.21875 49.421875 
Q 16.21875 41.5 20.09375 36.953125 
Q 23.96875 32.421875 30.609375 32.421875 
z
" id="DejaVuSans-39"/>
      </defs>
      <g transform="translate(216.635265 324.461937)scale(0.1 -0.1)">
       <use xlink:href="#DejaVuSans-32"/>
       <use x="63.623047" xlink:href="#DejaVuSans-30"/>
       <use x="127.246094" xlink:href="#DejaVuSans-30"/>
       <use x="190.869141" xlink:href="#DejaVuSans-39"/>
      </g>
     </g>
    </g>
    <g id="xtick_5">
     <g id="line2d_9">
      <path clip-path="url(#p5a15f261f2)" d="M 276.524781 309.8635 
L 276.524781 23.36505 
" style="fill:none;stroke:#b0b0b0;stroke-linecap:square;stroke-width:0.8;"/>
     </g>
     <g id="line2d_10">
      <g>
       <use style="stroke:#000000;stroke-width:0.8;" x="276.524781" xlink:href="#m2fdae6ba1b" y="309.8635"/>
      </g>
     </g>
     <g id="text_5">
      <!-- 2011 -->
      <defs>
       <path d="M 12.40625 8.296875 
L 28.515625 8.296875 
L 28.515625 63.921875 
L 10.984375 60.40625 
L 10.984375 69.390625 
L 28.421875 72.90625 
L 38.28125 72.90625 
L 38.28125 8.296875 
L 54.390625 8.296875 
L 54.390625 0 
L 12.40625 0 
z
" id="DejaVuSans-31"/>
      </defs>
      <g transform="translate(263.799781 324.461937)scale(0.1 -0.1)">
       <use xlink:href="#DejaVuSans-32"/>
       <use x="63.623047" xlink:href="#DejaVuSans-30"/>
       <use x="127.246094" xlink:href="#DejaVuSans-31"/>
       <use x="190.869141" xlink:href="#DejaVuSans-31"/>
      </g>
     </g>
    </g>
    <g id="xtick_6">
     <g id="line2d_11">
      <path clip-path="url(#p5a15f261f2)" d="M 323.753906 309.8635 
L 323.753906 23.36505 
" style="fill:none;stroke:#b0b0b0;stroke-linecap:square;stroke-width:0.8;"/>
     </g>
     <g id="line2d_12">
      <g>
       <use style="stroke:#000000;stroke-width:0.8;" x="323.753906" xlink:href="#m2fdae6ba1b" y="309.8635"/>
      </g>
     </g>
     <g id="text_6">
      <!-- 2013 -->
      <g transform="translate(311.028906 324.461937)scale(0.1 -0.1)">
       <use xlink:href="#DejaVuSans-32"/>
       <use x="63.623047" xlink:href="#DejaVuSans-30"/>
       <use x="127.246094" xlink:href="#DejaVuSans-31"/>
       <use x="190.869141" xlink:href="#DejaVuSans-33"/>
      </g>
     </g>
    </g>
    <g id="xtick_7">
     <g id="line2d_13">
      <path clip-path="url(#p5a15f261f2)" d="M 370.918422 309.8635 
L 370.918422 23.36505 
" style="fill:none;stroke:#b0b0b0;stroke-linecap:square;stroke-width:0.8;"/>
     </g>
     <g id="line2d_14">
      <g>
       <use style="stroke:#000000;stroke-width:0.8;" x="370.918422" xlink:href="#m2fdae6ba1b" y="309.8635"/>
      </g>
     </g>
     <g id="text_7">
      <!-- 2015 -->
      <g transform="translate(358.193422 324.461937)scale(0.1 -0.1)">
       <use xlink:href="#DejaVuSans-32"/>
       <use x="63.623047" xlink:href="#DejaVuSans-30"/>
       <use x="127.246094" xlink:href="#DejaVuSans-31"/>
       <use x="190.869141" xlink:href="#DejaVuSans-35"/>
      </g>
     </g>
    </g>
    <g id="xtick_8">
     <g id="line2d_15">
      <path clip-path="url(#p5a15f261f2)" d="M 418.147547 309.8635 
L 418.147547 23.36505 
" style="fill:none;stroke:#b0b0b0;stroke-linecap:square;stroke-width:0.8;"/>
     </g>
     <g id="line2d_16">
      <g>
       <use style="stroke:#000000;stroke-width:0.8;" x="418.147547" xlink:href="#m2fdae6ba1b" y="309.8635"/>
      </g>
     </g>
     <g id="text_8">
      <!-- 2017 -->
      <g transform="translate(405.422547 324.461937)scale(0.1 -0.1)">
       <use xlink:href="#DejaVuSans-32"/>
       <use x="63.623047" xlink:href="#DejaVuSans-30"/>
       <use x="127.246094" xlink:href="#DejaVuSans-31"/>
       <use x="190.869141" xlink:href="#DejaVuSans-37"/>
      </g>
     </g>
    </g>
    <g id="text_9">
     <!-- Date -->
     <defs>
      <path d="M 19.671875 64.796875 
L 19.671875 8.109375 
L 31.59375 8.109375 
Q 46.6875 8.109375 53.6875 14.9375 
Q 60.6875 21.78125 60.6875 36.53125 
Q 60.6875 51.171875 53.6875 57.984375 
Q 46.6875 64.796875 31.59375 64.796875 
z
M 9.8125 72.90625 
L 30.078125 72.90625 
Q 51.265625 72.90625 61.171875 64.09375 
Q 71.09375 55.28125 71.09375 36.53125 
Q 71.09375 17.671875 61.125 8.828125 
Q 51.171875 0 30.078125 0 
L 9.8125 0 
z
" id="DejaVuSans-44"/>
      <path d="M 34.28125 27.484375 
Q 23.390625 27.484375 19.1875 25 
Q 14.984375 22.515625 14.984375 16.5 
Q 14.984375 11.71875 18.140625 8.90625 
Q 21.296875 6.109375 26.703125 6.109375 
Q 34.1875 6.109375 38.703125 11.40625 
Q 43.21875 16.703125 43.21875 25.484375 
L 43.21875 27.484375 
z
M 52.203125 31.203125 
L 52.203125 0 
L 43.21875 0 
L 43.21875 8.296875 
Q 40.140625 3.328125 35.546875 0.953125 
Q 30.953125 -1.421875 24.3125 -1.421875 
Q 15.921875 -1.421875 10.953125 3.296875 
Q 6 8.015625 6 15.921875 
Q 6 25.140625 12.171875 29.828125 
Q 18.359375 34.515625 30.609375 34.515625 
L 43.21875 34.515625 
L 43.21875 35.40625 
Q 43.21875 41.609375 39.140625 45 
Q 35.0625 48.390625 27.6875 48.390625 
Q 23 48.390625 18.546875 47.265625 
Q 14.109375 46.140625 10.015625 43.890625 
L 10.015625 52.203125 
Q 14.9375 54.109375 19.578125 55.046875 
Q 24.21875 56 28.609375 56 
Q 40.484375 56 46.34375 49.84375 
Q 52.203125 43.703125 52.203125 31.203125 
z
" id="DejaVuSans-61"/>
      <path d="M 18.3125 70.21875 
L 18.3125 54.6875 
L 36.8125 54.6875 
L 36.8125 47.703125 
L 18.3125 47.703125 
L 18.3125 18.015625 
Q 18.3125 11.328125 20.140625 9.421875 
Q 21.96875 7.515625 27.59375 7.515625 
L 36.8125 7.515625 
L 36.8125 0 
L 27.59375 0 
Q 17.1875 0 13.234375 3.875 
Q 9.28125 7.765625 9.28125 18.015625 
L 9.28125 47.703125 
L 2.6875 47.703125 
L 2.6875 54.6875 
L 9.28125 54.6875 
L 9.28125 70.21875 
z
" id="DejaVuSans-74"/>
      <path d="M 56.203125 29.59375 
L 56.203125 25.203125 
L 14.890625 25.203125 
Q 15.484375 15.921875 20.484375 11.0625 
Q 25.484375 6.203125 34.421875 6.203125 
Q 39.59375 6.203125 44.453125 7.46875 
Q 49.3125 8.734375 54.109375 11.28125 
L 54.109375 2.78125 
Q 49.265625 0.734375 44.1875 -0.34375 
Q 39.109375 -1.421875 33.890625 -1.421875 
Q 20.796875 -1.421875 13.15625 6.1875 
Q 5.515625 13.8125 5.515625 26.8125 
Q 5.515625 40.234375 12.765625 48.109375 
Q 20.015625 56 32.328125 56 
Q 43.359375 56 49.78125 48.890625 
Q 56.203125 41.796875 56.203125 29.59375 
z
M 47.21875 32.234375 
Q 47.125 39.59375 43.09375 43.984375 
Q 39.0625 48.390625 32.421875 48.390625 
Q 24.90625 48.390625 20.390625 44.140625 
Q 15.875 39.890625 15.1875 32.171875 
z
" id="DejaVuSans-65"/>
     </defs>
     <g transform="translate(233.044844 338.140062)scale(0.1 -0.1)">
      <use xlink:href="#DejaVuSans-44"/>
      <use x="77.001953" xlink:href="#DejaVuSans-61"/>
      <use x="138.28125" xlink:href="#DejaVuSans-74"/>
      <use x="177.490234" xlink:href="#DejaVuSans-65"/>
     </g>
    </g>
   </g>
   <g id="matplotlib.axis_2">
    <g id="ytick_1">
     <g id="line2d_17">
      <path clip-path="url(#p5a15f261f2)" d="M 42.51125 309.8635 
L 447.48 309.8635 
" style="fill:none;stroke:#b0b0b0;stroke-linecap:square;stroke-width:0.8;"/>
     </g>
     <g id="line2d_18">
      <defs>
       <path d="M 0 0 
L -3.5 0 
" id="m18e9590afd" style="stroke:#000000;stroke-width:0.8;"/>
      </defs>
      <g>
       <use style="stroke:#000000;stroke-width:0.8;" x="42.51125" xlink:href="#m18e9590afd" y="309.8635"/>
      </g>
     </g>
     <g id="text_10">
      <!-- 0 -->
      <g transform="translate(29.14875 313.662719)scale(0.1 -0.1)">
       <use xlink:href="#DejaVuSans-30"/>
      </g>
     </g>
    </g>
    <g id="ytick_2">
     <g id="line2d_19">
      <path clip-path="url(#p5a15f261f2)" d="M 42.51125 254.629559 
L 447.48 254.629559 
" style="fill:none;stroke:#b0b0b0;stroke-linecap:square;stroke-width:0.8;"/>
     </g>
     <g id="line2d_20">
      <g>
       <use style="stroke:#000000;stroke-width:0.8;" x="42.51125" xlink:href="#m18e9590afd" y="254.629559"/>
      </g>
     </g>
     <g id="text_11">
      <!-- 100 -->
      <g transform="translate(16.42375 258.428778)scale(0.1 -0.1)">
       <use xlink:href="#DejaVuSans-31"/>
       <use x="63.623047" xlink:href="#DejaVuSans-30"/>
       <use x="127.246094" xlink:href="#DejaVuSans-30"/>
      </g>
     </g>
    </g>
    <g id="ytick_3">
     <g id="line2d_21">
      <path clip-path="url(#p5a15f261f2)" d="M 42.51125 199.395619 
L 447.48 199.395619 
" style="fill:none;stroke:#b0b0b0;stroke-linecap:square;stroke-width:0.8;"/>
     </g>
     <g id="line2d_22">
      <g>
       <use style="stroke:#000000;stroke-width:0.8;" x="42.51125" xlink:href="#m18e9590afd" y="199.395619"/>
      </g>
     </g>
     <g id="text_12">
      <!-- 200 -->
      <g transform="translate(16.42375 203.194838)scale(0.1 -0.1)">
       <use xlink:href="#DejaVuSans-32"/>
       <use x="63.623047" xlink:href="#DejaVuSans-30"/>
       <use x="127.246094" xlink:href="#DejaVuSans-30"/>
      </g>
     </g>
    </g>
    <g id="ytick_4">
     <g id="line2d_23">
      <path clip-path="url(#p5a15f261f2)" d="M 42.51125 144.161678 
L 447.48 144.161678 
" style="fill:none;stroke:#b0b0b0;stroke-linecap:square;stroke-width:0.8;"/>
     </g>
     <g id="line2d_24">
      <g>
       <use style="stroke:#000000;stroke-width:0.8;" x="42.51125" xlink:href="#m18e9590afd" y="144.161678"/>
      </g>
     </g>
     <g id="text_13">
      <!-- 300 -->
      <g transform="translate(16.42375 147.960897)scale(0.1 -0.1)">
       <use xlink:href="#DejaVuSans-33"/>
       <use x="63.623047" xlink:href="#DejaVuSans-30"/>
       <use x="127.246094" xlink:href="#DejaVuSans-30"/>
      </g>
     </g>
    </g>
    <g id="ytick_5">
     <g id="line2d_25">
      <path clip-path="url(#p5a15f261f2)" d="M 42.51125 88.927738 
L 447.48 88.927738 
" style="fill:none;stroke:#b0b0b0;stroke-linecap:square;stroke-width:0.8;"/>
     </g>
     <g id="line2d_26">
      <g>
       <use style="stroke:#000000;stroke-width:0.8;" x="42.51125" xlink:href="#m18e9590afd" y="88.927738"/>
      </g>
     </g>
     <g id="text_14">
      <!-- 400 -->
      <defs>
       <path d="M 37.796875 64.3125 
L 12.890625 25.390625 
L 37.796875 25.390625 
z
M 35.203125 72.90625 
L 47.609375 72.90625 
L 47.609375 25.390625 
L 58.015625 25.390625 
L 58.015625 17.1875 
L 47.609375 17.1875 
L 47.609375 0 
L 37.796875 0 
L 37.796875 17.1875 
L 4.890625 17.1875 
L 4.890625 26.703125 
z
" id="DejaVuSans-34"/>
      </defs>
      <g transform="translate(16.42375 92.726956)scale(0.1 -0.1)">
       <use xlink:href="#DejaVuSans-34"/>
       <use x="63.623047" xlink:href="#DejaVuSans-30"/>
       <use x="127.246094" xlink:href="#DejaVuSans-30"/>
      </g>
     </g>
    </g>
    <g id="ytick_6">
     <g id="line2d_27">
      <path clip-path="url(#p5a15f261f2)" d="M 42.51125 33.693797 
L 447.48 33.693797 
" style="fill:none;stroke:#b0b0b0;stroke-linecap:square;stroke-width:0.8;"/>
     </g>
     <g id="line2d_28">
      <g>
       <use style="stroke:#000000;stroke-width:0.8;" x="42.51125" xlink:href="#m18e9590afd" y="33.693797"/>
      </g>
     </g>
     <g id="text_15">
      <!-- 500 -->
      <g transform="translate(16.42375 37.493016)scale(0.1 -0.1)">
       <use xlink:href="#DejaVuSans-35"/>
       <use x="63.623047" xlink:href="#DejaVuSans-30"/>
       <use x="127.246094" xlink:href="#DejaVuSans-30"/>
      </g>
     </g>
    </g>
    <g id="text_16">
     <!-- Gross load (MW) -->
     <defs>
      <path d="M 59.515625 10.40625 
L 59.515625 29.984375 
L 43.40625 29.984375 
L 43.40625 38.09375 
L 69.28125 38.09375 
L 69.28125 6.78125 
Q 63.578125 2.734375 56.6875 0.65625 
Q 49.8125 -1.421875 42 -1.421875 
Q 24.90625 -1.421875 15.25 8.5625 
Q 5.609375 18.5625 5.609375 36.375 
Q 5.609375 54.25 15.25 64.234375 
Q 24.90625 74.21875 42 74.21875 
Q 49.125 74.21875 55.546875 72.453125 
Q 61.96875 70.703125 67.390625 67.28125 
L 67.390625 56.78125 
Q 61.921875 61.421875 55.765625 63.765625 
Q 49.609375 66.109375 42.828125 66.109375 
Q 29.4375 66.109375 22.71875 58.640625 
Q 16.015625 51.171875 16.015625 36.375 
Q 16.015625 21.625 22.71875 14.15625 
Q 29.4375 6.6875 42.828125 6.6875 
Q 48.046875 6.6875 52.140625 7.59375 
Q 56.25 8.5 59.515625 10.40625 
z
" id="DejaVuSans-47"/>
      <path d="M 41.109375 46.296875 
Q 39.59375 47.171875 37.8125 47.578125 
Q 36.03125 48 33.890625 48 
Q 26.265625 48 22.1875 43.046875 
Q 18.109375 38.09375 18.109375 28.8125 
L 18.109375 0 
L 9.078125 0 
L 9.078125 54.6875 
L 18.109375 54.6875 
L 18.109375 46.1875 
Q 20.953125 51.171875 25.484375 53.578125 
Q 30.03125 56 36.53125 56 
Q 37.453125 56 38.578125 55.875 
Q 39.703125 55.765625 41.0625 55.515625 
z
" id="DejaVuSans-72"/>
      <path d="M 30.609375 48.390625 
Q 23.390625 48.390625 19.1875 42.75 
Q 14.984375 37.109375 14.984375 27.296875 
Q 14.984375 17.484375 19.15625 11.84375 
Q 23.34375 6.203125 30.609375 6.203125 
Q 37.796875 6.203125 41.984375 11.859375 
Q 46.1875 17.53125 46.1875 27.296875 
Q 46.1875 37.015625 41.984375 42.703125 
Q 37.796875 48.390625 30.609375 48.390625 
z
M 30.609375 56 
Q 42.328125 56 49.015625 48.375 
Q 55.71875 40.765625 55.71875 27.296875 
Q 55.71875 13.875 49.015625 6.21875 
Q 42.328125 -1.421875 30.609375 -1.421875 
Q 18.84375 -1.421875 12.171875 6.21875 
Q 5.515625 13.875 5.515625 27.296875 
Q 5.515625 40.765625 12.171875 48.375 
Q 18.84375 56 30.609375 56 
z
" id="DejaVuSans-6f"/>
      <path d="M 44.28125 53.078125 
L 44.28125 44.578125 
Q 40.484375 46.53125 36.375 47.5 
Q 32.28125 48.484375 27.875 48.484375 
Q 21.1875 48.484375 17.84375 46.4375 
Q 14.5 44.390625 14.5 40.28125 
Q 14.5 37.15625 16.890625 35.375 
Q 19.28125 33.59375 26.515625 31.984375 
L 29.59375 31.296875 
Q 39.15625 29.25 43.1875 25.515625 
Q 47.21875 21.78125 47.21875 15.09375 
Q 47.21875 7.46875 41.1875 3.015625 
Q 35.15625 -1.421875 24.609375 -1.421875 
Q 20.21875 -1.421875 15.453125 -0.5625 
Q 10.6875 0.296875 5.421875 2 
L 5.421875 11.28125 
Q 10.40625 8.6875 15.234375 7.390625 
Q 20.0625 6.109375 24.8125 6.109375 
Q 31.15625 6.109375 34.5625 8.28125 
Q 37.984375 10.453125 37.984375 14.40625 
Q 37.984375 18.0625 35.515625 20.015625 
Q 33.0625 21.96875 24.703125 23.78125 
L 21.578125 24.515625 
Q 13.234375 26.265625 9.515625 29.90625 
Q 5.8125 33.546875 5.8125 39.890625 
Q 5.8125 47.609375 11.28125 51.796875 
Q 16.75 56 26.8125 56 
Q 31.78125 56 36.171875 55.265625 
Q 40.578125 54.546875 44.28125 53.078125 
z
" id="DejaVuSans-73"/>
      <path id="DejaVuSans-20"/>
      <path d="M 9.421875 75.984375 
L 18.40625 75.984375 
L 18.40625 0 
L 9.421875 0 
z
" id="DejaVuSans-6c"/>
      <path d="M 45.40625 46.390625 
L 45.40625 75.984375 
L 54.390625 75.984375 
L 54.390625 0 
L 45.40625 0 
L 45.40625 8.203125 
Q 42.578125 3.328125 38.25 0.953125 
Q 33.9375 -1.421875 27.875 -1.421875 
Q 17.96875 -1.421875 11.734375 6.484375 
Q 5.515625 14.40625 5.515625 27.296875 
Q 5.515625 40.1875 11.734375 48.09375 
Q 17.96875 56 27.875 56 
Q 33.9375 56 38.25 53.625 
Q 42.578125 51.265625 45.40625 46.390625 
z
M 14.796875 27.296875 
Q 14.796875 17.390625 18.875 11.75 
Q 22.953125 6.109375 30.078125 6.109375 
Q 37.203125 6.109375 41.296875 11.75 
Q 45.40625 17.390625 45.40625 27.296875 
Q 45.40625 37.203125 41.296875 42.84375 
Q 37.203125 48.484375 30.078125 48.484375 
Q 22.953125 48.484375 18.875 42.84375 
Q 14.796875 37.203125 14.796875 27.296875 
z
" id="DejaVuSans-64"/>
      <path d="M 31 75.875 
Q 24.46875 64.65625 21.28125 53.65625 
Q 18.109375 42.671875 18.109375 31.390625 
Q 18.109375 20.125 21.3125 9.0625 
Q 24.515625 -2 31 -13.1875 
L 23.1875 -13.1875 
Q 15.875 -1.703125 12.234375 9.375 
Q 8.59375 20.453125 8.59375 31.390625 
Q 8.59375 42.28125 12.203125 53.3125 
Q 15.828125 64.359375 23.1875 75.875 
z
" id="DejaVuSans-28"/>
      <path d="M 9.8125 72.90625 
L 24.515625 72.90625 
L 43.109375 23.296875 
L 61.8125 72.90625 
L 76.515625 72.90625 
L 76.515625 0 
L 66.890625 0 
L 66.890625 64.015625 
L 48.09375 14.015625 
L 38.1875 14.015625 
L 19.390625 64.015625 
L 19.390625 0 
L 9.8125 0 
z
" id="DejaVuSans-4d"/>
      <path d="M 3.328125 72.90625 
L 13.28125 72.90625 
L 28.609375 11.28125 
L 43.890625 72.90625 
L 54.984375 72.90625 
L 70.3125 11.28125 
L 85.59375 72.90625 
L 95.609375 72.90625 
L 77.296875 0 
L 64.890625 0 
L 49.515625 63.28125 
L 33.984375 0 
L 21.578125 0 
z
" id="DejaVuSans-57"/>
      <path d="M 8.015625 75.875 
L 15.828125 75.875 
Q 23.140625 64.359375 26.78125 53.3125 
Q 30.421875 42.28125 30.421875 31.390625 
Q 30.421875 20.453125 26.78125 9.375 
Q 23.140625 -1.703125 15.828125 -13.1875 
L 8.015625 -13.1875 
Q 14.5 -2 17.703125 9.0625 
Q 20.90625 20.125 20.90625 31.390625 
Q 20.90625 42.671875 17.703125 53.65625 
Q 14.5 64.65625 8.015625 75.875 
z
" id="DejaVuSans-29"/>
     </defs>
     <g transform="translate(10.344062 207.835369)rotate(-90)scale(0.1 -0.1)">
      <use xlink:href="#DejaVuSans-47"/>
      <use x="77.490234" xlink:href="#DejaVuSans-72"/>
      <use x="118.572266" xlink:href="#DejaVuSans-6f"/>
      <use x="179.753906" xlink:href="#DejaVuSans-73"/>
      <use x="231.853516" xlink:href="#DejaVuSans-73"/>
      <use x="283.953125" xlink:href="#DejaVuSans-20"/>
      <use x="315.740234" xlink:href="#DejaVuSans-6c"/>
      <use x="343.523438" xlink:href="#DejaVuSans-6f"/>
      <use x="404.705078" xlink:href="#DejaVuSans-61"/>
      <use x="465.984375" xlink:href="#DejaVuSans-64"/>
      <use x="529.460938" xlink:href="#DejaVuSans-20"/>
      <use x="561.248047" xlink:href="#DejaVuSans-28"/>
      <use x="600.261719" xlink:href="#DejaVuSans-4d"/>
      <use x="686.541016" xlink:href="#DejaVuSans-57"/>
      <use x="785.417969" xlink:href="#DejaVuSans-29"/>
     </g>
    </g>
   </g>
   <g id="line2d_29">
    <path clip-path="url(#p5a15f261f2)" d="M 42.51125 125.934478 
L 44.3203 127.591496 
L 46.323177 133.667229 
L 48.261444 132.562551 
L 50.264321 140.295302 
L 52.202589 138.085945 
L 54.205466 144.161678 
L 56.208342 144.161678 
L 58.14661 140.295302 
L 60.149487 135.876587 
L 62.087755 140.571472 
L 64.090631 130.905532 
L 66.093508 153.551448 
L 67.902558 130.353193 
L 69.905435 133.11489 
L 71.843703 175.092685 
L 73.846579 245.792129 
L 75.784847 309.8635 
L 77.787724 309.8635 
L 79.7906 147.475715 
L 81.728868 142.50466 
L 83.731745 138.638284 
L 85.670013 136.428926 
L 87.672889 138.638284 
L 89.675766 135.324248 
L 91.484816 134.771908 
L 93.487693 151.89443 
L 95.425961 146.647205 
L 97.428837 226.46025 
L 99.367105 144.161678 
L 101.369982 144.161678 
L 103.372859 226.46025 
L 105.311126 141.952321 
L 109.252271 137.533605 
L 111.255148 139.742963 
L 113.258024 139.742963 
L 115.131683 138.085945 
L 117.13456 144.161678 
L 119.072828 139.742963 
L 121.075704 145.818696 
L 123.013972 145.818696 
L 125.016849 146.923375 
L 127.019726 149.132733 
L 128.957993 142.50466 
L 130.96087 139.742963 
L 132.899138 135.324248 
L 134.902015 138.362114 
L 136.904891 135.324248 
L 138.713941 135.324248 
L 140.716818 139.742963 
L 142.655086 138.638284 
L 144.657962 230.326626 
L 146.59623 143.056999 
L 148.599107 145.266357 
L 150.601984 144.161678 
L 152.540251 140.295302 
L 154.543128 138.638284 
L 156.481396 134.771908 
L 158.484273 132.010211 
L 160.487149 144.161678 
L 162.296199 147.475715 
L 164.299076 139.190623 
L 166.237344 309.8635 
L 170.178488 309.8635 
L 172.181365 147.475715 
L 174.184242 142.50466 
L 176.12251 139.742963 
L 180.063654 139.742963 
L 184.069408 137.533605 
L 185.878457 132.010211 
L 187.881334 163.493557 
L 189.819602 154.103787 
L 191.822479 228.117268 
L 193.760746 148.028054 
L 195.763623 159.627182 
L 197.7665 148.028054 
L 199.704768 224.250892 
L 201.707644 144.714018 
L 203.645912 132.010211 
L 205.648789 142.50466 
L 207.651666 132.562551 
L 209.525324 133.11489 
L 211.528201 134.771908 
L 213.466469 132.010211 
L 215.469346 161.836539 
L 217.407613 248.001487 
L 219.41049 166.255254 
L 221.413367 144.161678 
L 223.351635 141.952321 
L 225.354511 134.219569 
L 227.292779 133.667229 
L 229.295656 130.905532 
L 231.298533 155.208466 
L 233.107583 145.266357 
L 235.110459 135.876587 
L 237.048727 182.825437 
L 240.989872 309.8635 
L 242.992748 150.789751 
L 244.995625 146.371036 
L 246.933893 144.714018 
L 248.93677 137.533605 
L 250.875037 151.89443 
L 252.877914 218.727498 
L 254.880791 166.255254 
L 256.689841 146.371036 
L 258.692717 155.208466 
L 260.630985 157.141654 
L 262.633862 155.208466 
L 264.57213 309.8635 
L 266.575006 183.930115 
L 270.516151 145.266357 
L 272.519028 160.73186 
L 274.457295 171.778648 
L 276.460172 180.616079 
L 280.272099 180.616079 
L 282.274975 181.168418 
L 284.213243 226.736419 
L 286.21612 252.972541 
L 288.154388 274.513778 
L 290.157264 305.444785 
L 292.160141 206.023692 
L 294.098409 189.453509 
L 296.101286 181.720758 
L 298.039553 185.034794 
L 300.04243 180.616079 
L 302.045307 186.139473 
L 303.918966 186.139473 
L 305.921842 188.348831 
L 307.86011 250.210844 
L 309.862987 257.391256 
L 311.801255 282.24653 
L 313.804132 235.29768 
L 315.807008 223.146213 
L 317.745276 119.858744 
L 319.748153 95.55581 
L 321.686421 138.085945 
L 323.689297 131.457872 
L 325.692174 132.010211 
L 327.501224 138.085945 
L 329.504101 113.783011 
L 331.442368 140.847642 
L 333.445245 205.471352 
L 335.383513 223.146213 
L 337.38639 146.094866 
L 339.389266 144.161678 
L 341.327534 138.638284 
L 343.330411 139.190623 
L 345.268679 125.382138 
L 347.271555 116.544708 
L 349.274432 119.858744 
L 351.083482 125.934478 
L 353.086359 148.028054 
L 355.024626 151.89443 
L 357.027503 216.51814 
L 358.965771 230.878965 
L 360.968648 229.221947 
L 362.971524 199.947958 
L 364.909792 100.526865 
L 366.912669 134.219569 
L 368.850937 124.829799 
L 370.853813 138.638284 
L 372.85669 139.742963 
L 374.66574 224.250892 
L 376.668617 216.241971 
L 378.606885 217.07048 
L 380.609761 131.457872 
L 382.548029 129.800854 
L 384.550906 144.161678 
L 386.553783 133.11489 
L 388.49205 107.154938 
L 390.494927 193.319885 
L 392.433195 121.515762 
L 394.436072 114.33535 
L 396.438948 111.573653 
L 398.312607 118.754065 
L 400.315484 143.056999 
L 404.256628 283.903548 
L 406.194896 215.689631 
L 408.197773 225.631741 
L 410.20065 205.471352 
L 412.138917 200.224128 
L 414.141794 229.774286 
L 416.080062 227.012589 
L 418.082939 192.767546 
L 420.085815 115.992368 
L 421.894865 224.250892 
L 423.897742 227.564928 
L 425.83601 309.8635 
L 427.838886 309.8635 
L 429.777154 230.326626 
L 431.780031 191.110528 
L 433.782908 111.021314 
L 435.721175 197.738601 
L 437.724052 187.244152 
L 439.66232 218.175159 
L 441.665197 92.794113 
L 443.668073 222.317704 
L 445.477123 224.250892 
L 447.48 204.919013 
L 447.48 204.919013 
" style="fill:none;stroke:#1f77b4;stroke-linecap:square;stroke-width:1.5;"/>
   </g>
   <g id="patch_3">
    <path d="M 42.51125 309.8635 
L 42.51125 23.36505 
" style="fill:none;stroke:#000000;stroke-linecap:square;stroke-linejoin:miter;stroke-width:0.8;"/>
   </g>
   <g id="patch_4">
    <path d="M 447.48 309.8635 
L 447.48 23.36505 
" style="fill:none;stroke:#000000;stroke-linecap:square;stroke-linejoin:miter;stroke-width:0.8;"/>
   </g>
   <g id="patch_5">
    <path d="M 42.51125 309.8635 
L 447.48 309.8635 
" style="fill:none;stroke:#000000;stroke-linecap:square;stroke-linejoin:miter;stroke-width:0.8;"/>
   </g>
   <g id="patch_6">
    <path d="M 42.51125 23.36505 
L 447.48 23.36505 
" style="fill:none;stroke:#000000;stroke-linecap:square;stroke-linejoin:miter;stroke-width:0.8;"/>
   </g>
   <g id="text_17">
    <!-- Monthly gload trend -->
    <defs>
     <path d="M 54.890625 33.015625 
L 54.890625 0 
L 45.90625 0 
L 45.90625 32.71875 
Q 45.90625 40.484375 42.875 44.328125 
Q 39.84375 48.1875 33.796875 48.1875 
Q 26.515625 48.1875 22.3125 43.546875 
Q 18.109375 38.921875 18.109375 30.90625 
L 18.109375 0 
L 9.078125 0 
L 9.078125 54.6875 
L 18.109375 54.6875 
L 18.109375 46.1875 
Q 21.34375 51.125 25.703125 53.5625 
Q 30.078125 56 35.796875 56 
Q 45.21875 56 50.046875 50.171875 
Q 54.890625 44.34375 54.890625 33.015625 
z
" id="DejaVuSans-6e"/>
     <path d="M 54.890625 33.015625 
L 54.890625 0 
L 45.90625 0 
L 45.90625 32.71875 
Q 45.90625 40.484375 42.875 44.328125 
Q 39.84375 48.1875 33.796875 48.1875 
Q 26.515625 48.1875 22.3125 43.546875 
Q 18.109375 38.921875 18.109375 30.90625 
L 18.109375 0 
L 9.078125 0 
L 9.078125 75.984375 
L 18.109375 75.984375 
L 18.109375 46.1875 
Q 21.34375 51.125 25.703125 53.5625 
Q 30.078125 56 35.796875 56 
Q 45.21875 56 50.046875 50.171875 
Q 54.890625 44.34375 54.890625 33.015625 
z
" id="DejaVuSans-68"/>
     <path d="M 32.171875 -5.078125 
Q 28.375 -14.84375 24.75 -17.8125 
Q 21.140625 -20.796875 15.09375 -20.796875 
L 7.90625 -20.796875 
L 7.90625 -13.28125 
L 13.1875 -13.28125 
Q 16.890625 -13.28125 18.9375 -11.515625 
Q 21 -9.765625 23.484375 -3.21875 
L 25.09375 0.875 
L 2.984375 54.6875 
L 12.5 54.6875 
L 29.59375 11.921875 
L 46.6875 54.6875 
L 56.203125 54.6875 
z
" id="DejaVuSans-79"/>
     <path d="M 45.40625 27.984375 
Q 45.40625 37.75 41.375 43.109375 
Q 37.359375 48.484375 30.078125 48.484375 
Q 22.859375 48.484375 18.828125 43.109375 
Q 14.796875 37.75 14.796875 27.984375 
Q 14.796875 18.265625 18.828125 12.890625 
Q 22.859375 7.515625 30.078125 7.515625 
Q 37.359375 7.515625 41.375 12.890625 
Q 45.40625 18.265625 45.40625 27.984375 
z
M 54.390625 6.78125 
Q 54.390625 -7.171875 48.1875 -13.984375 
Q 42 -20.796875 29.203125 -20.796875 
Q 24.46875 -20.796875 20.265625 -20.09375 
Q 16.0625 -19.390625 12.109375 -17.921875 
L 12.109375 -9.1875 
Q 16.0625 -11.328125 19.921875 -12.34375 
Q 23.78125 -13.375 27.78125 -13.375 
Q 36.625 -13.375 41.015625 -8.765625 
Q 45.40625 -4.15625 45.40625 5.171875 
L 45.40625 9.625 
Q 42.625 4.78125 38.28125 2.390625 
Q 33.9375 0 27.875 0 
Q 17.828125 0 11.671875 7.65625 
Q 5.515625 15.328125 5.515625 27.984375 
Q 5.515625 40.671875 11.671875 48.328125 
Q 17.828125 56 27.875 56 
Q 33.9375 56 38.28125 53.609375 
Q 42.625 51.21875 45.40625 46.390625 
L 45.40625 54.6875 
L 54.390625 54.6875 
z
" id="DejaVuSans-67"/>
    </defs>
    <g transform="translate(184.405 17.36505)scale(0.12 -0.12)">
     <use xlink:href="#DejaVuSans-4d"/>
     <use x="86.279297" xlink:href="#DejaVuSans-6f"/>
     <use x="147.460938" xlink:href="#DejaVuSans-6e"/>
     <use x="210.839844" xlink:href="#DejaVuSans-74"/>
     <use x="250.048828" xlink:href="#DejaVuSans-68"/>
     <use x="313.427734" xlink:href="#DejaVuSans-6c"/>
     <use x="341.210938" xlink:href="#DejaVuSans-79"/>
     <use x="400.390625" xlink:href="#DejaVuSans-20"/>
     <use x="432.177734" xlink:href="#DejaVuSans-67"/>
     <use x="495.654297" xlink:href="#DejaVuSans-6c"/>
     <use x="523.4375" xlink:href="#DejaVuSans-6f"/>
     <use x="584.619141" xlink:href="#DejaVuSans-61"/>
     <use x="645.898438" xlink:href="#DejaVuSans-64"/>
     <use x="709.375" xlink:href="#DejaVuSans-20"/>
     <use x="741.162109" xlink:href="#DejaVuSans-74"/>
     <use x="780.371094" xlink:href="#DejaVuSans-72"/>
     <use x="821.453125" xlink:href="#DejaVuSans-65"/>
     <use x="882.976562" xlink:href="#DejaVuSans-6e"/>
     <use x="946.355469" xlink:href="#DejaVuSans-64"/>
    </g>
   </g>
  </g>
 </g>
 <defs>
  <clipPath id="p5a15f261f2">
   <rect height="286.49845" width="404.96875" x="42.51125" y="23.36505"/>
  </clipPath>
 </defs>
</svg>
