<?xml version="1.0" encoding="utf-8" standalone="no"?>
<!DOCTYPE svg PUBLIC "-//W3C//DTD SVG 1.1//EN"
  "http://www.w3.org/Graphics/SVG/1.1/DTD/svg11.dtd">
<!-- Created with matplotlib (http://matplotlib.org/) -->
<svg height="345.6pt" version="1.1" viewBox="0 0 460.8 345.6" width="460.8pt" xmlns="http://www.w3.org/2000/svg" xmlns:xlink="http://www.w3.org/1999/xlink">
 <defs>
  <style type="text/css">
*{stroke-linecap:butt;stroke-linejoin:round;}
  </style>
 </defs>
 <g id="figure_1">
  <g id="patch_1">
   <path d="M 0 345.6 
L 460.8 345.6 
L 460.8 0 
L 0 0 
z
" style="fill:none;"/>
  </g>
  <g id="axes_1">
   <g id="patch_2">
    <path d="M 42.51125 309.8635 
L 446.940147 309.8635 
L 446.940147 23.36505 
L 42.51125 23.36505 
z
" style="fill:none;"/>
   </g>
   <g id="PolyCollection_1">
    <path clip-path="url(#pc1799499cc)" d="M 42.51125 209.025536 
L 42.51125 309.8635 
L 44.570934 309.8635 
L 46.564176 309.8635 
L 48.62386 309.8635 
L 50.617103 309.8635 
L 52.676787 309.8635 
L 54.73647 309.8635 
L 56.59683 309.8635 
L 58.656514 309.8635 
L 60.649756 309.8635 
L 62.70944 309.8635 
L 64.702683 309.8635 
L 66.762367 309.8635 
L 68.822051 309.8635 
L 70.815293 309.8635 
L 72.874977 309.8635 
L 74.868219 309.8635 
L 76.927903 309.8635 
L 78.987587 309.8635 
L 80.847947 309.8635 
L 82.907631 309.8635 
L 84.900873 309.8635 
L 86.960557 309.8635 
L 88.9538 309.8635 
L 91.013483 309.8635 
L 93.073167 309.8635 
L 95.06641 309.8635 
L 97.126094 309.8635 
L 99.119336 309.8635 
L 101.17902 309.8635 
L 103.238704 309.8635 
L 105.165505 309.8635 
L 107.225189 309.8635 
L 109.218431 309.8635 
L 111.278115 309.8635 
L 113.271358 309.8635 
L 115.331042 309.8635 
L 117.390725 309.8635 
L 119.383968 309.8635 
L 121.443652 309.8635 
L 123.436894 309.8635 
L 125.496578 309.8635 
L 127.556262 309.8635 
L 129.416622 309.8635 
L 131.476306 309.8635 
L 133.469548 309.8635 
L 135.529232 309.8635 
L 137.522474 309.8635 
L 139.582158 309.8635 
L 141.641842 309.8635 
L 143.635085 309.8635 
L 145.694769 309.8635 
L 147.688011 309.8635 
L 149.747695 309.8635 
L 151.807379 309.8635 
L 153.667738 309.8635 
L 155.727422 309.8635 
L 157.720665 309.8635 
L 159.780349 309.8635 
L 161.773591 309.8635 
L 163.833275 309.8635 
L 165.892959 144.233722 
L 167.886201 309.8635 
L 169.945885 309.8635 
L 171.939128 309.8635 
L 173.998812 309.8635 
L 176.058496 309.8635 
L 177.918855 309.8635 
L 179.978539 309.8635 
L 181.971782 309.8635 
L 184.031465 309.8635 
L 186.024708 144.233722 
L 188.084392 309.8635 
L 190.144076 309.8635 
L 192.137318 309.8635 
L 194.197002 309.8635 
L 196.190244 309.8635 
L 198.249928 309.8635 
L 200.309612 309.8635 
L 202.236413 309.8635 
L 204.296097 309.8635 
L 206.28934 309.8635 
L 208.349024 309.8635 
L 210.342266 309.8635 
L 212.40195 144.233722 
L 214.461634 309.8635 
L 216.454876 144.233722 
L 218.51456 309.8635 
L 220.507803 309.8635 
L 222.567486 309.8635 
L 224.62717 309.8635 
L 226.48753 309.8635 
L 228.547214 309.8635 
L 230.540456 309.8635 
L 232.60014 309.8635 
L 234.593383 309.8635 
L 236.653067 149.252807 
L 238.71275 149.709087 
L 240.705993 180.279872 
L 242.765677 309.8635 
L 244.758919 309.8635 
L 246.818603 309.8635 
L 248.878287 309.8635 
L 250.738647 309.8635 
L 252.798331 309.8635 
L 254.791573 309.8635 
L 256.851257 309.8635 
L 258.844499 309.8635 
L 260.904183 187.580358 
L 262.963867 149.709087 
L 264.95711 195.337125 
L 267.016794 309.8635 
L 269.010036 309.8635 
L 271.06972 309.8635 
L 273.129404 309.8635 
L 274.989763 309.8635 
L 277.049447 309.8635 
L 279.04269 309.8635 
L 281.102374 309.8635 
L 283.095616 309.8635 
L 285.1553 191.686882 
L 287.214984 169.785424 
L 289.208226 217.238583 
L 291.26791 309.8635 
L 293.261153 309.8635 
L 295.320837 309.8635 
L 297.380521 309.8635 
L 299.307322 309.8635 
L 301.367005 309.8635 
L 303.360248 309.8635 
L 305.419932 309.8635 
L 307.413174 151.077928 
L 309.472858 149.709087 
L 311.532542 309.8635 
L 313.525785 156.553293 
L 315.585468 309.8635 
L 317.578711 309.8635 
L 319.638395 309.8635 
L 321.698079 309.8635 
L 323.558438 309.8635 
L 325.618122 309.8635 
L 327.611365 309.8635 
L 329.671049 309.8635 
L 331.664291 309.8635 
L 333.723975 153.81561 
L 335.783659 149.252807 
L 337.776901 224.539069 
L 339.836585 309.8635 
L 341.829828 309.8635 
L 343.889512 226.364191 
L 345.949195 228.189312 
L 347.809555 238.22748 
L 349.869239 309.8635 
L 351.862481 309.8635 
L 353.922165 309.8635 
L 355.915408 150.165367 
L 357.975092 177.08591 
L 360.034776 149.709087 
L 362.028018 150.621648 
L 364.087702 309.8635 
L 366.080944 227.276751 
L 368.140628 309.8635 
L 370.200312 309.8635 
L 372.060672 309.8635 
L 374.120356 309.8635 
L 376.113598 309.8635 
L 378.173282 309.8635 
L 380.166524 309.8635 
L 382.226208 186.211517 
L 384.285892 186.211517 
L 386.279135 149.709087 
L 388.338819 228.645593 
L 390.332061 229.101873 
L 392.391745 237.7712 
L 394.451429 227.276751 
L 396.37823 309.8635 
L 398.437914 309.8635 
L 400.431156 309.8635 
L 402.49084 309.8635 
L 404.484083 309.8635 
L 406.543767 185.755237 
L 408.60345 149.252807 
L 410.596693 150.165367 
L 412.656377 246.440527 
L 414.649619 252.372172 
L 416.709303 288.874603 
L 418.768987 309.8635 
L 420.629347 309.8635 
L 422.689031 309.8635 
L 424.682273 309.8635 
L 426.741957 309.8635 
L 428.735199 309.8635 
L 430.794883 205.831574 
L 432.854567 184.386396 
L 434.84781 309.8635 
L 436.907493 237.31492 
L 438.900736 277.923873 
L 440.96042 309.8635 
L 443.020104 309.8635 
L 444.880463 309.8635 
L 446.940147 309.8635 
L 446.940147 102.255928 
L 446.940147 102.255928 
L 444.880463 309.8635 
L 443.020104 207.200415 
L 440.96042 202.181331 
L 438.900736 138.758358 
L 436.907493 63.015815 
L 434.84781 38.376674 
L 432.854567 37.920394 
L 430.794883 37.464114 
L 428.735199 38.376674 
L 426.741957 41.114357 
L 424.682273 205.831574 
L 422.689031 208.112975 
L 420.629347 203.550172 
L 418.768987 238.22748 
L 416.709303 108.187572 
L 414.649619 174.804508 
L 412.656377 118.682021 
L 410.596693 39.289235 
L 408.60345 37.920394 
L 406.543767 37.920394 
L 404.484083 38.832955 
L 402.49084 98.149404 
L 400.431156 203.093891 
L 398.437914 308.950939 
L 396.37823 214.500901 
L 394.451429 121.875984 
L 392.391745 121.875984 
L 390.332061 174.804508 
L 388.338819 120.050862 
L 386.279135 37.464114 
L 384.285892 37.464114 
L 382.226208 37.007833 
L 380.166524 38.376674 
L 378.173282 51.608805 
L 376.113598 119.138302 
L 374.120356 210.394377 
L 372.060672 216.326022 
L 370.200312 154.728171 
L 368.140628 110.012694 
L 366.080944 114.575498 
L 364.087702 95.411722 
L 362.028018 38.832955 
L 360.034776 38.376674 
L 357.975092 38.376674 
L 355.915408 39.745516 
L 353.922165 80.354469 
L 351.862481 116.8569 
L 349.869239 111.381535 
L 347.809555 108.643853 
L 345.949195 103.168488 
L 343.889512 104.081049 
L 341.829828 102.712208 
L 339.836585 102.255928 
L 337.776901 38.376674 
L 335.783659 37.920394 
L 333.723975 38.376674 
L 331.664291 38.376674 
L 329.671049 44.308319 
L 327.611365 41.570637 
L 325.618122 309.8635 
L 323.558438 194.424564 
L 321.698079 309.8635 
L 319.638395 309.8635 
L 317.578711 214.500901 
L 315.585468 67.122338 
L 313.525785 38.376674 
L 311.532542 38.376674 
L 309.472858 37.920394 
L 307.413174 39.289235 
L 305.419932 42.939478 
L 303.360248 213.58834 
L 301.367005 120.507143 
L 299.307322 309.8635 
L 297.380521 308.950939 
L 295.320837 309.8635 
L 293.261153 309.8635 
L 291.26791 207.200415 
L 289.208226 38.832955 
L 287.214984 37.920394 
L 285.1553 38.376674 
L 283.095616 38.832955 
L 281.102374 154.271891 
L 279.04269 42.026918 
L 277.049447 309.8635 
L 274.989763 309.8635 
L 273.129404 192.143162 
L 271.06972 309.8635 
L 269.010036 308.950939 
L 267.016794 187.580358 
L 264.95711 38.832955 
L 262.963867 38.376674 
L 260.904183 38.376674 
L 258.844499 38.832955 
L 256.851257 48.414843 
L 254.791573 200.356209 
L 252.798331 241.877724 
L 250.738647 309.8635 
L 248.878287 309.8635 
L 246.818603 188.036639 
L 244.758919 75.335385 
L 242.765677 60.278133 
L 240.705993 39.289235 
L 238.71275 39.289235 
L 236.653067 39.289235 
L 234.593383 40.201796 
L 232.60014 120.507143 
L 230.540456 196.705966 
L 228.547214 309.8635 
L 226.48753 309.8635 
L 224.62717 198.987368 
L 222.567486 191.230601 
L 220.507803 198.987368 
L 218.51456 198.531088 
L 216.454876 38.376674 
L 214.461634 37.920394 
L 212.40195 37.920394 
L 210.342266 38.832955 
L 208.349024 75.335385 
L 206.28934 112.750376 
L 204.296097 198.987368 
L 202.236413 82.635871 
L 200.309612 193.968284 
L 198.249928 188.492919 
L 196.190244 120.963423 
L 194.197002 104.99361 
L 192.137318 38.376674 
L 190.144076 37.007833 
L 188.084392 38.376674 
L 186.024708 38.376674 
L 184.031465 39.289235 
L 181.971782 120.050862 
L 179.978539 309.8635 
L 177.918855 96.780563 
L 176.058496 70.316301 
L 173.998812 59.821852 
L 171.939128 55.259048 
L 169.945885 55.259048 
L 167.886201 43.395759 
L 165.892959 47.502282 
L 163.833275 43.852039 
L 161.773591 68.94746 
L 159.780349 309.8635 
L 157.720665 214.04462 
L 155.727422 309.8635 
L 153.667738 309.8635 
L 151.807379 309.8635 
L 149.747695 68.034899 
L 147.688011 107.731292 
L 145.694769 200.812489 
L 143.635085 45.677161 
L 141.641842 44.7646 
L 139.582158 41.570637 
L 137.522474 48.871123 
L 135.529232 309.8635 
L 133.469548 309.8635 
L 131.476306 236.858639 
L 129.416622 309.8635 
L 127.556262 235.946079 
L 125.496578 235.033518 
L 123.436894 309.8635 
L 121.443652 225.45163 
L 119.383968 125.526227 
L 117.390725 122.788545 
L 115.331042 120.963423 
L 113.271358 122.332264 
L 111.278115 120.050862 
L 109.218431 184.386396 
L 107.225189 150.165367 
L 105.165505 142.864881 
L 103.238704 222.713948 
L 101.17902 231.839555 
L 99.119336 222.257667 
L 97.126094 123.244825 
L 95.06641 131.001591 
L 93.073167 120.050862 
L 91.013483 120.963423 
L 88.9538 140.583479 
L 86.960557 164.766339 
L 84.900873 227.733032 
L 82.907631 262.410341 
L 80.847947 169.329143 
L 78.987587 177.54219 
L 76.927903 149.252807 
L 74.868219 155.640732 
L 72.874977 145.602564 
L 70.815293 128.72019 
L 68.822051 130.545311 
L 66.762367 123.244825 
L 64.702683 120.507143 
L 62.70944 148.340246 
L 60.649756 159.747255 
L 58.656514 158.834695 
L 56.59683 124.157386 
L 54.73647 124.613666 
L 52.676787 121.419703 
L 50.617103 97.693124 
L 48.62386 116.400619 
L 46.564176 117.76946 
L 44.570934 144.233722 
L 42.51125 209.025536 
z
" style="fill:#808080;fill-opacity:0.3;"/>
   </g>
   <g id="PolyCollection_2">
    <path clip-path="url(#pc1799499cc)" d="M 42.51125 309.8635 
L 42.51125 309.8635 
L 44.570934 309.8635 
L 46.564176 309.8635 
L 48.62386 309.8635 
L 50.617103 309.8635 
L 52.676787 309.8635 
L 54.73647 309.8635 
L 56.59683 250.547051 
L 58.656514 309.8635 
L 60.649756 309.8635 
L 62.70944 309.8635 
L 64.702683 299.369051 
L 66.762367 296.631369 
L 68.822051 297.201719 
L 70.815293 309.40722 
L 72.874977 309.8635 
L 74.868219 309.8635 
L 76.927903 309.8635 
L 78.987587 309.8635 
L 80.847947 309.8635 
L 82.907631 309.8635 
L 84.900873 309.8635 
L 86.960557 309.8635 
L 88.9538 309.8635 
L 91.013483 243.246565 
L 93.073167 250.09077 
L 95.06641 252.828453 
L 97.126094 306.669537 
L 99.119336 309.8635 
L 101.17902 309.8635 
L 103.238704 309.8635 
L 105.165505 309.8635 
L 107.225189 309.8635 
L 109.218431 309.8635 
L 111.278115 309.8635 
L 113.271358 309.8635 
L 115.331042 253.284733 
L 117.390725 252.372172 
L 119.383968 309.8635 
L 121.443652 309.8635 
L 123.436894 309.8635 
L 125.496578 309.8635 
L 127.556262 309.8635 
L 129.416622 309.8635 
L 131.476306 309.8635 
L 133.469548 309.8635 
L 135.529232 309.8635 
L 137.522474 309.8635 
L 139.582158 229.101873 
L 141.641842 228.645593 
L 143.635085 309.8635 
L 145.694769 309.8635 
L 147.688011 309.8635 
L 149.747695 309.8635 
L 151.807379 309.8635 
L 153.667738 309.8635 
L 155.727422 309.8635 
L 157.720665 309.8635 
L 159.780349 309.8635 
L 161.773591 309.8635 
L 163.833275 309.8635 
L 165.892959 119.252372 
L 167.886201 126.895068 
L 169.945885 127.465418 
L 171.939128 309.8635 
L 173.998812 309.8635 
L 176.058496 309.8635 
L 177.918855 309.8635 
L 179.978539 309.8635 
L 181.971782 309.8635 
L 184.031465 309.8635 
L 186.024708 127.807629 
L 188.084392 126.895068 
L 190.144076 139.670919 
L 192.137318 127.807629 
L 194.197002 309.8635 
L 196.190244 309.8635 
L 198.249928 309.8635 
L 200.309612 309.8635 
L 202.236413 309.8635 
L 204.296097 309.8635 
L 206.28934 309.8635 
L 208.349024 309.8635 
L 210.342266 142.864881 
L 212.40195 124.157386 
L 214.461634 127.351348 
L 216.454876 131.001591 
L 218.51456 309.8635 
L 220.507803 309.8635 
L 222.567486 309.8635 
L 224.62717 309.8635 
L 226.48753 309.8635 
L 228.547214 309.8635 
L 230.540456 309.8635 
L 232.60014 309.8635 
L 234.593383 149.709087 
L 236.653067 101.799647 
L 238.71275 121.875984 
L 240.705993 145.260353 
L 242.765677 309.8635 
L 244.758919 309.8635 
L 246.818603 309.8635 
L 248.878287 309.8635 
L 250.738647 309.8635 
L 252.798331 309.8635 
L 254.791573 309.8635 
L 256.851257 309.8635 
L 258.844499 147.883965 
L 260.904183 121.533774 
L 262.963867 129.17647 
L 264.95711 148.340246 
L 267.016794 309.8635 
L 269.010036 309.8635 
L 271.06972 309.8635 
L 273.129404 309.8635 
L 274.989763 309.8635 
L 277.049447 309.8635 
L 279.04269 309.8635 
L 281.102374 309.8635 
L 283.095616 149.252807 
L 285.1553 149.252807 
L 287.214984 147.427685 
L 289.208226 149.252807 
L 291.26791 309.8635 
L 293.261153 309.8635 
L 295.320837 309.8635 
L 297.380521 309.8635 
L 299.307322 309.8635 
L 301.367005 309.8635 
L 303.360248 309.8635 
L 305.419932 309.8635 
L 307.413174 146.515124 
L 309.472858 121.533774 
L 311.532542 146.515124 
L 313.525785 148.340246 
L 315.585468 309.8635 
L 317.578711 309.8635 
L 319.638395 309.8635 
L 321.698079 309.8635 
L 323.558438 309.8635 
L 325.618122 309.8635 
L 327.611365 309.8635 
L 329.671049 309.8635 
L 331.664291 104.081049 
L 333.723975 100.544876 
L 335.783659 103.168488 
L 337.776901 146.058844 
L 339.836585 225.45163 
L 341.829828 309.8635 
L 343.889512 210.394377 
L 345.949195 215.413462 
L 347.809555 225.45163 
L 349.869239 309.8635 
L 351.862481 309.8635 
L 353.922165 300.281612 
L 355.915408 148.340246 
L 357.975092 103.168488 
L 360.034776 146.971405 
L 362.028018 147.883965 
L 364.087702 224.995349 
L 366.080944 225.90791 
L 368.140628 225.90791 
L 370.200312 226.364191 
L 372.060672 309.8635 
L 374.120356 309.8635 
L 376.113598 309.8635 
L 378.173282 309.8635 
L 380.166524 102.255928 
L 382.226208 146.971405 
L 384.285892 102.712208 
L 386.279135 148.340246 
L 388.338819 214.500901 
L 390.332061 225.5657 
L 392.391745 219.519985 
L 394.451429 214.500901 
L 396.37823 309.8635 
L 398.437914 309.8635 
L 400.431156 309.8635 
L 402.49084 309.8635 
L 404.484083 147.541755 
L 406.543767 102.255928 
L 408.60345 102.712208 
L 410.596693 146.515124 
L 412.656377 221.801387 
L 414.649619 237.7712 
L 416.709303 237.7712 
L 418.768987 309.8635 
L 420.629347 309.8635 
L 422.689031 309.8635 
L 424.682273 309.8635 
L 426.741957 309.8635 
L 428.735199 146.058844 
L 430.794883 102.712208 
L 432.854567 102.712208 
L 434.84781 148.340246 
L 436.907493 167.504022 
L 438.900736 226.364191 
L 440.96042 309.8635 
L 443.020104 309.8635 
L 444.880463 309.8635 
L 446.940147 309.8635 
L 446.940147 304.159995 
L 446.940147 304.159995 
L 444.880463 309.8635 
L 443.020104 309.8635 
L 440.96042 206.173784 
L 438.900736 203.550172 
L 436.907493 107.731292 
L 434.84781 40.658076 
L 432.854567 39.745516 
L 430.794883 39.745516 
L 428.735199 40.658076 
L 426.741957 309.8635 
L 424.682273 309.8635 
L 422.689031 309.8635 
L 420.629347 309.8635 
L 418.768987 309.8635 
L 416.709303 202.181331 
L 414.649619 202.637611 
L 412.656377 212.675779 
L 410.596693 40.658076 
L 408.60345 40.201796 
L 406.543767 39.745516 
L 404.484083 40.658076 
L 402.49084 299.369051 
L 400.431156 309.8635 
L 398.437914 309.8635 
L 396.37823 309.8635 
L 394.451429 203.550172 
L 392.391745 203.093891 
L 390.332061 203.093891 
L 388.338819 202.637611 
L 386.279135 40.201796 
L 384.285892 39.631446 
L 382.226208 40.201796 
L 380.166524 40.658076 
L 378.173282 309.8635 
L 376.113598 309.8635 
L 374.120356 309.8635 
L 372.060672 309.8635 
L 370.200312 211.306938 
L 368.140628 210.850658 
L 366.080944 210.394377 
L 364.087702 134.195554 
L 362.028018 40.658076 
L 360.034776 40.658076 
L 357.975092 39.745516 
L 355.915408 41.114357 
L 353.922165 204.804943 
L 351.862481 309.8635 
L 349.869239 227.733032 
L 347.809555 137.617657 
L 345.949195 144.005582 
L 343.889512 126.438788 
L 341.829828 150.165367 
L 339.836585 138.302077 
L 337.776901 40.658076 
L 335.783659 40.201796 
L 333.723975 39.631446 
L 331.664291 40.658076 
L 329.671049 164.652269 
L 327.611365 309.8635 
L 325.618122 309.8635 
L 323.558438 309.8635 
L 321.698079 309.8635 
L 319.638395 309.8635 
L 317.578711 309.8635 
L 315.585468 209.139606 
L 313.525785 40.658076 
L 311.532542 39.289235 
L 309.472858 40.201796 
L 307.413174 41.114357 
L 305.419932 217.580793 
L 303.360248 309.8635 
L 301.367005 309.8635 
L 299.307322 309.8635 
L 297.380521 309.8635 
L 295.320837 309.8635 
L 293.261153 309.8635 
L 291.26791 309.8635 
L 289.208226 56.057539 
L 287.214984 40.658076 
L 285.1553 41.570637 
L 283.095616 57.08417 
L 281.102374 309.8635 
L 279.04269 309.8635 
L 277.049447 309.8635 
L 274.989763 309.8635 
L 273.129404 309.8635 
L 271.06972 309.8635 
L 269.010036 309.8635 
L 267.016794 309.8635 
L 264.95711 41.114357 
L 262.963867 40.201796 
L 260.904183 40.201796 
L 258.844499 40.658076 
L 256.851257 309.8635 
L 254.791573 309.8635 
L 252.798331 309.8635 
L 250.738647 309.8635 
L 248.878287 309.8635 
L 246.818603 309.8635 
L 244.758919 214.04462 
L 242.765677 148.340246 
L 240.705993 41.114357 
L 238.71275 40.658076 
L 236.653067 40.658076 
L 234.593383 82.179591 
L 232.60014 309.8635 
L 230.540456 309.8635 
L 228.547214 309.8635 
L 226.48753 309.8635 
L 224.62717 309.8635 
L 222.567486 309.8635 
L 220.507803 309.8635 
L 218.51456 221.915457 
L 216.454876 40.201796 
L 214.461634 41.570637 
L 212.40195 53.890207 
L 210.342266 65.297217 
L 208.349024 309.8635 
L 206.28934 241.421443 
L 204.296097 309.8635 
L 202.236413 240.622952 
L 200.309612 200.698419 
L 198.249928 200.812489 
L 196.190244 212.219499 
L 194.197002 211.763219 
L 192.137318 41.114357 
L 190.144076 39.745516 
L 188.084392 40.658076 
L 186.024708 42.483198 
L 184.031465 120.963423 
L 181.971782 309.8635 
L 179.978539 309.8635 
L 177.918855 309.8635 
L 176.058496 115.944339 
L 173.998812 103.624769 
L 171.939128 103.624769 
L 169.945885 92.67404 
L 167.886201 90.848918 
L 165.892959 80.69668 
L 163.833275 138.758358 
L 161.773591 309.8635 
L 159.780349 309.8635 
L 157.720665 309.8635 
L 155.727422 309.8635 
L 153.667738 309.8635 
L 151.807379 309.8635 
L 149.747695 211.763219 
L 147.688011 309.8635 
L 145.694769 309.8635 
L 143.635085 237.88527 
L 141.641842 71.685142 
L 139.582158 64.840936 
L 137.522474 146.286984 
L 135.529232 309.8635 
L 133.469548 309.8635 
L 131.476306 309.8635 
L 129.416622 309.8635 
L 127.556262 309.8635 
L 125.496578 309.8635 
L 123.436894 309.8635 
L 121.443652 309.8635 
L 119.383968 239.368181 
L 117.390725 157.808064 
L 115.331042 155.184452 
L 113.271358 186.097447 
L 111.278115 192.599443 
L 109.218431 309.8635 
L 107.225189 309.8635 
L 105.165505 232.752116 
L 103.238704 244.045055 
L 101.17902 309.8635 
L 99.119336 309.8635 
L 97.126094 155.640732 
L 95.06641 177.99847 
L 93.073167 139.670919 
L 91.013483 158.720624 
L 88.9538 196.705966 
L 86.960557 230.926994 
L 84.900873 309.8635 
L 82.907631 309.8635 
L 80.847947 240.965163 
L 78.987587 309.8635 
L 76.927903 189.17734 
L 74.868219 181.078363 
L 72.874977 239.140041 
L 70.815293 168.302512 
L 68.822051 138.758358 
L 66.762367 157.465853 
L 64.702683 158.378414 
L 62.70944 307.924308 
L 60.649756 221.801387 
L 58.656514 224.539069 
L 56.59683 171.154265 
L 54.73647 234.006887 
L 52.676787 309.8635 
L 50.617103 185.869307 
L 48.62386 163.853779 
L 46.564176 191.572812 
L 44.570934 182.903485 
L 42.51125 309.8635 
z
" style="fill:#808080;fill-opacity:0.6;"/>
   </g>
   <g id="matplotlib.axis_1">
    <g id="xtick_1">
     <g id="line2d_1">
      <path clip-path="url(#pc1799499cc)" d="M 52.743228 309.8635 
L 52.743228 23.36505 
" style="fill:none;stroke:#b0b0b0;stroke-linecap:square;stroke-width:0.8;"/>
     </g>
     <g id="line2d_2">
      <defs>
       <path d="M 0 0 
L 0 3.5 
" id="m788c349dd3" style="stroke:#000000;stroke-width:0.8;"/>
      </defs>
      <g>
       <use style="stroke:#000000;stroke-width:0.8;" x="52.743228" xlink:href="#m788c349dd3" y="309.8635"/>
      </g>
     </g>
     <g id="text_1">
      <!-- 2002 -->
      <defs>
       <path d="M 19.1875 8.296875 
L 53.609375 8.296875 
L 53.609375 0 
L 7.328125 0 
L 7.328125 8.296875 
Q 12.9375 14.109375 22.625 23.890625 
Q 32.328125 33.6875 34.8125 36.53125 
Q 39.546875 41.84375 41.421875 45.53125 
Q 43.3125 49.21875 43.3125 52.78125 
Q 43.3125 58.59375 39.234375 62.25 
Q 35.15625 65.921875 28.609375 65.921875 
Q 23.96875 65.921875 18.8125 64.3125 
Q 13.671875 62.703125 7.8125 59.421875 
L 7.8125 69.390625 
Q 13.765625 71.78125 18.9375 73 
Q 24.125 74.21875 28.421875 74.21875 
Q 39.75 74.21875 46.484375 68.546875 
Q 53.21875 62.890625 53.21875 53.421875 
Q 53.21875 48.921875 51.53125 44.890625 
Q 49.859375 40.875 45.40625 35.40625 
Q 44.1875 33.984375 37.640625 27.21875 
Q 31.109375 20.453125 19.1875 8.296875 
z
" id="DejaVuSans-32"/>
       <path d="M 31.78125 66.40625 
Q 24.171875 66.40625 20.328125 58.90625 
Q 16.5 51.421875 16.5 36.375 
Q 16.5 21.390625 20.328125 13.890625 
Q 24.171875 6.390625 31.78125 6.390625 
Q 39.453125 6.390625 43.28125 13.890625 
Q 47.125 21.390625 47.125 36.375 
Q 47.125 51.421875 43.28125 58.90625 
Q 39.453125 66.40625 31.78125 66.40625 
z
M 31.78125 74.21875 
Q 44.046875 74.21875 50.515625 64.515625 
Q 56.984375 54.828125 56.984375 36.375 
Q 56.984375 17.96875 50.515625 8.265625 
Q 44.046875 -1.421875 31.78125 -1.421875 
Q 19.53125 -1.421875 13.0625 8.265625 
Q 6.59375 17.96875 6.59375 36.375 
Q 6.59375 54.828125 13.0625 64.515625 
Q 19.53125 74.21875 31.78125 74.21875 
z
" id="DejaVuSans-30"/>
      </defs>
      <g transform="translate(40.018228 324.461937)scale(0.1 -0.1)">
       <use xlink:href="#DejaVuSans-32"/>
       <use x="63.623047" xlink:href="#DejaVuSans-30"/>
       <use x="127.246094" xlink:href="#DejaVuSans-30"/>
       <use x="190.869141" xlink:href="#DejaVuSans-32"/>
      </g>
     </g>
    </g>
    <g id="xtick_2">
     <g id="line2d_3">
      <path clip-path="url(#pc1799499cc)" d="M 101.245461 309.8635 
L 101.245461 23.36505 
" style="fill:none;stroke:#b0b0b0;stroke-linecap:square;stroke-width:0.8;"/>
     </g>
     <g id="line2d_4">
      <g>
       <use style="stroke:#000000;stroke-width:0.8;" x="101.245461" xlink:href="#m788c349dd3" y="309.8635"/>
      </g>
     </g>
     <g id="text_2">
      <!-- 2004 -->
      <defs>
       <path d="M 37.796875 64.3125 
L 12.890625 25.390625 
L 37.796875 25.390625 
z
M 35.203125 72.90625 
L 47.609375 72.90625 
L 47.609375 25.390625 
L 58.015625 25.390625 
L 58.015625 17.1875 
L 47.609375 17.1875 
L 47.609375 0 
L 37.796875 0 
L 37.796875 17.1875 
L 4.890625 17.1875 
L 4.890625 26.703125 
z
" id="DejaVuSans-34"/>
      </defs>
      <g transform="translate(88.520461 324.461937)scale(0.1 -0.1)">
       <use xlink:href="#DejaVuSans-32"/>
       <use x="63.623047" xlink:href="#DejaVuSans-30"/>
       <use x="127.246094" xlink:href="#DejaVuSans-30"/>
       <use x="190.869141" xlink:href="#DejaVuSans-34"/>
      </g>
     </g>
    </g>
    <g id="xtick_3">
     <g id="line2d_5">
      <path clip-path="url(#pc1799499cc)" d="M 149.814136 309.8635 
L 149.814136 23.36505 
" style="fill:none;stroke:#b0b0b0;stroke-linecap:square;stroke-width:0.8;"/>
     </g>
     <g id="line2d_6">
      <g>
       <use style="stroke:#000000;stroke-width:0.8;" x="149.814136" xlink:href="#m788c349dd3" y="309.8635"/>
      </g>
     </g>
     <g id="text_3">
      <!-- 2006 -->
      <defs>
       <path d="M 33.015625 40.375 
Q 26.375 40.375 22.484375 35.828125 
Q 18.609375 31.296875 18.609375 23.390625 
Q 18.609375 15.53125 22.484375 10.953125 
Q 26.375 6.390625 33.015625 6.390625 
Q 39.65625 6.390625 43.53125 10.953125 
Q 47.40625 15.53125 47.40625 23.390625 
Q 47.40625 31.296875 43.53125 35.828125 
Q 39.65625 40.375 33.015625 40.375 
z
M 52.59375 71.296875 
L 52.59375 62.3125 
Q 48.875 64.0625 45.09375 64.984375 
Q 41.3125 65.921875 37.59375 65.921875 
Q 27.828125 65.921875 22.671875 59.328125 
Q 17.53125 52.734375 16.796875 39.40625 
Q 19.671875 43.65625 24.015625 45.921875 
Q 28.375 48.1875 33.59375 48.1875 
Q 44.578125 48.1875 50.953125 41.515625 
Q 57.328125 34.859375 57.328125 23.390625 
Q 57.328125 12.15625 50.6875 5.359375 
Q 44.046875 -1.421875 33.015625 -1.421875 
Q 20.359375 -1.421875 13.671875 8.265625 
Q 6.984375 17.96875 6.984375 36.375 
Q 6.984375 53.65625 15.1875 63.9375 
Q 23.390625 74.21875 37.203125 74.21875 
Q 40.921875 74.21875 44.703125 73.484375 
Q 48.484375 72.75 52.59375 71.296875 
z
" id="DejaVuSans-36"/>
      </defs>
      <g transform="translate(137.089136 324.461937)scale(0.1 -0.1)">
       <use xlink:href="#DejaVuSans-32"/>
       <use x="63.623047" xlink:href="#DejaVuSans-30"/>
       <use x="127.246094" xlink:href="#DejaVuSans-30"/>
       <use x="190.869141" xlink:href="#DejaVuSans-36"/>
      </g>
     </g>
    </g>
    <g id="xtick_4">
     <g id="line2d_7">
      <path clip-path="url(#pc1799499cc)" d="M 198.31637 309.8635 
L 198.31637 23.36505 
" style="fill:none;stroke:#b0b0b0;stroke-linecap:square;stroke-width:0.8;"/>
     </g>
     <g id="line2d_8">
      <g>
       <use style="stroke:#000000;stroke-width:0.8;" x="198.31637" xlink:href="#m788c349dd3" y="309.8635"/>
      </g>
     </g>
     <g id="text_4">
      <!-- 2008 -->
      <defs>
       <path d="M 31.78125 34.625 
Q 24.75 34.625 20.71875 30.859375 
Q 16.703125 27.09375 16.703125 20.515625 
Q 16.703125 13.921875 20.71875 10.15625 
Q 24.75 6.390625 31.78125 6.390625 
Q 38.8125 6.390625 42.859375 10.171875 
Q 46.921875 13.96875 46.921875 20.515625 
Q 46.921875 27.09375 42.890625 30.859375 
Q 38.875 34.625 31.78125 34.625 
z
M 21.921875 38.8125 
Q 15.578125 40.375 12.03125 44.71875 
Q 8.5 49.078125 8.5 55.328125 
Q 8.5 64.0625 14.71875 69.140625 
Q 20.953125 74.21875 31.78125 74.21875 
Q 42.671875 74.21875 48.875 69.140625 
Q 55.078125 64.0625 55.078125 55.328125 
Q 55.078125 49.078125 51.53125 44.71875 
Q 48 40.375 41.703125 38.8125 
Q 48.828125 37.15625 52.796875 32.3125 
Q 56.78125 27.484375 56.78125 20.515625 
Q 56.78125 9.90625 50.3125 4.234375 
Q 43.84375 -1.421875 31.78125 -1.421875 
Q 19.734375 -1.421875 13.25 4.234375 
Q 6.78125 9.90625 6.78125 20.515625 
Q 6.78125 27.484375 10.78125 32.3125 
Q 14.796875 37.15625 21.921875 38.8125 
z
M 18.3125 54.390625 
Q 18.3125 48.734375 21.84375 45.5625 
Q 25.390625 42.390625 31.78125 42.390625 
Q 38.140625 42.390625 41.71875 45.5625 
Q 45.3125 48.734375 45.3125 54.390625 
Q 45.3125 60.0625 41.71875 63.234375 
Q 38.140625 66.40625 31.78125 66.40625 
Q 25.390625 66.40625 21.84375 63.234375 
Q 18.3125 60.0625 18.3125 54.390625 
z
" id="DejaVuSans-38"/>
      </defs>
      <g transform="translate(185.59137 324.461937)scale(0.1 -0.1)">
       <use xlink:href="#DejaVuSans-32"/>
       <use x="63.623047" xlink:href="#DejaVuSans-30"/>
       <use x="127.246094" xlink:href="#DejaVuSans-30"/>
       <use x="190.869141" xlink:href="#DejaVuSans-38"/>
      </g>
     </g>
    </g>
    <g id="xtick_5">
     <g id="line2d_9">
      <path clip-path="url(#pc1799499cc)" d="M 246.885045 309.8635 
L 246.885045 23.36505 
" style="fill:none;stroke:#b0b0b0;stroke-linecap:square;stroke-width:0.8;"/>
     </g>
     <g id="line2d_10">
      <g>
       <use style="stroke:#000000;stroke-width:0.8;" x="246.885045" xlink:href="#m788c349dd3" y="309.8635"/>
      </g>
     </g>
     <g id="text_5">
      <!-- 2010 -->
      <defs>
       <path d="M 12.40625 8.296875 
L 28.515625 8.296875 
L 28.515625 63.921875 
L 10.984375 60.40625 
L 10.984375 69.390625 
L 28.421875 72.90625 
L 38.28125 72.90625 
L 38.28125 8.296875 
L 54.390625 8.296875 
L 54.390625 0 
L 12.40625 0 
z
" id="DejaVuSans-31"/>
      </defs>
      <g transform="translate(234.160045 324.461937)scale(0.1 -0.1)">
       <use xlink:href="#DejaVuSans-32"/>
       <use x="63.623047" xlink:href="#DejaVuSans-30"/>
       <use x="127.246094" xlink:href="#DejaVuSans-31"/>
       <use x="190.869141" xlink:href="#DejaVuSans-30"/>
      </g>
     </g>
    </g>
    <g id="xtick_6">
     <g id="line2d_11">
      <path clip-path="url(#pc1799499cc)" d="M 295.387278 309.8635 
L 295.387278 23.36505 
" style="fill:none;stroke:#b0b0b0;stroke-linecap:square;stroke-width:0.8;"/>
     </g>
     <g id="line2d_12">
      <g>
       <use style="stroke:#000000;stroke-width:0.8;" x="295.387278" xlink:href="#m788c349dd3" y="309.8635"/>
      </g>
     </g>
     <g id="text_6">
      <!-- 2012 -->
      <g transform="translate(282.662278 324.461937)scale(0.1 -0.1)">
       <use xlink:href="#DejaVuSans-32"/>
       <use x="63.623047" xlink:href="#DejaVuSans-30"/>
       <use x="127.246094" xlink:href="#DejaVuSans-31"/>
       <use x="190.869141" xlink:href="#DejaVuSans-32"/>
      </g>
     </g>
    </g>
    <g id="xtick_7">
     <g id="line2d_13">
      <path clip-path="url(#pc1799499cc)" d="M 343.955953 309.8635 
L 343.955953 23.36505 
" style="fill:none;stroke:#b0b0b0;stroke-linecap:square;stroke-width:0.8;"/>
     </g>
     <g id="line2d_14">
      <g>
       <use style="stroke:#000000;stroke-width:0.8;" x="343.955953" xlink:href="#m788c349dd3" y="309.8635"/>
      </g>
     </g>
     <g id="text_7">
      <!-- 2014 -->
      <g transform="translate(331.230953 324.461937)scale(0.1 -0.1)">
       <use xlink:href="#DejaVuSans-32"/>
       <use x="63.623047" xlink:href="#DejaVuSans-30"/>
       <use x="127.246094" xlink:href="#DejaVuSans-31"/>
       <use x="190.869141" xlink:href="#DejaVuSans-34"/>
      </g>
     </g>
    </g>
    <g id="xtick_8">
     <g id="line2d_15">
      <path clip-path="url(#pc1799499cc)" d="M 392.458186 309.8635 
L 392.458186 23.36505 
" style="fill:none;stroke:#b0b0b0;stroke-linecap:square;stroke-width:0.8;"/>
     </g>
     <g id="line2d_16">
      <g>
       <use style="stroke:#000000;stroke-width:0.8;" x="392.458186" xlink:href="#m788c349dd3" y="309.8635"/>
      </g>
     </g>
     <g id="text_8">
      <!-- 2016 -->
      <g transform="translate(379.733186 324.461937)scale(0.1 -0.1)">
       <use xlink:href="#DejaVuSans-32"/>
       <use x="63.623047" xlink:href="#DejaVuSans-30"/>
       <use x="127.246094" xlink:href="#DejaVuSans-31"/>
       <use x="190.869141" xlink:href="#DejaVuSans-36"/>
      </g>
     </g>
    </g>
    <g id="xtick_9">
     <g id="line2d_17">
      <path clip-path="url(#pc1799499cc)" d="M 441.026861 309.8635 
L 441.026861 23.36505 
" style="fill:none;stroke:#b0b0b0;stroke-linecap:square;stroke-width:0.8;"/>
     </g>
     <g id="line2d_18">
      <g>
       <use style="stroke:#000000;stroke-width:0.8;" x="441.026861" xlink:href="#m788c349dd3" y="309.8635"/>
      </g>
     </g>
     <g id="text_9">
      <!-- 2018 -->
      <g transform="translate(428.301861 324.461937)scale(0.1 -0.1)">
       <use xlink:href="#DejaVuSans-32"/>
       <use x="63.623047" xlink:href="#DejaVuSans-30"/>
       <use x="127.246094" xlink:href="#DejaVuSans-31"/>
       <use x="190.869141" xlink:href="#DejaVuSans-38"/>
      </g>
     </g>
    </g>
    <g id="text_10">
     <!-- Date -->
     <defs>
      <path d="M 19.671875 64.796875 
L 19.671875 8.109375 
L 31.59375 8.109375 
Q 46.6875 8.109375 53.6875 14.9375 
Q 60.6875 21.78125 60.6875 36.53125 
Q 60.6875 51.171875 53.6875 57.984375 
Q 46.6875 64.796875 31.59375 64.796875 
z
M 9.8125 72.90625 
L 30.078125 72.90625 
Q 51.265625 72.90625 61.171875 64.09375 
Q 71.09375 55.28125 71.09375 36.53125 
Q 71.09375 17.671875 61.125 8.828125 
Q 51.171875 0 30.078125 0 
L 9.8125 0 
z
" id="DejaVuSans-44"/>
      <path d="M 34.28125 27.484375 
Q 23.390625 27.484375 19.1875 25 
Q 14.984375 22.515625 14.984375 16.5 
Q 14.984375 11.71875 18.140625 8.90625 
Q 21.296875 6.109375 26.703125 6.109375 
Q 34.1875 6.109375 38.703125 11.40625 
Q 43.21875 16.703125 43.21875 25.484375 
L 43.21875 27.484375 
z
M 52.203125 31.203125 
L 52.203125 0 
L 43.21875 0 
L 43.21875 8.296875 
Q 40.140625 3.328125 35.546875 0.953125 
Q 30.953125 -1.421875 24.3125 -1.421875 
Q 15.921875 -1.421875 10.953125 3.296875 
Q 6 8.015625 6 15.921875 
Q 6 25.140625 12.171875 29.828125 
Q 18.359375 34.515625 30.609375 34.515625 
L 43.21875 34.515625 
L 43.21875 35.40625 
Q 43.21875 41.609375 39.140625 45 
Q 35.0625 48.390625 27.6875 48.390625 
Q 23 48.390625 18.546875 47.265625 
Q 14.109375 46.140625 10.015625 43.890625 
L 10.015625 52.203125 
Q 14.9375 54.109375 19.578125 55.046875 
Q 24.21875 56 28.609375 56 
Q 40.484375 56 46.34375 49.84375 
Q 52.203125 43.703125 52.203125 31.203125 
z
" id="DejaVuSans-61"/>
      <path d="M 18.3125 70.21875 
L 18.3125 54.6875 
L 36.8125 54.6875 
L 36.8125 47.703125 
L 18.3125 47.703125 
L 18.3125 18.015625 
Q 18.3125 11.328125 20.140625 9.421875 
Q 21.96875 7.515625 27.59375 7.515625 
L 36.8125 7.515625 
L 36.8125 0 
L 27.59375 0 
Q 17.1875 0 13.234375 3.875 
Q 9.28125 7.765625 9.28125 18.015625 
L 9.28125 47.703125 
L 2.6875 47.703125 
L 2.6875 54.6875 
L 9.28125 54.6875 
L 9.28125 70.21875 
z
" id="DejaVuSans-74"/>
      <path d="M 56.203125 29.59375 
L 56.203125 25.203125 
L 14.890625 25.203125 
Q 15.484375 15.921875 20.484375 11.0625 
Q 25.484375 6.203125 34.421875 6.203125 
Q 39.59375 6.203125 44.453125 7.46875 
Q 49.3125 8.734375 54.109375 11.28125 
L 54.109375 2.78125 
Q 49.265625 0.734375 44.1875 -0.34375 
Q 39.109375 -1.421875 33.890625 -1.421875 
Q 20.796875 -1.421875 13.15625 6.1875 
Q 5.515625 13.8125 5.515625 26.8125 
Q 5.515625 40.234375 12.765625 48.109375 
Q 20.015625 56 32.328125 56 
Q 43.359375 56 49.78125 48.890625 
Q 56.203125 41.796875 56.203125 29.59375 
z
M 47.21875 32.234375 
Q 47.125 39.59375 43.09375 43.984375 
Q 39.0625 48.390625 32.421875 48.390625 
Q 24.90625 48.390625 20.390625 44.140625 
Q 15.875 39.890625 15.1875 32.171875 
z
" id="DejaVuSans-65"/>
     </defs>
     <g transform="translate(232.774917 338.140062)scale(0.1 -0.1)">
      <use xlink:href="#DejaVuSans-44"/>
      <use x="77.001953" xlink:href="#DejaVuSans-61"/>
      <use x="138.28125" xlink:href="#DejaVuSans-74"/>
      <use x="177.490234" xlink:href="#DejaVuSans-65"/>
     </g>
    </g>
   </g>
   <g id="matplotlib.axis_2">
    <g id="ytick_1">
     <g id="line2d_19">
      <path clip-path="url(#pc1799499cc)" d="M 42.51125 309.8635 
L 446.940147 309.8635 
" style="fill:none;stroke:#b0b0b0;stroke-linecap:square;stroke-width:0.8;"/>
     </g>
     <g id="line2d_20">
      <defs>
       <path d="M 0 0 
L -3.5 0 
" id="ma8a9bfc340" style="stroke:#000000;stroke-width:0.8;"/>
      </defs>
      <g>
       <use style="stroke:#000000;stroke-width:0.8;" x="42.51125" xlink:href="#ma8a9bfc340" y="309.8635"/>
      </g>
     </g>
     <g id="text_11">
      <!-- 0 -->
      <g transform="translate(29.14875 313.662719)scale(0.1 -0.1)">
       <use xlink:href="#DejaVuSans-30"/>
      </g>
     </g>
    </g>
    <g id="ytick_2">
     <g id="line2d_21">
      <path clip-path="url(#pc1799499cc)" d="M 42.51125 264.235462 
L 446.940147 264.235462 
" style="fill:none;stroke:#b0b0b0;stroke-linecap:square;stroke-width:0.8;"/>
     </g>
     <g id="line2d_22">
      <g>
       <use style="stroke:#000000;stroke-width:0.8;" x="42.51125" xlink:href="#ma8a9bfc340" y="264.235462"/>
      </g>
     </g>
     <g id="text_12">
      <!-- 100 -->
      <g transform="translate(16.42375 268.034681)scale(0.1 -0.1)">
       <use xlink:href="#DejaVuSans-31"/>
       <use x="63.623047" xlink:href="#DejaVuSans-30"/>
       <use x="127.246094" xlink:href="#DejaVuSans-30"/>
      </g>
     </g>
    </g>
    <g id="ytick_3">
     <g id="line2d_23">
      <path clip-path="url(#pc1799499cc)" d="M 42.51125 218.607424 
L 446.940147 218.607424 
" style="fill:none;stroke:#b0b0b0;stroke-linecap:square;stroke-width:0.8;"/>
     </g>
     <g id="line2d_24">
      <g>
       <use style="stroke:#000000;stroke-width:0.8;" x="42.51125" xlink:href="#ma8a9bfc340" y="218.607424"/>
      </g>
     </g>
     <g id="text_13">
      <!-- 200 -->
      <g transform="translate(16.42375 222.406643)scale(0.1 -0.1)">
       <use xlink:href="#DejaVuSans-32"/>
       <use x="63.623047" xlink:href="#DejaVuSans-30"/>
       <use x="127.246094" xlink:href="#DejaVuSans-30"/>
      </g>
     </g>
    </g>
    <g id="ytick_4">
     <g id="line2d_25">
      <path clip-path="url(#pc1799499cc)" d="M 42.51125 172.979386 
L 446.940147 172.979386 
" style="fill:none;stroke:#b0b0b0;stroke-linecap:square;stroke-width:0.8;"/>
     </g>
     <g id="line2d_26">
      <g>
       <use style="stroke:#000000;stroke-width:0.8;" x="42.51125" xlink:href="#ma8a9bfc340" y="172.979386"/>
      </g>
     </g>
     <g id="text_14">
      <!-- 300 -->
      <defs>
       <path d="M 40.578125 39.3125 
Q 47.65625 37.796875 51.625 33 
Q 55.609375 28.21875 55.609375 21.1875 
Q 55.609375 10.40625 48.1875 4.484375 
Q 40.765625 -1.421875 27.09375 -1.421875 
Q 22.515625 -1.421875 17.65625 -0.515625 
Q 12.796875 0.390625 7.625 2.203125 
L 7.625 11.71875 
Q 11.71875 9.328125 16.59375 8.109375 
Q 21.484375 6.890625 26.8125 6.890625 
Q 36.078125 6.890625 40.9375 10.546875 
Q 45.796875 14.203125 45.796875 21.1875 
Q 45.796875 27.640625 41.28125 31.265625 
Q 36.765625 34.90625 28.71875 34.90625 
L 20.21875 34.90625 
L 20.21875 43.015625 
L 29.109375 43.015625 
Q 36.375 43.015625 40.234375 45.921875 
Q 44.09375 48.828125 44.09375 54.296875 
Q 44.09375 59.90625 40.109375 62.90625 
Q 36.140625 65.921875 28.71875 65.921875 
Q 24.65625 65.921875 20.015625 65.03125 
Q 15.375 64.15625 9.8125 62.3125 
L 9.8125 71.09375 
Q 15.4375 72.65625 20.34375 73.4375 
Q 25.25 74.21875 29.59375 74.21875 
Q 40.828125 74.21875 47.359375 69.109375 
Q 53.90625 64.015625 53.90625 55.328125 
Q 53.90625 49.265625 50.4375 45.09375 
Q 46.96875 40.921875 40.578125 39.3125 
z
" id="DejaVuSans-33"/>
      </defs>
      <g transform="translate(16.42375 176.778605)scale(0.1 -0.1)">
       <use xlink:href="#DejaVuSans-33"/>
       <use x="63.623047" xlink:href="#DejaVuSans-30"/>
       <use x="127.246094" xlink:href="#DejaVuSans-30"/>
      </g>
     </g>
    </g>
    <g id="ytick_5">
     <g id="line2d_27">
      <path clip-path="url(#pc1799499cc)" d="M 42.51125 127.351348 
L 446.940147 127.351348 
" style="fill:none;stroke:#b0b0b0;stroke-linecap:square;stroke-width:0.8;"/>
     </g>
     <g id="line2d_28">
      <g>
       <use style="stroke:#000000;stroke-width:0.8;" x="42.51125" xlink:href="#ma8a9bfc340" y="127.351348"/>
      </g>
     </g>
     <g id="text_15">
      <!-- 400 -->
      <g transform="translate(16.42375 131.150567)scale(0.1 -0.1)">
       <use xlink:href="#DejaVuSans-34"/>
       <use x="63.623047" xlink:href="#DejaVuSans-30"/>
       <use x="127.246094" xlink:href="#DejaVuSans-30"/>
      </g>
     </g>
    </g>
    <g id="ytick_6">
     <g id="line2d_29">
      <path clip-path="url(#pc1799499cc)" d="M 42.51125 81.72331 
L 446.940147 81.72331 
" style="fill:none;stroke:#b0b0b0;stroke-linecap:square;stroke-width:0.8;"/>
     </g>
     <g id="line2d_30">
      <g>
       <use style="stroke:#000000;stroke-width:0.8;" x="42.51125" xlink:href="#ma8a9bfc340" y="81.72331"/>
      </g>
     </g>
     <g id="text_16">
      <!-- 500 -->
      <defs>
       <path d="M 10.796875 72.90625 
L 49.515625 72.90625 
L 49.515625 64.59375 
L 19.828125 64.59375 
L 19.828125 46.734375 
Q 21.96875 47.46875 24.109375 47.828125 
Q 26.265625 48.1875 28.421875 48.1875 
Q 40.625 48.1875 47.75 41.5 
Q 54.890625 34.8125 54.890625 23.390625 
Q 54.890625 11.625 47.5625 5.09375 
Q 40.234375 -1.421875 26.90625 -1.421875 
Q 22.3125 -1.421875 17.546875 -0.640625 
Q 12.796875 0.140625 7.71875 1.703125 
L 7.71875 11.625 
Q 12.109375 9.234375 16.796875 8.0625 
Q 21.484375 6.890625 26.703125 6.890625 
Q 35.15625 6.890625 40.078125 11.328125 
Q 45.015625 15.765625 45.015625 23.390625 
Q 45.015625 31 40.078125 35.4375 
Q 35.15625 39.890625 26.703125 39.890625 
Q 22.75 39.890625 18.8125 39.015625 
Q 14.890625 38.140625 10.796875 36.28125 
z
" id="DejaVuSans-35"/>
      </defs>
      <g transform="translate(16.42375 85.522529)scale(0.1 -0.1)">
       <use xlink:href="#DejaVuSans-35"/>
       <use x="63.623047" xlink:href="#DejaVuSans-30"/>
       <use x="127.246094" xlink:href="#DejaVuSans-30"/>
      </g>
     </g>
    </g>
    <g id="ytick_7">
     <g id="line2d_31">
      <path clip-path="url(#pc1799499cc)" d="M 42.51125 36.095273 
L 446.940147 36.095273 
" style="fill:none;stroke:#b0b0b0;stroke-linecap:square;stroke-width:0.8;"/>
     </g>
     <g id="line2d_32">
      <g>
       <use style="stroke:#000000;stroke-width:0.8;" x="42.51125" xlink:href="#ma8a9bfc340" y="36.095273"/>
      </g>
     </g>
     <g id="text_17">
      <!-- 600 -->
      <g transform="translate(16.42375 39.894491)scale(0.1 -0.1)">
       <use xlink:href="#DejaVuSans-36"/>
       <use x="63.623047" xlink:href="#DejaVuSans-30"/>
       <use x="127.246094" xlink:href="#DejaVuSans-30"/>
      </g>
     </g>
    </g>
    <g id="text_18">
     <!-- Gross load (MW) -->
     <defs>
      <path d="M 59.515625 10.40625 
L 59.515625 29.984375 
L 43.40625 29.984375 
L 43.40625 38.09375 
L 69.28125 38.09375 
L 69.28125 6.78125 
Q 63.578125 2.734375 56.6875 0.65625 
Q 49.8125 -1.421875 42 -1.421875 
Q 24.90625 -1.421875 15.25 8.5625 
Q 5.609375 18.5625 5.609375 36.375 
Q 5.609375 54.25 15.25 64.234375 
Q 24.90625 74.21875 42 74.21875 
Q 49.125 74.21875 55.546875 72.453125 
Q 61.96875 70.703125 67.390625 67.28125 
L 67.390625 56.78125 
Q 61.921875 61.421875 55.765625 63.765625 
Q 49.609375 66.109375 42.828125 66.109375 
Q 29.4375 66.109375 22.71875 58.640625 
Q 16.015625 51.171875 16.015625 36.375 
Q 16.015625 21.625 22.71875 14.15625 
Q 29.4375 6.6875 42.828125 6.6875 
Q 48.046875 6.6875 52.140625 7.59375 
Q 56.25 8.5 59.515625 10.40625 
z
" id="DejaVuSans-47"/>
      <path d="M 41.109375 46.296875 
Q 39.59375 47.171875 37.8125 47.578125 
Q 36.03125 48 33.890625 48 
Q 26.265625 48 22.1875 43.046875 
Q 18.109375 38.09375 18.109375 28.8125 
L 18.109375 0 
L 9.078125 0 
L 9.078125 54.6875 
L 18.109375 54.6875 
L 18.109375 46.1875 
Q 20.953125 51.171875 25.484375 53.578125 
Q 30.03125 56 36.53125 56 
Q 37.453125 56 38.578125 55.875 
Q 39.703125 55.765625 41.0625 55.515625 
z
" id="DejaVuSans-72"/>
      <path d="M 30.609375 48.390625 
Q 23.390625 48.390625 19.1875 42.75 
Q 14.984375 37.109375 14.984375 27.296875 
Q 14.984375 17.484375 19.15625 11.84375 
Q 23.34375 6.203125 30.609375 6.203125 
Q 37.796875 6.203125 41.984375 11.859375 
Q 46.1875 17.53125 46.1875 27.296875 
Q 46.1875 37.015625 41.984375 42.703125 
Q 37.796875 48.390625 30.609375 48.390625 
z
M 30.609375 56 
Q 42.328125 56 49.015625 48.375 
Q 55.71875 40.765625 55.71875 27.296875 
Q 55.71875 13.875 49.015625 6.21875 
Q 42.328125 -1.421875 30.609375 -1.421875 
Q 18.84375 -1.421875 12.171875 6.21875 
Q 5.515625 13.875 5.515625 27.296875 
Q 5.515625 40.765625 12.171875 48.375 
Q 18.84375 56 30.609375 56 
z
" id="DejaVuSans-6f"/>
      <path d="M 44.28125 53.078125 
L 44.28125 44.578125 
Q 40.484375 46.53125 36.375 47.5 
Q 32.28125 48.484375 27.875 48.484375 
Q 21.1875 48.484375 17.84375 46.4375 
Q 14.5 44.390625 14.5 40.28125 
Q 14.5 37.15625 16.890625 35.375 
Q 19.28125 33.59375 26.515625 31.984375 
L 29.59375 31.296875 
Q 39.15625 29.25 43.1875 25.515625 
Q 47.21875 21.78125 47.21875 15.09375 
Q 47.21875 7.46875 41.1875 3.015625 
Q 35.15625 -1.421875 24.609375 -1.421875 
Q 20.21875 -1.421875 15.453125 -0.5625 
Q 10.6875 0.296875 5.421875 2 
L 5.421875 11.28125 
Q 10.40625 8.6875 15.234375 7.390625 
Q 20.0625 6.109375 24.8125 6.109375 
Q 31.15625 6.109375 34.5625 8.28125 
Q 37.984375 10.453125 37.984375 14.40625 
Q 37.984375 18.0625 35.515625 20.015625 
Q 33.0625 21.96875 24.703125 23.78125 
L 21.578125 24.515625 
Q 13.234375 26.265625 9.515625 29.90625 
Q 5.8125 33.546875 5.8125 39.890625 
Q 5.8125 47.609375 11.28125 51.796875 
Q 16.75 56 26.8125 56 
Q 31.78125 56 36.171875 55.265625 
Q 40.578125 54.546875 44.28125 53.078125 
z
" id="DejaVuSans-73"/>
      <path id="DejaVuSans-20"/>
      <path d="M 9.421875 75.984375 
L 18.40625 75.984375 
L 18.40625 0 
L 9.421875 0 
z
" id="DejaVuSans-6c"/>
      <path d="M 45.40625 46.390625 
L 45.40625 75.984375 
L 54.390625 75.984375 
L 54.390625 0 
L 45.40625 0 
L 45.40625 8.203125 
Q 42.578125 3.328125 38.25 0.953125 
Q 33.9375 -1.421875 27.875 -1.421875 
Q 17.96875 -1.421875 11.734375 6.484375 
Q 5.515625 14.40625 5.515625 27.296875 
Q 5.515625 40.1875 11.734375 48.09375 
Q 17.96875 56 27.875 56 
Q 33.9375 56 38.25 53.625 
Q 42.578125 51.265625 45.40625 46.390625 
z
M 14.796875 27.296875 
Q 14.796875 17.390625 18.875 11.75 
Q 22.953125 6.109375 30.078125 6.109375 
Q 37.203125 6.109375 41.296875 11.75 
Q 45.40625 17.390625 45.40625 27.296875 
Q 45.40625 37.203125 41.296875 42.84375 
Q 37.203125 48.484375 30.078125 48.484375 
Q 22.953125 48.484375 18.875 42.84375 
Q 14.796875 37.203125 14.796875 27.296875 
z
" id="DejaVuSans-64"/>
      <path d="M 31 75.875 
Q 24.46875 64.65625 21.28125 53.65625 
Q 18.109375 42.671875 18.109375 31.390625 
Q 18.109375 20.125 21.3125 9.0625 
Q 24.515625 -2 31 -13.1875 
L 23.1875 -13.1875 
Q 15.875 -1.703125 12.234375 9.375 
Q 8.59375 20.453125 8.59375 31.390625 
Q 8.59375 42.28125 12.203125 53.3125 
Q 15.828125 64.359375 23.1875 75.875 
z
" id="DejaVuSans-28"/>
      <path d="M 9.8125 72.90625 
L 24.515625 72.90625 
L 43.109375 23.296875 
L 61.8125 72.90625 
L 76.515625 72.90625 
L 76.515625 0 
L 66.890625 0 
L 66.890625 64.015625 
L 48.09375 14.015625 
L 38.1875 14.015625 
L 19.390625 64.015625 
L 19.390625 0 
L 9.8125 0 
z
" id="DejaVuSans-4d"/>
      <path d="M 3.328125 72.90625 
L 13.28125 72.90625 
L 28.609375 11.28125 
L 43.890625 72.90625 
L 54.984375 72.90625 
L 70.3125 11.28125 
L 85.59375 72.90625 
L 95.609375 72.90625 
L 77.296875 0 
L 64.890625 0 
L 49.515625 63.28125 
L 33.984375 0 
L 21.578125 0 
z
" id="DejaVuSans-57"/>
      <path d="M 8.015625 75.875 
L 15.828125 75.875 
Q 23.140625 64.359375 26.78125 53.3125 
Q 30.421875 42.28125 30.421875 31.390625 
Q 30.421875 20.453125 26.78125 9.375 
Q 23.140625 -1.703125 15.828125 -13.1875 
L 8.015625 -13.1875 
Q 14.5 -2 17.703125 9.0625 
Q 20.90625 20.125 20.90625 31.390625 
Q 20.90625 42.671875 17.703125 53.65625 
Q 14.5 64.65625 8.015625 75.875 
z
" id="DejaVuSans-29"/>
     </defs>
     <g transform="translate(10.344062 207.835369)rotate(-90)scale(0.1 -0.1)">
      <use xlink:href="#DejaVuSans-47"/>
      <use x="77.490234" xlink:href="#DejaVuSans-72"/>
      <use x="118.572266" xlink:href="#DejaVuSans-6f"/>
      <use x="179.753906" xlink:href="#DejaVuSans-73"/>
      <use x="231.853516" xlink:href="#DejaVuSans-73"/>
      <use x="283.953125" xlink:href="#DejaVuSans-20"/>
      <use x="315.740234" xlink:href="#DejaVuSans-6c"/>
      <use x="343.523438" xlink:href="#DejaVuSans-6f"/>
      <use x="404.705078" xlink:href="#DejaVuSans-61"/>
      <use x="465.984375" xlink:href="#DejaVuSans-64"/>
      <use x="529.460938" xlink:href="#DejaVuSans-20"/>
      <use x="561.248047" xlink:href="#DejaVuSans-28"/>
      <use x="600.261719" xlink:href="#DejaVuSans-4d"/>
      <use x="686.541016" xlink:href="#DejaVuSans-57"/>
      <use x="785.417969" xlink:href="#DejaVuSans-29"/>
     </g>
    </g>
   </g>
   <g id="line2d_33">
    <path clip-path="url(#pc1799499cc)" d="M 42.51125 309.8635 
L 44.570934 238.22748 
L 46.564176 247.124948 
L 48.62386 309.8635 
L 50.617103 250.09077 
L 52.676787 309.8635 
L 54.73647 309.8635 
L 56.59683 224.995349 
L 58.656514 244.159125 
L 60.649756 309.8635 
L 62.70944 309.8635 
L 64.702683 183.701975 
L 66.762367 200.356209 
L 68.822051 212.675779 
L 70.815293 225.45163 
L 72.874977 309.8635 
L 74.868219 309.8635 
L 76.927903 288.190182 
L 78.987587 309.8635 
L 80.847947 243.474705 
L 82.907631 309.8635 
L 86.960557 309.8635 
L 88.9538 258.988238 
L 91.013483 179.367312 
L 93.073167 165.6789 
L 95.06641 224.539069 
L 97.126094 223.854649 
L 99.119336 309.8635 
L 103.238704 309.8635 
L 105.165505 244.159125 
L 107.225189 309.8635 
L 109.218431 309.8635 
L 111.278115 256.934976 
L 113.271358 242.790284 
L 115.331042 182.789414 
L 117.390725 185.070816 
L 119.383968 309.8635 
L 137.522474 309.8635 
L 139.582158 94.271021 
L 141.641842 108.415713 
L 143.635085 309.8635 
L 163.833275 309.8635 
L 165.892959 104.081049 
L 167.886201 104.537329 
L 169.945885 104.081049 
L 171.939128 123.244825 
L 173.998812 144.918143 
L 176.058496 309.8635 
L 181.971782 309.8635 
L 184.031465 129.17647 
L 186.024708 86.286114 
L 188.084392 72.597703 
L 190.144076 73.510264 
L 192.137318 89.936357 
L 194.197002 212.219499 
L 196.190244 309.8635 
L 198.249928 280.661556 
L 200.309612 309.8635 
L 208.349024 309.8635 
L 210.342266 82.179591 
L 212.40195 78.073067 
L 214.461634 78.985628 
L 216.454876 81.72331 
L 218.51456 309.8635 
L 232.60014 309.8635 
L 234.593383 129.63275 
L 236.653067 55.259048 
L 238.71275 56.62789 
L 240.705993 57.08417 
L 242.765677 215.413462 
L 244.758919 308.266519 
L 246.818603 309.8635 
L 256.851257 309.8635 
L 258.844499 97.693124 
L 260.904183 55.715329 
L 262.963867 55.715329 
L 264.95711 81.951451 
L 267.016794 309.8635 
L 281.102374 309.8635 
L 283.095616 146.515124 
L 285.1553 91.305198 
L 287.214984 56.85603 
L 289.208226 146.971405 
L 291.26791 309.8635 
L 303.360248 309.8635 
L 305.419932 301.650453 
L 307.413174 79.441909 
L 309.472858 56.171609 
L 311.532542 55.487189 
L 313.525785 80.354469 
L 315.585468 302.106734 
L 317.578711 309.8635 
L 329.671049 309.8635 
L 331.664291 56.171609 
L 333.723975 41.114357 
L 337.776901 71.000722 
L 339.836585 214.04462 
L 341.829828 224.539069 
L 343.889512 154.043751 
L 345.949195 214.04462 
L 347.809555 214.04462 
L 349.869239 309.8635 
L 351.862481 309.8635 
L 353.922165 224.995349 
L 355.915408 80.81075 
L 357.975092 52.065086 
L 360.034776 57.31231 
L 362.028018 79.670049 
L 364.087702 214.500901 
L 366.080944 220.432546 
L 368.140628 225.45163 
L 370.200312 224.995349 
L 372.060672 309.8635 
L 378.173282 309.8635 
L 380.166524 42.026918 
L 382.226208 56.62789 
L 384.285892 41.114357 
L 386.279135 79.898189 
L 388.338819 203.550172 
L 390.332061 204.006452 
L 392.391745 204.006452 
L 394.451429 209.025536 
L 396.37823 309.8635 
L 402.49084 309.8635 
L 404.484083 61.190693 
L 406.543767 40.658076 
L 408.60345 41.114357 
L 410.596693 56.62789 
L 412.656377 214.957181 
L 416.709303 226.820471 
L 418.768987 309.8635 
L 426.741957 309.8635 
L 428.735199 77.616787 
L 430.794883 40.658076 
L 432.854567 40.658076 
L 434.84781 80.81075 
L 436.907493 126.438788 
L 438.900736 208.341116 
L 440.96042 309.8635 
L 446.940147 309.8635 
L 446.940147 309.8635 
" style="fill:none;stroke:#1f77b4;stroke-linecap:square;stroke-width:1.5;"/>
   </g>
   <g id="patch_3">
    <path d="M 42.51125 309.8635 
L 42.51125 23.36505 
" style="fill:none;stroke:#000000;stroke-linecap:square;stroke-linejoin:miter;stroke-width:0.8;"/>
   </g>
   <g id="patch_4">
    <path d="M 446.940147 309.8635 
L 446.940147 23.36505 
" style="fill:none;stroke:#000000;stroke-linecap:square;stroke-linejoin:miter;stroke-width:0.8;"/>
   </g>
   <g id="patch_5">
    <path d="M 42.51125 309.8635 
L 446.940147 309.8635 
" style="fill:none;stroke:#000000;stroke-linecap:square;stroke-linejoin:miter;stroke-width:0.8;"/>
   </g>
   <g id="patch_6">
    <path d="M 42.51125 23.36505 
L 446.940147 23.36505 
" style="fill:none;stroke:#000000;stroke-linecap:square;stroke-linejoin:miter;stroke-width:0.8;"/>
   </g>
   <g id="text_19">
    <!-- Monthly gload trend -->
    <defs>
     <path d="M 54.890625 33.015625 
L 54.890625 0 
L 45.90625 0 
L 45.90625 32.71875 
Q 45.90625 40.484375 42.875 44.328125 
Q 39.84375 48.1875 33.796875 48.1875 
Q 26.515625 48.1875 22.3125 43.546875 
Q 18.109375 38.921875 18.109375 30.90625 
L 18.109375 0 
L 9.078125 0 
L 9.078125 54.6875 
L 18.109375 54.6875 
L 18.109375 46.1875 
Q 21.34375 51.125 25.703125 53.5625 
Q 30.078125 56 35.796875 56 
Q 45.21875 56 50.046875 50.171875 
Q 54.890625 44.34375 54.890625 33.015625 
z
" id="DejaVuSans-6e"/>
     <path d="M 54.890625 33.015625 
L 54.890625 0 
L 45.90625 0 
L 45.90625 32.71875 
Q 45.90625 40.484375 42.875 44.328125 
Q 39.84375 48.1875 33.796875 48.1875 
Q 26.515625 48.1875 22.3125 43.546875 
Q 18.109375 38.921875 18.109375 30.90625 
L 18.109375 0 
L 9.078125 0 
L 9.078125 75.984375 
L 18.109375 75.984375 
L 18.109375 46.1875 
Q 21.34375 51.125 25.703125 53.5625 
Q 30.078125 56 35.796875 56 
Q 45.21875 56 50.046875 50.171875 
Q 54.890625 44.34375 54.890625 33.015625 
z
" id="DejaVuSans-68"/>
     <path d="M 32.171875 -5.078125 
Q 28.375 -14.84375 24.75 -17.8125 
Q 21.140625 -20.796875 15.09375 -20.796875 
L 7.90625 -20.796875 
L 7.90625 -13.28125 
L 13.1875 -13.28125 
Q 16.890625 -13.28125 18.9375 -11.515625 
Q 21 -9.765625 23.484375 -3.21875 
L 25.09375 0.875 
L 2.984375 54.6875 
L 12.5 54.6875 
L 29.59375 11.921875 
L 46.6875 54.6875 
L 56.203125 54.6875 
z
" id="DejaVuSans-79"/>
     <path d="M 45.40625 27.984375 
Q 45.40625 37.75 41.375 43.109375 
Q 37.359375 48.484375 30.078125 48.484375 
Q 22.859375 48.484375 18.828125 43.109375 
Q 14.796875 37.75 14.796875 27.984375 
Q 14.796875 18.265625 18.828125 12.890625 
Q 22.859375 7.515625 30.078125 7.515625 
Q 37.359375 7.515625 41.375 12.890625 
Q 45.40625 18.265625 45.40625 27.984375 
z
M 54.390625 6.78125 
Q 54.390625 -7.171875 48.1875 -13.984375 
Q 42 -20.796875 29.203125 -20.796875 
Q 24.46875 -20.796875 20.265625 -20.09375 
Q 16.0625 -19.390625 12.109375 -17.921875 
L 12.109375 -9.1875 
Q 16.0625 -11.328125 19.921875 -12.34375 
Q 23.78125 -13.375 27.78125 -13.375 
Q 36.625 -13.375 41.015625 -8.765625 
Q 45.40625 -4.15625 45.40625 5.171875 
L 45.40625 9.625 
Q 42.625 4.78125 38.28125 2.390625 
Q 33.9375 0 27.875 0 
Q 17.828125 0 11.671875 7.65625 
Q 5.515625 15.328125 5.515625 27.984375 
Q 5.515625 40.671875 11.671875 48.328125 
Q 17.828125 56 27.875 56 
Q 33.9375 56 38.28125 53.609375 
Q 42.625 51.21875 45.40625 46.390625 
L 45.40625 54.6875 
L 54.390625 54.6875 
z
" id="DejaVuSans-67"/>
    </defs>
    <g transform="translate(184.135074 17.36505)scale(0.12 -0.12)">
     <use xlink:href="#DejaVuSans-4d"/>
     <use x="86.279297" xlink:href="#DejaVuSans-6f"/>
     <use x="147.460938" xlink:href="#DejaVuSans-6e"/>
     <use x="210.839844" xlink:href="#DejaVuSans-74"/>
     <use x="250.048828" xlink:href="#DejaVuSans-68"/>
     <use x="313.427734" xlink:href="#DejaVuSans-6c"/>
     <use x="341.210938" xlink:href="#DejaVuSans-79"/>
     <use x="400.390625" xlink:href="#DejaVuSans-20"/>
     <use x="432.177734" xlink:href="#DejaVuSans-67"/>
     <use x="495.654297" xlink:href="#DejaVuSans-6c"/>
     <use x="523.4375" xlink:href="#DejaVuSans-6f"/>
     <use x="584.619141" xlink:href="#DejaVuSans-61"/>
     <use x="645.898438" xlink:href="#DejaVuSans-64"/>
     <use x="709.375" xlink:href="#DejaVuSans-20"/>
     <use x="741.162109" xlink:href="#DejaVuSans-74"/>
     <use x="780.371094" xlink:href="#DejaVuSans-72"/>
     <use x="821.453125" xlink:href="#DejaVuSans-65"/>
     <use x="882.976562" xlink:href="#DejaVuSans-6e"/>
     <use x="946.355469" xlink:href="#DejaVuSans-64"/>
    </g>
   </g>
  </g>
 </g>
 <defs>
  <clipPath id="pc1799499cc">
   <rect height="286.49845" width="404.428897" x="42.51125" y="23.36505"/>
  </clipPath>
 </defs>
</svg>
