<?xml version="1.0" encoding="utf-8" standalone="no"?>
<!DOCTYPE svg PUBLIC "-//W3C//DTD SVG 1.1//EN"
  "http://www.w3.org/Graphics/SVG/1.1/DTD/svg11.dtd">
<!-- Created with matplotlib (http://matplotlib.org/) -->
<svg height="345.6pt" version="1.1" viewBox="0 0 460.8 345.6" width="460.8pt" xmlns="http://www.w3.org/2000/svg" xmlns:xlink="http://www.w3.org/1999/xlink">
 <defs>
  <style type="text/css">
*{stroke-linecap:butt;stroke-linejoin:round;}
  </style>
 </defs>
 <g id="figure_1">
  <g id="patch_1">
   <path d="M 0 345.6 
L 460.8 345.6 
L 460.8 0 
L 0 0 
z
" style="fill:none;"/>
  </g>
  <g id="axes_1">
   <g id="patch_2">
    <path d="M 31.543 309.8635 
L 446.91955 309.8635 
L 446.91955 23.36505 
L 31.543 23.36505 
z
" style="fill:none;"/>
   </g>
   <g id="PolyCollection_1">
    <path clip-path="url(#pb9e1f31f0a)" d="M 31.543 309.8635 
L 31.543 309.8635 
L 33.658438 309.8635 
L 35.705637 309.8635 
L 37.821075 309.8635 
L 39.868273 309.8635 
L 41.983712 256.844152 
L 44.09915 309.8635 
L 46.009868 255.119946 
L 48.125307 309.8635 
L 50.172505 309.8635 
L 52.287944 309.8635 
L 54.335142 309.8635 
L 56.45058 309.8635 
L 58.566019 257.706256 
L 60.613217 256.844152 
L 62.728655 255.550998 
L 64.775854 309.8635 
L 66.891292 252.964688 
L 69.00673 309.8635 
L 70.917449 309.8635 
L 73.032887 309.8635 
L 75.080085 309.8635 
L 77.195524 309.8635 
L 79.242722 309.8635 
L 81.35816 309.8635 
L 83.473599 309.8635 
L 85.520797 309.8635 
L 87.636235 309.8635 
L 89.683434 309.8635 
L 91.798872 309.8635 
L 93.91431 309.8635 
L 95.893269 309.8635 
L 98.008707 309.8635 
L 100.055906 309.8635 
L 102.171344 309.8635 
L 104.218542 309.8635 
L 106.333981 309.8635 
L 108.449419 309.8635 
L 110.496617 309.8635 
L 112.612056 309.8635 
L 114.659254 309.8635 
L 116.774692 309.8635 
L 118.890131 309.8635 
L 120.800849 309.8635 
L 122.916287 309.8635 
L 124.963486 309.8635 
L 127.078924 309.8635 
L 129.126122 309.8635 
L 131.241561 309.8635 
L 133.356999 309.8635 
L 135.404197 309.8635 
L 137.519636 309.8635 
L 139.566834 309.8635 
L 141.682272 309.8635 
L 143.797711 309.8635 
L 145.708429 309.8635 
L 147.823868 309.8635 
L 149.871066 309.8635 
L 151.986504 309.8635 
L 154.033703 309.8635 
L 156.149141 309.8635 
L 158.264579 309.8635 
L 160.311778 309.8635 
L 162.427216 309.8635 
L 164.474414 309.8635 
L 166.589853 309.8635 
L 168.705291 309.8635 
L 170.616009 309.8635 
L 172.731448 309.8635 
L 174.778646 309.8635 
L 176.894084 309.8635 
L 178.941283 309.8635 
L 181.056721 309.8635 
L 183.172159 309.8635 
L 185.219358 309.8635 
L 187.334796 309.8635 
L 189.381994 309.8635 
L 191.497433 309.8635 
L 193.612871 309.8635 
L 195.59183 309.8635 
L 197.707268 309.8635 
L 199.754466 309.8635 
L 201.869905 309.8635 
L 203.917103 309.8635 
L 206.032541 309.8635 
L 208.14798 309.8635 
L 210.195178 309.8635 
L 212.310616 309.8635 
L 214.357815 309.8635 
L 216.473253 309.8635 
L 218.588691 309.8635 
L 220.49941 309.8635 
L 222.614848 309.8635 
L 224.662046 309.8635 
L 226.777485 309.8635 
L 228.824683 309.8635 
L 230.940121 309.8635 
L 233.05556 309.8635 
L 235.102758 309.8635 
L 237.218196 309.8635 
L 239.265395 309.8635 
L 241.380833 309.8635 
L 243.496271 309.8635 
L 245.40699 309.8635 
L 247.522428 309.8635 
L 249.569627 309.8635 
L 251.685065 309.8635 
L 253.732263 309.8635 
L 255.847702 309.8635 
L 257.96314 309.8635 
L 260.010338 309.8635 
L 262.125777 309.8635 
L 264.172975 309.8635 
L 266.288413 309.8635 
L 268.403852 309.8635 
L 270.31457 309.8635 
L 272.430008 309.8635 
L 274.477207 309.8635 
L 276.592645 309.8635 
L 278.639844 309.8635 
L 280.755282 309.8635 
L 282.87072 309.8635 
L 284.917919 309.8635 
L 287.033357 309.8635 
L 289.080555 309.8635 
L 291.195994 309.8635 
L 293.311432 309.8635 
L 295.29039 309.8635 
L 297.405829 309.8635 
L 299.453027 309.8635 
L 301.568465 309.8635 
L 303.615664 309.8635 
L 305.731102 309.8635 
L 307.84654 227.532643 
L 309.893739 309.8635 
L 312.009177 309.8635 
L 314.056375 309.8635 
L 316.171814 309.8635 
L 318.287252 309.8635 
L 320.19797 309.8635 
L 322.313409 309.8635 
L 324.360607 309.8635 
L 326.476045 309.8635 
L 328.523244 309.8635 
L 330.638682 309.8635 
L 332.75412 309.8635 
L 334.801319 309.8635 
L 336.916757 309.8635 
L 338.963956 309.8635 
L 341.079394 309.8635 
L 343.194832 309.8635 
L 345.105551 309.8635 
L 347.220989 309.8635 
L 349.268187 309.8635 
L 351.383626 309.8635 
L 353.430824 309.8635 
L 355.546262 235.722624 
L 357.661701 227.101592 
L 359.708899 309.8635 
L 361.824337 309.8635 
L 363.871536 309.8635 
L 365.986974 309.8635 
L 368.102412 309.8635 
L 370.013131 309.8635 
L 372.128569 309.8635 
L 374.175768 309.8635 
L 376.291206 309.8635 
L 378.338404 309.8635 
L 380.453843 309.8635 
L 382.569281 309.8635 
L 384.616479 309.8635 
L 386.731918 309.8635 
L 388.779116 309.8635 
L 390.894554 309.8635 
L 393.009993 309.8635 
L 394.988951 309.8635 
L 397.104389 309.8635 
L 399.151588 309.8635 
L 401.267026 309.8635 
L 403.314224 309.8635 
L 405.429663 309.8635 
L 407.545101 309.8635 
L 409.592299 309.8635 
L 411.707738 309.8635 
L 413.754936 309.8635 
L 415.870374 309.8635 
L 417.985813 309.8635 
L 419.896531 309.8635 
L 422.01197 309.8635 
L 424.059168 309.8635 
L 426.174606 309.8635 
L 428.221805 309.8635 
L 430.337243 309.8635 
L 432.452681 309.8635 
L 434.49988 309.8635 
L 436.615318 309.8635 
L 438.662516 309.8635 
L 440.777955 309.8635 
L 442.893393 309.8635 
L 444.804111 309.8635 
L 446.91955 309.8635 
L 446.91955 51.663588 
L 446.91955 51.663588 
L 444.804111 53.387794 
L 442.893393 309.8635 
L 440.777955 46.490969 
L 438.662516 87.00982 
L 436.615318 309.8635 
L 434.49988 58.991465 
L 432.452681 63.733033 
L 430.337243 63.733033 
L 428.221805 58.560414 
L 426.174606 184.858534 
L 424.059168 290.897229 
L 422.01197 180.97907 
L 419.896531 309.8635 
L 417.985813 178.823812 
L 415.870374 180.548018 
L 413.754936 184.427483 
L 411.707738 185.720637 
L 409.592299 187.013792 
L 407.545101 188.737999 
L 405.429663 64.595136 
L 403.314224 55.974104 
L 401.267026 52.956743 
L 399.151588 48.215175 
L 397.104389 48.646227 
L 394.988951 121.493948 
L 393.009993 178.39276 
L 390.894554 174.513296 
L 388.779116 175.806451 
L 386.731918 56.405156 
L 384.616479 64.595136 
L 382.569281 65.457239 
L 380.453843 65.457239 
L 378.338404 61.577775 
L 376.291206 51.232536 
L 374.175768 50.801485 
L 372.128569 58.129362 
L 370.013131 182.272225 
L 368.102412 45.197814 
L 365.986974 46.059917 
L 363.871536 180.116967 
L 361.824337 56.836207 
L 359.708899 65.026188 
L 357.661701 62.87093 
L 355.546262 61.577775 
L 353.430824 60.715672 
L 351.383626 61.146723 
L 349.268187 60.28462 
L 347.220989 309.8635 
L 345.105551 203.393753 
L 343.194832 309.8635 
L 341.079394 309.8635 
L 338.963956 309.8635 
L 336.916757 309.8635 
L 334.801319 63.301981 
L 332.75412 61.577775 
L 330.638682 63.733033 
L 328.523244 61.146723 
L 326.476045 59.853568 
L 324.360607 63.301981 
L 322.313409 184.427483 
L 320.19797 309.8635 
L 318.287252 50.370433 
L 316.171814 309.8635 
L 314.056375 309.8635 
L 312.009177 57.69831 
L 309.893739 59.853568 
L 307.84654 62.87093 
L 305.731102 58.991465 
L 303.615664 63.301981 
L 301.568465 184.858534 
L 299.453027 186.582741 
L 297.405829 184.858534 
L 295.29039 196.927979 
L 293.311432 179.254863 
L 291.195994 198.652186 
L 289.080555 309.8635 
L 287.033357 58.991465 
L 284.917919 64.595136 
L 282.87072 65.888291 
L 280.755282 62.008826 
L 278.639844 59.853568 
L 276.592645 52.956743 
L 274.477207 54.680949 
L 272.430008 309.8635 
L 270.31457 193.048515 
L 268.403852 183.134328 
L 266.288413 179.685915 
L 264.172975 181.841173 
L 262.125777 54.249898 
L 260.010338 60.28462 
L 257.96314 64.164085 
L 255.847702 64.164085 
L 253.732263 56.405156 
L 251.685065 56.836207 
L 249.569627 182.703276 
L 247.522428 48.646227 
L 245.40699 53.818846 
L 243.496271 56.405156 
L 241.380833 54.249898 
L 239.265395 52.956743 
L 237.218196 53.818846 
L 235.102758 55.974104 
L 233.05556 60.715672 
L 230.940121 62.87093 
L 228.824683 63.733033 
L 226.777485 187.444844 
L 224.662046 185.720637 
L 222.614848 58.129362 
L 220.49941 180.97907 
L 218.588691 179.685915 
L 216.473253 52.956743 
L 214.357815 53.818846 
L 212.310616 58.560414 
L 210.195178 58.560414 
L 208.14798 62.87093 
L 206.032541 62.87093 
L 203.917103 55.112001 
L 201.869905 60.28462 
L 199.754466 51.232536 
L 197.707268 56.836207 
L 195.59183 49.50833 
L 193.612871 49.077278 
L 191.497433 46.490969 
L 189.381994 50.370433 
L 187.334796 51.232536 
L 185.219358 55.112001 
L 183.172159 64.164085 
L 181.056721 59.422517 
L 178.941283 57.267259 
L 176.894084 56.405156 
L 174.778646 54.249898 
L 172.731448 53.818846 
L 170.616009 48.646227 
L 168.705291 54.249898 
L 166.589853 54.680949 
L 164.474414 52.525691 
L 162.427216 56.405156 
L 160.311778 57.69831 
L 158.264579 61.146723 
L 156.149141 59.422517 
L 154.033703 57.69831 
L 151.986504 184.858534 
L 149.871066 182.272225 
L 147.823868 83.561407 
L 145.708429 52.525691 
L 143.797711 52.09464 
L 141.682272 48.215175 
L 139.566834 51.232536 
L 137.519636 54.680949 
L 135.404197 62.008826 
L 133.356999 64.595136 
L 131.241561 63.733033 
L 129.126122 60.715672 
L 127.078924 60.28462 
L 124.963486 55.112001 
L 122.916287 46.490969 
L 120.800849 45.197814 
L 118.890131 44.766762 
L 116.774692 45.197814 
L 114.659254 46.059917 
L 112.612056 51.663588 
L 110.496617 53.818846 
L 108.449419 57.69831 
L 106.333981 55.974104 
L 104.218542 41.318349 
L 102.171344 38.73204 
L 100.055906 37.007833 
L 98.008707 121.925 
L 95.893269 121.925 
L 93.91431 150.805457 
L 91.798872 148.650199 
L 89.683434 155.115973 
L 87.636235 159.426489 
L 85.520797 164.599109 
L 83.473599 165.892264 
L 81.35816 164.599109 
L 79.242722 162.443851 
L 77.195524 160.719644 
L 75.080085 156.409128 
L 73.032887 155.547025 
L 70.917449 309.8635 
L 69.00673 154.684922 
L 66.891292 151.236509 
L 64.775854 155.978077 
L 62.728655 162.012799 
L 60.613217 163.737006 
L 58.566019 163.305954 
L 56.45058 165.892264 
L 54.335142 163.305954 
L 52.287944 156.409128 
L 50.172505 158.564386 
L 48.125307 155.978077 
L 46.009868 154.684922 
L 44.09915 151.667561 
L 41.983712 158.995438 
L 39.868273 156.409128 
L 37.821075 154.25387 
L 35.705637 234.860521 
L 33.658438 309.8635 
L 31.543 309.8635 
z
" style="fill:#808080;fill-opacity:0.3;"/>
   </g>
   <g id="PolyCollection_2">
    <path clip-path="url(#pb9e1f31f0a)" d="M 31.543 309.8635 
L 31.543 309.8635 
L 33.658438 309.8635 
L 35.705637 309.8635 
L 37.821075 309.8635 
L 39.868273 236.153675 
L 41.983712 205.11796 
L 44.09915 255.550998 
L 46.009868 190.462205 
L 48.125307 235.291572 
L 50.172505 235.291572 
L 52.287944 202.100598 
L 54.335142 256.844152 
L 56.45058 204.686908 
L 58.566019 205.11796 
L 60.613217 194.880484 
L 62.728655 177.207368 
L 64.775854 232.813025 
L 66.891292 193.156278 
L 69.00673 252.102585 
L 70.917449 309.8635 
L 73.032887 202.53165 
L 75.080085 201.77731 
L 77.195524 309.8635 
L 79.242722 258.137307 
L 81.35816 194.880484 
L 83.473599 212.014785 
L 85.520797 252.533636 
L 87.636235 251.456007 
L 89.683434 255.658761 
L 91.798872 309.8635 
L 93.91431 309.8635 
L 95.893269 309.8635 
L 98.008707 255.550998 
L 100.055906 260.723617 
L 102.171344 309.8635 
L 104.218542 309.8635 
L 106.333981 215.89425 
L 108.449419 309.8635 
L 110.496617 309.8635 
L 112.612056 309.8635 
L 114.659254 162.120562 
L 116.774692 210.721631 
L 118.890131 216.002013 
L 120.800849 212.5536 
L 122.916287 212.876889 
L 124.963486 309.8635 
L 127.078924 309.8635 
L 129.126122 290.681704 
L 131.241561 244.12813 
L 133.356999 226.239488 
L 135.404197 309.8635 
L 137.519636 224.730808 
L 139.566834 264.710844 
L 141.682272 309.8635 
L 143.797711 309.8635 
L 145.708429 309.8635 
L 147.823868 309.8635 
L 149.871066 309.8635 
L 151.986504 309.8635 
L 154.033703 309.8635 
L 156.149141 309.8635 
L 158.264579 309.8635 
L 160.311778 309.8635 
L 162.427216 309.8635 
L 164.474414 309.8635 
L 166.589853 309.8635 
L 168.705291 309.8635 
L 170.616009 309.8635 
L 172.731448 309.8635 
L 174.778646 309.8635 
L 176.894084 309.8635 
L 178.941283 309.8635 
L 181.056721 309.8635 
L 183.172159 309.8635 
L 185.219358 309.8635 
L 187.334796 265.572947 
L 189.381994 309.8635 
L 191.497433 309.8635 
L 193.612871 309.8635 
L 195.59183 309.8635 
L 197.707268 309.8635 
L 199.754466 309.8635 
L 201.869905 309.8635 
L 203.917103 309.8635 
L 206.032541 309.8635 
L 208.14798 309.8635 
L 210.195178 309.8635 
L 212.310616 309.8635 
L 214.357815 309.8635 
L 216.473253 309.8635 
L 218.588691 309.8635 
L 220.49941 309.8635 
L 222.614848 309.8635 
L 224.662046 309.8635 
L 226.777485 309.8635 
L 228.824683 309.8635 
L 230.940121 309.8635 
L 233.05556 309.8635 
L 235.102758 309.8635 
L 237.218196 309.8635 
L 239.265395 309.8635 
L 241.380833 309.8635 
L 243.496271 309.8635 
L 245.40699 309.8635 
L 247.522428 309.8635 
L 249.569627 309.8635 
L 251.685065 309.8635 
L 253.732263 309.8635 
L 255.847702 309.8635 
L 257.96314 295.315508 
L 260.010338 308.570345 
L 262.125777 309.8635 
L 264.172975 309.8635 
L 266.288413 309.8635 
L 268.403852 309.8635 
L 270.31457 309.8635 
L 272.430008 309.8635 
L 274.477207 309.8635 
L 276.592645 309.8635 
L 278.639844 309.8635 
L 280.755282 306.415087 
L 282.87072 206.518877 
L 284.917919 309.8635 
L 287.033357 309.8635 
L 289.080555 309.8635 
L 291.195994 309.8635 
L 293.311432 309.8635 
L 295.29039 309.8635 
L 297.405829 309.8635 
L 299.453027 309.8635 
L 301.568465 309.8635 
L 303.615664 309.8635 
L 305.731102 154.361633 
L 307.84654 133.563393 
L 309.893739 309.8635 
L 312.009177 309.8635 
L 314.056375 309.8635 
L 316.171814 309.8635 
L 318.287252 309.8635 
L 320.19797 309.8635 
L 322.313409 309.8635 
L 324.360607 309.8635 
L 326.476045 309.8635 
L 328.523244 309.8635 
L 330.638682 150.374406 
L 332.75412 151.344272 
L 334.801319 309.8635 
L 336.916757 309.8635 
L 338.963956 309.8635 
L 341.079394 309.8635 
L 343.194832 309.8635 
L 345.105551 309.8635 
L 347.220989 309.8635 
L 349.268187 309.8635 
L 351.383626 309.8635 
L 353.430824 224.946334 
L 355.546262 155.978077 
L 357.661701 210.290579 
L 359.708899 225.808437 
L 361.824337 309.8635 
L 363.871536 309.8635 
L 365.986974 309.8635 
L 368.102412 309.8635 
L 370.013131 309.8635 
L 372.128569 309.8635 
L 374.175768 309.8635 
L 376.291206 309.8635 
L 378.338404 209.644002 
L 380.453843 205.11796 
L 382.569281 155.654788 
L 384.616479 151.344272 
L 386.731918 309.8635 
L 388.779116 309.8635 
L 390.894554 309.8635 
L 393.009993 309.8635 
L 394.988951 309.8635 
L 397.104389 267.943731 
L 399.151588 302.535623 
L 401.267026 309.8635 
L 403.314224 306.953902 
L 405.429663 309.8635 
L 407.545101 309.8635 
L 409.592299 309.8635 
L 411.707738 309.8635 
L 413.754936 309.8635 
L 415.870374 309.8635 
L 417.985813 309.8635 
L 419.896531 309.8635 
L 422.01197 309.8635 
L 424.059168 309.8635 
L 426.174606 309.8635 
L 428.221805 309.8635 
L 430.337243 221.605684 
L 432.452681 224.299756 
L 434.49988 309.8635 
L 436.615318 309.8635 
L 438.662516 309.8635 
L 440.777955 309.8635 
L 442.893393 309.8635 
L 444.804111 309.8635 
L 446.91955 309.8635 
L 446.91955 309.8635 
L 446.91955 309.8635 
L 444.804111 308.139294 
L 442.893393 309.8635 
L 440.777955 172.681326 
L 438.662516 309.8635 
L 436.615318 309.8635 
L 434.49988 105.868327 
L 432.452681 73.539457 
L 430.337243 73.216168 
L 428.221805 117.291195 
L 426.174606 229.687901 
L 424.059168 309.8635 
L 422.01197 309.8635 
L 419.896531 309.8635 
L 417.985813 309.8635 
L 415.870374 309.8635 
L 413.754936 231.843159 
L 411.707738 309.8635 
L 409.592299 207.165455 
L 407.545101 193.479566 
L 405.429663 98.755976 
L 403.314224 69.336704 
L 401.267026 233.567366 
L 399.151588 85.608902 
L 397.104389 151.990849 
L 394.988951 309.8635 
L 393.009993 309.8635 
L 390.894554 225.808437 
L 388.779116 309.8635 
L 386.731918 93.044542 
L 384.616479 71.491962 
L 382.569281 72.785117 
L 380.453843 71.491962 
L 378.338404 70.629859 
L 376.291206 168.909625 
L 374.175768 127.420908 
L 372.128569 309.8635 
L 370.013131 309.8635 
L 368.102412 150.374406 
L 365.986974 183.565379 
L 363.871536 309.8635 
L 361.824337 117.398958 
L 359.708899 93.475594 
L 357.661701 98.54045 
L 355.546262 73.539457 
L 353.430824 81.08286 
L 351.383626 309.8635 
L 349.268187 309.8635 
L 347.220989 309.8635 
L 345.105551 309.8635 
L 343.194832 309.8635 
L 341.079394 309.8635 
L 338.963956 309.8635 
L 336.916757 309.8635 
L 334.801319 196.389165 
L 332.75412 72.785117 
L 330.638682 74.078271 
L 328.523244 212.769126 
L 326.476045 309.8635 
L 324.360607 309.8635 
L 322.313409 309.8635 
L 320.19797 309.8635 
L 318.287252 309.8635 
L 316.171814 309.8635 
L 314.056375 309.8635 
L 312.009177 309.8635 
L 309.893739 229.687901 
L 307.84654 68.905652 
L 305.731102 68.905652 
L 303.615664 190.893257 
L 301.568465 203.393753 
L 299.453027 227.532643 
L 297.405829 309.8635 
L 295.29039 309.8635 
L 293.311432 211.907023 
L 291.195994 309.8635 
L 289.080555 309.8635 
L 287.033357 309.8635 
L 284.917919 258.029544 
L 282.87072 74.078271 
L 280.755282 102.527677 
L 278.639844 309.8635 
L 276.592645 309.8635 
L 274.477207 309.8635 
L 272.430008 309.8635 
L 270.31457 309.8635 
L 268.403852 309.8635 
L 266.288413 309.8635 
L 264.172975 309.8635 
L 262.125777 202.854939 
L 260.010338 94.229934 
L 257.96314 99.941368 
L 255.847702 99.941368 
L 253.732263 95.523089 
L 251.685065 224.946334 
L 249.569627 309.8635 
L 247.522428 309.8635 
L 245.40699 217.295168 
L 243.496271 309.8635 
L 241.380833 204.255857 
L 239.265395 201.669547 
L 237.218196 146.06389 
L 235.102758 119.661979 
L 233.05556 136.04194 
L 230.940121 101.988863 
L 228.824683 257.275204 
L 226.777485 203.824805 
L 224.662046 309.8635 
L 222.614848 201.669547 
L 220.49941 309.8635 
L 218.588691 309.8635 
L 216.473253 194.34167 
L 214.357815 200.268629 
L 212.310616 271.068855 
L 210.195178 94.768749 
L 208.14798 102.527677 
L 206.032541 99.941368 
L 203.917103 98.217161 
L 201.869905 135.610888 
L 199.754466 184.427483 
L 197.707268 309.8635 
L 195.59183 158.133335 
L 193.612871 153.715056 
L 191.497433 152.529664 
L 189.381994 130.869321 
L 187.334796 86.147716 
L 185.219358 94.337697 
L 183.172159 102.419915 
L 181.056721 128.821825 
L 178.941283 97.678347 
L 176.894084 94.337697 
L 174.778646 238.20117 
L 172.731448 256.844152 
L 170.616009 190.893257 
L 168.705291 211.583734 
L 166.589853 191.432071 
L 164.474414 199.083237 
L 162.427216 202.208361 
L 160.311778 118.476587 
L 158.264579 97.355058 
L 156.149141 99.833605 
L 154.033703 189.16905 
L 151.986504 202.962702 
L 149.871066 210.182816 
L 147.823868 309.8635 
L 145.708429 148.111385 
L 143.797711 101.665574 
L 141.682272 164.922397 
L 139.566834 83.992458 
L 137.519636 89.165078 
L 135.404197 143.369817 
L 133.356999 97.78611 
L 131.241561 92.936779 
L 129.126122 100.695708 
L 127.078924 105.868327 
L 124.963486 196.927979 
L 122.916287 95.092037 
L 120.800849 94.337697 
L 118.890131 83.561407 
L 116.774692 80.005231 
L 114.659254 80.112994 
L 112.612056 112.441864 
L 110.496617 96.924007 
L 108.449419 92.613491 
L 106.333981 92.182439 
L 104.218542 167.185418 
L 102.171344 208.135321 
L 100.055906 177.961709 
L 98.008707 161.150696 
L 95.893269 228.394746 
L 93.91431 233.998417 
L 91.798872 177.853946 
L 89.683434 164.922397 
L 87.636235 167.61647 
L 85.520797 169.771728 
L 83.473599 170.20278 
L 81.35816 169.340676 
L 79.242722 166.754367 
L 77.195524 236.584727 
L 75.080085 161.150696 
L 73.032887 162.443851 
L 70.917449 309.8635 
L 69.00673 162.874902 
L 66.891292 162.443851 
L 64.775854 163.737006 
L 62.728655 164.168057 
L 60.613217 168.478573 
L 58.566019 169.771728 
L 56.45058 170.20278 
L 54.335142 167.61647 
L 52.287944 163.305954 
L 50.172505 162.874902 
L 48.125307 166.323315 
L 46.009868 162.012799 
L 44.09915 179.254863 
L 41.983712 161.581747 
L 39.868273 162.443851 
L 37.821075 165.03016 
L 35.705637 257.275204 
L 33.658438 309.8635 
L 31.543 309.8635 
z
" style="fill:#808080;fill-opacity:0.6;"/>
   </g>
   <g id="matplotlib.axis_1">
    <g id="xtick_1">
     <g id="line2d_1">
      <path clip-path="url(#pb9e1f31f0a)" d="M 42.051952 309.8635 
L 42.051952 23.36505 
" style="fill:none;stroke:#b0b0b0;stroke-linecap:square;stroke-width:0.8;"/>
     </g>
     <g id="line2d_2">
      <defs>
       <path d="M 0 0 
L 0 3.5 
" id="me7e6c9469d" style="stroke:#000000;stroke-width:0.8;"/>
      </defs>
      <g>
       <use style="stroke:#000000;stroke-width:0.8;" x="42.051952" xlink:href="#me7e6c9469d" y="309.8635"/>
      </g>
     </g>
     <g id="text_1">
      <!-- 2002 -->
      <defs>
       <path d="M 19.1875 8.296875 
L 53.609375 8.296875 
L 53.609375 0 
L 7.328125 0 
L 7.328125 8.296875 
Q 12.9375 14.109375 22.625 23.890625 
Q 32.328125 33.6875 34.8125 36.53125 
Q 39.546875 41.84375 41.421875 45.53125 
Q 43.3125 49.21875 43.3125 52.78125 
Q 43.3125 58.59375 39.234375 62.25 
Q 35.15625 65.921875 28.609375 65.921875 
Q 23.96875 65.921875 18.8125 64.3125 
Q 13.671875 62.703125 7.8125 59.421875 
L 7.8125 69.390625 
Q 13.765625 71.78125 18.9375 73 
Q 24.125 74.21875 28.421875 74.21875 
Q 39.75 74.21875 46.484375 68.546875 
Q 53.21875 62.890625 53.21875 53.421875 
Q 53.21875 48.921875 51.53125 44.890625 
Q 49.859375 40.875 45.40625 35.40625 
Q 44.1875 33.984375 37.640625 27.21875 
Q 31.109375 20.453125 19.1875 8.296875 
z
" id="DejaVuSans-32"/>
       <path d="M 31.78125 66.40625 
Q 24.171875 66.40625 20.328125 58.90625 
Q 16.5 51.421875 16.5 36.375 
Q 16.5 21.390625 20.328125 13.890625 
Q 24.171875 6.390625 31.78125 6.390625 
Q 39.453125 6.390625 43.28125 13.890625 
Q 47.125 21.390625 47.125 36.375 
Q 47.125 51.421875 43.28125 58.90625 
Q 39.453125 66.40625 31.78125 66.40625 
z
M 31.78125 74.21875 
Q 44.046875 74.21875 50.515625 64.515625 
Q 56.984375 54.828125 56.984375 36.375 
Q 56.984375 17.96875 50.515625 8.265625 
Q 44.046875 -1.421875 31.78125 -1.421875 
Q 19.53125 -1.421875 13.0625 8.265625 
Q 6.59375 17.96875 6.59375 36.375 
Q 6.59375 54.828125 13.0625 64.515625 
Q 19.53125 74.21875 31.78125 74.21875 
z
" id="DejaVuSans-30"/>
      </defs>
      <g transform="translate(29.326952 324.461937)scale(0.1 -0.1)">
       <use xlink:href="#DejaVuSans-32"/>
       <use x="63.623047" xlink:href="#DejaVuSans-30"/>
       <use x="127.246094" xlink:href="#DejaVuSans-30"/>
       <use x="190.869141" xlink:href="#DejaVuSans-32"/>
      </g>
     </g>
    </g>
    <g id="xtick_2">
     <g id="line2d_3">
      <path clip-path="url(#pb9e1f31f0a)" d="M 91.867112 309.8635 
L 91.867112 23.36505 
" style="fill:none;stroke:#b0b0b0;stroke-linecap:square;stroke-width:0.8;"/>
     </g>
     <g id="line2d_4">
      <g>
       <use style="stroke:#000000;stroke-width:0.8;" x="91.867112" xlink:href="#me7e6c9469d" y="309.8635"/>
      </g>
     </g>
     <g id="text_2">
      <!-- 2004 -->
      <defs>
       <path d="M 37.796875 64.3125 
L 12.890625 25.390625 
L 37.796875 25.390625 
z
M 35.203125 72.90625 
L 47.609375 72.90625 
L 47.609375 25.390625 
L 58.015625 25.390625 
L 58.015625 17.1875 
L 47.609375 17.1875 
L 47.609375 0 
L 37.796875 0 
L 37.796875 17.1875 
L 4.890625 17.1875 
L 4.890625 26.703125 
z
" id="DejaVuSans-34"/>
      </defs>
      <g transform="translate(79.142112 324.461937)scale(0.1 -0.1)">
       <use xlink:href="#DejaVuSans-32"/>
       <use x="63.623047" xlink:href="#DejaVuSans-30"/>
       <use x="127.246094" xlink:href="#DejaVuSans-30"/>
       <use x="190.869141" xlink:href="#DejaVuSans-34"/>
      </g>
     </g>
    </g>
    <g id="xtick_3">
     <g id="line2d_5">
      <path clip-path="url(#pb9e1f31f0a)" d="M 141.750512 309.8635 
L 141.750512 23.36505 
" style="fill:none;stroke:#b0b0b0;stroke-linecap:square;stroke-width:0.8;"/>
     </g>
     <g id="line2d_6">
      <g>
       <use style="stroke:#000000;stroke-width:0.8;" x="141.750512" xlink:href="#me7e6c9469d" y="309.8635"/>
      </g>
     </g>
     <g id="text_3">
      <!-- 2006 -->
      <defs>
       <path d="M 33.015625 40.375 
Q 26.375 40.375 22.484375 35.828125 
Q 18.609375 31.296875 18.609375 23.390625 
Q 18.609375 15.53125 22.484375 10.953125 
Q 26.375 6.390625 33.015625 6.390625 
Q 39.65625 6.390625 43.53125 10.953125 
Q 47.40625 15.53125 47.40625 23.390625 
Q 47.40625 31.296875 43.53125 35.828125 
Q 39.65625 40.375 33.015625 40.375 
z
M 52.59375 71.296875 
L 52.59375 62.3125 
Q 48.875 64.0625 45.09375 64.984375 
Q 41.3125 65.921875 37.59375 65.921875 
Q 27.828125 65.921875 22.671875 59.328125 
Q 17.53125 52.734375 16.796875 39.40625 
Q 19.671875 43.65625 24.015625 45.921875 
Q 28.375 48.1875 33.59375 48.1875 
Q 44.578125 48.1875 50.953125 41.515625 
Q 57.328125 34.859375 57.328125 23.390625 
Q 57.328125 12.15625 50.6875 5.359375 
Q 44.046875 -1.421875 33.015625 -1.421875 
Q 20.359375 -1.421875 13.671875 8.265625 
Q 6.984375 17.96875 6.984375 36.375 
Q 6.984375 53.65625 15.1875 63.9375 
Q 23.390625 74.21875 37.203125 74.21875 
Q 40.921875 74.21875 44.703125 73.484375 
Q 48.484375 72.75 52.59375 71.296875 
z
" id="DejaVuSans-36"/>
      </defs>
      <g transform="translate(129.025512 324.461937)scale(0.1 -0.1)">
       <use xlink:href="#DejaVuSans-32"/>
       <use x="63.623047" xlink:href="#DejaVuSans-30"/>
       <use x="127.246094" xlink:href="#DejaVuSans-30"/>
       <use x="190.869141" xlink:href="#DejaVuSans-36"/>
      </g>
     </g>
    </g>
    <g id="xtick_4">
     <g id="line2d_7">
      <path clip-path="url(#pb9e1f31f0a)" d="M 191.565673 309.8635 
L 191.565673 23.36505 
" style="fill:none;stroke:#b0b0b0;stroke-linecap:square;stroke-width:0.8;"/>
     </g>
     <g id="line2d_8">
      <g>
       <use style="stroke:#000000;stroke-width:0.8;" x="191.565673" xlink:href="#me7e6c9469d" y="309.8635"/>
      </g>
     </g>
     <g id="text_4">
      <!-- 2008 -->
      <defs>
       <path d="M 31.78125 34.625 
Q 24.75 34.625 20.71875 30.859375 
Q 16.703125 27.09375 16.703125 20.515625 
Q 16.703125 13.921875 20.71875 10.15625 
Q 24.75 6.390625 31.78125 6.390625 
Q 38.8125 6.390625 42.859375 10.171875 
Q 46.921875 13.96875 46.921875 20.515625 
Q 46.921875 27.09375 42.890625 30.859375 
Q 38.875 34.625 31.78125 34.625 
z
M 21.921875 38.8125 
Q 15.578125 40.375 12.03125 44.71875 
Q 8.5 49.078125 8.5 55.328125 
Q 8.5 64.0625 14.71875 69.140625 
Q 20.953125 74.21875 31.78125 74.21875 
Q 42.671875 74.21875 48.875 69.140625 
Q 55.078125 64.0625 55.078125 55.328125 
Q 55.078125 49.078125 51.53125 44.71875 
Q 48 40.375 41.703125 38.8125 
Q 48.828125 37.15625 52.796875 32.3125 
Q 56.78125 27.484375 56.78125 20.515625 
Q 56.78125 9.90625 50.3125 4.234375 
Q 43.84375 -1.421875 31.78125 -1.421875 
Q 19.734375 -1.421875 13.25 4.234375 
Q 6.78125 9.90625 6.78125 20.515625 
Q 6.78125 27.484375 10.78125 32.3125 
Q 14.796875 37.15625 21.921875 38.8125 
z
M 18.3125 54.390625 
Q 18.3125 48.734375 21.84375 45.5625 
Q 25.390625 42.390625 31.78125 42.390625 
Q 38.140625 42.390625 41.71875 45.5625 
Q 45.3125 48.734375 45.3125 54.390625 
Q 45.3125 60.0625 41.71875 63.234375 
Q 38.140625 66.40625 31.78125 66.40625 
Q 25.390625 66.40625 21.84375 63.234375 
Q 18.3125 60.0625 18.3125 54.390625 
z
" id="DejaVuSans-38"/>
      </defs>
      <g transform="translate(178.840673 324.461937)scale(0.1 -0.1)">
       <use xlink:href="#DejaVuSans-32"/>
       <use x="63.623047" xlink:href="#DejaVuSans-30"/>
       <use x="127.246094" xlink:href="#DejaVuSans-30"/>
       <use x="190.869141" xlink:href="#DejaVuSans-38"/>
      </g>
     </g>
    </g>
    <g id="xtick_5">
     <g id="line2d_9">
      <path clip-path="url(#pb9e1f31f0a)" d="M 241.449073 309.8635 
L 241.449073 23.36505 
" style="fill:none;stroke:#b0b0b0;stroke-linecap:square;stroke-width:0.8;"/>
     </g>
     <g id="line2d_10">
      <g>
       <use style="stroke:#000000;stroke-width:0.8;" x="241.449073" xlink:href="#me7e6c9469d" y="309.8635"/>
      </g>
     </g>
     <g id="text_5">
      <!-- 2010 -->
      <defs>
       <path d="M 12.40625 8.296875 
L 28.515625 8.296875 
L 28.515625 63.921875 
L 10.984375 60.40625 
L 10.984375 69.390625 
L 28.421875 72.90625 
L 38.28125 72.90625 
L 38.28125 8.296875 
L 54.390625 8.296875 
L 54.390625 0 
L 12.40625 0 
z
" id="DejaVuSans-31"/>
      </defs>
      <g transform="translate(228.724073 324.461937)scale(0.1 -0.1)">
       <use xlink:href="#DejaVuSans-32"/>
       <use x="63.623047" xlink:href="#DejaVuSans-30"/>
       <use x="127.246094" xlink:href="#DejaVuSans-31"/>
       <use x="190.869141" xlink:href="#DejaVuSans-30"/>
      </g>
     </g>
    </g>
    <g id="xtick_6">
     <g id="line2d_11">
      <path clip-path="url(#pb9e1f31f0a)" d="M 291.264233 309.8635 
L 291.264233 23.36505 
" style="fill:none;stroke:#b0b0b0;stroke-linecap:square;stroke-width:0.8;"/>
     </g>
     <g id="line2d_12">
      <g>
       <use style="stroke:#000000;stroke-width:0.8;" x="291.264233" xlink:href="#me7e6c9469d" y="309.8635"/>
      </g>
     </g>
     <g id="text_6">
      <!-- 2012 -->
      <g transform="translate(278.539233 324.461937)scale(0.1 -0.1)">
       <use xlink:href="#DejaVuSans-32"/>
       <use x="63.623047" xlink:href="#DejaVuSans-30"/>
       <use x="127.246094" xlink:href="#DejaVuSans-31"/>
       <use x="190.869141" xlink:href="#DejaVuSans-32"/>
      </g>
     </g>
    </g>
    <g id="xtick_7">
     <g id="line2d_13">
      <path clip-path="url(#pb9e1f31f0a)" d="M 341.147634 309.8635 
L 341.147634 23.36505 
" style="fill:none;stroke:#b0b0b0;stroke-linecap:square;stroke-width:0.8;"/>
     </g>
     <g id="line2d_14">
      <g>
       <use style="stroke:#000000;stroke-width:0.8;" x="341.147634" xlink:href="#me7e6c9469d" y="309.8635"/>
      </g>
     </g>
     <g id="text_7">
      <!-- 2014 -->
      <g transform="translate(328.422634 324.461937)scale(0.1 -0.1)">
       <use xlink:href="#DejaVuSans-32"/>
       <use x="63.623047" xlink:href="#DejaVuSans-30"/>
       <use x="127.246094" xlink:href="#DejaVuSans-31"/>
       <use x="190.869141" xlink:href="#DejaVuSans-34"/>
      </g>
     </g>
    </g>
    <g id="xtick_8">
     <g id="line2d_15">
      <path clip-path="url(#pb9e1f31f0a)" d="M 390.962794 309.8635 
L 390.962794 23.36505 
" style="fill:none;stroke:#b0b0b0;stroke-linecap:square;stroke-width:0.8;"/>
     </g>
     <g id="line2d_16">
      <g>
       <use style="stroke:#000000;stroke-width:0.8;" x="390.962794" xlink:href="#me7e6c9469d" y="309.8635"/>
      </g>
     </g>
     <g id="text_8">
      <!-- 2016 -->
      <g transform="translate(378.237794 324.461937)scale(0.1 -0.1)">
       <use xlink:href="#DejaVuSans-32"/>
       <use x="63.623047" xlink:href="#DejaVuSans-30"/>
       <use x="127.246094" xlink:href="#DejaVuSans-31"/>
       <use x="190.869141" xlink:href="#DejaVuSans-36"/>
      </g>
     </g>
    </g>
    <g id="xtick_9">
     <g id="line2d_17">
      <path clip-path="url(#pb9e1f31f0a)" d="M 440.846195 309.8635 
L 440.846195 23.36505 
" style="fill:none;stroke:#b0b0b0;stroke-linecap:square;stroke-width:0.8;"/>
     </g>
     <g id="line2d_18">
      <g>
       <use style="stroke:#000000;stroke-width:0.8;" x="440.846195" xlink:href="#me7e6c9469d" y="309.8635"/>
      </g>
     </g>
     <g id="text_9">
      <!-- 2018 -->
      <g transform="translate(428.121195 324.461937)scale(0.1 -0.1)">
       <use xlink:href="#DejaVuSans-32"/>
       <use x="63.623047" xlink:href="#DejaVuSans-30"/>
       <use x="127.246094" xlink:href="#DejaVuSans-31"/>
       <use x="190.869141" xlink:href="#DejaVuSans-38"/>
      </g>
     </g>
    </g>
    <g id="text_10">
     <!-- Date -->
     <defs>
      <path d="M 19.671875 64.796875 
L 19.671875 8.109375 
L 31.59375 8.109375 
Q 46.6875 8.109375 53.6875 14.9375 
Q 60.6875 21.78125 60.6875 36.53125 
Q 60.6875 51.171875 53.6875 57.984375 
Q 46.6875 64.796875 31.59375 64.796875 
z
M 9.8125 72.90625 
L 30.078125 72.90625 
Q 51.265625 72.90625 61.171875 64.09375 
Q 71.09375 55.28125 71.09375 36.53125 
Q 71.09375 17.671875 61.125 8.828125 
Q 51.171875 0 30.078125 0 
L 9.8125 0 
z
" id="DejaVuSans-44"/>
      <path d="M 34.28125 27.484375 
Q 23.390625 27.484375 19.1875 25 
Q 14.984375 22.515625 14.984375 16.5 
Q 14.984375 11.71875 18.140625 8.90625 
Q 21.296875 6.109375 26.703125 6.109375 
Q 34.1875 6.109375 38.703125 11.40625 
Q 43.21875 16.703125 43.21875 25.484375 
L 43.21875 27.484375 
z
M 52.203125 31.203125 
L 52.203125 0 
L 43.21875 0 
L 43.21875 8.296875 
Q 40.140625 3.328125 35.546875 0.953125 
Q 30.953125 -1.421875 24.3125 -1.421875 
Q 15.921875 -1.421875 10.953125 3.296875 
Q 6 8.015625 6 15.921875 
Q 6 25.140625 12.171875 29.828125 
Q 18.359375 34.515625 30.609375 34.515625 
L 43.21875 34.515625 
L 43.21875 35.40625 
Q 43.21875 41.609375 39.140625 45 
Q 35.0625 48.390625 27.6875 48.390625 
Q 23 48.390625 18.546875 47.265625 
Q 14.109375 46.140625 10.015625 43.890625 
L 10.015625 52.203125 
Q 14.9375 54.109375 19.578125 55.046875 
Q 24.21875 56 28.609375 56 
Q 40.484375 56 46.34375 49.84375 
Q 52.203125 43.703125 52.203125 31.203125 
z
" id="DejaVuSans-61"/>
      <path d="M 18.3125 70.21875 
L 18.3125 54.6875 
L 36.8125 54.6875 
L 36.8125 47.703125 
L 18.3125 47.703125 
L 18.3125 18.015625 
Q 18.3125 11.328125 20.140625 9.421875 
Q 21.96875 7.515625 27.59375 7.515625 
L 36.8125 7.515625 
L 36.8125 0 
L 27.59375 0 
Q 17.1875 0 13.234375 3.875 
Q 9.28125 7.765625 9.28125 18.015625 
L 9.28125 47.703125 
L 2.6875 47.703125 
L 2.6875 54.6875 
L 9.28125 54.6875 
L 9.28125 70.21875 
z
" id="DejaVuSans-74"/>
      <path d="M 56.203125 29.59375 
L 56.203125 25.203125 
L 14.890625 25.203125 
Q 15.484375 15.921875 20.484375 11.0625 
Q 25.484375 6.203125 34.421875 6.203125 
Q 39.59375 6.203125 44.453125 7.46875 
Q 49.3125 8.734375 54.109375 11.28125 
L 54.109375 2.78125 
Q 49.265625 0.734375 44.1875 -0.34375 
Q 39.109375 -1.421875 33.890625 -1.421875 
Q 20.796875 -1.421875 13.15625 6.1875 
Q 5.515625 13.8125 5.515625 26.8125 
Q 5.515625 40.234375 12.765625 48.109375 
Q 20.015625 56 32.328125 56 
Q 43.359375 56 49.78125 48.890625 
Q 56.203125 41.796875 56.203125 29.59375 
z
M 47.21875 32.234375 
Q 47.125 39.59375 43.09375 43.984375 
Q 39.0625 48.390625 32.421875 48.390625 
Q 24.90625 48.390625 20.390625 44.140625 
Q 15.875 39.890625 15.1875 32.171875 
z
" id="DejaVuSans-65"/>
     </defs>
     <g transform="translate(227.280494 338.140062)scale(0.1 -0.1)">
      <use xlink:href="#DejaVuSans-44"/>
      <use x="77.001953" xlink:href="#DejaVuSans-61"/>
      <use x="138.28125" xlink:href="#DejaVuSans-74"/>
      <use x="177.490234" xlink:href="#DejaVuSans-65"/>
     </g>
    </g>
   </g>
   <g id="matplotlib.axis_2">
    <g id="ytick_1">
     <g id="line2d_19">
      <path clip-path="url(#pb9e1f31f0a)" d="M 31.543 309.8635 
L 446.91955 309.8635 
" style="fill:none;stroke:#b0b0b0;stroke-linecap:square;stroke-width:0.8;"/>
     </g>
     <g id="line2d_20">
      <defs>
       <path d="M 0 0 
L -3.5 0 
" id="ma11378c91c" style="stroke:#000000;stroke-width:0.8;"/>
      </defs>
      <g>
       <use style="stroke:#000000;stroke-width:0.8;" x="31.543" xlink:href="#ma11378c91c" y="309.8635"/>
      </g>
     </g>
     <g id="text_11">
      <!-- 0 -->
      <g transform="translate(18.1805 313.662719)scale(0.1 -0.1)">
       <use xlink:href="#DejaVuSans-30"/>
      </g>
     </g>
    </g>
    <g id="ytick_2">
     <g id="line2d_21">
      <path clip-path="url(#pb9e1f31f0a)" d="M 31.543 266.758339 
L 446.91955 266.758339 
" style="fill:none;stroke:#b0b0b0;stroke-linecap:square;stroke-width:0.8;"/>
     </g>
     <g id="line2d_22">
      <g>
       <use style="stroke:#000000;stroke-width:0.8;" x="31.543" xlink:href="#ma11378c91c" y="266.758339"/>
      </g>
     </g>
     <g id="text_12">
      <!-- 100 -->
      <g transform="translate(5.4555 270.557558)scale(0.1 -0.1)">
       <use xlink:href="#DejaVuSans-31"/>
       <use x="63.623047" xlink:href="#DejaVuSans-30"/>
       <use x="127.246094" xlink:href="#DejaVuSans-30"/>
      </g>
     </g>
    </g>
    <g id="ytick_3">
     <g id="line2d_23">
      <path clip-path="url(#pb9e1f31f0a)" d="M 31.543 223.653179 
L 446.91955 223.653179 
" style="fill:none;stroke:#b0b0b0;stroke-linecap:square;stroke-width:0.8;"/>
     </g>
     <g id="line2d_24">
      <g>
       <use style="stroke:#000000;stroke-width:0.8;" x="31.543" xlink:href="#ma11378c91c" y="223.653179"/>
      </g>
     </g>
     <g id="text_13">
      <!-- 200 -->
      <g transform="translate(5.4555 227.452398)scale(0.1 -0.1)">
       <use xlink:href="#DejaVuSans-32"/>
       <use x="63.623047" xlink:href="#DejaVuSans-30"/>
       <use x="127.246094" xlink:href="#DejaVuSans-30"/>
      </g>
     </g>
    </g>
    <g id="ytick_4">
     <g id="line2d_25">
      <path clip-path="url(#pb9e1f31f0a)" d="M 31.543 180.548018 
L 446.91955 180.548018 
" style="fill:none;stroke:#b0b0b0;stroke-linecap:square;stroke-width:0.8;"/>
     </g>
     <g id="line2d_26">
      <g>
       <use style="stroke:#000000;stroke-width:0.8;" x="31.543" xlink:href="#ma11378c91c" y="180.548018"/>
      </g>
     </g>
     <g id="text_14">
      <!-- 300 -->
      <defs>
       <path d="M 40.578125 39.3125 
Q 47.65625 37.796875 51.625 33 
Q 55.609375 28.21875 55.609375 21.1875 
Q 55.609375 10.40625 48.1875 4.484375 
Q 40.765625 -1.421875 27.09375 -1.421875 
Q 22.515625 -1.421875 17.65625 -0.515625 
Q 12.796875 0.390625 7.625 2.203125 
L 7.625 11.71875 
Q 11.71875 9.328125 16.59375 8.109375 
Q 21.484375 6.890625 26.8125 6.890625 
Q 36.078125 6.890625 40.9375 10.546875 
Q 45.796875 14.203125 45.796875 21.1875 
Q 45.796875 27.640625 41.28125 31.265625 
Q 36.765625 34.90625 28.71875 34.90625 
L 20.21875 34.90625 
L 20.21875 43.015625 
L 29.109375 43.015625 
Q 36.375 43.015625 40.234375 45.921875 
Q 44.09375 48.828125 44.09375 54.296875 
Q 44.09375 59.90625 40.109375 62.90625 
Q 36.140625 65.921875 28.71875 65.921875 
Q 24.65625 65.921875 20.015625 65.03125 
Q 15.375 64.15625 9.8125 62.3125 
L 9.8125 71.09375 
Q 15.4375 72.65625 20.34375 73.4375 
Q 25.25 74.21875 29.59375 74.21875 
Q 40.828125 74.21875 47.359375 69.109375 
Q 53.90625 64.015625 53.90625 55.328125 
Q 53.90625 49.265625 50.4375 45.09375 
Q 46.96875 40.921875 40.578125 39.3125 
z
" id="DejaVuSans-33"/>
      </defs>
      <g transform="translate(5.4555 184.347237)scale(0.1 -0.1)">
       <use xlink:href="#DejaVuSans-33"/>
       <use x="63.623047" xlink:href="#DejaVuSans-30"/>
       <use x="127.246094" xlink:href="#DejaVuSans-30"/>
      </g>
     </g>
    </g>
    <g id="ytick_5">
     <g id="line2d_27">
      <path clip-path="url(#pb9e1f31f0a)" d="M 31.543 137.442858 
L 446.91955 137.442858 
" style="fill:none;stroke:#b0b0b0;stroke-linecap:square;stroke-width:0.8;"/>
     </g>
     <g id="line2d_28">
      <g>
       <use style="stroke:#000000;stroke-width:0.8;" x="31.543" xlink:href="#ma11378c91c" y="137.442858"/>
      </g>
     </g>
     <g id="text_15">
      <!-- 400 -->
      <g transform="translate(5.4555 141.242076)scale(0.1 -0.1)">
       <use xlink:href="#DejaVuSans-34"/>
       <use x="63.623047" xlink:href="#DejaVuSans-30"/>
       <use x="127.246094" xlink:href="#DejaVuSans-30"/>
      </g>
     </g>
    </g>
    <g id="ytick_6">
     <g id="line2d_29">
      <path clip-path="url(#pb9e1f31f0a)" d="M 31.543 94.337697 
L 446.91955 94.337697 
" style="fill:none;stroke:#b0b0b0;stroke-linecap:square;stroke-width:0.8;"/>
     </g>
     <g id="line2d_30">
      <g>
       <use style="stroke:#000000;stroke-width:0.8;" x="31.543" xlink:href="#ma11378c91c" y="94.337697"/>
      </g>
     </g>
     <g id="text_16">
      <!-- 500 -->
      <defs>
       <path d="M 10.796875 72.90625 
L 49.515625 72.90625 
L 49.515625 64.59375 
L 19.828125 64.59375 
L 19.828125 46.734375 
Q 21.96875 47.46875 24.109375 47.828125 
Q 26.265625 48.1875 28.421875 48.1875 
Q 40.625 48.1875 47.75 41.5 
Q 54.890625 34.8125 54.890625 23.390625 
Q 54.890625 11.625 47.5625 5.09375 
Q 40.234375 -1.421875 26.90625 -1.421875 
Q 22.3125 -1.421875 17.546875 -0.640625 
Q 12.796875 0.140625 7.71875 1.703125 
L 7.71875 11.625 
Q 12.109375 9.234375 16.796875 8.0625 
Q 21.484375 6.890625 26.703125 6.890625 
Q 35.15625 6.890625 40.078125 11.328125 
Q 45.015625 15.765625 45.015625 23.390625 
Q 45.015625 31 40.078125 35.4375 
Q 35.15625 39.890625 26.703125 39.890625 
Q 22.75 39.890625 18.8125 39.015625 
Q 14.890625 38.140625 10.796875 36.28125 
z
" id="DejaVuSans-35"/>
      </defs>
      <g transform="translate(5.4555 98.136916)scale(0.1 -0.1)">
       <use xlink:href="#DejaVuSans-35"/>
       <use x="63.623047" xlink:href="#DejaVuSans-30"/>
       <use x="127.246094" xlink:href="#DejaVuSans-30"/>
      </g>
     </g>
    </g>
    <g id="ytick_7">
     <g id="line2d_31">
      <path clip-path="url(#pb9e1f31f0a)" d="M 31.543 51.232536 
L 446.91955 51.232536 
" style="fill:none;stroke:#b0b0b0;stroke-linecap:square;stroke-width:0.8;"/>
     </g>
     <g id="line2d_32">
      <g>
       <use style="stroke:#000000;stroke-width:0.8;" x="31.543" xlink:href="#ma11378c91c" y="51.232536"/>
      </g>
     </g>
     <g id="text_17">
      <!-- 600 -->
      <g transform="translate(5.4555 55.031755)scale(0.1 -0.1)">
       <use xlink:href="#DejaVuSans-36"/>
       <use x="63.623047" xlink:href="#DejaVuSans-30"/>
       <use x="127.246094" xlink:href="#DejaVuSans-30"/>
      </g>
     </g>
    </g>
   </g>
   <g id="line2d_33">
    <path clip-path="url(#pb9e1f31f0a)" d="M 31.543 309.8635 
L 35.705637 309.8635 
L 39.868273 164.168057 
L 41.983712 181.841173 
L 44.09915 210.721631 
L 46.009868 166.323315 
L 48.125307 232.705263 
L 50.172505 190.677731 
L 52.287944 165.892264 
L 54.335142 204.255857 
L 56.45058 176.021976 
L 60.613217 171.495934 
L 62.728655 165.892264 
L 64.775854 173.651192 
L 66.891292 177.961709 
L 69.00673 188.306947 
L 70.917449 309.8635 
L 73.032887 166.538841 
L 75.080085 164.168057 
L 77.195524 256.197575 
L 79.242722 200.376392 
L 81.35816 170.633831 
L 83.473599 175.806451 
L 85.520797 202.747176 
L 87.636235 192.832989 
L 89.683434 203.393753 
L 91.798872 232.058685 
L 93.91431 247.145491 
L 95.893269 253.180214 
L 98.008707 216.540827 
L 100.055906 234.644995 
L 102.171344 241.972872 
L 104.218542 221.928972 
L 106.333981 152.74519 
L 108.449419 151.883086 
L 110.496617 200.591918 
L 112.612056 199.514289 
L 114.659254 106.622668 
L 116.774692 141.322322 
L 118.890131 142.831003 
L 120.800849 144.770735 
L 122.916287 145.201786 
L 124.963486 220.204766 
L 129.126122 193.048515 
L 131.241561 124.295784 
L 133.356999 137.873909 
L 135.404197 309.8635 
L 137.519636 120.631845 
L 139.566834 115.2437 
L 141.682272 228.610272 
L 143.797711 206.842166 
L 145.708429 225.808437 
L 147.823868 309.8635 
L 151.986504 309.8635 
L 154.033703 214.816621 
L 156.149141 238.093408 
L 158.264579 215.247672 
L 160.311778 282.922775 
L 162.427216 309.8635 
L 164.474414 309.8635 
L 166.589853 281.414094 
L 168.705291 309.8635 
L 174.778646 309.8635 
L 176.894084 277.965681 
L 178.941283 252.533636 
L 181.056721 218.265034 
L 183.172159 207.273218 
L 185.219358 192.617463 
L 187.334796 123.649206 
L 189.381994 309.8635 
L 191.497433 266.327288 
L 193.612871 268.482546 
L 195.59183 254.688894 
L 197.707268 309.8635 
L 199.754466 205.980063 
L 201.869905 240.464191 
L 203.917103 229.472375 
L 206.032541 216.325301 
L 208.14798 214.601095 
L 210.195178 185.936163 
L 212.310616 309.8635 
L 214.357815 309.8635 
L 216.473253 216.109776 
L 218.588691 309.8635 
L 224.662046 309.8635 
L 226.777485 276.457001 
L 228.824683 309.8635 
L 230.940121 207.273218 
L 233.05556 306.630613 
L 235.102758 228.825798 
L 237.218196 223.868705 
L 239.265395 309.8635 
L 251.685065 309.8635 
L 253.732263 194.34167 
L 255.847702 161.581747 
L 257.96314 184.858534 
L 260.010338 133.778919 
L 262.125777 309.8635 
L 278.639844 309.8635 
L 282.87072 105.545039 
L 284.917919 309.8635 
L 291.195994 309.8635 
L 293.311432 226.67054 
L 295.29039 309.8635 
L 301.568465 309.8635 
L 305.731102 109.855555 
L 307.84654 101.665574 
L 309.893739 309.8635 
L 328.523244 309.8635 
L 330.638682 115.674751 
L 332.75412 109.424503 
L 334.801319 233.136314 
L 336.916757 309.8635 
L 351.383626 309.8635 
L 353.430824 135.2876 
L 355.546262 106.622668 
L 357.661701 131.839187 
L 359.708899 139.813641 
L 361.824337 219.342663 
L 363.871536 309.8635 
L 365.986974 236.800253 
L 368.102412 226.239488 
L 370.013131 309.8635 
L 372.128569 309.8635 
L 374.175768 217.187405 
L 376.291206 228.394746 
L 378.338404 111.364235 
L 380.453843 99.510316 
L 382.569281 101.665574 
L 384.616479 106.838194 
L 386.731918 160.288593 
L 388.779116 309.8635 
L 394.988951 309.8635 
L 397.104389 200.807444 
L 399.151588 182.703276 
L 401.267026 309.8635 
L 403.314224 161.797273 
L 405.429663 193.910618 
L 407.545101 230.550004 
L 409.592299 309.8635 
L 426.174606 309.8635 
L 428.221805 212.445837 
L 430.337243 140.460219 
L 432.452681 126.882093 
L 434.49988 304.044303 
L 436.615318 309.8635 
L 446.91955 309.8635 
L 446.91955 309.8635 
" style="fill:none;stroke:#1f77b4;stroke-linecap:square;stroke-width:1.5;"/>
   </g>
   <g id="patch_3">
    <path d="M 31.543 309.8635 
L 31.543 23.36505 
" style="fill:none;stroke:#000000;stroke-linecap:square;stroke-linejoin:miter;stroke-width:0.8;"/>
   </g>
   <g id="patch_4">
    <path d="M 446.91955 309.8635 
L 446.91955 23.36505 
" style="fill:none;stroke:#000000;stroke-linecap:square;stroke-linejoin:miter;stroke-width:0.8;"/>
   </g>
   <g id="patch_5">
    <path d="M 31.543 309.8635 
L 446.91955 309.8635 
" style="fill:none;stroke:#000000;stroke-linecap:square;stroke-linejoin:miter;stroke-width:0.8;"/>
   </g>
   <g id="patch_6">
    <path d="M 31.543 23.36505 
L 446.91955 23.36505 
" style="fill:none;stroke:#000000;stroke-linecap:square;stroke-linejoin:miter;stroke-width:0.8;"/>
   </g>
   <g id="text_18">
    <!-- Monthly gross load trend (MW) -->
    <defs>
     <path d="M 9.8125 72.90625 
L 24.515625 72.90625 
L 43.109375 23.296875 
L 61.8125 72.90625 
L 76.515625 72.90625 
L 76.515625 0 
L 66.890625 0 
L 66.890625 64.015625 
L 48.09375 14.015625 
L 38.1875 14.015625 
L 19.390625 64.015625 
L 19.390625 0 
L 9.8125 0 
z
" id="DejaVuSans-4d"/>
     <path d="M 30.609375 48.390625 
Q 23.390625 48.390625 19.1875 42.75 
Q 14.984375 37.109375 14.984375 27.296875 
Q 14.984375 17.484375 19.15625 11.84375 
Q 23.34375 6.203125 30.609375 6.203125 
Q 37.796875 6.203125 41.984375 11.859375 
Q 46.1875 17.53125 46.1875 27.296875 
Q 46.1875 37.015625 41.984375 42.703125 
Q 37.796875 48.390625 30.609375 48.390625 
z
M 30.609375 56 
Q 42.328125 56 49.015625 48.375 
Q 55.71875 40.765625 55.71875 27.296875 
Q 55.71875 13.875 49.015625 6.21875 
Q 42.328125 -1.421875 30.609375 -1.421875 
Q 18.84375 -1.421875 12.171875 6.21875 
Q 5.515625 13.875 5.515625 27.296875 
Q 5.515625 40.765625 12.171875 48.375 
Q 18.84375 56 30.609375 56 
z
" id="DejaVuSans-6f"/>
     <path d="M 54.890625 33.015625 
L 54.890625 0 
L 45.90625 0 
L 45.90625 32.71875 
Q 45.90625 40.484375 42.875 44.328125 
Q 39.84375 48.1875 33.796875 48.1875 
Q 26.515625 48.1875 22.3125 43.546875 
Q 18.109375 38.921875 18.109375 30.90625 
L 18.109375 0 
L 9.078125 0 
L 9.078125 54.6875 
L 18.109375 54.6875 
L 18.109375 46.1875 
Q 21.34375 51.125 25.703125 53.5625 
Q 30.078125 56 35.796875 56 
Q 45.21875 56 50.046875 50.171875 
Q 54.890625 44.34375 54.890625 33.015625 
z
" id="DejaVuSans-6e"/>
     <path d="M 54.890625 33.015625 
L 54.890625 0 
L 45.90625 0 
L 45.90625 32.71875 
Q 45.90625 40.484375 42.875 44.328125 
Q 39.84375 48.1875 33.796875 48.1875 
Q 26.515625 48.1875 22.3125 43.546875 
Q 18.109375 38.921875 18.109375 30.90625 
L 18.109375 0 
L 9.078125 0 
L 9.078125 75.984375 
L 18.109375 75.984375 
L 18.109375 46.1875 
Q 21.34375 51.125 25.703125 53.5625 
Q 30.078125 56 35.796875 56 
Q 45.21875 56 50.046875 50.171875 
Q 54.890625 44.34375 54.890625 33.015625 
z
" id="DejaVuSans-68"/>
     <path d="M 9.421875 75.984375 
L 18.40625 75.984375 
L 18.40625 0 
L 9.421875 0 
z
" id="DejaVuSans-6c"/>
     <path d="M 32.171875 -5.078125 
Q 28.375 -14.84375 24.75 -17.8125 
Q 21.140625 -20.796875 15.09375 -20.796875 
L 7.90625 -20.796875 
L 7.90625 -13.28125 
L 13.1875 -13.28125 
Q 16.890625 -13.28125 18.9375 -11.515625 
Q 21 -9.765625 23.484375 -3.21875 
L 25.09375 0.875 
L 2.984375 54.6875 
L 12.5 54.6875 
L 29.59375 11.921875 
L 46.6875 54.6875 
L 56.203125 54.6875 
z
" id="DejaVuSans-79"/>
     <path id="DejaVuSans-20"/>
     <path d="M 45.40625 27.984375 
Q 45.40625 37.75 41.375 43.109375 
Q 37.359375 48.484375 30.078125 48.484375 
Q 22.859375 48.484375 18.828125 43.109375 
Q 14.796875 37.75 14.796875 27.984375 
Q 14.796875 18.265625 18.828125 12.890625 
Q 22.859375 7.515625 30.078125 7.515625 
Q 37.359375 7.515625 41.375 12.890625 
Q 45.40625 18.265625 45.40625 27.984375 
z
M 54.390625 6.78125 
Q 54.390625 -7.171875 48.1875 -13.984375 
Q 42 -20.796875 29.203125 -20.796875 
Q 24.46875 -20.796875 20.265625 -20.09375 
Q 16.0625 -19.390625 12.109375 -17.921875 
L 12.109375 -9.1875 
Q 16.0625 -11.328125 19.921875 -12.34375 
Q 23.78125 -13.375 27.78125 -13.375 
Q 36.625 -13.375 41.015625 -8.765625 
Q 45.40625 -4.15625 45.40625 5.171875 
L 45.40625 9.625 
Q 42.625 4.78125 38.28125 2.390625 
Q 33.9375 0 27.875 0 
Q 17.828125 0 11.671875 7.65625 
Q 5.515625 15.328125 5.515625 27.984375 
Q 5.515625 40.671875 11.671875 48.328125 
Q 17.828125 56 27.875 56 
Q 33.9375 56 38.28125 53.609375 
Q 42.625 51.21875 45.40625 46.390625 
L 45.40625 54.6875 
L 54.390625 54.6875 
z
" id="DejaVuSans-67"/>
     <path d="M 41.109375 46.296875 
Q 39.59375 47.171875 37.8125 47.578125 
Q 36.03125 48 33.890625 48 
Q 26.265625 48 22.1875 43.046875 
Q 18.109375 38.09375 18.109375 28.8125 
L 18.109375 0 
L 9.078125 0 
L 9.078125 54.6875 
L 18.109375 54.6875 
L 18.109375 46.1875 
Q 20.953125 51.171875 25.484375 53.578125 
Q 30.03125 56 36.53125 56 
Q 37.453125 56 38.578125 55.875 
Q 39.703125 55.765625 41.0625 55.515625 
z
" id="DejaVuSans-72"/>
     <path d="M 44.28125 53.078125 
L 44.28125 44.578125 
Q 40.484375 46.53125 36.375 47.5 
Q 32.28125 48.484375 27.875 48.484375 
Q 21.1875 48.484375 17.84375 46.4375 
Q 14.5 44.390625 14.5 40.28125 
Q 14.5 37.15625 16.890625 35.375 
Q 19.28125 33.59375 26.515625 31.984375 
L 29.59375 31.296875 
Q 39.15625 29.25 43.1875 25.515625 
Q 47.21875 21.78125 47.21875 15.09375 
Q 47.21875 7.46875 41.1875 3.015625 
Q 35.15625 -1.421875 24.609375 -1.421875 
Q 20.21875 -1.421875 15.453125 -0.5625 
Q 10.6875 0.296875 5.421875 2 
L 5.421875 11.28125 
Q 10.40625 8.6875 15.234375 7.390625 
Q 20.0625 6.109375 24.8125 6.109375 
Q 31.15625 6.109375 34.5625 8.28125 
Q 37.984375 10.453125 37.984375 14.40625 
Q 37.984375 18.0625 35.515625 20.015625 
Q 33.0625 21.96875 24.703125 23.78125 
L 21.578125 24.515625 
Q 13.234375 26.265625 9.515625 29.90625 
Q 5.8125 33.546875 5.8125 39.890625 
Q 5.8125 47.609375 11.28125 51.796875 
Q 16.75 56 26.8125 56 
Q 31.78125 56 36.171875 55.265625 
Q 40.578125 54.546875 44.28125 53.078125 
z
" id="DejaVuSans-73"/>
     <path d="M 45.40625 46.390625 
L 45.40625 75.984375 
L 54.390625 75.984375 
L 54.390625 0 
L 45.40625 0 
L 45.40625 8.203125 
Q 42.578125 3.328125 38.25 0.953125 
Q 33.9375 -1.421875 27.875 -1.421875 
Q 17.96875 -1.421875 11.734375 6.484375 
Q 5.515625 14.40625 5.515625 27.296875 
Q 5.515625 40.1875 11.734375 48.09375 
Q 17.96875 56 27.875 56 
Q 33.9375 56 38.25 53.625 
Q 42.578125 51.265625 45.40625 46.390625 
z
M 14.796875 27.296875 
Q 14.796875 17.390625 18.875 11.75 
Q 22.953125 6.109375 30.078125 6.109375 
Q 37.203125 6.109375 41.296875 11.75 
Q 45.40625 17.390625 45.40625 27.296875 
Q 45.40625 37.203125 41.296875 42.84375 
Q 37.203125 48.484375 30.078125 48.484375 
Q 22.953125 48.484375 18.875 42.84375 
Q 14.796875 37.203125 14.796875 27.296875 
z
" id="DejaVuSans-64"/>
     <path d="M 31 75.875 
Q 24.46875 64.65625 21.28125 53.65625 
Q 18.109375 42.671875 18.109375 31.390625 
Q 18.109375 20.125 21.3125 9.0625 
Q 24.515625 -2 31 -13.1875 
L 23.1875 -13.1875 
Q 15.875 -1.703125 12.234375 9.375 
Q 8.59375 20.453125 8.59375 31.390625 
Q 8.59375 42.28125 12.203125 53.3125 
Q 15.828125 64.359375 23.1875 75.875 
z
" id="DejaVuSans-28"/>
     <path d="M 3.328125 72.90625 
L 13.28125 72.90625 
L 28.609375 11.28125 
L 43.890625 72.90625 
L 54.984375 72.90625 
L 70.3125 11.28125 
L 85.59375 72.90625 
L 95.609375 72.90625 
L 77.296875 0 
L 64.890625 0 
L 49.515625 63.28125 
L 33.984375 0 
L 21.578125 0 
z
" id="DejaVuSans-57"/>
     <path d="M 8.015625 75.875 
L 15.828125 75.875 
Q 23.140625 64.359375 26.78125 53.3125 
Q 30.421875 42.28125 30.421875 31.390625 
Q 30.421875 20.453125 26.78125 9.375 
Q 23.140625 -1.703125 15.828125 -13.1875 
L 8.015625 -13.1875 
Q 14.5 -2 17.703125 9.0625 
Q 20.90625 20.125 20.90625 31.390625 
Q 20.90625 42.671875 17.703125 53.65625 
Q 14.5 64.65625 8.015625 75.875 
z
" id="DejaVuSans-29"/>
    </defs>
    <g transform="translate(146.648462 17.36505)scale(0.12 -0.12)">
     <use xlink:href="#DejaVuSans-4d"/>
     <use x="86.279297" xlink:href="#DejaVuSans-6f"/>
     <use x="147.460938" xlink:href="#DejaVuSans-6e"/>
     <use x="210.839844" xlink:href="#DejaVuSans-74"/>
     <use x="250.048828" xlink:href="#DejaVuSans-68"/>
     <use x="313.427734" xlink:href="#DejaVuSans-6c"/>
     <use x="341.210938" xlink:href="#DejaVuSans-79"/>
     <use x="400.390625" xlink:href="#DejaVuSans-20"/>
     <use x="432.177734" xlink:href="#DejaVuSans-67"/>
     <use x="495.654297" xlink:href="#DejaVuSans-72"/>
     <use x="536.736328" xlink:href="#DejaVuSans-6f"/>
     <use x="597.917969" xlink:href="#DejaVuSans-73"/>
     <use x="650.017578" xlink:href="#DejaVuSans-73"/>
     <use x="702.117188" xlink:href="#DejaVuSans-20"/>
     <use x="733.904297" xlink:href="#DejaVuSans-6c"/>
     <use x="761.6875" xlink:href="#DejaVuSans-6f"/>
     <use x="822.869141" xlink:href="#DejaVuSans-61"/>
     <use x="884.148438" xlink:href="#DejaVuSans-64"/>
     <use x="947.625" xlink:href="#DejaVuSans-20"/>
     <use x="979.412109" xlink:href="#DejaVuSans-74"/>
     <use x="1018.621094" xlink:href="#DejaVuSans-72"/>
     <use x="1059.703125" xlink:href="#DejaVuSans-65"/>
     <use x="1121.226562" xlink:href="#DejaVuSans-6e"/>
     <use x="1184.605469" xlink:href="#DejaVuSans-64"/>
     <use x="1248.082031" xlink:href="#DejaVuSans-20"/>
     <use x="1279.869141" xlink:href="#DejaVuSans-28"/>
     <use x="1318.882812" xlink:href="#DejaVuSans-4d"/>
     <use x="1405.162109" xlink:href="#DejaVuSans-57"/>
     <use x="1504.039062" xlink:href="#DejaVuSans-29"/>
    </g>
   </g>
  </g>
 </g>
 <defs>
  <clipPath id="pb9e1f31f0a">
   <rect height="286.49845" width="415.37655" x="31.543" y="23.36505"/>
  </clipPath>
 </defs>
</svg>
