<?xml version="1.0" encoding="utf-8" standalone="no"?>
<!DOCTYPE svg PUBLIC "-//W3C//DTD SVG 1.1//EN"
  "http://www.w3.org/Graphics/SVG/1.1/DTD/svg11.dtd">
<!-- Created with matplotlib (http://matplotlib.org/) -->
<svg height="345.6pt" version="1.1" viewBox="0 0 460.8 345.6" width="460.8pt" xmlns="http://www.w3.org/2000/svg" xmlns:xlink="http://www.w3.org/1999/xlink">
 <defs>
  <style type="text/css">
*{stroke-linecap:butt;stroke-linejoin:round;}
  </style>
 </defs>
 <g id="figure_1">
  <g id="patch_1">
   <path d="M 0 345.6 
L 460.8 345.6 
L 460.8 0 
L 0 0 
z
" style="fill:none;"/>
  </g>
  <g id="axes_1">
   <g id="patch_2">
    <path d="M 42.51125 309.8635 
L 446.942418 309.8635 
L 446.942418 23.36505 
L 42.51125 23.36505 
z
" style="fill:none;"/>
   </g>
   <g id="PolyCollection_1">
    <path clip-path="url(#pe1b84013eb)" d="M 42.51125 163.5626 
L 42.51125 309.8635 
L 44.570945 309.8635 
L 46.564199 309.8635 
L 48.623895 309.8635 
L 50.617148 309.8635 
L 52.676844 309.8635 
L 54.736539 309.8635 
L 56.596909 309.8635 
L 58.656605 309.8635 
L 60.649858 309.8635 
L 62.709554 309.8635 
L 64.702807 309.8635 
L 66.762503 309.8635 
L 68.822198 309.8635 
L 70.815452 309.8635 
L 72.875147 309.8635 
L 74.868401 309.8635 
L 76.928097 309.8635 
L 78.987792 309.8635 
L 80.848162 309.8635 
L 82.907858 309.8635 
L 84.901111 309.8635 
L 86.960807 309.8635 
L 88.95406 309.8635 
L 91.013756 309.8635 
L 93.073451 309.8635 
L 95.066705 309.8635 
L 97.1264 309.8635 
L 99.119654 309.8635 
L 101.179349 309.8635 
L 103.239045 309.8635 
L 105.165857 309.8635 
L 107.225552 309.8635 
L 109.218806 309.8635 
L 111.278501 309.8635 
L 113.271755 309.8635 
L 115.33145 309.8635 
L 117.391146 309.8635 
L 119.3844 309.8635 
L 121.444095 309.8635 
L 123.437349 299.092882 
L 125.497044 257.356735 
L 127.55674 309.8635 
L 129.41711 309.8635 
L 131.476805 309.8635 
L 133.470059 309.8635 
L 135.529754 309.8635 
L 137.523008 309.8635 
L 139.582703 309.8635 
L 141.642399 204.401195 
L 143.635652 149.201775 
L 145.695348 309.8635 
L 147.688602 149.201775 
L 149.748297 309.8635 
L 151.807993 309.8635 
L 153.668363 150.548103 
L 155.728058 309.8635 
L 157.721312 309.8635 
L 159.781007 309.8635 
L 161.774261 309.8635 
L 163.833956 309.8635 
L 165.893652 277.102869 
L 167.886905 168.947909 
L 169.946601 309.8635 
L 171.939855 309.8635 
L 173.99955 197.220782 
L 176.059245 207.093849 
L 177.919615 309.8635 
L 179.979311 309.8635 
L 181.972565 309.8635 
L 184.03226 309.8635 
L 186.025514 309.8635 
L 188.085209 309.8635 
L 190.144905 309.8635 
L 192.138158 225.942431 
L 194.197854 225.493656 
L 196.191107 309.8635 
L 198.250803 178.820976 
L 200.310498 197.669558 
L 202.23731 218.313243 
L 204.297006 225.04488 
L 206.290259 309.8635 
L 208.349955 309.8635 
L 210.343208 309.8635 
L 212.402904 309.8635 
L 214.462599 309.8635 
L 216.455853 224.147328 
L 218.515548 309.8635 
L 220.508802 226.839983 
L 222.568498 224.596104 
L 224.628193 309.8635 
L 226.488563 309.8635 
L 228.548259 309.8635 
L 230.541512 309.8635 
L 232.601208 309.8635 
L 234.594461 309.8635 
L 236.654157 309.8635 
L 238.713852 309.8635 
L 240.707106 309.8635 
L 242.766801 229.083862 
L 244.760055 152.343206 
L 246.81975 213.37671 
L 248.879446 309.8635 
L 250.739816 309.8635 
L 252.799511 156.382188 
L 254.792765 309.8635 
L 256.852461 309.8635 
L 258.845714 309.8635 
L 260.90541 309.8635 
L 262.965105 309.8635 
L 264.958359 309.8635 
L 267.018054 153.240757 
L 269.011308 151.445654 
L 271.071003 309.8635 
L 273.130699 309.8635 
L 274.991069 309.8635 
L 277.050764 309.8635 
L 279.044018 309.8635 
L 281.103713 309.8635 
L 283.096967 309.8635 
L 285.156663 309.8635 
L 287.216358 309.8635 
L 289.209612 309.8635 
L 291.269307 309.8635 
L 293.262561 309.8635 
L 295.322256 309.8635 
L 297.381952 309.8635 
L 299.308764 309.8635 
L 301.368459 309.8635 
L 303.361713 309.8635 
L 305.421408 309.8635 
L 307.414662 309.8635 
L 309.474357 309.8635 
L 311.534053 309.8635 
L 313.527306 309.8635 
L 315.587002 309.8635 
L 317.580255 309.8635 
L 319.639951 309.8635 
L 321.699646 309.8635 
L 323.560016 309.8635 
L 325.619712 309.8635 
L 327.612966 309.8635 
L 329.672661 309.8635 
L 331.665915 309.8635 
L 333.72561 309.8635 
L 335.785306 309.8635 
L 337.778559 309.8635 
L 339.838255 309.8635 
L 341.831508 309.8635 
L 343.891204 309.8635 
L 345.950899 309.8635 
L 347.811269 309.8635 
L 349.870965 309.8635 
L 351.864218 309.8635 
L 353.923914 309.8635 
L 355.917168 309.8635 
L 357.976863 309.8635 
L 360.036558 309.8635 
L 362.029812 205.747522 
L 364.089508 212.927934 
L 366.082761 309.8635 
L 368.142457 181.064855 
L 370.202152 309.8635 
L 372.062522 309.8635 
L 374.122218 309.8635 
L 376.115471 309.8635 
L 378.175167 309.8635 
L 380.16842 168.499133 
L 382.228116 168.499133 
L 384.287811 235.815498 
L 386.281065 168.499133 
L 388.34076 216.966916 
L 390.334014 309.8635 
L 392.39371 197.669558 
L 394.453405 309.8635 
L 396.380217 309.8635 
L 398.439912 309.8635 
L 400.433166 309.8635 
L 402.492861 309.8635 
L 404.486115 309.8635 
L 406.545811 168.947909 
L 408.605506 168.947909 
L 410.59876 168.947909 
L 412.658455 167.152806 
L 414.651709 309.8635 
L 416.711404 309.8635 
L 418.7711 309.8635 
L 420.63147 309.8635 
L 422.691165 309.8635 
L 424.684419 309.8635 
L 426.744114 309.8635 
L 428.737368 309.8635 
L 430.797064 309.8635 
L 432.856759 309.8635 
L 434.850013 309.8635 
L 436.909708 309.8635 
L 438.902962 166.70403 
L 440.962657 309.8635 
L 443.022353 309.8635 
L 444.882723 309.8635 
L 446.942418 309.8635 
L 446.942418 52.714985 
L 446.942418 52.714985 
L 444.882723 179.269752 
L 443.022353 56.305191 
L 440.962657 45.085797 
L 438.902962 45.983349 
L 436.909708 48.676003 
L 434.850013 53.612537 
L 432.856759 57.202743 
L 430.797064 54.510088 
L 428.737368 50.022331 
L 426.744114 133.943399 
L 424.684419 50.022331 
L 422.691165 41.495591 
L 420.63147 41.944367 
L 418.7711 41.944367 
L 416.711404 41.495591 
L 414.651709 44.188246 
L 412.658455 47.778452 
L 410.59876 50.919882 
L 408.605506 51.368658 
L 406.545811 51.368658 
L 404.486115 51.368658 
L 402.492861 53.612537 
L 400.433166 50.919882 
L 398.439912 56.753967 
L 396.380217 53.163761 
L 394.453405 47.329676 
L 392.39371 44.637021 
L 390.334014 46.432124 
L 388.34076 48.227228 
L 386.281065 51.368658 
L 384.287811 53.163761 
L 382.228116 52.714985 
L 380.16842 51.368658 
L 378.175167 47.778452 
L 376.115471 309.8635 
L 374.122218 309.8635 
L 372.062522 227.737535 
L 370.202152 40.598039 
L 368.142457 41.495591 
L 366.082761 43.73947 
L 364.089508 42.841918 
L 362.029812 48.676003 
L 360.036558 50.471106 
L 357.976863 50.022331 
L 355.917168 47.778452 
L 353.923914 44.188246 
L 351.864218 39.700488 
L 349.870965 43.290694 
L 347.811269 185.103837 
L 345.950899 48.676003 
L 343.891204 44.188246 
L 341.831508 46.432124 
L 339.838255 45.983349 
L 337.778559 48.227228 
L 335.785306 52.714985 
L 333.72561 51.817434 
L 331.665915 50.919882 
L 329.672661 103.875423 
L 327.612966 309.8635 
L 325.619712 309.8635 
L 323.560016 309.8635 
L 321.699646 53.163761 
L 319.639951 94.451132 
L 317.580255 46.432124 
L 315.587002 46.432124 
L 313.527306 51.368658 
L 311.534053 53.163761 
L 309.474357 51.817434 
L 307.414662 50.022331 
L 305.421408 44.637021 
L 303.361713 42.841918 
L 301.368459 41.495591 
L 299.308764 41.944367 
L 297.381952 46.8809 
L 295.322256 40.598039 
L 293.262561 41.495591 
L 291.269307 44.188246 
L 289.209612 54.061313 
L 287.216358 52.714985 
L 285.156663 53.612537 
L 283.096967 50.022331 
L 281.103713 44.188246 
L 279.044018 40.149264 
L 277.050764 41.944367 
L 274.991069 309.414724 
L 273.130699 40.149264 
L 271.071003 40.598039 
L 269.011308 39.251712 
L 267.018054 42.841918 
L 264.958359 48.676003 
L 262.965105 49.124779 
L 260.90541 51.368658 
L 258.845714 47.778452 
L 256.852461 42.393143 
L 254.792765 40.598039 
L 252.799511 41.046815 
L 250.739816 41.944367 
L 248.879446 41.944367 
L 246.81975 37.007833 
L 244.760055 42.393143 
L 242.766801 43.290694 
L 240.707106 48.227228 
L 238.713852 49.124779 
L 236.654157 50.919882 
L 234.594461 51.368658 
L 232.601208 42.841918 
L 230.541512 42.393143 
L 228.548259 40.598039 
L 226.488563 37.456609 
L 224.628193 41.944367 
L 222.568498 40.598039 
L 220.508802 177.474649 
L 218.515548 52.266209 
L 216.455853 52.714985 
L 214.462599 54.061313 
L 212.402904 54.510088 
L 210.343208 49.124779 
L 208.349955 46.432124 
L 206.290259 43.290694 
L 204.297006 42.841918 
L 202.23731 43.290694 
L 200.310498 41.944367 
L 198.250803 41.046815 
L 196.191107 43.73947 
L 194.197854 44.188246 
L 192.138158 49.124779 
L 190.144905 48.676003 
L 188.085209 50.919882 
L 186.025514 45.983349 
L 184.03226 46.432124 
L 181.972565 40.598039 
L 179.979311 39.700488 
L 177.919615 41.495591 
L 176.059245 37.456609 
L 173.99955 37.905385 
L 171.939855 38.354161 
L 169.946601 41.046815 
L 167.886905 47.329676 
L 165.893652 48.676003 
L 163.833956 51.368658 
L 161.774261 50.022331 
L 159.781007 43.290694 
L 157.721312 44.637021 
L 155.728058 40.149264 
L 153.668363 40.598039 
L 151.807993 38.802936 
L 149.748297 39.251712 
L 147.688602 39.251712 
L 145.695348 40.598039 
L 143.635652 45.534573 
L 141.642399 49.124779 
L 139.582703 49.124779 
L 137.523008 46.8809 
L 135.529754 43.73947 
L 133.470059 42.841918 
L 131.476805 128.55809 
L 129.41711 116.88992 
L 127.55674 125.41666 
L 125.497044 123.172781 
L 123.437349 122.724005 
L 121.444095 126.762987 
L 119.3844 129.006866 
L 117.391146 132.148296 
L 115.33145 131.69952 
L 113.271755 129.006866 
L 111.278501 126.762987 
L 109.218806 130.353193 
L 107.225552 127.660538 
L 105.165857 124.967884 
L 103.239045 124.519108 
L 101.179349 160.421169 
L 99.119654 162.216272 
L 97.1264 166.70403 
L 95.066705 168.499133 
L 93.073451 169.396685 
L 91.013756 168.947909 
L 88.95406 167.601582 
L 86.960807 161.318721 
L 84.901111 249.727547 
L 82.907858 298.19533 
L 80.848162 160.421169 
L 78.987792 165.357703 
L 76.928097 160.869945 
L 74.868401 160.869945 
L 72.875147 161.767497 
L 70.815452 166.70403 
L 68.822198 166.255254 
L 66.762503 166.70403 
L 64.702807 166.70403 
L 62.709554 171.640564 
L 60.649858 161.318721 
L 58.656605 160.421169 
L 56.596909 157.279739 
L 54.736539 156.830963 
L 52.676844 158.177291 
L 50.617148 160.421169 
L 48.623895 168.499133 
L 46.564199 171.640564 
L 44.570945 164.011376 
L 42.51125 163.5626 
z
" style="fill:#808080;fill-opacity:0.3;"/>
   </g>
   <g id="PolyCollection_2">
    <path clip-path="url(#pe1b84013eb)" d="M 42.51125 171.191788 
L 42.51125 309.8635 
L 44.570945 309.8635 
L 46.564199 309.8635 
L 48.623895 309.8635 
L 50.617148 309.8635 
L 52.676844 309.8635 
L 54.736539 309.8635 
L 56.596909 309.8635 
L 58.656605 309.8635 
L 60.649858 309.8635 
L 62.709554 309.8635 
L 64.702807 309.8635 
L 66.762503 309.8635 
L 68.822198 309.8635 
L 70.815452 309.8635 
L 72.875147 309.8635 
L 74.868401 309.8635 
L 76.928097 309.8635 
L 78.987792 309.8635 
L 80.848162 309.8635 
L 82.907858 309.8635 
L 84.901111 309.8635 
L 86.960807 309.8635 
L 88.95406 309.8635 
L 91.013756 256.571378 
L 93.073451 240.303256 
L 95.066705 240.752032 
L 97.1264 253.317753 
L 99.119654 309.8635 
L 101.179349 262.517657 
L 103.239045 251.52265 
L 105.165857 242.210553 
L 107.225552 291.688081 
L 109.218806 309.8635 
L 111.278501 239.85448 
L 113.271755 298.19533 
L 115.33145 194.976904 
L 117.391146 212.030383 
L 119.3844 214.386455 
L 121.444095 203.054867 
L 123.437349 179.718527 
L 125.497044 182.972152 
L 127.55674 234.917947 
L 129.41711 195.874455 
L 131.476805 234.469171 
L 133.470059 300.102627 
L 135.529754 272.615111 
L 137.523008 295.502675 
L 139.582703 135.96289 
L 141.642399 108.92415 
L 143.635652 114.646041 
L 145.695348 309.8635 
L 147.688602 92.880416 
L 149.748297 124.519108 
L 151.807993 146.509121 
L 153.668363 106.119302 
L 155.728058 142.470139 
L 157.721312 309.8635 
L 159.781007 295.951451 
L 161.774261 273.512663 
L 163.833956 117.563084 
L 165.893652 118.124053 
L 167.886905 98.602307 
L 169.946601 147.406672 
L 171.939855 95.797459 
L 173.99955 112.06558 
L 176.059245 105.22175 
L 177.919615 309.8635 
L 179.979311 142.582333 
L 181.972565 227.288759 
L 184.03226 223.249777 
L 186.025514 178.93317 
L 188.085209 187.347715 
L 190.144905 133.943399 
L 192.138158 124.406914 
L 194.197854 91.309701 
L 196.191107 89.065822 
L 198.250803 88.168271 
L 200.310498 93.55358 
L 202.23731 136.187278 
L 204.297006 95.012101 
L 206.290259 89.065822 
L 208.349955 133.943399 
L 210.343208 195.201291 
L 212.402904 144.714018 
L 214.462599 146.060345 
L 216.455853 102.529095 
L 218.515548 309.8635 
L 220.508802 199.464661 
L 222.568498 115.992368 
L 224.628193 179.269752 
L 226.488563 195.874455 
L 228.548259 137.982381 
L 230.541512 156.718769 
L 232.601208 234.356977 
L 234.594461 262.854238 
L 236.654157 129.680029 
L 238.713852 112.514356 
L 240.707106 102.977871 
L 242.766801 112.514356 
L 244.760055 114.646041 
L 246.81975 95.685265 
L 248.879446 149.650551 
L 250.739816 111.055835 
L 252.799511 91.309701 
L 254.792765 107.465629 
L 256.852461 199.576855 
L 258.845714 309.8635 
L 260.90541 309.8635 
L 262.965105 299.092882 
L 264.958359 150.996878 
L 267.018054 109.260732 
L 269.011308 111.280223 
L 271.071003 148.752999 
L 273.130699 309.8635 
L 274.991069 309.8635 
L 277.050764 309.8635 
L 279.044018 309.8635 
L 281.103713 309.8635 
L 283.096967 309.8635 
L 285.156663 309.8635 
L 287.216358 309.8635 
L 289.209612 309.8635 
L 291.269307 309.8635 
L 293.262561 309.8635 
L 295.322256 309.8635 
L 297.381952 309.8635 
L 299.308764 298.19533 
L 301.368459 197.669558 
L 303.361713 309.8635 
L 305.421408 309.8635 
L 307.414662 309.8635 
L 309.474357 309.8635 
L 311.534053 309.8635 
L 313.527306 309.8635 
L 315.587002 155.933412 
L 317.580255 309.8635 
L 319.639951 309.8635 
L 321.699646 309.8635 
L 323.560016 309.8635 
L 325.619712 309.8635 
L 327.612966 309.8635 
L 329.672661 309.8635 
L 331.665915 309.8635 
L 333.72561 309.8635 
L 335.785306 309.8635 
L 337.778559 309.8635 
L 339.838255 259.712808 
L 341.831508 309.8635 
L 343.891204 309.8635 
L 345.950899 221.90345 
L 347.811269 309.8635 
L 349.870965 309.8635 
L 351.864218 309.8635 
L 353.923914 309.8635 
L 355.917168 309.8635 
L 357.976863 127.660538 
L 360.036558 114.646041 
L 362.029812 115.543593 
L 364.089508 119.694769 
L 366.082761 136.187278 
L 368.142457 133.158042 
L 370.202152 120.480126 
L 372.062522 309.8635 
L 374.122218 309.8635 
L 376.115471 309.8635 
L 378.175167 309.8635 
L 380.16842 116.104562 
L 382.228116 115.655787 
L 384.287811 115.655787 
L 386.281065 108.026599 
L 388.34076 104.885168 
L 390.334014 115.543593 
L 392.39371 118.236247 
L 394.453405 128.109314 
L 396.380217 148.752999 
L 398.439912 309.8635 
L 400.433166 189.4794 
L 402.492861 159.074842 
L 404.486115 120.03135 
L 406.545811 102.977871 
L 408.605506 97.592562 
L 410.59876 99.387665 
L 412.658455 103.090065 
L 414.651709 144.826211 
L 416.711404 162.328466 
L 418.7711 143.92866 
L 420.63147 309.8635 
L 422.691165 309.8635 
L 424.684419 309.8635 
L 426.744114 309.8635 
L 428.737368 157.728515 
L 430.797064 113.411908 
L 432.856759 119.133799 
L 434.850013 125.41666 
L 436.909708 119.133799 
L 438.902962 120.928902 
L 440.962657 123.621556 
L 443.022353 309.8635 
L 444.882723 247.708056 
L 446.942418 215.620589 
L 446.942418 180.503885 
L 446.942418 180.503885 
L 444.882723 189.142819 
L 443.022353 204.737776 
L 440.962657 82.334186 
L 438.902962 79.192755 
L 436.909708 73.470864 
L 434.850013 81.436634 
L 432.856759 73.807446 
L 430.797064 67.748973 
L 428.737368 92.656029 
L 426.744114 204.289001 
L 424.684419 167.152806 
L 422.691165 174.6698 
L 420.63147 136.972636 
L 418.7711 83.119543 
L 416.711404 82.334186 
L 414.651709 83.231737 
L 412.658455 63.934379 
L 410.59876 70.666016 
L 408.605506 64.831931 
L 406.545811 71.563567 
L 404.486115 88.168271 
L 402.492861 91.758477 
L 400.433166 92.207253 
L 398.439912 156.269994 
L 396.380217 105.22175 
L 394.453405 97.143786 
L 392.39371 91.309701 
L 390.334014 91.758477 
L 388.34076 81.436634 
L 386.281065 85.924392 
L 384.287811 84.017095 
L 382.228116 89.514598 
L 380.16842 78.295204 
L 378.175167 309.8635 
L 376.115471 309.8635 
L 374.122218 309.8635 
L 372.062522 309.8635 
L 370.202152 81.32444 
L 368.142457 86.260974 
L 366.082761 80.875665 
L 364.089508 64.158767 
L 362.029812 76.387907 
L 360.036558 79.865919 
L 357.976863 82.782962 
L 355.917168 101.631544 
L 353.923914 100.621798 
L 351.864218 85.363422 
L 349.870965 108.026599 
L 347.811269 309.8635 
L 345.950899 119.470381 
L 343.891204 81.436634 
L 341.831508 66.627034 
L 339.838255 100.733992 
L 337.778559 79.529337 
L 335.785306 81.88541 
L 333.72561 100.733992 
L 331.665915 309.8635 
L 329.672661 309.8635 
L 327.612966 309.8635 
L 325.619712 309.8635 
L 323.560016 309.8635 
L 321.699646 309.8635 
L 319.639951 309.8635 
L 317.580255 88.392659 
L 315.587002 73.695252 
L 313.527306 101.182768 
L 311.534053 92.431641 
L 309.474357 111.280223 
L 307.414662 93.104804 
L 305.421408 90.41215 
L 303.361713 91.758477 
L 301.368459 87.719495 
L 299.308764 87.270719 
L 297.381952 89.963374 
L 295.322256 87.719495 
L 293.262561 121.265484 
L 291.269307 94.899907 
L 289.209612 93.55358 
L 287.216358 96.246235 
L 285.156663 98.938889 
L 283.096967 196.772007 
L 281.103713 309.8635 
L 279.044018 107.465629 
L 277.050764 245.688565 
L 274.991069 309.8635 
L 273.130699 309.8635 
L 271.071003 88.504853 
L 269.011308 81.88541 
L 267.018054 53.612537 
L 264.958359 59.446622 
L 262.965105 93.104804 
L 260.90541 97.592562 
L 258.845714 102.08032 
L 256.852461 107.241241 
L 254.792765 40.598039 
L 252.799511 86.821944 
L 250.739816 85.924392 
L 248.879446 85.924392 
L 246.81975 88.617047 
L 244.760055 89.065822 
L 242.766801 73.246477 
L 240.707106 54.958864 
L 238.713852 58.54907 
L 236.654157 58.997846 
L 234.594461 91.197507 
L 232.601208 85.924392 
L 230.541512 88.168271 
L 228.548259 54.061313 
L 226.488563 87.270719 
L 224.628193 76.948877 
L 222.568498 46.432124 
L 220.508802 180.167303 
L 218.515548 181.51363 
L 216.455853 58.885652 
L 214.462599 59.895397 
L 212.402904 60.792949 
L 210.343208 58.436876 
L 208.349955 80.314695 
L 206.290259 50.022331 
L 204.297006 61.466113 
L 202.23731 60.231979 
L 200.310498 47.778452 
L 198.250803 48.676003 
L 196.191107 51.817434 
L 194.197854 50.919882 
L 192.138158 56.305191 
L 190.144905 54.958864 
L 188.085209 56.753967 
L 186.025514 71.33918 
L 184.03226 91.758477 
L 181.972565 87.270719 
L 179.979311 72.797701 
L 177.919615 85.475616 
L 176.059245 80.090307 
L 173.99955 48.451615 
L 171.939855 49.124779 
L 169.946601 48.227228 
L 167.886905 54.061313 
L 165.893652 55.856416 
L 163.833956 57.651519 
L 161.774261 92.207253 
L 159.781007 91.309701 
L 157.721312 131.250745 
L 155.728058 85.812198 
L 153.668363 83.231737 
L 151.807993 83.680513 
L 149.748297 44.973603 
L 147.688602 45.085797 
L 145.695348 86.373168 
L 143.635652 53.612537 
L 141.642399 54.958864 
L 139.582703 56.753967 
L 137.523008 92.095059 
L 135.529754 89.402404 
L 133.470059 89.065822 
L 131.476805 165.357703 
L 129.41711 161.318721 
L 127.55674 161.767497 
L 125.497044 129.455641 
L 123.437349 129.006866 
L 121.444095 133.943399 
L 119.3844 137.533605 
L 117.391146 138.879933 
L 115.33145 138.431157 
L 113.271755 152.679787 
L 111.278501 153.913921 
L 109.218806 179.269752 
L 107.225552 166.70403 
L 105.165857 164.908927 
L 103.239045 167.489388 
L 101.179349 183.757509 
L 99.119654 236.264274 
L 97.1264 172.986891 
L 95.066705 174.333218 
L 93.073451 173.884442 
L 91.013756 177.474649 
L 88.95406 173.884442 
L 86.960807 177.250261 
L 84.901111 309.8635 
L 82.907858 309.8635 
L 80.848162 309.8635 
L 78.987792 309.8635 
L 76.928097 309.8635 
L 74.868401 309.8635 
L 72.875147 309.8635 
L 70.815452 309.8635 
L 68.822198 309.8635 
L 66.762503 239.405704 
L 64.702807 309.8635 
L 62.709554 309.8635 
L 60.649858 309.8635 
L 58.656605 255.000662 
L 56.596909 309.8635 
L 54.736539 309.8635 
L 52.676844 309.8635 
L 50.617148 309.8635 
L 48.623895 309.8635 
L 46.564199 309.8635 
L 44.570945 172.089339 
L 42.51125 171.191788 
z
" style="fill:#808080;fill-opacity:0.6;"/>
   </g>
   <g id="matplotlib.axis_1">
    <g id="xtick_1">
     <g id="line2d_1">
      <path clip-path="url(#pe1b84013eb)" d="M 52.743285 309.8635 
L 52.743285 23.36505 
" style="fill:none;stroke:#b0b0b0;stroke-linecap:square;stroke-width:0.8;"/>
     </g>
     <g id="line2d_2">
      <defs>
       <path d="M 0 0 
L 0 3.5 
" id="m814f6c8b48" style="stroke:#000000;stroke-width:0.8;"/>
      </defs>
      <g>
       <use style="stroke:#000000;stroke-width:0.8;" x="52.743285" xlink:href="#m814f6c8b48" y="309.8635"/>
      </g>
     </g>
     <g id="text_1">
      <!-- 2002 -->
      <defs>
       <path d="M 19.1875 8.296875 
L 53.609375 8.296875 
L 53.609375 0 
L 7.328125 0 
L 7.328125 8.296875 
Q 12.9375 14.109375 22.625 23.890625 
Q 32.328125 33.6875 34.8125 36.53125 
Q 39.546875 41.84375 41.421875 45.53125 
Q 43.3125 49.21875 43.3125 52.78125 
Q 43.3125 58.59375 39.234375 62.25 
Q 35.15625 65.921875 28.609375 65.921875 
Q 23.96875 65.921875 18.8125 64.3125 
Q 13.671875 62.703125 7.8125 59.421875 
L 7.8125 69.390625 
Q 13.765625 71.78125 18.9375 73 
Q 24.125 74.21875 28.421875 74.21875 
Q 39.75 74.21875 46.484375 68.546875 
Q 53.21875 62.890625 53.21875 53.421875 
Q 53.21875 48.921875 51.53125 44.890625 
Q 49.859375 40.875 45.40625 35.40625 
Q 44.1875 33.984375 37.640625 27.21875 
Q 31.109375 20.453125 19.1875 8.296875 
z
" id="DejaVuSans-32"/>
       <path d="M 31.78125 66.40625 
Q 24.171875 66.40625 20.328125 58.90625 
Q 16.5 51.421875 16.5 36.375 
Q 16.5 21.390625 20.328125 13.890625 
Q 24.171875 6.390625 31.78125 6.390625 
Q 39.453125 6.390625 43.28125 13.890625 
Q 47.125 21.390625 47.125 36.375 
Q 47.125 51.421875 43.28125 58.90625 
Q 39.453125 66.40625 31.78125 66.40625 
z
M 31.78125 74.21875 
Q 44.046875 74.21875 50.515625 64.515625 
Q 56.984375 54.828125 56.984375 36.375 
Q 56.984375 17.96875 50.515625 8.265625 
Q 44.046875 -1.421875 31.78125 -1.421875 
Q 19.53125 -1.421875 13.0625 8.265625 
Q 6.59375 17.96875 6.59375 36.375 
Q 6.59375 54.828125 13.0625 64.515625 
Q 19.53125 74.21875 31.78125 74.21875 
z
" id="DejaVuSans-30"/>
      </defs>
      <g transform="translate(40.018285 324.461937)scale(0.1 -0.1)">
       <use xlink:href="#DejaVuSans-32"/>
       <use x="63.623047" xlink:href="#DejaVuSans-30"/>
       <use x="127.246094" xlink:href="#DejaVuSans-30"/>
       <use x="190.869141" xlink:href="#DejaVuSans-32"/>
      </g>
     </g>
    </g>
    <g id="xtick_2">
     <g id="line2d_3">
      <path clip-path="url(#pe1b84013eb)" d="M 101.245791 309.8635 
L 101.245791 23.36505 
" style="fill:none;stroke:#b0b0b0;stroke-linecap:square;stroke-width:0.8;"/>
     </g>
     <g id="line2d_4">
      <g>
       <use style="stroke:#000000;stroke-width:0.8;" x="101.245791" xlink:href="#m814f6c8b48" y="309.8635"/>
      </g>
     </g>
     <g id="text_2">
      <!-- 2004 -->
      <defs>
       <path d="M 37.796875 64.3125 
L 12.890625 25.390625 
L 37.796875 25.390625 
z
M 35.203125 72.90625 
L 47.609375 72.90625 
L 47.609375 25.390625 
L 58.015625 25.390625 
L 58.015625 17.1875 
L 47.609375 17.1875 
L 47.609375 0 
L 37.796875 0 
L 37.796875 17.1875 
L 4.890625 17.1875 
L 4.890625 26.703125 
z
" id="DejaVuSans-34"/>
      </defs>
      <g transform="translate(88.520791 324.461937)scale(0.1 -0.1)">
       <use xlink:href="#DejaVuSans-32"/>
       <use x="63.623047" xlink:href="#DejaVuSans-30"/>
       <use x="127.246094" xlink:href="#DejaVuSans-30"/>
       <use x="190.869141" xlink:href="#DejaVuSans-34"/>
      </g>
     </g>
    </g>
    <g id="xtick_3">
     <g id="line2d_5">
      <path clip-path="url(#pe1b84013eb)" d="M 149.814739 309.8635 
L 149.814739 23.36505 
" style="fill:none;stroke:#b0b0b0;stroke-linecap:square;stroke-width:0.8;"/>
     </g>
     <g id="line2d_6">
      <g>
       <use style="stroke:#000000;stroke-width:0.8;" x="149.814739" xlink:href="#m814f6c8b48" y="309.8635"/>
      </g>
     </g>
     <g id="text_3">
      <!-- 2006 -->
      <defs>
       <path d="M 33.015625 40.375 
Q 26.375 40.375 22.484375 35.828125 
Q 18.609375 31.296875 18.609375 23.390625 
Q 18.609375 15.53125 22.484375 10.953125 
Q 26.375 6.390625 33.015625 6.390625 
Q 39.65625 6.390625 43.53125 10.953125 
Q 47.40625 15.53125 47.40625 23.390625 
Q 47.40625 31.296875 43.53125 35.828125 
Q 39.65625 40.375 33.015625 40.375 
z
M 52.59375 71.296875 
L 52.59375 62.3125 
Q 48.875 64.0625 45.09375 64.984375 
Q 41.3125 65.921875 37.59375 65.921875 
Q 27.828125 65.921875 22.671875 59.328125 
Q 17.53125 52.734375 16.796875 39.40625 
Q 19.671875 43.65625 24.015625 45.921875 
Q 28.375 48.1875 33.59375 48.1875 
Q 44.578125 48.1875 50.953125 41.515625 
Q 57.328125 34.859375 57.328125 23.390625 
Q 57.328125 12.15625 50.6875 5.359375 
Q 44.046875 -1.421875 33.015625 -1.421875 
Q 20.359375 -1.421875 13.671875 8.265625 
Q 6.984375 17.96875 6.984375 36.375 
Q 6.984375 53.65625 15.1875 63.9375 
Q 23.390625 74.21875 37.203125 74.21875 
Q 40.921875 74.21875 44.703125 73.484375 
Q 48.484375 72.75 52.59375 71.296875 
z
" id="DejaVuSans-36"/>
      </defs>
      <g transform="translate(137.089739 324.461937)scale(0.1 -0.1)">
       <use xlink:href="#DejaVuSans-32"/>
       <use x="63.623047" xlink:href="#DejaVuSans-30"/>
       <use x="127.246094" xlink:href="#DejaVuSans-30"/>
       <use x="190.869141" xlink:href="#DejaVuSans-36"/>
      </g>
     </g>
    </g>
    <g id="xtick_4">
     <g id="line2d_7">
      <path clip-path="url(#pe1b84013eb)" d="M 198.317245 309.8635 
L 198.317245 23.36505 
" style="fill:none;stroke:#b0b0b0;stroke-linecap:square;stroke-width:0.8;"/>
     </g>
     <g id="line2d_8">
      <g>
       <use style="stroke:#000000;stroke-width:0.8;" x="198.317245" xlink:href="#m814f6c8b48" y="309.8635"/>
      </g>
     </g>
     <g id="text_4">
      <!-- 2008 -->
      <defs>
       <path d="M 31.78125 34.625 
Q 24.75 34.625 20.71875 30.859375 
Q 16.703125 27.09375 16.703125 20.515625 
Q 16.703125 13.921875 20.71875 10.15625 
Q 24.75 6.390625 31.78125 6.390625 
Q 38.8125 6.390625 42.859375 10.171875 
Q 46.921875 13.96875 46.921875 20.515625 
Q 46.921875 27.09375 42.890625 30.859375 
Q 38.875 34.625 31.78125 34.625 
z
M 21.921875 38.8125 
Q 15.578125 40.375 12.03125 44.71875 
Q 8.5 49.078125 8.5 55.328125 
Q 8.5 64.0625 14.71875 69.140625 
Q 20.953125 74.21875 31.78125 74.21875 
Q 42.671875 74.21875 48.875 69.140625 
Q 55.078125 64.0625 55.078125 55.328125 
Q 55.078125 49.078125 51.53125 44.71875 
Q 48 40.375 41.703125 38.8125 
Q 48.828125 37.15625 52.796875 32.3125 
Q 56.78125 27.484375 56.78125 20.515625 
Q 56.78125 9.90625 50.3125 4.234375 
Q 43.84375 -1.421875 31.78125 -1.421875 
Q 19.734375 -1.421875 13.25 4.234375 
Q 6.78125 9.90625 6.78125 20.515625 
Q 6.78125 27.484375 10.78125 32.3125 
Q 14.796875 37.15625 21.921875 38.8125 
z
M 18.3125 54.390625 
Q 18.3125 48.734375 21.84375 45.5625 
Q 25.390625 42.390625 31.78125 42.390625 
Q 38.140625 42.390625 41.71875 45.5625 
Q 45.3125 48.734375 45.3125 54.390625 
Q 45.3125 60.0625 41.71875 63.234375 
Q 38.140625 66.40625 31.78125 66.40625 
Q 25.390625 66.40625 21.84375 63.234375 
Q 18.3125 60.0625 18.3125 54.390625 
z
" id="DejaVuSans-38"/>
      </defs>
      <g transform="translate(185.592245 324.461937)scale(0.1 -0.1)">
       <use xlink:href="#DejaVuSans-32"/>
       <use x="63.623047" xlink:href="#DejaVuSans-30"/>
       <use x="127.246094" xlink:href="#DejaVuSans-30"/>
       <use x="190.869141" xlink:href="#DejaVuSans-38"/>
      </g>
     </g>
    </g>
    <g id="xtick_5">
     <g id="line2d_9">
      <path clip-path="url(#pe1b84013eb)" d="M 246.886192 309.8635 
L 246.886192 23.36505 
" style="fill:none;stroke:#b0b0b0;stroke-linecap:square;stroke-width:0.8;"/>
     </g>
     <g id="line2d_10">
      <g>
       <use style="stroke:#000000;stroke-width:0.8;" x="246.886192" xlink:href="#m814f6c8b48" y="309.8635"/>
      </g>
     </g>
     <g id="text_5">
      <!-- 2010 -->
      <defs>
       <path d="M 12.40625 8.296875 
L 28.515625 8.296875 
L 28.515625 63.921875 
L 10.984375 60.40625 
L 10.984375 69.390625 
L 28.421875 72.90625 
L 38.28125 72.90625 
L 38.28125 8.296875 
L 54.390625 8.296875 
L 54.390625 0 
L 12.40625 0 
z
" id="DejaVuSans-31"/>
      </defs>
      <g transform="translate(234.161192 324.461937)scale(0.1 -0.1)">
       <use xlink:href="#DejaVuSans-32"/>
       <use x="63.623047" xlink:href="#DejaVuSans-30"/>
       <use x="127.246094" xlink:href="#DejaVuSans-31"/>
       <use x="190.869141" xlink:href="#DejaVuSans-30"/>
      </g>
     </g>
    </g>
    <g id="xtick_6">
     <g id="line2d_11">
      <path clip-path="url(#pe1b84013eb)" d="M 295.388698 309.8635 
L 295.388698 23.36505 
" style="fill:none;stroke:#b0b0b0;stroke-linecap:square;stroke-width:0.8;"/>
     </g>
     <g id="line2d_12">
      <g>
       <use style="stroke:#000000;stroke-width:0.8;" x="295.388698" xlink:href="#m814f6c8b48" y="309.8635"/>
      </g>
     </g>
     <g id="text_6">
      <!-- 2012 -->
      <g transform="translate(282.663698 324.461937)scale(0.1 -0.1)">
       <use xlink:href="#DejaVuSans-32"/>
       <use x="63.623047" xlink:href="#DejaVuSans-30"/>
       <use x="127.246094" xlink:href="#DejaVuSans-31"/>
       <use x="190.869141" xlink:href="#DejaVuSans-32"/>
      </g>
     </g>
    </g>
    <g id="xtick_7">
     <g id="line2d_13">
      <path clip-path="url(#pe1b84013eb)" d="M 343.957646 309.8635 
L 343.957646 23.36505 
" style="fill:none;stroke:#b0b0b0;stroke-linecap:square;stroke-width:0.8;"/>
     </g>
     <g id="line2d_14">
      <g>
       <use style="stroke:#000000;stroke-width:0.8;" x="343.957646" xlink:href="#m814f6c8b48" y="309.8635"/>
      </g>
     </g>
     <g id="text_7">
      <!-- 2014 -->
      <g transform="translate(331.232646 324.461937)scale(0.1 -0.1)">
       <use xlink:href="#DejaVuSans-32"/>
       <use x="63.623047" xlink:href="#DejaVuSans-30"/>
       <use x="127.246094" xlink:href="#DejaVuSans-31"/>
       <use x="190.869141" xlink:href="#DejaVuSans-34"/>
      </g>
     </g>
    </g>
    <g id="xtick_8">
     <g id="line2d_15">
      <path clip-path="url(#pe1b84013eb)" d="M 392.460151 309.8635 
L 392.460151 23.36505 
" style="fill:none;stroke:#b0b0b0;stroke-linecap:square;stroke-width:0.8;"/>
     </g>
     <g id="line2d_16">
      <g>
       <use style="stroke:#000000;stroke-width:0.8;" x="392.460151" xlink:href="#m814f6c8b48" y="309.8635"/>
      </g>
     </g>
     <g id="text_8">
      <!-- 2016 -->
      <g transform="translate(379.735151 324.461937)scale(0.1 -0.1)">
       <use xlink:href="#DejaVuSans-32"/>
       <use x="63.623047" xlink:href="#DejaVuSans-30"/>
       <use x="127.246094" xlink:href="#DejaVuSans-31"/>
       <use x="190.869141" xlink:href="#DejaVuSans-36"/>
      </g>
     </g>
    </g>
    <g id="xtick_9">
     <g id="line2d_17">
      <path clip-path="url(#pe1b84013eb)" d="M 441.029099 309.8635 
L 441.029099 23.36505 
" style="fill:none;stroke:#b0b0b0;stroke-linecap:square;stroke-width:0.8;"/>
     </g>
     <g id="line2d_18">
      <g>
       <use style="stroke:#000000;stroke-width:0.8;" x="441.029099" xlink:href="#m814f6c8b48" y="309.8635"/>
      </g>
     </g>
     <g id="text_9">
      <!-- 2018 -->
      <g transform="translate(428.304099 324.461937)scale(0.1 -0.1)">
       <use xlink:href="#DejaVuSans-32"/>
       <use x="63.623047" xlink:href="#DejaVuSans-30"/>
       <use x="127.246094" xlink:href="#DejaVuSans-31"/>
       <use x="190.869141" xlink:href="#DejaVuSans-38"/>
      </g>
     </g>
    </g>
    <g id="text_10">
     <!-- Date -->
     <defs>
      <path d="M 19.671875 64.796875 
L 19.671875 8.109375 
L 31.59375 8.109375 
Q 46.6875 8.109375 53.6875 14.9375 
Q 60.6875 21.78125 60.6875 36.53125 
Q 60.6875 51.171875 53.6875 57.984375 
Q 46.6875 64.796875 31.59375 64.796875 
z
M 9.8125 72.90625 
L 30.078125 72.90625 
Q 51.265625 72.90625 61.171875 64.09375 
Q 71.09375 55.28125 71.09375 36.53125 
Q 71.09375 17.671875 61.125 8.828125 
Q 51.171875 0 30.078125 0 
L 9.8125 0 
z
" id="DejaVuSans-44"/>
      <path d="M 34.28125 27.484375 
Q 23.390625 27.484375 19.1875 25 
Q 14.984375 22.515625 14.984375 16.5 
Q 14.984375 11.71875 18.140625 8.90625 
Q 21.296875 6.109375 26.703125 6.109375 
Q 34.1875 6.109375 38.703125 11.40625 
Q 43.21875 16.703125 43.21875 25.484375 
L 43.21875 27.484375 
z
M 52.203125 31.203125 
L 52.203125 0 
L 43.21875 0 
L 43.21875 8.296875 
Q 40.140625 3.328125 35.546875 0.953125 
Q 30.953125 -1.421875 24.3125 -1.421875 
Q 15.921875 -1.421875 10.953125 3.296875 
Q 6 8.015625 6 15.921875 
Q 6 25.140625 12.171875 29.828125 
Q 18.359375 34.515625 30.609375 34.515625 
L 43.21875 34.515625 
L 43.21875 35.40625 
Q 43.21875 41.609375 39.140625 45 
Q 35.0625 48.390625 27.6875 48.390625 
Q 23 48.390625 18.546875 47.265625 
Q 14.109375 46.140625 10.015625 43.890625 
L 10.015625 52.203125 
Q 14.9375 54.109375 19.578125 55.046875 
Q 24.21875 56 28.609375 56 
Q 40.484375 56 46.34375 49.84375 
Q 52.203125 43.703125 52.203125 31.203125 
z
" id="DejaVuSans-61"/>
      <path d="M 18.3125 70.21875 
L 18.3125 54.6875 
L 36.8125 54.6875 
L 36.8125 47.703125 
L 18.3125 47.703125 
L 18.3125 18.015625 
Q 18.3125 11.328125 20.140625 9.421875 
Q 21.96875 7.515625 27.59375 7.515625 
L 36.8125 7.515625 
L 36.8125 0 
L 27.59375 0 
Q 17.1875 0 13.234375 3.875 
Q 9.28125 7.765625 9.28125 18.015625 
L 9.28125 47.703125 
L 2.6875 47.703125 
L 2.6875 54.6875 
L 9.28125 54.6875 
L 9.28125 70.21875 
z
" id="DejaVuSans-74"/>
      <path d="M 56.203125 29.59375 
L 56.203125 25.203125 
L 14.890625 25.203125 
Q 15.484375 15.921875 20.484375 11.0625 
Q 25.484375 6.203125 34.421875 6.203125 
Q 39.59375 6.203125 44.453125 7.46875 
Q 49.3125 8.734375 54.109375 11.28125 
L 54.109375 2.78125 
Q 49.265625 0.734375 44.1875 -0.34375 
Q 39.109375 -1.421875 33.890625 -1.421875 
Q 20.796875 -1.421875 13.15625 6.1875 
Q 5.515625 13.8125 5.515625 26.8125 
Q 5.515625 40.234375 12.765625 48.109375 
Q 20.015625 56 32.328125 56 
Q 43.359375 56 49.78125 48.890625 
Q 56.203125 41.796875 56.203125 29.59375 
z
M 47.21875 32.234375 
Q 47.125 39.59375 43.09375 43.984375 
Q 39.0625 48.390625 32.421875 48.390625 
Q 24.90625 48.390625 20.390625 44.140625 
Q 15.875 39.890625 15.1875 32.171875 
z
" id="DejaVuSans-65"/>
     </defs>
     <g transform="translate(232.776053 338.140062)scale(0.1 -0.1)">
      <use xlink:href="#DejaVuSans-44"/>
      <use x="77.001953" xlink:href="#DejaVuSans-61"/>
      <use x="138.28125" xlink:href="#DejaVuSans-74"/>
      <use x="177.490234" xlink:href="#DejaVuSans-65"/>
     </g>
    </g>
   </g>
   <g id="matplotlib.axis_2">
    <g id="ytick_1">
     <g id="line2d_19">
      <path clip-path="url(#pe1b84013eb)" d="M 42.51125 309.8635 
L 446.942418 309.8635 
" style="fill:none;stroke:#b0b0b0;stroke-linecap:square;stroke-width:0.8;"/>
     </g>
     <g id="line2d_20">
      <defs>
       <path d="M 0 0 
L -3.5 0 
" id="m1e12d0837f" style="stroke:#000000;stroke-width:0.8;"/>
      </defs>
      <g>
       <use style="stroke:#000000;stroke-width:0.8;" x="42.51125" xlink:href="#m1e12d0837f" y="309.8635"/>
      </g>
     </g>
     <g id="text_11">
      <!-- 0 -->
      <g transform="translate(29.14875 313.662719)scale(0.1 -0.1)">
       <use xlink:href="#DejaVuSans-30"/>
      </g>
     </g>
    </g>
    <g id="ytick_2">
     <g id="line2d_21">
      <path clip-path="url(#pe1b84013eb)" d="M 42.51125 264.985923 
L 446.942418 264.985923 
" style="fill:none;stroke:#b0b0b0;stroke-linecap:square;stroke-width:0.8;"/>
     </g>
     <g id="line2d_22">
      <g>
       <use style="stroke:#000000;stroke-width:0.8;" x="42.51125" xlink:href="#m1e12d0837f" y="264.985923"/>
      </g>
     </g>
     <g id="text_12">
      <!-- 100 -->
      <g transform="translate(16.42375 268.785142)scale(0.1 -0.1)">
       <use xlink:href="#DejaVuSans-31"/>
       <use x="63.623047" xlink:href="#DejaVuSans-30"/>
       <use x="127.246094" xlink:href="#DejaVuSans-30"/>
      </g>
     </g>
    </g>
    <g id="ytick_3">
     <g id="line2d_23">
      <path clip-path="url(#pe1b84013eb)" d="M 42.51125 220.108346 
L 446.942418 220.108346 
" style="fill:none;stroke:#b0b0b0;stroke-linecap:square;stroke-width:0.8;"/>
     </g>
     <g id="line2d_24">
      <g>
       <use style="stroke:#000000;stroke-width:0.8;" x="42.51125" xlink:href="#m1e12d0837f" y="220.108346"/>
      </g>
     </g>
     <g id="text_13">
      <!-- 200 -->
      <g transform="translate(16.42375 223.907565)scale(0.1 -0.1)">
       <use xlink:href="#DejaVuSans-32"/>
       <use x="63.623047" xlink:href="#DejaVuSans-30"/>
       <use x="127.246094" xlink:href="#DejaVuSans-30"/>
      </g>
     </g>
    </g>
    <g id="ytick_4">
     <g id="line2d_25">
      <path clip-path="url(#pe1b84013eb)" d="M 42.51125 175.23077 
L 446.942418 175.23077 
" style="fill:none;stroke:#b0b0b0;stroke-linecap:square;stroke-width:0.8;"/>
     </g>
     <g id="line2d_26">
      <g>
       <use style="stroke:#000000;stroke-width:0.8;" x="42.51125" xlink:href="#m1e12d0837f" y="175.23077"/>
      </g>
     </g>
     <g id="text_14">
      <!-- 300 -->
      <defs>
       <path d="M 40.578125 39.3125 
Q 47.65625 37.796875 51.625 33 
Q 55.609375 28.21875 55.609375 21.1875 
Q 55.609375 10.40625 48.1875 4.484375 
Q 40.765625 -1.421875 27.09375 -1.421875 
Q 22.515625 -1.421875 17.65625 -0.515625 
Q 12.796875 0.390625 7.625 2.203125 
L 7.625 11.71875 
Q 11.71875 9.328125 16.59375 8.109375 
Q 21.484375 6.890625 26.8125 6.890625 
Q 36.078125 6.890625 40.9375 10.546875 
Q 45.796875 14.203125 45.796875 21.1875 
Q 45.796875 27.640625 41.28125 31.265625 
Q 36.765625 34.90625 28.71875 34.90625 
L 20.21875 34.90625 
L 20.21875 43.015625 
L 29.109375 43.015625 
Q 36.375 43.015625 40.234375 45.921875 
Q 44.09375 48.828125 44.09375 54.296875 
Q 44.09375 59.90625 40.109375 62.90625 
Q 36.140625 65.921875 28.71875 65.921875 
Q 24.65625 65.921875 20.015625 65.03125 
Q 15.375 64.15625 9.8125 62.3125 
L 9.8125 71.09375 
Q 15.4375 72.65625 20.34375 73.4375 
Q 25.25 74.21875 29.59375 74.21875 
Q 40.828125 74.21875 47.359375 69.109375 
Q 53.90625 64.015625 53.90625 55.328125 
Q 53.90625 49.265625 50.4375 45.09375 
Q 46.96875 40.921875 40.578125 39.3125 
z
" id="DejaVuSans-33"/>
      </defs>
      <g transform="translate(16.42375 179.029988)scale(0.1 -0.1)">
       <use xlink:href="#DejaVuSans-33"/>
       <use x="63.623047" xlink:href="#DejaVuSans-30"/>
       <use x="127.246094" xlink:href="#DejaVuSans-30"/>
      </g>
     </g>
    </g>
    <g id="ytick_5">
     <g id="line2d_27">
      <path clip-path="url(#pe1b84013eb)" d="M 42.51125 130.353193 
L 446.942418 130.353193 
" style="fill:none;stroke:#b0b0b0;stroke-linecap:square;stroke-width:0.8;"/>
     </g>
     <g id="line2d_28">
      <g>
       <use style="stroke:#000000;stroke-width:0.8;" x="42.51125" xlink:href="#m1e12d0837f" y="130.353193"/>
      </g>
     </g>
     <g id="text_15">
      <!-- 400 -->
      <g transform="translate(16.42375 134.152412)scale(0.1 -0.1)">
       <use xlink:href="#DejaVuSans-34"/>
       <use x="63.623047" xlink:href="#DejaVuSans-30"/>
       <use x="127.246094" xlink:href="#DejaVuSans-30"/>
      </g>
     </g>
    </g>
    <g id="ytick_6">
     <g id="line2d_29">
      <path clip-path="url(#pe1b84013eb)" d="M 42.51125 85.475616 
L 446.942418 85.475616 
" style="fill:none;stroke:#b0b0b0;stroke-linecap:square;stroke-width:0.8;"/>
     </g>
     <g id="line2d_30">
      <g>
       <use style="stroke:#000000;stroke-width:0.8;" x="42.51125" xlink:href="#m1e12d0837f" y="85.475616"/>
      </g>
     </g>
     <g id="text_16">
      <!-- 500 -->
      <defs>
       <path d="M 10.796875 72.90625 
L 49.515625 72.90625 
L 49.515625 64.59375 
L 19.828125 64.59375 
L 19.828125 46.734375 
Q 21.96875 47.46875 24.109375 47.828125 
Q 26.265625 48.1875 28.421875 48.1875 
Q 40.625 48.1875 47.75 41.5 
Q 54.890625 34.8125 54.890625 23.390625 
Q 54.890625 11.625 47.5625 5.09375 
Q 40.234375 -1.421875 26.90625 -1.421875 
Q 22.3125 -1.421875 17.546875 -0.640625 
Q 12.796875 0.140625 7.71875 1.703125 
L 7.71875 11.625 
Q 12.109375 9.234375 16.796875 8.0625 
Q 21.484375 6.890625 26.703125 6.890625 
Q 35.15625 6.890625 40.078125 11.328125 
Q 45.015625 15.765625 45.015625 23.390625 
Q 45.015625 31 40.078125 35.4375 
Q 35.15625 39.890625 26.703125 39.890625 
Q 22.75 39.890625 18.8125 39.015625 
Q 14.890625 38.140625 10.796875 36.28125 
z
" id="DejaVuSans-35"/>
      </defs>
      <g transform="translate(16.42375 89.274835)scale(0.1 -0.1)">
       <use xlink:href="#DejaVuSans-35"/>
       <use x="63.623047" xlink:href="#DejaVuSans-30"/>
       <use x="127.246094" xlink:href="#DejaVuSans-30"/>
      </g>
     </g>
    </g>
    <g id="ytick_7">
     <g id="line2d_31">
      <path clip-path="url(#pe1b84013eb)" d="M 42.51125 40.598039 
L 446.942418 40.598039 
" style="fill:none;stroke:#b0b0b0;stroke-linecap:square;stroke-width:0.8;"/>
     </g>
     <g id="line2d_32">
      <g>
       <use style="stroke:#000000;stroke-width:0.8;" x="42.51125" xlink:href="#m1e12d0837f" y="40.598039"/>
      </g>
     </g>
     <g id="text_17">
      <!-- 600 -->
      <g transform="translate(16.42375 44.397258)scale(0.1 -0.1)">
       <use xlink:href="#DejaVuSans-36"/>
       <use x="63.623047" xlink:href="#DejaVuSans-30"/>
       <use x="127.246094" xlink:href="#DejaVuSans-30"/>
      </g>
     </g>
    </g>
    <g id="text_18">
     <!-- Gross load (MW) -->
     <defs>
      <path d="M 59.515625 10.40625 
L 59.515625 29.984375 
L 43.40625 29.984375 
L 43.40625 38.09375 
L 69.28125 38.09375 
L 69.28125 6.78125 
Q 63.578125 2.734375 56.6875 0.65625 
Q 49.8125 -1.421875 42 -1.421875 
Q 24.90625 -1.421875 15.25 8.5625 
Q 5.609375 18.5625 5.609375 36.375 
Q 5.609375 54.25 15.25 64.234375 
Q 24.90625 74.21875 42 74.21875 
Q 49.125 74.21875 55.546875 72.453125 
Q 61.96875 70.703125 67.390625 67.28125 
L 67.390625 56.78125 
Q 61.921875 61.421875 55.765625 63.765625 
Q 49.609375 66.109375 42.828125 66.109375 
Q 29.4375 66.109375 22.71875 58.640625 
Q 16.015625 51.171875 16.015625 36.375 
Q 16.015625 21.625 22.71875 14.15625 
Q 29.4375 6.6875 42.828125 6.6875 
Q 48.046875 6.6875 52.140625 7.59375 
Q 56.25 8.5 59.515625 10.40625 
z
" id="DejaVuSans-47"/>
      <path d="M 41.109375 46.296875 
Q 39.59375 47.171875 37.8125 47.578125 
Q 36.03125 48 33.890625 48 
Q 26.265625 48 22.1875 43.046875 
Q 18.109375 38.09375 18.109375 28.8125 
L 18.109375 0 
L 9.078125 0 
L 9.078125 54.6875 
L 18.109375 54.6875 
L 18.109375 46.1875 
Q 20.953125 51.171875 25.484375 53.578125 
Q 30.03125 56 36.53125 56 
Q 37.453125 56 38.578125 55.875 
Q 39.703125 55.765625 41.0625 55.515625 
z
" id="DejaVuSans-72"/>
      <path d="M 30.609375 48.390625 
Q 23.390625 48.390625 19.1875 42.75 
Q 14.984375 37.109375 14.984375 27.296875 
Q 14.984375 17.484375 19.15625 11.84375 
Q 23.34375 6.203125 30.609375 6.203125 
Q 37.796875 6.203125 41.984375 11.859375 
Q 46.1875 17.53125 46.1875 27.296875 
Q 46.1875 37.015625 41.984375 42.703125 
Q 37.796875 48.390625 30.609375 48.390625 
z
M 30.609375 56 
Q 42.328125 56 49.015625 48.375 
Q 55.71875 40.765625 55.71875 27.296875 
Q 55.71875 13.875 49.015625 6.21875 
Q 42.328125 -1.421875 30.609375 -1.421875 
Q 18.84375 -1.421875 12.171875 6.21875 
Q 5.515625 13.875 5.515625 27.296875 
Q 5.515625 40.765625 12.171875 48.375 
Q 18.84375 56 30.609375 56 
z
" id="DejaVuSans-6f"/>
      <path d="M 44.28125 53.078125 
L 44.28125 44.578125 
Q 40.484375 46.53125 36.375 47.5 
Q 32.28125 48.484375 27.875 48.484375 
Q 21.1875 48.484375 17.84375 46.4375 
Q 14.5 44.390625 14.5 40.28125 
Q 14.5 37.15625 16.890625 35.375 
Q 19.28125 33.59375 26.515625 31.984375 
L 29.59375 31.296875 
Q 39.15625 29.25 43.1875 25.515625 
Q 47.21875 21.78125 47.21875 15.09375 
Q 47.21875 7.46875 41.1875 3.015625 
Q 35.15625 -1.421875 24.609375 -1.421875 
Q 20.21875 -1.421875 15.453125 -0.5625 
Q 10.6875 0.296875 5.421875 2 
L 5.421875 11.28125 
Q 10.40625 8.6875 15.234375 7.390625 
Q 20.0625 6.109375 24.8125 6.109375 
Q 31.15625 6.109375 34.5625 8.28125 
Q 37.984375 10.453125 37.984375 14.40625 
Q 37.984375 18.0625 35.515625 20.015625 
Q 33.0625 21.96875 24.703125 23.78125 
L 21.578125 24.515625 
Q 13.234375 26.265625 9.515625 29.90625 
Q 5.8125 33.546875 5.8125 39.890625 
Q 5.8125 47.609375 11.28125 51.796875 
Q 16.75 56 26.8125 56 
Q 31.78125 56 36.171875 55.265625 
Q 40.578125 54.546875 44.28125 53.078125 
z
" id="DejaVuSans-73"/>
      <path id="DejaVuSans-20"/>
      <path d="M 9.421875 75.984375 
L 18.40625 75.984375 
L 18.40625 0 
L 9.421875 0 
z
" id="DejaVuSans-6c"/>
      <path d="M 45.40625 46.390625 
L 45.40625 75.984375 
L 54.390625 75.984375 
L 54.390625 0 
L 45.40625 0 
L 45.40625 8.203125 
Q 42.578125 3.328125 38.25 0.953125 
Q 33.9375 -1.421875 27.875 -1.421875 
Q 17.96875 -1.421875 11.734375 6.484375 
Q 5.515625 14.40625 5.515625 27.296875 
Q 5.515625 40.1875 11.734375 48.09375 
Q 17.96875 56 27.875 56 
Q 33.9375 56 38.25 53.625 
Q 42.578125 51.265625 45.40625 46.390625 
z
M 14.796875 27.296875 
Q 14.796875 17.390625 18.875 11.75 
Q 22.953125 6.109375 30.078125 6.109375 
Q 37.203125 6.109375 41.296875 11.75 
Q 45.40625 17.390625 45.40625 27.296875 
Q 45.40625 37.203125 41.296875 42.84375 
Q 37.203125 48.484375 30.078125 48.484375 
Q 22.953125 48.484375 18.875 42.84375 
Q 14.796875 37.203125 14.796875 27.296875 
z
" id="DejaVuSans-64"/>
      <path d="M 31 75.875 
Q 24.46875 64.65625 21.28125 53.65625 
Q 18.109375 42.671875 18.109375 31.390625 
Q 18.109375 20.125 21.3125 9.0625 
Q 24.515625 -2 31 -13.1875 
L 23.1875 -13.1875 
Q 15.875 -1.703125 12.234375 9.375 
Q 8.59375 20.453125 8.59375 31.390625 
Q 8.59375 42.28125 12.203125 53.3125 
Q 15.828125 64.359375 23.1875 75.875 
z
" id="DejaVuSans-28"/>
      <path d="M 9.8125 72.90625 
L 24.515625 72.90625 
L 43.109375 23.296875 
L 61.8125 72.90625 
L 76.515625 72.90625 
L 76.515625 0 
L 66.890625 0 
L 66.890625 64.015625 
L 48.09375 14.015625 
L 38.1875 14.015625 
L 19.390625 64.015625 
L 19.390625 0 
L 9.8125 0 
z
" id="DejaVuSans-4d"/>
      <path d="M 3.328125 72.90625 
L 13.28125 72.90625 
L 28.609375 11.28125 
L 43.890625 72.90625 
L 54.984375 72.90625 
L 70.3125 11.28125 
L 85.59375 72.90625 
L 95.609375 72.90625 
L 77.296875 0 
L 64.890625 0 
L 49.515625 63.28125 
L 33.984375 0 
L 21.578125 0 
z
" id="DejaVuSans-57"/>
      <path d="M 8.015625 75.875 
L 15.828125 75.875 
Q 23.140625 64.359375 26.78125 53.3125 
Q 30.421875 42.28125 30.421875 31.390625 
Q 30.421875 20.453125 26.78125 9.375 
Q 23.140625 -1.703125 15.828125 -13.1875 
L 8.015625 -13.1875 
Q 14.5 -2 17.703125 9.0625 
Q 20.90625 20.125 20.90625 31.390625 
Q 20.90625 42.671875 17.703125 53.65625 
Q 14.5 64.65625 8.015625 75.875 
z
" id="DejaVuSans-29"/>
     </defs>
     <g transform="translate(10.344062 207.835369)rotate(-90)scale(0.1 -0.1)">
      <use xlink:href="#DejaVuSans-47"/>
      <use x="77.490234" xlink:href="#DejaVuSans-72"/>
      <use x="118.572266" xlink:href="#DejaVuSans-6f"/>
      <use x="179.753906" xlink:href="#DejaVuSans-73"/>
      <use x="231.853516" xlink:href="#DejaVuSans-73"/>
      <use x="283.953125" xlink:href="#DejaVuSans-20"/>
      <use x="315.740234" xlink:href="#DejaVuSans-6c"/>
      <use x="343.523438" xlink:href="#DejaVuSans-6f"/>
      <use x="404.705078" xlink:href="#DejaVuSans-61"/>
      <use x="465.984375" xlink:href="#DejaVuSans-64"/>
      <use x="529.460938" xlink:href="#DejaVuSans-20"/>
      <use x="561.248047" xlink:href="#DejaVuSans-28"/>
      <use x="600.261719" xlink:href="#DejaVuSans-4d"/>
      <use x="686.541016" xlink:href="#DejaVuSans-57"/>
      <use x="785.417969" xlink:href="#DejaVuSans-29"/>
     </g>
    </g>
   </g>
   <g id="line2d_33">
    <path clip-path="url(#pe1b84013eb)" d="M 42.51125 309.8635 
L 44.570945 177.025873 
L 46.564199 309.8635 
L 84.901111 309.8635 
L 86.960807 231.103353 
L 88.95406 239.405704 
L 91.013756 227.288759 
L 93.073451 177.025873 
L 95.066705 199.015885 
L 97.1264 238.059377 
L 99.119654 246.586117 
L 101.179349 234.917947 
L 103.239045 217.191304 
L 105.165857 194.752516 
L 107.225552 190.04037 
L 109.218806 285.853996 
L 111.278501 203.952419 
L 113.271755 203.054867 
L 115.33145 170.294236 
L 117.391146 170.294236 
L 119.3844 164.908927 
L 121.444095 165.133315 
L 123.437349 159.074842 
L 125.497044 160.869945 
L 127.55674 199.015885 
L 129.41711 165.806479 
L 131.476805 172.313727 
L 133.470059 136.187278 
L 135.529754 128.782478 
L 137.523008 187.572103 
L 139.582703 93.777968 
L 141.642399 86.821944 
L 143.635652 88.617047 
L 145.695348 178.147812 
L 147.688602 70.21724 
L 149.748297 81.88541 
L 151.807993 91.309701 
L 153.668363 87.270719 
L 155.728058 91.758477 
L 157.721312 200.810988 
L 159.781007 126.987375 
L 161.774261 107.016853 
L 163.833956 83.231737 
L 165.893652 92.207253 
L 167.886905 86.373168 
L 169.946601 88.617047 
L 171.939855 85.02684 
L 176.059245 86.821944 
L 177.919615 103.875423 
L 179.979311 89.514598 
L 181.972565 98.714501 
L 184.03226 181.064855 
L 186.025514 94.899907 
L 188.085209 92.207253 
L 190.144905 65.056319 
L 192.138158 88.168271 
L 194.197854 76.500101 
L 196.191107 81.212246 
L 198.250803 81.436634 
L 200.310498 80.539083 
L 202.23731 87.270719 
L 204.297006 87.270719 
L 206.290259 74.031834 
L 208.349955 90.860925 
L 210.343208 93.55358 
L 212.402904 87.495107 
L 214.462599 89.065822 
L 216.455853 72.909895 
L 218.515548 309.639112 
L 220.508802 182.411182 
L 222.568498 81.436634 
L 224.628193 126.538599 
L 226.488563 177.923424 
L 228.548259 89.514598 
L 230.541512 89.514598 
L 232.601208 91.534089 
L 234.594461 132.597072 
L 236.654157 89.514598 
L 238.713852 89.29021 
L 240.707106 88.617047 
L 242.766801 89.514598 
L 248.879446 89.514598 
L 250.739816 88.168271 
L 252.799511 88.617047 
L 254.792765 40.598039 
L 256.852461 123.621556 
L 258.845714 299.541657 
L 260.90541 121.826453 
L 262.965105 114.421653 
L 264.958359 103.202259 
L 267.018054 89.065822 
L 269.011308 89.065822 
L 271.071003 131.923908 
L 273.130699 309.8635 
L 277.050764 309.8635 
L 279.044018 299.766045 
L 281.103713 309.8635 
L 283.096967 309.8635 
L 285.156663 258.254287 
L 287.216358 147.406672 
L 289.209612 149.650551 
L 291.269307 309.8635 
L 293.262561 309.8635 
L 295.322256 196.323231 
L 297.381952 197.220782 
L 299.308764 139.10432 
L 301.368459 95.573071 
L 303.361713 193.630576 
L 305.421408 181.962406 
L 307.414662 149.426163 
L 309.474357 234.020395 
L 311.534053 179.49414 
L 313.527306 199.913437 
L 315.587002 108.811956 
L 317.580255 155.933412 
L 319.639951 309.8635 
L 335.785306 309.8635 
L 337.778559 105.894914 
L 339.838255 183.533121 
L 341.831508 106.119302 
L 343.891204 176.352709 
L 345.950899 205.298746 
L 347.811269 309.8635 
L 349.870965 309.8635 
L 351.864218 125.865435 
L 353.923914 153.240757 
L 355.917168 133.494623 
L 357.976863 107.465629 
L 360.036558 101.182768 
L 362.029812 100.733992 
L 364.089508 100.733992 
L 366.082761 110.158283 
L 368.142457 113.299714 
L 370.202152 98.041338 
L 372.062522 309.8635 
L 378.175167 309.8635 
L 380.16842 95.797459 
L 382.228116 97.81695 
L 384.287811 94.002356 
L 388.34076 92.207253 
L 390.334014 98.490113 
L 392.39371 100.285217 
L 394.453405 111.953387 
L 396.380217 120.928902 
L 398.439912 309.8635 
L 400.433166 115.094817 
L 402.492861 105.894914 
L 404.486115 94.675519 
L 406.545811 93.329192 
L 408.605506 86.14878 
L 410.59876 88.617047 
L 412.658455 86.821944 
L 414.651709 102.08032 
L 416.711404 110.831447 
L 418.7711 106.119302 
L 420.63147 309.8635 
L 424.684419 309.8635 
L 426.744114 225.04488 
L 428.737368 119.133799 
L 430.797064 96.246235 
L 432.856759 102.08032 
L 434.850013 104.548586 
L 436.909708 97.81695 
L 438.902962 98.490113 
L 440.962657 102.529095 
L 443.022353 309.8635 
L 444.882723 207.991401 
L 446.942418 195.874455 
L 446.942418 195.874455 
" style="fill:none;stroke:#1f77b4;stroke-linecap:square;stroke-width:1.5;"/>
   </g>
   <g id="patch_3">
    <path d="M 42.51125 309.8635 
L 42.51125 23.36505 
" style="fill:none;stroke:#000000;stroke-linecap:square;stroke-linejoin:miter;stroke-width:0.8;"/>
   </g>
   <g id="patch_4">
    <path d="M 446.942418 309.8635 
L 446.942418 23.36505 
" style="fill:none;stroke:#000000;stroke-linecap:square;stroke-linejoin:miter;stroke-width:0.8;"/>
   </g>
   <g id="patch_5">
    <path d="M 42.51125 309.8635 
L 446.942418 309.8635 
" style="fill:none;stroke:#000000;stroke-linecap:square;stroke-linejoin:miter;stroke-width:0.8;"/>
   </g>
   <g id="patch_6">
    <path d="M 42.51125 23.36505 
L 446.942418 23.36505 
" style="fill:none;stroke:#000000;stroke-linecap:square;stroke-linejoin:miter;stroke-width:0.8;"/>
   </g>
   <g id="text_19">
    <!-- Monthly gload trend -->
    <defs>
     <path d="M 54.890625 33.015625 
L 54.890625 0 
L 45.90625 0 
L 45.90625 32.71875 
Q 45.90625 40.484375 42.875 44.328125 
Q 39.84375 48.1875 33.796875 48.1875 
Q 26.515625 48.1875 22.3125 43.546875 
Q 18.109375 38.921875 18.109375 30.90625 
L 18.109375 0 
L 9.078125 0 
L 9.078125 54.6875 
L 18.109375 54.6875 
L 18.109375 46.1875 
Q 21.34375 51.125 25.703125 53.5625 
Q 30.078125 56 35.796875 56 
Q 45.21875 56 50.046875 50.171875 
Q 54.890625 44.34375 54.890625 33.015625 
z
" id="DejaVuSans-6e"/>
     <path d="M 54.890625 33.015625 
L 54.890625 0 
L 45.90625 0 
L 45.90625 32.71875 
Q 45.90625 40.484375 42.875 44.328125 
Q 39.84375 48.1875 33.796875 48.1875 
Q 26.515625 48.1875 22.3125 43.546875 
Q 18.109375 38.921875 18.109375 30.90625 
L 18.109375 0 
L 9.078125 0 
L 9.078125 75.984375 
L 18.109375 75.984375 
L 18.109375 46.1875 
Q 21.34375 51.125 25.703125 53.5625 
Q 30.078125 56 35.796875 56 
Q 45.21875 56 50.046875 50.171875 
Q 54.890625 44.34375 54.890625 33.015625 
z
" id="DejaVuSans-68"/>
     <path d="M 32.171875 -5.078125 
Q 28.375 -14.84375 24.75 -17.8125 
Q 21.140625 -20.796875 15.09375 -20.796875 
L 7.90625 -20.796875 
L 7.90625 -13.28125 
L 13.1875 -13.28125 
Q 16.890625 -13.28125 18.9375 -11.515625 
Q 21 -9.765625 23.484375 -3.21875 
L 25.09375 0.875 
L 2.984375 54.6875 
L 12.5 54.6875 
L 29.59375 11.921875 
L 46.6875 54.6875 
L 56.203125 54.6875 
z
" id="DejaVuSans-79"/>
     <path d="M 45.40625 27.984375 
Q 45.40625 37.75 41.375 43.109375 
Q 37.359375 48.484375 30.078125 48.484375 
Q 22.859375 48.484375 18.828125 43.109375 
Q 14.796875 37.75 14.796875 27.984375 
Q 14.796875 18.265625 18.828125 12.890625 
Q 22.859375 7.515625 30.078125 7.515625 
Q 37.359375 7.515625 41.375 12.890625 
Q 45.40625 18.265625 45.40625 27.984375 
z
M 54.390625 6.78125 
Q 54.390625 -7.171875 48.1875 -13.984375 
Q 42 -20.796875 29.203125 -20.796875 
Q 24.46875 -20.796875 20.265625 -20.09375 
Q 16.0625 -19.390625 12.109375 -17.921875 
L 12.109375 -9.1875 
Q 16.0625 -11.328125 19.921875 -12.34375 
Q 23.78125 -13.375 27.78125 -13.375 
Q 36.625 -13.375 41.015625 -8.765625 
Q 45.40625 -4.15625 45.40625 5.171875 
L 45.40625 9.625 
Q 42.625 4.78125 38.28125 2.390625 
Q 33.9375 0 27.875 0 
Q 17.828125 0 11.671875 7.65625 
Q 5.515625 15.328125 5.515625 27.984375 
Q 5.515625 40.671875 11.671875 48.328125 
Q 17.828125 56 27.875 56 
Q 33.9375 56 38.28125 53.609375 
Q 42.625 51.21875 45.40625 46.390625 
L 45.40625 54.6875 
L 54.390625 54.6875 
z
" id="DejaVuSans-67"/>
    </defs>
    <g transform="translate(184.136209 17.36505)scale(0.12 -0.12)">
     <use xlink:href="#DejaVuSans-4d"/>
     <use x="86.279297" xlink:href="#DejaVuSans-6f"/>
     <use x="147.460938" xlink:href="#DejaVuSans-6e"/>
     <use x="210.839844" xlink:href="#DejaVuSans-74"/>
     <use x="250.048828" xlink:href="#DejaVuSans-68"/>
     <use x="313.427734" xlink:href="#DejaVuSans-6c"/>
     <use x="341.210938" xlink:href="#DejaVuSans-79"/>
     <use x="400.390625" xlink:href="#DejaVuSans-20"/>
     <use x="432.177734" xlink:href="#DejaVuSans-67"/>
     <use x="495.654297" xlink:href="#DejaVuSans-6c"/>
     <use x="523.4375" xlink:href="#DejaVuSans-6f"/>
     <use x="584.619141" xlink:href="#DejaVuSans-61"/>
     <use x="645.898438" xlink:href="#DejaVuSans-64"/>
     <use x="709.375" xlink:href="#DejaVuSans-20"/>
     <use x="741.162109" xlink:href="#DejaVuSans-74"/>
     <use x="780.371094" xlink:href="#DejaVuSans-72"/>
     <use x="821.453125" xlink:href="#DejaVuSans-65"/>
     <use x="882.976562" xlink:href="#DejaVuSans-6e"/>
     <use x="946.355469" xlink:href="#DejaVuSans-64"/>
    </g>
   </g>
  </g>
 </g>
 <defs>
  <clipPath id="pe1b84013eb">
   <rect height="286.49845" width="404.431168" x="42.51125" y="23.36505"/>
  </clipPath>
 </defs>
</svg>
