<?xml version="1.0" encoding="utf-8" standalone="no"?>
<!DOCTYPE svg PUBLIC "-//W3C//DTD SVG 1.1//EN"
  "http://www.w3.org/Graphics/SVG/1.1/DTD/svg11.dtd">
<!-- Created with matplotlib (http://matplotlib.org/) -->
<svg height="345.6pt" version="1.1" viewBox="0 0 460.8 345.6" width="460.8pt" xmlns="http://www.w3.org/2000/svg" xmlns:xlink="http://www.w3.org/1999/xlink">
 <defs>
  <style type="text/css">
*{stroke-linecap:butt;stroke-linejoin:round;}
  </style>
 </defs>
 <g id="figure_1">
  <g id="patch_1">
   <path d="M 0 345.6 
L 460.8 345.6 
L 460.8 0 
L 0 0 
z
" style="fill:none;"/>
  </g>
  <g id="axes_1">
   <g id="patch_2">
    <path d="M 42.51125 309.8635 
L 447.107337 309.8635 
L 447.107337 23.36505 
L 42.51125 23.36505 
z
" style="fill:none;"/>
   </g>
   <g id="PolyCollection_1">
    <path clip-path="url(#p32e34911b6)" d="M 42.51125 296.840843 
L 42.51125 296.840843 
L 44.668539 296.840843 
L 46.756238 296.840843 
L 48.913527 296.840843 
L 51.070816 296.840843 
L 53.158515 296.840843 
L 55.315805 296.840843 
L 57.403504 296.840843 
L 59.560793 296.840843 
L 61.718082 296.840843 
L 63.666601 296.840843 
L 65.82389 296.840843 
L 67.911589 296.840843 
L 70.068878 296.840843 
L 72.156577 296.840843 
L 74.313866 279.995615 
L 76.471156 281.075438 
L 78.558855 296.840843 
L 80.716144 296.840843 
L 82.803843 296.840843 
L 84.961132 296.840843 
L 87.118421 296.840843 
L 89.13653 296.840843 
L 91.293819 296.840843 
L 93.381518 296.840843 
L 95.538807 296.840843 
L 97.626506 296.840843 
L 99.783796 296.840843 
L 101.941085 296.840843 
L 104.028784 296.840843 
L 106.186073 296.840843 
L 108.273772 296.840843 
L 110.431061 296.840843 
L 112.58835 296.840843 
L 114.536869 296.840843 
L 116.694158 296.840843 
L 118.781857 296.840843 
L 120.939147 296.840843 
L 123.026846 296.840843 
L 125.184135 296.840843 
L 127.341424 296.840843 
L 129.429123 296.840843 
L 131.586412 296.840843 
L 133.674111 296.840843 
L 135.8314 296.840843 
L 137.988689 296.840843 
L 139.937208 296.840843 
L 142.094498 296.840843 
L 144.182197 296.840843 
L 146.339486 296.840843 
L 148.427185 296.840843 
L 150.584474 171.581458 
L 152.741763 150.416941 
L 154.829462 195.44553 
L 156.986751 141.238451 
L 159.07445 296.840843 
L 161.231739 296.840843 
L 163.389028 296.840843 
L 165.337548 296.840843 
L 167.494837 296.840843 
L 169.582536 296.840843 
L 171.739825 296.840843 
L 173.827524 296.840843 
L 175.984813 279.131758 
L 178.142102 220.389425 
L 180.229801 296.840843 
L 182.38709 296.840843 
L 184.474789 296.840843 
L 186.632079 296.840843 
L 188.789368 296.840843 
L 190.807477 296.840843 
L 192.964766 296.840843 
L 195.052465 296.840843 
L 197.209754 296.840843 
L 199.297453 296.840843 
L 201.454742 296.840843 
L 203.612031 296.840843 
L 205.69973 296.840843 
L 207.857019 296.840843 
L 209.944719 296.840843 
L 212.102008 296.840843 
L 214.259297 296.840843 
L 216.207816 296.840843 
L 218.365105 296.840843 
L 220.452804 296.840843 
L 222.610093 296.840843 
L 224.697792 296.840843 
L 226.855081 296.840843 
L 229.01237 296.840843 
L 231.10007 296.840843 
L 233.257359 296.840843 
L 235.345058 296.840843 
L 237.502347 296.840843 
L 239.659636 296.840843 
L 241.608155 296.840843 
L 243.765444 296.840843 
L 245.853143 296.840843 
L 248.010432 296.840843 
L 250.098131 296.840843 
L 252.255421 228.164146 
L 254.41271 264.878103 
L 256.500409 227.732217 
L 258.657698 296.840843 
L 260.745397 296.840843 
L 262.902686 296.840843 
L 265.059975 296.840843 
L 267.008494 296.840843 
L 269.165783 296.840843 
L 271.253482 296.840843 
L 273.410772 296.840843 
L 275.498471 296.840843 
L 277.65576 260.720788 
L 279.813049 229.028003 
L 281.900748 296.840843 
L 284.058037 296.840843 
L 286.145736 296.840843 
L 288.303025 296.840843 
L 290.460314 296.840843 
L 292.478423 296.840843 
L 294.635712 296.840843 
L 296.723412 296.840843 
L 298.880701 296.840843 
L 300.9684 292.629536 
L 303.125689 296.840843 
L 305.282978 200.30473 
L 307.370677 251.920236 
L 309.527966 232.26747 
L 311.615665 296.840843 
L 313.772954 296.840843 
L 315.930243 296.840843 
L 317.878763 296.840843 
L 320.036052 296.840843 
L 322.123751 296.840843 
L 324.28104 296.840843 
L 326.368739 296.840843 
L 328.526028 296.840843 
L 330.683317 296.840843 
L 332.771016 296.840843 
L 334.928305 296.840843 
L 337.016004 296.840843 
L 339.173293 296.840843 
L 341.330583 296.840843 
L 343.279102 296.840843 
L 345.436391 296.840843 
L 347.52409 296.840843 
L 349.681379 296.840843 
L 351.769078 296.840843 
L 353.926367 296.840843 
L 356.083656 296.840843 
L 358.171355 296.840843 
L 360.328644 296.840843 
L 362.416344 296.840843 
L 364.573633 296.840843 
L 366.730922 296.840843 
L 368.679441 296.840843 
L 370.83673 296.840843 
L 372.924429 296.840843 
L 375.081718 296.840843 
L 377.169417 278.483864 
L 379.326706 241.499951 
L 381.483995 278.861802 
L 383.571695 227.300288 
L 385.728984 174.550969 
L 387.816683 197.929121 
L 389.973972 296.840843 
L 392.131261 296.840843 
L 394.14937 296.840843 
L 396.306659 296.840843 
L 398.394358 296.840843 
L 400.551647 240.042191 
L 402.639346 296.840843 
L 404.796635 161.647092 
L 406.953925 216.232109 
L 409.041624 226.166474 
L 411.198913 222.333105 
L 413.286612 296.840843 
L 415.443901 296.840843 
L 417.60119 296.840843 
L 419.549709 296.840843 
L 421.706998 296.840843 
L 423.794697 296.840843 
L 425.951986 236.802724 
L 428.039686 263.960254 
L 430.196975 187.292872 
L 432.354264 175.630791 
L 434.441963 190.478348 
L 436.599252 149.661065 
L 438.686951 296.840843 
L 440.84424 296.840843 
L 443.001529 296.840843 
L 444.950048 296.840843 
L 447.107337 296.840843 
L 447.107337 296.840843 
L 447.107337 296.840843 
L 444.950048 296.840843 
L 443.001529 296.840843 
L 440.84424 296.840843 
L 438.686951 176.980569 
L 436.599252 45.890143 
L 434.441963 45.026285 
L 432.354264 45.458214 
L 430.196975 45.026285 
L 428.039686 39.411209 
L 425.951986 45.890143 
L 423.794697 296.840843 
L 421.706998 296.840843 
L 419.549709 296.840843 
L 417.60119 296.840843 
L 415.443901 296.840843 
L 413.286612 296.840843 
L 411.198913 65.542909 
L 409.041624 45.026285 
L 406.953925 45.026285 
L 404.796635 45.458214 
L 402.639346 38.97928 
L 400.551647 45.890143 
L 398.394358 296.840843 
L 396.306659 296.840843 
L 394.14937 296.840843 
L 392.131261 296.840843 
L 389.973972 169.205848 
L 387.816683 195.337548 
L 385.728984 102.958751 
L 383.571695 45.458214 
L 381.483995 42.866641 
L 379.326706 44.162427 
L 377.169417 36.387707 
L 375.081718 88.219177 
L 372.924429 163.698755 
L 370.83673 296.840843 
L 368.679441 296.840843 
L 366.730922 296.840843 
L 364.573633 296.840843 
L 362.416344 296.840843 
L 360.328644 44.162427 
L 358.171355 45.026285 
L 356.083656 44.594356 
L 353.926367 44.162427 
L 351.769078 38.97928 
L 349.681379 45.458214 
L 347.52409 296.840843 
L 345.436391 296.840843 
L 343.279102 296.840843 
L 341.330583 296.840843 
L 339.173293 296.840843 
L 337.016004 296.840843 
L 334.928305 45.458214 
L 332.771016 44.594356 
L 330.683317 44.594356 
L 328.526028 44.594356 
L 326.368739 41.138925 
L 324.28104 163.536781 
L 322.123751 148.959181 
L 320.036052 296.840843 
L 317.878763 296.840843 
L 315.930243 296.840843 
L 313.772954 296.840843 
L 311.615665 296.840843 
L 309.527966 44.594356 
L 307.370677 44.594356 
L 305.282978 44.594356 
L 303.125689 44.594356 
L 300.9684 37.251565 
L 298.880701 45.458214 
L 296.723412 296.840843 
L 294.635712 296.840843 
L 292.478423 296.840843 
L 290.460314 296.840843 
L 288.303025 296.840843 
L 286.145736 274.812468 
L 284.058037 296.840843 
L 281.900748 44.162427 
L 279.813049 44.162427 
L 277.65576 43.730498 
L 275.498471 42.002783 
L 273.410772 296.840843 
L 271.253482 296.840843 
L 269.165783 296.840843 
L 267.008494 296.840843 
L 265.059975 296.840843 
L 262.902686 296.840843 
L 260.745397 296.840843 
L 258.657698 296.840843 
L 256.500409 36.819636 
L 254.41271 43.730498 
L 252.255421 44.162427 
L 250.098131 38.97928 
L 248.010432 296.840843 
L 245.853143 296.840843 
L 243.765444 296.840843 
L 241.608155 296.840843 
L 239.659636 296.840843 
L 237.502347 296.840843 
L 235.345058 296.840843 
L 233.257359 66.622731 
L 231.10007 93.24035 
L 229.01237 41.138925 
L 226.855081 68.782376 
L 224.697792 296.840843 
L 222.610093 161.431128 
L 220.452804 157.867714 
L 218.365105 296.840843 
L 216.207816 296.840843 
L 214.259297 296.840843 
L 212.102008 296.840843 
L 209.944719 296.840843 
L 207.857019 48.049788 
L 205.69973 61.439584 
L 203.612031 57.552224 
L 201.454742 51.505219 
L 199.297453 55.662535 
L 197.209754 296.840843 
L 195.052465 123.421383 
L 192.964766 296.840843 
L 190.807477 296.840843 
L 188.789368 175.684782 
L 186.632079 64.733042 
L 184.474789 67.486589 
L 182.38709 57.552224 
L 180.229801 53.664863 
L 178.142102 52.801006 
L 175.984813 54.96065 
L 173.827524 68.350447 
L 171.739825 61.439584 
L 169.582536 296.840843 
L 167.494837 296.840843 
L 165.337548 296.840843 
L 163.389028 296.840843 
L 161.231739 296.840843 
L 159.07445 296.840843 
L 156.986751 52.477059 
L 154.829462 59.279939 
L 152.741763 57.120295 
L 150.584474 48.913645 
L 148.427185 50.641361 
L 146.339486 38.97928 
L 144.182197 83.03603 
L 142.094498 296.840843 
L 139.937208 296.840843 
L 137.988689 296.840843 
L 135.8314 137.459073 
L 133.674111 194.47369 
L 131.586412 143.074149 
L 129.429123 138.75486 
L 127.341424 131.412068 
L 125.184135 121.045774 
L 123.026846 201.600517 
L 120.939147 160.621261 
L 118.781857 296.840843 
L 116.694158 296.840843 
L 114.536869 140.482576 
L 112.58835 193.825797 
L 110.431061 137.459073 
L 108.273772 195.121583 
L 106.186073 178.924249 
L 104.028784 204.192091 
L 101.941085 145.233794 
L 99.783796 140.482576 
L 97.626506 145.665723 
L 95.538807 141.778362 
L 93.381518 160.783235 
L 91.293819 146.097651 
L 89.13653 133.139784 
L 87.118421 117.158414 
L 84.961132 296.840843 
L 82.803843 213.262598 
L 80.716144 138.75486 
L 78.558855 124.069277 
L 76.471156 135.299429 
L 74.313866 135.731358 
L 72.156577 121.099765 
L 70.068878 268.171561 
L 67.911589 209.375238 
L 65.82389 139.186789 
L 63.666601 206.783664 
L 61.718082 296.840843 
L 59.560793 185.403183 
L 57.403504 216.178118 
L 55.315805 296.840843 
L 53.158515 162.780906 
L 51.070816 118.454201 
L 48.913527 117.590343 
L 46.756238 178.276356 
L 44.668539 296.840843 
L 42.51125 296.840843 
z
" style="fill:#808080;fill-opacity:0.6;"/>
   </g>
   <g id="matplotlib.axis_1">
    <g id="xtick_1">
     <g id="line2d_1">
      <path clip-path="url(#p32e34911b6)" d="M 85.030722 309.8635 
L 85.030722 23.36505 
" style="fill:none;stroke:#b0b0b0;stroke-linecap:square;stroke-width:0.8;"/>
     </g>
     <g id="line2d_2">
      <defs>
       <path d="M 0 0 
L 0 3.5 
" id="m13fc0e9f92" style="stroke:#000000;stroke-width:0.8;"/>
      </defs>
      <g>
       <use style="stroke:#000000;stroke-width:0.8;" x="85.030722" xlink:href="#m13fc0e9f92" y="309.8635"/>
      </g>
     </g>
     <g id="text_1">
      <!-- 2004 -->
      <defs>
       <path d="M 19.1875 8.296875 
L 53.609375 8.296875 
L 53.609375 0 
L 7.328125 0 
L 7.328125 8.296875 
Q 12.9375 14.109375 22.625 23.890625 
Q 32.328125 33.6875 34.8125 36.53125 
Q 39.546875 41.84375 41.421875 45.53125 
Q 43.3125 49.21875 43.3125 52.78125 
Q 43.3125 58.59375 39.234375 62.25 
Q 35.15625 65.921875 28.609375 65.921875 
Q 23.96875 65.921875 18.8125 64.3125 
Q 13.671875 62.703125 7.8125 59.421875 
L 7.8125 69.390625 
Q 13.765625 71.78125 18.9375 73 
Q 24.125 74.21875 28.421875 74.21875 
Q 39.75 74.21875 46.484375 68.546875 
Q 53.21875 62.890625 53.21875 53.421875 
Q 53.21875 48.921875 51.53125 44.890625 
Q 49.859375 40.875 45.40625 35.40625 
Q 44.1875 33.984375 37.640625 27.21875 
Q 31.109375 20.453125 19.1875 8.296875 
z
" id="DejaVuSans-32"/>
       <path d="M 31.78125 66.40625 
Q 24.171875 66.40625 20.328125 58.90625 
Q 16.5 51.421875 16.5 36.375 
Q 16.5 21.390625 20.328125 13.890625 
Q 24.171875 6.390625 31.78125 6.390625 
Q 39.453125 6.390625 43.28125 13.890625 
Q 47.125 21.390625 47.125 36.375 
Q 47.125 51.421875 43.28125 58.90625 
Q 39.453125 66.40625 31.78125 66.40625 
z
M 31.78125 74.21875 
Q 44.046875 74.21875 50.515625 64.515625 
Q 56.984375 54.828125 56.984375 36.375 
Q 56.984375 17.96875 50.515625 8.265625 
Q 44.046875 -1.421875 31.78125 -1.421875 
Q 19.53125 -1.421875 13.0625 8.265625 
Q 6.59375 17.96875 6.59375 36.375 
Q 6.59375 54.828125 13.0625 64.515625 
Q 19.53125 74.21875 31.78125 74.21875 
z
" id="DejaVuSans-30"/>
       <path d="M 37.796875 64.3125 
L 12.890625 25.390625 
L 37.796875 25.390625 
z
M 35.203125 72.90625 
L 47.609375 72.90625 
L 47.609375 25.390625 
L 58.015625 25.390625 
L 58.015625 17.1875 
L 47.609375 17.1875 
L 47.609375 0 
L 37.796875 0 
L 37.796875 17.1875 
L 4.890625 17.1875 
L 4.890625 26.703125 
z
" id="DejaVuSans-34"/>
      </defs>
      <g transform="translate(72.305722 324.461937)scale(0.1 -0.1)">
       <use xlink:href="#DejaVuSans-32"/>
       <use x="63.623047" xlink:href="#DejaVuSans-30"/>
       <use x="127.246094" xlink:href="#DejaVuSans-30"/>
       <use x="190.869141" xlink:href="#DejaVuSans-34"/>
      </g>
     </g>
    </g>
    <g id="xtick_2">
     <g id="line2d_3">
      <path clip-path="url(#p32e34911b6)" d="M 135.90099 309.8635 
L 135.90099 23.36505 
" style="fill:none;stroke:#b0b0b0;stroke-linecap:square;stroke-width:0.8;"/>
     </g>
     <g id="line2d_4">
      <g>
       <use style="stroke:#000000;stroke-width:0.8;" x="135.90099" xlink:href="#m13fc0e9f92" y="309.8635"/>
      </g>
     </g>
     <g id="text_2">
      <!-- 2006 -->
      <defs>
       <path d="M 33.015625 40.375 
Q 26.375 40.375 22.484375 35.828125 
Q 18.609375 31.296875 18.609375 23.390625 
Q 18.609375 15.53125 22.484375 10.953125 
Q 26.375 6.390625 33.015625 6.390625 
Q 39.65625 6.390625 43.53125 10.953125 
Q 47.40625 15.53125 47.40625 23.390625 
Q 47.40625 31.296875 43.53125 35.828125 
Q 39.65625 40.375 33.015625 40.375 
z
M 52.59375 71.296875 
L 52.59375 62.3125 
Q 48.875 64.0625 45.09375 64.984375 
Q 41.3125 65.921875 37.59375 65.921875 
Q 27.828125 65.921875 22.671875 59.328125 
Q 17.53125 52.734375 16.796875 39.40625 
Q 19.671875 43.65625 24.015625 45.921875 
Q 28.375 48.1875 33.59375 48.1875 
Q 44.578125 48.1875 50.953125 41.515625 
Q 57.328125 34.859375 57.328125 23.390625 
Q 57.328125 12.15625 50.6875 5.359375 
Q 44.046875 -1.421875 33.015625 -1.421875 
Q 20.359375 -1.421875 13.671875 8.265625 
Q 6.984375 17.96875 6.984375 36.375 
Q 6.984375 53.65625 15.1875 63.9375 
Q 23.390625 74.21875 37.203125 74.21875 
Q 40.921875 74.21875 44.703125 73.484375 
Q 48.484375 72.75 52.59375 71.296875 
z
" id="DejaVuSans-36"/>
      </defs>
      <g transform="translate(123.17599 324.461937)scale(0.1 -0.1)">
       <use xlink:href="#DejaVuSans-32"/>
       <use x="63.623047" xlink:href="#DejaVuSans-30"/>
       <use x="127.246094" xlink:href="#DejaVuSans-30"/>
       <use x="190.869141" xlink:href="#DejaVuSans-36"/>
      </g>
     </g>
    </g>
    <g id="xtick_3">
     <g id="line2d_5">
      <path clip-path="url(#p32e34911b6)" d="M 186.701668 309.8635 
L 186.701668 23.36505 
" style="fill:none;stroke:#b0b0b0;stroke-linecap:square;stroke-width:0.8;"/>
     </g>
     <g id="line2d_6">
      <g>
       <use style="stroke:#000000;stroke-width:0.8;" x="186.701668" xlink:href="#m13fc0e9f92" y="309.8635"/>
      </g>
     </g>
     <g id="text_3">
      <!-- 2008 -->
      <defs>
       <path d="M 31.78125 34.625 
Q 24.75 34.625 20.71875 30.859375 
Q 16.703125 27.09375 16.703125 20.515625 
Q 16.703125 13.921875 20.71875 10.15625 
Q 24.75 6.390625 31.78125 6.390625 
Q 38.8125 6.390625 42.859375 10.171875 
Q 46.921875 13.96875 46.921875 20.515625 
Q 46.921875 27.09375 42.890625 30.859375 
Q 38.875 34.625 31.78125 34.625 
z
M 21.921875 38.8125 
Q 15.578125 40.375 12.03125 44.71875 
Q 8.5 49.078125 8.5 55.328125 
Q 8.5 64.0625 14.71875 69.140625 
Q 20.953125 74.21875 31.78125 74.21875 
Q 42.671875 74.21875 48.875 69.140625 
Q 55.078125 64.0625 55.078125 55.328125 
Q 55.078125 49.078125 51.53125 44.71875 
Q 48 40.375 41.703125 38.8125 
Q 48.828125 37.15625 52.796875 32.3125 
Q 56.78125 27.484375 56.78125 20.515625 
Q 56.78125 9.90625 50.3125 4.234375 
Q 43.84375 -1.421875 31.78125 -1.421875 
Q 19.734375 -1.421875 13.25 4.234375 
Q 6.78125 9.90625 6.78125 20.515625 
Q 6.78125 27.484375 10.78125 32.3125 
Q 14.796875 37.15625 21.921875 38.8125 
z
M 18.3125 54.390625 
Q 18.3125 48.734375 21.84375 45.5625 
Q 25.390625 42.390625 31.78125 42.390625 
Q 38.140625 42.390625 41.71875 45.5625 
Q 45.3125 48.734375 45.3125 54.390625 
Q 45.3125 60.0625 41.71875 63.234375 
Q 38.140625 66.40625 31.78125 66.40625 
Q 25.390625 66.40625 21.84375 63.234375 
Q 18.3125 60.0625 18.3125 54.390625 
z
" id="DejaVuSans-38"/>
      </defs>
      <g transform="translate(173.976668 324.461937)scale(0.1 -0.1)">
       <use xlink:href="#DejaVuSans-32"/>
       <use x="63.623047" xlink:href="#DejaVuSans-30"/>
       <use x="127.246094" xlink:href="#DejaVuSans-30"/>
       <use x="190.869141" xlink:href="#DejaVuSans-38"/>
      </g>
     </g>
    </g>
    <g id="xtick_4">
     <g id="line2d_7">
      <path clip-path="url(#p32e34911b6)" d="M 237.571937 309.8635 
L 237.571937 23.36505 
" style="fill:none;stroke:#b0b0b0;stroke-linecap:square;stroke-width:0.8;"/>
     </g>
     <g id="line2d_8">
      <g>
       <use style="stroke:#000000;stroke-width:0.8;" x="237.571937" xlink:href="#m13fc0e9f92" y="309.8635"/>
      </g>
     </g>
     <g id="text_4">
      <!-- 2010 -->
      <defs>
       <path d="M 12.40625 8.296875 
L 28.515625 8.296875 
L 28.515625 63.921875 
L 10.984375 60.40625 
L 10.984375 69.390625 
L 28.421875 72.90625 
L 38.28125 72.90625 
L 38.28125 8.296875 
L 54.390625 8.296875 
L 54.390625 0 
L 12.40625 0 
z
" id="DejaVuSans-31"/>
      </defs>
      <g transform="translate(224.846937 324.461937)scale(0.1 -0.1)">
       <use xlink:href="#DejaVuSans-32"/>
       <use x="63.623047" xlink:href="#DejaVuSans-30"/>
       <use x="127.246094" xlink:href="#DejaVuSans-31"/>
       <use x="190.869141" xlink:href="#DejaVuSans-30"/>
      </g>
     </g>
    </g>
    <g id="xtick_5">
     <g id="line2d_9">
      <path clip-path="url(#p32e34911b6)" d="M 288.372615 309.8635 
L 288.372615 23.36505 
" style="fill:none;stroke:#b0b0b0;stroke-linecap:square;stroke-width:0.8;"/>
     </g>
     <g id="line2d_10">
      <g>
       <use style="stroke:#000000;stroke-width:0.8;" x="288.372615" xlink:href="#m13fc0e9f92" y="309.8635"/>
      </g>
     </g>
     <g id="text_5">
      <!-- 2012 -->
      <g transform="translate(275.647615 324.461937)scale(0.1 -0.1)">
       <use xlink:href="#DejaVuSans-32"/>
       <use x="63.623047" xlink:href="#DejaVuSans-30"/>
       <use x="127.246094" xlink:href="#DejaVuSans-31"/>
       <use x="190.869141" xlink:href="#DejaVuSans-32"/>
      </g>
     </g>
    </g>
    <g id="xtick_6">
     <g id="line2d_11">
      <path clip-path="url(#p32e34911b6)" d="M 339.242883 309.8635 
L 339.242883 23.36505 
" style="fill:none;stroke:#b0b0b0;stroke-linecap:square;stroke-width:0.8;"/>
     </g>
     <g id="line2d_12">
      <g>
       <use style="stroke:#000000;stroke-width:0.8;" x="339.242883" xlink:href="#m13fc0e9f92" y="309.8635"/>
      </g>
     </g>
     <g id="text_6">
      <!-- 2014 -->
      <g transform="translate(326.517883 324.461937)scale(0.1 -0.1)">
       <use xlink:href="#DejaVuSans-32"/>
       <use x="63.623047" xlink:href="#DejaVuSans-30"/>
       <use x="127.246094" xlink:href="#DejaVuSans-31"/>
       <use x="190.869141" xlink:href="#DejaVuSans-34"/>
      </g>
     </g>
    </g>
    <g id="xtick_7">
     <g id="line2d_13">
      <path clip-path="url(#p32e34911b6)" d="M 390.043562 309.8635 
L 390.043562 23.36505 
" style="fill:none;stroke:#b0b0b0;stroke-linecap:square;stroke-width:0.8;"/>
     </g>
     <g id="line2d_14">
      <g>
       <use style="stroke:#000000;stroke-width:0.8;" x="390.043562" xlink:href="#m13fc0e9f92" y="309.8635"/>
      </g>
     </g>
     <g id="text_7">
      <!-- 2016 -->
      <g transform="translate(377.318562 324.461937)scale(0.1 -0.1)">
       <use xlink:href="#DejaVuSans-32"/>
       <use x="63.623047" xlink:href="#DejaVuSans-30"/>
       <use x="127.246094" xlink:href="#DejaVuSans-31"/>
       <use x="190.869141" xlink:href="#DejaVuSans-36"/>
      </g>
     </g>
    </g>
    <g id="xtick_8">
     <g id="line2d_15">
      <path clip-path="url(#p32e34911b6)" d="M 440.91383 309.8635 
L 440.91383 23.36505 
" style="fill:none;stroke:#b0b0b0;stroke-linecap:square;stroke-width:0.8;"/>
     </g>
     <g id="line2d_16">
      <g>
       <use style="stroke:#000000;stroke-width:0.8;" x="440.91383" xlink:href="#m13fc0e9f92" y="309.8635"/>
      </g>
     </g>
     <g id="text_8">
      <!-- 2018 -->
      <g transform="translate(428.18883 324.461937)scale(0.1 -0.1)">
       <use xlink:href="#DejaVuSans-32"/>
       <use x="63.623047" xlink:href="#DejaVuSans-30"/>
       <use x="127.246094" xlink:href="#DejaVuSans-31"/>
       <use x="190.869141" xlink:href="#DejaVuSans-38"/>
      </g>
     </g>
    </g>
    <g id="text_9">
     <!-- Date -->
     <defs>
      <path d="M 19.671875 64.796875 
L 19.671875 8.109375 
L 31.59375 8.109375 
Q 46.6875 8.109375 53.6875 14.9375 
Q 60.6875 21.78125 60.6875 36.53125 
Q 60.6875 51.171875 53.6875 57.984375 
Q 46.6875 64.796875 31.59375 64.796875 
z
M 9.8125 72.90625 
L 30.078125 72.90625 
Q 51.265625 72.90625 61.171875 64.09375 
Q 71.09375 55.28125 71.09375 36.53125 
Q 71.09375 17.671875 61.125 8.828125 
Q 51.171875 0 30.078125 0 
L 9.8125 0 
z
" id="DejaVuSans-44"/>
      <path d="M 34.28125 27.484375 
Q 23.390625 27.484375 19.1875 25 
Q 14.984375 22.515625 14.984375 16.5 
Q 14.984375 11.71875 18.140625 8.90625 
Q 21.296875 6.109375 26.703125 6.109375 
Q 34.1875 6.109375 38.703125 11.40625 
Q 43.21875 16.703125 43.21875 25.484375 
L 43.21875 27.484375 
z
M 52.203125 31.203125 
L 52.203125 0 
L 43.21875 0 
L 43.21875 8.296875 
Q 40.140625 3.328125 35.546875 0.953125 
Q 30.953125 -1.421875 24.3125 -1.421875 
Q 15.921875 -1.421875 10.953125 3.296875 
Q 6 8.015625 6 15.921875 
Q 6 25.140625 12.171875 29.828125 
Q 18.359375 34.515625 30.609375 34.515625 
L 43.21875 34.515625 
L 43.21875 35.40625 
Q 43.21875 41.609375 39.140625 45 
Q 35.0625 48.390625 27.6875 48.390625 
Q 23 48.390625 18.546875 47.265625 
Q 14.109375 46.140625 10.015625 43.890625 
L 10.015625 52.203125 
Q 14.9375 54.109375 19.578125 55.046875 
Q 24.21875 56 28.609375 56 
Q 40.484375 56 46.34375 49.84375 
Q 52.203125 43.703125 52.203125 31.203125 
z
" id="DejaVuSans-61"/>
      <path d="M 18.3125 70.21875 
L 18.3125 54.6875 
L 36.8125 54.6875 
L 36.8125 47.703125 
L 18.3125 47.703125 
L 18.3125 18.015625 
Q 18.3125 11.328125 20.140625 9.421875 
Q 21.96875 7.515625 27.59375 7.515625 
L 36.8125 7.515625 
L 36.8125 0 
L 27.59375 0 
Q 17.1875 0 13.234375 3.875 
Q 9.28125 7.765625 9.28125 18.015625 
L 9.28125 47.703125 
L 2.6875 47.703125 
L 2.6875 54.6875 
L 9.28125 54.6875 
L 9.28125 70.21875 
z
" id="DejaVuSans-74"/>
      <path d="M 56.203125 29.59375 
L 56.203125 25.203125 
L 14.890625 25.203125 
Q 15.484375 15.921875 20.484375 11.0625 
Q 25.484375 6.203125 34.421875 6.203125 
Q 39.59375 6.203125 44.453125 7.46875 
Q 49.3125 8.734375 54.109375 11.28125 
L 54.109375 2.78125 
Q 49.265625 0.734375 44.1875 -0.34375 
Q 39.109375 -1.421875 33.890625 -1.421875 
Q 20.796875 -1.421875 13.15625 6.1875 
Q 5.515625 13.8125 5.515625 26.8125 
Q 5.515625 40.234375 12.765625 48.109375 
Q 20.015625 56 32.328125 56 
Q 43.359375 56 49.78125 48.890625 
Q 56.203125 41.796875 56.203125 29.59375 
z
M 47.21875 32.234375 
Q 47.125 39.59375 43.09375 43.984375 
Q 39.0625 48.390625 32.421875 48.390625 
Q 24.90625 48.390625 20.390625 44.140625 
Q 15.875 39.890625 15.1875 32.171875 
z
" id="DejaVuSans-65"/>
     </defs>
     <g transform="translate(232.858512 338.140062)scale(0.1 -0.1)">
      <use xlink:href="#DejaVuSans-44"/>
      <use x="77.001953" xlink:href="#DejaVuSans-61"/>
      <use x="138.28125" xlink:href="#DejaVuSans-74"/>
      <use x="177.490234" xlink:href="#DejaVuSans-65"/>
     </g>
    </g>
   </g>
   <g id="matplotlib.axis_2">
    <g id="ytick_1">
     <g id="line2d_17">
      <path clip-path="url(#p32e34911b6)" d="M 42.51125 296.840843 
L 447.107337 296.840843 
" style="fill:none;stroke:#b0b0b0;stroke-linecap:square;stroke-width:0.8;"/>
     </g>
     <g id="line2d_18">
      <defs>
       <path d="M 0 0 
L -3.5 0 
" id="mcbba54d772" style="stroke:#000000;stroke-width:0.8;"/>
      </defs>
      <g>
       <use style="stroke:#000000;stroke-width:0.8;" x="42.51125" xlink:href="#mcbba54d772" y="296.840843"/>
      </g>
     </g>
     <g id="text_10">
      <!-- 0 -->
      <g transform="translate(29.14875 300.640062)scale(0.1 -0.1)">
       <use xlink:href="#DejaVuSans-30"/>
      </g>
     </g>
    </g>
    <g id="ytick_2">
     <g id="line2d_19">
      <path clip-path="url(#p32e34911b6)" d="M 42.51125 253.647952 
L 447.107337 253.647952 
" style="fill:none;stroke:#b0b0b0;stroke-linecap:square;stroke-width:0.8;"/>
     </g>
     <g id="line2d_20">
      <g>
       <use style="stroke:#000000;stroke-width:0.8;" x="42.51125" xlink:href="#mcbba54d772" y="253.647952"/>
      </g>
     </g>
     <g id="text_11">
      <!-- 100 -->
      <g transform="translate(16.42375 257.44717)scale(0.1 -0.1)">
       <use xlink:href="#DejaVuSans-31"/>
       <use x="63.623047" xlink:href="#DejaVuSans-30"/>
       <use x="127.246094" xlink:href="#DejaVuSans-30"/>
      </g>
     </g>
    </g>
    <g id="ytick_3">
     <g id="line2d_21">
      <path clip-path="url(#p32e34911b6)" d="M 42.51125 210.45506 
L 447.107337 210.45506 
" style="fill:none;stroke:#b0b0b0;stroke-linecap:square;stroke-width:0.8;"/>
     </g>
     <g id="line2d_22">
      <g>
       <use style="stroke:#000000;stroke-width:0.8;" x="42.51125" xlink:href="#mcbba54d772" y="210.45506"/>
      </g>
     </g>
     <g id="text_12">
      <!-- 200 -->
      <g transform="translate(16.42375 214.254279)scale(0.1 -0.1)">
       <use xlink:href="#DejaVuSans-32"/>
       <use x="63.623047" xlink:href="#DejaVuSans-30"/>
       <use x="127.246094" xlink:href="#DejaVuSans-30"/>
      </g>
     </g>
    </g>
    <g id="ytick_4">
     <g id="line2d_23">
      <path clip-path="url(#p32e34911b6)" d="M 42.51125 167.262168 
L 447.107337 167.262168 
" style="fill:none;stroke:#b0b0b0;stroke-linecap:square;stroke-width:0.8;"/>
     </g>
     <g id="line2d_24">
      <g>
       <use style="stroke:#000000;stroke-width:0.8;" x="42.51125" xlink:href="#mcbba54d772" y="167.262168"/>
      </g>
     </g>
     <g id="text_13">
      <!-- 300 -->
      <defs>
       <path d="M 40.578125 39.3125 
Q 47.65625 37.796875 51.625 33 
Q 55.609375 28.21875 55.609375 21.1875 
Q 55.609375 10.40625 48.1875 4.484375 
Q 40.765625 -1.421875 27.09375 -1.421875 
Q 22.515625 -1.421875 17.65625 -0.515625 
Q 12.796875 0.390625 7.625 2.203125 
L 7.625 11.71875 
Q 11.71875 9.328125 16.59375 8.109375 
Q 21.484375 6.890625 26.8125 6.890625 
Q 36.078125 6.890625 40.9375 10.546875 
Q 45.796875 14.203125 45.796875 21.1875 
Q 45.796875 27.640625 41.28125 31.265625 
Q 36.765625 34.90625 28.71875 34.90625 
L 20.21875 34.90625 
L 20.21875 43.015625 
L 29.109375 43.015625 
Q 36.375 43.015625 40.234375 45.921875 
Q 44.09375 48.828125 44.09375 54.296875 
Q 44.09375 59.90625 40.109375 62.90625 
Q 36.140625 65.921875 28.71875 65.921875 
Q 24.65625 65.921875 20.015625 65.03125 
Q 15.375 64.15625 9.8125 62.3125 
L 9.8125 71.09375 
Q 15.4375 72.65625 20.34375 73.4375 
Q 25.25 74.21875 29.59375 74.21875 
Q 40.828125 74.21875 47.359375 69.109375 
Q 53.90625 64.015625 53.90625 55.328125 
Q 53.90625 49.265625 50.4375 45.09375 
Q 46.96875 40.921875 40.578125 39.3125 
z
" id="DejaVuSans-33"/>
      </defs>
      <g transform="translate(16.42375 171.061387)scale(0.1 -0.1)">
       <use xlink:href="#DejaVuSans-33"/>
       <use x="63.623047" xlink:href="#DejaVuSans-30"/>
       <use x="127.246094" xlink:href="#DejaVuSans-30"/>
      </g>
     </g>
    </g>
    <g id="ytick_5">
     <g id="line2d_25">
      <path clip-path="url(#p32e34911b6)" d="M 42.51125 124.069277 
L 447.107337 124.069277 
" style="fill:none;stroke:#b0b0b0;stroke-linecap:square;stroke-width:0.8;"/>
     </g>
     <g id="line2d_26">
      <g>
       <use style="stroke:#000000;stroke-width:0.8;" x="42.51125" xlink:href="#mcbba54d772" y="124.069277"/>
      </g>
     </g>
     <g id="text_14">
      <!-- 400 -->
      <g transform="translate(16.42375 127.868496)scale(0.1 -0.1)">
       <use xlink:href="#DejaVuSans-34"/>
       <use x="63.623047" xlink:href="#DejaVuSans-30"/>
       <use x="127.246094" xlink:href="#DejaVuSans-30"/>
      </g>
     </g>
    </g>
    <g id="ytick_6">
     <g id="line2d_27">
      <path clip-path="url(#p32e34911b6)" d="M 42.51125 80.876385 
L 447.107337 80.876385 
" style="fill:none;stroke:#b0b0b0;stroke-linecap:square;stroke-width:0.8;"/>
     </g>
     <g id="line2d_28">
      <g>
       <use style="stroke:#000000;stroke-width:0.8;" x="42.51125" xlink:href="#mcbba54d772" y="80.876385"/>
      </g>
     </g>
     <g id="text_15">
      <!-- 500 -->
      <defs>
       <path d="M 10.796875 72.90625 
L 49.515625 72.90625 
L 49.515625 64.59375 
L 19.828125 64.59375 
L 19.828125 46.734375 
Q 21.96875 47.46875 24.109375 47.828125 
Q 26.265625 48.1875 28.421875 48.1875 
Q 40.625 48.1875 47.75 41.5 
Q 54.890625 34.8125 54.890625 23.390625 
Q 54.890625 11.625 47.5625 5.09375 
Q 40.234375 -1.421875 26.90625 -1.421875 
Q 22.3125 -1.421875 17.546875 -0.640625 
Q 12.796875 0.140625 7.71875 1.703125 
L 7.71875 11.625 
Q 12.109375 9.234375 16.796875 8.0625 
Q 21.484375 6.890625 26.703125 6.890625 
Q 35.15625 6.890625 40.078125 11.328125 
Q 45.015625 15.765625 45.015625 23.390625 
Q 45.015625 31 40.078125 35.4375 
Q 35.15625 39.890625 26.703125 39.890625 
Q 22.75 39.890625 18.8125 39.015625 
Q 14.890625 38.140625 10.796875 36.28125 
z
" id="DejaVuSans-35"/>
      </defs>
      <g transform="translate(16.42375 84.675604)scale(0.1 -0.1)">
       <use xlink:href="#DejaVuSans-35"/>
       <use x="63.623047" xlink:href="#DejaVuSans-30"/>
       <use x="127.246094" xlink:href="#DejaVuSans-30"/>
      </g>
     </g>
    </g>
    <g id="ytick_7">
     <g id="line2d_29">
      <path clip-path="url(#p32e34911b6)" d="M 42.51125 37.683494 
L 447.107337 37.683494 
" style="fill:none;stroke:#b0b0b0;stroke-linecap:square;stroke-width:0.8;"/>
     </g>
     <g id="line2d_30">
      <g>
       <use style="stroke:#000000;stroke-width:0.8;" x="42.51125" xlink:href="#mcbba54d772" y="37.683494"/>
      </g>
     </g>
     <g id="text_16">
      <!-- 600 -->
      <g transform="translate(16.42375 41.482712)scale(0.1 -0.1)">
       <use xlink:href="#DejaVuSans-36"/>
       <use x="63.623047" xlink:href="#DejaVuSans-30"/>
       <use x="127.246094" xlink:href="#DejaVuSans-30"/>
      </g>
     </g>
    </g>
    <g id="text_17">
     <!-- Gross load (MW) -->
     <defs>
      <path d="M 59.515625 10.40625 
L 59.515625 29.984375 
L 43.40625 29.984375 
L 43.40625 38.09375 
L 69.28125 38.09375 
L 69.28125 6.78125 
Q 63.578125 2.734375 56.6875 0.65625 
Q 49.8125 -1.421875 42 -1.421875 
Q 24.90625 -1.421875 15.25 8.5625 
Q 5.609375 18.5625 5.609375 36.375 
Q 5.609375 54.25 15.25 64.234375 
Q 24.90625 74.21875 42 74.21875 
Q 49.125 74.21875 55.546875 72.453125 
Q 61.96875 70.703125 67.390625 67.28125 
L 67.390625 56.78125 
Q 61.921875 61.421875 55.765625 63.765625 
Q 49.609375 66.109375 42.828125 66.109375 
Q 29.4375 66.109375 22.71875 58.640625 
Q 16.015625 51.171875 16.015625 36.375 
Q 16.015625 21.625 22.71875 14.15625 
Q 29.4375 6.6875 42.828125 6.6875 
Q 48.046875 6.6875 52.140625 7.59375 
Q 56.25 8.5 59.515625 10.40625 
z
" id="DejaVuSans-47"/>
      <path d="M 41.109375 46.296875 
Q 39.59375 47.171875 37.8125 47.578125 
Q 36.03125 48 33.890625 48 
Q 26.265625 48 22.1875 43.046875 
Q 18.109375 38.09375 18.109375 28.8125 
L 18.109375 0 
L 9.078125 0 
L 9.078125 54.6875 
L 18.109375 54.6875 
L 18.109375 46.1875 
Q 20.953125 51.171875 25.484375 53.578125 
Q 30.03125 56 36.53125 56 
Q 37.453125 56 38.578125 55.875 
Q 39.703125 55.765625 41.0625 55.515625 
z
" id="DejaVuSans-72"/>
      <path d="M 30.609375 48.390625 
Q 23.390625 48.390625 19.1875 42.75 
Q 14.984375 37.109375 14.984375 27.296875 
Q 14.984375 17.484375 19.15625 11.84375 
Q 23.34375 6.203125 30.609375 6.203125 
Q 37.796875 6.203125 41.984375 11.859375 
Q 46.1875 17.53125 46.1875 27.296875 
Q 46.1875 37.015625 41.984375 42.703125 
Q 37.796875 48.390625 30.609375 48.390625 
z
M 30.609375 56 
Q 42.328125 56 49.015625 48.375 
Q 55.71875 40.765625 55.71875 27.296875 
Q 55.71875 13.875 49.015625 6.21875 
Q 42.328125 -1.421875 30.609375 -1.421875 
Q 18.84375 -1.421875 12.171875 6.21875 
Q 5.515625 13.875 5.515625 27.296875 
Q 5.515625 40.765625 12.171875 48.375 
Q 18.84375 56 30.609375 56 
z
" id="DejaVuSans-6f"/>
      <path d="M 44.28125 53.078125 
L 44.28125 44.578125 
Q 40.484375 46.53125 36.375 47.5 
Q 32.28125 48.484375 27.875 48.484375 
Q 21.1875 48.484375 17.84375 46.4375 
Q 14.5 44.390625 14.5 40.28125 
Q 14.5 37.15625 16.890625 35.375 
Q 19.28125 33.59375 26.515625 31.984375 
L 29.59375 31.296875 
Q 39.15625 29.25 43.1875 25.515625 
Q 47.21875 21.78125 47.21875 15.09375 
Q 47.21875 7.46875 41.1875 3.015625 
Q 35.15625 -1.421875 24.609375 -1.421875 
Q 20.21875 -1.421875 15.453125 -0.5625 
Q 10.6875 0.296875 5.421875 2 
L 5.421875 11.28125 
Q 10.40625 8.6875 15.234375 7.390625 
Q 20.0625 6.109375 24.8125 6.109375 
Q 31.15625 6.109375 34.5625 8.28125 
Q 37.984375 10.453125 37.984375 14.40625 
Q 37.984375 18.0625 35.515625 20.015625 
Q 33.0625 21.96875 24.703125 23.78125 
L 21.578125 24.515625 
Q 13.234375 26.265625 9.515625 29.90625 
Q 5.8125 33.546875 5.8125 39.890625 
Q 5.8125 47.609375 11.28125 51.796875 
Q 16.75 56 26.8125 56 
Q 31.78125 56 36.171875 55.265625 
Q 40.578125 54.546875 44.28125 53.078125 
z
" id="DejaVuSans-73"/>
      <path id="DejaVuSans-20"/>
      <path d="M 9.421875 75.984375 
L 18.40625 75.984375 
L 18.40625 0 
L 9.421875 0 
z
" id="DejaVuSans-6c"/>
      <path d="M 45.40625 46.390625 
L 45.40625 75.984375 
L 54.390625 75.984375 
L 54.390625 0 
L 45.40625 0 
L 45.40625 8.203125 
Q 42.578125 3.328125 38.25 0.953125 
Q 33.9375 -1.421875 27.875 -1.421875 
Q 17.96875 -1.421875 11.734375 6.484375 
Q 5.515625 14.40625 5.515625 27.296875 
Q 5.515625 40.1875 11.734375 48.09375 
Q 17.96875 56 27.875 56 
Q 33.9375 56 38.25 53.625 
Q 42.578125 51.265625 45.40625 46.390625 
z
M 14.796875 27.296875 
Q 14.796875 17.390625 18.875 11.75 
Q 22.953125 6.109375 30.078125 6.109375 
Q 37.203125 6.109375 41.296875 11.75 
Q 45.40625 17.390625 45.40625 27.296875 
Q 45.40625 37.203125 41.296875 42.84375 
Q 37.203125 48.484375 30.078125 48.484375 
Q 22.953125 48.484375 18.875 42.84375 
Q 14.796875 37.203125 14.796875 27.296875 
z
" id="DejaVuSans-64"/>
      <path d="M 31 75.875 
Q 24.46875 64.65625 21.28125 53.65625 
Q 18.109375 42.671875 18.109375 31.390625 
Q 18.109375 20.125 21.3125 9.0625 
Q 24.515625 -2 31 -13.1875 
L 23.1875 -13.1875 
Q 15.875 -1.703125 12.234375 9.375 
Q 8.59375 20.453125 8.59375 31.390625 
Q 8.59375 42.28125 12.203125 53.3125 
Q 15.828125 64.359375 23.1875 75.875 
z
" id="DejaVuSans-28"/>
      <path d="M 9.8125 72.90625 
L 24.515625 72.90625 
L 43.109375 23.296875 
L 61.8125 72.90625 
L 76.515625 72.90625 
L 76.515625 0 
L 66.890625 0 
L 66.890625 64.015625 
L 48.09375 14.015625 
L 38.1875 14.015625 
L 19.390625 64.015625 
L 19.390625 0 
L 9.8125 0 
z
" id="DejaVuSans-4d"/>
      <path d="M 3.328125 72.90625 
L 13.28125 72.90625 
L 28.609375 11.28125 
L 43.890625 72.90625 
L 54.984375 72.90625 
L 70.3125 11.28125 
L 85.59375 72.90625 
L 95.609375 72.90625 
L 77.296875 0 
L 64.890625 0 
L 49.515625 63.28125 
L 33.984375 0 
L 21.578125 0 
z
" id="DejaVuSans-57"/>
      <path d="M 8.015625 75.875 
L 15.828125 75.875 
Q 23.140625 64.359375 26.78125 53.3125 
Q 30.421875 42.28125 30.421875 31.390625 
Q 30.421875 20.453125 26.78125 9.375 
Q 23.140625 -1.703125 15.828125 -13.1875 
L 8.015625 -13.1875 
Q 14.5 -2 17.703125 9.0625 
Q 20.90625 20.125 20.90625 31.390625 
Q 20.90625 42.671875 17.703125 53.65625 
Q 14.5 64.65625 8.015625 75.875 
z
" id="DejaVuSans-29"/>
     </defs>
     <g transform="translate(10.344062 207.835369)rotate(-90)scale(0.1 -0.1)">
      <use xlink:href="#DejaVuSans-47"/>
      <use x="77.490234" xlink:href="#DejaVuSans-72"/>
      <use x="118.572266" xlink:href="#DejaVuSans-6f"/>
      <use x="179.753906" xlink:href="#DejaVuSans-73"/>
      <use x="231.853516" xlink:href="#DejaVuSans-73"/>
      <use x="283.953125" xlink:href="#DejaVuSans-20"/>
      <use x="315.740234" xlink:href="#DejaVuSans-6c"/>
      <use x="343.523438" xlink:href="#DejaVuSans-6f"/>
      <use x="404.705078" xlink:href="#DejaVuSans-61"/>
      <use x="465.984375" xlink:href="#DejaVuSans-64"/>
      <use x="529.460938" xlink:href="#DejaVuSans-20"/>
      <use x="561.248047" xlink:href="#DejaVuSans-28"/>
      <use x="600.261719" xlink:href="#DejaVuSans-4d"/>
      <use x="686.541016" xlink:href="#DejaVuSans-57"/>
      <use x="785.417969" xlink:href="#DejaVuSans-29"/>
     </g>
    </g>
   </g>
   <g id="line2d_31">
    <path clip-path="url(#p32e34911b6)" d="M 42.51125 296.840843 
L 46.756238 296.840843 
L 48.913527 209.375238 
L 51.070816 219.525567 
L 53.158515 281.507367 
L 55.315805 296.840843 
L 72.156577 296.840843 
L 74.313866 176.332676 
L 76.471156 175.468818 
L 78.558855 198.577015 
L 80.716144 224.49275 
L 82.803843 296.840843 
L 84.961132 296.840843 
L 87.118421 235.938866 
L 89.13653 231.187648 
L 91.293819 296.840843 
L 93.381518 296.840843 
L 95.538807 241.553942 
L 97.626506 296.19295 
L 99.783796 215.422243 
L 101.941085 249.760591 
L 104.028784 296.840843 
L 108.273772 296.840843 
L 110.431061 232.915364 
L 112.58835 296.840843 
L 114.536869 255.807596 
L 116.694158 296.840843 
L 123.026846 296.840843 
L 125.184135 235.290973 
L 127.341424 201.384553 
L 129.429123 222.980999 
L 131.586412 241.122013 
L 133.674111 296.840843 
L 135.8314 245.441302 
L 137.988689 296.840843 
L 144.182197 296.840843 
L 146.339486 282.587189 
L 148.427185 110.247551 
L 150.584474 99.0174 
L 152.741763 103.768618 
L 154.829462 107.655978 
L 156.986751 96.857755 
L 159.07445 296.840843 
L 171.739825 296.840843 
L 173.827524 115.214734 
L 175.984813 86.059532 
L 178.142102 86.92339 
L 180.229801 105.064404 
L 182.38709 194.47369 
L 184.474789 213.478562 
L 186.632079 296.840843 
L 192.964766 296.840843 
L 195.052465 274.38054 
L 197.209754 296.840843 
L 199.297453 296.840843 
L 201.454742 196.633335 
L 203.612031 137.027144 
L 205.69973 296.840843 
L 207.857019 197.497192 
L 209.944719 296.840843 
L 224.697792 296.840843 
L 226.855081 192.961939 
L 229.01237 106.360191 
L 231.10007 296.840843 
L 233.257359 207.431558 
L 235.345058 296.840843 
L 248.010432 296.840843 
L 250.098131 156.032017 
L 252.255421 123.205419 
L 254.41271 111.975267 
L 256.500409 127.524708 
L 258.657698 296.840843 
L 273.410772 296.840843 
L 275.498471 152.144656 
L 277.65576 103.120724 
L 279.813049 97.505648 
L 281.900748 138.322931 
L 284.058037 296.840843 
L 296.723412 296.840843 
L 298.880701 152.360621 
L 300.9684 138.106967 
L 303.125689 118.022272 
L 305.282978 92.75443 
L 307.370677 115.214734 
L 309.527966 132.491891 
L 311.615665 296.840843 
L 324.28104 296.840843 
L 326.368739 146.097651 
L 328.526028 132.92382 
L 330.683317 130.980139 
L 332.771016 159.919377 
L 334.928305 214.774349 
L 337.016004 296.840843 
L 347.52409 296.840843 
L 351.769078 156.463945 
L 353.926367 158.191661 
L 356.083656 155.168159 
L 358.171355 158.62359 
L 360.328644 158.191661 
L 362.416344 296.840843 
L 375.081718 296.840843 
L 377.169417 136.595215 
L 379.326706 135.731358 
L 381.483995 127.092779 
L 383.571695 124.933135 
L 385.728984 138.75486 
L 387.816683 196.633335 
L 389.973972 296.840843 
L 398.394358 296.840843 
L 400.551647 119.534023 
L 402.639346 123.421383 
L 404.796635 105.496333 
L 406.953925 102.040902 
L 409.041624 106.144227 
L 411.198913 143.938007 
L 413.286612 296.840843 
L 423.794697 296.840843 
L 425.951986 127.956637 
L 428.039686 129.684353 
L 430.196975 85.411639 
L 432.354264 79.580598 
L 434.441963 82.604101 
L 436.599252 82.604101 
L 438.686951 296.840843 
L 447.107337 296.840843 
L 447.107337 296.840843 
" style="fill:none;stroke:#1f77b4;stroke-linecap:square;stroke-width:1.5;"/>
   </g>
   <g id="patch_3">
    <path d="M 42.51125 309.8635 
L 42.51125 23.36505 
" style="fill:none;stroke:#000000;stroke-linecap:square;stroke-linejoin:miter;stroke-width:0.8;"/>
   </g>
   <g id="patch_4">
    <path d="M 447.107337 309.8635 
L 447.107337 23.36505 
" style="fill:none;stroke:#000000;stroke-linecap:square;stroke-linejoin:miter;stroke-width:0.8;"/>
   </g>
   <g id="patch_5">
    <path d="M 42.51125 309.8635 
L 447.107337 309.8635 
" style="fill:none;stroke:#000000;stroke-linecap:square;stroke-linejoin:miter;stroke-width:0.8;"/>
   </g>
   <g id="patch_6">
    <path d="M 42.51125 23.36505 
L 447.107337 23.36505 
" style="fill:none;stroke:#000000;stroke-linecap:square;stroke-linejoin:miter;stroke-width:0.8;"/>
   </g>
   <g id="text_18">
    <!-- Monthly gload trend -->
    <defs>
     <path d="M 54.890625 33.015625 
L 54.890625 0 
L 45.90625 0 
L 45.90625 32.71875 
Q 45.90625 40.484375 42.875 44.328125 
Q 39.84375 48.1875 33.796875 48.1875 
Q 26.515625 48.1875 22.3125 43.546875 
Q 18.109375 38.921875 18.109375 30.90625 
L 18.109375 0 
L 9.078125 0 
L 9.078125 54.6875 
L 18.109375 54.6875 
L 18.109375 46.1875 
Q 21.34375 51.125 25.703125 53.5625 
Q 30.078125 56 35.796875 56 
Q 45.21875 56 50.046875 50.171875 
Q 54.890625 44.34375 54.890625 33.015625 
z
" id="DejaVuSans-6e"/>
     <path d="M 54.890625 33.015625 
L 54.890625 0 
L 45.90625 0 
L 45.90625 32.71875 
Q 45.90625 40.484375 42.875 44.328125 
Q 39.84375 48.1875 33.796875 48.1875 
Q 26.515625 48.1875 22.3125 43.546875 
Q 18.109375 38.921875 18.109375 30.90625 
L 18.109375 0 
L 9.078125 0 
L 9.078125 75.984375 
L 18.109375 75.984375 
L 18.109375 46.1875 
Q 21.34375 51.125 25.703125 53.5625 
Q 30.078125 56 35.796875 56 
Q 45.21875 56 50.046875 50.171875 
Q 54.890625 44.34375 54.890625 33.015625 
z
" id="DejaVuSans-68"/>
     <path d="M 32.171875 -5.078125 
Q 28.375 -14.84375 24.75 -17.8125 
Q 21.140625 -20.796875 15.09375 -20.796875 
L 7.90625 -20.796875 
L 7.90625 -13.28125 
L 13.1875 -13.28125 
Q 16.890625 -13.28125 18.9375 -11.515625 
Q 21 -9.765625 23.484375 -3.21875 
L 25.09375 0.875 
L 2.984375 54.6875 
L 12.5 54.6875 
L 29.59375 11.921875 
L 46.6875 54.6875 
L 56.203125 54.6875 
z
" id="DejaVuSans-79"/>
     <path d="M 45.40625 27.984375 
Q 45.40625 37.75 41.375 43.109375 
Q 37.359375 48.484375 30.078125 48.484375 
Q 22.859375 48.484375 18.828125 43.109375 
Q 14.796875 37.75 14.796875 27.984375 
Q 14.796875 18.265625 18.828125 12.890625 
Q 22.859375 7.515625 30.078125 7.515625 
Q 37.359375 7.515625 41.375 12.890625 
Q 45.40625 18.265625 45.40625 27.984375 
z
M 54.390625 6.78125 
Q 54.390625 -7.171875 48.1875 -13.984375 
Q 42 -20.796875 29.203125 -20.796875 
Q 24.46875 -20.796875 20.265625 -20.09375 
Q 16.0625 -19.390625 12.109375 -17.921875 
L 12.109375 -9.1875 
Q 16.0625 -11.328125 19.921875 -12.34375 
Q 23.78125 -13.375 27.78125 -13.375 
Q 36.625 -13.375 41.015625 -8.765625 
Q 45.40625 -4.15625 45.40625 5.171875 
L 45.40625 9.625 
Q 42.625 4.78125 38.28125 2.390625 
Q 33.9375 0 27.875 0 
Q 17.828125 0 11.671875 7.65625 
Q 5.515625 15.328125 5.515625 27.984375 
Q 5.515625 40.671875 11.671875 48.328125 
Q 17.828125 56 27.875 56 
Q 33.9375 56 38.28125 53.609375 
Q 42.625 51.21875 45.40625 46.390625 
L 45.40625 54.6875 
L 54.390625 54.6875 
z
" id="DejaVuSans-67"/>
    </defs>
    <g transform="translate(184.218669 17.36505)scale(0.12 -0.12)">
     <use xlink:href="#DejaVuSans-4d"/>
     <use x="86.279297" xlink:href="#DejaVuSans-6f"/>
     <use x="147.460938" xlink:href="#DejaVuSans-6e"/>
     <use x="210.839844" xlink:href="#DejaVuSans-74"/>
     <use x="250.048828" xlink:href="#DejaVuSans-68"/>
     <use x="313.427734" xlink:href="#DejaVuSans-6c"/>
     <use x="341.210938" xlink:href="#DejaVuSans-79"/>
     <use x="400.390625" xlink:href="#DejaVuSans-20"/>
     <use x="432.177734" xlink:href="#DejaVuSans-67"/>
     <use x="495.654297" xlink:href="#DejaVuSans-6c"/>
     <use x="523.4375" xlink:href="#DejaVuSans-6f"/>
     <use x="584.619141" xlink:href="#DejaVuSans-61"/>
     <use x="645.898438" xlink:href="#DejaVuSans-64"/>
     <use x="709.375" xlink:href="#DejaVuSans-20"/>
     <use x="741.162109" xlink:href="#DejaVuSans-74"/>
     <use x="780.371094" xlink:href="#DejaVuSans-72"/>
     <use x="821.453125" xlink:href="#DejaVuSans-65"/>
     <use x="882.976562" xlink:href="#DejaVuSans-6e"/>
     <use x="946.355469" xlink:href="#DejaVuSans-64"/>
    </g>
   </g>
  </g>
 </g>
 <defs>
  <clipPath id="p32e34911b6">
   <rect height="286.49845" width="404.596087" x="42.51125" y="23.36505"/>
  </clipPath>
 </defs>
</svg>
