<?xml version="1.0" encoding="utf-8" standalone="no"?>
<!DOCTYPE svg PUBLIC "-//W3C//DTD SVG 1.1//EN"
  "http://www.w3.org/Graphics/SVG/1.1/DTD/svg11.dtd">
<!-- Created with matplotlib (http://matplotlib.org/) -->
<svg height="345.6pt" version="1.1" viewBox="0 0 460.8 345.6" width="460.8pt" xmlns="http://www.w3.org/2000/svg" xmlns:xlink="http://www.w3.org/1999/xlink">
 <defs>
  <style type="text/css">
*{stroke-linecap:butt;stroke-linejoin:round;}
  </style>
 </defs>
 <g id="figure_1">
  <g id="patch_1">
   <path d="M 0 345.6 
L 460.8 345.6 
L 460.8 0 
L 0 0 
z
" style="fill:none;"/>
  </g>
  <g id="axes_1">
   <g id="patch_2">
    <path d="M 36.124 309.8635 
L 447.307485 309.8635 
L 447.307485 23.36505 
L 36.124 23.36505 
z
" style="fill:none;"/>
   </g>
   <g id="PolyCollection_1">
    <path clip-path="url(#pc1537d7790)" d="M 36.124 229.320274 
L 36.124 309.8635 
L 38.351663 309.8635 
L 40.507466 309.8635 
L 42.735129 309.8635 
L 44.890932 309.8635 
L 47.118595 309.8635 
L 49.346258 309.8635 
L 51.358341 282.107065 
L 53.586004 282.602716 
L 55.741807 281.85924 
L 57.96947 309.8635 
L 60.125273 309.8635 
L 62.352936 309.8635 
L 64.580599 309.8635 
L 66.736402 282.602716 
L 68.964065 309.8635 
L 71.119868 309.8635 
L 73.347531 309.8635 
L 75.575194 309.8635 
L 77.659137 309.8635 
L 79.8868 309.8635 
L 82.042603 309.8635 
L 84.270266 309.8635 
L 86.426069 309.8635 
L 88.653732 309.8635 
L 90.881395 309.8635 
L 93.037198 309.8635 
L 95.264861 309.8635 
L 97.420664 309.8635 
L 99.648327 309.8635 
L 101.87599 309.8635 
L 103.888073 309.8635 
L 106.115736 309.8635 
L 108.271539 309.8635 
L 110.499202 291.028776 
L 112.655005 309.8635 
L 114.882668 271.450577 
L 117.110331 270.459276 
L 119.266134 309.8635 
L 121.493797 309.8635 
L 123.6496 309.8635 
L 125.877263 309.8635 
L 128.104926 290.533126 
L 130.117009 290.037475 
L 132.344672 290.037475 
L 134.500475 290.780951 
L 136.728138 309.8635 
L 138.883941 290.780951 
L 141.111604 272.194053 
L 143.339267 309.8635 
L 145.49507 309.8635 
L 147.722733 309.8635 
L 149.878536 309.8635 
L 152.106199 290.780951 
L 154.333862 291.028776 
L 156.345945 309.8635 
L 158.573608 309.8635 
L 160.729411 309.8635 
L 162.957074 309.8635 
L 165.112877 290.533126 
L 167.34054 290.533126 
L 169.568203 270.21145 
L 171.724006 309.8635 
L 173.951669 309.8635 
L 176.107472 309.8635 
L 178.335135 309.8635 
L 180.562798 309.8635 
L 182.646741 309.8635 
L 184.874404 309.8635 
L 187.030207 309.8635 
L 189.25787 309.8635 
L 191.413673 309.8635 
L 193.641336 278.389686 
L 195.868999 276.407083 
L 198.024802 309.8635 
L 200.252466 309.8635 
L 202.408268 309.8635 
L 204.635932 309.8635 
L 206.863595 309.8635 
L 208.875677 309.8635 
L 211.10334 309.8635 
L 213.259143 275.663607 
L 215.486806 309.8635 
L 217.642609 309.8635 
L 219.870272 274.920131 
L 222.097936 309.8635 
L 224.253738 309.8635 
L 226.481402 309.8635 
L 228.637205 277.150559 
L 230.864868 309.8635 
L 233.092531 309.8635 
L 235.104613 309.8635 
L 237.332276 309.8635 
L 239.488079 309.8635 
L 241.715742 309.8635 
L 243.871545 309.8635 
L 246.099209 309.8635 
L 248.326872 309.8635 
L 250.482675 309.8635 
L 252.710338 309.8635 
L 254.866141 309.8635 
L 257.093804 309.8635 
L 259.321467 309.8635 
L 261.333549 309.8635 
L 263.561213 309.8635 
L 265.717015 309.8635 
L 267.944679 309.8635 
L 270.100481 309.8635 
L 272.328145 309.8635 
L 274.555808 261.78539 
L 276.711611 276.407083 
L 278.939274 276.159258 
L 281.095077 275.911432 
L 283.32274 309.8635 
L 285.550403 276.902734 
L 287.634346 309.8635 
L 289.862009 309.8635 
L 292.017812 309.8635 
L 294.245475 309.8635 
L 296.401278 309.8635 
L 298.628941 309.8635 
L 300.856604 309.615675 
L 303.012407 309.8635 
L 305.24007 276.407083 
L 307.395873 309.8635 
L 309.623536 309.8635 
L 311.851199 309.8635 
L 313.863282 309.8635 
L 316.090945 309.8635 
L 318.246748 276.902734 
L 320.474411 309.8635 
L 322.630214 309.8635 
L 324.857877 273.92883 
L 327.08554 240.472413 
L 329.241343 309.8635 
L 331.469006 275.167957 
L 333.624809 309.8635 
L 335.852472 309.8635 
L 338.080135 309.8635 
L 340.092218 309.8635 
L 342.319881 309.8635 
L 344.475684 309.8635 
L 346.703347 276.654908 
L 348.85915 309.8635 
L 351.086813 309.8635 
L 353.314476 275.911432 
L 355.470279 265.254944 
L 357.697942 265.254944 
L 359.853745 309.8635 
L 362.081408 309.8635 
L 364.309071 309.8635 
L 366.321154 309.8635 
L 368.548817 309.8635 
L 370.70462 309.8635 
L 372.932283 309.8635 
L 375.088086 264.263643 
L 377.315749 203.298617 
L 379.543412 289.541825 
L 381.699215 266.246245 
L 383.926878 265.007119 
L 386.082681 309.615675 
L 388.310344 309.8635 
L 390.538007 273.681005 
L 392.62195 264.511468 
L 394.849613 309.8635 
L 397.005416 275.911432 
L 399.233079 272.689703 
L 401.388882 231.798527 
L 403.616545 229.815925 
L 405.844208 239.976762 
L 408.000011 264.759294 
L 410.227674 309.8635 
L 412.383477 309.8635 
L 414.61114 309.8635 
L 416.838803 309.8635 
L 418.850886 309.8635 
L 421.078549 309.8635 
L 423.234352 309.8635 
L 425.462015 309.8635 
L 427.617818 309.8635 
L 429.845481 236.755033 
L 432.073144 269.220149 
L 434.228947 276.159258 
L 436.45661 276.407083 
L 438.612413 309.8635 
L 440.840076 276.159258 
L 443.067739 276.407083 
L 445.079822 275.911432 
L 447.307485 309.8635 
L 447.307485 89.794624 
L 447.307485 89.794624 
L 445.079822 49.151274 
L 443.067739 52.868653 
L 440.840076 51.877352 
L 438.612413 62.03819 
L 436.45661 56.586033 
L 434.228947 63.525142 
L 432.073144 63.029491 
L 429.845481 64.268617 
L 427.617818 61.790364 
L 425.462015 68.977298 
L 423.234352 52.868653 
L 421.078549 86.077245 
L 418.850886 88.555498 
L 416.838803 92.272878 
L 414.61114 132.916228 
L 412.383477 63.029491 
L 410.227674 69.9686 
L 408.000011 70.46425 
L 405.844208 67.490347 
L 403.616545 65.755569 
L 401.388882 69.9686 
L 399.233079 65.259919 
L 397.005416 49.399099 
L 394.849613 53.612129 
L 392.62195 65.012093 
L 390.538007 42.955641 
L 388.310344 49.894749 
L 386.082681 46.920846 
L 383.926878 68.481648 
L 381.699215 79.633787 
L 379.543412 80.129437 
L 377.315749 71.703377 
L 375.088086 80.625088 
L 372.932283 75.916407 
L 370.70462 90.785926 
L 368.548817 187.685622 
L 366.321154 96.981558 
L 364.309071 68.977298 
L 362.081408 153.485729 
L 359.853745 193.881255 
L 357.697942 93.512004 
L 355.470279 78.39466 
L 353.314476 79.633787 
L 351.086813 77.403359 
L 348.85915 76.412058 
L 346.703347 74.429455 
L 344.475684 65.259919 
L 342.319881 63.772967 
L 340.092218 61.542539 
L 338.080135 67.242521 
L 335.852472 57.329509 
L 333.624809 71.207726 
L 331.469006 60.799063 
L 329.241343 69.225124 
L 327.08554 55.842557 
L 324.857877 133.411879 
L 322.630214 139.855337 
L 320.474411 94.25548 
L 318.246748 137.872735 
L 316.090945 151.255301 
L 313.863282 61.046888 
L 311.851199 37.007833 
L 309.623536 75.668582 
L 307.395873 51.629527 
L 305.24007 52.125177 
L 303.012407 55.099081 
L 300.856604 60.055587 
L 298.628941 64.764268 
L 296.401278 55.099081 
L 294.245475 50.638225 
L 292.017812 54.60343 
L 289.862009 58.32081 
L 287.634346 69.225124 
L 285.550403 53.364304 
L 283.32274 174.05523 
L 281.095077 49.646924 
L 278.939274 49.894749 
L 276.711611 70.46425 
L 274.555808 69.9686 
L 272.328145 187.437797 
L 270.100481 72.942503 
L 267.944679 66.994696 
L 265.717015 61.294714 
L 263.561213 171.576977 
L 261.333549 66.25122 
L 259.321467 62.781666 
L 257.093804 65.259919 
L 254.866141 69.720774 
L 252.710338 79.633787 
L 250.482675 74.429455 
L 248.326872 66.25122 
L 246.099209 78.39466 
L 243.871545 70.216425 
L 241.715742 65.259919 
L 239.488079 72.446853 
L 237.332276 70.712076 
L 235.104613 88.555498 
L 233.092531 133.659704 
L 230.864868 76.164232 
L 228.637205 60.551238 
L 226.481402 66.499045 
L 224.253738 69.720774 
L 222.097936 65.755569 
L 219.870272 60.055587 
L 217.642609 61.790364 
L 215.486806 118.04671 
L 213.259143 101.442414 
L 211.10334 69.472949 
L 208.875677 78.39466 
L 206.863595 47.416496 
L 204.635932 72.942503 
L 202.408268 65.012093 
L 200.252466 70.959901 
L 198.024802 59.559937 
L 195.868999 75.420756 
L 193.641336 59.807762 
L 191.413673 58.568635 
L 189.25787 72.446853 
L 187.030207 82.11204 
L 184.874404 138.864036 
L 182.646741 77.155534 
L 180.562798 57.577334 
L 178.335135 142.581416 
L 176.107472 148.777048 
L 173.951669 143.324891 
L 171.724006 151.998777 
L 169.568203 144.811843 
L 167.34054 140.598813 
L 165.112877 139.855337 
L 162.957074 185.950845 
L 160.729411 156.459633 
L 158.573608 192.642128 
L 156.345945 157.450934 
L 154.333862 143.077066 
L 152.106199 143.572717 
L 149.878536 188.676923 
L 147.722733 138.368385 
L 145.49507 137.624909 
L 143.339267 154.229205 
L 141.111604 141.094464 
L 138.883941 135.642307 
L 136.728138 136.137957 
L 134.500475 142.33359 
L 132.344672 148.529223 
L 130.117009 157.450934 
L 128.104926 149.272699 
L 125.877263 150.759651 
L 123.6496 154.47703 
L 121.493797 134.898831 
L 119.266134 138.12056 
L 117.110331 140.598813 
L 114.882668 138.12056 
L 112.655005 137.624909 
L 110.499202 142.33359 
L 108.271539 150.016175 
L 106.115736 309.8635 
L 103.888073 309.8635 
L 101.87599 224.363768 
L 99.648327 158.19441 
L 97.420664 177.276959 
L 95.264861 187.685622 
L 93.037198 158.937886 
L 90.881395 160.177013 
L 88.653732 158.690061 
L 86.426069 134.898831 
L 84.270266 134.651006 
L 82.042603 152.990079 
L 79.8868 218.663786 
L 77.659137 225.602894 
L 75.575194 309.8635 
L 73.347531 309.8635 
L 71.119868 268.724498 
L 68.964065 236.259383 
L 66.736402 141.83794 
L 64.580599 147.290096 
L 62.352936 152.990079 
L 60.125273 151.750952 
L 57.96947 152.742253 
L 55.741807 183.472592 
L 53.586004 187.933447 
L 51.358341 138.864036 
L 49.346258 159.681362 
L 47.118595 138.12056 
L 44.890932 149.024874 
L 42.735129 147.042271 
L 40.507466 136.385783 
L 38.351663 139.111861 
L 36.124 229.320274 
z
" style="fill:#808080;fill-opacity:0.3;"/>
   </g>
   <g id="PolyCollection_2">
    <path clip-path="url(#pc1537d7790)" d="M 36.124 282.354891 
L 36.124 309.8635 
L 38.351663 241.463714 
L 40.507466 254.846281 
L 42.735129 254.846281 
L 44.890932 255.094106 
L 47.118595 232.170265 
L 49.346258 309.8635 
L 51.358341 222.443122 
L 53.586004 231.612658 
L 55.741807 227.337672 
L 57.96947 283.346192 
L 60.125273 246.668046 
L 62.352936 200.324713 
L 64.580599 229.444187 
L 66.736402 232.418091 
L 68.964065 309.8635 
L 71.119868 309.8635 
L 73.347531 309.8635 
L 75.575194 309.8635 
L 77.659137 309.8635 
L 79.8868 309.8635 
L 82.042603 309.8635 
L 84.270266 309.8635 
L 86.426069 251.252814 
L 88.653732 274.486437 
L 90.881395 257.200622 
L 93.037198 272.441878 
L 95.264861 309.8635 
L 97.420664 306.641771 
L 99.648327 309.8635 
L 101.87599 309.8635 
L 103.888073 309.8635 
L 106.115736 309.8635 
L 108.271539 259.616918 
L 110.499202 248.464779 
L 112.655005 244.809356 
L 114.882668 215.070319 
L 117.110331 221.947471 
L 119.266134 253.421286 
L 121.493797 258.811486 
L 123.6496 270.521232 
L 125.877263 269.220149 
L 128.104926 250.1376 
L 130.117009 250.385426 
L 132.344672 257.076709 
L 134.500475 248.154998 
L 136.728138 257.386491 
L 138.883941 220.584432 
L 141.111604 220.398563 
L 143.339267 246.234352 
L 145.49507 267.113634 
L 147.722733 247.721303 
L 149.878536 272.194053 
L 152.106199 259.554962 
L 154.333862 260.360394 
L 156.345945 265.750595 
L 158.573608 288.302698 
L 160.729411 271.450577 
L 162.957074 281.425546 
L 165.112877 251.872377 
L 167.34054 225.355069 
L 169.568203 228.824624 
L 171.724006 265.99842 
L 173.951669 266.308202 
L 176.107472 272.194053 
L 178.335135 264.759294 
L 180.562798 262.033215 
L 182.646741 240.720238 
L 184.874404 272.008184 
L 187.030207 240.720238 
L 189.25787 238.737636 
L 191.413673 204.537743 
L 193.641336 159.061799 
L 195.868999 173.37371 
L 198.024802 219.407262 
L 200.252466 227.337672 
L 202.408268 268.53863 
L 204.635932 265.254944 
L 206.863595 274.424481 
L 208.875677 267.113634 
L 211.10334 259.616918 
L 213.259143 231.550702 
L 215.486806 237.560466 
L 217.642609 244.003924 
L 219.870272 160.920488 
L 222.097936 197.84646 
L 224.253738 230.125706 
L 226.481402 193.385604 
L 228.637205 228.20506 
L 230.864868 251.686508 
L 233.092531 309.8635 
L 235.104613 270.273407 
L 237.332276 269.777756 
L 239.488079 239.976762 
L 241.715742 239.728937 
L 243.871545 262.652778 
L 246.099209 210.981201 
L 248.326872 195.182338 
L 250.482675 250.943032 
L 252.710338 234.028955 
L 254.866141 297.658103 
L 257.093804 261.599521 
L 259.321467 232.789828 
L 261.333549 306.208077 
L 263.561213 306.14612 
L 265.717015 244.499574 
L 267.944679 302.738522 
L 270.100481 277.64621 
L 272.328145 309.8635 
L 274.555808 193.943211 
L 276.711611 194.934512 
L 278.939274 175.046531 
L 281.095077 226.408327 
L 283.32274 251.748465 
L 285.550403 229.134405 
L 287.634346 257.882141 
L 289.862009 230.559401 
L 292.017812 198.961674 
L 294.245475 251.934334 
L 296.401278 219.283349 
L 298.628941 195.616032 
L 300.856604 165.876995 
L 303.012407 188.243229 
L 305.24007 214.326843 
L 307.395873 243.694142 
L 309.623536 227.957235 
L 311.851199 223.372467 
L 313.863282 211.476852 
L 316.090945 241.773496 
L 318.246748 240.720238 
L 320.474411 270.21145 
L 322.630214 261.847346 
L 324.857877 223.372467 
L 327.08554 160.300925 
L 329.241343 211.290983 
L 331.469006 228.328973 
L 333.624809 226.098545 
L 335.852472 227.089846 
L 338.080135 232.108309 
L 340.092218 241.215889 
L 342.319881 275.415782 
L 344.475684 240.968064 
L 346.703347 241.03002 
L 348.85915 241.463714 
L 351.086813 201.749708 
L 353.314476 198.713848 
L 355.470279 197.660591 
L 357.697942 228.328973 
L 359.853745 240.472413 
L 362.081408 259.059311 
L 364.309071 235.020256 
L 366.321154 242.455016 
L 368.548817 242.20719 
L 370.70462 242.20719 
L 372.932283 239.976762 
L 375.088086 166.620471 
L 377.315749 135.394482 
L 379.543412 131.181451 
L 381.699215 127.216246 
L 383.926878 134.155355 
L 386.082681 219.717043 
L 388.310344 229.630056 
L 390.538007 183.038897 
L 392.62195 176.285658 
L 394.849613 237.560466 
L 397.005416 163.398742 
L 399.233079 159.991144 
L 401.388882 170.647632 
L 403.616545 148.962917 
L 405.844208 135.704263 
L 408.000011 157.079196 
L 410.227674 199.952975 
L 412.383477 274.486437 
L 414.61114 264.511468 
L 416.838803 268.53863 
L 418.850886 272.937529 
L 421.078549 265.502769 
L 423.234352 228.576798 
L 425.462015 233.78113 
L 427.617818 203.856224 
L 429.845481 168.169379 
L 432.073144 191.960609 
L 434.228947 200.386669 
L 436.45661 195.801901 
L 438.612413 257.138665 
L 440.840076 187.933447 
L 443.067739 222.567034 
L 445.079822 213.273585 
L 447.307485 263.953861 
L 447.307485 197.598634 
L 447.307485 197.598634 
L 445.079822 132.420578 
L 443.067739 131.924927 
L 440.840076 97.477209 
L 438.612413 142.953153 
L 436.45661 86.758764 
L 434.228947 98.220685 
L 432.073144 94.937 
L 429.845481 91.467445 
L 427.617818 108.071741 
L 425.462015 153.857467 
L 423.234352 128.951023 
L 421.078549 214.20293 
L 418.850886 228.081148 
L 416.838803 217.672485 
L 414.61114 204.042092 
L 412.383477 188.614967 
L 410.227674 106.089139 
L 408.000011 98.406554 
L 405.844208 94.007655 
L 403.616545 97.725034 
L 401.388882 102.18589 
L 399.233079 110.364125 
L 397.005416 97.910903 
L 394.849613 157.946585 
L 392.62195 123.43691 
L 390.538007 114.701068 
L 388.310344 129.322761 
L 386.082681 133.349923 
L 383.926878 102.681541 
L 381.699215 99.707637 
L 379.543412 101.938065 
L 377.315749 108.133697 
L 375.088086 109.124999 
L 372.932283 189.296487 
L 370.70462 214.822493 
L 368.548817 222.628991 
L 366.321154 216.185533 
L 364.309071 209.927944 
L 362.081408 218.663786 
L 359.853745 223.124641 
L 357.697942 209.494249 
L 355.470279 114.019549 
L 353.314476 115.258675 
L 351.086813 118.976055 
L 348.85915 137.562953 
L 346.703347 159.619406 
L 344.475684 159.929187 
L 342.319881 231.302877 
L 340.092218 188.367142 
L 338.080135 171.515021 
L 335.852472 138.554254 
L 333.624809 162.159615 
L 331.469006 194.562774 
L 329.241343 121.640177 
L 327.08554 98.46851 
L 324.857877 201.811665 
L 322.630214 206.768171 
L 320.474411 212.963804 
L 318.246748 212.220328 
L 316.090945 216.681183 
L 313.863282 138.430342 
L 311.851199 141.590114 
L 309.623536 153.175948 
L 307.395873 152.12269 
L 305.24007 114.081505 
L 303.012407 103.672842 
L 300.856604 91.529402 
L 298.628941 99.397855 
L 296.401278 93.450048 
L 294.245475 104.911968 
L 292.017812 115.940195 
L 289.862009 141.590114 
L 287.634346 179.755212 
L 285.550403 143.758586 
L 283.32274 204.723612 
L 281.095077 175.480225 
L 278.939274 89.051149 
L 276.711611 110.1163 
L 274.555808 100.203287 
L 272.328145 213.211629 
L 270.100481 157.450934 
L 267.944679 173.745448 
L 265.717015 144.935756 
L 263.561213 234.214824 
L 261.333549 221.885515 
L 259.321467 131.119495 
L 257.093804 179.135649 
L 254.866141 220.27465 
L 252.710338 201.316014 
L 250.482675 113.523898 
L 248.326872 104.850012 
L 246.099209 112.036946 
L 243.871545 127.897766 
L 241.715742 149.892262 
L 239.488079 176.161745 
L 237.332276 204.537743 
L 235.104613 218.911611 
L 233.092531 234.772431 
L 230.864868 207.449691 
L 228.637205 155.406375 
L 226.481402 109.620649 
L 224.253738 113.83368 
L 222.097936 123.746692 
L 219.870272 95.928301 
L 217.642609 125.543425 
L 215.486806 200.572538 
L 213.259143 203.298617 
L 211.10334 108.877173 
L 208.875677 169.8422 
L 206.863595 205.962739 
L 204.635932 178.578042 
L 202.408268 162.159615 
L 200.252466 102.86741 
L 198.024802 103.858711 
L 195.868999 103.858711 
L 193.641336 96.485908 
L 191.413673 95.990257 
L 189.25787 152.680297 
L 187.030207 170.090025 
L 184.874404 215.442057 
L 182.646741 177.029134 
L 180.562798 181.30412 
L 178.335135 198.589936 
L 176.107472 194.314949 
L 173.951669 180.250863 
L 171.724006 185.207369 
L 169.568203 176.781308 
L 167.34054 171.081326 
L 165.112877 175.542182 
L 162.957074 237.250684 
L 160.729411 234.214824 
L 158.573608 242.455016 
L 156.345945 215.442057 
L 154.333862 202.307315 
L 152.106199 202.493184 
L 149.878536 238.427854 
L 147.722733 173.063929 
L 145.49507 190.659526 
L 143.339267 182.233465 
L 141.111604 160.858532 
L 138.883941 156.397677 
L 136.728138 172.258496 
L 134.500475 185.579107 
L 132.344672 205.219263 
L 130.117009 193.509517 
L 128.104926 186.384539 
L 125.877263 235.020256 
L 123.6496 216.247489 
L 121.493797 180.003037 
L 119.266134 178.206304 
L 117.110331 167.363947 
L 114.882668 156.893327 
L 112.655005 183.038897 
L 110.499202 177.029134 
L 108.271539 198.156241 
L 106.115736 309.8635 
L 103.888073 309.8635 
L 101.87599 269.901669 
L 99.648327 230.559401 
L 97.420664 228.576798 
L 95.264861 271.202752 
L 93.037198 200.510582 
L 90.881395 197.598634 
L 88.653732 205.77687 
L 86.426069 165.505257 
L 84.270266 164.26613 
L 82.042603 309.8635 
L 79.8868 309.8635 
L 77.659137 309.8635 
L 75.575194 309.8635 
L 73.347531 309.8635 
L 71.119868 309.8635 
L 68.964065 309.8635 
L 66.736402 175.294356 
L 64.580599 182.729116 
L 62.352936 162.655266 
L 60.125273 180.746513 
L 57.96947 226.656152 
L 55.741807 204.785568 
L 53.586004 205.033394 
L 51.358341 181.242164 
L 49.346258 235.949601 
L 47.118595 180.746513 
L 44.890932 192.332347 
L 42.735129 218.539873 
L 40.507466 202.926879 
L 38.351663 203.794267 
L 36.124 282.354891 
z
" style="fill:#808080;fill-opacity:0.6;"/>
   </g>
   <g id="matplotlib.axis_1">
    <g id="xtick_1">
     <g id="line2d_1">
      <path clip-path="url(#pc1537d7790)" d="M 73.419391 309.8635 
L 73.419391 23.36505 
" style="fill:none;stroke:#b0b0b0;stroke-linecap:square;stroke-width:0.8;"/>
     </g>
     <g id="line2d_2">
      <defs>
       <path d="M 0 0 
L 0 3.5 
" id="m765694dda6" style="stroke:#000000;stroke-width:0.8;"/>
      </defs>
      <g>
       <use style="stroke:#000000;stroke-width:0.8;" x="73.419391" xlink:href="#m765694dda6" y="309.8635"/>
      </g>
     </g>
     <g id="text_1">
      <!-- 2004 -->
      <defs>
       <path d="M 19.1875 8.296875 
L 53.609375 8.296875 
L 53.609375 0 
L 7.328125 0 
L 7.328125 8.296875 
Q 12.9375 14.109375 22.625 23.890625 
Q 32.328125 33.6875 34.8125 36.53125 
Q 39.546875 41.84375 41.421875 45.53125 
Q 43.3125 49.21875 43.3125 52.78125 
Q 43.3125 58.59375 39.234375 62.25 
Q 35.15625 65.921875 28.609375 65.921875 
Q 23.96875 65.921875 18.8125 64.3125 
Q 13.671875 62.703125 7.8125 59.421875 
L 7.8125 69.390625 
Q 13.765625 71.78125 18.9375 73 
Q 24.125 74.21875 28.421875 74.21875 
Q 39.75 74.21875 46.484375 68.546875 
Q 53.21875 62.890625 53.21875 53.421875 
Q 53.21875 48.921875 51.53125 44.890625 
Q 49.859375 40.875 45.40625 35.40625 
Q 44.1875 33.984375 37.640625 27.21875 
Q 31.109375 20.453125 19.1875 8.296875 
z
" id="DejaVuSans-32"/>
       <path d="M 31.78125 66.40625 
Q 24.171875 66.40625 20.328125 58.90625 
Q 16.5 51.421875 16.5 36.375 
Q 16.5 21.390625 20.328125 13.890625 
Q 24.171875 6.390625 31.78125 6.390625 
Q 39.453125 6.390625 43.28125 13.890625 
Q 47.125 21.390625 47.125 36.375 
Q 47.125 51.421875 43.28125 58.90625 
Q 39.453125 66.40625 31.78125 66.40625 
z
M 31.78125 74.21875 
Q 44.046875 74.21875 50.515625 64.515625 
Q 56.984375 54.828125 56.984375 36.375 
Q 56.984375 17.96875 50.515625 8.265625 
Q 44.046875 -1.421875 31.78125 -1.421875 
Q 19.53125 -1.421875 13.0625 8.265625 
Q 6.59375 17.96875 6.59375 36.375 
Q 6.59375 54.828125 13.0625 64.515625 
Q 19.53125 74.21875 31.78125 74.21875 
z
" id="DejaVuSans-30"/>
       <path d="M 37.796875 64.3125 
L 12.890625 25.390625 
L 37.796875 25.390625 
z
M 35.203125 72.90625 
L 47.609375 72.90625 
L 47.609375 25.390625 
L 58.015625 25.390625 
L 58.015625 17.1875 
L 47.609375 17.1875 
L 47.609375 0 
L 37.796875 0 
L 37.796875 17.1875 
L 4.890625 17.1875 
L 4.890625 26.703125 
z
" id="DejaVuSans-34"/>
      </defs>
      <g transform="translate(60.694391 324.461937)scale(0.1 -0.1)">
       <use xlink:href="#DejaVuSans-32"/>
       <use x="63.623047" xlink:href="#DejaVuSans-30"/>
       <use x="127.246094" xlink:href="#DejaVuSans-30"/>
       <use x="190.869141" xlink:href="#DejaVuSans-34"/>
      </g>
     </g>
    </g>
    <g id="xtick_2">
     <g id="line2d_3">
      <path clip-path="url(#pc1537d7790)" d="M 125.949123 309.8635 
L 125.949123 23.36505 
" style="fill:none;stroke:#b0b0b0;stroke-linecap:square;stroke-width:0.8;"/>
     </g>
     <g id="line2d_4">
      <g>
       <use style="stroke:#000000;stroke-width:0.8;" x="125.949123" xlink:href="#m765694dda6" y="309.8635"/>
      </g>
     </g>
     <g id="text_2">
      <!-- 2006 -->
      <defs>
       <path d="M 33.015625 40.375 
Q 26.375 40.375 22.484375 35.828125 
Q 18.609375 31.296875 18.609375 23.390625 
Q 18.609375 15.53125 22.484375 10.953125 
Q 26.375 6.390625 33.015625 6.390625 
Q 39.65625 6.390625 43.53125 10.953125 
Q 47.40625 15.53125 47.40625 23.390625 
Q 47.40625 31.296875 43.53125 35.828125 
Q 39.65625 40.375 33.015625 40.375 
z
M 52.59375 71.296875 
L 52.59375 62.3125 
Q 48.875 64.0625 45.09375 64.984375 
Q 41.3125 65.921875 37.59375 65.921875 
Q 27.828125 65.921875 22.671875 59.328125 
Q 17.53125 52.734375 16.796875 39.40625 
Q 19.671875 43.65625 24.015625 45.921875 
Q 28.375 48.1875 33.59375 48.1875 
Q 44.578125 48.1875 50.953125 41.515625 
Q 57.328125 34.859375 57.328125 23.390625 
Q 57.328125 12.15625 50.6875 5.359375 
Q 44.046875 -1.421875 33.015625 -1.421875 
Q 20.359375 -1.421875 13.671875 8.265625 
Q 6.984375 17.96875 6.984375 36.375 
Q 6.984375 53.65625 15.1875 63.9375 
Q 23.390625 74.21875 37.203125 74.21875 
Q 40.921875 74.21875 44.703125 73.484375 
Q 48.484375 72.75 52.59375 71.296875 
z
" id="DejaVuSans-36"/>
      </defs>
      <g transform="translate(113.224123 324.461937)scale(0.1 -0.1)">
       <use xlink:href="#DejaVuSans-32"/>
       <use x="63.623047" xlink:href="#DejaVuSans-30"/>
       <use x="127.246094" xlink:href="#DejaVuSans-30"/>
       <use x="190.869141" xlink:href="#DejaVuSans-36"/>
      </g>
     </g>
    </g>
    <g id="xtick_3">
     <g id="line2d_5">
      <path clip-path="url(#pc1537d7790)" d="M 178.406995 309.8635 
L 178.406995 23.36505 
" style="fill:none;stroke:#b0b0b0;stroke-linecap:square;stroke-width:0.8;"/>
     </g>
     <g id="line2d_6">
      <g>
       <use style="stroke:#000000;stroke-width:0.8;" x="178.406995" xlink:href="#m765694dda6" y="309.8635"/>
      </g>
     </g>
     <g id="text_3">
      <!-- 2008 -->
      <defs>
       <path d="M 31.78125 34.625 
Q 24.75 34.625 20.71875 30.859375 
Q 16.703125 27.09375 16.703125 20.515625 
Q 16.703125 13.921875 20.71875 10.15625 
Q 24.75 6.390625 31.78125 6.390625 
Q 38.8125 6.390625 42.859375 10.171875 
Q 46.921875 13.96875 46.921875 20.515625 
Q 46.921875 27.09375 42.890625 30.859375 
Q 38.875 34.625 31.78125 34.625 
z
M 21.921875 38.8125 
Q 15.578125 40.375 12.03125 44.71875 
Q 8.5 49.078125 8.5 55.328125 
Q 8.5 64.0625 14.71875 69.140625 
Q 20.953125 74.21875 31.78125 74.21875 
Q 42.671875 74.21875 48.875 69.140625 
Q 55.078125 64.0625 55.078125 55.328125 
Q 55.078125 49.078125 51.53125 44.71875 
Q 48 40.375 41.703125 38.8125 
Q 48.828125 37.15625 52.796875 32.3125 
Q 56.78125 27.484375 56.78125 20.515625 
Q 56.78125 9.90625 50.3125 4.234375 
Q 43.84375 -1.421875 31.78125 -1.421875 
Q 19.734375 -1.421875 13.25 4.234375 
Q 6.78125 9.90625 6.78125 20.515625 
Q 6.78125 27.484375 10.78125 32.3125 
Q 14.796875 37.15625 21.921875 38.8125 
z
M 18.3125 54.390625 
Q 18.3125 48.734375 21.84375 45.5625 
Q 25.390625 42.390625 31.78125 42.390625 
Q 38.140625 42.390625 41.71875 45.5625 
Q 45.3125 48.734375 45.3125 54.390625 
Q 45.3125 60.0625 41.71875 63.234375 
Q 38.140625 66.40625 31.78125 66.40625 
Q 25.390625 66.40625 21.84375 63.234375 
Q 18.3125 60.0625 18.3125 54.390625 
z
" id="DejaVuSans-38"/>
      </defs>
      <g transform="translate(165.681995 324.461937)scale(0.1 -0.1)">
       <use xlink:href="#DejaVuSans-32"/>
       <use x="63.623047" xlink:href="#DejaVuSans-30"/>
       <use x="127.246094" xlink:href="#DejaVuSans-30"/>
       <use x="190.869141" xlink:href="#DejaVuSans-38"/>
      </g>
     </g>
    </g>
    <g id="xtick_4">
     <g id="line2d_7">
      <path clip-path="url(#pc1537d7790)" d="M 230.936728 309.8635 
L 230.936728 23.36505 
" style="fill:none;stroke:#b0b0b0;stroke-linecap:square;stroke-width:0.8;"/>
     </g>
     <g id="line2d_8">
      <g>
       <use style="stroke:#000000;stroke-width:0.8;" x="230.936728" xlink:href="#m765694dda6" y="309.8635"/>
      </g>
     </g>
     <g id="text_4">
      <!-- 2010 -->
      <defs>
       <path d="M 12.40625 8.296875 
L 28.515625 8.296875 
L 28.515625 63.921875 
L 10.984375 60.40625 
L 10.984375 69.390625 
L 28.421875 72.90625 
L 38.28125 72.90625 
L 38.28125 8.296875 
L 54.390625 8.296875 
L 54.390625 0 
L 12.40625 0 
z
" id="DejaVuSans-31"/>
      </defs>
      <g transform="translate(218.211728 324.461937)scale(0.1 -0.1)">
       <use xlink:href="#DejaVuSans-32"/>
       <use x="63.623047" xlink:href="#DejaVuSans-30"/>
       <use x="127.246094" xlink:href="#DejaVuSans-31"/>
       <use x="190.869141" xlink:href="#DejaVuSans-30"/>
      </g>
     </g>
    </g>
    <g id="xtick_5">
     <g id="line2d_9">
      <path clip-path="url(#pc1537d7790)" d="M 283.3946 309.8635 
L 283.3946 23.36505 
" style="fill:none;stroke:#b0b0b0;stroke-linecap:square;stroke-width:0.8;"/>
     </g>
     <g id="line2d_10">
      <g>
       <use style="stroke:#000000;stroke-width:0.8;" x="283.3946" xlink:href="#m765694dda6" y="309.8635"/>
      </g>
     </g>
     <g id="text_5">
      <!-- 2012 -->
      <g transform="translate(270.6696 324.461937)scale(0.1 -0.1)">
       <use xlink:href="#DejaVuSans-32"/>
       <use x="63.623047" xlink:href="#DejaVuSans-30"/>
       <use x="127.246094" xlink:href="#DejaVuSans-31"/>
       <use x="190.869141" xlink:href="#DejaVuSans-32"/>
      </g>
     </g>
    </g>
    <g id="xtick_6">
     <g id="line2d_11">
      <path clip-path="url(#pc1537d7790)" d="M 335.924332 309.8635 
L 335.924332 23.36505 
" style="fill:none;stroke:#b0b0b0;stroke-linecap:square;stroke-width:0.8;"/>
     </g>
     <g id="line2d_12">
      <g>
       <use style="stroke:#000000;stroke-width:0.8;" x="335.924332" xlink:href="#m765694dda6" y="309.8635"/>
      </g>
     </g>
     <g id="text_6">
      <!-- 2014 -->
      <g transform="translate(323.199332 324.461937)scale(0.1 -0.1)">
       <use xlink:href="#DejaVuSans-32"/>
       <use x="63.623047" xlink:href="#DejaVuSans-30"/>
       <use x="127.246094" xlink:href="#DejaVuSans-31"/>
       <use x="190.869141" xlink:href="#DejaVuSans-34"/>
      </g>
     </g>
    </g>
    <g id="xtick_7">
     <g id="line2d_13">
      <path clip-path="url(#pc1537d7790)" d="M 388.382204 309.8635 
L 388.382204 23.36505 
" style="fill:none;stroke:#b0b0b0;stroke-linecap:square;stroke-width:0.8;"/>
     </g>
     <g id="line2d_14">
      <g>
       <use style="stroke:#000000;stroke-width:0.8;" x="388.382204" xlink:href="#m765694dda6" y="309.8635"/>
      </g>
     </g>
     <g id="text_7">
      <!-- 2016 -->
      <g transform="translate(375.657204 324.461937)scale(0.1 -0.1)">
       <use xlink:href="#DejaVuSans-32"/>
       <use x="63.623047" xlink:href="#DejaVuSans-30"/>
       <use x="127.246094" xlink:href="#DejaVuSans-31"/>
       <use x="190.869141" xlink:href="#DejaVuSans-36"/>
      </g>
     </g>
    </g>
    <g id="xtick_8">
     <g id="line2d_15">
      <path clip-path="url(#pc1537d7790)" d="M 440.911936 309.8635 
L 440.911936 23.36505 
" style="fill:none;stroke:#b0b0b0;stroke-linecap:square;stroke-width:0.8;"/>
     </g>
     <g id="line2d_16">
      <g>
       <use style="stroke:#000000;stroke-width:0.8;" x="440.911936" xlink:href="#m765694dda6" y="309.8635"/>
      </g>
     </g>
     <g id="text_8">
      <!-- 2018 -->
      <g transform="translate(428.186936 324.461937)scale(0.1 -0.1)">
       <use xlink:href="#DejaVuSans-32"/>
       <use x="63.623047" xlink:href="#DejaVuSans-30"/>
       <use x="127.246094" xlink:href="#DejaVuSans-31"/>
       <use x="190.869141" xlink:href="#DejaVuSans-38"/>
      </g>
     </g>
    </g>
    <g id="text_9">
     <!-- Date -->
     <defs>
      <path d="M 19.671875 64.796875 
L 19.671875 8.109375 
L 31.59375 8.109375 
Q 46.6875 8.109375 53.6875 14.9375 
Q 60.6875 21.78125 60.6875 36.53125 
Q 60.6875 51.171875 53.6875 57.984375 
Q 46.6875 64.796875 31.59375 64.796875 
z
M 9.8125 72.90625 
L 30.078125 72.90625 
Q 51.265625 72.90625 61.171875 64.09375 
Q 71.09375 55.28125 71.09375 36.53125 
Q 71.09375 17.671875 61.125 8.828125 
Q 51.171875 0 30.078125 0 
L 9.8125 0 
z
" id="DejaVuSans-44"/>
      <path d="M 34.28125 27.484375 
Q 23.390625 27.484375 19.1875 25 
Q 14.984375 22.515625 14.984375 16.5 
Q 14.984375 11.71875 18.140625 8.90625 
Q 21.296875 6.109375 26.703125 6.109375 
Q 34.1875 6.109375 38.703125 11.40625 
Q 43.21875 16.703125 43.21875 25.484375 
L 43.21875 27.484375 
z
M 52.203125 31.203125 
L 52.203125 0 
L 43.21875 0 
L 43.21875 8.296875 
Q 40.140625 3.328125 35.546875 0.953125 
Q 30.953125 -1.421875 24.3125 -1.421875 
Q 15.921875 -1.421875 10.953125 3.296875 
Q 6 8.015625 6 15.921875 
Q 6 25.140625 12.171875 29.828125 
Q 18.359375 34.515625 30.609375 34.515625 
L 43.21875 34.515625 
L 43.21875 35.40625 
Q 43.21875 41.609375 39.140625 45 
Q 35.0625 48.390625 27.6875 48.390625 
Q 23 48.390625 18.546875 47.265625 
Q 14.109375 46.140625 10.015625 43.890625 
L 10.015625 52.203125 
Q 14.9375 54.109375 19.578125 55.046875 
Q 24.21875 56 28.609375 56 
Q 40.484375 56 46.34375 49.84375 
Q 52.203125 43.703125 52.203125 31.203125 
z
" id="DejaVuSans-61"/>
      <path d="M 18.3125 70.21875 
L 18.3125 54.6875 
L 36.8125 54.6875 
L 36.8125 47.703125 
L 18.3125 47.703125 
L 18.3125 18.015625 
Q 18.3125 11.328125 20.140625 9.421875 
Q 21.96875 7.515625 27.59375 7.515625 
L 36.8125 7.515625 
L 36.8125 0 
L 27.59375 0 
Q 17.1875 0 13.234375 3.875 
Q 9.28125 7.765625 9.28125 18.015625 
L 9.28125 47.703125 
L 2.6875 47.703125 
L 2.6875 54.6875 
L 9.28125 54.6875 
L 9.28125 70.21875 
z
" id="DejaVuSans-74"/>
      <path d="M 56.203125 29.59375 
L 56.203125 25.203125 
L 14.890625 25.203125 
Q 15.484375 15.921875 20.484375 11.0625 
Q 25.484375 6.203125 34.421875 6.203125 
Q 39.59375 6.203125 44.453125 7.46875 
Q 49.3125 8.734375 54.109375 11.28125 
L 54.109375 2.78125 
Q 49.265625 0.734375 44.1875 -0.34375 
Q 39.109375 -1.421875 33.890625 -1.421875 
Q 20.796875 -1.421875 13.15625 6.1875 
Q 5.515625 13.8125 5.515625 26.8125 
Q 5.515625 40.234375 12.765625 48.109375 
Q 20.015625 56 32.328125 56 
Q 43.359375 56 49.78125 48.890625 
Q 56.203125 41.796875 56.203125 29.59375 
z
M 47.21875 32.234375 
Q 47.125 39.59375 43.09375 43.984375 
Q 39.0625 48.390625 32.421875 48.390625 
Q 24.90625 48.390625 20.390625 44.140625 
Q 15.875 39.890625 15.1875 32.171875 
z
" id="DejaVuSans-65"/>
     </defs>
     <g transform="translate(229.764961 338.140062)scale(0.1 -0.1)">
      <use xlink:href="#DejaVuSans-44"/>
      <use x="77.001953" xlink:href="#DejaVuSans-61"/>
      <use x="138.28125" xlink:href="#DejaVuSans-74"/>
      <use x="177.490234" xlink:href="#DejaVuSans-65"/>
     </g>
    </g>
   </g>
   <g id="matplotlib.axis_2">
    <g id="ytick_1">
     <g id="line2d_17">
      <path clip-path="url(#pc1537d7790)" d="M 36.124 309.8635 
L 447.307485 309.8635 
" style="fill:none;stroke:#b0b0b0;stroke-linecap:square;stroke-width:0.8;"/>
     </g>
     <g id="line2d_18">
      <defs>
       <path d="M 0 0 
L -3.5 0 
" id="m7ab05c276d" style="stroke:#000000;stroke-width:0.8;"/>
      </defs>
      <g>
       <use style="stroke:#000000;stroke-width:0.8;" x="36.124" xlink:href="#m7ab05c276d" y="309.8635"/>
      </g>
     </g>
     <g id="text_10">
      <!-- 0 -->
      <g transform="translate(22.7615 313.662719)scale(0.1 -0.1)">
       <use xlink:href="#DejaVuSans-30"/>
      </g>
     </g>
    </g>
    <g id="ytick_2">
     <g id="line2d_19">
      <path clip-path="url(#pc1537d7790)" d="M 36.124 260.298438 
L 447.307485 260.298438 
" style="fill:none;stroke:#b0b0b0;stroke-linecap:square;stroke-width:0.8;"/>
     </g>
     <g id="line2d_20">
      <g>
       <use style="stroke:#000000;stroke-width:0.8;" x="36.124" xlink:href="#m7ab05c276d" y="260.298438"/>
      </g>
     </g>
     <g id="text_11">
      <!-- 200 -->
      <g transform="translate(10.0365 264.097657)scale(0.1 -0.1)">
       <use xlink:href="#DejaVuSans-32"/>
       <use x="63.623047" xlink:href="#DejaVuSans-30"/>
       <use x="127.246094" xlink:href="#DejaVuSans-30"/>
      </g>
     </g>
    </g>
    <g id="ytick_3">
     <g id="line2d_21">
      <path clip-path="url(#pc1537d7790)" d="M 36.124 210.733376 
L 447.307485 210.733376 
" style="fill:none;stroke:#b0b0b0;stroke-linecap:square;stroke-width:0.8;"/>
     </g>
     <g id="line2d_22">
      <g>
       <use style="stroke:#000000;stroke-width:0.8;" x="36.124" xlink:href="#m7ab05c276d" y="210.733376"/>
      </g>
     </g>
     <g id="text_12">
      <!-- 400 -->
      <g transform="translate(10.0365 214.532595)scale(0.1 -0.1)">
       <use xlink:href="#DejaVuSans-34"/>
       <use x="63.623047" xlink:href="#DejaVuSans-30"/>
       <use x="127.246094" xlink:href="#DejaVuSans-30"/>
      </g>
     </g>
    </g>
    <g id="ytick_4">
     <g id="line2d_23">
      <path clip-path="url(#pc1537d7790)" d="M 36.124 161.168314 
L 447.307485 161.168314 
" style="fill:none;stroke:#b0b0b0;stroke-linecap:square;stroke-width:0.8;"/>
     </g>
     <g id="line2d_24">
      <g>
       <use style="stroke:#000000;stroke-width:0.8;" x="36.124" xlink:href="#m7ab05c276d" y="161.168314"/>
      </g>
     </g>
     <g id="text_13">
      <!-- 600 -->
      <g transform="translate(10.0365 164.967533)scale(0.1 -0.1)">
       <use xlink:href="#DejaVuSans-36"/>
       <use x="63.623047" xlink:href="#DejaVuSans-30"/>
       <use x="127.246094" xlink:href="#DejaVuSans-30"/>
      </g>
     </g>
    </g>
    <g id="ytick_5">
     <g id="line2d_25">
      <path clip-path="url(#pc1537d7790)" d="M 36.124 111.603252 
L 447.307485 111.603252 
" style="fill:none;stroke:#b0b0b0;stroke-linecap:square;stroke-width:0.8;"/>
     </g>
     <g id="line2d_26">
      <g>
       <use style="stroke:#000000;stroke-width:0.8;" x="36.124" xlink:href="#m7ab05c276d" y="111.603252"/>
      </g>
     </g>
     <g id="text_14">
      <!-- 800 -->
      <g transform="translate(10.0365 115.40247)scale(0.1 -0.1)">
       <use xlink:href="#DejaVuSans-38"/>
       <use x="63.623047" xlink:href="#DejaVuSans-30"/>
       <use x="127.246094" xlink:href="#DejaVuSans-30"/>
      </g>
     </g>
    </g>
    <g id="ytick_6">
     <g id="line2d_27">
      <path clip-path="url(#pc1537d7790)" d="M 36.124 62.03819 
L 447.307485 62.03819 
" style="fill:none;stroke:#b0b0b0;stroke-linecap:square;stroke-width:0.8;"/>
     </g>
     <g id="line2d_28">
      <g>
       <use style="stroke:#000000;stroke-width:0.8;" x="36.124" xlink:href="#m7ab05c276d" y="62.03819"/>
      </g>
     </g>
     <g id="text_15">
      <!-- 1000 -->
      <g transform="translate(3.674 65.837408)scale(0.1 -0.1)">
       <use xlink:href="#DejaVuSans-31"/>
       <use x="63.623047" xlink:href="#DejaVuSans-30"/>
       <use x="127.246094" xlink:href="#DejaVuSans-30"/>
       <use x="190.869141" xlink:href="#DejaVuSans-30"/>
      </g>
     </g>
    </g>
   </g>
   <g id="line2d_29">
    <path clip-path="url(#pc1537d7790)" d="M 36.124 309.8635 
L 38.351663 233.037654 
L 40.507466 231.798527 
L 42.735129 243.446317 
L 44.890932 237.746335 
L 47.118595 200.076888 
L 49.346258 270.459276 
L 51.358341 201.687752 
L 53.586004 220.522476 
L 55.741807 217.672485 
L 57.96947 254.846281 
L 60.125273 201.687752 
L 62.352936 182.48129 
L 64.580599 200.820363 
L 66.736402 196.235595 
L 68.964065 309.8635 
L 82.042603 309.8635 
L 84.270266 245.676745 
L 86.426069 204.785568 
L 88.653732 244.06588 
L 90.881395 222.381165 
L 93.037198 244.437618 
L 95.264861 309.8635 
L 97.420664 241.091976 
L 99.648327 309.491762 
L 101.87599 309.8635 
L 106.115736 309.8635 
L 108.271539 233.657217 
L 110.499202 209.742075 
L 112.655005 210.113813 
L 114.882668 179.259561 
L 117.110331 193.385604 
L 119.266134 212.963804 
L 121.493797 207.883385 
L 123.6496 250.385426 
L 125.877263 254.35063 
L 128.104926 215.565969 
L 130.117009 222.381165 
L 132.344672 238.118073 
L 134.500475 218.168135 
L 136.728138 220.026825 
L 138.883941 180.374775 
L 141.111604 182.729116 
L 143.339267 208.750773 
L 145.49507 229.196361 
L 147.722733 206.148608 
L 149.878536 254.846281 
L 152.106199 237.250684 
L 154.333862 235.020256 
L 156.345945 246.048483 
L 158.573608 265.750595 
L 160.729411 258.687573 
L 162.957074 261.165827 
L 165.112877 208.626861 
L 167.34054 192.518216 
L 169.568203 202.679053 
L 171.724006 229.444187 
L 173.951669 220.398563 
L 176.107472 245.428919 
L 178.335135 240.3485 
L 180.562798 222.13334 
L 182.646741 214.326843 
L 184.874404 243.941967 
L 187.030207 212.34424 
L 189.25787 211.724677 
L 191.413673 135.890132 
L 193.641336 123.622779 
L 195.868999 138.864036 
L 198.024802 145.431407 
L 200.252466 145.059669 
L 202.408268 215.565969 
L 206.863595 241.215889 
L 208.875677 218.044223 
L 211.10334 179.631299 
L 213.259143 217.424659 
L 215.486806 215.937707 
L 217.642609 196.359508 
L 219.870272 129.446674 
L 222.097936 157.450934 
L 224.253738 162.779178 
L 226.481402 143.200979 
L 228.637205 208.874686 
L 230.864868 228.948536 
L 233.092531 270.707101 
L 235.104613 244.189793 
L 237.332276 239.481112 
L 239.488079 209.618162 
L 241.715742 210.113813 
L 243.871545 194.12908 
L 246.099209 152.370515 
L 248.326872 140.350988 
L 250.482675 187.313884 
L 252.710338 216.433358 
L 254.866141 252.491941 
L 257.093804 218.539873 
L 259.321467 192.642128 
L 261.333549 257.820185 
L 263.561213 267.981023 
L 265.717015 205.652957 
L 267.944679 242.20719 
L 270.100481 231.302877 
L 272.328145 265.007119 
L 274.555808 132.916228 
L 276.711611 145.803145 
L 278.939274 127.216246 
L 281.095077 203.422529 
L 283.32274 226.594196 
L 285.550403 194.872556 
L 287.634346 226.965934 
L 289.862009 194.624731 
L 292.017812 149.892262 
L 294.245475 191.526914 
L 296.401278 155.468332 
L 298.628941 139.111861 
L 300.856604 120.648876 
L 303.012407 134.155355 
L 305.24007 156.459633 
L 307.395873 216.929009 
L 309.623536 194.005167 
L 311.851199 183.348679 
L 313.863282 175.170444 
L 316.090945 228.20506 
L 318.246748 228.081148 
L 320.474411 236.259383 
L 322.630214 224.487681 
L 324.857877 210.857289 
L 327.08554 121.392351 
L 329.241343 160.424838 
L 331.469006 215.937707 
L 333.624809 204.289918 
L 335.852472 188.429098 
L 340.092218 222.876816 
L 342.319881 250.385426 
L 344.475684 205.652957 
L 346.703347 208.502948 
L 348.85915 198.218198 
L 351.086813 151.627039 
L 353.314476 148.777048 
L 355.470279 141.714027 
L 357.697942 219.407262 
L 359.853745 233.037654 
L 362.081408 233.905042 
L 364.309071 223.620292 
L 366.321154 231.055051 
L 368.548817 234.028955 
L 370.70462 231.055051 
L 372.932283 220.026825 
L 375.088086 133.411879 
L 377.315749 121.764089 
L 379.543412 115.444544 
L 381.699215 111.231514 
L 383.926878 113.83368 
L 386.082681 182.357378 
L 388.310344 191.650827 
L 390.538007 147.785747 
L 392.62195 148.777048 
L 394.849613 210.237725 
L 397.005416 119.161924 
L 399.233079 132.172752 
L 401.388882 130.066237 
L 403.616545 115.816282 
L 405.844208 110.364125 
L 408.000011 122.507565 
L 410.227674 151.255301 
L 412.383477 234.524606 
L 414.61114 235.63982 
L 418.850886 259.307137 
L 421.078549 237.870247 
L 423.234352 173.435667 
L 425.462015 201.563839 
L 429.845481 123.622779 
L 432.073144 142.085765 
L 434.228947 153.733554 
L 436.45661 138.987949 
L 438.612413 200.2008 
L 440.840076 139.235774 
L 443.067739 181.737815 
L 445.079822 189.172574 
L 447.307485 246.668046 
L 447.307485 246.668046 
" style="fill:none;stroke:#1f77b4;stroke-linecap:square;stroke-width:1.5;"/>
   </g>
   <g id="patch_3">
    <path d="M 36.124 309.8635 
L 36.124 23.36505 
" style="fill:none;stroke:#000000;stroke-linecap:square;stroke-linejoin:miter;stroke-width:0.8;"/>
   </g>
   <g id="patch_4">
    <path d="M 447.307485 309.8635 
L 447.307485 23.36505 
" style="fill:none;stroke:#000000;stroke-linecap:square;stroke-linejoin:miter;stroke-width:0.8;"/>
   </g>
   <g id="patch_5">
    <path d="M 36.124 309.8635 
L 447.307485 309.8635 
" style="fill:none;stroke:#000000;stroke-linecap:square;stroke-linejoin:miter;stroke-width:0.8;"/>
   </g>
   <g id="patch_6">
    <path d="M 36.124 23.36505 
L 447.307485 23.36505 
" style="fill:none;stroke:#000000;stroke-linecap:square;stroke-linejoin:miter;stroke-width:0.8;"/>
   </g>
   <g id="text_16">
    <!-- Monthly gross load trend (MW) -->
    <defs>
     <path d="M 9.8125 72.90625 
L 24.515625 72.90625 
L 43.109375 23.296875 
L 61.8125 72.90625 
L 76.515625 72.90625 
L 76.515625 0 
L 66.890625 0 
L 66.890625 64.015625 
L 48.09375 14.015625 
L 38.1875 14.015625 
L 19.390625 64.015625 
L 19.390625 0 
L 9.8125 0 
z
" id="DejaVuSans-4d"/>
     <path d="M 30.609375 48.390625 
Q 23.390625 48.390625 19.1875 42.75 
Q 14.984375 37.109375 14.984375 27.296875 
Q 14.984375 17.484375 19.15625 11.84375 
Q 23.34375 6.203125 30.609375 6.203125 
Q 37.796875 6.203125 41.984375 11.859375 
Q 46.1875 17.53125 46.1875 27.296875 
Q 46.1875 37.015625 41.984375 42.703125 
Q 37.796875 48.390625 30.609375 48.390625 
z
M 30.609375 56 
Q 42.328125 56 49.015625 48.375 
Q 55.71875 40.765625 55.71875 27.296875 
Q 55.71875 13.875 49.015625 6.21875 
Q 42.328125 -1.421875 30.609375 -1.421875 
Q 18.84375 -1.421875 12.171875 6.21875 
Q 5.515625 13.875 5.515625 27.296875 
Q 5.515625 40.765625 12.171875 48.375 
Q 18.84375 56 30.609375 56 
z
" id="DejaVuSans-6f"/>
     <path d="M 54.890625 33.015625 
L 54.890625 0 
L 45.90625 0 
L 45.90625 32.71875 
Q 45.90625 40.484375 42.875 44.328125 
Q 39.84375 48.1875 33.796875 48.1875 
Q 26.515625 48.1875 22.3125 43.546875 
Q 18.109375 38.921875 18.109375 30.90625 
L 18.109375 0 
L 9.078125 0 
L 9.078125 54.6875 
L 18.109375 54.6875 
L 18.109375 46.1875 
Q 21.34375 51.125 25.703125 53.5625 
Q 30.078125 56 35.796875 56 
Q 45.21875 56 50.046875 50.171875 
Q 54.890625 44.34375 54.890625 33.015625 
z
" id="DejaVuSans-6e"/>
     <path d="M 54.890625 33.015625 
L 54.890625 0 
L 45.90625 0 
L 45.90625 32.71875 
Q 45.90625 40.484375 42.875 44.328125 
Q 39.84375 48.1875 33.796875 48.1875 
Q 26.515625 48.1875 22.3125 43.546875 
Q 18.109375 38.921875 18.109375 30.90625 
L 18.109375 0 
L 9.078125 0 
L 9.078125 75.984375 
L 18.109375 75.984375 
L 18.109375 46.1875 
Q 21.34375 51.125 25.703125 53.5625 
Q 30.078125 56 35.796875 56 
Q 45.21875 56 50.046875 50.171875 
Q 54.890625 44.34375 54.890625 33.015625 
z
" id="DejaVuSans-68"/>
     <path d="M 9.421875 75.984375 
L 18.40625 75.984375 
L 18.40625 0 
L 9.421875 0 
z
" id="DejaVuSans-6c"/>
     <path d="M 32.171875 -5.078125 
Q 28.375 -14.84375 24.75 -17.8125 
Q 21.140625 -20.796875 15.09375 -20.796875 
L 7.90625 -20.796875 
L 7.90625 -13.28125 
L 13.1875 -13.28125 
Q 16.890625 -13.28125 18.9375 -11.515625 
Q 21 -9.765625 23.484375 -3.21875 
L 25.09375 0.875 
L 2.984375 54.6875 
L 12.5 54.6875 
L 29.59375 11.921875 
L 46.6875 54.6875 
L 56.203125 54.6875 
z
" id="DejaVuSans-79"/>
     <path id="DejaVuSans-20"/>
     <path d="M 45.40625 27.984375 
Q 45.40625 37.75 41.375 43.109375 
Q 37.359375 48.484375 30.078125 48.484375 
Q 22.859375 48.484375 18.828125 43.109375 
Q 14.796875 37.75 14.796875 27.984375 
Q 14.796875 18.265625 18.828125 12.890625 
Q 22.859375 7.515625 30.078125 7.515625 
Q 37.359375 7.515625 41.375 12.890625 
Q 45.40625 18.265625 45.40625 27.984375 
z
M 54.390625 6.78125 
Q 54.390625 -7.171875 48.1875 -13.984375 
Q 42 -20.796875 29.203125 -20.796875 
Q 24.46875 -20.796875 20.265625 -20.09375 
Q 16.0625 -19.390625 12.109375 -17.921875 
L 12.109375 -9.1875 
Q 16.0625 -11.328125 19.921875 -12.34375 
Q 23.78125 -13.375 27.78125 -13.375 
Q 36.625 -13.375 41.015625 -8.765625 
Q 45.40625 -4.15625 45.40625 5.171875 
L 45.40625 9.625 
Q 42.625 4.78125 38.28125 2.390625 
Q 33.9375 0 27.875 0 
Q 17.828125 0 11.671875 7.65625 
Q 5.515625 15.328125 5.515625 27.984375 
Q 5.515625 40.671875 11.671875 48.328125 
Q 17.828125 56 27.875 56 
Q 33.9375 56 38.28125 53.609375 
Q 42.625 51.21875 45.40625 46.390625 
L 45.40625 54.6875 
L 54.390625 54.6875 
z
" id="DejaVuSans-67"/>
     <path d="M 41.109375 46.296875 
Q 39.59375 47.171875 37.8125 47.578125 
Q 36.03125 48 33.890625 48 
Q 26.265625 48 22.1875 43.046875 
Q 18.109375 38.09375 18.109375 28.8125 
L 18.109375 0 
L 9.078125 0 
L 9.078125 54.6875 
L 18.109375 54.6875 
L 18.109375 46.1875 
Q 20.953125 51.171875 25.484375 53.578125 
Q 30.03125 56 36.53125 56 
Q 37.453125 56 38.578125 55.875 
Q 39.703125 55.765625 41.0625 55.515625 
z
" id="DejaVuSans-72"/>
     <path d="M 44.28125 53.078125 
L 44.28125 44.578125 
Q 40.484375 46.53125 36.375 47.5 
Q 32.28125 48.484375 27.875 48.484375 
Q 21.1875 48.484375 17.84375 46.4375 
Q 14.5 44.390625 14.5 40.28125 
Q 14.5 37.15625 16.890625 35.375 
Q 19.28125 33.59375 26.515625 31.984375 
L 29.59375 31.296875 
Q 39.15625 29.25 43.1875 25.515625 
Q 47.21875 21.78125 47.21875 15.09375 
Q 47.21875 7.46875 41.1875 3.015625 
Q 35.15625 -1.421875 24.609375 -1.421875 
Q 20.21875 -1.421875 15.453125 -0.5625 
Q 10.6875 0.296875 5.421875 2 
L 5.421875 11.28125 
Q 10.40625 8.6875 15.234375 7.390625 
Q 20.0625 6.109375 24.8125 6.109375 
Q 31.15625 6.109375 34.5625 8.28125 
Q 37.984375 10.453125 37.984375 14.40625 
Q 37.984375 18.0625 35.515625 20.015625 
Q 33.0625 21.96875 24.703125 23.78125 
L 21.578125 24.515625 
Q 13.234375 26.265625 9.515625 29.90625 
Q 5.8125 33.546875 5.8125 39.890625 
Q 5.8125 47.609375 11.28125 51.796875 
Q 16.75 56 26.8125 56 
Q 31.78125 56 36.171875 55.265625 
Q 40.578125 54.546875 44.28125 53.078125 
z
" id="DejaVuSans-73"/>
     <path d="M 45.40625 46.390625 
L 45.40625 75.984375 
L 54.390625 75.984375 
L 54.390625 0 
L 45.40625 0 
L 45.40625 8.203125 
Q 42.578125 3.328125 38.25 0.953125 
Q 33.9375 -1.421875 27.875 -1.421875 
Q 17.96875 -1.421875 11.734375 6.484375 
Q 5.515625 14.40625 5.515625 27.296875 
Q 5.515625 40.1875 11.734375 48.09375 
Q 17.96875 56 27.875 56 
Q 33.9375 56 38.25 53.625 
Q 42.578125 51.265625 45.40625 46.390625 
z
M 14.796875 27.296875 
Q 14.796875 17.390625 18.875 11.75 
Q 22.953125 6.109375 30.078125 6.109375 
Q 37.203125 6.109375 41.296875 11.75 
Q 45.40625 17.390625 45.40625 27.296875 
Q 45.40625 37.203125 41.296875 42.84375 
Q 37.203125 48.484375 30.078125 48.484375 
Q 22.953125 48.484375 18.875 42.84375 
Q 14.796875 37.203125 14.796875 27.296875 
z
" id="DejaVuSans-64"/>
     <path d="M 31 75.875 
Q 24.46875 64.65625 21.28125 53.65625 
Q 18.109375 42.671875 18.109375 31.390625 
Q 18.109375 20.125 21.3125 9.0625 
Q 24.515625 -2 31 -13.1875 
L 23.1875 -13.1875 
Q 15.875 -1.703125 12.234375 9.375 
Q 8.59375 20.453125 8.59375 31.390625 
Q 8.59375 42.28125 12.203125 53.3125 
Q 15.828125 64.359375 23.1875 75.875 
z
" id="DejaVuSans-28"/>
     <path d="M 3.328125 72.90625 
L 13.28125 72.90625 
L 28.609375 11.28125 
L 43.890625 72.90625 
L 54.984375 72.90625 
L 70.3125 11.28125 
L 85.59375 72.90625 
L 95.609375 72.90625 
L 77.296875 0 
L 64.890625 0 
L 49.515625 63.28125 
L 33.984375 0 
L 21.578125 0 
z
" id="DejaVuSans-57"/>
     <path d="M 8.015625 75.875 
L 15.828125 75.875 
Q 23.140625 64.359375 26.78125 53.3125 
Q 30.421875 42.28125 30.421875 31.390625 
Q 30.421875 20.453125 26.78125 9.375 
Q 23.140625 -1.703125 15.828125 -13.1875 
L 8.015625 -13.1875 
Q 14.5 -2 17.703125 9.0625 
Q 20.90625 20.125 20.90625 31.390625 
Q 20.90625 42.671875 17.703125 53.65625 
Q 14.5 64.65625 8.015625 75.875 
z
" id="DejaVuSans-29"/>
    </defs>
    <g transform="translate(149.13293 17.36505)scale(0.12 -0.12)">
     <use xlink:href="#DejaVuSans-4d"/>
     <use x="86.279297" xlink:href="#DejaVuSans-6f"/>
     <use x="147.460938" xlink:href="#DejaVuSans-6e"/>
     <use x="210.839844" xlink:href="#DejaVuSans-74"/>
     <use x="250.048828" xlink:href="#DejaVuSans-68"/>
     <use x="313.427734" xlink:href="#DejaVuSans-6c"/>
     <use x="341.210938" xlink:href="#DejaVuSans-79"/>
     <use x="400.390625" xlink:href="#DejaVuSans-20"/>
     <use x="432.177734" xlink:href="#DejaVuSans-67"/>
     <use x="495.654297" xlink:href="#DejaVuSans-72"/>
     <use x="536.736328" xlink:href="#DejaVuSans-6f"/>
     <use x="597.917969" xlink:href="#DejaVuSans-73"/>
     <use x="650.017578" xlink:href="#DejaVuSans-73"/>
     <use x="702.117188" xlink:href="#DejaVuSans-20"/>
     <use x="733.904297" xlink:href="#DejaVuSans-6c"/>
     <use x="761.6875" xlink:href="#DejaVuSans-6f"/>
     <use x="822.869141" xlink:href="#DejaVuSans-61"/>
     <use x="884.148438" xlink:href="#DejaVuSans-64"/>
     <use x="947.625" xlink:href="#DejaVuSans-20"/>
     <use x="979.412109" xlink:href="#DejaVuSans-74"/>
     <use x="1018.621094" xlink:href="#DejaVuSans-72"/>
     <use x="1059.703125" xlink:href="#DejaVuSans-65"/>
     <use x="1121.226562" xlink:href="#DejaVuSans-6e"/>
     <use x="1184.605469" xlink:href="#DejaVuSans-64"/>
     <use x="1248.082031" xlink:href="#DejaVuSans-20"/>
     <use x="1279.869141" xlink:href="#DejaVuSans-28"/>
     <use x="1318.882812" xlink:href="#DejaVuSans-4d"/>
     <use x="1405.162109" xlink:href="#DejaVuSans-57"/>
     <use x="1504.039062" xlink:href="#DejaVuSans-29"/>
    </g>
   </g>
  </g>
 </g>
 <defs>
  <clipPath id="pc1537d7790">
   <rect height="286.49845" width="411.183485" x="36.124" y="23.36505"/>
  </clipPath>
 </defs>
</svg>
