<?xml version="1.0" encoding="utf-8" standalone="no"?>
<!DOCTYPE svg PUBLIC "-//W3C//DTD SVG 1.1//EN"
  "http://www.w3.org/Graphics/SVG/1.1/DTD/svg11.dtd">
<!-- Created with matplotlib (http://matplotlib.org/) -->
<svg height="345.6pt" version="1.1" viewBox="0 0 460.8 345.6" width="460.8pt" xmlns="http://www.w3.org/2000/svg" xmlns:xlink="http://www.w3.org/1999/xlink">
 <defs>
  <style type="text/css">
*{stroke-linecap:butt;stroke-linejoin:round;}
  </style>
 </defs>
 <g id="figure_1">
  <g id="patch_1">
   <path d="M 0 345.6 
L 460.8 345.6 
L 460.8 0 
L 0 0 
z
" style="fill:none;"/>
  </g>
  <g id="axes_1">
   <g id="patch_2">
    <path d="M 47.09225 309.8635 
L 447.48 309.8635 
L 447.48 23.36505 
L 47.09225 23.36505 
z
" style="fill:none;"/>
   </g>
   <g id="PolyCollection_1">
    <path clip-path="url(#p6646f73384)" d="M 47.09225 309.8635 
L 47.09225 309.8635 
L 49.370103 309.8635 
L 51.574477 309.8635 
L 53.852329 309.8635 
L 56.130182 309.8635 
L 58.334556 309.8635 
L 60.612409 309.8635 
L 62.816783 276.255412 
L 65.094636 271.84435 
L 67.372488 248.528739 
L 69.503383 235.505605 
L 71.781236 249.999093 
L 73.98561 234.665402 
L 76.263462 309.8635 
L 78.467836 269.953895 
L 80.745689 248.528739 
L 83.023542 234.455352 
L 85.227916 234.875453 
L 87.505769 245.16793 
L 89.710142 309.8635 
L 91.987995 309.8635 
L 94.265848 309.8635 
L 96.323263 176.4814 
L 98.601116 210.509589 
L 100.80549 235.925706 
L 103.083343 309.8635 
L 105.287717 309.8635 
L 107.56557 207.358831 
L 109.843422 179.212057 
L 112.047796 177.111551 
L 114.325649 115.56674 
L 116.530023 179.632158 
L 118.807876 210.089488 
L 121.085728 249.158891 
L 123.143144 222.27242 
L 125.420997 236.555857 
L 127.625371 271.214198 
L 129.903223 309.8635 
L 132.107597 252.72975 
L 134.38545 309.8635 
L 136.663303 256.51066 
L 138.867677 194.125646 
L 141.14553 188.03418 
L 143.349903 309.8635 
L 145.627756 249.789042 
L 147.905609 205.468376 
L 149.963024 145.393918 
L 152.240877 309.8635 
L 154.445251 218.071409 
L 156.723104 134.051188 
L 158.927478 150.645182 
L 161.205331 120.187852 
L 163.483183 150.435131 
L 165.687557 200.847264 
L 167.96541 309.8635 
L 170.169784 309.8635 
L 172.447637 214.7106 
L 174.725489 279.196119 
L 176.856384 201.477415 
L 179.134237 206.098527 
L 181.338611 219.331712 
L 183.616464 210.509589 
L 185.820837 239.496565 
L 188.09869 115.146639 
L 190.376543 187.193978 
L 192.580917 174.170844 
L 194.85877 257.770963 
L 197.063143 258.401115 
L 199.340996 118.717498 
L 201.618849 133.000935 
L 203.676265 205.678426 
L 205.954117 309.8635 
L 208.158491 309.8635 
L 210.436344 175.431147 
L 212.640718 168.91958 
L 214.918571 151.695435 
L 217.196423 180.682411 
L 219.400797 204.838224 
L 221.67865 178.371855 
L 223.883024 309.8635 
L 226.160877 221.012117 
L 228.43873 175.851248 
L 230.496145 179.842208 
L 232.773998 309.8635 
L 234.978372 309.8635 
L 237.256224 152.325586 
L 239.460598 207.778932 
L 241.738451 151.275333 
L 244.016304 165.558771 
L 246.220678 147.914525 
L 248.498531 266.803137 
L 250.702904 203.577921 
L 252.980757 223.952824 
L 255.25861 165.13867 
L 257.316026 172.070338 
L 259.593878 309.8635 
L 261.798252 309.8635 
L 264.076105 309.8635 
L 266.280479 309.8635 
L 268.558332 290.118748 
L 270.836184 164.088417 
L 273.040558 219.331712 
L 275.318411 174.590945 
L 277.522785 309.8635 
L 279.800638 309.8635 
L 282.078491 242.647323 
L 284.209385 175.011046 
L 286.487238 208.199033 
L 288.691612 174.800995 
L 290.969465 309.8635 
L 293.173838 174.590945 
L 295.451691 203.577921 
L 297.729544 173.960793 
L 299.933918 218.49151 
L 302.211771 309.8635 
L 304.416144 309.8635 
L 306.693997 309.8635 
L 308.97185 243.277475 
L 311.029266 309.8635 
L 313.307118 242.857374 
L 315.511492 309.8635 
L 317.789345 309.8635 
L 319.993719 273.944856 
L 322.271572 276.465462 
L 324.549425 305.452438 
L 326.753798 273.314704 
L 329.031651 271.424249 
L 331.236025 309.8635 
L 333.513878 242.227222 
L 335.791731 309.8635 
L 337.849146 267.643339 
L 340.126999 309.8635 
L 342.331373 309.8635 
L 344.609226 309.8635 
L 346.813599 309.8635 
L 349.091452 241.17697 
L 351.369305 241.597071 
L 353.573679 267.643339 
L 355.851532 242.227222 
L 358.055905 240.756868 
L 360.333758 309.8635 
L 362.611611 261.341823 
L 364.669027 242.647323 
L 366.946879 309.8635 
L 369.151253 276.675513 
L 371.429106 309.8635 
L 373.63348 241.807121 
L 375.911333 241.807121 
L 378.189185 190.764837 
L 380.393559 209.879437 
L 382.671412 242.647323 
L 384.875786 309.8635 
L 387.153639 309.8635 
L 389.431492 309.8635 
L 391.562386 309.8635 
L 393.840239 309.8635 
L 396.044613 309.8635 
L 398.322466 309.8635 
L 400.526839 242.437273 
L 402.804692 239.076464 
L 405.082545 305.032337 
L 407.286919 240.546818 
L 409.564772 300.621276 
L 411.769145 309.8635 
L 414.046998 309.8635 
L 416.324851 309.8635 
L 418.382267 309.8635 
L 420.66012 309.8635 
L 422.864493 309.8635 
L 425.142346 208.829185 
L 427.34672 242.857374 
L 429.624573 197.486455 
L 431.902426 238.656363 
L 434.106799 240.546818 
L 436.384652 241.38702 
L 438.589026 309.8635 
L 440.866879 309.8635 
L 443.144732 309.8635 
L 445.202147 309.8635 
L 447.48 309.8635 
L 447.48 59.483242 
L 447.48 59.483242 
L 445.202147 173.540692 
L 443.144732 137.201946 
L 440.866879 97.292342 
L 438.589026 186.143725 
L 436.384652 186.773877 
L 434.106799 64.314405 
L 431.902426 63.054102 
L 429.624573 61.793798 
L 427.34672 59.273192 
L 425.142346 55.492282 
L 422.864493 54.231979 
L 420.66012 119.5577 
L 418.382267 309.8635 
L 416.324851 57.382737 
L 414.046998 127.11952 
L 411.769145 78.597843 
L 409.564772 59.903343 
L 407.286919 52.971675 
L 405.082545 57.802838 
L 402.804692 57.592787 
L 400.526839 54.86213 
L 398.322466 53.391776 
L 396.044613 309.8635 
L 393.840239 186.563826 
L 391.562386 48.560614 
L 389.431492 44.569653 
L 387.153639 49.610866 
L 384.875786 49.190765 
L 382.671412 54.86213 
L 380.393559 59.063141 
L 378.189185 58.853091 
L 375.911333 58.222939 
L 373.63348 53.181726 
L 371.429106 53.601827 
L 369.151253 50.030968 
L 366.946879 51.921423 
L 364.669027 181.732663 
L 362.611611 52.131473 
L 360.333758 184.673371 
L 358.055905 52.131473 
L 355.851532 52.551574 
L 353.573679 53.391776 
L 351.369305 54.442029 
L 349.091452 63.894304 
L 346.813599 52.131473 
L 344.609226 56.752585 
L 342.331373 63.264152 
L 340.126999 132.370784 
L 337.849146 53.601827 
L 335.791731 129.430076 
L 333.513878 47.30031 
L 331.236025 57.172686 
L 329.031651 50.661119 
L 326.753798 59.483242 
L 324.549425 55.492282 
L 322.271572 62.003849 
L 319.993719 60.743546 
L 317.789345 97.082291 
L 315.511492 62.634001 
L 313.307118 88.260168 
L 311.029266 185.933674 
L 308.97185 186.983927 
L 306.693997 189.714584 
L 304.416144 96.452139 
L 302.211771 56.542535 
L 299.933918 62.844051 
L 297.729544 65.784759 
L 295.451691 62.2139 
L 293.173838 59.063141 
L 290.969465 64.944557 
L 288.691612 56.962636 
L 286.487238 52.341524 
L 284.209385 55.282231 
L 282.078491 57.382737 
L 279.800638 174.170844 
L 277.522785 95.611937 
L 275.318411 48.980715 
L 273.040558 54.86213 
L 270.836184 56.962636 
L 268.558332 53.811877 
L 266.280479 51.921423 
L 264.076105 86.369713 
L 261.798252 42.469148 
L 259.593878 41.838996 
L 257.316026 38.898288 
L 255.25861 37.007833 
L 252.980757 40.578693 
L 250.702904 37.007833 
L 248.498531 46.670159 
L 246.220678 48.140513 
L 244.016304 53.181726 
L 241.738451 52.341524 
L 239.460598 52.131473 
L 237.256224 58.012889 
L 234.978372 43.939502 
L 232.773998 98.972746 
L 230.496145 72.506377 
L 228.43873 90.990825 
L 226.160877 38.268137 
L 223.883024 63.264152 
L 221.67865 47.720411 
L 219.400797 48.560614 
L 217.196423 54.231979 
L 214.918571 54.021928 
L 212.640718 53.601827 
L 210.436344 47.720411 
L 208.158491 54.021928 
L 205.954117 202.317618 
L 203.676265 90.990825 
L 201.618849 86.999865 
L 199.340996 92.67123 
L 197.063143 97.922493 
L 194.85877 100.4431 
L 192.580917 56.752585 
L 190.376543 57.802838 
L 188.09869 57.382737 
L 185.820837 55.072181 
L 183.616464 97.922493 
L 181.338611 88.260168 
L 179.134237 93.931533 
L 176.856384 91.620977 
L 174.725489 91.410926 
L 172.447637 51.501321 
L 170.169784 93.931533 
L 167.96541 97.922493 
L 165.687557 53.601827 
L 163.483183 56.752585 
L 161.205331 54.86213 
L 158.927478 52.971675 
L 156.723104 52.551574 
L 154.445251 77.75764 
L 152.240877 92.461179 
L 149.963024 92.461179 
L 147.905609 90.150623 
L 145.627756 52.971675 
L 143.349903 82.378753 
L 141.14553 94.561685 
L 138.867677 89.520471 
L 136.663303 96.452139 
L 134.38545 97.082291 
L 132.107597 96.452139 
L 129.903223 186.773877 
L 127.625371 96.66219 
L 125.420997 135.101441 
L 123.143144 125.439116 
L 121.085728 154.216041 
L 118.807876 91.200876 
L 116.530023 40.998794 
L 114.325649 101.283302 
L 112.047796 62.2139 
L 109.843422 59.483242 
L 107.56557 52.131473 
L 105.287717 76.497337 
L 103.083343 80.908399 
L 100.80549 85.10941 
L 98.601116 100.022999 
L 96.323263 100.233049 
L 94.265848 102.543605 
L 91.987995 223.112622 
L 89.710142 183.833169 
L 87.505769 150.435131 
L 85.227916 146.864272 
L 83.023542 147.074322 
L 80.745689 128.799924 
L 78.467836 138.6723 
L 76.263462 172.490439 
L 73.98561 156.106496 
L 71.781236 166.819074 
L 69.503383 166.188923 
L 67.372488 169.759782 
L 65.094636 144.763766 
L 62.816783 144.973817 
L 60.612409 151.695435 
L 58.334556 222.48247 
L 56.130182 220.802066 
L 53.852329 221.852319 
L 51.574477 221.852319 
L 49.370103 214.920651 
L 47.09225 309.8635 
z
" style="fill:#808080;fill-opacity:0.3;"/>
   </g>
   <g id="PolyCollection_2">
    <path clip-path="url(#p6646f73384)" d="M 47.09225 309.8635 
L 47.09225 309.8635 
L 49.370103 309.8635 
L 51.574477 276.255412 
L 53.852329 246.060645 
L 56.130182 280.036322 
L 58.334556 269.533794 
L 60.612409 309.8635 
L 62.816783 244.747829 
L 65.094636 240.756868 
L 67.372488 216.863618 
L 69.503383 223.322673 
L 71.781236 232.774948 
L 73.98561 222.902572 
L 76.263462 271.6343 
L 78.467836 232.564897 
L 80.745689 190.344736 
L 83.023542 190.554787 
L 85.227916 203.577921 
L 87.505769 204.418123 
L 89.710142 309.8635 
L 91.987995 309.8635 
L 94.265848 309.8635 
L 96.323263 102.123504 
L 98.601116 168.13189 
L 100.80549 137.832098 
L 103.083343 229.991778 
L 105.287717 269.743845 
L 107.56557 146.496683 
L 109.843422 107.689844 
L 112.047796 110.735577 
L 114.325649 106.534566 
L 116.530023 100.4431 
L 118.807876 154.005991 
L 121.085728 173.120591 
L 123.143144 169.12963 
L 125.420997 172.070338 
L 127.625371 241.38702 
L 129.903223 309.8635 
L 132.107597 205.730939 
L 134.38545 144.973817 
L 136.663303 143.713514 
L 138.867677 141.875571 
L 141.14553 105.904414 
L 143.349903 205.048275 
L 145.627756 98.552645 
L 147.905609 98.972746 
L 149.963024 98.342594 
L 152.240877 205.468376 
L 154.445251 204.418123 
L 156.723104 106.166977 
L 158.927478 103.173757 
L 161.205331 108.00492 
L 163.483183 110.945628 
L 165.687557 109.055173 
L 167.96541 207.14878 
L 170.169784 101.283302 
L 172.447637 120.397902 
L 174.725489 99.602898 
L 176.856384 101.703403 
L 179.134237 203.577921 
L 181.338611 104.854162 
L 183.616464 162.197962 
L 185.820837 174.800995 
L 188.09869 111.99588 
L 190.376543 109.895375 
L 192.580917 109.265223 
L 194.85877 209.249286 
L 197.063143 101.703403 
L 199.340996 99.392847 
L 201.618849 99.392847 
L 203.676265 202.947769 
L 205.954117 309.8635 
L 208.158491 146.496683 
L 210.436344 174.380894 
L 212.640718 146.23412 
L 214.918571 108.425021 
L 217.196423 109.317736 
L 219.400797 114.726537 
L 221.67865 105.694364 
L 223.883024 222.692521 
L 226.160877 98.552645 
L 228.43873 140.772806 
L 230.496145 97.502392 
L 232.773998 229.624189 
L 234.978372 202.527668 
L 237.256224 113.991361 
L 239.460598 170.599984 
L 241.738451 105.904414 
L 244.016304 105.694364 
L 246.220678 105.904414 
L 248.498531 202.317618 
L 250.702904 97.712443 
L 252.980757 95.191836 
L 255.25861 94.981786 
L 257.316026 136.361744 
L 259.593878 204.628174 
L 261.798252 174.380894 
L 264.076105 309.8635 
L 266.280479 309.8635 
L 268.558332 109.685324 
L 270.836184 109.475274 
L 273.040558 106.324515 
L 275.318411 170.652497 
L 277.522785 309.8635 
L 279.800638 309.8635 
L 282.078491 202.317618 
L 284.209385 116.669505 
L 286.487238 125.33409 
L 288.691612 151.065283 
L 290.969465 309.8635 
L 293.173838 115.409202 
L 295.451691 145.866532 
L 297.729544 123.181072 
L 299.933918 116.039353 
L 302.211771 212.400044 
L 304.416144 309.8635 
L 306.693997 309.8635 
L 308.97185 219.804326 
L 311.029266 309.8635 
L 313.307118 213.922911 
L 315.511492 249.368941 
L 317.789345 309.8635 
L 319.993719 201.109827 
L 322.271572 238.656363 
L 324.549425 212.610095 
L 326.753798 224.05785 
L 329.031651 207.988982 
L 331.236025 219.541763 
L 333.513878 196.541227 
L 335.791731 212.452557 
L 337.849146 201.739979 
L 340.126999 309.8635 
L 342.331373 273.734805 
L 344.609226 263.07474 
L 346.813599 220.592016 
L 349.091452 207.568881 
L 351.369305 207.358831 
L 353.573679 206.728679 
L 355.851532 190.81735 
L 358.055905 211.139741 
L 360.333758 241.597071 
L 362.611611 219.174174 
L 364.669027 236.975959 
L 366.946879 309.8635 
L 369.151253 196.278664 
L 371.429106 309.8635 
L 373.63348 147.546936 
L 375.911333 144.553716 
L 378.189185 137.201946 
L 380.393559 148.177088 
L 382.671412 152.378099 
L 384.875786 238.236262 
L 387.153639 255.880508 
L 389.431492 276.885563 
L 391.562386 299.728561 
L 393.840239 309.8635 
L 396.044613 309.8635 
L 398.322466 309.8635 
L 400.526839 139.722553 
L 402.804692 141.402958 
L 405.082545 138.934864 
L 407.286919 179.684671 
L 409.564772 210.562102 
L 411.769145 259.871469 
L 414.046998 309.8635 
L 416.324851 309.8635 
L 418.382267 309.8635 
L 420.66012 309.8635 
L 422.864493 188.926895 
L 425.142346 159.047204 
L 427.34672 146.02407 
L 429.624573 137.411997 
L 431.902426 150.855232 
L 434.106799 171.282649 
L 436.384652 214.50055 
L 438.589026 241.38702 
L 440.866879 211.192253 
L 443.144732 309.8635 
L 445.202147 309.8635 
L 447.48 309.8635 
L 447.48 309.8635 
L 447.48 309.8635 
L 445.202147 199.166859 
L 443.144732 202.107567 
L 440.866879 193.232931 
L 438.589026 205.048275 
L 436.384652 198.694246 
L 434.106799 95.401887 
L 431.902426 75.867185 
L 429.624573 75.867185 
L 427.34672 76.024723 
L 425.142346 91.305901 
L 422.864493 112.836082 
L 420.66012 218.281459 
L 418.382267 309.8635 
L 416.324851 230.779467 
L 414.046998 240.179229 
L 411.769145 175.956273 
L 409.564772 114.306436 
L 407.286919 95.559425 
L 405.082545 69.565669 
L 402.804692 67.255113 
L 400.526839 67.255113 
L 398.322466 161.987912 
L 396.044613 309.8635 
L 393.840239 222.955084 
L 391.562386 178.371855 
L 389.431492 176.69145 
L 387.153639 175.011046 
L 384.875786 193.180419 
L 382.671412 78.54533 
L 380.393559 73.031503 
L 378.189185 68.252853 
L 375.911333 71.876225 
L 373.63348 65.732246 
L 371.429106 183.203017 
L 369.151253 101.283302 
L 366.946879 210.299538 
L 364.669027 198.746758 
L 362.611611 192.445242 
L 360.333758 209.669387 
L 358.055905 109.21271 
L 355.851532 78.807893 
L 353.573679 76.707388 
L 351.369305 70.825972 
L 349.091452 71.036023 
L 346.813599 75.184521 
L 344.609226 121.395642 
L 342.331373 176.428887 
L 340.126999 249.789042 
L 337.849146 132.318271 
L 335.791731 201.057314 
L 333.513878 83.32398 
L 331.236025 176.271349 
L 329.031651 107.00718 
L 326.753798 77.75764 
L 324.549425 69.093055 
L 322.271572 69.565669 
L 319.993719 83.166442 
L 317.789345 309.8635 
L 315.511492 109.265223 
L 313.307118 201.214852 
L 311.029266 208.409084 
L 308.97185 209.249286 
L 306.693997 210.71964 
L 304.416144 211.297279 
L 302.211771 102.123504 
L 299.933918 102.018479 
L 297.729544 91.568464 
L 295.451691 108.21497 
L 293.173838 105.274263 
L 290.969465 309.8635 
L 288.691612 103.173757 
L 286.487238 100.863201 
L 284.209385 98.132544 
L 282.078491 181.417588 
L 279.800638 200.847264 
L 277.522785 160.097457 
L 275.318411 97.082291 
L 273.040558 101.283302 
L 270.836184 59.903343 
L 268.558332 59.903343 
L 266.280479 106.954667 
L 264.076105 128.379823 
L 261.798252 99.812948 
L 259.593878 110.735577 
L 257.316026 92.88128 
L 255.25861 90.360673 
L 252.980757 90.780775 
L 250.702904 91.410926 
L 248.498531 98.080031 
L 246.220678 57.382737 
L 244.016304 60.113394 
L 241.738451 61.583748 
L 239.460598 60.953596 
L 237.256224 98.972746 
L 234.978372 98.972746 
L 232.773998 202.737719 
L 230.496145 96.032038 
L 228.43873 96.872241 
L 226.160877 93.931533 
L 223.883024 95.191836 
L 221.67865 97.65993 
L 219.400797 58.012889 
L 217.196423 56.962636 
L 214.918571 58.853091 
L 212.640718 56.962636 
L 210.436344 102.753656 
L 208.158491 101.860941 
L 205.954117 204.208072 
L 203.676265 101.073252 
L 201.618849 98.132544 
L 199.340996 94.981786 
L 197.063143 101.073252 
L 194.85877 107.794869 
L 192.580917 59.063141 
L 190.376543 59.693293 
L 188.09869 60.743546 
L 185.820837 57.802838 
L 183.616464 101.703403 
L 181.338611 98.342594 
L 179.134237 100.863201 
L 176.856384 97.082291 
L 174.725489 96.242089 
L 172.447637 98.342594 
L 170.169784 100.4431 
L 167.96541 107.322256 
L 165.687557 57.172686 
L 163.483183 58.853091 
L 161.205331 59.483242 
L 158.927478 56.332484 
L 156.723104 98.132544 
L 154.445251 101.073252 
L 152.240877 203.15782 
L 149.963024 96.032038 
L 147.905609 95.611937 
L 145.627756 96.452139 
L 143.349903 98.552645 
L 141.14553 100.653151 
L 138.867677 94.771735 
L 136.663303 98.762696 
L 134.38545 99.392847 
L 132.107597 141.192907 
L 129.903223 234.245301 
L 127.625371 136.781845 
L 125.420997 169.339681 
L 123.143144 167.869327 
L 121.085728 167.659276 
L 118.807876 98.132544 
L 116.530023 100.022999 
L 114.325649 105.904414 
L 112.047796 97.922493 
L 109.843422 106.114465 
L 107.56557 61.583748 
L 105.287717 104.22401 
L 103.083343 106.954667 
L 100.80549 101.283302 
L 98.601116 101.073252 
L 96.323263 101.073252 
L 94.265848 239.706616 
L 91.987995 309.8635 
L 89.710142 241.807121 
L 87.505769 177.531652 
L 85.227916 179.632158 
L 83.023542 180.47236 
L 80.745689 176.4814 
L 78.467836 175.431147 
L 76.263462 233.61515 
L 73.98561 172.490439 
L 71.781236 171.860288 
L 69.503383 169.549731 
L 67.372488 173.330641 
L 65.094636 174.170844 
L 62.816783 229.571677 
L 60.612409 245.95562 
L 58.334556 244.747829 
L 56.130182 231.304594 
L 53.852329 231.094543 
L 51.574477 247.058385 
L 49.370103 268.641079 
L 47.09225 309.8635 
z
" style="fill:#808080;fill-opacity:0.6;"/>
   </g>
   <g id="matplotlib.axis_1">
    <g id="xtick_1">
     <g id="line2d_1">
      <path clip-path="url(#p6646f73384)" d="M 65.168115 309.8635 
L 65.168115 23.36505 
" style="fill:none;stroke:#b0b0b0;stroke-linecap:square;stroke-width:0.8;"/>
     </g>
     <g id="line2d_2">
      <defs>
       <path d="M 0 0 
L 0 3.5 
" id="mf9dc56dd88" style="stroke:#000000;stroke-width:0.8;"/>
      </defs>
      <g>
       <use style="stroke:#000000;stroke-width:0.8;" x="65.168115" xlink:href="#mf9dc56dd88" y="309.8635"/>
      </g>
     </g>
     <g id="text_1">
      <!-- 2004 -->
      <defs>
       <path d="M 19.1875 8.296875 
L 53.609375 8.296875 
L 53.609375 0 
L 7.328125 0 
L 7.328125 8.296875 
Q 12.9375 14.109375 22.625 23.890625 
Q 32.328125 33.6875 34.8125 36.53125 
Q 39.546875 41.84375 41.421875 45.53125 
Q 43.3125 49.21875 43.3125 52.78125 
Q 43.3125 58.59375 39.234375 62.25 
Q 35.15625 65.921875 28.609375 65.921875 
Q 23.96875 65.921875 18.8125 64.3125 
Q 13.671875 62.703125 7.8125 59.421875 
L 7.8125 69.390625 
Q 13.765625 71.78125 18.9375 73 
Q 24.125 74.21875 28.421875 74.21875 
Q 39.75 74.21875 46.484375 68.546875 
Q 53.21875 62.890625 53.21875 53.421875 
Q 53.21875 48.921875 51.53125 44.890625 
Q 49.859375 40.875 45.40625 35.40625 
Q 44.1875 33.984375 37.640625 27.21875 
Q 31.109375 20.453125 19.1875 8.296875 
z
" id="DejaVuSans-32"/>
       <path d="M 31.78125 66.40625 
Q 24.171875 66.40625 20.328125 58.90625 
Q 16.5 51.421875 16.5 36.375 
Q 16.5 21.390625 20.328125 13.890625 
Q 24.171875 6.390625 31.78125 6.390625 
Q 39.453125 6.390625 43.28125 13.890625 
Q 47.125 21.390625 47.125 36.375 
Q 47.125 51.421875 43.28125 58.90625 
Q 39.453125 66.40625 31.78125 66.40625 
z
M 31.78125 74.21875 
Q 44.046875 74.21875 50.515625 64.515625 
Q 56.984375 54.828125 56.984375 36.375 
Q 56.984375 17.96875 50.515625 8.265625 
Q 44.046875 -1.421875 31.78125 -1.421875 
Q 19.53125 -1.421875 13.0625 8.265625 
Q 6.59375 17.96875 6.59375 36.375 
Q 6.59375 54.828125 13.0625 64.515625 
Q 19.53125 74.21875 31.78125 74.21875 
z
" id="DejaVuSans-30"/>
       <path d="M 37.796875 64.3125 
L 12.890625 25.390625 
L 37.796875 25.390625 
z
M 35.203125 72.90625 
L 47.609375 72.90625 
L 47.609375 25.390625 
L 58.015625 25.390625 
L 58.015625 17.1875 
L 47.609375 17.1875 
L 47.609375 0 
L 37.796875 0 
L 37.796875 17.1875 
L 4.890625 17.1875 
L 4.890625 26.703125 
z
" id="DejaVuSans-34"/>
      </defs>
      <g transform="translate(52.443115 324.461937)scale(0.1 -0.1)">
       <use xlink:href="#DejaVuSans-32"/>
       <use x="63.623047" xlink:href="#DejaVuSans-30"/>
       <use x="127.246094" xlink:href="#DejaVuSans-30"/>
       <use x="190.869141" xlink:href="#DejaVuSans-34"/>
      </g>
     </g>
    </g>
    <g id="xtick_2">
     <g id="line2d_3">
      <path clip-path="url(#p6646f73384)" d="M 118.881355 309.8635 
L 118.881355 23.36505 
" style="fill:none;stroke:#b0b0b0;stroke-linecap:square;stroke-width:0.8;"/>
     </g>
     <g id="line2d_4">
      <g>
       <use style="stroke:#000000;stroke-width:0.8;" x="118.881355" xlink:href="#mf9dc56dd88" y="309.8635"/>
      </g>
     </g>
     <g id="text_2">
      <!-- 2006 -->
      <defs>
       <path d="M 33.015625 40.375 
Q 26.375 40.375 22.484375 35.828125 
Q 18.609375 31.296875 18.609375 23.390625 
Q 18.609375 15.53125 22.484375 10.953125 
Q 26.375 6.390625 33.015625 6.390625 
Q 39.65625 6.390625 43.53125 10.953125 
Q 47.40625 15.53125 47.40625 23.390625 
Q 47.40625 31.296875 43.53125 35.828125 
Q 39.65625 40.375 33.015625 40.375 
z
M 52.59375 71.296875 
L 52.59375 62.3125 
Q 48.875 64.0625 45.09375 64.984375 
Q 41.3125 65.921875 37.59375 65.921875 
Q 27.828125 65.921875 22.671875 59.328125 
Q 17.53125 52.734375 16.796875 39.40625 
Q 19.671875 43.65625 24.015625 45.921875 
Q 28.375 48.1875 33.59375 48.1875 
Q 44.578125 48.1875 50.953125 41.515625 
Q 57.328125 34.859375 57.328125 23.390625 
Q 57.328125 12.15625 50.6875 5.359375 
Q 44.046875 -1.421875 33.015625 -1.421875 
Q 20.359375 -1.421875 13.671875 8.265625 
Q 6.984375 17.96875 6.984375 36.375 
Q 6.984375 53.65625 15.1875 63.9375 
Q 23.390625 74.21875 37.203125 74.21875 
Q 40.921875 74.21875 44.703125 73.484375 
Q 48.484375 72.75 52.59375 71.296875 
z
" id="DejaVuSans-36"/>
      </defs>
      <g transform="translate(106.156355 324.461937)scale(0.1 -0.1)">
       <use xlink:href="#DejaVuSans-32"/>
       <use x="63.623047" xlink:href="#DejaVuSans-30"/>
       <use x="127.246094" xlink:href="#DejaVuSans-30"/>
       <use x="190.869141" xlink:href="#DejaVuSans-36"/>
      </g>
     </g>
    </g>
    <g id="xtick_3">
     <g id="line2d_5">
      <path clip-path="url(#p6646f73384)" d="M 172.521116 309.8635 
L 172.521116 23.36505 
" style="fill:none;stroke:#b0b0b0;stroke-linecap:square;stroke-width:0.8;"/>
     </g>
     <g id="line2d_6">
      <g>
       <use style="stroke:#000000;stroke-width:0.8;" x="172.521116" xlink:href="#mf9dc56dd88" y="309.8635"/>
      </g>
     </g>
     <g id="text_3">
      <!-- 2008 -->
      <defs>
       <path d="M 31.78125 34.625 
Q 24.75 34.625 20.71875 30.859375 
Q 16.703125 27.09375 16.703125 20.515625 
Q 16.703125 13.921875 20.71875 10.15625 
Q 24.75 6.390625 31.78125 6.390625 
Q 38.8125 6.390625 42.859375 10.171875 
Q 46.921875 13.96875 46.921875 20.515625 
Q 46.921875 27.09375 42.890625 30.859375 
Q 38.875 34.625 31.78125 34.625 
z
M 21.921875 38.8125 
Q 15.578125 40.375 12.03125 44.71875 
Q 8.5 49.078125 8.5 55.328125 
Q 8.5 64.0625 14.71875 69.140625 
Q 20.953125 74.21875 31.78125 74.21875 
Q 42.671875 74.21875 48.875 69.140625 
Q 55.078125 64.0625 55.078125 55.328125 
Q 55.078125 49.078125 51.53125 44.71875 
Q 48 40.375 41.703125 38.8125 
Q 48.828125 37.15625 52.796875 32.3125 
Q 56.78125 27.484375 56.78125 20.515625 
Q 56.78125 9.90625 50.3125 4.234375 
Q 43.84375 -1.421875 31.78125 -1.421875 
Q 19.734375 -1.421875 13.25 4.234375 
Q 6.78125 9.90625 6.78125 20.515625 
Q 6.78125 27.484375 10.78125 32.3125 
Q 14.796875 37.15625 21.921875 38.8125 
z
M 18.3125 54.390625 
Q 18.3125 48.734375 21.84375 45.5625 
Q 25.390625 42.390625 31.78125 42.390625 
Q 38.140625 42.390625 41.71875 45.5625 
Q 45.3125 48.734375 45.3125 54.390625 
Q 45.3125 60.0625 41.71875 63.234375 
Q 38.140625 66.40625 31.78125 66.40625 
Q 25.390625 66.40625 21.84375 63.234375 
Q 18.3125 60.0625 18.3125 54.390625 
z
" id="DejaVuSans-38"/>
      </defs>
      <g transform="translate(159.796116 324.461937)scale(0.1 -0.1)">
       <use xlink:href="#DejaVuSans-32"/>
       <use x="63.623047" xlink:href="#DejaVuSans-30"/>
       <use x="127.246094" xlink:href="#DejaVuSans-30"/>
       <use x="190.869141" xlink:href="#DejaVuSans-38"/>
      </g>
     </g>
    </g>
    <g id="xtick_4">
     <g id="line2d_7">
      <path clip-path="url(#p6646f73384)" d="M 226.234356 309.8635 
L 226.234356 23.36505 
" style="fill:none;stroke:#b0b0b0;stroke-linecap:square;stroke-width:0.8;"/>
     </g>
     <g id="line2d_8">
      <g>
       <use style="stroke:#000000;stroke-width:0.8;" x="226.234356" xlink:href="#mf9dc56dd88" y="309.8635"/>
      </g>
     </g>
     <g id="text_4">
      <!-- 2010 -->
      <defs>
       <path d="M 12.40625 8.296875 
L 28.515625 8.296875 
L 28.515625 63.921875 
L 10.984375 60.40625 
L 10.984375 69.390625 
L 28.421875 72.90625 
L 38.28125 72.90625 
L 38.28125 8.296875 
L 54.390625 8.296875 
L 54.390625 0 
L 12.40625 0 
z
" id="DejaVuSans-31"/>
      </defs>
      <g transform="translate(213.509356 324.461937)scale(0.1 -0.1)">
       <use xlink:href="#DejaVuSans-32"/>
       <use x="63.623047" xlink:href="#DejaVuSans-30"/>
       <use x="127.246094" xlink:href="#DejaVuSans-31"/>
       <use x="190.869141" xlink:href="#DejaVuSans-30"/>
      </g>
     </g>
    </g>
    <g id="xtick_5">
     <g id="line2d_9">
      <path clip-path="url(#p6646f73384)" d="M 279.874117 309.8635 
L 279.874117 23.36505 
" style="fill:none;stroke:#b0b0b0;stroke-linecap:square;stroke-width:0.8;"/>
     </g>
     <g id="line2d_10">
      <g>
       <use style="stroke:#000000;stroke-width:0.8;" x="279.874117" xlink:href="#mf9dc56dd88" y="309.8635"/>
      </g>
     </g>
     <g id="text_5">
      <!-- 2012 -->
      <g transform="translate(267.149117 324.461937)scale(0.1 -0.1)">
       <use xlink:href="#DejaVuSans-32"/>
       <use x="63.623047" xlink:href="#DejaVuSans-30"/>
       <use x="127.246094" xlink:href="#DejaVuSans-31"/>
       <use x="190.869141" xlink:href="#DejaVuSans-32"/>
      </g>
     </g>
    </g>
    <g id="xtick_6">
     <g id="line2d_11">
      <path clip-path="url(#p6646f73384)" d="M 333.587357 309.8635 
L 333.587357 23.36505 
" style="fill:none;stroke:#b0b0b0;stroke-linecap:square;stroke-width:0.8;"/>
     </g>
     <g id="line2d_12">
      <g>
       <use style="stroke:#000000;stroke-width:0.8;" x="333.587357" xlink:href="#mf9dc56dd88" y="309.8635"/>
      </g>
     </g>
     <g id="text_6">
      <!-- 2014 -->
      <g transform="translate(320.862357 324.461937)scale(0.1 -0.1)">
       <use xlink:href="#DejaVuSans-32"/>
       <use x="63.623047" xlink:href="#DejaVuSans-30"/>
       <use x="127.246094" xlink:href="#DejaVuSans-31"/>
       <use x="190.869141" xlink:href="#DejaVuSans-34"/>
      </g>
     </g>
    </g>
    <g id="xtick_7">
     <g id="line2d_13">
      <path clip-path="url(#p6646f73384)" d="M 387.227118 309.8635 
L 387.227118 23.36505 
" style="fill:none;stroke:#b0b0b0;stroke-linecap:square;stroke-width:0.8;"/>
     </g>
     <g id="line2d_14">
      <g>
       <use style="stroke:#000000;stroke-width:0.8;" x="387.227118" xlink:href="#mf9dc56dd88" y="309.8635"/>
      </g>
     </g>
     <g id="text_7">
      <!-- 2016 -->
      <g transform="translate(374.502118 324.461937)scale(0.1 -0.1)">
       <use xlink:href="#DejaVuSans-32"/>
       <use x="63.623047" xlink:href="#DejaVuSans-30"/>
       <use x="127.246094" xlink:href="#DejaVuSans-31"/>
       <use x="190.869141" xlink:href="#DejaVuSans-36"/>
      </g>
     </g>
    </g>
    <g id="xtick_8">
     <g id="line2d_15">
      <path clip-path="url(#p6646f73384)" d="M 440.940358 309.8635 
L 440.940358 23.36505 
" style="fill:none;stroke:#b0b0b0;stroke-linecap:square;stroke-width:0.8;"/>
     </g>
     <g id="line2d_16">
      <g>
       <use style="stroke:#000000;stroke-width:0.8;" x="440.940358" xlink:href="#mf9dc56dd88" y="309.8635"/>
      </g>
     </g>
     <g id="text_8">
      <!-- 2018 -->
      <g transform="translate(428.215358 324.461937)scale(0.1 -0.1)">
       <use xlink:href="#DejaVuSans-32"/>
       <use x="63.623047" xlink:href="#DejaVuSans-30"/>
       <use x="127.246094" xlink:href="#DejaVuSans-31"/>
       <use x="190.869141" xlink:href="#DejaVuSans-38"/>
      </g>
     </g>
    </g>
    <g id="text_9">
     <!-- Date -->
     <defs>
      <path d="M 19.671875 64.796875 
L 19.671875 8.109375 
L 31.59375 8.109375 
Q 46.6875 8.109375 53.6875 14.9375 
Q 60.6875 21.78125 60.6875 36.53125 
Q 60.6875 51.171875 53.6875 57.984375 
Q 46.6875 64.796875 31.59375 64.796875 
z
M 9.8125 72.90625 
L 30.078125 72.90625 
Q 51.265625 72.90625 61.171875 64.09375 
Q 71.09375 55.28125 71.09375 36.53125 
Q 71.09375 17.671875 61.125 8.828125 
Q 51.171875 0 30.078125 0 
L 9.8125 0 
z
" id="DejaVuSans-44"/>
      <path d="M 34.28125 27.484375 
Q 23.390625 27.484375 19.1875 25 
Q 14.984375 22.515625 14.984375 16.5 
Q 14.984375 11.71875 18.140625 8.90625 
Q 21.296875 6.109375 26.703125 6.109375 
Q 34.1875 6.109375 38.703125 11.40625 
Q 43.21875 16.703125 43.21875 25.484375 
L 43.21875 27.484375 
z
M 52.203125 31.203125 
L 52.203125 0 
L 43.21875 0 
L 43.21875 8.296875 
Q 40.140625 3.328125 35.546875 0.953125 
Q 30.953125 -1.421875 24.3125 -1.421875 
Q 15.921875 -1.421875 10.953125 3.296875 
Q 6 8.015625 6 15.921875 
Q 6 25.140625 12.171875 29.828125 
Q 18.359375 34.515625 30.609375 34.515625 
L 43.21875 34.515625 
L 43.21875 35.40625 
Q 43.21875 41.609375 39.140625 45 
Q 35.0625 48.390625 27.6875 48.390625 
Q 23 48.390625 18.546875 47.265625 
Q 14.109375 46.140625 10.015625 43.890625 
L 10.015625 52.203125 
Q 14.9375 54.109375 19.578125 55.046875 
Q 24.21875 56 28.609375 56 
Q 40.484375 56 46.34375 49.84375 
Q 52.203125 43.703125 52.203125 31.203125 
z
" id="DejaVuSans-61"/>
      <path d="M 18.3125 70.21875 
L 18.3125 54.6875 
L 36.8125 54.6875 
L 36.8125 47.703125 
L 18.3125 47.703125 
L 18.3125 18.015625 
Q 18.3125 11.328125 20.140625 9.421875 
Q 21.96875 7.515625 27.59375 7.515625 
L 36.8125 7.515625 
L 36.8125 0 
L 27.59375 0 
Q 17.1875 0 13.234375 3.875 
Q 9.28125 7.765625 9.28125 18.015625 
L 9.28125 47.703125 
L 2.6875 47.703125 
L 2.6875 54.6875 
L 9.28125 54.6875 
L 9.28125 70.21875 
z
" id="DejaVuSans-74"/>
      <path d="M 56.203125 29.59375 
L 56.203125 25.203125 
L 14.890625 25.203125 
Q 15.484375 15.921875 20.484375 11.0625 
Q 25.484375 6.203125 34.421875 6.203125 
Q 39.59375 6.203125 44.453125 7.46875 
Q 49.3125 8.734375 54.109375 11.28125 
L 54.109375 2.78125 
Q 49.265625 0.734375 44.1875 -0.34375 
Q 39.109375 -1.421875 33.890625 -1.421875 
Q 20.796875 -1.421875 13.15625 6.1875 
Q 5.515625 13.8125 5.515625 26.8125 
Q 5.515625 40.234375 12.765625 48.109375 
Q 20.015625 56 32.328125 56 
Q 43.359375 56 49.78125 48.890625 
Q 56.203125 41.796875 56.203125 29.59375 
z
M 47.21875 32.234375 
Q 47.125 39.59375 43.09375 43.984375 
Q 39.0625 48.390625 32.421875 48.390625 
Q 24.90625 48.390625 20.390625 44.140625 
Q 15.875 39.890625 15.1875 32.171875 
z
" id="DejaVuSans-65"/>
     </defs>
     <g transform="translate(235.335344 338.140062)scale(0.1 -0.1)">
      <use xlink:href="#DejaVuSans-44"/>
      <use x="77.001953" xlink:href="#DejaVuSans-61"/>
      <use x="138.28125" xlink:href="#DejaVuSans-74"/>
      <use x="177.490234" xlink:href="#DejaVuSans-65"/>
     </g>
    </g>
   </g>
   <g id="matplotlib.axis_2">
    <g id="ytick_1">
     <g id="line2d_17">
      <path clip-path="url(#p6646f73384)" d="M 47.09225 309.8635 
L 447.48 309.8635 
" style="fill:none;stroke:#b0b0b0;stroke-linecap:square;stroke-width:0.8;"/>
     </g>
     <g id="line2d_18">
      <defs>
       <path d="M 0 0 
L -3.5 0 
" id="m9e6701e19b" style="stroke:#000000;stroke-width:0.8;"/>
      </defs>
      <g>
       <use style="stroke:#000000;stroke-width:0.8;" x="47.09225" xlink:href="#m9e6701e19b" y="309.8635"/>
      </g>
     </g>
     <g id="text_10">
      <!-- 0 -->
      <g transform="translate(33.72975 313.662719)scale(0.1 -0.1)">
       <use xlink:href="#DejaVuSans-30"/>
      </g>
     </g>
    </g>
    <g id="ytick_2">
     <g id="line2d_19">
      <path clip-path="url(#p6646f73384)" d="M 47.09225 267.85339 
L 447.48 267.85339 
" style="fill:none;stroke:#b0b0b0;stroke-linecap:square;stroke-width:0.8;"/>
     </g>
     <g id="line2d_20">
      <g>
       <use style="stroke:#000000;stroke-width:0.8;" x="47.09225" xlink:href="#m9e6701e19b" y="267.85339"/>
      </g>
     </g>
     <g id="text_11">
      <!-- 200 -->
      <g transform="translate(21.00475 271.652608)scale(0.1 -0.1)">
       <use xlink:href="#DejaVuSans-32"/>
       <use x="63.623047" xlink:href="#DejaVuSans-30"/>
       <use x="127.246094" xlink:href="#DejaVuSans-30"/>
      </g>
     </g>
    </g>
    <g id="ytick_3">
     <g id="line2d_21">
      <path clip-path="url(#p6646f73384)" d="M 47.09225 225.843279 
L 447.48 225.843279 
" style="fill:none;stroke:#b0b0b0;stroke-linecap:square;stroke-width:0.8;"/>
     </g>
     <g id="line2d_22">
      <g>
       <use style="stroke:#000000;stroke-width:0.8;" x="47.09225" xlink:href="#m9e6701e19b" y="225.843279"/>
      </g>
     </g>
     <g id="text_12">
      <!-- 400 -->
      <g transform="translate(21.00475 229.642498)scale(0.1 -0.1)">
       <use xlink:href="#DejaVuSans-34"/>
       <use x="63.623047" xlink:href="#DejaVuSans-30"/>
       <use x="127.246094" xlink:href="#DejaVuSans-30"/>
      </g>
     </g>
    </g>
    <g id="ytick_4">
     <g id="line2d_23">
      <path clip-path="url(#p6646f73384)" d="M 47.09225 183.833169 
L 447.48 183.833169 
" style="fill:none;stroke:#b0b0b0;stroke-linecap:square;stroke-width:0.8;"/>
     </g>
     <g id="line2d_24">
      <g>
       <use style="stroke:#000000;stroke-width:0.8;" x="47.09225" xlink:href="#m9e6701e19b" y="183.833169"/>
      </g>
     </g>
     <g id="text_13">
      <!-- 600 -->
      <g transform="translate(21.00475 187.632388)scale(0.1 -0.1)">
       <use xlink:href="#DejaVuSans-36"/>
       <use x="63.623047" xlink:href="#DejaVuSans-30"/>
       <use x="127.246094" xlink:href="#DejaVuSans-30"/>
      </g>
     </g>
    </g>
    <g id="ytick_5">
     <g id="line2d_25">
      <path clip-path="url(#p6646f73384)" d="M 47.09225 141.823059 
L 447.48 141.823059 
" style="fill:none;stroke:#b0b0b0;stroke-linecap:square;stroke-width:0.8;"/>
     </g>
     <g id="line2d_26">
      <g>
       <use style="stroke:#000000;stroke-width:0.8;" x="47.09225" xlink:href="#m9e6701e19b" y="141.823059"/>
      </g>
     </g>
     <g id="text_14">
      <!-- 800 -->
      <g transform="translate(21.00475 145.622277)scale(0.1 -0.1)">
       <use xlink:href="#DejaVuSans-38"/>
       <use x="63.623047" xlink:href="#DejaVuSans-30"/>
       <use x="127.246094" xlink:href="#DejaVuSans-30"/>
      </g>
     </g>
    </g>
    <g id="ytick_6">
     <g id="line2d_27">
      <path clip-path="url(#p6646f73384)" d="M 47.09225 99.812948 
L 447.48 99.812948 
" style="fill:none;stroke:#b0b0b0;stroke-linecap:square;stroke-width:0.8;"/>
     </g>
     <g id="line2d_28">
      <g>
       <use style="stroke:#000000;stroke-width:0.8;" x="47.09225" xlink:href="#m9e6701e19b" y="99.812948"/>
      </g>
     </g>
     <g id="text_15">
      <!-- 1000 -->
      <g transform="translate(14.64225 103.612167)scale(0.1 -0.1)">
       <use xlink:href="#DejaVuSans-31"/>
       <use x="63.623047" xlink:href="#DejaVuSans-30"/>
       <use x="127.246094" xlink:href="#DejaVuSans-30"/>
       <use x="190.869141" xlink:href="#DejaVuSans-30"/>
      </g>
     </g>
    </g>
    <g id="ytick_7">
     <g id="line2d_29">
      <path clip-path="url(#p6646f73384)" d="M 47.09225 57.802838 
L 447.48 57.802838 
" style="fill:none;stroke:#b0b0b0;stroke-linecap:square;stroke-width:0.8;"/>
     </g>
     <g id="line2d_30">
      <g>
       <use style="stroke:#000000;stroke-width:0.8;" x="47.09225" xlink:href="#m9e6701e19b" y="57.802838"/>
      </g>
     </g>
     <g id="text_16">
      <!-- 1200 -->
      <g transform="translate(14.64225 61.602057)scale(0.1 -0.1)">
       <use xlink:href="#DejaVuSans-31"/>
       <use x="63.623047" xlink:href="#DejaVuSans-32"/>
       <use x="127.246094" xlink:href="#DejaVuSans-30"/>
       <use x="190.869141" xlink:href="#DejaVuSans-30"/>
      </g>
     </g>
    </g>
    <g id="text_17">
     <!-- Gross load (MW) -->
     <defs>
      <path d="M 59.515625 10.40625 
L 59.515625 29.984375 
L 43.40625 29.984375 
L 43.40625 38.09375 
L 69.28125 38.09375 
L 69.28125 6.78125 
Q 63.578125 2.734375 56.6875 0.65625 
Q 49.8125 -1.421875 42 -1.421875 
Q 24.90625 -1.421875 15.25 8.5625 
Q 5.609375 18.5625 5.609375 36.375 
Q 5.609375 54.25 15.25 64.234375 
Q 24.90625 74.21875 42 74.21875 
Q 49.125 74.21875 55.546875 72.453125 
Q 61.96875 70.703125 67.390625 67.28125 
L 67.390625 56.78125 
Q 61.921875 61.421875 55.765625 63.765625 
Q 49.609375 66.109375 42.828125 66.109375 
Q 29.4375 66.109375 22.71875 58.640625 
Q 16.015625 51.171875 16.015625 36.375 
Q 16.015625 21.625 22.71875 14.15625 
Q 29.4375 6.6875 42.828125 6.6875 
Q 48.046875 6.6875 52.140625 7.59375 
Q 56.25 8.5 59.515625 10.40625 
z
" id="DejaVuSans-47"/>
      <path d="M 41.109375 46.296875 
Q 39.59375 47.171875 37.8125 47.578125 
Q 36.03125 48 33.890625 48 
Q 26.265625 48 22.1875 43.046875 
Q 18.109375 38.09375 18.109375 28.8125 
L 18.109375 0 
L 9.078125 0 
L 9.078125 54.6875 
L 18.109375 54.6875 
L 18.109375 46.1875 
Q 20.953125 51.171875 25.484375 53.578125 
Q 30.03125 56 36.53125 56 
Q 37.453125 56 38.578125 55.875 
Q 39.703125 55.765625 41.0625 55.515625 
z
" id="DejaVuSans-72"/>
      <path d="M 30.609375 48.390625 
Q 23.390625 48.390625 19.1875 42.75 
Q 14.984375 37.109375 14.984375 27.296875 
Q 14.984375 17.484375 19.15625 11.84375 
Q 23.34375 6.203125 30.609375 6.203125 
Q 37.796875 6.203125 41.984375 11.859375 
Q 46.1875 17.53125 46.1875 27.296875 
Q 46.1875 37.015625 41.984375 42.703125 
Q 37.796875 48.390625 30.609375 48.390625 
z
M 30.609375 56 
Q 42.328125 56 49.015625 48.375 
Q 55.71875 40.765625 55.71875 27.296875 
Q 55.71875 13.875 49.015625 6.21875 
Q 42.328125 -1.421875 30.609375 -1.421875 
Q 18.84375 -1.421875 12.171875 6.21875 
Q 5.515625 13.875 5.515625 27.296875 
Q 5.515625 40.765625 12.171875 48.375 
Q 18.84375 56 30.609375 56 
z
" id="DejaVuSans-6f"/>
      <path d="M 44.28125 53.078125 
L 44.28125 44.578125 
Q 40.484375 46.53125 36.375 47.5 
Q 32.28125 48.484375 27.875 48.484375 
Q 21.1875 48.484375 17.84375 46.4375 
Q 14.5 44.390625 14.5 40.28125 
Q 14.5 37.15625 16.890625 35.375 
Q 19.28125 33.59375 26.515625 31.984375 
L 29.59375 31.296875 
Q 39.15625 29.25 43.1875 25.515625 
Q 47.21875 21.78125 47.21875 15.09375 
Q 47.21875 7.46875 41.1875 3.015625 
Q 35.15625 -1.421875 24.609375 -1.421875 
Q 20.21875 -1.421875 15.453125 -0.5625 
Q 10.6875 0.296875 5.421875 2 
L 5.421875 11.28125 
Q 10.40625 8.6875 15.234375 7.390625 
Q 20.0625 6.109375 24.8125 6.109375 
Q 31.15625 6.109375 34.5625 8.28125 
Q 37.984375 10.453125 37.984375 14.40625 
Q 37.984375 18.0625 35.515625 20.015625 
Q 33.0625 21.96875 24.703125 23.78125 
L 21.578125 24.515625 
Q 13.234375 26.265625 9.515625 29.90625 
Q 5.8125 33.546875 5.8125 39.890625 
Q 5.8125 47.609375 11.28125 51.796875 
Q 16.75 56 26.8125 56 
Q 31.78125 56 36.171875 55.265625 
Q 40.578125 54.546875 44.28125 53.078125 
z
" id="DejaVuSans-73"/>
      <path id="DejaVuSans-20"/>
      <path d="M 9.421875 75.984375 
L 18.40625 75.984375 
L 18.40625 0 
L 9.421875 0 
z
" id="DejaVuSans-6c"/>
      <path d="M 45.40625 46.390625 
L 45.40625 75.984375 
L 54.390625 75.984375 
L 54.390625 0 
L 45.40625 0 
L 45.40625 8.203125 
Q 42.578125 3.328125 38.25 0.953125 
Q 33.9375 -1.421875 27.875 -1.421875 
Q 17.96875 -1.421875 11.734375 6.484375 
Q 5.515625 14.40625 5.515625 27.296875 
Q 5.515625 40.1875 11.734375 48.09375 
Q 17.96875 56 27.875 56 
Q 33.9375 56 38.25 53.625 
Q 42.578125 51.265625 45.40625 46.390625 
z
M 14.796875 27.296875 
Q 14.796875 17.390625 18.875 11.75 
Q 22.953125 6.109375 30.078125 6.109375 
Q 37.203125 6.109375 41.296875 11.75 
Q 45.40625 17.390625 45.40625 27.296875 
Q 45.40625 37.203125 41.296875 42.84375 
Q 37.203125 48.484375 30.078125 48.484375 
Q 22.953125 48.484375 18.875 42.84375 
Q 14.796875 37.203125 14.796875 27.296875 
z
" id="DejaVuSans-64"/>
      <path d="M 31 75.875 
Q 24.46875 64.65625 21.28125 53.65625 
Q 18.109375 42.671875 18.109375 31.390625 
Q 18.109375 20.125 21.3125 9.0625 
Q 24.515625 -2 31 -13.1875 
L 23.1875 -13.1875 
Q 15.875 -1.703125 12.234375 9.375 
Q 8.59375 20.453125 8.59375 31.390625 
Q 8.59375 42.28125 12.203125 53.3125 
Q 15.828125 64.359375 23.1875 75.875 
z
" id="DejaVuSans-28"/>
      <path d="M 9.8125 72.90625 
L 24.515625 72.90625 
L 43.109375 23.296875 
L 61.8125 72.90625 
L 76.515625 72.90625 
L 76.515625 0 
L 66.890625 0 
L 66.890625 64.015625 
L 48.09375 14.015625 
L 38.1875 14.015625 
L 19.390625 64.015625 
L 19.390625 0 
L 9.8125 0 
z
" id="DejaVuSans-4d"/>
      <path d="M 3.328125 72.90625 
L 13.28125 72.90625 
L 28.609375 11.28125 
L 43.890625 72.90625 
L 54.984375 72.90625 
L 70.3125 11.28125 
L 85.59375 72.90625 
L 95.609375 72.90625 
L 77.296875 0 
L 64.890625 0 
L 49.515625 63.28125 
L 33.984375 0 
L 21.578125 0 
z
" id="DejaVuSans-57"/>
      <path d="M 8.015625 75.875 
L 15.828125 75.875 
Q 23.140625 64.359375 26.78125 53.3125 
Q 30.421875 42.28125 30.421875 31.390625 
Q 30.421875 20.453125 26.78125 9.375 
Q 23.140625 -1.703125 15.828125 -13.1875 
L 8.015625 -13.1875 
Q 14.5 -2 17.703125 9.0625 
Q 20.90625 20.125 20.90625 31.390625 
Q 20.90625 42.671875 17.703125 53.65625 
Q 14.5 64.65625 8.015625 75.875 
z
" id="DejaVuSans-29"/>
     </defs>
     <g transform="translate(8.562562 207.835369)rotate(-90)scale(0.1 -0.1)">
      <use xlink:href="#DejaVuSans-47"/>
      <use x="77.490234" xlink:href="#DejaVuSans-72"/>
      <use x="118.572266" xlink:href="#DejaVuSans-6f"/>
      <use x="179.753906" xlink:href="#DejaVuSans-73"/>
      <use x="231.853516" xlink:href="#DejaVuSans-73"/>
      <use x="283.953125" xlink:href="#DejaVuSans-20"/>
      <use x="315.740234" xlink:href="#DejaVuSans-6c"/>
      <use x="343.523438" xlink:href="#DejaVuSans-6f"/>
      <use x="404.705078" xlink:href="#DejaVuSans-61"/>
      <use x="465.984375" xlink:href="#DejaVuSans-64"/>
      <use x="529.460938" xlink:href="#DejaVuSans-20"/>
      <use x="561.248047" xlink:href="#DejaVuSans-28"/>
      <use x="600.261719" xlink:href="#DejaVuSans-4d"/>
      <use x="686.541016" xlink:href="#DejaVuSans-57"/>
      <use x="785.417969" xlink:href="#DejaVuSans-29"/>
     </g>
    </g>
   </g>
   <g id="line2d_31">
    <path clip-path="url(#p6646f73384)" d="M 47.09225 309.8635 
L 49.370103 309.8635 
L 51.574477 269.743845 
L 53.852329 244.747829 
L 56.130182 245.798082 
L 58.334556 245.588031 
L 60.612409 302.931832 
L 62.816783 242.857374 
L 65.094636 233.195049 
L 67.372488 174.590945 
L 69.503383 171.230136 
L 71.781236 175.221096 
L 73.98561 173.645717 
L 76.263462 242.227222 
L 78.467836 182.677891 
L 80.745689 189.294483 
L 83.023542 182.677891 
L 85.227916 180.682411 
L 87.505769 179.632158 
L 91.987995 309.8635 
L 94.265848 309.8635 
L 96.323263 101.283302 
L 98.601116 105.064212 
L 100.80549 103.593858 
L 103.083343 180.26231 
L 105.287717 178.266829 
L 107.56557 106.324515 
L 109.843422 106.324515 
L 112.047796 110.525526 
L 114.325649 106.324515 
L 116.530023 100.233049 
L 118.807876 100.233049 
L 121.085728 170.389934 
L 123.143144 168.499479 
L 125.420997 170.389934 
L 127.625371 170.074858 
L 129.903223 271.84435 
L 132.107597 173.750742 
L 134.38545 140.142654 
L 136.663303 99.602898 
L 138.867677 123.548661 
L 141.14553 102.333555 
L 143.349903 100.4431 
L 145.627756 97.922493 
L 147.905609 98.342594 
L 149.963024 97.922493 
L 152.240877 203.577921 
L 154.445251 104.644111 
L 156.723104 103.173757 
L 158.927478 58.117914 
L 161.205331 62.108874 
L 163.483183 61.058622 
L 165.687557 60.533495 
L 167.96541 168.91958 
L 170.169784 101.073252 
L 172.447637 99.602898 
L 174.725489 99.077771 
L 176.856384 101.073252 
L 179.134237 201.477415 
L 181.338611 100.022999 
L 183.616464 108.635071 
L 185.820837 121.133079 
L 188.09869 61.583748 
L 190.376543 61.163647 
L 192.580917 61.058622 
L 194.85877 108.21497 
L 197.063143 101.493353 
L 199.340996 97.607418 
L 201.618849 98.552645 
L 203.676265 101.703403 
L 205.954117 204.418123 
L 208.158491 134.996416 
L 210.436344 109.265223 
L 212.640718 63.054102 
L 214.918571 60.323445 
L 217.196423 59.273192 
L 219.400797 108.425021 
L 221.67865 103.173757 
L 223.883024 100.4431 
L 226.160877 97.082291 
L 228.43873 97.292342 
L 230.496145 96.872241 
L 232.773998 203.577921 
L 234.978372 101.073252 
L 237.256224 99.812948 
L 239.460598 63.579228 
L 241.738451 63.264152 
L 244.016304 61.373697 
L 246.220678 59.273192 
L 248.498531 101.283302 
L 250.702904 94.351634 
L 252.980757 93.721482 
L 255.25861 92.251128 
L 257.316026 97.712443 
L 259.593878 172.490439 
L 261.798252 157.471825 
L 264.076105 231.724695 
L 266.280479 214.7106 
L 268.558332 61.583748 
L 270.836184 60.533495 
L 273.040558 105.694364 
L 275.318411 101.598378 
L 277.522785 309.8635 
L 279.800638 309.8635 
L 284.209385 99.812948 
L 286.487238 104.013959 
L 288.691612 107.584819 
L 290.969465 309.8635 
L 293.173838 109.895375 
L 295.451691 112.836082 
L 297.729544 108.950147 
L 302.211771 109.265223 
L 304.416144 221.957344 
L 306.693997 309.8635 
L 308.97185 211.979943 
L 311.029266 212.400044 
L 313.307118 209.249286 
L 315.511492 180.157284 
L 317.789345 309.8635 
L 319.993719 115.56674 
L 322.271572 141.613008 
L 324.549425 163.563291 
L 326.753798 150.330106 
L 329.031651 156.841673 
L 331.236025 206.413603 
L 333.513878 117.142119 
L 335.791731 203.577921 
L 337.849146 171.440186 
L 340.126999 275.310184 
L 342.331373 240.546818 
L 344.609226 202.527668 
L 346.813599 130.795405 
L 349.091452 128.484849 
L 351.369305 121.028054 
L 353.573679 121.028054 
L 355.851532 126.069267 
L 358.055905 188.874382 
L 360.333758 220.381965 
L 362.611611 210.71964 
L 364.669027 211.454817 
L 366.946879 265.227758 
L 369.151253 142.45321 
L 371.429106 225.738254 
L 373.63348 108.00492 
L 375.911333 113.78131 
L 378.189185 104.644111 
L 380.393559 114.726537 
L 382.671412 119.767751 
L 384.875786 207.14878 
L 387.153639 207.673907 
L 389.431492 238.026211 
L 391.562386 228.363886 
L 393.840239 309.8635 
L 396.044613 309.8635 
L 398.322466 232.144796 
L 400.526839 112.415981 
L 402.804692 113.78131 
L 405.082545 113.991361 
L 407.286919 128.694899 
L 409.564772 161.987912 
L 411.769145 217.231207 
L 414.046998 309.8635 
L 416.324851 274.575007 
L 418.382267 309.8635 
L 420.66012 260.711671 
L 422.864493 151.485384 
L 425.142346 132.68586 
L 427.34672 119.137599 
L 429.624573 118.297397 
L 431.902426 122.393383 
L 434.106799 132.89591 
L 436.384652 205.258325 
L 438.589026 217.441257 
L 440.866879 200.742238 
L 443.144732 224.477951 
L 445.202147 235.190529 
L 447.48 309.8635 
L 447.48 309.8635 
" style="fill:none;stroke:#1f77b4;stroke-linecap:square;stroke-width:1.5;"/>
   </g>
   <g id="patch_3">
    <path d="M 47.09225 309.8635 
L 47.09225 23.36505 
" style="fill:none;stroke:#000000;stroke-linecap:square;stroke-linejoin:miter;stroke-width:0.8;"/>
   </g>
   <g id="patch_4">
    <path d="M 447.48 309.8635 
L 447.48 23.36505 
" style="fill:none;stroke:#000000;stroke-linecap:square;stroke-linejoin:miter;stroke-width:0.8;"/>
   </g>
   <g id="patch_5">
    <path d="M 47.09225 309.8635 
L 447.48 309.8635 
" style="fill:none;stroke:#000000;stroke-linecap:square;stroke-linejoin:miter;stroke-width:0.8;"/>
   </g>
   <g id="patch_6">
    <path d="M 47.09225 23.36505 
L 447.48 23.36505 
" style="fill:none;stroke:#000000;stroke-linecap:square;stroke-linejoin:miter;stroke-width:0.8;"/>
   </g>
   <g id="text_18">
    <!-- Monthly gload trend -->
    <defs>
     <path d="M 54.890625 33.015625 
L 54.890625 0 
L 45.90625 0 
L 45.90625 32.71875 
Q 45.90625 40.484375 42.875 44.328125 
Q 39.84375 48.1875 33.796875 48.1875 
Q 26.515625 48.1875 22.3125 43.546875 
Q 18.109375 38.921875 18.109375 30.90625 
L 18.109375 0 
L 9.078125 0 
L 9.078125 54.6875 
L 18.109375 54.6875 
L 18.109375 46.1875 
Q 21.34375 51.125 25.703125 53.5625 
Q 30.078125 56 35.796875 56 
Q 45.21875 56 50.046875 50.171875 
Q 54.890625 44.34375 54.890625 33.015625 
z
" id="DejaVuSans-6e"/>
     <path d="M 54.890625 33.015625 
L 54.890625 0 
L 45.90625 0 
L 45.90625 32.71875 
Q 45.90625 40.484375 42.875 44.328125 
Q 39.84375 48.1875 33.796875 48.1875 
Q 26.515625 48.1875 22.3125 43.546875 
Q 18.109375 38.921875 18.109375 30.90625 
L 18.109375 0 
L 9.078125 0 
L 9.078125 75.984375 
L 18.109375 75.984375 
L 18.109375 46.1875 
Q 21.34375 51.125 25.703125 53.5625 
Q 30.078125 56 35.796875 56 
Q 45.21875 56 50.046875 50.171875 
Q 54.890625 44.34375 54.890625 33.015625 
z
" id="DejaVuSans-68"/>
     <path d="M 32.171875 -5.078125 
Q 28.375 -14.84375 24.75 -17.8125 
Q 21.140625 -20.796875 15.09375 -20.796875 
L 7.90625 -20.796875 
L 7.90625 -13.28125 
L 13.1875 -13.28125 
Q 16.890625 -13.28125 18.9375 -11.515625 
Q 21 -9.765625 23.484375 -3.21875 
L 25.09375 0.875 
L 2.984375 54.6875 
L 12.5 54.6875 
L 29.59375 11.921875 
L 46.6875 54.6875 
L 56.203125 54.6875 
z
" id="DejaVuSans-79"/>
     <path d="M 45.40625 27.984375 
Q 45.40625 37.75 41.375 43.109375 
Q 37.359375 48.484375 30.078125 48.484375 
Q 22.859375 48.484375 18.828125 43.109375 
Q 14.796875 37.75 14.796875 27.984375 
Q 14.796875 18.265625 18.828125 12.890625 
Q 22.859375 7.515625 30.078125 7.515625 
Q 37.359375 7.515625 41.375 12.890625 
Q 45.40625 18.265625 45.40625 27.984375 
z
M 54.390625 6.78125 
Q 54.390625 -7.171875 48.1875 -13.984375 
Q 42 -20.796875 29.203125 -20.796875 
Q 24.46875 -20.796875 20.265625 -20.09375 
Q 16.0625 -19.390625 12.109375 -17.921875 
L 12.109375 -9.1875 
Q 16.0625 -11.328125 19.921875 -12.34375 
Q 23.78125 -13.375 27.78125 -13.375 
Q 36.625 -13.375 41.015625 -8.765625 
Q 45.40625 -4.15625 45.40625 5.171875 
L 45.40625 9.625 
Q 42.625 4.78125 38.28125 2.390625 
Q 33.9375 0 27.875 0 
Q 17.828125 0 11.671875 7.65625 
Q 5.515625 15.328125 5.515625 27.984375 
Q 5.515625 40.671875 11.671875 48.328125 
Q 17.828125 56 27.875 56 
Q 33.9375 56 38.28125 53.609375 
Q 42.625 51.21875 45.40625 46.390625 
L 45.40625 54.6875 
L 54.390625 54.6875 
z
" id="DejaVuSans-67"/>
    </defs>
    <g transform="translate(186.6955 17.36505)scale(0.12 -0.12)">
     <use xlink:href="#DejaVuSans-4d"/>
     <use x="86.279297" xlink:href="#DejaVuSans-6f"/>
     <use x="147.460938" xlink:href="#DejaVuSans-6e"/>
     <use x="210.839844" xlink:href="#DejaVuSans-74"/>
     <use x="250.048828" xlink:href="#DejaVuSans-68"/>
     <use x="313.427734" xlink:href="#DejaVuSans-6c"/>
     <use x="341.210938" xlink:href="#DejaVuSans-79"/>
     <use x="400.390625" xlink:href="#DejaVuSans-20"/>
     <use x="432.177734" xlink:href="#DejaVuSans-67"/>
     <use x="495.654297" xlink:href="#DejaVuSans-6c"/>
     <use x="523.4375" xlink:href="#DejaVuSans-6f"/>
     <use x="584.619141" xlink:href="#DejaVuSans-61"/>
     <use x="645.898438" xlink:href="#DejaVuSans-64"/>
     <use x="709.375" xlink:href="#DejaVuSans-20"/>
     <use x="741.162109" xlink:href="#DejaVuSans-74"/>
     <use x="780.371094" xlink:href="#DejaVuSans-72"/>
     <use x="821.453125" xlink:href="#DejaVuSans-65"/>
     <use x="882.976562" xlink:href="#DejaVuSans-6e"/>
     <use x="946.355469" xlink:href="#DejaVuSans-64"/>
    </g>
   </g>
  </g>
 </g>
 <defs>
  <clipPath id="p6646f73384">
   <rect height="286.49845" width="400.38775" x="47.09225" y="23.36505"/>
  </clipPath>
 </defs>
</svg>
