<?xml version="1.0" encoding="utf-8" standalone="no"?>
<!DOCTYPE svg PUBLIC "-//W3C//DTD SVG 1.1//EN"
  "http://www.w3.org/Graphics/SVG/1.1/DTD/svg11.dtd">
<!-- Created with matplotlib (http://matplotlib.org/) -->
<svg height="345.6pt" version="1.1" viewBox="0 0 460.8 345.6" width="460.8pt" xmlns="http://www.w3.org/2000/svg" xmlns:xlink="http://www.w3.org/1999/xlink">
 <defs>
  <style type="text/css">
*{stroke-linecap:butt;stroke-linejoin:round;}
  </style>
 </defs>
 <g id="figure_1">
  <g id="patch_1">
   <path d="M 0 345.6 
L 460.8 345.6 
L 460.8 0 
L 0 0 
z
" style="fill:none;"/>
  </g>
  <g id="axes_1">
   <g id="patch_2">
    <path d="M 42.51125 309.8635 
L 447.48 309.8635 
L 447.48 23.36505 
L 42.51125 23.36505 
z
" style="fill:none;"/>
   </g>
   <g id="PolyCollection_1">
    <path clip-path="url(#p2a9c9bf011)" d="M 42.51125 56.056248 
L 42.51125 309.8635 
L 44.815165 309.8635 
L 47.04476 309.8635 
L 49.348674 309.8635 
L 51.652589 309.8635 
L 53.882184 309.8635 
L 56.186099 309.8635 
L 58.415693 309.8635 
L 60.719608 309.8635 
L 63.023523 309.8635 
L 65.178798 309.8635 
L 67.482713 309.8635 
L 69.712308 309.8635 
L 72.016222 309.8635 
L 74.245817 309.8635 
L 76.549732 309.8635 
L 78.853647 309.8635 
L 81.083241 309.8635 
L 83.387156 309.8635 
L 85.616751 309.8635 
L 87.920666 309.8635 
L 90.22458 309.8635 
L 92.305536 309.8635 
L 94.60945 309.8635 
L 96.839045 309.8635 
L 99.14296 309.8635 
L 101.372555 309.8635 
L 103.67647 309.8635 
L 105.980384 309.8635 
L 108.209979 309.8635 
L 110.513894 309.8635 
L 112.743489 309.8635 
L 115.047403 309.8635 
L 117.351318 309.8635 
L 119.432273 309.8635 
L 121.736188 309.8635 
L 123.965783 309.8635 
L 126.269698 309.8635 
L 128.499293 309.8635 
L 130.803207 309.8635 
L 133.107122 309.8635 
L 135.336717 309.8635 
L 137.640632 309.8635 
L 139.870226 309.8635 
L 142.174141 309.8635 
L 144.478056 309.8635 
L 146.559011 309.8635 
L 148.862926 309.8635 
L 151.092521 309.8635 
L 153.396435 309.8635 
L 155.62603 309.8635 
L 157.929945 309.8635 
L 160.23386 309.8635 
L 162.463455 309.8635 
L 164.767369 309.8635 
L 166.996964 309.8635 
L 169.300879 309.8635 
L 171.604794 142.031524 
L 173.760069 309.8635 
L 176.063983 309.8635 
L 178.293578 309.8635 
L 180.597493 309.8635 
L 182.827088 309.8635 
L 185.131002 309.8635 
L 187.434917 309.8635 
L 189.664512 309.8635 
L 191.968427 309.8635 
L 194.198022 309.8635 
L 196.501936 309.8635 
L 198.805851 154.902074 
L 200.886806 147.179744 
L 203.190721 162.109582 
L 205.420316 309.8635 
L 207.724231 309.8635 
L 209.953825 309.8635 
L 212.25774 309.8635 
L 214.561655 309.8635 
L 216.79125 139.972236 
L 219.095164 309.8635 
L 221.324759 309.8635 
L 223.628674 201.750877 
L 225.932589 309.8635 
L 228.013544 309.8635 
L 230.317459 309.8635 
L 232.547054 309.8635 
L 234.850968 309.8635 
L 237.080563 309.8635 
L 239.384478 309.8635 
L 241.688393 309.8635 
L 243.917987 309.8635 
L 246.221902 142.546346 
L 248.451497 309.8635 
L 250.755412 152.842786 
L 253.059326 309.8635 
L 255.140282 309.8635 
L 257.444196 309.8635 
L 259.673791 309.8635 
L 261.977706 309.8635 
L 264.207301 309.8635 
L 266.511216 309.8635 
L 268.81513 309.8635 
L 271.044725 309.8635 
L 273.34864 309.8635 
L 275.578235 309.8635 
L 277.882149 309.8635 
L 280.186064 309.8635 
L 282.341339 309.8635 
L 284.645254 229.036444 
L 286.874849 309.8635 
L 289.178764 309.8635 
L 291.408358 200.206411 
L 293.712273 214.621428 
L 296.016188 147.694566 
L 298.245783 147.694566 
L 300.549697 200.721233 
L 302.779292 309.8635 
L 305.083207 202.780521 
L 307.387122 194.028547 
L 309.468077 193.513725 
L 311.771992 200.206411 
L 314.001587 198.661945 
L 316.305501 309.8635 
L 318.535096 309.8635 
L 320.839011 309.8635 
L 323.142926 309.8635 
L 325.37252 309.8635 
L 327.676435 309.8635 
L 329.90603 309.8635 
L 332.209945 197.632301 
L 334.513859 198.661945 
L 336.594815 309.8635 
L 338.898729 309.8635 
L 341.128324 309.8635 
L 343.432239 309.8635 
L 345.661834 309.8635 
L 347.965749 309.8635 
L 350.269663 197.117479 
L 352.499258 309.8635 
L 354.803173 270.222205 
L 357.032768 309.8635 
L 359.336682 309.8635 
L 361.640597 309.8635 
L 363.721552 309.8635 
L 366.025467 309.8635 
L 368.255062 309.8635 
L 370.558977 309.8635 
L 372.788572 309.8635 
L 375.092486 309.8635 
L 377.396401 235.72913 
L 379.625996 234.184664 
L 381.929911 220.28447 
L 384.159505 309.8635 
L 386.46342 309.8635 
L 388.767335 309.8635 
L 390.92261 309.8635 
L 393.226525 309.8635 
L 395.456119 309.8635 
L 397.760034 309.8635 
L 399.989629 309.8635 
L 402.293544 280.518645 
L 404.597458 153.87243 
L 406.827053 235.72913 
L 409.130968 236.243952 
L 411.360563 309.8635 
L 413.664478 309.8635 
L 415.968392 309.8635 
L 418.049348 309.8635 
L 420.353262 309.8635 
L 422.582857 309.8635 
L 424.886772 309.8635 
L 427.116367 309.8635 
L 429.420281 309.8635 
L 431.724196 309.8635 
L 433.953791 309.8635 
L 436.257706 309.8635 
L 438.487301 309.8635 
L 440.791215 309.8635 
L 443.09513 309.8635 
L 445.176085 309.8635 
L 447.48 309.8635 
L 447.48 52.967316 
L 447.48 52.967316 
L 445.176085 53.482138 
L 443.09513 59.660002 
L 440.791215 58.630358 
L 438.487301 70.986086 
L 436.257706 65.837866 
L 433.953791 73.045374 
L 431.724196 76.134306 
L 429.420281 78.708416 
L 427.116367 76.134306 
L 424.886772 74.58984 
L 422.582857 70.986086 
L 420.353262 60.174824 
L 418.049348 67.382332 
L 415.968392 60.174824 
L 413.664478 53.99696 
L 411.360563 64.2934 
L 409.130968 67.897154 
L 406.827053 68.926798 
L 404.597458 75.104662 
L 402.293544 72.530552 
L 399.989629 73.045374 
L 397.760034 69.44162 
L 395.456119 73.560196 
L 393.226525 70.986086 
L 390.92261 53.482138 
L 388.767335 52.967316 
L 386.46342 53.482138 
L 384.159505 52.967316 
L 381.929911 68.926798 
L 379.625996 75.104662 
L 377.396401 72.01573 
L 375.092486 75.619484 
L 372.788572 73.045374 
L 370.558977 67.897154 
L 368.255062 66.86751 
L 366.025467 68.926798 
L 363.721552 64.2934 
L 361.640597 56.57107 
L 359.336682 55.541426 
L 357.032768 58.115536 
L 354.803173 63.778578 
L 352.499258 71.500908 
L 350.269663 71.500908 
L 347.965749 75.619484 
L 345.661834 71.500908 
L 343.432239 69.44162 
L 341.128324 58.630358 
L 338.898729 61.71929 
L 336.594815 57.085892 
L 334.513859 54.511782 
L 332.209945 45.759808 
L 329.90603 58.630358 
L 327.676435 64.2934 
L 325.37252 68.411976 
L 323.142926 72.530552 
L 320.839011 73.560196 
L 318.535096 71.500908 
L 316.305501 66.352688 
L 314.001587 64.2934 
L 311.771992 57.085892 
L 309.468077 51.42285 
L 307.387122 45.244986 
L 305.083207 49.363562 
L 302.779292 63.263756 
L 300.549697 65.323044 
L 298.245783 74.075018 
L 296.016188 76.134306 
L 293.712273 75.619484 
L 291.408358 72.530552 
L 289.178764 67.897154 
L 286.874849 58.115536 
L 284.645254 56.056248 
L 282.341339 56.056248 
L 280.186064 54.511782 
L 277.882149 52.967316 
L 275.578235 59.660002 
L 273.34864 62.234112 
L 271.044725 72.530552 
L 268.81513 73.045374 
L 266.511216 74.58984 
L 264.207301 74.58984 
L 261.977706 150.783498 
L 259.673791 76.649128 
L 257.444196 63.778578 
L 255.140282 47.819096 
L 253.059326 48.333918 
L 250.755412 51.42285 
L 248.451497 46.27463 
L 246.221902 57.600714 
L 243.917987 66.86751 
L 241.688393 66.86751 
L 239.384478 66.352688 
L 237.080563 160.565116 
L 234.850968 74.58984 
L 232.547054 60.174824 
L 230.317459 55.026604 
L 228.013544 53.99696 
L 225.932589 56.57107 
L 223.628674 50.393206 
L 221.324759 60.174824 
L 219.095164 64.2934 
L 216.79125 65.323044 
L 214.561655 66.352688 
L 212.25774 69.44162 
L 209.953825 69.956442 
L 207.724231 179.098709 
L 205.420316 61.204468 
L 203.190721 53.99696 
L 200.886806 52.967316 
L 198.805851 49.363562 
L 196.501936 46.789452 
L 194.198022 60.174824 
L 191.968427 65.323044 
L 189.664512 69.44162 
L 187.434917 73.560196 
L 185.131002 74.58984 
L 182.827088 70.471264 
L 180.597493 61.204468 
L 178.293578 59.660002 
L 176.063983 55.026604 
L 173.760069 50.393206 
L 171.604794 49.878384 
L 169.300879 48.333918 
L 166.996964 55.026604 
L 164.767369 65.837866 
L 162.463455 64.808222 
L 160.23386 67.382332 
L 157.929945 68.411976 
L 155.62603 65.837866 
L 153.396435 65.837866 
L 151.092521 56.056248 
L 148.862926 50.908028 
L 146.559011 48.333918 
L 144.478056 41.641231 
L 142.174141 43.700519 
L 139.870226 46.27463 
L 137.640632 57.085892 
L 135.336717 61.204468 
L 133.107122 65.323044 
L 130.803207 69.44162 
L 128.499293 66.86751 
L 126.269698 61.71929 
L 123.965783 53.482138 
L 121.736188 47.304274 
L 119.432273 76.649128 
L 117.351318 48.333918 
L 115.047403 44.215342 
L 112.743489 44.730164 
L 110.513894 55.026604 
L 108.209979 59.660002 
L 105.980384 64.808222 
L 103.67647 66.352688 
L 101.372555 61.71929 
L 99.14296 63.263756 
L 96.839045 53.99696 
L 94.60945 49.363562 
L 92.305536 46.789452 
L 90.22458 43.700519 
L 87.920666 39.581943 
L 85.616751 37.007833 
L 83.387156 57.600714 
L 81.083241 55.026604 
L 78.853647 63.263756 
L 76.549732 61.204468 
L 74.245817 62.748934 
L 72.016222 61.204468 
L 69.712308 56.57107 
L 67.482713 49.363562 
L 65.178798 41.641231 
L 63.023523 41.126409 
L 60.719608 38.037477 
L 58.415693 39.067121 
L 56.186099 55.541426 
L 53.882184 57.600714 
L 51.652589 59.14518 
L 49.348674 60.689646 
L 47.04476 62.748934 
L 44.815165 53.99696 
L 42.51125 56.056248 
z
" style="fill:#808080;fill-opacity:0.3;"/>
   </g>
   <g id="PolyCollection_2">
    <path clip-path="url(#p2a9c9bf011)" d="M 42.51125 309.8635 
L 42.51125 309.8635 
L 44.815165 309.8635 
L 47.04476 309.8635 
L 49.348674 132.249906 
L 51.652589 130.70544 
L 53.882184 130.70544 
L 56.186099 309.8635 
L 58.415693 309.8635 
L 60.719608 309.8635 
L 63.023523 309.8635 
L 65.178798 309.8635 
L 67.482713 131.735084 
L 69.712308 131.735084 
L 72.016222 309.8635 
L 74.245817 309.8635 
L 76.549732 131.863789 
L 78.853647 131.735084 
L 81.083241 309.348678 
L 83.387156 309.8635 
L 85.616751 128.260035 
L 87.920666 130.70544 
L 90.22458 110.756087 
L 92.305536 113.201491 
L 94.60945 309.8635 
L 96.839045 309.8635 
L 99.14296 309.8635 
L 101.372555 309.8635 
L 103.67647 288.884503 
L 105.980384 131.735084 
L 108.209979 309.8635 
L 110.513894 309.8635 
L 112.743489 309.8635 
L 115.047403 309.8635 
L 117.351318 309.8635 
L 119.432273 309.8635 
L 121.736188 309.8635 
L 123.965783 309.8635 
L 126.269698 309.8635 
L 128.499293 309.8635 
L 130.803207 134.309194 
L 133.107122 126.586864 
L 135.336717 104.449517 
L 137.640632 309.8635 
L 139.870226 121.438643 
L 142.174141 116.805245 
L 144.478056 124.012753 
L 146.559011 124.527575 
L 148.862926 309.8635 
L 151.092521 127.230391 
L 153.396435 309.8635 
L 155.62603 144.605634 
L 157.929945 127.873919 
L 160.23386 97.242009 
L 162.463455 125.814631 
L 164.767369 309.8635 
L 166.996964 124.141459 
L 169.300879 99.172591 
L 171.604794 81.797348 
L 173.760069 104.192106 
L 176.063983 110.36997 
L 178.293578 309.8635 
L 180.597493 283.221461 
L 182.827088 309.8635 
L 185.131002 309.8635 
L 187.434917 159.02065 
L 189.664512 112.171847 
L 191.968427 309.8635 
L 194.198022 108.696799 
L 196.501936 95.697543 
L 198.805851 101.360585 
L 200.886806 104.0634 
L 203.190721 98.400358 
L 205.420316 309.8635 
L 207.724231 309.8635 
L 209.953825 309.8635 
L 212.25774 111.785731 
L 214.561655 99.430002 
L 216.79125 106.122689 
L 219.095164 309.8635 
L 221.324759 309.8635 
L 223.628674 137.398126 
L 225.932589 309.8635 
L 228.013544 309.8635 
L 230.317459 115.51819 
L 232.547054 309.8635 
L 234.850968 309.8635 
L 237.080563 309.8635 
L 239.384478 309.8635 
L 241.688393 140.744469 
L 243.917987 309.8635 
L 246.221902 76.649128 
L 248.451497 309.8635 
L 250.755412 113.845019 
L 253.059326 309.8635 
L 255.140282 309.8635 
L 257.444196 309.8635 
L 259.673791 309.8635 
L 261.977706 309.8635 
L 264.207301 309.8635 
L 266.511216 309.8635 
L 268.81513 309.8635 
L 271.044725 200.206411 
L 273.34864 309.8635 
L 275.578235 309.8635 
L 277.882149 309.8635 
L 280.186064 127.101686 
L 282.341339 136.368482 
L 284.645254 122.468287 
L 286.874849 125.042397 
L 289.178764 309.8635 
L 291.408358 163.267932 
L 293.712273 137.912948 
L 296.016188 124.527575 
L 298.245783 124.527575 
L 300.549697 142.160229 
L 302.779292 309.8635 
L 305.083207 148.209388 
L 307.387122 122.596993 
L 309.468077 118.349711 
L 311.771992 96.855892 
L 314.001587 129.289679 
L 316.305501 309.8635 
L 318.535096 146.664922 
L 320.839011 199.176767 
L 323.142926 286.439098 
L 325.37252 199.691589 
L 327.676435 197.117479 
L 329.90603 309.8635 
L 332.209945 138.041653 
L 334.513859 141.645407 
L 336.594815 260.311881 
L 338.898729 309.8635 
L 341.128324 309.8635 
L 343.432239 309.8635 
L 345.661834 193.513725 
L 347.965749 193.513725 
L 350.269663 158.763239 
L 352.499258 174.465311 
L 354.803173 145.635278 
L 357.032768 309.8635 
L 359.336682 233.15502 
L 361.640597 309.8635 
L 363.721552 231.610554 
L 366.025467 309.8635 
L 368.255062 309.8635 
L 370.558977 309.8635 
L 372.788572 196.602657 
L 375.092486 196.602657 
L 377.396401 199.691589 
L 379.625996 159.149356 
L 381.929911 144.219517 
L 384.159505 309.8635 
L 386.46342 197.117479 
L 388.767335 228.521622 
L 390.92261 234.184664 
L 393.226525 294.41884 
L 395.456119 309.8635 
L 397.760034 309.8635 
L 399.989629 233.669842 
L 402.293544 232.125376 
L 404.597458 146.664922 
L 406.827053 146.664922 
L 409.130968 146.664922 
L 411.360563 309.8635 
L 413.664478 230.58091 
L 415.968392 309.8635 
L 418.049348 309.8635 
L 420.353262 309.8635 
L 422.582857 309.8635 
L 424.886772 309.8635 
L 427.116367 309.8635 
L 429.420281 309.8635 
L 431.724196 309.8635 
L 433.953791 309.8635 
L 436.257706 297.893888 
L 438.487301 309.8635 
L 440.791215 283.221461 
L 443.09513 309.8635 
L 445.176085 309.8635 
L 447.48 308.319034 
L 447.48 72.401847 
L 447.48 72.401847 
L 445.176085 108.95421 
L 443.09513 173.178256 
L 440.791215 145.120456 
L 438.487301 153.357608 
L 436.257706 78.064889 
L 433.953791 86.430747 
L 431.724196 86.430747 
L 429.420281 91.578967 
L 427.116367 152.842786 
L 424.886772 309.8635 
L 422.582857 309.8635 
L 420.353262 296.220717 
L 418.049348 137.26942 
L 415.968392 128.646152 
L 413.664478 106.766216 
L 411.360563 219.512237 
L 409.130968 78.193594 
L 406.827053 79.73806 
L 404.597458 83.341814 
L 402.293544 85.787219 
L 399.989629 118.0923 
L 397.760034 297.379066 
L 395.456119 232.640198 
L 393.226525 231.610554 
L 390.92261 134.824016 
L 388.767335 81.025115 
L 386.46342 77.035245 
L 384.159505 125.943336 
L 381.929911 75.619484 
L 379.625996 82.826992 
L 377.396401 82.31217 
L 375.092486 81.797348 
L 372.788572 81.282526 
L 370.558977 200.335117 
L 368.255062 91.836378 
L 366.025467 160.050294 
L 363.721552 82.826992 
L 361.640597 141.516702 
L 359.336682 73.560196 
L 357.032768 147.179744 
L 354.803173 73.045374 
L 352.499258 80.252882 
L 350.269663 79.73806 
L 347.965749 81.282526 
L 345.661834 81.282526 
L 343.432239 150.654793 
L 341.128324 90.034501 
L 338.898729 109.855148 
L 336.594815 139.457414 
L 334.513859 71.500908 
L 332.209945 64.2934 
L 329.90603 104.449517 
L 327.676435 75.104662 
L 325.37252 80.767704 
L 323.142926 82.31217 
L 320.839011 82.31217 
L 318.535096 80.252882 
L 316.305501 172.019906 
L 314.001587 74.075018 
L 311.771992 70.471264 
L 309.468077 64.2934 
L 307.387122 62.748934 
L 305.083207 68.926798 
L 302.779292 77.678772 
L 300.549697 77.16395 
L 298.245783 80.767704 
L 296.016188 84.371458 
L 293.712273 81.797348 
L 291.408358 80.252882 
L 289.178764 83.213109 
L 286.874849 76.649128 
L 284.645254 72.530552 
L 282.341339 70.471264 
L 280.186064 71.500908 
L 277.882149 75.233368 
L 275.578235 182.702463 
L 273.34864 89.004857 
L 271.044725 78.708416 
L 268.81513 81.668643 
L 266.511216 82.31217 
L 264.207301 309.8635 
L 261.977706 309.8635 
L 259.673791 309.8635 
L 257.444196 309.8635 
L 255.140282 123.111815 
L 253.059326 65.194339 
L 250.755412 65.323044 
L 248.451497 68.411976 
L 246.221902 67.897154 
L 243.917987 77.16395 
L 241.688393 77.16395 
L 239.384478 309.8635 
L 237.080563 309.8635 
L 234.850968 309.8635 
L 232.547054 101.746701 
L 230.317459 68.411976 
L 228.013544 71.500908 
L 225.932589 67.382332 
L 223.628674 68.411976 
L 221.324759 136.883304 
L 219.095164 74.58984 
L 216.79125 75.619484 
L 214.561655 75.619484 
L 212.25774 77.678772 
L 209.953825 309.8635 
L 207.724231 309.8635 
L 205.420316 102.776345 
L 203.190721 70.986086 
L 200.886806 66.352688 
L 198.805851 67.897154 
L 196.501936 64.808222 
L 194.198022 72.01573 
L 191.968427 79.609355 
L 189.664512 76.134306 
L 187.434917 80.252882 
L 185.131002 82.31217 
L 182.827088 85.401103 
L 180.597493 74.075018 
L 178.293578 77.678772 
L 176.063983 71.500908 
L 173.760069 66.86751 
L 171.604794 60.689646 
L 169.300879 60.689646 
L 166.996964 71.500908 
L 164.767369 145.506572 
L 162.463455 73.045374 
L 160.23386 75.104662 
L 157.929945 75.490779 
L 155.62603 74.075018 
L 153.396435 110.241265 
L 151.092521 85.401103 
L 148.862926 83.341814 
L 146.559011 68.926798 
L 144.478056 67.768449 
L 142.174141 64.2934 
L 139.870226 69.44162 
L 137.640632 74.58984 
L 135.336717 69.44162 
L 133.107122 72.01573 
L 130.803207 75.104662 
L 128.499293 104.706928 
L 126.269698 71.500908 
L 123.965783 80.510293 
L 121.736188 62.748934 
L 119.432273 309.8635 
L 117.351318 79.094533 
L 115.047403 82.826992 
L 112.743489 67.382332 
L 110.513894 82.183465 
L 108.209979 67.768449 
L 105.980384 72.530552 
L 103.67647 74.975957 
L 101.372555 92.093789 
L 99.14296 133.27955 
L 96.839045 78.708416 
L 94.60945 65.837866 
L 92.305536 57.085892 
L 90.22458 54.511782 
L 87.920666 57.085892 
L 85.616751 64.808222 
L 83.387156 115.775601 
L 81.083241 72.530552 
L 78.853647 70.986086 
L 76.549732 70.471264 
L 74.245817 109.082915 
L 72.016222 132.1212 
L 69.712308 82.698287 
L 67.482713 76.134306 
L 65.178798 57.085892 
L 63.023523 84.886281 
L 60.719608 309.8635 
L 58.415693 55.026604 
L 56.186099 66.86751 
L 53.882184 68.411976 
L 51.652589 67.897154 
L 49.348674 70.471264 
L 47.04476 133.665666 
L 44.815165 135.85366 
L 42.51125 309.8635 
z
" style="fill:#808080;fill-opacity:0.6;"/>
   </g>
   <g id="matplotlib.axis_1">
    <g id="xtick_1">
     <g id="line2d_1">
      <path clip-path="url(#p2a9c9bf011)" d="M 60.793928 309.8635 
L 60.793928 23.36505 
" style="fill:none;stroke:#b0b0b0;stroke-linecap:square;stroke-width:0.8;"/>
     </g>
     <g id="line2d_2">
      <defs>
       <path d="M 0 0 
L 0 3.5 
" id="m2428141fc9" style="stroke:#000000;stroke-width:0.8;"/>
      </defs>
      <g>
       <use style="stroke:#000000;stroke-width:0.8;" x="60.793928" xlink:href="#m2428141fc9" y="309.8635"/>
      </g>
     </g>
     <g id="text_1">
      <!-- 2004 -->
      <defs>
       <path d="M 19.1875 8.296875 
L 53.609375 8.296875 
L 53.609375 0 
L 7.328125 0 
L 7.328125 8.296875 
Q 12.9375 14.109375 22.625 23.890625 
Q 32.328125 33.6875 34.8125 36.53125 
Q 39.546875 41.84375 41.421875 45.53125 
Q 43.3125 49.21875 43.3125 52.78125 
Q 43.3125 58.59375 39.234375 62.25 
Q 35.15625 65.921875 28.609375 65.921875 
Q 23.96875 65.921875 18.8125 64.3125 
Q 13.671875 62.703125 7.8125 59.421875 
L 7.8125 69.390625 
Q 13.765625 71.78125 18.9375 73 
Q 24.125 74.21875 28.421875 74.21875 
Q 39.75 74.21875 46.484375 68.546875 
Q 53.21875 62.890625 53.21875 53.421875 
Q 53.21875 48.921875 51.53125 44.890625 
Q 49.859375 40.875 45.40625 35.40625 
Q 44.1875 33.984375 37.640625 27.21875 
Q 31.109375 20.453125 19.1875 8.296875 
z
" id="DejaVuSans-32"/>
       <path d="M 31.78125 66.40625 
Q 24.171875 66.40625 20.328125 58.90625 
Q 16.5 51.421875 16.5 36.375 
Q 16.5 21.390625 20.328125 13.890625 
Q 24.171875 6.390625 31.78125 6.390625 
Q 39.453125 6.390625 43.28125 13.890625 
Q 47.125 21.390625 47.125 36.375 
Q 47.125 51.421875 43.28125 58.90625 
Q 39.453125 66.40625 31.78125 66.40625 
z
M 31.78125 74.21875 
Q 44.046875 74.21875 50.515625 64.515625 
Q 56.984375 54.828125 56.984375 36.375 
Q 56.984375 17.96875 50.515625 8.265625 
Q 44.046875 -1.421875 31.78125 -1.421875 
Q 19.53125 -1.421875 13.0625 8.265625 
Q 6.59375 17.96875 6.59375 36.375 
Q 6.59375 54.828125 13.0625 64.515625 
Q 19.53125 74.21875 31.78125 74.21875 
z
" id="DejaVuSans-30"/>
       <path d="M 37.796875 64.3125 
L 12.890625 25.390625 
L 37.796875 25.390625 
z
M 35.203125 72.90625 
L 47.609375 72.90625 
L 47.609375 25.390625 
L 58.015625 25.390625 
L 58.015625 17.1875 
L 47.609375 17.1875 
L 47.609375 0 
L 37.796875 0 
L 37.796875 17.1875 
L 4.890625 17.1875 
L 4.890625 26.703125 
z
" id="DejaVuSans-34"/>
      </defs>
      <g transform="translate(48.068928 324.461937)scale(0.1 -0.1)">
       <use xlink:href="#DejaVuSans-32"/>
       <use x="63.623047" xlink:href="#DejaVuSans-30"/>
       <use x="127.246094" xlink:href="#DejaVuSans-30"/>
       <use x="190.869141" xlink:href="#DejaVuSans-34"/>
      </g>
     </g>
    </g>
    <g id="xtick_2">
     <g id="line2d_3">
      <path clip-path="url(#p2a9c9bf011)" d="M 115.121723 309.8635 
L 115.121723 23.36505 
" style="fill:none;stroke:#b0b0b0;stroke-linecap:square;stroke-width:0.8;"/>
     </g>
     <g id="line2d_4">
      <g>
       <use style="stroke:#000000;stroke-width:0.8;" x="115.121723" xlink:href="#m2428141fc9" y="309.8635"/>
      </g>
     </g>
     <g id="text_2">
      <!-- 2006 -->
      <defs>
       <path d="M 33.015625 40.375 
Q 26.375 40.375 22.484375 35.828125 
Q 18.609375 31.296875 18.609375 23.390625 
Q 18.609375 15.53125 22.484375 10.953125 
Q 26.375 6.390625 33.015625 6.390625 
Q 39.65625 6.390625 43.53125 10.953125 
Q 47.40625 15.53125 47.40625 23.390625 
Q 47.40625 31.296875 43.53125 35.828125 
Q 39.65625 40.375 33.015625 40.375 
z
M 52.59375 71.296875 
L 52.59375 62.3125 
Q 48.875 64.0625 45.09375 64.984375 
Q 41.3125 65.921875 37.59375 65.921875 
Q 27.828125 65.921875 22.671875 59.328125 
Q 17.53125 52.734375 16.796875 39.40625 
Q 19.671875 43.65625 24.015625 45.921875 
Q 28.375 48.1875 33.59375 48.1875 
Q 44.578125 48.1875 50.953125 41.515625 
Q 57.328125 34.859375 57.328125 23.390625 
Q 57.328125 12.15625 50.6875 5.359375 
Q 44.046875 -1.421875 33.015625 -1.421875 
Q 20.359375 -1.421875 13.671875 8.265625 
Q 6.984375 17.96875 6.984375 36.375 
Q 6.984375 53.65625 15.1875 63.9375 
Q 23.390625 74.21875 37.203125 74.21875 
Q 40.921875 74.21875 44.703125 73.484375 
Q 48.484375 72.75 52.59375 71.296875 
z
" id="DejaVuSans-36"/>
      </defs>
      <g transform="translate(102.396723 324.461937)scale(0.1 -0.1)">
       <use xlink:href="#DejaVuSans-32"/>
       <use x="63.623047" xlink:href="#DejaVuSans-30"/>
       <use x="127.246094" xlink:href="#DejaVuSans-30"/>
       <use x="190.869141" xlink:href="#DejaVuSans-36"/>
      </g>
     </g>
    </g>
    <g id="xtick_3">
     <g id="line2d_5">
      <path clip-path="url(#p2a9c9bf011)" d="M 169.375199 309.8635 
L 169.375199 23.36505 
" style="fill:none;stroke:#b0b0b0;stroke-linecap:square;stroke-width:0.8;"/>
     </g>
     <g id="line2d_6">
      <g>
       <use style="stroke:#000000;stroke-width:0.8;" x="169.375199" xlink:href="#m2428141fc9" y="309.8635"/>
      </g>
     </g>
     <g id="text_3">
      <!-- 2008 -->
      <defs>
       <path d="M 31.78125 34.625 
Q 24.75 34.625 20.71875 30.859375 
Q 16.703125 27.09375 16.703125 20.515625 
Q 16.703125 13.921875 20.71875 10.15625 
Q 24.75 6.390625 31.78125 6.390625 
Q 38.8125 6.390625 42.859375 10.171875 
Q 46.921875 13.96875 46.921875 20.515625 
Q 46.921875 27.09375 42.890625 30.859375 
Q 38.875 34.625 31.78125 34.625 
z
M 21.921875 38.8125 
Q 15.578125 40.375 12.03125 44.71875 
Q 8.5 49.078125 8.5 55.328125 
Q 8.5 64.0625 14.71875 69.140625 
Q 20.953125 74.21875 31.78125 74.21875 
Q 42.671875 74.21875 48.875 69.140625 
Q 55.078125 64.0625 55.078125 55.328125 
Q 55.078125 49.078125 51.53125 44.71875 
Q 48 40.375 41.703125 38.8125 
Q 48.828125 37.15625 52.796875 32.3125 
Q 56.78125 27.484375 56.78125 20.515625 
Q 56.78125 9.90625 50.3125 4.234375 
Q 43.84375 -1.421875 31.78125 -1.421875 
Q 19.734375 -1.421875 13.25 4.234375 
Q 6.78125 9.90625 6.78125 20.515625 
Q 6.78125 27.484375 10.78125 32.3125 
Q 14.796875 37.15625 21.921875 38.8125 
z
M 18.3125 54.390625 
Q 18.3125 48.734375 21.84375 45.5625 
Q 25.390625 42.390625 31.78125 42.390625 
Q 38.140625 42.390625 41.71875 45.5625 
Q 45.3125 48.734375 45.3125 54.390625 
Q 45.3125 60.0625 41.71875 63.234375 
Q 38.140625 66.40625 31.78125 66.40625 
Q 25.390625 66.40625 21.84375 63.234375 
Q 18.3125 60.0625 18.3125 54.390625 
z
" id="DejaVuSans-38"/>
      </defs>
      <g transform="translate(156.650199 324.461937)scale(0.1 -0.1)">
       <use xlink:href="#DejaVuSans-32"/>
       <use x="63.623047" xlink:href="#DejaVuSans-30"/>
       <use x="127.246094" xlink:href="#DejaVuSans-30"/>
       <use x="190.869141" xlink:href="#DejaVuSans-38"/>
      </g>
     </g>
    </g>
    <g id="xtick_4">
     <g id="line2d_7">
      <path clip-path="url(#p2a9c9bf011)" d="M 223.702994 309.8635 
L 223.702994 23.36505 
" style="fill:none;stroke:#b0b0b0;stroke-linecap:square;stroke-width:0.8;"/>
     </g>
     <g id="line2d_8">
      <g>
       <use style="stroke:#000000;stroke-width:0.8;" x="223.702994" xlink:href="#m2428141fc9" y="309.8635"/>
      </g>
     </g>
     <g id="text_4">
      <!-- 2010 -->
      <defs>
       <path d="M 12.40625 8.296875 
L 28.515625 8.296875 
L 28.515625 63.921875 
L 10.984375 60.40625 
L 10.984375 69.390625 
L 28.421875 72.90625 
L 38.28125 72.90625 
L 38.28125 8.296875 
L 54.390625 8.296875 
L 54.390625 0 
L 12.40625 0 
z
" id="DejaVuSans-31"/>
      </defs>
      <g transform="translate(210.977994 324.461937)scale(0.1 -0.1)">
       <use xlink:href="#DejaVuSans-32"/>
       <use x="63.623047" xlink:href="#DejaVuSans-30"/>
       <use x="127.246094" xlink:href="#DejaVuSans-31"/>
       <use x="190.869141" xlink:href="#DejaVuSans-30"/>
      </g>
     </g>
    </g>
    <g id="xtick_5">
     <g id="line2d_9">
      <path clip-path="url(#p2a9c9bf011)" d="M 277.956469 309.8635 
L 277.956469 23.36505 
" style="fill:none;stroke:#b0b0b0;stroke-linecap:square;stroke-width:0.8;"/>
     </g>
     <g id="line2d_10">
      <g>
       <use style="stroke:#000000;stroke-width:0.8;" x="277.956469" xlink:href="#m2428141fc9" y="309.8635"/>
      </g>
     </g>
     <g id="text_5">
      <!-- 2012 -->
      <g transform="translate(265.231469 324.461937)scale(0.1 -0.1)">
       <use xlink:href="#DejaVuSans-32"/>
       <use x="63.623047" xlink:href="#DejaVuSans-30"/>
       <use x="127.246094" xlink:href="#DejaVuSans-31"/>
       <use x="190.869141" xlink:href="#DejaVuSans-32"/>
      </g>
     </g>
    </g>
    <g id="xtick_6">
     <g id="line2d_11">
      <path clip-path="url(#p2a9c9bf011)" d="M 332.284265 309.8635 
L 332.284265 23.36505 
" style="fill:none;stroke:#b0b0b0;stroke-linecap:square;stroke-width:0.8;"/>
     </g>
     <g id="line2d_12">
      <g>
       <use style="stroke:#000000;stroke-width:0.8;" x="332.284265" xlink:href="#m2428141fc9" y="309.8635"/>
      </g>
     </g>
     <g id="text_6">
      <!-- 2014 -->
      <g transform="translate(319.559265 324.461937)scale(0.1 -0.1)">
       <use xlink:href="#DejaVuSans-32"/>
       <use x="63.623047" xlink:href="#DejaVuSans-30"/>
       <use x="127.246094" xlink:href="#DejaVuSans-31"/>
       <use x="190.869141" xlink:href="#DejaVuSans-34"/>
      </g>
     </g>
    </g>
    <g id="xtick_7">
     <g id="line2d_13">
      <path clip-path="url(#p2a9c9bf011)" d="M 386.53774 309.8635 
L 386.53774 23.36505 
" style="fill:none;stroke:#b0b0b0;stroke-linecap:square;stroke-width:0.8;"/>
     </g>
     <g id="line2d_14">
      <g>
       <use style="stroke:#000000;stroke-width:0.8;" x="386.53774" xlink:href="#m2428141fc9" y="309.8635"/>
      </g>
     </g>
     <g id="text_7">
      <!-- 2016 -->
      <g transform="translate(373.81274 324.461937)scale(0.1 -0.1)">
       <use xlink:href="#DejaVuSans-32"/>
       <use x="63.623047" xlink:href="#DejaVuSans-30"/>
       <use x="127.246094" xlink:href="#DejaVuSans-31"/>
       <use x="190.869141" xlink:href="#DejaVuSans-36"/>
      </g>
     </g>
    </g>
    <g id="xtick_8">
     <g id="line2d_15">
      <path clip-path="url(#p2a9c9bf011)" d="M 440.865535 309.8635 
L 440.865535 23.36505 
" style="fill:none;stroke:#b0b0b0;stroke-linecap:square;stroke-width:0.8;"/>
     </g>
     <g id="line2d_16">
      <g>
       <use style="stroke:#000000;stroke-width:0.8;" x="440.865535" xlink:href="#m2428141fc9" y="309.8635"/>
      </g>
     </g>
     <g id="text_8">
      <!-- 2018 -->
      <g transform="translate(428.140535 324.461937)scale(0.1 -0.1)">
       <use xlink:href="#DejaVuSans-32"/>
       <use x="63.623047" xlink:href="#DejaVuSans-30"/>
       <use x="127.246094" xlink:href="#DejaVuSans-31"/>
       <use x="190.869141" xlink:href="#DejaVuSans-38"/>
      </g>
     </g>
    </g>
    <g id="text_9">
     <!-- Date -->
     <defs>
      <path d="M 19.671875 64.796875 
L 19.671875 8.109375 
L 31.59375 8.109375 
Q 46.6875 8.109375 53.6875 14.9375 
Q 60.6875 21.78125 60.6875 36.53125 
Q 60.6875 51.171875 53.6875 57.984375 
Q 46.6875 64.796875 31.59375 64.796875 
z
M 9.8125 72.90625 
L 30.078125 72.90625 
Q 51.265625 72.90625 61.171875 64.09375 
Q 71.09375 55.28125 71.09375 36.53125 
Q 71.09375 17.671875 61.125 8.828125 
Q 51.171875 0 30.078125 0 
L 9.8125 0 
z
" id="DejaVuSans-44"/>
      <path d="M 34.28125 27.484375 
Q 23.390625 27.484375 19.1875 25 
Q 14.984375 22.515625 14.984375 16.5 
Q 14.984375 11.71875 18.140625 8.90625 
Q 21.296875 6.109375 26.703125 6.109375 
Q 34.1875 6.109375 38.703125 11.40625 
Q 43.21875 16.703125 43.21875 25.484375 
L 43.21875 27.484375 
z
M 52.203125 31.203125 
L 52.203125 0 
L 43.21875 0 
L 43.21875 8.296875 
Q 40.140625 3.328125 35.546875 0.953125 
Q 30.953125 -1.421875 24.3125 -1.421875 
Q 15.921875 -1.421875 10.953125 3.296875 
Q 6 8.015625 6 15.921875 
Q 6 25.140625 12.171875 29.828125 
Q 18.359375 34.515625 30.609375 34.515625 
L 43.21875 34.515625 
L 43.21875 35.40625 
Q 43.21875 41.609375 39.140625 45 
Q 35.0625 48.390625 27.6875 48.390625 
Q 23 48.390625 18.546875 47.265625 
Q 14.109375 46.140625 10.015625 43.890625 
L 10.015625 52.203125 
Q 14.9375 54.109375 19.578125 55.046875 
Q 24.21875 56 28.609375 56 
Q 40.484375 56 46.34375 49.84375 
Q 52.203125 43.703125 52.203125 31.203125 
z
" id="DejaVuSans-61"/>
      <path d="M 18.3125 70.21875 
L 18.3125 54.6875 
L 36.8125 54.6875 
L 36.8125 47.703125 
L 18.3125 47.703125 
L 18.3125 18.015625 
Q 18.3125 11.328125 20.140625 9.421875 
Q 21.96875 7.515625 27.59375 7.515625 
L 36.8125 7.515625 
L 36.8125 0 
L 27.59375 0 
Q 17.1875 0 13.234375 3.875 
Q 9.28125 7.765625 9.28125 18.015625 
L 9.28125 47.703125 
L 2.6875 47.703125 
L 2.6875 54.6875 
L 9.28125 54.6875 
L 9.28125 70.21875 
z
" id="DejaVuSans-74"/>
      <path d="M 56.203125 29.59375 
L 56.203125 25.203125 
L 14.890625 25.203125 
Q 15.484375 15.921875 20.484375 11.0625 
Q 25.484375 6.203125 34.421875 6.203125 
Q 39.59375 6.203125 44.453125 7.46875 
Q 49.3125 8.734375 54.109375 11.28125 
L 54.109375 2.78125 
Q 49.265625 0.734375 44.1875 -0.34375 
Q 39.109375 -1.421875 33.890625 -1.421875 
Q 20.796875 -1.421875 13.15625 6.1875 
Q 5.515625 13.8125 5.515625 26.8125 
Q 5.515625 40.234375 12.765625 48.109375 
Q 20.015625 56 32.328125 56 
Q 43.359375 56 49.78125 48.890625 
Q 56.203125 41.796875 56.203125 29.59375 
z
M 47.21875 32.234375 
Q 47.125 39.59375 43.09375 43.984375 
Q 39.0625 48.390625 32.421875 48.390625 
Q 24.90625 48.390625 20.390625 44.140625 
Q 15.875 39.890625 15.1875 32.171875 
z
" id="DejaVuSans-65"/>
     </defs>
     <g transform="translate(233.044844 338.140062)scale(0.1 -0.1)">
      <use xlink:href="#DejaVuSans-44"/>
      <use x="77.001953" xlink:href="#DejaVuSans-61"/>
      <use x="138.28125" xlink:href="#DejaVuSans-74"/>
      <use x="177.490234" xlink:href="#DejaVuSans-65"/>
     </g>
    </g>
   </g>
   <g id="matplotlib.axis_2">
    <g id="ytick_1">
     <g id="line2d_17">
      <path clip-path="url(#p2a9c9bf011)" d="M 42.51125 309.8635 
L 447.48 309.8635 
" style="fill:none;stroke:#b0b0b0;stroke-linecap:square;stroke-width:0.8;"/>
     </g>
     <g id="line2d_18">
      <defs>
       <path d="M 0 0 
L -3.5 0 
" id="m02aad89397" style="stroke:#000000;stroke-width:0.8;"/>
      </defs>
      <g>
       <use style="stroke:#000000;stroke-width:0.8;" x="42.51125" xlink:href="#m02aad89397" y="309.8635"/>
      </g>
     </g>
     <g id="text_10">
      <!-- 0 -->
      <g transform="translate(29.14875 313.662719)scale(0.1 -0.1)">
       <use xlink:href="#DejaVuSans-30"/>
      </g>
     </g>
    </g>
    <g id="ytick_2">
     <g id="line2d_19">
      <path clip-path="url(#p2a9c9bf011)" d="M 42.51125 258.381299 
L 447.48 258.381299 
" style="fill:none;stroke:#b0b0b0;stroke-linecap:square;stroke-width:0.8;"/>
     </g>
     <g id="line2d_20">
      <g>
       <use style="stroke:#000000;stroke-width:0.8;" x="42.51125" xlink:href="#m02aad89397" y="258.381299"/>
      </g>
     </g>
     <g id="text_11">
      <!-- 100 -->
      <g transform="translate(16.42375 262.180517)scale(0.1 -0.1)">
       <use xlink:href="#DejaVuSans-31"/>
       <use x="63.623047" xlink:href="#DejaVuSans-30"/>
       <use x="127.246094" xlink:href="#DejaVuSans-30"/>
      </g>
     </g>
    </g>
    <g id="ytick_3">
     <g id="line2d_21">
      <path clip-path="url(#p2a9c9bf011)" d="M 42.51125 206.899097 
L 447.48 206.899097 
" style="fill:none;stroke:#b0b0b0;stroke-linecap:square;stroke-width:0.8;"/>
     </g>
     <g id="line2d_22">
      <g>
       <use style="stroke:#000000;stroke-width:0.8;" x="42.51125" xlink:href="#m02aad89397" y="206.899097"/>
      </g>
     </g>
     <g id="text_12">
      <!-- 200 -->
      <g transform="translate(16.42375 210.698316)scale(0.1 -0.1)">
       <use xlink:href="#DejaVuSans-32"/>
       <use x="63.623047" xlink:href="#DejaVuSans-30"/>
       <use x="127.246094" xlink:href="#DejaVuSans-30"/>
      </g>
     </g>
    </g>
    <g id="ytick_4">
     <g id="line2d_23">
      <path clip-path="url(#p2a9c9bf011)" d="M 42.51125 155.416896 
L 447.48 155.416896 
" style="fill:none;stroke:#b0b0b0;stroke-linecap:square;stroke-width:0.8;"/>
     </g>
     <g id="line2d_24">
      <g>
       <use style="stroke:#000000;stroke-width:0.8;" x="42.51125" xlink:href="#m02aad89397" y="155.416896"/>
      </g>
     </g>
     <g id="text_13">
      <!-- 300 -->
      <defs>
       <path d="M 40.578125 39.3125 
Q 47.65625 37.796875 51.625 33 
Q 55.609375 28.21875 55.609375 21.1875 
Q 55.609375 10.40625 48.1875 4.484375 
Q 40.765625 -1.421875 27.09375 -1.421875 
Q 22.515625 -1.421875 17.65625 -0.515625 
Q 12.796875 0.390625 7.625 2.203125 
L 7.625 11.71875 
Q 11.71875 9.328125 16.59375 8.109375 
Q 21.484375 6.890625 26.8125 6.890625 
Q 36.078125 6.890625 40.9375 10.546875 
Q 45.796875 14.203125 45.796875 21.1875 
Q 45.796875 27.640625 41.28125 31.265625 
Q 36.765625 34.90625 28.71875 34.90625 
L 20.21875 34.90625 
L 20.21875 43.015625 
L 29.109375 43.015625 
Q 36.375 43.015625 40.234375 45.921875 
Q 44.09375 48.828125 44.09375 54.296875 
Q 44.09375 59.90625 40.109375 62.90625 
Q 36.140625 65.921875 28.71875 65.921875 
Q 24.65625 65.921875 20.015625 65.03125 
Q 15.375 64.15625 9.8125 62.3125 
L 9.8125 71.09375 
Q 15.4375 72.65625 20.34375 73.4375 
Q 25.25 74.21875 29.59375 74.21875 
Q 40.828125 74.21875 47.359375 69.109375 
Q 53.90625 64.015625 53.90625 55.328125 
Q 53.90625 49.265625 50.4375 45.09375 
Q 46.96875 40.921875 40.578125 39.3125 
z
" id="DejaVuSans-33"/>
      </defs>
      <g transform="translate(16.42375 159.216115)scale(0.1 -0.1)">
       <use xlink:href="#DejaVuSans-33"/>
       <use x="63.623047" xlink:href="#DejaVuSans-30"/>
       <use x="127.246094" xlink:href="#DejaVuSans-30"/>
      </g>
     </g>
    </g>
    <g id="ytick_5">
     <g id="line2d_25">
      <path clip-path="url(#p2a9c9bf011)" d="M 42.51125 103.934695 
L 447.48 103.934695 
" style="fill:none;stroke:#b0b0b0;stroke-linecap:square;stroke-width:0.8;"/>
     </g>
     <g id="line2d_26">
      <g>
       <use style="stroke:#000000;stroke-width:0.8;" x="42.51125" xlink:href="#m02aad89397" y="103.934695"/>
      </g>
     </g>
     <g id="text_14">
      <!-- 400 -->
      <g transform="translate(16.42375 107.733914)scale(0.1 -0.1)">
       <use xlink:href="#DejaVuSans-34"/>
       <use x="63.623047" xlink:href="#DejaVuSans-30"/>
       <use x="127.246094" xlink:href="#DejaVuSans-30"/>
      </g>
     </g>
    </g>
    <g id="ytick_6">
     <g id="line2d_27">
      <path clip-path="url(#p2a9c9bf011)" d="M 42.51125 52.452494 
L 447.48 52.452494 
" style="fill:none;stroke:#b0b0b0;stroke-linecap:square;stroke-width:0.8;"/>
     </g>
     <g id="line2d_28">
      <g>
       <use style="stroke:#000000;stroke-width:0.8;" x="42.51125" xlink:href="#m02aad89397" y="52.452494"/>
      </g>
     </g>
     <g id="text_15">
      <!-- 500 -->
      <defs>
       <path d="M 10.796875 72.90625 
L 49.515625 72.90625 
L 49.515625 64.59375 
L 19.828125 64.59375 
L 19.828125 46.734375 
Q 21.96875 47.46875 24.109375 47.828125 
Q 26.265625 48.1875 28.421875 48.1875 
Q 40.625 48.1875 47.75 41.5 
Q 54.890625 34.8125 54.890625 23.390625 
Q 54.890625 11.625 47.5625 5.09375 
Q 40.234375 -1.421875 26.90625 -1.421875 
Q 22.3125 -1.421875 17.546875 -0.640625 
Q 12.796875 0.140625 7.71875 1.703125 
L 7.71875 11.625 
Q 12.109375 9.234375 16.796875 8.0625 
Q 21.484375 6.890625 26.703125 6.890625 
Q 35.15625 6.890625 40.078125 11.328125 
Q 45.015625 15.765625 45.015625 23.390625 
Q 45.015625 31 40.078125 35.4375 
Q 35.15625 39.890625 26.703125 39.890625 
Q 22.75 39.890625 18.8125 39.015625 
Q 14.890625 38.140625 10.796875 36.28125 
z
" id="DejaVuSans-35"/>
      </defs>
      <g transform="translate(16.42375 56.251712)scale(0.1 -0.1)">
       <use xlink:href="#DejaVuSans-35"/>
       <use x="63.623047" xlink:href="#DejaVuSans-30"/>
       <use x="127.246094" xlink:href="#DejaVuSans-30"/>
      </g>
     </g>
    </g>
    <g id="text_16">
     <!-- Gross load (MW) -->
     <defs>
      <path d="M 59.515625 10.40625 
L 59.515625 29.984375 
L 43.40625 29.984375 
L 43.40625 38.09375 
L 69.28125 38.09375 
L 69.28125 6.78125 
Q 63.578125 2.734375 56.6875 0.65625 
Q 49.8125 -1.421875 42 -1.421875 
Q 24.90625 -1.421875 15.25 8.5625 
Q 5.609375 18.5625 5.609375 36.375 
Q 5.609375 54.25 15.25 64.234375 
Q 24.90625 74.21875 42 74.21875 
Q 49.125 74.21875 55.546875 72.453125 
Q 61.96875 70.703125 67.390625 67.28125 
L 67.390625 56.78125 
Q 61.921875 61.421875 55.765625 63.765625 
Q 49.609375 66.109375 42.828125 66.109375 
Q 29.4375 66.109375 22.71875 58.640625 
Q 16.015625 51.171875 16.015625 36.375 
Q 16.015625 21.625 22.71875 14.15625 
Q 29.4375 6.6875 42.828125 6.6875 
Q 48.046875 6.6875 52.140625 7.59375 
Q 56.25 8.5 59.515625 10.40625 
z
" id="DejaVuSans-47"/>
      <path d="M 41.109375 46.296875 
Q 39.59375 47.171875 37.8125 47.578125 
Q 36.03125 48 33.890625 48 
Q 26.265625 48 22.1875 43.046875 
Q 18.109375 38.09375 18.109375 28.8125 
L 18.109375 0 
L 9.078125 0 
L 9.078125 54.6875 
L 18.109375 54.6875 
L 18.109375 46.1875 
Q 20.953125 51.171875 25.484375 53.578125 
Q 30.03125 56 36.53125 56 
Q 37.453125 56 38.578125 55.875 
Q 39.703125 55.765625 41.0625 55.515625 
z
" id="DejaVuSans-72"/>
      <path d="M 30.609375 48.390625 
Q 23.390625 48.390625 19.1875 42.75 
Q 14.984375 37.109375 14.984375 27.296875 
Q 14.984375 17.484375 19.15625 11.84375 
Q 23.34375 6.203125 30.609375 6.203125 
Q 37.796875 6.203125 41.984375 11.859375 
Q 46.1875 17.53125 46.1875 27.296875 
Q 46.1875 37.015625 41.984375 42.703125 
Q 37.796875 48.390625 30.609375 48.390625 
z
M 30.609375 56 
Q 42.328125 56 49.015625 48.375 
Q 55.71875 40.765625 55.71875 27.296875 
Q 55.71875 13.875 49.015625 6.21875 
Q 42.328125 -1.421875 30.609375 -1.421875 
Q 18.84375 -1.421875 12.171875 6.21875 
Q 5.515625 13.875 5.515625 27.296875 
Q 5.515625 40.765625 12.171875 48.375 
Q 18.84375 56 30.609375 56 
z
" id="DejaVuSans-6f"/>
      <path d="M 44.28125 53.078125 
L 44.28125 44.578125 
Q 40.484375 46.53125 36.375 47.5 
Q 32.28125 48.484375 27.875 48.484375 
Q 21.1875 48.484375 17.84375 46.4375 
Q 14.5 44.390625 14.5 40.28125 
Q 14.5 37.15625 16.890625 35.375 
Q 19.28125 33.59375 26.515625 31.984375 
L 29.59375 31.296875 
Q 39.15625 29.25 43.1875 25.515625 
Q 47.21875 21.78125 47.21875 15.09375 
Q 47.21875 7.46875 41.1875 3.015625 
Q 35.15625 -1.421875 24.609375 -1.421875 
Q 20.21875 -1.421875 15.453125 -0.5625 
Q 10.6875 0.296875 5.421875 2 
L 5.421875 11.28125 
Q 10.40625 8.6875 15.234375 7.390625 
Q 20.0625 6.109375 24.8125 6.109375 
Q 31.15625 6.109375 34.5625 8.28125 
Q 37.984375 10.453125 37.984375 14.40625 
Q 37.984375 18.0625 35.515625 20.015625 
Q 33.0625 21.96875 24.703125 23.78125 
L 21.578125 24.515625 
Q 13.234375 26.265625 9.515625 29.90625 
Q 5.8125 33.546875 5.8125 39.890625 
Q 5.8125 47.609375 11.28125 51.796875 
Q 16.75 56 26.8125 56 
Q 31.78125 56 36.171875 55.265625 
Q 40.578125 54.546875 44.28125 53.078125 
z
" id="DejaVuSans-73"/>
      <path id="DejaVuSans-20"/>
      <path d="M 9.421875 75.984375 
L 18.40625 75.984375 
L 18.40625 0 
L 9.421875 0 
z
" id="DejaVuSans-6c"/>
      <path d="M 45.40625 46.390625 
L 45.40625 75.984375 
L 54.390625 75.984375 
L 54.390625 0 
L 45.40625 0 
L 45.40625 8.203125 
Q 42.578125 3.328125 38.25 0.953125 
Q 33.9375 -1.421875 27.875 -1.421875 
Q 17.96875 -1.421875 11.734375 6.484375 
Q 5.515625 14.40625 5.515625 27.296875 
Q 5.515625 40.1875 11.734375 48.09375 
Q 17.96875 56 27.875 56 
Q 33.9375 56 38.25 53.625 
Q 42.578125 51.265625 45.40625 46.390625 
z
M 14.796875 27.296875 
Q 14.796875 17.390625 18.875 11.75 
Q 22.953125 6.109375 30.078125 6.109375 
Q 37.203125 6.109375 41.296875 11.75 
Q 45.40625 17.390625 45.40625 27.296875 
Q 45.40625 37.203125 41.296875 42.84375 
Q 37.203125 48.484375 30.078125 48.484375 
Q 22.953125 48.484375 18.875 42.84375 
Q 14.796875 37.203125 14.796875 27.296875 
z
" id="DejaVuSans-64"/>
      <path d="M 31 75.875 
Q 24.46875 64.65625 21.28125 53.65625 
Q 18.109375 42.671875 18.109375 31.390625 
Q 18.109375 20.125 21.3125 9.0625 
Q 24.515625 -2 31 -13.1875 
L 23.1875 -13.1875 
Q 15.875 -1.703125 12.234375 9.375 
Q 8.59375 20.453125 8.59375 31.390625 
Q 8.59375 42.28125 12.203125 53.3125 
Q 15.828125 64.359375 23.1875 75.875 
z
" id="DejaVuSans-28"/>
      <path d="M 9.8125 72.90625 
L 24.515625 72.90625 
L 43.109375 23.296875 
L 61.8125 72.90625 
L 76.515625 72.90625 
L 76.515625 0 
L 66.890625 0 
L 66.890625 64.015625 
L 48.09375 14.015625 
L 38.1875 14.015625 
L 19.390625 64.015625 
L 19.390625 0 
L 9.8125 0 
z
" id="DejaVuSans-4d"/>
      <path d="M 3.328125 72.90625 
L 13.28125 72.90625 
L 28.609375 11.28125 
L 43.890625 72.90625 
L 54.984375 72.90625 
L 70.3125 11.28125 
L 85.59375 72.90625 
L 95.609375 72.90625 
L 77.296875 0 
L 64.890625 0 
L 49.515625 63.28125 
L 33.984375 0 
L 21.578125 0 
z
" id="DejaVuSans-57"/>
      <path d="M 8.015625 75.875 
L 15.828125 75.875 
Q 23.140625 64.359375 26.78125 53.3125 
Q 30.421875 42.28125 30.421875 31.390625 
Q 30.421875 20.453125 26.78125 9.375 
Q 23.140625 -1.703125 15.828125 -13.1875 
L 8.015625 -13.1875 
Q 14.5 -2 17.703125 9.0625 
Q 20.90625 20.125 20.90625 31.390625 
Q 20.90625 42.671875 17.703125 53.65625 
Q 14.5 64.65625 8.015625 75.875 
z
" id="DejaVuSans-29"/>
     </defs>
     <g transform="translate(10.344062 207.835369)rotate(-90)scale(0.1 -0.1)">
      <use xlink:href="#DejaVuSans-47"/>
      <use x="77.490234" xlink:href="#DejaVuSans-72"/>
      <use x="118.572266" xlink:href="#DejaVuSans-6f"/>
      <use x="179.753906" xlink:href="#DejaVuSans-73"/>
      <use x="231.853516" xlink:href="#DejaVuSans-73"/>
      <use x="283.953125" xlink:href="#DejaVuSans-20"/>
      <use x="315.740234" xlink:href="#DejaVuSans-6c"/>
      <use x="343.523438" xlink:href="#DejaVuSans-6f"/>
      <use x="404.705078" xlink:href="#DejaVuSans-61"/>
      <use x="465.984375" xlink:href="#DejaVuSans-64"/>
      <use x="529.460938" xlink:href="#DejaVuSans-20"/>
      <use x="561.248047" xlink:href="#DejaVuSans-28"/>
      <use x="600.261719" xlink:href="#DejaVuSans-4d"/>
      <use x="686.541016" xlink:href="#DejaVuSans-57"/>
      <use x="785.417969" xlink:href="#DejaVuSans-29"/>
     </g>
    </g>
   </g>
   <g id="line2d_29">
    <path clip-path="url(#p2a9c9bf011)" d="M 42.51125 309.8635 
L 47.04476 309.8635 
L 49.348674 73.560196 
L 51.652589 81.025115 
L 53.882184 87.460391 
L 56.186099 129.160974 
L 58.415693 127.616508 
L 60.719608 309.8635 
L 63.023523 309.8635 
L 65.178798 130.70544 
L 67.482713 109.340326 
L 69.712308 128.646152 
L 72.016222 309.8635 
L 74.245817 231.353143 
L 76.549732 122.210876 
L 78.853647 92.3512 
L 81.083241 132.249906 
L 83.387156 230.066088 
L 85.616751 88.490035 
L 87.920666 84.371458 
L 90.22458 65.837866 
L 92.305536 64.808222 
L 94.60945 116.290423 
L 96.839045 119.636766 
L 99.14296 309.8635 
L 101.372555 306.259746 
L 103.67647 95.697543 
L 105.980384 86.173336 
L 108.209979 118.0923 
L 110.513894 288.240975 
L 112.743489 102.64764 
L 115.047403 229.808677 
L 117.351318 132.249906 
L 119.432273 309.8635 
L 121.736188 130.448029 
L 123.965783 133.27955 
L 126.269698 221.828936 
L 128.499293 157.991006 
L 130.803207 78.193594 
L 133.107122 82.826992 
L 135.336717 74.58984 
L 137.640632 120.66641 
L 139.870226 80.252882 
L 142.174141 80.767704 
L 144.478056 94.667899 
L 146.559011 94.153077 
L 148.862926 121.438643 
L 151.092521 114.745957 
L 153.396435 284.637221 
L 155.62603 90.806734 
L 157.929945 78.708416 
L 160.23386 78.193594 
L 162.463455 79.73806 
L 164.767369 309.8635 
L 166.996964 82.31217 
L 169.300879 69.44162 
L 171.604794 65.323044 
L 173.760069 75.104662 
L 176.063983 79.223238 
L 178.293578 92.093789 
L 180.597493 110.884792 
L 182.827088 147.179744 
L 185.131002 122.983109 
L 187.434917 88.232624 
L 189.664512 79.223238 
L 191.968427 309.8635 
L 194.198022 78.708416 
L 196.501936 74.075018 
L 198.805851 75.104662 
L 200.886806 75.619484 
L 203.190721 79.223238 
L 205.420316 131.735084 
L 207.724231 309.8635 
L 209.953825 309.8635 
L 212.25774 82.826992 
L 214.561655 78.708416 
L 216.79125 78.708416 
L 219.095164 124.012753 
L 221.324759 158.763239 
L 223.628674 122.983109 
L 225.932589 84.886281 
L 228.013544 137.140715 
L 230.317459 72.01573 
L 232.547054 309.8635 
L 239.384478 309.8635 
L 241.688393 82.826992 
L 243.917987 88.490035 
L 246.221902 70.986086 
L 248.451497 139.714825 
L 250.755412 73.560196 
L 253.059326 309.8635 
L 264.207301 309.8635 
L 266.511216 158.763239 
L 268.81513 183.217285 
L 271.044725 139.714825 
L 273.34864 196.087835 
L 275.578235 309.8635 
L 277.882149 141.516702 
L 280.186064 102.905051 
L 282.341339 95.440132 
L 284.645254 87.975213 
L 286.874849 87.975213 
L 289.178764 153.87243 
L 291.408358 108.568093 
L 293.712273 91.064145 
L 296.016188 86.945569 
L 298.245783 83.341814 
L 300.549697 81.797348 
L 302.779292 151.29832 
L 305.083207 100.588352 
L 307.387122 70.471264 
L 309.468077 72.01573 
L 311.771992 76.649128 
L 314.001587 78.193594 
L 316.305501 309.8635 
L 318.535096 93.380844 
L 320.839011 121.438643 
L 323.142926 155.159485 
L 325.37252 119.121944 
L 327.676435 144.090812 
L 329.90603 309.8635 
L 332.209945 74.58984 
L 334.513859 82.826992 
L 336.594815 174.2079 
L 338.898729 195.315602 
L 341.128324 141.00188 
L 343.432239 309.8635 
L 345.661834 148.209388 
L 347.965749 109.340326 
L 350.269663 108.825504 
L 352.499258 113.716313 
L 354.803173 76.134306 
L 357.032768 236.758774 
L 359.336682 142.546346 
L 361.640597 309.8635 
L 363.721552 143.061168 
L 366.025467 198.147123 
L 368.255062 213.076962 
L 370.558977 309.8635 
L 372.788572 90.806734 
L 375.092486 93.380844 
L 377.396401 87.975213 
L 379.625996 131.477673 
L 381.929911 80.767704 
L 384.159505 198.147123 
L 386.46342 145.377867 
L 388.767335 141.516702 
L 390.92261 196.602657 
L 393.226525 233.669842 
L 395.456119 234.184664 
L 397.760034 309.8635 
L 399.989629 224.145635 
L 402.293544 156.44654 
L 404.597458 108.825504 
L 406.827053 125.814631 
L 409.130968 122.468287 
L 411.360563 309.8635 
L 413.664478 141.00188 
L 415.968392 215.651072 
L 418.049348 247.312625 
L 420.353262 309.8635 
L 427.116367 309.8635 
L 429.420281 231.610554 
L 431.724196 120.923821 
L 433.953791 162.881815 
L 436.257706 120.408999 
L 438.487301 220.28447 
L 440.791215 171.891201 
L 443.09513 309.8635 
L 445.176085 309.8635 
L 447.48 108.310682 
L 447.48 108.310682 
" style="fill:none;stroke:#1f77b4;stroke-linecap:square;stroke-width:1.5;"/>
   </g>
   <g id="patch_3">
    <path d="M 42.51125 309.8635 
L 42.51125 23.36505 
" style="fill:none;stroke:#000000;stroke-linecap:square;stroke-linejoin:miter;stroke-width:0.8;"/>
   </g>
   <g id="patch_4">
    <path d="M 447.48 309.8635 
L 447.48 23.36505 
" style="fill:none;stroke:#000000;stroke-linecap:square;stroke-linejoin:miter;stroke-width:0.8;"/>
   </g>
   <g id="patch_5">
    <path d="M 42.51125 309.8635 
L 447.48 309.8635 
" style="fill:none;stroke:#000000;stroke-linecap:square;stroke-linejoin:miter;stroke-width:0.8;"/>
   </g>
   <g id="patch_6">
    <path d="M 42.51125 23.36505 
L 447.48 23.36505 
" style="fill:none;stroke:#000000;stroke-linecap:square;stroke-linejoin:miter;stroke-width:0.8;"/>
   </g>
   <g id="text_17">
    <!-- Monthly gload trend -->
    <defs>
     <path d="M 54.890625 33.015625 
L 54.890625 0 
L 45.90625 0 
L 45.90625 32.71875 
Q 45.90625 40.484375 42.875 44.328125 
Q 39.84375 48.1875 33.796875 48.1875 
Q 26.515625 48.1875 22.3125 43.546875 
Q 18.109375 38.921875 18.109375 30.90625 
L 18.109375 0 
L 9.078125 0 
L 9.078125 54.6875 
L 18.109375 54.6875 
L 18.109375 46.1875 
Q 21.34375 51.125 25.703125 53.5625 
Q 30.078125 56 35.796875 56 
Q 45.21875 56 50.046875 50.171875 
Q 54.890625 44.34375 54.890625 33.015625 
z
" id="DejaVuSans-6e"/>
     <path d="M 54.890625 33.015625 
L 54.890625 0 
L 45.90625 0 
L 45.90625 32.71875 
Q 45.90625 40.484375 42.875 44.328125 
Q 39.84375 48.1875 33.796875 48.1875 
Q 26.515625 48.1875 22.3125 43.546875 
Q 18.109375 38.921875 18.109375 30.90625 
L 18.109375 0 
L 9.078125 0 
L 9.078125 75.984375 
L 18.109375 75.984375 
L 18.109375 46.1875 
Q 21.34375 51.125 25.703125 53.5625 
Q 30.078125 56 35.796875 56 
Q 45.21875 56 50.046875 50.171875 
Q 54.890625 44.34375 54.890625 33.015625 
z
" id="DejaVuSans-68"/>
     <path d="M 32.171875 -5.078125 
Q 28.375 -14.84375 24.75 -17.8125 
Q 21.140625 -20.796875 15.09375 -20.796875 
L 7.90625 -20.796875 
L 7.90625 -13.28125 
L 13.1875 -13.28125 
Q 16.890625 -13.28125 18.9375 -11.515625 
Q 21 -9.765625 23.484375 -3.21875 
L 25.09375 0.875 
L 2.984375 54.6875 
L 12.5 54.6875 
L 29.59375 11.921875 
L 46.6875 54.6875 
L 56.203125 54.6875 
z
" id="DejaVuSans-79"/>
     <path d="M 45.40625 27.984375 
Q 45.40625 37.75 41.375 43.109375 
Q 37.359375 48.484375 30.078125 48.484375 
Q 22.859375 48.484375 18.828125 43.109375 
Q 14.796875 37.75 14.796875 27.984375 
Q 14.796875 18.265625 18.828125 12.890625 
Q 22.859375 7.515625 30.078125 7.515625 
Q 37.359375 7.515625 41.375 12.890625 
Q 45.40625 18.265625 45.40625 27.984375 
z
M 54.390625 6.78125 
Q 54.390625 -7.171875 48.1875 -13.984375 
Q 42 -20.796875 29.203125 -20.796875 
Q 24.46875 -20.796875 20.265625 -20.09375 
Q 16.0625 -19.390625 12.109375 -17.921875 
L 12.109375 -9.1875 
Q 16.0625 -11.328125 19.921875 -12.34375 
Q 23.78125 -13.375 27.78125 -13.375 
Q 36.625 -13.375 41.015625 -8.765625 
Q 45.40625 -4.15625 45.40625 5.171875 
L 45.40625 9.625 
Q 42.625 4.78125 38.28125 2.390625 
Q 33.9375 0 27.875 0 
Q 17.828125 0 11.671875 7.65625 
Q 5.515625 15.328125 5.515625 27.984375 
Q 5.515625 40.671875 11.671875 48.328125 
Q 17.828125 56 27.875 56 
Q 33.9375 56 38.28125 53.609375 
Q 42.625 51.21875 45.40625 46.390625 
L 45.40625 54.6875 
L 54.390625 54.6875 
z
" id="DejaVuSans-67"/>
    </defs>
    <g transform="translate(184.405 17.36505)scale(0.12 -0.12)">
     <use xlink:href="#DejaVuSans-4d"/>
     <use x="86.279297" xlink:href="#DejaVuSans-6f"/>
     <use x="147.460938" xlink:href="#DejaVuSans-6e"/>
     <use x="210.839844" xlink:href="#DejaVuSans-74"/>
     <use x="250.048828" xlink:href="#DejaVuSans-68"/>
     <use x="313.427734" xlink:href="#DejaVuSans-6c"/>
     <use x="341.210938" xlink:href="#DejaVuSans-79"/>
     <use x="400.390625" xlink:href="#DejaVuSans-20"/>
     <use x="432.177734" xlink:href="#DejaVuSans-67"/>
     <use x="495.654297" xlink:href="#DejaVuSans-6c"/>
     <use x="523.4375" xlink:href="#DejaVuSans-6f"/>
     <use x="584.619141" xlink:href="#DejaVuSans-61"/>
     <use x="645.898438" xlink:href="#DejaVuSans-64"/>
     <use x="709.375" xlink:href="#DejaVuSans-20"/>
     <use x="741.162109" xlink:href="#DejaVuSans-74"/>
     <use x="780.371094" xlink:href="#DejaVuSans-72"/>
     <use x="821.453125" xlink:href="#DejaVuSans-65"/>
     <use x="882.976562" xlink:href="#DejaVuSans-6e"/>
     <use x="946.355469" xlink:href="#DejaVuSans-64"/>
    </g>
   </g>
  </g>
 </g>
 <defs>
  <clipPath id="p2a9c9bf011">
   <rect height="286.49845" width="404.96875" x="42.51125" y="23.36505"/>
  </clipPath>
 </defs>
</svg>
