<?xml version="1.0" encoding="utf-8" standalone="no"?>
<!DOCTYPE svg PUBLIC "-//W3C//DTD SVG 1.1//EN"
  "http://www.w3.org/Graphics/SVG/1.1/DTD/svg11.dtd">
<!-- Created with matplotlib (http://matplotlib.org/) -->
<svg height="345.6pt" version="1.1" viewBox="0 0 460.8 345.6" width="460.8pt" xmlns="http://www.w3.org/2000/svg" xmlns:xlink="http://www.w3.org/1999/xlink">
 <defs>
  <style type="text/css">
*{stroke-linecap:butt;stroke-linejoin:round;}
  </style>
 </defs>
 <g id="figure_1">
  <g id="patch_1">
   <path d="M 0 345.6 
L 460.8 345.6 
L 460.8 0 
L 0 0 
z
" style="fill:none;"/>
  </g>
  <g id="axes_1">
   <g id="patch_2">
    <path d="M 31.543 309.8635 
L 447.48 309.8635 
L 447.48 23.36505 
L 31.543 23.36505 
z
" style="fill:none;"/>
   </g>
   <g id="PolyCollection_1">
    <path clip-path="url(#pc85dde58d7)" d="M 31.543 309.8635 
L 31.543 309.8635 
L 33.515935 309.8635 
L 35.700256 309.8635 
L 37.814115 309.8635 
L 39.998436 309.8635 
L 42.112295 309.8635 
L 44.296616 309.8635 
L 46.480937 309.8635 
L 48.594796 309.8635 
L 50.779117 309.8635 
L 52.892976 309.8635 
L 55.077297 309.8635 
L 57.261618 309.8635 
L 59.234554 309.8635 
L 61.418875 309.8635 
L 63.532734 309.8635 
L 65.717055 309.8635 
L 67.830914 309.8635 
L 70.015235 309.8635 
L 72.199556 309.8635 
L 74.313415 309.8635 
L 76.497736 309.8635 
L 78.611595 309.8635 
L 80.795916 309.8635 
L 82.980237 309.8635 
L 85.023634 309.8635 
L 87.207955 309.8635 
L 89.321814 309.8635 
L 91.506135 309.8635 
L 93.619994 309.8635 
L 95.804315 309.8635 
L 97.988636 309.8635 
L 100.102495 309.8635 
L 102.286816 309.8635 
L 104.400675 309.8635 
L 106.584996 309.8635 
L 108.769317 309.8635 
L 110.742253 309.8635 
L 112.926574 309.8635 
L 115.040433 309.8635 
L 117.224754 309.8635 
L 119.338613 309.8635 
L 121.522934 309.8635 
L 123.707255 309.8635 
L 125.821114 309.8635 
L 128.005435 309.8635 
L 130.119294 309.8635 
L 132.303615 309.8635 
L 134.487936 309.8635 
L 136.460871 309.8635 
L 138.645192 309.8635 
L 140.759051 309.8635 
L 142.943372 309.8635 
L 145.057231 309.8635 
L 147.241552 309.8635 
L 149.425873 309.8635 
L 151.539732 309.8635 
L 153.724053 309.8635 
L 155.837912 309.8635 
L 158.022233 309.8635 
L 160.206554 309.8635 
L 162.17949 309.8635 
L 164.363811 309.8635 
L 166.47767 309.8635 
L 168.661991 309.8635 
L 170.77585 309.8635 
L 172.960171 309.8635 
L 175.144492 309.8635 
L 177.258351 309.8635 
L 179.442672 309.8635 
L 181.556531 309.8635 
L 183.740852 309.8635 
L 185.925173 309.8635 
L 187.96857 309.8635 
L 190.152891 309.8635 
L 192.26675 309.8635 
L 194.451071 309.8635 
L 196.56493 309.8635 
L 198.749251 309.8635 
L 200.933572 309.8635 
L 203.047431 309.8635 
L 205.231752 309.8635 
L 207.345611 309.8635 
L 209.529932 309.8635 
L 211.714253 309.8635 
L 213.687189 309.8635 
L 215.87151 309.8635 
L 217.985369 309.8635 
L 220.16969 309.8635 
L 222.283549 309.8635 
L 224.46787 309.8635 
L 226.652191 309.8635 
L 228.76605 309.8635 
L 230.950371 309.8635 
L 233.06423 309.8635 
L 235.248551 309.8635 
L 237.432872 309.8635 
L 239.405807 309.8635 
L 241.590128 309.8635 
L 243.703987 309.8635 
L 245.888308 309.8635 
L 248.002167 309.8635 
L 250.186488 309.8635 
L 252.370809 309.8635 
L 254.484668 309.8635 
L 256.668989 309.8635 
L 258.782848 309.8635 
L 260.967169 309.8635 
L 263.15149 309.8635 
L 265.124426 309.8635 
L 267.308747 309.8635 
L 269.422606 309.8635 
L 271.606927 309.8635 
L 273.720786 309.8635 
L 275.905107 309.8635 
L 278.089428 309.8635 
L 280.203287 309.8635 
L 282.387608 309.8635 
L 284.501467 309.8635 
L 286.685788 309.8635 
L 288.870109 309.8635 
L 290.913506 309.8635 
L 293.097827 309.8635 
L 295.211686 309.8635 
L 297.396007 309.8635 
L 299.509866 309.8635 
L 301.694187 309.8635 
L 303.878508 309.8635 
L 305.992367 309.8635 
L 308.176688 309.8635 
L 310.290547 309.8635 
L 312.474868 309.8635 
L 314.659189 309.8635 
L 316.632125 309.8635 
L 318.816446 309.8635 
L 320.930305 309.8635 
L 323.114626 309.8635 
L 325.228485 309.8635 
L 327.412806 309.8635 
L 329.597127 309.8635 
L 331.710986 309.8635 
L 333.895307 309.8635 
L 336.009166 309.8635 
L 338.193487 309.8635 
L 340.377808 309.8635 
L 342.350743 309.8635 
L 344.535064 309.8635 
L 346.648923 309.8635 
L 348.833244 309.8635 
L 350.947103 309.8635 
L 353.131424 309.8635 
L 355.315745 309.8635 
L 357.429604 309.8635 
L 359.613925 309.8635 
L 361.727784 309.8635 
L 363.912105 309.8635 
L 366.096426 309.8635 
L 368.069362 309.8635 
L 370.253683 309.8635 
L 372.367542 309.8635 
L 374.551863 309.8635 
L 376.665722 309.8635 
L 378.850043 309.8635 
L 381.034364 309.8635 
L 383.148223 309.8635 
L 385.332544 309.8635 
L 387.446403 309.8635 
L 389.630724 309.8635 
L 391.815045 309.8635 
L 393.858442 309.8635 
L 396.042763 309.8635 
L 398.156622 309.8635 
L 400.340943 309.8635 
L 402.454802 309.8635 
L 404.639123 309.8635 
L 406.823444 309.8635 
L 408.937303 309.8635 
L 411.121624 309.8635 
L 413.235483 309.8635 
L 415.419804 309.8635 
L 417.604125 309.8635 
L 419.57706 309.8635 
L 421.761382 309.8635 
L 423.875241 309.8635 
L 426.059562 309.8635 
L 428.173421 309.8635 
L 430.357742 309.8635 
L 432.542063 309.8635 
L 434.655922 309.8635 
L 436.840243 309.8635 
L 438.954102 309.8635 
L 441.138423 309.8635 
L 443.322744 309.8635 
L 445.295679 309.8635 
L 447.48 309.8635 
L 447.48 190.832504 
L 447.48 190.832504 
L 445.295679 46.164064 
L 443.322744 179.845028 
L 441.138423 172.520044 
L 438.954102 77.295247 
L 436.840243 141.38886 
L 434.655922 143.220106 
L 432.542063 174.35129 
L 430.357742 161.532567 
L 428.173421 99.2702 
L 426.059562 189.001258 
L 423.875241 194.494997 
L 421.761382 196.326243 
L 419.57706 134.063876 
L 417.604125 209.144965 
L 415.419804 221.963688 
L 413.235483 196.326243 
L 411.121624 90.11397 
L 408.937303 156.038829 
L 406.823444 148.713845 
L 404.639123 55.320294 
L 402.454802 57.15154 
L 400.340943 146.882598 
L 398.156622 71.801509 
L 396.042763 152.376337 
L 393.858442 108.426431 
L 391.815045 135.895122 
L 389.630724 201.819981 
L 387.446403 73.632755 
L 385.332544 44.332818 
L 383.148223 46.164064 
L 381.034364 51.657802 
L 378.850043 49.826556 
L 376.665722 44.332818 
L 374.551863 49.826556 
L 372.367542 49.826556 
L 370.253683 51.657802 
L 368.069362 46.164064 
L 366.096426 113.920169 
L 363.912105 163.363813 
L 361.727784 134.063876 
L 359.613925 55.320294 
L 357.429604 46.164064 
L 355.315745 42.501572 
L 353.131424 46.164064 
L 350.947103 46.164064 
L 348.833244 71.801509 
L 346.648923 86.451478 
L 344.535064 134.063876 
L 342.350743 198.157489 
L 340.377808 256.757364 
L 338.193487 46.164064 
L 336.009166 210.976211 
L 333.895307 128.570138 
L 331.710986 71.801509 
L 329.597127 49.826556 
L 327.412806 69.970263 
L 325.228485 62.645279 
L 323.114626 46.164064 
L 320.930305 40.670326 
L 318.816446 124.907645 
L 316.632125 165.195059 
L 314.659189 71.801509 
L 312.474868 53.489048 
L 310.290547 46.164064 
L 308.176688 47.99531 
L 305.992367 57.15154 
L 303.878508 47.99531 
L 301.694187 58.982786 
L 299.509866 73.632755 
L 297.396007 64.476525 
L 295.211686 47.99531 
L 293.097827 91.945216 
L 290.913506 141.38886 
L 288.870109 88.282724 
L 286.685788 141.38886 
L 284.501467 106.595185 
L 282.387608 134.063876 
L 280.203287 66.307771 
L 278.089428 101.101446 
L 275.905107 47.99531 
L 273.720786 60.814032 
L 271.606927 126.738891 
L 269.422606 150.545091 
L 267.308747 47.99531 
L 265.124426 51.657802 
L 263.15149 47.99531 
L 260.967169 79.126493 
L 258.782848 42.501572 
L 256.668989 55.320294 
L 254.484668 46.164064 
L 252.370809 44.332818 
L 250.186488 44.332818 
L 248.002167 46.164064 
L 245.888308 168.857551 
L 243.703987 229.288672 
L 241.590128 264.082348 
L 239.405807 172.520044 
L 237.432872 68.139017 
L 235.248551 42.501572 
L 233.06423 51.657802 
L 230.950371 42.501572 
L 228.76605 42.501572 
L 226.652191 47.99531 
L 224.46787 44.332818 
L 222.283549 47.99531 
L 220.16969 53.489048 
L 217.985369 93.776462 
L 215.87151 90.11397 
L 213.687189 51.657802 
L 211.714253 51.657802 
L 209.529932 51.657802 
L 207.345611 139.557614 
L 205.231752 49.826556 
L 203.047431 51.657802 
L 200.933572 47.99531 
L 198.749251 46.164064 
L 196.56493 47.99531 
L 194.451071 49.826556 
L 192.26675 51.657802 
L 190.152891 51.657802 
L 187.96857 53.489048 
L 185.925173 40.670326 
L 183.740852 46.164064 
L 181.556531 51.657802 
L 179.442672 44.332818 
L 177.258351 47.99531 
L 175.144492 46.164064 
L 172.960171 46.164064 
L 170.77585 47.99531 
L 168.661991 49.826556 
L 166.47767 132.23263 
L 164.363811 42.501572 
L 162.17949 309.8635 
L 160.206554 49.826556 
L 158.022233 51.657802 
L 155.837912 55.320294 
L 153.724053 51.657802 
L 151.539732 51.657802 
L 149.425873 47.99531 
L 147.241552 42.501572 
L 145.057231 47.99531 
L 142.943372 46.164064 
L 140.759051 309.8635 
L 138.645192 309.8635 
L 136.460871 309.8635 
L 134.487936 51.657802 
L 132.303615 46.164064 
L 130.119294 101.101446 
L 128.005435 119.413907 
L 125.821114 42.501572 
L 123.707255 42.501572 
L 121.522934 46.164064 
L 119.338613 84.620232 
L 117.224754 84.620232 
L 115.040433 90.11397 
L 112.926574 216.46995 
L 110.742253 148.713845 
L 108.769317 51.657802 
L 106.584996 46.164064 
L 104.400675 47.99531 
L 102.286816 51.657802 
L 100.102495 42.501572 
L 97.988636 44.332818 
L 95.804315 55.320294 
L 93.619994 57.15154 
L 91.506135 57.15154 
L 89.321814 86.451478 
L 87.207955 97.438954 
L 85.023634 53.489048 
L 82.980237 64.476525 
L 80.795916 57.15154 
L 78.611595 309.8635 
L 76.497736 53.489048 
L 74.313415 53.489048 
L 72.199556 44.332818 
L 70.015235 40.670326 
L 67.830914 40.670326 
L 65.717055 40.670326 
L 63.532734 47.99531 
L 61.418875 134.063876 
L 59.234554 46.164064 
L 57.261618 99.2702 
L 55.077297 46.164064 
L 52.892976 37.007833 
L 50.779117 42.501572 
L 48.594796 40.670326 
L 46.480937 80.957739 
L 44.296616 40.670326 
L 42.112295 46.164064 
L 39.998436 53.489048 
L 37.814115 148.713845 
L 35.700256 207.313719 
L 33.515935 309.8635 
L 31.543 309.8635 
z
" style="fill:#808080;fill-opacity:0.3;"/>
   </g>
   <g id="PolyCollection_2">
    <path clip-path="url(#pc85dde58d7)" d="M 31.543 309.8635 
L 31.543 309.8635 
L 33.515935 309.8635 
L 35.700256 309.8635 
L 37.814115 309.8635 
L 39.998436 309.8635 
L 42.112295 309.8635 
L 44.296616 309.8635 
L 46.480937 309.8635 
L 48.594796 309.8635 
L 50.779117 309.8635 
L 52.892976 309.8635 
L 55.077297 309.8635 
L 57.261618 309.8635 
L 59.234554 309.8635 
L 61.418875 309.8635 
L 63.532734 309.8635 
L 65.717055 309.8635 
L 67.830914 309.8635 
L 70.015235 309.8635 
L 72.199556 309.8635 
L 74.313415 309.8635 
L 76.497736 309.8635 
L 78.611595 309.8635 
L 80.795916 309.8635 
L 82.980237 309.8635 
L 85.023634 309.8635 
L 87.207955 309.8635 
L 89.321814 309.8635 
L 91.506135 309.8635 
L 93.619994 309.8635 
L 95.804315 309.8635 
L 97.988636 309.8635 
L 100.102495 309.8635 
L 102.286816 309.8635 
L 104.400675 309.8635 
L 106.584996 309.8635 
L 108.769317 309.8635 
L 110.742253 309.8635 
L 112.926574 309.8635 
L 115.040433 309.8635 
L 117.224754 309.8635 
L 119.338613 309.8635 
L 121.522934 309.8635 
L 123.707255 309.8635 
L 125.821114 309.8635 
L 128.005435 309.8635 
L 130.119294 309.8635 
L 132.303615 309.8635 
L 134.487936 309.8635 
L 136.460871 309.8635 
L 138.645192 309.8635 
L 140.759051 309.8635 
L 142.943372 309.8635 
L 145.057231 309.8635 
L 147.241552 309.8635 
L 149.425873 309.8635 
L 151.539732 309.8635 
L 153.724053 309.8635 
L 155.837912 309.8635 
L 158.022233 309.8635 
L 160.206554 309.8635 
L 162.17949 309.8635 
L 164.363811 309.8635 
L 166.47767 309.8635 
L 168.661991 309.8635 
L 170.77585 309.8635 
L 172.960171 309.8635 
L 175.144492 309.8635 
L 177.258351 309.8635 
L 179.442672 309.8635 
L 181.556531 309.8635 
L 183.740852 309.8635 
L 185.925173 309.8635 
L 187.96857 309.8635 
L 190.152891 309.8635 
L 192.26675 309.8635 
L 194.451071 309.8635 
L 196.56493 309.8635 
L 198.749251 309.8635 
L 200.933572 309.8635 
L 203.047431 309.8635 
L 205.231752 309.8635 
L 207.345611 309.8635 
L 209.529932 309.8635 
L 211.714253 309.8635 
L 213.687189 309.8635 
L 215.87151 309.8635 
L 217.985369 309.8635 
L 220.16969 309.8635 
L 222.283549 309.8635 
L 224.46787 309.8635 
L 226.652191 309.8635 
L 228.76605 309.8635 
L 230.950371 309.8635 
L 233.06423 309.8635 
L 235.248551 309.8635 
L 237.432872 309.8635 
L 239.405807 309.8635 
L 241.590128 309.8635 
L 243.703987 309.8635 
L 245.888308 309.8635 
L 248.002167 309.8635 
L 250.186488 309.8635 
L 252.370809 309.8635 
L 254.484668 309.8635 
L 256.668989 309.8635 
L 258.782848 309.8635 
L 260.967169 309.8635 
L 263.15149 309.8635 
L 265.124426 309.8635 
L 267.308747 309.8635 
L 269.422606 309.8635 
L 271.606927 309.8635 
L 273.720786 309.8635 
L 275.905107 309.8635 
L 278.089428 309.8635 
L 280.203287 309.8635 
L 282.387608 309.8635 
L 284.501467 309.8635 
L 286.685788 309.8635 
L 288.870109 309.8635 
L 290.913506 309.8635 
L 293.097827 309.8635 
L 295.211686 309.8635 
L 297.396007 309.8635 
L 299.509866 309.8635 
L 301.694187 309.8635 
L 303.878508 309.8635 
L 305.992367 309.8635 
L 308.176688 309.8635 
L 310.290547 309.8635 
L 312.474868 309.8635 
L 314.659189 309.8635 
L 316.632125 309.8635 
L 318.816446 309.8635 
L 320.930305 309.8635 
L 323.114626 309.8635 
L 325.228485 309.8635 
L 327.412806 309.8635 
L 329.597127 309.8635 
L 331.710986 309.8635 
L 333.895307 309.8635 
L 336.009166 309.8635 
L 338.193487 309.8635 
L 340.377808 309.8635 
L 342.350743 309.8635 
L 344.535064 309.8635 
L 346.648923 309.8635 
L 348.833244 309.8635 
L 350.947103 309.8635 
L 353.131424 309.8635 
L 355.315745 309.8635 
L 357.429604 309.8635 
L 359.613925 309.8635 
L 361.727784 309.8635 
L 363.912105 309.8635 
L 366.096426 309.8635 
L 368.069362 309.8635 
L 370.253683 309.8635 
L 372.367542 309.8635 
L 374.551863 309.8635 
L 376.665722 309.8635 
L 378.850043 309.8635 
L 381.034364 309.8635 
L 383.148223 309.8635 
L 385.332544 309.8635 
L 387.446403 309.8635 
L 389.630724 309.8635 
L 391.815045 309.8635 
L 393.858442 309.8635 
L 396.042763 309.8635 
L 398.156622 309.8635 
L 400.340943 309.8635 
L 402.454802 309.8635 
L 404.639123 309.8635 
L 406.823444 309.8635 
L 408.937303 309.8635 
L 411.121624 309.8635 
L 413.235483 309.8635 
L 415.419804 309.8635 
L 417.604125 309.8635 
L 419.57706 309.8635 
L 421.761382 309.8635 
L 423.875241 309.8635 
L 426.059562 309.8635 
L 428.173421 309.8635 
L 430.357742 309.8635 
L 432.542063 309.8635 
L 434.655922 309.8635 
L 436.840243 309.8635 
L 438.954102 309.8635 
L 441.138423 309.8635 
L 443.322744 309.8635 
L 445.295679 309.8635 
L 447.48 309.8635 
L 447.48 309.8635 
L 447.48 309.8635 
L 445.295679 309.8635 
L 443.322744 309.8635 
L 441.138423 309.8635 
L 438.954102 309.8635 
L 436.840243 309.8635 
L 434.655922 309.8635 
L 432.542063 309.8635 
L 430.357742 309.8635 
L 428.173421 309.8635 
L 426.059562 309.8635 
L 423.875241 309.8635 
L 421.761382 309.8635 
L 419.57706 309.8635 
L 417.604125 309.8635 
L 415.419804 309.8635 
L 413.235483 309.8635 
L 411.121624 309.8635 
L 408.937303 309.8635 
L 406.823444 309.8635 
L 404.639123 309.8635 
L 402.454802 309.8635 
L 400.340943 309.8635 
L 398.156622 309.8635 
L 396.042763 309.8635 
L 393.858442 309.8635 
L 391.815045 309.8635 
L 389.630724 309.8635 
L 387.446403 309.8635 
L 385.332544 309.8635 
L 383.148223 309.8635 
L 381.034364 309.8635 
L 378.850043 309.8635 
L 376.665722 309.8635 
L 374.551863 309.8635 
L 372.367542 309.8635 
L 370.253683 309.8635 
L 368.069362 309.8635 
L 366.096426 284.226055 
L 363.912105 309.8635 
L 361.727784 309.8635 
L 359.613925 309.8635 
L 357.429604 309.8635 
L 355.315745 309.8635 
L 353.131424 309.8635 
L 350.947103 309.8635 
L 348.833244 309.8635 
L 346.648923 309.8635 
L 344.535064 309.8635 
L 342.350743 309.8635 
L 340.377808 309.8635 
L 338.193487 309.8635 
L 336.009166 309.8635 
L 333.895307 309.8635 
L 331.710986 309.8635 
L 329.597127 309.8635 
L 327.412806 309.8635 
L 325.228485 271.407332 
L 323.114626 273.238578 
L 320.930305 308.032254 
L 318.816446 309.8635 
L 316.632125 275.069824 
L 314.659189 275.069824 
L 312.474868 293.382285 
L 310.290547 309.8635 
L 308.176688 309.8635 
L 305.992367 289.261982 
L 303.878508 273.238578 
L 301.694187 275.069824 
L 299.509866 271.407332 
L 297.396007 269.576086 
L 295.211686 309.8635 
L 293.097827 309.8635 
L 290.913506 309.8635 
L 288.870109 309.8635 
L 286.685788 309.8635 
L 284.501467 309.8635 
L 282.387608 309.8635 
L 280.203287 309.8635 
L 278.089428 309.8635 
L 275.905107 309.8635 
L 273.720786 309.8635 
L 271.606927 309.8635 
L 269.422606 309.8635 
L 267.308747 309.8635 
L 265.124426 309.8635 
L 263.15149 309.8635 
L 260.967169 309.8635 
L 258.782848 309.8635 
L 256.668989 309.8635 
L 254.484668 309.8635 
L 252.370809 309.8635 
L 250.186488 309.8635 
L 248.002167 309.8635 
L 245.888308 309.8635 
L 243.703987 309.8635 
L 241.590128 309.8635 
L 239.405807 309.8635 
L 237.432872 309.8635 
L 235.248551 309.8635 
L 233.06423 309.8635 
L 230.950371 309.8635 
L 228.76605 309.8635 
L 226.652191 309.8635 
L 224.46787 309.8635 
L 222.283549 309.8635 
L 220.16969 309.8635 
L 217.985369 309.8635 
L 215.87151 309.8635 
L 213.687189 309.8635 
L 211.714253 309.8635 
L 209.529932 309.8635 
L 207.345611 309.8635 
L 205.231752 309.8635 
L 203.047431 309.8635 
L 200.933572 250.805814 
L 198.749251 309.8635 
L 196.56493 309.8635 
L 194.451071 309.8635 
L 192.26675 309.8635 
L 190.152891 309.8635 
L 187.96857 309.8635 
L 185.925173 309.8635 
L 183.740852 309.8635 
L 181.556531 309.8635 
L 179.442672 309.8635 
L 177.258351 309.8635 
L 175.144492 262.251102 
L 172.960171 309.8635 
L 170.77585 309.8635 
L 168.661991 309.8635 
L 166.47767 309.8635 
L 164.363811 309.8635 
L 162.17949 309.8635 
L 160.206554 309.8635 
L 158.022233 309.8635 
L 155.837912 309.8635 
L 153.724053 309.8635 
L 151.539732 309.8635 
L 149.425873 309.8635 
L 147.241552 269.576086 
L 145.057231 309.8635 
L 142.943372 309.8635 
L 140.759051 309.8635 
L 138.645192 309.8635 
L 136.460871 309.8635 
L 134.487936 309.8635 
L 132.303615 309.8635 
L 130.119294 309.8635 
L 128.005435 309.8635 
L 125.821114 309.8635 
L 123.707255 309.8635 
L 121.522934 232.951164 
L 119.338613 309.8635 
L 117.224754 309.8635 
L 115.040433 309.8635 
L 112.926574 309.8635 
L 110.742253 309.8635 
L 108.769317 309.8635 
L 106.584996 309.8635 
L 104.400675 309.8635 
L 102.286816 309.8635 
L 100.102495 309.8635 
L 97.988636 309.8635 
L 95.804315 309.8635 
L 93.619994 309.8635 
L 91.506135 309.8635 
L 89.321814 309.8635 
L 87.207955 309.8635 
L 85.023634 309.8635 
L 82.980237 309.8635 
L 80.795916 309.8635 
L 78.611595 309.8635 
L 76.497736 309.8635 
L 74.313415 309.8635 
L 72.199556 309.8635 
L 70.015235 250.348002 
L 67.830914 309.8635 
L 65.717055 309.8635 
L 63.532734 309.8635 
L 61.418875 309.8635 
L 59.234554 309.8635 
L 57.261618 309.8635 
L 55.077297 309.8635 
L 52.892976 309.8635 
L 50.779117 309.8635 
L 48.594796 309.8635 
L 46.480937 309.8635 
L 44.296616 309.8635 
L 42.112295 309.8635 
L 39.998436 309.8635 
L 37.814115 309.8635 
L 35.700256 309.8635 
L 33.515935 309.8635 
L 31.543 309.8635 
z
" style="fill:#808080;fill-opacity:0.6;"/>
   </g>
   <g id="matplotlib.axis_1">
    <g id="xtick_1">
     <g id="line2d_1">
      <path clip-path="url(#pc85dde58d7)" d="M 55.147759 309.8635 
L 55.147759 23.36505 
" style="fill:none;stroke:#b0b0b0;stroke-linecap:square;stroke-width:0.8;"/>
     </g>
     <g id="line2d_2">
      <defs>
       <path d="M 0 0 
L 0 3.5 
" id="m6b7f2cc2ca" style="stroke:#000000;stroke-width:0.8;"/>
      </defs>
      <g>
       <use style="stroke:#000000;stroke-width:0.8;" x="55.147759" xlink:href="#m6b7f2cc2ca" y="309.8635"/>
      </g>
     </g>
     <g id="text_1">
      <!-- 2003 -->
      <defs>
       <path d="M 19.1875 8.296875 
L 53.609375 8.296875 
L 53.609375 0 
L 7.328125 0 
L 7.328125 8.296875 
Q 12.9375 14.109375 22.625 23.890625 
Q 32.328125 33.6875 34.8125 36.53125 
Q 39.546875 41.84375 41.421875 45.53125 
Q 43.3125 49.21875 43.3125 52.78125 
Q 43.3125 58.59375 39.234375 62.25 
Q 35.15625 65.921875 28.609375 65.921875 
Q 23.96875 65.921875 18.8125 64.3125 
Q 13.671875 62.703125 7.8125 59.421875 
L 7.8125 69.390625 
Q 13.765625 71.78125 18.9375 73 
Q 24.125 74.21875 28.421875 74.21875 
Q 39.75 74.21875 46.484375 68.546875 
Q 53.21875 62.890625 53.21875 53.421875 
Q 53.21875 48.921875 51.53125 44.890625 
Q 49.859375 40.875 45.40625 35.40625 
Q 44.1875 33.984375 37.640625 27.21875 
Q 31.109375 20.453125 19.1875 8.296875 
z
" id="DejaVuSans-32"/>
       <path d="M 31.78125 66.40625 
Q 24.171875 66.40625 20.328125 58.90625 
Q 16.5 51.421875 16.5 36.375 
Q 16.5 21.390625 20.328125 13.890625 
Q 24.171875 6.390625 31.78125 6.390625 
Q 39.453125 6.390625 43.28125 13.890625 
Q 47.125 21.390625 47.125 36.375 
Q 47.125 51.421875 43.28125 58.90625 
Q 39.453125 66.40625 31.78125 66.40625 
z
M 31.78125 74.21875 
Q 44.046875 74.21875 50.515625 64.515625 
Q 56.984375 54.828125 56.984375 36.375 
Q 56.984375 17.96875 50.515625 8.265625 
Q 44.046875 -1.421875 31.78125 -1.421875 
Q 19.53125 -1.421875 13.0625 8.265625 
Q 6.59375 17.96875 6.59375 36.375 
Q 6.59375 54.828125 13.0625 64.515625 
Q 19.53125 74.21875 31.78125 74.21875 
z
" id="DejaVuSans-30"/>
       <path d="M 40.578125 39.3125 
Q 47.65625 37.796875 51.625 33 
Q 55.609375 28.21875 55.609375 21.1875 
Q 55.609375 10.40625 48.1875 4.484375 
Q 40.765625 -1.421875 27.09375 -1.421875 
Q 22.515625 -1.421875 17.65625 -0.515625 
Q 12.796875 0.390625 7.625 2.203125 
L 7.625 11.71875 
Q 11.71875 9.328125 16.59375 8.109375 
Q 21.484375 6.890625 26.8125 6.890625 
Q 36.078125 6.890625 40.9375 10.546875 
Q 45.796875 14.203125 45.796875 21.1875 
Q 45.796875 27.640625 41.28125 31.265625 
Q 36.765625 34.90625 28.71875 34.90625 
L 20.21875 34.90625 
L 20.21875 43.015625 
L 29.109375 43.015625 
Q 36.375 43.015625 40.234375 45.921875 
Q 44.09375 48.828125 44.09375 54.296875 
Q 44.09375 59.90625 40.109375 62.90625 
Q 36.140625 65.921875 28.71875 65.921875 
Q 24.65625 65.921875 20.015625 65.03125 
Q 15.375 64.15625 9.8125 62.3125 
L 9.8125 71.09375 
Q 15.4375 72.65625 20.34375 73.4375 
Q 25.25 74.21875 29.59375 74.21875 
Q 40.828125 74.21875 47.359375 69.109375 
Q 53.90625 64.015625 53.90625 55.328125 
Q 53.90625 49.265625 50.4375 45.09375 
Q 46.96875 40.921875 40.578125 39.3125 
z
" id="DejaVuSans-33"/>
      </defs>
      <g transform="translate(42.422759 324.461937)scale(0.1 -0.1)">
       <use xlink:href="#DejaVuSans-32"/>
       <use x="63.623047" xlink:href="#DejaVuSans-30"/>
       <use x="127.246094" xlink:href="#DejaVuSans-30"/>
       <use x="190.869141" xlink:href="#DejaVuSans-33"/>
      </g>
     </g>
    </g>
    <g id="xtick_2">
     <g id="line2d_3">
      <path clip-path="url(#pc85dde58d7)" d="M 106.655458 309.8635 
L 106.655458 23.36505 
" style="fill:none;stroke:#b0b0b0;stroke-linecap:square;stroke-width:0.8;"/>
     </g>
     <g id="line2d_4">
      <g>
       <use style="stroke:#000000;stroke-width:0.8;" x="106.655458" xlink:href="#m6b7f2cc2ca" y="309.8635"/>
      </g>
     </g>
     <g id="text_2">
      <!-- 2005 -->
      <defs>
       <path d="M 10.796875 72.90625 
L 49.515625 72.90625 
L 49.515625 64.59375 
L 19.828125 64.59375 
L 19.828125 46.734375 
Q 21.96875 47.46875 24.109375 47.828125 
Q 26.265625 48.1875 28.421875 48.1875 
Q 40.625 48.1875 47.75 41.5 
Q 54.890625 34.8125 54.890625 23.390625 
Q 54.890625 11.625 47.5625 5.09375 
Q 40.234375 -1.421875 26.90625 -1.421875 
Q 22.3125 -1.421875 17.546875 -0.640625 
Q 12.796875 0.140625 7.71875 1.703125 
L 7.71875 11.625 
Q 12.109375 9.234375 16.796875 8.0625 
Q 21.484375 6.890625 26.703125 6.890625 
Q 35.15625 6.890625 40.078125 11.328125 
Q 45.015625 15.765625 45.015625 23.390625 
Q 45.015625 31 40.078125 35.4375 
Q 35.15625 39.890625 26.703125 39.890625 
Q 22.75 39.890625 18.8125 39.015625 
Q 14.890625 38.140625 10.796875 36.28125 
z
" id="DejaVuSans-35"/>
      </defs>
      <g transform="translate(93.930458 324.461937)scale(0.1 -0.1)">
       <use xlink:href="#DejaVuSans-32"/>
       <use x="63.623047" xlink:href="#DejaVuSans-30"/>
       <use x="127.246094" xlink:href="#DejaVuSans-30"/>
       <use x="190.869141" xlink:href="#DejaVuSans-35"/>
      </g>
     </g>
    </g>
    <g id="xtick_3">
     <g id="line2d_5">
      <path clip-path="url(#pc85dde58d7)" d="M 158.092695 309.8635 
L 158.092695 23.36505 
" style="fill:none;stroke:#b0b0b0;stroke-linecap:square;stroke-width:0.8;"/>
     </g>
     <g id="line2d_6">
      <g>
       <use style="stroke:#000000;stroke-width:0.8;" x="158.092695" xlink:href="#m6b7f2cc2ca" y="309.8635"/>
      </g>
     </g>
     <g id="text_3">
      <!-- 2007 -->
      <defs>
       <path d="M 8.203125 72.90625 
L 55.078125 72.90625 
L 55.078125 68.703125 
L 28.609375 0 
L 18.3125 0 
L 43.21875 64.59375 
L 8.203125 64.59375 
z
" id="DejaVuSans-37"/>
      </defs>
      <g transform="translate(145.367695 324.461937)scale(0.1 -0.1)">
       <use xlink:href="#DejaVuSans-32"/>
       <use x="63.623047" xlink:href="#DejaVuSans-30"/>
       <use x="127.246094" xlink:href="#DejaVuSans-30"/>
       <use x="190.869141" xlink:href="#DejaVuSans-37"/>
      </g>
     </g>
    </g>
    <g id="xtick_4">
     <g id="line2d_7">
      <path clip-path="url(#pc85dde58d7)" d="M 209.600394 309.8635 
L 209.600394 23.36505 
" style="fill:none;stroke:#b0b0b0;stroke-linecap:square;stroke-width:0.8;"/>
     </g>
     <g id="line2d_8">
      <g>
       <use style="stroke:#000000;stroke-width:0.8;" x="209.600394" xlink:href="#m6b7f2cc2ca" y="309.8635"/>
      </g>
     </g>
     <g id="text_4">
      <!-- 2009 -->
      <defs>
       <path d="M 10.984375 1.515625 
L 10.984375 10.5 
Q 14.703125 8.734375 18.5 7.8125 
Q 22.3125 6.890625 25.984375 6.890625 
Q 35.75 6.890625 40.890625 13.453125 
Q 46.046875 20.015625 46.78125 33.40625 
Q 43.953125 29.203125 39.59375 26.953125 
Q 35.25 24.703125 29.984375 24.703125 
Q 19.046875 24.703125 12.671875 31.3125 
Q 6.296875 37.9375 6.296875 49.421875 
Q 6.296875 60.640625 12.9375 67.421875 
Q 19.578125 74.21875 30.609375 74.21875 
Q 43.265625 74.21875 49.921875 64.515625 
Q 56.59375 54.828125 56.59375 36.375 
Q 56.59375 19.140625 48.40625 8.859375 
Q 40.234375 -1.421875 26.421875 -1.421875 
Q 22.703125 -1.421875 18.890625 -0.6875 
Q 15.09375 0.046875 10.984375 1.515625 
z
M 30.609375 32.421875 
Q 37.25 32.421875 41.125 36.953125 
Q 45.015625 41.5 45.015625 49.421875 
Q 45.015625 57.28125 41.125 61.84375 
Q 37.25 66.40625 30.609375 66.40625 
Q 23.96875 66.40625 20.09375 61.84375 
Q 16.21875 57.28125 16.21875 49.421875 
Q 16.21875 41.5 20.09375 36.953125 
Q 23.96875 32.421875 30.609375 32.421875 
z
" id="DejaVuSans-39"/>
      </defs>
      <g transform="translate(196.875394 324.461937)scale(0.1 -0.1)">
       <use xlink:href="#DejaVuSans-32"/>
       <use x="63.623047" xlink:href="#DejaVuSans-30"/>
       <use x="127.246094" xlink:href="#DejaVuSans-30"/>
       <use x="190.869141" xlink:href="#DejaVuSans-39"/>
      </g>
     </g>
    </g>
    <g id="xtick_5">
     <g id="line2d_9">
      <path clip-path="url(#pc85dde58d7)" d="M 261.037631 309.8635 
L 261.037631 23.36505 
" style="fill:none;stroke:#b0b0b0;stroke-linecap:square;stroke-width:0.8;"/>
     </g>
     <g id="line2d_10">
      <g>
       <use style="stroke:#000000;stroke-width:0.8;" x="261.037631" xlink:href="#m6b7f2cc2ca" y="309.8635"/>
      </g>
     </g>
     <g id="text_5">
      <!-- 2011 -->
      <defs>
       <path d="M 12.40625 8.296875 
L 28.515625 8.296875 
L 28.515625 63.921875 
L 10.984375 60.40625 
L 10.984375 69.390625 
L 28.421875 72.90625 
L 38.28125 72.90625 
L 38.28125 8.296875 
L 54.390625 8.296875 
L 54.390625 0 
L 12.40625 0 
z
" id="DejaVuSans-31"/>
      </defs>
      <g transform="translate(248.312631 324.461937)scale(0.1 -0.1)">
       <use xlink:href="#DejaVuSans-32"/>
       <use x="63.623047" xlink:href="#DejaVuSans-30"/>
       <use x="127.246094" xlink:href="#DejaVuSans-31"/>
       <use x="190.869141" xlink:href="#DejaVuSans-31"/>
      </g>
     </g>
    </g>
    <g id="xtick_6">
     <g id="line2d_11">
      <path clip-path="url(#pc85dde58d7)" d="M 312.54533 309.8635 
L 312.54533 23.36505 
" style="fill:none;stroke:#b0b0b0;stroke-linecap:square;stroke-width:0.8;"/>
     </g>
     <g id="line2d_12">
      <g>
       <use style="stroke:#000000;stroke-width:0.8;" x="312.54533" xlink:href="#m6b7f2cc2ca" y="309.8635"/>
      </g>
     </g>
     <g id="text_6">
      <!-- 2013 -->
      <g transform="translate(299.82033 324.461937)scale(0.1 -0.1)">
       <use xlink:href="#DejaVuSans-32"/>
       <use x="63.623047" xlink:href="#DejaVuSans-30"/>
       <use x="127.246094" xlink:href="#DejaVuSans-31"/>
       <use x="190.869141" xlink:href="#DejaVuSans-33"/>
      </g>
     </g>
    </g>
    <g id="xtick_7">
     <g id="line2d_13">
      <path clip-path="url(#pc85dde58d7)" d="M 363.982567 309.8635 
L 363.982567 23.36505 
" style="fill:none;stroke:#b0b0b0;stroke-linecap:square;stroke-width:0.8;"/>
     </g>
     <g id="line2d_14">
      <g>
       <use style="stroke:#000000;stroke-width:0.8;" x="363.982567" xlink:href="#m6b7f2cc2ca" y="309.8635"/>
      </g>
     </g>
     <g id="text_7">
      <!-- 2015 -->
      <g transform="translate(351.257567 324.461937)scale(0.1 -0.1)">
       <use xlink:href="#DejaVuSans-32"/>
       <use x="63.623047" xlink:href="#DejaVuSans-30"/>
       <use x="127.246094" xlink:href="#DejaVuSans-31"/>
       <use x="190.869141" xlink:href="#DejaVuSans-35"/>
      </g>
     </g>
    </g>
    <g id="xtick_8">
     <g id="line2d_15">
      <path clip-path="url(#pc85dde58d7)" d="M 415.490266 309.8635 
L 415.490266 23.36505 
" style="fill:none;stroke:#b0b0b0;stroke-linecap:square;stroke-width:0.8;"/>
     </g>
     <g id="line2d_16">
      <g>
       <use style="stroke:#000000;stroke-width:0.8;" x="415.490266" xlink:href="#m6b7f2cc2ca" y="309.8635"/>
      </g>
     </g>
     <g id="text_8">
      <!-- 2017 -->
      <g transform="translate(402.765266 324.461937)scale(0.1 -0.1)">
       <use xlink:href="#DejaVuSans-32"/>
       <use x="63.623047" xlink:href="#DejaVuSans-30"/>
       <use x="127.246094" xlink:href="#DejaVuSans-31"/>
       <use x="190.869141" xlink:href="#DejaVuSans-37"/>
      </g>
     </g>
    </g>
    <g id="text_9">
     <!-- Date -->
     <defs>
      <path d="M 19.671875 64.796875 
L 19.671875 8.109375 
L 31.59375 8.109375 
Q 46.6875 8.109375 53.6875 14.9375 
Q 60.6875 21.78125 60.6875 36.53125 
Q 60.6875 51.171875 53.6875 57.984375 
Q 46.6875 64.796875 31.59375 64.796875 
z
M 9.8125 72.90625 
L 30.078125 72.90625 
Q 51.265625 72.90625 61.171875 64.09375 
Q 71.09375 55.28125 71.09375 36.53125 
Q 71.09375 17.671875 61.125 8.828125 
Q 51.171875 0 30.078125 0 
L 9.8125 0 
z
" id="DejaVuSans-44"/>
      <path d="M 34.28125 27.484375 
Q 23.390625 27.484375 19.1875 25 
Q 14.984375 22.515625 14.984375 16.5 
Q 14.984375 11.71875 18.140625 8.90625 
Q 21.296875 6.109375 26.703125 6.109375 
Q 34.1875 6.109375 38.703125 11.40625 
Q 43.21875 16.703125 43.21875 25.484375 
L 43.21875 27.484375 
z
M 52.203125 31.203125 
L 52.203125 0 
L 43.21875 0 
L 43.21875 8.296875 
Q 40.140625 3.328125 35.546875 0.953125 
Q 30.953125 -1.421875 24.3125 -1.421875 
Q 15.921875 -1.421875 10.953125 3.296875 
Q 6 8.015625 6 15.921875 
Q 6 25.140625 12.171875 29.828125 
Q 18.359375 34.515625 30.609375 34.515625 
L 43.21875 34.515625 
L 43.21875 35.40625 
Q 43.21875 41.609375 39.140625 45 
Q 35.0625 48.390625 27.6875 48.390625 
Q 23 48.390625 18.546875 47.265625 
Q 14.109375 46.140625 10.015625 43.890625 
L 10.015625 52.203125 
Q 14.9375 54.109375 19.578125 55.046875 
Q 24.21875 56 28.609375 56 
Q 40.484375 56 46.34375 49.84375 
Q 52.203125 43.703125 52.203125 31.203125 
z
" id="DejaVuSans-61"/>
      <path d="M 18.3125 70.21875 
L 18.3125 54.6875 
L 36.8125 54.6875 
L 36.8125 47.703125 
L 18.3125 47.703125 
L 18.3125 18.015625 
Q 18.3125 11.328125 20.140625 9.421875 
Q 21.96875 7.515625 27.59375 7.515625 
L 36.8125 7.515625 
L 36.8125 0 
L 27.59375 0 
Q 17.1875 0 13.234375 3.875 
Q 9.28125 7.765625 9.28125 18.015625 
L 9.28125 47.703125 
L 2.6875 47.703125 
L 2.6875 54.6875 
L 9.28125 54.6875 
L 9.28125 70.21875 
z
" id="DejaVuSans-74"/>
      <path d="M 56.203125 29.59375 
L 56.203125 25.203125 
L 14.890625 25.203125 
Q 15.484375 15.921875 20.484375 11.0625 
Q 25.484375 6.203125 34.421875 6.203125 
Q 39.59375 6.203125 44.453125 7.46875 
Q 49.3125 8.734375 54.109375 11.28125 
L 54.109375 2.78125 
Q 49.265625 0.734375 44.1875 -0.34375 
Q 39.109375 -1.421875 33.890625 -1.421875 
Q 20.796875 -1.421875 13.15625 6.1875 
Q 5.515625 13.8125 5.515625 26.8125 
Q 5.515625 40.234375 12.765625 48.109375 
Q 20.015625 56 32.328125 56 
Q 43.359375 56 49.78125 48.890625 
Q 56.203125 41.796875 56.203125 29.59375 
z
M 47.21875 32.234375 
Q 47.125 39.59375 43.09375 43.984375 
Q 39.0625 48.390625 32.421875 48.390625 
Q 24.90625 48.390625 20.390625 44.140625 
Q 15.875 39.890625 15.1875 32.171875 
z
" id="DejaVuSans-65"/>
     </defs>
     <g transform="translate(227.560719 338.140062)scale(0.1 -0.1)">
      <use xlink:href="#DejaVuSans-44"/>
      <use x="77.001953" xlink:href="#DejaVuSans-61"/>
      <use x="138.28125" xlink:href="#DejaVuSans-74"/>
      <use x="177.490234" xlink:href="#DejaVuSans-65"/>
     </g>
    </g>
   </g>
   <g id="matplotlib.axis_2">
    <g id="ytick_1">
     <g id="line2d_17">
      <path clip-path="url(#pc85dde58d7)" d="M 31.543 309.8635 
L 447.48 309.8635 
" style="fill:none;stroke:#b0b0b0;stroke-linecap:square;stroke-width:0.8;"/>
     </g>
     <g id="line2d_18">
      <defs>
       <path d="M 0 0 
L -3.5 0 
" id="ma808d19cec" style="stroke:#000000;stroke-width:0.8;"/>
      </defs>
      <g>
       <use style="stroke:#000000;stroke-width:0.8;" x="31.543" xlink:href="#ma808d19cec" y="309.8635"/>
      </g>
     </g>
     <g id="text_10">
      <!-- 0 -->
      <g transform="translate(18.1805 313.662719)scale(0.1 -0.1)">
       <use xlink:href="#DejaVuSans-30"/>
      </g>
     </g>
    </g>
    <g id="ytick_2">
     <g id="line2d_19">
      <path clip-path="url(#pc85dde58d7)" d="M 31.543 273.238578 
L 447.48 273.238578 
" style="fill:none;stroke:#b0b0b0;stroke-linecap:square;stroke-width:0.8;"/>
     </g>
     <g id="line2d_20">
      <g>
       <use style="stroke:#000000;stroke-width:0.8;" x="31.543" xlink:href="#ma808d19cec" y="273.238578"/>
      </g>
     </g>
     <g id="text_11">
      <!-- 20 -->
      <g transform="translate(11.818 277.037797)scale(0.1 -0.1)">
       <use xlink:href="#DejaVuSans-32"/>
       <use x="63.623047" xlink:href="#DejaVuSans-30"/>
      </g>
     </g>
    </g>
    <g id="ytick_3">
     <g id="line2d_21">
      <path clip-path="url(#pc85dde58d7)" d="M 31.543 236.613657 
L 447.48 236.613657 
" style="fill:none;stroke:#b0b0b0;stroke-linecap:square;stroke-width:0.8;"/>
     </g>
     <g id="line2d_22">
      <g>
       <use style="stroke:#000000;stroke-width:0.8;" x="31.543" xlink:href="#ma808d19cec" y="236.613657"/>
      </g>
     </g>
     <g id="text_12">
      <!-- 40 -->
      <defs>
       <path d="M 37.796875 64.3125 
L 12.890625 25.390625 
L 37.796875 25.390625 
z
M 35.203125 72.90625 
L 47.609375 72.90625 
L 47.609375 25.390625 
L 58.015625 25.390625 
L 58.015625 17.1875 
L 47.609375 17.1875 
L 47.609375 0 
L 37.796875 0 
L 37.796875 17.1875 
L 4.890625 17.1875 
L 4.890625 26.703125 
z
" id="DejaVuSans-34"/>
      </defs>
      <g transform="translate(11.818 240.412875)scale(0.1 -0.1)">
       <use xlink:href="#DejaVuSans-34"/>
       <use x="63.623047" xlink:href="#DejaVuSans-30"/>
      </g>
     </g>
    </g>
    <g id="ytick_4">
     <g id="line2d_23">
      <path clip-path="url(#pc85dde58d7)" d="M 31.543 199.988735 
L 447.48 199.988735 
" style="fill:none;stroke:#b0b0b0;stroke-linecap:square;stroke-width:0.8;"/>
     </g>
     <g id="line2d_24">
      <g>
       <use style="stroke:#000000;stroke-width:0.8;" x="31.543" xlink:href="#ma808d19cec" y="199.988735"/>
      </g>
     </g>
     <g id="text_13">
      <!-- 60 -->
      <defs>
       <path d="M 33.015625 40.375 
Q 26.375 40.375 22.484375 35.828125 
Q 18.609375 31.296875 18.609375 23.390625 
Q 18.609375 15.53125 22.484375 10.953125 
Q 26.375 6.390625 33.015625 6.390625 
Q 39.65625 6.390625 43.53125 10.953125 
Q 47.40625 15.53125 47.40625 23.390625 
Q 47.40625 31.296875 43.53125 35.828125 
Q 39.65625 40.375 33.015625 40.375 
z
M 52.59375 71.296875 
L 52.59375 62.3125 
Q 48.875 64.0625 45.09375 64.984375 
Q 41.3125 65.921875 37.59375 65.921875 
Q 27.828125 65.921875 22.671875 59.328125 
Q 17.53125 52.734375 16.796875 39.40625 
Q 19.671875 43.65625 24.015625 45.921875 
Q 28.375 48.1875 33.59375 48.1875 
Q 44.578125 48.1875 50.953125 41.515625 
Q 57.328125 34.859375 57.328125 23.390625 
Q 57.328125 12.15625 50.6875 5.359375 
Q 44.046875 -1.421875 33.015625 -1.421875 
Q 20.359375 -1.421875 13.671875 8.265625 
Q 6.984375 17.96875 6.984375 36.375 
Q 6.984375 53.65625 15.1875 63.9375 
Q 23.390625 74.21875 37.203125 74.21875 
Q 40.921875 74.21875 44.703125 73.484375 
Q 48.484375 72.75 52.59375 71.296875 
z
" id="DejaVuSans-36"/>
      </defs>
      <g transform="translate(11.818 203.787954)scale(0.1 -0.1)">
       <use xlink:href="#DejaVuSans-36"/>
       <use x="63.623047" xlink:href="#DejaVuSans-30"/>
      </g>
     </g>
    </g>
    <g id="ytick_5">
     <g id="line2d_25">
      <path clip-path="url(#pc85dde58d7)" d="M 31.543 163.363813 
L 447.48 163.363813 
" style="fill:none;stroke:#b0b0b0;stroke-linecap:square;stroke-width:0.8;"/>
     </g>
     <g id="line2d_26">
      <g>
       <use style="stroke:#000000;stroke-width:0.8;" x="31.543" xlink:href="#ma808d19cec" y="163.363813"/>
      </g>
     </g>
     <g id="text_14">
      <!-- 80 -->
      <defs>
       <path d="M 31.78125 34.625 
Q 24.75 34.625 20.71875 30.859375 
Q 16.703125 27.09375 16.703125 20.515625 
Q 16.703125 13.921875 20.71875 10.15625 
Q 24.75 6.390625 31.78125 6.390625 
Q 38.8125 6.390625 42.859375 10.171875 
Q 46.921875 13.96875 46.921875 20.515625 
Q 46.921875 27.09375 42.890625 30.859375 
Q 38.875 34.625 31.78125 34.625 
z
M 21.921875 38.8125 
Q 15.578125 40.375 12.03125 44.71875 
Q 8.5 49.078125 8.5 55.328125 
Q 8.5 64.0625 14.71875 69.140625 
Q 20.953125 74.21875 31.78125 74.21875 
Q 42.671875 74.21875 48.875 69.140625 
Q 55.078125 64.0625 55.078125 55.328125 
Q 55.078125 49.078125 51.53125 44.71875 
Q 48 40.375 41.703125 38.8125 
Q 48.828125 37.15625 52.796875 32.3125 
Q 56.78125 27.484375 56.78125 20.515625 
Q 56.78125 9.90625 50.3125 4.234375 
Q 43.84375 -1.421875 31.78125 -1.421875 
Q 19.734375 -1.421875 13.25 4.234375 
Q 6.78125 9.90625 6.78125 20.515625 
Q 6.78125 27.484375 10.78125 32.3125 
Q 14.796875 37.15625 21.921875 38.8125 
z
M 18.3125 54.390625 
Q 18.3125 48.734375 21.84375 45.5625 
Q 25.390625 42.390625 31.78125 42.390625 
Q 38.140625 42.390625 41.71875 45.5625 
Q 45.3125 48.734375 45.3125 54.390625 
Q 45.3125 60.0625 41.71875 63.234375 
Q 38.140625 66.40625 31.78125 66.40625 
Q 25.390625 66.40625 21.84375 63.234375 
Q 18.3125 60.0625 18.3125 54.390625 
z
" id="DejaVuSans-38"/>
      </defs>
      <g transform="translate(11.818 167.163032)scale(0.1 -0.1)">
       <use xlink:href="#DejaVuSans-38"/>
       <use x="63.623047" xlink:href="#DejaVuSans-30"/>
      </g>
     </g>
    </g>
    <g id="ytick_6">
     <g id="line2d_27">
      <path clip-path="url(#pc85dde58d7)" d="M 31.543 126.738891 
L 447.48 126.738891 
" style="fill:none;stroke:#b0b0b0;stroke-linecap:square;stroke-width:0.8;"/>
     </g>
     <g id="line2d_28">
      <g>
       <use style="stroke:#000000;stroke-width:0.8;" x="31.543" xlink:href="#ma808d19cec" y="126.738891"/>
      </g>
     </g>
     <g id="text_15">
      <!-- 100 -->
      <g transform="translate(5.4555 130.53811)scale(0.1 -0.1)">
       <use xlink:href="#DejaVuSans-31"/>
       <use x="63.623047" xlink:href="#DejaVuSans-30"/>
       <use x="127.246094" xlink:href="#DejaVuSans-30"/>
      </g>
     </g>
    </g>
    <g id="ytick_7">
     <g id="line2d_29">
      <path clip-path="url(#pc85dde58d7)" d="M 31.543 90.11397 
L 447.48 90.11397 
" style="fill:none;stroke:#b0b0b0;stroke-linecap:square;stroke-width:0.8;"/>
     </g>
     <g id="line2d_30">
      <g>
       <use style="stroke:#000000;stroke-width:0.8;" x="31.543" xlink:href="#ma808d19cec" y="90.11397"/>
      </g>
     </g>
     <g id="text_16">
      <!-- 120 -->
      <g transform="translate(5.4555 93.913189)scale(0.1 -0.1)">
       <use xlink:href="#DejaVuSans-31"/>
       <use x="63.623047" xlink:href="#DejaVuSans-32"/>
       <use x="127.246094" xlink:href="#DejaVuSans-30"/>
      </g>
     </g>
    </g>
    <g id="ytick_8">
     <g id="line2d_31">
      <path clip-path="url(#pc85dde58d7)" d="M 31.543 53.489048 
L 447.48 53.489048 
" style="fill:none;stroke:#b0b0b0;stroke-linecap:square;stroke-width:0.8;"/>
     </g>
     <g id="line2d_32">
      <g>
       <use style="stroke:#000000;stroke-width:0.8;" x="31.543" xlink:href="#ma808d19cec" y="53.489048"/>
      </g>
     </g>
     <g id="text_17">
      <!-- 140 -->
      <g transform="translate(5.4555 57.288267)scale(0.1 -0.1)">
       <use xlink:href="#DejaVuSans-31"/>
       <use x="63.623047" xlink:href="#DejaVuSans-34"/>
       <use x="127.246094" xlink:href="#DejaVuSans-30"/>
      </g>
     </g>
    </g>
   </g>
   <g id="line2d_33">
    <path clip-path="url(#pc85dde58d7)" d="M 31.543 309.8635 
L 447.48 309.8635 
L 447.48 309.8635 
" style="fill:none;stroke:#1f77b4;stroke-linecap:square;stroke-width:1.5;"/>
   </g>
   <g id="patch_3">
    <path d="M 31.543 309.8635 
L 31.543 23.36505 
" style="fill:none;stroke:#000000;stroke-linecap:square;stroke-linejoin:miter;stroke-width:0.8;"/>
   </g>
   <g id="patch_4">
    <path d="M 447.48 309.8635 
L 447.48 23.36505 
" style="fill:none;stroke:#000000;stroke-linecap:square;stroke-linejoin:miter;stroke-width:0.8;"/>
   </g>
   <g id="patch_5">
    <path d="M 31.543 309.8635 
L 447.48 309.8635 
" style="fill:none;stroke:#000000;stroke-linecap:square;stroke-linejoin:miter;stroke-width:0.8;"/>
   </g>
   <g id="patch_6">
    <path d="M 31.543 23.36505 
L 447.48 23.36505 
" style="fill:none;stroke:#000000;stroke-linecap:square;stroke-linejoin:miter;stroke-width:0.8;"/>
   </g>
   <g id="text_18">
    <!-- Monthly gross load trend (MW) -->
    <defs>
     <path d="M 9.8125 72.90625 
L 24.515625 72.90625 
L 43.109375 23.296875 
L 61.8125 72.90625 
L 76.515625 72.90625 
L 76.515625 0 
L 66.890625 0 
L 66.890625 64.015625 
L 48.09375 14.015625 
L 38.1875 14.015625 
L 19.390625 64.015625 
L 19.390625 0 
L 9.8125 0 
z
" id="DejaVuSans-4d"/>
     <path d="M 30.609375 48.390625 
Q 23.390625 48.390625 19.1875 42.75 
Q 14.984375 37.109375 14.984375 27.296875 
Q 14.984375 17.484375 19.15625 11.84375 
Q 23.34375 6.203125 30.609375 6.203125 
Q 37.796875 6.203125 41.984375 11.859375 
Q 46.1875 17.53125 46.1875 27.296875 
Q 46.1875 37.015625 41.984375 42.703125 
Q 37.796875 48.390625 30.609375 48.390625 
z
M 30.609375 56 
Q 42.328125 56 49.015625 48.375 
Q 55.71875 40.765625 55.71875 27.296875 
Q 55.71875 13.875 49.015625 6.21875 
Q 42.328125 -1.421875 30.609375 -1.421875 
Q 18.84375 -1.421875 12.171875 6.21875 
Q 5.515625 13.875 5.515625 27.296875 
Q 5.515625 40.765625 12.171875 48.375 
Q 18.84375 56 30.609375 56 
z
" id="DejaVuSans-6f"/>
     <path d="M 54.890625 33.015625 
L 54.890625 0 
L 45.90625 0 
L 45.90625 32.71875 
Q 45.90625 40.484375 42.875 44.328125 
Q 39.84375 48.1875 33.796875 48.1875 
Q 26.515625 48.1875 22.3125 43.546875 
Q 18.109375 38.921875 18.109375 30.90625 
L 18.109375 0 
L 9.078125 0 
L 9.078125 54.6875 
L 18.109375 54.6875 
L 18.109375 46.1875 
Q 21.34375 51.125 25.703125 53.5625 
Q 30.078125 56 35.796875 56 
Q 45.21875 56 50.046875 50.171875 
Q 54.890625 44.34375 54.890625 33.015625 
z
" id="DejaVuSans-6e"/>
     <path d="M 54.890625 33.015625 
L 54.890625 0 
L 45.90625 0 
L 45.90625 32.71875 
Q 45.90625 40.484375 42.875 44.328125 
Q 39.84375 48.1875 33.796875 48.1875 
Q 26.515625 48.1875 22.3125 43.546875 
Q 18.109375 38.921875 18.109375 30.90625 
L 18.109375 0 
L 9.078125 0 
L 9.078125 75.984375 
L 18.109375 75.984375 
L 18.109375 46.1875 
Q 21.34375 51.125 25.703125 53.5625 
Q 30.078125 56 35.796875 56 
Q 45.21875 56 50.046875 50.171875 
Q 54.890625 44.34375 54.890625 33.015625 
z
" id="DejaVuSans-68"/>
     <path d="M 9.421875 75.984375 
L 18.40625 75.984375 
L 18.40625 0 
L 9.421875 0 
z
" id="DejaVuSans-6c"/>
     <path d="M 32.171875 -5.078125 
Q 28.375 -14.84375 24.75 -17.8125 
Q 21.140625 -20.796875 15.09375 -20.796875 
L 7.90625 -20.796875 
L 7.90625 -13.28125 
L 13.1875 -13.28125 
Q 16.890625 -13.28125 18.9375 -11.515625 
Q 21 -9.765625 23.484375 -3.21875 
L 25.09375 0.875 
L 2.984375 54.6875 
L 12.5 54.6875 
L 29.59375 11.921875 
L 46.6875 54.6875 
L 56.203125 54.6875 
z
" id="DejaVuSans-79"/>
     <path id="DejaVuSans-20"/>
     <path d="M 45.40625 27.984375 
Q 45.40625 37.75 41.375 43.109375 
Q 37.359375 48.484375 30.078125 48.484375 
Q 22.859375 48.484375 18.828125 43.109375 
Q 14.796875 37.75 14.796875 27.984375 
Q 14.796875 18.265625 18.828125 12.890625 
Q 22.859375 7.515625 30.078125 7.515625 
Q 37.359375 7.515625 41.375 12.890625 
Q 45.40625 18.265625 45.40625 27.984375 
z
M 54.390625 6.78125 
Q 54.390625 -7.171875 48.1875 -13.984375 
Q 42 -20.796875 29.203125 -20.796875 
Q 24.46875 -20.796875 20.265625 -20.09375 
Q 16.0625 -19.390625 12.109375 -17.921875 
L 12.109375 -9.1875 
Q 16.0625 -11.328125 19.921875 -12.34375 
Q 23.78125 -13.375 27.78125 -13.375 
Q 36.625 -13.375 41.015625 -8.765625 
Q 45.40625 -4.15625 45.40625 5.171875 
L 45.40625 9.625 
Q 42.625 4.78125 38.28125 2.390625 
Q 33.9375 0 27.875 0 
Q 17.828125 0 11.671875 7.65625 
Q 5.515625 15.328125 5.515625 27.984375 
Q 5.515625 40.671875 11.671875 48.328125 
Q 17.828125 56 27.875 56 
Q 33.9375 56 38.28125 53.609375 
Q 42.625 51.21875 45.40625 46.390625 
L 45.40625 54.6875 
L 54.390625 54.6875 
z
" id="DejaVuSans-67"/>
     <path d="M 41.109375 46.296875 
Q 39.59375 47.171875 37.8125 47.578125 
Q 36.03125 48 33.890625 48 
Q 26.265625 48 22.1875 43.046875 
Q 18.109375 38.09375 18.109375 28.8125 
L 18.109375 0 
L 9.078125 0 
L 9.078125 54.6875 
L 18.109375 54.6875 
L 18.109375 46.1875 
Q 20.953125 51.171875 25.484375 53.578125 
Q 30.03125 56 36.53125 56 
Q 37.453125 56 38.578125 55.875 
Q 39.703125 55.765625 41.0625 55.515625 
z
" id="DejaVuSans-72"/>
     <path d="M 44.28125 53.078125 
L 44.28125 44.578125 
Q 40.484375 46.53125 36.375 47.5 
Q 32.28125 48.484375 27.875 48.484375 
Q 21.1875 48.484375 17.84375 46.4375 
Q 14.5 44.390625 14.5 40.28125 
Q 14.5 37.15625 16.890625 35.375 
Q 19.28125 33.59375 26.515625 31.984375 
L 29.59375 31.296875 
Q 39.15625 29.25 43.1875 25.515625 
Q 47.21875 21.78125 47.21875 15.09375 
Q 47.21875 7.46875 41.1875 3.015625 
Q 35.15625 -1.421875 24.609375 -1.421875 
Q 20.21875 -1.421875 15.453125 -0.5625 
Q 10.6875 0.296875 5.421875 2 
L 5.421875 11.28125 
Q 10.40625 8.6875 15.234375 7.390625 
Q 20.0625 6.109375 24.8125 6.109375 
Q 31.15625 6.109375 34.5625 8.28125 
Q 37.984375 10.453125 37.984375 14.40625 
Q 37.984375 18.0625 35.515625 20.015625 
Q 33.0625 21.96875 24.703125 23.78125 
L 21.578125 24.515625 
Q 13.234375 26.265625 9.515625 29.90625 
Q 5.8125 33.546875 5.8125 39.890625 
Q 5.8125 47.609375 11.28125 51.796875 
Q 16.75 56 26.8125 56 
Q 31.78125 56 36.171875 55.265625 
Q 40.578125 54.546875 44.28125 53.078125 
z
" id="DejaVuSans-73"/>
     <path d="M 45.40625 46.390625 
L 45.40625 75.984375 
L 54.390625 75.984375 
L 54.390625 0 
L 45.40625 0 
L 45.40625 8.203125 
Q 42.578125 3.328125 38.25 0.953125 
Q 33.9375 -1.421875 27.875 -1.421875 
Q 17.96875 -1.421875 11.734375 6.484375 
Q 5.515625 14.40625 5.515625 27.296875 
Q 5.515625 40.1875 11.734375 48.09375 
Q 17.96875 56 27.875 56 
Q 33.9375 56 38.25 53.625 
Q 42.578125 51.265625 45.40625 46.390625 
z
M 14.796875 27.296875 
Q 14.796875 17.390625 18.875 11.75 
Q 22.953125 6.109375 30.078125 6.109375 
Q 37.203125 6.109375 41.296875 11.75 
Q 45.40625 17.390625 45.40625 27.296875 
Q 45.40625 37.203125 41.296875 42.84375 
Q 37.203125 48.484375 30.078125 48.484375 
Q 22.953125 48.484375 18.875 42.84375 
Q 14.796875 37.203125 14.796875 27.296875 
z
" id="DejaVuSans-64"/>
     <path d="M 31 75.875 
Q 24.46875 64.65625 21.28125 53.65625 
Q 18.109375 42.671875 18.109375 31.390625 
Q 18.109375 20.125 21.3125 9.0625 
Q 24.515625 -2 31 -13.1875 
L 23.1875 -13.1875 
Q 15.875 -1.703125 12.234375 9.375 
Q 8.59375 20.453125 8.59375 31.390625 
Q 8.59375 42.28125 12.203125 53.3125 
Q 15.828125 64.359375 23.1875 75.875 
z
" id="DejaVuSans-28"/>
     <path d="M 3.328125 72.90625 
L 13.28125 72.90625 
L 28.609375 11.28125 
L 43.890625 72.90625 
L 54.984375 72.90625 
L 70.3125 11.28125 
L 85.59375 72.90625 
L 95.609375 72.90625 
L 77.296875 0 
L 64.890625 0 
L 49.515625 63.28125 
L 33.984375 0 
L 21.578125 0 
z
" id="DejaVuSans-57"/>
     <path d="M 8.015625 75.875 
L 15.828125 75.875 
Q 23.140625 64.359375 26.78125 53.3125 
Q 30.421875 42.28125 30.421875 31.390625 
Q 30.421875 20.453125 26.78125 9.375 
Q 23.140625 -1.703125 15.828125 -13.1875 
L 8.015625 -13.1875 
Q 14.5 -2 17.703125 9.0625 
Q 20.90625 20.125 20.90625 31.390625 
Q 20.90625 42.671875 17.703125 53.65625 
Q 14.5 64.65625 8.015625 75.875 
z
" id="DejaVuSans-29"/>
    </defs>
    <g transform="translate(146.928688 17.36505)scale(0.12 -0.12)">
     <use xlink:href="#DejaVuSans-4d"/>
     <use x="86.279297" xlink:href="#DejaVuSans-6f"/>
     <use x="147.460938" xlink:href="#DejaVuSans-6e"/>
     <use x="210.839844" xlink:href="#DejaVuSans-74"/>
     <use x="250.048828" xlink:href="#DejaVuSans-68"/>
     <use x="313.427734" xlink:href="#DejaVuSans-6c"/>
     <use x="341.210938" xlink:href="#DejaVuSans-79"/>
     <use x="400.390625" xlink:href="#DejaVuSans-20"/>
     <use x="432.177734" xlink:href="#DejaVuSans-67"/>
     <use x="495.654297" xlink:href="#DejaVuSans-72"/>
     <use x="536.736328" xlink:href="#DejaVuSans-6f"/>
     <use x="597.917969" xlink:href="#DejaVuSans-73"/>
     <use x="650.017578" xlink:href="#DejaVuSans-73"/>
     <use x="702.117188" xlink:href="#DejaVuSans-20"/>
     <use x="733.904297" xlink:href="#DejaVuSans-6c"/>
     <use x="761.6875" xlink:href="#DejaVuSans-6f"/>
     <use x="822.869141" xlink:href="#DejaVuSans-61"/>
     <use x="884.148438" xlink:href="#DejaVuSans-64"/>
     <use x="947.625" xlink:href="#DejaVuSans-20"/>
     <use x="979.412109" xlink:href="#DejaVuSans-74"/>
     <use x="1018.621094" xlink:href="#DejaVuSans-72"/>
     <use x="1059.703125" xlink:href="#DejaVuSans-65"/>
     <use x="1121.226562" xlink:href="#DejaVuSans-6e"/>
     <use x="1184.605469" xlink:href="#DejaVuSans-64"/>
     <use x="1248.082031" xlink:href="#DejaVuSans-20"/>
     <use x="1279.869141" xlink:href="#DejaVuSans-28"/>
     <use x="1318.882812" xlink:href="#DejaVuSans-4d"/>
     <use x="1405.162109" xlink:href="#DejaVuSans-57"/>
     <use x="1504.039062" xlink:href="#DejaVuSans-29"/>
    </g>
   </g>
  </g>
 </g>
 <defs>
  <clipPath id="pc85dde58d7">
   <rect height="286.49845" width="415.937" x="31.543" y="23.36505"/>
  </clipPath>
 </defs>
</svg>
