<?xml version="1.0" encoding="utf-8" standalone="no"?>
<!DOCTYPE svg PUBLIC "-//W3C//DTD SVG 1.1//EN"
  "http://www.w3.org/Graphics/SVG/1.1/DTD/svg11.dtd">
<!-- Created with matplotlib (http://matplotlib.org/) -->
<svg height="345.6pt" version="1.1" viewBox="0 0 460.8 345.6" width="460.8pt" xmlns="http://www.w3.org/2000/svg" xmlns:xlink="http://www.w3.org/1999/xlink">
 <defs>
  <style type="text/css">
*{stroke-linecap:butt;stroke-linejoin:round;}
  </style>
 </defs>
 <g id="figure_1">
  <g id="patch_1">
   <path d="M 0 345.6 
L 460.8 345.6 
L 460.8 0 
L 0 0 
z
" style="fill:none;"/>
  </g>
  <g id="axes_1">
   <g id="patch_2">
    <path d="M 31.543 309.8635 
L 447.48 309.8635 
L 447.48 23.36505 
L 31.543 23.36505 
z
" style="fill:none;"/>
   </g>
   <g id="PolyCollection_1">
    <path clip-path="url(#pdd88763f72)" d="M 31.543 309.8635 
L 31.543 309.8635 
L 34.330299 309.8635 
L 37.027686 309.8635 
L 39.814985 309.8635 
L 42.512372 265.568749 
L 45.299671 309.8635 
L 48.086971 235.448318 
L 50.604531 309.8635 
L 53.391831 309.8635 
L 56.089217 205.327887 
L 58.876517 309.8635 
L 61.573903 309.8635 
L 64.361203 302.77634 
L 67.148502 212.415048 
L 69.845888 238.991898 
L 72.633188 309.8635 
L 75.330574 309.8635 
L 78.117874 143.315236 
L 80.905173 309.8635 
L 83.422734 309.8635 
L 86.210033 205.327887 
L 88.90742 208.871468 
L 91.694719 309.8635 
L 94.392106 309.8635 
L 97.179405 217.730418 
L 99.966704 217.730418 
L 102.664091 309.8635 
L 105.45139 309.8635 
L 108.148777 309.8635 
L 110.936076 309.8635 
L 113.723376 210.643258 
L 116.330849 205.327887 
L 119.118149 308.09171 
L 121.815535 309.8635 
L 124.602835 309.8635 
L 127.300221 309.8635 
L 130.087521 238.991898 
L 132.87482 309.8635 
L 135.572206 309.8635 
L 138.359506 215.958628 
L 141.056892 309.8635 
L 143.844192 309.8635 
L 146.631491 309.8635 
L 149.149052 309.8635 
L 151.936351 309.8635 
L 154.633738 145.087026 
L 157.421037 309.8635 
L 160.118424 143.315236 
L 162.905723 215.958628 
L 165.693022 212.415048 
L 168.390409 217.730418 
L 171.177708 208.871468 
L 173.875095 309.8635 
L 176.662394 150.402396 
L 179.449694 207.099677 
L 181.967254 141.543446 
L 184.754554 221.273998 
L 187.45194 212.415048 
L 190.23924 309.8635 
L 192.936626 309.8635 
L 195.723926 309.8635 
L 198.511225 309.8635 
L 201.208612 201.784307 
L 203.995911 308.09171 
L 206.693297 175.207457 
L 209.480597 309.8635 
L 212.267896 309.8635 
L 214.785457 143.315236 
L 217.572756 309.8635 
L 220.270143 309.8635 
L 223.057442 309.8635 
L 225.754829 309.8635 
L 228.542128 309.8635 
L 231.329428 224.817578 
L 234.026814 168.120297 
L 236.814113 309.8635 
L 239.5115 309.8635 
L 242.298799 302.77634 
L 245.086099 166.348506 
L 247.693572 208.871468 
L 250.480872 309.8635 
L 253.178258 309.8635 
L 255.965558 217.730418 
L 258.662944 309.8635 
L 261.450244 309.8635 
L 264.237543 309.8635 
L 266.93493 214.186838 
L 269.722229 309.8635 
L 272.419615 166.348506 
L 275.206915 210.643258 
L 277.994214 309.8635 
L 280.511775 309.8635 
L 283.299074 309.8635 
L 285.996461 309.8635 
L 288.78376 309.8635 
L 291.481147 309.8635 
L 294.268446 166.348506 
L 297.055746 210.643258 
L 299.753132 198.240727 
L 302.540431 166.348506 
L 305.237818 212.415048 
L 308.025117 309.8635 
L 310.812417 235.448318 
L 313.329978 210.643258 
L 316.117277 166.348506 
L 318.814663 309.8635 
L 321.601963 309.8635 
L 324.299349 166.348506 
L 327.086649 212.415048 
L 329.873948 309.8635 
L 332.571335 309.8635 
L 335.358634 212.415048 
L 338.056021 309.8635 
L 340.84332 201.784307 
L 343.630619 214.186838 
L 346.14818 210.643258 
L 348.935479 238.991898 
L 351.632866 309.8635 
L 354.420165 309.8635 
L 357.117552 215.958628 
L 359.904851 214.186838 
L 362.692151 168.120297 
L 365.389537 309.8635 
L 368.176837 309.8635 
L 370.874223 309.8635 
L 373.661522 233.676528 
L 376.448822 309.8635 
L 379.056296 212.415048 
L 381.843595 212.415048 
L 384.540981 309.8635 
L 387.328281 217.730418 
L 390.025667 309.8635 
L 392.812967 212.415048 
L 395.600266 309.8635 
L 398.297653 198.240727 
L 401.084952 214.186838 
L 403.782339 309.8635 
L 406.569638 168.120297 
L 409.356937 210.643258 
L 411.874498 210.643258 
L 414.661797 309.8635 
L 417.359184 169.892087 
L 420.146483 309.8635 
L 422.84387 189.381777 
L 425.631169 238.991898 
L 428.418469 168.120297 
L 431.115855 309.8635 
L 433.903155 214.186838 
L 436.600541 187.609987 
L 439.38784 309.8635 
L 442.17514 212.415048 
L 444.692701 226.589368 
L 447.48 309.8635 
L 447.48 79.530794 
L 447.48 79.530794 
L 444.692701 77.759004 
L 442.17514 83.074374 
L 439.38784 86.617955 
L 436.600541 81.302584 
L 433.903155 86.617955 
L 431.115855 86.617955 
L 428.418469 84.846165 
L 425.631169 86.617955 
L 422.84387 84.846165 
L 420.146483 79.530794 
L 417.359184 86.617955 
L 414.661797 93.705115 
L 411.874498 95.476905 
L 409.356937 88.389745 
L 406.569638 91.933325 
L 403.782339 86.617955 
L 401.084952 88.389745 
L 398.297653 84.846165 
L 395.600266 84.846165 
L 392.812967 86.617955 
L 390.025667 86.617955 
L 387.328281 90.161535 
L 384.540981 100.792275 
L 381.843595 91.933325 
L 379.056296 81.302584 
L 376.448822 88.389745 
L 373.661522 68.900054 
L 370.874223 93.705115 
L 368.176837 88.389745 
L 365.389537 84.846165 
L 362.692151 86.617955 
L 359.904851 84.846165 
L 357.117552 81.302584 
L 354.420165 88.389745 
L 351.632866 83.074374 
L 348.935479 83.074374 
L 346.14818 79.530794 
L 343.630619 77.759004 
L 340.84332 79.530794 
L 338.056021 77.759004 
L 335.358634 77.759004 
L 332.571335 79.530794 
L 329.873948 79.530794 
L 327.086649 79.530794 
L 324.299349 77.759004 
L 321.601963 75.987214 
L 318.814663 75.987214 
L 316.117277 74.215424 
L 313.329978 70.671844 
L 310.812417 72.443634 
L 308.025117 70.671844 
L 305.237818 75.987214 
L 302.540431 75.987214 
L 299.753132 74.215424 
L 297.055746 77.759004 
L 294.268446 74.215424 
L 291.481147 75.987214 
L 288.78376 72.443634 
L 285.996461 198.240727 
L 283.299074 74.215424 
L 280.511775 75.987214 
L 277.994214 70.671844 
L 275.206915 74.215424 
L 272.419615 75.987214 
L 269.722229 74.215424 
L 266.93493 77.759004 
L 264.237543 79.530794 
L 261.450244 75.987214 
L 258.662944 83.074374 
L 255.965558 198.240727 
L 253.178258 77.759004 
L 250.480872 81.302584 
L 247.693572 81.302584 
L 245.086099 79.530794 
L 242.298799 77.759004 
L 239.5115 83.074374 
L 236.814113 79.530794 
L 234.026814 81.302584 
L 231.329428 75.987214 
L 228.542128 81.302584 
L 225.754829 79.530794 
L 223.057442 75.987214 
L 220.270143 84.846165 
L 217.572756 93.705115 
L 214.785457 67.128264 
L 212.267896 95.476905 
L 209.480597 70.671844 
L 206.693297 58.269314 
L 203.995911 70.671844 
L 201.208612 72.443634 
L 198.511225 72.443634 
L 195.723926 72.443634 
L 192.936626 72.443634 
L 190.23924 134.456286 
L 187.45194 72.443634 
L 184.754554 72.443634 
L 181.967254 70.671844 
L 179.449694 45.866784 
L 176.662394 68.900054 
L 173.875095 72.443634 
L 171.177708 75.987214 
L 168.390409 83.074374 
L 165.693022 79.530794 
L 162.905723 84.846165 
L 160.118424 83.074374 
L 157.421037 81.302584 
L 154.633738 75.987214 
L 151.936351 37.007833 
L 149.149052 309.8635 
L 146.631491 309.8635 
L 143.844192 70.671844 
L 141.056892 72.443634 
L 138.359506 74.215424 
L 135.572206 75.987214 
L 132.87482 83.074374 
L 130.087521 79.530794 
L 127.300221 81.302584 
L 124.602835 88.389745 
L 121.815535 72.443634 
L 119.118149 70.671844 
L 116.330849 68.900054 
L 113.723376 65.356474 
L 110.936076 70.671844 
L 108.148777 194.697147 
L 105.45139 309.8635 
L 102.664091 90.161535 
L 99.966704 83.074374 
L 97.179405 86.617955 
L 94.392106 83.074374 
L 91.694719 86.617955 
L 88.90742 77.759004 
L 86.210033 77.759004 
L 83.422734 90.161535 
L 80.905173 72.443634 
L 78.117874 77.759004 
L 75.330574 79.530794 
L 72.633188 83.074374 
L 69.845888 86.617955 
L 67.148502 83.074374 
L 64.361203 81.302584 
L 61.573903 95.476905 
L 58.876517 93.705115 
L 56.089217 91.933325 
L 53.391831 86.617955 
L 50.604531 88.389745 
L 48.086971 86.617955 
L 45.299671 65.356474 
L 42.512372 70.671844 
L 39.814985 72.443634 
L 37.027686 86.617955 
L 34.330299 309.8635 
L 31.543 309.8635 
z
" style="fill:#808080;fill-opacity:0.3;"/>
   </g>
   <g id="PolyCollection_2">
    <path clip-path="url(#pdd88763f72)" d="M 31.543 309.8635 
L 31.543 309.8635 
L 34.330299 309.8635 
L 37.027686 309.8635 
L 39.814985 309.8635 
L 42.512372 139.771656 
L 45.299671 203.556097 
L 48.086971 139.771656 
L 50.604531 205.327887 
L 53.391831 141.543446 
L 56.089217 141.543446 
L 58.876517 141.543446 
L 61.573903 139.771656 
L 64.361203 139.771656 
L 67.148502 139.771656 
L 69.845888 141.543446 
L 72.633188 139.771656 
L 75.330574 205.327887 
L 78.117874 100.792275 
L 80.905173 104.335855 
L 83.422734 136.228076 
L 86.210033 139.771656 
L 88.90742 139.771656 
L 91.694719 208.871468 
L 94.392106 139.771656 
L 97.179405 143.315236 
L 99.966704 139.771656 
L 102.664091 141.543446 
L 105.45139 309.8635 
L 108.148777 309.8635 
L 110.936076 205.327887 
L 113.723376 139.771656 
L 116.330849 99.020485 
L 119.118149 99.463432 
L 121.815535 102.564065 
L 124.602835 139.771656 
L 127.300221 139.771656 
L 130.087521 123.825545 
L 132.87482 139.771656 
L 135.572206 141.543446 
L 138.359506 139.771656 
L 141.056892 139.771656 
L 143.844192 139.771656 
L 146.631491 309.8635 
L 149.149052 309.8635 
L 151.936351 309.8635 
L 154.633738 139.771656 
L 157.421037 139.771656 
L 160.118424 139.771656 
L 162.905723 139.771656 
L 165.693022 141.543446 
L 168.390409 141.543446 
L 171.177708 141.543446 
L 173.875095 141.543446 
L 176.662394 136.228076 
L 179.449694 137.999866 
L 181.967254 139.771656 
L 184.754554 139.771656 
L 187.45194 139.771656 
L 190.23924 309.8635 
L 192.936626 309.8635 
L 195.723926 309.8635 
L 198.511225 207.099677 
L 201.208612 139.771656 
L 203.995911 141.543446 
L 206.693297 136.228076 
L 209.480597 141.543446 
L 212.267896 309.8635 
L 214.785457 141.543446 
L 217.572756 141.543446 
L 220.270143 309.8635 
L 223.057442 309.8635 
L 225.754829 309.8635 
L 228.542128 166.348506 
L 231.329428 164.576716 
L 234.026814 157.489556 
L 236.814113 166.348506 
L 239.5115 166.348506 
L 242.298799 166.348506 
L 245.086099 166.348506 
L 247.693572 166.348506 
L 250.480872 309.8635 
L 253.178258 210.643258 
L 255.965558 210.643258 
L 258.662944 210.643258 
L 261.450244 166.348506 
L 264.237543 166.348506 
L 266.93493 166.348506 
L 269.722229 141.543446 
L 272.419615 145.087026 
L 275.206915 166.348506 
L 277.994214 166.348506 
L 280.511775 166.348506 
L 283.299074 166.348506 
L 285.996461 309.8635 
L 288.78376 208.871468 
L 291.481147 166.348506 
L 294.268446 162.804926 
L 297.055746 166.348506 
L 299.753132 166.348506 
L 302.540431 159.261346 
L 305.237818 166.348506 
L 308.025117 168.120297 
L 310.812417 141.543446 
L 313.329978 145.087026 
L 316.117277 153.945976 
L 318.814663 162.804926 
L 321.601963 166.348506 
L 324.299349 141.543446 
L 327.086649 145.087026 
L 329.873948 145.087026 
L 332.571335 141.543446 
L 335.358634 145.087026 
L 338.056021 166.348506 
L 340.84332 159.704294 
L 343.630619 168.120297 
L 346.14818 168.120297 
L 348.935479 168.120297 
L 351.632866 168.120297 
L 354.420165 210.643258 
L 357.117552 168.120297 
L 359.904851 168.120297 
L 362.692151 168.120297 
L 365.389537 168.120297 
L 368.176837 166.348506 
L 370.874223 309.8635 
L 373.661522 168.120297 
L 376.448822 168.120297 
L 379.056296 168.120297 
L 381.843595 168.120297 
L 384.540981 168.120297 
L 387.328281 168.120297 
L 390.025667 168.120297 
L 392.812967 168.120297 
L 395.600266 168.120297 
L 398.297653 168.120297 
L 401.084952 168.120297 
L 403.782339 168.120297 
L 406.569638 168.120297 
L 409.356937 168.120297 
L 411.874498 168.120297 
L 414.661797 169.892087 
L 417.359184 168.120297 
L 420.146483 168.120297 
L 422.84387 169.892087 
L 425.631169 168.120297 
L 428.418469 168.120297 
L 431.115855 168.120297 
L 433.903155 184.066407 
L 436.600541 184.066407 
L 439.38784 196.911885 
L 442.17514 182.294617 
L 444.692701 180.522827 
L 447.48 309.8635 
L 447.48 309.8635 
L 447.48 309.8635 
L 444.692701 134.456286 
L 442.17514 152.174186 
L 439.38784 171.663877 
L 436.600541 157.489556 
L 433.903155 153.945976 
L 431.115855 150.402396 
L 428.418469 125.597335 
L 425.631169 143.315236 
L 422.84387 159.261346 
L 420.146483 166.348506 
L 417.359184 159.261346 
L 414.661797 166.348506 
L 411.874498 155.717766 
L 409.356937 153.945976 
L 406.569638 145.087026 
L 403.782339 150.402396 
L 401.084952 134.456286 
L 398.297653 136.228076 
L 395.600266 123.825545 
L 392.812967 134.013338 
L 390.025667 139.328708 
L 387.328281 148.630606 
L 384.540981 153.945976 
L 381.843595 153.503029 
L 379.056296 150.402396 
L 376.448822 143.315236 
L 373.661522 125.597335 
L 370.874223 210.643258 
L 368.176837 116.738385 
L 365.389537 118.510175 
L 362.692151 118.510175 
L 359.904851 120.281965 
L 357.117552 123.825545 
L 354.420165 153.945976 
L 351.632866 139.771656 
L 348.935479 132.684496 
L 346.14818 130.912706 
L 343.630619 113.194805 
L 340.84332 106.107645 
L 338.056021 113.194805 
L 335.358634 88.389745 
L 332.571335 100.792275 
L 329.873948 100.792275 
L 327.086649 91.933325 
L 324.299349 86.617955 
L 321.601963 97.248695 
L 318.814663 88.389745 
L 316.117277 86.617955 
L 313.329978 86.617955 
L 310.812417 88.389745 
L 308.025117 97.248695 
L 305.237818 84.846165 
L 302.540431 84.846165 
L 299.753132 81.302584 
L 297.055746 81.302584 
L 294.268446 81.302584 
L 291.481147 81.302584 
L 288.78376 113.194805 
L 285.996461 309.8635 
L 283.299074 81.302584 
L 280.511775 81.302584 
L 277.994214 83.074374 
L 275.206915 84.846165 
L 272.419615 86.617955 
L 269.722229 84.846165 
L 266.93493 86.617955 
L 264.237543 88.389745 
L 261.450244 100.792275 
L 258.662944 208.42852 
L 255.965558 208.871468 
L 253.178258 208.871468 
L 250.480872 166.348506 
L 247.693572 141.543446 
L 245.086099 141.543446 
L 242.298799 137.999866 
L 239.5115 137.999866 
L 236.814113 127.369126 
L 234.026814 107.879435 
L 231.329428 104.335855 
L 228.542128 106.107645 
L 225.754829 169.892087 
L 223.057442 309.8635 
L 220.270143 141.543446 
L 217.572756 104.335855 
L 214.785457 102.564065 
L 212.267896 132.684496 
L 209.480597 100.792275 
L 206.693297 93.705115 
L 203.995911 97.248695 
L 201.208612 96.805747 
L 198.511225 102.564065 
L 195.723926 102.564065 
L 192.936626 309.8635 
L 190.23924 309.8635 
L 187.45194 102.564065 
L 184.754554 100.792275 
L 181.967254 100.349327 
L 179.449694 97.248695 
L 176.662394 95.476905 
L 173.875095 102.564065 
L 171.177708 95.476905 
L 168.390409 109.651225 
L 165.693022 109.651225 
L 162.905723 113.194805 
L 160.118424 139.771656 
L 157.421037 132.684496 
L 154.633738 139.771656 
L 151.936351 123.382598 
L 149.149052 309.8635 
L 146.631491 309.8635 
L 143.844192 100.792275 
L 141.056892 99.020485 
L 138.359506 102.564065 
L 135.572206 102.564065 
L 132.87482 109.651225 
L 130.087521 106.107645 
L 127.300221 106.107645 
L 124.602835 102.564065 
L 121.815535 95.033957 
L 119.118149 95.476905 
L 116.330849 93.705115 
L 113.723376 91.933325 
L 110.936076 97.248695 
L 108.148777 309.8635 
L 105.45139 309.8635 
L 102.664091 113.194805 
L 99.966704 107.879435 
L 97.179405 111.423015 
L 94.392106 109.651225 
L 91.694719 104.335855 
L 88.90742 99.020485 
L 86.210033 99.020485 
L 83.422734 97.248695 
L 80.905173 97.248695 
L 78.117874 97.248695 
L 75.330574 104.335855 
L 72.633188 104.335855 
L 69.845888 106.107645 
L 67.148502 104.335855 
L 64.361203 104.335855 
L 61.573903 104.335855 
L 58.876517 100.792275 
L 56.089217 99.020485 
L 53.391831 97.248695 
L 50.604531 97.248695 
L 48.086971 132.684496 
L 45.299671 95.476905 
L 42.512372 93.705115 
L 39.814985 97.248695 
L 37.027686 286.830229 
L 34.330299 309.8635 
L 31.543 309.8635 
z
" style="fill:#808080;fill-opacity:0.6;"/>
   </g>
   <g id="matplotlib.axis_1">
    <g id="xtick_1">
     <g id="line2d_1">
      <path clip-path="url(#pdd88763f72)" d="M 45.389584 309.8635 
L 45.389584 23.36505 
" style="fill:none;stroke:#b0b0b0;stroke-linecap:square;stroke-width:0.8;"/>
     </g>
     <g id="line2d_2">
      <defs>
       <path d="M 0 0 
L 0 3.5 
" id="me8b1a7ee67" style="stroke:#000000;stroke-width:0.8;"/>
      </defs>
      <g>
       <use style="stroke:#000000;stroke-width:0.8;" x="45.389584" xlink:href="#me8b1a7ee67" y="309.8635"/>
      </g>
     </g>
     <g id="text_1">
      <!-- 2006 -->
      <defs>
       <path d="M 19.1875 8.296875 
L 53.609375 8.296875 
L 53.609375 0 
L 7.328125 0 
L 7.328125 8.296875 
Q 12.9375 14.109375 22.625 23.890625 
Q 32.328125 33.6875 34.8125 36.53125 
Q 39.546875 41.84375 41.421875 45.53125 
Q 43.3125 49.21875 43.3125 52.78125 
Q 43.3125 58.59375 39.234375 62.25 
Q 35.15625 65.921875 28.609375 65.921875 
Q 23.96875 65.921875 18.8125 64.3125 
Q 13.671875 62.703125 7.8125 59.421875 
L 7.8125 69.390625 
Q 13.765625 71.78125 18.9375 73 
Q 24.125 74.21875 28.421875 74.21875 
Q 39.75 74.21875 46.484375 68.546875 
Q 53.21875 62.890625 53.21875 53.421875 
Q 53.21875 48.921875 51.53125 44.890625 
Q 49.859375 40.875 45.40625 35.40625 
Q 44.1875 33.984375 37.640625 27.21875 
Q 31.109375 20.453125 19.1875 8.296875 
z
" id="DejaVuSans-32"/>
       <path d="M 31.78125 66.40625 
Q 24.171875 66.40625 20.328125 58.90625 
Q 16.5 51.421875 16.5 36.375 
Q 16.5 21.390625 20.328125 13.890625 
Q 24.171875 6.390625 31.78125 6.390625 
Q 39.453125 6.390625 43.28125 13.890625 
Q 47.125 21.390625 47.125 36.375 
Q 47.125 51.421875 43.28125 58.90625 
Q 39.453125 66.40625 31.78125 66.40625 
z
M 31.78125 74.21875 
Q 44.046875 74.21875 50.515625 64.515625 
Q 56.984375 54.828125 56.984375 36.375 
Q 56.984375 17.96875 50.515625 8.265625 
Q 44.046875 -1.421875 31.78125 -1.421875 
Q 19.53125 -1.421875 13.0625 8.265625 
Q 6.59375 17.96875 6.59375 36.375 
Q 6.59375 54.828125 13.0625 64.515625 
Q 19.53125 74.21875 31.78125 74.21875 
z
" id="DejaVuSans-30"/>
       <path d="M 33.015625 40.375 
Q 26.375 40.375 22.484375 35.828125 
Q 18.609375 31.296875 18.609375 23.390625 
Q 18.609375 15.53125 22.484375 10.953125 
Q 26.375 6.390625 33.015625 6.390625 
Q 39.65625 6.390625 43.53125 10.953125 
Q 47.40625 15.53125 47.40625 23.390625 
Q 47.40625 31.296875 43.53125 35.828125 
Q 39.65625 40.375 33.015625 40.375 
z
M 52.59375 71.296875 
L 52.59375 62.3125 
Q 48.875 64.0625 45.09375 64.984375 
Q 41.3125 65.921875 37.59375 65.921875 
Q 27.828125 65.921875 22.671875 59.328125 
Q 17.53125 52.734375 16.796875 39.40625 
Q 19.671875 43.65625 24.015625 45.921875 
Q 28.375 48.1875 33.59375 48.1875 
Q 44.578125 48.1875 50.953125 41.515625 
Q 57.328125 34.859375 57.328125 23.390625 
Q 57.328125 12.15625 50.6875 5.359375 
Q 44.046875 -1.421875 33.015625 -1.421875 
Q 20.359375 -1.421875 13.671875 8.265625 
Q 6.984375 17.96875 6.984375 36.375 
Q 6.984375 53.65625 15.1875 63.9375 
Q 23.390625 74.21875 37.203125 74.21875 
Q 40.921875 74.21875 44.703125 73.484375 
Q 48.484375 72.75 52.59375 71.296875 
z
" id="DejaVuSans-36"/>
      </defs>
      <g transform="translate(32.664584 324.461937)scale(0.1 -0.1)">
       <use xlink:href="#DejaVuSans-32"/>
       <use x="63.623047" xlink:href="#DejaVuSans-30"/>
       <use x="127.246094" xlink:href="#DejaVuSans-30"/>
       <use x="190.869141" xlink:href="#DejaVuSans-36"/>
      </g>
     </g>
    </g>
    <g id="xtick_2">
     <g id="line2d_3">
      <path clip-path="url(#pdd88763f72)" d="M 111.025989 309.8635 
L 111.025989 23.36505 
" style="fill:none;stroke:#b0b0b0;stroke-linecap:square;stroke-width:0.8;"/>
     </g>
     <g id="line2d_4">
      <g>
       <use style="stroke:#000000;stroke-width:0.8;" x="111.025989" xlink:href="#me8b1a7ee67" y="309.8635"/>
      </g>
     </g>
     <g id="text_2">
      <!-- 2008 -->
      <defs>
       <path d="M 31.78125 34.625 
Q 24.75 34.625 20.71875 30.859375 
Q 16.703125 27.09375 16.703125 20.515625 
Q 16.703125 13.921875 20.71875 10.15625 
Q 24.75 6.390625 31.78125 6.390625 
Q 38.8125 6.390625 42.859375 10.171875 
Q 46.921875 13.96875 46.921875 20.515625 
Q 46.921875 27.09375 42.890625 30.859375 
Q 38.875 34.625 31.78125 34.625 
z
M 21.921875 38.8125 
Q 15.578125 40.375 12.03125 44.71875 
Q 8.5 49.078125 8.5 55.328125 
Q 8.5 64.0625 14.71875 69.140625 
Q 20.953125 74.21875 31.78125 74.21875 
Q 42.671875 74.21875 48.875 69.140625 
Q 55.078125 64.0625 55.078125 55.328125 
Q 55.078125 49.078125 51.53125 44.71875 
Q 48 40.375 41.703125 38.8125 
Q 48.828125 37.15625 52.796875 32.3125 
Q 56.78125 27.484375 56.78125 20.515625 
Q 56.78125 9.90625 50.3125 4.234375 
Q 43.84375 -1.421875 31.78125 -1.421875 
Q 19.734375 -1.421875 13.25 4.234375 
Q 6.78125 9.90625 6.78125 20.515625 
Q 6.78125 27.484375 10.78125 32.3125 
Q 14.796875 37.15625 21.921875 38.8125 
z
M 18.3125 54.390625 
Q 18.3125 48.734375 21.84375 45.5625 
Q 25.390625 42.390625 31.78125 42.390625 
Q 38.140625 42.390625 41.71875 45.5625 
Q 45.3125 48.734375 45.3125 54.390625 
Q 45.3125 60.0625 41.71875 63.234375 
Q 38.140625 66.40625 31.78125 66.40625 
Q 25.390625 66.40625 21.84375 63.234375 
Q 18.3125 60.0625 18.3125 54.390625 
z
" id="DejaVuSans-38"/>
      </defs>
      <g transform="translate(98.300989 324.461937)scale(0.1 -0.1)">
       <use xlink:href="#DejaVuSans-32"/>
       <use x="63.623047" xlink:href="#DejaVuSans-30"/>
       <use x="127.246094" xlink:href="#DejaVuSans-30"/>
       <use x="190.869141" xlink:href="#DejaVuSans-38"/>
      </g>
     </g>
    </g>
    <g id="xtick_3">
     <g id="line2d_5">
      <path clip-path="url(#pdd88763f72)" d="M 176.752307 309.8635 
L 176.752307 23.36505 
" style="fill:none;stroke:#b0b0b0;stroke-linecap:square;stroke-width:0.8;"/>
     </g>
     <g id="line2d_6">
      <g>
       <use style="stroke:#000000;stroke-width:0.8;" x="176.752307" xlink:href="#me8b1a7ee67" y="309.8635"/>
      </g>
     </g>
     <g id="text_3">
      <!-- 2010 -->
      <defs>
       <path d="M 12.40625 8.296875 
L 28.515625 8.296875 
L 28.515625 63.921875 
L 10.984375 60.40625 
L 10.984375 69.390625 
L 28.421875 72.90625 
L 38.28125 72.90625 
L 38.28125 8.296875 
L 54.390625 8.296875 
L 54.390625 0 
L 12.40625 0 
z
" id="DejaVuSans-31"/>
      </defs>
      <g transform="translate(164.027307 324.461937)scale(0.1 -0.1)">
       <use xlink:href="#DejaVuSans-32"/>
       <use x="63.623047" xlink:href="#DejaVuSans-30"/>
       <use x="127.246094" xlink:href="#DejaVuSans-31"/>
       <use x="190.869141" xlink:href="#DejaVuSans-30"/>
      </g>
     </g>
    </g>
    <g id="xtick_4">
     <g id="line2d_7">
      <path clip-path="url(#pdd88763f72)" d="M 242.388712 309.8635 
L 242.388712 23.36505 
" style="fill:none;stroke:#b0b0b0;stroke-linecap:square;stroke-width:0.8;"/>
     </g>
     <g id="line2d_8">
      <g>
       <use style="stroke:#000000;stroke-width:0.8;" x="242.388712" xlink:href="#me8b1a7ee67" y="309.8635"/>
      </g>
     </g>
     <g id="text_4">
      <!-- 2012 -->
      <g transform="translate(229.663712 324.461937)scale(0.1 -0.1)">
       <use xlink:href="#DejaVuSans-32"/>
       <use x="63.623047" xlink:href="#DejaVuSans-30"/>
       <use x="127.246094" xlink:href="#DejaVuSans-31"/>
       <use x="190.869141" xlink:href="#DejaVuSans-32"/>
      </g>
     </g>
    </g>
    <g id="xtick_5">
     <g id="line2d_9">
      <path clip-path="url(#pdd88763f72)" d="M 308.11503 309.8635 
L 308.11503 23.36505 
" style="fill:none;stroke:#b0b0b0;stroke-linecap:square;stroke-width:0.8;"/>
     </g>
     <g id="line2d_10">
      <g>
       <use style="stroke:#000000;stroke-width:0.8;" x="308.11503" xlink:href="#me8b1a7ee67" y="309.8635"/>
      </g>
     </g>
     <g id="text_5">
      <!-- 2014 -->
      <defs>
       <path d="M 37.796875 64.3125 
L 12.890625 25.390625 
L 37.796875 25.390625 
z
M 35.203125 72.90625 
L 47.609375 72.90625 
L 47.609375 25.390625 
L 58.015625 25.390625 
L 58.015625 17.1875 
L 47.609375 17.1875 
L 47.609375 0 
L 37.796875 0 
L 37.796875 17.1875 
L 4.890625 17.1875 
L 4.890625 26.703125 
z
" id="DejaVuSans-34"/>
      </defs>
      <g transform="translate(295.39003 324.461937)scale(0.1 -0.1)">
       <use xlink:href="#DejaVuSans-32"/>
       <use x="63.623047" xlink:href="#DejaVuSans-30"/>
       <use x="127.246094" xlink:href="#DejaVuSans-31"/>
       <use x="190.869141" xlink:href="#DejaVuSans-34"/>
      </g>
     </g>
    </g>
    <g id="xtick_6">
     <g id="line2d_11">
      <path clip-path="url(#pdd88763f72)" d="M 373.751435 309.8635 
L 373.751435 23.36505 
" style="fill:none;stroke:#b0b0b0;stroke-linecap:square;stroke-width:0.8;"/>
     </g>
     <g id="line2d_12">
      <g>
       <use style="stroke:#000000;stroke-width:0.8;" x="373.751435" xlink:href="#me8b1a7ee67" y="309.8635"/>
      </g>
     </g>
     <g id="text_6">
      <!-- 2016 -->
      <g transform="translate(361.026435 324.461937)scale(0.1 -0.1)">
       <use xlink:href="#DejaVuSans-32"/>
       <use x="63.623047" xlink:href="#DejaVuSans-30"/>
       <use x="127.246094" xlink:href="#DejaVuSans-31"/>
       <use x="190.869141" xlink:href="#DejaVuSans-36"/>
      </g>
     </g>
    </g>
    <g id="xtick_7">
     <g id="line2d_13">
      <path clip-path="url(#pdd88763f72)" d="M 439.477753 309.8635 
L 439.477753 23.36505 
" style="fill:none;stroke:#b0b0b0;stroke-linecap:square;stroke-width:0.8;"/>
     </g>
     <g id="line2d_14">
      <g>
       <use style="stroke:#000000;stroke-width:0.8;" x="439.477753" xlink:href="#me8b1a7ee67" y="309.8635"/>
      </g>
     </g>
     <g id="text_7">
      <!-- 2018 -->
      <g transform="translate(426.752753 324.461937)scale(0.1 -0.1)">
       <use xlink:href="#DejaVuSans-32"/>
       <use x="63.623047" xlink:href="#DejaVuSans-30"/>
       <use x="127.246094" xlink:href="#DejaVuSans-31"/>
       <use x="190.869141" xlink:href="#DejaVuSans-38"/>
      </g>
     </g>
    </g>
    <g id="text_8">
     <!-- Date -->
     <defs>
      <path d="M 19.671875 64.796875 
L 19.671875 8.109375 
L 31.59375 8.109375 
Q 46.6875 8.109375 53.6875 14.9375 
Q 60.6875 21.78125 60.6875 36.53125 
Q 60.6875 51.171875 53.6875 57.984375 
Q 46.6875 64.796875 31.59375 64.796875 
z
M 9.8125 72.90625 
L 30.078125 72.90625 
Q 51.265625 72.90625 61.171875 64.09375 
Q 71.09375 55.28125 71.09375 36.53125 
Q 71.09375 17.671875 61.125 8.828125 
Q 51.171875 0 30.078125 0 
L 9.8125 0 
z
" id="DejaVuSans-44"/>
      <path d="M 34.28125 27.484375 
Q 23.390625 27.484375 19.1875 25 
Q 14.984375 22.515625 14.984375 16.5 
Q 14.984375 11.71875 18.140625 8.90625 
Q 21.296875 6.109375 26.703125 6.109375 
Q 34.1875 6.109375 38.703125 11.40625 
Q 43.21875 16.703125 43.21875 25.484375 
L 43.21875 27.484375 
z
M 52.203125 31.203125 
L 52.203125 0 
L 43.21875 0 
L 43.21875 8.296875 
Q 40.140625 3.328125 35.546875 0.953125 
Q 30.953125 -1.421875 24.3125 -1.421875 
Q 15.921875 -1.421875 10.953125 3.296875 
Q 6 8.015625 6 15.921875 
Q 6 25.140625 12.171875 29.828125 
Q 18.359375 34.515625 30.609375 34.515625 
L 43.21875 34.515625 
L 43.21875 35.40625 
Q 43.21875 41.609375 39.140625 45 
Q 35.0625 48.390625 27.6875 48.390625 
Q 23 48.390625 18.546875 47.265625 
Q 14.109375 46.140625 10.015625 43.890625 
L 10.015625 52.203125 
Q 14.9375 54.109375 19.578125 55.046875 
Q 24.21875 56 28.609375 56 
Q 40.484375 56 46.34375 49.84375 
Q 52.203125 43.703125 52.203125 31.203125 
z
" id="DejaVuSans-61"/>
      <path d="M 18.3125 70.21875 
L 18.3125 54.6875 
L 36.8125 54.6875 
L 36.8125 47.703125 
L 18.3125 47.703125 
L 18.3125 18.015625 
Q 18.3125 11.328125 20.140625 9.421875 
Q 21.96875 7.515625 27.59375 7.515625 
L 36.8125 7.515625 
L 36.8125 0 
L 27.59375 0 
Q 17.1875 0 13.234375 3.875 
Q 9.28125 7.765625 9.28125 18.015625 
L 9.28125 47.703125 
L 2.6875 47.703125 
L 2.6875 54.6875 
L 9.28125 54.6875 
L 9.28125 70.21875 
z
" id="DejaVuSans-74"/>
      <path d="M 56.203125 29.59375 
L 56.203125 25.203125 
L 14.890625 25.203125 
Q 15.484375 15.921875 20.484375 11.0625 
Q 25.484375 6.203125 34.421875 6.203125 
Q 39.59375 6.203125 44.453125 7.46875 
Q 49.3125 8.734375 54.109375 11.28125 
L 54.109375 2.78125 
Q 49.265625 0.734375 44.1875 -0.34375 
Q 39.109375 -1.421875 33.890625 -1.421875 
Q 20.796875 -1.421875 13.15625 6.1875 
Q 5.515625 13.8125 5.515625 26.8125 
Q 5.515625 40.234375 12.765625 48.109375 
Q 20.015625 56 32.328125 56 
Q 43.359375 56 49.78125 48.890625 
Q 56.203125 41.796875 56.203125 29.59375 
z
M 47.21875 32.234375 
Q 47.125 39.59375 43.09375 43.984375 
Q 39.0625 48.390625 32.421875 48.390625 
Q 24.90625 48.390625 20.390625 44.140625 
Q 15.875 39.890625 15.1875 32.171875 
z
" id="DejaVuSans-65"/>
     </defs>
     <g transform="translate(227.560719 338.140062)scale(0.1 -0.1)">
      <use xlink:href="#DejaVuSans-44"/>
      <use x="77.001953" xlink:href="#DejaVuSans-61"/>
      <use x="138.28125" xlink:href="#DejaVuSans-74"/>
      <use x="177.490234" xlink:href="#DejaVuSans-65"/>
     </g>
    </g>
   </g>
   <g id="matplotlib.axis_2">
    <g id="ytick_1">
     <g id="line2d_15">
      <path clip-path="url(#pdd88763f72)" d="M 31.543 309.8635 
L 447.48 309.8635 
" style="fill:none;stroke:#b0b0b0;stroke-linecap:square;stroke-width:0.8;"/>
     </g>
     <g id="line2d_16">
      <defs>
       <path d="M 0 0 
L -3.5 0 
" id="m5fe56bfd51" style="stroke:#000000;stroke-width:0.8;"/>
      </defs>
      <g>
       <use style="stroke:#000000;stroke-width:0.8;" x="31.543" xlink:href="#m5fe56bfd51" y="309.8635"/>
      </g>
     </g>
     <g id="text_9">
      <!-- 0 -->
      <g transform="translate(18.1805 313.662719)scale(0.1 -0.1)">
       <use xlink:href="#DejaVuSans-30"/>
      </g>
     </g>
    </g>
    <g id="ytick_2">
     <g id="line2d_17">
      <path clip-path="url(#pdd88763f72)" d="M 31.543 274.427699 
L 447.48 274.427699 
" style="fill:none;stroke:#b0b0b0;stroke-linecap:square;stroke-width:0.8;"/>
     </g>
     <g id="line2d_18">
      <g>
       <use style="stroke:#000000;stroke-width:0.8;" x="31.543" xlink:href="#m5fe56bfd51" y="274.427699"/>
      </g>
     </g>
     <g id="text_10">
      <!-- 20 -->
      <g transform="translate(11.818 278.226918)scale(0.1 -0.1)">
       <use xlink:href="#DejaVuSans-32"/>
       <use x="63.623047" xlink:href="#DejaVuSans-30"/>
      </g>
     </g>
    </g>
    <g id="ytick_3">
     <g id="line2d_19">
      <path clip-path="url(#pdd88763f72)" d="M 31.543 238.991898 
L 447.48 238.991898 
" style="fill:none;stroke:#b0b0b0;stroke-linecap:square;stroke-width:0.8;"/>
     </g>
     <g id="line2d_20">
      <g>
       <use style="stroke:#000000;stroke-width:0.8;" x="31.543" xlink:href="#m5fe56bfd51" y="238.991898"/>
      </g>
     </g>
     <g id="text_11">
      <!-- 40 -->
      <g transform="translate(11.818 242.791117)scale(0.1 -0.1)">
       <use xlink:href="#DejaVuSans-34"/>
       <use x="63.623047" xlink:href="#DejaVuSans-30"/>
      </g>
     </g>
    </g>
    <g id="ytick_4">
     <g id="line2d_21">
      <path clip-path="url(#pdd88763f72)" d="M 31.543 203.556097 
L 447.48 203.556097 
" style="fill:none;stroke:#b0b0b0;stroke-linecap:square;stroke-width:0.8;"/>
     </g>
     <g id="line2d_22">
      <g>
       <use style="stroke:#000000;stroke-width:0.8;" x="31.543" xlink:href="#m5fe56bfd51" y="203.556097"/>
      </g>
     </g>
     <g id="text_12">
      <!-- 60 -->
      <g transform="translate(11.818 207.355316)scale(0.1 -0.1)">
       <use xlink:href="#DejaVuSans-36"/>
       <use x="63.623047" xlink:href="#DejaVuSans-30"/>
      </g>
     </g>
    </g>
    <g id="ytick_5">
     <g id="line2d_23">
      <path clip-path="url(#pdd88763f72)" d="M 31.543 168.120297 
L 447.48 168.120297 
" style="fill:none;stroke:#b0b0b0;stroke-linecap:square;stroke-width:0.8;"/>
     </g>
     <g id="line2d_24">
      <g>
       <use style="stroke:#000000;stroke-width:0.8;" x="31.543" xlink:href="#m5fe56bfd51" y="168.120297"/>
      </g>
     </g>
     <g id="text_13">
      <!-- 80 -->
      <g transform="translate(11.818 171.919515)scale(0.1 -0.1)">
       <use xlink:href="#DejaVuSans-38"/>
       <use x="63.623047" xlink:href="#DejaVuSans-30"/>
      </g>
     </g>
    </g>
    <g id="ytick_6">
     <g id="line2d_25">
      <path clip-path="url(#pdd88763f72)" d="M 31.543 132.684496 
L 447.48 132.684496 
" style="fill:none;stroke:#b0b0b0;stroke-linecap:square;stroke-width:0.8;"/>
     </g>
     <g id="line2d_26">
      <g>
       <use style="stroke:#000000;stroke-width:0.8;" x="31.543" xlink:href="#m5fe56bfd51" y="132.684496"/>
      </g>
     </g>
     <g id="text_14">
      <!-- 100 -->
      <g transform="translate(5.4555 136.483714)scale(0.1 -0.1)">
       <use xlink:href="#DejaVuSans-31"/>
       <use x="63.623047" xlink:href="#DejaVuSans-30"/>
       <use x="127.246094" xlink:href="#DejaVuSans-30"/>
      </g>
     </g>
    </g>
    <g id="ytick_7">
     <g id="line2d_27">
      <path clip-path="url(#pdd88763f72)" d="M 31.543 97.248695 
L 447.48 97.248695 
" style="fill:none;stroke:#b0b0b0;stroke-linecap:square;stroke-width:0.8;"/>
     </g>
     <g id="line2d_28">
      <g>
       <use style="stroke:#000000;stroke-width:0.8;" x="31.543" xlink:href="#m5fe56bfd51" y="97.248695"/>
      </g>
     </g>
     <g id="text_15">
      <!-- 120 -->
      <g transform="translate(5.4555 101.047914)scale(0.1 -0.1)">
       <use xlink:href="#DejaVuSans-31"/>
       <use x="63.623047" xlink:href="#DejaVuSans-32"/>
       <use x="127.246094" xlink:href="#DejaVuSans-30"/>
      </g>
     </g>
    </g>
    <g id="ytick_8">
     <g id="line2d_29">
      <path clip-path="url(#pdd88763f72)" d="M 31.543 61.812894 
L 447.48 61.812894 
" style="fill:none;stroke:#b0b0b0;stroke-linecap:square;stroke-width:0.8;"/>
     </g>
     <g id="line2d_30">
      <g>
       <use style="stroke:#000000;stroke-width:0.8;" x="31.543" xlink:href="#m5fe56bfd51" y="61.812894"/>
      </g>
     </g>
     <g id="text_16">
      <!-- 140 -->
      <g transform="translate(5.4555 65.612113)scale(0.1 -0.1)">
       <use xlink:href="#DejaVuSans-31"/>
       <use x="63.623047" xlink:href="#DejaVuSans-34"/>
       <use x="127.246094" xlink:href="#DejaVuSans-30"/>
      </g>
     </g>
    </g>
    <g id="ytick_9">
     <g id="line2d_31">
      <path clip-path="url(#pdd88763f72)" d="M 31.543 26.377093 
L 447.48 26.377093 
" style="fill:none;stroke:#b0b0b0;stroke-linecap:square;stroke-width:0.8;"/>
     </g>
     <g id="line2d_32">
      <g>
       <use style="stroke:#000000;stroke-width:0.8;" x="31.543" xlink:href="#m5fe56bfd51" y="26.377093"/>
      </g>
     </g>
     <g id="text_17">
      <!-- 160 -->
      <g transform="translate(5.4555 30.176312)scale(0.1 -0.1)">
       <use xlink:href="#DejaVuSans-31"/>
       <use x="63.623047" xlink:href="#DejaVuSans-36"/>
       <use x="127.246094" xlink:href="#DejaVuSans-30"/>
      </g>
     </g>
    </g>
   </g>
   <g id="line2d_33">
    <path clip-path="url(#pdd88763f72)" d="M 31.543 309.8635 
L 37.027686 309.8635 
L 42.512372 100.792275 
L 45.299671 139.771656 
L 48.086971 137.999866 
L 53.391831 137.999866 
L 56.089217 140.657551 
L 58.876517 139.771656 
L 61.573903 139.771656 
L 64.361203 109.651225 
L 67.148502 107.879435 
L 69.845888 130.912706 
L 72.633188 106.107645 
L 75.330574 137.999866 
L 78.117874 100.792275 
L 83.422734 100.792275 
L 88.90742 104.335855 
L 91.694719 137.999866 
L 94.392106 116.738385 
L 97.179405 114.966595 
L 99.966704 116.738385 
L 102.664091 139.771656 
L 105.45139 309.8635 
L 108.148777 309.8635 
L 110.936076 139.771656 
L 113.723376 95.476905 
L 116.330849 97.248695 
L 119.118149 97.248695 
L 121.815535 99.020485 
L 124.602835 136.228076 
L 127.300221 123.825545 
L 130.087521 113.194805 
L 132.87482 116.738385 
L 135.572206 139.771656 
L 143.844192 139.771656 
L 146.631491 309.8635 
L 149.149052 309.8635 
L 151.936351 139.771656 
L 168.390409 139.771656 
L 171.177708 106.107645 
L 173.875095 139.771656 
L 176.662394 100.792275 
L 179.449694 100.792275 
L 181.967254 102.564065 
L 184.754554 103.44996 
L 187.45194 127.369126 
L 190.23924 309.8635 
L 192.936626 309.8635 
L 195.723926 141.543446 
L 198.511225 141.543446 
L 201.208612 106.107645 
L 206.693297 99.020485 
L 209.480597 137.999866 
L 212.267896 141.543446 
L 214.785457 136.228076 
L 217.572756 137.999866 
L 220.270143 309.8635 
L 225.754829 309.8635 
L 228.542128 139.771656 
L 231.329428 137.999866 
L 234.026814 137.999866 
L 236.814113 145.087026 
L 239.5115 157.489556 
L 242.298799 153.945976 
L 245.086099 166.348506 
L 247.693572 164.576716 
L 250.480872 212.415048 
L 253.178258 210.643258 
L 258.662944 210.643258 
L 261.450244 153.945976 
L 264.237543 141.543446 
L 266.93493 131.798601 
L 269.722229 102.564065 
L 272.419615 106.99354 
L 275.206915 137.999866 
L 277.994214 102.564065 
L 280.511775 99.90638 
L 283.299074 100.792275 
L 285.996461 309.8635 
L 288.78376 196.468937 
L 291.481147 102.564065 
L 294.268446 98.13459 
L 297.055746 92.81922 
L 299.753132 88.389745 
L 302.540431 91.933325 
L 305.237818 99.020485 
L 308.025117 164.576716 
L 310.812417 104.335855 
L 313.329978 100.792275 
L 316.117277 99.90638 
L 318.814663 125.597335 
L 321.601963 129.140916 
L 324.299349 107.879435 
L 327.086649 120.281965 
L 329.873948 120.281965 
L 335.358634 113.194805 
L 338.056021 147.744711 
L 340.84332 139.771656 
L 343.630619 141.543446 
L 346.14818 153.945976 
L 348.935479 153.060081 
L 351.632866 159.261346 
L 354.420165 168.120297 
L 357.117552 152.174186 
L 359.904851 155.717766 
L 362.692151 153.945976 
L 365.389537 148.630606 
L 368.176837 139.771656 
L 370.874223 309.8635 
L 373.661522 146.858816 
L 376.448822 164.576716 
L 379.056296 164.576716 
L 381.843595 168.120297 
L 387.328281 168.120297 
L 390.025667 164.576716 
L 392.812967 164.576716 
L 395.600266 150.402396 
L 398.297653 155.717766 
L 401.084952 155.717766 
L 403.782339 168.120297 
L 406.569638 164.576716 
L 409.356937 168.120297 
L 422.84387 168.120297 
L 425.631169 166.348506 
L 428.418469 159.261346 
L 431.115855 168.120297 
L 433.903155 166.348506 
L 436.600541 180.522827 
L 439.38784 184.066407 
L 442.17514 175.207457 
L 444.692701 171.663877 
L 447.48 309.8635 
L 447.48 309.8635 
" style="fill:none;stroke:#1f77b4;stroke-linecap:square;stroke-width:1.5;"/>
   </g>
   <g id="patch_3">
    <path d="M 31.543 309.8635 
L 31.543 23.36505 
" style="fill:none;stroke:#000000;stroke-linecap:square;stroke-linejoin:miter;stroke-width:0.8;"/>
   </g>
   <g id="patch_4">
    <path d="M 447.48 309.8635 
L 447.48 23.36505 
" style="fill:none;stroke:#000000;stroke-linecap:square;stroke-linejoin:miter;stroke-width:0.8;"/>
   </g>
   <g id="patch_5">
    <path d="M 31.543 309.8635 
L 447.48 309.8635 
" style="fill:none;stroke:#000000;stroke-linecap:square;stroke-linejoin:miter;stroke-width:0.8;"/>
   </g>
   <g id="patch_6">
    <path d="M 31.543 23.36505 
L 447.48 23.36505 
" style="fill:none;stroke:#000000;stroke-linecap:square;stroke-linejoin:miter;stroke-width:0.8;"/>
   </g>
   <g id="text_18">
    <!-- Monthly gross load trend (MW) -->
    <defs>
     <path d="M 9.8125 72.90625 
L 24.515625 72.90625 
L 43.109375 23.296875 
L 61.8125 72.90625 
L 76.515625 72.90625 
L 76.515625 0 
L 66.890625 0 
L 66.890625 64.015625 
L 48.09375 14.015625 
L 38.1875 14.015625 
L 19.390625 64.015625 
L 19.390625 0 
L 9.8125 0 
z
" id="DejaVuSans-4d"/>
     <path d="M 30.609375 48.390625 
Q 23.390625 48.390625 19.1875 42.75 
Q 14.984375 37.109375 14.984375 27.296875 
Q 14.984375 17.484375 19.15625 11.84375 
Q 23.34375 6.203125 30.609375 6.203125 
Q 37.796875 6.203125 41.984375 11.859375 
Q 46.1875 17.53125 46.1875 27.296875 
Q 46.1875 37.015625 41.984375 42.703125 
Q 37.796875 48.390625 30.609375 48.390625 
z
M 30.609375 56 
Q 42.328125 56 49.015625 48.375 
Q 55.71875 40.765625 55.71875 27.296875 
Q 55.71875 13.875 49.015625 6.21875 
Q 42.328125 -1.421875 30.609375 -1.421875 
Q 18.84375 -1.421875 12.171875 6.21875 
Q 5.515625 13.875 5.515625 27.296875 
Q 5.515625 40.765625 12.171875 48.375 
Q 18.84375 56 30.609375 56 
z
" id="DejaVuSans-6f"/>
     <path d="M 54.890625 33.015625 
L 54.890625 0 
L 45.90625 0 
L 45.90625 32.71875 
Q 45.90625 40.484375 42.875 44.328125 
Q 39.84375 48.1875 33.796875 48.1875 
Q 26.515625 48.1875 22.3125 43.546875 
Q 18.109375 38.921875 18.109375 30.90625 
L 18.109375 0 
L 9.078125 0 
L 9.078125 54.6875 
L 18.109375 54.6875 
L 18.109375 46.1875 
Q 21.34375 51.125 25.703125 53.5625 
Q 30.078125 56 35.796875 56 
Q 45.21875 56 50.046875 50.171875 
Q 54.890625 44.34375 54.890625 33.015625 
z
" id="DejaVuSans-6e"/>
     <path d="M 54.890625 33.015625 
L 54.890625 0 
L 45.90625 0 
L 45.90625 32.71875 
Q 45.90625 40.484375 42.875 44.328125 
Q 39.84375 48.1875 33.796875 48.1875 
Q 26.515625 48.1875 22.3125 43.546875 
Q 18.109375 38.921875 18.109375 30.90625 
L 18.109375 0 
L 9.078125 0 
L 9.078125 75.984375 
L 18.109375 75.984375 
L 18.109375 46.1875 
Q 21.34375 51.125 25.703125 53.5625 
Q 30.078125 56 35.796875 56 
Q 45.21875 56 50.046875 50.171875 
Q 54.890625 44.34375 54.890625 33.015625 
z
" id="DejaVuSans-68"/>
     <path d="M 9.421875 75.984375 
L 18.40625 75.984375 
L 18.40625 0 
L 9.421875 0 
z
" id="DejaVuSans-6c"/>
     <path d="M 32.171875 -5.078125 
Q 28.375 -14.84375 24.75 -17.8125 
Q 21.140625 -20.796875 15.09375 -20.796875 
L 7.90625 -20.796875 
L 7.90625 -13.28125 
L 13.1875 -13.28125 
Q 16.890625 -13.28125 18.9375 -11.515625 
Q 21 -9.765625 23.484375 -3.21875 
L 25.09375 0.875 
L 2.984375 54.6875 
L 12.5 54.6875 
L 29.59375 11.921875 
L 46.6875 54.6875 
L 56.203125 54.6875 
z
" id="DejaVuSans-79"/>
     <path id="DejaVuSans-20"/>
     <path d="M 45.40625 27.984375 
Q 45.40625 37.75 41.375 43.109375 
Q 37.359375 48.484375 30.078125 48.484375 
Q 22.859375 48.484375 18.828125 43.109375 
Q 14.796875 37.75 14.796875 27.984375 
Q 14.796875 18.265625 18.828125 12.890625 
Q 22.859375 7.515625 30.078125 7.515625 
Q 37.359375 7.515625 41.375 12.890625 
Q 45.40625 18.265625 45.40625 27.984375 
z
M 54.390625 6.78125 
Q 54.390625 -7.171875 48.1875 -13.984375 
Q 42 -20.796875 29.203125 -20.796875 
Q 24.46875 -20.796875 20.265625 -20.09375 
Q 16.0625 -19.390625 12.109375 -17.921875 
L 12.109375 -9.1875 
Q 16.0625 -11.328125 19.921875 -12.34375 
Q 23.78125 -13.375 27.78125 -13.375 
Q 36.625 -13.375 41.015625 -8.765625 
Q 45.40625 -4.15625 45.40625 5.171875 
L 45.40625 9.625 
Q 42.625 4.78125 38.28125 2.390625 
Q 33.9375 0 27.875 0 
Q 17.828125 0 11.671875 7.65625 
Q 5.515625 15.328125 5.515625 27.984375 
Q 5.515625 40.671875 11.671875 48.328125 
Q 17.828125 56 27.875 56 
Q 33.9375 56 38.28125 53.609375 
Q 42.625 51.21875 45.40625 46.390625 
L 45.40625 54.6875 
L 54.390625 54.6875 
z
" id="DejaVuSans-67"/>
     <path d="M 41.109375 46.296875 
Q 39.59375 47.171875 37.8125 47.578125 
Q 36.03125 48 33.890625 48 
Q 26.265625 48 22.1875 43.046875 
Q 18.109375 38.09375 18.109375 28.8125 
L 18.109375 0 
L 9.078125 0 
L 9.078125 54.6875 
L 18.109375 54.6875 
L 18.109375 46.1875 
Q 20.953125 51.171875 25.484375 53.578125 
Q 30.03125 56 36.53125 56 
Q 37.453125 56 38.578125 55.875 
Q 39.703125 55.765625 41.0625 55.515625 
z
" id="DejaVuSans-72"/>
     <path d="M 44.28125 53.078125 
L 44.28125 44.578125 
Q 40.484375 46.53125 36.375 47.5 
Q 32.28125 48.484375 27.875 48.484375 
Q 21.1875 48.484375 17.84375 46.4375 
Q 14.5 44.390625 14.5 40.28125 
Q 14.5 37.15625 16.890625 35.375 
Q 19.28125 33.59375 26.515625 31.984375 
L 29.59375 31.296875 
Q 39.15625 29.25 43.1875 25.515625 
Q 47.21875 21.78125 47.21875 15.09375 
Q 47.21875 7.46875 41.1875 3.015625 
Q 35.15625 -1.421875 24.609375 -1.421875 
Q 20.21875 -1.421875 15.453125 -0.5625 
Q 10.6875 0.296875 5.421875 2 
L 5.421875 11.28125 
Q 10.40625 8.6875 15.234375 7.390625 
Q 20.0625 6.109375 24.8125 6.109375 
Q 31.15625 6.109375 34.5625 8.28125 
Q 37.984375 10.453125 37.984375 14.40625 
Q 37.984375 18.0625 35.515625 20.015625 
Q 33.0625 21.96875 24.703125 23.78125 
L 21.578125 24.515625 
Q 13.234375 26.265625 9.515625 29.90625 
Q 5.8125 33.546875 5.8125 39.890625 
Q 5.8125 47.609375 11.28125 51.796875 
Q 16.75 56 26.8125 56 
Q 31.78125 56 36.171875 55.265625 
Q 40.578125 54.546875 44.28125 53.078125 
z
" id="DejaVuSans-73"/>
     <path d="M 45.40625 46.390625 
L 45.40625 75.984375 
L 54.390625 75.984375 
L 54.390625 0 
L 45.40625 0 
L 45.40625 8.203125 
Q 42.578125 3.328125 38.25 0.953125 
Q 33.9375 -1.421875 27.875 -1.421875 
Q 17.96875 -1.421875 11.734375 6.484375 
Q 5.515625 14.40625 5.515625 27.296875 
Q 5.515625 40.1875 11.734375 48.09375 
Q 17.96875 56 27.875 56 
Q 33.9375 56 38.25 53.625 
Q 42.578125 51.265625 45.40625 46.390625 
z
M 14.796875 27.296875 
Q 14.796875 17.390625 18.875 11.75 
Q 22.953125 6.109375 30.078125 6.109375 
Q 37.203125 6.109375 41.296875 11.75 
Q 45.40625 17.390625 45.40625 27.296875 
Q 45.40625 37.203125 41.296875 42.84375 
Q 37.203125 48.484375 30.078125 48.484375 
Q 22.953125 48.484375 18.875 42.84375 
Q 14.796875 37.203125 14.796875 27.296875 
z
" id="DejaVuSans-64"/>
     <path d="M 31 75.875 
Q 24.46875 64.65625 21.28125 53.65625 
Q 18.109375 42.671875 18.109375 31.390625 
Q 18.109375 20.125 21.3125 9.0625 
Q 24.515625 -2 31 -13.1875 
L 23.1875 -13.1875 
Q 15.875 -1.703125 12.234375 9.375 
Q 8.59375 20.453125 8.59375 31.390625 
Q 8.59375 42.28125 12.203125 53.3125 
Q 15.828125 64.359375 23.1875 75.875 
z
" id="DejaVuSans-28"/>
     <path d="M 3.328125 72.90625 
L 13.28125 72.90625 
L 28.609375 11.28125 
L 43.890625 72.90625 
L 54.984375 72.90625 
L 70.3125 11.28125 
L 85.59375 72.90625 
L 95.609375 72.90625 
L 77.296875 0 
L 64.890625 0 
L 49.515625 63.28125 
L 33.984375 0 
L 21.578125 0 
z
" id="DejaVuSans-57"/>
     <path d="M 8.015625 75.875 
L 15.828125 75.875 
Q 23.140625 64.359375 26.78125 53.3125 
Q 30.421875 42.28125 30.421875 31.390625 
Q 30.421875 20.453125 26.78125 9.375 
Q 23.140625 -1.703125 15.828125 -13.1875 
L 8.015625 -13.1875 
Q 14.5 -2 17.703125 9.0625 
Q 20.90625 20.125 20.90625 31.390625 
Q 20.90625 42.671875 17.703125 53.65625 
Q 14.5 64.65625 8.015625 75.875 
z
" id="DejaVuSans-29"/>
    </defs>
    <g transform="translate(146.928688 17.36505)scale(0.12 -0.12)">
     <use xlink:href="#DejaVuSans-4d"/>
     <use x="86.279297" xlink:href="#DejaVuSans-6f"/>
     <use x="147.460938" xlink:href="#DejaVuSans-6e"/>
     <use x="210.839844" xlink:href="#DejaVuSans-74"/>
     <use x="250.048828" xlink:href="#DejaVuSans-68"/>
     <use x="313.427734" xlink:href="#DejaVuSans-6c"/>
     <use x="341.210938" xlink:href="#DejaVuSans-79"/>
     <use x="400.390625" xlink:href="#DejaVuSans-20"/>
     <use x="432.177734" xlink:href="#DejaVuSans-67"/>
     <use x="495.654297" xlink:href="#DejaVuSans-72"/>
     <use x="536.736328" xlink:href="#DejaVuSans-6f"/>
     <use x="597.917969" xlink:href="#DejaVuSans-73"/>
     <use x="650.017578" xlink:href="#DejaVuSans-73"/>
     <use x="702.117188" xlink:href="#DejaVuSans-20"/>
     <use x="733.904297" xlink:href="#DejaVuSans-6c"/>
     <use x="761.6875" xlink:href="#DejaVuSans-6f"/>
     <use x="822.869141" xlink:href="#DejaVuSans-61"/>
     <use x="884.148438" xlink:href="#DejaVuSans-64"/>
     <use x="947.625" xlink:href="#DejaVuSans-20"/>
     <use x="979.412109" xlink:href="#DejaVuSans-74"/>
     <use x="1018.621094" xlink:href="#DejaVuSans-72"/>
     <use x="1059.703125" xlink:href="#DejaVuSans-65"/>
     <use x="1121.226562" xlink:href="#DejaVuSans-6e"/>
     <use x="1184.605469" xlink:href="#DejaVuSans-64"/>
     <use x="1248.082031" xlink:href="#DejaVuSans-20"/>
     <use x="1279.869141" xlink:href="#DejaVuSans-28"/>
     <use x="1318.882812" xlink:href="#DejaVuSans-4d"/>
     <use x="1405.162109" xlink:href="#DejaVuSans-57"/>
     <use x="1504.039062" xlink:href="#DejaVuSans-29"/>
    </g>
   </g>
  </g>
 </g>
 <defs>
  <clipPath id="pdd88763f72">
   <rect height="286.49845" width="415.937" x="31.543" y="23.36505"/>
  </clipPath>
 </defs>
</svg>
