<?xml version="1.0" encoding="utf-8" standalone="no"?>
<!DOCTYPE svg PUBLIC "-//W3C//DTD SVG 1.1//EN"
  "http://www.w3.org/Graphics/SVG/1.1/DTD/svg11.dtd">
<!-- Created with matplotlib (http://matplotlib.org/) -->
<svg height="345.6pt" version="1.1" viewBox="0 0 460.8 345.6" width="460.8pt" xmlns="http://www.w3.org/2000/svg" xmlns:xlink="http://www.w3.org/1999/xlink">
 <defs>
  <style type="text/css">
*{stroke-linecap:butt;stroke-linejoin:round;}
  </style>
 </defs>
 <g id="figure_1">
  <g id="patch_1">
   <path d="M 0 345.6 
L 460.8 345.6 
L 460.8 0 
L 0 0 
z
" style="fill:none;"/>
  </g>
  <g id="axes_1">
   <g id="patch_2">
    <path d="M 31.543 309.8635 
L 447.48 309.8635 
L 447.48 23.36505 
L 31.543 23.36505 
z
" style="fill:none;"/>
   </g>
   <g id="PolyCollection_1">
    <path clip-path="url(#p52b8cf567f)" d="M 31.543 309.8635 
L 31.543 309.8635 
L 33.965766 309.8635 
L 36.648114 309.8635 
L 39.243935 309.8635 
L 41.926283 309.8635 
L 44.522103 309.8635 
L 47.204451 309.8635 
L 49.886799 309.8635 
L 52.48262 309.8635 
L 55.164968 309.8635 
L 57.760789 309.8635 
L 60.443137 309.8635 
L 63.125485 309.8635 
L 65.548251 309.8635 
L 68.230599 309.8635 
L 70.82642 309.8635 
L 73.508768 309.8635 
L 76.104588 309.8635 
L 78.786936 309.8635 
L 81.469284 309.8635 
L 84.065105 309.8635 
L 86.747453 309.8635 
L 89.343274 309.8635 
L 92.025622 309.8635 
L 94.70797 309.8635 
L 97.130736 309.8635 
L 99.813084 309.8635 
L 102.408905 309.8635 
L 105.091253 309.8635 
L 107.687073 143.837764 
L 110.369421 309.8635 
L 113.051769 217.832521 
L 115.64759 309.8635 
L 118.329938 309.8635 
L 120.925759 221.532259 
L 123.608107 229.394202 
L 126.290455 231.244071 
L 128.799748 309.8635 
L 131.482096 309.8635 
L 134.077917 309.8635 
L 136.760265 309.8635 
L 139.356086 309.8635 
L 142.038434 309.8635 
L 144.720782 309.8635 
L 147.316602 309.8635 
L 149.99895 309.8635 
L 152.594771 309.8635 
L 155.277119 309.8635 
L 157.959467 281.190532 
L 160.382233 251.130162 
L 163.064581 309.8635 
L 165.660402 309.8635 
L 168.34275 309.8635 
L 170.93857 309.8635 
L 173.620918 309.8635 
L 176.303266 253.442498 
L 178.899087 255.754834 
L 181.581435 309.8635 
L 184.177256 309.8635 
L 186.859604 309.8635 
L 189.541952 309.8635 
L 191.964718 280.265597 
L 194.647066 249.74276 
L 197.242887 250.205227 
L 199.925235 309.8635 
L 202.521055 250.667694 
L 205.203403 249.74276 
L 207.885751 309.8635 
L 210.481572 309.8635 
L 213.16392 309.8635 
L 215.759741 309.8635 
L 218.442089 247.892891 
L 221.124437 309.8635 
L 223.547203 309.8635 
L 226.229551 246.505489 
L 228.825372 242.805751 
L 231.50772 249.74276 
L 234.10354 252.517563 
L 236.785888 302.464024 
L 239.468236 309.8635 
L 242.064057 309.8635 
L 244.746405 252.980031 
L 247.342226 309.8635 
L 250.024574 309.8635 
L 252.706922 309.8635 
L 255.216215 248.355358 
L 257.898563 249.74276 
L 260.494384 309.8635 
L 263.176732 250.667694 
L 265.772553 309.8635 
L 268.454901 252.055096 
L 271.137249 309.8635 
L 273.733069 309.8635 
L 276.415417 309.8635 
L 279.011238 309.8635 
L 281.693586 309.8635 
L 284.375934 309.8635 
L 286.7987 309.8635 
L 289.481048 250.205227 
L 292.076869 309.8635 
L 294.759217 309.8635 
L 297.355037 309.8635 
L 300.037385 309.8635 
L 302.719734 309.8635 
L 305.315554 250.667694 
L 307.997902 309.8635 
L 310.593723 250.205227 
L 313.276071 243.730686 
L 315.958419 247.430424 
L 318.381185 240.493415 
L 321.063533 252.980031 
L 323.659354 251.592629 
L 326.341702 309.8635 
L 328.937522 251.130162 
L 331.61987 247.892891 
L 334.302218 168.810994 
L 336.898039 250.667694 
L 339.580387 309.8635 
L 342.176208 309.8635 
L 344.858556 309.8635 
L 347.540904 309.8635 
L 349.96367 309.8635 
L 352.646018 249.74276 
L 355.241839 309.8635 
L 357.924187 309.8635 
L 360.520007 309.8635 
L 363.202355 309.8635 
L 365.884703 309.8635 
L 368.480524 309.8635 
L 371.162872 309.8635 
L 373.758693 171.123331 
L 376.441041 247.892891 
L 379.123389 309.8635 
L 381.632682 309.8635 
L 384.31503 309.8635 
L 386.910851 309.8635 
L 389.593199 309.8635 
L 392.18902 309.8635 
L 394.871368 309.8635 
L 397.553716 309.8635 
L 400.149536 309.8635 
L 402.831884 309.8635 
L 405.427705 309.8635 
L 408.110053 309.8635 
L 410.792401 309.8635 
L 413.215167 309.8635 
L 415.897515 309.8635 
L 418.493336 309.8635 
L 421.175684 309.8635 
L 423.771504 309.8635 
L 426.453853 309.8635 
L 429.136201 309.8635 
L 431.732021 309.8635 
L 434.414369 309.8635 
L 437.01019 309.8635 
L 439.692538 309.8635 
L 442.374886 309.8635 
L 444.797652 309.8635 
L 447.48 309.8635 
L 447.48 64.755867 
L 447.48 64.755867 
L 444.797652 88.804163 
L 442.374886 111.00259 
L 439.692538 101.290779 
L 437.01019 94.816237 
L 434.414369 111.927525 
L 431.732021 67.068203 
L 429.136201 68.455605 
L 426.453853 74.930146 
L 423.771504 115.627263 
L 421.175684 124.876607 
L 418.493336 104.065582 
L 415.897515 106.377918 
L 413.215167 110.540123 
L 410.792401 98.053508 
L 408.110053 105.452984 
L 405.427705 214.132783 
L 402.831884 112.389992 
L 400.149536 97.128573 
L 397.553716 62.905998 
L 394.871368 67.530671 
L 392.18902 59.668728 
L 389.593199 118.402066 
L 386.910851 65.680802 
L 384.31503 51.344318 
L 381.632682 95.278705 
L 379.123389 95.278705 
L 376.441041 92.966368 
L 373.758693 84.641958 
L 371.162872 63.830933 
L 368.480524 63.830933 
L 365.884703 63.368466 
L 363.202355 122.101804 
L 360.520007 72.155343 
L 357.924187 67.993138 
L 355.241839 90.191565 
L 352.646018 71.230408 
L 349.96367 90.654032 
L 347.540904 80.479753 
L 344.858556 95.278705 
L 342.176208 98.515975 
L 339.580387 93.891303 
L 336.898039 75.855081 
L 334.302218 89.266631 
L 331.61987 84.179491 
L 328.937522 89.729098 
L 326.341702 60.593662 
L 323.659354 98.515975 
L 321.063533 51.344318 
L 318.381185 89.729098 
L 315.958419 94.35377 
L 313.276071 93.428836 
L 310.593723 96.666106 
L 307.997902 97.128573 
L 305.315554 72.61781 
L 302.719734 64.755867 
L 300.037385 71.230408 
L 297.355037 68.918072 
L 294.759217 91.116499 
L 292.076869 85.104425 
L 289.481048 53.194186 
L 286.7987 83.717024 
L 284.375934 79.554819 
L 281.693586 49.956916 
L 279.011238 94.816237 
L 276.415417 309.8635 
L 273.733069 63.830933 
L 271.137249 75.392614 
L 268.454901 71.692876 
L 265.772553 62.443531 
L 263.176732 56.893924 
L 260.494384 53.656654 
L 257.898563 90.654032 
L 255.216215 87.879229 
L 252.706922 43.482375 
L 250.024574 45.332244 
L 247.342226 45.332244 
L 244.746405 57.818859 
L 242.064057 60.131195 
L 239.468236 102.215713 
L 236.785888 69.843007 
L 234.10354 60.593662 
L 231.50772 57.818859 
L 228.825372 76.780015 
L 226.229551 82.329622 
L 223.547203 93.891303 
L 221.124437 78.167417 
L 218.442089 48.107047 
L 215.759741 54.119121 
L 213.16392 92.503901 
L 210.481572 84.641958 
L 207.885751 51.806785 
L 205.203403 63.830933 
L 202.521055 64.755867 
L 199.925235 48.569514 
L 197.242887 46.257178 
L 194.647066 48.107047 
L 191.964718 46.719645 
L 189.541952 42.55744 
L 186.859604 44.407309 
L 184.177256 67.530671 
L 181.581435 49.031981 
L 178.899087 58.743793 
L 176.303266 53.656654 
L 173.620918 63.368466 
L 170.93857 54.581588 
L 168.34275 76.317548 
L 165.660402 66.143269 
L 163.064581 48.569514 
L 160.382233 47.64458 
L 157.959467 50.88185 
L 155.277119 41.170038 
L 152.594771 55.044055 
L 149.99895 37.007833 
L 147.316602 54.581588 
L 144.720782 58.743793 
L 142.038434 63.368466 
L 139.356086 59.668728 
L 136.760265 52.731719 
L 134.077917 48.107047 
L 131.482096 48.107047 
L 128.799748 48.107047 
L 126.290455 43.019907 
L 123.608107 42.55744 
L 120.925759 47.182112 
L 118.329938 48.107047 
L 115.64759 48.107047 
L 113.051769 61.518597 
L 110.369421 63.830933 
L 107.687073 56.893924 
L 105.091253 56.431457 
L 102.408905 53.194186 
L 99.813084 53.194186 
L 97.130736 54.119121 
L 94.70797 50.88185 
L 92.025622 51.806785 
L 89.343274 46.719645 
L 86.747453 61.056129 
L 84.065105 61.981064 
L 81.469284 61.056129 
L 78.786936 64.2934 
L 76.104588 63.830933 
L 73.508768 175.748003 
L 70.82642 167.88606 
L 68.230599 52.731719 
L 65.548251 86.954294 
L 63.125485 115.627263 
L 60.443137 233.556407 
L 57.760789 235.868743 
L 55.164968 208.583176 
L 52.48262 172.510732 
L 49.886799 171.123331 
L 47.204451 172.048265 
L 44.522103 241.880817 
L 41.926283 309.8635 
L 39.243935 309.8635 
L 36.648114 266.854047 
L 33.965766 309.8635 
L 31.543 309.8635 
z
" style="fill:#808080;fill-opacity:0.3;"/>
   </g>
   <g id="PolyCollection_2">
    <path clip-path="url(#p52b8cf567f)" d="M 31.543 309.8635 
L 31.543 309.8635 
L 33.965766 309.8635 
L 36.648114 309.8635 
L 39.243935 309.8635 
L 41.926283 309.8635 
L 44.522103 309.8635 
L 47.204451 309.8635 
L 49.886799 309.8635 
L 52.48262 309.8635 
L 55.164968 309.8635 
L 57.760789 309.8635 
L 60.443137 309.8635 
L 63.125485 309.8635 
L 65.548251 309.8635 
L 68.230599 309.8635 
L 70.82642 309.8635 
L 73.508768 309.8635 
L 76.104588 309.8635 
L 78.786936 231.822155 
L 81.469284 255.754834 
L 84.065105 225.347613 
L 86.747453 289.514942 
L 89.343274 209.045644 
L 92.025622 139.675559 
L 94.70797 145.340782 
L 97.130736 141.987895 
L 99.813084 229.856669 
L 102.408905 227.081866 
L 105.091253 132.73855 
L 107.687073 93.891303 
L 110.369421 129.038812 
L 113.051769 106.377918 
L 115.64759 106.840385 
L 118.329938 141.525428 
L 120.925759 111.465058 
L 123.608107 141.06296 
L 126.290455 143.375297 
L 128.799748 143.837764 
L 131.482096 194.246692 
L 134.077917 148.115586 
L 136.760265 218.410605 
L 139.356086 305.238828 
L 142.038434 305.238828 
L 144.720782 141.525428 
L 147.316602 228.469267 
L 149.99895 262.229375 
L 152.594771 229.972286 
L 155.277119 223.960212 
L 157.959467 209.16126 
L 160.382233 168.810994 
L 163.064581 228.931734 
L 165.660402 253.095647 
L 168.34275 269.397617 
L 170.93857 302.117174 
L 173.620918 234.596958 
L 176.303266 231.012837 
L 178.899087 235.868743 
L 181.581435 309.8635 
L 184.177256 246.505489 
L 186.859604 174.360601 
L 189.541952 177.135405 
L 191.964718 221.069792 
L 194.647066 200.952467 
L 197.242887 177.135405 
L 199.925235 236.793677 
L 202.521055 241.41835 
L 205.203403 228.700501 
L 207.885751 237.834229 
L 210.481572 198.640131 
L 213.16392 247.892891 
L 215.759741 178.060339 
L 218.442089 173.088816 
L 221.124437 246.043022 
L 223.547203 177.135405 
L 226.229551 177.135405 
L 228.825372 176.21047 
L 231.50772 177.597872 
L 234.10354 234.481341 
L 236.785888 229.972286 
L 239.468236 230.434753 
L 242.064057 228.122417 
L 244.746405 186.962833 
L 247.342226 198.29328 
L 250.024574 225.694464 
L 252.706922 176.672937 
L 255.216215 176.672937 
L 257.898563 177.135405 
L 260.494384 235.98436 
L 263.176732 222.110343 
L 265.772553 225.231997 
L 268.454901 221.069792 
L 271.137249 215.173334 
L 273.733069 222.457193 
L 276.415417 309.8635 
L 279.011238 309.8635 
L 281.693586 241.071499 
L 284.375934 182.222544 
L 286.7987 234.018874 
L 289.481048 215.982652 
L 292.076869 242.343284 
L 294.759217 224.769529 
L 297.355037 223.150894 
L 300.037385 180.835142 
L 302.719734 196.905879 
L 305.315554 185.691048 
L 307.997902 183.147479 
L 310.593723 180.950759 
L 313.276071 177.597872 
L 315.958419 178.985273 
L 318.381185 179.910208 
L 321.063533 181.760077 
L 323.659354 181.760077 
L 326.341702 181.760077 
L 328.937522 179.910208 
L 331.61987 156.324379 
L 334.302218 151.23724 
L 336.898039 161.064668 
L 339.580387 237.718612 
L 342.176208 233.09394 
L 344.858556 239.684098 
L 347.540904 221.069792 
L 349.96367 292.289745 
L 352.646018 232.169005 
L 355.241839 231.359687 
L 357.924187 235.98436 
L 360.520007 240.030948 
L 363.202355 234.134491 
L 365.884703 236.446827 
L 368.480524 237.718612 
L 371.162872 172.510732 
L 373.758693 166.498658 
L 376.441041 225.347613 
L 379.123389 309.8635 
L 381.632682 309.8635 
L 384.31503 239.106014 
L 386.910851 309.8635 
L 389.593199 309.8635 
L 392.18902 237.256145 
L 394.871368 281.421765 
L 397.553716 238.181079 
L 400.149536 309.8635 
L 402.831884 309.8635 
L 405.427705 309.8635 
L 408.110053 309.8635 
L 410.792401 309.8635 
L 413.215167 309.8635 
L 415.897515 309.8635 
L 418.493336 309.8635 
L 421.175684 309.8635 
L 423.771504 309.8635 
L 426.453853 309.8635 
L 429.136201 229.394202 
L 431.732021 239.22163 
L 434.414369 309.8635 
L 437.01019 309.8635 
L 439.692538 309.8635 
L 442.374886 309.8635 
L 444.797652 309.8635 
L 447.48 309.8635 
L 447.48 215.982652 
L 447.48 215.982652 
L 444.797652 211.35798 
L 442.374886 206.155223 
L 439.692538 215.867035 
L 437.01019 221.069792 
L 434.414369 225.11638 
L 431.732021 159.792883 
L 429.136201 112.621226 
L 426.453853 125.223458 
L 423.771504 166.036191 
L 421.175684 233.09394 
L 418.493336 228.931734 
L 415.897515 238.181079 
L 413.215167 309.8635 
L 410.792401 166.498658 
L 408.110053 224.307062 
L 405.427705 309.8635 
L 402.831884 171.585798 
L 400.149536 169.157845 
L 397.553716 123.489206 
L 394.871368 128.576345 
L 392.18902 122.564271 
L 389.593199 227.544333 
L 386.910851 160.024117 
L 384.31503 155.283828 
L 381.632682 217.716904 
L 379.123389 157.943014 
L 376.441041 153.549576 
L 373.758693 140.484876 
L 371.162872 149.849838 
L 368.480524 154.821361 
L 365.884703 149.271754 
L 363.202355 168.348527 
L 360.520007 166.961125 
L 357.924187 166.961125 
L 355.241839 159.099182 
L 352.646018 162.79892 
L 349.96367 166.498658 
L 347.540904 145.225166 
L 344.858556 160.486584 
L 342.176208 167.88606 
L 339.580387 160.370967 
L 336.898039 141.525428 
L 334.302218 136.900755 
L 331.61987 140.600493 
L 328.937522 154.821361 
L 326.341702 158.636715 
L 323.659354 169.157845 
L 321.063533 163.608238 
L 318.381185 160.370967 
L 315.958419 160.949051 
L 313.276071 158.174248 
L 310.593723 160.833435 
L 307.997902 166.961125 
L 305.315554 161.873986 
L 302.719734 159.099182 
L 300.037385 146.1501 
L 297.355037 148.924903 
L 294.759217 168.23291 
L 292.076869 172.048265 
L 289.481048 165.573724 
L 286.7987 165.573724 
L 284.375934 159.099182 
L 281.693586 166.498658 
L 279.011238 174.823068 
L 276.415417 309.8635 
L 273.733069 157.596164 
L 271.137249 143.375297 
L 268.454901 142.797213 
L 265.772553 139.675559 
L 263.176732 147.421885 
L 260.494384 159.099182 
L 257.898563 152.624641 
L 255.216215 151.58409 
L 252.706922 152.624641 
L 250.024574 155.399445 
L 247.342226 154.47451 
L 244.746405 147.075034 
L 242.064057 149.387371 
L 239.468236 164.533172 
L 236.785888 160.949051 
L 234.10354 152.624641 
L 231.50772 161.642752 
L 228.825372 153.549576 
L 226.229551 160.024117 
L 223.547203 167.423593 
L 221.124437 164.186322 
L 218.442089 137.710073 
L 215.759741 155.861912 
L 213.16392 156.324379 
L 210.481572 148.462436 
L 207.885751 137.82569 
L 205.203403 141.872278 
L 202.521055 154.243277 
L 199.925235 151.699707 
L 197.242887 114.702328 
L 194.647066 105.915451 
L 191.964718 100.828311 
L 189.541952 103.487498 
L 186.859604 103.371881 
L 184.177256 126.726476 
L 181.581435 167.423593 
L 178.899087 104.990516 
L 176.303266 106.377918 
L 173.620918 106.377918 
L 170.93857 133.201018 
L 168.34275 101.290779 
L 165.660402 106.840385 
L 163.064581 106.377918 
L 160.382233 97.475424 
L 157.959467 98.515975 
L 155.277119 99.325293 
L 152.594771 117.708365 
L 149.99895 100.365844 
L 147.316602 99.44091 
L 144.720782 105.452984 
L 142.038434 107.302853 
L 139.356086 138.750624 
L 136.760265 101.753246 
L 134.077917 96.203639 
L 131.482096 95.741172 
L 128.799748 93.428836 
L 126.290455 92.503901 
L 123.608107 76.201931 
L 120.925759 57.818859 
L 118.329938 70.767941 
L 115.64759 62.443531 
L 113.051769 70.305474 
L 110.369421 77.242482 
L 107.687073 68.339988 
L 105.091253 66.143269 
L 102.408905 80.826604 
L 99.813084 94.816237 
L 97.130736 79.439202 
L 94.70797 87.879229 
L 92.025622 67.068203 
L 89.343274 71.230408 
L 86.747453 92.041434 
L 84.065105 65.680802 
L 81.469284 71.692876 
L 78.786936 74.467679 
L 76.104588 98.284742 
L 73.508768 309.8635 
L 70.82642 203.958504 
L 68.230599 224.191445 
L 65.548251 272.403654 
L 63.125485 238.643546 
L 60.443137 272.866121 
L 57.760789 309.8635 
L 55.164968 309.8635 
L 52.48262 309.8635 
L 49.886799 252.980031 
L 47.204451 217.48567 
L 44.522103 309.8635 
L 41.926283 309.8635 
L 39.243935 309.8635 
L 36.648114 309.8635 
L 33.965766 309.8635 
L 31.543 309.8635 
z
" style="fill:#808080;fill-opacity:0.6;"/>
   </g>
   <g id="matplotlib.axis_1">
    <g id="xtick_1">
     <g id="line2d_1">
      <path clip-path="url(#p52b8cf567f)" d="M 92.112149 309.8635 
L 92.112149 23.36505 
" style="fill:none;stroke:#b0b0b0;stroke-linecap:square;stroke-width:0.8;"/>
     </g>
     <g id="line2d_2">
      <defs>
       <path d="M 0 0 
L 0 3.5 
" id="m1927ef47e5" style="stroke:#000000;stroke-width:0.8;"/>
      </defs>
      <g>
       <use style="stroke:#000000;stroke-width:0.8;" x="92.112149" xlink:href="#m1927ef47e5" y="309.8635"/>
      </g>
     </g>
     <g id="text_1">
      <!-- 2007 -->
      <defs>
       <path d="M 19.1875 8.296875 
L 53.609375 8.296875 
L 53.609375 0 
L 7.328125 0 
L 7.328125 8.296875 
Q 12.9375 14.109375 22.625 23.890625 
Q 32.328125 33.6875 34.8125 36.53125 
Q 39.546875 41.84375 41.421875 45.53125 
Q 43.3125 49.21875 43.3125 52.78125 
Q 43.3125 58.59375 39.234375 62.25 
Q 35.15625 65.921875 28.609375 65.921875 
Q 23.96875 65.921875 18.8125 64.3125 
Q 13.671875 62.703125 7.8125 59.421875 
L 7.8125 69.390625 
Q 13.765625 71.78125 18.9375 73 
Q 24.125 74.21875 28.421875 74.21875 
Q 39.75 74.21875 46.484375 68.546875 
Q 53.21875 62.890625 53.21875 53.421875 
Q 53.21875 48.921875 51.53125 44.890625 
Q 49.859375 40.875 45.40625 35.40625 
Q 44.1875 33.984375 37.640625 27.21875 
Q 31.109375 20.453125 19.1875 8.296875 
z
" id="DejaVuSans-32"/>
       <path d="M 31.78125 66.40625 
Q 24.171875 66.40625 20.328125 58.90625 
Q 16.5 51.421875 16.5 36.375 
Q 16.5 21.390625 20.328125 13.890625 
Q 24.171875 6.390625 31.78125 6.390625 
Q 39.453125 6.390625 43.28125 13.890625 
Q 47.125 21.390625 47.125 36.375 
Q 47.125 51.421875 43.28125 58.90625 
Q 39.453125 66.40625 31.78125 66.40625 
z
M 31.78125 74.21875 
Q 44.046875 74.21875 50.515625 64.515625 
Q 56.984375 54.828125 56.984375 36.375 
Q 56.984375 17.96875 50.515625 8.265625 
Q 44.046875 -1.421875 31.78125 -1.421875 
Q 19.53125 -1.421875 13.0625 8.265625 
Q 6.59375 17.96875 6.59375 36.375 
Q 6.59375 54.828125 13.0625 64.515625 
Q 19.53125 74.21875 31.78125 74.21875 
z
" id="DejaVuSans-30"/>
       <path d="M 8.203125 72.90625 
L 55.078125 72.90625 
L 55.078125 68.703125 
L 28.609375 0 
L 18.3125 0 
L 43.21875 64.59375 
L 8.203125 64.59375 
z
" id="DejaVuSans-37"/>
      </defs>
      <g transform="translate(79.387149 324.461937)scale(0.1 -0.1)">
       <use xlink:href="#DejaVuSans-32"/>
       <use x="63.623047" xlink:href="#DejaVuSans-30"/>
       <use x="127.246094" xlink:href="#DejaVuSans-30"/>
       <use x="190.869141" xlink:href="#DejaVuSans-37"/>
      </g>
     </g>
    </g>
    <g id="xtick_2">
     <g id="line2d_3">
      <path clip-path="url(#p52b8cf567f)" d="M 155.363646 309.8635 
L 155.363646 23.36505 
" style="fill:none;stroke:#b0b0b0;stroke-linecap:square;stroke-width:0.8;"/>
     </g>
     <g id="line2d_4">
      <g>
       <use style="stroke:#000000;stroke-width:0.8;" x="155.363646" xlink:href="#m1927ef47e5" y="309.8635"/>
      </g>
     </g>
     <g id="text_2">
      <!-- 2009 -->
      <defs>
       <path d="M 10.984375 1.515625 
L 10.984375 10.5 
Q 14.703125 8.734375 18.5 7.8125 
Q 22.3125 6.890625 25.984375 6.890625 
Q 35.75 6.890625 40.890625 13.453125 
Q 46.046875 20.015625 46.78125 33.40625 
Q 43.953125 29.203125 39.59375 26.953125 
Q 35.25 24.703125 29.984375 24.703125 
Q 19.046875 24.703125 12.671875 31.3125 
Q 6.296875 37.9375 6.296875 49.421875 
Q 6.296875 60.640625 12.9375 67.421875 
Q 19.578125 74.21875 30.609375 74.21875 
Q 43.265625 74.21875 49.921875 64.515625 
Q 56.59375 54.828125 56.59375 36.375 
Q 56.59375 19.140625 48.40625 8.859375 
Q 40.234375 -1.421875 26.421875 -1.421875 
Q 22.703125 -1.421875 18.890625 -0.6875 
Q 15.09375 0.046875 10.984375 1.515625 
z
M 30.609375 32.421875 
Q 37.25 32.421875 41.125 36.953125 
Q 45.015625 41.5 45.015625 49.421875 
Q 45.015625 57.28125 41.125 61.84375 
Q 37.25 66.40625 30.609375 66.40625 
Q 23.96875 66.40625 20.09375 61.84375 
Q 16.21875 57.28125 16.21875 49.421875 
Q 16.21875 41.5 20.09375 36.953125 
Q 23.96875 32.421875 30.609375 32.421875 
z
" id="DejaVuSans-39"/>
      </defs>
      <g transform="translate(142.638646 324.461937)scale(0.1 -0.1)">
       <use xlink:href="#DejaVuSans-32"/>
       <use x="63.623047" xlink:href="#DejaVuSans-30"/>
       <use x="127.246094" xlink:href="#DejaVuSans-30"/>
       <use x="190.869141" xlink:href="#DejaVuSans-39"/>
      </g>
     </g>
    </g>
    <g id="xtick_3">
     <g id="line2d_5">
      <path clip-path="url(#p52b8cf567f)" d="M 218.528616 309.8635 
L 218.528616 23.36505 
" style="fill:none;stroke:#b0b0b0;stroke-linecap:square;stroke-width:0.8;"/>
     </g>
     <g id="line2d_6">
      <g>
       <use style="stroke:#000000;stroke-width:0.8;" x="218.528616" xlink:href="#m1927ef47e5" y="309.8635"/>
      </g>
     </g>
     <g id="text_3">
      <!-- 2011 -->
      <defs>
       <path d="M 12.40625 8.296875 
L 28.515625 8.296875 
L 28.515625 63.921875 
L 10.984375 60.40625 
L 10.984375 69.390625 
L 28.421875 72.90625 
L 38.28125 72.90625 
L 38.28125 8.296875 
L 54.390625 8.296875 
L 54.390625 0 
L 12.40625 0 
z
" id="DejaVuSans-31"/>
      </defs>
      <g transform="translate(205.803616 324.461937)scale(0.1 -0.1)">
       <use xlink:href="#DejaVuSans-32"/>
       <use x="63.623047" xlink:href="#DejaVuSans-30"/>
       <use x="127.246094" xlink:href="#DejaVuSans-31"/>
       <use x="190.869141" xlink:href="#DejaVuSans-31"/>
      </g>
     </g>
    </g>
    <g id="xtick_4">
     <g id="line2d_7">
      <path clip-path="url(#p52b8cf567f)" d="M 281.780113 309.8635 
L 281.780113 23.36505 
" style="fill:none;stroke:#b0b0b0;stroke-linecap:square;stroke-width:0.8;"/>
     </g>
     <g id="line2d_8">
      <g>
       <use style="stroke:#000000;stroke-width:0.8;" x="281.780113" xlink:href="#m1927ef47e5" y="309.8635"/>
      </g>
     </g>
     <g id="text_4">
      <!-- 2013 -->
      <defs>
       <path d="M 40.578125 39.3125 
Q 47.65625 37.796875 51.625 33 
Q 55.609375 28.21875 55.609375 21.1875 
Q 55.609375 10.40625 48.1875 4.484375 
Q 40.765625 -1.421875 27.09375 -1.421875 
Q 22.515625 -1.421875 17.65625 -0.515625 
Q 12.796875 0.390625 7.625 2.203125 
L 7.625 11.71875 
Q 11.71875 9.328125 16.59375 8.109375 
Q 21.484375 6.890625 26.8125 6.890625 
Q 36.078125 6.890625 40.9375 10.546875 
Q 45.796875 14.203125 45.796875 21.1875 
Q 45.796875 27.640625 41.28125 31.265625 
Q 36.765625 34.90625 28.71875 34.90625 
L 20.21875 34.90625 
L 20.21875 43.015625 
L 29.109375 43.015625 
Q 36.375 43.015625 40.234375 45.921875 
Q 44.09375 48.828125 44.09375 54.296875 
Q 44.09375 59.90625 40.109375 62.90625 
Q 36.140625 65.921875 28.71875 65.921875 
Q 24.65625 65.921875 20.015625 65.03125 
Q 15.375 64.15625 9.8125 62.3125 
L 9.8125 71.09375 
Q 15.4375 72.65625 20.34375 73.4375 
Q 25.25 74.21875 29.59375 74.21875 
Q 40.828125 74.21875 47.359375 69.109375 
Q 53.90625 64.015625 53.90625 55.328125 
Q 53.90625 49.265625 50.4375 45.09375 
Q 46.96875 40.921875 40.578125 39.3125 
z
" id="DejaVuSans-33"/>
      </defs>
      <g transform="translate(269.055113 324.461937)scale(0.1 -0.1)">
       <use xlink:href="#DejaVuSans-32"/>
       <use x="63.623047" xlink:href="#DejaVuSans-30"/>
       <use x="127.246094" xlink:href="#DejaVuSans-31"/>
       <use x="190.869141" xlink:href="#DejaVuSans-33"/>
      </g>
     </g>
    </g>
    <g id="xtick_5">
     <g id="line2d_9">
      <path clip-path="url(#p52b8cf567f)" d="M 344.945083 309.8635 
L 344.945083 23.36505 
" style="fill:none;stroke:#b0b0b0;stroke-linecap:square;stroke-width:0.8;"/>
     </g>
     <g id="line2d_10">
      <g>
       <use style="stroke:#000000;stroke-width:0.8;" x="344.945083" xlink:href="#m1927ef47e5" y="309.8635"/>
      </g>
     </g>
     <g id="text_5">
      <!-- 2015 -->
      <defs>
       <path d="M 10.796875 72.90625 
L 49.515625 72.90625 
L 49.515625 64.59375 
L 19.828125 64.59375 
L 19.828125 46.734375 
Q 21.96875 47.46875 24.109375 47.828125 
Q 26.265625 48.1875 28.421875 48.1875 
Q 40.625 48.1875 47.75 41.5 
Q 54.890625 34.8125 54.890625 23.390625 
Q 54.890625 11.625 47.5625 5.09375 
Q 40.234375 -1.421875 26.90625 -1.421875 
Q 22.3125 -1.421875 17.546875 -0.640625 
Q 12.796875 0.140625 7.71875 1.703125 
L 7.71875 11.625 
Q 12.109375 9.234375 16.796875 8.0625 
Q 21.484375 6.890625 26.703125 6.890625 
Q 35.15625 6.890625 40.078125 11.328125 
Q 45.015625 15.765625 45.015625 23.390625 
Q 45.015625 31 40.078125 35.4375 
Q 35.15625 39.890625 26.703125 39.890625 
Q 22.75 39.890625 18.8125 39.015625 
Q 14.890625 38.140625 10.796875 36.28125 
z
" id="DejaVuSans-35"/>
      </defs>
      <g transform="translate(332.220083 324.461937)scale(0.1 -0.1)">
       <use xlink:href="#DejaVuSans-32"/>
       <use x="63.623047" xlink:href="#DejaVuSans-30"/>
       <use x="127.246094" xlink:href="#DejaVuSans-31"/>
       <use x="190.869141" xlink:href="#DejaVuSans-35"/>
      </g>
     </g>
    </g>
    <g id="xtick_6">
     <g id="line2d_11">
      <path clip-path="url(#p52b8cf567f)" d="M 408.19658 309.8635 
L 408.19658 23.36505 
" style="fill:none;stroke:#b0b0b0;stroke-linecap:square;stroke-width:0.8;"/>
     </g>
     <g id="line2d_12">
      <g>
       <use style="stroke:#000000;stroke-width:0.8;" x="408.19658" xlink:href="#m1927ef47e5" y="309.8635"/>
      </g>
     </g>
     <g id="text_6">
      <!-- 2017 -->
      <g transform="translate(395.47158 324.461937)scale(0.1 -0.1)">
       <use xlink:href="#DejaVuSans-32"/>
       <use x="63.623047" xlink:href="#DejaVuSans-30"/>
       <use x="127.246094" xlink:href="#DejaVuSans-31"/>
       <use x="190.869141" xlink:href="#DejaVuSans-37"/>
      </g>
     </g>
    </g>
    <g id="text_7">
     <!-- Date -->
     <defs>
      <path d="M 19.671875 64.796875 
L 19.671875 8.109375 
L 31.59375 8.109375 
Q 46.6875 8.109375 53.6875 14.9375 
Q 60.6875 21.78125 60.6875 36.53125 
Q 60.6875 51.171875 53.6875 57.984375 
Q 46.6875 64.796875 31.59375 64.796875 
z
M 9.8125 72.90625 
L 30.078125 72.90625 
Q 51.265625 72.90625 61.171875 64.09375 
Q 71.09375 55.28125 71.09375 36.53125 
Q 71.09375 17.671875 61.125 8.828125 
Q 51.171875 0 30.078125 0 
L 9.8125 0 
z
" id="DejaVuSans-44"/>
      <path d="M 34.28125 27.484375 
Q 23.390625 27.484375 19.1875 25 
Q 14.984375 22.515625 14.984375 16.5 
Q 14.984375 11.71875 18.140625 8.90625 
Q 21.296875 6.109375 26.703125 6.109375 
Q 34.1875 6.109375 38.703125 11.40625 
Q 43.21875 16.703125 43.21875 25.484375 
L 43.21875 27.484375 
z
M 52.203125 31.203125 
L 52.203125 0 
L 43.21875 0 
L 43.21875 8.296875 
Q 40.140625 3.328125 35.546875 0.953125 
Q 30.953125 -1.421875 24.3125 -1.421875 
Q 15.921875 -1.421875 10.953125 3.296875 
Q 6 8.015625 6 15.921875 
Q 6 25.140625 12.171875 29.828125 
Q 18.359375 34.515625 30.609375 34.515625 
L 43.21875 34.515625 
L 43.21875 35.40625 
Q 43.21875 41.609375 39.140625 45 
Q 35.0625 48.390625 27.6875 48.390625 
Q 23 48.390625 18.546875 47.265625 
Q 14.109375 46.140625 10.015625 43.890625 
L 10.015625 52.203125 
Q 14.9375 54.109375 19.578125 55.046875 
Q 24.21875 56 28.609375 56 
Q 40.484375 56 46.34375 49.84375 
Q 52.203125 43.703125 52.203125 31.203125 
z
" id="DejaVuSans-61"/>
      <path d="M 18.3125 70.21875 
L 18.3125 54.6875 
L 36.8125 54.6875 
L 36.8125 47.703125 
L 18.3125 47.703125 
L 18.3125 18.015625 
Q 18.3125 11.328125 20.140625 9.421875 
Q 21.96875 7.515625 27.59375 7.515625 
L 36.8125 7.515625 
L 36.8125 0 
L 27.59375 0 
Q 17.1875 0 13.234375 3.875 
Q 9.28125 7.765625 9.28125 18.015625 
L 9.28125 47.703125 
L 2.6875 47.703125 
L 2.6875 54.6875 
L 9.28125 54.6875 
L 9.28125 70.21875 
z
" id="DejaVuSans-74"/>
      <path d="M 56.203125 29.59375 
L 56.203125 25.203125 
L 14.890625 25.203125 
Q 15.484375 15.921875 20.484375 11.0625 
Q 25.484375 6.203125 34.421875 6.203125 
Q 39.59375 6.203125 44.453125 7.46875 
Q 49.3125 8.734375 54.109375 11.28125 
L 54.109375 2.78125 
Q 49.265625 0.734375 44.1875 -0.34375 
Q 39.109375 -1.421875 33.890625 -1.421875 
Q 20.796875 -1.421875 13.15625 6.1875 
Q 5.515625 13.8125 5.515625 26.8125 
Q 5.515625 40.234375 12.765625 48.109375 
Q 20.015625 56 32.328125 56 
Q 43.359375 56 49.78125 48.890625 
Q 56.203125 41.796875 56.203125 29.59375 
z
M 47.21875 32.234375 
Q 47.125 39.59375 43.09375 43.984375 
Q 39.0625 48.390625 32.421875 48.390625 
Q 24.90625 48.390625 20.390625 44.140625 
Q 15.875 39.890625 15.1875 32.171875 
z
" id="DejaVuSans-65"/>
     </defs>
     <g transform="translate(227.560719 338.140062)scale(0.1 -0.1)">
      <use xlink:href="#DejaVuSans-44"/>
      <use x="77.001953" xlink:href="#DejaVuSans-61"/>
      <use x="138.28125" xlink:href="#DejaVuSans-74"/>
      <use x="177.490234" xlink:href="#DejaVuSans-65"/>
     </g>
    </g>
   </g>
   <g id="matplotlib.axis_2">
    <g id="ytick_1">
     <g id="line2d_13">
      <path clip-path="url(#p52b8cf567f)" d="M 31.543 309.8635 
L 447.48 309.8635 
" style="fill:none;stroke:#b0b0b0;stroke-linecap:square;stroke-width:0.8;"/>
     </g>
     <g id="line2d_14">
      <defs>
       <path d="M 0 0 
L -3.5 0 
" id="m3585215d58" style="stroke:#000000;stroke-width:0.8;"/>
      </defs>
      <g>
       <use style="stroke:#000000;stroke-width:0.8;" x="31.543" xlink:href="#m3585215d58" y="309.8635"/>
      </g>
     </g>
     <g id="text_8">
      <!-- 0 -->
      <g transform="translate(18.1805 313.662719)scale(0.1 -0.1)">
       <use xlink:href="#DejaVuSans-30"/>
      </g>
     </g>
    </g>
    <g id="ytick_2">
     <g id="line2d_15">
      <path clip-path="url(#p52b8cf567f)" d="M 31.543 263.616777 
L 447.48 263.616777 
" style="fill:none;stroke:#b0b0b0;stroke-linecap:square;stroke-width:0.8;"/>
     </g>
     <g id="line2d_16">
      <g>
       <use style="stroke:#000000;stroke-width:0.8;" x="31.543" xlink:href="#m3585215d58" y="263.616777"/>
      </g>
     </g>
     <g id="text_9">
      <!-- 100 -->
      <g transform="translate(5.4555 267.415996)scale(0.1 -0.1)">
       <use xlink:href="#DejaVuSans-31"/>
       <use x="63.623047" xlink:href="#DejaVuSans-30"/>
       <use x="127.246094" xlink:href="#DejaVuSans-30"/>
      </g>
     </g>
    </g>
    <g id="ytick_3">
     <g id="line2d_17">
      <path clip-path="url(#p52b8cf567f)" d="M 31.543 217.370054 
L 447.48 217.370054 
" style="fill:none;stroke:#b0b0b0;stroke-linecap:square;stroke-width:0.8;"/>
     </g>
     <g id="line2d_18">
      <g>
       <use style="stroke:#000000;stroke-width:0.8;" x="31.543" xlink:href="#m3585215d58" y="217.370054"/>
      </g>
     </g>
     <g id="text_10">
      <!-- 200 -->
      <g transform="translate(5.4555 221.169272)scale(0.1 -0.1)">
       <use xlink:href="#DejaVuSans-32"/>
       <use x="63.623047" xlink:href="#DejaVuSans-30"/>
       <use x="127.246094" xlink:href="#DejaVuSans-30"/>
      </g>
     </g>
    </g>
    <g id="ytick_4">
     <g id="line2d_19">
      <path clip-path="url(#p52b8cf567f)" d="M 31.543 171.123331 
L 447.48 171.123331 
" style="fill:none;stroke:#b0b0b0;stroke-linecap:square;stroke-width:0.8;"/>
     </g>
     <g id="line2d_20">
      <g>
       <use style="stroke:#000000;stroke-width:0.8;" x="31.543" xlink:href="#m3585215d58" y="171.123331"/>
      </g>
     </g>
     <g id="text_11">
      <!-- 300 -->
      <g transform="translate(5.4555 174.922549)scale(0.1 -0.1)">
       <use xlink:href="#DejaVuSans-33"/>
       <use x="63.623047" xlink:href="#DejaVuSans-30"/>
       <use x="127.246094" xlink:href="#DejaVuSans-30"/>
      </g>
     </g>
    </g>
    <g id="ytick_5">
     <g id="line2d_21">
      <path clip-path="url(#p52b8cf567f)" d="M 31.543 124.876607 
L 447.48 124.876607 
" style="fill:none;stroke:#b0b0b0;stroke-linecap:square;stroke-width:0.8;"/>
     </g>
     <g id="line2d_22">
      <g>
       <use style="stroke:#000000;stroke-width:0.8;" x="31.543" xlink:href="#m3585215d58" y="124.876607"/>
      </g>
     </g>
     <g id="text_12">
      <!-- 400 -->
      <defs>
       <path d="M 37.796875 64.3125 
L 12.890625 25.390625 
L 37.796875 25.390625 
z
M 35.203125 72.90625 
L 47.609375 72.90625 
L 47.609375 25.390625 
L 58.015625 25.390625 
L 58.015625 17.1875 
L 47.609375 17.1875 
L 47.609375 0 
L 37.796875 0 
L 37.796875 17.1875 
L 4.890625 17.1875 
L 4.890625 26.703125 
z
" id="DejaVuSans-34"/>
      </defs>
      <g transform="translate(5.4555 128.675826)scale(0.1 -0.1)">
       <use xlink:href="#DejaVuSans-34"/>
       <use x="63.623047" xlink:href="#DejaVuSans-30"/>
       <use x="127.246094" xlink:href="#DejaVuSans-30"/>
      </g>
     </g>
    </g>
    <g id="ytick_6">
     <g id="line2d_23">
      <path clip-path="url(#p52b8cf567f)" d="M 31.543 78.629884 
L 447.48 78.629884 
" style="fill:none;stroke:#b0b0b0;stroke-linecap:square;stroke-width:0.8;"/>
     </g>
     <g id="line2d_24">
      <g>
       <use style="stroke:#000000;stroke-width:0.8;" x="31.543" xlink:href="#m3585215d58" y="78.629884"/>
      </g>
     </g>
     <g id="text_13">
      <!-- 500 -->
      <g transform="translate(5.4555 82.429103)scale(0.1 -0.1)">
       <use xlink:href="#DejaVuSans-35"/>
       <use x="63.623047" xlink:href="#DejaVuSans-30"/>
       <use x="127.246094" xlink:href="#DejaVuSans-30"/>
      </g>
     </g>
    </g>
    <g id="ytick_7">
     <g id="line2d_25">
      <path clip-path="url(#p52b8cf567f)" d="M 31.543 32.383161 
L 447.48 32.383161 
" style="fill:none;stroke:#b0b0b0;stroke-linecap:square;stroke-width:0.8;"/>
     </g>
     <g id="line2d_26">
      <g>
       <use style="stroke:#000000;stroke-width:0.8;" x="31.543" xlink:href="#m3585215d58" y="32.383161"/>
      </g>
     </g>
     <g id="text_14">
      <!-- 600 -->
      <defs>
       <path d="M 33.015625 40.375 
Q 26.375 40.375 22.484375 35.828125 
Q 18.609375 31.296875 18.609375 23.390625 
Q 18.609375 15.53125 22.484375 10.953125 
Q 26.375 6.390625 33.015625 6.390625 
Q 39.65625 6.390625 43.53125 10.953125 
Q 47.40625 15.53125 47.40625 23.390625 
Q 47.40625 31.296875 43.53125 35.828125 
Q 39.65625 40.375 33.015625 40.375 
z
M 52.59375 71.296875 
L 52.59375 62.3125 
Q 48.875 64.0625 45.09375 64.984375 
Q 41.3125 65.921875 37.59375 65.921875 
Q 27.828125 65.921875 22.671875 59.328125 
Q 17.53125 52.734375 16.796875 39.40625 
Q 19.671875 43.65625 24.015625 45.921875 
Q 28.375 48.1875 33.59375 48.1875 
Q 44.578125 48.1875 50.953125 41.515625 
Q 57.328125 34.859375 57.328125 23.390625 
Q 57.328125 12.15625 50.6875 5.359375 
Q 44.046875 -1.421875 33.015625 -1.421875 
Q 20.359375 -1.421875 13.671875 8.265625 
Q 6.984375 17.96875 6.984375 36.375 
Q 6.984375 53.65625 15.1875 63.9375 
Q 23.390625 74.21875 37.203125 74.21875 
Q 40.921875 74.21875 44.703125 73.484375 
Q 48.484375 72.75 52.59375 71.296875 
z
" id="DejaVuSans-36"/>
      </defs>
      <g transform="translate(5.4555 36.18238)scale(0.1 -0.1)">
       <use xlink:href="#DejaVuSans-36"/>
       <use x="63.623047" xlink:href="#DejaVuSans-30"/>
       <use x="127.246094" xlink:href="#DejaVuSans-30"/>
      </g>
     </g>
    </g>
   </g>
   <g id="line2d_27">
    <path clip-path="url(#p52b8cf567f)" d="M 31.543 309.8635 
L 68.230599 309.8635 
L 70.82642 302.232791 
L 73.508768 309.8635 
L 76.104588 173.898134 
L 78.786936 116.08973 
L 81.469284 145.225166 
L 84.065105 128.807579 
L 86.747453 190.315721 
L 89.343274 118.170832 
L 92.025622 95.278705 
L 94.70797 109.152721 
L 97.130736 108.227787 
L 99.813084 142.450362 
L 102.408905 134.588419 
L 105.091253 86.260594 
L 107.687073 76.317548 
L 110.369421 85.566893 
L 113.051769 76.780015 
L 115.64759 69.611773 
L 118.329938 98.053508 
L 120.925759 84.410725 
L 123.608107 100.828311 
L 126.290455 111.00259 
L 128.799748 103.603115 
L 131.482096 106.840385 
L 134.077917 107.76532 
L 136.760265 140.138026 
L 139.356086 202.802336 
L 142.038434 142.450362 
L 144.720782 116.552197 
L 149.99895 142.450362 
L 152.594771 150.543539 
L 155.277119 142.450362 
L 157.959467 142.681596 
L 160.382233 131.582382 
L 163.064581 153.318342 
L 165.660402 175.748003 
L 168.34275 154.936977 
L 170.93857 175.285536 
L 173.620918 148.924903 
L 176.303266 153.780809 
L 178.899087 154.705744 
L 181.581435 249.74276 
L 184.177256 169.273462 
L 186.859604 146.381334 
L 189.541952 154.47451 
L 191.964718 154.47451 
L 194.647066 149.387371 
L 197.242887 154.47451 
L 199.925235 172.973199 
L 202.521055 175.748003 
L 205.203403 170.892097 
L 207.885751 168.810994 
L 210.481572 169.273462 
L 213.16392 176.672937 
L 215.759741 172.048265 
L 218.442089 161.873986 
L 221.124437 177.135405 
L 223.547203 173.435667 
L 226.229551 173.898134 
L 228.825372 169.735929 
L 231.50772 174.823068 
L 236.785888 175.748003 
L 242.064057 175.748003 
L 244.746405 171.123331 
L 247.342226 174.360601 
L 250.024574 172.741966 
L 252.706922 169.967162 
L 255.216215 168.810994 
L 257.898563 169.273462 
L 260.494384 178.522806 
L 263.176732 175.748003 
L 265.772553 168.579761 
L 268.454901 170.198396 
L 271.137249 169.735929 
L 273.733069 177.135405 
L 276.415417 309.8635 
L 279.011238 226.156931 
L 281.693586 182.222544 
L 284.375934 175.748003 
L 286.7987 178.522806 
L 289.481048 177.597872 
L 292.076869 181.29761 
L 294.759217 180.372675 
L 297.355037 173.898134 
L 300.037385 167.88606 
L 302.719734 177.597872 
L 305.315554 179.447741 
L 307.997902 180.372675 
L 310.593723 174.823068 
L 313.276071 172.973199 
L 315.958419 173.898134 
L 318.381185 173.898134 
L 321.063533 179.910208 
L 323.659354 178.522806 
L 326.341702 173.898134 
L 328.937522 168.348527 
L 331.61987 149.849838 
L 334.302218 147.075034 
L 336.898039 149.849838 
L 339.580387 177.366638 
L 342.176208 212.282914 
L 344.858556 175.748003 
L 347.540904 166.729892 
L 349.96367 221.763492 
L 352.646018 179.216507 
L 355.241839 170.198396 
L 360.520007 172.048265 
L 363.202355 172.048265 
L 365.884703 169.273462 
L 368.480524 171.585798 
L 371.162872 165.573724 
L 373.758693 154.47451 
L 376.441041 163.723855 
L 379.123389 229.856669 
L 381.632682 238.412313 
L 384.31503 173.898134 
L 386.910851 212.282914 
L 389.593199 267.085281 
L 392.18902 172.279499 
L 394.871368 171.817031 
L 397.553716 166.498658 
L 400.149536 241.41835 
L 402.831884 236.33121 
L 405.427705 309.8635 
L 408.110053 281.421765 
L 410.792401 228.469267 
L 413.215167 309.8635 
L 418.493336 309.8635 
L 421.175684 295.064549 
L 423.771504 243.499452 
L 426.453853 171.585798 
L 429.136201 167.88606 
L 431.732021 223.382128 
L 434.414369 238.87478 
L 437.01019 292.520979 
L 439.692538 309.8635 
L 442.374886 300.614155 
L 444.797652 231.937771 
L 447.48 309.8635 
L 447.48 309.8635 
" style="fill:none;stroke:#1f77b4;stroke-linecap:square;stroke-width:1.5;"/>
   </g>
   <g id="patch_3">
    <path d="M 31.543 309.8635 
L 31.543 23.36505 
" style="fill:none;stroke:#000000;stroke-linecap:square;stroke-linejoin:miter;stroke-width:0.8;"/>
   </g>
   <g id="patch_4">
    <path d="M 447.48 309.8635 
L 447.48 23.36505 
" style="fill:none;stroke:#000000;stroke-linecap:square;stroke-linejoin:miter;stroke-width:0.8;"/>
   </g>
   <g id="patch_5">
    <path d="M 31.543 309.8635 
L 447.48 309.8635 
" style="fill:none;stroke:#000000;stroke-linecap:square;stroke-linejoin:miter;stroke-width:0.8;"/>
   </g>
   <g id="patch_6">
    <path d="M 31.543 23.36505 
L 447.48 23.36505 
" style="fill:none;stroke:#000000;stroke-linecap:square;stroke-linejoin:miter;stroke-width:0.8;"/>
   </g>
   <g id="text_15">
    <!-- Monthly gross load trend (MW) -->
    <defs>
     <path d="M 9.8125 72.90625 
L 24.515625 72.90625 
L 43.109375 23.296875 
L 61.8125 72.90625 
L 76.515625 72.90625 
L 76.515625 0 
L 66.890625 0 
L 66.890625 64.015625 
L 48.09375 14.015625 
L 38.1875 14.015625 
L 19.390625 64.015625 
L 19.390625 0 
L 9.8125 0 
z
" id="DejaVuSans-4d"/>
     <path d="M 30.609375 48.390625 
Q 23.390625 48.390625 19.1875 42.75 
Q 14.984375 37.109375 14.984375 27.296875 
Q 14.984375 17.484375 19.15625 11.84375 
Q 23.34375 6.203125 30.609375 6.203125 
Q 37.796875 6.203125 41.984375 11.859375 
Q 46.1875 17.53125 46.1875 27.296875 
Q 46.1875 37.015625 41.984375 42.703125 
Q 37.796875 48.390625 30.609375 48.390625 
z
M 30.609375 56 
Q 42.328125 56 49.015625 48.375 
Q 55.71875 40.765625 55.71875 27.296875 
Q 55.71875 13.875 49.015625 6.21875 
Q 42.328125 -1.421875 30.609375 -1.421875 
Q 18.84375 -1.421875 12.171875 6.21875 
Q 5.515625 13.875 5.515625 27.296875 
Q 5.515625 40.765625 12.171875 48.375 
Q 18.84375 56 30.609375 56 
z
" id="DejaVuSans-6f"/>
     <path d="M 54.890625 33.015625 
L 54.890625 0 
L 45.90625 0 
L 45.90625 32.71875 
Q 45.90625 40.484375 42.875 44.328125 
Q 39.84375 48.1875 33.796875 48.1875 
Q 26.515625 48.1875 22.3125 43.546875 
Q 18.109375 38.921875 18.109375 30.90625 
L 18.109375 0 
L 9.078125 0 
L 9.078125 54.6875 
L 18.109375 54.6875 
L 18.109375 46.1875 
Q 21.34375 51.125 25.703125 53.5625 
Q 30.078125 56 35.796875 56 
Q 45.21875 56 50.046875 50.171875 
Q 54.890625 44.34375 54.890625 33.015625 
z
" id="DejaVuSans-6e"/>
     <path d="M 54.890625 33.015625 
L 54.890625 0 
L 45.90625 0 
L 45.90625 32.71875 
Q 45.90625 40.484375 42.875 44.328125 
Q 39.84375 48.1875 33.796875 48.1875 
Q 26.515625 48.1875 22.3125 43.546875 
Q 18.109375 38.921875 18.109375 30.90625 
L 18.109375 0 
L 9.078125 0 
L 9.078125 75.984375 
L 18.109375 75.984375 
L 18.109375 46.1875 
Q 21.34375 51.125 25.703125 53.5625 
Q 30.078125 56 35.796875 56 
Q 45.21875 56 50.046875 50.171875 
Q 54.890625 44.34375 54.890625 33.015625 
z
" id="DejaVuSans-68"/>
     <path d="M 9.421875 75.984375 
L 18.40625 75.984375 
L 18.40625 0 
L 9.421875 0 
z
" id="DejaVuSans-6c"/>
     <path d="M 32.171875 -5.078125 
Q 28.375 -14.84375 24.75 -17.8125 
Q 21.140625 -20.796875 15.09375 -20.796875 
L 7.90625 -20.796875 
L 7.90625 -13.28125 
L 13.1875 -13.28125 
Q 16.890625 -13.28125 18.9375 -11.515625 
Q 21 -9.765625 23.484375 -3.21875 
L 25.09375 0.875 
L 2.984375 54.6875 
L 12.5 54.6875 
L 29.59375 11.921875 
L 46.6875 54.6875 
L 56.203125 54.6875 
z
" id="DejaVuSans-79"/>
     <path id="DejaVuSans-20"/>
     <path d="M 45.40625 27.984375 
Q 45.40625 37.75 41.375 43.109375 
Q 37.359375 48.484375 30.078125 48.484375 
Q 22.859375 48.484375 18.828125 43.109375 
Q 14.796875 37.75 14.796875 27.984375 
Q 14.796875 18.265625 18.828125 12.890625 
Q 22.859375 7.515625 30.078125 7.515625 
Q 37.359375 7.515625 41.375 12.890625 
Q 45.40625 18.265625 45.40625 27.984375 
z
M 54.390625 6.78125 
Q 54.390625 -7.171875 48.1875 -13.984375 
Q 42 -20.796875 29.203125 -20.796875 
Q 24.46875 -20.796875 20.265625 -20.09375 
Q 16.0625 -19.390625 12.109375 -17.921875 
L 12.109375 -9.1875 
Q 16.0625 -11.328125 19.921875 -12.34375 
Q 23.78125 -13.375 27.78125 -13.375 
Q 36.625 -13.375 41.015625 -8.765625 
Q 45.40625 -4.15625 45.40625 5.171875 
L 45.40625 9.625 
Q 42.625 4.78125 38.28125 2.390625 
Q 33.9375 0 27.875 0 
Q 17.828125 0 11.671875 7.65625 
Q 5.515625 15.328125 5.515625 27.984375 
Q 5.515625 40.671875 11.671875 48.328125 
Q 17.828125 56 27.875 56 
Q 33.9375 56 38.28125 53.609375 
Q 42.625 51.21875 45.40625 46.390625 
L 45.40625 54.6875 
L 54.390625 54.6875 
z
" id="DejaVuSans-67"/>
     <path d="M 41.109375 46.296875 
Q 39.59375 47.171875 37.8125 47.578125 
Q 36.03125 48 33.890625 48 
Q 26.265625 48 22.1875 43.046875 
Q 18.109375 38.09375 18.109375 28.8125 
L 18.109375 0 
L 9.078125 0 
L 9.078125 54.6875 
L 18.109375 54.6875 
L 18.109375 46.1875 
Q 20.953125 51.171875 25.484375 53.578125 
Q 30.03125 56 36.53125 56 
Q 37.453125 56 38.578125 55.875 
Q 39.703125 55.765625 41.0625 55.515625 
z
" id="DejaVuSans-72"/>
     <path d="M 44.28125 53.078125 
L 44.28125 44.578125 
Q 40.484375 46.53125 36.375 47.5 
Q 32.28125 48.484375 27.875 48.484375 
Q 21.1875 48.484375 17.84375 46.4375 
Q 14.5 44.390625 14.5 40.28125 
Q 14.5 37.15625 16.890625 35.375 
Q 19.28125 33.59375 26.515625 31.984375 
L 29.59375 31.296875 
Q 39.15625 29.25 43.1875 25.515625 
Q 47.21875 21.78125 47.21875 15.09375 
Q 47.21875 7.46875 41.1875 3.015625 
Q 35.15625 -1.421875 24.609375 -1.421875 
Q 20.21875 -1.421875 15.453125 -0.5625 
Q 10.6875 0.296875 5.421875 2 
L 5.421875 11.28125 
Q 10.40625 8.6875 15.234375 7.390625 
Q 20.0625 6.109375 24.8125 6.109375 
Q 31.15625 6.109375 34.5625 8.28125 
Q 37.984375 10.453125 37.984375 14.40625 
Q 37.984375 18.0625 35.515625 20.015625 
Q 33.0625 21.96875 24.703125 23.78125 
L 21.578125 24.515625 
Q 13.234375 26.265625 9.515625 29.90625 
Q 5.8125 33.546875 5.8125 39.890625 
Q 5.8125 47.609375 11.28125 51.796875 
Q 16.75 56 26.8125 56 
Q 31.78125 56 36.171875 55.265625 
Q 40.578125 54.546875 44.28125 53.078125 
z
" id="DejaVuSans-73"/>
     <path d="M 45.40625 46.390625 
L 45.40625 75.984375 
L 54.390625 75.984375 
L 54.390625 0 
L 45.40625 0 
L 45.40625 8.203125 
Q 42.578125 3.328125 38.25 0.953125 
Q 33.9375 -1.421875 27.875 -1.421875 
Q 17.96875 -1.421875 11.734375 6.484375 
Q 5.515625 14.40625 5.515625 27.296875 
Q 5.515625 40.1875 11.734375 48.09375 
Q 17.96875 56 27.875 56 
Q 33.9375 56 38.25 53.625 
Q 42.578125 51.265625 45.40625 46.390625 
z
M 14.796875 27.296875 
Q 14.796875 17.390625 18.875 11.75 
Q 22.953125 6.109375 30.078125 6.109375 
Q 37.203125 6.109375 41.296875 11.75 
Q 45.40625 17.390625 45.40625 27.296875 
Q 45.40625 37.203125 41.296875 42.84375 
Q 37.203125 48.484375 30.078125 48.484375 
Q 22.953125 48.484375 18.875 42.84375 
Q 14.796875 37.203125 14.796875 27.296875 
z
" id="DejaVuSans-64"/>
     <path d="M 31 75.875 
Q 24.46875 64.65625 21.28125 53.65625 
Q 18.109375 42.671875 18.109375 31.390625 
Q 18.109375 20.125 21.3125 9.0625 
Q 24.515625 -2 31 -13.1875 
L 23.1875 -13.1875 
Q 15.875 -1.703125 12.234375 9.375 
Q 8.59375 20.453125 8.59375 31.390625 
Q 8.59375 42.28125 12.203125 53.3125 
Q 15.828125 64.359375 23.1875 75.875 
z
" id="DejaVuSans-28"/>
     <path d="M 3.328125 72.90625 
L 13.28125 72.90625 
L 28.609375 11.28125 
L 43.890625 72.90625 
L 54.984375 72.90625 
L 70.3125 11.28125 
L 85.59375 72.90625 
L 95.609375 72.90625 
L 77.296875 0 
L 64.890625 0 
L 49.515625 63.28125 
L 33.984375 0 
L 21.578125 0 
z
" id="DejaVuSans-57"/>
     <path d="M 8.015625 75.875 
L 15.828125 75.875 
Q 23.140625 64.359375 26.78125 53.3125 
Q 30.421875 42.28125 30.421875 31.390625 
Q 30.421875 20.453125 26.78125 9.375 
Q 23.140625 -1.703125 15.828125 -13.1875 
L 8.015625 -13.1875 
Q 14.5 -2 17.703125 9.0625 
Q 20.90625 20.125 20.90625 31.390625 
Q 20.90625 42.671875 17.703125 53.65625 
Q 14.5 64.65625 8.015625 75.875 
z
" id="DejaVuSans-29"/>
    </defs>
    <g transform="translate(146.928688 17.36505)scale(0.12 -0.12)">
     <use xlink:href="#DejaVuSans-4d"/>
     <use x="86.279297" xlink:href="#DejaVuSans-6f"/>
     <use x="147.460938" xlink:href="#DejaVuSans-6e"/>
     <use x="210.839844" xlink:href="#DejaVuSans-74"/>
     <use x="250.048828" xlink:href="#DejaVuSans-68"/>
     <use x="313.427734" xlink:href="#DejaVuSans-6c"/>
     <use x="341.210938" xlink:href="#DejaVuSans-79"/>
     <use x="400.390625" xlink:href="#DejaVuSans-20"/>
     <use x="432.177734" xlink:href="#DejaVuSans-67"/>
     <use x="495.654297" xlink:href="#DejaVuSans-72"/>
     <use x="536.736328" xlink:href="#DejaVuSans-6f"/>
     <use x="597.917969" xlink:href="#DejaVuSans-73"/>
     <use x="650.017578" xlink:href="#DejaVuSans-73"/>
     <use x="702.117188" xlink:href="#DejaVuSans-20"/>
     <use x="733.904297" xlink:href="#DejaVuSans-6c"/>
     <use x="761.6875" xlink:href="#DejaVuSans-6f"/>
     <use x="822.869141" xlink:href="#DejaVuSans-61"/>
     <use x="884.148438" xlink:href="#DejaVuSans-64"/>
     <use x="947.625" xlink:href="#DejaVuSans-20"/>
     <use x="979.412109" xlink:href="#DejaVuSans-74"/>
     <use x="1018.621094" xlink:href="#DejaVuSans-72"/>
     <use x="1059.703125" xlink:href="#DejaVuSans-65"/>
     <use x="1121.226562" xlink:href="#DejaVuSans-6e"/>
     <use x="1184.605469" xlink:href="#DejaVuSans-64"/>
     <use x="1248.082031" xlink:href="#DejaVuSans-20"/>
     <use x="1279.869141" xlink:href="#DejaVuSans-28"/>
     <use x="1318.882812" xlink:href="#DejaVuSans-4d"/>
     <use x="1405.162109" xlink:href="#DejaVuSans-57"/>
     <use x="1504.039062" xlink:href="#DejaVuSans-29"/>
    </g>
   </g>
  </g>
 </g>
 <defs>
  <clipPath id="p52b8cf567f">
   <rect height="286.49845" width="415.937" x="31.543" y="23.36505"/>
  </clipPath>
 </defs>
</svg>
