<?xml version="1.0" encoding="utf-8" standalone="no"?>
<!DOCTYPE svg PUBLIC "-//W3C//DTD SVG 1.1//EN"
  "http://www.w3.org/Graphics/SVG/1.1/DTD/svg11.dtd">
<!-- Created with matplotlib (http://matplotlib.org/) -->
<svg height="345.6pt" version="1.1" viewBox="0 0 460.8 345.6" width="460.8pt" xmlns="http://www.w3.org/2000/svg" xmlns:xlink="http://www.w3.org/1999/xlink">
 <defs>
  <style type="text/css">
*{stroke-linecap:butt;stroke-linejoin:round;}
  </style>
 </defs>
 <g id="figure_1">
  <g id="patch_1">
   <path d="M 0 345.6 
L 460.8 345.6 
L 460.8 0 
L 0 0 
z
" style="fill:none;"/>
  </g>
  <g id="axes_1">
   <g id="patch_2">
    <path d="M 31.543 309.8635 
L 447.48 309.8635 
L 447.48 23.36505 
L 31.543 23.36505 
z
" style="fill:none;"/>
   </g>
   <g id="PolyCollection_1">
    <path clip-path="url(#p14e0dc79b9)" d="M 31.543 129.507839 
L 31.543 309.8635 
L 35.172468 309.8635 
L 38.922918 308.315383 
L 42.673368 309.8635 
L 46.060871 246.390692 
L 49.811321 309.8635 
L 53.440789 278.514126 
L 57.191239 186.788178 
L 60.820706 187.562237 
L 64.571156 189.884413 
L 68.321606 309.8635 
L 71.951074 309.8635 
L 75.701524 270.773539 
L 79.330992 309.8635 
L 83.081442 309.8635 
L 86.831892 283.158477 
L 90.219395 268.064334 
L 93.969845 309.8635 
L 97.599312 269.225422 
L 101.349762 309.8635 
L 104.97923 268.064334 
L 108.72968 270.38651 
L 112.48013 246.003663 
L 116.109598 309.476471 
L 119.860048 309.8635 
L 123.489515 309.8635 
L 127.239965 265.742158 
L 130.990415 265.355129 
L 134.377919 309.8635 
L 138.128369 309.8635 
L 141.757836 290.899064 
L 145.508286 266.516217 
L 149.137754 309.8635 
L 152.888204 268.064334 
L 156.638654 179.82165 
L 160.268122 268.451363 
L 164.018572 309.8635 
L 167.648039 261.871865 
L 171.398489 244.842575 
L 175.148939 246.777722 
L 178.657425 289.737976 
L 182.407875 309.8635 
L 186.037342 309.8635 
L 189.787792 264.9681 
L 193.41726 309.8635 
L 197.16771 262.645924 
L 200.91816 227.039227 
L 204.547628 264.58107 
L 208.298078 309.8635 
L 211.927545 261.484836 
L 215.677995 309.8635 
L 219.428445 241.746341 
L 222.815949 265.355129 
L 226.566398 309.8635 
L 230.195866 240.198223 
L 233.946316 289.350946 
L 237.575784 260.710777 
L 241.326234 309.8635 
L 245.076684 261.484836 
L 248.706152 261.097806 
L 252.456602 309.8635 
L 256.086069 309.8635 
L 259.836519 264.194041 
L 263.586969 264.194041 
L 266.974472 264.58107 
L 270.724922 309.8635 
L 274.35439 265.355129 
L 278.10484 263.807012 
L 281.734308 264.9681 
L 285.484758 265.355129 
L 289.235208 309.8635 
L 292.864675 309.8635 
L 296.615125 309.8635 
L 300.244593 309.8635 
L 303.995043 309.8635 
L 307.745493 267.677305 
L 311.132996 221.233787 
L 314.883446 257.227513 
L 318.512914 197.624999 
L 322.263364 254.131279 
L 325.892832 246.003663 
L 329.643282 200.721233 
L 333.393732 225.878139 
L 337.023199 309.8635 
L 340.773649 309.8635 
L 344.403117 178.660562 
L 348.153567 309.8635 
L 351.904017 167.436712 
L 355.412502 236.32793 
L 359.162952 309.8635 
L 362.79242 309.8635 
L 366.54287 309.8635 
L 370.172338 309.8635 
L 373.922788 180.982738 
L 377.673238 246.003663 
L 381.302705 264.9681 
L 385.053155 309.8635 
L 388.682623 309.8635 
L 392.433073 309.8635 
L 396.183523 250.648015 
L 399.571026 309.8635 
L 403.321476 309.8635 
L 406.950944 309.8635 
L 410.701394 309.8635 
L 414.330862 178.660562 
L 418.081312 241.746341 
L 421.831761 309.8635 
L 425.461229 309.8635 
L 429.211679 309.8635 
L 432.841147 309.8635 
L 436.591597 309.8635 
L 440.342047 309.8635 
L 443.72955 171.694035 
L 447.48 179.047592 
L 447.48 86.934615 
L 447.48 86.934615 
L 443.72955 80.742146 
L 440.342047 84.999468 
L 436.591597 37.007833 
L 432.841147 92.740055 
L 429.211679 86.547586 
L 425.461229 82.677292 
L 421.831761 83.83838 
L 418.081312 113.639638 
L 414.330862 83.064322 
L 410.701394 92.353025 
L 406.950944 124.863488 
L 403.321476 113.252608 
L 399.571026 108.608257 
L 396.183523 90.030849 
L 392.433073 77.645911 
L 388.682623 115.574784 
L 385.053155 90.417879 
L 381.302705 83.83838 
L 377.673238 90.804908 
L 373.922788 88.482732 
L 370.172338 83.83838 
L 366.54287 83.451351 
L 362.79242 119.445077 
L 359.162952 114.800726 
L 355.412502 111.704491 
L 351.904017 107.834198 
L 348.153567 82.290263 
L 344.403117 90.030849 
L 340.773649 81.516204 
L 337.023199 83.451351 
L 333.393732 99.319553 
L 329.643282 93.127084 
L 325.892832 85.386498 
L 322.263364 117.122901 
L 318.512914 118.283989 
L 314.883446 82.290263 
L 311.132996 114.026667 
L 307.745493 79.581058 
L 303.995043 125.637546 
L 300.244593 302.509943 
L 296.615125 124.863488 
L 292.864675 103.963905 
L 289.235208 95.44926 
L 285.484758 110.156374 
L 281.734308 101.2547 
L 278.10484 130.668927 
L 274.35439 122.928341 
L 270.724922 126.798634 
L 266.974472 138.409514 
L 263.586969 139.183572 
L 259.836519 115.574784 
L 256.086069 88.869761 
L 252.456602 121.767253 
L 248.706152 102.802817 
L 245.076684 103.576875 
L 241.326234 101.2547 
L 237.575784 106.286081 
L 233.946316 114.413696 
L 230.195866 96.223318 
L 226.566398 117.89696 
L 222.815949 117.89696 
L 219.428445 117.122901 
L 215.677995 128.346752 
L 211.927545 114.413696 
L 208.298078 127.959722 
L 204.547628 103.963905 
L 200.91816 105.124993 
L 197.16771 100.093612 
L 193.41726 107.447169 
L 189.787792 99.706582 
L 186.037342 102.415787 
L 182.407875 116.348843 
L 178.657425 102.028758 
L 175.148939 113.639638 
L 171.398489 113.639638 
L 167.648039 110.930432 
L 164.018572 117.509931 
L 160.268122 88.869761 
L 156.638654 95.44926 
L 152.888204 99.706582 
L 149.137754 93.901143 
L 145.508286 100.86767 
L 141.757836 106.67311 
L 138.128369 136.087338 
L 134.377919 135.700309 
L 130.990415 83.064322 
L 127.239965 114.413696 
L 123.489515 119.445077 
L 119.860048 116.348843 
L 116.109598 113.252608 
L 112.48013 107.834198 
L 108.72968 100.480641 
L 104.97923 102.028758 
L 101.349762 103.189846 
L 97.599312 100.86767 
L 93.969845 99.706582 
L 90.219395 91.578967 
L 86.831892 90.417879 
L 83.081442 96.223318 
L 79.330992 111.317462 
L 75.701524 118.671019 
L 71.951074 100.093612 
L 68.321606 95.06223 
L 64.571156 98.932524 
L 60.820706 102.802817 
L 57.191239 107.060139 
L 53.440789 132.217045 
L 49.811321 111.704491 
L 46.060871 118.671019 
L 42.673368 74.162648 
L 38.922918 82.290263 
L 35.172468 122.154283 
L 31.543 129.507839 
z
" style="fill:#808080;fill-opacity:0.3;"/>
   </g>
   <g id="PolyCollection_2">
    <path clip-path="url(#p14e0dc79b9)" d="M 31.543 172.758365 
L 31.543 309.8635 
L 35.172468 309.8635 
L 38.922918 214.267259 
L 42.673368 165.501566 
L 46.060871 171.694035 
L 49.811321 149.633364 
L 53.440789 252.196132 
L 57.191239 161.631273 
L 60.820706 150.11715 
L 64.571156 144.214953 
L 68.321606 144.214953 
L 71.951074 180.595709 
L 75.701524 231.683578 
L 79.330992 231.393307 
L 83.081442 248.712868 
L 86.831892 169.468616 
L 90.219395 137.635455 
L 93.969845 220.072699 
L 97.599312 221.620816 
L 101.349762 309.8635 
L 104.97923 176.725416 
L 108.72968 213.88023 
L 112.48013 156.986921 
L 116.109598 243.681487 
L 119.860048 266.903246 
L 123.489515 254.905337 
L 127.239965 173.338909 
L 130.990415 230.135461 
L 134.377919 234.392784 
L 138.128369 256.840484 
L 141.757836 215.912134 
L 145.508286 229.845189 
L 149.137754 145.472799 
L 152.888204 128.733781 
L 156.638654 129.12081 
L 160.268122 239.424165 
L 164.018572 252.583161 
L 167.648039 238.359834 
L 171.398489 157.180435 
L 175.148939 216.976465 
L 178.657425 130.668927 
L 182.407875 139.183572 
L 186.037342 309.8635 
L 189.787792 192.593618 
L 193.41726 251.035044 
L 197.16771 130.378655 
L 200.91816 131.830015 
L 204.547628 232.457637 
L 208.298078 256.937241 
L 211.927545 237.876048 
L 215.677995 228.200315 
L 219.428445 238.263077 
L 222.815949 249.486927 
L 226.566398 309.8635 
L 230.195866 148.472276 
L 233.946316 170.629704 
L 237.575784 223.65272 
L 241.326234 216.976465 
L 245.076684 143.827924 
L 248.706152 156.696649 
L 252.456602 263.419982 
L 256.086069 165.114536 
L 259.836519 172.081064 
L 263.586969 172.081064 
L 266.974472 247.93881 
L 270.724922 163.566419 
L 274.35439 155.438804 
L 278.10484 165.598323 
L 281.734308 169.371859 
L 285.484758 167.823742 
L 289.235208 163.17939 
L 292.864675 230.619248 
L 296.615125 209.235878 
L 300.244593 309.8635 
L 303.995043 267.290275 
L 307.745493 221.233787 
L 311.132996 144.214953 
L 314.883446 142.666836 
L 318.512914 148.182004 
L 322.263364 144.989012 
L 325.892832 135.313279 
L 329.643282 134.152191 
L 333.393732 133.765162 
L 337.023199 138.8933 
L 340.773649 309.8635 
L 344.403117 124.476458 
L 348.153567 129.12081 
L 351.904017 119.541835 
L 355.412502 135.700309 
L 359.162952 141.118719 
L 362.79242 227.523013 
L 366.54287 160.953971 
L 370.172338 251.518831 
L 373.922788 135.797066 
L 377.673238 130.281898 
L 381.302705 158.922067 
L 385.053155 137.635455 
L 388.682623 309.8635 
L 392.433073 138.119242 
L 396.183523 141.118719 
L 399.571026 155.051774 
L 403.321476 257.808057 
L 406.950944 177.886504 
L 410.701394 173.629181 
L 414.330862 140.34466 
L 418.081312 138.506271 
L 421.831761 176.725416 
L 425.461229 309.8635 
L 429.211679 309.8635 
L 432.841147 179.047592 
L 436.591597 173.338909 
L 440.342047 177.112445 
L 443.72955 121.380224 
L 447.48 154.47123 
L 447.48 103.189846 
L 447.48 103.189846 
L 443.72955 93.901143 
L 440.342047 116.252085 
L 436.591597 117.509931 
L 432.841147 126.60512 
L 429.211679 130.959199 
L 425.461229 148.182004 
L 421.831761 124.573216 
L 418.081312 117.800203 
L 414.330862 99.609825 
L 410.701394 142.18305 
L 406.950944 152.729598 
L 403.321476 144.892255 
L 399.571026 125.637546 
L 396.183523 117.89696 
L 392.433073 115.961813 
L 388.682623 130.281898 
L 385.053155 115.574784 
L 381.302705 115.961813 
L 377.673238 115.574784 
L 373.922788 117.800203 
L 370.172338 120.219136 
L 366.54287 119.058048 
L 362.79242 137.248426 
L 359.162952 123.7024 
L 355.412502 118.671019 
L 351.904017 112.09152 
L 348.153567 116.348843 
L 344.403117 117.89696 
L 340.773649 124.089429 
L 337.023199 118.671019 
L 333.393732 120.219136 
L 329.643282 117.89696 
L 325.892832 118.671019 
L 322.263364 126.411605 
L 318.512914 129.894869 
L 314.883446 128.733781 
L 311.132996 121.767253 
L 307.745493 122.154283 
L 303.995043 217.363494 
L 300.244593 309.8635 
L 296.615125 145.279284 
L 292.864675 148.472276 
L 289.235208 135.313279 
L 285.484758 137.248426 
L 281.734308 143.053865 
L 278.10484 138.409514 
L 274.35439 144.601983 
L 270.724922 146.537129 
L 266.974472 173.532424 
L 263.586969 145.376041 
L 259.836519 141.118719 
L 256.086069 131.442986 
L 252.456602 151.56851 
L 248.706152 126.411605 
L 245.076684 127.185664 
L 241.326234 133.281375 
L 237.575784 131.442986 
L 233.946316 132.604074 
L 230.195866 133.378133 
L 226.566398 142.666836 
L 222.815949 132.604074 
L 219.428445 163.566419 
L 215.677995 158.438281 
L 211.927545 219.29864 
L 208.298078 221.620816 
L 204.547628 131.055957 
L 200.91816 125.637546 
L 197.16771 124.476458 
L 193.41726 127.959722 
L 189.787792 124.863488 
L 186.037342 127.572693 
L 182.407875 127.862965 
L 178.657425 120.993195 
L 175.148939 123.31537 
L 171.398489 118.671019 
L 167.648039 129.12081 
L 164.018572 159.502611 
L 160.268122 126.024576 
L 156.638654 125.250517 
L 152.888204 124.863488 
L 149.137754 125.637546 
L 145.508286 131.442986 
L 141.757836 138.022484 
L 138.128369 154.664745 
L 134.377919 155.825833 
L 130.990415 136.087338 
L 127.239965 126.411605 
L 123.489515 163.469662 
L 119.860048 220.072699 
L 116.109598 145.182527 
L 112.48013 131.346229 
L 108.72968 122.541312 
L 104.97923 113.639638 
L 101.349762 173.629181 
L 97.599312 130.959199 
L 93.969845 116.639115 
L 90.219395 96.997377 
L 86.831892 104.350934 
L 83.081442 125.250517 
L 79.330992 134.055434 
L 75.701524 145.376041 
L 71.951074 135.313279 
L 68.321606 124.089429 
L 64.571156 124.863488 
L 60.820706 126.411605 
L 57.191239 146.537129 
L 53.440789 143.440895 
L 49.811321 138.409514 
L 46.060871 132.991103 
L 42.673368 117.509931 
L 38.922918 134.152191 
L 35.172468 158.051251 
L 31.543 172.758365 
z
" style="fill:#808080;fill-opacity:0.6;"/>
   </g>
   <g id="matplotlib.axis_1">
    <g id="xtick_1">
     <g id="line2d_1">
      <path clip-path="url(#p14e0dc79b9)" d="M 39.0439 309.8635 
L 39.0439 23.36505 
" style="fill:none;stroke:#b0b0b0;stroke-linecap:square;stroke-width:0.8;"/>
     </g>
     <g id="line2d_2">
      <defs>
       <path d="M 0 0 
L 0 3.5 
" id="m3ab1ef6b04" style="stroke:#000000;stroke-width:0.8;"/>
      </defs>
      <g>
       <use style="stroke:#000000;stroke-width:0.8;" x="39.0439" xlink:href="#m3ab1ef6b04" y="309.8635"/>
      </g>
     </g>
     <g id="text_1">
      <!-- 2009 -->
      <defs>
       <path d="M 19.1875 8.296875 
L 53.609375 8.296875 
L 53.609375 0 
L 7.328125 0 
L 7.328125 8.296875 
Q 12.9375 14.109375 22.625 23.890625 
Q 32.328125 33.6875 34.8125 36.53125 
Q 39.546875 41.84375 41.421875 45.53125 
Q 43.3125 49.21875 43.3125 52.78125 
Q 43.3125 58.59375 39.234375 62.25 
Q 35.15625 65.921875 28.609375 65.921875 
Q 23.96875 65.921875 18.8125 64.3125 
Q 13.671875 62.703125 7.8125 59.421875 
L 7.8125 69.390625 
Q 13.765625 71.78125 18.9375 73 
Q 24.125 74.21875 28.421875 74.21875 
Q 39.75 74.21875 46.484375 68.546875 
Q 53.21875 62.890625 53.21875 53.421875 
Q 53.21875 48.921875 51.53125 44.890625 
Q 49.859375 40.875 45.40625 35.40625 
Q 44.1875 33.984375 37.640625 27.21875 
Q 31.109375 20.453125 19.1875 8.296875 
z
" id="DejaVuSans-32"/>
       <path d="M 31.78125 66.40625 
Q 24.171875 66.40625 20.328125 58.90625 
Q 16.5 51.421875 16.5 36.375 
Q 16.5 21.390625 20.328125 13.890625 
Q 24.171875 6.390625 31.78125 6.390625 
Q 39.453125 6.390625 43.28125 13.890625 
Q 47.125 21.390625 47.125 36.375 
Q 47.125 51.421875 43.28125 58.90625 
Q 39.453125 66.40625 31.78125 66.40625 
z
M 31.78125 74.21875 
Q 44.046875 74.21875 50.515625 64.515625 
Q 56.984375 54.828125 56.984375 36.375 
Q 56.984375 17.96875 50.515625 8.265625 
Q 44.046875 -1.421875 31.78125 -1.421875 
Q 19.53125 -1.421875 13.0625 8.265625 
Q 6.59375 17.96875 6.59375 36.375 
Q 6.59375 54.828125 13.0625 64.515625 
Q 19.53125 74.21875 31.78125 74.21875 
z
" id="DejaVuSans-30"/>
       <path d="M 10.984375 1.515625 
L 10.984375 10.5 
Q 14.703125 8.734375 18.5 7.8125 
Q 22.3125 6.890625 25.984375 6.890625 
Q 35.75 6.890625 40.890625 13.453125 
Q 46.046875 20.015625 46.78125 33.40625 
Q 43.953125 29.203125 39.59375 26.953125 
Q 35.25 24.703125 29.984375 24.703125 
Q 19.046875 24.703125 12.671875 31.3125 
Q 6.296875 37.9375 6.296875 49.421875 
Q 6.296875 60.640625 12.9375 67.421875 
Q 19.578125 74.21875 30.609375 74.21875 
Q 43.265625 74.21875 49.921875 64.515625 
Q 56.59375 54.828125 56.59375 36.375 
Q 56.59375 19.140625 48.40625 8.859375 
Q 40.234375 -1.421875 26.421875 -1.421875 
Q 22.703125 -1.421875 18.890625 -0.6875 
Q 15.09375 0.046875 10.984375 1.515625 
z
M 30.609375 32.421875 
Q 37.25 32.421875 41.125 36.953125 
Q 45.015625 41.5 45.015625 49.421875 
Q 45.015625 57.28125 41.125 61.84375 
Q 37.25 66.40625 30.609375 66.40625 
Q 23.96875 66.40625 20.09375 61.84375 
Q 16.21875 57.28125 16.21875 49.421875 
Q 16.21875 41.5 20.09375 36.953125 
Q 23.96875 32.421875 30.609375 32.421875 
z
" id="DejaVuSans-39"/>
      </defs>
      <g transform="translate(26.3189 324.461937)scale(0.1 -0.1)">
       <use xlink:href="#DejaVuSans-32"/>
       <use x="63.623047" xlink:href="#DejaVuSans-30"/>
       <use x="127.246094" xlink:href="#DejaVuSans-30"/>
       <use x="190.869141" xlink:href="#DejaVuSans-39"/>
      </g>
     </g>
    </g>
    <g id="xtick_2">
     <g id="line2d_3">
      <path clip-path="url(#p14e0dc79b9)" d="M 83.202424 309.8635 
L 83.202424 23.36505 
" style="fill:none;stroke:#b0b0b0;stroke-linecap:square;stroke-width:0.8;"/>
     </g>
     <g id="line2d_4">
      <g>
       <use style="stroke:#000000;stroke-width:0.8;" x="83.202424" xlink:href="#m3ab1ef6b04" y="309.8635"/>
      </g>
     </g>
     <g id="text_2">
      <!-- 2010 -->
      <defs>
       <path d="M 12.40625 8.296875 
L 28.515625 8.296875 
L 28.515625 63.921875 
L 10.984375 60.40625 
L 10.984375 69.390625 
L 28.421875 72.90625 
L 38.28125 72.90625 
L 38.28125 8.296875 
L 54.390625 8.296875 
L 54.390625 0 
L 12.40625 0 
z
" id="DejaVuSans-31"/>
      </defs>
      <g transform="translate(70.477424 324.461937)scale(0.1 -0.1)">
       <use xlink:href="#DejaVuSans-32"/>
       <use x="63.623047" xlink:href="#DejaVuSans-30"/>
       <use x="127.246094" xlink:href="#DejaVuSans-31"/>
       <use x="190.869141" xlink:href="#DejaVuSans-30"/>
      </g>
     </g>
    </g>
    <g id="xtick_3">
     <g id="line2d_5">
      <path clip-path="url(#p14e0dc79b9)" d="M 127.360948 309.8635 
L 127.360948 23.36505 
" style="fill:none;stroke:#b0b0b0;stroke-linecap:square;stroke-width:0.8;"/>
     </g>
     <g id="line2d_6">
      <g>
       <use style="stroke:#000000;stroke-width:0.8;" x="127.360948" xlink:href="#m3ab1ef6b04" y="309.8635"/>
      </g>
     </g>
     <g id="text_3">
      <!-- 2011 -->
      <g transform="translate(114.635948 324.461937)scale(0.1 -0.1)">
       <use xlink:href="#DejaVuSans-32"/>
       <use x="63.623047" xlink:href="#DejaVuSans-30"/>
       <use x="127.246094" xlink:href="#DejaVuSans-31"/>
       <use x="190.869141" xlink:href="#DejaVuSans-31"/>
      </g>
     </g>
    </g>
    <g id="xtick_4">
     <g id="line2d_7">
      <path clip-path="url(#p14e0dc79b9)" d="M 171.519471 309.8635 
L 171.519471 23.36505 
" style="fill:none;stroke:#b0b0b0;stroke-linecap:square;stroke-width:0.8;"/>
     </g>
     <g id="line2d_8">
      <g>
       <use style="stroke:#000000;stroke-width:0.8;" x="171.519471" xlink:href="#m3ab1ef6b04" y="309.8635"/>
      </g>
     </g>
     <g id="text_4">
      <!-- 2012 -->
      <g transform="translate(158.794471 324.461937)scale(0.1 -0.1)">
       <use xlink:href="#DejaVuSans-32"/>
       <use x="63.623047" xlink:href="#DejaVuSans-30"/>
       <use x="127.246094" xlink:href="#DejaVuSans-31"/>
       <use x="190.869141" xlink:href="#DejaVuSans-32"/>
      </g>
     </g>
    </g>
    <g id="xtick_5">
     <g id="line2d_9">
      <path clip-path="url(#p14e0dc79b9)" d="M 215.798978 309.8635 
L 215.798978 23.36505 
" style="fill:none;stroke:#b0b0b0;stroke-linecap:square;stroke-width:0.8;"/>
     </g>
     <g id="line2d_10">
      <g>
       <use style="stroke:#000000;stroke-width:0.8;" x="215.798978" xlink:href="#m3ab1ef6b04" y="309.8635"/>
      </g>
     </g>
     <g id="text_5">
      <!-- 2013 -->
      <defs>
       <path d="M 40.578125 39.3125 
Q 47.65625 37.796875 51.625 33 
Q 55.609375 28.21875 55.609375 21.1875 
Q 55.609375 10.40625 48.1875 4.484375 
Q 40.765625 -1.421875 27.09375 -1.421875 
Q 22.515625 -1.421875 17.65625 -0.515625 
Q 12.796875 0.390625 7.625 2.203125 
L 7.625 11.71875 
Q 11.71875 9.328125 16.59375 8.109375 
Q 21.484375 6.890625 26.8125 6.890625 
Q 36.078125 6.890625 40.9375 10.546875 
Q 45.796875 14.203125 45.796875 21.1875 
Q 45.796875 27.640625 41.28125 31.265625 
Q 36.765625 34.90625 28.71875 34.90625 
L 20.21875 34.90625 
L 20.21875 43.015625 
L 29.109375 43.015625 
Q 36.375 43.015625 40.234375 45.921875 
Q 44.09375 48.828125 44.09375 54.296875 
Q 44.09375 59.90625 40.109375 62.90625 
Q 36.140625 65.921875 28.71875 65.921875 
Q 24.65625 65.921875 20.015625 65.03125 
Q 15.375 64.15625 9.8125 62.3125 
L 9.8125 71.09375 
Q 15.4375 72.65625 20.34375 73.4375 
Q 25.25 74.21875 29.59375 74.21875 
Q 40.828125 74.21875 47.359375 69.109375 
Q 53.90625 64.015625 53.90625 55.328125 
Q 53.90625 49.265625 50.4375 45.09375 
Q 46.96875 40.921875 40.578125 39.3125 
z
" id="DejaVuSans-33"/>
      </defs>
      <g transform="translate(203.073978 324.461937)scale(0.1 -0.1)">
       <use xlink:href="#DejaVuSans-32"/>
       <use x="63.623047" xlink:href="#DejaVuSans-30"/>
       <use x="127.246094" xlink:href="#DejaVuSans-31"/>
       <use x="190.869141" xlink:href="#DejaVuSans-33"/>
      </g>
     </g>
    </g>
    <g id="xtick_6">
     <g id="line2d_11">
      <path clip-path="url(#p14e0dc79b9)" d="M 259.957501 309.8635 
L 259.957501 23.36505 
" style="fill:none;stroke:#b0b0b0;stroke-linecap:square;stroke-width:0.8;"/>
     </g>
     <g id="line2d_12">
      <g>
       <use style="stroke:#000000;stroke-width:0.8;" x="259.957501" xlink:href="#m3ab1ef6b04" y="309.8635"/>
      </g>
     </g>
     <g id="text_6">
      <!-- 2014 -->
      <defs>
       <path d="M 37.796875 64.3125 
L 12.890625 25.390625 
L 37.796875 25.390625 
z
M 35.203125 72.90625 
L 47.609375 72.90625 
L 47.609375 25.390625 
L 58.015625 25.390625 
L 58.015625 17.1875 
L 47.609375 17.1875 
L 47.609375 0 
L 37.796875 0 
L 37.796875 17.1875 
L 4.890625 17.1875 
L 4.890625 26.703125 
z
" id="DejaVuSans-34"/>
      </defs>
      <g transform="translate(247.232501 324.461937)scale(0.1 -0.1)">
       <use xlink:href="#DejaVuSans-32"/>
       <use x="63.623047" xlink:href="#DejaVuSans-30"/>
       <use x="127.246094" xlink:href="#DejaVuSans-31"/>
       <use x="190.869141" xlink:href="#DejaVuSans-34"/>
      </g>
     </g>
    </g>
    <g id="xtick_7">
     <g id="line2d_13">
      <path clip-path="url(#p14e0dc79b9)" d="M 304.116025 309.8635 
L 304.116025 23.36505 
" style="fill:none;stroke:#b0b0b0;stroke-linecap:square;stroke-width:0.8;"/>
     </g>
     <g id="line2d_14">
      <g>
       <use style="stroke:#000000;stroke-width:0.8;" x="304.116025" xlink:href="#m3ab1ef6b04" y="309.8635"/>
      </g>
     </g>
     <g id="text_7">
      <!-- 2015 -->
      <defs>
       <path d="M 10.796875 72.90625 
L 49.515625 72.90625 
L 49.515625 64.59375 
L 19.828125 64.59375 
L 19.828125 46.734375 
Q 21.96875 47.46875 24.109375 47.828125 
Q 26.265625 48.1875 28.421875 48.1875 
Q 40.625 48.1875 47.75 41.5 
Q 54.890625 34.8125 54.890625 23.390625 
Q 54.890625 11.625 47.5625 5.09375 
Q 40.234375 -1.421875 26.90625 -1.421875 
Q 22.3125 -1.421875 17.546875 -0.640625 
Q 12.796875 0.140625 7.71875 1.703125 
L 7.71875 11.625 
Q 12.109375 9.234375 16.796875 8.0625 
Q 21.484375 6.890625 26.703125 6.890625 
Q 35.15625 6.890625 40.078125 11.328125 
Q 45.015625 15.765625 45.015625 23.390625 
Q 45.015625 31 40.078125 35.4375 
Q 35.15625 39.890625 26.703125 39.890625 
Q 22.75 39.890625 18.8125 39.015625 
Q 14.890625 38.140625 10.796875 36.28125 
z
" id="DejaVuSans-35"/>
      </defs>
      <g transform="translate(291.391025 324.461937)scale(0.1 -0.1)">
       <use xlink:href="#DejaVuSans-32"/>
       <use x="63.623047" xlink:href="#DejaVuSans-30"/>
       <use x="127.246094" xlink:href="#DejaVuSans-31"/>
       <use x="190.869141" xlink:href="#DejaVuSans-35"/>
      </g>
     </g>
    </g>
    <g id="xtick_8">
     <g id="line2d_15">
      <path clip-path="url(#p14e0dc79b9)" d="M 348.274549 309.8635 
L 348.274549 23.36505 
" style="fill:none;stroke:#b0b0b0;stroke-linecap:square;stroke-width:0.8;"/>
     </g>
     <g id="line2d_16">
      <g>
       <use style="stroke:#000000;stroke-width:0.8;" x="348.274549" xlink:href="#m3ab1ef6b04" y="309.8635"/>
      </g>
     </g>
     <g id="text_8">
      <!-- 2016 -->
      <defs>
       <path d="M 33.015625 40.375 
Q 26.375 40.375 22.484375 35.828125 
Q 18.609375 31.296875 18.609375 23.390625 
Q 18.609375 15.53125 22.484375 10.953125 
Q 26.375 6.390625 33.015625 6.390625 
Q 39.65625 6.390625 43.53125 10.953125 
Q 47.40625 15.53125 47.40625 23.390625 
Q 47.40625 31.296875 43.53125 35.828125 
Q 39.65625 40.375 33.015625 40.375 
z
M 52.59375 71.296875 
L 52.59375 62.3125 
Q 48.875 64.0625 45.09375 64.984375 
Q 41.3125 65.921875 37.59375 65.921875 
Q 27.828125 65.921875 22.671875 59.328125 
Q 17.53125 52.734375 16.796875 39.40625 
Q 19.671875 43.65625 24.015625 45.921875 
Q 28.375 48.1875 33.59375 48.1875 
Q 44.578125 48.1875 50.953125 41.515625 
Q 57.328125 34.859375 57.328125 23.390625 
Q 57.328125 12.15625 50.6875 5.359375 
Q 44.046875 -1.421875 33.015625 -1.421875 
Q 20.359375 -1.421875 13.671875 8.265625 
Q 6.984375 17.96875 6.984375 36.375 
Q 6.984375 53.65625 15.1875 63.9375 
Q 23.390625 74.21875 37.203125 74.21875 
Q 40.921875 74.21875 44.703125 73.484375 
Q 48.484375 72.75 52.59375 71.296875 
z
" id="DejaVuSans-36"/>
      </defs>
      <g transform="translate(335.549549 324.461937)scale(0.1 -0.1)">
       <use xlink:href="#DejaVuSans-32"/>
       <use x="63.623047" xlink:href="#DejaVuSans-30"/>
       <use x="127.246094" xlink:href="#DejaVuSans-31"/>
       <use x="190.869141" xlink:href="#DejaVuSans-36"/>
      </g>
     </g>
    </g>
    <g id="xtick_9">
     <g id="line2d_17">
      <path clip-path="url(#p14e0dc79b9)" d="M 392.554055 309.8635 
L 392.554055 23.36505 
" style="fill:none;stroke:#b0b0b0;stroke-linecap:square;stroke-width:0.8;"/>
     </g>
     <g id="line2d_18">
      <g>
       <use style="stroke:#000000;stroke-width:0.8;" x="392.554055" xlink:href="#m3ab1ef6b04" y="309.8635"/>
      </g>
     </g>
     <g id="text_9">
      <!-- 2017 -->
      <defs>
       <path d="M 8.203125 72.90625 
L 55.078125 72.90625 
L 55.078125 68.703125 
L 28.609375 0 
L 18.3125 0 
L 43.21875 64.59375 
L 8.203125 64.59375 
z
" id="DejaVuSans-37"/>
      </defs>
      <g transform="translate(379.829055 324.461937)scale(0.1 -0.1)">
       <use xlink:href="#DejaVuSans-32"/>
       <use x="63.623047" xlink:href="#DejaVuSans-30"/>
       <use x="127.246094" xlink:href="#DejaVuSans-31"/>
       <use x="190.869141" xlink:href="#DejaVuSans-37"/>
      </g>
     </g>
    </g>
    <g id="xtick_10">
     <g id="line2d_19">
      <path clip-path="url(#p14e0dc79b9)" d="M 436.712579 309.8635 
L 436.712579 23.36505 
" style="fill:none;stroke:#b0b0b0;stroke-linecap:square;stroke-width:0.8;"/>
     </g>
     <g id="line2d_20">
      <g>
       <use style="stroke:#000000;stroke-width:0.8;" x="436.712579" xlink:href="#m3ab1ef6b04" y="309.8635"/>
      </g>
     </g>
     <g id="text_10">
      <!-- 2018 -->
      <defs>
       <path d="M 31.78125 34.625 
Q 24.75 34.625 20.71875 30.859375 
Q 16.703125 27.09375 16.703125 20.515625 
Q 16.703125 13.921875 20.71875 10.15625 
Q 24.75 6.390625 31.78125 6.390625 
Q 38.8125 6.390625 42.859375 10.171875 
Q 46.921875 13.96875 46.921875 20.515625 
Q 46.921875 27.09375 42.890625 30.859375 
Q 38.875 34.625 31.78125 34.625 
z
M 21.921875 38.8125 
Q 15.578125 40.375 12.03125 44.71875 
Q 8.5 49.078125 8.5 55.328125 
Q 8.5 64.0625 14.71875 69.140625 
Q 20.953125 74.21875 31.78125 74.21875 
Q 42.671875 74.21875 48.875 69.140625 
Q 55.078125 64.0625 55.078125 55.328125 
Q 55.078125 49.078125 51.53125 44.71875 
Q 48 40.375 41.703125 38.8125 
Q 48.828125 37.15625 52.796875 32.3125 
Q 56.78125 27.484375 56.78125 20.515625 
Q 56.78125 9.90625 50.3125 4.234375 
Q 43.84375 -1.421875 31.78125 -1.421875 
Q 19.734375 -1.421875 13.25 4.234375 
Q 6.78125 9.90625 6.78125 20.515625 
Q 6.78125 27.484375 10.78125 32.3125 
Q 14.796875 37.15625 21.921875 38.8125 
z
M 18.3125 54.390625 
Q 18.3125 48.734375 21.84375 45.5625 
Q 25.390625 42.390625 31.78125 42.390625 
Q 38.140625 42.390625 41.71875 45.5625 
Q 45.3125 48.734375 45.3125 54.390625 
Q 45.3125 60.0625 41.71875 63.234375 
Q 38.140625 66.40625 31.78125 66.40625 
Q 25.390625 66.40625 21.84375 63.234375 
Q 18.3125 60.0625 18.3125 54.390625 
z
" id="DejaVuSans-38"/>
      </defs>
      <g transform="translate(423.987579 324.461937)scale(0.1 -0.1)">
       <use xlink:href="#DejaVuSans-32"/>
       <use x="63.623047" xlink:href="#DejaVuSans-30"/>
       <use x="127.246094" xlink:href="#DejaVuSans-31"/>
       <use x="190.869141" xlink:href="#DejaVuSans-38"/>
      </g>
     </g>
    </g>
    <g id="text_11">
     <!-- Date -->
     <defs>
      <path d="M 19.671875 64.796875 
L 19.671875 8.109375 
L 31.59375 8.109375 
Q 46.6875 8.109375 53.6875 14.9375 
Q 60.6875 21.78125 60.6875 36.53125 
Q 60.6875 51.171875 53.6875 57.984375 
Q 46.6875 64.796875 31.59375 64.796875 
z
M 9.8125 72.90625 
L 30.078125 72.90625 
Q 51.265625 72.90625 61.171875 64.09375 
Q 71.09375 55.28125 71.09375 36.53125 
Q 71.09375 17.671875 61.125 8.828125 
Q 51.171875 0 30.078125 0 
L 9.8125 0 
z
" id="DejaVuSans-44"/>
      <path d="M 34.28125 27.484375 
Q 23.390625 27.484375 19.1875 25 
Q 14.984375 22.515625 14.984375 16.5 
Q 14.984375 11.71875 18.140625 8.90625 
Q 21.296875 6.109375 26.703125 6.109375 
Q 34.1875 6.109375 38.703125 11.40625 
Q 43.21875 16.703125 43.21875 25.484375 
L 43.21875 27.484375 
z
M 52.203125 31.203125 
L 52.203125 0 
L 43.21875 0 
L 43.21875 8.296875 
Q 40.140625 3.328125 35.546875 0.953125 
Q 30.953125 -1.421875 24.3125 -1.421875 
Q 15.921875 -1.421875 10.953125 3.296875 
Q 6 8.015625 6 15.921875 
Q 6 25.140625 12.171875 29.828125 
Q 18.359375 34.515625 30.609375 34.515625 
L 43.21875 34.515625 
L 43.21875 35.40625 
Q 43.21875 41.609375 39.140625 45 
Q 35.0625 48.390625 27.6875 48.390625 
Q 23 48.390625 18.546875 47.265625 
Q 14.109375 46.140625 10.015625 43.890625 
L 10.015625 52.203125 
Q 14.9375 54.109375 19.578125 55.046875 
Q 24.21875 56 28.609375 56 
Q 40.484375 56 46.34375 49.84375 
Q 52.203125 43.703125 52.203125 31.203125 
z
" id="DejaVuSans-61"/>
      <path d="M 18.3125 70.21875 
L 18.3125 54.6875 
L 36.8125 54.6875 
L 36.8125 47.703125 
L 18.3125 47.703125 
L 18.3125 18.015625 
Q 18.3125 11.328125 20.140625 9.421875 
Q 21.96875 7.515625 27.59375 7.515625 
L 36.8125 7.515625 
L 36.8125 0 
L 27.59375 0 
Q 17.1875 0 13.234375 3.875 
Q 9.28125 7.765625 9.28125 18.015625 
L 9.28125 47.703125 
L 2.6875 47.703125 
L 2.6875 54.6875 
L 9.28125 54.6875 
L 9.28125 70.21875 
z
" id="DejaVuSans-74"/>
      <path d="M 56.203125 29.59375 
L 56.203125 25.203125 
L 14.890625 25.203125 
Q 15.484375 15.921875 20.484375 11.0625 
Q 25.484375 6.203125 34.421875 6.203125 
Q 39.59375 6.203125 44.453125 7.46875 
Q 49.3125 8.734375 54.109375 11.28125 
L 54.109375 2.78125 
Q 49.265625 0.734375 44.1875 -0.34375 
Q 39.109375 -1.421875 33.890625 -1.421875 
Q 20.796875 -1.421875 13.15625 6.1875 
Q 5.515625 13.8125 5.515625 26.8125 
Q 5.515625 40.234375 12.765625 48.109375 
Q 20.015625 56 32.328125 56 
Q 43.359375 56 49.78125 48.890625 
Q 56.203125 41.796875 56.203125 29.59375 
z
M 47.21875 32.234375 
Q 47.125 39.59375 43.09375 43.984375 
Q 39.0625 48.390625 32.421875 48.390625 
Q 24.90625 48.390625 20.390625 44.140625 
Q 15.875 39.890625 15.1875 32.171875 
z
" id="DejaVuSans-65"/>
     </defs>
     <g transform="translate(227.560719 338.140062)scale(0.1 -0.1)">
      <use xlink:href="#DejaVuSans-44"/>
      <use x="77.001953" xlink:href="#DejaVuSans-61"/>
      <use x="138.28125" xlink:href="#DejaVuSans-74"/>
      <use x="177.490234" xlink:href="#DejaVuSans-65"/>
     </g>
    </g>
   </g>
   <g id="matplotlib.axis_2">
    <g id="ytick_1">
     <g id="line2d_21">
      <path clip-path="url(#p14e0dc79b9)" d="M 31.543 309.8635 
L 447.48 309.8635 
" style="fill:none;stroke:#b0b0b0;stroke-linecap:square;stroke-width:0.8;"/>
     </g>
     <g id="line2d_22">
      <defs>
       <path d="M 0 0 
L -3.5 0 
" id="m77db6f0082" style="stroke:#000000;stroke-width:0.8;"/>
      </defs>
      <g>
       <use style="stroke:#000000;stroke-width:0.8;" x="31.543" xlink:href="#m77db6f0082" y="309.8635"/>
      </g>
     </g>
     <g id="text_12">
      <!-- 0 -->
      <g transform="translate(18.1805 313.662719)scale(0.1 -0.1)">
       <use xlink:href="#DejaVuSans-30"/>
      </g>
     </g>
    </g>
    <g id="ytick_2">
     <g id="line2d_23">
      <path clip-path="url(#p14e0dc79b9)" d="M 31.543 271.160569 
L 447.48 271.160569 
" style="fill:none;stroke:#b0b0b0;stroke-linecap:square;stroke-width:0.8;"/>
     </g>
     <g id="line2d_24">
      <g>
       <use style="stroke:#000000;stroke-width:0.8;" x="31.543" xlink:href="#m77db6f0082" y="271.160569"/>
      </g>
     </g>
     <g id="text_13">
      <!-- 100 -->
      <g transform="translate(5.4555 274.959787)scale(0.1 -0.1)">
       <use xlink:href="#DejaVuSans-31"/>
       <use x="63.623047" xlink:href="#DejaVuSans-30"/>
       <use x="127.246094" xlink:href="#DejaVuSans-30"/>
      </g>
     </g>
    </g>
    <g id="ytick_3">
     <g id="line2d_25">
      <path clip-path="url(#p14e0dc79b9)" d="M 31.543 232.457637 
L 447.48 232.457637 
" style="fill:none;stroke:#b0b0b0;stroke-linecap:square;stroke-width:0.8;"/>
     </g>
     <g id="line2d_26">
      <g>
       <use style="stroke:#000000;stroke-width:0.8;" x="31.543" xlink:href="#m77db6f0082" y="232.457637"/>
      </g>
     </g>
     <g id="text_14">
      <!-- 200 -->
      <g transform="translate(5.4555 236.256856)scale(0.1 -0.1)">
       <use xlink:href="#DejaVuSans-32"/>
       <use x="63.623047" xlink:href="#DejaVuSans-30"/>
       <use x="127.246094" xlink:href="#DejaVuSans-30"/>
      </g>
     </g>
    </g>
    <g id="ytick_4">
     <g id="line2d_27">
      <path clip-path="url(#p14e0dc79b9)" d="M 31.543 193.754706 
L 447.48 193.754706 
" style="fill:none;stroke:#b0b0b0;stroke-linecap:square;stroke-width:0.8;"/>
     </g>
     <g id="line2d_28">
      <g>
       <use style="stroke:#000000;stroke-width:0.8;" x="31.543" xlink:href="#m77db6f0082" y="193.754706"/>
      </g>
     </g>
     <g id="text_15">
      <!-- 300 -->
      <g transform="translate(5.4555 197.553924)scale(0.1 -0.1)">
       <use xlink:href="#DejaVuSans-33"/>
       <use x="63.623047" xlink:href="#DejaVuSans-30"/>
       <use x="127.246094" xlink:href="#DejaVuSans-30"/>
      </g>
     </g>
    </g>
    <g id="ytick_5">
     <g id="line2d_29">
      <path clip-path="url(#p14e0dc79b9)" d="M 31.543 155.051774 
L 447.48 155.051774 
" style="fill:none;stroke:#b0b0b0;stroke-linecap:square;stroke-width:0.8;"/>
     </g>
     <g id="line2d_30">
      <g>
       <use style="stroke:#000000;stroke-width:0.8;" x="31.543" xlink:href="#m77db6f0082" y="155.051774"/>
      </g>
     </g>
     <g id="text_16">
      <!-- 400 -->
      <g transform="translate(5.4555 158.850993)scale(0.1 -0.1)">
       <use xlink:href="#DejaVuSans-34"/>
       <use x="63.623047" xlink:href="#DejaVuSans-30"/>
       <use x="127.246094" xlink:href="#DejaVuSans-30"/>
      </g>
     </g>
    </g>
    <g id="ytick_6">
     <g id="line2d_31">
      <path clip-path="url(#p14e0dc79b9)" d="M 31.543 116.348843 
L 447.48 116.348843 
" style="fill:none;stroke:#b0b0b0;stroke-linecap:square;stroke-width:0.8;"/>
     </g>
     <g id="line2d_32">
      <g>
       <use style="stroke:#000000;stroke-width:0.8;" x="31.543" xlink:href="#m77db6f0082" y="116.348843"/>
      </g>
     </g>
     <g id="text_17">
      <!-- 500 -->
      <g transform="translate(5.4555 120.148062)scale(0.1 -0.1)">
       <use xlink:href="#DejaVuSans-35"/>
       <use x="63.623047" xlink:href="#DejaVuSans-30"/>
       <use x="127.246094" xlink:href="#DejaVuSans-30"/>
      </g>
     </g>
    </g>
    <g id="ytick_7">
     <g id="line2d_33">
      <path clip-path="url(#p14e0dc79b9)" d="M 31.543 77.645911 
L 447.48 77.645911 
" style="fill:none;stroke:#b0b0b0;stroke-linecap:square;stroke-width:0.8;"/>
     </g>
     <g id="line2d_34">
      <g>
       <use style="stroke:#000000;stroke-width:0.8;" x="31.543" xlink:href="#m77db6f0082" y="77.645911"/>
      </g>
     </g>
     <g id="text_18">
      <!-- 600 -->
      <g transform="translate(5.4555 81.44513)scale(0.1 -0.1)">
       <use xlink:href="#DejaVuSans-36"/>
       <use x="63.623047" xlink:href="#DejaVuSans-30"/>
       <use x="127.246094" xlink:href="#DejaVuSans-30"/>
      </g>
     </g>
    </g>
    <g id="ytick_8">
     <g id="line2d_35">
      <path clip-path="url(#p14e0dc79b9)" d="M 31.543 38.94298 
L 447.48 38.94298 
" style="fill:none;stroke:#b0b0b0;stroke-linecap:square;stroke-width:0.8;"/>
     </g>
     <g id="line2d_36">
      <g>
       <use style="stroke:#000000;stroke-width:0.8;" x="31.543" xlink:href="#m77db6f0082" y="38.94298"/>
      </g>
     </g>
     <g id="text_19">
      <!-- 700 -->
      <g transform="translate(5.4555 42.742199)scale(0.1 -0.1)">
       <use xlink:href="#DejaVuSans-37"/>
       <use x="63.623047" xlink:href="#DejaVuSans-30"/>
       <use x="127.246094" xlink:href="#DejaVuSans-30"/>
      </g>
     </g>
    </g>
   </g>
   <g id="line2d_37">
    <path clip-path="url(#p14e0dc79b9)" d="M 31.543 309.8635 
L 35.172468 248.712868 
L 38.922918 169.371859 
L 42.673368 131.249471 
L 46.060871 143.440895 
L 49.811321 141.118719 
L 53.440789 224.910565 
L 57.191239 150.020393 
L 60.820706 140.151146 
L 64.571156 132.991103 
L 68.321606 134.152191 
L 71.951074 142.086292 
L 75.701524 186.401149 
L 79.330992 177.112445 
L 83.081442 179.047592 
L 86.831892 114.800726 
L 90.219395 104.350934 
L 93.969845 142.279807 
L 97.599312 162.598846 
L 101.349762 252.776676 
L 104.97923 132.410559 
L 108.72968 140.73169 
L 112.48013 141.505748 
L 116.109598 221.620816 
L 119.860048 249.680442 
L 123.489515 248.712868 
L 127.239965 136.087338 
L 130.990415 167.436712 
L 134.377919 173.629181 
L 138.128369 169.565374 
L 141.757836 156.599891 
L 145.508286 165.114536 
L 149.137754 128.346752 
L 152.888204 126.411605 
L 156.638654 126.798634 
L 160.268122 212.332113 
L 164.018572 219.68567 
L 167.648039 173.822696 
L 171.398489 122.154283 
L 175.148939 130.281898 
L 178.657425 126.411605 
L 182.407875 132.604074 
L 186.037342 267.290275 
L 189.787792 130.281898 
L 193.41726 139.570602 
L 197.16771 126.798634 
L 200.91816 127.959722 
L 204.547628 220.459728 
L 208.298078 241.746341 
L 211.927545 224.330022 
L 215.677995 216.589435 
L 219.428445 225.491109 
L 222.815949 218.911611 
L 226.566398 221.814331 
L 230.195866 140.34466 
L 233.946316 142.666836 
L 237.575784 155.051774 
L 241.326234 148.859305 
L 245.076684 136.087338 
L 248.706152 134.92625 
L 252.456602 175.177299 
L 256.086069 141.699263 
L 259.836519 153.697172 
L 263.586969 168.5978 
L 266.974472 238.650106 
L 270.724922 149.633364 
L 274.35439 150.407422 
L 278.10484 153.116628 
L 281.734308 155.051774 
L 285.484758 145.376041 
L 289.235208 143.053865 
L 292.864675 156.212862 
L 296.615125 155.051774 
L 300.244593 309.8635 
L 303.995043 230.90952 
L 307.745493 135.313279 
L 311.132996 133.378133 
L 314.883446 134.92625 
L 318.512914 138.796543 
L 322.263364 131.442986 
L 325.892832 127.959722 
L 329.643282 124.089429 
L 333.393732 124.089429 
L 337.023199 124.282944 
L 340.773649 134.92625 
L 344.403117 120.79968 
L 348.153567 119.445077 
L 351.904017 115.961813 
L 355.412502 122.541312 
L 359.162952 131.830015 
L 362.79242 220.846758 
L 366.54287 127.959722 
L 370.172338 172.274579 
L 373.922788 121.380224 
L 377.673238 119.445077 
L 381.302705 124.089429 
L 385.053155 126.21809 
L 388.682623 309.8635 
L 392.433073 125.637546 
L 396.183523 127.959722 
L 399.571026 134.92625 
L 403.321476 163.566419 
L 406.950944 169.565374 
L 410.701394 157.37395 
L 414.330862 121.767253 
L 418.081312 123.121856 
L 421.831761 149.05282 
L 425.461229 174.596755 
L 429.211679 174.790269 
L 432.841147 159.115582 
L 436.591597 143.053865 
L 440.342047 148.472276 
L 443.72955 104.350934 
L 447.48 116.348843 
" style="fill:none;stroke:#1f77b4;stroke-linecap:square;stroke-width:1.5;"/>
   </g>
   <g id="patch_3">
    <path d="M 31.543 309.8635 
L 31.543 23.36505 
" style="fill:none;stroke:#000000;stroke-linecap:square;stroke-linejoin:miter;stroke-width:0.8;"/>
   </g>
   <g id="patch_4">
    <path d="M 447.48 309.8635 
L 447.48 23.36505 
" style="fill:none;stroke:#000000;stroke-linecap:square;stroke-linejoin:miter;stroke-width:0.8;"/>
   </g>
   <g id="patch_5">
    <path d="M 31.543 309.8635 
L 447.48 309.8635 
" style="fill:none;stroke:#000000;stroke-linecap:square;stroke-linejoin:miter;stroke-width:0.8;"/>
   </g>
   <g id="patch_6">
    <path d="M 31.543 23.36505 
L 447.48 23.36505 
" style="fill:none;stroke:#000000;stroke-linecap:square;stroke-linejoin:miter;stroke-width:0.8;"/>
   </g>
   <g id="text_20">
    <!-- Monthly gross load trend (MW) -->
    <defs>
     <path d="M 9.8125 72.90625 
L 24.515625 72.90625 
L 43.109375 23.296875 
L 61.8125 72.90625 
L 76.515625 72.90625 
L 76.515625 0 
L 66.890625 0 
L 66.890625 64.015625 
L 48.09375 14.015625 
L 38.1875 14.015625 
L 19.390625 64.015625 
L 19.390625 0 
L 9.8125 0 
z
" id="DejaVuSans-4d"/>
     <path d="M 30.609375 48.390625 
Q 23.390625 48.390625 19.1875 42.75 
Q 14.984375 37.109375 14.984375 27.296875 
Q 14.984375 17.484375 19.15625 11.84375 
Q 23.34375 6.203125 30.609375 6.203125 
Q 37.796875 6.203125 41.984375 11.859375 
Q 46.1875 17.53125 46.1875 27.296875 
Q 46.1875 37.015625 41.984375 42.703125 
Q 37.796875 48.390625 30.609375 48.390625 
z
M 30.609375 56 
Q 42.328125 56 49.015625 48.375 
Q 55.71875 40.765625 55.71875 27.296875 
Q 55.71875 13.875 49.015625 6.21875 
Q 42.328125 -1.421875 30.609375 -1.421875 
Q 18.84375 -1.421875 12.171875 6.21875 
Q 5.515625 13.875 5.515625 27.296875 
Q 5.515625 40.765625 12.171875 48.375 
Q 18.84375 56 30.609375 56 
z
" id="DejaVuSans-6f"/>
     <path d="M 54.890625 33.015625 
L 54.890625 0 
L 45.90625 0 
L 45.90625 32.71875 
Q 45.90625 40.484375 42.875 44.328125 
Q 39.84375 48.1875 33.796875 48.1875 
Q 26.515625 48.1875 22.3125 43.546875 
Q 18.109375 38.921875 18.109375 30.90625 
L 18.109375 0 
L 9.078125 0 
L 9.078125 54.6875 
L 18.109375 54.6875 
L 18.109375 46.1875 
Q 21.34375 51.125 25.703125 53.5625 
Q 30.078125 56 35.796875 56 
Q 45.21875 56 50.046875 50.171875 
Q 54.890625 44.34375 54.890625 33.015625 
z
" id="DejaVuSans-6e"/>
     <path d="M 54.890625 33.015625 
L 54.890625 0 
L 45.90625 0 
L 45.90625 32.71875 
Q 45.90625 40.484375 42.875 44.328125 
Q 39.84375 48.1875 33.796875 48.1875 
Q 26.515625 48.1875 22.3125 43.546875 
Q 18.109375 38.921875 18.109375 30.90625 
L 18.109375 0 
L 9.078125 0 
L 9.078125 75.984375 
L 18.109375 75.984375 
L 18.109375 46.1875 
Q 21.34375 51.125 25.703125 53.5625 
Q 30.078125 56 35.796875 56 
Q 45.21875 56 50.046875 50.171875 
Q 54.890625 44.34375 54.890625 33.015625 
z
" id="DejaVuSans-68"/>
     <path d="M 9.421875 75.984375 
L 18.40625 75.984375 
L 18.40625 0 
L 9.421875 0 
z
" id="DejaVuSans-6c"/>
     <path d="M 32.171875 -5.078125 
Q 28.375 -14.84375 24.75 -17.8125 
Q 21.140625 -20.796875 15.09375 -20.796875 
L 7.90625 -20.796875 
L 7.90625 -13.28125 
L 13.1875 -13.28125 
Q 16.890625 -13.28125 18.9375 -11.515625 
Q 21 -9.765625 23.484375 -3.21875 
L 25.09375 0.875 
L 2.984375 54.6875 
L 12.5 54.6875 
L 29.59375 11.921875 
L 46.6875 54.6875 
L 56.203125 54.6875 
z
" id="DejaVuSans-79"/>
     <path id="DejaVuSans-20"/>
     <path d="M 45.40625 27.984375 
Q 45.40625 37.75 41.375 43.109375 
Q 37.359375 48.484375 30.078125 48.484375 
Q 22.859375 48.484375 18.828125 43.109375 
Q 14.796875 37.75 14.796875 27.984375 
Q 14.796875 18.265625 18.828125 12.890625 
Q 22.859375 7.515625 30.078125 7.515625 
Q 37.359375 7.515625 41.375 12.890625 
Q 45.40625 18.265625 45.40625 27.984375 
z
M 54.390625 6.78125 
Q 54.390625 -7.171875 48.1875 -13.984375 
Q 42 -20.796875 29.203125 -20.796875 
Q 24.46875 -20.796875 20.265625 -20.09375 
Q 16.0625 -19.390625 12.109375 -17.921875 
L 12.109375 -9.1875 
Q 16.0625 -11.328125 19.921875 -12.34375 
Q 23.78125 -13.375 27.78125 -13.375 
Q 36.625 -13.375 41.015625 -8.765625 
Q 45.40625 -4.15625 45.40625 5.171875 
L 45.40625 9.625 
Q 42.625 4.78125 38.28125 2.390625 
Q 33.9375 0 27.875 0 
Q 17.828125 0 11.671875 7.65625 
Q 5.515625 15.328125 5.515625 27.984375 
Q 5.515625 40.671875 11.671875 48.328125 
Q 17.828125 56 27.875 56 
Q 33.9375 56 38.28125 53.609375 
Q 42.625 51.21875 45.40625 46.390625 
L 45.40625 54.6875 
L 54.390625 54.6875 
z
" id="DejaVuSans-67"/>
     <path d="M 41.109375 46.296875 
Q 39.59375 47.171875 37.8125 47.578125 
Q 36.03125 48 33.890625 48 
Q 26.265625 48 22.1875 43.046875 
Q 18.109375 38.09375 18.109375 28.8125 
L 18.109375 0 
L 9.078125 0 
L 9.078125 54.6875 
L 18.109375 54.6875 
L 18.109375 46.1875 
Q 20.953125 51.171875 25.484375 53.578125 
Q 30.03125 56 36.53125 56 
Q 37.453125 56 38.578125 55.875 
Q 39.703125 55.765625 41.0625 55.515625 
z
" id="DejaVuSans-72"/>
     <path d="M 44.28125 53.078125 
L 44.28125 44.578125 
Q 40.484375 46.53125 36.375 47.5 
Q 32.28125 48.484375 27.875 48.484375 
Q 21.1875 48.484375 17.84375 46.4375 
Q 14.5 44.390625 14.5 40.28125 
Q 14.5 37.15625 16.890625 35.375 
Q 19.28125 33.59375 26.515625 31.984375 
L 29.59375 31.296875 
Q 39.15625 29.25 43.1875 25.515625 
Q 47.21875 21.78125 47.21875 15.09375 
Q 47.21875 7.46875 41.1875 3.015625 
Q 35.15625 -1.421875 24.609375 -1.421875 
Q 20.21875 -1.421875 15.453125 -0.5625 
Q 10.6875 0.296875 5.421875 2 
L 5.421875 11.28125 
Q 10.40625 8.6875 15.234375 7.390625 
Q 20.0625 6.109375 24.8125 6.109375 
Q 31.15625 6.109375 34.5625 8.28125 
Q 37.984375 10.453125 37.984375 14.40625 
Q 37.984375 18.0625 35.515625 20.015625 
Q 33.0625 21.96875 24.703125 23.78125 
L 21.578125 24.515625 
Q 13.234375 26.265625 9.515625 29.90625 
Q 5.8125 33.546875 5.8125 39.890625 
Q 5.8125 47.609375 11.28125 51.796875 
Q 16.75 56 26.8125 56 
Q 31.78125 56 36.171875 55.265625 
Q 40.578125 54.546875 44.28125 53.078125 
z
" id="DejaVuSans-73"/>
     <path d="M 45.40625 46.390625 
L 45.40625 75.984375 
L 54.390625 75.984375 
L 54.390625 0 
L 45.40625 0 
L 45.40625 8.203125 
Q 42.578125 3.328125 38.25 0.953125 
Q 33.9375 -1.421875 27.875 -1.421875 
Q 17.96875 -1.421875 11.734375 6.484375 
Q 5.515625 14.40625 5.515625 27.296875 
Q 5.515625 40.1875 11.734375 48.09375 
Q 17.96875 56 27.875 56 
Q 33.9375 56 38.25 53.625 
Q 42.578125 51.265625 45.40625 46.390625 
z
M 14.796875 27.296875 
Q 14.796875 17.390625 18.875 11.75 
Q 22.953125 6.109375 30.078125 6.109375 
Q 37.203125 6.109375 41.296875 11.75 
Q 45.40625 17.390625 45.40625 27.296875 
Q 45.40625 37.203125 41.296875 42.84375 
Q 37.203125 48.484375 30.078125 48.484375 
Q 22.953125 48.484375 18.875 42.84375 
Q 14.796875 37.203125 14.796875 27.296875 
z
" id="DejaVuSans-64"/>
     <path d="M 31 75.875 
Q 24.46875 64.65625 21.28125 53.65625 
Q 18.109375 42.671875 18.109375 31.390625 
Q 18.109375 20.125 21.3125 9.0625 
Q 24.515625 -2 31 -13.1875 
L 23.1875 -13.1875 
Q 15.875 -1.703125 12.234375 9.375 
Q 8.59375 20.453125 8.59375 31.390625 
Q 8.59375 42.28125 12.203125 53.3125 
Q 15.828125 64.359375 23.1875 75.875 
z
" id="DejaVuSans-28"/>
     <path d="M 3.328125 72.90625 
L 13.28125 72.90625 
L 28.609375 11.28125 
L 43.890625 72.90625 
L 54.984375 72.90625 
L 70.3125 11.28125 
L 85.59375 72.90625 
L 95.609375 72.90625 
L 77.296875 0 
L 64.890625 0 
L 49.515625 63.28125 
L 33.984375 0 
L 21.578125 0 
z
" id="DejaVuSans-57"/>
     <path d="M 8.015625 75.875 
L 15.828125 75.875 
Q 23.140625 64.359375 26.78125 53.3125 
Q 30.421875 42.28125 30.421875 31.390625 
Q 30.421875 20.453125 26.78125 9.375 
Q 23.140625 -1.703125 15.828125 -13.1875 
L 8.015625 -13.1875 
Q 14.5 -2 17.703125 9.0625 
Q 20.90625 20.125 20.90625 31.390625 
Q 20.90625 42.671875 17.703125 53.65625 
Q 14.5 64.65625 8.015625 75.875 
z
" id="DejaVuSans-29"/>
    </defs>
    <g transform="translate(146.928688 17.36505)scale(0.12 -0.12)">
     <use xlink:href="#DejaVuSans-4d"/>
     <use x="86.279297" xlink:href="#DejaVuSans-6f"/>
     <use x="147.460938" xlink:href="#DejaVuSans-6e"/>
     <use x="210.839844" xlink:href="#DejaVuSans-74"/>
     <use x="250.048828" xlink:href="#DejaVuSans-68"/>
     <use x="313.427734" xlink:href="#DejaVuSans-6c"/>
     <use x="341.210938" xlink:href="#DejaVuSans-79"/>
     <use x="400.390625" xlink:href="#DejaVuSans-20"/>
     <use x="432.177734" xlink:href="#DejaVuSans-67"/>
     <use x="495.654297" xlink:href="#DejaVuSans-72"/>
     <use x="536.736328" xlink:href="#DejaVuSans-6f"/>
     <use x="597.917969" xlink:href="#DejaVuSans-73"/>
     <use x="650.017578" xlink:href="#DejaVuSans-73"/>
     <use x="702.117188" xlink:href="#DejaVuSans-20"/>
     <use x="733.904297" xlink:href="#DejaVuSans-6c"/>
     <use x="761.6875" xlink:href="#DejaVuSans-6f"/>
     <use x="822.869141" xlink:href="#DejaVuSans-61"/>
     <use x="884.148438" xlink:href="#DejaVuSans-64"/>
     <use x="947.625" xlink:href="#DejaVuSans-20"/>
     <use x="979.412109" xlink:href="#DejaVuSans-74"/>
     <use x="1018.621094" xlink:href="#DejaVuSans-72"/>
     <use x="1059.703125" xlink:href="#DejaVuSans-65"/>
     <use x="1121.226562" xlink:href="#DejaVuSans-6e"/>
     <use x="1184.605469" xlink:href="#DejaVuSans-64"/>
     <use x="1248.082031" xlink:href="#DejaVuSans-20"/>
     <use x="1279.869141" xlink:href="#DejaVuSans-28"/>
     <use x="1318.882812" xlink:href="#DejaVuSans-4d"/>
     <use x="1405.162109" xlink:href="#DejaVuSans-57"/>
     <use x="1504.039062" xlink:href="#DejaVuSans-29"/>
    </g>
   </g>
  </g>
 </g>
 <defs>
  <clipPath id="p14e0dc79b9">
   <rect height="286.49845" width="415.937" x="31.543" y="23.36505"/>
  </clipPath>
 </defs>
</svg>
