<?xml version="1.0" encoding="utf-8" standalone="no"?>
<!DOCTYPE svg PUBLIC "-//W3C//DTD SVG 1.1//EN"
  "http://www.w3.org/Graphics/SVG/1.1/DTD/svg11.dtd">
<!-- Created with matplotlib (http://matplotlib.org/) -->
<svg height="345.6pt" version="1.1" viewBox="0 0 460.8 345.6" width="460.8pt" xmlns="http://www.w3.org/2000/svg" xmlns:xlink="http://www.w3.org/1999/xlink">
 <defs>
  <style type="text/css">
*{stroke-linecap:butt;stroke-linejoin:round;}
  </style>
 </defs>
 <g id="figure_1">
  <g id="patch_1">
   <path d="M 0 345.6 
L 460.8 345.6 
L 460.8 0 
L 0 0 
z
" style="fill:none;"/>
  </g>
  <g id="axes_1">
   <g id="patch_2">
    <path d="M 42.51125 309.8635 
L 447.48 309.8635 
L 447.48 23.36505 
L 42.51125 23.36505 
z
" style="fill:none;"/>
   </g>
   <g id="PolyCollection_1">
    <path clip-path="url(#p7c233f5d0f)" d="M 42.51125 53.426697 
L 42.51125 57.88929 
L 44.3203 57.077909 
L 46.323177 57.280754 
L 48.261444 58.092135 
L 50.264321 296.840843 
L 52.202589 296.840843 
L 54.205466 62.960418 
L 56.208342 64.177489 
L 58.14661 61.946192 
L 60.149487 61.743347 
L 62.087755 63.163263 
L 64.090631 61.946192 
L 66.093508 63.163263 
L 67.902558 62.960418 
L 69.905435 296.840843 
L 71.843703 296.840843 
L 73.846579 237.965047 
L 75.784847 296.840843 
L 77.787724 296.840843 
L 79.7906 116.663664 
L 81.728868 62.554728 
L 83.731745 62.351882 
L 85.670013 60.120586 
L 87.672889 62.149037 
L 89.675766 61.540502 
L 91.484816 61.946192 
L 93.487693 62.149037 
L 95.425961 62.554728 
L 97.428837 62.960418 
L 99.367105 296.840843 
L 101.369982 63.163263 
L 103.372859 62.554728 
L 105.311126 62.757573 
L 107.314003 61.743347 
L 109.252271 60.729121 
L 111.255148 61.337657 
L 113.258024 60.729121 
L 115.131683 61.134812 
L 117.13456 61.134812 
L 119.072828 63.366108 
L 121.075704 296.840843 
L 123.013972 296.840843 
L 125.016849 296.840843 
L 127.019726 232.53894 
L 128.957993 50.181175 
L 130.96087 49.775485 
L 132.899138 47.949879 
L 134.902015 47.138498 
L 136.904891 46.124273 
L 138.713941 47.949879 
L 140.716818 48.761259 
L 142.655086 47.341343 
L 144.657962 296.840843 
L 146.59623 49.57264 
L 148.599107 51.601091 
L 150.601984 51.398246 
L 152.540251 50.586865 
L 154.543128 296.840843 
L 156.481396 296.840843 
L 158.484273 296.840843 
L 160.487149 296.840843 
L 162.296199 296.840843 
L 164.299076 296.840843 
L 166.237344 296.840843 
L 168.240221 296.840843 
L 170.178488 296.840843 
L 172.181365 52.412471 
L 174.184242 51.601091 
L 176.12251 52.818162 
L 178.125386 49.166949 
L 180.063654 46.935653 
L 182.066531 47.341343 
L 184.069408 48.761259 
L 185.878457 71.277068 
L 187.881334 64.938158 
L 189.819602 68.234391 
L 191.822479 296.840843 
L 193.760746 51.398246 
L 195.763623 51.398246 
L 197.7665 50.181175 
L 199.704768 50.78971 
L 201.707644 46.935653 
L 203.645912 46.732808 
L 205.648789 47.341343 
L 207.651666 50.78971 
L 209.525324 50.181175 
L 211.528201 72.037737 
L 213.466469 55.252303 
L 215.469346 296.840843 
L 217.407613 296.840843 
L 219.41049 81.013634 
L 221.413367 57.280754 
L 223.351635 58.092135 
L 225.354511 56.063684 
L 227.292779 56.266529 
L 229.295656 57.686445 
L 231.298533 57.280754 
L 233.107583 55.252303 
L 235.110459 55.252303 
L 237.048727 296.840843 
L 239.051604 296.840843 
L 240.989872 296.840843 
L 242.992748 296.840843 
L 244.995625 296.840843 
L 246.933893 58.29498 
L 248.93677 53.223852 
L 250.875037 53.021007 
L 252.877914 55.252303 
L 254.880791 53.629542 
L 256.689841 53.223852 
L 258.692717 53.832387 
L 260.630985 54.440923 
L 262.633862 296.840843 
L 264.57213 296.840843 
L 266.575006 72.646272 
L 268.577883 56.875064 
L 270.516151 54.035232 
L 272.519028 53.629542 
L 274.457295 52.209626 
L 276.460172 53.629542 
L 278.463049 162.202394 
L 280.272099 207.081877 
L 282.274975 296.840843 
L 284.213243 296.840843 
L 286.21612 296.840843 
L 288.154388 296.840843 
L 290.157264 296.840843 
L 292.160141 85.476226 
L 294.098409 55.049458 
L 296.101286 77.159576 
L 298.039553 82.636395 
L 300.04243 82.027859 
L 302.045307 96.987687 
L 303.918966 101.399568 
L 305.921842 296.840843 
L 307.86011 296.840843 
L 309.862987 296.840843 
L 311.801255 296.840843 
L 313.804132 296.840843 
L 315.807008 296.840843 
L 317.745276 120.314876 
L 319.748153 77.362421 
L 321.686421 79.593718 
L 323.689297 203.734932 
L 325.692174 64.583179 
L 327.501224 73.305519 
L 329.504101 90.445932 
L 331.442368 296.840843 
L 333.445245 296.840843 
L 335.383513 161.492436 
L 337.38639 296.840843 
L 339.389266 56.266529 
L 341.327534 92.170115 
L 343.330411 78.376647 
L 345.268679 54.846613 
L 347.271555 72.494138 
L 349.274432 73.102674 
L 351.083482 81.825014 
L 353.086359 296.840843 
L 355.024626 296.840843 
L 357.027503 296.840843 
L 358.965771 296.840843 
L 360.968648 258.148136 
L 362.971524 85.476226 
L 364.909792 72.291293 
L 366.912669 68.944349 
L 368.850937 203.278531 
L 370.853813 296.840843 
L 372.85669 296.840843 
L 374.66574 296.840843 
L 376.668617 296.840843 
L 378.606885 296.840843 
L 380.609761 296.840843 
L 382.548029 296.840843 
L 384.550906 232.336094 
L 386.553783 153.682898 
L 388.49205 121.937637 
L 390.494927 135.376126 
L 392.433195 244.506802 
L 394.436072 94.604257 
L 396.438948 100.486765 
L 398.312607 296.840843 
L 400.315484 296.840843 
L 402.253752 296.840843 
L 404.256628 296.840843 
L 406.194896 296.840843 
L 408.197773 296.840843 
L 410.20065 138.215958 
L 412.138917 119.30065 
L 414.141794 296.840843 
L 416.080062 296.840843 
L 418.082939 88.518903 
L 420.085815 97.849779 
L 421.894865 296.840843 
L 423.897742 296.840843 
L 425.83601 296.840843 
L 427.838886 296.840843 
L 429.777154 296.840843 
L 431.780031 296.840843 
L 433.782908 192.984141 
L 435.721175 122.799729 
L 437.724052 296.840843 
L 439.66232 296.840843 
L 441.665197 296.840843 
L 443.668073 296.840843 
L 445.477123 296.840843 
L 447.48 296.840843 
L 447.48 296.840843 
L 447.48 296.840843 
L 445.477123 296.840843 
L 443.668073 296.840843 
L 441.665197 296.840843 
L 439.66232 296.840843 
L 437.724052 60.323431 
L 435.721175 46.935653 
L 433.782908 45.718582 
L 431.780031 49.369795 
L 429.777154 296.840843 
L 427.838886 296.840843 
L 425.83601 296.840843 
L 423.897742 296.840843 
L 421.894865 41.66168 
L 420.085815 38.010468 
L 418.082939 36.387707 
L 416.080062 296.840843 
L 414.141794 49.775485 
L 412.138917 48.558414 
L 410.20065 50.181175 
L 408.197773 50.181175 
L 406.194896 114.888769 
L 404.256628 296.840843 
L 402.253752 296.840843 
L 400.315484 296.840843 
L 398.312607 296.840843 
L 396.438948 73.711209 
L 394.436072 69.045771 
L 392.433195 50.181175 
L 390.494927 51.398246 
L 388.49205 42.878751 
L 386.553783 40.038919 
L 384.550906 40.444609 
L 382.548029 39.227539 
L 380.609761 296.840843 
L 378.606885 296.840843 
L 376.668617 296.840843 
L 374.66574 296.840843 
L 372.85669 296.840843 
L 370.853813 41.25599 
L 368.850937 38.821848 
L 366.912669 37.604778 
L 364.909792 37.199087 
L 362.971524 49.775485 
L 360.968648 44.095821 
L 358.965771 166.310007 
L 357.027503 296.840843 
L 355.024626 296.840843 
L 353.086359 52.615317 
L 351.083482 50.992556 
L 349.274432 49.775485 
L 347.271555 50.181175 
L 345.268679 51.195401 
L 343.330411 49.775485 
L 341.327534 50.992556 
L 339.389266 51.398246 
L 337.38639 296.840843 
L 335.383513 48.964104 
L 333.445245 107.586345 
L 331.442368 49.775485 
L 329.504101 47.747034 
L 327.501224 49.369795 
L 325.692174 50.586865 
L 323.689297 49.775485 
L 321.686421 48.964104 
L 319.748153 50.181175 
L 317.745276 51.398246 
L 315.807008 51.803936 
L 313.804132 90.953045 
L 311.801255 296.840843 
L 309.862987 296.840843 
L 307.86011 296.840843 
L 305.921842 164.180134 
L 303.918966 43.690131 
L 302.045307 50.434732 
L 300.04243 49.166949 
L 298.039553 43.690131 
L 296.101286 47.747034 
L 294.098409 50.181175 
L 292.160141 39.633229 
L 290.157264 49.775485 
L 288.154388 66.307362 
L 286.21612 296.840843 
L 284.213243 147.293277 
L 282.274975 50.181175 
L 280.272099 50.586865 
L 278.463049 50.181175 
L 276.460172 49.97833 
L 274.457295 49.775485 
L 272.519028 49.97833 
L 270.516151 50.586865 
L 268.577883 48.964104 
L 266.575006 48.152724 
L 264.57213 51.95607 
L 262.633862 296.840843 
L 260.630985 50.992556 
L 258.692717 51.398246 
L 256.689841 52.006781 
L 254.880791 49.97833 
L 252.877914 49.775485 
L 250.875037 50.586865 
L 248.93677 52.006781 
L 246.933893 51.398246 
L 244.995625 53.021007 
L 242.992748 296.840843 
L 240.989872 290.146954 
L 239.051604 296.840843 
L 237.048727 296.840843 
L 235.110459 51.601091 
L 233.107583 49.369795 
L 231.298533 52.209626 
L 229.295656 54.035232 
L 227.292779 53.832387 
L 225.354511 52.412471 
L 223.351635 52.006781 
L 221.413367 53.629542 
L 219.41049 52.615317 
L 217.407613 41.25599 
L 215.469346 296.840843 
L 213.466469 47.747034 
L 211.528201 47.341343 
L 209.525324 44.907202 
L 207.651666 43.284441 
L 205.648789 44.907202 
L 203.645912 45.515737 
L 201.707644 44.501512 
L 199.704768 44.907202 
L 197.7665 45.718582 
L 195.763623 46.529963 
L 193.760746 44.501512 
L 191.822479 296.840843 
L 189.819602 62.149037 
L 187.881334 53.426697 
L 185.878457 43.690131 
L 184.069408 45.110047 
L 182.066531 44.907202 
L 180.063654 44.501512 
L 178.125386 45.515737 
L 176.12251 46.732808 
L 174.184242 48.152724 
L 172.181365 46.529963 
L 170.178488 296.840843 
L 168.240221 296.840843 
L 166.237344 296.840843 
L 164.299076 296.840843 
L 162.296199 296.840843 
L 160.487149 296.840843 
L 158.484273 296.840843 
L 156.481396 296.840843 
L 154.543128 46.124273 
L 152.540251 46.529963 
L 150.601984 46.529963 
L 148.599107 46.124273 
L 146.59623 44.095821 
L 144.657962 296.840843 
L 142.655086 42.47306 
L 140.716818 45.110047 
L 138.713941 44.298667 
L 136.904891 43.690131 
L 134.902015 43.487286 
L 132.899138 42.47306 
L 130.96087 44.907202 
L 128.957993 45.312892 
L 127.019726 46.529963 
L 125.016849 296.840843 
L 123.013972 296.840843 
L 121.075704 296.840843 
L 119.072828 57.88929 
L 117.13456 58.70067 
L 115.131683 58.70067 
L 113.258024 58.29498 
L 111.255148 57.686445 
L 109.252271 58.29498 
L 107.314003 58.092135 
L 105.311126 58.29498 
L 103.372859 58.903515 
L 101.369982 58.29498 
L 99.367105 296.840843 
L 97.428837 59.309206 
L 95.425961 58.903515 
L 93.487693 58.70067 
L 91.484816 59.512051 
L 89.675766 59.10636 
L 87.672889 58.497825 
L 85.670013 56.469374 
L 83.731745 57.483599 
L 81.728868 58.903515 
L 79.7906 59.10636 
L 77.787724 59.512051 
L 75.784847 296.840843 
L 73.846579 59.10636 
L 71.843703 57.88929 
L 69.905435 59.10636 
L 67.902558 59.512051 
L 66.093508 59.10636 
L 64.090631 59.512051 
L 62.087755 58.29498 
L 60.149487 58.092135 
L 58.14661 59.512051 
L 56.208342 58.092135 
L 54.205466 59.309206 
L 52.202589 58.29498 
L 50.264321 57.483599 
L 48.261444 54.440923 
L 46.323177 53.629542 
L 44.3203 54.643768 
L 42.51125 53.426697 
z
" style="fill:#808080;fill-opacity:0.6;"/>
   </g>
   <g id="matplotlib.axis_1">
    <g id="xtick_1">
     <g id="line2d_1">
      <path clip-path="url(#p7c233f5d0f)" d="M 87.737498 309.8635 
L 87.737498 23.36505 
" style="fill:none;stroke:#b0b0b0;stroke-linecap:square;stroke-width:0.8;"/>
     </g>
     <g id="line2d_2">
      <defs>
       <path d="M 0 0 
L 0 3.5 
" id="maa9afbca91" style="stroke:#000000;stroke-width:0.8;"/>
      </defs>
      <g>
       <use style="stroke:#000000;stroke-width:0.8;" x="87.737498" xlink:href="#maa9afbca91" y="309.8635"/>
      </g>
     </g>
     <g id="text_1">
      <!-- 2003 -->
      <defs>
       <path d="M 19.1875 8.296875 
L 53.609375 8.296875 
L 53.609375 0 
L 7.328125 0 
L 7.328125 8.296875 
Q 12.9375 14.109375 22.625 23.890625 
Q 32.328125 33.6875 34.8125 36.53125 
Q 39.546875 41.84375 41.421875 45.53125 
Q 43.3125 49.21875 43.3125 52.78125 
Q 43.3125 58.59375 39.234375 62.25 
Q 35.15625 65.921875 28.609375 65.921875 
Q 23.96875 65.921875 18.8125 64.3125 
Q 13.671875 62.703125 7.8125 59.421875 
L 7.8125 69.390625 
Q 13.765625 71.78125 18.9375 73 
Q 24.125 74.21875 28.421875 74.21875 
Q 39.75 74.21875 46.484375 68.546875 
Q 53.21875 62.890625 53.21875 53.421875 
Q 53.21875 48.921875 51.53125 44.890625 
Q 49.859375 40.875 45.40625 35.40625 
Q 44.1875 33.984375 37.640625 27.21875 
Q 31.109375 20.453125 19.1875 8.296875 
z
" id="DejaVuSans-32"/>
       <path d="M 31.78125 66.40625 
Q 24.171875 66.40625 20.328125 58.90625 
Q 16.5 51.421875 16.5 36.375 
Q 16.5 21.390625 20.328125 13.890625 
Q 24.171875 6.390625 31.78125 6.390625 
Q 39.453125 6.390625 43.28125 13.890625 
Q 47.125 21.390625 47.125 36.375 
Q 47.125 51.421875 43.28125 58.90625 
Q 39.453125 66.40625 31.78125 66.40625 
z
M 31.78125 74.21875 
Q 44.046875 74.21875 50.515625 64.515625 
Q 56.984375 54.828125 56.984375 36.375 
Q 56.984375 17.96875 50.515625 8.265625 
Q 44.046875 -1.421875 31.78125 -1.421875 
Q 19.53125 -1.421875 13.0625 8.265625 
Q 6.59375 17.96875 6.59375 36.375 
Q 6.59375 54.828125 13.0625 64.515625 
Q 19.53125 74.21875 31.78125 74.21875 
z
" id="DejaVuSans-30"/>
       <path d="M 40.578125 39.3125 
Q 47.65625 37.796875 51.625 33 
Q 55.609375 28.21875 55.609375 21.1875 
Q 55.609375 10.40625 48.1875 4.484375 
Q 40.765625 -1.421875 27.09375 -1.421875 
Q 22.515625 -1.421875 17.65625 -0.515625 
Q 12.796875 0.390625 7.625 2.203125 
L 7.625 11.71875 
Q 11.71875 9.328125 16.59375 8.109375 
Q 21.484375 6.890625 26.8125 6.890625 
Q 36.078125 6.890625 40.9375 10.546875 
Q 45.796875 14.203125 45.796875 21.1875 
Q 45.796875 27.640625 41.28125 31.265625 
Q 36.765625 34.90625 28.71875 34.90625 
L 20.21875 34.90625 
L 20.21875 43.015625 
L 29.109375 43.015625 
Q 36.375 43.015625 40.234375 45.921875 
Q 44.09375 48.828125 44.09375 54.296875 
Q 44.09375 59.90625 40.109375 62.90625 
Q 36.140625 65.921875 28.71875 65.921875 
Q 24.65625 65.921875 20.015625 65.03125 
Q 15.375 64.15625 9.8125 62.3125 
L 9.8125 71.09375 
Q 15.4375 72.65625 20.34375 73.4375 
Q 25.25 74.21875 29.59375 74.21875 
Q 40.828125 74.21875 47.359375 69.109375 
Q 53.90625 64.015625 53.90625 55.328125 
Q 53.90625 49.265625 50.4375 45.09375 
Q 46.96875 40.921875 40.578125 39.3125 
z
" id="DejaVuSans-33"/>
      </defs>
      <g transform="translate(75.012498 324.461937)scale(0.1 -0.1)">
       <use xlink:href="#DejaVuSans-32"/>
       <use x="63.623047" xlink:href="#DejaVuSans-30"/>
       <use x="127.246094" xlink:href="#DejaVuSans-30"/>
       <use x="190.869141" xlink:href="#DejaVuSans-33"/>
      </g>
     </g>
    </g>
    <g id="xtick_2">
     <g id="line2d_3">
      <path clip-path="url(#p7c233f5d0f)" d="M 134.966624 309.8635 
L 134.966624 23.36505 
" style="fill:none;stroke:#b0b0b0;stroke-linecap:square;stroke-width:0.8;"/>
     </g>
     <g id="line2d_4">
      <g>
       <use style="stroke:#000000;stroke-width:0.8;" x="134.966624" xlink:href="#maa9afbca91" y="309.8635"/>
      </g>
     </g>
     <g id="text_2">
      <!-- 2005 -->
      <defs>
       <path d="M 10.796875 72.90625 
L 49.515625 72.90625 
L 49.515625 64.59375 
L 19.828125 64.59375 
L 19.828125 46.734375 
Q 21.96875 47.46875 24.109375 47.828125 
Q 26.265625 48.1875 28.421875 48.1875 
Q 40.625 48.1875 47.75 41.5 
Q 54.890625 34.8125 54.890625 23.390625 
Q 54.890625 11.625 47.5625 5.09375 
Q 40.234375 -1.421875 26.90625 -1.421875 
Q 22.3125 -1.421875 17.546875 -0.640625 
Q 12.796875 0.140625 7.71875 1.703125 
L 7.71875 11.625 
Q 12.109375 9.234375 16.796875 8.0625 
Q 21.484375 6.890625 26.703125 6.890625 
Q 35.15625 6.890625 40.078125 11.328125 
Q 45.015625 15.765625 45.015625 23.390625 
Q 45.015625 31 40.078125 35.4375 
Q 35.15625 39.890625 26.703125 39.890625 
Q 22.75 39.890625 18.8125 39.015625 
Q 14.890625 38.140625 10.796875 36.28125 
z
" id="DejaVuSans-35"/>
      </defs>
      <g transform="translate(122.241624 324.461937)scale(0.1 -0.1)">
       <use xlink:href="#DejaVuSans-32"/>
       <use x="63.623047" xlink:href="#DejaVuSans-30"/>
       <use x="127.246094" xlink:href="#DejaVuSans-30"/>
       <use x="190.869141" xlink:href="#DejaVuSans-35"/>
      </g>
     </g>
    </g>
    <g id="xtick_3">
     <g id="line2d_5">
      <path clip-path="url(#p7c233f5d0f)" d="M 182.13114 309.8635 
L 182.13114 23.36505 
" style="fill:none;stroke:#b0b0b0;stroke-linecap:square;stroke-width:0.8;"/>
     </g>
     <g id="line2d_6">
      <g>
       <use style="stroke:#000000;stroke-width:0.8;" x="182.13114" xlink:href="#maa9afbca91" y="309.8635"/>
      </g>
     </g>
     <g id="text_3">
      <!-- 2007 -->
      <defs>
       <path d="M 8.203125 72.90625 
L 55.078125 72.90625 
L 55.078125 68.703125 
L 28.609375 0 
L 18.3125 0 
L 43.21875 64.59375 
L 8.203125 64.59375 
z
" id="DejaVuSans-37"/>
      </defs>
      <g transform="translate(169.40614 324.461937)scale(0.1 -0.1)">
       <use xlink:href="#DejaVuSans-32"/>
       <use x="63.623047" xlink:href="#DejaVuSans-30"/>
       <use x="127.246094" xlink:href="#DejaVuSans-30"/>
       <use x="190.869141" xlink:href="#DejaVuSans-37"/>
      </g>
     </g>
    </g>
    <g id="xtick_4">
     <g id="line2d_7">
      <path clip-path="url(#p7c233f5d0f)" d="M 229.360265 309.8635 
L 229.360265 23.36505 
" style="fill:none;stroke:#b0b0b0;stroke-linecap:square;stroke-width:0.8;"/>
     </g>
     <g id="line2d_8">
      <g>
       <use style="stroke:#000000;stroke-width:0.8;" x="229.360265" xlink:href="#maa9afbca91" y="309.8635"/>
      </g>
     </g>
     <g id="text_4">
      <!-- 2009 -->
      <defs>
       <path d="M 10.984375 1.515625 
L 10.984375 10.5 
Q 14.703125 8.734375 18.5 7.8125 
Q 22.3125 6.890625 25.984375 6.890625 
Q 35.75 6.890625 40.890625 13.453125 
Q 46.046875 20.015625 46.78125 33.40625 
Q 43.953125 29.203125 39.59375 26.953125 
Q 35.25 24.703125 29.984375 24.703125 
Q 19.046875 24.703125 12.671875 31.3125 
Q 6.296875 37.9375 6.296875 49.421875 
Q 6.296875 60.640625 12.9375 67.421875 
Q 19.578125 74.21875 30.609375 74.21875 
Q 43.265625 74.21875 49.921875 64.515625 
Q 56.59375 54.828125 56.59375 36.375 
Q 56.59375 19.140625 48.40625 8.859375 
Q 40.234375 -1.421875 26.421875 -1.421875 
Q 22.703125 -1.421875 18.890625 -0.6875 
Q 15.09375 0.046875 10.984375 1.515625 
z
M 30.609375 32.421875 
Q 37.25 32.421875 41.125 36.953125 
Q 45.015625 41.5 45.015625 49.421875 
Q 45.015625 57.28125 41.125 61.84375 
Q 37.25 66.40625 30.609375 66.40625 
Q 23.96875 66.40625 20.09375 61.84375 
Q 16.21875 57.28125 16.21875 49.421875 
Q 16.21875 41.5 20.09375 36.953125 
Q 23.96875 32.421875 30.609375 32.421875 
z
" id="DejaVuSans-39"/>
      </defs>
      <g transform="translate(216.635265 324.461937)scale(0.1 -0.1)">
       <use xlink:href="#DejaVuSans-32"/>
       <use x="63.623047" xlink:href="#DejaVuSans-30"/>
       <use x="127.246094" xlink:href="#DejaVuSans-30"/>
       <use x="190.869141" xlink:href="#DejaVuSans-39"/>
      </g>
     </g>
    </g>
    <g id="xtick_5">
     <g id="line2d_9">
      <path clip-path="url(#p7c233f5d0f)" d="M 276.524781 309.8635 
L 276.524781 23.36505 
" style="fill:none;stroke:#b0b0b0;stroke-linecap:square;stroke-width:0.8;"/>
     </g>
     <g id="line2d_10">
      <g>
       <use style="stroke:#000000;stroke-width:0.8;" x="276.524781" xlink:href="#maa9afbca91" y="309.8635"/>
      </g>
     </g>
     <g id="text_5">
      <!-- 2011 -->
      <defs>
       <path d="M 12.40625 8.296875 
L 28.515625 8.296875 
L 28.515625 63.921875 
L 10.984375 60.40625 
L 10.984375 69.390625 
L 28.421875 72.90625 
L 38.28125 72.90625 
L 38.28125 8.296875 
L 54.390625 8.296875 
L 54.390625 0 
L 12.40625 0 
z
" id="DejaVuSans-31"/>
      </defs>
      <g transform="translate(263.799781 324.461937)scale(0.1 -0.1)">
       <use xlink:href="#DejaVuSans-32"/>
       <use x="63.623047" xlink:href="#DejaVuSans-30"/>
       <use x="127.246094" xlink:href="#DejaVuSans-31"/>
       <use x="190.869141" xlink:href="#DejaVuSans-31"/>
      </g>
     </g>
    </g>
    <g id="xtick_6">
     <g id="line2d_11">
      <path clip-path="url(#p7c233f5d0f)" d="M 323.753906 309.8635 
L 323.753906 23.36505 
" style="fill:none;stroke:#b0b0b0;stroke-linecap:square;stroke-width:0.8;"/>
     </g>
     <g id="line2d_12">
      <g>
       <use style="stroke:#000000;stroke-width:0.8;" x="323.753906" xlink:href="#maa9afbca91" y="309.8635"/>
      </g>
     </g>
     <g id="text_6">
      <!-- 2013 -->
      <g transform="translate(311.028906 324.461937)scale(0.1 -0.1)">
       <use xlink:href="#DejaVuSans-32"/>
       <use x="63.623047" xlink:href="#DejaVuSans-30"/>
       <use x="127.246094" xlink:href="#DejaVuSans-31"/>
       <use x="190.869141" xlink:href="#DejaVuSans-33"/>
      </g>
     </g>
    </g>
    <g id="xtick_7">
     <g id="line2d_13">
      <path clip-path="url(#p7c233f5d0f)" d="M 370.918422 309.8635 
L 370.918422 23.36505 
" style="fill:none;stroke:#b0b0b0;stroke-linecap:square;stroke-width:0.8;"/>
     </g>
     <g id="line2d_14">
      <g>
       <use style="stroke:#000000;stroke-width:0.8;" x="370.918422" xlink:href="#maa9afbca91" y="309.8635"/>
      </g>
     </g>
     <g id="text_7">
      <!-- 2015 -->
      <g transform="translate(358.193422 324.461937)scale(0.1 -0.1)">
       <use xlink:href="#DejaVuSans-32"/>
       <use x="63.623047" xlink:href="#DejaVuSans-30"/>
       <use x="127.246094" xlink:href="#DejaVuSans-31"/>
       <use x="190.869141" xlink:href="#DejaVuSans-35"/>
      </g>
     </g>
    </g>
    <g id="xtick_8">
     <g id="line2d_15">
      <path clip-path="url(#p7c233f5d0f)" d="M 418.147547 309.8635 
L 418.147547 23.36505 
" style="fill:none;stroke:#b0b0b0;stroke-linecap:square;stroke-width:0.8;"/>
     </g>
     <g id="line2d_16">
      <g>
       <use style="stroke:#000000;stroke-width:0.8;" x="418.147547" xlink:href="#maa9afbca91" y="309.8635"/>
      </g>
     </g>
     <g id="text_8">
      <!-- 2017 -->
      <g transform="translate(405.422547 324.461937)scale(0.1 -0.1)">
       <use xlink:href="#DejaVuSans-32"/>
       <use x="63.623047" xlink:href="#DejaVuSans-30"/>
       <use x="127.246094" xlink:href="#DejaVuSans-31"/>
       <use x="190.869141" xlink:href="#DejaVuSans-37"/>
      </g>
     </g>
    </g>
    <g id="text_9">
     <!-- Date -->
     <defs>
      <path d="M 19.671875 64.796875 
L 19.671875 8.109375 
L 31.59375 8.109375 
Q 46.6875 8.109375 53.6875 14.9375 
Q 60.6875 21.78125 60.6875 36.53125 
Q 60.6875 51.171875 53.6875 57.984375 
Q 46.6875 64.796875 31.59375 64.796875 
z
M 9.8125 72.90625 
L 30.078125 72.90625 
Q 51.265625 72.90625 61.171875 64.09375 
Q 71.09375 55.28125 71.09375 36.53125 
Q 71.09375 17.671875 61.125 8.828125 
Q 51.171875 0 30.078125 0 
L 9.8125 0 
z
" id="DejaVuSans-44"/>
      <path d="M 34.28125 27.484375 
Q 23.390625 27.484375 19.1875 25 
Q 14.984375 22.515625 14.984375 16.5 
Q 14.984375 11.71875 18.140625 8.90625 
Q 21.296875 6.109375 26.703125 6.109375 
Q 34.1875 6.109375 38.703125 11.40625 
Q 43.21875 16.703125 43.21875 25.484375 
L 43.21875 27.484375 
z
M 52.203125 31.203125 
L 52.203125 0 
L 43.21875 0 
L 43.21875 8.296875 
Q 40.140625 3.328125 35.546875 0.953125 
Q 30.953125 -1.421875 24.3125 -1.421875 
Q 15.921875 -1.421875 10.953125 3.296875 
Q 6 8.015625 6 15.921875 
Q 6 25.140625 12.171875 29.828125 
Q 18.359375 34.515625 30.609375 34.515625 
L 43.21875 34.515625 
L 43.21875 35.40625 
Q 43.21875 41.609375 39.140625 45 
Q 35.0625 48.390625 27.6875 48.390625 
Q 23 48.390625 18.546875 47.265625 
Q 14.109375 46.140625 10.015625 43.890625 
L 10.015625 52.203125 
Q 14.9375 54.109375 19.578125 55.046875 
Q 24.21875 56 28.609375 56 
Q 40.484375 56 46.34375 49.84375 
Q 52.203125 43.703125 52.203125 31.203125 
z
" id="DejaVuSans-61"/>
      <path d="M 18.3125 70.21875 
L 18.3125 54.6875 
L 36.8125 54.6875 
L 36.8125 47.703125 
L 18.3125 47.703125 
L 18.3125 18.015625 
Q 18.3125 11.328125 20.140625 9.421875 
Q 21.96875 7.515625 27.59375 7.515625 
L 36.8125 7.515625 
L 36.8125 0 
L 27.59375 0 
Q 17.1875 0 13.234375 3.875 
Q 9.28125 7.765625 9.28125 18.015625 
L 9.28125 47.703125 
L 2.6875 47.703125 
L 2.6875 54.6875 
L 9.28125 54.6875 
L 9.28125 70.21875 
z
" id="DejaVuSans-74"/>
      <path d="M 56.203125 29.59375 
L 56.203125 25.203125 
L 14.890625 25.203125 
Q 15.484375 15.921875 20.484375 11.0625 
Q 25.484375 6.203125 34.421875 6.203125 
Q 39.59375 6.203125 44.453125 7.46875 
Q 49.3125 8.734375 54.109375 11.28125 
L 54.109375 2.78125 
Q 49.265625 0.734375 44.1875 -0.34375 
Q 39.109375 -1.421875 33.890625 -1.421875 
Q 20.796875 -1.421875 13.15625 6.1875 
Q 5.515625 13.8125 5.515625 26.8125 
Q 5.515625 40.234375 12.765625 48.109375 
Q 20.015625 56 32.328125 56 
Q 43.359375 56 49.78125 48.890625 
Q 56.203125 41.796875 56.203125 29.59375 
z
M 47.21875 32.234375 
Q 47.125 39.59375 43.09375 43.984375 
Q 39.0625 48.390625 32.421875 48.390625 
Q 24.90625 48.390625 20.390625 44.140625 
Q 15.875 39.890625 15.1875 32.171875 
z
" id="DejaVuSans-65"/>
     </defs>
     <g transform="translate(233.044844 338.140062)scale(0.1 -0.1)">
      <use xlink:href="#DejaVuSans-44"/>
      <use x="77.001953" xlink:href="#DejaVuSans-61"/>
      <use x="138.28125" xlink:href="#DejaVuSans-74"/>
      <use x="177.490234" xlink:href="#DejaVuSans-65"/>
     </g>
    </g>
   </g>
   <g id="matplotlib.axis_2">
    <g id="ytick_1">
     <g id="line2d_17">
      <path clip-path="url(#p7c233f5d0f)" d="M 42.51125 296.840843 
L 447.48 296.840843 
" style="fill:none;stroke:#b0b0b0;stroke-linecap:square;stroke-width:0.8;"/>
     </g>
     <g id="line2d_18">
      <defs>
       <path d="M 0 0 
L -3.5 0 
" id="m007d9fd23a" style="stroke:#000000;stroke-width:0.8;"/>
      </defs>
      <g>
       <use style="stroke:#000000;stroke-width:0.8;" x="42.51125" xlink:href="#m007d9fd23a" y="296.840843"/>
      </g>
     </g>
     <g id="text_10">
      <!-- 0 -->
      <g transform="translate(29.14875 300.640062)scale(0.1 -0.1)">
       <use xlink:href="#DejaVuSans-30"/>
      </g>
     </g>
    </g>
    <g id="ytick_2">
     <g id="line2d_19">
      <path clip-path="url(#p7c233f5d0f)" d="M 42.51125 256.271819 
L 447.48 256.271819 
" style="fill:none;stroke:#b0b0b0;stroke-linecap:square;stroke-width:0.8;"/>
     </g>
     <g id="line2d_20">
      <g>
       <use style="stroke:#000000;stroke-width:0.8;" x="42.51125" xlink:href="#m007d9fd23a" y="256.271819"/>
      </g>
     </g>
     <g id="text_11">
      <!-- 100 -->
      <g transform="translate(16.42375 260.071038)scale(0.1 -0.1)">
       <use xlink:href="#DejaVuSans-31"/>
       <use x="63.623047" xlink:href="#DejaVuSans-30"/>
       <use x="127.246094" xlink:href="#DejaVuSans-30"/>
      </g>
     </g>
    </g>
    <g id="ytick_3">
     <g id="line2d_21">
      <path clip-path="url(#p7c233f5d0f)" d="M 42.51125 215.702794 
L 447.48 215.702794 
" style="fill:none;stroke:#b0b0b0;stroke-linecap:square;stroke-width:0.8;"/>
     </g>
     <g id="line2d_22">
      <g>
       <use style="stroke:#000000;stroke-width:0.8;" x="42.51125" xlink:href="#m007d9fd23a" y="215.702794"/>
      </g>
     </g>
     <g id="text_12">
      <!-- 200 -->
      <g transform="translate(16.42375 219.502013)scale(0.1 -0.1)">
       <use xlink:href="#DejaVuSans-32"/>
       <use x="63.623047" xlink:href="#DejaVuSans-30"/>
       <use x="127.246094" xlink:href="#DejaVuSans-30"/>
      </g>
     </g>
    </g>
    <g id="ytick_4">
     <g id="line2d_23">
      <path clip-path="url(#p7c233f5d0f)" d="M 42.51125 175.13377 
L 447.48 175.13377 
" style="fill:none;stroke:#b0b0b0;stroke-linecap:square;stroke-width:0.8;"/>
     </g>
     <g id="line2d_24">
      <g>
       <use style="stroke:#000000;stroke-width:0.8;" x="42.51125" xlink:href="#m007d9fd23a" y="175.13377"/>
      </g>
     </g>
     <g id="text_13">
      <!-- 300 -->
      <g transform="translate(16.42375 178.932989)scale(0.1 -0.1)">
       <use xlink:href="#DejaVuSans-33"/>
       <use x="63.623047" xlink:href="#DejaVuSans-30"/>
       <use x="127.246094" xlink:href="#DejaVuSans-30"/>
      </g>
     </g>
    </g>
    <g id="ytick_5">
     <g id="line2d_25">
      <path clip-path="url(#p7c233f5d0f)" d="M 42.51125 134.564746 
L 447.48 134.564746 
" style="fill:none;stroke:#b0b0b0;stroke-linecap:square;stroke-width:0.8;"/>
     </g>
     <g id="line2d_26">
      <g>
       <use style="stroke:#000000;stroke-width:0.8;" x="42.51125" xlink:href="#m007d9fd23a" y="134.564746"/>
      </g>
     </g>
     <g id="text_14">
      <!-- 400 -->
      <defs>
       <path d="M 37.796875 64.3125 
L 12.890625 25.390625 
L 37.796875 25.390625 
z
M 35.203125 72.90625 
L 47.609375 72.90625 
L 47.609375 25.390625 
L 58.015625 25.390625 
L 58.015625 17.1875 
L 47.609375 17.1875 
L 47.609375 0 
L 37.796875 0 
L 37.796875 17.1875 
L 4.890625 17.1875 
L 4.890625 26.703125 
z
" id="DejaVuSans-34"/>
      </defs>
      <g transform="translate(16.42375 138.363965)scale(0.1 -0.1)">
       <use xlink:href="#DejaVuSans-34"/>
       <use x="63.623047" xlink:href="#DejaVuSans-30"/>
       <use x="127.246094" xlink:href="#DejaVuSans-30"/>
      </g>
     </g>
    </g>
    <g id="ytick_6">
     <g id="line2d_27">
      <path clip-path="url(#p7c233f5d0f)" d="M 42.51125 93.995721 
L 447.48 93.995721 
" style="fill:none;stroke:#b0b0b0;stroke-linecap:square;stroke-width:0.8;"/>
     </g>
     <g id="line2d_28">
      <g>
       <use style="stroke:#000000;stroke-width:0.8;" x="42.51125" xlink:href="#m007d9fd23a" y="93.995721"/>
      </g>
     </g>
     <g id="text_15">
      <!-- 500 -->
      <g transform="translate(16.42375 97.79494)scale(0.1 -0.1)">
       <use xlink:href="#DejaVuSans-35"/>
       <use x="63.623047" xlink:href="#DejaVuSans-30"/>
       <use x="127.246094" xlink:href="#DejaVuSans-30"/>
      </g>
     </g>
    </g>
    <g id="ytick_7">
     <g id="line2d_29">
      <path clip-path="url(#p7c233f5d0f)" d="M 42.51125 53.426697 
L 447.48 53.426697 
" style="fill:none;stroke:#b0b0b0;stroke-linecap:square;stroke-width:0.8;"/>
     </g>
     <g id="line2d_30">
      <g>
       <use style="stroke:#000000;stroke-width:0.8;" x="42.51125" xlink:href="#m007d9fd23a" y="53.426697"/>
      </g>
     </g>
     <g id="text_16">
      <!-- 600 -->
      <defs>
       <path d="M 33.015625 40.375 
Q 26.375 40.375 22.484375 35.828125 
Q 18.609375 31.296875 18.609375 23.390625 
Q 18.609375 15.53125 22.484375 10.953125 
Q 26.375 6.390625 33.015625 6.390625 
Q 39.65625 6.390625 43.53125 10.953125 
Q 47.40625 15.53125 47.40625 23.390625 
Q 47.40625 31.296875 43.53125 35.828125 
Q 39.65625 40.375 33.015625 40.375 
z
M 52.59375 71.296875 
L 52.59375 62.3125 
Q 48.875 64.0625 45.09375 64.984375 
Q 41.3125 65.921875 37.59375 65.921875 
Q 27.828125 65.921875 22.671875 59.328125 
Q 17.53125 52.734375 16.796875 39.40625 
Q 19.671875 43.65625 24.015625 45.921875 
Q 28.375 48.1875 33.59375 48.1875 
Q 44.578125 48.1875 50.953125 41.515625 
Q 57.328125 34.859375 57.328125 23.390625 
Q 57.328125 12.15625 50.6875 5.359375 
Q 44.046875 -1.421875 33.015625 -1.421875 
Q 20.359375 -1.421875 13.671875 8.265625 
Q 6.984375 17.96875 6.984375 36.375 
Q 6.984375 53.65625 15.1875 63.9375 
Q 23.390625 74.21875 37.203125 74.21875 
Q 40.921875 74.21875 44.703125 73.484375 
Q 48.484375 72.75 52.59375 71.296875 
z
" id="DejaVuSans-36"/>
      </defs>
      <g transform="translate(16.42375 57.225916)scale(0.1 -0.1)">
       <use xlink:href="#DejaVuSans-36"/>
       <use x="63.623047" xlink:href="#DejaVuSans-30"/>
       <use x="127.246094" xlink:href="#DejaVuSans-30"/>
      </g>
     </g>
    </g>
    <g id="text_17">
     <!-- Gross load (MW) -->
     <defs>
      <path d="M 59.515625 10.40625 
L 59.515625 29.984375 
L 43.40625 29.984375 
L 43.40625 38.09375 
L 69.28125 38.09375 
L 69.28125 6.78125 
Q 63.578125 2.734375 56.6875 0.65625 
Q 49.8125 -1.421875 42 -1.421875 
Q 24.90625 -1.421875 15.25 8.5625 
Q 5.609375 18.5625 5.609375 36.375 
Q 5.609375 54.25 15.25 64.234375 
Q 24.90625 74.21875 42 74.21875 
Q 49.125 74.21875 55.546875 72.453125 
Q 61.96875 70.703125 67.390625 67.28125 
L 67.390625 56.78125 
Q 61.921875 61.421875 55.765625 63.765625 
Q 49.609375 66.109375 42.828125 66.109375 
Q 29.4375 66.109375 22.71875 58.640625 
Q 16.015625 51.171875 16.015625 36.375 
Q 16.015625 21.625 22.71875 14.15625 
Q 29.4375 6.6875 42.828125 6.6875 
Q 48.046875 6.6875 52.140625 7.59375 
Q 56.25 8.5 59.515625 10.40625 
z
" id="DejaVuSans-47"/>
      <path d="M 41.109375 46.296875 
Q 39.59375 47.171875 37.8125 47.578125 
Q 36.03125 48 33.890625 48 
Q 26.265625 48 22.1875 43.046875 
Q 18.109375 38.09375 18.109375 28.8125 
L 18.109375 0 
L 9.078125 0 
L 9.078125 54.6875 
L 18.109375 54.6875 
L 18.109375 46.1875 
Q 20.953125 51.171875 25.484375 53.578125 
Q 30.03125 56 36.53125 56 
Q 37.453125 56 38.578125 55.875 
Q 39.703125 55.765625 41.0625 55.515625 
z
" id="DejaVuSans-72"/>
      <path d="M 30.609375 48.390625 
Q 23.390625 48.390625 19.1875 42.75 
Q 14.984375 37.109375 14.984375 27.296875 
Q 14.984375 17.484375 19.15625 11.84375 
Q 23.34375 6.203125 30.609375 6.203125 
Q 37.796875 6.203125 41.984375 11.859375 
Q 46.1875 17.53125 46.1875 27.296875 
Q 46.1875 37.015625 41.984375 42.703125 
Q 37.796875 48.390625 30.609375 48.390625 
z
M 30.609375 56 
Q 42.328125 56 49.015625 48.375 
Q 55.71875 40.765625 55.71875 27.296875 
Q 55.71875 13.875 49.015625 6.21875 
Q 42.328125 -1.421875 30.609375 -1.421875 
Q 18.84375 -1.421875 12.171875 6.21875 
Q 5.515625 13.875 5.515625 27.296875 
Q 5.515625 40.765625 12.171875 48.375 
Q 18.84375 56 30.609375 56 
z
" id="DejaVuSans-6f"/>
      <path d="M 44.28125 53.078125 
L 44.28125 44.578125 
Q 40.484375 46.53125 36.375 47.5 
Q 32.28125 48.484375 27.875 48.484375 
Q 21.1875 48.484375 17.84375 46.4375 
Q 14.5 44.390625 14.5 40.28125 
Q 14.5 37.15625 16.890625 35.375 
Q 19.28125 33.59375 26.515625 31.984375 
L 29.59375 31.296875 
Q 39.15625 29.25 43.1875 25.515625 
Q 47.21875 21.78125 47.21875 15.09375 
Q 47.21875 7.46875 41.1875 3.015625 
Q 35.15625 -1.421875 24.609375 -1.421875 
Q 20.21875 -1.421875 15.453125 -0.5625 
Q 10.6875 0.296875 5.421875 2 
L 5.421875 11.28125 
Q 10.40625 8.6875 15.234375 7.390625 
Q 20.0625 6.109375 24.8125 6.109375 
Q 31.15625 6.109375 34.5625 8.28125 
Q 37.984375 10.453125 37.984375 14.40625 
Q 37.984375 18.0625 35.515625 20.015625 
Q 33.0625 21.96875 24.703125 23.78125 
L 21.578125 24.515625 
Q 13.234375 26.265625 9.515625 29.90625 
Q 5.8125 33.546875 5.8125 39.890625 
Q 5.8125 47.609375 11.28125 51.796875 
Q 16.75 56 26.8125 56 
Q 31.78125 56 36.171875 55.265625 
Q 40.578125 54.546875 44.28125 53.078125 
z
" id="DejaVuSans-73"/>
      <path id="DejaVuSans-20"/>
      <path d="M 9.421875 75.984375 
L 18.40625 75.984375 
L 18.40625 0 
L 9.421875 0 
z
" id="DejaVuSans-6c"/>
      <path d="M 45.40625 46.390625 
L 45.40625 75.984375 
L 54.390625 75.984375 
L 54.390625 0 
L 45.40625 0 
L 45.40625 8.203125 
Q 42.578125 3.328125 38.25 0.953125 
Q 33.9375 -1.421875 27.875 -1.421875 
Q 17.96875 -1.421875 11.734375 6.484375 
Q 5.515625 14.40625 5.515625 27.296875 
Q 5.515625 40.1875 11.734375 48.09375 
Q 17.96875 56 27.875 56 
Q 33.9375 56 38.25 53.625 
Q 42.578125 51.265625 45.40625 46.390625 
z
M 14.796875 27.296875 
Q 14.796875 17.390625 18.875 11.75 
Q 22.953125 6.109375 30.078125 6.109375 
Q 37.203125 6.109375 41.296875 11.75 
Q 45.40625 17.390625 45.40625 27.296875 
Q 45.40625 37.203125 41.296875 42.84375 
Q 37.203125 48.484375 30.078125 48.484375 
Q 22.953125 48.484375 18.875 42.84375 
Q 14.796875 37.203125 14.796875 27.296875 
z
" id="DejaVuSans-64"/>
      <path d="M 31 75.875 
Q 24.46875 64.65625 21.28125 53.65625 
Q 18.109375 42.671875 18.109375 31.390625 
Q 18.109375 20.125 21.3125 9.0625 
Q 24.515625 -2 31 -13.1875 
L 23.1875 -13.1875 
Q 15.875 -1.703125 12.234375 9.375 
Q 8.59375 20.453125 8.59375 31.390625 
Q 8.59375 42.28125 12.203125 53.3125 
Q 15.828125 64.359375 23.1875 75.875 
z
" id="DejaVuSans-28"/>
      <path d="M 9.8125 72.90625 
L 24.515625 72.90625 
L 43.109375 23.296875 
L 61.8125 72.90625 
L 76.515625 72.90625 
L 76.515625 0 
L 66.890625 0 
L 66.890625 64.015625 
L 48.09375 14.015625 
L 38.1875 14.015625 
L 19.390625 64.015625 
L 19.390625 0 
L 9.8125 0 
z
" id="DejaVuSans-4d"/>
      <path d="M 3.328125 72.90625 
L 13.28125 72.90625 
L 28.609375 11.28125 
L 43.890625 72.90625 
L 54.984375 72.90625 
L 70.3125 11.28125 
L 85.59375 72.90625 
L 95.609375 72.90625 
L 77.296875 0 
L 64.890625 0 
L 49.515625 63.28125 
L 33.984375 0 
L 21.578125 0 
z
" id="DejaVuSans-57"/>
      <path d="M 8.015625 75.875 
L 15.828125 75.875 
Q 23.140625 64.359375 26.78125 53.3125 
Q 30.421875 42.28125 30.421875 31.390625 
Q 30.421875 20.453125 26.78125 9.375 
Q 23.140625 -1.703125 15.828125 -13.1875 
L 8.015625 -13.1875 
Q 14.5 -2 17.703125 9.0625 
Q 20.90625 20.125 20.90625 31.390625 
Q 20.90625 42.671875 17.703125 53.65625 
Q 14.5 64.65625 8.015625 75.875 
z
" id="DejaVuSans-29"/>
     </defs>
     <g transform="translate(10.344062 207.835369)rotate(-90)scale(0.1 -0.1)">
      <use xlink:href="#DejaVuSans-47"/>
      <use x="77.490234" xlink:href="#DejaVuSans-72"/>
      <use x="118.572266" xlink:href="#DejaVuSans-6f"/>
      <use x="179.753906" xlink:href="#DejaVuSans-73"/>
      <use x="231.853516" xlink:href="#DejaVuSans-73"/>
      <use x="283.953125" xlink:href="#DejaVuSans-20"/>
      <use x="315.740234" xlink:href="#DejaVuSans-6c"/>
      <use x="343.523438" xlink:href="#DejaVuSans-6f"/>
      <use x="404.705078" xlink:href="#DejaVuSans-61"/>
      <use x="465.984375" xlink:href="#DejaVuSans-64"/>
      <use x="529.460938" xlink:href="#DejaVuSans-20"/>
      <use x="561.248047" xlink:href="#DejaVuSans-28"/>
      <use x="600.261719" xlink:href="#DejaVuSans-4d"/>
      <use x="686.541016" xlink:href="#DejaVuSans-57"/>
      <use x="785.417969" xlink:href="#DejaVuSans-29"/>
     </g>
    </g>
   </g>
   <g id="line2d_31">
    <path clip-path="url(#p7c233f5d0f)" d="M 42.51125 55.455148 
L 44.3203 55.860839 
L 46.323177 55.455148 
L 48.261444 56.266529 
L 50.264321 62.351882 
L 52.202589 62.351882 
L 54.205466 61.134812 
L 56.208342 61.134812 
L 58.14661 60.729121 
L 60.149487 59.917741 
L 62.087755 60.729121 
L 66.093508 60.729121 
L 67.902558 61.134812 
L 69.905435 88.316058 
L 71.843703 107.180654 
L 73.846579 61.946192 
L 75.784847 296.840843 
L 77.787724 296.840843 
L 79.7906 62.351882 
L 81.728868 60.729121 
L 83.731745 59.917741 
L 85.670013 58.29498 
L 87.672889 60.323431 
L 89.675766 60.323431 
L 91.484816 60.729121 
L 93.487693 60.323431 
L 97.428837 61.134812 
L 99.367105 296.840843 
L 101.369982 60.729121 
L 103.372859 60.729121 
L 109.252271 59.512051 
L 113.258024 59.512051 
L 115.131683 59.917741 
L 117.13456 59.917741 
L 119.072828 60.323431 
L 121.075704 296.840843 
L 125.016849 296.840843 
L 127.019726 52.412471 
L 128.957993 47.747034 
L 130.96087 47.341343 
L 132.899138 44.907202 
L 134.902015 45.312892 
L 136.904891 44.907202 
L 138.713941 46.124273 
L 140.716818 46.935653 
L 142.655086 44.907202 
L 144.657962 296.840843 
L 146.59623 46.529963 
L 148.599107 48.558414 
L 150.601984 48.964104 
L 152.540251 48.152724 
L 154.543128 48.152724 
L 156.481396 296.840843 
L 170.178488 296.840843 
L 172.181365 49.369795 
L 174.184242 49.775485 
L 176.12251 49.775485 
L 178.125386 47.341343 
L 180.063654 45.718582 
L 182.066531 46.124273 
L 184.069408 46.935653 
L 185.878457 46.935653 
L 187.881334 57.483599 
L 189.819602 65.191714 
L 191.822479 296.840843 
L 193.760746 47.747034 
L 195.763623 48.964104 
L 197.7665 47.747034 
L 199.704768 47.747034 
L 201.707644 45.718582 
L 203.645912 46.124273 
L 205.648789 46.124273 
L 207.651666 46.529963 
L 209.525324 46.529963 
L 211.528201 49.369795 
L 213.466469 50.992556 
L 215.469346 296.840843 
L 217.407613 271.282358 
L 219.41049 54.238078 
L 221.413367 55.455148 
L 223.351635 55.049458 
L 225.354511 54.238078 
L 229.295656 55.860839 
L 231.298533 54.238078 
L 233.107583 52.209626 
L 235.110459 53.426697 
L 237.048727 296.840843 
L 242.992748 296.840843 
L 244.995625 55.860839 
L 246.933893 54.643768 
L 248.93677 52.615317 
L 250.875037 51.803936 
L 252.877914 52.209626 
L 254.880791 51.803936 
L 256.689841 52.615317 
L 260.630985 52.615317 
L 262.633862 296.840843 
L 264.57213 225.845051 
L 266.575006 53.021007 
L 272.519028 51.803936 
L 274.457295 50.992556 
L 276.460172 51.803936 
L 278.463049 53.426697 
L 280.272099 72.899829 
L 282.274975 131.522069 
L 284.213243 296.840843 
L 286.21612 296.840843 
L 288.154388 224.22229 
L 290.157264 157.283399 
L 292.160141 53.832387 
L 294.098409 52.615317 
L 296.101286 50.992556 
L 298.039553 52.209626 
L 300.04243 65.597404 
L 302.045307 73.711209 
L 303.918966 50.586865 
L 305.921842 296.840843 
L 311.801255 296.840843 
L 313.804132 224.22229 
L 315.807008 126.248096 
L 317.745276 79.390873 
L 319.748153 51.803936 
L 321.686421 52.209626 
L 323.689297 69.248617 
L 325.692174 53.021007 
L 327.501224 52.615317 
L 329.504101 51.803936 
L 331.442368 184.058955 
L 333.445245 296.840843 
L 335.383513 67.625856 
L 337.38639 296.840843 
L 339.389266 53.832387 
L 341.327534 66.003095 
L 343.330411 53.426697 
L 345.268679 53.021007 
L 349.274432 53.021007 
L 351.083482 56.266529 
L 353.086359 197.852424 
L 355.024626 296.840843 
L 358.965771 296.840843 
L 360.968648 76.348196 
L 362.971524 52.615317 
L 364.909792 49.775485 
L 366.912669 44.907202 
L 368.850937 64.988869 
L 370.853813 119.351362 
L 372.85669 296.840843 
L 380.609761 296.840843 
L 382.548029 78.173802 
L 384.550906 87.504678 
L 386.553783 59.512051 
L 388.49205 68.842926 
L 390.494927 69.654307 
L 392.433195 81.216479 
L 394.436072 81.825014 
L 396.438948 87.098987 
L 398.312607 296.840843 
L 406.194896 296.840843 
L 408.197773 105.152203 
L 410.20065 72.494138 
L 412.138917 76.551041 
L 414.141794 296.840843 
L 416.080062 296.840843 
L 418.082939 50.181175 
L 420.085815 49.775485 
L 421.894865 192.781296 
L 423.897742 296.840843 
L 429.777154 296.840843 
L 431.780031 99.47254 
L 433.782908 69.451462 
L 435.721175 77.768112 
L 437.724052 180.002053 
L 439.66232 296.840843 
L 447.48 296.840843 
L 447.48 296.840843 
" style="fill:none;stroke:#1f77b4;stroke-linecap:square;stroke-width:1.5;"/>
   </g>
   <g id="patch_3">
    <path d="M 42.51125 309.8635 
L 42.51125 23.36505 
" style="fill:none;stroke:#000000;stroke-linecap:square;stroke-linejoin:miter;stroke-width:0.8;"/>
   </g>
   <g id="patch_4">
    <path d="M 447.48 309.8635 
L 447.48 23.36505 
" style="fill:none;stroke:#000000;stroke-linecap:square;stroke-linejoin:miter;stroke-width:0.8;"/>
   </g>
   <g id="patch_5">
    <path d="M 42.51125 309.8635 
L 447.48 309.8635 
" style="fill:none;stroke:#000000;stroke-linecap:square;stroke-linejoin:miter;stroke-width:0.8;"/>
   </g>
   <g id="patch_6">
    <path d="M 42.51125 23.36505 
L 447.48 23.36505 
" style="fill:none;stroke:#000000;stroke-linecap:square;stroke-linejoin:miter;stroke-width:0.8;"/>
   </g>
   <g id="text_18">
    <!-- Monthly gload trend -->
    <defs>
     <path d="M 54.890625 33.015625 
L 54.890625 0 
L 45.90625 0 
L 45.90625 32.71875 
Q 45.90625 40.484375 42.875 44.328125 
Q 39.84375 48.1875 33.796875 48.1875 
Q 26.515625 48.1875 22.3125 43.546875 
Q 18.109375 38.921875 18.109375 30.90625 
L 18.109375 0 
L 9.078125 0 
L 9.078125 54.6875 
L 18.109375 54.6875 
L 18.109375 46.1875 
Q 21.34375 51.125 25.703125 53.5625 
Q 30.078125 56 35.796875 56 
Q 45.21875 56 50.046875 50.171875 
Q 54.890625 44.34375 54.890625 33.015625 
z
" id="DejaVuSans-6e"/>
     <path d="M 54.890625 33.015625 
L 54.890625 0 
L 45.90625 0 
L 45.90625 32.71875 
Q 45.90625 40.484375 42.875 44.328125 
Q 39.84375 48.1875 33.796875 48.1875 
Q 26.515625 48.1875 22.3125 43.546875 
Q 18.109375 38.921875 18.109375 30.90625 
L 18.109375 0 
L 9.078125 0 
L 9.078125 75.984375 
L 18.109375 75.984375 
L 18.109375 46.1875 
Q 21.34375 51.125 25.703125 53.5625 
Q 30.078125 56 35.796875 56 
Q 45.21875 56 50.046875 50.171875 
Q 54.890625 44.34375 54.890625 33.015625 
z
" id="DejaVuSans-68"/>
     <path d="M 32.171875 -5.078125 
Q 28.375 -14.84375 24.75 -17.8125 
Q 21.140625 -20.796875 15.09375 -20.796875 
L 7.90625 -20.796875 
L 7.90625 -13.28125 
L 13.1875 -13.28125 
Q 16.890625 -13.28125 18.9375 -11.515625 
Q 21 -9.765625 23.484375 -3.21875 
L 25.09375 0.875 
L 2.984375 54.6875 
L 12.5 54.6875 
L 29.59375 11.921875 
L 46.6875 54.6875 
L 56.203125 54.6875 
z
" id="DejaVuSans-79"/>
     <path d="M 45.40625 27.984375 
Q 45.40625 37.75 41.375 43.109375 
Q 37.359375 48.484375 30.078125 48.484375 
Q 22.859375 48.484375 18.828125 43.109375 
Q 14.796875 37.75 14.796875 27.984375 
Q 14.796875 18.265625 18.828125 12.890625 
Q 22.859375 7.515625 30.078125 7.515625 
Q 37.359375 7.515625 41.375 12.890625 
Q 45.40625 18.265625 45.40625 27.984375 
z
M 54.390625 6.78125 
Q 54.390625 -7.171875 48.1875 -13.984375 
Q 42 -20.796875 29.203125 -20.796875 
Q 24.46875 -20.796875 20.265625 -20.09375 
Q 16.0625 -19.390625 12.109375 -17.921875 
L 12.109375 -9.1875 
Q 16.0625 -11.328125 19.921875 -12.34375 
Q 23.78125 -13.375 27.78125 -13.375 
Q 36.625 -13.375 41.015625 -8.765625 
Q 45.40625 -4.15625 45.40625 5.171875 
L 45.40625 9.625 
Q 42.625 4.78125 38.28125 2.390625 
Q 33.9375 0 27.875 0 
Q 17.828125 0 11.671875 7.65625 
Q 5.515625 15.328125 5.515625 27.984375 
Q 5.515625 40.671875 11.671875 48.328125 
Q 17.828125 56 27.875 56 
Q 33.9375 56 38.28125 53.609375 
Q 42.625 51.21875 45.40625 46.390625 
L 45.40625 54.6875 
L 54.390625 54.6875 
z
" id="DejaVuSans-67"/>
    </defs>
    <g transform="translate(184.405 17.36505)scale(0.12 -0.12)">
     <use xlink:href="#DejaVuSans-4d"/>
     <use x="86.279297" xlink:href="#DejaVuSans-6f"/>
     <use x="147.460938" xlink:href="#DejaVuSans-6e"/>
     <use x="210.839844" xlink:href="#DejaVuSans-74"/>
     <use x="250.048828" xlink:href="#DejaVuSans-68"/>
     <use x="313.427734" xlink:href="#DejaVuSans-6c"/>
     <use x="341.210938" xlink:href="#DejaVuSans-79"/>
     <use x="400.390625" xlink:href="#DejaVuSans-20"/>
     <use x="432.177734" xlink:href="#DejaVuSans-67"/>
     <use x="495.654297" xlink:href="#DejaVuSans-6c"/>
     <use x="523.4375" xlink:href="#DejaVuSans-6f"/>
     <use x="584.619141" xlink:href="#DejaVuSans-61"/>
     <use x="645.898438" xlink:href="#DejaVuSans-64"/>
     <use x="709.375" xlink:href="#DejaVuSans-20"/>
     <use x="741.162109" xlink:href="#DejaVuSans-74"/>
     <use x="780.371094" xlink:href="#DejaVuSans-72"/>
     <use x="821.453125" xlink:href="#DejaVuSans-65"/>
     <use x="882.976562" xlink:href="#DejaVuSans-6e"/>
     <use x="946.355469" xlink:href="#DejaVuSans-64"/>
    </g>
   </g>
  </g>
 </g>
 <defs>
  <clipPath id="p7c233f5d0f">
   <rect height="286.49845" width="404.96875" x="42.51125" y="23.36505"/>
  </clipPath>
 </defs>
</svg>
