<?xml version="1.0" encoding="utf-8" standalone="no"?>
<!DOCTYPE svg PUBLIC "-//W3C//DTD SVG 1.1//EN"
  "http://www.w3.org/Graphics/SVG/1.1/DTD/svg11.dtd">
<!-- Created with matplotlib (http://matplotlib.org/) -->
<svg height="345.6pt" version="1.1" viewBox="0 0 460.8 345.6" width="460.8pt" xmlns="http://www.w3.org/2000/svg" xmlns:xlink="http://www.w3.org/1999/xlink">
 <defs>
  <style type="text/css">
*{stroke-linecap:butt;stroke-linejoin:round;}
  </style>
 </defs>
 <g id="figure_1">
  <g id="patch_1">
   <path d="M 0 345.6 
L 460.8 345.6 
L 460.8 0 
L 0 0 
z
" style="fill:none;"/>
  </g>
  <g id="axes_1">
   <g id="patch_2">
    <path d="M 47.09225 309.8635 
L 447.48 309.8635 
L 447.48 23.36505 
L 47.09225 23.36505 
z
" style="fill:none;"/>
   </g>
   <g id="PolyCollection_1">
    <path clip-path="url(#p3692762dae)" d="M 47.09225 48.69742 
L 47.09225 145.321471 
L 48.880836 139.106754 
L 50.861056 79.918974 
L 52.777398 158.638722 
L 54.757619 168.552675 
L 56.673961 222.265585 
L 58.654181 151.980096 
L 60.634401 226.40873 
L 62.550743 237.654408 
L 64.530963 238.986133 
L 66.447306 143.841777 
L 68.427526 148.42883 
L 70.407746 199.626259 
L 72.196332 136.591273 
L 74.176552 145.469441 
L 76.092894 229.812027 
L 78.073115 222.709494 
L 79.989457 252.007445 
L 81.969677 111.140528 
L 83.949897 167.368919 
L 85.866239 230.847813 
L 87.846459 223.153402 
L 89.762802 152.867913 
L 91.743022 143.397868 
L 93.723242 160.710294 
L 95.511828 160.266386 
L 97.492048 101.818453 
L 99.40839 223.449341 
L 101.38861 229.516088 
L 103.304953 177.282872 
L 105.285173 175.951147 
L 107.265393 135.851426 
L 109.181735 143.249899 
L 111.161955 151.684157 
L 113.078298 137.035182 
L 115.058518 222.857463 
L 117.038738 143.249899 
L 118.891202 139.402693 
L 120.871422 140.882388 
L 122.787764 223.005433 
L 124.767985 252.007445 
L 126.684327 171.068155 
L 128.664547 151.980096 
L 130.644767 140.586449 
L 132.561109 101.374544 
L 134.541329 229.959997 
L 136.457672 146.505227 
L 138.437892 158.194813 
L 140.418112 137.035182 
L 142.206698 137.62706 
L 144.186918 137.183151 
L 146.10326 183.793528 
L 148.08348 306.904111 
L 149.999823 126.381381 
L 151.980043 186.456978 
L 153.960263 134.223762 
L 155.876605 225.077005 
L 157.856825 140.882388 
L 159.773168 141.474265 
L 161.753388 140.882388 
L 163.733608 142.510052 
L 165.522194 152.276035 
L 167.502414 138.366907 
L 169.418756 222.561524 
L 171.398976 309.271622 
L 173.315319 223.005433 
L 175.295539 151.09228 
L 177.275759 142.658021 
L 179.192101 143.101929 
L 181.172321 151.388219 
L 183.088663 151.832127 
L 185.068884 224.781066 
L 187.049104 175.803178 
L 188.83769 181.721956 
L 190.81791 236.618622 
L 192.734252 249.343995 
L 194.714472 229.07218 
L 196.630815 175.803178 
L 198.611035 183.34962 
L 200.591255 171.512064 
L 202.507597 140.882388 
L 204.487817 191.635909 
L 206.404159 220.637921 
L 208.38438 169.588461 
L 210.3646 222.265585 
L 212.217064 229.220149 
L 214.197284 240.021919 
L 216.113626 294.918586 
L 218.093846 223.301371 
L 220.010189 160.858263 
L 221.990409 139.106754 
L 223.970629 272.427229 
L 225.886971 139.846601 
L 227.867191 203.917373 
L 229.783534 165.297347 
L 231.763754 181.869925 
L 233.743974 138.958785 
L 235.53256 155.679333 
L 237.51278 162.781866 
L 239.429122 225.224974 
L 241.409342 231.73563 
L 243.325685 227.888424 
L 245.305905 225.668883 
L 247.286125 238.098317 
L 249.202467 253.783078 
L 251.182687 237.802378 
L 253.099029 138.218937 
L 255.07925 94.41998 
L 257.05947 201.401893 
L 258.848056 135.555487 
L 260.828276 163.373744 
L 262.744618 220.046044 
L 264.724838 176.395056 
L 266.641181 178.02272 
L 268.621401 169.73643 
L 270.601621 219.602135 
L 272.517963 261.033581 
L 274.498183 167.664858 
L 276.414525 130.524526 
L 278.394746 136.887212 
L 280.374966 132.744068 
L 282.163552 230.847813 
L 284.143772 156.27121 
L 286.060114 253.487139 
L 288.040334 216.050868 
L 289.956677 200.662046 
L 291.936897 196.222962 
L 293.917117 180.094292 
L 295.833459 157.011058 
L 297.813679 241.501614 
L 299.730021 145.321471 
L 301.710242 91.904499 
L 303.690462 105.073781 
L 305.542926 200.810015 
L 307.523146 306.904111 
L 309.439488 218.122441 
L 311.419708 241.353644 
L 313.336051 195.483115 
L 315.316271 236.766591 
L 317.296491 216.198838 
L 319.212833 309.8635 
L 321.193053 221.229799 
L 323.109395 134.667671 
L 325.089616 181.721956 
L 327.069836 138.218937 
L 328.858422 130.820465 
L 330.838642 265.916573 
L 332.754984 309.8635 
L 334.735204 309.8635 
L 336.651547 221.821677 
L 338.631767 221.821677 
L 340.611987 176.543025 
L 342.528329 221.969646 
L 344.508549 198.442504 
L 346.424891 179.946322 
L 348.405112 135.111579 
L 350.385332 229.812027 
L 352.173918 170.624247 
L 354.154138 174.323483 
L 356.07048 199.33032 
L 358.0507 266.064543 
L 359.967043 309.8635 
L 361.947263 219.306196 
L 363.927483 176.247086 
L 365.843825 275.682557 
L 367.824045 266.80439 
L 369.740387 226.704669 
L 371.720608 252.007445 
L 373.700828 150.796341 
L 375.489414 184.385406 
L 377.469634 230.847813 
L 379.385976 185.569162 
L 381.366196 261.32952 
L 383.282538 228.332333 
L 385.262759 224.929035 
L 387.242979 146.209288 
L 389.159321 275.978496 
L 391.139541 182.313834 
L 393.055883 198.442504 
L 395.036104 272.723168 
L 397.016324 199.33032 
L 398.868788 184.977284 
L 400.849008 184.089467 
L 402.76535 275.238649 
L 404.74557 274.498801 
L 406.661913 211.907724 
L 408.642133 184.089467 
L 410.622353 190.896062 
L 412.538695 222.413555 
L 414.518915 233.511264 
L 416.435257 234.103141 
L 418.415478 214.719143 
L 420.395698 193.263573 
L 422.184284 200.366107 
L 424.164504 195.335145 
L 426.080846 239.578011 
L 428.061066 275.682557 
L 429.977409 208.800365 
L 431.957629 167.664858 
L 433.937849 193.411542 
L 435.854191 210.28006 
L 437.834411 216.494777 
L 439.750753 186.456978 
L 441.730974 228.184363 
L 443.711194 188.528551 
L 445.49978 222.857463 
L 447.48 200.218137 
L 447.48 41.742856 
L 447.48 41.742856 
L 445.49978 42.334734 
L 443.711194 40.263161 
L 441.730974 40.855039 
L 439.750753 130.080618 
L 437.834411 130.376557 
L 435.854191 40.855039 
L 433.937849 40.411131 
L 431.957629 40.115192 
L 429.977409 39.671283 
L 428.061066 77.847402 
L 426.080846 61.718732 
L 424.164504 43.074581 
L 422.184284 43.37052 
L 420.395698 42.038795 
L 418.415478 42.038795 
L 416.435257 51.952748 
L 414.518915 62.458579 
L 412.538695 44.702245 
L 410.622353 41.298947 
L 408.642133 42.482703 
L 406.661913 42.630672 
L 404.74557 112.028345 
L 402.76535 46.477878 
L 400.849008 44.702245 
L 398.868788 47.513664 
L 397.016324 38.635497 
L 395.036104 39.227375 
L 393.055883 39.819253 
L 391.139541 44.406306 
L 389.159321 39.967222 
L 387.242979 38.783467 
L 385.262759 38.487528 
L 383.282538 129.34077 
L 381.366196 128.304984 
L 379.385976 128.304984 
L 377.469634 41.150978 
L 375.489414 41.003008 
L 373.700828 40.263161 
L 371.720608 39.523314 
L 369.740387 129.192801 
L 367.824045 128.896862 
L 365.843825 40.70707 
L 363.927483 39.967222 
L 361.947263 128.600923 
L 359.967043 129.48874 
L 358.0507 128.452954 
L 356.07048 43.37052 
L 354.154138 40.411131 
L 352.173918 41.298947 
L 350.385332 44.258336 
L 348.405112 40.115192 
L 346.424891 44.258336 
L 344.508549 39.967222 
L 342.528329 40.115192 
L 340.611987 39.079406 
L 338.631767 38.339558 
L 336.651547 39.819253 
L 334.735204 150.056493 
L 332.754984 130.228587 
L 330.838642 41.594886 
L 328.858422 38.783467 
L 327.069836 38.783467 
L 325.089616 41.003008 
L 323.109395 38.043619 
L 321.193053 40.411131 
L 319.212833 40.5591 
L 317.296491 40.115192 
L 315.316271 38.487528 
L 313.336051 41.150978 
L 311.419708 130.524526 
L 309.439488 133.040007 
L 307.523146 45.294123 
L 305.542926 38.487528 
L 303.690462 37.89565 
L 301.710242 38.043619 
L 299.730021 37.747681 
L 297.813679 37.451742 
L 295.833459 37.89565 
L 293.917117 38.191589 
L 291.936897 37.89565 
L 289.956677 38.487528 
L 288.040334 62.458579 
L 286.060114 41.150978 
L 284.143772 38.043619 
L 282.163552 37.747681 
L 280.374966 37.747681 
L 278.394746 37.303772 
L 276.414525 37.007833 
L 274.498183 38.191589 
L 272.517963 38.043619 
L 270.601621 38.043619 
L 268.621401 37.303772 
L 266.641181 44.110367 
L 264.724838 127.713106 
L 262.744618 39.227375 
L 260.828276 39.227375 
L 258.848056 40.5591 
L 257.05947 40.70707 
L 255.07925 40.115192 
L 253.099029 39.079406 
L 251.182687 39.227375 
L 249.202467 118.834939 
L 247.286125 43.518489 
L 245.305905 39.967222 
L 243.325685 41.150978 
L 241.409342 129.34077 
L 239.429122 69.117204 
L 237.51278 44.110367 
L 235.53256 41.446917 
L 233.743974 42.038795 
L 231.763754 41.890825 
L 229.783534 41.890825 
L 227.867191 55.208076 
L 225.886971 42.778642 
L 223.970629 41.890825 
L 221.990409 48.105542 
L 220.010189 42.630672 
L 218.093846 48.845389 
L 216.113626 54.616198 
L 214.197284 42.630672 
L 212.217064 42.926611 
L 210.3646 43.518489 
L 208.38438 43.518489 
L 206.404159 44.554275 
L 204.487817 44.110367 
L 202.507597 43.074581 
L 200.591255 42.778642 
L 198.611035 44.406306 
L 196.630815 43.962398 
L 194.714472 44.702245 
L 192.734252 134.223762 
L 190.81791 47.365695 
L 188.83769 55.799954 
L 187.049104 68.229387 
L 185.068884 47.217725 
L 183.088663 46.773817 
L 181.172321 46.03397 
L 179.192101 44.554275 
L 177.275759 45.886 
L 175.295539 45.590061 
L 173.315319 46.181939 
L 171.398976 133.927823 
L 169.418756 47.809603 
L 167.502414 46.477878 
L 165.522194 47.809603 
L 163.733608 47.217725 
L 161.753388 47.217725 
L 159.773168 47.217725 
L 157.856825 48.69742 
L 155.876605 46.921787 
L 153.960263 47.069756 
L 151.980043 47.661634 
L 149.999823 47.809603 
L 148.08348 88.797141 
L 146.10326 47.217725 
L 144.186918 46.773817 
L 142.206698 47.217725 
L 140.418112 47.513664 
L 138.437892 47.661634 
L 136.457672 48.253512 
L 134.541329 48.54945 
L 132.561109 47.365695 
L 130.644767 47.661634 
L 128.664547 47.513664 
L 126.684327 47.809603 
L 124.767985 134.81564 
L 122.787764 47.365695 
L 120.871422 47.513664 
L 118.891202 46.773817 
L 117.038738 47.809603 
L 115.058518 46.921787 
L 113.078298 47.809603 
L 111.161955 47.809603 
L 109.181735 46.625848 
L 107.265393 47.809603 
L 105.285173 47.513664 
L 103.304953 47.661634 
L 101.38861 48.845389 
L 99.40839 48.993359 
L 97.492048 47.661634 
L 95.511828 47.661634 
L 93.723242 47.661634 
L 91.743022 47.809603 
L 89.762802 47.217725 
L 87.846459 47.661634 
L 85.866239 47.069756 
L 83.949897 47.661634 
L 81.969677 48.105542 
L 79.989457 55.356045 
L 78.073115 135.111579 
L 76.092894 48.69742 
L 74.176552 48.105542 
L 72.196332 48.401481 
L 70.407746 48.401481 
L 68.427526 48.54945 
L 66.447306 48.69742 
L 64.530963 48.401481 
L 62.550743 47.069756 
L 60.634401 47.661634 
L 58.654181 48.105542 
L 56.673961 48.69742 
L 54.757619 134.81564 
L 52.777398 48.401481 
L 50.861056 48.253512 
L 48.880836 48.69742 
L 47.09225 48.69742 
z
" style="fill:#808080;fill-opacity:0.3;"/>
   </g>
   <g id="PolyCollection_2">
    <path clip-path="url(#p3692762dae)" d="M 47.09225 50.029145 
L 47.09225 83.507233 
L 48.880836 53.432442 
L 50.861056 56.317847 
L 52.777398 136.443304 
L 54.757619 139.994571 
L 56.673961 139.735624 
L 58.654181 52.877557 
L 60.634401 77.995371 
L 62.550743 136.147365 
L 64.530963 136.147365 
L 66.447306 62.051663 
L 68.427526 136.295335 
L 70.407746 135.999396 
L 72.196332 57.131679 
L 74.176552 50.768992 
L 76.092894 143.915761 
L 78.073115 137.035182 
L 79.989457 151.462203 
L 81.969677 67.63751 
L 83.949897 111.362482 
L 85.866239 58.907312 
L 87.846459 136.443304 
L 89.762802 50.658015 
L 91.743022 49.585237 
L 93.723242 50.510046 
L 95.511828 49.881176 
L 97.492048 58.759343 
L 99.40839 136.443304 
L 101.38861 140.734418 
L 103.304953 136.147365 
L 105.285173 61.311816 
L 107.265393 49.881176 
L 109.181735 60.830915 
L 111.161955 63.346396 
L 113.078298 50.325084 
L 115.058518 88.982103 
L 117.038738 95.640728 
L 118.891202 50.177114 
L 120.871422 77.551463 
L 122.787764 135.851426 
L 124.767985 170.920186 
L 126.684327 136.147365 
L 128.664547 59.943098 
L 130.644767 57.020702 
L 132.561109 54.764167 
L 134.541329 136.591273 
L 136.457672 51.101923 
L 138.437892 73.482303 
L 140.418112 50.177114 
L 142.206698 50.029145 
L 144.186918 49.47426 
L 146.10326 136.147365 
L 148.08348 154.976478 
L 149.999823 68.340364 
L 151.980043 96.935461 
L 153.960263 51.656809 
L 155.876605 135.259548 
L 157.856825 65.713907 
L 159.773168 64.863082 
L 161.753388 83.211294 
L 163.733608 49.733206 
L 165.522194 78.735218 
L 167.502414 50.473053 
L 169.418756 135.555487 
L 171.398976 156.863088 
L 173.315319 135.555487 
L 175.295539 52.729587 
L 177.275759 56.613786 
L 179.192101 130.672495 
L 181.172321 84.838958 
L 183.088663 52.988534 
L 185.068884 135.740449 
L 187.049104 99.302972 
L 188.83769 96.047644 
L 190.81791 85.393844 
L 192.734252 184.60736 
L 194.714472 165.18637 
L 196.630815 57.427617 
L 198.611035 71.965616 
L 200.591255 70.78186 
L 202.507597 54.616198 
L 204.487817 134.223762 
L 206.404159 87.650378 
L 208.38438 56.68777 
L 210.3646 96.824484 
L 212.217064 114.358864 
L 214.197284 119.46381 
L 216.113626 137.035182 
L 218.093846 148.206875 
L 220.010189 87.132485 
L 221.990409 52.544626 
L 223.970629 83.803172 
L 225.886971 69.080212 
L 227.867191 122.423199 
L 229.783534 120.906512 
L 231.763754 84.801966 
L 233.743974 50.768992 
L 235.53256 85.02392 
L 237.51278 133.779854 
L 239.429122 219.158227 
L 241.409342 219.158227 
L 243.325685 159.08263 
L 245.305905 131.116404 
L 247.286125 163.595698 
L 249.202467 152.904905 
L 251.182687 50.029145 
L 253.099029 48.919374 
L 255.07925 42.926611 
L 257.05947 43.111573 
L 258.848056 62.458579 
L 260.828276 129.932648 
L 262.744618 137.331121 
L 264.724838 144.470647 
L 266.641181 138.10796 
L 268.621401 94.309003 
L 270.601621 128.748893 
L 272.517963 219.602135 
L 274.498183 69.339158 
L 276.414525 54.17229 
L 278.394746 44.295329 
L 280.374966 76.8856 
L 282.163552 126.788297 
L 284.143772 71.114792 
L 286.060114 143.841777 
L 288.040334 164.002614 
L 289.956677 116.800359 
L 291.936897 136.591273 
L 293.917117 134.96361 
L 295.833459 96.121629 
L 297.813679 219.010257 
L 299.730021 69.006227 
L 301.710242 58.944304 
L 303.690462 71.262761 
L 305.542926 116.763367 
L 307.523146 175.951147 
L 309.439488 173.583636 
L 311.419708 171.512064 
L 313.336051 149.834539 
L 315.316271 161.709088 
L 317.296491 78.846195 
L 319.212833 221.821677 
L 321.193053 102.743262 
L 323.109395 62.16264 
L 325.089616 132.004221 
L 327.069836 73.556288 
L 328.858422 59.35122 
L 330.838642 163.225775 
L 332.754984 171.844995 
L 334.735204 223.301371 
L 336.651547 131.708282 
L 338.631767 81.139722 
L 340.611987 98.415155 
L 342.528329 89.980897 
L 344.508549 91.423599 
L 346.424891 110.030757 
L 348.405112 96.343583 
L 350.385332 110.400681 
L 352.173918 75.923799 
L 354.154138 133.779854 
L 356.07048 162.042019 
L 358.0507 173.139728 
L 359.967043 173.028751 
L 361.947263 149.464616 
L 363.927483 128.748893 
L 365.843825 158.971653 
L 367.824045 163.965622 
L 369.740387 157.04805 
L 371.720608 181.31504 
L 373.700828 82.36047 
L 375.489414 80.399875 
L 377.469634 149.649578 
L 379.385976 145.765379 
L 381.366196 222.006639 
L 383.282538 157.491958 
L 385.262759 135.703457 
L 387.242979 72.81644 
L 389.159321 220.526944 
L 391.139541 132.485121 
L 393.055883 127.639122 
L 395.036104 174.656415 
L 397.016324 106.035582 
L 398.868788 136.813228 
L 400.849008 123.421992 
L 402.76535 183.423605 
L 404.74557 208.060518 
L 406.661913 146.468234 
L 408.642133 111.066543 
L 410.622353 108.51407 
L 412.538695 165.334339 
L 414.518915 195.668077 
L 416.435257 185.421192 
L 418.415478 144.581624 
L 420.395698 127.010252 
L 422.184284 148.132891 
L 424.164504 171.475071 
L 426.080846 195.187176 
L 428.061066 200.366107 
L 429.977409 153.644753 
L 431.957629 83.951141 
L 433.937849 92.755324 
L 435.854191 157.565943 
L 437.834411 170.254323 
L 439.750753 147.836952 
L 441.730974 142.399074 
L 443.711194 123.163046 
L 445.49978 137.812021 
L 447.48 152.756936 
L 447.48 81.768592 
L 447.48 81.768592 
L 445.49978 78.735218 
L 443.711194 57.242656 
L 441.730974 79.142134 
L 439.750753 133.187976 
L 437.834411 138.921792 
L 435.854191 80.510852 
L 433.937849 45.849008 
L 431.957629 42.778642 
L 429.977409 82.952348 
L 428.061066 145.321471 
L 426.080846 142.95396 
L 424.164504 96.047644 
L 422.184284 90.239843 
L 420.395698 56.354839 
L 418.415478 60.387007 
L 416.435257 143.249899 
L 414.518915 144.581624 
L 412.538695 113.98894 
L 410.622353 49.141328 
L 408.642133 48.956366 
L 406.661913 85.948729 
L 404.74557 144.98854 
L 402.76535 86.42963 
L 400.849008 72.224563 
L 398.868788 87.132485 
L 397.016324 51.915755 
L 395.036104 133.742862 
L 393.055883 52.285679 
L 391.139541 70.559906 
L 389.159321 62.421586 
L 387.242979 44.110367 
L 385.262759 55.060106 
L 383.282538 133.335946 
L 381.366196 138.958785 
L 379.385976 132.15219 
L 377.469634 96.491552 
L 375.489414 53.284473 
L 373.700828 57.390625 
L 371.720608 47.032764 
L 369.740387 131.856251 
L 367.824045 139.550663 
L 365.843825 131.560312 
L 363.927483 58.944304 
L 361.947263 131.116404 
L 359.967043 134.0388 
L 358.0507 139.698632 
L 356.07048 131.116404 
L 354.154138 60.534976 
L 352.173918 48.401481 
L 350.385332 51.212901 
L 348.405112 47.92058 
L 346.424891 73.889219 
L 344.508549 49.141328 
L 342.528329 51.508839 
L 340.611987 46.773817 
L 338.631767 42.186764 
L 336.651547 53.580412 
L 334.735204 152.276035 
L 332.754984 134.81564 
L 330.838642 77.403493 
L 328.858422 42.334734 
L 327.069836 44.998184 
L 325.089616 46.736825 
L 323.109395 42.334734 
L 321.193053 54.616198 
L 319.212833 81.657615 
L 317.296491 43.22255 
L 315.316271 131.708282 
L 313.336051 128.7119 
L 311.419708 134.371732 
L 309.439488 137.146159 
L 307.523146 105.776635 
L 305.542926 49.141328 
L 303.690462 42.186764 
L 301.710242 39.523314 
L 299.730021 39.967222 
L 297.813679 54.061313 
L 295.833459 46.921787 
L 293.917117 48.105542 
L 291.936897 51.767786 
L 289.956677 58.130472 
L 288.040334 130.376557 
L 286.060114 129.34077 
L 284.143772 41.150978 
L 282.163552 40.115192 
L 280.374966 39.375345 
L 278.394746 38.931436 
L 276.414525 39.523314 
L 274.498183 39.523314 
L 272.517963 61.977678 
L 270.601621 38.931436 
L 268.621401 40.411131 
L 266.641181 93.680133 
L 264.724838 129.636709 
L 262.744618 83.13731 
L 260.828276 43.37052 
L 258.848056 41.742856 
L 257.05947 41.742856 
L 255.07925 41.742856 
L 253.099029 40.855039 
L 251.182687 41.003008 
L 249.202467 131.116404 
L 247.286125 131.264373 
L 245.305905 48.54945 
L 243.325685 80.621829 
L 241.409342 130.672495 
L 239.429122 129.932648 
L 237.51278 46.440886 
L 235.53256 43.962398 
L 233.743974 44.110367 
L 231.763754 45.294123 
L 229.783534 52.951542 
L 227.867191 68.377357 
L 225.886971 46.588855 
L 223.970629 48.512458 
L 221.990409 50.029145 
L 220.010189 50.621023 
L 218.093846 132.448129 
L 216.113626 74.333127 
L 214.197284 46.477878 
L 212.217064 45.146153 
L 210.3646 45.886 
L 208.38438 45.146153 
L 206.404159 46.477878 
L 204.487817 47.772611 
L 202.507597 45.442092 
L 200.591255 45.294123 
L 198.611035 48.512458 
L 196.630815 49.400275 
L 194.714472 72.224563 
L 192.734252 153.311821 
L 190.81791 66.749693 
L 188.83769 79.031157 
L 187.049104 89.832927 
L 185.068884 49.733206 
L 183.088663 48.54945 
L 181.172321 48.993359 
L 179.192101 48.105542 
L 177.275759 47.661634 
L 175.295539 47.513664 
L 173.315319 53.876351 
L 171.398976 135.259548 
L 169.418756 52.951542 
L 167.502414 48.845389 
L 165.522194 49.141328 
L 163.733608 48.69742 
L 161.753388 49.252305 
L 159.773168 49.437267 
L 157.856825 50.473053 
L 155.876605 50.177114 
L 153.960263 48.845389 
L 151.980043 48.993359 
L 149.999823 50.473053 
L 148.08348 137.47909 
L 146.10326 50.879969 
L 144.186918 48.401481 
L 142.206698 48.845389 
L 140.418112 49.141328 
L 138.437892 49.141328 
L 136.457672 49.585237 
L 134.541329 72.18757 
L 132.561109 48.993359 
L 130.644767 48.845389 
L 128.664547 48.993359 
L 126.684327 50.029145 
L 124.767985 135.851426 
L 122.787764 48.845389 
L 120.871422 48.845389 
L 118.891202 48.69742 
L 117.038738 48.993359 
L 115.058518 49.141328 
L 113.078298 48.993359 
L 111.161955 49.289298 
L 109.181735 49.141328 
L 107.265393 48.845389 
L 105.285173 48.845389 
L 103.304953 49.437267 
L 101.38861 135.851426 
L 99.40839 60.313022 
L 97.492048 49.289298 
L 95.511828 49.141328 
L 93.723242 48.993359 
L 91.743022 48.845389 
L 89.762802 48.69742 
L 87.846459 53.39545 
L 85.866239 48.845389 
L 83.949897 49.141328 
L 81.969677 49.141328 
L 79.989457 84.617004 
L 78.073115 135.703457 
L 76.092894 89.832927 
L 74.176552 49.141328 
L 72.196332 49.585237 
L 70.407746 49.733206 
L 68.427526 49.585237 
L 66.447306 49.289298 
L 64.530963 49.437267 
L 62.550743 51.212901 
L 60.634401 49.141328 
L 58.654181 49.141328 
L 56.673961 77.66244 
L 54.757619 135.999396 
L 52.777398 50.732 
L 50.861056 49.437267 
L 48.880836 49.585237 
L 47.09225 50.029145 
z
" style="fill:#808080;fill-opacity:0.6;"/>
   </g>
   <g id="matplotlib.axis_1">
    <g id="xtick_1">
     <g id="line2d_1">
      <path clip-path="url(#p3692762dae)" d="M 91.8069 309.8635 
L 91.8069 23.36505 
" style="fill:none;stroke:#b0b0b0;stroke-linecap:square;stroke-width:0.8;"/>
     </g>
     <g id="line2d_2">
      <defs>
       <path d="M 0 0 
L 0 3.5 
" id="m5b32fe18d6" style="stroke:#000000;stroke-width:0.8;"/>
      </defs>
      <g>
       <use style="stroke:#000000;stroke-width:0.8;" x="91.8069" xlink:href="#m5b32fe18d6" y="309.8635"/>
      </g>
     </g>
     <g id="text_1">
      <!-- 2003 -->
      <defs>
       <path d="M 19.1875 8.296875 
L 53.609375 8.296875 
L 53.609375 0 
L 7.328125 0 
L 7.328125 8.296875 
Q 12.9375 14.109375 22.625 23.890625 
Q 32.328125 33.6875 34.8125 36.53125 
Q 39.546875 41.84375 41.421875 45.53125 
Q 43.3125 49.21875 43.3125 52.78125 
Q 43.3125 58.59375 39.234375 62.25 
Q 35.15625 65.921875 28.609375 65.921875 
Q 23.96875 65.921875 18.8125 64.3125 
Q 13.671875 62.703125 7.8125 59.421875 
L 7.8125 69.390625 
Q 13.765625 71.78125 18.9375 73 
Q 24.125 74.21875 28.421875 74.21875 
Q 39.75 74.21875 46.484375 68.546875 
Q 53.21875 62.890625 53.21875 53.421875 
Q 53.21875 48.921875 51.53125 44.890625 
Q 49.859375 40.875 45.40625 35.40625 
Q 44.1875 33.984375 37.640625 27.21875 
Q 31.109375 20.453125 19.1875 8.296875 
z
" id="DejaVuSans-32"/>
       <path d="M 31.78125 66.40625 
Q 24.171875 66.40625 20.328125 58.90625 
Q 16.5 51.421875 16.5 36.375 
Q 16.5 21.390625 20.328125 13.890625 
Q 24.171875 6.390625 31.78125 6.390625 
Q 39.453125 6.390625 43.28125 13.890625 
Q 47.125 21.390625 47.125 36.375 
Q 47.125 51.421875 43.28125 58.90625 
Q 39.453125 66.40625 31.78125 66.40625 
z
M 31.78125 74.21875 
Q 44.046875 74.21875 50.515625 64.515625 
Q 56.984375 54.828125 56.984375 36.375 
Q 56.984375 17.96875 50.515625 8.265625 
Q 44.046875 -1.421875 31.78125 -1.421875 
Q 19.53125 -1.421875 13.0625 8.265625 
Q 6.59375 17.96875 6.59375 36.375 
Q 6.59375 54.828125 13.0625 64.515625 
Q 19.53125 74.21875 31.78125 74.21875 
z
" id="DejaVuSans-30"/>
       <path d="M 40.578125 39.3125 
Q 47.65625 37.796875 51.625 33 
Q 55.609375 28.21875 55.609375 21.1875 
Q 55.609375 10.40625 48.1875 4.484375 
Q 40.765625 -1.421875 27.09375 -1.421875 
Q 22.515625 -1.421875 17.65625 -0.515625 
Q 12.796875 0.390625 7.625 2.203125 
L 7.625 11.71875 
Q 11.71875 9.328125 16.59375 8.109375 
Q 21.484375 6.890625 26.8125 6.890625 
Q 36.078125 6.890625 40.9375 10.546875 
Q 45.796875 14.203125 45.796875 21.1875 
Q 45.796875 27.640625 41.28125 31.265625 
Q 36.765625 34.90625 28.71875 34.90625 
L 20.21875 34.90625 
L 20.21875 43.015625 
L 29.109375 43.015625 
Q 36.375 43.015625 40.234375 45.921875 
Q 44.09375 48.828125 44.09375 54.296875 
Q 44.09375 59.90625 40.109375 62.90625 
Q 36.140625 65.921875 28.71875 65.921875 
Q 24.65625 65.921875 20.015625 65.03125 
Q 15.375 64.15625 9.8125 62.3125 
L 9.8125 71.09375 
Q 15.4375 72.65625 20.34375 73.4375 
Q 25.25 74.21875 29.59375 74.21875 
Q 40.828125 74.21875 47.359375 69.109375 
Q 53.90625 64.015625 53.90625 55.328125 
Q 53.90625 49.265625 50.4375 45.09375 
Q 46.96875 40.921875 40.578125 39.3125 
z
" id="DejaVuSans-33"/>
      </defs>
      <g transform="translate(79.0819 324.461937)scale(0.1 -0.1)">
       <use xlink:href="#DejaVuSans-32"/>
       <use x="63.623047" xlink:href="#DejaVuSans-30"/>
       <use x="127.246094" xlink:href="#DejaVuSans-30"/>
       <use x="190.869141" xlink:href="#DejaVuSans-33"/>
      </g>
     </g>
    </g>
    <g id="xtick_2">
     <g id="line2d_3">
      <path clip-path="url(#p3692762dae)" d="M 138.50177 309.8635 
L 138.50177 23.36505 
" style="fill:none;stroke:#b0b0b0;stroke-linecap:square;stroke-width:0.8;"/>
     </g>
     <g id="line2d_4">
      <g>
       <use style="stroke:#000000;stroke-width:0.8;" x="138.50177" xlink:href="#m5b32fe18d6" y="309.8635"/>
      </g>
     </g>
     <g id="text_2">
      <!-- 2005 -->
      <defs>
       <path d="M 10.796875 72.90625 
L 49.515625 72.90625 
L 49.515625 64.59375 
L 19.828125 64.59375 
L 19.828125 46.734375 
Q 21.96875 47.46875 24.109375 47.828125 
Q 26.265625 48.1875 28.421875 48.1875 
Q 40.625 48.1875 47.75 41.5 
Q 54.890625 34.8125 54.890625 23.390625 
Q 54.890625 11.625 47.5625 5.09375 
Q 40.234375 -1.421875 26.90625 -1.421875 
Q 22.3125 -1.421875 17.546875 -0.640625 
Q 12.796875 0.140625 7.71875 1.703125 
L 7.71875 11.625 
Q 12.109375 9.234375 16.796875 8.0625 
Q 21.484375 6.890625 26.703125 6.890625 
Q 35.15625 6.890625 40.078125 11.328125 
Q 45.015625 15.765625 45.015625 23.390625 
Q 45.015625 31 40.078125 35.4375 
Q 35.15625 39.890625 26.703125 39.890625 
Q 22.75 39.890625 18.8125 39.015625 
Q 14.890625 38.140625 10.796875 36.28125 
z
" id="DejaVuSans-35"/>
      </defs>
      <g transform="translate(125.77677 324.461937)scale(0.1 -0.1)">
       <use xlink:href="#DejaVuSans-32"/>
       <use x="63.623047" xlink:href="#DejaVuSans-30"/>
       <use x="127.246094" xlink:href="#DejaVuSans-30"/>
       <use x="190.869141" xlink:href="#DejaVuSans-35"/>
      </g>
     </g>
    </g>
    <g id="xtick_3">
     <g id="line2d_5">
      <path clip-path="url(#p3692762dae)" d="M 185.132762 309.8635 
L 185.132762 23.36505 
" style="fill:none;stroke:#b0b0b0;stroke-linecap:square;stroke-width:0.8;"/>
     </g>
     <g id="line2d_6">
      <g>
       <use style="stroke:#000000;stroke-width:0.8;" x="185.132762" xlink:href="#m5b32fe18d6" y="309.8635"/>
      </g>
     </g>
     <g id="text_3">
      <!-- 2007 -->
      <defs>
       <path d="M 8.203125 72.90625 
L 55.078125 72.90625 
L 55.078125 68.703125 
L 28.609375 0 
L 18.3125 0 
L 43.21875 64.59375 
L 8.203125 64.59375 
z
" id="DejaVuSans-37"/>
      </defs>
      <g transform="translate(172.407762 324.461937)scale(0.1 -0.1)">
       <use xlink:href="#DejaVuSans-32"/>
       <use x="63.623047" xlink:href="#DejaVuSans-30"/>
       <use x="127.246094" xlink:href="#DejaVuSans-30"/>
       <use x="190.869141" xlink:href="#DejaVuSans-37"/>
      </g>
     </g>
    </g>
    <g id="xtick_4">
     <g id="line2d_7">
      <path clip-path="url(#p3692762dae)" d="M 231.827632 309.8635 
L 231.827632 23.36505 
" style="fill:none;stroke:#b0b0b0;stroke-linecap:square;stroke-width:0.8;"/>
     </g>
     <g id="line2d_8">
      <g>
       <use style="stroke:#000000;stroke-width:0.8;" x="231.827632" xlink:href="#m5b32fe18d6" y="309.8635"/>
      </g>
     </g>
     <g id="text_4">
      <!-- 2009 -->
      <defs>
       <path d="M 10.984375 1.515625 
L 10.984375 10.5 
Q 14.703125 8.734375 18.5 7.8125 
Q 22.3125 6.890625 25.984375 6.890625 
Q 35.75 6.890625 40.890625 13.453125 
Q 46.046875 20.015625 46.78125 33.40625 
Q 43.953125 29.203125 39.59375 26.953125 
Q 35.25 24.703125 29.984375 24.703125 
Q 19.046875 24.703125 12.671875 31.3125 
Q 6.296875 37.9375 6.296875 49.421875 
Q 6.296875 60.640625 12.9375 67.421875 
Q 19.578125 74.21875 30.609375 74.21875 
Q 43.265625 74.21875 49.921875 64.515625 
Q 56.59375 54.828125 56.59375 36.375 
Q 56.59375 19.140625 48.40625 8.859375 
Q 40.234375 -1.421875 26.421875 -1.421875 
Q 22.703125 -1.421875 18.890625 -0.6875 
Q 15.09375 0.046875 10.984375 1.515625 
z
M 30.609375 32.421875 
Q 37.25 32.421875 41.125 36.953125 
Q 45.015625 41.5 45.015625 49.421875 
Q 45.015625 57.28125 41.125 61.84375 
Q 37.25 66.40625 30.609375 66.40625 
Q 23.96875 66.40625 20.09375 61.84375 
Q 16.21875 57.28125 16.21875 49.421875 
Q 16.21875 41.5 20.09375 36.953125 
Q 23.96875 32.421875 30.609375 32.421875 
z
" id="DejaVuSans-39"/>
      </defs>
      <g transform="translate(219.102632 324.461937)scale(0.1 -0.1)">
       <use xlink:href="#DejaVuSans-32"/>
       <use x="63.623047" xlink:href="#DejaVuSans-30"/>
       <use x="127.246094" xlink:href="#DejaVuSans-30"/>
       <use x="190.869141" xlink:href="#DejaVuSans-39"/>
      </g>
     </g>
    </g>
    <g id="xtick_5">
     <g id="line2d_9">
      <path clip-path="url(#p3692762dae)" d="M 278.458624 309.8635 
L 278.458624 23.36505 
" style="fill:none;stroke:#b0b0b0;stroke-linecap:square;stroke-width:0.8;"/>
     </g>
     <g id="line2d_10">
      <g>
       <use style="stroke:#000000;stroke-width:0.8;" x="278.458624" xlink:href="#m5b32fe18d6" y="309.8635"/>
      </g>
     </g>
     <g id="text_5">
      <!-- 2011 -->
      <defs>
       <path d="M 12.40625 8.296875 
L 28.515625 8.296875 
L 28.515625 63.921875 
L 10.984375 60.40625 
L 10.984375 69.390625 
L 28.421875 72.90625 
L 38.28125 72.90625 
L 38.28125 8.296875 
L 54.390625 8.296875 
L 54.390625 0 
L 12.40625 0 
z
" id="DejaVuSans-31"/>
      </defs>
      <g transform="translate(265.733624 324.461937)scale(0.1 -0.1)">
       <use xlink:href="#DejaVuSans-32"/>
       <use x="63.623047" xlink:href="#DejaVuSans-30"/>
       <use x="127.246094" xlink:href="#DejaVuSans-31"/>
       <use x="190.869141" xlink:href="#DejaVuSans-31"/>
      </g>
     </g>
    </g>
    <g id="xtick_6">
     <g id="line2d_11">
      <path clip-path="url(#p3692762dae)" d="M 325.153494 309.8635 
L 325.153494 23.36505 
" style="fill:none;stroke:#b0b0b0;stroke-linecap:square;stroke-width:0.8;"/>
     </g>
     <g id="line2d_12">
      <g>
       <use style="stroke:#000000;stroke-width:0.8;" x="325.153494" xlink:href="#m5b32fe18d6" y="309.8635"/>
      </g>
     </g>
     <g id="text_6">
      <!-- 2013 -->
      <g transform="translate(312.428494 324.461937)scale(0.1 -0.1)">
       <use xlink:href="#DejaVuSans-32"/>
       <use x="63.623047" xlink:href="#DejaVuSans-30"/>
       <use x="127.246094" xlink:href="#DejaVuSans-31"/>
       <use x="190.869141" xlink:href="#DejaVuSans-33"/>
      </g>
     </g>
    </g>
    <g id="xtick_7">
     <g id="line2d_13">
      <path clip-path="url(#p3692762dae)" d="M 371.784486 309.8635 
L 371.784486 23.36505 
" style="fill:none;stroke:#b0b0b0;stroke-linecap:square;stroke-width:0.8;"/>
     </g>
     <g id="line2d_14">
      <g>
       <use style="stroke:#000000;stroke-width:0.8;" x="371.784486" xlink:href="#m5b32fe18d6" y="309.8635"/>
      </g>
     </g>
     <g id="text_7">
      <!-- 2015 -->
      <g transform="translate(359.059486 324.461937)scale(0.1 -0.1)">
       <use xlink:href="#DejaVuSans-32"/>
       <use x="63.623047" xlink:href="#DejaVuSans-30"/>
       <use x="127.246094" xlink:href="#DejaVuSans-31"/>
       <use x="190.869141" xlink:href="#DejaVuSans-35"/>
      </g>
     </g>
    </g>
    <g id="xtick_8">
     <g id="line2d_15">
      <path clip-path="url(#p3692762dae)" d="M 418.479356 309.8635 
L 418.479356 23.36505 
" style="fill:none;stroke:#b0b0b0;stroke-linecap:square;stroke-width:0.8;"/>
     </g>
     <g id="line2d_16">
      <g>
       <use style="stroke:#000000;stroke-width:0.8;" x="418.479356" xlink:href="#m5b32fe18d6" y="309.8635"/>
      </g>
     </g>
     <g id="text_8">
      <!-- 2017 -->
      <g transform="translate(405.754356 324.461937)scale(0.1 -0.1)">
       <use xlink:href="#DejaVuSans-32"/>
       <use x="63.623047" xlink:href="#DejaVuSans-30"/>
       <use x="127.246094" xlink:href="#DejaVuSans-31"/>
       <use x="190.869141" xlink:href="#DejaVuSans-37"/>
      </g>
     </g>
    </g>
    <g id="text_9">
     <!-- Date -->
     <defs>
      <path d="M 19.671875 64.796875 
L 19.671875 8.109375 
L 31.59375 8.109375 
Q 46.6875 8.109375 53.6875 14.9375 
Q 60.6875 21.78125 60.6875 36.53125 
Q 60.6875 51.171875 53.6875 57.984375 
Q 46.6875 64.796875 31.59375 64.796875 
z
M 9.8125 72.90625 
L 30.078125 72.90625 
Q 51.265625 72.90625 61.171875 64.09375 
Q 71.09375 55.28125 71.09375 36.53125 
Q 71.09375 17.671875 61.125 8.828125 
Q 51.171875 0 30.078125 0 
L 9.8125 0 
z
" id="DejaVuSans-44"/>
      <path d="M 34.28125 27.484375 
Q 23.390625 27.484375 19.1875 25 
Q 14.984375 22.515625 14.984375 16.5 
Q 14.984375 11.71875 18.140625 8.90625 
Q 21.296875 6.109375 26.703125 6.109375 
Q 34.1875 6.109375 38.703125 11.40625 
Q 43.21875 16.703125 43.21875 25.484375 
L 43.21875 27.484375 
z
M 52.203125 31.203125 
L 52.203125 0 
L 43.21875 0 
L 43.21875 8.296875 
Q 40.140625 3.328125 35.546875 0.953125 
Q 30.953125 -1.421875 24.3125 -1.421875 
Q 15.921875 -1.421875 10.953125 3.296875 
Q 6 8.015625 6 15.921875 
Q 6 25.140625 12.171875 29.828125 
Q 18.359375 34.515625 30.609375 34.515625 
L 43.21875 34.515625 
L 43.21875 35.40625 
Q 43.21875 41.609375 39.140625 45 
Q 35.0625 48.390625 27.6875 48.390625 
Q 23 48.390625 18.546875 47.265625 
Q 14.109375 46.140625 10.015625 43.890625 
L 10.015625 52.203125 
Q 14.9375 54.109375 19.578125 55.046875 
Q 24.21875 56 28.609375 56 
Q 40.484375 56 46.34375 49.84375 
Q 52.203125 43.703125 52.203125 31.203125 
z
" id="DejaVuSans-61"/>
      <path d="M 18.3125 70.21875 
L 18.3125 54.6875 
L 36.8125 54.6875 
L 36.8125 47.703125 
L 18.3125 47.703125 
L 18.3125 18.015625 
Q 18.3125 11.328125 20.140625 9.421875 
Q 21.96875 7.515625 27.59375 7.515625 
L 36.8125 7.515625 
L 36.8125 0 
L 27.59375 0 
Q 17.1875 0 13.234375 3.875 
Q 9.28125 7.765625 9.28125 18.015625 
L 9.28125 47.703125 
L 2.6875 47.703125 
L 2.6875 54.6875 
L 9.28125 54.6875 
L 9.28125 70.21875 
z
" id="DejaVuSans-74"/>
      <path d="M 56.203125 29.59375 
L 56.203125 25.203125 
L 14.890625 25.203125 
Q 15.484375 15.921875 20.484375 11.0625 
Q 25.484375 6.203125 34.421875 6.203125 
Q 39.59375 6.203125 44.453125 7.46875 
Q 49.3125 8.734375 54.109375 11.28125 
L 54.109375 2.78125 
Q 49.265625 0.734375 44.1875 -0.34375 
Q 39.109375 -1.421875 33.890625 -1.421875 
Q 20.796875 -1.421875 13.15625 6.1875 
Q 5.515625 13.8125 5.515625 26.8125 
Q 5.515625 40.234375 12.765625 48.109375 
Q 20.015625 56 32.328125 56 
Q 43.359375 56 49.78125 48.890625 
Q 56.203125 41.796875 56.203125 29.59375 
z
M 47.21875 32.234375 
Q 47.125 39.59375 43.09375 43.984375 
Q 39.0625 48.390625 32.421875 48.390625 
Q 24.90625 48.390625 20.390625 44.140625 
Q 15.875 39.890625 15.1875 32.171875 
z
" id="DejaVuSans-65"/>
     </defs>
     <g transform="translate(235.335344 338.140062)scale(0.1 -0.1)">
      <use xlink:href="#DejaVuSans-44"/>
      <use x="77.001953" xlink:href="#DejaVuSans-61"/>
      <use x="138.28125" xlink:href="#DejaVuSans-74"/>
      <use x="177.490234" xlink:href="#DejaVuSans-65"/>
     </g>
    </g>
   </g>
   <g id="matplotlib.axis_2">
    <g id="ytick_1">
     <g id="line2d_17">
      <path clip-path="url(#p3692762dae)" d="M 47.09225 309.8635 
L 447.48 309.8635 
" style="fill:none;stroke:#b0b0b0;stroke-linecap:square;stroke-width:0.8;"/>
     </g>
     <g id="line2d_18">
      <defs>
       <path d="M 0 0 
L -3.5 0 
" id="mef9657c1bb" style="stroke:#000000;stroke-width:0.8;"/>
      </defs>
      <g>
       <use style="stroke:#000000;stroke-width:0.8;" x="47.09225" xlink:href="#mef9657c1bb" y="309.8635"/>
      </g>
     </g>
     <g id="text_10">
      <!-- 0 -->
      <g transform="translate(33.72975 313.662719)scale(0.1 -0.1)">
       <use xlink:href="#DejaVuSans-30"/>
      </g>
     </g>
    </g>
    <g id="ytick_2">
     <g id="line2d_19">
      <path clip-path="url(#p3692762dae)" d="M 47.09225 272.871137 
L 447.48 272.871137 
" style="fill:none;stroke:#b0b0b0;stroke-linecap:square;stroke-width:0.8;"/>
     </g>
     <g id="line2d_20">
      <g>
       <use style="stroke:#000000;stroke-width:0.8;" x="47.09225" xlink:href="#mef9657c1bb" y="272.871137"/>
      </g>
     </g>
     <g id="text_11">
      <!-- 250 -->
      <g transform="translate(21.00475 276.670356)scale(0.1 -0.1)">
       <use xlink:href="#DejaVuSans-32"/>
       <use x="63.623047" xlink:href="#DejaVuSans-35"/>
       <use x="127.246094" xlink:href="#DejaVuSans-30"/>
      </g>
     </g>
    </g>
    <g id="ytick_3">
     <g id="line2d_21">
      <path clip-path="url(#p3692762dae)" d="M 47.09225 235.878775 
L 447.48 235.878775 
" style="fill:none;stroke:#b0b0b0;stroke-linecap:square;stroke-width:0.8;"/>
     </g>
     <g id="line2d_22">
      <g>
       <use style="stroke:#000000;stroke-width:0.8;" x="47.09225" xlink:href="#mef9657c1bb" y="235.878775"/>
      </g>
     </g>
     <g id="text_12">
      <!-- 500 -->
      <g transform="translate(21.00475 239.677994)scale(0.1 -0.1)">
       <use xlink:href="#DejaVuSans-35"/>
       <use x="63.623047" xlink:href="#DejaVuSans-30"/>
       <use x="127.246094" xlink:href="#DejaVuSans-30"/>
      </g>
     </g>
    </g>
    <g id="ytick_4">
     <g id="line2d_23">
      <path clip-path="url(#p3692762dae)" d="M 47.09225 198.886412 
L 447.48 198.886412 
" style="fill:none;stroke:#b0b0b0;stroke-linecap:square;stroke-width:0.8;"/>
     </g>
     <g id="line2d_24">
      <g>
       <use style="stroke:#000000;stroke-width:0.8;" x="47.09225" xlink:href="#mef9657c1bb" y="198.886412"/>
      </g>
     </g>
     <g id="text_13">
      <!-- 750 -->
      <g transform="translate(21.00475 202.685631)scale(0.1 -0.1)">
       <use xlink:href="#DejaVuSans-37"/>
       <use x="63.623047" xlink:href="#DejaVuSans-35"/>
       <use x="127.246094" xlink:href="#DejaVuSans-30"/>
      </g>
     </g>
    </g>
    <g id="ytick_5">
     <g id="line2d_25">
      <path clip-path="url(#p3692762dae)" d="M 47.09225 161.89405 
L 447.48 161.89405 
" style="fill:none;stroke:#b0b0b0;stroke-linecap:square;stroke-width:0.8;"/>
     </g>
     <g id="line2d_26">
      <g>
       <use style="stroke:#000000;stroke-width:0.8;" x="47.09225" xlink:href="#mef9657c1bb" y="161.89405"/>
      </g>
     </g>
     <g id="text_14">
      <!-- 1000 -->
      <g transform="translate(14.64225 165.693268)scale(0.1 -0.1)">
       <use xlink:href="#DejaVuSans-31"/>
       <use x="63.623047" xlink:href="#DejaVuSans-30"/>
       <use x="127.246094" xlink:href="#DejaVuSans-30"/>
       <use x="190.869141" xlink:href="#DejaVuSans-30"/>
      </g>
     </g>
    </g>
    <g id="ytick_6">
     <g id="line2d_27">
      <path clip-path="url(#p3692762dae)" d="M 47.09225 124.901687 
L 447.48 124.901687 
" style="fill:none;stroke:#b0b0b0;stroke-linecap:square;stroke-width:0.8;"/>
     </g>
     <g id="line2d_28">
      <g>
       <use style="stroke:#000000;stroke-width:0.8;" x="47.09225" xlink:href="#mef9657c1bb" y="124.901687"/>
      </g>
     </g>
     <g id="text_15">
      <!-- 1250 -->
      <g transform="translate(14.64225 128.700906)scale(0.1 -0.1)">
       <use xlink:href="#DejaVuSans-31"/>
       <use x="63.623047" xlink:href="#DejaVuSans-32"/>
       <use x="127.246094" xlink:href="#DejaVuSans-35"/>
       <use x="190.869141" xlink:href="#DejaVuSans-30"/>
      </g>
     </g>
    </g>
    <g id="ytick_7">
     <g id="line2d_29">
      <path clip-path="url(#p3692762dae)" d="M 47.09225 87.909324 
L 447.48 87.909324 
" style="fill:none;stroke:#b0b0b0;stroke-linecap:square;stroke-width:0.8;"/>
     </g>
     <g id="line2d_30">
      <g>
       <use style="stroke:#000000;stroke-width:0.8;" x="47.09225" xlink:href="#mef9657c1bb" y="87.909324"/>
      </g>
     </g>
     <g id="text_16">
      <!-- 1500 -->
      <g transform="translate(14.64225 91.708543)scale(0.1 -0.1)">
       <use xlink:href="#DejaVuSans-31"/>
       <use x="63.623047" xlink:href="#DejaVuSans-35"/>
       <use x="127.246094" xlink:href="#DejaVuSans-30"/>
       <use x="190.869141" xlink:href="#DejaVuSans-30"/>
      </g>
     </g>
    </g>
    <g id="ytick_8">
     <g id="line2d_31">
      <path clip-path="url(#p3692762dae)" d="M 47.09225 50.916962 
L 447.48 50.916962 
" style="fill:none;stroke:#b0b0b0;stroke-linecap:square;stroke-width:0.8;"/>
     </g>
     <g id="line2d_32">
      <g>
       <use style="stroke:#000000;stroke-width:0.8;" x="47.09225" xlink:href="#mef9657c1bb" y="50.916962"/>
      </g>
     </g>
     <g id="text_17">
      <!-- 1750 -->
      <g transform="translate(14.64225 54.71618)scale(0.1 -0.1)">
       <use xlink:href="#DejaVuSans-31"/>
       <use x="63.623047" xlink:href="#DejaVuSans-37"/>
       <use x="127.246094" xlink:href="#DejaVuSans-35"/>
       <use x="190.869141" xlink:href="#DejaVuSans-30"/>
      </g>
     </g>
    </g>
    <g id="text_18">
     <!-- Gross load (MW) -->
     <defs>
      <path d="M 59.515625 10.40625 
L 59.515625 29.984375 
L 43.40625 29.984375 
L 43.40625 38.09375 
L 69.28125 38.09375 
L 69.28125 6.78125 
Q 63.578125 2.734375 56.6875 0.65625 
Q 49.8125 -1.421875 42 -1.421875 
Q 24.90625 -1.421875 15.25 8.5625 
Q 5.609375 18.5625 5.609375 36.375 
Q 5.609375 54.25 15.25 64.234375 
Q 24.90625 74.21875 42 74.21875 
Q 49.125 74.21875 55.546875 72.453125 
Q 61.96875 70.703125 67.390625 67.28125 
L 67.390625 56.78125 
Q 61.921875 61.421875 55.765625 63.765625 
Q 49.609375 66.109375 42.828125 66.109375 
Q 29.4375 66.109375 22.71875 58.640625 
Q 16.015625 51.171875 16.015625 36.375 
Q 16.015625 21.625 22.71875 14.15625 
Q 29.4375 6.6875 42.828125 6.6875 
Q 48.046875 6.6875 52.140625 7.59375 
Q 56.25 8.5 59.515625 10.40625 
z
" id="DejaVuSans-47"/>
      <path d="M 41.109375 46.296875 
Q 39.59375 47.171875 37.8125 47.578125 
Q 36.03125 48 33.890625 48 
Q 26.265625 48 22.1875 43.046875 
Q 18.109375 38.09375 18.109375 28.8125 
L 18.109375 0 
L 9.078125 0 
L 9.078125 54.6875 
L 18.109375 54.6875 
L 18.109375 46.1875 
Q 20.953125 51.171875 25.484375 53.578125 
Q 30.03125 56 36.53125 56 
Q 37.453125 56 38.578125 55.875 
Q 39.703125 55.765625 41.0625 55.515625 
z
" id="DejaVuSans-72"/>
      <path d="M 30.609375 48.390625 
Q 23.390625 48.390625 19.1875 42.75 
Q 14.984375 37.109375 14.984375 27.296875 
Q 14.984375 17.484375 19.15625 11.84375 
Q 23.34375 6.203125 30.609375 6.203125 
Q 37.796875 6.203125 41.984375 11.859375 
Q 46.1875 17.53125 46.1875 27.296875 
Q 46.1875 37.015625 41.984375 42.703125 
Q 37.796875 48.390625 30.609375 48.390625 
z
M 30.609375 56 
Q 42.328125 56 49.015625 48.375 
Q 55.71875 40.765625 55.71875 27.296875 
Q 55.71875 13.875 49.015625 6.21875 
Q 42.328125 -1.421875 30.609375 -1.421875 
Q 18.84375 -1.421875 12.171875 6.21875 
Q 5.515625 13.875 5.515625 27.296875 
Q 5.515625 40.765625 12.171875 48.375 
Q 18.84375 56 30.609375 56 
z
" id="DejaVuSans-6f"/>
      <path d="M 44.28125 53.078125 
L 44.28125 44.578125 
Q 40.484375 46.53125 36.375 47.5 
Q 32.28125 48.484375 27.875 48.484375 
Q 21.1875 48.484375 17.84375 46.4375 
Q 14.5 44.390625 14.5 40.28125 
Q 14.5 37.15625 16.890625 35.375 
Q 19.28125 33.59375 26.515625 31.984375 
L 29.59375 31.296875 
Q 39.15625 29.25 43.1875 25.515625 
Q 47.21875 21.78125 47.21875 15.09375 
Q 47.21875 7.46875 41.1875 3.015625 
Q 35.15625 -1.421875 24.609375 -1.421875 
Q 20.21875 -1.421875 15.453125 -0.5625 
Q 10.6875 0.296875 5.421875 2 
L 5.421875 11.28125 
Q 10.40625 8.6875 15.234375 7.390625 
Q 20.0625 6.109375 24.8125 6.109375 
Q 31.15625 6.109375 34.5625 8.28125 
Q 37.984375 10.453125 37.984375 14.40625 
Q 37.984375 18.0625 35.515625 20.015625 
Q 33.0625 21.96875 24.703125 23.78125 
L 21.578125 24.515625 
Q 13.234375 26.265625 9.515625 29.90625 
Q 5.8125 33.546875 5.8125 39.890625 
Q 5.8125 47.609375 11.28125 51.796875 
Q 16.75 56 26.8125 56 
Q 31.78125 56 36.171875 55.265625 
Q 40.578125 54.546875 44.28125 53.078125 
z
" id="DejaVuSans-73"/>
      <path id="DejaVuSans-20"/>
      <path d="M 9.421875 75.984375 
L 18.40625 75.984375 
L 18.40625 0 
L 9.421875 0 
z
" id="DejaVuSans-6c"/>
      <path d="M 45.40625 46.390625 
L 45.40625 75.984375 
L 54.390625 75.984375 
L 54.390625 0 
L 45.40625 0 
L 45.40625 8.203125 
Q 42.578125 3.328125 38.25 0.953125 
Q 33.9375 -1.421875 27.875 -1.421875 
Q 17.96875 -1.421875 11.734375 6.484375 
Q 5.515625 14.40625 5.515625 27.296875 
Q 5.515625 40.1875 11.734375 48.09375 
Q 17.96875 56 27.875 56 
Q 33.9375 56 38.25 53.625 
Q 42.578125 51.265625 45.40625 46.390625 
z
M 14.796875 27.296875 
Q 14.796875 17.390625 18.875 11.75 
Q 22.953125 6.109375 30.078125 6.109375 
Q 37.203125 6.109375 41.296875 11.75 
Q 45.40625 17.390625 45.40625 27.296875 
Q 45.40625 37.203125 41.296875 42.84375 
Q 37.203125 48.484375 30.078125 48.484375 
Q 22.953125 48.484375 18.875 42.84375 
Q 14.796875 37.203125 14.796875 27.296875 
z
" id="DejaVuSans-64"/>
      <path d="M 31 75.875 
Q 24.46875 64.65625 21.28125 53.65625 
Q 18.109375 42.671875 18.109375 31.390625 
Q 18.109375 20.125 21.3125 9.0625 
Q 24.515625 -2 31 -13.1875 
L 23.1875 -13.1875 
Q 15.875 -1.703125 12.234375 9.375 
Q 8.59375 20.453125 8.59375 31.390625 
Q 8.59375 42.28125 12.203125 53.3125 
Q 15.828125 64.359375 23.1875 75.875 
z
" id="DejaVuSans-28"/>
      <path d="M 9.8125 72.90625 
L 24.515625 72.90625 
L 43.109375 23.296875 
L 61.8125 72.90625 
L 76.515625 72.90625 
L 76.515625 0 
L 66.890625 0 
L 66.890625 64.015625 
L 48.09375 14.015625 
L 38.1875 14.015625 
L 19.390625 64.015625 
L 19.390625 0 
L 9.8125 0 
z
" id="DejaVuSans-4d"/>
      <path d="M 3.328125 72.90625 
L 13.28125 72.90625 
L 28.609375 11.28125 
L 43.890625 72.90625 
L 54.984375 72.90625 
L 70.3125 11.28125 
L 85.59375 72.90625 
L 95.609375 72.90625 
L 77.296875 0 
L 64.890625 0 
L 49.515625 63.28125 
L 33.984375 0 
L 21.578125 0 
z
" id="DejaVuSans-57"/>
      <path d="M 8.015625 75.875 
L 15.828125 75.875 
Q 23.140625 64.359375 26.78125 53.3125 
Q 30.421875 42.28125 30.421875 31.390625 
Q 30.421875 20.453125 26.78125 9.375 
Q 23.140625 -1.703125 15.828125 -13.1875 
L 8.015625 -13.1875 
Q 14.5 -2 17.703125 9.0625 
Q 20.90625 20.125 20.90625 31.390625 
Q 20.90625 42.671875 17.703125 53.65625 
Q 14.5 64.65625 8.015625 75.875 
z
" id="DejaVuSans-29"/>
     </defs>
     <g transform="translate(8.562563 207.835369)rotate(-90)scale(0.1 -0.1)">
      <use xlink:href="#DejaVuSans-47"/>
      <use x="77.490234" xlink:href="#DejaVuSans-72"/>
      <use x="118.572266" xlink:href="#DejaVuSans-6f"/>
      <use x="179.753906" xlink:href="#DejaVuSans-73"/>
      <use x="231.853516" xlink:href="#DejaVuSans-73"/>
      <use x="283.953125" xlink:href="#DejaVuSans-20"/>
      <use x="315.740234" xlink:href="#DejaVuSans-6c"/>
      <use x="343.523438" xlink:href="#DejaVuSans-6f"/>
      <use x="404.705078" xlink:href="#DejaVuSans-61"/>
      <use x="465.984375" xlink:href="#DejaVuSans-64"/>
      <use x="529.460938" xlink:href="#DejaVuSans-20"/>
      <use x="561.248047" xlink:href="#DejaVuSans-28"/>
      <use x="600.261719" xlink:href="#DejaVuSans-4d"/>
      <use x="686.541016" xlink:href="#DejaVuSans-57"/>
      <use x="785.417969" xlink:href="#DejaVuSans-29"/>
     </g>
    </g>
   </g>
   <g id="line2d_33">
    <path clip-path="url(#p3692762dae)" d="M 47.09225 53.210488 
L 48.880836 50.029145 
L 50.861056 50.177114 
L 52.777398 135.851426 
L 54.757619 136.739243 
L 56.673961 135.925411 
L 58.654181 49.437267 
L 60.634401 50.177114 
L 62.550743 72.446517 
L 64.530963 79.031157 
L 66.447306 50.399069 
L 68.427526 88.205263 
L 70.407746 65.491953 
L 72.196332 49.881176 
L 74.176552 49.585237 
L 76.092894 135.851426 
L 78.073115 135.999396 
L 79.989457 136.369319 
L 81.969677 54.02432 
L 83.949897 64.382182 
L 85.866239 49.437267 
L 87.846459 95.67772 
L 89.762802 49.141328 
L 91.743022 49.141328 
L 93.723242 49.437267 
L 95.511828 49.437267 
L 97.492048 53.728381 
L 99.40839 135.999396 
L 101.38861 136.147365 
L 103.304953 64.234212 
L 105.285173 49.289298 
L 107.265393 49.141328 
L 109.181735 51.212901 
L 111.161955 50.10313 
L 113.078298 49.585237 
L 115.058518 56.021908 
L 117.038738 49.585237 
L 118.891202 49.141328 
L 120.871422 49.437267 
L 122.787764 52.544626 
L 124.767985 136.591273 
L 126.684327 63.864289 
L 128.664547 49.881176 
L 130.644767 49.585237 
L 132.561109 49.585237 
L 134.541329 135.851426 
L 136.457672 50.029145 
L 138.437892 49.733206 
L 140.418112 49.585237 
L 144.186918 48.993359 
L 146.10326 135.259548 
L 148.08348 139.550663 
L 149.999823 52.692595 
L 151.980043 50.399069 
L 153.960263 49.437267 
L 155.876605 61.126854 
L 157.856825 53.136503 
L 159.773168 50.621023 
L 161.753388 50.177114 
L 163.733608 48.993359 
L 165.522194 50.325084 
L 167.502414 49.437267 
L 169.418756 134.371732 
L 171.398976 136.295335 
L 173.315319 88.427217 
L 175.295539 48.105542 
L 177.275759 48.69742 
L 179.192101 50.916962 
L 181.172321 63.716319 
L 183.088663 49.141328 
L 185.068884 53.950335 
L 187.049104 92.940286 
L 188.83769 92.052469 
L 190.81791 74.592074 
L 192.734252 159.970447 
L 194.714472 134.96361 
L 196.630815 51.656809 
L 198.611035 50.177114 
L 200.591255 47.365695 
L 202.507597 47.217725 
L 204.487817 70.596899 
L 206.404159 67.859464 
L 208.38438 45.886 
L 210.3646 47.069756 
L 212.217064 47.365695 
L 214.197284 49.585237 
L 216.113626 133.40993 
L 218.093846 134.075793 
L 220.010189 58.389419 
L 221.990409 50.621023 
L 223.970629 53.284473 
L 225.886971 54.468228 
L 227.867191 91.534576 
L 229.783534 83.76618 
L 231.763754 47.957573 
L 233.743974 45.146153 
L 235.53256 45.442092 
L 237.51278 59.49919 
L 239.429122 139.402693 
L 241.409342 134.667671 
L 243.325685 136.07338 
L 245.305905 60.9049 
L 247.286125 137.996983 
L 249.202467 133.631884 
L 251.182687 42.334734 
L 253.099029 41.890825 
L 255.07925 42.186764 
L 258.848056 42.186764 
L 260.828276 54.246274 
L 262.744618 128.748893 
L 264.724838 134.96361 
L 266.641181 121.424405 
L 268.621401 59.869113 
L 270.601621 51.212901 
L 272.517963 134.81564 
L 274.498183 51.286885 
L 276.414525 44.258336 
L 278.394746 39.375345 
L 280.374966 44.110367 
L 282.163552 51.064931 
L 284.143772 51.212901 
L 286.060114 132.004221 
L 288.040334 140.438479 
L 289.956677 86.873538 
L 291.936897 118.539001 
L 293.917117 91.312622 
L 295.833459 55.725969 
L 297.813679 86.873538 
L 299.730021 49.881176 
L 301.710242 49.511252 
L 303.690462 53.802366 
L 305.542926 82.434455 
L 307.523146 136.887212 
L 309.439488 154.569562 
L 311.419708 151.240249 
L 313.336051 135.407518 
L 315.316271 132.448129 
L 317.296491 55.504015 
L 319.212833 142.510052 
L 321.193053 83.544226 
L 323.109395 45.738031 
L 325.089616 84.949935 
L 327.069836 52.396656 
L 328.858422 43.074581 
L 330.838642 137.183151 
L 332.754984 153.75573 
L 334.735204 221.525738 
L 336.651547 81.324684 
L 338.631767 45.220138 
L 340.611987 54.616198 
L 342.528329 67.48954 
L 344.508549 68.155403 
L 346.424891 91.75653 
L 348.405112 61.644747 
L 350.385332 95.973659 
L 352.173918 55.504015 
L 354.154138 130.672495 
L 356.07048 139.402693 
L 358.0507 142.80599 
L 359.967043 149.612585 
L 361.947263 137.183151 
L 363.927483 81.990546 
L 365.843825 143.545838 
L 367.824045 149.908524 
L 369.740387 142.140128 
L 371.720608 70.892837 
L 373.700828 65.565937 
L 375.489414 63.716319 
L 377.469634 133.040007 
L 379.385976 136.813228 
L 381.366196 196.444916 
L 383.282538 141.400281 
L 385.262759 91.164652 
L 387.242979 54.838152 
L 389.159321 134.593686 
L 391.139541 95.159827 
L 393.055883 87.539401 
L 395.036104 145.173502 
L 397.016324 75.553875 
L 398.868788 108.329108 
L 400.849008 98.341171 
L 404.74557 174.841376 
L 406.661913 119.648771 
L 408.642133 73.852227 
L 410.622353 70.818853 
L 412.538695 140.660433 
L 414.518915 173.287697 
L 416.435257 171.438079 
L 418.415478 96.935461 
L 420.395698 95.899675 
L 422.184284 114.987734 
L 424.164504 132.744068 
L 426.080846 167.516889 
L 428.061066 179.872338 
L 429.977409 127.861076 
L 431.957629 50.547038 
L 433.937849 60.534976 
L 435.854191 133.705869 
L 437.834411 151.240249 
L 439.750753 136.22135 
L 441.730974 110.474665 
L 443.711194 91.904499 
L 445.49978 111.140528 
L 447.48 114.913749 
L 447.48 114.913749 
" style="fill:none;stroke:#1f77b4;stroke-linecap:square;stroke-width:1.5;"/>
   </g>
   <g id="patch_3">
    <path d="M 47.09225 309.8635 
L 47.09225 23.36505 
" style="fill:none;stroke:#000000;stroke-linecap:square;stroke-linejoin:miter;stroke-width:0.8;"/>
   </g>
   <g id="patch_4">
    <path d="M 447.48 309.8635 
L 447.48 23.36505 
" style="fill:none;stroke:#000000;stroke-linecap:square;stroke-linejoin:miter;stroke-width:0.8;"/>
   </g>
   <g id="patch_5">
    <path d="M 47.09225 309.8635 
L 447.48 309.8635 
" style="fill:none;stroke:#000000;stroke-linecap:square;stroke-linejoin:miter;stroke-width:0.8;"/>
   </g>
   <g id="patch_6">
    <path d="M 47.09225 23.36505 
L 447.48 23.36505 
" style="fill:none;stroke:#000000;stroke-linecap:square;stroke-linejoin:miter;stroke-width:0.8;"/>
   </g>
   <g id="text_19">
    <!-- Monthly gload trend -->
    <defs>
     <path d="M 54.890625 33.015625 
L 54.890625 0 
L 45.90625 0 
L 45.90625 32.71875 
Q 45.90625 40.484375 42.875 44.328125 
Q 39.84375 48.1875 33.796875 48.1875 
Q 26.515625 48.1875 22.3125 43.546875 
Q 18.109375 38.921875 18.109375 30.90625 
L 18.109375 0 
L 9.078125 0 
L 9.078125 54.6875 
L 18.109375 54.6875 
L 18.109375 46.1875 
Q 21.34375 51.125 25.703125 53.5625 
Q 30.078125 56 35.796875 56 
Q 45.21875 56 50.046875 50.171875 
Q 54.890625 44.34375 54.890625 33.015625 
z
" id="DejaVuSans-6e"/>
     <path d="M 54.890625 33.015625 
L 54.890625 0 
L 45.90625 0 
L 45.90625 32.71875 
Q 45.90625 40.484375 42.875 44.328125 
Q 39.84375 48.1875 33.796875 48.1875 
Q 26.515625 48.1875 22.3125 43.546875 
Q 18.109375 38.921875 18.109375 30.90625 
L 18.109375 0 
L 9.078125 0 
L 9.078125 75.984375 
L 18.109375 75.984375 
L 18.109375 46.1875 
Q 21.34375 51.125 25.703125 53.5625 
Q 30.078125 56 35.796875 56 
Q 45.21875 56 50.046875 50.171875 
Q 54.890625 44.34375 54.890625 33.015625 
z
" id="DejaVuSans-68"/>
     <path d="M 32.171875 -5.078125 
Q 28.375 -14.84375 24.75 -17.8125 
Q 21.140625 -20.796875 15.09375 -20.796875 
L 7.90625 -20.796875 
L 7.90625 -13.28125 
L 13.1875 -13.28125 
Q 16.890625 -13.28125 18.9375 -11.515625 
Q 21 -9.765625 23.484375 -3.21875 
L 25.09375 0.875 
L 2.984375 54.6875 
L 12.5 54.6875 
L 29.59375 11.921875 
L 46.6875 54.6875 
L 56.203125 54.6875 
z
" id="DejaVuSans-79"/>
     <path d="M 45.40625 27.984375 
Q 45.40625 37.75 41.375 43.109375 
Q 37.359375 48.484375 30.078125 48.484375 
Q 22.859375 48.484375 18.828125 43.109375 
Q 14.796875 37.75 14.796875 27.984375 
Q 14.796875 18.265625 18.828125 12.890625 
Q 22.859375 7.515625 30.078125 7.515625 
Q 37.359375 7.515625 41.375 12.890625 
Q 45.40625 18.265625 45.40625 27.984375 
z
M 54.390625 6.78125 
Q 54.390625 -7.171875 48.1875 -13.984375 
Q 42 -20.796875 29.203125 -20.796875 
Q 24.46875 -20.796875 20.265625 -20.09375 
Q 16.0625 -19.390625 12.109375 -17.921875 
L 12.109375 -9.1875 
Q 16.0625 -11.328125 19.921875 -12.34375 
Q 23.78125 -13.375 27.78125 -13.375 
Q 36.625 -13.375 41.015625 -8.765625 
Q 45.40625 -4.15625 45.40625 5.171875 
L 45.40625 9.625 
Q 42.625 4.78125 38.28125 2.390625 
Q 33.9375 0 27.875 0 
Q 17.828125 0 11.671875 7.65625 
Q 5.515625 15.328125 5.515625 27.984375 
Q 5.515625 40.671875 11.671875 48.328125 
Q 17.828125 56 27.875 56 
Q 33.9375 56 38.28125 53.609375 
Q 42.625 51.21875 45.40625 46.390625 
L 45.40625 54.6875 
L 54.390625 54.6875 
z
" id="DejaVuSans-67"/>
    </defs>
    <g transform="translate(186.6955 17.36505)scale(0.12 -0.12)">
     <use xlink:href="#DejaVuSans-4d"/>
     <use x="86.279297" xlink:href="#DejaVuSans-6f"/>
     <use x="147.460938" xlink:href="#DejaVuSans-6e"/>
     <use x="210.839844" xlink:href="#DejaVuSans-74"/>
     <use x="250.048828" xlink:href="#DejaVuSans-68"/>
     <use x="313.427734" xlink:href="#DejaVuSans-6c"/>
     <use x="341.210938" xlink:href="#DejaVuSans-79"/>
     <use x="400.390625" xlink:href="#DejaVuSans-20"/>
     <use x="432.177734" xlink:href="#DejaVuSans-67"/>
     <use x="495.654297" xlink:href="#DejaVuSans-6c"/>
     <use x="523.4375" xlink:href="#DejaVuSans-6f"/>
     <use x="584.619141" xlink:href="#DejaVuSans-61"/>
     <use x="645.898438" xlink:href="#DejaVuSans-64"/>
     <use x="709.375" xlink:href="#DejaVuSans-20"/>
     <use x="741.162109" xlink:href="#DejaVuSans-74"/>
     <use x="780.371094" xlink:href="#DejaVuSans-72"/>
     <use x="821.453125" xlink:href="#DejaVuSans-65"/>
     <use x="882.976562" xlink:href="#DejaVuSans-6e"/>
     <use x="946.355469" xlink:href="#DejaVuSans-64"/>
    </g>
   </g>
  </g>
 </g>
 <defs>
  <clipPath id="p3692762dae">
   <rect height="286.49845" width="400.38775" x="47.09225" y="23.36505"/>
  </clipPath>
 </defs>
</svg>
