<?xml version="1.0" encoding="utf-8" standalone="no"?>
<!DOCTYPE svg PUBLIC "-//W3C//DTD SVG 1.1//EN"
  "http://www.w3.org/Graphics/SVG/1.1/DTD/svg11.dtd">
<!-- Created with matplotlib (http://matplotlib.org/) -->
<svg height="345.6pt" version="1.1" viewBox="0 0 460.8 345.6" width="460.8pt" xmlns="http://www.w3.org/2000/svg" xmlns:xlink="http://www.w3.org/1999/xlink">
 <defs>
  <style type="text/css">
*{stroke-linecap:butt;stroke-linejoin:round;}
  </style>
 </defs>
 <g id="figure_1">
  <g id="patch_1">
   <path d="M 0 345.6 
L 460.8 345.6 
L 460.8 0 
L 0 0 
z
" style="fill:none;"/>
  </g>
  <g id="axes_1">
   <g id="patch_2">
    <path d="M 31.543 108.304533 
L 446.819624 108.304533 
L 446.819624 23.36505 
L 31.543 23.36505 
z
" style="fill:none;"/>
   </g>
   <g id="matplotlib.axis_1">
    <g id="xtick_1">
     <g id="line2d_1">
      <path clip-path="url(#pd52f2faddc)" d="M 48.076104 108.304533 
L 48.076104 23.36505 
" style="fill:none;stroke:#b0b0b0;stroke-linecap:square;stroke-width:0.8;"/>
     </g>
     <g id="line2d_2">
      <defs>
       <path d="M 0 0 
L 0 3.5 
" id="m057a98083a" style="stroke:#000000;stroke-width:0.8;"/>
      </defs>
      <g>
       <use style="stroke:#000000;stroke-width:0.8;" x="48.076104" xlink:href="#m057a98083a" y="108.304533"/>
      </g>
     </g>
    </g>
    <g id="xtick_2">
     <g id="line2d_3">
      <path clip-path="url(#pd52f2faddc)" d="M 97.137754 108.304533 
L 97.137754 23.36505 
" style="fill:none;stroke:#b0b0b0;stroke-linecap:square;stroke-width:0.8;"/>
     </g>
     <g id="line2d_4">
      <g>
       <use style="stroke:#000000;stroke-width:0.8;" x="97.137754" xlink:href="#m057a98083a" y="108.304533"/>
      </g>
     </g>
    </g>
    <g id="xtick_3">
     <g id="line2d_5">
      <path clip-path="url(#pd52f2faddc)" d="M 146.266612 108.304533 
L 146.266612 23.36505 
" style="fill:none;stroke:#b0b0b0;stroke-linecap:square;stroke-width:0.8;"/>
     </g>
     <g id="line2d_6">
      <g>
       <use style="stroke:#000000;stroke-width:0.8;" x="146.266612" xlink:href="#m057a98083a" y="108.304533"/>
      </g>
     </g>
    </g>
    <g id="xtick_4">
     <g id="line2d_7">
      <path clip-path="url(#pd52f2faddc)" d="M 195.328262 108.304533 
L 195.328262 23.36505 
" style="fill:none;stroke:#b0b0b0;stroke-linecap:square;stroke-width:0.8;"/>
     </g>
     <g id="line2d_8">
      <g>
       <use style="stroke:#000000;stroke-width:0.8;" x="195.328262" xlink:href="#m057a98083a" y="108.304533"/>
      </g>
     </g>
    </g>
    <g id="xtick_5">
     <g id="line2d_9">
      <path clip-path="url(#pd52f2faddc)" d="M 244.45712 108.304533 
L 244.45712 23.36505 
" style="fill:none;stroke:#b0b0b0;stroke-linecap:square;stroke-width:0.8;"/>
     </g>
     <g id="line2d_10">
      <g>
       <use style="stroke:#000000;stroke-width:0.8;" x="244.45712" xlink:href="#m057a98083a" y="108.304533"/>
      </g>
     </g>
    </g>
    <g id="xtick_6">
     <g id="line2d_11">
      <path clip-path="url(#pd52f2faddc)" d="M 293.51877 108.304533 
L 293.51877 23.36505 
" style="fill:none;stroke:#b0b0b0;stroke-linecap:square;stroke-width:0.8;"/>
     </g>
     <g id="line2d_12">
      <g>
       <use style="stroke:#000000;stroke-width:0.8;" x="293.51877" xlink:href="#m057a98083a" y="108.304533"/>
      </g>
     </g>
    </g>
    <g id="xtick_7">
     <g id="line2d_13">
      <path clip-path="url(#pd52f2faddc)" d="M 342.647627 108.304533 
L 342.647627 23.36505 
" style="fill:none;stroke:#b0b0b0;stroke-linecap:square;stroke-width:0.8;"/>
     </g>
     <g id="line2d_14">
      <g>
       <use style="stroke:#000000;stroke-width:0.8;" x="342.647627" xlink:href="#m057a98083a" y="108.304533"/>
      </g>
     </g>
    </g>
    <g id="xtick_8">
     <g id="line2d_15">
      <path clip-path="url(#pd52f2faddc)" d="M 391.709277 108.304533 
L 391.709277 23.36505 
" style="fill:none;stroke:#b0b0b0;stroke-linecap:square;stroke-width:0.8;"/>
     </g>
     <g id="line2d_16">
      <g>
       <use style="stroke:#000000;stroke-width:0.8;" x="391.709277" xlink:href="#m057a98083a" y="108.304533"/>
      </g>
     </g>
    </g>
    <g id="xtick_9">
     <g id="line2d_17">
      <path clip-path="url(#pd52f2faddc)" d="M 440.838135 108.304533 
L 440.838135 23.36505 
" style="fill:none;stroke:#b0b0b0;stroke-linecap:square;stroke-width:0.8;"/>
     </g>
     <g id="line2d_18">
      <g>
       <use style="stroke:#000000;stroke-width:0.8;" x="440.838135" xlink:href="#m057a98083a" y="108.304533"/>
      </g>
     </g>
    </g>
   </g>
   <g id="matplotlib.axis_2">
    <g id="ytick_1">
     <g id="line2d_19">
      <path clip-path="url(#pd52f2faddc)" d="M 31.543 104.443648 
L 446.819624 104.443648 
" style="fill:none;stroke:#b0b0b0;stroke-linecap:square;stroke-width:0.8;"/>
     </g>
     <g id="line2d_20">
      <defs>
       <path d="M 0 0 
L -3.5 0 
" id="mb85f1b4b11" style="stroke:#000000;stroke-width:0.8;"/>
      </defs>
      <g>
       <use style="stroke:#000000;stroke-width:0.8;" x="31.543" xlink:href="#mb85f1b4b11" y="104.443648"/>
      </g>
     </g>
     <g id="text_1">
      <!-- 0 -->
      <defs>
       <path d="M 31.78125 66.40625 
Q 24.171875 66.40625 20.328125 58.90625 
Q 16.5 51.421875 16.5 36.375 
Q 16.5 21.390625 20.328125 13.890625 
Q 24.171875 6.390625 31.78125 6.390625 
Q 39.453125 6.390625 43.28125 13.890625 
Q 47.125 21.390625 47.125 36.375 
Q 47.125 51.421875 43.28125 58.90625 
Q 39.453125 66.40625 31.78125 66.40625 
z
M 31.78125 74.21875 
Q 44.046875 74.21875 50.515625 64.515625 
Q 56.984375 54.828125 56.984375 36.375 
Q 56.984375 17.96875 50.515625 8.265625 
Q 44.046875 -1.421875 31.78125 -1.421875 
Q 19.53125 -1.421875 13.0625 8.265625 
Q 6.59375 17.96875 6.59375 36.375 
Q 6.59375 54.828125 13.0625 64.515625 
Q 19.53125 74.21875 31.78125 74.21875 
z
" id="DejaVuSans-30"/>
      </defs>
      <g transform="translate(18.1805 108.242866)scale(0.1 -0.1)">
       <use xlink:href="#DejaVuSans-30"/>
      </g>
     </g>
    </g>
    <g id="ytick_2">
     <g id="line2d_21">
      <path clip-path="url(#pd52f2faddc)" d="M 31.543 65.041263 
L 446.819624 65.041263 
" style="fill:none;stroke:#b0b0b0;stroke-linecap:square;stroke-width:0.8;"/>
     </g>
     <g id="line2d_22">
      <g>
       <use style="stroke:#000000;stroke-width:0.8;" x="31.543" xlink:href="#mb85f1b4b11" y="65.041263"/>
      </g>
     </g>
     <g id="text_2">
      <!-- 1 -->
      <defs>
       <path d="M 12.40625 8.296875 
L 28.515625 8.296875 
L 28.515625 63.921875 
L 10.984375 60.40625 
L 10.984375 69.390625 
L 28.421875 72.90625 
L 38.28125 72.90625 
L 38.28125 8.296875 
L 54.390625 8.296875 
L 54.390625 0 
L 12.40625 0 
z
" id="DejaVuSans-31"/>
      </defs>
      <g transform="translate(18.1805 68.840481)scale(0.1 -0.1)">
       <use xlink:href="#DejaVuSans-31"/>
      </g>
     </g>
    </g>
    <g id="ytick_3">
     <g id="line2d_23">
      <path clip-path="url(#pd52f2faddc)" d="M 31.543 25.638877 
L 446.819624 25.638877 
" style="fill:none;stroke:#b0b0b0;stroke-linecap:square;stroke-width:0.8;"/>
     </g>
     <g id="line2d_24">
      <g>
       <use style="stroke:#000000;stroke-width:0.8;" x="31.543" xlink:href="#mb85f1b4b11" y="25.638877"/>
      </g>
     </g>
     <g id="text_3">
      <!-- 2 -->
      <defs>
       <path d="M 19.1875 8.296875 
L 53.609375 8.296875 
L 53.609375 0 
L 7.328125 0 
L 7.328125 8.296875 
Q 12.9375 14.109375 22.625 23.890625 
Q 32.328125 33.6875 34.8125 36.53125 
Q 39.546875 41.84375 41.421875 45.53125 
Q 43.3125 49.21875 43.3125 52.78125 
Q 43.3125 58.59375 39.234375 62.25 
Q 35.15625 65.921875 28.609375 65.921875 
Q 23.96875 65.921875 18.8125 64.3125 
Q 13.671875 62.703125 7.8125 59.421875 
L 7.8125 69.390625 
Q 13.765625 71.78125 18.9375 73 
Q 24.125 74.21875 28.421875 74.21875 
Q 39.75 74.21875 46.484375 68.546875 
Q 53.21875 62.890625 53.21875 53.421875 
Q 53.21875 48.921875 51.53125 44.890625 
Q 49.859375 40.875 45.40625 35.40625 
Q 44.1875 33.984375 37.640625 27.21875 
Q 31.109375 20.453125 19.1875 8.296875 
z
" id="DejaVuSans-32"/>
      </defs>
      <g transform="translate(18.1805 29.438096)scale(0.1 -0.1)">
       <use xlink:href="#DejaVuSans-32"/>
      </g>
     </g>
    </g>
   </g>
   <g id="line2d_25">
    <path clip-path="url(#pd52f2faddc)" d="M 31.543 104.443648 
L 33.62644 104.443648 
L 35.642672 93.814854 
L 37.726112 84.040203 
L 39.809552 84.850123 
L 41.825784 86.409012 
L 43.909224 92.606832 
L 45.925456 93.897709 
L 48.008896 89.1417 
L 50.092336 99.371597 
L 51.974153 100.465707 
L 54.057593 90.227119 
L 58.157265 94.31358 
L 60.173497 90.415414 
L 62.256937 89.944311 
L 64.340377 90.464751 
L 66.356609 93.517914 
L 68.440049 96.047285 
L 72.539721 96.922559 
L 74.623161 100.631626 
L 78.588418 90.951508 
L 80.60465 89.478348 
L 82.68809 97.25875 
L 84.704322 94.223818 
L 86.787762 58.432836 
L 88.871202 28.351816 
L 90.887434 33.964054 
L 92.970874 50.182168 
L 94.987106 101.072117 
L 97.070546 104.443648 
L 99.153986 104.443648 
L 101.103011 103.239441 
L 103.186451 104.443648 
L 105.202683 104.443648 
L 107.286123 103.923632 
L 109.302355 49.522852 
L 111.385795 28.890263 
L 115.485467 60.670006 
L 117.568907 104.433744 
L 119.585139 104.443648 
L 121.668579 104.266284 
L 123.752019 52.186234 
L 125.633836 41.766238 
L 127.717276 104.443648 
L 129.733508 81.567006 
L 131.816948 53.730289 
L 133.83318 50.360919 
L 135.91662 45.861834 
L 138.00006 40.681585 
L 140.016292 74.208392 
L 142.099732 54.900709 
L 144.115964 84.250363 
L 146.199404 68.169886 
L 150.164661 103.518454 
L 152.248101 99.558017 
L 154.264333 92.57253 
L 156.347773 66.004767 
L 158.364005 35.891816 
L 160.447445 32.460309 
L 162.530885 34.191631 
L 164.547117 55.80994 
L 166.630557 46.959646 
L 168.646789 77.180262 
L 170.730229 75.529606 
L 172.813669 82.692684 
L 174.695486 73.697591 
L 176.778926 97.584349 
L 178.795158 84.119131 
L 180.878598 93.99386 
L 182.89483 46.48564 
L 184.97827 31.191648 
L 187.06171 35.210321 
L 189.077942 64.739232 
L 191.161382 74.890906 
L 193.177614 70.939143 
L 195.261054 75.515147 
L 197.344494 55.511499 
L 199.293518 74.183409 
L 201.376958 92.198562 
L 203.393191 83.788534 
L 205.47663 86.608825 
L 207.492863 60.60729 
L 209.576303 50.134504 
L 211.659743 45.082419 
L 213.675975 60.188421 
L 215.759415 67.871932 
L 217.775647 99.825086 
L 219.859087 76.511911 
L 221.942527 90.547104 
L 223.824343 98.121265 
L 225.907783 90.236599 
L 227.924016 98.068068 
L 230.007455 85.278995 
L 232.023688 74.745523 
L 234.107128 40.396501 
L 236.190568 48.679793 
L 238.2068 57.714389 
L 240.29024 70.888121 
L 242.306472 94.445676 
L 246.473352 85.643997 
L 248.355168 88.35563 
L 250.438608 82.00489 
L 252.454841 94.91046 
L 254.53828 96.995008 
L 256.554513 71.747111 
L 258.637953 56.250347 
L 260.721393 50.128254 
L 262.737625 61.632026 
L 264.821065 52.969622 
L 266.837297 73.74213 
L 268.920737 73.159955 
L 271.004177 100.754705 
L 272.885993 100.203787 
L 274.969433 97.20579 
L 276.985666 78.679304 
L 279.069105 91.484553 
L 281.085338 71.653968 
L 283.168778 41.685022 
L 285.252218 35.307979 
L 287.26845 69.538771 
L 289.35189 83.358552 
L 291.368122 67.240025 
L 293.451562 54.717891 
L 295.535002 100.406333 
L 297.484026 74.182616 
L 299.567466 88.629575 
L 301.583698 34.987586 
L 303.667138 35.623781 
L 305.68337 51.170693 
L 307.76681 38.73461 
L 309.85025 30.876217 
L 311.866482 49.958632 
L 313.949922 52.320277 
L 315.966155 77.432984 
L 318.049595 101.198724 
L 320.133034 85.148395 
L 322.014851 100.882305 
L 324.098291 94.643946 
L 326.114523 91.686852 
L 328.197963 82.50065 
L 330.214195 42.256286 
L 332.297635 35.934657 
L 334.381075 34.32043 
L 336.397307 48.137639 
L 338.480747 88.939339 
L 340.49698 95.325717 
L 342.58042 90.553248 
L 344.663859 93.170699 
L 346.545676 86.999238 
L 348.629116 87.524401 
L 350.645348 101.740699 
L 352.728788 97.243497 
L 354.74502 60.592241 
L 356.82846 43.609437 
L 358.9119 39.652569 
L 360.928133 55.220984 
L 363.011572 49.327655 
L 367.111245 94.186741 
L 369.194684 90.645398 
L 371.076501 94.059067 
L 373.159941 99.092232 
L 375.176173 87.066047 
L 377.259613 103.110904 
L 379.275845 72.709678 
L 381.359285 69.995477 
L 383.442725 36.598831 
L 385.458958 40.443995 
L 387.542397 50.8134 
L 389.55863 50.369784 
L 391.64207 45.172716 
L 393.725509 44.737807 
L 395.674534 94.061402 
L 397.757974 65.459966 
L 399.774206 31.42966 
L 401.857646 77.196104 
L 403.873878 49.128281 
L 405.957318 33.921163 
L 408.040758 27.225936 
L 410.05699 39.979321 
L 412.14043 100.62956 
L 414.156662 69.550482 
L 416.240102 45.766029 
L 418.323542 44.704389 
L 420.205359 82.203347 
L 422.288799 85.557724 
L 424.305031 61.180759 
L 426.388471 71.057541 
L 428.404703 42.456417 
L 430.488143 33.290884 
L 432.571583 33.238136 
L 434.587815 55.413399 
L 436.671255 48.291965 
L 438.687487 50.375148 
L 440.770927 57.301872 
L 442.854367 56.852451 
L 444.736184 86.129044 
L 446.819624 95.29255 
L 446.819624 95.29255 
" style="fill:none;stroke:#008000;stroke-linecap:square;stroke-width:1.5;"/>
   </g>
   <g id="patch_3">
    <path d="M 31.543 108.304533 
L 31.543 23.36505 
" style="fill:none;stroke:#000000;stroke-linecap:square;stroke-linejoin:miter;stroke-width:0.8;"/>
   </g>
   <g id="patch_4">
    <path d="M 446.819624 108.304533 
L 446.819624 23.36505 
" style="fill:none;stroke:#000000;stroke-linecap:square;stroke-linejoin:miter;stroke-width:0.8;"/>
   </g>
   <g id="patch_5">
    <path d="M 31.543 108.304533 
L 446.819624 108.304533 
" style="fill:none;stroke:#000000;stroke-linecap:square;stroke-linejoin:miter;stroke-width:0.8;"/>
   </g>
   <g id="patch_6">
    <path d="M 31.543 23.36505 
L 446.819624 23.36505 
" style="fill:none;stroke:#000000;stroke-linecap:square;stroke-linejoin:miter;stroke-width:0.8;"/>
   </g>
   <g id="text_4">
    <!-- Average monthly emissions -->
    <defs>
     <path d="M 34.1875 63.1875 
L 20.796875 26.90625 
L 47.609375 26.90625 
z
M 28.609375 72.90625 
L 39.796875 72.90625 
L 67.578125 0 
L 57.328125 0 
L 50.6875 18.703125 
L 17.828125 18.703125 
L 11.1875 0 
L 0.78125 0 
z
" id="DejaVuSans-41"/>
     <path d="M 2.984375 54.6875 
L 12.5 54.6875 
L 29.59375 8.796875 
L 46.6875 54.6875 
L 56.203125 54.6875 
L 35.6875 0 
L 23.484375 0 
z
" id="DejaVuSans-76"/>
     <path d="M 56.203125 29.59375 
L 56.203125 25.203125 
L 14.890625 25.203125 
Q 15.484375 15.921875 20.484375 11.0625 
Q 25.484375 6.203125 34.421875 6.203125 
Q 39.59375 6.203125 44.453125 7.46875 
Q 49.3125 8.734375 54.109375 11.28125 
L 54.109375 2.78125 
Q 49.265625 0.734375 44.1875 -0.34375 
Q 39.109375 -1.421875 33.890625 -1.421875 
Q 20.796875 -1.421875 13.15625 6.1875 
Q 5.515625 13.8125 5.515625 26.8125 
Q 5.515625 40.234375 12.765625 48.109375 
Q 20.015625 56 32.328125 56 
Q 43.359375 56 49.78125 48.890625 
Q 56.203125 41.796875 56.203125 29.59375 
z
M 47.21875 32.234375 
Q 47.125 39.59375 43.09375 43.984375 
Q 39.0625 48.390625 32.421875 48.390625 
Q 24.90625 48.390625 20.390625 44.140625 
Q 15.875 39.890625 15.1875 32.171875 
z
" id="DejaVuSans-65"/>
     <path d="M 41.109375 46.296875 
Q 39.59375 47.171875 37.8125 47.578125 
Q 36.03125 48 33.890625 48 
Q 26.265625 48 22.1875 43.046875 
Q 18.109375 38.09375 18.109375 28.8125 
L 18.109375 0 
L 9.078125 0 
L 9.078125 54.6875 
L 18.109375 54.6875 
L 18.109375 46.1875 
Q 20.953125 51.171875 25.484375 53.578125 
Q 30.03125 56 36.53125 56 
Q 37.453125 56 38.578125 55.875 
Q 39.703125 55.765625 41.0625 55.515625 
z
" id="DejaVuSans-72"/>
     <path d="M 34.28125 27.484375 
Q 23.390625 27.484375 19.1875 25 
Q 14.984375 22.515625 14.984375 16.5 
Q 14.984375 11.71875 18.140625 8.90625 
Q 21.296875 6.109375 26.703125 6.109375 
Q 34.1875 6.109375 38.703125 11.40625 
Q 43.21875 16.703125 43.21875 25.484375 
L 43.21875 27.484375 
z
M 52.203125 31.203125 
L 52.203125 0 
L 43.21875 0 
L 43.21875 8.296875 
Q 40.140625 3.328125 35.546875 0.953125 
Q 30.953125 -1.421875 24.3125 -1.421875 
Q 15.921875 -1.421875 10.953125 3.296875 
Q 6 8.015625 6 15.921875 
Q 6 25.140625 12.171875 29.828125 
Q 18.359375 34.515625 30.609375 34.515625 
L 43.21875 34.515625 
L 43.21875 35.40625 
Q 43.21875 41.609375 39.140625 45 
Q 35.0625 48.390625 27.6875 48.390625 
Q 23 48.390625 18.546875 47.265625 
Q 14.109375 46.140625 10.015625 43.890625 
L 10.015625 52.203125 
Q 14.9375 54.109375 19.578125 55.046875 
Q 24.21875 56 28.609375 56 
Q 40.484375 56 46.34375 49.84375 
Q 52.203125 43.703125 52.203125 31.203125 
z
" id="DejaVuSans-61"/>
     <path d="M 45.40625 27.984375 
Q 45.40625 37.75 41.375 43.109375 
Q 37.359375 48.484375 30.078125 48.484375 
Q 22.859375 48.484375 18.828125 43.109375 
Q 14.796875 37.75 14.796875 27.984375 
Q 14.796875 18.265625 18.828125 12.890625 
Q 22.859375 7.515625 30.078125 7.515625 
Q 37.359375 7.515625 41.375 12.890625 
Q 45.40625 18.265625 45.40625 27.984375 
z
M 54.390625 6.78125 
Q 54.390625 -7.171875 48.1875 -13.984375 
Q 42 -20.796875 29.203125 -20.796875 
Q 24.46875 -20.796875 20.265625 -20.09375 
Q 16.0625 -19.390625 12.109375 -17.921875 
L 12.109375 -9.1875 
Q 16.0625 -11.328125 19.921875 -12.34375 
Q 23.78125 -13.375 27.78125 -13.375 
Q 36.625 -13.375 41.015625 -8.765625 
Q 45.40625 -4.15625 45.40625 5.171875 
L 45.40625 9.625 
Q 42.625 4.78125 38.28125 2.390625 
Q 33.9375 0 27.875 0 
Q 17.828125 0 11.671875 7.65625 
Q 5.515625 15.328125 5.515625 27.984375 
Q 5.515625 40.671875 11.671875 48.328125 
Q 17.828125 56 27.875 56 
Q 33.9375 56 38.28125 53.609375 
Q 42.625 51.21875 45.40625 46.390625 
L 45.40625 54.6875 
L 54.390625 54.6875 
z
" id="DejaVuSans-67"/>
     <path id="DejaVuSans-20"/>
     <path d="M 52 44.1875 
Q 55.375 50.25 60.0625 53.125 
Q 64.75 56 71.09375 56 
Q 79.640625 56 84.28125 50.015625 
Q 88.921875 44.046875 88.921875 33.015625 
L 88.921875 0 
L 79.890625 0 
L 79.890625 32.71875 
Q 79.890625 40.578125 77.09375 44.375 
Q 74.3125 48.1875 68.609375 48.1875 
Q 61.625 48.1875 57.5625 43.546875 
Q 53.515625 38.921875 53.515625 30.90625 
L 53.515625 0 
L 44.484375 0 
L 44.484375 32.71875 
Q 44.484375 40.625 41.703125 44.40625 
Q 38.921875 48.1875 33.109375 48.1875 
Q 26.21875 48.1875 22.15625 43.53125 
Q 18.109375 38.875 18.109375 30.90625 
L 18.109375 0 
L 9.078125 0 
L 9.078125 54.6875 
L 18.109375 54.6875 
L 18.109375 46.1875 
Q 21.1875 51.21875 25.484375 53.609375 
Q 29.78125 56 35.6875 56 
Q 41.65625 56 45.828125 52.96875 
Q 50 49.953125 52 44.1875 
z
" id="DejaVuSans-6d"/>
     <path d="M 30.609375 48.390625 
Q 23.390625 48.390625 19.1875 42.75 
Q 14.984375 37.109375 14.984375 27.296875 
Q 14.984375 17.484375 19.15625 11.84375 
Q 23.34375 6.203125 30.609375 6.203125 
Q 37.796875 6.203125 41.984375 11.859375 
Q 46.1875 17.53125 46.1875 27.296875 
Q 46.1875 37.015625 41.984375 42.703125 
Q 37.796875 48.390625 30.609375 48.390625 
z
M 30.609375 56 
Q 42.328125 56 49.015625 48.375 
Q 55.71875 40.765625 55.71875 27.296875 
Q 55.71875 13.875 49.015625 6.21875 
Q 42.328125 -1.421875 30.609375 -1.421875 
Q 18.84375 -1.421875 12.171875 6.21875 
Q 5.515625 13.875 5.515625 27.296875 
Q 5.515625 40.765625 12.171875 48.375 
Q 18.84375 56 30.609375 56 
z
" id="DejaVuSans-6f"/>
     <path d="M 54.890625 33.015625 
L 54.890625 0 
L 45.90625 0 
L 45.90625 32.71875 
Q 45.90625 40.484375 42.875 44.328125 
Q 39.84375 48.1875 33.796875 48.1875 
Q 26.515625 48.1875 22.3125 43.546875 
Q 18.109375 38.921875 18.109375 30.90625 
L 18.109375 0 
L 9.078125 0 
L 9.078125 54.6875 
L 18.109375 54.6875 
L 18.109375 46.1875 
Q 21.34375 51.125 25.703125 53.5625 
Q 30.078125 56 35.796875 56 
Q 45.21875 56 50.046875 50.171875 
Q 54.890625 44.34375 54.890625 33.015625 
z
" id="DejaVuSans-6e"/>
     <path d="M 18.3125 70.21875 
L 18.3125 54.6875 
L 36.8125 54.6875 
L 36.8125 47.703125 
L 18.3125 47.703125 
L 18.3125 18.015625 
Q 18.3125 11.328125 20.140625 9.421875 
Q 21.96875 7.515625 27.59375 7.515625 
L 36.8125 7.515625 
L 36.8125 0 
L 27.59375 0 
Q 17.1875 0 13.234375 3.875 
Q 9.28125 7.765625 9.28125 18.015625 
L 9.28125 47.703125 
L 2.6875 47.703125 
L 2.6875 54.6875 
L 9.28125 54.6875 
L 9.28125 70.21875 
z
" id="DejaVuSans-74"/>
     <path d="M 54.890625 33.015625 
L 54.890625 0 
L 45.90625 0 
L 45.90625 32.71875 
Q 45.90625 40.484375 42.875 44.328125 
Q 39.84375 48.1875 33.796875 48.1875 
Q 26.515625 48.1875 22.3125 43.546875 
Q 18.109375 38.921875 18.109375 30.90625 
L 18.109375 0 
L 9.078125 0 
L 9.078125 75.984375 
L 18.109375 75.984375 
L 18.109375 46.1875 
Q 21.34375 51.125 25.703125 53.5625 
Q 30.078125 56 35.796875 56 
Q 45.21875 56 50.046875 50.171875 
Q 54.890625 44.34375 54.890625 33.015625 
z
" id="DejaVuSans-68"/>
     <path d="M 9.421875 75.984375 
L 18.40625 75.984375 
L 18.40625 0 
L 9.421875 0 
z
" id="DejaVuSans-6c"/>
     <path d="M 32.171875 -5.078125 
Q 28.375 -14.84375 24.75 -17.8125 
Q 21.140625 -20.796875 15.09375 -20.796875 
L 7.90625 -20.796875 
L 7.90625 -13.28125 
L 13.1875 -13.28125 
Q 16.890625 -13.28125 18.9375 -11.515625 
Q 21 -9.765625 23.484375 -3.21875 
L 25.09375 0.875 
L 2.984375 54.6875 
L 12.5 54.6875 
L 29.59375 11.921875 
L 46.6875 54.6875 
L 56.203125 54.6875 
z
" id="DejaVuSans-79"/>
     <path d="M 9.421875 54.6875 
L 18.40625 54.6875 
L 18.40625 0 
L 9.421875 0 
z
M 9.421875 75.984375 
L 18.40625 75.984375 
L 18.40625 64.59375 
L 9.421875 64.59375 
z
" id="DejaVuSans-69"/>
     <path d="M 44.28125 53.078125 
L 44.28125 44.578125 
Q 40.484375 46.53125 36.375 47.5 
Q 32.28125 48.484375 27.875 48.484375 
Q 21.1875 48.484375 17.84375 46.4375 
Q 14.5 44.390625 14.5 40.28125 
Q 14.5 37.15625 16.890625 35.375 
Q 19.28125 33.59375 26.515625 31.984375 
L 29.59375 31.296875 
Q 39.15625 29.25 43.1875 25.515625 
Q 47.21875 21.78125 47.21875 15.09375 
Q 47.21875 7.46875 41.1875 3.015625 
Q 35.15625 -1.421875 24.609375 -1.421875 
Q 20.21875 -1.421875 15.453125 -0.5625 
Q 10.6875 0.296875 5.421875 2 
L 5.421875 11.28125 
Q 10.40625 8.6875 15.234375 7.390625 
Q 20.0625 6.109375 24.8125 6.109375 
Q 31.15625 6.109375 34.5625 8.28125 
Q 37.984375 10.453125 37.984375 14.40625 
Q 37.984375 18.0625 35.515625 20.015625 
Q 33.0625 21.96875 24.703125 23.78125 
L 21.578125 24.515625 
Q 13.234375 26.265625 9.515625 29.90625 
Q 5.8125 33.546875 5.8125 39.890625 
Q 5.8125 47.609375 11.28125 51.796875 
Q 16.75 56 26.8125 56 
Q 31.78125 56 36.171875 55.265625 
Q 40.578125 54.546875 44.28125 53.078125 
z
" id="DejaVuSans-73"/>
    </defs>
    <g transform="translate(155.968812 17.36505)scale(0.12 -0.12)">
     <use xlink:href="#DejaVuSans-41"/>
     <use x="68.330078" xlink:href="#DejaVuSans-76"/>
     <use x="127.509766" xlink:href="#DejaVuSans-65"/>
     <use x="189.033203" xlink:href="#DejaVuSans-72"/>
     <use x="230.146484" xlink:href="#DejaVuSans-61"/>
     <use x="291.425781" xlink:href="#DejaVuSans-67"/>
     <use x="354.902344" xlink:href="#DejaVuSans-65"/>
     <use x="416.425781" xlink:href="#DejaVuSans-20"/>
     <use x="448.212891" xlink:href="#DejaVuSans-6d"/>
     <use x="545.625" xlink:href="#DejaVuSans-6f"/>
     <use x="606.806641" xlink:href="#DejaVuSans-6e"/>
     <use x="670.185547" xlink:href="#DejaVuSans-74"/>
     <use x="709.394531" xlink:href="#DejaVuSans-68"/>
     <use x="772.773438" xlink:href="#DejaVuSans-6c"/>
     <use x="800.556641" xlink:href="#DejaVuSans-79"/>
     <use x="859.736328" xlink:href="#DejaVuSans-20"/>
     <use x="891.523438" xlink:href="#DejaVuSans-65"/>
     <use x="953.046875" xlink:href="#DejaVuSans-6d"/>
     <use x="1050.458984" xlink:href="#DejaVuSans-69"/>
     <use x="1078.242188" xlink:href="#DejaVuSans-73"/>
     <use x="1130.341797" xlink:href="#DejaVuSans-73"/>
     <use x="1182.441406" xlink:href="#DejaVuSans-69"/>
     <use x="1210.224609" xlink:href="#DejaVuSans-6f"/>
     <use x="1271.40625" xlink:href="#DejaVuSans-6e"/>
     <use x="1334.785156" xlink:href="#DejaVuSans-73"/>
    </g>
   </g>
   <g id="legend_1">
    <g id="patch_7">
     <path d="M 38.543 74.673854 
L 116.443 74.673854 
Q 118.443 74.673854 118.443 72.673854 
L 118.443 58.995729 
Q 118.443 56.995729 116.443 56.995729 
L 38.543 56.995729 
Q 36.543 56.995729 36.543 58.995729 
L 36.543 72.673854 
Q 36.543 74.673854 38.543 74.673854 
z
" style="fill:#ffffff;opacity:0.8;stroke:#cccccc;stroke-linejoin:miter;"/>
    </g>
    <g id="line2d_26">
     <path d="M 40.543 65.094167 
L 60.543 65.094167 
" style="fill:none;stroke:#008000;stroke-linecap:square;stroke-width:1.5;"/>
    </g>
    <g id="line2d_27"/>
    <g id="text_5">
     <!-- SO2 (lbs) -->
     <defs>
      <path d="M 53.515625 70.515625 
L 53.515625 60.890625 
Q 47.90625 63.578125 42.921875 64.890625 
Q 37.9375 66.21875 33.296875 66.21875 
Q 25.25 66.21875 20.875 63.09375 
Q 16.5 59.96875 16.5 54.203125 
Q 16.5 49.359375 19.40625 46.890625 
Q 22.3125 44.4375 30.421875 42.921875 
L 36.375 41.703125 
Q 47.40625 39.59375 52.65625 34.296875 
Q 57.90625 29 57.90625 20.125 
Q 57.90625 9.515625 50.796875 4.046875 
Q 43.703125 -1.421875 29.984375 -1.421875 
Q 24.8125 -1.421875 18.96875 -0.25 
Q 13.140625 0.921875 6.890625 3.21875 
L 6.890625 13.375 
Q 12.890625 10.015625 18.65625 8.296875 
Q 24.421875 6.59375 29.984375 6.59375 
Q 38.421875 6.59375 43.015625 9.90625 
Q 47.609375 13.234375 47.609375 19.390625 
Q 47.609375 24.75 44.3125 27.78125 
Q 41.015625 30.8125 33.5 32.328125 
L 27.484375 33.5 
Q 16.453125 35.6875 11.515625 40.375 
Q 6.59375 45.0625 6.59375 53.421875 
Q 6.59375 63.09375 13.40625 68.65625 
Q 20.21875 74.21875 32.171875 74.21875 
Q 37.3125 74.21875 42.625 73.28125 
Q 47.953125 72.359375 53.515625 70.515625 
z
" id="DejaVuSans-53"/>
      <path d="M 39.40625 66.21875 
Q 28.65625 66.21875 22.328125 58.203125 
Q 16.015625 50.203125 16.015625 36.375 
Q 16.015625 22.609375 22.328125 14.59375 
Q 28.65625 6.59375 39.40625 6.59375 
Q 50.140625 6.59375 56.421875 14.59375 
Q 62.703125 22.609375 62.703125 36.375 
Q 62.703125 50.203125 56.421875 58.203125 
Q 50.140625 66.21875 39.40625 66.21875 
z
M 39.40625 74.21875 
Q 54.734375 74.21875 63.90625 63.9375 
Q 73.09375 53.65625 73.09375 36.375 
Q 73.09375 19.140625 63.90625 8.859375 
Q 54.734375 -1.421875 39.40625 -1.421875 
Q 24.03125 -1.421875 14.8125 8.828125 
Q 5.609375 19.09375 5.609375 36.375 
Q 5.609375 53.65625 14.8125 63.9375 
Q 24.03125 74.21875 39.40625 74.21875 
z
" id="DejaVuSans-4f"/>
      <path d="M 31 75.875 
Q 24.46875 64.65625 21.28125 53.65625 
Q 18.109375 42.671875 18.109375 31.390625 
Q 18.109375 20.125 21.3125 9.0625 
Q 24.515625 -2 31 -13.1875 
L 23.1875 -13.1875 
Q 15.875 -1.703125 12.234375 9.375 
Q 8.59375 20.453125 8.59375 31.390625 
Q 8.59375 42.28125 12.203125 53.3125 
Q 15.828125 64.359375 23.1875 75.875 
z
" id="DejaVuSans-28"/>
      <path d="M 48.6875 27.296875 
Q 48.6875 37.203125 44.609375 42.84375 
Q 40.53125 48.484375 33.40625 48.484375 
Q 26.265625 48.484375 22.1875 42.84375 
Q 18.109375 37.203125 18.109375 27.296875 
Q 18.109375 17.390625 22.1875 11.75 
Q 26.265625 6.109375 33.40625 6.109375 
Q 40.53125 6.109375 44.609375 11.75 
Q 48.6875 17.390625 48.6875 27.296875 
z
M 18.109375 46.390625 
Q 20.953125 51.265625 25.265625 53.625 
Q 29.59375 56 35.59375 56 
Q 45.5625 56 51.78125 48.09375 
Q 58.015625 40.1875 58.015625 27.296875 
Q 58.015625 14.40625 51.78125 6.484375 
Q 45.5625 -1.421875 35.59375 -1.421875 
Q 29.59375 -1.421875 25.265625 0.953125 
Q 20.953125 3.328125 18.109375 8.203125 
L 18.109375 0 
L 9.078125 0 
L 9.078125 75.984375 
L 18.109375 75.984375 
z
" id="DejaVuSans-62"/>
      <path d="M 8.015625 75.875 
L 15.828125 75.875 
Q 23.140625 64.359375 26.78125 53.3125 
Q 30.421875 42.28125 30.421875 31.390625 
Q 30.421875 20.453125 26.78125 9.375 
Q 23.140625 -1.703125 15.828125 -13.1875 
L 8.015625 -13.1875 
Q 14.5 -2 17.703125 9.0625 
Q 20.90625 20.125 20.90625 31.390625 
Q 20.90625 42.671875 17.703125 53.65625 
Q 14.5 64.65625 8.015625 75.875 
z
" id="DejaVuSans-29"/>
     </defs>
     <g transform="translate(68.543 68.594167)scale(0.1 -0.1)">
      <use xlink:href="#DejaVuSans-53"/>
      <use x="63.476562" xlink:href="#DejaVuSans-4f"/>
      <use x="142.1875" xlink:href="#DejaVuSans-32"/>
      <use x="205.810547" xlink:href="#DejaVuSans-20"/>
      <use x="237.597656" xlink:href="#DejaVuSans-28"/>
      <use x="276.611328" xlink:href="#DejaVuSans-6c"/>
      <use x="304.394531" xlink:href="#DejaVuSans-62"/>
      <use x="367.871094" xlink:href="#DejaVuSans-73"/>
      <use x="419.970703" xlink:href="#DejaVuSans-29"/>
     </g>
    </g>
   </g>
  </g>
  <g id="axes_2">
   <g id="patch_8">
    <path d="M 31.543 209.084017 
L 446.819624 209.084017 
L 446.819624 124.144533 
L 31.543 124.144533 
z
" style="fill:none;"/>
   </g>
   <g id="matplotlib.axis_3">
    <g id="xtick_10">
     <g id="line2d_28">
      <path clip-path="url(#p94777d5aa0)" d="M 48.076104 209.084017 
L 48.076104 124.144533 
" style="fill:none;stroke:#b0b0b0;stroke-linecap:square;stroke-width:0.8;"/>
     </g>
     <g id="line2d_29">
      <g>
       <use style="stroke:#000000;stroke-width:0.8;" x="48.076104" xlink:href="#m057a98083a" y="209.084017"/>
      </g>
     </g>
    </g>
    <g id="xtick_11">
     <g id="line2d_30">
      <path clip-path="url(#p94777d5aa0)" d="M 97.137754 209.084017 
L 97.137754 124.144533 
" style="fill:none;stroke:#b0b0b0;stroke-linecap:square;stroke-width:0.8;"/>
     </g>
     <g id="line2d_31">
      <g>
       <use style="stroke:#000000;stroke-width:0.8;" x="97.137754" xlink:href="#m057a98083a" y="209.084017"/>
      </g>
     </g>
    </g>
    <g id="xtick_12">
     <g id="line2d_32">
      <path clip-path="url(#p94777d5aa0)" d="M 146.266612 209.084017 
L 146.266612 124.144533 
" style="fill:none;stroke:#b0b0b0;stroke-linecap:square;stroke-width:0.8;"/>
     </g>
     <g id="line2d_33">
      <g>
       <use style="stroke:#000000;stroke-width:0.8;" x="146.266612" xlink:href="#m057a98083a" y="209.084017"/>
      </g>
     </g>
    </g>
    <g id="xtick_13">
     <g id="line2d_34">
      <path clip-path="url(#p94777d5aa0)" d="M 195.328262 209.084017 
L 195.328262 124.144533 
" style="fill:none;stroke:#b0b0b0;stroke-linecap:square;stroke-width:0.8;"/>
     </g>
     <g id="line2d_35">
      <g>
       <use style="stroke:#000000;stroke-width:0.8;" x="195.328262" xlink:href="#m057a98083a" y="209.084017"/>
      </g>
     </g>
    </g>
    <g id="xtick_14">
     <g id="line2d_36">
      <path clip-path="url(#p94777d5aa0)" d="M 244.45712 209.084017 
L 244.45712 124.144533 
" style="fill:none;stroke:#b0b0b0;stroke-linecap:square;stroke-width:0.8;"/>
     </g>
     <g id="line2d_37">
      <g>
       <use style="stroke:#000000;stroke-width:0.8;" x="244.45712" xlink:href="#m057a98083a" y="209.084017"/>
      </g>
     </g>
    </g>
    <g id="xtick_15">
     <g id="line2d_38">
      <path clip-path="url(#p94777d5aa0)" d="M 293.51877 209.084017 
L 293.51877 124.144533 
" style="fill:none;stroke:#b0b0b0;stroke-linecap:square;stroke-width:0.8;"/>
     </g>
     <g id="line2d_39">
      <g>
       <use style="stroke:#000000;stroke-width:0.8;" x="293.51877" xlink:href="#m057a98083a" y="209.084017"/>
      </g>
     </g>
    </g>
    <g id="xtick_16">
     <g id="line2d_40">
      <path clip-path="url(#p94777d5aa0)" d="M 342.647627 209.084017 
L 342.647627 124.144533 
" style="fill:none;stroke:#b0b0b0;stroke-linecap:square;stroke-width:0.8;"/>
     </g>
     <g id="line2d_41">
      <g>
       <use style="stroke:#000000;stroke-width:0.8;" x="342.647627" xlink:href="#m057a98083a" y="209.084017"/>
      </g>
     </g>
    </g>
    <g id="xtick_17">
     <g id="line2d_42">
      <path clip-path="url(#p94777d5aa0)" d="M 391.709277 209.084017 
L 391.709277 124.144533 
" style="fill:none;stroke:#b0b0b0;stroke-linecap:square;stroke-width:0.8;"/>
     </g>
     <g id="line2d_43">
      <g>
       <use style="stroke:#000000;stroke-width:0.8;" x="391.709277" xlink:href="#m057a98083a" y="209.084017"/>
      </g>
     </g>
    </g>
    <g id="xtick_18">
     <g id="line2d_44">
      <path clip-path="url(#p94777d5aa0)" d="M 440.838135 209.084017 
L 440.838135 124.144533 
" style="fill:none;stroke:#b0b0b0;stroke-linecap:square;stroke-width:0.8;"/>
     </g>
     <g id="line2d_45">
      <g>
       <use style="stroke:#000000;stroke-width:0.8;" x="440.838135" xlink:href="#m057a98083a" y="209.084017"/>
      </g>
     </g>
    </g>
   </g>
   <g id="matplotlib.axis_4">
    <g id="ytick_4">
     <g id="line2d_46">
      <path clip-path="url(#p94777d5aa0)" d="M 31.543 205.223131 
L 446.819624 205.223131 
" style="fill:none;stroke:#b0b0b0;stroke-linecap:square;stroke-width:0.8;"/>
     </g>
     <g id="line2d_47">
      <g>
       <use style="stroke:#000000;stroke-width:0.8;" x="31.543" xlink:href="#mb85f1b4b11" y="205.223131"/>
      </g>
     </g>
     <g id="text_6">
      <!-- 0 -->
      <g transform="translate(18.1805 209.02235)scale(0.1 -0.1)">
       <use xlink:href="#DejaVuSans-30"/>
      </g>
     </g>
    </g>
    <g id="ytick_5">
     <g id="line2d_48">
      <path clip-path="url(#p94777d5aa0)" d="M 31.543 177.63882 
L 446.819624 177.63882 
" style="fill:none;stroke:#b0b0b0;stroke-linecap:square;stroke-width:0.8;"/>
     </g>
     <g id="line2d_49">
      <g>
       <use style="stroke:#000000;stroke-width:0.8;" x="31.543" xlink:href="#mb85f1b4b11" y="177.63882"/>
      </g>
     </g>
     <g id="text_7">
      <!-- 20 -->
      <g transform="translate(11.818 181.438038)scale(0.1 -0.1)">
       <use xlink:href="#DejaVuSans-32"/>
       <use x="63.623047" xlink:href="#DejaVuSans-30"/>
      </g>
     </g>
    </g>
    <g id="ytick_6">
     <g id="line2d_50">
      <path clip-path="url(#p94777d5aa0)" d="M 31.543 150.054508 
L 446.819624 150.054508 
" style="fill:none;stroke:#b0b0b0;stroke-linecap:square;stroke-width:0.8;"/>
     </g>
     <g id="line2d_51">
      <g>
       <use style="stroke:#000000;stroke-width:0.8;" x="31.543" xlink:href="#mb85f1b4b11" y="150.054508"/>
      </g>
     </g>
     <g id="text_8">
      <!-- 40 -->
      <defs>
       <path d="M 37.796875 64.3125 
L 12.890625 25.390625 
L 37.796875 25.390625 
z
M 35.203125 72.90625 
L 47.609375 72.90625 
L 47.609375 25.390625 
L 58.015625 25.390625 
L 58.015625 17.1875 
L 47.609375 17.1875 
L 47.609375 0 
L 37.796875 0 
L 37.796875 17.1875 
L 4.890625 17.1875 
L 4.890625 26.703125 
z
" id="DejaVuSans-34"/>
      </defs>
      <g transform="translate(11.818 153.853727)scale(0.1 -0.1)">
       <use xlink:href="#DejaVuSans-34"/>
       <use x="63.623047" xlink:href="#DejaVuSans-30"/>
      </g>
     </g>
    </g>
   </g>
   <g id="line2d_52">
    <path clip-path="url(#p94777d5aa0)" d="M 31.543 205.223131 
L 33.62644 205.223131 
L 35.642672 189.173025 
L 37.726112 174.314684 
L 39.809552 176.125179 
L 41.825784 177.286744 
L 43.909224 186.906056 
L 45.925456 189.50832 
L 48.008896 180.270005 
L 50.092336 196.817776 
L 51.974153 198.095587 
L 54.057593 179.273722 
L 56.073825 183.372905 
L 58.157265 184.772071 
L 60.173497 179.510789 
L 62.256937 181.769848 
L 64.340377 183.38709 
L 66.356609 186.05531 
L 68.440049 188.451226 
L 72.539721 190.30601 
L 74.623161 197.904683 
L 76.504978 188.812255 
L 78.588418 180.11582 
L 80.60465 177.669528 
L 82.68809 191.806129 
L 84.704322 186.226969 
L 86.787762 150.085704 
L 88.871202 141.6918 
L 90.887434 146.792075 
L 92.970874 161.755323 
L 94.987106 200.855452 
L 97.070546 205.223131 
L 99.153986 205.223131 
L 101.103011 203.202761 
L 103.186451 205.223131 
L 105.202683 205.223131 
L 107.286123 202.61037 
L 109.302355 154.902037 
L 111.385795 138.548541 
L 113.469235 152.699664 
L 115.485467 163.068003 
L 117.568907 205.140582 
L 119.585139 205.223131 
L 121.668579 204.645965 
L 123.752019 155.53593 
L 125.633836 153.854551 
L 127.717276 205.223131 
L 129.733508 181.288713 
L 131.816948 151.572222 
L 133.83318 153.743057 
L 135.91662 149.658773 
L 138.00006 151.19735 
L 140.016292 178.854244 
L 142.099732 160.378612 
L 144.115964 184.780804 
L 146.199404 167.792318 
L 148.282844 186.587135 
L 150.164661 201.991931 
L 152.248101 199.604935 
L 154.264333 191.074492 
L 156.347773 163.404203 
L 158.364005 142.43579 
L 160.447445 141.067458 
L 162.530885 142.232756 
L 164.547117 158.928257 
L 166.630557 152.290196 
L 168.646789 172.065546 
L 172.813669 181.205582 
L 174.695486 173.78008 
L 176.778926 195.071975 
L 178.795158 183.179138 
L 180.878598 192.498644 
L 182.89483 146.648681 
L 184.97827 132.755702 
L 187.06171 135.159338 
L 189.077942 160.500472 
L 191.161382 169.662701 
L 193.177614 162.507798 
L 195.261054 170.877145 
L 197.344494 152.251332 
L 199.293518 171.624667 
L 201.376958 189.520602 
L 203.393191 179.100551 
L 205.47663 184.276867 
L 207.492863 153.871006 
L 209.576303 147.083324 
L 211.659743 143.996767 
L 213.675975 157.775175 
L 215.759415 164.670888 
L 217.775647 196.040095 
L 219.859087 175.606525 
L 221.942527 184.616594 
L 223.824343 194.706887 
L 225.907783 187.461167 
L 227.924016 194.570034 
L 230.007455 170.961459 
L 232.023688 167.25977 
L 234.107128 138.708523 
L 236.190568 145.982493 
L 240.29024 166.174257 
L 242.306472 186.361749 
L 244.389912 181.495082 
L 246.473352 179.571566 
L 248.355168 185.61666 
L 250.438608 177.124406 
L 252.454841 191.194992 
L 254.53828 191.700816 
L 256.554513 166.016239 
L 258.637953 150.075063 
L 260.721393 144.046302 
L 262.737625 156.345407 
L 264.821065 148.710959 
L 266.837297 172.691209 
L 268.920737 166.99963 
L 271.004177 198.535014 
L 272.885993 193.790269 
L 274.969433 190.5926 
L 276.985666 175.364254 
L 279.069105 188.01269 
L 281.085338 164.462541 
L 283.168778 135.364711 
L 285.252218 132.545719 
L 287.26845 162.586783 
L 289.35189 174.199182 
L 291.368122 163.744677 
L 293.451562 154.548638 
L 295.535002 198.633272 
L 297.484026 172.848017 
L 299.567466 131.84428 
L 301.583698 128.374847 
L 303.667138 141.568632 
L 305.68337 152.120458 
L 307.76681 145.096851 
L 309.85025 134.806166 
L 311.866482 152.23751 
L 313.949922 156.395772 
L 315.966155 179.350761 
L 318.049595 199.542337 
L 320.133034 184.144481 
L 322.014851 199.746209 
L 324.098291 192.085181 
L 326.114523 188.400048 
L 328.197963 181.077653 
L 330.214195 144.510627 
L 332.297635 136.453036 
L 334.381075 135.277683 
L 336.397307 148.238338 
L 338.480747 187.883672 
L 340.49698 190.253909 
L 342.58042 188.884089 
L 344.663859 187.997279 
L 346.545676 180.936896 
L 348.629116 184.306737 
L 350.645348 199.225666 
L 352.728788 191.635377 
L 354.74502 156.862659 
L 356.82846 144.589346 
L 358.9119 140.837116 
L 360.928133 154.21514 
L 363.011572 148.092672 
L 367.111245 188.077956 
L 369.194684 181.582996 
L 371.076501 190.768455 
L 373.159941 194.342818 
L 375.176173 181.17263 
L 377.259613 203.71025 
L 379.275845 172.338285 
L 381.359285 165.565424 
L 383.442725 137.234703 
L 385.458958 138.710163 
L 387.542397 149.67789 
L 389.55863 150.74771 
L 391.64207 145.628153 
L 393.725509 144.62852 
L 395.674534 190.798821 
L 397.757974 163.146968 
L 399.774206 133.801347 
L 401.857646 176.529647 
L 403.873878 146.467013 
L 405.957318 134.822503 
L 408.040758 128.381424 
L 410.05699 138.056599 
L 412.14043 198.785485 
L 414.156662 166.849475 
L 416.240102 140.386164 
L 418.323542 143.127999 
L 420.205359 181.328061 
L 422.288799 184.785192 
L 424.305031 160.894373 
L 426.388471 164.694036 
L 428.404703 132.746527 
L 430.488143 131.597504 
L 432.571583 128.005419 
L 434.587815 146.87955 
L 436.671255 142.188775 
L 438.687487 145.426439 
L 440.770927 163.345223 
L 442.854367 157.629905 
L 444.736184 178.445813 
L 446.819624 191.1666 
L 446.819624 191.1666 
" style="fill:none;stroke:#f97306;stroke-linecap:square;stroke-width:1.5;"/>
   </g>
   <g id="patch_9">
    <path d="M 31.543 209.084017 
L 31.543 124.144533 
" style="fill:none;stroke:#000000;stroke-linecap:square;stroke-linejoin:miter;stroke-width:0.8;"/>
   </g>
   <g id="patch_10">
    <path d="M 446.819624 209.084017 
L 446.819624 124.144533 
" style="fill:none;stroke:#000000;stroke-linecap:square;stroke-linejoin:miter;stroke-width:0.8;"/>
   </g>
   <g id="patch_11">
    <path d="M 31.543 209.084017 
L 446.819624 209.084017 
" style="fill:none;stroke:#000000;stroke-linecap:square;stroke-linejoin:miter;stroke-width:0.8;"/>
   </g>
   <g id="patch_12">
    <path d="M 31.543 124.144533 
L 446.819624 124.144533 
" style="fill:none;stroke:#000000;stroke-linecap:square;stroke-linejoin:miter;stroke-width:0.8;"/>
   </g>
   <g id="legend_2">
    <g id="patch_13">
     <path d="M 38.543 146.822658 
L 117.132063 146.822658 
Q 119.132063 146.822658 119.132063 144.822658 
L 119.132063 131.144533 
Q 119.132063 129.144533 117.132063 129.144533 
L 38.543 129.144533 
Q 36.543 129.144533 36.543 131.144533 
L 36.543 144.822658 
Q 36.543 146.822658 38.543 146.822658 
z
" style="fill:#ffffff;opacity:0.8;stroke:#cccccc;stroke-linejoin:miter;"/>
    </g>
    <g id="line2d_53">
     <path d="M 40.543 137.242971 
L 60.543 137.242971 
" style="fill:none;stroke:#f97306;stroke-linecap:square;stroke-width:1.5;"/>
    </g>
    <g id="line2d_54"/>
    <g id="text_9">
     <!-- NOx (lbs) -->
     <defs>
      <path d="M 9.8125 72.90625 
L 23.09375 72.90625 
L 55.421875 11.921875 
L 55.421875 72.90625 
L 64.984375 72.90625 
L 64.984375 0 
L 51.703125 0 
L 19.390625 60.984375 
L 19.390625 0 
L 9.8125 0 
z
" id="DejaVuSans-4e"/>
      <path d="M 54.890625 54.6875 
L 35.109375 28.078125 
L 55.90625 0 
L 45.3125 0 
L 29.390625 21.484375 
L 13.484375 0 
L 2.875 0 
L 24.125 28.609375 
L 4.6875 54.6875 
L 15.28125 54.6875 
L 29.78125 35.203125 
L 44.28125 54.6875 
z
" id="DejaVuSans-78"/>
     </defs>
     <g transform="translate(68.543 140.742971)scale(0.1 -0.1)">
      <use xlink:href="#DejaVuSans-4e"/>
      <use x="74.804688" xlink:href="#DejaVuSans-4f"/>
      <use x="153.515625" xlink:href="#DejaVuSans-78"/>
      <use x="212.695312" xlink:href="#DejaVuSans-20"/>
      <use x="244.482422" xlink:href="#DejaVuSans-28"/>
      <use x="283.496094" xlink:href="#DejaVuSans-6c"/>
      <use x="311.279297" xlink:href="#DejaVuSans-62"/>
      <use x="374.755859" xlink:href="#DejaVuSans-73"/>
      <use x="426.855469" xlink:href="#DejaVuSans-29"/>
     </g>
    </g>
   </g>
  </g>
  <g id="axes_3">
   <g id="patch_14">
    <path d="M 31.543 309.8635 
L 446.819624 309.8635 
L 446.819624 224.924017 
L 31.543 224.924017 
z
" style="fill:none;"/>
   </g>
   <g id="matplotlib.axis_5">
    <g id="xtick_19">
     <g id="line2d_55">
      <path clip-path="url(#pb8de57ade6)" d="M 48.076104 309.8635 
L 48.076104 224.924017 
" style="fill:none;stroke:#b0b0b0;stroke-linecap:square;stroke-width:0.8;"/>
     </g>
     <g id="line2d_56">
      <g>
       <use style="stroke:#000000;stroke-width:0.8;" x="48.076104" xlink:href="#m057a98083a" y="309.8635"/>
      </g>
     </g>
     <g id="text_10">
      <!-- 2002 -->
      <g transform="translate(35.351104 324.461937)scale(0.1 -0.1)">
       <use xlink:href="#DejaVuSans-32"/>
       <use x="63.623047" xlink:href="#DejaVuSans-30"/>
       <use x="127.246094" xlink:href="#DejaVuSans-30"/>
       <use x="190.869141" xlink:href="#DejaVuSans-32"/>
      </g>
     </g>
    </g>
    <g id="xtick_20">
     <g id="line2d_57">
      <path clip-path="url(#pb8de57ade6)" d="M 97.137754 309.8635 
L 97.137754 224.924017 
" style="fill:none;stroke:#b0b0b0;stroke-linecap:square;stroke-width:0.8;"/>
     </g>
     <g id="line2d_58">
      <g>
       <use style="stroke:#000000;stroke-width:0.8;" x="97.137754" xlink:href="#m057a98083a" y="309.8635"/>
      </g>
     </g>
     <g id="text_11">
      <!-- 2004 -->
      <g transform="translate(84.412754 324.461937)scale(0.1 -0.1)">
       <use xlink:href="#DejaVuSans-32"/>
       <use x="63.623047" xlink:href="#DejaVuSans-30"/>
       <use x="127.246094" xlink:href="#DejaVuSans-30"/>
       <use x="190.869141" xlink:href="#DejaVuSans-34"/>
      </g>
     </g>
    </g>
    <g id="xtick_21">
     <g id="line2d_59">
      <path clip-path="url(#pb8de57ade6)" d="M 146.266612 309.8635 
L 146.266612 224.924017 
" style="fill:none;stroke:#b0b0b0;stroke-linecap:square;stroke-width:0.8;"/>
     </g>
     <g id="line2d_60">
      <g>
       <use style="stroke:#000000;stroke-width:0.8;" x="146.266612" xlink:href="#m057a98083a" y="309.8635"/>
      </g>
     </g>
     <g id="text_12">
      <!-- 2006 -->
      <defs>
       <path d="M 33.015625 40.375 
Q 26.375 40.375 22.484375 35.828125 
Q 18.609375 31.296875 18.609375 23.390625 
Q 18.609375 15.53125 22.484375 10.953125 
Q 26.375 6.390625 33.015625 6.390625 
Q 39.65625 6.390625 43.53125 10.953125 
Q 47.40625 15.53125 47.40625 23.390625 
Q 47.40625 31.296875 43.53125 35.828125 
Q 39.65625 40.375 33.015625 40.375 
z
M 52.59375 71.296875 
L 52.59375 62.3125 
Q 48.875 64.0625 45.09375 64.984375 
Q 41.3125 65.921875 37.59375 65.921875 
Q 27.828125 65.921875 22.671875 59.328125 
Q 17.53125 52.734375 16.796875 39.40625 
Q 19.671875 43.65625 24.015625 45.921875 
Q 28.375 48.1875 33.59375 48.1875 
Q 44.578125 48.1875 50.953125 41.515625 
Q 57.328125 34.859375 57.328125 23.390625 
Q 57.328125 12.15625 50.6875 5.359375 
Q 44.046875 -1.421875 33.015625 -1.421875 
Q 20.359375 -1.421875 13.671875 8.265625 
Q 6.984375 17.96875 6.984375 36.375 
Q 6.984375 53.65625 15.1875 63.9375 
Q 23.390625 74.21875 37.203125 74.21875 
Q 40.921875 74.21875 44.703125 73.484375 
Q 48.484375 72.75 52.59375 71.296875 
z
" id="DejaVuSans-36"/>
      </defs>
      <g transform="translate(133.541612 324.461937)scale(0.1 -0.1)">
       <use xlink:href="#DejaVuSans-32"/>
       <use x="63.623047" xlink:href="#DejaVuSans-30"/>
       <use x="127.246094" xlink:href="#DejaVuSans-30"/>
       <use x="190.869141" xlink:href="#DejaVuSans-36"/>
      </g>
     </g>
    </g>
    <g id="xtick_22">
     <g id="line2d_61">
      <path clip-path="url(#pb8de57ade6)" d="M 195.328262 309.8635 
L 195.328262 224.924017 
" style="fill:none;stroke:#b0b0b0;stroke-linecap:square;stroke-width:0.8;"/>
     </g>
     <g id="line2d_62">
      <g>
       <use style="stroke:#000000;stroke-width:0.8;" x="195.328262" xlink:href="#m057a98083a" y="309.8635"/>
      </g>
     </g>
     <g id="text_13">
      <!-- 2008 -->
      <defs>
       <path d="M 31.78125 34.625 
Q 24.75 34.625 20.71875 30.859375 
Q 16.703125 27.09375 16.703125 20.515625 
Q 16.703125 13.921875 20.71875 10.15625 
Q 24.75 6.390625 31.78125 6.390625 
Q 38.8125 6.390625 42.859375 10.171875 
Q 46.921875 13.96875 46.921875 20.515625 
Q 46.921875 27.09375 42.890625 30.859375 
Q 38.875 34.625 31.78125 34.625 
z
M 21.921875 38.8125 
Q 15.578125 40.375 12.03125 44.71875 
Q 8.5 49.078125 8.5 55.328125 
Q 8.5 64.0625 14.71875 69.140625 
Q 20.953125 74.21875 31.78125 74.21875 
Q 42.671875 74.21875 48.875 69.140625 
Q 55.078125 64.0625 55.078125 55.328125 
Q 55.078125 49.078125 51.53125 44.71875 
Q 48 40.375 41.703125 38.8125 
Q 48.828125 37.15625 52.796875 32.3125 
Q 56.78125 27.484375 56.78125 20.515625 
Q 56.78125 9.90625 50.3125 4.234375 
Q 43.84375 -1.421875 31.78125 -1.421875 
Q 19.734375 -1.421875 13.25 4.234375 
Q 6.78125 9.90625 6.78125 20.515625 
Q 6.78125 27.484375 10.78125 32.3125 
Q 14.796875 37.15625 21.921875 38.8125 
z
M 18.3125 54.390625 
Q 18.3125 48.734375 21.84375 45.5625 
Q 25.390625 42.390625 31.78125 42.390625 
Q 38.140625 42.390625 41.71875 45.5625 
Q 45.3125 48.734375 45.3125 54.390625 
Q 45.3125 60.0625 41.71875 63.234375 
Q 38.140625 66.40625 31.78125 66.40625 
Q 25.390625 66.40625 21.84375 63.234375 
Q 18.3125 60.0625 18.3125 54.390625 
z
" id="DejaVuSans-38"/>
      </defs>
      <g transform="translate(182.603262 324.461937)scale(0.1 -0.1)">
       <use xlink:href="#DejaVuSans-32"/>
       <use x="63.623047" xlink:href="#DejaVuSans-30"/>
       <use x="127.246094" xlink:href="#DejaVuSans-30"/>
       <use x="190.869141" xlink:href="#DejaVuSans-38"/>
      </g>
     </g>
    </g>
    <g id="xtick_23">
     <g id="line2d_63">
      <path clip-path="url(#pb8de57ade6)" d="M 244.45712 309.8635 
L 244.45712 224.924017 
" style="fill:none;stroke:#b0b0b0;stroke-linecap:square;stroke-width:0.8;"/>
     </g>
     <g id="line2d_64">
      <g>
       <use style="stroke:#000000;stroke-width:0.8;" x="244.45712" xlink:href="#m057a98083a" y="309.8635"/>
      </g>
     </g>
     <g id="text_14">
      <!-- 2010 -->
      <g transform="translate(231.73212 324.461937)scale(0.1 -0.1)">
       <use xlink:href="#DejaVuSans-32"/>
       <use x="63.623047" xlink:href="#DejaVuSans-30"/>
       <use x="127.246094" xlink:href="#DejaVuSans-31"/>
       <use x="190.869141" xlink:href="#DejaVuSans-30"/>
      </g>
     </g>
    </g>
    <g id="xtick_24">
     <g id="line2d_65">
      <path clip-path="url(#pb8de57ade6)" d="M 293.51877 309.8635 
L 293.51877 224.924017 
" style="fill:none;stroke:#b0b0b0;stroke-linecap:square;stroke-width:0.8;"/>
     </g>
     <g id="line2d_66">
      <g>
       <use style="stroke:#000000;stroke-width:0.8;" x="293.51877" xlink:href="#m057a98083a" y="309.8635"/>
      </g>
     </g>
     <g id="text_15">
      <!-- 2012 -->
      <g transform="translate(280.79377 324.461937)scale(0.1 -0.1)">
       <use xlink:href="#DejaVuSans-32"/>
       <use x="63.623047" xlink:href="#DejaVuSans-30"/>
       <use x="127.246094" xlink:href="#DejaVuSans-31"/>
       <use x="190.869141" xlink:href="#DejaVuSans-32"/>
      </g>
     </g>
    </g>
    <g id="xtick_25">
     <g id="line2d_67">
      <path clip-path="url(#pb8de57ade6)" d="M 342.647627 309.8635 
L 342.647627 224.924017 
" style="fill:none;stroke:#b0b0b0;stroke-linecap:square;stroke-width:0.8;"/>
     </g>
     <g id="line2d_68">
      <g>
       <use style="stroke:#000000;stroke-width:0.8;" x="342.647627" xlink:href="#m057a98083a" y="309.8635"/>
      </g>
     </g>
     <g id="text_16">
      <!-- 2014 -->
      <g transform="translate(329.922627 324.461937)scale(0.1 -0.1)">
       <use xlink:href="#DejaVuSans-32"/>
       <use x="63.623047" xlink:href="#DejaVuSans-30"/>
       <use x="127.246094" xlink:href="#DejaVuSans-31"/>
       <use x="190.869141" xlink:href="#DejaVuSans-34"/>
      </g>
     </g>
    </g>
    <g id="xtick_26">
     <g id="line2d_69">
      <path clip-path="url(#pb8de57ade6)" d="M 391.709277 309.8635 
L 391.709277 224.924017 
" style="fill:none;stroke:#b0b0b0;stroke-linecap:square;stroke-width:0.8;"/>
     </g>
     <g id="line2d_70">
      <g>
       <use style="stroke:#000000;stroke-width:0.8;" x="391.709277" xlink:href="#m057a98083a" y="309.8635"/>
      </g>
     </g>
     <g id="text_17">
      <!-- 2016 -->
      <g transform="translate(378.984277 324.461937)scale(0.1 -0.1)">
       <use xlink:href="#DejaVuSans-32"/>
       <use x="63.623047" xlink:href="#DejaVuSans-30"/>
       <use x="127.246094" xlink:href="#DejaVuSans-31"/>
       <use x="190.869141" xlink:href="#DejaVuSans-36"/>
      </g>
     </g>
    </g>
    <g id="xtick_27">
     <g id="line2d_71">
      <path clip-path="url(#pb8de57ade6)" d="M 440.838135 309.8635 
L 440.838135 224.924017 
" style="fill:none;stroke:#b0b0b0;stroke-linecap:square;stroke-width:0.8;"/>
     </g>
     <g id="line2d_72">
      <g>
       <use style="stroke:#000000;stroke-width:0.8;" x="440.838135" xlink:href="#m057a98083a" y="309.8635"/>
      </g>
     </g>
     <g id="text_18">
      <!-- 2018 -->
      <g transform="translate(428.113135 324.461937)scale(0.1 -0.1)">
       <use xlink:href="#DejaVuSans-32"/>
       <use x="63.623047" xlink:href="#DejaVuSans-30"/>
       <use x="127.246094" xlink:href="#DejaVuSans-31"/>
       <use x="190.869141" xlink:href="#DejaVuSans-38"/>
      </g>
     </g>
    </g>
    <g id="text_19">
     <!-- Date -->
     <defs>
      <path d="M 19.671875 64.796875 
L 19.671875 8.109375 
L 31.59375 8.109375 
Q 46.6875 8.109375 53.6875 14.9375 
Q 60.6875 21.78125 60.6875 36.53125 
Q 60.6875 51.171875 53.6875 57.984375 
Q 46.6875 64.796875 31.59375 64.796875 
z
M 9.8125 72.90625 
L 30.078125 72.90625 
Q 51.265625 72.90625 61.171875 64.09375 
Q 71.09375 55.28125 71.09375 36.53125 
Q 71.09375 17.671875 61.125 8.828125 
Q 51.171875 0 30.078125 0 
L 9.8125 0 
z
" id="DejaVuSans-44"/>
     </defs>
     <g transform="translate(227.230531 338.140062)scale(0.1 -0.1)">
      <use xlink:href="#DejaVuSans-44"/>
      <use x="77.001953" xlink:href="#DejaVuSans-61"/>
      <use x="138.28125" xlink:href="#DejaVuSans-74"/>
      <use x="177.490234" xlink:href="#DejaVuSans-65"/>
     </g>
    </g>
   </g>
   <g id="matplotlib.axis_6">
    <g id="ytick_7">
     <g id="line2d_73">
      <path clip-path="url(#pb8de57ade6)" d="M 31.543 306.002614 
L 446.819624 306.002614 
" style="fill:none;stroke:#b0b0b0;stroke-linecap:square;stroke-width:0.8;"/>
     </g>
     <g id="line2d_74">
      <g>
       <use style="stroke:#000000;stroke-width:0.8;" x="31.543" xlink:href="#mb85f1b4b11" y="306.002614"/>
      </g>
     </g>
     <g id="text_20">
      <!-- 0 -->
      <g transform="translate(18.1805 309.801833)scale(0.1 -0.1)">
       <use xlink:href="#DejaVuSans-30"/>
      </g>
     </g>
    </g>
    <g id="ytick_8">
     <g id="line2d_75">
      <path clip-path="url(#pb8de57ade6)" d="M 31.543 266.218217 
L 446.819624 266.218217 
" style="fill:none;stroke:#b0b0b0;stroke-linecap:square;stroke-width:0.8;"/>
     </g>
     <g id="line2d_76">
      <g>
       <use style="stroke:#000000;stroke-width:0.8;" x="31.543" xlink:href="#mb85f1b4b11" y="266.218217"/>
      </g>
     </g>
     <g id="text_21">
      <!-- 100 -->
      <g transform="translate(5.4555 270.017436)scale(0.1 -0.1)">
       <use xlink:href="#DejaVuSans-31"/>
       <use x="63.623047" xlink:href="#DejaVuSans-30"/>
       <use x="127.246094" xlink:href="#DejaVuSans-30"/>
      </g>
     </g>
    </g>
    <g id="ytick_9">
     <g id="line2d_77">
      <path clip-path="url(#pb8de57ade6)" d="M 31.543 226.43382 
L 446.819624 226.43382 
" style="fill:none;stroke:#b0b0b0;stroke-linecap:square;stroke-width:0.8;"/>
     </g>
     <g id="line2d_78">
      <g>
       <use style="stroke:#000000;stroke-width:0.8;" x="31.543" xlink:href="#mb85f1b4b11" y="226.43382"/>
      </g>
     </g>
     <g id="text_22">
      <!-- 200 -->
      <g transform="translate(5.4555 230.233039)scale(0.1 -0.1)">
       <use xlink:href="#DejaVuSans-32"/>
       <use x="63.623047" xlink:href="#DejaVuSans-30"/>
       <use x="127.246094" xlink:href="#DejaVuSans-30"/>
      </g>
     </g>
    </g>
   </g>
   <g id="line2d_79">
    <path clip-path="url(#pb8de57ade6)" d="M 31.543 306.002614 
L 33.62644 306.002614 
L 35.642672 295.372123 
L 37.726112 285.597729 
L 39.809552 286.40814 
L 41.825784 287.966123 
L 43.909224 294.164984 
L 45.925456 295.455121 
L 48.008896 290.699319 
L 50.092336 300.93 
L 51.974153 302.023917 
L 54.057593 291.785163 
L 58.157265 295.871941 
L 60.173497 291.97286 
L 62.256937 291.501735 
L 64.340377 292.022302 
L 66.356609 295.075062 
L 68.440049 297.605074 
L 72.539721 298.480375 
L 74.623161 302.190494 
L 78.588418 292.510202 
L 80.60465 291.036734 
L 82.68809 298.817067 
L 84.704322 295.781622 
L 86.787762 259.987765 
L 88.871202 229.903941 
L 90.887434 235.518212 
L 92.970874 251.736627 
L 94.987106 302.630563 
L 97.070546 306.002614 
L 99.153986 306.002614 
L 101.103011 304.798089 
L 103.186451 306.002614 
L 105.202683 306.002614 
L 107.286123 305.482625 
L 109.302355 251.078367 
L 111.385795 230.444099 
L 115.485467 262.224999 
L 117.568907 305.992719 
L 119.585139 306.002614 
L 121.668579 305.825157 
L 123.752019 253.740918 
L 125.633836 243.319147 
L 127.717276 306.002614 
L 129.733508 283.124554 
L 131.816948 255.285917 
L 133.83318 251.916127 
L 135.91662 247.41642 
L 138.00006 242.237149 
L 140.016292 275.76461 
L 142.099732 256.456784 
L 144.115964 285.807939 
L 146.199404 269.726448 
L 150.164661 305.077473 
L 152.248101 301.116723 
L 154.264333 294.130241 
L 156.347773 267.56137 
L 158.364005 237.446879 
L 160.447445 234.013861 
L 162.530885 235.744793 
L 164.547117 257.366305 
L 166.630557 248.513226 
L 168.646789 278.737607 
L 170.730229 277.087082 
L 172.813669 284.249928 
L 174.695486 275.253767 
L 176.778926 299.142779 
L 178.795158 285.676282 
L 180.878598 295.551535 
L 182.89483 248.041004 
L 184.97827 232.743143 
L 187.06171 236.76312 
L 189.077942 266.294785 
L 191.161382 276.448362 
L 193.177614 272.495979 
L 195.261054 277.071306 
L 197.344494 257.066633 
L 199.293518 275.740142 
L 201.376958 293.756805 
L 203.393191 285.34573 
L 205.47663 288.167148 
L 207.492863 262.162028 
L 209.576303 251.688258 
L 211.659743 246.635625 
L 213.675975 261.744112 
L 215.759415 269.428414 
L 217.775647 301.383823 
L 219.859087 278.068557 
L 221.942527 292.10565 
L 223.824343 299.680287 
L 225.907783 291.795283 
L 227.924016 299.627344 
L 230.007455 286.837436 
L 232.023688 276.304081 
L 234.107128 241.954797 
L 236.190568 250.237207 
L 238.2068 259.271941 
L 240.29024 272.446127 
L 242.306472 296.004538 
L 246.473352 287.202401 
L 248.355168 289.914857 
L 250.438608 283.564208 
L 252.454841 296.469473 
L 254.53828 298.554092 
L 256.554513 273.306319 
L 258.637953 257.809614 
L 260.721393 251.684597 
L 262.737625 263.190777 
L 264.821065 254.52799 
L 266.837297 275.300401 
L 268.920737 274.71896 
L 271.004177 302.313056 
L 272.885993 301.762869 
L 274.969433 298.765322 
L 276.985666 280.238496 
L 279.069105 293.042926 
L 281.085338 273.212126 
L 283.168778 243.243682 
L 285.252218 236.867183 
L 287.26845 271.096738 
L 289.35189 284.916587 
L 291.368122 268.797495 
L 293.451562 256.275544 
L 295.535002 301.965186 
L 297.484026 275.740995 
L 299.567466 290.187811 
L 301.583698 236.543741 
L 303.667138 237.180197 
L 305.68337 252.728063 
L 307.76681 240.29112 
L 309.85025 232.432193 
L 311.866482 251.516319 
L 313.949922 253.877932 
L 315.966155 278.991127 
L 318.049595 302.757846 
L 320.133034 286.707144 
L 322.014851 302.441104 
L 324.098291 296.202394 
L 326.114523 293.246149 
L 328.197963 284.05946 
L 330.214195 243.815618 
L 332.297635 237.49364 
L 334.381075 235.875419 
L 336.397307 249.695474 
L 338.480747 290.498608 
L 340.49698 296.884943 
L 342.58042 292.111857 
L 344.663859 294.729796 
L 346.545676 288.558168 
L 348.629116 289.083365 
L 350.645348 303.299918 
L 352.728788 298.802272 
L 354.74502 262.149179 
L 356.82846 245.166902 
L 358.9119 241.209864 
L 360.928133 256.77943 
L 363.011572 250.885722 
L 367.111245 295.745837 
L 369.194684 292.20379 
L 371.076501 295.617727 
L 373.159941 300.65104 
L 375.176173 288.623828 
L 377.259613 304.669695 
L 379.275845 274.268042 
L 381.359285 271.554523 
L 383.442725 238.155553 
L 385.458958 242.00076 
L 387.542397 252.370894 
L 389.55863 251.926609 
L 391.64207 246.730072 
L 393.725509 246.296633 
L 395.674534 295.62021 
L 397.757974 267.018572 
L 399.774206 232.985541 
L 401.857646 278.753172 
L 403.873878 250.686979 
L 405.957318 235.478784 
L 408.040758 228.784902 
L 410.05699 241.536528 
L 412.14043 302.188202 
L 414.156662 271.108527 
L 416.240102 247.325327 
L 418.323542 246.263284 
L 420.205359 283.762537 
L 422.288799 287.116645 
L 424.305031 262.738051 
L 426.388471 272.616568 
L 428.404703 244.015475 
L 430.488143 234.849667 
L 432.571583 234.795264 
L 434.587815 256.97231 
L 436.671255 249.852726 
L 438.687487 251.932797 
L 440.770927 258.859779 
L 442.854367 258.411806 
L 444.736184 287.688767 
L 446.819624 296.851408 
L 446.819624 296.851408 
" style="fill:none;stroke:#4682b4;stroke-linecap:square;stroke-width:1.5;"/>
   </g>
   <g id="patch_15">
    <path d="M 31.543 309.8635 
L 31.543 224.924017 
" style="fill:none;stroke:#000000;stroke-linecap:square;stroke-linejoin:miter;stroke-width:0.8;"/>
   </g>
   <g id="patch_16">
    <path d="M 446.819624 309.8635 
L 446.819624 224.924017 
" style="fill:none;stroke:#000000;stroke-linecap:square;stroke-linejoin:miter;stroke-width:0.8;"/>
   </g>
   <g id="patch_17">
    <path d="M 31.543 309.8635 
L 446.819624 309.8635 
" style="fill:none;stroke:#000000;stroke-linecap:square;stroke-linejoin:miter;stroke-width:0.8;"/>
   </g>
   <g id="patch_18">
    <path d="M 31.543 224.924017 
L 446.819624 224.924017 
" style="fill:none;stroke:#000000;stroke-linecap:square;stroke-linejoin:miter;stroke-width:0.8;"/>
   </g>
   <g id="legend_3">
    <g id="patch_19">
     <path d="M 38.543 276.232821 
L 124.327375 276.232821 
Q 126.327375 276.232821 126.327375 274.232821 
L 126.327375 260.554696 
Q 126.327375 258.554696 124.327375 258.554696 
L 38.543 258.554696 
Q 36.543 258.554696 36.543 260.554696 
L 36.543 274.232821 
Q 36.543 276.232821 38.543 276.232821 
z
" style="fill:#ffffff;opacity:0.8;stroke:#cccccc;stroke-linejoin:miter;"/>
    </g>
    <g id="line2d_80">
     <path d="M 40.543 266.653133 
L 60.543 266.653133 
" style="fill:none;stroke:#4682b4;stroke-linecap:square;stroke-width:1.5;"/>
    </g>
    <g id="line2d_81"/>
    <g id="text_23">
     <!-- CO2 (tons) -->
     <defs>
      <path d="M 64.40625 67.28125 
L 64.40625 56.890625 
Q 59.421875 61.53125 53.78125 63.8125 
Q 48.140625 66.109375 41.796875 66.109375 
Q 29.296875 66.109375 22.65625 58.46875 
Q 16.015625 50.828125 16.015625 36.375 
Q 16.015625 21.96875 22.65625 14.328125 
Q 29.296875 6.6875 41.796875 6.6875 
Q 48.140625 6.6875 53.78125 8.984375 
Q 59.421875 11.28125 64.40625 15.921875 
L 64.40625 5.609375 
Q 59.234375 2.09375 53.4375 0.328125 
Q 47.65625 -1.421875 41.21875 -1.421875 
Q 24.65625 -1.421875 15.125 8.703125 
Q 5.609375 18.84375 5.609375 36.375 
Q 5.609375 53.953125 15.125 64.078125 
Q 24.65625 74.21875 41.21875 74.21875 
Q 47.75 74.21875 53.53125 72.484375 
Q 59.328125 70.75 64.40625 67.28125 
z
" id="DejaVuSans-43"/>
     </defs>
     <g transform="translate(68.543 270.153133)scale(0.1 -0.1)">
      <use xlink:href="#DejaVuSans-43"/>
      <use x="69.824219" xlink:href="#DejaVuSans-4f"/>
      <use x="148.535156" xlink:href="#DejaVuSans-32"/>
      <use x="212.158203" xlink:href="#DejaVuSans-20"/>
      <use x="243.945312" xlink:href="#DejaVuSans-28"/>
      <use x="282.958984" xlink:href="#DejaVuSans-74"/>
      <use x="322.167969" xlink:href="#DejaVuSans-6f"/>
      <use x="383.349609" xlink:href="#DejaVuSans-6e"/>
      <use x="446.728516" xlink:href="#DejaVuSans-73"/>
      <use x="498.828125" xlink:href="#DejaVuSans-29"/>
     </g>
    </g>
   </g>
  </g>
 </g>
 <defs>
  <clipPath id="pd52f2faddc">
   <rect height="84.939483" width="415.276624" x="31.543" y="23.36505"/>
  </clipPath>
  <clipPath id="p94777d5aa0">
   <rect height="84.939483" width="415.276624" x="31.543" y="124.144533"/>
  </clipPath>
  <clipPath id="pb8de57ade6">
   <rect height="84.939483" width="415.276624" x="31.543" y="224.924017"/>
  </clipPath>
 </defs>
</svg>
