<?xml version="1.0" encoding="utf-8" standalone="no"?>
<!DOCTYPE svg PUBLIC "-//W3C//DTD SVG 1.1//EN"
  "http://www.w3.org/Graphics/SVG/1.1/DTD/svg11.dtd">
<!-- Created with matplotlib (http://matplotlib.org/) -->
<svg height="345.6pt" version="1.1" viewBox="0 0 460.8 345.6" width="460.8pt" xmlns="http://www.w3.org/2000/svg" xmlns:xlink="http://www.w3.org/1999/xlink">
 <defs>
  <style type="text/css">
*{stroke-linecap:butt;stroke-linejoin:round;}
  </style>
 </defs>
 <g id="figure_1">
  <g id="patch_1">
   <path d="M 0 345.6 
L 460.8 345.6 
L 460.8 0 
L 0 0 
z
" style="fill:none;"/>
  </g>
  <g id="axes_1">
   <g id="patch_2">
    <path d="M 40.705 108.304533 
L 447.48 108.304533 
L 447.48 23.36505 
L 40.705 23.36505 
z
" style="fill:none;"/>
   </g>
   <g id="matplotlib.axis_1">
    <g id="xtick_1">
     <g id="line2d_1">
      <path clip-path="url(#pac99880b66)" d="M 86.132967 108.304533 
L 86.132967 23.36505 
" style="fill:none;stroke:#b0b0b0;stroke-linecap:square;stroke-width:0.8;"/>
     </g>
     <g id="line2d_2">
      <defs>
       <path d="M 0 0 
L 0 3.5 
" id="m70a90e0f70" style="stroke:#000000;stroke-width:0.8;"/>
      </defs>
      <g>
       <use style="stroke:#000000;stroke-width:0.8;" x="86.132967" xlink:href="#m70a90e0f70" y="108.304533"/>
      </g>
     </g>
    </g>
    <g id="xtick_2">
     <g id="line2d_3">
      <path clip-path="url(#pac99880b66)" d="M 133.572745 108.304533 
L 133.572745 23.36505 
" style="fill:none;stroke:#b0b0b0;stroke-linecap:square;stroke-width:0.8;"/>
     </g>
     <g id="line2d_4">
      <g>
       <use style="stroke:#000000;stroke-width:0.8;" x="133.572745" xlink:href="#m70a90e0f70" y="108.304533"/>
      </g>
     </g>
    </g>
    <g id="xtick_3">
     <g id="line2d_5">
      <path clip-path="url(#pac99880b66)" d="M 180.947625 108.304533 
L 180.947625 23.36505 
" style="fill:none;stroke:#b0b0b0;stroke-linecap:square;stroke-width:0.8;"/>
     </g>
     <g id="line2d_6">
      <g>
       <use style="stroke:#000000;stroke-width:0.8;" x="180.947625" xlink:href="#m70a90e0f70" y="108.304533"/>
      </g>
     </g>
    </g>
    <g id="xtick_4">
     <g id="line2d_7">
      <path clip-path="url(#pac99880b66)" d="M 228.387403 108.304533 
L 228.387403 23.36505 
" style="fill:none;stroke:#b0b0b0;stroke-linecap:square;stroke-width:0.8;"/>
     </g>
     <g id="line2d_8">
      <g>
       <use style="stroke:#000000;stroke-width:0.8;" x="228.387403" xlink:href="#m70a90e0f70" y="108.304533"/>
      </g>
     </g>
    </g>
    <g id="xtick_5">
     <g id="line2d_9">
      <path clip-path="url(#pac99880b66)" d="M 275.762283 108.304533 
L 275.762283 23.36505 
" style="fill:none;stroke:#b0b0b0;stroke-linecap:square;stroke-width:0.8;"/>
     </g>
     <g id="line2d_10">
      <g>
       <use style="stroke:#000000;stroke-width:0.8;" x="275.762283" xlink:href="#m70a90e0f70" y="108.304533"/>
      </g>
     </g>
    </g>
    <g id="xtick_6">
     <g id="line2d_11">
      <path clip-path="url(#pac99880b66)" d="M 323.20206 108.304533 
L 323.20206 23.36505 
" style="fill:none;stroke:#b0b0b0;stroke-linecap:square;stroke-width:0.8;"/>
     </g>
     <g id="line2d_12">
      <g>
       <use style="stroke:#000000;stroke-width:0.8;" x="323.20206" xlink:href="#m70a90e0f70" y="108.304533"/>
      </g>
     </g>
    </g>
    <g id="xtick_7">
     <g id="line2d_13">
      <path clip-path="url(#pac99880b66)" d="M 370.576941 108.304533 
L 370.576941 23.36505 
" style="fill:none;stroke:#b0b0b0;stroke-linecap:square;stroke-width:0.8;"/>
     </g>
     <g id="line2d_14">
      <g>
       <use style="stroke:#000000;stroke-width:0.8;" x="370.576941" xlink:href="#m70a90e0f70" y="108.304533"/>
      </g>
     </g>
    </g>
    <g id="xtick_8">
     <g id="line2d_15">
      <path clip-path="url(#pac99880b66)" d="M 418.016718 108.304533 
L 418.016718 23.36505 
" style="fill:none;stroke:#b0b0b0;stroke-linecap:square;stroke-width:0.8;"/>
     </g>
     <g id="line2d_16">
      <g>
       <use style="stroke:#000000;stroke-width:0.8;" x="418.016718" xlink:href="#m70a90e0f70" y="108.304533"/>
      </g>
     </g>
    </g>
   </g>
   <g id="matplotlib.axis_2">
    <g id="ytick_1">
     <g id="line2d_17">
      <path clip-path="url(#pac99880b66)" d="M 40.705 75.49743 
L 447.48 75.49743 
" style="fill:none;stroke:#b0b0b0;stroke-linecap:square;stroke-width:0.8;"/>
     </g>
     <g id="line2d_18">
      <defs>
       <path d="M 0 0 
L -3.5 0 
" id="m7817405b46" style="stroke:#000000;stroke-width:0.8;"/>
      </defs>
      <g>
       <use style="stroke:#000000;stroke-width:0.8;" x="40.705" xlink:href="#m7817405b46" y="75.49743"/>
      </g>
     </g>
     <g id="text_1">
      <!-- 1000 -->
      <defs>
       <path d="M 12.40625 8.296875 
L 28.515625 8.296875 
L 28.515625 63.921875 
L 10.984375 60.40625 
L 10.984375 69.390625 
L 28.421875 72.90625 
L 38.28125 72.90625 
L 38.28125 8.296875 
L 54.390625 8.296875 
L 54.390625 0 
L 12.40625 0 
z
" id="DejaVuSans-31"/>
       <path d="M 31.78125 66.40625 
Q 24.171875 66.40625 20.328125 58.90625 
Q 16.5 51.421875 16.5 36.375 
Q 16.5 21.390625 20.328125 13.890625 
Q 24.171875 6.390625 31.78125 6.390625 
Q 39.453125 6.390625 43.28125 13.890625 
Q 47.125 21.390625 47.125 36.375 
Q 47.125 51.421875 43.28125 58.90625 
Q 39.453125 66.40625 31.78125 66.40625 
z
M 31.78125 74.21875 
Q 44.046875 74.21875 50.515625 64.515625 
Q 56.984375 54.828125 56.984375 36.375 
Q 56.984375 17.96875 50.515625 8.265625 
Q 44.046875 -1.421875 31.78125 -1.421875 
Q 19.53125 -1.421875 13.0625 8.265625 
Q 6.59375 17.96875 6.59375 36.375 
Q 6.59375 54.828125 13.0625 64.515625 
Q 19.53125 74.21875 31.78125 74.21875 
z
" id="DejaVuSans-30"/>
      </defs>
      <g transform="translate(8.255 79.296649)scale(0.1 -0.1)">
       <use xlink:href="#DejaVuSans-31"/>
       <use x="63.623047" xlink:href="#DejaVuSans-30"/>
       <use x="127.246094" xlink:href="#DejaVuSans-30"/>
       <use x="190.869141" xlink:href="#DejaVuSans-30"/>
      </g>
     </g>
    </g>
    <g id="ytick_2">
     <g id="line2d_19">
      <path clip-path="url(#pac99880b66)" d="M 40.705 33.756549 
L 447.48 33.756549 
" style="fill:none;stroke:#b0b0b0;stroke-linecap:square;stroke-width:0.8;"/>
     </g>
     <g id="line2d_20">
      <g>
       <use style="stroke:#000000;stroke-width:0.8;" x="40.705" xlink:href="#m7817405b46" y="33.756549"/>
      </g>
     </g>
     <g id="text_2">
      <!-- 2000 -->
      <defs>
       <path d="M 19.1875 8.296875 
L 53.609375 8.296875 
L 53.609375 0 
L 7.328125 0 
L 7.328125 8.296875 
Q 12.9375 14.109375 22.625 23.890625 
Q 32.328125 33.6875 34.8125 36.53125 
Q 39.546875 41.84375 41.421875 45.53125 
Q 43.3125 49.21875 43.3125 52.78125 
Q 43.3125 58.59375 39.234375 62.25 
Q 35.15625 65.921875 28.609375 65.921875 
Q 23.96875 65.921875 18.8125 64.3125 
Q 13.671875 62.703125 7.8125 59.421875 
L 7.8125 69.390625 
Q 13.765625 71.78125 18.9375 73 
Q 24.125 74.21875 28.421875 74.21875 
Q 39.75 74.21875 46.484375 68.546875 
Q 53.21875 62.890625 53.21875 53.421875 
Q 53.21875 48.921875 51.53125 44.890625 
Q 49.859375 40.875 45.40625 35.40625 
Q 44.1875 33.984375 37.640625 27.21875 
Q 31.109375 20.453125 19.1875 8.296875 
z
" id="DejaVuSans-32"/>
      </defs>
      <g transform="translate(8.255 37.555768)scale(0.1 -0.1)">
       <use xlink:href="#DejaVuSans-32"/>
       <use x="63.623047" xlink:href="#DejaVuSans-30"/>
       <use x="127.246094" xlink:href="#DejaVuSans-30"/>
       <use x="190.869141" xlink:href="#DejaVuSans-30"/>
      </g>
     </g>
    </g>
   </g>
   <g id="line2d_21">
    <path clip-path="url(#pac99880b66)" d="M 40.705 81.870312 
L 42.522119 80.865522 
L 44.533929 84.977605 
L 46.480842 74.906652 
L 48.492652 75.291996 
L 50.439564 76.923795 
L 52.451374 75.485376 
L 54.463184 80.332079 
L 56.410097 92.693949 
L 58.421907 77.263855 
L 60.36882 75.795935 
L 62.38063 75.608126 
L 64.39244 76.835483 
L 66.209559 78.175396 
L 68.221369 72.914213 
L 70.168282 81.071641 
L 72.180092 83.417454 
L 74.127005 84.114914 
L 76.138815 80.63913 
L 78.150625 84.328043 
L 80.097537 82.151789 
L 82.109347 73.612071 
L 84.05626 74.794069 
L 86.06807 76.654737 
L 88.07988 81.372544 
L 89.896999 90.298491 
L 91.908809 91.11985 
L 93.855722 90.241373 
L 95.867532 80.433358 
L 97.814445 83.023207 
L 99.826255 78.79561 
L 101.838065 81.457412 
L 103.784978 86.47157 
L 105.796788 84.005593 
L 107.743701 84.307527 
L 109.755511 89.411006 
L 111.767321 89.088188 
L 113.649336 92.44054 
L 115.661146 85.066641 
L 117.608059 75.310072 
L 119.619869 84.66028 
L 121.566782 72.662961 
L 123.578592 80.205023 
L 125.590402 80.183021 
L 127.537315 78.12692 
L 129.549125 74.980172 
L 131.496038 73.815732 
L 133.507848 73.59791 
L 135.519658 78.548045 
L 137.336776 92.766231 
L 139.348586 84.839818 
L 141.295499 79.043134 
L 143.307309 78.517605 
L 145.254222 78.823466 
L 147.266032 75.341755 
L 149.277842 81.919013 
L 151.224755 80.875733 
L 153.236565 73.907808 
L 155.183478 77.217507 
L 157.195288 75.223163 
L 159.207098 80.663785 
L 161.024217 90.680655 
L 163.036027 70.287393 
L 164.98294 79.367269 
L 166.99475 77.074052 
L 168.941662 74.674333 
L 170.953472 76.945013 
L 172.965282 80.005969 
L 174.912195 80.98465 
L 176.924005 86.853122 
L 178.870918 80.310338 
L 180.882728 90.277736 
L 182.894538 82.953232 
L 184.711657 77.349722 
L 186.723467 75.496964 
L 188.67038 71.90303 
L 190.68219 72.721551 
L 192.629103 76.364354 
L 194.640913 77.901663 
L 196.652723 66.950385 
L 198.599635 67.638164 
L 200.611445 77.975786 
L 202.558358 74.999911 
L 204.570168 77.162337 
L 206.581978 82.366856 
L 208.463994 96.840281 
L 210.475804 78.448076 
L 214.434527 74.329838 
L 216.38144 69.913884 
L 218.39325 79.378262 
L 220.40506 76.004346 
L 222.351973 76.742374 
L 224.363783 81.02973 
L 226.310696 93.276775 
L 228.322506 87.740051 
L 230.334316 83.306151 
L 232.151434 95.067264 
L 234.163244 82.914387 
L 236.110157 72.546758 
L 238.121967 63.160111 
L 240.06888 69.097181 
L 242.08069 65.961205 
L 244.0925 65.492919 
L 246.039413 67.259457 
L 248.051223 79.621911 
L 249.998136 73.920139 
L 252.009946 64.642114 
L 254.021756 66.062433 
L 255.838874 88.470676 
L 257.850684 85.610623 
L 259.797597 79.731043 
L 261.809407 64.92863 
L 263.75632 64.708418 
L 265.76813 59.268079 
L 267.77994 67.540615 
L 269.726853 27.225936 
L 271.738663 79.164325 
L 273.685576 68.430161 
L 275.697386 73.548055 
L 277.709196 75.36269 
L 279.526315 83.297475 
L 281.538125 84.128439 
L 283.485037 76.782513 
L 285.496847 70.873963 
L 287.44376 68.267964 
L 289.45557 71.00262 
L 291.46738 66.626462 
L 293.414293 71.353924 
L 295.426103 73.056049 
L 297.373016 69.203974 
L 299.384826 66.783464 
L 301.396636 71.621967 
L 303.278652 88.922778 
L 305.290462 75.923118 
L 307.237375 80.806865 
L 309.249185 78.508685 
L 311.196098 77.493995 
L 313.207908 78.845489 
L 315.219718 71.320487 
L 317.166631 73.841759 
L 319.17844 73.402721 
L 321.125353 68.565828 
L 323.137163 66.366672 
L 325.148973 72.354566 
L 326.966092 83.45934 
L 328.977902 73.074398 
L 330.924815 69.800269 
L 332.936625 69.769441 
L 334.883538 75.742387 
L 336.895348 73.637049 
L 338.907158 69.801001 
L 340.854071 70.844847 
L 342.865881 69.332055 
L 344.812794 71.693136 
L 346.824604 75.945429 
L 348.836414 71.135223 
L 350.653532 84.751762 
L 352.665342 66.86881 
L 354.612255 69.827948 
L 356.624065 73.737898 
L 358.570978 58.314101 
L 360.582788 56.573914 
L 362.594598 53.317875 
L 364.541511 53.21202 
L 366.553321 53.790398 
L 368.500234 64.898614 
L 370.512044 54.384444 
L 372.523854 69.81125 
L 374.340972 90.561684 
L 376.352782 81.848934 
L 378.299695 90.23402 
L 380.311505 74.047008 
L 382.258418 79.409506 
L 384.270228 77.504172 
L 386.282038 78.103162 
L 388.228951 86.482081 
L 390.240761 79.608172 
L 392.187674 87.456473 
L 394.199484 82.213622 
L 396.211294 82.843645 
L 398.09331 96.999202 
L 400.10512 104.443648 
L 402.052033 92.119898 
L 404.063843 92.811996 
L 406.010755 89.673706 
L 408.022565 70.488191 
L 410.034375 73.618002 
L 411.981288 72.82608 
L 413.993098 72.691124 
L 415.940011 80.269503 
L 417.951821 70.144519 
L 419.963631 76.827612 
L 421.78075 78.559667 
L 423.79256 79.477008 
L 425.739473 78.427108 
L 427.751283 76.79413 
L 429.698196 84.454567 
L 431.710006 64.540651 
L 433.721816 64.200928 
L 435.668728 56.871678 
L 437.680538 56.785073 
L 439.627451 44.558127 
L 441.639261 70.34314 
L 443.651071 61.588749 
L 445.46819 60.537486 
L 447.48 62.170346 
L 447.48 62.170346 
" style="fill:none;stroke:#008000;stroke-linecap:square;stroke-width:1.5;"/>
   </g>
   <g id="patch_3">
    <path d="M 40.705 108.304533 
L 40.705 23.36505 
" style="fill:none;stroke:#000000;stroke-linecap:square;stroke-linejoin:miter;stroke-width:0.8;"/>
   </g>
   <g id="patch_4">
    <path d="M 447.48 108.304533 
L 447.48 23.36505 
" style="fill:none;stroke:#000000;stroke-linecap:square;stroke-linejoin:miter;stroke-width:0.8;"/>
   </g>
   <g id="patch_5">
    <path d="M 40.705 108.304533 
L 447.48 108.304533 
" style="fill:none;stroke:#000000;stroke-linecap:square;stroke-linejoin:miter;stroke-width:0.8;"/>
   </g>
   <g id="patch_6">
    <path d="M 40.705 23.36505 
L 447.48 23.36505 
" style="fill:none;stroke:#000000;stroke-linecap:square;stroke-linejoin:miter;stroke-width:0.8;"/>
   </g>
   <g id="text_3">
    <!-- Average monthly emissions -->
    <defs>
     <path d="M 34.1875 63.1875 
L 20.796875 26.90625 
L 47.609375 26.90625 
z
M 28.609375 72.90625 
L 39.796875 72.90625 
L 67.578125 0 
L 57.328125 0 
L 50.6875 18.703125 
L 17.828125 18.703125 
L 11.1875 0 
L 0.78125 0 
z
" id="DejaVuSans-41"/>
     <path d="M 2.984375 54.6875 
L 12.5 54.6875 
L 29.59375 8.796875 
L 46.6875 54.6875 
L 56.203125 54.6875 
L 35.6875 0 
L 23.484375 0 
z
" id="DejaVuSans-76"/>
     <path d="M 56.203125 29.59375 
L 56.203125 25.203125 
L 14.890625 25.203125 
Q 15.484375 15.921875 20.484375 11.0625 
Q 25.484375 6.203125 34.421875 6.203125 
Q 39.59375 6.203125 44.453125 7.46875 
Q 49.3125 8.734375 54.109375 11.28125 
L 54.109375 2.78125 
Q 49.265625 0.734375 44.1875 -0.34375 
Q 39.109375 -1.421875 33.890625 -1.421875 
Q 20.796875 -1.421875 13.15625 6.1875 
Q 5.515625 13.8125 5.515625 26.8125 
Q 5.515625 40.234375 12.765625 48.109375 
Q 20.015625 56 32.328125 56 
Q 43.359375 56 49.78125 48.890625 
Q 56.203125 41.796875 56.203125 29.59375 
z
M 47.21875 32.234375 
Q 47.125 39.59375 43.09375 43.984375 
Q 39.0625 48.390625 32.421875 48.390625 
Q 24.90625 48.390625 20.390625 44.140625 
Q 15.875 39.890625 15.1875 32.171875 
z
" id="DejaVuSans-65"/>
     <path d="M 41.109375 46.296875 
Q 39.59375 47.171875 37.8125 47.578125 
Q 36.03125 48 33.890625 48 
Q 26.265625 48 22.1875 43.046875 
Q 18.109375 38.09375 18.109375 28.8125 
L 18.109375 0 
L 9.078125 0 
L 9.078125 54.6875 
L 18.109375 54.6875 
L 18.109375 46.1875 
Q 20.953125 51.171875 25.484375 53.578125 
Q 30.03125 56 36.53125 56 
Q 37.453125 56 38.578125 55.875 
Q 39.703125 55.765625 41.0625 55.515625 
z
" id="DejaVuSans-72"/>
     <path d="M 34.28125 27.484375 
Q 23.390625 27.484375 19.1875 25 
Q 14.984375 22.515625 14.984375 16.5 
Q 14.984375 11.71875 18.140625 8.90625 
Q 21.296875 6.109375 26.703125 6.109375 
Q 34.1875 6.109375 38.703125 11.40625 
Q 43.21875 16.703125 43.21875 25.484375 
L 43.21875 27.484375 
z
M 52.203125 31.203125 
L 52.203125 0 
L 43.21875 0 
L 43.21875 8.296875 
Q 40.140625 3.328125 35.546875 0.953125 
Q 30.953125 -1.421875 24.3125 -1.421875 
Q 15.921875 -1.421875 10.953125 3.296875 
Q 6 8.015625 6 15.921875 
Q 6 25.140625 12.171875 29.828125 
Q 18.359375 34.515625 30.609375 34.515625 
L 43.21875 34.515625 
L 43.21875 35.40625 
Q 43.21875 41.609375 39.140625 45 
Q 35.0625 48.390625 27.6875 48.390625 
Q 23 48.390625 18.546875 47.265625 
Q 14.109375 46.140625 10.015625 43.890625 
L 10.015625 52.203125 
Q 14.9375 54.109375 19.578125 55.046875 
Q 24.21875 56 28.609375 56 
Q 40.484375 56 46.34375 49.84375 
Q 52.203125 43.703125 52.203125 31.203125 
z
" id="DejaVuSans-61"/>
     <path d="M 45.40625 27.984375 
Q 45.40625 37.75 41.375 43.109375 
Q 37.359375 48.484375 30.078125 48.484375 
Q 22.859375 48.484375 18.828125 43.109375 
Q 14.796875 37.75 14.796875 27.984375 
Q 14.796875 18.265625 18.828125 12.890625 
Q 22.859375 7.515625 30.078125 7.515625 
Q 37.359375 7.515625 41.375 12.890625 
Q 45.40625 18.265625 45.40625 27.984375 
z
M 54.390625 6.78125 
Q 54.390625 -7.171875 48.1875 -13.984375 
Q 42 -20.796875 29.203125 -20.796875 
Q 24.46875 -20.796875 20.265625 -20.09375 
Q 16.0625 -19.390625 12.109375 -17.921875 
L 12.109375 -9.1875 
Q 16.0625 -11.328125 19.921875 -12.34375 
Q 23.78125 -13.375 27.78125 -13.375 
Q 36.625 -13.375 41.015625 -8.765625 
Q 45.40625 -4.15625 45.40625 5.171875 
L 45.40625 9.625 
Q 42.625 4.78125 38.28125 2.390625 
Q 33.9375 0 27.875 0 
Q 17.828125 0 11.671875 7.65625 
Q 5.515625 15.328125 5.515625 27.984375 
Q 5.515625 40.671875 11.671875 48.328125 
Q 17.828125 56 27.875 56 
Q 33.9375 56 38.28125 53.609375 
Q 42.625 51.21875 45.40625 46.390625 
L 45.40625 54.6875 
L 54.390625 54.6875 
z
" id="DejaVuSans-67"/>
     <path id="DejaVuSans-20"/>
     <path d="M 52 44.1875 
Q 55.375 50.25 60.0625 53.125 
Q 64.75 56 71.09375 56 
Q 79.640625 56 84.28125 50.015625 
Q 88.921875 44.046875 88.921875 33.015625 
L 88.921875 0 
L 79.890625 0 
L 79.890625 32.71875 
Q 79.890625 40.578125 77.09375 44.375 
Q 74.3125 48.1875 68.609375 48.1875 
Q 61.625 48.1875 57.5625 43.546875 
Q 53.515625 38.921875 53.515625 30.90625 
L 53.515625 0 
L 44.484375 0 
L 44.484375 32.71875 
Q 44.484375 40.625 41.703125 44.40625 
Q 38.921875 48.1875 33.109375 48.1875 
Q 26.21875 48.1875 22.15625 43.53125 
Q 18.109375 38.875 18.109375 30.90625 
L 18.109375 0 
L 9.078125 0 
L 9.078125 54.6875 
L 18.109375 54.6875 
L 18.109375 46.1875 
Q 21.1875 51.21875 25.484375 53.609375 
Q 29.78125 56 35.6875 56 
Q 41.65625 56 45.828125 52.96875 
Q 50 49.953125 52 44.1875 
z
" id="DejaVuSans-6d"/>
     <path d="M 30.609375 48.390625 
Q 23.390625 48.390625 19.1875 42.75 
Q 14.984375 37.109375 14.984375 27.296875 
Q 14.984375 17.484375 19.15625 11.84375 
Q 23.34375 6.203125 30.609375 6.203125 
Q 37.796875 6.203125 41.984375 11.859375 
Q 46.1875 17.53125 46.1875 27.296875 
Q 46.1875 37.015625 41.984375 42.703125 
Q 37.796875 48.390625 30.609375 48.390625 
z
M 30.609375 56 
Q 42.328125 56 49.015625 48.375 
Q 55.71875 40.765625 55.71875 27.296875 
Q 55.71875 13.875 49.015625 6.21875 
Q 42.328125 -1.421875 30.609375 -1.421875 
Q 18.84375 -1.421875 12.171875 6.21875 
Q 5.515625 13.875 5.515625 27.296875 
Q 5.515625 40.765625 12.171875 48.375 
Q 18.84375 56 30.609375 56 
z
" id="DejaVuSans-6f"/>
     <path d="M 54.890625 33.015625 
L 54.890625 0 
L 45.90625 0 
L 45.90625 32.71875 
Q 45.90625 40.484375 42.875 44.328125 
Q 39.84375 48.1875 33.796875 48.1875 
Q 26.515625 48.1875 22.3125 43.546875 
Q 18.109375 38.921875 18.109375 30.90625 
L 18.109375 0 
L 9.078125 0 
L 9.078125 54.6875 
L 18.109375 54.6875 
L 18.109375 46.1875 
Q 21.34375 51.125 25.703125 53.5625 
Q 30.078125 56 35.796875 56 
Q 45.21875 56 50.046875 50.171875 
Q 54.890625 44.34375 54.890625 33.015625 
z
" id="DejaVuSans-6e"/>
     <path d="M 18.3125 70.21875 
L 18.3125 54.6875 
L 36.8125 54.6875 
L 36.8125 47.703125 
L 18.3125 47.703125 
L 18.3125 18.015625 
Q 18.3125 11.328125 20.140625 9.421875 
Q 21.96875 7.515625 27.59375 7.515625 
L 36.8125 7.515625 
L 36.8125 0 
L 27.59375 0 
Q 17.1875 0 13.234375 3.875 
Q 9.28125 7.765625 9.28125 18.015625 
L 9.28125 47.703125 
L 2.6875 47.703125 
L 2.6875 54.6875 
L 9.28125 54.6875 
L 9.28125 70.21875 
z
" id="DejaVuSans-74"/>
     <path d="M 54.890625 33.015625 
L 54.890625 0 
L 45.90625 0 
L 45.90625 32.71875 
Q 45.90625 40.484375 42.875 44.328125 
Q 39.84375 48.1875 33.796875 48.1875 
Q 26.515625 48.1875 22.3125 43.546875 
Q 18.109375 38.921875 18.109375 30.90625 
L 18.109375 0 
L 9.078125 0 
L 9.078125 75.984375 
L 18.109375 75.984375 
L 18.109375 46.1875 
Q 21.34375 51.125 25.703125 53.5625 
Q 30.078125 56 35.796875 56 
Q 45.21875 56 50.046875 50.171875 
Q 54.890625 44.34375 54.890625 33.015625 
z
" id="DejaVuSans-68"/>
     <path d="M 9.421875 75.984375 
L 18.40625 75.984375 
L 18.40625 0 
L 9.421875 0 
z
" id="DejaVuSans-6c"/>
     <path d="M 32.171875 -5.078125 
Q 28.375 -14.84375 24.75 -17.8125 
Q 21.140625 -20.796875 15.09375 -20.796875 
L 7.90625 -20.796875 
L 7.90625 -13.28125 
L 13.1875 -13.28125 
Q 16.890625 -13.28125 18.9375 -11.515625 
Q 21 -9.765625 23.484375 -3.21875 
L 25.09375 0.875 
L 2.984375 54.6875 
L 12.5 54.6875 
L 29.59375 11.921875 
L 46.6875 54.6875 
L 56.203125 54.6875 
z
" id="DejaVuSans-79"/>
     <path d="M 9.421875 54.6875 
L 18.40625 54.6875 
L 18.40625 0 
L 9.421875 0 
z
M 9.421875 75.984375 
L 18.40625 75.984375 
L 18.40625 64.59375 
L 9.421875 64.59375 
z
" id="DejaVuSans-69"/>
     <path d="M 44.28125 53.078125 
L 44.28125 44.578125 
Q 40.484375 46.53125 36.375 47.5 
Q 32.28125 48.484375 27.875 48.484375 
Q 21.1875 48.484375 17.84375 46.4375 
Q 14.5 44.390625 14.5 40.28125 
Q 14.5 37.15625 16.890625 35.375 
Q 19.28125 33.59375 26.515625 31.984375 
L 29.59375 31.296875 
Q 39.15625 29.25 43.1875 25.515625 
Q 47.21875 21.78125 47.21875 15.09375 
Q 47.21875 7.46875 41.1875 3.015625 
Q 35.15625 -1.421875 24.609375 -1.421875 
Q 20.21875 -1.421875 15.453125 -0.5625 
Q 10.6875 0.296875 5.421875 2 
L 5.421875 11.28125 
Q 10.40625 8.6875 15.234375 7.390625 
Q 20.0625 6.109375 24.8125 6.109375 
Q 31.15625 6.109375 34.5625 8.28125 
Q 37.984375 10.453125 37.984375 14.40625 
Q 37.984375 18.0625 35.515625 20.015625 
Q 33.0625 21.96875 24.703125 23.78125 
L 21.578125 24.515625 
Q 13.234375 26.265625 9.515625 29.90625 
Q 5.8125 33.546875 5.8125 39.890625 
Q 5.8125 47.609375 11.28125 51.796875 
Q 16.75 56 26.8125 56 
Q 31.78125 56 36.171875 55.265625 
Q 40.578125 54.546875 44.28125 53.078125 
z
" id="DejaVuSans-73"/>
    </defs>
    <g transform="translate(160.88 17.36505)scale(0.12 -0.12)">
     <use xlink:href="#DejaVuSans-41"/>
     <use x="68.330078" xlink:href="#DejaVuSans-76"/>
     <use x="127.509766" xlink:href="#DejaVuSans-65"/>
     <use x="189.033203" xlink:href="#DejaVuSans-72"/>
     <use x="230.146484" xlink:href="#DejaVuSans-61"/>
     <use x="291.425781" xlink:href="#DejaVuSans-67"/>
     <use x="354.902344" xlink:href="#DejaVuSans-65"/>
     <use x="416.425781" xlink:href="#DejaVuSans-20"/>
     <use x="448.212891" xlink:href="#DejaVuSans-6d"/>
     <use x="545.625" xlink:href="#DejaVuSans-6f"/>
     <use x="606.806641" xlink:href="#DejaVuSans-6e"/>
     <use x="670.185547" xlink:href="#DejaVuSans-74"/>
     <use x="709.394531" xlink:href="#DejaVuSans-68"/>
     <use x="772.773438" xlink:href="#DejaVuSans-6c"/>
     <use x="800.556641" xlink:href="#DejaVuSans-79"/>
     <use x="859.736328" xlink:href="#DejaVuSans-20"/>
     <use x="891.523438" xlink:href="#DejaVuSans-65"/>
     <use x="953.046875" xlink:href="#DejaVuSans-6d"/>
     <use x="1050.458984" xlink:href="#DejaVuSans-69"/>
     <use x="1078.242188" xlink:href="#DejaVuSans-73"/>
     <use x="1130.341797" xlink:href="#DejaVuSans-73"/>
     <use x="1182.441406" xlink:href="#DejaVuSans-69"/>
     <use x="1210.224609" xlink:href="#DejaVuSans-6f"/>
     <use x="1271.40625" xlink:href="#DejaVuSans-6e"/>
     <use x="1334.785156" xlink:href="#DejaVuSans-73"/>
    </g>
   </g>
   <g id="legend_1">
    <g id="patch_7">
     <path d="M 47.705 46.043175 
L 125.605 46.043175 
Q 127.605 46.043175 127.605 44.043175 
L 127.605 30.36505 
Q 127.605 28.36505 125.605 28.36505 
L 47.705 28.36505 
Q 45.705 28.36505 45.705 30.36505 
L 45.705 44.043175 
Q 45.705 46.043175 47.705 46.043175 
z
" style="fill:#ffffff;opacity:0.8;stroke:#cccccc;stroke-linejoin:miter;"/>
    </g>
    <g id="line2d_22">
     <path d="M 49.705 36.463488 
L 69.705 36.463488 
" style="fill:none;stroke:#008000;stroke-linecap:square;stroke-width:1.5;"/>
    </g>
    <g id="line2d_23"/>
    <g id="text_4">
     <!-- SO2 (lbs) -->
     <defs>
      <path d="M 53.515625 70.515625 
L 53.515625 60.890625 
Q 47.90625 63.578125 42.921875 64.890625 
Q 37.9375 66.21875 33.296875 66.21875 
Q 25.25 66.21875 20.875 63.09375 
Q 16.5 59.96875 16.5 54.203125 
Q 16.5 49.359375 19.40625 46.890625 
Q 22.3125 44.4375 30.421875 42.921875 
L 36.375 41.703125 
Q 47.40625 39.59375 52.65625 34.296875 
Q 57.90625 29 57.90625 20.125 
Q 57.90625 9.515625 50.796875 4.046875 
Q 43.703125 -1.421875 29.984375 -1.421875 
Q 24.8125 -1.421875 18.96875 -0.25 
Q 13.140625 0.921875 6.890625 3.21875 
L 6.890625 13.375 
Q 12.890625 10.015625 18.65625 8.296875 
Q 24.421875 6.59375 29.984375 6.59375 
Q 38.421875 6.59375 43.015625 9.90625 
Q 47.609375 13.234375 47.609375 19.390625 
Q 47.609375 24.75 44.3125 27.78125 
Q 41.015625 30.8125 33.5 32.328125 
L 27.484375 33.5 
Q 16.453125 35.6875 11.515625 40.375 
Q 6.59375 45.0625 6.59375 53.421875 
Q 6.59375 63.09375 13.40625 68.65625 
Q 20.21875 74.21875 32.171875 74.21875 
Q 37.3125 74.21875 42.625 73.28125 
Q 47.953125 72.359375 53.515625 70.515625 
z
" id="DejaVuSans-53"/>
      <path d="M 39.40625 66.21875 
Q 28.65625 66.21875 22.328125 58.203125 
Q 16.015625 50.203125 16.015625 36.375 
Q 16.015625 22.609375 22.328125 14.59375 
Q 28.65625 6.59375 39.40625 6.59375 
Q 50.140625 6.59375 56.421875 14.59375 
Q 62.703125 22.609375 62.703125 36.375 
Q 62.703125 50.203125 56.421875 58.203125 
Q 50.140625 66.21875 39.40625 66.21875 
z
M 39.40625 74.21875 
Q 54.734375 74.21875 63.90625 63.9375 
Q 73.09375 53.65625 73.09375 36.375 
Q 73.09375 19.140625 63.90625 8.859375 
Q 54.734375 -1.421875 39.40625 -1.421875 
Q 24.03125 -1.421875 14.8125 8.828125 
Q 5.609375 19.09375 5.609375 36.375 
Q 5.609375 53.65625 14.8125 63.9375 
Q 24.03125 74.21875 39.40625 74.21875 
z
" id="DejaVuSans-4f"/>
      <path d="M 31 75.875 
Q 24.46875 64.65625 21.28125 53.65625 
Q 18.109375 42.671875 18.109375 31.390625 
Q 18.109375 20.125 21.3125 9.0625 
Q 24.515625 -2 31 -13.1875 
L 23.1875 -13.1875 
Q 15.875 -1.703125 12.234375 9.375 
Q 8.59375 20.453125 8.59375 31.390625 
Q 8.59375 42.28125 12.203125 53.3125 
Q 15.828125 64.359375 23.1875 75.875 
z
" id="DejaVuSans-28"/>
      <path d="M 48.6875 27.296875 
Q 48.6875 37.203125 44.609375 42.84375 
Q 40.53125 48.484375 33.40625 48.484375 
Q 26.265625 48.484375 22.1875 42.84375 
Q 18.109375 37.203125 18.109375 27.296875 
Q 18.109375 17.390625 22.1875 11.75 
Q 26.265625 6.109375 33.40625 6.109375 
Q 40.53125 6.109375 44.609375 11.75 
Q 48.6875 17.390625 48.6875 27.296875 
z
M 18.109375 46.390625 
Q 20.953125 51.265625 25.265625 53.625 
Q 29.59375 56 35.59375 56 
Q 45.5625 56 51.78125 48.09375 
Q 58.015625 40.1875 58.015625 27.296875 
Q 58.015625 14.40625 51.78125 6.484375 
Q 45.5625 -1.421875 35.59375 -1.421875 
Q 29.59375 -1.421875 25.265625 0.953125 
Q 20.953125 3.328125 18.109375 8.203125 
L 18.109375 0 
L 9.078125 0 
L 9.078125 75.984375 
L 18.109375 75.984375 
z
" id="DejaVuSans-62"/>
      <path d="M 8.015625 75.875 
L 15.828125 75.875 
Q 23.140625 64.359375 26.78125 53.3125 
Q 30.421875 42.28125 30.421875 31.390625 
Q 30.421875 20.453125 26.78125 9.375 
Q 23.140625 -1.703125 15.828125 -13.1875 
L 8.015625 -13.1875 
Q 14.5 -2 17.703125 9.0625 
Q 20.90625 20.125 20.90625 31.390625 
Q 20.90625 42.671875 17.703125 53.65625 
Q 14.5 64.65625 8.015625 75.875 
z
" id="DejaVuSans-29"/>
     </defs>
     <g transform="translate(77.705 39.963488)scale(0.1 -0.1)">
      <use xlink:href="#DejaVuSans-53"/>
      <use x="63.476562" xlink:href="#DejaVuSans-4f"/>
      <use x="142.1875" xlink:href="#DejaVuSans-32"/>
      <use x="205.810547" xlink:href="#DejaVuSans-20"/>
      <use x="237.597656" xlink:href="#DejaVuSans-28"/>
      <use x="276.611328" xlink:href="#DejaVuSans-6c"/>
      <use x="304.394531" xlink:href="#DejaVuSans-62"/>
      <use x="367.871094" xlink:href="#DejaVuSans-73"/>
      <use x="419.970703" xlink:href="#DejaVuSans-29"/>
     </g>
    </g>
   </g>
  </g>
  <g id="axes_2">
   <g id="patch_8">
    <path d="M 40.705 209.084017 
L 447.48 209.084017 
L 447.48 124.144533 
L 40.705 124.144533 
z
" style="fill:none;"/>
   </g>
   <g id="matplotlib.axis_3">
    <g id="xtick_9">
     <g id="line2d_24">
      <path clip-path="url(#pbf0a52d422)" d="M 86.132967 209.084017 
L 86.132967 124.144533 
" style="fill:none;stroke:#b0b0b0;stroke-linecap:square;stroke-width:0.8;"/>
     </g>
     <g id="line2d_25">
      <g>
       <use style="stroke:#000000;stroke-width:0.8;" x="86.132967" xlink:href="#m70a90e0f70" y="209.084017"/>
      </g>
     </g>
    </g>
    <g id="xtick_10">
     <g id="line2d_26">
      <path clip-path="url(#pbf0a52d422)" d="M 133.572745 209.084017 
L 133.572745 124.144533 
" style="fill:none;stroke:#b0b0b0;stroke-linecap:square;stroke-width:0.8;"/>
     </g>
     <g id="line2d_27">
      <g>
       <use style="stroke:#000000;stroke-width:0.8;" x="133.572745" xlink:href="#m70a90e0f70" y="209.084017"/>
      </g>
     </g>
    </g>
    <g id="xtick_11">
     <g id="line2d_28">
      <path clip-path="url(#pbf0a52d422)" d="M 180.947625 209.084017 
L 180.947625 124.144533 
" style="fill:none;stroke:#b0b0b0;stroke-linecap:square;stroke-width:0.8;"/>
     </g>
     <g id="line2d_29">
      <g>
       <use style="stroke:#000000;stroke-width:0.8;" x="180.947625" xlink:href="#m70a90e0f70" y="209.084017"/>
      </g>
     </g>
    </g>
    <g id="xtick_12">
     <g id="line2d_30">
      <path clip-path="url(#pbf0a52d422)" d="M 228.387403 209.084017 
L 228.387403 124.144533 
" style="fill:none;stroke:#b0b0b0;stroke-linecap:square;stroke-width:0.8;"/>
     </g>
     <g id="line2d_31">
      <g>
       <use style="stroke:#000000;stroke-width:0.8;" x="228.387403" xlink:href="#m70a90e0f70" y="209.084017"/>
      </g>
     </g>
    </g>
    <g id="xtick_13">
     <g id="line2d_32">
      <path clip-path="url(#pbf0a52d422)" d="M 275.762283 209.084017 
L 275.762283 124.144533 
" style="fill:none;stroke:#b0b0b0;stroke-linecap:square;stroke-width:0.8;"/>
     </g>
     <g id="line2d_33">
      <g>
       <use style="stroke:#000000;stroke-width:0.8;" x="275.762283" xlink:href="#m70a90e0f70" y="209.084017"/>
      </g>
     </g>
    </g>
    <g id="xtick_14">
     <g id="line2d_34">
      <path clip-path="url(#pbf0a52d422)" d="M 323.20206 209.084017 
L 323.20206 124.144533 
" style="fill:none;stroke:#b0b0b0;stroke-linecap:square;stroke-width:0.8;"/>
     </g>
     <g id="line2d_35">
      <g>
       <use style="stroke:#000000;stroke-width:0.8;" x="323.20206" xlink:href="#m70a90e0f70" y="209.084017"/>
      </g>
     </g>
    </g>
    <g id="xtick_15">
     <g id="line2d_36">
      <path clip-path="url(#pbf0a52d422)" d="M 370.576941 209.084017 
L 370.576941 124.144533 
" style="fill:none;stroke:#b0b0b0;stroke-linecap:square;stroke-width:0.8;"/>
     </g>
     <g id="line2d_37">
      <g>
       <use style="stroke:#000000;stroke-width:0.8;" x="370.576941" xlink:href="#m70a90e0f70" y="209.084017"/>
      </g>
     </g>
    </g>
    <g id="xtick_16">
     <g id="line2d_38">
      <path clip-path="url(#pbf0a52d422)" d="M 418.016718 209.084017 
L 418.016718 124.144533 
" style="fill:none;stroke:#b0b0b0;stroke-linecap:square;stroke-width:0.8;"/>
     </g>
     <g id="line2d_39">
      <g>
       <use style="stroke:#000000;stroke-width:0.8;" x="418.016718" xlink:href="#m70a90e0f70" y="209.084017"/>
      </g>
     </g>
    </g>
   </g>
   <g id="matplotlib.axis_4">
    <g id="ytick_3">
     <g id="line2d_40">
      <path clip-path="url(#pbf0a52d422)" d="M 40.705 193.044351 
L 447.48 193.044351 
" style="fill:none;stroke:#b0b0b0;stroke-linecap:square;stroke-width:0.8;"/>
     </g>
     <g id="line2d_41">
      <g>
       <use style="stroke:#000000;stroke-width:0.8;" x="40.705" xlink:href="#m7817405b46" y="193.044351"/>
      </g>
     </g>
     <g id="text_5">
      <!-- 2500 -->
      <defs>
       <path d="M 10.796875 72.90625 
L 49.515625 72.90625 
L 49.515625 64.59375 
L 19.828125 64.59375 
L 19.828125 46.734375 
Q 21.96875 47.46875 24.109375 47.828125 
Q 26.265625 48.1875 28.421875 48.1875 
Q 40.625 48.1875 47.75 41.5 
Q 54.890625 34.8125 54.890625 23.390625 
Q 54.890625 11.625 47.5625 5.09375 
Q 40.234375 -1.421875 26.90625 -1.421875 
Q 22.3125 -1.421875 17.546875 -0.640625 
Q 12.796875 0.140625 7.71875 1.703125 
L 7.71875 11.625 
Q 12.109375 9.234375 16.796875 8.0625 
Q 21.484375 6.890625 26.703125 6.890625 
Q 35.15625 6.890625 40.078125 11.328125 
Q 45.015625 15.765625 45.015625 23.390625 
Q 45.015625 31 40.078125 35.4375 
Q 35.15625 39.890625 26.703125 39.890625 
Q 22.75 39.890625 18.8125 39.015625 
Q 14.890625 38.140625 10.796875 36.28125 
z
" id="DejaVuSans-35"/>
      </defs>
      <g transform="translate(8.255 196.84357)scale(0.1 -0.1)">
       <use xlink:href="#DejaVuSans-32"/>
       <use x="63.623047" xlink:href="#DejaVuSans-35"/>
       <use x="127.246094" xlink:href="#DejaVuSans-30"/>
       <use x="190.869141" xlink:href="#DejaVuSans-30"/>
      </g>
     </g>
    </g>
    <g id="ytick_4">
     <g id="line2d_42">
      <path clip-path="url(#pbf0a52d422)" d="M 40.705 171.278249 
L 447.48 171.278249 
" style="fill:none;stroke:#b0b0b0;stroke-linecap:square;stroke-width:0.8;"/>
     </g>
     <g id="line2d_43">
      <g>
       <use style="stroke:#000000;stroke-width:0.8;" x="40.705" xlink:href="#m7817405b46" y="171.278249"/>
      </g>
     </g>
     <g id="text_6">
      <!-- 5000 -->
      <g transform="translate(8.255 175.077468)scale(0.1 -0.1)">
       <use xlink:href="#DejaVuSans-35"/>
       <use x="63.623047" xlink:href="#DejaVuSans-30"/>
       <use x="127.246094" xlink:href="#DejaVuSans-30"/>
       <use x="190.869141" xlink:href="#DejaVuSans-30"/>
      </g>
     </g>
    </g>
    <g id="ytick_5">
     <g id="line2d_44">
      <path clip-path="url(#pbf0a52d422)" d="M 40.705 149.512148 
L 447.48 149.512148 
" style="fill:none;stroke:#b0b0b0;stroke-linecap:square;stroke-width:0.8;"/>
     </g>
     <g id="line2d_45">
      <g>
       <use style="stroke:#000000;stroke-width:0.8;" x="40.705" xlink:href="#m7817405b46" y="149.512148"/>
      </g>
     </g>
     <g id="text_7">
      <!-- 7500 -->
      <defs>
       <path d="M 8.203125 72.90625 
L 55.078125 72.90625 
L 55.078125 68.703125 
L 28.609375 0 
L 18.3125 0 
L 43.21875 64.59375 
L 8.203125 64.59375 
z
" id="DejaVuSans-37"/>
      </defs>
      <g transform="translate(8.255 153.311367)scale(0.1 -0.1)">
       <use xlink:href="#DejaVuSans-37"/>
       <use x="63.623047" xlink:href="#DejaVuSans-35"/>
       <use x="127.246094" xlink:href="#DejaVuSans-30"/>
       <use x="190.869141" xlink:href="#DejaVuSans-30"/>
      </g>
     </g>
    </g>
    <g id="ytick_6">
     <g id="line2d_46">
      <path clip-path="url(#pbf0a52d422)" d="M 40.705 127.746046 
L 447.48 127.746046 
" style="fill:none;stroke:#b0b0b0;stroke-linecap:square;stroke-width:0.8;"/>
     </g>
     <g id="line2d_47">
      <g>
       <use style="stroke:#000000;stroke-width:0.8;" x="40.705" xlink:href="#m7817405b46" y="127.746046"/>
      </g>
     </g>
     <g id="text_8">
      <!-- 10000 -->
      <g transform="translate(1.8925 131.545265)scale(0.1 -0.1)">
       <use xlink:href="#DejaVuSans-31"/>
       <use x="63.623047" xlink:href="#DejaVuSans-30"/>
       <use x="127.246094" xlink:href="#DejaVuSans-30"/>
       <use x="190.869141" xlink:href="#DejaVuSans-30"/>
       <use x="254.492188" xlink:href="#DejaVuSans-30"/>
      </g>
     </g>
    </g>
   </g>
   <g id="line2d_48">
    <path clip-path="url(#pbf0a52d422)" d="M 40.705 136.313661 
L 42.522119 150.316857 
L 44.533929 158.865951 
L 46.480842 128.005419 
L 48.492652 142.495772 
L 50.439564 148.729284 
L 52.451374 146.443931 
L 54.463184 143.068766 
L 56.410097 154.733345 
L 58.421907 147.933627 
L 60.36882 153.993612 
L 62.38063 155.54772 
L 64.39244 149.232567 
L 66.209559 158.301995 
L 68.221369 137.304814 
L 70.168282 149.510445 
L 72.180092 141.821364 
L 76.138815 141.832483 
L 78.150625 145.646338 
L 80.097537 142.39302 
L 82.109347 146.05663 
L 84.05626 136.086019 
L 86.06807 140.493191 
L 88.07988 149.078422 
L 89.896999 160.0079 
L 91.908809 171.021241 
L 93.855722 163.569258 
L 95.867532 149.686071 
L 99.826255 147.302423 
L 101.838065 145.512874 
L 103.784978 143.459864 
L 105.796788 152.183135 
L 107.743701 146.158642 
L 109.755511 147.548095 
L 111.767321 146.05727 
L 113.649336 169.67355 
L 115.661146 164.375295 
L 117.608059 146.35914 
L 119.619869 144.908328 
L 121.566782 141.541954 
L 123.578592 147.294434 
L 125.590402 143.243385 
L 127.537315 140.182695 
L 129.549125 143.003572 
L 131.496038 139.287894 
L 133.507848 144.055791 
L 135.519658 149.684701 
L 137.336776 178.444199 
L 139.348586 167.624725 
L 141.295499 146.183296 
L 143.307309 145.49433 
L 145.254222 148.392803 
L 147.266032 139.418289 
L 149.277842 139.172234 
L 151.224755 149.996024 
L 153.236565 142.940079 
L 155.183478 140.949575 
L 157.195288 139.552285 
L 159.207098 142.347231 
L 161.024217 153.66236 
L 163.036027 148.286698 
L 164.98294 141.11551 
L 166.99475 142.256983 
L 168.941662 144.780915 
L 170.953472 138.115184 
L 172.965282 147.23848 
L 174.912195 143.910771 
L 176.924005 153.09762 
L 178.870918 136.021627 
L 180.882728 158.3515 
L 182.894538 151.467313 
L 184.711657 160.147429 
L 186.723467 141.885115 
L 188.67038 145.170878 
L 190.68219 142.177678 
L 192.629103 135.719373 
L 194.640913 146.889545 
L 196.652723 138.123774 
L 198.599635 141.616017 
L 200.611445 148.909652 
L 202.558358 142.664625 
L 204.570168 143.103557 
L 206.581978 142.175579 
L 208.463994 172.549701 
L 210.475804 141.535602 
L 212.422717 140.104522 
L 214.434527 144.008772 
L 216.38144 136.528041 
L 218.39325 138.280657 
L 220.40506 139.16607 
L 222.351973 138.199821 
L 224.363783 135.161122 
L 226.310696 157.764195 
L 228.322506 165.74444 
L 230.334316 147.861495 
L 232.151434 164.534608 
L 234.163244 163.306224 
L 236.110157 156.364411 
L 238.121967 146.654977 
L 240.06888 155.32086 
L 242.08069 143.21107 
L 244.0925 148.821992 
L 246.039413 150.669483 
L 248.051223 165.315111 
L 249.998136 161.347844 
L 252.009946 148.00496 
L 254.021756 155.846611 
L 255.838874 183.410002 
L 257.850684 176.754492 
L 259.797597 175.780078 
L 261.809407 163.754861 
L 263.75632 164.923767 
L 265.76813 165.737916 
L 267.77994 160.079992 
L 269.726853 159.089167 
L 271.738663 163.554745 
L 273.685576 163.084458 
L 275.697386 164.645608 
L 277.709196 162.445608 
L 279.526315 184.462904 
L 281.538125 188.435588 
L 283.485037 180.422464 
L 285.496847 174.719951 
L 287.44376 173.857417 
L 289.45557 172.084447 
L 291.46738 173.145684 
L 293.414293 172.34645 
L 295.426103 173.006354 
L 297.373016 176.095626 
L 299.384826 174.3733 
L 301.396636 175.518689 
L 303.278652 188.883166 
L 305.290462 179.734776 
L 307.237375 180.60485 
L 309.249185 185.719564 
L 311.196098 183.423921 
L 313.207908 182.433912 
L 315.219718 178.495836 
L 317.166631 181.021843 
L 319.17844 184.565048 
L 321.125353 183.808038 
L 323.137163 182.205657 
L 325.148973 181.055334 
L 326.966092 190.561142 
L 328.977902 183.408657 
L 330.924815 178.921502 
L 332.936625 179.407311 
L 334.883538 178.011775 
L 336.895348 176.387093 
L 338.907158 176.788439 
L 340.854071 180.376668 
L 342.865881 178.174194 
L 344.812794 179.937141 
L 346.824604 179.22091 
L 348.836414 178.71065 
L 350.653532 190.173812 
L 352.665342 181.031368 
L 354.612255 181.068584 
L 356.624065 183.878476 
L 358.570978 177.64718 
L 360.582788 174.731653 
L 362.594598 173.789885 
L 364.541511 173.811939 
L 366.553321 175.611668 
L 368.500234 181.919702 
L 370.512044 179.579923 
L 372.523854 187.69323 
L 374.340972 197.229651 
L 376.352782 191.726162 
L 378.299695 189.924514 
L 380.311505 181.150664 
L 382.258418 184.755922 
L 384.270228 181.2101 
L 386.282038 181.816174 
L 388.228951 183.252891 
L 390.240761 183.798488 
L 392.187674 192.796834 
L 394.199484 191.616999 
L 396.211294 193.858727 
L 398.09331 202.60548 
L 400.10512 205.223131 
L 402.052033 197.383683 
L 404.063843 195.352175 
L 406.010755 192.626145 
L 408.022565 182.763488 
L 410.034375 183.685945 
L 411.981288 183.910402 
L 413.993098 183.416123 
L 415.940011 188.762178 
L 417.951821 183.213087 
L 419.963631 185.536398 
L 421.78075 190.616197 
L 423.79256 188.884527 
L 425.739473 190.029241 
L 427.751283 186.634213 
L 429.698196 188.640173 
L 431.710006 179.829309 
L 433.721816 182.898494 
L 435.668728 181.122284 
L 437.680538 183.827197 
L 439.627451 183.093678 
L 441.639261 189.605627 
L 443.651071 184.509024 
L 445.46819 184.762492 
L 447.48 191.181811 
L 447.48 191.181811 
" style="fill:none;stroke:#f97306;stroke-linecap:square;stroke-width:1.5;"/>
   </g>
   <g id="patch_9">
    <path d="M 40.705 209.084017 
L 40.705 124.144533 
" style="fill:none;stroke:#000000;stroke-linecap:square;stroke-linejoin:miter;stroke-width:0.8;"/>
   </g>
   <g id="patch_10">
    <path d="M 447.48 209.084017 
L 447.48 124.144533 
" style="fill:none;stroke:#000000;stroke-linecap:square;stroke-linejoin:miter;stroke-width:0.8;"/>
   </g>
   <g id="patch_11">
    <path d="M 40.705 209.084017 
L 447.48 209.084017 
" style="fill:none;stroke:#000000;stroke-linecap:square;stroke-linejoin:miter;stroke-width:0.8;"/>
   </g>
   <g id="patch_12">
    <path d="M 40.705 124.144533 
L 447.48 124.144533 
" style="fill:none;stroke:#000000;stroke-linecap:square;stroke-linejoin:miter;stroke-width:0.8;"/>
   </g>
   <g id="legend_2">
    <g id="patch_13">
     <path d="M 361.890938 146.822658 
L 440.48 146.822658 
Q 442.48 146.822658 442.48 144.822658 
L 442.48 131.144533 
Q 442.48 129.144533 440.48 129.144533 
L 361.890938 129.144533 
Q 359.890938 129.144533 359.890938 131.144533 
L 359.890938 144.822658 
Q 359.890938 146.822658 361.890938 146.822658 
z
" style="fill:#ffffff;opacity:0.8;stroke:#cccccc;stroke-linejoin:miter;"/>
    </g>
    <g id="line2d_49">
     <path d="M 363.890938 137.242971 
L 383.890938 137.242971 
" style="fill:none;stroke:#f97306;stroke-linecap:square;stroke-width:1.5;"/>
    </g>
    <g id="line2d_50"/>
    <g id="text_9">
     <!-- NOx (lbs) -->
     <defs>
      <path d="M 9.8125 72.90625 
L 23.09375 72.90625 
L 55.421875 11.921875 
L 55.421875 72.90625 
L 64.984375 72.90625 
L 64.984375 0 
L 51.703125 0 
L 19.390625 60.984375 
L 19.390625 0 
L 9.8125 0 
z
" id="DejaVuSans-4e"/>
      <path d="M 54.890625 54.6875 
L 35.109375 28.078125 
L 55.90625 0 
L 45.3125 0 
L 29.390625 21.484375 
L 13.484375 0 
L 2.875 0 
L 24.125 28.609375 
L 4.6875 54.6875 
L 15.28125 54.6875 
L 29.78125 35.203125 
L 44.28125 54.6875 
z
" id="DejaVuSans-78"/>
     </defs>
     <g transform="translate(391.890938 140.742971)scale(0.1 -0.1)">
      <use xlink:href="#DejaVuSans-4e"/>
      <use x="74.804688" xlink:href="#DejaVuSans-4f"/>
      <use x="153.515625" xlink:href="#DejaVuSans-78"/>
      <use x="212.695312" xlink:href="#DejaVuSans-20"/>
      <use x="244.482422" xlink:href="#DejaVuSans-28"/>
      <use x="283.496094" xlink:href="#DejaVuSans-6c"/>
      <use x="311.279297" xlink:href="#DejaVuSans-62"/>
      <use x="374.755859" xlink:href="#DejaVuSans-73"/>
      <use x="426.855469" xlink:href="#DejaVuSans-29"/>
     </g>
    </g>
   </g>
  </g>
  <g id="axes_3">
   <g id="patch_14">
    <path d="M 40.705 309.8635 
L 447.48 309.8635 
L 447.48 224.924017 
L 40.705 224.924017 
z
" style="fill:none;"/>
   </g>
   <g id="matplotlib.axis_5">
    <g id="xtick_17">
     <g id="line2d_51">
      <path clip-path="url(#pfc256b26cc)" d="M 86.132967 309.8635 
L 86.132967 224.924017 
" style="fill:none;stroke:#b0b0b0;stroke-linecap:square;stroke-width:0.8;"/>
     </g>
     <g id="line2d_52">
      <g>
       <use style="stroke:#000000;stroke-width:0.8;" x="86.132967" xlink:href="#m70a90e0f70" y="309.8635"/>
      </g>
     </g>
     <g id="text_10">
      <!-- 2003 -->
      <defs>
       <path d="M 40.578125 39.3125 
Q 47.65625 37.796875 51.625 33 
Q 55.609375 28.21875 55.609375 21.1875 
Q 55.609375 10.40625 48.1875 4.484375 
Q 40.765625 -1.421875 27.09375 -1.421875 
Q 22.515625 -1.421875 17.65625 -0.515625 
Q 12.796875 0.390625 7.625 2.203125 
L 7.625 11.71875 
Q 11.71875 9.328125 16.59375 8.109375 
Q 21.484375 6.890625 26.8125 6.890625 
Q 36.078125 6.890625 40.9375 10.546875 
Q 45.796875 14.203125 45.796875 21.1875 
Q 45.796875 27.640625 41.28125 31.265625 
Q 36.765625 34.90625 28.71875 34.90625 
L 20.21875 34.90625 
L 20.21875 43.015625 
L 29.109375 43.015625 
Q 36.375 43.015625 40.234375 45.921875 
Q 44.09375 48.828125 44.09375 54.296875 
Q 44.09375 59.90625 40.109375 62.90625 
Q 36.140625 65.921875 28.71875 65.921875 
Q 24.65625 65.921875 20.015625 65.03125 
Q 15.375 64.15625 9.8125 62.3125 
L 9.8125 71.09375 
Q 15.4375 72.65625 20.34375 73.4375 
Q 25.25 74.21875 29.59375 74.21875 
Q 40.828125 74.21875 47.359375 69.109375 
Q 53.90625 64.015625 53.90625 55.328125 
Q 53.90625 49.265625 50.4375 45.09375 
Q 46.96875 40.921875 40.578125 39.3125 
z
" id="DejaVuSans-33"/>
      </defs>
      <g transform="translate(73.407967 324.461937)scale(0.1 -0.1)">
       <use xlink:href="#DejaVuSans-32"/>
       <use x="63.623047" xlink:href="#DejaVuSans-30"/>
       <use x="127.246094" xlink:href="#DejaVuSans-30"/>
       <use x="190.869141" xlink:href="#DejaVuSans-33"/>
      </g>
     </g>
    </g>
    <g id="xtick_18">
     <g id="line2d_53">
      <path clip-path="url(#pfc256b26cc)" d="M 133.572745 309.8635 
L 133.572745 224.924017 
" style="fill:none;stroke:#b0b0b0;stroke-linecap:square;stroke-width:0.8;"/>
     </g>
     <g id="line2d_54">
      <g>
       <use style="stroke:#000000;stroke-width:0.8;" x="133.572745" xlink:href="#m70a90e0f70" y="309.8635"/>
      </g>
     </g>
     <g id="text_11">
      <!-- 2005 -->
      <g transform="translate(120.847745 324.461937)scale(0.1 -0.1)">
       <use xlink:href="#DejaVuSans-32"/>
       <use x="63.623047" xlink:href="#DejaVuSans-30"/>
       <use x="127.246094" xlink:href="#DejaVuSans-30"/>
       <use x="190.869141" xlink:href="#DejaVuSans-35"/>
      </g>
     </g>
    </g>
    <g id="xtick_19">
     <g id="line2d_55">
      <path clip-path="url(#pfc256b26cc)" d="M 180.947625 309.8635 
L 180.947625 224.924017 
" style="fill:none;stroke:#b0b0b0;stroke-linecap:square;stroke-width:0.8;"/>
     </g>
     <g id="line2d_56">
      <g>
       <use style="stroke:#000000;stroke-width:0.8;" x="180.947625" xlink:href="#m70a90e0f70" y="309.8635"/>
      </g>
     </g>
     <g id="text_12">
      <!-- 2007 -->
      <g transform="translate(168.222625 324.461937)scale(0.1 -0.1)">
       <use xlink:href="#DejaVuSans-32"/>
       <use x="63.623047" xlink:href="#DejaVuSans-30"/>
       <use x="127.246094" xlink:href="#DejaVuSans-30"/>
       <use x="190.869141" xlink:href="#DejaVuSans-37"/>
      </g>
     </g>
    </g>
    <g id="xtick_20">
     <g id="line2d_57">
      <path clip-path="url(#pfc256b26cc)" d="M 228.387403 309.8635 
L 228.387403 224.924017 
" style="fill:none;stroke:#b0b0b0;stroke-linecap:square;stroke-width:0.8;"/>
     </g>
     <g id="line2d_58">
      <g>
       <use style="stroke:#000000;stroke-width:0.8;" x="228.387403" xlink:href="#m70a90e0f70" y="309.8635"/>
      </g>
     </g>
     <g id="text_13">
      <!-- 2009 -->
      <defs>
       <path d="M 10.984375 1.515625 
L 10.984375 10.5 
Q 14.703125 8.734375 18.5 7.8125 
Q 22.3125 6.890625 25.984375 6.890625 
Q 35.75 6.890625 40.890625 13.453125 
Q 46.046875 20.015625 46.78125 33.40625 
Q 43.953125 29.203125 39.59375 26.953125 
Q 35.25 24.703125 29.984375 24.703125 
Q 19.046875 24.703125 12.671875 31.3125 
Q 6.296875 37.9375 6.296875 49.421875 
Q 6.296875 60.640625 12.9375 67.421875 
Q 19.578125 74.21875 30.609375 74.21875 
Q 43.265625 74.21875 49.921875 64.515625 
Q 56.59375 54.828125 56.59375 36.375 
Q 56.59375 19.140625 48.40625 8.859375 
Q 40.234375 -1.421875 26.421875 -1.421875 
Q 22.703125 -1.421875 18.890625 -0.6875 
Q 15.09375 0.046875 10.984375 1.515625 
z
M 30.609375 32.421875 
Q 37.25 32.421875 41.125 36.953125 
Q 45.015625 41.5 45.015625 49.421875 
Q 45.015625 57.28125 41.125 61.84375 
Q 37.25 66.40625 30.609375 66.40625 
Q 23.96875 66.40625 20.09375 61.84375 
Q 16.21875 57.28125 16.21875 49.421875 
Q 16.21875 41.5 20.09375 36.953125 
Q 23.96875 32.421875 30.609375 32.421875 
z
" id="DejaVuSans-39"/>
      </defs>
      <g transform="translate(215.662403 324.461937)scale(0.1 -0.1)">
       <use xlink:href="#DejaVuSans-32"/>
       <use x="63.623047" xlink:href="#DejaVuSans-30"/>
       <use x="127.246094" xlink:href="#DejaVuSans-30"/>
       <use x="190.869141" xlink:href="#DejaVuSans-39"/>
      </g>
     </g>
    </g>
    <g id="xtick_21">
     <g id="line2d_59">
      <path clip-path="url(#pfc256b26cc)" d="M 275.762283 309.8635 
L 275.762283 224.924017 
" style="fill:none;stroke:#b0b0b0;stroke-linecap:square;stroke-width:0.8;"/>
     </g>
     <g id="line2d_60">
      <g>
       <use style="stroke:#000000;stroke-width:0.8;" x="275.762283" xlink:href="#m70a90e0f70" y="309.8635"/>
      </g>
     </g>
     <g id="text_14">
      <!-- 2011 -->
      <g transform="translate(263.037283 324.461937)scale(0.1 -0.1)">
       <use xlink:href="#DejaVuSans-32"/>
       <use x="63.623047" xlink:href="#DejaVuSans-30"/>
       <use x="127.246094" xlink:href="#DejaVuSans-31"/>
       <use x="190.869141" xlink:href="#DejaVuSans-31"/>
      </g>
     </g>
    </g>
    <g id="xtick_22">
     <g id="line2d_61">
      <path clip-path="url(#pfc256b26cc)" d="M 323.20206 309.8635 
L 323.20206 224.924017 
" style="fill:none;stroke:#b0b0b0;stroke-linecap:square;stroke-width:0.8;"/>
     </g>
     <g id="line2d_62">
      <g>
       <use style="stroke:#000000;stroke-width:0.8;" x="323.20206" xlink:href="#m70a90e0f70" y="309.8635"/>
      </g>
     </g>
     <g id="text_15">
      <!-- 2013 -->
      <g transform="translate(310.47706 324.461937)scale(0.1 -0.1)">
       <use xlink:href="#DejaVuSans-32"/>
       <use x="63.623047" xlink:href="#DejaVuSans-30"/>
       <use x="127.246094" xlink:href="#DejaVuSans-31"/>
       <use x="190.869141" xlink:href="#DejaVuSans-33"/>
      </g>
     </g>
    </g>
    <g id="xtick_23">
     <g id="line2d_63">
      <path clip-path="url(#pfc256b26cc)" d="M 370.576941 309.8635 
L 370.576941 224.924017 
" style="fill:none;stroke:#b0b0b0;stroke-linecap:square;stroke-width:0.8;"/>
     </g>
     <g id="line2d_64">
      <g>
       <use style="stroke:#000000;stroke-width:0.8;" x="370.576941" xlink:href="#m70a90e0f70" y="309.8635"/>
      </g>
     </g>
     <g id="text_16">
      <!-- 2015 -->
      <g transform="translate(357.851941 324.461937)scale(0.1 -0.1)">
       <use xlink:href="#DejaVuSans-32"/>
       <use x="63.623047" xlink:href="#DejaVuSans-30"/>
       <use x="127.246094" xlink:href="#DejaVuSans-31"/>
       <use x="190.869141" xlink:href="#DejaVuSans-35"/>
      </g>
     </g>
    </g>
    <g id="xtick_24">
     <g id="line2d_65">
      <path clip-path="url(#pfc256b26cc)" d="M 418.016718 309.8635 
L 418.016718 224.924017 
" style="fill:none;stroke:#b0b0b0;stroke-linecap:square;stroke-width:0.8;"/>
     </g>
     <g id="line2d_66">
      <g>
       <use style="stroke:#000000;stroke-width:0.8;" x="418.016718" xlink:href="#m70a90e0f70" y="309.8635"/>
      </g>
     </g>
     <g id="text_17">
      <!-- 2017 -->
      <g transform="translate(405.291718 324.461937)scale(0.1 -0.1)">
       <use xlink:href="#DejaVuSans-32"/>
       <use x="63.623047" xlink:href="#DejaVuSans-30"/>
       <use x="127.246094" xlink:href="#DejaVuSans-31"/>
       <use x="190.869141" xlink:href="#DejaVuSans-37"/>
      </g>
     </g>
    </g>
    <g id="text_18">
     <!-- Date -->
     <defs>
      <path d="M 19.671875 64.796875 
L 19.671875 8.109375 
L 31.59375 8.109375 
Q 46.6875 8.109375 53.6875 14.9375 
Q 60.6875 21.78125 60.6875 36.53125 
Q 60.6875 51.171875 53.6875 57.984375 
Q 46.6875 64.796875 31.59375 64.796875 
z
M 9.8125 72.90625 
L 30.078125 72.90625 
Q 51.265625 72.90625 61.171875 64.09375 
Q 71.09375 55.28125 71.09375 36.53125 
Q 71.09375 17.671875 61.125 8.828125 
Q 51.171875 0 30.078125 0 
L 9.8125 0 
z
" id="DejaVuSans-44"/>
     </defs>
     <g transform="translate(232.141719 338.140062)scale(0.1 -0.1)">
      <use xlink:href="#DejaVuSans-44"/>
      <use x="77.001953" xlink:href="#DejaVuSans-61"/>
      <use x="138.28125" xlink:href="#DejaVuSans-74"/>
      <use x="177.490234" xlink:href="#DejaVuSans-65"/>
     </g>
    </g>
   </g>
   <g id="matplotlib.axis_6">
    <g id="ytick_7">
     <g id="line2d_67">
      <path clip-path="url(#pfc256b26cc)" d="M 40.705 295.500038 
L 447.48 295.500038 
" style="fill:none;stroke:#b0b0b0;stroke-linecap:square;stroke-width:0.8;"/>
     </g>
     <g id="line2d_68">
      <g>
       <use style="stroke:#000000;stroke-width:0.8;" x="40.705" xlink:href="#m7817405b46" y="295.500038"/>
      </g>
     </g>
     <g id="text_19">
      <!-- 1000 -->
      <g transform="translate(8.255 299.299257)scale(0.1 -0.1)">
       <use xlink:href="#DejaVuSans-31"/>
       <use x="63.623047" xlink:href="#DejaVuSans-30"/>
       <use x="127.246094" xlink:href="#DejaVuSans-30"/>
       <use x="190.869141" xlink:href="#DejaVuSans-30"/>
      </g>
     </g>
    </g>
    <g id="ytick_8">
     <g id="line2d_69">
      <path clip-path="url(#pfc256b26cc)" d="M 40.705 254.197489 
L 447.48 254.197489 
" style="fill:none;stroke:#b0b0b0;stroke-linecap:square;stroke-width:0.8;"/>
     </g>
     <g id="line2d_70">
      <g>
       <use style="stroke:#000000;stroke-width:0.8;" x="40.705" xlink:href="#m7817405b46" y="254.197489"/>
      </g>
     </g>
     <g id="text_20">
      <!-- 2000 -->
      <g transform="translate(8.255 257.996708)scale(0.1 -0.1)">
       <use xlink:href="#DejaVuSans-32"/>
       <use x="63.623047" xlink:href="#DejaVuSans-30"/>
       <use x="127.246094" xlink:href="#DejaVuSans-30"/>
       <use x="190.869141" xlink:href="#DejaVuSans-30"/>
      </g>
     </g>
    </g>
   </g>
   <g id="line2d_71">
    <path clip-path="url(#pfc256b26cc)" d="M 40.705 243.224758 
L 42.522119 258.797607 
L 44.533929 271.837419 
L 46.480842 235.040042 
L 48.492652 235.96289 
L 50.439564 241.239827 
L 52.451374 234.494328 
L 54.463184 233.387283 
L 56.410097 249.561745 
L 58.421907 237.198198 
L 60.36882 243.188225 
L 62.38063 246.423716 
L 64.39244 241.974554 
L 66.209559 260.042579 
L 68.221369 234.07834 
L 70.168282 243.398635 
L 72.180092 237.821967 
L 74.127005 243.513251 
L 76.138815 237.376787 
L 78.150625 240.522584 
L 80.097537 240.557754 
L 82.109347 241.240309 
L 84.05626 232.053833 
L 86.06807 233.392266 
L 88.07988 247.794961 
L 89.896999 262.456175 
L 91.908809 273.858844 
L 93.855722 269.379361 
L 95.867532 247.160048 
L 97.814445 241.135696 
L 99.826255 235.667314 
L 101.838065 238.407354 
L 103.784978 240.519793 
L 105.796788 245.544435 
L 107.743701 237.011946 
L 109.755511 238.872699 
L 111.767321 235.687459 
L 113.649336 269.398613 
L 115.661146 264.74723 
L 117.608059 240.450419 
L 119.619869 237.371337 
L 121.566782 233.519735 
L 123.578592 241.508334 
L 125.590402 240.284483 
L 127.537315 234.772212 
L 129.549125 237.180815 
L 131.496038 233.432621 
L 133.507848 232.392799 
L 135.519658 242.789872 
L 137.336776 282.692285 
L 139.348586 267.603785 
L 141.295499 237.996362 
L 143.307309 239.980016 
L 145.254222 242.519883 
L 147.266032 233.110528 
L 149.277842 232.706274 
L 151.224755 240.86126 
L 153.236565 235.63667 
L 155.183478 240.254854 
L 157.195288 235.43891 
L 159.207098 233.901022 
L 161.024217 255.071325 
L 163.036027 247.057642 
L 164.98294 238.456946 
L 166.99475 235.944294 
L 168.941662 237.538222 
L 170.953472 232.757948 
L 172.965282 235.615307 
L 174.912195 235.305047 
L 176.924005 255.514504 
L 178.870918 237.823149 
L 180.882728 261.637337 
L 182.894538 248.615736 
L 184.711657 261.232202 
L 186.723467 233.097454 
L 188.67038 241.419026 
L 190.68219 241.996079 
L 192.629103 233.565699 
L 194.640913 247.603753 
L 196.652723 232.522117 
L 198.599635 239.582508 
L 200.611445 251.476668 
L 202.558358 236.0236 
L 204.570168 234.168588 
L 206.581978 236.439425 
L 208.463994 267.330718 
L 210.475804 234.460157 
L 212.422717 234.790041 
L 214.434527 237.401095 
L 216.38144 231.396011 
L 218.39325 235.361533 
L 220.40506 232.254415 
L 222.351973 232.713808 
L 224.363783 233.394657 
L 226.310696 254.341026 
L 228.322506 260.325612 
L 230.334316 249.676739 
L 232.151434 269.184924 
L 234.163244 274.154742 
L 236.110157 251.999064 
L 238.121967 235.090691 
L 240.06888 246.813194 
L 242.08069 237.217587 
L 244.0925 236.662067 
L 246.039413 232.848891 
L 248.051223 262.125412 
L 249.998136 248.884994 
L 252.009946 228.784902 
L 254.021756 235.550484 
L 255.838874 281.575606 
L 257.850684 272.240405 
L 259.797597 270.057041 
L 261.809407 251.545333 
L 263.75632 249.607043 
L 265.76813 250.688433 
L 267.77994 243.842892 
L 269.726853 239.668175 
L 271.738663 250.028709 
L 273.685576 246.953613 
L 275.697386 245.468535 
L 277.709196 244.277668 
L 279.526315 271.077412 
L 281.538125 276.428838 
L 283.485037 260.175033 
L 285.496847 245.432045 
L 287.44376 241.704987 
L 289.45557 239.617569 
L 291.46738 242.304633 
L 293.414293 242.022177 
L 295.426103 240.653967 
L 297.373016 246.732445 
L 299.384826 245.310742 
L 301.396636 246.35834 
L 303.278652 274.048044 
L 305.290462 255.932797 
L 307.237375 253.252234 
L 309.249185 260.272238 
L 311.196098 257.460381 
L 313.207908 255.211498 
L 315.219718 250.131638 
L 317.166631 253.599713 
L 319.17844 262.27862 
L 321.125353 259.442398 
L 323.137163 259.551935 
L 325.148973 255.634586 
L 326.966092 278.112404 
L 328.977902 262.067844 
L 330.924815 253.819896 
L 332.936625 253.966298 
L 334.883538 247.819764 
L 336.895348 245.079963 
L 338.907158 244.942365 
L 340.854071 252.168812 
L 342.865881 245.550923 
L 344.812794 249.541954 
L 346.824604 246.958918 
L 348.836414 246.699741 
L 350.653532 274.533291 
L 352.665342 251.009252 
L 354.612255 250.053788 
L 356.624065 256.322207 
L 358.570978 245.128407 
L 360.582788 236.702612 
L 362.594598 236.636051 
L 364.541511 237.074433 
L 366.553321 241.337455 
L 368.500234 253.692641 
L 370.512044 247.753321 
L 372.523854 267.894915 
L 374.340972 288.24711 
L 376.352782 275.715368 
L 378.299695 272.155931 
L 380.311505 251.161979 
L 382.258418 257.218603 
L 384.270228 252.178588 
L 386.282038 254.215656 
L 388.228951 255.576587 
L 390.240761 252.774977 
L 392.187674 271.257589 
L 394.199484 269.136327 
L 396.211294 274.907322 
L 398.09331 296.390298 
L 400.10512 306.002614 
L 402.052033 285.471909 
L 404.063843 274.785232 
L 406.010755 271.885075 
L 408.022565 254.980443 
L 410.034375 256.858779 
L 411.981288 257.188543 
L 413.993098 254.766692 
L 415.940011 266.424059 
L 417.951821 255.361725 
L 419.963631 261.4057 
L 421.78075 269.418247 
L 423.79256 267.320368 
L 425.739473 271.621684 
L 427.751283 262.657347 
L 429.698196 265.252788 
L 431.710006 246.740603 
L 433.721816 256.079939 
L 435.668728 254.336258 
L 437.680538 259.13644 
L 439.627451 255.506344 
L 441.639261 273.481787 
L 443.651071 259.483844 
L 445.46819 260.595131 
L 447.48 274.166361 
L 447.48 274.166361 
" style="fill:none;stroke:#4682b4;stroke-linecap:square;stroke-width:1.5;"/>
   </g>
   <g id="patch_15">
    <path d="M 40.705 309.8635 
L 40.705 224.924017 
" style="fill:none;stroke:#000000;stroke-linecap:square;stroke-linejoin:miter;stroke-width:0.8;"/>
   </g>
   <g id="patch_16">
    <path d="M 447.48 309.8635 
L 447.48 224.924017 
" style="fill:none;stroke:#000000;stroke-linecap:square;stroke-linejoin:miter;stroke-width:0.8;"/>
   </g>
   <g id="patch_17">
    <path d="M 40.705 309.8635 
L 447.48 309.8635 
" style="fill:none;stroke:#000000;stroke-linecap:square;stroke-linejoin:miter;stroke-width:0.8;"/>
   </g>
   <g id="patch_18">
    <path d="M 40.705 224.924017 
L 447.48 224.924017 
" style="fill:none;stroke:#000000;stroke-linecap:square;stroke-linejoin:miter;stroke-width:0.8;"/>
   </g>
   <g id="legend_3">
    <g id="patch_19">
     <path d="M 47.705 304.8635 
L 133.489375 304.8635 
Q 135.489375 304.8635 135.489375 302.8635 
L 135.489375 289.185375 
Q 135.489375 287.185375 133.489375 287.185375 
L 47.705 287.185375 
Q 45.705 287.185375 45.705 289.185375 
L 45.705 302.8635 
Q 45.705 304.8635 47.705 304.8635 
z
" style="fill:#ffffff;opacity:0.8;stroke:#cccccc;stroke-linejoin:miter;"/>
    </g>
    <g id="line2d_72">
     <path d="M 49.705 295.283812 
L 69.705 295.283812 
" style="fill:none;stroke:#4682b4;stroke-linecap:square;stroke-width:1.5;"/>
    </g>
    <g id="line2d_73"/>
    <g id="text_21">
     <!-- CO2 (tons) -->
     <defs>
      <path d="M 64.40625 67.28125 
L 64.40625 56.890625 
Q 59.421875 61.53125 53.78125 63.8125 
Q 48.140625 66.109375 41.796875 66.109375 
Q 29.296875 66.109375 22.65625 58.46875 
Q 16.015625 50.828125 16.015625 36.375 
Q 16.015625 21.96875 22.65625 14.328125 
Q 29.296875 6.6875 41.796875 6.6875 
Q 48.140625 6.6875 53.78125 8.984375 
Q 59.421875 11.28125 64.40625 15.921875 
L 64.40625 5.609375 
Q 59.234375 2.09375 53.4375 0.328125 
Q 47.65625 -1.421875 41.21875 -1.421875 
Q 24.65625 -1.421875 15.125 8.703125 
Q 5.609375 18.84375 5.609375 36.375 
Q 5.609375 53.953125 15.125 64.078125 
Q 24.65625 74.21875 41.21875 74.21875 
Q 47.75 74.21875 53.53125 72.484375 
Q 59.328125 70.75 64.40625 67.28125 
z
" id="DejaVuSans-43"/>
     </defs>
     <g transform="translate(77.705 298.783812)scale(0.1 -0.1)">
      <use xlink:href="#DejaVuSans-43"/>
      <use x="69.824219" xlink:href="#DejaVuSans-4f"/>
      <use x="148.535156" xlink:href="#DejaVuSans-32"/>
      <use x="212.158203" xlink:href="#DejaVuSans-20"/>
      <use x="243.945312" xlink:href="#DejaVuSans-28"/>
      <use x="282.958984" xlink:href="#DejaVuSans-74"/>
      <use x="322.167969" xlink:href="#DejaVuSans-6f"/>
      <use x="383.349609" xlink:href="#DejaVuSans-6e"/>
      <use x="446.728516" xlink:href="#DejaVuSans-73"/>
      <use x="498.828125" xlink:href="#DejaVuSans-29"/>
     </g>
    </g>
   </g>
  </g>
 </g>
 <defs>
  <clipPath id="pac99880b66">
   <rect height="84.939483" width="406.775" x="40.705" y="23.36505"/>
  </clipPath>
  <clipPath id="pbf0a52d422">
   <rect height="84.939483" width="406.775" x="40.705" y="124.144533"/>
  </clipPath>
  <clipPath id="pfc256b26cc">
   <rect height="84.939483" width="406.775" x="40.705" y="224.924017"/>
  </clipPath>
 </defs>
</svg>
