<?xml version="1.0" encoding="utf-8" standalone="no"?>
<!DOCTYPE svg PUBLIC "-//W3C//DTD SVG 1.1//EN"
  "http://www.w3.org/Graphics/SVG/1.1/DTD/svg11.dtd">
<!-- Created with matplotlib (http://matplotlib.org/) -->
<svg height="345.6pt" version="1.1" viewBox="0 0 460.8 345.6" width="460.8pt" xmlns="http://www.w3.org/2000/svg" xmlns:xlink="http://www.w3.org/1999/xlink">
 <defs>
  <style type="text/css">
*{stroke-linecap:butt;stroke-linejoin:round;}
  </style>
 </defs>
 <g id="figure_1">
  <g id="patch_1">
   <path d="M 0 345.6 
L 460.8 345.6 
L 460.8 0 
L 0 0 
z
" style="fill:none;"/>
  </g>
  <g id="axes_1">
   <g id="patch_2">
    <path d="M 33.83125 104.337283 
L 447.48 104.337283 
L 447.48 23.36505 
L 33.83125 23.36505 
z
" style="fill:none;"/>
   </g>
   <g id="matplotlib.axis_1">
    <g id="xtick_1">
     <g id="line2d_1">
      <path clip-path="url(#p7576f58b0c)" d="M 58.26987 104.337283 
L 58.26987 23.36505 
" style="fill:none;stroke:#b0b0b0;stroke-linecap:square;stroke-width:0.8;"/>
     </g>
     <g id="line2d_2">
      <defs>
       <path d="M 0 0 
L 0 3.5 
" id="m460b35d096" style="stroke:#000000;stroke-width:0.8;"/>
      </defs>
      <g>
       <use style="stroke:#000000;stroke-width:0.8;" x="58.26987" xlink:href="#m460b35d096" y="104.337283"/>
      </g>
     </g>
    </g>
    <g id="xtick_2">
     <g id="line2d_3">
      <path clip-path="url(#p7576f58b0c)" d="M 107.14711 104.337283 
L 107.14711 23.36505 
" style="fill:none;stroke:#b0b0b0;stroke-linecap:square;stroke-width:0.8;"/>
     </g>
     <g id="line2d_4">
      <g>
       <use style="stroke:#000000;stroke-width:0.8;" x="107.14711" xlink:href="#m460b35d096" y="104.337283"/>
      </g>
     </g>
    </g>
    <g id="xtick_3">
     <g id="line2d_5">
      <path clip-path="url(#p7576f58b0c)" d="M 156.091305 104.337283 
L 156.091305 23.36505 
" style="fill:none;stroke:#b0b0b0;stroke-linecap:square;stroke-width:0.8;"/>
     </g>
     <g id="line2d_6">
      <g>
       <use style="stroke:#000000;stroke-width:0.8;" x="156.091305" xlink:href="#m460b35d096" y="104.337283"/>
      </g>
     </g>
    </g>
    <g id="xtick_4">
     <g id="line2d_7">
      <path clip-path="url(#p7576f58b0c)" d="M 204.968544 104.337283 
L 204.968544 23.36505 
" style="fill:none;stroke:#b0b0b0;stroke-linecap:square;stroke-width:0.8;"/>
     </g>
     <g id="line2d_8">
      <g>
       <use style="stroke:#000000;stroke-width:0.8;" x="204.968544" xlink:href="#m460b35d096" y="104.337283"/>
      </g>
     </g>
    </g>
    <g id="xtick_5">
     <g id="line2d_9">
      <path clip-path="url(#p7576f58b0c)" d="M 253.912739 104.337283 
L 253.912739 23.36505 
" style="fill:none;stroke:#b0b0b0;stroke-linecap:square;stroke-width:0.8;"/>
     </g>
     <g id="line2d_10">
      <g>
       <use style="stroke:#000000;stroke-width:0.8;" x="253.912739" xlink:href="#m460b35d096" y="104.337283"/>
      </g>
     </g>
    </g>
    <g id="xtick_6">
     <g id="line2d_11">
      <path clip-path="url(#p7576f58b0c)" d="M 302.789979 104.337283 
L 302.789979 23.36505 
" style="fill:none;stroke:#b0b0b0;stroke-linecap:square;stroke-width:0.8;"/>
     </g>
     <g id="line2d_12">
      <g>
       <use style="stroke:#000000;stroke-width:0.8;" x="302.789979" xlink:href="#m460b35d096" y="104.337283"/>
      </g>
     </g>
    </g>
    <g id="xtick_7">
     <g id="line2d_13">
      <path clip-path="url(#p7576f58b0c)" d="M 351.734174 104.337283 
L 351.734174 23.36505 
" style="fill:none;stroke:#b0b0b0;stroke-linecap:square;stroke-width:0.8;"/>
     </g>
     <g id="line2d_14">
      <g>
       <use style="stroke:#000000;stroke-width:0.8;" x="351.734174" xlink:href="#m460b35d096" y="104.337283"/>
      </g>
     </g>
    </g>
    <g id="xtick_8">
     <g id="line2d_15">
      <path clip-path="url(#p7576f58b0c)" d="M 400.611414 104.337283 
L 400.611414 23.36505 
" style="fill:none;stroke:#b0b0b0;stroke-linecap:square;stroke-width:0.8;"/>
     </g>
     <g id="line2d_16">
      <g>
       <use style="stroke:#000000;stroke-width:0.8;" x="400.611414" xlink:href="#m460b35d096" y="104.337283"/>
      </g>
     </g>
    </g>
   </g>
   <g id="matplotlib.axis_2">
    <g id="ytick_1">
     <g id="line2d_17">
      <path clip-path="url(#p7576f58b0c)" d="M 33.83125 98.880946 
L 447.48 98.880946 
" style="fill:none;stroke:#b0b0b0;stroke-linecap:square;stroke-width:0.8;"/>
     </g>
     <g id="line2d_18">
      <defs>
       <path d="M 0 0 
L -3.5 0 
" id="m8f3ae383dc" style="stroke:#000000;stroke-width:0.8;"/>
      </defs>
      <g>
       <use style="stroke:#000000;stroke-width:0.8;" x="33.83125" xlink:href="#m8f3ae383dc" y="98.880946"/>
      </g>
     </g>
     <g id="text_1">
      <!-- 0.25 -->
      <defs>
       <path d="M 31.78125 66.40625 
Q 24.171875 66.40625 20.328125 58.90625 
Q 16.5 51.421875 16.5 36.375 
Q 16.5 21.390625 20.328125 13.890625 
Q 24.171875 6.390625 31.78125 6.390625 
Q 39.453125 6.390625 43.28125 13.890625 
Q 47.125 21.390625 47.125 36.375 
Q 47.125 51.421875 43.28125 58.90625 
Q 39.453125 66.40625 31.78125 66.40625 
z
M 31.78125 74.21875 
Q 44.046875 74.21875 50.515625 64.515625 
Q 56.984375 54.828125 56.984375 36.375 
Q 56.984375 17.96875 50.515625 8.265625 
Q 44.046875 -1.421875 31.78125 -1.421875 
Q 19.53125 -1.421875 13.0625 8.265625 
Q 6.59375 17.96875 6.59375 36.375 
Q 6.59375 54.828125 13.0625 64.515625 
Q 19.53125 74.21875 31.78125 74.21875 
z
" id="DejaVuSans-30"/>
       <path d="M 10.6875 12.40625 
L 21 12.40625 
L 21 0 
L 10.6875 0 
z
" id="DejaVuSans-2e"/>
       <path d="M 19.1875 8.296875 
L 53.609375 8.296875 
L 53.609375 0 
L 7.328125 0 
L 7.328125 8.296875 
Q 12.9375 14.109375 22.625 23.890625 
Q 32.328125 33.6875 34.8125 36.53125 
Q 39.546875 41.84375 41.421875 45.53125 
Q 43.3125 49.21875 43.3125 52.78125 
Q 43.3125 58.59375 39.234375 62.25 
Q 35.15625 65.921875 28.609375 65.921875 
Q 23.96875 65.921875 18.8125 64.3125 
Q 13.671875 62.703125 7.8125 59.421875 
L 7.8125 69.390625 
Q 13.765625 71.78125 18.9375 73 
Q 24.125 74.21875 28.421875 74.21875 
Q 39.75 74.21875 46.484375 68.546875 
Q 53.21875 62.890625 53.21875 53.421875 
Q 53.21875 48.921875 51.53125 44.890625 
Q 49.859375 40.875 45.40625 35.40625 
Q 44.1875 33.984375 37.640625 27.21875 
Q 31.109375 20.453125 19.1875 8.296875 
z
" id="DejaVuSans-32"/>
       <path d="M 10.796875 72.90625 
L 49.515625 72.90625 
L 49.515625 64.59375 
L 19.828125 64.59375 
L 19.828125 46.734375 
Q 21.96875 47.46875 24.109375 47.828125 
Q 26.265625 48.1875 28.421875 48.1875 
Q 40.625 48.1875 47.75 41.5 
Q 54.890625 34.8125 54.890625 23.390625 
Q 54.890625 11.625 47.5625 5.09375 
Q 40.234375 -1.421875 26.90625 -1.421875 
Q 22.3125 -1.421875 17.546875 -0.640625 
Q 12.796875 0.140625 7.71875 1.703125 
L 7.71875 11.625 
Q 12.109375 9.234375 16.796875 8.0625 
Q 21.484375 6.890625 26.703125 6.890625 
Q 35.15625 6.890625 40.078125 11.328125 
Q 45.015625 15.765625 45.015625 23.390625 
Q 45.015625 31 40.078125 35.4375 
Q 35.15625 39.890625 26.703125 39.890625 
Q 22.75 39.890625 18.8125 39.015625 
Q 14.890625 38.140625 10.796875 36.28125 
z
" id="DejaVuSans-35"/>
      </defs>
      <g transform="translate(4.565625 102.680165)scale(0.1 -0.1)">
       <use xlink:href="#DejaVuSans-30"/>
       <use x="63.623047" xlink:href="#DejaVuSans-2e"/>
       <use x="95.410156" xlink:href="#DejaVuSans-32"/>
       <use x="159.033203" xlink:href="#DejaVuSans-35"/>
      </g>
     </g>
    </g>
    <g id="ytick_2">
     <g id="line2d_19">
      <path clip-path="url(#p7576f58b0c)" d="M 33.83125 77.828596 
L 447.48 77.828596 
" style="fill:none;stroke:#b0b0b0;stroke-linecap:square;stroke-width:0.8;"/>
     </g>
     <g id="line2d_20">
      <g>
       <use style="stroke:#000000;stroke-width:0.8;" x="33.83125" xlink:href="#m8f3ae383dc" y="77.828596"/>
      </g>
     </g>
     <g id="text_2">
      <!-- 0.50 -->
      <g transform="translate(4.565625 81.627815)scale(0.1 -0.1)">
       <use xlink:href="#DejaVuSans-30"/>
       <use x="63.623047" xlink:href="#DejaVuSans-2e"/>
       <use x="95.410156" xlink:href="#DejaVuSans-35"/>
       <use x="159.033203" xlink:href="#DejaVuSans-30"/>
      </g>
     </g>
    </g>
    <g id="ytick_3">
     <g id="line2d_21">
      <path clip-path="url(#p7576f58b0c)" d="M 33.83125 56.776246 
L 447.48 56.776246 
" style="fill:none;stroke:#b0b0b0;stroke-linecap:square;stroke-width:0.8;"/>
     </g>
     <g id="line2d_22">
      <g>
       <use style="stroke:#000000;stroke-width:0.8;" x="33.83125" xlink:href="#m8f3ae383dc" y="56.776246"/>
      </g>
     </g>
     <g id="text_3">
      <!-- 0.75 -->
      <defs>
       <path d="M 8.203125 72.90625 
L 55.078125 72.90625 
L 55.078125 68.703125 
L 28.609375 0 
L 18.3125 0 
L 43.21875 64.59375 
L 8.203125 64.59375 
z
" id="DejaVuSans-37"/>
      </defs>
      <g transform="translate(4.565625 60.575464)scale(0.1 -0.1)">
       <use xlink:href="#DejaVuSans-30"/>
       <use x="63.623047" xlink:href="#DejaVuSans-2e"/>
       <use x="95.410156" xlink:href="#DejaVuSans-37"/>
       <use x="159.033203" xlink:href="#DejaVuSans-35"/>
      </g>
     </g>
    </g>
    <g id="ytick_4">
     <g id="line2d_23">
      <path clip-path="url(#p7576f58b0c)" d="M 33.83125 35.723895 
L 447.48 35.723895 
" style="fill:none;stroke:#b0b0b0;stroke-linecap:square;stroke-width:0.8;"/>
     </g>
     <g id="line2d_24">
      <g>
       <use style="stroke:#000000;stroke-width:0.8;" x="33.83125" xlink:href="#m8f3ae383dc" y="35.723895"/>
      </g>
     </g>
     <g id="text_4">
      <!-- 1.00 -->
      <defs>
       <path d="M 12.40625 8.296875 
L 28.515625 8.296875 
L 28.515625 63.921875 
L 10.984375 60.40625 
L 10.984375 69.390625 
L 28.421875 72.90625 
L 38.28125 72.90625 
L 38.28125 8.296875 
L 54.390625 8.296875 
L 54.390625 0 
L 12.40625 0 
z
" id="DejaVuSans-31"/>
      </defs>
      <g transform="translate(4.565625 39.523114)scale(0.1 -0.1)">
       <use xlink:href="#DejaVuSans-31"/>
       <use x="63.623047" xlink:href="#DejaVuSans-2e"/>
       <use x="95.410156" xlink:href="#DejaVuSans-30"/>
       <use x="159.033203" xlink:href="#DejaVuSans-30"/>
      </g>
     </g>
    </g>
    <g id="text_5">
     <!-- 1e8 -->
     <defs>
      <path d="M 56.203125 29.59375 
L 56.203125 25.203125 
L 14.890625 25.203125 
Q 15.484375 15.921875 20.484375 11.0625 
Q 25.484375 6.203125 34.421875 6.203125 
Q 39.59375 6.203125 44.453125 7.46875 
Q 49.3125 8.734375 54.109375 11.28125 
L 54.109375 2.78125 
Q 49.265625 0.734375 44.1875 -0.34375 
Q 39.109375 -1.421875 33.890625 -1.421875 
Q 20.796875 -1.421875 13.15625 6.1875 
Q 5.515625 13.8125 5.515625 26.8125 
Q 5.515625 40.234375 12.765625 48.109375 
Q 20.015625 56 32.328125 56 
Q 43.359375 56 49.78125 48.890625 
Q 56.203125 41.796875 56.203125 29.59375 
z
M 47.21875 32.234375 
Q 47.125 39.59375 43.09375 43.984375 
Q 39.0625 48.390625 32.421875 48.390625 
Q 24.90625 48.390625 20.390625 44.140625 
Q 15.875 39.890625 15.1875 32.171875 
z
" id="DejaVuSans-65"/>
      <path d="M 31.78125 34.625 
Q 24.75 34.625 20.71875 30.859375 
Q 16.703125 27.09375 16.703125 20.515625 
Q 16.703125 13.921875 20.71875 10.15625 
Q 24.75 6.390625 31.78125 6.390625 
Q 38.8125 6.390625 42.859375 10.171875 
Q 46.921875 13.96875 46.921875 20.515625 
Q 46.921875 27.09375 42.890625 30.859375 
Q 38.875 34.625 31.78125 34.625 
z
M 21.921875 38.8125 
Q 15.578125 40.375 12.03125 44.71875 
Q 8.5 49.078125 8.5 55.328125 
Q 8.5 64.0625 14.71875 69.140625 
Q 20.953125 74.21875 31.78125 74.21875 
Q 42.671875 74.21875 48.875 69.140625 
Q 55.078125 64.0625 55.078125 55.328125 
Q 55.078125 49.078125 51.53125 44.71875 
Q 48 40.375 41.703125 38.8125 
Q 48.828125 37.15625 52.796875 32.3125 
Q 56.78125 27.484375 56.78125 20.515625 
Q 56.78125 9.90625 50.3125 4.234375 
Q 43.84375 -1.421875 31.78125 -1.421875 
Q 19.734375 -1.421875 13.25 4.234375 
Q 6.78125 9.90625 6.78125 20.515625 
Q 6.78125 27.484375 10.78125 32.3125 
Q 14.796875 37.15625 21.921875 38.8125 
z
M 18.3125 54.390625 
Q 18.3125 48.734375 21.84375 45.5625 
Q 25.390625 42.390625 31.78125 42.390625 
Q 38.140625 42.390625 41.71875 45.5625 
Q 45.3125 48.734375 45.3125 54.390625 
Q 45.3125 60.0625 41.71875 63.234375 
Q 38.140625 66.40625 31.78125 66.40625 
Q 25.390625 66.40625 21.84375 63.234375 
Q 18.3125 60.0625 18.3125 54.390625 
z
" id="DejaVuSans-38"/>
     </defs>
     <g transform="translate(33.83125 20.36505)scale(0.1 -0.1)">
      <use xlink:href="#DejaVuSans-31"/>
      <use x="63.623047" xlink:href="#DejaVuSans-65"/>
      <use x="125.146484" xlink:href="#DejaVuSans-38"/>
     </g>
    </g>
   </g>
   <g id="line2d_25">
    <path clip-path="url(#p7576f58b0c)" d="M 33.83125 39.64751 
L 35.906859 51.933365 
L 37.781602 46.33346 
L 39.857211 50.294508 
L 41.865865 43.722013 
L 43.941474 38.122384 
L 45.950127 34.563749 
L 48.025736 30.512933 
L 52.109999 55.95492 
L 54.185607 51.678334 
L 56.194261 41.406431 
L 58.26987 39.931384 
L 60.345479 49.529324 
L 62.220222 49.122622 
L 64.295831 48.822238 
L 66.304485 38.816144 
L 68.380093 33.169661 
L 70.388747 31.17118 
L 72.464356 28.394755 
L 76.548618 46.305564 
L 78.624227 52.084268 
L 80.632881 36.72277 
L 82.70849 30.552088 
L 84.784099 52.484074 
L 86.658842 58.090332 
L 88.734451 47.379131 
L 90.743105 41.816314 
L 92.818713 33.110129 
L 94.827367 27.744242 
L 96.902976 27.045606 
L 98.978585 31.004437 
L 100.987238 34.548878 
L 103.062847 48.121757 
L 105.071501 34.338366 
L 107.14711 44.674052 
L 109.222719 49.449708 
L 111.164417 59.109713 
L 113.240026 54.801277 
L 115.24868 41.280789 
L 117.324288 42.044529 
L 119.332942 36.595221 
L 121.408551 35.533603 
L 123.48416 41.981604 
L 125.492813 51.346336 
L 127.568422 57.948683 
L 129.577076 41.3012 
L 131.652685 40.013872 
L 133.728294 49.924279 
L 135.603037 49.894324 
L 137.678646 55.075665 
L 139.687299 46.071591 
L 141.762908 41.209802 
L 143.771562 39.891699 
L 145.847171 40.526906 
L 147.92278 43.774617 
L 149.931433 46.236926 
L 152.007042 47.598251 
L 154.015696 37.890484 
L 156.091305 41.154636 
L 158.166913 49.418354 
L 160.041657 52.97604 
L 162.117266 61.751093 
L 164.125919 50.433745 
L 166.201528 45.744032 
L 168.210182 38.612498 
L 170.285791 38.015138 
L 172.3614 41.740297 
L 174.370053 46.378351 
L 176.445662 52.648295 
L 178.454316 44.508633 
L 180.529925 43.598236 
L 182.605533 55.907621 
L 184.480277 55.22766 
L 186.555886 58.399666 
L 188.564539 56.630683 
L 190.640148 46.618154 
L 192.648802 44.411399 
L 194.724411 41.672025 
L 196.800019 47.1466 
L 198.808673 50.376098 
L 200.884282 52.226647 
L 202.892936 47.460819 
L 204.968544 46.094283 
L 207.044153 55.337047 
L 208.985852 62.251053 
L 211.061461 59.958437 
L 213.070114 52.98374 
L 215.145723 49.381821 
L 217.154377 41.27544 
L 219.229986 40.314446 
L 221.305594 48.695636 
L 223.314248 54.560162 
L 225.389857 60.002727 
L 227.398511 52.752863 
L 229.474119 53.701227 
L 231.549728 62.217908 
L 233.424472 66.052275 
L 235.500081 71.454034 
L 237.508734 60.762536 
L 239.584343 52.287293 
L 241.592997 46.616849 
L 243.668606 48.074369 
L 245.744214 54.96966 
L 247.752868 55.044882 
L 249.828477 56.86555 
L 251.837131 52.743506 
L 253.912739 51.738523 
L 255.988348 61.443846 
L 257.863092 62.691918 
L 259.9387 66.412588 
L 264.022963 48.78282 
L 266.031617 44.06074 
L 268.107225 45.993391 
L 270.182834 51.352022 
L 272.191488 57.540793 
L 274.267097 60.035784 
L 276.27575 53.546523 
L 278.351359 51.493865 
L 280.426968 65.799246 
L 282.301712 67.261551 
L 284.37732 66.621321 
L 286.385974 60.798634 
L 288.461583 53.993872 
L 290.470237 48.738702 
L 292.545845 46.120118 
L 296.630108 63.407398 
L 298.705717 69.097198 
L 300.71437 72.600082 
L 302.789979 78.818557 
L 304.865588 81.194612 
L 306.807287 80.639431 
L 308.882895 81.681897 
L 310.891549 75.59978 
L 312.967158 68.765997 
L 314.975812 67.54788 
L 317.05142 65.615918 
L 319.127029 66.295419 
L 321.135683 66.123458 
L 323.211292 68.643772 
L 325.219945 67.084999 
L 327.295554 69.35214 
L 329.371163 74.496879 
L 331.245906 73.471211 
L 333.321515 79.848375 
L 335.330169 71.398604 
L 337.405778 64.564043 
L 339.414431 55.086499 
L 341.49004 54.771445 
L 343.565649 63.123932 
L 345.574303 73.638218 
L 347.649912 76.9896 
L 349.658565 66.879636 
L 351.734174 73.383001 
L 353.809783 74.206519 
L 355.684526 73.593879 
L 357.760135 82.806257 
L 359.768789 72.677073 
L 361.844398 67.840508 
L 363.853051 56.343389 
L 365.92866 56.414141 
L 368.004269 61.982286 
L 370.012923 79.350318 
L 372.088531 80.900895 
L 374.097185 81.310445 
L 376.172794 84.251053 
L 378.248403 89.060539 
L 380.123146 89.419157 
L 382.198755 93.025388 
L 384.207409 90.452013 
L 386.283018 75.150345 
L 388.291671 72.619861 
L 390.36728 71.378571 
L 392.442889 76.455185 
L 394.451543 80.900925 
L 396.527151 87.350171 
L 398.535805 91.03019 
L 400.611414 90.231236 
L 402.687023 99.561404 
L 404.628721 100.656727 
L 406.70433 99.137804 
L 408.712984 92.925137 
L 410.788593 77.181709 
L 412.797246 71.630387 
L 414.872855 73.8398 
L 416.948464 74.640767 
L 418.957118 78.057293 
L 421.032726 88.370813 
L 423.04138 79.003171 
L 425.116989 83.811687 
L 427.192598 93.784991 
L 429.067341 92.392061 
L 431.14295 88.353365 
L 433.151604 83.601875 
L 435.227212 77.890836 
L 437.235866 96.333892 
L 439.311475 95.765607 
L 441.387084 98.245356 
L 443.395737 99.489571 
L 445.471346 98.747272 
L 447.48 98.998237 
L 447.48 98.998237 
" style="fill:none;stroke:#008000;stroke-linecap:square;stroke-width:1.5;"/>
   </g>
   <g id="patch_3">
    <path d="M 33.83125 104.337283 
L 33.83125 23.36505 
" style="fill:none;stroke:#000000;stroke-linecap:square;stroke-linejoin:miter;stroke-width:0.8;"/>
   </g>
   <g id="patch_4">
    <path d="M 447.48 104.337283 
L 447.48 23.36505 
" style="fill:none;stroke:#000000;stroke-linecap:square;stroke-linejoin:miter;stroke-width:0.8;"/>
   </g>
   <g id="patch_5">
    <path d="M 33.83125 104.337283 
L 447.48 104.337283 
" style="fill:none;stroke:#000000;stroke-linecap:square;stroke-linejoin:miter;stroke-width:0.8;"/>
   </g>
   <g id="patch_6">
    <path d="M 33.83125 23.36505 
L 447.48 23.36505 
" style="fill:none;stroke:#000000;stroke-linecap:square;stroke-linejoin:miter;stroke-width:0.8;"/>
   </g>
   <g id="text_6">
    <!-- Monthly emissions -->
    <defs>
     <path d="M 9.8125 72.90625 
L 24.515625 72.90625 
L 43.109375 23.296875 
L 61.8125 72.90625 
L 76.515625 72.90625 
L 76.515625 0 
L 66.890625 0 
L 66.890625 64.015625 
L 48.09375 14.015625 
L 38.1875 14.015625 
L 19.390625 64.015625 
L 19.390625 0 
L 9.8125 0 
z
" id="DejaVuSans-4d"/>
     <path d="M 30.609375 48.390625 
Q 23.390625 48.390625 19.1875 42.75 
Q 14.984375 37.109375 14.984375 27.296875 
Q 14.984375 17.484375 19.15625 11.84375 
Q 23.34375 6.203125 30.609375 6.203125 
Q 37.796875 6.203125 41.984375 11.859375 
Q 46.1875 17.53125 46.1875 27.296875 
Q 46.1875 37.015625 41.984375 42.703125 
Q 37.796875 48.390625 30.609375 48.390625 
z
M 30.609375 56 
Q 42.328125 56 49.015625 48.375 
Q 55.71875 40.765625 55.71875 27.296875 
Q 55.71875 13.875 49.015625 6.21875 
Q 42.328125 -1.421875 30.609375 -1.421875 
Q 18.84375 -1.421875 12.171875 6.21875 
Q 5.515625 13.875 5.515625 27.296875 
Q 5.515625 40.765625 12.171875 48.375 
Q 18.84375 56 30.609375 56 
z
" id="DejaVuSans-6f"/>
     <path d="M 54.890625 33.015625 
L 54.890625 0 
L 45.90625 0 
L 45.90625 32.71875 
Q 45.90625 40.484375 42.875 44.328125 
Q 39.84375 48.1875 33.796875 48.1875 
Q 26.515625 48.1875 22.3125 43.546875 
Q 18.109375 38.921875 18.109375 30.90625 
L 18.109375 0 
L 9.078125 0 
L 9.078125 54.6875 
L 18.109375 54.6875 
L 18.109375 46.1875 
Q 21.34375 51.125 25.703125 53.5625 
Q 30.078125 56 35.796875 56 
Q 45.21875 56 50.046875 50.171875 
Q 54.890625 44.34375 54.890625 33.015625 
z
" id="DejaVuSans-6e"/>
     <path d="M 18.3125 70.21875 
L 18.3125 54.6875 
L 36.8125 54.6875 
L 36.8125 47.703125 
L 18.3125 47.703125 
L 18.3125 18.015625 
Q 18.3125 11.328125 20.140625 9.421875 
Q 21.96875 7.515625 27.59375 7.515625 
L 36.8125 7.515625 
L 36.8125 0 
L 27.59375 0 
Q 17.1875 0 13.234375 3.875 
Q 9.28125 7.765625 9.28125 18.015625 
L 9.28125 47.703125 
L 2.6875 47.703125 
L 2.6875 54.6875 
L 9.28125 54.6875 
L 9.28125 70.21875 
z
" id="DejaVuSans-74"/>
     <path d="M 54.890625 33.015625 
L 54.890625 0 
L 45.90625 0 
L 45.90625 32.71875 
Q 45.90625 40.484375 42.875 44.328125 
Q 39.84375 48.1875 33.796875 48.1875 
Q 26.515625 48.1875 22.3125 43.546875 
Q 18.109375 38.921875 18.109375 30.90625 
L 18.109375 0 
L 9.078125 0 
L 9.078125 75.984375 
L 18.109375 75.984375 
L 18.109375 46.1875 
Q 21.34375 51.125 25.703125 53.5625 
Q 30.078125 56 35.796875 56 
Q 45.21875 56 50.046875 50.171875 
Q 54.890625 44.34375 54.890625 33.015625 
z
" id="DejaVuSans-68"/>
     <path d="M 9.421875 75.984375 
L 18.40625 75.984375 
L 18.40625 0 
L 9.421875 0 
z
" id="DejaVuSans-6c"/>
     <path d="M 32.171875 -5.078125 
Q 28.375 -14.84375 24.75 -17.8125 
Q 21.140625 -20.796875 15.09375 -20.796875 
L 7.90625 -20.796875 
L 7.90625 -13.28125 
L 13.1875 -13.28125 
Q 16.890625 -13.28125 18.9375 -11.515625 
Q 21 -9.765625 23.484375 -3.21875 
L 25.09375 0.875 
L 2.984375 54.6875 
L 12.5 54.6875 
L 29.59375 11.921875 
L 46.6875 54.6875 
L 56.203125 54.6875 
z
" id="DejaVuSans-79"/>
     <path id="DejaVuSans-20"/>
     <path d="M 52 44.1875 
Q 55.375 50.25 60.0625 53.125 
Q 64.75 56 71.09375 56 
Q 79.640625 56 84.28125 50.015625 
Q 88.921875 44.046875 88.921875 33.015625 
L 88.921875 0 
L 79.890625 0 
L 79.890625 32.71875 
Q 79.890625 40.578125 77.09375 44.375 
Q 74.3125 48.1875 68.609375 48.1875 
Q 61.625 48.1875 57.5625 43.546875 
Q 53.515625 38.921875 53.515625 30.90625 
L 53.515625 0 
L 44.484375 0 
L 44.484375 32.71875 
Q 44.484375 40.625 41.703125 44.40625 
Q 38.921875 48.1875 33.109375 48.1875 
Q 26.21875 48.1875 22.15625 43.53125 
Q 18.109375 38.875 18.109375 30.90625 
L 18.109375 0 
L 9.078125 0 
L 9.078125 54.6875 
L 18.109375 54.6875 
L 18.109375 46.1875 
Q 21.1875 51.21875 25.484375 53.609375 
Q 29.78125 56 35.6875 56 
Q 41.65625 56 45.828125 52.96875 
Q 50 49.953125 52 44.1875 
z
" id="DejaVuSans-6d"/>
     <path d="M 9.421875 54.6875 
L 18.40625 54.6875 
L 18.40625 0 
L 9.421875 0 
z
M 9.421875 75.984375 
L 18.40625 75.984375 
L 18.40625 64.59375 
L 9.421875 64.59375 
z
" id="DejaVuSans-69"/>
     <path d="M 44.28125 53.078125 
L 44.28125 44.578125 
Q 40.484375 46.53125 36.375 47.5 
Q 32.28125 48.484375 27.875 48.484375 
Q 21.1875 48.484375 17.84375 46.4375 
Q 14.5 44.390625 14.5 40.28125 
Q 14.5 37.15625 16.890625 35.375 
Q 19.28125 33.59375 26.515625 31.984375 
L 29.59375 31.296875 
Q 39.15625 29.25 43.1875 25.515625 
Q 47.21875 21.78125 47.21875 15.09375 
Q 47.21875 7.46875 41.1875 3.015625 
Q 35.15625 -1.421875 24.609375 -1.421875 
Q 20.21875 -1.421875 15.453125 -0.5625 
Q 10.6875 0.296875 5.421875 2 
L 5.421875 11.28125 
Q 10.40625 8.6875 15.234375 7.390625 
Q 20.0625 6.109375 24.8125 6.109375 
Q 31.15625 6.109375 34.5625 8.28125 
Q 37.984375 10.453125 37.984375 14.40625 
Q 37.984375 18.0625 35.515625 20.015625 
Q 33.0625 21.96875 24.703125 23.78125 
L 21.578125 24.515625 
Q 13.234375 26.265625 9.515625 29.90625 
Q 5.8125 33.546875 5.8125 39.890625 
Q 5.8125 47.609375 11.28125 51.796875 
Q 16.75 56 26.8125 56 
Q 31.78125 56 36.171875 55.265625 
Q 40.578125 54.546875 44.28125 53.078125 
z
" id="DejaVuSans-73"/>
    </defs>
    <g transform="translate(185.004687 17.36505)scale(0.12 -0.12)">
     <use xlink:href="#DejaVuSans-4d"/>
     <use x="86.279297" xlink:href="#DejaVuSans-6f"/>
     <use x="147.460938" xlink:href="#DejaVuSans-6e"/>
     <use x="210.839844" xlink:href="#DejaVuSans-74"/>
     <use x="250.048828" xlink:href="#DejaVuSans-68"/>
     <use x="313.427734" xlink:href="#DejaVuSans-6c"/>
     <use x="341.210938" xlink:href="#DejaVuSans-79"/>
     <use x="400.390625" xlink:href="#DejaVuSans-20"/>
     <use x="432.177734" xlink:href="#DejaVuSans-65"/>
     <use x="493.701172" xlink:href="#DejaVuSans-6d"/>
     <use x="591.113281" xlink:href="#DejaVuSans-69"/>
     <use x="618.896484" xlink:href="#DejaVuSans-73"/>
     <use x="670.996094" xlink:href="#DejaVuSans-73"/>
     <use x="723.095703" xlink:href="#DejaVuSans-69"/>
     <use x="750.878906" xlink:href="#DejaVuSans-6f"/>
     <use x="812.060547" xlink:href="#DejaVuSans-6e"/>
     <use x="875.439453" xlink:href="#DejaVuSans-73"/>
    </g>
   </g>
   <g id="legend_1">
    <g id="patch_7">
     <path d="M 362.58 46.043175 
L 440.48 46.043175 
Q 442.48 46.043175 442.48 44.043175 
L 442.48 30.36505 
Q 442.48 28.36505 440.48 28.36505 
L 362.58 28.36505 
Q 360.58 28.36505 360.58 30.36505 
L 360.58 44.043175 
Q 360.58 46.043175 362.58 46.043175 
z
" style="fill:#ffffff;opacity:0.8;stroke:#cccccc;stroke-linejoin:miter;"/>
    </g>
    <g id="line2d_26">
     <path d="M 364.58 36.463488 
L 384.58 36.463488 
" style="fill:none;stroke:#008000;stroke-linecap:square;stroke-width:1.5;"/>
    </g>
    <g id="line2d_27"/>
    <g id="text_7">
     <!-- SO2 (lbs) -->
     <defs>
      <path d="M 53.515625 70.515625 
L 53.515625 60.890625 
Q 47.90625 63.578125 42.921875 64.890625 
Q 37.9375 66.21875 33.296875 66.21875 
Q 25.25 66.21875 20.875 63.09375 
Q 16.5 59.96875 16.5 54.203125 
Q 16.5 49.359375 19.40625 46.890625 
Q 22.3125 44.4375 30.421875 42.921875 
L 36.375 41.703125 
Q 47.40625 39.59375 52.65625 34.296875 
Q 57.90625 29 57.90625 20.125 
Q 57.90625 9.515625 50.796875 4.046875 
Q 43.703125 -1.421875 29.984375 -1.421875 
Q 24.8125 -1.421875 18.96875 -0.25 
Q 13.140625 0.921875 6.890625 3.21875 
L 6.890625 13.375 
Q 12.890625 10.015625 18.65625 8.296875 
Q 24.421875 6.59375 29.984375 6.59375 
Q 38.421875 6.59375 43.015625 9.90625 
Q 47.609375 13.234375 47.609375 19.390625 
Q 47.609375 24.75 44.3125 27.78125 
Q 41.015625 30.8125 33.5 32.328125 
L 27.484375 33.5 
Q 16.453125 35.6875 11.515625 40.375 
Q 6.59375 45.0625 6.59375 53.421875 
Q 6.59375 63.09375 13.40625 68.65625 
Q 20.21875 74.21875 32.171875 74.21875 
Q 37.3125 74.21875 42.625 73.28125 
Q 47.953125 72.359375 53.515625 70.515625 
z
" id="DejaVuSans-53"/>
      <path d="M 39.40625 66.21875 
Q 28.65625 66.21875 22.328125 58.203125 
Q 16.015625 50.203125 16.015625 36.375 
Q 16.015625 22.609375 22.328125 14.59375 
Q 28.65625 6.59375 39.40625 6.59375 
Q 50.140625 6.59375 56.421875 14.59375 
Q 62.703125 22.609375 62.703125 36.375 
Q 62.703125 50.203125 56.421875 58.203125 
Q 50.140625 66.21875 39.40625 66.21875 
z
M 39.40625 74.21875 
Q 54.734375 74.21875 63.90625 63.9375 
Q 73.09375 53.65625 73.09375 36.375 
Q 73.09375 19.140625 63.90625 8.859375 
Q 54.734375 -1.421875 39.40625 -1.421875 
Q 24.03125 -1.421875 14.8125 8.828125 
Q 5.609375 19.09375 5.609375 36.375 
Q 5.609375 53.65625 14.8125 63.9375 
Q 24.03125 74.21875 39.40625 74.21875 
z
" id="DejaVuSans-4f"/>
      <path d="M 31 75.875 
Q 24.46875 64.65625 21.28125 53.65625 
Q 18.109375 42.671875 18.109375 31.390625 
Q 18.109375 20.125 21.3125 9.0625 
Q 24.515625 -2 31 -13.1875 
L 23.1875 -13.1875 
Q 15.875 -1.703125 12.234375 9.375 
Q 8.59375 20.453125 8.59375 31.390625 
Q 8.59375 42.28125 12.203125 53.3125 
Q 15.828125 64.359375 23.1875 75.875 
z
" id="DejaVuSans-28"/>
      <path d="M 48.6875 27.296875 
Q 48.6875 37.203125 44.609375 42.84375 
Q 40.53125 48.484375 33.40625 48.484375 
Q 26.265625 48.484375 22.1875 42.84375 
Q 18.109375 37.203125 18.109375 27.296875 
Q 18.109375 17.390625 22.1875 11.75 
Q 26.265625 6.109375 33.40625 6.109375 
Q 40.53125 6.109375 44.609375 11.75 
Q 48.6875 17.390625 48.6875 27.296875 
z
M 18.109375 46.390625 
Q 20.953125 51.265625 25.265625 53.625 
Q 29.59375 56 35.59375 56 
Q 45.5625 56 51.78125 48.09375 
Q 58.015625 40.1875 58.015625 27.296875 
Q 58.015625 14.40625 51.78125 6.484375 
Q 45.5625 -1.421875 35.59375 -1.421875 
Q 29.59375 -1.421875 25.265625 0.953125 
Q 20.953125 3.328125 18.109375 8.203125 
L 18.109375 0 
L 9.078125 0 
L 9.078125 75.984375 
L 18.109375 75.984375 
z
" id="DejaVuSans-62"/>
      <path d="M 8.015625 75.875 
L 15.828125 75.875 
Q 23.140625 64.359375 26.78125 53.3125 
Q 30.421875 42.28125 30.421875 31.390625 
Q 30.421875 20.453125 26.78125 9.375 
Q 23.140625 -1.703125 15.828125 -13.1875 
L 8.015625 -13.1875 
Q 14.5 -2 17.703125 9.0625 
Q 20.90625 20.125 20.90625 31.390625 
Q 20.90625 42.671875 17.703125 53.65625 
Q 14.5 64.65625 8.015625 75.875 
z
" id="DejaVuSans-29"/>
     </defs>
     <g transform="translate(392.58 39.963488)scale(0.1 -0.1)">
      <use xlink:href="#DejaVuSans-53"/>
      <use x="63.476562" xlink:href="#DejaVuSans-4f"/>
      <use x="142.1875" xlink:href="#DejaVuSans-32"/>
      <use x="205.810547" xlink:href="#DejaVuSans-20"/>
      <use x="237.597656" xlink:href="#DejaVuSans-28"/>
      <use x="276.611328" xlink:href="#DejaVuSans-6c"/>
      <use x="304.394531" xlink:href="#DejaVuSans-62"/>
      <use x="367.871094" xlink:href="#DejaVuSans-73"/>
      <use x="419.970703" xlink:href="#DejaVuSans-29"/>
     </g>
    </g>
   </g>
  </g>
  <g id="axes_2">
   <g id="patch_8">
    <path d="M 33.83125 207.100392 
L 447.48 207.100392 
L 447.48 126.128158 
L 33.83125 126.128158 
z
" style="fill:none;"/>
   </g>
   <g id="matplotlib.axis_3">
    <g id="xtick_9">
     <g id="line2d_28">
      <path clip-path="url(#p2ee46edbe4)" d="M 58.26987 207.100392 
L 58.26987 126.128158 
" style="fill:none;stroke:#b0b0b0;stroke-linecap:square;stroke-width:0.8;"/>
     </g>
     <g id="line2d_29">
      <g>
       <use style="stroke:#000000;stroke-width:0.8;" x="58.26987" xlink:href="#m460b35d096" y="207.100392"/>
      </g>
     </g>
    </g>
    <g id="xtick_10">
     <g id="line2d_30">
      <path clip-path="url(#p2ee46edbe4)" d="M 107.14711 207.100392 
L 107.14711 126.128158 
" style="fill:none;stroke:#b0b0b0;stroke-linecap:square;stroke-width:0.8;"/>
     </g>
     <g id="line2d_31">
      <g>
       <use style="stroke:#000000;stroke-width:0.8;" x="107.14711" xlink:href="#m460b35d096" y="207.100392"/>
      </g>
     </g>
    </g>
    <g id="xtick_11">
     <g id="line2d_32">
      <path clip-path="url(#p2ee46edbe4)" d="M 156.091305 207.100392 
L 156.091305 126.128158 
" style="fill:none;stroke:#b0b0b0;stroke-linecap:square;stroke-width:0.8;"/>
     </g>
     <g id="line2d_33">
      <g>
       <use style="stroke:#000000;stroke-width:0.8;" x="156.091305" xlink:href="#m460b35d096" y="207.100392"/>
      </g>
     </g>
    </g>
    <g id="xtick_12">
     <g id="line2d_34">
      <path clip-path="url(#p2ee46edbe4)" d="M 204.968544 207.100392 
L 204.968544 126.128158 
" style="fill:none;stroke:#b0b0b0;stroke-linecap:square;stroke-width:0.8;"/>
     </g>
     <g id="line2d_35">
      <g>
       <use style="stroke:#000000;stroke-width:0.8;" x="204.968544" xlink:href="#m460b35d096" y="207.100392"/>
      </g>
     </g>
    </g>
    <g id="xtick_13">
     <g id="line2d_36">
      <path clip-path="url(#p2ee46edbe4)" d="M 253.912739 207.100392 
L 253.912739 126.128158 
" style="fill:none;stroke:#b0b0b0;stroke-linecap:square;stroke-width:0.8;"/>
     </g>
     <g id="line2d_37">
      <g>
       <use style="stroke:#000000;stroke-width:0.8;" x="253.912739" xlink:href="#m460b35d096" y="207.100392"/>
      </g>
     </g>
    </g>
    <g id="xtick_14">
     <g id="line2d_38">
      <path clip-path="url(#p2ee46edbe4)" d="M 302.789979 207.100392 
L 302.789979 126.128158 
" style="fill:none;stroke:#b0b0b0;stroke-linecap:square;stroke-width:0.8;"/>
     </g>
     <g id="line2d_39">
      <g>
       <use style="stroke:#000000;stroke-width:0.8;" x="302.789979" xlink:href="#m460b35d096" y="207.100392"/>
      </g>
     </g>
    </g>
    <g id="xtick_15">
     <g id="line2d_40">
      <path clip-path="url(#p2ee46edbe4)" d="M 351.734174 207.100392 
L 351.734174 126.128158 
" style="fill:none;stroke:#b0b0b0;stroke-linecap:square;stroke-width:0.8;"/>
     </g>
     <g id="line2d_41">
      <g>
       <use style="stroke:#000000;stroke-width:0.8;" x="351.734174" xlink:href="#m460b35d096" y="207.100392"/>
      </g>
     </g>
    </g>
    <g id="xtick_16">
     <g id="line2d_42">
      <path clip-path="url(#p2ee46edbe4)" d="M 400.611414 207.100392 
L 400.611414 126.128158 
" style="fill:none;stroke:#b0b0b0;stroke-linecap:square;stroke-width:0.8;"/>
     </g>
     <g id="line2d_43">
      <g>
       <use style="stroke:#000000;stroke-width:0.8;" x="400.611414" xlink:href="#m460b35d096" y="207.100392"/>
      </g>
     </g>
    </g>
   </g>
   <g id="matplotlib.axis_4">
    <g id="ytick_5">
     <g id="line2d_44">
      <path clip-path="url(#p2ee46edbe4)" d="M 33.83125 189.098602 
L 447.48 189.098602 
" style="fill:none;stroke:#b0b0b0;stroke-linecap:square;stroke-width:0.8;"/>
     </g>
     <g id="line2d_45">
      <g>
       <use style="stroke:#000000;stroke-width:0.8;" x="33.83125" xlink:href="#m8f3ae383dc" y="189.098602"/>
      </g>
     </g>
     <g id="text_8">
      <!-- 2 -->
      <g transform="translate(20.46875 192.89782)scale(0.1 -0.1)">
       <use xlink:href="#DejaVuSans-32"/>
      </g>
     </g>
    </g>
    <g id="ytick_6">
     <g id="line2d_46">
      <path clip-path="url(#p2ee46edbe4)" d="M 33.83125 164.420509 
L 447.48 164.420509 
" style="fill:none;stroke:#b0b0b0;stroke-linecap:square;stroke-width:0.8;"/>
     </g>
     <g id="line2d_47">
      <g>
       <use style="stroke:#000000;stroke-width:0.8;" x="33.83125" xlink:href="#m8f3ae383dc" y="164.420509"/>
      </g>
     </g>
     <g id="text_9">
      <!-- 4 -->
      <defs>
       <path d="M 37.796875 64.3125 
L 12.890625 25.390625 
L 37.796875 25.390625 
z
M 35.203125 72.90625 
L 47.609375 72.90625 
L 47.609375 25.390625 
L 58.015625 25.390625 
L 58.015625 17.1875 
L 47.609375 17.1875 
L 47.609375 0 
L 37.796875 0 
L 37.796875 17.1875 
L 4.890625 17.1875 
L 4.890625 26.703125 
z
" id="DejaVuSans-34"/>
      </defs>
      <g transform="translate(20.46875 168.219727)scale(0.1 -0.1)">
       <use xlink:href="#DejaVuSans-34"/>
      </g>
     </g>
    </g>
    <g id="ytick_7">
     <g id="line2d_48">
      <path clip-path="url(#p2ee46edbe4)" d="M 33.83125 139.742416 
L 447.48 139.742416 
" style="fill:none;stroke:#b0b0b0;stroke-linecap:square;stroke-width:0.8;"/>
     </g>
     <g id="line2d_49">
      <g>
       <use style="stroke:#000000;stroke-width:0.8;" x="33.83125" xlink:href="#m8f3ae383dc" y="139.742416"/>
      </g>
     </g>
     <g id="text_10">
      <!-- 6 -->
      <defs>
       <path d="M 33.015625 40.375 
Q 26.375 40.375 22.484375 35.828125 
Q 18.609375 31.296875 18.609375 23.390625 
Q 18.609375 15.53125 22.484375 10.953125 
Q 26.375 6.390625 33.015625 6.390625 
Q 39.65625 6.390625 43.53125 10.953125 
Q 47.40625 15.53125 47.40625 23.390625 
Q 47.40625 31.296875 43.53125 35.828125 
Q 39.65625 40.375 33.015625 40.375 
z
M 52.59375 71.296875 
L 52.59375 62.3125 
Q 48.875 64.0625 45.09375 64.984375 
Q 41.3125 65.921875 37.59375 65.921875 
Q 27.828125 65.921875 22.671875 59.328125 
Q 17.53125 52.734375 16.796875 39.40625 
Q 19.671875 43.65625 24.015625 45.921875 
Q 28.375 48.1875 33.59375 48.1875 
Q 44.578125 48.1875 50.953125 41.515625 
Q 57.328125 34.859375 57.328125 23.390625 
Q 57.328125 12.15625 50.6875 5.359375 
Q 44.046875 -1.421875 33.015625 -1.421875 
Q 20.359375 -1.421875 13.671875 8.265625 
Q 6.984375 17.96875 6.984375 36.375 
Q 6.984375 53.65625 15.1875 63.9375 
Q 23.390625 74.21875 37.203125 74.21875 
Q 40.921875 74.21875 44.703125 73.484375 
Q 48.484375 72.75 52.59375 71.296875 
z
" id="DejaVuSans-36"/>
      </defs>
      <g transform="translate(20.46875 143.541634)scale(0.1 -0.1)">
       <use xlink:href="#DejaVuSans-36"/>
      </g>
     </g>
    </g>
    <g id="text_11">
     <!-- 1e7 -->
     <g transform="translate(33.83125 123.128158)scale(0.1 -0.1)">
      <use xlink:href="#DejaVuSans-31"/>
      <use x="63.623047" xlink:href="#DejaVuSans-65"/>
      <use x="125.146484" xlink:href="#DejaVuSans-37"/>
     </g>
    </g>
   </g>
   <g id="line2d_50">
    <path clip-path="url(#p2ee46edbe4)" d="M 33.83125 145.298438 
L 35.906859 158.651749 
L 37.781602 153.962695 
L 39.857211 152.973353 
L 41.865865 146.337991 
L 43.941474 140.690693 
L 45.950127 129.808714 
L 48.025736 129.971188 
L 50.101345 150.196404 
L 52.109999 162.366397 
L 54.185607 165.376581 
L 58.26987 158.670308 
L 60.345479 166.361943 
L 62.220222 167.214981 
L 64.295831 164.965402 
L 66.304485 159.397406 
L 68.380093 154.715157 
L 70.388747 151.394741 
L 72.464356 148.701136 
L 74.539965 159.483322 
L 76.548618 168.313937 
L 78.624227 173.256622 
L 80.632881 166.339782 
L 82.70849 162.580359 
L 84.784099 170.855493 
L 86.658842 175.173836 
L 88.734451 177.132471 
L 90.743105 166.774171 
L 92.818713 167.686339 
L 94.827367 162.617122 
L 96.902976 162.200766 
L 98.978585 171.654568 
L 100.987238 174.230009 
L 103.062847 176.349378 
L 105.071501 176.292692 
L 107.14711 174.038853 
L 109.222719 177.700784 
L 111.164417 183.480732 
L 113.240026 180.912521 
L 115.24868 175.253376 
L 117.324288 174.022267 
L 119.332942 169.815654 
L 121.408551 170.178304 
L 123.48416 173.380386 
L 125.492813 175.844421 
L 127.568422 180.814727 
L 129.577076 174.607391 
L 131.652685 174.710487 
L 133.728294 181.369874 
L 135.603037 181.828423 
L 137.678646 185.372164 
L 139.687299 176.296188 
L 141.762908 173.22478 
L 145.847171 170.735649 
L 147.92278 175.026049 
L 149.931433 180.482202 
L 152.007042 179.436309 
L 154.015696 177.429802 
L 156.091305 180.691729 
L 158.166913 184.99199 
L 160.041657 184.539276 
L 162.117266 183.256686 
L 164.125919 178.535523 
L 168.210182 170.442551 
L 170.285791 169.166193 
L 172.3614 177.1536 
L 174.370053 179.198527 
L 176.445662 182.037121 
L 178.454316 180.547957 
L 180.529925 178.380369 
L 182.605533 185.725627 
L 184.480277 187.759801 
L 186.555886 183.276904 
L 188.564539 180.070084 
L 190.640148 178.58788 
L 192.648802 176.623538 
L 194.724411 172.702379 
L 196.800019 180.26975 
L 198.808673 180.700549 
L 200.884282 182.688825 
L 202.892936 180.701667 
L 204.968544 179.321299 
L 207.044153 186.136641 
L 208.985852 185.573559 
L 211.061461 184.467123 
L 213.070114 180.732855 
L 215.145723 176.081366 
L 217.154377 173.066809 
L 219.229986 173.217049 
L 221.305594 180.485856 
L 223.314248 183.867459 
L 225.389857 185.338222 
L 227.398511 182.919074 
L 229.474119 184.101004 
L 231.549728 191.068825 
L 233.424472 190.582515 
L 235.500081 192.44749 
L 237.508734 184.137041 
L 239.584343 178.516846 
L 241.592997 175.221938 
L 243.668606 175.751394 
L 245.744214 183.688627 
L 247.752868 184.371597 
L 249.828477 187.197717 
L 251.837131 181.242904 
L 253.912739 181.963295 
L 255.988348 185.732659 
L 257.863092 187.091062 
L 259.9387 190.44662 
L 261.947354 184.298427 
L 264.022963 179.661879 
L 266.031617 177.971054 
L 268.107225 174.153017 
L 270.182834 181.838937 
L 272.191488 185.611107 
L 274.267097 187.448664 
L 278.351359 182.900575 
L 280.426968 187.672659 
L 282.301712 187.397293 
L 284.37732 186.419086 
L 286.385974 183.400752 
L 288.461583 178.476493 
L 290.470237 173.327041 
L 292.545845 172.177691 
L 294.621454 181.328154 
L 296.630108 187.453736 
L 298.705717 190.791352 
L 300.71437 188.469732 
L 302.789979 190.679659 
L 304.865588 192.522255 
L 306.807287 193.83241 
L 308.882895 193.723687 
L 310.891549 188.467805 
L 312.967158 183.655206 
L 314.975812 180.380097 
L 317.05142 179.60132 
L 319.127029 185.476505 
L 321.135683 187.836797 
L 323.211292 184.872161 
L 325.219945 184.928473 
L 327.295554 181.385832 
L 329.371163 187.103906 
L 331.245906 189.974785 
L 333.321515 192.850034 
L 335.330169 188.674876 
L 337.405778 183.648121 
L 339.414431 180.711669 
L 341.49004 178.883173 
L 343.565649 182.685736 
L 345.574303 188.748254 
L 347.649912 190.928472 
L 349.658565 185.44681 
L 351.734174 187.218236 
L 353.809783 189.188354 
L 355.684526 191.768861 
L 357.760135 193.393805 
L 359.768789 187.866236 
L 361.844398 186.211787 
L 363.853051 182.316219 
L 365.92866 181.758416 
L 368.004269 185.951324 
L 370.012923 191.043856 
L 372.088531 193.511427 
L 374.097185 192.598831 
L 376.172794 191.23 
L 378.248403 195.479795 
L 380.123146 196.804421 
L 382.198755 197.768803 
L 384.207409 193.010143 
L 386.283018 186.797227 
L 388.291671 182.916175 
L 390.36728 181.828999 
L 392.442889 187.262951 
L 394.451543 193.26352 
L 396.527151 195.89373 
L 398.535805 195.80042 
L 400.611414 194.575276 
L 402.687023 199.159908 
L 404.628721 199.733849 
L 406.70433 197.921345 
L 408.712984 194.291241 
L 410.788593 185.931521 
L 412.797246 183.198144 
L 414.872855 183.819366 
L 418.957118 189.688192 
L 421.032726 195.861534 
L 423.04138 189.815177 
L 425.116989 191.934651 
L 427.192598 198.526609 
L 429.067341 197.93239 
L 431.14295 195.260359 
L 433.151604 191.353644 
L 435.227212 186.530238 
L 437.235866 198.475086 
L 439.311475 199.517703 
L 443.395737 203.419836 
L 445.471346 203.28521 
L 447.48 201.805558 
L 447.48 201.805558 
" style="fill:none;stroke:#f97306;stroke-linecap:square;stroke-width:1.5;"/>
   </g>
   <g id="patch_9">
    <path d="M 33.83125 207.100392 
L 33.83125 126.128158 
" style="fill:none;stroke:#000000;stroke-linecap:square;stroke-linejoin:miter;stroke-width:0.8;"/>
   </g>
   <g id="patch_10">
    <path d="M 447.48 207.100392 
L 447.48 126.128158 
" style="fill:none;stroke:#000000;stroke-linecap:square;stroke-linejoin:miter;stroke-width:0.8;"/>
   </g>
   <g id="patch_11">
    <path d="M 33.83125 207.100392 
L 447.48 207.100392 
" style="fill:none;stroke:#000000;stroke-linecap:square;stroke-linejoin:miter;stroke-width:0.8;"/>
   </g>
   <g id="patch_12">
    <path d="M 33.83125 126.128158 
L 447.48 126.128158 
" style="fill:none;stroke:#000000;stroke-linecap:square;stroke-linejoin:miter;stroke-width:0.8;"/>
   </g>
   <g id="legend_2">
    <g id="patch_13">
     <path d="M 361.890938 148.806283 
L 440.48 148.806283 
Q 442.48 148.806283 442.48 146.806283 
L 442.48 133.128158 
Q 442.48 131.128158 440.48 131.128158 
L 361.890938 131.128158 
Q 359.890938 131.128158 359.890938 133.128158 
L 359.890938 146.806283 
Q 359.890938 148.806283 361.890938 148.806283 
z
" style="fill:#ffffff;opacity:0.8;stroke:#cccccc;stroke-linejoin:miter;"/>
    </g>
    <g id="line2d_51">
     <path d="M 363.890938 139.226596 
L 383.890938 139.226596 
" style="fill:none;stroke:#f97306;stroke-linecap:square;stroke-width:1.5;"/>
    </g>
    <g id="line2d_52"/>
    <g id="text_12">
     <!-- NOx (lbs) -->
     <defs>
      <path d="M 9.8125 72.90625 
L 23.09375 72.90625 
L 55.421875 11.921875 
L 55.421875 72.90625 
L 64.984375 72.90625 
L 64.984375 0 
L 51.703125 0 
L 19.390625 60.984375 
L 19.390625 0 
L 9.8125 0 
z
" id="DejaVuSans-4e"/>
      <path d="M 54.890625 54.6875 
L 35.109375 28.078125 
L 55.90625 0 
L 45.3125 0 
L 29.390625 21.484375 
L 13.484375 0 
L 2.875 0 
L 24.125 28.609375 
L 4.6875 54.6875 
L 15.28125 54.6875 
L 29.78125 35.203125 
L 44.28125 54.6875 
z
" id="DejaVuSans-78"/>
     </defs>
     <g transform="translate(391.890938 142.726596)scale(0.1 -0.1)">
      <use xlink:href="#DejaVuSans-4e"/>
      <use x="74.804688" xlink:href="#DejaVuSans-4f"/>
      <use x="153.515625" xlink:href="#DejaVuSans-78"/>
      <use x="212.695312" xlink:href="#DejaVuSans-20"/>
      <use x="244.482422" xlink:href="#DejaVuSans-28"/>
      <use x="283.496094" xlink:href="#DejaVuSans-6c"/>
      <use x="311.279297" xlink:href="#DejaVuSans-62"/>
      <use x="374.755859" xlink:href="#DejaVuSans-73"/>
      <use x="426.855469" xlink:href="#DejaVuSans-29"/>
     </g>
    </g>
   </g>
  </g>
  <g id="axes_3">
   <g id="patch_14">
    <path d="M 33.83125 309.8635 
L 447.48 309.8635 
L 447.48 228.891267 
L 33.83125 228.891267 
z
" style="fill:none;"/>
   </g>
   <g id="matplotlib.axis_5">
    <g id="xtick_17">
     <g id="line2d_53">
      <path clip-path="url(#pa5c6a3833e)" d="M 58.26987 309.8635 
L 58.26987 228.891267 
" style="fill:none;stroke:#b0b0b0;stroke-linecap:square;stroke-width:0.8;"/>
     </g>
     <g id="line2d_54">
      <g>
       <use style="stroke:#000000;stroke-width:0.8;" x="58.26987" xlink:href="#m460b35d096" y="309.8635"/>
      </g>
     </g>
     <g id="text_13">
      <!-- 2002 -->
      <g transform="translate(45.54487 324.461938)scale(0.1 -0.1)">
       <use xlink:href="#DejaVuSans-32"/>
       <use x="63.623047" xlink:href="#DejaVuSans-30"/>
       <use x="127.246094" xlink:href="#DejaVuSans-30"/>
       <use x="190.869141" xlink:href="#DejaVuSans-32"/>
      </g>
     </g>
    </g>
    <g id="xtick_18">
     <g id="line2d_55">
      <path clip-path="url(#pa5c6a3833e)" d="M 107.14711 309.8635 
L 107.14711 228.891267 
" style="fill:none;stroke:#b0b0b0;stroke-linecap:square;stroke-width:0.8;"/>
     </g>
     <g id="line2d_56">
      <g>
       <use style="stroke:#000000;stroke-width:0.8;" x="107.14711" xlink:href="#m460b35d096" y="309.8635"/>
      </g>
     </g>
     <g id="text_14">
      <!-- 2004 -->
      <g transform="translate(94.42211 324.461938)scale(0.1 -0.1)">
       <use xlink:href="#DejaVuSans-32"/>
       <use x="63.623047" xlink:href="#DejaVuSans-30"/>
       <use x="127.246094" xlink:href="#DejaVuSans-30"/>
       <use x="190.869141" xlink:href="#DejaVuSans-34"/>
      </g>
     </g>
    </g>
    <g id="xtick_19">
     <g id="line2d_57">
      <path clip-path="url(#pa5c6a3833e)" d="M 156.091305 309.8635 
L 156.091305 228.891267 
" style="fill:none;stroke:#b0b0b0;stroke-linecap:square;stroke-width:0.8;"/>
     </g>
     <g id="line2d_58">
      <g>
       <use style="stroke:#000000;stroke-width:0.8;" x="156.091305" xlink:href="#m460b35d096" y="309.8635"/>
      </g>
     </g>
     <g id="text_15">
      <!-- 2006 -->
      <g transform="translate(143.366305 324.461938)scale(0.1 -0.1)">
       <use xlink:href="#DejaVuSans-32"/>
       <use x="63.623047" xlink:href="#DejaVuSans-30"/>
       <use x="127.246094" xlink:href="#DejaVuSans-30"/>
       <use x="190.869141" xlink:href="#DejaVuSans-36"/>
      </g>
     </g>
    </g>
    <g id="xtick_20">
     <g id="line2d_59">
      <path clip-path="url(#pa5c6a3833e)" d="M 204.968544 309.8635 
L 204.968544 228.891267 
" style="fill:none;stroke:#b0b0b0;stroke-linecap:square;stroke-width:0.8;"/>
     </g>
     <g id="line2d_60">
      <g>
       <use style="stroke:#000000;stroke-width:0.8;" x="204.968544" xlink:href="#m460b35d096" y="309.8635"/>
      </g>
     </g>
     <g id="text_16">
      <!-- 2008 -->
      <g transform="translate(192.243544 324.461938)scale(0.1 -0.1)">
       <use xlink:href="#DejaVuSans-32"/>
       <use x="63.623047" xlink:href="#DejaVuSans-30"/>
       <use x="127.246094" xlink:href="#DejaVuSans-30"/>
       <use x="190.869141" xlink:href="#DejaVuSans-38"/>
      </g>
     </g>
    </g>
    <g id="xtick_21">
     <g id="line2d_61">
      <path clip-path="url(#pa5c6a3833e)" d="M 253.912739 309.8635 
L 253.912739 228.891267 
" style="fill:none;stroke:#b0b0b0;stroke-linecap:square;stroke-width:0.8;"/>
     </g>
     <g id="line2d_62">
      <g>
       <use style="stroke:#000000;stroke-width:0.8;" x="253.912739" xlink:href="#m460b35d096" y="309.8635"/>
      </g>
     </g>
     <g id="text_17">
      <!-- 2010 -->
      <g transform="translate(241.187739 324.461938)scale(0.1 -0.1)">
       <use xlink:href="#DejaVuSans-32"/>
       <use x="63.623047" xlink:href="#DejaVuSans-30"/>
       <use x="127.246094" xlink:href="#DejaVuSans-31"/>
       <use x="190.869141" xlink:href="#DejaVuSans-30"/>
      </g>
     </g>
    </g>
    <g id="xtick_22">
     <g id="line2d_63">
      <path clip-path="url(#pa5c6a3833e)" d="M 302.789979 309.8635 
L 302.789979 228.891267 
" style="fill:none;stroke:#b0b0b0;stroke-linecap:square;stroke-width:0.8;"/>
     </g>
     <g id="line2d_64">
      <g>
       <use style="stroke:#000000;stroke-width:0.8;" x="302.789979" xlink:href="#m460b35d096" y="309.8635"/>
      </g>
     </g>
     <g id="text_18">
      <!-- 2012 -->
      <g transform="translate(290.064979 324.461938)scale(0.1 -0.1)">
       <use xlink:href="#DejaVuSans-32"/>
       <use x="63.623047" xlink:href="#DejaVuSans-30"/>
       <use x="127.246094" xlink:href="#DejaVuSans-31"/>
       <use x="190.869141" xlink:href="#DejaVuSans-32"/>
      </g>
     </g>
    </g>
    <g id="xtick_23">
     <g id="line2d_65">
      <path clip-path="url(#pa5c6a3833e)" d="M 351.734174 309.8635 
L 351.734174 228.891267 
" style="fill:none;stroke:#b0b0b0;stroke-linecap:square;stroke-width:0.8;"/>
     </g>
     <g id="line2d_66">
      <g>
       <use style="stroke:#000000;stroke-width:0.8;" x="351.734174" xlink:href="#m460b35d096" y="309.8635"/>
      </g>
     </g>
     <g id="text_19">
      <!-- 2014 -->
      <g transform="translate(339.009174 324.461938)scale(0.1 -0.1)">
       <use xlink:href="#DejaVuSans-32"/>
       <use x="63.623047" xlink:href="#DejaVuSans-30"/>
       <use x="127.246094" xlink:href="#DejaVuSans-31"/>
       <use x="190.869141" xlink:href="#DejaVuSans-34"/>
      </g>
     </g>
    </g>
    <g id="xtick_24">
     <g id="line2d_67">
      <path clip-path="url(#pa5c6a3833e)" d="M 400.611414 309.8635 
L 400.611414 228.891267 
" style="fill:none;stroke:#b0b0b0;stroke-linecap:square;stroke-width:0.8;"/>
     </g>
     <g id="line2d_68">
      <g>
       <use style="stroke:#000000;stroke-width:0.8;" x="400.611414" xlink:href="#m460b35d096" y="309.8635"/>
      </g>
     </g>
     <g id="text_20">
      <!-- 2016 -->
      <g transform="translate(387.886414 324.461938)scale(0.1 -0.1)">
       <use xlink:href="#DejaVuSans-32"/>
       <use x="63.623047" xlink:href="#DejaVuSans-30"/>
       <use x="127.246094" xlink:href="#DejaVuSans-31"/>
       <use x="190.869141" xlink:href="#DejaVuSans-36"/>
      </g>
     </g>
    </g>
    <g id="text_21">
     <!-- Date -->
     <defs>
      <path d="M 19.671875 64.796875 
L 19.671875 8.109375 
L 31.59375 8.109375 
Q 46.6875 8.109375 53.6875 14.9375 
Q 60.6875 21.78125 60.6875 36.53125 
Q 60.6875 51.171875 53.6875 57.984375 
Q 46.6875 64.796875 31.59375 64.796875 
z
M 9.8125 72.90625 
L 30.078125 72.90625 
Q 51.265625 72.90625 61.171875 64.09375 
Q 71.09375 55.28125 71.09375 36.53125 
Q 71.09375 17.671875 61.125 8.828125 
Q 51.171875 0 30.078125 0 
L 9.8125 0 
z
" id="DejaVuSans-44"/>
      <path d="M 34.28125 27.484375 
Q 23.390625 27.484375 19.1875 25 
Q 14.984375 22.515625 14.984375 16.5 
Q 14.984375 11.71875 18.140625 8.90625 
Q 21.296875 6.109375 26.703125 6.109375 
Q 34.1875 6.109375 38.703125 11.40625 
Q 43.21875 16.703125 43.21875 25.484375 
L 43.21875 27.484375 
z
M 52.203125 31.203125 
L 52.203125 0 
L 43.21875 0 
L 43.21875 8.296875 
Q 40.140625 3.328125 35.546875 0.953125 
Q 30.953125 -1.421875 24.3125 -1.421875 
Q 15.921875 -1.421875 10.953125 3.296875 
Q 6 8.015625 6 15.921875 
Q 6 25.140625 12.171875 29.828125 
Q 18.359375 34.515625 30.609375 34.515625 
L 43.21875 34.515625 
L 43.21875 35.40625 
Q 43.21875 41.609375 39.140625 45 
Q 35.0625 48.390625 27.6875 48.390625 
Q 23 48.390625 18.546875 47.265625 
Q 14.109375 46.140625 10.015625 43.890625 
L 10.015625 52.203125 
Q 14.9375 54.109375 19.578125 55.046875 
Q 24.21875 56 28.609375 56 
Q 40.484375 56 46.34375 49.84375 
Q 52.203125 43.703125 52.203125 31.203125 
z
" id="DejaVuSans-61"/>
     </defs>
     <g transform="translate(228.704844 338.140062)scale(0.1 -0.1)">
      <use xlink:href="#DejaVuSans-44"/>
      <use x="77.001953" xlink:href="#DejaVuSans-61"/>
      <use x="138.28125" xlink:href="#DejaVuSans-74"/>
      <use x="177.490234" xlink:href="#DejaVuSans-65"/>
     </g>
    </g>
   </g>
   <g id="matplotlib.axis_6">
    <g id="ytick_8">
     <g id="line2d_69">
      <path clip-path="url(#pa5c6a3833e)" d="M 33.83125 303.47903 
L 447.48 303.47903 
" style="fill:none;stroke:#b0b0b0;stroke-linecap:square;stroke-width:0.8;"/>
     </g>
     <g id="line2d_70">
      <g>
       <use style="stroke:#000000;stroke-width:0.8;" x="33.83125" xlink:href="#m8f3ae383dc" y="303.47903"/>
      </g>
     </g>
     <g id="text_22">
      <!-- 1 -->
      <g transform="translate(20.46875 307.278248)scale(0.1 -0.1)">
       <use xlink:href="#DejaVuSans-31"/>
      </g>
     </g>
    </g>
    <g id="ytick_9">
     <g id="line2d_71">
      <path clip-path="url(#pa5c6a3833e)" d="M 33.83125 268.149861 
L 447.48 268.149861 
" style="fill:none;stroke:#b0b0b0;stroke-linecap:square;stroke-width:0.8;"/>
     </g>
     <g id="line2d_72">
      <g>
       <use style="stroke:#000000;stroke-width:0.8;" x="33.83125" xlink:href="#m8f3ae383dc" y="268.149861"/>
      </g>
     </g>
     <g id="text_23">
      <!-- 2 -->
      <g transform="translate(20.46875 271.94908)scale(0.1 -0.1)">
       <use xlink:href="#DejaVuSans-32"/>
      </g>
     </g>
    </g>
    <g id="ytick_10">
     <g id="line2d_73">
      <path clip-path="url(#pa5c6a3833e)" d="M 33.83125 232.820692 
L 447.48 232.820692 
" style="fill:none;stroke:#b0b0b0;stroke-linecap:square;stroke-width:0.8;"/>
     </g>
     <g id="line2d_74">
      <g>
       <use style="stroke:#000000;stroke-width:0.8;" x="33.83125" xlink:href="#m8f3ae383dc" y="232.820692"/>
      </g>
     </g>
     <g id="text_24">
      <!-- 3 -->
      <defs>
       <path d="M 40.578125 39.3125 
Q 47.65625 37.796875 51.625 33 
Q 55.609375 28.21875 55.609375 21.1875 
Q 55.609375 10.40625 48.1875 4.484375 
Q 40.765625 -1.421875 27.09375 -1.421875 
Q 22.515625 -1.421875 17.65625 -0.515625 
Q 12.796875 0.390625 7.625 2.203125 
L 7.625 11.71875 
Q 11.71875 9.328125 16.59375 8.109375 
Q 21.484375 6.890625 26.8125 6.890625 
Q 36.078125 6.890625 40.9375 10.546875 
Q 45.796875 14.203125 45.796875 21.1875 
Q 45.796875 27.640625 41.28125 31.265625 
Q 36.765625 34.90625 28.71875 34.90625 
L 20.21875 34.90625 
L 20.21875 43.015625 
L 29.109375 43.015625 
Q 36.375 43.015625 40.234375 45.921875 
Q 44.09375 48.828125 44.09375 54.296875 
Q 44.09375 59.90625 40.109375 62.90625 
Q 36.140625 65.921875 28.71875 65.921875 
Q 24.65625 65.921875 20.015625 65.03125 
Q 15.375 64.15625 9.8125 62.3125 
L 9.8125 71.09375 
Q 15.4375 72.65625 20.34375 73.4375 
Q 25.25 74.21875 29.59375 74.21875 
Q 40.828125 74.21875 47.359375 69.109375 
Q 53.90625 64.015625 53.90625 55.328125 
Q 53.90625 49.265625 50.4375 45.09375 
Q 46.96875 40.921875 40.578125 39.3125 
z
" id="DejaVuSans-33"/>
      </defs>
      <g transform="translate(20.46875 236.619911)scale(0.1 -0.1)">
       <use xlink:href="#DejaVuSans-33"/>
      </g>
     </g>
    </g>
    <g id="text_25">
     <!-- 1e7 -->
     <g transform="translate(33.83125 225.891267)scale(0.1 -0.1)">
      <use xlink:href="#DejaVuSans-31"/>
      <use x="63.623047" xlink:href="#DejaVuSans-65"/>
      <use x="125.146484" xlink:href="#DejaVuSans-37"/>
     </g>
    </g>
   </g>
   <g id="line2d_75">
    <path clip-path="url(#pa5c6a3833e)" d="M 33.83125 270.951722 
L 35.906859 282.753392 
L 37.781602 277.306835 
L 39.857211 278.848989 
L 41.865865 269.079555 
L 43.941474 261.622754 
L 45.950127 249.315906 
L 48.025736 249.495311 
L 50.101345 267.730214 
L 52.109999 278.202868 
L 54.185607 281.822253 
L 56.194261 274.662899 
L 58.26987 271.179644 
L 60.345479 278.62048 
L 62.220222 277.923997 
L 64.295831 275.749896 
L 66.304485 266.347345 
L 68.380093 257.690251 
L 70.388747 251.322274 
L 72.464356 248.846582 
L 74.539965 261.510574 
L 76.548618 271.284501 
L 78.624227 276.321286 
L 80.632881 269.655883 
L 82.70849 264.174234 
L 84.784099 274.00324 
L 86.658842 275.134215 
L 88.734451 273.301115 
L 90.743105 258.99861 
L 92.818713 255.40174 
L 94.827367 249.80879 
L 96.902976 249.205802 
L 98.978585 264.83053 
L 103.062847 274.383113 
L 107.14711 268.544802 
L 109.222719 273.501756 
L 111.164417 277.826842 
L 113.240026 275.625983 
L 115.24868 263.533222 
L 117.324288 260.206231 
L 119.332942 251.216021 
L 121.408551 251.795685 
L 123.48416 259.291966 
L 125.492813 265.94082 
L 127.568422 276.081415 
L 129.577076 265.273932 
L 131.652685 265.434161 
L 133.728294 275.811344 
L 135.603037 274.38772 
L 137.678646 277.523862 
L 139.687299 263.10234 
L 141.762908 253.175568 
L 143.771562 248.499834 
L 145.847171 247.045738 
L 147.92278 255.74214 
L 149.931433 266.815506 
L 152.007042 270.472789 
L 154.015696 265.431673 
L 156.091305 269.629397 
L 158.166913 277.002287 
L 160.041657 275.454082 
L 162.117266 272.821787 
L 164.125919 261.394857 
L 166.201528 254.179432 
L 168.210182 245.937981 
L 170.285791 242.466739 
L 172.3614 258.948859 
L 174.370053 264.592924 
L 176.445662 274.265273 
L 180.529925 260.998039 
L 182.605533 274.074629 
L 184.480277 274.350342 
L 186.555886 271.354185 
L 190.640148 255.934631 
L 192.648802 251.126056 
L 194.724411 244.627393 
L 196.800019 257.239033 
L 198.808673 263.66301 
L 200.884282 268.661286 
L 202.892936 263.580241 
L 204.968544 261.008048 
L 207.044153 271.945595 
L 208.985852 272.585713 
L 211.061461 266.392697 
L 213.070114 256.786439 
L 215.145723 247.464198 
L 217.154377 241.928379 
L 219.229986 243.149916 
L 221.305594 261.276514 
L 223.314248 265.770402 
L 225.389857 275.357509 
L 227.398511 268.447792 
L 229.474119 269.345739 
L 231.549728 282.389392 
L 233.424472 279.687788 
L 235.500081 285.544573 
L 237.508734 266.383325 
L 239.584343 255.103421 
L 241.592997 247.635029 
L 243.668606 247.806739 
L 245.744214 264.721232 
L 247.752868 268.641777 
L 249.828477 277.138082 
L 251.837131 265.334501 
L 253.912739 263.779759 
L 255.988348 272.285953 
L 257.863092 276.682516 
L 259.9387 278.682277 
L 261.947354 262.364444 
L 264.022963 249.893304 
L 266.031617 246.409778 
L 268.107225 238.481612 
L 270.182834 257.263202 
L 272.191488 269.471161 
L 274.267097 274.643602 
L 276.27575 267.104866 
L 278.351359 261.051196 
L 280.426968 272.56588 
L 282.301712 271.897922 
L 284.37732 265.500671 
L 286.385974 260.395624 
L 288.461583 246.488625 
L 290.470237 235.316034 
L 292.545845 232.571823 
L 294.621454 252.996251 
L 296.630108 267.989311 
L 298.705717 276.207299 
L 300.71437 266.820647 
L 304.865588 277.799882 
L 306.807287 276.631136 
L 308.882895 277.356981 
L 310.891549 263.989364 
L 312.967158 251.551055 
L 314.975812 243.481096 
L 317.05142 242.366563 
L 319.127029 257.393581 
L 321.135683 266.269699 
L 323.211292 271.639937 
L 325.219945 270.001777 
L 327.295554 265.641822 
L 329.371163 277.939884 
L 331.245906 274.997597 
L 333.321515 274.906133 
L 335.330169 264.741091 
L 337.405778 249.994544 
L 339.414431 242.646992 
L 341.49004 238.163204 
L 343.565649 250.67516 
L 345.574303 265.936358 
L 347.649912 272.914402 
L 349.658565 257.941452 
L 351.734174 262.670021 
L 353.809783 268.914419 
L 355.684526 271.457088 
L 357.760135 273.319405 
L 359.768789 263.185388 
L 361.844398 256.950507 
L 363.853051 242.655354 
L 365.92866 240.830323 
L 368.004269 253.250794 
L 370.012923 267.113858 
L 372.088531 274.770084 
L 374.097185 271.069329 
L 376.172794 265.877605 
L 378.248403 278.125211 
L 382.198755 281.728743 
L 384.207409 271.38426 
L 386.283018 252.622712 
L 388.291671 242.640756 
L 390.36728 241.329846 
L 392.442889 254.948668 
L 394.451543 269.513941 
L 396.527151 280.691868 
L 398.535805 278.695448 
L 400.611414 275.020229 
L 402.687023 288.091407 
L 404.628721 291.124568 
L 406.70433 285.12477 
L 408.712984 271.295838 
L 410.788593 251.469017 
L 412.797246 243.313738 
L 414.872855 244.171639 
L 416.948464 253.712939 
L 418.957118 263.474148 
L 421.032726 277.864033 
L 423.04138 265.983098 
L 425.116989 270.512545 
L 427.192598 286.015638 
L 429.067341 282.354578 
L 431.14295 276.524358 
L 433.151604 266.284979 
L 435.227212 252.811808 
L 437.235866 290.031953 
L 439.311475 292.856531 
L 441.387084 300.139123 
L 443.395737 304.62503 
L 445.471346 306.182944 
L 447.48 302.503496 
L 447.48 302.503496 
" style="fill:none;stroke:#4682b4;stroke-linecap:square;stroke-width:1.5;"/>
   </g>
   <g id="patch_15">
    <path d="M 33.83125 309.8635 
L 33.83125 228.891267 
" style="fill:none;stroke:#000000;stroke-linecap:square;stroke-linejoin:miter;stroke-width:0.8;"/>
   </g>
   <g id="patch_16">
    <path d="M 447.48 309.8635 
L 447.48 228.891267 
" style="fill:none;stroke:#000000;stroke-linecap:square;stroke-linejoin:miter;stroke-width:0.8;"/>
   </g>
   <g id="patch_17">
    <path d="M 33.83125 309.8635 
L 447.48 309.8635 
" style="fill:none;stroke:#000000;stroke-linecap:square;stroke-linejoin:miter;stroke-width:0.8;"/>
   </g>
   <g id="patch_18">
    <path d="M 33.83125 228.891267 
L 447.48 228.891267 
" style="fill:none;stroke:#000000;stroke-linecap:square;stroke-linejoin:miter;stroke-width:0.8;"/>
   </g>
   <g id="legend_3">
    <g id="patch_19">
     <path d="M 40.83125 304.8635 
L 126.615625 304.8635 
Q 128.615625 304.8635 128.615625 302.8635 
L 128.615625 289.185375 
Q 128.615625 287.185375 126.615625 287.185375 
L 40.83125 287.185375 
Q 38.83125 287.185375 38.83125 289.185375 
L 38.83125 302.8635 
Q 38.83125 304.8635 40.83125 304.8635 
z
" style="fill:#ffffff;opacity:0.8;stroke:#cccccc;stroke-linejoin:miter;"/>
    </g>
    <g id="line2d_76">
     <path d="M 42.83125 295.283813 
L 62.83125 295.283813 
" style="fill:none;stroke:#4682b4;stroke-linecap:square;stroke-width:1.5;"/>
    </g>
    <g id="line2d_77"/>
    <g id="text_26">
     <!-- CO2 (tons) -->
     <defs>
      <path d="M 64.40625 67.28125 
L 64.40625 56.890625 
Q 59.421875 61.53125 53.78125 63.8125 
Q 48.140625 66.109375 41.796875 66.109375 
Q 29.296875 66.109375 22.65625 58.46875 
Q 16.015625 50.828125 16.015625 36.375 
Q 16.015625 21.96875 22.65625 14.328125 
Q 29.296875 6.6875 41.796875 6.6875 
Q 48.140625 6.6875 53.78125 8.984375 
Q 59.421875 11.28125 64.40625 15.921875 
L 64.40625 5.609375 
Q 59.234375 2.09375 53.4375 0.328125 
Q 47.65625 -1.421875 41.21875 -1.421875 
Q 24.65625 -1.421875 15.125 8.703125 
Q 5.609375 18.84375 5.609375 36.375 
Q 5.609375 53.953125 15.125 64.078125 
Q 24.65625 74.21875 41.21875 74.21875 
Q 47.75 74.21875 53.53125 72.484375 
Q 59.328125 70.75 64.40625 67.28125 
z
" id="DejaVuSans-43"/>
     </defs>
     <g transform="translate(70.83125 298.783813)scale(0.1 -0.1)">
      <use xlink:href="#DejaVuSans-43"/>
      <use x="69.824219" xlink:href="#DejaVuSans-4f"/>
      <use x="148.535156" xlink:href="#DejaVuSans-32"/>
      <use x="212.158203" xlink:href="#DejaVuSans-20"/>
      <use x="243.945312" xlink:href="#DejaVuSans-28"/>
      <use x="282.958984" xlink:href="#DejaVuSans-74"/>
      <use x="322.167969" xlink:href="#DejaVuSans-6f"/>
      <use x="383.349609" xlink:href="#DejaVuSans-6e"/>
      <use x="446.728516" xlink:href="#DejaVuSans-73"/>
      <use x="498.828125" xlink:href="#DejaVuSans-29"/>
     </g>
    </g>
   </g>
  </g>
 </g>
 <defs>
  <clipPath id="p7576f58b0c">
   <rect height="80.972233" width="413.64875" x="33.83125" y="23.36505"/>
  </clipPath>
  <clipPath id="p2ee46edbe4">
   <rect height="80.972233" width="413.64875" x="33.83125" y="126.128158"/>
  </clipPath>
  <clipPath id="pa5c6a3833e">
   <rect height="80.972233" width="413.64875" x="33.83125" y="228.891267"/>
  </clipPath>
 </defs>
</svg>
