<?xml version="1.0" encoding="utf-8" standalone="no"?>
<!DOCTYPE svg PUBLIC "-//W3C//DTD SVG 1.1//EN"
  "http://www.w3.org/Graphics/SVG/1.1/DTD/svg11.dtd">
<!-- Created with matplotlib (http://matplotlib.org/) -->
<svg height="345.6pt" version="1.1" viewBox="0 0 460.8 345.6" width="460.8pt" xmlns="http://www.w3.org/2000/svg" xmlns:xlink="http://www.w3.org/1999/xlink">
 <defs>
  <style type="text/css">
*{stroke-linecap:butt;stroke-linejoin:round;}
  </style>
 </defs>
 <g id="figure_1">
  <g id="patch_1">
   <path d="M 0 345.6 
L 460.8 345.6 
L 460.8 0 
L 0 0 
z
" style="fill:none;"/>
  </g>
  <g id="axes_1">
   <g id="patch_2">
    <path d="M 31.543 108.304533 
L 447.48 108.304533 
L 447.48 23.36505 
L 31.543 23.36505 
z
" style="fill:none;"/>
   </g>
   <g id="matplotlib.axis_1">
    <g id="xtick_1">
     <g id="line2d_1">
      <path clip-path="url(#p828ed60c23)" d="M 31.543 108.304533 
L 31.543 23.36505 
" style="fill:none;stroke:#b0b0b0;stroke-linecap:square;stroke-width:0.8;"/>
     </g>
     <g id="line2d_2">
      <defs>
       <path d="M 0 0 
L 0 3.5 
" id="m343a2cdaae" style="stroke:#000000;stroke-width:0.8;"/>
      </defs>
      <g>
       <use style="stroke:#000000;stroke-width:0.8;" x="31.543" xlink:href="#m343a2cdaae" y="108.304533"/>
      </g>
     </g>
    </g>
    <g id="xtick_2">
     <g id="line2d_3">
      <path clip-path="url(#p828ed60c23)" d="M 79.984929 108.304533 
L 79.984929 23.36505 
" style="fill:none;stroke:#b0b0b0;stroke-linecap:square;stroke-width:0.8;"/>
     </g>
     <g id="line2d_4">
      <g>
       <use style="stroke:#000000;stroke-width:0.8;" x="79.984929" xlink:href="#m343a2cdaae" y="108.304533"/>
      </g>
     </g>
    </g>
    <g id="xtick_3">
     <g id="line2d_5">
      <path clip-path="url(#p828ed60c23)" d="M 128.493216 108.304533 
L 128.493216 23.36505 
" style="fill:none;stroke:#b0b0b0;stroke-linecap:square;stroke-width:0.8;"/>
     </g>
     <g id="line2d_6">
      <g>
       <use style="stroke:#000000;stroke-width:0.8;" x="128.493216" xlink:href="#m343a2cdaae" y="108.304533"/>
      </g>
     </g>
    </g>
    <g id="xtick_4">
     <g id="line2d_7">
      <path clip-path="url(#p828ed60c23)" d="M 176.935145 108.304533 
L 176.935145 23.36505 
" style="fill:none;stroke:#b0b0b0;stroke-linecap:square;stroke-width:0.8;"/>
     </g>
     <g id="line2d_8">
      <g>
       <use style="stroke:#000000;stroke-width:0.8;" x="176.935145" xlink:href="#m343a2cdaae" y="108.304533"/>
      </g>
     </g>
    </g>
    <g id="xtick_5">
     <g id="line2d_9">
      <path clip-path="url(#p828ed60c23)" d="M 225.443433 108.304533 
L 225.443433 23.36505 
" style="fill:none;stroke:#b0b0b0;stroke-linecap:square;stroke-width:0.8;"/>
     </g>
     <g id="line2d_10">
      <g>
       <use style="stroke:#000000;stroke-width:0.8;" x="225.443433" xlink:href="#m343a2cdaae" y="108.304533"/>
      </g>
     </g>
    </g>
    <g id="xtick_6">
     <g id="line2d_11">
      <path clip-path="url(#p828ed60c23)" d="M 273.885362 108.304533 
L 273.885362 23.36505 
" style="fill:none;stroke:#b0b0b0;stroke-linecap:square;stroke-width:0.8;"/>
     </g>
     <g id="line2d_12">
      <g>
       <use style="stroke:#000000;stroke-width:0.8;" x="273.885362" xlink:href="#m343a2cdaae" y="108.304533"/>
      </g>
     </g>
    </g>
    <g id="xtick_7">
     <g id="line2d_13">
      <path clip-path="url(#p828ed60c23)" d="M 322.393649 108.304533 
L 322.393649 23.36505 
" style="fill:none;stroke:#b0b0b0;stroke-linecap:square;stroke-width:0.8;"/>
     </g>
     <g id="line2d_14">
      <g>
       <use style="stroke:#000000;stroke-width:0.8;" x="322.393649" xlink:href="#m343a2cdaae" y="108.304533"/>
      </g>
     </g>
    </g>
    <g id="xtick_8">
     <g id="line2d_15">
      <path clip-path="url(#p828ed60c23)" d="M 370.835578 108.304533 
L 370.835578 23.36505 
" style="fill:none;stroke:#b0b0b0;stroke-linecap:square;stroke-width:0.8;"/>
     </g>
     <g id="line2d_16">
      <g>
       <use style="stroke:#000000;stroke-width:0.8;" x="370.835578" xlink:href="#m343a2cdaae" y="108.304533"/>
      </g>
     </g>
    </g>
    <g id="xtick_9">
     <g id="line2d_17">
      <path clip-path="url(#p828ed60c23)" d="M 419.343866 108.304533 
L 419.343866 23.36505 
" style="fill:none;stroke:#b0b0b0;stroke-linecap:square;stroke-width:0.8;"/>
     </g>
     <g id="line2d_18">
      <g>
       <use style="stroke:#000000;stroke-width:0.8;" x="419.343866" xlink:href="#m343a2cdaae" y="108.304533"/>
      </g>
     </g>
    </g>
   </g>
   <g id="matplotlib.axis_2">
    <g id="ytick_1">
     <g id="line2d_19">
      <path clip-path="url(#p828ed60c23)" d="M 31.543 104.443648 
L 447.48 104.443648 
" style="fill:none;stroke:#b0b0b0;stroke-linecap:square;stroke-width:0.8;"/>
     </g>
     <g id="line2d_20">
      <defs>
       <path d="M 0 0 
L -3.5 0 
" id="mbf94f9cc16" style="stroke:#000000;stroke-width:0.8;"/>
      </defs>
      <g>
       <use style="stroke:#000000;stroke-width:0.8;" x="31.543" xlink:href="#mbf94f9cc16" y="104.443648"/>
      </g>
     </g>
     <g id="text_1">
      <!-- 0 -->
      <defs>
       <path d="M 31.78125 66.40625 
Q 24.171875 66.40625 20.328125 58.90625 
Q 16.5 51.421875 16.5 36.375 
Q 16.5 21.390625 20.328125 13.890625 
Q 24.171875 6.390625 31.78125 6.390625 
Q 39.453125 6.390625 43.28125 13.890625 
Q 47.125 21.390625 47.125 36.375 
Q 47.125 51.421875 43.28125 58.90625 
Q 39.453125 66.40625 31.78125 66.40625 
z
M 31.78125 74.21875 
Q 44.046875 74.21875 50.515625 64.515625 
Q 56.984375 54.828125 56.984375 36.375 
Q 56.984375 17.96875 50.515625 8.265625 
Q 44.046875 -1.421875 31.78125 -1.421875 
Q 19.53125 -1.421875 13.0625 8.265625 
Q 6.59375 17.96875 6.59375 36.375 
Q 6.59375 54.828125 13.0625 64.515625 
Q 19.53125 74.21875 31.78125 74.21875 
z
" id="DejaVuSans-30"/>
      </defs>
      <g transform="translate(18.1805 108.242866)scale(0.1 -0.1)">
       <use xlink:href="#DejaVuSans-30"/>
      </g>
     </g>
    </g>
    <g id="ytick_2">
     <g id="line2d_21">
      <path clip-path="url(#p828ed60c23)" d="M 31.543 82.7837 
L 447.48 82.7837 
" style="fill:none;stroke:#b0b0b0;stroke-linecap:square;stroke-width:0.8;"/>
     </g>
     <g id="line2d_22">
      <g>
       <use style="stroke:#000000;stroke-width:0.8;" x="31.543" xlink:href="#mbf94f9cc16" y="82.7837"/>
      </g>
     </g>
     <g id="text_2">
      <!-- 2 -->
      <defs>
       <path d="M 19.1875 8.296875 
L 53.609375 8.296875 
L 53.609375 0 
L 7.328125 0 
L 7.328125 8.296875 
Q 12.9375 14.109375 22.625 23.890625 
Q 32.328125 33.6875 34.8125 36.53125 
Q 39.546875 41.84375 41.421875 45.53125 
Q 43.3125 49.21875 43.3125 52.78125 
Q 43.3125 58.59375 39.234375 62.25 
Q 35.15625 65.921875 28.609375 65.921875 
Q 23.96875 65.921875 18.8125 64.3125 
Q 13.671875 62.703125 7.8125 59.421875 
L 7.8125 69.390625 
Q 13.765625 71.78125 18.9375 73 
Q 24.125 74.21875 28.421875 74.21875 
Q 39.75 74.21875 46.484375 68.546875 
Q 53.21875 62.890625 53.21875 53.421875 
Q 53.21875 48.921875 51.53125 44.890625 
Q 49.859375 40.875 45.40625 35.40625 
Q 44.1875 33.984375 37.640625 27.21875 
Q 31.109375 20.453125 19.1875 8.296875 
z
" id="DejaVuSans-32"/>
      </defs>
      <g transform="translate(18.1805 86.582919)scale(0.1 -0.1)">
       <use xlink:href="#DejaVuSans-32"/>
      </g>
     </g>
    </g>
    <g id="ytick_3">
     <g id="line2d_23">
      <path clip-path="url(#p828ed60c23)" d="M 31.543 61.123753 
L 447.48 61.123753 
" style="fill:none;stroke:#b0b0b0;stroke-linecap:square;stroke-width:0.8;"/>
     </g>
     <g id="line2d_24">
      <g>
       <use style="stroke:#000000;stroke-width:0.8;" x="31.543" xlink:href="#mbf94f9cc16" y="61.123753"/>
      </g>
     </g>
     <g id="text_3">
      <!-- 4 -->
      <defs>
       <path d="M 37.796875 64.3125 
L 12.890625 25.390625 
L 37.796875 25.390625 
z
M 35.203125 72.90625 
L 47.609375 72.90625 
L 47.609375 25.390625 
L 58.015625 25.390625 
L 58.015625 17.1875 
L 47.609375 17.1875 
L 47.609375 0 
L 37.796875 0 
L 37.796875 17.1875 
L 4.890625 17.1875 
L 4.890625 26.703125 
z
" id="DejaVuSans-34"/>
      </defs>
      <g transform="translate(18.1805 64.922972)scale(0.1 -0.1)">
       <use xlink:href="#DejaVuSans-34"/>
      </g>
     </g>
    </g>
    <g id="ytick_4">
     <g id="line2d_25">
      <path clip-path="url(#p828ed60c23)" d="M 31.543 39.463806 
L 447.48 39.463806 
" style="fill:none;stroke:#b0b0b0;stroke-linecap:square;stroke-width:0.8;"/>
     </g>
     <g id="line2d_26">
      <g>
       <use style="stroke:#000000;stroke-width:0.8;" x="31.543" xlink:href="#mbf94f9cc16" y="39.463806"/>
      </g>
     </g>
     <g id="text_4">
      <!-- 6 -->
      <defs>
       <path d="M 33.015625 40.375 
Q 26.375 40.375 22.484375 35.828125 
Q 18.609375 31.296875 18.609375 23.390625 
Q 18.609375 15.53125 22.484375 10.953125 
Q 26.375 6.390625 33.015625 6.390625 
Q 39.65625 6.390625 43.53125 10.953125 
Q 47.40625 15.53125 47.40625 23.390625 
Q 47.40625 31.296875 43.53125 35.828125 
Q 39.65625 40.375 33.015625 40.375 
z
M 52.59375 71.296875 
L 52.59375 62.3125 
Q 48.875 64.0625 45.09375 64.984375 
Q 41.3125 65.921875 37.59375 65.921875 
Q 27.828125 65.921875 22.671875 59.328125 
Q 17.53125 52.734375 16.796875 39.40625 
Q 19.671875 43.65625 24.015625 45.921875 
Q 28.375 48.1875 33.59375 48.1875 
Q 44.578125 48.1875 50.953125 41.515625 
Q 57.328125 34.859375 57.328125 23.390625 
Q 57.328125 12.15625 50.6875 5.359375 
Q 44.046875 -1.421875 33.015625 -1.421875 
Q 20.359375 -1.421875 13.671875 8.265625 
Q 6.984375 17.96875 6.984375 36.375 
Q 6.984375 53.65625 15.1875 63.9375 
Q 23.390625 74.21875 37.203125 74.21875 
Q 40.921875 74.21875 44.703125 73.484375 
Q 48.484375 72.75 52.59375 71.296875 
z
" id="DejaVuSans-36"/>
      </defs>
      <g transform="translate(18.1805 43.263025)scale(0.1 -0.1)">
       <use xlink:href="#DejaVuSans-36"/>
      </g>
     </g>
    </g>
   </g>
   <g id="line2d_27">
    <path clip-path="url(#p828ed60c23)" d="M 31.543 99.895059 
L 33.600123 99.35356 
L 35.45817 99.895059 
L 37.515293 100.003359 
L 39.506057 98.487162 
L 41.56318 100.111658 
L 43.553944 100.978056 
L 45.611067 100.544857 
L 47.66819 101.302955 
L 49.658954 98.487162 
L 51.716077 27.225936 
L 53.706841 102.385953 
L 55.763964 83.974998 
L 57.821087 100.436557 
L 59.679134 89.823183 
L 61.736257 99.136961 
L 63.727021 100.544857 
L 65.784144 98.812061 
L 67.774908 99.24526 
L 69.832031 100.003359 
L 71.889154 98.162263 
L 73.879919 99.678459 
L 75.937042 103.36065 
L 77.927806 101.736154 
L 79.984929 102.385953 
L 82.042052 103.46895 
L 83.900098 100.978056 
L 85.957221 102.927451 
L 87.947986 101.302955 
L 90.005109 101.844454 
L 91.995873 96.970966 
L 94.052996 96.862666 
L 96.110119 100.219958 
L 98.100883 98.053963 
L 100.158006 102.819152 
L 102.14877 97.512465 
L 104.205893 99.786759 
L 106.263016 99.678459 
L 108.187422 99.24526 
L 110.244545 103.902149 
L 112.235309 101.844454 
L 114.292432 103.252351 
L 116.283196 99.57016 
L 118.340319 102.385953 
L 120.397442 101.844454 
L 122.388206 103.793849 
L 124.445329 103.902149 
L 126.436093 103.252351 
L 128.493216 100.544857 
L 130.55034 100.219958 
L 132.408386 100.761457 
L 134.465509 104.227048 
L 136.456273 102.277653 
L 138.513396 102.819152 
L 140.50416 100.219958 
L 142.561284 103.035751 
L 144.618407 101.411255 
L 146.609171 103.793849 
L 148.666294 103.46895 
L 150.657058 104.118749 
L 152.714181 102.927451 
L 154.771304 104.443648 
L 156.629351 104.227048 
L 158.686474 104.227048 
L 160.677238 102.385953 
L 162.734361 101.411255 
L 164.725125 98.378862 
L 166.782248 101.519555 
L 168.839371 103.252351 
L 170.830135 104.335348 
L 172.887258 102.927451 
L 174.878022 104.118749 
L 176.935145 101.086356 
L 178.992268 103.035751 
L 180.850315 104.010449 
L 182.907438 100.869756 
L 184.898202 103.36065 
L 186.955325 104.227048 
L 188.946089 102.819152 
L 191.003212 100.003359 
L 193.060335 101.952754 
L 195.0511 102.927451 
L 197.108223 104.118749 
L 201.15611 103.902149 
L 203.213233 102.927451 
L 205.137638 104.335348 
L 207.194761 100.869756 
L 209.185525 102.277653 
L 211.242648 101.411255 
L 213.233413 102.927451 
L 215.290536 101.627855 
L 217.347659 102.061054 
L 219.338423 102.277653 
L 221.395546 100.328258 
L 223.38631 102.819152 
L 225.443433 104.335348 
L 227.500556 102.169353 
L 229.358603 102.819152 
L 231.415726 104.443648 
L 233.40649 102.927451 
L 235.463613 103.793849 
L 237.454377 102.819152 
L 239.5115 102.169353 
L 241.568623 100.328258 
L 243.559387 103.68555 
L 245.61651 104.010449 
L 247.607274 104.010449 
L 249.664397 101.952754 
L 251.72152 102.602552 
L 253.579567 102.385953 
L 255.63669 101.736154 
L 257.627454 103.57725 
L 261.675341 102.385953 
L 263.732464 101.952754 
L 265.789587 102.385953 
L 267.780352 103.46895 
L 269.837475 104.227048 
L 271.828239 103.144051 
L 273.885362 103.57725 
L 277.800531 103.36065 
L 279.857654 103.793849 
L 281.848419 104.335348 
L 283.905542 103.902149 
L 285.896306 104.010449 
L 287.953429 103.035751 
L 290.010552 103.68555 
L 292.001316 104.010449 
L 294.058439 102.927451 
L 298.106326 104.443648 
L 300.163449 103.902149 
L 302.087855 104.227048 
L 304.144978 104.335348 
L 306.135742 103.144051 
L 308.192865 104.443648 
L 310.183629 104.227048 
L 312.240752 100.544857 
L 314.297875 102.927451 
L 316.288639 102.927451 
L 318.345762 103.36065 
L 320.336526 104.010449 
L 322.393649 104.010449 
L 324.450772 104.335348 
L 326.308819 104.227048 
L 328.365942 104.335348 
L 330.356706 102.169353 
L 332.413829 102.927451 
L 334.404593 104.227048 
L 336.461716 102.061054 
L 338.51884 100.869756 
L 340.509604 102.277653 
L 342.566727 104.227048 
L 344.557491 104.118749 
L 346.614614 104.443648 
L 348.671737 103.36065 
L 350.529784 103.793849 
L 352.586907 103.36065 
L 354.577671 103.36065 
L 356.634794 104.118749 
L 358.625558 103.902149 
L 362.739804 101.302955 
L 364.730568 104.335348 
L 368.778455 104.010449 
L 370.835578 103.252351 
L 372.892701 104.227048 
L 376.807871 104.118749 
L 378.798635 104.443648 
L 380.855758 104.118749 
L 382.846522 103.035751 
L 384.903645 103.144051 
L 386.960768 102.927451 
L 388.951533 101.952754 
L 391.008656 104.010449 
L 392.99942 104.443648 
L 395.056543 104.335348 
L 397.113666 104.010449 
L 401.095194 102.819152 
L 403.085958 104.227048 
L 405.143081 101.194656 
L 407.133846 101.411255 
L 409.190969 101.952754 
L 411.248092 101.952754 
L 413.238856 104.335348 
L 415.295979 104.010449 
L 417.286743 104.335348 
L 419.343866 103.902149 
L 421.400989 103.902149 
L 423.259036 103.144051 
L 427.306923 104.118749 
L 431.35481 104.335348 
L 433.411933 102.061054 
L 435.469056 103.68555 
L 437.45982 103.144051 
L 439.516943 104.118749 
L 441.507707 104.227048 
L 445.621953 104.010449 
L 447.48 104.118749 
L 447.48 104.118749 
" style="fill:none;stroke:#008000;stroke-linecap:square;stroke-width:1.5;"/>
   </g>
   <g id="patch_3">
    <path d="M 31.543 108.304533 
L 31.543 23.36505 
" style="fill:none;stroke:#000000;stroke-linecap:square;stroke-linejoin:miter;stroke-width:0.8;"/>
   </g>
   <g id="patch_4">
    <path d="M 447.48 108.304533 
L 447.48 23.36505 
" style="fill:none;stroke:#000000;stroke-linecap:square;stroke-linejoin:miter;stroke-width:0.8;"/>
   </g>
   <g id="patch_5">
    <path d="M 31.543 108.304533 
L 447.48 108.304533 
" style="fill:none;stroke:#000000;stroke-linecap:square;stroke-linejoin:miter;stroke-width:0.8;"/>
   </g>
   <g id="patch_6">
    <path d="M 31.543 23.36505 
L 447.48 23.36505 
" style="fill:none;stroke:#000000;stroke-linecap:square;stroke-linejoin:miter;stroke-width:0.8;"/>
   </g>
   <g id="text_5">
    <!-- Mean hourly emissions -->
    <defs>
     <path d="M 9.8125 72.90625 
L 24.515625 72.90625 
L 43.109375 23.296875 
L 61.8125 72.90625 
L 76.515625 72.90625 
L 76.515625 0 
L 66.890625 0 
L 66.890625 64.015625 
L 48.09375 14.015625 
L 38.1875 14.015625 
L 19.390625 64.015625 
L 19.390625 0 
L 9.8125 0 
z
" id="DejaVuSans-4d"/>
     <path d="M 56.203125 29.59375 
L 56.203125 25.203125 
L 14.890625 25.203125 
Q 15.484375 15.921875 20.484375 11.0625 
Q 25.484375 6.203125 34.421875 6.203125 
Q 39.59375 6.203125 44.453125 7.46875 
Q 49.3125 8.734375 54.109375 11.28125 
L 54.109375 2.78125 
Q 49.265625 0.734375 44.1875 -0.34375 
Q 39.109375 -1.421875 33.890625 -1.421875 
Q 20.796875 -1.421875 13.15625 6.1875 
Q 5.515625 13.8125 5.515625 26.8125 
Q 5.515625 40.234375 12.765625 48.109375 
Q 20.015625 56 32.328125 56 
Q 43.359375 56 49.78125 48.890625 
Q 56.203125 41.796875 56.203125 29.59375 
z
M 47.21875 32.234375 
Q 47.125 39.59375 43.09375 43.984375 
Q 39.0625 48.390625 32.421875 48.390625 
Q 24.90625 48.390625 20.390625 44.140625 
Q 15.875 39.890625 15.1875 32.171875 
z
" id="DejaVuSans-65"/>
     <path d="M 34.28125 27.484375 
Q 23.390625 27.484375 19.1875 25 
Q 14.984375 22.515625 14.984375 16.5 
Q 14.984375 11.71875 18.140625 8.90625 
Q 21.296875 6.109375 26.703125 6.109375 
Q 34.1875 6.109375 38.703125 11.40625 
Q 43.21875 16.703125 43.21875 25.484375 
L 43.21875 27.484375 
z
M 52.203125 31.203125 
L 52.203125 0 
L 43.21875 0 
L 43.21875 8.296875 
Q 40.140625 3.328125 35.546875 0.953125 
Q 30.953125 -1.421875 24.3125 -1.421875 
Q 15.921875 -1.421875 10.953125 3.296875 
Q 6 8.015625 6 15.921875 
Q 6 25.140625 12.171875 29.828125 
Q 18.359375 34.515625 30.609375 34.515625 
L 43.21875 34.515625 
L 43.21875 35.40625 
Q 43.21875 41.609375 39.140625 45 
Q 35.0625 48.390625 27.6875 48.390625 
Q 23 48.390625 18.546875 47.265625 
Q 14.109375 46.140625 10.015625 43.890625 
L 10.015625 52.203125 
Q 14.9375 54.109375 19.578125 55.046875 
Q 24.21875 56 28.609375 56 
Q 40.484375 56 46.34375 49.84375 
Q 52.203125 43.703125 52.203125 31.203125 
z
" id="DejaVuSans-61"/>
     <path d="M 54.890625 33.015625 
L 54.890625 0 
L 45.90625 0 
L 45.90625 32.71875 
Q 45.90625 40.484375 42.875 44.328125 
Q 39.84375 48.1875 33.796875 48.1875 
Q 26.515625 48.1875 22.3125 43.546875 
Q 18.109375 38.921875 18.109375 30.90625 
L 18.109375 0 
L 9.078125 0 
L 9.078125 54.6875 
L 18.109375 54.6875 
L 18.109375 46.1875 
Q 21.34375 51.125 25.703125 53.5625 
Q 30.078125 56 35.796875 56 
Q 45.21875 56 50.046875 50.171875 
Q 54.890625 44.34375 54.890625 33.015625 
z
" id="DejaVuSans-6e"/>
     <path id="DejaVuSans-20"/>
     <path d="M 54.890625 33.015625 
L 54.890625 0 
L 45.90625 0 
L 45.90625 32.71875 
Q 45.90625 40.484375 42.875 44.328125 
Q 39.84375 48.1875 33.796875 48.1875 
Q 26.515625 48.1875 22.3125 43.546875 
Q 18.109375 38.921875 18.109375 30.90625 
L 18.109375 0 
L 9.078125 0 
L 9.078125 75.984375 
L 18.109375 75.984375 
L 18.109375 46.1875 
Q 21.34375 51.125 25.703125 53.5625 
Q 30.078125 56 35.796875 56 
Q 45.21875 56 50.046875 50.171875 
Q 54.890625 44.34375 54.890625 33.015625 
z
" id="DejaVuSans-68"/>
     <path d="M 30.609375 48.390625 
Q 23.390625 48.390625 19.1875 42.75 
Q 14.984375 37.109375 14.984375 27.296875 
Q 14.984375 17.484375 19.15625 11.84375 
Q 23.34375 6.203125 30.609375 6.203125 
Q 37.796875 6.203125 41.984375 11.859375 
Q 46.1875 17.53125 46.1875 27.296875 
Q 46.1875 37.015625 41.984375 42.703125 
Q 37.796875 48.390625 30.609375 48.390625 
z
M 30.609375 56 
Q 42.328125 56 49.015625 48.375 
Q 55.71875 40.765625 55.71875 27.296875 
Q 55.71875 13.875 49.015625 6.21875 
Q 42.328125 -1.421875 30.609375 -1.421875 
Q 18.84375 -1.421875 12.171875 6.21875 
Q 5.515625 13.875 5.515625 27.296875 
Q 5.515625 40.765625 12.171875 48.375 
Q 18.84375 56 30.609375 56 
z
" id="DejaVuSans-6f"/>
     <path d="M 8.5 21.578125 
L 8.5 54.6875 
L 17.484375 54.6875 
L 17.484375 21.921875 
Q 17.484375 14.15625 20.5 10.265625 
Q 23.53125 6.390625 29.59375 6.390625 
Q 36.859375 6.390625 41.078125 11.03125 
Q 45.3125 15.671875 45.3125 23.6875 
L 45.3125 54.6875 
L 54.296875 54.6875 
L 54.296875 0 
L 45.3125 0 
L 45.3125 8.40625 
Q 42.046875 3.421875 37.71875 1 
Q 33.40625 -1.421875 27.6875 -1.421875 
Q 18.265625 -1.421875 13.375 4.4375 
Q 8.5 10.296875 8.5 21.578125 
z
M 31.109375 56 
z
" id="DejaVuSans-75"/>
     <path d="M 41.109375 46.296875 
Q 39.59375 47.171875 37.8125 47.578125 
Q 36.03125 48 33.890625 48 
Q 26.265625 48 22.1875 43.046875 
Q 18.109375 38.09375 18.109375 28.8125 
L 18.109375 0 
L 9.078125 0 
L 9.078125 54.6875 
L 18.109375 54.6875 
L 18.109375 46.1875 
Q 20.953125 51.171875 25.484375 53.578125 
Q 30.03125 56 36.53125 56 
Q 37.453125 56 38.578125 55.875 
Q 39.703125 55.765625 41.0625 55.515625 
z
" id="DejaVuSans-72"/>
     <path d="M 9.421875 75.984375 
L 18.40625 75.984375 
L 18.40625 0 
L 9.421875 0 
z
" id="DejaVuSans-6c"/>
     <path d="M 32.171875 -5.078125 
Q 28.375 -14.84375 24.75 -17.8125 
Q 21.140625 -20.796875 15.09375 -20.796875 
L 7.90625 -20.796875 
L 7.90625 -13.28125 
L 13.1875 -13.28125 
Q 16.890625 -13.28125 18.9375 -11.515625 
Q 21 -9.765625 23.484375 -3.21875 
L 25.09375 0.875 
L 2.984375 54.6875 
L 12.5 54.6875 
L 29.59375 11.921875 
L 46.6875 54.6875 
L 56.203125 54.6875 
z
" id="DejaVuSans-79"/>
     <path d="M 52 44.1875 
Q 55.375 50.25 60.0625 53.125 
Q 64.75 56 71.09375 56 
Q 79.640625 56 84.28125 50.015625 
Q 88.921875 44.046875 88.921875 33.015625 
L 88.921875 0 
L 79.890625 0 
L 79.890625 32.71875 
Q 79.890625 40.578125 77.09375 44.375 
Q 74.3125 48.1875 68.609375 48.1875 
Q 61.625 48.1875 57.5625 43.546875 
Q 53.515625 38.921875 53.515625 30.90625 
L 53.515625 0 
L 44.484375 0 
L 44.484375 32.71875 
Q 44.484375 40.625 41.703125 44.40625 
Q 38.921875 48.1875 33.109375 48.1875 
Q 26.21875 48.1875 22.15625 43.53125 
Q 18.109375 38.875 18.109375 30.90625 
L 18.109375 0 
L 9.078125 0 
L 9.078125 54.6875 
L 18.109375 54.6875 
L 18.109375 46.1875 
Q 21.1875 51.21875 25.484375 53.609375 
Q 29.78125 56 35.6875 56 
Q 41.65625 56 45.828125 52.96875 
Q 50 49.953125 52 44.1875 
z
" id="DejaVuSans-6d"/>
     <path d="M 9.421875 54.6875 
L 18.40625 54.6875 
L 18.40625 0 
L 9.421875 0 
z
M 9.421875 75.984375 
L 18.40625 75.984375 
L 18.40625 64.59375 
L 9.421875 64.59375 
z
" id="DejaVuSans-69"/>
     <path d="M 44.28125 53.078125 
L 44.28125 44.578125 
Q 40.484375 46.53125 36.375 47.5 
Q 32.28125 48.484375 27.875 48.484375 
Q 21.1875 48.484375 17.84375 46.4375 
Q 14.5 44.390625 14.5 40.28125 
Q 14.5 37.15625 16.890625 35.375 
Q 19.28125 33.59375 26.515625 31.984375 
L 29.59375 31.296875 
Q 39.15625 29.25 43.1875 25.515625 
Q 47.21875 21.78125 47.21875 15.09375 
Q 47.21875 7.46875 41.1875 3.015625 
Q 35.15625 -1.421875 24.609375 -1.421875 
Q 20.21875 -1.421875 15.453125 -0.5625 
Q 10.6875 0.296875 5.421875 2 
L 5.421875 11.28125 
Q 10.40625 8.6875 15.234375 7.390625 
Q 20.0625 6.109375 24.8125 6.109375 
Q 31.15625 6.109375 34.5625 8.28125 
Q 37.984375 10.453125 37.984375 14.40625 
Q 37.984375 18.0625 35.515625 20.015625 
Q 33.0625 21.96875 24.703125 23.78125 
L 21.578125 24.515625 
Q 13.234375 26.265625 9.515625 29.90625 
Q 5.8125 33.546875 5.8125 39.890625 
Q 5.8125 47.609375 11.28125 51.796875 
Q 16.75 56 26.8125 56 
Q 31.78125 56 36.171875 55.265625 
Q 40.578125 54.546875 44.28125 53.078125 
z
" id="DejaVuSans-73"/>
    </defs>
    <g transform="translate(170.668063 17.36505)scale(0.12 -0.12)">
     <use xlink:href="#DejaVuSans-4d"/>
     <use x="86.279297" xlink:href="#DejaVuSans-65"/>
     <use x="147.802734" xlink:href="#DejaVuSans-61"/>
     <use x="209.082031" xlink:href="#DejaVuSans-6e"/>
     <use x="272.460938" xlink:href="#DejaVuSans-20"/>
     <use x="304.248047" xlink:href="#DejaVuSans-68"/>
     <use x="367.626953" xlink:href="#DejaVuSans-6f"/>
     <use x="428.808594" xlink:href="#DejaVuSans-75"/>
     <use x="492.1875" xlink:href="#DejaVuSans-72"/>
     <use x="533.300781" xlink:href="#DejaVuSans-6c"/>
     <use x="561.083984" xlink:href="#DejaVuSans-79"/>
     <use x="620.263672" xlink:href="#DejaVuSans-20"/>
     <use x="652.050781" xlink:href="#DejaVuSans-65"/>
     <use x="713.574219" xlink:href="#DejaVuSans-6d"/>
     <use x="810.986328" xlink:href="#DejaVuSans-69"/>
     <use x="838.769531" xlink:href="#DejaVuSans-73"/>
     <use x="890.869141" xlink:href="#DejaVuSans-73"/>
     <use x="942.96875" xlink:href="#DejaVuSans-69"/>
     <use x="970.751953" xlink:href="#DejaVuSans-6f"/>
     <use x="1031.933594" xlink:href="#DejaVuSans-6e"/>
     <use x="1095.3125" xlink:href="#DejaVuSans-73"/>
    </g>
   </g>
   <g id="legend_1">
    <g id="patch_7">
     <path d="M 362.58 46.043175 
L 440.48 46.043175 
Q 442.48 46.043175 442.48 44.043175 
L 442.48 30.36505 
Q 442.48 28.36505 440.48 28.36505 
L 362.58 28.36505 
Q 360.58 28.36505 360.58 30.36505 
L 360.58 44.043175 
Q 360.58 46.043175 362.58 46.043175 
z
" style="fill:#ffffff;opacity:0.8;stroke:#cccccc;stroke-linejoin:miter;"/>
    </g>
    <g id="line2d_28">
     <path d="M 364.58 36.463488 
L 384.58 36.463488 
" style="fill:none;stroke:#008000;stroke-linecap:square;stroke-width:1.5;"/>
    </g>
    <g id="line2d_29"/>
    <g id="text_6">
     <!-- SO2 (lbs) -->
     <defs>
      <path d="M 53.515625 70.515625 
L 53.515625 60.890625 
Q 47.90625 63.578125 42.921875 64.890625 
Q 37.9375 66.21875 33.296875 66.21875 
Q 25.25 66.21875 20.875 63.09375 
Q 16.5 59.96875 16.5 54.203125 
Q 16.5 49.359375 19.40625 46.890625 
Q 22.3125 44.4375 30.421875 42.921875 
L 36.375 41.703125 
Q 47.40625 39.59375 52.65625 34.296875 
Q 57.90625 29 57.90625 20.125 
Q 57.90625 9.515625 50.796875 4.046875 
Q 43.703125 -1.421875 29.984375 -1.421875 
Q 24.8125 -1.421875 18.96875 -0.25 
Q 13.140625 0.921875 6.890625 3.21875 
L 6.890625 13.375 
Q 12.890625 10.015625 18.65625 8.296875 
Q 24.421875 6.59375 29.984375 6.59375 
Q 38.421875 6.59375 43.015625 9.90625 
Q 47.609375 13.234375 47.609375 19.390625 
Q 47.609375 24.75 44.3125 27.78125 
Q 41.015625 30.8125 33.5 32.328125 
L 27.484375 33.5 
Q 16.453125 35.6875 11.515625 40.375 
Q 6.59375 45.0625 6.59375 53.421875 
Q 6.59375 63.09375 13.40625 68.65625 
Q 20.21875 74.21875 32.171875 74.21875 
Q 37.3125 74.21875 42.625 73.28125 
Q 47.953125 72.359375 53.515625 70.515625 
z
" id="DejaVuSans-53"/>
      <path d="M 39.40625 66.21875 
Q 28.65625 66.21875 22.328125 58.203125 
Q 16.015625 50.203125 16.015625 36.375 
Q 16.015625 22.609375 22.328125 14.59375 
Q 28.65625 6.59375 39.40625 6.59375 
Q 50.140625 6.59375 56.421875 14.59375 
Q 62.703125 22.609375 62.703125 36.375 
Q 62.703125 50.203125 56.421875 58.203125 
Q 50.140625 66.21875 39.40625 66.21875 
z
M 39.40625 74.21875 
Q 54.734375 74.21875 63.90625 63.9375 
Q 73.09375 53.65625 73.09375 36.375 
Q 73.09375 19.140625 63.90625 8.859375 
Q 54.734375 -1.421875 39.40625 -1.421875 
Q 24.03125 -1.421875 14.8125 8.828125 
Q 5.609375 19.09375 5.609375 36.375 
Q 5.609375 53.65625 14.8125 63.9375 
Q 24.03125 74.21875 39.40625 74.21875 
z
" id="DejaVuSans-4f"/>
      <path d="M 31 75.875 
Q 24.46875 64.65625 21.28125 53.65625 
Q 18.109375 42.671875 18.109375 31.390625 
Q 18.109375 20.125 21.3125 9.0625 
Q 24.515625 -2 31 -13.1875 
L 23.1875 -13.1875 
Q 15.875 -1.703125 12.234375 9.375 
Q 8.59375 20.453125 8.59375 31.390625 
Q 8.59375 42.28125 12.203125 53.3125 
Q 15.828125 64.359375 23.1875 75.875 
z
" id="DejaVuSans-28"/>
      <path d="M 48.6875 27.296875 
Q 48.6875 37.203125 44.609375 42.84375 
Q 40.53125 48.484375 33.40625 48.484375 
Q 26.265625 48.484375 22.1875 42.84375 
Q 18.109375 37.203125 18.109375 27.296875 
Q 18.109375 17.390625 22.1875 11.75 
Q 26.265625 6.109375 33.40625 6.109375 
Q 40.53125 6.109375 44.609375 11.75 
Q 48.6875 17.390625 48.6875 27.296875 
z
M 18.109375 46.390625 
Q 20.953125 51.265625 25.265625 53.625 
Q 29.59375 56 35.59375 56 
Q 45.5625 56 51.78125 48.09375 
Q 58.015625 40.1875 58.015625 27.296875 
Q 58.015625 14.40625 51.78125 6.484375 
Q 45.5625 -1.421875 35.59375 -1.421875 
Q 29.59375 -1.421875 25.265625 0.953125 
Q 20.953125 3.328125 18.109375 8.203125 
L 18.109375 0 
L 9.078125 0 
L 9.078125 75.984375 
L 18.109375 75.984375 
z
" id="DejaVuSans-62"/>
      <path d="M 8.015625 75.875 
L 15.828125 75.875 
Q 23.140625 64.359375 26.78125 53.3125 
Q 30.421875 42.28125 30.421875 31.390625 
Q 30.421875 20.453125 26.78125 9.375 
Q 23.140625 -1.703125 15.828125 -13.1875 
L 8.015625 -13.1875 
Q 14.5 -2 17.703125 9.0625 
Q 20.90625 20.125 20.90625 31.390625 
Q 20.90625 42.671875 17.703125 53.65625 
Q 14.5 64.65625 8.015625 75.875 
z
" id="DejaVuSans-29"/>
     </defs>
     <g transform="translate(392.58 39.963488)scale(0.1 -0.1)">
      <use xlink:href="#DejaVuSans-53"/>
      <use x="63.476562" xlink:href="#DejaVuSans-4f"/>
      <use x="142.1875" xlink:href="#DejaVuSans-32"/>
      <use x="205.810547" xlink:href="#DejaVuSans-20"/>
      <use x="237.597656" xlink:href="#DejaVuSans-28"/>
      <use x="276.611328" xlink:href="#DejaVuSans-6c"/>
      <use x="304.394531" xlink:href="#DejaVuSans-62"/>
      <use x="367.871094" xlink:href="#DejaVuSans-73"/>
      <use x="419.970703" xlink:href="#DejaVuSans-29"/>
     </g>
    </g>
   </g>
  </g>
  <g id="axes_2">
   <g id="patch_8">
    <path d="M 31.543 209.084017 
L 447.48 209.084017 
L 447.48 124.144533 
L 31.543 124.144533 
z
" style="fill:none;"/>
   </g>
   <g id="matplotlib.axis_3">
    <g id="xtick_10">
     <g id="line2d_30">
      <path clip-path="url(#pbd5a1ba381)" d="M 31.543 209.084017 
L 31.543 124.144533 
" style="fill:none;stroke:#b0b0b0;stroke-linecap:square;stroke-width:0.8;"/>
     </g>
     <g id="line2d_31">
      <g>
       <use style="stroke:#000000;stroke-width:0.8;" x="31.543" xlink:href="#m343a2cdaae" y="209.084017"/>
      </g>
     </g>
    </g>
    <g id="xtick_11">
     <g id="line2d_32">
      <path clip-path="url(#pbd5a1ba381)" d="M 79.984929 209.084017 
L 79.984929 124.144533 
" style="fill:none;stroke:#b0b0b0;stroke-linecap:square;stroke-width:0.8;"/>
     </g>
     <g id="line2d_33">
      <g>
       <use style="stroke:#000000;stroke-width:0.8;" x="79.984929" xlink:href="#m343a2cdaae" y="209.084017"/>
      </g>
     </g>
    </g>
    <g id="xtick_12">
     <g id="line2d_34">
      <path clip-path="url(#pbd5a1ba381)" d="M 128.493216 209.084017 
L 128.493216 124.144533 
" style="fill:none;stroke:#b0b0b0;stroke-linecap:square;stroke-width:0.8;"/>
     </g>
     <g id="line2d_35">
      <g>
       <use style="stroke:#000000;stroke-width:0.8;" x="128.493216" xlink:href="#m343a2cdaae" y="209.084017"/>
      </g>
     </g>
    </g>
    <g id="xtick_13">
     <g id="line2d_36">
      <path clip-path="url(#pbd5a1ba381)" d="M 176.935145 209.084017 
L 176.935145 124.144533 
" style="fill:none;stroke:#b0b0b0;stroke-linecap:square;stroke-width:0.8;"/>
     </g>
     <g id="line2d_37">
      <g>
       <use style="stroke:#000000;stroke-width:0.8;" x="176.935145" xlink:href="#m343a2cdaae" y="209.084017"/>
      </g>
     </g>
    </g>
    <g id="xtick_14">
     <g id="line2d_38">
      <path clip-path="url(#pbd5a1ba381)" d="M 225.443433 209.084017 
L 225.443433 124.144533 
" style="fill:none;stroke:#b0b0b0;stroke-linecap:square;stroke-width:0.8;"/>
     </g>
     <g id="line2d_39">
      <g>
       <use style="stroke:#000000;stroke-width:0.8;" x="225.443433" xlink:href="#m343a2cdaae" y="209.084017"/>
      </g>
     </g>
    </g>
    <g id="xtick_15">
     <g id="line2d_40">
      <path clip-path="url(#pbd5a1ba381)" d="M 273.885362 209.084017 
L 273.885362 124.144533 
" style="fill:none;stroke:#b0b0b0;stroke-linecap:square;stroke-width:0.8;"/>
     </g>
     <g id="line2d_41">
      <g>
       <use style="stroke:#000000;stroke-width:0.8;" x="273.885362" xlink:href="#m343a2cdaae" y="209.084017"/>
      </g>
     </g>
    </g>
    <g id="xtick_16">
     <g id="line2d_42">
      <path clip-path="url(#pbd5a1ba381)" d="M 322.393649 209.084017 
L 322.393649 124.144533 
" style="fill:none;stroke:#b0b0b0;stroke-linecap:square;stroke-width:0.8;"/>
     </g>
     <g id="line2d_43">
      <g>
       <use style="stroke:#000000;stroke-width:0.8;" x="322.393649" xlink:href="#m343a2cdaae" y="209.084017"/>
      </g>
     </g>
    </g>
    <g id="xtick_17">
     <g id="line2d_44">
      <path clip-path="url(#pbd5a1ba381)" d="M 370.835578 209.084017 
L 370.835578 124.144533 
" style="fill:none;stroke:#b0b0b0;stroke-linecap:square;stroke-width:0.8;"/>
     </g>
     <g id="line2d_45">
      <g>
       <use style="stroke:#000000;stroke-width:0.8;" x="370.835578" xlink:href="#m343a2cdaae" y="209.084017"/>
      </g>
     </g>
    </g>
    <g id="xtick_18">
     <g id="line2d_46">
      <path clip-path="url(#pbd5a1ba381)" d="M 419.343866 209.084017 
L 419.343866 124.144533 
" style="fill:none;stroke:#b0b0b0;stroke-linecap:square;stroke-width:0.8;"/>
     </g>
     <g id="line2d_47">
      <g>
       <use style="stroke:#000000;stroke-width:0.8;" x="419.343866" xlink:href="#m343a2cdaae" y="209.084017"/>
      </g>
     </g>
    </g>
   </g>
   <g id="matplotlib.axis_4">
    <g id="ytick_5">
     <g id="line2d_48">
      <path clip-path="url(#pbd5a1ba381)" d="M 31.543 205.223131 
L 447.48 205.223131 
" style="fill:none;stroke:#b0b0b0;stroke-linecap:square;stroke-width:0.8;"/>
     </g>
     <g id="line2d_49">
      <g>
       <use style="stroke:#000000;stroke-width:0.8;" x="31.543" xlink:href="#mbf94f9cc16" y="205.223131"/>
      </g>
     </g>
     <g id="text_7">
      <!-- 0 -->
      <g transform="translate(18.1805 209.02235)scale(0.1 -0.1)">
       <use xlink:href="#DejaVuSans-30"/>
      </g>
     </g>
    </g>
    <g id="ytick_6">
     <g id="line2d_50">
      <path clip-path="url(#pbd5a1ba381)" d="M 31.543 177.952175 
L 447.48 177.952175 
" style="fill:none;stroke:#b0b0b0;stroke-linecap:square;stroke-width:0.8;"/>
     </g>
     <g id="line2d_51">
      <g>
       <use style="stroke:#000000;stroke-width:0.8;" x="31.543" xlink:href="#mbf94f9cc16" y="177.952175"/>
      </g>
     </g>
     <g id="text_8">
      <!-- 20 -->
      <g transform="translate(11.818 181.751394)scale(0.1 -0.1)">
       <use xlink:href="#DejaVuSans-32"/>
       <use x="63.623047" xlink:href="#DejaVuSans-30"/>
      </g>
     </g>
    </g>
    <g id="ytick_7">
     <g id="line2d_52">
      <path clip-path="url(#pbd5a1ba381)" d="M 31.543 150.681219 
L 447.48 150.681219 
" style="fill:none;stroke:#b0b0b0;stroke-linecap:square;stroke-width:0.8;"/>
     </g>
     <g id="line2d_53">
      <g>
       <use style="stroke:#000000;stroke-width:0.8;" x="31.543" xlink:href="#mbf94f9cc16" y="150.681219"/>
      </g>
     </g>
     <g id="text_9">
      <!-- 40 -->
      <g transform="translate(11.818 154.480438)scale(0.1 -0.1)">
       <use xlink:href="#DejaVuSans-34"/>
       <use x="63.623047" xlink:href="#DejaVuSans-30"/>
      </g>
     </g>
    </g>
   </g>
   <g id="line2d_54">
    <path clip-path="url(#pbd5a1ba381)" d="M 31.543 184.415392 
L 33.600123 185.342604 
L 35.45817 186.747058 
L 37.515293 185.519865 
L 39.506057 178.579407 
L 41.56318 185.438052 
L 43.553944 188.451493 
L 45.611067 185.519865 
L 47.66819 188.015158 
L 49.658954 175.361434 
L 51.716077 128.005419 
L 53.706841 193.523891 
L 55.763964 174.761473 
L 57.821087 190.687711 
L 59.679134 159.189757 
L 61.736257 181.401951 
L 63.727021 187.987887 
L 65.784144 175.797769 
L 67.774908 178.374875 
L 69.832031 182.492789 
L 71.889154 172.593432 
L 73.879919 182.52006 
L 75.937042 197.737254 
L 77.927806 192.364875 
L 79.984929 194.110216 
L 82.042052 199.141708 
L 83.900098 187.2243 
L 85.957221 196.06009 
L 87.947986 187.087945 
L 90.005109 191.246766 
L 91.995873 168.693685 
L 94.052996 168.68005 
L 96.110119 184.156317 
L 98.100883 174.584212 
L 100.158006 197.05548 
L 102.14877 172.361629 
L 104.205893 180.542916 
L 106.263016 184.538111 
L 108.187422 183.829066 
L 110.244545 201.664271 
L 112.235309 193.592068 
L 114.292432 195.9101 
L 116.283196 183.229105 
L 118.340319 194.396561 
L 120.397442 192.22852 
L 122.388206 201.077946 
L 124.445329 202.33241 
L 126.436093 198.978082 
L 128.493216 188.342409 
L 130.55034 184.524475 
L 132.408386 185.819846 
L 134.465509 203.614145 
L 136.456273 194.178394 
L 138.513396 197.287283 
L 140.50416 186.215275 
L 142.561284 198.705373 
L 144.618407 193.046649 
L 146.609171 201.991523 
L 148.666294 200.246182 
L 150.657058 203.164174 
L 152.714181 197.614534 
L 154.771304 205.19586 
L 156.629351 204.036844 
L 158.686474 203.968667 
L 160.677238 195.678296 
L 162.734361 191.887634 
L 164.725125 180.883803 
L 166.782248 192.064895 
L 168.839371 198.855363 
L 170.830135 204.486815 
L 172.887258 197.450909 
L 174.878022 202.891464 
L 176.935145 190.51045 
L 178.992268 197.982692 
L 180.850315 203.000548 
L 182.907438 193.401172 
L 184.898202 200.368901 
L 186.955325 204.118657 
L 188.946089 196.919125 
L 191.003212 184.974446 
L 193.060335 192.023988 
L 195.0511 197.887244 
L 197.108223 202.591484 
L 199.098987 203.409612 
L 201.15611 201.664271 
L 203.213233 198.419028 
L 205.137638 204.241377 
L 207.194761 165.857506 
L 209.185525 194.969252 
L 211.242648 191.914904 
L 213.233413 198.569018 
L 215.290536 188.928735 
L 217.347659 193.564797 
L 219.338423 188.956006 
L 221.395546 188.056064 
L 223.38631 197.328189 
L 225.443433 204.500451 
L 227.500556 192.433053 
L 231.415726 205.223131 
L 233.40649 187.292477 
L 235.463613 200.259817 
L 237.454377 193.551162 
L 239.5115 196.646415 
L 241.568623 188.083335 
L 243.559387 194.710177 
L 245.61651 193.742059 
L 247.607274 202.809651 
L 249.664397 188.4924 
L 251.72152 179.015742 
L 253.579567 196.332799 
L 255.63669 191.260402 
L 257.627454 187.606093 
L 259.684577 199.373511 
L 261.675341 197.737254 
L 263.732464 196.987302 
L 265.789587 163.484933 
L 267.780352 198.759914 
L 269.837475 203.505061 
L 271.828239 176.643169 
L 273.885362 200.273453 
L 275.942485 200.791601 
L 277.800531 200.300723 
L 279.857654 202.455129 
L 281.848419 204.841338 
L 283.905542 203.109632 
L 285.896306 202.918735 
L 287.953429 199.728033 
L 290.010552 201.691542 
L 292.001316 203.314164 
L 294.058439 199.168979 
L 298.106326 205.04587 
L 300.163449 202.536942 
L 302.087855 204.241377 
L 304.144978 204.786796 
L 306.135742 199.932566 
L 308.192865 205.141318 
L 310.183629 204.241377 
L 312.240752 190.946786 
L 314.297875 199.318969 
L 316.288639 199.646221 
L 318.345762 200.791601 
L 320.336526 203.532332 
L 322.393649 203.450519 
L 324.450772 204.745889 
L 326.308819 203.682322 
L 328.365942 204.62317 
L 330.356706 195.882829 
L 332.413829 199.318969 
L 334.404593 204.132293 
L 336.461716 196.510061 
L 338.51884 192.869388 
L 342.566727 204.118657 
L 344.557491 203.736864 
L 346.614614 205.168589 
L 348.671737 201.446104 
L 350.529784 202.700568 
L 352.586907 200.573433 
L 354.577671 200.450714 
L 356.634794 203.955032 
L 358.625558 202.918735 
L 360.682681 198.473569 
L 362.739804 194.642 
L 364.730568 204.568628 
L 366.787691 204.023209 
L 368.778455 203.62778 
L 370.835578 200.218911 
L 372.892701 203.832312 
L 374.750748 203.982303 
L 376.807871 203.532332 
L 378.798635 205.223131 
L 380.855758 203.491425 
L 382.846522 199.959837 
L 384.903645 200.06892 
L 386.960768 199.537137 
L 388.951533 195.337409 
L 391.008656 203.62778 
L 392.99942 205.059505 
L 395.056543 204.432273 
L 397.113666 203.464154 
L 399.038071 201.296113 
L 401.095194 197.014573 
L 403.085958 204.227741 
L 405.143081 194.669271 
L 407.133846 192.555772 
L 409.190969 186.50162 
L 411.248092 193.946591 
L 413.238856 204.35046 
L 415.295979 202.673297 
L 417.286743 203.941396 
L 419.343866 201.446104 
L 421.400989 201.705178 
L 423.259036 198.405392 
L 425.316159 201.541552 
L 427.306923 202.959642 
L 429.364046 203.05509 
L 431.35481 203.845948 
L 433.411933 197.028209 
L 435.469056 201.664271 
L 437.45982 199.264427 
L 439.516943 202.673297 
L 441.507707 202.959642 
L 443.56483 201.214301 
L 445.621953 202.918735 
L 447.48 203.532332 
L 447.48 203.532332 
" style="fill:none;stroke:#f97306;stroke-linecap:square;stroke-width:1.5;"/>
   </g>
   <g id="patch_9">
    <path d="M 31.543 209.084017 
L 31.543 124.144533 
" style="fill:none;stroke:#000000;stroke-linecap:square;stroke-linejoin:miter;stroke-width:0.8;"/>
   </g>
   <g id="patch_10">
    <path d="M 447.48 209.084017 
L 447.48 124.144533 
" style="fill:none;stroke:#000000;stroke-linecap:square;stroke-linejoin:miter;stroke-width:0.8;"/>
   </g>
   <g id="patch_11">
    <path d="M 31.543 209.084017 
L 447.48 209.084017 
" style="fill:none;stroke:#000000;stroke-linecap:square;stroke-linejoin:miter;stroke-width:0.8;"/>
   </g>
   <g id="patch_12">
    <path d="M 31.543 124.144533 
L 447.48 124.144533 
" style="fill:none;stroke:#000000;stroke-linecap:square;stroke-linejoin:miter;stroke-width:0.8;"/>
   </g>
   <g id="legend_2">
    <g id="patch_13">
     <path d="M 361.890938 146.822658 
L 440.48 146.822658 
Q 442.48 146.822658 442.48 144.822658 
L 442.48 131.144533 
Q 442.48 129.144533 440.48 129.144533 
L 361.890938 129.144533 
Q 359.890938 129.144533 359.890938 131.144533 
L 359.890938 144.822658 
Q 359.890938 146.822658 361.890938 146.822658 
z
" style="fill:#ffffff;opacity:0.8;stroke:#cccccc;stroke-linejoin:miter;"/>
    </g>
    <g id="line2d_55">
     <path d="M 363.890938 137.242971 
L 383.890938 137.242971 
" style="fill:none;stroke:#f97306;stroke-linecap:square;stroke-width:1.5;"/>
    </g>
    <g id="line2d_56"/>
    <g id="text_10">
     <!-- NOx (lbs) -->
     <defs>
      <path d="M 9.8125 72.90625 
L 23.09375 72.90625 
L 55.421875 11.921875 
L 55.421875 72.90625 
L 64.984375 72.90625 
L 64.984375 0 
L 51.703125 0 
L 19.390625 60.984375 
L 19.390625 0 
L 9.8125 0 
z
" id="DejaVuSans-4e"/>
      <path d="M 54.890625 54.6875 
L 35.109375 28.078125 
L 55.90625 0 
L 45.3125 0 
L 29.390625 21.484375 
L 13.484375 0 
L 2.875 0 
L 24.125 28.609375 
L 4.6875 54.6875 
L 15.28125 54.6875 
L 29.78125 35.203125 
L 44.28125 54.6875 
z
" id="DejaVuSans-78"/>
     </defs>
     <g transform="translate(391.890938 140.742971)scale(0.1 -0.1)">
      <use xlink:href="#DejaVuSans-4e"/>
      <use x="74.804688" xlink:href="#DejaVuSans-4f"/>
      <use x="153.515625" xlink:href="#DejaVuSans-78"/>
      <use x="212.695312" xlink:href="#DejaVuSans-20"/>
      <use x="244.482422" xlink:href="#DejaVuSans-28"/>
      <use x="283.496094" xlink:href="#DejaVuSans-6c"/>
      <use x="311.279297" xlink:href="#DejaVuSans-62"/>
      <use x="374.755859" xlink:href="#DejaVuSans-73"/>
      <use x="426.855469" xlink:href="#DejaVuSans-29"/>
     </g>
    </g>
   </g>
  </g>
  <g id="axes_3">
   <g id="patch_14">
    <path d="M 31.543 309.8635 
L 447.48 309.8635 
L 447.48 224.924017 
L 31.543 224.924017 
z
" style="fill:none;"/>
   </g>
   <g id="matplotlib.axis_5">
    <g id="xtick_19">
     <g id="line2d_57">
      <path clip-path="url(#pc6031ef5cc)" d="M 31.543 309.8635 
L 31.543 224.924017 
" style="fill:none;stroke:#b0b0b0;stroke-linecap:square;stroke-width:0.8;"/>
     </g>
     <g id="line2d_58">
      <g>
       <use style="stroke:#000000;stroke-width:0.8;" x="31.543" xlink:href="#m343a2cdaae" y="309.8635"/>
      </g>
     </g>
     <g id="text_11">
      <!-- 2001 -->
      <defs>
       <path d="M 12.40625 8.296875 
L 28.515625 8.296875 
L 28.515625 63.921875 
L 10.984375 60.40625 
L 10.984375 69.390625 
L 28.421875 72.90625 
L 38.28125 72.90625 
L 38.28125 8.296875 
L 54.390625 8.296875 
L 54.390625 0 
L 12.40625 0 
z
" id="DejaVuSans-31"/>
      </defs>
      <g transform="translate(18.818 324.461937)scale(0.1 -0.1)">
       <use xlink:href="#DejaVuSans-32"/>
       <use x="63.623047" xlink:href="#DejaVuSans-30"/>
       <use x="127.246094" xlink:href="#DejaVuSans-30"/>
       <use x="190.869141" xlink:href="#DejaVuSans-31"/>
      </g>
     </g>
    </g>
    <g id="xtick_20">
     <g id="line2d_59">
      <path clip-path="url(#pc6031ef5cc)" d="M 79.984929 309.8635 
L 79.984929 224.924017 
" style="fill:none;stroke:#b0b0b0;stroke-linecap:square;stroke-width:0.8;"/>
     </g>
     <g id="line2d_60">
      <g>
       <use style="stroke:#000000;stroke-width:0.8;" x="79.984929" xlink:href="#m343a2cdaae" y="309.8635"/>
      </g>
     </g>
     <g id="text_12">
      <!-- 2003 -->
      <defs>
       <path d="M 40.578125 39.3125 
Q 47.65625 37.796875 51.625 33 
Q 55.609375 28.21875 55.609375 21.1875 
Q 55.609375 10.40625 48.1875 4.484375 
Q 40.765625 -1.421875 27.09375 -1.421875 
Q 22.515625 -1.421875 17.65625 -0.515625 
Q 12.796875 0.390625 7.625 2.203125 
L 7.625 11.71875 
Q 11.71875 9.328125 16.59375 8.109375 
Q 21.484375 6.890625 26.8125 6.890625 
Q 36.078125 6.890625 40.9375 10.546875 
Q 45.796875 14.203125 45.796875 21.1875 
Q 45.796875 27.640625 41.28125 31.265625 
Q 36.765625 34.90625 28.71875 34.90625 
L 20.21875 34.90625 
L 20.21875 43.015625 
L 29.109375 43.015625 
Q 36.375 43.015625 40.234375 45.921875 
Q 44.09375 48.828125 44.09375 54.296875 
Q 44.09375 59.90625 40.109375 62.90625 
Q 36.140625 65.921875 28.71875 65.921875 
Q 24.65625 65.921875 20.015625 65.03125 
Q 15.375 64.15625 9.8125 62.3125 
L 9.8125 71.09375 
Q 15.4375 72.65625 20.34375 73.4375 
Q 25.25 74.21875 29.59375 74.21875 
Q 40.828125 74.21875 47.359375 69.109375 
Q 53.90625 64.015625 53.90625 55.328125 
Q 53.90625 49.265625 50.4375 45.09375 
Q 46.96875 40.921875 40.578125 39.3125 
z
" id="DejaVuSans-33"/>
      </defs>
      <g transform="translate(67.259929 324.461937)scale(0.1 -0.1)">
       <use xlink:href="#DejaVuSans-32"/>
       <use x="63.623047" xlink:href="#DejaVuSans-30"/>
       <use x="127.246094" xlink:href="#DejaVuSans-30"/>
       <use x="190.869141" xlink:href="#DejaVuSans-33"/>
      </g>
     </g>
    </g>
    <g id="xtick_21">
     <g id="line2d_61">
      <path clip-path="url(#pc6031ef5cc)" d="M 128.493216 309.8635 
L 128.493216 224.924017 
" style="fill:none;stroke:#b0b0b0;stroke-linecap:square;stroke-width:0.8;"/>
     </g>
     <g id="line2d_62">
      <g>
       <use style="stroke:#000000;stroke-width:0.8;" x="128.493216" xlink:href="#m343a2cdaae" y="309.8635"/>
      </g>
     </g>
     <g id="text_13">
      <!-- 2005 -->
      <defs>
       <path d="M 10.796875 72.90625 
L 49.515625 72.90625 
L 49.515625 64.59375 
L 19.828125 64.59375 
L 19.828125 46.734375 
Q 21.96875 47.46875 24.109375 47.828125 
Q 26.265625 48.1875 28.421875 48.1875 
Q 40.625 48.1875 47.75 41.5 
Q 54.890625 34.8125 54.890625 23.390625 
Q 54.890625 11.625 47.5625 5.09375 
Q 40.234375 -1.421875 26.90625 -1.421875 
Q 22.3125 -1.421875 17.546875 -0.640625 
Q 12.796875 0.140625 7.71875 1.703125 
L 7.71875 11.625 
Q 12.109375 9.234375 16.796875 8.0625 
Q 21.484375 6.890625 26.703125 6.890625 
Q 35.15625 6.890625 40.078125 11.328125 
Q 45.015625 15.765625 45.015625 23.390625 
Q 45.015625 31 40.078125 35.4375 
Q 35.15625 39.890625 26.703125 39.890625 
Q 22.75 39.890625 18.8125 39.015625 
Q 14.890625 38.140625 10.796875 36.28125 
z
" id="DejaVuSans-35"/>
      </defs>
      <g transform="translate(115.768216 324.461937)scale(0.1 -0.1)">
       <use xlink:href="#DejaVuSans-32"/>
       <use x="63.623047" xlink:href="#DejaVuSans-30"/>
       <use x="127.246094" xlink:href="#DejaVuSans-30"/>
       <use x="190.869141" xlink:href="#DejaVuSans-35"/>
      </g>
     </g>
    </g>
    <g id="xtick_22">
     <g id="line2d_63">
      <path clip-path="url(#pc6031ef5cc)" d="M 176.935145 309.8635 
L 176.935145 224.924017 
" style="fill:none;stroke:#b0b0b0;stroke-linecap:square;stroke-width:0.8;"/>
     </g>
     <g id="line2d_64">
      <g>
       <use style="stroke:#000000;stroke-width:0.8;" x="176.935145" xlink:href="#m343a2cdaae" y="309.8635"/>
      </g>
     </g>
     <g id="text_14">
      <!-- 2007 -->
      <defs>
       <path d="M 8.203125 72.90625 
L 55.078125 72.90625 
L 55.078125 68.703125 
L 28.609375 0 
L 18.3125 0 
L 43.21875 64.59375 
L 8.203125 64.59375 
z
" id="DejaVuSans-37"/>
      </defs>
      <g transform="translate(164.210145 324.461937)scale(0.1 -0.1)">
       <use xlink:href="#DejaVuSans-32"/>
       <use x="63.623047" xlink:href="#DejaVuSans-30"/>
       <use x="127.246094" xlink:href="#DejaVuSans-30"/>
       <use x="190.869141" xlink:href="#DejaVuSans-37"/>
      </g>
     </g>
    </g>
    <g id="xtick_23">
     <g id="line2d_65">
      <path clip-path="url(#pc6031ef5cc)" d="M 225.443433 309.8635 
L 225.443433 224.924017 
" style="fill:none;stroke:#b0b0b0;stroke-linecap:square;stroke-width:0.8;"/>
     </g>
     <g id="line2d_66">
      <g>
       <use style="stroke:#000000;stroke-width:0.8;" x="225.443433" xlink:href="#m343a2cdaae" y="309.8635"/>
      </g>
     </g>
     <g id="text_15">
      <!-- 2009 -->
      <defs>
       <path d="M 10.984375 1.515625 
L 10.984375 10.5 
Q 14.703125 8.734375 18.5 7.8125 
Q 22.3125 6.890625 25.984375 6.890625 
Q 35.75 6.890625 40.890625 13.453125 
Q 46.046875 20.015625 46.78125 33.40625 
Q 43.953125 29.203125 39.59375 26.953125 
Q 35.25 24.703125 29.984375 24.703125 
Q 19.046875 24.703125 12.671875 31.3125 
Q 6.296875 37.9375 6.296875 49.421875 
Q 6.296875 60.640625 12.9375 67.421875 
Q 19.578125 74.21875 30.609375 74.21875 
Q 43.265625 74.21875 49.921875 64.515625 
Q 56.59375 54.828125 56.59375 36.375 
Q 56.59375 19.140625 48.40625 8.859375 
Q 40.234375 -1.421875 26.421875 -1.421875 
Q 22.703125 -1.421875 18.890625 -0.6875 
Q 15.09375 0.046875 10.984375 1.515625 
z
M 30.609375 32.421875 
Q 37.25 32.421875 41.125 36.953125 
Q 45.015625 41.5 45.015625 49.421875 
Q 45.015625 57.28125 41.125 61.84375 
Q 37.25 66.40625 30.609375 66.40625 
Q 23.96875 66.40625 20.09375 61.84375 
Q 16.21875 57.28125 16.21875 49.421875 
Q 16.21875 41.5 20.09375 36.953125 
Q 23.96875 32.421875 30.609375 32.421875 
z
" id="DejaVuSans-39"/>
      </defs>
      <g transform="translate(212.718433 324.461937)scale(0.1 -0.1)">
       <use xlink:href="#DejaVuSans-32"/>
       <use x="63.623047" xlink:href="#DejaVuSans-30"/>
       <use x="127.246094" xlink:href="#DejaVuSans-30"/>
       <use x="190.869141" xlink:href="#DejaVuSans-39"/>
      </g>
     </g>
    </g>
    <g id="xtick_24">
     <g id="line2d_67">
      <path clip-path="url(#pc6031ef5cc)" d="M 273.885362 309.8635 
L 273.885362 224.924017 
" style="fill:none;stroke:#b0b0b0;stroke-linecap:square;stroke-width:0.8;"/>
     </g>
     <g id="line2d_68">
      <g>
       <use style="stroke:#000000;stroke-width:0.8;" x="273.885362" xlink:href="#m343a2cdaae" y="309.8635"/>
      </g>
     </g>
     <g id="text_16">
      <!-- 2011 -->
      <g transform="translate(261.160362 324.461937)scale(0.1 -0.1)">
       <use xlink:href="#DejaVuSans-32"/>
       <use x="63.623047" xlink:href="#DejaVuSans-30"/>
       <use x="127.246094" xlink:href="#DejaVuSans-31"/>
       <use x="190.869141" xlink:href="#DejaVuSans-31"/>
      </g>
     </g>
    </g>
    <g id="xtick_25">
     <g id="line2d_69">
      <path clip-path="url(#pc6031ef5cc)" d="M 322.393649 309.8635 
L 322.393649 224.924017 
" style="fill:none;stroke:#b0b0b0;stroke-linecap:square;stroke-width:0.8;"/>
     </g>
     <g id="line2d_70">
      <g>
       <use style="stroke:#000000;stroke-width:0.8;" x="322.393649" xlink:href="#m343a2cdaae" y="309.8635"/>
      </g>
     </g>
     <g id="text_17">
      <!-- 2013 -->
      <g transform="translate(309.668649 324.461937)scale(0.1 -0.1)">
       <use xlink:href="#DejaVuSans-32"/>
       <use x="63.623047" xlink:href="#DejaVuSans-30"/>
       <use x="127.246094" xlink:href="#DejaVuSans-31"/>
       <use x="190.869141" xlink:href="#DejaVuSans-33"/>
      </g>
     </g>
    </g>
    <g id="xtick_26">
     <g id="line2d_71">
      <path clip-path="url(#pc6031ef5cc)" d="M 370.835578 309.8635 
L 370.835578 224.924017 
" style="fill:none;stroke:#b0b0b0;stroke-linecap:square;stroke-width:0.8;"/>
     </g>
     <g id="line2d_72">
      <g>
       <use style="stroke:#000000;stroke-width:0.8;" x="370.835578" xlink:href="#m343a2cdaae" y="309.8635"/>
      </g>
     </g>
     <g id="text_18">
      <!-- 2015 -->
      <g transform="translate(358.110578 324.461937)scale(0.1 -0.1)">
       <use xlink:href="#DejaVuSans-32"/>
       <use x="63.623047" xlink:href="#DejaVuSans-30"/>
       <use x="127.246094" xlink:href="#DejaVuSans-31"/>
       <use x="190.869141" xlink:href="#DejaVuSans-35"/>
      </g>
     </g>
    </g>
    <g id="xtick_27">
     <g id="line2d_73">
      <path clip-path="url(#pc6031ef5cc)" d="M 419.343866 309.8635 
L 419.343866 224.924017 
" style="fill:none;stroke:#b0b0b0;stroke-linecap:square;stroke-width:0.8;"/>
     </g>
     <g id="line2d_74">
      <g>
       <use style="stroke:#000000;stroke-width:0.8;" x="419.343866" xlink:href="#m343a2cdaae" y="309.8635"/>
      </g>
     </g>
     <g id="text_19">
      <!-- 2017 -->
      <g transform="translate(406.618866 324.461937)scale(0.1 -0.1)">
       <use xlink:href="#DejaVuSans-32"/>
       <use x="63.623047" xlink:href="#DejaVuSans-30"/>
       <use x="127.246094" xlink:href="#DejaVuSans-31"/>
       <use x="190.869141" xlink:href="#DejaVuSans-37"/>
      </g>
     </g>
    </g>
    <g id="text_20">
     <!-- Date -->
     <defs>
      <path d="M 19.671875 64.796875 
L 19.671875 8.109375 
L 31.59375 8.109375 
Q 46.6875 8.109375 53.6875 14.9375 
Q 60.6875 21.78125 60.6875 36.53125 
Q 60.6875 51.171875 53.6875 57.984375 
Q 46.6875 64.796875 31.59375 64.796875 
z
M 9.8125 72.90625 
L 30.078125 72.90625 
Q 51.265625 72.90625 61.171875 64.09375 
Q 71.09375 55.28125 71.09375 36.53125 
Q 71.09375 17.671875 61.125 8.828125 
Q 51.171875 0 30.078125 0 
L 9.8125 0 
z
" id="DejaVuSans-44"/>
      <path d="M 18.3125 70.21875 
L 18.3125 54.6875 
L 36.8125 54.6875 
L 36.8125 47.703125 
L 18.3125 47.703125 
L 18.3125 18.015625 
Q 18.3125 11.328125 20.140625 9.421875 
Q 21.96875 7.515625 27.59375 7.515625 
L 36.8125 7.515625 
L 36.8125 0 
L 27.59375 0 
Q 17.1875 0 13.234375 3.875 
Q 9.28125 7.765625 9.28125 18.015625 
L 9.28125 47.703125 
L 2.6875 47.703125 
L 2.6875 54.6875 
L 9.28125 54.6875 
L 9.28125 70.21875 
z
" id="DejaVuSans-74"/>
     </defs>
     <g transform="translate(227.560719 338.140062)scale(0.1 -0.1)">
      <use xlink:href="#DejaVuSans-44"/>
      <use x="77.001953" xlink:href="#DejaVuSans-61"/>
      <use x="138.28125" xlink:href="#DejaVuSans-74"/>
      <use x="177.490234" xlink:href="#DejaVuSans-65"/>
     </g>
    </g>
   </g>
   <g id="matplotlib.axis_6">
    <g id="ytick_8">
     <g id="line2d_75">
      <path clip-path="url(#pc6031ef5cc)" d="M 31.543 306.002614 
L 447.48 306.002614 
" style="fill:none;stroke:#b0b0b0;stroke-linecap:square;stroke-width:0.8;"/>
     </g>
     <g id="line2d_76">
      <g>
       <use style="stroke:#000000;stroke-width:0.8;" x="31.543" xlink:href="#mbf94f9cc16" y="306.002614"/>
      </g>
     </g>
     <g id="text_21">
      <!-- 0 -->
      <g transform="translate(18.1805 309.801833)scale(0.1 -0.1)">
       <use xlink:href="#DejaVuSans-30"/>
      </g>
     </g>
    </g>
    <g id="ytick_9">
     <g id="line2d_77">
      <path clip-path="url(#pc6031ef5cc)" d="M 31.543 270.444633 
L 447.48 270.444633 
" style="fill:none;stroke:#b0b0b0;stroke-linecap:square;stroke-width:0.8;"/>
     </g>
     <g id="line2d_78">
      <g>
       <use style="stroke:#000000;stroke-width:0.8;" x="31.543" xlink:href="#mbf94f9cc16" y="270.444633"/>
      </g>
     </g>
     <g id="text_22">
      <!-- 50 -->
      <g transform="translate(11.818 274.243852)scale(0.1 -0.1)">
       <use xlink:href="#DejaVuSans-35"/>
       <use x="63.623047" xlink:href="#DejaVuSans-30"/>
      </g>
     </g>
    </g>
    <g id="ytick_10">
     <g id="line2d_79">
      <path clip-path="url(#pc6031ef5cc)" d="M 31.543 234.886652 
L 447.48 234.886652 
" style="fill:none;stroke:#b0b0b0;stroke-linecap:square;stroke-width:0.8;"/>
     </g>
     <g id="line2d_80">
      <g>
       <use style="stroke:#000000;stroke-width:0.8;" x="31.543" xlink:href="#mbf94f9cc16" y="234.886652"/>
      </g>
     </g>
     <g id="text_23">
      <!-- 100 -->
      <g transform="translate(5.4555 238.685871)scale(0.1 -0.1)">
       <use xlink:href="#DejaVuSans-31"/>
       <use x="63.623047" xlink:href="#DejaVuSans-30"/>
       <use x="127.246094" xlink:href="#DejaVuSans-30"/>
      </g>
     </g>
    </g>
   </g>
   <g id="line2d_81">
    <path clip-path="url(#pc6031ef5cc)" d="M 31.543 276.318812 
L 33.600123 272.848353 
L 35.45817 276.660168 
L 37.515293 276.866405 
L 39.506057 267.208857 
L 41.56318 277.677127 
L 43.553944 283.366404 
L 45.611067 280.799117 
L 47.66819 285.556775 
L 49.658954 267.279973 
L 51.716077 278.253166 
L 53.706841 292.775045 
L 55.763964 261.000433 
L 57.821087 281.026688 
L 59.679134 228.784902 
L 61.736257 271.682051 
L 63.727021 280.308417 
L 65.784144 269.221439 
L 67.774908 272.222532 
L 69.832031 277.008636 
L 71.889154 265.452293 
L 73.879919 275.294742 
L 75.937042 298.976357 
L 77.927806 288.550757 
L 79.984929 292.561697 
L 82.042052 299.52395 
L 83.900098 283.636644 
L 85.957221 295.897036 
L 87.947986 285.364762 
L 90.005109 288.913449 
L 91.995873 257.636648 
L 94.052996 256.584132 
L 96.110119 278.935879 
L 98.100883 264.598901 
L 100.158006 295.385001 
L 102.14877 260.587961 
L 104.205893 275.99879 
L 106.263016 275.216514 
L 108.187422 271.98785 
L 110.244545 302.709945 
L 112.235309 289.41126 
L 114.292432 298.535438 
L 116.283196 274.078659 
L 118.340319 292.903054 
L 120.397442 288.913449 
L 122.388206 301.692987 
L 124.445329 302.439705 
L 126.436093 298.087408 
L 128.493216 280.984019 
L 130.55034 278.31717 
L 132.408386 281.787629 
L 134.465509 304.729639 
L 136.456273 292.113667 
L 138.513396 295.427671 
L 140.50416 278.295835 
L 142.561284 297.084673 
L 144.618407 286.11148 
L 146.609171 301.685875 
L 148.666294 299.801302 
L 150.657058 303.71268 
L 152.714181 295.854367 
L 154.771304 305.974168 
L 156.629351 304.679857 
L 158.686474 304.345612 
L 160.677238 292.824827 
L 162.734361 286.011917 
L 164.725125 266.526144 
L 166.782248 287.235112 
L 168.839371 298.393206 
L 170.830135 305.191892 
L 172.887258 295.946817 
L 174.878022 303.990033 
L 176.935145 283.949554 
L 178.992268 296.593973 
L 180.850315 303.449551 
L 182.907438 282.527235 
L 184.898202 299.07592 
L 186.955325 304.637188 
L 188.946089 295.107649 
L 191.003212 276.951744 
L 193.060335 289.94463 
L 195.0511 295.882813 
L 197.108223 303.926028 
L 199.098987 303.449551 
L 201.15611 302.631718 
L 203.213233 296.032156 
L 205.137638 305.085218 
L 207.194761 282.72636 
L 209.185525 291.743864 
L 211.242648 286.395944 
L 213.233413 296.174388 
L 215.290536 287.44846 
L 217.347659 290.61312 
L 219.338423 292.334126 
L 221.395546 278.907433 
L 223.38631 295.477452 
L 225.443433 305.284343 
L 227.500556 291.132267 
L 229.358603 295.740581 
L 231.415726 306.002614 
L 233.40649 296.480187 
L 235.463613 302.28325 
L 237.454377 296.153054 
L 239.5115 292.206118 
L 241.568623 280.215966 
L 243.559387 301.451193 
L 245.61651 303.207757 
L 247.607274 303.477998 
L 249.664397 290.449553 
L 251.72152 294.567168 
L 253.579567 292.341238 
L 255.63669 288.579204 
L 257.627454 300.320449 
L 261.675341 293.19463 
L 263.732464 290.641566 
L 265.789587 293.429312 
L 267.780352 299.666182 
L 269.837475 304.566072 
L 271.828239 297.866948 
L 273.885362 300.76848 
L 277.800531 299.34616 
L 279.857654 301.742768 
L 281.848419 305.504803 
L 283.905542 302.717057 
L 285.896306 302.923293 
L 287.953429 297.020668 
L 290.010552 300.839596 
L 292.001316 302.852177 
L 294.058439 296.437517 
L 296.049203 301.536532 
L 298.106326 305.931498 
L 300.163449 302.510821 
L 302.087855 304.793643 
L 304.144978 305.334124 
L 306.135742 298.122966 
L 308.192865 305.952833 
L 310.183629 304.60163 
L 312.240752 280.329752 
L 314.297875 296.373513 
L 316.288639 296.416183 
L 318.345762 298.656335 
L 320.336526 303.250427 
L 322.393649 303.349989 
L 324.450772 305.177669 
L 326.308819 304.480733 
L 328.365942 305.462133 
L 330.356706 291.551851 
L 332.413829 296.551303 
L 334.404593 304.60163 
L 336.461716 290.65579 
L 338.51884 283.444631 
L 340.509604 292.383908 
L 342.566727 304.317166 
L 344.557491 303.819354 
L 346.614614 305.974168 
L 348.671737 299.225263 
L 350.529784 301.842331 
L 352.586907 299.111478 
L 354.577671 298.848349 
L 356.634794 304.118041 
L 358.625558 302.247692 
L 362.739804 286.20393 
L 364.730568 305.04966 
L 366.787691 304.075372 
L 368.778455 303.463775 
L 370.835578 298.215416 
L 372.892701 304.295831 
L 374.750748 304.800755 
L 376.807871 303.691346 
L 378.798635 306.002614 
L 380.855758 303.883359 
L 382.846522 297.219793 
L 384.903645 298.037627 
L 386.960768 296.096161 
L 388.951533 289.852179 
L 391.008656 303.001521 
L 392.99942 305.782155 
L 395.056543 305.291455 
L 397.113666 303.186422 
L 399.038071 299.737298 
L 401.095194 295.740581 
L 403.085958 304.686969 
L 405.143081 288.842333 
L 407.133846 294.53161 
L 409.190969 289.859291 
L 411.248092 290.12242 
L 413.238856 305.647035 
L 415.295979 303.079748 
L 417.286743 304.992768 
L 419.343866 302.709945 
L 421.400989 303.122418 
L 423.259036 297.689158 
L 427.306923 304.615853 
L 429.364046 304.701192 
L 431.35481 305.063884 
L 433.411933 290.478 
L 435.469056 300.882265 
L 437.45982 297.610931 
L 439.516943 303.997144 
L 441.507707 304.871871 
L 445.621953 303.321543 
L 447.48 304.025591 
L 447.48 304.025591 
" style="fill:none;stroke:#4682b4;stroke-linecap:square;stroke-width:1.5;"/>
   </g>
   <g id="patch_15">
    <path d="M 31.543 309.8635 
L 31.543 224.924017 
" style="fill:none;stroke:#000000;stroke-linecap:square;stroke-linejoin:miter;stroke-width:0.8;"/>
   </g>
   <g id="patch_16">
    <path d="M 447.48 309.8635 
L 447.48 224.924017 
" style="fill:none;stroke:#000000;stroke-linecap:square;stroke-linejoin:miter;stroke-width:0.8;"/>
   </g>
   <g id="patch_17">
    <path d="M 31.543 309.8635 
L 447.48 309.8635 
" style="fill:none;stroke:#000000;stroke-linecap:square;stroke-linejoin:miter;stroke-width:0.8;"/>
   </g>
   <g id="patch_18">
    <path d="M 31.543 224.924017 
L 447.48 224.924017 
" style="fill:none;stroke:#000000;stroke-linecap:square;stroke-linejoin:miter;stroke-width:0.8;"/>
   </g>
   <g id="legend_3">
    <g id="patch_19">
     <path d="M 354.695625 247.602142 
L 440.48 247.602142 
Q 442.48 247.602142 442.48 245.602142 
L 442.48 231.924017 
Q 442.48 229.924017 440.48 229.924017 
L 354.695625 229.924017 
Q 352.695625 229.924017 352.695625 231.924017 
L 352.695625 245.602142 
Q 352.695625 247.602142 354.695625 247.602142 
z
" style="fill:#ffffff;opacity:0.8;stroke:#cccccc;stroke-linejoin:miter;"/>
    </g>
    <g id="line2d_82">
     <path d="M 356.695625 238.022454 
L 376.695625 238.022454 
" style="fill:none;stroke:#4682b4;stroke-linecap:square;stroke-width:1.5;"/>
    </g>
    <g id="line2d_83"/>
    <g id="text_24">
     <!-- CO2 (tons) -->
     <defs>
      <path d="M 64.40625 67.28125 
L 64.40625 56.890625 
Q 59.421875 61.53125 53.78125 63.8125 
Q 48.140625 66.109375 41.796875 66.109375 
Q 29.296875 66.109375 22.65625 58.46875 
Q 16.015625 50.828125 16.015625 36.375 
Q 16.015625 21.96875 22.65625 14.328125 
Q 29.296875 6.6875 41.796875 6.6875 
Q 48.140625 6.6875 53.78125 8.984375 
Q 59.421875 11.28125 64.40625 15.921875 
L 64.40625 5.609375 
Q 59.234375 2.09375 53.4375 0.328125 
Q 47.65625 -1.421875 41.21875 -1.421875 
Q 24.65625 -1.421875 15.125 8.703125 
Q 5.609375 18.84375 5.609375 36.375 
Q 5.609375 53.953125 15.125 64.078125 
Q 24.65625 74.21875 41.21875 74.21875 
Q 47.75 74.21875 53.53125 72.484375 
Q 59.328125 70.75 64.40625 67.28125 
z
" id="DejaVuSans-43"/>
     </defs>
     <g transform="translate(384.695625 241.522454)scale(0.1 -0.1)">
      <use xlink:href="#DejaVuSans-43"/>
      <use x="69.824219" xlink:href="#DejaVuSans-4f"/>
      <use x="148.535156" xlink:href="#DejaVuSans-32"/>
      <use x="212.158203" xlink:href="#DejaVuSans-20"/>
      <use x="243.945312" xlink:href="#DejaVuSans-28"/>
      <use x="282.958984" xlink:href="#DejaVuSans-74"/>
      <use x="322.167969" xlink:href="#DejaVuSans-6f"/>
      <use x="383.349609" xlink:href="#DejaVuSans-6e"/>
      <use x="446.728516" xlink:href="#DejaVuSans-73"/>
      <use x="498.828125" xlink:href="#DejaVuSans-29"/>
     </g>
    </g>
   </g>
  </g>
 </g>
 <defs>
  <clipPath id="p828ed60c23">
   <rect height="84.939483" width="415.937" x="31.543" y="23.36505"/>
  </clipPath>
  <clipPath id="pbd5a1ba381">
   <rect height="84.939483" width="415.937" x="31.543" y="124.144533"/>
  </clipPath>
  <clipPath id="pc6031ef5cc">
   <rect height="84.939483" width="415.937" x="31.543" y="224.924017"/>
  </clipPath>
 </defs>
</svg>
