<?xml version="1.0" encoding="utf-8" standalone="no"?>
<!DOCTYPE svg PUBLIC "-//W3C//DTD SVG 1.1//EN"
  "http://www.w3.org/Graphics/SVG/1.1/DTD/svg11.dtd">
<!-- Created with matplotlib (http://matplotlib.org/) -->
<svg height="345.6pt" version="1.1" viewBox="0 0 460.8 345.6" width="460.8pt" xmlns="http://www.w3.org/2000/svg" xmlns:xlink="http://www.w3.org/1999/xlink">
 <defs>
  <style type="text/css">
*{stroke-linecap:butt;stroke-linejoin:round;}
  </style>
 </defs>
 <g id="figure_1">
  <g id="patch_1">
   <path d="M 0 345.6 
L 460.8 345.6 
L 460.8 0 
L 0 0 
z
" style="fill:none;"/>
  </g>
  <g id="axes_1">
   <g id="patch_2">
    <path d="M 31.543 108.016538 
L 447.48 108.016538 
L 447.48 23.36505 
L 31.543 23.36505 
z
" style="fill:none;"/>
   </g>
   <g id="matplotlib.axis_1">
    <g id="xtick_1">
     <g id="line2d_1">
      <path clip-path="url(#p584911c76a)" d="M 31.543 108.016538 
L 31.543 23.36505 
" style="fill:none;stroke:#b0b0b0;stroke-linecap:square;stroke-width:0.8;"/>
     </g>
     <g id="line2d_2">
      <defs>
       <path d="M 0 0 
L 0 3.5 
" id="mfa9a547afd" style="stroke:#000000;stroke-width:0.8;"/>
      </defs>
      <g>
       <use style="stroke:#000000;stroke-width:0.8;" x="31.543" xlink:href="#mfa9a547afd" y="108.016538"/>
      </g>
     </g>
    </g>
    <g id="xtick_2">
     <g id="line2d_3">
      <path clip-path="url(#p584911c76a)" d="M 79.984929 108.016538 
L 79.984929 23.36505 
" style="fill:none;stroke:#b0b0b0;stroke-linecap:square;stroke-width:0.8;"/>
     </g>
     <g id="line2d_4">
      <g>
       <use style="stroke:#000000;stroke-width:0.8;" x="79.984929" xlink:href="#mfa9a547afd" y="108.016538"/>
      </g>
     </g>
    </g>
    <g id="xtick_3">
     <g id="line2d_5">
      <path clip-path="url(#p584911c76a)" d="M 128.493216 108.016538 
L 128.493216 23.36505 
" style="fill:none;stroke:#b0b0b0;stroke-linecap:square;stroke-width:0.8;"/>
     </g>
     <g id="line2d_6">
      <g>
       <use style="stroke:#000000;stroke-width:0.8;" x="128.493216" xlink:href="#mfa9a547afd" y="108.016538"/>
      </g>
     </g>
    </g>
    <g id="xtick_4">
     <g id="line2d_7">
      <path clip-path="url(#p584911c76a)" d="M 176.935145 108.016538 
L 176.935145 23.36505 
" style="fill:none;stroke:#b0b0b0;stroke-linecap:square;stroke-width:0.8;"/>
     </g>
     <g id="line2d_8">
      <g>
       <use style="stroke:#000000;stroke-width:0.8;" x="176.935145" xlink:href="#mfa9a547afd" y="108.016538"/>
      </g>
     </g>
    </g>
    <g id="xtick_5">
     <g id="line2d_9">
      <path clip-path="url(#p584911c76a)" d="M 225.443433 108.016538 
L 225.443433 23.36505 
" style="fill:none;stroke:#b0b0b0;stroke-linecap:square;stroke-width:0.8;"/>
     </g>
     <g id="line2d_10">
      <g>
       <use style="stroke:#000000;stroke-width:0.8;" x="225.443433" xlink:href="#mfa9a547afd" y="108.016538"/>
      </g>
     </g>
    </g>
    <g id="xtick_6">
     <g id="line2d_11">
      <path clip-path="url(#p584911c76a)" d="M 273.885362 108.016538 
L 273.885362 23.36505 
" style="fill:none;stroke:#b0b0b0;stroke-linecap:square;stroke-width:0.8;"/>
     </g>
     <g id="line2d_12">
      <g>
       <use style="stroke:#000000;stroke-width:0.8;" x="273.885362" xlink:href="#mfa9a547afd" y="108.016538"/>
      </g>
     </g>
    </g>
    <g id="xtick_7">
     <g id="line2d_13">
      <path clip-path="url(#p584911c76a)" d="M 322.393649 108.016538 
L 322.393649 23.36505 
" style="fill:none;stroke:#b0b0b0;stroke-linecap:square;stroke-width:0.8;"/>
     </g>
     <g id="line2d_14">
      <g>
       <use style="stroke:#000000;stroke-width:0.8;" x="322.393649" xlink:href="#mfa9a547afd" y="108.016538"/>
      </g>
     </g>
    </g>
    <g id="xtick_8">
     <g id="line2d_15">
      <path clip-path="url(#p584911c76a)" d="M 370.835578 108.016538 
L 370.835578 23.36505 
" style="fill:none;stroke:#b0b0b0;stroke-linecap:square;stroke-width:0.8;"/>
     </g>
     <g id="line2d_16">
      <g>
       <use style="stroke:#000000;stroke-width:0.8;" x="370.835578" xlink:href="#mfa9a547afd" y="108.016538"/>
      </g>
     </g>
    </g>
    <g id="xtick_9">
     <g id="line2d_17">
      <path clip-path="url(#p584911c76a)" d="M 419.343866 108.016538 
L 419.343866 23.36505 
" style="fill:none;stroke:#b0b0b0;stroke-linecap:square;stroke-width:0.8;"/>
     </g>
     <g id="line2d_18">
      <g>
       <use style="stroke:#000000;stroke-width:0.8;" x="419.343866" xlink:href="#mfa9a547afd" y="108.016538"/>
      </g>
     </g>
    </g>
   </g>
   <g id="matplotlib.axis_2">
    <g id="ytick_1">
     <g id="line2d_19">
      <path clip-path="url(#p584911c76a)" d="M 31.543 106.740061 
L 447.48 106.740061 
" style="fill:none;stroke:#b0b0b0;stroke-linecap:square;stroke-width:0.8;"/>
     </g>
     <g id="line2d_20">
      <defs>
       <path d="M 0 0 
L -3.5 0 
" id="md4c7b37116" style="stroke:#000000;stroke-width:0.8;"/>
      </defs>
      <g>
       <use style="stroke:#000000;stroke-width:0.8;" x="31.543" xlink:href="#md4c7b37116" y="106.740061"/>
      </g>
     </g>
     <g id="text_1">
      <!-- 0 -->
      <defs>
       <path d="M 31.78125 66.40625 
Q 24.171875 66.40625 20.328125 58.90625 
Q 16.5 51.421875 16.5 36.375 
Q 16.5 21.390625 20.328125 13.890625 
Q 24.171875 6.390625 31.78125 6.390625 
Q 39.453125 6.390625 43.28125 13.890625 
Q 47.125 21.390625 47.125 36.375 
Q 47.125 51.421875 43.28125 58.90625 
Q 39.453125 66.40625 31.78125 66.40625 
z
M 31.78125 74.21875 
Q 44.046875 74.21875 50.515625 64.515625 
Q 56.984375 54.828125 56.984375 36.375 
Q 56.984375 17.96875 50.515625 8.265625 
Q 44.046875 -1.421875 31.78125 -1.421875 
Q 19.53125 -1.421875 13.0625 8.265625 
Q 6.59375 17.96875 6.59375 36.375 
Q 6.59375 54.828125 13.0625 64.515625 
Q 19.53125 74.21875 31.78125 74.21875 
z
" id="DejaVuSans-30"/>
      </defs>
      <g transform="translate(18.1805 110.53928)scale(0.1 -0.1)">
       <use xlink:href="#DejaVuSans-30"/>
      </g>
     </g>
    </g>
    <g id="ytick_2">
     <g id="line2d_21">
      <path clip-path="url(#p584911c76a)" d="M 31.543 70.006936 
L 447.48 70.006936 
" style="fill:none;stroke:#b0b0b0;stroke-linecap:square;stroke-width:0.8;"/>
     </g>
     <g id="line2d_22">
      <g>
       <use style="stroke:#000000;stroke-width:0.8;" x="31.543" xlink:href="#md4c7b37116" y="70.006936"/>
      </g>
     </g>
     <g id="text_2">
      <!-- 2 -->
      <defs>
       <path d="M 19.1875 8.296875 
L 53.609375 8.296875 
L 53.609375 0 
L 7.328125 0 
L 7.328125 8.296875 
Q 12.9375 14.109375 22.625 23.890625 
Q 32.328125 33.6875 34.8125 36.53125 
Q 39.546875 41.84375 41.421875 45.53125 
Q 43.3125 49.21875 43.3125 52.78125 
Q 43.3125 58.59375 39.234375 62.25 
Q 35.15625 65.921875 28.609375 65.921875 
Q 23.96875 65.921875 18.8125 64.3125 
Q 13.671875 62.703125 7.8125 59.421875 
L 7.8125 69.390625 
Q 13.765625 71.78125 18.9375 73 
Q 24.125 74.21875 28.421875 74.21875 
Q 39.75 74.21875 46.484375 68.546875 
Q 53.21875 62.890625 53.21875 53.421875 
Q 53.21875 48.921875 51.53125 44.890625 
Q 49.859375 40.875 45.40625 35.40625 
Q 44.1875 33.984375 37.640625 27.21875 
Q 31.109375 20.453125 19.1875 8.296875 
z
" id="DejaVuSans-32"/>
      </defs>
      <g transform="translate(18.1805 73.806155)scale(0.1 -0.1)">
       <use xlink:href="#DejaVuSans-32"/>
      </g>
     </g>
    </g>
    <g id="ytick_3">
     <g id="line2d_23">
      <path clip-path="url(#p584911c76a)" d="M 31.543 33.273811 
L 447.48 33.273811 
" style="fill:none;stroke:#b0b0b0;stroke-linecap:square;stroke-width:0.8;"/>
     </g>
     <g id="line2d_24">
      <g>
       <use style="stroke:#000000;stroke-width:0.8;" x="31.543" xlink:href="#md4c7b37116" y="33.273811"/>
      </g>
     </g>
     <g id="text_3">
      <!-- 4 -->
      <defs>
       <path d="M 37.796875 64.3125 
L 12.890625 25.390625 
L 37.796875 25.390625 
z
M 35.203125 72.90625 
L 47.609375 72.90625 
L 47.609375 25.390625 
L 58.015625 25.390625 
L 58.015625 17.1875 
L 47.609375 17.1875 
L 47.609375 0 
L 37.796875 0 
L 37.796875 17.1875 
L 4.890625 17.1875 
L 4.890625 26.703125 
z
" id="DejaVuSans-34"/>
      </defs>
      <g transform="translate(18.1805 37.073029)scale(0.1 -0.1)">
       <use xlink:href="#DejaVuSans-34"/>
      </g>
     </g>
    </g>
   </g>
   <g id="line2d_25">
    <path clip-path="url(#p584911c76a)" d="M 31.543 59.170664 
L 33.600123 43.191754 
L 35.45817 34.743136 
L 37.515293 61.374652 
L 39.506057 50.53838 
L 41.56318 63.394973 
L 43.553944 72.027258 
L 45.611067 55.864683 
L 47.66819 71.10893 
L 49.658954 80.108546 
L 51.716077 90.393821 
L 53.706841 89.842824 
L 55.763964 99.944433 
L 57.821087 82.496199 
L 59.679134 63.578639 
L 61.736257 93.332471 
L 63.727021 98.291443 
L 65.784144 84.332855 
L 67.774908 56.048348 
L 69.832031 58.986998 
L 71.889154 36.028795 
L 73.879919 70.006936 
L 75.937042 80.108546 
L 77.927806 85.251183 
L 79.984929 79.190217 
L 82.042052 74.965908 
L 83.900098 73.680249 
L 85.957221 81.394205 
L 87.947986 86.720508 
L 90.005109 86.169511 
L 91.995873 42.824423 
L 94.052996 45.763073 
L 96.110119 62.843977 
L 98.100883 77.904558 
L 100.158006 83.047196 
L 102.14877 91.495814 
L 104.205893 92.230477 
L 106.263016 76.435233 
L 108.187422 81.210539 
L 110.244545 87.455171 
L 112.235309 81.945202 
L 114.292432 79.741214 
L 116.283196 74.231245 
L 118.340319 76.618899 
L 120.397442 75.149574 
L 122.388206 78.639221 
L 124.445329 78.639221 
L 126.436093 83.965524 
L 128.493216 70.925264 
L 130.55034 62.109314 
L 132.408386 51.273042 
L 134.465509 61.190986 
L 136.456273 82.496199 
L 138.513396 75.333239 
L 140.50416 48.334392 
L 142.561284 36.763458 
L 144.618407 68.17028 
L 146.609171 88.557164 
L 148.666294 87.638836 
L 150.657058 71.843592 
L 152.714181 85.434849 
L 154.771304 79.373883 
L 156.629351 77.537227 
L 160.677238 72.394589 
L 162.734361 67.802948 
L 164.725125 37.865451 
L 166.782248 49.987383 
L 168.839371 58.06867 
L 170.830135 68.721277 
L 172.887258 90.944818 
L 174.878022 75.516905 
L 176.935145 79.006552 
L 178.992268 87.271505 
L 180.850315 88.74083 
L 182.907438 78.271889 
L 184.898202 65.047964 
L 186.955325 57.701339 
L 188.946089 27.212845 
L 191.003212 37.130789 
L 193.060335 45.579408 
L 195.0511 61.558317 
L 197.108223 72.027258 
L 199.098987 70.374267 
L 201.15611 56.41568 
L 203.213233 56.232014 
L 205.137638 56.41568 
L 207.194761 44.661079 
L 209.185525 61.00732 
L 211.242648 57.334008 
L 213.233413 44.661079 
L 215.290536 37.130789 
L 217.347659 40.987767 
L 219.338423 62.476645 
L 221.395546 69.82327 
L 223.38631 75.516905 
L 225.443433 82.496199 
L 227.500556 80.292211 
L 229.358603 71.292595 
L 231.415726 65.23163 
L 233.40649 54.946355 
L 235.463613 64.864298 
L 237.454377 38.416448 
L 239.5115 48.334392 
L 241.568623 35.294132 
L 243.559387 64.496967 
L 245.61651 80.475877 
L 247.607274 60.823655 
L 249.664397 65.23163 
L 251.72152 65.415295 
L 253.579567 67.435617 
L 255.63669 67.619283 
L 257.627454 62.843977 
L 259.684577 66.88462 
L 261.675341 56.783011 
L 263.732464 49.987383 
L 265.789587 65.415295 
L 267.780352 63.027642 
L 269.837475 65.966292 
L 271.828239 63.027642 
L 273.885362 69.639605 
L 275.942485 83.414527 
L 277.800531 64.313302 
L 279.857654 66.149958 
L 281.848419 81.945202 
L 283.905542 88.189833 
L 285.896306 65.966292 
L 287.953429 64.129636 
L 290.010552 63.394973 
L 292.001316 79.741214 
L 294.058439 72.394589 
L 296.049203 70.374267 
L 298.106326 85.251183 
L 300.163449 79.557549 
L 302.087855 93.332471 
L 304.144978 84.883852 
L 306.135742 74.231245 
L 308.192865 76.067902 
L 312.240752 34.743136 
L 314.297875 44.293748 
L 316.288639 62.476645 
L 318.345762 86.720508 
L 320.336526 69.639605 
L 322.393649 63.394973 
L 324.450772 57.517673 
L 326.308819 68.721277 
L 328.365942 54.395358 
L 330.356706 70.374267 
L 332.413829 65.966292 
L 334.404593 70.006936 
L 336.461716 67.986614 
L 338.51884 67.435617 
L 340.509604 76.435233 
L 342.566727 83.230861 
L 344.557491 95.536458 
L 346.614614 97.189449 
L 348.671737 64.864298 
L 350.529784 82.496199 
L 352.586907 70.925264 
L 356.634794 75.516905 
L 358.625558 66.149958 
L 360.682681 70.374267 
L 362.739804 63.211308 
L 364.730568 83.230861 
L 366.787691 86.720508 
L 368.778455 76.802564 
L 370.835578 76.435233 
L 372.892701 85.985846 
L 374.750748 79.006552 
L 376.807871 73.496583 
L 378.798635 92.046811 
L 380.855758 84.700186 
L 382.846522 64.680633 
L 384.903645 59.905327 
L 386.960768 61.00732 
L 388.951533 78.455555 
L 391.008656 104.168743 
L 392.99942 82.679864 
L 395.056543 68.537611 
L 397.113666 63.94597 
L 399.038071 73.863914 
L 401.095194 83.781858 
L 403.085958 83.965524 
L 405.143081 73.312917 
L 407.133846 61.190986 
L 409.190969 62.660311 
L 411.248092 59.905327 
L 413.238856 68.721277 
L 415.295979 79.557549 
L 417.286743 95.536458 
L 419.343866 76.618899 
L 421.400989 71.10893 
L 423.259036 87.271505 
L 425.316159 71.292595 
L 427.306923 77.720892 
L 429.364046 78.271889 
L 431.35481 70.006936 
L 433.411933 63.211308 
L 435.469056 71.10893 
L 437.45982 92.230477 
L 439.516943 99.944433 
L 441.507707 95.169127 
L 443.56483 79.006552 
L 445.621953 81.394205 
L 447.48 71.10893 
L 447.48 71.10893 
" style="fill:none;stroke:#008000;stroke-linecap:square;stroke-width:1.5;"/>
   </g>
   <g id="patch_3">
    <path d="M 31.543 108.016538 
L 31.543 23.36505 
" style="fill:none;stroke:#000000;stroke-linecap:square;stroke-linejoin:miter;stroke-width:0.8;"/>
   </g>
   <g id="patch_4">
    <path d="M 447.48 108.016538 
L 447.48 23.36505 
" style="fill:none;stroke:#000000;stroke-linecap:square;stroke-linejoin:miter;stroke-width:0.8;"/>
   </g>
   <g id="patch_5">
    <path d="M 31.543 108.016538 
L 447.48 108.016538 
" style="fill:none;stroke:#000000;stroke-linecap:square;stroke-linejoin:miter;stroke-width:0.8;"/>
   </g>
   <g id="patch_6">
    <path d="M 31.543 23.36505 
L 447.48 23.36505 
" style="fill:none;stroke:#000000;stroke-linecap:square;stroke-linejoin:miter;stroke-width:0.8;"/>
   </g>
   <g id="text_4">
    <!-- Mean hourly emissions -->
    <defs>
     <path d="M 9.8125 72.90625 
L 24.515625 72.90625 
L 43.109375 23.296875 
L 61.8125 72.90625 
L 76.515625 72.90625 
L 76.515625 0 
L 66.890625 0 
L 66.890625 64.015625 
L 48.09375 14.015625 
L 38.1875 14.015625 
L 19.390625 64.015625 
L 19.390625 0 
L 9.8125 0 
z
" id="DejaVuSans-4d"/>
     <path d="M 56.203125 29.59375 
L 56.203125 25.203125 
L 14.890625 25.203125 
Q 15.484375 15.921875 20.484375 11.0625 
Q 25.484375 6.203125 34.421875 6.203125 
Q 39.59375 6.203125 44.453125 7.46875 
Q 49.3125 8.734375 54.109375 11.28125 
L 54.109375 2.78125 
Q 49.265625 0.734375 44.1875 -0.34375 
Q 39.109375 -1.421875 33.890625 -1.421875 
Q 20.796875 -1.421875 13.15625 6.1875 
Q 5.515625 13.8125 5.515625 26.8125 
Q 5.515625 40.234375 12.765625 48.109375 
Q 20.015625 56 32.328125 56 
Q 43.359375 56 49.78125 48.890625 
Q 56.203125 41.796875 56.203125 29.59375 
z
M 47.21875 32.234375 
Q 47.125 39.59375 43.09375 43.984375 
Q 39.0625 48.390625 32.421875 48.390625 
Q 24.90625 48.390625 20.390625 44.140625 
Q 15.875 39.890625 15.1875 32.171875 
z
" id="DejaVuSans-65"/>
     <path d="M 34.28125 27.484375 
Q 23.390625 27.484375 19.1875 25 
Q 14.984375 22.515625 14.984375 16.5 
Q 14.984375 11.71875 18.140625 8.90625 
Q 21.296875 6.109375 26.703125 6.109375 
Q 34.1875 6.109375 38.703125 11.40625 
Q 43.21875 16.703125 43.21875 25.484375 
L 43.21875 27.484375 
z
M 52.203125 31.203125 
L 52.203125 0 
L 43.21875 0 
L 43.21875 8.296875 
Q 40.140625 3.328125 35.546875 0.953125 
Q 30.953125 -1.421875 24.3125 -1.421875 
Q 15.921875 -1.421875 10.953125 3.296875 
Q 6 8.015625 6 15.921875 
Q 6 25.140625 12.171875 29.828125 
Q 18.359375 34.515625 30.609375 34.515625 
L 43.21875 34.515625 
L 43.21875 35.40625 
Q 43.21875 41.609375 39.140625 45 
Q 35.0625 48.390625 27.6875 48.390625 
Q 23 48.390625 18.546875 47.265625 
Q 14.109375 46.140625 10.015625 43.890625 
L 10.015625 52.203125 
Q 14.9375 54.109375 19.578125 55.046875 
Q 24.21875 56 28.609375 56 
Q 40.484375 56 46.34375 49.84375 
Q 52.203125 43.703125 52.203125 31.203125 
z
" id="DejaVuSans-61"/>
     <path d="M 54.890625 33.015625 
L 54.890625 0 
L 45.90625 0 
L 45.90625 32.71875 
Q 45.90625 40.484375 42.875 44.328125 
Q 39.84375 48.1875 33.796875 48.1875 
Q 26.515625 48.1875 22.3125 43.546875 
Q 18.109375 38.921875 18.109375 30.90625 
L 18.109375 0 
L 9.078125 0 
L 9.078125 54.6875 
L 18.109375 54.6875 
L 18.109375 46.1875 
Q 21.34375 51.125 25.703125 53.5625 
Q 30.078125 56 35.796875 56 
Q 45.21875 56 50.046875 50.171875 
Q 54.890625 44.34375 54.890625 33.015625 
z
" id="DejaVuSans-6e"/>
     <path id="DejaVuSans-20"/>
     <path d="M 54.890625 33.015625 
L 54.890625 0 
L 45.90625 0 
L 45.90625 32.71875 
Q 45.90625 40.484375 42.875 44.328125 
Q 39.84375 48.1875 33.796875 48.1875 
Q 26.515625 48.1875 22.3125 43.546875 
Q 18.109375 38.921875 18.109375 30.90625 
L 18.109375 0 
L 9.078125 0 
L 9.078125 75.984375 
L 18.109375 75.984375 
L 18.109375 46.1875 
Q 21.34375 51.125 25.703125 53.5625 
Q 30.078125 56 35.796875 56 
Q 45.21875 56 50.046875 50.171875 
Q 54.890625 44.34375 54.890625 33.015625 
z
" id="DejaVuSans-68"/>
     <path d="M 30.609375 48.390625 
Q 23.390625 48.390625 19.1875 42.75 
Q 14.984375 37.109375 14.984375 27.296875 
Q 14.984375 17.484375 19.15625 11.84375 
Q 23.34375 6.203125 30.609375 6.203125 
Q 37.796875 6.203125 41.984375 11.859375 
Q 46.1875 17.53125 46.1875 27.296875 
Q 46.1875 37.015625 41.984375 42.703125 
Q 37.796875 48.390625 30.609375 48.390625 
z
M 30.609375 56 
Q 42.328125 56 49.015625 48.375 
Q 55.71875 40.765625 55.71875 27.296875 
Q 55.71875 13.875 49.015625 6.21875 
Q 42.328125 -1.421875 30.609375 -1.421875 
Q 18.84375 -1.421875 12.171875 6.21875 
Q 5.515625 13.875 5.515625 27.296875 
Q 5.515625 40.765625 12.171875 48.375 
Q 18.84375 56 30.609375 56 
z
" id="DejaVuSans-6f"/>
     <path d="M 8.5 21.578125 
L 8.5 54.6875 
L 17.484375 54.6875 
L 17.484375 21.921875 
Q 17.484375 14.15625 20.5 10.265625 
Q 23.53125 6.390625 29.59375 6.390625 
Q 36.859375 6.390625 41.078125 11.03125 
Q 45.3125 15.671875 45.3125 23.6875 
L 45.3125 54.6875 
L 54.296875 54.6875 
L 54.296875 0 
L 45.3125 0 
L 45.3125 8.40625 
Q 42.046875 3.421875 37.71875 1 
Q 33.40625 -1.421875 27.6875 -1.421875 
Q 18.265625 -1.421875 13.375 4.4375 
Q 8.5 10.296875 8.5 21.578125 
z
M 31.109375 56 
z
" id="DejaVuSans-75"/>
     <path d="M 41.109375 46.296875 
Q 39.59375 47.171875 37.8125 47.578125 
Q 36.03125 48 33.890625 48 
Q 26.265625 48 22.1875 43.046875 
Q 18.109375 38.09375 18.109375 28.8125 
L 18.109375 0 
L 9.078125 0 
L 9.078125 54.6875 
L 18.109375 54.6875 
L 18.109375 46.1875 
Q 20.953125 51.171875 25.484375 53.578125 
Q 30.03125 56 36.53125 56 
Q 37.453125 56 38.578125 55.875 
Q 39.703125 55.765625 41.0625 55.515625 
z
" id="DejaVuSans-72"/>
     <path d="M 9.421875 75.984375 
L 18.40625 75.984375 
L 18.40625 0 
L 9.421875 0 
z
" id="DejaVuSans-6c"/>
     <path d="M 32.171875 -5.078125 
Q 28.375 -14.84375 24.75 -17.8125 
Q 21.140625 -20.796875 15.09375 -20.796875 
L 7.90625 -20.796875 
L 7.90625 -13.28125 
L 13.1875 -13.28125 
Q 16.890625 -13.28125 18.9375 -11.515625 
Q 21 -9.765625 23.484375 -3.21875 
L 25.09375 0.875 
L 2.984375 54.6875 
L 12.5 54.6875 
L 29.59375 11.921875 
L 46.6875 54.6875 
L 56.203125 54.6875 
z
" id="DejaVuSans-79"/>
     <path d="M 52 44.1875 
Q 55.375 50.25 60.0625 53.125 
Q 64.75 56 71.09375 56 
Q 79.640625 56 84.28125 50.015625 
Q 88.921875 44.046875 88.921875 33.015625 
L 88.921875 0 
L 79.890625 0 
L 79.890625 32.71875 
Q 79.890625 40.578125 77.09375 44.375 
Q 74.3125 48.1875 68.609375 48.1875 
Q 61.625 48.1875 57.5625 43.546875 
Q 53.515625 38.921875 53.515625 30.90625 
L 53.515625 0 
L 44.484375 0 
L 44.484375 32.71875 
Q 44.484375 40.625 41.703125 44.40625 
Q 38.921875 48.1875 33.109375 48.1875 
Q 26.21875 48.1875 22.15625 43.53125 
Q 18.109375 38.875 18.109375 30.90625 
L 18.109375 0 
L 9.078125 0 
L 9.078125 54.6875 
L 18.109375 54.6875 
L 18.109375 46.1875 
Q 21.1875 51.21875 25.484375 53.609375 
Q 29.78125 56 35.6875 56 
Q 41.65625 56 45.828125 52.96875 
Q 50 49.953125 52 44.1875 
z
" id="DejaVuSans-6d"/>
     <path d="M 9.421875 54.6875 
L 18.40625 54.6875 
L 18.40625 0 
L 9.421875 0 
z
M 9.421875 75.984375 
L 18.40625 75.984375 
L 18.40625 64.59375 
L 9.421875 64.59375 
z
" id="DejaVuSans-69"/>
     <path d="M 44.28125 53.078125 
L 44.28125 44.578125 
Q 40.484375 46.53125 36.375 47.5 
Q 32.28125 48.484375 27.875 48.484375 
Q 21.1875 48.484375 17.84375 46.4375 
Q 14.5 44.390625 14.5 40.28125 
Q 14.5 37.15625 16.890625 35.375 
Q 19.28125 33.59375 26.515625 31.984375 
L 29.59375 31.296875 
Q 39.15625 29.25 43.1875 25.515625 
Q 47.21875 21.78125 47.21875 15.09375 
Q 47.21875 7.46875 41.1875 3.015625 
Q 35.15625 -1.421875 24.609375 -1.421875 
Q 20.21875 -1.421875 15.453125 -0.5625 
Q 10.6875 0.296875 5.421875 2 
L 5.421875 11.28125 
Q 10.40625 8.6875 15.234375 7.390625 
Q 20.0625 6.109375 24.8125 6.109375 
Q 31.15625 6.109375 34.5625 8.28125 
Q 37.984375 10.453125 37.984375 14.40625 
Q 37.984375 18.0625 35.515625 20.015625 
Q 33.0625 21.96875 24.703125 23.78125 
L 21.578125 24.515625 
Q 13.234375 26.265625 9.515625 29.90625 
Q 5.8125 33.546875 5.8125 39.890625 
Q 5.8125 47.609375 11.28125 51.796875 
Q 16.75 56 26.8125 56 
Q 31.78125 56 36.171875 55.265625 
Q 40.578125 54.546875 44.28125 53.078125 
z
" id="DejaVuSans-73"/>
    </defs>
    <g transform="translate(170.668063 17.36505)scale(0.12 -0.12)">
     <use xlink:href="#DejaVuSans-4d"/>
     <use x="86.279297" xlink:href="#DejaVuSans-65"/>
     <use x="147.802734" xlink:href="#DejaVuSans-61"/>
     <use x="209.082031" xlink:href="#DejaVuSans-6e"/>
     <use x="272.460938" xlink:href="#DejaVuSans-20"/>
     <use x="304.248047" xlink:href="#DejaVuSans-68"/>
     <use x="367.626953" xlink:href="#DejaVuSans-6f"/>
     <use x="428.808594" xlink:href="#DejaVuSans-75"/>
     <use x="492.1875" xlink:href="#DejaVuSans-72"/>
     <use x="533.300781" xlink:href="#DejaVuSans-6c"/>
     <use x="561.083984" xlink:href="#DejaVuSans-79"/>
     <use x="620.263672" xlink:href="#DejaVuSans-20"/>
     <use x="652.050781" xlink:href="#DejaVuSans-65"/>
     <use x="713.574219" xlink:href="#DejaVuSans-6d"/>
     <use x="810.986328" xlink:href="#DejaVuSans-69"/>
     <use x="838.769531" xlink:href="#DejaVuSans-73"/>
     <use x="890.869141" xlink:href="#DejaVuSans-73"/>
     <use x="942.96875" xlink:href="#DejaVuSans-69"/>
     <use x="970.751953" xlink:href="#DejaVuSans-6f"/>
     <use x="1031.933594" xlink:href="#DejaVuSans-6e"/>
     <use x="1095.3125" xlink:href="#DejaVuSans-73"/>
    </g>
   </g>
   <g id="legend_1">
    <g id="patch_7">
     <path d="M 362.58 46.043175 
L 440.48 46.043175 
Q 442.48 46.043175 442.48 44.043175 
L 442.48 30.36505 
Q 442.48 28.36505 440.48 28.36505 
L 362.58 28.36505 
Q 360.58 28.36505 360.58 30.36505 
L 360.58 44.043175 
Q 360.58 46.043175 362.58 46.043175 
z
" style="fill:#ffffff;opacity:0.8;stroke:#cccccc;stroke-linejoin:miter;"/>
    </g>
    <g id="line2d_26">
     <path d="M 364.58 36.463488 
L 384.58 36.463488 
" style="fill:none;stroke:#008000;stroke-linecap:square;stroke-width:1.5;"/>
    </g>
    <g id="line2d_27"/>
    <g id="text_5">
     <!-- SO2 (lbs) -->
     <defs>
      <path d="M 53.515625 70.515625 
L 53.515625 60.890625 
Q 47.90625 63.578125 42.921875 64.890625 
Q 37.9375 66.21875 33.296875 66.21875 
Q 25.25 66.21875 20.875 63.09375 
Q 16.5 59.96875 16.5 54.203125 
Q 16.5 49.359375 19.40625 46.890625 
Q 22.3125 44.4375 30.421875 42.921875 
L 36.375 41.703125 
Q 47.40625 39.59375 52.65625 34.296875 
Q 57.90625 29 57.90625 20.125 
Q 57.90625 9.515625 50.796875 4.046875 
Q 43.703125 -1.421875 29.984375 -1.421875 
Q 24.8125 -1.421875 18.96875 -0.25 
Q 13.140625 0.921875 6.890625 3.21875 
L 6.890625 13.375 
Q 12.890625 10.015625 18.65625 8.296875 
Q 24.421875 6.59375 29.984375 6.59375 
Q 38.421875 6.59375 43.015625 9.90625 
Q 47.609375 13.234375 47.609375 19.390625 
Q 47.609375 24.75 44.3125 27.78125 
Q 41.015625 30.8125 33.5 32.328125 
L 27.484375 33.5 
Q 16.453125 35.6875 11.515625 40.375 
Q 6.59375 45.0625 6.59375 53.421875 
Q 6.59375 63.09375 13.40625 68.65625 
Q 20.21875 74.21875 32.171875 74.21875 
Q 37.3125 74.21875 42.625 73.28125 
Q 47.953125 72.359375 53.515625 70.515625 
z
" id="DejaVuSans-53"/>
      <path d="M 39.40625 66.21875 
Q 28.65625 66.21875 22.328125 58.203125 
Q 16.015625 50.203125 16.015625 36.375 
Q 16.015625 22.609375 22.328125 14.59375 
Q 28.65625 6.59375 39.40625 6.59375 
Q 50.140625 6.59375 56.421875 14.59375 
Q 62.703125 22.609375 62.703125 36.375 
Q 62.703125 50.203125 56.421875 58.203125 
Q 50.140625 66.21875 39.40625 66.21875 
z
M 39.40625 74.21875 
Q 54.734375 74.21875 63.90625 63.9375 
Q 73.09375 53.65625 73.09375 36.375 
Q 73.09375 19.140625 63.90625 8.859375 
Q 54.734375 -1.421875 39.40625 -1.421875 
Q 24.03125 -1.421875 14.8125 8.828125 
Q 5.609375 19.09375 5.609375 36.375 
Q 5.609375 53.65625 14.8125 63.9375 
Q 24.03125 74.21875 39.40625 74.21875 
z
" id="DejaVuSans-4f"/>
      <path d="M 31 75.875 
Q 24.46875 64.65625 21.28125 53.65625 
Q 18.109375 42.671875 18.109375 31.390625 
Q 18.109375 20.125 21.3125 9.0625 
Q 24.515625 -2 31 -13.1875 
L 23.1875 -13.1875 
Q 15.875 -1.703125 12.234375 9.375 
Q 8.59375 20.453125 8.59375 31.390625 
Q 8.59375 42.28125 12.203125 53.3125 
Q 15.828125 64.359375 23.1875 75.875 
z
" id="DejaVuSans-28"/>
      <path d="M 48.6875 27.296875 
Q 48.6875 37.203125 44.609375 42.84375 
Q 40.53125 48.484375 33.40625 48.484375 
Q 26.265625 48.484375 22.1875 42.84375 
Q 18.109375 37.203125 18.109375 27.296875 
Q 18.109375 17.390625 22.1875 11.75 
Q 26.265625 6.109375 33.40625 6.109375 
Q 40.53125 6.109375 44.609375 11.75 
Q 48.6875 17.390625 48.6875 27.296875 
z
M 18.109375 46.390625 
Q 20.953125 51.265625 25.265625 53.625 
Q 29.59375 56 35.59375 56 
Q 45.5625 56 51.78125 48.09375 
Q 58.015625 40.1875 58.015625 27.296875 
Q 58.015625 14.40625 51.78125 6.484375 
Q 45.5625 -1.421875 35.59375 -1.421875 
Q 29.59375 -1.421875 25.265625 0.953125 
Q 20.953125 3.328125 18.109375 8.203125 
L 18.109375 0 
L 9.078125 0 
L 9.078125 75.984375 
L 18.109375 75.984375 
z
" id="DejaVuSans-62"/>
      <path d="M 8.015625 75.875 
L 15.828125 75.875 
Q 23.140625 64.359375 26.78125 53.3125 
Q 30.421875 42.28125 30.421875 31.390625 
Q 30.421875 20.453125 26.78125 9.375 
Q 23.140625 -1.703125 15.828125 -13.1875 
L 8.015625 -13.1875 
Q 14.5 -2 17.703125 9.0625 
Q 20.90625 20.125 20.90625 31.390625 
Q 20.90625 42.671875 17.703125 53.65625 
Q 14.5 64.65625 8.015625 75.875 
z
" id="DejaVuSans-29"/>
     </defs>
     <g transform="translate(392.58 39.963488)scale(0.1 -0.1)">
      <use xlink:href="#DejaVuSans-53"/>
      <use x="63.476562" xlink:href="#DejaVuSans-4f"/>
      <use x="142.1875" xlink:href="#DejaVuSans-32"/>
      <use x="205.810547" xlink:href="#DejaVuSans-20"/>
      <use x="237.597656" xlink:href="#DejaVuSans-28"/>
      <use x="276.611328" xlink:href="#DejaVuSans-6c"/>
      <use x="304.394531" xlink:href="#DejaVuSans-62"/>
      <use x="367.871094" xlink:href="#DejaVuSans-73"/>
      <use x="419.970703" xlink:href="#DejaVuSans-29"/>
     </g>
    </g>
   </g>
  </g>
  <g id="axes_2">
   <g id="patch_8">
    <path d="M 31.543 208.940019 
L 447.48 208.940019 
L 447.48 124.288531 
L 31.543 124.288531 
z
" style="fill:none;"/>
   </g>
   <g id="matplotlib.axis_3">
    <g id="xtick_10">
     <g id="line2d_28">
      <path clip-path="url(#p6bf27080c3)" d="M 31.543 208.940019 
L 31.543 124.288531 
" style="fill:none;stroke:#b0b0b0;stroke-linecap:square;stroke-width:0.8;"/>
     </g>
     <g id="line2d_29">
      <g>
       <use style="stroke:#000000;stroke-width:0.8;" x="31.543" xlink:href="#mfa9a547afd" y="208.940019"/>
      </g>
     </g>
    </g>
    <g id="xtick_11">
     <g id="line2d_30">
      <path clip-path="url(#p6bf27080c3)" d="M 79.984929 208.940019 
L 79.984929 124.288531 
" style="fill:none;stroke:#b0b0b0;stroke-linecap:square;stroke-width:0.8;"/>
     </g>
     <g id="line2d_31">
      <g>
       <use style="stroke:#000000;stroke-width:0.8;" x="79.984929" xlink:href="#mfa9a547afd" y="208.940019"/>
      </g>
     </g>
    </g>
    <g id="xtick_12">
     <g id="line2d_32">
      <path clip-path="url(#p6bf27080c3)" d="M 128.493216 208.940019 
L 128.493216 124.288531 
" style="fill:none;stroke:#b0b0b0;stroke-linecap:square;stroke-width:0.8;"/>
     </g>
     <g id="line2d_33">
      <g>
       <use style="stroke:#000000;stroke-width:0.8;" x="128.493216" xlink:href="#mfa9a547afd" y="208.940019"/>
      </g>
     </g>
    </g>
    <g id="xtick_13">
     <g id="line2d_34">
      <path clip-path="url(#p6bf27080c3)" d="M 176.935145 208.940019 
L 176.935145 124.288531 
" style="fill:none;stroke:#b0b0b0;stroke-linecap:square;stroke-width:0.8;"/>
     </g>
     <g id="line2d_35">
      <g>
       <use style="stroke:#000000;stroke-width:0.8;" x="176.935145" xlink:href="#mfa9a547afd" y="208.940019"/>
      </g>
     </g>
    </g>
    <g id="xtick_14">
     <g id="line2d_36">
      <path clip-path="url(#p6bf27080c3)" d="M 225.443433 208.940019 
L 225.443433 124.288531 
" style="fill:none;stroke:#b0b0b0;stroke-linecap:square;stroke-width:0.8;"/>
     </g>
     <g id="line2d_37">
      <g>
       <use style="stroke:#000000;stroke-width:0.8;" x="225.443433" xlink:href="#mfa9a547afd" y="208.940019"/>
      </g>
     </g>
    </g>
    <g id="xtick_15">
     <g id="line2d_38">
      <path clip-path="url(#p6bf27080c3)" d="M 273.885362 208.940019 
L 273.885362 124.288531 
" style="fill:none;stroke:#b0b0b0;stroke-linecap:square;stroke-width:0.8;"/>
     </g>
     <g id="line2d_39">
      <g>
       <use style="stroke:#000000;stroke-width:0.8;" x="273.885362" xlink:href="#mfa9a547afd" y="208.940019"/>
      </g>
     </g>
    </g>
    <g id="xtick_16">
     <g id="line2d_40">
      <path clip-path="url(#p6bf27080c3)" d="M 322.393649 208.940019 
L 322.393649 124.288531 
" style="fill:none;stroke:#b0b0b0;stroke-linecap:square;stroke-width:0.8;"/>
     </g>
     <g id="line2d_41">
      <g>
       <use style="stroke:#000000;stroke-width:0.8;" x="322.393649" xlink:href="#mfa9a547afd" y="208.940019"/>
      </g>
     </g>
    </g>
    <g id="xtick_17">
     <g id="line2d_42">
      <path clip-path="url(#p6bf27080c3)" d="M 370.835578 208.940019 
L 370.835578 124.288531 
" style="fill:none;stroke:#b0b0b0;stroke-linecap:square;stroke-width:0.8;"/>
     </g>
     <g id="line2d_43">
      <g>
       <use style="stroke:#000000;stroke-width:0.8;" x="370.835578" xlink:href="#mfa9a547afd" y="208.940019"/>
      </g>
     </g>
    </g>
    <g id="xtick_18">
     <g id="line2d_44">
      <path clip-path="url(#p6bf27080c3)" d="M 419.343866 208.940019 
L 419.343866 124.288531 
" style="fill:none;stroke:#b0b0b0;stroke-linecap:square;stroke-width:0.8;"/>
     </g>
     <g id="line2d_45">
      <g>
       <use style="stroke:#000000;stroke-width:0.8;" x="419.343866" xlink:href="#mfa9a547afd" y="208.940019"/>
      </g>
     </g>
    </g>
   </g>
   <g id="matplotlib.axis_4">
    <g id="ytick_4">
     <g id="line2d_46">
      <path clip-path="url(#p6bf27080c3)" d="M 31.543 206.014755 
L 447.48 206.014755 
" style="fill:none;stroke:#b0b0b0;stroke-linecap:square;stroke-width:0.8;"/>
     </g>
     <g id="line2d_47">
      <g>
       <use style="stroke:#000000;stroke-width:0.8;" x="31.543" xlink:href="#md4c7b37116" y="206.014755"/>
      </g>
     </g>
     <g id="text_6">
      <!-- 0 -->
      <g transform="translate(18.1805 209.813973)scale(0.1 -0.1)">
       <use xlink:href="#DejaVuSans-30"/>
      </g>
     </g>
    </g>
    <g id="ytick_5">
     <g id="line2d_48">
      <path clip-path="url(#p6bf27080c3)" d="M 31.543 170.937542 
L 447.48 170.937542 
" style="fill:none;stroke:#b0b0b0;stroke-linecap:square;stroke-width:0.8;"/>
     </g>
     <g id="line2d_49">
      <g>
       <use style="stroke:#000000;stroke-width:0.8;" x="31.543" xlink:href="#md4c7b37116" y="170.937542"/>
      </g>
     </g>
     <g id="text_7">
      <!-- 100 -->
      <defs>
       <path d="M 12.40625 8.296875 
L 28.515625 8.296875 
L 28.515625 63.921875 
L 10.984375 60.40625 
L 10.984375 69.390625 
L 28.421875 72.90625 
L 38.28125 72.90625 
L 38.28125 8.296875 
L 54.390625 8.296875 
L 54.390625 0 
L 12.40625 0 
z
" id="DejaVuSans-31"/>
      </defs>
      <g transform="translate(5.4555 174.73676)scale(0.1 -0.1)">
       <use xlink:href="#DejaVuSans-31"/>
       <use x="63.623047" xlink:href="#DejaVuSans-30"/>
       <use x="127.246094" xlink:href="#DejaVuSans-30"/>
      </g>
     </g>
    </g>
    <g id="ytick_6">
     <g id="line2d_50">
      <path clip-path="url(#p6bf27080c3)" d="M 31.543 135.860328 
L 447.48 135.860328 
" style="fill:none;stroke:#b0b0b0;stroke-linecap:square;stroke-width:0.8;"/>
     </g>
     <g id="line2d_51">
      <g>
       <use style="stroke:#000000;stroke-width:0.8;" x="31.543" xlink:href="#md4c7b37116" y="135.860328"/>
      </g>
     </g>
     <g id="text_8">
      <!-- 200 -->
      <g transform="translate(5.4555 139.659547)scale(0.1 -0.1)">
       <use xlink:href="#DejaVuSans-32"/>
       <use x="63.623047" xlink:href="#DejaVuSans-30"/>
       <use x="127.246094" xlink:href="#DejaVuSans-30"/>
      </g>
     </g>
    </g>
   </g>
   <g id="line2d_52">
    <path clip-path="url(#p6bf27080c3)" d="M 31.543 181.085379 
L 33.600123 159.965389 
L 35.45817 128.136326 
L 37.515293 162.2419 
L 39.506057 157.180259 
L 41.56318 177.482949 
L 43.553944 187.167768 
L 45.611067 188.970737 
L 47.66819 193.986778 
L 49.658954 196.021257 
L 51.716077 199.855196 
L 53.706841 193.313296 
L 55.763964 203.296271 
L 57.821087 191.163063 
L 59.679134 188.644519 
L 61.736257 201.759889 
L 63.727021 203.057746 
L 65.784144 188.977752 
L 67.774908 168.889032 
L 69.832031 171.123451 
L 71.889154 169.366082 
L 73.879919 190.833337 
L 75.937042 196.179104 
L 77.927806 186.974843 
L 79.984929 201.212684 
L 82.042052 199.167683 
L 83.900098 188.034175 
L 85.957221 201.647642 
L 87.947986 202.349186 
L 90.005109 201.559949 
L 91.995873 185.48757 
L 94.052996 189.524957 
L 96.110119 196.484276 
L 98.100883 197.792656 
L 100.158006 201.289854 
L 102.14877 201.777427 
L 104.205893 203.55935 
L 106.263016 200.525171 
L 108.187422 200.139321 
L 110.244545 200.055136 
L 112.235309 195.421436 
L 114.292432 200.223507 
L 116.283196 186.13299 
L 118.340319 201.005729 
L 120.397442 200.47957 
L 122.388206 200.346277 
L 124.445329 201.423147 
L 126.436093 201.738842 
L 128.493216 196.372029 
L 130.55034 196.887664 
L 132.408386 196.007226 
L 134.465509 197.978565 
L 136.456273 201.300377 
L 138.513396 200.100736 
L 140.50416 196.158058 
L 142.561284 194.421736 
L 144.618407 198.504723 
L 146.609171 203.278732 
L 148.666294 203.057746 
L 150.657058 198.995804 
L 152.714181 201.296869 
L 154.771304 199.858704 
L 156.629351 200.041105 
L 158.686474 201.117976 
L 160.677238 198.922142 
L 162.734361 198.574878 
L 164.725125 195.305681 
L 166.782248 196.210674 
L 168.839371 197.280529 
L 170.830135 198.904604 
L 172.887258 203.566365 
L 176.935145 196.691231 
L 178.992268 202.885867 
L 180.850315 203.32784 
L 182.907438 202.352694 
L 184.898202 198.529277 
L 186.955325 197.361206 
L 188.946089 193.218587 
L 191.003212 194.355089 
L 193.060335 196.147535 
L 197.108223 200.854897 
L 199.098987 199.444793 
L 201.15611 197.066558 
L 203.213233 197.589208 
L 205.137638 197.624285 
L 207.194761 196.361506 
L 209.185525 198.399492 
L 211.242648 197.796164 
L 213.233413 195.705562 
L 215.290536 194.909309 
L 217.347659 196.024764 
L 219.338423 198.666078 
L 223.38631 203.064761 
L 225.443433 201.672196 
L 227.500556 201.598533 
L 229.358603 200.041105 
L 231.415726 198.743248 
L 233.40649 197.673393 
L 235.463613 198.083797 
L 237.454377 194.530475 
L 239.5115 195.7231 
L 241.568623 195.028571 
L 243.559387 198.360907 
L 245.61651 201.426655 
L 247.607274 197.5857 
L 249.664397 198.623986 
L 253.579567 199.034389 
L 257.627454 198.466138 
L 259.684577 199.069466 
L 261.675341 198.111858 
L 263.732464 197.420837 
L 265.789587 198.834449 
L 267.780352 198.01715 
L 269.837475 198.462631 
L 271.828239 198.245152 
L 273.885362 198.932665 
L 275.942485 202.622788 
L 277.800531 197.655855 
L 279.857654 197.03148 
L 281.848419 199.87975 
L 283.905542 201.38807 
L 285.896306 196.78594 
L 287.953429 197.238436 
L 290.010552 196.256274 
L 292.001316 197.936472 
L 294.058439 197.143727 
L 296.049203 198.020658 
L 298.106326 203.538303 
L 300.163449 202.871836 
L 302.087855 204.650251 
L 304.144978 203.976769 
L 306.135742 202.598234 
L 308.192865 200.854897 
L 310.183629 196.891171 
L 312.240752 194.821616 
L 314.297875 195.372328 
L 316.288639 198.557339 
L 318.345762 203.924153 
L 320.336526 198.799372 
L 322.393649 197.382252 
L 324.450772 192.331134 
L 326.308819 197.438376 
L 328.365942 195.817809 
L 330.356706 198.164474 
L 332.413829 197.23142 
L 334.404593 198.283737 
L 338.51884 197.5401 
L 340.509604 199.946397 
L 342.566727 201.689734 
L 344.557491 204.103046 
L 346.614614 203.818921 
L 348.671737 196.782432 
L 350.529784 200.858404 
L 352.586907 198.231121 
L 354.577671 198.273214 
L 356.634794 199.087005 
L 358.625558 197.003419 
L 360.682681 197.038496 
L 362.739804 196.270305 
L 364.730568 201.226715 
L 366.787691 201.731827 
L 368.778455 199.543009 
L 370.835578 199.553532 
L 372.892701 201.14253 
L 376.807871 198.69414 
L 378.798635 202.243954 
L 380.855758 200.072675 
L 382.846522 197.796164 
L 384.903645 196.691231 
L 386.960768 197.582193 
L 388.951533 200.977667 
L 391.008656 205.092224 
L 392.99942 200.353292 
L 395.056543 197.438376 
L 397.113666 196.649139 
L 399.038071 199.760488 
L 401.095194 200.963636 
L 403.085958 200.914528 
L 405.143081 199.262391 
L 407.133846 197.136712 
L 409.190969 195.586299 
L 411.248092 195.509129 
L 413.238856 198.5398 
L 415.295979 201.047821 
L 417.286743 204.327541 
L 419.343866 199.60264 
L 421.400989 198.574878 
L 423.259036 201.286346 
L 425.316159 198.33986 
L 427.306923 199.528978 
L 429.364046 199.637717 
L 431.35481 198.827434 
L 433.411933 197.827733 
L 435.469056 198.901096 
L 437.45982 203.145439 
L 439.516943 204.295971 
L 441.507707 203.506734 
L 443.56483 199.939381 
L 445.621953 200.065659 
L 447.48 198.438077 
L 447.48 198.438077 
" style="fill:none;stroke:#f97306;stroke-linecap:square;stroke-width:1.5;"/>
   </g>
   <g id="patch_9">
    <path d="M 31.543 208.940019 
L 31.543 124.288531 
" style="fill:none;stroke:#000000;stroke-linecap:square;stroke-linejoin:miter;stroke-width:0.8;"/>
   </g>
   <g id="patch_10">
    <path d="M 447.48 208.940019 
L 447.48 124.288531 
" style="fill:none;stroke:#000000;stroke-linecap:square;stroke-linejoin:miter;stroke-width:0.8;"/>
   </g>
   <g id="patch_11">
    <path d="M 31.543 208.940019 
L 447.48 208.940019 
" style="fill:none;stroke:#000000;stroke-linecap:square;stroke-linejoin:miter;stroke-width:0.8;"/>
   </g>
   <g id="patch_12">
    <path d="M 31.543 124.288531 
L 447.48 124.288531 
" style="fill:none;stroke:#000000;stroke-linecap:square;stroke-linejoin:miter;stroke-width:0.8;"/>
   </g>
   <g id="legend_2">
    <g id="patch_13">
     <path d="M 361.890938 146.966656 
L 440.48 146.966656 
Q 442.48 146.966656 442.48 144.966656 
L 442.48 131.288531 
Q 442.48 129.288531 440.48 129.288531 
L 361.890938 129.288531 
Q 359.890938 129.288531 359.890938 131.288531 
L 359.890938 144.966656 
Q 359.890938 146.966656 361.890938 146.966656 
z
" style="fill:#ffffff;opacity:0.8;stroke:#cccccc;stroke-linejoin:miter;"/>
    </g>
    <g id="line2d_53">
     <path d="M 363.890938 137.386969 
L 383.890938 137.386969 
" style="fill:none;stroke:#f97306;stroke-linecap:square;stroke-width:1.5;"/>
    </g>
    <g id="line2d_54"/>
    <g id="text_9">
     <!-- NOx (lbs) -->
     <defs>
      <path d="M 9.8125 72.90625 
L 23.09375 72.90625 
L 55.421875 11.921875 
L 55.421875 72.90625 
L 64.984375 72.90625 
L 64.984375 0 
L 51.703125 0 
L 19.390625 60.984375 
L 19.390625 0 
L 9.8125 0 
z
" id="DejaVuSans-4e"/>
      <path d="M 54.890625 54.6875 
L 35.109375 28.078125 
L 55.90625 0 
L 45.3125 0 
L 29.390625 21.484375 
L 13.484375 0 
L 2.875 0 
L 24.125 28.609375 
L 4.6875 54.6875 
L 15.28125 54.6875 
L 29.78125 35.203125 
L 44.28125 54.6875 
z
" id="DejaVuSans-78"/>
     </defs>
     <g transform="translate(391.890938 140.886969)scale(0.1 -0.1)">
      <use xlink:href="#DejaVuSans-4e"/>
      <use x="74.804688" xlink:href="#DejaVuSans-4f"/>
      <use x="153.515625" xlink:href="#DejaVuSans-78"/>
      <use x="212.695312" xlink:href="#DejaVuSans-20"/>
      <use x="244.482422" xlink:href="#DejaVuSans-28"/>
      <use x="283.496094" xlink:href="#DejaVuSans-6c"/>
      <use x="311.279297" xlink:href="#DejaVuSans-62"/>
      <use x="374.755859" xlink:href="#DejaVuSans-73"/>
      <use x="426.855469" xlink:href="#DejaVuSans-29"/>
     </g>
    </g>
   </g>
  </g>
  <g id="axes_3">
   <g id="patch_14">
    <path d="M 31.543 309.8635 
L 447.48 309.8635 
L 447.48 225.212012 
L 31.543 225.212012 
z
" style="fill:none;"/>
   </g>
   <g id="matplotlib.axis_5">
    <g id="xtick_19">
     <g id="line2d_55">
      <path clip-path="url(#pa1e58e537a)" d="M 31.543 309.8635 
L 31.543 225.212012 
" style="fill:none;stroke:#b0b0b0;stroke-linecap:square;stroke-width:0.8;"/>
     </g>
     <g id="line2d_56">
      <g>
       <use style="stroke:#000000;stroke-width:0.8;" x="31.543" xlink:href="#mfa9a547afd" y="309.8635"/>
      </g>
     </g>
     <g id="text_10">
      <!-- 2001 -->
      <g transform="translate(18.818 324.461938)scale(0.1 -0.1)">
       <use xlink:href="#DejaVuSans-32"/>
       <use x="63.623047" xlink:href="#DejaVuSans-30"/>
       <use x="127.246094" xlink:href="#DejaVuSans-30"/>
       <use x="190.869141" xlink:href="#DejaVuSans-31"/>
      </g>
     </g>
    </g>
    <g id="xtick_20">
     <g id="line2d_57">
      <path clip-path="url(#pa1e58e537a)" d="M 79.984929 309.8635 
L 79.984929 225.212012 
" style="fill:none;stroke:#b0b0b0;stroke-linecap:square;stroke-width:0.8;"/>
     </g>
     <g id="line2d_58">
      <g>
       <use style="stroke:#000000;stroke-width:0.8;" x="79.984929" xlink:href="#mfa9a547afd" y="309.8635"/>
      </g>
     </g>
     <g id="text_11">
      <!-- 2003 -->
      <defs>
       <path d="M 40.578125 39.3125 
Q 47.65625 37.796875 51.625 33 
Q 55.609375 28.21875 55.609375 21.1875 
Q 55.609375 10.40625 48.1875 4.484375 
Q 40.765625 -1.421875 27.09375 -1.421875 
Q 22.515625 -1.421875 17.65625 -0.515625 
Q 12.796875 0.390625 7.625 2.203125 
L 7.625 11.71875 
Q 11.71875 9.328125 16.59375 8.109375 
Q 21.484375 6.890625 26.8125 6.890625 
Q 36.078125 6.890625 40.9375 10.546875 
Q 45.796875 14.203125 45.796875 21.1875 
Q 45.796875 27.640625 41.28125 31.265625 
Q 36.765625 34.90625 28.71875 34.90625 
L 20.21875 34.90625 
L 20.21875 43.015625 
L 29.109375 43.015625 
Q 36.375 43.015625 40.234375 45.921875 
Q 44.09375 48.828125 44.09375 54.296875 
Q 44.09375 59.90625 40.109375 62.90625 
Q 36.140625 65.921875 28.71875 65.921875 
Q 24.65625 65.921875 20.015625 65.03125 
Q 15.375 64.15625 9.8125 62.3125 
L 9.8125 71.09375 
Q 15.4375 72.65625 20.34375 73.4375 
Q 25.25 74.21875 29.59375 74.21875 
Q 40.828125 74.21875 47.359375 69.109375 
Q 53.90625 64.015625 53.90625 55.328125 
Q 53.90625 49.265625 50.4375 45.09375 
Q 46.96875 40.921875 40.578125 39.3125 
z
" id="DejaVuSans-33"/>
      </defs>
      <g transform="translate(67.259929 324.461938)scale(0.1 -0.1)">
       <use xlink:href="#DejaVuSans-32"/>
       <use x="63.623047" xlink:href="#DejaVuSans-30"/>
       <use x="127.246094" xlink:href="#DejaVuSans-30"/>
       <use x="190.869141" xlink:href="#DejaVuSans-33"/>
      </g>
     </g>
    </g>
    <g id="xtick_21">
     <g id="line2d_59">
      <path clip-path="url(#pa1e58e537a)" d="M 128.493216 309.8635 
L 128.493216 225.212012 
" style="fill:none;stroke:#b0b0b0;stroke-linecap:square;stroke-width:0.8;"/>
     </g>
     <g id="line2d_60">
      <g>
       <use style="stroke:#000000;stroke-width:0.8;" x="128.493216" xlink:href="#mfa9a547afd" y="309.8635"/>
      </g>
     </g>
     <g id="text_12">
      <!-- 2005 -->
      <defs>
       <path d="M 10.796875 72.90625 
L 49.515625 72.90625 
L 49.515625 64.59375 
L 19.828125 64.59375 
L 19.828125 46.734375 
Q 21.96875 47.46875 24.109375 47.828125 
Q 26.265625 48.1875 28.421875 48.1875 
Q 40.625 48.1875 47.75 41.5 
Q 54.890625 34.8125 54.890625 23.390625 
Q 54.890625 11.625 47.5625 5.09375 
Q 40.234375 -1.421875 26.90625 -1.421875 
Q 22.3125 -1.421875 17.546875 -0.640625 
Q 12.796875 0.140625 7.71875 1.703125 
L 7.71875 11.625 
Q 12.109375 9.234375 16.796875 8.0625 
Q 21.484375 6.890625 26.703125 6.890625 
Q 35.15625 6.890625 40.078125 11.328125 
Q 45.015625 15.765625 45.015625 23.390625 
Q 45.015625 31 40.078125 35.4375 
Q 35.15625 39.890625 26.703125 39.890625 
Q 22.75 39.890625 18.8125 39.015625 
Q 14.890625 38.140625 10.796875 36.28125 
z
" id="DejaVuSans-35"/>
      </defs>
      <g transform="translate(115.768216 324.461938)scale(0.1 -0.1)">
       <use xlink:href="#DejaVuSans-32"/>
       <use x="63.623047" xlink:href="#DejaVuSans-30"/>
       <use x="127.246094" xlink:href="#DejaVuSans-30"/>
       <use x="190.869141" xlink:href="#DejaVuSans-35"/>
      </g>
     </g>
    </g>
    <g id="xtick_22">
     <g id="line2d_61">
      <path clip-path="url(#pa1e58e537a)" d="M 176.935145 309.8635 
L 176.935145 225.212012 
" style="fill:none;stroke:#b0b0b0;stroke-linecap:square;stroke-width:0.8;"/>
     </g>
     <g id="line2d_62">
      <g>
       <use style="stroke:#000000;stroke-width:0.8;" x="176.935145" xlink:href="#mfa9a547afd" y="309.8635"/>
      </g>
     </g>
     <g id="text_13">
      <!-- 2007 -->
      <defs>
       <path d="M 8.203125 72.90625 
L 55.078125 72.90625 
L 55.078125 68.703125 
L 28.609375 0 
L 18.3125 0 
L 43.21875 64.59375 
L 8.203125 64.59375 
z
" id="DejaVuSans-37"/>
      </defs>
      <g transform="translate(164.210145 324.461938)scale(0.1 -0.1)">
       <use xlink:href="#DejaVuSans-32"/>
       <use x="63.623047" xlink:href="#DejaVuSans-30"/>
       <use x="127.246094" xlink:href="#DejaVuSans-30"/>
       <use x="190.869141" xlink:href="#DejaVuSans-37"/>
      </g>
     </g>
    </g>
    <g id="xtick_23">
     <g id="line2d_63">
      <path clip-path="url(#pa1e58e537a)" d="M 225.443433 309.8635 
L 225.443433 225.212012 
" style="fill:none;stroke:#b0b0b0;stroke-linecap:square;stroke-width:0.8;"/>
     </g>
     <g id="line2d_64">
      <g>
       <use style="stroke:#000000;stroke-width:0.8;" x="225.443433" xlink:href="#mfa9a547afd" y="309.8635"/>
      </g>
     </g>
     <g id="text_14">
      <!-- 2009 -->
      <defs>
       <path d="M 10.984375 1.515625 
L 10.984375 10.5 
Q 14.703125 8.734375 18.5 7.8125 
Q 22.3125 6.890625 25.984375 6.890625 
Q 35.75 6.890625 40.890625 13.453125 
Q 46.046875 20.015625 46.78125 33.40625 
Q 43.953125 29.203125 39.59375 26.953125 
Q 35.25 24.703125 29.984375 24.703125 
Q 19.046875 24.703125 12.671875 31.3125 
Q 6.296875 37.9375 6.296875 49.421875 
Q 6.296875 60.640625 12.9375 67.421875 
Q 19.578125 74.21875 30.609375 74.21875 
Q 43.265625 74.21875 49.921875 64.515625 
Q 56.59375 54.828125 56.59375 36.375 
Q 56.59375 19.140625 48.40625 8.859375 
Q 40.234375 -1.421875 26.421875 -1.421875 
Q 22.703125 -1.421875 18.890625 -0.6875 
Q 15.09375 0.046875 10.984375 1.515625 
z
M 30.609375 32.421875 
Q 37.25 32.421875 41.125 36.953125 
Q 45.015625 41.5 45.015625 49.421875 
Q 45.015625 57.28125 41.125 61.84375 
Q 37.25 66.40625 30.609375 66.40625 
Q 23.96875 66.40625 20.09375 61.84375 
Q 16.21875 57.28125 16.21875 49.421875 
Q 16.21875 41.5 20.09375 36.953125 
Q 23.96875 32.421875 30.609375 32.421875 
z
" id="DejaVuSans-39"/>
      </defs>
      <g transform="translate(212.718433 324.461938)scale(0.1 -0.1)">
       <use xlink:href="#DejaVuSans-32"/>
       <use x="63.623047" xlink:href="#DejaVuSans-30"/>
       <use x="127.246094" xlink:href="#DejaVuSans-30"/>
       <use x="190.869141" xlink:href="#DejaVuSans-39"/>
      </g>
     </g>
    </g>
    <g id="xtick_24">
     <g id="line2d_65">
      <path clip-path="url(#pa1e58e537a)" d="M 273.885362 309.8635 
L 273.885362 225.212012 
" style="fill:none;stroke:#b0b0b0;stroke-linecap:square;stroke-width:0.8;"/>
     </g>
     <g id="line2d_66">
      <g>
       <use style="stroke:#000000;stroke-width:0.8;" x="273.885362" xlink:href="#mfa9a547afd" y="309.8635"/>
      </g>
     </g>
     <g id="text_15">
      <!-- 2011 -->
      <g transform="translate(261.160362 324.461938)scale(0.1 -0.1)">
       <use xlink:href="#DejaVuSans-32"/>
       <use x="63.623047" xlink:href="#DejaVuSans-30"/>
       <use x="127.246094" xlink:href="#DejaVuSans-31"/>
       <use x="190.869141" xlink:href="#DejaVuSans-31"/>
      </g>
     </g>
    </g>
    <g id="xtick_25">
     <g id="line2d_67">
      <path clip-path="url(#pa1e58e537a)" d="M 322.393649 309.8635 
L 322.393649 225.212012 
" style="fill:none;stroke:#b0b0b0;stroke-linecap:square;stroke-width:0.8;"/>
     </g>
     <g id="line2d_68">
      <g>
       <use style="stroke:#000000;stroke-width:0.8;" x="322.393649" xlink:href="#mfa9a547afd" y="309.8635"/>
      </g>
     </g>
     <g id="text_16">
      <!-- 2013 -->
      <g transform="translate(309.668649 324.461938)scale(0.1 -0.1)">
       <use xlink:href="#DejaVuSans-32"/>
       <use x="63.623047" xlink:href="#DejaVuSans-30"/>
       <use x="127.246094" xlink:href="#DejaVuSans-31"/>
       <use x="190.869141" xlink:href="#DejaVuSans-33"/>
      </g>
     </g>
    </g>
    <g id="xtick_26">
     <g id="line2d_69">
      <path clip-path="url(#pa1e58e537a)" d="M 370.835578 309.8635 
L 370.835578 225.212012 
" style="fill:none;stroke:#b0b0b0;stroke-linecap:square;stroke-width:0.8;"/>
     </g>
     <g id="line2d_70">
      <g>
       <use style="stroke:#000000;stroke-width:0.8;" x="370.835578" xlink:href="#mfa9a547afd" y="309.8635"/>
      </g>
     </g>
     <g id="text_17">
      <!-- 2015 -->
      <g transform="translate(358.110578 324.461938)scale(0.1 -0.1)">
       <use xlink:href="#DejaVuSans-32"/>
       <use x="63.623047" xlink:href="#DejaVuSans-30"/>
       <use x="127.246094" xlink:href="#DejaVuSans-31"/>
       <use x="190.869141" xlink:href="#DejaVuSans-35"/>
      </g>
     </g>
    </g>
    <g id="xtick_27">
     <g id="line2d_71">
      <path clip-path="url(#pa1e58e537a)" d="M 419.343866 309.8635 
L 419.343866 225.212012 
" style="fill:none;stroke:#b0b0b0;stroke-linecap:square;stroke-width:0.8;"/>
     </g>
     <g id="line2d_72">
      <g>
       <use style="stroke:#000000;stroke-width:0.8;" x="419.343866" xlink:href="#mfa9a547afd" y="309.8635"/>
      </g>
     </g>
     <g id="text_18">
      <!-- 2017 -->
      <g transform="translate(406.618866 324.461938)scale(0.1 -0.1)">
       <use xlink:href="#DejaVuSans-32"/>
       <use x="63.623047" xlink:href="#DejaVuSans-30"/>
       <use x="127.246094" xlink:href="#DejaVuSans-31"/>
       <use x="190.869141" xlink:href="#DejaVuSans-37"/>
      </g>
     </g>
    </g>
    <g id="text_19">
     <!-- Date -->
     <defs>
      <path d="M 19.671875 64.796875 
L 19.671875 8.109375 
L 31.59375 8.109375 
Q 46.6875 8.109375 53.6875 14.9375 
Q 60.6875 21.78125 60.6875 36.53125 
Q 60.6875 51.171875 53.6875 57.984375 
Q 46.6875 64.796875 31.59375 64.796875 
z
M 9.8125 72.90625 
L 30.078125 72.90625 
Q 51.265625 72.90625 61.171875 64.09375 
Q 71.09375 55.28125 71.09375 36.53125 
Q 71.09375 17.671875 61.125 8.828125 
Q 51.171875 0 30.078125 0 
L 9.8125 0 
z
" id="DejaVuSans-44"/>
      <path d="M 18.3125 70.21875 
L 18.3125 54.6875 
L 36.8125 54.6875 
L 36.8125 47.703125 
L 18.3125 47.703125 
L 18.3125 18.015625 
Q 18.3125 11.328125 20.140625 9.421875 
Q 21.96875 7.515625 27.59375 7.515625 
L 36.8125 7.515625 
L 36.8125 0 
L 27.59375 0 
Q 17.1875 0 13.234375 3.875 
Q 9.28125 7.765625 9.28125 18.015625 
L 9.28125 47.703125 
L 2.6875 47.703125 
L 2.6875 54.6875 
L 9.28125 54.6875 
L 9.28125 70.21875 
z
" id="DejaVuSans-74"/>
     </defs>
     <g transform="translate(227.560719 338.140062)scale(0.1 -0.1)">
      <use xlink:href="#DejaVuSans-44"/>
      <use x="77.001953" xlink:href="#DejaVuSans-61"/>
      <use x="138.28125" xlink:href="#DejaVuSans-74"/>
      <use x="177.490234" xlink:href="#DejaVuSans-65"/>
     </g>
    </g>
   </g>
   <g id="matplotlib.axis_6">
    <g id="ytick_7">
     <g id="line2d_73">
      <path clip-path="url(#pa1e58e537a)" d="M 31.543 308.453959 
L 447.48 308.453959 
" style="fill:none;stroke:#b0b0b0;stroke-linecap:square;stroke-width:0.8;"/>
     </g>
     <g id="line2d_74">
      <g>
       <use style="stroke:#000000;stroke-width:0.8;" x="31.543" xlink:href="#md4c7b37116" y="308.453959"/>
      </g>
     </g>
     <g id="text_20">
      <!-- 0 -->
      <g transform="translate(18.1805 312.253178)scale(0.1 -0.1)">
       <use xlink:href="#DejaVuSans-30"/>
      </g>
     </g>
    </g>
    <g id="ytick_8">
     <g id="line2d_75">
      <path clip-path="url(#pa1e58e537a)" d="M 31.543 271.426559 
L 447.48 271.426559 
" style="fill:none;stroke:#b0b0b0;stroke-linecap:square;stroke-width:0.8;"/>
     </g>
     <g id="line2d_76">
      <g>
       <use style="stroke:#000000;stroke-width:0.8;" x="31.543" xlink:href="#md4c7b37116" y="271.426559"/>
      </g>
     </g>
     <g id="text_21">
      <!-- 200 -->
      <g transform="translate(5.4555 275.225778)scale(0.1 -0.1)">
       <use xlink:href="#DejaVuSans-32"/>
       <use x="63.623047" xlink:href="#DejaVuSans-30"/>
       <use x="127.246094" xlink:href="#DejaVuSans-30"/>
      </g>
     </g>
    </g>
    <g id="ytick_9">
     <g id="line2d_77">
      <path clip-path="url(#pa1e58e537a)" d="M 31.543 234.399158 
L 447.48 234.399158 
" style="fill:none;stroke:#b0b0b0;stroke-linecap:square;stroke-width:0.8;"/>
     </g>
     <g id="line2d_78">
      <g>
       <use style="stroke:#000000;stroke-width:0.8;" x="31.543" xlink:href="#md4c7b37116" y="234.399158"/>
      </g>
     </g>
     <g id="text_22">
      <!-- 400 -->
      <g transform="translate(5.4555 238.198377)scale(0.1 -0.1)">
       <use xlink:href="#DejaVuSans-34"/>
       <use x="63.623047" xlink:href="#DejaVuSans-30"/>
       <use x="127.246094" xlink:href="#DejaVuSans-30"/>
      </g>
     </g>
    </g>
   </g>
   <g id="line2d_79">
    <path clip-path="url(#pa1e58e537a)" d="M 31.543 260.958913 
L 33.600123 244.896427 
L 35.45817 236.624505 
L 37.515293 263.160192 
L 39.506057 252.266731 
L 41.56318 265.228172 
L 43.553944 273.872219 
L 45.611067 257.73938 
L 47.66819 272.948385 
L 49.658954 281.857178 
L 51.716077 292.043416 
L 53.706841 291.545397 
L 55.763964 301.659431 
L 57.821087 284.188053 
L 59.679134 265.450337 
L 61.736257 295.048189 
L 63.727021 300.026523 
L 65.784144 286.120883 
L 67.774908 257.854165 
L 69.832031 260.853385 
L 71.889154 237.890842 
L 73.879919 271.867185 
L 75.937042 281.827556 
L 77.927806 286.950297 
L 79.984929 280.937047 
L 82.042052 276.702964 
L 83.900098 275.438478 
L 85.957221 283.245705 
L 87.947986 288.388811 
L 90.005109 287.8334 
L 91.995873 244.676113 
L 94.052996 247.503156 
L 96.110119 264.556125 
L 98.100883 279.65775 
L 100.158006 284.802707 
L 102.14877 293.231995 
L 104.205893 294.028084 
L 106.263016 278.15814 
L 108.187422 282.906904 
L 110.244545 289.196008 
L 112.235309 283.647452 
L 114.292432 281.407295 
L 116.283196 275.919834 
L 118.340319 278.424738 
L 120.397442 276.947344 
L 122.388206 280.46865 
L 124.445329 280.433474 
L 126.436093 285.643229 
L 128.493216 272.689193 
L 130.55034 263.828536 
L 132.408386 253.120212 
L 134.465509 262.963947 
L 136.456273 284.26581 
L 138.513396 277.158401 
L 140.50416 250.174682 
L 142.561284 238.561038 
L 144.618407 269.965828 
L 146.609171 290.2661 
L 148.666294 289.612567 
L 150.657058 273.574148 
L 152.714181 287.172461 
L 154.771304 281.161063 
L 156.629351 279.235638 
L 160.677238 274.231385 
L 162.734361 269.632581 
L 164.725125 239.701482 
L 166.782248 251.776118 
L 168.839371 259.814766 
L 170.830135 270.493468 
L 172.887258 292.626597 
L 174.878022 277.315767 
L 176.935145 280.811154 
L 178.992268 288.988655 
L 180.850315 290.554914 
L 182.907438 280.039132 
L 184.898202 266.744444 
L 186.955325 259.512993 
L 188.946089 229.059807 
L 191.003212 238.977597 
L 193.060335 247.406884 
L 195.0511 263.410127 
L 197.108223 273.777799 
L 199.098987 272.089349 
L 201.15611 258.281832 
L 203.213233 258.115208 
L 205.137638 258.205926 
L 207.194761 246.516375 
L 209.185525 262.756593 
L 211.242648 259.126057 
L 213.233413 246.440469 
L 215.290536 238.979448 
L 217.347659 242.830298 
L 219.338423 264.191405 
L 221.395546 271.609845 
L 223.38631 277.260226 
L 225.443433 283.999213 
L 227.500556 281.834961 
L 229.358603 273.398268 
L 231.415726 267.142489 
L 233.40649 256.865534 
L 235.463613 266.688903 
L 237.454377 240.262447 
L 239.5115 250.048789 
L 241.568623 237.807531 
L 243.559387 266.501915 
L 245.61651 282.070085 
L 247.607274 262.912108 
L 249.664397 266.898108 
L 251.72152 266.994379 
L 253.579567 268.969791 
L 255.63669 269.178996 
L 257.627454 264.095134 
L 259.684577 268.140377 
L 261.675341 258.183709 
L 263.732464 251.507669 
L 265.789587 267.135083 
L 267.780352 264.348771 
L 269.837475 267.288747 
L 271.828239 264.289528 
L 273.885362 271.028514 
L 275.942485 284.151025 
L 277.800531 266.255682 
L 279.857654 267.281341 
L 281.848419 283.253111 
L 283.905542 289.349672 
L 285.896306 267.262828 
L 287.953429 265.618811 
L 290.010552 264.948615 
L 292.001316 280.900019 
L 294.058439 273.82038 
L 296.049203 272.028254 
L 298.106326 286.622604 
L 300.163449 281.520228 
L 302.087855 295.324043 
L 304.144978 286.411548 
L 306.135742 276.501164 
L 308.192865 277.930422 
L 312.240752 236.92813 
L 314.297875 246.262738 
L 316.288639 264.287676 
L 318.345762 288.557286 
L 320.336526 271.487654 
L 322.393649 266.126087 
L 324.450772 260.296122 
L 326.308819 271.295112 
L 328.365942 257.335782 
L 330.356706 272.878033 
L 332.413829 268.623585 
L 334.404593 272.526273 
L 336.461716 270.499023 
L 338.51884 269.967679 
L 340.509604 278.896837 
L 342.566727 285.446984 
L 344.557491 297.442011 
L 346.614614 299.056405 
L 348.671737 267.453519 
L 350.529784 284.741612 
L 352.586907 273.379754 
L 354.577671 275.431072 
L 356.634794 277.843407 
L 358.625558 268.701342 
L 360.682681 272.696599 
L 362.739804 265.828016 
L 364.730568 285.391443 
L 366.787691 288.777599 
L 368.778455 279.106042 
L 370.835578 278.702443 
L 372.892701 288.109254 
L 374.750748 281.201793 
L 376.807871 275.771724 
L 378.798635 294.031787 
L 380.855758 286.868836 
L 382.846522 267.273936 
L 384.903645 262.586267 
L 386.960768 263.561939 
L 388.951533 280.766721 
L 391.008656 306.015705 
L 392.99942 284.81937 
L 395.056543 270.924838 
L 397.113666 266.420454 
L 399.038071 276.145701 
L 401.095194 285.95426 
L 403.085958 286.032017 
L 405.143081 275.658791 
L 407.133846 263.613777 
L 409.190969 264.848641 
L 411.248092 262.214142 
L 413.238856 271.015555 
L 415.295979 281.794231 
L 417.286743 297.388321 
L 419.343866 278.924608 
L 421.400989 273.448255 
L 423.259036 289.370037 
L 425.316159 273.653757 
L 427.306923 279.90028 
L 429.364046 280.489015 
L 431.35481 272.294851 
L 433.411933 265.683609 
L 435.469056 273.492688 
L 437.45982 294.161383 
L 439.516943 301.794581 
L 441.507707 297.069885 
L 443.56483 281.288807 
L 445.621953 283.558587 
L 447.48 273.48158 
L 447.48 273.48158 
" style="fill:none;stroke:#4682b4;stroke-linecap:square;stroke-width:1.5;"/>
   </g>
   <g id="patch_15">
    <path d="M 31.543 309.8635 
L 31.543 225.212012 
" style="fill:none;stroke:#000000;stroke-linecap:square;stroke-linejoin:miter;stroke-width:0.8;"/>
   </g>
   <g id="patch_16">
    <path d="M 447.48 309.8635 
L 447.48 225.212012 
" style="fill:none;stroke:#000000;stroke-linecap:square;stroke-linejoin:miter;stroke-width:0.8;"/>
   </g>
   <g id="patch_17">
    <path d="M 31.543 309.8635 
L 447.48 309.8635 
" style="fill:none;stroke:#000000;stroke-linecap:square;stroke-linejoin:miter;stroke-width:0.8;"/>
   </g>
   <g id="patch_18">
    <path d="M 31.543 225.212012 
L 447.48 225.212012 
" style="fill:none;stroke:#000000;stroke-linecap:square;stroke-linejoin:miter;stroke-width:0.8;"/>
   </g>
   <g id="legend_3">
    <g id="patch_19">
     <path d="M 354.695625 247.890137 
L 440.48 247.890137 
Q 442.48 247.890137 442.48 245.890137 
L 442.48 232.212012 
Q 442.48 230.212012 440.48 230.212012 
L 354.695625 230.212012 
Q 352.695625 230.212012 352.695625 232.212012 
L 352.695625 245.890137 
Q 352.695625 247.890137 354.695625 247.890137 
z
" style="fill:#ffffff;opacity:0.8;stroke:#cccccc;stroke-linejoin:miter;"/>
    </g>
    <g id="line2d_80">
     <path d="M 356.695625 238.31045 
L 376.695625 238.31045 
" style="fill:none;stroke:#4682b4;stroke-linecap:square;stroke-width:1.5;"/>
    </g>
    <g id="line2d_81"/>
    <g id="text_23">
     <!-- CO2 (tons) -->
     <defs>
      <path d="M 64.40625 67.28125 
L 64.40625 56.890625 
Q 59.421875 61.53125 53.78125 63.8125 
Q 48.140625 66.109375 41.796875 66.109375 
Q 29.296875 66.109375 22.65625 58.46875 
Q 16.015625 50.828125 16.015625 36.375 
Q 16.015625 21.96875 22.65625 14.328125 
Q 29.296875 6.6875 41.796875 6.6875 
Q 48.140625 6.6875 53.78125 8.984375 
Q 59.421875 11.28125 64.40625 15.921875 
L 64.40625 5.609375 
Q 59.234375 2.09375 53.4375 0.328125 
Q 47.65625 -1.421875 41.21875 -1.421875 
Q 24.65625 -1.421875 15.125 8.703125 
Q 5.609375 18.84375 5.609375 36.375 
Q 5.609375 53.953125 15.125 64.078125 
Q 24.65625 74.21875 41.21875 74.21875 
Q 47.75 74.21875 53.53125 72.484375 
Q 59.328125 70.75 64.40625 67.28125 
z
" id="DejaVuSans-43"/>
     </defs>
     <g transform="translate(384.695625 241.81045)scale(0.1 -0.1)">
      <use xlink:href="#DejaVuSans-43"/>
      <use x="69.824219" xlink:href="#DejaVuSans-4f"/>
      <use x="148.535156" xlink:href="#DejaVuSans-32"/>
      <use x="212.158203" xlink:href="#DejaVuSans-20"/>
      <use x="243.945312" xlink:href="#DejaVuSans-28"/>
      <use x="282.958984" xlink:href="#DejaVuSans-74"/>
      <use x="322.167969" xlink:href="#DejaVuSans-6f"/>
      <use x="383.349609" xlink:href="#DejaVuSans-6e"/>
      <use x="446.728516" xlink:href="#DejaVuSans-73"/>
      <use x="498.828125" xlink:href="#DejaVuSans-29"/>
     </g>
    </g>
   </g>
  </g>
 </g>
 <defs>
  <clipPath id="p584911c76a">
   <rect height="84.651488" width="415.937" x="31.543" y="23.36505"/>
  </clipPath>
  <clipPath id="p6bf27080c3">
   <rect height="84.651488" width="415.937" x="31.543" y="124.288531"/>
  </clipPath>
  <clipPath id="pa1e58e537a">
   <rect height="84.651488" width="415.937" x="31.543" y="225.212012"/>
  </clipPath>
 </defs>
</svg>
