<?xml version="1.0" encoding="utf-8" standalone="no"?>
<!DOCTYPE svg PUBLIC "-//W3C//DTD SVG 1.1//EN"
  "http://www.w3.org/Graphics/SVG/1.1/DTD/svg11.dtd">
<!-- Created with matplotlib (http://matplotlib.org/) -->
<svg height="345.6pt" version="1.1" viewBox="0 0 460.8 345.6" width="460.8pt" xmlns="http://www.w3.org/2000/svg" xmlns:xlink="http://www.w3.org/1999/xlink">
 <defs>
  <style type="text/css">
*{stroke-linecap:butt;stroke-linejoin:round;}
  </style>
 </defs>
 <g id="figure_1">
  <g id="patch_1">
   <path d="M 0 345.6 
L 460.8 345.6 
L 460.8 0 
L 0 0 
z
" style="fill:none;"/>
  </g>
  <g id="axes_1">
   <g id="patch_2">
    <path d="M 36.124 108.304533 
L 447.48 108.304533 
L 447.48 23.36505 
L 36.124 23.36505 
z
" style="fill:none;"/>
   </g>
   <g id="matplotlib.axis_1">
    <g id="xtick_1">
     <g id="line2d_1">
      <path clip-path="url(#p4dbf9ba3bd)" d="M 58.429643 108.304533 
L 58.429643 23.36505 
" style="fill:none;stroke:#b0b0b0;stroke-linecap:square;stroke-width:0.8;"/>
     </g>
     <g id="line2d_2">
      <defs>
       <path d="M 0 0 
L 0 3.5 
" id="mb8fa5af129" style="stroke:#000000;stroke-width:0.8;"/>
      </defs>
      <g>
       <use style="stroke:#000000;stroke-width:0.8;" x="58.429643" xlink:href="#mb8fa5af129" y="108.304533"/>
      </g>
     </g>
    </g>
    <g id="xtick_2">
     <g id="line2d_3">
      <path clip-path="url(#p4dbf9ba3bd)" d="M 107.035968 108.304533 
L 107.035968 23.36505 
" style="fill:none;stroke:#b0b0b0;stroke-linecap:square;stroke-width:0.8;"/>
     </g>
     <g id="line2d_4">
      <g>
       <use style="stroke:#000000;stroke-width:0.8;" x="107.035968" xlink:href="#mb8fa5af129" y="108.304533"/>
      </g>
     </g>
    </g>
    <g id="xtick_3">
     <g id="line2d_5">
      <path clip-path="url(#p4dbf9ba3bd)" d="M 155.708878 108.304533 
L 155.708878 23.36505 
" style="fill:none;stroke:#b0b0b0;stroke-linecap:square;stroke-width:0.8;"/>
     </g>
     <g id="line2d_6">
      <g>
       <use style="stroke:#000000;stroke-width:0.8;" x="155.708878" xlink:href="#mb8fa5af129" y="108.304533"/>
      </g>
     </g>
    </g>
    <g id="xtick_4">
     <g id="line2d_7">
      <path clip-path="url(#p4dbf9ba3bd)" d="M 204.315204 108.304533 
L 204.315204 23.36505 
" style="fill:none;stroke:#b0b0b0;stroke-linecap:square;stroke-width:0.8;"/>
     </g>
     <g id="line2d_8">
      <g>
       <use style="stroke:#000000;stroke-width:0.8;" x="204.315204" xlink:href="#mb8fa5af129" y="108.304533"/>
      </g>
     </g>
    </g>
    <g id="xtick_5">
     <g id="line2d_9">
      <path clip-path="url(#p4dbf9ba3bd)" d="M 252.988113 108.304533 
L 252.988113 23.36505 
" style="fill:none;stroke:#b0b0b0;stroke-linecap:square;stroke-width:0.8;"/>
     </g>
     <g id="line2d_10">
      <g>
       <use style="stroke:#000000;stroke-width:0.8;" x="252.988113" xlink:href="#mb8fa5af129" y="108.304533"/>
      </g>
     </g>
    </g>
    <g id="xtick_6">
     <g id="line2d_11">
      <path clip-path="url(#p4dbf9ba3bd)" d="M 301.594439 108.304533 
L 301.594439 23.36505 
" style="fill:none;stroke:#b0b0b0;stroke-linecap:square;stroke-width:0.8;"/>
     </g>
     <g id="line2d_12">
      <g>
       <use style="stroke:#000000;stroke-width:0.8;" x="301.594439" xlink:href="#mb8fa5af129" y="108.304533"/>
      </g>
     </g>
    </g>
    <g id="xtick_7">
     <g id="line2d_13">
      <path clip-path="url(#p4dbf9ba3bd)" d="M 350.267349 108.304533 
L 350.267349 23.36505 
" style="fill:none;stroke:#b0b0b0;stroke-linecap:square;stroke-width:0.8;"/>
     </g>
     <g id="line2d_14">
      <g>
       <use style="stroke:#000000;stroke-width:0.8;" x="350.267349" xlink:href="#mb8fa5af129" y="108.304533"/>
      </g>
     </g>
    </g>
    <g id="xtick_8">
     <g id="line2d_15">
      <path clip-path="url(#p4dbf9ba3bd)" d="M 398.873674 108.304533 
L 398.873674 23.36505 
" style="fill:none;stroke:#b0b0b0;stroke-linecap:square;stroke-width:0.8;"/>
     </g>
     <g id="line2d_16">
      <g>
       <use style="stroke:#000000;stroke-width:0.8;" x="398.873674" xlink:href="#mb8fa5af129" y="108.304533"/>
      </g>
     </g>
    </g>
   </g>
   <g id="matplotlib.axis_2">
    <g id="ytick_1">
     <g id="line2d_17">
      <path clip-path="url(#p4dbf9ba3bd)" d="M 36.124 104.443648 
L 447.48 104.443648 
" style="fill:none;stroke:#b0b0b0;stroke-linecap:square;stroke-width:0.8;"/>
     </g>
     <g id="line2d_18">
      <defs>
       <path d="M 0 0 
L -3.5 0 
" id="m8012e5a341" style="stroke:#000000;stroke-width:0.8;"/>
      </defs>
      <g>
       <use style="stroke:#000000;stroke-width:0.8;" x="36.124" xlink:href="#m8012e5a341" y="104.443648"/>
      </g>
     </g>
     <g id="text_1">
      <!-- 0 -->
      <defs>
       <path d="M 31.78125 66.40625 
Q 24.171875 66.40625 20.328125 58.90625 
Q 16.5 51.421875 16.5 36.375 
Q 16.5 21.390625 20.328125 13.890625 
Q 24.171875 6.390625 31.78125 6.390625 
Q 39.453125 6.390625 43.28125 13.890625 
Q 47.125 21.390625 47.125 36.375 
Q 47.125 51.421875 43.28125 58.90625 
Q 39.453125 66.40625 31.78125 66.40625 
z
M 31.78125 74.21875 
Q 44.046875 74.21875 50.515625 64.515625 
Q 56.984375 54.828125 56.984375 36.375 
Q 56.984375 17.96875 50.515625 8.265625 
Q 44.046875 -1.421875 31.78125 -1.421875 
Q 19.53125 -1.421875 13.0625 8.265625 
Q 6.59375 17.96875 6.59375 36.375 
Q 6.59375 54.828125 13.0625 64.515625 
Q 19.53125 74.21875 31.78125 74.21875 
z
" id="DejaVuSans-30"/>
      </defs>
      <g transform="translate(22.7615 108.242866)scale(0.1 -0.1)">
       <use xlink:href="#DejaVuSans-30"/>
      </g>
     </g>
    </g>
    <g id="ytick_2">
     <g id="line2d_19">
      <path clip-path="url(#p4dbf9ba3bd)" d="M 36.124 79.729424 
L 447.48 79.729424 
" style="fill:none;stroke:#b0b0b0;stroke-linecap:square;stroke-width:0.8;"/>
     </g>
     <g id="line2d_20">
      <g>
       <use style="stroke:#000000;stroke-width:0.8;" x="36.124" xlink:href="#m8012e5a341" y="79.729424"/>
      </g>
     </g>
     <g id="text_2">
      <!-- 500 -->
      <defs>
       <path d="M 10.796875 72.90625 
L 49.515625 72.90625 
L 49.515625 64.59375 
L 19.828125 64.59375 
L 19.828125 46.734375 
Q 21.96875 47.46875 24.109375 47.828125 
Q 26.265625 48.1875 28.421875 48.1875 
Q 40.625 48.1875 47.75 41.5 
Q 54.890625 34.8125 54.890625 23.390625 
Q 54.890625 11.625 47.5625 5.09375 
Q 40.234375 -1.421875 26.90625 -1.421875 
Q 22.3125 -1.421875 17.546875 -0.640625 
Q 12.796875 0.140625 7.71875 1.703125 
L 7.71875 11.625 
Q 12.109375 9.234375 16.796875 8.0625 
Q 21.484375 6.890625 26.703125 6.890625 
Q 35.15625 6.890625 40.078125 11.328125 
Q 45.015625 15.765625 45.015625 23.390625 
Q 45.015625 31 40.078125 35.4375 
Q 35.15625 39.890625 26.703125 39.890625 
Q 22.75 39.890625 18.8125 39.015625 
Q 14.890625 38.140625 10.796875 36.28125 
z
" id="DejaVuSans-35"/>
      </defs>
      <g transform="translate(10.0365 83.528643)scale(0.1 -0.1)">
       <use xlink:href="#DejaVuSans-35"/>
       <use x="63.623047" xlink:href="#DejaVuSans-30"/>
       <use x="127.246094" xlink:href="#DejaVuSans-30"/>
      </g>
     </g>
    </g>
    <g id="ytick_3">
     <g id="line2d_21">
      <path clip-path="url(#p4dbf9ba3bd)" d="M 36.124 55.0152 
L 447.48 55.0152 
" style="fill:none;stroke:#b0b0b0;stroke-linecap:square;stroke-width:0.8;"/>
     </g>
     <g id="line2d_22">
      <g>
       <use style="stroke:#000000;stroke-width:0.8;" x="36.124" xlink:href="#m8012e5a341" y="55.0152"/>
      </g>
     </g>
     <g id="text_3">
      <!-- 1000 -->
      <defs>
       <path d="M 12.40625 8.296875 
L 28.515625 8.296875 
L 28.515625 63.921875 
L 10.984375 60.40625 
L 10.984375 69.390625 
L 28.421875 72.90625 
L 38.28125 72.90625 
L 38.28125 8.296875 
L 54.390625 8.296875 
L 54.390625 0 
L 12.40625 0 
z
" id="DejaVuSans-31"/>
      </defs>
      <g transform="translate(3.674 58.814419)scale(0.1 -0.1)">
       <use xlink:href="#DejaVuSans-31"/>
       <use x="63.623047" xlink:href="#DejaVuSans-30"/>
       <use x="127.246094" xlink:href="#DejaVuSans-30"/>
       <use x="190.869141" xlink:href="#DejaVuSans-30"/>
      </g>
     </g>
    </g>
    <g id="ytick_4">
     <g id="line2d_23">
      <path clip-path="url(#p4dbf9ba3bd)" d="M 36.124 30.300976 
L 447.48 30.300976 
" style="fill:none;stroke:#b0b0b0;stroke-linecap:square;stroke-width:0.8;"/>
     </g>
     <g id="line2d_24">
      <g>
       <use style="stroke:#000000;stroke-width:0.8;" x="36.124" xlink:href="#m8012e5a341" y="30.300976"/>
      </g>
     </g>
     <g id="text_4">
      <!-- 1500 -->
      <g transform="translate(3.674 34.100195)scale(0.1 -0.1)">
       <use xlink:href="#DejaVuSans-31"/>
       <use x="63.623047" xlink:href="#DejaVuSans-35"/>
       <use x="127.246094" xlink:href="#DejaVuSans-30"/>
       <use x="190.869141" xlink:href="#DejaVuSans-30"/>
      </g>
     </g>
    </g>
   </g>
   <g id="line2d_25">
    <path clip-path="url(#p4dbf9ba3bd)" d="M 36.124 54.066499 
L 37.988352 45.48644 
L 40.052456 67.576688 
L 42.049977 46.60162 
L 44.114081 37.437228 
L 46.111601 43.654202 
L 48.175705 38.788279 
L 50.23981 52.986353 
L 52.23733 40.313182 
L 54.301434 49.121496 
L 56.298954 45.451915 
L 58.363059 47.472669 
L 60.427163 47.568638 
L 62.291515 38.522824 
L 64.355619 102.446427 
L 66.35314 93.109278 
L 68.417244 27.225936 
L 70.414764 36.415695 
L 72.478868 42.982237 
L 74.542972 79.058471 
L 76.540493 77.555403 
L 78.604597 62.975625 
L 80.602117 79.605902 
L 82.666221 52.144869 
L 84.730326 94.203811 
L 86.594678 94.520741 
L 88.658782 97.366809 
L 90.656302 99.645845 
L 92.720407 96.93068 
L 94.717927 99.879116 
L 96.782031 96.233749 
L 98.846135 96.998548 
L 100.843656 98.577713 
L 102.90776 98.610982 
L 104.90528 98.029682 
L 106.969384 96.81167 
L 109.033489 96.209201 
L 110.964425 95.316259 
L 113.028529 94.778984 
L 115.026049 94.708942 
L 117.090153 92.949162 
L 119.087674 91.593583 
L 121.151778 93.900467 
L 123.215882 91.692231 
L 125.213402 93.487455 
L 127.277507 104.17072 
L 129.275027 96.640315 
L 131.339131 96.205593 
L 133.403235 94.323714 
L 135.267588 93.388549 
L 137.331692 95.90586 
L 139.329212 95.442316 
L 141.393316 94.497377 
L 143.390837 94.81213 
L 145.454941 96.376254 
L 147.519045 94.384288 
L 149.516565 94.741976 
L 151.580669 92.47819 
L 153.57819 95.423107 
L 155.642294 92.532433 
L 157.706398 92.759779 
L 159.57075 94.958273 
L 161.634855 97.016233 
L 163.632375 94.11642 
L 165.696479 95.742878 
L 167.693999 95.941502 
L 169.758104 97.20028 
L 171.822208 92.351723 
L 173.819728 97.400771 
L 175.883832 104.443508 
L 177.881353 96.050689 
L 179.945457 93.929179 
L 182.009561 95.078227 
L 183.873913 93.108432 
L 187.935538 97.433988 
L 189.999642 98.90681 
L 191.997162 94.678207 
L 194.061266 95.336157 
L 196.125371 93.768272 
L 198.122891 96.81506 
L 200.186995 93.793928 
L 202.184515 95.488332 
L 204.24862 96.77644 
L 206.312724 93.942777 
L 208.24366 95.956812 
L 210.307764 93.979718 
L 212.305285 96.872877 
L 214.369389 97.467101 
L 216.366909 93.925892 
L 218.431013 94.239311 
L 220.495118 95.002137 
L 222.492638 96.001967 
L 224.556742 104.443648 
L 226.554262 99.947953 
L 228.618366 91.735913 
L 230.682471 102.005856 
L 232.546823 104.443648 
L 234.610927 94.940582 
L 236.608447 89.253826 
L 238.672552 89.928267 
L 240.670072 89.630221 
L 242.734176 79.362863 
L 244.79828 79.818873 
L 246.795801 79.655611 
L 248.859905 65.626212 
L 250.857425 73.820491 
L 252.921529 66.065634 
L 254.985634 90.978096 
L 256.849986 93.832771 
L 258.91409 97.303399 
L 260.91161 104.443537 
L 262.975714 88.113352 
L 264.973235 94.563068 
L 267.037339 89.10706 
L 269.101443 91.282114 
L 271.098963 89.443909 
L 273.163068 91.909521 
L 275.160588 88.008956 
L 277.224692 80.844334 
L 279.288796 89.259401 
L 281.153149 95.727971 
L 283.217253 93.825133 
L 285.214773 88.296862 
L 287.278877 89.01052 
L 289.276398 89.497187 
L 291.340502 89.05426 
L 293.404606 89.971377 
L 295.402126 91.632375 
L 297.46623 99.224479 
L 299.463751 104.434975 
L 301.527855 95.917481 
L 303.591959 95.368003 
L 305.522895 97.284085 
L 307.587 98.543937 
L 309.58452 97.904518 
L 311.648624 96.22788 
L 313.646144 90.591744 
L 315.710249 91.897585 
L 317.774353 93.867083 
L 319.771873 102.308133 
L 321.835977 97.340742 
L 323.833498 96.031956 
L 325.897602 92.662503 
L 327.961706 92.834061 
L 329.826058 98.778869 
L 331.890163 104.443648 
L 333.887683 98.484813 
L 335.951787 95.749795 
L 337.949307 95.455749 
L 340.013411 87.927884 
L 342.077516 82.869635 
L 344.075036 84.193701 
L 346.13914 87.079656 
L 348.13666 92.312343 
L 350.200765 90.792301 
L 354.129221 93.842408 
L 356.193325 101.098851 
L 358.190846 96.773808 
L 360.25495 96.679078 
L 362.25247 96.040279 
L 364.316574 91.166177 
L 366.380679 91.577689 
L 368.378199 93.232043 
L 370.442303 98.078402 
L 372.439823 87.544896 
L 374.503927 94.272656 
L 376.568032 95.247684 
L 378.432384 97.754968 
L 380.496488 92.30899 
L 382.494008 103.344155 
L 384.558113 93.340415 
L 386.555633 92.475613 
L 388.619737 95.028875 
L 390.683841 93.050005 
L 392.681362 92.083886 
L 394.745466 93.384278 
L 396.742986 93.550203 
L 398.80709 93.509683 
L 400.871195 94.360402 
L 402.802131 93.771087 
L 404.866235 94.347761 
L 406.863755 92.460922 
L 408.92786 92.720263 
L 410.92538 91.765992 
L 412.989484 94.64044 
L 415.053588 93.607803 
L 417.051108 94.394042 
L 419.115213 102.538963 
L 421.112733 96.63698 
L 423.176837 94.221911 
L 425.240941 93.305425 
L 427.105294 94.005956 
L 429.169398 102.710922 
L 431.166918 104.443648 
L 447.48 104.443648 
L 447.48 104.443648 
" style="fill:none;stroke:#008000;stroke-linecap:square;stroke-width:1.5;"/>
   </g>
   <g id="patch_3">
    <path d="M 36.124 108.304533 
L 36.124 23.36505 
" style="fill:none;stroke:#000000;stroke-linecap:square;stroke-linejoin:miter;stroke-width:0.8;"/>
   </g>
   <g id="patch_4">
    <path d="M 447.48 108.304533 
L 447.48 23.36505 
" style="fill:none;stroke:#000000;stroke-linecap:square;stroke-linejoin:miter;stroke-width:0.8;"/>
   </g>
   <g id="patch_5">
    <path d="M 36.124 108.304533 
L 447.48 108.304533 
" style="fill:none;stroke:#000000;stroke-linecap:square;stroke-linejoin:miter;stroke-width:0.8;"/>
   </g>
   <g id="patch_6">
    <path d="M 36.124 23.36505 
L 447.48 23.36505 
" style="fill:none;stroke:#000000;stroke-linecap:square;stroke-linejoin:miter;stroke-width:0.8;"/>
   </g>
   <g id="text_5">
    <!-- Average monthly emissions -->
    <defs>
     <path d="M 34.1875 63.1875 
L 20.796875 26.90625 
L 47.609375 26.90625 
z
M 28.609375 72.90625 
L 39.796875 72.90625 
L 67.578125 0 
L 57.328125 0 
L 50.6875 18.703125 
L 17.828125 18.703125 
L 11.1875 0 
L 0.78125 0 
z
" id="DejaVuSans-41"/>
     <path d="M 2.984375 54.6875 
L 12.5 54.6875 
L 29.59375 8.796875 
L 46.6875 54.6875 
L 56.203125 54.6875 
L 35.6875 0 
L 23.484375 0 
z
" id="DejaVuSans-76"/>
     <path d="M 56.203125 29.59375 
L 56.203125 25.203125 
L 14.890625 25.203125 
Q 15.484375 15.921875 20.484375 11.0625 
Q 25.484375 6.203125 34.421875 6.203125 
Q 39.59375 6.203125 44.453125 7.46875 
Q 49.3125 8.734375 54.109375 11.28125 
L 54.109375 2.78125 
Q 49.265625 0.734375 44.1875 -0.34375 
Q 39.109375 -1.421875 33.890625 -1.421875 
Q 20.796875 -1.421875 13.15625 6.1875 
Q 5.515625 13.8125 5.515625 26.8125 
Q 5.515625 40.234375 12.765625 48.109375 
Q 20.015625 56 32.328125 56 
Q 43.359375 56 49.78125 48.890625 
Q 56.203125 41.796875 56.203125 29.59375 
z
M 47.21875 32.234375 
Q 47.125 39.59375 43.09375 43.984375 
Q 39.0625 48.390625 32.421875 48.390625 
Q 24.90625 48.390625 20.390625 44.140625 
Q 15.875 39.890625 15.1875 32.171875 
z
" id="DejaVuSans-65"/>
     <path d="M 41.109375 46.296875 
Q 39.59375 47.171875 37.8125 47.578125 
Q 36.03125 48 33.890625 48 
Q 26.265625 48 22.1875 43.046875 
Q 18.109375 38.09375 18.109375 28.8125 
L 18.109375 0 
L 9.078125 0 
L 9.078125 54.6875 
L 18.109375 54.6875 
L 18.109375 46.1875 
Q 20.953125 51.171875 25.484375 53.578125 
Q 30.03125 56 36.53125 56 
Q 37.453125 56 38.578125 55.875 
Q 39.703125 55.765625 41.0625 55.515625 
z
" id="DejaVuSans-72"/>
     <path d="M 34.28125 27.484375 
Q 23.390625 27.484375 19.1875 25 
Q 14.984375 22.515625 14.984375 16.5 
Q 14.984375 11.71875 18.140625 8.90625 
Q 21.296875 6.109375 26.703125 6.109375 
Q 34.1875 6.109375 38.703125 11.40625 
Q 43.21875 16.703125 43.21875 25.484375 
L 43.21875 27.484375 
z
M 52.203125 31.203125 
L 52.203125 0 
L 43.21875 0 
L 43.21875 8.296875 
Q 40.140625 3.328125 35.546875 0.953125 
Q 30.953125 -1.421875 24.3125 -1.421875 
Q 15.921875 -1.421875 10.953125 3.296875 
Q 6 8.015625 6 15.921875 
Q 6 25.140625 12.171875 29.828125 
Q 18.359375 34.515625 30.609375 34.515625 
L 43.21875 34.515625 
L 43.21875 35.40625 
Q 43.21875 41.609375 39.140625 45 
Q 35.0625 48.390625 27.6875 48.390625 
Q 23 48.390625 18.546875 47.265625 
Q 14.109375 46.140625 10.015625 43.890625 
L 10.015625 52.203125 
Q 14.9375 54.109375 19.578125 55.046875 
Q 24.21875 56 28.609375 56 
Q 40.484375 56 46.34375 49.84375 
Q 52.203125 43.703125 52.203125 31.203125 
z
" id="DejaVuSans-61"/>
     <path d="M 45.40625 27.984375 
Q 45.40625 37.75 41.375 43.109375 
Q 37.359375 48.484375 30.078125 48.484375 
Q 22.859375 48.484375 18.828125 43.109375 
Q 14.796875 37.75 14.796875 27.984375 
Q 14.796875 18.265625 18.828125 12.890625 
Q 22.859375 7.515625 30.078125 7.515625 
Q 37.359375 7.515625 41.375 12.890625 
Q 45.40625 18.265625 45.40625 27.984375 
z
M 54.390625 6.78125 
Q 54.390625 -7.171875 48.1875 -13.984375 
Q 42 -20.796875 29.203125 -20.796875 
Q 24.46875 -20.796875 20.265625 -20.09375 
Q 16.0625 -19.390625 12.109375 -17.921875 
L 12.109375 -9.1875 
Q 16.0625 -11.328125 19.921875 -12.34375 
Q 23.78125 -13.375 27.78125 -13.375 
Q 36.625 -13.375 41.015625 -8.765625 
Q 45.40625 -4.15625 45.40625 5.171875 
L 45.40625 9.625 
Q 42.625 4.78125 38.28125 2.390625 
Q 33.9375 0 27.875 0 
Q 17.828125 0 11.671875 7.65625 
Q 5.515625 15.328125 5.515625 27.984375 
Q 5.515625 40.671875 11.671875 48.328125 
Q 17.828125 56 27.875 56 
Q 33.9375 56 38.28125 53.609375 
Q 42.625 51.21875 45.40625 46.390625 
L 45.40625 54.6875 
L 54.390625 54.6875 
z
" id="DejaVuSans-67"/>
     <path id="DejaVuSans-20"/>
     <path d="M 52 44.1875 
Q 55.375 50.25 60.0625 53.125 
Q 64.75 56 71.09375 56 
Q 79.640625 56 84.28125 50.015625 
Q 88.921875 44.046875 88.921875 33.015625 
L 88.921875 0 
L 79.890625 0 
L 79.890625 32.71875 
Q 79.890625 40.578125 77.09375 44.375 
Q 74.3125 48.1875 68.609375 48.1875 
Q 61.625 48.1875 57.5625 43.546875 
Q 53.515625 38.921875 53.515625 30.90625 
L 53.515625 0 
L 44.484375 0 
L 44.484375 32.71875 
Q 44.484375 40.625 41.703125 44.40625 
Q 38.921875 48.1875 33.109375 48.1875 
Q 26.21875 48.1875 22.15625 43.53125 
Q 18.109375 38.875 18.109375 30.90625 
L 18.109375 0 
L 9.078125 0 
L 9.078125 54.6875 
L 18.109375 54.6875 
L 18.109375 46.1875 
Q 21.1875 51.21875 25.484375 53.609375 
Q 29.78125 56 35.6875 56 
Q 41.65625 56 45.828125 52.96875 
Q 50 49.953125 52 44.1875 
z
" id="DejaVuSans-6d"/>
     <path d="M 30.609375 48.390625 
Q 23.390625 48.390625 19.1875 42.75 
Q 14.984375 37.109375 14.984375 27.296875 
Q 14.984375 17.484375 19.15625 11.84375 
Q 23.34375 6.203125 30.609375 6.203125 
Q 37.796875 6.203125 41.984375 11.859375 
Q 46.1875 17.53125 46.1875 27.296875 
Q 46.1875 37.015625 41.984375 42.703125 
Q 37.796875 48.390625 30.609375 48.390625 
z
M 30.609375 56 
Q 42.328125 56 49.015625 48.375 
Q 55.71875 40.765625 55.71875 27.296875 
Q 55.71875 13.875 49.015625 6.21875 
Q 42.328125 -1.421875 30.609375 -1.421875 
Q 18.84375 -1.421875 12.171875 6.21875 
Q 5.515625 13.875 5.515625 27.296875 
Q 5.515625 40.765625 12.171875 48.375 
Q 18.84375 56 30.609375 56 
z
" id="DejaVuSans-6f"/>
     <path d="M 54.890625 33.015625 
L 54.890625 0 
L 45.90625 0 
L 45.90625 32.71875 
Q 45.90625 40.484375 42.875 44.328125 
Q 39.84375 48.1875 33.796875 48.1875 
Q 26.515625 48.1875 22.3125 43.546875 
Q 18.109375 38.921875 18.109375 30.90625 
L 18.109375 0 
L 9.078125 0 
L 9.078125 54.6875 
L 18.109375 54.6875 
L 18.109375 46.1875 
Q 21.34375 51.125 25.703125 53.5625 
Q 30.078125 56 35.796875 56 
Q 45.21875 56 50.046875 50.171875 
Q 54.890625 44.34375 54.890625 33.015625 
z
" id="DejaVuSans-6e"/>
     <path d="M 18.3125 70.21875 
L 18.3125 54.6875 
L 36.8125 54.6875 
L 36.8125 47.703125 
L 18.3125 47.703125 
L 18.3125 18.015625 
Q 18.3125 11.328125 20.140625 9.421875 
Q 21.96875 7.515625 27.59375 7.515625 
L 36.8125 7.515625 
L 36.8125 0 
L 27.59375 0 
Q 17.1875 0 13.234375 3.875 
Q 9.28125 7.765625 9.28125 18.015625 
L 9.28125 47.703125 
L 2.6875 47.703125 
L 2.6875 54.6875 
L 9.28125 54.6875 
L 9.28125 70.21875 
z
" id="DejaVuSans-74"/>
     <path d="M 54.890625 33.015625 
L 54.890625 0 
L 45.90625 0 
L 45.90625 32.71875 
Q 45.90625 40.484375 42.875 44.328125 
Q 39.84375 48.1875 33.796875 48.1875 
Q 26.515625 48.1875 22.3125 43.546875 
Q 18.109375 38.921875 18.109375 30.90625 
L 18.109375 0 
L 9.078125 0 
L 9.078125 75.984375 
L 18.109375 75.984375 
L 18.109375 46.1875 
Q 21.34375 51.125 25.703125 53.5625 
Q 30.078125 56 35.796875 56 
Q 45.21875 56 50.046875 50.171875 
Q 54.890625 44.34375 54.890625 33.015625 
z
" id="DejaVuSans-68"/>
     <path d="M 9.421875 75.984375 
L 18.40625 75.984375 
L 18.40625 0 
L 9.421875 0 
z
" id="DejaVuSans-6c"/>
     <path d="M 32.171875 -5.078125 
Q 28.375 -14.84375 24.75 -17.8125 
Q 21.140625 -20.796875 15.09375 -20.796875 
L 7.90625 -20.796875 
L 7.90625 -13.28125 
L 13.1875 -13.28125 
Q 16.890625 -13.28125 18.9375 -11.515625 
Q 21 -9.765625 23.484375 -3.21875 
L 25.09375 0.875 
L 2.984375 54.6875 
L 12.5 54.6875 
L 29.59375 11.921875 
L 46.6875 54.6875 
L 56.203125 54.6875 
z
" id="DejaVuSans-79"/>
     <path d="M 9.421875 54.6875 
L 18.40625 54.6875 
L 18.40625 0 
L 9.421875 0 
z
M 9.421875 75.984375 
L 18.40625 75.984375 
L 18.40625 64.59375 
L 9.421875 64.59375 
z
" id="DejaVuSans-69"/>
     <path d="M 44.28125 53.078125 
L 44.28125 44.578125 
Q 40.484375 46.53125 36.375 47.5 
Q 32.28125 48.484375 27.875 48.484375 
Q 21.1875 48.484375 17.84375 46.4375 
Q 14.5 44.390625 14.5 40.28125 
Q 14.5 37.15625 16.890625 35.375 
Q 19.28125 33.59375 26.515625 31.984375 
L 29.59375 31.296875 
Q 39.15625 29.25 43.1875 25.515625 
Q 47.21875 21.78125 47.21875 15.09375 
Q 47.21875 7.46875 41.1875 3.015625 
Q 35.15625 -1.421875 24.609375 -1.421875 
Q 20.21875 -1.421875 15.453125 -0.5625 
Q 10.6875 0.296875 5.421875 2 
L 5.421875 11.28125 
Q 10.40625 8.6875 15.234375 7.390625 
Q 20.0625 6.109375 24.8125 6.109375 
Q 31.15625 6.109375 34.5625 8.28125 
Q 37.984375 10.453125 37.984375 14.40625 
Q 37.984375 18.0625 35.515625 20.015625 
Q 33.0625 21.96875 24.703125 23.78125 
L 21.578125 24.515625 
Q 13.234375 26.265625 9.515625 29.90625 
Q 5.8125 33.546875 5.8125 39.890625 
Q 5.8125 47.609375 11.28125 51.796875 
Q 16.75 56 26.8125 56 
Q 31.78125 56 36.171875 55.265625 
Q 40.578125 54.546875 44.28125 53.078125 
z
" id="DejaVuSans-73"/>
    </defs>
    <g transform="translate(158.5895 17.36505)scale(0.12 -0.12)">
     <use xlink:href="#DejaVuSans-41"/>
     <use x="68.330078" xlink:href="#DejaVuSans-76"/>
     <use x="127.509766" xlink:href="#DejaVuSans-65"/>
     <use x="189.033203" xlink:href="#DejaVuSans-72"/>
     <use x="230.146484" xlink:href="#DejaVuSans-61"/>
     <use x="291.425781" xlink:href="#DejaVuSans-67"/>
     <use x="354.902344" xlink:href="#DejaVuSans-65"/>
     <use x="416.425781" xlink:href="#DejaVuSans-20"/>
     <use x="448.212891" xlink:href="#DejaVuSans-6d"/>
     <use x="545.625" xlink:href="#DejaVuSans-6f"/>
     <use x="606.806641" xlink:href="#DejaVuSans-6e"/>
     <use x="670.185547" xlink:href="#DejaVuSans-74"/>
     <use x="709.394531" xlink:href="#DejaVuSans-68"/>
     <use x="772.773438" xlink:href="#DejaVuSans-6c"/>
     <use x="800.556641" xlink:href="#DejaVuSans-79"/>
     <use x="859.736328" xlink:href="#DejaVuSans-20"/>
     <use x="891.523438" xlink:href="#DejaVuSans-65"/>
     <use x="953.046875" xlink:href="#DejaVuSans-6d"/>
     <use x="1050.458984" xlink:href="#DejaVuSans-69"/>
     <use x="1078.242188" xlink:href="#DejaVuSans-73"/>
     <use x="1130.341797" xlink:href="#DejaVuSans-73"/>
     <use x="1182.441406" xlink:href="#DejaVuSans-69"/>
     <use x="1210.224609" xlink:href="#DejaVuSans-6f"/>
     <use x="1271.40625" xlink:href="#DejaVuSans-6e"/>
     <use x="1334.785156" xlink:href="#DejaVuSans-73"/>
    </g>
   </g>
   <g id="legend_1">
    <g id="patch_7">
     <path d="M 362.58 46.043175 
L 440.48 46.043175 
Q 442.48 46.043175 442.48 44.043175 
L 442.48 30.36505 
Q 442.48 28.36505 440.48 28.36505 
L 362.58 28.36505 
Q 360.58 28.36505 360.58 30.36505 
L 360.58 44.043175 
Q 360.58 46.043175 362.58 46.043175 
z
" style="fill:#ffffff;opacity:0.8;stroke:#cccccc;stroke-linejoin:miter;"/>
    </g>
    <g id="line2d_26">
     <path d="M 364.58 36.463488 
L 384.58 36.463488 
" style="fill:none;stroke:#008000;stroke-linecap:square;stroke-width:1.5;"/>
    </g>
    <g id="line2d_27"/>
    <g id="text_6">
     <!-- SO2 (lbs) -->
     <defs>
      <path d="M 53.515625 70.515625 
L 53.515625 60.890625 
Q 47.90625 63.578125 42.921875 64.890625 
Q 37.9375 66.21875 33.296875 66.21875 
Q 25.25 66.21875 20.875 63.09375 
Q 16.5 59.96875 16.5 54.203125 
Q 16.5 49.359375 19.40625 46.890625 
Q 22.3125 44.4375 30.421875 42.921875 
L 36.375 41.703125 
Q 47.40625 39.59375 52.65625 34.296875 
Q 57.90625 29 57.90625 20.125 
Q 57.90625 9.515625 50.796875 4.046875 
Q 43.703125 -1.421875 29.984375 -1.421875 
Q 24.8125 -1.421875 18.96875 -0.25 
Q 13.140625 0.921875 6.890625 3.21875 
L 6.890625 13.375 
Q 12.890625 10.015625 18.65625 8.296875 
Q 24.421875 6.59375 29.984375 6.59375 
Q 38.421875 6.59375 43.015625 9.90625 
Q 47.609375 13.234375 47.609375 19.390625 
Q 47.609375 24.75 44.3125 27.78125 
Q 41.015625 30.8125 33.5 32.328125 
L 27.484375 33.5 
Q 16.453125 35.6875 11.515625 40.375 
Q 6.59375 45.0625 6.59375 53.421875 
Q 6.59375 63.09375 13.40625 68.65625 
Q 20.21875 74.21875 32.171875 74.21875 
Q 37.3125 74.21875 42.625 73.28125 
Q 47.953125 72.359375 53.515625 70.515625 
z
" id="DejaVuSans-53"/>
      <path d="M 39.40625 66.21875 
Q 28.65625 66.21875 22.328125 58.203125 
Q 16.015625 50.203125 16.015625 36.375 
Q 16.015625 22.609375 22.328125 14.59375 
Q 28.65625 6.59375 39.40625 6.59375 
Q 50.140625 6.59375 56.421875 14.59375 
Q 62.703125 22.609375 62.703125 36.375 
Q 62.703125 50.203125 56.421875 58.203125 
Q 50.140625 66.21875 39.40625 66.21875 
z
M 39.40625 74.21875 
Q 54.734375 74.21875 63.90625 63.9375 
Q 73.09375 53.65625 73.09375 36.375 
Q 73.09375 19.140625 63.90625 8.859375 
Q 54.734375 -1.421875 39.40625 -1.421875 
Q 24.03125 -1.421875 14.8125 8.828125 
Q 5.609375 19.09375 5.609375 36.375 
Q 5.609375 53.65625 14.8125 63.9375 
Q 24.03125 74.21875 39.40625 74.21875 
z
" id="DejaVuSans-4f"/>
      <path d="M 19.1875 8.296875 
L 53.609375 8.296875 
L 53.609375 0 
L 7.328125 0 
L 7.328125 8.296875 
Q 12.9375 14.109375 22.625 23.890625 
Q 32.328125 33.6875 34.8125 36.53125 
Q 39.546875 41.84375 41.421875 45.53125 
Q 43.3125 49.21875 43.3125 52.78125 
Q 43.3125 58.59375 39.234375 62.25 
Q 35.15625 65.921875 28.609375 65.921875 
Q 23.96875 65.921875 18.8125 64.3125 
Q 13.671875 62.703125 7.8125 59.421875 
L 7.8125 69.390625 
Q 13.765625 71.78125 18.9375 73 
Q 24.125 74.21875 28.421875 74.21875 
Q 39.75 74.21875 46.484375 68.546875 
Q 53.21875 62.890625 53.21875 53.421875 
Q 53.21875 48.921875 51.53125 44.890625 
Q 49.859375 40.875 45.40625 35.40625 
Q 44.1875 33.984375 37.640625 27.21875 
Q 31.109375 20.453125 19.1875 8.296875 
z
" id="DejaVuSans-32"/>
      <path d="M 31 75.875 
Q 24.46875 64.65625 21.28125 53.65625 
Q 18.109375 42.671875 18.109375 31.390625 
Q 18.109375 20.125 21.3125 9.0625 
Q 24.515625 -2 31 -13.1875 
L 23.1875 -13.1875 
Q 15.875 -1.703125 12.234375 9.375 
Q 8.59375 20.453125 8.59375 31.390625 
Q 8.59375 42.28125 12.203125 53.3125 
Q 15.828125 64.359375 23.1875 75.875 
z
" id="DejaVuSans-28"/>
      <path d="M 48.6875 27.296875 
Q 48.6875 37.203125 44.609375 42.84375 
Q 40.53125 48.484375 33.40625 48.484375 
Q 26.265625 48.484375 22.1875 42.84375 
Q 18.109375 37.203125 18.109375 27.296875 
Q 18.109375 17.390625 22.1875 11.75 
Q 26.265625 6.109375 33.40625 6.109375 
Q 40.53125 6.109375 44.609375 11.75 
Q 48.6875 17.390625 48.6875 27.296875 
z
M 18.109375 46.390625 
Q 20.953125 51.265625 25.265625 53.625 
Q 29.59375 56 35.59375 56 
Q 45.5625 56 51.78125 48.09375 
Q 58.015625 40.1875 58.015625 27.296875 
Q 58.015625 14.40625 51.78125 6.484375 
Q 45.5625 -1.421875 35.59375 -1.421875 
Q 29.59375 -1.421875 25.265625 0.953125 
Q 20.953125 3.328125 18.109375 8.203125 
L 18.109375 0 
L 9.078125 0 
L 9.078125 75.984375 
L 18.109375 75.984375 
z
" id="DejaVuSans-62"/>
      <path d="M 8.015625 75.875 
L 15.828125 75.875 
Q 23.140625 64.359375 26.78125 53.3125 
Q 30.421875 42.28125 30.421875 31.390625 
Q 30.421875 20.453125 26.78125 9.375 
Q 23.140625 -1.703125 15.828125 -13.1875 
L 8.015625 -13.1875 
Q 14.5 -2 17.703125 9.0625 
Q 20.90625 20.125 20.90625 31.390625 
Q 20.90625 42.671875 17.703125 53.65625 
Q 14.5 64.65625 8.015625 75.875 
z
" id="DejaVuSans-29"/>
     </defs>
     <g transform="translate(392.58 39.963488)scale(0.1 -0.1)">
      <use xlink:href="#DejaVuSans-53"/>
      <use x="63.476562" xlink:href="#DejaVuSans-4f"/>
      <use x="142.1875" xlink:href="#DejaVuSans-32"/>
      <use x="205.810547" xlink:href="#DejaVuSans-20"/>
      <use x="237.597656" xlink:href="#DejaVuSans-28"/>
      <use x="276.611328" xlink:href="#DejaVuSans-6c"/>
      <use x="304.394531" xlink:href="#DejaVuSans-62"/>
      <use x="367.871094" xlink:href="#DejaVuSans-73"/>
      <use x="419.970703" xlink:href="#DejaVuSans-29"/>
     </g>
    </g>
   </g>
  </g>
  <g id="axes_2">
   <g id="patch_8">
    <path d="M 36.124 209.084017 
L 447.48 209.084017 
L 447.48 124.144533 
L 36.124 124.144533 
z
" style="fill:none;"/>
   </g>
   <g id="matplotlib.axis_3">
    <g id="xtick_9">
     <g id="line2d_28">
      <path clip-path="url(#pd28c8cf982)" d="M 58.429643 209.084017 
L 58.429643 124.144533 
" style="fill:none;stroke:#b0b0b0;stroke-linecap:square;stroke-width:0.8;"/>
     </g>
     <g id="line2d_29">
      <g>
       <use style="stroke:#000000;stroke-width:0.8;" x="58.429643" xlink:href="#mb8fa5af129" y="209.084017"/>
      </g>
     </g>
    </g>
    <g id="xtick_10">
     <g id="line2d_30">
      <path clip-path="url(#pd28c8cf982)" d="M 107.035968 209.084017 
L 107.035968 124.144533 
" style="fill:none;stroke:#b0b0b0;stroke-linecap:square;stroke-width:0.8;"/>
     </g>
     <g id="line2d_31">
      <g>
       <use style="stroke:#000000;stroke-width:0.8;" x="107.035968" xlink:href="#mb8fa5af129" y="209.084017"/>
      </g>
     </g>
    </g>
    <g id="xtick_11">
     <g id="line2d_32">
      <path clip-path="url(#pd28c8cf982)" d="M 155.708878 209.084017 
L 155.708878 124.144533 
" style="fill:none;stroke:#b0b0b0;stroke-linecap:square;stroke-width:0.8;"/>
     </g>
     <g id="line2d_33">
      <g>
       <use style="stroke:#000000;stroke-width:0.8;" x="155.708878" xlink:href="#mb8fa5af129" y="209.084017"/>
      </g>
     </g>
    </g>
    <g id="xtick_12">
     <g id="line2d_34">
      <path clip-path="url(#pd28c8cf982)" d="M 204.315204 209.084017 
L 204.315204 124.144533 
" style="fill:none;stroke:#b0b0b0;stroke-linecap:square;stroke-width:0.8;"/>
     </g>
     <g id="line2d_35">
      <g>
       <use style="stroke:#000000;stroke-width:0.8;" x="204.315204" xlink:href="#mb8fa5af129" y="209.084017"/>
      </g>
     </g>
    </g>
    <g id="xtick_13">
     <g id="line2d_36">
      <path clip-path="url(#pd28c8cf982)" d="M 252.988113 209.084017 
L 252.988113 124.144533 
" style="fill:none;stroke:#b0b0b0;stroke-linecap:square;stroke-width:0.8;"/>
     </g>
     <g id="line2d_37">
      <g>
       <use style="stroke:#000000;stroke-width:0.8;" x="252.988113" xlink:href="#mb8fa5af129" y="209.084017"/>
      </g>
     </g>
    </g>
    <g id="xtick_14">
     <g id="line2d_38">
      <path clip-path="url(#pd28c8cf982)" d="M 301.594439 209.084017 
L 301.594439 124.144533 
" style="fill:none;stroke:#b0b0b0;stroke-linecap:square;stroke-width:0.8;"/>
     </g>
     <g id="line2d_39">
      <g>
       <use style="stroke:#000000;stroke-width:0.8;" x="301.594439" xlink:href="#mb8fa5af129" y="209.084017"/>
      </g>
     </g>
    </g>
    <g id="xtick_15">
     <g id="line2d_40">
      <path clip-path="url(#pd28c8cf982)" d="M 350.267349 209.084017 
L 350.267349 124.144533 
" style="fill:none;stroke:#b0b0b0;stroke-linecap:square;stroke-width:0.8;"/>
     </g>
     <g id="line2d_41">
      <g>
       <use style="stroke:#000000;stroke-width:0.8;" x="350.267349" xlink:href="#mb8fa5af129" y="209.084017"/>
      </g>
     </g>
    </g>
    <g id="xtick_16">
     <g id="line2d_42">
      <path clip-path="url(#pd28c8cf982)" d="M 398.873674 209.084017 
L 398.873674 124.144533 
" style="fill:none;stroke:#b0b0b0;stroke-linecap:square;stroke-width:0.8;"/>
     </g>
     <g id="line2d_43">
      <g>
       <use style="stroke:#000000;stroke-width:0.8;" x="398.873674" xlink:href="#mb8fa5af129" y="209.084017"/>
      </g>
     </g>
    </g>
   </g>
   <g id="matplotlib.axis_4">
    <g id="ytick_5">
     <g id="line2d_44">
      <path clip-path="url(#pd28c8cf982)" d="M 36.124 205.223131 
L 447.48 205.223131 
" style="fill:none;stroke:#b0b0b0;stroke-linecap:square;stroke-width:0.8;"/>
     </g>
     <g id="line2d_45">
      <g>
       <use style="stroke:#000000;stroke-width:0.8;" x="36.124" xlink:href="#m8012e5a341" y="205.223131"/>
      </g>
     </g>
     <g id="text_7">
      <!-- 0 -->
      <g transform="translate(22.7615 209.02235)scale(0.1 -0.1)">
       <use xlink:href="#DejaVuSans-30"/>
      </g>
     </g>
    </g>
    <g id="ytick_6">
     <g id="line2d_46">
      <path clip-path="url(#pd28c8cf982)" d="M 36.124 180.730002 
L 447.48 180.730002 
" style="fill:none;stroke:#b0b0b0;stroke-linecap:square;stroke-width:0.8;"/>
     </g>
     <g id="line2d_47">
      <g>
       <use style="stroke:#000000;stroke-width:0.8;" x="36.124" xlink:href="#m8012e5a341" y="180.730002"/>
      </g>
     </g>
     <g id="text_8">
      <!-- 250 -->
      <g transform="translate(10.0365 184.529221)scale(0.1 -0.1)">
       <use xlink:href="#DejaVuSans-32"/>
       <use x="63.623047" xlink:href="#DejaVuSans-35"/>
       <use x="127.246094" xlink:href="#DejaVuSans-30"/>
      </g>
     </g>
    </g>
    <g id="ytick_7">
     <g id="line2d_48">
      <path clip-path="url(#pd28c8cf982)" d="M 36.124 156.236873 
L 447.48 156.236873 
" style="fill:none;stroke:#b0b0b0;stroke-linecap:square;stroke-width:0.8;"/>
     </g>
     <g id="line2d_49">
      <g>
       <use style="stroke:#000000;stroke-width:0.8;" x="36.124" xlink:href="#m8012e5a341" y="156.236873"/>
      </g>
     </g>
     <g id="text_9">
      <!-- 500 -->
      <g transform="translate(10.0365 160.036092)scale(0.1 -0.1)">
       <use xlink:href="#DejaVuSans-35"/>
       <use x="63.623047" xlink:href="#DejaVuSans-30"/>
       <use x="127.246094" xlink:href="#DejaVuSans-30"/>
      </g>
     </g>
    </g>
    <g id="ytick_8">
     <g id="line2d_50">
      <path clip-path="url(#pd28c8cf982)" d="M 36.124 131.743744 
L 447.48 131.743744 
" style="fill:none;stroke:#b0b0b0;stroke-linecap:square;stroke-width:0.8;"/>
     </g>
     <g id="line2d_51">
      <g>
       <use style="stroke:#000000;stroke-width:0.8;" x="36.124" xlink:href="#m8012e5a341" y="131.743744"/>
      </g>
     </g>
     <g id="text_10">
      <!-- 750 -->
      <defs>
       <path d="M 8.203125 72.90625 
L 55.078125 72.90625 
L 55.078125 68.703125 
L 28.609375 0 
L 18.3125 0 
L 43.21875 64.59375 
L 8.203125 64.59375 
z
" id="DejaVuSans-37"/>
      </defs>
      <g transform="translate(10.0365 135.542963)scale(0.1 -0.1)">
       <use xlink:href="#DejaVuSans-37"/>
       <use x="63.623047" xlink:href="#DejaVuSans-35"/>
       <use x="127.246094" xlink:href="#DejaVuSans-30"/>
      </g>
     </g>
    </g>
   </g>
   <g id="line2d_52">
    <path clip-path="url(#pd28c8cf982)" d="M 36.124 164.910637 
L 37.988352 163.737662 
L 40.052456 179.196863 
L 42.049977 161.521773 
L 44.114081 157.517561 
L 46.111601 155.0373 
L 48.175705 151.930768 
L 50.23981 162.757135 
L 52.23733 152.463718 
L 54.301434 161.361576 
L 56.298954 157.095234 
L 58.363059 161.633921 
L 60.427163 159.996462 
L 62.291515 154.97839 
L 64.355619 203.692272 
L 66.35314 196.005063 
L 68.417244 144.941891 
L 70.414764 144.593653 
L 72.478868 138.98537 
L 74.542972 151.293534 
L 76.540493 151.039352 
L 78.604597 148.2267 
L 80.602117 160.36644 
L 82.666221 156.532534 
L 84.730326 147.259892 
L 86.594678 139.810018 
L 88.658782 138.080896 
L 90.656302 150.322089 
L 92.720407 147.914055 
L 94.717927 170.740706 
L 96.782031 146.3638 
L 98.846135 147.567505 
L 100.843656 146.940652 
L 102.90776 164.897334 
L 104.90528 157.563716 
L 106.969384 140.365381 
L 109.033489 141.998196 
L 110.964425 144.258355 
L 113.028529 138.78329 
L 115.026049 142.262622 
L 117.090153 137.524632 
L 119.087674 145.187453 
L 121.151778 145.746656 
L 123.215882 145.14823 
L 125.213402 140.66472 
L 127.277507 203.441421 
L 129.275027 174.899881 
L 131.339131 151.572804 
L 133.403235 152.815747 
L 135.267588 147.301923 
L 137.331692 147.729119 
L 139.329212 160.500459 
L 141.393316 154.495018 
L 143.390837 151.121805 
L 145.454941 155.673589 
L 147.519045 143.825661 
L 149.516565 138.536797 
L 151.580669 144.033459 
L 153.57819 144.552384 
L 155.642294 147.047149 
L 157.706398 141.146241 
L 159.57075 143.679033 
L 161.634855 155.893499 
L 163.632375 142.683824 
L 165.696479 141.224937 
L 167.693999 143.950994 
L 169.758104 151.002333 
L 171.822208 149.786862 
L 173.819728 150.127973 
L 175.883832 205.192863 
L 177.881353 167.293432 
L 179.945457 150.962971 
L 182.009561 146.462291 
L 183.873913 144.276637 
L 185.938017 144.001482 
L 187.935538 167.210152 
L 189.999642 194.504581 
L 191.997162 152.449988 
L 194.061266 145.356695 
L 196.125371 141.858094 
L 198.122891 149.797938 
L 200.186995 150.079474 
L 202.184515 141.723727 
L 204.24862 150.551783 
L 208.24366 133.319203 
L 210.307764 145.270508 
L 212.305285 150.378169 
L 214.369389 156.529302 
L 216.366909 145.770854 
L 218.431013 140.65799 
L 220.495118 137.304215 
L 222.492638 145.288922 
L 224.556742 205.223131 
L 226.554262 190.896538 
L 228.618366 159.977905 
L 230.682471 196.946536 
L 232.546823 205.223131 
L 234.610927 180.123148 
L 236.608447 160.600226 
L 238.672552 163.410001 
L 240.670072 160.676988 
L 242.734176 128.005419 
L 244.79828 138.295517 
L 246.795801 141.324259 
L 248.859905 145.788323 
L 250.857425 154.650505 
L 252.921529 143.680419 
L 254.985634 141.955505 
L 256.849986 150.954211 
L 258.91409 164.558392 
L 260.91161 205.223034 
L 262.975714 145.467221 
L 264.973235 160.415662 
L 267.037339 155.273824 
L 269.101443 150.829207 
L 271.098963 156.34409 
L 273.163068 167.6392 
L 275.160588 168.907272 
L 277.224692 145.046454 
L 279.288796 147.673942 
L 281.153149 185.327408 
L 283.217253 170.204146 
L 285.214773 144.874754 
L 287.278877 146.032226 
L 291.340502 143.435106 
L 293.404606 149.471527 
L 295.402126 160.983559 
L 297.46623 178.780169 
L 299.463751 205.212474 
L 301.527855 153.039285 
L 303.591959 164.735613 
L 305.522895 164.932991 
L 307.587 163.052697 
L 309.58452 166.566618 
L 311.648624 161.046558 
L 313.646144 157.13948 
L 315.710249 169.368599 
L 317.774353 149.916884 
L 319.771873 192.067098 
L 321.835977 173.785806 
L 323.833498 145.652575 
L 325.897602 145.548905 
L 327.961706 148.659412 
L 331.890163 205.223131 
L 333.887683 179.778759 
L 335.951787 160.8628 
L 337.949307 166.705038 
L 340.013411 155.071075 
L 342.077516 152.390972 
L 344.075036 145.759209 
L 346.13914 147.953556 
L 348.13666 153.64464 
L 350.200765 148.610966 
L 352.264869 153.122777 
L 354.129221 149.971007 
L 356.193325 182.908286 
L 358.190846 149.82901 
L 360.25495 145.919924 
L 362.25247 163.214886 
L 364.316574 146.846346 
L 366.380679 146.827102 
L 368.378199 162.252798 
L 370.442303 177.195451 
L 372.439823 158.840444 
L 374.503927 171.809814 
L 376.568032 150.404787 
L 378.432384 170.141512 
L 380.496488 149.05424 
L 382.494008 200.283981 
L 384.558113 151.212804 
L 386.555633 152.35366 
L 388.619737 164.863343 
L 390.683841 153.849989 
L 392.681362 155.508786 
L 394.745466 171.683444 
L 396.742986 160.803865 
L 398.80709 161.864941 
L 400.871195 166.131992 
L 402.802131 161.99351 
L 404.866235 162.158616 
L 406.863755 158.307009 
L 408.92786 158.705431 
L 410.92538 157.426456 
L 412.989484 168.932482 
L 415.053588 158.992433 
L 417.051108 161.934551 
L 419.115213 197.062653 
L 421.112733 172.744412 
L 423.176837 165.387936 
L 425.240941 167.94609 
L 427.105294 168.159057 
L 429.169398 203.325182 
L 431.166918 205.223131 
L 433.231022 205.223131 
L 435.228543 203.518007 
L 437.292647 202.286972 
L 439.356751 205.223131 
L 441.354271 203.554613 
L 443.418376 205.223131 
L 447.48 205.223131 
L 447.48 205.223131 
" style="fill:none;stroke:#f97306;stroke-linecap:square;stroke-width:1.5;"/>
   </g>
   <g id="patch_9">
    <path d="M 36.124 209.084017 
L 36.124 124.144533 
" style="fill:none;stroke:#000000;stroke-linecap:square;stroke-linejoin:miter;stroke-width:0.8;"/>
   </g>
   <g id="patch_10">
    <path d="M 447.48 209.084017 
L 447.48 124.144533 
" style="fill:none;stroke:#000000;stroke-linecap:square;stroke-linejoin:miter;stroke-width:0.8;"/>
   </g>
   <g id="patch_11">
    <path d="M 36.124 209.084017 
L 447.48 209.084017 
" style="fill:none;stroke:#000000;stroke-linecap:square;stroke-linejoin:miter;stroke-width:0.8;"/>
   </g>
   <g id="patch_12">
    <path d="M 36.124 124.144533 
L 447.48 124.144533 
" style="fill:none;stroke:#000000;stroke-linecap:square;stroke-linejoin:miter;stroke-width:0.8;"/>
   </g>
   <g id="legend_2">
    <g id="patch_13">
     <path d="M 361.890938 146.822658 
L 440.48 146.822658 
Q 442.48 146.822658 442.48 144.822658 
L 442.48 131.144533 
Q 442.48 129.144533 440.48 129.144533 
L 361.890938 129.144533 
Q 359.890938 129.144533 359.890938 131.144533 
L 359.890938 144.822658 
Q 359.890938 146.822658 361.890938 146.822658 
z
" style="fill:#ffffff;opacity:0.8;stroke:#cccccc;stroke-linejoin:miter;"/>
    </g>
    <g id="line2d_53">
     <path d="M 363.890938 137.242971 
L 383.890938 137.242971 
" style="fill:none;stroke:#f97306;stroke-linecap:square;stroke-width:1.5;"/>
    </g>
    <g id="line2d_54"/>
    <g id="text_11">
     <!-- NOx (lbs) -->
     <defs>
      <path d="M 9.8125 72.90625 
L 23.09375 72.90625 
L 55.421875 11.921875 
L 55.421875 72.90625 
L 64.984375 72.90625 
L 64.984375 0 
L 51.703125 0 
L 19.390625 60.984375 
L 19.390625 0 
L 9.8125 0 
z
" id="DejaVuSans-4e"/>
      <path d="M 54.890625 54.6875 
L 35.109375 28.078125 
L 55.90625 0 
L 45.3125 0 
L 29.390625 21.484375 
L 13.484375 0 
L 2.875 0 
L 24.125 28.609375 
L 4.6875 54.6875 
L 15.28125 54.6875 
L 29.78125 35.203125 
L 44.28125 54.6875 
z
" id="DejaVuSans-78"/>
     </defs>
     <g transform="translate(391.890938 140.742971)scale(0.1 -0.1)">
      <use xlink:href="#DejaVuSans-4e"/>
      <use x="74.804688" xlink:href="#DejaVuSans-4f"/>
      <use x="153.515625" xlink:href="#DejaVuSans-78"/>
      <use x="212.695312" xlink:href="#DejaVuSans-20"/>
      <use x="244.482422" xlink:href="#DejaVuSans-28"/>
      <use x="283.496094" xlink:href="#DejaVuSans-6c"/>
      <use x="311.279297" xlink:href="#DejaVuSans-62"/>
      <use x="374.755859" xlink:href="#DejaVuSans-73"/>
      <use x="426.855469" xlink:href="#DejaVuSans-29"/>
     </g>
    </g>
   </g>
  </g>
  <g id="axes_3">
   <g id="patch_14">
    <path d="M 36.124 309.8635 
L 447.48 309.8635 
L 447.48 224.924017 
L 36.124 224.924017 
z
" style="fill:none;"/>
   </g>
   <g id="matplotlib.axis_5">
    <g id="xtick_17">
     <g id="line2d_55">
      <path clip-path="url(#pe696d2e8f5)" d="M 58.429643 309.8635 
L 58.429643 224.924017 
" style="fill:none;stroke:#b0b0b0;stroke-linecap:square;stroke-width:0.8;"/>
     </g>
     <g id="line2d_56">
      <g>
       <use style="stroke:#000000;stroke-width:0.8;" x="58.429643" xlink:href="#mb8fa5af129" y="309.8635"/>
      </g>
     </g>
     <g id="text_12">
      <!-- 2002 -->
      <g transform="translate(45.704643 324.461937)scale(0.1 -0.1)">
       <use xlink:href="#DejaVuSans-32"/>
       <use x="63.623047" xlink:href="#DejaVuSans-30"/>
       <use x="127.246094" xlink:href="#DejaVuSans-30"/>
       <use x="190.869141" xlink:href="#DejaVuSans-32"/>
      </g>
     </g>
    </g>
    <g id="xtick_18">
     <g id="line2d_57">
      <path clip-path="url(#pe696d2e8f5)" d="M 107.035968 309.8635 
L 107.035968 224.924017 
" style="fill:none;stroke:#b0b0b0;stroke-linecap:square;stroke-width:0.8;"/>
     </g>
     <g id="line2d_58">
      <g>
       <use style="stroke:#000000;stroke-width:0.8;" x="107.035968" xlink:href="#mb8fa5af129" y="309.8635"/>
      </g>
     </g>
     <g id="text_13">
      <!-- 2004 -->
      <defs>
       <path d="M 37.796875 64.3125 
L 12.890625 25.390625 
L 37.796875 25.390625 
z
M 35.203125 72.90625 
L 47.609375 72.90625 
L 47.609375 25.390625 
L 58.015625 25.390625 
L 58.015625 17.1875 
L 47.609375 17.1875 
L 47.609375 0 
L 37.796875 0 
L 37.796875 17.1875 
L 4.890625 17.1875 
L 4.890625 26.703125 
z
" id="DejaVuSans-34"/>
      </defs>
      <g transform="translate(94.310968 324.461937)scale(0.1 -0.1)">
       <use xlink:href="#DejaVuSans-32"/>
       <use x="63.623047" xlink:href="#DejaVuSans-30"/>
       <use x="127.246094" xlink:href="#DejaVuSans-30"/>
       <use x="190.869141" xlink:href="#DejaVuSans-34"/>
      </g>
     </g>
    </g>
    <g id="xtick_19">
     <g id="line2d_59">
      <path clip-path="url(#pe696d2e8f5)" d="M 155.708878 309.8635 
L 155.708878 224.924017 
" style="fill:none;stroke:#b0b0b0;stroke-linecap:square;stroke-width:0.8;"/>
     </g>
     <g id="line2d_60">
      <g>
       <use style="stroke:#000000;stroke-width:0.8;" x="155.708878" xlink:href="#mb8fa5af129" y="309.8635"/>
      </g>
     </g>
     <g id="text_14">
      <!-- 2006 -->
      <defs>
       <path d="M 33.015625 40.375 
Q 26.375 40.375 22.484375 35.828125 
Q 18.609375 31.296875 18.609375 23.390625 
Q 18.609375 15.53125 22.484375 10.953125 
Q 26.375 6.390625 33.015625 6.390625 
Q 39.65625 6.390625 43.53125 10.953125 
Q 47.40625 15.53125 47.40625 23.390625 
Q 47.40625 31.296875 43.53125 35.828125 
Q 39.65625 40.375 33.015625 40.375 
z
M 52.59375 71.296875 
L 52.59375 62.3125 
Q 48.875 64.0625 45.09375 64.984375 
Q 41.3125 65.921875 37.59375 65.921875 
Q 27.828125 65.921875 22.671875 59.328125 
Q 17.53125 52.734375 16.796875 39.40625 
Q 19.671875 43.65625 24.015625 45.921875 
Q 28.375 48.1875 33.59375 48.1875 
Q 44.578125 48.1875 50.953125 41.515625 
Q 57.328125 34.859375 57.328125 23.390625 
Q 57.328125 12.15625 50.6875 5.359375 
Q 44.046875 -1.421875 33.015625 -1.421875 
Q 20.359375 -1.421875 13.671875 8.265625 
Q 6.984375 17.96875 6.984375 36.375 
Q 6.984375 53.65625 15.1875 63.9375 
Q 23.390625 74.21875 37.203125 74.21875 
Q 40.921875 74.21875 44.703125 73.484375 
Q 48.484375 72.75 52.59375 71.296875 
z
" id="DejaVuSans-36"/>
      </defs>
      <g transform="translate(142.983878 324.461937)scale(0.1 -0.1)">
       <use xlink:href="#DejaVuSans-32"/>
       <use x="63.623047" xlink:href="#DejaVuSans-30"/>
       <use x="127.246094" xlink:href="#DejaVuSans-30"/>
       <use x="190.869141" xlink:href="#DejaVuSans-36"/>
      </g>
     </g>
    </g>
    <g id="xtick_20">
     <g id="line2d_61">
      <path clip-path="url(#pe696d2e8f5)" d="M 204.315204 309.8635 
L 204.315204 224.924017 
" style="fill:none;stroke:#b0b0b0;stroke-linecap:square;stroke-width:0.8;"/>
     </g>
     <g id="line2d_62">
      <g>
       <use style="stroke:#000000;stroke-width:0.8;" x="204.315204" xlink:href="#mb8fa5af129" y="309.8635"/>
      </g>
     </g>
     <g id="text_15">
      <!-- 2008 -->
      <defs>
       <path d="M 31.78125 34.625 
Q 24.75 34.625 20.71875 30.859375 
Q 16.703125 27.09375 16.703125 20.515625 
Q 16.703125 13.921875 20.71875 10.15625 
Q 24.75 6.390625 31.78125 6.390625 
Q 38.8125 6.390625 42.859375 10.171875 
Q 46.921875 13.96875 46.921875 20.515625 
Q 46.921875 27.09375 42.890625 30.859375 
Q 38.875 34.625 31.78125 34.625 
z
M 21.921875 38.8125 
Q 15.578125 40.375 12.03125 44.71875 
Q 8.5 49.078125 8.5 55.328125 
Q 8.5 64.0625 14.71875 69.140625 
Q 20.953125 74.21875 31.78125 74.21875 
Q 42.671875 74.21875 48.875 69.140625 
Q 55.078125 64.0625 55.078125 55.328125 
Q 55.078125 49.078125 51.53125 44.71875 
Q 48 40.375 41.703125 38.8125 
Q 48.828125 37.15625 52.796875 32.3125 
Q 56.78125 27.484375 56.78125 20.515625 
Q 56.78125 9.90625 50.3125 4.234375 
Q 43.84375 -1.421875 31.78125 -1.421875 
Q 19.734375 -1.421875 13.25 4.234375 
Q 6.78125 9.90625 6.78125 20.515625 
Q 6.78125 27.484375 10.78125 32.3125 
Q 14.796875 37.15625 21.921875 38.8125 
z
M 18.3125 54.390625 
Q 18.3125 48.734375 21.84375 45.5625 
Q 25.390625 42.390625 31.78125 42.390625 
Q 38.140625 42.390625 41.71875 45.5625 
Q 45.3125 48.734375 45.3125 54.390625 
Q 45.3125 60.0625 41.71875 63.234375 
Q 38.140625 66.40625 31.78125 66.40625 
Q 25.390625 66.40625 21.84375 63.234375 
Q 18.3125 60.0625 18.3125 54.390625 
z
" id="DejaVuSans-38"/>
      </defs>
      <g transform="translate(191.590204 324.461937)scale(0.1 -0.1)">
       <use xlink:href="#DejaVuSans-32"/>
       <use x="63.623047" xlink:href="#DejaVuSans-30"/>
       <use x="127.246094" xlink:href="#DejaVuSans-30"/>
       <use x="190.869141" xlink:href="#DejaVuSans-38"/>
      </g>
     </g>
    </g>
    <g id="xtick_21">
     <g id="line2d_63">
      <path clip-path="url(#pe696d2e8f5)" d="M 252.988113 309.8635 
L 252.988113 224.924017 
" style="fill:none;stroke:#b0b0b0;stroke-linecap:square;stroke-width:0.8;"/>
     </g>
     <g id="line2d_64">
      <g>
       <use style="stroke:#000000;stroke-width:0.8;" x="252.988113" xlink:href="#mb8fa5af129" y="309.8635"/>
      </g>
     </g>
     <g id="text_16">
      <!-- 2010 -->
      <g transform="translate(240.263113 324.461937)scale(0.1 -0.1)">
       <use xlink:href="#DejaVuSans-32"/>
       <use x="63.623047" xlink:href="#DejaVuSans-30"/>
       <use x="127.246094" xlink:href="#DejaVuSans-31"/>
       <use x="190.869141" xlink:href="#DejaVuSans-30"/>
      </g>
     </g>
    </g>
    <g id="xtick_22">
     <g id="line2d_65">
      <path clip-path="url(#pe696d2e8f5)" d="M 301.594439 309.8635 
L 301.594439 224.924017 
" style="fill:none;stroke:#b0b0b0;stroke-linecap:square;stroke-width:0.8;"/>
     </g>
     <g id="line2d_66">
      <g>
       <use style="stroke:#000000;stroke-width:0.8;" x="301.594439" xlink:href="#mb8fa5af129" y="309.8635"/>
      </g>
     </g>
     <g id="text_17">
      <!-- 2012 -->
      <g transform="translate(288.869439 324.461937)scale(0.1 -0.1)">
       <use xlink:href="#DejaVuSans-32"/>
       <use x="63.623047" xlink:href="#DejaVuSans-30"/>
       <use x="127.246094" xlink:href="#DejaVuSans-31"/>
       <use x="190.869141" xlink:href="#DejaVuSans-32"/>
      </g>
     </g>
    </g>
    <g id="xtick_23">
     <g id="line2d_67">
      <path clip-path="url(#pe696d2e8f5)" d="M 350.267349 309.8635 
L 350.267349 224.924017 
" style="fill:none;stroke:#b0b0b0;stroke-linecap:square;stroke-width:0.8;"/>
     </g>
     <g id="line2d_68">
      <g>
       <use style="stroke:#000000;stroke-width:0.8;" x="350.267349" xlink:href="#mb8fa5af129" y="309.8635"/>
      </g>
     </g>
     <g id="text_18">
      <!-- 2014 -->
      <g transform="translate(337.542349 324.461937)scale(0.1 -0.1)">
       <use xlink:href="#DejaVuSans-32"/>
       <use x="63.623047" xlink:href="#DejaVuSans-30"/>
       <use x="127.246094" xlink:href="#DejaVuSans-31"/>
       <use x="190.869141" xlink:href="#DejaVuSans-34"/>
      </g>
     </g>
    </g>
    <g id="xtick_24">
     <g id="line2d_69">
      <path clip-path="url(#pe696d2e8f5)" d="M 398.873674 309.8635 
L 398.873674 224.924017 
" style="fill:none;stroke:#b0b0b0;stroke-linecap:square;stroke-width:0.8;"/>
     </g>
     <g id="line2d_70">
      <g>
       <use style="stroke:#000000;stroke-width:0.8;" x="398.873674" xlink:href="#mb8fa5af129" y="309.8635"/>
      </g>
     </g>
     <g id="text_19">
      <!-- 2016 -->
      <g transform="translate(386.148674 324.461937)scale(0.1 -0.1)">
       <use xlink:href="#DejaVuSans-32"/>
       <use x="63.623047" xlink:href="#DejaVuSans-30"/>
       <use x="127.246094" xlink:href="#DejaVuSans-31"/>
       <use x="190.869141" xlink:href="#DejaVuSans-36"/>
      </g>
     </g>
    </g>
    <g id="text_20">
     <!-- Date -->
     <defs>
      <path d="M 19.671875 64.796875 
L 19.671875 8.109375 
L 31.59375 8.109375 
Q 46.6875 8.109375 53.6875 14.9375 
Q 60.6875 21.78125 60.6875 36.53125 
Q 60.6875 51.171875 53.6875 57.984375 
Q 46.6875 64.796875 31.59375 64.796875 
z
M 9.8125 72.90625 
L 30.078125 72.90625 
Q 51.265625 72.90625 61.171875 64.09375 
Q 71.09375 55.28125 71.09375 36.53125 
Q 71.09375 17.671875 61.125 8.828125 
Q 51.171875 0 30.078125 0 
L 9.8125 0 
z
" id="DejaVuSans-44"/>
     </defs>
     <g transform="translate(229.851219 338.140062)scale(0.1 -0.1)">
      <use xlink:href="#DejaVuSans-44"/>
      <use x="77.001953" xlink:href="#DejaVuSans-61"/>
      <use x="138.28125" xlink:href="#DejaVuSans-74"/>
      <use x="177.490234" xlink:href="#DejaVuSans-65"/>
     </g>
    </g>
   </g>
   <g id="matplotlib.axis_6">
    <g id="ytick_9">
     <g id="line2d_71">
      <path clip-path="url(#pe696d2e8f5)" d="M 36.124 306.002614 
L 447.48 306.002614 
" style="fill:none;stroke:#b0b0b0;stroke-linecap:square;stroke-width:0.8;"/>
     </g>
     <g id="line2d_72">
      <g>
       <use style="stroke:#000000;stroke-width:0.8;" x="36.124" xlink:href="#m8012e5a341" y="306.002614"/>
      </g>
     </g>
     <g id="text_21">
      <!-- 0 -->
      <g transform="translate(22.7615 309.801833)scale(0.1 -0.1)">
       <use xlink:href="#DejaVuSans-30"/>
      </g>
     </g>
    </g>
    <g id="ytick_10">
     <g id="line2d_73">
      <path clip-path="url(#pe696d2e8f5)" d="M 36.124 273.385397 
L 447.48 273.385397 
" style="fill:none;stroke:#b0b0b0;stroke-linecap:square;stroke-width:0.8;"/>
     </g>
     <g id="line2d_74">
      <g>
       <use style="stroke:#000000;stroke-width:0.8;" x="36.124" xlink:href="#m8012e5a341" y="273.385397"/>
      </g>
     </g>
     <g id="text_22">
      <!-- 100 -->
      <g transform="translate(10.0365 277.184615)scale(0.1 -0.1)">
       <use xlink:href="#DejaVuSans-31"/>
       <use x="63.623047" xlink:href="#DejaVuSans-30"/>
       <use x="127.246094" xlink:href="#DejaVuSans-30"/>
      </g>
     </g>
    </g>
    <g id="ytick_11">
     <g id="line2d_75">
      <path clip-path="url(#pe696d2e8f5)" d="M 36.124 240.768179 
L 447.48 240.768179 
" style="fill:none;stroke:#b0b0b0;stroke-linecap:square;stroke-width:0.8;"/>
     </g>
     <g id="line2d_76">
      <g>
       <use style="stroke:#000000;stroke-width:0.8;" x="36.124" xlink:href="#m8012e5a341" y="240.768179"/>
      </g>
     </g>
     <g id="text_23">
      <!-- 200 -->
      <g transform="translate(10.0365 244.567398)scale(0.1 -0.1)">
       <use xlink:href="#DejaVuSans-32"/>
       <use x="63.623047" xlink:href="#DejaVuSans-30"/>
       <use x="127.246094" xlink:href="#DejaVuSans-30"/>
      </g>
     </g>
    </g>
   </g>
   <g id="line2d_77">
    <path clip-path="url(#pe696d2e8f5)" d="M 36.124 249.120905 
L 37.988352 251.201514 
L 40.052456 275.754824 
L 42.049977 258.685824 
L 44.114081 244.213635 
L 46.111601 248.149636 
L 48.175705 246.733184 
L 50.23981 256.423289 
L 52.23733 248.012418 
L 54.301434 249.228938 
L 56.298954 253.183424 
L 58.363059 254.376767 
L 60.427163 246.579611 
L 62.291515 253.429912 
L 64.355619 304.389331 
L 66.35314 296.460145 
L 68.417244 245.905303 
L 70.414764 246.878007 
L 72.478868 243.213549 
L 74.542972 248.993562 
L 76.540493 246.246603 
L 78.604597 244.478738 
L 80.602117 246.478974 
L 82.666221 240.584225 
L 84.730326 243.126108 
L 86.594678 245.95773 
L 88.658782 243.180187 
L 90.656302 252.255427 
L 92.720407 243.85501 
L 94.717927 265.026392 
L 96.782031 242.835558 
L 98.846135 243.343361 
L 100.843656 245.173361 
L 102.90776 257.285503 
L 104.90528 249.216944 
L 106.969384 241.8189 
L 113.028529 238.510795 
L 115.026049 239.398256 
L 117.090153 241.218244 
L 119.087674 244.263447 
L 121.151778 241.205355 
L 123.215882 241.817751 
L 125.213402 242.608333 
L 127.277507 304.3142 
L 129.275027 272.709548 
L 131.339131 251.538086 
L 133.403235 247.431263 
L 135.267588 241.362618 
L 137.331692 243.838918 
L 139.329212 247.199297 
L 141.393316 246.037008 
L 143.390837 244.586024 
L 145.454941 250.657728 
L 147.519045 246.095175 
L 149.516565 243.931369 
L 151.580669 243.728717 
L 153.57819 241.399095 
L 155.642294 250.370217 
L 157.706398 242.622143 
L 159.57075 247.258113 
L 161.634855 256.873325 
L 163.632375 247.854388 
L 165.696479 245.101097 
L 167.693999 244.552501 
L 169.758104 259.240034 
L 171.822208 251.83867 
L 173.819728 247.088854 
L 175.883832 305.630151 
L 177.881353 265.114241 
L 179.945457 243.403744 
L 182.009561 245.451319 
L 183.873913 245.741091 
L 185.938017 243.682685 
L 187.935538 266.705504 
L 189.999642 295.233451 
L 191.997162 256.485706 
L 194.061266 246.141427 
L 196.125371 242.550771 
L 198.122891 242.147525 
L 200.186995 247.378368 
L 202.184515 237.268714 
L 204.24862 248.317551 
L 208.24366 236.79811 
L 210.307764 244.178432 
L 212.305285 252.469606 
L 216.366909 248.305368 
L 218.431013 242.670674 
L 220.495118 240.293388 
L 222.492638 249.712316 
L 224.556742 306.002614 
L 226.554262 292.394789 
L 228.618366 247.87939 
L 230.682471 295.364315 
L 232.546823 306.002614 
L 234.610927 273.597394 
L 236.608447 245.106948 
L 238.672552 248.24298 
L 240.670072 249.840441 
L 242.734176 228.784902 
L 244.79828 230.863592 
L 246.795801 241.028845 
L 248.859905 240.723681 
L 250.857425 254.221565 
L 252.921529 243.601098 
L 254.985634 241.186459 
L 258.91409 266.217158 
L 260.91161 306.001704 
L 262.975714 251.592143 
L 264.973235 267.749945 
L 267.037339 255.175021 
L 269.101443 253.529304 
L 271.098963 257.961369 
L 273.163068 265.664108 
L 275.160588 263.964434 
L 277.224692 244.930425 
L 279.288796 249.595082 
L 281.153149 287.30996 
L 283.217253 274.521484 
L 285.214773 247.210101 
L 289.276398 251.047935 
L 291.340502 246.531887 
L 293.404606 248.483378 
L 295.402126 258.365004 
L 297.46623 278.955461 
L 299.463751 305.947612 
L 301.527855 256.264045 
L 303.591959 263.992039 
L 305.522895 266.822824 
L 307.587 263.154419 
L 309.58452 260.174291 
L 311.648624 253.071209 
L 313.646144 252.436218 
L 315.710249 265.635475 
L 317.774353 248.891269 
L 319.771873 292.14297 
L 321.835977 277.335053 
L 323.833498 245.845955 
L 325.897602 249.300255 
L 327.961706 246.009818 
L 329.826058 276.089375 
L 331.890163 306.002614 
L 333.887683 280.377128 
L 335.951787 262.687167 
L 337.949307 261.49084 
L 340.013411 246.733152 
L 342.077516 247.627509 
L 344.075036 247.078202 
L 346.13914 249.680229 
L 348.13666 257.373374 
L 350.200765 250.228882 
L 352.264869 252.362613 
L 354.129221 250.539171 
L 356.193325 281.707598 
L 358.190846 248.230545 
L 360.25495 247.382851 
L 362.25247 263.005671 
L 364.316574 246.851509 
L 366.380679 248.803413 
L 370.442303 282.571239 
L 372.439823 267.381844 
L 374.503927 274.395296 
L 376.568032 257.023522 
L 378.432384 272.866975 
L 380.496488 252.437471 
L 382.494008 301.359961 
L 384.558113 254.933007 
L 386.555633 253.369977 
L 388.619737 265.787755 
L 390.683841 253.382099 
L 392.681362 250.739851 
L 394.745466 257.360479 
L 396.742986 255.691407 
L 398.80709 255.393518 
L 400.871195 261.258328 
L 402.802131 259.309286 
L 404.866235 259.970557 
L 406.863755 258.200632 
L 408.92786 258.201994 
L 410.92538 255.369729 
L 412.989484 268.014794 
L 415.053588 259.294934 
L 417.051108 263.949384 
L 419.115213 298.196115 
L 421.112733 274.224216 
L 423.176837 263.154375 
L 425.240941 262.100979 
L 427.105294 262.447853 
L 429.169398 303.254091 
L 431.166918 306.002614 
L 433.231022 306.002614 
L 435.228543 303.725284 
L 437.292647 301.726191 
L 439.356751 306.002614 
L 441.354271 304.025553 
L 443.418376 306.002614 
L 447.48 306.002614 
L 447.48 306.002614 
" style="fill:none;stroke:#4682b4;stroke-linecap:square;stroke-width:1.5;"/>
   </g>
   <g id="patch_15">
    <path d="M 36.124 309.8635 
L 36.124 224.924017 
" style="fill:none;stroke:#000000;stroke-linecap:square;stroke-linejoin:miter;stroke-width:0.8;"/>
   </g>
   <g id="patch_16">
    <path d="M 447.48 309.8635 
L 447.48 224.924017 
" style="fill:none;stroke:#000000;stroke-linecap:square;stroke-linejoin:miter;stroke-width:0.8;"/>
   </g>
   <g id="patch_17">
    <path d="M 36.124 309.8635 
L 447.48 309.8635 
" style="fill:none;stroke:#000000;stroke-linecap:square;stroke-linejoin:miter;stroke-width:0.8;"/>
   </g>
   <g id="patch_18">
    <path d="M 36.124 224.924017 
L 447.48 224.924017 
" style="fill:none;stroke:#000000;stroke-linecap:square;stroke-linejoin:miter;stroke-width:0.8;"/>
   </g>
   <g id="legend_3">
    <g id="patch_19">
     <path d="M 354.695625 247.602142 
L 440.48 247.602142 
Q 442.48 247.602142 442.48 245.602142 
L 442.48 231.924017 
Q 442.48 229.924017 440.48 229.924017 
L 354.695625 229.924017 
Q 352.695625 229.924017 352.695625 231.924017 
L 352.695625 245.602142 
Q 352.695625 247.602142 354.695625 247.602142 
z
" style="fill:#ffffff;opacity:0.8;stroke:#cccccc;stroke-linejoin:miter;"/>
    </g>
    <g id="line2d_78">
     <path d="M 356.695625 238.022454 
L 376.695625 238.022454 
" style="fill:none;stroke:#4682b4;stroke-linecap:square;stroke-width:1.5;"/>
    </g>
    <g id="line2d_79"/>
    <g id="text_24">
     <!-- CO2 (tons) -->
     <defs>
      <path d="M 64.40625 67.28125 
L 64.40625 56.890625 
Q 59.421875 61.53125 53.78125 63.8125 
Q 48.140625 66.109375 41.796875 66.109375 
Q 29.296875 66.109375 22.65625 58.46875 
Q 16.015625 50.828125 16.015625 36.375 
Q 16.015625 21.96875 22.65625 14.328125 
Q 29.296875 6.6875 41.796875 6.6875 
Q 48.140625 6.6875 53.78125 8.984375 
Q 59.421875 11.28125 64.40625 15.921875 
L 64.40625 5.609375 
Q 59.234375 2.09375 53.4375 0.328125 
Q 47.65625 -1.421875 41.21875 -1.421875 
Q 24.65625 -1.421875 15.125 8.703125 
Q 5.609375 18.84375 5.609375 36.375 
Q 5.609375 53.953125 15.125 64.078125 
Q 24.65625 74.21875 41.21875 74.21875 
Q 47.75 74.21875 53.53125 72.484375 
Q 59.328125 70.75 64.40625 67.28125 
z
" id="DejaVuSans-43"/>
     </defs>
     <g transform="translate(384.695625 241.522454)scale(0.1 -0.1)">
      <use xlink:href="#DejaVuSans-43"/>
      <use x="69.824219" xlink:href="#DejaVuSans-4f"/>
      <use x="148.535156" xlink:href="#DejaVuSans-32"/>
      <use x="212.158203" xlink:href="#DejaVuSans-20"/>
      <use x="243.945312" xlink:href="#DejaVuSans-28"/>
      <use x="282.958984" xlink:href="#DejaVuSans-74"/>
      <use x="322.167969" xlink:href="#DejaVuSans-6f"/>
      <use x="383.349609" xlink:href="#DejaVuSans-6e"/>
      <use x="446.728516" xlink:href="#DejaVuSans-73"/>
      <use x="498.828125" xlink:href="#DejaVuSans-29"/>
     </g>
    </g>
   </g>
  </g>
 </g>
 <defs>
  <clipPath id="p4dbf9ba3bd">
   <rect height="84.939483" width="411.356" x="36.124" y="23.36505"/>
  </clipPath>
  <clipPath id="pd28c8cf982">
   <rect height="84.939483" width="411.356" x="36.124" y="124.144533"/>
  </clipPath>
  <clipPath id="pe696d2e8f5">
   <rect height="84.939483" width="411.356" x="36.124" y="224.924017"/>
  </clipPath>
 </defs>
</svg>
