<?xml version="1.0" encoding="utf-8" standalone="no"?>
<!DOCTYPE svg PUBLIC "-//W3C//DTD SVG 1.1//EN"
  "http://www.w3.org/Graphics/SVG/1.1/DTD/svg11.dtd">
<!-- Created with matplotlib (http://matplotlib.org/) -->
<svg height="345.6pt" version="1.1" viewBox="0 0 460.8 345.6" width="460.8pt" xmlns="http://www.w3.org/2000/svg" xmlns:xlink="http://www.w3.org/1999/xlink">
 <defs>
  <style type="text/css">
*{stroke-linecap:butt;stroke-linejoin:round;}
  </style>
 </defs>
 <g id="figure_1">
  <g id="patch_1">
   <path d="M 0 345.6 
L 460.8 345.6 
L 460.8 0 
L 0 0 
z
" style="fill:none;"/>
  </g>
  <g id="axes_1">
   <g id="patch_2">
    <path d="M 31.543 108.304533 
L 444.844039 108.304533 
L 444.844039 23.36505 
L 31.543 23.36505 
z
" style="fill:none;"/>
   </g>
   <g id="matplotlib.axis_1">
    <g id="xtick_1">
     <g id="line2d_1">
      <path clip-path="url(#p0fa074e236)" d="M 44.036411 108.304533 
L 44.036411 23.36505 
" style="fill:none;stroke:#b0b0b0;stroke-linecap:square;stroke-width:0.8;"/>
     </g>
     <g id="line2d_2">
      <defs>
       <path d="M 0 0 
L 0 3.5 
" id="m7f29cea045" style="stroke:#000000;stroke-width:0.8;"/>
      </defs>
      <g>
       <use style="stroke:#000000;stroke-width:0.8;" x="44.036411" xlink:href="#m7f29cea045" y="108.304533"/>
      </g>
     </g>
    </g>
    <g id="xtick_2">
     <g id="line2d_3">
      <path clip-path="url(#p0fa074e236)" d="M 93.60266 108.304533 
L 93.60266 23.36505 
" style="fill:none;stroke:#b0b0b0;stroke-linecap:square;stroke-width:0.8;"/>
     </g>
     <g id="line2d_4">
      <g>
       <use style="stroke:#000000;stroke-width:0.8;" x="93.60266" xlink:href="#m7f29cea045" y="108.304533"/>
      </g>
     </g>
    </g>
    <g id="xtick_3">
     <g id="line2d_5">
      <path clip-path="url(#p0fa074e236)" d="M 143.236808 108.304533 
L 143.236808 23.36505 
" style="fill:none;stroke:#b0b0b0;stroke-linecap:square;stroke-width:0.8;"/>
     </g>
     <g id="line2d_6">
      <g>
       <use style="stroke:#000000;stroke-width:0.8;" x="143.236808" xlink:href="#m7f29cea045" y="108.304533"/>
      </g>
     </g>
    </g>
    <g id="xtick_4">
     <g id="line2d_7">
      <path clip-path="url(#p0fa074e236)" d="M 192.803057 108.304533 
L 192.803057 23.36505 
" style="fill:none;stroke:#b0b0b0;stroke-linecap:square;stroke-width:0.8;"/>
     </g>
     <g id="line2d_8">
      <g>
       <use style="stroke:#000000;stroke-width:0.8;" x="192.803057" xlink:href="#m7f29cea045" y="108.304533"/>
      </g>
     </g>
    </g>
    <g id="xtick_5">
     <g id="line2d_9">
      <path clip-path="url(#p0fa074e236)" d="M 242.437205 108.304533 
L 242.437205 23.36505 
" style="fill:none;stroke:#b0b0b0;stroke-linecap:square;stroke-width:0.8;"/>
     </g>
     <g id="line2d_10">
      <g>
       <use style="stroke:#000000;stroke-width:0.8;" x="242.437205" xlink:href="#m7f29cea045" y="108.304533"/>
      </g>
     </g>
    </g>
    <g id="xtick_6">
     <g id="line2d_11">
      <path clip-path="url(#p0fa074e236)" d="M 292.003455 108.304533 
L 292.003455 23.36505 
" style="fill:none;stroke:#b0b0b0;stroke-linecap:square;stroke-width:0.8;"/>
     </g>
     <g id="line2d_12">
      <g>
       <use style="stroke:#000000;stroke-width:0.8;" x="292.003455" xlink:href="#m7f29cea045" y="108.304533"/>
      </g>
     </g>
    </g>
    <g id="xtick_7">
     <g id="line2d_13">
      <path clip-path="url(#p0fa074e236)" d="M 341.637603 108.304533 
L 341.637603 23.36505 
" style="fill:none;stroke:#b0b0b0;stroke-linecap:square;stroke-width:0.8;"/>
     </g>
     <g id="line2d_14">
      <g>
       <use style="stroke:#000000;stroke-width:0.8;" x="341.637603" xlink:href="#m7f29cea045" y="108.304533"/>
      </g>
     </g>
    </g>
    <g id="xtick_8">
     <g id="line2d_15">
      <path clip-path="url(#p0fa074e236)" d="M 391.203852 108.304533 
L 391.203852 23.36505 
" style="fill:none;stroke:#b0b0b0;stroke-linecap:square;stroke-width:0.8;"/>
     </g>
     <g id="line2d_16">
      <g>
       <use style="stroke:#000000;stroke-width:0.8;" x="391.203852" xlink:href="#m7f29cea045" y="108.304533"/>
      </g>
     </g>
    </g>
    <g id="xtick_9">
     <g id="line2d_17">
      <path clip-path="url(#p0fa074e236)" d="M 440.838 108.304533 
L 440.838 23.36505 
" style="fill:none;stroke:#b0b0b0;stroke-linecap:square;stroke-width:0.8;"/>
     </g>
     <g id="line2d_18">
      <g>
       <use style="stroke:#000000;stroke-width:0.8;" x="440.838" xlink:href="#m7f29cea045" y="108.304533"/>
      </g>
     </g>
    </g>
   </g>
   <g id="matplotlib.axis_2">
    <g id="ytick_1">
     <g id="line2d_19">
      <path clip-path="url(#p0fa074e236)" d="M 31.543 104.443648 
L 444.844039 104.443648 
" style="fill:none;stroke:#b0b0b0;stroke-linecap:square;stroke-width:0.8;"/>
     </g>
     <g id="line2d_20">
      <defs>
       <path d="M 0 0 
L -3.5 0 
" id="m9bfef643b8" style="stroke:#000000;stroke-width:0.8;"/>
      </defs>
      <g>
       <use style="stroke:#000000;stroke-width:0.8;" x="31.543" xlink:href="#m9bfef643b8" y="104.443648"/>
      </g>
     </g>
     <g id="text_1">
      <!-- 0 -->
      <defs>
       <path d="M 31.78125 66.40625 
Q 24.171875 66.40625 20.328125 58.90625 
Q 16.5 51.421875 16.5 36.375 
Q 16.5 21.390625 20.328125 13.890625 
Q 24.171875 6.390625 31.78125 6.390625 
Q 39.453125 6.390625 43.28125 13.890625 
Q 47.125 21.390625 47.125 36.375 
Q 47.125 51.421875 43.28125 58.90625 
Q 39.453125 66.40625 31.78125 66.40625 
z
M 31.78125 74.21875 
Q 44.046875 74.21875 50.515625 64.515625 
Q 56.984375 54.828125 56.984375 36.375 
Q 56.984375 17.96875 50.515625 8.265625 
Q 44.046875 -1.421875 31.78125 -1.421875 
Q 19.53125 -1.421875 13.0625 8.265625 
Q 6.59375 17.96875 6.59375 36.375 
Q 6.59375 54.828125 13.0625 64.515625 
Q 19.53125 74.21875 31.78125 74.21875 
z
" id="DejaVuSans-30"/>
      </defs>
      <g transform="translate(18.1805 108.242866)scale(0.1 -0.1)">
       <use xlink:href="#DejaVuSans-30"/>
      </g>
     </g>
    </g>
    <g id="ytick_2">
     <g id="line2d_21">
      <path clip-path="url(#p0fa074e236)" d="M 31.543 69.344688 
L 444.844039 69.344688 
" style="fill:none;stroke:#b0b0b0;stroke-linecap:square;stroke-width:0.8;"/>
     </g>
     <g id="line2d_22">
      <g>
       <use style="stroke:#000000;stroke-width:0.8;" x="31.543" xlink:href="#m9bfef643b8" y="69.344688"/>
      </g>
     </g>
     <g id="text_2">
      <!-- 1 -->
      <defs>
       <path d="M 12.40625 8.296875 
L 28.515625 8.296875 
L 28.515625 63.921875 
L 10.984375 60.40625 
L 10.984375 69.390625 
L 28.421875 72.90625 
L 38.28125 72.90625 
L 38.28125 8.296875 
L 54.390625 8.296875 
L 54.390625 0 
L 12.40625 0 
z
" id="DejaVuSans-31"/>
      </defs>
      <g transform="translate(18.1805 73.143906)scale(0.1 -0.1)">
       <use xlink:href="#DejaVuSans-31"/>
      </g>
     </g>
    </g>
    <g id="ytick_3">
     <g id="line2d_23">
      <path clip-path="url(#p0fa074e236)" d="M 31.543 34.245728 
L 444.844039 34.245728 
" style="fill:none;stroke:#b0b0b0;stroke-linecap:square;stroke-width:0.8;"/>
     </g>
     <g id="line2d_24">
      <g>
       <use style="stroke:#000000;stroke-width:0.8;" x="31.543" xlink:href="#m9bfef643b8" y="34.245728"/>
      </g>
     </g>
     <g id="text_3">
      <!-- 2 -->
      <defs>
       <path d="M 19.1875 8.296875 
L 53.609375 8.296875 
L 53.609375 0 
L 7.328125 0 
L 7.328125 8.296875 
Q 12.9375 14.109375 22.625 23.890625 
Q 32.328125 33.6875 34.8125 36.53125 
Q 39.546875 41.84375 41.421875 45.53125 
Q 43.3125 49.21875 43.3125 52.78125 
Q 43.3125 58.59375 39.234375 62.25 
Q 35.15625 65.921875 28.609375 65.921875 
Q 23.96875 65.921875 18.8125 64.3125 
Q 13.671875 62.703125 7.8125 59.421875 
L 7.8125 69.390625 
Q 13.765625 71.78125 18.9375 73 
Q 24.125 74.21875 28.421875 74.21875 
Q 39.75 74.21875 46.484375 68.546875 
Q 53.21875 62.890625 53.21875 53.421875 
Q 53.21875 48.921875 51.53125 44.890625 
Q 49.859375 40.875 45.40625 35.40625 
Q 44.1875 33.984375 37.640625 27.21875 
Q 31.109375 20.453125 19.1875 8.296875 
z
" id="DejaVuSans-32"/>
      </defs>
      <g transform="translate(18.1805 38.044946)scale(0.1 -0.1)">
       <use xlink:href="#DejaVuSans-32"/>
      </g>
     </g>
    </g>
   </g>
   <g id="line2d_25">
    <path clip-path="url(#p0fa074e236)" d="M 31.543 71.801615 
L 33.647868 64.079844 
L 35.752736 92.860991 
L 37.789705 93.211981 
L 39.894573 103.741669 
L 41.931543 101.635731 
L 44.036411 100.231773 
L 46.141279 103.390679 
L 48.04245 87.947137 
L 50.147318 102.6887 
L 52.184287 101.635731 
L 54.289155 97.072866 
L 56.326125 87.596147 
L 58.430993 92.159012 
L 60.535861 97.072866 
L 62.57283 94.966929 
L 64.677698 93.211981 
L 66.714667 96.721877 
L 68.819535 99.529793 
L 70.924403 103.039689 
L 72.825575 102.6887 
L 74.930443 101.986721 
L 76.967412 67.940729 
L 79.07228 66.536771 
L 81.109249 58.11302 
L 83.214117 45.828384 
L 85.318985 50.391249 
L 87.355955 57.762031 
L 89.460823 74.960521 
L 91.497792 63.377864 
L 93.60266 58.815 
L 95.707528 57.060052 
L 97.676598 58.11302 
L 99.781466 74.258542 
L 101.818435 53.199166 
L 103.923304 56.358072 
L 105.960273 34.947707 
L 108.065141 42.669478 
L 110.170009 44.073436 
L 112.206978 39.159582 
L 114.311846 29.682863 
L 116.348815 30.033852 
L 118.453683 49.68927 
L 120.558552 38.808592 
L 122.459723 49.33828 
L 124.564591 61.622916 
L 126.60156 56.709062 
L 128.706428 60.569948 
L 130.743397 37.053644 
L 132.848265 28.980884 
L 134.953134 31.086821 
L 136.990103 67.23875 
L 139.094971 27.225936 
L 141.13194 32.49078 
L 143.236808 42.669478 
L 145.341676 33.543748 
L 147.242847 41.967499 
L 149.347715 70.046667 
L 151.384685 60.920937 
L 153.489553 57.411041 
L 155.526522 36.000676 
L 157.63139 36.351665 
L 159.736258 32.13979 
L 161.773227 39.510572 
L 163.878095 33.192759 
L 168.019933 35.298696 
L 170.124801 58.11302 
L 172.025972 42.669478 
L 174.13084 55.656093 
L 176.167809 60.218958 
L 178.272677 45.828384 
L 180.309646 44.424426 
L 182.414515 38.106613 
L 184.519383 37.404634 
L 186.556352 32.841769 
L 188.66122 31.086821 
L 190.698189 31.086821 
L 192.803057 32.13979 
L 194.907925 38.106613 
L 196.876996 35.298696 
L 198.981864 33.543748 
L 201.018833 41.616509 
L 203.123701 48.285312 
L 205.16067 38.808592 
L 207.265538 39.861561 
L 209.370406 31.437811 
L 211.407375 80.927344 
L 213.512244 66.536771 
L 215.549213 33.894738 
L 217.654081 46.881353 
L 219.758949 55.305104 
L 221.66012 40.91453 
L 223.764988 47.934322 
L 227.906825 59.165989 
L 229.943795 44.073436 
L 232.048663 38.457603 
L 234.153531 36.702655 
L 236.1905 38.457603 
L 238.295368 39.861561 
L 240.332337 38.457603 
L 242.437205 53.550156 
L 244.542073 40.212551 
L 246.443245 39.159582 
L 248.548113 34.245728 
L 250.585082 56.709062 
L 252.68995 76.715469 
L 254.726919 64.430833 
L 256.831787 60.218958 
L 258.936655 47.934322 
L 260.973625 34.245728 
L 263.078493 38.106613 
L 265.115462 48.636301 
L 267.22033 92.510001 
L 269.325198 104.443648 
L 271.226369 87.947137 
L 273.331237 77.768438 
L 275.368207 97.072866 
L 277.473075 85.490209 
L 279.510044 72.854584 
L 281.614912 64.430833 
L 283.71978 64.430833 
L 285.756749 79.874376 
L 287.861617 81.629324 
L 289.898586 70.046667 
L 292.003455 70.748646 
L 294.108323 60.920937 
L 296.077393 50.04026 
L 298.182261 68.291719 
L 300.21923 66.185781 
L 302.324098 65.132812 
L 304.361067 75.6625 
L 306.465935 65.132812 
L 308.570804 67.23875 
L 310.607773 51.795208 
L 312.712641 64.781823 
L 314.74961 103.039689 
L 316.854478 102.33771 
L 318.959346 104.443648 
L 322.965386 104.443648 
L 325.002355 103.390679 
L 327.107223 90.404064 
L 329.144192 77.066459 
L 331.24906 72.854584 
L 333.353928 56.007083 
L 335.390897 59.867968 
L 337.495765 53.901145 
L 339.532735 59.867968 
L 341.637603 68.291719 
L 343.742471 98.476825 
L 345.643642 81.629324 
L 347.74851 65.132812 
L 349.785479 66.536771 
L 351.890347 65.132812 
L 353.927317 45.126405 
L 356.032185 38.808592 
L 358.137053 38.106613 
L 360.174022 37.755624 
L 362.27889 41.616509 
L 364.315859 41.26552 
L 366.420727 39.861561 
L 368.525595 104.443648 
L 372.531635 104.443648 
L 374.568604 93.91396 
L 376.673472 37.755624 
L 378.710441 38.457603 
L 380.815309 38.457603 
L 382.920177 36.702655 
L 384.957146 36.702655 
L 387.062015 40.91453 
L 389.098984 40.212551 
L 391.203852 44.073436 
L 393.30872 47.583332 
L 395.27779 84.086251 
L 397.382658 56.709062 
L 399.419627 50.391249 
L 401.524496 39.861561 
L 403.561465 35.298696 
L 405.666333 32.49078 
L 407.771201 34.947707 
L 409.80817 34.245728 
L 411.913038 44.073436 
L 413.950007 50.391249 
L 416.054875 47.232343 
L 418.159744 81.980313 
L 420.060915 84.086251 
L 422.165783 84.43724 
L 424.202752 83.384272 
L 426.30762 51.795208 
L 428.344589 36.351665 
L 430.449457 38.106613 
L 432.554325 44.775416 
L 434.591295 38.106613 
L 436.696163 38.106613 
L 438.733132 39.861561 
L 440.838 85.841199 
L 442.942868 77.417448 
L 444.844039 66.88776 
L 444.844039 66.88776 
" style="fill:none;stroke:#008000;stroke-linecap:square;stroke-width:1.5;"/>
   </g>
   <g id="patch_3">
    <path d="M 31.543 108.304533 
L 31.543 23.36505 
" style="fill:none;stroke:#000000;stroke-linecap:square;stroke-linejoin:miter;stroke-width:0.8;"/>
   </g>
   <g id="patch_4">
    <path d="M 444.844039 108.304533 
L 444.844039 23.36505 
" style="fill:none;stroke:#000000;stroke-linecap:square;stroke-linejoin:miter;stroke-width:0.8;"/>
   </g>
   <g id="patch_5">
    <path d="M 31.543 108.304533 
L 444.844039 108.304533 
" style="fill:none;stroke:#000000;stroke-linecap:square;stroke-linejoin:miter;stroke-width:0.8;"/>
   </g>
   <g id="patch_6">
    <path d="M 31.543 23.36505 
L 444.844039 23.36505 
" style="fill:none;stroke:#000000;stroke-linecap:square;stroke-linejoin:miter;stroke-width:0.8;"/>
   </g>
   <g id="text_4">
    <!-- Mean hourly emissions -->
    <defs>
     <path d="M 9.8125 72.90625 
L 24.515625 72.90625 
L 43.109375 23.296875 
L 61.8125 72.90625 
L 76.515625 72.90625 
L 76.515625 0 
L 66.890625 0 
L 66.890625 64.015625 
L 48.09375 14.015625 
L 38.1875 14.015625 
L 19.390625 64.015625 
L 19.390625 0 
L 9.8125 0 
z
" id="DejaVuSans-4d"/>
     <path d="M 56.203125 29.59375 
L 56.203125 25.203125 
L 14.890625 25.203125 
Q 15.484375 15.921875 20.484375 11.0625 
Q 25.484375 6.203125 34.421875 6.203125 
Q 39.59375 6.203125 44.453125 7.46875 
Q 49.3125 8.734375 54.109375 11.28125 
L 54.109375 2.78125 
Q 49.265625 0.734375 44.1875 -0.34375 
Q 39.109375 -1.421875 33.890625 -1.421875 
Q 20.796875 -1.421875 13.15625 6.1875 
Q 5.515625 13.8125 5.515625 26.8125 
Q 5.515625 40.234375 12.765625 48.109375 
Q 20.015625 56 32.328125 56 
Q 43.359375 56 49.78125 48.890625 
Q 56.203125 41.796875 56.203125 29.59375 
z
M 47.21875 32.234375 
Q 47.125 39.59375 43.09375 43.984375 
Q 39.0625 48.390625 32.421875 48.390625 
Q 24.90625 48.390625 20.390625 44.140625 
Q 15.875 39.890625 15.1875 32.171875 
z
" id="DejaVuSans-65"/>
     <path d="M 34.28125 27.484375 
Q 23.390625 27.484375 19.1875 25 
Q 14.984375 22.515625 14.984375 16.5 
Q 14.984375 11.71875 18.140625 8.90625 
Q 21.296875 6.109375 26.703125 6.109375 
Q 34.1875 6.109375 38.703125 11.40625 
Q 43.21875 16.703125 43.21875 25.484375 
L 43.21875 27.484375 
z
M 52.203125 31.203125 
L 52.203125 0 
L 43.21875 0 
L 43.21875 8.296875 
Q 40.140625 3.328125 35.546875 0.953125 
Q 30.953125 -1.421875 24.3125 -1.421875 
Q 15.921875 -1.421875 10.953125 3.296875 
Q 6 8.015625 6 15.921875 
Q 6 25.140625 12.171875 29.828125 
Q 18.359375 34.515625 30.609375 34.515625 
L 43.21875 34.515625 
L 43.21875 35.40625 
Q 43.21875 41.609375 39.140625 45 
Q 35.0625 48.390625 27.6875 48.390625 
Q 23 48.390625 18.546875 47.265625 
Q 14.109375 46.140625 10.015625 43.890625 
L 10.015625 52.203125 
Q 14.9375 54.109375 19.578125 55.046875 
Q 24.21875 56 28.609375 56 
Q 40.484375 56 46.34375 49.84375 
Q 52.203125 43.703125 52.203125 31.203125 
z
" id="DejaVuSans-61"/>
     <path d="M 54.890625 33.015625 
L 54.890625 0 
L 45.90625 0 
L 45.90625 32.71875 
Q 45.90625 40.484375 42.875 44.328125 
Q 39.84375 48.1875 33.796875 48.1875 
Q 26.515625 48.1875 22.3125 43.546875 
Q 18.109375 38.921875 18.109375 30.90625 
L 18.109375 0 
L 9.078125 0 
L 9.078125 54.6875 
L 18.109375 54.6875 
L 18.109375 46.1875 
Q 21.34375 51.125 25.703125 53.5625 
Q 30.078125 56 35.796875 56 
Q 45.21875 56 50.046875 50.171875 
Q 54.890625 44.34375 54.890625 33.015625 
z
" id="DejaVuSans-6e"/>
     <path id="DejaVuSans-20"/>
     <path d="M 54.890625 33.015625 
L 54.890625 0 
L 45.90625 0 
L 45.90625 32.71875 
Q 45.90625 40.484375 42.875 44.328125 
Q 39.84375 48.1875 33.796875 48.1875 
Q 26.515625 48.1875 22.3125 43.546875 
Q 18.109375 38.921875 18.109375 30.90625 
L 18.109375 0 
L 9.078125 0 
L 9.078125 75.984375 
L 18.109375 75.984375 
L 18.109375 46.1875 
Q 21.34375 51.125 25.703125 53.5625 
Q 30.078125 56 35.796875 56 
Q 45.21875 56 50.046875 50.171875 
Q 54.890625 44.34375 54.890625 33.015625 
z
" id="DejaVuSans-68"/>
     <path d="M 30.609375 48.390625 
Q 23.390625 48.390625 19.1875 42.75 
Q 14.984375 37.109375 14.984375 27.296875 
Q 14.984375 17.484375 19.15625 11.84375 
Q 23.34375 6.203125 30.609375 6.203125 
Q 37.796875 6.203125 41.984375 11.859375 
Q 46.1875 17.53125 46.1875 27.296875 
Q 46.1875 37.015625 41.984375 42.703125 
Q 37.796875 48.390625 30.609375 48.390625 
z
M 30.609375 56 
Q 42.328125 56 49.015625 48.375 
Q 55.71875 40.765625 55.71875 27.296875 
Q 55.71875 13.875 49.015625 6.21875 
Q 42.328125 -1.421875 30.609375 -1.421875 
Q 18.84375 -1.421875 12.171875 6.21875 
Q 5.515625 13.875 5.515625 27.296875 
Q 5.515625 40.765625 12.171875 48.375 
Q 18.84375 56 30.609375 56 
z
" id="DejaVuSans-6f"/>
     <path d="M 8.5 21.578125 
L 8.5 54.6875 
L 17.484375 54.6875 
L 17.484375 21.921875 
Q 17.484375 14.15625 20.5 10.265625 
Q 23.53125 6.390625 29.59375 6.390625 
Q 36.859375 6.390625 41.078125 11.03125 
Q 45.3125 15.671875 45.3125 23.6875 
L 45.3125 54.6875 
L 54.296875 54.6875 
L 54.296875 0 
L 45.3125 0 
L 45.3125 8.40625 
Q 42.046875 3.421875 37.71875 1 
Q 33.40625 -1.421875 27.6875 -1.421875 
Q 18.265625 -1.421875 13.375 4.4375 
Q 8.5 10.296875 8.5 21.578125 
z
M 31.109375 56 
z
" id="DejaVuSans-75"/>
     <path d="M 41.109375 46.296875 
Q 39.59375 47.171875 37.8125 47.578125 
Q 36.03125 48 33.890625 48 
Q 26.265625 48 22.1875 43.046875 
Q 18.109375 38.09375 18.109375 28.8125 
L 18.109375 0 
L 9.078125 0 
L 9.078125 54.6875 
L 18.109375 54.6875 
L 18.109375 46.1875 
Q 20.953125 51.171875 25.484375 53.578125 
Q 30.03125 56 36.53125 56 
Q 37.453125 56 38.578125 55.875 
Q 39.703125 55.765625 41.0625 55.515625 
z
" id="DejaVuSans-72"/>
     <path d="M 9.421875 75.984375 
L 18.40625 75.984375 
L 18.40625 0 
L 9.421875 0 
z
" id="DejaVuSans-6c"/>
     <path d="M 32.171875 -5.078125 
Q 28.375 -14.84375 24.75 -17.8125 
Q 21.140625 -20.796875 15.09375 -20.796875 
L 7.90625 -20.796875 
L 7.90625 -13.28125 
L 13.1875 -13.28125 
Q 16.890625 -13.28125 18.9375 -11.515625 
Q 21 -9.765625 23.484375 -3.21875 
L 25.09375 0.875 
L 2.984375 54.6875 
L 12.5 54.6875 
L 29.59375 11.921875 
L 46.6875 54.6875 
L 56.203125 54.6875 
z
" id="DejaVuSans-79"/>
     <path d="M 52 44.1875 
Q 55.375 50.25 60.0625 53.125 
Q 64.75 56 71.09375 56 
Q 79.640625 56 84.28125 50.015625 
Q 88.921875 44.046875 88.921875 33.015625 
L 88.921875 0 
L 79.890625 0 
L 79.890625 32.71875 
Q 79.890625 40.578125 77.09375 44.375 
Q 74.3125 48.1875 68.609375 48.1875 
Q 61.625 48.1875 57.5625 43.546875 
Q 53.515625 38.921875 53.515625 30.90625 
L 53.515625 0 
L 44.484375 0 
L 44.484375 32.71875 
Q 44.484375 40.625 41.703125 44.40625 
Q 38.921875 48.1875 33.109375 48.1875 
Q 26.21875 48.1875 22.15625 43.53125 
Q 18.109375 38.875 18.109375 30.90625 
L 18.109375 0 
L 9.078125 0 
L 9.078125 54.6875 
L 18.109375 54.6875 
L 18.109375 46.1875 
Q 21.1875 51.21875 25.484375 53.609375 
Q 29.78125 56 35.6875 56 
Q 41.65625 56 45.828125 52.96875 
Q 50 49.953125 52 44.1875 
z
" id="DejaVuSans-6d"/>
     <path d="M 9.421875 54.6875 
L 18.40625 54.6875 
L 18.40625 0 
L 9.421875 0 
z
M 9.421875 75.984375 
L 18.40625 75.984375 
L 18.40625 64.59375 
L 9.421875 64.59375 
z
" id="DejaVuSans-69"/>
     <path d="M 44.28125 53.078125 
L 44.28125 44.578125 
Q 40.484375 46.53125 36.375 47.5 
Q 32.28125 48.484375 27.875 48.484375 
Q 21.1875 48.484375 17.84375 46.4375 
Q 14.5 44.390625 14.5 40.28125 
Q 14.5 37.15625 16.890625 35.375 
Q 19.28125 33.59375 26.515625 31.984375 
L 29.59375 31.296875 
Q 39.15625 29.25 43.1875 25.515625 
Q 47.21875 21.78125 47.21875 15.09375 
Q 47.21875 7.46875 41.1875 3.015625 
Q 35.15625 -1.421875 24.609375 -1.421875 
Q 20.21875 -1.421875 15.453125 -0.5625 
Q 10.6875 0.296875 5.421875 2 
L 5.421875 11.28125 
Q 10.40625 8.6875 15.234375 7.390625 
Q 20.0625 6.109375 24.8125 6.109375 
Q 31.15625 6.109375 34.5625 8.28125 
Q 37.984375 10.453125 37.984375 14.40625 
Q 37.984375 18.0625 35.515625 20.015625 
Q 33.0625 21.96875 24.703125 23.78125 
L 21.578125 24.515625 
Q 13.234375 26.265625 9.515625 29.90625 
Q 5.8125 33.546875 5.8125 39.890625 
Q 5.8125 47.609375 11.28125 51.796875 
Q 16.75 56 26.8125 56 
Q 31.78125 56 36.171875 55.265625 
Q 40.578125 54.546875 44.28125 53.078125 
z
" id="DejaVuSans-73"/>
    </defs>
    <g transform="translate(169.350082 17.36505)scale(0.12 -0.12)">
     <use xlink:href="#DejaVuSans-4d"/>
     <use x="86.279297" xlink:href="#DejaVuSans-65"/>
     <use x="147.802734" xlink:href="#DejaVuSans-61"/>
     <use x="209.082031" xlink:href="#DejaVuSans-6e"/>
     <use x="272.460938" xlink:href="#DejaVuSans-20"/>
     <use x="304.248047" xlink:href="#DejaVuSans-68"/>
     <use x="367.626953" xlink:href="#DejaVuSans-6f"/>
     <use x="428.808594" xlink:href="#DejaVuSans-75"/>
     <use x="492.1875" xlink:href="#DejaVuSans-72"/>
     <use x="533.300781" xlink:href="#DejaVuSans-6c"/>
     <use x="561.083984" xlink:href="#DejaVuSans-79"/>
     <use x="620.263672" xlink:href="#DejaVuSans-20"/>
     <use x="652.050781" xlink:href="#DejaVuSans-65"/>
     <use x="713.574219" xlink:href="#DejaVuSans-6d"/>
     <use x="810.986328" xlink:href="#DejaVuSans-69"/>
     <use x="838.769531" xlink:href="#DejaVuSans-73"/>
     <use x="890.869141" xlink:href="#DejaVuSans-73"/>
     <use x="942.96875" xlink:href="#DejaVuSans-69"/>
     <use x="970.751953" xlink:href="#DejaVuSans-6f"/>
     <use x="1031.933594" xlink:href="#DejaVuSans-6e"/>
     <use x="1095.3125" xlink:href="#DejaVuSans-73"/>
    </g>
   </g>
   <g id="legend_1">
    <g id="patch_7">
     <path d="M 359.944039 74.673854 
L 437.844039 74.673854 
Q 439.844039 74.673854 439.844039 72.673854 
L 439.844039 58.995729 
Q 439.844039 56.995729 437.844039 56.995729 
L 359.944039 56.995729 
Q 357.944039 56.995729 357.944039 58.995729 
L 357.944039 72.673854 
Q 357.944039 74.673854 359.944039 74.673854 
z
" style="fill:#ffffff;opacity:0.8;stroke:#cccccc;stroke-linejoin:miter;"/>
    </g>
    <g id="line2d_26">
     <path d="M 361.944039 65.094167 
L 381.944039 65.094167 
" style="fill:none;stroke:#008000;stroke-linecap:square;stroke-width:1.5;"/>
    </g>
    <g id="line2d_27"/>
    <g id="text_5">
     <!-- SO2 (lbs) -->
     <defs>
      <path d="M 53.515625 70.515625 
L 53.515625 60.890625 
Q 47.90625 63.578125 42.921875 64.890625 
Q 37.9375 66.21875 33.296875 66.21875 
Q 25.25 66.21875 20.875 63.09375 
Q 16.5 59.96875 16.5 54.203125 
Q 16.5 49.359375 19.40625 46.890625 
Q 22.3125 44.4375 30.421875 42.921875 
L 36.375 41.703125 
Q 47.40625 39.59375 52.65625 34.296875 
Q 57.90625 29 57.90625 20.125 
Q 57.90625 9.515625 50.796875 4.046875 
Q 43.703125 -1.421875 29.984375 -1.421875 
Q 24.8125 -1.421875 18.96875 -0.25 
Q 13.140625 0.921875 6.890625 3.21875 
L 6.890625 13.375 
Q 12.890625 10.015625 18.65625 8.296875 
Q 24.421875 6.59375 29.984375 6.59375 
Q 38.421875 6.59375 43.015625 9.90625 
Q 47.609375 13.234375 47.609375 19.390625 
Q 47.609375 24.75 44.3125 27.78125 
Q 41.015625 30.8125 33.5 32.328125 
L 27.484375 33.5 
Q 16.453125 35.6875 11.515625 40.375 
Q 6.59375 45.0625 6.59375 53.421875 
Q 6.59375 63.09375 13.40625 68.65625 
Q 20.21875 74.21875 32.171875 74.21875 
Q 37.3125 74.21875 42.625 73.28125 
Q 47.953125 72.359375 53.515625 70.515625 
z
" id="DejaVuSans-53"/>
      <path d="M 39.40625 66.21875 
Q 28.65625 66.21875 22.328125 58.203125 
Q 16.015625 50.203125 16.015625 36.375 
Q 16.015625 22.609375 22.328125 14.59375 
Q 28.65625 6.59375 39.40625 6.59375 
Q 50.140625 6.59375 56.421875 14.59375 
Q 62.703125 22.609375 62.703125 36.375 
Q 62.703125 50.203125 56.421875 58.203125 
Q 50.140625 66.21875 39.40625 66.21875 
z
M 39.40625 74.21875 
Q 54.734375 74.21875 63.90625 63.9375 
Q 73.09375 53.65625 73.09375 36.375 
Q 73.09375 19.140625 63.90625 8.859375 
Q 54.734375 -1.421875 39.40625 -1.421875 
Q 24.03125 -1.421875 14.8125 8.828125 
Q 5.609375 19.09375 5.609375 36.375 
Q 5.609375 53.65625 14.8125 63.9375 
Q 24.03125 74.21875 39.40625 74.21875 
z
" id="DejaVuSans-4f"/>
      <path d="M 31 75.875 
Q 24.46875 64.65625 21.28125 53.65625 
Q 18.109375 42.671875 18.109375 31.390625 
Q 18.109375 20.125 21.3125 9.0625 
Q 24.515625 -2 31 -13.1875 
L 23.1875 -13.1875 
Q 15.875 -1.703125 12.234375 9.375 
Q 8.59375 20.453125 8.59375 31.390625 
Q 8.59375 42.28125 12.203125 53.3125 
Q 15.828125 64.359375 23.1875 75.875 
z
" id="DejaVuSans-28"/>
      <path d="M 48.6875 27.296875 
Q 48.6875 37.203125 44.609375 42.84375 
Q 40.53125 48.484375 33.40625 48.484375 
Q 26.265625 48.484375 22.1875 42.84375 
Q 18.109375 37.203125 18.109375 27.296875 
Q 18.109375 17.390625 22.1875 11.75 
Q 26.265625 6.109375 33.40625 6.109375 
Q 40.53125 6.109375 44.609375 11.75 
Q 48.6875 17.390625 48.6875 27.296875 
z
M 18.109375 46.390625 
Q 20.953125 51.265625 25.265625 53.625 
Q 29.59375 56 35.59375 56 
Q 45.5625 56 51.78125 48.09375 
Q 58.015625 40.1875 58.015625 27.296875 
Q 58.015625 14.40625 51.78125 6.484375 
Q 45.5625 -1.421875 35.59375 -1.421875 
Q 29.59375 -1.421875 25.265625 0.953125 
Q 20.953125 3.328125 18.109375 8.203125 
L 18.109375 0 
L 9.078125 0 
L 9.078125 75.984375 
L 18.109375 75.984375 
z
" id="DejaVuSans-62"/>
      <path d="M 8.015625 75.875 
L 15.828125 75.875 
Q 23.140625 64.359375 26.78125 53.3125 
Q 30.421875 42.28125 30.421875 31.390625 
Q 30.421875 20.453125 26.78125 9.375 
Q 23.140625 -1.703125 15.828125 -13.1875 
L 8.015625 -13.1875 
Q 14.5 -2 17.703125 9.0625 
Q 20.90625 20.125 20.90625 31.390625 
Q 20.90625 42.671875 17.703125 53.65625 
Q 14.5 64.65625 8.015625 75.875 
z
" id="DejaVuSans-29"/>
     </defs>
     <g transform="translate(389.944039 68.594167)scale(0.1 -0.1)">
      <use xlink:href="#DejaVuSans-53"/>
      <use x="63.476562" xlink:href="#DejaVuSans-4f"/>
      <use x="142.1875" xlink:href="#DejaVuSans-32"/>
      <use x="205.810547" xlink:href="#DejaVuSans-20"/>
      <use x="237.597656" xlink:href="#DejaVuSans-28"/>
      <use x="276.611328" xlink:href="#DejaVuSans-6c"/>
      <use x="304.394531" xlink:href="#DejaVuSans-62"/>
      <use x="367.871094" xlink:href="#DejaVuSans-73"/>
      <use x="419.970703" xlink:href="#DejaVuSans-29"/>
     </g>
    </g>
   </g>
  </g>
  <g id="axes_2">
   <g id="patch_8">
    <path d="M 31.543 209.084017 
L 444.844039 209.084017 
L 444.844039 124.144533 
L 31.543 124.144533 
z
" style="fill:none;"/>
   </g>
   <g id="matplotlib.axis_3">
    <g id="xtick_10">
     <g id="line2d_28">
      <path clip-path="url(#p6af0a5fa06)" d="M 44.036411 209.084017 
L 44.036411 124.144533 
" style="fill:none;stroke:#b0b0b0;stroke-linecap:square;stroke-width:0.8;"/>
     </g>
     <g id="line2d_29">
      <g>
       <use style="stroke:#000000;stroke-width:0.8;" x="44.036411" xlink:href="#m7f29cea045" y="209.084017"/>
      </g>
     </g>
    </g>
    <g id="xtick_11">
     <g id="line2d_30">
      <path clip-path="url(#p6af0a5fa06)" d="M 93.60266 209.084017 
L 93.60266 124.144533 
" style="fill:none;stroke:#b0b0b0;stroke-linecap:square;stroke-width:0.8;"/>
     </g>
     <g id="line2d_31">
      <g>
       <use style="stroke:#000000;stroke-width:0.8;" x="93.60266" xlink:href="#m7f29cea045" y="209.084017"/>
      </g>
     </g>
    </g>
    <g id="xtick_12">
     <g id="line2d_32">
      <path clip-path="url(#p6af0a5fa06)" d="M 143.236808 209.084017 
L 143.236808 124.144533 
" style="fill:none;stroke:#b0b0b0;stroke-linecap:square;stroke-width:0.8;"/>
     </g>
     <g id="line2d_33">
      <g>
       <use style="stroke:#000000;stroke-width:0.8;" x="143.236808" xlink:href="#m7f29cea045" y="209.084017"/>
      </g>
     </g>
    </g>
    <g id="xtick_13">
     <g id="line2d_34">
      <path clip-path="url(#p6af0a5fa06)" d="M 192.803057 209.084017 
L 192.803057 124.144533 
" style="fill:none;stroke:#b0b0b0;stroke-linecap:square;stroke-width:0.8;"/>
     </g>
     <g id="line2d_35">
      <g>
       <use style="stroke:#000000;stroke-width:0.8;" x="192.803057" xlink:href="#m7f29cea045" y="209.084017"/>
      </g>
     </g>
    </g>
    <g id="xtick_14">
     <g id="line2d_36">
      <path clip-path="url(#p6af0a5fa06)" d="M 242.437205 209.084017 
L 242.437205 124.144533 
" style="fill:none;stroke:#b0b0b0;stroke-linecap:square;stroke-width:0.8;"/>
     </g>
     <g id="line2d_37">
      <g>
       <use style="stroke:#000000;stroke-width:0.8;" x="242.437205" xlink:href="#m7f29cea045" y="209.084017"/>
      </g>
     </g>
    </g>
    <g id="xtick_15">
     <g id="line2d_38">
      <path clip-path="url(#p6af0a5fa06)" d="M 292.003455 209.084017 
L 292.003455 124.144533 
" style="fill:none;stroke:#b0b0b0;stroke-linecap:square;stroke-width:0.8;"/>
     </g>
     <g id="line2d_39">
      <g>
       <use style="stroke:#000000;stroke-width:0.8;" x="292.003455" xlink:href="#m7f29cea045" y="209.084017"/>
      </g>
     </g>
    </g>
    <g id="xtick_16">
     <g id="line2d_40">
      <path clip-path="url(#p6af0a5fa06)" d="M 341.637603 209.084017 
L 341.637603 124.144533 
" style="fill:none;stroke:#b0b0b0;stroke-linecap:square;stroke-width:0.8;"/>
     </g>
     <g id="line2d_41">
      <g>
       <use style="stroke:#000000;stroke-width:0.8;" x="341.637603" xlink:href="#m7f29cea045" y="209.084017"/>
      </g>
     </g>
    </g>
    <g id="xtick_17">
     <g id="line2d_42">
      <path clip-path="url(#p6af0a5fa06)" d="M 391.203852 209.084017 
L 391.203852 124.144533 
" style="fill:none;stroke:#b0b0b0;stroke-linecap:square;stroke-width:0.8;"/>
     </g>
     <g id="line2d_43">
      <g>
       <use style="stroke:#000000;stroke-width:0.8;" x="391.203852" xlink:href="#m7f29cea045" y="209.084017"/>
      </g>
     </g>
    </g>
    <g id="xtick_18">
     <g id="line2d_44">
      <path clip-path="url(#p6af0a5fa06)" d="M 440.838 209.084017 
L 440.838 124.144533 
" style="fill:none;stroke:#b0b0b0;stroke-linecap:square;stroke-width:0.8;"/>
     </g>
     <g id="line2d_45">
      <g>
       <use style="stroke:#000000;stroke-width:0.8;" x="440.838" xlink:href="#m7f29cea045" y="209.084017"/>
      </g>
     </g>
    </g>
   </g>
   <g id="matplotlib.axis_4">
    <g id="ytick_4">
     <g id="line2d_46">
      <path clip-path="url(#p6af0a5fa06)" d="M 31.543 205.223131 
L 444.844039 205.223131 
" style="fill:none;stroke:#b0b0b0;stroke-linecap:square;stroke-width:0.8;"/>
     </g>
     <g id="line2d_47">
      <g>
       <use style="stroke:#000000;stroke-width:0.8;" x="31.543" xlink:href="#m9bfef643b8" y="205.223131"/>
      </g>
     </g>
     <g id="text_6">
      <!-- 0 -->
      <g transform="translate(18.1805 209.02235)scale(0.1 -0.1)">
       <use xlink:href="#DejaVuSans-30"/>
      </g>
     </g>
    </g>
    <g id="ytick_5">
     <g id="line2d_48">
      <path clip-path="url(#p6af0a5fa06)" d="M 31.543 165.315274 
L 444.844039 165.315274 
" style="fill:none;stroke:#b0b0b0;stroke-linecap:square;stroke-width:0.8;"/>
     </g>
     <g id="line2d_49">
      <g>
       <use style="stroke:#000000;stroke-width:0.8;" x="31.543" xlink:href="#m9bfef643b8" y="165.315274"/>
      </g>
     </g>
     <g id="text_7">
      <!-- 100 -->
      <g transform="translate(5.4555 169.114493)scale(0.1 -0.1)">
       <use xlink:href="#DejaVuSans-31"/>
       <use x="63.623047" xlink:href="#DejaVuSans-30"/>
       <use x="127.246094" xlink:href="#DejaVuSans-30"/>
      </g>
     </g>
    </g>
    <g id="ytick_6">
     <g id="line2d_50">
      <path clip-path="url(#p6af0a5fa06)" d="M 31.543 125.407417 
L 444.844039 125.407417 
" style="fill:none;stroke:#b0b0b0;stroke-linecap:square;stroke-width:0.8;"/>
     </g>
     <g id="line2d_51">
      <g>
       <use style="stroke:#000000;stroke-width:0.8;" x="31.543" xlink:href="#m9bfef643b8" y="125.407417"/>
      </g>
     </g>
     <g id="text_8">
      <!-- 200 -->
      <g transform="translate(5.4555 129.206636)scale(0.1 -0.1)">
       <use xlink:href="#DejaVuSans-32"/>
       <use x="63.623047" xlink:href="#DejaVuSans-30"/>
       <use x="127.246094" xlink:href="#DejaVuSans-30"/>
      </g>
     </g>
    </g>
   </g>
   <g id="line2d_52">
    <path clip-path="url(#p6af0a5fa06)" d="M 31.543 179.199218 
L 33.647868 184.690539 
L 35.752736 198.905717 
L 37.789705 199.304796 
L 39.894573 204.840016 
L 41.931543 203.215766 
L 44.036411 202.52536 
L 46.141279 204.540707 
L 48.04245 196.443403 
L 50.147318 204.265342 
L 52.184287 203.89819 
L 54.289155 201.45982 
L 56.326125 196.638951 
L 58.430993 199.117229 
L 60.535861 201.368032 
L 62.57283 200.250612 
L 64.677698 199.452455 
L 66.714667 201.132576 
L 68.819535 202.673019 
L 70.924403 204.532725 
L 72.825575 156.439767 
L 74.930443 128.005419 
L 76.967412 178.045881 
L 79.07228 200.154833 
L 81.109249 199.165118 
L 83.214117 198.446777 
L 85.318985 198.722141 
L 87.355955 199.48039 
L 89.460823 201.096659 
L 91.497792 199.67993 
L 93.60266 199.129201 
L 95.707528 198.8698 
L 97.676598 198.933653 
L 99.781466 200.605792 
L 101.818435 198.598427 
L 103.923304 198.965579 
L 105.960273 197.636647 
L 108.065141 198.115542 
L 110.170009 197.836187 
L 112.206978 197.927975 
L 114.311846 197.433117 
L 116.348815 197.3972 
L 118.453683 198.965579 
L 120.558552 198.007791 
L 122.459723 198.470722 
L 124.564591 199.424519 
L 126.60156 199.165118 
L 128.706428 199.32475 
L 130.743397 197.616694 
L 132.848265 197.405182 
L 134.953134 197.64862 
L 136.990103 201.30418 
L 139.094971 197.405182 
L 141.13194 197.724445 
L 143.236808 198.291136 
L 145.341676 197.888067 
L 147.242847 198.283155 
L 149.347715 200.960972 
L 151.384685 199.42851 
L 153.489553 198.929662 
L 155.526522 197.979855 
L 157.63139 198.087606 
L 159.736258 197.935956 
L 161.773227 198.450768 
L 163.878095 197.876095 
L 165.915065 197.816233 
L 168.019933 197.995818 
L 170.124801 200.246621 
L 172.025972 198.350998 
L 174.13084 198.797966 
L 176.167809 199.811626 
L 178.272677 198.271182 
L 180.309646 198.139486 
L 184.519383 198.211321 
L 186.556352 197.784307 
L 188.66122 197.568804 
L 190.698189 197.75238 
L 192.803057 197.736417 
L 194.907925 198.295127 
L 198.981864 197.836187 
L 201.018833 198.263201 
L 203.123701 197.780316 
L 207.265538 198.630353 
L 209.370406 197.884076 
L 211.407375 202.645084 
L 213.512244 201.348078 
L 215.549213 197.939947 
L 217.654081 199.360667 
L 219.758949 200.043091 
L 221.66012 198.446777 
L 223.764988 198.554528 
L 225.801957 198.323063 
L 227.906825 198.909708 
L 229.943795 197.979855 
L 232.048663 198.015772 
L 234.153531 197.80027 
L 236.1905 197.916002 
L 238.295368 198.354989 
L 240.332337 198.147468 
L 242.437205 199.520298 
L 244.542073 198.119533 
L 246.443245 198.215311 
L 248.548113 197.389219 
L 250.585082 199.484381 
L 252.68995 200.250612 
L 254.726919 198.961588 
L 256.831787 198.558519 
L 258.936655 198.039717 
L 260.973625 197.684537 
L 263.078493 198.099579 
L 265.115462 198.797966 
L 267.22033 203.706633 
L 269.325198 205.119371 
L 271.226369 202.541323 
L 273.331237 201.372023 
L 275.368207 204.169564 
L 277.473075 202.329811 
L 279.510044 200.386299 
L 281.614912 198.965579 
L 283.71978 199.013469 
L 285.756749 201.807019 
L 287.861617 202.026512 
L 289.898586 200.521986 
L 292.003455 200.362354 
L 294.108323 199.58016 
L 296.077393 198.486685 
L 298.182261 200.102953 
L 302.324098 199.097275 
L 304.361067 200.845239 
L 306.465935 199.975248 
L 308.570804 200.685608 
L 310.607773 199.88346 
L 312.712641 200.506022 
L 314.74961 204.979693 
L 316.854478 204.796117 
L 318.959346 205.223131 
L 322.965386 205.223131 
L 325.002355 204.923822 
L 329.144192 201.639406 
L 331.24906 201.942705 
L 333.353928 199.995202 
L 337.495765 200.310474 
L 339.532735 200.08699 
L 341.637603 201.144548 
L 343.742471 204.71231 
L 345.643642 202.146235 
L 347.74851 201.244318 
L 349.785479 201.252299 
L 351.890347 201.016843 
L 353.927317 199.600114 
L 358.137053 199.675939 
L 360.174022 199.077321 
L 362.27889 199.524289 
L 364.315859 199.791672 
L 366.420727 199.624059 
L 368.525595 205.21914 
L 372.531635 205.223131 
L 374.568604 204.213462 
L 376.673472 199.532271 
L 378.710441 199.568188 
L 380.815309 199.739792 
L 384.957146 199.78369 
L 389.098984 199.63204 
L 393.30872 200.310474 
L 395.27779 203.191821 
L 397.382658 200.960972 
L 399.419627 200.510013 
L 401.524496 199.843552 
L 405.666333 199.260897 
L 407.771201 199.508326 
L 409.80817 199.492363 
L 411.913038 200.150842 
L 413.950007 200.370336 
L 416.054875 199.743782 
L 418.159744 202.565268 
L 420.060915 202.429581 
L 422.165783 202.433572 
L 424.202752 203.100033 
L 426.30762 199.951303 
L 428.344589 199.360667 
L 430.449457 199.548234 
L 432.554325 199.855524 
L 434.591295 199.552225 
L 438.733132 199.460437 
L 440.838 203.251683 
L 442.942868 202.305867 
L 444.844039 201.280235 
L 444.844039 201.280235 
" style="fill:none;stroke:#f97306;stroke-linecap:square;stroke-width:1.5;"/>
   </g>
   <g id="patch_9">
    <path d="M 31.543 209.084017 
L 31.543 124.144533 
" style="fill:none;stroke:#000000;stroke-linecap:square;stroke-linejoin:miter;stroke-width:0.8;"/>
   </g>
   <g id="patch_10">
    <path d="M 444.844039 209.084017 
L 444.844039 124.144533 
" style="fill:none;stroke:#000000;stroke-linecap:square;stroke-linejoin:miter;stroke-width:0.8;"/>
   </g>
   <g id="patch_11">
    <path d="M 31.543 209.084017 
L 444.844039 209.084017 
" style="fill:none;stroke:#000000;stroke-linecap:square;stroke-linejoin:miter;stroke-width:0.8;"/>
   </g>
   <g id="patch_12">
    <path d="M 31.543 124.144533 
L 444.844039 124.144533 
" style="fill:none;stroke:#000000;stroke-linecap:square;stroke-linejoin:miter;stroke-width:0.8;"/>
   </g>
   <g id="legend_2">
    <g id="patch_13">
     <path d="M 359.254977 146.822658 
L 437.844039 146.822658 
Q 439.844039 146.822658 439.844039 144.822658 
L 439.844039 131.144533 
Q 439.844039 129.144533 437.844039 129.144533 
L 359.254977 129.144533 
Q 357.254977 129.144533 357.254977 131.144533 
L 357.254977 144.822658 
Q 357.254977 146.822658 359.254977 146.822658 
z
" style="fill:#ffffff;opacity:0.8;stroke:#cccccc;stroke-linejoin:miter;"/>
    </g>
    <g id="line2d_53">
     <path d="M 361.254977 137.242971 
L 381.254977 137.242971 
" style="fill:none;stroke:#f97306;stroke-linecap:square;stroke-width:1.5;"/>
    </g>
    <g id="line2d_54"/>
    <g id="text_9">
     <!-- NOx (lbs) -->
     <defs>
      <path d="M 9.8125 72.90625 
L 23.09375 72.90625 
L 55.421875 11.921875 
L 55.421875 72.90625 
L 64.984375 72.90625 
L 64.984375 0 
L 51.703125 0 
L 19.390625 60.984375 
L 19.390625 0 
L 9.8125 0 
z
" id="DejaVuSans-4e"/>
      <path d="M 54.890625 54.6875 
L 35.109375 28.078125 
L 55.90625 0 
L 45.3125 0 
L 29.390625 21.484375 
L 13.484375 0 
L 2.875 0 
L 24.125 28.609375 
L 4.6875 54.6875 
L 15.28125 54.6875 
L 29.78125 35.203125 
L 44.28125 54.6875 
z
" id="DejaVuSans-78"/>
     </defs>
     <g transform="translate(389.254977 140.742971)scale(0.1 -0.1)">
      <use xlink:href="#DejaVuSans-4e"/>
      <use x="74.804688" xlink:href="#DejaVuSans-4f"/>
      <use x="153.515625" xlink:href="#DejaVuSans-78"/>
      <use x="212.695312" xlink:href="#DejaVuSans-20"/>
      <use x="244.482422" xlink:href="#DejaVuSans-28"/>
      <use x="283.496094" xlink:href="#DejaVuSans-6c"/>
      <use x="311.279297" xlink:href="#DejaVuSans-62"/>
      <use x="374.755859" xlink:href="#DejaVuSans-73"/>
      <use x="426.855469" xlink:href="#DejaVuSans-29"/>
     </g>
    </g>
   </g>
  </g>
  <g id="axes_3">
   <g id="patch_14">
    <path d="M 31.543 309.8635 
L 444.844039 309.8635 
L 444.844039 224.924017 
L 31.543 224.924017 
z
" style="fill:none;"/>
   </g>
   <g id="matplotlib.axis_5">
    <g id="xtick_19">
     <g id="line2d_55">
      <path clip-path="url(#pf5cc9d6b18)" d="M 44.036411 309.8635 
L 44.036411 224.924017 
" style="fill:none;stroke:#b0b0b0;stroke-linecap:square;stroke-width:0.8;"/>
     </g>
     <g id="line2d_56">
      <g>
       <use style="stroke:#000000;stroke-width:0.8;" x="44.036411" xlink:href="#m7f29cea045" y="309.8635"/>
      </g>
     </g>
     <g id="text_10">
      <!-- 2002 -->
      <g transform="translate(31.311411 324.461937)scale(0.1 -0.1)">
       <use xlink:href="#DejaVuSans-32"/>
       <use x="63.623047" xlink:href="#DejaVuSans-30"/>
       <use x="127.246094" xlink:href="#DejaVuSans-30"/>
       <use x="190.869141" xlink:href="#DejaVuSans-32"/>
      </g>
     </g>
    </g>
    <g id="xtick_20">
     <g id="line2d_57">
      <path clip-path="url(#pf5cc9d6b18)" d="M 93.60266 309.8635 
L 93.60266 224.924017 
" style="fill:none;stroke:#b0b0b0;stroke-linecap:square;stroke-width:0.8;"/>
     </g>
     <g id="line2d_58">
      <g>
       <use style="stroke:#000000;stroke-width:0.8;" x="93.60266" xlink:href="#m7f29cea045" y="309.8635"/>
      </g>
     </g>
     <g id="text_11">
      <!-- 2004 -->
      <defs>
       <path d="M 37.796875 64.3125 
L 12.890625 25.390625 
L 37.796875 25.390625 
z
M 35.203125 72.90625 
L 47.609375 72.90625 
L 47.609375 25.390625 
L 58.015625 25.390625 
L 58.015625 17.1875 
L 47.609375 17.1875 
L 47.609375 0 
L 37.796875 0 
L 37.796875 17.1875 
L 4.890625 17.1875 
L 4.890625 26.703125 
z
" id="DejaVuSans-34"/>
      </defs>
      <g transform="translate(80.87766 324.461937)scale(0.1 -0.1)">
       <use xlink:href="#DejaVuSans-32"/>
       <use x="63.623047" xlink:href="#DejaVuSans-30"/>
       <use x="127.246094" xlink:href="#DejaVuSans-30"/>
       <use x="190.869141" xlink:href="#DejaVuSans-34"/>
      </g>
     </g>
    </g>
    <g id="xtick_21">
     <g id="line2d_59">
      <path clip-path="url(#pf5cc9d6b18)" d="M 143.236808 309.8635 
L 143.236808 224.924017 
" style="fill:none;stroke:#b0b0b0;stroke-linecap:square;stroke-width:0.8;"/>
     </g>
     <g id="line2d_60">
      <g>
       <use style="stroke:#000000;stroke-width:0.8;" x="143.236808" xlink:href="#m7f29cea045" y="309.8635"/>
      </g>
     </g>
     <g id="text_12">
      <!-- 2006 -->
      <defs>
       <path d="M 33.015625 40.375 
Q 26.375 40.375 22.484375 35.828125 
Q 18.609375 31.296875 18.609375 23.390625 
Q 18.609375 15.53125 22.484375 10.953125 
Q 26.375 6.390625 33.015625 6.390625 
Q 39.65625 6.390625 43.53125 10.953125 
Q 47.40625 15.53125 47.40625 23.390625 
Q 47.40625 31.296875 43.53125 35.828125 
Q 39.65625 40.375 33.015625 40.375 
z
M 52.59375 71.296875 
L 52.59375 62.3125 
Q 48.875 64.0625 45.09375 64.984375 
Q 41.3125 65.921875 37.59375 65.921875 
Q 27.828125 65.921875 22.671875 59.328125 
Q 17.53125 52.734375 16.796875 39.40625 
Q 19.671875 43.65625 24.015625 45.921875 
Q 28.375 48.1875 33.59375 48.1875 
Q 44.578125 48.1875 50.953125 41.515625 
Q 57.328125 34.859375 57.328125 23.390625 
Q 57.328125 12.15625 50.6875 5.359375 
Q 44.046875 -1.421875 33.015625 -1.421875 
Q 20.359375 -1.421875 13.671875 8.265625 
Q 6.984375 17.96875 6.984375 36.375 
Q 6.984375 53.65625 15.1875 63.9375 
Q 23.390625 74.21875 37.203125 74.21875 
Q 40.921875 74.21875 44.703125 73.484375 
Q 48.484375 72.75 52.59375 71.296875 
z
" id="DejaVuSans-36"/>
      </defs>
      <g transform="translate(130.511808 324.461937)scale(0.1 -0.1)">
       <use xlink:href="#DejaVuSans-32"/>
       <use x="63.623047" xlink:href="#DejaVuSans-30"/>
       <use x="127.246094" xlink:href="#DejaVuSans-30"/>
       <use x="190.869141" xlink:href="#DejaVuSans-36"/>
      </g>
     </g>
    </g>
    <g id="xtick_22">
     <g id="line2d_61">
      <path clip-path="url(#pf5cc9d6b18)" d="M 192.803057 309.8635 
L 192.803057 224.924017 
" style="fill:none;stroke:#b0b0b0;stroke-linecap:square;stroke-width:0.8;"/>
     </g>
     <g id="line2d_62">
      <g>
       <use style="stroke:#000000;stroke-width:0.8;" x="192.803057" xlink:href="#m7f29cea045" y="309.8635"/>
      </g>
     </g>
     <g id="text_13">
      <!-- 2008 -->
      <defs>
       <path d="M 31.78125 34.625 
Q 24.75 34.625 20.71875 30.859375 
Q 16.703125 27.09375 16.703125 20.515625 
Q 16.703125 13.921875 20.71875 10.15625 
Q 24.75 6.390625 31.78125 6.390625 
Q 38.8125 6.390625 42.859375 10.171875 
Q 46.921875 13.96875 46.921875 20.515625 
Q 46.921875 27.09375 42.890625 30.859375 
Q 38.875 34.625 31.78125 34.625 
z
M 21.921875 38.8125 
Q 15.578125 40.375 12.03125 44.71875 
Q 8.5 49.078125 8.5 55.328125 
Q 8.5 64.0625 14.71875 69.140625 
Q 20.953125 74.21875 31.78125 74.21875 
Q 42.671875 74.21875 48.875 69.140625 
Q 55.078125 64.0625 55.078125 55.328125 
Q 55.078125 49.078125 51.53125 44.71875 
Q 48 40.375 41.703125 38.8125 
Q 48.828125 37.15625 52.796875 32.3125 
Q 56.78125 27.484375 56.78125 20.515625 
Q 56.78125 9.90625 50.3125 4.234375 
Q 43.84375 -1.421875 31.78125 -1.421875 
Q 19.734375 -1.421875 13.25 4.234375 
Q 6.78125 9.90625 6.78125 20.515625 
Q 6.78125 27.484375 10.78125 32.3125 
Q 14.796875 37.15625 21.921875 38.8125 
z
M 18.3125 54.390625 
Q 18.3125 48.734375 21.84375 45.5625 
Q 25.390625 42.390625 31.78125 42.390625 
Q 38.140625 42.390625 41.71875 45.5625 
Q 45.3125 48.734375 45.3125 54.390625 
Q 45.3125 60.0625 41.71875 63.234375 
Q 38.140625 66.40625 31.78125 66.40625 
Q 25.390625 66.40625 21.84375 63.234375 
Q 18.3125 60.0625 18.3125 54.390625 
z
" id="DejaVuSans-38"/>
      </defs>
      <g transform="translate(180.078057 324.461937)scale(0.1 -0.1)">
       <use xlink:href="#DejaVuSans-32"/>
       <use x="63.623047" xlink:href="#DejaVuSans-30"/>
       <use x="127.246094" xlink:href="#DejaVuSans-30"/>
       <use x="190.869141" xlink:href="#DejaVuSans-38"/>
      </g>
     </g>
    </g>
    <g id="xtick_23">
     <g id="line2d_63">
      <path clip-path="url(#pf5cc9d6b18)" d="M 242.437205 309.8635 
L 242.437205 224.924017 
" style="fill:none;stroke:#b0b0b0;stroke-linecap:square;stroke-width:0.8;"/>
     </g>
     <g id="line2d_64">
      <g>
       <use style="stroke:#000000;stroke-width:0.8;" x="242.437205" xlink:href="#m7f29cea045" y="309.8635"/>
      </g>
     </g>
     <g id="text_14">
      <!-- 2010 -->
      <g transform="translate(229.712205 324.461937)scale(0.1 -0.1)">
       <use xlink:href="#DejaVuSans-32"/>
       <use x="63.623047" xlink:href="#DejaVuSans-30"/>
       <use x="127.246094" xlink:href="#DejaVuSans-31"/>
       <use x="190.869141" xlink:href="#DejaVuSans-30"/>
      </g>
     </g>
    </g>
    <g id="xtick_24">
     <g id="line2d_65">
      <path clip-path="url(#pf5cc9d6b18)" d="M 292.003455 309.8635 
L 292.003455 224.924017 
" style="fill:none;stroke:#b0b0b0;stroke-linecap:square;stroke-width:0.8;"/>
     </g>
     <g id="line2d_66">
      <g>
       <use style="stroke:#000000;stroke-width:0.8;" x="292.003455" xlink:href="#m7f29cea045" y="309.8635"/>
      </g>
     </g>
     <g id="text_15">
      <!-- 2012 -->
      <g transform="translate(279.278455 324.461937)scale(0.1 -0.1)">
       <use xlink:href="#DejaVuSans-32"/>
       <use x="63.623047" xlink:href="#DejaVuSans-30"/>
       <use x="127.246094" xlink:href="#DejaVuSans-31"/>
       <use x="190.869141" xlink:href="#DejaVuSans-32"/>
      </g>
     </g>
    </g>
    <g id="xtick_25">
     <g id="line2d_67">
      <path clip-path="url(#pf5cc9d6b18)" d="M 341.637603 309.8635 
L 341.637603 224.924017 
" style="fill:none;stroke:#b0b0b0;stroke-linecap:square;stroke-width:0.8;"/>
     </g>
     <g id="line2d_68">
      <g>
       <use style="stroke:#000000;stroke-width:0.8;" x="341.637603" xlink:href="#m7f29cea045" y="309.8635"/>
      </g>
     </g>
     <g id="text_16">
      <!-- 2014 -->
      <g transform="translate(328.912603 324.461937)scale(0.1 -0.1)">
       <use xlink:href="#DejaVuSans-32"/>
       <use x="63.623047" xlink:href="#DejaVuSans-30"/>
       <use x="127.246094" xlink:href="#DejaVuSans-31"/>
       <use x="190.869141" xlink:href="#DejaVuSans-34"/>
      </g>
     </g>
    </g>
    <g id="xtick_26">
     <g id="line2d_69">
      <path clip-path="url(#pf5cc9d6b18)" d="M 391.203852 309.8635 
L 391.203852 224.924017 
" style="fill:none;stroke:#b0b0b0;stroke-linecap:square;stroke-width:0.8;"/>
     </g>
     <g id="line2d_70">
      <g>
       <use style="stroke:#000000;stroke-width:0.8;" x="391.203852" xlink:href="#m7f29cea045" y="309.8635"/>
      </g>
     </g>
     <g id="text_17">
      <!-- 2016 -->
      <g transform="translate(378.478852 324.461937)scale(0.1 -0.1)">
       <use xlink:href="#DejaVuSans-32"/>
       <use x="63.623047" xlink:href="#DejaVuSans-30"/>
       <use x="127.246094" xlink:href="#DejaVuSans-31"/>
       <use x="190.869141" xlink:href="#DejaVuSans-36"/>
      </g>
     </g>
    </g>
    <g id="xtick_27">
     <g id="line2d_71">
      <path clip-path="url(#pf5cc9d6b18)" d="M 440.838 309.8635 
L 440.838 224.924017 
" style="fill:none;stroke:#b0b0b0;stroke-linecap:square;stroke-width:0.8;"/>
     </g>
     <g id="line2d_72">
      <g>
       <use style="stroke:#000000;stroke-width:0.8;" x="440.838" xlink:href="#m7f29cea045" y="309.8635"/>
      </g>
     </g>
     <g id="text_18">
      <!-- 2018 -->
      <g transform="translate(428.113 324.461937)scale(0.1 -0.1)">
       <use xlink:href="#DejaVuSans-32"/>
       <use x="63.623047" xlink:href="#DejaVuSans-30"/>
       <use x="127.246094" xlink:href="#DejaVuSans-31"/>
       <use x="190.869141" xlink:href="#DejaVuSans-38"/>
      </g>
     </g>
    </g>
    <g id="text_19">
     <!-- Date -->
     <defs>
      <path d="M 19.671875 64.796875 
L 19.671875 8.109375 
L 31.59375 8.109375 
Q 46.6875 8.109375 53.6875 14.9375 
Q 60.6875 21.78125 60.6875 36.53125 
Q 60.6875 51.171875 53.6875 57.984375 
Q 46.6875 64.796875 31.59375 64.796875 
z
M 9.8125 72.90625 
L 30.078125 72.90625 
Q 51.265625 72.90625 61.171875 64.09375 
Q 71.09375 55.28125 71.09375 36.53125 
Q 71.09375 17.671875 61.125 8.828125 
Q 51.171875 0 30.078125 0 
L 9.8125 0 
z
" id="DejaVuSans-44"/>
      <path d="M 18.3125 70.21875 
L 18.3125 54.6875 
L 36.8125 54.6875 
L 36.8125 47.703125 
L 18.3125 47.703125 
L 18.3125 18.015625 
Q 18.3125 11.328125 20.140625 9.421875 
Q 21.96875 7.515625 27.59375 7.515625 
L 36.8125 7.515625 
L 36.8125 0 
L 27.59375 0 
Q 17.1875 0 13.234375 3.875 
Q 9.28125 7.765625 9.28125 18.015625 
L 9.28125 47.703125 
L 2.6875 47.703125 
L 2.6875 54.6875 
L 9.28125 54.6875 
L 9.28125 70.21875 
z
" id="DejaVuSans-74"/>
     </defs>
     <g transform="translate(226.242738 338.140062)scale(0.1 -0.1)">
      <use xlink:href="#DejaVuSans-44"/>
      <use x="77.001953" xlink:href="#DejaVuSans-61"/>
      <use x="138.28125" xlink:href="#DejaVuSans-74"/>
      <use x="177.490234" xlink:href="#DejaVuSans-65"/>
     </g>
    </g>
   </g>
   <g id="matplotlib.axis_6">
    <g id="ytick_7">
     <g id="line2d_73">
      <path clip-path="url(#pf5cc9d6b18)" d="M 31.543 306.002614 
L 444.844039 306.002614 
" style="fill:none;stroke:#b0b0b0;stroke-linecap:square;stroke-width:0.8;"/>
     </g>
     <g id="line2d_74">
      <g>
       <use style="stroke:#000000;stroke-width:0.8;" x="31.543" xlink:href="#m9bfef643b8" y="306.002614"/>
      </g>
     </g>
     <g id="text_20">
      <!-- 0 -->
      <g transform="translate(18.1805 309.801833)scale(0.1 -0.1)">
       <use xlink:href="#DejaVuSans-30"/>
      </g>
     </g>
    </g>
    <g id="ytick_8">
     <g id="line2d_75">
      <path clip-path="url(#pf5cc9d6b18)" d="M 31.543 270.544235 
L 444.844039 270.544235 
" style="fill:none;stroke:#b0b0b0;stroke-linecap:square;stroke-width:0.8;"/>
     </g>
     <g id="line2d_76">
      <g>
       <use style="stroke:#000000;stroke-width:0.8;" x="31.543" xlink:href="#m9bfef643b8" y="270.544235"/>
      </g>
     </g>
     <g id="text_21">
      <!-- 100 -->
      <g transform="translate(5.4555 274.343454)scale(0.1 -0.1)">
       <use xlink:href="#DejaVuSans-31"/>
       <use x="63.623047" xlink:href="#DejaVuSans-30"/>
       <use x="127.246094" xlink:href="#DejaVuSans-30"/>
      </g>
     </g>
    </g>
    <g id="ytick_9">
     <g id="line2d_77">
      <path clip-path="url(#pf5cc9d6b18)" d="M 31.543 235.085856 
L 444.844039 235.085856 
" style="fill:none;stroke:#b0b0b0;stroke-linecap:square;stroke-width:0.8;"/>
     </g>
     <g id="line2d_78">
      <g>
       <use style="stroke:#000000;stroke-width:0.8;" x="31.543" xlink:href="#m9bfef643b8" y="235.085856"/>
      </g>
     </g>
     <g id="text_22">
      <!-- 200 -->
      <g transform="translate(5.4555 238.885075)scale(0.1 -0.1)">
       <use xlink:href="#DejaVuSans-32"/>
       <use x="63.623047" xlink:href="#DejaVuSans-30"/>
       <use x="127.246094" xlink:href="#DejaVuSans-30"/>
      </g>
     </g>
    </g>
   </g>
   <g id="line2d_79">
    <path clip-path="url(#pf5cc9d6b18)" d="M 31.543 273.46246 
L 33.647868 265.448866 
L 35.752736 294.379358 
L 37.789705 294.829679 
L 39.894573 305.30763 
L 41.931543 303.112756 
L 44.036411 301.797251 
L 46.141279 305.031055 
L 48.04245 289.450643 
L 50.147318 304.350254 
L 52.184287 303.272319 
L 54.289155 298.691097 
L 56.326125 289.07833 
L 58.430993 293.570907 
L 60.535861 298.496076 
L 62.57283 296.347298 
L 64.677698 294.783583 
L 66.714667 298.286871 
L 68.819535 301.002983 
L 70.924403 304.637467 
L 72.825575 304.392804 
L 74.930443 303.456703 
L 76.967412 269.459209 
L 79.07228 268.06924 
L 81.109249 259.740067 
L 83.214117 247.244534 
L 85.318985 252.081057 
L 87.355955 259.4564 
L 89.460823 276.57216 
L 91.497792 264.885078 
L 93.60266 260.388956 
L 95.707528 258.428107 
L 97.676598 259.576959 
L 99.781466 275.834625 
L 101.818435 254.573781 
L 103.923304 257.988423 
L 105.960273 236.479371 
L 108.065141 244.244756 
L 110.170009 245.503528 
L 112.206978 240.525172 
L 114.311846 231.369818 
L 116.348815 231.454918 
L 118.453683 251.378981 
L 120.558552 240.486167 
L 124.564591 263.044788 
L 126.60156 258.116073 
L 128.706428 262.161875 
L 130.743397 238.691973 
L 132.848265 230.600371 
L 134.953134 232.490303 
L 136.990103 268.679125 
L 139.094971 228.784902 
L 141.13194 233.997284 
L 143.236808 244.05328 
L 145.341676 235.018485 
L 147.242847 243.376025 
L 149.347715 271.490974 
L 151.384685 262.303708 
L 153.489553 258.768508 
L 155.526522 237.514755 
L 157.63139 237.918981 
L 159.736258 233.749075 
L 161.773227 241.00386 
L 163.878095 234.635535 
L 165.915065 235.592911 
L 168.019933 236.8375 
L 170.124801 259.77198 
L 172.025972 244.301489 
L 174.13084 257.158697 
L 176.167809 261.835657 
L 178.272677 247.251626 
L 180.309646 245.950304 
L 182.414515 239.50397 
L 184.519383 239.000461 
L 186.556352 234.454697 
L 188.66122 232.582495 
L 190.698189 232.490303 
L 192.803057 233.710071 
L 194.907925 239.769908 
L 196.876996 236.940329 
L 198.981864 234.958206 
L 201.018833 243.071083 
L 203.123701 249.879092 
L 205.16067 240.362063 
L 207.265538 241.461273 
L 209.370406 232.848433 
L 211.407375 282.614268 
L 213.512244 268.218166 
L 215.549213 235.557453 
L 217.654081 248.450119 
L 219.758949 256.821843 
L 221.66012 242.330003 
L 223.764988 249.48905 
L 227.906825 260.700989 
L 229.943795 245.528349 
L 232.048663 240.07485 
L 234.153531 238.291294 
L 236.1905 239.922379 
L 238.295368 241.365535 
L 240.332337 240.120946 
L 242.437205 255.197849 
L 244.542073 241.74494 
L 246.443245 240.585451 
L 248.548113 235.773749 
L 250.585082 258.098344 
L 252.68995 278.192608 
L 254.726919 266.126121 
L 256.831787 261.63709 
L 258.936655 249.581242 
L 260.973625 235.759565 
L 263.078493 239.638712 
L 265.115462 250.308138 
L 267.22033 294.035411 
L 269.325198 305.956519 
L 271.226369 289.461281 
L 273.331237 279.334367 
L 275.368207 298.70528 
L 277.473075 287.057202 
L 279.510044 274.462386 
L 281.614912 266.041021 
L 283.71978 265.853092 
L 285.756749 281.483145 
L 287.861617 283.227698 
L 289.898586 271.74982 
L 292.003455 272.310063 
L 294.108323 262.3959 
L 296.077393 251.676832 
L 298.182261 269.920168 
L 300.21923 267.725294 
L 302.324098 266.721822 
L 304.361067 277.267144 
L 306.465935 266.700547 
L 308.570804 268.622391 
L 310.607773 253.166084 
L 312.712641 266.338872 
L 314.74961 304.772209 
L 316.854478 303.938937 
L 318.959346 306.002614 
L 322.965386 306.002614 
L 325.002355 304.935317 
L 327.107223 292.053288 
L 329.144192 278.728029 
L 331.24906 274.402107 
L 333.353928 257.374993 
L 335.390897 261.50944 
L 337.495765 255.325499 
L 339.532735 261.261232 
L 341.637603 269.78188 
L 343.742471 300.01724 
L 345.643642 283.029131 
L 347.74851 266.746643 
L 349.785479 267.955774 
L 351.890347 266.516163 
L 353.927317 246.606284 
L 356.032185 240.333696 
L 360.174022 239.213212 
L 362.27889 243.092358 
L 364.315859 242.684587 
L 366.420727 241.230793 
L 368.525595 305.991977 
L 372.531635 306.002614 
L 374.568604 295.641676 
L 376.673472 239.220303 
L 378.710441 240.152859 
L 380.815309 240.057121 
L 382.920177 238.365756 
L 384.957146 238.383485 
L 387.062015 242.301636 
L 389.098984 241.869044 
L 393.30872 248.957174 
L 395.27779 285.752334 
L 397.382658 258.282728 
L 399.419627 251.953407 
L 401.524496 241.25916 
L 403.561465 236.755946 
L 405.666333 234.146209 
L 407.771201 236.316262 
L 409.80817 235.887216 
L 411.913038 245.631178 
L 413.950007 251.800936 
L 416.054875 248.840161 
L 418.159744 283.646106 
L 420.060915 285.606955 
L 422.165783 286.117555 
L 424.202752 284.919062 
L 426.30762 253.251184 
L 428.344589 237.950893 
L 430.449457 239.681262 
L 432.554325 246.361621 
L 434.591295 239.567795 
L 436.696163 239.525245 
L 438.733132 241.432906 
L 440.838 287.55362 
L 442.942868 278.791854 
L 444.844039 268.601116 
L 444.844039 268.601116 
" style="fill:none;stroke:#4682b4;stroke-linecap:square;stroke-width:1.5;"/>
   </g>
   <g id="patch_15">
    <path d="M 31.543 309.8635 
L 31.543 224.924017 
" style="fill:none;stroke:#000000;stroke-linecap:square;stroke-linejoin:miter;stroke-width:0.8;"/>
   </g>
   <g id="patch_16">
    <path d="M 444.844039 309.8635 
L 444.844039 224.924017 
" style="fill:none;stroke:#000000;stroke-linecap:square;stroke-linejoin:miter;stroke-width:0.8;"/>
   </g>
   <g id="patch_17">
    <path d="M 31.543 309.8635 
L 444.844039 309.8635 
" style="fill:none;stroke:#000000;stroke-linecap:square;stroke-linejoin:miter;stroke-width:0.8;"/>
   </g>
   <g id="patch_18">
    <path d="M 31.543 224.924017 
L 444.844039 224.924017 
" style="fill:none;stroke:#000000;stroke-linecap:square;stroke-linejoin:miter;stroke-width:0.8;"/>
   </g>
   <g id="legend_3">
    <g id="patch_19">
     <path d="M 352.059664 304.8635 
L 437.844039 304.8635 
Q 439.844039 304.8635 439.844039 302.8635 
L 439.844039 289.185375 
Q 439.844039 287.185375 437.844039 287.185375 
L 352.059664 287.185375 
Q 350.059664 287.185375 350.059664 289.185375 
L 350.059664 302.8635 
Q 350.059664 304.8635 352.059664 304.8635 
z
" style="fill:#ffffff;opacity:0.8;stroke:#cccccc;stroke-linejoin:miter;"/>
    </g>
    <g id="line2d_80">
     <path d="M 354.059664 295.283812 
L 374.059664 295.283812 
" style="fill:none;stroke:#4682b4;stroke-linecap:square;stroke-width:1.5;"/>
    </g>
    <g id="line2d_81"/>
    <g id="text_23">
     <!-- CO2 (tons) -->
     <defs>
      <path d="M 64.40625 67.28125 
L 64.40625 56.890625 
Q 59.421875 61.53125 53.78125 63.8125 
Q 48.140625 66.109375 41.796875 66.109375 
Q 29.296875 66.109375 22.65625 58.46875 
Q 16.015625 50.828125 16.015625 36.375 
Q 16.015625 21.96875 22.65625 14.328125 
Q 29.296875 6.6875 41.796875 6.6875 
Q 48.140625 6.6875 53.78125 8.984375 
Q 59.421875 11.28125 64.40625 15.921875 
L 64.40625 5.609375 
Q 59.234375 2.09375 53.4375 0.328125 
Q 47.65625 -1.421875 41.21875 -1.421875 
Q 24.65625 -1.421875 15.125 8.703125 
Q 5.609375 18.84375 5.609375 36.375 
Q 5.609375 53.953125 15.125 64.078125 
Q 24.65625 74.21875 41.21875 74.21875 
Q 47.75 74.21875 53.53125 72.484375 
Q 59.328125 70.75 64.40625 67.28125 
z
" id="DejaVuSans-43"/>
     </defs>
     <g transform="translate(382.059664 298.783812)scale(0.1 -0.1)">
      <use xlink:href="#DejaVuSans-43"/>
      <use x="69.824219" xlink:href="#DejaVuSans-4f"/>
      <use x="148.535156" xlink:href="#DejaVuSans-32"/>
      <use x="212.158203" xlink:href="#DejaVuSans-20"/>
      <use x="243.945312" xlink:href="#DejaVuSans-28"/>
      <use x="282.958984" xlink:href="#DejaVuSans-74"/>
      <use x="322.167969" xlink:href="#DejaVuSans-6f"/>
      <use x="383.349609" xlink:href="#DejaVuSans-6e"/>
      <use x="446.728516" xlink:href="#DejaVuSans-73"/>
      <use x="498.828125" xlink:href="#DejaVuSans-29"/>
     </g>
    </g>
   </g>
  </g>
 </g>
 <defs>
  <clipPath id="p0fa074e236">
   <rect height="84.939483" width="413.301039" x="31.543" y="23.36505"/>
  </clipPath>
  <clipPath id="p6af0a5fa06">
   <rect height="84.939483" width="413.301039" x="31.543" y="124.144533"/>
  </clipPath>
  <clipPath id="pf5cc9d6b18">
   <rect height="84.939483" width="413.301039" x="31.543" y="224.924017"/>
  </clipPath>
 </defs>
</svg>
