<?xml version="1.0" encoding="utf-8" standalone="no"?>
<!DOCTYPE svg PUBLIC "-//W3C//DTD SVG 1.1//EN"
  "http://www.w3.org/Graphics/SVG/1.1/DTD/svg11.dtd">
<!-- Created with matplotlib (http://matplotlib.org/) -->
<svg height="345.6pt" version="1.1" viewBox="0 0 460.8 345.6" width="460.8pt" xmlns="http://www.w3.org/2000/svg" xmlns:xlink="http://www.w3.org/1999/xlink">
 <defs>
  <style type="text/css">
*{stroke-linecap:butt;stroke-linejoin:round;}
  </style>
 </defs>
 <g id="figure_1">
  <g id="patch_1">
   <path d="M 0 345.6 
L 460.8 345.6 
L 460.8 0 
L 0 0 
z
" style="fill:none;"/>
  </g>
  <g id="axes_1">
   <g id="patch_2">
    <path d="M 31.543 108.304533 
L 445.05526 108.304533 
L 445.05526 23.36505 
L 31.543 23.36505 
z
" style="fill:none;"/>
   </g>
   <g id="matplotlib.axis_1">
    <g id="xtick_1">
     <g id="line2d_1">
      <path clip-path="url(#pf2b9154aa2)" d="M 71.21763 108.304533 
L 71.21763 23.36505 
" style="fill:none;stroke:#b0b0b0;stroke-linecap:square;stroke-width:0.8;"/>
     </g>
     <g id="line2d_2">
      <defs>
       <path d="M 0 0 
L 0 3.5 
" id="m537e63c4b9" style="stroke:#000000;stroke-width:0.8;"/>
      </defs>
      <g>
       <use style="stroke:#000000;stroke-width:0.8;" x="71.21763" xlink:href="#m537e63c4b9" y="108.304533"/>
      </g>
     </g>
    </g>
    <g id="xtick_2">
     <g id="line2d_3">
      <path clip-path="url(#pf2b9154aa2)" d="M 124.044869 108.304533 
L 124.044869 23.36505 
" style="fill:none;stroke:#b0b0b0;stroke-linecap:square;stroke-width:0.8;"/>
     </g>
     <g id="line2d_4">
      <g>
       <use style="stroke:#000000;stroke-width:0.8;" x="124.044869" xlink:href="#m537e63c4b9" y="108.304533"/>
      </g>
     </g>
    </g>
    <g id="xtick_3">
     <g id="line2d_5">
      <path clip-path="url(#pf2b9154aa2)" d="M 176.799841 108.304533 
L 176.799841 23.36505 
" style="fill:none;stroke:#b0b0b0;stroke-linecap:square;stroke-width:0.8;"/>
     </g>
     <g id="line2d_6">
      <g>
       <use style="stroke:#000000;stroke-width:0.8;" x="176.799841" xlink:href="#m537e63c4b9" y="108.304533"/>
      </g>
     </g>
    </g>
    <g id="xtick_4">
     <g id="line2d_7">
      <path clip-path="url(#pf2b9154aa2)" d="M 229.62708 108.304533 
L 229.62708 23.36505 
" style="fill:none;stroke:#b0b0b0;stroke-linecap:square;stroke-width:0.8;"/>
     </g>
     <g id="line2d_8">
      <g>
       <use style="stroke:#000000;stroke-width:0.8;" x="229.62708" xlink:href="#m537e63c4b9" y="108.304533"/>
      </g>
     </g>
    </g>
    <g id="xtick_5">
     <g id="line2d_9">
      <path clip-path="url(#pf2b9154aa2)" d="M 282.382052 108.304533 
L 282.382052 23.36505 
" style="fill:none;stroke:#b0b0b0;stroke-linecap:square;stroke-width:0.8;"/>
     </g>
     <g id="line2d_10">
      <g>
       <use style="stroke:#000000;stroke-width:0.8;" x="282.382052" xlink:href="#m537e63c4b9" y="108.304533"/>
      </g>
     </g>
    </g>
    <g id="xtick_6">
     <g id="line2d_11">
      <path clip-path="url(#pf2b9154aa2)" d="M 335.209291 108.304533 
L 335.209291 23.36505 
" style="fill:none;stroke:#b0b0b0;stroke-linecap:square;stroke-width:0.8;"/>
     </g>
     <g id="line2d_12">
      <g>
       <use style="stroke:#000000;stroke-width:0.8;" x="335.209291" xlink:href="#m537e63c4b9" y="108.304533"/>
      </g>
     </g>
    </g>
    <g id="xtick_7">
     <g id="line2d_13">
      <path clip-path="url(#pf2b9154aa2)" d="M 387.964263 108.304533 
L 387.964263 23.36505 
" style="fill:none;stroke:#b0b0b0;stroke-linecap:square;stroke-width:0.8;"/>
     </g>
     <g id="line2d_14">
      <g>
       <use style="stroke:#000000;stroke-width:0.8;" x="387.964263" xlink:href="#m537e63c4b9" y="108.304533"/>
      </g>
     </g>
    </g>
    <g id="xtick_8">
     <g id="line2d_15">
      <path clip-path="url(#pf2b9154aa2)" d="M 440.791502 108.304533 
L 440.791502 23.36505 
" style="fill:none;stroke:#b0b0b0;stroke-linecap:square;stroke-width:0.8;"/>
     </g>
     <g id="line2d_16">
      <g>
       <use style="stroke:#000000;stroke-width:0.8;" x="440.791502" xlink:href="#m537e63c4b9" y="108.304533"/>
      </g>
     </g>
    </g>
   </g>
   <g id="matplotlib.axis_2">
    <g id="ytick_1">
     <g id="line2d_17">
      <path clip-path="url(#pf2b9154aa2)" d="M 31.543 104.443648 
L 445.05526 104.443648 
" style="fill:none;stroke:#b0b0b0;stroke-linecap:square;stroke-width:0.8;"/>
     </g>
     <g id="line2d_18">
      <defs>
       <path d="M 0 0 
L -3.5 0 
" id="mbe2795f615" style="stroke:#000000;stroke-width:0.8;"/>
      </defs>
      <g>
       <use style="stroke:#000000;stroke-width:0.8;" x="31.543" xlink:href="#mbe2795f615" y="104.443648"/>
      </g>
     </g>
     <g id="text_1">
      <!-- 0 -->
      <defs>
       <path d="M 31.78125 66.40625 
Q 24.171875 66.40625 20.328125 58.90625 
Q 16.5 51.421875 16.5 36.375 
Q 16.5 21.390625 20.328125 13.890625 
Q 24.171875 6.390625 31.78125 6.390625 
Q 39.453125 6.390625 43.28125 13.890625 
Q 47.125 21.390625 47.125 36.375 
Q 47.125 51.421875 43.28125 58.90625 
Q 39.453125 66.40625 31.78125 66.40625 
z
M 31.78125 74.21875 
Q 44.046875 74.21875 50.515625 64.515625 
Q 56.984375 54.828125 56.984375 36.375 
Q 56.984375 17.96875 50.515625 8.265625 
Q 44.046875 -1.421875 31.78125 -1.421875 
Q 19.53125 -1.421875 13.0625 8.265625 
Q 6.59375 17.96875 6.59375 36.375 
Q 6.59375 54.828125 13.0625 64.515625 
Q 19.53125 74.21875 31.78125 74.21875 
z
" id="DejaVuSans-30"/>
      </defs>
      <g transform="translate(18.1805 108.242866)scale(0.1 -0.1)">
       <use xlink:href="#DejaVuSans-30"/>
      </g>
     </g>
    </g>
    <g id="ytick_2">
     <g id="line2d_19">
      <path clip-path="url(#pf2b9154aa2)" d="M 31.543 80.901662 
L 445.05526 80.901662 
" style="fill:none;stroke:#b0b0b0;stroke-linecap:square;stroke-width:0.8;"/>
     </g>
     <g id="line2d_20">
      <g>
       <use style="stroke:#000000;stroke-width:0.8;" x="31.543" xlink:href="#mbe2795f615" y="80.901662"/>
      </g>
     </g>
     <g id="text_2">
      <!-- 1 -->
      <defs>
       <path d="M 12.40625 8.296875 
L 28.515625 8.296875 
L 28.515625 63.921875 
L 10.984375 60.40625 
L 10.984375 69.390625 
L 28.421875 72.90625 
L 38.28125 72.90625 
L 38.28125 8.296875 
L 54.390625 8.296875 
L 54.390625 0 
L 12.40625 0 
z
" id="DejaVuSans-31"/>
      </defs>
      <g transform="translate(18.1805 84.700881)scale(0.1 -0.1)">
       <use xlink:href="#DejaVuSans-31"/>
      </g>
     </g>
    </g>
    <g id="ytick_3">
     <g id="line2d_21">
      <path clip-path="url(#pf2b9154aa2)" d="M 31.543 57.359677 
L 445.05526 57.359677 
" style="fill:none;stroke:#b0b0b0;stroke-linecap:square;stroke-width:0.8;"/>
     </g>
     <g id="line2d_22">
      <g>
       <use style="stroke:#000000;stroke-width:0.8;" x="31.543" xlink:href="#mbe2795f615" y="57.359677"/>
      </g>
     </g>
     <g id="text_3">
      <!-- 2 -->
      <defs>
       <path d="M 19.1875 8.296875 
L 53.609375 8.296875 
L 53.609375 0 
L 7.328125 0 
L 7.328125 8.296875 
Q 12.9375 14.109375 22.625 23.890625 
Q 32.328125 33.6875 34.8125 36.53125 
Q 39.546875 41.84375 41.421875 45.53125 
Q 43.3125 49.21875 43.3125 52.78125 
Q 43.3125 58.59375 39.234375 62.25 
Q 35.15625 65.921875 28.609375 65.921875 
Q 23.96875 65.921875 18.8125 64.3125 
Q 13.671875 62.703125 7.8125 59.421875 
L 7.8125 69.390625 
Q 13.765625 71.78125 18.9375 73 
Q 24.125 74.21875 28.421875 74.21875 
Q 39.75 74.21875 46.484375 68.546875 
Q 53.21875 62.890625 53.21875 53.421875 
Q 53.21875 48.921875 51.53125 44.890625 
Q 49.859375 40.875 45.40625 35.40625 
Q 44.1875 33.984375 37.640625 27.21875 
Q 31.109375 20.453125 19.1875 8.296875 
z
" id="DejaVuSans-32"/>
      </defs>
      <g transform="translate(18.1805 61.158896)scale(0.1 -0.1)">
       <use xlink:href="#DejaVuSans-32"/>
      </g>
     </g>
    </g>
    <g id="ytick_4">
     <g id="line2d_23">
      <path clip-path="url(#pf2b9154aa2)" d="M 31.543 33.817692 
L 445.05526 33.817692 
" style="fill:none;stroke:#b0b0b0;stroke-linecap:square;stroke-width:0.8;"/>
     </g>
     <g id="line2d_24">
      <g>
       <use style="stroke:#000000;stroke-width:0.8;" x="31.543" xlink:href="#mbe2795f615" y="33.817692"/>
      </g>
     </g>
     <g id="text_4">
      <!-- 3 -->
      <defs>
       <path d="M 40.578125 39.3125 
Q 47.65625 37.796875 51.625 33 
Q 55.609375 28.21875 55.609375 21.1875 
Q 55.609375 10.40625 48.1875 4.484375 
Q 40.765625 -1.421875 27.09375 -1.421875 
Q 22.515625 -1.421875 17.65625 -0.515625 
Q 12.796875 0.390625 7.625 2.203125 
L 7.625 11.71875 
Q 11.71875 9.328125 16.59375 8.109375 
Q 21.484375 6.890625 26.8125 6.890625 
Q 36.078125 6.890625 40.9375 10.546875 
Q 45.796875 14.203125 45.796875 21.1875 
Q 45.796875 27.640625 41.28125 31.265625 
Q 36.765625 34.90625 28.71875 34.90625 
L 20.21875 34.90625 
L 20.21875 43.015625 
L 29.109375 43.015625 
Q 36.375 43.015625 40.234375 45.921875 
Q 44.09375 48.828125 44.09375 54.296875 
Q 44.09375 59.90625 40.109375 62.90625 
Q 36.140625 65.921875 28.71875 65.921875 
Q 24.65625 65.921875 20.015625 65.03125 
Q 15.375 64.15625 9.8125 62.3125 
L 9.8125 71.09375 
Q 15.4375 72.65625 20.34375 73.4375 
Q 25.25 74.21875 29.59375 74.21875 
Q 40.828125 74.21875 47.359375 69.109375 
Q 53.90625 64.015625 53.90625 55.328125 
Q 53.90625 49.265625 50.4375 45.09375 
Q 46.96875 40.921875 40.578125 39.3125 
z
" id="DejaVuSans-33"/>
      </defs>
      <g transform="translate(18.1805 37.61691)scale(0.1 -0.1)">
       <use xlink:href="#DejaVuSans-33"/>
      </g>
     </g>
    </g>
   </g>
   <g id="line2d_25">
    <path clip-path="url(#pf2b9154aa2)" d="M 31.543 96.910212 
L 33.78328 55.947158 
L 36.023559 55.711738 
L 38.191572 56.653417 
L 40.431851 52.8867 
L 42.599864 42.528226 
L 44.840144 77.605784 
L 47.080423 38.290669 
L 49.103902 50.297081 
L 51.344181 46.530364 
L 53.512194 67.247311 
L 55.752473 44.176165 
L 57.920486 27.932195 
L 60.160766 40.409447 
L 62.401045 38.290669 
L 64.569058 99.735251 
L 66.809337 102.560289 
L 68.97735 104.443648 
L 71.21763 104.443648 
L 73.457909 99.264411 
L 75.553655 99.735251 
L 77.793934 98.558151 
L 79.961947 60.655555 
L 82.202227 43.234486 
L 84.370239 62.303494 
L 86.610519 51.238761 
L 88.850798 59.007616 
L 91.018811 90.083037 
L 93.259091 74.545326 
L 97.667383 91.730976 
L 99.907662 104.443648 
L 101.931141 104.443648 
L 104.17142 52.41586 
L 106.339433 42.292806 
L 108.579713 42.292806 
L 110.747725 29.344714 
L 112.988005 32.405172 
L 115.228284 44.882425 
L 117.396297 44.411585 
L 119.636577 60.420135 
L 121.804589 64.657692 
L 124.044869 46.059524 
L 126.285148 47.001203 
L 128.308627 52.8867 
L 130.548906 44.647005 
L 132.716919 46.059524 
L 134.957199 30.050974 
L 137.125211 30.050974 
L 139.365491 43.940745 
L 141.60577 51.238761 
L 143.773783 42.528226 
L 146.014063 70.072349 
L 148.182075 51.7096 
L 150.422355 52.18044 
L 152.662634 58.065936 
L 154.686113 72.897387 
L 156.926392 67.011891 
L 159.094405 71.955708 
L 161.334685 42.999066 
L 163.502697 34.994791 
L 165.742977 37.113569 
L 167.983256 52.65128 
L 170.151269 49.590822 
L 172.391549 58.065936 
L 174.559561 54.299219 
L 176.799841 65.363952 
L 179.04012 63.245173 
L 181.135866 75.016166 
L 183.376146 61.126395 
L 185.544158 58.536776 
L 187.784438 41.351127 
L 189.95245 33.817692 
L 192.19273 37.584409 
L 194.43301 45.117845 
L 196.601022 46.294944 
L 198.841302 64.422273 
L 201.009314 67.247311 
L 203.249594 72.661967 
L 205.489874 66.070212 
L 207.513352 54.770059 
L 209.753632 65.834792 
L 211.921644 68.65983 
L 214.161924 55.711738 
L 216.329936 32.876012 
L 218.570216 45.353264 
L 220.810496 49.590822 
L 222.978508 40.174028 
L 225.218788 55.476318 
L 227.3868 68.89525 
L 229.62708 85.37464 
L 231.86736 76.428685 
L 233.890838 72.426548 
L 236.131118 60.890975 
L 238.29913 57.595097 
L 240.53941 58.301356 
L 242.707422 46.059524 
L 244.947702 42.528226 
L 247.187982 54.534639 
L 251.596274 79.959983 
L 253.764286 65.128532 
L 256.004566 53.12212 
L 258.244846 79.724563 
L 260.268324 85.37464 
L 262.508604 57.124257 
L 264.676616 71.249448 
L 266.916896 66.541051 
L 269.084908 84.9038 
L 271.325188 37.819829 
L 273.565468 42.292806 
L 275.73348 34.994791 
L 277.97376 57.595097 
L 280.141772 71.484868 
L 282.382052 54.534639 
L 284.622332 66.305631 
L 286.718077 55.476318 
L 288.958357 42.999066 
L 291.126369 54.063799 
L 293.366649 44.411585 
L 295.534661 39.938608 
L 297.774941 33.582272 
L 302.183233 45.353264 
L 304.423513 58.772196 
L 306.591525 54.770059 
L 308.831805 51.94502 
L 311.072085 49.355402 
L 313.095563 71.720288 
L 315.335843 69.601509 
L 317.503855 74.309906 
L 319.744135 74.545326 
L 321.912147 65.363952 
L 324.152427 32.640592 
L 326.392707 48.178303 
L 328.560719 61.832654 
L 330.800999 57.124257 
L 332.969011 51.94502 
L 335.209291 58.301356 
L 337.449571 62.774334 
L 339.473049 78.547464 
L 341.713329 58.065936 
L 343.881341 58.065936 
L 346.121621 56.182578 
L 348.289633 42.999066 
L 350.529913 41.115707 
L 352.770193 40.174028 
L 354.938205 64.422273 
L 357.178485 73.368227 
L 359.346497 73.839067 
L 361.586777 66.070212 
L 363.827057 71.720288 
L 365.850535 73.368227 
L 368.090815 70.543189 
L 370.258827 63.716013 
L 372.499107 34.994791 
L 374.667119 28.403035 
L 376.907399 27.225936 
L 379.147679 29.109294 
L 381.315691 28.167615 
L 383.555971 49.355402 
L 385.723983 51.474181 
L 387.964263 37.584409 
L 390.204543 38.290669 
L 392.300288 59.478456 
L 394.540568 33.111432 
L 396.70858 34.523951 
L 398.94886 33.817692 
L 401.116873 30.521814 
L 403.357152 27.461355 
L 405.597432 31.934333 
L 407.765444 42.999066 
L 410.005724 69.601509 
L 412.173737 73.368227 
L 414.414016 76.899525 
L 416.654296 78.782884 
L 418.677774 72.661967 
L 420.918054 49.119982 
L 423.086066 56.888837 
L 425.326346 41.821967 
L 427.494359 31.228073 
L 429.734638 36.17189 
L 431.974918 40.174028 
L 434.14293 36.17189 
L 436.38321 57.830517 
L 438.551223 35.46563 
L 440.791502 47.472043 
L 443.031782 47.472043 
L 445.05526 73.368227 
L 445.05526 73.368227 
" style="fill:none;stroke:#008000;stroke-linecap:square;stroke-width:1.5;"/>
   </g>
   <g id="patch_3">
    <path d="M 31.543 108.304533 
L 31.543 23.36505 
" style="fill:none;stroke:#000000;stroke-linecap:square;stroke-linejoin:miter;stroke-width:0.8;"/>
   </g>
   <g id="patch_4">
    <path d="M 445.05526 108.304533 
L 445.05526 23.36505 
" style="fill:none;stroke:#000000;stroke-linecap:square;stroke-linejoin:miter;stroke-width:0.8;"/>
   </g>
   <g id="patch_5">
    <path d="M 31.543 108.304533 
L 445.05526 108.304533 
" style="fill:none;stroke:#000000;stroke-linecap:square;stroke-linejoin:miter;stroke-width:0.8;"/>
   </g>
   <g id="patch_6">
    <path d="M 31.543 23.36505 
L 445.05526 23.36505 
" style="fill:none;stroke:#000000;stroke-linecap:square;stroke-linejoin:miter;stroke-width:0.8;"/>
   </g>
   <g id="text_5">
    <!-- Mean hourly emissions -->
    <defs>
     <path d="M 9.8125 72.90625 
L 24.515625 72.90625 
L 43.109375 23.296875 
L 61.8125 72.90625 
L 76.515625 72.90625 
L 76.515625 0 
L 66.890625 0 
L 66.890625 64.015625 
L 48.09375 14.015625 
L 38.1875 14.015625 
L 19.390625 64.015625 
L 19.390625 0 
L 9.8125 0 
z
" id="DejaVuSans-4d"/>
     <path d="M 56.203125 29.59375 
L 56.203125 25.203125 
L 14.890625 25.203125 
Q 15.484375 15.921875 20.484375 11.0625 
Q 25.484375 6.203125 34.421875 6.203125 
Q 39.59375 6.203125 44.453125 7.46875 
Q 49.3125 8.734375 54.109375 11.28125 
L 54.109375 2.78125 
Q 49.265625 0.734375 44.1875 -0.34375 
Q 39.109375 -1.421875 33.890625 -1.421875 
Q 20.796875 -1.421875 13.15625 6.1875 
Q 5.515625 13.8125 5.515625 26.8125 
Q 5.515625 40.234375 12.765625 48.109375 
Q 20.015625 56 32.328125 56 
Q 43.359375 56 49.78125 48.890625 
Q 56.203125 41.796875 56.203125 29.59375 
z
M 47.21875 32.234375 
Q 47.125 39.59375 43.09375 43.984375 
Q 39.0625 48.390625 32.421875 48.390625 
Q 24.90625 48.390625 20.390625 44.140625 
Q 15.875 39.890625 15.1875 32.171875 
z
" id="DejaVuSans-65"/>
     <path d="M 34.28125 27.484375 
Q 23.390625 27.484375 19.1875 25 
Q 14.984375 22.515625 14.984375 16.5 
Q 14.984375 11.71875 18.140625 8.90625 
Q 21.296875 6.109375 26.703125 6.109375 
Q 34.1875 6.109375 38.703125 11.40625 
Q 43.21875 16.703125 43.21875 25.484375 
L 43.21875 27.484375 
z
M 52.203125 31.203125 
L 52.203125 0 
L 43.21875 0 
L 43.21875 8.296875 
Q 40.140625 3.328125 35.546875 0.953125 
Q 30.953125 -1.421875 24.3125 -1.421875 
Q 15.921875 -1.421875 10.953125 3.296875 
Q 6 8.015625 6 15.921875 
Q 6 25.140625 12.171875 29.828125 
Q 18.359375 34.515625 30.609375 34.515625 
L 43.21875 34.515625 
L 43.21875 35.40625 
Q 43.21875 41.609375 39.140625 45 
Q 35.0625 48.390625 27.6875 48.390625 
Q 23 48.390625 18.546875 47.265625 
Q 14.109375 46.140625 10.015625 43.890625 
L 10.015625 52.203125 
Q 14.9375 54.109375 19.578125 55.046875 
Q 24.21875 56 28.609375 56 
Q 40.484375 56 46.34375 49.84375 
Q 52.203125 43.703125 52.203125 31.203125 
z
" id="DejaVuSans-61"/>
     <path d="M 54.890625 33.015625 
L 54.890625 0 
L 45.90625 0 
L 45.90625 32.71875 
Q 45.90625 40.484375 42.875 44.328125 
Q 39.84375 48.1875 33.796875 48.1875 
Q 26.515625 48.1875 22.3125 43.546875 
Q 18.109375 38.921875 18.109375 30.90625 
L 18.109375 0 
L 9.078125 0 
L 9.078125 54.6875 
L 18.109375 54.6875 
L 18.109375 46.1875 
Q 21.34375 51.125 25.703125 53.5625 
Q 30.078125 56 35.796875 56 
Q 45.21875 56 50.046875 50.171875 
Q 54.890625 44.34375 54.890625 33.015625 
z
" id="DejaVuSans-6e"/>
     <path id="DejaVuSans-20"/>
     <path d="M 54.890625 33.015625 
L 54.890625 0 
L 45.90625 0 
L 45.90625 32.71875 
Q 45.90625 40.484375 42.875 44.328125 
Q 39.84375 48.1875 33.796875 48.1875 
Q 26.515625 48.1875 22.3125 43.546875 
Q 18.109375 38.921875 18.109375 30.90625 
L 18.109375 0 
L 9.078125 0 
L 9.078125 75.984375 
L 18.109375 75.984375 
L 18.109375 46.1875 
Q 21.34375 51.125 25.703125 53.5625 
Q 30.078125 56 35.796875 56 
Q 45.21875 56 50.046875 50.171875 
Q 54.890625 44.34375 54.890625 33.015625 
z
" id="DejaVuSans-68"/>
     <path d="M 30.609375 48.390625 
Q 23.390625 48.390625 19.1875 42.75 
Q 14.984375 37.109375 14.984375 27.296875 
Q 14.984375 17.484375 19.15625 11.84375 
Q 23.34375 6.203125 30.609375 6.203125 
Q 37.796875 6.203125 41.984375 11.859375 
Q 46.1875 17.53125 46.1875 27.296875 
Q 46.1875 37.015625 41.984375 42.703125 
Q 37.796875 48.390625 30.609375 48.390625 
z
M 30.609375 56 
Q 42.328125 56 49.015625 48.375 
Q 55.71875 40.765625 55.71875 27.296875 
Q 55.71875 13.875 49.015625 6.21875 
Q 42.328125 -1.421875 30.609375 -1.421875 
Q 18.84375 -1.421875 12.171875 6.21875 
Q 5.515625 13.875 5.515625 27.296875 
Q 5.515625 40.765625 12.171875 48.375 
Q 18.84375 56 30.609375 56 
z
" id="DejaVuSans-6f"/>
     <path d="M 8.5 21.578125 
L 8.5 54.6875 
L 17.484375 54.6875 
L 17.484375 21.921875 
Q 17.484375 14.15625 20.5 10.265625 
Q 23.53125 6.390625 29.59375 6.390625 
Q 36.859375 6.390625 41.078125 11.03125 
Q 45.3125 15.671875 45.3125 23.6875 
L 45.3125 54.6875 
L 54.296875 54.6875 
L 54.296875 0 
L 45.3125 0 
L 45.3125 8.40625 
Q 42.046875 3.421875 37.71875 1 
Q 33.40625 -1.421875 27.6875 -1.421875 
Q 18.265625 -1.421875 13.375 4.4375 
Q 8.5 10.296875 8.5 21.578125 
z
M 31.109375 56 
z
" id="DejaVuSans-75"/>
     <path d="M 41.109375 46.296875 
Q 39.59375 47.171875 37.8125 47.578125 
Q 36.03125 48 33.890625 48 
Q 26.265625 48 22.1875 43.046875 
Q 18.109375 38.09375 18.109375 28.8125 
L 18.109375 0 
L 9.078125 0 
L 9.078125 54.6875 
L 18.109375 54.6875 
L 18.109375 46.1875 
Q 20.953125 51.171875 25.484375 53.578125 
Q 30.03125 56 36.53125 56 
Q 37.453125 56 38.578125 55.875 
Q 39.703125 55.765625 41.0625 55.515625 
z
" id="DejaVuSans-72"/>
     <path d="M 9.421875 75.984375 
L 18.40625 75.984375 
L 18.40625 0 
L 9.421875 0 
z
" id="DejaVuSans-6c"/>
     <path d="M 32.171875 -5.078125 
Q 28.375 -14.84375 24.75 -17.8125 
Q 21.140625 -20.796875 15.09375 -20.796875 
L 7.90625 -20.796875 
L 7.90625 -13.28125 
L 13.1875 -13.28125 
Q 16.890625 -13.28125 18.9375 -11.515625 
Q 21 -9.765625 23.484375 -3.21875 
L 25.09375 0.875 
L 2.984375 54.6875 
L 12.5 54.6875 
L 29.59375 11.921875 
L 46.6875 54.6875 
L 56.203125 54.6875 
z
" id="DejaVuSans-79"/>
     <path d="M 52 44.1875 
Q 55.375 50.25 60.0625 53.125 
Q 64.75 56 71.09375 56 
Q 79.640625 56 84.28125 50.015625 
Q 88.921875 44.046875 88.921875 33.015625 
L 88.921875 0 
L 79.890625 0 
L 79.890625 32.71875 
Q 79.890625 40.578125 77.09375 44.375 
Q 74.3125 48.1875 68.609375 48.1875 
Q 61.625 48.1875 57.5625 43.546875 
Q 53.515625 38.921875 53.515625 30.90625 
L 53.515625 0 
L 44.484375 0 
L 44.484375 32.71875 
Q 44.484375 40.625 41.703125 44.40625 
Q 38.921875 48.1875 33.109375 48.1875 
Q 26.21875 48.1875 22.15625 43.53125 
Q 18.109375 38.875 18.109375 30.90625 
L 18.109375 0 
L 9.078125 0 
L 9.078125 54.6875 
L 18.109375 54.6875 
L 18.109375 46.1875 
Q 21.1875 51.21875 25.484375 53.609375 
Q 29.78125 56 35.6875 56 
Q 41.65625 56 45.828125 52.96875 
Q 50 49.953125 52 44.1875 
z
" id="DejaVuSans-6d"/>
     <path d="M 9.421875 54.6875 
L 18.40625 54.6875 
L 18.40625 0 
L 9.421875 0 
z
M 9.421875 75.984375 
L 18.40625 75.984375 
L 18.40625 64.59375 
L 9.421875 64.59375 
z
" id="DejaVuSans-69"/>
     <path d="M 44.28125 53.078125 
L 44.28125 44.578125 
Q 40.484375 46.53125 36.375 47.5 
Q 32.28125 48.484375 27.875 48.484375 
Q 21.1875 48.484375 17.84375 46.4375 
Q 14.5 44.390625 14.5 40.28125 
Q 14.5 37.15625 16.890625 35.375 
Q 19.28125 33.59375 26.515625 31.984375 
L 29.59375 31.296875 
Q 39.15625 29.25 43.1875 25.515625 
Q 47.21875 21.78125 47.21875 15.09375 
Q 47.21875 7.46875 41.1875 3.015625 
Q 35.15625 -1.421875 24.609375 -1.421875 
Q 20.21875 -1.421875 15.453125 -0.5625 
Q 10.6875 0.296875 5.421875 2 
L 5.421875 11.28125 
Q 10.40625 8.6875 15.234375 7.390625 
Q 20.0625 6.109375 24.8125 6.109375 
Q 31.15625 6.109375 34.5625 8.28125 
Q 37.984375 10.453125 37.984375 14.40625 
Q 37.984375 18.0625 35.515625 20.015625 
Q 33.0625 21.96875 24.703125 23.78125 
L 21.578125 24.515625 
Q 13.234375 26.265625 9.515625 29.90625 
Q 5.8125 33.546875 5.8125 39.890625 
Q 5.8125 47.609375 11.28125 51.796875 
Q 16.75 56 26.8125 56 
Q 31.78125 56 36.171875 55.265625 
Q 40.578125 54.546875 44.28125 53.078125 
z
" id="DejaVuSans-73"/>
    </defs>
    <g transform="translate(169.455693 17.36505)scale(0.12 -0.12)">
     <use xlink:href="#DejaVuSans-4d"/>
     <use x="86.279297" xlink:href="#DejaVuSans-65"/>
     <use x="147.802734" xlink:href="#DejaVuSans-61"/>
     <use x="209.082031" xlink:href="#DejaVuSans-6e"/>
     <use x="272.460938" xlink:href="#DejaVuSans-20"/>
     <use x="304.248047" xlink:href="#DejaVuSans-68"/>
     <use x="367.626953" xlink:href="#DejaVuSans-6f"/>
     <use x="428.808594" xlink:href="#DejaVuSans-75"/>
     <use x="492.1875" xlink:href="#DejaVuSans-72"/>
     <use x="533.300781" xlink:href="#DejaVuSans-6c"/>
     <use x="561.083984" xlink:href="#DejaVuSans-79"/>
     <use x="620.263672" xlink:href="#DejaVuSans-20"/>
     <use x="652.050781" xlink:href="#DejaVuSans-65"/>
     <use x="713.574219" xlink:href="#DejaVuSans-6d"/>
     <use x="810.986328" xlink:href="#DejaVuSans-69"/>
     <use x="838.769531" xlink:href="#DejaVuSans-73"/>
     <use x="890.869141" xlink:href="#DejaVuSans-73"/>
     <use x="942.96875" xlink:href="#DejaVuSans-69"/>
     <use x="970.751953" xlink:href="#DejaVuSans-6f"/>
     <use x="1031.933594" xlink:href="#DejaVuSans-6e"/>
     <use x="1095.3125" xlink:href="#DejaVuSans-73"/>
    </g>
   </g>
   <g id="legend_1">
    <g id="patch_7">
     <path d="M 360.15526 103.304533 
L 438.05526 103.304533 
Q 440.05526 103.304533 440.05526 101.304533 
L 440.05526 87.626408 
Q 440.05526 85.626408 438.05526 85.626408 
L 360.15526 85.626408 
Q 358.15526 85.626408 358.15526 87.626408 
L 358.15526 101.304533 
Q 358.15526 103.304533 360.15526 103.304533 
z
" style="fill:#ffffff;opacity:0.8;stroke:#cccccc;stroke-linejoin:miter;"/>
    </g>
    <g id="line2d_26">
     <path d="M 362.15526 93.724846 
L 382.15526 93.724846 
" style="fill:none;stroke:#008000;stroke-linecap:square;stroke-width:1.5;"/>
    </g>
    <g id="line2d_27"/>
    <g id="text_6">
     <!-- SO2 (lbs) -->
     <defs>
      <path d="M 53.515625 70.515625 
L 53.515625 60.890625 
Q 47.90625 63.578125 42.921875 64.890625 
Q 37.9375 66.21875 33.296875 66.21875 
Q 25.25 66.21875 20.875 63.09375 
Q 16.5 59.96875 16.5 54.203125 
Q 16.5 49.359375 19.40625 46.890625 
Q 22.3125 44.4375 30.421875 42.921875 
L 36.375 41.703125 
Q 47.40625 39.59375 52.65625 34.296875 
Q 57.90625 29 57.90625 20.125 
Q 57.90625 9.515625 50.796875 4.046875 
Q 43.703125 -1.421875 29.984375 -1.421875 
Q 24.8125 -1.421875 18.96875 -0.25 
Q 13.140625 0.921875 6.890625 3.21875 
L 6.890625 13.375 
Q 12.890625 10.015625 18.65625 8.296875 
Q 24.421875 6.59375 29.984375 6.59375 
Q 38.421875 6.59375 43.015625 9.90625 
Q 47.609375 13.234375 47.609375 19.390625 
Q 47.609375 24.75 44.3125 27.78125 
Q 41.015625 30.8125 33.5 32.328125 
L 27.484375 33.5 
Q 16.453125 35.6875 11.515625 40.375 
Q 6.59375 45.0625 6.59375 53.421875 
Q 6.59375 63.09375 13.40625 68.65625 
Q 20.21875 74.21875 32.171875 74.21875 
Q 37.3125 74.21875 42.625 73.28125 
Q 47.953125 72.359375 53.515625 70.515625 
z
" id="DejaVuSans-53"/>
      <path d="M 39.40625 66.21875 
Q 28.65625 66.21875 22.328125 58.203125 
Q 16.015625 50.203125 16.015625 36.375 
Q 16.015625 22.609375 22.328125 14.59375 
Q 28.65625 6.59375 39.40625 6.59375 
Q 50.140625 6.59375 56.421875 14.59375 
Q 62.703125 22.609375 62.703125 36.375 
Q 62.703125 50.203125 56.421875 58.203125 
Q 50.140625 66.21875 39.40625 66.21875 
z
M 39.40625 74.21875 
Q 54.734375 74.21875 63.90625 63.9375 
Q 73.09375 53.65625 73.09375 36.375 
Q 73.09375 19.140625 63.90625 8.859375 
Q 54.734375 -1.421875 39.40625 -1.421875 
Q 24.03125 -1.421875 14.8125 8.828125 
Q 5.609375 19.09375 5.609375 36.375 
Q 5.609375 53.65625 14.8125 63.9375 
Q 24.03125 74.21875 39.40625 74.21875 
z
" id="DejaVuSans-4f"/>
      <path d="M 31 75.875 
Q 24.46875 64.65625 21.28125 53.65625 
Q 18.109375 42.671875 18.109375 31.390625 
Q 18.109375 20.125 21.3125 9.0625 
Q 24.515625 -2 31 -13.1875 
L 23.1875 -13.1875 
Q 15.875 -1.703125 12.234375 9.375 
Q 8.59375 20.453125 8.59375 31.390625 
Q 8.59375 42.28125 12.203125 53.3125 
Q 15.828125 64.359375 23.1875 75.875 
z
" id="DejaVuSans-28"/>
      <path d="M 48.6875 27.296875 
Q 48.6875 37.203125 44.609375 42.84375 
Q 40.53125 48.484375 33.40625 48.484375 
Q 26.265625 48.484375 22.1875 42.84375 
Q 18.109375 37.203125 18.109375 27.296875 
Q 18.109375 17.390625 22.1875 11.75 
Q 26.265625 6.109375 33.40625 6.109375 
Q 40.53125 6.109375 44.609375 11.75 
Q 48.6875 17.390625 48.6875 27.296875 
z
M 18.109375 46.390625 
Q 20.953125 51.265625 25.265625 53.625 
Q 29.59375 56 35.59375 56 
Q 45.5625 56 51.78125 48.09375 
Q 58.015625 40.1875 58.015625 27.296875 
Q 58.015625 14.40625 51.78125 6.484375 
Q 45.5625 -1.421875 35.59375 -1.421875 
Q 29.59375 -1.421875 25.265625 0.953125 
Q 20.953125 3.328125 18.109375 8.203125 
L 18.109375 0 
L 9.078125 0 
L 9.078125 75.984375 
L 18.109375 75.984375 
z
" id="DejaVuSans-62"/>
      <path d="M 8.015625 75.875 
L 15.828125 75.875 
Q 23.140625 64.359375 26.78125 53.3125 
Q 30.421875 42.28125 30.421875 31.390625 
Q 30.421875 20.453125 26.78125 9.375 
Q 23.140625 -1.703125 15.828125 -13.1875 
L 8.015625 -13.1875 
Q 14.5 -2 17.703125 9.0625 
Q 20.90625 20.125 20.90625 31.390625 
Q 20.90625 42.671875 17.703125 53.65625 
Q 14.5 64.65625 8.015625 75.875 
z
" id="DejaVuSans-29"/>
     </defs>
     <g transform="translate(390.15526 97.224846)scale(0.1 -0.1)">
      <use xlink:href="#DejaVuSans-53"/>
      <use x="63.476562" xlink:href="#DejaVuSans-4f"/>
      <use x="142.1875" xlink:href="#DejaVuSans-32"/>
      <use x="205.810547" xlink:href="#DejaVuSans-20"/>
      <use x="237.597656" xlink:href="#DejaVuSans-28"/>
      <use x="276.611328" xlink:href="#DejaVuSans-6c"/>
      <use x="304.394531" xlink:href="#DejaVuSans-62"/>
      <use x="367.871094" xlink:href="#DejaVuSans-73"/>
      <use x="419.970703" xlink:href="#DejaVuSans-29"/>
     </g>
    </g>
   </g>
  </g>
  <g id="axes_2">
   <g id="patch_8">
    <path d="M 31.543 209.084017 
L 445.05526 209.084017 
L 445.05526 124.144533 
L 31.543 124.144533 
z
" style="fill:none;"/>
   </g>
   <g id="matplotlib.axis_3">
    <g id="xtick_9">
     <g id="line2d_28">
      <path clip-path="url(#p8d551031f2)" d="M 71.21763 209.084017 
L 71.21763 124.144533 
" style="fill:none;stroke:#b0b0b0;stroke-linecap:square;stroke-width:0.8;"/>
     </g>
     <g id="line2d_29">
      <g>
       <use style="stroke:#000000;stroke-width:0.8;" x="71.21763" xlink:href="#m537e63c4b9" y="209.084017"/>
      </g>
     </g>
    </g>
    <g id="xtick_10">
     <g id="line2d_30">
      <path clip-path="url(#p8d551031f2)" d="M 124.044869 209.084017 
L 124.044869 124.144533 
" style="fill:none;stroke:#b0b0b0;stroke-linecap:square;stroke-width:0.8;"/>
     </g>
     <g id="line2d_31">
      <g>
       <use style="stroke:#000000;stroke-width:0.8;" x="124.044869" xlink:href="#m537e63c4b9" y="209.084017"/>
      </g>
     </g>
    </g>
    <g id="xtick_11">
     <g id="line2d_32">
      <path clip-path="url(#p8d551031f2)" d="M 176.799841 209.084017 
L 176.799841 124.144533 
" style="fill:none;stroke:#b0b0b0;stroke-linecap:square;stroke-width:0.8;"/>
     </g>
     <g id="line2d_33">
      <g>
       <use style="stroke:#000000;stroke-width:0.8;" x="176.799841" xlink:href="#m537e63c4b9" y="209.084017"/>
      </g>
     </g>
    </g>
    <g id="xtick_12">
     <g id="line2d_34">
      <path clip-path="url(#p8d551031f2)" d="M 229.62708 209.084017 
L 229.62708 124.144533 
" style="fill:none;stroke:#b0b0b0;stroke-linecap:square;stroke-width:0.8;"/>
     </g>
     <g id="line2d_35">
      <g>
       <use style="stroke:#000000;stroke-width:0.8;" x="229.62708" xlink:href="#m537e63c4b9" y="209.084017"/>
      </g>
     </g>
    </g>
    <g id="xtick_13">
     <g id="line2d_36">
      <path clip-path="url(#p8d551031f2)" d="M 282.382052 209.084017 
L 282.382052 124.144533 
" style="fill:none;stroke:#b0b0b0;stroke-linecap:square;stroke-width:0.8;"/>
     </g>
     <g id="line2d_37">
      <g>
       <use style="stroke:#000000;stroke-width:0.8;" x="282.382052" xlink:href="#m537e63c4b9" y="209.084017"/>
      </g>
     </g>
    </g>
    <g id="xtick_14">
     <g id="line2d_38">
      <path clip-path="url(#p8d551031f2)" d="M 335.209291 209.084017 
L 335.209291 124.144533 
" style="fill:none;stroke:#b0b0b0;stroke-linecap:square;stroke-width:0.8;"/>
     </g>
     <g id="line2d_39">
      <g>
       <use style="stroke:#000000;stroke-width:0.8;" x="335.209291" xlink:href="#m537e63c4b9" y="209.084017"/>
      </g>
     </g>
    </g>
    <g id="xtick_15">
     <g id="line2d_40">
      <path clip-path="url(#p8d551031f2)" d="M 387.964263 209.084017 
L 387.964263 124.144533 
" style="fill:none;stroke:#b0b0b0;stroke-linecap:square;stroke-width:0.8;"/>
     </g>
     <g id="line2d_41">
      <g>
       <use style="stroke:#000000;stroke-width:0.8;" x="387.964263" xlink:href="#m537e63c4b9" y="209.084017"/>
      </g>
     </g>
    </g>
    <g id="xtick_16">
     <g id="line2d_42">
      <path clip-path="url(#p8d551031f2)" d="M 440.791502 209.084017 
L 440.791502 124.144533 
" style="fill:none;stroke:#b0b0b0;stroke-linecap:square;stroke-width:0.8;"/>
     </g>
     <g id="line2d_43">
      <g>
       <use style="stroke:#000000;stroke-width:0.8;" x="440.791502" xlink:href="#m537e63c4b9" y="209.084017"/>
      </g>
     </g>
    </g>
   </g>
   <g id="matplotlib.axis_4">
    <g id="ytick_5">
     <g id="line2d_44">
      <path clip-path="url(#p8d551031f2)" d="M 31.543 205.223131 
L 445.05526 205.223131 
" style="fill:none;stroke:#b0b0b0;stroke-linecap:square;stroke-width:0.8;"/>
     </g>
     <g id="line2d_45">
      <g>
       <use style="stroke:#000000;stroke-width:0.8;" x="31.543" xlink:href="#mbe2795f615" y="205.223131"/>
      </g>
     </g>
     <g id="text_7">
      <!-- 0 -->
      <g transform="translate(18.1805 209.02235)scale(0.1 -0.1)">
       <use xlink:href="#DejaVuSans-30"/>
      </g>
     </g>
    </g>
    <g id="ytick_6">
     <g id="line2d_46">
      <path clip-path="url(#p8d551031f2)" d="M 31.543 180.864231 
L 445.05526 180.864231 
" style="fill:none;stroke:#b0b0b0;stroke-linecap:square;stroke-width:0.8;"/>
     </g>
     <g id="line2d_47">
      <g>
       <use style="stroke:#000000;stroke-width:0.8;" x="31.543" xlink:href="#mbe2795f615" y="180.864231"/>
      </g>
     </g>
     <g id="text_8">
      <!-- 20 -->
      <g transform="translate(11.818 184.66345)scale(0.1 -0.1)">
       <use xlink:href="#DejaVuSans-32"/>
       <use x="63.623047" xlink:href="#DejaVuSans-30"/>
      </g>
     </g>
    </g>
    <g id="ytick_7">
     <g id="line2d_48">
      <path clip-path="url(#p8d551031f2)" d="M 31.543 156.505332 
L 445.05526 156.505332 
" style="fill:none;stroke:#b0b0b0;stroke-linecap:square;stroke-width:0.8;"/>
     </g>
     <g id="line2d_49">
      <g>
       <use style="stroke:#000000;stroke-width:0.8;" x="31.543" xlink:href="#mbe2795f615" y="156.505332"/>
      </g>
     </g>
     <g id="text_9">
      <!-- 40 -->
      <defs>
       <path d="M 37.796875 64.3125 
L 12.890625 25.390625 
L 37.796875 25.390625 
z
M 35.203125 72.90625 
L 47.609375 72.90625 
L 47.609375 25.390625 
L 58.015625 25.390625 
L 58.015625 17.1875 
L 47.609375 17.1875 
L 47.609375 0 
L 37.796875 0 
L 37.796875 17.1875 
L 4.890625 17.1875 
L 4.890625 26.703125 
z
" id="DejaVuSans-34"/>
      </defs>
      <g transform="translate(11.818 160.30455)scale(0.1 -0.1)">
       <use xlink:href="#DejaVuSans-34"/>
       <use x="63.623047" xlink:href="#DejaVuSans-30"/>
      </g>
     </g>
    </g>
    <g id="ytick_8">
     <g id="line2d_50">
      <path clip-path="url(#p8d551031f2)" d="M 31.543 132.146432 
L 445.05526 132.146432 
" style="fill:none;stroke:#b0b0b0;stroke-linecap:square;stroke-width:0.8;"/>
     </g>
     <g id="line2d_51">
      <g>
       <use style="stroke:#000000;stroke-width:0.8;" x="31.543" xlink:href="#mbe2795f615" y="132.146432"/>
      </g>
     </g>
     <g id="text_10">
      <!-- 60 -->
      <defs>
       <path d="M 33.015625 40.375 
Q 26.375 40.375 22.484375 35.828125 
Q 18.609375 31.296875 18.609375 23.390625 
Q 18.609375 15.53125 22.484375 10.953125 
Q 26.375 6.390625 33.015625 6.390625 
Q 39.65625 6.390625 43.53125 10.953125 
Q 47.40625 15.53125 47.40625 23.390625 
Q 47.40625 31.296875 43.53125 35.828125 
Q 39.65625 40.375 33.015625 40.375 
z
M 52.59375 71.296875 
L 52.59375 62.3125 
Q 48.875 64.0625 45.09375 64.984375 
Q 41.3125 65.921875 37.59375 65.921875 
Q 27.828125 65.921875 22.671875 59.328125 
Q 17.53125 52.734375 16.796875 39.40625 
Q 19.671875 43.65625 24.015625 45.921875 
Q 28.375 48.1875 33.59375 48.1875 
Q 44.578125 48.1875 50.953125 41.515625 
Q 57.328125 34.859375 57.328125 23.390625 
Q 57.328125 12.15625 50.6875 5.359375 
Q 44.046875 -1.421875 33.015625 -1.421875 
Q 20.359375 -1.421875 13.671875 8.265625 
Q 6.984375 17.96875 6.984375 36.375 
Q 6.984375 53.65625 15.1875 63.9375 
Q 23.390625 74.21875 37.203125 74.21875 
Q 40.921875 74.21875 44.703125 73.484375 
Q 48.484375 72.75 52.59375 71.296875 
z
" id="DejaVuSans-36"/>
      </defs>
      <g transform="translate(11.818 135.945651)scale(0.1 -0.1)">
       <use xlink:href="#DejaVuSans-36"/>
       <use x="63.623047" xlink:href="#DejaVuSans-30"/>
      </g>
     </g>
    </g>
   </g>
   <g id="line2d_52">
    <path clip-path="url(#p8d551031f2)" d="M 31.543 197.964179 
L 33.78328 166.0662 
L 36.023559 163.63031 
L 38.191572 159.014298 
L 40.431851 156.675844 
L 42.599864 147.297668 
L 44.840144 172.04631 
L 47.080423 149.161123 
L 49.103902 157.260458 
L 51.344181 158.271352 
L 53.512194 150.439966 
L 55.752473 139.539358 
L 57.920486 139.514999 
L 60.160766 145.117546 
L 62.401045 136.872058 
L 64.569058 199.815455 
L 66.809337 200.37571 
L 68.97735 205.223131 
L 71.21763 205.223131 
L 73.457909 197.793667 
L 75.553655 198.926355 
L 77.793934 197.014182 
L 79.961947 159.538015 
L 82.202227 150.220735 
L 84.370239 168.075809 
L 86.610519 157.516226 
L 88.850798 159.379682 
L 91.018811 187.575108 
L 93.259091 173.288614 
L 95.427103 179.12257 
L 97.667383 191.216764 
L 99.907662 205.223131 
L 101.931141 205.223131 
L 104.17142 157.077766 
L 106.339433 152.047653 
L 108.579713 152.32778 
L 110.747725 147.188052 
L 112.988005 149.246379 
L 115.228284 144.995751 
L 117.396297 150.610478 
L 119.636577 160.341858 
L 121.804589 166.72389 
L 124.044869 152.047653 
L 126.285148 152.059832 
L 128.308627 160.293141 
L 130.548906 150.975861 
L 132.716919 151.402142 
L 134.957199 145.361135 
L 137.125211 147.102796 
L 139.365491 151.925858 
L 141.60577 152.595728 
L 143.773783 151.353424 
L 146.014063 173.105922 
L 148.182075 156.7611 
L 150.422355 156.785459 
L 152.662634 161.218779 
L 154.686113 169.196318 
L 156.926392 169.963624 
L 159.094405 177.161679 
L 161.334685 153.850212 
L 163.502697 147.480359 
L 165.742977 146.603439 
L 167.983256 150.220735 
L 170.151269 147.894461 
L 172.391549 155.798924 
L 174.559561 143.680371 
L 176.799841 152.961112 
L 179.04012 157.321355 
L 181.135866 173.483485 
L 183.376146 158.685453 
L 185.544158 159.257887 
L 187.784438 146.518183 
L 189.95245 145.970107 
L 192.19273 149.088047 
L 194.43301 150.452145 
L 196.601022 149.136764 
L 198.841302 160.427114 
L 201.009314 163.776463 
L 203.249594 164.129667 
L 205.489874 157.163022 
L 207.513352 155.555335 
L 209.753632 172.326437 
L 211.921644 167.028376 
L 214.161924 159.233528 
L 216.329936 141.366275 
L 218.570216 151.718808 
L 220.810496 152.437395 
L 222.978508 140.891277 
L 225.218788 155.701488 
L 227.3868 161.40147 
L 229.62708 179.35398 
L 231.86736 173.934124 
L 233.890838 170.04888 
L 236.131118 160.670703 
L 238.29913 155.238669 
L 240.53941 153.509187 
L 242.707422 146.518183 
L 247.187982 151.633552 
L 249.355994 168.977088 
L 251.596274 176.845013 
L 256.004566 140.635508 
L 258.244846 171.766182 
L 260.268324 183.641146 
L 262.508604 157.296996 
L 264.676616 170.767467 
L 266.916896 167.308504 
L 269.084908 187.623826 
L 271.325188 146.907925 
L 273.565468 153.984185 
L 275.73348 147.01754 
L 277.97376 162.388006 
L 280.141772 173.325152 
L 282.382052 166.94312 
L 284.622332 170.840544 
L 286.718077 165.16492 
L 288.958357 153.752776 
L 291.126369 164.190564 
L 293.366649 156.968151 
L 295.534661 153.423931 
L 297.774941 153.813673 
L 300.015221 154.788029 
L 302.183233 160.013013 
L 304.423513 164.470692 
L 306.591525 157.102125 
L 308.831805 152.851497 
L 311.072085 153.65534 
L 313.095563 177.441806 
L 315.335843 174.177713 
L 317.503855 177.161679 
L 319.744135 182.033459 
L 321.912147 175.785401 
L 324.152427 151.718808 
L 326.392707 161.157881 
L 328.560719 170.913621 
L 330.800999 167.795682 
L 332.969011 154.958541 
L 335.209291 165.493766 
L 337.449571 155.823282 
L 339.473049 178.842443 
L 341.713329 159.026478 
L 343.881341 164.007873 
L 346.121621 159.391861 
L 348.289633 149.380353 
L 350.529913 151.536116 
L 352.770193 150.1233 
L 354.938205 171.546952 
L 357.178485 177.551421 
L 359.346497 168.027091 
L 361.586777 171.15721 
L 363.827057 171.266825 
L 365.850535 180.912949 
L 368.090815 178.501418 
L 370.258827 173.386049 
L 372.499107 151.268168 
L 374.667119 147.90664 
L 376.907399 148.832278 
L 379.147679 148.56433 
L 381.315691 146.822669 
L 383.555971 156.359178 
L 385.723983 148.79574 
L 387.964263 142.14576 
L 390.204543 137.663723 
L 392.300288 163.545054 
L 394.540568 145.750877 
L 396.70858 144.898316 
L 398.94886 128.005419 
L 401.116873 138.662438 
L 403.357152 148.79574 
L 405.597432 146.274594 
L 407.765444 155.068157 
L 410.005724 170.864903 
L 412.173737 173.178998 
L 414.414016 173.678356 
L 416.654296 179.012955 
L 418.677774 168.587346 
L 420.918054 154.739311 
L 423.086066 155.640591 
L 425.326346 140.075254 
L 427.494359 150.098941 
L 429.734638 151.048938 
L 431.974918 152.973291 
L 434.14293 141.207943 
L 436.38321 159.257887 
L 438.551223 143.789986 
L 440.791502 150.354709 
L 443.031782 158.843786 
L 445.05526 177.246935 
L 445.05526 177.246935 
" style="fill:none;stroke:#f97306;stroke-linecap:square;stroke-width:1.5;"/>
   </g>
   <g id="patch_9">
    <path d="M 31.543 209.084017 
L 31.543 124.144533 
" style="fill:none;stroke:#000000;stroke-linecap:square;stroke-linejoin:miter;stroke-width:0.8;"/>
   </g>
   <g id="patch_10">
    <path d="M 445.05526 209.084017 
L 445.05526 124.144533 
" style="fill:none;stroke:#000000;stroke-linecap:square;stroke-linejoin:miter;stroke-width:0.8;"/>
   </g>
   <g id="patch_11">
    <path d="M 31.543 209.084017 
L 445.05526 209.084017 
" style="fill:none;stroke:#000000;stroke-linecap:square;stroke-linejoin:miter;stroke-width:0.8;"/>
   </g>
   <g id="patch_12">
    <path d="M 31.543 124.144533 
L 445.05526 124.144533 
" style="fill:none;stroke:#000000;stroke-linecap:square;stroke-linejoin:miter;stroke-width:0.8;"/>
   </g>
   <g id="legend_2">
    <g id="patch_13">
     <path d="M 359.466198 204.084017 
L 438.05526 204.084017 
Q 440.05526 204.084017 440.05526 202.084017 
L 440.05526 188.405892 
Q 440.05526 186.405892 438.05526 186.405892 
L 359.466198 186.405892 
Q 357.466198 186.405892 357.466198 188.405892 
L 357.466198 202.084017 
Q 357.466198 204.084017 359.466198 204.084017 
z
" style="fill:#ffffff;opacity:0.8;stroke:#cccccc;stroke-linejoin:miter;"/>
    </g>
    <g id="line2d_53">
     <path d="M 361.466198 194.504329 
L 381.466198 194.504329 
" style="fill:none;stroke:#f97306;stroke-linecap:square;stroke-width:1.5;"/>
    </g>
    <g id="line2d_54"/>
    <g id="text_11">
     <!-- NOx (lbs) -->
     <defs>
      <path d="M 9.8125 72.90625 
L 23.09375 72.90625 
L 55.421875 11.921875 
L 55.421875 72.90625 
L 64.984375 72.90625 
L 64.984375 0 
L 51.703125 0 
L 19.390625 60.984375 
L 19.390625 0 
L 9.8125 0 
z
" id="DejaVuSans-4e"/>
      <path d="M 54.890625 54.6875 
L 35.109375 28.078125 
L 55.90625 0 
L 45.3125 0 
L 29.390625 21.484375 
L 13.484375 0 
L 2.875 0 
L 24.125 28.609375 
L 4.6875 54.6875 
L 15.28125 54.6875 
L 29.78125 35.203125 
L 44.28125 54.6875 
z
" id="DejaVuSans-78"/>
     </defs>
     <g transform="translate(389.466198 198.004329)scale(0.1 -0.1)">
      <use xlink:href="#DejaVuSans-4e"/>
      <use x="74.804688" xlink:href="#DejaVuSans-4f"/>
      <use x="153.515625" xlink:href="#DejaVuSans-78"/>
      <use x="212.695312" xlink:href="#DejaVuSans-20"/>
      <use x="244.482422" xlink:href="#DejaVuSans-28"/>
      <use x="283.496094" xlink:href="#DejaVuSans-6c"/>
      <use x="311.279297" xlink:href="#DejaVuSans-62"/>
      <use x="374.755859" xlink:href="#DejaVuSans-73"/>
      <use x="426.855469" xlink:href="#DejaVuSans-29"/>
     </g>
    </g>
   </g>
  </g>
  <g id="axes_3">
   <g id="patch_14">
    <path d="M 31.543 309.8635 
L 445.05526 309.8635 
L 445.05526 224.924017 
L 31.543 224.924017 
z
" style="fill:none;"/>
   </g>
   <g id="matplotlib.axis_5">
    <g id="xtick_17">
     <g id="line2d_55">
      <path clip-path="url(#pf9c1fb759f)" d="M 71.21763 309.8635 
L 71.21763 224.924017 
" style="fill:none;stroke:#b0b0b0;stroke-linecap:square;stroke-width:0.8;"/>
     </g>
     <g id="line2d_56">
      <g>
       <use style="stroke:#000000;stroke-width:0.8;" x="71.21763" xlink:href="#m537e63c4b9" y="309.8635"/>
      </g>
     </g>
     <g id="text_12">
      <!-- 2004 -->
      <g transform="translate(58.49263 324.461937)scale(0.1 -0.1)">
       <use xlink:href="#DejaVuSans-32"/>
       <use x="63.623047" xlink:href="#DejaVuSans-30"/>
       <use x="127.246094" xlink:href="#DejaVuSans-30"/>
       <use x="190.869141" xlink:href="#DejaVuSans-34"/>
      </g>
     </g>
    </g>
    <g id="xtick_18">
     <g id="line2d_57">
      <path clip-path="url(#pf9c1fb759f)" d="M 124.044869 309.8635 
L 124.044869 224.924017 
" style="fill:none;stroke:#b0b0b0;stroke-linecap:square;stroke-width:0.8;"/>
     </g>
     <g id="line2d_58">
      <g>
       <use style="stroke:#000000;stroke-width:0.8;" x="124.044869" xlink:href="#m537e63c4b9" y="309.8635"/>
      </g>
     </g>
     <g id="text_13">
      <!-- 2006 -->
      <g transform="translate(111.319869 324.461937)scale(0.1 -0.1)">
       <use xlink:href="#DejaVuSans-32"/>
       <use x="63.623047" xlink:href="#DejaVuSans-30"/>
       <use x="127.246094" xlink:href="#DejaVuSans-30"/>
       <use x="190.869141" xlink:href="#DejaVuSans-36"/>
      </g>
     </g>
    </g>
    <g id="xtick_19">
     <g id="line2d_59">
      <path clip-path="url(#pf9c1fb759f)" d="M 176.799841 309.8635 
L 176.799841 224.924017 
" style="fill:none;stroke:#b0b0b0;stroke-linecap:square;stroke-width:0.8;"/>
     </g>
     <g id="line2d_60">
      <g>
       <use style="stroke:#000000;stroke-width:0.8;" x="176.799841" xlink:href="#m537e63c4b9" y="309.8635"/>
      </g>
     </g>
     <g id="text_14">
      <!-- 2008 -->
      <defs>
       <path d="M 31.78125 34.625 
Q 24.75 34.625 20.71875 30.859375 
Q 16.703125 27.09375 16.703125 20.515625 
Q 16.703125 13.921875 20.71875 10.15625 
Q 24.75 6.390625 31.78125 6.390625 
Q 38.8125 6.390625 42.859375 10.171875 
Q 46.921875 13.96875 46.921875 20.515625 
Q 46.921875 27.09375 42.890625 30.859375 
Q 38.875 34.625 31.78125 34.625 
z
M 21.921875 38.8125 
Q 15.578125 40.375 12.03125 44.71875 
Q 8.5 49.078125 8.5 55.328125 
Q 8.5 64.0625 14.71875 69.140625 
Q 20.953125 74.21875 31.78125 74.21875 
Q 42.671875 74.21875 48.875 69.140625 
Q 55.078125 64.0625 55.078125 55.328125 
Q 55.078125 49.078125 51.53125 44.71875 
Q 48 40.375 41.703125 38.8125 
Q 48.828125 37.15625 52.796875 32.3125 
Q 56.78125 27.484375 56.78125 20.515625 
Q 56.78125 9.90625 50.3125 4.234375 
Q 43.84375 -1.421875 31.78125 -1.421875 
Q 19.734375 -1.421875 13.25 4.234375 
Q 6.78125 9.90625 6.78125 20.515625 
Q 6.78125 27.484375 10.78125 32.3125 
Q 14.796875 37.15625 21.921875 38.8125 
z
M 18.3125 54.390625 
Q 18.3125 48.734375 21.84375 45.5625 
Q 25.390625 42.390625 31.78125 42.390625 
Q 38.140625 42.390625 41.71875 45.5625 
Q 45.3125 48.734375 45.3125 54.390625 
Q 45.3125 60.0625 41.71875 63.234375 
Q 38.140625 66.40625 31.78125 66.40625 
Q 25.390625 66.40625 21.84375 63.234375 
Q 18.3125 60.0625 18.3125 54.390625 
z
" id="DejaVuSans-38"/>
      </defs>
      <g transform="translate(164.074841 324.461937)scale(0.1 -0.1)">
       <use xlink:href="#DejaVuSans-32"/>
       <use x="63.623047" xlink:href="#DejaVuSans-30"/>
       <use x="127.246094" xlink:href="#DejaVuSans-30"/>
       <use x="190.869141" xlink:href="#DejaVuSans-38"/>
      </g>
     </g>
    </g>
    <g id="xtick_20">
     <g id="line2d_61">
      <path clip-path="url(#pf9c1fb759f)" d="M 229.62708 309.8635 
L 229.62708 224.924017 
" style="fill:none;stroke:#b0b0b0;stroke-linecap:square;stroke-width:0.8;"/>
     </g>
     <g id="line2d_62">
      <g>
       <use style="stroke:#000000;stroke-width:0.8;" x="229.62708" xlink:href="#m537e63c4b9" y="309.8635"/>
      </g>
     </g>
     <g id="text_15">
      <!-- 2010 -->
      <g transform="translate(216.90208 324.461937)scale(0.1 -0.1)">
       <use xlink:href="#DejaVuSans-32"/>
       <use x="63.623047" xlink:href="#DejaVuSans-30"/>
       <use x="127.246094" xlink:href="#DejaVuSans-31"/>
       <use x="190.869141" xlink:href="#DejaVuSans-30"/>
      </g>
     </g>
    </g>
    <g id="xtick_21">
     <g id="line2d_63">
      <path clip-path="url(#pf9c1fb759f)" d="M 282.382052 309.8635 
L 282.382052 224.924017 
" style="fill:none;stroke:#b0b0b0;stroke-linecap:square;stroke-width:0.8;"/>
     </g>
     <g id="line2d_64">
      <g>
       <use style="stroke:#000000;stroke-width:0.8;" x="282.382052" xlink:href="#m537e63c4b9" y="309.8635"/>
      </g>
     </g>
     <g id="text_16">
      <!-- 2012 -->
      <g transform="translate(269.657052 324.461937)scale(0.1 -0.1)">
       <use xlink:href="#DejaVuSans-32"/>
       <use x="63.623047" xlink:href="#DejaVuSans-30"/>
       <use x="127.246094" xlink:href="#DejaVuSans-31"/>
       <use x="190.869141" xlink:href="#DejaVuSans-32"/>
      </g>
     </g>
    </g>
    <g id="xtick_22">
     <g id="line2d_65">
      <path clip-path="url(#pf9c1fb759f)" d="M 335.209291 309.8635 
L 335.209291 224.924017 
" style="fill:none;stroke:#b0b0b0;stroke-linecap:square;stroke-width:0.8;"/>
     </g>
     <g id="line2d_66">
      <g>
       <use style="stroke:#000000;stroke-width:0.8;" x="335.209291" xlink:href="#m537e63c4b9" y="309.8635"/>
      </g>
     </g>
     <g id="text_17">
      <!-- 2014 -->
      <g transform="translate(322.484291 324.461937)scale(0.1 -0.1)">
       <use xlink:href="#DejaVuSans-32"/>
       <use x="63.623047" xlink:href="#DejaVuSans-30"/>
       <use x="127.246094" xlink:href="#DejaVuSans-31"/>
       <use x="190.869141" xlink:href="#DejaVuSans-34"/>
      </g>
     </g>
    </g>
    <g id="xtick_23">
     <g id="line2d_67">
      <path clip-path="url(#pf9c1fb759f)" d="M 387.964263 309.8635 
L 387.964263 224.924017 
" style="fill:none;stroke:#b0b0b0;stroke-linecap:square;stroke-width:0.8;"/>
     </g>
     <g id="line2d_68">
      <g>
       <use style="stroke:#000000;stroke-width:0.8;" x="387.964263" xlink:href="#m537e63c4b9" y="309.8635"/>
      </g>
     </g>
     <g id="text_18">
      <!-- 2016 -->
      <g transform="translate(375.239263 324.461937)scale(0.1 -0.1)">
       <use xlink:href="#DejaVuSans-32"/>
       <use x="63.623047" xlink:href="#DejaVuSans-30"/>
       <use x="127.246094" xlink:href="#DejaVuSans-31"/>
       <use x="190.869141" xlink:href="#DejaVuSans-36"/>
      </g>
     </g>
    </g>
    <g id="xtick_24">
     <g id="line2d_69">
      <path clip-path="url(#pf9c1fb759f)" d="M 440.791502 309.8635 
L 440.791502 224.924017 
" style="fill:none;stroke:#b0b0b0;stroke-linecap:square;stroke-width:0.8;"/>
     </g>
     <g id="line2d_70">
      <g>
       <use style="stroke:#000000;stroke-width:0.8;" x="440.791502" xlink:href="#m537e63c4b9" y="309.8635"/>
      </g>
     </g>
     <g id="text_19">
      <!-- 2018 -->
      <g transform="translate(428.066502 324.461937)scale(0.1 -0.1)">
       <use xlink:href="#DejaVuSans-32"/>
       <use x="63.623047" xlink:href="#DejaVuSans-30"/>
       <use x="127.246094" xlink:href="#DejaVuSans-31"/>
       <use x="190.869141" xlink:href="#DejaVuSans-38"/>
      </g>
     </g>
    </g>
    <g id="text_20">
     <!-- Date -->
     <defs>
      <path d="M 19.671875 64.796875 
L 19.671875 8.109375 
L 31.59375 8.109375 
Q 46.6875 8.109375 53.6875 14.9375 
Q 60.6875 21.78125 60.6875 36.53125 
Q 60.6875 51.171875 53.6875 57.984375 
Q 46.6875 64.796875 31.59375 64.796875 
z
M 9.8125 72.90625 
L 30.078125 72.90625 
Q 51.265625 72.90625 61.171875 64.09375 
Q 71.09375 55.28125 71.09375 36.53125 
Q 71.09375 17.671875 61.125 8.828125 
Q 51.171875 0 30.078125 0 
L 9.8125 0 
z
" id="DejaVuSans-44"/>
      <path d="M 18.3125 70.21875 
L 18.3125 54.6875 
L 36.8125 54.6875 
L 36.8125 47.703125 
L 18.3125 47.703125 
L 18.3125 18.015625 
Q 18.3125 11.328125 20.140625 9.421875 
Q 21.96875 7.515625 27.59375 7.515625 
L 36.8125 7.515625 
L 36.8125 0 
L 27.59375 0 
Q 17.1875 0 13.234375 3.875 
Q 9.28125 7.765625 9.28125 18.015625 
L 9.28125 47.703125 
L 2.6875 47.703125 
L 2.6875 54.6875 
L 9.28125 54.6875 
L 9.28125 70.21875 
z
" id="DejaVuSans-74"/>
     </defs>
     <g transform="translate(226.348349 338.140062)scale(0.1 -0.1)">
      <use xlink:href="#DejaVuSans-44"/>
      <use x="77.001953" xlink:href="#DejaVuSans-61"/>
      <use x="138.28125" xlink:href="#DejaVuSans-74"/>
      <use x="177.490234" xlink:href="#DejaVuSans-65"/>
     </g>
    </g>
   </g>
   <g id="matplotlib.axis_6">
    <g id="ytick_9">
     <g id="line2d_71">
      <path clip-path="url(#pf9c1fb759f)" d="M 31.543 306.002614 
L 445.05526 306.002614 
" style="fill:none;stroke:#b0b0b0;stroke-linecap:square;stroke-width:0.8;"/>
     </g>
     <g id="line2d_72">
      <g>
       <use style="stroke:#000000;stroke-width:0.8;" x="31.543" xlink:href="#mbe2795f615" y="306.002614"/>
      </g>
     </g>
     <g id="text_21">
      <!-- 0 -->
      <g transform="translate(18.1805 309.801833)scale(0.1 -0.1)">
       <use xlink:href="#DejaVuSans-30"/>
      </g>
     </g>
    </g>
    <g id="ytick_10">
     <g id="line2d_73">
      <path clip-path="url(#pf9c1fb759f)" d="M 31.543 282.228688 
L 445.05526 282.228688 
" style="fill:none;stroke:#b0b0b0;stroke-linecap:square;stroke-width:0.8;"/>
     </g>
     <g id="line2d_74">
      <g>
       <use style="stroke:#000000;stroke-width:0.8;" x="31.543" xlink:href="#mbe2795f615" y="282.228688"/>
      </g>
     </g>
     <g id="text_22">
      <!-- 100 -->
      <g transform="translate(5.4555 286.027907)scale(0.1 -0.1)">
       <use xlink:href="#DejaVuSans-31"/>
       <use x="63.623047" xlink:href="#DejaVuSans-30"/>
       <use x="127.246094" xlink:href="#DejaVuSans-30"/>
      </g>
     </g>
    </g>
    <g id="ytick_11">
     <g id="line2d_75">
      <path clip-path="url(#pf9c1fb759f)" d="M 31.543 258.454762 
L 445.05526 258.454762 
" style="fill:none;stroke:#b0b0b0;stroke-linecap:square;stroke-width:0.8;"/>
     </g>
     <g id="line2d_76">
      <g>
       <use style="stroke:#000000;stroke-width:0.8;" x="31.543" xlink:href="#mbe2795f615" y="258.454762"/>
      </g>
     </g>
     <g id="text_23">
      <!-- 200 -->
      <g transform="translate(5.4555 262.253981)scale(0.1 -0.1)">
       <use xlink:href="#DejaVuSans-32"/>
       <use x="63.623047" xlink:href="#DejaVuSans-30"/>
       <use x="127.246094" xlink:href="#DejaVuSans-30"/>
      </g>
     </g>
    </g>
    <g id="ytick_12">
     <g id="line2d_77">
      <path clip-path="url(#pf9c1fb759f)" d="M 31.543 234.680836 
L 445.05526 234.680836 
" style="fill:none;stroke:#b0b0b0;stroke-linecap:square;stroke-width:0.8;"/>
     </g>
     <g id="line2d_78">
      <g>
       <use style="stroke:#000000;stroke-width:0.8;" x="31.543" xlink:href="#mbe2795f615" y="234.680836"/>
      </g>
     </g>
     <g id="text_24">
      <!-- 300 -->
      <g transform="translate(5.4555 238.480055)scale(0.1 -0.1)">
       <use xlink:href="#DejaVuSans-33"/>
       <use x="63.623047" xlink:href="#DejaVuSans-30"/>
       <use x="127.246094" xlink:href="#DejaVuSans-30"/>
      </g>
     </g>
    </g>
   </g>
   <g id="line2d_79">
    <path clip-path="url(#pf9c1fb759f)" d="M 31.543 298.435374 
L 33.78328 257.841395 
L 36.023559 257.38969 
L 38.191572 258.088644 
L 40.431851 254.52731 
L 42.599864 243.988328 
L 44.840144 279.237928 
L 47.080423 239.870684 
L 49.103902 251.843233 
L 51.344181 248.037028 
L 53.512194 268.813062 
L 55.752473 245.716692 
L 57.920486 229.490988 
L 60.160766 241.862939 
L 62.401045 239.939628 
L 64.569058 301.314396 
L 66.809337 304.148248 
L 68.97735 306.002614 
L 71.21763 306.002614 
L 73.457909 300.774728 
L 75.553655 301.190772 
L 77.793934 300.151851 
L 79.961947 262.246703 
L 82.202227 244.763358 
L 84.370239 263.80865 
L 86.610519 252.894041 
L 88.850798 260.48981 
L 91.018811 291.71924 
L 93.259091 276.080751 
L 97.667383 293.20511 
L 99.907662 306.002614 
L 101.931141 306.002614 
L 104.17142 253.902055 
L 106.339433 243.933648 
L 108.579713 243.94078 
L 110.747725 230.850856 
L 112.988005 234.015166 
L 115.228284 246.315795 
L 117.396297 245.878355 
L 119.636577 262.020851 
L 121.804589 266.100457 
L 124.044869 247.663777 
L 126.285148 248.607602 
L 128.308627 254.441723 
L 130.548906 246.287267 
L 132.716919 247.613852 
L 134.957199 231.633019 
L 137.125211 231.528413 
L 139.365491 245.474198 
L 141.60577 252.808455 
L 143.773783 244.107198 
L 146.014063 271.575592 
L 148.182075 253.362387 
L 150.422355 253.804582 
L 152.662634 259.565004 
L 154.686113 274.435595 
L 156.926392 268.473095 
L 159.094405 273.584489 
L 161.334685 244.637356 
L 163.502697 236.585127 
L 165.742977 238.698629 
L 167.983256 254.175455 
L 170.151269 251.03492 
L 172.391549 259.617307 
L 174.559561 255.94899 
L 176.799841 267.02764 
L 179.04012 264.847571 
L 181.135866 276.480153 
L 183.376146 262.772107 
L 185.544158 260.095163 
L 187.784438 242.840047 
L 189.95245 235.296581 
L 192.19273 239.224033 
L 194.43301 246.729462 
L 196.601022 247.720834 
L 198.841302 266.03389 
L 201.009314 268.903403 
L 203.249594 274.136044 
L 205.489874 267.567308 
L 207.513352 256.329373 
L 209.753632 267.331946 
L 211.921644 270.120628 
L 214.161924 257.323123 
L 216.329936 234.433587 
L 218.570216 246.945804 
L 220.810496 251.19896 
L 222.978508 241.741692 
L 225.218788 257.121045 
L 227.3868 270.503388 
L 229.62708 286.890755 
L 231.86736 278.051609 
L 233.890838 273.888795 
L 236.131118 262.386969 
L 238.29913 259.232169 
L 240.53941 259.840782 
L 242.707422 247.65189 
L 244.947702 244.090556 
L 247.187982 256.01318 
L 251.596274 281.558264 
L 253.764286 266.69005 
L 256.004566 254.584367 
L 258.244846 281.284863 
L 260.268324 286.821811 
L 262.508604 258.659218 
L 264.676616 272.88078 
L 266.916896 268.211581 
L 269.084908 286.431918 
L 271.325188 239.352412 
L 273.565468 243.843307 
L 275.73348 236.616034 
L 277.97376 259.034846 
L 280.141772 273.154181 
L 282.382052 256.008425 
L 284.622332 267.788406 
L 286.718077 257.109158 
L 288.958357 244.478071 
L 291.126369 255.696987 
L 293.366649 246.035263 
L 295.534661 241.382706 
L 297.774941 235.082615 
L 300.015221 240.897718 
L 302.183233 246.948182 
L 304.423513 260.316261 
L 306.591525 256.372166 
L 308.831805 253.516918 
L 311.072085 250.873257 
L 313.095563 273.289692 
L 315.335843 271.202341 
L 317.503855 275.788332 
L 319.744135 276.133054 
L 321.912147 266.911148 
L 324.152427 234.10313 
L 326.392707 249.627503 
L 328.560719 263.499589 
L 330.800999 258.723407 
L 332.969011 253.52405 
L 335.209291 259.950142 
L 337.449571 264.291261 
L 339.473049 280.081903 
L 341.713329 259.679119 
L 343.881341 259.705271 
L 346.121621 257.798602 
L 348.289633 244.568412 
L 350.529913 242.735442 
L 352.770193 241.836788 
L 354.938205 266.012493 
L 357.178485 274.965754 
L 359.346497 275.374665 
L 361.586777 267.728971 
L 363.827057 273.161313 
L 365.850535 274.968131 
L 368.090815 272.020164 
L 370.258827 265.372975 
L 372.499107 236.46388 
L 374.667119 229.968844 
L 376.907399 228.784902 
L 379.147679 230.674929 
L 381.315691 229.747746 
L 383.555971 250.828087 
L 385.723983 253.062836 
L 387.964263 239.074258 
L 390.204543 239.785098 
L 392.300288 261.126951 
L 394.540568 234.559589 
L 396.70858 235.986025 
L 398.94886 235.477262 
L 401.116873 232.05144 
L 403.357152 229.096341 
L 405.597432 233.539688 
L 407.765444 244.518487 
L 410.005724 271.038301 
L 412.173737 275.025189 
L 414.414016 278.393954 
L 416.654296 280.341039 
L 418.677774 274.131289 
L 420.918054 250.63314 
L 423.086066 258.480913 
L 425.326346 243.403489 
L 427.494359 232.828847 
L 429.734638 237.643067 
L 431.974918 241.83441 
L 434.14293 237.776201 
L 436.38321 259.439003 
L 438.551223 236.925095 
L 440.791502 248.947569 
L 443.031782 249.090213 
L 445.05526 274.934848 
L 445.05526 274.934848 
" style="fill:none;stroke:#4682b4;stroke-linecap:square;stroke-width:1.5;"/>
   </g>
   <g id="patch_15">
    <path d="M 31.543 309.8635 
L 31.543 224.924017 
" style="fill:none;stroke:#000000;stroke-linecap:square;stroke-linejoin:miter;stroke-width:0.8;"/>
   </g>
   <g id="patch_16">
    <path d="M 445.05526 309.8635 
L 445.05526 224.924017 
" style="fill:none;stroke:#000000;stroke-linecap:square;stroke-linejoin:miter;stroke-width:0.8;"/>
   </g>
   <g id="patch_17">
    <path d="M 31.543 309.8635 
L 445.05526 309.8635 
" style="fill:none;stroke:#000000;stroke-linecap:square;stroke-linejoin:miter;stroke-width:0.8;"/>
   </g>
   <g id="patch_18">
    <path d="M 31.543 224.924017 
L 445.05526 224.924017 
" style="fill:none;stroke:#000000;stroke-linecap:square;stroke-linejoin:miter;stroke-width:0.8;"/>
   </g>
   <g id="legend_3">
    <g id="patch_19">
     <path d="M 352.270885 304.8635 
L 438.05526 304.8635 
Q 440.05526 304.8635 440.05526 302.8635 
L 440.05526 289.185375 
Q 440.05526 287.185375 438.05526 287.185375 
L 352.270885 287.185375 
Q 350.270885 287.185375 350.270885 289.185375 
L 350.270885 302.8635 
Q 350.270885 304.8635 352.270885 304.8635 
z
" style="fill:#ffffff;opacity:0.8;stroke:#cccccc;stroke-linejoin:miter;"/>
    </g>
    <g id="line2d_80">
     <path d="M 354.270885 295.283812 
L 374.270885 295.283812 
" style="fill:none;stroke:#4682b4;stroke-linecap:square;stroke-width:1.5;"/>
    </g>
    <g id="line2d_81"/>
    <g id="text_25">
     <!-- CO2 (tons) -->
     <defs>
      <path d="M 64.40625 67.28125 
L 64.40625 56.890625 
Q 59.421875 61.53125 53.78125 63.8125 
Q 48.140625 66.109375 41.796875 66.109375 
Q 29.296875 66.109375 22.65625 58.46875 
Q 16.015625 50.828125 16.015625 36.375 
Q 16.015625 21.96875 22.65625 14.328125 
Q 29.296875 6.6875 41.796875 6.6875 
Q 48.140625 6.6875 53.78125 8.984375 
Q 59.421875 11.28125 64.40625 15.921875 
L 64.40625 5.609375 
Q 59.234375 2.09375 53.4375 0.328125 
Q 47.65625 -1.421875 41.21875 -1.421875 
Q 24.65625 -1.421875 15.125 8.703125 
Q 5.609375 18.84375 5.609375 36.375 
Q 5.609375 53.953125 15.125 64.078125 
Q 24.65625 74.21875 41.21875 74.21875 
Q 47.75 74.21875 53.53125 72.484375 
Q 59.328125 70.75 64.40625 67.28125 
z
" id="DejaVuSans-43"/>
     </defs>
     <g transform="translate(382.270885 298.783812)scale(0.1 -0.1)">
      <use xlink:href="#DejaVuSans-43"/>
      <use x="69.824219" xlink:href="#DejaVuSans-4f"/>
      <use x="148.535156" xlink:href="#DejaVuSans-32"/>
      <use x="212.158203" xlink:href="#DejaVuSans-20"/>
      <use x="243.945312" xlink:href="#DejaVuSans-28"/>
      <use x="282.958984" xlink:href="#DejaVuSans-74"/>
      <use x="322.167969" xlink:href="#DejaVuSans-6f"/>
      <use x="383.349609" xlink:href="#DejaVuSans-6e"/>
      <use x="446.728516" xlink:href="#DejaVuSans-73"/>
      <use x="498.828125" xlink:href="#DejaVuSans-29"/>
     </g>
    </g>
   </g>
  </g>
 </g>
 <defs>
  <clipPath id="pf2b9154aa2">
   <rect height="84.939483" width="413.51226" x="31.543" y="23.36505"/>
  </clipPath>
  <clipPath id="p8d551031f2">
   <rect height="84.939483" width="413.51226" x="31.543" y="124.144533"/>
  </clipPath>
  <clipPath id="pf9c1fb759f">
   <rect height="84.939483" width="413.51226" x="31.543" y="224.924017"/>
  </clipPath>
 </defs>
</svg>
