<?xml version="1.0" encoding="utf-8" standalone="no"?>
<!DOCTYPE svg PUBLIC "-//W3C//DTD SVG 1.1//EN"
  "http://www.w3.org/Graphics/SVG/1.1/DTD/svg11.dtd">
<!-- Created with matplotlib (http://matplotlib.org/) -->
<svg height="345.6pt" version="1.1" viewBox="0 0 460.8 345.6" width="460.8pt" xmlns="http://www.w3.org/2000/svg" xmlns:xlink="http://www.w3.org/1999/xlink">
 <defs>
  <style type="text/css">
*{stroke-linecap:butt;stroke-linejoin:round;}
  </style>
 </defs>
 <g id="figure_1">
  <g id="patch_1">
   <path d="M 0 345.6 
L 460.8 345.6 
L 460.8 0 
L 0 0 
z
" style="fill:none;"/>
  </g>
  <g id="axes_1">
   <g id="patch_2">
    <path d="M 31.543 108.304533 
L 447.48 108.304533 
L 447.48 23.36505 
L 31.543 23.36505 
z
" style="fill:none;"/>
   </g>
   <g id="matplotlib.axis_1">
    <g id="xtick_1">
     <g id="line2d_1">
      <path clip-path="url(#pca04c550e8)" d="M 74.795114 108.304533 
L 74.795114 23.36505 
" style="fill:none;stroke:#b0b0b0;stroke-linecap:square;stroke-width:0.8;"/>
     </g>
     <g id="line2d_2">
      <defs>
       <path d="M 0 0 
L 0 3.5 
" id="m1c403ccec9" style="stroke:#000000;stroke-width:0.8;"/>
      </defs>
      <g>
       <use style="stroke:#000000;stroke-width:0.8;" x="74.795114" xlink:href="#m1c403ccec9" y="108.304533"/>
      </g>
     </g>
    </g>
    <g id="xtick_2">
     <g id="line2d_3">
      <path clip-path="url(#pca04c550e8)" d="M 135.631422 108.304533 
L 135.631422 23.36505 
" style="fill:none;stroke:#b0b0b0;stroke-linecap:square;stroke-width:0.8;"/>
     </g>
     <g id="line2d_4">
      <g>
       <use style="stroke:#000000;stroke-width:0.8;" x="135.631422" xlink:href="#m1c403ccec9" y="108.304533"/>
      </g>
     </g>
    </g>
    <g id="xtick_3">
     <g id="line2d_5">
      <path clip-path="url(#pca04c550e8)" d="M 196.551067 108.304533 
L 196.551067 23.36505 
" style="fill:none;stroke:#b0b0b0;stroke-linecap:square;stroke-width:0.8;"/>
     </g>
     <g id="line2d_6">
      <g>
       <use style="stroke:#000000;stroke-width:0.8;" x="196.551067" xlink:href="#m1c403ccec9" y="108.304533"/>
      </g>
     </g>
    </g>
    <g id="xtick_4">
     <g id="line2d_7">
      <path clip-path="url(#pca04c550e8)" d="M 257.387374 108.304533 
L 257.387374 23.36505 
" style="fill:none;stroke:#b0b0b0;stroke-linecap:square;stroke-width:0.8;"/>
     </g>
     <g id="line2d_8">
      <g>
       <use style="stroke:#000000;stroke-width:0.8;" x="257.387374" xlink:href="#m1c403ccec9" y="108.304533"/>
      </g>
     </g>
    </g>
    <g id="xtick_5">
     <g id="line2d_9">
      <path clip-path="url(#pca04c550e8)" d="M 318.307019 108.304533 
L 318.307019 23.36505 
" style="fill:none;stroke:#b0b0b0;stroke-linecap:square;stroke-width:0.8;"/>
     </g>
     <g id="line2d_10">
      <g>
       <use style="stroke:#000000;stroke-width:0.8;" x="318.307019" xlink:href="#m1c403ccec9" y="108.304533"/>
      </g>
     </g>
    </g>
    <g id="xtick_6">
     <g id="line2d_11">
      <path clip-path="url(#pca04c550e8)" d="M 379.143326 108.304533 
L 379.143326 23.36505 
" style="fill:none;stroke:#b0b0b0;stroke-linecap:square;stroke-width:0.8;"/>
     </g>
     <g id="line2d_12">
      <g>
       <use style="stroke:#000000;stroke-width:0.8;" x="379.143326" xlink:href="#m1c403ccec9" y="108.304533"/>
      </g>
     </g>
    </g>
    <g id="xtick_7">
     <g id="line2d_13">
      <path clip-path="url(#pca04c550e8)" d="M 440.062971 108.304533 
L 440.062971 23.36505 
" style="fill:none;stroke:#b0b0b0;stroke-linecap:square;stroke-width:0.8;"/>
     </g>
     <g id="line2d_14">
      <g>
       <use style="stroke:#000000;stroke-width:0.8;" x="440.062971" xlink:href="#m1c403ccec9" y="108.304533"/>
      </g>
     </g>
    </g>
   </g>
   <g id="matplotlib.axis_2">
    <g id="ytick_1">
     <g id="line2d_15">
      <path clip-path="url(#pca04c550e8)" d="M 31.543 104.443648 
L 447.48 104.443648 
" style="fill:none;stroke:#b0b0b0;stroke-linecap:square;stroke-width:0.8;"/>
     </g>
     <g id="line2d_16">
      <defs>
       <path d="M 0 0 
L -3.5 0 
" id="maf88d36e1d" style="stroke:#000000;stroke-width:0.8;"/>
      </defs>
      <g>
       <use style="stroke:#000000;stroke-width:0.8;" x="31.543" xlink:href="#maf88d36e1d" y="104.443648"/>
      </g>
     </g>
     <g id="text_1">
      <!-- 0.0 -->
      <defs>
       <path d="M 31.78125 66.40625 
Q 24.171875 66.40625 20.328125 58.90625 
Q 16.5 51.421875 16.5 36.375 
Q 16.5 21.390625 20.328125 13.890625 
Q 24.171875 6.390625 31.78125 6.390625 
Q 39.453125 6.390625 43.28125 13.890625 
Q 47.125 21.390625 47.125 36.375 
Q 47.125 51.421875 43.28125 58.90625 
Q 39.453125 66.40625 31.78125 66.40625 
z
M 31.78125 74.21875 
Q 44.046875 74.21875 50.515625 64.515625 
Q 56.984375 54.828125 56.984375 36.375 
Q 56.984375 17.96875 50.515625 8.265625 
Q 44.046875 -1.421875 31.78125 -1.421875 
Q 19.53125 -1.421875 13.0625 8.265625 
Q 6.59375 17.96875 6.59375 36.375 
Q 6.59375 54.828125 13.0625 64.515625 
Q 19.53125 74.21875 31.78125 74.21875 
z
" id="DejaVuSans-30"/>
       <path d="M 10.6875 12.40625 
L 21 12.40625 
L 21 0 
L 10.6875 0 
z
" id="DejaVuSans-2e"/>
      </defs>
      <g transform="translate(8.639875 108.242866)scale(0.1 -0.1)">
       <use xlink:href="#DejaVuSans-30"/>
       <use x="63.623047" xlink:href="#DejaVuSans-2e"/>
       <use x="95.410156" xlink:href="#DejaVuSans-30"/>
      </g>
     </g>
    </g>
    <g id="ytick_2">
     <g id="line2d_17">
      <path clip-path="url(#pca04c550e8)" d="M 31.543 67.014839 
L 447.48 67.014839 
" style="fill:none;stroke:#b0b0b0;stroke-linecap:square;stroke-width:0.8;"/>
     </g>
     <g id="line2d_18">
      <g>
       <use style="stroke:#000000;stroke-width:0.8;" x="31.543" xlink:href="#maf88d36e1d" y="67.014839"/>
      </g>
     </g>
     <g id="text_2">
      <!-- 0.5 -->
      <defs>
       <path d="M 10.796875 72.90625 
L 49.515625 72.90625 
L 49.515625 64.59375 
L 19.828125 64.59375 
L 19.828125 46.734375 
Q 21.96875 47.46875 24.109375 47.828125 
Q 26.265625 48.1875 28.421875 48.1875 
Q 40.625 48.1875 47.75 41.5 
Q 54.890625 34.8125 54.890625 23.390625 
Q 54.890625 11.625 47.5625 5.09375 
Q 40.234375 -1.421875 26.90625 -1.421875 
Q 22.3125 -1.421875 17.546875 -0.640625 
Q 12.796875 0.140625 7.71875 1.703125 
L 7.71875 11.625 
Q 12.109375 9.234375 16.796875 8.0625 
Q 21.484375 6.890625 26.703125 6.890625 
Q 35.15625 6.890625 40.078125 11.328125 
Q 45.015625 15.765625 45.015625 23.390625 
Q 45.015625 31 40.078125 35.4375 
Q 35.15625 39.890625 26.703125 39.890625 
Q 22.75 39.890625 18.8125 39.015625 
Q 14.890625 38.140625 10.796875 36.28125 
z
" id="DejaVuSans-35"/>
      </defs>
      <g transform="translate(8.639875 70.814058)scale(0.1 -0.1)">
       <use xlink:href="#DejaVuSans-30"/>
       <use x="63.623047" xlink:href="#DejaVuSans-2e"/>
       <use x="95.410156" xlink:href="#DejaVuSans-35"/>
      </g>
     </g>
    </g>
    <g id="ytick_3">
     <g id="line2d_19">
      <path clip-path="url(#pca04c550e8)" d="M 31.543 29.58603 
L 447.48 29.58603 
" style="fill:none;stroke:#b0b0b0;stroke-linecap:square;stroke-width:0.8;"/>
     </g>
     <g id="line2d_20">
      <g>
       <use style="stroke:#000000;stroke-width:0.8;" x="31.543" xlink:href="#maf88d36e1d" y="29.58603"/>
      </g>
     </g>
     <g id="text_3">
      <!-- 1.0 -->
      <defs>
       <path d="M 12.40625 8.296875 
L 28.515625 8.296875 
L 28.515625 63.921875 
L 10.984375 60.40625 
L 10.984375 69.390625 
L 28.421875 72.90625 
L 38.28125 72.90625 
L 38.28125 8.296875 
L 54.390625 8.296875 
L 54.390625 0 
L 12.40625 0 
z
" id="DejaVuSans-31"/>
      </defs>
      <g transform="translate(8.639875 33.385249)scale(0.1 -0.1)">
       <use xlink:href="#DejaVuSans-31"/>
       <use x="63.623047" xlink:href="#DejaVuSans-2e"/>
       <use x="95.410156" xlink:href="#DejaVuSans-30"/>
      </g>
     </g>
    </g>
   </g>
   <g id="line2d_21">
    <path clip-path="url(#pca04c550e8)" d="M 31.543 104.443648 
L 34.12646 104.443648 
L 36.626582 100.615928 
L 39.210041 69.19879 
L 41.710164 78.598847 
L 44.293623 74.37614 
L 46.877083 71.669192 
L 49.21053 72.066725 
L 51.79399 59.721252 
L 54.294112 57.137584 
L 56.877572 104.443648 
L 59.377694 100.566335 
L 61.961154 73.767117 
L 64.544613 51.332772 
L 67.044736 49.006903 
L 69.628195 86.42399 
L 72.128317 46.662092 
L 74.711777 48.736701 
L 77.295237 97.784942 
L 79.628684 79.120162 
L 82.212144 86.142671 
L 84.712266 104.443648 
L 87.295726 104.443648 
L 89.795848 91.320484 
L 92.379307 44.422025 
L 94.962767 40.697758 
L 97.462889 34.796952 
L 100.046349 31.368728 
L 102.546471 67.55111 
L 105.129931 32.462615 
L 107.71339 58.960099 
L 110.046838 71.748246 
L 112.630297 103.075585 
L 115.13042 93.39903 
L 117.713879 87.710455 
L 120.214001 84.82305 
L 122.797461 67.509664 
L 125.380921 104.443648 
L 127.881043 104.443648 
L 130.464503 46.288334 
L 132.964625 39.449457 
L 135.548084 52.534921 
L 138.131544 66.445961 
L 140.548329 42.084348 
L 143.131788 68.246468 
L 145.631911 37.529879 
L 148.21537 95.94761 
L 150.715492 104.443648 
L 153.298952 71.726744 
L 155.882412 34.408309 
L 158.382534 39.421073 
L 160.965994 32.614544 
L 163.466116 47.230386 
L 166.049575 40.697154 
L 168.633035 92.623992 
L 170.966482 38.001831 
L 173.549942 59.775886 
L 176.050064 85.79963 
L 178.633524 93.52007 
L 181.133646 94.009639 
L 183.717106 35.723047 
L 186.300565 31.988517 
L 188.800688 27.225936 
L 191.384147 44.588845 
L 193.884269 43.028587 
L 196.467729 34.662966 
L 199.051189 56.744253 
L 201.384636 29.644401 
L 203.968096 37.981654 
L 206.468218 35.980014 
L 209.051678 103.237977 
L 211.5518 104.443648 
L 214.135259 57.294215 
L 216.718719 35.879704 
L 219.218841 30.934923 
L 221.802301 30.042017 
L 224.302423 46.919415 
L 226.885883 42.599584 
L 229.469342 75.778412 
L 231.80279 95.030191 
L 234.386249 102.60048 
L 236.886372 100.847779 
L 239.469831 103.822853 
L 241.969954 101.079941 
L 244.553413 103.687727 
L 247.136873 72.94972 
L 249.636995 39.255555 
L 252.220455 95.161806 
L 254.720577 72.692269 
L 257.304036 40.308881 
L 259.887496 33.080895 
L 262.304281 40.634735 
L 267.387863 92.18696 
L 269.971322 102.249434 
L 272.471445 102.676072 
L 275.054904 87.56245 
L 277.638364 73.678173 
L 280.138486 45.742279 
L 282.721946 48.367042 
L 285.222068 88.288542 
L 287.805528 100.326479 
L 290.388987 65.880504 
L 292.722435 52.585922 
L 295.305894 51.589843 
L 297.806016 81.473172 
L 300.389476 82.751037 
L 302.889598 78.556948 
L 305.473058 42.632083 
L 308.056518 34.364542 
L 310.55664 35.689213 
L 313.140099 45.683839 
L 315.640222 32.046662 
L 318.223681 29.39949 
L 320.807141 35.64014 
L 323.140588 40.362074 
L 325.724048 95.001023 
L 328.22417 103.296663 
L 330.80763 104.443648 
L 333.307752 98.619725 
L 335.891212 56.99086 
L 338.474671 39.361791 
L 340.974793 33.476027 
L 343.558253 50.463155 
L 346.058375 68.142694 
L 348.641835 84.368324 
L 351.225295 51.862309 
L 353.558742 84.686138 
L 356.142202 59.517204 
L 358.642324 47.941742 
L 361.225783 81.86975 
L 363.725906 40.470224 
L 366.309365 50.464564 
L 368.892825 44.381377 
L 371.392947 38.049203 
L 373.976407 48.964393 
L 376.476529 37.224314 
L 381.643448 44.154087 
L 384.060233 54.837354 
L 386.643693 68.811019 
L 389.143815 98.740953 
L 391.727274 101.327699 
L 394.227397 102.17359 
L 396.810856 38.357652 
L 399.394316 34.637812 
L 401.894438 48.475414 
L 404.477898 55.290164 
L 406.97802 98.459093 
L 409.56148 71.596849 
L 412.144939 42.612563 
L 414.478387 67.807862 
L 417.061846 102.465857 
L 419.561969 95.915078 
L 422.145428 94.218339 
L 424.64555 90.675356 
L 427.22901 40.406578 
L 429.81247 30.141425 
L 432.312592 40.907413 
L 434.896051 48.353559 
L 437.396174 77.816793 
L 439.979633 50.410936 
L 442.563093 86.030485 
L 444.89654 76.391647 
L 447.48 63.52088 
L 447.48 63.52088 
" style="fill:none;stroke:#008000;stroke-linecap:square;stroke-width:1.5;"/>
   </g>
   <g id="patch_3">
    <path d="M 31.543 108.304533 
L 31.543 23.36505 
" style="fill:none;stroke:#000000;stroke-linecap:square;stroke-linejoin:miter;stroke-width:0.8;"/>
   </g>
   <g id="patch_4">
    <path d="M 447.48 108.304533 
L 447.48 23.36505 
" style="fill:none;stroke:#000000;stroke-linecap:square;stroke-linejoin:miter;stroke-width:0.8;"/>
   </g>
   <g id="patch_5">
    <path d="M 31.543 108.304533 
L 447.48 108.304533 
" style="fill:none;stroke:#000000;stroke-linecap:square;stroke-linejoin:miter;stroke-width:0.8;"/>
   </g>
   <g id="patch_6">
    <path d="M 31.543 23.36505 
L 447.48 23.36505 
" style="fill:none;stroke:#000000;stroke-linecap:square;stroke-linejoin:miter;stroke-width:0.8;"/>
   </g>
   <g id="text_4">
    <!-- Average monthly emissions -->
    <defs>
     <path d="M 34.1875 63.1875 
L 20.796875 26.90625 
L 47.609375 26.90625 
z
M 28.609375 72.90625 
L 39.796875 72.90625 
L 67.578125 0 
L 57.328125 0 
L 50.6875 18.703125 
L 17.828125 18.703125 
L 11.1875 0 
L 0.78125 0 
z
" id="DejaVuSans-41"/>
     <path d="M 2.984375 54.6875 
L 12.5 54.6875 
L 29.59375 8.796875 
L 46.6875 54.6875 
L 56.203125 54.6875 
L 35.6875 0 
L 23.484375 0 
z
" id="DejaVuSans-76"/>
     <path d="M 56.203125 29.59375 
L 56.203125 25.203125 
L 14.890625 25.203125 
Q 15.484375 15.921875 20.484375 11.0625 
Q 25.484375 6.203125 34.421875 6.203125 
Q 39.59375 6.203125 44.453125 7.46875 
Q 49.3125 8.734375 54.109375 11.28125 
L 54.109375 2.78125 
Q 49.265625 0.734375 44.1875 -0.34375 
Q 39.109375 -1.421875 33.890625 -1.421875 
Q 20.796875 -1.421875 13.15625 6.1875 
Q 5.515625 13.8125 5.515625 26.8125 
Q 5.515625 40.234375 12.765625 48.109375 
Q 20.015625 56 32.328125 56 
Q 43.359375 56 49.78125 48.890625 
Q 56.203125 41.796875 56.203125 29.59375 
z
M 47.21875 32.234375 
Q 47.125 39.59375 43.09375 43.984375 
Q 39.0625 48.390625 32.421875 48.390625 
Q 24.90625 48.390625 20.390625 44.140625 
Q 15.875 39.890625 15.1875 32.171875 
z
" id="DejaVuSans-65"/>
     <path d="M 41.109375 46.296875 
Q 39.59375 47.171875 37.8125 47.578125 
Q 36.03125 48 33.890625 48 
Q 26.265625 48 22.1875 43.046875 
Q 18.109375 38.09375 18.109375 28.8125 
L 18.109375 0 
L 9.078125 0 
L 9.078125 54.6875 
L 18.109375 54.6875 
L 18.109375 46.1875 
Q 20.953125 51.171875 25.484375 53.578125 
Q 30.03125 56 36.53125 56 
Q 37.453125 56 38.578125 55.875 
Q 39.703125 55.765625 41.0625 55.515625 
z
" id="DejaVuSans-72"/>
     <path d="M 34.28125 27.484375 
Q 23.390625 27.484375 19.1875 25 
Q 14.984375 22.515625 14.984375 16.5 
Q 14.984375 11.71875 18.140625 8.90625 
Q 21.296875 6.109375 26.703125 6.109375 
Q 34.1875 6.109375 38.703125 11.40625 
Q 43.21875 16.703125 43.21875 25.484375 
L 43.21875 27.484375 
z
M 52.203125 31.203125 
L 52.203125 0 
L 43.21875 0 
L 43.21875 8.296875 
Q 40.140625 3.328125 35.546875 0.953125 
Q 30.953125 -1.421875 24.3125 -1.421875 
Q 15.921875 -1.421875 10.953125 3.296875 
Q 6 8.015625 6 15.921875 
Q 6 25.140625 12.171875 29.828125 
Q 18.359375 34.515625 30.609375 34.515625 
L 43.21875 34.515625 
L 43.21875 35.40625 
Q 43.21875 41.609375 39.140625 45 
Q 35.0625 48.390625 27.6875 48.390625 
Q 23 48.390625 18.546875 47.265625 
Q 14.109375 46.140625 10.015625 43.890625 
L 10.015625 52.203125 
Q 14.9375 54.109375 19.578125 55.046875 
Q 24.21875 56 28.609375 56 
Q 40.484375 56 46.34375 49.84375 
Q 52.203125 43.703125 52.203125 31.203125 
z
" id="DejaVuSans-61"/>
     <path d="M 45.40625 27.984375 
Q 45.40625 37.75 41.375 43.109375 
Q 37.359375 48.484375 30.078125 48.484375 
Q 22.859375 48.484375 18.828125 43.109375 
Q 14.796875 37.75 14.796875 27.984375 
Q 14.796875 18.265625 18.828125 12.890625 
Q 22.859375 7.515625 30.078125 7.515625 
Q 37.359375 7.515625 41.375 12.890625 
Q 45.40625 18.265625 45.40625 27.984375 
z
M 54.390625 6.78125 
Q 54.390625 -7.171875 48.1875 -13.984375 
Q 42 -20.796875 29.203125 -20.796875 
Q 24.46875 -20.796875 20.265625 -20.09375 
Q 16.0625 -19.390625 12.109375 -17.921875 
L 12.109375 -9.1875 
Q 16.0625 -11.328125 19.921875 -12.34375 
Q 23.78125 -13.375 27.78125 -13.375 
Q 36.625 -13.375 41.015625 -8.765625 
Q 45.40625 -4.15625 45.40625 5.171875 
L 45.40625 9.625 
Q 42.625 4.78125 38.28125 2.390625 
Q 33.9375 0 27.875 0 
Q 17.828125 0 11.671875 7.65625 
Q 5.515625 15.328125 5.515625 27.984375 
Q 5.515625 40.671875 11.671875 48.328125 
Q 17.828125 56 27.875 56 
Q 33.9375 56 38.28125 53.609375 
Q 42.625 51.21875 45.40625 46.390625 
L 45.40625 54.6875 
L 54.390625 54.6875 
z
" id="DejaVuSans-67"/>
     <path id="DejaVuSans-20"/>
     <path d="M 52 44.1875 
Q 55.375 50.25 60.0625 53.125 
Q 64.75 56 71.09375 56 
Q 79.640625 56 84.28125 50.015625 
Q 88.921875 44.046875 88.921875 33.015625 
L 88.921875 0 
L 79.890625 0 
L 79.890625 32.71875 
Q 79.890625 40.578125 77.09375 44.375 
Q 74.3125 48.1875 68.609375 48.1875 
Q 61.625 48.1875 57.5625 43.546875 
Q 53.515625 38.921875 53.515625 30.90625 
L 53.515625 0 
L 44.484375 0 
L 44.484375 32.71875 
Q 44.484375 40.625 41.703125 44.40625 
Q 38.921875 48.1875 33.109375 48.1875 
Q 26.21875 48.1875 22.15625 43.53125 
Q 18.109375 38.875 18.109375 30.90625 
L 18.109375 0 
L 9.078125 0 
L 9.078125 54.6875 
L 18.109375 54.6875 
L 18.109375 46.1875 
Q 21.1875 51.21875 25.484375 53.609375 
Q 29.78125 56 35.6875 56 
Q 41.65625 56 45.828125 52.96875 
Q 50 49.953125 52 44.1875 
z
" id="DejaVuSans-6d"/>
     <path d="M 30.609375 48.390625 
Q 23.390625 48.390625 19.1875 42.75 
Q 14.984375 37.109375 14.984375 27.296875 
Q 14.984375 17.484375 19.15625 11.84375 
Q 23.34375 6.203125 30.609375 6.203125 
Q 37.796875 6.203125 41.984375 11.859375 
Q 46.1875 17.53125 46.1875 27.296875 
Q 46.1875 37.015625 41.984375 42.703125 
Q 37.796875 48.390625 30.609375 48.390625 
z
M 30.609375 56 
Q 42.328125 56 49.015625 48.375 
Q 55.71875 40.765625 55.71875 27.296875 
Q 55.71875 13.875 49.015625 6.21875 
Q 42.328125 -1.421875 30.609375 -1.421875 
Q 18.84375 -1.421875 12.171875 6.21875 
Q 5.515625 13.875 5.515625 27.296875 
Q 5.515625 40.765625 12.171875 48.375 
Q 18.84375 56 30.609375 56 
z
" id="DejaVuSans-6f"/>
     <path d="M 54.890625 33.015625 
L 54.890625 0 
L 45.90625 0 
L 45.90625 32.71875 
Q 45.90625 40.484375 42.875 44.328125 
Q 39.84375 48.1875 33.796875 48.1875 
Q 26.515625 48.1875 22.3125 43.546875 
Q 18.109375 38.921875 18.109375 30.90625 
L 18.109375 0 
L 9.078125 0 
L 9.078125 54.6875 
L 18.109375 54.6875 
L 18.109375 46.1875 
Q 21.34375 51.125 25.703125 53.5625 
Q 30.078125 56 35.796875 56 
Q 45.21875 56 50.046875 50.171875 
Q 54.890625 44.34375 54.890625 33.015625 
z
" id="DejaVuSans-6e"/>
     <path d="M 18.3125 70.21875 
L 18.3125 54.6875 
L 36.8125 54.6875 
L 36.8125 47.703125 
L 18.3125 47.703125 
L 18.3125 18.015625 
Q 18.3125 11.328125 20.140625 9.421875 
Q 21.96875 7.515625 27.59375 7.515625 
L 36.8125 7.515625 
L 36.8125 0 
L 27.59375 0 
Q 17.1875 0 13.234375 3.875 
Q 9.28125 7.765625 9.28125 18.015625 
L 9.28125 47.703125 
L 2.6875 47.703125 
L 2.6875 54.6875 
L 9.28125 54.6875 
L 9.28125 70.21875 
z
" id="DejaVuSans-74"/>
     <path d="M 54.890625 33.015625 
L 54.890625 0 
L 45.90625 0 
L 45.90625 32.71875 
Q 45.90625 40.484375 42.875 44.328125 
Q 39.84375 48.1875 33.796875 48.1875 
Q 26.515625 48.1875 22.3125 43.546875 
Q 18.109375 38.921875 18.109375 30.90625 
L 18.109375 0 
L 9.078125 0 
L 9.078125 75.984375 
L 18.109375 75.984375 
L 18.109375 46.1875 
Q 21.34375 51.125 25.703125 53.5625 
Q 30.078125 56 35.796875 56 
Q 45.21875 56 50.046875 50.171875 
Q 54.890625 44.34375 54.890625 33.015625 
z
" id="DejaVuSans-68"/>
     <path d="M 9.421875 75.984375 
L 18.40625 75.984375 
L 18.40625 0 
L 9.421875 0 
z
" id="DejaVuSans-6c"/>
     <path d="M 32.171875 -5.078125 
Q 28.375 -14.84375 24.75 -17.8125 
Q 21.140625 -20.796875 15.09375 -20.796875 
L 7.90625 -20.796875 
L 7.90625 -13.28125 
L 13.1875 -13.28125 
Q 16.890625 -13.28125 18.9375 -11.515625 
Q 21 -9.765625 23.484375 -3.21875 
L 25.09375 0.875 
L 2.984375 54.6875 
L 12.5 54.6875 
L 29.59375 11.921875 
L 46.6875 54.6875 
L 56.203125 54.6875 
z
" id="DejaVuSans-79"/>
     <path d="M 9.421875 54.6875 
L 18.40625 54.6875 
L 18.40625 0 
L 9.421875 0 
z
M 9.421875 75.984375 
L 18.40625 75.984375 
L 18.40625 64.59375 
L 9.421875 64.59375 
z
" id="DejaVuSans-69"/>
     <path d="M 44.28125 53.078125 
L 44.28125 44.578125 
Q 40.484375 46.53125 36.375 47.5 
Q 32.28125 48.484375 27.875 48.484375 
Q 21.1875 48.484375 17.84375 46.4375 
Q 14.5 44.390625 14.5 40.28125 
Q 14.5 37.15625 16.890625 35.375 
Q 19.28125 33.59375 26.515625 31.984375 
L 29.59375 31.296875 
Q 39.15625 29.25 43.1875 25.515625 
Q 47.21875 21.78125 47.21875 15.09375 
Q 47.21875 7.46875 41.1875 3.015625 
Q 35.15625 -1.421875 24.609375 -1.421875 
Q 20.21875 -1.421875 15.453125 -0.5625 
Q 10.6875 0.296875 5.421875 2 
L 5.421875 11.28125 
Q 10.40625 8.6875 15.234375 7.390625 
Q 20.0625 6.109375 24.8125 6.109375 
Q 31.15625 6.109375 34.5625 8.28125 
Q 37.984375 10.453125 37.984375 14.40625 
Q 37.984375 18.0625 35.515625 20.015625 
Q 33.0625 21.96875 24.703125 23.78125 
L 21.578125 24.515625 
Q 13.234375 26.265625 9.515625 29.90625 
Q 5.8125 33.546875 5.8125 39.890625 
Q 5.8125 47.609375 11.28125 51.796875 
Q 16.75 56 26.8125 56 
Q 31.78125 56 36.171875 55.265625 
Q 40.578125 54.546875 44.28125 53.078125 
z
" id="DejaVuSans-73"/>
    </defs>
    <g transform="translate(156.299 17.36505)scale(0.12 -0.12)">
     <use xlink:href="#DejaVuSans-41"/>
     <use x="68.330078" xlink:href="#DejaVuSans-76"/>
     <use x="127.509766" xlink:href="#DejaVuSans-65"/>
     <use x="189.033203" xlink:href="#DejaVuSans-72"/>
     <use x="230.146484" xlink:href="#DejaVuSans-61"/>
     <use x="291.425781" xlink:href="#DejaVuSans-67"/>
     <use x="354.902344" xlink:href="#DejaVuSans-65"/>
     <use x="416.425781" xlink:href="#DejaVuSans-20"/>
     <use x="448.212891" xlink:href="#DejaVuSans-6d"/>
     <use x="545.625" xlink:href="#DejaVuSans-6f"/>
     <use x="606.806641" xlink:href="#DejaVuSans-6e"/>
     <use x="670.185547" xlink:href="#DejaVuSans-74"/>
     <use x="709.394531" xlink:href="#DejaVuSans-68"/>
     <use x="772.773438" xlink:href="#DejaVuSans-6c"/>
     <use x="800.556641" xlink:href="#DejaVuSans-79"/>
     <use x="859.736328" xlink:href="#DejaVuSans-20"/>
     <use x="891.523438" xlink:href="#DejaVuSans-65"/>
     <use x="953.046875" xlink:href="#DejaVuSans-6d"/>
     <use x="1050.458984" xlink:href="#DejaVuSans-69"/>
     <use x="1078.242188" xlink:href="#DejaVuSans-73"/>
     <use x="1130.341797" xlink:href="#DejaVuSans-73"/>
     <use x="1182.441406" xlink:href="#DejaVuSans-69"/>
     <use x="1210.224609" xlink:href="#DejaVuSans-6f"/>
     <use x="1271.40625" xlink:href="#DejaVuSans-6e"/>
     <use x="1334.785156" xlink:href="#DejaVuSans-73"/>
    </g>
   </g>
   <g id="legend_1">
    <g id="patch_7">
     <path d="M 362.58 74.673854 
L 440.48 74.673854 
Q 442.48 74.673854 442.48 72.673854 
L 442.48 58.995729 
Q 442.48 56.995729 440.48 56.995729 
L 362.58 56.995729 
Q 360.58 56.995729 360.58 58.995729 
L 360.58 72.673854 
Q 360.58 74.673854 362.58 74.673854 
z
" style="fill:#ffffff;opacity:0.8;stroke:#cccccc;stroke-linejoin:miter;"/>
    </g>
    <g id="line2d_22">
     <path d="M 364.58 65.094167 
L 384.58 65.094167 
" style="fill:none;stroke:#008000;stroke-linecap:square;stroke-width:1.5;"/>
    </g>
    <g id="line2d_23"/>
    <g id="text_5">
     <!-- SO2 (lbs) -->
     <defs>
      <path d="M 53.515625 70.515625 
L 53.515625 60.890625 
Q 47.90625 63.578125 42.921875 64.890625 
Q 37.9375 66.21875 33.296875 66.21875 
Q 25.25 66.21875 20.875 63.09375 
Q 16.5 59.96875 16.5 54.203125 
Q 16.5 49.359375 19.40625 46.890625 
Q 22.3125 44.4375 30.421875 42.921875 
L 36.375 41.703125 
Q 47.40625 39.59375 52.65625 34.296875 
Q 57.90625 29 57.90625 20.125 
Q 57.90625 9.515625 50.796875 4.046875 
Q 43.703125 -1.421875 29.984375 -1.421875 
Q 24.8125 -1.421875 18.96875 -0.25 
Q 13.140625 0.921875 6.890625 3.21875 
L 6.890625 13.375 
Q 12.890625 10.015625 18.65625 8.296875 
Q 24.421875 6.59375 29.984375 6.59375 
Q 38.421875 6.59375 43.015625 9.90625 
Q 47.609375 13.234375 47.609375 19.390625 
Q 47.609375 24.75 44.3125 27.78125 
Q 41.015625 30.8125 33.5 32.328125 
L 27.484375 33.5 
Q 16.453125 35.6875 11.515625 40.375 
Q 6.59375 45.0625 6.59375 53.421875 
Q 6.59375 63.09375 13.40625 68.65625 
Q 20.21875 74.21875 32.171875 74.21875 
Q 37.3125 74.21875 42.625 73.28125 
Q 47.953125 72.359375 53.515625 70.515625 
z
" id="DejaVuSans-53"/>
      <path d="M 39.40625 66.21875 
Q 28.65625 66.21875 22.328125 58.203125 
Q 16.015625 50.203125 16.015625 36.375 
Q 16.015625 22.609375 22.328125 14.59375 
Q 28.65625 6.59375 39.40625 6.59375 
Q 50.140625 6.59375 56.421875 14.59375 
Q 62.703125 22.609375 62.703125 36.375 
Q 62.703125 50.203125 56.421875 58.203125 
Q 50.140625 66.21875 39.40625 66.21875 
z
M 39.40625 74.21875 
Q 54.734375 74.21875 63.90625 63.9375 
Q 73.09375 53.65625 73.09375 36.375 
Q 73.09375 19.140625 63.90625 8.859375 
Q 54.734375 -1.421875 39.40625 -1.421875 
Q 24.03125 -1.421875 14.8125 8.828125 
Q 5.609375 19.09375 5.609375 36.375 
Q 5.609375 53.65625 14.8125 63.9375 
Q 24.03125 74.21875 39.40625 74.21875 
z
" id="DejaVuSans-4f"/>
      <path d="M 19.1875 8.296875 
L 53.609375 8.296875 
L 53.609375 0 
L 7.328125 0 
L 7.328125 8.296875 
Q 12.9375 14.109375 22.625 23.890625 
Q 32.328125 33.6875 34.8125 36.53125 
Q 39.546875 41.84375 41.421875 45.53125 
Q 43.3125 49.21875 43.3125 52.78125 
Q 43.3125 58.59375 39.234375 62.25 
Q 35.15625 65.921875 28.609375 65.921875 
Q 23.96875 65.921875 18.8125 64.3125 
Q 13.671875 62.703125 7.8125 59.421875 
L 7.8125 69.390625 
Q 13.765625 71.78125 18.9375 73 
Q 24.125 74.21875 28.421875 74.21875 
Q 39.75 74.21875 46.484375 68.546875 
Q 53.21875 62.890625 53.21875 53.421875 
Q 53.21875 48.921875 51.53125 44.890625 
Q 49.859375 40.875 45.40625 35.40625 
Q 44.1875 33.984375 37.640625 27.21875 
Q 31.109375 20.453125 19.1875 8.296875 
z
" id="DejaVuSans-32"/>
      <path d="M 31 75.875 
Q 24.46875 64.65625 21.28125 53.65625 
Q 18.109375 42.671875 18.109375 31.390625 
Q 18.109375 20.125 21.3125 9.0625 
Q 24.515625 -2 31 -13.1875 
L 23.1875 -13.1875 
Q 15.875 -1.703125 12.234375 9.375 
Q 8.59375 20.453125 8.59375 31.390625 
Q 8.59375 42.28125 12.203125 53.3125 
Q 15.828125 64.359375 23.1875 75.875 
z
" id="DejaVuSans-28"/>
      <path d="M 48.6875 27.296875 
Q 48.6875 37.203125 44.609375 42.84375 
Q 40.53125 48.484375 33.40625 48.484375 
Q 26.265625 48.484375 22.1875 42.84375 
Q 18.109375 37.203125 18.109375 27.296875 
Q 18.109375 17.390625 22.1875 11.75 
Q 26.265625 6.109375 33.40625 6.109375 
Q 40.53125 6.109375 44.609375 11.75 
Q 48.6875 17.390625 48.6875 27.296875 
z
M 18.109375 46.390625 
Q 20.953125 51.265625 25.265625 53.625 
Q 29.59375 56 35.59375 56 
Q 45.5625 56 51.78125 48.09375 
Q 58.015625 40.1875 58.015625 27.296875 
Q 58.015625 14.40625 51.78125 6.484375 
Q 45.5625 -1.421875 35.59375 -1.421875 
Q 29.59375 -1.421875 25.265625 0.953125 
Q 20.953125 3.328125 18.109375 8.203125 
L 18.109375 0 
L 9.078125 0 
L 9.078125 75.984375 
L 18.109375 75.984375 
z
" id="DejaVuSans-62"/>
      <path d="M 8.015625 75.875 
L 15.828125 75.875 
Q 23.140625 64.359375 26.78125 53.3125 
Q 30.421875 42.28125 30.421875 31.390625 
Q 30.421875 20.453125 26.78125 9.375 
Q 23.140625 -1.703125 15.828125 -13.1875 
L 8.015625 -13.1875 
Q 14.5 -2 17.703125 9.0625 
Q 20.90625 20.125 20.90625 31.390625 
Q 20.90625 42.671875 17.703125 53.65625 
Q 14.5 64.65625 8.015625 75.875 
z
" id="DejaVuSans-29"/>
     </defs>
     <g transform="translate(392.58 68.594167)scale(0.1 -0.1)">
      <use xlink:href="#DejaVuSans-53"/>
      <use x="63.476562" xlink:href="#DejaVuSans-4f"/>
      <use x="142.1875" xlink:href="#DejaVuSans-32"/>
      <use x="205.810547" xlink:href="#DejaVuSans-20"/>
      <use x="237.597656" xlink:href="#DejaVuSans-28"/>
      <use x="276.611328" xlink:href="#DejaVuSans-6c"/>
      <use x="304.394531" xlink:href="#DejaVuSans-62"/>
      <use x="367.871094" xlink:href="#DejaVuSans-73"/>
      <use x="419.970703" xlink:href="#DejaVuSans-29"/>
     </g>
    </g>
   </g>
  </g>
  <g id="axes_2">
   <g id="patch_8">
    <path d="M 31.543 209.084017 
L 447.48 209.084017 
L 447.48 124.144533 
L 31.543 124.144533 
z
" style="fill:none;"/>
   </g>
   <g id="matplotlib.axis_3">
    <g id="xtick_8">
     <g id="line2d_24">
      <path clip-path="url(#p5fcc5e07ea)" d="M 74.795114 209.084017 
L 74.795114 124.144533 
" style="fill:none;stroke:#b0b0b0;stroke-linecap:square;stroke-width:0.8;"/>
     </g>
     <g id="line2d_25">
      <g>
       <use style="stroke:#000000;stroke-width:0.8;" x="74.795114" xlink:href="#m1c403ccec9" y="209.084017"/>
      </g>
     </g>
    </g>
    <g id="xtick_9">
     <g id="line2d_26">
      <path clip-path="url(#p5fcc5e07ea)" d="M 135.631422 209.084017 
L 135.631422 124.144533 
" style="fill:none;stroke:#b0b0b0;stroke-linecap:square;stroke-width:0.8;"/>
     </g>
     <g id="line2d_27">
      <g>
       <use style="stroke:#000000;stroke-width:0.8;" x="135.631422" xlink:href="#m1c403ccec9" y="209.084017"/>
      </g>
     </g>
    </g>
    <g id="xtick_10">
     <g id="line2d_28">
      <path clip-path="url(#p5fcc5e07ea)" d="M 196.551067 209.084017 
L 196.551067 124.144533 
" style="fill:none;stroke:#b0b0b0;stroke-linecap:square;stroke-width:0.8;"/>
     </g>
     <g id="line2d_29">
      <g>
       <use style="stroke:#000000;stroke-width:0.8;" x="196.551067" xlink:href="#m1c403ccec9" y="209.084017"/>
      </g>
     </g>
    </g>
    <g id="xtick_11">
     <g id="line2d_30">
      <path clip-path="url(#p5fcc5e07ea)" d="M 257.387374 209.084017 
L 257.387374 124.144533 
" style="fill:none;stroke:#b0b0b0;stroke-linecap:square;stroke-width:0.8;"/>
     </g>
     <g id="line2d_31">
      <g>
       <use style="stroke:#000000;stroke-width:0.8;" x="257.387374" xlink:href="#m1c403ccec9" y="209.084017"/>
      </g>
     </g>
    </g>
    <g id="xtick_12">
     <g id="line2d_32">
      <path clip-path="url(#p5fcc5e07ea)" d="M 318.307019 209.084017 
L 318.307019 124.144533 
" style="fill:none;stroke:#b0b0b0;stroke-linecap:square;stroke-width:0.8;"/>
     </g>
     <g id="line2d_33">
      <g>
       <use style="stroke:#000000;stroke-width:0.8;" x="318.307019" xlink:href="#m1c403ccec9" y="209.084017"/>
      </g>
     </g>
    </g>
    <g id="xtick_13">
     <g id="line2d_34">
      <path clip-path="url(#p5fcc5e07ea)" d="M 379.143326 209.084017 
L 379.143326 124.144533 
" style="fill:none;stroke:#b0b0b0;stroke-linecap:square;stroke-width:0.8;"/>
     </g>
     <g id="line2d_35">
      <g>
       <use style="stroke:#000000;stroke-width:0.8;" x="379.143326" xlink:href="#m1c403ccec9" y="209.084017"/>
      </g>
     </g>
    </g>
    <g id="xtick_14">
     <g id="line2d_36">
      <path clip-path="url(#p5fcc5e07ea)" d="M 440.062971 209.084017 
L 440.062971 124.144533 
" style="fill:none;stroke:#b0b0b0;stroke-linecap:square;stroke-width:0.8;"/>
     </g>
     <g id="line2d_37">
      <g>
       <use style="stroke:#000000;stroke-width:0.8;" x="440.062971" xlink:href="#m1c403ccec9" y="209.084017"/>
      </g>
     </g>
    </g>
   </g>
   <g id="matplotlib.axis_4">
    <g id="ytick_4">
     <g id="line2d_38">
      <path clip-path="url(#p5fcc5e07ea)" d="M 31.543 205.223131 
L 447.48 205.223131 
" style="fill:none;stroke:#b0b0b0;stroke-linecap:square;stroke-width:0.8;"/>
     </g>
     <g id="line2d_39">
      <g>
       <use style="stroke:#000000;stroke-width:0.8;" x="31.543" xlink:href="#maf88d36e1d" y="205.223131"/>
      </g>
     </g>
     <g id="text_6">
      <!-- 0 -->
      <g transform="translate(18.1805 209.02235)scale(0.1 -0.1)">
       <use xlink:href="#DejaVuSans-30"/>
      </g>
     </g>
    </g>
    <g id="ytick_5">
     <g id="line2d_40">
      <path clip-path="url(#p5fcc5e07ea)" d="M 31.543 164.28259 
L 447.48 164.28259 
" style="fill:none;stroke:#b0b0b0;stroke-linecap:square;stroke-width:0.8;"/>
     </g>
     <g id="line2d_41">
      <g>
       <use style="stroke:#000000;stroke-width:0.8;" x="31.543" xlink:href="#maf88d36e1d" y="164.28259"/>
      </g>
     </g>
     <g id="text_7">
      <!-- 10 -->
      <g transform="translate(11.818 168.081809)scale(0.1 -0.1)">
       <use xlink:href="#DejaVuSans-31"/>
       <use x="63.623047" xlink:href="#DejaVuSans-30"/>
      </g>
     </g>
    </g>
   </g>
   <g id="line2d_42">
    <path clip-path="url(#p5fcc5e07ea)" d="M 31.543 205.223131 
L 34.12646 205.223131 
L 36.626582 200.047968 
L 39.210041 166.178077 
L 41.710164 185.671572 
L 44.293623 182.136446 
L 46.877083 176.306904 
L 49.21053 170.259665 
L 51.79399 160.56208 
L 54.294112 157.111007 
L 56.877572 205.223131 
L 59.377694 194.593193 
L 61.961154 169.435805 
L 64.544613 159.017857 
L 67.044736 159.734244 
L 69.628195 180.284057 
L 72.128317 157.165964 
L 74.711777 164.10708 
L 77.295237 188.440151 
L 79.628684 179.279768 
L 82.212144 189.017313 
L 84.712266 205.223131 
L 87.295726 205.223131 
L 89.795848 186.438906 
L 92.379307 161.774311 
L 94.962767 163.110084 
L 97.462889 165.314804 
L 100.046349 164.392904 
L 102.546471 169.931566 
L 105.129931 162.511609 
L 107.71339 162.233345 
L 110.046838 172.405126 
L 112.630297 199.626003 
L 115.13042 188.555822 
L 117.713879 177.941824 
L 120.214001 177.684533 
L 122.797461 168.819908 
L 125.380921 205.223131 
L 127.881043 205.223131 
L 130.464503 167.034625 
L 132.964625 163.15258 
L 135.548084 166.877934 
L 138.131544 174.143301 
L 140.548329 167.599574 
L 143.131788 174.898296 
L 145.631911 160.519643 
L 148.21537 192.146964 
L 150.715492 205.223131 
L 153.298952 178.929014 
L 155.882412 161.040132 
L 158.382534 160.756342 
L 160.965994 160.063172 
L 163.466116 163.13244 
L 166.049575 159.950888 
L 168.633035 190.280885 
L 170.966482 159.498438 
L 173.549942 170.579961 
L 176.050064 188.151341 
L 178.633524 193.105876 
L 181.133646 188.900433 
L 183.717106 160.49619 
L 186.300565 157.120197 
L 188.800688 156.497689 
L 191.384147 164.662561 
L 193.884269 153.234944 
L 196.467729 158.087114 
L 199.051189 166.885968 
L 201.384636 157.497695 
L 203.968096 157.751028 
L 206.468218 161.397351 
L 209.051678 200.771579 
L 211.5518 205.223131 
L 214.135259 167.276197 
L 216.718719 159.792057 
L 219.218841 159.484615 
L 221.802301 157.647168 
L 224.302423 162.706277 
L 226.885883 162.823429 
L 229.469342 186.78787 
L 231.80279 185.044233 
L 234.386249 200.995052 
L 236.886372 188.465792 
L 239.469831 200.539407 
L 241.969954 194.062541 
L 244.553413 204.809621 
L 247.136873 180.419112 
L 249.636995 160.508577 
L 252.220455 187.355485 
L 254.720577 171.27217 
L 257.304036 159.763459 
L 259.887496 159.214784 
L 262.304281 161.388159 
L 264.887741 177.157978 
L 267.387863 179.978449 
L 269.971322 201.02628 
L 272.471445 196.117921 
L 275.054904 171.439167 
L 277.638364 178.399554 
L 280.138486 165.742439 
L 282.721946 166.85036 
L 285.222068 192.218027 
L 287.805528 198.255326 
L 290.388987 174.030951 
L 292.722435 161.518921 
L 295.305894 136.243013 
L 297.806016 172.69669 
L 300.389476 179.949495 
L 302.889598 175.774782 
L 305.473058 163.916871 
L 308.056518 160.510244 
L 310.55664 161.374333 
L 313.140099 164.231354 
L 315.640222 150.441446 
L 318.223681 157.342354 
L 320.807141 150.363301 
L 323.140588 155.566538 
L 325.724048 191.586112 
L 328.22417 200.972843 
L 330.80763 205.223131 
L 333.307752 185.468092 
L 335.891212 159.546771 
L 338.474671 154.176297 
L 340.974793 153.482629 
L 343.558253 166.428716 
L 346.058375 175.181019 
L 348.641835 183.385188 
L 351.225295 166.823947 
L 353.558742 181.970244 
L 356.142202 173.338544 
L 358.642324 164.20117 
L 361.225783 184.069874 
L 363.725906 163.336727 
L 366.309365 168.086962 
L 368.892825 165.220679 
L 371.392947 162.862249 
L 373.976407 167.188163 
L 376.476529 160.381394 
L 379.059989 163.243839 
L 381.643448 162.684946 
L 384.060233 168.284552 
L 386.643693 174.924886 
L 389.143815 193.254886 
L 391.727274 198.080619 
L 394.227397 202.054464 
L 396.810856 162.500422 
L 399.394316 156.844844 
L 401.894438 167.707801 
L 404.477898 164.357818 
L 406.97802 196.590352 
L 409.56148 172.400621 
L 412.144939 154.320628 
L 414.478387 172.795524 
L 417.061846 199.387288 
L 419.561969 194.161804 
L 422.145428 181.008248 
L 424.64555 175.907242 
L 427.22901 155.883792 
L 429.81247 128.005419 
L 432.312592 157.992565 
L 434.896051 166.112027 
L 437.396174 178.79732 
L 439.979633 162.321307 
L 442.563093 193.754046 
L 444.89654 148.950674 
L 447.48 173.352736 
L 447.48 173.352736 
" style="fill:none;stroke:#f97306;stroke-linecap:square;stroke-width:1.5;"/>
   </g>
   <g id="patch_9">
    <path d="M 31.543 209.084017 
L 31.543 124.144533 
" style="fill:none;stroke:#000000;stroke-linecap:square;stroke-linejoin:miter;stroke-width:0.8;"/>
   </g>
   <g id="patch_10">
    <path d="M 447.48 209.084017 
L 447.48 124.144533 
" style="fill:none;stroke:#000000;stroke-linecap:square;stroke-linejoin:miter;stroke-width:0.8;"/>
   </g>
   <g id="patch_11">
    <path d="M 31.543 209.084017 
L 447.48 209.084017 
" style="fill:none;stroke:#000000;stroke-linecap:square;stroke-linejoin:miter;stroke-width:0.8;"/>
   </g>
   <g id="patch_12">
    <path d="M 31.543 124.144533 
L 447.48 124.144533 
" style="fill:none;stroke:#000000;stroke-linecap:square;stroke-linejoin:miter;stroke-width:0.8;"/>
   </g>
   <g id="legend_2">
    <g id="patch_13">
     <path d="M 38.543 146.822658 
L 117.132063 146.822658 
Q 119.132063 146.822658 119.132063 144.822658 
L 119.132063 131.144533 
Q 119.132063 129.144533 117.132063 129.144533 
L 38.543 129.144533 
Q 36.543 129.144533 36.543 131.144533 
L 36.543 144.822658 
Q 36.543 146.822658 38.543 146.822658 
z
" style="fill:#ffffff;opacity:0.8;stroke:#cccccc;stroke-linejoin:miter;"/>
    </g>
    <g id="line2d_43">
     <path d="M 40.543 137.242971 
L 60.543 137.242971 
" style="fill:none;stroke:#f97306;stroke-linecap:square;stroke-width:1.5;"/>
    </g>
    <g id="line2d_44"/>
    <g id="text_8">
     <!-- NOx (lbs) -->
     <defs>
      <path d="M 9.8125 72.90625 
L 23.09375 72.90625 
L 55.421875 11.921875 
L 55.421875 72.90625 
L 64.984375 72.90625 
L 64.984375 0 
L 51.703125 0 
L 19.390625 60.984375 
L 19.390625 0 
L 9.8125 0 
z
" id="DejaVuSans-4e"/>
      <path d="M 54.890625 54.6875 
L 35.109375 28.078125 
L 55.90625 0 
L 45.3125 0 
L 29.390625 21.484375 
L 13.484375 0 
L 2.875 0 
L 24.125 28.609375 
L 4.6875 54.6875 
L 15.28125 54.6875 
L 29.78125 35.203125 
L 44.28125 54.6875 
z
" id="DejaVuSans-78"/>
     </defs>
     <g transform="translate(68.543 140.742971)scale(0.1 -0.1)">
      <use xlink:href="#DejaVuSans-4e"/>
      <use x="74.804688" xlink:href="#DejaVuSans-4f"/>
      <use x="153.515625" xlink:href="#DejaVuSans-78"/>
      <use x="212.695312" xlink:href="#DejaVuSans-20"/>
      <use x="244.482422" xlink:href="#DejaVuSans-28"/>
      <use x="283.496094" xlink:href="#DejaVuSans-6c"/>
      <use x="311.279297" xlink:href="#DejaVuSans-62"/>
      <use x="374.755859" xlink:href="#DejaVuSans-73"/>
      <use x="426.855469" xlink:href="#DejaVuSans-29"/>
     </g>
    </g>
   </g>
  </g>
  <g id="axes_3">
   <g id="patch_14">
    <path d="M 31.543 309.8635 
L 447.48 309.8635 
L 447.48 224.924017 
L 31.543 224.924017 
z
" style="fill:none;"/>
   </g>
   <g id="matplotlib.axis_5">
    <g id="xtick_15">
     <g id="line2d_45">
      <path clip-path="url(#pd66eb44823)" d="M 74.795114 309.8635 
L 74.795114 224.924017 
" style="fill:none;stroke:#b0b0b0;stroke-linecap:square;stroke-width:0.8;"/>
     </g>
     <g id="line2d_46">
      <g>
       <use style="stroke:#000000;stroke-width:0.8;" x="74.795114" xlink:href="#m1c403ccec9" y="309.8635"/>
      </g>
     </g>
     <g id="text_9">
      <!-- 2006 -->
      <defs>
       <path d="M 33.015625 40.375 
Q 26.375 40.375 22.484375 35.828125 
Q 18.609375 31.296875 18.609375 23.390625 
Q 18.609375 15.53125 22.484375 10.953125 
Q 26.375 6.390625 33.015625 6.390625 
Q 39.65625 6.390625 43.53125 10.953125 
Q 47.40625 15.53125 47.40625 23.390625 
Q 47.40625 31.296875 43.53125 35.828125 
Q 39.65625 40.375 33.015625 40.375 
z
M 52.59375 71.296875 
L 52.59375 62.3125 
Q 48.875 64.0625 45.09375 64.984375 
Q 41.3125 65.921875 37.59375 65.921875 
Q 27.828125 65.921875 22.671875 59.328125 
Q 17.53125 52.734375 16.796875 39.40625 
Q 19.671875 43.65625 24.015625 45.921875 
Q 28.375 48.1875 33.59375 48.1875 
Q 44.578125 48.1875 50.953125 41.515625 
Q 57.328125 34.859375 57.328125 23.390625 
Q 57.328125 12.15625 50.6875 5.359375 
Q 44.046875 -1.421875 33.015625 -1.421875 
Q 20.359375 -1.421875 13.671875 8.265625 
Q 6.984375 17.96875 6.984375 36.375 
Q 6.984375 53.65625 15.1875 63.9375 
Q 23.390625 74.21875 37.203125 74.21875 
Q 40.921875 74.21875 44.703125 73.484375 
Q 48.484375 72.75 52.59375 71.296875 
z
" id="DejaVuSans-36"/>
      </defs>
      <g transform="translate(62.070114 324.461937)scale(0.1 -0.1)">
       <use xlink:href="#DejaVuSans-32"/>
       <use x="63.623047" xlink:href="#DejaVuSans-30"/>
       <use x="127.246094" xlink:href="#DejaVuSans-30"/>
       <use x="190.869141" xlink:href="#DejaVuSans-36"/>
      </g>
     </g>
    </g>
    <g id="xtick_16">
     <g id="line2d_47">
      <path clip-path="url(#pd66eb44823)" d="M 135.631422 309.8635 
L 135.631422 224.924017 
" style="fill:none;stroke:#b0b0b0;stroke-linecap:square;stroke-width:0.8;"/>
     </g>
     <g id="line2d_48">
      <g>
       <use style="stroke:#000000;stroke-width:0.8;" x="135.631422" xlink:href="#m1c403ccec9" y="309.8635"/>
      </g>
     </g>
     <g id="text_10">
      <!-- 2008 -->
      <defs>
       <path d="M 31.78125 34.625 
Q 24.75 34.625 20.71875 30.859375 
Q 16.703125 27.09375 16.703125 20.515625 
Q 16.703125 13.921875 20.71875 10.15625 
Q 24.75 6.390625 31.78125 6.390625 
Q 38.8125 6.390625 42.859375 10.171875 
Q 46.921875 13.96875 46.921875 20.515625 
Q 46.921875 27.09375 42.890625 30.859375 
Q 38.875 34.625 31.78125 34.625 
z
M 21.921875 38.8125 
Q 15.578125 40.375 12.03125 44.71875 
Q 8.5 49.078125 8.5 55.328125 
Q 8.5 64.0625 14.71875 69.140625 
Q 20.953125 74.21875 31.78125 74.21875 
Q 42.671875 74.21875 48.875 69.140625 
Q 55.078125 64.0625 55.078125 55.328125 
Q 55.078125 49.078125 51.53125 44.71875 
Q 48 40.375 41.703125 38.8125 
Q 48.828125 37.15625 52.796875 32.3125 
Q 56.78125 27.484375 56.78125 20.515625 
Q 56.78125 9.90625 50.3125 4.234375 
Q 43.84375 -1.421875 31.78125 -1.421875 
Q 19.734375 -1.421875 13.25 4.234375 
Q 6.78125 9.90625 6.78125 20.515625 
Q 6.78125 27.484375 10.78125 32.3125 
Q 14.796875 37.15625 21.921875 38.8125 
z
M 18.3125 54.390625 
Q 18.3125 48.734375 21.84375 45.5625 
Q 25.390625 42.390625 31.78125 42.390625 
Q 38.140625 42.390625 41.71875 45.5625 
Q 45.3125 48.734375 45.3125 54.390625 
Q 45.3125 60.0625 41.71875 63.234375 
Q 38.140625 66.40625 31.78125 66.40625 
Q 25.390625 66.40625 21.84375 63.234375 
Q 18.3125 60.0625 18.3125 54.390625 
z
" id="DejaVuSans-38"/>
      </defs>
      <g transform="translate(122.906422 324.461937)scale(0.1 -0.1)">
       <use xlink:href="#DejaVuSans-32"/>
       <use x="63.623047" xlink:href="#DejaVuSans-30"/>
       <use x="127.246094" xlink:href="#DejaVuSans-30"/>
       <use x="190.869141" xlink:href="#DejaVuSans-38"/>
      </g>
     </g>
    </g>
    <g id="xtick_17">
     <g id="line2d_49">
      <path clip-path="url(#pd66eb44823)" d="M 196.551067 309.8635 
L 196.551067 224.924017 
" style="fill:none;stroke:#b0b0b0;stroke-linecap:square;stroke-width:0.8;"/>
     </g>
     <g id="line2d_50">
      <g>
       <use style="stroke:#000000;stroke-width:0.8;" x="196.551067" xlink:href="#m1c403ccec9" y="309.8635"/>
      </g>
     </g>
     <g id="text_11">
      <!-- 2010 -->
      <g transform="translate(183.826067 324.461937)scale(0.1 -0.1)">
       <use xlink:href="#DejaVuSans-32"/>
       <use x="63.623047" xlink:href="#DejaVuSans-30"/>
       <use x="127.246094" xlink:href="#DejaVuSans-31"/>
       <use x="190.869141" xlink:href="#DejaVuSans-30"/>
      </g>
     </g>
    </g>
    <g id="xtick_18">
     <g id="line2d_51">
      <path clip-path="url(#pd66eb44823)" d="M 257.387374 309.8635 
L 257.387374 224.924017 
" style="fill:none;stroke:#b0b0b0;stroke-linecap:square;stroke-width:0.8;"/>
     </g>
     <g id="line2d_52">
      <g>
       <use style="stroke:#000000;stroke-width:0.8;" x="257.387374" xlink:href="#m1c403ccec9" y="309.8635"/>
      </g>
     </g>
     <g id="text_12">
      <!-- 2012 -->
      <g transform="translate(244.662374 324.461937)scale(0.1 -0.1)">
       <use xlink:href="#DejaVuSans-32"/>
       <use x="63.623047" xlink:href="#DejaVuSans-30"/>
       <use x="127.246094" xlink:href="#DejaVuSans-31"/>
       <use x="190.869141" xlink:href="#DejaVuSans-32"/>
      </g>
     </g>
    </g>
    <g id="xtick_19">
     <g id="line2d_53">
      <path clip-path="url(#pd66eb44823)" d="M 318.307019 309.8635 
L 318.307019 224.924017 
" style="fill:none;stroke:#b0b0b0;stroke-linecap:square;stroke-width:0.8;"/>
     </g>
     <g id="line2d_54">
      <g>
       <use style="stroke:#000000;stroke-width:0.8;" x="318.307019" xlink:href="#m1c403ccec9" y="309.8635"/>
      </g>
     </g>
     <g id="text_13">
      <!-- 2014 -->
      <defs>
       <path d="M 37.796875 64.3125 
L 12.890625 25.390625 
L 37.796875 25.390625 
z
M 35.203125 72.90625 
L 47.609375 72.90625 
L 47.609375 25.390625 
L 58.015625 25.390625 
L 58.015625 17.1875 
L 47.609375 17.1875 
L 47.609375 0 
L 37.796875 0 
L 37.796875 17.1875 
L 4.890625 17.1875 
L 4.890625 26.703125 
z
" id="DejaVuSans-34"/>
      </defs>
      <g transform="translate(305.582019 324.461937)scale(0.1 -0.1)">
       <use xlink:href="#DejaVuSans-32"/>
       <use x="63.623047" xlink:href="#DejaVuSans-30"/>
       <use x="127.246094" xlink:href="#DejaVuSans-31"/>
       <use x="190.869141" xlink:href="#DejaVuSans-34"/>
      </g>
     </g>
    </g>
    <g id="xtick_20">
     <g id="line2d_55">
      <path clip-path="url(#pd66eb44823)" d="M 379.143326 309.8635 
L 379.143326 224.924017 
" style="fill:none;stroke:#b0b0b0;stroke-linecap:square;stroke-width:0.8;"/>
     </g>
     <g id="line2d_56">
      <g>
       <use style="stroke:#000000;stroke-width:0.8;" x="379.143326" xlink:href="#m1c403ccec9" y="309.8635"/>
      </g>
     </g>
     <g id="text_14">
      <!-- 2016 -->
      <g transform="translate(366.418326 324.461937)scale(0.1 -0.1)">
       <use xlink:href="#DejaVuSans-32"/>
       <use x="63.623047" xlink:href="#DejaVuSans-30"/>
       <use x="127.246094" xlink:href="#DejaVuSans-31"/>
       <use x="190.869141" xlink:href="#DejaVuSans-36"/>
      </g>
     </g>
    </g>
    <g id="xtick_21">
     <g id="line2d_57">
      <path clip-path="url(#pd66eb44823)" d="M 440.062971 309.8635 
L 440.062971 224.924017 
" style="fill:none;stroke:#b0b0b0;stroke-linecap:square;stroke-width:0.8;"/>
     </g>
     <g id="line2d_58">
      <g>
       <use style="stroke:#000000;stroke-width:0.8;" x="440.062971" xlink:href="#m1c403ccec9" y="309.8635"/>
      </g>
     </g>
     <g id="text_15">
      <!-- 2018 -->
      <g transform="translate(427.337971 324.461937)scale(0.1 -0.1)">
       <use xlink:href="#DejaVuSans-32"/>
       <use x="63.623047" xlink:href="#DejaVuSans-30"/>
       <use x="127.246094" xlink:href="#DejaVuSans-31"/>
       <use x="190.869141" xlink:href="#DejaVuSans-38"/>
      </g>
     </g>
    </g>
    <g id="text_16">
     <!-- Date -->
     <defs>
      <path d="M 19.671875 64.796875 
L 19.671875 8.109375 
L 31.59375 8.109375 
Q 46.6875 8.109375 53.6875 14.9375 
Q 60.6875 21.78125 60.6875 36.53125 
Q 60.6875 51.171875 53.6875 57.984375 
Q 46.6875 64.796875 31.59375 64.796875 
z
M 9.8125 72.90625 
L 30.078125 72.90625 
Q 51.265625 72.90625 61.171875 64.09375 
Q 71.09375 55.28125 71.09375 36.53125 
Q 71.09375 17.671875 61.125 8.828125 
Q 51.171875 0 30.078125 0 
L 9.8125 0 
z
" id="DejaVuSans-44"/>
     </defs>
     <g transform="translate(227.560719 338.140062)scale(0.1 -0.1)">
      <use xlink:href="#DejaVuSans-44"/>
      <use x="77.001953" xlink:href="#DejaVuSans-61"/>
      <use x="138.28125" xlink:href="#DejaVuSans-74"/>
      <use x="177.490234" xlink:href="#DejaVuSans-65"/>
     </g>
    </g>
   </g>
   <g id="matplotlib.axis_6">
    <g id="ytick_6">
     <g id="line2d_59">
      <path clip-path="url(#pd66eb44823)" d="M 31.543 306.002614 
L 447.48 306.002614 
" style="fill:none;stroke:#b0b0b0;stroke-linecap:square;stroke-width:0.8;"/>
     </g>
     <g id="line2d_60">
      <g>
       <use style="stroke:#000000;stroke-width:0.8;" x="31.543" xlink:href="#maf88d36e1d" y="306.002614"/>
      </g>
     </g>
     <g id="text_17">
      <!-- 0 -->
      <g transform="translate(18.1805 309.801833)scale(0.1 -0.1)">
       <use xlink:href="#DejaVuSans-30"/>
      </g>
     </g>
    </g>
    <g id="ytick_7">
     <g id="line2d_61">
      <path clip-path="url(#pd66eb44823)" d="M 31.543 267.870568 
L 447.48 267.870568 
" style="fill:none;stroke:#b0b0b0;stroke-linecap:square;stroke-width:0.8;"/>
     </g>
     <g id="line2d_62">
      <g>
       <use style="stroke:#000000;stroke-width:0.8;" x="31.543" xlink:href="#maf88d36e1d" y="267.870568"/>
      </g>
     </g>
     <g id="text_18">
      <!-- 50 -->
      <g transform="translate(11.818 271.669787)scale(0.1 -0.1)">
       <use xlink:href="#DejaVuSans-35"/>
       <use x="63.623047" xlink:href="#DejaVuSans-30"/>
      </g>
     </g>
    </g>
    <g id="ytick_8">
     <g id="line2d_63">
      <path clip-path="url(#pd66eb44823)" d="M 31.543 229.738521 
L 447.48 229.738521 
" style="fill:none;stroke:#b0b0b0;stroke-linecap:square;stroke-width:0.8;"/>
     </g>
     <g id="line2d_64">
      <g>
       <use style="stroke:#000000;stroke-width:0.8;" x="31.543" xlink:href="#maf88d36e1d" y="229.738521"/>
      </g>
     </g>
     <g id="text_19">
      <!-- 100 -->
      <g transform="translate(5.4555 233.53774)scale(0.1 -0.1)">
       <use xlink:href="#DejaVuSans-31"/>
       <use x="63.623047" xlink:href="#DejaVuSans-30"/>
       <use x="127.246094" xlink:href="#DejaVuSans-30"/>
      </g>
     </g>
    </g>
   </g>
   <g id="line2d_65">
    <path clip-path="url(#pd66eb44823)" d="M 31.543 306.002614 
L 34.12646 306.002614 
L 36.626582 302.139653 
L 39.210041 270.438279 
L 41.710164 279.922334 
L 44.293623 275.661806 
L 46.877083 272.930367 
L 49.21053 273.330458 
L 51.79399 260.874465 
L 54.294112 258.2668 
L 56.877572 306.002614 
L 59.377694 302.089896 
L 61.961154 275.048259 
L 64.544613 252.406562 
L 67.044736 250.061419 
L 69.628195 287.820317 
L 72.128317 247.695961 
L 74.711777 249.790673 
L 77.295237 299.283123 
L 79.628684 280.449462 
L 82.212144 287.535377 
L 84.712266 306.002614 
L 87.295726 306.002614 
L 89.795848 292.760308 
L 92.379307 245.436239 
L 94.962767 241.676619 
L 97.462889 235.723664 
L 100.046349 232.262207 
L 102.546471 268.774906 
L 105.129931 233.366217 
L 107.71339 260.10634 
L 110.046838 273.010422 
L 112.630297 304.621993 
L 115.13042 294.857147 
L 117.713879 289.117242 
L 120.214001 286.203714 
L 122.797461 268.732742 
L 125.380921 306.002614 
L 127.881043 306.002614 
L 130.464503 247.318625 
L 132.964625 240.418142 
L 135.548084 253.623174 
L 138.131544 267.660406 
L 140.548329 243.075424 
L 143.131788 269.475958 
L 145.631911 238.480408 
L 148.21537 297.428909 
L 150.715492 306.002614 
L 153.298952 272.988828 
L 155.882412 235.329889 
L 158.382534 240.39018 
L 160.965994 233.254357 
L 163.466116 247.990999 
L 166.049575 241.541061 
L 168.633035 294.26327 
L 170.966482 237.507634 
L 173.549942 260.359541 
L 176.050064 287.103099 
L 178.633524 294.911341 
L 181.133646 295.561435 
L 183.717106 237.000027 
L 186.300565 233.944619 
L 188.800688 228.784902 
L 191.384147 245.607227 
L 193.884269 244.032769 
L 196.467729 235.59073 
L 199.051189 257.870543 
L 201.384636 230.527151 
L 203.968096 238.938842 
L 206.468218 236.920976 
L 209.051678 304.786375 
L 211.5518 306.002614 
L 214.135259 258.42746 
L 216.718719 236.818791 
L 219.218841 231.82784 
L 221.802301 230.929374 
L 224.302423 247.959361 
L 226.885883 243.601834 
L 229.469342 277.079769 
L 231.80279 296.505145 
L 234.386249 304.142885 
L 236.886372 302.374637 
L 239.469831 305.376082 
L 241.969954 302.608586 
L 244.553413 305.239909 
L 247.136873 274.224643 
L 249.636995 240.225046 
L 252.220455 296.637721 
L 254.720577 273.96454 
L 257.304036 241.286312 
L 259.887496 233.993519 
L 262.304281 241.616258 
L 267.387863 293.634632 
L 269.971322 303.788742 
L 272.471445 304.219488 
L 275.054904 288.968465 
L 277.638364 274.958865 
L 280.138486 246.765104 
L 282.721946 249.420756 
L 285.222068 289.701503 
L 287.805528 301.848321 
L 290.388987 267.091659 
L 292.722435 253.676201 
L 295.305894 252.671333 
L 297.806016 282.825726 
L 300.389476 284.114608 
L 302.889598 279.88201 
L 305.473058 243.632646 
L 308.056518 235.291142 
L 310.55664 236.625275 
L 313.140099 246.711451 
L 315.640222 232.952647 
L 318.223681 230.27975 
L 320.807141 236.575957 
L 323.140588 241.342454 
L 325.724048 296.47506 
L 328.22417 304.84528 
L 330.80763 306.002614 
L 333.307752 300.12627 
L 335.891212 258.122532 
L 338.474671 240.330373 
L 340.974793 234.394232 
L 343.558253 251.535361 
L 346.058375 269.372873 
L 348.641835 285.746947 
L 351.225295 252.94648 
L 353.558742 286.067093 
L 356.142202 260.669148 
L 358.642324 248.98968 
L 361.225783 283.223774 
L 363.725906 241.452368 
L 366.309365 251.535173 
L 368.892825 245.398071 
L 371.392947 239.009905 
L 373.976407 250.021246 
L 376.476529 238.175079 
L 381.643448 245.168709 
L 384.060233 255.948934 
L 386.643693 270.049593 
L 389.143815 300.248297 
L 391.727274 302.858378 
L 394.227397 303.711817 
L 396.810856 239.319985 
L 399.394316 235.565718 
L 401.894438 249.530451 
L 404.477898 256.404154 
L 406.97802 299.96409 
L 409.56148 272.858735 
L 412.144939 243.613522 
L 414.478387 269.036756 
L 417.061846 304.006963 
L 419.561969 297.397121 
L 422.145428 295.684971 
L 424.64555 292.109221 
L 427.22901 241.385428 
L 429.81247 231.028824 
L 432.312592 241.892645 
L 434.896051 249.404735 
L 437.396174 279.133567 
L 439.979633 251.481135 
L 442.563093 287.423697 
L 444.89654 277.698118 
L 447.48 264.7102 
L 447.48 264.7102 
" style="fill:none;stroke:#4682b4;stroke-linecap:square;stroke-width:1.5;"/>
   </g>
   <g id="patch_15">
    <path d="M 31.543 309.8635 
L 31.543 224.924017 
" style="fill:none;stroke:#000000;stroke-linecap:square;stroke-linejoin:miter;stroke-width:0.8;"/>
   </g>
   <g id="patch_16">
    <path d="M 447.48 309.8635 
L 447.48 224.924017 
" style="fill:none;stroke:#000000;stroke-linecap:square;stroke-linejoin:miter;stroke-width:0.8;"/>
   </g>
   <g id="patch_17">
    <path d="M 31.543 309.8635 
L 447.48 309.8635 
" style="fill:none;stroke:#000000;stroke-linecap:square;stroke-linejoin:miter;stroke-width:0.8;"/>
   </g>
   <g id="patch_18">
    <path d="M 31.543 224.924017 
L 447.48 224.924017 
" style="fill:none;stroke:#000000;stroke-linecap:square;stroke-linejoin:miter;stroke-width:0.8;"/>
   </g>
   <g id="legend_3">
    <g id="patch_19">
     <path d="M 354.695625 276.232821 
L 440.48 276.232821 
Q 442.48 276.232821 442.48 274.232821 
L 442.48 260.554696 
Q 442.48 258.554696 440.48 258.554696 
L 354.695625 258.554696 
Q 352.695625 258.554696 352.695625 260.554696 
L 352.695625 274.232821 
Q 352.695625 276.232821 354.695625 276.232821 
z
" style="fill:#ffffff;opacity:0.8;stroke:#cccccc;stroke-linejoin:miter;"/>
    </g>
    <g id="line2d_66">
     <path d="M 356.695625 266.653133 
L 376.695625 266.653133 
" style="fill:none;stroke:#4682b4;stroke-linecap:square;stroke-width:1.5;"/>
    </g>
    <g id="line2d_67"/>
    <g id="text_20">
     <!-- CO2 (tons) -->
     <defs>
      <path d="M 64.40625 67.28125 
L 64.40625 56.890625 
Q 59.421875 61.53125 53.78125 63.8125 
Q 48.140625 66.109375 41.796875 66.109375 
Q 29.296875 66.109375 22.65625 58.46875 
Q 16.015625 50.828125 16.015625 36.375 
Q 16.015625 21.96875 22.65625 14.328125 
Q 29.296875 6.6875 41.796875 6.6875 
Q 48.140625 6.6875 53.78125 8.984375 
Q 59.421875 11.28125 64.40625 15.921875 
L 64.40625 5.609375 
Q 59.234375 2.09375 53.4375 0.328125 
Q 47.65625 -1.421875 41.21875 -1.421875 
Q 24.65625 -1.421875 15.125 8.703125 
Q 5.609375 18.84375 5.609375 36.375 
Q 5.609375 53.953125 15.125 64.078125 
Q 24.65625 74.21875 41.21875 74.21875 
Q 47.75 74.21875 53.53125 72.484375 
Q 59.328125 70.75 64.40625 67.28125 
z
" id="DejaVuSans-43"/>
     </defs>
     <g transform="translate(384.695625 270.153133)scale(0.1 -0.1)">
      <use xlink:href="#DejaVuSans-43"/>
      <use x="69.824219" xlink:href="#DejaVuSans-4f"/>
      <use x="148.535156" xlink:href="#DejaVuSans-32"/>
      <use x="212.158203" xlink:href="#DejaVuSans-20"/>
      <use x="243.945312" xlink:href="#DejaVuSans-28"/>
      <use x="282.958984" xlink:href="#DejaVuSans-74"/>
      <use x="322.167969" xlink:href="#DejaVuSans-6f"/>
      <use x="383.349609" xlink:href="#DejaVuSans-6e"/>
      <use x="446.728516" xlink:href="#DejaVuSans-73"/>
      <use x="498.828125" xlink:href="#DejaVuSans-29"/>
     </g>
    </g>
   </g>
  </g>
 </g>
 <defs>
  <clipPath id="pca04c550e8">
   <rect height="84.939483" width="415.937" x="31.543" y="23.36505"/>
  </clipPath>
  <clipPath id="p5fcc5e07ea">
   <rect height="84.939483" width="415.937" x="31.543" y="124.144533"/>
  </clipPath>
  <clipPath id="pd66eb44823">
   <rect height="84.939483" width="415.937" x="31.543" y="224.924017"/>
  </clipPath>
 </defs>
</svg>
