<?xml version="1.0" encoding="utf-8" standalone="no"?>
<!DOCTYPE svg PUBLIC "-//W3C//DTD SVG 1.1//EN"
  "http://www.w3.org/Graphics/SVG/1.1/DTD/svg11.dtd">
<!-- Created with matplotlib (http://matplotlib.org/) -->
<svg height="345.6pt" version="1.1" viewBox="0 0 460.8 345.6" width="460.8pt" xmlns="http://www.w3.org/2000/svg" xmlns:xlink="http://www.w3.org/1999/xlink">
 <defs>
  <style type="text/css">
*{stroke-linecap:butt;stroke-linejoin:round;}
  </style>
 </defs>
 <g id="figure_1">
  <g id="patch_1">
   <path d="M 0 345.6 
L 460.8 345.6 
L 460.8 0 
L 0 0 
z
" style="fill:none;"/>
  </g>
  <g id="axes_1">
   <g id="patch_2">
    <path d="M 33.83125 108.304533 
L 445.149974 108.304533 
L 445.149974 23.36505 
L 33.83125 23.36505 
z
" style="fill:none;"/>
   </g>
   <g id="matplotlib.axis_1">
    <g id="xtick_1">
     <g id="line2d_1">
      <path clip-path="url(#p96790103c4)" d="M 73.29542 108.304533 
L 73.29542 23.36505 
" style="fill:none;stroke:#b0b0b0;stroke-linecap:square;stroke-width:0.8;"/>
     </g>
     <g id="line2d_2">
      <defs>
       <path d="M 0 0 
L 0 3.5 
" id="m0cb2fd2eab" style="stroke:#000000;stroke-width:0.8;"/>
      </defs>
      <g>
       <use style="stroke:#000000;stroke-width:0.8;" x="73.29542" xlink:href="#m0cb2fd2eab" y="108.304533"/>
      </g>
     </g>
    </g>
    <g id="xtick_2">
     <g id="line2d_3">
      <path clip-path="url(#p96790103c4)" d="M 125.842429 108.304533 
L 125.842429 23.36505 
" style="fill:none;stroke:#b0b0b0;stroke-linecap:square;stroke-width:0.8;"/>
     </g>
     <g id="line2d_4">
      <g>
       <use style="stroke:#000000;stroke-width:0.8;" x="125.842429" xlink:href="#m0cb2fd2eab" y="108.304533"/>
      </g>
     </g>
    </g>
    <g id="xtick_3">
     <g id="line2d_5">
      <path clip-path="url(#p96790103c4)" d="M 178.317555 108.304533 
L 178.317555 23.36505 
" style="fill:none;stroke:#b0b0b0;stroke-linecap:square;stroke-width:0.8;"/>
     </g>
     <g id="line2d_6">
      <g>
       <use style="stroke:#000000;stroke-width:0.8;" x="178.317555" xlink:href="#m0cb2fd2eab" y="108.304533"/>
      </g>
     </g>
    </g>
    <g id="xtick_4">
     <g id="line2d_7">
      <path clip-path="url(#p96790103c4)" d="M 230.864564 108.304533 
L 230.864564 23.36505 
" style="fill:none;stroke:#b0b0b0;stroke-linecap:square;stroke-width:0.8;"/>
     </g>
     <g id="line2d_8">
      <g>
       <use style="stroke:#000000;stroke-width:0.8;" x="230.864564" xlink:href="#m0cb2fd2eab" y="108.304533"/>
      </g>
     </g>
    </g>
    <g id="xtick_5">
     <g id="line2d_9">
      <path clip-path="url(#p96790103c4)" d="M 283.33969 108.304533 
L 283.33969 23.36505 
" style="fill:none;stroke:#b0b0b0;stroke-linecap:square;stroke-width:0.8;"/>
     </g>
     <g id="line2d_10">
      <g>
       <use style="stroke:#000000;stroke-width:0.8;" x="283.33969" xlink:href="#m0cb2fd2eab" y="108.304533"/>
      </g>
     </g>
    </g>
    <g id="xtick_6">
     <g id="line2d_11">
      <path clip-path="url(#p96790103c4)" d="M 335.886699 108.304533 
L 335.886699 23.36505 
" style="fill:none;stroke:#b0b0b0;stroke-linecap:square;stroke-width:0.8;"/>
     </g>
     <g id="line2d_12">
      <g>
       <use style="stroke:#000000;stroke-width:0.8;" x="335.886699" xlink:href="#m0cb2fd2eab" y="108.304533"/>
      </g>
     </g>
    </g>
    <g id="xtick_7">
     <g id="line2d_13">
      <path clip-path="url(#p96790103c4)" d="M 388.361824 108.304533 
L 388.361824 23.36505 
" style="fill:none;stroke:#b0b0b0;stroke-linecap:square;stroke-width:0.8;"/>
     </g>
     <g id="line2d_14">
      <g>
       <use style="stroke:#000000;stroke-width:0.8;" x="388.361824" xlink:href="#m0cb2fd2eab" y="108.304533"/>
      </g>
     </g>
    </g>
    <g id="xtick_8">
     <g id="line2d_15">
      <path clip-path="url(#p96790103c4)" d="M 440.908834 108.304533 
L 440.908834 23.36505 
" style="fill:none;stroke:#b0b0b0;stroke-linecap:square;stroke-width:0.8;"/>
     </g>
     <g id="line2d_16">
      <g>
       <use style="stroke:#000000;stroke-width:0.8;" x="440.908834" xlink:href="#m0cb2fd2eab" y="108.304533"/>
      </g>
     </g>
    </g>
   </g>
   <g id="matplotlib.axis_2">
    <g id="ytick_1">
     <g id="line2d_17">
      <path clip-path="url(#p96790103c4)" d="M 33.83125 104.443648 
L 445.149974 104.443648 
" style="fill:none;stroke:#b0b0b0;stroke-linecap:square;stroke-width:0.8;"/>
     </g>
     <g id="line2d_18">
      <defs>
       <path d="M 0 0 
L -3.5 0 
" id="mb317b46173" style="stroke:#000000;stroke-width:0.8;"/>
      </defs>
      <g>
       <use style="stroke:#000000;stroke-width:0.8;" x="33.83125" xlink:href="#mb317b46173" y="104.443648"/>
      </g>
     </g>
     <g id="text_1">
      <!-- 0.00 -->
      <defs>
       <path d="M 31.78125 66.40625 
Q 24.171875 66.40625 20.328125 58.90625 
Q 16.5 51.421875 16.5 36.375 
Q 16.5 21.390625 20.328125 13.890625 
Q 24.171875 6.390625 31.78125 6.390625 
Q 39.453125 6.390625 43.28125 13.890625 
Q 47.125 21.390625 47.125 36.375 
Q 47.125 51.421875 43.28125 58.90625 
Q 39.453125 66.40625 31.78125 66.40625 
z
M 31.78125 74.21875 
Q 44.046875 74.21875 50.515625 64.515625 
Q 56.984375 54.828125 56.984375 36.375 
Q 56.984375 17.96875 50.515625 8.265625 
Q 44.046875 -1.421875 31.78125 -1.421875 
Q 19.53125 -1.421875 13.0625 8.265625 
Q 6.59375 17.96875 6.59375 36.375 
Q 6.59375 54.828125 13.0625 64.515625 
Q 19.53125 74.21875 31.78125 74.21875 
z
" id="DejaVuSans-30"/>
       <path d="M 10.6875 12.40625 
L 21 12.40625 
L 21 0 
L 10.6875 0 
z
" id="DejaVuSans-2e"/>
      </defs>
      <g transform="translate(4.565625 108.242866)scale(0.1 -0.1)">
       <use xlink:href="#DejaVuSans-30"/>
       <use x="63.623047" xlink:href="#DejaVuSans-2e"/>
       <use x="95.410156" xlink:href="#DejaVuSans-30"/>
       <use x="159.033203" xlink:href="#DejaVuSans-30"/>
      </g>
     </g>
    </g>
    <g id="ytick_2">
     <g id="line2d_19">
      <path clip-path="url(#p96790103c4)" d="M 33.83125 73.556563 
L 445.149974 73.556563 
" style="fill:none;stroke:#b0b0b0;stroke-linecap:square;stroke-width:0.8;"/>
     </g>
     <g id="line2d_20">
      <g>
       <use style="stroke:#000000;stroke-width:0.8;" x="33.83125" xlink:href="#mb317b46173" y="73.556563"/>
      </g>
     </g>
     <g id="text_2">
      <!-- 0.02 -->
      <defs>
       <path d="M 19.1875 8.296875 
L 53.609375 8.296875 
L 53.609375 0 
L 7.328125 0 
L 7.328125 8.296875 
Q 12.9375 14.109375 22.625 23.890625 
Q 32.328125 33.6875 34.8125 36.53125 
Q 39.546875 41.84375 41.421875 45.53125 
Q 43.3125 49.21875 43.3125 52.78125 
Q 43.3125 58.59375 39.234375 62.25 
Q 35.15625 65.921875 28.609375 65.921875 
Q 23.96875 65.921875 18.8125 64.3125 
Q 13.671875 62.703125 7.8125 59.421875 
L 7.8125 69.390625 
Q 13.765625 71.78125 18.9375 73 
Q 24.125 74.21875 28.421875 74.21875 
Q 39.75 74.21875 46.484375 68.546875 
Q 53.21875 62.890625 53.21875 53.421875 
Q 53.21875 48.921875 51.53125 44.890625 
Q 49.859375 40.875 45.40625 35.40625 
Q 44.1875 33.984375 37.640625 27.21875 
Q 31.109375 20.453125 19.1875 8.296875 
z
" id="DejaVuSans-32"/>
      </defs>
      <g transform="translate(4.565625 77.355782)scale(0.1 -0.1)">
       <use xlink:href="#DejaVuSans-30"/>
       <use x="63.623047" xlink:href="#DejaVuSans-2e"/>
       <use x="95.410156" xlink:href="#DejaVuSans-30"/>
       <use x="159.033203" xlink:href="#DejaVuSans-32"/>
      </g>
     </g>
    </g>
    <g id="ytick_3">
     <g id="line2d_21">
      <path clip-path="url(#p96790103c4)" d="M 33.83125 42.669478 
L 445.149974 42.669478 
" style="fill:none;stroke:#b0b0b0;stroke-linecap:square;stroke-width:0.8;"/>
     </g>
     <g id="line2d_22">
      <g>
       <use style="stroke:#000000;stroke-width:0.8;" x="33.83125" xlink:href="#mb317b46173" y="42.669478"/>
      </g>
     </g>
     <g id="text_3">
      <!-- 0.04 -->
      <defs>
       <path d="M 37.796875 64.3125 
L 12.890625 25.390625 
L 37.796875 25.390625 
z
M 35.203125 72.90625 
L 47.609375 72.90625 
L 47.609375 25.390625 
L 58.015625 25.390625 
L 58.015625 17.1875 
L 47.609375 17.1875 
L 47.609375 0 
L 37.796875 0 
L 37.796875 17.1875 
L 4.890625 17.1875 
L 4.890625 26.703125 
z
" id="DejaVuSans-34"/>
      </defs>
      <g transform="translate(4.565625 46.468697)scale(0.1 -0.1)">
       <use xlink:href="#DejaVuSans-30"/>
       <use x="63.623047" xlink:href="#DejaVuSans-2e"/>
       <use x="95.410156" xlink:href="#DejaVuSans-30"/>
       <use x="159.033203" xlink:href="#DejaVuSans-34"/>
      </g>
     </g>
    </g>
   </g>
   <g id="line2d_23">
    <path clip-path="url(#p96790103c4)" d="M 33.83125 89.000105 
L 36.059646 58.11302 
L 38.288041 89.000105 
L 40.444553 89.000105 
L 42.672949 58.11302 
L 44.829461 89.000105 
L 47.057857 104.443648 
L 53.527393 104.443648 
L 55.683905 89.000105 
L 57.912301 89.000105 
L 60.068813 73.556563 
L 62.297209 89.000105 
L 64.525604 89.000105 
L 66.682116 104.443648 
L 77.608444 104.443648 
L 79.83684 89.000105 
L 86.378259 89.000105 
L 88.606655 104.443648 
L 90.835051 89.000105 
L 92.991563 104.443648 
L 110.45931 104.443648 
L 112.615822 73.556563 
L 114.844218 104.443648 
L 132.311965 104.443648 
L 134.468477 73.556563 
L 136.696873 89.000105 
L 138.853385 27.225936 
L 141.081781 104.443648 
L 143.310176 89.000105 
L 145.466688 104.443648 
L 149.851596 104.443648 
L 152.079992 89.000105 
L 154.308388 104.443648 
L 158.549528 104.443648 
L 160.70604 89.000105 
L 162.934436 89.000105 
L 165.090948 73.556563 
L 167.319343 42.669478 
L 169.547739 104.443648 
L 184.858974 104.443648 
L 187.015486 89.000105 
L 195.857186 89.000105 
L 198.013698 104.443648 
L 211.096537 104.443648 
L 213.253049 89.000105 
L 215.481445 104.443648 
L 217.637957 73.556563 
L 219.866353 73.556563 
L 222.094748 42.669478 
L 224.25126 89.000105 
L 226.479656 104.443648 
L 228.636168 73.556563 
L 230.864564 104.443648 
L 237.3341 104.443648 
L 239.490612 89.000105 
L 243.87552 89.000105 
L 246.103916 104.443648 
L 248.332311 89.000105 
L 250.488823 104.443648 
L 252.717219 89.000105 
L 254.873731 104.443648 
L 257.102127 104.443648 
L 259.330523 89.000105 
L 261.343267 104.443648 
L 263.571663 89.000105 
L 267.956571 89.000105 
L 270.113083 73.556563 
L 272.341478 89.000105 
L 276.726386 89.000105 
L 278.954782 58.11302 
L 283.33969 89.000105 
L 285.568085 104.443648 
L 289.881109 104.443648 
L 292.037621 89.000105 
L 294.266017 89.000105 
L 296.422529 73.556563 
L 300.879321 104.443648 
L 305.264228 73.556563 
L 307.42074 89.000105 
L 309.649136 89.000105 
L 311.877532 104.443648 
L 313.890276 104.443648 
L 316.118672 89.000105 
L 318.275184 89.000105 
L 320.50358 104.443648 
L 322.660092 89.000105 
L 324.888488 89.000105 
L 327.116883 104.443648 
L 331.501791 104.443648 
L 333.658303 89.000105 
L 335.886699 104.443648 
L 338.115095 73.556563 
L 340.127839 73.556563 
L 344.512747 104.443648 
L 346.741143 104.443648 
L 348.897655 89.000105 
L 353.354446 89.000105 
L 355.510958 73.556563 
L 357.739354 89.000105 
L 359.895866 89.000105 
L 362.124262 104.443648 
L 364.352657 73.556563 
L 366.365402 58.11302 
L 368.593798 89.000105 
L 370.75031 104.443648 
L 372.978705 73.556563 
L 375.135217 89.000105 
L 377.363613 89.000105 
L 379.592009 73.556563 
L 381.748521 73.556563 
L 383.976917 89.000105 
L 386.133429 89.000105 
L 388.361824 104.443648 
L 390.59022 89.000105 
L 392.674848 73.556563 
L 394.903244 73.556563 
L 397.059756 89.000105 
L 399.288152 89.000105 
L 401.444664 73.556563 
L 403.67306 104.443648 
L 405.901455 89.000105 
L 410.286363 89.000105 
L 412.442875 104.443648 
L 414.671271 104.443648 
L 416.899667 89.000105 
L 425.525715 89.000105 
L 427.682227 104.443648 
L 429.910623 89.000105 
L 434.29553 89.000105 
L 436.523926 104.443648 
L 440.908834 104.443648 
L 443.13723 89.000105 
L 445.149974 89.000105 
L 445.149974 89.000105 
" style="fill:none;stroke:#008000;stroke-linecap:square;stroke-width:1.5;"/>
   </g>
   <g id="patch_3">
    <path d="M 33.83125 108.304533 
L 33.83125 23.36505 
" style="fill:none;stroke:#000000;stroke-linecap:square;stroke-linejoin:miter;stroke-width:0.8;"/>
   </g>
   <g id="patch_4">
    <path d="M 445.149974 108.304533 
L 445.149974 23.36505 
" style="fill:none;stroke:#000000;stroke-linecap:square;stroke-linejoin:miter;stroke-width:0.8;"/>
   </g>
   <g id="patch_5">
    <path d="M 33.83125 108.304533 
L 445.149974 108.304533 
" style="fill:none;stroke:#000000;stroke-linecap:square;stroke-linejoin:miter;stroke-width:0.8;"/>
   </g>
   <g id="patch_6">
    <path d="M 33.83125 23.36505 
L 445.149974 23.36505 
" style="fill:none;stroke:#000000;stroke-linecap:square;stroke-linejoin:miter;stroke-width:0.8;"/>
   </g>
   <g id="text_4">
    <!-- Mean hourly emissions -->
    <defs>
     <path d="M 9.8125 72.90625 
L 24.515625 72.90625 
L 43.109375 23.296875 
L 61.8125 72.90625 
L 76.515625 72.90625 
L 76.515625 0 
L 66.890625 0 
L 66.890625 64.015625 
L 48.09375 14.015625 
L 38.1875 14.015625 
L 19.390625 64.015625 
L 19.390625 0 
L 9.8125 0 
z
" id="DejaVuSans-4d"/>
     <path d="M 56.203125 29.59375 
L 56.203125 25.203125 
L 14.890625 25.203125 
Q 15.484375 15.921875 20.484375 11.0625 
Q 25.484375 6.203125 34.421875 6.203125 
Q 39.59375 6.203125 44.453125 7.46875 
Q 49.3125 8.734375 54.109375 11.28125 
L 54.109375 2.78125 
Q 49.265625 0.734375 44.1875 -0.34375 
Q 39.109375 -1.421875 33.890625 -1.421875 
Q 20.796875 -1.421875 13.15625 6.1875 
Q 5.515625 13.8125 5.515625 26.8125 
Q 5.515625 40.234375 12.765625 48.109375 
Q 20.015625 56 32.328125 56 
Q 43.359375 56 49.78125 48.890625 
Q 56.203125 41.796875 56.203125 29.59375 
z
M 47.21875 32.234375 
Q 47.125 39.59375 43.09375 43.984375 
Q 39.0625 48.390625 32.421875 48.390625 
Q 24.90625 48.390625 20.390625 44.140625 
Q 15.875 39.890625 15.1875 32.171875 
z
" id="DejaVuSans-65"/>
     <path d="M 34.28125 27.484375 
Q 23.390625 27.484375 19.1875 25 
Q 14.984375 22.515625 14.984375 16.5 
Q 14.984375 11.71875 18.140625 8.90625 
Q 21.296875 6.109375 26.703125 6.109375 
Q 34.1875 6.109375 38.703125 11.40625 
Q 43.21875 16.703125 43.21875 25.484375 
L 43.21875 27.484375 
z
M 52.203125 31.203125 
L 52.203125 0 
L 43.21875 0 
L 43.21875 8.296875 
Q 40.140625 3.328125 35.546875 0.953125 
Q 30.953125 -1.421875 24.3125 -1.421875 
Q 15.921875 -1.421875 10.953125 3.296875 
Q 6 8.015625 6 15.921875 
Q 6 25.140625 12.171875 29.828125 
Q 18.359375 34.515625 30.609375 34.515625 
L 43.21875 34.515625 
L 43.21875 35.40625 
Q 43.21875 41.609375 39.140625 45 
Q 35.0625 48.390625 27.6875 48.390625 
Q 23 48.390625 18.546875 47.265625 
Q 14.109375 46.140625 10.015625 43.890625 
L 10.015625 52.203125 
Q 14.9375 54.109375 19.578125 55.046875 
Q 24.21875 56 28.609375 56 
Q 40.484375 56 46.34375 49.84375 
Q 52.203125 43.703125 52.203125 31.203125 
z
" id="DejaVuSans-61"/>
     <path d="M 54.890625 33.015625 
L 54.890625 0 
L 45.90625 0 
L 45.90625 32.71875 
Q 45.90625 40.484375 42.875 44.328125 
Q 39.84375 48.1875 33.796875 48.1875 
Q 26.515625 48.1875 22.3125 43.546875 
Q 18.109375 38.921875 18.109375 30.90625 
L 18.109375 0 
L 9.078125 0 
L 9.078125 54.6875 
L 18.109375 54.6875 
L 18.109375 46.1875 
Q 21.34375 51.125 25.703125 53.5625 
Q 30.078125 56 35.796875 56 
Q 45.21875 56 50.046875 50.171875 
Q 54.890625 44.34375 54.890625 33.015625 
z
" id="DejaVuSans-6e"/>
     <path id="DejaVuSans-20"/>
     <path d="M 54.890625 33.015625 
L 54.890625 0 
L 45.90625 0 
L 45.90625 32.71875 
Q 45.90625 40.484375 42.875 44.328125 
Q 39.84375 48.1875 33.796875 48.1875 
Q 26.515625 48.1875 22.3125 43.546875 
Q 18.109375 38.921875 18.109375 30.90625 
L 18.109375 0 
L 9.078125 0 
L 9.078125 75.984375 
L 18.109375 75.984375 
L 18.109375 46.1875 
Q 21.34375 51.125 25.703125 53.5625 
Q 30.078125 56 35.796875 56 
Q 45.21875 56 50.046875 50.171875 
Q 54.890625 44.34375 54.890625 33.015625 
z
" id="DejaVuSans-68"/>
     <path d="M 30.609375 48.390625 
Q 23.390625 48.390625 19.1875 42.75 
Q 14.984375 37.109375 14.984375 27.296875 
Q 14.984375 17.484375 19.15625 11.84375 
Q 23.34375 6.203125 30.609375 6.203125 
Q 37.796875 6.203125 41.984375 11.859375 
Q 46.1875 17.53125 46.1875 27.296875 
Q 46.1875 37.015625 41.984375 42.703125 
Q 37.796875 48.390625 30.609375 48.390625 
z
M 30.609375 56 
Q 42.328125 56 49.015625 48.375 
Q 55.71875 40.765625 55.71875 27.296875 
Q 55.71875 13.875 49.015625 6.21875 
Q 42.328125 -1.421875 30.609375 -1.421875 
Q 18.84375 -1.421875 12.171875 6.21875 
Q 5.515625 13.875 5.515625 27.296875 
Q 5.515625 40.765625 12.171875 48.375 
Q 18.84375 56 30.609375 56 
z
" id="DejaVuSans-6f"/>
     <path d="M 8.5 21.578125 
L 8.5 54.6875 
L 17.484375 54.6875 
L 17.484375 21.921875 
Q 17.484375 14.15625 20.5 10.265625 
Q 23.53125 6.390625 29.59375 6.390625 
Q 36.859375 6.390625 41.078125 11.03125 
Q 45.3125 15.671875 45.3125 23.6875 
L 45.3125 54.6875 
L 54.296875 54.6875 
L 54.296875 0 
L 45.3125 0 
L 45.3125 8.40625 
Q 42.046875 3.421875 37.71875 1 
Q 33.40625 -1.421875 27.6875 -1.421875 
Q 18.265625 -1.421875 13.375 4.4375 
Q 8.5 10.296875 8.5 21.578125 
z
M 31.109375 56 
z
" id="DejaVuSans-75"/>
     <path d="M 41.109375 46.296875 
Q 39.59375 47.171875 37.8125 47.578125 
Q 36.03125 48 33.890625 48 
Q 26.265625 48 22.1875 43.046875 
Q 18.109375 38.09375 18.109375 28.8125 
L 18.109375 0 
L 9.078125 0 
L 9.078125 54.6875 
L 18.109375 54.6875 
L 18.109375 46.1875 
Q 20.953125 51.171875 25.484375 53.578125 
Q 30.03125 56 36.53125 56 
Q 37.453125 56 38.578125 55.875 
Q 39.703125 55.765625 41.0625 55.515625 
z
" id="DejaVuSans-72"/>
     <path d="M 9.421875 75.984375 
L 18.40625 75.984375 
L 18.40625 0 
L 9.421875 0 
z
" id="DejaVuSans-6c"/>
     <path d="M 32.171875 -5.078125 
Q 28.375 -14.84375 24.75 -17.8125 
Q 21.140625 -20.796875 15.09375 -20.796875 
L 7.90625 -20.796875 
L 7.90625 -13.28125 
L 13.1875 -13.28125 
Q 16.890625 -13.28125 18.9375 -11.515625 
Q 21 -9.765625 23.484375 -3.21875 
L 25.09375 0.875 
L 2.984375 54.6875 
L 12.5 54.6875 
L 29.59375 11.921875 
L 46.6875 54.6875 
L 56.203125 54.6875 
z
" id="DejaVuSans-79"/>
     <path d="M 52 44.1875 
Q 55.375 50.25 60.0625 53.125 
Q 64.75 56 71.09375 56 
Q 79.640625 56 84.28125 50.015625 
Q 88.921875 44.046875 88.921875 33.015625 
L 88.921875 0 
L 79.890625 0 
L 79.890625 32.71875 
Q 79.890625 40.578125 77.09375 44.375 
Q 74.3125 48.1875 68.609375 48.1875 
Q 61.625 48.1875 57.5625 43.546875 
Q 53.515625 38.921875 53.515625 30.90625 
L 53.515625 0 
L 44.484375 0 
L 44.484375 32.71875 
Q 44.484375 40.625 41.703125 44.40625 
Q 38.921875 48.1875 33.109375 48.1875 
Q 26.21875 48.1875 22.15625 43.53125 
Q 18.109375 38.875 18.109375 30.90625 
L 18.109375 0 
L 9.078125 0 
L 9.078125 54.6875 
L 18.109375 54.6875 
L 18.109375 46.1875 
Q 21.1875 51.21875 25.484375 53.609375 
Q 29.78125 56 35.6875 56 
Q 41.65625 56 45.828125 52.96875 
Q 50 49.953125 52 44.1875 
z
" id="DejaVuSans-6d"/>
     <path d="M 9.421875 54.6875 
L 18.40625 54.6875 
L 18.40625 0 
L 9.421875 0 
z
M 9.421875 75.984375 
L 18.40625 75.984375 
L 18.40625 64.59375 
L 9.421875 64.59375 
z
" id="DejaVuSans-69"/>
     <path d="M 44.28125 53.078125 
L 44.28125 44.578125 
Q 40.484375 46.53125 36.375 47.5 
Q 32.28125 48.484375 27.875 48.484375 
Q 21.1875 48.484375 17.84375 46.4375 
Q 14.5 44.390625 14.5 40.28125 
Q 14.5 37.15625 16.890625 35.375 
Q 19.28125 33.59375 26.515625 31.984375 
L 29.59375 31.296875 
Q 39.15625 29.25 43.1875 25.515625 
Q 47.21875 21.78125 47.21875 15.09375 
Q 47.21875 7.46875 41.1875 3.015625 
Q 35.15625 -1.421875 24.609375 -1.421875 
Q 20.21875 -1.421875 15.453125 -0.5625 
Q 10.6875 0.296875 5.421875 2 
L 5.421875 11.28125 
Q 10.40625 8.6875 15.234375 7.390625 
Q 20.0625 6.109375 24.8125 6.109375 
Q 31.15625 6.109375 34.5625 8.28125 
Q 37.984375 10.453125 37.984375 14.40625 
Q 37.984375 18.0625 35.515625 20.015625 
Q 33.0625 21.96875 24.703125 23.78125 
L 21.578125 24.515625 
Q 13.234375 26.265625 9.515625 29.90625 
Q 5.8125 33.546875 5.8125 39.890625 
Q 5.8125 47.609375 11.28125 51.796875 
Q 16.75 56 26.8125 56 
Q 31.78125 56 36.171875 55.265625 
Q 40.578125 54.546875 44.28125 53.078125 
z
" id="DejaVuSans-73"/>
    </defs>
    <g transform="translate(170.647175 17.36505)scale(0.12 -0.12)">
     <use xlink:href="#DejaVuSans-4d"/>
     <use x="86.279297" xlink:href="#DejaVuSans-65"/>
     <use x="147.802734" xlink:href="#DejaVuSans-61"/>
     <use x="209.082031" xlink:href="#DejaVuSans-6e"/>
     <use x="272.460938" xlink:href="#DejaVuSans-20"/>
     <use x="304.248047" xlink:href="#DejaVuSans-68"/>
     <use x="367.626953" xlink:href="#DejaVuSans-6f"/>
     <use x="428.808594" xlink:href="#DejaVuSans-75"/>
     <use x="492.1875" xlink:href="#DejaVuSans-72"/>
     <use x="533.300781" xlink:href="#DejaVuSans-6c"/>
     <use x="561.083984" xlink:href="#DejaVuSans-79"/>
     <use x="620.263672" xlink:href="#DejaVuSans-20"/>
     <use x="652.050781" xlink:href="#DejaVuSans-65"/>
     <use x="713.574219" xlink:href="#DejaVuSans-6d"/>
     <use x="810.986328" xlink:href="#DejaVuSans-69"/>
     <use x="838.769531" xlink:href="#DejaVuSans-73"/>
     <use x="890.869141" xlink:href="#DejaVuSans-73"/>
     <use x="942.96875" xlink:href="#DejaVuSans-69"/>
     <use x="970.751953" xlink:href="#DejaVuSans-6f"/>
     <use x="1031.933594" xlink:href="#DejaVuSans-6e"/>
     <use x="1095.3125" xlink:href="#DejaVuSans-73"/>
    </g>
   </g>
   <g id="legend_1">
    <g id="patch_7">
     <path d="M 360.249974 46.043175 
L 438.149974 46.043175 
Q 440.149974 46.043175 440.149974 44.043175 
L 440.149974 30.36505 
Q 440.149974 28.36505 438.149974 28.36505 
L 360.249974 28.36505 
Q 358.249974 28.36505 358.249974 30.36505 
L 358.249974 44.043175 
Q 358.249974 46.043175 360.249974 46.043175 
z
" style="fill:#ffffff;opacity:0.8;stroke:#cccccc;stroke-linejoin:miter;"/>
    </g>
    <g id="line2d_24">
     <path d="M 362.249974 36.463488 
L 382.249974 36.463488 
" style="fill:none;stroke:#008000;stroke-linecap:square;stroke-width:1.5;"/>
    </g>
    <g id="line2d_25"/>
    <g id="text_5">
     <!-- SO2 (lbs) -->
     <defs>
      <path d="M 53.515625 70.515625 
L 53.515625 60.890625 
Q 47.90625 63.578125 42.921875 64.890625 
Q 37.9375 66.21875 33.296875 66.21875 
Q 25.25 66.21875 20.875 63.09375 
Q 16.5 59.96875 16.5 54.203125 
Q 16.5 49.359375 19.40625 46.890625 
Q 22.3125 44.4375 30.421875 42.921875 
L 36.375 41.703125 
Q 47.40625 39.59375 52.65625 34.296875 
Q 57.90625 29 57.90625 20.125 
Q 57.90625 9.515625 50.796875 4.046875 
Q 43.703125 -1.421875 29.984375 -1.421875 
Q 24.8125 -1.421875 18.96875 -0.25 
Q 13.140625 0.921875 6.890625 3.21875 
L 6.890625 13.375 
Q 12.890625 10.015625 18.65625 8.296875 
Q 24.421875 6.59375 29.984375 6.59375 
Q 38.421875 6.59375 43.015625 9.90625 
Q 47.609375 13.234375 47.609375 19.390625 
Q 47.609375 24.75 44.3125 27.78125 
Q 41.015625 30.8125 33.5 32.328125 
L 27.484375 33.5 
Q 16.453125 35.6875 11.515625 40.375 
Q 6.59375 45.0625 6.59375 53.421875 
Q 6.59375 63.09375 13.40625 68.65625 
Q 20.21875 74.21875 32.171875 74.21875 
Q 37.3125 74.21875 42.625 73.28125 
Q 47.953125 72.359375 53.515625 70.515625 
z
" id="DejaVuSans-53"/>
      <path d="M 39.40625 66.21875 
Q 28.65625 66.21875 22.328125 58.203125 
Q 16.015625 50.203125 16.015625 36.375 
Q 16.015625 22.609375 22.328125 14.59375 
Q 28.65625 6.59375 39.40625 6.59375 
Q 50.140625 6.59375 56.421875 14.59375 
Q 62.703125 22.609375 62.703125 36.375 
Q 62.703125 50.203125 56.421875 58.203125 
Q 50.140625 66.21875 39.40625 66.21875 
z
M 39.40625 74.21875 
Q 54.734375 74.21875 63.90625 63.9375 
Q 73.09375 53.65625 73.09375 36.375 
Q 73.09375 19.140625 63.90625 8.859375 
Q 54.734375 -1.421875 39.40625 -1.421875 
Q 24.03125 -1.421875 14.8125 8.828125 
Q 5.609375 19.09375 5.609375 36.375 
Q 5.609375 53.65625 14.8125 63.9375 
Q 24.03125 74.21875 39.40625 74.21875 
z
" id="DejaVuSans-4f"/>
      <path d="M 31 75.875 
Q 24.46875 64.65625 21.28125 53.65625 
Q 18.109375 42.671875 18.109375 31.390625 
Q 18.109375 20.125 21.3125 9.0625 
Q 24.515625 -2 31 -13.1875 
L 23.1875 -13.1875 
Q 15.875 -1.703125 12.234375 9.375 
Q 8.59375 20.453125 8.59375 31.390625 
Q 8.59375 42.28125 12.203125 53.3125 
Q 15.828125 64.359375 23.1875 75.875 
z
" id="DejaVuSans-28"/>
      <path d="M 48.6875 27.296875 
Q 48.6875 37.203125 44.609375 42.84375 
Q 40.53125 48.484375 33.40625 48.484375 
Q 26.265625 48.484375 22.1875 42.84375 
Q 18.109375 37.203125 18.109375 27.296875 
Q 18.109375 17.390625 22.1875 11.75 
Q 26.265625 6.109375 33.40625 6.109375 
Q 40.53125 6.109375 44.609375 11.75 
Q 48.6875 17.390625 48.6875 27.296875 
z
M 18.109375 46.390625 
Q 20.953125 51.265625 25.265625 53.625 
Q 29.59375 56 35.59375 56 
Q 45.5625 56 51.78125 48.09375 
Q 58.015625 40.1875 58.015625 27.296875 
Q 58.015625 14.40625 51.78125 6.484375 
Q 45.5625 -1.421875 35.59375 -1.421875 
Q 29.59375 -1.421875 25.265625 0.953125 
Q 20.953125 3.328125 18.109375 8.203125 
L 18.109375 0 
L 9.078125 0 
L 9.078125 75.984375 
L 18.109375 75.984375 
z
" id="DejaVuSans-62"/>
      <path d="M 8.015625 75.875 
L 15.828125 75.875 
Q 23.140625 64.359375 26.78125 53.3125 
Q 30.421875 42.28125 30.421875 31.390625 
Q 30.421875 20.453125 26.78125 9.375 
Q 23.140625 -1.703125 15.828125 -13.1875 
L 8.015625 -13.1875 
Q 14.5 -2 17.703125 9.0625 
Q 20.90625 20.125 20.90625 31.390625 
Q 20.90625 42.671875 17.703125 53.65625 
Q 14.5 64.65625 8.015625 75.875 
z
" id="DejaVuSans-29"/>
     </defs>
     <g transform="translate(390.249974 39.963488)scale(0.1 -0.1)">
      <use xlink:href="#DejaVuSans-53"/>
      <use x="63.476562" xlink:href="#DejaVuSans-4f"/>
      <use x="142.1875" xlink:href="#DejaVuSans-32"/>
      <use x="205.810547" xlink:href="#DejaVuSans-20"/>
      <use x="237.597656" xlink:href="#DejaVuSans-28"/>
      <use x="276.611328" xlink:href="#DejaVuSans-6c"/>
      <use x="304.394531" xlink:href="#DejaVuSans-62"/>
      <use x="367.871094" xlink:href="#DejaVuSans-73"/>
      <use x="419.970703" xlink:href="#DejaVuSans-29"/>
     </g>
    </g>
   </g>
  </g>
  <g id="axes_2">
   <g id="patch_8">
    <path d="M 33.83125 209.084017 
L 445.149974 209.084017 
L 445.149974 124.144533 
L 33.83125 124.144533 
z
" style="fill:none;"/>
   </g>
   <g id="matplotlib.axis_3">
    <g id="xtick_9">
     <g id="line2d_26">
      <path clip-path="url(#pb7f4a9f975)" d="M 73.29542 209.084017 
L 73.29542 124.144533 
" style="fill:none;stroke:#b0b0b0;stroke-linecap:square;stroke-width:0.8;"/>
     </g>
     <g id="line2d_27">
      <g>
       <use style="stroke:#000000;stroke-width:0.8;" x="73.29542" xlink:href="#m0cb2fd2eab" y="209.084017"/>
      </g>
     </g>
    </g>
    <g id="xtick_10">
     <g id="line2d_28">
      <path clip-path="url(#pb7f4a9f975)" d="M 125.842429 209.084017 
L 125.842429 124.144533 
" style="fill:none;stroke:#b0b0b0;stroke-linecap:square;stroke-width:0.8;"/>
     </g>
     <g id="line2d_29">
      <g>
       <use style="stroke:#000000;stroke-width:0.8;" x="125.842429" xlink:href="#m0cb2fd2eab" y="209.084017"/>
      </g>
     </g>
    </g>
    <g id="xtick_11">
     <g id="line2d_30">
      <path clip-path="url(#pb7f4a9f975)" d="M 178.317555 209.084017 
L 178.317555 124.144533 
" style="fill:none;stroke:#b0b0b0;stroke-linecap:square;stroke-width:0.8;"/>
     </g>
     <g id="line2d_31">
      <g>
       <use style="stroke:#000000;stroke-width:0.8;" x="178.317555" xlink:href="#m0cb2fd2eab" y="209.084017"/>
      </g>
     </g>
    </g>
    <g id="xtick_12">
     <g id="line2d_32">
      <path clip-path="url(#pb7f4a9f975)" d="M 230.864564 209.084017 
L 230.864564 124.144533 
" style="fill:none;stroke:#b0b0b0;stroke-linecap:square;stroke-width:0.8;"/>
     </g>
     <g id="line2d_33">
      <g>
       <use style="stroke:#000000;stroke-width:0.8;" x="230.864564" xlink:href="#m0cb2fd2eab" y="209.084017"/>
      </g>
     </g>
    </g>
    <g id="xtick_13">
     <g id="line2d_34">
      <path clip-path="url(#pb7f4a9f975)" d="M 283.33969 209.084017 
L 283.33969 124.144533 
" style="fill:none;stroke:#b0b0b0;stroke-linecap:square;stroke-width:0.8;"/>
     </g>
     <g id="line2d_35">
      <g>
       <use style="stroke:#000000;stroke-width:0.8;" x="283.33969" xlink:href="#m0cb2fd2eab" y="209.084017"/>
      </g>
     </g>
    </g>
    <g id="xtick_14">
     <g id="line2d_36">
      <path clip-path="url(#pb7f4a9f975)" d="M 335.886699 209.084017 
L 335.886699 124.144533 
" style="fill:none;stroke:#b0b0b0;stroke-linecap:square;stroke-width:0.8;"/>
     </g>
     <g id="line2d_37">
      <g>
       <use style="stroke:#000000;stroke-width:0.8;" x="335.886699" xlink:href="#m0cb2fd2eab" y="209.084017"/>
      </g>
     </g>
    </g>
    <g id="xtick_15">
     <g id="line2d_38">
      <path clip-path="url(#pb7f4a9f975)" d="M 388.361824 209.084017 
L 388.361824 124.144533 
" style="fill:none;stroke:#b0b0b0;stroke-linecap:square;stroke-width:0.8;"/>
     </g>
     <g id="line2d_39">
      <g>
       <use style="stroke:#000000;stroke-width:0.8;" x="388.361824" xlink:href="#m0cb2fd2eab" y="209.084017"/>
      </g>
     </g>
    </g>
    <g id="xtick_16">
     <g id="line2d_40">
      <path clip-path="url(#pb7f4a9f975)" d="M 440.908834 209.084017 
L 440.908834 124.144533 
" style="fill:none;stroke:#b0b0b0;stroke-linecap:square;stroke-width:0.8;"/>
     </g>
     <g id="line2d_41">
      <g>
       <use style="stroke:#000000;stroke-width:0.8;" x="440.908834" xlink:href="#m0cb2fd2eab" y="209.084017"/>
      </g>
     </g>
    </g>
   </g>
   <g id="matplotlib.axis_4">
    <g id="ytick_4">
     <g id="line2d_42">
      <path clip-path="url(#pb7f4a9f975)" d="M 33.83125 205.223131 
L 445.149974 205.223131 
" style="fill:none;stroke:#b0b0b0;stroke-linecap:square;stroke-width:0.8;"/>
     </g>
     <g id="line2d_43">
      <g>
       <use style="stroke:#000000;stroke-width:0.8;" x="33.83125" xlink:href="#mb317b46173" y="205.223131"/>
      </g>
     </g>
     <g id="text_6">
      <!-- 0.00 -->
      <g transform="translate(4.565625 209.02235)scale(0.1 -0.1)">
       <use xlink:href="#DejaVuSans-30"/>
       <use x="63.623047" xlink:href="#DejaVuSans-2e"/>
       <use x="95.410156" xlink:href="#DejaVuSans-30"/>
       <use x="159.033203" xlink:href="#DejaVuSans-30"/>
      </g>
     </g>
    </g>
    <g id="ytick_5">
     <g id="line2d_44">
      <path clip-path="url(#pb7f4a9f975)" d="M 33.83125 179.483894 
L 445.149974 179.483894 
" style="fill:none;stroke:#b0b0b0;stroke-linecap:square;stroke-width:0.8;"/>
     </g>
     <g id="line2d_45">
      <g>
       <use style="stroke:#000000;stroke-width:0.8;" x="33.83125" xlink:href="#mb317b46173" y="179.483894"/>
      </g>
     </g>
     <g id="text_7">
      <!-- 0.25 -->
      <defs>
       <path d="M 10.796875 72.90625 
L 49.515625 72.90625 
L 49.515625 64.59375 
L 19.828125 64.59375 
L 19.828125 46.734375 
Q 21.96875 47.46875 24.109375 47.828125 
Q 26.265625 48.1875 28.421875 48.1875 
Q 40.625 48.1875 47.75 41.5 
Q 54.890625 34.8125 54.890625 23.390625 
Q 54.890625 11.625 47.5625 5.09375 
Q 40.234375 -1.421875 26.90625 -1.421875 
Q 22.3125 -1.421875 17.546875 -0.640625 
Q 12.796875 0.140625 7.71875 1.703125 
L 7.71875 11.625 
Q 12.109375 9.234375 16.796875 8.0625 
Q 21.484375 6.890625 26.703125 6.890625 
Q 35.15625 6.890625 40.078125 11.328125 
Q 45.015625 15.765625 45.015625 23.390625 
Q 45.015625 31 40.078125 35.4375 
Q 35.15625 39.890625 26.703125 39.890625 
Q 22.75 39.890625 18.8125 39.015625 
Q 14.890625 38.140625 10.796875 36.28125 
z
" id="DejaVuSans-35"/>
      </defs>
      <g transform="translate(4.565625 183.283112)scale(0.1 -0.1)">
       <use xlink:href="#DejaVuSans-30"/>
       <use x="63.623047" xlink:href="#DejaVuSans-2e"/>
       <use x="95.410156" xlink:href="#DejaVuSans-32"/>
       <use x="159.033203" xlink:href="#DejaVuSans-35"/>
      </g>
     </g>
    </g>
    <g id="ytick_6">
     <g id="line2d_46">
      <path clip-path="url(#pb7f4a9f975)" d="M 33.83125 153.744656 
L 445.149974 153.744656 
" style="fill:none;stroke:#b0b0b0;stroke-linecap:square;stroke-width:0.8;"/>
     </g>
     <g id="line2d_47">
      <g>
       <use style="stroke:#000000;stroke-width:0.8;" x="33.83125" xlink:href="#mb317b46173" y="153.744656"/>
      </g>
     </g>
     <g id="text_8">
      <!-- 0.50 -->
      <g transform="translate(4.565625 157.543875)scale(0.1 -0.1)">
       <use xlink:href="#DejaVuSans-30"/>
       <use x="63.623047" xlink:href="#DejaVuSans-2e"/>
       <use x="95.410156" xlink:href="#DejaVuSans-35"/>
       <use x="159.033203" xlink:href="#DejaVuSans-30"/>
      </g>
     </g>
    </g>
    <g id="ytick_7">
     <g id="line2d_48">
      <path clip-path="url(#pb7f4a9f975)" d="M 33.83125 128.005419 
L 445.149974 128.005419 
" style="fill:none;stroke:#b0b0b0;stroke-linecap:square;stroke-width:0.8;"/>
     </g>
     <g id="line2d_49">
      <g>
       <use style="stroke:#000000;stroke-width:0.8;" x="33.83125" xlink:href="#mb317b46173" y="128.005419"/>
      </g>
     </g>
     <g id="text_9">
      <!-- 0.75 -->
      <defs>
       <path d="M 8.203125 72.90625 
L 55.078125 72.90625 
L 55.078125 68.703125 
L 28.609375 0 
L 18.3125 0 
L 43.21875 64.59375 
L 8.203125 64.59375 
z
" id="DejaVuSans-37"/>
      </defs>
      <g transform="translate(4.565625 131.804638)scale(0.1 -0.1)">
       <use xlink:href="#DejaVuSans-30"/>
       <use x="63.623047" xlink:href="#DejaVuSans-2e"/>
       <use x="95.410156" xlink:href="#DejaVuSans-37"/>
       <use x="159.033203" xlink:href="#DejaVuSans-35"/>
      </g>
     </g>
    </g>
   </g>
   <g id="line2d_50">
    <path clip-path="url(#pb7f4a9f975)" d="M 33.83125 183.602172 
L 36.059646 159.922073 
L 38.288041 185.661311 
L 40.444553 191.838728 
L 42.672949 167.12906 
L 44.829461 190.809158 
L 47.057857 205.223131 
L 51.298997 205.223131 
L 53.527393 204.193562 
L 55.683905 193.897867 
L 57.912301 192.868297 
L 60.068813 181.543033 
L 62.297209 192.868297 
L 64.525604 186.69088 
L 66.682116 198.016145 
L 68.910512 205.223131 
L 71.067024 199.045714 
L 73.29542 205.223131 
L 75.523816 205.223131 
L 77.608444 204.193562 
L 79.83684 195.957006 
L 81.993352 195.957006 
L 84.221747 194.927436 
L 86.378259 194.927436 
L 88.606655 204.193562 
L 90.835051 190.809158 
L 92.991563 204.193562 
L 95.219959 204.193562 
L 97.376471 202.134423 
L 99.604866 198.016145 
L 101.833262 205.223131 
L 103.846007 204.193562 
L 106.074402 201.104853 
L 108.230914 204.193562 
L 110.45931 202.134423 
L 112.615822 174.336046 
L 114.844218 200.075284 
L 117.072614 202.134423 
L 119.229126 205.223131 
L 121.457521 205.223131 
L 123.614033 202.134423 
L 125.842429 205.223131 
L 128.070825 205.223131 
L 130.083569 204.193562 
L 132.311965 205.223131 
L 134.468477 173.306477 
L 136.696873 180.513463 
L 138.853385 128.005419 
L 141.081781 203.163992 
L 143.310176 195.957006 
L 145.466688 205.223131 
L 147.695084 204.193562 
L 149.851596 200.075284 
L 152.079992 186.69088 
L 154.308388 205.223131 
L 156.321132 204.193562 
L 158.549528 202.134423 
L 160.70604 186.69088 
L 162.934436 188.750019 
L 165.090948 174.336046 
L 167.319343 145.5081 
L 169.547739 195.957006 
L 171.704251 203.163992 
L 173.932647 198.016145 
L 176.089159 199.045714 
L 178.317555 204.193562 
L 180.54595 205.223131 
L 182.630579 204.193562 
L 184.858974 205.223131 
L 187.015486 186.69088 
L 189.243882 184.631741 
L 193.62879 188.750019 
L 195.857186 185.661311 
L 198.013698 199.045714 
L 200.242093 201.104853 
L 202.398605 205.223131 
L 204.627001 203.163992 
L 206.855397 196.986575 
L 208.868141 205.223131 
L 211.096537 205.223131 
L 213.253049 191.838728 
L 215.481445 202.134423 
L 217.637957 181.543033 
L 219.866353 179.483894 
L 222.094748 153.744656 
L 224.25126 190.809158 
L 226.479656 204.193562 
L 228.636168 176.395185 
L 230.864564 205.223131 
L 233.09296 202.134423 
L 235.105704 204.193562 
L 237.3341 204.193562 
L 239.490612 194.927436 
L 241.719008 192.868297 
L 243.87552 191.838728 
L 246.103916 200.075284 
L 248.332311 194.927436 
L 250.488823 202.134423 
L 252.717219 196.986575 
L 254.873731 201.104853 
L 257.102127 200.075284 
L 259.330523 196.986575 
L 261.343267 200.075284 
L 263.571663 191.838728 
L 265.728175 190.809158 
L 267.956571 194.927436 
L 270.113083 182.572602 
L 272.341478 191.838728 
L 274.569874 194.927436 
L 276.726386 184.631741 
L 278.954782 167.12906 
L 281.111294 180.513463 
L 283.33969 198.016145 
L 285.568085 204.193562 
L 287.652714 204.193562 
L 289.881109 201.104853 
L 292.037621 194.927436 
L 294.266017 193.897867 
L 296.422529 174.336046 
L 298.650925 187.72045 
L 300.879321 203.163992 
L 303.035833 190.809158 
L 305.264228 171.247338 
L 307.42074 187.72045 
L 309.649136 193.897867 
L 311.877532 205.223131 
L 313.890276 202.134423 
L 316.118672 187.72045 
L 318.275184 190.809158 
L 320.50358 200.075284 
L 322.660092 187.72045 
L 324.888488 192.868297 
L 327.116883 204.193562 
L 329.273395 200.075284 
L 331.501791 202.134423 
L 333.658303 196.986575 
L 335.886699 204.193562 
L 338.115095 180.513463 
L 340.127839 175.365616 
L 342.356235 195.957006 
L 344.512747 203.163992 
L 346.741143 201.104853 
L 348.897655 194.927436 
L 351.12605 192.868297 
L 355.510958 174.336046 
L 357.739354 182.572602 
L 359.895866 198.016145 
L 362.124262 198.016145 
L 364.352657 172.276907 
L 366.365402 163.010782 
L 368.593798 185.661311 
L 370.75031 199.045714 
L 372.978705 168.158629 
L 375.135217 189.779589 
L 377.363613 193.897867 
L 379.592009 174.336046 
L 381.748521 179.483894 
L 383.976917 191.838728 
L 386.133429 196.986575 
L 388.361824 200.075284 
L 390.59022 180.513463 
L 392.674848 178.454324 
L 394.903244 179.483894 
L 397.059756 181.543033 
L 399.288152 181.543033 
L 401.444664 166.09949 
L 403.67306 202.134423 
L 405.901455 193.897867 
L 408.057967 196.986575 
L 410.286363 190.809158 
L 412.442875 203.163992 
L 414.671271 201.104853 
L 416.899667 194.927436 
L 418.912411 190.809158 
L 421.140807 193.897867 
L 423.297319 180.513463 
L 425.525715 199.045714 
L 427.682227 199.045714 
L 429.910623 200.075284 
L 432.139018 195.957006 
L 434.29553 196.986575 
L 436.523926 201.104853 
L 438.680438 203.163992 
L 440.908834 202.134423 
L 443.13723 199.045714 
L 445.149974 196.986575 
L 445.149974 196.986575 
" style="fill:none;stroke:#f97306;stroke-linecap:square;stroke-width:1.5;"/>
   </g>
   <g id="patch_9">
    <path d="M 33.83125 209.084017 
L 33.83125 124.144533 
" style="fill:none;stroke:#000000;stroke-linecap:square;stroke-linejoin:miter;stroke-width:0.8;"/>
   </g>
   <g id="patch_10">
    <path d="M 445.149974 209.084017 
L 445.149974 124.144533 
" style="fill:none;stroke:#000000;stroke-linecap:square;stroke-linejoin:miter;stroke-width:0.8;"/>
   </g>
   <g id="patch_11">
    <path d="M 33.83125 209.084017 
L 445.149974 209.084017 
" style="fill:none;stroke:#000000;stroke-linecap:square;stroke-linejoin:miter;stroke-width:0.8;"/>
   </g>
   <g id="patch_12">
    <path d="M 33.83125 124.144533 
L 445.149974 124.144533 
" style="fill:none;stroke:#000000;stroke-linecap:square;stroke-linejoin:miter;stroke-width:0.8;"/>
   </g>
   <g id="legend_2">
    <g id="patch_13">
     <path d="M 359.560912 146.822658 
L 438.149974 146.822658 
Q 440.149974 146.822658 440.149974 144.822658 
L 440.149974 131.144533 
Q 440.149974 129.144533 438.149974 129.144533 
L 359.560912 129.144533 
Q 357.560912 129.144533 357.560912 131.144533 
L 357.560912 144.822658 
Q 357.560912 146.822658 359.560912 146.822658 
z
" style="fill:#ffffff;opacity:0.8;stroke:#cccccc;stroke-linejoin:miter;"/>
    </g>
    <g id="line2d_51">
     <path d="M 361.560912 137.242971 
L 381.560912 137.242971 
" style="fill:none;stroke:#f97306;stroke-linecap:square;stroke-width:1.5;"/>
    </g>
    <g id="line2d_52"/>
    <g id="text_10">
     <!-- NOx (lbs) -->
     <defs>
      <path d="M 9.8125 72.90625 
L 23.09375 72.90625 
L 55.421875 11.921875 
L 55.421875 72.90625 
L 64.984375 72.90625 
L 64.984375 0 
L 51.703125 0 
L 19.390625 60.984375 
L 19.390625 0 
L 9.8125 0 
z
" id="DejaVuSans-4e"/>
      <path d="M 54.890625 54.6875 
L 35.109375 28.078125 
L 55.90625 0 
L 45.3125 0 
L 29.390625 21.484375 
L 13.484375 0 
L 2.875 0 
L 24.125 28.609375 
L 4.6875 54.6875 
L 15.28125 54.6875 
L 29.78125 35.203125 
L 44.28125 54.6875 
z
" id="DejaVuSans-78"/>
     </defs>
     <g transform="translate(389.560912 140.742971)scale(0.1 -0.1)">
      <use xlink:href="#DejaVuSans-4e"/>
      <use x="74.804688" xlink:href="#DejaVuSans-4f"/>
      <use x="153.515625" xlink:href="#DejaVuSans-78"/>
      <use x="212.695312" xlink:href="#DejaVuSans-20"/>
      <use x="244.482422" xlink:href="#DejaVuSans-28"/>
      <use x="283.496094" xlink:href="#DejaVuSans-6c"/>
      <use x="311.279297" xlink:href="#DejaVuSans-62"/>
      <use x="374.755859" xlink:href="#DejaVuSans-73"/>
      <use x="426.855469" xlink:href="#DejaVuSans-29"/>
     </g>
    </g>
   </g>
  </g>
  <g id="axes_3">
   <g id="patch_14">
    <path d="M 33.83125 309.8635 
L 445.149974 309.8635 
L 445.149974 224.924017 
L 33.83125 224.924017 
z
" style="fill:none;"/>
   </g>
   <g id="matplotlib.axis_5">
    <g id="xtick_17">
     <g id="line2d_53">
      <path clip-path="url(#pbe2dfc78f5)" d="M 73.29542 309.8635 
L 73.29542 224.924017 
" style="fill:none;stroke:#b0b0b0;stroke-linecap:square;stroke-width:0.8;"/>
     </g>
     <g id="line2d_54">
      <g>
       <use style="stroke:#000000;stroke-width:0.8;" x="73.29542" xlink:href="#m0cb2fd2eab" y="309.8635"/>
      </g>
     </g>
     <g id="text_11">
      <!-- 2004 -->
      <g transform="translate(60.57042 324.461937)scale(0.1 -0.1)">
       <use xlink:href="#DejaVuSans-32"/>
       <use x="63.623047" xlink:href="#DejaVuSans-30"/>
       <use x="127.246094" xlink:href="#DejaVuSans-30"/>
       <use x="190.869141" xlink:href="#DejaVuSans-34"/>
      </g>
     </g>
    </g>
    <g id="xtick_18">
     <g id="line2d_55">
      <path clip-path="url(#pbe2dfc78f5)" d="M 125.842429 309.8635 
L 125.842429 224.924017 
" style="fill:none;stroke:#b0b0b0;stroke-linecap:square;stroke-width:0.8;"/>
     </g>
     <g id="line2d_56">
      <g>
       <use style="stroke:#000000;stroke-width:0.8;" x="125.842429" xlink:href="#m0cb2fd2eab" y="309.8635"/>
      </g>
     </g>
     <g id="text_12">
      <!-- 2006 -->
      <defs>
       <path d="M 33.015625 40.375 
Q 26.375 40.375 22.484375 35.828125 
Q 18.609375 31.296875 18.609375 23.390625 
Q 18.609375 15.53125 22.484375 10.953125 
Q 26.375 6.390625 33.015625 6.390625 
Q 39.65625 6.390625 43.53125 10.953125 
Q 47.40625 15.53125 47.40625 23.390625 
Q 47.40625 31.296875 43.53125 35.828125 
Q 39.65625 40.375 33.015625 40.375 
z
M 52.59375 71.296875 
L 52.59375 62.3125 
Q 48.875 64.0625 45.09375 64.984375 
Q 41.3125 65.921875 37.59375 65.921875 
Q 27.828125 65.921875 22.671875 59.328125 
Q 17.53125 52.734375 16.796875 39.40625 
Q 19.671875 43.65625 24.015625 45.921875 
Q 28.375 48.1875 33.59375 48.1875 
Q 44.578125 48.1875 50.953125 41.515625 
Q 57.328125 34.859375 57.328125 23.390625 
Q 57.328125 12.15625 50.6875 5.359375 
Q 44.046875 -1.421875 33.015625 -1.421875 
Q 20.359375 -1.421875 13.671875 8.265625 
Q 6.984375 17.96875 6.984375 36.375 
Q 6.984375 53.65625 15.1875 63.9375 
Q 23.390625 74.21875 37.203125 74.21875 
Q 40.921875 74.21875 44.703125 73.484375 
Q 48.484375 72.75 52.59375 71.296875 
z
" id="DejaVuSans-36"/>
      </defs>
      <g transform="translate(113.117429 324.461937)scale(0.1 -0.1)">
       <use xlink:href="#DejaVuSans-32"/>
       <use x="63.623047" xlink:href="#DejaVuSans-30"/>
       <use x="127.246094" xlink:href="#DejaVuSans-30"/>
       <use x="190.869141" xlink:href="#DejaVuSans-36"/>
      </g>
     </g>
    </g>
    <g id="xtick_19">
     <g id="line2d_57">
      <path clip-path="url(#pbe2dfc78f5)" d="M 178.317555 309.8635 
L 178.317555 224.924017 
" style="fill:none;stroke:#b0b0b0;stroke-linecap:square;stroke-width:0.8;"/>
     </g>
     <g id="line2d_58">
      <g>
       <use style="stroke:#000000;stroke-width:0.8;" x="178.317555" xlink:href="#m0cb2fd2eab" y="309.8635"/>
      </g>
     </g>
     <g id="text_13">
      <!-- 2008 -->
      <defs>
       <path d="M 31.78125 34.625 
Q 24.75 34.625 20.71875 30.859375 
Q 16.703125 27.09375 16.703125 20.515625 
Q 16.703125 13.921875 20.71875 10.15625 
Q 24.75 6.390625 31.78125 6.390625 
Q 38.8125 6.390625 42.859375 10.171875 
Q 46.921875 13.96875 46.921875 20.515625 
Q 46.921875 27.09375 42.890625 30.859375 
Q 38.875 34.625 31.78125 34.625 
z
M 21.921875 38.8125 
Q 15.578125 40.375 12.03125 44.71875 
Q 8.5 49.078125 8.5 55.328125 
Q 8.5 64.0625 14.71875 69.140625 
Q 20.953125 74.21875 31.78125 74.21875 
Q 42.671875 74.21875 48.875 69.140625 
Q 55.078125 64.0625 55.078125 55.328125 
Q 55.078125 49.078125 51.53125 44.71875 
Q 48 40.375 41.703125 38.8125 
Q 48.828125 37.15625 52.796875 32.3125 
Q 56.78125 27.484375 56.78125 20.515625 
Q 56.78125 9.90625 50.3125 4.234375 
Q 43.84375 -1.421875 31.78125 -1.421875 
Q 19.734375 -1.421875 13.25 4.234375 
Q 6.78125 9.90625 6.78125 20.515625 
Q 6.78125 27.484375 10.78125 32.3125 
Q 14.796875 37.15625 21.921875 38.8125 
z
M 18.3125 54.390625 
Q 18.3125 48.734375 21.84375 45.5625 
Q 25.390625 42.390625 31.78125 42.390625 
Q 38.140625 42.390625 41.71875 45.5625 
Q 45.3125 48.734375 45.3125 54.390625 
Q 45.3125 60.0625 41.71875 63.234375 
Q 38.140625 66.40625 31.78125 66.40625 
Q 25.390625 66.40625 21.84375 63.234375 
Q 18.3125 60.0625 18.3125 54.390625 
z
" id="DejaVuSans-38"/>
      </defs>
      <g transform="translate(165.592555 324.461937)scale(0.1 -0.1)">
       <use xlink:href="#DejaVuSans-32"/>
       <use x="63.623047" xlink:href="#DejaVuSans-30"/>
       <use x="127.246094" xlink:href="#DejaVuSans-30"/>
       <use x="190.869141" xlink:href="#DejaVuSans-38"/>
      </g>
     </g>
    </g>
    <g id="xtick_20">
     <g id="line2d_59">
      <path clip-path="url(#pbe2dfc78f5)" d="M 230.864564 309.8635 
L 230.864564 224.924017 
" style="fill:none;stroke:#b0b0b0;stroke-linecap:square;stroke-width:0.8;"/>
     </g>
     <g id="line2d_60">
      <g>
       <use style="stroke:#000000;stroke-width:0.8;" x="230.864564" xlink:href="#m0cb2fd2eab" y="309.8635"/>
      </g>
     </g>
     <g id="text_14">
      <!-- 2010 -->
      <defs>
       <path d="M 12.40625 8.296875 
L 28.515625 8.296875 
L 28.515625 63.921875 
L 10.984375 60.40625 
L 10.984375 69.390625 
L 28.421875 72.90625 
L 38.28125 72.90625 
L 38.28125 8.296875 
L 54.390625 8.296875 
L 54.390625 0 
L 12.40625 0 
z
" id="DejaVuSans-31"/>
      </defs>
      <g transform="translate(218.139564 324.461937)scale(0.1 -0.1)">
       <use xlink:href="#DejaVuSans-32"/>
       <use x="63.623047" xlink:href="#DejaVuSans-30"/>
       <use x="127.246094" xlink:href="#DejaVuSans-31"/>
       <use x="190.869141" xlink:href="#DejaVuSans-30"/>
      </g>
     </g>
    </g>
    <g id="xtick_21">
     <g id="line2d_61">
      <path clip-path="url(#pbe2dfc78f5)" d="M 283.33969 309.8635 
L 283.33969 224.924017 
" style="fill:none;stroke:#b0b0b0;stroke-linecap:square;stroke-width:0.8;"/>
     </g>
     <g id="line2d_62">
      <g>
       <use style="stroke:#000000;stroke-width:0.8;" x="283.33969" xlink:href="#m0cb2fd2eab" y="309.8635"/>
      </g>
     </g>
     <g id="text_15">
      <!-- 2012 -->
      <g transform="translate(270.61469 324.461937)scale(0.1 -0.1)">
       <use xlink:href="#DejaVuSans-32"/>
       <use x="63.623047" xlink:href="#DejaVuSans-30"/>
       <use x="127.246094" xlink:href="#DejaVuSans-31"/>
       <use x="190.869141" xlink:href="#DejaVuSans-32"/>
      </g>
     </g>
    </g>
    <g id="xtick_22">
     <g id="line2d_63">
      <path clip-path="url(#pbe2dfc78f5)" d="M 335.886699 309.8635 
L 335.886699 224.924017 
" style="fill:none;stroke:#b0b0b0;stroke-linecap:square;stroke-width:0.8;"/>
     </g>
     <g id="line2d_64">
      <g>
       <use style="stroke:#000000;stroke-width:0.8;" x="335.886699" xlink:href="#m0cb2fd2eab" y="309.8635"/>
      </g>
     </g>
     <g id="text_16">
      <!-- 2014 -->
      <g transform="translate(323.161699 324.461937)scale(0.1 -0.1)">
       <use xlink:href="#DejaVuSans-32"/>
       <use x="63.623047" xlink:href="#DejaVuSans-30"/>
       <use x="127.246094" xlink:href="#DejaVuSans-31"/>
       <use x="190.869141" xlink:href="#DejaVuSans-34"/>
      </g>
     </g>
    </g>
    <g id="xtick_23">
     <g id="line2d_65">
      <path clip-path="url(#pbe2dfc78f5)" d="M 388.361824 309.8635 
L 388.361824 224.924017 
" style="fill:none;stroke:#b0b0b0;stroke-linecap:square;stroke-width:0.8;"/>
     </g>
     <g id="line2d_66">
      <g>
       <use style="stroke:#000000;stroke-width:0.8;" x="388.361824" xlink:href="#m0cb2fd2eab" y="309.8635"/>
      </g>
     </g>
     <g id="text_17">
      <!-- 2016 -->
      <g transform="translate(375.636824 324.461937)scale(0.1 -0.1)">
       <use xlink:href="#DejaVuSans-32"/>
       <use x="63.623047" xlink:href="#DejaVuSans-30"/>
       <use x="127.246094" xlink:href="#DejaVuSans-31"/>
       <use x="190.869141" xlink:href="#DejaVuSans-36"/>
      </g>
     </g>
    </g>
    <g id="xtick_24">
     <g id="line2d_67">
      <path clip-path="url(#pbe2dfc78f5)" d="M 440.908834 309.8635 
L 440.908834 224.924017 
" style="fill:none;stroke:#b0b0b0;stroke-linecap:square;stroke-width:0.8;"/>
     </g>
     <g id="line2d_68">
      <g>
       <use style="stroke:#000000;stroke-width:0.8;" x="440.908834" xlink:href="#m0cb2fd2eab" y="309.8635"/>
      </g>
     </g>
     <g id="text_18">
      <!-- 2018 -->
      <g transform="translate(428.183834 324.461937)scale(0.1 -0.1)">
       <use xlink:href="#DejaVuSans-32"/>
       <use x="63.623047" xlink:href="#DejaVuSans-30"/>
       <use x="127.246094" xlink:href="#DejaVuSans-31"/>
       <use x="190.869141" xlink:href="#DejaVuSans-38"/>
      </g>
     </g>
    </g>
    <g id="text_19">
     <!-- Date -->
     <defs>
      <path d="M 19.671875 64.796875 
L 19.671875 8.109375 
L 31.59375 8.109375 
Q 46.6875 8.109375 53.6875 14.9375 
Q 60.6875 21.78125 60.6875 36.53125 
Q 60.6875 51.171875 53.6875 57.984375 
Q 46.6875 64.796875 31.59375 64.796875 
z
M 9.8125 72.90625 
L 30.078125 72.90625 
Q 51.265625 72.90625 61.171875 64.09375 
Q 71.09375 55.28125 71.09375 36.53125 
Q 71.09375 17.671875 61.125 8.828125 
Q 51.171875 0 30.078125 0 
L 9.8125 0 
z
" id="DejaVuSans-44"/>
      <path d="M 18.3125 70.21875 
L 18.3125 54.6875 
L 36.8125 54.6875 
L 36.8125 47.703125 
L 18.3125 47.703125 
L 18.3125 18.015625 
Q 18.3125 11.328125 20.140625 9.421875 
Q 21.96875 7.515625 27.59375 7.515625 
L 36.8125 7.515625 
L 36.8125 0 
L 27.59375 0 
Q 17.1875 0 13.234375 3.875 
Q 9.28125 7.765625 9.28125 18.015625 
L 9.28125 47.703125 
L 2.6875 47.703125 
L 2.6875 54.6875 
L 9.28125 54.6875 
L 9.28125 70.21875 
z
" id="DejaVuSans-74"/>
     </defs>
     <g transform="translate(227.539831 338.140062)scale(0.1 -0.1)">
      <use xlink:href="#DejaVuSans-44"/>
      <use x="77.001953" xlink:href="#DejaVuSans-61"/>
      <use x="138.28125" xlink:href="#DejaVuSans-74"/>
      <use x="177.490234" xlink:href="#DejaVuSans-65"/>
     </g>
    </g>
   </g>
   <g id="matplotlib.axis_6">
    <g id="ytick_8">
     <g id="line2d_69">
      <path clip-path="url(#pbe2dfc78f5)" d="M 33.83125 306.002614 
L 445.149974 306.002614 
" style="fill:none;stroke:#b0b0b0;stroke-linecap:square;stroke-width:0.8;"/>
     </g>
     <g id="line2d_70">
      <g>
       <use style="stroke:#000000;stroke-width:0.8;" x="33.83125" xlink:href="#mb317b46173" y="306.002614"/>
      </g>
     </g>
     <g id="text_20">
      <!-- 0 -->
      <g transform="translate(20.46875 309.801833)scale(0.1 -0.1)">
       <use xlink:href="#DejaVuSans-30"/>
      </g>
     </g>
    </g>
    <g id="ytick_9">
     <g id="line2d_71">
      <path clip-path="url(#pbe2dfc78f5)" d="M 33.83125 274.613301 
L 445.149974 274.613301 
" style="fill:none;stroke:#b0b0b0;stroke-linecap:square;stroke-width:0.8;"/>
     </g>
     <g id="line2d_72">
      <g>
       <use style="stroke:#000000;stroke-width:0.8;" x="33.83125" xlink:href="#mb317b46173" y="274.613301"/>
      </g>
     </g>
     <g id="text_21">
      <!-- 2 -->
      <g transform="translate(20.46875 278.412519)scale(0.1 -0.1)">
       <use xlink:href="#DejaVuSans-32"/>
      </g>
     </g>
    </g>
    <g id="ytick_10">
     <g id="line2d_73">
      <path clip-path="url(#pbe2dfc78f5)" d="M 33.83125 243.223987 
L 445.149974 243.223987 
" style="fill:none;stroke:#b0b0b0;stroke-linecap:square;stroke-width:0.8;"/>
     </g>
     <g id="line2d_74">
      <g>
       <use style="stroke:#000000;stroke-width:0.8;" x="33.83125" xlink:href="#mb317b46173" y="243.223987"/>
      </g>
     </g>
     <g id="text_22">
      <!-- 4 -->
      <g transform="translate(20.46875 247.023205)scale(0.1 -0.1)">
       <use xlink:href="#DejaVuSans-34"/>
      </g>
     </g>
    </g>
   </g>
   <g id="line2d_75">
    <path clip-path="url(#pbe2dfc78f5)" d="M 33.83125 291.877423 
L 36.059646 256.721392 
L 38.288041 283.402308 
L 40.444553 291.09269 
L 42.672949 264.411774 
L 44.829461 291.56353 
L 47.057857 306.002614 
L 51.298997 306.002614 
L 53.527393 305.217882 
L 55.683905 292.505209 
L 57.912301 294.702461 
L 60.068813 281.832843 
L 62.297209 296.899713 
L 64.525604 287.01208 
L 66.682116 298.626126 
L 68.910512 306.002614 
L 71.067024 299.724752 
L 73.29542 306.002614 
L 75.523816 306.002614 
L 77.608444 305.688721 
L 79.83684 296.58582 
L 81.993352 295.801087 
L 84.221747 295.330248 
L 86.378259 294.702461 
L 88.606655 305.217882 
L 90.835051 289.052385 
L 92.991563 304.747042 
L 95.219959 304.590095 
L 97.376471 303.177576 
L 99.604866 299.724752 
L 101.833262 306.002614 
L 103.846007 305.374828 
L 106.074402 301.922004 
L 108.230914 304.903988 
L 110.45931 302.863683 
L 112.615822 275.241087 
L 114.844218 300.666431 
L 117.072614 302.706736 
L 119.229126 306.002614 
L 121.457521 306.002614 
L 123.614033 302.54979 
L 125.842429 306.002614 
L 128.070825 306.002614 
L 130.083569 305.217882 
L 132.311965 306.002614 
L 134.468477 270.689636 
L 136.696873 284.343988 
L 138.853385 228.784902 
L 141.081781 303.491469 
L 143.310176 297.213607 
L 145.466688 306.002614 
L 147.695084 304.433149 
L 149.851596 300.666431 
L 152.079992 289.837118 
L 154.308388 306.002614 
L 156.321132 305.688721 
L 158.549528 301.922004 
L 160.70604 287.796812 
L 162.934436 286.698186 
L 165.090948 275.55498 
L 167.319343 248.874063 
L 169.547739 301.60811 
L 171.704251 304.433149 
L 173.932647 299.096965 
L 176.089159 300.352538 
L 178.317555 305.531775 
L 180.54595 306.002614 
L 182.630579 305.374828 
L 184.858974 306.002614 
L 187.015486 288.424599 
L 189.243882 284.500934 
L 191.400394 288.110705 
L 193.62879 290.151011 
L 195.857186 286.698186 
L 198.013698 300.195591 
L 200.242093 302.706736 
L 202.398605 306.002614 
L 204.627001 304.276202 
L 206.855397 304.747042 
L 208.868141 305.688721 
L 211.096537 306.002614 
L 213.253049 291.406583 
L 215.481445 302.54979 
L 217.637957 280.891163 
L 219.866353 279.164751 
L 222.094748 248.08933 
L 224.25126 290.151011 
L 226.479656 304.590095 
L 228.636168 274.142461 
L 230.864564 306.002614 
L 233.09296 303.02063 
L 235.105704 304.747042 
L 237.3341 304.903988 
L 239.490612 296.114981 
L 241.719008 293.917729 
L 243.87552 292.505209 
L 246.103916 301.137271 
L 248.332311 295.487194 
L 250.488823 303.177576 
L 252.717219 298.312232 
L 254.873731 303.334523 
L 259.330523 296.428874 
L 261.343267 301.137271 
L 263.571663 293.603835 
L 265.728175 291.877423 
L 267.956571 295.958034 
L 270.113083 282.774522 
L 272.341478 291.56353 
L 274.569874 295.958034 
L 276.726386 286.0704 
L 278.954782 264.411774 
L 281.111294 281.675896 
L 283.33969 295.330248 
L 285.568085 304.747042 
L 287.652714 304.903988 
L 289.881109 301.922004 
L 292.037621 294.859408 
L 294.266017 294.231622 
L 296.422529 276.496659 
L 300.879321 303.491469 
L 303.035833 291.249637 
L 305.264228 269.277117 
L 307.42074 288.738492 
L 309.649136 295.644141 
L 311.877532 306.002614 
L 313.890276 303.491469 
L 316.118672 288.110705 
L 318.275184 292.819103 
L 320.50358 301.451164 
L 322.660092 290.307957 
L 324.888488 294.702461 
L 327.116883 304.747042 
L 329.273395 300.823378 
L 331.501791 303.491469 
L 333.658303 296.271927 
L 335.886699 305.217882 
L 338.115095 275.08414 
L 340.127839 275.55498 
L 342.356235 296.114981 
L 344.512747 303.491469 
L 346.741143 302.235897 
L 348.897655 297.05666 
L 351.12605 294.388568 
L 355.510958 277.752232 
L 357.739354 284.187041 
L 359.895866 298.312232 
L 362.124262 300.509484 
L 364.352657 269.120171 
L 366.365402 262.528415 
L 368.593798 287.169026 
L 370.75031 300.038645 
L 372.978705 272.259102 
L 375.135217 291.406583 
L 377.363613 295.644141 
L 379.592009 275.868873 
L 381.748521 281.04811 
L 383.976917 292.819103 
L 386.133429 297.213607 
L 388.361824 300.509484 
L 390.59022 289.994064 
L 392.674848 280.734217 
L 394.903244 279.792537 
L 397.059756 283.245362 
L 399.288152 285.442614 
L 401.444664 270.06185 
L 403.67306 303.177576 
L 405.901455 295.330248 
L 408.057967 297.370553 
L 410.286363 297.05666 
L 412.442875 303.648416 
L 414.671271 300.666431 
L 416.899667 293.446889 
L 418.912411 291.249637 
L 421.140807 292.819103 
L 423.297319 286.227347 
L 425.525715 293.603835 
L 427.682227 298.940019 
L 429.910623 296.428874 
L 432.139018 294.859408 
L 434.29553 292.505209 
L 436.523926 298.940019 
L 438.680438 304.119256 
L 440.908834 301.451164 
L 443.13723 295.644141 
L 445.149974 297.213607 
L 445.149974 297.213607 
" style="fill:none;stroke:#4682b4;stroke-linecap:square;stroke-width:1.5;"/>
   </g>
   <g id="patch_15">
    <path d="M 33.83125 309.8635 
L 33.83125 224.924017 
" style="fill:none;stroke:#000000;stroke-linecap:square;stroke-linejoin:miter;stroke-width:0.8;"/>
   </g>
   <g id="patch_16">
    <path d="M 445.149974 309.8635 
L 445.149974 224.924017 
" style="fill:none;stroke:#000000;stroke-linecap:square;stroke-linejoin:miter;stroke-width:0.8;"/>
   </g>
   <g id="patch_17">
    <path d="M 33.83125 309.8635 
L 445.149974 309.8635 
" style="fill:none;stroke:#000000;stroke-linecap:square;stroke-linejoin:miter;stroke-width:0.8;"/>
   </g>
   <g id="patch_18">
    <path d="M 33.83125 224.924017 
L 445.149974 224.924017 
" style="fill:none;stroke:#000000;stroke-linecap:square;stroke-linejoin:miter;stroke-width:0.8;"/>
   </g>
   <g id="legend_3">
    <g id="patch_19">
     <path d="M 352.365599 247.602142 
L 438.149974 247.602142 
Q 440.149974 247.602142 440.149974 245.602142 
L 440.149974 231.924017 
Q 440.149974 229.924017 438.149974 229.924017 
L 352.365599 229.924017 
Q 350.365599 229.924017 350.365599 231.924017 
L 350.365599 245.602142 
Q 350.365599 247.602142 352.365599 247.602142 
z
" style="fill:#ffffff;opacity:0.8;stroke:#cccccc;stroke-linejoin:miter;"/>
    </g>
    <g id="line2d_76">
     <path d="M 354.365599 238.022454 
L 374.365599 238.022454 
" style="fill:none;stroke:#4682b4;stroke-linecap:square;stroke-width:1.5;"/>
    </g>
    <g id="line2d_77"/>
    <g id="text_23">
     <!-- CO2 (tons) -->
     <defs>
      <path d="M 64.40625 67.28125 
L 64.40625 56.890625 
Q 59.421875 61.53125 53.78125 63.8125 
Q 48.140625 66.109375 41.796875 66.109375 
Q 29.296875 66.109375 22.65625 58.46875 
Q 16.015625 50.828125 16.015625 36.375 
Q 16.015625 21.96875 22.65625 14.328125 
Q 29.296875 6.6875 41.796875 6.6875 
Q 48.140625 6.6875 53.78125 8.984375 
Q 59.421875 11.28125 64.40625 15.921875 
L 64.40625 5.609375 
Q 59.234375 2.09375 53.4375 0.328125 
Q 47.65625 -1.421875 41.21875 -1.421875 
Q 24.65625 -1.421875 15.125 8.703125 
Q 5.609375 18.84375 5.609375 36.375 
Q 5.609375 53.953125 15.125 64.078125 
Q 24.65625 74.21875 41.21875 74.21875 
Q 47.75 74.21875 53.53125 72.484375 
Q 59.328125 70.75 64.40625 67.28125 
z
" id="DejaVuSans-43"/>
     </defs>
     <g transform="translate(382.365599 241.522454)scale(0.1 -0.1)">
      <use xlink:href="#DejaVuSans-43"/>
      <use x="69.824219" xlink:href="#DejaVuSans-4f"/>
      <use x="148.535156" xlink:href="#DejaVuSans-32"/>
      <use x="212.158203" xlink:href="#DejaVuSans-20"/>
      <use x="243.945312" xlink:href="#DejaVuSans-28"/>
      <use x="282.958984" xlink:href="#DejaVuSans-74"/>
      <use x="322.167969" xlink:href="#DejaVuSans-6f"/>
      <use x="383.349609" xlink:href="#DejaVuSans-6e"/>
      <use x="446.728516" xlink:href="#DejaVuSans-73"/>
      <use x="498.828125" xlink:href="#DejaVuSans-29"/>
     </g>
    </g>
   </g>
  </g>
 </g>
 <defs>
  <clipPath id="p96790103c4">
   <rect height="84.939483" width="411.318724" x="33.83125" y="23.36505"/>
  </clipPath>
  <clipPath id="pb7f4a9f975">
   <rect height="84.939483" width="411.318724" x="33.83125" y="124.144533"/>
  </clipPath>
  <clipPath id="pbe2dfc78f5">
   <rect height="84.939483" width="411.318724" x="33.83125" y="224.924017"/>
  </clipPath>
 </defs>
</svg>
