<?xml version="1.0" encoding="utf-8" standalone="no"?>
<!DOCTYPE svg PUBLIC "-//W3C//DTD SVG 1.1//EN"
  "http://www.w3.org/Graphics/SVG/1.1/DTD/svg11.dtd">
<!-- Created with matplotlib (http://matplotlib.org/) -->
<svg height="345.6pt" version="1.1" viewBox="0 0 460.8 345.6" width="460.8pt" xmlns="http://www.w3.org/2000/svg" xmlns:xlink="http://www.w3.org/1999/xlink">
 <defs>
  <style type="text/css">
*{stroke-linecap:butt;stroke-linejoin:round;}
  </style>
 </defs>
 <g id="figure_1">
  <g id="patch_1">
   <path d="M 0 345.6 
L 460.8 345.6 
L 460.8 0 
L 0 0 
z
" style="fill:none;"/>
  </g>
  <g id="axes_1">
   <g id="patch_2">
    <path d="M 36.124 108.304533 
L 447.48 108.304533 
L 447.48 23.36505 
L 36.124 23.36505 
z
" style="fill:none;"/>
   </g>
   <g id="matplotlib.axis_1">
    <g id="xtick_1">
     <g id="line2d_1">
      <path clip-path="url(#pa631a4ae69)" d="M 36.124 108.304533 
L 36.124 23.36505 
" style="fill:none;stroke:#b0b0b0;stroke-linecap:square;stroke-width:0.8;"/>
     </g>
     <g id="line2d_2">
      <defs>
       <path d="M 0 0 
L 0 3.5 
" id="m93c6729a7f" style="stroke:#000000;stroke-width:0.8;"/>
      </defs>
      <g>
       <use style="stroke:#000000;stroke-width:0.8;" x="36.124" xlink:href="#m93c6729a7f" y="108.304533"/>
      </g>
     </g>
    </g>
    <g id="xtick_2">
     <g id="line2d_3">
      <path clip-path="url(#pa631a4ae69)" d="M 84.032405 108.304533 
L 84.032405 23.36505 
" style="fill:none;stroke:#b0b0b0;stroke-linecap:square;stroke-width:0.8;"/>
     </g>
     <g id="line2d_4">
      <g>
       <use style="stroke:#000000;stroke-width:0.8;" x="84.032405" xlink:href="#m93c6729a7f" y="108.304533"/>
      </g>
     </g>
    </g>
    <g id="xtick_3">
     <g id="line2d_5">
      <path clip-path="url(#pa631a4ae69)" d="M 132.006437 108.304533 
L 132.006437 23.36505 
" style="fill:none;stroke:#b0b0b0;stroke-linecap:square;stroke-width:0.8;"/>
     </g>
     <g id="line2d_6">
      <g>
       <use style="stroke:#000000;stroke-width:0.8;" x="132.006437" xlink:href="#m93c6729a7f" y="108.304533"/>
      </g>
     </g>
    </g>
    <g id="xtick_4">
     <g id="line2d_7">
      <path clip-path="url(#pa631a4ae69)" d="M 179.914842 108.304533 
L 179.914842 23.36505 
" style="fill:none;stroke:#b0b0b0;stroke-linecap:square;stroke-width:0.8;"/>
     </g>
     <g id="line2d_8">
      <g>
       <use style="stroke:#000000;stroke-width:0.8;" x="179.914842" xlink:href="#m93c6729a7f" y="108.304533"/>
      </g>
     </g>
    </g>
    <g id="xtick_5">
     <g id="line2d_9">
      <path clip-path="url(#pa631a4ae69)" d="M 227.888874 108.304533 
L 227.888874 23.36505 
" style="fill:none;stroke:#b0b0b0;stroke-linecap:square;stroke-width:0.8;"/>
     </g>
     <g id="line2d_10">
      <g>
       <use style="stroke:#000000;stroke-width:0.8;" x="227.888874" xlink:href="#m93c6729a7f" y="108.304533"/>
      </g>
     </g>
    </g>
    <g id="xtick_6">
     <g id="line2d_11">
      <path clip-path="url(#pa631a4ae69)" d="M 275.797279 108.304533 
L 275.797279 23.36505 
" style="fill:none;stroke:#b0b0b0;stroke-linecap:square;stroke-width:0.8;"/>
     </g>
     <g id="line2d_12">
      <g>
       <use style="stroke:#000000;stroke-width:0.8;" x="275.797279" xlink:href="#m93c6729a7f" y="108.304533"/>
      </g>
     </g>
    </g>
    <g id="xtick_7">
     <g id="line2d_13">
      <path clip-path="url(#pa631a4ae69)" d="M 323.771311 108.304533 
L 323.771311 23.36505 
" style="fill:none;stroke:#b0b0b0;stroke-linecap:square;stroke-width:0.8;"/>
     </g>
     <g id="line2d_14">
      <g>
       <use style="stroke:#000000;stroke-width:0.8;" x="323.771311" xlink:href="#m93c6729a7f" y="108.304533"/>
      </g>
     </g>
    </g>
    <g id="xtick_8">
     <g id="line2d_15">
      <path clip-path="url(#pa631a4ae69)" d="M 371.679716 108.304533 
L 371.679716 23.36505 
" style="fill:none;stroke:#b0b0b0;stroke-linecap:square;stroke-width:0.8;"/>
     </g>
     <g id="line2d_16">
      <g>
       <use style="stroke:#000000;stroke-width:0.8;" x="371.679716" xlink:href="#m93c6729a7f" y="108.304533"/>
      </g>
     </g>
    </g>
    <g id="xtick_9">
     <g id="line2d_17">
      <path clip-path="url(#pa631a4ae69)" d="M 419.653749 108.304533 
L 419.653749 23.36505 
" style="fill:none;stroke:#b0b0b0;stroke-linecap:square;stroke-width:0.8;"/>
     </g>
     <g id="line2d_18">
      <g>
       <use style="stroke:#000000;stroke-width:0.8;" x="419.653749" xlink:href="#m93c6729a7f" y="108.304533"/>
      </g>
     </g>
    </g>
   </g>
   <g id="matplotlib.axis_2">
    <g id="ytick_1">
     <g id="line2d_19">
      <path clip-path="url(#pa631a4ae69)" d="M 36.124 104.443648 
L 447.48 104.443648 
" style="fill:none;stroke:#b0b0b0;stroke-linecap:square;stroke-width:0.8;"/>
     </g>
     <g id="line2d_20">
      <defs>
       <path d="M 0 0 
L -3.5 0 
" id="m984842c5f6" style="stroke:#000000;stroke-width:0.8;"/>
      </defs>
      <g>
       <use style="stroke:#000000;stroke-width:0.8;" x="36.124" xlink:href="#m984842c5f6" y="104.443648"/>
      </g>
     </g>
     <g id="text_1">
      <!-- 0 -->
      <defs>
       <path d="M 31.78125 66.40625 
Q 24.171875 66.40625 20.328125 58.90625 
Q 16.5 51.421875 16.5 36.375 
Q 16.5 21.390625 20.328125 13.890625 
Q 24.171875 6.390625 31.78125 6.390625 
Q 39.453125 6.390625 43.28125 13.890625 
Q 47.125 21.390625 47.125 36.375 
Q 47.125 51.421875 43.28125 58.90625 
Q 39.453125 66.40625 31.78125 66.40625 
z
M 31.78125 74.21875 
Q 44.046875 74.21875 50.515625 64.515625 
Q 56.984375 54.828125 56.984375 36.375 
Q 56.984375 17.96875 50.515625 8.265625 
Q 44.046875 -1.421875 31.78125 -1.421875 
Q 19.53125 -1.421875 13.0625 8.265625 
Q 6.59375 17.96875 6.59375 36.375 
Q 6.59375 54.828125 13.0625 64.515625 
Q 19.53125 74.21875 31.78125 74.21875 
z
" id="DejaVuSans-30"/>
      </defs>
      <g transform="translate(22.7615 108.242866)scale(0.1 -0.1)">
       <use xlink:href="#DejaVuSans-30"/>
      </g>
     </g>
    </g>
    <g id="ytick_2">
     <g id="line2d_21">
      <path clip-path="url(#pa631a4ae69)" d="M 36.124 74.954355 
L 447.48 74.954355 
" style="fill:none;stroke:#b0b0b0;stroke-linecap:square;stroke-width:0.8;"/>
     </g>
     <g id="line2d_22">
      <g>
       <use style="stroke:#000000;stroke-width:0.8;" x="36.124" xlink:href="#m984842c5f6" y="74.954355"/>
      </g>
     </g>
     <g id="text_2">
      <!-- 100 -->
      <defs>
       <path d="M 12.40625 8.296875 
L 28.515625 8.296875 
L 28.515625 63.921875 
L 10.984375 60.40625 
L 10.984375 69.390625 
L 28.421875 72.90625 
L 38.28125 72.90625 
L 38.28125 8.296875 
L 54.390625 8.296875 
L 54.390625 0 
L 12.40625 0 
z
" id="DejaVuSans-31"/>
      </defs>
      <g transform="translate(10.0365 78.753574)scale(0.1 -0.1)">
       <use xlink:href="#DejaVuSans-31"/>
       <use x="63.623047" xlink:href="#DejaVuSans-30"/>
       <use x="127.246094" xlink:href="#DejaVuSans-30"/>
      </g>
     </g>
    </g>
    <g id="ytick_3">
     <g id="line2d_23">
      <path clip-path="url(#pa631a4ae69)" d="M 36.124 45.465063 
L 447.48 45.465063 
" style="fill:none;stroke:#b0b0b0;stroke-linecap:square;stroke-width:0.8;"/>
     </g>
     <g id="line2d_24">
      <g>
       <use style="stroke:#000000;stroke-width:0.8;" x="36.124" xlink:href="#m984842c5f6" y="45.465063"/>
      </g>
     </g>
     <g id="text_3">
      <!-- 200 -->
      <defs>
       <path d="M 19.1875 8.296875 
L 53.609375 8.296875 
L 53.609375 0 
L 7.328125 0 
L 7.328125 8.296875 
Q 12.9375 14.109375 22.625 23.890625 
Q 32.328125 33.6875 34.8125 36.53125 
Q 39.546875 41.84375 41.421875 45.53125 
Q 43.3125 49.21875 43.3125 52.78125 
Q 43.3125 58.59375 39.234375 62.25 
Q 35.15625 65.921875 28.609375 65.921875 
Q 23.96875 65.921875 18.8125 64.3125 
Q 13.671875 62.703125 7.8125 59.421875 
L 7.8125 69.390625 
Q 13.765625 71.78125 18.9375 73 
Q 24.125 74.21875 28.421875 74.21875 
Q 39.75 74.21875 46.484375 68.546875 
Q 53.21875 62.890625 53.21875 53.421875 
Q 53.21875 48.921875 51.53125 44.890625 
Q 49.859375 40.875 45.40625 35.40625 
Q 44.1875 33.984375 37.640625 27.21875 
Q 31.109375 20.453125 19.1875 8.296875 
z
" id="DejaVuSans-32"/>
      </defs>
      <g transform="translate(10.0365 49.264282)scale(0.1 -0.1)">
       <use xlink:href="#DejaVuSans-32"/>
       <use x="63.623047" xlink:href="#DejaVuSans-30"/>
       <use x="127.246094" xlink:href="#DejaVuSans-30"/>
      </g>
     </g>
    </g>
   </g>
   <g id="line2d_25">
    <path clip-path="url(#pa631a4ae69)" d="M 36.124 40.649462 
L 38.158466 28.623728 
L 39.996049 47.694453 
L 42.030516 41.787748 
L 43.999354 39.183844 
L 46.033821 46.414618 
L 48.002659 39.301801 
L 50.037126 31.050697 
L 52.071592 35.028802 
L 54.040431 53.329857 
L 58.043736 35.078934 
L 60.078202 29.186974 
L 62.112669 45.55648 
L 63.950251 29.927155 
L 65.984718 31.156858 
L 67.953556 40.962048 
L 69.988023 52.993679 
L 71.956862 35.471142 
L 73.991328 34.111685 
L 76.025795 39.174997 
L 77.994633 71.27999 
L 80.0291 79.98228 
L 81.997938 38.815228 
L 84.032405 38.101587 
L 86.066871 30.915046 
L 87.904454 39.593745 
L 89.93892 38.128127 
L 91.907759 45.291076 
L 93.942225 42.914239 
L 95.911064 30.670285 
L 97.94553 30.82068 
L 99.979997 31.324947 
L 101.948835 42.987962 
L 103.983302 32.127056 
L 105.95214 44.043679 
L 107.986607 32.085771 
L 110.021073 42.056101 
L 111.924284 45.358901 
L 113.95875 32.519264 
L 115.927589 34.232591 
L 117.962056 35.114321 
L 119.930894 33.863975 
L 121.965361 31.817418 
L 123.999827 39.101274 
L 125.968666 35.636282 
L 128.003132 38.228391 
L 129.971971 37.977732 
L 132.006437 27.225936 
L 134.040904 36.344025 
L 135.878486 38.44956 
L 137.912953 30.98582 
L 139.881791 43.141307 
L 141.916258 33.790252 
L 143.885096 35.075985 
L 145.919563 34.008473 
L 147.954029 50.734799 
L 149.922868 104.443648 
L 151.957334 65.320204 
L 153.926173 45.482757 
L 155.960639 47.399561 
L 157.995106 46.393976 
L 159.832689 38.296216 
L 161.867155 36.358769 
L 163.835994 37.152031 
L 165.87046 36.105162 
L 167.839299 36.1376 
L 169.873765 38.791636 
L 171.908232 38.381735 
L 173.87707 34.288621 
L 175.911537 41.637353 
L 177.880375 60.719874 
L 179.914842 39.885689 
L 181.949308 46.570911 
L 183.786891 40.90012 
L 185.821357 53.164717 
L 187.790196 41.537089 
L 189.824662 44.117402 
L 191.793501 39.431554 
L 193.827967 42.297913 
L 195.862434 41.569527 
L 197.831272 42.044305 
L 199.865739 36.650713 
L 201.834578 36.181834 
L 203.869044 39.8562 
L 205.903511 39.174997 
L 207.806721 40.469577 
L 209.841188 34.506842 
L 211.810026 44.488967 
L 213.844493 41.215656 
L 215.813331 34.778143 
L 217.847798 37.426282 
L 219.882264 45.291076 
L 221.851103 104.358129 
L 223.885569 46.977864 
L 225.854408 42.849363 
L 227.888874 33.542542 
L 229.923341 31.030054 
L 231.760923 32.83185 
L 233.79539 30.345903 
L 237.798695 35.226381 
L 239.767534 34.37414 
L 241.802 30.410779 
L 243.836466 29.181076 
L 245.805305 29.629313 
L 247.839772 35.615639 
L 249.80861 40.935508 
L 251.843077 41.09475 
L 253.877543 40.935508 
L 255.715126 49.139429 
L 257.749592 63.795607 
L 259.718431 43.999445 
L 261.752897 60.587172 
L 263.721736 39.944667 
L 265.756202 40.59933 
L 267.790669 44.061373 
L 269.759507 40.56984 
L 271.793974 39.186793 
L 273.762812 39.375524 
L 275.797279 40.280845 
L 277.831745 42.805129 
L 279.669328 42.256628 
L 281.703795 42.616397 
L 283.672633 45.594816 
L 285.7071 48.06307 
L 287.675938 44.683597 
L 289.710405 42.094437 
L 291.744871 47.367122 
L 293.71371 43.244519 
L 295.748176 43.813663 
L 297.717015 44.925409 
L 299.751481 39.90928 
L 301.785948 33.949494 
L 303.689158 99.899348 
L 305.723625 50.18335 
L 309.72693 41.778901 
L 311.695768 36.904321 
L 313.730235 36.745079 
L 315.764701 39.865046 
L 317.73354 40.089165 
L 319.768006 37.48526 
L 321.736845 43.226826 
L 323.771311 44.191126 
L 325.805778 39.201537 
L 327.643361 45.120038 
L 329.677827 44.777962 
L 331.646666 42.749099 
L 333.681132 45.400187 
L 335.649971 45.140681 
L 337.684437 43.701603 
L 339.718904 42.527929 
L 341.687742 44.713086 
L 343.722209 42.238934 
L 345.691047 39.22218 
L 347.725514 38.499692 
L 349.75998 35.53012 
L 351.597563 55.712592 
L 353.632029 38.658934 
L 355.600868 35.014058 
L 357.635334 37.632707 
L 359.604173 35.636282 
L 361.638639 42.445359 
L 363.673106 45.55648 
L 365.641944 58.015706 
L 367.676411 48.520154 
L 369.64525 46.874651 
L 371.679716 47.51162 
L 373.714183 46.343844 
L 375.551765 45.695079 
L 377.586232 42.091488 
L 379.55507 44.282542 
L 381.589537 45.355953 
L 383.558375 40.814602 
L 385.592842 40.867682 
L 387.627308 43.551208 
L 389.596147 97.961901 
L 391.630613 95.865213 
L 393.599452 46.225887 
L 395.633918 50.298358 
L 397.668385 57.381686 
L 399.571595 48.989033 
L 401.606062 43.327089 
L 403.5749 44.297287 
L 405.609367 41.817237 
L 407.578205 41.351307 
L 409.612672 42.572163 
L 411.647138 39.095376 
L 413.615977 51.964503 
L 415.650444 42.371636 
L 417.619282 42.14162 
L 419.653749 43.40671 
L 421.688215 47.019149 
L 423.525798 70.486728 
L 425.560264 42.749099 
L 427.529103 46.511933 
L 429.563569 41.705178 
L 431.532408 41.03872 
L 433.566874 40.994486 
L 435.601341 39.348984 
L 437.570179 55.482576 
L 439.604646 40.112756 
L 441.573484 41.634404 
L 443.607951 43.506974 
L 445.642417 55.072674 
L 447.48 46.514882 
L 447.48 46.514882 
" style="fill:none;stroke:#008000;stroke-linecap:square;stroke-width:1.5;"/>
   </g>
   <g id="patch_3">
    <path d="M 36.124 108.304533 
L 36.124 23.36505 
" style="fill:none;stroke:#000000;stroke-linecap:square;stroke-linejoin:miter;stroke-width:0.8;"/>
   </g>
   <g id="patch_4">
    <path d="M 447.48 108.304533 
L 447.48 23.36505 
" style="fill:none;stroke:#000000;stroke-linecap:square;stroke-linejoin:miter;stroke-width:0.8;"/>
   </g>
   <g id="patch_5">
    <path d="M 36.124 108.304533 
L 447.48 108.304533 
" style="fill:none;stroke:#000000;stroke-linecap:square;stroke-linejoin:miter;stroke-width:0.8;"/>
   </g>
   <g id="patch_6">
    <path d="M 36.124 23.36505 
L 447.48 23.36505 
" style="fill:none;stroke:#000000;stroke-linecap:square;stroke-linejoin:miter;stroke-width:0.8;"/>
   </g>
   <g id="text_4">
    <!-- Mean hourly emissions -->
    <defs>
     <path d="M 9.8125 72.90625 
L 24.515625 72.90625 
L 43.109375 23.296875 
L 61.8125 72.90625 
L 76.515625 72.90625 
L 76.515625 0 
L 66.890625 0 
L 66.890625 64.015625 
L 48.09375 14.015625 
L 38.1875 14.015625 
L 19.390625 64.015625 
L 19.390625 0 
L 9.8125 0 
z
" id="DejaVuSans-4d"/>
     <path d="M 56.203125 29.59375 
L 56.203125 25.203125 
L 14.890625 25.203125 
Q 15.484375 15.921875 20.484375 11.0625 
Q 25.484375 6.203125 34.421875 6.203125 
Q 39.59375 6.203125 44.453125 7.46875 
Q 49.3125 8.734375 54.109375 11.28125 
L 54.109375 2.78125 
Q 49.265625 0.734375 44.1875 -0.34375 
Q 39.109375 -1.421875 33.890625 -1.421875 
Q 20.796875 -1.421875 13.15625 6.1875 
Q 5.515625 13.8125 5.515625 26.8125 
Q 5.515625 40.234375 12.765625 48.109375 
Q 20.015625 56 32.328125 56 
Q 43.359375 56 49.78125 48.890625 
Q 56.203125 41.796875 56.203125 29.59375 
z
M 47.21875 32.234375 
Q 47.125 39.59375 43.09375 43.984375 
Q 39.0625 48.390625 32.421875 48.390625 
Q 24.90625 48.390625 20.390625 44.140625 
Q 15.875 39.890625 15.1875 32.171875 
z
" id="DejaVuSans-65"/>
     <path d="M 34.28125 27.484375 
Q 23.390625 27.484375 19.1875 25 
Q 14.984375 22.515625 14.984375 16.5 
Q 14.984375 11.71875 18.140625 8.90625 
Q 21.296875 6.109375 26.703125 6.109375 
Q 34.1875 6.109375 38.703125 11.40625 
Q 43.21875 16.703125 43.21875 25.484375 
L 43.21875 27.484375 
z
M 52.203125 31.203125 
L 52.203125 0 
L 43.21875 0 
L 43.21875 8.296875 
Q 40.140625 3.328125 35.546875 0.953125 
Q 30.953125 -1.421875 24.3125 -1.421875 
Q 15.921875 -1.421875 10.953125 3.296875 
Q 6 8.015625 6 15.921875 
Q 6 25.140625 12.171875 29.828125 
Q 18.359375 34.515625 30.609375 34.515625 
L 43.21875 34.515625 
L 43.21875 35.40625 
Q 43.21875 41.609375 39.140625 45 
Q 35.0625 48.390625 27.6875 48.390625 
Q 23 48.390625 18.546875 47.265625 
Q 14.109375 46.140625 10.015625 43.890625 
L 10.015625 52.203125 
Q 14.9375 54.109375 19.578125 55.046875 
Q 24.21875 56 28.609375 56 
Q 40.484375 56 46.34375 49.84375 
Q 52.203125 43.703125 52.203125 31.203125 
z
" id="DejaVuSans-61"/>
     <path d="M 54.890625 33.015625 
L 54.890625 0 
L 45.90625 0 
L 45.90625 32.71875 
Q 45.90625 40.484375 42.875 44.328125 
Q 39.84375 48.1875 33.796875 48.1875 
Q 26.515625 48.1875 22.3125 43.546875 
Q 18.109375 38.921875 18.109375 30.90625 
L 18.109375 0 
L 9.078125 0 
L 9.078125 54.6875 
L 18.109375 54.6875 
L 18.109375 46.1875 
Q 21.34375 51.125 25.703125 53.5625 
Q 30.078125 56 35.796875 56 
Q 45.21875 56 50.046875 50.171875 
Q 54.890625 44.34375 54.890625 33.015625 
z
" id="DejaVuSans-6e"/>
     <path id="DejaVuSans-20"/>
     <path d="M 54.890625 33.015625 
L 54.890625 0 
L 45.90625 0 
L 45.90625 32.71875 
Q 45.90625 40.484375 42.875 44.328125 
Q 39.84375 48.1875 33.796875 48.1875 
Q 26.515625 48.1875 22.3125 43.546875 
Q 18.109375 38.921875 18.109375 30.90625 
L 18.109375 0 
L 9.078125 0 
L 9.078125 75.984375 
L 18.109375 75.984375 
L 18.109375 46.1875 
Q 21.34375 51.125 25.703125 53.5625 
Q 30.078125 56 35.796875 56 
Q 45.21875 56 50.046875 50.171875 
Q 54.890625 44.34375 54.890625 33.015625 
z
" id="DejaVuSans-68"/>
     <path d="M 30.609375 48.390625 
Q 23.390625 48.390625 19.1875 42.75 
Q 14.984375 37.109375 14.984375 27.296875 
Q 14.984375 17.484375 19.15625 11.84375 
Q 23.34375 6.203125 30.609375 6.203125 
Q 37.796875 6.203125 41.984375 11.859375 
Q 46.1875 17.53125 46.1875 27.296875 
Q 46.1875 37.015625 41.984375 42.703125 
Q 37.796875 48.390625 30.609375 48.390625 
z
M 30.609375 56 
Q 42.328125 56 49.015625 48.375 
Q 55.71875 40.765625 55.71875 27.296875 
Q 55.71875 13.875 49.015625 6.21875 
Q 42.328125 -1.421875 30.609375 -1.421875 
Q 18.84375 -1.421875 12.171875 6.21875 
Q 5.515625 13.875 5.515625 27.296875 
Q 5.515625 40.765625 12.171875 48.375 
Q 18.84375 56 30.609375 56 
z
" id="DejaVuSans-6f"/>
     <path d="M 8.5 21.578125 
L 8.5 54.6875 
L 17.484375 54.6875 
L 17.484375 21.921875 
Q 17.484375 14.15625 20.5 10.265625 
Q 23.53125 6.390625 29.59375 6.390625 
Q 36.859375 6.390625 41.078125 11.03125 
Q 45.3125 15.671875 45.3125 23.6875 
L 45.3125 54.6875 
L 54.296875 54.6875 
L 54.296875 0 
L 45.3125 0 
L 45.3125 8.40625 
Q 42.046875 3.421875 37.71875 1 
Q 33.40625 -1.421875 27.6875 -1.421875 
Q 18.265625 -1.421875 13.375 4.4375 
Q 8.5 10.296875 8.5 21.578125 
z
M 31.109375 56 
z
" id="DejaVuSans-75"/>
     <path d="M 41.109375 46.296875 
Q 39.59375 47.171875 37.8125 47.578125 
Q 36.03125 48 33.890625 48 
Q 26.265625 48 22.1875 43.046875 
Q 18.109375 38.09375 18.109375 28.8125 
L 18.109375 0 
L 9.078125 0 
L 9.078125 54.6875 
L 18.109375 54.6875 
L 18.109375 46.1875 
Q 20.953125 51.171875 25.484375 53.578125 
Q 30.03125 56 36.53125 56 
Q 37.453125 56 38.578125 55.875 
Q 39.703125 55.765625 41.0625 55.515625 
z
" id="DejaVuSans-72"/>
     <path d="M 9.421875 75.984375 
L 18.40625 75.984375 
L 18.40625 0 
L 9.421875 0 
z
" id="DejaVuSans-6c"/>
     <path d="M 32.171875 -5.078125 
Q 28.375 -14.84375 24.75 -17.8125 
Q 21.140625 -20.796875 15.09375 -20.796875 
L 7.90625 -20.796875 
L 7.90625 -13.28125 
L 13.1875 -13.28125 
Q 16.890625 -13.28125 18.9375 -11.515625 
Q 21 -9.765625 23.484375 -3.21875 
L 25.09375 0.875 
L 2.984375 54.6875 
L 12.5 54.6875 
L 29.59375 11.921875 
L 46.6875 54.6875 
L 56.203125 54.6875 
z
" id="DejaVuSans-79"/>
     <path d="M 52 44.1875 
Q 55.375 50.25 60.0625 53.125 
Q 64.75 56 71.09375 56 
Q 79.640625 56 84.28125 50.015625 
Q 88.921875 44.046875 88.921875 33.015625 
L 88.921875 0 
L 79.890625 0 
L 79.890625 32.71875 
Q 79.890625 40.578125 77.09375 44.375 
Q 74.3125 48.1875 68.609375 48.1875 
Q 61.625 48.1875 57.5625 43.546875 
Q 53.515625 38.921875 53.515625 30.90625 
L 53.515625 0 
L 44.484375 0 
L 44.484375 32.71875 
Q 44.484375 40.625 41.703125 44.40625 
Q 38.921875 48.1875 33.109375 48.1875 
Q 26.21875 48.1875 22.15625 43.53125 
Q 18.109375 38.875 18.109375 30.90625 
L 18.109375 0 
L 9.078125 0 
L 9.078125 54.6875 
L 18.109375 54.6875 
L 18.109375 46.1875 
Q 21.1875 51.21875 25.484375 53.609375 
Q 29.78125 56 35.6875 56 
Q 41.65625 56 45.828125 52.96875 
Q 50 49.953125 52 44.1875 
z
" id="DejaVuSans-6d"/>
     <path d="M 9.421875 54.6875 
L 18.40625 54.6875 
L 18.40625 0 
L 9.421875 0 
z
M 9.421875 75.984375 
L 18.40625 75.984375 
L 18.40625 64.59375 
L 9.421875 64.59375 
z
" id="DejaVuSans-69"/>
     <path d="M 44.28125 53.078125 
L 44.28125 44.578125 
Q 40.484375 46.53125 36.375 47.5 
Q 32.28125 48.484375 27.875 48.484375 
Q 21.1875 48.484375 17.84375 46.4375 
Q 14.5 44.390625 14.5 40.28125 
Q 14.5 37.15625 16.890625 35.375 
Q 19.28125 33.59375 26.515625 31.984375 
L 29.59375 31.296875 
Q 39.15625 29.25 43.1875 25.515625 
Q 47.21875 21.78125 47.21875 15.09375 
Q 47.21875 7.46875 41.1875 3.015625 
Q 35.15625 -1.421875 24.609375 -1.421875 
Q 20.21875 -1.421875 15.453125 -0.5625 
Q 10.6875 0.296875 5.421875 2 
L 5.421875 11.28125 
Q 10.40625 8.6875 15.234375 7.390625 
Q 20.0625 6.109375 24.8125 6.109375 
Q 31.15625 6.109375 34.5625 8.28125 
Q 37.984375 10.453125 37.984375 14.40625 
Q 37.984375 18.0625 35.515625 20.015625 
Q 33.0625 21.96875 24.703125 23.78125 
L 21.578125 24.515625 
Q 13.234375 26.265625 9.515625 29.90625 
Q 5.8125 33.546875 5.8125 39.890625 
Q 5.8125 47.609375 11.28125 51.796875 
Q 16.75 56 26.8125 56 
Q 31.78125 56 36.171875 55.265625 
Q 40.578125 54.546875 44.28125 53.078125 
z
" id="DejaVuSans-73"/>
    </defs>
    <g transform="translate(172.958563 17.36505)scale(0.12 -0.12)">
     <use xlink:href="#DejaVuSans-4d"/>
     <use x="86.279297" xlink:href="#DejaVuSans-65"/>
     <use x="147.802734" xlink:href="#DejaVuSans-61"/>
     <use x="209.082031" xlink:href="#DejaVuSans-6e"/>
     <use x="272.460938" xlink:href="#DejaVuSans-20"/>
     <use x="304.248047" xlink:href="#DejaVuSans-68"/>
     <use x="367.626953" xlink:href="#DejaVuSans-6f"/>
     <use x="428.808594" xlink:href="#DejaVuSans-75"/>
     <use x="492.1875" xlink:href="#DejaVuSans-72"/>
     <use x="533.300781" xlink:href="#DejaVuSans-6c"/>
     <use x="561.083984" xlink:href="#DejaVuSans-79"/>
     <use x="620.263672" xlink:href="#DejaVuSans-20"/>
     <use x="652.050781" xlink:href="#DejaVuSans-65"/>
     <use x="713.574219" xlink:href="#DejaVuSans-6d"/>
     <use x="810.986328" xlink:href="#DejaVuSans-69"/>
     <use x="838.769531" xlink:href="#DejaVuSans-73"/>
     <use x="890.869141" xlink:href="#DejaVuSans-73"/>
     <use x="942.96875" xlink:href="#DejaVuSans-69"/>
     <use x="970.751953" xlink:href="#DejaVuSans-6f"/>
     <use x="1031.933594" xlink:href="#DejaVuSans-6e"/>
     <use x="1095.3125" xlink:href="#DejaVuSans-73"/>
    </g>
   </g>
   <g id="legend_1">
    <g id="patch_7">
     <path d="M 43.124 103.304533 
L 121.024 103.304533 
Q 123.024 103.304533 123.024 101.304533 
L 123.024 87.626408 
Q 123.024 85.626408 121.024 85.626408 
L 43.124 85.626408 
Q 41.124 85.626408 41.124 87.626408 
L 41.124 101.304533 
Q 41.124 103.304533 43.124 103.304533 
z
" style="fill:#ffffff;opacity:0.8;stroke:#cccccc;stroke-linejoin:miter;"/>
    </g>
    <g id="line2d_26">
     <path d="M 45.124 93.724846 
L 65.124 93.724846 
" style="fill:none;stroke:#008000;stroke-linecap:square;stroke-width:1.5;"/>
    </g>
    <g id="line2d_27"/>
    <g id="text_5">
     <!-- SO2 (lbs) -->
     <defs>
      <path d="M 53.515625 70.515625 
L 53.515625 60.890625 
Q 47.90625 63.578125 42.921875 64.890625 
Q 37.9375 66.21875 33.296875 66.21875 
Q 25.25 66.21875 20.875 63.09375 
Q 16.5 59.96875 16.5 54.203125 
Q 16.5 49.359375 19.40625 46.890625 
Q 22.3125 44.4375 30.421875 42.921875 
L 36.375 41.703125 
Q 47.40625 39.59375 52.65625 34.296875 
Q 57.90625 29 57.90625 20.125 
Q 57.90625 9.515625 50.796875 4.046875 
Q 43.703125 -1.421875 29.984375 -1.421875 
Q 24.8125 -1.421875 18.96875 -0.25 
Q 13.140625 0.921875 6.890625 3.21875 
L 6.890625 13.375 
Q 12.890625 10.015625 18.65625 8.296875 
Q 24.421875 6.59375 29.984375 6.59375 
Q 38.421875 6.59375 43.015625 9.90625 
Q 47.609375 13.234375 47.609375 19.390625 
Q 47.609375 24.75 44.3125 27.78125 
Q 41.015625 30.8125 33.5 32.328125 
L 27.484375 33.5 
Q 16.453125 35.6875 11.515625 40.375 
Q 6.59375 45.0625 6.59375 53.421875 
Q 6.59375 63.09375 13.40625 68.65625 
Q 20.21875 74.21875 32.171875 74.21875 
Q 37.3125 74.21875 42.625 73.28125 
Q 47.953125 72.359375 53.515625 70.515625 
z
" id="DejaVuSans-53"/>
      <path d="M 39.40625 66.21875 
Q 28.65625 66.21875 22.328125 58.203125 
Q 16.015625 50.203125 16.015625 36.375 
Q 16.015625 22.609375 22.328125 14.59375 
Q 28.65625 6.59375 39.40625 6.59375 
Q 50.140625 6.59375 56.421875 14.59375 
Q 62.703125 22.609375 62.703125 36.375 
Q 62.703125 50.203125 56.421875 58.203125 
Q 50.140625 66.21875 39.40625 66.21875 
z
M 39.40625 74.21875 
Q 54.734375 74.21875 63.90625 63.9375 
Q 73.09375 53.65625 73.09375 36.375 
Q 73.09375 19.140625 63.90625 8.859375 
Q 54.734375 -1.421875 39.40625 -1.421875 
Q 24.03125 -1.421875 14.8125 8.828125 
Q 5.609375 19.09375 5.609375 36.375 
Q 5.609375 53.65625 14.8125 63.9375 
Q 24.03125 74.21875 39.40625 74.21875 
z
" id="DejaVuSans-4f"/>
      <path d="M 31 75.875 
Q 24.46875 64.65625 21.28125 53.65625 
Q 18.109375 42.671875 18.109375 31.390625 
Q 18.109375 20.125 21.3125 9.0625 
Q 24.515625 -2 31 -13.1875 
L 23.1875 -13.1875 
Q 15.875 -1.703125 12.234375 9.375 
Q 8.59375 20.453125 8.59375 31.390625 
Q 8.59375 42.28125 12.203125 53.3125 
Q 15.828125 64.359375 23.1875 75.875 
z
" id="DejaVuSans-28"/>
      <path d="M 48.6875 27.296875 
Q 48.6875 37.203125 44.609375 42.84375 
Q 40.53125 48.484375 33.40625 48.484375 
Q 26.265625 48.484375 22.1875 42.84375 
Q 18.109375 37.203125 18.109375 27.296875 
Q 18.109375 17.390625 22.1875 11.75 
Q 26.265625 6.109375 33.40625 6.109375 
Q 40.53125 6.109375 44.609375 11.75 
Q 48.6875 17.390625 48.6875 27.296875 
z
M 18.109375 46.390625 
Q 20.953125 51.265625 25.265625 53.625 
Q 29.59375 56 35.59375 56 
Q 45.5625 56 51.78125 48.09375 
Q 58.015625 40.1875 58.015625 27.296875 
Q 58.015625 14.40625 51.78125 6.484375 
Q 45.5625 -1.421875 35.59375 -1.421875 
Q 29.59375 -1.421875 25.265625 0.953125 
Q 20.953125 3.328125 18.109375 8.203125 
L 18.109375 0 
L 9.078125 0 
L 9.078125 75.984375 
L 18.109375 75.984375 
z
" id="DejaVuSans-62"/>
      <path d="M 8.015625 75.875 
L 15.828125 75.875 
Q 23.140625 64.359375 26.78125 53.3125 
Q 30.421875 42.28125 30.421875 31.390625 
Q 30.421875 20.453125 26.78125 9.375 
Q 23.140625 -1.703125 15.828125 -13.1875 
L 8.015625 -13.1875 
Q 14.5 -2 17.703125 9.0625 
Q 20.90625 20.125 20.90625 31.390625 
Q 20.90625 42.671875 17.703125 53.65625 
Q 14.5 64.65625 8.015625 75.875 
z
" id="DejaVuSans-29"/>
     </defs>
     <g transform="translate(73.124 97.224846)scale(0.1 -0.1)">
      <use xlink:href="#DejaVuSans-53"/>
      <use x="63.476562" xlink:href="#DejaVuSans-4f"/>
      <use x="142.1875" xlink:href="#DejaVuSans-32"/>
      <use x="205.810547" xlink:href="#DejaVuSans-20"/>
      <use x="237.597656" xlink:href="#DejaVuSans-28"/>
      <use x="276.611328" xlink:href="#DejaVuSans-6c"/>
      <use x="304.394531" xlink:href="#DejaVuSans-62"/>
      <use x="367.871094" xlink:href="#DejaVuSans-73"/>
      <use x="419.970703" xlink:href="#DejaVuSans-29"/>
     </g>
    </g>
   </g>
  </g>
  <g id="axes_2">
   <g id="patch_8">
    <path d="M 36.124 209.084017 
L 447.48 209.084017 
L 447.48 124.144533 
L 36.124 124.144533 
z
" style="fill:none;"/>
   </g>
   <g id="matplotlib.axis_3">
    <g id="xtick_10">
     <g id="line2d_28">
      <path clip-path="url(#p1df7e0fcd9)" d="M 36.124 209.084017 
L 36.124 124.144533 
" style="fill:none;stroke:#b0b0b0;stroke-linecap:square;stroke-width:0.8;"/>
     </g>
     <g id="line2d_29">
      <g>
       <use style="stroke:#000000;stroke-width:0.8;" x="36.124" xlink:href="#m93c6729a7f" y="209.084017"/>
      </g>
     </g>
    </g>
    <g id="xtick_11">
     <g id="line2d_30">
      <path clip-path="url(#p1df7e0fcd9)" d="M 84.032405 209.084017 
L 84.032405 124.144533 
" style="fill:none;stroke:#b0b0b0;stroke-linecap:square;stroke-width:0.8;"/>
     </g>
     <g id="line2d_31">
      <g>
       <use style="stroke:#000000;stroke-width:0.8;" x="84.032405" xlink:href="#m93c6729a7f" y="209.084017"/>
      </g>
     </g>
    </g>
    <g id="xtick_12">
     <g id="line2d_32">
      <path clip-path="url(#p1df7e0fcd9)" d="M 132.006437 209.084017 
L 132.006437 124.144533 
" style="fill:none;stroke:#b0b0b0;stroke-linecap:square;stroke-width:0.8;"/>
     </g>
     <g id="line2d_33">
      <g>
       <use style="stroke:#000000;stroke-width:0.8;" x="132.006437" xlink:href="#m93c6729a7f" y="209.084017"/>
      </g>
     </g>
    </g>
    <g id="xtick_13">
     <g id="line2d_34">
      <path clip-path="url(#p1df7e0fcd9)" d="M 179.914842 209.084017 
L 179.914842 124.144533 
" style="fill:none;stroke:#b0b0b0;stroke-linecap:square;stroke-width:0.8;"/>
     </g>
     <g id="line2d_35">
      <g>
       <use style="stroke:#000000;stroke-width:0.8;" x="179.914842" xlink:href="#m93c6729a7f" y="209.084017"/>
      </g>
     </g>
    </g>
    <g id="xtick_14">
     <g id="line2d_36">
      <path clip-path="url(#p1df7e0fcd9)" d="M 227.888874 209.084017 
L 227.888874 124.144533 
" style="fill:none;stroke:#b0b0b0;stroke-linecap:square;stroke-width:0.8;"/>
     </g>
     <g id="line2d_37">
      <g>
       <use style="stroke:#000000;stroke-width:0.8;" x="227.888874" xlink:href="#m93c6729a7f" y="209.084017"/>
      </g>
     </g>
    </g>
    <g id="xtick_15">
     <g id="line2d_38">
      <path clip-path="url(#p1df7e0fcd9)" d="M 275.797279 209.084017 
L 275.797279 124.144533 
" style="fill:none;stroke:#b0b0b0;stroke-linecap:square;stroke-width:0.8;"/>
     </g>
     <g id="line2d_39">
      <g>
       <use style="stroke:#000000;stroke-width:0.8;" x="275.797279" xlink:href="#m93c6729a7f" y="209.084017"/>
      </g>
     </g>
    </g>
    <g id="xtick_16">
     <g id="line2d_40">
      <path clip-path="url(#p1df7e0fcd9)" d="M 323.771311 209.084017 
L 323.771311 124.144533 
" style="fill:none;stroke:#b0b0b0;stroke-linecap:square;stroke-width:0.8;"/>
     </g>
     <g id="line2d_41">
      <g>
       <use style="stroke:#000000;stroke-width:0.8;" x="323.771311" xlink:href="#m93c6729a7f" y="209.084017"/>
      </g>
     </g>
    </g>
    <g id="xtick_17">
     <g id="line2d_42">
      <path clip-path="url(#p1df7e0fcd9)" d="M 371.679716 209.084017 
L 371.679716 124.144533 
" style="fill:none;stroke:#b0b0b0;stroke-linecap:square;stroke-width:0.8;"/>
     </g>
     <g id="line2d_43">
      <g>
       <use style="stroke:#000000;stroke-width:0.8;" x="371.679716" xlink:href="#m93c6729a7f" y="209.084017"/>
      </g>
     </g>
    </g>
    <g id="xtick_18">
     <g id="line2d_44">
      <path clip-path="url(#p1df7e0fcd9)" d="M 419.653749 209.084017 
L 419.653749 124.144533 
" style="fill:none;stroke:#b0b0b0;stroke-linecap:square;stroke-width:0.8;"/>
     </g>
     <g id="line2d_45">
      <g>
       <use style="stroke:#000000;stroke-width:0.8;" x="419.653749" xlink:href="#m93c6729a7f" y="209.084017"/>
      </g>
     </g>
    </g>
   </g>
   <g id="matplotlib.axis_4">
    <g id="ytick_4">
     <g id="line2d_46">
      <path clip-path="url(#p1df7e0fcd9)" d="M 36.124 205.223131 
L 447.48 205.223131 
" style="fill:none;stroke:#b0b0b0;stroke-linecap:square;stroke-width:0.8;"/>
     </g>
     <g id="line2d_47">
      <g>
       <use style="stroke:#000000;stroke-width:0.8;" x="36.124" xlink:href="#m984842c5f6" y="205.223131"/>
      </g>
     </g>
     <g id="text_6">
      <!-- 0 -->
      <g transform="translate(22.7615 209.02235)scale(0.1 -0.1)">
       <use xlink:href="#DejaVuSans-30"/>
      </g>
     </g>
    </g>
    <g id="ytick_5">
     <g id="line2d_48">
      <path clip-path="url(#p1df7e0fcd9)" d="M 36.124 170.730304 
L 447.48 170.730304 
" style="fill:none;stroke:#b0b0b0;stroke-linecap:square;stroke-width:0.8;"/>
     </g>
     <g id="line2d_49">
      <g>
       <use style="stroke:#000000;stroke-width:0.8;" x="36.124" xlink:href="#m984842c5f6" y="170.730304"/>
      </g>
     </g>
     <g id="text_7">
      <!-- 500 -->
      <defs>
       <path d="M 10.796875 72.90625 
L 49.515625 72.90625 
L 49.515625 64.59375 
L 19.828125 64.59375 
L 19.828125 46.734375 
Q 21.96875 47.46875 24.109375 47.828125 
Q 26.265625 48.1875 28.421875 48.1875 
Q 40.625 48.1875 47.75 41.5 
Q 54.890625 34.8125 54.890625 23.390625 
Q 54.890625 11.625 47.5625 5.09375 
Q 40.234375 -1.421875 26.90625 -1.421875 
Q 22.3125 -1.421875 17.546875 -0.640625 
Q 12.796875 0.140625 7.71875 1.703125 
L 7.71875 11.625 
Q 12.109375 9.234375 16.796875 8.0625 
Q 21.484375 6.890625 26.703125 6.890625 
Q 35.15625 6.890625 40.078125 11.328125 
Q 45.015625 15.765625 45.015625 23.390625 
Q 45.015625 31 40.078125 35.4375 
Q 35.15625 39.890625 26.703125 39.890625 
Q 22.75 39.890625 18.8125 39.015625 
Q 14.890625 38.140625 10.796875 36.28125 
z
" id="DejaVuSans-35"/>
      </defs>
      <g transform="translate(10.0365 174.529523)scale(0.1 -0.1)">
       <use xlink:href="#DejaVuSans-35"/>
       <use x="63.623047" xlink:href="#DejaVuSans-30"/>
       <use x="127.246094" xlink:href="#DejaVuSans-30"/>
      </g>
     </g>
    </g>
    <g id="ytick_6">
     <g id="line2d_50">
      <path clip-path="url(#p1df7e0fcd9)" d="M 36.124 136.237477 
L 447.48 136.237477 
" style="fill:none;stroke:#b0b0b0;stroke-linecap:square;stroke-width:0.8;"/>
     </g>
     <g id="line2d_51">
      <g>
       <use style="stroke:#000000;stroke-width:0.8;" x="36.124" xlink:href="#m984842c5f6" y="136.237477"/>
      </g>
     </g>
     <g id="text_8">
      <!-- 1000 -->
      <g transform="translate(3.674 140.036696)scale(0.1 -0.1)">
       <use xlink:href="#DejaVuSans-31"/>
       <use x="63.623047" xlink:href="#DejaVuSans-30"/>
       <use x="127.246094" xlink:href="#DejaVuSans-30"/>
       <use x="190.869141" xlink:href="#DejaVuSans-30"/>
      </g>
     </g>
    </g>
   </g>
   <g id="line2d_52">
    <path clip-path="url(#p1df7e0fcd9)" d="M 36.124 135.010912 
L 38.158466 140.005473 
L 39.996049 134.456267 
L 42.030516 146.89852 
L 43.999354 130.573755 
L 46.033821 134.023038 
L 48.002659 133.989235 
L 50.037126 132.388078 
L 52.071592 135.891859 
L 54.040431 153.803984 
L 56.074897 140.411799 
L 58.043736 133.308346 
L 60.078202 133.803663 
L 62.112669 133.392509 
L 63.950251 135.041266 
L 65.984718 139.286643 
L 67.953556 134.839138 
L 69.988023 145.50639 
L 71.956862 135.606948 
L 73.991328 133.43459 
L 76.025795 134.791538 
L 77.994633 162.023625 
L 80.0291 184.746119 
L 81.997938 131.872065 
L 84.032405 136.072601 
L 86.066871 136.020172 
L 87.904454 135.415858 
L 89.93892 131.043547 
L 93.942225 142.595885 
L 95.911064 131.157373 
L 97.94553 132.393596 
L 99.979997 135.771134 
L 101.948835 136.857658 
L 103.983302 128.005419 
L 105.95214 131.418829 
L 107.986607 131.149095 
L 110.021073 138.103539 
L 111.924284 152.071064 
L 113.95875 141.481766 
L 115.927589 134.223786 
L 117.962056 133.148299 
L 119.930894 131.148405 
L 121.965361 134.102371 
L 123.999827 135.462078 
L 125.968666 146.536345 
L 128.003132 139.414266 
L 129.971971 139.142463 
L 132.006437 134.277595 
L 134.040904 134.288632 
L 135.878486 133.293859 
L 137.912953 133.498057 
L 139.881791 135.274437 
L 141.916258 133.162786 
L 143.885096 128.262046 
L 145.919563 128.659403 
L 147.954029 153.604615 
L 149.922868 205.223131 
L 151.957334 168.844236 
L 153.926173 167.632848 
L 155.960639 176.674798 
L 157.995106 177.631629 
L 159.832689 170.625446 
L 161.867155 170.785493 
L 163.835994 173.206889 
L 165.87046 171.13318 
L 167.839299 171.330479 
L 169.873765 170.732374 
L 171.908232 171.380839 
L 173.87707 173.403498 
L 175.911537 174.496921 
L 177.880375 183.39745 
L 179.914842 174.961194 
L 181.949308 177.381901 
L 183.786891 175.596552 
L 185.821357 180.148915 
L 187.790196 174.099563 
L 189.824662 176.084281 
L 191.793501 172.976477 
L 195.862434 176.04013 
L 197.831272 176.198107 
L 199.865739 174.754927 
L 201.834578 174.560388 
L 203.869044 175.353033 
L 205.903511 173.231724 
L 207.806721 172.829537 
L 209.841188 172.19418 
L 211.810026 177.501246 
L 213.844493 172.755033 
L 215.813331 171.013835 
L 217.847798 174.147853 
L 219.882264 178.292511 
L 221.851103 204.180758 
L 223.885569 179.930921 
L 225.854408 176.151887 
L 227.888874 171.596764 
L 229.923341 171.900991 
L 231.760923 172.738476 
L 233.79539 172.454945 
L 235.764228 172.43425 
L 237.798695 174.872203 
L 239.767534 171.699552 
L 241.802 171.051087 
L 243.836466 171.957559 
L 245.805305 171.789234 
L 247.839772 172.454945 
L 249.80861 173.905024 
L 251.843077 173.667713 
L 253.877543 175.648291 
L 255.715126 177.922058 
L 257.749592 185.386996 
L 259.718431 175.475827 
L 261.752897 182.749675 
L 263.721736 173.856044 
L 265.756202 174.520376 
L 267.790669 177.717861 
L 269.759507 174.329975 
L 271.793974 172.679149 
L 273.762812 172.345258 
L 275.797279 172.964749 
L 277.831745 173.191712 
L 279.669328 174.005053 
L 281.703795 175.74901 
L 283.672633 175.809718 
L 285.7071 179.411459 
L 287.675938 175.542053 
L 289.710405 175.613798 
L 291.744871 179.331435 
L 293.71371 177.651635 
L 295.748176 178.596738 
L 297.717015 179.855037 
L 299.751481 178.312517 
L 301.785948 177.400527 
L 303.689158 203.415707 
L 305.723625 186.114105 
L 307.692463 183.413317 
L 311.695768 179.063081 
L 313.730235 183.014579 
L 315.764701 183.946576 
L 317.73354 184.555719 
L 319.768006 181.693504 
L 321.736845 183.527833 
L 323.771311 183.629931 
L 325.805778 181.771458 
L 327.643361 182.658613 
L 329.677827 182.873159 
L 333.681132 182.715182 
L 335.649971 183.042174 
L 337.684437 184.325307 
L 339.718904 182.924898 
L 341.687742 182.603425 
L 343.722209 181.685916 
L 345.691047 182.027395 
L 347.725514 181.340987 
L 349.75998 182.517883 
L 351.597563 188.44789 
L 353.632029 181.76111 
L 355.600868 180.308962 
L 359.604173 180.740122 
L 361.638639 181.563811 
L 363.673106 183.25327 
L 365.641944 187.253058 
L 367.676411 183.793427 
L 369.64525 183.362957 
L 371.679716 183.567844 
L 373.714183 183.373305 
L 375.551765 182.753814 
L 377.586232 181.056767 
L 379.55507 183.261548 
L 381.589537 181.309254 
L 383.558375 181.578298 
L 385.592842 181.503104 
L 387.627308 182.499946 
L 389.596147 202.349879 
L 391.630613 201.52688 
L 393.599452 183.286383 
L 395.633918 186.062366 
L 397.668385 187.664902 
L 399.571595 184.446722 
L 401.606062 183.022858 
L 403.5749 183.729961 
L 405.609367 183.211189 
L 411.647138 185.062764 
L 413.615977 186.108586 
L 415.650444 183.388482 
L 417.619282 183.816193 
L 419.653749 183.560946 
L 421.688215 184.26046 
L 423.525798 193.122357 
L 425.560264 183.54094 
L 427.529103 183.616134 
L 429.563569 183.323635 
L 431.532408 182.476491 
L 433.566874 182.52961 
L 435.601341 185.112433 
L 437.570179 188.436162 
L 439.604646 182.643437 
L 441.573484 184.094895 
L 443.607951 183.581642 
L 445.642417 187.67732 
L 447.48 184.799238 
L 447.48 184.799238 
" style="fill:none;stroke:#f97306;stroke-linecap:square;stroke-width:1.5;"/>
   </g>
   <g id="patch_9">
    <path d="M 36.124 209.084017 
L 36.124 124.144533 
" style="fill:none;stroke:#000000;stroke-linecap:square;stroke-linejoin:miter;stroke-width:0.8;"/>
   </g>
   <g id="patch_10">
    <path d="M 447.48 209.084017 
L 447.48 124.144533 
" style="fill:none;stroke:#000000;stroke-linecap:square;stroke-linejoin:miter;stroke-width:0.8;"/>
   </g>
   <g id="patch_11">
    <path d="M 36.124 209.084017 
L 447.48 209.084017 
" style="fill:none;stroke:#000000;stroke-linecap:square;stroke-linejoin:miter;stroke-width:0.8;"/>
   </g>
   <g id="patch_12">
    <path d="M 36.124 124.144533 
L 447.48 124.144533 
" style="fill:none;stroke:#000000;stroke-linecap:square;stroke-linejoin:miter;stroke-width:0.8;"/>
   </g>
   <g id="legend_2">
    <g id="patch_13">
     <path d="M 361.890938 146.822658 
L 440.48 146.822658 
Q 442.48 146.822658 442.48 144.822658 
L 442.48 131.144533 
Q 442.48 129.144533 440.48 129.144533 
L 361.890938 129.144533 
Q 359.890938 129.144533 359.890938 131.144533 
L 359.890938 144.822658 
Q 359.890938 146.822658 361.890938 146.822658 
z
" style="fill:#ffffff;opacity:0.8;stroke:#cccccc;stroke-linejoin:miter;"/>
    </g>
    <g id="line2d_53">
     <path d="M 363.890938 137.242971 
L 383.890938 137.242971 
" style="fill:none;stroke:#f97306;stroke-linecap:square;stroke-width:1.5;"/>
    </g>
    <g id="line2d_54"/>
    <g id="text_9">
     <!-- NOx (lbs) -->
     <defs>
      <path d="M 9.8125 72.90625 
L 23.09375 72.90625 
L 55.421875 11.921875 
L 55.421875 72.90625 
L 64.984375 72.90625 
L 64.984375 0 
L 51.703125 0 
L 19.390625 60.984375 
L 19.390625 0 
L 9.8125 0 
z
" id="DejaVuSans-4e"/>
      <path d="M 54.890625 54.6875 
L 35.109375 28.078125 
L 55.90625 0 
L 45.3125 0 
L 29.390625 21.484375 
L 13.484375 0 
L 2.875 0 
L 24.125 28.609375 
L 4.6875 54.6875 
L 15.28125 54.6875 
L 29.78125 35.203125 
L 44.28125 54.6875 
z
" id="DejaVuSans-78"/>
     </defs>
     <g transform="translate(391.890938 140.742971)scale(0.1 -0.1)">
      <use xlink:href="#DejaVuSans-4e"/>
      <use x="74.804688" xlink:href="#DejaVuSans-4f"/>
      <use x="153.515625" xlink:href="#DejaVuSans-78"/>
      <use x="212.695312" xlink:href="#DejaVuSans-20"/>
      <use x="244.482422" xlink:href="#DejaVuSans-28"/>
      <use x="283.496094" xlink:href="#DejaVuSans-6c"/>
      <use x="311.279297" xlink:href="#DejaVuSans-62"/>
      <use x="374.755859" xlink:href="#DejaVuSans-73"/>
      <use x="426.855469" xlink:href="#DejaVuSans-29"/>
     </g>
    </g>
   </g>
  </g>
  <g id="axes_3">
   <g id="patch_14">
    <path d="M 36.124 309.8635 
L 447.48 309.8635 
L 447.48 224.924017 
L 36.124 224.924017 
z
" style="fill:none;"/>
   </g>
   <g id="matplotlib.axis_5">
    <g id="xtick_19">
     <g id="line2d_55">
      <path clip-path="url(#pa3fe9ef6c3)" d="M 36.124 309.8635 
L 36.124 224.924017 
" style="fill:none;stroke:#b0b0b0;stroke-linecap:square;stroke-width:0.8;"/>
     </g>
     <g id="line2d_56">
      <g>
       <use style="stroke:#000000;stroke-width:0.8;" x="36.124" xlink:href="#m93c6729a7f" y="309.8635"/>
      </g>
     </g>
     <g id="text_10">
      <!-- 2001 -->
      <g transform="translate(23.399 324.461937)scale(0.1 -0.1)">
       <use xlink:href="#DejaVuSans-32"/>
       <use x="63.623047" xlink:href="#DejaVuSans-30"/>
       <use x="127.246094" xlink:href="#DejaVuSans-30"/>
       <use x="190.869141" xlink:href="#DejaVuSans-31"/>
      </g>
     </g>
    </g>
    <g id="xtick_20">
     <g id="line2d_57">
      <path clip-path="url(#pa3fe9ef6c3)" d="M 84.032405 309.8635 
L 84.032405 224.924017 
" style="fill:none;stroke:#b0b0b0;stroke-linecap:square;stroke-width:0.8;"/>
     </g>
     <g id="line2d_58">
      <g>
       <use style="stroke:#000000;stroke-width:0.8;" x="84.032405" xlink:href="#m93c6729a7f" y="309.8635"/>
      </g>
     </g>
     <g id="text_11">
      <!-- 2003 -->
      <defs>
       <path d="M 40.578125 39.3125 
Q 47.65625 37.796875 51.625 33 
Q 55.609375 28.21875 55.609375 21.1875 
Q 55.609375 10.40625 48.1875 4.484375 
Q 40.765625 -1.421875 27.09375 -1.421875 
Q 22.515625 -1.421875 17.65625 -0.515625 
Q 12.796875 0.390625 7.625 2.203125 
L 7.625 11.71875 
Q 11.71875 9.328125 16.59375 8.109375 
Q 21.484375 6.890625 26.8125 6.890625 
Q 36.078125 6.890625 40.9375 10.546875 
Q 45.796875 14.203125 45.796875 21.1875 
Q 45.796875 27.640625 41.28125 31.265625 
Q 36.765625 34.90625 28.71875 34.90625 
L 20.21875 34.90625 
L 20.21875 43.015625 
L 29.109375 43.015625 
Q 36.375 43.015625 40.234375 45.921875 
Q 44.09375 48.828125 44.09375 54.296875 
Q 44.09375 59.90625 40.109375 62.90625 
Q 36.140625 65.921875 28.71875 65.921875 
Q 24.65625 65.921875 20.015625 65.03125 
Q 15.375 64.15625 9.8125 62.3125 
L 9.8125 71.09375 
Q 15.4375 72.65625 20.34375 73.4375 
Q 25.25 74.21875 29.59375 74.21875 
Q 40.828125 74.21875 47.359375 69.109375 
Q 53.90625 64.015625 53.90625 55.328125 
Q 53.90625 49.265625 50.4375 45.09375 
Q 46.96875 40.921875 40.578125 39.3125 
z
" id="DejaVuSans-33"/>
      </defs>
      <g transform="translate(71.307405 324.461937)scale(0.1 -0.1)">
       <use xlink:href="#DejaVuSans-32"/>
       <use x="63.623047" xlink:href="#DejaVuSans-30"/>
       <use x="127.246094" xlink:href="#DejaVuSans-30"/>
       <use x="190.869141" xlink:href="#DejaVuSans-33"/>
      </g>
     </g>
    </g>
    <g id="xtick_21">
     <g id="line2d_59">
      <path clip-path="url(#pa3fe9ef6c3)" d="M 132.006437 309.8635 
L 132.006437 224.924017 
" style="fill:none;stroke:#b0b0b0;stroke-linecap:square;stroke-width:0.8;"/>
     </g>
     <g id="line2d_60">
      <g>
       <use style="stroke:#000000;stroke-width:0.8;" x="132.006437" xlink:href="#m93c6729a7f" y="309.8635"/>
      </g>
     </g>
     <g id="text_12">
      <!-- 2005 -->
      <g transform="translate(119.281437 324.461937)scale(0.1 -0.1)">
       <use xlink:href="#DejaVuSans-32"/>
       <use x="63.623047" xlink:href="#DejaVuSans-30"/>
       <use x="127.246094" xlink:href="#DejaVuSans-30"/>
       <use x="190.869141" xlink:href="#DejaVuSans-35"/>
      </g>
     </g>
    </g>
    <g id="xtick_22">
     <g id="line2d_61">
      <path clip-path="url(#pa3fe9ef6c3)" d="M 179.914842 309.8635 
L 179.914842 224.924017 
" style="fill:none;stroke:#b0b0b0;stroke-linecap:square;stroke-width:0.8;"/>
     </g>
     <g id="line2d_62">
      <g>
       <use style="stroke:#000000;stroke-width:0.8;" x="179.914842" xlink:href="#m93c6729a7f" y="309.8635"/>
      </g>
     </g>
     <g id="text_13">
      <!-- 2007 -->
      <defs>
       <path d="M 8.203125 72.90625 
L 55.078125 72.90625 
L 55.078125 68.703125 
L 28.609375 0 
L 18.3125 0 
L 43.21875 64.59375 
L 8.203125 64.59375 
z
" id="DejaVuSans-37"/>
      </defs>
      <g transform="translate(167.189842 324.461937)scale(0.1 -0.1)">
       <use xlink:href="#DejaVuSans-32"/>
       <use x="63.623047" xlink:href="#DejaVuSans-30"/>
       <use x="127.246094" xlink:href="#DejaVuSans-30"/>
       <use x="190.869141" xlink:href="#DejaVuSans-37"/>
      </g>
     </g>
    </g>
    <g id="xtick_23">
     <g id="line2d_63">
      <path clip-path="url(#pa3fe9ef6c3)" d="M 227.888874 309.8635 
L 227.888874 224.924017 
" style="fill:none;stroke:#b0b0b0;stroke-linecap:square;stroke-width:0.8;"/>
     </g>
     <g id="line2d_64">
      <g>
       <use style="stroke:#000000;stroke-width:0.8;" x="227.888874" xlink:href="#m93c6729a7f" y="309.8635"/>
      </g>
     </g>
     <g id="text_14">
      <!-- 2009 -->
      <defs>
       <path d="M 10.984375 1.515625 
L 10.984375 10.5 
Q 14.703125 8.734375 18.5 7.8125 
Q 22.3125 6.890625 25.984375 6.890625 
Q 35.75 6.890625 40.890625 13.453125 
Q 46.046875 20.015625 46.78125 33.40625 
Q 43.953125 29.203125 39.59375 26.953125 
Q 35.25 24.703125 29.984375 24.703125 
Q 19.046875 24.703125 12.671875 31.3125 
Q 6.296875 37.9375 6.296875 49.421875 
Q 6.296875 60.640625 12.9375 67.421875 
Q 19.578125 74.21875 30.609375 74.21875 
Q 43.265625 74.21875 49.921875 64.515625 
Q 56.59375 54.828125 56.59375 36.375 
Q 56.59375 19.140625 48.40625 8.859375 
Q 40.234375 -1.421875 26.421875 -1.421875 
Q 22.703125 -1.421875 18.890625 -0.6875 
Q 15.09375 0.046875 10.984375 1.515625 
z
M 30.609375 32.421875 
Q 37.25 32.421875 41.125 36.953125 
Q 45.015625 41.5 45.015625 49.421875 
Q 45.015625 57.28125 41.125 61.84375 
Q 37.25 66.40625 30.609375 66.40625 
Q 23.96875 66.40625 20.09375 61.84375 
Q 16.21875 57.28125 16.21875 49.421875 
Q 16.21875 41.5 20.09375 36.953125 
Q 23.96875 32.421875 30.609375 32.421875 
z
" id="DejaVuSans-39"/>
      </defs>
      <g transform="translate(215.163874 324.461937)scale(0.1 -0.1)">
       <use xlink:href="#DejaVuSans-32"/>
       <use x="63.623047" xlink:href="#DejaVuSans-30"/>
       <use x="127.246094" xlink:href="#DejaVuSans-30"/>
       <use x="190.869141" xlink:href="#DejaVuSans-39"/>
      </g>
     </g>
    </g>
    <g id="xtick_24">
     <g id="line2d_65">
      <path clip-path="url(#pa3fe9ef6c3)" d="M 275.797279 309.8635 
L 275.797279 224.924017 
" style="fill:none;stroke:#b0b0b0;stroke-linecap:square;stroke-width:0.8;"/>
     </g>
     <g id="line2d_66">
      <g>
       <use style="stroke:#000000;stroke-width:0.8;" x="275.797279" xlink:href="#m93c6729a7f" y="309.8635"/>
      </g>
     </g>
     <g id="text_15">
      <!-- 2011 -->
      <g transform="translate(263.072279 324.461937)scale(0.1 -0.1)">
       <use xlink:href="#DejaVuSans-32"/>
       <use x="63.623047" xlink:href="#DejaVuSans-30"/>
       <use x="127.246094" xlink:href="#DejaVuSans-31"/>
       <use x="190.869141" xlink:href="#DejaVuSans-31"/>
      </g>
     </g>
    </g>
    <g id="xtick_25">
     <g id="line2d_67">
      <path clip-path="url(#pa3fe9ef6c3)" d="M 323.771311 309.8635 
L 323.771311 224.924017 
" style="fill:none;stroke:#b0b0b0;stroke-linecap:square;stroke-width:0.8;"/>
     </g>
     <g id="line2d_68">
      <g>
       <use style="stroke:#000000;stroke-width:0.8;" x="323.771311" xlink:href="#m93c6729a7f" y="309.8635"/>
      </g>
     </g>
     <g id="text_16">
      <!-- 2013 -->
      <g transform="translate(311.046311 324.461937)scale(0.1 -0.1)">
       <use xlink:href="#DejaVuSans-32"/>
       <use x="63.623047" xlink:href="#DejaVuSans-30"/>
       <use x="127.246094" xlink:href="#DejaVuSans-31"/>
       <use x="190.869141" xlink:href="#DejaVuSans-33"/>
      </g>
     </g>
    </g>
    <g id="xtick_26">
     <g id="line2d_69">
      <path clip-path="url(#pa3fe9ef6c3)" d="M 371.679716 309.8635 
L 371.679716 224.924017 
" style="fill:none;stroke:#b0b0b0;stroke-linecap:square;stroke-width:0.8;"/>
     </g>
     <g id="line2d_70">
      <g>
       <use style="stroke:#000000;stroke-width:0.8;" x="371.679716" xlink:href="#m93c6729a7f" y="309.8635"/>
      </g>
     </g>
     <g id="text_17">
      <!-- 2015 -->
      <g transform="translate(358.954716 324.461937)scale(0.1 -0.1)">
       <use xlink:href="#DejaVuSans-32"/>
       <use x="63.623047" xlink:href="#DejaVuSans-30"/>
       <use x="127.246094" xlink:href="#DejaVuSans-31"/>
       <use x="190.869141" xlink:href="#DejaVuSans-35"/>
      </g>
     </g>
    </g>
    <g id="xtick_27">
     <g id="line2d_71">
      <path clip-path="url(#pa3fe9ef6c3)" d="M 419.653749 309.8635 
L 419.653749 224.924017 
" style="fill:none;stroke:#b0b0b0;stroke-linecap:square;stroke-width:0.8;"/>
     </g>
     <g id="line2d_72">
      <g>
       <use style="stroke:#000000;stroke-width:0.8;" x="419.653749" xlink:href="#m93c6729a7f" y="309.8635"/>
      </g>
     </g>
     <g id="text_18">
      <!-- 2017 -->
      <g transform="translate(406.928749 324.461937)scale(0.1 -0.1)">
       <use xlink:href="#DejaVuSans-32"/>
       <use x="63.623047" xlink:href="#DejaVuSans-30"/>
       <use x="127.246094" xlink:href="#DejaVuSans-31"/>
       <use x="190.869141" xlink:href="#DejaVuSans-37"/>
      </g>
     </g>
    </g>
    <g id="text_19">
     <!-- Date -->
     <defs>
      <path d="M 19.671875 64.796875 
L 19.671875 8.109375 
L 31.59375 8.109375 
Q 46.6875 8.109375 53.6875 14.9375 
Q 60.6875 21.78125 60.6875 36.53125 
Q 60.6875 51.171875 53.6875 57.984375 
Q 46.6875 64.796875 31.59375 64.796875 
z
M 9.8125 72.90625 
L 30.078125 72.90625 
Q 51.265625 72.90625 61.171875 64.09375 
Q 71.09375 55.28125 71.09375 36.53125 
Q 71.09375 17.671875 61.125 8.828125 
Q 51.171875 0 30.078125 0 
L 9.8125 0 
z
" id="DejaVuSans-44"/>
      <path d="M 18.3125 70.21875 
L 18.3125 54.6875 
L 36.8125 54.6875 
L 36.8125 47.703125 
L 18.3125 47.703125 
L 18.3125 18.015625 
Q 18.3125 11.328125 20.140625 9.421875 
Q 21.96875 7.515625 27.59375 7.515625 
L 36.8125 7.515625 
L 36.8125 0 
L 27.59375 0 
Q 17.1875 0 13.234375 3.875 
Q 9.28125 7.765625 9.28125 18.015625 
L 9.28125 47.703125 
L 2.6875 47.703125 
L 2.6875 54.6875 
L 9.28125 54.6875 
L 9.28125 70.21875 
z
" id="DejaVuSans-74"/>
     </defs>
     <g transform="translate(229.851219 338.140062)scale(0.1 -0.1)">
      <use xlink:href="#DejaVuSans-44"/>
      <use x="77.001953" xlink:href="#DejaVuSans-61"/>
      <use x="138.28125" xlink:href="#DejaVuSans-74"/>
      <use x="177.490234" xlink:href="#DejaVuSans-65"/>
     </g>
    </g>
   </g>
   <g id="matplotlib.axis_6">
    <g id="ytick_7">
     <g id="line2d_73">
      <path clip-path="url(#pa3fe9ef6c3)" d="M 36.124 306.002614 
L 447.48 306.002614 
" style="fill:none;stroke:#b0b0b0;stroke-linecap:square;stroke-width:0.8;"/>
     </g>
     <g id="line2d_74">
      <g>
       <use style="stroke:#000000;stroke-width:0.8;" x="36.124" xlink:href="#m984842c5f6" y="306.002614"/>
      </g>
     </g>
     <g id="text_20">
      <!-- 0 -->
      <g transform="translate(22.7615 309.801833)scale(0.1 -0.1)">
       <use xlink:href="#DejaVuSans-30"/>
      </g>
     </g>
    </g>
    <g id="ytick_8">
     <g id="line2d_75">
      <path clip-path="url(#pa3fe9ef6c3)" d="M 36.124 284.028933 
L 447.48 284.028933 
" style="fill:none;stroke:#b0b0b0;stroke-linecap:square;stroke-width:0.8;"/>
     </g>
     <g id="line2d_76">
      <g>
       <use style="stroke:#000000;stroke-width:0.8;" x="36.124" xlink:href="#m984842c5f6" y="284.028933"/>
      </g>
     </g>
     <g id="text_21">
      <!-- 100 -->
      <g transform="translate(10.0365 287.828152)scale(0.1 -0.1)">
       <use xlink:href="#DejaVuSans-31"/>
       <use x="63.623047" xlink:href="#DejaVuSans-30"/>
       <use x="127.246094" xlink:href="#DejaVuSans-30"/>
      </g>
     </g>
    </g>
    <g id="ytick_9">
     <g id="line2d_77">
      <path clip-path="url(#pa3fe9ef6c3)" d="M 36.124 262.055253 
L 447.48 262.055253 
" style="fill:none;stroke:#b0b0b0;stroke-linecap:square;stroke-width:0.8;"/>
     </g>
     <g id="line2d_78">
      <g>
       <use style="stroke:#000000;stroke-width:0.8;" x="36.124" xlink:href="#m984842c5f6" y="262.055253"/>
      </g>
     </g>
     <g id="text_22">
      <!-- 200 -->
      <g transform="translate(10.0365 265.854471)scale(0.1 -0.1)">
       <use xlink:href="#DejaVuSans-32"/>
       <use x="63.623047" xlink:href="#DejaVuSans-30"/>
       <use x="127.246094" xlink:href="#DejaVuSans-30"/>
      </g>
     </g>
    </g>
    <g id="ytick_10">
     <g id="line2d_79">
      <path clip-path="url(#pa3fe9ef6c3)" d="M 36.124 240.081572 
L 447.48 240.081572 
" style="fill:none;stroke:#b0b0b0;stroke-linecap:square;stroke-width:0.8;"/>
     </g>
     <g id="line2d_80">
      <g>
       <use style="stroke:#000000;stroke-width:0.8;" x="36.124" xlink:href="#m984842c5f6" y="240.081572"/>
      </g>
     </g>
     <g id="text_23">
      <!-- 300 -->
      <g transform="translate(10.0365 243.88079)scale(0.1 -0.1)">
       <use xlink:href="#DejaVuSans-33"/>
       <use x="63.623047" xlink:href="#DejaVuSans-30"/>
       <use x="127.246094" xlink:href="#DejaVuSans-30"/>
      </g>
     </g>
    </g>
   </g>
   <g id="line2d_81">
    <path clip-path="url(#pa3fe9ef6c3)" d="M 36.124 237.332664 
L 38.158466 243.555611 
L 39.996049 234.69802 
L 42.030516 246.651702 
L 43.999354 234.687033 
L 46.033821 233.906967 
L 48.002659 233.86302 
L 50.037126 233.322467 
L 52.071592 234.926546 
L 54.040431 255.258793 
L 56.074897 243.100755 
L 58.043736 236.427348 
L 60.078202 235.776928 
L 62.112669 235.442928 
L 63.950251 235.348441 
L 65.984718 236.754756 
L 67.953556 236.695427 
L 69.988023 246.842873 
L 71.956862 233.621309 
L 73.991328 234.788112 
L 76.025795 236.633901 
L 77.994633 264.098805 
L 80.0291 283.864131 
L 81.997938 236.431743 
L 84.032405 240.132111 
L 86.066871 233.632296 
L 87.904454 236.880006 
L 89.93892 238.565388 
L 91.907759 237.767743 
L 93.942225 244.805913 
L 95.911064 228.784902 
L 97.94553 230.399968 
L 101.948835 240.490282 
L 103.983302 235.326467 
L 105.95214 238.510453 
L 107.986607 235.838454 
L 110.021073 241.127519 
L 111.924284 249.268768 
L 113.95875 236.389993 
L 115.927589 237.104138 
L 117.962056 236.35923 
L 119.930894 233.97948 
L 121.965361 235.462704 
L 123.999827 236.168059 
L 125.968666 238.147888 
L 128.003132 235.750559 
L 129.971971 235.311086 
L 132.006437 235.025428 
L 134.040904 235.133099 
L 135.878486 235.790112 
L 137.912953 236.058191 
L 139.881791 238.409375 
L 141.916258 236.23398 
L 143.885096 231.626099 
L 145.919563 234.100336 
L 147.954029 254.93578 
L 149.922868 306.002614 
L 151.957334 271.438014 
L 153.926173 248.205241 
L 155.960639 247.328492 
L 157.995106 251.732017 
L 159.832689 236.752559 
L 161.867155 238.097348 
L 163.835994 241.630716 
L 165.87046 236.473493 
L 167.839299 235.269336 
L 169.873765 237.172256 
L 171.908232 237.961111 
L 175.911537 245.418979 
L 177.880375 261.653134 
L 179.914842 244.289532 
L 181.949308 250.024662 
L 183.786891 244.39061 
L 185.821357 255.592793 
L 187.790196 244.212624 
L 189.824662 243.663282 
L 191.793501 236.811888 
L 193.827967 239.461914 
L 195.862434 242.850255 
L 197.831272 246.634123 
L 199.865739 244.68286 
L 201.834578 245.368439 
L 203.869044 247.416386 
L 205.903511 243.933558 
L 207.806721 243.929163 
L 209.841188 244.427966 
L 211.810026 253.478925 
L 213.844493 242.61294 
L 215.813331 235.669257 
L 217.847798 239.61573 
L 219.882264 250.883833 
L 221.851103 299.775273 
L 223.885569 251.613359 
L 225.854408 247.425176 
L 227.888874 241.898795 
L 229.923341 241.305506 
L 231.760923 241.81969 
L 233.79539 241.349453 
L 235.764228 241.195637 
L 237.798695 243.911584 
L 239.767534 239.642098 
L 241.802 238.372019 
L 243.836466 241.0594 
L 245.805305 242.245979 
L 247.839772 242.819492 
L 249.80861 244.414782 
L 251.843077 245.311308 
L 253.877543 244.746584 
L 255.715126 250.15211 
L 257.749592 267.102607 
L 259.718431 245.733202 
L 261.752897 258.891043 
L 263.721736 239.270743 
L 265.756202 242.536032 
L 267.790669 249.288544 
L 269.759507 244.118137 
L 271.793974 244.572992 
L 273.762812 244.300518 
L 275.797279 243.823689 
L 277.831745 246.658294 
L 279.669328 246.27815 
L 281.703795 246.339676 
L 283.672633 248.308518 
L 285.7071 251.224425 
L 287.675938 246.040834 
L 289.710405 245.304716 
L 291.744871 249.659899 
L 293.71371 246.581386 
L 295.748176 244.750979 
L 297.717015 249.886228 
L 299.751481 245.280545 
L 301.785948 242.971111 
L 303.689158 302.108878 
L 305.723625 253.553635 
L 307.692463 248.809518 
L 309.72693 242.505269 
L 311.695768 239.35644 
L 313.730235 239.945335 
L 315.764701 243.43915 
L 317.73354 243.973111 
L 319.768006 242.674466 
L 321.736845 247.018663 
L 323.771311 246.722018 
L 325.805778 243.777545 
L 327.643361 243.228203 
L 329.677827 244.298321 
L 331.646666 245.687058 
L 333.681132 240.811098 
L 335.649971 239.31469 
L 337.684437 239.683848 
L 339.718904 239.892598 
L 341.687742 246.260571 
L 343.722209 242.27894 
L 345.691047 240.415572 
L 347.725514 240.349651 
L 349.75998 240.521045 
L 351.597563 260.648937 
L 353.632029 242.845861 
L 355.600868 239.07298 
L 357.635334 239.567388 
L 359.604173 237.840256 
L 361.638639 244.904795 
L 363.673106 248.288741 
L 365.641944 261.077424 
L 367.676411 251.540846 
L 369.64525 249.132531 
L 371.679716 250.842083 
L 373.714183 249.989504 
L 375.551765 248.449149 
L 377.586232 244.970716 
L 379.55507 247.444952 
L 381.589537 242.601953 
L 383.558375 240.061795 
L 385.592842 240.701229 
L 387.627308 244.718018 
L 389.596147 298.70955 
L 391.630613 296.433076 
L 393.599452 247.658097 
L 395.633918 251.85507 
L 397.668385 260.629161 
L 399.571595 249.532452 
L 401.606062 245.26736 
L 403.5749 246.754979 
L 405.609367 242.870032 
L 407.578205 240.417769 
L 409.612672 242.410782 
L 411.647138 244.687255 
L 413.615977 254.289754 
L 415.650444 244.913584 
L 417.619282 245.10036 
L 419.653749 246.405597 
L 421.688215 249.290741 
L 423.525798 273.042093 
L 425.560264 247.209834 
L 427.529103 249.389623 
L 431.532408 239.268545 
L 433.566874 242.566795 
L 435.601341 243.171071 
L 437.570179 258.326319 
L 439.604646 244.485097 
L 441.573484 245.078387 
L 443.607951 245.489295 
L 445.642417 257.539661 
L 447.48 249.277557 
L 447.48 249.277557 
" style="fill:none;stroke:#4682b4;stroke-linecap:square;stroke-width:1.5;"/>
   </g>
   <g id="patch_15">
    <path d="M 36.124 309.8635 
L 36.124 224.924017 
" style="fill:none;stroke:#000000;stroke-linecap:square;stroke-linejoin:miter;stroke-width:0.8;"/>
   </g>
   <g id="patch_16">
    <path d="M 447.48 309.8635 
L 447.48 224.924017 
" style="fill:none;stroke:#000000;stroke-linecap:square;stroke-linejoin:miter;stroke-width:0.8;"/>
   </g>
   <g id="patch_17">
    <path d="M 36.124 309.8635 
L 447.48 309.8635 
" style="fill:none;stroke:#000000;stroke-linecap:square;stroke-linejoin:miter;stroke-width:0.8;"/>
   </g>
   <g id="patch_18">
    <path d="M 36.124 224.924017 
L 447.48 224.924017 
" style="fill:none;stroke:#000000;stroke-linecap:square;stroke-linejoin:miter;stroke-width:0.8;"/>
   </g>
   <g id="legend_3">
    <g id="patch_19">
     <path d="M 43.124 304.8635 
L 128.908375 304.8635 
Q 130.908375 304.8635 130.908375 302.8635 
L 130.908375 289.185375 
Q 130.908375 287.185375 128.908375 287.185375 
L 43.124 287.185375 
Q 41.124 287.185375 41.124 289.185375 
L 41.124 302.8635 
Q 41.124 304.8635 43.124 304.8635 
z
" style="fill:#ffffff;opacity:0.8;stroke:#cccccc;stroke-linejoin:miter;"/>
    </g>
    <g id="line2d_82">
     <path d="M 45.124 295.283812 
L 65.124 295.283812 
" style="fill:none;stroke:#4682b4;stroke-linecap:square;stroke-width:1.5;"/>
    </g>
    <g id="line2d_83"/>
    <g id="text_24">
     <!-- CO2 (tons) -->
     <defs>
      <path d="M 64.40625 67.28125 
L 64.40625 56.890625 
Q 59.421875 61.53125 53.78125 63.8125 
Q 48.140625 66.109375 41.796875 66.109375 
Q 29.296875 66.109375 22.65625 58.46875 
Q 16.015625 50.828125 16.015625 36.375 
Q 16.015625 21.96875 22.65625 14.328125 
Q 29.296875 6.6875 41.796875 6.6875 
Q 48.140625 6.6875 53.78125 8.984375 
Q 59.421875 11.28125 64.40625 15.921875 
L 64.40625 5.609375 
Q 59.234375 2.09375 53.4375 0.328125 
Q 47.65625 -1.421875 41.21875 -1.421875 
Q 24.65625 -1.421875 15.125 8.703125 
Q 5.609375 18.84375 5.609375 36.375 
Q 5.609375 53.953125 15.125 64.078125 
Q 24.65625 74.21875 41.21875 74.21875 
Q 47.75 74.21875 53.53125 72.484375 
Q 59.328125 70.75 64.40625 67.28125 
z
" id="DejaVuSans-43"/>
     </defs>
     <g transform="translate(73.124 298.783812)scale(0.1 -0.1)">
      <use xlink:href="#DejaVuSans-43"/>
      <use x="69.824219" xlink:href="#DejaVuSans-4f"/>
      <use x="148.535156" xlink:href="#DejaVuSans-32"/>
      <use x="212.158203" xlink:href="#DejaVuSans-20"/>
      <use x="243.945312" xlink:href="#DejaVuSans-28"/>
      <use x="282.958984" xlink:href="#DejaVuSans-74"/>
      <use x="322.167969" xlink:href="#DejaVuSans-6f"/>
      <use x="383.349609" xlink:href="#DejaVuSans-6e"/>
      <use x="446.728516" xlink:href="#DejaVuSans-73"/>
      <use x="498.828125" xlink:href="#DejaVuSans-29"/>
     </g>
    </g>
   </g>
  </g>
 </g>
 <defs>
  <clipPath id="pa631a4ae69">
   <rect height="84.939483" width="411.356" x="36.124" y="23.36505"/>
  </clipPath>
  <clipPath id="p1df7e0fcd9">
   <rect height="84.939483" width="411.356" x="36.124" y="124.144533"/>
  </clipPath>
  <clipPath id="pa3fe9ef6c3">
   <rect height="84.939483" width="411.356" x="36.124" y="224.924017"/>
  </clipPath>
 </defs>
</svg>
