<?xml version="1.0" encoding="utf-8" standalone="no"?>
<!DOCTYPE svg PUBLIC "-//W3C//DTD SVG 1.1//EN"
  "http://www.w3.org/Graphics/SVG/1.1/DTD/svg11.dtd">
<!-- Created with matplotlib (http://matplotlib.org/) -->
<svg height="345.6pt" version="1.1" viewBox="0 0 460.8 345.6" width="460.8pt" xmlns="http://www.w3.org/2000/svg" xmlns:xlink="http://www.w3.org/1999/xlink">
 <defs>
  <style type="text/css">
*{stroke-linecap:butt;stroke-linejoin:round;}
  </style>
 </defs>
 <g id="figure_1">
  <g id="patch_1">
   <path d="M 0 345.6 
L 460.8 345.6 
L 460.8 0 
L 0 0 
z
" style="fill:none;"/>
  </g>
  <g id="axes_1">
   <g id="patch_2">
    <path d="M 29.25025 108.304533 
L 447.48 108.304533 
L 447.48 23.36505 
L 29.25025 23.36505 
z
" style="fill:none;"/>
   </g>
   <g id="matplotlib.axis_1">
    <g id="xtick_1">
     <g id="line2d_1">
      <path clip-path="url(#p8f44cc47bc)" d="M 29.25025 108.304533 
L 29.25025 23.36505 
" style="fill:none;stroke:#b0b0b0;stroke-linecap:square;stroke-width:0.8;"/>
     </g>
     <g id="line2d_2">
      <defs>
       <path d="M 0 0 
L 0 3.5 
" id="mdd1ab321b9" style="stroke:#000000;stroke-width:0.8;"/>
      </defs>
      <g>
       <use style="stroke:#000000;stroke-width:0.8;" x="29.25025" xlink:href="#mdd1ab321b9" y="108.304533"/>
      </g>
     </g>
    </g>
    <g id="xtick_2">
     <g id="line2d_3">
      <path clip-path="url(#p8f44cc47bc)" d="M 77.959203 108.304533 
L 77.959203 23.36505 
" style="fill:none;stroke:#b0b0b0;stroke-linecap:square;stroke-width:0.8;"/>
     </g>
     <g id="line2d_4">
      <g>
       <use style="stroke:#000000;stroke-width:0.8;" x="77.959203" xlink:href="#mdd1ab321b9" y="108.304533"/>
      </g>
     </g>
    </g>
    <g id="xtick_3">
     <g id="line2d_5">
      <path clip-path="url(#p8f44cc47bc)" d="M 126.734881 108.304533 
L 126.734881 23.36505 
" style="fill:none;stroke:#b0b0b0;stroke-linecap:square;stroke-width:0.8;"/>
     </g>
     <g id="line2d_6">
      <g>
       <use style="stroke:#000000;stroke-width:0.8;" x="126.734881" xlink:href="#mdd1ab321b9" y="108.304533"/>
      </g>
     </g>
    </g>
    <g id="xtick_4">
     <g id="line2d_7">
      <path clip-path="url(#p8f44cc47bc)" d="M 175.443834 108.304533 
L 175.443834 23.36505 
" style="fill:none;stroke:#b0b0b0;stroke-linecap:square;stroke-width:0.8;"/>
     </g>
     <g id="line2d_8">
      <g>
       <use style="stroke:#000000;stroke-width:0.8;" x="175.443834" xlink:href="#mdd1ab321b9" y="108.304533"/>
      </g>
     </g>
    </g>
    <g id="xtick_5">
     <g id="line2d_9">
      <path clip-path="url(#p8f44cc47bc)" d="M 224.219511 108.304533 
L 224.219511 23.36505 
" style="fill:none;stroke:#b0b0b0;stroke-linecap:square;stroke-width:0.8;"/>
     </g>
     <g id="line2d_10">
      <g>
       <use style="stroke:#000000;stroke-width:0.8;" x="224.219511" xlink:href="#mdd1ab321b9" y="108.304533"/>
      </g>
     </g>
    </g>
    <g id="xtick_6">
     <g id="line2d_11">
      <path clip-path="url(#p8f44cc47bc)" d="M 272.928464 108.304533 
L 272.928464 23.36505 
" style="fill:none;stroke:#b0b0b0;stroke-linecap:square;stroke-width:0.8;"/>
     </g>
     <g id="line2d_12">
      <g>
       <use style="stroke:#000000;stroke-width:0.8;" x="272.928464" xlink:href="#mdd1ab321b9" y="108.304533"/>
      </g>
     </g>
    </g>
    <g id="xtick_7">
     <g id="line2d_13">
      <path clip-path="url(#p8f44cc47bc)" d="M 321.704142 108.304533 
L 321.704142 23.36505 
" style="fill:none;stroke:#b0b0b0;stroke-linecap:square;stroke-width:0.8;"/>
     </g>
     <g id="line2d_14">
      <g>
       <use style="stroke:#000000;stroke-width:0.8;" x="321.704142" xlink:href="#mdd1ab321b9" y="108.304533"/>
      </g>
     </g>
    </g>
    <g id="xtick_8">
     <g id="line2d_15">
      <path clip-path="url(#p8f44cc47bc)" d="M 370.413095 108.304533 
L 370.413095 23.36505 
" style="fill:none;stroke:#b0b0b0;stroke-linecap:square;stroke-width:0.8;"/>
     </g>
     <g id="line2d_16">
      <g>
       <use style="stroke:#000000;stroke-width:0.8;" x="370.413095" xlink:href="#mdd1ab321b9" y="108.304533"/>
      </g>
     </g>
    </g>
    <g id="xtick_9">
     <g id="line2d_17">
      <path clip-path="url(#p8f44cc47bc)" d="M 419.188772 108.304533 
L 419.188772 23.36505 
" style="fill:none;stroke:#b0b0b0;stroke-linecap:square;stroke-width:0.8;"/>
     </g>
     <g id="line2d_18">
      <g>
       <use style="stroke:#000000;stroke-width:0.8;" x="419.188772" xlink:href="#mdd1ab321b9" y="108.304533"/>
      </g>
     </g>
    </g>
   </g>
   <g id="matplotlib.axis_2">
    <g id="ytick_1">
     <g id="line2d_19">
      <path clip-path="url(#p8f44cc47bc)" d="M 29.25025 104.443648 
L 447.48 104.443648 
" style="fill:none;stroke:#b0b0b0;stroke-linecap:square;stroke-width:0.8;"/>
     </g>
     <g id="line2d_20">
      <defs>
       <path d="M 0 0 
L -3.5 0 
" id="mfbbe26bc3f" style="stroke:#000000;stroke-width:0.8;"/>
      </defs>
      <g>
       <use style="stroke:#000000;stroke-width:0.8;" x="29.25025" xlink:href="#mfbbe26bc3f" y="104.443648"/>
      </g>
     </g>
     <g id="text_1">
      <!-- 0.0 -->
      <defs>
       <path d="M 31.78125 66.40625 
Q 24.171875 66.40625 20.328125 58.90625 
Q 16.5 51.421875 16.5 36.375 
Q 16.5 21.390625 20.328125 13.890625 
Q 24.171875 6.390625 31.78125 6.390625 
Q 39.453125 6.390625 43.28125 13.890625 
Q 47.125 21.390625 47.125 36.375 
Q 47.125 51.421875 43.28125 58.90625 
Q 39.453125 66.40625 31.78125 66.40625 
z
M 31.78125 74.21875 
Q 44.046875 74.21875 50.515625 64.515625 
Q 56.984375 54.828125 56.984375 36.375 
Q 56.984375 17.96875 50.515625 8.265625 
Q 44.046875 -1.421875 31.78125 -1.421875 
Q 19.53125 -1.421875 13.0625 8.265625 
Q 6.59375 17.96875 6.59375 36.375 
Q 6.59375 54.828125 13.0625 64.515625 
Q 19.53125 74.21875 31.78125 74.21875 
z
" id="DejaVuSans-30"/>
       <path d="M 10.6875 12.40625 
L 21 12.40625 
L 21 0 
L 10.6875 0 
z
" id="DejaVuSans-2e"/>
      </defs>
      <g transform="translate(6.347125 108.242866)scale(0.1 -0.1)">
       <use xlink:href="#DejaVuSans-30"/>
       <use x="63.623047" xlink:href="#DejaVuSans-2e"/>
       <use x="95.410156" xlink:href="#DejaVuSans-30"/>
      </g>
     </g>
    </g>
    <g id="ytick_2">
     <g id="line2d_21">
      <path clip-path="url(#p8f44cc47bc)" d="M 29.25025 78.70441 
L 447.48 78.70441 
" style="fill:none;stroke:#b0b0b0;stroke-linecap:square;stroke-width:0.8;"/>
     </g>
     <g id="line2d_22">
      <g>
       <use style="stroke:#000000;stroke-width:0.8;" x="29.25025" xlink:href="#mfbbe26bc3f" y="78.70441"/>
      </g>
     </g>
     <g id="text_2">
      <!-- 0.2 -->
      <defs>
       <path d="M 19.1875 8.296875 
L 53.609375 8.296875 
L 53.609375 0 
L 7.328125 0 
L 7.328125 8.296875 
Q 12.9375 14.109375 22.625 23.890625 
Q 32.328125 33.6875 34.8125 36.53125 
Q 39.546875 41.84375 41.421875 45.53125 
Q 43.3125 49.21875 43.3125 52.78125 
Q 43.3125 58.59375 39.234375 62.25 
Q 35.15625 65.921875 28.609375 65.921875 
Q 23.96875 65.921875 18.8125 64.3125 
Q 13.671875 62.703125 7.8125 59.421875 
L 7.8125 69.390625 
Q 13.765625 71.78125 18.9375 73 
Q 24.125 74.21875 28.421875 74.21875 
Q 39.75 74.21875 46.484375 68.546875 
Q 53.21875 62.890625 53.21875 53.421875 
Q 53.21875 48.921875 51.53125 44.890625 
Q 49.859375 40.875 45.40625 35.40625 
Q 44.1875 33.984375 37.640625 27.21875 
Q 31.109375 20.453125 19.1875 8.296875 
z
" id="DejaVuSans-32"/>
      </defs>
      <g transform="translate(6.347125 82.503629)scale(0.1 -0.1)">
       <use xlink:href="#DejaVuSans-30"/>
       <use x="63.623047" xlink:href="#DejaVuSans-2e"/>
       <use x="95.410156" xlink:href="#DejaVuSans-32"/>
      </g>
     </g>
    </g>
    <g id="ytick_3">
     <g id="line2d_23">
      <path clip-path="url(#p8f44cc47bc)" d="M 29.25025 52.965173 
L 447.48 52.965173 
" style="fill:none;stroke:#b0b0b0;stroke-linecap:square;stroke-width:0.8;"/>
     </g>
     <g id="line2d_24">
      <g>
       <use style="stroke:#000000;stroke-width:0.8;" x="29.25025" xlink:href="#mfbbe26bc3f" y="52.965173"/>
      </g>
     </g>
     <g id="text_3">
      <!-- 0.4 -->
      <defs>
       <path d="M 37.796875 64.3125 
L 12.890625 25.390625 
L 37.796875 25.390625 
z
M 35.203125 72.90625 
L 47.609375 72.90625 
L 47.609375 25.390625 
L 58.015625 25.390625 
L 58.015625 17.1875 
L 47.609375 17.1875 
L 47.609375 0 
L 37.796875 0 
L 37.796875 17.1875 
L 4.890625 17.1875 
L 4.890625 26.703125 
z
" id="DejaVuSans-34"/>
      </defs>
      <g transform="translate(6.347125 56.764392)scale(0.1 -0.1)">
       <use xlink:href="#DejaVuSans-30"/>
       <use x="63.623047" xlink:href="#DejaVuSans-2e"/>
       <use x="95.410156" xlink:href="#DejaVuSans-34"/>
      </g>
     </g>
    </g>
    <g id="ytick_4">
     <g id="line2d_25">
      <path clip-path="url(#p8f44cc47bc)" d="M 29.25025 27.225936 
L 447.48 27.225936 
" style="fill:none;stroke:#b0b0b0;stroke-linecap:square;stroke-width:0.8;"/>
     </g>
     <g id="line2d_26">
      <g>
       <use style="stroke:#000000;stroke-width:0.8;" x="29.25025" xlink:href="#mfbbe26bc3f" y="27.225936"/>
      </g>
     </g>
     <g id="text_4">
      <!-- 0.6 -->
      <defs>
       <path d="M 33.015625 40.375 
Q 26.375 40.375 22.484375 35.828125 
Q 18.609375 31.296875 18.609375 23.390625 
Q 18.609375 15.53125 22.484375 10.953125 
Q 26.375 6.390625 33.015625 6.390625 
Q 39.65625 6.390625 43.53125 10.953125 
Q 47.40625 15.53125 47.40625 23.390625 
Q 47.40625 31.296875 43.53125 35.828125 
Q 39.65625 40.375 33.015625 40.375 
z
M 52.59375 71.296875 
L 52.59375 62.3125 
Q 48.875 64.0625 45.09375 64.984375 
Q 41.3125 65.921875 37.59375 65.921875 
Q 27.828125 65.921875 22.671875 59.328125 
Q 17.53125 52.734375 16.796875 39.40625 
Q 19.671875 43.65625 24.015625 45.921875 
Q 28.375 48.1875 33.59375 48.1875 
Q 44.578125 48.1875 50.953125 41.515625 
Q 57.328125 34.859375 57.328125 23.390625 
Q 57.328125 12.15625 50.6875 5.359375 
Q 44.046875 -1.421875 33.015625 -1.421875 
Q 20.359375 -1.421875 13.671875 8.265625 
Q 6.984375 17.96875 6.984375 36.375 
Q 6.984375 53.65625 15.1875 63.9375 
Q 23.390625 74.21875 37.203125 74.21875 
Q 40.921875 74.21875 44.703125 73.484375 
Q 48.484375 72.75 52.59375 71.296875 
z
" id="DejaVuSans-36"/>
      </defs>
      <g transform="translate(6.347125 31.025154)scale(0.1 -0.1)">
       <use xlink:href="#DejaVuSans-30"/>
       <use x="63.623047" xlink:href="#DejaVuSans-2e"/>
       <use x="95.410156" xlink:href="#DejaVuSans-36"/>
      </g>
     </g>
    </g>
   </g>
   <g id="line2d_27">
    <path clip-path="url(#p8f44cc47bc)" d="M 29.25025 73.556563 
L 31.318712 87.713143 
L 33.187001 79.991372 
L 35.255463 76.130487 
L 37.257201 81.278334 
L 39.325664 87.713143 
L 41.327401 83.852258 
L 43.395864 87.713143 
L 45.464326 95.434915 
L 47.466064 86.426182 
L 49.534526 76.130487 
L 51.536264 81.278334 
L 53.604727 78.70441 
L 55.673189 78.70441 
L 57.541478 82.565296 
L 59.60994 104.443648 
L 61.611678 103.156686 
L 63.68014 98.008838 
L 65.681878 95.434915 
L 67.75034 99.2958 
L 69.818803 90.287067 
L 71.82054 95.434915 
L 73.889003 104.443648 
L 75.890741 79.991372 
L 77.959203 94.147953 
L 80.027665 90.287067 
L 81.895954 86.426182 
L 83.964416 90.287067 
L 85.966154 98.008838 
L 88.034617 101.869724 
L 92.104817 94.147953 
L 94.173279 69.695677 
L 96.175017 74.843525 
L 98.243479 77.417448 
L 100.245217 76.130487 
L 102.31368 82.565296 
L 104.382142 79.991372 
L 106.317155 78.70441 
L 108.385618 89.000105 
L 110.387355 90.287067 
L 112.455818 90.287067 
L 114.457555 69.695677 
L 116.526018 63.260868 
L 118.59448 74.843525 
L 120.596218 76.130487 
L 122.66468 73.556563 
L 124.666418 76.130487 
L 126.734881 72.269601 
L 128.803343 79.991372 
L 130.671632 74.843525 
L 132.740094 77.417448 
L 136.810294 79.991372 
L 138.812032 70.982639 
L 144.950695 74.843525 
L 147.019157 72.269601 
L 149.020895 73.556563 
L 151.089357 81.278334 
L 157.094571 81.278334 
L 159.096308 77.417448 
L 161.164771 74.843525 
L 163.166508 61.973906 
L 165.234971 70.982639 
L 167.303433 65.834792 
L 169.305171 74.843525 
L 171.373633 76.130487 
L 173.375371 69.695677 
L 175.443834 65.834792 
L 177.512296 76.130487 
L 179.380585 77.417448 
L 181.449047 90.287067 
L 183.450785 77.417448 
L 185.519247 72.269601 
L 189.589447 67.121754 
L 193.659648 74.843525 
L 195.72811 76.130487 
L 197.729848 73.556563 
L 201.866773 63.260868 
L 203.801786 74.843525 
L 205.870248 72.269601 
L 207.871986 70.982639 
L 209.940448 70.982639 
L 211.942186 73.556563 
L 214.010648 67.121754 
L 216.079111 68.408715 
L 218.080849 77.417448 
L 220.149311 76.130487 
L 222.151049 76.130487 
L 224.219511 74.843525 
L 226.287974 77.417448 
L 228.156262 27.225936 
L 230.224725 82.565296 
L 232.226462 82.565296 
L 234.294925 83.852258 
L 236.296663 73.556563 
L 238.365125 65.834792 
L 240.433587 61.973906 
L 242.435325 70.982639 
L 244.503788 77.417448 
L 246.505525 73.556563 
L 248.573988 77.417448 
L 250.64245 74.843525 
L 252.510739 77.417448 
L 254.579201 83.852258 
L 256.580939 79.991372 
L 258.649401 78.70441 
L 260.651139 76.130487 
L 262.719602 74.843525 
L 264.788064 69.695677 
L 266.789802 74.843525 
L 268.858264 76.130487 
L 270.860002 78.70441 
L 272.928464 79.991372 
L 274.996927 78.70441 
L 276.865215 83.852258 
L 278.933678 79.991372 
L 280.935415 78.70441 
L 283.003878 78.70441 
L 285.005616 76.130487 
L 287.074078 77.417448 
L 289.14254 68.408715 
L 291.144278 76.130487 
L 295.214478 76.130487 
L 297.282941 77.417448 
L 299.351403 77.417448 
L 301.286416 79.991372 
L 305.356617 79.991372 
L 307.425079 72.269601 
L 309.426817 74.843525 
L 311.495279 67.121754 
L 313.563742 72.269601 
L 317.633942 74.843525 
L 319.635679 73.556563 
L 321.704142 77.417448 
L 323.772604 77.417448 
L 325.640893 78.70441 
L 327.709355 79.991372 
L 329.711093 78.70441 
L 331.779555 69.695677 
L 333.781293 55.539097 
L 335.849756 64.54783 
L 337.918218 67.121754 
L 339.919956 76.130487 
L 341.988418 73.556563 
L 343.990156 63.260868 
L 346.058618 73.556563 
L 348.127081 78.70441 
L 349.995369 76.130487 
L 352.063832 77.417448 
L 354.06557 79.991372 
L 356.134032 74.843525 
L 358.13577 73.556563 
L 360.204232 73.556563 
L 362.272695 70.982639 
L 364.274432 70.982639 
L 366.342895 82.565296 
L 368.344632 73.556563 
L 370.413095 70.982639 
L 372.481557 72.269601 
L 374.349846 78.70441 
L 376.418308 74.843525 
L 378.420046 74.843525 
L 380.488508 67.121754 
L 382.490246 68.408715 
L 384.558709 63.260868 
L 386.627171 68.408715 
L 388.628909 69.695677 
L 390.697371 65.834792 
L 392.699109 47.817326 
L 394.767571 69.695677 
L 396.836034 86.426182 
L 398.771047 99.2958 
L 400.839509 91.574029 
L 402.841247 76.130487 
L 404.90971 65.834792 
L 406.911447 67.121754 
L 408.97991 67.121754 
L 411.048372 72.269601 
L 413.05011 76.130487 
L 415.118572 78.70441 
L 417.12031 59.399982 
L 419.188772 73.556563 
L 421.257235 77.417448 
L 423.125523 77.417448 
L 425.193986 79.991372 
L 427.195724 77.417448 
L 429.264186 100.582762 
L 431.265924 104.443648 
L 433.334386 79.991372 
L 435.402849 73.556563 
L 437.404586 77.417448 
L 439.473049 70.982639 
L 441.474787 46.530364 
L 443.543249 70.982639 
L 447.48 73.556563 
L 447.48 73.556563 
" style="fill:none;stroke:#008000;stroke-linecap:square;stroke-width:1.5;"/>
   </g>
   <g id="patch_3">
    <path d="M 29.25025 108.304533 
L 29.25025 23.36505 
" style="fill:none;stroke:#000000;stroke-linecap:square;stroke-linejoin:miter;stroke-width:0.8;"/>
   </g>
   <g id="patch_4">
    <path d="M 447.48 108.304533 
L 447.48 23.36505 
" style="fill:none;stroke:#000000;stroke-linecap:square;stroke-linejoin:miter;stroke-width:0.8;"/>
   </g>
   <g id="patch_5">
    <path d="M 29.25025 108.304533 
L 447.48 108.304533 
" style="fill:none;stroke:#000000;stroke-linecap:square;stroke-linejoin:miter;stroke-width:0.8;"/>
   </g>
   <g id="patch_6">
    <path d="M 29.25025 23.36505 
L 447.48 23.36505 
" style="fill:none;stroke:#000000;stroke-linecap:square;stroke-linejoin:miter;stroke-width:0.8;"/>
   </g>
   <g id="text_5">
    <!-- Mean hourly emissions -->
    <defs>
     <path d="M 9.8125 72.90625 
L 24.515625 72.90625 
L 43.109375 23.296875 
L 61.8125 72.90625 
L 76.515625 72.90625 
L 76.515625 0 
L 66.890625 0 
L 66.890625 64.015625 
L 48.09375 14.015625 
L 38.1875 14.015625 
L 19.390625 64.015625 
L 19.390625 0 
L 9.8125 0 
z
" id="DejaVuSans-4d"/>
     <path d="M 56.203125 29.59375 
L 56.203125 25.203125 
L 14.890625 25.203125 
Q 15.484375 15.921875 20.484375 11.0625 
Q 25.484375 6.203125 34.421875 6.203125 
Q 39.59375 6.203125 44.453125 7.46875 
Q 49.3125 8.734375 54.109375 11.28125 
L 54.109375 2.78125 
Q 49.265625 0.734375 44.1875 -0.34375 
Q 39.109375 -1.421875 33.890625 -1.421875 
Q 20.796875 -1.421875 13.15625 6.1875 
Q 5.515625 13.8125 5.515625 26.8125 
Q 5.515625 40.234375 12.765625 48.109375 
Q 20.015625 56 32.328125 56 
Q 43.359375 56 49.78125 48.890625 
Q 56.203125 41.796875 56.203125 29.59375 
z
M 47.21875 32.234375 
Q 47.125 39.59375 43.09375 43.984375 
Q 39.0625 48.390625 32.421875 48.390625 
Q 24.90625 48.390625 20.390625 44.140625 
Q 15.875 39.890625 15.1875 32.171875 
z
" id="DejaVuSans-65"/>
     <path d="M 34.28125 27.484375 
Q 23.390625 27.484375 19.1875 25 
Q 14.984375 22.515625 14.984375 16.5 
Q 14.984375 11.71875 18.140625 8.90625 
Q 21.296875 6.109375 26.703125 6.109375 
Q 34.1875 6.109375 38.703125 11.40625 
Q 43.21875 16.703125 43.21875 25.484375 
L 43.21875 27.484375 
z
M 52.203125 31.203125 
L 52.203125 0 
L 43.21875 0 
L 43.21875 8.296875 
Q 40.140625 3.328125 35.546875 0.953125 
Q 30.953125 -1.421875 24.3125 -1.421875 
Q 15.921875 -1.421875 10.953125 3.296875 
Q 6 8.015625 6 15.921875 
Q 6 25.140625 12.171875 29.828125 
Q 18.359375 34.515625 30.609375 34.515625 
L 43.21875 34.515625 
L 43.21875 35.40625 
Q 43.21875 41.609375 39.140625 45 
Q 35.0625 48.390625 27.6875 48.390625 
Q 23 48.390625 18.546875 47.265625 
Q 14.109375 46.140625 10.015625 43.890625 
L 10.015625 52.203125 
Q 14.9375 54.109375 19.578125 55.046875 
Q 24.21875 56 28.609375 56 
Q 40.484375 56 46.34375 49.84375 
Q 52.203125 43.703125 52.203125 31.203125 
z
" id="DejaVuSans-61"/>
     <path d="M 54.890625 33.015625 
L 54.890625 0 
L 45.90625 0 
L 45.90625 32.71875 
Q 45.90625 40.484375 42.875 44.328125 
Q 39.84375 48.1875 33.796875 48.1875 
Q 26.515625 48.1875 22.3125 43.546875 
Q 18.109375 38.921875 18.109375 30.90625 
L 18.109375 0 
L 9.078125 0 
L 9.078125 54.6875 
L 18.109375 54.6875 
L 18.109375 46.1875 
Q 21.34375 51.125 25.703125 53.5625 
Q 30.078125 56 35.796875 56 
Q 45.21875 56 50.046875 50.171875 
Q 54.890625 44.34375 54.890625 33.015625 
z
" id="DejaVuSans-6e"/>
     <path id="DejaVuSans-20"/>
     <path d="M 54.890625 33.015625 
L 54.890625 0 
L 45.90625 0 
L 45.90625 32.71875 
Q 45.90625 40.484375 42.875 44.328125 
Q 39.84375 48.1875 33.796875 48.1875 
Q 26.515625 48.1875 22.3125 43.546875 
Q 18.109375 38.921875 18.109375 30.90625 
L 18.109375 0 
L 9.078125 0 
L 9.078125 75.984375 
L 18.109375 75.984375 
L 18.109375 46.1875 
Q 21.34375 51.125 25.703125 53.5625 
Q 30.078125 56 35.796875 56 
Q 45.21875 56 50.046875 50.171875 
Q 54.890625 44.34375 54.890625 33.015625 
z
" id="DejaVuSans-68"/>
     <path d="M 30.609375 48.390625 
Q 23.390625 48.390625 19.1875 42.75 
Q 14.984375 37.109375 14.984375 27.296875 
Q 14.984375 17.484375 19.15625 11.84375 
Q 23.34375 6.203125 30.609375 6.203125 
Q 37.796875 6.203125 41.984375 11.859375 
Q 46.1875 17.53125 46.1875 27.296875 
Q 46.1875 37.015625 41.984375 42.703125 
Q 37.796875 48.390625 30.609375 48.390625 
z
M 30.609375 56 
Q 42.328125 56 49.015625 48.375 
Q 55.71875 40.765625 55.71875 27.296875 
Q 55.71875 13.875 49.015625 6.21875 
Q 42.328125 -1.421875 30.609375 -1.421875 
Q 18.84375 -1.421875 12.171875 6.21875 
Q 5.515625 13.875 5.515625 27.296875 
Q 5.515625 40.765625 12.171875 48.375 
Q 18.84375 56 30.609375 56 
z
" id="DejaVuSans-6f"/>
     <path d="M 8.5 21.578125 
L 8.5 54.6875 
L 17.484375 54.6875 
L 17.484375 21.921875 
Q 17.484375 14.15625 20.5 10.265625 
Q 23.53125 6.390625 29.59375 6.390625 
Q 36.859375 6.390625 41.078125 11.03125 
Q 45.3125 15.671875 45.3125 23.6875 
L 45.3125 54.6875 
L 54.296875 54.6875 
L 54.296875 0 
L 45.3125 0 
L 45.3125 8.40625 
Q 42.046875 3.421875 37.71875 1 
Q 33.40625 -1.421875 27.6875 -1.421875 
Q 18.265625 -1.421875 13.375 4.4375 
Q 8.5 10.296875 8.5 21.578125 
z
M 31.109375 56 
z
" id="DejaVuSans-75"/>
     <path d="M 41.109375 46.296875 
Q 39.59375 47.171875 37.8125 47.578125 
Q 36.03125 48 33.890625 48 
Q 26.265625 48 22.1875 43.046875 
Q 18.109375 38.09375 18.109375 28.8125 
L 18.109375 0 
L 9.078125 0 
L 9.078125 54.6875 
L 18.109375 54.6875 
L 18.109375 46.1875 
Q 20.953125 51.171875 25.484375 53.578125 
Q 30.03125 56 36.53125 56 
Q 37.453125 56 38.578125 55.875 
Q 39.703125 55.765625 41.0625 55.515625 
z
" id="DejaVuSans-72"/>
     <path d="M 9.421875 75.984375 
L 18.40625 75.984375 
L 18.40625 0 
L 9.421875 0 
z
" id="DejaVuSans-6c"/>
     <path d="M 32.171875 -5.078125 
Q 28.375 -14.84375 24.75 -17.8125 
Q 21.140625 -20.796875 15.09375 -20.796875 
L 7.90625 -20.796875 
L 7.90625 -13.28125 
L 13.1875 -13.28125 
Q 16.890625 -13.28125 18.9375 -11.515625 
Q 21 -9.765625 23.484375 -3.21875 
L 25.09375 0.875 
L 2.984375 54.6875 
L 12.5 54.6875 
L 29.59375 11.921875 
L 46.6875 54.6875 
L 56.203125 54.6875 
z
" id="DejaVuSans-79"/>
     <path d="M 52 44.1875 
Q 55.375 50.25 60.0625 53.125 
Q 64.75 56 71.09375 56 
Q 79.640625 56 84.28125 50.015625 
Q 88.921875 44.046875 88.921875 33.015625 
L 88.921875 0 
L 79.890625 0 
L 79.890625 32.71875 
Q 79.890625 40.578125 77.09375 44.375 
Q 74.3125 48.1875 68.609375 48.1875 
Q 61.625 48.1875 57.5625 43.546875 
Q 53.515625 38.921875 53.515625 30.90625 
L 53.515625 0 
L 44.484375 0 
L 44.484375 32.71875 
Q 44.484375 40.625 41.703125 44.40625 
Q 38.921875 48.1875 33.109375 48.1875 
Q 26.21875 48.1875 22.15625 43.53125 
Q 18.109375 38.875 18.109375 30.90625 
L 18.109375 0 
L 9.078125 0 
L 9.078125 54.6875 
L 18.109375 54.6875 
L 18.109375 46.1875 
Q 21.1875 51.21875 25.484375 53.609375 
Q 29.78125 56 35.6875 56 
Q 41.65625 56 45.828125 52.96875 
Q 50 49.953125 52 44.1875 
z
" id="DejaVuSans-6d"/>
     <path d="M 9.421875 54.6875 
L 18.40625 54.6875 
L 18.40625 0 
L 9.421875 0 
z
M 9.421875 75.984375 
L 18.40625 75.984375 
L 18.40625 64.59375 
L 9.421875 64.59375 
z
" id="DejaVuSans-69"/>
     <path d="M 44.28125 53.078125 
L 44.28125 44.578125 
Q 40.484375 46.53125 36.375 47.5 
Q 32.28125 48.484375 27.875 48.484375 
Q 21.1875 48.484375 17.84375 46.4375 
Q 14.5 44.390625 14.5 40.28125 
Q 14.5 37.15625 16.890625 35.375 
Q 19.28125 33.59375 26.515625 31.984375 
L 29.59375 31.296875 
Q 39.15625 29.25 43.1875 25.515625 
Q 47.21875 21.78125 47.21875 15.09375 
Q 47.21875 7.46875 41.1875 3.015625 
Q 35.15625 -1.421875 24.609375 -1.421875 
Q 20.21875 -1.421875 15.453125 -0.5625 
Q 10.6875 0.296875 5.421875 2 
L 5.421875 11.28125 
Q 10.40625 8.6875 15.234375 7.390625 
Q 20.0625 6.109375 24.8125 6.109375 
Q 31.15625 6.109375 34.5625 8.28125 
Q 37.984375 10.453125 37.984375 14.40625 
Q 37.984375 18.0625 35.515625 20.015625 
Q 33.0625 21.96875 24.703125 23.78125 
L 21.578125 24.515625 
Q 13.234375 26.265625 9.515625 29.90625 
Q 5.8125 33.546875 5.8125 39.890625 
Q 5.8125 47.609375 11.28125 51.796875 
Q 16.75 56 26.8125 56 
Q 31.78125 56 36.171875 55.265625 
Q 40.578125 54.546875 44.28125 53.078125 
z
" id="DejaVuSans-73"/>
    </defs>
    <g transform="translate(169.521688 17.36505)scale(0.12 -0.12)">
     <use xlink:href="#DejaVuSans-4d"/>
     <use x="86.279297" xlink:href="#DejaVuSans-65"/>
     <use x="147.802734" xlink:href="#DejaVuSans-61"/>
     <use x="209.082031" xlink:href="#DejaVuSans-6e"/>
     <use x="272.460938" xlink:href="#DejaVuSans-20"/>
     <use x="304.248047" xlink:href="#DejaVuSans-68"/>
     <use x="367.626953" xlink:href="#DejaVuSans-6f"/>
     <use x="428.808594" xlink:href="#DejaVuSans-75"/>
     <use x="492.1875" xlink:href="#DejaVuSans-72"/>
     <use x="533.300781" xlink:href="#DejaVuSans-6c"/>
     <use x="561.083984" xlink:href="#DejaVuSans-79"/>
     <use x="620.263672" xlink:href="#DejaVuSans-20"/>
     <use x="652.050781" xlink:href="#DejaVuSans-65"/>
     <use x="713.574219" xlink:href="#DejaVuSans-6d"/>
     <use x="810.986328" xlink:href="#DejaVuSans-69"/>
     <use x="838.769531" xlink:href="#DejaVuSans-73"/>
     <use x="890.869141" xlink:href="#DejaVuSans-73"/>
     <use x="942.96875" xlink:href="#DejaVuSans-69"/>
     <use x="970.751953" xlink:href="#DejaVuSans-6f"/>
     <use x="1031.933594" xlink:href="#DejaVuSans-6e"/>
     <use x="1095.3125" xlink:href="#DejaVuSans-73"/>
    </g>
   </g>
   <g id="legend_1">
    <g id="patch_7">
     <path d="M 362.58 46.043175 
L 440.48 46.043175 
Q 442.48 46.043175 442.48 44.043175 
L 442.48 30.36505 
Q 442.48 28.36505 440.48 28.36505 
L 362.58 28.36505 
Q 360.58 28.36505 360.58 30.36505 
L 360.58 44.043175 
Q 360.58 46.043175 362.58 46.043175 
z
" style="fill:#ffffff;opacity:0.8;stroke:#cccccc;stroke-linejoin:miter;"/>
    </g>
    <g id="line2d_28">
     <path d="M 364.58 36.463488 
L 384.58 36.463488 
" style="fill:none;stroke:#008000;stroke-linecap:square;stroke-width:1.5;"/>
    </g>
    <g id="line2d_29"/>
    <g id="text_6">
     <!-- SO2 (lbs) -->
     <defs>
      <path d="M 53.515625 70.515625 
L 53.515625 60.890625 
Q 47.90625 63.578125 42.921875 64.890625 
Q 37.9375 66.21875 33.296875 66.21875 
Q 25.25 66.21875 20.875 63.09375 
Q 16.5 59.96875 16.5 54.203125 
Q 16.5 49.359375 19.40625 46.890625 
Q 22.3125 44.4375 30.421875 42.921875 
L 36.375 41.703125 
Q 47.40625 39.59375 52.65625 34.296875 
Q 57.90625 29 57.90625 20.125 
Q 57.90625 9.515625 50.796875 4.046875 
Q 43.703125 -1.421875 29.984375 -1.421875 
Q 24.8125 -1.421875 18.96875 -0.25 
Q 13.140625 0.921875 6.890625 3.21875 
L 6.890625 13.375 
Q 12.890625 10.015625 18.65625 8.296875 
Q 24.421875 6.59375 29.984375 6.59375 
Q 38.421875 6.59375 43.015625 9.90625 
Q 47.609375 13.234375 47.609375 19.390625 
Q 47.609375 24.75 44.3125 27.78125 
Q 41.015625 30.8125 33.5 32.328125 
L 27.484375 33.5 
Q 16.453125 35.6875 11.515625 40.375 
Q 6.59375 45.0625 6.59375 53.421875 
Q 6.59375 63.09375 13.40625 68.65625 
Q 20.21875 74.21875 32.171875 74.21875 
Q 37.3125 74.21875 42.625 73.28125 
Q 47.953125 72.359375 53.515625 70.515625 
z
" id="DejaVuSans-53"/>
      <path d="M 39.40625 66.21875 
Q 28.65625 66.21875 22.328125 58.203125 
Q 16.015625 50.203125 16.015625 36.375 
Q 16.015625 22.609375 22.328125 14.59375 
Q 28.65625 6.59375 39.40625 6.59375 
Q 50.140625 6.59375 56.421875 14.59375 
Q 62.703125 22.609375 62.703125 36.375 
Q 62.703125 50.203125 56.421875 58.203125 
Q 50.140625 66.21875 39.40625 66.21875 
z
M 39.40625 74.21875 
Q 54.734375 74.21875 63.90625 63.9375 
Q 73.09375 53.65625 73.09375 36.375 
Q 73.09375 19.140625 63.90625 8.859375 
Q 54.734375 -1.421875 39.40625 -1.421875 
Q 24.03125 -1.421875 14.8125 8.828125 
Q 5.609375 19.09375 5.609375 36.375 
Q 5.609375 53.65625 14.8125 63.9375 
Q 24.03125 74.21875 39.40625 74.21875 
z
" id="DejaVuSans-4f"/>
      <path d="M 31 75.875 
Q 24.46875 64.65625 21.28125 53.65625 
Q 18.109375 42.671875 18.109375 31.390625 
Q 18.109375 20.125 21.3125 9.0625 
Q 24.515625 -2 31 -13.1875 
L 23.1875 -13.1875 
Q 15.875 -1.703125 12.234375 9.375 
Q 8.59375 20.453125 8.59375 31.390625 
Q 8.59375 42.28125 12.203125 53.3125 
Q 15.828125 64.359375 23.1875 75.875 
z
" id="DejaVuSans-28"/>
      <path d="M 48.6875 27.296875 
Q 48.6875 37.203125 44.609375 42.84375 
Q 40.53125 48.484375 33.40625 48.484375 
Q 26.265625 48.484375 22.1875 42.84375 
Q 18.109375 37.203125 18.109375 27.296875 
Q 18.109375 17.390625 22.1875 11.75 
Q 26.265625 6.109375 33.40625 6.109375 
Q 40.53125 6.109375 44.609375 11.75 
Q 48.6875 17.390625 48.6875 27.296875 
z
M 18.109375 46.390625 
Q 20.953125 51.265625 25.265625 53.625 
Q 29.59375 56 35.59375 56 
Q 45.5625 56 51.78125 48.09375 
Q 58.015625 40.1875 58.015625 27.296875 
Q 58.015625 14.40625 51.78125 6.484375 
Q 45.5625 -1.421875 35.59375 -1.421875 
Q 29.59375 -1.421875 25.265625 0.953125 
Q 20.953125 3.328125 18.109375 8.203125 
L 18.109375 0 
L 9.078125 0 
L 9.078125 75.984375 
L 18.109375 75.984375 
z
" id="DejaVuSans-62"/>
      <path d="M 8.015625 75.875 
L 15.828125 75.875 
Q 23.140625 64.359375 26.78125 53.3125 
Q 30.421875 42.28125 30.421875 31.390625 
Q 30.421875 20.453125 26.78125 9.375 
Q 23.140625 -1.703125 15.828125 -13.1875 
L 8.015625 -13.1875 
Q 14.5 -2 17.703125 9.0625 
Q 20.90625 20.125 20.90625 31.390625 
Q 20.90625 42.671875 17.703125 53.65625 
Q 14.5 64.65625 8.015625 75.875 
z
" id="DejaVuSans-29"/>
     </defs>
     <g transform="translate(392.58 39.963488)scale(0.1 -0.1)">
      <use xlink:href="#DejaVuSans-53"/>
      <use x="63.476562" xlink:href="#DejaVuSans-4f"/>
      <use x="142.1875" xlink:href="#DejaVuSans-32"/>
      <use x="205.810547" xlink:href="#DejaVuSans-20"/>
      <use x="237.597656" xlink:href="#DejaVuSans-28"/>
      <use x="276.611328" xlink:href="#DejaVuSans-6c"/>
      <use x="304.394531" xlink:href="#DejaVuSans-62"/>
      <use x="367.871094" xlink:href="#DejaVuSans-73"/>
      <use x="419.970703" xlink:href="#DejaVuSans-29"/>
     </g>
    </g>
   </g>
  </g>
  <g id="axes_2">
   <g id="patch_8">
    <path d="M 29.25025 209.084017 
L 447.48 209.084017 
L 447.48 124.144533 
L 29.25025 124.144533 
z
" style="fill:none;"/>
   </g>
   <g id="matplotlib.axis_3">
    <g id="xtick_10">
     <g id="line2d_30">
      <path clip-path="url(#p43b550f998)" d="M 29.25025 209.084017 
L 29.25025 124.144533 
" style="fill:none;stroke:#b0b0b0;stroke-linecap:square;stroke-width:0.8;"/>
     </g>
     <g id="line2d_31">
      <g>
       <use style="stroke:#000000;stroke-width:0.8;" x="29.25025" xlink:href="#mdd1ab321b9" y="209.084017"/>
      </g>
     </g>
    </g>
    <g id="xtick_11">
     <g id="line2d_32">
      <path clip-path="url(#p43b550f998)" d="M 77.959203 209.084017 
L 77.959203 124.144533 
" style="fill:none;stroke:#b0b0b0;stroke-linecap:square;stroke-width:0.8;"/>
     </g>
     <g id="line2d_33">
      <g>
       <use style="stroke:#000000;stroke-width:0.8;" x="77.959203" xlink:href="#mdd1ab321b9" y="209.084017"/>
      </g>
     </g>
    </g>
    <g id="xtick_12">
     <g id="line2d_34">
      <path clip-path="url(#p43b550f998)" d="M 126.734881 209.084017 
L 126.734881 124.144533 
" style="fill:none;stroke:#b0b0b0;stroke-linecap:square;stroke-width:0.8;"/>
     </g>
     <g id="line2d_35">
      <g>
       <use style="stroke:#000000;stroke-width:0.8;" x="126.734881" xlink:href="#mdd1ab321b9" y="209.084017"/>
      </g>
     </g>
    </g>
    <g id="xtick_13">
     <g id="line2d_36">
      <path clip-path="url(#p43b550f998)" d="M 175.443834 209.084017 
L 175.443834 124.144533 
" style="fill:none;stroke:#b0b0b0;stroke-linecap:square;stroke-width:0.8;"/>
     </g>
     <g id="line2d_37">
      <g>
       <use style="stroke:#000000;stroke-width:0.8;" x="175.443834" xlink:href="#mdd1ab321b9" y="209.084017"/>
      </g>
     </g>
    </g>
    <g id="xtick_14">
     <g id="line2d_38">
      <path clip-path="url(#p43b550f998)" d="M 224.219511 209.084017 
L 224.219511 124.144533 
" style="fill:none;stroke:#b0b0b0;stroke-linecap:square;stroke-width:0.8;"/>
     </g>
     <g id="line2d_39">
      <g>
       <use style="stroke:#000000;stroke-width:0.8;" x="224.219511" xlink:href="#mdd1ab321b9" y="209.084017"/>
      </g>
     </g>
    </g>
    <g id="xtick_15">
     <g id="line2d_40">
      <path clip-path="url(#p43b550f998)" d="M 272.928464 209.084017 
L 272.928464 124.144533 
" style="fill:none;stroke:#b0b0b0;stroke-linecap:square;stroke-width:0.8;"/>
     </g>
     <g id="line2d_41">
      <g>
       <use style="stroke:#000000;stroke-width:0.8;" x="272.928464" xlink:href="#mdd1ab321b9" y="209.084017"/>
      </g>
     </g>
    </g>
    <g id="xtick_16">
     <g id="line2d_42">
      <path clip-path="url(#p43b550f998)" d="M 321.704142 209.084017 
L 321.704142 124.144533 
" style="fill:none;stroke:#b0b0b0;stroke-linecap:square;stroke-width:0.8;"/>
     </g>
     <g id="line2d_43">
      <g>
       <use style="stroke:#000000;stroke-width:0.8;" x="321.704142" xlink:href="#mdd1ab321b9" y="209.084017"/>
      </g>
     </g>
    </g>
    <g id="xtick_17">
     <g id="line2d_44">
      <path clip-path="url(#p43b550f998)" d="M 370.413095 209.084017 
L 370.413095 124.144533 
" style="fill:none;stroke:#b0b0b0;stroke-linecap:square;stroke-width:0.8;"/>
     </g>
     <g id="line2d_45">
      <g>
       <use style="stroke:#000000;stroke-width:0.8;" x="370.413095" xlink:href="#mdd1ab321b9" y="209.084017"/>
      </g>
     </g>
    </g>
    <g id="xtick_18">
     <g id="line2d_46">
      <path clip-path="url(#p43b550f998)" d="M 419.188772 209.084017 
L 419.188772 124.144533 
" style="fill:none;stroke:#b0b0b0;stroke-linecap:square;stroke-width:0.8;"/>
     </g>
     <g id="line2d_47">
      <g>
       <use style="stroke:#000000;stroke-width:0.8;" x="419.188772" xlink:href="#mdd1ab321b9" y="209.084017"/>
      </g>
     </g>
    </g>
   </g>
   <g id="matplotlib.axis_4">
    <g id="ytick_5">
     <g id="line2d_48">
      <path clip-path="url(#p43b550f998)" d="M 29.25025 205.223131 
L 447.48 205.223131 
" style="fill:none;stroke:#b0b0b0;stroke-linecap:square;stroke-width:0.8;"/>
     </g>
     <g id="line2d_49">
      <g>
       <use style="stroke:#000000;stroke-width:0.8;" x="29.25025" xlink:href="#mfbbe26bc3f" y="205.223131"/>
      </g>
     </g>
     <g id="text_7">
      <!-- 0 -->
      <g transform="translate(15.88775 209.02235)scale(0.1 -0.1)">
       <use xlink:href="#DejaVuSans-30"/>
      </g>
     </g>
    </g>
    <g id="ytick_6">
     <g id="line2d_50">
      <path clip-path="url(#p43b550f998)" d="M 29.25025 178.5042 
L 447.48 178.5042 
" style="fill:none;stroke:#b0b0b0;stroke-linecap:square;stroke-width:0.8;"/>
     </g>
     <g id="line2d_51">
      <g>
       <use style="stroke:#000000;stroke-width:0.8;" x="29.25025" xlink:href="#mfbbe26bc3f" y="178.5042"/>
      </g>
     </g>
     <g id="text_8">
      <!-- 5 -->
      <defs>
       <path d="M 10.796875 72.90625 
L 49.515625 72.90625 
L 49.515625 64.59375 
L 19.828125 64.59375 
L 19.828125 46.734375 
Q 21.96875 47.46875 24.109375 47.828125 
Q 26.265625 48.1875 28.421875 48.1875 
Q 40.625 48.1875 47.75 41.5 
Q 54.890625 34.8125 54.890625 23.390625 
Q 54.890625 11.625 47.5625 5.09375 
Q 40.234375 -1.421875 26.90625 -1.421875 
Q 22.3125 -1.421875 17.546875 -0.640625 
Q 12.796875 0.140625 7.71875 1.703125 
L 7.71875 11.625 
Q 12.109375 9.234375 16.796875 8.0625 
Q 21.484375 6.890625 26.703125 6.890625 
Q 35.15625 6.890625 40.078125 11.328125 
Q 45.015625 15.765625 45.015625 23.390625 
Q 45.015625 31 40.078125 35.4375 
Q 35.15625 39.890625 26.703125 39.890625 
Q 22.75 39.890625 18.8125 39.015625 
Q 14.890625 38.140625 10.796875 36.28125 
z
" id="DejaVuSans-35"/>
      </defs>
      <g transform="translate(15.88775 182.303418)scale(0.1 -0.1)">
       <use xlink:href="#DejaVuSans-35"/>
      </g>
     </g>
    </g>
    <g id="ytick_7">
     <g id="line2d_52">
      <path clip-path="url(#p43b550f998)" d="M 29.25025 151.785268 
L 447.48 151.785268 
" style="fill:none;stroke:#b0b0b0;stroke-linecap:square;stroke-width:0.8;"/>
     </g>
     <g id="line2d_53">
      <g>
       <use style="stroke:#000000;stroke-width:0.8;" x="29.25025" xlink:href="#mfbbe26bc3f" y="151.785268"/>
      </g>
     </g>
     <g id="text_9">
      <!-- 10 -->
      <defs>
       <path d="M 12.40625 8.296875 
L 28.515625 8.296875 
L 28.515625 63.921875 
L 10.984375 60.40625 
L 10.984375 69.390625 
L 28.421875 72.90625 
L 38.28125 72.90625 
L 38.28125 8.296875 
L 54.390625 8.296875 
L 54.390625 0 
L 12.40625 0 
z
" id="DejaVuSans-31"/>
      </defs>
      <g transform="translate(9.52525 155.584487)scale(0.1 -0.1)">
       <use xlink:href="#DejaVuSans-31"/>
       <use x="63.623047" xlink:href="#DejaVuSans-30"/>
      </g>
     </g>
    </g>
    <g id="ytick_8">
     <g id="line2d_54">
      <path clip-path="url(#p43b550f998)" d="M 29.25025 125.066336 
L 447.48 125.066336 
" style="fill:none;stroke:#b0b0b0;stroke-linecap:square;stroke-width:0.8;"/>
     </g>
     <g id="line2d_55">
      <g>
       <use style="stroke:#000000;stroke-width:0.8;" x="29.25025" xlink:href="#mfbbe26bc3f" y="125.066336"/>
      </g>
     </g>
     <g id="text_10">
      <!-- 15 -->
      <g transform="translate(9.52525 128.865555)scale(0.1 -0.1)">
       <use xlink:href="#DejaVuSans-31"/>
       <use x="63.623047" xlink:href="#DejaVuSans-35"/>
      </g>
     </g>
    </g>
   </g>
   <g id="line2d_56">
    <path clip-path="url(#p43b550f998)" d="M 29.25025 184.008299 
L 31.318712 189.619275 
L 33.187001 186.038938 
L 35.255463 184.970181 
L 37.257201 184.542678 
L 39.325664 187.00082 
L 41.327401 188.443642 
L 43.395864 186.680193 
L 45.464326 191.649914 
L 47.466064 190.901784 
L 49.534526 184.970181 
L 51.536264 186.573317 
L 53.604727 185.290808 
L 57.541478 188.443642 
L 59.60994 205.223131 
L 61.611678 201.429043 
L 63.68014 195.871505 
L 65.681878 189.352086 
L 67.75034 195.176813 
L 69.818803 191.382725 
L 71.82054 197.367765 
L 73.889003 205.223131 
L 75.890741 186.573317 
L 77.959203 198.383085 
L 80.027665 193.573677 
L 81.895954 185.771749 
L 83.964416 188.443642 
L 85.966154 198.75715 
L 88.034617 199.772469 
L 90.036354 195.390564 
L 92.104817 197.100576 
L 94.173279 181.977661 
L 96.175017 188.603956 
L 98.243479 191.008659 
L 100.245217 191.75679 
L 102.31368 194.642434 
L 104.382142 193.573677 
L 106.317155 193.146174 
L 108.385618 197.474641 
L 110.387355 198.543398 
L 112.455818 196.9937 
L 114.457555 178.771389 
L 116.526018 147.082736 
L 118.59448 179.893584 
L 120.596218 188.550518 
L 122.66468 189.833026 
L 124.666418 186.73363 
L 126.734881 185.290808 
L 128.803343 193.092736 
L 130.671632 128.005419 
L 132.740094 190.634594 
L 134.741832 190.260529 
L 136.810294 191.168973 
L 138.812032 175.939182 
L 140.880494 176.954502 
L 142.948957 164.556917 
L 144.950695 183.367045 
L 147.019157 181.443282 
L 149.020895 167.442562 
L 151.089357 189.726151 
L 153.15782 191.062097 
L 155.026108 191.008659 
L 157.094571 190.260529 
L 159.096308 186.626755 
L 161.164771 184.008299 
L 163.166508 180.214211 
L 165.234971 184.382364 
L 167.303433 180.641714 
L 169.305171 185.557997 
L 171.373633 187.642074 
L 173.375371 184.328927 
L 175.443834 183.260169 
L 177.512296 188.49708 
L 179.380585 190.901784 
L 181.449047 195.016499 
L 183.450785 188.069577 
L 185.519247 179.73327 
L 187.520985 177.702632 
L 189.589447 176.687312 
L 191.65791 185.077057 
L 193.659648 189.24521 
L 195.72811 191.543038 
L 197.729848 184.970181 
L 201.866773 181.443282 
L 203.801786 188.603956 
L 205.870248 191.008659 
L 207.871986 187.00082 
L 209.940448 184.328927 
L 211.942186 187.588636 
L 214.010648 182.137974 
L 216.079111 186.947382 
L 218.080849 192.451482 
L 222.151049 191.382725 
L 226.287974 179.359205 
L 228.156262 191.4896 
L 230.224725 193.146174 
L 234.294925 194.268369 
L 236.296663 186.306128 
L 238.365125 172.679472 
L 240.433587 178.98514 
L 242.435325 181.069217 
L 244.503788 182.24485 
L 246.505525 189.619275 
L 248.573988 191.168973 
L 250.64245 183.74111 
L 252.510739 193.573677 
L 254.579201 195.818067 
L 256.580939 194.00118 
L 258.649401 193.413363 
L 260.651139 191.275849 
L 262.719602 191.222411 
L 264.788064 188.283328 
L 266.789802 190.474281 
L 268.858264 191.970541 
L 270.860002 193.840866 
L 272.928464 194.695872 
L 274.996927 193.733991 
L 276.865215 196.24557 
L 278.933678 194.214931 
L 283.003878 194.108056 
L 285.005616 191.008659 
L 287.074078 192.878985 
L 289.14254 184.970181 
L 291.144278 192.344606 
L 293.212741 192.23773 
L 295.214478 191.4896 
L 297.282941 192.344606 
L 299.351403 190.74147 
L 301.286416 191.115535 
L 303.354879 193.520239 
L 305.356617 193.413363 
L 307.425079 188.443642 
L 309.426817 190.100216 
L 311.495279 185.771749 
L 313.563742 189.833026 
L 315.565479 190.420843 
L 317.633942 190.901784 
L 319.635679 189.352086 
L 321.704142 191.062097 
L 323.772604 191.382725 
L 325.640893 191.543038 
L 327.709355 192.344606 
L 329.711093 192.825547 
L 331.779555 180.641714 
L 333.781293 180.74859 
L 335.849756 183.580797 
L 337.918218 185.718311 
L 339.919956 193.039298 
L 341.988418 191.4896 
L 343.990156 181.389844 
L 346.058618 191.649914 
L 348.127081 194.375245 
L 349.995369 190.955222 
L 352.063832 191.168973 
L 354.06557 194.161493 
L 356.134032 192.398044 
L 358.13577 191.703352 
L 360.204232 192.184292 
L 362.272695 190.74147 
L 364.274432 188.710831 
L 366.342895 194.482121 
L 368.344632 191.062097 
L 370.413095 190.153654 
L 372.481557 190.901784 
L 374.349846 192.23773 
L 378.420046 190.794908 
L 380.488508 185.397684 
L 382.490246 186.626755 
L 384.558709 184.435802 
L 386.627171 187.428323 
L 388.628909 178.343886 
L 390.697371 186.626755 
L 392.699109 178.717951 
L 394.767571 188.764269 
L 396.836034 197.260889 
L 398.771047 202.604676 
L 400.839509 199.612155 
L 402.841247 192.398044 
L 404.90971 187.214571 
L 406.911447 187.588636 
L 408.97991 184.115175 
L 411.048372 190.955222 
L 413.05011 192.23773 
L 415.118572 194.268369 
L 417.12031 185.130495 
L 419.188772 191.382725 
L 421.257235 192.184292 
L 423.125523 191.970541 
L 425.193986 192.772109 
L 427.195724 189.619275 
L 429.264186 202.925303 
L 431.265924 205.00938 
L 433.334386 194.909623 
L 435.402849 192.398044 
L 437.404586 193.520239 
L 439.473049 187.321447 
L 441.474787 179.038578 
L 443.543249 189.99334 
L 445.611711 190.367405 
L 447.48 192.184292 
L 447.48 192.184292 
" style="fill:none;stroke:#f97306;stroke-linecap:square;stroke-width:1.5;"/>
   </g>
   <g id="patch_9">
    <path d="M 29.25025 209.084017 
L 29.25025 124.144533 
" style="fill:none;stroke:#000000;stroke-linecap:square;stroke-linejoin:miter;stroke-width:0.8;"/>
   </g>
   <g id="patch_10">
    <path d="M 447.48 209.084017 
L 447.48 124.144533 
" style="fill:none;stroke:#000000;stroke-linecap:square;stroke-linejoin:miter;stroke-width:0.8;"/>
   </g>
   <g id="patch_11">
    <path d="M 29.25025 209.084017 
L 447.48 209.084017 
" style="fill:none;stroke:#000000;stroke-linecap:square;stroke-linejoin:miter;stroke-width:0.8;"/>
   </g>
   <g id="patch_12">
    <path d="M 29.25025 124.144533 
L 447.48 124.144533 
" style="fill:none;stroke:#000000;stroke-linecap:square;stroke-linejoin:miter;stroke-width:0.8;"/>
   </g>
   <g id="legend_2">
    <g id="patch_13">
     <path d="M 361.890938 146.822658 
L 440.48 146.822658 
Q 442.48 146.822658 442.48 144.822658 
L 442.48 131.144533 
Q 442.48 129.144533 440.48 129.144533 
L 361.890938 129.144533 
Q 359.890938 129.144533 359.890938 131.144533 
L 359.890938 144.822658 
Q 359.890938 146.822658 361.890938 146.822658 
z
" style="fill:#ffffff;opacity:0.8;stroke:#cccccc;stroke-linejoin:miter;"/>
    </g>
    <g id="line2d_57">
     <path d="M 363.890938 137.242971 
L 383.890938 137.242971 
" style="fill:none;stroke:#f97306;stroke-linecap:square;stroke-width:1.5;"/>
    </g>
    <g id="line2d_58"/>
    <g id="text_11">
     <!-- NOx (lbs) -->
     <defs>
      <path d="M 9.8125 72.90625 
L 23.09375 72.90625 
L 55.421875 11.921875 
L 55.421875 72.90625 
L 64.984375 72.90625 
L 64.984375 0 
L 51.703125 0 
L 19.390625 60.984375 
L 19.390625 0 
L 9.8125 0 
z
" id="DejaVuSans-4e"/>
      <path d="M 54.890625 54.6875 
L 35.109375 28.078125 
L 55.90625 0 
L 45.3125 0 
L 29.390625 21.484375 
L 13.484375 0 
L 2.875 0 
L 24.125 28.609375 
L 4.6875 54.6875 
L 15.28125 54.6875 
L 29.78125 35.203125 
L 44.28125 54.6875 
z
" id="DejaVuSans-78"/>
     </defs>
     <g transform="translate(391.890938 140.742971)scale(0.1 -0.1)">
      <use xlink:href="#DejaVuSans-4e"/>
      <use x="74.804688" xlink:href="#DejaVuSans-4f"/>
      <use x="153.515625" xlink:href="#DejaVuSans-78"/>
      <use x="212.695312" xlink:href="#DejaVuSans-20"/>
      <use x="244.482422" xlink:href="#DejaVuSans-28"/>
      <use x="283.496094" xlink:href="#DejaVuSans-6c"/>
      <use x="311.279297" xlink:href="#DejaVuSans-62"/>
      <use x="374.755859" xlink:href="#DejaVuSans-73"/>
      <use x="426.855469" xlink:href="#DejaVuSans-29"/>
     </g>
    </g>
   </g>
  </g>
  <g id="axes_3">
   <g id="patch_14">
    <path d="M 29.25025 309.8635 
L 447.48 309.8635 
L 447.48 224.924017 
L 29.25025 224.924017 
z
" style="fill:none;"/>
   </g>
   <g id="matplotlib.axis_5">
    <g id="xtick_19">
     <g id="line2d_59">
      <path clip-path="url(#p667e9e4514)" d="M 29.25025 309.8635 
L 29.25025 224.924017 
" style="fill:none;stroke:#b0b0b0;stroke-linecap:square;stroke-width:0.8;"/>
     </g>
     <g id="line2d_60">
      <g>
       <use style="stroke:#000000;stroke-width:0.8;" x="29.25025" xlink:href="#mdd1ab321b9" y="309.8635"/>
      </g>
     </g>
     <g id="text_12">
      <!-- 2001 -->
      <g transform="translate(16.52525 324.461937)scale(0.1 -0.1)">
       <use xlink:href="#DejaVuSans-32"/>
       <use x="63.623047" xlink:href="#DejaVuSans-30"/>
       <use x="127.246094" xlink:href="#DejaVuSans-30"/>
       <use x="190.869141" xlink:href="#DejaVuSans-31"/>
      </g>
     </g>
    </g>
    <g id="xtick_20">
     <g id="line2d_61">
      <path clip-path="url(#p667e9e4514)" d="M 77.959203 309.8635 
L 77.959203 224.924017 
" style="fill:none;stroke:#b0b0b0;stroke-linecap:square;stroke-width:0.8;"/>
     </g>
     <g id="line2d_62">
      <g>
       <use style="stroke:#000000;stroke-width:0.8;" x="77.959203" xlink:href="#mdd1ab321b9" y="309.8635"/>
      </g>
     </g>
     <g id="text_13">
      <!-- 2003 -->
      <defs>
       <path d="M 40.578125 39.3125 
Q 47.65625 37.796875 51.625 33 
Q 55.609375 28.21875 55.609375 21.1875 
Q 55.609375 10.40625 48.1875 4.484375 
Q 40.765625 -1.421875 27.09375 -1.421875 
Q 22.515625 -1.421875 17.65625 -0.515625 
Q 12.796875 0.390625 7.625 2.203125 
L 7.625 11.71875 
Q 11.71875 9.328125 16.59375 8.109375 
Q 21.484375 6.890625 26.8125 6.890625 
Q 36.078125 6.890625 40.9375 10.546875 
Q 45.796875 14.203125 45.796875 21.1875 
Q 45.796875 27.640625 41.28125 31.265625 
Q 36.765625 34.90625 28.71875 34.90625 
L 20.21875 34.90625 
L 20.21875 43.015625 
L 29.109375 43.015625 
Q 36.375 43.015625 40.234375 45.921875 
Q 44.09375 48.828125 44.09375 54.296875 
Q 44.09375 59.90625 40.109375 62.90625 
Q 36.140625 65.921875 28.71875 65.921875 
Q 24.65625 65.921875 20.015625 65.03125 
Q 15.375 64.15625 9.8125 62.3125 
L 9.8125 71.09375 
Q 15.4375 72.65625 20.34375 73.4375 
Q 25.25 74.21875 29.59375 74.21875 
Q 40.828125 74.21875 47.359375 69.109375 
Q 53.90625 64.015625 53.90625 55.328125 
Q 53.90625 49.265625 50.4375 45.09375 
Q 46.96875 40.921875 40.578125 39.3125 
z
" id="DejaVuSans-33"/>
      </defs>
      <g transform="translate(65.234203 324.461937)scale(0.1 -0.1)">
       <use xlink:href="#DejaVuSans-32"/>
       <use x="63.623047" xlink:href="#DejaVuSans-30"/>
       <use x="127.246094" xlink:href="#DejaVuSans-30"/>
       <use x="190.869141" xlink:href="#DejaVuSans-33"/>
      </g>
     </g>
    </g>
    <g id="xtick_21">
     <g id="line2d_63">
      <path clip-path="url(#p667e9e4514)" d="M 126.734881 309.8635 
L 126.734881 224.924017 
" style="fill:none;stroke:#b0b0b0;stroke-linecap:square;stroke-width:0.8;"/>
     </g>
     <g id="line2d_64">
      <g>
       <use style="stroke:#000000;stroke-width:0.8;" x="126.734881" xlink:href="#mdd1ab321b9" y="309.8635"/>
      </g>
     </g>
     <g id="text_14">
      <!-- 2005 -->
      <g transform="translate(114.009881 324.461937)scale(0.1 -0.1)">
       <use xlink:href="#DejaVuSans-32"/>
       <use x="63.623047" xlink:href="#DejaVuSans-30"/>
       <use x="127.246094" xlink:href="#DejaVuSans-30"/>
       <use x="190.869141" xlink:href="#DejaVuSans-35"/>
      </g>
     </g>
    </g>
    <g id="xtick_22">
     <g id="line2d_65">
      <path clip-path="url(#p667e9e4514)" d="M 175.443834 309.8635 
L 175.443834 224.924017 
" style="fill:none;stroke:#b0b0b0;stroke-linecap:square;stroke-width:0.8;"/>
     </g>
     <g id="line2d_66">
      <g>
       <use style="stroke:#000000;stroke-width:0.8;" x="175.443834" xlink:href="#mdd1ab321b9" y="309.8635"/>
      </g>
     </g>
     <g id="text_15">
      <!-- 2007 -->
      <defs>
       <path d="M 8.203125 72.90625 
L 55.078125 72.90625 
L 55.078125 68.703125 
L 28.609375 0 
L 18.3125 0 
L 43.21875 64.59375 
L 8.203125 64.59375 
z
" id="DejaVuSans-37"/>
      </defs>
      <g transform="translate(162.718834 324.461937)scale(0.1 -0.1)">
       <use xlink:href="#DejaVuSans-32"/>
       <use x="63.623047" xlink:href="#DejaVuSans-30"/>
       <use x="127.246094" xlink:href="#DejaVuSans-30"/>
       <use x="190.869141" xlink:href="#DejaVuSans-37"/>
      </g>
     </g>
    </g>
    <g id="xtick_23">
     <g id="line2d_67">
      <path clip-path="url(#p667e9e4514)" d="M 224.219511 309.8635 
L 224.219511 224.924017 
" style="fill:none;stroke:#b0b0b0;stroke-linecap:square;stroke-width:0.8;"/>
     </g>
     <g id="line2d_68">
      <g>
       <use style="stroke:#000000;stroke-width:0.8;" x="224.219511" xlink:href="#mdd1ab321b9" y="309.8635"/>
      </g>
     </g>
     <g id="text_16">
      <!-- 2009 -->
      <defs>
       <path d="M 10.984375 1.515625 
L 10.984375 10.5 
Q 14.703125 8.734375 18.5 7.8125 
Q 22.3125 6.890625 25.984375 6.890625 
Q 35.75 6.890625 40.890625 13.453125 
Q 46.046875 20.015625 46.78125 33.40625 
Q 43.953125 29.203125 39.59375 26.953125 
Q 35.25 24.703125 29.984375 24.703125 
Q 19.046875 24.703125 12.671875 31.3125 
Q 6.296875 37.9375 6.296875 49.421875 
Q 6.296875 60.640625 12.9375 67.421875 
Q 19.578125 74.21875 30.609375 74.21875 
Q 43.265625 74.21875 49.921875 64.515625 
Q 56.59375 54.828125 56.59375 36.375 
Q 56.59375 19.140625 48.40625 8.859375 
Q 40.234375 -1.421875 26.421875 -1.421875 
Q 22.703125 -1.421875 18.890625 -0.6875 
Q 15.09375 0.046875 10.984375 1.515625 
z
M 30.609375 32.421875 
Q 37.25 32.421875 41.125 36.953125 
Q 45.015625 41.5 45.015625 49.421875 
Q 45.015625 57.28125 41.125 61.84375 
Q 37.25 66.40625 30.609375 66.40625 
Q 23.96875 66.40625 20.09375 61.84375 
Q 16.21875 57.28125 16.21875 49.421875 
Q 16.21875 41.5 20.09375 36.953125 
Q 23.96875 32.421875 30.609375 32.421875 
z
" id="DejaVuSans-39"/>
      </defs>
      <g transform="translate(211.494511 324.461937)scale(0.1 -0.1)">
       <use xlink:href="#DejaVuSans-32"/>
       <use x="63.623047" xlink:href="#DejaVuSans-30"/>
       <use x="127.246094" xlink:href="#DejaVuSans-30"/>
       <use x="190.869141" xlink:href="#DejaVuSans-39"/>
      </g>
     </g>
    </g>
    <g id="xtick_24">
     <g id="line2d_69">
      <path clip-path="url(#p667e9e4514)" d="M 272.928464 309.8635 
L 272.928464 224.924017 
" style="fill:none;stroke:#b0b0b0;stroke-linecap:square;stroke-width:0.8;"/>
     </g>
     <g id="line2d_70">
      <g>
       <use style="stroke:#000000;stroke-width:0.8;" x="272.928464" xlink:href="#mdd1ab321b9" y="309.8635"/>
      </g>
     </g>
     <g id="text_17">
      <!-- 2011 -->
      <g transform="translate(260.203464 324.461937)scale(0.1 -0.1)">
       <use xlink:href="#DejaVuSans-32"/>
       <use x="63.623047" xlink:href="#DejaVuSans-30"/>
       <use x="127.246094" xlink:href="#DejaVuSans-31"/>
       <use x="190.869141" xlink:href="#DejaVuSans-31"/>
      </g>
     </g>
    </g>
    <g id="xtick_25">
     <g id="line2d_71">
      <path clip-path="url(#p667e9e4514)" d="M 321.704142 309.8635 
L 321.704142 224.924017 
" style="fill:none;stroke:#b0b0b0;stroke-linecap:square;stroke-width:0.8;"/>
     </g>
     <g id="line2d_72">
      <g>
       <use style="stroke:#000000;stroke-width:0.8;" x="321.704142" xlink:href="#mdd1ab321b9" y="309.8635"/>
      </g>
     </g>
     <g id="text_18">
      <!-- 2013 -->
      <g transform="translate(308.979142 324.461937)scale(0.1 -0.1)">
       <use xlink:href="#DejaVuSans-32"/>
       <use x="63.623047" xlink:href="#DejaVuSans-30"/>
       <use x="127.246094" xlink:href="#DejaVuSans-31"/>
       <use x="190.869141" xlink:href="#DejaVuSans-33"/>
      </g>
     </g>
    </g>
    <g id="xtick_26">
     <g id="line2d_73">
      <path clip-path="url(#p667e9e4514)" d="M 370.413095 309.8635 
L 370.413095 224.924017 
" style="fill:none;stroke:#b0b0b0;stroke-linecap:square;stroke-width:0.8;"/>
     </g>
     <g id="line2d_74">
      <g>
       <use style="stroke:#000000;stroke-width:0.8;" x="370.413095" xlink:href="#mdd1ab321b9" y="309.8635"/>
      </g>
     </g>
     <g id="text_19">
      <!-- 2015 -->
      <g transform="translate(357.688095 324.461937)scale(0.1 -0.1)">
       <use xlink:href="#DejaVuSans-32"/>
       <use x="63.623047" xlink:href="#DejaVuSans-30"/>
       <use x="127.246094" xlink:href="#DejaVuSans-31"/>
       <use x="190.869141" xlink:href="#DejaVuSans-35"/>
      </g>
     </g>
    </g>
    <g id="xtick_27">
     <g id="line2d_75">
      <path clip-path="url(#p667e9e4514)" d="M 419.188772 309.8635 
L 419.188772 224.924017 
" style="fill:none;stroke:#b0b0b0;stroke-linecap:square;stroke-width:0.8;"/>
     </g>
     <g id="line2d_76">
      <g>
       <use style="stroke:#000000;stroke-width:0.8;" x="419.188772" xlink:href="#mdd1ab321b9" y="309.8635"/>
      </g>
     </g>
     <g id="text_20">
      <!-- 2017 -->
      <g transform="translate(406.463772 324.461937)scale(0.1 -0.1)">
       <use xlink:href="#DejaVuSans-32"/>
       <use x="63.623047" xlink:href="#DejaVuSans-30"/>
       <use x="127.246094" xlink:href="#DejaVuSans-31"/>
       <use x="190.869141" xlink:href="#DejaVuSans-37"/>
      </g>
     </g>
    </g>
    <g id="text_21">
     <!-- Date -->
     <defs>
      <path d="M 19.671875 64.796875 
L 19.671875 8.109375 
L 31.59375 8.109375 
Q 46.6875 8.109375 53.6875 14.9375 
Q 60.6875 21.78125 60.6875 36.53125 
Q 60.6875 51.171875 53.6875 57.984375 
Q 46.6875 64.796875 31.59375 64.796875 
z
M 9.8125 72.90625 
L 30.078125 72.90625 
Q 51.265625 72.90625 61.171875 64.09375 
Q 71.09375 55.28125 71.09375 36.53125 
Q 71.09375 17.671875 61.125 8.828125 
Q 51.171875 0 30.078125 0 
L 9.8125 0 
z
" id="DejaVuSans-44"/>
      <path d="M 18.3125 70.21875 
L 18.3125 54.6875 
L 36.8125 54.6875 
L 36.8125 47.703125 
L 18.3125 47.703125 
L 18.3125 18.015625 
Q 18.3125 11.328125 20.140625 9.421875 
Q 21.96875 7.515625 27.59375 7.515625 
L 36.8125 7.515625 
L 36.8125 0 
L 27.59375 0 
Q 17.1875 0 13.234375 3.875 
Q 9.28125 7.765625 9.28125 18.015625 
L 9.28125 47.703125 
L 2.6875 47.703125 
L 2.6875 54.6875 
L 9.28125 54.6875 
L 9.28125 70.21875 
z
" id="DejaVuSans-74"/>
     </defs>
     <g transform="translate(226.414344 338.140062)scale(0.1 -0.1)">
      <use xlink:href="#DejaVuSans-44"/>
      <use x="77.001953" xlink:href="#DejaVuSans-61"/>
      <use x="138.28125" xlink:href="#DejaVuSans-74"/>
      <use x="177.490234" xlink:href="#DejaVuSans-65"/>
     </g>
    </g>
   </g>
   <g id="matplotlib.axis_6">
    <g id="ytick_9">
     <g id="line2d_77">
      <path clip-path="url(#p667e9e4514)" d="M 29.25025 306.002614 
L 447.48 306.002614 
" style="fill:none;stroke:#b0b0b0;stroke-linecap:square;stroke-width:0.8;"/>
     </g>
     <g id="line2d_78">
      <g>
       <use style="stroke:#000000;stroke-width:0.8;" x="29.25025" xlink:href="#mfbbe26bc3f" y="306.002614"/>
      </g>
     </g>
     <g id="text_22">
      <!-- 0 -->
      <g transform="translate(15.88775 309.801833)scale(0.1 -0.1)">
       <use xlink:href="#DejaVuSans-30"/>
      </g>
     </g>
    </g>
    <g id="ytick_10">
     <g id="line2d_79">
      <path clip-path="url(#p667e9e4514)" d="M 29.25025 271.227693 
L 447.48 271.227693 
" style="fill:none;stroke:#b0b0b0;stroke-linecap:square;stroke-width:0.8;"/>
     </g>
     <g id="line2d_80">
      <g>
       <use style="stroke:#000000;stroke-width:0.8;" x="29.25025" xlink:href="#mfbbe26bc3f" y="271.227693"/>
      </g>
     </g>
     <g id="text_23">
      <!-- 20 -->
      <g transform="translate(9.52525 275.026912)scale(0.1 -0.1)">
       <use xlink:href="#DejaVuSans-32"/>
       <use x="63.623047" xlink:href="#DejaVuSans-30"/>
      </g>
     </g>
    </g>
    <g id="ytick_11">
     <g id="line2d_81">
      <path clip-path="url(#p667e9e4514)" d="M 29.25025 236.452772 
L 447.48 236.452772 
" style="fill:none;stroke:#b0b0b0;stroke-linecap:square;stroke-width:0.8;"/>
     </g>
     <g id="line2d_82">
      <g>
       <use style="stroke:#000000;stroke-width:0.8;" x="29.25025" xlink:href="#mfbbe26bc3f" y="236.452772"/>
      </g>
     </g>
     <g id="text_24">
      <!-- 40 -->
      <g transform="translate(9.52525 240.251991)scale(0.1 -0.1)">
       <use xlink:href="#DejaVuSans-34"/>
       <use x="63.623047" xlink:href="#DejaVuSans-30"/>
      </g>
     </g>
    </g>
   </g>
   <g id="line2d_83">
    <path clip-path="url(#p667e9e4514)" d="M 29.25025 265.037757 
L 31.318712 283.78144 
L 33.187001 272.462203 
L 35.255463 267.837139 
L 37.257201 275.470234 
L 39.325664 283.955314 
L 41.327401 277.608891 
L 43.395864 283.085941 
L 45.464326 294.387791 
L 49.534526 268.967324 
L 51.536264 274.322661 
L 53.604727 271.679767 
L 55.673189 272.079679 
L 57.541478 277.556729 
L 59.60994 306.002614 
L 61.611678 303.690082 
L 63.68014 297.795733 
L 65.681878 293.361931 
L 67.75034 299.395379 
L 69.818803 287.606681 
L 71.82054 294.631215 
L 73.889003 306.002614 
L 75.890741 273.348964 
L 77.959203 292.788144 
L 80.027665 287.797943 
L 81.895954 281.155933 
L 83.964416 286.824245 
L 85.966154 297.013297 
L 88.034617 302.26431 
L 90.036354 296.839423 
L 92.104817 291.988321 
L 94.173279 260.238818 
L 96.175017 267.14164 
L 98.243479 269.575885 
L 100.245217 268.654349 
L 102.31368 276.496094 
L 104.382142 273.661938 
L 106.317155 271.80148 
L 108.385618 284.616038 
L 110.387355 287.537131 
L 112.455818 287.902268 
L 114.457555 258.847821 
L 116.526018 250.50184 
L 118.59448 266.463529 
L 120.596218 268.671737 
L 122.66468 265.455056 
L 124.666418 268.045788 
L 126.734881 262.725225 
L 128.803343 272.566528 
L 130.671632 257.265563 
L 132.740094 269.019486 
L 136.810294 272.61869 
L 138.812032 261.282066 
L 140.880494 263.698923 
L 142.948957 263.020812 
L 144.950695 266.411367 
L 147.019157 262.255764 
L 149.020895 264.046672 
L 151.089357 274.200949 
L 153.15782 274.931222 
L 155.026108 275.226809 
L 157.094571 275.226809 
L 159.096308 269.33246 
L 161.164771 266.480917 
L 163.166508 248.51967 
L 165.234971 261.542878 
L 167.303433 254.535731 
L 169.305171 265.576769 
L 171.373633 267.958851 
L 173.375371 260.238818 
L 175.443834 254.866093 
L 177.512296 268.063176 
L 179.380585 269.210748 
L 181.449047 287.06767 
L 183.450785 269.019486 
L 185.519247 262.220989 
L 187.520985 259.978006 
L 189.589447 255.405104 
L 191.65791 261.768915 
L 193.659648 266.880828 
L 195.72811 268.793449 
L 197.729848 265.176857 
L 199.79831 257.42205 
L 201.866773 250.154091 
L 203.801786 267.00254 
L 205.870248 263.594598 
L 207.871986 261.716752 
L 209.940448 261.038642 
L 211.942186 263.78586 
L 214.010648 255.457267 
L 216.079111 258.986921 
L 218.080849 270.253996 
L 220.149311 268.636962 
L 222.151049 268.271825 
L 224.219511 267.089478 
L 226.287974 270.167058 
L 228.156262 270.114896 
L 230.224725 276.061407 
L 232.226462 275.261584 
L 234.294925 276.409157 
L 236.296663 264.06406 
L 238.365125 253.440321 
L 240.433587 248.780482 
L 242.435325 261.647203 
L 244.503788 270.219221 
L 246.505525 264.011897 
L 248.573988 269.628047 
L 250.64245 267.245965 
L 252.510739 270.549582 
L 254.579201 278.930338 
L 256.580939 272.462203 
L 258.649401 272.201391 
L 260.651139 267.541552 
L 262.719602 266.585241 
L 264.788064 259.925844 
L 266.789802 265.872356 
L 268.858264 268.828224 
L 272.928464 274.044462 
L 274.996927 271.384181 
L 276.865215 279.069438 
L 278.933678 273.018602 
L 280.935415 271.957967 
L 283.003878 271.575443 
L 285.005616 267.385065 
L 287.074078 269.40201 
L 289.14254 258.465297 
L 291.144278 268.4457 
L 293.212741 267.454614 
L 295.214478 268.028401 
L 297.282941 269.784534 
L 299.351403 270.236608 
L 301.286416 273.035989 
L 303.354879 274.148787 
L 305.356617 273.78365 
L 307.425079 263.455499 
L 309.426817 265.924518 
L 311.495279 256.204927 
L 313.563742 262.203601 
L 315.565479 264.029285 
L 317.633942 266.446142 
L 319.635679 265.072532 
L 321.704142 269.141198 
L 323.772604 270.480033 
L 325.640893 270.966881 
L 327.709355 272.705628 
L 329.711093 271.036431 
L 331.779555 259.126021 
L 333.781293 241.286486 
L 335.849756 252.779598 
L 337.918218 255.909341 
L 339.919956 268.219663 
L 341.988418 265.507219 
L 343.990156 250.675715 
L 346.058618 265.489831 
L 348.127081 272.410041 
L 349.995369 267.541552 
L 352.063832 270.271383 
L 354.06557 273.140314 
L 356.134032 265.837581 
L 358.13577 263.92496 
L 360.204232 265.298569 
L 362.272695 261.768915 
L 364.274432 261.994952 
L 366.342895 276.304832 
L 368.344632 264.707396 
L 370.413095 260.725667 
L 372.481557 262.481801 
L 374.349846 271.644992 
L 376.418308 265.872356 
L 378.420046 265.994068 
L 380.488508 255.335554 
L 382.490246 257.265563 
L 384.558709 251.59725 
L 386.627171 257.787186 
L 388.628909 258.934759 
L 390.697371 253.875008 
L 392.699109 230.175899 
L 394.767571 259.33467 
L 396.836034 282.199181 
L 398.771047 298.439069 
L 400.839509 288.875966 
L 402.841247 268.428312 
L 404.90971 253.892395 
L 406.911447 255.561591 
L 408.97991 256.813489 
L 411.048372 263.194687 
L 415.118572 272.357878 
L 417.12031 246.294075 
L 419.188772 264.394421 
L 421.257235 269.871471 
L 423.125523 269.106423 
L 425.193986 272.68824 
L 427.195724 270.410483 
L 429.264186 301.464487 
L 431.265924 305.741802 
L 433.334386 274.027075 
L 435.402849 265.176857 
L 437.404586 269.210748 
L 439.473049 261.264679 
L 441.474787 228.784902 
L 443.543249 260.70828 
L 445.611711 263.542436 
L 447.48 264.776946 
L 447.48 264.776946 
" style="fill:none;stroke:#4682b4;stroke-linecap:square;stroke-width:1.5;"/>
   </g>
   <g id="patch_15">
    <path d="M 29.25025 309.8635 
L 29.25025 224.924017 
" style="fill:none;stroke:#000000;stroke-linecap:square;stroke-linejoin:miter;stroke-width:0.8;"/>
   </g>
   <g id="patch_16">
    <path d="M 447.48 309.8635 
L 447.48 224.924017 
" style="fill:none;stroke:#000000;stroke-linecap:square;stroke-linejoin:miter;stroke-width:0.8;"/>
   </g>
   <g id="patch_17">
    <path d="M 29.25025 309.8635 
L 447.48 309.8635 
" style="fill:none;stroke:#000000;stroke-linecap:square;stroke-linejoin:miter;stroke-width:0.8;"/>
   </g>
   <g id="patch_18">
    <path d="M 29.25025 224.924017 
L 447.48 224.924017 
" style="fill:none;stroke:#000000;stroke-linecap:square;stroke-linejoin:miter;stroke-width:0.8;"/>
   </g>
   <g id="legend_3">
    <g id="patch_19">
     <path d="M 36.25025 247.602142 
L 122.034625 247.602142 
Q 124.034625 247.602142 124.034625 245.602142 
L 124.034625 231.924017 
Q 124.034625 229.924017 122.034625 229.924017 
L 36.25025 229.924017 
Q 34.25025 229.924017 34.25025 231.924017 
L 34.25025 245.602142 
Q 34.25025 247.602142 36.25025 247.602142 
z
" style="fill:#ffffff;opacity:0.8;stroke:#cccccc;stroke-linejoin:miter;"/>
    </g>
    <g id="line2d_84">
     <path d="M 38.25025 238.022454 
L 58.25025 238.022454 
" style="fill:none;stroke:#4682b4;stroke-linecap:square;stroke-width:1.5;"/>
    </g>
    <g id="line2d_85"/>
    <g id="text_25">
     <!-- CO2 (tons) -->
     <defs>
      <path d="M 64.40625 67.28125 
L 64.40625 56.890625 
Q 59.421875 61.53125 53.78125 63.8125 
Q 48.140625 66.109375 41.796875 66.109375 
Q 29.296875 66.109375 22.65625 58.46875 
Q 16.015625 50.828125 16.015625 36.375 
Q 16.015625 21.96875 22.65625 14.328125 
Q 29.296875 6.6875 41.796875 6.6875 
Q 48.140625 6.6875 53.78125 8.984375 
Q 59.421875 11.28125 64.40625 15.921875 
L 64.40625 5.609375 
Q 59.234375 2.09375 53.4375 0.328125 
Q 47.65625 -1.421875 41.21875 -1.421875 
Q 24.65625 -1.421875 15.125 8.703125 
Q 5.609375 18.84375 5.609375 36.375 
Q 5.609375 53.953125 15.125 64.078125 
Q 24.65625 74.21875 41.21875 74.21875 
Q 47.75 74.21875 53.53125 72.484375 
Q 59.328125 70.75 64.40625 67.28125 
z
" id="DejaVuSans-43"/>
     </defs>
     <g transform="translate(66.25025 241.522454)scale(0.1 -0.1)">
      <use xlink:href="#DejaVuSans-43"/>
      <use x="69.824219" xlink:href="#DejaVuSans-4f"/>
      <use x="148.535156" xlink:href="#DejaVuSans-32"/>
      <use x="212.158203" xlink:href="#DejaVuSans-20"/>
      <use x="243.945312" xlink:href="#DejaVuSans-28"/>
      <use x="282.958984" xlink:href="#DejaVuSans-74"/>
      <use x="322.167969" xlink:href="#DejaVuSans-6f"/>
      <use x="383.349609" xlink:href="#DejaVuSans-6e"/>
      <use x="446.728516" xlink:href="#DejaVuSans-73"/>
      <use x="498.828125" xlink:href="#DejaVuSans-29"/>
     </g>
    </g>
   </g>
  </g>
 </g>
 <defs>
  <clipPath id="p8f44cc47bc">
   <rect height="84.939483" width="418.22975" x="29.25025" y="23.36505"/>
  </clipPath>
  <clipPath id="p43b550f998">
   <rect height="84.939483" width="418.22975" x="29.25025" y="124.144533"/>
  </clipPath>
  <clipPath id="p667e9e4514">
   <rect height="84.939483" width="418.22975" x="29.25025" y="224.924017"/>
  </clipPath>
 </defs>
</svg>
