<?xml version="1.0" encoding="utf-8" standalone="no"?>
<!DOCTYPE svg PUBLIC "-//W3C//DTD SVG 1.1//EN"
  "http://www.w3.org/Graphics/SVG/1.1/DTD/svg11.dtd">
<!-- Created with matplotlib (http://matplotlib.org/) -->
<svg height="345.6pt" version="1.1" viewBox="0 0 460.8 345.6" width="460.8pt" xmlns="http://www.w3.org/2000/svg" xmlns:xlink="http://www.w3.org/1999/xlink">
 <defs>
  <style type="text/css">
*{stroke-linecap:butt;stroke-linejoin:round;}
  </style>
 </defs>
 <g id="figure_1">
  <g id="patch_1">
   <path d="M 0 345.6 
L 460.8 345.6 
L 460.8 0 
L 0 0 
z
" style="fill:none;"/>
  </g>
  <g id="axes_1">
   <g id="patch_2">
    <path d="M 31.543 108.120339 
L 447.48 108.120339 
L 447.48 23.36505 
L 31.543 23.36505 
z
" style="fill:none;"/>
   </g>
   <g id="matplotlib.axis_1">
    <g id="xtick_1">
     <g id="line2d_1">
      <path clip-path="url(#pc79a599f3a)" d="M 31.543 108.120339 
L 31.543 23.36505 
" style="fill:none;stroke:#b0b0b0;stroke-linecap:square;stroke-width:0.8;"/>
     </g>
     <g id="line2d_2">
      <defs>
       <path d="M 0 0 
L 0 3.5 
" id="m52ca1a4b62" style="stroke:#000000;stroke-width:0.8;"/>
      </defs>
      <g>
       <use style="stroke:#000000;stroke-width:0.8;" x="31.543" xlink:href="#m52ca1a4b62" y="108.120339"/>
      </g>
     </g>
    </g>
    <g id="xtick_2">
     <g id="line2d_3">
      <path clip-path="url(#pc79a599f3a)" d="M 79.984929 108.120339 
L 79.984929 23.36505 
" style="fill:none;stroke:#b0b0b0;stroke-linecap:square;stroke-width:0.8;"/>
     </g>
     <g id="line2d_4">
      <g>
       <use style="stroke:#000000;stroke-width:0.8;" x="79.984929" xlink:href="#m52ca1a4b62" y="108.120339"/>
      </g>
     </g>
    </g>
    <g id="xtick_3">
     <g id="line2d_5">
      <path clip-path="url(#pc79a599f3a)" d="M 128.493216 108.120339 
L 128.493216 23.36505 
" style="fill:none;stroke:#b0b0b0;stroke-linecap:square;stroke-width:0.8;"/>
     </g>
     <g id="line2d_6">
      <g>
       <use style="stroke:#000000;stroke-width:0.8;" x="128.493216" xlink:href="#m52ca1a4b62" y="108.120339"/>
      </g>
     </g>
    </g>
    <g id="xtick_4">
     <g id="line2d_7">
      <path clip-path="url(#pc79a599f3a)" d="M 176.935145 108.120339 
L 176.935145 23.36505 
" style="fill:none;stroke:#b0b0b0;stroke-linecap:square;stroke-width:0.8;"/>
     </g>
     <g id="line2d_8">
      <g>
       <use style="stroke:#000000;stroke-width:0.8;" x="176.935145" xlink:href="#m52ca1a4b62" y="108.120339"/>
      </g>
     </g>
    </g>
    <g id="xtick_5">
     <g id="line2d_9">
      <path clip-path="url(#pc79a599f3a)" d="M 225.443433 108.120339 
L 225.443433 23.36505 
" style="fill:none;stroke:#b0b0b0;stroke-linecap:square;stroke-width:0.8;"/>
     </g>
     <g id="line2d_10">
      <g>
       <use style="stroke:#000000;stroke-width:0.8;" x="225.443433" xlink:href="#m52ca1a4b62" y="108.120339"/>
      </g>
     </g>
    </g>
    <g id="xtick_6">
     <g id="line2d_11">
      <path clip-path="url(#pc79a599f3a)" d="M 273.885362 108.120339 
L 273.885362 23.36505 
" style="fill:none;stroke:#b0b0b0;stroke-linecap:square;stroke-width:0.8;"/>
     </g>
     <g id="line2d_12">
      <g>
       <use style="stroke:#000000;stroke-width:0.8;" x="273.885362" xlink:href="#m52ca1a4b62" y="108.120339"/>
      </g>
     </g>
    </g>
    <g id="xtick_7">
     <g id="line2d_13">
      <path clip-path="url(#pc79a599f3a)" d="M 322.393649 108.120339 
L 322.393649 23.36505 
" style="fill:none;stroke:#b0b0b0;stroke-linecap:square;stroke-width:0.8;"/>
     </g>
     <g id="line2d_14">
      <g>
       <use style="stroke:#000000;stroke-width:0.8;" x="322.393649" xlink:href="#m52ca1a4b62" y="108.120339"/>
      </g>
     </g>
    </g>
    <g id="xtick_8">
     <g id="line2d_15">
      <path clip-path="url(#pc79a599f3a)" d="M 370.835578 108.120339 
L 370.835578 23.36505 
" style="fill:none;stroke:#b0b0b0;stroke-linecap:square;stroke-width:0.8;"/>
     </g>
     <g id="line2d_16">
      <g>
       <use style="stroke:#000000;stroke-width:0.8;" x="370.835578" xlink:href="#m52ca1a4b62" y="108.120339"/>
      </g>
     </g>
    </g>
    <g id="xtick_9">
     <g id="line2d_17">
      <path clip-path="url(#pc79a599f3a)" d="M 419.343866 108.120339 
L 419.343866 23.36505 
" style="fill:none;stroke:#b0b0b0;stroke-linecap:square;stroke-width:0.8;"/>
     </g>
     <g id="line2d_18">
      <g>
       <use style="stroke:#000000;stroke-width:0.8;" x="419.343866" xlink:href="#m52ca1a4b62" y="108.120339"/>
      </g>
     </g>
    </g>
   </g>
   <g id="matplotlib.axis_2">
    <g id="ytick_1">
     <g id="line2d_19">
      <path clip-path="url(#pc79a599f3a)" d="M 31.543 104.267825 
L 447.48 104.267825 
" style="fill:none;stroke:#b0b0b0;stroke-linecap:square;stroke-width:0.8;"/>
     </g>
     <g id="line2d_20">
      <defs>
       <path d="M 0 0 
L -3.5 0 
" id="me39838bfd5" style="stroke:#000000;stroke-width:0.8;"/>
      </defs>
      <g>
       <use style="stroke:#000000;stroke-width:0.8;" x="31.543" xlink:href="#me39838bfd5" y="104.267825"/>
      </g>
     </g>
     <g id="text_1">
      <!-- 0 -->
      <defs>
       <path d="M 31.78125 66.40625 
Q 24.171875 66.40625 20.328125 58.90625 
Q 16.5 51.421875 16.5 36.375 
Q 16.5 21.390625 20.328125 13.890625 
Q 24.171875 6.390625 31.78125 6.390625 
Q 39.453125 6.390625 43.28125 13.890625 
Q 47.125 21.390625 47.125 36.375 
Q 47.125 51.421875 43.28125 58.90625 
Q 39.453125 66.40625 31.78125 66.40625 
z
M 31.78125 74.21875 
Q 44.046875 74.21875 50.515625 64.515625 
Q 56.984375 54.828125 56.984375 36.375 
Q 56.984375 17.96875 50.515625 8.265625 
Q 44.046875 -1.421875 31.78125 -1.421875 
Q 19.53125 -1.421875 13.0625 8.265625 
Q 6.59375 17.96875 6.59375 36.375 
Q 6.59375 54.828125 13.0625 64.515625 
Q 19.53125 74.21875 31.78125 74.21875 
z
" id="DejaVuSans-30"/>
      </defs>
      <g transform="translate(18.1805 108.067044)scale(0.1 -0.1)">
       <use xlink:href="#DejaVuSans-30"/>
      </g>
     </g>
    </g>
    <g id="ytick_2">
     <g id="line2d_21">
      <path clip-path="url(#pc79a599f3a)" d="M 31.543 82.316184 
L 447.48 82.316184 
" style="fill:none;stroke:#b0b0b0;stroke-linecap:square;stroke-width:0.8;"/>
     </g>
     <g id="line2d_22">
      <g>
       <use style="stroke:#000000;stroke-width:0.8;" x="31.543" xlink:href="#me39838bfd5" y="82.316184"/>
      </g>
     </g>
     <g id="text_2">
      <!-- 1 -->
      <defs>
       <path d="M 12.40625 8.296875 
L 28.515625 8.296875 
L 28.515625 63.921875 
L 10.984375 60.40625 
L 10.984375 69.390625 
L 28.421875 72.90625 
L 38.28125 72.90625 
L 38.28125 8.296875 
L 54.390625 8.296875 
L 54.390625 0 
L 12.40625 0 
z
" id="DejaVuSans-31"/>
      </defs>
      <g transform="translate(18.1805 86.115403)scale(0.1 -0.1)">
       <use xlink:href="#DejaVuSans-31"/>
      </g>
     </g>
    </g>
    <g id="ytick_3">
     <g id="line2d_23">
      <path clip-path="url(#pc79a599f3a)" d="M 31.543 60.364542 
L 447.48 60.364542 
" style="fill:none;stroke:#b0b0b0;stroke-linecap:square;stroke-width:0.8;"/>
     </g>
     <g id="line2d_24">
      <g>
       <use style="stroke:#000000;stroke-width:0.8;" x="31.543" xlink:href="#me39838bfd5" y="60.364542"/>
      </g>
     </g>
     <g id="text_3">
      <!-- 2 -->
      <defs>
       <path d="M 19.1875 8.296875 
L 53.609375 8.296875 
L 53.609375 0 
L 7.328125 0 
L 7.328125 8.296875 
Q 12.9375 14.109375 22.625 23.890625 
Q 32.328125 33.6875 34.8125 36.53125 
Q 39.546875 41.84375 41.421875 45.53125 
Q 43.3125 49.21875 43.3125 52.78125 
Q 43.3125 58.59375 39.234375 62.25 
Q 35.15625 65.921875 28.609375 65.921875 
Q 23.96875 65.921875 18.8125 64.3125 
Q 13.671875 62.703125 7.8125 59.421875 
L 7.8125 69.390625 
Q 13.765625 71.78125 18.9375 73 
Q 24.125 74.21875 28.421875 74.21875 
Q 39.75 74.21875 46.484375 68.546875 
Q 53.21875 62.890625 53.21875 53.421875 
Q 53.21875 48.921875 51.53125 44.890625 
Q 49.859375 40.875 45.40625 35.40625 
Q 44.1875 33.984375 37.640625 27.21875 
Q 31.109375 20.453125 19.1875 8.296875 
z
" id="DejaVuSans-32"/>
      </defs>
      <g transform="translate(18.1805 64.163761)scale(0.1 -0.1)">
       <use xlink:href="#DejaVuSans-32"/>
      </g>
     </g>
    </g>
    <g id="ytick_4">
     <g id="line2d_25">
      <path clip-path="url(#pc79a599f3a)" d="M 31.543 38.4129 
L 447.48 38.4129 
" style="fill:none;stroke:#b0b0b0;stroke-linecap:square;stroke-width:0.8;"/>
     </g>
     <g id="line2d_26">
      <g>
       <use style="stroke:#000000;stroke-width:0.8;" x="31.543" xlink:href="#me39838bfd5" y="38.4129"/>
      </g>
     </g>
     <g id="text_4">
      <!-- 3 -->
      <defs>
       <path d="M 40.578125 39.3125 
Q 47.65625 37.796875 51.625 33 
Q 55.609375 28.21875 55.609375 21.1875 
Q 55.609375 10.40625 48.1875 4.484375 
Q 40.765625 -1.421875 27.09375 -1.421875 
Q 22.515625 -1.421875 17.65625 -0.515625 
Q 12.796875 0.390625 7.625 2.203125 
L 7.625 11.71875 
Q 11.71875 9.328125 16.59375 8.109375 
Q 21.484375 6.890625 26.8125 6.890625 
Q 36.078125 6.890625 40.9375 10.546875 
Q 45.796875 14.203125 45.796875 21.1875 
Q 45.796875 27.640625 41.28125 31.265625 
Q 36.765625 34.90625 28.71875 34.90625 
L 20.21875 34.90625 
L 20.21875 43.015625 
L 29.109375 43.015625 
Q 36.375 43.015625 40.234375 45.921875 
Q 44.09375 48.828125 44.09375 54.296875 
Q 44.09375 59.90625 40.109375 62.90625 
Q 36.140625 65.921875 28.71875 65.921875 
Q 24.65625 65.921875 20.015625 65.03125 
Q 15.375 64.15625 9.8125 62.3125 
L 9.8125 71.09375 
Q 15.4375 72.65625 20.34375 73.4375 
Q 25.25 74.21875 29.59375 74.21875 
Q 40.828125 74.21875 47.359375 69.109375 
Q 53.90625 64.015625 53.90625 55.328125 
Q 53.90625 49.265625 50.4375 45.09375 
Q 46.96875 40.921875 40.578125 39.3125 
z
" id="DejaVuSans-33"/>
      </defs>
      <g transform="translate(18.1805 42.212119)scale(0.1 -0.1)">
       <use xlink:href="#DejaVuSans-33"/>
      </g>
     </g>
    </g>
   </g>
   <g id="line2d_27">
    <path clip-path="url(#pc79a599f3a)" d="M 31.543 80.999085 
L 33.600123 81.438118 
L 35.45817 81.218602 
L 37.515293 104.267825 
L 39.506057 87.804094 
L 41.56318 81.657635 
L 43.553944 82.096667 
L 45.611067 82.316184 
L 47.66819 84.730864 
L 49.658954 81.657635 
L 51.716077 85.389414 
L 53.706841 81.438118 
L 55.763964 81.218602 
L 57.821087 81.438118 
L 59.679134 81.218602 
L 61.736257 102.731211 
L 63.727021 104.267825 
L 65.784144 104.267825 
L 67.774908 99.218948 
L 69.832031 81.877151 
L 71.889154 82.755217 
L 73.879919 81.218602 
L 75.937042 80.999085 
L 82.042052 80.999085 
L 83.900098 84.950381 
L 85.957221 104.267825 
L 87.947986 104.267825 
L 90.005109 103.38976 
L 91.995873 81.877151 
L 94.052996 81.657635 
L 96.110119 83.633282 
L 98.100883 81.657635 
L 100.158006 80.999085 
L 102.14877 80.779569 
L 104.205893 80.779569 
L 106.263016 81.218602 
L 108.187422 81.438118 
L 110.244545 81.877151 
L 112.235309 104.267825 
L 114.292432 104.267825 
L 116.283196 83.413766 
L 118.340319 81.877151 
L 120.397442 81.657635 
L 122.388206 42.583712 
L 124.445329 44.778876 
L 126.436093 40.827581 
L 128.493216 40.608065 
L 130.55034 41.047097 
L 132.408386 54.437599 
L 134.465509 40.827581 
L 136.456273 97.901849 
L 138.513396 102.950727 
L 140.50416 42.364196 
L 142.561284 50.70582 
L 144.618407 49.608238 
L 146.609171 42.583712 
L 148.666294 41.705647 
L 150.657058 65.41342 
L 152.714181 42.364196 
L 154.771304 41.925163 
L 156.629351 104.267825 
L 160.677238 104.267825 
L 162.734361 99.877497 
L 164.725125 96.584751 
L 166.782248 83.633282 
L 168.839371 85.169897 
L 170.830135 82.974733 
L 172.887258 82.755217 
L 174.878022 84.072315 
L 176.935145 27.217563 
L 180.850315 58.388894 
L 182.907438 104.267825 
L 184.898202 99.218948 
L 186.955325 102.950727 
L 188.946089 83.633282 
L 191.003212 83.633282 
L 199.098987 82.755217 
L 201.15611 80.340536 
L 203.213233 82.974733 
L 205.137638 82.974733 
L 207.194761 89.999258 
L 209.185525 103.609276 
L 211.242648 104.267825 
L 215.290536 84.291832 
L 217.347659 84.950381 
L 219.338423 82.5357 
L 221.395546 82.316184 
L 225.443433 82.316184 
L 227.500556 82.5357 
L 229.358603 82.5357 
L 231.415726 98.999431 
L 233.40649 103.609276 
L 235.463613 104.048309 
L 237.454377 83.413766 
L 239.5115 83.194249 
L 241.568623 84.730864 
L 243.559387 82.316184 
L 247.607274 82.316184 
L 249.664397 82.755217 
L 251.72152 82.974733 
L 253.579567 82.755217 
L 255.63669 82.974733 
L 257.627454 104.267825 
L 259.684577 103.609276 
L 261.675341 87.584578 
L 263.732464 83.413766 
L 265.789587 90.438291 
L 267.780352 82.755217 
L 269.837475 82.5357 
L 271.828239 82.5357 
L 273.885362 86.267479 
L 275.942485 104.267825 
L 283.905542 104.267825 
L 285.896306 103.609276 
L 287.953429 84.291832 
L 290.010552 84.291832 
L 292.001316 83.633282 
L 294.058439 83.194249 
L 296.049203 83.852799 
L 298.106326 104.267825 
L 304.144978 104.267825 
L 306.135742 103.38976 
L 308.192865 104.267825 
L 310.183629 104.267825 
L 312.240752 89.121193 
L 314.297875 84.072315 
L 316.288639 83.633282 
L 318.345762 82.974733 
L 320.336526 82.096667 
L 322.393649 81.657635 
L 324.450772 82.316184 
L 326.308819 82.5357 
L 328.365942 104.267825 
L 330.356706 104.267825 
L 332.413829 86.706512 
L 334.404593 83.194249 
L 336.461716 83.413766 
L 338.51884 90.877324 
L 340.509604 82.316184 
L 344.557491 81.877151 
L 346.614614 82.316184 
L 348.671737 82.316184 
L 350.529784 100.097014 
L 352.586907 104.267825 
L 354.577671 104.267825 
L 356.634794 103.38976 
L 358.625558 89.121193 
L 360.682681 83.633282 
L 362.739804 83.413766 
L 364.730568 83.413766 
L 366.787691 82.5357 
L 368.778455 82.5357 
L 370.835578 82.755217 
L 372.892701 102.072661 
L 374.750748 83.633282 
L 376.807871 82.974733 
L 378.798635 98.779915 
L 380.855758 85.828446 
L 382.846522 84.072315 
L 384.903645 84.511348 
L 386.960768 83.413766 
L 388.951533 85.60893 
L 391.008656 82.974733 
L 397.113666 83.633282 
L 399.038071 98.340882 
L 401.095194 104.267825 
L 403.085958 104.267825 
L 405.143081 96.584751 
L 407.133846 83.852799 
L 411.248092 84.291832 
L 413.238856 95.267652 
L 415.295979 83.413766 
L 417.286743 82.5357 
L 419.343866 82.974733 
L 421.400989 101.194596 
L 423.259036 104.267825 
L 425.316159 103.38976 
L 427.306923 104.267825 
L 429.364046 104.267825 
L 431.35481 88.023611 
L 433.411933 84.072315 
L 437.45982 83.194249 
L 439.516943 83.194249 
L 441.507707 82.5357 
L 443.56483 82.974733 
L 445.621953 103.609276 
L 447.48 104.267825 
L 447.48 104.267825 
" style="fill:none;stroke:#008000;stroke-linecap:square;stroke-width:1.5;"/>
   </g>
   <g id="patch_3">
    <path d="M 31.543 108.120339 
L 31.543 23.36505 
" style="fill:none;stroke:#000000;stroke-linecap:square;stroke-linejoin:miter;stroke-width:0.8;"/>
   </g>
   <g id="patch_4">
    <path d="M 447.48 108.120339 
L 447.48 23.36505 
" style="fill:none;stroke:#000000;stroke-linecap:square;stroke-linejoin:miter;stroke-width:0.8;"/>
   </g>
   <g id="patch_5">
    <path d="M 31.543 108.120339 
L 447.48 108.120339 
" style="fill:none;stroke:#000000;stroke-linecap:square;stroke-linejoin:miter;stroke-width:0.8;"/>
   </g>
   <g id="patch_6">
    <path d="M 31.543 23.36505 
L 447.48 23.36505 
" style="fill:none;stroke:#000000;stroke-linecap:square;stroke-linejoin:miter;stroke-width:0.8;"/>
   </g>
   <g id="text_5">
    <!-- Mean hourly emissions -->
    <defs>
     <path d="M 9.8125 72.90625 
L 24.515625 72.90625 
L 43.109375 23.296875 
L 61.8125 72.90625 
L 76.515625 72.90625 
L 76.515625 0 
L 66.890625 0 
L 66.890625 64.015625 
L 48.09375 14.015625 
L 38.1875 14.015625 
L 19.390625 64.015625 
L 19.390625 0 
L 9.8125 0 
z
" id="DejaVuSans-4d"/>
     <path d="M 56.203125 29.59375 
L 56.203125 25.203125 
L 14.890625 25.203125 
Q 15.484375 15.921875 20.484375 11.0625 
Q 25.484375 6.203125 34.421875 6.203125 
Q 39.59375 6.203125 44.453125 7.46875 
Q 49.3125 8.734375 54.109375 11.28125 
L 54.109375 2.78125 
Q 49.265625 0.734375 44.1875 -0.34375 
Q 39.109375 -1.421875 33.890625 -1.421875 
Q 20.796875 -1.421875 13.15625 6.1875 
Q 5.515625 13.8125 5.515625 26.8125 
Q 5.515625 40.234375 12.765625 48.109375 
Q 20.015625 56 32.328125 56 
Q 43.359375 56 49.78125 48.890625 
Q 56.203125 41.796875 56.203125 29.59375 
z
M 47.21875 32.234375 
Q 47.125 39.59375 43.09375 43.984375 
Q 39.0625 48.390625 32.421875 48.390625 
Q 24.90625 48.390625 20.390625 44.140625 
Q 15.875 39.890625 15.1875 32.171875 
z
" id="DejaVuSans-65"/>
     <path d="M 34.28125 27.484375 
Q 23.390625 27.484375 19.1875 25 
Q 14.984375 22.515625 14.984375 16.5 
Q 14.984375 11.71875 18.140625 8.90625 
Q 21.296875 6.109375 26.703125 6.109375 
Q 34.1875 6.109375 38.703125 11.40625 
Q 43.21875 16.703125 43.21875 25.484375 
L 43.21875 27.484375 
z
M 52.203125 31.203125 
L 52.203125 0 
L 43.21875 0 
L 43.21875 8.296875 
Q 40.140625 3.328125 35.546875 0.953125 
Q 30.953125 -1.421875 24.3125 -1.421875 
Q 15.921875 -1.421875 10.953125 3.296875 
Q 6 8.015625 6 15.921875 
Q 6 25.140625 12.171875 29.828125 
Q 18.359375 34.515625 30.609375 34.515625 
L 43.21875 34.515625 
L 43.21875 35.40625 
Q 43.21875 41.609375 39.140625 45 
Q 35.0625 48.390625 27.6875 48.390625 
Q 23 48.390625 18.546875 47.265625 
Q 14.109375 46.140625 10.015625 43.890625 
L 10.015625 52.203125 
Q 14.9375 54.109375 19.578125 55.046875 
Q 24.21875 56 28.609375 56 
Q 40.484375 56 46.34375 49.84375 
Q 52.203125 43.703125 52.203125 31.203125 
z
" id="DejaVuSans-61"/>
     <path d="M 54.890625 33.015625 
L 54.890625 0 
L 45.90625 0 
L 45.90625 32.71875 
Q 45.90625 40.484375 42.875 44.328125 
Q 39.84375 48.1875 33.796875 48.1875 
Q 26.515625 48.1875 22.3125 43.546875 
Q 18.109375 38.921875 18.109375 30.90625 
L 18.109375 0 
L 9.078125 0 
L 9.078125 54.6875 
L 18.109375 54.6875 
L 18.109375 46.1875 
Q 21.34375 51.125 25.703125 53.5625 
Q 30.078125 56 35.796875 56 
Q 45.21875 56 50.046875 50.171875 
Q 54.890625 44.34375 54.890625 33.015625 
z
" id="DejaVuSans-6e"/>
     <path id="DejaVuSans-20"/>
     <path d="M 54.890625 33.015625 
L 54.890625 0 
L 45.90625 0 
L 45.90625 32.71875 
Q 45.90625 40.484375 42.875 44.328125 
Q 39.84375 48.1875 33.796875 48.1875 
Q 26.515625 48.1875 22.3125 43.546875 
Q 18.109375 38.921875 18.109375 30.90625 
L 18.109375 0 
L 9.078125 0 
L 9.078125 75.984375 
L 18.109375 75.984375 
L 18.109375 46.1875 
Q 21.34375 51.125 25.703125 53.5625 
Q 30.078125 56 35.796875 56 
Q 45.21875 56 50.046875 50.171875 
Q 54.890625 44.34375 54.890625 33.015625 
z
" id="DejaVuSans-68"/>
     <path d="M 30.609375 48.390625 
Q 23.390625 48.390625 19.1875 42.75 
Q 14.984375 37.109375 14.984375 27.296875 
Q 14.984375 17.484375 19.15625 11.84375 
Q 23.34375 6.203125 30.609375 6.203125 
Q 37.796875 6.203125 41.984375 11.859375 
Q 46.1875 17.53125 46.1875 27.296875 
Q 46.1875 37.015625 41.984375 42.703125 
Q 37.796875 48.390625 30.609375 48.390625 
z
M 30.609375 56 
Q 42.328125 56 49.015625 48.375 
Q 55.71875 40.765625 55.71875 27.296875 
Q 55.71875 13.875 49.015625 6.21875 
Q 42.328125 -1.421875 30.609375 -1.421875 
Q 18.84375 -1.421875 12.171875 6.21875 
Q 5.515625 13.875 5.515625 27.296875 
Q 5.515625 40.765625 12.171875 48.375 
Q 18.84375 56 30.609375 56 
z
" id="DejaVuSans-6f"/>
     <path d="M 8.5 21.578125 
L 8.5 54.6875 
L 17.484375 54.6875 
L 17.484375 21.921875 
Q 17.484375 14.15625 20.5 10.265625 
Q 23.53125 6.390625 29.59375 6.390625 
Q 36.859375 6.390625 41.078125 11.03125 
Q 45.3125 15.671875 45.3125 23.6875 
L 45.3125 54.6875 
L 54.296875 54.6875 
L 54.296875 0 
L 45.3125 0 
L 45.3125 8.40625 
Q 42.046875 3.421875 37.71875 1 
Q 33.40625 -1.421875 27.6875 -1.421875 
Q 18.265625 -1.421875 13.375 4.4375 
Q 8.5 10.296875 8.5 21.578125 
z
M 31.109375 56 
z
" id="DejaVuSans-75"/>
     <path d="M 41.109375 46.296875 
Q 39.59375 47.171875 37.8125 47.578125 
Q 36.03125 48 33.890625 48 
Q 26.265625 48 22.1875 43.046875 
Q 18.109375 38.09375 18.109375 28.8125 
L 18.109375 0 
L 9.078125 0 
L 9.078125 54.6875 
L 18.109375 54.6875 
L 18.109375 46.1875 
Q 20.953125 51.171875 25.484375 53.578125 
Q 30.03125 56 36.53125 56 
Q 37.453125 56 38.578125 55.875 
Q 39.703125 55.765625 41.0625 55.515625 
z
" id="DejaVuSans-72"/>
     <path d="M 9.421875 75.984375 
L 18.40625 75.984375 
L 18.40625 0 
L 9.421875 0 
z
" id="DejaVuSans-6c"/>
     <path d="M 32.171875 -5.078125 
Q 28.375 -14.84375 24.75 -17.8125 
Q 21.140625 -20.796875 15.09375 -20.796875 
L 7.90625 -20.796875 
L 7.90625 -13.28125 
L 13.1875 -13.28125 
Q 16.890625 -13.28125 18.9375 -11.515625 
Q 21 -9.765625 23.484375 -3.21875 
L 25.09375 0.875 
L 2.984375 54.6875 
L 12.5 54.6875 
L 29.59375 11.921875 
L 46.6875 54.6875 
L 56.203125 54.6875 
z
" id="DejaVuSans-79"/>
     <path d="M 52 44.1875 
Q 55.375 50.25 60.0625 53.125 
Q 64.75 56 71.09375 56 
Q 79.640625 56 84.28125 50.015625 
Q 88.921875 44.046875 88.921875 33.015625 
L 88.921875 0 
L 79.890625 0 
L 79.890625 32.71875 
Q 79.890625 40.578125 77.09375 44.375 
Q 74.3125 48.1875 68.609375 48.1875 
Q 61.625 48.1875 57.5625 43.546875 
Q 53.515625 38.921875 53.515625 30.90625 
L 53.515625 0 
L 44.484375 0 
L 44.484375 32.71875 
Q 44.484375 40.625 41.703125 44.40625 
Q 38.921875 48.1875 33.109375 48.1875 
Q 26.21875 48.1875 22.15625 43.53125 
Q 18.109375 38.875 18.109375 30.90625 
L 18.109375 0 
L 9.078125 0 
L 9.078125 54.6875 
L 18.109375 54.6875 
L 18.109375 46.1875 
Q 21.1875 51.21875 25.484375 53.609375 
Q 29.78125 56 35.6875 56 
Q 41.65625 56 45.828125 52.96875 
Q 50 49.953125 52 44.1875 
z
" id="DejaVuSans-6d"/>
     <path d="M 9.421875 54.6875 
L 18.40625 54.6875 
L 18.40625 0 
L 9.421875 0 
z
M 9.421875 75.984375 
L 18.40625 75.984375 
L 18.40625 64.59375 
L 9.421875 64.59375 
z
" id="DejaVuSans-69"/>
     <path d="M 44.28125 53.078125 
L 44.28125 44.578125 
Q 40.484375 46.53125 36.375 47.5 
Q 32.28125 48.484375 27.875 48.484375 
Q 21.1875 48.484375 17.84375 46.4375 
Q 14.5 44.390625 14.5 40.28125 
Q 14.5 37.15625 16.890625 35.375 
Q 19.28125 33.59375 26.515625 31.984375 
L 29.59375 31.296875 
Q 39.15625 29.25 43.1875 25.515625 
Q 47.21875 21.78125 47.21875 15.09375 
Q 47.21875 7.46875 41.1875 3.015625 
Q 35.15625 -1.421875 24.609375 -1.421875 
Q 20.21875 -1.421875 15.453125 -0.5625 
Q 10.6875 0.296875 5.421875 2 
L 5.421875 11.28125 
Q 10.40625 8.6875 15.234375 7.390625 
Q 20.0625 6.109375 24.8125 6.109375 
Q 31.15625 6.109375 34.5625 8.28125 
Q 37.984375 10.453125 37.984375 14.40625 
Q 37.984375 18.0625 35.515625 20.015625 
Q 33.0625 21.96875 24.703125 23.78125 
L 21.578125 24.515625 
Q 13.234375 26.265625 9.515625 29.90625 
Q 5.8125 33.546875 5.8125 39.890625 
Q 5.8125 47.609375 11.28125 51.796875 
Q 16.75 56 26.8125 56 
Q 31.78125 56 36.171875 55.265625 
Q 40.578125 54.546875 44.28125 53.078125 
z
" id="DejaVuSans-73"/>
    </defs>
    <g transform="translate(170.668063 17.36505)scale(0.12 -0.12)">
     <use xlink:href="#DejaVuSans-4d"/>
     <use x="86.279297" xlink:href="#DejaVuSans-65"/>
     <use x="147.802734" xlink:href="#DejaVuSans-61"/>
     <use x="209.082031" xlink:href="#DejaVuSans-6e"/>
     <use x="272.460938" xlink:href="#DejaVuSans-20"/>
     <use x="304.248047" xlink:href="#DejaVuSans-68"/>
     <use x="367.626953" xlink:href="#DejaVuSans-6f"/>
     <use x="428.808594" xlink:href="#DejaVuSans-75"/>
     <use x="492.1875" xlink:href="#DejaVuSans-72"/>
     <use x="533.300781" xlink:href="#DejaVuSans-6c"/>
     <use x="561.083984" xlink:href="#DejaVuSans-79"/>
     <use x="620.263672" xlink:href="#DejaVuSans-20"/>
     <use x="652.050781" xlink:href="#DejaVuSans-65"/>
     <use x="713.574219" xlink:href="#DejaVuSans-6d"/>
     <use x="810.986328" xlink:href="#DejaVuSans-69"/>
     <use x="838.769531" xlink:href="#DejaVuSans-73"/>
     <use x="890.869141" xlink:href="#DejaVuSans-73"/>
     <use x="942.96875" xlink:href="#DejaVuSans-69"/>
     <use x="970.751953" xlink:href="#DejaVuSans-6f"/>
     <use x="1031.933594" xlink:href="#DejaVuSans-6e"/>
     <use x="1095.3125" xlink:href="#DejaVuSans-73"/>
    </g>
   </g>
   <g id="legend_1">
    <g id="patch_7">
     <path d="M 362.58 46.043175 
L 440.48 46.043175 
Q 442.48 46.043175 442.48 44.043175 
L 442.48 30.36505 
Q 442.48 28.36505 440.48 28.36505 
L 362.58 28.36505 
Q 360.58 28.36505 360.58 30.36505 
L 360.58 44.043175 
Q 360.58 46.043175 362.58 46.043175 
z
" style="fill:#ffffff;opacity:0.8;stroke:#cccccc;stroke-linejoin:miter;"/>
    </g>
    <g id="line2d_28">
     <path d="M 364.58 36.463488 
L 384.58 36.463488 
" style="fill:none;stroke:#008000;stroke-linecap:square;stroke-width:1.5;"/>
    </g>
    <g id="line2d_29"/>
    <g id="text_6">
     <!-- SO2 (lbs) -->
     <defs>
      <path d="M 53.515625 70.515625 
L 53.515625 60.890625 
Q 47.90625 63.578125 42.921875 64.890625 
Q 37.9375 66.21875 33.296875 66.21875 
Q 25.25 66.21875 20.875 63.09375 
Q 16.5 59.96875 16.5 54.203125 
Q 16.5 49.359375 19.40625 46.890625 
Q 22.3125 44.4375 30.421875 42.921875 
L 36.375 41.703125 
Q 47.40625 39.59375 52.65625 34.296875 
Q 57.90625 29 57.90625 20.125 
Q 57.90625 9.515625 50.796875 4.046875 
Q 43.703125 -1.421875 29.984375 -1.421875 
Q 24.8125 -1.421875 18.96875 -0.25 
Q 13.140625 0.921875 6.890625 3.21875 
L 6.890625 13.375 
Q 12.890625 10.015625 18.65625 8.296875 
Q 24.421875 6.59375 29.984375 6.59375 
Q 38.421875 6.59375 43.015625 9.90625 
Q 47.609375 13.234375 47.609375 19.390625 
Q 47.609375 24.75 44.3125 27.78125 
Q 41.015625 30.8125 33.5 32.328125 
L 27.484375 33.5 
Q 16.453125 35.6875 11.515625 40.375 
Q 6.59375 45.0625 6.59375 53.421875 
Q 6.59375 63.09375 13.40625 68.65625 
Q 20.21875 74.21875 32.171875 74.21875 
Q 37.3125 74.21875 42.625 73.28125 
Q 47.953125 72.359375 53.515625 70.515625 
z
" id="DejaVuSans-53"/>
      <path d="M 39.40625 66.21875 
Q 28.65625 66.21875 22.328125 58.203125 
Q 16.015625 50.203125 16.015625 36.375 
Q 16.015625 22.609375 22.328125 14.59375 
Q 28.65625 6.59375 39.40625 6.59375 
Q 50.140625 6.59375 56.421875 14.59375 
Q 62.703125 22.609375 62.703125 36.375 
Q 62.703125 50.203125 56.421875 58.203125 
Q 50.140625 66.21875 39.40625 66.21875 
z
M 39.40625 74.21875 
Q 54.734375 74.21875 63.90625 63.9375 
Q 73.09375 53.65625 73.09375 36.375 
Q 73.09375 19.140625 63.90625 8.859375 
Q 54.734375 -1.421875 39.40625 -1.421875 
Q 24.03125 -1.421875 14.8125 8.828125 
Q 5.609375 19.09375 5.609375 36.375 
Q 5.609375 53.65625 14.8125 63.9375 
Q 24.03125 74.21875 39.40625 74.21875 
z
" id="DejaVuSans-4f"/>
      <path d="M 31 75.875 
Q 24.46875 64.65625 21.28125 53.65625 
Q 18.109375 42.671875 18.109375 31.390625 
Q 18.109375 20.125 21.3125 9.0625 
Q 24.515625 -2 31 -13.1875 
L 23.1875 -13.1875 
Q 15.875 -1.703125 12.234375 9.375 
Q 8.59375 20.453125 8.59375 31.390625 
Q 8.59375 42.28125 12.203125 53.3125 
Q 15.828125 64.359375 23.1875 75.875 
z
" id="DejaVuSans-28"/>
      <path d="M 48.6875 27.296875 
Q 48.6875 37.203125 44.609375 42.84375 
Q 40.53125 48.484375 33.40625 48.484375 
Q 26.265625 48.484375 22.1875 42.84375 
Q 18.109375 37.203125 18.109375 27.296875 
Q 18.109375 17.390625 22.1875 11.75 
Q 26.265625 6.109375 33.40625 6.109375 
Q 40.53125 6.109375 44.609375 11.75 
Q 48.6875 17.390625 48.6875 27.296875 
z
M 18.109375 46.390625 
Q 20.953125 51.265625 25.265625 53.625 
Q 29.59375 56 35.59375 56 
Q 45.5625 56 51.78125 48.09375 
Q 58.015625 40.1875 58.015625 27.296875 
Q 58.015625 14.40625 51.78125 6.484375 
Q 45.5625 -1.421875 35.59375 -1.421875 
Q 29.59375 -1.421875 25.265625 0.953125 
Q 20.953125 3.328125 18.109375 8.203125 
L 18.109375 0 
L 9.078125 0 
L 9.078125 75.984375 
L 18.109375 75.984375 
z
" id="DejaVuSans-62"/>
      <path d="M 8.015625 75.875 
L 15.828125 75.875 
Q 23.140625 64.359375 26.78125 53.3125 
Q 30.421875 42.28125 30.421875 31.390625 
Q 30.421875 20.453125 26.78125 9.375 
Q 23.140625 -1.703125 15.828125 -13.1875 
L 8.015625 -13.1875 
Q 14.5 -2 17.703125 9.0625 
Q 20.90625 20.125 20.90625 31.390625 
Q 20.90625 42.671875 17.703125 53.65625 
Q 14.5 64.65625 8.015625 75.875 
z
" id="DejaVuSans-29"/>
     </defs>
     <g transform="translate(392.58 39.963488)scale(0.1 -0.1)">
      <use xlink:href="#DejaVuSans-53"/>
      <use x="63.476562" xlink:href="#DejaVuSans-4f"/>
      <use x="142.1875" xlink:href="#DejaVuSans-32"/>
      <use x="205.810547" xlink:href="#DejaVuSans-20"/>
      <use x="237.597656" xlink:href="#DejaVuSans-28"/>
      <use x="276.611328" xlink:href="#DejaVuSans-6c"/>
      <use x="304.394531" xlink:href="#DejaVuSans-62"/>
      <use x="367.871094" xlink:href="#DejaVuSans-73"/>
      <use x="419.970703" xlink:href="#DejaVuSans-29"/>
     </g>
    </g>
   </g>
  </g>
  <g id="axes_2">
   <g id="patch_8">
    <path d="M 31.543 208.991919 
L 447.48 208.991919 
L 447.48 124.236631 
L 31.543 124.236631 
z
" style="fill:none;"/>
   </g>
   <g id="matplotlib.axis_3">
    <g id="xtick_10">
     <g id="line2d_30">
      <path clip-path="url(#p48d72b4d10)" d="M 31.543 208.991919 
L 31.543 124.236631 
" style="fill:none;stroke:#b0b0b0;stroke-linecap:square;stroke-width:0.8;"/>
     </g>
     <g id="line2d_31">
      <g>
       <use style="stroke:#000000;stroke-width:0.8;" x="31.543" xlink:href="#m52ca1a4b62" y="208.991919"/>
      </g>
     </g>
    </g>
    <g id="xtick_11">
     <g id="line2d_32">
      <path clip-path="url(#p48d72b4d10)" d="M 79.984929 208.991919 
L 79.984929 124.236631 
" style="fill:none;stroke:#b0b0b0;stroke-linecap:square;stroke-width:0.8;"/>
     </g>
     <g id="line2d_33">
      <g>
       <use style="stroke:#000000;stroke-width:0.8;" x="79.984929" xlink:href="#m52ca1a4b62" y="208.991919"/>
      </g>
     </g>
    </g>
    <g id="xtick_12">
     <g id="line2d_34">
      <path clip-path="url(#p48d72b4d10)" d="M 128.493216 208.991919 
L 128.493216 124.236631 
" style="fill:none;stroke:#b0b0b0;stroke-linecap:square;stroke-width:0.8;"/>
     </g>
     <g id="line2d_35">
      <g>
       <use style="stroke:#000000;stroke-width:0.8;" x="128.493216" xlink:href="#m52ca1a4b62" y="208.991919"/>
      </g>
     </g>
    </g>
    <g id="xtick_13">
     <g id="line2d_36">
      <path clip-path="url(#p48d72b4d10)" d="M 176.935145 208.991919 
L 176.935145 124.236631 
" style="fill:none;stroke:#b0b0b0;stroke-linecap:square;stroke-width:0.8;"/>
     </g>
     <g id="line2d_37">
      <g>
       <use style="stroke:#000000;stroke-width:0.8;" x="176.935145" xlink:href="#m52ca1a4b62" y="208.991919"/>
      </g>
     </g>
    </g>
    <g id="xtick_14">
     <g id="line2d_38">
      <path clip-path="url(#p48d72b4d10)" d="M 225.443433 208.991919 
L 225.443433 124.236631 
" style="fill:none;stroke:#b0b0b0;stroke-linecap:square;stroke-width:0.8;"/>
     </g>
     <g id="line2d_39">
      <g>
       <use style="stroke:#000000;stroke-width:0.8;" x="225.443433" xlink:href="#m52ca1a4b62" y="208.991919"/>
      </g>
     </g>
    </g>
    <g id="xtick_15">
     <g id="line2d_40">
      <path clip-path="url(#p48d72b4d10)" d="M 273.885362 208.991919 
L 273.885362 124.236631 
" style="fill:none;stroke:#b0b0b0;stroke-linecap:square;stroke-width:0.8;"/>
     </g>
     <g id="line2d_41">
      <g>
       <use style="stroke:#000000;stroke-width:0.8;" x="273.885362" xlink:href="#m52ca1a4b62" y="208.991919"/>
      </g>
     </g>
    </g>
    <g id="xtick_16">
     <g id="line2d_42">
      <path clip-path="url(#p48d72b4d10)" d="M 322.393649 208.991919 
L 322.393649 124.236631 
" style="fill:none;stroke:#b0b0b0;stroke-linecap:square;stroke-width:0.8;"/>
     </g>
     <g id="line2d_43">
      <g>
       <use style="stroke:#000000;stroke-width:0.8;" x="322.393649" xlink:href="#m52ca1a4b62" y="208.991919"/>
      </g>
     </g>
    </g>
    <g id="xtick_17">
     <g id="line2d_44">
      <path clip-path="url(#p48d72b4d10)" d="M 370.835578 208.991919 
L 370.835578 124.236631 
" style="fill:none;stroke:#b0b0b0;stroke-linecap:square;stroke-width:0.8;"/>
     </g>
     <g id="line2d_45">
      <g>
       <use style="stroke:#000000;stroke-width:0.8;" x="370.835578" xlink:href="#m52ca1a4b62" y="208.991919"/>
      </g>
     </g>
    </g>
    <g id="xtick_18">
     <g id="line2d_46">
      <path clip-path="url(#p48d72b4d10)" d="M 419.343866 208.991919 
L 419.343866 124.236631 
" style="fill:none;stroke:#b0b0b0;stroke-linecap:square;stroke-width:0.8;"/>
     </g>
     <g id="line2d_47">
      <g>
       <use style="stroke:#000000;stroke-width:0.8;" x="419.343866" xlink:href="#m52ca1a4b62" y="208.991919"/>
      </g>
     </g>
    </g>
   </g>
   <g id="matplotlib.axis_4">
    <g id="ytick_5">
     <g id="line2d_48">
      <path clip-path="url(#p48d72b4d10)" d="M 31.543 205.139406 
L 447.48 205.139406 
" style="fill:none;stroke:#b0b0b0;stroke-linecap:square;stroke-width:0.8;"/>
     </g>
     <g id="line2d_49">
      <g>
       <use style="stroke:#000000;stroke-width:0.8;" x="31.543" xlink:href="#me39838bfd5" y="205.139406"/>
      </g>
     </g>
     <g id="text_7">
      <!-- 0 -->
      <g transform="translate(18.1805 208.938625)scale(0.1 -0.1)">
       <use xlink:href="#DejaVuSans-30"/>
      </g>
     </g>
    </g>
    <g id="ytick_6">
     <g id="line2d_50">
      <path clip-path="url(#p48d72b4d10)" d="M 31.543 178.151573 
L 447.48 178.151573 
" style="fill:none;stroke:#b0b0b0;stroke-linecap:square;stroke-width:0.8;"/>
     </g>
     <g id="line2d_51">
      <g>
       <use style="stroke:#000000;stroke-width:0.8;" x="31.543" xlink:href="#me39838bfd5" y="178.151573"/>
      </g>
     </g>
     <g id="text_8">
      <!-- 10 -->
      <g transform="translate(11.818 181.950792)scale(0.1 -0.1)">
       <use xlink:href="#DejaVuSans-31"/>
       <use x="63.623047" xlink:href="#DejaVuSans-30"/>
      </g>
     </g>
    </g>
    <g id="ytick_7">
     <g id="line2d_52">
      <path clip-path="url(#p48d72b4d10)" d="M 31.543 151.163741 
L 447.48 151.163741 
" style="fill:none;stroke:#b0b0b0;stroke-linecap:square;stroke-width:0.8;"/>
     </g>
     <g id="line2d_53">
      <g>
       <use style="stroke:#000000;stroke-width:0.8;" x="31.543" xlink:href="#me39838bfd5" y="151.163741"/>
      </g>
     </g>
     <g id="text_9">
      <!-- 20 -->
      <g transform="translate(11.818 154.96296)scale(0.1 -0.1)">
       <use xlink:href="#DejaVuSans-32"/>
       <use x="63.623047" xlink:href="#DejaVuSans-30"/>
      </g>
     </g>
    </g>
    <g id="ytick_8">
     <g id="line2d_54">
      <path clip-path="url(#p48d72b4d10)" d="M 31.543 124.175908 
L 447.48 124.175908 
" style="fill:none;stroke:#b0b0b0;stroke-linecap:square;stroke-width:0.8;"/>
     </g>
     <g id="line2d_55">
      <g>
       <use style="stroke:#000000;stroke-width:0.8;" x="31.543" xlink:href="#me39838bfd5" y="124.175908"/>
      </g>
     </g>
     <g id="text_10">
      <!-- 30 -->
      <g transform="translate(11.818 127.975127)scale(0.1 -0.1)">
       <use xlink:href="#DejaVuSans-33"/>
       <use x="63.623047" xlink:href="#DejaVuSans-30"/>
      </g>
     </g>
    </g>
   </g>
   <g id="line2d_56">
    <path clip-path="url(#p48d72b4d10)" d="M 31.543 144.092929 
L 33.600123 143.472208 
L 35.45817 144.713649 
L 37.515293 204.707601 
L 39.506057 158.315516 
L 41.56318 145.415332 
L 43.553944 146.386894 
L 45.611067 146.575809 
L 47.66819 152.000364 
L 49.658954 144.902564 
L 51.716077 154.591196 
L 53.706841 143.769075 
L 55.763964 148.734836 
L 57.821087 148.869775 
L 59.679134 148.788811 
L 61.736257 199.094132 
L 63.727021 205.139406 
L 65.784144 205.139406 
L 67.774908 190.053208 
L 69.832031 148.357006 
L 71.889154 147.68231 
L 73.879919 143.067391 
L 75.937042 143.283294 
L 77.927806 143.229318 
L 79.984929 143.364257 
L 82.042052 144.011965 
L 83.900098 155.346855 
L 85.957221 205.139406 
L 87.947986 205.139406 
L 90.005109 198.824253 
L 91.995873 158.39648 
L 94.052996 164.819584 
L 96.110119 163.928986 
L 98.100883 161.392129 
L 100.158006 159.556957 
L 102.14877 157.937687 
L 104.205893 159.368042 
L 106.263016 160.555507 
L 108.187422 163.416217 
L 110.244545 164.144888 
L 112.235309 205.139406 
L 114.292432 204.923504 
L 116.283196 152.054339 
L 118.340319 147.979177 
L 120.397442 145.307381 
L 122.388206 149.274592 
L 124.445329 150.489045 
L 126.436093 147.979177 
L 128.493216 149.328568 
L 130.55034 149.9223 
L 132.408386 160.312616 
L 134.465509 149.30158 
L 136.456273 198.716302 
L 138.513396 203.493148 
L 140.50416 150.785911 
L 142.561284 154.267342 
L 144.618407 155.859624 
L 146.609171 146.386894 
L 148.666294 145.604247 
L 150.657058 164.1179 
L 152.714181 147.277493 
L 154.771304 145.685211 
L 156.629351 204.923504 
L 158.686474 205.139406 
L 160.677238 205.139406 
L 162.734361 200.038706 
L 164.725125 182.631554 
L 166.782248 149.868325 
L 168.839371 153.835536 
L 170.830135 149.139653 
L 172.887258 148.788811 
L 174.878022 149.382544 
L 176.935145 147.196529 
L 178.992268 150.866875 
L 180.850315 170.783895 
L 182.907438 205.139406 
L 184.898202 193.480662 
L 186.955325 200.227621 
L 188.946089 150.273142 
L 191.003212 150.462057 
L 193.060335 150.084227 
L 195.0511 149.004714 
L 197.108223 148.707848 
L 199.098987 149.193629 
L 201.15611 148.572909 
L 203.213233 149.220617 
L 205.137638 148.599897 
L 207.194761 160.096713 
L 209.185525 198.419436 
L 211.242648 205.139406 
L 213.233413 174.940021 
L 215.290536 151.892412 
L 217.347659 153.349755 
L 219.338423 148.626885 
L 221.395546 147.925201 
L 223.38631 146.8187 
L 225.443433 146.44087 
L 227.500556 147.871225 
L 229.358603 148.491945 
L 231.415726 191.26766 
L 233.40649 198.74329 
L 235.463613 201.765927 
L 237.454377 150.354106 
L 239.5115 150.435069 
L 241.568623 150.731935 
L 243.559387 148.06014 
L 245.61651 147.844237 
L 247.607274 146.602797 
L 249.664397 148.815799 
L 251.72152 148.923751 
L 253.579567 148.734836 
L 255.63669 149.895313 
L 257.627454 205.139406 
L 259.684577 191.26766 
L 261.675341 154.645171 
L 263.732464 150.219167 
L 265.789587 162.147789 
L 267.780352 148.545921 
L 269.837475 147.979177 
L 271.828239 147.952189 
L 273.885362 157.748772 
L 275.942485 205.139406 
L 281.848419 205.139406 
L 283.905542 202.521586 
L 285.896306 187.273461 
L 287.953429 149.382544 
L 290.010552 148.114116 
L 292.001316 151.487595 
L 294.058439 150.165191 
L 296.049203 150.138203 
L 298.106326 205.139406 
L 304.144978 205.139406 
L 306.135742 191.26766 
L 308.192865 205.139406 
L 310.183629 205.139406 
L 312.240752 156.318417 
L 314.297875 148.977726 
L 316.288639 152.054339 
L 320.336526 146.305931 
L 322.393649 145.82015 
L 324.450772 147.277493 
L 326.308819 147.547371 
L 328.365942 205.139406 
L 330.356706 205.139406 
L 332.413829 144.848588 
L 334.404593 146.764724 
L 336.461716 144.983527 
L 338.51884 159.988762 
L 340.509604 142.176792 
L 342.566727 141.313182 
L 344.557491 140.746437 
L 346.614614 141.744987 
L 348.671737 142.608598 
L 350.529784 192.104283 
L 352.586907 205.139406 
L 354.577671 204.22182 
L 356.634794 189.432488 
L 358.625558 151.9194 
L 360.682681 145.685211 
L 362.739804 144.902564 
L 364.730568 141.178243 
L 366.787691 141.987878 
L 370.835578 142.365707 
L 372.892701 198.527387 
L 374.750748 145.226418 
L 376.807871 142.041853 
L 378.798635 178.124586 
L 380.855758 140.314632 
L 382.846522 144.956539 
L 384.903645 135.10598 
L 386.960768 143.337269 
L 388.951533 134.782126 
L 391.008656 144.20088 
L 392.99942 142.689561 
L 395.056543 143.904014 
L 397.113666 144.8216 
L 399.038071 185.465276 
L 401.095194 205.139406 
L 403.085958 205.139406 
L 405.143081 134.134418 
L 407.133846 145.010515 
L 409.190969 148.977726 
L 411.248092 148.977726 
L 413.238856 128.089144 
L 415.295979 147.088578 
L 417.286743 144.659673 
L 419.343866 142.743537 
L 421.400989 196.449324 
L 423.259036 205.139406 
L 425.316159 176.316401 
L 427.306923 205.139406 
L 429.364046 205.139406 
L 431.35481 154.078427 
L 433.411933 148.599897 
L 435.469056 150.111215 
L 437.45982 146.144004 
L 439.516943 146.251955 
L 441.507707 137.615849 
L 443.56483 146.278943 
L 445.621953 202.737489 
L 447.48 205.139406 
L 447.48 205.139406 
" style="fill:none;stroke:#f97306;stroke-linecap:square;stroke-width:1.5;"/>
   </g>
   <g id="patch_9">
    <path d="M 31.543 208.991919 
L 31.543 124.236631 
" style="fill:none;stroke:#000000;stroke-linecap:square;stroke-linejoin:miter;stroke-width:0.8;"/>
   </g>
   <g id="patch_10">
    <path d="M 447.48 208.991919 
L 447.48 124.236631 
" style="fill:none;stroke:#000000;stroke-linecap:square;stroke-linejoin:miter;stroke-width:0.8;"/>
   </g>
   <g id="patch_11">
    <path d="M 31.543 208.991919 
L 447.48 208.991919 
" style="fill:none;stroke:#000000;stroke-linecap:square;stroke-linejoin:miter;stroke-width:0.8;"/>
   </g>
   <g id="patch_12">
    <path d="M 31.543 124.236631 
L 447.48 124.236631 
" style="fill:none;stroke:#000000;stroke-linecap:square;stroke-linejoin:miter;stroke-width:0.8;"/>
   </g>
   <g id="legend_2">
    <g id="patch_13">
     <path d="M 361.890938 175.453338 
L 440.48 175.453338 
Q 442.48 175.453338 442.48 173.453338 
L 442.48 159.775213 
Q 442.48 157.775213 440.48 157.775213 
L 361.890938 157.775213 
Q 359.890938 157.775213 359.890938 159.775213 
L 359.890938 173.453338 
Q 359.890938 175.453338 361.890938 175.453338 
z
" style="fill:#ffffff;opacity:0.8;stroke:#cccccc;stroke-linejoin:miter;"/>
    </g>
    <g id="line2d_57">
     <path d="M 363.890938 165.87365 
L 383.890938 165.87365 
" style="fill:none;stroke:#f97306;stroke-linecap:square;stroke-width:1.5;"/>
    </g>
    <g id="line2d_58"/>
    <g id="text_11">
     <!-- NOx (lbs) -->
     <defs>
      <path d="M 9.8125 72.90625 
L 23.09375 72.90625 
L 55.421875 11.921875 
L 55.421875 72.90625 
L 64.984375 72.90625 
L 64.984375 0 
L 51.703125 0 
L 19.390625 60.984375 
L 19.390625 0 
L 9.8125 0 
z
" id="DejaVuSans-4e"/>
      <path d="M 54.890625 54.6875 
L 35.109375 28.078125 
L 55.90625 0 
L 45.3125 0 
L 29.390625 21.484375 
L 13.484375 0 
L 2.875 0 
L 24.125 28.609375 
L 4.6875 54.6875 
L 15.28125 54.6875 
L 29.78125 35.203125 
L 44.28125 54.6875 
z
" id="DejaVuSans-78"/>
     </defs>
     <g transform="translate(391.890938 169.37365)scale(0.1 -0.1)">
      <use xlink:href="#DejaVuSans-4e"/>
      <use x="74.804688" xlink:href="#DejaVuSans-4f"/>
      <use x="153.515625" xlink:href="#DejaVuSans-78"/>
      <use x="212.695312" xlink:href="#DejaVuSans-20"/>
      <use x="244.482422" xlink:href="#DejaVuSans-28"/>
      <use x="283.496094" xlink:href="#DejaVuSans-6c"/>
      <use x="311.279297" xlink:href="#DejaVuSans-62"/>
      <use x="374.755859" xlink:href="#DejaVuSans-73"/>
      <use x="426.855469" xlink:href="#DejaVuSans-29"/>
     </g>
    </g>
   </g>
  </g>
  <g id="axes_3">
   <g id="patch_14">
    <path d="M 31.543 309.8635 
L 447.48 309.8635 
L 447.48 225.108211 
L 31.543 225.108211 
z
" style="fill:none;"/>
   </g>
   <g id="matplotlib.axis_5">
    <g id="xtick_19">
     <g id="line2d_59">
      <path clip-path="url(#p87d52b9403)" d="M 31.543 309.8635 
L 31.543 225.108211 
" style="fill:none;stroke:#b0b0b0;stroke-linecap:square;stroke-width:0.8;"/>
     </g>
     <g id="line2d_60">
      <g>
       <use style="stroke:#000000;stroke-width:0.8;" x="31.543" xlink:href="#m52ca1a4b62" y="309.8635"/>
      </g>
     </g>
     <g id="text_12">
      <!-- 2001 -->
      <g transform="translate(18.818 324.461937)scale(0.1 -0.1)">
       <use xlink:href="#DejaVuSans-32"/>
       <use x="63.623047" xlink:href="#DejaVuSans-30"/>
       <use x="127.246094" xlink:href="#DejaVuSans-30"/>
       <use x="190.869141" xlink:href="#DejaVuSans-31"/>
      </g>
     </g>
    </g>
    <g id="xtick_20">
     <g id="line2d_61">
      <path clip-path="url(#p87d52b9403)" d="M 79.984929 309.8635 
L 79.984929 225.108211 
" style="fill:none;stroke:#b0b0b0;stroke-linecap:square;stroke-width:0.8;"/>
     </g>
     <g id="line2d_62">
      <g>
       <use style="stroke:#000000;stroke-width:0.8;" x="79.984929" xlink:href="#m52ca1a4b62" y="309.8635"/>
      </g>
     </g>
     <g id="text_13">
      <!-- 2003 -->
      <g transform="translate(67.259929 324.461937)scale(0.1 -0.1)">
       <use xlink:href="#DejaVuSans-32"/>
       <use x="63.623047" xlink:href="#DejaVuSans-30"/>
       <use x="127.246094" xlink:href="#DejaVuSans-30"/>
       <use x="190.869141" xlink:href="#DejaVuSans-33"/>
      </g>
     </g>
    </g>
    <g id="xtick_21">
     <g id="line2d_63">
      <path clip-path="url(#p87d52b9403)" d="M 128.493216 309.8635 
L 128.493216 225.108211 
" style="fill:none;stroke:#b0b0b0;stroke-linecap:square;stroke-width:0.8;"/>
     </g>
     <g id="line2d_64">
      <g>
       <use style="stroke:#000000;stroke-width:0.8;" x="128.493216" xlink:href="#m52ca1a4b62" y="309.8635"/>
      </g>
     </g>
     <g id="text_14">
      <!-- 2005 -->
      <defs>
       <path d="M 10.796875 72.90625 
L 49.515625 72.90625 
L 49.515625 64.59375 
L 19.828125 64.59375 
L 19.828125 46.734375 
Q 21.96875 47.46875 24.109375 47.828125 
Q 26.265625 48.1875 28.421875 48.1875 
Q 40.625 48.1875 47.75 41.5 
Q 54.890625 34.8125 54.890625 23.390625 
Q 54.890625 11.625 47.5625 5.09375 
Q 40.234375 -1.421875 26.90625 -1.421875 
Q 22.3125 -1.421875 17.546875 -0.640625 
Q 12.796875 0.140625 7.71875 1.703125 
L 7.71875 11.625 
Q 12.109375 9.234375 16.796875 8.0625 
Q 21.484375 6.890625 26.703125 6.890625 
Q 35.15625 6.890625 40.078125 11.328125 
Q 45.015625 15.765625 45.015625 23.390625 
Q 45.015625 31 40.078125 35.4375 
Q 35.15625 39.890625 26.703125 39.890625 
Q 22.75 39.890625 18.8125 39.015625 
Q 14.890625 38.140625 10.796875 36.28125 
z
" id="DejaVuSans-35"/>
      </defs>
      <g transform="translate(115.768216 324.461937)scale(0.1 -0.1)">
       <use xlink:href="#DejaVuSans-32"/>
       <use x="63.623047" xlink:href="#DejaVuSans-30"/>
       <use x="127.246094" xlink:href="#DejaVuSans-30"/>
       <use x="190.869141" xlink:href="#DejaVuSans-35"/>
      </g>
     </g>
    </g>
    <g id="xtick_22">
     <g id="line2d_65">
      <path clip-path="url(#p87d52b9403)" d="M 176.935145 309.8635 
L 176.935145 225.108211 
" style="fill:none;stroke:#b0b0b0;stroke-linecap:square;stroke-width:0.8;"/>
     </g>
     <g id="line2d_66">
      <g>
       <use style="stroke:#000000;stroke-width:0.8;" x="176.935145" xlink:href="#m52ca1a4b62" y="309.8635"/>
      </g>
     </g>
     <g id="text_15">
      <!-- 2007 -->
      <defs>
       <path d="M 8.203125 72.90625 
L 55.078125 72.90625 
L 55.078125 68.703125 
L 28.609375 0 
L 18.3125 0 
L 43.21875 64.59375 
L 8.203125 64.59375 
z
" id="DejaVuSans-37"/>
      </defs>
      <g transform="translate(164.210145 324.461937)scale(0.1 -0.1)">
       <use xlink:href="#DejaVuSans-32"/>
       <use x="63.623047" xlink:href="#DejaVuSans-30"/>
       <use x="127.246094" xlink:href="#DejaVuSans-30"/>
       <use x="190.869141" xlink:href="#DejaVuSans-37"/>
      </g>
     </g>
    </g>
    <g id="xtick_23">
     <g id="line2d_67">
      <path clip-path="url(#p87d52b9403)" d="M 225.443433 309.8635 
L 225.443433 225.108211 
" style="fill:none;stroke:#b0b0b0;stroke-linecap:square;stroke-width:0.8;"/>
     </g>
     <g id="line2d_68">
      <g>
       <use style="stroke:#000000;stroke-width:0.8;" x="225.443433" xlink:href="#m52ca1a4b62" y="309.8635"/>
      </g>
     </g>
     <g id="text_16">
      <!-- 2009 -->
      <defs>
       <path d="M 10.984375 1.515625 
L 10.984375 10.5 
Q 14.703125 8.734375 18.5 7.8125 
Q 22.3125 6.890625 25.984375 6.890625 
Q 35.75 6.890625 40.890625 13.453125 
Q 46.046875 20.015625 46.78125 33.40625 
Q 43.953125 29.203125 39.59375 26.953125 
Q 35.25 24.703125 29.984375 24.703125 
Q 19.046875 24.703125 12.671875 31.3125 
Q 6.296875 37.9375 6.296875 49.421875 
Q 6.296875 60.640625 12.9375 67.421875 
Q 19.578125 74.21875 30.609375 74.21875 
Q 43.265625 74.21875 49.921875 64.515625 
Q 56.59375 54.828125 56.59375 36.375 
Q 56.59375 19.140625 48.40625 8.859375 
Q 40.234375 -1.421875 26.421875 -1.421875 
Q 22.703125 -1.421875 18.890625 -0.6875 
Q 15.09375 0.046875 10.984375 1.515625 
z
M 30.609375 32.421875 
Q 37.25 32.421875 41.125 36.953125 
Q 45.015625 41.5 45.015625 49.421875 
Q 45.015625 57.28125 41.125 61.84375 
Q 37.25 66.40625 30.609375 66.40625 
Q 23.96875 66.40625 20.09375 61.84375 
Q 16.21875 57.28125 16.21875 49.421875 
Q 16.21875 41.5 20.09375 36.953125 
Q 23.96875 32.421875 30.609375 32.421875 
z
" id="DejaVuSans-39"/>
      </defs>
      <g transform="translate(212.718433 324.461937)scale(0.1 -0.1)">
       <use xlink:href="#DejaVuSans-32"/>
       <use x="63.623047" xlink:href="#DejaVuSans-30"/>
       <use x="127.246094" xlink:href="#DejaVuSans-30"/>
       <use x="190.869141" xlink:href="#DejaVuSans-39"/>
      </g>
     </g>
    </g>
    <g id="xtick_24">
     <g id="line2d_69">
      <path clip-path="url(#p87d52b9403)" d="M 273.885362 309.8635 
L 273.885362 225.108211 
" style="fill:none;stroke:#b0b0b0;stroke-linecap:square;stroke-width:0.8;"/>
     </g>
     <g id="line2d_70">
      <g>
       <use style="stroke:#000000;stroke-width:0.8;" x="273.885362" xlink:href="#m52ca1a4b62" y="309.8635"/>
      </g>
     </g>
     <g id="text_17">
      <!-- 2011 -->
      <g transform="translate(261.160362 324.461937)scale(0.1 -0.1)">
       <use xlink:href="#DejaVuSans-32"/>
       <use x="63.623047" xlink:href="#DejaVuSans-30"/>
       <use x="127.246094" xlink:href="#DejaVuSans-31"/>
       <use x="190.869141" xlink:href="#DejaVuSans-31"/>
      </g>
     </g>
    </g>
    <g id="xtick_25">
     <g id="line2d_71">
      <path clip-path="url(#p87d52b9403)" d="M 322.393649 309.8635 
L 322.393649 225.108211 
" style="fill:none;stroke:#b0b0b0;stroke-linecap:square;stroke-width:0.8;"/>
     </g>
     <g id="line2d_72">
      <g>
       <use style="stroke:#000000;stroke-width:0.8;" x="322.393649" xlink:href="#m52ca1a4b62" y="309.8635"/>
      </g>
     </g>
     <g id="text_18">
      <!-- 2013 -->
      <g transform="translate(309.668649 324.461937)scale(0.1 -0.1)">
       <use xlink:href="#DejaVuSans-32"/>
       <use x="63.623047" xlink:href="#DejaVuSans-30"/>
       <use x="127.246094" xlink:href="#DejaVuSans-31"/>
       <use x="190.869141" xlink:href="#DejaVuSans-33"/>
      </g>
     </g>
    </g>
    <g id="xtick_26">
     <g id="line2d_73">
      <path clip-path="url(#p87d52b9403)" d="M 370.835578 309.8635 
L 370.835578 225.108211 
" style="fill:none;stroke:#b0b0b0;stroke-linecap:square;stroke-width:0.8;"/>
     </g>
     <g id="line2d_74">
      <g>
       <use style="stroke:#000000;stroke-width:0.8;" x="370.835578" xlink:href="#m52ca1a4b62" y="309.8635"/>
      </g>
     </g>
     <g id="text_19">
      <!-- 2015 -->
      <g transform="translate(358.110578 324.461937)scale(0.1 -0.1)">
       <use xlink:href="#DejaVuSans-32"/>
       <use x="63.623047" xlink:href="#DejaVuSans-30"/>
       <use x="127.246094" xlink:href="#DejaVuSans-31"/>
       <use x="190.869141" xlink:href="#DejaVuSans-35"/>
      </g>
     </g>
    </g>
    <g id="xtick_27">
     <g id="line2d_75">
      <path clip-path="url(#p87d52b9403)" d="M 419.343866 309.8635 
L 419.343866 225.108211 
" style="fill:none;stroke:#b0b0b0;stroke-linecap:square;stroke-width:0.8;"/>
     </g>
     <g id="line2d_76">
      <g>
       <use style="stroke:#000000;stroke-width:0.8;" x="419.343866" xlink:href="#m52ca1a4b62" y="309.8635"/>
      </g>
     </g>
     <g id="text_20">
      <!-- 2017 -->
      <g transform="translate(406.618866 324.461937)scale(0.1 -0.1)">
       <use xlink:href="#DejaVuSans-32"/>
       <use x="63.623047" xlink:href="#DejaVuSans-30"/>
       <use x="127.246094" xlink:href="#DejaVuSans-31"/>
       <use x="190.869141" xlink:href="#DejaVuSans-37"/>
      </g>
     </g>
    </g>
    <g id="text_21">
     <!-- Date -->
     <defs>
      <path d="M 19.671875 64.796875 
L 19.671875 8.109375 
L 31.59375 8.109375 
Q 46.6875 8.109375 53.6875 14.9375 
Q 60.6875 21.78125 60.6875 36.53125 
Q 60.6875 51.171875 53.6875 57.984375 
Q 46.6875 64.796875 31.59375 64.796875 
z
M 9.8125 72.90625 
L 30.078125 72.90625 
Q 51.265625 72.90625 61.171875 64.09375 
Q 71.09375 55.28125 71.09375 36.53125 
Q 71.09375 17.671875 61.125 8.828125 
Q 51.171875 0 30.078125 0 
L 9.8125 0 
z
" id="DejaVuSans-44"/>
      <path d="M 18.3125 70.21875 
L 18.3125 54.6875 
L 36.8125 54.6875 
L 36.8125 47.703125 
L 18.3125 47.703125 
L 18.3125 18.015625 
Q 18.3125 11.328125 20.140625 9.421875 
Q 21.96875 7.515625 27.59375 7.515625 
L 36.8125 7.515625 
L 36.8125 0 
L 27.59375 0 
Q 17.1875 0 13.234375 3.875 
Q 9.28125 7.765625 9.28125 18.015625 
L 9.28125 47.703125 
L 2.6875 47.703125 
L 2.6875 54.6875 
L 9.28125 54.6875 
L 9.28125 70.21875 
z
" id="DejaVuSans-74"/>
     </defs>
     <g transform="translate(227.560719 338.140062)scale(0.1 -0.1)">
      <use xlink:href="#DejaVuSans-44"/>
      <use x="77.001953" xlink:href="#DejaVuSans-61"/>
      <use x="138.28125" xlink:href="#DejaVuSans-74"/>
      <use x="177.490234" xlink:href="#DejaVuSans-65"/>
     </g>
    </g>
   </g>
   <g id="matplotlib.axis_6">
    <g id="ytick_9">
     <g id="line2d_77">
      <path clip-path="url(#p87d52b9403)" d="M 31.543 306.010987 
L 447.48 306.010987 
" style="fill:none;stroke:#b0b0b0;stroke-linecap:square;stroke-width:0.8;"/>
     </g>
     <g id="line2d_78">
      <g>
       <use style="stroke:#000000;stroke-width:0.8;" x="31.543" xlink:href="#me39838bfd5" y="306.010987"/>
      </g>
     </g>
     <g id="text_22">
      <!-- 0 -->
      <g transform="translate(18.1805 309.810206)scale(0.1 -0.1)">
       <use xlink:href="#DejaVuSans-30"/>
      </g>
     </g>
    </g>
    <g id="ytick_10">
     <g id="line2d_79">
      <path clip-path="url(#p87d52b9403)" d="M 31.543 271.739008 
L 447.48 271.739008 
" style="fill:none;stroke:#b0b0b0;stroke-linecap:square;stroke-width:0.8;"/>
     </g>
     <g id="line2d_80">
      <g>
       <use style="stroke:#000000;stroke-width:0.8;" x="31.543" xlink:href="#me39838bfd5" y="271.739008"/>
      </g>
     </g>
     <g id="text_23">
      <!-- 50 -->
      <g transform="translate(11.818 275.538227)scale(0.1 -0.1)">
       <use xlink:href="#DejaVuSans-35"/>
       <use x="63.623047" xlink:href="#DejaVuSans-30"/>
      </g>
     </g>
    </g>
    <g id="ytick_11">
     <g id="line2d_81">
      <path clip-path="url(#p87d52b9403)" d="M 31.543 237.46703 
L 447.48 237.46703 
" style="fill:none;stroke:#b0b0b0;stroke-linecap:square;stroke-width:0.8;"/>
     </g>
     <g id="line2d_82">
      <g>
       <use style="stroke:#000000;stroke-width:0.8;" x="31.543" xlink:href="#me39838bfd5" y="237.46703"/>
      </g>
     </g>
     <g id="text_24">
      <!-- 100 -->
      <g transform="translate(5.4555 241.266248)scale(0.1 -0.1)">
       <use xlink:href="#DejaVuSans-31"/>
       <use x="63.623047" xlink:href="#DejaVuSans-30"/>
       <use x="127.246094" xlink:href="#DejaVuSans-30"/>
      </g>
     </g>
    </g>
   </g>
   <g id="line2d_83">
    <path clip-path="url(#p87d52b9403)" d="M 31.543 234.108376 
L 33.600123 235.115972 
L 35.45817 234.56762 
L 37.515293 305.901317 
L 39.506057 254.808651 
L 41.56318 236.288074 
L 43.553944 237.247689 
L 45.611067 237.871439 
L 47.66819 245.541508 
L 49.658954 235.863101 
L 51.716077 247.734914 
L 53.706841 235.239351 
L 55.763964 235.040574 
L 57.821087 235.122826 
L 59.679134 235.033719 
L 61.736257 301.445959 
L 63.727021 306.010987 
L 65.784144 306.010987 
L 67.774908 290.26644 
L 69.832031 236.7199 
L 71.889154 239.228609 
L 73.879919 235.02001 
L 75.937042 234.142648 
L 79.984929 234.11523 
L 82.042052 234.300299 
L 83.900098 246.549104 
L 85.957221 306.010987 
L 87.947986 306.010987 
L 90.005109 303.543404 
L 91.995873 236.658211 
L 94.052996 236.308637 
L 96.110119 242.100601 
L 98.100883 235.760285 
L 100.158006 233.868472 
L 102.14877 233.635422 
L 104.205893 233.628568 
L 106.263016 234.828087 
L 108.187422 235.390148 
L 110.244545 236.459433 
L 112.235309 306.010987 
L 114.292432 305.969861 
L 116.283196 241.456288 
L 118.340319 237.06262 
L 120.397442 236.21953 
L 122.388206 236.055024 
L 124.445329 238.406082 
L 126.436093 234.032977 
L 128.493216 235.64376 
L 130.55034 236.26751 
L 132.408386 250.929063 
L 134.465509 235.883664 
L 136.456273 298.985231 
L 138.513396 304.640108 
L 140.50416 237.5767 
L 142.561284 246.864406 
L 144.618407 245.568925 
L 146.609171 237.782332 
L 148.666294 236.877552 
L 150.657058 263.171014 
L 152.714181 237.720642 
L 154.771304 237.131164 
L 156.629351 305.990424 
L 160.677238 306.010987 
L 162.734361 301.123803 
L 164.725125 280.800519 
L 166.782248 237.665807 
L 168.839371 242.470738 
L 170.830135 235.582071 
L 172.887258 235.095409 
L 174.878022 238.769365 
L 176.935145 233.121343 
L 180.850315 262.547264 
L 182.907438 306.010987 
L 184.898202 301.164929 
L 186.955325 304.72236 
L 188.946089 237.892002 
L 191.003212 237.240835 
L 193.060335 236.754172 
L 195.0511 235.177661 
L 197.108223 234.300299 
L 199.098987 234.128939 
L 201.15611 233.66284 
L 203.213233 234.608747 
L 205.137638 234.300299 
L 207.194761 258.174159 
L 209.185525 303.694201 
L 211.242648 306.010987 
L 215.290536 238.173032 
L 217.347659 241.83328 
L 219.338423 234.039832 
L 221.395546 233.55317 
L 223.38631 232.442758 
L 225.443433 231.825862 
L 227.500556 233.889035 
L 229.358603 234.252318 
L 231.415726 288.264956 
L 233.40649 303.680492 
L 235.463613 305.366674 
L 237.454377 235.924791 
L 239.5115 235.801411 
L 241.568623 240.688596 
L 243.559387 233.251576 
L 247.607274 231.462579 
L 249.664397 234.128939 
L 251.72152 234.663582 
L 253.579567 234.238609 
L 255.63669 235.616343 
L 257.627454 306.010987 
L 259.684577 303.584531 
L 261.675341 250.942772 
L 263.732464 236.082442 
L 265.789587 259.222882 
L 267.780352 234.135793 
L 269.837475 233.217304 
L 271.828239 233.450354 
L 273.885362 245.733431 
L 275.942485 306.010987 
L 283.905542 305.956152 
L 285.896306 303.721619 
L 287.953429 238.947579 
L 290.010552 238.99556 
L 292.001316 236.987222 
L 294.058439 235.582071 
L 296.049203 237.892002 
L 298.106326 306.010987 
L 304.144978 306.010987 
L 306.135742 303.303501 
L 308.192865 306.010987 
L 310.183629 306.010987 
L 312.240752 255.583198 
L 314.297875 237.939983 
L 316.288639 236.898115 
L 318.345762 234.581329 
L 320.336526 231.311782 
L 322.393649 230.413856 
L 324.450772 232.271398 
L 326.308819 232.792332 
L 328.365942 306.010987 
L 330.356706 306.010987 
L 332.413829 247.028912 
L 334.404593 235.067991 
L 336.461716 235.917936 
L 338.51884 261.368308 
L 340.509604 232.333087 
L 344.557491 230.592071 
L 346.614614 232.052057 
L 348.671737 232.600409 
L 350.529784 292.370739 
L 352.586907 306.010987 
L 354.577671 305.997278 
L 356.634794 303.207539 
L 358.625558 254.904612 
L 360.682681 236.555395 
L 362.739804 235.287332 
L 364.730568 235.047428 
L 366.787691 231.997222 
L 368.778455 232.285106 
L 370.835578 232.716933 
L 372.892701 298.334064 
L 374.750748 235.732867 
L 376.807871 232.367359 
L 378.798635 287.079146 
L 380.855758 242.374777 
L 382.846522 235.266769 
L 384.903645 236.569104 
L 386.960768 233.361247 
L 388.951533 243.444063 
L 391.008656 234.314008 
L 392.99942 232.394777 
L 395.056543 233.484626 
L 397.113666 234.718417 
L 399.038071 284.967992 
L 401.095194 306.010987 
L 403.085958 306.010987 
L 405.143081 279.347388 
L 407.133846 234.670436 
L 409.190969 234.615601 
L 411.248092 235.321604 
L 413.238856 274.384805 
L 415.295979 232.216562 
L 417.286743 228.967579 
L 419.343866 233.751947 
L 421.400989 295.791083 
L 423.259036 306.010987 
L 425.316159 303.262374 
L 427.306923 306.010987 
L 429.364046 306.010987 
L 431.35481 251.312909 
L 433.411933 234.197483 
L 435.469056 236.178403 
L 437.45982 230.900519 
L 439.516943 231.119859 
L 441.507707 228.960725 
L 443.56483 230.701741 
L 445.621953 303.310355 
L 447.48 306.010987 
L 447.48 306.010987 
" style="fill:none;stroke:#4682b4;stroke-linecap:square;stroke-width:1.5;"/>
   </g>
   <g id="patch_15">
    <path d="M 31.543 309.8635 
L 31.543 225.108211 
" style="fill:none;stroke:#000000;stroke-linecap:square;stroke-linejoin:miter;stroke-width:0.8;"/>
   </g>
   <g id="patch_16">
    <path d="M 447.48 309.8635 
L 447.48 225.108211 
" style="fill:none;stroke:#000000;stroke-linecap:square;stroke-linejoin:miter;stroke-width:0.8;"/>
   </g>
   <g id="patch_17">
    <path d="M 31.543 309.8635 
L 447.48 309.8635 
" style="fill:none;stroke:#000000;stroke-linecap:square;stroke-linejoin:miter;stroke-width:0.8;"/>
   </g>
   <g id="patch_18">
    <path d="M 31.543 225.108211 
L 447.48 225.108211 
" style="fill:none;stroke:#000000;stroke-linecap:square;stroke-linejoin:miter;stroke-width:0.8;"/>
   </g>
   <g id="legend_3">
    <g id="patch_19">
     <path d="M 38.543 276.324918 
L 124.327375 276.324918 
Q 126.327375 276.324918 126.327375 274.324918 
L 126.327375 260.646793 
Q 126.327375 258.646793 124.327375 258.646793 
L 38.543 258.646793 
Q 36.543 258.646793 36.543 260.646793 
L 36.543 274.324918 
Q 36.543 276.324918 38.543 276.324918 
z
" style="fill:#ffffff;opacity:0.8;stroke:#cccccc;stroke-linejoin:miter;"/>
    </g>
    <g id="line2d_84">
     <path d="M 40.543 266.745231 
L 60.543 266.745231 
" style="fill:none;stroke:#4682b4;stroke-linecap:square;stroke-width:1.5;"/>
    </g>
    <g id="line2d_85"/>
    <g id="text_25">
     <!-- CO2 (tons) -->
     <defs>
      <path d="M 64.40625 67.28125 
L 64.40625 56.890625 
Q 59.421875 61.53125 53.78125 63.8125 
Q 48.140625 66.109375 41.796875 66.109375 
Q 29.296875 66.109375 22.65625 58.46875 
Q 16.015625 50.828125 16.015625 36.375 
Q 16.015625 21.96875 22.65625 14.328125 
Q 29.296875 6.6875 41.796875 6.6875 
Q 48.140625 6.6875 53.78125 8.984375 
Q 59.421875 11.28125 64.40625 15.921875 
L 64.40625 5.609375 
Q 59.234375 2.09375 53.4375 0.328125 
Q 47.65625 -1.421875 41.21875 -1.421875 
Q 24.65625 -1.421875 15.125 8.703125 
Q 5.609375 18.84375 5.609375 36.375 
Q 5.609375 53.953125 15.125 64.078125 
Q 24.65625 74.21875 41.21875 74.21875 
Q 47.75 74.21875 53.53125 72.484375 
Q 59.328125 70.75 64.40625 67.28125 
z
" id="DejaVuSans-43"/>
     </defs>
     <g transform="translate(68.543 270.245231)scale(0.1 -0.1)">
      <use xlink:href="#DejaVuSans-43"/>
      <use x="69.824219" xlink:href="#DejaVuSans-4f"/>
      <use x="148.535156" xlink:href="#DejaVuSans-32"/>
      <use x="212.158203" xlink:href="#DejaVuSans-20"/>
      <use x="243.945312" xlink:href="#DejaVuSans-28"/>
      <use x="282.958984" xlink:href="#DejaVuSans-74"/>
      <use x="322.167969" xlink:href="#DejaVuSans-6f"/>
      <use x="383.349609" xlink:href="#DejaVuSans-6e"/>
      <use x="446.728516" xlink:href="#DejaVuSans-73"/>
      <use x="498.828125" xlink:href="#DejaVuSans-29"/>
     </g>
    </g>
   </g>
  </g>
 </g>
 <defs>
  <clipPath id="pc79a599f3a">
   <rect height="84.755289" width="415.937" x="31.543" y="23.36505"/>
  </clipPath>
  <clipPath id="p48d72b4d10">
   <rect height="84.755289" width="415.937" x="31.543" y="124.236631"/>
  </clipPath>
  <clipPath id="p87d52b9403">
   <rect height="84.755289" width="415.937" x="31.543" y="225.108211"/>
  </clipPath>
 </defs>
</svg>
