<?xml version="1.0" encoding="utf-8" standalone="no"?>
<!DOCTYPE svg PUBLIC "-//W3C//DTD SVG 1.1//EN"
  "http://www.w3.org/Graphics/SVG/1.1/DTD/svg11.dtd">
<!-- Created with matplotlib (http://matplotlib.org/) -->
<svg height="345.6pt" version="1.1" viewBox="0 0 460.8 345.6" width="460.8pt" xmlns="http://www.w3.org/2000/svg" xmlns:xlink="http://www.w3.org/1999/xlink">
 <defs>
  <style type="text/css">
*{stroke-linecap:butt;stroke-linejoin:round;}
  </style>
 </defs>
 <g id="figure_1">
  <g id="patch_1">
   <path d="M 0 345.6 
L 460.8 345.6 
L 460.8 0 
L 0 0 
z
" style="fill:none;"/>
  </g>
  <g id="axes_1">
   <g id="patch_2">
    <path d="M 40.2185 309.8635 
L 443.009854 309.8635 
L 443.009854 23.36505 
L 40.2185 23.36505 
z
" style="fill:none;"/>
   </g>
   <g id="matplotlib.axis_1">
    <g id="xtick_1">
     <g id="line2d_1">
      <path clip-path="url(#p68749ae4fa)" d="M 85.20158 309.8635 
L 85.20158 23.36505 
" style="fill:none;stroke:#b0b0b0;stroke-linecap:square;stroke-width:0.8;"/>
     </g>
     <g id="line2d_2">
      <defs>
       <path d="M 0 0 
L 0 3.5 
" id="ma4d70e15b5" style="stroke:#000000;stroke-width:0.8;"/>
      </defs>
      <g>
       <use style="stroke:#000000;stroke-width:0.8;" x="85.20158" xlink:href="#ma4d70e15b5" y="309.8635"/>
      </g>
     </g>
     <g id="text_1">
      <!-- 2003 -->
      <defs>
       <path d="M 19.1875 8.296875 
L 53.609375 8.296875 
L 53.609375 0 
L 7.328125 0 
L 7.328125 8.296875 
Q 12.9375 14.109375 22.625 23.890625 
Q 32.328125 33.6875 34.8125 36.53125 
Q 39.546875 41.84375 41.421875 45.53125 
Q 43.3125 49.21875 43.3125 52.78125 
Q 43.3125 58.59375 39.234375 62.25 
Q 35.15625 65.921875 28.609375 65.921875 
Q 23.96875 65.921875 18.8125 64.3125 
Q 13.671875 62.703125 7.8125 59.421875 
L 7.8125 69.390625 
Q 13.765625 71.78125 18.9375 73 
Q 24.125 74.21875 28.421875 74.21875 
Q 39.75 74.21875 46.484375 68.546875 
Q 53.21875 62.890625 53.21875 53.421875 
Q 53.21875 48.921875 51.53125 44.890625 
Q 49.859375 40.875 45.40625 35.40625 
Q 44.1875 33.984375 37.640625 27.21875 
Q 31.109375 20.453125 19.1875 8.296875 
z
" id="DejaVuSans-32"/>
       <path d="M 31.78125 66.40625 
Q 24.171875 66.40625 20.328125 58.90625 
Q 16.5 51.421875 16.5 36.375 
Q 16.5 21.390625 20.328125 13.890625 
Q 24.171875 6.390625 31.78125 6.390625 
Q 39.453125 6.390625 43.28125 13.890625 
Q 47.125 21.390625 47.125 36.375 
Q 47.125 51.421875 43.28125 58.90625 
Q 39.453125 66.40625 31.78125 66.40625 
z
M 31.78125 74.21875 
Q 44.046875 74.21875 50.515625 64.515625 
Q 56.984375 54.828125 56.984375 36.375 
Q 56.984375 17.96875 50.515625 8.265625 
Q 44.046875 -1.421875 31.78125 -1.421875 
Q 19.53125 -1.421875 13.0625 8.265625 
Q 6.59375 17.96875 6.59375 36.375 
Q 6.59375 54.828125 13.0625 64.515625 
Q 19.53125 74.21875 31.78125 74.21875 
z
" id="DejaVuSans-30"/>
       <path d="M 40.578125 39.3125 
Q 47.65625 37.796875 51.625 33 
Q 55.609375 28.21875 55.609375 21.1875 
Q 55.609375 10.40625 48.1875 4.484375 
Q 40.765625 -1.421875 27.09375 -1.421875 
Q 22.515625 -1.421875 17.65625 -0.515625 
Q 12.796875 0.390625 7.625 2.203125 
L 7.625 11.71875 
Q 11.71875 9.328125 16.59375 8.109375 
Q 21.484375 6.890625 26.8125 6.890625 
Q 36.078125 6.890625 40.9375 10.546875 
Q 45.796875 14.203125 45.796875 21.1875 
Q 45.796875 27.640625 41.28125 31.265625 
Q 36.765625 34.90625 28.71875 34.90625 
L 20.21875 34.90625 
L 20.21875 43.015625 
L 29.109375 43.015625 
Q 36.375 43.015625 40.234375 45.921875 
Q 44.09375 48.828125 44.09375 54.296875 
Q 44.09375 59.90625 40.109375 62.90625 
Q 36.140625 65.921875 28.71875 65.921875 
Q 24.65625 65.921875 20.015625 65.03125 
Q 15.375 64.15625 9.8125 62.3125 
L 9.8125 71.09375 
Q 15.4375 72.65625 20.34375 73.4375 
Q 25.25 74.21875 29.59375 74.21875 
Q 40.828125 74.21875 47.359375 69.109375 
Q 53.90625 64.015625 53.90625 55.328125 
Q 53.90625 49.265625 50.4375 45.09375 
Q 46.96875 40.921875 40.578125 39.3125 
z
" id="DejaVuSans-33"/>
      </defs>
      <g transform="translate(72.47658 324.461937)scale(0.1 -0.1)">
       <use xlink:href="#DejaVuSans-32"/>
       <use x="63.623047" xlink:href="#DejaVuSans-30"/>
       <use x="127.246094" xlink:href="#DejaVuSans-30"/>
       <use x="190.869141" xlink:href="#DejaVuSans-33"/>
      </g>
     </g>
    </g>
    <g id="xtick_2">
     <g id="line2d_3">
      <path clip-path="url(#p68749ae4fa)" d="M 132.176769 309.8635 
L 132.176769 23.36505 
" style="fill:none;stroke:#b0b0b0;stroke-linecap:square;stroke-width:0.8;"/>
     </g>
     <g id="line2d_4">
      <g>
       <use style="stroke:#000000;stroke-width:0.8;" x="132.176769" xlink:href="#ma4d70e15b5" y="309.8635"/>
      </g>
     </g>
     <g id="text_2">
      <!-- 2005 -->
      <defs>
       <path d="M 10.796875 72.90625 
L 49.515625 72.90625 
L 49.515625 64.59375 
L 19.828125 64.59375 
L 19.828125 46.734375 
Q 21.96875 47.46875 24.109375 47.828125 
Q 26.265625 48.1875 28.421875 48.1875 
Q 40.625 48.1875 47.75 41.5 
Q 54.890625 34.8125 54.890625 23.390625 
Q 54.890625 11.625 47.5625 5.09375 
Q 40.234375 -1.421875 26.90625 -1.421875 
Q 22.3125 -1.421875 17.546875 -0.640625 
Q 12.796875 0.140625 7.71875 1.703125 
L 7.71875 11.625 
Q 12.109375 9.234375 16.796875 8.0625 
Q 21.484375 6.890625 26.703125 6.890625 
Q 35.15625 6.890625 40.078125 11.328125 
Q 45.015625 15.765625 45.015625 23.390625 
Q 45.015625 31 40.078125 35.4375 
Q 35.15625 39.890625 26.703125 39.890625 
Q 22.75 39.890625 18.8125 39.015625 
Q 14.890625 38.140625 10.796875 36.28125 
z
" id="DejaVuSans-35"/>
      </defs>
      <g transform="translate(119.451769 324.461937)scale(0.1 -0.1)">
       <use xlink:href="#DejaVuSans-32"/>
       <use x="63.623047" xlink:href="#DejaVuSans-30"/>
       <use x="127.246094" xlink:href="#DejaVuSans-30"/>
       <use x="190.869141" xlink:href="#DejaVuSans-35"/>
      </g>
     </g>
    </g>
    <g id="xtick_3">
     <g id="line2d_5">
      <path clip-path="url(#p68749ae4fa)" d="M 179.087695 309.8635 
L 179.087695 23.36505 
" style="fill:none;stroke:#b0b0b0;stroke-linecap:square;stroke-width:0.8;"/>
     </g>
     <g id="line2d_6">
      <g>
       <use style="stroke:#000000;stroke-width:0.8;" x="179.087695" xlink:href="#ma4d70e15b5" y="309.8635"/>
      </g>
     </g>
     <g id="text_3">
      <!-- 2007 -->
      <defs>
       <path d="M 8.203125 72.90625 
L 55.078125 72.90625 
L 55.078125 68.703125 
L 28.609375 0 
L 18.3125 0 
L 43.21875 64.59375 
L 8.203125 64.59375 
z
" id="DejaVuSans-37"/>
      </defs>
      <g transform="translate(166.362695 324.461937)scale(0.1 -0.1)">
       <use xlink:href="#DejaVuSans-32"/>
       <use x="63.623047" xlink:href="#DejaVuSans-30"/>
       <use x="127.246094" xlink:href="#DejaVuSans-30"/>
       <use x="190.869141" xlink:href="#DejaVuSans-37"/>
      </g>
     </g>
    </g>
    <g id="xtick_4">
     <g id="line2d_7">
      <path clip-path="url(#p68749ae4fa)" d="M 226.062884 309.8635 
L 226.062884 23.36505 
" style="fill:none;stroke:#b0b0b0;stroke-linecap:square;stroke-width:0.8;"/>
     </g>
     <g id="line2d_8">
      <g>
       <use style="stroke:#000000;stroke-width:0.8;" x="226.062884" xlink:href="#ma4d70e15b5" y="309.8635"/>
      </g>
     </g>
     <g id="text_4">
      <!-- 2009 -->
      <defs>
       <path d="M 10.984375 1.515625 
L 10.984375 10.5 
Q 14.703125 8.734375 18.5 7.8125 
Q 22.3125 6.890625 25.984375 6.890625 
Q 35.75 6.890625 40.890625 13.453125 
Q 46.046875 20.015625 46.78125 33.40625 
Q 43.953125 29.203125 39.59375 26.953125 
Q 35.25 24.703125 29.984375 24.703125 
Q 19.046875 24.703125 12.671875 31.3125 
Q 6.296875 37.9375 6.296875 49.421875 
Q 6.296875 60.640625 12.9375 67.421875 
Q 19.578125 74.21875 30.609375 74.21875 
Q 43.265625 74.21875 49.921875 64.515625 
Q 56.59375 54.828125 56.59375 36.375 
Q 56.59375 19.140625 48.40625 8.859375 
Q 40.234375 -1.421875 26.421875 -1.421875 
Q 22.703125 -1.421875 18.890625 -0.6875 
Q 15.09375 0.046875 10.984375 1.515625 
z
M 30.609375 32.421875 
Q 37.25 32.421875 41.125 36.953125 
Q 45.015625 41.5 45.015625 49.421875 
Q 45.015625 57.28125 41.125 61.84375 
Q 37.25 66.40625 30.609375 66.40625 
Q 23.96875 66.40625 20.09375 61.84375 
Q 16.21875 57.28125 16.21875 49.421875 
Q 16.21875 41.5 20.09375 36.953125 
Q 23.96875 32.421875 30.609375 32.421875 
z
" id="DejaVuSans-39"/>
      </defs>
      <g transform="translate(213.337884 324.461937)scale(0.1 -0.1)">
       <use xlink:href="#DejaVuSans-32"/>
       <use x="63.623047" xlink:href="#DejaVuSans-30"/>
       <use x="127.246094" xlink:href="#DejaVuSans-30"/>
       <use x="190.869141" xlink:href="#DejaVuSans-39"/>
      </g>
     </g>
    </g>
    <g id="xtick_5">
     <g id="line2d_9">
      <path clip-path="url(#p68749ae4fa)" d="M 272.97381 309.8635 
L 272.97381 23.36505 
" style="fill:none;stroke:#b0b0b0;stroke-linecap:square;stroke-width:0.8;"/>
     </g>
     <g id="line2d_10">
      <g>
       <use style="stroke:#000000;stroke-width:0.8;" x="272.97381" xlink:href="#ma4d70e15b5" y="309.8635"/>
      </g>
     </g>
     <g id="text_5">
      <!-- 2011 -->
      <defs>
       <path d="M 12.40625 8.296875 
L 28.515625 8.296875 
L 28.515625 63.921875 
L 10.984375 60.40625 
L 10.984375 69.390625 
L 28.421875 72.90625 
L 38.28125 72.90625 
L 38.28125 8.296875 
L 54.390625 8.296875 
L 54.390625 0 
L 12.40625 0 
z
" id="DejaVuSans-31"/>
      </defs>
      <g transform="translate(260.24881 324.461937)scale(0.1 -0.1)">
       <use xlink:href="#DejaVuSans-32"/>
       <use x="63.623047" xlink:href="#DejaVuSans-30"/>
       <use x="127.246094" xlink:href="#DejaVuSans-31"/>
       <use x="190.869141" xlink:href="#DejaVuSans-31"/>
      </g>
     </g>
    </g>
    <g id="xtick_6">
     <g id="line2d_11">
      <path clip-path="url(#p68749ae4fa)" d="M 319.948999 309.8635 
L 319.948999 23.36505 
" style="fill:none;stroke:#b0b0b0;stroke-linecap:square;stroke-width:0.8;"/>
     </g>
     <g id="line2d_12">
      <g>
       <use style="stroke:#000000;stroke-width:0.8;" x="319.948999" xlink:href="#ma4d70e15b5" y="309.8635"/>
      </g>
     </g>
     <g id="text_6">
      <!-- 2013 -->
      <g transform="translate(307.223999 324.461937)scale(0.1 -0.1)">
       <use xlink:href="#DejaVuSans-32"/>
       <use x="63.623047" xlink:href="#DejaVuSans-30"/>
       <use x="127.246094" xlink:href="#DejaVuSans-31"/>
       <use x="190.869141" xlink:href="#DejaVuSans-33"/>
      </g>
     </g>
    </g>
    <g id="xtick_7">
     <g id="line2d_13">
      <path clip-path="url(#p68749ae4fa)" d="M 366.859925 309.8635 
L 366.859925 23.36505 
" style="fill:none;stroke:#b0b0b0;stroke-linecap:square;stroke-width:0.8;"/>
     </g>
     <g id="line2d_14">
      <g>
       <use style="stroke:#000000;stroke-width:0.8;" x="366.859925" xlink:href="#ma4d70e15b5" y="309.8635"/>
      </g>
     </g>
     <g id="text_7">
      <!-- 2015 -->
      <g transform="translate(354.134925 324.461937)scale(0.1 -0.1)">
       <use xlink:href="#DejaVuSans-32"/>
       <use x="63.623047" xlink:href="#DejaVuSans-30"/>
       <use x="127.246094" xlink:href="#DejaVuSans-31"/>
       <use x="190.869141" xlink:href="#DejaVuSans-35"/>
      </g>
     </g>
    </g>
    <g id="xtick_8">
     <g id="line2d_15">
      <path clip-path="url(#p68749ae4fa)" d="M 413.835114 309.8635 
L 413.835114 23.36505 
" style="fill:none;stroke:#b0b0b0;stroke-linecap:square;stroke-width:0.8;"/>
     </g>
     <g id="line2d_16">
      <g>
       <use style="stroke:#000000;stroke-width:0.8;" x="413.835114" xlink:href="#ma4d70e15b5" y="309.8635"/>
      </g>
     </g>
     <g id="text_8">
      <!-- 2017 -->
      <g transform="translate(401.110114 324.461937)scale(0.1 -0.1)">
       <use xlink:href="#DejaVuSans-32"/>
       <use x="63.623047" xlink:href="#DejaVuSans-30"/>
       <use x="127.246094" xlink:href="#DejaVuSans-31"/>
       <use x="190.869141" xlink:href="#DejaVuSans-37"/>
      </g>
     </g>
    </g>
    <g id="text_9">
     <!-- Date -->
     <defs>
      <path d="M 19.671875 64.796875 
L 19.671875 8.109375 
L 31.59375 8.109375 
Q 46.6875 8.109375 53.6875 14.9375 
Q 60.6875 21.78125 60.6875 36.53125 
Q 60.6875 51.171875 53.6875 57.984375 
Q 46.6875 64.796875 31.59375 64.796875 
z
M 9.8125 72.90625 
L 30.078125 72.90625 
Q 51.265625 72.90625 61.171875 64.09375 
Q 71.09375 55.28125 71.09375 36.53125 
Q 71.09375 17.671875 61.125 8.828125 
Q 51.171875 0 30.078125 0 
L 9.8125 0 
z
" id="DejaVuSans-44"/>
      <path d="M 34.28125 27.484375 
Q 23.390625 27.484375 19.1875 25 
Q 14.984375 22.515625 14.984375 16.5 
Q 14.984375 11.71875 18.140625 8.90625 
Q 21.296875 6.109375 26.703125 6.109375 
Q 34.1875 6.109375 38.703125 11.40625 
Q 43.21875 16.703125 43.21875 25.484375 
L 43.21875 27.484375 
z
M 52.203125 31.203125 
L 52.203125 0 
L 43.21875 0 
L 43.21875 8.296875 
Q 40.140625 3.328125 35.546875 0.953125 
Q 30.953125 -1.421875 24.3125 -1.421875 
Q 15.921875 -1.421875 10.953125 3.296875 
Q 6 8.015625 6 15.921875 
Q 6 25.140625 12.171875 29.828125 
Q 18.359375 34.515625 30.609375 34.515625 
L 43.21875 34.515625 
L 43.21875 35.40625 
Q 43.21875 41.609375 39.140625 45 
Q 35.0625 48.390625 27.6875 48.390625 
Q 23 48.390625 18.546875 47.265625 
Q 14.109375 46.140625 10.015625 43.890625 
L 10.015625 52.203125 
Q 14.9375 54.109375 19.578125 55.046875 
Q 24.21875 56 28.609375 56 
Q 40.484375 56 46.34375 49.84375 
Q 52.203125 43.703125 52.203125 31.203125 
z
" id="DejaVuSans-61"/>
      <path d="M 18.3125 70.21875 
L 18.3125 54.6875 
L 36.8125 54.6875 
L 36.8125 47.703125 
L 18.3125 47.703125 
L 18.3125 18.015625 
Q 18.3125 11.328125 20.140625 9.421875 
Q 21.96875 7.515625 27.59375 7.515625 
L 36.8125 7.515625 
L 36.8125 0 
L 27.59375 0 
Q 17.1875 0 13.234375 3.875 
Q 9.28125 7.765625 9.28125 18.015625 
L 9.28125 47.703125 
L 2.6875 47.703125 
L 2.6875 54.6875 
L 9.28125 54.6875 
L 9.28125 70.21875 
z
" id="DejaVuSans-74"/>
      <path d="M 56.203125 29.59375 
L 56.203125 25.203125 
L 14.890625 25.203125 
Q 15.484375 15.921875 20.484375 11.0625 
Q 25.484375 6.203125 34.421875 6.203125 
Q 39.59375 6.203125 44.453125 7.46875 
Q 49.3125 8.734375 54.109375 11.28125 
L 54.109375 2.78125 
Q 49.265625 0.734375 44.1875 -0.34375 
Q 39.109375 -1.421875 33.890625 -1.421875 
Q 20.796875 -1.421875 13.15625 6.1875 
Q 5.515625 13.8125 5.515625 26.8125 
Q 5.515625 40.234375 12.765625 48.109375 
Q 20.015625 56 32.328125 56 
Q 43.359375 56 49.78125 48.890625 
Q 56.203125 41.796875 56.203125 29.59375 
z
M 47.21875 32.234375 
Q 47.125 39.59375 43.09375 43.984375 
Q 39.0625 48.390625 32.421875 48.390625 
Q 24.90625 48.390625 20.390625 44.140625 
Q 15.875 39.890625 15.1875 32.171875 
z
" id="DejaVuSans-65"/>
     </defs>
     <g transform="translate(229.663396 338.140062)scale(0.1 -0.1)">
      <use xlink:href="#DejaVuSans-44"/>
      <use x="77.001953" xlink:href="#DejaVuSans-61"/>
      <use x="138.28125" xlink:href="#DejaVuSans-74"/>
      <use x="177.490234" xlink:href="#DejaVuSans-65"/>
     </g>
    </g>
   </g>
   <g id="matplotlib.axis_2">
    <g id="ytick_1">
     <g id="line2d_17">
      <path clip-path="url(#p68749ae4fa)" d="M 40.2185 303.696561 
L 443.009854 303.696561 
" style="fill:none;stroke:#b0b0b0;stroke-linecap:square;stroke-width:0.8;"/>
     </g>
     <g id="line2d_18">
      <defs>
       <path d="M 0 0 
L -3.5 0 
" id="mc0005331de" style="stroke:#000000;stroke-width:0.8;"/>
      </defs>
      <g>
       <use style="stroke:#000000;stroke-width:0.8;" x="40.2185" xlink:href="#mc0005331de" y="303.696561"/>
      </g>
     </g>
     <g id="text_10">
      <!-- 0.0 -->
      <defs>
       <path d="M 10.6875 12.40625 
L 21 12.40625 
L 21 0 
L 10.6875 0 
z
" id="DejaVuSans-2e"/>
      </defs>
      <g transform="translate(17.315375 307.49578)scale(0.1 -0.1)">
       <use xlink:href="#DejaVuSans-30"/>
       <use x="63.623047" xlink:href="#DejaVuSans-2e"/>
       <use x="95.410156" xlink:href="#DejaVuSans-30"/>
      </g>
     </g>
    </g>
    <g id="ytick_2">
     <g id="line2d_19">
      <path clip-path="url(#p68749ae4fa)" d="M 40.2185 240.871698 
L 443.009854 240.871698 
" style="fill:none;stroke:#b0b0b0;stroke-linecap:square;stroke-width:0.8;"/>
     </g>
     <g id="line2d_20">
      <g>
       <use style="stroke:#000000;stroke-width:0.8;" x="40.2185" xlink:href="#mc0005331de" y="240.871698"/>
      </g>
     </g>
     <g id="text_11">
      <!-- 0.5 -->
      <g transform="translate(17.315375 244.670917)scale(0.1 -0.1)">
       <use xlink:href="#DejaVuSans-30"/>
       <use x="63.623047" xlink:href="#DejaVuSans-2e"/>
       <use x="95.410156" xlink:href="#DejaVuSans-35"/>
      </g>
     </g>
    </g>
    <g id="ytick_3">
     <g id="line2d_21">
      <path clip-path="url(#p68749ae4fa)" d="M 40.2185 178.046835 
L 443.009854 178.046835 
" style="fill:none;stroke:#b0b0b0;stroke-linecap:square;stroke-width:0.8;"/>
     </g>
     <g id="line2d_22">
      <g>
       <use style="stroke:#000000;stroke-width:0.8;" x="40.2185" xlink:href="#mc0005331de" y="178.046835"/>
      </g>
     </g>
     <g id="text_12">
      <!-- 1.0 -->
      <g transform="translate(17.315375 181.846054)scale(0.1 -0.1)">
       <use xlink:href="#DejaVuSans-31"/>
       <use x="63.623047" xlink:href="#DejaVuSans-2e"/>
       <use x="95.410156" xlink:href="#DejaVuSans-30"/>
      </g>
     </g>
    </g>
    <g id="ytick_4">
     <g id="line2d_23">
      <path clip-path="url(#p68749ae4fa)" d="M 40.2185 115.221972 
L 443.009854 115.221972 
" style="fill:none;stroke:#b0b0b0;stroke-linecap:square;stroke-width:0.8;"/>
     </g>
     <g id="line2d_24">
      <g>
       <use style="stroke:#000000;stroke-width:0.8;" x="40.2185" xlink:href="#mc0005331de" y="115.221972"/>
      </g>
     </g>
     <g id="text_13">
      <!-- 1.5 -->
      <g transform="translate(17.315375 119.021191)scale(0.1 -0.1)">
       <use xlink:href="#DejaVuSans-31"/>
       <use x="63.623047" xlink:href="#DejaVuSans-2e"/>
       <use x="95.410156" xlink:href="#DejaVuSans-35"/>
      </g>
     </g>
    </g>
    <g id="ytick_5">
     <g id="line2d_25">
      <path clip-path="url(#p68749ae4fa)" d="M 40.2185 52.397109 
L 443.009854 52.397109 
" style="fill:none;stroke:#b0b0b0;stroke-linecap:square;stroke-width:0.8;"/>
     </g>
     <g id="line2d_26">
      <g>
       <use style="stroke:#000000;stroke-width:0.8;" x="40.2185" xlink:href="#mc0005331de" y="52.397109"/>
      </g>
     </g>
     <g id="text_14">
      <!-- 2.0 -->
      <g transform="translate(17.315375 56.196328)scale(0.1 -0.1)">
       <use xlink:href="#DejaVuSans-32"/>
       <use x="63.623047" xlink:href="#DejaVuSans-2e"/>
       <use x="95.410156" xlink:href="#DejaVuSans-30"/>
      </g>
     </g>
    </g>
    <g id="text_15">
     <!-- Emissions / mean emissions -->
     <defs>
      <path d="M 9.8125 72.90625 
L 55.90625 72.90625 
L 55.90625 64.59375 
L 19.671875 64.59375 
L 19.671875 43.015625 
L 54.390625 43.015625 
L 54.390625 34.71875 
L 19.671875 34.71875 
L 19.671875 8.296875 
L 56.78125 8.296875 
L 56.78125 0 
L 9.8125 0 
z
" id="DejaVuSans-45"/>
      <path d="M 52 44.1875 
Q 55.375 50.25 60.0625 53.125 
Q 64.75 56 71.09375 56 
Q 79.640625 56 84.28125 50.015625 
Q 88.921875 44.046875 88.921875 33.015625 
L 88.921875 0 
L 79.890625 0 
L 79.890625 32.71875 
Q 79.890625 40.578125 77.09375 44.375 
Q 74.3125 48.1875 68.609375 48.1875 
Q 61.625 48.1875 57.5625 43.546875 
Q 53.515625 38.921875 53.515625 30.90625 
L 53.515625 0 
L 44.484375 0 
L 44.484375 32.71875 
Q 44.484375 40.625 41.703125 44.40625 
Q 38.921875 48.1875 33.109375 48.1875 
Q 26.21875 48.1875 22.15625 43.53125 
Q 18.109375 38.875 18.109375 30.90625 
L 18.109375 0 
L 9.078125 0 
L 9.078125 54.6875 
L 18.109375 54.6875 
L 18.109375 46.1875 
Q 21.1875 51.21875 25.484375 53.609375 
Q 29.78125 56 35.6875 56 
Q 41.65625 56 45.828125 52.96875 
Q 50 49.953125 52 44.1875 
z
" id="DejaVuSans-6d"/>
      <path d="M 9.421875 54.6875 
L 18.40625 54.6875 
L 18.40625 0 
L 9.421875 0 
z
M 9.421875 75.984375 
L 18.40625 75.984375 
L 18.40625 64.59375 
L 9.421875 64.59375 
z
" id="DejaVuSans-69"/>
      <path d="M 44.28125 53.078125 
L 44.28125 44.578125 
Q 40.484375 46.53125 36.375 47.5 
Q 32.28125 48.484375 27.875 48.484375 
Q 21.1875 48.484375 17.84375 46.4375 
Q 14.5 44.390625 14.5 40.28125 
Q 14.5 37.15625 16.890625 35.375 
Q 19.28125 33.59375 26.515625 31.984375 
L 29.59375 31.296875 
Q 39.15625 29.25 43.1875 25.515625 
Q 47.21875 21.78125 47.21875 15.09375 
Q 47.21875 7.46875 41.1875 3.015625 
Q 35.15625 -1.421875 24.609375 -1.421875 
Q 20.21875 -1.421875 15.453125 -0.5625 
Q 10.6875 0.296875 5.421875 2 
L 5.421875 11.28125 
Q 10.40625 8.6875 15.234375 7.390625 
Q 20.0625 6.109375 24.8125 6.109375 
Q 31.15625 6.109375 34.5625 8.28125 
Q 37.984375 10.453125 37.984375 14.40625 
Q 37.984375 18.0625 35.515625 20.015625 
Q 33.0625 21.96875 24.703125 23.78125 
L 21.578125 24.515625 
Q 13.234375 26.265625 9.515625 29.90625 
Q 5.8125 33.546875 5.8125 39.890625 
Q 5.8125 47.609375 11.28125 51.796875 
Q 16.75 56 26.8125 56 
Q 31.78125 56 36.171875 55.265625 
Q 40.578125 54.546875 44.28125 53.078125 
z
" id="DejaVuSans-73"/>
      <path d="M 30.609375 48.390625 
Q 23.390625 48.390625 19.1875 42.75 
Q 14.984375 37.109375 14.984375 27.296875 
Q 14.984375 17.484375 19.15625 11.84375 
Q 23.34375 6.203125 30.609375 6.203125 
Q 37.796875 6.203125 41.984375 11.859375 
Q 46.1875 17.53125 46.1875 27.296875 
Q 46.1875 37.015625 41.984375 42.703125 
Q 37.796875 48.390625 30.609375 48.390625 
z
M 30.609375 56 
Q 42.328125 56 49.015625 48.375 
Q 55.71875 40.765625 55.71875 27.296875 
Q 55.71875 13.875 49.015625 6.21875 
Q 42.328125 -1.421875 30.609375 -1.421875 
Q 18.84375 -1.421875 12.171875 6.21875 
Q 5.515625 13.875 5.515625 27.296875 
Q 5.515625 40.765625 12.171875 48.375 
Q 18.84375 56 30.609375 56 
z
" id="DejaVuSans-6f"/>
      <path d="M 54.890625 33.015625 
L 54.890625 0 
L 45.90625 0 
L 45.90625 32.71875 
Q 45.90625 40.484375 42.875 44.328125 
Q 39.84375 48.1875 33.796875 48.1875 
Q 26.515625 48.1875 22.3125 43.546875 
Q 18.109375 38.921875 18.109375 30.90625 
L 18.109375 0 
L 9.078125 0 
L 9.078125 54.6875 
L 18.109375 54.6875 
L 18.109375 46.1875 
Q 21.34375 51.125 25.703125 53.5625 
Q 30.078125 56 35.796875 56 
Q 45.21875 56 50.046875 50.171875 
Q 54.890625 44.34375 54.890625 33.015625 
z
" id="DejaVuSans-6e"/>
      <path id="DejaVuSans-20"/>
      <path d="M 25.390625 72.90625 
L 33.6875 72.90625 
L 8.296875 -9.28125 
L 0 -9.28125 
z
" id="DejaVuSans-2f"/>
     </defs>
     <g transform="translate(11.235688 236.862713)rotate(-90)scale(0.1 -0.1)">
      <use xlink:href="#DejaVuSans-45"/>
      <use x="63.183594" xlink:href="#DejaVuSans-6d"/>
      <use x="160.595703" xlink:href="#DejaVuSans-69"/>
      <use x="188.378906" xlink:href="#DejaVuSans-73"/>
      <use x="240.478516" xlink:href="#DejaVuSans-73"/>
      <use x="292.578125" xlink:href="#DejaVuSans-69"/>
      <use x="320.361328" xlink:href="#DejaVuSans-6f"/>
      <use x="381.542969" xlink:href="#DejaVuSans-6e"/>
      <use x="444.921875" xlink:href="#DejaVuSans-73"/>
      <use x="497.021484" xlink:href="#DejaVuSans-20"/>
      <use x="528.808594" xlink:href="#DejaVuSans-2f"/>
      <use x="562.5" xlink:href="#DejaVuSans-20"/>
      <use x="594.287109" xlink:href="#DejaVuSans-6d"/>
      <use x="691.699219" xlink:href="#DejaVuSans-65"/>
      <use x="753.222656" xlink:href="#DejaVuSans-61"/>
      <use x="814.501953" xlink:href="#DejaVuSans-6e"/>
      <use x="877.880859" xlink:href="#DejaVuSans-20"/>
      <use x="909.667969" xlink:href="#DejaVuSans-65"/>
      <use x="971.191406" xlink:href="#DejaVuSans-6d"/>
      <use x="1068.603516" xlink:href="#DejaVuSans-69"/>
      <use x="1096.386719" xlink:href="#DejaVuSans-73"/>
      <use x="1148.486328" xlink:href="#DejaVuSans-73"/>
      <use x="1200.585938" xlink:href="#DejaVuSans-69"/>
      <use x="1228.369141" xlink:href="#DejaVuSans-6f"/>
      <use x="1289.550781" xlink:href="#DejaVuSans-6e"/>
      <use x="1352.929688" xlink:href="#DejaVuSans-73"/>
     </g>
    </g>
   </g>
   <g id="line2d_27">
    <path clip-path="url(#p68749ae4fa)" d="M 40.2185 89.696424 
L 42.017823 114.280518 
L 44.009931 85.3621 
L 45.937777 59.029843 
L 47.929885 72.681885 
L 49.857732 77.546992 
L 51.849839 90.130819 
L 53.841947 71.469543 
L 55.769794 66.500569 
L 57.761901 79.607563 
L 59.689748 112.270369 
L 61.681856 92.001853 
L 63.673963 80.758378 
L 65.473287 85.840162 
L 67.465394 83.827362 
L 69.393241 107.121137 
L 71.385349 117.21723 
L 73.313195 82.37637 
L 75.305303 88.101392 
L 77.297411 49.637433 
L 79.225257 63.643566 
L 81.217365 139.22504 
L 83.145211 70.934736 
L 85.137319 73.676272 
L 87.129427 64.937031 
L 88.92875 101.403324 
L 90.920858 164.515679 
L 92.848704 167.886199 
L 94.840812 88.555637 
L 96.768658 88.400805 
L 98.760766 62.247915 
L 100.752874 160.963926 
L 102.68072 165.034766 
L 104.672828 173.205308 
L 106.600674 160.882437 
L 108.592782 99.326384 
L 110.58489 77.60528 
L 112.448475 91.930322 
L 114.440583 103.084525 
L 116.368429 191.204085 
L 118.360537 202.886034 
L 120.288383 119.564897 
L 122.280491 106.346691 
L 124.272599 94.785234 
L 126.200445 129.550884 
L 128.192553 95.87025 
L 130.120399 79.81662 
L 132.112507 74.253282 
L 134.104615 82.571238 
L 135.903938 104.987193 
L 137.896046 72.719543 
L 139.823892 127.605348 
L 141.816 93.898915 
L 143.743847 52.978 
L 145.735954 61.112611 
L 147.728062 50.427435 
L 149.655909 59.298532 
L 151.648016 55.105539 
L 153.575863 55.721667 
L 155.567971 72.408324 
L 157.560078 58.071945 
L 159.359402 46.140036 
L 161.351509 122.079922 
L 163.279356 187.74429 
L 165.271464 121.426452 
L 167.19931 97.777724 
L 169.191418 54.10122 
L 171.183526 46.557332 
L 173.111372 78.536616 
L 175.10348 42.246386 
L 177.031326 82.261562 
L 179.023434 59.222324 
L 181.015542 52.156749 
L 182.814865 48.68112 
L 184.806973 48.598262 
L 186.734819 53.981839 
L 188.726927 52.101162 
L 190.654773 67.270596 
L 192.646881 67.516845 
L 194.638989 42.279433 
L 196.566835 81.601589 
L 198.558943 46.782805 
L 200.486789 71.309971 
L 202.478897 66.679358 
L 204.471005 36.387707 
L 206.33459 84.198784 
L 208.326698 95.924436 
L 210.254544 173.220901 
L 212.246652 182.750659 
L 214.174498 156.66299 
L 216.166606 134.402604 
L 218.158714 154.564435 
L 220.08656 136.810937 
L 222.078668 147.697385 
L 224.006514 136.582319 
L 225.998622 153.430549 
L 227.99073 150.927213 
L 229.790053 137.716617 
L 231.782161 176.330398 
L 233.710007 260.502478 
L 235.702115 257.03682 
L 237.629962 240.761492 
L 239.622069 238.223297 
L 241.614177 239.485249 
L 243.542024 242.815713 
L 245.534131 235.468906 
L 247.461978 234.323136 
L 249.454086 229.474749 
L 251.446193 231.839561 
L 253.245517 228.384541 
L 255.237624 225.527357 
L 257.165471 237.203749 
L 259.157579 226.337666 
L 261.085425 231.083939 
L 263.077533 235.425685 
L 265.069641 248.982018 
L 266.997487 253.995124 
L 268.989595 255.081049 
L 270.917441 229.201554 
L 272.909549 227.532018 
L 274.901657 225.525967 
L 276.70098 227.727089 
L 280.620934 251.891941 
L 282.613042 242.155242 
L 284.540888 220.287361 
L 286.532996 232.939019 
L 288.525104 218.262697 
L 290.45295 221.248039 
L 292.445058 236.645932 
L 294.372904 231.758097 
L 296.365012 251.554205 
L 298.35712 245.910253 
L 300.220705 240.987191 
L 302.212813 245.960633 
L 304.140659 256.267355 
L 306.132767 243.400779 
L 308.060613 237.716682 
L 310.052721 233.25767 
L 312.044829 240.040665 
L 313.972675 235.115743 
L 315.964783 227.050191 
L 317.892629 236.939614 
L 319.884737 230.990316 
L 321.876845 237.523177 
L 323.676168 248.84571 
L 325.668276 266.818998 
L 327.596122 241.278167 
L 329.58823 240.785248 
L 331.516077 246.118519 
L 333.508184 245.834321 
L 335.500292 246.056554 
L 337.428139 244.238767 
L 339.420246 261.727074 
L 341.348093 266.607465 
L 343.340201 263.81831 
L 345.332308 271.00458 
L 347.131632 266.659138 
L 349.123739 254.688445 
L 351.051586 270.877789 
L 353.043694 267.784915 
L 354.97154 259.964292 
L 356.963648 258.485791 
L 358.955756 258.537989 
L 360.883602 255.177451 
L 362.87571 267.530622 
L 364.803556 267.703653 
L 366.795664 269.440511 
L 368.787772 272.511467 
L 370.587095 284.872696 
L 372.579203 264.348318 
L 374.507049 264.977472 
L 376.499157 262.244108 
L 378.427003 263.158438 
L 380.419111 258.072643 
L 382.411219 244.315831 
L 384.339065 244.465409 
L 386.331173 270.812762 
L 388.259019 286.600764 
L 390.251127 280.962427 
L 392.243235 288.647587 
L 394.10682 291.085082 
L 396.098928 291.257782 
L 398.026774 295.114029 
L 400.018882 296.614486 
L 401.946728 284.367382 
L 403.938836 284.507584 
L 405.930944 282.592836 
L 407.85879 287.690732 
L 409.850898 289.998339 
L 411.778744 295.762924 
L 413.770852 290.302938 
L 415.76296 282.468286 
L 417.562283 286.333272 
L 419.554391 296.840843 
L 421.482237 294.145808 
L 423.474345 288.016834 
L 425.402192 284.434379 
L 427.394299 279.118752 
L 429.386407 285.705604 
L 431.314254 281.637396 
L 433.306361 282.793377 
L 435.234208 281.125717 
L 437.226316 281.395289 
L 439.218423 285.360733 
L 441.017747 290.975289 
L 443.009854 294.547456 
L 443.009854 294.547456 
" style="fill:none;stroke:#1f77b4;stroke-linecap:square;stroke-width:1.5;"/>
   </g>
   <g id="line2d_28">
    <path clip-path="url(#p68749ae4fa)" d="M 40.2185 142.751776 
L 42.017823 158.144116 
L 44.009931 147.01594 
L 45.937777 112.686209 
L 47.929885 122.560047 
L 49.857732 134.513332 
L 51.849839 155.533698 
L 53.841947 147.029585 
L 55.769794 130.253726 
L 57.761901 139.049955 
L 59.689748 175.770411 
L 61.681856 163.196519 
L 63.673963 146.399567 
L 65.473287 161.557254 
L 67.465394 147.099479 
L 69.393241 173.174212 
L 71.385349 175.471014 
L 73.313195 152.355495 
L 75.305303 154.086695 
L 77.297411 124.728924 
L 79.225257 123.78176 
L 81.217365 170.933193 
L 83.145211 129.494818 
L 85.137319 128.460476 
L 87.129427 116.173741 
L 88.92875 135.346088 
L 90.920858 171.142538 
L 92.848704 175.212829 
L 94.840812 147.787986 
L 96.768658 153.245553 
L 98.760766 123.076525 
L 100.752874 163.818008 
L 102.68072 169.299772 
L 104.672828 173.274526 
L 106.600674 170.721334 
L 108.592782 137.967233 
L 110.58489 129.410556 
L 112.448475 149.68257 
L 114.440583 143.39067 
L 116.368429 209.922581 
L 118.360537 206.839427 
L 120.288383 153.642975 
L 122.280491 147.929056 
L 124.272599 143.315655 
L 126.200445 163.195449 
L 128.192553 136.51322 
L 130.120399 127.24087 
L 132.112507 128.148933 
L 134.104615 135.525391 
L 135.903938 137.37516 
L 137.896046 129.245653 
L 139.823892 186.72066 
L 141.816 148.897787 
L 143.743847 109.493158 
L 145.735954 109.264333 
L 147.728062 100.88886 
L 149.655909 116.490813 
L 151.648016 119.936804 
L 153.575863 113.426886 
L 155.567971 104.623051 
L 157.560078 112.331265 
L 159.359402 103.065485 
L 161.351509 153.352804 
L 163.279356 180.924771 
L 165.271464 144.284961 
L 167.19931 136.612657 
L 169.191418 117.169382 
L 171.183526 109.397502 
L 173.111372 118.310457 
L 175.10348 102.158532 
L 177.031326 130.424099 
L 179.023434 111.196116 
L 181.015542 116.964625 
L 182.814865 126.041085 
L 184.806973 111.598434 
L 186.734819 112.300719 
L 188.726927 107.23501 
L 192.646881 123.29874 
L 194.638989 116.644524 
L 196.566835 120.922125 
L 198.558943 127.153988 
L 200.486789 135.466623 
L 202.478897 139.507598 
L 204.471005 123.909297 
L 206.33459 160.631748 
L 208.326698 170.447273 
L 210.254544 211.76474 
L 212.246652 199.333216 
L 214.174498 166.552692 
L 216.166606 163.650435 
L 218.158714 167.578309 
L 220.08656 164.152925 
L 222.078668 165.936175 
L 224.006514 175.955912 
L 225.998622 169.958993 
L 227.99073 166.96069 
L 229.790053 168.47854 
L 231.782161 186.175796 
L 233.710007 232.520283 
L 235.702115 215.946503 
L 237.629962 180.320221 
L 239.622069 185.515966 
L 241.614177 189.925645 
L 243.542024 199.465421 
L 245.534131 205.851975 
L 247.461978 193.345277 
L 249.454086 190.263714 
L 251.446193 194.803877 
L 253.245517 185.326632 
L 255.237624 188.89265 
L 257.165471 201.041045 
L 261.085425 189.148166 
L 263.077533 192.167169 
L 265.069641 224.483202 
L 266.997487 226.66452 
L 268.989595 234.508347 
L 270.917441 175.563067 
L 272.909549 175.513369 
L 274.901657 161.687252 
L 276.70098 163.880916 
L 278.693088 162.920116 
L 280.620934 179.452454 
L 282.613042 195.096846 
L 284.540888 165.962837 
L 286.532996 183.122596 
L 288.525104 159.592297 
L 290.45295 151.841399 
L 292.445058 175.116122 
L 294.372904 162.554395 
L 296.365012 195.951691 
L 298.35712 194.83761 
L 300.220705 192.189001 
L 302.212813 206.622385 
L 304.140659 213.824753 
L 306.132767 194.816718 
L 310.052721 177.803781 
L 312.044829 180.854359 
L 313.972675 177.234664 
L 315.964783 184.87513 
L 317.892629 204.061144 
L 319.884737 193.727732 
L 321.876845 201.829473 
L 323.676168 211.376715 
L 325.668276 242.065556 
L 327.596122 201.177985 
L 329.58823 188.534294 
L 331.516077 193.224447 
L 333.508184 188.240496 
L 335.500292 191.196365 
L 337.428139 180.385209 
L 339.420246 189.631467 
L 341.348093 211.754259 
L 343.340201 198.476751 
L 345.332308 187.000135 
L 347.131632 193.060617 
L 349.123739 195.558265 
L 351.051586 223.198307 
L 353.043694 200.806987 
L 354.97154 195.080976 
L 356.963648 177.513226 
L 358.955756 180.355708 
L 360.883602 171.095442 
L 362.87571 203.576696 
L 364.803556 212.37733 
L 366.795664 214.907556 
L 368.787772 224.396463 
L 370.587095 252.430273 
L 372.579203 207.056332 
L 374.507049 218.964387 
L 376.499157 206.768885 
L 378.427003 196.874762 
L 380.419111 184.080811 
L 382.411219 183.044413 
L 384.339065 184.522816 
L 386.331173 233.851 
L 388.259019 261.878934 
L 390.251127 247.580556 
L 392.243235 266.130717 
L 394.10682 274.210488 
L 396.098928 273.999441 
L 398.026774 283.143207 
L 400.018882 282.475188 
L 401.946728 262.160967 
L 403.938836 264.24551 
L 405.930944 257.817172 
L 407.85879 269.137841 
L 409.850898 268.439024 
L 411.778744 285.744051 
L 413.770852 264.164457 
L 415.76296 252.59604 
L 417.562283 263.620879 
L 419.554391 288.807942 
L 421.482237 281.606807 
L 423.474345 264.754851 
L 427.394299 236.145052 
L 429.386407 258.840073 
L 431.314254 240.102767 
L 435.234208 238.751902 
L 437.226316 242.934208 
L 439.218423 248.892496 
L 441.017747 269.464055 
L 443.009854 277.736467 
L 443.009854 277.736467 
" style="fill:none;stroke:#ff7f0e;stroke-linecap:square;stroke-width:1.5;"/>
   </g>
   <g id="line2d_29">
    <path clip-path="url(#p68749ae4fa)" d="M 40.2185 162.404409 
L 42.017823 170.088789 
L 44.009931 162.74831 
L 45.937777 139.85721 
L 47.929885 152.80955 
L 49.857732 158.663907 
L 51.849839 172.150324 
L 53.841947 158.700818 
L 55.769794 157.360691 
L 57.761901 152.763283 
L 59.689748 176.697675 
L 61.681856 167.064367 
L 63.673963 167.649794 
L 65.473287 162.560479 
L 67.465394 165.309142 
L 69.393241 190.892524 
L 71.385349 195.772886 
L 73.313195 169.598377 
L 75.305303 167.083768 
L 77.297411 156.182229 
L 79.225257 157.337439 
L 81.217365 190.186789 
L 83.145211 158.665088 
L 85.137319 153.16204 
L 87.129427 155.856308 
L 88.92875 167.221058 
L 90.920858 188.274911 
L 92.848704 188.148276 
L 94.840812 167.65045 
L 96.768658 166.385137 
L 98.760766 149.762921 
L 100.752874 189.45733 
L 104.672828 199.230627 
L 106.600674 194.723336 
L 108.592782 167.909819 
L 110.58489 160.641307 
L 112.448475 173.270748 
L 114.440583 170.422137 
L 116.368429 215.628669 
L 118.360537 220.450548 
L 120.288383 177.325096 
L 122.280491 167.741627 
L 124.272599 159.716949 
L 126.200445 175.15979 
L 128.192553 160.998499 
L 130.120399 156.930111 
L 132.112507 154.922162 
L 135.903938 162.497886 
L 137.896046 160.602341 
L 139.823892 203.237484 
L 141.816 181.537495 
L 143.743847 153.761147 
L 145.735954 147.886889 
L 147.728062 150.310759 
L 149.655909 158.229438 
L 151.648016 157.822538 
L 153.575863 152.670498 
L 155.567971 160.489734 
L 157.560078 157.629379 
L 159.359402 151.755154 
L 161.351509 180.167469 
L 163.279356 201.957619 
L 165.271464 177.716212 
L 167.19931 172.255359 
L 169.191418 155.976336 
L 171.183526 155.10908 
L 173.111372 162.968194 
L 175.10348 155.198224 
L 177.031326 169.111963 
L 179.023434 161.271603 
L 181.015542 157.31583 
L 182.814865 155.822381 
L 184.806973 161.630425 
L 186.734819 162.40166 
L 188.726927 156.554458 
L 190.654773 163.864716 
L 192.646881 154.273623 
L 194.638989 148.214576 
L 196.566835 157.861165 
L 198.558943 161.36202 
L 200.486789 165.856098 
L 202.478897 157.17113 
L 204.471005 156.555982 
L 206.33459 182.655227 
L 208.326698 180.180474 
L 210.254544 211.823417 
L 212.246652 196.728664 
L 214.174498 167.990818 
L 216.166606 149.261565 
L 218.158714 151.963307 
L 220.08656 145.80444 
L 222.078668 153.161715 
L 224.006514 160.889514 
L 225.998622 154.341631 
L 227.99073 157.947763 
L 229.790053 154.611527 
L 231.782161 172.012862 
L 233.710007 219.239705 
L 235.702115 204.575368 
L 237.629962 163.655437 
L 239.622069 164.397284 
L 241.614177 148.083265 
L 243.542024 162.869085 
L 245.534131 168.740281 
L 247.461978 151.100987 
L 249.454086 149.929357 
L 251.446193 159.33011 
L 253.245517 161.866858 
L 255.237624 159.123671 
L 257.165471 166.328805 
L 259.157579 153.844839 
L 261.085425 167.090257 
L 263.077533 161.475654 
L 265.069641 196.313669 
L 266.997487 195.687522 
L 268.989595 200.166222 
L 270.917441 172.861854 
L 272.909549 162.088419 
L 274.901657 155.166172 
L 276.70098 160.926105 
L 278.693088 172.992726 
L 280.620934 189.659331 
L 282.613042 188.65975 
L 284.540888 152.002735 
L 286.532996 174.852571 
L 288.525104 145.909816 
L 290.45295 148.563227 
L 292.445058 161.81847 
L 294.372904 151.685682 
L 296.365012 182.710323 
L 298.35712 168.001874 
L 300.220705 163.407465 
L 302.212813 191.432071 
L 304.140659 197.046263 
L 306.132767 170.745868 
L 308.060613 166.308074 
L 310.052721 163.495154 
L 312.044829 162.818693 
L 313.972675 158.545755 
L 315.964783 148.867271 
L 317.892629 170.280277 
L 319.884737 156.256403 
L 321.876845 161.124727 
L 323.676168 188.229325 
L 325.668276 229.339203 
L 327.596122 172.791092 
L 329.58823 153.307663 
L 331.516077 161.525289 
L 333.508184 160.531891 
L 335.500292 162.662728 
L 337.428139 150.441697 
L 339.420246 161.584428 
L 341.348093 183.921945 
L 343.340201 171.371506 
L 345.332308 155.795634 
L 347.131632 170.665189 
L 349.123739 170.869647 
L 351.051586 194.382008 
L 353.043694 168.002752 
L 354.97154 165.138726 
L 356.963648 154.456606 
L 358.955756 154.987462 
L 360.883602 152.942315 
L 362.87571 187.56316 
L 364.803556 196.43567 
L 366.795664 191.562494 
L 368.787772 205.627123 
L 370.587095 238.708646 
L 372.579203 186.669058 
L 374.507049 198.400488 
L 376.499157 185.31847 
L 378.427003 168.921362 
L 380.419111 153.753066 
L 382.411219 160.543002 
L 384.339065 158.508131 
L 388.259019 246.511554 
L 390.251127 225.505176 
L 392.243235 247.989103 
L 394.10682 257.697037 
L 396.098928 261.592221 
L 398.026774 273.208627 
L 400.018882 278.102102 
L 401.946728 238.809798 
L 403.938836 240.007385 
L 405.930944 235.189864 
L 407.85879 251.338491 
L 409.850898 255.721938 
L 411.778744 276.944908 
L 415.76296 221.029016 
L 417.562283 240.516799 
L 419.554391 276.060139 
L 421.482237 268.377672 
L 423.474345 238.79457 
L 425.402192 218.351813 
L 427.394299 201.225539 
L 429.386407 234.468859 
L 431.314254 205.627825 
L 433.306361 208.353432 
L 435.234208 209.639685 
L 437.226316 214.260358 
L 439.218423 220.26146 
L 441.017747 251.693119 
L 443.009854 265.257191 
L 443.009854 265.257191 
" style="fill:none;stroke:#2ca02c;stroke-linecap:square;stroke-width:1.5;"/>
   </g>
   <g id="patch_3">
    <path d="M 40.2185 309.8635 
L 40.2185 23.36505 
" style="fill:none;stroke:#000000;stroke-linecap:square;stroke-linejoin:miter;stroke-width:0.8;"/>
   </g>
   <g id="patch_4">
    <path d="M 443.009854 309.8635 
L 443.009854 23.36505 
" style="fill:none;stroke:#000000;stroke-linecap:square;stroke-linejoin:miter;stroke-width:0.8;"/>
   </g>
   <g id="patch_5">
    <path d="M 40.2185 309.8635 
L 443.009854 309.8635 
" style="fill:none;stroke:#000000;stroke-linecap:square;stroke-linejoin:miter;stroke-width:0.8;"/>
   </g>
   <g id="patch_6">
    <path d="M 40.2185 23.36505 
L 443.009854 23.36505 
" style="fill:none;stroke:#000000;stroke-linecap:square;stroke-linejoin:miter;stroke-width:0.8;"/>
   </g>
   <g id="text_16">
    <!-- Average monthly normalized emissions -->
    <defs>
     <path d="M 34.1875 63.1875 
L 20.796875 26.90625 
L 47.609375 26.90625 
z
M 28.609375 72.90625 
L 39.796875 72.90625 
L 67.578125 0 
L 57.328125 0 
L 50.6875 18.703125 
L 17.828125 18.703125 
L 11.1875 0 
L 0.78125 0 
z
" id="DejaVuSans-41"/>
     <path d="M 2.984375 54.6875 
L 12.5 54.6875 
L 29.59375 8.796875 
L 46.6875 54.6875 
L 56.203125 54.6875 
L 35.6875 0 
L 23.484375 0 
z
" id="DejaVuSans-76"/>
     <path d="M 41.109375 46.296875 
Q 39.59375 47.171875 37.8125 47.578125 
Q 36.03125 48 33.890625 48 
Q 26.265625 48 22.1875 43.046875 
Q 18.109375 38.09375 18.109375 28.8125 
L 18.109375 0 
L 9.078125 0 
L 9.078125 54.6875 
L 18.109375 54.6875 
L 18.109375 46.1875 
Q 20.953125 51.171875 25.484375 53.578125 
Q 30.03125 56 36.53125 56 
Q 37.453125 56 38.578125 55.875 
Q 39.703125 55.765625 41.0625 55.515625 
z
" id="DejaVuSans-72"/>
     <path d="M 45.40625 27.984375 
Q 45.40625 37.75 41.375 43.109375 
Q 37.359375 48.484375 30.078125 48.484375 
Q 22.859375 48.484375 18.828125 43.109375 
Q 14.796875 37.75 14.796875 27.984375 
Q 14.796875 18.265625 18.828125 12.890625 
Q 22.859375 7.515625 30.078125 7.515625 
Q 37.359375 7.515625 41.375 12.890625 
Q 45.40625 18.265625 45.40625 27.984375 
z
M 54.390625 6.78125 
Q 54.390625 -7.171875 48.1875 -13.984375 
Q 42 -20.796875 29.203125 -20.796875 
Q 24.46875 -20.796875 20.265625 -20.09375 
Q 16.0625 -19.390625 12.109375 -17.921875 
L 12.109375 -9.1875 
Q 16.0625 -11.328125 19.921875 -12.34375 
Q 23.78125 -13.375 27.78125 -13.375 
Q 36.625 -13.375 41.015625 -8.765625 
Q 45.40625 -4.15625 45.40625 5.171875 
L 45.40625 9.625 
Q 42.625 4.78125 38.28125 2.390625 
Q 33.9375 0 27.875 0 
Q 17.828125 0 11.671875 7.65625 
Q 5.515625 15.328125 5.515625 27.984375 
Q 5.515625 40.671875 11.671875 48.328125 
Q 17.828125 56 27.875 56 
Q 33.9375 56 38.28125 53.609375 
Q 42.625 51.21875 45.40625 46.390625 
L 45.40625 54.6875 
L 54.390625 54.6875 
z
" id="DejaVuSans-67"/>
     <path d="M 54.890625 33.015625 
L 54.890625 0 
L 45.90625 0 
L 45.90625 32.71875 
Q 45.90625 40.484375 42.875 44.328125 
Q 39.84375 48.1875 33.796875 48.1875 
Q 26.515625 48.1875 22.3125 43.546875 
Q 18.109375 38.921875 18.109375 30.90625 
L 18.109375 0 
L 9.078125 0 
L 9.078125 75.984375 
L 18.109375 75.984375 
L 18.109375 46.1875 
Q 21.34375 51.125 25.703125 53.5625 
Q 30.078125 56 35.796875 56 
Q 45.21875 56 50.046875 50.171875 
Q 54.890625 44.34375 54.890625 33.015625 
z
" id="DejaVuSans-68"/>
     <path d="M 9.421875 75.984375 
L 18.40625 75.984375 
L 18.40625 0 
L 9.421875 0 
z
" id="DejaVuSans-6c"/>
     <path d="M 32.171875 -5.078125 
Q 28.375 -14.84375 24.75 -17.8125 
Q 21.140625 -20.796875 15.09375 -20.796875 
L 7.90625 -20.796875 
L 7.90625 -13.28125 
L 13.1875 -13.28125 
Q 16.890625 -13.28125 18.9375 -11.515625 
Q 21 -9.765625 23.484375 -3.21875 
L 25.09375 0.875 
L 2.984375 54.6875 
L 12.5 54.6875 
L 29.59375 11.921875 
L 46.6875 54.6875 
L 56.203125 54.6875 
z
" id="DejaVuSans-79"/>
     <path d="M 5.515625 54.6875 
L 48.1875 54.6875 
L 48.1875 46.484375 
L 14.40625 7.171875 
L 48.1875 7.171875 
L 48.1875 0 
L 4.296875 0 
L 4.296875 8.203125 
L 38.09375 47.515625 
L 5.515625 47.515625 
z
" id="DejaVuSans-7a"/>
     <path d="M 45.40625 46.390625 
L 45.40625 75.984375 
L 54.390625 75.984375 
L 54.390625 0 
L 45.40625 0 
L 45.40625 8.203125 
Q 42.578125 3.328125 38.25 0.953125 
Q 33.9375 -1.421875 27.875 -1.421875 
Q 17.96875 -1.421875 11.734375 6.484375 
Q 5.515625 14.40625 5.515625 27.296875 
Q 5.515625 40.1875 11.734375 48.09375 
Q 17.96875 56 27.875 56 
Q 33.9375 56 38.25 53.625 
Q 42.578125 51.265625 45.40625 46.390625 
z
M 14.796875 27.296875 
Q 14.796875 17.390625 18.875 11.75 
Q 22.953125 6.109375 30.078125 6.109375 
Q 37.203125 6.109375 41.296875 11.75 
Q 45.40625 17.390625 45.40625 27.296875 
Q 45.40625 37.203125 41.296875 42.84375 
Q 37.203125 48.484375 30.078125 48.484375 
Q 22.953125 48.484375 18.875 42.84375 
Q 14.796875 37.203125 14.796875 27.296875 
z
" id="DejaVuSans-64"/>
    </defs>
    <g transform="translate(123.050427 17.36505)scale(0.12 -0.12)">
     <use xlink:href="#DejaVuSans-41"/>
     <use x="68.330078" xlink:href="#DejaVuSans-76"/>
     <use x="127.509766" xlink:href="#DejaVuSans-65"/>
     <use x="189.033203" xlink:href="#DejaVuSans-72"/>
     <use x="230.146484" xlink:href="#DejaVuSans-61"/>
     <use x="291.425781" xlink:href="#DejaVuSans-67"/>
     <use x="354.902344" xlink:href="#DejaVuSans-65"/>
     <use x="416.425781" xlink:href="#DejaVuSans-20"/>
     <use x="448.212891" xlink:href="#DejaVuSans-6d"/>
     <use x="545.625" xlink:href="#DejaVuSans-6f"/>
     <use x="606.806641" xlink:href="#DejaVuSans-6e"/>
     <use x="670.185547" xlink:href="#DejaVuSans-74"/>
     <use x="709.394531" xlink:href="#DejaVuSans-68"/>
     <use x="772.773438" xlink:href="#DejaVuSans-6c"/>
     <use x="800.556641" xlink:href="#DejaVuSans-79"/>
     <use x="859.736328" xlink:href="#DejaVuSans-20"/>
     <use x="891.523438" xlink:href="#DejaVuSans-6e"/>
     <use x="954.902344" xlink:href="#DejaVuSans-6f"/>
     <use x="1016.083984" xlink:href="#DejaVuSans-72"/>
     <use x="1057.181641" xlink:href="#DejaVuSans-6d"/>
     <use x="1154.59375" xlink:href="#DejaVuSans-61"/>
     <use x="1215.873047" xlink:href="#DejaVuSans-6c"/>
     <use x="1243.65625" xlink:href="#DejaVuSans-69"/>
     <use x="1271.439453" xlink:href="#DejaVuSans-7a"/>
     <use x="1323.929688" xlink:href="#DejaVuSans-65"/>
     <use x="1385.453125" xlink:href="#DejaVuSans-64"/>
     <use x="1448.929688" xlink:href="#DejaVuSans-20"/>
     <use x="1480.716797" xlink:href="#DejaVuSans-65"/>
     <use x="1542.240234" xlink:href="#DejaVuSans-6d"/>
     <use x="1639.652344" xlink:href="#DejaVuSans-69"/>
     <use x="1667.435547" xlink:href="#DejaVuSans-73"/>
     <use x="1719.535156" xlink:href="#DejaVuSans-73"/>
     <use x="1771.634766" xlink:href="#DejaVuSans-69"/>
     <use x="1799.417969" xlink:href="#DejaVuSans-6f"/>
     <use x="1860.599609" xlink:href="#DejaVuSans-6e"/>
     <use x="1923.978516" xlink:href="#DejaVuSans-73"/>
    </g>
   </g>
   <g id="legend_1">
    <g id="patch_7">
     <path d="M 382.737979 75.399425 
L 436.009854 75.399425 
Q 438.009854 75.399425 438.009854 73.399425 
L 438.009854 30.36505 
Q 438.009854 28.36505 436.009854 28.36505 
L 382.737979 28.36505 
Q 380.737979 28.36505 380.737979 30.36505 
L 380.737979 73.399425 
Q 380.737979 75.399425 382.737979 75.399425 
z
" style="fill:#ffffff;opacity:0.8;stroke:#cccccc;stroke-linejoin:miter;"/>
    </g>
    <g id="line2d_30">
     <path d="M 384.737979 36.463488 
L 404.737979 36.463488 
" style="fill:none;stroke:#1f77b4;stroke-linecap:square;stroke-width:1.5;"/>
    </g>
    <g id="line2d_31"/>
    <g id="text_17">
     <!-- SOx -->
     <defs>
      <path d="M 53.515625 70.515625 
L 53.515625 60.890625 
Q 47.90625 63.578125 42.921875 64.890625 
Q 37.9375 66.21875 33.296875 66.21875 
Q 25.25 66.21875 20.875 63.09375 
Q 16.5 59.96875 16.5 54.203125 
Q 16.5 49.359375 19.40625 46.890625 
Q 22.3125 44.4375 30.421875 42.921875 
L 36.375 41.703125 
Q 47.40625 39.59375 52.65625 34.296875 
Q 57.90625 29 57.90625 20.125 
Q 57.90625 9.515625 50.796875 4.046875 
Q 43.703125 -1.421875 29.984375 -1.421875 
Q 24.8125 -1.421875 18.96875 -0.25 
Q 13.140625 0.921875 6.890625 3.21875 
L 6.890625 13.375 
Q 12.890625 10.015625 18.65625 8.296875 
Q 24.421875 6.59375 29.984375 6.59375 
Q 38.421875 6.59375 43.015625 9.90625 
Q 47.609375 13.234375 47.609375 19.390625 
Q 47.609375 24.75 44.3125 27.78125 
Q 41.015625 30.8125 33.5 32.328125 
L 27.484375 33.5 
Q 16.453125 35.6875 11.515625 40.375 
Q 6.59375 45.0625 6.59375 53.421875 
Q 6.59375 63.09375 13.40625 68.65625 
Q 20.21875 74.21875 32.171875 74.21875 
Q 37.3125 74.21875 42.625 73.28125 
Q 47.953125 72.359375 53.515625 70.515625 
z
" id="DejaVuSans-53"/>
      <path d="M 39.40625 66.21875 
Q 28.65625 66.21875 22.328125 58.203125 
Q 16.015625 50.203125 16.015625 36.375 
Q 16.015625 22.609375 22.328125 14.59375 
Q 28.65625 6.59375 39.40625 6.59375 
Q 50.140625 6.59375 56.421875 14.59375 
Q 62.703125 22.609375 62.703125 36.375 
Q 62.703125 50.203125 56.421875 58.203125 
Q 50.140625 66.21875 39.40625 66.21875 
z
M 39.40625 74.21875 
Q 54.734375 74.21875 63.90625 63.9375 
Q 73.09375 53.65625 73.09375 36.375 
Q 73.09375 19.140625 63.90625 8.859375 
Q 54.734375 -1.421875 39.40625 -1.421875 
Q 24.03125 -1.421875 14.8125 8.828125 
Q 5.609375 19.09375 5.609375 36.375 
Q 5.609375 53.65625 14.8125 63.9375 
Q 24.03125 74.21875 39.40625 74.21875 
z
" id="DejaVuSans-4f"/>
      <path d="M 54.890625 54.6875 
L 35.109375 28.078125 
L 55.90625 0 
L 45.3125 0 
L 29.390625 21.484375 
L 13.484375 0 
L 2.875 0 
L 24.125 28.609375 
L 4.6875 54.6875 
L 15.28125 54.6875 
L 29.78125 35.203125 
L 44.28125 54.6875 
z
" id="DejaVuSans-78"/>
     </defs>
     <g transform="translate(412.737979 39.963488)scale(0.1 -0.1)">
      <use xlink:href="#DejaVuSans-53"/>
      <use x="63.476562" xlink:href="#DejaVuSans-4f"/>
      <use x="142.1875" xlink:href="#DejaVuSans-78"/>
     </g>
    </g>
    <g id="line2d_32">
     <path d="M 384.737979 51.141613 
L 404.737979 51.141613 
" style="fill:none;stroke:#ff7f0e;stroke-linecap:square;stroke-width:1.5;"/>
    </g>
    <g id="line2d_33"/>
    <g id="text_18">
     <!-- NOx -->
     <defs>
      <path d="M 9.8125 72.90625 
L 23.09375 72.90625 
L 55.421875 11.921875 
L 55.421875 72.90625 
L 64.984375 72.90625 
L 64.984375 0 
L 51.703125 0 
L 19.390625 60.984375 
L 19.390625 0 
L 9.8125 0 
z
" id="DejaVuSans-4e"/>
     </defs>
     <g transform="translate(412.737979 54.641613)scale(0.1 -0.1)">
      <use xlink:href="#DejaVuSans-4e"/>
      <use x="74.804688" xlink:href="#DejaVuSans-4f"/>
      <use x="153.515625" xlink:href="#DejaVuSans-78"/>
     </g>
    </g>
    <g id="line2d_34">
     <path d="M 384.737979 65.819738 
L 404.737979 65.819738 
" style="fill:none;stroke:#2ca02c;stroke-linecap:square;stroke-width:1.5;"/>
    </g>
    <g id="line2d_35"/>
    <g id="text_19">
     <!-- CO2 -->
     <defs>
      <path d="M 64.40625 67.28125 
L 64.40625 56.890625 
Q 59.421875 61.53125 53.78125 63.8125 
Q 48.140625 66.109375 41.796875 66.109375 
Q 29.296875 66.109375 22.65625 58.46875 
Q 16.015625 50.828125 16.015625 36.375 
Q 16.015625 21.96875 22.65625 14.328125 
Q 29.296875 6.6875 41.796875 6.6875 
Q 48.140625 6.6875 53.78125 8.984375 
Q 59.421875 11.28125 64.40625 15.921875 
L 64.40625 5.609375 
Q 59.234375 2.09375 53.4375 0.328125 
Q 47.65625 -1.421875 41.21875 -1.421875 
Q 24.65625 -1.421875 15.125 8.703125 
Q 5.609375 18.84375 5.609375 36.375 
Q 5.609375 53.953125 15.125 64.078125 
Q 24.65625 74.21875 41.21875 74.21875 
Q 47.75 74.21875 53.53125 72.484375 
Q 59.328125 70.75 64.40625 67.28125 
z
" id="DejaVuSans-43"/>
     </defs>
     <g transform="translate(412.737979 69.319738)scale(0.1 -0.1)">
      <use xlink:href="#DejaVuSans-43"/>
      <use x="69.824219" xlink:href="#DejaVuSans-4f"/>
      <use x="148.535156" xlink:href="#DejaVuSans-32"/>
     </g>
    </g>
   </g>
  </g>
 </g>
 <defs>
  <clipPath id="p68749ae4fa">
   <rect height="286.49845" width="402.791354" x="40.2185" y="23.36505"/>
  </clipPath>
 </defs>
</svg>
