<?xml version="1.0" encoding="utf-8" standalone="no"?>
<!DOCTYPE svg PUBLIC "-//W3C//DTD SVG 1.1//EN"
  "http://www.w3.org/Graphics/SVG/1.1/DTD/svg11.dtd">
<!-- Created with matplotlib (http://matplotlib.org/) -->
<svg height="345.6pt" version="1.1" viewBox="0 0 460.8 345.6" width="460.8pt" xmlns="http://www.w3.org/2000/svg" xmlns:xlink="http://www.w3.org/1999/xlink">
 <defs>
  <style type="text/css">
*{stroke-linecap:butt;stroke-linejoin:round;}
  </style>
 </defs>
 <g id="figure_1">
  <g id="patch_1">
   <path d="M 0 345.6 
L 460.8 345.6 
L 460.8 0 
L 0 0 
z
" style="fill:none;"/>
  </g>
  <g id="axes_1">
   <g id="patch_2">
    <path d="M 37.93025 309.8635 
L 443.034703 309.8635 
L 443.034703 23.36505 
L 37.93025 23.36505 
z
" style="fill:none;"/>
   </g>
   <g id="matplotlib.axis_1">
    <g id="xtick_1">
     <g id="line2d_1">
      <path clip-path="url(#pd055361a9a)" d="M 83.171654 309.8635 
L 83.171654 23.36505 
" style="fill:none;stroke:#b0b0b0;stroke-linecap:square;stroke-width:0.8;"/>
     </g>
     <g id="line2d_2">
      <defs>
       <path d="M 0 0 
L 0 3.5 
" id="m0e51d2979d" style="stroke:#000000;stroke-width:0.8;"/>
      </defs>
      <g>
       <use style="stroke:#000000;stroke-width:0.8;" x="83.171654" xlink:href="#m0e51d2979d" y="309.8635"/>
      </g>
     </g>
     <g id="text_1">
      <!-- 2003 -->
      <defs>
       <path d="M 19.1875 8.296875 
L 53.609375 8.296875 
L 53.609375 0 
L 7.328125 0 
L 7.328125 8.296875 
Q 12.9375 14.109375 22.625 23.890625 
Q 32.328125 33.6875 34.8125 36.53125 
Q 39.546875 41.84375 41.421875 45.53125 
Q 43.3125 49.21875 43.3125 52.78125 
Q 43.3125 58.59375 39.234375 62.25 
Q 35.15625 65.921875 28.609375 65.921875 
Q 23.96875 65.921875 18.8125 64.3125 
Q 13.671875 62.703125 7.8125 59.421875 
L 7.8125 69.390625 
Q 13.765625 71.78125 18.9375 73 
Q 24.125 74.21875 28.421875 74.21875 
Q 39.75 74.21875 46.484375 68.546875 
Q 53.21875 62.890625 53.21875 53.421875 
Q 53.21875 48.921875 51.53125 44.890625 
Q 49.859375 40.875 45.40625 35.40625 
Q 44.1875 33.984375 37.640625 27.21875 
Q 31.109375 20.453125 19.1875 8.296875 
z
" id="DejaVuSans-32"/>
       <path d="M 31.78125 66.40625 
Q 24.171875 66.40625 20.328125 58.90625 
Q 16.5 51.421875 16.5 36.375 
Q 16.5 21.390625 20.328125 13.890625 
Q 24.171875 6.390625 31.78125 6.390625 
Q 39.453125 6.390625 43.28125 13.890625 
Q 47.125 21.390625 47.125 36.375 
Q 47.125 51.421875 43.28125 58.90625 
Q 39.453125 66.40625 31.78125 66.40625 
z
M 31.78125 74.21875 
Q 44.046875 74.21875 50.515625 64.515625 
Q 56.984375 54.828125 56.984375 36.375 
Q 56.984375 17.96875 50.515625 8.265625 
Q 44.046875 -1.421875 31.78125 -1.421875 
Q 19.53125 -1.421875 13.0625 8.265625 
Q 6.59375 17.96875 6.59375 36.375 
Q 6.59375 54.828125 13.0625 64.515625 
Q 19.53125 74.21875 31.78125 74.21875 
z
" id="DejaVuSans-30"/>
       <path d="M 40.578125 39.3125 
Q 47.65625 37.796875 51.625 33 
Q 55.609375 28.21875 55.609375 21.1875 
Q 55.609375 10.40625 48.1875 4.484375 
Q 40.765625 -1.421875 27.09375 -1.421875 
Q 22.515625 -1.421875 17.65625 -0.515625 
Q 12.796875 0.390625 7.625 2.203125 
L 7.625 11.71875 
Q 11.71875 9.328125 16.59375 8.109375 
Q 21.484375 6.890625 26.8125 6.890625 
Q 36.078125 6.890625 40.9375 10.546875 
Q 45.796875 14.203125 45.796875 21.1875 
Q 45.796875 27.640625 41.28125 31.265625 
Q 36.765625 34.90625 28.71875 34.90625 
L 20.21875 34.90625 
L 20.21875 43.015625 
L 29.109375 43.015625 
Q 36.375 43.015625 40.234375 45.921875 
Q 44.09375 48.828125 44.09375 54.296875 
Q 44.09375 59.90625 40.109375 62.90625 
Q 36.140625 65.921875 28.71875 65.921875 
Q 24.65625 65.921875 20.015625 65.03125 
Q 15.375 64.15625 9.8125 62.3125 
L 9.8125 71.09375 
Q 15.4375 72.65625 20.34375 73.4375 
Q 25.25 74.21875 29.59375 74.21875 
Q 40.828125 74.21875 47.359375 69.109375 
Q 53.90625 64.015625 53.90625 55.328125 
Q 53.90625 49.265625 50.4375 45.09375 
Q 46.96875 40.921875 40.578125 39.3125 
z
" id="DejaVuSans-33"/>
      </defs>
      <g transform="translate(70.446654 324.461937)scale(0.1 -0.1)">
       <use xlink:href="#DejaVuSans-32"/>
       <use x="63.623047" xlink:href="#DejaVuSans-30"/>
       <use x="127.246094" xlink:href="#DejaVuSans-30"/>
       <use x="190.869141" xlink:href="#DejaVuSans-33"/>
      </g>
     </g>
    </g>
    <g id="xtick_2">
     <g id="line2d_3">
      <path clip-path="url(#pd055361a9a)" d="M 130.416605 309.8635 
L 130.416605 23.36505 
" style="fill:none;stroke:#b0b0b0;stroke-linecap:square;stroke-width:0.8;"/>
     </g>
     <g id="line2d_4">
      <g>
       <use style="stroke:#000000;stroke-width:0.8;" x="130.416605" xlink:href="#m0e51d2979d" y="309.8635"/>
      </g>
     </g>
     <g id="text_2">
      <!-- 2005 -->
      <defs>
       <path d="M 10.796875 72.90625 
L 49.515625 72.90625 
L 49.515625 64.59375 
L 19.828125 64.59375 
L 19.828125 46.734375 
Q 21.96875 47.46875 24.109375 47.828125 
Q 26.265625 48.1875 28.421875 48.1875 
Q 40.625 48.1875 47.75 41.5 
Q 54.890625 34.8125 54.890625 23.390625 
Q 54.890625 11.625 47.5625 5.09375 
Q 40.234375 -1.421875 26.90625 -1.421875 
Q 22.3125 -1.421875 17.546875 -0.640625 
Q 12.796875 0.140625 7.71875 1.703125 
L 7.71875 11.625 
Q 12.109375 9.234375 16.796875 8.0625 
Q 21.484375 6.890625 26.703125 6.890625 
Q 35.15625 6.890625 40.078125 11.328125 
Q 45.015625 15.765625 45.015625 23.390625 
Q 45.015625 31 40.078125 35.4375 
Q 35.15625 39.890625 26.703125 39.890625 
Q 22.75 39.890625 18.8125 39.015625 
Q 14.890625 38.140625 10.796875 36.28125 
z
" id="DejaVuSans-35"/>
      </defs>
      <g transform="translate(117.691605 324.461937)scale(0.1 -0.1)">
       <use xlink:href="#DejaVuSans-32"/>
       <use x="63.623047" xlink:href="#DejaVuSans-30"/>
       <use x="127.246094" xlink:href="#DejaVuSans-30"/>
       <use x="190.869141" xlink:href="#DejaVuSans-35"/>
      </g>
     </g>
    </g>
    <g id="xtick_3">
     <g id="line2d_5">
      <path clip-path="url(#pd055361a9a)" d="M 177.596926 309.8635 
L 177.596926 23.36505 
" style="fill:none;stroke:#b0b0b0;stroke-linecap:square;stroke-width:0.8;"/>
     </g>
     <g id="line2d_6">
      <g>
       <use style="stroke:#000000;stroke-width:0.8;" x="177.596926" xlink:href="#m0e51d2979d" y="309.8635"/>
      </g>
     </g>
     <g id="text_3">
      <!-- 2007 -->
      <defs>
       <path d="M 8.203125 72.90625 
L 55.078125 72.90625 
L 55.078125 68.703125 
L 28.609375 0 
L 18.3125 0 
L 43.21875 64.59375 
L 8.203125 64.59375 
z
" id="DejaVuSans-37"/>
      </defs>
      <g transform="translate(164.871926 324.461937)scale(0.1 -0.1)">
       <use xlink:href="#DejaVuSans-32"/>
       <use x="63.623047" xlink:href="#DejaVuSans-30"/>
       <use x="127.246094" xlink:href="#DejaVuSans-30"/>
       <use x="190.869141" xlink:href="#DejaVuSans-37"/>
      </g>
     </g>
    </g>
    <g id="xtick_4">
     <g id="line2d_7">
      <path clip-path="url(#pd055361a9a)" d="M 224.841877 309.8635 
L 224.841877 23.36505 
" style="fill:none;stroke:#b0b0b0;stroke-linecap:square;stroke-width:0.8;"/>
     </g>
     <g id="line2d_8">
      <g>
       <use style="stroke:#000000;stroke-width:0.8;" x="224.841877" xlink:href="#m0e51d2979d" y="309.8635"/>
      </g>
     </g>
     <g id="text_4">
      <!-- 2009 -->
      <defs>
       <path d="M 10.984375 1.515625 
L 10.984375 10.5 
Q 14.703125 8.734375 18.5 7.8125 
Q 22.3125 6.890625 25.984375 6.890625 
Q 35.75 6.890625 40.890625 13.453125 
Q 46.046875 20.015625 46.78125 33.40625 
Q 43.953125 29.203125 39.59375 26.953125 
Q 35.25 24.703125 29.984375 24.703125 
Q 19.046875 24.703125 12.671875 31.3125 
Q 6.296875 37.9375 6.296875 49.421875 
Q 6.296875 60.640625 12.9375 67.421875 
Q 19.578125 74.21875 30.609375 74.21875 
Q 43.265625 74.21875 49.921875 64.515625 
Q 56.59375 54.828125 56.59375 36.375 
Q 56.59375 19.140625 48.40625 8.859375 
Q 40.234375 -1.421875 26.421875 -1.421875 
Q 22.703125 -1.421875 18.890625 -0.6875 
Q 15.09375 0.046875 10.984375 1.515625 
z
M 30.609375 32.421875 
Q 37.25 32.421875 41.125 36.953125 
Q 45.015625 41.5 45.015625 49.421875 
Q 45.015625 57.28125 41.125 61.84375 
Q 37.25 66.40625 30.609375 66.40625 
Q 23.96875 66.40625 20.09375 61.84375 
Q 16.21875 57.28125 16.21875 49.421875 
Q 16.21875 41.5 20.09375 36.953125 
Q 23.96875 32.421875 30.609375 32.421875 
z
" id="DejaVuSans-39"/>
      </defs>
      <g transform="translate(212.116877 324.461937)scale(0.1 -0.1)">
       <use xlink:href="#DejaVuSans-32"/>
       <use x="63.623047" xlink:href="#DejaVuSans-30"/>
       <use x="127.246094" xlink:href="#DejaVuSans-30"/>
       <use x="190.869141" xlink:href="#DejaVuSans-39"/>
      </g>
     </g>
    </g>
    <g id="xtick_5">
     <g id="line2d_9">
      <path clip-path="url(#pd055361a9a)" d="M 272.022198 309.8635 
L 272.022198 23.36505 
" style="fill:none;stroke:#b0b0b0;stroke-linecap:square;stroke-width:0.8;"/>
     </g>
     <g id="line2d_10">
      <g>
       <use style="stroke:#000000;stroke-width:0.8;" x="272.022198" xlink:href="#m0e51d2979d" y="309.8635"/>
      </g>
     </g>
     <g id="text_5">
      <!-- 2011 -->
      <defs>
       <path d="M 12.40625 8.296875 
L 28.515625 8.296875 
L 28.515625 63.921875 
L 10.984375 60.40625 
L 10.984375 69.390625 
L 28.421875 72.90625 
L 38.28125 72.90625 
L 38.28125 8.296875 
L 54.390625 8.296875 
L 54.390625 0 
L 12.40625 0 
z
" id="DejaVuSans-31"/>
      </defs>
      <g transform="translate(259.297198 324.461937)scale(0.1 -0.1)">
       <use xlink:href="#DejaVuSans-32"/>
       <use x="63.623047" xlink:href="#DejaVuSans-30"/>
       <use x="127.246094" xlink:href="#DejaVuSans-31"/>
       <use x="190.869141" xlink:href="#DejaVuSans-31"/>
      </g>
     </g>
    </g>
    <g id="xtick_6">
     <g id="line2d_11">
      <path clip-path="url(#pd055361a9a)" d="M 319.267149 309.8635 
L 319.267149 23.36505 
" style="fill:none;stroke:#b0b0b0;stroke-linecap:square;stroke-width:0.8;"/>
     </g>
     <g id="line2d_12">
      <g>
       <use style="stroke:#000000;stroke-width:0.8;" x="319.267149" xlink:href="#m0e51d2979d" y="309.8635"/>
      </g>
     </g>
     <g id="text_6">
      <!-- 2013 -->
      <g transform="translate(306.542149 324.461937)scale(0.1 -0.1)">
       <use xlink:href="#DejaVuSans-32"/>
       <use x="63.623047" xlink:href="#DejaVuSans-30"/>
       <use x="127.246094" xlink:href="#DejaVuSans-31"/>
       <use x="190.869141" xlink:href="#DejaVuSans-33"/>
      </g>
     </g>
    </g>
    <g id="xtick_7">
     <g id="line2d_13">
      <path clip-path="url(#pd055361a9a)" d="M 366.44747 309.8635 
L 366.44747 23.36505 
" style="fill:none;stroke:#b0b0b0;stroke-linecap:square;stroke-width:0.8;"/>
     </g>
     <g id="line2d_14">
      <g>
       <use style="stroke:#000000;stroke-width:0.8;" x="366.44747" xlink:href="#m0e51d2979d" y="309.8635"/>
      </g>
     </g>
     <g id="text_7">
      <!-- 2015 -->
      <g transform="translate(353.72247 324.461937)scale(0.1 -0.1)">
       <use xlink:href="#DejaVuSans-32"/>
       <use x="63.623047" xlink:href="#DejaVuSans-30"/>
       <use x="127.246094" xlink:href="#DejaVuSans-31"/>
       <use x="190.869141" xlink:href="#DejaVuSans-35"/>
      </g>
     </g>
    </g>
    <g id="xtick_8">
     <g id="line2d_15">
      <path clip-path="url(#pd055361a9a)" d="M 413.692422 309.8635 
L 413.692422 23.36505 
" style="fill:none;stroke:#b0b0b0;stroke-linecap:square;stroke-width:0.8;"/>
     </g>
     <g id="line2d_16">
      <g>
       <use style="stroke:#000000;stroke-width:0.8;" x="413.692422" xlink:href="#m0e51d2979d" y="309.8635"/>
      </g>
     </g>
     <g id="text_8">
      <!-- 2017 -->
      <g transform="translate(400.967422 324.461937)scale(0.1 -0.1)">
       <use xlink:href="#DejaVuSans-32"/>
       <use x="63.623047" xlink:href="#DejaVuSans-30"/>
       <use x="127.246094" xlink:href="#DejaVuSans-31"/>
       <use x="190.869141" xlink:href="#DejaVuSans-37"/>
      </g>
     </g>
    </g>
    <g id="text_9">
     <!-- Date -->
     <defs>
      <path d="M 19.671875 64.796875 
L 19.671875 8.109375 
L 31.59375 8.109375 
Q 46.6875 8.109375 53.6875 14.9375 
Q 60.6875 21.78125 60.6875 36.53125 
Q 60.6875 51.171875 53.6875 57.984375 
Q 46.6875 64.796875 31.59375 64.796875 
z
M 9.8125 72.90625 
L 30.078125 72.90625 
Q 51.265625 72.90625 61.171875 64.09375 
Q 71.09375 55.28125 71.09375 36.53125 
Q 71.09375 17.671875 61.125 8.828125 
Q 51.171875 0 30.078125 0 
L 9.8125 0 
z
" id="DejaVuSans-44"/>
      <path d="M 34.28125 27.484375 
Q 23.390625 27.484375 19.1875 25 
Q 14.984375 22.515625 14.984375 16.5 
Q 14.984375 11.71875 18.140625 8.90625 
Q 21.296875 6.109375 26.703125 6.109375 
Q 34.1875 6.109375 38.703125 11.40625 
Q 43.21875 16.703125 43.21875 25.484375 
L 43.21875 27.484375 
z
M 52.203125 31.203125 
L 52.203125 0 
L 43.21875 0 
L 43.21875 8.296875 
Q 40.140625 3.328125 35.546875 0.953125 
Q 30.953125 -1.421875 24.3125 -1.421875 
Q 15.921875 -1.421875 10.953125 3.296875 
Q 6 8.015625 6 15.921875 
Q 6 25.140625 12.171875 29.828125 
Q 18.359375 34.515625 30.609375 34.515625 
L 43.21875 34.515625 
L 43.21875 35.40625 
Q 43.21875 41.609375 39.140625 45 
Q 35.0625 48.390625 27.6875 48.390625 
Q 23 48.390625 18.546875 47.265625 
Q 14.109375 46.140625 10.015625 43.890625 
L 10.015625 52.203125 
Q 14.9375 54.109375 19.578125 55.046875 
Q 24.21875 56 28.609375 56 
Q 40.484375 56 46.34375 49.84375 
Q 52.203125 43.703125 52.203125 31.203125 
z
" id="DejaVuSans-61"/>
      <path d="M 18.3125 70.21875 
L 18.3125 54.6875 
L 36.8125 54.6875 
L 36.8125 47.703125 
L 18.3125 47.703125 
L 18.3125 18.015625 
Q 18.3125 11.328125 20.140625 9.421875 
Q 21.96875 7.515625 27.59375 7.515625 
L 36.8125 7.515625 
L 36.8125 0 
L 27.59375 0 
Q 17.1875 0 13.234375 3.875 
Q 9.28125 7.765625 9.28125 18.015625 
L 9.28125 47.703125 
L 2.6875 47.703125 
L 2.6875 54.6875 
L 9.28125 54.6875 
L 9.28125 70.21875 
z
" id="DejaVuSans-74"/>
      <path d="M 56.203125 29.59375 
L 56.203125 25.203125 
L 14.890625 25.203125 
Q 15.484375 15.921875 20.484375 11.0625 
Q 25.484375 6.203125 34.421875 6.203125 
Q 39.59375 6.203125 44.453125 7.46875 
Q 49.3125 8.734375 54.109375 11.28125 
L 54.109375 2.78125 
Q 49.265625 0.734375 44.1875 -0.34375 
Q 39.109375 -1.421875 33.890625 -1.421875 
Q 20.796875 -1.421875 13.15625 6.1875 
Q 5.515625 13.8125 5.515625 26.8125 
Q 5.515625 40.234375 12.765625 48.109375 
Q 20.015625 56 32.328125 56 
Q 43.359375 56 49.78125 48.890625 
Q 56.203125 41.796875 56.203125 29.59375 
z
M 47.21875 32.234375 
Q 47.125 39.59375 43.09375 43.984375 
Q 39.0625 48.390625 32.421875 48.390625 
Q 24.90625 48.390625 20.390625 44.140625 
Q 15.875 39.890625 15.1875 32.171875 
z
" id="DejaVuSans-65"/>
     </defs>
     <g transform="translate(228.531695 338.140062)scale(0.1 -0.1)">
      <use xlink:href="#DejaVuSans-44"/>
      <use x="77.001953" xlink:href="#DejaVuSans-61"/>
      <use x="138.28125" xlink:href="#DejaVuSans-74"/>
      <use x="177.490234" xlink:href="#DejaVuSans-65"/>
     </g>
    </g>
   </g>
   <g id="matplotlib.axis_2">
    <g id="ytick_1">
     <g id="line2d_17">
      <path clip-path="url(#pd055361a9a)" d="M 37.93025 296.840843 
L 443.034703 296.840843 
" style="fill:none;stroke:#b0b0b0;stroke-linecap:square;stroke-width:0.8;"/>
     </g>
     <g id="line2d_18">
      <defs>
       <path d="M 0 0 
L -3.5 0 
" id="m1dd536a1a8" style="stroke:#000000;stroke-width:0.8;"/>
      </defs>
      <g>
       <use style="stroke:#000000;stroke-width:0.8;" x="37.93025" xlink:href="#m1dd536a1a8" y="296.840843"/>
      </g>
     </g>
     <g id="text_10">
      <!-- 0 -->
      <g transform="translate(24.56775 300.640062)scale(0.1 -0.1)">
       <use xlink:href="#DejaVuSans-30"/>
      </g>
     </g>
    </g>
    <g id="ytick_2">
     <g id="line2d_19">
      <path clip-path="url(#pd055361a9a)" d="M 37.93025 260.807514 
L 443.034703 260.807514 
" style="fill:none;stroke:#b0b0b0;stroke-linecap:square;stroke-width:0.8;"/>
     </g>
     <g id="line2d_20">
      <g>
       <use style="stroke:#000000;stroke-width:0.8;" x="37.93025" xlink:href="#m1dd536a1a8" y="260.807514"/>
      </g>
     </g>
     <g id="text_11">
      <!-- 2 -->
      <g transform="translate(24.56775 264.606732)scale(0.1 -0.1)">
       <use xlink:href="#DejaVuSans-32"/>
      </g>
     </g>
    </g>
    <g id="ytick_3">
     <g id="line2d_21">
      <path clip-path="url(#pd055361a9a)" d="M 37.93025 224.774184 
L 443.034703 224.774184 
" style="fill:none;stroke:#b0b0b0;stroke-linecap:square;stroke-width:0.8;"/>
     </g>
     <g id="line2d_22">
      <g>
       <use style="stroke:#000000;stroke-width:0.8;" x="37.93025" xlink:href="#m1dd536a1a8" y="224.774184"/>
      </g>
     </g>
     <g id="text_12">
      <!-- 4 -->
      <defs>
       <path d="M 37.796875 64.3125 
L 12.890625 25.390625 
L 37.796875 25.390625 
z
M 35.203125 72.90625 
L 47.609375 72.90625 
L 47.609375 25.390625 
L 58.015625 25.390625 
L 58.015625 17.1875 
L 47.609375 17.1875 
L 47.609375 0 
L 37.796875 0 
L 37.796875 17.1875 
L 4.890625 17.1875 
L 4.890625 26.703125 
z
" id="DejaVuSans-34"/>
      </defs>
      <g transform="translate(24.56775 228.573403)scale(0.1 -0.1)">
       <use xlink:href="#DejaVuSans-34"/>
      </g>
     </g>
    </g>
    <g id="ytick_4">
     <g id="line2d_23">
      <path clip-path="url(#pd055361a9a)" d="M 37.93025 188.740855 
L 443.034703 188.740855 
" style="fill:none;stroke:#b0b0b0;stroke-linecap:square;stroke-width:0.8;"/>
     </g>
     <g id="line2d_24">
      <g>
       <use style="stroke:#000000;stroke-width:0.8;" x="37.93025" xlink:href="#m1dd536a1a8" y="188.740855"/>
      </g>
     </g>
     <g id="text_13">
      <!-- 6 -->
      <defs>
       <path d="M 33.015625 40.375 
Q 26.375 40.375 22.484375 35.828125 
Q 18.609375 31.296875 18.609375 23.390625 
Q 18.609375 15.53125 22.484375 10.953125 
Q 26.375 6.390625 33.015625 6.390625 
Q 39.65625 6.390625 43.53125 10.953125 
Q 47.40625 15.53125 47.40625 23.390625 
Q 47.40625 31.296875 43.53125 35.828125 
Q 39.65625 40.375 33.015625 40.375 
z
M 52.59375 71.296875 
L 52.59375 62.3125 
Q 48.875 64.0625 45.09375 64.984375 
Q 41.3125 65.921875 37.59375 65.921875 
Q 27.828125 65.921875 22.671875 59.328125 
Q 17.53125 52.734375 16.796875 39.40625 
Q 19.671875 43.65625 24.015625 45.921875 
Q 28.375 48.1875 33.59375 48.1875 
Q 44.578125 48.1875 50.953125 41.515625 
Q 57.328125 34.859375 57.328125 23.390625 
Q 57.328125 12.15625 50.6875 5.359375 
Q 44.046875 -1.421875 33.015625 -1.421875 
Q 20.359375 -1.421875 13.671875 8.265625 
Q 6.984375 17.96875 6.984375 36.375 
Q 6.984375 53.65625 15.1875 63.9375 
Q 23.390625 74.21875 37.203125 74.21875 
Q 40.921875 74.21875 44.703125 73.484375 
Q 48.484375 72.75 52.59375 71.296875 
z
" id="DejaVuSans-36"/>
      </defs>
      <g transform="translate(24.56775 192.540073)scale(0.1 -0.1)">
       <use xlink:href="#DejaVuSans-36"/>
      </g>
     </g>
    </g>
    <g id="ytick_5">
     <g id="line2d_25">
      <path clip-path="url(#pd055361a9a)" d="M 37.93025 152.707525 
L 443.034703 152.707525 
" style="fill:none;stroke:#b0b0b0;stroke-linecap:square;stroke-width:0.8;"/>
     </g>
     <g id="line2d_26">
      <g>
       <use style="stroke:#000000;stroke-width:0.8;" x="37.93025" xlink:href="#m1dd536a1a8" y="152.707525"/>
      </g>
     </g>
     <g id="text_14">
      <!-- 8 -->
      <defs>
       <path d="M 31.78125 34.625 
Q 24.75 34.625 20.71875 30.859375 
Q 16.703125 27.09375 16.703125 20.515625 
Q 16.703125 13.921875 20.71875 10.15625 
Q 24.75 6.390625 31.78125 6.390625 
Q 38.8125 6.390625 42.859375 10.171875 
Q 46.921875 13.96875 46.921875 20.515625 
Q 46.921875 27.09375 42.890625 30.859375 
Q 38.875 34.625 31.78125 34.625 
z
M 21.921875 38.8125 
Q 15.578125 40.375 12.03125 44.71875 
Q 8.5 49.078125 8.5 55.328125 
Q 8.5 64.0625 14.71875 69.140625 
Q 20.953125 74.21875 31.78125 74.21875 
Q 42.671875 74.21875 48.875 69.140625 
Q 55.078125 64.0625 55.078125 55.328125 
Q 55.078125 49.078125 51.53125 44.71875 
Q 48 40.375 41.703125 38.8125 
Q 48.828125 37.15625 52.796875 32.3125 
Q 56.78125 27.484375 56.78125 20.515625 
Q 56.78125 9.90625 50.3125 4.234375 
Q 43.84375 -1.421875 31.78125 -1.421875 
Q 19.734375 -1.421875 13.25 4.234375 
Q 6.78125 9.90625 6.78125 20.515625 
Q 6.78125 27.484375 10.78125 32.3125 
Q 14.796875 37.15625 21.921875 38.8125 
z
M 18.3125 54.390625 
Q 18.3125 48.734375 21.84375 45.5625 
Q 25.390625 42.390625 31.78125 42.390625 
Q 38.140625 42.390625 41.71875 45.5625 
Q 45.3125 48.734375 45.3125 54.390625 
Q 45.3125 60.0625 41.71875 63.234375 
Q 38.140625 66.40625 31.78125 66.40625 
Q 25.390625 66.40625 21.84375 63.234375 
Q 18.3125 60.0625 18.3125 54.390625 
z
" id="DejaVuSans-38"/>
      </defs>
      <g transform="translate(24.56775 156.506744)scale(0.1 -0.1)">
       <use xlink:href="#DejaVuSans-38"/>
      </g>
     </g>
    </g>
    <g id="ytick_6">
     <g id="line2d_27">
      <path clip-path="url(#pd055361a9a)" d="M 37.93025 116.674196 
L 443.034703 116.674196 
" style="fill:none;stroke:#b0b0b0;stroke-linecap:square;stroke-width:0.8;"/>
     </g>
     <g id="line2d_28">
      <g>
       <use style="stroke:#000000;stroke-width:0.8;" x="37.93025" xlink:href="#m1dd536a1a8" y="116.674196"/>
      </g>
     </g>
     <g id="text_15">
      <!-- 10 -->
      <g transform="translate(18.20525 120.473414)scale(0.1 -0.1)">
       <use xlink:href="#DejaVuSans-31"/>
       <use x="63.623047" xlink:href="#DejaVuSans-30"/>
      </g>
     </g>
    </g>
    <g id="ytick_7">
     <g id="line2d_29">
      <path clip-path="url(#pd055361a9a)" d="M 37.93025 80.640866 
L 443.034703 80.640866 
" style="fill:none;stroke:#b0b0b0;stroke-linecap:square;stroke-width:0.8;"/>
     </g>
     <g id="line2d_30">
      <g>
       <use style="stroke:#000000;stroke-width:0.8;" x="37.93025" xlink:href="#m1dd536a1a8" y="80.640866"/>
      </g>
     </g>
     <g id="text_16">
      <!-- 12 -->
      <g transform="translate(18.20525 84.440085)scale(0.1 -0.1)">
       <use xlink:href="#DejaVuSans-31"/>
       <use x="63.623047" xlink:href="#DejaVuSans-32"/>
      </g>
     </g>
    </g>
    <g id="ytick_8">
     <g id="line2d_31">
      <path clip-path="url(#pd055361a9a)" d="M 37.93025 44.607537 
L 443.034703 44.607537 
" style="fill:none;stroke:#b0b0b0;stroke-linecap:square;stroke-width:0.8;"/>
     </g>
     <g id="line2d_32">
      <g>
       <use style="stroke:#000000;stroke-width:0.8;" x="37.93025" xlink:href="#m1dd536a1a8" y="44.607537"/>
      </g>
     </g>
     <g id="text_17">
      <!-- 14 -->
      <g transform="translate(18.20525 48.406755)scale(0.1 -0.1)">
       <use xlink:href="#DejaVuSans-31"/>
       <use x="63.623047" xlink:href="#DejaVuSans-34"/>
      </g>
     </g>
    </g>
    <g id="text_18">
     <!-- Emissions / mean emissions -->
     <defs>
      <path d="M 9.8125 72.90625 
L 55.90625 72.90625 
L 55.90625 64.59375 
L 19.671875 64.59375 
L 19.671875 43.015625 
L 54.390625 43.015625 
L 54.390625 34.71875 
L 19.671875 34.71875 
L 19.671875 8.296875 
L 56.78125 8.296875 
L 56.78125 0 
L 9.8125 0 
z
" id="DejaVuSans-45"/>
      <path d="M 52 44.1875 
Q 55.375 50.25 60.0625 53.125 
Q 64.75 56 71.09375 56 
Q 79.640625 56 84.28125 50.015625 
Q 88.921875 44.046875 88.921875 33.015625 
L 88.921875 0 
L 79.890625 0 
L 79.890625 32.71875 
Q 79.890625 40.578125 77.09375 44.375 
Q 74.3125 48.1875 68.609375 48.1875 
Q 61.625 48.1875 57.5625 43.546875 
Q 53.515625 38.921875 53.515625 30.90625 
L 53.515625 0 
L 44.484375 0 
L 44.484375 32.71875 
Q 44.484375 40.625 41.703125 44.40625 
Q 38.921875 48.1875 33.109375 48.1875 
Q 26.21875 48.1875 22.15625 43.53125 
Q 18.109375 38.875 18.109375 30.90625 
L 18.109375 0 
L 9.078125 0 
L 9.078125 54.6875 
L 18.109375 54.6875 
L 18.109375 46.1875 
Q 21.1875 51.21875 25.484375 53.609375 
Q 29.78125 56 35.6875 56 
Q 41.65625 56 45.828125 52.96875 
Q 50 49.953125 52 44.1875 
z
" id="DejaVuSans-6d"/>
      <path d="M 9.421875 54.6875 
L 18.40625 54.6875 
L 18.40625 0 
L 9.421875 0 
z
M 9.421875 75.984375 
L 18.40625 75.984375 
L 18.40625 64.59375 
L 9.421875 64.59375 
z
" id="DejaVuSans-69"/>
      <path d="M 44.28125 53.078125 
L 44.28125 44.578125 
Q 40.484375 46.53125 36.375 47.5 
Q 32.28125 48.484375 27.875 48.484375 
Q 21.1875 48.484375 17.84375 46.4375 
Q 14.5 44.390625 14.5 40.28125 
Q 14.5 37.15625 16.890625 35.375 
Q 19.28125 33.59375 26.515625 31.984375 
L 29.59375 31.296875 
Q 39.15625 29.25 43.1875 25.515625 
Q 47.21875 21.78125 47.21875 15.09375 
Q 47.21875 7.46875 41.1875 3.015625 
Q 35.15625 -1.421875 24.609375 -1.421875 
Q 20.21875 -1.421875 15.453125 -0.5625 
Q 10.6875 0.296875 5.421875 2 
L 5.421875 11.28125 
Q 10.40625 8.6875 15.234375 7.390625 
Q 20.0625 6.109375 24.8125 6.109375 
Q 31.15625 6.109375 34.5625 8.28125 
Q 37.984375 10.453125 37.984375 14.40625 
Q 37.984375 18.0625 35.515625 20.015625 
Q 33.0625 21.96875 24.703125 23.78125 
L 21.578125 24.515625 
Q 13.234375 26.265625 9.515625 29.90625 
Q 5.8125 33.546875 5.8125 39.890625 
Q 5.8125 47.609375 11.28125 51.796875 
Q 16.75 56 26.8125 56 
Q 31.78125 56 36.171875 55.265625 
Q 40.578125 54.546875 44.28125 53.078125 
z
" id="DejaVuSans-73"/>
      <path d="M 30.609375 48.390625 
Q 23.390625 48.390625 19.1875 42.75 
Q 14.984375 37.109375 14.984375 27.296875 
Q 14.984375 17.484375 19.15625 11.84375 
Q 23.34375 6.203125 30.609375 6.203125 
Q 37.796875 6.203125 41.984375 11.859375 
Q 46.1875 17.53125 46.1875 27.296875 
Q 46.1875 37.015625 41.984375 42.703125 
Q 37.796875 48.390625 30.609375 48.390625 
z
M 30.609375 56 
Q 42.328125 56 49.015625 48.375 
Q 55.71875 40.765625 55.71875 27.296875 
Q 55.71875 13.875 49.015625 6.21875 
Q 42.328125 -1.421875 30.609375 -1.421875 
Q 18.84375 -1.421875 12.171875 6.21875 
Q 5.515625 13.875 5.515625 27.296875 
Q 5.515625 40.765625 12.171875 48.375 
Q 18.84375 56 30.609375 56 
z
" id="DejaVuSans-6f"/>
      <path d="M 54.890625 33.015625 
L 54.890625 0 
L 45.90625 0 
L 45.90625 32.71875 
Q 45.90625 40.484375 42.875 44.328125 
Q 39.84375 48.1875 33.796875 48.1875 
Q 26.515625 48.1875 22.3125 43.546875 
Q 18.109375 38.921875 18.109375 30.90625 
L 18.109375 0 
L 9.078125 0 
L 9.078125 54.6875 
L 18.109375 54.6875 
L 18.109375 46.1875 
Q 21.34375 51.125 25.703125 53.5625 
Q 30.078125 56 35.796875 56 
Q 45.21875 56 50.046875 50.171875 
Q 54.890625 44.34375 54.890625 33.015625 
z
" id="DejaVuSans-6e"/>
      <path id="DejaVuSans-20"/>
      <path d="M 25.390625 72.90625 
L 33.6875 72.90625 
L 8.296875 -9.28125 
L 0 -9.28125 
z
" id="DejaVuSans-2f"/>
     </defs>
     <g transform="translate(12.125563 236.862713)rotate(-90)scale(0.1 -0.1)">
      <use xlink:href="#DejaVuSans-45"/>
      <use x="63.183594" xlink:href="#DejaVuSans-6d"/>
      <use x="160.595703" xlink:href="#DejaVuSans-69"/>
      <use x="188.378906" xlink:href="#DejaVuSans-73"/>
      <use x="240.478516" xlink:href="#DejaVuSans-73"/>
      <use x="292.578125" xlink:href="#DejaVuSans-69"/>
      <use x="320.361328" xlink:href="#DejaVuSans-6f"/>
      <use x="381.542969" xlink:href="#DejaVuSans-6e"/>
      <use x="444.921875" xlink:href="#DejaVuSans-73"/>
      <use x="497.021484" xlink:href="#DejaVuSans-20"/>
      <use x="528.808594" xlink:href="#DejaVuSans-2f"/>
      <use x="562.5" xlink:href="#DejaVuSans-20"/>
      <use x="594.287109" xlink:href="#DejaVuSans-6d"/>
      <use x="691.699219" xlink:href="#DejaVuSans-65"/>
      <use x="753.222656" xlink:href="#DejaVuSans-61"/>
      <use x="814.501953" xlink:href="#DejaVuSans-6e"/>
      <use x="877.880859" xlink:href="#DejaVuSans-20"/>
      <use x="909.667969" xlink:href="#DejaVuSans-65"/>
      <use x="971.191406" xlink:href="#DejaVuSans-6d"/>
      <use x="1068.603516" xlink:href="#DejaVuSans-69"/>
      <use x="1096.386719" xlink:href="#DejaVuSans-73"/>
      <use x="1148.486328" xlink:href="#DejaVuSans-73"/>
      <use x="1200.585938" xlink:href="#DejaVuSans-69"/>
      <use x="1228.369141" xlink:href="#DejaVuSans-6f"/>
      <use x="1289.550781" xlink:href="#DejaVuSans-6e"/>
      <use x="1352.929688" xlink:href="#DejaVuSans-73"/>
     </g>
    </g>
   </g>
   <g id="line2d_33">
    <path clip-path="url(#pd055361a9a)" d="M 37.93025 285.004885 
L 39.739906 285.483696 
L 41.743454 285.002553 
L 43.682371 283.905559 
L 45.685919 158.439168 
L 47.624836 283.648389 
L 49.628384 283.717316 
L 51.631932 282.122911 
L 53.57085 282.622852 
L 55.574397 285.025802 
L 57.513315 284.441047 
L 59.516863 285.579246 
L 63.330067 285.899193 
L 65.333614 293.372204 
L 67.272532 289.209577 
L 69.27608 284.571507 
L 71.214997 282.743708 
L 73.218545 280.282029 
L 75.222093 283.988015 
L 77.16101 282.933156 
L 79.164558 285.456978 
L 81.103475 286.187237 
L 83.107023 224.427689 
L 85.110571 286.552402 
L 86.920227 289.299167 
L 88.923775 296.840843 
L 90.862692 296.840843 
L 92.86624 294.63361 
L 94.805157 285.726498 
L 96.808705 285.053973 
L 98.812253 285.208815 
L 100.75117 287.336441 
L 102.754718 287.236986 
L 104.693636 286.091342 
L 106.697183 285.685259 
L 108.700731 286.283711 
L 110.575018 287.739945 
L 112.578566 295.752154 
L 114.517483 296.804573 
L 116.521031 294.279629 
L 118.459948 288.215759 
L 120.463496 283.95952 
L 122.467044 284.188578 
L 124.405961 285.341244 
L 126.409509 295.29352 
L 128.348427 286.303476 
L 130.351974 286.690536 
L 132.355522 286.626229 
L 134.165178 287.045806 
L 136.168726 287.272993 
L 138.107644 286.937602 
L 140.111191 286.860662 
L 142.050109 285.296007 
L 144.053657 285.72282 
L 146.057204 119.615423 
L 147.996122 209.703458 
L 149.99967 296.840843 
L 151.938587 296.840843 
L 153.942135 294.626681 
L 155.945683 286.577853 
L 157.755339 285.599634 
L 159.758887 285.70242 
L 161.697804 291.826319 
L 163.701352 289.574841 
L 165.640269 283.702058 
L 167.643817 283.001194 
L 169.647365 283.031955 
L 171.586282 282.589325 
L 173.58983 283.606769 
L 175.528747 36.387707 
L 177.532295 284.750181 
L 181.345499 285.063539 
L 183.349047 285.212313 
L 185.287964 291.914652 
L 187.291512 286.668971 
L 189.23043 283.474131 
L 193.237525 280.322892 
L 195.176443 283.17962 
L 197.17999 283.432758 
L 199.118908 284.112005 
L 201.122456 284.596893 
L 203.126004 292.65524 
L 205.00029 286.704589 
L 207.003838 284.625129 
L 208.942755 285.759088 
L 210.946303 285.439428 
L 212.885221 285.539058 
L 214.888768 284.368159 
L 216.892316 283.696463 
L 218.831234 280.55391 
L 220.834781 280.917588 
L 222.773699 284.164804 
L 224.777247 284.263959 
L 226.780795 284.075312 
L 228.590451 284.45173 
L 230.593999 286.455067 
L 232.532916 295.975578 
L 234.536464 282.469639 
L 236.475381 278.765829 
L 238.478929 277.360487 
L 240.482477 278.516721 
L 242.421394 277.632753 
L 244.424942 283.913929 
L 246.363859 282.866839 
L 248.367407 280.811705 
L 250.370955 282.352747 
L 252.180611 282.261679 
L 254.184159 292.719094 
L 256.123076 293.599812 
L 258.126624 282.503768 
L 260.065541 280.585162 
L 262.069089 277.020235 
L 264.072637 272.406112 
L 266.011554 277.719146 
L 268.015102 281.826373 
L 269.95402 278.987265 
L 271.957568 278.608616 
L 273.961115 280.391539 
L 275.770772 275.098073 
L 277.774319 284.667676 
L 279.713237 279.311154 
L 281.716785 284.628108 
L 283.655702 280.791808 
L 285.65925 275.760707 
L 287.662798 276.735742 
L 289.601715 285.709902 
L 291.605263 292.400019 
L 293.54418 293.813016 
L 295.547728 286.44613 
L 297.551276 295.045552 
L 299.425563 294.893217 
L 301.42911 296.533295 
L 303.368028 288.151316 
L 305.371576 283.027357 
L 307.310493 286.674543 
L 309.314041 284.350609 
L 311.317589 278.686135 
L 313.256506 282.386226 
L 315.260054 285.173974 
L 317.198971 294.890817 
L 319.202519 293.426409 
L 321.206067 287.93219 
L 323.015723 293.743368 
L 325.019271 288.31635 
L 326.958188 285.181374 
L 328.961736 284.111254 
L 330.900653 281.899857 
L 332.904201 280.192011 
L 334.907749 279.987821 
L 336.846666 285.574926 
L 338.850214 284.353264 
L 340.789131 281.020337 
L 342.792679 282.885272 
L 344.796227 280.420098 
L 346.605883 286.063384 
L 348.609431 283.438004 
L 350.548349 289.439043 
L 352.551896 290.614571 
L 354.490814 284.483273 
L 356.494362 276.285397 
L 358.497909 279.476278 
L 360.436827 280.678179 
L 362.440375 282.629209 
L 364.379292 281.096291 
L 366.38284 283.402579 
L 368.386388 292.806262 
L 370.196044 283.163296 
L 372.199592 283.225848 
L 374.138509 278.674484 
L 376.142057 281.093737 
L 378.080974 285.290118 
L 380.084522 283.39306 
L 382.08807 281.995851 
L 384.026987 283.345312 
L 386.030535 285.281477 
L 387.969452 283.352673 
L 389.973 280.468863 
L 391.976548 281.038496 
L 393.850835 275.534365 
L 395.854383 279.258165 
L 397.7933 286.621208 
L 399.796848 281.174234 
L 401.735765 279.099689 
L 403.739313 277.603727 
L 405.742861 276.566782 
L 407.681778 280.942377 
L 409.685326 289.636493 
L 411.624243 291.800889 
L 413.627791 293.404131 
L 415.631339 292.0779 
L 417.440995 288.513416 
L 419.444543 288.798557 
L 421.38346 294.133559 
L 423.387008 286.913507 
L 425.325926 280.670216 
L 427.329473 277.932063 
L 429.333021 277.878182 
L 431.271939 279.287933 
L 433.275486 282.696107 
L 435.214404 285.15367 
L 437.217952 289.466691 
L 439.221499 290.898546 
L 441.031156 291.19941 
L 443.034703 275.761808 
L 443.034703 275.761808 
" style="fill:none;stroke:#1f77b4;stroke-linecap:square;stroke-width:1.5;"/>
   </g>
   <g id="line2d_34">
    <path clip-path="url(#pd055361a9a)" d="M 37.93025 281.406477 
L 39.739906 283.195382 
L 41.743454 280.038615 
L 43.682371 274.152683 
L 45.685919 269.635798 
L 47.624836 273.452041 
L 49.628384 274.136366 
L 51.631932 268.39093 
L 53.57085 270.609715 
L 55.574397 277.605295 
L 57.513315 278.662747 
L 59.516863 282.569397 
L 63.330067 283.433307 
L 65.333614 292.473097 
L 67.272532 288.044455 
L 69.27608 276.598433 
L 73.218545 257.609347 
L 75.222093 270.640553 
L 77.16101 270.346944 
L 79.164558 281.741929 
L 81.103475 283.928997 
L 83.107023 282.807554 
L 85.110571 285.311228 
L 86.920227 287.300255 
L 88.923775 296.840843 
L 90.862692 296.840843 
L 92.86624 293.747784 
L 94.805157 280.182521 
L 96.808705 278.049552 
L 98.812253 279.409206 
L 100.75117 282.763144 
L 102.754718 279.808118 
L 104.693636 283.616137 
L 106.697183 282.603441 
L 108.700731 284.658415 
L 110.575018 286.741482 
L 112.578566 295.420868 
L 114.517483 296.810274 
L 116.521031 293.82364 
L 118.459948 282.459677 
L 120.463496 275.48142 
L 122.467044 275.359886 
L 124.405961 279.559959 
L 126.409509 294.271959 
L 128.348427 284.950826 
L 130.351974 286.247191 
L 132.355522 285.936229 
L 134.165178 286.839465 
L 136.168726 286.78207 
L 138.107644 286.104592 
L 140.111191 284.225682 
L 142.050109 281.62515 
L 144.053657 283.765607 
L 146.057204 284.858306 
L 147.996122 281.54529 
L 149.99967 296.840835 
L 151.938587 296.840843 
L 153.942135 294.086667 
L 155.945683 286.354309 
L 157.755339 284.695108 
L 159.758887 285.241486 
L 161.697804 290.89498 
L 163.701352 286.730751 
L 165.640269 280.019773 
L 167.643817 279.464826 
L 169.647365 279.753195 
L 171.586282 277.232107 
L 173.58983 281.032112 
L 175.528747 282.789199 
L 177.532295 284.12833 
L 179.535843 284.842196 
L 181.345499 285.108356 
L 183.349047 284.534402 
L 185.287964 291.661301 
L 187.291512 283.301647 
L 189.23043 276.056767 
L 191.233977 273.023345 
L 193.237525 266.630241 
L 195.176443 276.728303 
L 197.17999 278.257312 
L 199.118908 280.503061 
L 201.122456 282.1152 
L 203.126004 292.761492 
L 205.00029 282.066293 
L 207.003838 279.349367 
L 208.942755 279.551762 
L 210.946303 276.598001 
L 212.885221 280.037541 
L 214.888768 286.822859 
L 216.892316 284.640758 
L 218.831234 273.385371 
L 220.834781 271.11716 
L 222.773699 275.147343 
L 224.777247 275.024379 
L 226.780795 274.541841 
L 230.593999 279.582665 
L 232.532916 296.684762 
L 234.536464 277.752623 
L 236.475381 261.600683 
L 238.478929 263.93836 
L 240.482477 267.139999 
L 242.421394 260.315715 
L 244.424942 268.803369 
L 246.363859 273.138655 
L 248.367407 271.780041 
L 250.370955 269.375823 
L 252.180611 270.103406 
L 254.184159 292.660424 
L 256.123076 293.398201 
L 258.126624 268.578164 
L 260.065541 268.533949 
L 262.069089 265.781086 
L 264.072637 260.094899 
L 266.011554 267.550046 
L 268.015102 280.577274 
L 269.95402 259.997545 
L 271.957568 263.885506 
L 273.961115 269.876382 
L 275.770772 271.375377 
L 277.774319 294.977187 
L 279.713237 273.985222 
L 281.716785 282.540758 
L 283.655702 277.591027 
L 285.65925 271.465864 
L 287.662798 278.615023 
L 289.601715 289.418291 
L 291.605263 296.132936 
L 293.54418 296.311168 
L 295.547728 295.255793 
L 297.551276 296.368576 
L 299.425563 296.507291 
L 301.42911 296.775146 
L 303.368028 289.723718 
L 305.371576 275.1836 
L 307.310493 289.982228 
L 309.314041 288.251698 
L 311.317589 280.096689 
L 313.256506 286.213826 
L 315.260054 291.885249 
L 317.198971 296.468203 
L 319.202519 296.214355 
L 321.206067 295.180201 
L 323.015723 296.240894 
L 325.019271 290.286274 
L 326.958188 287.977694 
L 328.961736 286.111934 
L 330.900653 281.144054 
L 332.904201 278.059887 
L 334.907749 281.544375 
L 336.846666 285.373478 
L 338.850214 279.79862 
L 340.789131 271.668843 
L 342.792679 278.249059 
L 344.796227 284.130004 
L 348.609431 285.787252 
L 350.548349 290.846781 
L 352.551896 295.649694 
L 354.490814 286.213623 
L 356.494362 282.009859 
L 358.497909 285.675811 
L 360.436827 287.424622 
L 362.440375 282.5675 
L 364.379292 285.658209 
L 366.38284 285.227559 
L 368.386388 293.351714 
L 370.196044 279.673885 
L 372.199592 273.828656 
L 374.138509 265.893369 
L 376.142057 271.175319 
L 378.080974 281.201744 
L 380.084522 276.546172 
L 382.08807 276.914803 
L 384.026987 282.040008 
L 386.030535 279.052576 
L 387.969452 278.081459 
L 389.973 268.887837 
L 391.976548 276.069425 
L 393.850835 266.973868 
L 395.854383 277.347586 
L 397.7933 295.39531 
L 399.796848 267.100956 
L 401.735765 274.444029 
L 403.739313 274.159933 
L 405.742861 276.12879 
L 407.681778 278.617239 
L 409.685326 295.714492 
L 413.627791 296.124976 
L 415.631339 295.913735 
L 417.440995 295.421225 
L 419.444543 295.52347 
L 421.38346 296.340604 
L 423.387008 286.932328 
L 425.325926 281.1642 
L 427.329473 278.421402 
L 429.333021 277.278104 
L 431.271939 280.659733 
L 433.275486 275.341951 
L 435.214404 284.94768 
L 437.217952 292.753998 
L 439.221499 295.881661 
L 441.031156 291.100926 
L 443.034703 269.584269 
L 443.034703 269.584269 
" style="fill:none;stroke:#ff7f0e;stroke-linecap:square;stroke-width:1.5;"/>
   </g>
   <g id="line2d_35">
    <path clip-path="url(#pd055361a9a)" d="M 37.93025 281.616844 
L 39.739906 282.233701 
L 41.743454 281.614331 
L 43.682371 280.201626 
L 45.685919 279.045678 
L 47.624836 279.872628 
L 49.628384 279.960382 
L 51.631932 277.909399 
L 53.57085 278.553006 
L 55.574397 281.64306 
L 57.513315 280.891554 
L 59.516863 282.355518 
L 63.330067 282.765664 
L 65.333614 292.380192 
L 67.272532 287.02392 
L 69.27608 281.058928 
L 71.214997 278.707625 
L 73.218545 275.54156 
L 75.222093 280.30863 
L 77.16101 278.952285 
L 79.164558 282.198015 
L 81.103475 283.137729 
L 83.107023 282.126666 
L 85.110571 283.621699 
L 86.920227 287.140578 
L 88.923775 296.840843 
L 90.862692 296.840843 
L 92.86624 294.002814 
L 94.805157 282.543895 
L 96.808705 281.679348 
L 98.812253 281.879159 
L 100.75117 284.615654 
L 102.754718 284.487019 
L 104.693636 283.015801 
L 106.697183 282.491123 
L 108.700731 283.262655 
L 110.575018 285.134762 
L 112.578566 295.440819 
L 114.517483 296.794071 
L 116.521031 293.545909 
L 118.459948 285.746537 
L 120.463496 280.272087 
L 122.467044 280.566896 
L 124.405961 282.04952 
L 126.409509 294.85064 
L 128.348427 283.287553 
L 130.351974 283.783667 
L 132.355522 283.702378 
L 134.165178 284.241504 
L 136.168726 284.533012 
L 138.107644 284.102263 
L 140.111191 284.003508 
L 142.050109 281.991104 
L 146.057204 283.043929 
L 147.996122 282.698079 
L 149.99967 296.840843 
L 151.938587 296.840843 
L 153.942135 293.991928 
L 155.945683 283.638809 
L 157.755339 282.381775 
L 159.758887 282.514382 
L 161.697804 290.39135 
L 163.701352 287.495112 
L 165.640269 279.940624 
L 167.643817 279.03959 
L 169.647365 279.078163 
L 171.586282 278.508775 
L 173.58983 279.816988 
L 175.528747 280.783072 
L 177.532295 281.288193 
L 179.535843 281.573837 
L 183.349047 281.884289 
L 185.287964 290.506158 
L 187.291512 283.752405 
L 189.23043 279.662939 
L 193.237525 275.593365 
L 195.176443 279.277433 
L 197.17999 279.59547 
L 199.118908 280.463927 
L 201.122456 281.083666 
L 203.126004 291.456665 
L 205.00029 283.799187 
L 207.003838 281.148724 
L 208.942755 282.587174 
L 210.946303 282.17649 
L 212.885221 282.304313 
L 214.888768 280.796464 
L 216.892316 279.933557 
L 218.831234 275.890258 
L 220.834781 276.362423 
L 222.773699 280.538906 
L 224.777247 280.666815 
L 226.780795 280.057732 
L 228.590451 280.580938 
L 230.593999 283.484573 
L 232.532916 295.727936 
L 234.536464 278.359217 
L 236.475381 273.595757 
L 238.478929 271.789708 
L 240.482477 273.281138 
L 242.421394 272.131082 
L 244.424942 280.216057 
L 246.363859 278.856012 
L 248.367407 276.211186 
L 250.370955 278.200427 
L 252.180611 278.087444 
L 254.184159 291.539185 
L 256.123076 292.672344 
L 258.126624 278.402513 
L 260.065541 275.934465 
L 262.069089 271.35071 
L 264.072637 265.416111 
L 266.011554 272.250049 
L 268.015102 277.533767 
L 269.95402 273.87957 
L 271.957568 273.39415 
L 273.961115 275.686571 
L 275.770772 268.876261 
L 277.774319 281.184557 
L 279.713237 274.296935 
L 281.716785 281.135183 
L 283.655702 276.201608 
L 285.65925 269.731669 
L 287.662798 270.987104 
L 289.601715 282.525825 
L 291.605263 291.12956 
L 293.54418 292.946128 
L 295.547728 283.473122 
L 297.551276 294.532354 
L 299.425563 294.335671 
L 301.42911 296.445186 
L 303.368028 285.66739 
L 305.371576 279.07843 
L 307.310493 283.764626 
L 309.314041 280.777401 
L 311.317589 273.494659 
L 313.256506 278.251315 
L 315.260054 281.836374 
L 317.198971 294.334147 
L 319.202519 292.4505 
L 321.206067 285.385615 
L 323.015723 292.857754 
L 325.019271 285.879842 
L 326.958188 281.846925 
L 328.961736 280.471354 
L 330.900653 277.628282 
L 332.904201 275.424153 
L 334.907749 275.16801 
L 336.846666 282.354395 
L 338.850214 280.782291 
L 340.789131 276.49545 
L 342.792679 278.894164 
L 344.796227 275.724399 
L 346.605883 282.980865 
L 348.609431 279.604735 
L 350.548349 287.32477 
L 352.551896 288.834929 
L 354.490814 280.949147 
L 356.494362 270.408582 
L 358.497909 274.510815 
L 360.436827 276.05526 
L 362.440375 278.563261 
L 364.379292 276.593729 
L 366.38284 279.559657 
L 368.386388 291.653099 
L 370.196044 279.250281 
L 372.199592 279.332499 
L 374.138509 273.474713 
L 376.142057 276.589999 
L 378.080974 281.987968 
L 380.084522 279.548002 
L 382.08807 277.750775 
L 384.026987 279.484272 
L 386.030535 281.974823 
L 387.969452 279.495758 
L 389.973 275.786074 
L 391.976548 276.518512 
L 393.850835 269.441731 
L 395.854383 274.229414 
L 397.7933 283.698345 
L 399.796848 276.693198 
L 401.735765 274.025434 
L 403.739313 272.102392 
L 405.742861 270.769001 
L 407.681778 276.397902 
L 409.685326 287.575299 
L 411.624243 290.359484 
L 413.627791 292.422032 
L 415.631339 290.715699 
L 417.440995 286.132344 
L 419.444543 286.49829 
L 421.38346 293.359643 
L 423.387008 284.074001 
L 425.325926 276.045075 
L 427.329473 272.523297 
L 429.333021 272.459683 
L 431.271939 274.266338 
L 433.275486 278.652918 
L 435.214404 281.812289 
L 437.217952 287.358679 
L 439.221499 289.19915 
L 441.031156 289.586681 
L 443.034703 269.731228 
L 443.034703 269.731228 
" style="fill:none;stroke:#2ca02c;stroke-linecap:square;stroke-width:1.5;"/>
   </g>
   <g id="patch_3">
    <path d="M 37.93025 309.8635 
L 37.93025 23.36505 
" style="fill:none;stroke:#000000;stroke-linecap:square;stroke-linejoin:miter;stroke-width:0.8;"/>
   </g>
   <g id="patch_4">
    <path d="M 443.034703 309.8635 
L 443.034703 23.36505 
" style="fill:none;stroke:#000000;stroke-linecap:square;stroke-linejoin:miter;stroke-width:0.8;"/>
   </g>
   <g id="patch_5">
    <path d="M 37.93025 309.8635 
L 443.034703 309.8635 
" style="fill:none;stroke:#000000;stroke-linecap:square;stroke-linejoin:miter;stroke-width:0.8;"/>
   </g>
   <g id="patch_6">
    <path d="M 37.93025 23.36505 
L 443.034703 23.36505 
" style="fill:none;stroke:#000000;stroke-linecap:square;stroke-linejoin:miter;stroke-width:0.8;"/>
   </g>
   <g id="text_19">
    <!-- Average monthly normalized emissions -->
    <defs>
     <path d="M 34.1875 63.1875 
L 20.796875 26.90625 
L 47.609375 26.90625 
z
M 28.609375 72.90625 
L 39.796875 72.90625 
L 67.578125 0 
L 57.328125 0 
L 50.6875 18.703125 
L 17.828125 18.703125 
L 11.1875 0 
L 0.78125 0 
z
" id="DejaVuSans-41"/>
     <path d="M 2.984375 54.6875 
L 12.5 54.6875 
L 29.59375 8.796875 
L 46.6875 54.6875 
L 56.203125 54.6875 
L 35.6875 0 
L 23.484375 0 
z
" id="DejaVuSans-76"/>
     <path d="M 41.109375 46.296875 
Q 39.59375 47.171875 37.8125 47.578125 
Q 36.03125 48 33.890625 48 
Q 26.265625 48 22.1875 43.046875 
Q 18.109375 38.09375 18.109375 28.8125 
L 18.109375 0 
L 9.078125 0 
L 9.078125 54.6875 
L 18.109375 54.6875 
L 18.109375 46.1875 
Q 20.953125 51.171875 25.484375 53.578125 
Q 30.03125 56 36.53125 56 
Q 37.453125 56 38.578125 55.875 
Q 39.703125 55.765625 41.0625 55.515625 
z
" id="DejaVuSans-72"/>
     <path d="M 45.40625 27.984375 
Q 45.40625 37.75 41.375 43.109375 
Q 37.359375 48.484375 30.078125 48.484375 
Q 22.859375 48.484375 18.828125 43.109375 
Q 14.796875 37.75 14.796875 27.984375 
Q 14.796875 18.265625 18.828125 12.890625 
Q 22.859375 7.515625 30.078125 7.515625 
Q 37.359375 7.515625 41.375 12.890625 
Q 45.40625 18.265625 45.40625 27.984375 
z
M 54.390625 6.78125 
Q 54.390625 -7.171875 48.1875 -13.984375 
Q 42 -20.796875 29.203125 -20.796875 
Q 24.46875 -20.796875 20.265625 -20.09375 
Q 16.0625 -19.390625 12.109375 -17.921875 
L 12.109375 -9.1875 
Q 16.0625 -11.328125 19.921875 -12.34375 
Q 23.78125 -13.375 27.78125 -13.375 
Q 36.625 -13.375 41.015625 -8.765625 
Q 45.40625 -4.15625 45.40625 5.171875 
L 45.40625 9.625 
Q 42.625 4.78125 38.28125 2.390625 
Q 33.9375 0 27.875 0 
Q 17.828125 0 11.671875 7.65625 
Q 5.515625 15.328125 5.515625 27.984375 
Q 5.515625 40.671875 11.671875 48.328125 
Q 17.828125 56 27.875 56 
Q 33.9375 56 38.28125 53.609375 
Q 42.625 51.21875 45.40625 46.390625 
L 45.40625 54.6875 
L 54.390625 54.6875 
z
" id="DejaVuSans-67"/>
     <path d="M 54.890625 33.015625 
L 54.890625 0 
L 45.90625 0 
L 45.90625 32.71875 
Q 45.90625 40.484375 42.875 44.328125 
Q 39.84375 48.1875 33.796875 48.1875 
Q 26.515625 48.1875 22.3125 43.546875 
Q 18.109375 38.921875 18.109375 30.90625 
L 18.109375 0 
L 9.078125 0 
L 9.078125 75.984375 
L 18.109375 75.984375 
L 18.109375 46.1875 
Q 21.34375 51.125 25.703125 53.5625 
Q 30.078125 56 35.796875 56 
Q 45.21875 56 50.046875 50.171875 
Q 54.890625 44.34375 54.890625 33.015625 
z
" id="DejaVuSans-68"/>
     <path d="M 9.421875 75.984375 
L 18.40625 75.984375 
L 18.40625 0 
L 9.421875 0 
z
" id="DejaVuSans-6c"/>
     <path d="M 32.171875 -5.078125 
Q 28.375 -14.84375 24.75 -17.8125 
Q 21.140625 -20.796875 15.09375 -20.796875 
L 7.90625 -20.796875 
L 7.90625 -13.28125 
L 13.1875 -13.28125 
Q 16.890625 -13.28125 18.9375 -11.515625 
Q 21 -9.765625 23.484375 -3.21875 
L 25.09375 0.875 
L 2.984375 54.6875 
L 12.5 54.6875 
L 29.59375 11.921875 
L 46.6875 54.6875 
L 56.203125 54.6875 
z
" id="DejaVuSans-79"/>
     <path d="M 5.515625 54.6875 
L 48.1875 54.6875 
L 48.1875 46.484375 
L 14.40625 7.171875 
L 48.1875 7.171875 
L 48.1875 0 
L 4.296875 0 
L 4.296875 8.203125 
L 38.09375 47.515625 
L 5.515625 47.515625 
z
" id="DejaVuSans-7a"/>
     <path d="M 45.40625 46.390625 
L 45.40625 75.984375 
L 54.390625 75.984375 
L 54.390625 0 
L 45.40625 0 
L 45.40625 8.203125 
Q 42.578125 3.328125 38.25 0.953125 
Q 33.9375 -1.421875 27.875 -1.421875 
Q 17.96875 -1.421875 11.734375 6.484375 
Q 5.515625 14.40625 5.515625 27.296875 
Q 5.515625 40.1875 11.734375 48.09375 
Q 17.96875 56 27.875 56 
Q 33.9375 56 38.25 53.625 
Q 42.578125 51.265625 45.40625 46.390625 
z
M 14.796875 27.296875 
Q 14.796875 17.390625 18.875 11.75 
Q 22.953125 6.109375 30.078125 6.109375 
Q 37.203125 6.109375 41.296875 11.75 
Q 45.40625 17.390625 45.40625 27.296875 
Q 45.40625 37.203125 41.296875 42.84375 
Q 37.203125 48.484375 30.078125 48.484375 
Q 22.953125 48.484375 18.875 42.84375 
Q 14.796875 37.203125 14.796875 27.296875 
z
" id="DejaVuSans-64"/>
    </defs>
    <g transform="translate(121.918727 17.36505)scale(0.12 -0.12)">
     <use xlink:href="#DejaVuSans-41"/>
     <use x="68.330078" xlink:href="#DejaVuSans-76"/>
     <use x="127.509766" xlink:href="#DejaVuSans-65"/>
     <use x="189.033203" xlink:href="#DejaVuSans-72"/>
     <use x="230.146484" xlink:href="#DejaVuSans-61"/>
     <use x="291.425781" xlink:href="#DejaVuSans-67"/>
     <use x="354.902344" xlink:href="#DejaVuSans-65"/>
     <use x="416.425781" xlink:href="#DejaVuSans-20"/>
     <use x="448.212891" xlink:href="#DejaVuSans-6d"/>
     <use x="545.625" xlink:href="#DejaVuSans-6f"/>
     <use x="606.806641" xlink:href="#DejaVuSans-6e"/>
     <use x="670.185547" xlink:href="#DejaVuSans-74"/>
     <use x="709.394531" xlink:href="#DejaVuSans-68"/>
     <use x="772.773438" xlink:href="#DejaVuSans-6c"/>
     <use x="800.556641" xlink:href="#DejaVuSans-79"/>
     <use x="859.736328" xlink:href="#DejaVuSans-20"/>
     <use x="891.523438" xlink:href="#DejaVuSans-6e"/>
     <use x="954.902344" xlink:href="#DejaVuSans-6f"/>
     <use x="1016.083984" xlink:href="#DejaVuSans-72"/>
     <use x="1057.181641" xlink:href="#DejaVuSans-6d"/>
     <use x="1154.59375" xlink:href="#DejaVuSans-61"/>
     <use x="1215.873047" xlink:href="#DejaVuSans-6c"/>
     <use x="1243.65625" xlink:href="#DejaVuSans-69"/>
     <use x="1271.439453" xlink:href="#DejaVuSans-7a"/>
     <use x="1323.929688" xlink:href="#DejaVuSans-65"/>
     <use x="1385.453125" xlink:href="#DejaVuSans-64"/>
     <use x="1448.929688" xlink:href="#DejaVuSans-20"/>
     <use x="1480.716797" xlink:href="#DejaVuSans-65"/>
     <use x="1542.240234" xlink:href="#DejaVuSans-6d"/>
     <use x="1639.652344" xlink:href="#DejaVuSans-69"/>
     <use x="1667.435547" xlink:href="#DejaVuSans-73"/>
     <use x="1719.535156" xlink:href="#DejaVuSans-73"/>
     <use x="1771.634766" xlink:href="#DejaVuSans-69"/>
     <use x="1799.417969" xlink:href="#DejaVuSans-6f"/>
     <use x="1860.599609" xlink:href="#DejaVuSans-6e"/>
     <use x="1923.978516" xlink:href="#DejaVuSans-73"/>
    </g>
   </g>
   <g id="legend_1">
    <g id="patch_7">
     <path d="M 382.762828 75.399425 
L 436.034703 75.399425 
Q 438.034703 75.399425 438.034703 73.399425 
L 438.034703 30.36505 
Q 438.034703 28.36505 436.034703 28.36505 
L 382.762828 28.36505 
Q 380.762828 28.36505 380.762828 30.36505 
L 380.762828 73.399425 
Q 380.762828 75.399425 382.762828 75.399425 
z
" style="fill:#ffffff;opacity:0.8;stroke:#cccccc;stroke-linejoin:miter;"/>
    </g>
    <g id="line2d_36">
     <path d="M 384.762828 36.463488 
L 404.762828 36.463488 
" style="fill:none;stroke:#1f77b4;stroke-linecap:square;stroke-width:1.5;"/>
    </g>
    <g id="line2d_37"/>
    <g id="text_20">
     <!-- SOx -->
     <defs>
      <path d="M 53.515625 70.515625 
L 53.515625 60.890625 
Q 47.90625 63.578125 42.921875 64.890625 
Q 37.9375 66.21875 33.296875 66.21875 
Q 25.25 66.21875 20.875 63.09375 
Q 16.5 59.96875 16.5 54.203125 
Q 16.5 49.359375 19.40625 46.890625 
Q 22.3125 44.4375 30.421875 42.921875 
L 36.375 41.703125 
Q 47.40625 39.59375 52.65625 34.296875 
Q 57.90625 29 57.90625 20.125 
Q 57.90625 9.515625 50.796875 4.046875 
Q 43.703125 -1.421875 29.984375 -1.421875 
Q 24.8125 -1.421875 18.96875 -0.25 
Q 13.140625 0.921875 6.890625 3.21875 
L 6.890625 13.375 
Q 12.890625 10.015625 18.65625 8.296875 
Q 24.421875 6.59375 29.984375 6.59375 
Q 38.421875 6.59375 43.015625 9.90625 
Q 47.609375 13.234375 47.609375 19.390625 
Q 47.609375 24.75 44.3125 27.78125 
Q 41.015625 30.8125 33.5 32.328125 
L 27.484375 33.5 
Q 16.453125 35.6875 11.515625 40.375 
Q 6.59375 45.0625 6.59375 53.421875 
Q 6.59375 63.09375 13.40625 68.65625 
Q 20.21875 74.21875 32.171875 74.21875 
Q 37.3125 74.21875 42.625 73.28125 
Q 47.953125 72.359375 53.515625 70.515625 
z
" id="DejaVuSans-53"/>
      <path d="M 39.40625 66.21875 
Q 28.65625 66.21875 22.328125 58.203125 
Q 16.015625 50.203125 16.015625 36.375 
Q 16.015625 22.609375 22.328125 14.59375 
Q 28.65625 6.59375 39.40625 6.59375 
Q 50.140625 6.59375 56.421875 14.59375 
Q 62.703125 22.609375 62.703125 36.375 
Q 62.703125 50.203125 56.421875 58.203125 
Q 50.140625 66.21875 39.40625 66.21875 
z
M 39.40625 74.21875 
Q 54.734375 74.21875 63.90625 63.9375 
Q 73.09375 53.65625 73.09375 36.375 
Q 73.09375 19.140625 63.90625 8.859375 
Q 54.734375 -1.421875 39.40625 -1.421875 
Q 24.03125 -1.421875 14.8125 8.828125 
Q 5.609375 19.09375 5.609375 36.375 
Q 5.609375 53.65625 14.8125 63.9375 
Q 24.03125 74.21875 39.40625 74.21875 
z
" id="DejaVuSans-4f"/>
      <path d="M 54.890625 54.6875 
L 35.109375 28.078125 
L 55.90625 0 
L 45.3125 0 
L 29.390625 21.484375 
L 13.484375 0 
L 2.875 0 
L 24.125 28.609375 
L 4.6875 54.6875 
L 15.28125 54.6875 
L 29.78125 35.203125 
L 44.28125 54.6875 
z
" id="DejaVuSans-78"/>
     </defs>
     <g transform="translate(412.762828 39.963488)scale(0.1 -0.1)">
      <use xlink:href="#DejaVuSans-53"/>
      <use x="63.476562" xlink:href="#DejaVuSans-4f"/>
      <use x="142.1875" xlink:href="#DejaVuSans-78"/>
     </g>
    </g>
    <g id="line2d_38">
     <path d="M 384.762828 51.141613 
L 404.762828 51.141613 
" style="fill:none;stroke:#ff7f0e;stroke-linecap:square;stroke-width:1.5;"/>
    </g>
    <g id="line2d_39"/>
    <g id="text_21">
     <!-- NOx -->
     <defs>
      <path d="M 9.8125 72.90625 
L 23.09375 72.90625 
L 55.421875 11.921875 
L 55.421875 72.90625 
L 64.984375 72.90625 
L 64.984375 0 
L 51.703125 0 
L 19.390625 60.984375 
L 19.390625 0 
L 9.8125 0 
z
" id="DejaVuSans-4e"/>
     </defs>
     <g transform="translate(412.762828 54.641613)scale(0.1 -0.1)">
      <use xlink:href="#DejaVuSans-4e"/>
      <use x="74.804688" xlink:href="#DejaVuSans-4f"/>
      <use x="153.515625" xlink:href="#DejaVuSans-78"/>
     </g>
    </g>
    <g id="line2d_40">
     <path d="M 384.762828 65.819738 
L 404.762828 65.819738 
" style="fill:none;stroke:#2ca02c;stroke-linecap:square;stroke-width:1.5;"/>
    </g>
    <g id="line2d_41"/>
    <g id="text_22">
     <!-- CO2 -->
     <defs>
      <path d="M 64.40625 67.28125 
L 64.40625 56.890625 
Q 59.421875 61.53125 53.78125 63.8125 
Q 48.140625 66.109375 41.796875 66.109375 
Q 29.296875 66.109375 22.65625 58.46875 
Q 16.015625 50.828125 16.015625 36.375 
Q 16.015625 21.96875 22.65625 14.328125 
Q 29.296875 6.6875 41.796875 6.6875 
Q 48.140625 6.6875 53.78125 8.984375 
Q 59.421875 11.28125 64.40625 15.921875 
L 64.40625 5.609375 
Q 59.234375 2.09375 53.4375 0.328125 
Q 47.65625 -1.421875 41.21875 -1.421875 
Q 24.65625 -1.421875 15.125 8.703125 
Q 5.609375 18.84375 5.609375 36.375 
Q 5.609375 53.953125 15.125 64.078125 
Q 24.65625 74.21875 41.21875 74.21875 
Q 47.75 74.21875 53.53125 72.484375 
Q 59.328125 70.75 64.40625 67.28125 
z
" id="DejaVuSans-43"/>
     </defs>
     <g transform="translate(412.762828 69.319738)scale(0.1 -0.1)">
      <use xlink:href="#DejaVuSans-43"/>
      <use x="69.824219" xlink:href="#DejaVuSans-4f"/>
      <use x="148.535156" xlink:href="#DejaVuSans-32"/>
     </g>
    </g>
   </g>
  </g>
 </g>
 <defs>
  <clipPath id="pd055361a9a">
   <rect height="286.49845" width="405.104453" x="37.93025" y="23.36505"/>
  </clipPath>
 </defs>
</svg>
