<?xml version="1.0" encoding="utf-8" standalone="no"?>
<!DOCTYPE svg PUBLIC "-//W3C//DTD SVG 1.1//EN"
  "http://www.w3.org/Graphics/SVG/1.1/DTD/svg11.dtd">
<!-- Created with matplotlib (http://matplotlib.org/) -->
<svg height="345.6pt" version="1.1" viewBox="0 0 460.8 345.6" width="460.8pt" xmlns="http://www.w3.org/2000/svg" xmlns:xlink="http://www.w3.org/1999/xlink">
 <defs>
  <style type="text/css">
*{stroke-linecap:butt;stroke-linejoin:round;}
  </style>
 </defs>
 <g id="figure_1">
  <g id="patch_1">
   <path d="M 0 345.6 
L 460.8 345.6 
L 460.8 0 
L 0 0 
z
" style="fill:none;"/>
  </g>
  <g id="axes_1">
   <g id="patch_2">
    <path d="M 29.25025 108.304533 
L 447.48 108.304533 
L 447.48 23.36505 
L 29.25025 23.36505 
z
" style="fill:none;"/>
   </g>
   <g id="matplotlib.axis_1">
    <g id="xtick_1">
     <g id="line2d_1">
      <path clip-path="url(#p30a1cda97b)" d="M 75.957465 108.304533 
L 75.957465 23.36505 
" style="fill:none;stroke:#b0b0b0;stroke-linecap:square;stroke-width:0.8;"/>
     </g>
     <g id="line2d_2">
      <defs>
       <path d="M 0 0 
L 0 3.5 
" id="md6c74eff80" style="stroke:#000000;stroke-width:0.8;"/>
      </defs>
      <g>
       <use style="stroke:#000000;stroke-width:0.8;" x="75.957465" xlink:href="#md6c74eff80" y="108.304533"/>
      </g>
     </g>
    </g>
    <g id="xtick_2">
     <g id="line2d_3">
      <path clip-path="url(#p30a1cda97b)" d="M 124.733143 108.304533 
L 124.733143 23.36505 
" style="fill:none;stroke:#b0b0b0;stroke-linecap:square;stroke-width:0.8;"/>
     </g>
     <g id="line2d_4">
      <g>
       <use style="stroke:#000000;stroke-width:0.8;" x="124.733143" xlink:href="#md6c74eff80" y="108.304533"/>
      </g>
     </g>
    </g>
    <g id="xtick_3">
     <g id="line2d_5">
      <path clip-path="url(#p30a1cda97b)" d="M 173.442096 108.304533 
L 173.442096 23.36505 
" style="fill:none;stroke:#b0b0b0;stroke-linecap:square;stroke-width:0.8;"/>
     </g>
     <g id="line2d_6">
      <g>
       <use style="stroke:#000000;stroke-width:0.8;" x="173.442096" xlink:href="#md6c74eff80" y="108.304533"/>
      </g>
     </g>
    </g>
    <g id="xtick_4">
     <g id="line2d_7">
      <path clip-path="url(#p30a1cda97b)" d="M 222.217773 108.304533 
L 222.217773 23.36505 
" style="fill:none;stroke:#b0b0b0;stroke-linecap:square;stroke-width:0.8;"/>
     </g>
     <g id="line2d_8">
      <g>
       <use style="stroke:#000000;stroke-width:0.8;" x="222.217773" xlink:href="#md6c74eff80" y="108.304533"/>
      </g>
     </g>
    </g>
    <g id="xtick_5">
     <g id="line2d_9">
      <path clip-path="url(#p30a1cda97b)" d="M 270.926726 108.304533 
L 270.926726 23.36505 
" style="fill:none;stroke:#b0b0b0;stroke-linecap:square;stroke-width:0.8;"/>
     </g>
     <g id="line2d_10">
      <g>
       <use style="stroke:#000000;stroke-width:0.8;" x="270.926726" xlink:href="#md6c74eff80" y="108.304533"/>
      </g>
     </g>
    </g>
    <g id="xtick_6">
     <g id="line2d_11">
      <path clip-path="url(#p30a1cda97b)" d="M 319.702404 108.304533 
L 319.702404 23.36505 
" style="fill:none;stroke:#b0b0b0;stroke-linecap:square;stroke-width:0.8;"/>
     </g>
     <g id="line2d_12">
      <g>
       <use style="stroke:#000000;stroke-width:0.8;" x="319.702404" xlink:href="#md6c74eff80" y="108.304533"/>
      </g>
     </g>
    </g>
    <g id="xtick_7">
     <g id="line2d_13">
      <path clip-path="url(#p30a1cda97b)" d="M 368.411357 108.304533 
L 368.411357 23.36505 
" style="fill:none;stroke:#b0b0b0;stroke-linecap:square;stroke-width:0.8;"/>
     </g>
     <g id="line2d_14">
      <g>
       <use style="stroke:#000000;stroke-width:0.8;" x="368.411357" xlink:href="#md6c74eff80" y="108.304533"/>
      </g>
     </g>
    </g>
    <g id="xtick_8">
     <g id="line2d_15">
      <path clip-path="url(#p30a1cda97b)" d="M 417.187035 108.304533 
L 417.187035 23.36505 
" style="fill:none;stroke:#b0b0b0;stroke-linecap:square;stroke-width:0.8;"/>
     </g>
     <g id="line2d_16">
      <g>
       <use style="stroke:#000000;stroke-width:0.8;" x="417.187035" xlink:href="#md6c74eff80" y="108.304533"/>
      </g>
     </g>
    </g>
   </g>
   <g id="matplotlib.axis_2">
    <g id="ytick_1">
     <g id="line2d_17">
      <path clip-path="url(#p30a1cda97b)" d="M 29.25025 104.443648 
L 447.48 104.443648 
" style="fill:none;stroke:#b0b0b0;stroke-linecap:square;stroke-width:0.8;"/>
     </g>
     <g id="line2d_18">
      <defs>
       <path d="M 0 0 
L -3.5 0 
" id="m40beff15a3" style="stroke:#000000;stroke-width:0.8;"/>
      </defs>
      <g>
       <use style="stroke:#000000;stroke-width:0.8;" x="29.25025" xlink:href="#m40beff15a3" y="104.443648"/>
      </g>
     </g>
     <g id="text_1">
      <!-- 0 -->
      <defs>
       <path d="M 31.78125 66.40625 
Q 24.171875 66.40625 20.328125 58.90625 
Q 16.5 51.421875 16.5 36.375 
Q 16.5 21.390625 20.328125 13.890625 
Q 24.171875 6.390625 31.78125 6.390625 
Q 39.453125 6.390625 43.28125 13.890625 
Q 47.125 21.390625 47.125 36.375 
Q 47.125 51.421875 43.28125 58.90625 
Q 39.453125 66.40625 31.78125 66.40625 
z
M 31.78125 74.21875 
Q 44.046875 74.21875 50.515625 64.515625 
Q 56.984375 54.828125 56.984375 36.375 
Q 56.984375 17.96875 50.515625 8.265625 
Q 44.046875 -1.421875 31.78125 -1.421875 
Q 19.53125 -1.421875 13.0625 8.265625 
Q 6.59375 17.96875 6.59375 36.375 
Q 6.59375 54.828125 13.0625 64.515625 
Q 19.53125 74.21875 31.78125 74.21875 
z
" id="DejaVuSans-30"/>
      </defs>
      <g transform="translate(15.88775 108.242866)scale(0.1 -0.1)">
       <use xlink:href="#DejaVuSans-30"/>
      </g>
     </g>
    </g>
    <g id="ytick_2">
     <g id="line2d_19">
      <path clip-path="url(#p30a1cda97b)" d="M 29.25025 82.634841 
L 447.48 82.634841 
" style="fill:none;stroke:#b0b0b0;stroke-linecap:square;stroke-width:0.8;"/>
     </g>
     <g id="line2d_20">
      <g>
       <use style="stroke:#000000;stroke-width:0.8;" x="29.25025" xlink:href="#m40beff15a3" y="82.634841"/>
      </g>
     </g>
     <g id="text_2">
      <!-- 2 -->
      <defs>
       <path d="M 19.1875 8.296875 
L 53.609375 8.296875 
L 53.609375 0 
L 7.328125 0 
L 7.328125 8.296875 
Q 12.9375 14.109375 22.625 23.890625 
Q 32.328125 33.6875 34.8125 36.53125 
Q 39.546875 41.84375 41.421875 45.53125 
Q 43.3125 49.21875 43.3125 52.78125 
Q 43.3125 58.59375 39.234375 62.25 
Q 35.15625 65.921875 28.609375 65.921875 
Q 23.96875 65.921875 18.8125 64.3125 
Q 13.671875 62.703125 7.8125 59.421875 
L 7.8125 69.390625 
Q 13.765625 71.78125 18.9375 73 
Q 24.125 74.21875 28.421875 74.21875 
Q 39.75 74.21875 46.484375 68.546875 
Q 53.21875 62.890625 53.21875 53.421875 
Q 53.21875 48.921875 51.53125 44.890625 
Q 49.859375 40.875 45.40625 35.40625 
Q 44.1875 33.984375 37.640625 27.21875 
Q 31.109375 20.453125 19.1875 8.296875 
z
" id="DejaVuSans-32"/>
      </defs>
      <g transform="translate(15.88775 86.43406)scale(0.1 -0.1)">
       <use xlink:href="#DejaVuSans-32"/>
      </g>
     </g>
    </g>
    <g id="ytick_3">
     <g id="line2d_21">
      <path clip-path="url(#p30a1cda97b)" d="M 29.25025 60.826035 
L 447.48 60.826035 
" style="fill:none;stroke:#b0b0b0;stroke-linecap:square;stroke-width:0.8;"/>
     </g>
     <g id="line2d_22">
      <g>
       <use style="stroke:#000000;stroke-width:0.8;" x="29.25025" xlink:href="#m40beff15a3" y="60.826035"/>
      </g>
     </g>
     <g id="text_3">
      <!-- 4 -->
      <defs>
       <path d="M 37.796875 64.3125 
L 12.890625 25.390625 
L 37.796875 25.390625 
z
M 35.203125 72.90625 
L 47.609375 72.90625 
L 47.609375 25.390625 
L 58.015625 25.390625 
L 58.015625 17.1875 
L 47.609375 17.1875 
L 47.609375 0 
L 37.796875 0 
L 37.796875 17.1875 
L 4.890625 17.1875 
L 4.890625 26.703125 
z
" id="DejaVuSans-34"/>
      </defs>
      <g transform="translate(15.88775 64.625253)scale(0.1 -0.1)">
       <use xlink:href="#DejaVuSans-34"/>
      </g>
     </g>
    </g>
    <g id="ytick_4">
     <g id="line2d_23">
      <path clip-path="url(#p30a1cda97b)" d="M 29.25025 39.017228 
L 447.48 39.017228 
" style="fill:none;stroke:#b0b0b0;stroke-linecap:square;stroke-width:0.8;"/>
     </g>
     <g id="line2d_24">
      <g>
       <use style="stroke:#000000;stroke-width:0.8;" x="29.25025" xlink:href="#m40beff15a3" y="39.017228"/>
      </g>
     </g>
     <g id="text_4">
      <!-- 6 -->
      <defs>
       <path d="M 33.015625 40.375 
Q 26.375 40.375 22.484375 35.828125 
Q 18.609375 31.296875 18.609375 23.390625 
Q 18.609375 15.53125 22.484375 10.953125 
Q 26.375 6.390625 33.015625 6.390625 
Q 39.65625 6.390625 43.53125 10.953125 
Q 47.40625 15.53125 47.40625 23.390625 
Q 47.40625 31.296875 43.53125 35.828125 
Q 39.65625 40.375 33.015625 40.375 
z
M 52.59375 71.296875 
L 52.59375 62.3125 
Q 48.875 64.0625 45.09375 64.984375 
Q 41.3125 65.921875 37.59375 65.921875 
Q 27.828125 65.921875 22.671875 59.328125 
Q 17.53125 52.734375 16.796875 39.40625 
Q 19.671875 43.65625 24.015625 45.921875 
Q 28.375 48.1875 33.59375 48.1875 
Q 44.578125 48.1875 50.953125 41.515625 
Q 57.328125 34.859375 57.328125 23.390625 
Q 57.328125 12.15625 50.6875 5.359375 
Q 44.046875 -1.421875 33.015625 -1.421875 
Q 20.359375 -1.421875 13.671875 8.265625 
Q 6.984375 17.96875 6.984375 36.375 
Q 6.984375 53.65625 15.1875 63.9375 
Q 23.390625 74.21875 37.203125 74.21875 
Q 40.921875 74.21875 44.703125 73.484375 
Q 48.484375 72.75 52.59375 71.296875 
z
" id="DejaVuSans-36"/>
      </defs>
      <g transform="translate(15.88775 42.816447)scale(0.1 -0.1)">
       <use xlink:href="#DejaVuSans-36"/>
      </g>
     </g>
    </g>
   </g>
   <g id="line2d_25">
    <path clip-path="url(#p30a1cda97b)" d="M 29.25025 27.225936 
L 31.118539 45.208494 
L 33.187001 42.200688 
L 35.188739 80.766813 
L 37.257201 76.381512 
L 39.258939 77.965856 
L 41.327401 75.657814 
L 43.395864 80.527877 
L 45.397602 97.179983 
L 47.466064 104.025174 
L 49.467802 103.856912 
L 51.536264 103.972836 
L 53.604727 104.443648 
L 57.541478 104.443648 
L 59.543215 102.624336 
L 61.611678 97.641761 
L 63.613415 92.172576 
L 65.681878 84.978028 
L 67.75034 87.053611 
L 69.752078 86.184962 
L 71.82054 93.44278 
L 73.822278 102.043299 
L 75.890741 104.443648 
L 81.895954 104.443648 
L 83.897692 102.241534 
L 85.966154 102.399373 
L 87.967892 100.241268 
L 90.036354 97.477843 
L 92.104817 98.382232 
L 94.106555 100.041208 
L 96.175017 100.614176 
L 98.176755 101.755954 
L 100.245217 102.550631 
L 102.31368 98.802628 
L 104.248693 96.148678 
L 106.317155 98.897255 
L 108.318893 100.70783 
L 112.389093 99.707978 
L 114.457555 96.663388 
L 116.526018 98.682111 
L 118.527756 100.21219 
L 120.596218 99.856147 
L 122.597956 103.310414 
L 124.666418 101.541783 
L 126.734881 98.81974 
L 128.603169 101.088214 
L 130.671632 100.409081 
L 132.673369 98.928305 
L 134.741832 100.893182 
L 136.74357 100.844386 
L 138.812032 100.101317 
L 140.880494 99.997561 
L 142.882232 101.389597 
L 146.952432 101.638217 
L 149.020895 101.06247 
L 151.089357 101.480823 
L 152.957646 101.16062 
L 155.026108 102.773405 
L 157.027846 100.173178 
L 159.096308 103.244471 
L 161.098046 100.060939 
L 163.166508 99.692046 
L 165.234971 101.754847 
L 167.236709 101.042909 
L 169.305171 101.577784 
L 171.306909 101.732249 
L 173.375371 100.501398 
L 175.443834 100.068788 
L 177.312122 102.397398 
L 179.380585 102.321882 
L 181.382322 100.662745 
L 183.450785 100.260786 
L 185.452523 100.083045 
L 187.520985 98.948964 
L 189.589447 99.647714 
L 191.591185 98.812255 
L 193.659648 99.644461 
L 195.661385 103.088286 
L 197.729848 101.153058 
L 201.733323 99.546593 
L 203.801786 102.052719 
L 205.803524 98.078805 
L 207.871986 100.194747 
L 209.873724 99.890344 
L 211.942186 99.062044 
L 214.010648 100.051616 
L 216.012386 99.750989 
L 218.080849 99.975285 
L 220.082586 101.63798 
L 222.151049 99.163213 
L 224.219511 100.737124 
L 226.0878 100.389735 
L 228.156262 104.443648 
L 230.158 104.000828 
L 232.226462 99.204365 
L 234.2282 101.719378 
L 236.296663 97.156898 
L 238.365125 99.136295 
L 240.366863 99.021488 
L 246.505525 103.979487 
L 248.573988 103.968592 
L 250.442276 104.443648 
L 252.510739 102.966117 
L 254.512477 104.30413 
L 256.580939 103.717435 
L 258.582677 102.31736 
L 260.651139 99.988068 
L 262.719602 99.787266 
L 264.721339 100.741582 
L 266.789802 101.498805 
L 268.791539 103.532655 
L 270.860002 104.443648 
L 272.928464 103.967261 
L 274.796753 103.897048 
L 276.865215 104.348912 
L 278.866953 103.195826 
L 280.935415 102.707644 
L 282.937153 101.200746 
L 285.005616 100.38134 
L 287.074078 98.95189 
L 289.075816 99.161792 
L 291.144278 101.585245 
L 293.146016 101.68289 
L 295.214478 103.500295 
L 297.282941 104.443648 
L 299.217954 100.965225 
L 301.286416 97.623453 
L 303.288154 97.93945 
L 305.356617 97.216032 
L 307.358354 96.210959 
L 309.426817 97.456801 
L 311.495279 97.250642 
L 313.497017 97.56802 
L 315.565479 98.332869 
L 317.567217 102.135844 
L 319.635679 104.443648 
L 321.704142 104.443648 
L 323.57243 103.965838 
L 325.640893 103.901174 
L 327.642631 102.41869 
L 329.711093 101.18583 
L 331.712831 100.330265 
L 333.781293 98.836706 
L 335.849756 99.302354 
L 337.851493 99.631728 
L 339.919956 101.843778 
L 341.921694 102.955641 
L 343.990156 104.263887 
L 346.058618 104.151412 
L 347.926907 103.046595 
L 349.995369 104.087138 
L 351.997107 102.111726 
L 354.06557 101.036253 
L 356.067307 98.739329 
L 358.13577 98.143785 
L 360.204232 98.498674 
L 364.274432 99.533714 
L 366.27617 101.719716 
L 368.344632 104.443648 
L 370.413095 104.443648 
L 372.281383 104.285623 
L 374.349846 102.38959 
L 376.351584 98.560974 
L 378.420046 101.904702 
L 380.421784 97.748912 
L 382.490246 98.051951 
L 386.560446 97.825249 
L 388.628909 98.342446 
L 390.630647 103.545563 
L 392.699109 100.260024 
L 394.767571 104.034425 
L 396.702585 99.721648 
L 398.771047 96.870938 
L 400.772785 96.567681 
L 402.841247 97.749654 
L 404.842985 96.857974 
L 406.911447 96.67825 
L 408.97991 96.789154 
L 410.981648 97.207312 
L 413.05011 98.36945 
L 415.051848 103.166211 
L 417.12031 104.443648 
L 419.188772 104.440129 
L 421.057061 104.141147 
L 423.125523 102.066009 
L 425.127261 100.668355 
L 427.195724 97.508812 
L 429.197461 96.781824 
L 431.265924 96.578714 
L 433.334386 96.971998 
L 435.336124 97.76863 
L 437.404586 96.944934 
L 439.406324 100.503471 
L 441.474787 103.844882 
L 443.543249 104.443648 
L 447.48 104.443648 
L 447.48 104.443648 
" style="fill:none;stroke:#008000;stroke-linecap:square;stroke-width:1.5;"/>
   </g>
   <g id="patch_3">
    <path d="M 29.25025 108.304533 
L 29.25025 23.36505 
" style="fill:none;stroke:#000000;stroke-linecap:square;stroke-linejoin:miter;stroke-width:0.8;"/>
   </g>
   <g id="patch_4">
    <path d="M 447.48 108.304533 
L 447.48 23.36505 
" style="fill:none;stroke:#000000;stroke-linecap:square;stroke-linejoin:miter;stroke-width:0.8;"/>
   </g>
   <g id="patch_5">
    <path d="M 29.25025 108.304533 
L 447.48 108.304533 
" style="fill:none;stroke:#000000;stroke-linecap:square;stroke-linejoin:miter;stroke-width:0.8;"/>
   </g>
   <g id="patch_6">
    <path d="M 29.25025 23.36505 
L 447.48 23.36505 
" style="fill:none;stroke:#000000;stroke-linecap:square;stroke-linejoin:miter;stroke-width:0.8;"/>
   </g>
   <g id="text_5">
    <!-- Average monthly normalized emissions -->
    <defs>
     <path d="M 34.1875 63.1875 
L 20.796875 26.90625 
L 47.609375 26.90625 
z
M 28.609375 72.90625 
L 39.796875 72.90625 
L 67.578125 0 
L 57.328125 0 
L 50.6875 18.703125 
L 17.828125 18.703125 
L 11.1875 0 
L 0.78125 0 
z
" id="DejaVuSans-41"/>
     <path d="M 2.984375 54.6875 
L 12.5 54.6875 
L 29.59375 8.796875 
L 46.6875 54.6875 
L 56.203125 54.6875 
L 35.6875 0 
L 23.484375 0 
z
" id="DejaVuSans-76"/>
     <path d="M 56.203125 29.59375 
L 56.203125 25.203125 
L 14.890625 25.203125 
Q 15.484375 15.921875 20.484375 11.0625 
Q 25.484375 6.203125 34.421875 6.203125 
Q 39.59375 6.203125 44.453125 7.46875 
Q 49.3125 8.734375 54.109375 11.28125 
L 54.109375 2.78125 
Q 49.265625 0.734375 44.1875 -0.34375 
Q 39.109375 -1.421875 33.890625 -1.421875 
Q 20.796875 -1.421875 13.15625 6.1875 
Q 5.515625 13.8125 5.515625 26.8125 
Q 5.515625 40.234375 12.765625 48.109375 
Q 20.015625 56 32.328125 56 
Q 43.359375 56 49.78125 48.890625 
Q 56.203125 41.796875 56.203125 29.59375 
z
M 47.21875 32.234375 
Q 47.125 39.59375 43.09375 43.984375 
Q 39.0625 48.390625 32.421875 48.390625 
Q 24.90625 48.390625 20.390625 44.140625 
Q 15.875 39.890625 15.1875 32.171875 
z
" id="DejaVuSans-65"/>
     <path d="M 41.109375 46.296875 
Q 39.59375 47.171875 37.8125 47.578125 
Q 36.03125 48 33.890625 48 
Q 26.265625 48 22.1875 43.046875 
Q 18.109375 38.09375 18.109375 28.8125 
L 18.109375 0 
L 9.078125 0 
L 9.078125 54.6875 
L 18.109375 54.6875 
L 18.109375 46.1875 
Q 20.953125 51.171875 25.484375 53.578125 
Q 30.03125 56 36.53125 56 
Q 37.453125 56 38.578125 55.875 
Q 39.703125 55.765625 41.0625 55.515625 
z
" id="DejaVuSans-72"/>
     <path d="M 34.28125 27.484375 
Q 23.390625 27.484375 19.1875 25 
Q 14.984375 22.515625 14.984375 16.5 
Q 14.984375 11.71875 18.140625 8.90625 
Q 21.296875 6.109375 26.703125 6.109375 
Q 34.1875 6.109375 38.703125 11.40625 
Q 43.21875 16.703125 43.21875 25.484375 
L 43.21875 27.484375 
z
M 52.203125 31.203125 
L 52.203125 0 
L 43.21875 0 
L 43.21875 8.296875 
Q 40.140625 3.328125 35.546875 0.953125 
Q 30.953125 -1.421875 24.3125 -1.421875 
Q 15.921875 -1.421875 10.953125 3.296875 
Q 6 8.015625 6 15.921875 
Q 6 25.140625 12.171875 29.828125 
Q 18.359375 34.515625 30.609375 34.515625 
L 43.21875 34.515625 
L 43.21875 35.40625 
Q 43.21875 41.609375 39.140625 45 
Q 35.0625 48.390625 27.6875 48.390625 
Q 23 48.390625 18.546875 47.265625 
Q 14.109375 46.140625 10.015625 43.890625 
L 10.015625 52.203125 
Q 14.9375 54.109375 19.578125 55.046875 
Q 24.21875 56 28.609375 56 
Q 40.484375 56 46.34375 49.84375 
Q 52.203125 43.703125 52.203125 31.203125 
z
" id="DejaVuSans-61"/>
     <path d="M 45.40625 27.984375 
Q 45.40625 37.75 41.375 43.109375 
Q 37.359375 48.484375 30.078125 48.484375 
Q 22.859375 48.484375 18.828125 43.109375 
Q 14.796875 37.75 14.796875 27.984375 
Q 14.796875 18.265625 18.828125 12.890625 
Q 22.859375 7.515625 30.078125 7.515625 
Q 37.359375 7.515625 41.375 12.890625 
Q 45.40625 18.265625 45.40625 27.984375 
z
M 54.390625 6.78125 
Q 54.390625 -7.171875 48.1875 -13.984375 
Q 42 -20.796875 29.203125 -20.796875 
Q 24.46875 -20.796875 20.265625 -20.09375 
Q 16.0625 -19.390625 12.109375 -17.921875 
L 12.109375 -9.1875 
Q 16.0625 -11.328125 19.921875 -12.34375 
Q 23.78125 -13.375 27.78125 -13.375 
Q 36.625 -13.375 41.015625 -8.765625 
Q 45.40625 -4.15625 45.40625 5.171875 
L 45.40625 9.625 
Q 42.625 4.78125 38.28125 2.390625 
Q 33.9375 0 27.875 0 
Q 17.828125 0 11.671875 7.65625 
Q 5.515625 15.328125 5.515625 27.984375 
Q 5.515625 40.671875 11.671875 48.328125 
Q 17.828125 56 27.875 56 
Q 33.9375 56 38.28125 53.609375 
Q 42.625 51.21875 45.40625 46.390625 
L 45.40625 54.6875 
L 54.390625 54.6875 
z
" id="DejaVuSans-67"/>
     <path id="DejaVuSans-20"/>
     <path d="M 52 44.1875 
Q 55.375 50.25 60.0625 53.125 
Q 64.75 56 71.09375 56 
Q 79.640625 56 84.28125 50.015625 
Q 88.921875 44.046875 88.921875 33.015625 
L 88.921875 0 
L 79.890625 0 
L 79.890625 32.71875 
Q 79.890625 40.578125 77.09375 44.375 
Q 74.3125 48.1875 68.609375 48.1875 
Q 61.625 48.1875 57.5625 43.546875 
Q 53.515625 38.921875 53.515625 30.90625 
L 53.515625 0 
L 44.484375 0 
L 44.484375 32.71875 
Q 44.484375 40.625 41.703125 44.40625 
Q 38.921875 48.1875 33.109375 48.1875 
Q 26.21875 48.1875 22.15625 43.53125 
Q 18.109375 38.875 18.109375 30.90625 
L 18.109375 0 
L 9.078125 0 
L 9.078125 54.6875 
L 18.109375 54.6875 
L 18.109375 46.1875 
Q 21.1875 51.21875 25.484375 53.609375 
Q 29.78125 56 35.6875 56 
Q 41.65625 56 45.828125 52.96875 
Q 50 49.953125 52 44.1875 
z
" id="DejaVuSans-6d"/>
     <path d="M 30.609375 48.390625 
Q 23.390625 48.390625 19.1875 42.75 
Q 14.984375 37.109375 14.984375 27.296875 
Q 14.984375 17.484375 19.15625 11.84375 
Q 23.34375 6.203125 30.609375 6.203125 
Q 37.796875 6.203125 41.984375 11.859375 
Q 46.1875 17.53125 46.1875 27.296875 
Q 46.1875 37.015625 41.984375 42.703125 
Q 37.796875 48.390625 30.609375 48.390625 
z
M 30.609375 56 
Q 42.328125 56 49.015625 48.375 
Q 55.71875 40.765625 55.71875 27.296875 
Q 55.71875 13.875 49.015625 6.21875 
Q 42.328125 -1.421875 30.609375 -1.421875 
Q 18.84375 -1.421875 12.171875 6.21875 
Q 5.515625 13.875 5.515625 27.296875 
Q 5.515625 40.765625 12.171875 48.375 
Q 18.84375 56 30.609375 56 
z
" id="DejaVuSans-6f"/>
     <path d="M 54.890625 33.015625 
L 54.890625 0 
L 45.90625 0 
L 45.90625 32.71875 
Q 45.90625 40.484375 42.875 44.328125 
Q 39.84375 48.1875 33.796875 48.1875 
Q 26.515625 48.1875 22.3125 43.546875 
Q 18.109375 38.921875 18.109375 30.90625 
L 18.109375 0 
L 9.078125 0 
L 9.078125 54.6875 
L 18.109375 54.6875 
L 18.109375 46.1875 
Q 21.34375 51.125 25.703125 53.5625 
Q 30.078125 56 35.796875 56 
Q 45.21875 56 50.046875 50.171875 
Q 54.890625 44.34375 54.890625 33.015625 
z
" id="DejaVuSans-6e"/>
     <path d="M 18.3125 70.21875 
L 18.3125 54.6875 
L 36.8125 54.6875 
L 36.8125 47.703125 
L 18.3125 47.703125 
L 18.3125 18.015625 
Q 18.3125 11.328125 20.140625 9.421875 
Q 21.96875 7.515625 27.59375 7.515625 
L 36.8125 7.515625 
L 36.8125 0 
L 27.59375 0 
Q 17.1875 0 13.234375 3.875 
Q 9.28125 7.765625 9.28125 18.015625 
L 9.28125 47.703125 
L 2.6875 47.703125 
L 2.6875 54.6875 
L 9.28125 54.6875 
L 9.28125 70.21875 
z
" id="DejaVuSans-74"/>
     <path d="M 54.890625 33.015625 
L 54.890625 0 
L 45.90625 0 
L 45.90625 32.71875 
Q 45.90625 40.484375 42.875 44.328125 
Q 39.84375 48.1875 33.796875 48.1875 
Q 26.515625 48.1875 22.3125 43.546875 
Q 18.109375 38.921875 18.109375 30.90625 
L 18.109375 0 
L 9.078125 0 
L 9.078125 75.984375 
L 18.109375 75.984375 
L 18.109375 46.1875 
Q 21.34375 51.125 25.703125 53.5625 
Q 30.078125 56 35.796875 56 
Q 45.21875 56 50.046875 50.171875 
Q 54.890625 44.34375 54.890625 33.015625 
z
" id="DejaVuSans-68"/>
     <path d="M 9.421875 75.984375 
L 18.40625 75.984375 
L 18.40625 0 
L 9.421875 0 
z
" id="DejaVuSans-6c"/>
     <path d="M 32.171875 -5.078125 
Q 28.375 -14.84375 24.75 -17.8125 
Q 21.140625 -20.796875 15.09375 -20.796875 
L 7.90625 -20.796875 
L 7.90625 -13.28125 
L 13.1875 -13.28125 
Q 16.890625 -13.28125 18.9375 -11.515625 
Q 21 -9.765625 23.484375 -3.21875 
L 25.09375 0.875 
L 2.984375 54.6875 
L 12.5 54.6875 
L 29.59375 11.921875 
L 46.6875 54.6875 
L 56.203125 54.6875 
z
" id="DejaVuSans-79"/>
     <path d="M 9.421875 54.6875 
L 18.40625 54.6875 
L 18.40625 0 
L 9.421875 0 
z
M 9.421875 75.984375 
L 18.40625 75.984375 
L 18.40625 64.59375 
L 9.421875 64.59375 
z
" id="DejaVuSans-69"/>
     <path d="M 5.515625 54.6875 
L 48.1875 54.6875 
L 48.1875 46.484375 
L 14.40625 7.171875 
L 48.1875 7.171875 
L 48.1875 0 
L 4.296875 0 
L 4.296875 8.203125 
L 38.09375 47.515625 
L 5.515625 47.515625 
z
" id="DejaVuSans-7a"/>
     <path d="M 45.40625 46.390625 
L 45.40625 75.984375 
L 54.390625 75.984375 
L 54.390625 0 
L 45.40625 0 
L 45.40625 8.203125 
Q 42.578125 3.328125 38.25 0.953125 
Q 33.9375 -1.421875 27.875 -1.421875 
Q 17.96875 -1.421875 11.734375 6.484375 
Q 5.515625 14.40625 5.515625 27.296875 
Q 5.515625 40.1875 11.734375 48.09375 
Q 17.96875 56 27.875 56 
Q 33.9375 56 38.25 53.625 
Q 42.578125 51.265625 45.40625 46.390625 
z
M 14.796875 27.296875 
Q 14.796875 17.390625 18.875 11.75 
Q 22.953125 6.109375 30.078125 6.109375 
Q 37.203125 6.109375 41.296875 11.75 
Q 45.40625 17.390625 45.40625 27.296875 
Q 45.40625 37.203125 41.296875 42.84375 
Q 37.203125 48.484375 30.078125 48.484375 
Q 22.953125 48.484375 18.875 42.84375 
Q 14.796875 37.203125 14.796875 27.296875 
z
" id="DejaVuSans-64"/>
     <path d="M 44.28125 53.078125 
L 44.28125 44.578125 
Q 40.484375 46.53125 36.375 47.5 
Q 32.28125 48.484375 27.875 48.484375 
Q 21.1875 48.484375 17.84375 46.4375 
Q 14.5 44.390625 14.5 40.28125 
Q 14.5 37.15625 16.890625 35.375 
Q 19.28125 33.59375 26.515625 31.984375 
L 29.59375 31.296875 
Q 39.15625 29.25 43.1875 25.515625 
Q 47.21875 21.78125 47.21875 15.09375 
Q 47.21875 7.46875 41.1875 3.015625 
Q 35.15625 -1.421875 24.609375 -1.421875 
Q 20.21875 -1.421875 15.453125 -0.5625 
Q 10.6875 0.296875 5.421875 2 
L 5.421875 11.28125 
Q 10.40625 8.6875 15.234375 7.390625 
Q 20.0625 6.109375 24.8125 6.109375 
Q 31.15625 6.109375 34.5625 8.28125 
Q 37.984375 10.453125 37.984375 14.40625 
Q 37.984375 18.0625 35.515625 20.015625 
Q 33.0625 21.96875 24.703125 23.78125 
L 21.578125 24.515625 
Q 13.234375 26.265625 9.515625 29.90625 
Q 5.8125 33.546875 5.8125 39.890625 
Q 5.8125 47.609375 11.28125 51.796875 
Q 16.75 56 26.8125 56 
Q 31.78125 56 36.171875 55.265625 
Q 40.578125 54.546875 44.28125 53.078125 
z
" id="DejaVuSans-73"/>
    </defs>
    <g transform="translate(119.801375 17.36505)scale(0.12 -0.12)">
     <use xlink:href="#DejaVuSans-41"/>
     <use x="68.330078" xlink:href="#DejaVuSans-76"/>
     <use x="127.509766" xlink:href="#DejaVuSans-65"/>
     <use x="189.033203" xlink:href="#DejaVuSans-72"/>
     <use x="230.146484" xlink:href="#DejaVuSans-61"/>
     <use x="291.425781" xlink:href="#DejaVuSans-67"/>
     <use x="354.902344" xlink:href="#DejaVuSans-65"/>
     <use x="416.425781" xlink:href="#DejaVuSans-20"/>
     <use x="448.212891" xlink:href="#DejaVuSans-6d"/>
     <use x="545.625" xlink:href="#DejaVuSans-6f"/>
     <use x="606.806641" xlink:href="#DejaVuSans-6e"/>
     <use x="670.185547" xlink:href="#DejaVuSans-74"/>
     <use x="709.394531" xlink:href="#DejaVuSans-68"/>
     <use x="772.773438" xlink:href="#DejaVuSans-6c"/>
     <use x="800.556641" xlink:href="#DejaVuSans-79"/>
     <use x="859.736328" xlink:href="#DejaVuSans-20"/>
     <use x="891.523438" xlink:href="#DejaVuSans-6e"/>
     <use x="954.902344" xlink:href="#DejaVuSans-6f"/>
     <use x="1016.083984" xlink:href="#DejaVuSans-72"/>
     <use x="1057.181641" xlink:href="#DejaVuSans-6d"/>
     <use x="1154.59375" xlink:href="#DejaVuSans-61"/>
     <use x="1215.873047" xlink:href="#DejaVuSans-6c"/>
     <use x="1243.65625" xlink:href="#DejaVuSans-69"/>
     <use x="1271.439453" xlink:href="#DejaVuSans-7a"/>
     <use x="1323.929688" xlink:href="#DejaVuSans-65"/>
     <use x="1385.453125" xlink:href="#DejaVuSans-64"/>
     <use x="1448.929688" xlink:href="#DejaVuSans-20"/>
     <use x="1480.716797" xlink:href="#DejaVuSans-65"/>
     <use x="1542.240234" xlink:href="#DejaVuSans-6d"/>
     <use x="1639.652344" xlink:href="#DejaVuSans-69"/>
     <use x="1667.435547" xlink:href="#DejaVuSans-73"/>
     <use x="1719.535156" xlink:href="#DejaVuSans-73"/>
     <use x="1771.634766" xlink:href="#DejaVuSans-69"/>
     <use x="1799.417969" xlink:href="#DejaVuSans-6f"/>
     <use x="1860.599609" xlink:href="#DejaVuSans-6e"/>
     <use x="1923.978516" xlink:href="#DejaVuSans-73"/>
    </g>
   </g>
   <g id="legend_1">
    <g id="patch_7">
     <path d="M 387.897188 46.043175 
L 440.48 46.043175 
Q 442.48 46.043175 442.48 44.043175 
L 442.48 30.36505 
Q 442.48 28.36505 440.48 28.36505 
L 387.897188 28.36505 
Q 385.897188 28.36505 385.897188 30.36505 
L 385.897188 44.043175 
Q 385.897188 46.043175 387.897188 46.043175 
z
" style="fill:#ffffff;opacity:0.8;stroke:#cccccc;stroke-linejoin:miter;"/>
    </g>
    <g id="line2d_26">
     <path d="M 389.897188 36.463488 
L 409.897188 36.463488 
" style="fill:none;stroke:#008000;stroke-linecap:square;stroke-width:1.5;"/>
    </g>
    <g id="line2d_27"/>
    <g id="text_6">
     <!-- SO2 -->
     <defs>
      <path d="M 53.515625 70.515625 
L 53.515625 60.890625 
Q 47.90625 63.578125 42.921875 64.890625 
Q 37.9375 66.21875 33.296875 66.21875 
Q 25.25 66.21875 20.875 63.09375 
Q 16.5 59.96875 16.5 54.203125 
Q 16.5 49.359375 19.40625 46.890625 
Q 22.3125 44.4375 30.421875 42.921875 
L 36.375 41.703125 
Q 47.40625 39.59375 52.65625 34.296875 
Q 57.90625 29 57.90625 20.125 
Q 57.90625 9.515625 50.796875 4.046875 
Q 43.703125 -1.421875 29.984375 -1.421875 
Q 24.8125 -1.421875 18.96875 -0.25 
Q 13.140625 0.921875 6.890625 3.21875 
L 6.890625 13.375 
Q 12.890625 10.015625 18.65625 8.296875 
Q 24.421875 6.59375 29.984375 6.59375 
Q 38.421875 6.59375 43.015625 9.90625 
Q 47.609375 13.234375 47.609375 19.390625 
Q 47.609375 24.75 44.3125 27.78125 
Q 41.015625 30.8125 33.5 32.328125 
L 27.484375 33.5 
Q 16.453125 35.6875 11.515625 40.375 
Q 6.59375 45.0625 6.59375 53.421875 
Q 6.59375 63.09375 13.40625 68.65625 
Q 20.21875 74.21875 32.171875 74.21875 
Q 37.3125 74.21875 42.625 73.28125 
Q 47.953125 72.359375 53.515625 70.515625 
z
" id="DejaVuSans-53"/>
      <path d="M 39.40625 66.21875 
Q 28.65625 66.21875 22.328125 58.203125 
Q 16.015625 50.203125 16.015625 36.375 
Q 16.015625 22.609375 22.328125 14.59375 
Q 28.65625 6.59375 39.40625 6.59375 
Q 50.140625 6.59375 56.421875 14.59375 
Q 62.703125 22.609375 62.703125 36.375 
Q 62.703125 50.203125 56.421875 58.203125 
Q 50.140625 66.21875 39.40625 66.21875 
z
M 39.40625 74.21875 
Q 54.734375 74.21875 63.90625 63.9375 
Q 73.09375 53.65625 73.09375 36.375 
Q 73.09375 19.140625 63.90625 8.859375 
Q 54.734375 -1.421875 39.40625 -1.421875 
Q 24.03125 -1.421875 14.8125 8.828125 
Q 5.609375 19.09375 5.609375 36.375 
Q 5.609375 53.65625 14.8125 63.9375 
Q 24.03125 74.21875 39.40625 74.21875 
z
" id="DejaVuSans-4f"/>
     </defs>
     <g transform="translate(417.897188 39.963488)scale(0.1 -0.1)">
      <use xlink:href="#DejaVuSans-53"/>
      <use x="63.476562" xlink:href="#DejaVuSans-4f"/>
      <use x="142.1875" xlink:href="#DejaVuSans-32"/>
     </g>
    </g>
   </g>
  </g>
  <g id="axes_2">
   <g id="patch_8">
    <path d="M 29.25025 209.084017 
L 447.48 209.084017 
L 447.48 124.144533 
L 29.25025 124.144533 
z
" style="fill:none;"/>
   </g>
   <g id="matplotlib.axis_3">
    <g id="xtick_9">
     <g id="line2d_28">
      <path clip-path="url(#p5792d79246)" d="M 75.957465 209.084017 
L 75.957465 124.144533 
" style="fill:none;stroke:#b0b0b0;stroke-linecap:square;stroke-width:0.8;"/>
     </g>
     <g id="line2d_29">
      <g>
       <use style="stroke:#000000;stroke-width:0.8;" x="75.957465" xlink:href="#md6c74eff80" y="209.084017"/>
      </g>
     </g>
    </g>
    <g id="xtick_10">
     <g id="line2d_30">
      <path clip-path="url(#p5792d79246)" d="M 124.733143 209.084017 
L 124.733143 124.144533 
" style="fill:none;stroke:#b0b0b0;stroke-linecap:square;stroke-width:0.8;"/>
     </g>
     <g id="line2d_31">
      <g>
       <use style="stroke:#000000;stroke-width:0.8;" x="124.733143" xlink:href="#md6c74eff80" y="209.084017"/>
      </g>
     </g>
    </g>
    <g id="xtick_11">
     <g id="line2d_32">
      <path clip-path="url(#p5792d79246)" d="M 173.442096 209.084017 
L 173.442096 124.144533 
" style="fill:none;stroke:#b0b0b0;stroke-linecap:square;stroke-width:0.8;"/>
     </g>
     <g id="line2d_33">
      <g>
       <use style="stroke:#000000;stroke-width:0.8;" x="173.442096" xlink:href="#md6c74eff80" y="209.084017"/>
      </g>
     </g>
    </g>
    <g id="xtick_12">
     <g id="line2d_34">
      <path clip-path="url(#p5792d79246)" d="M 222.217773 209.084017 
L 222.217773 124.144533 
" style="fill:none;stroke:#b0b0b0;stroke-linecap:square;stroke-width:0.8;"/>
     </g>
     <g id="line2d_35">
      <g>
       <use style="stroke:#000000;stroke-width:0.8;" x="222.217773" xlink:href="#md6c74eff80" y="209.084017"/>
      </g>
     </g>
    </g>
    <g id="xtick_13">
     <g id="line2d_36">
      <path clip-path="url(#p5792d79246)" d="M 270.926726 209.084017 
L 270.926726 124.144533 
" style="fill:none;stroke:#b0b0b0;stroke-linecap:square;stroke-width:0.8;"/>
     </g>
     <g id="line2d_37">
      <g>
       <use style="stroke:#000000;stroke-width:0.8;" x="270.926726" xlink:href="#md6c74eff80" y="209.084017"/>
      </g>
     </g>
    </g>
    <g id="xtick_14">
     <g id="line2d_38">
      <path clip-path="url(#p5792d79246)" d="M 319.702404 209.084017 
L 319.702404 124.144533 
" style="fill:none;stroke:#b0b0b0;stroke-linecap:square;stroke-width:0.8;"/>
     </g>
     <g id="line2d_39">
      <g>
       <use style="stroke:#000000;stroke-width:0.8;" x="319.702404" xlink:href="#md6c74eff80" y="209.084017"/>
      </g>
     </g>
    </g>
    <g id="xtick_15">
     <g id="line2d_40">
      <path clip-path="url(#p5792d79246)" d="M 368.411357 209.084017 
L 368.411357 124.144533 
" style="fill:none;stroke:#b0b0b0;stroke-linecap:square;stroke-width:0.8;"/>
     </g>
     <g id="line2d_41">
      <g>
       <use style="stroke:#000000;stroke-width:0.8;" x="368.411357" xlink:href="#md6c74eff80" y="209.084017"/>
      </g>
     </g>
    </g>
    <g id="xtick_16">
     <g id="line2d_42">
      <path clip-path="url(#p5792d79246)" d="M 417.187035 209.084017 
L 417.187035 124.144533 
" style="fill:none;stroke:#b0b0b0;stroke-linecap:square;stroke-width:0.8;"/>
     </g>
     <g id="line2d_43">
      <g>
       <use style="stroke:#000000;stroke-width:0.8;" x="417.187035" xlink:href="#md6c74eff80" y="209.084017"/>
      </g>
     </g>
    </g>
   </g>
   <g id="matplotlib.axis_4">
    <g id="ytick_5">
     <g id="line2d_44">
      <path clip-path="url(#p5792d79246)" d="M 29.25025 205.223131 
L 447.48 205.223131 
" style="fill:none;stroke:#b0b0b0;stroke-linecap:square;stroke-width:0.8;"/>
     </g>
     <g id="line2d_45">
      <g>
       <use style="stroke:#000000;stroke-width:0.8;" x="29.25025" xlink:href="#m40beff15a3" y="205.223131"/>
      </g>
     </g>
     <g id="text_7">
      <!-- 0 -->
      <g transform="translate(15.88775 209.02235)scale(0.1 -0.1)">
       <use xlink:href="#DejaVuSans-30"/>
      </g>
     </g>
    </g>
    <g id="ytick_6">
     <g id="line2d_46">
      <path clip-path="url(#p5792d79246)" d="M 29.25025 181.817119 
L 447.48 181.817119 
" style="fill:none;stroke:#b0b0b0;stroke-linecap:square;stroke-width:0.8;"/>
     </g>
     <g id="line2d_47">
      <g>
       <use style="stroke:#000000;stroke-width:0.8;" x="29.25025" xlink:href="#m40beff15a3" y="181.817119"/>
      </g>
     </g>
     <g id="text_8">
      <!-- 5 -->
      <defs>
       <path d="M 10.796875 72.90625 
L 49.515625 72.90625 
L 49.515625 64.59375 
L 19.828125 64.59375 
L 19.828125 46.734375 
Q 21.96875 47.46875 24.109375 47.828125 
Q 26.265625 48.1875 28.421875 48.1875 
Q 40.625 48.1875 47.75 41.5 
Q 54.890625 34.8125 54.890625 23.390625 
Q 54.890625 11.625 47.5625 5.09375 
Q 40.234375 -1.421875 26.90625 -1.421875 
Q 22.3125 -1.421875 17.546875 -0.640625 
Q 12.796875 0.140625 7.71875 1.703125 
L 7.71875 11.625 
Q 12.109375 9.234375 16.796875 8.0625 
Q 21.484375 6.890625 26.703125 6.890625 
Q 35.15625 6.890625 40.078125 11.328125 
Q 45.015625 15.765625 45.015625 23.390625 
Q 45.015625 31 40.078125 35.4375 
Q 35.15625 39.890625 26.703125 39.890625 
Q 22.75 39.890625 18.8125 39.015625 
Q 14.890625 38.140625 10.796875 36.28125 
z
" id="DejaVuSans-35"/>
      </defs>
      <g transform="translate(15.88775 185.616338)scale(0.1 -0.1)">
       <use xlink:href="#DejaVuSans-35"/>
      </g>
     </g>
    </g>
    <g id="ytick_7">
     <g id="line2d_48">
      <path clip-path="url(#p5792d79246)" d="M 29.25025 158.411108 
L 447.48 158.411108 
" style="fill:none;stroke:#b0b0b0;stroke-linecap:square;stroke-width:0.8;"/>
     </g>
     <g id="line2d_49">
      <g>
       <use style="stroke:#000000;stroke-width:0.8;" x="29.25025" xlink:href="#m40beff15a3" y="158.411108"/>
      </g>
     </g>
     <g id="text_9">
      <!-- 10 -->
      <defs>
       <path d="M 12.40625 8.296875 
L 28.515625 8.296875 
L 28.515625 63.921875 
L 10.984375 60.40625 
L 10.984375 69.390625 
L 28.421875 72.90625 
L 38.28125 72.90625 
L 38.28125 8.296875 
L 54.390625 8.296875 
L 54.390625 0 
L 12.40625 0 
z
" id="DejaVuSans-31"/>
      </defs>
      <g transform="translate(9.52525 162.210327)scale(0.1 -0.1)">
       <use xlink:href="#DejaVuSans-31"/>
       <use x="63.623047" xlink:href="#DejaVuSans-30"/>
      </g>
     </g>
    </g>
    <g id="ytick_8">
     <g id="line2d_50">
      <path clip-path="url(#p5792d79246)" d="M 29.25025 135.005096 
L 447.48 135.005096 
" style="fill:none;stroke:#b0b0b0;stroke-linecap:square;stroke-width:0.8;"/>
     </g>
     <g id="line2d_51">
      <g>
       <use style="stroke:#000000;stroke-width:0.8;" x="29.25025" xlink:href="#m40beff15a3" y="135.005096"/>
      </g>
     </g>
     <g id="text_10">
      <!-- 15 -->
      <g transform="translate(9.52525 138.804315)scale(0.1 -0.1)">
       <use xlink:href="#DejaVuSans-31"/>
       <use x="63.623047" xlink:href="#DejaVuSans-35"/>
      </g>
     </g>
    </g>
   </g>
   <g id="line2d_52">
    <path clip-path="url(#p5792d79246)" d="M 29.25025 175.320735 
L 31.118539 128.005419 
L 33.187001 161.830472 
L 35.188739 171.272421 
L 37.257201 175.550646 
L 39.258939 166.382062 
L 41.327401 183.498975 
L 43.395864 181.108322 
L 45.397602 199.216287 
L 47.466064 204.673519 
L 49.467802 204.890918 
L 51.536264 203.764459 
L 53.604727 205.223131 
L 57.541478 205.223131 
L 59.543215 202.657471 
L 61.611678 202.475733 
L 63.613415 197.848618 
L 65.681878 197.203195 
L 67.75034 197.074023 
L 69.752078 188.951387 
L 71.82054 202.684632 
L 73.822278 204.961155 
L 75.890741 205.223131 
L 81.895954 205.223131 
L 83.897692 204.887554 
L 85.966154 204.960473 
L 90.036354 204.650503 
L 96.175017 204.773086 
L 98.176755 204.979985 
L 100.245217 204.967882 
L 104.248693 204.605336 
L 108.318893 204.743616 
L 110.387355 204.586836 
L 112.389093 204.559464 
L 114.457555 189.773251 
L 116.526018 196.665193 
L 118.527756 202.801356 
L 120.596218 204.655442 
L 122.597956 205.080036 
L 124.666418 204.75861 
L 126.734881 204.662345 
L 128.603169 204.812937 
L 130.671632 204.824406 
L 132.673369 204.62839 
L 134.741832 204.814726 
L 136.74357 204.663099 
L 142.882232 204.698845 
L 146.952432 204.7371 
L 149.020895 204.515208 
L 151.089357 204.454011 
L 152.957646 204.537542 
L 155.026108 204.757935 
L 157.027846 204.464427 
L 159.096308 204.966558 
L 161.098046 204.529925 
L 163.166508 204.550276 
L 165.234971 204.691382 
L 167.236709 204.595802 
L 169.305171 204.839999 
L 171.306909 204.679796 
L 173.375371 204.301331 
L 175.443834 204.450933 
L 177.312122 204.817876 
L 179.380585 204.777184 
L 181.382322 204.577373 
L 187.520985 204.394731 
L 189.589447 204.465479 
L 191.591185 204.393537 
L 193.659648 204.491609 
L 195.661385 204.939312 
L 197.729848 204.476762 
L 199.79831 204.400786 
L 201.733323 204.447435 
L 203.801786 204.654391 
L 205.803524 204.256025 
L 207.871986 204.475364 
L 211.942186 204.37365 
L 214.010648 204.594466 
L 218.080849 204.400024 
L 220.082586 204.714357 
L 222.151049 204.631765 
L 226.0878 204.702983 
L 228.156262 205.223131 
L 230.158 205.09729 
L 232.226462 204.601103 
L 234.2282 204.749039 
L 236.296663 204.55173 
L 240.366863 204.621098 
L 244.437063 204.94128 
L 246.505525 205.156658 
L 250.442276 205.223131 
L 252.510739 204.942316 
L 254.512477 205.193046 
L 258.582677 204.826385 
L 260.651139 204.531293 
L 264.721339 204.618479 
L 266.789802 204.724584 
L 268.791539 205.05651 
L 270.860002 205.223131 
L 272.928464 205.080309 
L 274.796753 205.07443 
L 276.865215 205.18616 
L 282.937153 204.629819 
L 287.074078 204.686103 
L 289.075816 204.627232 
L 297.282941 205.223131 
L 301.286416 204.749314 
L 307.358354 204.519548 
L 315.565479 204.493724 
L 317.567217 205.010738 
L 319.635679 205.223131 
L 321.704142 205.223131 
L 323.57243 205.060201 
L 325.640893 205.081834 
L 329.711093 204.673436 
L 333.781293 204.564659 
L 339.919956 204.668871 
L 343.990156 205.149604 
L 346.058618 205.138084 
L 347.926907 204.97411 
L 349.995369 205.110383 
L 351.997107 204.757117 
L 356.067307 204.325281 
L 362.20597 204.387082 
L 364.274432 204.328505 
L 366.27617 204.604376 
L 368.344632 205.223131 
L 372.281383 205.156291 
L 376.351584 204.510294 
L 378.420046 204.781433 
L 380.421784 204.424794 
L 386.560446 204.566608 
L 388.628909 204.647038 
L 390.630647 205.077507 
L 392.699109 204.599048 
L 394.767571 204.728267 
L 396.702585 204.510237 
L 400.772785 204.498868 
L 402.841247 204.579985 
L 413.05011 204.474981 
L 415.051848 205.074101 
L 417.12031 205.223131 
L 421.057061 205.110602 
L 427.195724 204.556895 
L 437.404586 204.492453 
L 439.406324 204.72825 
L 441.474787 205.151047 
L 445.411538 205.223131 
L 447.48 205.223131 
L 447.48 205.223131 
" style="fill:none;stroke:#f97306;stroke-linecap:square;stroke-width:1.5;"/>
   </g>
   <g id="patch_9">
    <path d="M 29.25025 209.084017 
L 29.25025 124.144533 
" style="fill:none;stroke:#000000;stroke-linecap:square;stroke-linejoin:miter;stroke-width:0.8;"/>
   </g>
   <g id="patch_10">
    <path d="M 447.48 209.084017 
L 447.48 124.144533 
" style="fill:none;stroke:#000000;stroke-linecap:square;stroke-linejoin:miter;stroke-width:0.8;"/>
   </g>
   <g id="patch_11">
    <path d="M 29.25025 209.084017 
L 447.48 209.084017 
" style="fill:none;stroke:#000000;stroke-linecap:square;stroke-linejoin:miter;stroke-width:0.8;"/>
   </g>
   <g id="patch_12">
    <path d="M 29.25025 124.144533 
L 447.48 124.144533 
" style="fill:none;stroke:#000000;stroke-linecap:square;stroke-linejoin:miter;stroke-width:0.8;"/>
   </g>
   <g id="legend_2">
    <g id="patch_13">
     <path d="M 387.208125 146.822658 
L 440.48 146.822658 
Q 442.48 146.822658 442.48 144.822658 
L 442.48 131.144533 
Q 442.48 129.144533 440.48 129.144533 
L 387.208125 129.144533 
Q 385.208125 129.144533 385.208125 131.144533 
L 385.208125 144.822658 
Q 385.208125 146.822658 387.208125 146.822658 
z
" style="fill:#ffffff;opacity:0.8;stroke:#cccccc;stroke-linejoin:miter;"/>
    </g>
    <g id="line2d_53">
     <path d="M 389.208125 137.242971 
L 409.208125 137.242971 
" style="fill:none;stroke:#f97306;stroke-linecap:square;stroke-width:1.5;"/>
    </g>
    <g id="line2d_54"/>
    <g id="text_11">
     <!-- NOx -->
     <defs>
      <path d="M 9.8125 72.90625 
L 23.09375 72.90625 
L 55.421875 11.921875 
L 55.421875 72.90625 
L 64.984375 72.90625 
L 64.984375 0 
L 51.703125 0 
L 19.390625 60.984375 
L 19.390625 0 
L 9.8125 0 
z
" id="DejaVuSans-4e"/>
      <path d="M 54.890625 54.6875 
L 35.109375 28.078125 
L 55.90625 0 
L 45.3125 0 
L 29.390625 21.484375 
L 13.484375 0 
L 2.875 0 
L 24.125 28.609375 
L 4.6875 54.6875 
L 15.28125 54.6875 
L 29.78125 35.203125 
L 44.28125 54.6875 
z
" id="DejaVuSans-78"/>
     </defs>
     <g transform="translate(417.208125 140.742971)scale(0.1 -0.1)">
      <use xlink:href="#DejaVuSans-4e"/>
      <use x="74.804688" xlink:href="#DejaVuSans-4f"/>
      <use x="153.515625" xlink:href="#DejaVuSans-78"/>
     </g>
    </g>
   </g>
  </g>
  <g id="axes_3">
   <g id="patch_14">
    <path d="M 29.25025 309.8635 
L 447.48 309.8635 
L 447.48 224.924017 
L 29.25025 224.924017 
z
" style="fill:none;"/>
   </g>
   <g id="matplotlib.axis_5">
    <g id="xtick_17">
     <g id="line2d_55">
      <path clip-path="url(#pfe7664d1be)" d="M 75.957465 309.8635 
L 75.957465 224.924017 
" style="fill:none;stroke:#b0b0b0;stroke-linecap:square;stroke-width:0.8;"/>
     </g>
     <g id="line2d_56">
      <g>
       <use style="stroke:#000000;stroke-width:0.8;" x="75.957465" xlink:href="#md6c74eff80" y="309.8635"/>
      </g>
     </g>
     <g id="text_12">
      <!-- 2003 -->
      <defs>
       <path d="M 40.578125 39.3125 
Q 47.65625 37.796875 51.625 33 
Q 55.609375 28.21875 55.609375 21.1875 
Q 55.609375 10.40625 48.1875 4.484375 
Q 40.765625 -1.421875 27.09375 -1.421875 
Q 22.515625 -1.421875 17.65625 -0.515625 
Q 12.796875 0.390625 7.625 2.203125 
L 7.625 11.71875 
Q 11.71875 9.328125 16.59375 8.109375 
Q 21.484375 6.890625 26.8125 6.890625 
Q 36.078125 6.890625 40.9375 10.546875 
Q 45.796875 14.203125 45.796875 21.1875 
Q 45.796875 27.640625 41.28125 31.265625 
Q 36.765625 34.90625 28.71875 34.90625 
L 20.21875 34.90625 
L 20.21875 43.015625 
L 29.109375 43.015625 
Q 36.375 43.015625 40.234375 45.921875 
Q 44.09375 48.828125 44.09375 54.296875 
Q 44.09375 59.90625 40.109375 62.90625 
Q 36.140625 65.921875 28.71875 65.921875 
Q 24.65625 65.921875 20.015625 65.03125 
Q 15.375 64.15625 9.8125 62.3125 
L 9.8125 71.09375 
Q 15.4375 72.65625 20.34375 73.4375 
Q 25.25 74.21875 29.59375 74.21875 
Q 40.828125 74.21875 47.359375 69.109375 
Q 53.90625 64.015625 53.90625 55.328125 
Q 53.90625 49.265625 50.4375 45.09375 
Q 46.96875 40.921875 40.578125 39.3125 
z
" id="DejaVuSans-33"/>
      </defs>
      <g transform="translate(63.232465 324.461938)scale(0.1 -0.1)">
       <use xlink:href="#DejaVuSans-32"/>
       <use x="63.623047" xlink:href="#DejaVuSans-30"/>
       <use x="127.246094" xlink:href="#DejaVuSans-30"/>
       <use x="190.869141" xlink:href="#DejaVuSans-33"/>
      </g>
     </g>
    </g>
    <g id="xtick_18">
     <g id="line2d_57">
      <path clip-path="url(#pfe7664d1be)" d="M 124.733143 309.8635 
L 124.733143 224.924017 
" style="fill:none;stroke:#b0b0b0;stroke-linecap:square;stroke-width:0.8;"/>
     </g>
     <g id="line2d_58">
      <g>
       <use style="stroke:#000000;stroke-width:0.8;" x="124.733143" xlink:href="#md6c74eff80" y="309.8635"/>
      </g>
     </g>
     <g id="text_13">
      <!-- 2005 -->
      <g transform="translate(112.008143 324.461938)scale(0.1 -0.1)">
       <use xlink:href="#DejaVuSans-32"/>
       <use x="63.623047" xlink:href="#DejaVuSans-30"/>
       <use x="127.246094" xlink:href="#DejaVuSans-30"/>
       <use x="190.869141" xlink:href="#DejaVuSans-35"/>
      </g>
     </g>
    </g>
    <g id="xtick_19">
     <g id="line2d_59">
      <path clip-path="url(#pfe7664d1be)" d="M 173.442096 309.8635 
L 173.442096 224.924017 
" style="fill:none;stroke:#b0b0b0;stroke-linecap:square;stroke-width:0.8;"/>
     </g>
     <g id="line2d_60">
      <g>
       <use style="stroke:#000000;stroke-width:0.8;" x="173.442096" xlink:href="#md6c74eff80" y="309.8635"/>
      </g>
     </g>
     <g id="text_14">
      <!-- 2007 -->
      <defs>
       <path d="M 8.203125 72.90625 
L 55.078125 72.90625 
L 55.078125 68.703125 
L 28.609375 0 
L 18.3125 0 
L 43.21875 64.59375 
L 8.203125 64.59375 
z
" id="DejaVuSans-37"/>
      </defs>
      <g transform="translate(160.717096 324.461938)scale(0.1 -0.1)">
       <use xlink:href="#DejaVuSans-32"/>
       <use x="63.623047" xlink:href="#DejaVuSans-30"/>
       <use x="127.246094" xlink:href="#DejaVuSans-30"/>
       <use x="190.869141" xlink:href="#DejaVuSans-37"/>
      </g>
     </g>
    </g>
    <g id="xtick_20">
     <g id="line2d_61">
      <path clip-path="url(#pfe7664d1be)" d="M 222.217773 309.8635 
L 222.217773 224.924017 
" style="fill:none;stroke:#b0b0b0;stroke-linecap:square;stroke-width:0.8;"/>
     </g>
     <g id="line2d_62">
      <g>
       <use style="stroke:#000000;stroke-width:0.8;" x="222.217773" xlink:href="#md6c74eff80" y="309.8635"/>
      </g>
     </g>
     <g id="text_15">
      <!-- 2009 -->
      <defs>
       <path d="M 10.984375 1.515625 
L 10.984375 10.5 
Q 14.703125 8.734375 18.5 7.8125 
Q 22.3125 6.890625 25.984375 6.890625 
Q 35.75 6.890625 40.890625 13.453125 
Q 46.046875 20.015625 46.78125 33.40625 
Q 43.953125 29.203125 39.59375 26.953125 
Q 35.25 24.703125 29.984375 24.703125 
Q 19.046875 24.703125 12.671875 31.3125 
Q 6.296875 37.9375 6.296875 49.421875 
Q 6.296875 60.640625 12.9375 67.421875 
Q 19.578125 74.21875 30.609375 74.21875 
Q 43.265625 74.21875 49.921875 64.515625 
Q 56.59375 54.828125 56.59375 36.375 
Q 56.59375 19.140625 48.40625 8.859375 
Q 40.234375 -1.421875 26.421875 -1.421875 
Q 22.703125 -1.421875 18.890625 -0.6875 
Q 15.09375 0.046875 10.984375 1.515625 
z
M 30.609375 32.421875 
Q 37.25 32.421875 41.125 36.953125 
Q 45.015625 41.5 45.015625 49.421875 
Q 45.015625 57.28125 41.125 61.84375 
Q 37.25 66.40625 30.609375 66.40625 
Q 23.96875 66.40625 20.09375 61.84375 
Q 16.21875 57.28125 16.21875 49.421875 
Q 16.21875 41.5 20.09375 36.953125 
Q 23.96875 32.421875 30.609375 32.421875 
z
" id="DejaVuSans-39"/>
      </defs>
      <g transform="translate(209.492773 324.461938)scale(0.1 -0.1)">
       <use xlink:href="#DejaVuSans-32"/>
       <use x="63.623047" xlink:href="#DejaVuSans-30"/>
       <use x="127.246094" xlink:href="#DejaVuSans-30"/>
       <use x="190.869141" xlink:href="#DejaVuSans-39"/>
      </g>
     </g>
    </g>
    <g id="xtick_21">
     <g id="line2d_63">
      <path clip-path="url(#pfe7664d1be)" d="M 270.926726 309.8635 
L 270.926726 224.924017 
" style="fill:none;stroke:#b0b0b0;stroke-linecap:square;stroke-width:0.8;"/>
     </g>
     <g id="line2d_64">
      <g>
       <use style="stroke:#000000;stroke-width:0.8;" x="270.926726" xlink:href="#md6c74eff80" y="309.8635"/>
      </g>
     </g>
     <g id="text_16">
      <!-- 2011 -->
      <g transform="translate(258.201726 324.461938)scale(0.1 -0.1)">
       <use xlink:href="#DejaVuSans-32"/>
       <use x="63.623047" xlink:href="#DejaVuSans-30"/>
       <use x="127.246094" xlink:href="#DejaVuSans-31"/>
       <use x="190.869141" xlink:href="#DejaVuSans-31"/>
      </g>
     </g>
    </g>
    <g id="xtick_22">
     <g id="line2d_65">
      <path clip-path="url(#pfe7664d1be)" d="M 319.702404 309.8635 
L 319.702404 224.924017 
" style="fill:none;stroke:#b0b0b0;stroke-linecap:square;stroke-width:0.8;"/>
     </g>
     <g id="line2d_66">
      <g>
       <use style="stroke:#000000;stroke-width:0.8;" x="319.702404" xlink:href="#md6c74eff80" y="309.8635"/>
      </g>
     </g>
     <g id="text_17">
      <!-- 2013 -->
      <g transform="translate(306.977404 324.461938)scale(0.1 -0.1)">
       <use xlink:href="#DejaVuSans-32"/>
       <use x="63.623047" xlink:href="#DejaVuSans-30"/>
       <use x="127.246094" xlink:href="#DejaVuSans-31"/>
       <use x="190.869141" xlink:href="#DejaVuSans-33"/>
      </g>
     </g>
    </g>
    <g id="xtick_23">
     <g id="line2d_67">
      <path clip-path="url(#pfe7664d1be)" d="M 368.411357 309.8635 
L 368.411357 224.924017 
" style="fill:none;stroke:#b0b0b0;stroke-linecap:square;stroke-width:0.8;"/>
     </g>
     <g id="line2d_68">
      <g>
       <use style="stroke:#000000;stroke-width:0.8;" x="368.411357" xlink:href="#md6c74eff80" y="309.8635"/>
      </g>
     </g>
     <g id="text_18">
      <!-- 2015 -->
      <g transform="translate(355.686357 324.461938)scale(0.1 -0.1)">
       <use xlink:href="#DejaVuSans-32"/>
       <use x="63.623047" xlink:href="#DejaVuSans-30"/>
       <use x="127.246094" xlink:href="#DejaVuSans-31"/>
       <use x="190.869141" xlink:href="#DejaVuSans-35"/>
      </g>
     </g>
    </g>
    <g id="xtick_24">
     <g id="line2d_69">
      <path clip-path="url(#pfe7664d1be)" d="M 417.187035 309.8635 
L 417.187035 224.924017 
" style="fill:none;stroke:#b0b0b0;stroke-linecap:square;stroke-width:0.8;"/>
     </g>
     <g id="line2d_70">
      <g>
       <use style="stroke:#000000;stroke-width:0.8;" x="417.187035" xlink:href="#md6c74eff80" y="309.8635"/>
      </g>
     </g>
     <g id="text_19">
      <!-- 2017 -->
      <g transform="translate(404.462035 324.461938)scale(0.1 -0.1)">
       <use xlink:href="#DejaVuSans-32"/>
       <use x="63.623047" xlink:href="#DejaVuSans-30"/>
       <use x="127.246094" xlink:href="#DejaVuSans-31"/>
       <use x="190.869141" xlink:href="#DejaVuSans-37"/>
      </g>
     </g>
    </g>
    <g id="text_20">
     <!-- Date -->
     <defs>
      <path d="M 19.671875 64.796875 
L 19.671875 8.109375 
L 31.59375 8.109375 
Q 46.6875 8.109375 53.6875 14.9375 
Q 60.6875 21.78125 60.6875 36.53125 
Q 60.6875 51.171875 53.6875 57.984375 
Q 46.6875 64.796875 31.59375 64.796875 
z
M 9.8125 72.90625 
L 30.078125 72.90625 
Q 51.265625 72.90625 61.171875 64.09375 
Q 71.09375 55.28125 71.09375 36.53125 
Q 71.09375 17.671875 61.125 8.828125 
Q 51.171875 0 30.078125 0 
L 9.8125 0 
z
" id="DejaVuSans-44"/>
     </defs>
     <g transform="translate(226.414344 338.140062)scale(0.1 -0.1)">
      <use xlink:href="#DejaVuSans-44"/>
      <use x="77.001953" xlink:href="#DejaVuSans-61"/>
      <use x="138.28125" xlink:href="#DejaVuSans-74"/>
      <use x="177.490234" xlink:href="#DejaVuSans-65"/>
     </g>
    </g>
   </g>
   <g id="matplotlib.axis_6">
    <g id="ytick_9">
     <g id="line2d_71">
      <path clip-path="url(#pfe7664d1be)" d="M 29.25025 306.002614 
L 447.48 306.002614 
" style="fill:none;stroke:#b0b0b0;stroke-linecap:square;stroke-width:0.8;"/>
     </g>
     <g id="line2d_72">
      <g>
       <use style="stroke:#000000;stroke-width:0.8;" x="29.25025" xlink:href="#m40beff15a3" y="306.002614"/>
      </g>
     </g>
     <g id="text_21">
      <!-- 0.0 -->
      <defs>
       <path d="M 10.6875 12.40625 
L 21 12.40625 
L 21 0 
L 10.6875 0 
z
" id="DejaVuSans-2e"/>
      </defs>
      <g transform="translate(6.347125 309.801833)scale(0.1 -0.1)">
       <use xlink:href="#DejaVuSans-30"/>
       <use x="63.623047" xlink:href="#DejaVuSans-2e"/>
       <use x="95.410156" xlink:href="#DejaVuSans-30"/>
      </g>
     </g>
    </g>
    <g id="ytick_10">
     <g id="line2d_73">
      <path clip-path="url(#pfe7664d1be)" d="M 29.25025 274.813419 
L 447.48 274.813419 
" style="fill:none;stroke:#b0b0b0;stroke-linecap:square;stroke-width:0.8;"/>
     </g>
     <g id="line2d_74">
      <g>
       <use style="stroke:#000000;stroke-width:0.8;" x="29.25025" xlink:href="#m40beff15a3" y="274.813419"/>
      </g>
     </g>
     <g id="text_22">
      <!-- 0.5 -->
      <g transform="translate(6.347125 278.612638)scale(0.1 -0.1)">
       <use xlink:href="#DejaVuSans-30"/>
       <use x="63.623047" xlink:href="#DejaVuSans-2e"/>
       <use x="95.410156" xlink:href="#DejaVuSans-35"/>
      </g>
     </g>
    </g>
    <g id="ytick_11">
     <g id="line2d_75">
      <path clip-path="url(#pfe7664d1be)" d="M 29.25025 243.624225 
L 447.48 243.624225 
" style="fill:none;stroke:#b0b0b0;stroke-linecap:square;stroke-width:0.8;"/>
     </g>
     <g id="line2d_76">
      <g>
       <use style="stroke:#000000;stroke-width:0.8;" x="29.25025" xlink:href="#m40beff15a3" y="243.624225"/>
      </g>
     </g>
     <g id="text_23">
      <!-- 1.0 -->
      <g transform="translate(6.347125 247.423443)scale(0.1 -0.1)">
       <use xlink:href="#DejaVuSans-31"/>
       <use x="63.623047" xlink:href="#DejaVuSans-2e"/>
       <use x="95.410156" xlink:href="#DejaVuSans-30"/>
      </g>
     </g>
    </g>
   </g>
   <g id="line2d_77">
    <path clip-path="url(#pfe7664d1be)" d="M 29.25025 265.010577 
L 31.118539 232.104602 
L 35.188739 275.384603 
L 37.257201 274.386859 
L 39.258939 270.380317 
L 41.327401 274.888265 
L 43.395864 280.16006 
L 45.397602 298.770449 
L 47.466064 305.454432 
L 49.467802 305.439901 
L 51.536264 303.718117 
L 53.604727 306.002614 
L 57.541478 306.002614 
L 59.543215 301.280758 
L 61.611678 272.054822 
L 63.613415 266.101802 
L 65.681878 228.784902 
L 67.75034 238.096939 
L 69.752078 254.438851 
L 71.82054 238.781741 
L 73.822278 285.836672 
L 75.890741 306.002614 
L 81.895954 306.002614 
L 83.897692 287.501479 
L 85.966154 288.827144 
L 87.967892 270.695364 
L 90.036354 247.479593 
L 92.104817 255.079273 
L 94.106555 269.013433 
L 96.175017 273.828993 
L 98.176755 283.42339 
L 100.245217 290.098966 
L 102.31368 258.61079 
L 104.248693 236.313664 
L 106.317155 259.40368 
L 108.318893 274.617015 
L 110.387355 270.60378 
L 112.389093 266.216811 
L 114.457555 240.856641 
L 116.526018 257.698443 
L 118.527756 270.467364 
L 120.596218 267.461694 
L 122.597956 296.481576 
L 124.666418 281.622303 
L 126.734881 258.753365 
L 128.603169 277.813252 
L 130.671632 272.105758 
L 132.673369 259.665092 
L 134.741832 276.173728 
L 136.74357 275.762581 
L 138.812032 269.521302 
L 140.880494 268.651658 
L 142.882232 280.344476 
L 144.950695 280.951341 
L 146.952432 282.433515 
L 149.020895 277.593846 
L 151.089357 281.10979 
L 152.957646 278.420557 
L 155.026108 291.97053 
L 157.027846 270.12409 
L 159.096308 295.928797 
L 161.098046 269.182477 
L 163.166508 266.082554 
L 165.234971 283.412729 
L 167.236709 277.432829 
L 169.305171 281.924542 
L 171.306909 283.221992 
L 173.375371 272.883492 
L 175.443834 269.24722 
L 177.312122 288.811358 
L 179.380585 288.178099 
L 181.382322 274.236143 
L 183.450785 270.860523 
L 185.452523 269.368305 
L 187.520985 259.838565 
L 189.589447 265.709677 
L 191.591185 258.69076 
L 193.659648 265.683376 
L 195.661385 294.616144 
L 197.729848 278.357797 
L 199.79831 270.958796 
L 201.733323 264.861759 
L 203.801786 285.914954 
L 205.803524 252.528109 
L 207.871986 270.30672 
L 209.873724 267.748418 
L 211.942186 260.789163 
L 214.010648 269.102163 
L 216.012386 266.576858 
L 218.080849 268.461439 
L 220.082586 282.430989 
L 222.151049 261.638693 
L 224.219511 274.861721 
L 226.0878 271.943628 
L 228.156262 306.002614 
L 230.158 302.282151 
L 232.226462 261.987772 
L 234.2282 283.115988 
L 236.296663 244.784075 
L 238.365125 261.416989 
L 240.366863 260.451856 
L 244.437063 287.492542 
L 246.505525 302.103409 
L 248.573988 302.011862 
L 250.442276 306.002614 
L 252.510739 293.589996 
L 254.512477 304.830531 
L 256.580939 299.901863 
L 258.582677 288.139502 
L 260.651139 268.572339 
L 262.719602 266.882404 
L 264.721339 274.90143 
L 266.789802 281.263021 
L 268.791539 298.349817 
L 270.860002 306.002614 
L 272.928464 302.000752 
L 274.796753 301.410698 
L 276.865215 305.20658 
L 278.866953 295.520318 
L 280.935415 291.419403 
L 282.937153 278.759715 
L 285.005616 271.874035 
L 287.074078 259.865973 
L 289.075816 261.631066 
L 291.144278 281.989223 
L 293.146016 282.809042 
L 295.214478 298.077956 
L 297.282941 306.002614 
L 299.217954 276.780975 
L 301.286416 248.707035 
L 303.288154 251.362107 
L 305.356617 245.284808 
L 307.358354 236.839175 
L 309.426817 247.306323 
L 311.495279 245.574969 
L 313.497017 248.241223 
L 315.565479 254.665903 
L 317.567217 286.61497 
L 319.635679 306.002614 
L 321.704142 306.002614 
L 323.57243 301.988804 
L 325.640893 301.445409 
L 327.642631 288.990618 
L 329.711093 278.632995 
L 331.712831 271.447039 
L 333.781293 258.898184 
L 335.849756 262.810889 
L 337.851493 265.578771 
L 339.919956 284.162149 
L 341.921694 293.501965 
L 343.990156 304.492635 
L 346.058618 303.547789 
L 347.926907 294.265494 
L 349.995369 303.007677 
L 351.997107 286.41283 
L 354.06557 277.376723 
L 356.067307 258.081503 
L 358.13577 253.077613 
L 360.204232 256.058491 
L 362.20597 259.898264 
L 364.274432 264.755095 
L 366.27617 283.119379 
L 368.344632 306.002614 
L 370.413095 306.002614 
L 372.281383 304.674945 
L 374.349846 288.747126 
L 376.351584 256.581769 
L 378.420046 284.673685 
L 380.421784 249.760627 
L 382.490246 252.305017 
L 386.560446 250.400461 
L 388.628909 254.746838 
L 390.630647 298.458233 
L 392.699109 270.854381 
L 394.767571 302.564486 
L 396.702585 266.334131 
L 398.771047 242.380724 
L 400.772785 239.838008 
L 402.841247 249.766318 
L 404.842985 242.274801 
L 406.911447 240.766156 
L 408.97991 241.698576 
L 410.981648 245.209506 
L 413.05011 254.972456 
L 415.051848 295.270597 
L 417.12031 306.002614 
L 419.188772 305.973064 
L 421.057061 303.46158 
L 423.125523 286.028167 
L 425.127261 274.28675 
L 427.195724 247.743735 
L 429.197461 241.635065 
L 431.265924 239.93075 
L 433.334386 243.231859 
L 435.336124 249.926688 
L 437.404586 243.00478 
L 439.406324 272.902142 
L 441.474787 300.972996 
L 443.543249 306.002614 
L 447.48 306.002614 
L 447.48 306.002614 
" style="fill:none;stroke:#4682b4;stroke-linecap:square;stroke-width:1.5;"/>
   </g>
   <g id="patch_15">
    <path d="M 29.25025 309.8635 
L 29.25025 224.924017 
" style="fill:none;stroke:#000000;stroke-linecap:square;stroke-linejoin:miter;stroke-width:0.8;"/>
   </g>
   <g id="patch_16">
    <path d="M 447.48 309.8635 
L 447.48 224.924017 
" style="fill:none;stroke:#000000;stroke-linecap:square;stroke-linejoin:miter;stroke-width:0.8;"/>
   </g>
   <g id="patch_17">
    <path d="M 29.25025 309.8635 
L 447.48 309.8635 
" style="fill:none;stroke:#000000;stroke-linecap:square;stroke-linejoin:miter;stroke-width:0.8;"/>
   </g>
   <g id="patch_18">
    <path d="M 29.25025 224.924017 
L 447.48 224.924017 
" style="fill:none;stroke:#000000;stroke-linecap:square;stroke-linejoin:miter;stroke-width:0.8;"/>
   </g>
   <g id="legend_3">
    <g id="patch_19">
     <path d="M 211.756531 247.602142 
L 264.973719 247.602142 
Q 266.973719 247.602142 266.973719 245.602142 
L 266.973719 231.924017 
Q 266.973719 229.924017 264.973719 229.924017 
L 211.756531 229.924017 
Q 209.756531 229.924017 209.756531 231.924017 
L 209.756531 245.602142 
Q 209.756531 247.602142 211.756531 247.602142 
z
" style="fill:#ffffff;opacity:0.8;stroke:#cccccc;stroke-linejoin:miter;"/>
    </g>
    <g id="line2d_78">
     <path d="M 213.756531 238.022454 
L 233.756531 238.022454 
" style="fill:none;stroke:#4682b4;stroke-linecap:square;stroke-width:1.5;"/>
    </g>
    <g id="line2d_79"/>
    <g id="text_24">
     <!-- CO2 -->
     <defs>
      <path d="M 64.40625 67.28125 
L 64.40625 56.890625 
Q 59.421875 61.53125 53.78125 63.8125 
Q 48.140625 66.109375 41.796875 66.109375 
Q 29.296875 66.109375 22.65625 58.46875 
Q 16.015625 50.828125 16.015625 36.375 
Q 16.015625 21.96875 22.65625 14.328125 
Q 29.296875 6.6875 41.796875 6.6875 
Q 48.140625 6.6875 53.78125 8.984375 
Q 59.421875 11.28125 64.40625 15.921875 
L 64.40625 5.609375 
Q 59.234375 2.09375 53.4375 0.328125 
Q 47.65625 -1.421875 41.21875 -1.421875 
Q 24.65625 -1.421875 15.125 8.703125 
Q 5.609375 18.84375 5.609375 36.375 
Q 5.609375 53.953125 15.125 64.078125 
Q 24.65625 74.21875 41.21875 74.21875 
Q 47.75 74.21875 53.53125 72.484375 
Q 59.328125 70.75 64.40625 67.28125 
z
" id="DejaVuSans-43"/>
     </defs>
     <g transform="translate(241.756531 241.522454)scale(0.1 -0.1)">
      <use xlink:href="#DejaVuSans-43"/>
      <use x="69.824219" xlink:href="#DejaVuSans-4f"/>
      <use x="148.535156" xlink:href="#DejaVuSans-32"/>
     </g>
    </g>
   </g>
  </g>
 </g>
 <defs>
  <clipPath id="p30a1cda97b">
   <rect height="84.939483" width="418.22975" x="29.25025" y="23.36505"/>
  </clipPath>
  <clipPath id="p5792d79246">
   <rect height="84.939483" width="418.22975" x="29.25025" y="124.144533"/>
  </clipPath>
  <clipPath id="pfe7664d1be">
   <rect height="84.939483" width="418.22975" x="29.25025" y="224.924017"/>
  </clipPath>
 </defs>
</svg>
