<?xml version="1.0" encoding="utf-8" standalone="no"?>
<!DOCTYPE svg PUBLIC "-//W3C//DTD SVG 1.1//EN"
  "http://www.w3.org/Graphics/SVG/1.1/DTD/svg11.dtd">
<!-- Created with matplotlib (http://matplotlib.org/) -->
<svg height="345.6pt" version="1.1" viewBox="0 0 460.8 345.6" width="460.8pt" xmlns="http://www.w3.org/2000/svg" xmlns:xlink="http://www.w3.org/1999/xlink">
 <defs>
  <style type="text/css">
*{stroke-linecap:butt;stroke-linejoin:round;}
  </style>
 </defs>
 <g id="figure_1">
  <g id="patch_1">
   <path d="M 0 345.6 
L 460.8 345.6 
L 460.8 0 
L 0 0 
z
" style="fill:none;"/>
  </g>
  <g id="axes_1">
   <g id="patch_2">
    <path d="M 22.381 108.304533 
L 447.48 108.304533 
L 447.48 23.36505 
L 22.381 23.36505 
z
" style="fill:none;"/>
   </g>
   <g id="matplotlib.axis_1">
    <g id="xtick_1">
     <g id="line2d_1">
      <path clip-path="url(#p23a2586c7f)" d="M 69.855362 108.304533 
L 69.855362 23.36505 
" style="fill:none;stroke:#b0b0b0;stroke-linecap:square;stroke-width:0.8;"/>
     </g>
     <g id="line2d_2">
      <defs>
       <path d="M 0 0 
L 0 3.5 
" id="mbb405548db" style="stroke:#000000;stroke-width:0.8;"/>
      </defs>
      <g>
       <use style="stroke:#000000;stroke-width:0.8;" x="69.855362" xlink:href="#mbb405548db" y="108.304533"/>
      </g>
     </g>
    </g>
    <g id="xtick_2">
     <g id="line2d_3">
      <path clip-path="url(#p23a2586c7f)" d="M 119.43216 108.304533 
L 119.43216 23.36505 
" style="fill:none;stroke:#b0b0b0;stroke-linecap:square;stroke-width:0.8;"/>
     </g>
     <g id="line2d_4">
      <g>
       <use style="stroke:#000000;stroke-width:0.8;" x="119.43216" xlink:href="#mbb405548db" y="108.304533"/>
      </g>
     </g>
    </g>
    <g id="xtick_3">
     <g id="line2d_5">
      <path clip-path="url(#p23a2586c7f)" d="M 168.941137 108.304533 
L 168.941137 23.36505 
" style="fill:none;stroke:#b0b0b0;stroke-linecap:square;stroke-width:0.8;"/>
     </g>
     <g id="line2d_6">
      <g>
       <use style="stroke:#000000;stroke-width:0.8;" x="168.941137" xlink:href="#mbb405548db" y="108.304533"/>
      </g>
     </g>
    </g>
    <g id="xtick_4">
     <g id="line2d_7">
      <path clip-path="url(#p23a2586c7f)" d="M 218.517935 108.304533 
L 218.517935 23.36505 
" style="fill:none;stroke:#b0b0b0;stroke-linecap:square;stroke-width:0.8;"/>
     </g>
     <g id="line2d_8">
      <g>
       <use style="stroke:#000000;stroke-width:0.8;" x="218.517935" xlink:href="#mbb405548db" y="108.304533"/>
      </g>
     </g>
    </g>
    <g id="xtick_5">
     <g id="line2d_9">
      <path clip-path="url(#p23a2586c7f)" d="M 268.026912 108.304533 
L 268.026912 23.36505 
" style="fill:none;stroke:#b0b0b0;stroke-linecap:square;stroke-width:0.8;"/>
     </g>
     <g id="line2d_10">
      <g>
       <use style="stroke:#000000;stroke-width:0.8;" x="268.026912" xlink:href="#mbb405548db" y="108.304533"/>
      </g>
     </g>
    </g>
    <g id="xtick_6">
     <g id="line2d_11">
      <path clip-path="url(#p23a2586c7f)" d="M 317.60371 108.304533 
L 317.60371 23.36505 
" style="fill:none;stroke:#b0b0b0;stroke-linecap:square;stroke-width:0.8;"/>
     </g>
     <g id="line2d_12">
      <g>
       <use style="stroke:#000000;stroke-width:0.8;" x="317.60371" xlink:href="#mbb405548db" y="108.304533"/>
      </g>
     </g>
    </g>
    <g id="xtick_7">
     <g id="line2d_13">
      <path clip-path="url(#p23a2586c7f)" d="M 367.112687 108.304533 
L 367.112687 23.36505 
" style="fill:none;stroke:#b0b0b0;stroke-linecap:square;stroke-width:0.8;"/>
     </g>
     <g id="line2d_14">
      <g>
       <use style="stroke:#000000;stroke-width:0.8;" x="367.112687" xlink:href="#mbb405548db" y="108.304533"/>
      </g>
     </g>
    </g>
    <g id="xtick_8">
     <g id="line2d_15">
      <path clip-path="url(#p23a2586c7f)" d="M 416.689485 108.304533 
L 416.689485 23.36505 
" style="fill:none;stroke:#b0b0b0;stroke-linecap:square;stroke-width:0.8;"/>
     </g>
     <g id="line2d_16">
      <g>
       <use style="stroke:#000000;stroke-width:0.8;" x="416.689485" xlink:href="#mbb405548db" y="108.304533"/>
      </g>
     </g>
    </g>
   </g>
   <g id="matplotlib.axis_2">
    <g id="ytick_1">
     <g id="line2d_17">
      <path clip-path="url(#p23a2586c7f)" d="M 22.381 74.285803 
L 447.48 74.285803 
" style="fill:none;stroke:#b0b0b0;stroke-linecap:square;stroke-width:0.8;"/>
     </g>
     <g id="line2d_18">
      <defs>
       <path d="M 0 0 
L -3.5 0 
" id="mfb23ccae18" style="stroke:#000000;stroke-width:0.8;"/>
      </defs>
      <g>
       <use style="stroke:#000000;stroke-width:0.8;" x="22.381" xlink:href="#mfb23ccae18" y="74.285803"/>
      </g>
     </g>
     <g id="text_1">
      <!-- 1 -->
      <defs>
       <path d="M 12.40625 8.296875 
L 28.515625 8.296875 
L 28.515625 63.921875 
L 10.984375 60.40625 
L 10.984375 69.390625 
L 28.421875 72.90625 
L 38.28125 72.90625 
L 38.28125 8.296875 
L 54.390625 8.296875 
L 54.390625 0 
L 12.40625 0 
z
" id="DejaVuSans-31"/>
      </defs>
      <g transform="translate(9.0185 78.085022)scale(0.1 -0.1)">
       <use xlink:href="#DejaVuSans-31"/>
      </g>
     </g>
    </g>
    <g id="ytick_2">
     <g id="line2d_19">
      <path clip-path="url(#p23a2586c7f)" d="M 22.381 36.352171 
L 447.48 36.352171 
" style="fill:none;stroke:#b0b0b0;stroke-linecap:square;stroke-width:0.8;"/>
     </g>
     <g id="line2d_20">
      <g>
       <use style="stroke:#000000;stroke-width:0.8;" x="22.381" xlink:href="#mfb23ccae18" y="36.352171"/>
      </g>
     </g>
     <g id="text_2">
      <!-- 2 -->
      <defs>
       <path d="M 19.1875 8.296875 
L 53.609375 8.296875 
L 53.609375 0 
L 7.328125 0 
L 7.328125 8.296875 
Q 12.9375 14.109375 22.625 23.890625 
Q 32.328125 33.6875 34.8125 36.53125 
Q 39.546875 41.84375 41.421875 45.53125 
Q 43.3125 49.21875 43.3125 52.78125 
Q 43.3125 58.59375 39.234375 62.25 
Q 35.15625 65.921875 28.609375 65.921875 
Q 23.96875 65.921875 18.8125 64.3125 
Q 13.671875 62.703125 7.8125 59.421875 
L 7.8125 69.390625 
Q 13.765625 71.78125 18.9375 73 
Q 24.125 74.21875 28.421875 74.21875 
Q 39.75 74.21875 46.484375 68.546875 
Q 53.21875 62.890625 53.21875 53.421875 
Q 53.21875 48.921875 51.53125 44.890625 
Q 49.859375 40.875 45.40625 35.40625 
Q 44.1875 33.984375 37.640625 27.21875 
Q 31.109375 20.453125 19.1875 8.296875 
z
" id="DejaVuSans-32"/>
      </defs>
      <g transform="translate(9.0185 40.15139)scale(0.1 -0.1)">
       <use xlink:href="#DejaVuSans-32"/>
      </g>
     </g>
    </g>
   </g>
   <g id="line2d_21">
    <path clip-path="url(#p23a2586c7f)" d="M 22.381 85.512703 
L 24.279974 69.484755 
L 26.38241 73.870045 
L 30.519462 58.645695 
L 32.554078 52.19895 
L 34.656514 39.677165 
L 38.793565 74.988538 
L 40.896001 74.102159 
L 45.033053 100.551227 
L 47.135489 91.507139 
L 49.034463 79.958753 
L 51.136899 73.453352 
L 53.171515 74.323374 
L 55.273951 83.034921 
L 57.308566 62.430672 
L 59.411002 50.020113 
L 61.513438 54.956414 
L 63.548054 75.329258 
L 65.65049 76.914655 
L 67.685105 82.262145 
L 69.787541 88.951117 
L 71.889977 89.687115 
L 73.788952 78.972033 
L 75.891388 85.559783 
L 77.926003 81.445647 
L 80.028439 68.08693 
L 82.063055 78.168648 
L 84.165491 52.156268 
L 86.267927 43.201751 
L 88.302542 84.277836 
L 90.404978 98.824003 
L 92.439594 98.731088 
L 94.54203 84.635692 
L 96.644466 80.340096 
L 98.611261 78.022456 
L 100.713697 76.33576 
L 102.748313 78.163555 
L 104.850749 65.859334 
L 106.885364 61.695139 
L 108.9878 55.705386 
L 111.090236 66.820137 
L 113.124852 80.414706 
L 115.227288 79.545461 
L 117.261903 82.042082 
L 119.364339 83.39411 
L 121.466775 74.886256 
L 123.36575 82.037445 
L 125.468186 84.881402 
L 127.502801 73.920364 
L 129.605237 74.870676 
L 131.639853 51.182118 
L 133.742289 40.89059 
L 135.844725 62.554568 
L 137.87934 60.447882 
L 139.981776 66.880191 
L 142.016392 64.544949 
L 144.118828 87.273636 
L 146.221264 79.374308 
L 148.120238 75.812659 
L 150.222674 81.856225 
L 152.25729 70.411009 
L 154.359726 71.988778 
L 156.394341 56.547577 
L 158.496777 44.214562 
L 160.599213 61.070788 
L 162.633829 86.045423 
L 164.736265 70.178612 
L 166.770881 64.708167 
L 168.873317 69.891204 
L 170.975753 79.133753 
L 172.874727 78.695606 
L 174.977163 86.709131 
L 177.011779 101.072863 
L 179.114215 82.764169 
L 181.14883 67.835764 
L 183.251266 34.842332 
L 185.353702 27.225936 
L 189.490754 65.562012 
L 191.525369 56.037434 
L 193.627805 63.220427 
L 195.730241 74.988971 
L 197.697036 68.216618 
L 199.799472 69.641811 
L 201.834088 58.660976 
L 203.936524 43.556578 
L 205.971139 51.250203 
L 208.073575 46.674272 
L 210.176011 52.24091 
L 212.210627 76.904238 
L 214.313063 79.944874 
L 216.347678 74.664328 
L 218.450114 85.255095 
L 220.55255 82.888582 
L 222.451525 91.153205 
L 224.553961 88.488137 
L 226.588576 93.01566 
L 228.691012 81.141133 
L 230.725628 74.816071 
L 232.828064 77.550488 
L 234.9305 69.037252 
L 236.965116 87.68761 
L 239.067552 89.644058 
L 241.102167 85.784672 
L 243.204603 83.54804 
L 245.307039 86.402007 
L 247.206014 61.185606 
L 249.30845 75.586675 
L 251.343065 101.424648 
L 253.445501 87.231202 
L 255.480117 84.688339 
L 257.582553 75.620668 
L 259.684989 73.609435 
L 261.719604 80.371794 
L 263.82204 81.994292 
L 265.856656 85.018053 
L 267.959092 83.719023 
L 270.061528 85.914779 
L 271.960502 89.562949 
L 274.062938 79.066901 
L 276.097554 92.263149 
L 278.19999 78.918693 
L 280.234605 67.216731 
L 282.337041 57.18503 
L 284.439477 51.922796 
L 286.474093 77.051005 
L 288.576529 76.509009 
L 290.611144 86.744366 
L 292.71358 72.913209 
L 294.816016 99.733024 
L 296.782811 100.717508 
L 298.885247 78.135558 
L 300.919863 63.262625 
L 303.022299 72.864542 
L 305.056914 70.756178 
L 307.159351 64.974562 
L 309.261787 63.917673 
L 311.296402 78.464758 
L 313.398838 87.530791 
L 315.433454 98.730268 
L 317.53589 87.423147 
L 319.638326 86.080437 
L 321.5373 85.564635 
L 323.639736 78.514406 
L 325.674352 69.386332 
L 327.776788 82.0199 
L 329.811403 79.092982 
L 331.913839 75.710862 
L 334.016275 75.310428 
L 336.050891 89.437751 
L 338.153327 85.316338 
L 340.187942 80.861096 
L 344.392814 93.342063 
L 346.291789 84.614358 
L 348.394225 89.266229 
L 350.42884 84.547309 
L 352.531276 85.395428 
L 354.565892 91.930625 
L 356.668328 87.975358 
L 358.770764 67.798219 
L 360.805379 104.443648 
L 362.907815 83.420001 
L 364.942431 43.889719 
L 367.044867 46.938225 
L 369.147303 94.173297 
L 371.046277 94.356485 
L 373.148713 83.724859 
L 375.183329 75.172304 
L 377.285765 97.924501 
L 379.320381 81.886826 
L 381.422817 72.327232 
L 383.525253 69.111922 
L 385.559868 84.363543 
L 387.662304 80.272734 
L 389.69692 92.099053 
L 391.799356 78.213458 
L 393.901792 84.606912 
L 395.868587 98.148604 
L 397.971023 80.369556 
L 400.005638 65.311393 
L 402.108074 78.40614 
L 404.14269 62.695871 
L 406.245126 64.469318 
L 408.347562 68.400229 
L 410.382177 85.429785 
L 412.484613 52.169922 
L 414.519229 34.713468 
L 416.621665 76.391508 
L 418.724101 75.055086 
L 420.623075 93.93899 
L 422.725511 91.801402 
L 424.760127 93.367737 
L 426.862563 99.835228 
L 428.897178 69.141915 
L 430.999614 55.073689 
L 433.10205 78.69825 
L 435.136666 82.257169 
L 437.239102 74.666607 
L 439.273717 100.955778 
L 441.376153 94.199471 
L 443.47859 94.94629 
L 445.377564 91.196296 
L 447.48 89.113942 
L 447.48 89.113942 
" style="fill:none;stroke:#008000;stroke-linecap:square;stroke-width:1.5;"/>
   </g>
   <g id="patch_3">
    <path d="M 22.381 108.304533 
L 22.381 23.36505 
" style="fill:none;stroke:#000000;stroke-linecap:square;stroke-linejoin:miter;stroke-width:0.8;"/>
   </g>
   <g id="patch_4">
    <path d="M 447.48 108.304533 
L 447.48 23.36505 
" style="fill:none;stroke:#000000;stroke-linecap:square;stroke-linejoin:miter;stroke-width:0.8;"/>
   </g>
   <g id="patch_5">
    <path d="M 22.381 108.304533 
L 447.48 108.304533 
" style="fill:none;stroke:#000000;stroke-linecap:square;stroke-linejoin:miter;stroke-width:0.8;"/>
   </g>
   <g id="patch_6">
    <path d="M 22.381 23.36505 
L 447.48 23.36505 
" style="fill:none;stroke:#000000;stroke-linecap:square;stroke-linejoin:miter;stroke-width:0.8;"/>
   </g>
   <g id="text_3">
    <!-- Average monthly normalized emissions -->
    <defs>
     <path d="M 34.1875 63.1875 
L 20.796875 26.90625 
L 47.609375 26.90625 
z
M 28.609375 72.90625 
L 39.796875 72.90625 
L 67.578125 0 
L 57.328125 0 
L 50.6875 18.703125 
L 17.828125 18.703125 
L 11.1875 0 
L 0.78125 0 
z
" id="DejaVuSans-41"/>
     <path d="M 2.984375 54.6875 
L 12.5 54.6875 
L 29.59375 8.796875 
L 46.6875 54.6875 
L 56.203125 54.6875 
L 35.6875 0 
L 23.484375 0 
z
" id="DejaVuSans-76"/>
     <path d="M 56.203125 29.59375 
L 56.203125 25.203125 
L 14.890625 25.203125 
Q 15.484375 15.921875 20.484375 11.0625 
Q 25.484375 6.203125 34.421875 6.203125 
Q 39.59375 6.203125 44.453125 7.46875 
Q 49.3125 8.734375 54.109375 11.28125 
L 54.109375 2.78125 
Q 49.265625 0.734375 44.1875 -0.34375 
Q 39.109375 -1.421875 33.890625 -1.421875 
Q 20.796875 -1.421875 13.15625 6.1875 
Q 5.515625 13.8125 5.515625 26.8125 
Q 5.515625 40.234375 12.765625 48.109375 
Q 20.015625 56 32.328125 56 
Q 43.359375 56 49.78125 48.890625 
Q 56.203125 41.796875 56.203125 29.59375 
z
M 47.21875 32.234375 
Q 47.125 39.59375 43.09375 43.984375 
Q 39.0625 48.390625 32.421875 48.390625 
Q 24.90625 48.390625 20.390625 44.140625 
Q 15.875 39.890625 15.1875 32.171875 
z
" id="DejaVuSans-65"/>
     <path d="M 41.109375 46.296875 
Q 39.59375 47.171875 37.8125 47.578125 
Q 36.03125 48 33.890625 48 
Q 26.265625 48 22.1875 43.046875 
Q 18.109375 38.09375 18.109375 28.8125 
L 18.109375 0 
L 9.078125 0 
L 9.078125 54.6875 
L 18.109375 54.6875 
L 18.109375 46.1875 
Q 20.953125 51.171875 25.484375 53.578125 
Q 30.03125 56 36.53125 56 
Q 37.453125 56 38.578125 55.875 
Q 39.703125 55.765625 41.0625 55.515625 
z
" id="DejaVuSans-72"/>
     <path d="M 34.28125 27.484375 
Q 23.390625 27.484375 19.1875 25 
Q 14.984375 22.515625 14.984375 16.5 
Q 14.984375 11.71875 18.140625 8.90625 
Q 21.296875 6.109375 26.703125 6.109375 
Q 34.1875 6.109375 38.703125 11.40625 
Q 43.21875 16.703125 43.21875 25.484375 
L 43.21875 27.484375 
z
M 52.203125 31.203125 
L 52.203125 0 
L 43.21875 0 
L 43.21875 8.296875 
Q 40.140625 3.328125 35.546875 0.953125 
Q 30.953125 -1.421875 24.3125 -1.421875 
Q 15.921875 -1.421875 10.953125 3.296875 
Q 6 8.015625 6 15.921875 
Q 6 25.140625 12.171875 29.828125 
Q 18.359375 34.515625 30.609375 34.515625 
L 43.21875 34.515625 
L 43.21875 35.40625 
Q 43.21875 41.609375 39.140625 45 
Q 35.0625 48.390625 27.6875 48.390625 
Q 23 48.390625 18.546875 47.265625 
Q 14.109375 46.140625 10.015625 43.890625 
L 10.015625 52.203125 
Q 14.9375 54.109375 19.578125 55.046875 
Q 24.21875 56 28.609375 56 
Q 40.484375 56 46.34375 49.84375 
Q 52.203125 43.703125 52.203125 31.203125 
z
" id="DejaVuSans-61"/>
     <path d="M 45.40625 27.984375 
Q 45.40625 37.75 41.375 43.109375 
Q 37.359375 48.484375 30.078125 48.484375 
Q 22.859375 48.484375 18.828125 43.109375 
Q 14.796875 37.75 14.796875 27.984375 
Q 14.796875 18.265625 18.828125 12.890625 
Q 22.859375 7.515625 30.078125 7.515625 
Q 37.359375 7.515625 41.375 12.890625 
Q 45.40625 18.265625 45.40625 27.984375 
z
M 54.390625 6.78125 
Q 54.390625 -7.171875 48.1875 -13.984375 
Q 42 -20.796875 29.203125 -20.796875 
Q 24.46875 -20.796875 20.265625 -20.09375 
Q 16.0625 -19.390625 12.109375 -17.921875 
L 12.109375 -9.1875 
Q 16.0625 -11.328125 19.921875 -12.34375 
Q 23.78125 -13.375 27.78125 -13.375 
Q 36.625 -13.375 41.015625 -8.765625 
Q 45.40625 -4.15625 45.40625 5.171875 
L 45.40625 9.625 
Q 42.625 4.78125 38.28125 2.390625 
Q 33.9375 0 27.875 0 
Q 17.828125 0 11.671875 7.65625 
Q 5.515625 15.328125 5.515625 27.984375 
Q 5.515625 40.671875 11.671875 48.328125 
Q 17.828125 56 27.875 56 
Q 33.9375 56 38.28125 53.609375 
Q 42.625 51.21875 45.40625 46.390625 
L 45.40625 54.6875 
L 54.390625 54.6875 
z
" id="DejaVuSans-67"/>
     <path id="DejaVuSans-20"/>
     <path d="M 52 44.1875 
Q 55.375 50.25 60.0625 53.125 
Q 64.75 56 71.09375 56 
Q 79.640625 56 84.28125 50.015625 
Q 88.921875 44.046875 88.921875 33.015625 
L 88.921875 0 
L 79.890625 0 
L 79.890625 32.71875 
Q 79.890625 40.578125 77.09375 44.375 
Q 74.3125 48.1875 68.609375 48.1875 
Q 61.625 48.1875 57.5625 43.546875 
Q 53.515625 38.921875 53.515625 30.90625 
L 53.515625 0 
L 44.484375 0 
L 44.484375 32.71875 
Q 44.484375 40.625 41.703125 44.40625 
Q 38.921875 48.1875 33.109375 48.1875 
Q 26.21875 48.1875 22.15625 43.53125 
Q 18.109375 38.875 18.109375 30.90625 
L 18.109375 0 
L 9.078125 0 
L 9.078125 54.6875 
L 18.109375 54.6875 
L 18.109375 46.1875 
Q 21.1875 51.21875 25.484375 53.609375 
Q 29.78125 56 35.6875 56 
Q 41.65625 56 45.828125 52.96875 
Q 50 49.953125 52 44.1875 
z
" id="DejaVuSans-6d"/>
     <path d="M 30.609375 48.390625 
Q 23.390625 48.390625 19.1875 42.75 
Q 14.984375 37.109375 14.984375 27.296875 
Q 14.984375 17.484375 19.15625 11.84375 
Q 23.34375 6.203125 30.609375 6.203125 
Q 37.796875 6.203125 41.984375 11.859375 
Q 46.1875 17.53125 46.1875 27.296875 
Q 46.1875 37.015625 41.984375 42.703125 
Q 37.796875 48.390625 30.609375 48.390625 
z
M 30.609375 56 
Q 42.328125 56 49.015625 48.375 
Q 55.71875 40.765625 55.71875 27.296875 
Q 55.71875 13.875 49.015625 6.21875 
Q 42.328125 -1.421875 30.609375 -1.421875 
Q 18.84375 -1.421875 12.171875 6.21875 
Q 5.515625 13.875 5.515625 27.296875 
Q 5.515625 40.765625 12.171875 48.375 
Q 18.84375 56 30.609375 56 
z
" id="DejaVuSans-6f"/>
     <path d="M 54.890625 33.015625 
L 54.890625 0 
L 45.90625 0 
L 45.90625 32.71875 
Q 45.90625 40.484375 42.875 44.328125 
Q 39.84375 48.1875 33.796875 48.1875 
Q 26.515625 48.1875 22.3125 43.546875 
Q 18.109375 38.921875 18.109375 30.90625 
L 18.109375 0 
L 9.078125 0 
L 9.078125 54.6875 
L 18.109375 54.6875 
L 18.109375 46.1875 
Q 21.34375 51.125 25.703125 53.5625 
Q 30.078125 56 35.796875 56 
Q 45.21875 56 50.046875 50.171875 
Q 54.890625 44.34375 54.890625 33.015625 
z
" id="DejaVuSans-6e"/>
     <path d="M 18.3125 70.21875 
L 18.3125 54.6875 
L 36.8125 54.6875 
L 36.8125 47.703125 
L 18.3125 47.703125 
L 18.3125 18.015625 
Q 18.3125 11.328125 20.140625 9.421875 
Q 21.96875 7.515625 27.59375 7.515625 
L 36.8125 7.515625 
L 36.8125 0 
L 27.59375 0 
Q 17.1875 0 13.234375 3.875 
Q 9.28125 7.765625 9.28125 18.015625 
L 9.28125 47.703125 
L 2.6875 47.703125 
L 2.6875 54.6875 
L 9.28125 54.6875 
L 9.28125 70.21875 
z
" id="DejaVuSans-74"/>
     <path d="M 54.890625 33.015625 
L 54.890625 0 
L 45.90625 0 
L 45.90625 32.71875 
Q 45.90625 40.484375 42.875 44.328125 
Q 39.84375 48.1875 33.796875 48.1875 
Q 26.515625 48.1875 22.3125 43.546875 
Q 18.109375 38.921875 18.109375 30.90625 
L 18.109375 0 
L 9.078125 0 
L 9.078125 75.984375 
L 18.109375 75.984375 
L 18.109375 46.1875 
Q 21.34375 51.125 25.703125 53.5625 
Q 30.078125 56 35.796875 56 
Q 45.21875 56 50.046875 50.171875 
Q 54.890625 44.34375 54.890625 33.015625 
z
" id="DejaVuSans-68"/>
     <path d="M 9.421875 75.984375 
L 18.40625 75.984375 
L 18.40625 0 
L 9.421875 0 
z
" id="DejaVuSans-6c"/>
     <path d="M 32.171875 -5.078125 
Q 28.375 -14.84375 24.75 -17.8125 
Q 21.140625 -20.796875 15.09375 -20.796875 
L 7.90625 -20.796875 
L 7.90625 -13.28125 
L 13.1875 -13.28125 
Q 16.890625 -13.28125 18.9375 -11.515625 
Q 21 -9.765625 23.484375 -3.21875 
L 25.09375 0.875 
L 2.984375 54.6875 
L 12.5 54.6875 
L 29.59375 11.921875 
L 46.6875 54.6875 
L 56.203125 54.6875 
z
" id="DejaVuSans-79"/>
     <path d="M 9.421875 54.6875 
L 18.40625 54.6875 
L 18.40625 0 
L 9.421875 0 
z
M 9.421875 75.984375 
L 18.40625 75.984375 
L 18.40625 64.59375 
L 9.421875 64.59375 
z
" id="DejaVuSans-69"/>
     <path d="M 5.515625 54.6875 
L 48.1875 54.6875 
L 48.1875 46.484375 
L 14.40625 7.171875 
L 48.1875 7.171875 
L 48.1875 0 
L 4.296875 0 
L 4.296875 8.203125 
L 38.09375 47.515625 
L 5.515625 47.515625 
z
" id="DejaVuSans-7a"/>
     <path d="M 45.40625 46.390625 
L 45.40625 75.984375 
L 54.390625 75.984375 
L 54.390625 0 
L 45.40625 0 
L 45.40625 8.203125 
Q 42.578125 3.328125 38.25 0.953125 
Q 33.9375 -1.421875 27.875 -1.421875 
Q 17.96875 -1.421875 11.734375 6.484375 
Q 5.515625 14.40625 5.515625 27.296875 
Q 5.515625 40.1875 11.734375 48.09375 
Q 17.96875 56 27.875 56 
Q 33.9375 56 38.25 53.625 
Q 42.578125 51.265625 45.40625 46.390625 
z
M 14.796875 27.296875 
Q 14.796875 17.390625 18.875 11.75 
Q 22.953125 6.109375 30.078125 6.109375 
Q 37.203125 6.109375 41.296875 11.75 
Q 45.40625 17.390625 45.40625 27.296875 
Q 45.40625 37.203125 41.296875 42.84375 
Q 37.203125 48.484375 30.078125 48.484375 
Q 22.953125 48.484375 18.875 42.84375 
Q 14.796875 37.203125 14.796875 27.296875 
z
" id="DejaVuSans-64"/>
     <path d="M 44.28125 53.078125 
L 44.28125 44.578125 
Q 40.484375 46.53125 36.375 47.5 
Q 32.28125 48.484375 27.875 48.484375 
Q 21.1875 48.484375 17.84375 46.4375 
Q 14.5 44.390625 14.5 40.28125 
Q 14.5 37.15625 16.890625 35.375 
Q 19.28125 33.59375 26.515625 31.984375 
L 29.59375 31.296875 
Q 39.15625 29.25 43.1875 25.515625 
Q 47.21875 21.78125 47.21875 15.09375 
Q 47.21875 7.46875 41.1875 3.015625 
Q 35.15625 -1.421875 24.609375 -1.421875 
Q 20.21875 -1.421875 15.453125 -0.5625 
Q 10.6875 0.296875 5.421875 2 
L 5.421875 11.28125 
Q 10.40625 8.6875 15.234375 7.390625 
Q 20.0625 6.109375 24.8125 6.109375 
Q 31.15625 6.109375 34.5625 8.28125 
Q 37.984375 10.453125 37.984375 14.40625 
Q 37.984375 18.0625 35.515625 20.015625 
Q 33.0625 21.96875 24.703125 23.78125 
L 21.578125 24.515625 
Q 13.234375 26.265625 9.515625 29.90625 
Q 5.8125 33.546875 5.8125 39.890625 
Q 5.8125 47.609375 11.28125 51.796875 
Q 16.75 56 26.8125 56 
Q 31.78125 56 36.171875 55.265625 
Q 40.578125 54.546875 44.28125 53.078125 
z
" id="DejaVuSans-73"/>
    </defs>
    <g transform="translate(116.36675 17.36505)scale(0.12 -0.12)">
     <use xlink:href="#DejaVuSans-41"/>
     <use x="68.330078" xlink:href="#DejaVuSans-76"/>
     <use x="127.509766" xlink:href="#DejaVuSans-65"/>
     <use x="189.033203" xlink:href="#DejaVuSans-72"/>
     <use x="230.146484" xlink:href="#DejaVuSans-61"/>
     <use x="291.425781" xlink:href="#DejaVuSans-67"/>
     <use x="354.902344" xlink:href="#DejaVuSans-65"/>
     <use x="416.425781" xlink:href="#DejaVuSans-20"/>
     <use x="448.212891" xlink:href="#DejaVuSans-6d"/>
     <use x="545.625" xlink:href="#DejaVuSans-6f"/>
     <use x="606.806641" xlink:href="#DejaVuSans-6e"/>
     <use x="670.185547" xlink:href="#DejaVuSans-74"/>
     <use x="709.394531" xlink:href="#DejaVuSans-68"/>
     <use x="772.773438" xlink:href="#DejaVuSans-6c"/>
     <use x="800.556641" xlink:href="#DejaVuSans-79"/>
     <use x="859.736328" xlink:href="#DejaVuSans-20"/>
     <use x="891.523438" xlink:href="#DejaVuSans-6e"/>
     <use x="954.902344" xlink:href="#DejaVuSans-6f"/>
     <use x="1016.083984" xlink:href="#DejaVuSans-72"/>
     <use x="1057.181641" xlink:href="#DejaVuSans-6d"/>
     <use x="1154.59375" xlink:href="#DejaVuSans-61"/>
     <use x="1215.873047" xlink:href="#DejaVuSans-6c"/>
     <use x="1243.65625" xlink:href="#DejaVuSans-69"/>
     <use x="1271.439453" xlink:href="#DejaVuSans-7a"/>
     <use x="1323.929688" xlink:href="#DejaVuSans-65"/>
     <use x="1385.453125" xlink:href="#DejaVuSans-64"/>
     <use x="1448.929688" xlink:href="#DejaVuSans-20"/>
     <use x="1480.716797" xlink:href="#DejaVuSans-65"/>
     <use x="1542.240234" xlink:href="#DejaVuSans-6d"/>
     <use x="1639.652344" xlink:href="#DejaVuSans-69"/>
     <use x="1667.435547" xlink:href="#DejaVuSans-73"/>
     <use x="1719.535156" xlink:href="#DejaVuSans-73"/>
     <use x="1771.634766" xlink:href="#DejaVuSans-69"/>
     <use x="1799.417969" xlink:href="#DejaVuSans-6f"/>
     <use x="1860.599609" xlink:href="#DejaVuSans-6e"/>
     <use x="1923.978516" xlink:href="#DejaVuSans-73"/>
    </g>
   </g>
   <g id="legend_1">
    <g id="patch_7">
     <path d="M 208.639094 46.043175 
L 261.221906 46.043175 
Q 263.221906 46.043175 263.221906 44.043175 
L 263.221906 30.36505 
Q 263.221906 28.36505 261.221906 28.36505 
L 208.639094 28.36505 
Q 206.639094 28.36505 206.639094 30.36505 
L 206.639094 44.043175 
Q 206.639094 46.043175 208.639094 46.043175 
z
" style="fill:#ffffff;opacity:0.8;stroke:#cccccc;stroke-linejoin:miter;"/>
    </g>
    <g id="line2d_22">
     <path d="M 210.639094 36.463488 
L 230.639094 36.463488 
" style="fill:none;stroke:#008000;stroke-linecap:square;stroke-width:1.5;"/>
    </g>
    <g id="line2d_23"/>
    <g id="text_4">
     <!-- SO2 -->
     <defs>
      <path d="M 53.515625 70.515625 
L 53.515625 60.890625 
Q 47.90625 63.578125 42.921875 64.890625 
Q 37.9375 66.21875 33.296875 66.21875 
Q 25.25 66.21875 20.875 63.09375 
Q 16.5 59.96875 16.5 54.203125 
Q 16.5 49.359375 19.40625 46.890625 
Q 22.3125 44.4375 30.421875 42.921875 
L 36.375 41.703125 
Q 47.40625 39.59375 52.65625 34.296875 
Q 57.90625 29 57.90625 20.125 
Q 57.90625 9.515625 50.796875 4.046875 
Q 43.703125 -1.421875 29.984375 -1.421875 
Q 24.8125 -1.421875 18.96875 -0.25 
Q 13.140625 0.921875 6.890625 3.21875 
L 6.890625 13.375 
Q 12.890625 10.015625 18.65625 8.296875 
Q 24.421875 6.59375 29.984375 6.59375 
Q 38.421875 6.59375 43.015625 9.90625 
Q 47.609375 13.234375 47.609375 19.390625 
Q 47.609375 24.75 44.3125 27.78125 
Q 41.015625 30.8125 33.5 32.328125 
L 27.484375 33.5 
Q 16.453125 35.6875 11.515625 40.375 
Q 6.59375 45.0625 6.59375 53.421875 
Q 6.59375 63.09375 13.40625 68.65625 
Q 20.21875 74.21875 32.171875 74.21875 
Q 37.3125 74.21875 42.625 73.28125 
Q 47.953125 72.359375 53.515625 70.515625 
z
" id="DejaVuSans-53"/>
      <path d="M 39.40625 66.21875 
Q 28.65625 66.21875 22.328125 58.203125 
Q 16.015625 50.203125 16.015625 36.375 
Q 16.015625 22.609375 22.328125 14.59375 
Q 28.65625 6.59375 39.40625 6.59375 
Q 50.140625 6.59375 56.421875 14.59375 
Q 62.703125 22.609375 62.703125 36.375 
Q 62.703125 50.203125 56.421875 58.203125 
Q 50.140625 66.21875 39.40625 66.21875 
z
M 39.40625 74.21875 
Q 54.734375 74.21875 63.90625 63.9375 
Q 73.09375 53.65625 73.09375 36.375 
Q 73.09375 19.140625 63.90625 8.859375 
Q 54.734375 -1.421875 39.40625 -1.421875 
Q 24.03125 -1.421875 14.8125 8.828125 
Q 5.609375 19.09375 5.609375 36.375 
Q 5.609375 53.65625 14.8125 63.9375 
Q 24.03125 74.21875 39.40625 74.21875 
z
" id="DejaVuSans-4f"/>
     </defs>
     <g transform="translate(238.639094 39.963488)scale(0.1 -0.1)">
      <use xlink:href="#DejaVuSans-53"/>
      <use x="63.476562" xlink:href="#DejaVuSans-4f"/>
      <use x="142.1875" xlink:href="#DejaVuSans-32"/>
     </g>
    </g>
   </g>
  </g>
  <g id="axes_2">
   <g id="patch_8">
    <path d="M 22.381 209.084017 
L 447.48 209.084017 
L 447.48 124.144533 
L 22.381 124.144533 
z
" style="fill:none;"/>
   </g>
   <g id="matplotlib.axis_3">
    <g id="xtick_9">
     <g id="line2d_24">
      <path clip-path="url(#p0513afb0a3)" d="M 69.855362 209.084017 
L 69.855362 124.144533 
" style="fill:none;stroke:#b0b0b0;stroke-linecap:square;stroke-width:0.8;"/>
     </g>
     <g id="line2d_25">
      <g>
       <use style="stroke:#000000;stroke-width:0.8;" x="69.855362" xlink:href="#mbb405548db" y="209.084017"/>
      </g>
     </g>
    </g>
    <g id="xtick_10">
     <g id="line2d_26">
      <path clip-path="url(#p0513afb0a3)" d="M 119.43216 209.084017 
L 119.43216 124.144533 
" style="fill:none;stroke:#b0b0b0;stroke-linecap:square;stroke-width:0.8;"/>
     </g>
     <g id="line2d_27">
      <g>
       <use style="stroke:#000000;stroke-width:0.8;" x="119.43216" xlink:href="#mbb405548db" y="209.084017"/>
      </g>
     </g>
    </g>
    <g id="xtick_11">
     <g id="line2d_28">
      <path clip-path="url(#p0513afb0a3)" d="M 168.941137 209.084017 
L 168.941137 124.144533 
" style="fill:none;stroke:#b0b0b0;stroke-linecap:square;stroke-width:0.8;"/>
     </g>
     <g id="line2d_29">
      <g>
       <use style="stroke:#000000;stroke-width:0.8;" x="168.941137" xlink:href="#mbb405548db" y="209.084017"/>
      </g>
     </g>
    </g>
    <g id="xtick_12">
     <g id="line2d_30">
      <path clip-path="url(#p0513afb0a3)" d="M 218.517935 209.084017 
L 218.517935 124.144533 
" style="fill:none;stroke:#b0b0b0;stroke-linecap:square;stroke-width:0.8;"/>
     </g>
     <g id="line2d_31">
      <g>
       <use style="stroke:#000000;stroke-width:0.8;" x="218.517935" xlink:href="#mbb405548db" y="209.084017"/>
      </g>
     </g>
    </g>
    <g id="xtick_13">
     <g id="line2d_32">
      <path clip-path="url(#p0513afb0a3)" d="M 268.026912 209.084017 
L 268.026912 124.144533 
" style="fill:none;stroke:#b0b0b0;stroke-linecap:square;stroke-width:0.8;"/>
     </g>
     <g id="line2d_33">
      <g>
       <use style="stroke:#000000;stroke-width:0.8;" x="268.026912" xlink:href="#mbb405548db" y="209.084017"/>
      </g>
     </g>
    </g>
    <g id="xtick_14">
     <g id="line2d_34">
      <path clip-path="url(#p0513afb0a3)" d="M 317.60371 209.084017 
L 317.60371 124.144533 
" style="fill:none;stroke:#b0b0b0;stroke-linecap:square;stroke-width:0.8;"/>
     </g>
     <g id="line2d_35">
      <g>
       <use style="stroke:#000000;stroke-width:0.8;" x="317.60371" xlink:href="#mbb405548db" y="209.084017"/>
      </g>
     </g>
    </g>
    <g id="xtick_15">
     <g id="line2d_36">
      <path clip-path="url(#p0513afb0a3)" d="M 367.112687 209.084017 
L 367.112687 124.144533 
" style="fill:none;stroke:#b0b0b0;stroke-linecap:square;stroke-width:0.8;"/>
     </g>
     <g id="line2d_37">
      <g>
       <use style="stroke:#000000;stroke-width:0.8;" x="367.112687" xlink:href="#mbb405548db" y="209.084017"/>
      </g>
     </g>
    </g>
    <g id="xtick_16">
     <g id="line2d_38">
      <path clip-path="url(#p0513afb0a3)" d="M 416.689485 209.084017 
L 416.689485 124.144533 
" style="fill:none;stroke:#b0b0b0;stroke-linecap:square;stroke-width:0.8;"/>
     </g>
     <g id="line2d_39">
      <g>
       <use style="stroke:#000000;stroke-width:0.8;" x="416.689485" xlink:href="#mbb405548db" y="209.084017"/>
      </g>
     </g>
    </g>
   </g>
   <g id="matplotlib.axis_4">
    <g id="ytick_3">
     <g id="line2d_40">
      <path clip-path="url(#p0513afb0a3)" d="M 22.381 175.821784 
L 447.48 175.821784 
" style="fill:none;stroke:#b0b0b0;stroke-linecap:square;stroke-width:0.8;"/>
     </g>
     <g id="line2d_41">
      <g>
       <use style="stroke:#000000;stroke-width:0.8;" x="22.381" xlink:href="#mfb23ccae18" y="175.821784"/>
      </g>
     </g>
     <g id="text_5">
      <!-- 1 -->
      <g transform="translate(9.0185 179.621003)scale(0.1 -0.1)">
       <use xlink:href="#DejaVuSans-31"/>
      </g>
     </g>
    </g>
    <g id="ytick_4">
     <g id="line2d_42">
      <path clip-path="url(#p0513afb0a3)" d="M 22.381 140.487964 
L 447.48 140.487964 
" style="fill:none;stroke:#b0b0b0;stroke-linecap:square;stroke-width:0.8;"/>
     </g>
     <g id="line2d_43">
      <g>
       <use style="stroke:#000000;stroke-width:0.8;" x="22.381" xlink:href="#mfb23ccae18" y="140.487964"/>
      </g>
     </g>
     <g id="text_6">
      <!-- 2 -->
      <g transform="translate(9.0185 144.287183)scale(0.1 -0.1)">
       <use xlink:href="#DejaVuSans-32"/>
      </g>
     </g>
    </g>
   </g>
   <g id="line2d_44">
    <path clip-path="url(#p0513afb0a3)" d="M 22.381 182.423036 
L 24.279974 151.316102 
L 26.38241 158.407084 
L 28.417026 153.125537 
L 30.519462 145.005707 
L 32.554078 145.580299 
L 34.656514 135.025524 
L 36.75895 147.935941 
L 38.793565 168.643202 
L 40.896001 170.379896 
L 42.930617 183.615243 
L 45.033053 200.962395 
L 47.135489 191.868106 
L 49.034463 175.097594 
L 51.136899 167.889696 
L 53.171515 164.912814 
L 55.273951 180.574338 
L 57.308566 154.439151 
L 59.411002 142.029098 
L 61.513438 145.713783 
L 63.548054 170.940688 
L 65.65049 175.939884 
L 67.685105 181.673912 
L 69.787541 189.0144 
L 71.889977 189.543922 
L 73.788952 175.312179 
L 75.891388 183.654974 
L 77.926003 176.926755 
L 80.028439 166.154093 
L 82.063055 177.055303 
L 84.165491 150.249211 
L 86.267927 140.725691 
L 88.302542 181.570093 
L 90.404978 203.813022 
L 92.439594 202.226264 
L 94.54203 186.794837 
L 96.644466 177.286235 
L 98.611261 170.67101 
L 100.713697 175.403867 
L 102.748313 176.343111 
L 104.850749 157.657647 
L 106.885364 158.829765 
L 108.9878 153.843436 
L 111.090236 165.346013 
L 113.124852 182.257107 
L 115.227288 179.800308 
L 117.261903 188.64131 
L 119.364339 186.043141 
L 121.466775 173.385282 
L 123.36575 179.528832 
L 125.468186 183.104113 
L 127.502801 173.901344 
L 129.605237 176.337578 
L 131.639853 154.032578 
L 133.742289 136.751383 
L 135.844725 164.005203 
L 137.87934 161.18777 
L 139.981776 166.493043 
L 142.016392 160.083371 
L 144.118828 188.787187 
L 146.221264 179.896105 
L 148.120238 169.432954 
L 150.222674 176.734905 
L 152.25729 166.951938 
L 154.359726 177.169992 
L 156.394341 150.124684 
L 158.496777 135.915492 
L 160.599213 159.391316 
L 162.633829 183.483121 
L 164.736265 158.334083 
L 166.770881 149.74743 
L 168.873317 162.847458 
L 170.975753 174.062906 
L 172.874727 165.369713 
L 174.977163 177.390691 
L 177.011779 202.866787 
L 179.114215 192.653136 
L 181.14883 177.810303 
L 183.251266 142.398124 
L 185.353702 148.800233 
L 187.388318 163.170565 
L 189.490754 165.63629 
L 191.525369 172.438894 
L 193.627805 170.413412 
L 195.730241 172.613558 
L 197.697036 169.567582 
L 199.799472 168.482009 
L 201.834088 150.3543 
L 203.936524 128.005419 
L 205.971139 158.136026 
L 208.073575 151.35121 
L 210.176011 151.037826 
L 212.210627 169.558817 
L 214.313063 170.938166 
L 216.347678 171.77025 
L 218.450114 177.653798 
L 220.55255 173.839602 
L 222.451525 181.682308 
L 224.553961 186.33264 
L 226.588576 190.330522 
L 228.691012 179.294086 
L 230.725628 177.012955 
L 232.828064 185.84886 
L 234.9305 182.083775 
L 236.965116 193.986924 
L 239.067552 192.910167 
L 241.102167 187.981036 
L 243.204603 188.65352 
L 245.307039 186.624294 
L 247.206014 168.471047 
L 249.30845 182.536562 
L 251.343065 205.052108 
L 253.445501 189.794016 
L 255.480117 186.256067 
L 257.582553 174.017234 
L 259.684989 170.373327 
L 261.719604 179.890862 
L 263.82204 181.803395 
L 265.856656 185.792851 
L 267.959092 186.381343 
L 270.061528 185.087272 
L 271.960502 187.558221 
L 274.062938 176.987385 
L 276.097554 189.629089 
L 278.19999 174.584164 
L 280.234605 169.364944 
L 282.337041 160.635879 
L 284.439477 156.052022 
L 286.474093 173.119549 
L 288.576529 173.161598 
L 290.611144 184.092104 
L 292.71358 179.85957 
L 294.816016 200.496176 
L 296.782811 202.601643 
L 298.885247 185.834974 
L 300.919863 170.504832 
L 303.022299 181.437761 
L 305.056914 179.179212 
L 307.159351 175.984346 
L 309.261787 175.872465 
L 311.296402 187.687892 
L 313.398838 192.367936 
L 315.433454 202.545107 
L 317.53589 192.547148 
L 319.638326 191.102903 
L 321.5373 188.821322 
L 323.639736 186.042448 
L 325.674352 173.063762 
L 327.776788 185.788826 
L 329.811403 185.49202 
L 331.913839 182.169755 
L 334.016275 181.109262 
L 336.050891 191.90997 
L 338.153327 188.34358 
L 340.187942 183.867025 
L 342.290378 190.352168 
L 344.392814 195.733488 
L 346.291789 187.170457 
L 348.394225 190.39667 
L 350.42884 186.955934 
L 352.531276 189.498969 
L 354.565892 195.559221 
L 356.668328 193.249649 
L 358.770764 175.800285 
L 360.805379 205.223131 
L 362.907815 184.951817 
L 364.942431 156.421692 
L 367.044867 167.923153 
L 369.147303 201.831892 
L 371.046277 199.938084 
L 375.183329 180.880858 
L 377.285765 200.822644 
L 379.320381 189.899133 
L 381.422817 184.499973 
L 383.525253 181.266357 
L 385.559868 188.453079 
L 387.662304 188.573778 
L 389.69692 193.431142 
L 391.799356 184.354997 
L 393.901792 188.042748 
L 395.868587 199.867192 
L 397.971023 185.150831 
L 400.005638 175.021088 
L 402.108074 183.991618 
L 404.14269 180.855825 
L 406.245126 181.844474 
L 408.347562 181.825324 
L 410.382177 193.287608 
L 412.484613 170.913548 
L 414.519229 157.291198 
L 416.621665 181.81472 
L 418.724101 183.49676 
L 420.623075 197.077392 
L 422.725511 194.002533 
L 424.760127 195.69047 
L 426.862563 202.373807 
L 428.897178 182.492591 
L 430.999614 177.734296 
L 433.10205 189.612437 
L 435.136666 191.597743 
L 437.239102 186.833835 
L 439.273717 202.160007 
L 441.376153 196.628971 
L 443.47859 198.639947 
L 445.377564 197.672073 
L 447.48 198.036526 
L 447.48 198.036526 
" style="fill:none;stroke:#f97306;stroke-linecap:square;stroke-width:1.5;"/>
   </g>
   <g id="patch_9">
    <path d="M 22.381 209.084017 
L 22.381 124.144533 
" style="fill:none;stroke:#000000;stroke-linecap:square;stroke-linejoin:miter;stroke-width:0.8;"/>
   </g>
   <g id="patch_10">
    <path d="M 447.48 209.084017 
L 447.48 124.144533 
" style="fill:none;stroke:#000000;stroke-linecap:square;stroke-linejoin:miter;stroke-width:0.8;"/>
   </g>
   <g id="patch_11">
    <path d="M 22.381 209.084017 
L 447.48 209.084017 
" style="fill:none;stroke:#000000;stroke-linecap:square;stroke-linejoin:miter;stroke-width:0.8;"/>
   </g>
   <g id="patch_12">
    <path d="M 22.381 124.144533 
L 447.48 124.144533 
" style="fill:none;stroke:#000000;stroke-linecap:square;stroke-linejoin:miter;stroke-width:0.8;"/>
   </g>
   <g id="legend_2">
    <g id="patch_13">
     <path d="M 387.208125 146.822658 
L 440.48 146.822658 
Q 442.48 146.822658 442.48 144.822658 
L 442.48 131.144533 
Q 442.48 129.144533 440.48 129.144533 
L 387.208125 129.144533 
Q 385.208125 129.144533 385.208125 131.144533 
L 385.208125 144.822658 
Q 385.208125 146.822658 387.208125 146.822658 
z
" style="fill:#ffffff;opacity:0.8;stroke:#cccccc;stroke-linejoin:miter;"/>
    </g>
    <g id="line2d_45">
     <path d="M 389.208125 137.242971 
L 409.208125 137.242971 
" style="fill:none;stroke:#f97306;stroke-linecap:square;stroke-width:1.5;"/>
    </g>
    <g id="line2d_46"/>
    <g id="text_7">
     <!-- NOx -->
     <defs>
      <path d="M 9.8125 72.90625 
L 23.09375 72.90625 
L 55.421875 11.921875 
L 55.421875 72.90625 
L 64.984375 72.90625 
L 64.984375 0 
L 51.703125 0 
L 19.390625 60.984375 
L 19.390625 0 
L 9.8125 0 
z
" id="DejaVuSans-4e"/>
      <path d="M 54.890625 54.6875 
L 35.109375 28.078125 
L 55.90625 0 
L 45.3125 0 
L 29.390625 21.484375 
L 13.484375 0 
L 2.875 0 
L 24.125 28.609375 
L 4.6875 54.6875 
L 15.28125 54.6875 
L 29.78125 35.203125 
L 44.28125 54.6875 
z
" id="DejaVuSans-78"/>
     </defs>
     <g transform="translate(417.208125 140.742971)scale(0.1 -0.1)">
      <use xlink:href="#DejaVuSans-4e"/>
      <use x="74.804688" xlink:href="#DejaVuSans-4f"/>
      <use x="153.515625" xlink:href="#DejaVuSans-78"/>
     </g>
    </g>
   </g>
  </g>
  <g id="axes_3">
   <g id="patch_14">
    <path d="M 22.381 309.8635 
L 447.48 309.8635 
L 447.48 224.924017 
L 22.381 224.924017 
z
" style="fill:none;"/>
   </g>
   <g id="matplotlib.axis_5">
    <g id="xtick_17">
     <g id="line2d_47">
      <path clip-path="url(#p2c0daafc60)" d="M 69.855362 309.8635 
L 69.855362 224.924017 
" style="fill:none;stroke:#b0b0b0;stroke-linecap:square;stroke-width:0.8;"/>
     </g>
     <g id="line2d_48">
      <g>
       <use style="stroke:#000000;stroke-width:0.8;" x="69.855362" xlink:href="#mbb405548db" y="309.8635"/>
      </g>
     </g>
     <g id="text_8">
      <!-- 2003 -->
      <defs>
       <path d="M 31.78125 66.40625 
Q 24.171875 66.40625 20.328125 58.90625 
Q 16.5 51.421875 16.5 36.375 
Q 16.5 21.390625 20.328125 13.890625 
Q 24.171875 6.390625 31.78125 6.390625 
Q 39.453125 6.390625 43.28125 13.890625 
Q 47.125 21.390625 47.125 36.375 
Q 47.125 51.421875 43.28125 58.90625 
Q 39.453125 66.40625 31.78125 66.40625 
z
M 31.78125 74.21875 
Q 44.046875 74.21875 50.515625 64.515625 
Q 56.984375 54.828125 56.984375 36.375 
Q 56.984375 17.96875 50.515625 8.265625 
Q 44.046875 -1.421875 31.78125 -1.421875 
Q 19.53125 -1.421875 13.0625 8.265625 
Q 6.59375 17.96875 6.59375 36.375 
Q 6.59375 54.828125 13.0625 64.515625 
Q 19.53125 74.21875 31.78125 74.21875 
z
" id="DejaVuSans-30"/>
       <path d="M 40.578125 39.3125 
Q 47.65625 37.796875 51.625 33 
Q 55.609375 28.21875 55.609375 21.1875 
Q 55.609375 10.40625 48.1875 4.484375 
Q 40.765625 -1.421875 27.09375 -1.421875 
Q 22.515625 -1.421875 17.65625 -0.515625 
Q 12.796875 0.390625 7.625 2.203125 
L 7.625 11.71875 
Q 11.71875 9.328125 16.59375 8.109375 
Q 21.484375 6.890625 26.8125 6.890625 
Q 36.078125 6.890625 40.9375 10.546875 
Q 45.796875 14.203125 45.796875 21.1875 
Q 45.796875 27.640625 41.28125 31.265625 
Q 36.765625 34.90625 28.71875 34.90625 
L 20.21875 34.90625 
L 20.21875 43.015625 
L 29.109375 43.015625 
Q 36.375 43.015625 40.234375 45.921875 
Q 44.09375 48.828125 44.09375 54.296875 
Q 44.09375 59.90625 40.109375 62.90625 
Q 36.140625 65.921875 28.71875 65.921875 
Q 24.65625 65.921875 20.015625 65.03125 
Q 15.375 64.15625 9.8125 62.3125 
L 9.8125 71.09375 
Q 15.4375 72.65625 20.34375 73.4375 
Q 25.25 74.21875 29.59375 74.21875 
Q 40.828125 74.21875 47.359375 69.109375 
Q 53.90625 64.015625 53.90625 55.328125 
Q 53.90625 49.265625 50.4375 45.09375 
Q 46.96875 40.921875 40.578125 39.3125 
z
" id="DejaVuSans-33"/>
      </defs>
      <g transform="translate(57.130362 324.461937)scale(0.1 -0.1)">
       <use xlink:href="#DejaVuSans-32"/>
       <use x="63.623047" xlink:href="#DejaVuSans-30"/>
       <use x="127.246094" xlink:href="#DejaVuSans-30"/>
       <use x="190.869141" xlink:href="#DejaVuSans-33"/>
      </g>
     </g>
    </g>
    <g id="xtick_18">
     <g id="line2d_49">
      <path clip-path="url(#p2c0daafc60)" d="M 119.43216 309.8635 
L 119.43216 224.924017 
" style="fill:none;stroke:#b0b0b0;stroke-linecap:square;stroke-width:0.8;"/>
     </g>
     <g id="line2d_50">
      <g>
       <use style="stroke:#000000;stroke-width:0.8;" x="119.43216" xlink:href="#mbb405548db" y="309.8635"/>
      </g>
     </g>
     <g id="text_9">
      <!-- 2005 -->
      <defs>
       <path d="M 10.796875 72.90625 
L 49.515625 72.90625 
L 49.515625 64.59375 
L 19.828125 64.59375 
L 19.828125 46.734375 
Q 21.96875 47.46875 24.109375 47.828125 
Q 26.265625 48.1875 28.421875 48.1875 
Q 40.625 48.1875 47.75 41.5 
Q 54.890625 34.8125 54.890625 23.390625 
Q 54.890625 11.625 47.5625 5.09375 
Q 40.234375 -1.421875 26.90625 -1.421875 
Q 22.3125 -1.421875 17.546875 -0.640625 
Q 12.796875 0.140625 7.71875 1.703125 
L 7.71875 11.625 
Q 12.109375 9.234375 16.796875 8.0625 
Q 21.484375 6.890625 26.703125 6.890625 
Q 35.15625 6.890625 40.078125 11.328125 
Q 45.015625 15.765625 45.015625 23.390625 
Q 45.015625 31 40.078125 35.4375 
Q 35.15625 39.890625 26.703125 39.890625 
Q 22.75 39.890625 18.8125 39.015625 
Q 14.890625 38.140625 10.796875 36.28125 
z
" id="DejaVuSans-35"/>
      </defs>
      <g transform="translate(106.70716 324.461937)scale(0.1 -0.1)">
       <use xlink:href="#DejaVuSans-32"/>
       <use x="63.623047" xlink:href="#DejaVuSans-30"/>
       <use x="127.246094" xlink:href="#DejaVuSans-30"/>
       <use x="190.869141" xlink:href="#DejaVuSans-35"/>
      </g>
     </g>
    </g>
    <g id="xtick_19">
     <g id="line2d_51">
      <path clip-path="url(#p2c0daafc60)" d="M 168.941137 309.8635 
L 168.941137 224.924017 
" style="fill:none;stroke:#b0b0b0;stroke-linecap:square;stroke-width:0.8;"/>
     </g>
     <g id="line2d_52">
      <g>
       <use style="stroke:#000000;stroke-width:0.8;" x="168.941137" xlink:href="#mbb405548db" y="309.8635"/>
      </g>
     </g>
     <g id="text_10">
      <!-- 2007 -->
      <defs>
       <path d="M 8.203125 72.90625 
L 55.078125 72.90625 
L 55.078125 68.703125 
L 28.609375 0 
L 18.3125 0 
L 43.21875 64.59375 
L 8.203125 64.59375 
z
" id="DejaVuSans-37"/>
      </defs>
      <g transform="translate(156.216137 324.461937)scale(0.1 -0.1)">
       <use xlink:href="#DejaVuSans-32"/>
       <use x="63.623047" xlink:href="#DejaVuSans-30"/>
       <use x="127.246094" xlink:href="#DejaVuSans-30"/>
       <use x="190.869141" xlink:href="#DejaVuSans-37"/>
      </g>
     </g>
    </g>
    <g id="xtick_20">
     <g id="line2d_53">
      <path clip-path="url(#p2c0daafc60)" d="M 218.517935 309.8635 
L 218.517935 224.924017 
" style="fill:none;stroke:#b0b0b0;stroke-linecap:square;stroke-width:0.8;"/>
     </g>
     <g id="line2d_54">
      <g>
       <use style="stroke:#000000;stroke-width:0.8;" x="218.517935" xlink:href="#mbb405548db" y="309.8635"/>
      </g>
     </g>
     <g id="text_11">
      <!-- 2009 -->
      <defs>
       <path d="M 10.984375 1.515625 
L 10.984375 10.5 
Q 14.703125 8.734375 18.5 7.8125 
Q 22.3125 6.890625 25.984375 6.890625 
Q 35.75 6.890625 40.890625 13.453125 
Q 46.046875 20.015625 46.78125 33.40625 
Q 43.953125 29.203125 39.59375 26.953125 
Q 35.25 24.703125 29.984375 24.703125 
Q 19.046875 24.703125 12.671875 31.3125 
Q 6.296875 37.9375 6.296875 49.421875 
Q 6.296875 60.640625 12.9375 67.421875 
Q 19.578125 74.21875 30.609375 74.21875 
Q 43.265625 74.21875 49.921875 64.515625 
Q 56.59375 54.828125 56.59375 36.375 
Q 56.59375 19.140625 48.40625 8.859375 
Q 40.234375 -1.421875 26.421875 -1.421875 
Q 22.703125 -1.421875 18.890625 -0.6875 
Q 15.09375 0.046875 10.984375 1.515625 
z
M 30.609375 32.421875 
Q 37.25 32.421875 41.125 36.953125 
Q 45.015625 41.5 45.015625 49.421875 
Q 45.015625 57.28125 41.125 61.84375 
Q 37.25 66.40625 30.609375 66.40625 
Q 23.96875 66.40625 20.09375 61.84375 
Q 16.21875 57.28125 16.21875 49.421875 
Q 16.21875 41.5 20.09375 36.953125 
Q 23.96875 32.421875 30.609375 32.421875 
z
" id="DejaVuSans-39"/>
      </defs>
      <g transform="translate(205.792935 324.461937)scale(0.1 -0.1)">
       <use xlink:href="#DejaVuSans-32"/>
       <use x="63.623047" xlink:href="#DejaVuSans-30"/>
       <use x="127.246094" xlink:href="#DejaVuSans-30"/>
       <use x="190.869141" xlink:href="#DejaVuSans-39"/>
      </g>
     </g>
    </g>
    <g id="xtick_21">
     <g id="line2d_55">
      <path clip-path="url(#p2c0daafc60)" d="M 268.026912 309.8635 
L 268.026912 224.924017 
" style="fill:none;stroke:#b0b0b0;stroke-linecap:square;stroke-width:0.8;"/>
     </g>
     <g id="line2d_56">
      <g>
       <use style="stroke:#000000;stroke-width:0.8;" x="268.026912" xlink:href="#mbb405548db" y="309.8635"/>
      </g>
     </g>
     <g id="text_12">
      <!-- 2011 -->
      <g transform="translate(255.301912 324.461937)scale(0.1 -0.1)">
       <use xlink:href="#DejaVuSans-32"/>
       <use x="63.623047" xlink:href="#DejaVuSans-30"/>
       <use x="127.246094" xlink:href="#DejaVuSans-31"/>
       <use x="190.869141" xlink:href="#DejaVuSans-31"/>
      </g>
     </g>
    </g>
    <g id="xtick_22">
     <g id="line2d_57">
      <path clip-path="url(#p2c0daafc60)" d="M 317.60371 309.8635 
L 317.60371 224.924017 
" style="fill:none;stroke:#b0b0b0;stroke-linecap:square;stroke-width:0.8;"/>
     </g>
     <g id="line2d_58">
      <g>
       <use style="stroke:#000000;stroke-width:0.8;" x="317.60371" xlink:href="#mbb405548db" y="309.8635"/>
      </g>
     </g>
     <g id="text_13">
      <!-- 2013 -->
      <g transform="translate(304.87871 324.461937)scale(0.1 -0.1)">
       <use xlink:href="#DejaVuSans-32"/>
       <use x="63.623047" xlink:href="#DejaVuSans-30"/>
       <use x="127.246094" xlink:href="#DejaVuSans-31"/>
       <use x="190.869141" xlink:href="#DejaVuSans-33"/>
      </g>
     </g>
    </g>
    <g id="xtick_23">
     <g id="line2d_59">
      <path clip-path="url(#p2c0daafc60)" d="M 367.112687 309.8635 
L 367.112687 224.924017 
" style="fill:none;stroke:#b0b0b0;stroke-linecap:square;stroke-width:0.8;"/>
     </g>
     <g id="line2d_60">
      <g>
       <use style="stroke:#000000;stroke-width:0.8;" x="367.112687" xlink:href="#mbb405548db" y="309.8635"/>
      </g>
     </g>
     <g id="text_14">
      <!-- 2015 -->
      <g transform="translate(354.387687 324.461937)scale(0.1 -0.1)">
       <use xlink:href="#DejaVuSans-32"/>
       <use x="63.623047" xlink:href="#DejaVuSans-30"/>
       <use x="127.246094" xlink:href="#DejaVuSans-31"/>
       <use x="190.869141" xlink:href="#DejaVuSans-35"/>
      </g>
     </g>
    </g>
    <g id="xtick_24">
     <g id="line2d_61">
      <path clip-path="url(#p2c0daafc60)" d="M 416.689485 309.8635 
L 416.689485 224.924017 
" style="fill:none;stroke:#b0b0b0;stroke-linecap:square;stroke-width:0.8;"/>
     </g>
     <g id="line2d_62">
      <g>
       <use style="stroke:#000000;stroke-width:0.8;" x="416.689485" xlink:href="#mbb405548db" y="309.8635"/>
      </g>
     </g>
     <g id="text_15">
      <!-- 2017 -->
      <g transform="translate(403.964485 324.461937)scale(0.1 -0.1)">
       <use xlink:href="#DejaVuSans-32"/>
       <use x="63.623047" xlink:href="#DejaVuSans-30"/>
       <use x="127.246094" xlink:href="#DejaVuSans-31"/>
       <use x="190.869141" xlink:href="#DejaVuSans-37"/>
      </g>
     </g>
    </g>
    <g id="text_16">
     <!-- Date -->
     <defs>
      <path d="M 19.671875 64.796875 
L 19.671875 8.109375 
L 31.59375 8.109375 
Q 46.6875 8.109375 53.6875 14.9375 
Q 60.6875 21.78125 60.6875 36.53125 
Q 60.6875 51.171875 53.6875 57.984375 
Q 46.6875 64.796875 31.59375 64.796875 
z
M 9.8125 72.90625 
L 30.078125 72.90625 
Q 51.265625 72.90625 61.171875 64.09375 
Q 71.09375 55.28125 71.09375 36.53125 
Q 71.09375 17.671875 61.125 8.828125 
Q 51.171875 0 30.078125 0 
L 9.8125 0 
z
" id="DejaVuSans-44"/>
     </defs>
     <g transform="translate(222.979719 338.140062)scale(0.1 -0.1)">
      <use xlink:href="#DejaVuSans-44"/>
      <use x="77.001953" xlink:href="#DejaVuSans-61"/>
      <use x="138.28125" xlink:href="#DejaVuSans-74"/>
      <use x="177.490234" xlink:href="#DejaVuSans-65"/>
     </g>
    </g>
   </g>
   <g id="matplotlib.axis_6">
    <g id="ytick_5">
     <g id="line2d_63">
      <path clip-path="url(#p2c0daafc60)" d="M 22.381 275.751016 
L 447.48 275.751016 
" style="fill:none;stroke:#b0b0b0;stroke-linecap:square;stroke-width:0.8;"/>
     </g>
     <g id="line2d_64">
      <g>
       <use style="stroke:#000000;stroke-width:0.8;" x="22.381" xlink:href="#mfb23ccae18" y="275.751016"/>
      </g>
     </g>
     <g id="text_17">
      <!-- 1 -->
      <g transform="translate(9.0185 279.550235)scale(0.1 -0.1)">
       <use xlink:href="#DejaVuSans-31"/>
      </g>
     </g>
    </g>
    <g id="ytick_6">
     <g id="line2d_65">
      <path clip-path="url(#p2c0daafc60)" d="M 22.381 237.531515 
L 447.48 237.531515 
" style="fill:none;stroke:#b0b0b0;stroke-linecap:square;stroke-width:0.8;"/>
     </g>
     <g id="line2d_66">
      <g>
       <use style="stroke:#000000;stroke-width:0.8;" x="22.381" xlink:href="#mfb23ccae18" y="237.531515"/>
      </g>
     </g>
     <g id="text_18">
      <!-- 2 -->
      <g transform="translate(9.0185 241.330734)scale(0.1 -0.1)">
       <use xlink:href="#DejaVuSans-32"/>
      </g>
     </g>
    </g>
   </g>
   <g id="line2d_67">
    <path clip-path="url(#p2c0daafc60)" d="M 22.381 287.2357 
L 24.279974 271.201376 
L 26.38241 275.607045 
L 30.519462 260.352251 
L 32.554078 253.856513 
L 34.656514 241.291229 
L 38.793565 276.691769 
L 40.896001 275.800769 
L 45.033053 302.29125 
L 47.135489 293.251694 
L 49.034463 281.67126 
L 51.136899 275.162144 
L 53.171515 276.049888 
L 55.273951 284.737907 
L 57.308566 264.110138 
L 59.411002 251.63932 
L 61.513438 256.626102 
L 63.548054 277.062129 
L 65.65049 278.647038 
L 67.685105 283.995464 
L 69.787541 290.66704 
L 71.889977 291.430064 
L 73.788952 280.666993 
L 75.891388 287.292407 
L 77.926003 283.164587 
L 80.028439 272.793281 
L 82.063055 279.905932 
L 84.165491 253.773452 
L 86.267927 244.845247 
L 88.302542 286.022213 
L 90.404978 300.515488 
L 92.439594 300.451718 
L 94.54203 286.357339 
L 96.644466 282.006671 
L 98.611261 279.682575 
L 100.713697 277.991989 
L 102.748313 279.824098 
L 104.850749 267.48965 
L 106.885364 263.313876 
L 108.9878 257.306459 
L 111.090236 268.452064 
L 113.124852 282.082249 
L 115.227288 281.209557 
L 117.261903 283.713307 
L 119.364339 285.068121 
L 121.466775 276.539693 
L 123.36575 283.708939 
L 125.468186 286.560635 
L 127.502801 275.57159 
L 129.605237 276.525496 
L 131.639853 252.771623 
L 133.742289 242.452229 
L 135.844725 264.175906 
L 137.87934 262.062263 
L 139.981776 268.512821 
L 142.016392 266.17151 
L 144.118828 288.957634 
L 146.221264 281.039011 
L 148.120238 277.467092 
L 150.222674 283.52717 
L 152.25729 272.051888 
L 154.359726 273.634316 
L 156.394341 258.160825 
L 158.496777 245.786834 
L 160.599213 262.686534 
L 162.633829 287.727345 
L 164.736265 271.818899 
L 166.770881 266.334187 
L 168.873317 271.530499 
L 170.975753 280.796587 
L 172.874727 280.353285 
L 174.977163 288.391445 
L 177.011779 302.79677 
L 179.114215 284.431347 
L 181.14883 269.461799 
L 183.251266 236.387947 
L 185.353702 228.784902 
L 189.490754 267.183523 
L 191.525369 257.630149 
L 193.627805 264.83825 
L 195.730241 276.641673 
L 197.697036 269.851313 
L 199.799472 271.281015 
L 201.834088 260.269882 
L 203.936524 245.125354 
L 205.971139 252.841081 
L 208.073575 248.253457 
L 210.176011 253.83262 
L 212.210627 278.562 
L 214.313063 281.61008 
L 216.347678 276.31577 
L 218.450114 286.935808 
L 220.55255 284.396353 
L 222.451525 292.902327 
L 224.553961 290.575145 
L 226.588576 294.236668 
L 228.691012 283.347561 
L 230.725628 273.957007 
L 232.828064 277.866208 
L 234.9305 270.07964 
L 236.965116 289.750758 
L 239.067552 293.138945 
L 241.102167 288.959907 
L 243.204603 287.016156 
L 245.307039 287.089272 
L 247.206014 263.693327 
L 249.30845 277.691265 
L 251.343065 303.431927 
L 253.445501 289.081582 
L 255.480117 285.835803 
L 257.582553 277.012451 
L 259.684989 275.065651 
L 261.719604 282.034611 
L 263.82204 283.320816 
L 265.856656 286.472115 
L 267.959092 285.045403 
L 270.061528 287.558177 
L 271.960502 291.13658 
L 274.062938 280.383295 
L 276.097554 293.912454 
L 278.19999 280.063843 
L 280.234605 268.275407 
L 282.337041 257.921032 
L 284.439477 253.884975 
L 286.474093 277.685892 
L 288.576529 277.629644 
L 290.611144 288.082067 
L 292.71358 274.368312 
L 294.816016 300.97793 
L 296.782811 301.803569 
L 298.885247 279.339823 
L 300.919863 264.469994 
L 303.022299 274.130221 
L 305.056914 271.993364 
L 307.159351 265.771991 
L 309.261787 264.62548 
L 311.296402 279.683585 
L 313.398838 288.80437 
L 315.433454 300.570915 
L 317.53589 289.049698 
L 319.638326 287.443536 
L 321.5373 286.737764 
L 323.639736 279.342209 
L 325.674352 270.811166 
L 327.776788 283.226583 
L 329.811403 280.264733 
L 331.913839 276.843594 
L 334.016275 276.273446 
L 336.050891 290.011836 
L 340.187942 281.227634 
L 342.290378 288.964518 
L 344.392814 295.443914 
L 346.291789 286.167302 
L 348.394225 290.646439 
L 350.42884 286.01554 
L 352.531276 286.598511 
L 354.565892 293.303789 
L 356.668328 289.140698 
L 358.770764 269.161636 
L 360.805379 306.002614 
L 362.907815 284.762139 
L 364.942431 244.382669 
L 367.044867 246.961907 
L 369.147303 295.317291 
L 371.046277 295.779904 
L 373.148713 285.009109 
L 375.183329 276.803935 
L 377.285765 299.545633 
L 379.320381 283.267388 
L 381.422817 272.898432 
L 383.525253 269.978463 
L 385.559868 285.844552 
L 387.662304 280.953127 
L 389.69692 293.350156 
L 391.799356 278.697761 
L 393.901792 285.414321 
L 395.868587 299.660157 
L 397.971023 281.723603 
L 400.005638 266.497594 
L 402.108074 279.676688 
L 404.14269 263.259253 
L 406.245126 264.922478 
L 408.347562 269.70195 
L 410.382177 286.492184 
L 412.484613 253.033947 
L 414.519229 235.221788 
L 416.621665 277.423117 
L 418.724101 277.226784 
L 420.623075 295.37187 
L 422.725511 293.141694 
L 424.760127 294.536773 
L 426.862563 301.242428 
L 428.897178 270.182913 
L 430.999614 255.400394 
L 433.10205 279.611076 
L 435.136666 282.834761 
L 437.239102 275.505455 
L 439.273717 302.353912 
L 441.376153 295.459195 
L 443.47859 296.156971 
L 445.377564 292.191527 
L 447.48 290.015111 
L 447.48 290.015111 
" style="fill:none;stroke:#4682b4;stroke-linecap:square;stroke-width:1.5;"/>
   </g>
   <g id="patch_15">
    <path d="M 22.381 309.8635 
L 22.381 224.924017 
" style="fill:none;stroke:#000000;stroke-linecap:square;stroke-linejoin:miter;stroke-width:0.8;"/>
   </g>
   <g id="patch_16">
    <path d="M 447.48 309.8635 
L 447.48 224.924017 
" style="fill:none;stroke:#000000;stroke-linecap:square;stroke-linejoin:miter;stroke-width:0.8;"/>
   </g>
   <g id="patch_17">
    <path d="M 22.381 309.8635 
L 447.48 309.8635 
" style="fill:none;stroke:#000000;stroke-linecap:square;stroke-linejoin:miter;stroke-width:0.8;"/>
   </g>
   <g id="patch_18">
    <path d="M 22.381 224.924017 
L 447.48 224.924017 
" style="fill:none;stroke:#000000;stroke-linecap:square;stroke-linejoin:miter;stroke-width:0.8;"/>
   </g>
   <g id="legend_3">
    <g id="patch_19">
     <path d="M 208.321906 247.602142 
L 261.539094 247.602142 
Q 263.539094 247.602142 263.539094 245.602142 
L 263.539094 231.924017 
Q 263.539094 229.924017 261.539094 229.924017 
L 208.321906 229.924017 
Q 206.321906 229.924017 206.321906 231.924017 
L 206.321906 245.602142 
Q 206.321906 247.602142 208.321906 247.602142 
z
" style="fill:#ffffff;opacity:0.8;stroke:#cccccc;stroke-linejoin:miter;"/>
    </g>
    <g id="line2d_68">
     <path d="M 210.321906 238.022454 
L 230.321906 238.022454 
" style="fill:none;stroke:#4682b4;stroke-linecap:square;stroke-width:1.5;"/>
    </g>
    <g id="line2d_69"/>
    <g id="text_19">
     <!-- CO2 -->
     <defs>
      <path d="M 64.40625 67.28125 
L 64.40625 56.890625 
Q 59.421875 61.53125 53.78125 63.8125 
Q 48.140625 66.109375 41.796875 66.109375 
Q 29.296875 66.109375 22.65625 58.46875 
Q 16.015625 50.828125 16.015625 36.375 
Q 16.015625 21.96875 22.65625 14.328125 
Q 29.296875 6.6875 41.796875 6.6875 
Q 48.140625 6.6875 53.78125 8.984375 
Q 59.421875 11.28125 64.40625 15.921875 
L 64.40625 5.609375 
Q 59.234375 2.09375 53.4375 0.328125 
Q 47.65625 -1.421875 41.21875 -1.421875 
Q 24.65625 -1.421875 15.125 8.703125 
Q 5.609375 18.84375 5.609375 36.375 
Q 5.609375 53.953125 15.125 64.078125 
Q 24.65625 74.21875 41.21875 74.21875 
Q 47.75 74.21875 53.53125 72.484375 
Q 59.328125 70.75 64.40625 67.28125 
z
" id="DejaVuSans-43"/>
     </defs>
     <g transform="translate(238.321906 241.522454)scale(0.1 -0.1)">
      <use xlink:href="#DejaVuSans-43"/>
      <use x="69.824219" xlink:href="#DejaVuSans-4f"/>
      <use x="148.535156" xlink:href="#DejaVuSans-32"/>
     </g>
    </g>
   </g>
  </g>
 </g>
 <defs>
  <clipPath id="p23a2586c7f">
   <rect height="84.939483" width="425.099" x="22.381" y="23.36505"/>
  </clipPath>
  <clipPath id="p0513afb0a3">
   <rect height="84.939483" width="425.099" x="22.381" y="124.144533"/>
  </clipPath>
  <clipPath id="p2c0daafc60">
   <rect height="84.939483" width="425.099" x="22.381" y="224.924017"/>
  </clipPath>
 </defs>
</svg>
