<?xml version="1.0" encoding="utf-8" standalone="no"?>
<!DOCTYPE svg PUBLIC "-//W3C//DTD SVG 1.1//EN"
  "http://www.w3.org/Graphics/SVG/1.1/DTD/svg11.dtd">
<!-- Created with matplotlib (http://matplotlib.org/) -->
<svg height="345.6pt" version="1.1" viewBox="0 0 460.8 345.6" width="460.8pt" xmlns="http://www.w3.org/2000/svg" xmlns:xlink="http://www.w3.org/1999/xlink">
 <defs>
  <style type="text/css">
*{stroke-linecap:butt;stroke-linejoin:round;}
  </style>
 </defs>
 <g id="figure_1">
  <g id="patch_1">
   <path d="M 0 345.6 
L 460.8 345.6 
L 460.8 0 
L 0 0 
z
" style="fill:none;"/>
  </g>
  <g id="axes_1">
   <g id="patch_2">
    <path d="M 40.2185 309.8635 
L 443.059553 309.8635 
L 443.059553 23.36505 
L 40.2185 23.36505 
z
" style="fill:none;"/>
   </g>
   <g id="matplotlib.axis_1">
    <g id="xtick_1">
     <g id="line2d_1">
      <path clip-path="url(#p9e50a8d452)" d="M 85.207131 309.8635 
L 85.207131 23.36505 
" style="fill:none;stroke:#b0b0b0;stroke-linecap:square;stroke-width:0.8;"/>
     </g>
     <g id="line2d_2">
      <defs>
       <path d="M 0 0 
L 0 3.5 
" id="mc73a4159c7" style="stroke:#000000;stroke-width:0.8;"/>
      </defs>
      <g>
       <use style="stroke:#000000;stroke-width:0.8;" x="85.207131" xlink:href="#mc73a4159c7" y="309.8635"/>
      </g>
     </g>
     <g id="text_1">
      <!-- 2003 -->
      <defs>
       <path d="M 19.1875 8.296875 
L 53.609375 8.296875 
L 53.609375 0 
L 7.328125 0 
L 7.328125 8.296875 
Q 12.9375 14.109375 22.625 23.890625 
Q 32.328125 33.6875 34.8125 36.53125 
Q 39.546875 41.84375 41.421875 45.53125 
Q 43.3125 49.21875 43.3125 52.78125 
Q 43.3125 58.59375 39.234375 62.25 
Q 35.15625 65.921875 28.609375 65.921875 
Q 23.96875 65.921875 18.8125 64.3125 
Q 13.671875 62.703125 7.8125 59.421875 
L 7.8125 69.390625 
Q 13.765625 71.78125 18.9375 73 
Q 24.125 74.21875 28.421875 74.21875 
Q 39.75 74.21875 46.484375 68.546875 
Q 53.21875 62.890625 53.21875 53.421875 
Q 53.21875 48.921875 51.53125 44.890625 
Q 49.859375 40.875 45.40625 35.40625 
Q 44.1875 33.984375 37.640625 27.21875 
Q 31.109375 20.453125 19.1875 8.296875 
z
" id="DejaVuSans-32"/>
       <path d="M 31.78125 66.40625 
Q 24.171875 66.40625 20.328125 58.90625 
Q 16.5 51.421875 16.5 36.375 
Q 16.5 21.390625 20.328125 13.890625 
Q 24.171875 6.390625 31.78125 6.390625 
Q 39.453125 6.390625 43.28125 13.890625 
Q 47.125 21.390625 47.125 36.375 
Q 47.125 51.421875 43.28125 58.90625 
Q 39.453125 66.40625 31.78125 66.40625 
z
M 31.78125 74.21875 
Q 44.046875 74.21875 50.515625 64.515625 
Q 56.984375 54.828125 56.984375 36.375 
Q 56.984375 17.96875 50.515625 8.265625 
Q 44.046875 -1.421875 31.78125 -1.421875 
Q 19.53125 -1.421875 13.0625 8.265625 
Q 6.59375 17.96875 6.59375 36.375 
Q 6.59375 54.828125 13.0625 64.515625 
Q 19.53125 74.21875 31.78125 74.21875 
z
" id="DejaVuSans-30"/>
       <path d="M 40.578125 39.3125 
Q 47.65625 37.796875 51.625 33 
Q 55.609375 28.21875 55.609375 21.1875 
Q 55.609375 10.40625 48.1875 4.484375 
Q 40.765625 -1.421875 27.09375 -1.421875 
Q 22.515625 -1.421875 17.65625 -0.515625 
Q 12.796875 0.390625 7.625 2.203125 
L 7.625 11.71875 
Q 11.71875 9.328125 16.59375 8.109375 
Q 21.484375 6.890625 26.8125 6.890625 
Q 36.078125 6.890625 40.9375 10.546875 
Q 45.796875 14.203125 45.796875 21.1875 
Q 45.796875 27.640625 41.28125 31.265625 
Q 36.765625 34.90625 28.71875 34.90625 
L 20.21875 34.90625 
L 20.21875 43.015625 
L 29.109375 43.015625 
Q 36.375 43.015625 40.234375 45.921875 
Q 44.09375 48.828125 44.09375 54.296875 
Q 44.09375 59.90625 40.109375 62.90625 
Q 36.140625 65.921875 28.71875 65.921875 
Q 24.65625 65.921875 20.015625 65.03125 
Q 15.375 64.15625 9.8125 62.3125 
L 9.8125 71.09375 
Q 15.4375 72.65625 20.34375 73.4375 
Q 25.25 74.21875 29.59375 74.21875 
Q 40.828125 74.21875 47.359375 69.109375 
Q 53.90625 64.015625 53.90625 55.328125 
Q 53.90625 49.265625 50.4375 45.09375 
Q 46.96875 40.921875 40.578125 39.3125 
z
" id="DejaVuSans-33"/>
      </defs>
      <g transform="translate(72.482131 324.461937)scale(0.1 -0.1)">
       <use xlink:href="#DejaVuSans-32"/>
       <use x="63.623047" xlink:href="#DejaVuSans-30"/>
       <use x="127.246094" xlink:href="#DejaVuSans-30"/>
       <use x="190.869141" xlink:href="#DejaVuSans-33"/>
      </g>
     </g>
    </g>
    <g id="xtick_2">
     <g id="line2d_3">
      <path clip-path="url(#p9e50a8d452)" d="M 132.188115 309.8635 
L 132.188115 23.36505 
" style="fill:none;stroke:#b0b0b0;stroke-linecap:square;stroke-width:0.8;"/>
     </g>
     <g id="line2d_4">
      <g>
       <use style="stroke:#000000;stroke-width:0.8;" x="132.188115" xlink:href="#mc73a4159c7" y="309.8635"/>
      </g>
     </g>
     <g id="text_2">
      <!-- 2005 -->
      <defs>
       <path d="M 10.796875 72.90625 
L 49.515625 72.90625 
L 49.515625 64.59375 
L 19.828125 64.59375 
L 19.828125 46.734375 
Q 21.96875 47.46875 24.109375 47.828125 
Q 26.265625 48.1875 28.421875 48.1875 
Q 40.625 48.1875 47.75 41.5 
Q 54.890625 34.8125 54.890625 23.390625 
Q 54.890625 11.625 47.5625 5.09375 
Q 40.234375 -1.421875 26.90625 -1.421875 
Q 22.3125 -1.421875 17.546875 -0.640625 
Q 12.796875 0.140625 7.71875 1.703125 
L 7.71875 11.625 
Q 12.109375 9.234375 16.796875 8.0625 
Q 21.484375 6.890625 26.703125 6.890625 
Q 35.15625 6.890625 40.078125 11.328125 
Q 45.015625 15.765625 45.015625 23.390625 
Q 45.015625 31 40.078125 35.4375 
Q 35.15625 39.890625 26.703125 39.890625 
Q 22.75 39.890625 18.8125 39.015625 
Q 14.890625 38.140625 10.796875 36.28125 
z
" id="DejaVuSans-35"/>
      </defs>
      <g transform="translate(119.463115 324.461937)scale(0.1 -0.1)">
       <use xlink:href="#DejaVuSans-32"/>
       <use x="63.623047" xlink:href="#DejaVuSans-30"/>
       <use x="127.246094" xlink:href="#DejaVuSans-30"/>
       <use x="190.869141" xlink:href="#DejaVuSans-35"/>
      </g>
     </g>
    </g>
    <g id="xtick_3">
     <g id="line2d_5">
      <path clip-path="url(#p9e50a8d452)" d="M 179.10483 309.8635 
L 179.10483 23.36505 
" style="fill:none;stroke:#b0b0b0;stroke-linecap:square;stroke-width:0.8;"/>
     </g>
     <g id="line2d_6">
      <g>
       <use style="stroke:#000000;stroke-width:0.8;" x="179.10483" xlink:href="#mc73a4159c7" y="309.8635"/>
      </g>
     </g>
     <g id="text_3">
      <!-- 2007 -->
      <defs>
       <path d="M 8.203125 72.90625 
L 55.078125 72.90625 
L 55.078125 68.703125 
L 28.609375 0 
L 18.3125 0 
L 43.21875 64.59375 
L 8.203125 64.59375 
z
" id="DejaVuSans-37"/>
      </defs>
      <g transform="translate(166.37983 324.461937)scale(0.1 -0.1)">
       <use xlink:href="#DejaVuSans-32"/>
       <use x="63.623047" xlink:href="#DejaVuSans-30"/>
       <use x="127.246094" xlink:href="#DejaVuSans-30"/>
       <use x="190.869141" xlink:href="#DejaVuSans-37"/>
      </g>
     </g>
    </g>
    <g id="xtick_4">
     <g id="line2d_7">
      <path clip-path="url(#p9e50a8d452)" d="M 226.085814 309.8635 
L 226.085814 23.36505 
" style="fill:none;stroke:#b0b0b0;stroke-linecap:square;stroke-width:0.8;"/>
     </g>
     <g id="line2d_8">
      <g>
       <use style="stroke:#000000;stroke-width:0.8;" x="226.085814" xlink:href="#mc73a4159c7" y="309.8635"/>
      </g>
     </g>
     <g id="text_4">
      <!-- 2009 -->
      <defs>
       <path d="M 10.984375 1.515625 
L 10.984375 10.5 
Q 14.703125 8.734375 18.5 7.8125 
Q 22.3125 6.890625 25.984375 6.890625 
Q 35.75 6.890625 40.890625 13.453125 
Q 46.046875 20.015625 46.78125 33.40625 
Q 43.953125 29.203125 39.59375 26.953125 
Q 35.25 24.703125 29.984375 24.703125 
Q 19.046875 24.703125 12.671875 31.3125 
Q 6.296875 37.9375 6.296875 49.421875 
Q 6.296875 60.640625 12.9375 67.421875 
Q 19.578125 74.21875 30.609375 74.21875 
Q 43.265625 74.21875 49.921875 64.515625 
Q 56.59375 54.828125 56.59375 36.375 
Q 56.59375 19.140625 48.40625 8.859375 
Q 40.234375 -1.421875 26.421875 -1.421875 
Q 22.703125 -1.421875 18.890625 -0.6875 
Q 15.09375 0.046875 10.984375 1.515625 
z
M 30.609375 32.421875 
Q 37.25 32.421875 41.125 36.953125 
Q 45.015625 41.5 45.015625 49.421875 
Q 45.015625 57.28125 41.125 61.84375 
Q 37.25 66.40625 30.609375 66.40625 
Q 23.96875 66.40625 20.09375 61.84375 
Q 16.21875 57.28125 16.21875 49.421875 
Q 16.21875 41.5 20.09375 36.953125 
Q 23.96875 32.421875 30.609375 32.421875 
z
" id="DejaVuSans-39"/>
      </defs>
      <g transform="translate(213.360814 324.461937)scale(0.1 -0.1)">
       <use xlink:href="#DejaVuSans-32"/>
       <use x="63.623047" xlink:href="#DejaVuSans-30"/>
       <use x="127.246094" xlink:href="#DejaVuSans-30"/>
       <use x="190.869141" xlink:href="#DejaVuSans-39"/>
      </g>
     </g>
    </g>
    <g id="xtick_5">
     <g id="line2d_9">
      <path clip-path="url(#p9e50a8d452)" d="M 273.002529 309.8635 
L 273.002529 23.36505 
" style="fill:none;stroke:#b0b0b0;stroke-linecap:square;stroke-width:0.8;"/>
     </g>
     <g id="line2d_10">
      <g>
       <use style="stroke:#000000;stroke-width:0.8;" x="273.002529" xlink:href="#mc73a4159c7" y="309.8635"/>
      </g>
     </g>
     <g id="text_5">
      <!-- 2011 -->
      <defs>
       <path d="M 12.40625 8.296875 
L 28.515625 8.296875 
L 28.515625 63.921875 
L 10.984375 60.40625 
L 10.984375 69.390625 
L 28.421875 72.90625 
L 38.28125 72.90625 
L 38.28125 8.296875 
L 54.390625 8.296875 
L 54.390625 0 
L 12.40625 0 
z
" id="DejaVuSans-31"/>
      </defs>
      <g transform="translate(260.277529 324.461937)scale(0.1 -0.1)">
       <use xlink:href="#DejaVuSans-32"/>
       <use x="63.623047" xlink:href="#DejaVuSans-30"/>
       <use x="127.246094" xlink:href="#DejaVuSans-31"/>
       <use x="190.869141" xlink:href="#DejaVuSans-31"/>
      </g>
     </g>
    </g>
    <g id="xtick_6">
     <g id="line2d_11">
      <path clip-path="url(#p9e50a8d452)" d="M 319.983513 309.8635 
L 319.983513 23.36505 
" style="fill:none;stroke:#b0b0b0;stroke-linecap:square;stroke-width:0.8;"/>
     </g>
     <g id="line2d_12">
      <g>
       <use style="stroke:#000000;stroke-width:0.8;" x="319.983513" xlink:href="#mc73a4159c7" y="309.8635"/>
      </g>
     </g>
     <g id="text_6">
      <!-- 2013 -->
      <g transform="translate(307.258513 324.461937)scale(0.1 -0.1)">
       <use xlink:href="#DejaVuSans-32"/>
       <use x="63.623047" xlink:href="#DejaVuSans-30"/>
       <use x="127.246094" xlink:href="#DejaVuSans-31"/>
       <use x="190.869141" xlink:href="#DejaVuSans-33"/>
      </g>
     </g>
    </g>
    <g id="xtick_7">
     <g id="line2d_13">
      <path clip-path="url(#p9e50a8d452)" d="M 366.900228 309.8635 
L 366.900228 23.36505 
" style="fill:none;stroke:#b0b0b0;stroke-linecap:square;stroke-width:0.8;"/>
     </g>
     <g id="line2d_14">
      <g>
       <use style="stroke:#000000;stroke-width:0.8;" x="366.900228" xlink:href="#mc73a4159c7" y="309.8635"/>
      </g>
     </g>
     <g id="text_7">
      <!-- 2015 -->
      <g transform="translate(354.175228 324.461937)scale(0.1 -0.1)">
       <use xlink:href="#DejaVuSans-32"/>
       <use x="63.623047" xlink:href="#DejaVuSans-30"/>
       <use x="127.246094" xlink:href="#DejaVuSans-31"/>
       <use x="190.869141" xlink:href="#DejaVuSans-35"/>
      </g>
     </g>
    </g>
    <g id="xtick_8">
     <g id="line2d_15">
      <path clip-path="url(#p9e50a8d452)" d="M 413.881212 309.8635 
L 413.881212 23.36505 
" style="fill:none;stroke:#b0b0b0;stroke-linecap:square;stroke-width:0.8;"/>
     </g>
     <g id="line2d_16">
      <g>
       <use style="stroke:#000000;stroke-width:0.8;" x="413.881212" xlink:href="#mc73a4159c7" y="309.8635"/>
      </g>
     </g>
     <g id="text_8">
      <!-- 2017 -->
      <g transform="translate(401.156212 324.461937)scale(0.1 -0.1)">
       <use xlink:href="#DejaVuSans-32"/>
       <use x="63.623047" xlink:href="#DejaVuSans-30"/>
       <use x="127.246094" xlink:href="#DejaVuSans-31"/>
       <use x="190.869141" xlink:href="#DejaVuSans-37"/>
      </g>
     </g>
    </g>
    <g id="text_9">
     <!-- Date -->
     <defs>
      <path d="M 19.671875 64.796875 
L 19.671875 8.109375 
L 31.59375 8.109375 
Q 46.6875 8.109375 53.6875 14.9375 
Q 60.6875 21.78125 60.6875 36.53125 
Q 60.6875 51.171875 53.6875 57.984375 
Q 46.6875 64.796875 31.59375 64.796875 
z
M 9.8125 72.90625 
L 30.078125 72.90625 
Q 51.265625 72.90625 61.171875 64.09375 
Q 71.09375 55.28125 71.09375 36.53125 
Q 71.09375 17.671875 61.125 8.828125 
Q 51.171875 0 30.078125 0 
L 9.8125 0 
z
" id="DejaVuSans-44"/>
      <path d="M 34.28125 27.484375 
Q 23.390625 27.484375 19.1875 25 
Q 14.984375 22.515625 14.984375 16.5 
Q 14.984375 11.71875 18.140625 8.90625 
Q 21.296875 6.109375 26.703125 6.109375 
Q 34.1875 6.109375 38.703125 11.40625 
Q 43.21875 16.703125 43.21875 25.484375 
L 43.21875 27.484375 
z
M 52.203125 31.203125 
L 52.203125 0 
L 43.21875 0 
L 43.21875 8.296875 
Q 40.140625 3.328125 35.546875 0.953125 
Q 30.953125 -1.421875 24.3125 -1.421875 
Q 15.921875 -1.421875 10.953125 3.296875 
Q 6 8.015625 6 15.921875 
Q 6 25.140625 12.171875 29.828125 
Q 18.359375 34.515625 30.609375 34.515625 
L 43.21875 34.515625 
L 43.21875 35.40625 
Q 43.21875 41.609375 39.140625 45 
Q 35.0625 48.390625 27.6875 48.390625 
Q 23 48.390625 18.546875 47.265625 
Q 14.109375 46.140625 10.015625 43.890625 
L 10.015625 52.203125 
Q 14.9375 54.109375 19.578125 55.046875 
Q 24.21875 56 28.609375 56 
Q 40.484375 56 46.34375 49.84375 
Q 52.203125 43.703125 52.203125 31.203125 
z
" id="DejaVuSans-61"/>
      <path d="M 18.3125 70.21875 
L 18.3125 54.6875 
L 36.8125 54.6875 
L 36.8125 47.703125 
L 18.3125 47.703125 
L 18.3125 18.015625 
Q 18.3125 11.328125 20.140625 9.421875 
Q 21.96875 7.515625 27.59375 7.515625 
L 36.8125 7.515625 
L 36.8125 0 
L 27.59375 0 
Q 17.1875 0 13.234375 3.875 
Q 9.28125 7.765625 9.28125 18.015625 
L 9.28125 47.703125 
L 2.6875 47.703125 
L 2.6875 54.6875 
L 9.28125 54.6875 
L 9.28125 70.21875 
z
" id="DejaVuSans-74"/>
      <path d="M 56.203125 29.59375 
L 56.203125 25.203125 
L 14.890625 25.203125 
Q 15.484375 15.921875 20.484375 11.0625 
Q 25.484375 6.203125 34.421875 6.203125 
Q 39.59375 6.203125 44.453125 7.46875 
Q 49.3125 8.734375 54.109375 11.28125 
L 54.109375 2.78125 
Q 49.265625 0.734375 44.1875 -0.34375 
Q 39.109375 -1.421875 33.890625 -1.421875 
Q 20.796875 -1.421875 13.15625 6.1875 
Q 5.515625 13.8125 5.515625 26.8125 
Q 5.515625 40.234375 12.765625 48.109375 
Q 20.015625 56 32.328125 56 
Q 43.359375 56 49.78125 48.890625 
Q 56.203125 41.796875 56.203125 29.59375 
z
M 47.21875 32.234375 
Q 47.125 39.59375 43.09375 43.984375 
Q 39.0625 48.390625 32.421875 48.390625 
Q 24.90625 48.390625 20.390625 44.140625 
Q 15.875 39.890625 15.1875 32.171875 
z
" id="DejaVuSans-65"/>
     </defs>
     <g transform="translate(229.688245 338.140062)scale(0.1 -0.1)">
      <use xlink:href="#DejaVuSans-44"/>
      <use x="77.001953" xlink:href="#DejaVuSans-61"/>
      <use x="138.28125" xlink:href="#DejaVuSans-74"/>
      <use x="177.490234" xlink:href="#DejaVuSans-65"/>
     </g>
    </g>
   </g>
   <g id="matplotlib.axis_2">
    <g id="ytick_1">
     <g id="line2d_17">
      <path clip-path="url(#p9e50a8d452)" d="M 40.2185 296.847443 
L 443.059553 296.847443 
" style="fill:none;stroke:#b0b0b0;stroke-linecap:square;stroke-width:0.8;"/>
     </g>
     <g id="line2d_18">
      <defs>
       <path d="M 0 0 
L -3.5 0 
" id="m95007e73dc" style="stroke:#000000;stroke-width:0.8;"/>
      </defs>
      <g>
       <use style="stroke:#000000;stroke-width:0.8;" x="40.2185" xlink:href="#m95007e73dc" y="296.847443"/>
      </g>
     </g>
     <g id="text_10">
      <!-- 0.0 -->
      <defs>
       <path d="M 10.6875 12.40625 
L 21 12.40625 
L 21 0 
L 10.6875 0 
z
" id="DejaVuSans-2e"/>
      </defs>
      <g transform="translate(17.315375 300.646662)scale(0.1 -0.1)">
       <use xlink:href="#DejaVuSans-30"/>
       <use x="63.623047" xlink:href="#DejaVuSans-2e"/>
       <use x="95.410156" xlink:href="#DejaVuSans-30"/>
      </g>
     </g>
    </g>
    <g id="ytick_2">
     <g id="line2d_19">
      <path clip-path="url(#p9e50a8d452)" d="M 40.2185 259.753936 
L 443.059553 259.753936 
" style="fill:none;stroke:#b0b0b0;stroke-linecap:square;stroke-width:0.8;"/>
     </g>
     <g id="line2d_20">
      <g>
       <use style="stroke:#000000;stroke-width:0.8;" x="40.2185" xlink:href="#m95007e73dc" y="259.753936"/>
      </g>
     </g>
     <g id="text_11">
      <!-- 0.5 -->
      <g transform="translate(17.315375 263.553155)scale(0.1 -0.1)">
       <use xlink:href="#DejaVuSans-30"/>
       <use x="63.623047" xlink:href="#DejaVuSans-2e"/>
       <use x="95.410156" xlink:href="#DejaVuSans-35"/>
      </g>
     </g>
    </g>
    <g id="ytick_3">
     <g id="line2d_21">
      <path clip-path="url(#p9e50a8d452)" d="M 40.2185 222.66043 
L 443.059553 222.66043 
" style="fill:none;stroke:#b0b0b0;stroke-linecap:square;stroke-width:0.8;"/>
     </g>
     <g id="line2d_22">
      <g>
       <use style="stroke:#000000;stroke-width:0.8;" x="40.2185" xlink:href="#m95007e73dc" y="222.66043"/>
      </g>
     </g>
     <g id="text_12">
      <!-- 1.0 -->
      <g transform="translate(17.315375 226.459649)scale(0.1 -0.1)">
       <use xlink:href="#DejaVuSans-31"/>
       <use x="63.623047" xlink:href="#DejaVuSans-2e"/>
       <use x="95.410156" xlink:href="#DejaVuSans-30"/>
      </g>
     </g>
    </g>
    <g id="ytick_4">
     <g id="line2d_23">
      <path clip-path="url(#p9e50a8d452)" d="M 40.2185 185.566924 
L 443.059553 185.566924 
" style="fill:none;stroke:#b0b0b0;stroke-linecap:square;stroke-width:0.8;"/>
     </g>
     <g id="line2d_24">
      <g>
       <use style="stroke:#000000;stroke-width:0.8;" x="40.2185" xlink:href="#m95007e73dc" y="185.566924"/>
      </g>
     </g>
     <g id="text_13">
      <!-- 1.5 -->
      <g transform="translate(17.315375 189.366142)scale(0.1 -0.1)">
       <use xlink:href="#DejaVuSans-31"/>
       <use x="63.623047" xlink:href="#DejaVuSans-2e"/>
       <use x="95.410156" xlink:href="#DejaVuSans-35"/>
      </g>
     </g>
    </g>
    <g id="ytick_5">
     <g id="line2d_25">
      <path clip-path="url(#p9e50a8d452)" d="M 40.2185 148.473417 
L 443.059553 148.473417 
" style="fill:none;stroke:#b0b0b0;stroke-linecap:square;stroke-width:0.8;"/>
     </g>
     <g id="line2d_26">
      <g>
       <use style="stroke:#000000;stroke-width:0.8;" x="40.2185" xlink:href="#m95007e73dc" y="148.473417"/>
      </g>
     </g>
     <g id="text_14">
      <!-- 2.0 -->
      <g transform="translate(17.315375 152.272636)scale(0.1 -0.1)">
       <use xlink:href="#DejaVuSans-32"/>
       <use x="63.623047" xlink:href="#DejaVuSans-2e"/>
       <use x="95.410156" xlink:href="#DejaVuSans-30"/>
      </g>
     </g>
    </g>
    <g id="ytick_6">
     <g id="line2d_27">
      <path clip-path="url(#p9e50a8d452)" d="M 40.2185 111.379911 
L 443.059553 111.379911 
" style="fill:none;stroke:#b0b0b0;stroke-linecap:square;stroke-width:0.8;"/>
     </g>
     <g id="line2d_28">
      <g>
       <use style="stroke:#000000;stroke-width:0.8;" x="40.2185" xlink:href="#m95007e73dc" y="111.379911"/>
      </g>
     </g>
     <g id="text_15">
      <!-- 2.5 -->
      <g transform="translate(17.315375 115.17913)scale(0.1 -0.1)">
       <use xlink:href="#DejaVuSans-32"/>
       <use x="63.623047" xlink:href="#DejaVuSans-2e"/>
       <use x="95.410156" xlink:href="#DejaVuSans-35"/>
      </g>
     </g>
    </g>
    <g id="ytick_7">
     <g id="line2d_29">
      <path clip-path="url(#p9e50a8d452)" d="M 40.2185 74.286404 
L 443.059553 74.286404 
" style="fill:none;stroke:#b0b0b0;stroke-linecap:square;stroke-width:0.8;"/>
     </g>
     <g id="line2d_30">
      <g>
       <use style="stroke:#000000;stroke-width:0.8;" x="40.2185" xlink:href="#m95007e73dc" y="74.286404"/>
      </g>
     </g>
     <g id="text_16">
      <!-- 3.0 -->
      <g transform="translate(17.315375 78.085623)scale(0.1 -0.1)">
       <use xlink:href="#DejaVuSans-33"/>
       <use x="63.623047" xlink:href="#DejaVuSans-2e"/>
       <use x="95.410156" xlink:href="#DejaVuSans-30"/>
      </g>
     </g>
    </g>
    <g id="ytick_8">
     <g id="line2d_31">
      <path clip-path="url(#p9e50a8d452)" d="M 40.2185 37.192898 
L 443.059553 37.192898 
" style="fill:none;stroke:#b0b0b0;stroke-linecap:square;stroke-width:0.8;"/>
     </g>
     <g id="line2d_32">
      <g>
       <use style="stroke:#000000;stroke-width:0.8;" x="40.2185" xlink:href="#m95007e73dc" y="37.192898"/>
      </g>
     </g>
     <g id="text_17">
      <!-- 3.5 -->
      <g transform="translate(17.315375 40.992117)scale(0.1 -0.1)">
       <use xlink:href="#DejaVuSans-33"/>
       <use x="63.623047" xlink:href="#DejaVuSans-2e"/>
       <use x="95.410156" xlink:href="#DejaVuSans-35"/>
      </g>
     </g>
    </g>
    <g id="text_18">
     <!-- Emissions / mean emissions -->
     <defs>
      <path d="M 9.8125 72.90625 
L 55.90625 72.90625 
L 55.90625 64.59375 
L 19.671875 64.59375 
L 19.671875 43.015625 
L 54.390625 43.015625 
L 54.390625 34.71875 
L 19.671875 34.71875 
L 19.671875 8.296875 
L 56.78125 8.296875 
L 56.78125 0 
L 9.8125 0 
z
" id="DejaVuSans-45"/>
      <path d="M 52 44.1875 
Q 55.375 50.25 60.0625 53.125 
Q 64.75 56 71.09375 56 
Q 79.640625 56 84.28125 50.015625 
Q 88.921875 44.046875 88.921875 33.015625 
L 88.921875 0 
L 79.890625 0 
L 79.890625 32.71875 
Q 79.890625 40.578125 77.09375 44.375 
Q 74.3125 48.1875 68.609375 48.1875 
Q 61.625 48.1875 57.5625 43.546875 
Q 53.515625 38.921875 53.515625 30.90625 
L 53.515625 0 
L 44.484375 0 
L 44.484375 32.71875 
Q 44.484375 40.625 41.703125 44.40625 
Q 38.921875 48.1875 33.109375 48.1875 
Q 26.21875 48.1875 22.15625 43.53125 
Q 18.109375 38.875 18.109375 30.90625 
L 18.109375 0 
L 9.078125 0 
L 9.078125 54.6875 
L 18.109375 54.6875 
L 18.109375 46.1875 
Q 21.1875 51.21875 25.484375 53.609375 
Q 29.78125 56 35.6875 56 
Q 41.65625 56 45.828125 52.96875 
Q 50 49.953125 52 44.1875 
z
" id="DejaVuSans-6d"/>
      <path d="M 9.421875 54.6875 
L 18.40625 54.6875 
L 18.40625 0 
L 9.421875 0 
z
M 9.421875 75.984375 
L 18.40625 75.984375 
L 18.40625 64.59375 
L 9.421875 64.59375 
z
" id="DejaVuSans-69"/>
      <path d="M 44.28125 53.078125 
L 44.28125 44.578125 
Q 40.484375 46.53125 36.375 47.5 
Q 32.28125 48.484375 27.875 48.484375 
Q 21.1875 48.484375 17.84375 46.4375 
Q 14.5 44.390625 14.5 40.28125 
Q 14.5 37.15625 16.890625 35.375 
Q 19.28125 33.59375 26.515625 31.984375 
L 29.59375 31.296875 
Q 39.15625 29.25 43.1875 25.515625 
Q 47.21875 21.78125 47.21875 15.09375 
Q 47.21875 7.46875 41.1875 3.015625 
Q 35.15625 -1.421875 24.609375 -1.421875 
Q 20.21875 -1.421875 15.453125 -0.5625 
Q 10.6875 0.296875 5.421875 2 
L 5.421875 11.28125 
Q 10.40625 8.6875 15.234375 7.390625 
Q 20.0625 6.109375 24.8125 6.109375 
Q 31.15625 6.109375 34.5625 8.28125 
Q 37.984375 10.453125 37.984375 14.40625 
Q 37.984375 18.0625 35.515625 20.015625 
Q 33.0625 21.96875 24.703125 23.78125 
L 21.578125 24.515625 
Q 13.234375 26.265625 9.515625 29.90625 
Q 5.8125 33.546875 5.8125 39.890625 
Q 5.8125 47.609375 11.28125 51.796875 
Q 16.75 56 26.8125 56 
Q 31.78125 56 36.171875 55.265625 
Q 40.578125 54.546875 44.28125 53.078125 
z
" id="DejaVuSans-73"/>
      <path d="M 30.609375 48.390625 
Q 23.390625 48.390625 19.1875 42.75 
Q 14.984375 37.109375 14.984375 27.296875 
Q 14.984375 17.484375 19.15625 11.84375 
Q 23.34375 6.203125 30.609375 6.203125 
Q 37.796875 6.203125 41.984375 11.859375 
Q 46.1875 17.53125 46.1875 27.296875 
Q 46.1875 37.015625 41.984375 42.703125 
Q 37.796875 48.390625 30.609375 48.390625 
z
M 30.609375 56 
Q 42.328125 56 49.015625 48.375 
Q 55.71875 40.765625 55.71875 27.296875 
Q 55.71875 13.875 49.015625 6.21875 
Q 42.328125 -1.421875 30.609375 -1.421875 
Q 18.84375 -1.421875 12.171875 6.21875 
Q 5.515625 13.875 5.515625 27.296875 
Q 5.515625 40.765625 12.171875 48.375 
Q 18.84375 56 30.609375 56 
z
" id="DejaVuSans-6f"/>
      <path d="M 54.890625 33.015625 
L 54.890625 0 
L 45.90625 0 
L 45.90625 32.71875 
Q 45.90625 40.484375 42.875 44.328125 
Q 39.84375 48.1875 33.796875 48.1875 
Q 26.515625 48.1875 22.3125 43.546875 
Q 18.109375 38.921875 18.109375 30.90625 
L 18.109375 0 
L 9.078125 0 
L 9.078125 54.6875 
L 18.109375 54.6875 
L 18.109375 46.1875 
Q 21.34375 51.125 25.703125 53.5625 
Q 30.078125 56 35.796875 56 
Q 45.21875 56 50.046875 50.171875 
Q 54.890625 44.34375 54.890625 33.015625 
z
" id="DejaVuSans-6e"/>
      <path id="DejaVuSans-20"/>
      <path d="M 25.390625 72.90625 
L 33.6875 72.90625 
L 8.296875 -9.28125 
L 0 -9.28125 
z
" id="DejaVuSans-2f"/>
     </defs>
     <g transform="translate(11.235688 236.862713)rotate(-90)scale(0.1 -0.1)">
      <use xlink:href="#DejaVuSans-45"/>
      <use x="63.183594" xlink:href="#DejaVuSans-6d"/>
      <use x="160.595703" xlink:href="#DejaVuSans-69"/>
      <use x="188.378906" xlink:href="#DejaVuSans-73"/>
      <use x="240.478516" xlink:href="#DejaVuSans-73"/>
      <use x="292.578125" xlink:href="#DejaVuSans-69"/>
      <use x="320.361328" xlink:href="#DejaVuSans-6f"/>
      <use x="381.542969" xlink:href="#DejaVuSans-6e"/>
      <use x="444.921875" xlink:href="#DejaVuSans-73"/>
      <use x="497.021484" xlink:href="#DejaVuSans-20"/>
      <use x="528.808594" xlink:href="#DejaVuSans-2f"/>
      <use x="562.5" xlink:href="#DejaVuSans-20"/>
      <use x="594.287109" xlink:href="#DejaVuSans-6d"/>
      <use x="691.699219" xlink:href="#DejaVuSans-65"/>
      <use x="753.222656" xlink:href="#DejaVuSans-61"/>
      <use x="814.501953" xlink:href="#DejaVuSans-6e"/>
      <use x="877.880859" xlink:href="#DejaVuSans-20"/>
      <use x="909.667969" xlink:href="#DejaVuSans-65"/>
      <use x="971.191406" xlink:href="#DejaVuSans-6d"/>
      <use x="1068.603516" xlink:href="#DejaVuSans-69"/>
      <use x="1096.386719" xlink:href="#DejaVuSans-73"/>
      <use x="1148.486328" xlink:href="#DejaVuSans-73"/>
      <use x="1200.585938" xlink:href="#DejaVuSans-69"/>
      <use x="1228.369141" xlink:href="#DejaVuSans-6f"/>
      <use x="1289.550781" xlink:href="#DejaVuSans-6e"/>
      <use x="1352.929688" xlink:href="#DejaVuSans-73"/>
     </g>
    </g>
   </g>
   <g id="line2d_33">
    <path clip-path="url(#p9e50a8d452)" d="M 40.2185 225.839053 
L 42.018045 272.685185 
L 44.010399 228.125814 
L 45.938483 233.916923 
L 47.930837 225.410379 
L 49.858921 214.932745 
L 51.851274 198.37752 
L 53.843628 246.538397 
L 55.771712 244.933344 
L 57.764066 228.060718 
L 59.69215 224.504034 
L 61.684504 230.932444 
L 63.676857 228.757576 
L 65.476403 223.941197 
L 69.39684 244.102905 
L 71.389194 238.499785 
L 73.317278 233.863606 
L 75.309632 248.070704 
L 77.301986 250.838036 
L 79.23007 251.42156 
L 83.150508 235.983567 
L 85.142861 234.857106 
L 87.135215 240.104987 
L 88.93476 234.295786 
L 90.927114 241.308214 
L 92.855198 241.833842 
L 94.847551 240.734949 
L 96.775636 231.837259 
L 98.767989 232.140471 
L 100.760343 231.938883 
L 102.688427 234.021387 
L 104.680781 236.534604 
L 106.608865 241.397389 
L 108.601219 237.832325 
L 110.593572 263.389574 
L 112.457387 239.368273 
L 114.449741 260.896125 
L 116.377825 239.924978 
L 118.370178 231.063836 
L 120.298263 235.12027 
L 122.290616 206.931501 
L 124.28297 216.521619 
L 126.211054 224.384072 
L 128.203408 235.046694 
L 130.131492 236.046804 
L 132.123845 252.736621 
L 134.116199 242.569938 
L 135.915744 246.703558 
L 137.908098 244.567816 
L 139.836182 240.0685 
L 141.828536 242.375249 
L 143.75662 240.243019 
L 145.748974 234.375935 
L 147.741327 220.159798 
L 149.669411 226.268447 
L 151.661765 240.768847 
L 153.589849 232.64414 
L 155.582203 230.873348 
L 157.574556 234.687316 
L 159.374102 230.380724 
L 161.366455 233.874366 
L 163.29454 236.244262 
L 165.286893 233.558485 
L 167.214977 234.174517 
L 169.207331 221.968088 
L 171.199685 233.592983 
L 173.127769 232.539057 
L 175.120122 236.000636 
L 177.048207 233.154989 
L 179.04056 236.447909 
L 181.032914 255.173673 
L 182.832459 236.794345 
L 184.824813 266.673774 
L 186.752897 270.230909 
L 188.745251 254.517612 
L 190.673335 247.989139 
L 192.665688 246.373407 
L 194.658042 242.307154 
L 196.586126 226.340673 
L 198.57848 229.968303 
L 200.506564 230.1739 
L 202.498918 234.717014 
L 204.491271 230.912945 
L 206.355086 235.120035 
L 208.34744 233.627481 
L 210.275524 235.336947 
L 212.267877 232.010279 
L 214.195962 227.226289 
L 216.188315 229.268145 
L 218.180669 218.030827 
L 220.108753 225.467146 
L 222.101107 219.437442 
L 224.029191 223.902671 
L 226.021545 229.01946 
L 229.813443 231.455473 
L 231.805797 253.722361 
L 233.733881 231.65716 
L 235.726235 229.989301 
L 237.654319 230.361129 
L 239.646673 240.275677 
L 241.639026 220.889654 
L 243.56711 222.743961 
L 245.559464 228.231708 
L 247.487548 231.146621 
L 249.479902 228.080217 
L 251.472256 231.684198 
L 253.271801 246.441513 
L 255.264154 247.120961 
L 257.192239 238.280528 
L 259.184592 241.556899 
L 261.112676 234.929012 
L 263.10503 229.301143 
L 265.097384 227.799734 
L 267.025468 214.890588 
L 269.017821 218.376406 
L 270.945906 226.800375 
L 272.938259 228.956764 
L 274.930613 227.564549 
L 276.730158 228.162809 
L 278.722512 231.436714 
L 280.650596 230.318041 
L 282.64295 229.772715 
L 284.571034 229.917856 
L 286.563387 233.863266 
L 288.555741 228.480093 
L 290.483825 229.671421 
L 292.476179 226.573409 
L 294.404263 237.347485 
L 296.396617 231.478411 
L 298.38897 230.349879 
L 300.252785 239.094421 
L 302.245139 232.362457 
L 304.173223 231.939553 
L 306.165577 231.064736 
L 308.093661 252.242391 
L 310.086014 269.71829 
L 312.078368 216.943993 
L 314.006452 223.930259 
L 315.998806 228.939665 
L 317.92689 229.806882 
L 319.919244 228.19331 
L 321.911597 207.223983 
L 323.711142 229.216634 
L 325.703496 154.006914 
L 327.63158 279.27275 
L 329.623934 237.200564 
L 331.552018 228.588346 
L 333.544372 186.85582 
L 335.536725 203.474811 
L 337.46481 181.08249 
L 339.457163 119.127131 
L 341.385247 252.096699 
L 343.377601 230.82895 
L 345.369955 229.904107 
L 347.1695 230.704876 
L 349.161853 296.840843 
L 351.089938 262.422793 
L 353.082291 242.980613 
L 355.010375 253.968986 
L 357.002729 165.917991 
L 358.995083 182.229201 
L 360.923167 205.429032 
L 362.915521 173.451433 
L 364.843605 163.859936 
L 366.835958 190.14872 
L 368.828312 164.802658 
L 370.627857 199.730117 
L 372.620211 199.117875 
L 374.548295 250.895832 
L 376.540649 290.914103 
L 378.468733 140.40304 
L 380.461087 202.067296 
L 382.45344 231.593604 
L 384.381524 184.100467 
L 386.373878 202.734756 
L 388.301962 264.459679 
L 390.294316 117.747215 
L 392.286669 187.788463 
L 394.150484 210.169649 
L 396.142838 92.667537 
L 398.070922 137.501616 
L 400.063276 220.973649 
L 401.99136 285.050799 
L 403.983713 282.804695 
L 405.976067 111.674384 
L 407.904151 146.391876 
L 409.896505 195.141017 
L 411.824589 204.014898 
L 413.816943 217.203178 
L 415.809296 233.889965 
L 417.608842 241.088028 
L 419.601195 165.423321 
L 421.529279 218.495359 
L 423.521633 237.411451 
L 425.449717 257.047409 
L 427.442071 290.502828 
L 429.434424 193.265531 
L 431.362509 228.804713 
L 433.354862 225.108598 
L 435.282946 216.251715 
L 437.2753 219.845117 
L 439.267654 221.319228 
L 441.067199 242.271713 
L 443.059553 239.679913 
L 443.059553 239.679913 
" style="fill:none;stroke:#1f77b4;stroke-linecap:square;stroke-width:1.5;"/>
   </g>
   <g id="line2d_34">
    <path clip-path="url(#p9e50a8d452)" d="M 40.2185 223.907053 
L 42.018045 244.534099 
L 44.010399 183.279082 
L 45.938483 202.684843 
L 47.930837 165.570933 
L 49.858921 153.173086 
L 51.851274 36.387707 
L 53.843628 260.11556 
L 55.771712 265.269931 
L 57.764066 246.689659 
L 59.69215 243.209553 
L 61.684504 239.368744 
L 63.676857 239.531175 
L 65.476403 241.445507 
L 67.468756 268.089233 
L 69.39684 267.841482 
L 71.389194 241.487213 
L 75.309632 258.927328 
L 77.301986 257.800479 
L 79.23007 260.275292 
L 81.222423 263.928968 
L 83.150508 242.767557 
L 85.142861 235.392934 
L 87.135215 205.724885 
L 88.93476 193.175778 
L 90.927114 219.660394 
L 92.855198 224.511112 
L 94.847551 220.789593 
L 96.775636 187.501792 
L 98.767989 221.57417 
L 100.760343 225.423892 
L 102.688427 236.007239 
L 104.680781 236.1712 
L 106.608865 236.778496 
L 108.601219 217.1888 
L 110.593572 250.751864 
L 112.457387 236.026386 
L 114.449741 245.497045 
L 116.377825 214.918541 
L 118.370178 210.466774 
L 120.298263 224.103761 
L 122.290616 177.781472 
L 124.28297 185.027845 
L 128.203408 245.288159 
L 130.131492 222.329463 
L 132.123845 242.906224 
L 134.116199 227.549993 
L 135.915744 239.465221 
L 137.908098 230.88056 
L 139.836182 234.51886 
L 141.828536 235.794761 
L 145.748974 218.052808 
L 147.741327 187.359045 
L 149.669411 209.607594 
L 151.661765 245.608901 
L 153.589849 229.08966 
L 155.582203 223.235769 
L 157.574556 223.356737 
L 159.374102 225.873679 
L 161.366455 221.404514 
L 163.29454 226.588645 
L 165.286893 219.963088 
L 167.214977 216.515533 
L 169.207331 204.061023 
L 171.199685 216.186415 
L 173.127769 212.947538 
L 175.120122 231.985009 
L 177.048207 221.309196 
L 179.04056 229.684305 
L 181.032914 248.704135 
L 182.832459 233.145323 
L 184.824813 261.299005 
L 186.752897 272.409176 
L 188.745251 256.687717 
L 190.673335 251.997047 
L 192.665688 236.515735 
L 194.658042 238.655938 
L 196.586126 218.219641 
L 198.57848 234.081601 
L 200.506564 235.618777 
L 202.498918 244.929667 
L 204.491271 236.655824 
L 206.355086 241.403178 
L 208.34744 239.451846 
L 210.275524 241.47152 
L 212.267877 229.257582 
L 214.195962 226.209493 
L 216.188315 218.495374 
L 218.180669 203.759503 
L 220.108753 213.572717 
L 222.101107 207.651922 
L 224.029191 204.888845 
L 226.021545 217.886445 
L 228.013898 222.700396 
L 229.813443 225.169584 
L 231.805797 250.034227 
L 233.733881 227.80743 
L 235.726235 233.037157 
L 237.654319 242.118556 
L 239.646673 226.479579 
L 241.639026 220.869039 
L 243.56711 213.064787 
L 245.559464 238.132707 
L 247.487548 236.380095 
L 249.479902 230.548429 
L 251.472256 228.838185 
L 253.271801 239.194763 
L 255.264154 237.640916 
L 257.192239 214.154255 
L 259.184592 230.964794 
L 261.112676 222.580422 
L 263.10503 229.692038 
L 265.097384 225.617602 
L 267.025468 149.278333 
L 269.017821 151.275321 
L 270.945906 190.508398 
L 272.938259 205.991005 
L 274.930613 216.080797 
L 276.730158 217.499544 
L 278.722512 217.340191 
L 282.64295 213.90592 
L 284.571034 220.69559 
L 286.563387 206.936316 
L 288.555741 225.912317 
L 290.483825 234.03018 
L 292.476179 227.229584 
L 294.404263 228.900406 
L 296.396617 227.339279 
L 298.38897 226.971748 
L 300.252785 225.551305 
L 302.245139 230.64717 
L 304.173223 227.397231 
L 306.165577 231.71017 
L 308.093661 253.595329 
L 310.086014 267.560243 
L 312.078368 211.672562 
L 314.006452 208.371958 
L 315.998806 217.557781 
L 317.92689 215.14184 
L 319.919244 227.847551 
L 321.911597 213.476687 
L 323.711142 216.706351 
L 325.703496 223.686358 
L 327.63158 276.072098 
L 329.623934 229.640404 
L 331.552018 237.815269 
L 333.544372 220.547905 
L 335.536725 217.108092 
L 337.46481 218.998993 
L 339.457163 237.612219 
L 341.385247 236.683 
L 343.377601 238.511786 
L 345.369955 238.976085 
L 347.1695 238.944221 
L 349.161853 296.731205 
L 351.089938 265.983365 
L 353.082291 219.548537 
L 355.010375 233.857432 
L 357.002729 213.38047 
L 358.995083 217.939835 
L 360.923167 220.192893 
L 362.915521 201.340341 
L 364.843605 215.072159 
L 366.835958 219.850709 
L 368.828312 229.04533 
L 370.627857 249.352403 
L 372.620211 260.352113 
L 374.548295 268.514334 
L 376.540649 289.812422 
L 378.468733 223.710352 
L 380.461087 219.823231 
L 382.45344 217.219586 
L 384.381524 220.046155 
L 386.373878 208.995825 
L 388.301962 232.619352 
L 390.294316 213.795064 
L 392.286669 223.718493 
L 394.150484 224.596972 
L 396.142838 220.589354 
L 398.070922 220.677421 
L 400.063276 259.90798 
L 401.99136 277.007048 
L 403.983713 274.089283 
L 405.976067 212.889912 
L 407.904151 231.053257 
L 409.896505 221.759002 
L 411.824589 225.236075 
L 413.816943 223.515628 
L 415.809296 224.095469 
L 417.608842 217.563248 
L 419.601195 222.769323 
L 421.529279 212.1157 
L 423.521633 212.748459 
L 425.449717 275.497141 
L 427.442071 286.081855 
L 429.434424 223.80528 
L 431.362509 213.656864 
L 433.354862 215.910531 
L 435.282946 206.201552 
L 437.2753 216.418978 
L 439.267654 234.03416 
L 441.067199 223.911625 
L 443.059553 218.236653 
L 443.059553 218.236653 
" style="fill:none;stroke:#ff7f0e;stroke-linecap:square;stroke-width:1.5;"/>
   </g>
   <g id="line2d_35">
    <path clip-path="url(#p9e50a8d452)" d="M 40.2185 219.410805 
L 42.018045 264.408326 
L 44.010399 211.946649 
L 45.938483 221.60715 
L 47.930837 206.497199 
L 49.858921 189.641478 
L 51.851274 159.581397 
L 53.843628 243.361289 
L 55.771712 242.231543 
L 57.764066 224.835576 
L 59.69215 221.355353 
L 61.684504 219.537814 
L 63.676857 220.091347 
L 65.476403 221.559486 
L 67.468756 234.438953 
L 69.39684 235.63473 
L 71.389194 226.543164 
L 73.317278 223.143173 
L 75.309632 238.764511 
L 77.301986 240.883666 
L 79.23007 241.887013 
L 81.222423 235.838054 
L 83.150508 225.097269 
L 85.142861 223.41404 
L 87.135215 228.638263 
L 88.93476 223.881267 
L 90.927114 232.81986 
L 92.855198 233.076323 
L 94.847551 231.760906 
L 96.775636 218.146782 
L 98.767989 219.802054 
L 100.760343 219.695361 
L 102.688427 224.104766 
L 104.680781 227.531696 
L 106.608865 231.637025 
L 108.601219 229.591521 
L 110.593572 255.148884 
L 112.457387 230.608045 
L 114.449741 253.270412 
L 116.377825 229.336338 
L 118.370178 217.864876 
L 120.298263 227.441102 
L 122.290616 181.810457 
L 124.28297 192.475531 
L 126.211054 204.124482 
L 128.203408 224.219473 
L 130.131492 225.043432 
L 132.123845 245.181927 
L 134.116199 233.702571 
L 135.915744 240.988347 
L 139.836182 235.041495 
L 141.828536 234.9354 
L 143.75662 230.606398 
L 145.748974 217.421901 
L 147.741327 195.083155 
L 149.669411 206.803186 
L 151.661765 233.702197 
L 153.589849 221.078441 
L 155.582203 219.197668 
L 157.574556 222.565979 
L 159.374102 218.971372 
L 161.366455 228.399325 
L 163.29454 230.540068 
L 165.286893 224.1058 
L 167.214977 224.228539 
L 169.207331 205.515523 
L 171.199685 222.098449 
L 173.127769 219.584277 
L 175.120122 228.72788 
L 177.048207 225.397622 
L 179.04056 229.36405 
L 181.032914 249.586757 
L 182.832459 229.856491 
L 184.824813 262.487649 
L 186.752897 267.117802 
L 188.745251 249.052669 
L 190.673335 241.998422 
L 192.665688 235.338241 
L 194.658042 232.157266 
L 196.586126 212.46893 
L 198.57848 222.35546 
L 200.506564 222.540021 
L 202.498918 229.248882 
L 204.491271 222.64039 
L 206.355086 229.223575 
L 208.34744 226.778238 
L 210.275524 229.065738 
L 212.267877 223.230069 
L 214.195962 215.982491 
L 216.188315 217.231448 
L 218.180669 201.968351 
L 220.108753 212.578278 
L 222.101107 204.183604 
L 224.029191 209.076567 
L 226.021545 219.023544 
L 228.013898 222.263145 
L 229.813443 229.074496 
L 231.805797 253.054054 
L 233.733881 231.197701 
L 235.726235 221.186836 
L 237.654319 226.839748 
L 239.646673 224.097614 
L 241.639026 208.602259 
L 243.56711 211.415187 
L 245.559464 227.690714 
L 247.487548 232.083103 
L 249.479902 226.922593 
L 251.472256 228.580933 
L 253.271801 231.454081 
L 255.264154 229.828235 
L 257.192239 220.25752 
L 259.184592 226.221185 
L 261.112676 214.666173 
L 263.10503 218.746401 
L 265.097384 217.479261 
L 267.025468 186.192584 
L 269.017821 202.729541 
L 270.945906 206.877656 
L 272.938259 205.142625 
L 274.930613 212.493217 
L 276.730158 213.340796 
L 278.722512 219.528277 
L 280.650596 215.749091 
L 282.64295 215.030534 
L 284.571034 220.51267 
L 286.563387 216.670592 
L 288.555741 214.485791 
L 290.483825 220.155184 
L 292.476179 215.446547 
L 294.404263 228.353021 
L 296.396617 219.94433 
L 298.38897 219.055003 
L 300.252785 229.184441 
L 302.245139 226.707497 
L 304.173223 223.764244 
L 306.165577 223.046557 
L 308.093661 245.77586 
L 310.086014 262.887853 
L 312.078368 199.748032 
L 314.006452 201.918064 
L 315.998806 211.873684 
L 317.92689 215.755531 
L 319.919244 214.276927 
L 321.911597 215.565819 
L 323.711142 220.144592 
L 325.703496 227.334354 
L 327.63158 276.377332 
L 329.623934 233.208054 
L 331.552018 225.823427 
L 333.544372 229.188625 
L 335.536725 218.823713 
L 337.46481 217.562867 
L 339.457163 229.97962 
L 341.385247 228.951058 
L 343.377601 229.446179 
L 345.369955 230.479801 
L 347.1695 227.653458 
L 349.161853 296.838469 
L 351.089938 269.073315 
L 353.082291 232.365577 
L 355.010375 230.914416 
L 357.002729 214.165397 
L 358.995083 218.630833 
L 360.923167 222.110269 
L 362.915521 207.564659 
L 364.843605 223.377618 
L 366.835958 227.38248 
L 368.828312 227.379519 
L 370.627857 235.972476 
L 372.620211 248.103229 
L 374.548295 261.975866 
L 376.540649 290.7661 
L 378.468733 223.866302 
L 382.45344 230.908353 
L 384.381524 234.104157 
L 386.373878 221.42532 
L 388.301962 239.568893 
L 390.294316 221.612751 
L 392.286669 226.268818 
L 394.150484 227.763245 
L 396.142838 227.202593 
L 398.070922 226.528272 
L 400.063276 262.443157 
L 401.99136 277.43767 
L 403.983713 273.726851 
L 405.976067 227.520423 
L 407.904151 232.674087 
L 409.896505 231.98548 
L 411.824589 235.473683 
L 413.816943 237.321771 
L 415.809296 233.048951 
L 417.608842 224.480722 
L 419.601195 227.525534 
L 421.529279 223.384666 
L 423.521633 226.267328 
L 425.449717 278.239457 
L 427.442071 286.410882 
L 429.434424 236.847844 
L 431.362509 226.066739 
L 433.354862 226.857032 
L 435.282946 225.885868 
L 437.2753 233.321896 
L 439.267654 233.263235 
L 441.067199 233.970006 
L 443.059553 225.294855 
L 443.059553 225.294855 
" style="fill:none;stroke:#2ca02c;stroke-linecap:square;stroke-width:1.5;"/>
   </g>
   <g id="patch_3">
    <path d="M 40.2185 309.8635 
L 40.2185 23.36505 
" style="fill:none;stroke:#000000;stroke-linecap:square;stroke-linejoin:miter;stroke-width:0.8;"/>
   </g>
   <g id="patch_4">
    <path d="M 443.059553 309.8635 
L 443.059553 23.36505 
" style="fill:none;stroke:#000000;stroke-linecap:square;stroke-linejoin:miter;stroke-width:0.8;"/>
   </g>
   <g id="patch_5">
    <path d="M 40.2185 309.8635 
L 443.059553 309.8635 
" style="fill:none;stroke:#000000;stroke-linecap:square;stroke-linejoin:miter;stroke-width:0.8;"/>
   </g>
   <g id="patch_6">
    <path d="M 40.2185 23.36505 
L 443.059553 23.36505 
" style="fill:none;stroke:#000000;stroke-linecap:square;stroke-linejoin:miter;stroke-width:0.8;"/>
   </g>
   <g id="text_19">
    <!-- Average monthly normalized emissions -->
    <defs>
     <path d="M 34.1875 63.1875 
L 20.796875 26.90625 
L 47.609375 26.90625 
z
M 28.609375 72.90625 
L 39.796875 72.90625 
L 67.578125 0 
L 57.328125 0 
L 50.6875 18.703125 
L 17.828125 18.703125 
L 11.1875 0 
L 0.78125 0 
z
" id="DejaVuSans-41"/>
     <path d="M 2.984375 54.6875 
L 12.5 54.6875 
L 29.59375 8.796875 
L 46.6875 54.6875 
L 56.203125 54.6875 
L 35.6875 0 
L 23.484375 0 
z
" id="DejaVuSans-76"/>
     <path d="M 41.109375 46.296875 
Q 39.59375 47.171875 37.8125 47.578125 
Q 36.03125 48 33.890625 48 
Q 26.265625 48 22.1875 43.046875 
Q 18.109375 38.09375 18.109375 28.8125 
L 18.109375 0 
L 9.078125 0 
L 9.078125 54.6875 
L 18.109375 54.6875 
L 18.109375 46.1875 
Q 20.953125 51.171875 25.484375 53.578125 
Q 30.03125 56 36.53125 56 
Q 37.453125 56 38.578125 55.875 
Q 39.703125 55.765625 41.0625 55.515625 
z
" id="DejaVuSans-72"/>
     <path d="M 45.40625 27.984375 
Q 45.40625 37.75 41.375 43.109375 
Q 37.359375 48.484375 30.078125 48.484375 
Q 22.859375 48.484375 18.828125 43.109375 
Q 14.796875 37.75 14.796875 27.984375 
Q 14.796875 18.265625 18.828125 12.890625 
Q 22.859375 7.515625 30.078125 7.515625 
Q 37.359375 7.515625 41.375 12.890625 
Q 45.40625 18.265625 45.40625 27.984375 
z
M 54.390625 6.78125 
Q 54.390625 -7.171875 48.1875 -13.984375 
Q 42 -20.796875 29.203125 -20.796875 
Q 24.46875 -20.796875 20.265625 -20.09375 
Q 16.0625 -19.390625 12.109375 -17.921875 
L 12.109375 -9.1875 
Q 16.0625 -11.328125 19.921875 -12.34375 
Q 23.78125 -13.375 27.78125 -13.375 
Q 36.625 -13.375 41.015625 -8.765625 
Q 45.40625 -4.15625 45.40625 5.171875 
L 45.40625 9.625 
Q 42.625 4.78125 38.28125 2.390625 
Q 33.9375 0 27.875 0 
Q 17.828125 0 11.671875 7.65625 
Q 5.515625 15.328125 5.515625 27.984375 
Q 5.515625 40.671875 11.671875 48.328125 
Q 17.828125 56 27.875 56 
Q 33.9375 56 38.28125 53.609375 
Q 42.625 51.21875 45.40625 46.390625 
L 45.40625 54.6875 
L 54.390625 54.6875 
z
" id="DejaVuSans-67"/>
     <path d="M 54.890625 33.015625 
L 54.890625 0 
L 45.90625 0 
L 45.90625 32.71875 
Q 45.90625 40.484375 42.875 44.328125 
Q 39.84375 48.1875 33.796875 48.1875 
Q 26.515625 48.1875 22.3125 43.546875 
Q 18.109375 38.921875 18.109375 30.90625 
L 18.109375 0 
L 9.078125 0 
L 9.078125 75.984375 
L 18.109375 75.984375 
L 18.109375 46.1875 
Q 21.34375 51.125 25.703125 53.5625 
Q 30.078125 56 35.796875 56 
Q 45.21875 56 50.046875 50.171875 
Q 54.890625 44.34375 54.890625 33.015625 
z
" id="DejaVuSans-68"/>
     <path d="M 9.421875 75.984375 
L 18.40625 75.984375 
L 18.40625 0 
L 9.421875 0 
z
" id="DejaVuSans-6c"/>
     <path d="M 32.171875 -5.078125 
Q 28.375 -14.84375 24.75 -17.8125 
Q 21.140625 -20.796875 15.09375 -20.796875 
L 7.90625 -20.796875 
L 7.90625 -13.28125 
L 13.1875 -13.28125 
Q 16.890625 -13.28125 18.9375 -11.515625 
Q 21 -9.765625 23.484375 -3.21875 
L 25.09375 0.875 
L 2.984375 54.6875 
L 12.5 54.6875 
L 29.59375 11.921875 
L 46.6875 54.6875 
L 56.203125 54.6875 
z
" id="DejaVuSans-79"/>
     <path d="M 5.515625 54.6875 
L 48.1875 54.6875 
L 48.1875 46.484375 
L 14.40625 7.171875 
L 48.1875 7.171875 
L 48.1875 0 
L 4.296875 0 
L 4.296875 8.203125 
L 38.09375 47.515625 
L 5.515625 47.515625 
z
" id="DejaVuSans-7a"/>
     <path d="M 45.40625 46.390625 
L 45.40625 75.984375 
L 54.390625 75.984375 
L 54.390625 0 
L 45.40625 0 
L 45.40625 8.203125 
Q 42.578125 3.328125 38.25 0.953125 
Q 33.9375 -1.421875 27.875 -1.421875 
Q 17.96875 -1.421875 11.734375 6.484375 
Q 5.515625 14.40625 5.515625 27.296875 
Q 5.515625 40.1875 11.734375 48.09375 
Q 17.96875 56 27.875 56 
Q 33.9375 56 38.25 53.625 
Q 42.578125 51.265625 45.40625 46.390625 
z
M 14.796875 27.296875 
Q 14.796875 17.390625 18.875 11.75 
Q 22.953125 6.109375 30.078125 6.109375 
Q 37.203125 6.109375 41.296875 11.75 
Q 45.40625 17.390625 45.40625 27.296875 
Q 45.40625 37.203125 41.296875 42.84375 
Q 37.203125 48.484375 30.078125 48.484375 
Q 22.953125 48.484375 18.875 42.84375 
Q 14.796875 37.203125 14.796875 27.296875 
z
" id="DejaVuSans-64"/>
    </defs>
    <g transform="translate(123.075276 17.36505)scale(0.12 -0.12)">
     <use xlink:href="#DejaVuSans-41"/>
     <use x="68.330078" xlink:href="#DejaVuSans-76"/>
     <use x="127.509766" xlink:href="#DejaVuSans-65"/>
     <use x="189.033203" xlink:href="#DejaVuSans-72"/>
     <use x="230.146484" xlink:href="#DejaVuSans-61"/>
     <use x="291.425781" xlink:href="#DejaVuSans-67"/>
     <use x="354.902344" xlink:href="#DejaVuSans-65"/>
     <use x="416.425781" xlink:href="#DejaVuSans-20"/>
     <use x="448.212891" xlink:href="#DejaVuSans-6d"/>
     <use x="545.625" xlink:href="#DejaVuSans-6f"/>
     <use x="606.806641" xlink:href="#DejaVuSans-6e"/>
     <use x="670.185547" xlink:href="#DejaVuSans-74"/>
     <use x="709.394531" xlink:href="#DejaVuSans-68"/>
     <use x="772.773438" xlink:href="#DejaVuSans-6c"/>
     <use x="800.556641" xlink:href="#DejaVuSans-79"/>
     <use x="859.736328" xlink:href="#DejaVuSans-20"/>
     <use x="891.523438" xlink:href="#DejaVuSans-6e"/>
     <use x="954.902344" xlink:href="#DejaVuSans-6f"/>
     <use x="1016.083984" xlink:href="#DejaVuSans-72"/>
     <use x="1057.181641" xlink:href="#DejaVuSans-6d"/>
     <use x="1154.59375" xlink:href="#DejaVuSans-61"/>
     <use x="1215.873047" xlink:href="#DejaVuSans-6c"/>
     <use x="1243.65625" xlink:href="#DejaVuSans-69"/>
     <use x="1271.439453" xlink:href="#DejaVuSans-7a"/>
     <use x="1323.929688" xlink:href="#DejaVuSans-65"/>
     <use x="1385.453125" xlink:href="#DejaVuSans-64"/>
     <use x="1448.929688" xlink:href="#DejaVuSans-20"/>
     <use x="1480.716797" xlink:href="#DejaVuSans-65"/>
     <use x="1542.240234" xlink:href="#DejaVuSans-6d"/>
     <use x="1639.652344" xlink:href="#DejaVuSans-69"/>
     <use x="1667.435547" xlink:href="#DejaVuSans-73"/>
     <use x="1719.535156" xlink:href="#DejaVuSans-73"/>
     <use x="1771.634766" xlink:href="#DejaVuSans-69"/>
     <use x="1799.417969" xlink:href="#DejaVuSans-6f"/>
     <use x="1860.599609" xlink:href="#DejaVuSans-6e"/>
     <use x="1923.978516" xlink:href="#DejaVuSans-73"/>
    </g>
   </g>
   <g id="legend_1">
    <g id="patch_7">
     <path d="M 382.787678 75.399425 
L 436.059553 75.399425 
Q 438.059553 75.399425 438.059553 73.399425 
L 438.059553 30.36505 
Q 438.059553 28.36505 436.059553 28.36505 
L 382.787678 28.36505 
Q 380.787678 28.36505 380.787678 30.36505 
L 380.787678 73.399425 
Q 380.787678 75.399425 382.787678 75.399425 
z
" style="fill:#ffffff;opacity:0.8;stroke:#cccccc;stroke-linejoin:miter;"/>
    </g>
    <g id="line2d_36">
     <path d="M 384.787678 36.463488 
L 404.787678 36.463488 
" style="fill:none;stroke:#1f77b4;stroke-linecap:square;stroke-width:1.5;"/>
    </g>
    <g id="line2d_37"/>
    <g id="text_20">
     <!-- SOx -->
     <defs>
      <path d="M 53.515625 70.515625 
L 53.515625 60.890625 
Q 47.90625 63.578125 42.921875 64.890625 
Q 37.9375 66.21875 33.296875 66.21875 
Q 25.25 66.21875 20.875 63.09375 
Q 16.5 59.96875 16.5 54.203125 
Q 16.5 49.359375 19.40625 46.890625 
Q 22.3125 44.4375 30.421875 42.921875 
L 36.375 41.703125 
Q 47.40625 39.59375 52.65625 34.296875 
Q 57.90625 29 57.90625 20.125 
Q 57.90625 9.515625 50.796875 4.046875 
Q 43.703125 -1.421875 29.984375 -1.421875 
Q 24.8125 -1.421875 18.96875 -0.25 
Q 13.140625 0.921875 6.890625 3.21875 
L 6.890625 13.375 
Q 12.890625 10.015625 18.65625 8.296875 
Q 24.421875 6.59375 29.984375 6.59375 
Q 38.421875 6.59375 43.015625 9.90625 
Q 47.609375 13.234375 47.609375 19.390625 
Q 47.609375 24.75 44.3125 27.78125 
Q 41.015625 30.8125 33.5 32.328125 
L 27.484375 33.5 
Q 16.453125 35.6875 11.515625 40.375 
Q 6.59375 45.0625 6.59375 53.421875 
Q 6.59375 63.09375 13.40625 68.65625 
Q 20.21875 74.21875 32.171875 74.21875 
Q 37.3125 74.21875 42.625 73.28125 
Q 47.953125 72.359375 53.515625 70.515625 
z
" id="DejaVuSans-53"/>
      <path d="M 39.40625 66.21875 
Q 28.65625 66.21875 22.328125 58.203125 
Q 16.015625 50.203125 16.015625 36.375 
Q 16.015625 22.609375 22.328125 14.59375 
Q 28.65625 6.59375 39.40625 6.59375 
Q 50.140625 6.59375 56.421875 14.59375 
Q 62.703125 22.609375 62.703125 36.375 
Q 62.703125 50.203125 56.421875 58.203125 
Q 50.140625 66.21875 39.40625 66.21875 
z
M 39.40625 74.21875 
Q 54.734375 74.21875 63.90625 63.9375 
Q 73.09375 53.65625 73.09375 36.375 
Q 73.09375 19.140625 63.90625 8.859375 
Q 54.734375 -1.421875 39.40625 -1.421875 
Q 24.03125 -1.421875 14.8125 8.828125 
Q 5.609375 19.09375 5.609375 36.375 
Q 5.609375 53.65625 14.8125 63.9375 
Q 24.03125 74.21875 39.40625 74.21875 
z
" id="DejaVuSans-4f"/>
      <path d="M 54.890625 54.6875 
L 35.109375 28.078125 
L 55.90625 0 
L 45.3125 0 
L 29.390625 21.484375 
L 13.484375 0 
L 2.875 0 
L 24.125 28.609375 
L 4.6875 54.6875 
L 15.28125 54.6875 
L 29.78125 35.203125 
L 44.28125 54.6875 
z
" id="DejaVuSans-78"/>
     </defs>
     <g transform="translate(412.787678 39.963488)scale(0.1 -0.1)">
      <use xlink:href="#DejaVuSans-53"/>
      <use x="63.476562" xlink:href="#DejaVuSans-4f"/>
      <use x="142.1875" xlink:href="#DejaVuSans-78"/>
     </g>
    </g>
    <g id="line2d_38">
     <path d="M 384.787678 51.141613 
L 404.787678 51.141613 
" style="fill:none;stroke:#ff7f0e;stroke-linecap:square;stroke-width:1.5;"/>
    </g>
    <g id="line2d_39"/>
    <g id="text_21">
     <!-- NOx -->
     <defs>
      <path d="M 9.8125 72.90625 
L 23.09375 72.90625 
L 55.421875 11.921875 
L 55.421875 72.90625 
L 64.984375 72.90625 
L 64.984375 0 
L 51.703125 0 
L 19.390625 60.984375 
L 19.390625 0 
L 9.8125 0 
z
" id="DejaVuSans-4e"/>
     </defs>
     <g transform="translate(412.787678 54.641613)scale(0.1 -0.1)">
      <use xlink:href="#DejaVuSans-4e"/>
      <use x="74.804688" xlink:href="#DejaVuSans-4f"/>
      <use x="153.515625" xlink:href="#DejaVuSans-78"/>
     </g>
    </g>
    <g id="line2d_40">
     <path d="M 384.787678 65.819738 
L 404.787678 65.819738 
" style="fill:none;stroke:#2ca02c;stroke-linecap:square;stroke-width:1.5;"/>
    </g>
    <g id="line2d_41"/>
    <g id="text_22">
     <!-- CO2 -->
     <defs>
      <path d="M 64.40625 67.28125 
L 64.40625 56.890625 
Q 59.421875 61.53125 53.78125 63.8125 
Q 48.140625 66.109375 41.796875 66.109375 
Q 29.296875 66.109375 22.65625 58.46875 
Q 16.015625 50.828125 16.015625 36.375 
Q 16.015625 21.96875 22.65625 14.328125 
Q 29.296875 6.6875 41.796875 6.6875 
Q 48.140625 6.6875 53.78125 8.984375 
Q 59.421875 11.28125 64.40625 15.921875 
L 64.40625 5.609375 
Q 59.234375 2.09375 53.4375 0.328125 
Q 47.65625 -1.421875 41.21875 -1.421875 
Q 24.65625 -1.421875 15.125 8.703125 
Q 5.609375 18.84375 5.609375 36.375 
Q 5.609375 53.953125 15.125 64.078125 
Q 24.65625 74.21875 41.21875 74.21875 
Q 47.75 74.21875 53.53125 72.484375 
Q 59.328125 70.75 64.40625 67.28125 
z
" id="DejaVuSans-43"/>
     </defs>
     <g transform="translate(412.787678 69.319738)scale(0.1 -0.1)">
      <use xlink:href="#DejaVuSans-43"/>
      <use x="69.824219" xlink:href="#DejaVuSans-4f"/>
      <use x="148.535156" xlink:href="#DejaVuSans-32"/>
     </g>
    </g>
   </g>
  </g>
 </g>
 <defs>
  <clipPath id="p9e50a8d452">
   <rect height="286.49845" width="402.841053" x="40.2185" y="23.36505"/>
  </clipPath>
 </defs>
</svg>
