<?xml version="1.0" encoding="utf-8" standalone="no"?>
<!DOCTYPE svg PUBLIC "-//W3C//DTD SVG 1.1//EN"
  "http://www.w3.org/Graphics/SVG/1.1/DTD/svg11.dtd">
<!-- Created with matplotlib (http://matplotlib.org/) -->
<svg height="345.6pt" version="1.1" viewBox="0 0 460.8 345.6" width="460.8pt" xmlns="http://www.w3.org/2000/svg" xmlns:xlink="http://www.w3.org/1999/xlink">
 <defs>
  <style type="text/css">
*{stroke-linecap:butt;stroke-linejoin:round;}
  </style>
 </defs>
 <g id="figure_1">
  <g id="patch_1">
   <path d="M 0 345.6 
L 460.8 345.6 
L 460.8 0 
L 0 0 
z
" style="fill:none;"/>
  </g>
  <g id="axes_1">
   <g id="patch_2">
    <path d="M 33.34925 309.8635 
L 443.034703 309.8635 
L 443.034703 23.36505 
L 33.34925 23.36505 
z
" style="fill:none;"/>
   </g>
   <g id="matplotlib.axis_1">
    <g id="xtick_1">
     <g id="line2d_1">
      <path clip-path="url(#pf43d56c3f4)" d="M 79.102252 309.8635 
L 79.102252 23.36505 
" style="fill:none;stroke:#b0b0b0;stroke-linecap:square;stroke-width:0.8;"/>
     </g>
     <g id="line2d_2">
      <defs>
       <path d="M 0 0 
L 0 3.5 
" id="m275d2e1397" style="stroke:#000000;stroke-width:0.8;"/>
      </defs>
      <g>
       <use style="stroke:#000000;stroke-width:0.8;" x="79.102252" xlink:href="#m275d2e1397" y="309.8635"/>
      </g>
     </g>
     <g id="text_1">
      <!-- 2003 -->
      <defs>
       <path d="M 19.1875 8.296875 
L 53.609375 8.296875 
L 53.609375 0 
L 7.328125 0 
L 7.328125 8.296875 
Q 12.9375 14.109375 22.625 23.890625 
Q 32.328125 33.6875 34.8125 36.53125 
Q 39.546875 41.84375 41.421875 45.53125 
Q 43.3125 49.21875 43.3125 52.78125 
Q 43.3125 58.59375 39.234375 62.25 
Q 35.15625 65.921875 28.609375 65.921875 
Q 23.96875 65.921875 18.8125 64.3125 
Q 13.671875 62.703125 7.8125 59.421875 
L 7.8125 69.390625 
Q 13.765625 71.78125 18.9375 73 
Q 24.125 74.21875 28.421875 74.21875 
Q 39.75 74.21875 46.484375 68.546875 
Q 53.21875 62.890625 53.21875 53.421875 
Q 53.21875 48.921875 51.53125 44.890625 
Q 49.859375 40.875 45.40625 35.40625 
Q 44.1875 33.984375 37.640625 27.21875 
Q 31.109375 20.453125 19.1875 8.296875 
z
" id="DejaVuSans-32"/>
       <path d="M 31.78125 66.40625 
Q 24.171875 66.40625 20.328125 58.90625 
Q 16.5 51.421875 16.5 36.375 
Q 16.5 21.390625 20.328125 13.890625 
Q 24.171875 6.390625 31.78125 6.390625 
Q 39.453125 6.390625 43.28125 13.890625 
Q 47.125 21.390625 47.125 36.375 
Q 47.125 51.421875 43.28125 58.90625 
Q 39.453125 66.40625 31.78125 66.40625 
z
M 31.78125 74.21875 
Q 44.046875 74.21875 50.515625 64.515625 
Q 56.984375 54.828125 56.984375 36.375 
Q 56.984375 17.96875 50.515625 8.265625 
Q 44.046875 -1.421875 31.78125 -1.421875 
Q 19.53125 -1.421875 13.0625 8.265625 
Q 6.59375 17.96875 6.59375 36.375 
Q 6.59375 54.828125 13.0625 64.515625 
Q 19.53125 74.21875 31.78125 74.21875 
z
" id="DejaVuSans-30"/>
       <path d="M 40.578125 39.3125 
Q 47.65625 37.796875 51.625 33 
Q 55.609375 28.21875 55.609375 21.1875 
Q 55.609375 10.40625 48.1875 4.484375 
Q 40.765625 -1.421875 27.09375 -1.421875 
Q 22.515625 -1.421875 17.65625 -0.515625 
Q 12.796875 0.390625 7.625 2.203125 
L 7.625 11.71875 
Q 11.71875 9.328125 16.59375 8.109375 
Q 21.484375 6.890625 26.8125 6.890625 
Q 36.078125 6.890625 40.9375 10.546875 
Q 45.796875 14.203125 45.796875 21.1875 
Q 45.796875 27.640625 41.28125 31.265625 
Q 36.765625 34.90625 28.71875 34.90625 
L 20.21875 34.90625 
L 20.21875 43.015625 
L 29.109375 43.015625 
Q 36.375 43.015625 40.234375 45.921875 
Q 44.09375 48.828125 44.09375 54.296875 
Q 44.09375 59.90625 40.109375 62.90625 
Q 36.140625 65.921875 28.71875 65.921875 
Q 24.65625 65.921875 20.015625 65.03125 
Q 15.375 64.15625 9.8125 62.3125 
L 9.8125 71.09375 
Q 15.4375 72.65625 20.34375 73.4375 
Q 25.25 74.21875 29.59375 74.21875 
Q 40.828125 74.21875 47.359375 69.109375 
Q 53.90625 64.015625 53.90625 55.328125 
Q 53.90625 49.265625 50.4375 45.09375 
Q 46.96875 40.921875 40.578125 39.3125 
z
" id="DejaVuSans-33"/>
      </defs>
      <g transform="translate(66.377252 324.461937)scale(0.1 -0.1)">
       <use xlink:href="#DejaVuSans-32"/>
       <use x="63.623047" xlink:href="#DejaVuSans-30"/>
       <use x="127.246094" xlink:href="#DejaVuSans-30"/>
       <use x="190.869141" xlink:href="#DejaVuSans-33"/>
      </g>
     </g>
    </g>
    <g id="xtick_2">
     <g id="line2d_3">
      <path clip-path="url(#pf43d56c3f4)" d="M 126.881459 309.8635 
L 126.881459 23.36505 
" style="fill:none;stroke:#b0b0b0;stroke-linecap:square;stroke-width:0.8;"/>
     </g>
     <g id="line2d_4">
      <g>
       <use style="stroke:#000000;stroke-width:0.8;" x="126.881459" xlink:href="#m275d2e1397" y="309.8635"/>
      </g>
     </g>
     <g id="text_2">
      <!-- 2005 -->
      <defs>
       <path d="M 10.796875 72.90625 
L 49.515625 72.90625 
L 49.515625 64.59375 
L 19.828125 64.59375 
L 19.828125 46.734375 
Q 21.96875 47.46875 24.109375 47.828125 
Q 26.265625 48.1875 28.421875 48.1875 
Q 40.625 48.1875 47.75 41.5 
Q 54.890625 34.8125 54.890625 23.390625 
Q 54.890625 11.625 47.5625 5.09375 
Q 40.234375 -1.421875 26.90625 -1.421875 
Q 22.3125 -1.421875 17.546875 -0.640625 
Q 12.796875 0.140625 7.71875 1.703125 
L 7.71875 11.625 
Q 12.109375 9.234375 16.796875 8.0625 
Q 21.484375 6.890625 26.703125 6.890625 
Q 35.15625 6.890625 40.078125 11.328125 
Q 45.015625 15.765625 45.015625 23.390625 
Q 45.015625 31 40.078125 35.4375 
Q 35.15625 39.890625 26.703125 39.890625 
Q 22.75 39.890625 18.8125 39.015625 
Q 14.890625 38.140625 10.796875 36.28125 
z
" id="DejaVuSans-35"/>
      </defs>
      <g transform="translate(114.156459 324.461937)scale(0.1 -0.1)">
       <use xlink:href="#DejaVuSans-32"/>
       <use x="63.623047" xlink:href="#DejaVuSans-30"/>
       <use x="127.246094" xlink:href="#DejaVuSans-30"/>
       <use x="190.869141" xlink:href="#DejaVuSans-35"/>
      </g>
     </g>
    </g>
    <g id="xtick_3">
     <g id="line2d_5">
      <path clip-path="url(#pf43d56c3f4)" d="M 174.595304 309.8635 
L 174.595304 23.36505 
" style="fill:none;stroke:#b0b0b0;stroke-linecap:square;stroke-width:0.8;"/>
     </g>
     <g id="line2d_6">
      <g>
       <use style="stroke:#000000;stroke-width:0.8;" x="174.595304" xlink:href="#m275d2e1397" y="309.8635"/>
      </g>
     </g>
     <g id="text_3">
      <!-- 2007 -->
      <defs>
       <path d="M 8.203125 72.90625 
L 55.078125 72.90625 
L 55.078125 68.703125 
L 28.609375 0 
L 18.3125 0 
L 43.21875 64.59375 
L 8.203125 64.59375 
z
" id="DejaVuSans-37"/>
      </defs>
      <g transform="translate(161.870304 324.461937)scale(0.1 -0.1)">
       <use xlink:href="#DejaVuSans-32"/>
       <use x="63.623047" xlink:href="#DejaVuSans-30"/>
       <use x="127.246094" xlink:href="#DejaVuSans-30"/>
       <use x="190.869141" xlink:href="#DejaVuSans-37"/>
      </g>
     </g>
    </g>
    <g id="xtick_4">
     <g id="line2d_7">
      <path clip-path="url(#pf43d56c3f4)" d="M 222.37451 309.8635 
L 222.37451 23.36505 
" style="fill:none;stroke:#b0b0b0;stroke-linecap:square;stroke-width:0.8;"/>
     </g>
     <g id="line2d_8">
      <g>
       <use style="stroke:#000000;stroke-width:0.8;" x="222.37451" xlink:href="#m275d2e1397" y="309.8635"/>
      </g>
     </g>
     <g id="text_4">
      <!-- 2009 -->
      <defs>
       <path d="M 10.984375 1.515625 
L 10.984375 10.5 
Q 14.703125 8.734375 18.5 7.8125 
Q 22.3125 6.890625 25.984375 6.890625 
Q 35.75 6.890625 40.890625 13.453125 
Q 46.046875 20.015625 46.78125 33.40625 
Q 43.953125 29.203125 39.59375 26.953125 
Q 35.25 24.703125 29.984375 24.703125 
Q 19.046875 24.703125 12.671875 31.3125 
Q 6.296875 37.9375 6.296875 49.421875 
Q 6.296875 60.640625 12.9375 67.421875 
Q 19.578125 74.21875 30.609375 74.21875 
Q 43.265625 74.21875 49.921875 64.515625 
Q 56.59375 54.828125 56.59375 36.375 
Q 56.59375 19.140625 48.40625 8.859375 
Q 40.234375 -1.421875 26.421875 -1.421875 
Q 22.703125 -1.421875 18.890625 -0.6875 
Q 15.09375 0.046875 10.984375 1.515625 
z
M 30.609375 32.421875 
Q 37.25 32.421875 41.125 36.953125 
Q 45.015625 41.5 45.015625 49.421875 
Q 45.015625 57.28125 41.125 61.84375 
Q 37.25 66.40625 30.609375 66.40625 
Q 23.96875 66.40625 20.09375 61.84375 
Q 16.21875 57.28125 16.21875 49.421875 
Q 16.21875 41.5 20.09375 36.953125 
Q 23.96875 32.421875 30.609375 32.421875 
z
" id="DejaVuSans-39"/>
      </defs>
      <g transform="translate(209.64951 324.461937)scale(0.1 -0.1)">
       <use xlink:href="#DejaVuSans-32"/>
       <use x="63.623047" xlink:href="#DejaVuSans-30"/>
       <use x="127.246094" xlink:href="#DejaVuSans-30"/>
       <use x="190.869141" xlink:href="#DejaVuSans-39"/>
      </g>
     </g>
    </g>
    <g id="xtick_5">
     <g id="line2d_9">
      <path clip-path="url(#pf43d56c3f4)" d="M 270.088355 309.8635 
L 270.088355 23.36505 
" style="fill:none;stroke:#b0b0b0;stroke-linecap:square;stroke-width:0.8;"/>
     </g>
     <g id="line2d_10">
      <g>
       <use style="stroke:#000000;stroke-width:0.8;" x="270.088355" xlink:href="#m275d2e1397" y="309.8635"/>
      </g>
     </g>
     <g id="text_5">
      <!-- 2011 -->
      <defs>
       <path d="M 12.40625 8.296875 
L 28.515625 8.296875 
L 28.515625 63.921875 
L 10.984375 60.40625 
L 10.984375 69.390625 
L 28.421875 72.90625 
L 38.28125 72.90625 
L 38.28125 8.296875 
L 54.390625 8.296875 
L 54.390625 0 
L 12.40625 0 
z
" id="DejaVuSans-31"/>
      </defs>
      <g transform="translate(257.363355 324.461937)scale(0.1 -0.1)">
       <use xlink:href="#DejaVuSans-32"/>
       <use x="63.623047" xlink:href="#DejaVuSans-30"/>
       <use x="127.246094" xlink:href="#DejaVuSans-31"/>
       <use x="190.869141" xlink:href="#DejaVuSans-31"/>
      </g>
     </g>
    </g>
    <g id="xtick_6">
     <g id="line2d_11">
      <path clip-path="url(#pf43d56c3f4)" d="M 317.867562 309.8635 
L 317.867562 23.36505 
" style="fill:none;stroke:#b0b0b0;stroke-linecap:square;stroke-width:0.8;"/>
     </g>
     <g id="line2d_12">
      <g>
       <use style="stroke:#000000;stroke-width:0.8;" x="317.867562" xlink:href="#m275d2e1397" y="309.8635"/>
      </g>
     </g>
     <g id="text_6">
      <!-- 2013 -->
      <g transform="translate(305.142562 324.461937)scale(0.1 -0.1)">
       <use xlink:href="#DejaVuSans-32"/>
       <use x="63.623047" xlink:href="#DejaVuSans-30"/>
       <use x="127.246094" xlink:href="#DejaVuSans-31"/>
       <use x="190.869141" xlink:href="#DejaVuSans-33"/>
      </g>
     </g>
    </g>
    <g id="xtick_7">
     <g id="line2d_13">
      <path clip-path="url(#pf43d56c3f4)" d="M 365.581407 309.8635 
L 365.581407 23.36505 
" style="fill:none;stroke:#b0b0b0;stroke-linecap:square;stroke-width:0.8;"/>
     </g>
     <g id="line2d_14">
      <g>
       <use style="stroke:#000000;stroke-width:0.8;" x="365.581407" xlink:href="#m275d2e1397" y="309.8635"/>
      </g>
     </g>
     <g id="text_7">
      <!-- 2015 -->
      <g transform="translate(352.856407 324.461937)scale(0.1 -0.1)">
       <use xlink:href="#DejaVuSans-32"/>
       <use x="63.623047" xlink:href="#DejaVuSans-30"/>
       <use x="127.246094" xlink:href="#DejaVuSans-31"/>
       <use x="190.869141" xlink:href="#DejaVuSans-35"/>
      </g>
     </g>
    </g>
    <g id="xtick_8">
     <g id="line2d_15">
      <path clip-path="url(#pf43d56c3f4)" d="M 413.360614 309.8635 
L 413.360614 23.36505 
" style="fill:none;stroke:#b0b0b0;stroke-linecap:square;stroke-width:0.8;"/>
     </g>
     <g id="line2d_16">
      <g>
       <use style="stroke:#000000;stroke-width:0.8;" x="413.360614" xlink:href="#m275d2e1397" y="309.8635"/>
      </g>
     </g>
     <g id="text_8">
      <!-- 2017 -->
      <g transform="translate(400.635614 324.461937)scale(0.1 -0.1)">
       <use xlink:href="#DejaVuSans-32"/>
       <use x="63.623047" xlink:href="#DejaVuSans-30"/>
       <use x="127.246094" xlink:href="#DejaVuSans-31"/>
       <use x="190.869141" xlink:href="#DejaVuSans-37"/>
      </g>
     </g>
    </g>
    <g id="text_9">
     <!-- Date -->
     <defs>
      <path d="M 19.671875 64.796875 
L 19.671875 8.109375 
L 31.59375 8.109375 
Q 46.6875 8.109375 53.6875 14.9375 
Q 60.6875 21.78125 60.6875 36.53125 
Q 60.6875 51.171875 53.6875 57.984375 
Q 46.6875 64.796875 31.59375 64.796875 
z
M 9.8125 72.90625 
L 30.078125 72.90625 
Q 51.265625 72.90625 61.171875 64.09375 
Q 71.09375 55.28125 71.09375 36.53125 
Q 71.09375 17.671875 61.125 8.828125 
Q 51.171875 0 30.078125 0 
L 9.8125 0 
z
" id="DejaVuSans-44"/>
      <path d="M 34.28125 27.484375 
Q 23.390625 27.484375 19.1875 25 
Q 14.984375 22.515625 14.984375 16.5 
Q 14.984375 11.71875 18.140625 8.90625 
Q 21.296875 6.109375 26.703125 6.109375 
Q 34.1875 6.109375 38.703125 11.40625 
Q 43.21875 16.703125 43.21875 25.484375 
L 43.21875 27.484375 
z
M 52.203125 31.203125 
L 52.203125 0 
L 43.21875 0 
L 43.21875 8.296875 
Q 40.140625 3.328125 35.546875 0.953125 
Q 30.953125 -1.421875 24.3125 -1.421875 
Q 15.921875 -1.421875 10.953125 3.296875 
Q 6 8.015625 6 15.921875 
Q 6 25.140625 12.171875 29.828125 
Q 18.359375 34.515625 30.609375 34.515625 
L 43.21875 34.515625 
L 43.21875 35.40625 
Q 43.21875 41.609375 39.140625 45 
Q 35.0625 48.390625 27.6875 48.390625 
Q 23 48.390625 18.546875 47.265625 
Q 14.109375 46.140625 10.015625 43.890625 
L 10.015625 52.203125 
Q 14.9375 54.109375 19.578125 55.046875 
Q 24.21875 56 28.609375 56 
Q 40.484375 56 46.34375 49.84375 
Q 52.203125 43.703125 52.203125 31.203125 
z
" id="DejaVuSans-61"/>
      <path d="M 18.3125 70.21875 
L 18.3125 54.6875 
L 36.8125 54.6875 
L 36.8125 47.703125 
L 18.3125 47.703125 
L 18.3125 18.015625 
Q 18.3125 11.328125 20.140625 9.421875 
Q 21.96875 7.515625 27.59375 7.515625 
L 36.8125 7.515625 
L 36.8125 0 
L 27.59375 0 
Q 17.1875 0 13.234375 3.875 
Q 9.28125 7.765625 9.28125 18.015625 
L 9.28125 47.703125 
L 2.6875 47.703125 
L 2.6875 54.6875 
L 9.28125 54.6875 
L 9.28125 70.21875 
z
" id="DejaVuSans-74"/>
      <path d="M 56.203125 29.59375 
L 56.203125 25.203125 
L 14.890625 25.203125 
Q 15.484375 15.921875 20.484375 11.0625 
Q 25.484375 6.203125 34.421875 6.203125 
Q 39.59375 6.203125 44.453125 7.46875 
Q 49.3125 8.734375 54.109375 11.28125 
L 54.109375 2.78125 
Q 49.265625 0.734375 44.1875 -0.34375 
Q 39.109375 -1.421875 33.890625 -1.421875 
Q 20.796875 -1.421875 13.15625 6.1875 
Q 5.515625 13.8125 5.515625 26.8125 
Q 5.515625 40.234375 12.765625 48.109375 
Q 20.015625 56 32.328125 56 
Q 43.359375 56 49.78125 48.890625 
Q 56.203125 41.796875 56.203125 29.59375 
z
M 47.21875 32.234375 
Q 47.125 39.59375 43.09375 43.984375 
Q 39.0625 48.390625 32.421875 48.390625 
Q 24.90625 48.390625 20.390625 44.140625 
Q 15.875 39.890625 15.1875 32.171875 
z
" id="DejaVuSans-65"/>
     </defs>
     <g transform="translate(226.241195 338.140062)scale(0.1 -0.1)">
      <use xlink:href="#DejaVuSans-44"/>
      <use x="77.001953" xlink:href="#DejaVuSans-61"/>
      <use x="138.28125" xlink:href="#DejaVuSans-74"/>
      <use x="177.490234" xlink:href="#DejaVuSans-65"/>
     </g>
    </g>
   </g>
   <g id="matplotlib.axis_2">
    <g id="ytick_1">
     <g id="line2d_17">
      <path clip-path="url(#pf43d56c3f4)" d="M 33.34925 296.840843 
L 443.034703 296.840843 
" style="fill:none;stroke:#b0b0b0;stroke-linecap:square;stroke-width:0.8;"/>
     </g>
     <g id="line2d_18">
      <defs>
       <path d="M 0 0 
L -3.5 0 
" id="mc783c8293d" style="stroke:#000000;stroke-width:0.8;"/>
      </defs>
      <g>
       <use style="stroke:#000000;stroke-width:0.8;" x="33.34925" xlink:href="#mc783c8293d" y="296.840843"/>
      </g>
     </g>
     <g id="text_10">
      <!-- 0 -->
      <g transform="translate(19.98675 300.640062)scale(0.1 -0.1)">
       <use xlink:href="#DejaVuSans-30"/>
      </g>
     </g>
    </g>
    <g id="ytick_2">
     <g id="line2d_19">
      <path clip-path="url(#pf43d56c3f4)" d="M 33.34925 260.550241 
L 443.034703 260.550241 
" style="fill:none;stroke:#b0b0b0;stroke-linecap:square;stroke-width:0.8;"/>
     </g>
     <g id="line2d_20">
      <g>
       <use style="stroke:#000000;stroke-width:0.8;" x="33.34925" xlink:href="#mc783c8293d" y="260.550241"/>
      </g>
     </g>
     <g id="text_11">
      <!-- 1 -->
      <g transform="translate(19.98675 264.349459)scale(0.1 -0.1)">
       <use xlink:href="#DejaVuSans-31"/>
      </g>
     </g>
    </g>
    <g id="ytick_3">
     <g id="line2d_21">
      <path clip-path="url(#pf43d56c3f4)" d="M 33.34925 224.259638 
L 443.034703 224.259638 
" style="fill:none;stroke:#b0b0b0;stroke-linecap:square;stroke-width:0.8;"/>
     </g>
     <g id="line2d_22">
      <g>
       <use style="stroke:#000000;stroke-width:0.8;" x="33.34925" xlink:href="#mc783c8293d" y="224.259638"/>
      </g>
     </g>
     <g id="text_12">
      <!-- 2 -->
      <g transform="translate(19.98675 228.058857)scale(0.1 -0.1)">
       <use xlink:href="#DejaVuSans-32"/>
      </g>
     </g>
    </g>
    <g id="ytick_4">
     <g id="line2d_23">
      <path clip-path="url(#pf43d56c3f4)" d="M 33.34925 187.969035 
L 443.034703 187.969035 
" style="fill:none;stroke:#b0b0b0;stroke-linecap:square;stroke-width:0.8;"/>
     </g>
     <g id="line2d_24">
      <g>
       <use style="stroke:#000000;stroke-width:0.8;" x="33.34925" xlink:href="#mc783c8293d" y="187.969035"/>
      </g>
     </g>
     <g id="text_13">
      <!-- 3 -->
      <g transform="translate(19.98675 191.768254)scale(0.1 -0.1)">
       <use xlink:href="#DejaVuSans-33"/>
      </g>
     </g>
    </g>
    <g id="ytick_5">
     <g id="line2d_25">
      <path clip-path="url(#pf43d56c3f4)" d="M 33.34925 151.678433 
L 443.034703 151.678433 
" style="fill:none;stroke:#b0b0b0;stroke-linecap:square;stroke-width:0.8;"/>
     </g>
     <g id="line2d_26">
      <g>
       <use style="stroke:#000000;stroke-width:0.8;" x="33.34925" xlink:href="#mc783c8293d" y="151.678433"/>
      </g>
     </g>
     <g id="text_14">
      <!-- 4 -->
      <defs>
       <path d="M 37.796875 64.3125 
L 12.890625 25.390625 
L 37.796875 25.390625 
z
M 35.203125 72.90625 
L 47.609375 72.90625 
L 47.609375 25.390625 
L 58.015625 25.390625 
L 58.015625 17.1875 
L 47.609375 17.1875 
L 47.609375 0 
L 37.796875 0 
L 37.796875 17.1875 
L 4.890625 17.1875 
L 4.890625 26.703125 
z
" id="DejaVuSans-34"/>
      </defs>
      <g transform="translate(19.98675 155.477651)scale(0.1 -0.1)">
       <use xlink:href="#DejaVuSans-34"/>
      </g>
     </g>
    </g>
    <g id="ytick_6">
     <g id="line2d_27">
      <path clip-path="url(#pf43d56c3f4)" d="M 33.34925 115.38783 
L 443.034703 115.38783 
" style="fill:none;stroke:#b0b0b0;stroke-linecap:square;stroke-width:0.8;"/>
     </g>
     <g id="line2d_28">
      <g>
       <use style="stroke:#000000;stroke-width:0.8;" x="33.34925" xlink:href="#mc783c8293d" y="115.38783"/>
      </g>
     </g>
     <g id="text_15">
      <!-- 5 -->
      <g transform="translate(19.98675 119.187049)scale(0.1 -0.1)">
       <use xlink:href="#DejaVuSans-35"/>
      </g>
     </g>
    </g>
    <g id="ytick_7">
     <g id="line2d_29">
      <path clip-path="url(#pf43d56c3f4)" d="M 33.34925 79.097227 
L 443.034703 79.097227 
" style="fill:none;stroke:#b0b0b0;stroke-linecap:square;stroke-width:0.8;"/>
     </g>
     <g id="line2d_30">
      <g>
       <use style="stroke:#000000;stroke-width:0.8;" x="33.34925" xlink:href="#mc783c8293d" y="79.097227"/>
      </g>
     </g>
     <g id="text_16">
      <!-- 6 -->
      <defs>
       <path d="M 33.015625 40.375 
Q 26.375 40.375 22.484375 35.828125 
Q 18.609375 31.296875 18.609375 23.390625 
Q 18.609375 15.53125 22.484375 10.953125 
Q 26.375 6.390625 33.015625 6.390625 
Q 39.65625 6.390625 43.53125 10.953125 
Q 47.40625 15.53125 47.40625 23.390625 
Q 47.40625 31.296875 43.53125 35.828125 
Q 39.65625 40.375 33.015625 40.375 
z
M 52.59375 71.296875 
L 52.59375 62.3125 
Q 48.875 64.0625 45.09375 64.984375 
Q 41.3125 65.921875 37.59375 65.921875 
Q 27.828125 65.921875 22.671875 59.328125 
Q 17.53125 52.734375 16.796875 39.40625 
Q 19.671875 43.65625 24.015625 45.921875 
Q 28.375 48.1875 33.59375 48.1875 
Q 44.578125 48.1875 50.953125 41.515625 
Q 57.328125 34.859375 57.328125 23.390625 
Q 57.328125 12.15625 50.6875 5.359375 
Q 44.046875 -1.421875 33.015625 -1.421875 
Q 20.359375 -1.421875 13.671875 8.265625 
Q 6.984375 17.96875 6.984375 36.375 
Q 6.984375 53.65625 15.1875 63.9375 
Q 23.390625 74.21875 37.203125 74.21875 
Q 40.921875 74.21875 44.703125 73.484375 
Q 48.484375 72.75 52.59375 71.296875 
z
" id="DejaVuSans-36"/>
      </defs>
      <g transform="translate(19.98675 82.896446)scale(0.1 -0.1)">
       <use xlink:href="#DejaVuSans-36"/>
      </g>
     </g>
    </g>
    <g id="ytick_8">
     <g id="line2d_31">
      <path clip-path="url(#pf43d56c3f4)" d="M 33.34925 42.806625 
L 443.034703 42.806625 
" style="fill:none;stroke:#b0b0b0;stroke-linecap:square;stroke-width:0.8;"/>
     </g>
     <g id="line2d_32">
      <g>
       <use style="stroke:#000000;stroke-width:0.8;" x="33.34925" xlink:href="#mc783c8293d" y="42.806625"/>
      </g>
     </g>
     <g id="text_17">
      <!-- 7 -->
      <g transform="translate(19.98675 46.605844)scale(0.1 -0.1)">
       <use xlink:href="#DejaVuSans-37"/>
      </g>
     </g>
    </g>
    <g id="text_18">
     <!-- Emissions / mean emissions -->
     <defs>
      <path d="M 9.8125 72.90625 
L 55.90625 72.90625 
L 55.90625 64.59375 
L 19.671875 64.59375 
L 19.671875 43.015625 
L 54.390625 43.015625 
L 54.390625 34.71875 
L 19.671875 34.71875 
L 19.671875 8.296875 
L 56.78125 8.296875 
L 56.78125 0 
L 9.8125 0 
z
" id="DejaVuSans-45"/>
      <path d="M 52 44.1875 
Q 55.375 50.25 60.0625 53.125 
Q 64.75 56 71.09375 56 
Q 79.640625 56 84.28125 50.015625 
Q 88.921875 44.046875 88.921875 33.015625 
L 88.921875 0 
L 79.890625 0 
L 79.890625 32.71875 
Q 79.890625 40.578125 77.09375 44.375 
Q 74.3125 48.1875 68.609375 48.1875 
Q 61.625 48.1875 57.5625 43.546875 
Q 53.515625 38.921875 53.515625 30.90625 
L 53.515625 0 
L 44.484375 0 
L 44.484375 32.71875 
Q 44.484375 40.625 41.703125 44.40625 
Q 38.921875 48.1875 33.109375 48.1875 
Q 26.21875 48.1875 22.15625 43.53125 
Q 18.109375 38.875 18.109375 30.90625 
L 18.109375 0 
L 9.078125 0 
L 9.078125 54.6875 
L 18.109375 54.6875 
L 18.109375 46.1875 
Q 21.1875 51.21875 25.484375 53.609375 
Q 29.78125 56 35.6875 56 
Q 41.65625 56 45.828125 52.96875 
Q 50 49.953125 52 44.1875 
z
" id="DejaVuSans-6d"/>
      <path d="M 9.421875 54.6875 
L 18.40625 54.6875 
L 18.40625 0 
L 9.421875 0 
z
M 9.421875 75.984375 
L 18.40625 75.984375 
L 18.40625 64.59375 
L 9.421875 64.59375 
z
" id="DejaVuSans-69"/>
      <path d="M 44.28125 53.078125 
L 44.28125 44.578125 
Q 40.484375 46.53125 36.375 47.5 
Q 32.28125 48.484375 27.875 48.484375 
Q 21.1875 48.484375 17.84375 46.4375 
Q 14.5 44.390625 14.5 40.28125 
Q 14.5 37.15625 16.890625 35.375 
Q 19.28125 33.59375 26.515625 31.984375 
L 29.59375 31.296875 
Q 39.15625 29.25 43.1875 25.515625 
Q 47.21875 21.78125 47.21875 15.09375 
Q 47.21875 7.46875 41.1875 3.015625 
Q 35.15625 -1.421875 24.609375 -1.421875 
Q 20.21875 -1.421875 15.453125 -0.5625 
Q 10.6875 0.296875 5.421875 2 
L 5.421875 11.28125 
Q 10.40625 8.6875 15.234375 7.390625 
Q 20.0625 6.109375 24.8125 6.109375 
Q 31.15625 6.109375 34.5625 8.28125 
Q 37.984375 10.453125 37.984375 14.40625 
Q 37.984375 18.0625 35.515625 20.015625 
Q 33.0625 21.96875 24.703125 23.78125 
L 21.578125 24.515625 
Q 13.234375 26.265625 9.515625 29.90625 
Q 5.8125 33.546875 5.8125 39.890625 
Q 5.8125 47.609375 11.28125 51.796875 
Q 16.75 56 26.8125 56 
Q 31.78125 56 36.171875 55.265625 
Q 40.578125 54.546875 44.28125 53.078125 
z
" id="DejaVuSans-73"/>
      <path d="M 30.609375 48.390625 
Q 23.390625 48.390625 19.1875 42.75 
Q 14.984375 37.109375 14.984375 27.296875 
Q 14.984375 17.484375 19.15625 11.84375 
Q 23.34375 6.203125 30.609375 6.203125 
Q 37.796875 6.203125 41.984375 11.859375 
Q 46.1875 17.53125 46.1875 27.296875 
Q 46.1875 37.015625 41.984375 42.703125 
Q 37.796875 48.390625 30.609375 48.390625 
z
M 30.609375 56 
Q 42.328125 56 49.015625 48.375 
Q 55.71875 40.765625 55.71875 27.296875 
Q 55.71875 13.875 49.015625 6.21875 
Q 42.328125 -1.421875 30.609375 -1.421875 
Q 18.84375 -1.421875 12.171875 6.21875 
Q 5.515625 13.875 5.515625 27.296875 
Q 5.515625 40.765625 12.171875 48.375 
Q 18.84375 56 30.609375 56 
z
" id="DejaVuSans-6f"/>
      <path d="M 54.890625 33.015625 
L 54.890625 0 
L 45.90625 0 
L 45.90625 32.71875 
Q 45.90625 40.484375 42.875 44.328125 
Q 39.84375 48.1875 33.796875 48.1875 
Q 26.515625 48.1875 22.3125 43.546875 
Q 18.109375 38.921875 18.109375 30.90625 
L 18.109375 0 
L 9.078125 0 
L 9.078125 54.6875 
L 18.109375 54.6875 
L 18.109375 46.1875 
Q 21.34375 51.125 25.703125 53.5625 
Q 30.078125 56 35.796875 56 
Q 45.21875 56 50.046875 50.171875 
Q 54.890625 44.34375 54.890625 33.015625 
z
" id="DejaVuSans-6e"/>
      <path id="DejaVuSans-20"/>
      <path d="M 25.390625 72.90625 
L 33.6875 72.90625 
L 8.296875 -9.28125 
L 0 -9.28125 
z
" id="DejaVuSans-2f"/>
     </defs>
     <g transform="translate(13.907063 236.862713)rotate(-90)scale(0.1 -0.1)">
      <use xlink:href="#DejaVuSans-45"/>
      <use x="63.183594" xlink:href="#DejaVuSans-6d"/>
      <use x="160.595703" xlink:href="#DejaVuSans-69"/>
      <use x="188.378906" xlink:href="#DejaVuSans-73"/>
      <use x="240.478516" xlink:href="#DejaVuSans-73"/>
      <use x="292.578125" xlink:href="#DejaVuSans-69"/>
      <use x="320.361328" xlink:href="#DejaVuSans-6f"/>
      <use x="381.542969" xlink:href="#DejaVuSans-6e"/>
      <use x="444.921875" xlink:href="#DejaVuSans-73"/>
      <use x="497.021484" xlink:href="#DejaVuSans-20"/>
      <use x="528.808594" xlink:href="#DejaVuSans-2f"/>
      <use x="562.5" xlink:href="#DejaVuSans-20"/>
      <use x="594.287109" xlink:href="#DejaVuSans-6d"/>
      <use x="691.699219" xlink:href="#DejaVuSans-65"/>
      <use x="753.222656" xlink:href="#DejaVuSans-61"/>
      <use x="814.501953" xlink:href="#DejaVuSans-6e"/>
      <use x="877.880859" xlink:href="#DejaVuSans-20"/>
      <use x="909.667969" xlink:href="#DejaVuSans-65"/>
      <use x="971.191406" xlink:href="#DejaVuSans-6d"/>
      <use x="1068.603516" xlink:href="#DejaVuSans-69"/>
      <use x="1096.386719" xlink:href="#DejaVuSans-73"/>
      <use x="1148.486328" xlink:href="#DejaVuSans-73"/>
      <use x="1200.585938" xlink:href="#DejaVuSans-69"/>
      <use x="1228.369141" xlink:href="#DejaVuSans-6f"/>
      <use x="1289.550781" xlink:href="#DejaVuSans-6e"/>
      <use x="1352.929688" xlink:href="#DejaVuSans-73"/>
     </g>
    </g>
   </g>
   <g id="line2d_33">
    <path clip-path="url(#pf43d56c3f4)" d="M 33.34925 281.435525 
L 35.17937 279.645165 
L 37.205574 281.613962 
L 39.166417 281.744182 
L 41.192622 276.759367 
L 43.153465 282.148894 
L 45.179669 285.095988 
L 47.205874 283.756089 
L 49.166716 286.244096 
L 51.192921 276.744431 
L 53.153764 36.387707 
L 55.179968 289.976523 
L 57.206173 227.666214 
L 59.036293 283.139096 
L 61.062497 247.406833 
L 63.02334 279.026282 
L 65.049544 283.505924 
L 67.010387 277.75493 
L 69.036592 279.31074 
L 71.062796 281.785324 
L 73.023639 275.793912 
L 75.049843 280.905766 
L 77.010686 293.187109 
L 79.036891 287.797352 
L 81.063095 289.865246 
L 82.893215 293.475388 
L 84.91942 285.232125 
L 86.880263 291.593642 
L 88.906467 286.130352 
L 90.86731 287.965292 
L 92.893514 271.739501 
L 94.919719 271.185374 
L 96.880562 282.731087 
L 98.906766 275.345922 
L 100.867609 291.32402 
L 102.893813 273.275277 
L 104.920018 281.270402 
L 106.815499 280.878831 
L 108.841704 279.179172 
L 110.802546 295.128328 
L 112.828751 288.230573 
L 114.789594 292.963583 
L 116.815798 280.269887 
L 118.842003 290.043044 
L 120.802846 287.970216 
L 122.82905 294.59353 
L 124.789893 294.991157 
L 126.816097 292.742247 
L 128.842302 283.852432 
L 130.672422 282.458912 
L 132.698626 284.264478 
L 134.659469 296.181282 
L 136.685673 289.636157 
L 138.646516 291.351587 
L 140.672721 282.462471 
L 142.698925 292.215239 
L 144.659768 286.51717 
L 146.685972 294.601145 
L 148.646815 293.621571 
L 150.67302 295.653442 
L 152.699224 291.570812 
L 154.529344 296.82594 
L 156.555549 296.153085 
L 158.516392 295.981007 
L 160.542596 289.992245 
L 162.503439 286.467825 
L 164.529643 276.355918 
L 166.555848 287.10075 
L 168.516691 292.893221 
L 170.542895 296.4202 
L 172.503738 291.623493 
L 174.529942 295.903411 
L 176.556147 285.394545 
L 178.386267 291.959511 
L 180.412471 295.517698 
L 182.373314 284.658853 
L 184.399519 293.247392 
L 186.360361 296.133408 
L 188.386566 291.183724 
L 190.41277 281.763756 
L 192.373613 288.507329 
L 194.399818 291.588892 
L 196.36066 295.761034 
L 198.386865 295.514357 
L 200.413069 295.092633 
L 202.308551 291.668464 
L 204.334755 296.363947 
L 206.295598 284.676926 
L 208.321802 289.441949 
L 210.282645 286.656017 
L 212.30885 291.740013 
L 214.335054 287.214239 
L 216.295897 288.846349 
L 218.322102 289.69801 
L 220.282944 282.78155 
L 222.309149 291.37857 
L 224.335353 296.471147 
L 226.165473 289.115086 
L 228.191678 291.438458 
L 230.152521 296.840843 
L 232.178725 291.666417 
L 234.139568 294.828043 
L 236.165772 291.463367 
L 238.191977 289.274616 
L 240.15282 282.791348 
L 242.179024 294.410328 
L 244.139867 295.338097 
L 246.166071 295.527229 
L 248.192276 288.465213 
L 250.022396 290.776247 
L 252.0486 289.771409 
L 254.009443 287.768215 
L 256.035648 293.734114 
L 257.996491 291.718224 
L 260.022695 289.834245 
L 262.048899 288.576491 
L 264.009742 290.053582 
L 266.035947 293.369724 
L 267.99679 296.099039 
L 270.022994 292.525735 
L 272.049198 294.057974 
L 273.879318 293.719286 
L 275.905523 293.192761 
L 277.866366 294.530854 
L 279.89257 296.567538 
L 281.853413 295.056747 
L 283.879617 295.2637 
L 285.905822 292.134274 
L 287.866665 294.132589 
L 289.892869 295.200717 
L 291.853712 291.793613 
L 293.879917 294.459064 
L 295.906121 296.79869 
L 297.801602 294.991498 
L 299.827807 296.174161 
L 301.78865 296.500706 
L 303.814854 292.522934 
L 305.775697 296.810789 
L 307.801901 296.133384 
L 309.828106 283.771811 
L 311.788949 291.818895 
L 313.815153 291.864604 
L 315.775996 293.027042 
L 317.8022 295.413102 
L 319.828405 295.436979 
L 321.658525 296.403034 
L 323.684729 296.034978 
L 325.645572 296.556651 
L 327.671777 289.194732 
L 329.63262 291.838287 
L 331.658824 296.098404 
L 333.685028 288.719113 
L 335.645871 284.903092 
L 337.672076 289.632079 
L 339.632919 295.947856 
L 341.659123 295.683509 
L 343.685327 296.824631 
L 345.515447 293.263854 
L 347.541652 294.643789 
L 349.502495 293.201172 
L 351.528699 293.062028 
L 353.489542 295.845916 
L 355.515747 294.856518 
L 359.502794 286.384161 
L 361.528998 296.338056 
L 363.489841 295.821904 
L 365.516046 295.498439 
L 367.54225 292.726722 
L 369.37237 295.940531 
L 371.398574 296.207323 
L 373.359417 295.618938 
L 375.385622 296.840843 
L 377.346465 295.722299 
L 379.372669 292.203349 
L 381.398873 292.634457 
L 383.359716 291.610599 
L 385.385921 288.310653 
L 387.346764 295.253824 
L 389.372968 296.724898 
L 391.399173 296.464907 
L 393.294654 295.356441 
L 395.320858 293.533766 
L 397.281701 291.426061 
L 399.307906 296.148221 
L 401.268749 285.924722 
L 403.294953 286.719066 
L 405.321157 288.395106 
L 407.282 288.469152 
L 409.308205 296.639659 
L 411.269048 295.294945 
L 413.295252 296.296935 
L 415.321456 295.056032 
L 417.151577 295.191214 
L 419.177781 292.274095 
L 421.138624 294.17965 
L 423.164828 295.922227 
L 425.125671 296.027052 
L 427.151876 296.300226 
L 429.17808 288.636576 
L 431.138923 294.138427 
L 433.165127 292.358991 
L 435.12597 295.68925 
L 437.152175 296.186935 
L 439.178379 295.593553 
L 441.008499 295.293037 
L 443.034703 295.739074 
L 443.034703 295.739074 
" style="fill:none;stroke:#1f77b4;stroke-linecap:square;stroke-width:1.5;"/>
   </g>
   <g id="line2d_34">
    <path clip-path="url(#pf43d56c3f4)" d="M 33.34925 280.351854 
L 35.17937 281.095216 
L 37.205574 282.202737 
L 39.166417 281.231339 
L 41.192622 275.735833 
L 43.153465 281.165904 
L 45.179669 283.550892 
L 47.205874 281.23398 
L 49.166716 283.212165 
L 51.192921 273.180727 
L 53.153764 235.66546 
L 55.179968 287.576684 
L 57.206173 272.707459 
L 59.036293 285.328849 
L 61.062497 260.374842 
L 63.02334 277.96512 
L 65.049544 283.186541 
L 67.010387 273.53074 
L 69.036592 275.574158 
L 71.062796 278.829824 
L 73.023639 270.989085 
L 75.049843 278.857516 
L 77.010686 290.908825 
L 79.036891 286.657221 
L 81.063095 288.039057 
L 82.893215 292.025914 
L 84.91942 282.581845 
L 86.880263 289.586978 
L 88.906467 282.475636 
L 90.86731 285.768316 
L 92.893514 267.904406 
L 94.919719 267.894562 
L 96.880562 280.152059 
L 98.906766 272.563468 
L 100.867609 290.366429 
L 102.893813 270.806874 
L 104.920018 277.287175 
L 106.815499 280.45559 
L 108.841704 279.886775 
L 110.802546 294.020587 
L 112.828751 287.629947 
L 114.789594 289.459606 
L 116.815798 279.413718 
L 118.842003 288.260799 
L 120.802846 286.55144 
L 122.82905 293.556902 
L 124.789893 294.549589 
L 126.816097 291.892365 
L 128.842302 283.472827 
L 130.672422 280.444179 
L 132.698626 281.472214 
L 134.659469 295.571075 
L 136.685673 288.089315 
L 138.646516 290.55392 
L 140.672721 281.779222 
L 142.698925 291.677073 
L 144.659768 287.191441 
L 146.685972 294.276557 
L 148.646815 292.892853 
L 150.67302 295.214128 
L 152.699224 290.808661 
L 154.529344 296.822033 
L 156.555549 295.895692 
L 158.516392 295.846224 
L 160.542596 289.280514 
L 162.503439 286.279422 
L 164.529643 277.557384 
L 166.555848 286.421996 
L 168.516691 291.800748 
L 170.542895 296.262579 
L 172.503738 290.686533 
L 174.529942 294.994015 
L 176.556147 285.18499 
L 178.386267 291.102928 
L 180.412471 295.084125 
L 182.373314 287.47604 
L 184.399519 292.997095 
L 186.360361 295.96324 
L 188.386566 290.264573 
L 190.41277 280.795788 
L 192.373613 286.383899 
L 194.399818 291.032849 
L 196.36066 294.754756 
L 198.386865 295.399278 
L 200.413069 294.018526 
L 202.308551 291.449019 
L 204.334755 296.066987 
L 206.295598 265.653692 
L 208.321802 288.712693 
L 210.282645 286.299249 
L 212.30885 291.572447 
L 214.335054 283.928478 
L 216.295897 287.604919 
L 218.322102 283.955774 
L 220.282944 283.238027 
L 222.309149 290.586046 
L 224.335353 296.273588 
L 226.165473 286.71005 
L 228.191678 291.393401 
L 230.152521 296.840843 
L 232.178725 282.639538 
L 234.139568 292.913556 
L 236.165772 287.596758 
L 238.191977 290.044338 
L 240.15282 283.260184 
L 242.179024 288.51361 
L 244.139867 287.750178 
L 246.166071 294.925816 
L 248.192276 283.590041 
L 250.022396 276.078441 
L 252.0486 289.793868 
L 254.009443 285.774791 
L 256.035648 282.882154 
L 257.996491 292.204325 
L 260.022695 290.905758 
L 262.048899 290.317853 
L 264.009742 263.772823 
L 266.035947 291.724982 
L 267.99679 295.48179 
L 270.022994 274.1945 
L 272.049198 292.923767 
L 273.879318 293.333235 
L 275.905523 292.937613 
L 279.89257 296.53673 
L 281.853413 295.163413 
L 283.879617 295.014252 
L 285.905822 292.482805 
L 287.866665 294.047812 
L 289.892869 295.32597 
L 291.853712 292.048215 
L 295.906121 296.697747 
L 297.801602 294.70917 
L 299.827807 296.060757 
L 301.78865 296.495416 
L 303.814854 292.649449 
L 305.775697 296.778457 
L 307.801901 296.067512 
L 309.828106 285.527595 
L 311.788949 292.160783 
L 313.815153 292.421121 
L 315.775996 293.334711 
L 317.8022 295.501495 
L 319.828405 295.435094 
L 321.658525 296.461613 
L 323.684729 295.621703 
L 325.645572 296.363471 
L 327.671777 289.443404 
L 329.63262 292.160862 
L 331.658824 295.980918 
L 333.685028 289.933308 
L 335.645871 287.054229 
L 337.672076 291.355247 
L 339.632919 295.967762 
L 341.659123 295.663455 
L 343.685327 296.792834 
L 345.515447 293.850385 
L 347.541652 294.839451 
L 349.502495 293.160592 
L 351.528699 293.054911 
L 353.489542 295.838662 
L 355.515747 295.013153 
L 357.541951 291.496856 
L 359.502794 288.459461 
L 361.528998 296.322474 
L 363.489841 295.888733 
L 365.516046 295.579514 
L 367.54225 292.881357 
L 369.37237 295.740778 
L 371.398574 295.859483 
L 373.359417 295.500317 
L 375.385622 296.840843 
L 377.346465 295.465084 
L 379.372669 292.669685 
L 381.398873 292.760271 
L 383.359716 292.338595 
L 385.385921 289.005616 
L 387.346764 295.572314 
L 389.372968 296.706909 
L 391.399173 296.215026 
L 393.294654 295.450395 
L 395.320858 293.734078 
L 397.281701 290.341455 
L 399.307906 296.056751 
L 401.268749 288.477063 
L 403.294953 286.800355 
L 405.321157 282.011488 
L 407.282 287.910832 
L 409.308205 296.145836 
L 411.269048 294.821771 
L 413.295252 295.821158 
L 415.321456 293.843287 
L 417.151577 294.049732 
L 419.177781 291.43754 
L 421.138624 293.921717 
L 423.164828 295.042542 
L 425.125671 295.126493 
L 427.151876 295.748696 
L 429.17808 290.343642 
L 431.138923 294.018652 
L 433.165127 292.11868 
L 435.12597 294.821277 
L 437.152175 295.04366 
L 439.178379 293.65999 
L 441.008499 295.015733 
L 443.034703 295.50242 
L 443.034703 295.50242 
" style="fill:none;stroke:#ff7f0e;stroke-linecap:square;stroke-width:1.5;"/>
   </g>
   <g id="line2d_35">
    <path clip-path="url(#pf43d56c3f4)" d="M 33.34925 277.772573 
L 35.17937 275.543679 
L 37.205574 277.992195 
L 39.166417 278.124328 
L 41.192622 271.920426 
L 43.153465 278.646544 
L 45.179669 282.302136 
L 47.205874 280.650057 
L 49.166716 283.705701 
L 51.192921 271.969745 
L 53.153764 279.016553 
L 55.179968 288.346302 
L 57.206173 267.933213 
L 59.036293 280.799767 
L 61.062497 247.242984 
L 63.02334 274.794494 
L 65.049544 280.334746 
L 67.010387 273.214919 
L 69.036592 275.142473 
L 71.062796 278.21553 
L 73.023639 270.792587 
L 75.049843 277.117723 
L 77.010686 292.328041 
L 79.036891 285.631754 
L 81.063095 288.208513 
L 82.893215 292.679878 
L 84.91942 282.473852 
L 86.880263 290.350286 
L 88.906467 283.583184 
L 90.86731 285.86223 
L 92.893514 265.775439 
L 94.919719 265.09737 
L 96.880562 279.456024 
L 98.906766 270.244755 
L 100.867609 290.022894 
L 102.893813 267.668875 
L 104.920018 277.567702 
L 106.815499 277.065575 
L 108.841704 274.990333 
L 110.802546 294.724776 
L 112.828751 286.185434 
L 114.789594 292.043413 
L 116.815798 276.336663 
L 118.842003 288.427491 
L 120.802846 285.862643 
L 122.82905 294.072387 
L 124.789893 294.551809 
L 126.816097 291.758832 
L 128.842302 280.77069 
L 130.672422 279.059203 
L 132.698626 281.288586 
L 134.659469 296.024622 
L 136.685673 287.9208 
L 138.646516 290.045972 
L 140.672721 279.044319 
L 142.698925 291.114225 
L 144.659768 284.061802 
L 146.685972 294.068243 
L 148.646815 292.855557 
L 150.67302 295.371885 
L 152.699224 290.320236 
L 154.529344 296.822387 
L 156.555549 295.989554 
L 158.516392 295.776251 
L 160.542596 288.376945 
L 162.503439 283.999626 
L 164.529643 271.48244 
L 166.555848 284.78403 
L 168.516691 291.95367 
L 170.542895 296.32023 
L 172.503738 290.382596 
L 174.529942 295.549434 
L 176.556147 282.67306 
L 178.386267 290.799299 
L 180.412471 295.202702 
L 182.373314 281.761665 
L 184.399519 292.391758 
L 186.360361 295.965222 
L 188.386566 289.840914 
L 190.41277 278.180029 
L 192.373613 286.527642 
L 194.399818 290.341756 
L 196.36066 295.50745 
L 198.386865 295.198711 
L 200.413069 294.676272 
L 202.308551 290.437869 
L 204.334755 296.250866 
L 206.295598 281.889919 
L 208.321802 287.682682 
L 210.282645 284.248045 
L 212.30885 290.526719 
L 214.335054 284.924556 
L 216.295897 286.956277 
L 218.322102 288.059392 
L 220.282944 279.437466 
L 222.309149 290.079186 
L 224.335353 296.379312 
L 226.165473 287.289488 
L 228.191678 290.251337 
L 230.152521 296.840843 
L 232.178725 290.723869 
L 234.139568 294.454037 
L 236.165772 290.51237 
L 238.191977 287.979173 
L 240.15282 280.278188 
L 242.179024 293.917988 
L 244.139867 295.045036 
L 246.166071 295.220594 
L 248.192276 286.852605 
L 250.022396 289.495371 
L 252.0486 288.066938 
L 254.009443 285.649748 
L 256.035648 293.188848 
L 260.022695 288.61285 
L 262.048899 286.973372 
L 264.009742 288.763344 
L 266.035947 292.772144 
L 267.99679 295.917949 
L 270.022994 291.617143 
L 272.049198 293.478631 
L 275.905523 292.564712 
L 277.866366 294.104542 
L 279.89257 296.518863 
L 281.853413 294.730272 
L 283.879617 294.861128 
L 285.905822 291.070729 
L 287.866665 293.522272 
L 289.892869 294.819267 
L 291.853712 290.697885 
L 293.879917 293.973573 
L 295.906121 296.794967 
L 297.801602 294.598248 
L 299.827807 296.065486 
L 301.78865 296.409263 
L 303.814854 291.780712 
L 305.775697 296.806823 
L 307.801901 295.94273 
L 309.828106 280.349734 
L 311.788949 290.657366 
L 313.815153 290.681911 
L 315.775996 292.11986 
L 317.8022 295.073796 
L 319.828405 295.137209 
L 321.658525 296.309584 
L 323.684729 295.862816 
L 325.645572 296.495819 
L 327.671777 287.558688 
L 329.63262 290.768736 
L 331.658824 295.939355 
L 333.685028 286.981571 
L 335.645871 282.348958 
L 337.672076 288.091213 
L 339.632919 295.756916 
L 341.659123 295.436372 
L 343.685327 296.821257 
L 345.515447 292.48963 
L 347.541652 294.168539 
L 349.502495 292.414401 
L 351.528699 292.244932 
L 353.489542 295.630593 
L 355.515747 294.427104 
L 359.502794 284.122344 
L 361.528998 296.229337 
L 363.489841 295.601568 
L 365.516046 295.208335 
L 367.54225 291.83668 
L 369.37237 295.745744 
L 371.398574 296.070307 
L 373.359417 295.354756 
L 375.385622 296.840843 
L 377.346465 295.479933 
L 379.372669 291.200433 
L 381.398873 291.724044 
L 383.359716 290.479303 
L 385.385921 286.464912 
L 387.346764 294.910972 
L 389.372968 296.699928 
L 391.399173 296.383323 
L 393.294654 295.033727 
L 395.320858 292.814712 
L 397.281701 290.248127 
L 399.307906 295.997874 
L 401.268749 285.81767 
L 403.294953 289.472658 
L 405.321157 286.469713 
L 407.282 286.640882 
L 409.308205 296.610752 
L 411.269048 294.964562 
L 413.295252 296.189918 
L 415.321456 294.727996 
L 417.151577 294.992302 
L 419.177781 291.498885 
L 423.164828 295.950268 
L 425.125671 296.005521 
L 427.151876 296.237406 
L 429.17808 286.867039 
L 431.138923 293.550971 
L 433.165127 291.452348 
L 435.12597 295.552741 
L 437.152175 296.114604 
L 441.008499 295.120183 
L 443.034703 295.571809 
L 443.034703 295.571809 
" style="fill:none;stroke:#2ca02c;stroke-linecap:square;stroke-width:1.5;"/>
   </g>
   <g id="patch_3">
    <path d="M 33.34925 309.8635 
L 33.34925 23.36505 
" style="fill:none;stroke:#000000;stroke-linecap:square;stroke-linejoin:miter;stroke-width:0.8;"/>
   </g>
   <g id="patch_4">
    <path d="M 443.034703 309.8635 
L 443.034703 23.36505 
" style="fill:none;stroke:#000000;stroke-linecap:square;stroke-linejoin:miter;stroke-width:0.8;"/>
   </g>
   <g id="patch_5">
    <path d="M 33.34925 309.8635 
L 443.034703 309.8635 
" style="fill:none;stroke:#000000;stroke-linecap:square;stroke-linejoin:miter;stroke-width:0.8;"/>
   </g>
   <g id="patch_6">
    <path d="M 33.34925 23.36505 
L 443.034703 23.36505 
" style="fill:none;stroke:#000000;stroke-linecap:square;stroke-linejoin:miter;stroke-width:0.8;"/>
   </g>
   <g id="text_19">
    <!-- Average monthly normalized emissions -->
    <defs>
     <path d="M 34.1875 63.1875 
L 20.796875 26.90625 
L 47.609375 26.90625 
z
M 28.609375 72.90625 
L 39.796875 72.90625 
L 67.578125 0 
L 57.328125 0 
L 50.6875 18.703125 
L 17.828125 18.703125 
L 11.1875 0 
L 0.78125 0 
z
" id="DejaVuSans-41"/>
     <path d="M 2.984375 54.6875 
L 12.5 54.6875 
L 29.59375 8.796875 
L 46.6875 54.6875 
L 56.203125 54.6875 
L 35.6875 0 
L 23.484375 0 
z
" id="DejaVuSans-76"/>
     <path d="M 41.109375 46.296875 
Q 39.59375 47.171875 37.8125 47.578125 
Q 36.03125 48 33.890625 48 
Q 26.265625 48 22.1875 43.046875 
Q 18.109375 38.09375 18.109375 28.8125 
L 18.109375 0 
L 9.078125 0 
L 9.078125 54.6875 
L 18.109375 54.6875 
L 18.109375 46.1875 
Q 20.953125 51.171875 25.484375 53.578125 
Q 30.03125 56 36.53125 56 
Q 37.453125 56 38.578125 55.875 
Q 39.703125 55.765625 41.0625 55.515625 
z
" id="DejaVuSans-72"/>
     <path d="M 45.40625 27.984375 
Q 45.40625 37.75 41.375 43.109375 
Q 37.359375 48.484375 30.078125 48.484375 
Q 22.859375 48.484375 18.828125 43.109375 
Q 14.796875 37.75 14.796875 27.984375 
Q 14.796875 18.265625 18.828125 12.890625 
Q 22.859375 7.515625 30.078125 7.515625 
Q 37.359375 7.515625 41.375 12.890625 
Q 45.40625 18.265625 45.40625 27.984375 
z
M 54.390625 6.78125 
Q 54.390625 -7.171875 48.1875 -13.984375 
Q 42 -20.796875 29.203125 -20.796875 
Q 24.46875 -20.796875 20.265625 -20.09375 
Q 16.0625 -19.390625 12.109375 -17.921875 
L 12.109375 -9.1875 
Q 16.0625 -11.328125 19.921875 -12.34375 
Q 23.78125 -13.375 27.78125 -13.375 
Q 36.625 -13.375 41.015625 -8.765625 
Q 45.40625 -4.15625 45.40625 5.171875 
L 45.40625 9.625 
Q 42.625 4.78125 38.28125 2.390625 
Q 33.9375 0 27.875 0 
Q 17.828125 0 11.671875 7.65625 
Q 5.515625 15.328125 5.515625 27.984375 
Q 5.515625 40.671875 11.671875 48.328125 
Q 17.828125 56 27.875 56 
Q 33.9375 56 38.28125 53.609375 
Q 42.625 51.21875 45.40625 46.390625 
L 45.40625 54.6875 
L 54.390625 54.6875 
z
" id="DejaVuSans-67"/>
     <path d="M 54.890625 33.015625 
L 54.890625 0 
L 45.90625 0 
L 45.90625 32.71875 
Q 45.90625 40.484375 42.875 44.328125 
Q 39.84375 48.1875 33.796875 48.1875 
Q 26.515625 48.1875 22.3125 43.546875 
Q 18.109375 38.921875 18.109375 30.90625 
L 18.109375 0 
L 9.078125 0 
L 9.078125 75.984375 
L 18.109375 75.984375 
L 18.109375 46.1875 
Q 21.34375 51.125 25.703125 53.5625 
Q 30.078125 56 35.796875 56 
Q 45.21875 56 50.046875 50.171875 
Q 54.890625 44.34375 54.890625 33.015625 
z
" id="DejaVuSans-68"/>
     <path d="M 9.421875 75.984375 
L 18.40625 75.984375 
L 18.40625 0 
L 9.421875 0 
z
" id="DejaVuSans-6c"/>
     <path d="M 32.171875 -5.078125 
Q 28.375 -14.84375 24.75 -17.8125 
Q 21.140625 -20.796875 15.09375 -20.796875 
L 7.90625 -20.796875 
L 7.90625 -13.28125 
L 13.1875 -13.28125 
Q 16.890625 -13.28125 18.9375 -11.515625 
Q 21 -9.765625 23.484375 -3.21875 
L 25.09375 0.875 
L 2.984375 54.6875 
L 12.5 54.6875 
L 29.59375 11.921875 
L 46.6875 54.6875 
L 56.203125 54.6875 
z
" id="DejaVuSans-79"/>
     <path d="M 5.515625 54.6875 
L 48.1875 54.6875 
L 48.1875 46.484375 
L 14.40625 7.171875 
L 48.1875 7.171875 
L 48.1875 0 
L 4.296875 0 
L 4.296875 8.203125 
L 38.09375 47.515625 
L 5.515625 47.515625 
z
" id="DejaVuSans-7a"/>
     <path d="M 45.40625 46.390625 
L 45.40625 75.984375 
L 54.390625 75.984375 
L 54.390625 0 
L 45.40625 0 
L 45.40625 8.203125 
Q 42.578125 3.328125 38.25 0.953125 
Q 33.9375 -1.421875 27.875 -1.421875 
Q 17.96875 -1.421875 11.734375 6.484375 
Q 5.515625 14.40625 5.515625 27.296875 
Q 5.515625 40.1875 11.734375 48.09375 
Q 17.96875 56 27.875 56 
Q 33.9375 56 38.25 53.625 
Q 42.578125 51.265625 45.40625 46.390625 
z
M 14.796875 27.296875 
Q 14.796875 17.390625 18.875 11.75 
Q 22.953125 6.109375 30.078125 6.109375 
Q 37.203125 6.109375 41.296875 11.75 
Q 45.40625 17.390625 45.40625 27.296875 
Q 45.40625 37.203125 41.296875 42.84375 
Q 37.203125 48.484375 30.078125 48.484375 
Q 22.953125 48.484375 18.875 42.84375 
Q 14.796875 37.203125 14.796875 27.296875 
z
" id="DejaVuSans-64"/>
    </defs>
    <g transform="translate(119.628227 17.36505)scale(0.12 -0.12)">
     <use xlink:href="#DejaVuSans-41"/>
     <use x="68.330078" xlink:href="#DejaVuSans-76"/>
     <use x="127.509766" xlink:href="#DejaVuSans-65"/>
     <use x="189.033203" xlink:href="#DejaVuSans-72"/>
     <use x="230.146484" xlink:href="#DejaVuSans-61"/>
     <use x="291.425781" xlink:href="#DejaVuSans-67"/>
     <use x="354.902344" xlink:href="#DejaVuSans-65"/>
     <use x="416.425781" xlink:href="#DejaVuSans-20"/>
     <use x="448.212891" xlink:href="#DejaVuSans-6d"/>
     <use x="545.625" xlink:href="#DejaVuSans-6f"/>
     <use x="606.806641" xlink:href="#DejaVuSans-6e"/>
     <use x="670.185547" xlink:href="#DejaVuSans-74"/>
     <use x="709.394531" xlink:href="#DejaVuSans-68"/>
     <use x="772.773438" xlink:href="#DejaVuSans-6c"/>
     <use x="800.556641" xlink:href="#DejaVuSans-79"/>
     <use x="859.736328" xlink:href="#DejaVuSans-20"/>
     <use x="891.523438" xlink:href="#DejaVuSans-6e"/>
     <use x="954.902344" xlink:href="#DejaVuSans-6f"/>
     <use x="1016.083984" xlink:href="#DejaVuSans-72"/>
     <use x="1057.181641" xlink:href="#DejaVuSans-6d"/>
     <use x="1154.59375" xlink:href="#DejaVuSans-61"/>
     <use x="1215.873047" xlink:href="#DejaVuSans-6c"/>
     <use x="1243.65625" xlink:href="#DejaVuSans-69"/>
     <use x="1271.439453" xlink:href="#DejaVuSans-7a"/>
     <use x="1323.929688" xlink:href="#DejaVuSans-65"/>
     <use x="1385.453125" xlink:href="#DejaVuSans-64"/>
     <use x="1448.929688" xlink:href="#DejaVuSans-20"/>
     <use x="1480.716797" xlink:href="#DejaVuSans-65"/>
     <use x="1542.240234" xlink:href="#DejaVuSans-6d"/>
     <use x="1639.652344" xlink:href="#DejaVuSans-69"/>
     <use x="1667.435547" xlink:href="#DejaVuSans-73"/>
     <use x="1719.535156" xlink:href="#DejaVuSans-73"/>
     <use x="1771.634766" xlink:href="#DejaVuSans-69"/>
     <use x="1799.417969" xlink:href="#DejaVuSans-6f"/>
     <use x="1860.599609" xlink:href="#DejaVuSans-6e"/>
     <use x="1923.978516" xlink:href="#DejaVuSans-73"/>
    </g>
   </g>
   <g id="legend_1">
    <g id="patch_7">
     <path d="M 382.762828 75.399425 
L 436.034703 75.399425 
Q 438.034703 75.399425 438.034703 73.399425 
L 438.034703 30.36505 
Q 438.034703 28.36505 436.034703 28.36505 
L 382.762828 28.36505 
Q 380.762828 28.36505 380.762828 30.36505 
L 380.762828 73.399425 
Q 380.762828 75.399425 382.762828 75.399425 
z
" style="fill:#ffffff;opacity:0.8;stroke:#cccccc;stroke-linejoin:miter;"/>
    </g>
    <g id="line2d_36">
     <path d="M 384.762828 36.463488 
L 404.762828 36.463488 
" style="fill:none;stroke:#1f77b4;stroke-linecap:square;stroke-width:1.5;"/>
    </g>
    <g id="line2d_37"/>
    <g id="text_20">
     <!-- SOx -->
     <defs>
      <path d="M 53.515625 70.515625 
L 53.515625 60.890625 
Q 47.90625 63.578125 42.921875 64.890625 
Q 37.9375 66.21875 33.296875 66.21875 
Q 25.25 66.21875 20.875 63.09375 
Q 16.5 59.96875 16.5 54.203125 
Q 16.5 49.359375 19.40625 46.890625 
Q 22.3125 44.4375 30.421875 42.921875 
L 36.375 41.703125 
Q 47.40625 39.59375 52.65625 34.296875 
Q 57.90625 29 57.90625 20.125 
Q 57.90625 9.515625 50.796875 4.046875 
Q 43.703125 -1.421875 29.984375 -1.421875 
Q 24.8125 -1.421875 18.96875 -0.25 
Q 13.140625 0.921875 6.890625 3.21875 
L 6.890625 13.375 
Q 12.890625 10.015625 18.65625 8.296875 
Q 24.421875 6.59375 29.984375 6.59375 
Q 38.421875 6.59375 43.015625 9.90625 
Q 47.609375 13.234375 47.609375 19.390625 
Q 47.609375 24.75 44.3125 27.78125 
Q 41.015625 30.8125 33.5 32.328125 
L 27.484375 33.5 
Q 16.453125 35.6875 11.515625 40.375 
Q 6.59375 45.0625 6.59375 53.421875 
Q 6.59375 63.09375 13.40625 68.65625 
Q 20.21875 74.21875 32.171875 74.21875 
Q 37.3125 74.21875 42.625 73.28125 
Q 47.953125 72.359375 53.515625 70.515625 
z
" id="DejaVuSans-53"/>
      <path d="M 39.40625 66.21875 
Q 28.65625 66.21875 22.328125 58.203125 
Q 16.015625 50.203125 16.015625 36.375 
Q 16.015625 22.609375 22.328125 14.59375 
Q 28.65625 6.59375 39.40625 6.59375 
Q 50.140625 6.59375 56.421875 14.59375 
Q 62.703125 22.609375 62.703125 36.375 
Q 62.703125 50.203125 56.421875 58.203125 
Q 50.140625 66.21875 39.40625 66.21875 
z
M 39.40625 74.21875 
Q 54.734375 74.21875 63.90625 63.9375 
Q 73.09375 53.65625 73.09375 36.375 
Q 73.09375 19.140625 63.90625 8.859375 
Q 54.734375 -1.421875 39.40625 -1.421875 
Q 24.03125 -1.421875 14.8125 8.828125 
Q 5.609375 19.09375 5.609375 36.375 
Q 5.609375 53.65625 14.8125 63.9375 
Q 24.03125 74.21875 39.40625 74.21875 
z
" id="DejaVuSans-4f"/>
      <path d="M 54.890625 54.6875 
L 35.109375 28.078125 
L 55.90625 0 
L 45.3125 0 
L 29.390625 21.484375 
L 13.484375 0 
L 2.875 0 
L 24.125 28.609375 
L 4.6875 54.6875 
L 15.28125 54.6875 
L 29.78125 35.203125 
L 44.28125 54.6875 
z
" id="DejaVuSans-78"/>
     </defs>
     <g transform="translate(412.762828 39.963488)scale(0.1 -0.1)">
      <use xlink:href="#DejaVuSans-53"/>
      <use x="63.476562" xlink:href="#DejaVuSans-4f"/>
      <use x="142.1875" xlink:href="#DejaVuSans-78"/>
     </g>
    </g>
    <g id="line2d_38">
     <path d="M 384.762828 51.141613 
L 404.762828 51.141613 
" style="fill:none;stroke:#ff7f0e;stroke-linecap:square;stroke-width:1.5;"/>
    </g>
    <g id="line2d_39"/>
    <g id="text_21">
     <!-- NOx -->
     <defs>
      <path d="M 9.8125 72.90625 
L 23.09375 72.90625 
L 55.421875 11.921875 
L 55.421875 72.90625 
L 64.984375 72.90625 
L 64.984375 0 
L 51.703125 0 
L 19.390625 60.984375 
L 19.390625 0 
L 9.8125 0 
z
" id="DejaVuSans-4e"/>
     </defs>
     <g transform="translate(412.762828 54.641613)scale(0.1 -0.1)">
      <use xlink:href="#DejaVuSans-4e"/>
      <use x="74.804688" xlink:href="#DejaVuSans-4f"/>
      <use x="153.515625" xlink:href="#DejaVuSans-78"/>
     </g>
    </g>
    <g id="line2d_40">
     <path d="M 384.762828 65.819738 
L 404.762828 65.819738 
" style="fill:none;stroke:#2ca02c;stroke-linecap:square;stroke-width:1.5;"/>
    </g>
    <g id="line2d_41"/>
    <g id="text_22">
     <!-- CO2 -->
     <defs>
      <path d="M 64.40625 67.28125 
L 64.40625 56.890625 
Q 59.421875 61.53125 53.78125 63.8125 
Q 48.140625 66.109375 41.796875 66.109375 
Q 29.296875 66.109375 22.65625 58.46875 
Q 16.015625 50.828125 16.015625 36.375 
Q 16.015625 21.96875 22.65625 14.328125 
Q 29.296875 6.6875 41.796875 6.6875 
Q 48.140625 6.6875 53.78125 8.984375 
Q 59.421875 11.28125 64.40625 15.921875 
L 64.40625 5.609375 
Q 59.234375 2.09375 53.4375 0.328125 
Q 47.65625 -1.421875 41.21875 -1.421875 
Q 24.65625 -1.421875 15.125 8.703125 
Q 5.609375 18.84375 5.609375 36.375 
Q 5.609375 53.953125 15.125 64.078125 
Q 24.65625 74.21875 41.21875 74.21875 
Q 47.75 74.21875 53.53125 72.484375 
Q 59.328125 70.75 64.40625 67.28125 
z
" id="DejaVuSans-43"/>
     </defs>
     <g transform="translate(412.762828 69.319738)scale(0.1 -0.1)">
      <use xlink:href="#DejaVuSans-43"/>
      <use x="69.824219" xlink:href="#DejaVuSans-4f"/>
      <use x="148.535156" xlink:href="#DejaVuSans-32"/>
     </g>
    </g>
   </g>
  </g>
 </g>
 <defs>
  <clipPath id="pf43d56c3f4">
   <rect height="286.49845" width="409.685453" x="33.34925" y="23.36505"/>
  </clipPath>
 </defs>
</svg>
