<?xml version="1.0" encoding="utf-8" standalone="no"?>
<!DOCTYPE svg PUBLIC "-//W3C//DTD SVG 1.1//EN"
  "http://www.w3.org/Graphics/SVG/1.1/DTD/svg11.dtd">
<!-- Created with matplotlib (http://matplotlib.org/) -->
<svg height="345.6pt" version="1.1" viewBox="0 0 460.8 345.6" width="460.8pt" xmlns="http://www.w3.org/2000/svg" xmlns:xlink="http://www.w3.org/1999/xlink">
 <defs>
  <style type="text/css">
*{stroke-linecap:butt;stroke-linejoin:round;}
  </style>
 </defs>
 <g id="figure_1">
  <g id="patch_1">
   <path d="M 0 345.6 
L 460.8 345.6 
L 460.8 0 
L 0 0 
z
" style="fill:none;"/>
  </g>
  <g id="axes_1">
   <g id="patch_2">
    <path d="M 40.2185 309.8635 
L 447.48 309.8635 
L 447.48 23.36505 
L 40.2185 23.36505 
z
" style="fill:none;"/>
   </g>
   <g id="matplotlib.axis_1">
    <g id="xtick_1">
     <g id="line2d_1">
      <path clip-path="url(#p81983091de)" d="M 50.522142 309.8635 
L 50.522142 23.36505 
" style="fill:none;stroke:#b0b0b0;stroke-linecap:square;stroke-width:0.8;"/>
     </g>
     <g id="line2d_2">
      <defs>
       <path d="M 0 0 
L 0 3.5 
" id="mf8439c3339" style="stroke:#000000;stroke-width:0.8;"/>
      </defs>
      <g>
       <use style="stroke:#000000;stroke-width:0.8;" x="50.522142" xlink:href="#mf8439c3339" y="309.8635"/>
      </g>
     </g>
     <g id="text_1">
      <!-- 2002 -->
      <defs>
       <path d="M 19.1875 8.296875 
L 53.609375 8.296875 
L 53.609375 0 
L 7.328125 0 
L 7.328125 8.296875 
Q 12.9375 14.109375 22.625 23.890625 
Q 32.328125 33.6875 34.8125 36.53125 
Q 39.546875 41.84375 41.421875 45.53125 
Q 43.3125 49.21875 43.3125 52.78125 
Q 43.3125 58.59375 39.234375 62.25 
Q 35.15625 65.921875 28.609375 65.921875 
Q 23.96875 65.921875 18.8125 64.3125 
Q 13.671875 62.703125 7.8125 59.421875 
L 7.8125 69.390625 
Q 13.765625 71.78125 18.9375 73 
Q 24.125 74.21875 28.421875 74.21875 
Q 39.75 74.21875 46.484375 68.546875 
Q 53.21875 62.890625 53.21875 53.421875 
Q 53.21875 48.921875 51.53125 44.890625 
Q 49.859375 40.875 45.40625 35.40625 
Q 44.1875 33.984375 37.640625 27.21875 
Q 31.109375 20.453125 19.1875 8.296875 
z
" id="DejaVuSans-32"/>
       <path d="M 31.78125 66.40625 
Q 24.171875 66.40625 20.328125 58.90625 
Q 16.5 51.421875 16.5 36.375 
Q 16.5 21.390625 20.328125 13.890625 
Q 24.171875 6.390625 31.78125 6.390625 
Q 39.453125 6.390625 43.28125 13.890625 
Q 47.125 21.390625 47.125 36.375 
Q 47.125 51.421875 43.28125 58.90625 
Q 39.453125 66.40625 31.78125 66.40625 
z
M 31.78125 74.21875 
Q 44.046875 74.21875 50.515625 64.515625 
Q 56.984375 54.828125 56.984375 36.375 
Q 56.984375 17.96875 50.515625 8.265625 
Q 44.046875 -1.421875 31.78125 -1.421875 
Q 19.53125 -1.421875 13.0625 8.265625 
Q 6.59375 17.96875 6.59375 36.375 
Q 6.59375 54.828125 13.0625 64.515625 
Q 19.53125 74.21875 31.78125 74.21875 
z
" id="DejaVuSans-30"/>
      </defs>
      <g transform="translate(37.797142 324.461937)scale(0.1 -0.1)">
       <use xlink:href="#DejaVuSans-32"/>
       <use x="63.623047" xlink:href="#DejaVuSans-30"/>
       <use x="127.246094" xlink:href="#DejaVuSans-30"/>
       <use x="190.869141" xlink:href="#DejaVuSans-32"/>
      </g>
     </g>
    </g>
    <g id="xtick_2">
     <g id="line2d_3">
      <path clip-path="url(#p81983091de)" d="M 99.364083 309.8635 
L 99.364083 23.36505 
" style="fill:none;stroke:#b0b0b0;stroke-linecap:square;stroke-width:0.8;"/>
     </g>
     <g id="line2d_4">
      <g>
       <use style="stroke:#000000;stroke-width:0.8;" x="99.364083" xlink:href="#mf8439c3339" y="309.8635"/>
      </g>
     </g>
     <g id="text_2">
      <!-- 2004 -->
      <defs>
       <path d="M 37.796875 64.3125 
L 12.890625 25.390625 
L 37.796875 25.390625 
z
M 35.203125 72.90625 
L 47.609375 72.90625 
L 47.609375 25.390625 
L 58.015625 25.390625 
L 58.015625 17.1875 
L 47.609375 17.1875 
L 47.609375 0 
L 37.796875 0 
L 37.796875 17.1875 
L 4.890625 17.1875 
L 4.890625 26.703125 
z
" id="DejaVuSans-34"/>
      </defs>
      <g transform="translate(86.639083 324.461937)scale(0.1 -0.1)">
       <use xlink:href="#DejaVuSans-32"/>
       <use x="63.623047" xlink:href="#DejaVuSans-30"/>
       <use x="127.246094" xlink:href="#DejaVuSans-30"/>
       <use x="190.869141" xlink:href="#DejaVuSans-34"/>
      </g>
     </g>
    </g>
    <g id="xtick_3">
     <g id="line2d_5">
      <path clip-path="url(#p81983091de)" d="M 148.272931 309.8635 
L 148.272931 23.36505 
" style="fill:none;stroke:#b0b0b0;stroke-linecap:square;stroke-width:0.8;"/>
     </g>
     <g id="line2d_6">
      <g>
       <use style="stroke:#000000;stroke-width:0.8;" x="148.272931" xlink:href="#mf8439c3339" y="309.8635"/>
      </g>
     </g>
     <g id="text_3">
      <!-- 2006 -->
      <defs>
       <path d="M 33.015625 40.375 
Q 26.375 40.375 22.484375 35.828125 
Q 18.609375 31.296875 18.609375 23.390625 
Q 18.609375 15.53125 22.484375 10.953125 
Q 26.375 6.390625 33.015625 6.390625 
Q 39.65625 6.390625 43.53125 10.953125 
Q 47.40625 15.53125 47.40625 23.390625 
Q 47.40625 31.296875 43.53125 35.828125 
Q 39.65625 40.375 33.015625 40.375 
z
M 52.59375 71.296875 
L 52.59375 62.3125 
Q 48.875 64.0625 45.09375 64.984375 
Q 41.3125 65.921875 37.59375 65.921875 
Q 27.828125 65.921875 22.671875 59.328125 
Q 17.53125 52.734375 16.796875 39.40625 
Q 19.671875 43.65625 24.015625 45.921875 
Q 28.375 48.1875 33.59375 48.1875 
Q 44.578125 48.1875 50.953125 41.515625 
Q 57.328125 34.859375 57.328125 23.390625 
Q 57.328125 12.15625 50.6875 5.359375 
Q 44.046875 -1.421875 33.015625 -1.421875 
Q 20.359375 -1.421875 13.671875 8.265625 
Q 6.984375 17.96875 6.984375 36.375 
Q 6.984375 53.65625 15.1875 63.9375 
Q 23.390625 74.21875 37.203125 74.21875 
Q 40.921875 74.21875 44.703125 73.484375 
Q 48.484375 72.75 52.59375 71.296875 
z
" id="DejaVuSans-36"/>
      </defs>
      <g transform="translate(135.547931 324.461937)scale(0.1 -0.1)">
       <use xlink:href="#DejaVuSans-32"/>
       <use x="63.623047" xlink:href="#DejaVuSans-30"/>
       <use x="127.246094" xlink:href="#DejaVuSans-30"/>
       <use x="190.869141" xlink:href="#DejaVuSans-36"/>
      </g>
     </g>
    </g>
    <g id="xtick_4">
     <g id="line2d_7">
      <path clip-path="url(#p81983091de)" d="M 197.114872 309.8635 
L 197.114872 23.36505 
" style="fill:none;stroke:#b0b0b0;stroke-linecap:square;stroke-width:0.8;"/>
     </g>
     <g id="line2d_8">
      <g>
       <use style="stroke:#000000;stroke-width:0.8;" x="197.114872" xlink:href="#mf8439c3339" y="309.8635"/>
      </g>
     </g>
     <g id="text_4">
      <!-- 2008 -->
      <defs>
       <path d="M 31.78125 34.625 
Q 24.75 34.625 20.71875 30.859375 
Q 16.703125 27.09375 16.703125 20.515625 
Q 16.703125 13.921875 20.71875 10.15625 
Q 24.75 6.390625 31.78125 6.390625 
Q 38.8125 6.390625 42.859375 10.171875 
Q 46.921875 13.96875 46.921875 20.515625 
Q 46.921875 27.09375 42.890625 30.859375 
Q 38.875 34.625 31.78125 34.625 
z
M 21.921875 38.8125 
Q 15.578125 40.375 12.03125 44.71875 
Q 8.5 49.078125 8.5 55.328125 
Q 8.5 64.0625 14.71875 69.140625 
Q 20.953125 74.21875 31.78125 74.21875 
Q 42.671875 74.21875 48.875 69.140625 
Q 55.078125 64.0625 55.078125 55.328125 
Q 55.078125 49.078125 51.53125 44.71875 
Q 48 40.375 41.703125 38.8125 
Q 48.828125 37.15625 52.796875 32.3125 
Q 56.78125 27.484375 56.78125 20.515625 
Q 56.78125 9.90625 50.3125 4.234375 
Q 43.84375 -1.421875 31.78125 -1.421875 
Q 19.734375 -1.421875 13.25 4.234375 
Q 6.78125 9.90625 6.78125 20.515625 
Q 6.78125 27.484375 10.78125 32.3125 
Q 14.796875 37.15625 21.921875 38.8125 
z
M 18.3125 54.390625 
Q 18.3125 48.734375 21.84375 45.5625 
Q 25.390625 42.390625 31.78125 42.390625 
Q 38.140625 42.390625 41.71875 45.5625 
Q 45.3125 48.734375 45.3125 54.390625 
Q 45.3125 60.0625 41.71875 63.234375 
Q 38.140625 66.40625 31.78125 66.40625 
Q 25.390625 66.40625 21.84375 63.234375 
Q 18.3125 60.0625 18.3125 54.390625 
z
" id="DejaVuSans-38"/>
      </defs>
      <g transform="translate(184.389872 324.461937)scale(0.1 -0.1)">
       <use xlink:href="#DejaVuSans-32"/>
       <use x="63.623047" xlink:href="#DejaVuSans-30"/>
       <use x="127.246094" xlink:href="#DejaVuSans-30"/>
       <use x="190.869141" xlink:href="#DejaVuSans-38"/>
      </g>
     </g>
    </g>
    <g id="xtick_5">
     <g id="line2d_9">
      <path clip-path="url(#p81983091de)" d="M 246.02372 309.8635 
L 246.02372 23.36505 
" style="fill:none;stroke:#b0b0b0;stroke-linecap:square;stroke-width:0.8;"/>
     </g>
     <g id="line2d_10">
      <g>
       <use style="stroke:#000000;stroke-width:0.8;" x="246.02372" xlink:href="#mf8439c3339" y="309.8635"/>
      </g>
     </g>
     <g id="text_5">
      <!-- 2010 -->
      <defs>
       <path d="M 12.40625 8.296875 
L 28.515625 8.296875 
L 28.515625 63.921875 
L 10.984375 60.40625 
L 10.984375 69.390625 
L 28.421875 72.90625 
L 38.28125 72.90625 
L 38.28125 8.296875 
L 54.390625 8.296875 
L 54.390625 0 
L 12.40625 0 
z
" id="DejaVuSans-31"/>
      </defs>
      <g transform="translate(233.29872 324.461937)scale(0.1 -0.1)">
       <use xlink:href="#DejaVuSans-32"/>
       <use x="63.623047" xlink:href="#DejaVuSans-30"/>
       <use x="127.246094" xlink:href="#DejaVuSans-31"/>
       <use x="190.869141" xlink:href="#DejaVuSans-30"/>
      </g>
     </g>
    </g>
    <g id="xtick_6">
     <g id="line2d_11">
      <path clip-path="url(#p81983091de)" d="M 294.865661 309.8635 
L 294.865661 23.36505 
" style="fill:none;stroke:#b0b0b0;stroke-linecap:square;stroke-width:0.8;"/>
     </g>
     <g id="line2d_12">
      <g>
       <use style="stroke:#000000;stroke-width:0.8;" x="294.865661" xlink:href="#mf8439c3339" y="309.8635"/>
      </g>
     </g>
     <g id="text_6">
      <!-- 2012 -->
      <g transform="translate(282.140661 324.461937)scale(0.1 -0.1)">
       <use xlink:href="#DejaVuSans-32"/>
       <use x="63.623047" xlink:href="#DejaVuSans-30"/>
       <use x="127.246094" xlink:href="#DejaVuSans-31"/>
       <use x="190.869141" xlink:href="#DejaVuSans-32"/>
      </g>
     </g>
    </g>
    <g id="xtick_7">
     <g id="line2d_13">
      <path clip-path="url(#p81983091de)" d="M 343.774509 309.8635 
L 343.774509 23.36505 
" style="fill:none;stroke:#b0b0b0;stroke-linecap:square;stroke-width:0.8;"/>
     </g>
     <g id="line2d_14">
      <g>
       <use style="stroke:#000000;stroke-width:0.8;" x="343.774509" xlink:href="#mf8439c3339" y="309.8635"/>
      </g>
     </g>
     <g id="text_7">
      <!-- 2014 -->
      <g transform="translate(331.049509 324.461937)scale(0.1 -0.1)">
       <use xlink:href="#DejaVuSans-32"/>
       <use x="63.623047" xlink:href="#DejaVuSans-30"/>
       <use x="127.246094" xlink:href="#DejaVuSans-31"/>
       <use x="190.869141" xlink:href="#DejaVuSans-34"/>
      </g>
     </g>
    </g>
    <g id="xtick_8">
     <g id="line2d_15">
      <path clip-path="url(#p81983091de)" d="M 392.61645 309.8635 
L 392.61645 23.36505 
" style="fill:none;stroke:#b0b0b0;stroke-linecap:square;stroke-width:0.8;"/>
     </g>
     <g id="line2d_16">
      <g>
       <use style="stroke:#000000;stroke-width:0.8;" x="392.61645" xlink:href="#mf8439c3339" y="309.8635"/>
      </g>
     </g>
     <g id="text_8">
      <!-- 2016 -->
      <g transform="translate(379.89145 324.461937)scale(0.1 -0.1)">
       <use xlink:href="#DejaVuSans-32"/>
       <use x="63.623047" xlink:href="#DejaVuSans-30"/>
       <use x="127.246094" xlink:href="#DejaVuSans-31"/>
       <use x="190.869141" xlink:href="#DejaVuSans-36"/>
      </g>
     </g>
    </g>
    <g id="xtick_9">
     <g id="line2d_17">
      <path clip-path="url(#p81983091de)" d="M 441.525298 309.8635 
L 441.525298 23.36505 
" style="fill:none;stroke:#b0b0b0;stroke-linecap:square;stroke-width:0.8;"/>
     </g>
     <g id="line2d_18">
      <g>
       <use style="stroke:#000000;stroke-width:0.8;" x="441.525298" xlink:href="#mf8439c3339" y="309.8635"/>
      </g>
     </g>
     <g id="text_9">
      <!-- 2018 -->
      <g transform="translate(428.800298 324.461937)scale(0.1 -0.1)">
       <use xlink:href="#DejaVuSans-32"/>
       <use x="63.623047" xlink:href="#DejaVuSans-30"/>
       <use x="127.246094" xlink:href="#DejaVuSans-31"/>
       <use x="190.869141" xlink:href="#DejaVuSans-38"/>
      </g>
     </g>
    </g>
    <g id="text_10">
     <!-- Date -->
     <defs>
      <path d="M 19.671875 64.796875 
L 19.671875 8.109375 
L 31.59375 8.109375 
Q 46.6875 8.109375 53.6875 14.9375 
Q 60.6875 21.78125 60.6875 36.53125 
Q 60.6875 51.171875 53.6875 57.984375 
Q 46.6875 64.796875 31.59375 64.796875 
z
M 9.8125 72.90625 
L 30.078125 72.90625 
Q 51.265625 72.90625 61.171875 64.09375 
Q 71.09375 55.28125 71.09375 36.53125 
Q 71.09375 17.671875 61.125 8.828125 
Q 51.171875 0 30.078125 0 
L 9.8125 0 
z
" id="DejaVuSans-44"/>
      <path d="M 34.28125 27.484375 
Q 23.390625 27.484375 19.1875 25 
Q 14.984375 22.515625 14.984375 16.5 
Q 14.984375 11.71875 18.140625 8.90625 
Q 21.296875 6.109375 26.703125 6.109375 
Q 34.1875 6.109375 38.703125 11.40625 
Q 43.21875 16.703125 43.21875 25.484375 
L 43.21875 27.484375 
z
M 52.203125 31.203125 
L 52.203125 0 
L 43.21875 0 
L 43.21875 8.296875 
Q 40.140625 3.328125 35.546875 0.953125 
Q 30.953125 -1.421875 24.3125 -1.421875 
Q 15.921875 -1.421875 10.953125 3.296875 
Q 6 8.015625 6 15.921875 
Q 6 25.140625 12.171875 29.828125 
Q 18.359375 34.515625 30.609375 34.515625 
L 43.21875 34.515625 
L 43.21875 35.40625 
Q 43.21875 41.609375 39.140625 45 
Q 35.0625 48.390625 27.6875 48.390625 
Q 23 48.390625 18.546875 47.265625 
Q 14.109375 46.140625 10.015625 43.890625 
L 10.015625 52.203125 
Q 14.9375 54.109375 19.578125 55.046875 
Q 24.21875 56 28.609375 56 
Q 40.484375 56 46.34375 49.84375 
Q 52.203125 43.703125 52.203125 31.203125 
z
" id="DejaVuSans-61"/>
      <path d="M 18.3125 70.21875 
L 18.3125 54.6875 
L 36.8125 54.6875 
L 36.8125 47.703125 
L 18.3125 47.703125 
L 18.3125 18.015625 
Q 18.3125 11.328125 20.140625 9.421875 
Q 21.96875 7.515625 27.59375 7.515625 
L 36.8125 7.515625 
L 36.8125 0 
L 27.59375 0 
Q 17.1875 0 13.234375 3.875 
Q 9.28125 7.765625 9.28125 18.015625 
L 9.28125 47.703125 
L 2.6875 47.703125 
L 2.6875 54.6875 
L 9.28125 54.6875 
L 9.28125 70.21875 
z
" id="DejaVuSans-74"/>
      <path d="M 56.203125 29.59375 
L 56.203125 25.203125 
L 14.890625 25.203125 
Q 15.484375 15.921875 20.484375 11.0625 
Q 25.484375 6.203125 34.421875 6.203125 
Q 39.59375 6.203125 44.453125 7.46875 
Q 49.3125 8.734375 54.109375 11.28125 
L 54.109375 2.78125 
Q 49.265625 0.734375 44.1875 -0.34375 
Q 39.109375 -1.421875 33.890625 -1.421875 
Q 20.796875 -1.421875 13.15625 6.1875 
Q 5.515625 13.8125 5.515625 26.8125 
Q 5.515625 40.234375 12.765625 48.109375 
Q 20.015625 56 32.328125 56 
Q 43.359375 56 49.78125 48.890625 
Q 56.203125 41.796875 56.203125 29.59375 
z
M 47.21875 32.234375 
Q 47.125 39.59375 43.09375 43.984375 
Q 39.0625 48.390625 32.421875 48.390625 
Q 24.90625 48.390625 20.390625 44.140625 
Q 15.875 39.890625 15.1875 32.171875 
z
" id="DejaVuSans-65"/>
     </defs>
     <g transform="translate(231.898469 338.140062)scale(0.1 -0.1)">
      <use xlink:href="#DejaVuSans-44"/>
      <use x="77.001953" xlink:href="#DejaVuSans-61"/>
      <use x="138.28125" xlink:href="#DejaVuSans-74"/>
      <use x="177.490234" xlink:href="#DejaVuSans-65"/>
     </g>
    </g>
   </g>
   <g id="matplotlib.axis_2">
    <g id="ytick_1">
     <g id="line2d_19">
      <path clip-path="url(#p81983091de)" d="M 40.2185 296.840843 
L 447.48 296.840843 
" style="fill:none;stroke:#b0b0b0;stroke-linecap:square;stroke-width:0.8;"/>
     </g>
     <g id="line2d_20">
      <defs>
       <path d="M 0 0 
L -3.5 0 
" id="mdd973904fa" style="stroke:#000000;stroke-width:0.8;"/>
      </defs>
      <g>
       <use style="stroke:#000000;stroke-width:0.8;" x="40.2185" xlink:href="#mdd973904fa" y="296.840843"/>
      </g>
     </g>
     <g id="text_11">
      <!-- 0.0 -->
      <defs>
       <path d="M 10.6875 12.40625 
L 21 12.40625 
L 21 0 
L 10.6875 0 
z
" id="DejaVuSans-2e"/>
      </defs>
      <g transform="translate(17.315375 300.640062)scale(0.1 -0.1)">
       <use xlink:href="#DejaVuSans-30"/>
       <use x="63.623047" xlink:href="#DejaVuSans-2e"/>
       <use x="95.410156" xlink:href="#DejaVuSans-30"/>
      </g>
     </g>
    </g>
    <g id="ytick_2">
     <g id="line2d_21">
      <path clip-path="url(#p81983091de)" d="M 40.2185 259.342987 
L 447.48 259.342987 
" style="fill:none;stroke:#b0b0b0;stroke-linecap:square;stroke-width:0.8;"/>
     </g>
     <g id="line2d_22">
      <g>
       <use style="stroke:#000000;stroke-width:0.8;" x="40.2185" xlink:href="#mdd973904fa" y="259.342987"/>
      </g>
     </g>
     <g id="text_12">
      <!-- 0.5 -->
      <defs>
       <path d="M 10.796875 72.90625 
L 49.515625 72.90625 
L 49.515625 64.59375 
L 19.828125 64.59375 
L 19.828125 46.734375 
Q 21.96875 47.46875 24.109375 47.828125 
Q 26.265625 48.1875 28.421875 48.1875 
Q 40.625 48.1875 47.75 41.5 
Q 54.890625 34.8125 54.890625 23.390625 
Q 54.890625 11.625 47.5625 5.09375 
Q 40.234375 -1.421875 26.90625 -1.421875 
Q 22.3125 -1.421875 17.546875 -0.640625 
Q 12.796875 0.140625 7.71875 1.703125 
L 7.71875 11.625 
Q 12.109375 9.234375 16.796875 8.0625 
Q 21.484375 6.890625 26.703125 6.890625 
Q 35.15625 6.890625 40.078125 11.328125 
Q 45.015625 15.765625 45.015625 23.390625 
Q 45.015625 31 40.078125 35.4375 
Q 35.15625 39.890625 26.703125 39.890625 
Q 22.75 39.890625 18.8125 39.015625 
Q 14.890625 38.140625 10.796875 36.28125 
z
" id="DejaVuSans-35"/>
      </defs>
      <g transform="translate(17.315375 263.142206)scale(0.1 -0.1)">
       <use xlink:href="#DejaVuSans-30"/>
       <use x="63.623047" xlink:href="#DejaVuSans-2e"/>
       <use x="95.410156" xlink:href="#DejaVuSans-35"/>
      </g>
     </g>
    </g>
    <g id="ytick_3">
     <g id="line2d_23">
      <path clip-path="url(#p81983091de)" d="M 40.2185 221.845131 
L 447.48 221.845131 
" style="fill:none;stroke:#b0b0b0;stroke-linecap:square;stroke-width:0.8;"/>
     </g>
     <g id="line2d_24">
      <g>
       <use style="stroke:#000000;stroke-width:0.8;" x="40.2185" xlink:href="#mdd973904fa" y="221.845131"/>
      </g>
     </g>
     <g id="text_13">
      <!-- 1.0 -->
      <g transform="translate(17.315375 225.64435)scale(0.1 -0.1)">
       <use xlink:href="#DejaVuSans-31"/>
       <use x="63.623047" xlink:href="#DejaVuSans-2e"/>
       <use x="95.410156" xlink:href="#DejaVuSans-30"/>
      </g>
     </g>
    </g>
    <g id="ytick_4">
     <g id="line2d_25">
      <path clip-path="url(#p81983091de)" d="M 40.2185 184.347275 
L 447.48 184.347275 
" style="fill:none;stroke:#b0b0b0;stroke-linecap:square;stroke-width:0.8;"/>
     </g>
     <g id="line2d_26">
      <g>
       <use style="stroke:#000000;stroke-width:0.8;" x="40.2185" xlink:href="#mdd973904fa" y="184.347275"/>
      </g>
     </g>
     <g id="text_14">
      <!-- 1.5 -->
      <g transform="translate(17.315375 188.146494)scale(0.1 -0.1)">
       <use xlink:href="#DejaVuSans-31"/>
       <use x="63.623047" xlink:href="#DejaVuSans-2e"/>
       <use x="95.410156" xlink:href="#DejaVuSans-35"/>
      </g>
     </g>
    </g>
    <g id="ytick_5">
     <g id="line2d_27">
      <path clip-path="url(#p81983091de)" d="M 40.2185 146.849419 
L 447.48 146.849419 
" style="fill:none;stroke:#b0b0b0;stroke-linecap:square;stroke-width:0.8;"/>
     </g>
     <g id="line2d_28">
      <g>
       <use style="stroke:#000000;stroke-width:0.8;" x="40.2185" xlink:href="#mdd973904fa" y="146.849419"/>
      </g>
     </g>
     <g id="text_15">
      <!-- 2.0 -->
      <g transform="translate(17.315375 150.648638)scale(0.1 -0.1)">
       <use xlink:href="#DejaVuSans-32"/>
       <use x="63.623047" xlink:href="#DejaVuSans-2e"/>
       <use x="95.410156" xlink:href="#DejaVuSans-30"/>
      </g>
     </g>
    </g>
    <g id="ytick_6">
     <g id="line2d_29">
      <path clip-path="url(#p81983091de)" d="M 40.2185 109.351563 
L 447.48 109.351563 
" style="fill:none;stroke:#b0b0b0;stroke-linecap:square;stroke-width:0.8;"/>
     </g>
     <g id="line2d_30">
      <g>
       <use style="stroke:#000000;stroke-width:0.8;" x="40.2185" xlink:href="#mdd973904fa" y="109.351563"/>
      </g>
     </g>
     <g id="text_16">
      <!-- 2.5 -->
      <g transform="translate(17.315375 113.150782)scale(0.1 -0.1)">
       <use xlink:href="#DejaVuSans-32"/>
       <use x="63.623047" xlink:href="#DejaVuSans-2e"/>
       <use x="95.410156" xlink:href="#DejaVuSans-35"/>
      </g>
     </g>
    </g>
    <g id="ytick_7">
     <g id="line2d_31">
      <path clip-path="url(#p81983091de)" d="M 40.2185 71.853707 
L 447.48 71.853707 
" style="fill:none;stroke:#b0b0b0;stroke-linecap:square;stroke-width:0.8;"/>
     </g>
     <g id="line2d_32">
      <g>
       <use style="stroke:#000000;stroke-width:0.8;" x="40.2185" xlink:href="#mdd973904fa" y="71.853707"/>
      </g>
     </g>
     <g id="text_17">
      <!-- 3.0 -->
      <defs>
       <path d="M 40.578125 39.3125 
Q 47.65625 37.796875 51.625 33 
Q 55.609375 28.21875 55.609375 21.1875 
Q 55.609375 10.40625 48.1875 4.484375 
Q 40.765625 -1.421875 27.09375 -1.421875 
Q 22.515625 -1.421875 17.65625 -0.515625 
Q 12.796875 0.390625 7.625 2.203125 
L 7.625 11.71875 
Q 11.71875 9.328125 16.59375 8.109375 
Q 21.484375 6.890625 26.8125 6.890625 
Q 36.078125 6.890625 40.9375 10.546875 
Q 45.796875 14.203125 45.796875 21.1875 
Q 45.796875 27.640625 41.28125 31.265625 
Q 36.765625 34.90625 28.71875 34.90625 
L 20.21875 34.90625 
L 20.21875 43.015625 
L 29.109375 43.015625 
Q 36.375 43.015625 40.234375 45.921875 
Q 44.09375 48.828125 44.09375 54.296875 
Q 44.09375 59.90625 40.109375 62.90625 
Q 36.140625 65.921875 28.71875 65.921875 
Q 24.65625 65.921875 20.015625 65.03125 
Q 15.375 64.15625 9.8125 62.3125 
L 9.8125 71.09375 
Q 15.4375 72.65625 20.34375 73.4375 
Q 25.25 74.21875 29.59375 74.21875 
Q 40.828125 74.21875 47.359375 69.109375 
Q 53.90625 64.015625 53.90625 55.328125 
Q 53.90625 49.265625 50.4375 45.09375 
Q 46.96875 40.921875 40.578125 39.3125 
z
" id="DejaVuSans-33"/>
      </defs>
      <g transform="translate(17.315375 75.652926)scale(0.1 -0.1)">
       <use xlink:href="#DejaVuSans-33"/>
       <use x="63.623047" xlink:href="#DejaVuSans-2e"/>
       <use x="95.410156" xlink:href="#DejaVuSans-30"/>
      </g>
     </g>
    </g>
    <g id="ytick_8">
     <g id="line2d_33">
      <path clip-path="url(#p81983091de)" d="M 40.2185 34.355851 
L 447.48 34.355851 
" style="fill:none;stroke:#b0b0b0;stroke-linecap:square;stroke-width:0.8;"/>
     </g>
     <g id="line2d_34">
      <g>
       <use style="stroke:#000000;stroke-width:0.8;" x="40.2185" xlink:href="#mdd973904fa" y="34.355851"/>
      </g>
     </g>
     <g id="text_18">
      <!-- 3.5 -->
      <g transform="translate(17.315375 38.15507)scale(0.1 -0.1)">
       <use xlink:href="#DejaVuSans-33"/>
       <use x="63.623047" xlink:href="#DejaVuSans-2e"/>
       <use x="95.410156" xlink:href="#DejaVuSans-35"/>
      </g>
     </g>
    </g>
    <g id="text_19">
     <!-- Emissions / mean emissions -->
     <defs>
      <path d="M 9.8125 72.90625 
L 55.90625 72.90625 
L 55.90625 64.59375 
L 19.671875 64.59375 
L 19.671875 43.015625 
L 54.390625 43.015625 
L 54.390625 34.71875 
L 19.671875 34.71875 
L 19.671875 8.296875 
L 56.78125 8.296875 
L 56.78125 0 
L 9.8125 0 
z
" id="DejaVuSans-45"/>
      <path d="M 52 44.1875 
Q 55.375 50.25 60.0625 53.125 
Q 64.75 56 71.09375 56 
Q 79.640625 56 84.28125 50.015625 
Q 88.921875 44.046875 88.921875 33.015625 
L 88.921875 0 
L 79.890625 0 
L 79.890625 32.71875 
Q 79.890625 40.578125 77.09375 44.375 
Q 74.3125 48.1875 68.609375 48.1875 
Q 61.625 48.1875 57.5625 43.546875 
Q 53.515625 38.921875 53.515625 30.90625 
L 53.515625 0 
L 44.484375 0 
L 44.484375 32.71875 
Q 44.484375 40.625 41.703125 44.40625 
Q 38.921875 48.1875 33.109375 48.1875 
Q 26.21875 48.1875 22.15625 43.53125 
Q 18.109375 38.875 18.109375 30.90625 
L 18.109375 0 
L 9.078125 0 
L 9.078125 54.6875 
L 18.109375 54.6875 
L 18.109375 46.1875 
Q 21.1875 51.21875 25.484375 53.609375 
Q 29.78125 56 35.6875 56 
Q 41.65625 56 45.828125 52.96875 
Q 50 49.953125 52 44.1875 
z
" id="DejaVuSans-6d"/>
      <path d="M 9.421875 54.6875 
L 18.40625 54.6875 
L 18.40625 0 
L 9.421875 0 
z
M 9.421875 75.984375 
L 18.40625 75.984375 
L 18.40625 64.59375 
L 9.421875 64.59375 
z
" id="DejaVuSans-69"/>
      <path d="M 44.28125 53.078125 
L 44.28125 44.578125 
Q 40.484375 46.53125 36.375 47.5 
Q 32.28125 48.484375 27.875 48.484375 
Q 21.1875 48.484375 17.84375 46.4375 
Q 14.5 44.390625 14.5 40.28125 
Q 14.5 37.15625 16.890625 35.375 
Q 19.28125 33.59375 26.515625 31.984375 
L 29.59375 31.296875 
Q 39.15625 29.25 43.1875 25.515625 
Q 47.21875 21.78125 47.21875 15.09375 
Q 47.21875 7.46875 41.1875 3.015625 
Q 35.15625 -1.421875 24.609375 -1.421875 
Q 20.21875 -1.421875 15.453125 -0.5625 
Q 10.6875 0.296875 5.421875 2 
L 5.421875 11.28125 
Q 10.40625 8.6875 15.234375 7.390625 
Q 20.0625 6.109375 24.8125 6.109375 
Q 31.15625 6.109375 34.5625 8.28125 
Q 37.984375 10.453125 37.984375 14.40625 
Q 37.984375 18.0625 35.515625 20.015625 
Q 33.0625 21.96875 24.703125 23.78125 
L 21.578125 24.515625 
Q 13.234375 26.265625 9.515625 29.90625 
Q 5.8125 33.546875 5.8125 39.890625 
Q 5.8125 47.609375 11.28125 51.796875 
Q 16.75 56 26.8125 56 
Q 31.78125 56 36.171875 55.265625 
Q 40.578125 54.546875 44.28125 53.078125 
z
" id="DejaVuSans-73"/>
      <path d="M 30.609375 48.390625 
Q 23.390625 48.390625 19.1875 42.75 
Q 14.984375 37.109375 14.984375 27.296875 
Q 14.984375 17.484375 19.15625 11.84375 
Q 23.34375 6.203125 30.609375 6.203125 
Q 37.796875 6.203125 41.984375 11.859375 
Q 46.1875 17.53125 46.1875 27.296875 
Q 46.1875 37.015625 41.984375 42.703125 
Q 37.796875 48.390625 30.609375 48.390625 
z
M 30.609375 56 
Q 42.328125 56 49.015625 48.375 
Q 55.71875 40.765625 55.71875 27.296875 
Q 55.71875 13.875 49.015625 6.21875 
Q 42.328125 -1.421875 30.609375 -1.421875 
Q 18.84375 -1.421875 12.171875 6.21875 
Q 5.515625 13.875 5.515625 27.296875 
Q 5.515625 40.765625 12.171875 48.375 
Q 18.84375 56 30.609375 56 
z
" id="DejaVuSans-6f"/>
      <path d="M 54.890625 33.015625 
L 54.890625 0 
L 45.90625 0 
L 45.90625 32.71875 
Q 45.90625 40.484375 42.875 44.328125 
Q 39.84375 48.1875 33.796875 48.1875 
Q 26.515625 48.1875 22.3125 43.546875 
Q 18.109375 38.921875 18.109375 30.90625 
L 18.109375 0 
L 9.078125 0 
L 9.078125 54.6875 
L 18.109375 54.6875 
L 18.109375 46.1875 
Q 21.34375 51.125 25.703125 53.5625 
Q 30.078125 56 35.796875 56 
Q 45.21875 56 50.046875 50.171875 
Q 54.890625 44.34375 54.890625 33.015625 
z
" id="DejaVuSans-6e"/>
      <path id="DejaVuSans-20"/>
      <path d="M 25.390625 72.90625 
L 33.6875 72.90625 
L 8.296875 -9.28125 
L 0 -9.28125 
z
" id="DejaVuSans-2f"/>
     </defs>
     <g transform="translate(11.235688 236.862712)rotate(-90)scale(0.1 -0.1)">
      <use xlink:href="#DejaVuSans-45"/>
      <use x="63.183594" xlink:href="#DejaVuSans-6d"/>
      <use x="160.595703" xlink:href="#DejaVuSans-69"/>
      <use x="188.378906" xlink:href="#DejaVuSans-73"/>
      <use x="240.478516" xlink:href="#DejaVuSans-73"/>
      <use x="292.578125" xlink:href="#DejaVuSans-69"/>
      <use x="320.361328" xlink:href="#DejaVuSans-6f"/>
      <use x="381.542969" xlink:href="#DejaVuSans-6e"/>
      <use x="444.921875" xlink:href="#DejaVuSans-73"/>
      <use x="497.021484" xlink:href="#DejaVuSans-20"/>
      <use x="528.808594" xlink:href="#DejaVuSans-2f"/>
      <use x="562.5" xlink:href="#DejaVuSans-20"/>
      <use x="594.287109" xlink:href="#DejaVuSans-6d"/>
      <use x="691.699219" xlink:href="#DejaVuSans-65"/>
      <use x="753.222656" xlink:href="#DejaVuSans-61"/>
      <use x="814.501953" xlink:href="#DejaVuSans-6e"/>
      <use x="877.880859" xlink:href="#DejaVuSans-20"/>
      <use x="909.667969" xlink:href="#DejaVuSans-65"/>
      <use x="971.191406" xlink:href="#DejaVuSans-6d"/>
      <use x="1068.603516" xlink:href="#DejaVuSans-69"/>
      <use x="1096.386719" xlink:href="#DejaVuSans-73"/>
      <use x="1148.486328" xlink:href="#DejaVuSans-73"/>
      <use x="1200.585938" xlink:href="#DejaVuSans-69"/>
      <use x="1228.369141" xlink:href="#DejaVuSans-6f"/>
      <use x="1289.550781" xlink:href="#DejaVuSans-6e"/>
      <use x="1352.929688" xlink:href="#DejaVuSans-73"/>
     </g>
    </g>
   </g>
   <g id="line2d_35">
    <path clip-path="url(#p81983091de)" d="M 40.2185 296.398072 
L 42.29261 291.232006 
L 44.299813 277.787376 
L 46.373923 255.642581 
L 48.381126 260.373269 
L 50.455236 290.975126 
L 52.529345 274.227188 
L 54.402735 244.590777 
L 56.476845 262.429719 
L 58.484048 272.532693 
L 60.558158 280.853319 
L 62.565361 237.621956 
L 64.639471 239.062852 
L 66.71358 239.848471 
L 68.720783 246.488574 
L 70.794893 272.648555 
L 72.802096 266.77171 
L 74.876206 263.02951 
L 76.950316 293.819251 
L 78.823705 269.918417 
L 80.897815 296.500888 
L 82.905018 288.460526 
L 84.979128 270.317161 
L 86.986331 261.132785 
L 89.060441 232.569437 
L 91.134551 230.94708 
L 93.141754 245.606935 
L 95.215864 247.751024 
L 97.223067 289.05752 
L 99.297177 294.719774 
L 101.371286 282.432273 
L 103.311583 262.108129 
L 105.385693 285.740066 
L 107.392896 288.847559 
L 109.467005 260.592085 
L 111.474208 255.553126 
L 113.548318 232.736682 
L 115.622428 233.172508 
L 117.629631 268.99584 
L 119.703741 289.665204 
L 121.710944 296.840843 
L 123.785054 294.751667 
L 125.859164 294.632583 
L 127.732553 296.840843 
L 129.806663 295.261181 
L 131.813866 296.840843 
L 133.887976 296.840843 
L 135.895179 265.798579 
L 137.969289 224.398882 
L 140.043399 227.33907 
L 142.050602 276.341101 
L 144.124712 294.880717 
L 146.131915 290.89249 
L 148.206024 273.862221 
L 150.280134 296.840843 
L 154.227634 296.840843 
L 156.234837 296.470819 
L 158.308946 296.840843 
L 160.316149 293.618932 
L 162.390259 265.340651 
L 164.464369 205.802893 
L 166.471572 213.794325 
L 168.545682 217.443856 
L 170.552885 241.81846 
L 172.626995 247.849789 
L 174.701105 263.219324 
L 176.574494 280.455879 
L 178.648604 296.840843 
L 180.655807 294.049951 
L 184.73712 200.510478 
L 186.81123 197.955253 
L 188.88534 200.697268 
L 190.892543 200.173344 
L 192.966653 266.2287 
L 194.973856 281.145629 
L 197.047965 274.126108 
L 199.122075 279.990539 
L 201.062372 282.845645 
L 203.136481 289.151639 
L 205.143684 281.763819 
L 207.217794 290.822992 
L 209.224997 204.881795 
L 211.299107 196.481172 
L 213.373217 203.015739 
L 215.38042 199.6606 
L 217.45453 284.371823 
L 219.461733 295.719543 
L 221.535843 293.930618 
L 223.609953 294.658046 
L 225.483342 296.840843 
L 227.557452 296.840843 
L 229.564655 291.463771 
L 231.638765 288.543874 
L 233.645968 212.157623 
L 235.720078 192.282372 
L 237.794187 194.455717 
L 239.801391 195.441438 
L 241.8755 258.589971 
L 243.882703 272.404856 
L 245.956813 293.895575 
L 248.030923 296.840843 
L 249.904313 296.840843 
L 251.978422 296.684787 
L 253.985625 294.992983 
L 256.059735 293.063788 
L 258.066938 203.588539 
L 260.141048 192.69505 
L 262.215158 192.936562 
L 264.222361 200.75499 
L 266.296471 293.873391 
L 268.303674 296.838783 
L 270.377784 296.840843 
L 272.451894 295.821236 
L 274.325283 296.840843 
L 276.399393 296.840843 
L 278.406596 294.895644 
L 280.480706 296.522557 
L 282.487909 214.761942 
L 284.562019 204.12498 
L 286.636128 195.704169 
L 288.643332 207.312431 
L 290.717441 295.860716 
L 292.724644 296.840843 
L 298.81316 296.840843 
L 300.88727 294.844581 
L 302.894473 294.988532 
L 304.968583 271.133965 
L 306.975786 198.133994 
L 309.049896 194.178391 
L 313.131209 199.5513 
L 315.205319 272.715749 
L 317.212522 296.11548 
L 319.286632 296.840843 
L 321.360741 296.840843 
L 323.234131 296.003584 
L 325.308241 296.840843 
L 327.315444 286.878373 
L 329.389554 268.760647 
L 331.396757 194.391365 
L 333.470866 190.942807 
L 335.544976 193.548506 
L 337.552179 196.768514 
L 339.626289 247.615157 
L 341.633492 259.896006 
L 343.707602 236.002165 
L 345.781712 244.022515 
L 347.655101 246.215249 
L 349.729211 279.729481 
L 351.736414 292.346008 
L 353.810524 262.120435 
L 355.817727 200.913458 
L 357.891837 192.731573 
L 359.965947 196.049461 
L 361.97315 198.029146 
L 364.04726 245.273153 
L 366.054463 255.77033 
L 368.128573 257.267574 
L 370.202682 258.436358 
L 372.076072 296.778695 
L 374.150182 296.328757 
L 376.157385 293.330169 
L 378.231495 287.991471 
L 380.238698 191.434963 
L 382.312807 195.713171 
L 384.386917 191.049352 
L 386.39412 198.848461 
L 388.46823 249.622158 
L 390.475433 253.426071 
L 392.549543 251.565244 
L 394.623653 252.473934 
L 396.563949 296.307944 
L 398.638059 296.836021 
L 400.645262 295.292378 
L 402.719372 285.140402 
L 404.726575 197.583776 
L 406.800685 189.072637 
L 408.874795 189.580994 
L 410.881998 194.002605 
L 412.956107 250.602607 
L 414.96331 256.324402 
L 417.03742 255.965303 
L 419.11153 296.794933 
L 420.98492 296.27567 
L 423.059029 296.246067 
L 425.066233 293.767633 
L 427.140342 286.599566 
L 429.147545 197.083456 
L 431.221655 188.363278 
L 433.295765 189.469498 
L 435.302968 200.73818 
L 437.377078 223.276844 
L 439.384281 254.01682 
L 441.458391 281.068017 
L 443.532501 296.219832 
L 445.40589 296.840843 
L 447.48 285.069415 
L 447.48 285.069415 
" style="fill:none;stroke:#1f77b4;stroke-linecap:square;stroke-width:1.5;"/>
   </g>
   <g id="line2d_36">
    <path clip-path="url(#p81983091de)" d="M 40.2185 290.01941 
L 42.29261 210.544058 
L 44.299813 36.387707 
L 46.373923 256.967091 
L 48.381126 251.276656 
L 50.455236 287.331798 
L 52.529345 254.181841 
L 54.402735 239.6194 
L 56.476845 256.278252 
L 58.484048 259.072701 
L 60.558158 265.821484 
L 62.565361 192.952756 
L 64.639471 207.047813 
L 66.71358 206.163955 
L 68.720783 216.811652 
L 70.794893 254.907696 
L 72.802096 246.375108 
L 74.876206 243.479166 
L 76.950316 290.503008 
L 78.823705 258.732428 
L 80.897815 294.242525 
L 82.905018 274.892654 
L 86.986331 239.001507 
L 89.060441 219.774145 
L 91.134551 226.916091 
L 93.141754 248.173814 
L 95.215864 242.080342 
L 97.223067 287.032461 
L 99.297177 292.615128 
L 101.371286 278.527386 
L 103.311583 263.846429 
L 105.385693 281.834364 
L 107.392896 282.567898 
L 109.467005 249.291184 
L 111.474208 240.14158 
L 113.548318 229.025185 
L 115.622428 229.401988 
L 117.629631 264.584247 
L 119.703741 283.718881 
L 121.710944 296.840843 
L 123.785054 293.07718 
L 125.859164 293.015025 
L 127.732553 296.840843 
L 129.806663 290.667214 
L 131.813866 296.840843 
L 133.887976 296.840843 
L 135.895179 252.50401 
L 137.969289 215.362452 
L 140.043399 221.636132 
L 142.050602 269.002281 
L 144.124712 293.611725 
L 146.131915 284.412319 
L 148.206024 266.064508 
L 150.280134 296.840843 
L 154.227634 296.840843 
L 156.234837 294.444375 
L 158.308946 296.840843 
L 160.316149 283.707648 
L 162.390259 263.759586 
L 164.464369 228.762241 
L 166.471572 222.087222 
L 168.545682 221.722249 
L 170.552885 236.544738 
L 172.626995 232.616585 
L 174.701105 250.896487 
L 176.574494 277.804789 
L 178.648604 296.840843 
L 180.655807 289.465412 
L 182.729917 237.779002 
L 184.73712 213.884686 
L 186.81123 214.148651 
L 188.88534 216.537116 
L 190.892543 219.353939 
L 192.966653 259.899991 
L 194.973856 271.796508 
L 197.047965 266.010975 
L 199.122075 273.606448 
L 201.062372 277.32398 
L 203.136481 284.965721 
L 205.143684 279.23557 
L 207.217794 283.485492 
L 209.224997 221.419464 
L 211.299107 220.407623 
L 213.373217 220.520417 
L 215.38042 225.862046 
L 217.45453 280.727674 
L 219.461733 294.527103 
L 221.535843 292.254745 
L 223.609953 293.489012 
L 225.483342 296.840843 
L 227.557452 296.840843 
L 229.564655 286.320824 
L 231.638765 285.607368 
L 233.645968 244.611402 
L 235.720078 213.103935 
L 237.794187 209.53929 
L 239.801391 208.688718 
L 241.8755 248.642657 
L 243.882703 264.331359 
L 245.956813 293.095504 
L 248.030923 296.840843 
L 249.904313 296.840843 
L 251.978422 295.197179 
L 253.985625 292.946422 
L 256.059735 288.746537 
L 258.066938 230.420992 
L 260.141048 221.909353 
L 262.215158 221.19371 
L 264.222361 226.406836 
L 266.296471 291.400713 
L 268.303674 296.821169 
L 270.377784 296.840843 
L 272.451894 294.261275 
L 274.325283 296.840843 
L 276.399393 296.840843 
L 278.406596 291.867349 
L 280.480706 293.774328 
L 282.487909 229.951377 
L 284.562019 228.547889 
L 286.636128 218.682109 
L 288.643332 235.469522 
L 290.717441 295.657693 
L 292.724644 296.840843 
L 298.81316 296.840843 
L 300.88727 291.993901 
L 302.894473 293.377181 
L 306.975786 221.675284 
L 309.049896 215.00095 
L 313.131209 219.583845 
L 317.212522 295.739756 
L 319.286632 296.840843 
L 321.360741 296.840843 
L 323.234131 294.059714 
L 325.308241 296.840843 
L 327.315444 276.705102 
L 329.389554 237.022234 
L 331.396757 207.406666 
L 333.470866 219.430739 
L 337.552179 222.82777 
L 339.626289 234.034214 
L 341.633492 254.857379 
L 343.707602 234.877237 
L 345.781712 246.71976 
L 347.655101 253.64631 
L 349.729211 274.516975 
L 351.736414 288.737653 
L 353.810524 251.107253 
L 355.817727 222.745052 
L 357.891837 218.623315 
L 359.965947 222.210422 
L 361.97315 224.177481 
L 364.04726 250.793149 
L 366.054463 265.082976 
L 368.128573 266.977418 
L 370.202682 265.330561 
L 372.076072 296.746185 
L 374.150182 294.998987 
L 376.157385 291.692297 
L 378.231495 287.614475 
L 380.238698 216.953145 
L 382.312807 221.849149 
L 384.386917 216.49393 
L 386.39412 225.56246 
L 388.46823 260.149301 
L 390.475433 263.557422 
L 392.549543 259.879041 
L 394.623653 262.490735 
L 396.563949 295.905708 
L 398.638059 296.777082 
L 400.645262 292.876959 
L 402.719372 281.506414 
L 404.726575 220.292559 
L 406.800685 214.909195 
L 408.874795 215.973419 
L 410.881998 219.4729 
L 412.956107 255.124919 
L 414.96331 266.635523 
L 417.03742 264.672141 
L 419.11153 296.785771 
L 420.98492 295.42687 
L 423.059029 295.199034 
L 425.066233 289.315637 
L 427.140342 279.561068 
L 429.147545 217.733531 
L 431.221655 209.129903 
L 433.295765 210.624886 
L 435.302968 217.497042 
L 437.377078 238.269867 
L 439.384281 261.288358 
L 441.458391 283.584233 
L 443.532501 295.272281 
L 445.40589 296.840843 
L 447.48 279.762631 
L 447.48 279.762631 
" style="fill:none;stroke:#ff7f0e;stroke-linecap:square;stroke-width:1.5;"/>
   </g>
   <g id="line2d_37">
    <path clip-path="url(#p81983091de)" d="M 40.2185 296.397324 
L 42.29261 291.229798 
L 44.299813 277.783384 
L 46.373923 255.630633 
L 48.381126 260.362689 
L 50.455236 290.97316 
L 52.529345 274.221808 
L 54.402735 244.579474 
L 56.476845 262.421248 
L 58.484048 272.526156 
L 60.558158 280.84934 
L 62.565361 237.604599 
L 64.639471 239.046456 
L 66.71358 239.833641 
L 68.720783 246.474693 
L 70.794893 272.642194 
L 72.802096 266.764007 
L 74.876206 263.020659 
L 76.950316 293.818155 
L 78.823705 269.911683 
L 80.897815 296.500878 
L 82.905018 288.457956 
L 84.979128 270.310182 
L 86.986331 261.123928 
L 89.060441 232.552917 
L 91.134551 230.932799 
L 93.141754 245.594286 
L 95.215864 247.738631 
L 97.223067 289.055272 
L 99.297177 294.719301 
L 101.371286 282.428468 
L 103.311583 262.100367 
L 105.385693 285.736884 
L 107.392896 288.845268 
L 109.467005 260.582998 
L 111.474208 255.543903 
L 113.548318 232.721243 
L 115.622428 233.154276 
L 117.629631 268.989096 
L 119.703741 289.663365 
L 121.710944 296.840843 
L 123.785054 294.7512 
L 125.859164 294.631882 
L 127.732553 296.840843 
L 129.806663 295.260952 
L 131.813866 296.840843 
L 133.887976 296.840843 
L 135.895179 265.790483 
L 137.969289 224.37939 
L 140.043399 227.322566 
L 142.050602 276.335789 
L 144.124712 294.879981 
L 146.131915 290.890582 
L 148.206024 273.857883 
L 150.280134 296.840843 
L 154.227634 296.840843 
L 156.234837 296.470775 
L 158.308946 296.840843 
L 160.316149 293.617723 
L 162.390259 265.333239 
L 164.464369 205.7788 
L 166.471572 213.773226 
L 168.545682 217.42428 
L 170.552885 241.805437 
L 172.626995 247.837932 
L 174.701105 263.211698 
L 176.574494 280.450918 
L 178.648604 296.840843 
L 180.655807 294.049193 
L 184.73712 200.486857 
L 186.81123 197.932193 
L 188.88534 200.671529 
L 190.892543 200.148008 
L 192.966653 266.22421 
L 194.973856 281.142553 
L 197.047965 274.12041 
L 199.122075 279.986242 
L 201.062372 282.842054 
L 203.136481 289.149554 
L 205.143684 281.492751 
L 207.217794 290.773785 
L 209.224997 204.008975 
L 211.299107 196.773802 
L 213.373217 203.71271 
L 215.38042 200.196318 
L 217.45453 284.289645 
L 219.461733 295.687834 
L 221.535843 293.943567 
L 223.609953 294.65121 
L 225.483342 296.840843 
L 227.557452 296.840843 
L 229.564655 291.515209 
L 231.638765 288.670725 
L 233.645968 212.897903 
L 235.720078 192.514613 
L 237.794187 194.509079 
L 239.801391 195.448884 
L 241.8755 258.584146 
L 243.882703 272.399396 
L 245.956813 293.894994 
L 248.030923 296.840843 
L 249.904313 296.840843 
L 251.978422 296.684822 
L 253.985625 294.992358 
L 256.059735 293.063028 
L 258.066938 203.567287 
L 260.141048 192.673229 
L 262.215158 192.91474 
L 264.222361 200.734792 
L 266.296471 293.872849 
L 268.303674 296.838791 
L 270.377784 296.840843 
L 272.451894 295.820964 
L 274.325283 296.840843 
L 276.399393 296.840843 
L 278.406596 294.895275 
L 280.480706 296.52254 
L 282.487909 214.742809 
L 284.562019 204.106716 
L 286.636128 195.685045 
L 288.643332 207.295598 
L 290.717441 295.860784 
L 292.724644 296.840843 
L 298.81316 296.840843 
L 300.88727 294.844177 
L 302.894473 294.987893 
L 304.968583 271.128701 
L 306.975786 198.113429 
L 309.049896 194.155315 
L 313.131209 199.533043 
L 315.205319 272.710539 
L 317.212522 296.115458 
L 319.286632 296.840843 
L 321.360741 296.840843 
L 323.234131 296.003389 
L 325.308241 296.840843 
L 327.315444 286.876718 
L 329.389554 268.755364 
L 331.396757 194.368836 
L 333.470866 190.919755 
L 335.544976 193.527658 
L 337.552179 196.747667 
L 339.626289 247.608104 
L 341.633492 259.889391 
L 343.707602 235.989361 
L 345.781712 244.011372 
L 347.655101 246.207522 
L 349.729211 279.725931 
L 351.736414 292.345118 
L 353.810524 262.113608 
L 355.817727 200.890323 
L 357.891837 192.710489 
L 359.965947 196.030886 
L 361.97315 198.011237 
L 364.04726 245.265976 
L 366.054463 255.762753 
L 368.128573 257.25795 
L 370.202682 258.428135 
L 372.076072 296.778747 
L 374.150182 296.32865 
L 376.157385 293.329455 
L 378.231495 287.989595 
L 380.238698 191.41598 
L 382.312807 195.694277 
L 384.386917 191.024949 
L 386.39412 198.831456 
L 388.46823 249.612072 
L 390.475433 253.418414 
L 392.549543 251.557925 
L 394.623653 252.465856 
L 396.563949 296.308021 
L 398.638059 296.836035 
L 400.645262 295.29191 
L 402.719372 285.138412 
L 404.726575 197.561725 
L 406.800685 189.052006 
L 408.874795 189.559116 
L 410.881998 193.979187 
L 412.956107 250.595789 
L 414.96331 256.314853 
L 417.03742 255.957402 
L 419.11153 296.794967 
L 420.98492 296.275514 
L 423.059029 296.245894 
L 425.066233 293.767187 
L 427.140342 286.597761 
L 429.147545 197.061009 
L 431.221655 188.338801 
L 433.295765 189.445649 
L 435.302968 200.715748 
L 437.377078 223.260041 
L 439.384281 254.008874 
L 441.458391 281.066286 
L 443.532501 296.219809 
L 445.40589 296.840843 
L 447.48 285.066204 
L 447.48 285.066204 
" style="fill:none;stroke:#2ca02c;stroke-linecap:square;stroke-width:1.5;"/>
   </g>
   <g id="patch_3">
    <path d="M 40.2185 309.8635 
L 40.2185 23.36505 
" style="fill:none;stroke:#000000;stroke-linecap:square;stroke-linejoin:miter;stroke-width:0.8;"/>
   </g>
   <g id="patch_4">
    <path d="M 447.48 309.8635 
L 447.48 23.36505 
" style="fill:none;stroke:#000000;stroke-linecap:square;stroke-linejoin:miter;stroke-width:0.8;"/>
   </g>
   <g id="patch_5">
    <path d="M 40.2185 309.8635 
L 447.48 309.8635 
" style="fill:none;stroke:#000000;stroke-linecap:square;stroke-linejoin:miter;stroke-width:0.8;"/>
   </g>
   <g id="patch_6">
    <path d="M 40.2185 23.36505 
L 447.48 23.36505 
" style="fill:none;stroke:#000000;stroke-linecap:square;stroke-linejoin:miter;stroke-width:0.8;"/>
   </g>
   <g id="text_20">
    <!-- Average monthly normalized emissions -->
    <defs>
     <path d="M 34.1875 63.1875 
L 20.796875 26.90625 
L 47.609375 26.90625 
z
M 28.609375 72.90625 
L 39.796875 72.90625 
L 67.578125 0 
L 57.328125 0 
L 50.6875 18.703125 
L 17.828125 18.703125 
L 11.1875 0 
L 0.78125 0 
z
" id="DejaVuSans-41"/>
     <path d="M 2.984375 54.6875 
L 12.5 54.6875 
L 29.59375 8.796875 
L 46.6875 54.6875 
L 56.203125 54.6875 
L 35.6875 0 
L 23.484375 0 
z
" id="DejaVuSans-76"/>
     <path d="M 41.109375 46.296875 
Q 39.59375 47.171875 37.8125 47.578125 
Q 36.03125 48 33.890625 48 
Q 26.265625 48 22.1875 43.046875 
Q 18.109375 38.09375 18.109375 28.8125 
L 18.109375 0 
L 9.078125 0 
L 9.078125 54.6875 
L 18.109375 54.6875 
L 18.109375 46.1875 
Q 20.953125 51.171875 25.484375 53.578125 
Q 30.03125 56 36.53125 56 
Q 37.453125 56 38.578125 55.875 
Q 39.703125 55.765625 41.0625 55.515625 
z
" id="DejaVuSans-72"/>
     <path d="M 45.40625 27.984375 
Q 45.40625 37.75 41.375 43.109375 
Q 37.359375 48.484375 30.078125 48.484375 
Q 22.859375 48.484375 18.828125 43.109375 
Q 14.796875 37.75 14.796875 27.984375 
Q 14.796875 18.265625 18.828125 12.890625 
Q 22.859375 7.515625 30.078125 7.515625 
Q 37.359375 7.515625 41.375 12.890625 
Q 45.40625 18.265625 45.40625 27.984375 
z
M 54.390625 6.78125 
Q 54.390625 -7.171875 48.1875 -13.984375 
Q 42 -20.796875 29.203125 -20.796875 
Q 24.46875 -20.796875 20.265625 -20.09375 
Q 16.0625 -19.390625 12.109375 -17.921875 
L 12.109375 -9.1875 
Q 16.0625 -11.328125 19.921875 -12.34375 
Q 23.78125 -13.375 27.78125 -13.375 
Q 36.625 -13.375 41.015625 -8.765625 
Q 45.40625 -4.15625 45.40625 5.171875 
L 45.40625 9.625 
Q 42.625 4.78125 38.28125 2.390625 
Q 33.9375 0 27.875 0 
Q 17.828125 0 11.671875 7.65625 
Q 5.515625 15.328125 5.515625 27.984375 
Q 5.515625 40.671875 11.671875 48.328125 
Q 17.828125 56 27.875 56 
Q 33.9375 56 38.28125 53.609375 
Q 42.625 51.21875 45.40625 46.390625 
L 45.40625 54.6875 
L 54.390625 54.6875 
z
" id="DejaVuSans-67"/>
     <path d="M 54.890625 33.015625 
L 54.890625 0 
L 45.90625 0 
L 45.90625 32.71875 
Q 45.90625 40.484375 42.875 44.328125 
Q 39.84375 48.1875 33.796875 48.1875 
Q 26.515625 48.1875 22.3125 43.546875 
Q 18.109375 38.921875 18.109375 30.90625 
L 18.109375 0 
L 9.078125 0 
L 9.078125 75.984375 
L 18.109375 75.984375 
L 18.109375 46.1875 
Q 21.34375 51.125 25.703125 53.5625 
Q 30.078125 56 35.796875 56 
Q 45.21875 56 50.046875 50.171875 
Q 54.890625 44.34375 54.890625 33.015625 
z
" id="DejaVuSans-68"/>
     <path d="M 9.421875 75.984375 
L 18.40625 75.984375 
L 18.40625 0 
L 9.421875 0 
z
" id="DejaVuSans-6c"/>
     <path d="M 32.171875 -5.078125 
Q 28.375 -14.84375 24.75 -17.8125 
Q 21.140625 -20.796875 15.09375 -20.796875 
L 7.90625 -20.796875 
L 7.90625 -13.28125 
L 13.1875 -13.28125 
Q 16.890625 -13.28125 18.9375 -11.515625 
Q 21 -9.765625 23.484375 -3.21875 
L 25.09375 0.875 
L 2.984375 54.6875 
L 12.5 54.6875 
L 29.59375 11.921875 
L 46.6875 54.6875 
L 56.203125 54.6875 
z
" id="DejaVuSans-79"/>
     <path d="M 5.515625 54.6875 
L 48.1875 54.6875 
L 48.1875 46.484375 
L 14.40625 7.171875 
L 48.1875 7.171875 
L 48.1875 0 
L 4.296875 0 
L 4.296875 8.203125 
L 38.09375 47.515625 
L 5.515625 47.515625 
z
" id="DejaVuSans-7a"/>
     <path d="M 45.40625 46.390625 
L 45.40625 75.984375 
L 54.390625 75.984375 
L 54.390625 0 
L 45.40625 0 
L 45.40625 8.203125 
Q 42.578125 3.328125 38.25 0.953125 
Q 33.9375 -1.421875 27.875 -1.421875 
Q 17.96875 -1.421875 11.734375 6.484375 
Q 5.515625 14.40625 5.515625 27.296875 
Q 5.515625 40.1875 11.734375 48.09375 
Q 17.96875 56 27.875 56 
Q 33.9375 56 38.25 53.625 
Q 42.578125 51.265625 45.40625 46.390625 
z
M 14.796875 27.296875 
Q 14.796875 17.390625 18.875 11.75 
Q 22.953125 6.109375 30.078125 6.109375 
Q 37.203125 6.109375 41.296875 11.75 
Q 45.40625 17.390625 45.40625 27.296875 
Q 45.40625 37.203125 41.296875 42.84375 
Q 37.203125 48.484375 30.078125 48.484375 
Q 22.953125 48.484375 18.875 42.84375 
Q 14.796875 37.203125 14.796875 27.296875 
z
" id="DejaVuSans-64"/>
    </defs>
    <g transform="translate(125.2855 17.36505)scale(0.12 -0.12)">
     <use xlink:href="#DejaVuSans-41"/>
     <use x="68.330078" xlink:href="#DejaVuSans-76"/>
     <use x="127.509766" xlink:href="#DejaVuSans-65"/>
     <use x="189.033203" xlink:href="#DejaVuSans-72"/>
     <use x="230.146484" xlink:href="#DejaVuSans-61"/>
     <use x="291.425781" xlink:href="#DejaVuSans-67"/>
     <use x="354.902344" xlink:href="#DejaVuSans-65"/>
     <use x="416.425781" xlink:href="#DejaVuSans-20"/>
     <use x="448.212891" xlink:href="#DejaVuSans-6d"/>
     <use x="545.625" xlink:href="#DejaVuSans-6f"/>
     <use x="606.806641" xlink:href="#DejaVuSans-6e"/>
     <use x="670.185547" xlink:href="#DejaVuSans-74"/>
     <use x="709.394531" xlink:href="#DejaVuSans-68"/>
     <use x="772.773438" xlink:href="#DejaVuSans-6c"/>
     <use x="800.556641" xlink:href="#DejaVuSans-79"/>
     <use x="859.736328" xlink:href="#DejaVuSans-20"/>
     <use x="891.523438" xlink:href="#DejaVuSans-6e"/>
     <use x="954.902344" xlink:href="#DejaVuSans-6f"/>
     <use x="1016.083984" xlink:href="#DejaVuSans-72"/>
     <use x="1057.181641" xlink:href="#DejaVuSans-6d"/>
     <use x="1154.59375" xlink:href="#DejaVuSans-61"/>
     <use x="1215.873047" xlink:href="#DejaVuSans-6c"/>
     <use x="1243.65625" xlink:href="#DejaVuSans-69"/>
     <use x="1271.439453" xlink:href="#DejaVuSans-7a"/>
     <use x="1323.929688" xlink:href="#DejaVuSans-65"/>
     <use x="1385.453125" xlink:href="#DejaVuSans-64"/>
     <use x="1448.929688" xlink:href="#DejaVuSans-20"/>
     <use x="1480.716797" xlink:href="#DejaVuSans-65"/>
     <use x="1542.240234" xlink:href="#DejaVuSans-6d"/>
     <use x="1639.652344" xlink:href="#DejaVuSans-69"/>
     <use x="1667.435547" xlink:href="#DejaVuSans-73"/>
     <use x="1719.535156" xlink:href="#DejaVuSans-73"/>
     <use x="1771.634766" xlink:href="#DejaVuSans-69"/>
     <use x="1799.417969" xlink:href="#DejaVuSans-6f"/>
     <use x="1860.599609" xlink:href="#DejaVuSans-6e"/>
     <use x="1923.978516" xlink:href="#DejaVuSans-73"/>
    </g>
   </g>
   <g id="legend_1">
    <g id="patch_7">
     <path d="M 387.208125 75.399425 
L 440.48 75.399425 
Q 442.48 75.399425 442.48 73.399425 
L 442.48 30.36505 
Q 442.48 28.36505 440.48 28.36505 
L 387.208125 28.36505 
Q 385.208125 28.36505 385.208125 30.36505 
L 385.208125 73.399425 
Q 385.208125 75.399425 387.208125 75.399425 
z
" style="fill:#ffffff;opacity:0.8;stroke:#cccccc;stroke-linejoin:miter;"/>
    </g>
    <g id="line2d_38">
     <path d="M 389.208125 36.463487 
L 409.208125 36.463487 
" style="fill:none;stroke:#1f77b4;stroke-linecap:square;stroke-width:1.5;"/>
    </g>
    <g id="line2d_39"/>
    <g id="text_21">
     <!-- SOx -->
     <defs>
      <path d="M 53.515625 70.515625 
L 53.515625 60.890625 
Q 47.90625 63.578125 42.921875 64.890625 
Q 37.9375 66.21875 33.296875 66.21875 
Q 25.25 66.21875 20.875 63.09375 
Q 16.5 59.96875 16.5 54.203125 
Q 16.5 49.359375 19.40625 46.890625 
Q 22.3125 44.4375 30.421875 42.921875 
L 36.375 41.703125 
Q 47.40625 39.59375 52.65625 34.296875 
Q 57.90625 29 57.90625 20.125 
Q 57.90625 9.515625 50.796875 4.046875 
Q 43.703125 -1.421875 29.984375 -1.421875 
Q 24.8125 -1.421875 18.96875 -0.25 
Q 13.140625 0.921875 6.890625 3.21875 
L 6.890625 13.375 
Q 12.890625 10.015625 18.65625 8.296875 
Q 24.421875 6.59375 29.984375 6.59375 
Q 38.421875 6.59375 43.015625 9.90625 
Q 47.609375 13.234375 47.609375 19.390625 
Q 47.609375 24.75 44.3125 27.78125 
Q 41.015625 30.8125 33.5 32.328125 
L 27.484375 33.5 
Q 16.453125 35.6875 11.515625 40.375 
Q 6.59375 45.0625 6.59375 53.421875 
Q 6.59375 63.09375 13.40625 68.65625 
Q 20.21875 74.21875 32.171875 74.21875 
Q 37.3125 74.21875 42.625 73.28125 
Q 47.953125 72.359375 53.515625 70.515625 
z
" id="DejaVuSans-53"/>
      <path d="M 39.40625 66.21875 
Q 28.65625 66.21875 22.328125 58.203125 
Q 16.015625 50.203125 16.015625 36.375 
Q 16.015625 22.609375 22.328125 14.59375 
Q 28.65625 6.59375 39.40625 6.59375 
Q 50.140625 6.59375 56.421875 14.59375 
Q 62.703125 22.609375 62.703125 36.375 
Q 62.703125 50.203125 56.421875 58.203125 
Q 50.140625 66.21875 39.40625 66.21875 
z
M 39.40625 74.21875 
Q 54.734375 74.21875 63.90625 63.9375 
Q 73.09375 53.65625 73.09375 36.375 
Q 73.09375 19.140625 63.90625 8.859375 
Q 54.734375 -1.421875 39.40625 -1.421875 
Q 24.03125 -1.421875 14.8125 8.828125 
Q 5.609375 19.09375 5.609375 36.375 
Q 5.609375 53.65625 14.8125 63.9375 
Q 24.03125 74.21875 39.40625 74.21875 
z
" id="DejaVuSans-4f"/>
      <path d="M 54.890625 54.6875 
L 35.109375 28.078125 
L 55.90625 0 
L 45.3125 0 
L 29.390625 21.484375 
L 13.484375 0 
L 2.875 0 
L 24.125 28.609375 
L 4.6875 54.6875 
L 15.28125 54.6875 
L 29.78125 35.203125 
L 44.28125 54.6875 
z
" id="DejaVuSans-78"/>
     </defs>
     <g transform="translate(417.208125 39.963487)scale(0.1 -0.1)">
      <use xlink:href="#DejaVuSans-53"/>
      <use x="63.476562" xlink:href="#DejaVuSans-4f"/>
      <use x="142.1875" xlink:href="#DejaVuSans-78"/>
     </g>
    </g>
    <g id="line2d_40">
     <path d="M 389.208125 51.141613 
L 409.208125 51.141613 
" style="fill:none;stroke:#ff7f0e;stroke-linecap:square;stroke-width:1.5;"/>
    </g>
    <g id="line2d_41"/>
    <g id="text_22">
     <!-- NOx -->
     <defs>
      <path d="M 9.8125 72.90625 
L 23.09375 72.90625 
L 55.421875 11.921875 
L 55.421875 72.90625 
L 64.984375 72.90625 
L 64.984375 0 
L 51.703125 0 
L 19.390625 60.984375 
L 19.390625 0 
L 9.8125 0 
z
" id="DejaVuSans-4e"/>
     </defs>
     <g transform="translate(417.208125 54.641613)scale(0.1 -0.1)">
      <use xlink:href="#DejaVuSans-4e"/>
      <use x="74.804688" xlink:href="#DejaVuSans-4f"/>
      <use x="153.515625" xlink:href="#DejaVuSans-78"/>
     </g>
    </g>
    <g id="line2d_42">
     <path d="M 389.208125 65.819737 
L 409.208125 65.819737 
" style="fill:none;stroke:#2ca02c;stroke-linecap:square;stroke-width:1.5;"/>
    </g>
    <g id="line2d_43"/>
    <g id="text_23">
     <!-- CO2 -->
     <defs>
      <path d="M 64.40625 67.28125 
L 64.40625 56.890625 
Q 59.421875 61.53125 53.78125 63.8125 
Q 48.140625 66.109375 41.796875 66.109375 
Q 29.296875 66.109375 22.65625 58.46875 
Q 16.015625 50.828125 16.015625 36.375 
Q 16.015625 21.96875 22.65625 14.328125 
Q 29.296875 6.6875 41.796875 6.6875 
Q 48.140625 6.6875 53.78125 8.984375 
Q 59.421875 11.28125 64.40625 15.921875 
L 64.40625 5.609375 
Q 59.234375 2.09375 53.4375 0.328125 
Q 47.65625 -1.421875 41.21875 -1.421875 
Q 24.65625 -1.421875 15.125 8.703125 
Q 5.609375 18.84375 5.609375 36.375 
Q 5.609375 53.953125 15.125 64.078125 
Q 24.65625 74.21875 41.21875 74.21875 
Q 47.75 74.21875 53.53125 72.484375 
Q 59.328125 70.75 64.40625 67.28125 
z
" id="DejaVuSans-43"/>
     </defs>
     <g transform="translate(417.208125 69.319737)scale(0.1 -0.1)">
      <use xlink:href="#DejaVuSans-43"/>
      <use x="69.824219" xlink:href="#DejaVuSans-4f"/>
      <use x="148.535156" xlink:href="#DejaVuSans-32"/>
     </g>
    </g>
   </g>
  </g>
 </g>
 <defs>
  <clipPath id="p81983091de">
   <rect height="286.49845" width="407.2615" x="40.2185" y="23.36505"/>
  </clipPath>
 </defs>
</svg>
