<?xml version="1.0" encoding="utf-8" standalone="no"?>
<!DOCTYPE svg PUBLIC "-//W3C//DTD SVG 1.1//EN"
  "http://www.w3.org/Graphics/SVG/1.1/DTD/svg11.dtd">
<!-- Created with matplotlib (http://matplotlib.org/) -->
<svg height="345.6pt" version="1.1" viewBox="0 0 460.8 345.6" width="460.8pt" xmlns="http://www.w3.org/2000/svg" xmlns:xlink="http://www.w3.org/1999/xlink">
 <defs>
  <style type="text/css">
*{stroke-linecap:butt;stroke-linejoin:round;}
  </style>
 </defs>
 <g id="figure_1">
  <g id="patch_1">
   <path d="M 0 345.6 
L 460.8 345.6 
L 460.8 0 
L 0 0 
z
" style="fill:none;"/>
  </g>
  <g id="axes_1">
   <g id="patch_2">
    <path d="M 40.2185 309.8635 
L 447.48 309.8635 
L 447.48 23.36505 
L 40.2185 23.36505 
z
" style="fill:none;"/>
   </g>
   <g id="matplotlib.axis_1">
    <g id="xtick_1">
     <g id="line2d_1">
      <path clip-path="url(#p20bc7af3e7)" d="M 83.018083 309.8635 
L 83.018083 23.36505 
" style="fill:none;stroke:#b0b0b0;stroke-linecap:square;stroke-width:0.8;"/>
     </g>
     <g id="line2d_2">
      <defs>
       <path d="M 0 0 
L 0 3.5 
" id="m4580c94249" style="stroke:#000000;stroke-width:0.8;"/>
      </defs>
      <g>
       <use style="stroke:#000000;stroke-width:0.8;" x="83.018083" xlink:href="#m4580c94249" y="309.8635"/>
      </g>
     </g>
     <g id="text_1">
      <!-- 2004 -->
      <defs>
       <path d="M 19.1875 8.296875 
L 53.609375 8.296875 
L 53.609375 0 
L 7.328125 0 
L 7.328125 8.296875 
Q 12.9375 14.109375 22.625 23.890625 
Q 32.328125 33.6875 34.8125 36.53125 
Q 39.546875 41.84375 41.421875 45.53125 
Q 43.3125 49.21875 43.3125 52.78125 
Q 43.3125 58.59375 39.234375 62.25 
Q 35.15625 65.921875 28.609375 65.921875 
Q 23.96875 65.921875 18.8125 64.3125 
Q 13.671875 62.703125 7.8125 59.421875 
L 7.8125 69.390625 
Q 13.765625 71.78125 18.9375 73 
Q 24.125 74.21875 28.421875 74.21875 
Q 39.75 74.21875 46.484375 68.546875 
Q 53.21875 62.890625 53.21875 53.421875 
Q 53.21875 48.921875 51.53125 44.890625 
Q 49.859375 40.875 45.40625 35.40625 
Q 44.1875 33.984375 37.640625 27.21875 
Q 31.109375 20.453125 19.1875 8.296875 
z
" id="DejaVuSans-32"/>
       <path d="M 31.78125 66.40625 
Q 24.171875 66.40625 20.328125 58.90625 
Q 16.5 51.421875 16.5 36.375 
Q 16.5 21.390625 20.328125 13.890625 
Q 24.171875 6.390625 31.78125 6.390625 
Q 39.453125 6.390625 43.28125 13.890625 
Q 47.125 21.390625 47.125 36.375 
Q 47.125 51.421875 43.28125 58.90625 
Q 39.453125 66.40625 31.78125 66.40625 
z
M 31.78125 74.21875 
Q 44.046875 74.21875 50.515625 64.515625 
Q 56.984375 54.828125 56.984375 36.375 
Q 56.984375 17.96875 50.515625 8.265625 
Q 44.046875 -1.421875 31.78125 -1.421875 
Q 19.53125 -1.421875 13.0625 8.265625 
Q 6.59375 17.96875 6.59375 36.375 
Q 6.59375 54.828125 13.0625 64.515625 
Q 19.53125 74.21875 31.78125 74.21875 
z
" id="DejaVuSans-30"/>
       <path d="M 37.796875 64.3125 
L 12.890625 25.390625 
L 37.796875 25.390625 
z
M 35.203125 72.90625 
L 47.609375 72.90625 
L 47.609375 25.390625 
L 58.015625 25.390625 
L 58.015625 17.1875 
L 47.609375 17.1875 
L 47.609375 0 
L 37.796875 0 
L 37.796875 17.1875 
L 4.890625 17.1875 
L 4.890625 26.703125 
z
" id="DejaVuSans-34"/>
      </defs>
      <g transform="translate(70.293083 324.461937)scale(0.1 -0.1)">
       <use xlink:href="#DejaVuSans-32"/>
       <use x="63.623047" xlink:href="#DejaVuSans-30"/>
       <use x="127.246094" xlink:href="#DejaVuSans-30"/>
       <use x="190.869141" xlink:href="#DejaVuSans-34"/>
      </g>
     </g>
    </g>
    <g id="xtick_2">
     <g id="line2d_3">
      <path clip-path="url(#p20bc7af3e7)" d="M 134.223476 309.8635 
L 134.223476 23.36505 
" style="fill:none;stroke:#b0b0b0;stroke-linecap:square;stroke-width:0.8;"/>
     </g>
     <g id="line2d_4">
      <g>
       <use style="stroke:#000000;stroke-width:0.8;" x="134.223476" xlink:href="#m4580c94249" y="309.8635"/>
      </g>
     </g>
     <g id="text_2">
      <!-- 2006 -->
      <defs>
       <path d="M 33.015625 40.375 
Q 26.375 40.375 22.484375 35.828125 
Q 18.609375 31.296875 18.609375 23.390625 
Q 18.609375 15.53125 22.484375 10.953125 
Q 26.375 6.390625 33.015625 6.390625 
Q 39.65625 6.390625 43.53125 10.953125 
Q 47.40625 15.53125 47.40625 23.390625 
Q 47.40625 31.296875 43.53125 35.828125 
Q 39.65625 40.375 33.015625 40.375 
z
M 52.59375 71.296875 
L 52.59375 62.3125 
Q 48.875 64.0625 45.09375 64.984375 
Q 41.3125 65.921875 37.59375 65.921875 
Q 27.828125 65.921875 22.671875 59.328125 
Q 17.53125 52.734375 16.796875 39.40625 
Q 19.671875 43.65625 24.015625 45.921875 
Q 28.375 48.1875 33.59375 48.1875 
Q 44.578125 48.1875 50.953125 41.515625 
Q 57.328125 34.859375 57.328125 23.390625 
Q 57.328125 12.15625 50.6875 5.359375 
Q 44.046875 -1.421875 33.015625 -1.421875 
Q 20.359375 -1.421875 13.671875 8.265625 
Q 6.984375 17.96875 6.984375 36.375 
Q 6.984375 53.65625 15.1875 63.9375 
Q 23.390625 74.21875 37.203125 74.21875 
Q 40.921875 74.21875 44.703125 73.484375 
Q 48.484375 72.75 52.59375 71.296875 
z
" id="DejaVuSans-36"/>
      </defs>
      <g transform="translate(121.498476 324.461937)scale(0.1 -0.1)">
       <use xlink:href="#DejaVuSans-32"/>
       <use x="63.623047" xlink:href="#DejaVuSans-30"/>
       <use x="127.246094" xlink:href="#DejaVuSans-30"/>
       <use x="190.869141" xlink:href="#DejaVuSans-36"/>
      </g>
     </g>
    </g>
    <g id="xtick_3">
     <g id="line2d_5">
      <path clip-path="url(#p20bc7af3e7)" d="M 185.358821 309.8635 
L 185.358821 23.36505 
" style="fill:none;stroke:#b0b0b0;stroke-linecap:square;stroke-width:0.8;"/>
     </g>
     <g id="line2d_6">
      <g>
       <use style="stroke:#000000;stroke-width:0.8;" x="185.358821" xlink:href="#m4580c94249" y="309.8635"/>
      </g>
     </g>
     <g id="text_3">
      <!-- 2008 -->
      <defs>
       <path d="M 31.78125 34.625 
Q 24.75 34.625 20.71875 30.859375 
Q 16.703125 27.09375 16.703125 20.515625 
Q 16.703125 13.921875 20.71875 10.15625 
Q 24.75 6.390625 31.78125 6.390625 
Q 38.8125 6.390625 42.859375 10.171875 
Q 46.921875 13.96875 46.921875 20.515625 
Q 46.921875 27.09375 42.890625 30.859375 
Q 38.875 34.625 31.78125 34.625 
z
M 21.921875 38.8125 
Q 15.578125 40.375 12.03125 44.71875 
Q 8.5 49.078125 8.5 55.328125 
Q 8.5 64.0625 14.71875 69.140625 
Q 20.953125 74.21875 31.78125 74.21875 
Q 42.671875 74.21875 48.875 69.140625 
Q 55.078125 64.0625 55.078125 55.328125 
Q 55.078125 49.078125 51.53125 44.71875 
Q 48 40.375 41.703125 38.8125 
Q 48.828125 37.15625 52.796875 32.3125 
Q 56.78125 27.484375 56.78125 20.515625 
Q 56.78125 9.90625 50.3125 4.234375 
Q 43.84375 -1.421875 31.78125 -1.421875 
Q 19.734375 -1.421875 13.25 4.234375 
Q 6.78125 9.90625 6.78125 20.515625 
Q 6.78125 27.484375 10.78125 32.3125 
Q 14.796875 37.15625 21.921875 38.8125 
z
M 18.3125 54.390625 
Q 18.3125 48.734375 21.84375 45.5625 
Q 25.390625 42.390625 31.78125 42.390625 
Q 38.140625 42.390625 41.71875 45.5625 
Q 45.3125 48.734375 45.3125 54.390625 
Q 45.3125 60.0625 41.71875 63.234375 
Q 38.140625 66.40625 31.78125 66.40625 
Q 25.390625 66.40625 21.84375 63.234375 
Q 18.3125 60.0625 18.3125 54.390625 
z
" id="DejaVuSans-38"/>
      </defs>
      <g transform="translate(172.633821 324.461937)scale(0.1 -0.1)">
       <use xlink:href="#DejaVuSans-32"/>
       <use x="63.623047" xlink:href="#DejaVuSans-30"/>
       <use x="127.246094" xlink:href="#DejaVuSans-30"/>
       <use x="190.869141" xlink:href="#DejaVuSans-38"/>
      </g>
     </g>
    </g>
    <g id="xtick_4">
     <g id="line2d_7">
      <path clip-path="url(#p20bc7af3e7)" d="M 236.564215 309.8635 
L 236.564215 23.36505 
" style="fill:none;stroke:#b0b0b0;stroke-linecap:square;stroke-width:0.8;"/>
     </g>
     <g id="line2d_8">
      <g>
       <use style="stroke:#000000;stroke-width:0.8;" x="236.564215" xlink:href="#m4580c94249" y="309.8635"/>
      </g>
     </g>
     <g id="text_4">
      <!-- 2010 -->
      <defs>
       <path d="M 12.40625 8.296875 
L 28.515625 8.296875 
L 28.515625 63.921875 
L 10.984375 60.40625 
L 10.984375 69.390625 
L 28.421875 72.90625 
L 38.28125 72.90625 
L 38.28125 8.296875 
L 54.390625 8.296875 
L 54.390625 0 
L 12.40625 0 
z
" id="DejaVuSans-31"/>
      </defs>
      <g transform="translate(223.839215 324.461937)scale(0.1 -0.1)">
       <use xlink:href="#DejaVuSans-32"/>
       <use x="63.623047" xlink:href="#DejaVuSans-30"/>
       <use x="127.246094" xlink:href="#DejaVuSans-31"/>
       <use x="190.869141" xlink:href="#DejaVuSans-30"/>
      </g>
     </g>
    </g>
    <g id="xtick_5">
     <g id="line2d_9">
      <path clip-path="url(#p20bc7af3e7)" d="M 287.699559 309.8635 
L 287.699559 23.36505 
" style="fill:none;stroke:#b0b0b0;stroke-linecap:square;stroke-width:0.8;"/>
     </g>
     <g id="line2d_10">
      <g>
       <use style="stroke:#000000;stroke-width:0.8;" x="287.699559" xlink:href="#m4580c94249" y="309.8635"/>
      </g>
     </g>
     <g id="text_5">
      <!-- 2012 -->
      <g transform="translate(274.974559 324.461937)scale(0.1 -0.1)">
       <use xlink:href="#DejaVuSans-32"/>
       <use x="63.623047" xlink:href="#DejaVuSans-30"/>
       <use x="127.246094" xlink:href="#DejaVuSans-31"/>
       <use x="190.869141" xlink:href="#DejaVuSans-32"/>
      </g>
     </g>
    </g>
    <g id="xtick_6">
     <g id="line2d_11">
      <path clip-path="url(#p20bc7af3e7)" d="M 338.904953 309.8635 
L 338.904953 23.36505 
" style="fill:none;stroke:#b0b0b0;stroke-linecap:square;stroke-width:0.8;"/>
     </g>
     <g id="line2d_12">
      <g>
       <use style="stroke:#000000;stroke-width:0.8;" x="338.904953" xlink:href="#m4580c94249" y="309.8635"/>
      </g>
     </g>
     <g id="text_6">
      <!-- 2014 -->
      <g transform="translate(326.179953 324.461937)scale(0.1 -0.1)">
       <use xlink:href="#DejaVuSans-32"/>
       <use x="63.623047" xlink:href="#DejaVuSans-30"/>
       <use x="127.246094" xlink:href="#DejaVuSans-31"/>
       <use x="190.869141" xlink:href="#DejaVuSans-34"/>
      </g>
     </g>
    </g>
    <g id="xtick_7">
     <g id="line2d_13">
      <path clip-path="url(#p20bc7af3e7)" d="M 390.040298 309.8635 
L 390.040298 23.36505 
" style="fill:none;stroke:#b0b0b0;stroke-linecap:square;stroke-width:0.8;"/>
     </g>
     <g id="line2d_14">
      <g>
       <use style="stroke:#000000;stroke-width:0.8;" x="390.040298" xlink:href="#m4580c94249" y="309.8635"/>
      </g>
     </g>
     <g id="text_7">
      <!-- 2016 -->
      <g transform="translate(377.315298 324.461937)scale(0.1 -0.1)">
       <use xlink:href="#DejaVuSans-32"/>
       <use x="63.623047" xlink:href="#DejaVuSans-30"/>
       <use x="127.246094" xlink:href="#DejaVuSans-31"/>
       <use x="190.869141" xlink:href="#DejaVuSans-36"/>
      </g>
     </g>
    </g>
    <g id="xtick_8">
     <g id="line2d_15">
      <path clip-path="url(#p20bc7af3e7)" d="M 441.245691 309.8635 
L 441.245691 23.36505 
" style="fill:none;stroke:#b0b0b0;stroke-linecap:square;stroke-width:0.8;"/>
     </g>
     <g id="line2d_16">
      <g>
       <use style="stroke:#000000;stroke-width:0.8;" x="441.245691" xlink:href="#m4580c94249" y="309.8635"/>
      </g>
     </g>
     <g id="text_8">
      <!-- 2018 -->
      <g transform="translate(428.520691 324.461937)scale(0.1 -0.1)">
       <use xlink:href="#DejaVuSans-32"/>
       <use x="63.623047" xlink:href="#DejaVuSans-30"/>
       <use x="127.246094" xlink:href="#DejaVuSans-31"/>
       <use x="190.869141" xlink:href="#DejaVuSans-38"/>
      </g>
     </g>
    </g>
    <g id="text_9">
     <!-- Date -->
     <defs>
      <path d="M 19.671875 64.796875 
L 19.671875 8.109375 
L 31.59375 8.109375 
Q 46.6875 8.109375 53.6875 14.9375 
Q 60.6875 21.78125 60.6875 36.53125 
Q 60.6875 51.171875 53.6875 57.984375 
Q 46.6875 64.796875 31.59375 64.796875 
z
M 9.8125 72.90625 
L 30.078125 72.90625 
Q 51.265625 72.90625 61.171875 64.09375 
Q 71.09375 55.28125 71.09375 36.53125 
Q 71.09375 17.671875 61.125 8.828125 
Q 51.171875 0 30.078125 0 
L 9.8125 0 
z
" id="DejaVuSans-44"/>
      <path d="M 34.28125 27.484375 
Q 23.390625 27.484375 19.1875 25 
Q 14.984375 22.515625 14.984375 16.5 
Q 14.984375 11.71875 18.140625 8.90625 
Q 21.296875 6.109375 26.703125 6.109375 
Q 34.1875 6.109375 38.703125 11.40625 
Q 43.21875 16.703125 43.21875 25.484375 
L 43.21875 27.484375 
z
M 52.203125 31.203125 
L 52.203125 0 
L 43.21875 0 
L 43.21875 8.296875 
Q 40.140625 3.328125 35.546875 0.953125 
Q 30.953125 -1.421875 24.3125 -1.421875 
Q 15.921875 -1.421875 10.953125 3.296875 
Q 6 8.015625 6 15.921875 
Q 6 25.140625 12.171875 29.828125 
Q 18.359375 34.515625 30.609375 34.515625 
L 43.21875 34.515625 
L 43.21875 35.40625 
Q 43.21875 41.609375 39.140625 45 
Q 35.0625 48.390625 27.6875 48.390625 
Q 23 48.390625 18.546875 47.265625 
Q 14.109375 46.140625 10.015625 43.890625 
L 10.015625 52.203125 
Q 14.9375 54.109375 19.578125 55.046875 
Q 24.21875 56 28.609375 56 
Q 40.484375 56 46.34375 49.84375 
Q 52.203125 43.703125 52.203125 31.203125 
z
" id="DejaVuSans-61"/>
      <path d="M 18.3125 70.21875 
L 18.3125 54.6875 
L 36.8125 54.6875 
L 36.8125 47.703125 
L 18.3125 47.703125 
L 18.3125 18.015625 
Q 18.3125 11.328125 20.140625 9.421875 
Q 21.96875 7.515625 27.59375 7.515625 
L 36.8125 7.515625 
L 36.8125 0 
L 27.59375 0 
Q 17.1875 0 13.234375 3.875 
Q 9.28125 7.765625 9.28125 18.015625 
L 9.28125 47.703125 
L 2.6875 47.703125 
L 2.6875 54.6875 
L 9.28125 54.6875 
L 9.28125 70.21875 
z
" id="DejaVuSans-74"/>
      <path d="M 56.203125 29.59375 
L 56.203125 25.203125 
L 14.890625 25.203125 
Q 15.484375 15.921875 20.484375 11.0625 
Q 25.484375 6.203125 34.421875 6.203125 
Q 39.59375 6.203125 44.453125 7.46875 
Q 49.3125 8.734375 54.109375 11.28125 
L 54.109375 2.78125 
Q 49.265625 0.734375 44.1875 -0.34375 
Q 39.109375 -1.421875 33.890625 -1.421875 
Q 20.796875 -1.421875 13.15625 6.1875 
Q 5.515625 13.8125 5.515625 26.8125 
Q 5.515625 40.234375 12.765625 48.109375 
Q 20.015625 56 32.328125 56 
Q 43.359375 56 49.78125 48.890625 
Q 56.203125 41.796875 56.203125 29.59375 
z
M 47.21875 32.234375 
Q 47.125 39.59375 43.09375 43.984375 
Q 39.0625 48.390625 32.421875 48.390625 
Q 24.90625 48.390625 20.390625 44.140625 
Q 15.875 39.890625 15.1875 32.171875 
z
" id="DejaVuSans-65"/>
     </defs>
     <g transform="translate(231.898469 338.140062)scale(0.1 -0.1)">
      <use xlink:href="#DejaVuSans-44"/>
      <use x="77.001953" xlink:href="#DejaVuSans-61"/>
      <use x="138.28125" xlink:href="#DejaVuSans-74"/>
      <use x="177.490234" xlink:href="#DejaVuSans-65"/>
     </g>
    </g>
   </g>
   <g id="matplotlib.axis_2">
    <g id="ytick_1">
     <g id="line2d_17">
      <path clip-path="url(#p20bc7af3e7)" d="M 40.2185 296.840843 
L 447.48 296.840843 
" style="fill:none;stroke:#b0b0b0;stroke-linecap:square;stroke-width:0.8;"/>
     </g>
     <g id="line2d_18">
      <defs>
       <path d="M 0 0 
L -3.5 0 
" id="m60d3f9299e" style="stroke:#000000;stroke-width:0.8;"/>
      </defs>
      <g>
       <use style="stroke:#000000;stroke-width:0.8;" x="40.2185" xlink:href="#m60d3f9299e" y="296.840843"/>
      </g>
     </g>
     <g id="text_10">
      <!-- 0.0 -->
      <defs>
       <path d="M 10.6875 12.40625 
L 21 12.40625 
L 21 0 
L 10.6875 0 
z
" id="DejaVuSans-2e"/>
      </defs>
      <g transform="translate(17.315375 300.640062)scale(0.1 -0.1)">
       <use xlink:href="#DejaVuSans-30"/>
       <use x="63.623047" xlink:href="#DejaVuSans-2e"/>
       <use x="95.410156" xlink:href="#DejaVuSans-30"/>
      </g>
     </g>
    </g>
    <g id="ytick_2">
     <g id="line2d_19">
      <path clip-path="url(#p20bc7af3e7)" d="M 40.2185 258.288968 
L 447.48 258.288968 
" style="fill:none;stroke:#b0b0b0;stroke-linecap:square;stroke-width:0.8;"/>
     </g>
     <g id="line2d_20">
      <g>
       <use style="stroke:#000000;stroke-width:0.8;" x="40.2185" xlink:href="#m60d3f9299e" y="258.288968"/>
      </g>
     </g>
     <g id="text_11">
      <!-- 0.2 -->
      <g transform="translate(17.315375 262.088186)scale(0.1 -0.1)">
       <use xlink:href="#DejaVuSans-30"/>
       <use x="63.623047" xlink:href="#DejaVuSans-2e"/>
       <use x="95.410156" xlink:href="#DejaVuSans-32"/>
      </g>
     </g>
    </g>
    <g id="ytick_3">
     <g id="line2d_21">
      <path clip-path="url(#p20bc7af3e7)" d="M 40.2185 219.737092 
L 447.48 219.737092 
" style="fill:none;stroke:#b0b0b0;stroke-linecap:square;stroke-width:0.8;"/>
     </g>
     <g id="line2d_22">
      <g>
       <use style="stroke:#000000;stroke-width:0.8;" x="40.2185" xlink:href="#m60d3f9299e" y="219.737092"/>
      </g>
     </g>
     <g id="text_12">
      <!-- 0.4 -->
      <g transform="translate(17.315375 223.536311)scale(0.1 -0.1)">
       <use xlink:href="#DejaVuSans-30"/>
       <use x="63.623047" xlink:href="#DejaVuSans-2e"/>
       <use x="95.410156" xlink:href="#DejaVuSans-34"/>
      </g>
     </g>
    </g>
    <g id="ytick_4">
     <g id="line2d_23">
      <path clip-path="url(#p20bc7af3e7)" d="M 40.2185 181.185217 
L 447.48 181.185217 
" style="fill:none;stroke:#b0b0b0;stroke-linecap:square;stroke-width:0.8;"/>
     </g>
     <g id="line2d_24">
      <g>
       <use style="stroke:#000000;stroke-width:0.8;" x="40.2185" xlink:href="#m60d3f9299e" y="181.185217"/>
      </g>
     </g>
     <g id="text_13">
      <!-- 0.6 -->
      <g transform="translate(17.315375 184.984435)scale(0.1 -0.1)">
       <use xlink:href="#DejaVuSans-30"/>
       <use x="63.623047" xlink:href="#DejaVuSans-2e"/>
       <use x="95.410156" xlink:href="#DejaVuSans-36"/>
      </g>
     </g>
    </g>
    <g id="ytick_5">
     <g id="line2d_25">
      <path clip-path="url(#p20bc7af3e7)" d="M 40.2185 142.633341 
L 447.48 142.633341 
" style="fill:none;stroke:#b0b0b0;stroke-linecap:square;stroke-width:0.8;"/>
     </g>
     <g id="line2d_26">
      <g>
       <use style="stroke:#000000;stroke-width:0.8;" x="40.2185" xlink:href="#m60d3f9299e" y="142.633341"/>
      </g>
     </g>
     <g id="text_14">
      <!-- 0.8 -->
      <g transform="translate(17.315375 146.43256)scale(0.1 -0.1)">
       <use xlink:href="#DejaVuSans-30"/>
       <use x="63.623047" xlink:href="#DejaVuSans-2e"/>
       <use x="95.410156" xlink:href="#DejaVuSans-38"/>
      </g>
     </g>
    </g>
    <g id="ytick_6">
     <g id="line2d_27">
      <path clip-path="url(#p20bc7af3e7)" d="M 40.2185 104.081466 
L 447.48 104.081466 
" style="fill:none;stroke:#b0b0b0;stroke-linecap:square;stroke-width:0.8;"/>
     </g>
     <g id="line2d_28">
      <g>
       <use style="stroke:#000000;stroke-width:0.8;" x="40.2185" xlink:href="#m60d3f9299e" y="104.081466"/>
      </g>
     </g>
     <g id="text_15">
      <!-- 1.0 -->
      <g transform="translate(17.315375 107.880684)scale(0.1 -0.1)">
       <use xlink:href="#DejaVuSans-31"/>
       <use x="63.623047" xlink:href="#DejaVuSans-2e"/>
       <use x="95.410156" xlink:href="#DejaVuSans-30"/>
      </g>
     </g>
    </g>
    <g id="ytick_7">
     <g id="line2d_29">
      <path clip-path="url(#p20bc7af3e7)" d="M 40.2185 65.52959 
L 447.48 65.52959 
" style="fill:none;stroke:#b0b0b0;stroke-linecap:square;stroke-width:0.8;"/>
     </g>
     <g id="line2d_30">
      <g>
       <use style="stroke:#000000;stroke-width:0.8;" x="40.2185" xlink:href="#m60d3f9299e" y="65.52959"/>
      </g>
     </g>
     <g id="text_16">
      <!-- 1.2 -->
      <g transform="translate(17.315375 69.328809)scale(0.1 -0.1)">
       <use xlink:href="#DejaVuSans-31"/>
       <use x="63.623047" xlink:href="#DejaVuSans-2e"/>
       <use x="95.410156" xlink:href="#DejaVuSans-32"/>
      </g>
     </g>
    </g>
    <g id="ytick_8">
     <g id="line2d_31">
      <path clip-path="url(#p20bc7af3e7)" d="M 40.2185 26.977715 
L 447.48 26.977715 
" style="fill:none;stroke:#b0b0b0;stroke-linecap:square;stroke-width:0.8;"/>
     </g>
     <g id="line2d_32">
      <g>
       <use style="stroke:#000000;stroke-width:0.8;" x="40.2185" xlink:href="#m60d3f9299e" y="26.977715"/>
      </g>
     </g>
     <g id="text_17">
      <!-- 1.4 -->
      <g transform="translate(17.315375 30.776933)scale(0.1 -0.1)">
       <use xlink:href="#DejaVuSans-31"/>
       <use x="63.623047" xlink:href="#DejaVuSans-2e"/>
       <use x="95.410156" xlink:href="#DejaVuSans-34"/>
      </g>
     </g>
    </g>
    <g id="text_18">
     <!-- Emissions / mean emissions -->
     <defs>
      <path d="M 9.8125 72.90625 
L 55.90625 72.90625 
L 55.90625 64.59375 
L 19.671875 64.59375 
L 19.671875 43.015625 
L 54.390625 43.015625 
L 54.390625 34.71875 
L 19.671875 34.71875 
L 19.671875 8.296875 
L 56.78125 8.296875 
L 56.78125 0 
L 9.8125 0 
z
" id="DejaVuSans-45"/>
      <path d="M 52 44.1875 
Q 55.375 50.25 60.0625 53.125 
Q 64.75 56 71.09375 56 
Q 79.640625 56 84.28125 50.015625 
Q 88.921875 44.046875 88.921875 33.015625 
L 88.921875 0 
L 79.890625 0 
L 79.890625 32.71875 
Q 79.890625 40.578125 77.09375 44.375 
Q 74.3125 48.1875 68.609375 48.1875 
Q 61.625 48.1875 57.5625 43.546875 
Q 53.515625 38.921875 53.515625 30.90625 
L 53.515625 0 
L 44.484375 0 
L 44.484375 32.71875 
Q 44.484375 40.625 41.703125 44.40625 
Q 38.921875 48.1875 33.109375 48.1875 
Q 26.21875 48.1875 22.15625 43.53125 
Q 18.109375 38.875 18.109375 30.90625 
L 18.109375 0 
L 9.078125 0 
L 9.078125 54.6875 
L 18.109375 54.6875 
L 18.109375 46.1875 
Q 21.1875 51.21875 25.484375 53.609375 
Q 29.78125 56 35.6875 56 
Q 41.65625 56 45.828125 52.96875 
Q 50 49.953125 52 44.1875 
z
" id="DejaVuSans-6d"/>
      <path d="M 9.421875 54.6875 
L 18.40625 54.6875 
L 18.40625 0 
L 9.421875 0 
z
M 9.421875 75.984375 
L 18.40625 75.984375 
L 18.40625 64.59375 
L 9.421875 64.59375 
z
" id="DejaVuSans-69"/>
      <path d="M 44.28125 53.078125 
L 44.28125 44.578125 
Q 40.484375 46.53125 36.375 47.5 
Q 32.28125 48.484375 27.875 48.484375 
Q 21.1875 48.484375 17.84375 46.4375 
Q 14.5 44.390625 14.5 40.28125 
Q 14.5 37.15625 16.890625 35.375 
Q 19.28125 33.59375 26.515625 31.984375 
L 29.59375 31.296875 
Q 39.15625 29.25 43.1875 25.515625 
Q 47.21875 21.78125 47.21875 15.09375 
Q 47.21875 7.46875 41.1875 3.015625 
Q 35.15625 -1.421875 24.609375 -1.421875 
Q 20.21875 -1.421875 15.453125 -0.5625 
Q 10.6875 0.296875 5.421875 2 
L 5.421875 11.28125 
Q 10.40625 8.6875 15.234375 7.390625 
Q 20.0625 6.109375 24.8125 6.109375 
Q 31.15625 6.109375 34.5625 8.28125 
Q 37.984375 10.453125 37.984375 14.40625 
Q 37.984375 18.0625 35.515625 20.015625 
Q 33.0625 21.96875 24.703125 23.78125 
L 21.578125 24.515625 
Q 13.234375 26.265625 9.515625 29.90625 
Q 5.8125 33.546875 5.8125 39.890625 
Q 5.8125 47.609375 11.28125 51.796875 
Q 16.75 56 26.8125 56 
Q 31.78125 56 36.171875 55.265625 
Q 40.578125 54.546875 44.28125 53.078125 
z
" id="DejaVuSans-73"/>
      <path d="M 30.609375 48.390625 
Q 23.390625 48.390625 19.1875 42.75 
Q 14.984375 37.109375 14.984375 27.296875 
Q 14.984375 17.484375 19.15625 11.84375 
Q 23.34375 6.203125 30.609375 6.203125 
Q 37.796875 6.203125 41.984375 11.859375 
Q 46.1875 17.53125 46.1875 27.296875 
Q 46.1875 37.015625 41.984375 42.703125 
Q 37.796875 48.390625 30.609375 48.390625 
z
M 30.609375 56 
Q 42.328125 56 49.015625 48.375 
Q 55.71875 40.765625 55.71875 27.296875 
Q 55.71875 13.875 49.015625 6.21875 
Q 42.328125 -1.421875 30.609375 -1.421875 
Q 18.84375 -1.421875 12.171875 6.21875 
Q 5.515625 13.875 5.515625 27.296875 
Q 5.515625 40.765625 12.171875 48.375 
Q 18.84375 56 30.609375 56 
z
" id="DejaVuSans-6f"/>
      <path d="M 54.890625 33.015625 
L 54.890625 0 
L 45.90625 0 
L 45.90625 32.71875 
Q 45.90625 40.484375 42.875 44.328125 
Q 39.84375 48.1875 33.796875 48.1875 
Q 26.515625 48.1875 22.3125 43.546875 
Q 18.109375 38.921875 18.109375 30.90625 
L 18.109375 0 
L 9.078125 0 
L 9.078125 54.6875 
L 18.109375 54.6875 
L 18.109375 46.1875 
Q 21.34375 51.125 25.703125 53.5625 
Q 30.078125 56 35.796875 56 
Q 45.21875 56 50.046875 50.171875 
Q 54.890625 44.34375 54.890625 33.015625 
z
" id="DejaVuSans-6e"/>
      <path id="DejaVuSans-20"/>
      <path d="M 25.390625 72.90625 
L 33.6875 72.90625 
L 8.296875 -9.28125 
L 0 -9.28125 
z
" id="DejaVuSans-2f"/>
     </defs>
     <g transform="translate(11.235688 236.862712)rotate(-90)scale(0.1 -0.1)">
      <use xlink:href="#DejaVuSans-45"/>
      <use x="63.183594" xlink:href="#DejaVuSans-6d"/>
      <use x="160.595703" xlink:href="#DejaVuSans-69"/>
      <use x="188.378906" xlink:href="#DejaVuSans-73"/>
      <use x="240.478516" xlink:href="#DejaVuSans-73"/>
      <use x="292.578125" xlink:href="#DejaVuSans-69"/>
      <use x="320.361328" xlink:href="#DejaVuSans-6f"/>
      <use x="381.542969" xlink:href="#DejaVuSans-6e"/>
      <use x="444.921875" xlink:href="#DejaVuSans-73"/>
      <use x="497.021484" xlink:href="#DejaVuSans-20"/>
      <use x="528.808594" xlink:href="#DejaVuSans-2f"/>
      <use x="562.5" xlink:href="#DejaVuSans-20"/>
      <use x="594.287109" xlink:href="#DejaVuSans-6d"/>
      <use x="691.699219" xlink:href="#DejaVuSans-65"/>
      <use x="753.222656" xlink:href="#DejaVuSans-61"/>
      <use x="814.501953" xlink:href="#DejaVuSans-6e"/>
      <use x="877.880859" xlink:href="#DejaVuSans-20"/>
      <use x="909.667969" xlink:href="#DejaVuSans-65"/>
      <use x="971.191406" xlink:href="#DejaVuSans-6d"/>
      <use x="1068.603516" xlink:href="#DejaVuSans-69"/>
      <use x="1096.386719" xlink:href="#DejaVuSans-73"/>
      <use x="1148.486328" xlink:href="#DejaVuSans-73"/>
      <use x="1200.585938" xlink:href="#DejaVuSans-69"/>
      <use x="1228.369141" xlink:href="#DejaVuSans-6f"/>
      <use x="1289.550781" xlink:href="#DejaVuSans-6e"/>
      <use x="1352.929688" xlink:href="#DejaVuSans-73"/>
     </g>
    </g>
   </g>
   <g id="line2d_33">
    <path clip-path="url(#p20bc7af3e7)" d="M 40.2185 296.840843 
L 42.390001 296.840843 
L 44.491453 221.350297 
L 46.662954 147.921106 
L 48.834455 180.933718 
L 50.935908 208.46184 
L 53.107409 279.868637 
L 55.208861 259.055581 
L 57.380362 257.362373 
L 59.551863 291.167603 
L 61.513219 236.542518 
L 63.68472 210.301562 
L 65.786172 247.61263 
L 67.957673 243.106995 
L 70.059126 224.317469 
L 72.230627 112.161109 
L 74.402128 98.951531 
L 76.50358 143.352669 
L 78.675081 158.843155 
L 80.776534 245.772785 
L 82.948035 264.04498 
L 85.119536 171.744819 
L 87.15094 172.316821 
L 91.423893 227.547651 
L 93.595394 193.17288 
L 95.696847 210.834468 
L 97.868348 155.492534 
L 100.039849 194.533142 
L 102.141301 245.350861 
L 104.312802 238.90684 
L 106.414255 238.257613 
L 108.585756 180.483936 
L 110.757257 230.901916 
L 112.718612 193.48498 
L 114.890113 280.263687 
L 116.991566 280.557912 
L 119.163067 220.222974 
L 121.264519 239.12679 
L 123.43602 174.640117 
L 125.607521 145.36814 
L 127.708974 168.724139 
L 129.880475 187.18266 
L 131.981927 229.740198 
L 134.153428 196.707008 
L 136.324929 296.840843 
L 138.286285 288.714521 
L 140.457786 283.223791 
L 142.559238 226.048364 
L 144.730739 184.968332 
L 146.832192 142.96284 
L 149.003693 71.485064 
L 151.175193 77.449597 
L 153.276646 102.556861 
L 155.448147 92.180949 
L 157.5496 277.726407 
L 159.7211 293.546969 
L 161.892601 296.840843 
L 168.126911 296.840843 
L 170.298412 214.558465 
L 172.399864 142.857012 
L 174.571365 95.258242 
L 176.742866 89.682379 
L 178.844318 116.142568 
L 181.015819 158.116854 
L 183.117272 210.594534 
L 185.288773 220.721614 
L 187.460274 247.311348 
L 189.491678 296.840843 
L 191.663179 288.775142 
L 193.764631 233.524154 
L 195.936132 281.79503 
L 198.037585 218.393533 
L 200.209086 167.134336 
L 202.380587 132.521209 
L 204.482039 209.976741 
L 206.65354 182.348209 
L 208.754993 293.936647 
L 210.926494 294.121328 
L 213.097995 291.434552 
L 215.05935 294.221601 
L 217.230851 296.840843 
L 219.332304 251.34454 
L 221.503805 243.708553 
L 223.605257 283.216102 
L 225.776758 154.969214 
L 227.948259 132.16511 
L 230.049712 224.817637 
L 232.221213 205.695444 
L 234.322665 289.10482 
L 236.494166 296.840843 
L 240.627023 296.840843 
L 242.798524 293.583402 
L 244.899976 281.136496 
L 247.071477 284.246254 
L 249.17293 119.138019 
L 251.344431 75.737938 
L 253.515932 66.492291 
L 255.617384 76.798338 
L 257.788885 279.945363 
L 259.890338 296.838935 
L 262.061839 296.840843 
L 264.23334 293.871505 
L 266.194695 293.642584 
L 268.366196 296.837653 
L 270.467649 293.83238 
L 272.63915 296.837821 
L 274.740602 138.207522 
L 276.912103 70.06688 
L 279.083604 53.99424 
L 281.185057 110.277791 
L 283.356558 284.399539 
L 285.45801 261.371305 
L 287.629511 293.662143 
L 289.801012 283.025175 
L 291.832416 295.838858 
L 294.003917 295.877143 
L 296.10537 257.60088 
L 298.27687 135.977602 
L 300.378323 107.658289 
L 302.549824 89.52859 
L 304.721325 44.915813 
L 306.822777 65.900835 
L 308.994278 101.768256 
L 311.095731 296.388906 
L 313.267232 296.840843 
L 315.438733 285.466829 
L 317.400088 281.631359 
L 319.571589 296.701661 
L 321.673042 240.872604 
L 323.844543 229.693261 
L 325.945995 120.626377 
L 328.117496 101.856399 
L 330.288997 91.785731 
L 334.561951 185.792346 
L 336.663403 296.839976 
L 338.834904 284.636939 
L 341.006405 283.250822 
L 342.967761 282.223389 
L 345.139262 295.326793 
L 347.240714 278.903006 
L 349.412215 187.720922 
L 351.513668 165.436359 
L 353.685169 168.892501 
L 355.85667 145.771081 
L 357.958122 153.078778 
L 360.129623 156.913908 
L 362.231076 296.840843 
L 364.402577 294.469536 
L 366.574078 296.840843 
L 368.535433 294.674034 
L 370.706934 294.567081 
L 372.808387 248.586247 
L 374.979888 216.197595 
L 377.08134 104.305278 
L 379.252841 80.185062 
L 381.424342 70.576601 
L 383.525795 64.190413 
L 385.697296 103.433241 
L 387.798748 173.033418 
L 389.970249 263.253872 
L 392.14175 296.789132 
L 394.173154 296.840843 
L 396.344655 287.19427 
L 398.446108 280.584282 
L 400.617609 78.59311 
L 402.719061 94.990163 
L 404.890562 42.785431 
L 407.062063 43.021991 
L 409.163516 48.392382 
L 411.335017 77.093834 
L 413.436469 296.818116 
L 415.60797 294.251108 
L 417.779471 295.049771 
L 419.740827 295.633178 
L 421.912328 293.030365 
L 424.01378 256.888363 
L 426.185281 79.307155 
L 428.286734 90.694936 
L 430.458235 41.769516 
L 432.629735 37.144762 
L 434.731188 52.001809 
L 436.902689 52.928629 
L 439.004141 257.170282 
L 441.175642 296.840843 
L 445.308499 296.840843 
L 447.48 279.005336 
L 447.48 279.005336 
" style="fill:none;stroke:#1f77b4;stroke-linecap:square;stroke-width:1.5;"/>
   </g>
   <g id="line2d_34">
    <path clip-path="url(#p20bc7af3e7)" d="M 40.2185 296.840843 
L 42.390001 296.840843 
L 44.491453 169.971498 
L 46.662954 107.637905 
L 48.834455 153.231436 
L 50.935908 186.249145 
L 53.107409 271.454079 
L 55.208861 240.451136 
L 57.380362 230.740406 
L 59.551863 285.817274 
L 61.513219 204.493281 
L 63.68472 175.938581 
L 65.786172 225.125529 
L 67.957673 222.27027 
L 70.059126 202.899748 
L 72.230627 100.552329 
L 74.402128 88.862537 
L 76.50358 114.515788 
L 78.675081 119.869058 
L 80.776534 224.846427 
L 82.948035 246.098958 
L 85.119536 140.892112 
L 87.15094 159.116848 
L 89.322441 169.160428 
L 91.423893 213.347459 
L 93.595394 184.486462 
L 95.696847 179.715595 
L 97.868348 141.485279 
L 100.039849 181.35004 
L 102.141301 233.078183 
L 104.312802 224.05418 
L 106.414255 221.460797 
L 108.585756 176.911607 
L 110.757257 222.813607 
L 112.718612 187.281173 
L 114.890113 272.98723 
L 116.991566 271.717133 
L 119.163067 208.81028 
L 121.264519 227.898838 
L 123.43602 164.4499 
L 125.607521 148.746517 
L 127.708974 155.249383 
L 129.880475 181.281308 
L 131.981927 219.100987 
L 134.153428 182.728353 
L 136.324929 296.840843 
L 138.286285 281.679058 
L 140.457786 272.753409 
L 142.559238 201.846285 
L 144.730739 166.948527 
L 146.832192 129.497583 
L 149.003693 97.247464 
L 151.175193 99.354676 
L 153.276646 115.159327 
L 155.448147 106.104882 
L 157.5496 275.596985 
L 159.7211 290.611058 
L 161.892601 296.840843 
L 168.126911 296.840843 
L 170.298412 197.75917 
L 172.399864 139.247605 
L 174.571365 120.119785 
L 176.742866 117.358043 
L 178.844318 126.422914 
L 181.015819 155.503343 
L 183.117272 200.238248 
L 185.288773 211.389557 
L 187.460274 238.103791 
L 189.491678 296.840843 
L 191.663179 287.800928 
L 193.764631 220.290724 
L 195.936132 278.261472 
L 198.037585 205.406966 
L 200.209086 167.912626 
L 202.380587 151.201434 
L 204.482039 202.33979 
L 206.65354 178.168359 
L 208.754993 293.035435 
L 210.926494 293.291883 
L 213.097995 289.239793 
L 215.05935 293.636898 
L 217.230851 296.840843 
L 219.332304 242.695639 
L 221.503805 229.24978 
L 223.605257 278.278106 
L 225.776758 164.190032 
L 227.948259 138.459654 
L 230.049712 226.920038 
L 232.221213 204.344125 
L 234.322665 287.053897 
L 236.494166 296.840843 
L 240.627023 296.840843 
L 242.798524 290.404073 
L 244.899976 276.893344 
L 247.071477 273.435501 
L 249.17293 141.299555 
L 251.344431 116.446988 
L 253.515932 110.31401 
L 255.617384 119.472222 
L 257.788885 281.645705 
L 259.890338 296.827888 
L 262.061839 296.840843 
L 264.23334 292.2936 
L 266.194695 291.72401 
L 268.366196 296.807161 
L 270.467649 291.11466 
L 272.63915 296.808517 
L 274.740602 129.824214 
L 276.912103 98.661392 
L 279.083604 96.296789 
L 281.185057 116.430902 
L 283.356558 278.042686 
L 285.45801 251.680646 
L 287.629511 292.266678 
L 289.801012 273.363288 
L 291.832416 293.453469 
L 294.003917 293.256994 
L 296.10537 242.40228 
L 298.27687 141.296235 
L 300.378323 133.376994 
L 302.549824 121.450554 
L 304.721325 91.437607 
L 306.822777 108.949914 
L 308.994278 133.423762 
L 311.095731 287.878635 
L 313.267232 296.840843 
L 315.438733 273.796982 
L 317.400088 277.15965 
L 319.571589 296.647624 
L 321.673042 218.709999 
L 323.844543 226.132922 
L 325.945995 126.003158 
L 328.117496 126.776237 
L 330.288997 129.959627 
L 332.39045 153.886283 
L 334.561951 189.616032 
L 336.663403 296.831905 
L 338.834904 268.713578 
L 341.006405 271.239267 
L 342.967761 270.9199 
L 345.139262 289.828335 
L 347.240714 73.852807 
L 349.412215 176.410026 
L 351.513668 181.680565 
L 353.685169 181.127997 
L 355.85667 166.507348 
L 357.958122 176.98124 
L 360.129623 168.412872 
L 362.231076 296.840843 
L 364.402577 289.107595 
L 366.574078 296.840843 
L 368.535433 293.060707 
L 370.706934 291.67475 
L 372.808387 239.951838 
L 374.979888 230.885451 
L 377.08134 142.846126 
L 379.252841 116.951485 
L 381.424342 103.239231 
L 383.525795 99.704575 
L 385.697296 136.159574 
L 387.798748 185.199919 
L 389.970249 251.514004 
L 392.14175 295.828806 
L 394.173154 296.840843 
L 396.344655 279.073818 
L 398.446108 271.962633 
L 400.617609 124.087563 
L 402.719061 117.892899 
L 404.890562 99.416701 
L 407.062063 92.139893 
L 409.163516 92.667124 
L 411.335017 117.792185 
L 413.436469 296.504358 
L 415.60797 285.59332 
L 417.779471 292.019475 
L 419.740827 292.036148 
L 421.912328 287.129003 
L 424.01378 256.671113 
L 426.185281 127.052412 
L 428.286734 131.460965 
L 430.458235 104.793442 
L 432.629735 97.97741 
L 434.731188 106.264279 
L 436.902689 107.028346 
L 439.004141 263.474574 
L 441.175642 296.840843 
L 443.347143 296.497229 
L 445.308499 296.840843 
L 447.48 269.485237 
L 447.48 269.485237 
" style="fill:none;stroke:#ff7f0e;stroke-linecap:square;stroke-width:1.5;"/>
   </g>
   <g id="line2d_35">
    <path clip-path="url(#p20bc7af3e7)" d="M 40.2185 296.840843 
L 42.390001 296.840843 
L 44.491453 221.125695 
L 46.662954 147.481781 
L 48.834455 180.590688 
L 50.935908 208.200757 
L 53.107409 279.819766 
L 55.208861 258.944382 
L 57.380362 257.246173 
L 59.551863 291.151016 
L 61.513219 236.363576 
L 63.68472 210.048426 
L 65.786172 247.468173 
L 67.957673 242.9462 
L 70.059126 224.102772 
L 72.230627 111.612064 
L 74.402128 98.365717 
L 76.50358 142.897122 
L 78.675081 158.435122 
L 80.776534 245.621375 
L 82.948035 263.947348 
L 85.119536 171.377878 
L 87.15094 171.943592 
L 91.423893 227.343436 
L 93.595394 192.86766 
L 95.696847 210.57926 
L 97.868348 155.074382 
L 100.039849 194.229797 
L 102.141301 245.198451 
L 104.312802 238.735766 
L 106.414255 238.08603 
L 108.585756 180.138548 
L 110.757257 230.705193 
L 112.718612 193.180911 
L 114.890113 280.214409 
L 116.991566 280.509716 
L 119.163067 219.995924 
L 121.264519 238.954384 
L 123.43602 174.281546 
L 125.607521 144.920304 
L 127.708974 168.344364 
L 129.880475 186.858562 
L 131.981927 229.543957 
L 134.153428 196.40909 
L 136.324929 296.840843 
L 138.286285 288.690572 
L 140.457786 283.185283 
L 142.559238 225.840943 
L 144.730739 184.637362 
L 146.832192 142.508642 
L 149.003693 70.821162 
L 151.175193 76.797198 
L 153.276646 101.979671 
L 155.448147 91.576556 
L 157.5496 277.670202 
L 159.7211 293.536317 
L 161.892601 296.840843 
L 168.126911 296.840843 
L 170.298412 214.317875 
L 172.399864 142.402148 
L 174.571365 94.66056 
L 176.742866 89.068612 
L 178.844318 115.60496 
L 181.015819 157.699467 
L 183.117272 210.337171 
L 185.288773 220.495878 
L 187.460274 247.165674 
L 189.491678 296.840843 
L 191.663179 288.751366 
L 193.764631 233.335951 
L 195.936132 281.75022 
L 198.037585 218.163857 
L 200.209086 166.746764 
L 202.380587 132.031703 
L 204.482039 209.721353 
L 206.65354 182.788425 
L 208.754993 293.947592 
L 210.926494 294.131746 
L 213.097995 291.455176 
L 215.05935 294.232029 
L 217.230851 296.840843 
L 219.332304 251.520986 
L 221.503805 243.913085 
L 223.605257 283.267657 
L 225.776758 155.51864 
L 227.948259 132.797562 
L 230.049712 225.095017 
L 232.221213 206.046593 
L 234.322665 289.135303 
L 236.494166 296.840843 
L 240.627023 296.840843 
L 242.798524 293.595524 
L 244.899976 281.196512 
L 247.071477 284.294383 
L 249.17293 119.81815 
L 251.344431 76.589265 
L 253.515932 67.379854 
L 255.617384 77.646684 
L 257.788885 280.010262 
L 259.890338 296.838844 
L 262.061839 296.840843 
L 264.23334 293.883085 
L 266.194695 293.655374 
L 268.366196 296.837599 
L 270.467649 293.843733 
L 272.63915 296.837848 
L 274.740602 138.816983 
L 276.912103 70.937603 
L 279.083604 54.928764 
L 281.185057 110.994571 
L 283.356558 284.446768 
L 285.45801 261.508538 
L 287.629511 293.673755 
L 289.801012 283.078042 
L 291.832416 295.842771 
L 294.003917 295.880859 
L 296.10537 257.750629 
L 298.27687 136.597711 
L 300.378323 108.387933 
L 302.549824 90.318633 
L 304.721325 45.884882 
L 306.822777 66.792406 
L 308.994278 102.518493 
L 311.095731 296.390118 
L 313.267232 296.840843 
L 315.438733 285.510387 
L 317.400088 281.689739 
L 319.571589 296.702215 
L 321.673042 241.090046 
L 323.844543 229.954421 
L 325.945995 121.304167 
L 328.117496 102.603922 
L 330.288997 92.573744 
L 334.561951 186.217035 
L 336.663403 296.840035 
L 338.834904 284.683536 
L 341.006405 283.303071 
L 342.967761 282.279207 
L 345.139262 295.332337 
L 347.240714 278.979611 
L 349.412215 188.139276 
L 351.513668 165.940348 
L 353.685169 169.383841 
L 355.85667 146.351644 
L 357.958122 153.631168 
L 360.129623 157.450366 
L 362.231076 296.840843 
L 364.402577 294.478817 
L 366.574078 296.840843 
L 368.535433 294.682003 
L 370.706934 294.575915 
L 372.808387 248.773209 
L 374.979888 216.508074 
L 377.08134 105.047912 
L 379.252841 81.017537 
L 381.424342 71.449032 
L 383.525795 65.079473 
L 385.697296 104.17239 
L 387.798748 173.50982 
L 389.970249 263.381945 
L 392.14175 296.788938 
L 394.173154 296.840843 
L 396.344655 287.165963 
L 398.446108 280.537413 
L 400.617609 77.959478 
L 402.719061 94.406351 
L 404.890562 42.04412 
L 407.062063 42.285232 
L 409.163516 47.668909 
L 411.335017 76.45334 
L 413.436469 296.818116 
L 415.60797 294.24341 
L 417.779471 295.044568 
L 419.740827 295.629516 
L 421.912328 293.019855 
L 424.01378 256.770935 
L 426.185281 78.674457 
L 428.286734 90.092574 
L 430.458235 41.02361 
L 432.629735 36.387707 
L 434.731188 51.291876 
L 436.902689 52.217173 
L 439.004141 257.05168 
L 441.175642 296.840843 
L 445.308499 296.840843 
L 447.48 278.952401 
L 447.48 278.952401 
" style="fill:none;stroke:#2ca02c;stroke-linecap:square;stroke-width:1.5;"/>
   </g>
   <g id="patch_3">
    <path d="M 40.2185 309.8635 
L 40.2185 23.36505 
" style="fill:none;stroke:#000000;stroke-linecap:square;stroke-linejoin:miter;stroke-width:0.8;"/>
   </g>
   <g id="patch_4">
    <path d="M 447.48 309.8635 
L 447.48 23.36505 
" style="fill:none;stroke:#000000;stroke-linecap:square;stroke-linejoin:miter;stroke-width:0.8;"/>
   </g>
   <g id="patch_5">
    <path d="M 40.2185 309.8635 
L 447.48 309.8635 
" style="fill:none;stroke:#000000;stroke-linecap:square;stroke-linejoin:miter;stroke-width:0.8;"/>
   </g>
   <g id="patch_6">
    <path d="M 40.2185 23.36505 
L 447.48 23.36505 
" style="fill:none;stroke:#000000;stroke-linecap:square;stroke-linejoin:miter;stroke-width:0.8;"/>
   </g>
   <g id="text_19">
    <!-- Average monthly normalized emissions -->
    <defs>
     <path d="M 34.1875 63.1875 
L 20.796875 26.90625 
L 47.609375 26.90625 
z
M 28.609375 72.90625 
L 39.796875 72.90625 
L 67.578125 0 
L 57.328125 0 
L 50.6875 18.703125 
L 17.828125 18.703125 
L 11.1875 0 
L 0.78125 0 
z
" id="DejaVuSans-41"/>
     <path d="M 2.984375 54.6875 
L 12.5 54.6875 
L 29.59375 8.796875 
L 46.6875 54.6875 
L 56.203125 54.6875 
L 35.6875 0 
L 23.484375 0 
z
" id="DejaVuSans-76"/>
     <path d="M 41.109375 46.296875 
Q 39.59375 47.171875 37.8125 47.578125 
Q 36.03125 48 33.890625 48 
Q 26.265625 48 22.1875 43.046875 
Q 18.109375 38.09375 18.109375 28.8125 
L 18.109375 0 
L 9.078125 0 
L 9.078125 54.6875 
L 18.109375 54.6875 
L 18.109375 46.1875 
Q 20.953125 51.171875 25.484375 53.578125 
Q 30.03125 56 36.53125 56 
Q 37.453125 56 38.578125 55.875 
Q 39.703125 55.765625 41.0625 55.515625 
z
" id="DejaVuSans-72"/>
     <path d="M 45.40625 27.984375 
Q 45.40625 37.75 41.375 43.109375 
Q 37.359375 48.484375 30.078125 48.484375 
Q 22.859375 48.484375 18.828125 43.109375 
Q 14.796875 37.75 14.796875 27.984375 
Q 14.796875 18.265625 18.828125 12.890625 
Q 22.859375 7.515625 30.078125 7.515625 
Q 37.359375 7.515625 41.375 12.890625 
Q 45.40625 18.265625 45.40625 27.984375 
z
M 54.390625 6.78125 
Q 54.390625 -7.171875 48.1875 -13.984375 
Q 42 -20.796875 29.203125 -20.796875 
Q 24.46875 -20.796875 20.265625 -20.09375 
Q 16.0625 -19.390625 12.109375 -17.921875 
L 12.109375 -9.1875 
Q 16.0625 -11.328125 19.921875 -12.34375 
Q 23.78125 -13.375 27.78125 -13.375 
Q 36.625 -13.375 41.015625 -8.765625 
Q 45.40625 -4.15625 45.40625 5.171875 
L 45.40625 9.625 
Q 42.625 4.78125 38.28125 2.390625 
Q 33.9375 0 27.875 0 
Q 17.828125 0 11.671875 7.65625 
Q 5.515625 15.328125 5.515625 27.984375 
Q 5.515625 40.671875 11.671875 48.328125 
Q 17.828125 56 27.875 56 
Q 33.9375 56 38.28125 53.609375 
Q 42.625 51.21875 45.40625 46.390625 
L 45.40625 54.6875 
L 54.390625 54.6875 
z
" id="DejaVuSans-67"/>
     <path d="M 54.890625 33.015625 
L 54.890625 0 
L 45.90625 0 
L 45.90625 32.71875 
Q 45.90625 40.484375 42.875 44.328125 
Q 39.84375 48.1875 33.796875 48.1875 
Q 26.515625 48.1875 22.3125 43.546875 
Q 18.109375 38.921875 18.109375 30.90625 
L 18.109375 0 
L 9.078125 0 
L 9.078125 75.984375 
L 18.109375 75.984375 
L 18.109375 46.1875 
Q 21.34375 51.125 25.703125 53.5625 
Q 30.078125 56 35.796875 56 
Q 45.21875 56 50.046875 50.171875 
Q 54.890625 44.34375 54.890625 33.015625 
z
" id="DejaVuSans-68"/>
     <path d="M 9.421875 75.984375 
L 18.40625 75.984375 
L 18.40625 0 
L 9.421875 0 
z
" id="DejaVuSans-6c"/>
     <path d="M 32.171875 -5.078125 
Q 28.375 -14.84375 24.75 -17.8125 
Q 21.140625 -20.796875 15.09375 -20.796875 
L 7.90625 -20.796875 
L 7.90625 -13.28125 
L 13.1875 -13.28125 
Q 16.890625 -13.28125 18.9375 -11.515625 
Q 21 -9.765625 23.484375 -3.21875 
L 25.09375 0.875 
L 2.984375 54.6875 
L 12.5 54.6875 
L 29.59375 11.921875 
L 46.6875 54.6875 
L 56.203125 54.6875 
z
" id="DejaVuSans-79"/>
     <path d="M 5.515625 54.6875 
L 48.1875 54.6875 
L 48.1875 46.484375 
L 14.40625 7.171875 
L 48.1875 7.171875 
L 48.1875 0 
L 4.296875 0 
L 4.296875 8.203125 
L 38.09375 47.515625 
L 5.515625 47.515625 
z
" id="DejaVuSans-7a"/>
     <path d="M 45.40625 46.390625 
L 45.40625 75.984375 
L 54.390625 75.984375 
L 54.390625 0 
L 45.40625 0 
L 45.40625 8.203125 
Q 42.578125 3.328125 38.25 0.953125 
Q 33.9375 -1.421875 27.875 -1.421875 
Q 17.96875 -1.421875 11.734375 6.484375 
Q 5.515625 14.40625 5.515625 27.296875 
Q 5.515625 40.1875 11.734375 48.09375 
Q 17.96875 56 27.875 56 
Q 33.9375 56 38.25 53.625 
Q 42.578125 51.265625 45.40625 46.390625 
z
M 14.796875 27.296875 
Q 14.796875 17.390625 18.875 11.75 
Q 22.953125 6.109375 30.078125 6.109375 
Q 37.203125 6.109375 41.296875 11.75 
Q 45.40625 17.390625 45.40625 27.296875 
Q 45.40625 37.203125 41.296875 42.84375 
Q 37.203125 48.484375 30.078125 48.484375 
Q 22.953125 48.484375 18.875 42.84375 
Q 14.796875 37.203125 14.796875 27.296875 
z
" id="DejaVuSans-64"/>
    </defs>
    <g transform="translate(125.2855 17.36505)scale(0.12 -0.12)">
     <use xlink:href="#DejaVuSans-41"/>
     <use x="68.330078" xlink:href="#DejaVuSans-76"/>
     <use x="127.509766" xlink:href="#DejaVuSans-65"/>
     <use x="189.033203" xlink:href="#DejaVuSans-72"/>
     <use x="230.146484" xlink:href="#DejaVuSans-61"/>
     <use x="291.425781" xlink:href="#DejaVuSans-67"/>
     <use x="354.902344" xlink:href="#DejaVuSans-65"/>
     <use x="416.425781" xlink:href="#DejaVuSans-20"/>
     <use x="448.212891" xlink:href="#DejaVuSans-6d"/>
     <use x="545.625" xlink:href="#DejaVuSans-6f"/>
     <use x="606.806641" xlink:href="#DejaVuSans-6e"/>
     <use x="670.185547" xlink:href="#DejaVuSans-74"/>
     <use x="709.394531" xlink:href="#DejaVuSans-68"/>
     <use x="772.773438" xlink:href="#DejaVuSans-6c"/>
     <use x="800.556641" xlink:href="#DejaVuSans-79"/>
     <use x="859.736328" xlink:href="#DejaVuSans-20"/>
     <use x="891.523438" xlink:href="#DejaVuSans-6e"/>
     <use x="954.902344" xlink:href="#DejaVuSans-6f"/>
     <use x="1016.083984" xlink:href="#DejaVuSans-72"/>
     <use x="1057.181641" xlink:href="#DejaVuSans-6d"/>
     <use x="1154.59375" xlink:href="#DejaVuSans-61"/>
     <use x="1215.873047" xlink:href="#DejaVuSans-6c"/>
     <use x="1243.65625" xlink:href="#DejaVuSans-69"/>
     <use x="1271.439453" xlink:href="#DejaVuSans-7a"/>
     <use x="1323.929688" xlink:href="#DejaVuSans-65"/>
     <use x="1385.453125" xlink:href="#DejaVuSans-64"/>
     <use x="1448.929688" xlink:href="#DejaVuSans-20"/>
     <use x="1480.716797" xlink:href="#DejaVuSans-65"/>
     <use x="1542.240234" xlink:href="#DejaVuSans-6d"/>
     <use x="1639.652344" xlink:href="#DejaVuSans-69"/>
     <use x="1667.435547" xlink:href="#DejaVuSans-73"/>
     <use x="1719.535156" xlink:href="#DejaVuSans-73"/>
     <use x="1771.634766" xlink:href="#DejaVuSans-69"/>
     <use x="1799.417969" xlink:href="#DejaVuSans-6f"/>
     <use x="1860.599609" xlink:href="#DejaVuSans-6e"/>
     <use x="1923.978516" xlink:href="#DejaVuSans-73"/>
    </g>
   </g>
   <g id="legend_1">
    <g id="patch_7">
     <path d="M 47.2185 75.399425 
L 100.490375 75.399425 
Q 102.490375 75.399425 102.490375 73.399425 
L 102.490375 30.36505 
Q 102.490375 28.36505 100.490375 28.36505 
L 47.2185 28.36505 
Q 45.2185 28.36505 45.2185 30.36505 
L 45.2185 73.399425 
Q 45.2185 75.399425 47.2185 75.399425 
z
" style="fill:#ffffff;opacity:0.8;stroke:#cccccc;stroke-linejoin:miter;"/>
    </g>
    <g id="line2d_36">
     <path d="M 49.2185 36.463487 
L 69.2185 36.463487 
" style="fill:none;stroke:#1f77b4;stroke-linecap:square;stroke-width:1.5;"/>
    </g>
    <g id="line2d_37"/>
    <g id="text_20">
     <!-- SOx -->
     <defs>
      <path d="M 53.515625 70.515625 
L 53.515625 60.890625 
Q 47.90625 63.578125 42.921875 64.890625 
Q 37.9375 66.21875 33.296875 66.21875 
Q 25.25 66.21875 20.875 63.09375 
Q 16.5 59.96875 16.5 54.203125 
Q 16.5 49.359375 19.40625 46.890625 
Q 22.3125 44.4375 30.421875 42.921875 
L 36.375 41.703125 
Q 47.40625 39.59375 52.65625 34.296875 
Q 57.90625 29 57.90625 20.125 
Q 57.90625 9.515625 50.796875 4.046875 
Q 43.703125 -1.421875 29.984375 -1.421875 
Q 24.8125 -1.421875 18.96875 -0.25 
Q 13.140625 0.921875 6.890625 3.21875 
L 6.890625 13.375 
Q 12.890625 10.015625 18.65625 8.296875 
Q 24.421875 6.59375 29.984375 6.59375 
Q 38.421875 6.59375 43.015625 9.90625 
Q 47.609375 13.234375 47.609375 19.390625 
Q 47.609375 24.75 44.3125 27.78125 
Q 41.015625 30.8125 33.5 32.328125 
L 27.484375 33.5 
Q 16.453125 35.6875 11.515625 40.375 
Q 6.59375 45.0625 6.59375 53.421875 
Q 6.59375 63.09375 13.40625 68.65625 
Q 20.21875 74.21875 32.171875 74.21875 
Q 37.3125 74.21875 42.625 73.28125 
Q 47.953125 72.359375 53.515625 70.515625 
z
" id="DejaVuSans-53"/>
      <path d="M 39.40625 66.21875 
Q 28.65625 66.21875 22.328125 58.203125 
Q 16.015625 50.203125 16.015625 36.375 
Q 16.015625 22.609375 22.328125 14.59375 
Q 28.65625 6.59375 39.40625 6.59375 
Q 50.140625 6.59375 56.421875 14.59375 
Q 62.703125 22.609375 62.703125 36.375 
Q 62.703125 50.203125 56.421875 58.203125 
Q 50.140625 66.21875 39.40625 66.21875 
z
M 39.40625 74.21875 
Q 54.734375 74.21875 63.90625 63.9375 
Q 73.09375 53.65625 73.09375 36.375 
Q 73.09375 19.140625 63.90625 8.859375 
Q 54.734375 -1.421875 39.40625 -1.421875 
Q 24.03125 -1.421875 14.8125 8.828125 
Q 5.609375 19.09375 5.609375 36.375 
Q 5.609375 53.65625 14.8125 63.9375 
Q 24.03125 74.21875 39.40625 74.21875 
z
" id="DejaVuSans-4f"/>
      <path d="M 54.890625 54.6875 
L 35.109375 28.078125 
L 55.90625 0 
L 45.3125 0 
L 29.390625 21.484375 
L 13.484375 0 
L 2.875 0 
L 24.125 28.609375 
L 4.6875 54.6875 
L 15.28125 54.6875 
L 29.78125 35.203125 
L 44.28125 54.6875 
z
" id="DejaVuSans-78"/>
     </defs>
     <g transform="translate(77.2185 39.963487)scale(0.1 -0.1)">
      <use xlink:href="#DejaVuSans-53"/>
      <use x="63.476562" xlink:href="#DejaVuSans-4f"/>
      <use x="142.1875" xlink:href="#DejaVuSans-78"/>
     </g>
    </g>
    <g id="line2d_38">
     <path d="M 49.2185 51.141613 
L 69.2185 51.141613 
" style="fill:none;stroke:#ff7f0e;stroke-linecap:square;stroke-width:1.5;"/>
    </g>
    <g id="line2d_39"/>
    <g id="text_21">
     <!-- NOx -->
     <defs>
      <path d="M 9.8125 72.90625 
L 23.09375 72.90625 
L 55.421875 11.921875 
L 55.421875 72.90625 
L 64.984375 72.90625 
L 64.984375 0 
L 51.703125 0 
L 19.390625 60.984375 
L 19.390625 0 
L 9.8125 0 
z
" id="DejaVuSans-4e"/>
     </defs>
     <g transform="translate(77.2185 54.641613)scale(0.1 -0.1)">
      <use xlink:href="#DejaVuSans-4e"/>
      <use x="74.804688" xlink:href="#DejaVuSans-4f"/>
      <use x="153.515625" xlink:href="#DejaVuSans-78"/>
     </g>
    </g>
    <g id="line2d_40">
     <path d="M 49.2185 65.819737 
L 69.2185 65.819737 
" style="fill:none;stroke:#2ca02c;stroke-linecap:square;stroke-width:1.5;"/>
    </g>
    <g id="line2d_41"/>
    <g id="text_22">
     <!-- CO2 -->
     <defs>
      <path d="M 64.40625 67.28125 
L 64.40625 56.890625 
Q 59.421875 61.53125 53.78125 63.8125 
Q 48.140625 66.109375 41.796875 66.109375 
Q 29.296875 66.109375 22.65625 58.46875 
Q 16.015625 50.828125 16.015625 36.375 
Q 16.015625 21.96875 22.65625 14.328125 
Q 29.296875 6.6875 41.796875 6.6875 
Q 48.140625 6.6875 53.78125 8.984375 
Q 59.421875 11.28125 64.40625 15.921875 
L 64.40625 5.609375 
Q 59.234375 2.09375 53.4375 0.328125 
Q 47.65625 -1.421875 41.21875 -1.421875 
Q 24.65625 -1.421875 15.125 8.703125 
Q 5.609375 18.84375 5.609375 36.375 
Q 5.609375 53.953125 15.125 64.078125 
Q 24.65625 74.21875 41.21875 74.21875 
Q 47.75 74.21875 53.53125 72.484375 
Q 59.328125 70.75 64.40625 67.28125 
z
" id="DejaVuSans-43"/>
     </defs>
     <g transform="translate(77.2185 69.319737)scale(0.1 -0.1)">
      <use xlink:href="#DejaVuSans-43"/>
      <use x="69.824219" xlink:href="#DejaVuSans-4f"/>
      <use x="148.535156" xlink:href="#DejaVuSans-32"/>
     </g>
    </g>
   </g>
  </g>
 </g>
 <defs>
  <clipPath id="p20bc7af3e7">
   <rect height="286.49845" width="407.2615" x="40.2185" y="23.36505"/>
  </clipPath>
 </defs>
</svg>
