<?xml version="1.0" encoding="utf-8" standalone="no"?>
<!DOCTYPE svg PUBLIC "-//W3C//DTD SVG 1.1//EN"
  "http://www.w3.org/Graphics/SVG/1.1/DTD/svg11.dtd">
<!-- Created with matplotlib (http://matplotlib.org/) -->
<svg height="345.6pt" version="1.1" viewBox="0 0 460.8 345.6" width="460.8pt" xmlns="http://www.w3.org/2000/svg" xmlns:xlink="http://www.w3.org/1999/xlink">
 <defs>
  <style type="text/css">
*{stroke-linecap:butt;stroke-linejoin:round;}
  </style>
 </defs>
 <g id="figure_1">
  <g id="patch_1">
   <path d="M 0 345.6 
L 460.8 345.6 
L 460.8 0 
L 0 0 
z
" style="fill:none;"/>
  </g>
  <g id="axes_1">
   <g id="patch_2">
    <path d="M 29.25025 108.304533 
L 447.377642 108.304533 
L 447.377642 23.36505 
L 29.25025 23.36505 
z
" style="fill:none;"/>
   </g>
   <g id="matplotlib.axis_1">
    <g id="xtick_1">
     <g id="line2d_1">
      <path clip-path="url(#p43b8f10384)" d="M 48.126987 108.304533 
L 48.126987 23.36505 
" style="fill:none;stroke:#b0b0b0;stroke-linecap:square;stroke-width:0.8;"/>
     </g>
     <g id="line2d_2">
      <defs>
       <path d="M 0 0 
L 0 3.5 
" id="m39c23dac43" style="stroke:#000000;stroke-width:0.8;"/>
      </defs>
      <g>
       <use style="stroke:#000000;stroke-width:0.8;" x="48.126987" xlink:href="#m39c23dac43" y="108.304533"/>
      </g>
     </g>
    </g>
    <g id="xtick_2">
     <g id="line2d_3">
      <path clip-path="url(#p43b8f10384)" d="M 104.220054 108.304533 
L 104.220054 23.36505 
" style="fill:none;stroke:#b0b0b0;stroke-linecap:square;stroke-width:0.8;"/>
     </g>
     <g id="line2d_4">
      <g>
       <use style="stroke:#000000;stroke-width:0.8;" x="104.220054" xlink:href="#m39c23dac43" y="108.304533"/>
      </g>
     </g>
    </g>
    <g id="xtick_3">
     <g id="line2d_5">
      <path clip-path="url(#p43b8f10384)" d="M 160.236387 108.304533 
L 160.236387 23.36505 
" style="fill:none;stroke:#b0b0b0;stroke-linecap:square;stroke-width:0.8;"/>
     </g>
     <g id="line2d_6">
      <g>
       <use style="stroke:#000000;stroke-width:0.8;" x="160.236387" xlink:href="#m39c23dac43" y="108.304533"/>
      </g>
     </g>
    </g>
    <g id="xtick_4">
     <g id="line2d_7">
      <path clip-path="url(#p43b8f10384)" d="M 216.329454 108.304533 
L 216.329454 23.36505 
" style="fill:none;stroke:#b0b0b0;stroke-linecap:square;stroke-width:0.8;"/>
     </g>
     <g id="line2d_8">
      <g>
       <use style="stroke:#000000;stroke-width:0.8;" x="216.329454" xlink:href="#m39c23dac43" y="108.304533"/>
      </g>
     </g>
    </g>
    <g id="xtick_5">
     <g id="line2d_9">
      <path clip-path="url(#p43b8f10384)" d="M 272.345786 108.304533 
L 272.345786 23.36505 
" style="fill:none;stroke:#b0b0b0;stroke-linecap:square;stroke-width:0.8;"/>
     </g>
     <g id="line2d_10">
      <g>
       <use style="stroke:#000000;stroke-width:0.8;" x="272.345786" xlink:href="#m39c23dac43" y="108.304533"/>
      </g>
     </g>
    </g>
    <g id="xtick_6">
     <g id="line2d_11">
      <path clip-path="url(#p43b8f10384)" d="M 328.438854 108.304533 
L 328.438854 23.36505 
" style="fill:none;stroke:#b0b0b0;stroke-linecap:square;stroke-width:0.8;"/>
     </g>
     <g id="line2d_12">
      <g>
       <use style="stroke:#000000;stroke-width:0.8;" x="328.438854" xlink:href="#m39c23dac43" y="108.304533"/>
      </g>
     </g>
    </g>
    <g id="xtick_7">
     <g id="line2d_13">
      <path clip-path="url(#p43b8f10384)" d="M 384.455186 108.304533 
L 384.455186 23.36505 
" style="fill:none;stroke:#b0b0b0;stroke-linecap:square;stroke-width:0.8;"/>
     </g>
     <g id="line2d_14">
      <g>
       <use style="stroke:#000000;stroke-width:0.8;" x="384.455186" xlink:href="#m39c23dac43" y="108.304533"/>
      </g>
     </g>
    </g>
    <g id="xtick_8">
     <g id="line2d_15">
      <path clip-path="url(#p43b8f10384)" d="M 440.548254 108.304533 
L 440.548254 23.36505 
" style="fill:none;stroke:#b0b0b0;stroke-linecap:square;stroke-width:0.8;"/>
     </g>
     <g id="line2d_16">
      <g>
       <use style="stroke:#000000;stroke-width:0.8;" x="440.548254" xlink:href="#m39c23dac43" y="108.304533"/>
      </g>
     </g>
    </g>
   </g>
   <g id="matplotlib.axis_2">
    <g id="ytick_1">
     <g id="line2d_17">
      <path clip-path="url(#p43b8f10384)" d="M 29.25025 104.443648 
L 447.377642 104.443648 
" style="fill:none;stroke:#b0b0b0;stroke-linecap:square;stroke-width:0.8;"/>
     </g>
     <g id="line2d_18">
      <defs>
       <path d="M 0 0 
L -3.5 0 
" id="m7ca38fc791" style="stroke:#000000;stroke-width:0.8;"/>
      </defs>
      <g>
       <use style="stroke:#000000;stroke-width:0.8;" x="29.25025" xlink:href="#m7ca38fc791" y="104.443648"/>
      </g>
     </g>
     <g id="text_1">
      <!-- 0.0 -->
      <defs>
       <path d="M 31.78125 66.40625 
Q 24.171875 66.40625 20.328125 58.90625 
Q 16.5 51.421875 16.5 36.375 
Q 16.5 21.390625 20.328125 13.890625 
Q 24.171875 6.390625 31.78125 6.390625 
Q 39.453125 6.390625 43.28125 13.890625 
Q 47.125 21.390625 47.125 36.375 
Q 47.125 51.421875 43.28125 58.90625 
Q 39.453125 66.40625 31.78125 66.40625 
z
M 31.78125 74.21875 
Q 44.046875 74.21875 50.515625 64.515625 
Q 56.984375 54.828125 56.984375 36.375 
Q 56.984375 17.96875 50.515625 8.265625 
Q 44.046875 -1.421875 31.78125 -1.421875 
Q 19.53125 -1.421875 13.0625 8.265625 
Q 6.59375 17.96875 6.59375 36.375 
Q 6.59375 54.828125 13.0625 64.515625 
Q 19.53125 74.21875 31.78125 74.21875 
z
" id="DejaVuSans-30"/>
       <path d="M 10.6875 12.40625 
L 21 12.40625 
L 21 0 
L 10.6875 0 
z
" id="DejaVuSans-2e"/>
      </defs>
      <g transform="translate(6.347125 108.242866)scale(0.1 -0.1)">
       <use xlink:href="#DejaVuSans-30"/>
       <use x="63.623047" xlink:href="#DejaVuSans-2e"/>
       <use x="95.410156" xlink:href="#DejaVuSans-30"/>
      </g>
     </g>
    </g>
    <g id="ytick_2">
     <g id="line2d_19">
      <path clip-path="url(#p43b8f10384)" d="M 29.25025 76.429917 
L 447.377642 76.429917 
" style="fill:none;stroke:#b0b0b0;stroke-linecap:square;stroke-width:0.8;"/>
     </g>
     <g id="line2d_20">
      <g>
       <use style="stroke:#000000;stroke-width:0.8;" x="29.25025" xlink:href="#m7ca38fc791" y="76.429917"/>
      </g>
     </g>
     <g id="text_2">
      <!-- 0.5 -->
      <defs>
       <path d="M 10.796875 72.90625 
L 49.515625 72.90625 
L 49.515625 64.59375 
L 19.828125 64.59375 
L 19.828125 46.734375 
Q 21.96875 47.46875 24.109375 47.828125 
Q 26.265625 48.1875 28.421875 48.1875 
Q 40.625 48.1875 47.75 41.5 
Q 54.890625 34.8125 54.890625 23.390625 
Q 54.890625 11.625 47.5625 5.09375 
Q 40.234375 -1.421875 26.90625 -1.421875 
Q 22.3125 -1.421875 17.546875 -0.640625 
Q 12.796875 0.140625 7.71875 1.703125 
L 7.71875 11.625 
Q 12.109375 9.234375 16.796875 8.0625 
Q 21.484375 6.890625 26.703125 6.890625 
Q 35.15625 6.890625 40.078125 11.328125 
Q 45.015625 15.765625 45.015625 23.390625 
Q 45.015625 31 40.078125 35.4375 
Q 35.15625 39.890625 26.703125 39.890625 
Q 22.75 39.890625 18.8125 39.015625 
Q 14.890625 38.140625 10.796875 36.28125 
z
" id="DejaVuSans-35"/>
      </defs>
      <g transform="translate(6.347125 80.229135)scale(0.1 -0.1)">
       <use xlink:href="#DejaVuSans-30"/>
       <use x="63.623047" xlink:href="#DejaVuSans-2e"/>
       <use x="95.410156" xlink:href="#DejaVuSans-35"/>
      </g>
     </g>
    </g>
    <g id="ytick_3">
     <g id="line2d_21">
      <path clip-path="url(#p43b8f10384)" d="M 29.25025 48.416185 
L 447.377642 48.416185 
" style="fill:none;stroke:#b0b0b0;stroke-linecap:square;stroke-width:0.8;"/>
     </g>
     <g id="line2d_22">
      <g>
       <use style="stroke:#000000;stroke-width:0.8;" x="29.25025" xlink:href="#m7ca38fc791" y="48.416185"/>
      </g>
     </g>
     <g id="text_3">
      <!-- 1.0 -->
      <defs>
       <path d="M 12.40625 8.296875 
L 28.515625 8.296875 
L 28.515625 63.921875 
L 10.984375 60.40625 
L 10.984375 69.390625 
L 28.421875 72.90625 
L 38.28125 72.90625 
L 38.28125 8.296875 
L 54.390625 8.296875 
L 54.390625 0 
L 12.40625 0 
z
" id="DejaVuSans-31"/>
      </defs>
      <g transform="translate(6.347125 52.215404)scale(0.1 -0.1)">
       <use xlink:href="#DejaVuSans-31"/>
       <use x="63.623047" xlink:href="#DejaVuSans-2e"/>
       <use x="95.410156" xlink:href="#DejaVuSans-30"/>
      </g>
     </g>
    </g>
   </g>
   <g id="line2d_23">
    <path clip-path="url(#p43b8f10384)" d="M 29.25025 104.443648 
L 31.629026 94.391754 
L 33.931067 81.4115 
L 36.309843 72.873075 
L 38.688618 79.350179 
L 40.990659 77.648272 
L 43.369435 87.382768 
L 45.671476 69.251626 
L 48.050252 57.672033 
L 50.429028 47.100051 
L 52.654334 46.188284 
L 55.03311 47.787129 
L 57.335151 46.061738 
L 59.713927 75.494049 
L 62.015968 49.927237 
L 64.394744 42.819154 
L 66.773519 42.67449 
L 69.07556 41.868273 
L 71.454336 45.246409 
L 73.756377 85.615071 
L 76.135153 103.039156 
L 78.513929 91.769652 
L 80.6625 38.607331 
L 83.041276 47.553029 
L 85.343317 46.216803 
L 87.722093 63.41869 
L 90.024134 66.50851 
L 92.40291 38.12471 
L 94.781686 40.799363 
L 97.083727 40.348829 
L 99.462502 38.99097 
L 101.764544 38.465066 
L 104.143319 43.543007 
L 106.522095 40.526098 
L 108.670667 38.52546 
L 111.049443 39.709048 
L 113.351484 52.374627 
L 115.730259 85.601923 
L 118.0323 47.206505 
L 120.411076 36.518134 
L 122.789852 30.302457 
L 125.091893 30.264092 
L 127.470669 39.711482 
L 129.77271 54.948891 
L 132.151486 37.290489 
L 134.530261 38.449087 
L 136.678833 37.397599 
L 139.057609 72.096029 
L 141.35965 49.530908 
L 143.738426 36.551833 
L 146.040467 27.225936 
L 148.419242 28.370265 
L 150.798018 28.936354 
L 153.100059 28.99979 
L 155.478835 56.286083 
L 157.780876 38.920591 
L 160.159652 39.347276 
L 162.538428 37.958472 
L 164.763734 38.456768 
L 167.14251 56.476394 
L 169.444551 40.803211 
L 171.823327 48.761368 
L 174.125368 39.764739 
L 176.504143 29.871606 
L 178.882919 29.330011 
L 181.18496 30.135549 
L 183.563736 55.554264 
L 185.865777 43.273602 
L 188.244553 37.647569 
L 190.623329 37.605529 
L 192.7719 51.800316 
L 195.150676 83.255674 
L 197.452717 49.416816 
L 199.831493 46.155462 
L 202.133534 33.847195 
L 204.51231 28.860504 
L 206.891086 28.540043 
L 209.193127 36.507703 
L 211.571902 37.69554 
L 213.873943 54.530361 
L 216.252719 37.867376 
L 218.631495 41.016824 
L 220.780067 38.048863 
L 223.158842 77.109165 
L 225.460883 53.961841 
L 227.839659 40.655982 
L 230.1417 35.673112 
L 232.520476 28.874024 
L 234.899252 28.585314 
L 237.201293 29.309601 
L 239.580069 49.234768 
L 241.88211 35.696319 
L 244.260885 35.210468 
L 246.639661 34.566714 
L 248.788233 41.894296 
L 251.167009 61.860904 
L 253.46905 51.346719 
L 255.847825 74.911143 
L 258.149867 67.124496 
L 260.528642 29.475051 
L 262.907418 27.385207 
L 265.209459 36.387208 
L 267.588235 41.603602 
L 269.890276 81.792144 
L 272.269052 88.495697 
L 274.647828 64.912774 
L 276.873134 41.067858 
L 279.25191 42.150685 
L 281.553951 43.705348 
L 283.932726 95.675103 
L 286.234768 41.946652 
L 288.613543 43.571794 
L 290.992319 39.709048 
L 293.29436 41.189685 
L 295.673136 55.813257 
L 297.975177 81.58504 
L 300.353953 91.361702 
L 302.732729 73.500809 
L 304.8813 83.951804 
L 307.260076 69.030685 
L 309.562117 64.167667 
L 311.940893 101.160754 
L 314.242934 47.868174 
L 316.62171 54.269323 
L 319.000485 52.863724 
L 321.302526 54.478596 
L 323.681302 54.494263 
L 325.983343 69.370634 
L 328.362119 46.514247 
L 330.740895 73.645252 
L 332.889466 57.9403 
L 335.268242 89.829384 
L 337.570283 75.458151 
L 342.2511 52.280129 
L 344.629876 48.433118 
L 347.008652 48.671976 
L 349.310693 48.760223 
L 351.689468 46.723543 
L 353.99151 55.585798 
L 356.370285 79.258132 
L 358.749061 70.38984 
L 360.897633 72.200957 
L 363.276409 84.153642 
L 365.57845 50.515215 
L 367.957225 76.200576 
L 370.259266 39.097834 
L 372.638042 37.891184 
L 375.016818 35.204893 
L 377.318859 38.407814 
L 379.697635 40.816909 
L 381.999676 69.922097 
L 384.378452 69.161697 
L 386.757227 75.554698 
L 388.982534 76.164056 
L 391.36131 93.476594 
L 393.663351 104.443648 
L 396.042126 73.401947 
L 398.344167 38.924615 
L 400.722943 39.257066 
L 403.101719 39.850371 
L 405.40376 47.160068 
L 407.782536 50.889115 
L 410.084577 73.215213 
L 412.463353 93.325778 
L 414.842128 87.981096 
L 416.9907 104.443648 
L 419.369476 86.377619 
L 421.671517 52.901809 
L 424.050293 42.916556 
L 426.352334 41.359841 
L 428.731109 38.973401 
L 431.109885 41.660645 
L 433.411926 46.095257 
L 435.790702 69.772571 
L 438.092743 79.434268 
L 440.471519 71.44619 
L 442.850295 82.499052 
L 444.998866 84.29467 
L 447.377642 98.64185 
L 447.377642 98.64185 
" style="fill:none;stroke:#008000;stroke-linecap:square;stroke-width:1.5;"/>
   </g>
   <g id="patch_3">
    <path d="M 29.25025 108.304533 
L 29.25025 23.36505 
" style="fill:none;stroke:#000000;stroke-linecap:square;stroke-linejoin:miter;stroke-width:0.8;"/>
   </g>
   <g id="patch_4">
    <path d="M 447.377642 108.304533 
L 447.377642 23.36505 
" style="fill:none;stroke:#000000;stroke-linecap:square;stroke-linejoin:miter;stroke-width:0.8;"/>
   </g>
   <g id="patch_5">
    <path d="M 29.25025 108.304533 
L 447.377642 108.304533 
" style="fill:none;stroke:#000000;stroke-linecap:square;stroke-linejoin:miter;stroke-width:0.8;"/>
   </g>
   <g id="patch_6">
    <path d="M 29.25025 23.36505 
L 447.377642 23.36505 
" style="fill:none;stroke:#000000;stroke-linecap:square;stroke-linejoin:miter;stroke-width:0.8;"/>
   </g>
   <g id="text_4">
    <!-- Average monthly normalized emissions -->
    <defs>
     <path d="M 34.1875 63.1875 
L 20.796875 26.90625 
L 47.609375 26.90625 
z
M 28.609375 72.90625 
L 39.796875 72.90625 
L 67.578125 0 
L 57.328125 0 
L 50.6875 18.703125 
L 17.828125 18.703125 
L 11.1875 0 
L 0.78125 0 
z
" id="DejaVuSans-41"/>
     <path d="M 2.984375 54.6875 
L 12.5 54.6875 
L 29.59375 8.796875 
L 46.6875 54.6875 
L 56.203125 54.6875 
L 35.6875 0 
L 23.484375 0 
z
" id="DejaVuSans-76"/>
     <path d="M 56.203125 29.59375 
L 56.203125 25.203125 
L 14.890625 25.203125 
Q 15.484375 15.921875 20.484375 11.0625 
Q 25.484375 6.203125 34.421875 6.203125 
Q 39.59375 6.203125 44.453125 7.46875 
Q 49.3125 8.734375 54.109375 11.28125 
L 54.109375 2.78125 
Q 49.265625 0.734375 44.1875 -0.34375 
Q 39.109375 -1.421875 33.890625 -1.421875 
Q 20.796875 -1.421875 13.15625 6.1875 
Q 5.515625 13.8125 5.515625 26.8125 
Q 5.515625 40.234375 12.765625 48.109375 
Q 20.015625 56 32.328125 56 
Q 43.359375 56 49.78125 48.890625 
Q 56.203125 41.796875 56.203125 29.59375 
z
M 47.21875 32.234375 
Q 47.125 39.59375 43.09375 43.984375 
Q 39.0625 48.390625 32.421875 48.390625 
Q 24.90625 48.390625 20.390625 44.140625 
Q 15.875 39.890625 15.1875 32.171875 
z
" id="DejaVuSans-65"/>
     <path d="M 41.109375 46.296875 
Q 39.59375 47.171875 37.8125 47.578125 
Q 36.03125 48 33.890625 48 
Q 26.265625 48 22.1875 43.046875 
Q 18.109375 38.09375 18.109375 28.8125 
L 18.109375 0 
L 9.078125 0 
L 9.078125 54.6875 
L 18.109375 54.6875 
L 18.109375 46.1875 
Q 20.953125 51.171875 25.484375 53.578125 
Q 30.03125 56 36.53125 56 
Q 37.453125 56 38.578125 55.875 
Q 39.703125 55.765625 41.0625 55.515625 
z
" id="DejaVuSans-72"/>
     <path d="M 34.28125 27.484375 
Q 23.390625 27.484375 19.1875 25 
Q 14.984375 22.515625 14.984375 16.5 
Q 14.984375 11.71875 18.140625 8.90625 
Q 21.296875 6.109375 26.703125 6.109375 
Q 34.1875 6.109375 38.703125 11.40625 
Q 43.21875 16.703125 43.21875 25.484375 
L 43.21875 27.484375 
z
M 52.203125 31.203125 
L 52.203125 0 
L 43.21875 0 
L 43.21875 8.296875 
Q 40.140625 3.328125 35.546875 0.953125 
Q 30.953125 -1.421875 24.3125 -1.421875 
Q 15.921875 -1.421875 10.953125 3.296875 
Q 6 8.015625 6 15.921875 
Q 6 25.140625 12.171875 29.828125 
Q 18.359375 34.515625 30.609375 34.515625 
L 43.21875 34.515625 
L 43.21875 35.40625 
Q 43.21875 41.609375 39.140625 45 
Q 35.0625 48.390625 27.6875 48.390625 
Q 23 48.390625 18.546875 47.265625 
Q 14.109375 46.140625 10.015625 43.890625 
L 10.015625 52.203125 
Q 14.9375 54.109375 19.578125 55.046875 
Q 24.21875 56 28.609375 56 
Q 40.484375 56 46.34375 49.84375 
Q 52.203125 43.703125 52.203125 31.203125 
z
" id="DejaVuSans-61"/>
     <path d="M 45.40625 27.984375 
Q 45.40625 37.75 41.375 43.109375 
Q 37.359375 48.484375 30.078125 48.484375 
Q 22.859375 48.484375 18.828125 43.109375 
Q 14.796875 37.75 14.796875 27.984375 
Q 14.796875 18.265625 18.828125 12.890625 
Q 22.859375 7.515625 30.078125 7.515625 
Q 37.359375 7.515625 41.375 12.890625 
Q 45.40625 18.265625 45.40625 27.984375 
z
M 54.390625 6.78125 
Q 54.390625 -7.171875 48.1875 -13.984375 
Q 42 -20.796875 29.203125 -20.796875 
Q 24.46875 -20.796875 20.265625 -20.09375 
Q 16.0625 -19.390625 12.109375 -17.921875 
L 12.109375 -9.1875 
Q 16.0625 -11.328125 19.921875 -12.34375 
Q 23.78125 -13.375 27.78125 -13.375 
Q 36.625 -13.375 41.015625 -8.765625 
Q 45.40625 -4.15625 45.40625 5.171875 
L 45.40625 9.625 
Q 42.625 4.78125 38.28125 2.390625 
Q 33.9375 0 27.875 0 
Q 17.828125 0 11.671875 7.65625 
Q 5.515625 15.328125 5.515625 27.984375 
Q 5.515625 40.671875 11.671875 48.328125 
Q 17.828125 56 27.875 56 
Q 33.9375 56 38.28125 53.609375 
Q 42.625 51.21875 45.40625 46.390625 
L 45.40625 54.6875 
L 54.390625 54.6875 
z
" id="DejaVuSans-67"/>
     <path id="DejaVuSans-20"/>
     <path d="M 52 44.1875 
Q 55.375 50.25 60.0625 53.125 
Q 64.75 56 71.09375 56 
Q 79.640625 56 84.28125 50.015625 
Q 88.921875 44.046875 88.921875 33.015625 
L 88.921875 0 
L 79.890625 0 
L 79.890625 32.71875 
Q 79.890625 40.578125 77.09375 44.375 
Q 74.3125 48.1875 68.609375 48.1875 
Q 61.625 48.1875 57.5625 43.546875 
Q 53.515625 38.921875 53.515625 30.90625 
L 53.515625 0 
L 44.484375 0 
L 44.484375 32.71875 
Q 44.484375 40.625 41.703125 44.40625 
Q 38.921875 48.1875 33.109375 48.1875 
Q 26.21875 48.1875 22.15625 43.53125 
Q 18.109375 38.875 18.109375 30.90625 
L 18.109375 0 
L 9.078125 0 
L 9.078125 54.6875 
L 18.109375 54.6875 
L 18.109375 46.1875 
Q 21.1875 51.21875 25.484375 53.609375 
Q 29.78125 56 35.6875 56 
Q 41.65625 56 45.828125 52.96875 
Q 50 49.953125 52 44.1875 
z
" id="DejaVuSans-6d"/>
     <path d="M 30.609375 48.390625 
Q 23.390625 48.390625 19.1875 42.75 
Q 14.984375 37.109375 14.984375 27.296875 
Q 14.984375 17.484375 19.15625 11.84375 
Q 23.34375 6.203125 30.609375 6.203125 
Q 37.796875 6.203125 41.984375 11.859375 
Q 46.1875 17.53125 46.1875 27.296875 
Q 46.1875 37.015625 41.984375 42.703125 
Q 37.796875 48.390625 30.609375 48.390625 
z
M 30.609375 56 
Q 42.328125 56 49.015625 48.375 
Q 55.71875 40.765625 55.71875 27.296875 
Q 55.71875 13.875 49.015625 6.21875 
Q 42.328125 -1.421875 30.609375 -1.421875 
Q 18.84375 -1.421875 12.171875 6.21875 
Q 5.515625 13.875 5.515625 27.296875 
Q 5.515625 40.765625 12.171875 48.375 
Q 18.84375 56 30.609375 56 
z
" id="DejaVuSans-6f"/>
     <path d="M 54.890625 33.015625 
L 54.890625 0 
L 45.90625 0 
L 45.90625 32.71875 
Q 45.90625 40.484375 42.875 44.328125 
Q 39.84375 48.1875 33.796875 48.1875 
Q 26.515625 48.1875 22.3125 43.546875 
Q 18.109375 38.921875 18.109375 30.90625 
L 18.109375 0 
L 9.078125 0 
L 9.078125 54.6875 
L 18.109375 54.6875 
L 18.109375 46.1875 
Q 21.34375 51.125 25.703125 53.5625 
Q 30.078125 56 35.796875 56 
Q 45.21875 56 50.046875 50.171875 
Q 54.890625 44.34375 54.890625 33.015625 
z
" id="DejaVuSans-6e"/>
     <path d="M 18.3125 70.21875 
L 18.3125 54.6875 
L 36.8125 54.6875 
L 36.8125 47.703125 
L 18.3125 47.703125 
L 18.3125 18.015625 
Q 18.3125 11.328125 20.140625 9.421875 
Q 21.96875 7.515625 27.59375 7.515625 
L 36.8125 7.515625 
L 36.8125 0 
L 27.59375 0 
Q 17.1875 0 13.234375 3.875 
Q 9.28125 7.765625 9.28125 18.015625 
L 9.28125 47.703125 
L 2.6875 47.703125 
L 2.6875 54.6875 
L 9.28125 54.6875 
L 9.28125 70.21875 
z
" id="DejaVuSans-74"/>
     <path d="M 54.890625 33.015625 
L 54.890625 0 
L 45.90625 0 
L 45.90625 32.71875 
Q 45.90625 40.484375 42.875 44.328125 
Q 39.84375 48.1875 33.796875 48.1875 
Q 26.515625 48.1875 22.3125 43.546875 
Q 18.109375 38.921875 18.109375 30.90625 
L 18.109375 0 
L 9.078125 0 
L 9.078125 75.984375 
L 18.109375 75.984375 
L 18.109375 46.1875 
Q 21.34375 51.125 25.703125 53.5625 
Q 30.078125 56 35.796875 56 
Q 45.21875 56 50.046875 50.171875 
Q 54.890625 44.34375 54.890625 33.015625 
z
" id="DejaVuSans-68"/>
     <path d="M 9.421875 75.984375 
L 18.40625 75.984375 
L 18.40625 0 
L 9.421875 0 
z
" id="DejaVuSans-6c"/>
     <path d="M 32.171875 -5.078125 
Q 28.375 -14.84375 24.75 -17.8125 
Q 21.140625 -20.796875 15.09375 -20.796875 
L 7.90625 -20.796875 
L 7.90625 -13.28125 
L 13.1875 -13.28125 
Q 16.890625 -13.28125 18.9375 -11.515625 
Q 21 -9.765625 23.484375 -3.21875 
L 25.09375 0.875 
L 2.984375 54.6875 
L 12.5 54.6875 
L 29.59375 11.921875 
L 46.6875 54.6875 
L 56.203125 54.6875 
z
" id="DejaVuSans-79"/>
     <path d="M 9.421875 54.6875 
L 18.40625 54.6875 
L 18.40625 0 
L 9.421875 0 
z
M 9.421875 75.984375 
L 18.40625 75.984375 
L 18.40625 64.59375 
L 9.421875 64.59375 
z
" id="DejaVuSans-69"/>
     <path d="M 5.515625 54.6875 
L 48.1875 54.6875 
L 48.1875 46.484375 
L 14.40625 7.171875 
L 48.1875 7.171875 
L 48.1875 0 
L 4.296875 0 
L 4.296875 8.203125 
L 38.09375 47.515625 
L 5.515625 47.515625 
z
" id="DejaVuSans-7a"/>
     <path d="M 45.40625 46.390625 
L 45.40625 75.984375 
L 54.390625 75.984375 
L 54.390625 0 
L 45.40625 0 
L 45.40625 8.203125 
Q 42.578125 3.328125 38.25 0.953125 
Q 33.9375 -1.421875 27.875 -1.421875 
Q 17.96875 -1.421875 11.734375 6.484375 
Q 5.515625 14.40625 5.515625 27.296875 
Q 5.515625 40.1875 11.734375 48.09375 
Q 17.96875 56 27.875 56 
Q 33.9375 56 38.25 53.625 
Q 42.578125 51.265625 45.40625 46.390625 
z
M 14.796875 27.296875 
Q 14.796875 17.390625 18.875 11.75 
Q 22.953125 6.109375 30.078125 6.109375 
Q 37.203125 6.109375 41.296875 11.75 
Q 45.40625 17.390625 45.40625 27.296875 
Q 45.40625 37.203125 41.296875 42.84375 
Q 37.203125 48.484375 30.078125 48.484375 
Q 22.953125 48.484375 18.875 42.84375 
Q 14.796875 37.203125 14.796875 27.296875 
z
" id="DejaVuSans-64"/>
     <path d="M 44.28125 53.078125 
L 44.28125 44.578125 
Q 40.484375 46.53125 36.375 47.5 
Q 32.28125 48.484375 27.875 48.484375 
Q 21.1875 48.484375 17.84375 46.4375 
Q 14.5 44.390625 14.5 40.28125 
Q 14.5 37.15625 16.890625 35.375 
Q 19.28125 33.59375 26.515625 31.984375 
L 29.59375 31.296875 
Q 39.15625 29.25 43.1875 25.515625 
Q 47.21875 21.78125 47.21875 15.09375 
Q 47.21875 7.46875 41.1875 3.015625 
Q 35.15625 -1.421875 24.609375 -1.421875 
Q 20.21875 -1.421875 15.453125 -0.5625 
Q 10.6875 0.296875 5.421875 2 
L 5.421875 11.28125 
Q 10.40625 8.6875 15.234375 7.390625 
Q 20.0625 6.109375 24.8125 6.109375 
Q 31.15625 6.109375 34.5625 8.28125 
Q 37.984375 10.453125 37.984375 14.40625 
Q 37.984375 18.0625 35.515625 20.015625 
Q 33.0625 21.96875 24.703125 23.78125 
L 21.578125 24.515625 
Q 13.234375 26.265625 9.515625 29.90625 
Q 5.8125 33.546875 5.8125 39.890625 
Q 5.8125 47.609375 11.28125 51.796875 
Q 16.75 56 26.8125 56 
Q 31.78125 56 36.171875 55.265625 
Q 40.578125 54.546875 44.28125 53.078125 
z
" id="DejaVuSans-73"/>
    </defs>
    <g transform="translate(119.750196 17.36505)scale(0.12 -0.12)">
     <use xlink:href="#DejaVuSans-41"/>
     <use x="68.330078" xlink:href="#DejaVuSans-76"/>
     <use x="127.509766" xlink:href="#DejaVuSans-65"/>
     <use x="189.033203" xlink:href="#DejaVuSans-72"/>
     <use x="230.146484" xlink:href="#DejaVuSans-61"/>
     <use x="291.425781" xlink:href="#DejaVuSans-67"/>
     <use x="354.902344" xlink:href="#DejaVuSans-65"/>
     <use x="416.425781" xlink:href="#DejaVuSans-20"/>
     <use x="448.212891" xlink:href="#DejaVuSans-6d"/>
     <use x="545.625" xlink:href="#DejaVuSans-6f"/>
     <use x="606.806641" xlink:href="#DejaVuSans-6e"/>
     <use x="670.185547" xlink:href="#DejaVuSans-74"/>
     <use x="709.394531" xlink:href="#DejaVuSans-68"/>
     <use x="772.773438" xlink:href="#DejaVuSans-6c"/>
     <use x="800.556641" xlink:href="#DejaVuSans-79"/>
     <use x="859.736328" xlink:href="#DejaVuSans-20"/>
     <use x="891.523438" xlink:href="#DejaVuSans-6e"/>
     <use x="954.902344" xlink:href="#DejaVuSans-6f"/>
     <use x="1016.083984" xlink:href="#DejaVuSans-72"/>
     <use x="1057.181641" xlink:href="#DejaVuSans-6d"/>
     <use x="1154.59375" xlink:href="#DejaVuSans-61"/>
     <use x="1215.873047" xlink:href="#DejaVuSans-6c"/>
     <use x="1243.65625" xlink:href="#DejaVuSans-69"/>
     <use x="1271.439453" xlink:href="#DejaVuSans-7a"/>
     <use x="1323.929688" xlink:href="#DejaVuSans-65"/>
     <use x="1385.453125" xlink:href="#DejaVuSans-64"/>
     <use x="1448.929688" xlink:href="#DejaVuSans-20"/>
     <use x="1480.716797" xlink:href="#DejaVuSans-65"/>
     <use x="1542.240234" xlink:href="#DejaVuSans-6d"/>
     <use x="1639.652344" xlink:href="#DejaVuSans-69"/>
     <use x="1667.435547" xlink:href="#DejaVuSans-73"/>
     <use x="1719.535156" xlink:href="#DejaVuSans-73"/>
     <use x="1771.634766" xlink:href="#DejaVuSans-69"/>
     <use x="1799.417969" xlink:href="#DejaVuSans-6f"/>
     <use x="1860.599609" xlink:href="#DejaVuSans-6e"/>
     <use x="1923.978516" xlink:href="#DejaVuSans-73"/>
    </g>
   </g>
   <g id="legend_1">
    <g id="patch_7">
     <path d="M 212.02254 103.304533 
L 264.605352 103.304533 
Q 266.605352 103.304533 266.605352 101.304533 
L 266.605352 87.626408 
Q 266.605352 85.626408 264.605352 85.626408 
L 212.02254 85.626408 
Q 210.02254 85.626408 210.02254 87.626408 
L 210.02254 101.304533 
Q 210.02254 103.304533 212.02254 103.304533 
z
" style="fill:#ffffff;opacity:0.8;stroke:#cccccc;stroke-linejoin:miter;"/>
    </g>
    <g id="line2d_24">
     <path d="M 214.02254 93.724846 
L 234.02254 93.724846 
" style="fill:none;stroke:#008000;stroke-linecap:square;stroke-width:1.5;"/>
    </g>
    <g id="line2d_25"/>
    <g id="text_5">
     <!-- SO2 -->
     <defs>
      <path d="M 53.515625 70.515625 
L 53.515625 60.890625 
Q 47.90625 63.578125 42.921875 64.890625 
Q 37.9375 66.21875 33.296875 66.21875 
Q 25.25 66.21875 20.875 63.09375 
Q 16.5 59.96875 16.5 54.203125 
Q 16.5 49.359375 19.40625 46.890625 
Q 22.3125 44.4375 30.421875 42.921875 
L 36.375 41.703125 
Q 47.40625 39.59375 52.65625 34.296875 
Q 57.90625 29 57.90625 20.125 
Q 57.90625 9.515625 50.796875 4.046875 
Q 43.703125 -1.421875 29.984375 -1.421875 
Q 24.8125 -1.421875 18.96875 -0.25 
Q 13.140625 0.921875 6.890625 3.21875 
L 6.890625 13.375 
Q 12.890625 10.015625 18.65625 8.296875 
Q 24.421875 6.59375 29.984375 6.59375 
Q 38.421875 6.59375 43.015625 9.90625 
Q 47.609375 13.234375 47.609375 19.390625 
Q 47.609375 24.75 44.3125 27.78125 
Q 41.015625 30.8125 33.5 32.328125 
L 27.484375 33.5 
Q 16.453125 35.6875 11.515625 40.375 
Q 6.59375 45.0625 6.59375 53.421875 
Q 6.59375 63.09375 13.40625 68.65625 
Q 20.21875 74.21875 32.171875 74.21875 
Q 37.3125 74.21875 42.625 73.28125 
Q 47.953125 72.359375 53.515625 70.515625 
z
" id="DejaVuSans-53"/>
      <path d="M 39.40625 66.21875 
Q 28.65625 66.21875 22.328125 58.203125 
Q 16.015625 50.203125 16.015625 36.375 
Q 16.015625 22.609375 22.328125 14.59375 
Q 28.65625 6.59375 39.40625 6.59375 
Q 50.140625 6.59375 56.421875 14.59375 
Q 62.703125 22.609375 62.703125 36.375 
Q 62.703125 50.203125 56.421875 58.203125 
Q 50.140625 66.21875 39.40625 66.21875 
z
M 39.40625 74.21875 
Q 54.734375 74.21875 63.90625 63.9375 
Q 73.09375 53.65625 73.09375 36.375 
Q 73.09375 19.140625 63.90625 8.859375 
Q 54.734375 -1.421875 39.40625 -1.421875 
Q 24.03125 -1.421875 14.8125 8.828125 
Q 5.609375 19.09375 5.609375 36.375 
Q 5.609375 53.65625 14.8125 63.9375 
Q 24.03125 74.21875 39.40625 74.21875 
z
" id="DejaVuSans-4f"/>
      <path d="M 19.1875 8.296875 
L 53.609375 8.296875 
L 53.609375 0 
L 7.328125 0 
L 7.328125 8.296875 
Q 12.9375 14.109375 22.625 23.890625 
Q 32.328125 33.6875 34.8125 36.53125 
Q 39.546875 41.84375 41.421875 45.53125 
Q 43.3125 49.21875 43.3125 52.78125 
Q 43.3125 58.59375 39.234375 62.25 
Q 35.15625 65.921875 28.609375 65.921875 
Q 23.96875 65.921875 18.8125 64.3125 
Q 13.671875 62.703125 7.8125 59.421875 
L 7.8125 69.390625 
Q 13.765625 71.78125 18.9375 73 
Q 24.125 74.21875 28.421875 74.21875 
Q 39.75 74.21875 46.484375 68.546875 
Q 53.21875 62.890625 53.21875 53.421875 
Q 53.21875 48.921875 51.53125 44.890625 
Q 49.859375 40.875 45.40625 35.40625 
Q 44.1875 33.984375 37.640625 27.21875 
Q 31.109375 20.453125 19.1875 8.296875 
z
" id="DejaVuSans-32"/>
     </defs>
     <g transform="translate(242.02254 97.224846)scale(0.1 -0.1)">
      <use xlink:href="#DejaVuSans-53"/>
      <use x="63.476562" xlink:href="#DejaVuSans-4f"/>
      <use x="142.1875" xlink:href="#DejaVuSans-32"/>
     </g>
    </g>
   </g>
  </g>
  <g id="axes_2">
   <g id="patch_8">
    <path d="M 29.25025 209.084017 
L 447.377642 209.084017 
L 447.377642 124.144533 
L 29.25025 124.144533 
z
" style="fill:none;"/>
   </g>
   <g id="matplotlib.axis_3">
    <g id="xtick_9">
     <g id="line2d_26">
      <path clip-path="url(#p8dcb820b54)" d="M 48.126987 209.084017 
L 48.126987 124.144533 
" style="fill:none;stroke:#b0b0b0;stroke-linecap:square;stroke-width:0.8;"/>
     </g>
     <g id="line2d_27">
      <g>
       <use style="stroke:#000000;stroke-width:0.8;" x="48.126987" xlink:href="#m39c23dac43" y="209.084017"/>
      </g>
     </g>
    </g>
    <g id="xtick_10">
     <g id="line2d_28">
      <path clip-path="url(#p8dcb820b54)" d="M 104.220054 209.084017 
L 104.220054 124.144533 
" style="fill:none;stroke:#b0b0b0;stroke-linecap:square;stroke-width:0.8;"/>
     </g>
     <g id="line2d_29">
      <g>
       <use style="stroke:#000000;stroke-width:0.8;" x="104.220054" xlink:href="#m39c23dac43" y="209.084017"/>
      </g>
     </g>
    </g>
    <g id="xtick_11">
     <g id="line2d_30">
      <path clip-path="url(#p8dcb820b54)" d="M 160.236387 209.084017 
L 160.236387 124.144533 
" style="fill:none;stroke:#b0b0b0;stroke-linecap:square;stroke-width:0.8;"/>
     </g>
     <g id="line2d_31">
      <g>
       <use style="stroke:#000000;stroke-width:0.8;" x="160.236387" xlink:href="#m39c23dac43" y="209.084017"/>
      </g>
     </g>
    </g>
    <g id="xtick_12">
     <g id="line2d_32">
      <path clip-path="url(#p8dcb820b54)" d="M 216.329454 209.084017 
L 216.329454 124.144533 
" style="fill:none;stroke:#b0b0b0;stroke-linecap:square;stroke-width:0.8;"/>
     </g>
     <g id="line2d_33">
      <g>
       <use style="stroke:#000000;stroke-width:0.8;" x="216.329454" xlink:href="#m39c23dac43" y="209.084017"/>
      </g>
     </g>
    </g>
    <g id="xtick_13">
     <g id="line2d_34">
      <path clip-path="url(#p8dcb820b54)" d="M 272.345786 209.084017 
L 272.345786 124.144533 
" style="fill:none;stroke:#b0b0b0;stroke-linecap:square;stroke-width:0.8;"/>
     </g>
     <g id="line2d_35">
      <g>
       <use style="stroke:#000000;stroke-width:0.8;" x="272.345786" xlink:href="#m39c23dac43" y="209.084017"/>
      </g>
     </g>
    </g>
    <g id="xtick_14">
     <g id="line2d_36">
      <path clip-path="url(#p8dcb820b54)" d="M 328.438854 209.084017 
L 328.438854 124.144533 
" style="fill:none;stroke:#b0b0b0;stroke-linecap:square;stroke-width:0.8;"/>
     </g>
     <g id="line2d_37">
      <g>
       <use style="stroke:#000000;stroke-width:0.8;" x="328.438854" xlink:href="#m39c23dac43" y="209.084017"/>
      </g>
     </g>
    </g>
    <g id="xtick_15">
     <g id="line2d_38">
      <path clip-path="url(#p8dcb820b54)" d="M 384.455186 209.084017 
L 384.455186 124.144533 
" style="fill:none;stroke:#b0b0b0;stroke-linecap:square;stroke-width:0.8;"/>
     </g>
     <g id="line2d_39">
      <g>
       <use style="stroke:#000000;stroke-width:0.8;" x="384.455186" xlink:href="#m39c23dac43" y="209.084017"/>
      </g>
     </g>
    </g>
    <g id="xtick_16">
     <g id="line2d_40">
      <path clip-path="url(#p8dcb820b54)" d="M 440.548254 209.084017 
L 440.548254 124.144533 
" style="fill:none;stroke:#b0b0b0;stroke-linecap:square;stroke-width:0.8;"/>
     </g>
     <g id="line2d_41">
      <g>
       <use style="stroke:#000000;stroke-width:0.8;" x="440.548254" xlink:href="#m39c23dac43" y="209.084017"/>
      </g>
     </g>
    </g>
   </g>
   <g id="matplotlib.axis_4">
    <g id="ytick_4">
     <g id="line2d_42">
      <path clip-path="url(#p8dcb820b54)" d="M 29.25025 205.223131 
L 447.377642 205.223131 
" style="fill:none;stroke:#b0b0b0;stroke-linecap:square;stroke-width:0.8;"/>
     </g>
     <g id="line2d_43">
      <g>
       <use style="stroke:#000000;stroke-width:0.8;" x="29.25025" xlink:href="#m7ca38fc791" y="205.223131"/>
      </g>
     </g>
     <g id="text_6">
      <!-- 0.0 -->
      <g transform="translate(6.347125 209.02235)scale(0.1 -0.1)">
       <use xlink:href="#DejaVuSans-30"/>
       <use x="63.623047" xlink:href="#DejaVuSans-2e"/>
       <use x="95.410156" xlink:href="#DejaVuSans-30"/>
      </g>
     </g>
    </g>
    <g id="ytick_5">
     <g id="line2d_44">
      <path clip-path="url(#p8dcb820b54)" d="M 29.25025 176.319622 
L 447.377642 176.319622 
" style="fill:none;stroke:#b0b0b0;stroke-linecap:square;stroke-width:0.8;"/>
     </g>
     <g id="line2d_45">
      <g>
       <use style="stroke:#000000;stroke-width:0.8;" x="29.25025" xlink:href="#m7ca38fc791" y="176.319622"/>
      </g>
     </g>
     <g id="text_7">
      <!-- 0.5 -->
      <g transform="translate(6.347125 180.118841)scale(0.1 -0.1)">
       <use xlink:href="#DejaVuSans-30"/>
       <use x="63.623047" xlink:href="#DejaVuSans-2e"/>
       <use x="95.410156" xlink:href="#DejaVuSans-35"/>
      </g>
     </g>
    </g>
    <g id="ytick_6">
     <g id="line2d_46">
      <path clip-path="url(#p8dcb820b54)" d="M 29.25025 147.416113 
L 447.377642 147.416113 
" style="fill:none;stroke:#b0b0b0;stroke-linecap:square;stroke-width:0.8;"/>
     </g>
     <g id="line2d_47">
      <g>
       <use style="stroke:#000000;stroke-width:0.8;" x="29.25025" xlink:href="#m7ca38fc791" y="147.416113"/>
      </g>
     </g>
     <g id="text_8">
      <!-- 1.0 -->
      <g transform="translate(6.347125 151.215332)scale(0.1 -0.1)">
       <use xlink:href="#DejaVuSans-31"/>
       <use x="63.623047" xlink:href="#DejaVuSans-2e"/>
       <use x="95.410156" xlink:href="#DejaVuSans-30"/>
      </g>
     </g>
    </g>
   </g>
   <g id="line2d_48">
    <path clip-path="url(#p8dcb820b54)" d="M 29.25025 205.223131 
L 31.629026 187.962582 
L 33.931067 178.831653 
L 36.309843 173.192009 
L 38.688618 177.636405 
L 40.990659 176.974841 
L 43.369435 166.815821 
L 45.671476 159.447882 
L 48.050252 156.893008 
L 50.429028 146.005987 
L 55.03311 147.042784 
L 57.335151 146.032424 
L 59.713927 171.823104 
L 62.015968 149.34652 
L 64.394744 145.532763 
L 66.773519 145.380196 
L 69.07556 144.222628 
L 71.454336 146.756091 
L 73.756377 181.495859 
L 76.135153 200.972038 
L 78.513929 191.479882 
L 80.6625 140.972467 
L 83.041276 148.311012 
L 85.343317 147.176021 
L 87.722093 158.656159 
L 90.024134 166.380621 
L 92.40291 139.03929 
L 94.781686 144.300815 
L 97.083727 142.882216 
L 99.462502 140.514802 
L 101.764544 138.825208 
L 104.143319 143.989039 
L 106.522095 142.29526 
L 108.670667 138.902956 
L 111.049443 141.224948 
L 113.351484 150.584852 
L 115.730259 182.806132 
L 118.0323 146.30969 
L 120.411076 136.741446 
L 122.789852 131.430375 
L 125.091893 130.863338 
L 127.470669 139.4631 
L 129.77271 154.209847 
L 132.151486 137.802903 
L 134.530261 139.203312 
L 136.678833 137.981913 
L 139.057609 160.101079 
L 143.738426 137.852819 
L 146.040467 128.746405 
L 148.419242 130.365249 
L 150.798018 130.185011 
L 153.100059 129.838811 
L 155.478835 153.661982 
L 157.780876 138.475017 
L 160.159652 139.330776 
L 162.538428 138.048266 
L 164.763734 139.82912 
L 167.14251 154.990218 
L 169.444551 140.578927 
L 171.823327 147.987105 
L 174.125368 141.689688 
L 176.504143 133.515597 
L 178.882919 132.63437 
L 181.18496 133.965672 
L 183.563736 156.38672 
L 185.865777 143.316615 
L 188.244553 139.878485 
L 190.623329 140.314696 
L 192.7719 153.252655 
L 195.150676 183.857472 
L 197.452717 147.640205 
L 199.831493 149.000562 
L 202.133534 135.025911 
L 204.51231 128.737538 
L 206.891086 128.005419 
L 209.193127 134.748796 
L 211.571902 136.472928 
L 213.873943 152.266623 
L 216.252719 136.715394 
L 218.631495 139.483978 
L 220.780067 134.346759 
L 223.158842 178.627028 
L 225.460883 150.666323 
L 227.839659 138.858011 
L 230.1417 134.154159 
L 232.520476 133.562726 
L 234.899252 133.402995 
L 237.201293 133.665618 
L 239.580069 151.236949 
L 241.88211 138.20703 
L 244.260885 138.908897 
L 246.639661 138.449658 
L 248.788233 145.299161 
L 251.167009 162.476153 
L 253.46905 152.557368 
L 255.847825 171.428905 
L 258.149867 161.731396 
L 260.528642 133.610106 
L 262.907418 131.469729 
L 265.209459 138.461969 
L 267.588235 144.475611 
L 269.890276 180.987784 
L 272.269052 189.018468 
L 276.873134 144.684004 
L 279.25191 145.429346 
L 281.553951 146.76706 
L 283.932726 194.497105 
L 286.234768 145.176358 
L 288.613543 146.575745 
L 290.992319 143.259698 
L 293.29436 143.894427 
L 295.673136 156.76487 
L 297.975177 181.265339 
L 300.353953 189.553399 
L 302.732729 175.400042 
L 304.8813 184.736729 
L 307.260076 166.816505 
L 309.562117 159.3851 
L 311.940893 199.090044 
L 314.242934 141.138099 
L 316.62171 147.353693 
L 319.000485 146.605248 
L 321.302526 146.433524 
L 323.681302 147.746765 
L 325.983343 164.773489 
L 328.362119 143.151848 
L 330.740895 173.531571 
L 332.889466 149.711634 
L 335.268242 183.608576 
L 337.570283 162.546756 
L 342.2511 142.640016 
L 344.629876 141.527536 
L 347.008652 143.748881 
L 349.310693 143.637061 
L 351.689468 141.620319 
L 353.99151 150.49226 
L 356.370285 178.891484 
L 358.749061 171.310056 
L 360.897633 173.83595 
L 363.276409 183.188558 
L 365.57845 142.113062 
L 367.957225 175.363133 
L 370.259266 143.168044 
L 372.638042 142.623895 
L 375.016818 140.275607 
L 377.318859 143.490138 
L 379.697635 145.809143 
L 381.999676 167.282279 
L 384.378452 163.199055 
L 386.757227 162.122527 
L 388.982534 166.95331 
L 391.36131 193.290213 
L 393.663351 205.223131 
L 396.042126 165.523106 
L 398.344167 140.828096 
L 400.722943 140.305049 
L 403.101719 141.356713 
L 405.40376 143.902403 
L 407.782536 145.092565 
L 410.084577 168.395088 
L 412.463353 187.981936 
L 414.842128 178.468382 
L 416.9907 205.223131 
L 419.369476 184.217272 
L 421.671517 154.382199 
L 424.050293 147.499575 
L 426.352334 145.927917 
L 428.731109 143.988501 
L 431.109885 145.266367 
L 433.411926 147.499602 
L 435.790702 173.01109 
L 438.092743 180.400106 
L 440.471519 169.126814 
L 442.850295 182.476797 
L 444.998866 184.400586 
L 447.377642 194.699413 
L 447.377642 194.699413 
" style="fill:none;stroke:#f97306;stroke-linecap:square;stroke-width:1.5;"/>
   </g>
   <g id="patch_9">
    <path d="M 29.25025 209.084017 
L 29.25025 124.144533 
" style="fill:none;stroke:#000000;stroke-linecap:square;stroke-linejoin:miter;stroke-width:0.8;"/>
   </g>
   <g id="patch_10">
    <path d="M 447.377642 209.084017 
L 447.377642 124.144533 
" style="fill:none;stroke:#000000;stroke-linecap:square;stroke-linejoin:miter;stroke-width:0.8;"/>
   </g>
   <g id="patch_11">
    <path d="M 29.25025 209.084017 
L 447.377642 209.084017 
" style="fill:none;stroke:#000000;stroke-linecap:square;stroke-linejoin:miter;stroke-width:0.8;"/>
   </g>
   <g id="patch_12">
    <path d="M 29.25025 124.144533 
L 447.377642 124.144533 
" style="fill:none;stroke:#000000;stroke-linecap:square;stroke-linejoin:miter;stroke-width:0.8;"/>
   </g>
   <g id="legend_2">
    <g id="patch_13">
     <path d="M 211.678009 204.084017 
L 264.949884 204.084017 
Q 266.949884 204.084017 266.949884 202.084017 
L 266.949884 188.405892 
Q 266.949884 186.405892 264.949884 186.405892 
L 211.678009 186.405892 
Q 209.678009 186.405892 209.678009 188.405892 
L 209.678009 202.084017 
Q 209.678009 204.084017 211.678009 204.084017 
z
" style="fill:#ffffff;opacity:0.8;stroke:#cccccc;stroke-linejoin:miter;"/>
    </g>
    <g id="line2d_49">
     <path d="M 213.678009 194.504329 
L 233.678009 194.504329 
" style="fill:none;stroke:#f97306;stroke-linecap:square;stroke-width:1.5;"/>
    </g>
    <g id="line2d_50"/>
    <g id="text_9">
     <!-- NOx -->
     <defs>
      <path d="M 9.8125 72.90625 
L 23.09375 72.90625 
L 55.421875 11.921875 
L 55.421875 72.90625 
L 64.984375 72.90625 
L 64.984375 0 
L 51.703125 0 
L 19.390625 60.984375 
L 19.390625 0 
L 9.8125 0 
z
" id="DejaVuSans-4e"/>
      <path d="M 54.890625 54.6875 
L 35.109375 28.078125 
L 55.90625 0 
L 45.3125 0 
L 29.390625 21.484375 
L 13.484375 0 
L 2.875 0 
L 24.125 28.609375 
L 4.6875 54.6875 
L 15.28125 54.6875 
L 29.78125 35.203125 
L 44.28125 54.6875 
z
" id="DejaVuSans-78"/>
     </defs>
     <g transform="translate(241.678009 198.004329)scale(0.1 -0.1)">
      <use xlink:href="#DejaVuSans-4e"/>
      <use x="74.804688" xlink:href="#DejaVuSans-4f"/>
      <use x="153.515625" xlink:href="#DejaVuSans-78"/>
     </g>
    </g>
   </g>
  </g>
  <g id="axes_3">
   <g id="patch_14">
    <path d="M 29.25025 309.8635 
L 447.377642 309.8635 
L 447.377642 224.924017 
L 29.25025 224.924017 
z
" style="fill:none;"/>
   </g>
   <g id="matplotlib.axis_5">
    <g id="xtick_17">
     <g id="line2d_51">
      <path clip-path="url(#paf82044fde)" d="M 48.126987 309.8635 
L 48.126987 224.924017 
" style="fill:none;stroke:#b0b0b0;stroke-linecap:square;stroke-width:0.8;"/>
     </g>
     <g id="line2d_52">
      <g>
       <use style="stroke:#000000;stroke-width:0.8;" x="48.126987" xlink:href="#m39c23dac43" y="309.8635"/>
      </g>
     </g>
     <g id="text_10">
      <!-- 2004 -->
      <defs>
       <path d="M 37.796875 64.3125 
L 12.890625 25.390625 
L 37.796875 25.390625 
z
M 35.203125 72.90625 
L 47.609375 72.90625 
L 47.609375 25.390625 
L 58.015625 25.390625 
L 58.015625 17.1875 
L 47.609375 17.1875 
L 47.609375 0 
L 37.796875 0 
L 37.796875 17.1875 
L 4.890625 17.1875 
L 4.890625 26.703125 
z
" id="DejaVuSans-34"/>
      </defs>
      <g transform="translate(35.401987 324.461937)scale(0.1 -0.1)">
       <use xlink:href="#DejaVuSans-32"/>
       <use x="63.623047" xlink:href="#DejaVuSans-30"/>
       <use x="127.246094" xlink:href="#DejaVuSans-30"/>
       <use x="190.869141" xlink:href="#DejaVuSans-34"/>
      </g>
     </g>
    </g>
    <g id="xtick_18">
     <g id="line2d_53">
      <path clip-path="url(#paf82044fde)" d="M 104.220054 309.8635 
L 104.220054 224.924017 
" style="fill:none;stroke:#b0b0b0;stroke-linecap:square;stroke-width:0.8;"/>
     </g>
     <g id="line2d_54">
      <g>
       <use style="stroke:#000000;stroke-width:0.8;" x="104.220054" xlink:href="#m39c23dac43" y="309.8635"/>
      </g>
     </g>
     <g id="text_11">
      <!-- 2006 -->
      <defs>
       <path d="M 33.015625 40.375 
Q 26.375 40.375 22.484375 35.828125 
Q 18.609375 31.296875 18.609375 23.390625 
Q 18.609375 15.53125 22.484375 10.953125 
Q 26.375 6.390625 33.015625 6.390625 
Q 39.65625 6.390625 43.53125 10.953125 
Q 47.40625 15.53125 47.40625 23.390625 
Q 47.40625 31.296875 43.53125 35.828125 
Q 39.65625 40.375 33.015625 40.375 
z
M 52.59375 71.296875 
L 52.59375 62.3125 
Q 48.875 64.0625 45.09375 64.984375 
Q 41.3125 65.921875 37.59375 65.921875 
Q 27.828125 65.921875 22.671875 59.328125 
Q 17.53125 52.734375 16.796875 39.40625 
Q 19.671875 43.65625 24.015625 45.921875 
Q 28.375 48.1875 33.59375 48.1875 
Q 44.578125 48.1875 50.953125 41.515625 
Q 57.328125 34.859375 57.328125 23.390625 
Q 57.328125 12.15625 50.6875 5.359375 
Q 44.046875 -1.421875 33.015625 -1.421875 
Q 20.359375 -1.421875 13.671875 8.265625 
Q 6.984375 17.96875 6.984375 36.375 
Q 6.984375 53.65625 15.1875 63.9375 
Q 23.390625 74.21875 37.203125 74.21875 
Q 40.921875 74.21875 44.703125 73.484375 
Q 48.484375 72.75 52.59375 71.296875 
z
" id="DejaVuSans-36"/>
      </defs>
      <g transform="translate(91.495054 324.461937)scale(0.1 -0.1)">
       <use xlink:href="#DejaVuSans-32"/>
       <use x="63.623047" xlink:href="#DejaVuSans-30"/>
       <use x="127.246094" xlink:href="#DejaVuSans-30"/>
       <use x="190.869141" xlink:href="#DejaVuSans-36"/>
      </g>
     </g>
    </g>
    <g id="xtick_19">
     <g id="line2d_55">
      <path clip-path="url(#paf82044fde)" d="M 160.236387 309.8635 
L 160.236387 224.924017 
" style="fill:none;stroke:#b0b0b0;stroke-linecap:square;stroke-width:0.8;"/>
     </g>
     <g id="line2d_56">
      <g>
       <use style="stroke:#000000;stroke-width:0.8;" x="160.236387" xlink:href="#m39c23dac43" y="309.8635"/>
      </g>
     </g>
     <g id="text_12">
      <!-- 2008 -->
      <defs>
       <path d="M 31.78125 34.625 
Q 24.75 34.625 20.71875 30.859375 
Q 16.703125 27.09375 16.703125 20.515625 
Q 16.703125 13.921875 20.71875 10.15625 
Q 24.75 6.390625 31.78125 6.390625 
Q 38.8125 6.390625 42.859375 10.171875 
Q 46.921875 13.96875 46.921875 20.515625 
Q 46.921875 27.09375 42.890625 30.859375 
Q 38.875 34.625 31.78125 34.625 
z
M 21.921875 38.8125 
Q 15.578125 40.375 12.03125 44.71875 
Q 8.5 49.078125 8.5 55.328125 
Q 8.5 64.0625 14.71875 69.140625 
Q 20.953125 74.21875 31.78125 74.21875 
Q 42.671875 74.21875 48.875 69.140625 
Q 55.078125 64.0625 55.078125 55.328125 
Q 55.078125 49.078125 51.53125 44.71875 
Q 48 40.375 41.703125 38.8125 
Q 48.828125 37.15625 52.796875 32.3125 
Q 56.78125 27.484375 56.78125 20.515625 
Q 56.78125 9.90625 50.3125 4.234375 
Q 43.84375 -1.421875 31.78125 -1.421875 
Q 19.734375 -1.421875 13.25 4.234375 
Q 6.78125 9.90625 6.78125 20.515625 
Q 6.78125 27.484375 10.78125 32.3125 
Q 14.796875 37.15625 21.921875 38.8125 
z
M 18.3125 54.390625 
Q 18.3125 48.734375 21.84375 45.5625 
Q 25.390625 42.390625 31.78125 42.390625 
Q 38.140625 42.390625 41.71875 45.5625 
Q 45.3125 48.734375 45.3125 54.390625 
Q 45.3125 60.0625 41.71875 63.234375 
Q 38.140625 66.40625 31.78125 66.40625 
Q 25.390625 66.40625 21.84375 63.234375 
Q 18.3125 60.0625 18.3125 54.390625 
z
" id="DejaVuSans-38"/>
      </defs>
      <g transform="translate(147.511387 324.461937)scale(0.1 -0.1)">
       <use xlink:href="#DejaVuSans-32"/>
       <use x="63.623047" xlink:href="#DejaVuSans-30"/>
       <use x="127.246094" xlink:href="#DejaVuSans-30"/>
       <use x="190.869141" xlink:href="#DejaVuSans-38"/>
      </g>
     </g>
    </g>
    <g id="xtick_20">
     <g id="line2d_57">
      <path clip-path="url(#paf82044fde)" d="M 216.329454 309.8635 
L 216.329454 224.924017 
" style="fill:none;stroke:#b0b0b0;stroke-linecap:square;stroke-width:0.8;"/>
     </g>
     <g id="line2d_58">
      <g>
       <use style="stroke:#000000;stroke-width:0.8;" x="216.329454" xlink:href="#m39c23dac43" y="309.8635"/>
      </g>
     </g>
     <g id="text_13">
      <!-- 2010 -->
      <g transform="translate(203.604454 324.461937)scale(0.1 -0.1)">
       <use xlink:href="#DejaVuSans-32"/>
       <use x="63.623047" xlink:href="#DejaVuSans-30"/>
       <use x="127.246094" xlink:href="#DejaVuSans-31"/>
       <use x="190.869141" xlink:href="#DejaVuSans-30"/>
      </g>
     </g>
    </g>
    <g id="xtick_21">
     <g id="line2d_59">
      <path clip-path="url(#paf82044fde)" d="M 272.345786 309.8635 
L 272.345786 224.924017 
" style="fill:none;stroke:#b0b0b0;stroke-linecap:square;stroke-width:0.8;"/>
     </g>
     <g id="line2d_60">
      <g>
       <use style="stroke:#000000;stroke-width:0.8;" x="272.345786" xlink:href="#m39c23dac43" y="309.8635"/>
      </g>
     </g>
     <g id="text_14">
      <!-- 2012 -->
      <g transform="translate(259.620786 324.461937)scale(0.1 -0.1)">
       <use xlink:href="#DejaVuSans-32"/>
       <use x="63.623047" xlink:href="#DejaVuSans-30"/>
       <use x="127.246094" xlink:href="#DejaVuSans-31"/>
       <use x="190.869141" xlink:href="#DejaVuSans-32"/>
      </g>
     </g>
    </g>
    <g id="xtick_22">
     <g id="line2d_61">
      <path clip-path="url(#paf82044fde)" d="M 328.438854 309.8635 
L 328.438854 224.924017 
" style="fill:none;stroke:#b0b0b0;stroke-linecap:square;stroke-width:0.8;"/>
     </g>
     <g id="line2d_62">
      <g>
       <use style="stroke:#000000;stroke-width:0.8;" x="328.438854" xlink:href="#m39c23dac43" y="309.8635"/>
      </g>
     </g>
     <g id="text_15">
      <!-- 2014 -->
      <g transform="translate(315.713854 324.461937)scale(0.1 -0.1)">
       <use xlink:href="#DejaVuSans-32"/>
       <use x="63.623047" xlink:href="#DejaVuSans-30"/>
       <use x="127.246094" xlink:href="#DejaVuSans-31"/>
       <use x="190.869141" xlink:href="#DejaVuSans-34"/>
      </g>
     </g>
    </g>
    <g id="xtick_23">
     <g id="line2d_63">
      <path clip-path="url(#paf82044fde)" d="M 384.455186 309.8635 
L 384.455186 224.924017 
" style="fill:none;stroke:#b0b0b0;stroke-linecap:square;stroke-width:0.8;"/>
     </g>
     <g id="line2d_64">
      <g>
       <use style="stroke:#000000;stroke-width:0.8;" x="384.455186" xlink:href="#m39c23dac43" y="309.8635"/>
      </g>
     </g>
     <g id="text_16">
      <!-- 2016 -->
      <g transform="translate(371.730186 324.461937)scale(0.1 -0.1)">
       <use xlink:href="#DejaVuSans-32"/>
       <use x="63.623047" xlink:href="#DejaVuSans-30"/>
       <use x="127.246094" xlink:href="#DejaVuSans-31"/>
       <use x="190.869141" xlink:href="#DejaVuSans-36"/>
      </g>
     </g>
    </g>
    <g id="xtick_24">
     <g id="line2d_65">
      <path clip-path="url(#paf82044fde)" d="M 440.548254 309.8635 
L 440.548254 224.924017 
" style="fill:none;stroke:#b0b0b0;stroke-linecap:square;stroke-width:0.8;"/>
     </g>
     <g id="line2d_66">
      <g>
       <use style="stroke:#000000;stroke-width:0.8;" x="440.548254" xlink:href="#m39c23dac43" y="309.8635"/>
      </g>
     </g>
     <g id="text_17">
      <!-- 2018 -->
      <g transform="translate(427.823254 324.461937)scale(0.1 -0.1)">
       <use xlink:href="#DejaVuSans-32"/>
       <use x="63.623047" xlink:href="#DejaVuSans-30"/>
       <use x="127.246094" xlink:href="#DejaVuSans-31"/>
       <use x="190.869141" xlink:href="#DejaVuSans-38"/>
      </g>
     </g>
    </g>
    <g id="text_18">
     <!-- Date -->
     <defs>
      <path d="M 19.671875 64.796875 
L 19.671875 8.109375 
L 31.59375 8.109375 
Q 46.6875 8.109375 53.6875 14.9375 
Q 60.6875 21.78125 60.6875 36.53125 
Q 60.6875 51.171875 53.6875 57.984375 
Q 46.6875 64.796875 31.59375 64.796875 
z
M 9.8125 72.90625 
L 30.078125 72.90625 
Q 51.265625 72.90625 61.171875 64.09375 
Q 71.09375 55.28125 71.09375 36.53125 
Q 71.09375 17.671875 61.125 8.828125 
Q 51.171875 0 30.078125 0 
L 9.8125 0 
z
" id="DejaVuSans-44"/>
     </defs>
     <g transform="translate(226.363165 338.140062)scale(0.1 -0.1)">
      <use xlink:href="#DejaVuSans-44"/>
      <use x="77.001953" xlink:href="#DejaVuSans-61"/>
      <use x="138.28125" xlink:href="#DejaVuSans-74"/>
      <use x="177.490234" xlink:href="#DejaVuSans-65"/>
     </g>
    </g>
   </g>
   <g id="matplotlib.axis_6">
    <g id="ytick_7">
     <g id="line2d_67">
      <path clip-path="url(#paf82044fde)" d="M 29.25025 306.002614 
L 447.377642 306.002614 
" style="fill:none;stroke:#b0b0b0;stroke-linecap:square;stroke-width:0.8;"/>
     </g>
     <g id="line2d_68">
      <g>
       <use style="stroke:#000000;stroke-width:0.8;" x="29.25025" xlink:href="#m7ca38fc791" y="306.002614"/>
      </g>
     </g>
     <g id="text_19">
      <!-- 0.0 -->
      <g transform="translate(6.347125 309.801833)scale(0.1 -0.1)">
       <use xlink:href="#DejaVuSans-30"/>
       <use x="63.623047" xlink:href="#DejaVuSans-2e"/>
       <use x="95.410156" xlink:href="#DejaVuSans-30"/>
      </g>
     </g>
    </g>
    <g id="ytick_8">
     <g id="line2d_69">
      <path clip-path="url(#paf82044fde)" d="M 29.25025 277.983991 
L 447.377642 277.983991 
" style="fill:none;stroke:#b0b0b0;stroke-linecap:square;stroke-width:0.8;"/>
     </g>
     <g id="line2d_70">
      <g>
       <use style="stroke:#000000;stroke-width:0.8;" x="29.25025" xlink:href="#m7ca38fc791" y="277.983991"/>
      </g>
     </g>
     <g id="text_20">
      <!-- 0.5 -->
      <g transform="translate(6.347125 281.783209)scale(0.1 -0.1)">
       <use xlink:href="#DejaVuSans-30"/>
       <use x="63.623047" xlink:href="#DejaVuSans-2e"/>
       <use x="95.410156" xlink:href="#DejaVuSans-35"/>
      </g>
     </g>
    </g>
    <g id="ytick_9">
     <g id="line2d_71">
      <path clip-path="url(#paf82044fde)" d="M 29.25025 249.965367 
L 447.377642 249.965367 
" style="fill:none;stroke:#b0b0b0;stroke-linecap:square;stroke-width:0.8;"/>
     </g>
     <g id="line2d_72">
      <g>
       <use style="stroke:#000000;stroke-width:0.8;" x="29.25025" xlink:href="#m7ca38fc791" y="249.965367"/>
      </g>
     </g>
     <g id="text_21">
      <!-- 1.0 -->
      <g transform="translate(6.347125 253.764586)scale(0.1 -0.1)">
       <use xlink:href="#DejaVuSans-31"/>
       <use x="63.623047" xlink:href="#DejaVuSans-2e"/>
       <use x="95.410156" xlink:href="#DejaVuSans-30"/>
      </g>
     </g>
    </g>
   </g>
   <g id="line2d_73">
    <path clip-path="url(#paf82044fde)" d="M 29.25025 306.002614 
L 31.629026 295.950566 
L 33.931067 282.970032 
L 36.309843 274.431656 
L 38.688618 280.909477 
L 40.990659 279.206408 
L 43.369435 288.941609 
L 45.671476 270.811127 
L 48.050252 259.231573 
L 50.429028 248.659167 
L 52.654334 247.74697 
L 55.03311 249.34631 
L 57.335151 247.622429 
L 59.713927 277.05315 
L 62.015968 251.485458 
L 64.394744 244.378005 
L 66.773519 244.232683 
L 69.07556 243.427057 
L 71.454336 246.808588 
L 73.756377 287.176999 
L 76.135153 304.598272 
L 78.513929 293.329123 
L 80.6625 240.165615 
L 83.041276 249.111419 
L 85.343317 247.775885 
L 87.722093 264.97721 
L 90.024134 268.067232 
L 92.40291 239.683595 
L 94.781686 242.358636 
L 97.083727 241.908255 
L 99.462502 240.55097 
L 101.764544 240.023252 
L 104.143319 245.103024 
L 106.522095 242.085154 
L 108.670667 240.083466 
L 111.049443 241.26817 
L 113.351484 253.935207 
L 115.730259 287.161929 
L 118.0323 248.768144 
L 120.411076 238.07983 
L 122.789852 231.865166 
L 125.091893 231.824744 
L 127.470669 241.301378 
L 129.77271 256.51066 
L 132.151486 238.851114 
L 134.530261 240.008981 
L 136.678833 238.95468 
L 139.057609 273.657454 
L 141.35965 251.091291 
L 143.738426 238.109629 
L 146.040467 228.784902 
L 148.419242 229.929552 
L 150.798018 230.49659 
L 153.100059 230.560268 
L 155.478835 257.846174 
L 157.780876 240.480973 
L 160.159652 240.905252 
L 162.538428 239.516515 
L 164.763734 240.015722 
L 167.14251 258.034289 
L 169.444551 242.361799 
L 171.823327 250.321481 
L 174.125368 241.325963 
L 176.504143 231.429964 
L 178.882919 230.891301 
L 181.18496 231.694649 
L 183.563736 257.186406 
L 185.865777 244.765186 
L 188.244553 238.929748 
L 190.623329 239.272185 
L 192.7719 252.681608 
L 195.150676 284.518025 
L 197.452717 250.413445 
L 199.831493 247.954344 
L 202.133534 235.572748 
L 204.51231 230.535951 
L 206.891086 230.652891 
L 209.193127 238.285932 
L 211.571902 239.302227 
L 213.873943 255.809801 
L 216.252719 239.275235 
L 218.631495 241.877695 
L 220.780067 238.926456 
L 223.158842 278.670093 
L 225.460883 255.377223 
L 227.839659 241.911357 
L 230.1417 237.416951 
L 232.520476 230.579489 
L 234.899252 230.53004 
L 237.201293 231.092507 
L 239.580069 250.478149 
L 241.88211 237.30928 
L 244.260885 237.214839 
L 246.639661 236.201461 
L 248.788233 243.235758 
L 251.167009 263.360205 
L 253.46905 252.736761 
L 255.847825 276.371898 
L 258.149867 268.713053 
L 260.528642 231.036655 
L 262.907418 228.948769 
L 265.209459 237.950216 
L 267.588235 243.167092 
L 269.890276 283.35328 
L 272.269052 290.055492 
L 274.647828 266.474041 
L 276.873134 242.628925 
L 279.25191 243.713646 
L 281.553951 245.270601 
L 283.932726 297.23555 
L 286.234768 243.507989 
L 288.613543 245.133582 
L 290.992319 241.271964 
L 293.29436 242.751958 
L 295.673136 257.373818 
L 297.975177 283.145591 
L 300.353953 292.921622 
L 302.732729 275.061415 
L 304.8813 285.512749 
L 307.260076 270.592027 
L 309.562117 265.728948 
L 311.940893 302.7202 
L 314.242934 249.430404 
L 316.62171 255.830952 
L 319.000485 254.425501 
L 321.302526 256.041299 
L 323.681302 256.056399 
L 325.983343 270.931469 
L 328.362119 248.076165 
L 330.740895 275.206158 
L 332.889466 259.502166 
L 335.268242 291.389274 
L 337.570283 277.018322 
L 342.2511 253.843046 
L 344.629876 249.996053 
L 347.008652 250.233608 
L 349.310693 250.322097 
L 351.689468 248.286161 
L 353.99151 257.149185 
L 356.370285 280.818319 
L 358.749061 271.950505 
L 360.897633 273.761926 
L 363.276409 285.713449 
L 365.57845 252.077808 
L 367.957225 277.762261 
L 370.259266 240.660748 
L 372.638042 239.455344 
L 375.016818 236.767855 
L 377.318859 239.970526 
L 379.697635 242.379205 
L 381.999676 271.482789 
L 384.378452 270.722237 
L 386.757227 277.115626 
L 388.982534 277.724545 
L 391.36131 295.036014 
L 393.663351 306.002614 
L 396.042126 274.962865 
L 398.344167 240.487875 
L 400.722943 240.820054 
L 403.101719 241.413207 
L 405.40376 248.722738 
L 407.782536 252.451337 
L 410.084577 274.776108 
L 412.463353 294.885216 
L 414.842128 289.540705 
L 416.9907 306.002614 
L 419.369476 287.937763 
L 421.671517 254.463766 
L 424.050293 244.478728 
L 426.352334 242.923314 
L 428.731109 240.534826 
L 431.109885 243.224172 
L 433.411926 247.658514 
L 435.790702 271.332623 
L 438.092743 280.994625 
L 440.471519 273.007885 
L 442.850295 284.059114 
L 444.998866 285.855012 
L 447.377642 300.20142 
L 447.377642 300.20142 
" style="fill:none;stroke:#4682b4;stroke-linecap:square;stroke-width:1.5;"/>
   </g>
   <g id="patch_15">
    <path d="M 29.25025 309.8635 
L 29.25025 224.924017 
" style="fill:none;stroke:#000000;stroke-linecap:square;stroke-linejoin:miter;stroke-width:0.8;"/>
   </g>
   <g id="patch_16">
    <path d="M 447.377642 309.8635 
L 447.377642 224.924017 
" style="fill:none;stroke:#000000;stroke-linecap:square;stroke-linejoin:miter;stroke-width:0.8;"/>
   </g>
   <g id="patch_17">
    <path d="M 29.25025 309.8635 
L 447.377642 309.8635 
" style="fill:none;stroke:#000000;stroke-linecap:square;stroke-linejoin:miter;stroke-width:0.8;"/>
   </g>
   <g id="patch_18">
    <path d="M 29.25025 224.924017 
L 447.377642 224.924017 
" style="fill:none;stroke:#000000;stroke-linecap:square;stroke-linejoin:miter;stroke-width:0.8;"/>
   </g>
   <g id="legend_3">
    <g id="patch_19">
     <path d="M 211.705352 304.8635 
L 264.92254 304.8635 
Q 266.92254 304.8635 266.92254 302.8635 
L 266.92254 289.185375 
Q 266.92254 287.185375 264.92254 287.185375 
L 211.705352 287.185375 
Q 209.705352 287.185375 209.705352 289.185375 
L 209.705352 302.8635 
Q 209.705352 304.8635 211.705352 304.8635 
z
" style="fill:#ffffff;opacity:0.8;stroke:#cccccc;stroke-linejoin:miter;"/>
    </g>
    <g id="line2d_74">
     <path d="M 213.705352 295.283812 
L 233.705352 295.283812 
" style="fill:none;stroke:#4682b4;stroke-linecap:square;stroke-width:1.5;"/>
    </g>
    <g id="line2d_75"/>
    <g id="text_22">
     <!-- CO2 -->
     <defs>
      <path d="M 64.40625 67.28125 
L 64.40625 56.890625 
Q 59.421875 61.53125 53.78125 63.8125 
Q 48.140625 66.109375 41.796875 66.109375 
Q 29.296875 66.109375 22.65625 58.46875 
Q 16.015625 50.828125 16.015625 36.375 
Q 16.015625 21.96875 22.65625 14.328125 
Q 29.296875 6.6875 41.796875 6.6875 
Q 48.140625 6.6875 53.78125 8.984375 
Q 59.421875 11.28125 64.40625 15.921875 
L 64.40625 5.609375 
Q 59.234375 2.09375 53.4375 0.328125 
Q 47.65625 -1.421875 41.21875 -1.421875 
Q 24.65625 -1.421875 15.125 8.703125 
Q 5.609375 18.84375 5.609375 36.375 
Q 5.609375 53.953125 15.125 64.078125 
Q 24.65625 74.21875 41.21875 74.21875 
Q 47.75 74.21875 53.53125 72.484375 
Q 59.328125 70.75 64.40625 67.28125 
z
" id="DejaVuSans-43"/>
     </defs>
     <g transform="translate(241.705352 298.783812)scale(0.1 -0.1)">
      <use xlink:href="#DejaVuSans-43"/>
      <use x="69.824219" xlink:href="#DejaVuSans-4f"/>
      <use x="148.535156" xlink:href="#DejaVuSans-32"/>
     </g>
    </g>
   </g>
  </g>
 </g>
 <defs>
  <clipPath id="p43b8f10384">
   <rect height="84.939483" width="418.127392" x="29.25025" y="23.36505"/>
  </clipPath>
  <clipPath id="p8dcb820b54">
   <rect height="84.939483" width="418.127392" x="29.25025" y="124.144533"/>
  </clipPath>
  <clipPath id="paf82044fde">
   <rect height="84.939483" width="418.127392" x="29.25025" y="224.924017"/>
  </clipPath>
 </defs>
</svg>
