<?xml version="1.0" encoding="utf-8" standalone="no"?>
<!DOCTYPE svg PUBLIC "-//W3C//DTD SVG 1.1//EN"
  "http://www.w3.org/Graphics/SVG/1.1/DTD/svg11.dtd">
<!-- Created with matplotlib (http://matplotlib.org/) -->
<svg height="345.6pt" version="1.1" viewBox="0 0 460.8 345.6" width="460.8pt" xmlns="http://www.w3.org/2000/svg" xmlns:xlink="http://www.w3.org/1999/xlink">
 <defs>
  <style type="text/css">
*{stroke-linecap:butt;stroke-linejoin:round;}
  </style>
 </defs>
 <g id="figure_1">
  <g id="patch_1">
   <path d="M 0 345.6 
L 460.8 345.6 
L 460.8 0 
L 0 0 
z
" style="fill:none;"/>
  </g>
  <g id="axes_1">
   <g id="patch_2">
    <path d="M 40.2185 309.8635 
L 447.48 309.8635 
L 447.48 23.36505 
L 40.2185 23.36505 
z
" style="fill:none;"/>
   </g>
   <g id="matplotlib.axis_1">
    <g id="xtick_1">
     <g id="line2d_1">
      <path clip-path="url(#pf9290ba4e2)" d="M 51.926223 309.8635 
L 51.926223 23.36505 
" style="fill:none;stroke:#b0b0b0;stroke-linecap:square;stroke-width:0.8;"/>
     </g>
     <g id="line2d_2">
      <defs>
       <path d="M 0 0 
L 0 3.5 
" id="mffeb14a5f2" style="stroke:#000000;stroke-width:0.8;"/>
      </defs>
      <g>
       <use style="stroke:#000000;stroke-width:0.8;" x="51.926223" xlink:href="#mffeb14a5f2" y="309.8635"/>
      </g>
     </g>
     <g id="text_1">
      <!-- 2004 -->
      <defs>
       <path d="M 19.1875 8.296875 
L 53.609375 8.296875 
L 53.609375 0 
L 7.328125 0 
L 7.328125 8.296875 
Q 12.9375 14.109375 22.625 23.890625 
Q 32.328125 33.6875 34.8125 36.53125 
Q 39.546875 41.84375 41.421875 45.53125 
Q 43.3125 49.21875 43.3125 52.78125 
Q 43.3125 58.59375 39.234375 62.25 
Q 35.15625 65.921875 28.609375 65.921875 
Q 23.96875 65.921875 18.8125 64.3125 
Q 13.671875 62.703125 7.8125 59.421875 
L 7.8125 69.390625 
Q 13.765625 71.78125 18.9375 73 
Q 24.125 74.21875 28.421875 74.21875 
Q 39.75 74.21875 46.484375 68.546875 
Q 53.21875 62.890625 53.21875 53.421875 
Q 53.21875 48.921875 51.53125 44.890625 
Q 49.859375 40.875 45.40625 35.40625 
Q 44.1875 33.984375 37.640625 27.21875 
Q 31.109375 20.453125 19.1875 8.296875 
z
" id="DejaVuSans-32"/>
       <path d="M 31.78125 66.40625 
Q 24.171875 66.40625 20.328125 58.90625 
Q 16.5 51.421875 16.5 36.375 
Q 16.5 21.390625 20.328125 13.890625 
Q 24.171875 6.390625 31.78125 6.390625 
Q 39.453125 6.390625 43.28125 13.890625 
Q 47.125 21.390625 47.125 36.375 
Q 47.125 51.421875 43.28125 58.90625 
Q 39.453125 66.40625 31.78125 66.40625 
z
M 31.78125 74.21875 
Q 44.046875 74.21875 50.515625 64.515625 
Q 56.984375 54.828125 56.984375 36.375 
Q 56.984375 17.96875 50.515625 8.265625 
Q 44.046875 -1.421875 31.78125 -1.421875 
Q 19.53125 -1.421875 13.0625 8.265625 
Q 6.59375 17.96875 6.59375 36.375 
Q 6.59375 54.828125 13.0625 64.515625 
Q 19.53125 74.21875 31.78125 74.21875 
z
" id="DejaVuSans-30"/>
       <path d="M 37.796875 64.3125 
L 12.890625 25.390625 
L 37.796875 25.390625 
z
M 35.203125 72.90625 
L 47.609375 72.90625 
L 47.609375 25.390625 
L 58.015625 25.390625 
L 58.015625 17.1875 
L 47.609375 17.1875 
L 47.609375 0 
L 37.796875 0 
L 37.796875 17.1875 
L 4.890625 17.1875 
L 4.890625 26.703125 
z
" id="DejaVuSans-34"/>
      </defs>
      <g transform="translate(39.201223 324.461937)scale(0.1 -0.1)">
       <use xlink:href="#DejaVuSans-32"/>
       <use x="63.623047" xlink:href="#DejaVuSans-30"/>
       <use x="127.246094" xlink:href="#DejaVuSans-30"/>
       <use x="190.869141" xlink:href="#DejaVuSans-34"/>
      </g>
     </g>
    </g>
    <g id="xtick_2">
     <g id="line2d_3">
      <path clip-path="url(#pf9290ba4e2)" d="M 107.499894 309.8635 
L 107.499894 23.36505 
" style="fill:none;stroke:#b0b0b0;stroke-linecap:square;stroke-width:0.8;"/>
     </g>
     <g id="line2d_4">
      <g>
       <use style="stroke:#000000;stroke-width:0.8;" x="107.499894" xlink:href="#mffeb14a5f2" y="309.8635"/>
      </g>
     </g>
     <g id="text_2">
      <!-- 2006 -->
      <defs>
       <path d="M 33.015625 40.375 
Q 26.375 40.375 22.484375 35.828125 
Q 18.609375 31.296875 18.609375 23.390625 
Q 18.609375 15.53125 22.484375 10.953125 
Q 26.375 6.390625 33.015625 6.390625 
Q 39.65625 6.390625 43.53125 10.953125 
Q 47.40625 15.53125 47.40625 23.390625 
Q 47.40625 31.296875 43.53125 35.828125 
Q 39.65625 40.375 33.015625 40.375 
z
M 52.59375 71.296875 
L 52.59375 62.3125 
Q 48.875 64.0625 45.09375 64.984375 
Q 41.3125 65.921875 37.59375 65.921875 
Q 27.828125 65.921875 22.671875 59.328125 
Q 17.53125 52.734375 16.796875 39.40625 
Q 19.671875 43.65625 24.015625 45.921875 
Q 28.375 48.1875 33.59375 48.1875 
Q 44.578125 48.1875 50.953125 41.515625 
Q 57.328125 34.859375 57.328125 23.390625 
Q 57.328125 12.15625 50.6875 5.359375 
Q 44.046875 -1.421875 33.015625 -1.421875 
Q 20.359375 -1.421875 13.671875 8.265625 
Q 6.984375 17.96875 6.984375 36.375 
Q 6.984375 53.65625 15.1875 63.9375 
Q 23.390625 74.21875 37.203125 74.21875 
Q 40.921875 74.21875 44.703125 73.484375 
Q 48.484375 72.75 52.59375 71.296875 
z
" id="DejaVuSans-36"/>
      </defs>
      <g transform="translate(94.774894 324.461937)scale(0.1 -0.1)">
       <use xlink:href="#DejaVuSans-32"/>
       <use x="63.623047" xlink:href="#DejaVuSans-30"/>
       <use x="127.246094" xlink:href="#DejaVuSans-30"/>
       <use x="190.869141" xlink:href="#DejaVuSans-36"/>
      </g>
     </g>
    </g>
    <g id="xtick_3">
     <g id="line2d_5">
      <path clip-path="url(#pf9290ba4e2)" d="M 162.997541 309.8635 
L 162.997541 23.36505 
" style="fill:none;stroke:#b0b0b0;stroke-linecap:square;stroke-width:0.8;"/>
     </g>
     <g id="line2d_6">
      <g>
       <use style="stroke:#000000;stroke-width:0.8;" x="162.997541" xlink:href="#mffeb14a5f2" y="309.8635"/>
      </g>
     </g>
     <g id="text_3">
      <!-- 2008 -->
      <defs>
       <path d="M 31.78125 34.625 
Q 24.75 34.625 20.71875 30.859375 
Q 16.703125 27.09375 16.703125 20.515625 
Q 16.703125 13.921875 20.71875 10.15625 
Q 24.75 6.390625 31.78125 6.390625 
Q 38.8125 6.390625 42.859375 10.171875 
Q 46.921875 13.96875 46.921875 20.515625 
Q 46.921875 27.09375 42.890625 30.859375 
Q 38.875 34.625 31.78125 34.625 
z
M 21.921875 38.8125 
Q 15.578125 40.375 12.03125 44.71875 
Q 8.5 49.078125 8.5 55.328125 
Q 8.5 64.0625 14.71875 69.140625 
Q 20.953125 74.21875 31.78125 74.21875 
Q 42.671875 74.21875 48.875 69.140625 
Q 55.078125 64.0625 55.078125 55.328125 
Q 55.078125 49.078125 51.53125 44.71875 
Q 48 40.375 41.703125 38.8125 
Q 48.828125 37.15625 52.796875 32.3125 
Q 56.78125 27.484375 56.78125 20.515625 
Q 56.78125 9.90625 50.3125 4.234375 
Q 43.84375 -1.421875 31.78125 -1.421875 
Q 19.734375 -1.421875 13.25 4.234375 
Q 6.78125 9.90625 6.78125 20.515625 
Q 6.78125 27.484375 10.78125 32.3125 
Q 14.796875 37.15625 21.921875 38.8125 
z
M 18.3125 54.390625 
Q 18.3125 48.734375 21.84375 45.5625 
Q 25.390625 42.390625 31.78125 42.390625 
Q 38.140625 42.390625 41.71875 45.5625 
Q 45.3125 48.734375 45.3125 54.390625 
Q 45.3125 60.0625 41.71875 63.234375 
Q 38.140625 66.40625 31.78125 66.40625 
Q 25.390625 66.40625 21.84375 63.234375 
Q 18.3125 60.0625 18.3125 54.390625 
z
" id="DejaVuSans-38"/>
      </defs>
      <g transform="translate(150.272541 324.461937)scale(0.1 -0.1)">
       <use xlink:href="#DejaVuSans-32"/>
       <use x="63.623047" xlink:href="#DejaVuSans-30"/>
       <use x="127.246094" xlink:href="#DejaVuSans-30"/>
       <use x="190.869141" xlink:href="#DejaVuSans-38"/>
      </g>
     </g>
    </g>
    <g id="xtick_4">
     <g id="line2d_7">
      <path clip-path="url(#pf9290ba4e2)" d="M 218.571212 309.8635 
L 218.571212 23.36505 
" style="fill:none;stroke:#b0b0b0;stroke-linecap:square;stroke-width:0.8;"/>
     </g>
     <g id="line2d_8">
      <g>
       <use style="stroke:#000000;stroke-width:0.8;" x="218.571212" xlink:href="#mffeb14a5f2" y="309.8635"/>
      </g>
     </g>
     <g id="text_4">
      <!-- 2010 -->
      <defs>
       <path d="M 12.40625 8.296875 
L 28.515625 8.296875 
L 28.515625 63.921875 
L 10.984375 60.40625 
L 10.984375 69.390625 
L 28.421875 72.90625 
L 38.28125 72.90625 
L 38.28125 8.296875 
L 54.390625 8.296875 
L 54.390625 0 
L 12.40625 0 
z
" id="DejaVuSans-31"/>
      </defs>
      <g transform="translate(205.846212 324.461937)scale(0.1 -0.1)">
       <use xlink:href="#DejaVuSans-32"/>
       <use x="63.623047" xlink:href="#DejaVuSans-30"/>
       <use x="127.246094" xlink:href="#DejaVuSans-31"/>
       <use x="190.869141" xlink:href="#DejaVuSans-30"/>
      </g>
     </g>
    </g>
    <g id="xtick_5">
     <g id="line2d_9">
      <path clip-path="url(#pf9290ba4e2)" d="M 274.068859 309.8635 
L 274.068859 23.36505 
" style="fill:none;stroke:#b0b0b0;stroke-linecap:square;stroke-width:0.8;"/>
     </g>
     <g id="line2d_10">
      <g>
       <use style="stroke:#000000;stroke-width:0.8;" x="274.068859" xlink:href="#mffeb14a5f2" y="309.8635"/>
      </g>
     </g>
     <g id="text_5">
      <!-- 2012 -->
      <g transform="translate(261.343859 324.461937)scale(0.1 -0.1)">
       <use xlink:href="#DejaVuSans-32"/>
       <use x="63.623047" xlink:href="#DejaVuSans-30"/>
       <use x="127.246094" xlink:href="#DejaVuSans-31"/>
       <use x="190.869141" xlink:href="#DejaVuSans-32"/>
      </g>
     </g>
    </g>
    <g id="xtick_6">
     <g id="line2d_11">
      <path clip-path="url(#pf9290ba4e2)" d="M 329.64253 309.8635 
L 329.64253 23.36505 
" style="fill:none;stroke:#b0b0b0;stroke-linecap:square;stroke-width:0.8;"/>
     </g>
     <g id="line2d_12">
      <g>
       <use style="stroke:#000000;stroke-width:0.8;" x="329.64253" xlink:href="#mffeb14a5f2" y="309.8635"/>
      </g>
     </g>
     <g id="text_6">
      <!-- 2014 -->
      <g transform="translate(316.91753 324.461937)scale(0.1 -0.1)">
       <use xlink:href="#DejaVuSans-32"/>
       <use x="63.623047" xlink:href="#DejaVuSans-30"/>
       <use x="127.246094" xlink:href="#DejaVuSans-31"/>
       <use x="190.869141" xlink:href="#DejaVuSans-34"/>
      </g>
     </g>
    </g>
    <g id="xtick_7">
     <g id="line2d_13">
      <path clip-path="url(#pf9290ba4e2)" d="M 385.140177 309.8635 
L 385.140177 23.36505 
" style="fill:none;stroke:#b0b0b0;stroke-linecap:square;stroke-width:0.8;"/>
     </g>
     <g id="line2d_14">
      <g>
       <use style="stroke:#000000;stroke-width:0.8;" x="385.140177" xlink:href="#mffeb14a5f2" y="309.8635"/>
      </g>
     </g>
     <g id="text_7">
      <!-- 2016 -->
      <g transform="translate(372.415177 324.461937)scale(0.1 -0.1)">
       <use xlink:href="#DejaVuSans-32"/>
       <use x="63.623047" xlink:href="#DejaVuSans-30"/>
       <use x="127.246094" xlink:href="#DejaVuSans-31"/>
       <use x="190.869141" xlink:href="#DejaVuSans-36"/>
      </g>
     </g>
    </g>
    <g id="xtick_8">
     <g id="line2d_15">
      <path clip-path="url(#pf9290ba4e2)" d="M 440.713849 309.8635 
L 440.713849 23.36505 
" style="fill:none;stroke:#b0b0b0;stroke-linecap:square;stroke-width:0.8;"/>
     </g>
     <g id="line2d_16">
      <g>
       <use style="stroke:#000000;stroke-width:0.8;" x="440.713849" xlink:href="#mffeb14a5f2" y="309.8635"/>
      </g>
     </g>
     <g id="text_8">
      <!-- 2018 -->
      <g transform="translate(427.988849 324.461937)scale(0.1 -0.1)">
       <use xlink:href="#DejaVuSans-32"/>
       <use x="63.623047" xlink:href="#DejaVuSans-30"/>
       <use x="127.246094" xlink:href="#DejaVuSans-31"/>
       <use x="190.869141" xlink:href="#DejaVuSans-38"/>
      </g>
     </g>
    </g>
    <g id="text_9">
     <!-- Date -->
     <defs>
      <path d="M 19.671875 64.796875 
L 19.671875 8.109375 
L 31.59375 8.109375 
Q 46.6875 8.109375 53.6875 14.9375 
Q 60.6875 21.78125 60.6875 36.53125 
Q 60.6875 51.171875 53.6875 57.984375 
Q 46.6875 64.796875 31.59375 64.796875 
z
M 9.8125 72.90625 
L 30.078125 72.90625 
Q 51.265625 72.90625 61.171875 64.09375 
Q 71.09375 55.28125 71.09375 36.53125 
Q 71.09375 17.671875 61.125 8.828125 
Q 51.171875 0 30.078125 0 
L 9.8125 0 
z
" id="DejaVuSans-44"/>
      <path d="M 34.28125 27.484375 
Q 23.390625 27.484375 19.1875 25 
Q 14.984375 22.515625 14.984375 16.5 
Q 14.984375 11.71875 18.140625 8.90625 
Q 21.296875 6.109375 26.703125 6.109375 
Q 34.1875 6.109375 38.703125 11.40625 
Q 43.21875 16.703125 43.21875 25.484375 
L 43.21875 27.484375 
z
M 52.203125 31.203125 
L 52.203125 0 
L 43.21875 0 
L 43.21875 8.296875 
Q 40.140625 3.328125 35.546875 0.953125 
Q 30.953125 -1.421875 24.3125 -1.421875 
Q 15.921875 -1.421875 10.953125 3.296875 
Q 6 8.015625 6 15.921875 
Q 6 25.140625 12.171875 29.828125 
Q 18.359375 34.515625 30.609375 34.515625 
L 43.21875 34.515625 
L 43.21875 35.40625 
Q 43.21875 41.609375 39.140625 45 
Q 35.0625 48.390625 27.6875 48.390625 
Q 23 48.390625 18.546875 47.265625 
Q 14.109375 46.140625 10.015625 43.890625 
L 10.015625 52.203125 
Q 14.9375 54.109375 19.578125 55.046875 
Q 24.21875 56 28.609375 56 
Q 40.484375 56 46.34375 49.84375 
Q 52.203125 43.703125 52.203125 31.203125 
z
" id="DejaVuSans-61"/>
      <path d="M 18.3125 70.21875 
L 18.3125 54.6875 
L 36.8125 54.6875 
L 36.8125 47.703125 
L 18.3125 47.703125 
L 18.3125 18.015625 
Q 18.3125 11.328125 20.140625 9.421875 
Q 21.96875 7.515625 27.59375 7.515625 
L 36.8125 7.515625 
L 36.8125 0 
L 27.59375 0 
Q 17.1875 0 13.234375 3.875 
Q 9.28125 7.765625 9.28125 18.015625 
L 9.28125 47.703125 
L 2.6875 47.703125 
L 2.6875 54.6875 
L 9.28125 54.6875 
L 9.28125 70.21875 
z
" id="DejaVuSans-74"/>
      <path d="M 56.203125 29.59375 
L 56.203125 25.203125 
L 14.890625 25.203125 
Q 15.484375 15.921875 20.484375 11.0625 
Q 25.484375 6.203125 34.421875 6.203125 
Q 39.59375 6.203125 44.453125 7.46875 
Q 49.3125 8.734375 54.109375 11.28125 
L 54.109375 2.78125 
Q 49.265625 0.734375 44.1875 -0.34375 
Q 39.109375 -1.421875 33.890625 -1.421875 
Q 20.796875 -1.421875 13.15625 6.1875 
Q 5.515625 13.8125 5.515625 26.8125 
Q 5.515625 40.234375 12.765625 48.109375 
Q 20.015625 56 32.328125 56 
Q 43.359375 56 49.78125 48.890625 
Q 56.203125 41.796875 56.203125 29.59375 
z
M 47.21875 32.234375 
Q 47.125 39.59375 43.09375 43.984375 
Q 39.0625 48.390625 32.421875 48.390625 
Q 24.90625 48.390625 20.390625 44.140625 
Q 15.875 39.890625 15.1875 32.171875 
z
" id="DejaVuSans-65"/>
     </defs>
     <g transform="translate(231.898469 338.140062)scale(0.1 -0.1)">
      <use xlink:href="#DejaVuSans-44"/>
      <use x="77.001953" xlink:href="#DejaVuSans-61"/>
      <use x="138.28125" xlink:href="#DejaVuSans-74"/>
      <use x="177.490234" xlink:href="#DejaVuSans-65"/>
     </g>
    </g>
   </g>
   <g id="matplotlib.axis_2">
    <g id="ytick_1">
     <g id="line2d_17">
      <path clip-path="url(#pf9290ba4e2)" d="M 40.2185 296.840843 
L 447.48 296.840843 
" style="fill:none;stroke:#b0b0b0;stroke-linecap:square;stroke-width:0.8;"/>
     </g>
     <g id="line2d_18">
      <defs>
       <path d="M 0 0 
L -3.5 0 
" id="m02ccfea91e" style="stroke:#000000;stroke-width:0.8;"/>
      </defs>
      <g>
       <use style="stroke:#000000;stroke-width:0.8;" x="40.2185" xlink:href="#m02ccfea91e" y="296.840843"/>
      </g>
     </g>
     <g id="text_10">
      <!-- 0.0 -->
      <defs>
       <path d="M 10.6875 12.40625 
L 21 12.40625 
L 21 0 
L 10.6875 0 
z
" id="DejaVuSans-2e"/>
      </defs>
      <g transform="translate(17.315375 300.640062)scale(0.1 -0.1)">
       <use xlink:href="#DejaVuSans-30"/>
       <use x="63.623047" xlink:href="#DejaVuSans-2e"/>
       <use x="95.410156" xlink:href="#DejaVuSans-30"/>
      </g>
     </g>
    </g>
    <g id="ytick_2">
     <g id="line2d_19">
      <path clip-path="url(#pf9290ba4e2)" d="M 40.2185 253.300831 
L 447.48 253.300831 
" style="fill:none;stroke:#b0b0b0;stroke-linecap:square;stroke-width:0.8;"/>
     </g>
     <g id="line2d_20">
      <g>
       <use style="stroke:#000000;stroke-width:0.8;" x="40.2185" xlink:href="#m02ccfea91e" y="253.300831"/>
      </g>
     </g>
     <g id="text_11">
      <!-- 0.5 -->
      <defs>
       <path d="M 10.796875 72.90625 
L 49.515625 72.90625 
L 49.515625 64.59375 
L 19.828125 64.59375 
L 19.828125 46.734375 
Q 21.96875 47.46875 24.109375 47.828125 
Q 26.265625 48.1875 28.421875 48.1875 
Q 40.625 48.1875 47.75 41.5 
Q 54.890625 34.8125 54.890625 23.390625 
Q 54.890625 11.625 47.5625 5.09375 
Q 40.234375 -1.421875 26.90625 -1.421875 
Q 22.3125 -1.421875 17.546875 -0.640625 
Q 12.796875 0.140625 7.71875 1.703125 
L 7.71875 11.625 
Q 12.109375 9.234375 16.796875 8.0625 
Q 21.484375 6.890625 26.703125 6.890625 
Q 35.15625 6.890625 40.078125 11.328125 
Q 45.015625 15.765625 45.015625 23.390625 
Q 45.015625 31 40.078125 35.4375 
Q 35.15625 39.890625 26.703125 39.890625 
Q 22.75 39.890625 18.8125 39.015625 
Q 14.890625 38.140625 10.796875 36.28125 
z
" id="DejaVuSans-35"/>
      </defs>
      <g transform="translate(17.315375 257.100049)scale(0.1 -0.1)">
       <use xlink:href="#DejaVuSans-30"/>
       <use x="63.623047" xlink:href="#DejaVuSans-2e"/>
       <use x="95.410156" xlink:href="#DejaVuSans-35"/>
      </g>
     </g>
    </g>
    <g id="ytick_3">
     <g id="line2d_21">
      <path clip-path="url(#pf9290ba4e2)" d="M 40.2185 209.760818 
L 447.48 209.760818 
" style="fill:none;stroke:#b0b0b0;stroke-linecap:square;stroke-width:0.8;"/>
     </g>
     <g id="line2d_22">
      <g>
       <use style="stroke:#000000;stroke-width:0.8;" x="40.2185" xlink:href="#m02ccfea91e" y="209.760818"/>
      </g>
     </g>
     <g id="text_12">
      <!-- 1.0 -->
      <g transform="translate(17.315375 213.560037)scale(0.1 -0.1)">
       <use xlink:href="#DejaVuSans-31"/>
       <use x="63.623047" xlink:href="#DejaVuSans-2e"/>
       <use x="95.410156" xlink:href="#DejaVuSans-30"/>
      </g>
     </g>
    </g>
    <g id="ytick_4">
     <g id="line2d_23">
      <path clip-path="url(#pf9290ba4e2)" d="M 40.2185 166.220806 
L 447.48 166.220806 
" style="fill:none;stroke:#b0b0b0;stroke-linecap:square;stroke-width:0.8;"/>
     </g>
     <g id="line2d_24">
      <g>
       <use style="stroke:#000000;stroke-width:0.8;" x="40.2185" xlink:href="#m02ccfea91e" y="166.220806"/>
      </g>
     </g>
     <g id="text_13">
      <!-- 1.5 -->
      <g transform="translate(17.315375 170.020024)scale(0.1 -0.1)">
       <use xlink:href="#DejaVuSans-31"/>
       <use x="63.623047" xlink:href="#DejaVuSans-2e"/>
       <use x="95.410156" xlink:href="#DejaVuSans-35"/>
      </g>
     </g>
    </g>
    <g id="ytick_5">
     <g id="line2d_25">
      <path clip-path="url(#pf9290ba4e2)" d="M 40.2185 122.680793 
L 447.48 122.680793 
" style="fill:none;stroke:#b0b0b0;stroke-linecap:square;stroke-width:0.8;"/>
     </g>
     <g id="line2d_26">
      <g>
       <use style="stroke:#000000;stroke-width:0.8;" x="40.2185" xlink:href="#m02ccfea91e" y="122.680793"/>
      </g>
     </g>
     <g id="text_14">
      <!-- 2.0 -->
      <g transform="translate(17.315375 126.480012)scale(0.1 -0.1)">
       <use xlink:href="#DejaVuSans-32"/>
       <use x="63.623047" xlink:href="#DejaVuSans-2e"/>
       <use x="95.410156" xlink:href="#DejaVuSans-30"/>
      </g>
     </g>
    </g>
    <g id="ytick_6">
     <g id="line2d_27">
      <path clip-path="url(#pf9290ba4e2)" d="M 40.2185 79.14078 
L 447.48 79.14078 
" style="fill:none;stroke:#b0b0b0;stroke-linecap:square;stroke-width:0.8;"/>
     </g>
     <g id="line2d_28">
      <g>
       <use style="stroke:#000000;stroke-width:0.8;" x="40.2185" xlink:href="#m02ccfea91e" y="79.14078"/>
      </g>
     </g>
     <g id="text_15">
      <!-- 2.5 -->
      <g transform="translate(17.315375 82.939999)scale(0.1 -0.1)">
       <use xlink:href="#DejaVuSans-32"/>
       <use x="63.623047" xlink:href="#DejaVuSans-2e"/>
       <use x="95.410156" xlink:href="#DejaVuSans-35"/>
      </g>
     </g>
    </g>
    <g id="ytick_7">
     <g id="line2d_29">
      <path clip-path="url(#pf9290ba4e2)" d="M 40.2185 35.600768 
L 447.48 35.600768 
" style="fill:none;stroke:#b0b0b0;stroke-linecap:square;stroke-width:0.8;"/>
     </g>
     <g id="line2d_30">
      <g>
       <use style="stroke:#000000;stroke-width:0.8;" x="40.2185" xlink:href="#m02ccfea91e" y="35.600768"/>
      </g>
     </g>
     <g id="text_16">
      <!-- 3.0 -->
      <defs>
       <path d="M 40.578125 39.3125 
Q 47.65625 37.796875 51.625 33 
Q 55.609375 28.21875 55.609375 21.1875 
Q 55.609375 10.40625 48.1875 4.484375 
Q 40.765625 -1.421875 27.09375 -1.421875 
Q 22.515625 -1.421875 17.65625 -0.515625 
Q 12.796875 0.390625 7.625 2.203125 
L 7.625 11.71875 
Q 11.71875 9.328125 16.59375 8.109375 
Q 21.484375 6.890625 26.8125 6.890625 
Q 36.078125 6.890625 40.9375 10.546875 
Q 45.796875 14.203125 45.796875 21.1875 
Q 45.796875 27.640625 41.28125 31.265625 
Q 36.765625 34.90625 28.71875 34.90625 
L 20.21875 34.90625 
L 20.21875 43.015625 
L 29.109375 43.015625 
Q 36.375 43.015625 40.234375 45.921875 
Q 44.09375 48.828125 44.09375 54.296875 
Q 44.09375 59.90625 40.109375 62.90625 
Q 36.140625 65.921875 28.71875 65.921875 
Q 24.65625 65.921875 20.015625 65.03125 
Q 15.375 64.15625 9.8125 62.3125 
L 9.8125 71.09375 
Q 15.4375 72.65625 20.34375 73.4375 
Q 25.25 74.21875 29.59375 74.21875 
Q 40.828125 74.21875 47.359375 69.109375 
Q 53.90625 64.015625 53.90625 55.328125 
Q 53.90625 49.265625 50.4375 45.09375 
Q 46.96875 40.921875 40.578125 39.3125 
z
" id="DejaVuSans-33"/>
      </defs>
      <g transform="translate(17.315375 39.399987)scale(0.1 -0.1)">
       <use xlink:href="#DejaVuSans-33"/>
       <use x="63.623047" xlink:href="#DejaVuSans-2e"/>
       <use x="95.410156" xlink:href="#DejaVuSans-30"/>
      </g>
     </g>
    </g>
    <g id="text_17">
     <!-- Emissions / mean emissions -->
     <defs>
      <path d="M 9.8125 72.90625 
L 55.90625 72.90625 
L 55.90625 64.59375 
L 19.671875 64.59375 
L 19.671875 43.015625 
L 54.390625 43.015625 
L 54.390625 34.71875 
L 19.671875 34.71875 
L 19.671875 8.296875 
L 56.78125 8.296875 
L 56.78125 0 
L 9.8125 0 
z
" id="DejaVuSans-45"/>
      <path d="M 52 44.1875 
Q 55.375 50.25 60.0625 53.125 
Q 64.75 56 71.09375 56 
Q 79.640625 56 84.28125 50.015625 
Q 88.921875 44.046875 88.921875 33.015625 
L 88.921875 0 
L 79.890625 0 
L 79.890625 32.71875 
Q 79.890625 40.578125 77.09375 44.375 
Q 74.3125 48.1875 68.609375 48.1875 
Q 61.625 48.1875 57.5625 43.546875 
Q 53.515625 38.921875 53.515625 30.90625 
L 53.515625 0 
L 44.484375 0 
L 44.484375 32.71875 
Q 44.484375 40.625 41.703125 44.40625 
Q 38.921875 48.1875 33.109375 48.1875 
Q 26.21875 48.1875 22.15625 43.53125 
Q 18.109375 38.875 18.109375 30.90625 
L 18.109375 0 
L 9.078125 0 
L 9.078125 54.6875 
L 18.109375 54.6875 
L 18.109375 46.1875 
Q 21.1875 51.21875 25.484375 53.609375 
Q 29.78125 56 35.6875 56 
Q 41.65625 56 45.828125 52.96875 
Q 50 49.953125 52 44.1875 
z
" id="DejaVuSans-6d"/>
      <path d="M 9.421875 54.6875 
L 18.40625 54.6875 
L 18.40625 0 
L 9.421875 0 
z
M 9.421875 75.984375 
L 18.40625 75.984375 
L 18.40625 64.59375 
L 9.421875 64.59375 
z
" id="DejaVuSans-69"/>
      <path d="M 44.28125 53.078125 
L 44.28125 44.578125 
Q 40.484375 46.53125 36.375 47.5 
Q 32.28125 48.484375 27.875 48.484375 
Q 21.1875 48.484375 17.84375 46.4375 
Q 14.5 44.390625 14.5 40.28125 
Q 14.5 37.15625 16.890625 35.375 
Q 19.28125 33.59375 26.515625 31.984375 
L 29.59375 31.296875 
Q 39.15625 29.25 43.1875 25.515625 
Q 47.21875 21.78125 47.21875 15.09375 
Q 47.21875 7.46875 41.1875 3.015625 
Q 35.15625 -1.421875 24.609375 -1.421875 
Q 20.21875 -1.421875 15.453125 -0.5625 
Q 10.6875 0.296875 5.421875 2 
L 5.421875 11.28125 
Q 10.40625 8.6875 15.234375 7.390625 
Q 20.0625 6.109375 24.8125 6.109375 
Q 31.15625 6.109375 34.5625 8.28125 
Q 37.984375 10.453125 37.984375 14.40625 
Q 37.984375 18.0625 35.515625 20.015625 
Q 33.0625 21.96875 24.703125 23.78125 
L 21.578125 24.515625 
Q 13.234375 26.265625 9.515625 29.90625 
Q 5.8125 33.546875 5.8125 39.890625 
Q 5.8125 47.609375 11.28125 51.796875 
Q 16.75 56 26.8125 56 
Q 31.78125 56 36.171875 55.265625 
Q 40.578125 54.546875 44.28125 53.078125 
z
" id="DejaVuSans-73"/>
      <path d="M 30.609375 48.390625 
Q 23.390625 48.390625 19.1875 42.75 
Q 14.984375 37.109375 14.984375 27.296875 
Q 14.984375 17.484375 19.15625 11.84375 
Q 23.34375 6.203125 30.609375 6.203125 
Q 37.796875 6.203125 41.984375 11.859375 
Q 46.1875 17.53125 46.1875 27.296875 
Q 46.1875 37.015625 41.984375 42.703125 
Q 37.796875 48.390625 30.609375 48.390625 
z
M 30.609375 56 
Q 42.328125 56 49.015625 48.375 
Q 55.71875 40.765625 55.71875 27.296875 
Q 55.71875 13.875 49.015625 6.21875 
Q 42.328125 -1.421875 30.609375 -1.421875 
Q 18.84375 -1.421875 12.171875 6.21875 
Q 5.515625 13.875 5.515625 27.296875 
Q 5.515625 40.765625 12.171875 48.375 
Q 18.84375 56 30.609375 56 
z
" id="DejaVuSans-6f"/>
      <path d="M 54.890625 33.015625 
L 54.890625 0 
L 45.90625 0 
L 45.90625 32.71875 
Q 45.90625 40.484375 42.875 44.328125 
Q 39.84375 48.1875 33.796875 48.1875 
Q 26.515625 48.1875 22.3125 43.546875 
Q 18.109375 38.921875 18.109375 30.90625 
L 18.109375 0 
L 9.078125 0 
L 9.078125 54.6875 
L 18.109375 54.6875 
L 18.109375 46.1875 
Q 21.34375 51.125 25.703125 53.5625 
Q 30.078125 56 35.796875 56 
Q 45.21875 56 50.046875 50.171875 
Q 54.890625 44.34375 54.890625 33.015625 
z
" id="DejaVuSans-6e"/>
      <path id="DejaVuSans-20"/>
      <path d="M 25.390625 72.90625 
L 33.6875 72.90625 
L 8.296875 -9.28125 
L 0 -9.28125 
z
" id="DejaVuSans-2f"/>
     </defs>
     <g transform="translate(11.235688 236.862712)rotate(-90)scale(0.1 -0.1)">
      <use xlink:href="#DejaVuSans-45"/>
      <use x="63.183594" xlink:href="#DejaVuSans-6d"/>
      <use x="160.595703" xlink:href="#DejaVuSans-69"/>
      <use x="188.378906" xlink:href="#DejaVuSans-73"/>
      <use x="240.478516" xlink:href="#DejaVuSans-73"/>
      <use x="292.578125" xlink:href="#DejaVuSans-69"/>
      <use x="320.361328" xlink:href="#DejaVuSans-6f"/>
      <use x="381.542969" xlink:href="#DejaVuSans-6e"/>
      <use x="444.921875" xlink:href="#DejaVuSans-73"/>
      <use x="497.021484" xlink:href="#DejaVuSans-20"/>
      <use x="528.808594" xlink:href="#DejaVuSans-2f"/>
      <use x="562.5" xlink:href="#DejaVuSans-20"/>
      <use x="594.287109" xlink:href="#DejaVuSans-6d"/>
      <use x="691.699219" xlink:href="#DejaVuSans-65"/>
      <use x="753.222656" xlink:href="#DejaVuSans-61"/>
      <use x="814.501953" xlink:href="#DejaVuSans-6e"/>
      <use x="877.880859" xlink:href="#DejaVuSans-20"/>
      <use x="909.667969" xlink:href="#DejaVuSans-65"/>
      <use x="971.191406" xlink:href="#DejaVuSans-6d"/>
      <use x="1068.603516" xlink:href="#DejaVuSans-69"/>
      <use x="1096.386719" xlink:href="#DejaVuSans-73"/>
      <use x="1148.486328" xlink:href="#DejaVuSans-73"/>
      <use x="1200.585938" xlink:href="#DejaVuSans-69"/>
      <use x="1228.369141" xlink:href="#DejaVuSans-6f"/>
      <use x="1289.550781" xlink:href="#DejaVuSans-6e"/>
      <use x="1352.929688" xlink:href="#DejaVuSans-73"/>
     </g>
    </g>
   </g>
   <g id="line2d_31">
    <path clip-path="url(#pf9290ba4e2)" d="M 40.2185 296.840843 
L 42.575249 296.840843 
L 44.855975 146.294761 
L 47.212724 264.871544 
L 49.493449 252.498943 
L 51.850199 289.221032 
L 56.411649 240.523848 
L 58.768398 270.162673 
L 61.049124 275.427649 
L 63.405873 266.619196 
L 65.686598 292.421111 
L 68.043348 260.656358 
L 70.400097 253.11321 
L 72.680822 253.469248 
L 75.037572 259.870079 
L 77.318297 257.060582 
L 79.675046 268.814655 
L 82.031796 263.97526 
L 84.160473 247.248521 
L 86.517222 262.886857 
L 88.797947 274.658903 
L 91.154697 294.415677 
L 93.435422 295.703835 
L 95.792171 253.769346 
L 98.148921 247.54084 
L 100.429646 259.289393 
L 102.786395 237.247963 
L 105.06712 220.578479 
L 107.42387 152.645565 
L 109.780619 296.840843 
L 111.909296 264.97432 
L 114.266045 296.840843 
L 116.546771 296.840843 
L 118.90352 296.692577 
L 121.184245 296.414721 
L 123.540995 258.798276 
L 125.897744 160.940376 
L 128.178469 94.960961 
L 130.535219 102.790866 
L 132.815944 226.835463 
L 135.172693 177.996635 
L 137.529443 264.957339 
L 139.65812 216.499121 
L 142.014869 296.779824 
L 144.295594 291.178002 
L 146.652344 287.839141 
L 148.933069 246.059894 
L 151.289818 163.54315 
L 153.646568 139.402946 
L 155.927293 101.870935 
L 158.284042 95.657475 
L 160.564767 156.830558 
L 162.921517 184.730178 
L 165.278266 127.684396 
L 167.482967 140.45998 
L 169.839717 36.387707 
L 172.120442 104.758149 
L 174.477191 275.51822 
L 176.757916 296.840843 
L 179.114666 229.728316 
L 181.471415 76.497287 
L 183.75214 88.813808 
L 186.10889 270.137225 
L 188.389615 272.994682 
L 190.746364 272.361069 
L 193.103114 294.825859 
L 195.231791 109.374944 
L 197.58854 192.747253 
L 199.869265 292.289774 
L 202.226015 283.036804 
L 204.50674 291.484088 
L 206.863489 163.031493 
L 209.220239 117.216849 
L 211.500964 179.003136 
L 213.857713 188.221484 
L 216.138439 225.200355 
L 218.495188 178.837987 
L 220.851937 294.671222 
L 222.980614 272.846218 
L 225.337364 200.582968 
L 227.618089 212.152079 
L 229.974838 279.141935 
L 232.255563 296.840843 
L 234.612313 247.890745 
L 236.969062 221.731771 
L 239.249787 219.967878 
L 243.887262 277.702653 
L 246.244011 283.619284 
L 248.600761 292.044523 
L 250.729438 293.413846 
L 253.086187 295.427417 
L 255.366912 292.475423 
L 257.723662 295.809885 
L 260.004387 295.161554 
L 262.361136 278.891522 
L 264.717886 252.860214 
L 266.998611 260.642553 
L 269.35536 289.863576 
L 271.636086 253.459263 
L 273.992835 258.036666 
L 276.349584 272.527174 
L 278.554285 244.24428 
L 280.911035 274.116686 
L 283.19176 278.540341 
L 285.548509 294.206746 
L 287.829235 292.52765 
L 290.185984 273.234312 
L 292.542733 255.84857 
L 294.823459 265.005486 
L 297.180208 262.810972 
L 299.460933 296.666496 
L 301.817683 296.387551 
L 304.174432 295.300564 
L 306.303109 283.482238 
L 308.659858 267.601665 
L 310.940584 282.077546 
L 315.578058 268.705884 
L 317.934808 257.953561 
L 320.291557 241.867808 
L 322.572282 235.881607 
L 324.929032 260.132561 
L 327.209757 270.689541 
L 329.566506 286.974181 
L 331.923256 260.604541 
L 334.051932 261.394104 
L 336.408682 265.48825 
L 338.689407 269.749263 
L 341.046156 267.864182 
L 343.326882 272.470761 
L 345.683631 263.098336 
L 348.04038 260.21687 
L 350.321106 261.725652 
L 352.677855 240.035705 
L 354.95858 249.741127 
L 357.31533 242.314941 
L 359.672079 279.729441 
L 361.800756 296.840843 
L 364.157505 294.684 
L 366.438231 292.063528 
L 368.79498 296.840843 
L 371.075705 271.351711 
L 373.432455 247.246821 
L 375.789204 275.061141 
L 378.069929 266.341091 
L 380.426679 282.570133 
L 382.707404 288.311159 
L 385.064153 290.715617 
L 387.420903 290.717068 
L 389.625604 293.143717 
L 391.982353 288.465864 
L 394.263078 293.099995 
L 396.619828 291.324607 
L 398.900553 287.872346 
L 401.257302 291.200516 
L 403.614052 286.786734 
L 405.894777 279.420601 
L 408.251526 257.756664 
L 410.532251 252.272916 
L 412.889001 244.977071 
L 415.24575 227.484333 
L 417.374427 272.231307 
L 419.731176 276.630301 
L 422.011902 267.7012 
L 424.368651 260.457727 
L 426.649376 281.281735 
L 429.006126 254.112208 
L 431.362875 224.532822 
L 433.6436 256.038159 
L 436.00035 214.510426 
L 438.281075 242.048875 
L 440.637824 237.573765 
L 442.994574 258.500506 
L 445.123251 265.339928 
L 447.48 256.220208 
L 447.48 256.220208 
" style="fill:none;stroke:#1f77b4;stroke-linecap:square;stroke-width:1.5;"/>
   </g>
   <g id="line2d_32">
    <path clip-path="url(#pf9290ba4e2)" d="M 40.2185 296.840843 
L 42.575249 296.840843 
L 44.855975 204.079456 
L 47.212724 236.368998 
L 49.493449 215.044268 
L 51.850199 270.694628 
L 54.206948 222.847563 
L 56.411649 204.11229 
L 58.768398 251.026322 
L 61.049124 258.614396 
L 63.405873 248.34148 
L 65.686598 288.317576 
L 68.043348 241.981602 
L 70.400097 234.410428 
L 72.680822 234.533823 
L 75.037572 231.946617 
L 77.318297 232.008229 
L 79.675046 256.329583 
L 82.031796 249.227243 
L 84.160473 225.188464 
L 86.517222 232.999749 
L 88.797947 253.851097 
L 91.154697 285.998355 
L 93.435422 291.293915 
L 95.792171 237.152137 
L 98.148921 212.363332 
L 100.429646 209.253929 
L 102.786395 248.418304 
L 105.06712 235.080861 
L 107.42387 212.451302 
L 109.780619 296.840843 
L 111.909296 270.790951 
L 114.266045 296.840843 
L 116.546771 296.840843 
L 118.90352 293.043235 
L 121.184245 295.206993 
L 123.540995 278.417849 
L 125.897744 211.126015 
L 128.178469 196.674281 
L 130.535219 210.761528 
L 132.815944 258.217773 
L 135.172693 226.624105 
L 137.529443 274.844666 
L 139.65812 252.6814 
L 142.014869 296.621873 
L 144.295594 292.506107 
L 146.652344 282.476338 
L 148.933069 263.203948 
L 151.289818 221.474106 
L 153.646568 213.279404 
L 155.927293 215.521324 
L 158.284042 214.783486 
L 160.564767 230.651547 
L 162.921517 237.935235 
L 165.278266 223.820901 
L 167.482967 239.49055 
L 169.839717 215.353888 
L 172.120442 241.235575 
L 174.477191 282.96336 
L 176.757916 296.840843 
L 179.114666 245.486392 
L 181.471415 221.323061 
L 183.75214 226.916194 
L 186.10889 221.086738 
L 188.389615 229.648549 
L 190.746364 247.633802 
L 193.103114 277.979065 
L 195.231791 230.258556 
L 197.58854 224.699834 
L 199.869265 290.608305 
L 202.226015 284.709068 
L 204.50674 291.390992 
L 206.863489 219.25959 
L 209.220239 224.228153 
L 211.500964 205.472052 
L 213.857713 199.784508 
L 216.138439 224.405565 
L 218.495188 190.273764 
L 220.851937 292.269423 
L 222.980614 272.251428 
L 225.337364 198.568542 
L 227.618089 231.943837 
L 229.974838 278.618548 
L 232.255563 296.840843 
L 234.612313 220.13289 
L 236.969062 189.890948 
L 239.249787 189.913114 
L 241.606537 223.765058 
L 243.887262 254.055693 
L 246.244011 267.177758 
L 248.600761 285.847025 
L 250.729438 287.388261 
L 253.086187 292.992282 
L 255.366912 290.203856 
L 257.723662 295.062606 
L 260.004387 292.525826 
L 262.361136 265.315256 
L 264.717886 221.027563 
L 266.998611 232.909313 
L 269.35536 284.668262 
L 271.636086 228.725337 
L 273.992835 242.743472 
L 276.349584 253.865795 
L 278.554285 204.300648 
L 280.911035 255.674885 
L 283.19176 257.530162 
L 285.548509 288.713141 
L 287.829235 286.979605 
L 290.185984 247.422913 
L 292.542733 211.070613 
L 294.823459 220.873396 
L 297.180208 229.213742 
L 299.460933 295.289956 
L 301.817683 295.85177 
L 304.174432 286.024662 
L 306.303109 269.939454 
L 308.659858 247.600524 
L 310.940584 263.853944 
L 313.297333 250.367778 
L 315.578058 218.995935 
L 317.934808 213.465951 
L 320.291557 216.825573 
L 322.572282 230.973026 
L 324.929032 237.149423 
L 327.209757 252.424122 
L 329.566506 280.583617 
L 331.923256 238.904879 
L 334.051932 240.514305 
L 336.408682 237.042145 
L 338.689407 236.955601 
L 341.046156 240.42194 
L 343.326882 249.146557 
L 345.683631 249.391714 
L 348.04038 239.665625 
L 350.321106 242.742155 
L 352.677855 238.247828 
L 354.95858 240.624862 
L 357.31533 237.73875 
L 359.672079 275.253429 
L 361.800756 296.840843 
L 364.157505 291.180755 
L 366.438231 290.659329 
L 368.79498 296.840843 
L 371.075705 261.612786 
L 373.432455 236.433852 
L 375.789204 266.048646 
L 378.069929 242.287666 
L 380.426679 244.909449 
L 385.064153 270.398374 
L 387.420903 270.483299 
L 389.625604 279.714307 
L 391.982353 242.469372 
L 394.263078 278.183775 
L 396.619828 258.331946 
L 398.900553 233.750065 
L 401.257302 248.139027 
L 403.614052 242.737007 
L 405.894777 235.934801 
L 408.251526 260.545463 
L 410.532251 249.049645 
L 412.889001 244.265422 
L 415.24575 238.661514 
L 417.374427 274.447975 
L 419.731176 265.807145 
L 422.011902 258.755079 
L 424.368651 259.435096 
L 426.649376 262.212958 
L 429.006126 223.653924 
L 431.362875 223.037902 
L 433.6436 239.752615 
L 436.00035 237.346751 
L 438.281075 233.439276 
L 440.637824 230.933848 
L 442.994574 253.033366 
L 445.123251 251.013485 
L 447.48 241.998408 
L 447.48 241.998408 
" style="fill:none;stroke:#ff7f0e;stroke-linecap:square;stroke-width:1.5;"/>
   </g>
   <g id="line2d_33">
    <path clip-path="url(#pf9290ba4e2)" d="M 40.2185 296.840843 
L 42.575249 296.840843 
L 44.855975 206.616389 
L 47.212724 233.050085 
L 49.493449 203.08399 
L 51.850199 280.729389 
L 56.411649 177.762626 
L 58.768398 240.431997 
L 61.049124 251.564902 
L 63.405873 232.940623 
L 65.686598 287.496324 
L 68.043348 220.330808 
L 70.400097 204.382462 
L 72.680822 216.931463 
L 75.037572 218.668578 
L 77.318297 212.730192 
L 79.675046 237.582318 
L 82.031796 227.349122 
L 84.160473 191.982266 
L 86.517222 225.050214 
L 88.797947 249.939238 
L 91.154697 291.713185 
L 93.435422 294.436846 
L 95.792171 247.615611 
L 98.148921 198.309325 
L 100.429646 217.444281 
L 102.786395 249.589474 
L 105.06712 239.872366 
L 107.42387 197.664599 
L 109.780619 296.840843 
L 111.909296 273.059994 
L 114.266045 296.840843 
L 118.90352 296.730247 
L 121.184245 296.522862 
L 123.540995 276.731758 
L 125.897744 214.739741 
L 128.178469 180.423885 
L 130.535219 198.36926 
L 132.815944 258.227282 
L 135.172693 231.289406 
L 137.529443 278.455679 
L 139.65812 250.510671 
L 142.014869 296.805634 
L 144.295594 293.575305 
L 146.652344 291.650284 
L 148.933069 269.606756 
L 151.289818 219.974237 
L 153.646568 206.053777 
L 155.927293 184.410839 
L 158.284042 180.828386 
L 160.564767 216.103904 
L 162.921517 232.191043 
L 165.278266 203.5377 
L 167.482967 225.065653 
L 169.839717 194.577559 
L 172.120442 215.61 
L 174.477191 287.824393 
L 176.757916 296.840843 
L 179.114666 268.459992 
L 181.471415 207.187221 
L 183.75214 208.871044 
L 186.10889 240.379145 
L 188.389615 246.421082 
L 190.746364 245.080833 
L 193.103114 295.510994 
L 195.231791 210.954294 
L 197.58854 237.095824 
L 199.869265 293.802989 
L 202.226015 288.944035 
L 204.50674 293.786093 
L 206.863489 220.356134 
L 209.220239 194.014339 
L 211.500964 224.819863 
L 213.857713 225.778093 
L 216.138439 249.927746 
L 218.495188 219.548174 
L 220.851937 295.424307 
L 222.980614 281.12926 
L 225.337364 233.783091 
L 227.618089 241.393485 
L 229.974838 285.252441 
L 232.255563 296.840843 
L 234.612313 251.973528 
L 236.969062 227.996589 
L 239.249787 226.378318 
L 241.606537 227.946001 
L 243.887262 267.607011 
L 246.244011 276.644254 
L 248.600761 289.514861 
L 250.729438 291.605861 
L 253.086187 294.681702 
L 255.366912 291.839411 
L 257.723662 295.659565 
L 260.004387 294.916816 
L 262.361136 276.275162 
L 264.717886 246.429936 
L 266.998611 255.365188 
L 269.35536 288.846251 
L 271.636086 247.141264 
L 273.992835 252.38664 
L 276.349584 268.988208 
L 278.554285 236.580811 
L 280.911035 270.807428 
L 283.19176 275.874006 
L 285.548509 293.822747 
L 287.829235 291.899174 
L 290.185984 269.791374 
L 292.542733 249.871909 
L 294.823459 252.333211 
L 297.180208 244.856563 
L 299.460933 296.574595 
L 301.817683 296.148439 
L 304.174432 294.488011 
L 306.303109 276.43469 
L 308.659858 252.173913 
L 310.940584 274.286914 
L 315.578058 253.857507 
L 317.934808 237.427028 
L 320.291557 212.859979 
L 322.572282 199.167502 
L 324.929032 212.730533 
L 327.209757 236.919179 
L 329.566506 274.230523 
L 331.923256 213.792835 
L 334.051932 215.630908 
L 336.408682 225.004101 
L 338.689407 234.764772 
L 341.046156 230.444758 
L 343.326882 241.000967 
L 345.683631 219.524534 
L 348.04038 212.923697 
L 350.321106 220.516271 
L 352.677855 210.068255 
L 354.95858 224.895707 
L 357.31533 213.551322 
L 359.672079 270.703834 
L 361.800756 296.840843 
L 364.157505 293.546265 
L 366.438231 289.543078 
L 368.79498 296.840843 
L 371.075705 257.89202 
L 373.432455 221.073539 
L 375.789204 263.568934 
L 378.069929 245.290151 
L 380.426679 228.922212 
L 382.707404 256.053353 
L 385.064153 267.307123 
L 387.420903 267.508884 
L 389.625604 279.12801 
L 391.982353 256.608988 
L 394.263078 278.786447 
L 396.619828 270.270177 
L 398.900553 253.560852 
L 401.257302 269.498693 
L 403.614052 248.158107 
L 405.894777 213.291221 
L 408.251526 249.620457 
L 410.532251 242.478227 
L 412.889001 234.178791 
L 415.24575 229.678119 
L 417.374427 273.008869 
L 419.731176 272.422639 
L 422.011902 261.633683 
L 424.368651 261.608891 
L 426.649376 277.861454 
L 429.006126 244.719961 
L 431.362875 209.47884 
L 433.6436 247.542647 
L 436.00035 216.497946 
L 438.281075 230.005521 
L 440.637824 224.544865 
L 442.994574 252.624825 
L 445.123251 258.783696 
L 447.48 247.292164 
L 447.48 247.292164 
" style="fill:none;stroke:#2ca02c;stroke-linecap:square;stroke-width:1.5;"/>
   </g>
   <g id="patch_3">
    <path d="M 40.2185 309.8635 
L 40.2185 23.36505 
" style="fill:none;stroke:#000000;stroke-linecap:square;stroke-linejoin:miter;stroke-width:0.8;"/>
   </g>
   <g id="patch_4">
    <path d="M 447.48 309.8635 
L 447.48 23.36505 
" style="fill:none;stroke:#000000;stroke-linecap:square;stroke-linejoin:miter;stroke-width:0.8;"/>
   </g>
   <g id="patch_5">
    <path d="M 40.2185 309.8635 
L 447.48 309.8635 
" style="fill:none;stroke:#000000;stroke-linecap:square;stroke-linejoin:miter;stroke-width:0.8;"/>
   </g>
   <g id="patch_6">
    <path d="M 40.2185 23.36505 
L 447.48 23.36505 
" style="fill:none;stroke:#000000;stroke-linecap:square;stroke-linejoin:miter;stroke-width:0.8;"/>
   </g>
   <g id="text_18">
    <!-- Average monthly normalized emissions -->
    <defs>
     <path d="M 34.1875 63.1875 
L 20.796875 26.90625 
L 47.609375 26.90625 
z
M 28.609375 72.90625 
L 39.796875 72.90625 
L 67.578125 0 
L 57.328125 0 
L 50.6875 18.703125 
L 17.828125 18.703125 
L 11.1875 0 
L 0.78125 0 
z
" id="DejaVuSans-41"/>
     <path d="M 2.984375 54.6875 
L 12.5 54.6875 
L 29.59375 8.796875 
L 46.6875 54.6875 
L 56.203125 54.6875 
L 35.6875 0 
L 23.484375 0 
z
" id="DejaVuSans-76"/>
     <path d="M 41.109375 46.296875 
Q 39.59375 47.171875 37.8125 47.578125 
Q 36.03125 48 33.890625 48 
Q 26.265625 48 22.1875 43.046875 
Q 18.109375 38.09375 18.109375 28.8125 
L 18.109375 0 
L 9.078125 0 
L 9.078125 54.6875 
L 18.109375 54.6875 
L 18.109375 46.1875 
Q 20.953125 51.171875 25.484375 53.578125 
Q 30.03125 56 36.53125 56 
Q 37.453125 56 38.578125 55.875 
Q 39.703125 55.765625 41.0625 55.515625 
z
" id="DejaVuSans-72"/>
     <path d="M 45.40625 27.984375 
Q 45.40625 37.75 41.375 43.109375 
Q 37.359375 48.484375 30.078125 48.484375 
Q 22.859375 48.484375 18.828125 43.109375 
Q 14.796875 37.75 14.796875 27.984375 
Q 14.796875 18.265625 18.828125 12.890625 
Q 22.859375 7.515625 30.078125 7.515625 
Q 37.359375 7.515625 41.375 12.890625 
Q 45.40625 18.265625 45.40625 27.984375 
z
M 54.390625 6.78125 
Q 54.390625 -7.171875 48.1875 -13.984375 
Q 42 -20.796875 29.203125 -20.796875 
Q 24.46875 -20.796875 20.265625 -20.09375 
Q 16.0625 -19.390625 12.109375 -17.921875 
L 12.109375 -9.1875 
Q 16.0625 -11.328125 19.921875 -12.34375 
Q 23.78125 -13.375 27.78125 -13.375 
Q 36.625 -13.375 41.015625 -8.765625 
Q 45.40625 -4.15625 45.40625 5.171875 
L 45.40625 9.625 
Q 42.625 4.78125 38.28125 2.390625 
Q 33.9375 0 27.875 0 
Q 17.828125 0 11.671875 7.65625 
Q 5.515625 15.328125 5.515625 27.984375 
Q 5.515625 40.671875 11.671875 48.328125 
Q 17.828125 56 27.875 56 
Q 33.9375 56 38.28125 53.609375 
Q 42.625 51.21875 45.40625 46.390625 
L 45.40625 54.6875 
L 54.390625 54.6875 
z
" id="DejaVuSans-67"/>
     <path d="M 54.890625 33.015625 
L 54.890625 0 
L 45.90625 0 
L 45.90625 32.71875 
Q 45.90625 40.484375 42.875 44.328125 
Q 39.84375 48.1875 33.796875 48.1875 
Q 26.515625 48.1875 22.3125 43.546875 
Q 18.109375 38.921875 18.109375 30.90625 
L 18.109375 0 
L 9.078125 0 
L 9.078125 75.984375 
L 18.109375 75.984375 
L 18.109375 46.1875 
Q 21.34375 51.125 25.703125 53.5625 
Q 30.078125 56 35.796875 56 
Q 45.21875 56 50.046875 50.171875 
Q 54.890625 44.34375 54.890625 33.015625 
z
" id="DejaVuSans-68"/>
     <path d="M 9.421875 75.984375 
L 18.40625 75.984375 
L 18.40625 0 
L 9.421875 0 
z
" id="DejaVuSans-6c"/>
     <path d="M 32.171875 -5.078125 
Q 28.375 -14.84375 24.75 -17.8125 
Q 21.140625 -20.796875 15.09375 -20.796875 
L 7.90625 -20.796875 
L 7.90625 -13.28125 
L 13.1875 -13.28125 
Q 16.890625 -13.28125 18.9375 -11.515625 
Q 21 -9.765625 23.484375 -3.21875 
L 25.09375 0.875 
L 2.984375 54.6875 
L 12.5 54.6875 
L 29.59375 11.921875 
L 46.6875 54.6875 
L 56.203125 54.6875 
z
" id="DejaVuSans-79"/>
     <path d="M 5.515625 54.6875 
L 48.1875 54.6875 
L 48.1875 46.484375 
L 14.40625 7.171875 
L 48.1875 7.171875 
L 48.1875 0 
L 4.296875 0 
L 4.296875 8.203125 
L 38.09375 47.515625 
L 5.515625 47.515625 
z
" id="DejaVuSans-7a"/>
     <path d="M 45.40625 46.390625 
L 45.40625 75.984375 
L 54.390625 75.984375 
L 54.390625 0 
L 45.40625 0 
L 45.40625 8.203125 
Q 42.578125 3.328125 38.25 0.953125 
Q 33.9375 -1.421875 27.875 -1.421875 
Q 17.96875 -1.421875 11.734375 6.484375 
Q 5.515625 14.40625 5.515625 27.296875 
Q 5.515625 40.1875 11.734375 48.09375 
Q 17.96875 56 27.875 56 
Q 33.9375 56 38.25 53.625 
Q 42.578125 51.265625 45.40625 46.390625 
z
M 14.796875 27.296875 
Q 14.796875 17.390625 18.875 11.75 
Q 22.953125 6.109375 30.078125 6.109375 
Q 37.203125 6.109375 41.296875 11.75 
Q 45.40625 17.390625 45.40625 27.296875 
Q 45.40625 37.203125 41.296875 42.84375 
Q 37.203125 48.484375 30.078125 48.484375 
Q 22.953125 48.484375 18.875 42.84375 
Q 14.796875 37.203125 14.796875 27.296875 
z
" id="DejaVuSans-64"/>
    </defs>
    <g transform="translate(125.2855 17.36505)scale(0.12 -0.12)">
     <use xlink:href="#DejaVuSans-41"/>
     <use x="68.330078" xlink:href="#DejaVuSans-76"/>
     <use x="127.509766" xlink:href="#DejaVuSans-65"/>
     <use x="189.033203" xlink:href="#DejaVuSans-72"/>
     <use x="230.146484" xlink:href="#DejaVuSans-61"/>
     <use x="291.425781" xlink:href="#DejaVuSans-67"/>
     <use x="354.902344" xlink:href="#DejaVuSans-65"/>
     <use x="416.425781" xlink:href="#DejaVuSans-20"/>
     <use x="448.212891" xlink:href="#DejaVuSans-6d"/>
     <use x="545.625" xlink:href="#DejaVuSans-6f"/>
     <use x="606.806641" xlink:href="#DejaVuSans-6e"/>
     <use x="670.185547" xlink:href="#DejaVuSans-74"/>
     <use x="709.394531" xlink:href="#DejaVuSans-68"/>
     <use x="772.773438" xlink:href="#DejaVuSans-6c"/>
     <use x="800.556641" xlink:href="#DejaVuSans-79"/>
     <use x="859.736328" xlink:href="#DejaVuSans-20"/>
     <use x="891.523438" xlink:href="#DejaVuSans-6e"/>
     <use x="954.902344" xlink:href="#DejaVuSans-6f"/>
     <use x="1016.083984" xlink:href="#DejaVuSans-72"/>
     <use x="1057.181641" xlink:href="#DejaVuSans-6d"/>
     <use x="1154.59375" xlink:href="#DejaVuSans-61"/>
     <use x="1215.873047" xlink:href="#DejaVuSans-6c"/>
     <use x="1243.65625" xlink:href="#DejaVuSans-69"/>
     <use x="1271.439453" xlink:href="#DejaVuSans-7a"/>
     <use x="1323.929688" xlink:href="#DejaVuSans-65"/>
     <use x="1385.453125" xlink:href="#DejaVuSans-64"/>
     <use x="1448.929688" xlink:href="#DejaVuSans-20"/>
     <use x="1480.716797" xlink:href="#DejaVuSans-65"/>
     <use x="1542.240234" xlink:href="#DejaVuSans-6d"/>
     <use x="1639.652344" xlink:href="#DejaVuSans-69"/>
     <use x="1667.435547" xlink:href="#DejaVuSans-73"/>
     <use x="1719.535156" xlink:href="#DejaVuSans-73"/>
     <use x="1771.634766" xlink:href="#DejaVuSans-69"/>
     <use x="1799.417969" xlink:href="#DejaVuSans-6f"/>
     <use x="1860.599609" xlink:href="#DejaVuSans-6e"/>
     <use x="1923.978516" xlink:href="#DejaVuSans-73"/>
    </g>
   </g>
   <g id="legend_1">
    <g id="patch_7">
     <path d="M 387.208125 75.399425 
L 440.48 75.399425 
Q 442.48 75.399425 442.48 73.399425 
L 442.48 30.36505 
Q 442.48 28.36505 440.48 28.36505 
L 387.208125 28.36505 
Q 385.208125 28.36505 385.208125 30.36505 
L 385.208125 73.399425 
Q 385.208125 75.399425 387.208125 75.399425 
z
" style="fill:#ffffff;opacity:0.8;stroke:#cccccc;stroke-linejoin:miter;"/>
    </g>
    <g id="line2d_34">
     <path d="M 389.208125 36.463487 
L 409.208125 36.463487 
" style="fill:none;stroke:#1f77b4;stroke-linecap:square;stroke-width:1.5;"/>
    </g>
    <g id="line2d_35"/>
    <g id="text_19">
     <!-- SOx -->
     <defs>
      <path d="M 53.515625 70.515625 
L 53.515625 60.890625 
Q 47.90625 63.578125 42.921875 64.890625 
Q 37.9375 66.21875 33.296875 66.21875 
Q 25.25 66.21875 20.875 63.09375 
Q 16.5 59.96875 16.5 54.203125 
Q 16.5 49.359375 19.40625 46.890625 
Q 22.3125 44.4375 30.421875 42.921875 
L 36.375 41.703125 
Q 47.40625 39.59375 52.65625 34.296875 
Q 57.90625 29 57.90625 20.125 
Q 57.90625 9.515625 50.796875 4.046875 
Q 43.703125 -1.421875 29.984375 -1.421875 
Q 24.8125 -1.421875 18.96875 -0.25 
Q 13.140625 0.921875 6.890625 3.21875 
L 6.890625 13.375 
Q 12.890625 10.015625 18.65625 8.296875 
Q 24.421875 6.59375 29.984375 6.59375 
Q 38.421875 6.59375 43.015625 9.90625 
Q 47.609375 13.234375 47.609375 19.390625 
Q 47.609375 24.75 44.3125 27.78125 
Q 41.015625 30.8125 33.5 32.328125 
L 27.484375 33.5 
Q 16.453125 35.6875 11.515625 40.375 
Q 6.59375 45.0625 6.59375 53.421875 
Q 6.59375 63.09375 13.40625 68.65625 
Q 20.21875 74.21875 32.171875 74.21875 
Q 37.3125 74.21875 42.625 73.28125 
Q 47.953125 72.359375 53.515625 70.515625 
z
" id="DejaVuSans-53"/>
      <path d="M 39.40625 66.21875 
Q 28.65625 66.21875 22.328125 58.203125 
Q 16.015625 50.203125 16.015625 36.375 
Q 16.015625 22.609375 22.328125 14.59375 
Q 28.65625 6.59375 39.40625 6.59375 
Q 50.140625 6.59375 56.421875 14.59375 
Q 62.703125 22.609375 62.703125 36.375 
Q 62.703125 50.203125 56.421875 58.203125 
Q 50.140625 66.21875 39.40625 66.21875 
z
M 39.40625 74.21875 
Q 54.734375 74.21875 63.90625 63.9375 
Q 73.09375 53.65625 73.09375 36.375 
Q 73.09375 19.140625 63.90625 8.859375 
Q 54.734375 -1.421875 39.40625 -1.421875 
Q 24.03125 -1.421875 14.8125 8.828125 
Q 5.609375 19.09375 5.609375 36.375 
Q 5.609375 53.65625 14.8125 63.9375 
Q 24.03125 74.21875 39.40625 74.21875 
z
" id="DejaVuSans-4f"/>
      <path d="M 54.890625 54.6875 
L 35.109375 28.078125 
L 55.90625 0 
L 45.3125 0 
L 29.390625 21.484375 
L 13.484375 0 
L 2.875 0 
L 24.125 28.609375 
L 4.6875 54.6875 
L 15.28125 54.6875 
L 29.78125 35.203125 
L 44.28125 54.6875 
z
" id="DejaVuSans-78"/>
     </defs>
     <g transform="translate(417.208125 39.963487)scale(0.1 -0.1)">
      <use xlink:href="#DejaVuSans-53"/>
      <use x="63.476562" xlink:href="#DejaVuSans-4f"/>
      <use x="142.1875" xlink:href="#DejaVuSans-78"/>
     </g>
    </g>
    <g id="line2d_36">
     <path d="M 389.208125 51.141613 
L 409.208125 51.141613 
" style="fill:none;stroke:#ff7f0e;stroke-linecap:square;stroke-width:1.5;"/>
    </g>
    <g id="line2d_37"/>
    <g id="text_20">
     <!-- NOx -->
     <defs>
      <path d="M 9.8125 72.90625 
L 23.09375 72.90625 
L 55.421875 11.921875 
L 55.421875 72.90625 
L 64.984375 72.90625 
L 64.984375 0 
L 51.703125 0 
L 19.390625 60.984375 
L 19.390625 0 
L 9.8125 0 
z
" id="DejaVuSans-4e"/>
     </defs>
     <g transform="translate(417.208125 54.641613)scale(0.1 -0.1)">
      <use xlink:href="#DejaVuSans-4e"/>
      <use x="74.804688" xlink:href="#DejaVuSans-4f"/>
      <use x="153.515625" xlink:href="#DejaVuSans-78"/>
     </g>
    </g>
    <g id="line2d_38">
     <path d="M 389.208125 65.819737 
L 409.208125 65.819737 
" style="fill:none;stroke:#2ca02c;stroke-linecap:square;stroke-width:1.5;"/>
    </g>
    <g id="line2d_39"/>
    <g id="text_21">
     <!-- CO2 -->
     <defs>
      <path d="M 64.40625 67.28125 
L 64.40625 56.890625 
Q 59.421875 61.53125 53.78125 63.8125 
Q 48.140625 66.109375 41.796875 66.109375 
Q 29.296875 66.109375 22.65625 58.46875 
Q 16.015625 50.828125 16.015625 36.375 
Q 16.015625 21.96875 22.65625 14.328125 
Q 29.296875 6.6875 41.796875 6.6875 
Q 48.140625 6.6875 53.78125 8.984375 
Q 59.421875 11.28125 64.40625 15.921875 
L 64.40625 5.609375 
Q 59.234375 2.09375 53.4375 0.328125 
Q 47.65625 -1.421875 41.21875 -1.421875 
Q 24.65625 -1.421875 15.125 8.703125 
Q 5.609375 18.84375 5.609375 36.375 
Q 5.609375 53.953125 15.125 64.078125 
Q 24.65625 74.21875 41.21875 74.21875 
Q 47.75 74.21875 53.53125 72.484375 
Q 59.328125 70.75 64.40625 67.28125 
z
" id="DejaVuSans-43"/>
     </defs>
     <g transform="translate(417.208125 69.319737)scale(0.1 -0.1)">
      <use xlink:href="#DejaVuSans-43"/>
      <use x="69.824219" xlink:href="#DejaVuSans-4f"/>
      <use x="148.535156" xlink:href="#DejaVuSans-32"/>
     </g>
    </g>
   </g>
  </g>
 </g>
 <defs>
  <clipPath id="pf9290ba4e2">
   <rect height="286.49845" width="407.2615" x="40.2185" y="23.36505"/>
  </clipPath>
 </defs>
</svg>
