<?xml version="1.0" encoding="utf-8" standalone="no"?>
<!DOCTYPE svg PUBLIC "-//W3C//DTD SVG 1.1//EN"
  "http://www.w3.org/Graphics/SVG/1.1/DTD/svg11.dtd">
<!-- Created with matplotlib (http://matplotlib.org/) -->
<svg height="345.6pt" version="1.1" viewBox="0 0 460.8 345.6" width="460.8pt" xmlns="http://www.w3.org/2000/svg" xmlns:xlink="http://www.w3.org/1999/xlink">
 <defs>
  <style type="text/css">
*{stroke-linecap:butt;stroke-linejoin:round;}
  </style>
 </defs>
 <g id="figure_1">
  <g id="patch_1">
   <path d="M 0 345.6 
L 460.8 345.6 
L 460.8 0 
L 0 0 
z
" style="fill:none;"/>
  </g>
  <g id="axes_1">
   <g id="patch_2">
    <path d="M 40.2185 309.8635 
L 447.48 309.8635 
L 447.48 23.36505 
L 40.2185 23.36505 
z
" style="fill:none;"/>
   </g>
   <g id="matplotlib.axis_1">
    <g id="xtick_1">
     <g id="line2d_1">
      <path clip-path="url(#p1e2677a985)" d="M 61.453415 309.8635 
L 61.453415 23.36505 
" style="fill:none;stroke:#b0b0b0;stroke-linecap:square;stroke-width:0.8;"/>
     </g>
     <g id="line2d_2">
      <defs>
       <path d="M 0 0 
L 0 3.5 
" id="m01da084060" style="stroke:#000000;stroke-width:0.8;"/>
      </defs>
      <g>
       <use style="stroke:#000000;stroke-width:0.8;" x="61.453415" xlink:href="#m01da084060" y="309.8635"/>
      </g>
     </g>
     <g id="text_1">
      <!-- 2006 -->
      <defs>
       <path d="M 19.1875 8.296875 
L 53.609375 8.296875 
L 53.609375 0 
L 7.328125 0 
L 7.328125 8.296875 
Q 12.9375 14.109375 22.625 23.890625 
Q 32.328125 33.6875 34.8125 36.53125 
Q 39.546875 41.84375 41.421875 45.53125 
Q 43.3125 49.21875 43.3125 52.78125 
Q 43.3125 58.59375 39.234375 62.25 
Q 35.15625 65.921875 28.609375 65.921875 
Q 23.96875 65.921875 18.8125 64.3125 
Q 13.671875 62.703125 7.8125 59.421875 
L 7.8125 69.390625 
Q 13.765625 71.78125 18.9375 73 
Q 24.125 74.21875 28.421875 74.21875 
Q 39.75 74.21875 46.484375 68.546875 
Q 53.21875 62.890625 53.21875 53.421875 
Q 53.21875 48.921875 51.53125 44.890625 
Q 49.859375 40.875 45.40625 35.40625 
Q 44.1875 33.984375 37.640625 27.21875 
Q 31.109375 20.453125 19.1875 8.296875 
z
" id="DejaVuSans-32"/>
       <path d="M 31.78125 66.40625 
Q 24.171875 66.40625 20.328125 58.90625 
Q 16.5 51.421875 16.5 36.375 
Q 16.5 21.390625 20.328125 13.890625 
Q 24.171875 6.390625 31.78125 6.390625 
Q 39.453125 6.390625 43.28125 13.890625 
Q 47.125 21.390625 47.125 36.375 
Q 47.125 51.421875 43.28125 58.90625 
Q 39.453125 66.40625 31.78125 66.40625 
z
M 31.78125 74.21875 
Q 44.046875 74.21875 50.515625 64.515625 
Q 56.984375 54.828125 56.984375 36.375 
Q 56.984375 17.96875 50.515625 8.265625 
Q 44.046875 -1.421875 31.78125 -1.421875 
Q 19.53125 -1.421875 13.0625 8.265625 
Q 6.59375 17.96875 6.59375 36.375 
Q 6.59375 54.828125 13.0625 64.515625 
Q 19.53125 74.21875 31.78125 74.21875 
z
" id="DejaVuSans-30"/>
       <path d="M 33.015625 40.375 
Q 26.375 40.375 22.484375 35.828125 
Q 18.609375 31.296875 18.609375 23.390625 
Q 18.609375 15.53125 22.484375 10.953125 
Q 26.375 6.390625 33.015625 6.390625 
Q 39.65625 6.390625 43.53125 10.953125 
Q 47.40625 15.53125 47.40625 23.390625 
Q 47.40625 31.296875 43.53125 35.828125 
Q 39.65625 40.375 33.015625 40.375 
z
M 52.59375 71.296875 
L 52.59375 62.3125 
Q 48.875 64.0625 45.09375 64.984375 
Q 41.3125 65.921875 37.59375 65.921875 
Q 27.828125 65.921875 22.671875 59.328125 
Q 17.53125 52.734375 16.796875 39.40625 
Q 19.671875 43.65625 24.015625 45.921875 
Q 28.375 48.1875 33.59375 48.1875 
Q 44.578125 48.1875 50.953125 41.515625 
Q 57.328125 34.859375 57.328125 23.390625 
Q 57.328125 12.15625 50.6875 5.359375 
Q 44.046875 -1.421875 33.015625 -1.421875 
Q 20.359375 -1.421875 13.671875 8.265625 
Q 6.984375 17.96875 6.984375 36.375 
Q 6.984375 53.65625 15.1875 63.9375 
Q 23.390625 74.21875 37.203125 74.21875 
Q 40.921875 74.21875 44.703125 73.484375 
Q 48.484375 72.75 52.59375 71.296875 
z
" id="DejaVuSans-36"/>
      </defs>
      <g transform="translate(48.728415 324.461937)scale(0.1 -0.1)">
       <use xlink:href="#DejaVuSans-32"/>
       <use x="63.623047" xlink:href="#DejaVuSans-30"/>
       <use x="127.246094" xlink:href="#DejaVuSans-30"/>
       <use x="190.869141" xlink:href="#DejaVuSans-36"/>
      </g>
     </g>
    </g>
    <g id="xtick_2">
     <g id="line2d_3">
      <path clip-path="url(#p1e2677a985)" d="M 124.467594 309.8635 
L 124.467594 23.36505 
" style="fill:none;stroke:#b0b0b0;stroke-linecap:square;stroke-width:0.8;"/>
     </g>
     <g id="line2d_4">
      <g>
       <use style="stroke:#000000;stroke-width:0.8;" x="124.467594" xlink:href="#m01da084060" y="309.8635"/>
      </g>
     </g>
     <g id="text_2">
      <!-- 2008 -->
      <defs>
       <path d="M 31.78125 34.625 
Q 24.75 34.625 20.71875 30.859375 
Q 16.703125 27.09375 16.703125 20.515625 
Q 16.703125 13.921875 20.71875 10.15625 
Q 24.75 6.390625 31.78125 6.390625 
Q 38.8125 6.390625 42.859375 10.171875 
Q 46.921875 13.96875 46.921875 20.515625 
Q 46.921875 27.09375 42.890625 30.859375 
Q 38.875 34.625 31.78125 34.625 
z
M 21.921875 38.8125 
Q 15.578125 40.375 12.03125 44.71875 
Q 8.5 49.078125 8.5 55.328125 
Q 8.5 64.0625 14.71875 69.140625 
Q 20.953125 74.21875 31.78125 74.21875 
Q 42.671875 74.21875 48.875 69.140625 
Q 55.078125 64.0625 55.078125 55.328125 
Q 55.078125 49.078125 51.53125 44.71875 
Q 48 40.375 41.703125 38.8125 
Q 48.828125 37.15625 52.796875 32.3125 
Q 56.78125 27.484375 56.78125 20.515625 
Q 56.78125 9.90625 50.3125 4.234375 
Q 43.84375 -1.421875 31.78125 -1.421875 
Q 19.734375 -1.421875 13.25 4.234375 
Q 6.78125 9.90625 6.78125 20.515625 
Q 6.78125 27.484375 10.78125 32.3125 
Q 14.796875 37.15625 21.921875 38.8125 
z
M 18.3125 54.390625 
Q 18.3125 48.734375 21.84375 45.5625 
Q 25.390625 42.390625 31.78125 42.390625 
Q 38.140625 42.390625 41.71875 45.5625 
Q 45.3125 48.734375 45.3125 54.390625 
Q 45.3125 60.0625 41.71875 63.234375 
Q 38.140625 66.40625 31.78125 66.40625 
Q 25.390625 66.40625 21.84375 63.234375 
Q 18.3125 60.0625 18.3125 54.390625 
z
" id="DejaVuSans-38"/>
      </defs>
      <g transform="translate(111.742594 324.461937)scale(0.1 -0.1)">
       <use xlink:href="#DejaVuSans-32"/>
       <use x="63.623047" xlink:href="#DejaVuSans-30"/>
       <use x="127.246094" xlink:href="#DejaVuSans-30"/>
       <use x="190.869141" xlink:href="#DejaVuSans-38"/>
      </g>
     </g>
    </g>
    <g id="xtick_3">
     <g id="line2d_5">
      <path clip-path="url(#p1e2677a985)" d="M 187.568093 309.8635 
L 187.568093 23.36505 
" style="fill:none;stroke:#b0b0b0;stroke-linecap:square;stroke-width:0.8;"/>
     </g>
     <g id="line2d_6">
      <g>
       <use style="stroke:#000000;stroke-width:0.8;" x="187.568093" xlink:href="#m01da084060" y="309.8635"/>
      </g>
     </g>
     <g id="text_3">
      <!-- 2010 -->
      <defs>
       <path d="M 12.40625 8.296875 
L 28.515625 8.296875 
L 28.515625 63.921875 
L 10.984375 60.40625 
L 10.984375 69.390625 
L 28.421875 72.90625 
L 38.28125 72.90625 
L 38.28125 8.296875 
L 54.390625 8.296875 
L 54.390625 0 
L 12.40625 0 
z
" id="DejaVuSans-31"/>
      </defs>
      <g transform="translate(174.843093 324.461937)scale(0.1 -0.1)">
       <use xlink:href="#DejaVuSans-32"/>
       <use x="63.623047" xlink:href="#DejaVuSans-30"/>
       <use x="127.246094" xlink:href="#DejaVuSans-31"/>
       <use x="190.869141" xlink:href="#DejaVuSans-30"/>
      </g>
     </g>
    </g>
    <g id="xtick_4">
     <g id="line2d_7">
      <path clip-path="url(#p1e2677a985)" d="M 250.582272 309.8635 
L 250.582272 23.36505 
" style="fill:none;stroke:#b0b0b0;stroke-linecap:square;stroke-width:0.8;"/>
     </g>
     <g id="line2d_8">
      <g>
       <use style="stroke:#000000;stroke-width:0.8;" x="250.582272" xlink:href="#m01da084060" y="309.8635"/>
      </g>
     </g>
     <g id="text_4">
      <!-- 2012 -->
      <g transform="translate(237.857272 324.461937)scale(0.1 -0.1)">
       <use xlink:href="#DejaVuSans-32"/>
       <use x="63.623047" xlink:href="#DejaVuSans-30"/>
       <use x="127.246094" xlink:href="#DejaVuSans-31"/>
       <use x="190.869141" xlink:href="#DejaVuSans-32"/>
      </g>
     </g>
    </g>
    <g id="xtick_5">
     <g id="line2d_9">
      <path clip-path="url(#p1e2677a985)" d="M 313.682771 309.8635 
L 313.682771 23.36505 
" style="fill:none;stroke:#b0b0b0;stroke-linecap:square;stroke-width:0.8;"/>
     </g>
     <g id="line2d_10">
      <g>
       <use style="stroke:#000000;stroke-width:0.8;" x="313.682771" xlink:href="#m01da084060" y="309.8635"/>
      </g>
     </g>
     <g id="text_5">
      <!-- 2014 -->
      <defs>
       <path d="M 37.796875 64.3125 
L 12.890625 25.390625 
L 37.796875 25.390625 
z
M 35.203125 72.90625 
L 47.609375 72.90625 
L 47.609375 25.390625 
L 58.015625 25.390625 
L 58.015625 17.1875 
L 47.609375 17.1875 
L 47.609375 0 
L 37.796875 0 
L 37.796875 17.1875 
L 4.890625 17.1875 
L 4.890625 26.703125 
z
" id="DejaVuSans-34"/>
      </defs>
      <g transform="translate(300.957771 324.461937)scale(0.1 -0.1)">
       <use xlink:href="#DejaVuSans-32"/>
       <use x="63.623047" xlink:href="#DejaVuSans-30"/>
       <use x="127.246094" xlink:href="#DejaVuSans-31"/>
       <use x="190.869141" xlink:href="#DejaVuSans-34"/>
      </g>
     </g>
    </g>
    <g id="xtick_6">
     <g id="line2d_11">
      <path clip-path="url(#p1e2677a985)" d="M 376.69695 309.8635 
L 376.69695 23.36505 
" style="fill:none;stroke:#b0b0b0;stroke-linecap:square;stroke-width:0.8;"/>
     </g>
     <g id="line2d_12">
      <g>
       <use style="stroke:#000000;stroke-width:0.8;" x="376.69695" xlink:href="#m01da084060" y="309.8635"/>
      </g>
     </g>
     <g id="text_6">
      <!-- 2016 -->
      <g transform="translate(363.97195 324.461937)scale(0.1 -0.1)">
       <use xlink:href="#DejaVuSans-32"/>
       <use x="63.623047" xlink:href="#DejaVuSans-30"/>
       <use x="127.246094" xlink:href="#DejaVuSans-31"/>
       <use x="190.869141" xlink:href="#DejaVuSans-36"/>
      </g>
     </g>
    </g>
    <g id="xtick_7">
     <g id="line2d_13">
      <path clip-path="url(#p1e2677a985)" d="M 439.797449 309.8635 
L 439.797449 23.36505 
" style="fill:none;stroke:#b0b0b0;stroke-linecap:square;stroke-width:0.8;"/>
     </g>
     <g id="line2d_14">
      <g>
       <use style="stroke:#000000;stroke-width:0.8;" x="439.797449" xlink:href="#m01da084060" y="309.8635"/>
      </g>
     </g>
     <g id="text_7">
      <!-- 2018 -->
      <g transform="translate(427.072449 324.461937)scale(0.1 -0.1)">
       <use xlink:href="#DejaVuSans-32"/>
       <use x="63.623047" xlink:href="#DejaVuSans-30"/>
       <use x="127.246094" xlink:href="#DejaVuSans-31"/>
       <use x="190.869141" xlink:href="#DejaVuSans-38"/>
      </g>
     </g>
    </g>
    <g id="text_8">
     <!-- Date -->
     <defs>
      <path d="M 19.671875 64.796875 
L 19.671875 8.109375 
L 31.59375 8.109375 
Q 46.6875 8.109375 53.6875 14.9375 
Q 60.6875 21.78125 60.6875 36.53125 
Q 60.6875 51.171875 53.6875 57.984375 
Q 46.6875 64.796875 31.59375 64.796875 
z
M 9.8125 72.90625 
L 30.078125 72.90625 
Q 51.265625 72.90625 61.171875 64.09375 
Q 71.09375 55.28125 71.09375 36.53125 
Q 71.09375 17.671875 61.125 8.828125 
Q 51.171875 0 30.078125 0 
L 9.8125 0 
z
" id="DejaVuSans-44"/>
      <path d="M 34.28125 27.484375 
Q 23.390625 27.484375 19.1875 25 
Q 14.984375 22.515625 14.984375 16.5 
Q 14.984375 11.71875 18.140625 8.90625 
Q 21.296875 6.109375 26.703125 6.109375 
Q 34.1875 6.109375 38.703125 11.40625 
Q 43.21875 16.703125 43.21875 25.484375 
L 43.21875 27.484375 
z
M 52.203125 31.203125 
L 52.203125 0 
L 43.21875 0 
L 43.21875 8.296875 
Q 40.140625 3.328125 35.546875 0.953125 
Q 30.953125 -1.421875 24.3125 -1.421875 
Q 15.921875 -1.421875 10.953125 3.296875 
Q 6 8.015625 6 15.921875 
Q 6 25.140625 12.171875 29.828125 
Q 18.359375 34.515625 30.609375 34.515625 
L 43.21875 34.515625 
L 43.21875 35.40625 
Q 43.21875 41.609375 39.140625 45 
Q 35.0625 48.390625 27.6875 48.390625 
Q 23 48.390625 18.546875 47.265625 
Q 14.109375 46.140625 10.015625 43.890625 
L 10.015625 52.203125 
Q 14.9375 54.109375 19.578125 55.046875 
Q 24.21875 56 28.609375 56 
Q 40.484375 56 46.34375 49.84375 
Q 52.203125 43.703125 52.203125 31.203125 
z
" id="DejaVuSans-61"/>
      <path d="M 18.3125 70.21875 
L 18.3125 54.6875 
L 36.8125 54.6875 
L 36.8125 47.703125 
L 18.3125 47.703125 
L 18.3125 18.015625 
Q 18.3125 11.328125 20.140625 9.421875 
Q 21.96875 7.515625 27.59375 7.515625 
L 36.8125 7.515625 
L 36.8125 0 
L 27.59375 0 
Q 17.1875 0 13.234375 3.875 
Q 9.28125 7.765625 9.28125 18.015625 
L 9.28125 47.703125 
L 2.6875 47.703125 
L 2.6875 54.6875 
L 9.28125 54.6875 
L 9.28125 70.21875 
z
" id="DejaVuSans-74"/>
      <path d="M 56.203125 29.59375 
L 56.203125 25.203125 
L 14.890625 25.203125 
Q 15.484375 15.921875 20.484375 11.0625 
Q 25.484375 6.203125 34.421875 6.203125 
Q 39.59375 6.203125 44.453125 7.46875 
Q 49.3125 8.734375 54.109375 11.28125 
L 54.109375 2.78125 
Q 49.265625 0.734375 44.1875 -0.34375 
Q 39.109375 -1.421875 33.890625 -1.421875 
Q 20.796875 -1.421875 13.15625 6.1875 
Q 5.515625 13.8125 5.515625 26.8125 
Q 5.515625 40.234375 12.765625 48.109375 
Q 20.015625 56 32.328125 56 
Q 43.359375 56 49.78125 48.890625 
Q 56.203125 41.796875 56.203125 29.59375 
z
M 47.21875 32.234375 
Q 47.125 39.59375 43.09375 43.984375 
Q 39.0625 48.390625 32.421875 48.390625 
Q 24.90625 48.390625 20.390625 44.140625 
Q 15.875 39.890625 15.1875 32.171875 
z
" id="DejaVuSans-65"/>
     </defs>
     <g transform="translate(231.898469 338.140062)scale(0.1 -0.1)">
      <use xlink:href="#DejaVuSans-44"/>
      <use x="77.001953" xlink:href="#DejaVuSans-61"/>
      <use x="138.28125" xlink:href="#DejaVuSans-74"/>
      <use x="177.490234" xlink:href="#DejaVuSans-65"/>
     </g>
    </g>
   </g>
   <g id="matplotlib.axis_2">
    <g id="ytick_1">
     <g id="line2d_15">
      <path clip-path="url(#p1e2677a985)" d="M 40.2185 296.840843 
L 447.48 296.840843 
" style="fill:none;stroke:#b0b0b0;stroke-linecap:square;stroke-width:0.8;"/>
     </g>
     <g id="line2d_16">
      <defs>
       <path d="M 0 0 
L -3.5 0 
" id="m7ef6a04434" style="stroke:#000000;stroke-width:0.8;"/>
      </defs>
      <g>
       <use style="stroke:#000000;stroke-width:0.8;" x="40.2185" xlink:href="#m7ef6a04434" y="296.840843"/>
      </g>
     </g>
     <g id="text_9">
      <!-- 0.0 -->
      <defs>
       <path d="M 10.6875 12.40625 
L 21 12.40625 
L 21 0 
L 10.6875 0 
z
" id="DejaVuSans-2e"/>
      </defs>
      <g transform="translate(17.315375 300.640062)scale(0.1 -0.1)">
       <use xlink:href="#DejaVuSans-30"/>
       <use x="63.623047" xlink:href="#DejaVuSans-2e"/>
       <use x="95.410156" xlink:href="#DejaVuSans-30"/>
      </g>
     </g>
    </g>
    <g id="ytick_2">
     <g id="line2d_17">
      <path clip-path="url(#p1e2677a985)" d="M 40.2185 253.911461 
L 447.48 253.911461 
" style="fill:none;stroke:#b0b0b0;stroke-linecap:square;stroke-width:0.8;"/>
     </g>
     <g id="line2d_18">
      <g>
       <use style="stroke:#000000;stroke-width:0.8;" x="40.2185" xlink:href="#m7ef6a04434" y="253.911461"/>
      </g>
     </g>
     <g id="text_10">
      <!-- 0.1 -->
      <g transform="translate(17.315375 257.71068)scale(0.1 -0.1)">
       <use xlink:href="#DejaVuSans-30"/>
       <use x="63.623047" xlink:href="#DejaVuSans-2e"/>
       <use x="95.410156" xlink:href="#DejaVuSans-31"/>
      </g>
     </g>
    </g>
    <g id="ytick_3">
     <g id="line2d_19">
      <path clip-path="url(#p1e2677a985)" d="M 40.2185 210.982079 
L 447.48 210.982079 
" style="fill:none;stroke:#b0b0b0;stroke-linecap:square;stroke-width:0.8;"/>
     </g>
     <g id="line2d_20">
      <g>
       <use style="stroke:#000000;stroke-width:0.8;" x="40.2185" xlink:href="#m7ef6a04434" y="210.982079"/>
      </g>
     </g>
     <g id="text_11">
      <!-- 0.2 -->
      <g transform="translate(17.315375 214.781298)scale(0.1 -0.1)">
       <use xlink:href="#DejaVuSans-30"/>
       <use x="63.623047" xlink:href="#DejaVuSans-2e"/>
       <use x="95.410156" xlink:href="#DejaVuSans-32"/>
      </g>
     </g>
    </g>
    <g id="ytick_4">
     <g id="line2d_21">
      <path clip-path="url(#p1e2677a985)" d="M 40.2185 168.052697 
L 447.48 168.052697 
" style="fill:none;stroke:#b0b0b0;stroke-linecap:square;stroke-width:0.8;"/>
     </g>
     <g id="line2d_22">
      <g>
       <use style="stroke:#000000;stroke-width:0.8;" x="40.2185" xlink:href="#m7ef6a04434" y="168.052697"/>
      </g>
     </g>
     <g id="text_12">
      <!-- 0.3 -->
      <defs>
       <path d="M 40.578125 39.3125 
Q 47.65625 37.796875 51.625 33 
Q 55.609375 28.21875 55.609375 21.1875 
Q 55.609375 10.40625 48.1875 4.484375 
Q 40.765625 -1.421875 27.09375 -1.421875 
Q 22.515625 -1.421875 17.65625 -0.515625 
Q 12.796875 0.390625 7.625 2.203125 
L 7.625 11.71875 
Q 11.71875 9.328125 16.59375 8.109375 
Q 21.484375 6.890625 26.8125 6.890625 
Q 36.078125 6.890625 40.9375 10.546875 
Q 45.796875 14.203125 45.796875 21.1875 
Q 45.796875 27.640625 41.28125 31.265625 
Q 36.765625 34.90625 28.71875 34.90625 
L 20.21875 34.90625 
L 20.21875 43.015625 
L 29.109375 43.015625 
Q 36.375 43.015625 40.234375 45.921875 
Q 44.09375 48.828125 44.09375 54.296875 
Q 44.09375 59.90625 40.109375 62.90625 
Q 36.140625 65.921875 28.71875 65.921875 
Q 24.65625 65.921875 20.015625 65.03125 
Q 15.375 64.15625 9.8125 62.3125 
L 9.8125 71.09375 
Q 15.4375 72.65625 20.34375 73.4375 
Q 25.25 74.21875 29.59375 74.21875 
Q 40.828125 74.21875 47.359375 69.109375 
Q 53.90625 64.015625 53.90625 55.328125 
Q 53.90625 49.265625 50.4375 45.09375 
Q 46.96875 40.921875 40.578125 39.3125 
z
" id="DejaVuSans-33"/>
      </defs>
      <g transform="translate(17.315375 171.851916)scale(0.1 -0.1)">
       <use xlink:href="#DejaVuSans-30"/>
       <use x="63.623047" xlink:href="#DejaVuSans-2e"/>
       <use x="95.410156" xlink:href="#DejaVuSans-33"/>
      </g>
     </g>
    </g>
    <g id="ytick_5">
     <g id="line2d_23">
      <path clip-path="url(#p1e2677a985)" d="M 40.2185 125.123315 
L 447.48 125.123315 
" style="fill:none;stroke:#b0b0b0;stroke-linecap:square;stroke-width:0.8;"/>
     </g>
     <g id="line2d_24">
      <g>
       <use style="stroke:#000000;stroke-width:0.8;" x="40.2185" xlink:href="#m7ef6a04434" y="125.123315"/>
      </g>
     </g>
     <g id="text_13">
      <!-- 0.4 -->
      <g transform="translate(17.315375 128.922533)scale(0.1 -0.1)">
       <use xlink:href="#DejaVuSans-30"/>
       <use x="63.623047" xlink:href="#DejaVuSans-2e"/>
       <use x="95.410156" xlink:href="#DejaVuSans-34"/>
      </g>
     </g>
    </g>
    <g id="ytick_6">
     <g id="line2d_25">
      <path clip-path="url(#p1e2677a985)" d="M 40.2185 82.193933 
L 447.48 82.193933 
" style="fill:none;stroke:#b0b0b0;stroke-linecap:square;stroke-width:0.8;"/>
     </g>
     <g id="line2d_26">
      <g>
       <use style="stroke:#000000;stroke-width:0.8;" x="40.2185" xlink:href="#m7ef6a04434" y="82.193933"/>
      </g>
     </g>
     <g id="text_14">
      <!-- 0.5 -->
      <defs>
       <path d="M 10.796875 72.90625 
L 49.515625 72.90625 
L 49.515625 64.59375 
L 19.828125 64.59375 
L 19.828125 46.734375 
Q 21.96875 47.46875 24.109375 47.828125 
Q 26.265625 48.1875 28.421875 48.1875 
Q 40.625 48.1875 47.75 41.5 
Q 54.890625 34.8125 54.890625 23.390625 
Q 54.890625 11.625 47.5625 5.09375 
Q 40.234375 -1.421875 26.90625 -1.421875 
Q 22.3125 -1.421875 17.546875 -0.640625 
Q 12.796875 0.140625 7.71875 1.703125 
L 7.71875 11.625 
Q 12.109375 9.234375 16.796875 8.0625 
Q 21.484375 6.890625 26.703125 6.890625 
Q 35.15625 6.890625 40.078125 11.328125 
Q 45.015625 15.765625 45.015625 23.390625 
Q 45.015625 31 40.078125 35.4375 
Q 35.15625 39.890625 26.703125 39.890625 
Q 22.75 39.890625 18.8125 39.015625 
Q 14.890625 38.140625 10.796875 36.28125 
z
" id="DejaVuSans-35"/>
      </defs>
      <g transform="translate(17.315375 85.993151)scale(0.1 -0.1)">
       <use xlink:href="#DejaVuSans-30"/>
       <use x="63.623047" xlink:href="#DejaVuSans-2e"/>
       <use x="95.410156" xlink:href="#DejaVuSans-35"/>
      </g>
     </g>
    </g>
    <g id="ytick_7">
     <g id="line2d_27">
      <path clip-path="url(#p1e2677a985)" d="M 40.2185 39.26455 
L 447.48 39.26455 
" style="fill:none;stroke:#b0b0b0;stroke-linecap:square;stroke-width:0.8;"/>
     </g>
     <g id="line2d_28">
      <g>
       <use style="stroke:#000000;stroke-width:0.8;" x="40.2185" xlink:href="#m7ef6a04434" y="39.26455"/>
      </g>
     </g>
     <g id="text_15">
      <!-- 0.6 -->
      <g transform="translate(17.315375 43.063769)scale(0.1 -0.1)">
       <use xlink:href="#DejaVuSans-30"/>
       <use x="63.623047" xlink:href="#DejaVuSans-2e"/>
       <use x="95.410156" xlink:href="#DejaVuSans-36"/>
      </g>
     </g>
    </g>
    <g id="text_16">
     <!-- Emissions / mean emissions -->
     <defs>
      <path d="M 9.8125 72.90625 
L 55.90625 72.90625 
L 55.90625 64.59375 
L 19.671875 64.59375 
L 19.671875 43.015625 
L 54.390625 43.015625 
L 54.390625 34.71875 
L 19.671875 34.71875 
L 19.671875 8.296875 
L 56.78125 8.296875 
L 56.78125 0 
L 9.8125 0 
z
" id="DejaVuSans-45"/>
      <path d="M 52 44.1875 
Q 55.375 50.25 60.0625 53.125 
Q 64.75 56 71.09375 56 
Q 79.640625 56 84.28125 50.015625 
Q 88.921875 44.046875 88.921875 33.015625 
L 88.921875 0 
L 79.890625 0 
L 79.890625 32.71875 
Q 79.890625 40.578125 77.09375 44.375 
Q 74.3125 48.1875 68.609375 48.1875 
Q 61.625 48.1875 57.5625 43.546875 
Q 53.515625 38.921875 53.515625 30.90625 
L 53.515625 0 
L 44.484375 0 
L 44.484375 32.71875 
Q 44.484375 40.625 41.703125 44.40625 
Q 38.921875 48.1875 33.109375 48.1875 
Q 26.21875 48.1875 22.15625 43.53125 
Q 18.109375 38.875 18.109375 30.90625 
L 18.109375 0 
L 9.078125 0 
L 9.078125 54.6875 
L 18.109375 54.6875 
L 18.109375 46.1875 
Q 21.1875 51.21875 25.484375 53.609375 
Q 29.78125 56 35.6875 56 
Q 41.65625 56 45.828125 52.96875 
Q 50 49.953125 52 44.1875 
z
" id="DejaVuSans-6d"/>
      <path d="M 9.421875 54.6875 
L 18.40625 54.6875 
L 18.40625 0 
L 9.421875 0 
z
M 9.421875 75.984375 
L 18.40625 75.984375 
L 18.40625 64.59375 
L 9.421875 64.59375 
z
" id="DejaVuSans-69"/>
      <path d="M 44.28125 53.078125 
L 44.28125 44.578125 
Q 40.484375 46.53125 36.375 47.5 
Q 32.28125 48.484375 27.875 48.484375 
Q 21.1875 48.484375 17.84375 46.4375 
Q 14.5 44.390625 14.5 40.28125 
Q 14.5 37.15625 16.890625 35.375 
Q 19.28125 33.59375 26.515625 31.984375 
L 29.59375 31.296875 
Q 39.15625 29.25 43.1875 25.515625 
Q 47.21875 21.78125 47.21875 15.09375 
Q 47.21875 7.46875 41.1875 3.015625 
Q 35.15625 -1.421875 24.609375 -1.421875 
Q 20.21875 -1.421875 15.453125 -0.5625 
Q 10.6875 0.296875 5.421875 2 
L 5.421875 11.28125 
Q 10.40625 8.6875 15.234375 7.390625 
Q 20.0625 6.109375 24.8125 6.109375 
Q 31.15625 6.109375 34.5625 8.28125 
Q 37.984375 10.453125 37.984375 14.40625 
Q 37.984375 18.0625 35.515625 20.015625 
Q 33.0625 21.96875 24.703125 23.78125 
L 21.578125 24.515625 
Q 13.234375 26.265625 9.515625 29.90625 
Q 5.8125 33.546875 5.8125 39.890625 
Q 5.8125 47.609375 11.28125 51.796875 
Q 16.75 56 26.8125 56 
Q 31.78125 56 36.171875 55.265625 
Q 40.578125 54.546875 44.28125 53.078125 
z
" id="DejaVuSans-73"/>
      <path d="M 30.609375 48.390625 
Q 23.390625 48.390625 19.1875 42.75 
Q 14.984375 37.109375 14.984375 27.296875 
Q 14.984375 17.484375 19.15625 11.84375 
Q 23.34375 6.203125 30.609375 6.203125 
Q 37.796875 6.203125 41.984375 11.859375 
Q 46.1875 17.53125 46.1875 27.296875 
Q 46.1875 37.015625 41.984375 42.703125 
Q 37.796875 48.390625 30.609375 48.390625 
z
M 30.609375 56 
Q 42.328125 56 49.015625 48.375 
Q 55.71875 40.765625 55.71875 27.296875 
Q 55.71875 13.875 49.015625 6.21875 
Q 42.328125 -1.421875 30.609375 -1.421875 
Q 18.84375 -1.421875 12.171875 6.21875 
Q 5.515625 13.875 5.515625 27.296875 
Q 5.515625 40.765625 12.171875 48.375 
Q 18.84375 56 30.609375 56 
z
" id="DejaVuSans-6f"/>
      <path d="M 54.890625 33.015625 
L 54.890625 0 
L 45.90625 0 
L 45.90625 32.71875 
Q 45.90625 40.484375 42.875 44.328125 
Q 39.84375 48.1875 33.796875 48.1875 
Q 26.515625 48.1875 22.3125 43.546875 
Q 18.109375 38.921875 18.109375 30.90625 
L 18.109375 0 
L 9.078125 0 
L 9.078125 54.6875 
L 18.109375 54.6875 
L 18.109375 46.1875 
Q 21.34375 51.125 25.703125 53.5625 
Q 30.078125 56 35.796875 56 
Q 45.21875 56 50.046875 50.171875 
Q 54.890625 44.34375 54.890625 33.015625 
z
" id="DejaVuSans-6e"/>
      <path id="DejaVuSans-20"/>
      <path d="M 25.390625 72.90625 
L 33.6875 72.90625 
L 8.296875 -9.28125 
L 0 -9.28125 
z
" id="DejaVuSans-2f"/>
     </defs>
     <g transform="translate(11.235688 236.862712)rotate(-90)scale(0.1 -0.1)">
      <use xlink:href="#DejaVuSans-45"/>
      <use x="63.183594" xlink:href="#DejaVuSans-6d"/>
      <use x="160.595703" xlink:href="#DejaVuSans-69"/>
      <use x="188.378906" xlink:href="#DejaVuSans-73"/>
      <use x="240.478516" xlink:href="#DejaVuSans-73"/>
      <use x="292.578125" xlink:href="#DejaVuSans-69"/>
      <use x="320.361328" xlink:href="#DejaVuSans-6f"/>
      <use x="381.542969" xlink:href="#DejaVuSans-6e"/>
      <use x="444.921875" xlink:href="#DejaVuSans-73"/>
      <use x="497.021484" xlink:href="#DejaVuSans-20"/>
      <use x="528.808594" xlink:href="#DejaVuSans-2f"/>
      <use x="562.5" xlink:href="#DejaVuSans-20"/>
      <use x="594.287109" xlink:href="#DejaVuSans-6d"/>
      <use x="691.699219" xlink:href="#DejaVuSans-65"/>
      <use x="753.222656" xlink:href="#DejaVuSans-61"/>
      <use x="814.501953" xlink:href="#DejaVuSans-6e"/>
      <use x="877.880859" xlink:href="#DejaVuSans-20"/>
      <use x="909.667969" xlink:href="#DejaVuSans-65"/>
      <use x="971.191406" xlink:href="#DejaVuSans-6d"/>
      <use x="1068.603516" xlink:href="#DejaVuSans-69"/>
      <use x="1096.386719" xlink:href="#DejaVuSans-73"/>
      <use x="1148.486328" xlink:href="#DejaVuSans-73"/>
      <use x="1200.585938" xlink:href="#DejaVuSans-69"/>
      <use x="1228.369141" xlink:href="#DejaVuSans-6f"/>
      <use x="1289.550781" xlink:href="#DejaVuSans-6e"/>
      <use x="1352.929688" xlink:href="#DejaVuSans-73"/>
     </g>
    </g>
   </g>
   <g id="line2d_29">
    <path clip-path="url(#p1e2677a985)" d="M 40.2185 291.657846 
L 42.894445 294.6021 
L 45.484068 278.379486 
L 48.160013 198.75937 
L 50.835958 236.11012 
L 53.425581 293.841585 
L 56.101526 296.840843 
L 58.69115 296.840843 
L 61.367094 284.03562 
L 64.043039 296.840843 
L 66.460021 296.840843 
L 69.135966 286.696884 
L 71.725589 296.840843 
L 74.401534 256.587586 
L 76.991158 229.465437 
L 79.667102 265.368861 
L 82.343047 296.840843 
L 84.932671 273.239223 
L 87.608615 288.331139 
L 90.198239 279.616654 
L 92.874184 272.627544 
L 95.550128 274.946242 
L 97.96711 296.840843 
L 100.643055 268.088024 
L 103.232679 270.432983 
L 105.908623 256.768174 
L 108.498247 211.801081 
L 111.174192 36.398132 
L 116.43976 183.265749 
L 119.115705 283.234001 
L 121.705328 293.845146 
L 124.381273 266.799782 
L 127.057217 233.13386 
L 129.56052 266.729144 
L 132.236465 286.595562 
L 134.826089 285.13583 
L 137.502033 296.840843 
L 140.091657 285.833829 
L 142.767602 294.443569 
L 145.443546 245.034074 
L 148.03317 287.162163 
L 150.709115 295.216238 
L 153.298738 296.840843 
L 155.974683 268.145923 
L 158.650628 296.840843 
L 161.06761 296.821002 
L 163.743554 282.005726 
L 166.333178 296.840843 
L 169.009123 271.262104 
L 171.598747 290.62438 
L 174.274691 229.999069 
L 176.950636 137.46965 
L 179.540259 235.104271 
L 182.216204 296.840843 
L 184.805828 296.840843 
L 187.481772 203.743468 
L 190.157717 296.840843 
L 192.574699 296.840843 
L 195.250644 292.875484 
L 197.840267 296.840843 
L 200.516212 296.840843 
L 203.105836 289.389349 
L 205.78178 279.757333 
L 208.457725 178.889149 
L 211.047349 285.188536 
L 213.723293 296.840843 
L 216.312917 272.263449 
L 218.988862 293.829431 
L 221.664806 293.260095 
L 224.081788 283.692316 
L 226.757733 290.687058 
L 229.347357 293.439167 
L 232.023301 293.102253 
L 234.612925 265.262094 
L 237.28887 249.745911 
L 239.964814 230.202403 
L 242.554438 296.840843 
L 245.230383 296.840843 
L 247.820006 293.664236 
L 250.495951 257.825511 
L 253.171896 296.840843 
L 255.675199 291.073143 
L 258.351143 293.570266 
L 260.940767 273.986367 
L 263.616712 280.644421 
L 266.206335 247.106289 
L 268.88228 237.734035 
L 271.558224 240.182316 
L 274.147848 291.603003 
L 276.823793 288.96113 
L 279.413417 290.409995 
L 282.089361 287.488164 
L 284.765306 283.038249 
L 287.182288 296.840843 
L 289.858233 293.732933 
L 292.447856 296.840843 
L 295.123801 264.947029 
L 297.713425 250.139023 
L 300.389369 221.38046 
L 303.065314 204.028825 
L 305.654938 258.977255 
L 308.330882 296.840843 
L 310.920506 286.484107 
L 313.596451 254.162741 
L 316.272395 282.797695 
L 318.689377 287.929911 
L 321.365322 296.840843 
L 323.954946 292.194165 
L 326.63089 261.233253 
L 329.220514 269.673731 
L 331.896459 201.160091 
L 334.572403 253.029584 
L 337.162027 273.13666 
L 339.837971 285.07159 
L 342.427595 243.975266 
L 345.10354 293.6516 
L 347.779484 290.250751 
L 350.196467 296.840843 
L 352.872411 288.403512 
L 355.462035 246.51299 
L 358.13798 270.591446 
L 360.727603 121.876039 
L 363.403548 200.328834 
L 366.079492 120.371665 
L 368.669116 227.496083 
L 371.345061 278.378797 
L 373.934685 230.632805 
L 376.610629 280.7678 
L 379.286574 290.709114 
L 381.789877 291.745845 
L 384.465821 293.992098 
L 387.055445 289.058868 
L 392.321013 169.22244 
L 394.996958 226.952503 
L 397.672903 169.883172 
L 400.262526 293.02749 
L 402.938471 279.40236 
L 405.528095 296.840843 
L 408.204039 272.547589 
L 410.879984 279.605005 
L 413.296966 268.66728 
L 415.972911 269.012333 
L 418.562534 296.840843 
L 421.238479 290.996539 
L 423.828103 277.00628 
L 426.504047 207.326973 
L 429.179992 155.652543 
L 431.769616 263.429491 
L 434.44556 282.242145 
L 437.035184 291.023237 
L 439.711129 284.446424 
L 442.387073 286.977417 
L 444.804055 296.840843 
L 447.48 293.45378 
L 447.48 293.45378 
" style="fill:none;stroke:#1f77b4;stroke-linecap:square;stroke-width:1.5;"/>
   </g>
   <g id="line2d_30">
    <path clip-path="url(#p1e2677a985)" d="M 40.2185 291.699304 
L 42.894445 294.873887 
L 45.484068 280.346112 
L 48.160013 203.828217 
L 50.835958 251.129447 
L 53.425581 294.847416 
L 56.101526 296.840843 
L 58.69115 296.840843 
L 61.367094 284.74548 
L 64.043039 296.840843 
L 66.460021 296.840843 
L 69.135966 288.164697 
L 71.725589 296.840843 
L 74.401534 262.709989 
L 76.991158 240.815026 
L 79.667102 269.705158 
L 82.343047 296.840843 
L 84.932671 273.699312 
L 87.608615 285.800891 
L 90.198239 276.05006 
L 92.874184 267.192934 
L 95.550128 267.782272 
L 97.96711 296.840843 
L 100.643055 264.537277 
L 103.232679 268.018446 
L 105.908623 258.125259 
L 108.498247 218.302913 
L 111.174192 58.666858 
L 113.850136 125.191083 
L 116.43976 185.360232 
L 119.115705 278.881019 
L 121.705328 293.024954 
L 124.381273 258.303708 
L 127.057217 216.979414 
L 129.56052 261.272787 
L 132.236465 284.894325 
L 134.826089 283.788082 
L 137.502033 296.840843 
L 140.091657 287.250623 
L 142.767602 294.573359 
L 145.443546 252.113816 
L 148.03317 288.230635 
L 150.709115 294.877236 
L 153.298738 296.840843 
L 155.974683 264.480555 
L 158.650628 296.840843 
L 161.06761 296.833534 
L 163.743554 280.102587 
L 166.333178 296.840843 
L 169.009123 273.08178 
L 171.598747 291.512094 
L 174.274691 236.173525 
L 176.950636 153.111603 
L 179.540259 239.748148 
L 182.216204 296.840843 
L 184.805828 296.840843 
L 187.481772 193.574296 
L 190.157717 296.840843 
L 192.574699 296.840843 
L 195.250644 292.583367 
L 197.840267 296.840843 
L 200.516212 296.840843 
L 203.105836 289.49251 
L 205.78178 280.556511 
L 208.457725 191.586423 
L 211.047349 285.702542 
L 213.723293 296.840843 
L 216.312917 267.765936 
L 218.988862 293.619435 
L 221.664806 293.011209 
L 224.081788 282.020979 
L 226.757733 290.367456 
L 229.347357 293.097004 
L 232.023301 292.68751 
L 234.612925 266.579897 
L 237.28887 253.063303 
L 239.964814 235.108857 
L 242.554438 296.840843 
L 245.230383 296.840843 
L 247.820006 293.15215 
L 250.495951 251.544939 
L 253.171896 296.840843 
L 255.675199 290.510208 
L 258.351143 293.162612 
L 260.940767 272.099205 
L 263.616712 281.099955 
L 266.206335 246.00669 
L 268.88228 243.438462 
L 271.558224 246.139615 
L 274.147848 292.074772 
L 276.823793 289.0169 
L 279.413417 290.222438 
L 282.089361 287.405353 
L 284.765306 282.641491 
L 287.182288 296.840843 
L 289.858233 293.63269 
L 292.447856 296.840843 
L 295.123801 268.969105 
L 297.713425 255.676824 
L 300.389369 229.787539 
L 303.065314 209.005668 
L 305.654938 261.350986 
L 308.330882 296.840843 
L 310.920506 285.439491 
L 313.596451 246.966846 
L 316.272395 280.437177 
L 318.689377 286.083917 
L 321.365322 296.840843 
L 323.954946 292.160619 
L 326.63089 262.942567 
L 329.220514 271.271981 
L 331.896459 212.028366 
L 334.572403 257.83711 
L 337.162027 274.359938 
L 339.837971 284.989314 
L 342.427595 233.892497 
L 345.10354 293.265034 
L 347.779484 288.993745 
L 350.196467 296.840843 
L 352.872411 287.236081 
L 355.462035 240.29903 
L 358.13798 270.390595 
L 360.727603 132.690496 
L 363.403548 206.43069 
L 366.079492 125.711145 
L 368.669116 222.710181 
L 371.345061 276.850278 
L 373.934685 215.116496 
L 376.610629 277.227019 
L 379.286574 288.914506 
L 381.789877 290.041613 
L 384.465821 293.576737 
L 387.055445 287.040958 
L 389.73139 215.883297 
L 392.321013 156.97537 
L 394.996958 220.344222 
L 397.672903 169.782127 
L 400.262526 292.812457 
L 402.938471 276.684213 
L 405.528095 296.840843 
L 408.204039 268.544499 
L 410.879984 276.361943 
L 413.296966 259.035056 
L 415.972911 263.166214 
L 418.562534 296.840843 
L 421.238479 289.299461 
L 423.828103 272.633476 
L 426.504047 189.533182 
L 429.179992 156.900413 
L 431.769616 265.228432 
L 434.44556 279.925865 
L 437.035184 290.648484 
L 439.711129 282.592847 
L 442.387073 284.942873 
L 444.804055 296.840843 
L 447.48 292.768423 
L 447.48 292.768423 
" style="fill:none;stroke:#ff7f0e;stroke-linecap:square;stroke-width:1.5;"/>
   </g>
   <g id="line2d_31">
    <path clip-path="url(#p1e2677a985)" d="M 40.2185 291.656997 
L 42.894445 294.602715 
L 45.484068 278.377178 
L 48.160013 198.750103 
L 50.835958 236.103616 
L 53.425581 293.841093 
L 56.101526 296.840843 
L 58.69115 296.840843 
L 61.367094 284.034661 
L 64.043039 296.840843 
L 66.460021 296.840843 
L 69.135966 286.697406 
L 71.725589 296.840843 
L 74.401534 256.584757 
L 76.991158 229.46911 
L 79.667102 265.37198 
L 82.343047 296.840843 
L 84.932671 273.238679 
L 87.608615 288.330423 
L 90.198239 279.613273 
L 92.874184 272.625203 
L 95.550128 274.945095 
L 97.96711 296.840843 
L 100.643055 268.088728 
L 103.232679 270.431681 
L 105.908623 256.768236 
L 108.498247 211.801273 
L 111.174192 36.387707 
L 116.43976 183.258763 
L 119.115705 283.233244 
L 121.705328 293.844573 
L 124.381273 266.799525 
L 127.057217 233.129662 
L 129.56052 266.726519 
L 132.236465 286.593784 
L 134.826089 285.134415 
L 137.502033 296.840843 
L 140.091657 285.833004 
L 142.767602 294.44186 
L 145.443546 245.060178 
L 148.03317 287.159722 
L 150.709115 295.216421 
L 153.298738 296.840843 
L 155.974683 268.143804 
L 158.650628 296.840843 
L 161.06761 296.821211 
L 163.743554 282.004788 
L 166.333178 296.840843 
L 169.009123 271.264306 
L 171.598747 290.624103 
L 174.274691 229.99831 
L 176.950636 137.466097 
L 179.540259 235.1077 
L 182.216204 296.840843 
L 184.805828 296.840843 
L 187.481772 203.745308 
L 190.157717 296.840843 
L 192.574699 296.840843 
L 195.250644 292.875547 
L 197.840267 296.840843 
L 200.516212 296.840843 
L 203.105836 289.389828 
L 205.78178 279.754092 
L 208.457725 178.897255 
L 211.047349 285.187774 
L 213.723293 296.840843 
L 216.312917 272.261884 
L 218.988862 293.828627 
L 221.664806 293.259516 
L 224.081788 283.691762 
L 226.757733 290.687227 
L 229.347357 293.438156 
L 232.023301 293.102209 
L 234.612925 265.261872 
L 237.28887 249.74274 
L 239.964814 230.200107 
L 242.554438 296.840843 
L 245.230383 296.840843 
L 247.820006 293.66388 
L 250.495951 257.826073 
L 253.171896 296.840843 
L 255.675199 291.070547 
L 258.351143 293.569632 
L 260.940767 273.986944 
L 263.616712 280.649124 
L 266.206335 247.107831 
L 268.88228 237.733759 
L 271.558224 240.179585 
L 274.147848 291.603638 
L 276.823793 288.961478 
L 279.413417 290.40913 
L 282.089361 287.489296 
L 284.765306 283.04101 
L 287.182288 296.840843 
L 289.858233 293.732979 
L 292.447856 296.840843 
L 295.123801 264.94451 
L 297.713425 250.136439 
L 300.389369 221.377969 
L 303.065314 204.026454 
L 305.654938 258.978894 
L 308.330882 296.840843 
L 310.920506 286.483721 
L 313.596451 254.162794 
L 316.272395 282.799552 
L 318.689377 287.930526 
L 321.365322 296.840843 
L 323.954946 292.194639 
L 326.63089 261.234464 
L 329.220514 269.677425 
L 331.896459 201.158461 
L 334.572403 253.029227 
L 337.162027 273.136132 
L 339.837971 285.071112 
L 342.427595 243.979171 
L 345.10354 293.652078 
L 347.779484 290.251572 
L 350.196467 296.840843 
L 352.872411 288.402708 
L 355.462035 246.509947 
L 358.13798 270.594313 
L 360.727603 121.880901 
L 363.403548 200.32977 
L 366.079492 120.377112 
L 368.669116 227.495465 
L 371.345061 278.377342 
L 373.934685 230.63425 
L 376.610629 280.767383 
L 379.286574 290.709211 
L 381.789877 291.747645 
L 384.465821 293.993463 
L 387.055445 289.059615 
L 392.321013 169.222258 
L 394.996958 226.956879 
L 397.672903 169.892 
L 400.262526 293.026733 
L 402.938471 279.404412 
L 405.528095 296.840843 
L 408.204039 272.547392 
L 410.879984 279.602951 
L 413.296966 268.67158 
L 415.972911 269.010874 
L 418.562534 296.840843 
L 421.238479 290.997824 
L 423.828103 277.003184 
L 426.504047 207.336073 
L 429.179992 155.660471 
L 431.769616 263.427937 
L 434.44556 282.241576 
L 437.035184 291.023164 
L 439.711129 284.447663 
L 442.387073 286.978329 
L 444.804055 296.840843 
L 447.48 293.452787 
L 447.48 293.452787 
" style="fill:none;stroke:#2ca02c;stroke-linecap:square;stroke-width:1.5;"/>
   </g>
   <g id="patch_3">
    <path d="M 40.2185 309.8635 
L 40.2185 23.36505 
" style="fill:none;stroke:#000000;stroke-linecap:square;stroke-linejoin:miter;stroke-width:0.8;"/>
   </g>
   <g id="patch_4">
    <path d="M 447.48 309.8635 
L 447.48 23.36505 
" style="fill:none;stroke:#000000;stroke-linecap:square;stroke-linejoin:miter;stroke-width:0.8;"/>
   </g>
   <g id="patch_5">
    <path d="M 40.2185 309.8635 
L 447.48 309.8635 
" style="fill:none;stroke:#000000;stroke-linecap:square;stroke-linejoin:miter;stroke-width:0.8;"/>
   </g>
   <g id="patch_6">
    <path d="M 40.2185 23.36505 
L 447.48 23.36505 
" style="fill:none;stroke:#000000;stroke-linecap:square;stroke-linejoin:miter;stroke-width:0.8;"/>
   </g>
   <g id="text_17">
    <!-- Average monthly normalized emissions -->
    <defs>
     <path d="M 34.1875 63.1875 
L 20.796875 26.90625 
L 47.609375 26.90625 
z
M 28.609375 72.90625 
L 39.796875 72.90625 
L 67.578125 0 
L 57.328125 0 
L 50.6875 18.703125 
L 17.828125 18.703125 
L 11.1875 0 
L 0.78125 0 
z
" id="DejaVuSans-41"/>
     <path d="M 2.984375 54.6875 
L 12.5 54.6875 
L 29.59375 8.796875 
L 46.6875 54.6875 
L 56.203125 54.6875 
L 35.6875 0 
L 23.484375 0 
z
" id="DejaVuSans-76"/>
     <path d="M 41.109375 46.296875 
Q 39.59375 47.171875 37.8125 47.578125 
Q 36.03125 48 33.890625 48 
Q 26.265625 48 22.1875 43.046875 
Q 18.109375 38.09375 18.109375 28.8125 
L 18.109375 0 
L 9.078125 0 
L 9.078125 54.6875 
L 18.109375 54.6875 
L 18.109375 46.1875 
Q 20.953125 51.171875 25.484375 53.578125 
Q 30.03125 56 36.53125 56 
Q 37.453125 56 38.578125 55.875 
Q 39.703125 55.765625 41.0625 55.515625 
z
" id="DejaVuSans-72"/>
     <path d="M 45.40625 27.984375 
Q 45.40625 37.75 41.375 43.109375 
Q 37.359375 48.484375 30.078125 48.484375 
Q 22.859375 48.484375 18.828125 43.109375 
Q 14.796875 37.75 14.796875 27.984375 
Q 14.796875 18.265625 18.828125 12.890625 
Q 22.859375 7.515625 30.078125 7.515625 
Q 37.359375 7.515625 41.375 12.890625 
Q 45.40625 18.265625 45.40625 27.984375 
z
M 54.390625 6.78125 
Q 54.390625 -7.171875 48.1875 -13.984375 
Q 42 -20.796875 29.203125 -20.796875 
Q 24.46875 -20.796875 20.265625 -20.09375 
Q 16.0625 -19.390625 12.109375 -17.921875 
L 12.109375 -9.1875 
Q 16.0625 -11.328125 19.921875 -12.34375 
Q 23.78125 -13.375 27.78125 -13.375 
Q 36.625 -13.375 41.015625 -8.765625 
Q 45.40625 -4.15625 45.40625 5.171875 
L 45.40625 9.625 
Q 42.625 4.78125 38.28125 2.390625 
Q 33.9375 0 27.875 0 
Q 17.828125 0 11.671875 7.65625 
Q 5.515625 15.328125 5.515625 27.984375 
Q 5.515625 40.671875 11.671875 48.328125 
Q 17.828125 56 27.875 56 
Q 33.9375 56 38.28125 53.609375 
Q 42.625 51.21875 45.40625 46.390625 
L 45.40625 54.6875 
L 54.390625 54.6875 
z
" id="DejaVuSans-67"/>
     <path d="M 54.890625 33.015625 
L 54.890625 0 
L 45.90625 0 
L 45.90625 32.71875 
Q 45.90625 40.484375 42.875 44.328125 
Q 39.84375 48.1875 33.796875 48.1875 
Q 26.515625 48.1875 22.3125 43.546875 
Q 18.109375 38.921875 18.109375 30.90625 
L 18.109375 0 
L 9.078125 0 
L 9.078125 75.984375 
L 18.109375 75.984375 
L 18.109375 46.1875 
Q 21.34375 51.125 25.703125 53.5625 
Q 30.078125 56 35.796875 56 
Q 45.21875 56 50.046875 50.171875 
Q 54.890625 44.34375 54.890625 33.015625 
z
" id="DejaVuSans-68"/>
     <path d="M 9.421875 75.984375 
L 18.40625 75.984375 
L 18.40625 0 
L 9.421875 0 
z
" id="DejaVuSans-6c"/>
     <path d="M 32.171875 -5.078125 
Q 28.375 -14.84375 24.75 -17.8125 
Q 21.140625 -20.796875 15.09375 -20.796875 
L 7.90625 -20.796875 
L 7.90625 -13.28125 
L 13.1875 -13.28125 
Q 16.890625 -13.28125 18.9375 -11.515625 
Q 21 -9.765625 23.484375 -3.21875 
L 25.09375 0.875 
L 2.984375 54.6875 
L 12.5 54.6875 
L 29.59375 11.921875 
L 46.6875 54.6875 
L 56.203125 54.6875 
z
" id="DejaVuSans-79"/>
     <path d="M 5.515625 54.6875 
L 48.1875 54.6875 
L 48.1875 46.484375 
L 14.40625 7.171875 
L 48.1875 7.171875 
L 48.1875 0 
L 4.296875 0 
L 4.296875 8.203125 
L 38.09375 47.515625 
L 5.515625 47.515625 
z
" id="DejaVuSans-7a"/>
     <path d="M 45.40625 46.390625 
L 45.40625 75.984375 
L 54.390625 75.984375 
L 54.390625 0 
L 45.40625 0 
L 45.40625 8.203125 
Q 42.578125 3.328125 38.25 0.953125 
Q 33.9375 -1.421875 27.875 -1.421875 
Q 17.96875 -1.421875 11.734375 6.484375 
Q 5.515625 14.40625 5.515625 27.296875 
Q 5.515625 40.1875 11.734375 48.09375 
Q 17.96875 56 27.875 56 
Q 33.9375 56 38.25 53.625 
Q 42.578125 51.265625 45.40625 46.390625 
z
M 14.796875 27.296875 
Q 14.796875 17.390625 18.875 11.75 
Q 22.953125 6.109375 30.078125 6.109375 
Q 37.203125 6.109375 41.296875 11.75 
Q 45.40625 17.390625 45.40625 27.296875 
Q 45.40625 37.203125 41.296875 42.84375 
Q 37.203125 48.484375 30.078125 48.484375 
Q 22.953125 48.484375 18.875 42.84375 
Q 14.796875 37.203125 14.796875 27.296875 
z
" id="DejaVuSans-64"/>
    </defs>
    <g transform="translate(125.2855 17.36505)scale(0.12 -0.12)">
     <use xlink:href="#DejaVuSans-41"/>
     <use x="68.330078" xlink:href="#DejaVuSans-76"/>
     <use x="127.509766" xlink:href="#DejaVuSans-65"/>
     <use x="189.033203" xlink:href="#DejaVuSans-72"/>
     <use x="230.146484" xlink:href="#DejaVuSans-61"/>
     <use x="291.425781" xlink:href="#DejaVuSans-67"/>
     <use x="354.902344" xlink:href="#DejaVuSans-65"/>
     <use x="416.425781" xlink:href="#DejaVuSans-20"/>
     <use x="448.212891" xlink:href="#DejaVuSans-6d"/>
     <use x="545.625" xlink:href="#DejaVuSans-6f"/>
     <use x="606.806641" xlink:href="#DejaVuSans-6e"/>
     <use x="670.185547" xlink:href="#DejaVuSans-74"/>
     <use x="709.394531" xlink:href="#DejaVuSans-68"/>
     <use x="772.773438" xlink:href="#DejaVuSans-6c"/>
     <use x="800.556641" xlink:href="#DejaVuSans-79"/>
     <use x="859.736328" xlink:href="#DejaVuSans-20"/>
     <use x="891.523438" xlink:href="#DejaVuSans-6e"/>
     <use x="954.902344" xlink:href="#DejaVuSans-6f"/>
     <use x="1016.083984" xlink:href="#DejaVuSans-72"/>
     <use x="1057.181641" xlink:href="#DejaVuSans-6d"/>
     <use x="1154.59375" xlink:href="#DejaVuSans-61"/>
     <use x="1215.873047" xlink:href="#DejaVuSans-6c"/>
     <use x="1243.65625" xlink:href="#DejaVuSans-69"/>
     <use x="1271.439453" xlink:href="#DejaVuSans-7a"/>
     <use x="1323.929688" xlink:href="#DejaVuSans-65"/>
     <use x="1385.453125" xlink:href="#DejaVuSans-64"/>
     <use x="1448.929688" xlink:href="#DejaVuSans-20"/>
     <use x="1480.716797" xlink:href="#DejaVuSans-65"/>
     <use x="1542.240234" xlink:href="#DejaVuSans-6d"/>
     <use x="1639.652344" xlink:href="#DejaVuSans-69"/>
     <use x="1667.435547" xlink:href="#DejaVuSans-73"/>
     <use x="1719.535156" xlink:href="#DejaVuSans-73"/>
     <use x="1771.634766" xlink:href="#DejaVuSans-69"/>
     <use x="1799.417969" xlink:href="#DejaVuSans-6f"/>
     <use x="1860.599609" xlink:href="#DejaVuSans-6e"/>
     <use x="1923.978516" xlink:href="#DejaVuSans-73"/>
    </g>
   </g>
   <g id="legend_1">
    <g id="patch_7">
     <path d="M 387.208125 75.399425 
L 440.48 75.399425 
Q 442.48 75.399425 442.48 73.399425 
L 442.48 30.36505 
Q 442.48 28.36505 440.48 28.36505 
L 387.208125 28.36505 
Q 385.208125 28.36505 385.208125 30.36505 
L 385.208125 73.399425 
Q 385.208125 75.399425 387.208125 75.399425 
z
" style="fill:#ffffff;opacity:0.8;stroke:#cccccc;stroke-linejoin:miter;"/>
    </g>
    <g id="line2d_32">
     <path d="M 389.208125 36.463487 
L 409.208125 36.463487 
" style="fill:none;stroke:#1f77b4;stroke-linecap:square;stroke-width:1.5;"/>
    </g>
    <g id="line2d_33"/>
    <g id="text_18">
     <!-- SOx -->
     <defs>
      <path d="M 53.515625 70.515625 
L 53.515625 60.890625 
Q 47.90625 63.578125 42.921875 64.890625 
Q 37.9375 66.21875 33.296875 66.21875 
Q 25.25 66.21875 20.875 63.09375 
Q 16.5 59.96875 16.5 54.203125 
Q 16.5 49.359375 19.40625 46.890625 
Q 22.3125 44.4375 30.421875 42.921875 
L 36.375 41.703125 
Q 47.40625 39.59375 52.65625 34.296875 
Q 57.90625 29 57.90625 20.125 
Q 57.90625 9.515625 50.796875 4.046875 
Q 43.703125 -1.421875 29.984375 -1.421875 
Q 24.8125 -1.421875 18.96875 -0.25 
Q 13.140625 0.921875 6.890625 3.21875 
L 6.890625 13.375 
Q 12.890625 10.015625 18.65625 8.296875 
Q 24.421875 6.59375 29.984375 6.59375 
Q 38.421875 6.59375 43.015625 9.90625 
Q 47.609375 13.234375 47.609375 19.390625 
Q 47.609375 24.75 44.3125 27.78125 
Q 41.015625 30.8125 33.5 32.328125 
L 27.484375 33.5 
Q 16.453125 35.6875 11.515625 40.375 
Q 6.59375 45.0625 6.59375 53.421875 
Q 6.59375 63.09375 13.40625 68.65625 
Q 20.21875 74.21875 32.171875 74.21875 
Q 37.3125 74.21875 42.625 73.28125 
Q 47.953125 72.359375 53.515625 70.515625 
z
" id="DejaVuSans-53"/>
      <path d="M 39.40625 66.21875 
Q 28.65625 66.21875 22.328125 58.203125 
Q 16.015625 50.203125 16.015625 36.375 
Q 16.015625 22.609375 22.328125 14.59375 
Q 28.65625 6.59375 39.40625 6.59375 
Q 50.140625 6.59375 56.421875 14.59375 
Q 62.703125 22.609375 62.703125 36.375 
Q 62.703125 50.203125 56.421875 58.203125 
Q 50.140625 66.21875 39.40625 66.21875 
z
M 39.40625 74.21875 
Q 54.734375 74.21875 63.90625 63.9375 
Q 73.09375 53.65625 73.09375 36.375 
Q 73.09375 19.140625 63.90625 8.859375 
Q 54.734375 -1.421875 39.40625 -1.421875 
Q 24.03125 -1.421875 14.8125 8.828125 
Q 5.609375 19.09375 5.609375 36.375 
Q 5.609375 53.65625 14.8125 63.9375 
Q 24.03125 74.21875 39.40625 74.21875 
z
" id="DejaVuSans-4f"/>
      <path d="M 54.890625 54.6875 
L 35.109375 28.078125 
L 55.90625 0 
L 45.3125 0 
L 29.390625 21.484375 
L 13.484375 0 
L 2.875 0 
L 24.125 28.609375 
L 4.6875 54.6875 
L 15.28125 54.6875 
L 29.78125 35.203125 
L 44.28125 54.6875 
z
" id="DejaVuSans-78"/>
     </defs>
     <g transform="translate(417.208125 39.963487)scale(0.1 -0.1)">
      <use xlink:href="#DejaVuSans-53"/>
      <use x="63.476562" xlink:href="#DejaVuSans-4f"/>
      <use x="142.1875" xlink:href="#DejaVuSans-78"/>
     </g>
    </g>
    <g id="line2d_34">
     <path d="M 389.208125 51.141613 
L 409.208125 51.141613 
" style="fill:none;stroke:#ff7f0e;stroke-linecap:square;stroke-width:1.5;"/>
    </g>
    <g id="line2d_35"/>
    <g id="text_19">
     <!-- NOx -->
     <defs>
      <path d="M 9.8125 72.90625 
L 23.09375 72.90625 
L 55.421875 11.921875 
L 55.421875 72.90625 
L 64.984375 72.90625 
L 64.984375 0 
L 51.703125 0 
L 19.390625 60.984375 
L 19.390625 0 
L 9.8125 0 
z
" id="DejaVuSans-4e"/>
     </defs>
     <g transform="translate(417.208125 54.641613)scale(0.1 -0.1)">
      <use xlink:href="#DejaVuSans-4e"/>
      <use x="74.804688" xlink:href="#DejaVuSans-4f"/>
      <use x="153.515625" xlink:href="#DejaVuSans-78"/>
     </g>
    </g>
    <g id="line2d_36">
     <path d="M 389.208125 65.819737 
L 409.208125 65.819737 
" style="fill:none;stroke:#2ca02c;stroke-linecap:square;stroke-width:1.5;"/>
    </g>
    <g id="line2d_37"/>
    <g id="text_20">
     <!-- CO2 -->
     <defs>
      <path d="M 64.40625 67.28125 
L 64.40625 56.890625 
Q 59.421875 61.53125 53.78125 63.8125 
Q 48.140625 66.109375 41.796875 66.109375 
Q 29.296875 66.109375 22.65625 58.46875 
Q 16.015625 50.828125 16.015625 36.375 
Q 16.015625 21.96875 22.65625 14.328125 
Q 29.296875 6.6875 41.796875 6.6875 
Q 48.140625 6.6875 53.78125 8.984375 
Q 59.421875 11.28125 64.40625 15.921875 
L 64.40625 5.609375 
Q 59.234375 2.09375 53.4375 0.328125 
Q 47.65625 -1.421875 41.21875 -1.421875 
Q 24.65625 -1.421875 15.125 8.703125 
Q 5.609375 18.84375 5.609375 36.375 
Q 5.609375 53.953125 15.125 64.078125 
Q 24.65625 74.21875 41.21875 74.21875 
Q 47.75 74.21875 53.53125 72.484375 
Q 59.328125 70.75 64.40625 67.28125 
z
" id="DejaVuSans-43"/>
     </defs>
     <g transform="translate(417.208125 69.319737)scale(0.1 -0.1)">
      <use xlink:href="#DejaVuSans-43"/>
      <use x="69.824219" xlink:href="#DejaVuSans-4f"/>
      <use x="148.535156" xlink:href="#DejaVuSans-32"/>
     </g>
    </g>
   </g>
  </g>
 </g>
 <defs>
  <clipPath id="p1e2677a985">
   <rect height="286.49845" width="407.2615" x="40.2185" y="23.36505"/>
  </clipPath>
 </defs>
</svg>
