<?xml version="1.0" encoding="utf-8" standalone="no"?>
<!DOCTYPE svg PUBLIC "-//W3C//DTD SVG 1.1//EN"
  "http://www.w3.org/Graphics/SVG/1.1/DTD/svg11.dtd">
<!-- Created with matplotlib (http://matplotlib.org/) -->
<svg height="345.6pt" version="1.1" viewBox="0 0 460.8 345.6" width="460.8pt" xmlns="http://www.w3.org/2000/svg" xmlns:xlink="http://www.w3.org/1999/xlink">
 <defs>
  <style type="text/css">
*{stroke-linecap:butt;stroke-linejoin:round;}
  </style>
 </defs>
 <g id="figure_1">
  <g id="patch_1">
   <path d="M 0 345.6 
L 460.8 345.6 
L 460.8 0 
L 0 0 
z
" style="fill:none;"/>
  </g>
  <g id="axes_1">
   <g id="patch_2">
    <path d="M 29.25025 108.304533 
L 447.134756 108.304533 
L 447.134756 23.36505 
L 29.25025 23.36505 
z
" style="fill:none;"/>
   </g>
   <g id="matplotlib.axis_1">
    <g id="xtick_1">
     <g id="line2d_1">
      <path clip-path="url(#pd5bba1f994)" d="M 67.153441 108.304533 
L 67.153441 23.36505 
" style="fill:none;stroke:#b0b0b0;stroke-linecap:square;stroke-width:0.8;"/>
     </g>
     <g id="line2d_2">
      <defs>
       <path d="M 0 0 
L 0 3.5 
" id="m7cdadd4c39" style="stroke:#000000;stroke-width:0.8;"/>
      </defs>
      <g>
       <use style="stroke:#000000;stroke-width:0.8;" x="67.153441" xlink:href="#m7cdadd4c39" y="108.304533"/>
      </g>
     </g>
    </g>
    <g id="xtick_2">
     <g id="line2d_3">
      <path clip-path="url(#pd5bba1f994)" d="M 120.539246 108.304533 
L 120.539246 23.36505 
" style="fill:none;stroke:#b0b0b0;stroke-linecap:square;stroke-width:0.8;"/>
     </g>
     <g id="line2d_4">
      <g>
       <use style="stroke:#000000;stroke-width:0.8;" x="120.539246" xlink:href="#m7cdadd4c39" y="108.304533"/>
      </g>
     </g>
    </g>
    <g id="xtick_3">
     <g id="line2d_5">
      <path clip-path="url(#pd5bba1f994)" d="M 173.852019 108.304533 
L 173.852019 23.36505 
" style="fill:none;stroke:#b0b0b0;stroke-linecap:square;stroke-width:0.8;"/>
     </g>
     <g id="line2d_6">
      <g>
       <use style="stroke:#000000;stroke-width:0.8;" x="173.852019" xlink:href="#m7cdadd4c39" y="108.304533"/>
      </g>
     </g>
    </g>
    <g id="xtick_4">
     <g id="line2d_7">
      <path clip-path="url(#pd5bba1f994)" d="M 227.237824 108.304533 
L 227.237824 23.36505 
" style="fill:none;stroke:#b0b0b0;stroke-linecap:square;stroke-width:0.8;"/>
     </g>
     <g id="line2d_8">
      <g>
       <use style="stroke:#000000;stroke-width:0.8;" x="227.237824" xlink:href="#m7cdadd4c39" y="108.304533"/>
      </g>
     </g>
    </g>
    <g id="xtick_5">
     <g id="line2d_9">
      <path clip-path="url(#pd5bba1f994)" d="M 280.550597 108.304533 
L 280.550597 23.36505 
" style="fill:none;stroke:#b0b0b0;stroke-linecap:square;stroke-width:0.8;"/>
     </g>
     <g id="line2d_10">
      <g>
       <use style="stroke:#000000;stroke-width:0.8;" x="280.550597" xlink:href="#m7cdadd4c39" y="108.304533"/>
      </g>
     </g>
    </g>
    <g id="xtick_6">
     <g id="line2d_11">
      <path clip-path="url(#pd5bba1f994)" d="M 333.936402 108.304533 
L 333.936402 23.36505 
" style="fill:none;stroke:#b0b0b0;stroke-linecap:square;stroke-width:0.8;"/>
     </g>
     <g id="line2d_12">
      <g>
       <use style="stroke:#000000;stroke-width:0.8;" x="333.936402" xlink:href="#m7cdadd4c39" y="108.304533"/>
      </g>
     </g>
    </g>
    <g id="xtick_7">
     <g id="line2d_13">
      <path clip-path="url(#pd5bba1f994)" d="M 387.249175 108.304533 
L 387.249175 23.36505 
" style="fill:none;stroke:#b0b0b0;stroke-linecap:square;stroke-width:0.8;"/>
     </g>
     <g id="line2d_14">
      <g>
       <use style="stroke:#000000;stroke-width:0.8;" x="387.249175" xlink:href="#m7cdadd4c39" y="108.304533"/>
      </g>
     </g>
    </g>
    <g id="xtick_8">
     <g id="line2d_15">
      <path clip-path="url(#pd5bba1f994)" d="M 440.63498 108.304533 
L 440.63498 23.36505 
" style="fill:none;stroke:#b0b0b0;stroke-linecap:square;stroke-width:0.8;"/>
     </g>
     <g id="line2d_16">
      <g>
       <use style="stroke:#000000;stroke-width:0.8;" x="440.63498" xlink:href="#m7cdadd4c39" y="108.304533"/>
      </g>
     </g>
    </g>
   </g>
   <g id="matplotlib.axis_2">
    <g id="ytick_1">
     <g id="line2d_17">
      <path clip-path="url(#pd5bba1f994)" d="M 29.25025 104.443648 
L 447.134756 104.443648 
" style="fill:none;stroke:#b0b0b0;stroke-linecap:square;stroke-width:0.8;"/>
     </g>
     <g id="line2d_18">
      <defs>
       <path d="M 0 0 
L -3.5 0 
" id="mdd49b5e187" style="stroke:#000000;stroke-width:0.8;"/>
      </defs>
      <g>
       <use style="stroke:#000000;stroke-width:0.8;" x="29.25025" xlink:href="#mdd49b5e187" y="104.443648"/>
      </g>
     </g>
     <g id="text_1">
      <!-- 0.0 -->
      <defs>
       <path d="M 31.78125 66.40625 
Q 24.171875 66.40625 20.328125 58.90625 
Q 16.5 51.421875 16.5 36.375 
Q 16.5 21.390625 20.328125 13.890625 
Q 24.171875 6.390625 31.78125 6.390625 
Q 39.453125 6.390625 43.28125 13.890625 
Q 47.125 21.390625 47.125 36.375 
Q 47.125 51.421875 43.28125 58.90625 
Q 39.453125 66.40625 31.78125 66.40625 
z
M 31.78125 74.21875 
Q 44.046875 74.21875 50.515625 64.515625 
Q 56.984375 54.828125 56.984375 36.375 
Q 56.984375 17.96875 50.515625 8.265625 
Q 44.046875 -1.421875 31.78125 -1.421875 
Q 19.53125 -1.421875 13.0625 8.265625 
Q 6.59375 17.96875 6.59375 36.375 
Q 6.59375 54.828125 13.0625 64.515625 
Q 19.53125 74.21875 31.78125 74.21875 
z
" id="DejaVuSans-30"/>
       <path d="M 10.6875 12.40625 
L 21 12.40625 
L 21 0 
L 10.6875 0 
z
" id="DejaVuSans-2e"/>
      </defs>
      <g transform="translate(6.347125 108.242866)scale(0.1 -0.1)">
       <use xlink:href="#DejaVuSans-30"/>
       <use x="63.623047" xlink:href="#DejaVuSans-2e"/>
       <use x="95.410156" xlink:href="#DejaVuSans-30"/>
      </g>
     </g>
    </g>
    <g id="ytick_2">
     <g id="line2d_19">
      <path clip-path="url(#pd5bba1f994)" d="M 29.25025 70.195187 
L 447.134756 70.195187 
" style="fill:none;stroke:#b0b0b0;stroke-linecap:square;stroke-width:0.8;"/>
     </g>
     <g id="line2d_20">
      <g>
       <use style="stroke:#000000;stroke-width:0.8;" x="29.25025" xlink:href="#mdd49b5e187" y="70.195187"/>
      </g>
     </g>
     <g id="text_2">
      <!-- 0.5 -->
      <defs>
       <path d="M 10.796875 72.90625 
L 49.515625 72.90625 
L 49.515625 64.59375 
L 19.828125 64.59375 
L 19.828125 46.734375 
Q 21.96875 47.46875 24.109375 47.828125 
Q 26.265625 48.1875 28.421875 48.1875 
Q 40.625 48.1875 47.75 41.5 
Q 54.890625 34.8125 54.890625 23.390625 
Q 54.890625 11.625 47.5625 5.09375 
Q 40.234375 -1.421875 26.90625 -1.421875 
Q 22.3125 -1.421875 17.546875 -0.640625 
Q 12.796875 0.140625 7.71875 1.703125 
L 7.71875 11.625 
Q 12.109375 9.234375 16.796875 8.0625 
Q 21.484375 6.890625 26.703125 6.890625 
Q 35.15625 6.890625 40.078125 11.328125 
Q 45.015625 15.765625 45.015625 23.390625 
Q 45.015625 31 40.078125 35.4375 
Q 35.15625 39.890625 26.703125 39.890625 
Q 22.75 39.890625 18.8125 39.015625 
Q 14.890625 38.140625 10.796875 36.28125 
z
" id="DejaVuSans-35"/>
      </defs>
      <g transform="translate(6.347125 73.994405)scale(0.1 -0.1)">
       <use xlink:href="#DejaVuSans-30"/>
       <use x="63.623047" xlink:href="#DejaVuSans-2e"/>
       <use x="95.410156" xlink:href="#DejaVuSans-35"/>
      </g>
     </g>
    </g>
    <g id="ytick_3">
     <g id="line2d_21">
      <path clip-path="url(#pd5bba1f994)" d="M 29.25025 35.946725 
L 447.134756 35.946725 
" style="fill:none;stroke:#b0b0b0;stroke-linecap:square;stroke-width:0.8;"/>
     </g>
     <g id="line2d_22">
      <g>
       <use style="stroke:#000000;stroke-width:0.8;" x="29.25025" xlink:href="#mdd49b5e187" y="35.946725"/>
      </g>
     </g>
     <g id="text_3">
      <!-- 1.0 -->
      <defs>
       <path d="M 12.40625 8.296875 
L 28.515625 8.296875 
L 28.515625 63.921875 
L 10.984375 60.40625 
L 10.984375 69.390625 
L 28.421875 72.90625 
L 38.28125 72.90625 
L 38.28125 8.296875 
L 54.390625 8.296875 
L 54.390625 0 
L 12.40625 0 
z
" id="DejaVuSans-31"/>
      </defs>
      <g transform="translate(6.347125 39.745944)scale(0.1 -0.1)">
       <use xlink:href="#DejaVuSans-31"/>
       <use x="63.623047" xlink:href="#DejaVuSans-2e"/>
       <use x="95.410156" xlink:href="#DejaVuSans-30"/>
      </g>
     </g>
    </g>
   </g>
   <g id="line2d_23">
    <path clip-path="url(#pd5bba1f994)" d="M 29.25025 104.443648 
L 31.514217 104.443648 
L 33.705153 76.35512 
L 35.96912 102.41809 
L 38.160056 88.175358 
L 40.424023 57.768108 
L 42.68799 89.380867 
L 44.732864 49.068712 
L 46.996831 79.838538 
L 49.187767 104.443648 
L 51.451734 104.443648 
L 53.64267 90.677444 
L 55.906637 51.644424 
L 58.170604 59.666852 
L 60.36154 36.442589 
L 62.625507 85.257236 
L 64.816443 97.137854 
L 67.08041 91.918124 
L 69.344377 97.777072 
L 71.462282 70.58914 
L 73.726249 104.443648 
L 75.917185 87.69867 
L 78.181152 77.849949 
L 80.372088 88.95582 
L 82.636055 59.905105 
L 84.900022 48.769559 
L 87.090958 69.2553 
L 89.354925 73.247677 
L 91.545861 67.236698 
L 93.809828 78.420745 
L 96.073795 60.189215 
L 98.118668 85.058347 
L 100.382635 90.334949 
L 102.573571 96.672736 
L 104.837538 104.443648 
L 107.028474 103.596702 
L 109.292441 68.922939 
L 111.556408 39.869031 
L 113.747344 75.346278 
L 116.011311 104.443648 
L 118.202247 94.017569 
L 120.466214 49.221539 
L 122.730181 104.443648 
L 124.775055 87.896183 
L 127.039022 104.443648 
L 129.229958 103.435449 
L 131.493925 104.443648 
L 133.684861 103.850886 
L 135.948828 56.186088 
L 138.212795 27.998194 
L 140.403731 28.211518 
L 142.667698 27.225936 
L 144.858634 81.791811 
L 147.122601 90.758403 
L 149.386568 85.344504 
L 151.431442 87.564218 
L 153.695409 104.443648 
L 155.886345 104.443648 
L 158.150312 103.887337 
L 160.341248 104.443648 
L 162.605215 51.941863 
L 164.869182 46.342853 
L 167.060118 36.684285 
L 169.324085 37.42784 
L 171.515021 71.805505 
L 173.778988 69.560119 
L 176.042955 67.557311 
L 178.16086 65.244172 
L 180.424827 67.099466 
L 182.615763 56.017577 
L 184.87973 100.846112 
L 187.070666 104.443648 
L 189.334633 75.000945 
L 191.5986 41.100202 
L 193.789536 43.010531 
L 196.053503 55.661059 
L 198.244439 82.800836 
L 200.508406 70.551525 
L 202.772373 104.443648 
L 204.817246 52.352939 
L 207.081213 89.226149 
L 209.272149 104.443648 
L 211.536116 102.626751 
L 213.727052 100.514251 
L 215.991019 59.540215 
L 218.254986 38.308428 
L 220.445922 40.153614 
L 222.709889 39.849036 
L 224.900825 86.887905 
L 227.164792 75.517976 
L 229.42876 104.443648 
L 231.473633 93.980759 
L 233.7376 61.617316 
L 235.928536 62.622159 
L 238.192503 104.443648 
L 240.383439 104.443648 
L 244.911373 37.317377 
L 247.102309 40.839399 
L 249.366276 52.990856 
L 251.557212 94.635859 
L 253.821179 102.364414 
L 256.085146 97.042493 
L 258.13002 104.443648 
L 269.303793 104.443648 
L 271.56776 95.08714 
L 273.758696 70.247062 
L 276.022663 104.443648 
L 278.213599 70.771226 
L 280.477566 81.247799 
L 282.741533 99.674571 
L 284.859438 77.035686 
L 287.123405 102.090524 
L 289.314341 104.441719 
L 296.033211 104.443648 
L 298.297178 86.887244 
L 300.488114 58.253265 
L 302.752081 61.987094 
L 304.943017 104.443648 
L 309.470951 104.443648 
L 311.515824 92.436149 
L 313.779791 87.100171 
L 315.970727 104.443648 
L 318.234694 104.443648 
L 320.42563 96.373187 
L 322.689597 56.035369 
L 324.953564 38.14349 
L 327.1445 46.648184 
L 329.408467 73.132238 
L 331.599403 85.893296 
L 333.86337 36.17774 
L 338.172211 73.524493 
L 340.436178 104.443648 
L 342.627114 104.441719 
L 344.891081 100.616923 
L 347.082017 104.443648 
L 349.345984 76.155067 
L 351.609951 42.65254 
L 353.800887 42.965626 
L 356.064854 90.730054 
L 358.25579 90.304707 
L 360.519757 93.416786 
L 362.783724 104.304037 
L 364.828598 104.443648 
L 369.283501 104.443648 
L 371.547468 59.053932 
L 373.738404 32.863982 
L 376.002371 32.077925 
L 378.266338 32.952293 
L 380.457274 31.822541 
L 382.721241 31.733119 
L 384.912177 47.998082 
L 387.176144 69.910968 
L 389.440111 51.92249 
L 391.558016 81.014988 
L 393.821983 104.443648 
L 396.012919 104.441719 
L 398.276886 103.962341 
L 400.467822 47.63866 
L 402.731789 59.426643 
L 404.995756 31.721655 
L 407.186692 40.046082 
L 409.450659 104.408101 
L 411.641595 104.443648 
L 413.905562 88.007597 
L 416.169529 59.772426 
L 418.214402 84.357522 
L 420.478369 104.443648 
L 424.933272 104.443648 
L 427.124208 103.409461 
L 429.388175 41.873438 
L 431.652143 34.783053 
L 433.843078 79.112769 
L 436.107045 79.168299 
L 438.297981 53.938918 
L 440.561948 51.017197 
L 442.825916 94.893409 
L 444.870789 93.351462 
L 447.134756 94.755309 
L 447.134756 94.755309 
" style="fill:none;stroke:#008000;stroke-linecap:square;stroke-width:1.5;"/>
   </g>
   <g id="patch_3">
    <path d="M 29.25025 108.304533 
L 29.25025 23.36505 
" style="fill:none;stroke:#000000;stroke-linecap:square;stroke-linejoin:miter;stroke-width:0.8;"/>
   </g>
   <g id="patch_4">
    <path d="M 447.134756 108.304533 
L 447.134756 23.36505 
" style="fill:none;stroke:#000000;stroke-linecap:square;stroke-linejoin:miter;stroke-width:0.8;"/>
   </g>
   <g id="patch_5">
    <path d="M 29.25025 108.304533 
L 447.134756 108.304533 
" style="fill:none;stroke:#000000;stroke-linecap:square;stroke-linejoin:miter;stroke-width:0.8;"/>
   </g>
   <g id="patch_6">
    <path d="M 29.25025 23.36505 
L 447.134756 23.36505 
" style="fill:none;stroke:#000000;stroke-linecap:square;stroke-linejoin:miter;stroke-width:0.8;"/>
   </g>
   <g id="text_4">
    <!-- Average monthly normalized emissions -->
    <defs>
     <path d="M 34.1875 63.1875 
L 20.796875 26.90625 
L 47.609375 26.90625 
z
M 28.609375 72.90625 
L 39.796875 72.90625 
L 67.578125 0 
L 57.328125 0 
L 50.6875 18.703125 
L 17.828125 18.703125 
L 11.1875 0 
L 0.78125 0 
z
" id="DejaVuSans-41"/>
     <path d="M 2.984375 54.6875 
L 12.5 54.6875 
L 29.59375 8.796875 
L 46.6875 54.6875 
L 56.203125 54.6875 
L 35.6875 0 
L 23.484375 0 
z
" id="DejaVuSans-76"/>
     <path d="M 56.203125 29.59375 
L 56.203125 25.203125 
L 14.890625 25.203125 
Q 15.484375 15.921875 20.484375 11.0625 
Q 25.484375 6.203125 34.421875 6.203125 
Q 39.59375 6.203125 44.453125 7.46875 
Q 49.3125 8.734375 54.109375 11.28125 
L 54.109375 2.78125 
Q 49.265625 0.734375 44.1875 -0.34375 
Q 39.109375 -1.421875 33.890625 -1.421875 
Q 20.796875 -1.421875 13.15625 6.1875 
Q 5.515625 13.8125 5.515625 26.8125 
Q 5.515625 40.234375 12.765625 48.109375 
Q 20.015625 56 32.328125 56 
Q 43.359375 56 49.78125 48.890625 
Q 56.203125 41.796875 56.203125 29.59375 
z
M 47.21875 32.234375 
Q 47.125 39.59375 43.09375 43.984375 
Q 39.0625 48.390625 32.421875 48.390625 
Q 24.90625 48.390625 20.390625 44.140625 
Q 15.875 39.890625 15.1875 32.171875 
z
" id="DejaVuSans-65"/>
     <path d="M 41.109375 46.296875 
Q 39.59375 47.171875 37.8125 47.578125 
Q 36.03125 48 33.890625 48 
Q 26.265625 48 22.1875 43.046875 
Q 18.109375 38.09375 18.109375 28.8125 
L 18.109375 0 
L 9.078125 0 
L 9.078125 54.6875 
L 18.109375 54.6875 
L 18.109375 46.1875 
Q 20.953125 51.171875 25.484375 53.578125 
Q 30.03125 56 36.53125 56 
Q 37.453125 56 38.578125 55.875 
Q 39.703125 55.765625 41.0625 55.515625 
z
" id="DejaVuSans-72"/>
     <path d="M 34.28125 27.484375 
Q 23.390625 27.484375 19.1875 25 
Q 14.984375 22.515625 14.984375 16.5 
Q 14.984375 11.71875 18.140625 8.90625 
Q 21.296875 6.109375 26.703125 6.109375 
Q 34.1875 6.109375 38.703125 11.40625 
Q 43.21875 16.703125 43.21875 25.484375 
L 43.21875 27.484375 
z
M 52.203125 31.203125 
L 52.203125 0 
L 43.21875 0 
L 43.21875 8.296875 
Q 40.140625 3.328125 35.546875 0.953125 
Q 30.953125 -1.421875 24.3125 -1.421875 
Q 15.921875 -1.421875 10.953125 3.296875 
Q 6 8.015625 6 15.921875 
Q 6 25.140625 12.171875 29.828125 
Q 18.359375 34.515625 30.609375 34.515625 
L 43.21875 34.515625 
L 43.21875 35.40625 
Q 43.21875 41.609375 39.140625 45 
Q 35.0625 48.390625 27.6875 48.390625 
Q 23 48.390625 18.546875 47.265625 
Q 14.109375 46.140625 10.015625 43.890625 
L 10.015625 52.203125 
Q 14.9375 54.109375 19.578125 55.046875 
Q 24.21875 56 28.609375 56 
Q 40.484375 56 46.34375 49.84375 
Q 52.203125 43.703125 52.203125 31.203125 
z
" id="DejaVuSans-61"/>
     <path d="M 45.40625 27.984375 
Q 45.40625 37.75 41.375 43.109375 
Q 37.359375 48.484375 30.078125 48.484375 
Q 22.859375 48.484375 18.828125 43.109375 
Q 14.796875 37.75 14.796875 27.984375 
Q 14.796875 18.265625 18.828125 12.890625 
Q 22.859375 7.515625 30.078125 7.515625 
Q 37.359375 7.515625 41.375 12.890625 
Q 45.40625 18.265625 45.40625 27.984375 
z
M 54.390625 6.78125 
Q 54.390625 -7.171875 48.1875 -13.984375 
Q 42 -20.796875 29.203125 -20.796875 
Q 24.46875 -20.796875 20.265625 -20.09375 
Q 16.0625 -19.390625 12.109375 -17.921875 
L 12.109375 -9.1875 
Q 16.0625 -11.328125 19.921875 -12.34375 
Q 23.78125 -13.375 27.78125 -13.375 
Q 36.625 -13.375 41.015625 -8.765625 
Q 45.40625 -4.15625 45.40625 5.171875 
L 45.40625 9.625 
Q 42.625 4.78125 38.28125 2.390625 
Q 33.9375 0 27.875 0 
Q 17.828125 0 11.671875 7.65625 
Q 5.515625 15.328125 5.515625 27.984375 
Q 5.515625 40.671875 11.671875 48.328125 
Q 17.828125 56 27.875 56 
Q 33.9375 56 38.28125 53.609375 
Q 42.625 51.21875 45.40625 46.390625 
L 45.40625 54.6875 
L 54.390625 54.6875 
z
" id="DejaVuSans-67"/>
     <path id="DejaVuSans-20"/>
     <path d="M 52 44.1875 
Q 55.375 50.25 60.0625 53.125 
Q 64.75 56 71.09375 56 
Q 79.640625 56 84.28125 50.015625 
Q 88.921875 44.046875 88.921875 33.015625 
L 88.921875 0 
L 79.890625 0 
L 79.890625 32.71875 
Q 79.890625 40.578125 77.09375 44.375 
Q 74.3125 48.1875 68.609375 48.1875 
Q 61.625 48.1875 57.5625 43.546875 
Q 53.515625 38.921875 53.515625 30.90625 
L 53.515625 0 
L 44.484375 0 
L 44.484375 32.71875 
Q 44.484375 40.625 41.703125 44.40625 
Q 38.921875 48.1875 33.109375 48.1875 
Q 26.21875 48.1875 22.15625 43.53125 
Q 18.109375 38.875 18.109375 30.90625 
L 18.109375 0 
L 9.078125 0 
L 9.078125 54.6875 
L 18.109375 54.6875 
L 18.109375 46.1875 
Q 21.1875 51.21875 25.484375 53.609375 
Q 29.78125 56 35.6875 56 
Q 41.65625 56 45.828125 52.96875 
Q 50 49.953125 52 44.1875 
z
" id="DejaVuSans-6d"/>
     <path d="M 30.609375 48.390625 
Q 23.390625 48.390625 19.1875 42.75 
Q 14.984375 37.109375 14.984375 27.296875 
Q 14.984375 17.484375 19.15625 11.84375 
Q 23.34375 6.203125 30.609375 6.203125 
Q 37.796875 6.203125 41.984375 11.859375 
Q 46.1875 17.53125 46.1875 27.296875 
Q 46.1875 37.015625 41.984375 42.703125 
Q 37.796875 48.390625 30.609375 48.390625 
z
M 30.609375 56 
Q 42.328125 56 49.015625 48.375 
Q 55.71875 40.765625 55.71875 27.296875 
Q 55.71875 13.875 49.015625 6.21875 
Q 42.328125 -1.421875 30.609375 -1.421875 
Q 18.84375 -1.421875 12.171875 6.21875 
Q 5.515625 13.875 5.515625 27.296875 
Q 5.515625 40.765625 12.171875 48.375 
Q 18.84375 56 30.609375 56 
z
" id="DejaVuSans-6f"/>
     <path d="M 54.890625 33.015625 
L 54.890625 0 
L 45.90625 0 
L 45.90625 32.71875 
Q 45.90625 40.484375 42.875 44.328125 
Q 39.84375 48.1875 33.796875 48.1875 
Q 26.515625 48.1875 22.3125 43.546875 
Q 18.109375 38.921875 18.109375 30.90625 
L 18.109375 0 
L 9.078125 0 
L 9.078125 54.6875 
L 18.109375 54.6875 
L 18.109375 46.1875 
Q 21.34375 51.125 25.703125 53.5625 
Q 30.078125 56 35.796875 56 
Q 45.21875 56 50.046875 50.171875 
Q 54.890625 44.34375 54.890625 33.015625 
z
" id="DejaVuSans-6e"/>
     <path d="M 18.3125 70.21875 
L 18.3125 54.6875 
L 36.8125 54.6875 
L 36.8125 47.703125 
L 18.3125 47.703125 
L 18.3125 18.015625 
Q 18.3125 11.328125 20.140625 9.421875 
Q 21.96875 7.515625 27.59375 7.515625 
L 36.8125 7.515625 
L 36.8125 0 
L 27.59375 0 
Q 17.1875 0 13.234375 3.875 
Q 9.28125 7.765625 9.28125 18.015625 
L 9.28125 47.703125 
L 2.6875 47.703125 
L 2.6875 54.6875 
L 9.28125 54.6875 
L 9.28125 70.21875 
z
" id="DejaVuSans-74"/>
     <path d="M 54.890625 33.015625 
L 54.890625 0 
L 45.90625 0 
L 45.90625 32.71875 
Q 45.90625 40.484375 42.875 44.328125 
Q 39.84375 48.1875 33.796875 48.1875 
Q 26.515625 48.1875 22.3125 43.546875 
Q 18.109375 38.921875 18.109375 30.90625 
L 18.109375 0 
L 9.078125 0 
L 9.078125 75.984375 
L 18.109375 75.984375 
L 18.109375 46.1875 
Q 21.34375 51.125 25.703125 53.5625 
Q 30.078125 56 35.796875 56 
Q 45.21875 56 50.046875 50.171875 
Q 54.890625 44.34375 54.890625 33.015625 
z
" id="DejaVuSans-68"/>
     <path d="M 9.421875 75.984375 
L 18.40625 75.984375 
L 18.40625 0 
L 9.421875 0 
z
" id="DejaVuSans-6c"/>
     <path d="M 32.171875 -5.078125 
Q 28.375 -14.84375 24.75 -17.8125 
Q 21.140625 -20.796875 15.09375 -20.796875 
L 7.90625 -20.796875 
L 7.90625 -13.28125 
L 13.1875 -13.28125 
Q 16.890625 -13.28125 18.9375 -11.515625 
Q 21 -9.765625 23.484375 -3.21875 
L 25.09375 0.875 
L 2.984375 54.6875 
L 12.5 54.6875 
L 29.59375 11.921875 
L 46.6875 54.6875 
L 56.203125 54.6875 
z
" id="DejaVuSans-79"/>
     <path d="M 9.421875 54.6875 
L 18.40625 54.6875 
L 18.40625 0 
L 9.421875 0 
z
M 9.421875 75.984375 
L 18.40625 75.984375 
L 18.40625 64.59375 
L 9.421875 64.59375 
z
" id="DejaVuSans-69"/>
     <path d="M 5.515625 54.6875 
L 48.1875 54.6875 
L 48.1875 46.484375 
L 14.40625 7.171875 
L 48.1875 7.171875 
L 48.1875 0 
L 4.296875 0 
L 4.296875 8.203125 
L 38.09375 47.515625 
L 5.515625 47.515625 
z
" id="DejaVuSans-7a"/>
     <path d="M 45.40625 46.390625 
L 45.40625 75.984375 
L 54.390625 75.984375 
L 54.390625 0 
L 45.40625 0 
L 45.40625 8.203125 
Q 42.578125 3.328125 38.25 0.953125 
Q 33.9375 -1.421875 27.875 -1.421875 
Q 17.96875 -1.421875 11.734375 6.484375 
Q 5.515625 14.40625 5.515625 27.296875 
Q 5.515625 40.1875 11.734375 48.09375 
Q 17.96875 56 27.875 56 
Q 33.9375 56 38.25 53.625 
Q 42.578125 51.265625 45.40625 46.390625 
z
M 14.796875 27.296875 
Q 14.796875 17.390625 18.875 11.75 
Q 22.953125 6.109375 30.078125 6.109375 
Q 37.203125 6.109375 41.296875 11.75 
Q 45.40625 17.390625 45.40625 27.296875 
Q 45.40625 37.203125 41.296875 42.84375 
Q 37.203125 48.484375 30.078125 48.484375 
Q 22.953125 48.484375 18.875 42.84375 
Q 14.796875 37.203125 14.796875 27.296875 
z
" id="DejaVuSans-64"/>
     <path d="M 44.28125 53.078125 
L 44.28125 44.578125 
Q 40.484375 46.53125 36.375 47.5 
Q 32.28125 48.484375 27.875 48.484375 
Q 21.1875 48.484375 17.84375 46.4375 
Q 14.5 44.390625 14.5 40.28125 
Q 14.5 37.15625 16.890625 35.375 
Q 19.28125 33.59375 26.515625 31.984375 
L 29.59375 31.296875 
Q 39.15625 29.25 43.1875 25.515625 
Q 47.21875 21.78125 47.21875 15.09375 
Q 47.21875 7.46875 41.1875 3.015625 
Q 35.15625 -1.421875 24.609375 -1.421875 
Q 20.21875 -1.421875 15.453125 -0.5625 
Q 10.6875 0.296875 5.421875 2 
L 5.421875 11.28125 
Q 10.40625 8.6875 15.234375 7.390625 
Q 20.0625 6.109375 24.8125 6.109375 
Q 31.15625 6.109375 34.5625 8.28125 
Q 37.984375 10.453125 37.984375 14.40625 
Q 37.984375 18.0625 35.515625 20.015625 
Q 33.0625 21.96875 24.703125 23.78125 
L 21.578125 24.515625 
Q 13.234375 26.265625 9.515625 29.90625 
Q 5.8125 33.546875 5.8125 39.890625 
Q 5.8125 47.609375 11.28125 51.796875 
Q 16.75 56 26.8125 56 
Q 31.78125 56 36.171875 55.265625 
Q 40.578125 54.546875 44.28125 53.078125 
z
" id="DejaVuSans-73"/>
    </defs>
    <g transform="translate(119.628753 17.36505)scale(0.12 -0.12)">
     <use xlink:href="#DejaVuSans-41"/>
     <use x="68.330078" xlink:href="#DejaVuSans-76"/>
     <use x="127.509766" xlink:href="#DejaVuSans-65"/>
     <use x="189.033203" xlink:href="#DejaVuSans-72"/>
     <use x="230.146484" xlink:href="#DejaVuSans-61"/>
     <use x="291.425781" xlink:href="#DejaVuSans-67"/>
     <use x="354.902344" xlink:href="#DejaVuSans-65"/>
     <use x="416.425781" xlink:href="#DejaVuSans-20"/>
     <use x="448.212891" xlink:href="#DejaVuSans-6d"/>
     <use x="545.625" xlink:href="#DejaVuSans-6f"/>
     <use x="606.806641" xlink:href="#DejaVuSans-6e"/>
     <use x="670.185547" xlink:href="#DejaVuSans-74"/>
     <use x="709.394531" xlink:href="#DejaVuSans-68"/>
     <use x="772.773438" xlink:href="#DejaVuSans-6c"/>
     <use x="800.556641" xlink:href="#DejaVuSans-79"/>
     <use x="859.736328" xlink:href="#DejaVuSans-20"/>
     <use x="891.523438" xlink:href="#DejaVuSans-6e"/>
     <use x="954.902344" xlink:href="#DejaVuSans-6f"/>
     <use x="1016.083984" xlink:href="#DejaVuSans-72"/>
     <use x="1057.181641" xlink:href="#DejaVuSans-6d"/>
     <use x="1154.59375" xlink:href="#DejaVuSans-61"/>
     <use x="1215.873047" xlink:href="#DejaVuSans-6c"/>
     <use x="1243.65625" xlink:href="#DejaVuSans-69"/>
     <use x="1271.439453" xlink:href="#DejaVuSans-7a"/>
     <use x="1323.929688" xlink:href="#DejaVuSans-65"/>
     <use x="1385.453125" xlink:href="#DejaVuSans-64"/>
     <use x="1448.929688" xlink:href="#DejaVuSans-20"/>
     <use x="1480.716797" xlink:href="#DejaVuSans-65"/>
     <use x="1542.240234" xlink:href="#DejaVuSans-6d"/>
     <use x="1639.652344" xlink:href="#DejaVuSans-69"/>
     <use x="1667.435547" xlink:href="#DejaVuSans-73"/>
     <use x="1719.535156" xlink:href="#DejaVuSans-73"/>
     <use x="1771.634766" xlink:href="#DejaVuSans-69"/>
     <use x="1799.417969" xlink:href="#DejaVuSans-6f"/>
     <use x="1860.599609" xlink:href="#DejaVuSans-6e"/>
     <use x="1923.978516" xlink:href="#DejaVuSans-73"/>
    </g>
   </g>
   <g id="legend_1">
    <g id="patch_7">
     <path d="M 36.25025 46.043175 
L 88.833063 46.043175 
Q 90.833063 46.043175 90.833063 44.043175 
L 90.833063 30.36505 
Q 90.833063 28.36505 88.833063 28.36505 
L 36.25025 28.36505 
Q 34.25025 28.36505 34.25025 30.36505 
L 34.25025 44.043175 
Q 34.25025 46.043175 36.25025 46.043175 
z
" style="fill:#ffffff;opacity:0.8;stroke:#cccccc;stroke-linejoin:miter;"/>
    </g>
    <g id="line2d_24">
     <path d="M 38.25025 36.463488 
L 58.25025 36.463488 
" style="fill:none;stroke:#008000;stroke-linecap:square;stroke-width:1.5;"/>
    </g>
    <g id="line2d_25"/>
    <g id="text_5">
     <!-- SO2 -->
     <defs>
      <path d="M 53.515625 70.515625 
L 53.515625 60.890625 
Q 47.90625 63.578125 42.921875 64.890625 
Q 37.9375 66.21875 33.296875 66.21875 
Q 25.25 66.21875 20.875 63.09375 
Q 16.5 59.96875 16.5 54.203125 
Q 16.5 49.359375 19.40625 46.890625 
Q 22.3125 44.4375 30.421875 42.921875 
L 36.375 41.703125 
Q 47.40625 39.59375 52.65625 34.296875 
Q 57.90625 29 57.90625 20.125 
Q 57.90625 9.515625 50.796875 4.046875 
Q 43.703125 -1.421875 29.984375 -1.421875 
Q 24.8125 -1.421875 18.96875 -0.25 
Q 13.140625 0.921875 6.890625 3.21875 
L 6.890625 13.375 
Q 12.890625 10.015625 18.65625 8.296875 
Q 24.421875 6.59375 29.984375 6.59375 
Q 38.421875 6.59375 43.015625 9.90625 
Q 47.609375 13.234375 47.609375 19.390625 
Q 47.609375 24.75 44.3125 27.78125 
Q 41.015625 30.8125 33.5 32.328125 
L 27.484375 33.5 
Q 16.453125 35.6875 11.515625 40.375 
Q 6.59375 45.0625 6.59375 53.421875 
Q 6.59375 63.09375 13.40625 68.65625 
Q 20.21875 74.21875 32.171875 74.21875 
Q 37.3125 74.21875 42.625 73.28125 
Q 47.953125 72.359375 53.515625 70.515625 
z
" id="DejaVuSans-53"/>
      <path d="M 39.40625 66.21875 
Q 28.65625 66.21875 22.328125 58.203125 
Q 16.015625 50.203125 16.015625 36.375 
Q 16.015625 22.609375 22.328125 14.59375 
Q 28.65625 6.59375 39.40625 6.59375 
Q 50.140625 6.59375 56.421875 14.59375 
Q 62.703125 22.609375 62.703125 36.375 
Q 62.703125 50.203125 56.421875 58.203125 
Q 50.140625 66.21875 39.40625 66.21875 
z
M 39.40625 74.21875 
Q 54.734375 74.21875 63.90625 63.9375 
Q 73.09375 53.65625 73.09375 36.375 
Q 73.09375 19.140625 63.90625 8.859375 
Q 54.734375 -1.421875 39.40625 -1.421875 
Q 24.03125 -1.421875 14.8125 8.828125 
Q 5.609375 19.09375 5.609375 36.375 
Q 5.609375 53.65625 14.8125 63.9375 
Q 24.03125 74.21875 39.40625 74.21875 
z
" id="DejaVuSans-4f"/>
      <path d="M 19.1875 8.296875 
L 53.609375 8.296875 
L 53.609375 0 
L 7.328125 0 
L 7.328125 8.296875 
Q 12.9375 14.109375 22.625 23.890625 
Q 32.328125 33.6875 34.8125 36.53125 
Q 39.546875 41.84375 41.421875 45.53125 
Q 43.3125 49.21875 43.3125 52.78125 
Q 43.3125 58.59375 39.234375 62.25 
Q 35.15625 65.921875 28.609375 65.921875 
Q 23.96875 65.921875 18.8125 64.3125 
Q 13.671875 62.703125 7.8125 59.421875 
L 7.8125 69.390625 
Q 13.765625 71.78125 18.9375 73 
Q 24.125 74.21875 28.421875 74.21875 
Q 39.75 74.21875 46.484375 68.546875 
Q 53.21875 62.890625 53.21875 53.421875 
Q 53.21875 48.921875 51.53125 44.890625 
Q 49.859375 40.875 45.40625 35.40625 
Q 44.1875 33.984375 37.640625 27.21875 
Q 31.109375 20.453125 19.1875 8.296875 
z
" id="DejaVuSans-32"/>
     </defs>
     <g transform="translate(66.25025 39.963488)scale(0.1 -0.1)">
      <use xlink:href="#DejaVuSans-53"/>
      <use x="63.476562" xlink:href="#DejaVuSans-4f"/>
      <use x="142.1875" xlink:href="#DejaVuSans-32"/>
     </g>
    </g>
   </g>
  </g>
  <g id="axes_2">
   <g id="patch_8">
    <path d="M 29.25025 209.084017 
L 447.134756 209.084017 
L 447.134756 124.144533 
L 29.25025 124.144533 
z
" style="fill:none;"/>
   </g>
   <g id="matplotlib.axis_3">
    <g id="xtick_9">
     <g id="line2d_26">
      <path clip-path="url(#p7e26e73282)" d="M 67.153441 209.084017 
L 67.153441 124.144533 
" style="fill:none;stroke:#b0b0b0;stroke-linecap:square;stroke-width:0.8;"/>
     </g>
     <g id="line2d_27">
      <g>
       <use style="stroke:#000000;stroke-width:0.8;" x="67.153441" xlink:href="#m7cdadd4c39" y="209.084017"/>
      </g>
     </g>
    </g>
    <g id="xtick_10">
     <g id="line2d_28">
      <path clip-path="url(#p7e26e73282)" d="M 120.539246 209.084017 
L 120.539246 124.144533 
" style="fill:none;stroke:#b0b0b0;stroke-linecap:square;stroke-width:0.8;"/>
     </g>
     <g id="line2d_29">
      <g>
       <use style="stroke:#000000;stroke-width:0.8;" x="120.539246" xlink:href="#m7cdadd4c39" y="209.084017"/>
      </g>
     </g>
    </g>
    <g id="xtick_11">
     <g id="line2d_30">
      <path clip-path="url(#p7e26e73282)" d="M 173.852019 209.084017 
L 173.852019 124.144533 
" style="fill:none;stroke:#b0b0b0;stroke-linecap:square;stroke-width:0.8;"/>
     </g>
     <g id="line2d_31">
      <g>
       <use style="stroke:#000000;stroke-width:0.8;" x="173.852019" xlink:href="#m7cdadd4c39" y="209.084017"/>
      </g>
     </g>
    </g>
    <g id="xtick_12">
     <g id="line2d_32">
      <path clip-path="url(#p7e26e73282)" d="M 227.237824 209.084017 
L 227.237824 124.144533 
" style="fill:none;stroke:#b0b0b0;stroke-linecap:square;stroke-width:0.8;"/>
     </g>
     <g id="line2d_33">
      <g>
       <use style="stroke:#000000;stroke-width:0.8;" x="227.237824" xlink:href="#m7cdadd4c39" y="209.084017"/>
      </g>
     </g>
    </g>
    <g id="xtick_13">
     <g id="line2d_34">
      <path clip-path="url(#p7e26e73282)" d="M 280.550597 209.084017 
L 280.550597 124.144533 
" style="fill:none;stroke:#b0b0b0;stroke-linecap:square;stroke-width:0.8;"/>
     </g>
     <g id="line2d_35">
      <g>
       <use style="stroke:#000000;stroke-width:0.8;" x="280.550597" xlink:href="#m7cdadd4c39" y="209.084017"/>
      </g>
     </g>
    </g>
    <g id="xtick_14">
     <g id="line2d_36">
      <path clip-path="url(#p7e26e73282)" d="M 333.936402 209.084017 
L 333.936402 124.144533 
" style="fill:none;stroke:#b0b0b0;stroke-linecap:square;stroke-width:0.8;"/>
     </g>
     <g id="line2d_37">
      <g>
       <use style="stroke:#000000;stroke-width:0.8;" x="333.936402" xlink:href="#m7cdadd4c39" y="209.084017"/>
      </g>
     </g>
    </g>
    <g id="xtick_15">
     <g id="line2d_38">
      <path clip-path="url(#p7e26e73282)" d="M 387.249175 209.084017 
L 387.249175 124.144533 
" style="fill:none;stroke:#b0b0b0;stroke-linecap:square;stroke-width:0.8;"/>
     </g>
     <g id="line2d_39">
      <g>
       <use style="stroke:#000000;stroke-width:0.8;" x="387.249175" xlink:href="#m7cdadd4c39" y="209.084017"/>
      </g>
     </g>
    </g>
    <g id="xtick_16">
     <g id="line2d_40">
      <path clip-path="url(#p7e26e73282)" d="M 440.63498 209.084017 
L 440.63498 124.144533 
" style="fill:none;stroke:#b0b0b0;stroke-linecap:square;stroke-width:0.8;"/>
     </g>
     <g id="line2d_41">
      <g>
       <use style="stroke:#000000;stroke-width:0.8;" x="440.63498" xlink:href="#m7cdadd4c39" y="209.084017"/>
      </g>
     </g>
    </g>
   </g>
   <g id="matplotlib.axis_4">
    <g id="ytick_4">
     <g id="line2d_42">
      <path clip-path="url(#p7e26e73282)" d="M 29.25025 205.223131 
L 447.134756 205.223131 
" style="fill:none;stroke:#b0b0b0;stroke-linecap:square;stroke-width:0.8;"/>
     </g>
     <g id="line2d_43">
      <g>
       <use style="stroke:#000000;stroke-width:0.8;" x="29.25025" xlink:href="#mdd49b5e187" y="205.223131"/>
      </g>
     </g>
     <g id="text_6">
      <!-- 0.0 -->
      <g transform="translate(6.347125 209.02235)scale(0.1 -0.1)">
       <use xlink:href="#DejaVuSans-30"/>
       <use x="63.623047" xlink:href="#DejaVuSans-2e"/>
       <use x="95.410156" xlink:href="#DejaVuSans-30"/>
      </g>
     </g>
    </g>
    <g id="ytick_5">
     <g id="line2d_44">
      <path clip-path="url(#p7e26e73282)" d="M 29.25025 178.906116 
L 447.134756 178.906116 
" style="fill:none;stroke:#b0b0b0;stroke-linecap:square;stroke-width:0.8;"/>
     </g>
     <g id="line2d_45">
      <g>
       <use style="stroke:#000000;stroke-width:0.8;" x="29.25025" xlink:href="#mdd49b5e187" y="178.906116"/>
      </g>
     </g>
     <g id="text_7">
      <!-- 0.5 -->
      <g transform="translate(6.347125 182.705335)scale(0.1 -0.1)">
       <use xlink:href="#DejaVuSans-30"/>
       <use x="63.623047" xlink:href="#DejaVuSans-2e"/>
       <use x="95.410156" xlink:href="#DejaVuSans-35"/>
      </g>
     </g>
    </g>
    <g id="ytick_6">
     <g id="line2d_46">
      <path clip-path="url(#p7e26e73282)" d="M 29.25025 152.589101 
L 447.134756 152.589101 
" style="fill:none;stroke:#b0b0b0;stroke-linecap:square;stroke-width:0.8;"/>
     </g>
     <g id="line2d_47">
      <g>
       <use style="stroke:#000000;stroke-width:0.8;" x="29.25025" xlink:href="#mdd49b5e187" y="152.589101"/>
      </g>
     </g>
     <g id="text_8">
      <!-- 1.0 -->
      <g transform="translate(6.347125 156.38832)scale(0.1 -0.1)">
       <use xlink:href="#DejaVuSans-31"/>
       <use x="63.623047" xlink:href="#DejaVuSans-2e"/>
       <use x="95.410156" xlink:href="#DejaVuSans-30"/>
      </g>
     </g>
    </g>
    <g id="ytick_7">
     <g id="line2d_48">
      <path clip-path="url(#p7e26e73282)" d="M 29.25025 126.272086 
L 447.134756 126.272086 
" style="fill:none;stroke:#b0b0b0;stroke-linecap:square;stroke-width:0.8;"/>
     </g>
     <g id="line2d_49">
      <g>
       <use style="stroke:#000000;stroke-width:0.8;" x="29.25025" xlink:href="#mdd49b5e187" y="126.272086"/>
      </g>
     </g>
     <g id="text_9">
      <!-- 1.5 -->
      <g transform="translate(6.347125 130.071305)scale(0.1 -0.1)">
       <use xlink:href="#DejaVuSans-31"/>
       <use x="63.623047" xlink:href="#DejaVuSans-2e"/>
       <use x="95.410156" xlink:href="#DejaVuSans-35"/>
      </g>
     </g>
    </g>
   </g>
   <g id="line2d_50">
    <path clip-path="url(#p7e26e73282)" d="M 29.25025 205.223131 
L 31.514217 205.223131 
L 33.705153 184.567933 
L 35.96912 198.642327 
L 38.160056 190.364604 
L 40.424023 164.176146 
L 42.68799 187.540604 
L 44.732864 159.101349 
L 46.996831 189.217852 
L 49.187767 205.223131 
L 51.451734 205.223131 
L 53.64267 183.488672 
L 55.906637 167.051189 
L 58.170604 166.855604 
L 60.36154 162.149499 
L 62.625507 189.332078 
L 64.816443 196.727752 
L 67.08041 128.005419 
L 69.344377 193.208759 
L 71.462282 177.699207 
L 73.726249 205.223131 
L 75.917185 190.89983 
L 78.181152 183.969967 
L 80.372088 185.723442 
L 82.636055 176.217102 
L 84.900022 171.089784 
L 87.090958 182.130559 
L 89.354925 184.533638 
L 91.545861 180.823475 
L 93.809828 187.235037 
L 96.073795 174.941884 
L 98.118668 190.779372 
L 100.382635 195.092435 
L 102.573571 197.355861 
L 104.837538 205.223131 
L 107.028474 199.151274 
L 111.556408 162.970378 
L 113.747344 185.817417 
L 116.011311 205.223131 
L 118.202247 197.694379 
L 120.466214 171.737943 
L 122.730181 205.223131 
L 124.775055 193.795077 
L 127.039022 205.223131 
L 129.229958 204.24597 
L 131.493925 205.223131 
L 133.684861 202.527357 
L 135.948828 174.806075 
L 138.212795 158.620709 
L 140.403731 158.540627 
L 142.667698 157.507512 
L 144.858634 188.282381 
L 147.122601 194.859902 
L 149.386568 183.508155 
L 151.431442 190.114896 
L 153.695409 205.223131 
L 155.886345 205.223131 
L 158.150312 202.249624 
L 160.341248 205.223131 
L 162.605215 165.681303 
L 164.869182 161.187555 
L 167.060118 161.162893 
L 169.324085 160.631591 
L 171.515021 179.437145 
L 173.778988 179.831101 
L 176.042955 178.334254 
L 180.424827 174.243266 
L 182.615763 171.740945 
L 184.87973 198.822734 
L 187.070666 205.223131 
L 191.5986 158.588748 
L 193.789536 161.771616 
L 196.053503 169.961005 
L 198.244439 186.804553 
L 200.508406 180.277789 
L 202.772373 205.223131 
L 204.817246 166.59454 
L 207.081213 193.004311 
L 209.272149 205.223131 
L 211.536116 202.182461 
L 213.727052 198.666148 
L 215.991019 172.467577 
L 218.254986 161.279887 
L 220.445922 160.854583 
L 222.709889 160.778038 
L 224.900825 191.158964 
L 227.164792 181.82167 
L 229.42876 205.223131 
L 231.473633 194.461043 
L 233.7376 171.829287 
L 235.928536 176.053869 
L 238.192503 205.223131 
L 240.383439 205.223131 
L 242.647406 179.287663 
L 244.911373 159.797525 
L 247.102309 159.541279 
L 249.366276 165.936769 
L 251.557212 196.268557 
L 253.821179 201.833197 
L 256.085146 198.195902 
L 258.13002 205.223131 
L 269.303793 205.223131 
L 271.56776 196.692617 
L 273.758696 177.925507 
L 276.022663 205.223131 
L 278.213599 177.959913 
L 280.477566 187.39524 
L 282.741533 199.723274 
L 284.859438 182.379547 
L 287.123405 203.445641 
L 289.314341 205.194956 
L 296.033211 205.223131 
L 298.297178 189.565264 
L 300.488114 166.885572 
L 302.752081 173.411542 
L 304.943017 205.223131 
L 309.470951 205.223131 
L 311.515824 171.95842 
L 313.779791 187.679831 
L 315.970727 205.223131 
L 318.234694 205.223131 
L 320.42563 195.679937 
L 322.689597 168.446105 
L 324.953564 160.455276 
L 327.1445 165.841403 
L 329.408467 181.902293 
L 331.599403 189.430269 
L 333.86337 155.867661 
L 336.127338 166.971505 
L 338.172211 181.439614 
L 340.436178 205.223131 
L 342.627114 205.200433 
L 344.891081 200.400864 
L 347.082017 205.223131 
L 349.345984 182.23831 
L 351.609951 163.179326 
L 353.800887 161.115686 
L 356.064854 193.836944 
L 358.25579 192.939055 
L 360.519757 193.211021 
L 362.783724 204.912627 
L 364.828598 205.223131 
L 369.283501 205.223131 
L 371.547468 169.741503 
L 373.738404 156.204894 
L 376.002371 155.045294 
L 378.266338 151.19152 
L 380.457274 154.633731 
L 382.721241 155.008439 
L 384.912177 162.46702 
L 387.176144 177.809649 
L 389.440111 167.03105 
L 391.558016 187.17308 
L 393.821983 205.223131 
L 396.012919 205.197614 
L 398.276886 197.18237 
L 400.467822 162.913593 
L 402.731789 172.626924 
L 404.995756 156.047314 
L 407.186692 159.395947 
L 409.450659 205.059597 
L 411.641595 205.223131 
L 413.905562 188.760807 
L 416.169529 168.778018 
L 418.214402 191.346453 
L 420.478369 205.223131 
L 424.933272 205.223131 
L 427.124208 195.941767 
L 429.388175 160.972184 
L 431.652143 158.080086 
L 433.843078 185.297889 
L 436.107045 183.131372 
L 438.297981 169.043501 
L 440.561948 162.749518 
L 442.825916 198.337856 
L 444.870789 195.176491 
L 447.134756 196.756973 
L 447.134756 196.756973 
" style="fill:none;stroke:#f97306;stroke-linecap:square;stroke-width:1.5;"/>
   </g>
   <g id="patch_9">
    <path d="M 29.25025 209.084017 
L 29.25025 124.144533 
" style="fill:none;stroke:#000000;stroke-linecap:square;stroke-linejoin:miter;stroke-width:0.8;"/>
   </g>
   <g id="patch_10">
    <path d="M 447.134756 209.084017 
L 447.134756 124.144533 
" style="fill:none;stroke:#000000;stroke-linecap:square;stroke-linejoin:miter;stroke-width:0.8;"/>
   </g>
   <g id="patch_11">
    <path d="M 29.25025 209.084017 
L 447.134756 209.084017 
" style="fill:none;stroke:#000000;stroke-linecap:square;stroke-linejoin:miter;stroke-width:0.8;"/>
   </g>
   <g id="patch_12">
    <path d="M 29.25025 124.144533 
L 447.134756 124.144533 
" style="fill:none;stroke:#000000;stroke-linecap:square;stroke-linejoin:miter;stroke-width:0.8;"/>
   </g>
   <g id="legend_2">
    <g id="patch_13">
     <path d="M 386.862881 146.822658 
L 440.134756 146.822658 
Q 442.134756 146.822658 442.134756 144.822658 
L 442.134756 131.144533 
Q 442.134756 129.144533 440.134756 129.144533 
L 386.862881 129.144533 
Q 384.862881 129.144533 384.862881 131.144533 
L 384.862881 144.822658 
Q 384.862881 146.822658 386.862881 146.822658 
z
" style="fill:#ffffff;opacity:0.8;stroke:#cccccc;stroke-linejoin:miter;"/>
    </g>
    <g id="line2d_51">
     <path d="M 388.862881 137.242971 
L 408.862881 137.242971 
" style="fill:none;stroke:#f97306;stroke-linecap:square;stroke-width:1.5;"/>
    </g>
    <g id="line2d_52"/>
    <g id="text_10">
     <!-- NOx -->
     <defs>
      <path d="M 9.8125 72.90625 
L 23.09375 72.90625 
L 55.421875 11.921875 
L 55.421875 72.90625 
L 64.984375 72.90625 
L 64.984375 0 
L 51.703125 0 
L 19.390625 60.984375 
L 19.390625 0 
L 9.8125 0 
z
" id="DejaVuSans-4e"/>
      <path d="M 54.890625 54.6875 
L 35.109375 28.078125 
L 55.90625 0 
L 45.3125 0 
L 29.390625 21.484375 
L 13.484375 0 
L 2.875 0 
L 24.125 28.609375 
L 4.6875 54.6875 
L 15.28125 54.6875 
L 29.78125 35.203125 
L 44.28125 54.6875 
z
" id="DejaVuSans-78"/>
     </defs>
     <g transform="translate(416.862881 140.742971)scale(0.1 -0.1)">
      <use xlink:href="#DejaVuSans-4e"/>
      <use x="74.804688" xlink:href="#DejaVuSans-4f"/>
      <use x="153.515625" xlink:href="#DejaVuSans-78"/>
     </g>
    </g>
   </g>
  </g>
  <g id="axes_3">
   <g id="patch_14">
    <path d="M 29.25025 309.8635 
L 447.134756 309.8635 
L 447.134756 224.924017 
L 29.25025 224.924017 
z
" style="fill:none;"/>
   </g>
   <g id="matplotlib.axis_5">
    <g id="xtick_17">
     <g id="line2d_53">
      <path clip-path="url(#p75164d91d7)" d="M 67.153441 309.8635 
L 67.153441 224.924017 
" style="fill:none;stroke:#b0b0b0;stroke-linecap:square;stroke-width:0.8;"/>
     </g>
     <g id="line2d_54">
      <g>
       <use style="stroke:#000000;stroke-width:0.8;" x="67.153441" xlink:href="#m7cdadd4c39" y="309.8635"/>
      </g>
     </g>
     <g id="text_11">
      <!-- 2004 -->
      <defs>
       <path d="M 37.796875 64.3125 
L 12.890625 25.390625 
L 37.796875 25.390625 
z
M 35.203125 72.90625 
L 47.609375 72.90625 
L 47.609375 25.390625 
L 58.015625 25.390625 
L 58.015625 17.1875 
L 47.609375 17.1875 
L 47.609375 0 
L 37.796875 0 
L 37.796875 17.1875 
L 4.890625 17.1875 
L 4.890625 26.703125 
z
" id="DejaVuSans-34"/>
      </defs>
      <g transform="translate(54.428441 324.461937)scale(0.1 -0.1)">
       <use xlink:href="#DejaVuSans-32"/>
       <use x="63.623047" xlink:href="#DejaVuSans-30"/>
       <use x="127.246094" xlink:href="#DejaVuSans-30"/>
       <use x="190.869141" xlink:href="#DejaVuSans-34"/>
      </g>
     </g>
    </g>
    <g id="xtick_18">
     <g id="line2d_55">
      <path clip-path="url(#p75164d91d7)" d="M 120.539246 309.8635 
L 120.539246 224.924017 
" style="fill:none;stroke:#b0b0b0;stroke-linecap:square;stroke-width:0.8;"/>
     </g>
     <g id="line2d_56">
      <g>
       <use style="stroke:#000000;stroke-width:0.8;" x="120.539246" xlink:href="#m7cdadd4c39" y="309.8635"/>
      </g>
     </g>
     <g id="text_12">
      <!-- 2006 -->
      <defs>
       <path d="M 33.015625 40.375 
Q 26.375 40.375 22.484375 35.828125 
Q 18.609375 31.296875 18.609375 23.390625 
Q 18.609375 15.53125 22.484375 10.953125 
Q 26.375 6.390625 33.015625 6.390625 
Q 39.65625 6.390625 43.53125 10.953125 
Q 47.40625 15.53125 47.40625 23.390625 
Q 47.40625 31.296875 43.53125 35.828125 
Q 39.65625 40.375 33.015625 40.375 
z
M 52.59375 71.296875 
L 52.59375 62.3125 
Q 48.875 64.0625 45.09375 64.984375 
Q 41.3125 65.921875 37.59375 65.921875 
Q 27.828125 65.921875 22.671875 59.328125 
Q 17.53125 52.734375 16.796875 39.40625 
Q 19.671875 43.65625 24.015625 45.921875 
Q 28.375 48.1875 33.59375 48.1875 
Q 44.578125 48.1875 50.953125 41.515625 
Q 57.328125 34.859375 57.328125 23.390625 
Q 57.328125 12.15625 50.6875 5.359375 
Q 44.046875 -1.421875 33.015625 -1.421875 
Q 20.359375 -1.421875 13.671875 8.265625 
Q 6.984375 17.96875 6.984375 36.375 
Q 6.984375 53.65625 15.1875 63.9375 
Q 23.390625 74.21875 37.203125 74.21875 
Q 40.921875 74.21875 44.703125 73.484375 
Q 48.484375 72.75 52.59375 71.296875 
z
" id="DejaVuSans-36"/>
      </defs>
      <g transform="translate(107.814246 324.461937)scale(0.1 -0.1)">
       <use xlink:href="#DejaVuSans-32"/>
       <use x="63.623047" xlink:href="#DejaVuSans-30"/>
       <use x="127.246094" xlink:href="#DejaVuSans-30"/>
       <use x="190.869141" xlink:href="#DejaVuSans-36"/>
      </g>
     </g>
    </g>
    <g id="xtick_19">
     <g id="line2d_57">
      <path clip-path="url(#p75164d91d7)" d="M 173.852019 309.8635 
L 173.852019 224.924017 
" style="fill:none;stroke:#b0b0b0;stroke-linecap:square;stroke-width:0.8;"/>
     </g>
     <g id="line2d_58">
      <g>
       <use style="stroke:#000000;stroke-width:0.8;" x="173.852019" xlink:href="#m7cdadd4c39" y="309.8635"/>
      </g>
     </g>
     <g id="text_13">
      <!-- 2008 -->
      <defs>
       <path d="M 31.78125 34.625 
Q 24.75 34.625 20.71875 30.859375 
Q 16.703125 27.09375 16.703125 20.515625 
Q 16.703125 13.921875 20.71875 10.15625 
Q 24.75 6.390625 31.78125 6.390625 
Q 38.8125 6.390625 42.859375 10.171875 
Q 46.921875 13.96875 46.921875 20.515625 
Q 46.921875 27.09375 42.890625 30.859375 
Q 38.875 34.625 31.78125 34.625 
z
M 21.921875 38.8125 
Q 15.578125 40.375 12.03125 44.71875 
Q 8.5 49.078125 8.5 55.328125 
Q 8.5 64.0625 14.71875 69.140625 
Q 20.953125 74.21875 31.78125 74.21875 
Q 42.671875 74.21875 48.875 69.140625 
Q 55.078125 64.0625 55.078125 55.328125 
Q 55.078125 49.078125 51.53125 44.71875 
Q 48 40.375 41.703125 38.8125 
Q 48.828125 37.15625 52.796875 32.3125 
Q 56.78125 27.484375 56.78125 20.515625 
Q 56.78125 9.90625 50.3125 4.234375 
Q 43.84375 -1.421875 31.78125 -1.421875 
Q 19.734375 -1.421875 13.25 4.234375 
Q 6.78125 9.90625 6.78125 20.515625 
Q 6.78125 27.484375 10.78125 32.3125 
Q 14.796875 37.15625 21.921875 38.8125 
z
M 18.3125 54.390625 
Q 18.3125 48.734375 21.84375 45.5625 
Q 25.390625 42.390625 31.78125 42.390625 
Q 38.140625 42.390625 41.71875 45.5625 
Q 45.3125 48.734375 45.3125 54.390625 
Q 45.3125 60.0625 41.71875 63.234375 
Q 38.140625 66.40625 31.78125 66.40625 
Q 25.390625 66.40625 21.84375 63.234375 
Q 18.3125 60.0625 18.3125 54.390625 
z
" id="DejaVuSans-38"/>
      </defs>
      <g transform="translate(161.127019 324.461937)scale(0.1 -0.1)">
       <use xlink:href="#DejaVuSans-32"/>
       <use x="63.623047" xlink:href="#DejaVuSans-30"/>
       <use x="127.246094" xlink:href="#DejaVuSans-30"/>
       <use x="190.869141" xlink:href="#DejaVuSans-38"/>
      </g>
     </g>
    </g>
    <g id="xtick_20">
     <g id="line2d_59">
      <path clip-path="url(#p75164d91d7)" d="M 227.237824 309.8635 
L 227.237824 224.924017 
" style="fill:none;stroke:#b0b0b0;stroke-linecap:square;stroke-width:0.8;"/>
     </g>
     <g id="line2d_60">
      <g>
       <use style="stroke:#000000;stroke-width:0.8;" x="227.237824" xlink:href="#m7cdadd4c39" y="309.8635"/>
      </g>
     </g>
     <g id="text_14">
      <!-- 2010 -->
      <g transform="translate(214.512824 324.461937)scale(0.1 -0.1)">
       <use xlink:href="#DejaVuSans-32"/>
       <use x="63.623047" xlink:href="#DejaVuSans-30"/>
       <use x="127.246094" xlink:href="#DejaVuSans-31"/>
       <use x="190.869141" xlink:href="#DejaVuSans-30"/>
      </g>
     </g>
    </g>
    <g id="xtick_21">
     <g id="line2d_61">
      <path clip-path="url(#p75164d91d7)" d="M 280.550597 309.8635 
L 280.550597 224.924017 
" style="fill:none;stroke:#b0b0b0;stroke-linecap:square;stroke-width:0.8;"/>
     </g>
     <g id="line2d_62">
      <g>
       <use style="stroke:#000000;stroke-width:0.8;" x="280.550597" xlink:href="#m7cdadd4c39" y="309.8635"/>
      </g>
     </g>
     <g id="text_15">
      <!-- 2012 -->
      <g transform="translate(267.825597 324.461937)scale(0.1 -0.1)">
       <use xlink:href="#DejaVuSans-32"/>
       <use x="63.623047" xlink:href="#DejaVuSans-30"/>
       <use x="127.246094" xlink:href="#DejaVuSans-31"/>
       <use x="190.869141" xlink:href="#DejaVuSans-32"/>
      </g>
     </g>
    </g>
    <g id="xtick_22">
     <g id="line2d_63">
      <path clip-path="url(#p75164d91d7)" d="M 333.936402 309.8635 
L 333.936402 224.924017 
" style="fill:none;stroke:#b0b0b0;stroke-linecap:square;stroke-width:0.8;"/>
     </g>
     <g id="line2d_64">
      <g>
       <use style="stroke:#000000;stroke-width:0.8;" x="333.936402" xlink:href="#m7cdadd4c39" y="309.8635"/>
      </g>
     </g>
     <g id="text_16">
      <!-- 2014 -->
      <g transform="translate(321.211402 324.461937)scale(0.1 -0.1)">
       <use xlink:href="#DejaVuSans-32"/>
       <use x="63.623047" xlink:href="#DejaVuSans-30"/>
       <use x="127.246094" xlink:href="#DejaVuSans-31"/>
       <use x="190.869141" xlink:href="#DejaVuSans-34"/>
      </g>
     </g>
    </g>
    <g id="xtick_23">
     <g id="line2d_65">
      <path clip-path="url(#p75164d91d7)" d="M 387.249175 309.8635 
L 387.249175 224.924017 
" style="fill:none;stroke:#b0b0b0;stroke-linecap:square;stroke-width:0.8;"/>
     </g>
     <g id="line2d_66">
      <g>
       <use style="stroke:#000000;stroke-width:0.8;" x="387.249175" xlink:href="#m7cdadd4c39" y="309.8635"/>
      </g>
     </g>
     <g id="text_17">
      <!-- 2016 -->
      <g transform="translate(374.524175 324.461937)scale(0.1 -0.1)">
       <use xlink:href="#DejaVuSans-32"/>
       <use x="63.623047" xlink:href="#DejaVuSans-30"/>
       <use x="127.246094" xlink:href="#DejaVuSans-31"/>
       <use x="190.869141" xlink:href="#DejaVuSans-36"/>
      </g>
     </g>
    </g>
    <g id="xtick_24">
     <g id="line2d_67">
      <path clip-path="url(#p75164d91d7)" d="M 440.63498 309.8635 
L 440.63498 224.924017 
" style="fill:none;stroke:#b0b0b0;stroke-linecap:square;stroke-width:0.8;"/>
     </g>
     <g id="line2d_68">
      <g>
       <use style="stroke:#000000;stroke-width:0.8;" x="440.63498" xlink:href="#m7cdadd4c39" y="309.8635"/>
      </g>
     </g>
     <g id="text_18">
      <!-- 2018 -->
      <g transform="translate(427.90998 324.461937)scale(0.1 -0.1)">
       <use xlink:href="#DejaVuSans-32"/>
       <use x="63.623047" xlink:href="#DejaVuSans-30"/>
       <use x="127.246094" xlink:href="#DejaVuSans-31"/>
       <use x="190.869141" xlink:href="#DejaVuSans-38"/>
      </g>
     </g>
    </g>
    <g id="text_19">
     <!-- Date -->
     <defs>
      <path d="M 19.671875 64.796875 
L 19.671875 8.109375 
L 31.59375 8.109375 
Q 46.6875 8.109375 53.6875 14.9375 
Q 60.6875 21.78125 60.6875 36.53125 
Q 60.6875 51.171875 53.6875 57.984375 
Q 46.6875 64.796875 31.59375 64.796875 
z
M 9.8125 72.90625 
L 30.078125 72.90625 
Q 51.265625 72.90625 61.171875 64.09375 
Q 71.09375 55.28125 71.09375 36.53125 
Q 71.09375 17.671875 61.125 8.828125 
Q 51.171875 0 30.078125 0 
L 9.8125 0 
z
" id="DejaVuSans-44"/>
     </defs>
     <g transform="translate(226.241722 338.140062)scale(0.1 -0.1)">
      <use xlink:href="#DejaVuSans-44"/>
      <use x="77.001953" xlink:href="#DejaVuSans-61"/>
      <use x="138.28125" xlink:href="#DejaVuSans-74"/>
      <use x="177.490234" xlink:href="#DejaVuSans-65"/>
     </g>
    </g>
   </g>
   <g id="matplotlib.axis_6">
    <g id="ytick_8">
     <g id="line2d_69">
      <path clip-path="url(#p75164d91d7)" d="M 29.25025 306.002614 
L 447.134756 306.002614 
" style="fill:none;stroke:#b0b0b0;stroke-linecap:square;stroke-width:0.8;"/>
     </g>
     <g id="line2d_70">
      <g>
       <use style="stroke:#000000;stroke-width:0.8;" x="29.25025" xlink:href="#mdd49b5e187" y="306.002614"/>
      </g>
     </g>
     <g id="text_20">
      <!-- 0.0 -->
      <g transform="translate(6.347125 309.801833)scale(0.1 -0.1)">
       <use xlink:href="#DejaVuSans-30"/>
       <use x="63.623047" xlink:href="#DejaVuSans-2e"/>
       <use x="95.410156" xlink:href="#DejaVuSans-30"/>
      </g>
     </g>
    </g>
    <g id="ytick_9">
     <g id="line2d_71">
      <path clip-path="url(#p75164d91d7)" d="M 29.25025 271.753719 
L 447.134756 271.753719 
" style="fill:none;stroke:#b0b0b0;stroke-linecap:square;stroke-width:0.8;"/>
     </g>
     <g id="line2d_72">
      <g>
       <use style="stroke:#000000;stroke-width:0.8;" x="29.25025" xlink:href="#mdd49b5e187" y="271.753719"/>
      </g>
     </g>
     <g id="text_21">
      <!-- 0.5 -->
      <g transform="translate(6.347125 275.552937)scale(0.1 -0.1)">
       <use xlink:href="#DejaVuSans-30"/>
       <use x="63.623047" xlink:href="#DejaVuSans-2e"/>
       <use x="95.410156" xlink:href="#DejaVuSans-35"/>
      </g>
     </g>
    </g>
    <g id="ytick_10">
     <g id="line2d_73">
      <path clip-path="url(#p75164d91d7)" d="M 29.25025 237.504823 
L 447.134756 237.504823 
" style="fill:none;stroke:#b0b0b0;stroke-linecap:square;stroke-width:0.8;"/>
     </g>
     <g id="line2d_74">
      <g>
       <use style="stroke:#000000;stroke-width:0.8;" x="29.25025" xlink:href="#mdd49b5e187" y="237.504823"/>
      </g>
     </g>
     <g id="text_22">
      <!-- 1.0 -->
      <g transform="translate(6.347125 241.304042)scale(0.1 -0.1)">
       <use xlink:href="#DejaVuSans-31"/>
       <use x="63.623047" xlink:href="#DejaVuSans-2e"/>
       <use x="95.410156" xlink:href="#DejaVuSans-30"/>
      </g>
     </g>
    </g>
   </g>
   <g id="line2d_75">
    <path clip-path="url(#p75164d91d7)" d="M 29.25025 306.002614 
L 31.514217 306.002614 
L 33.705153 277.915499 
L 35.96912 303.977079 
L 38.160056 289.734561 
L 40.424023 259.32811 
L 42.68799 290.939847 
L 44.732864 250.62863 
L 46.996831 281.397305 
L 49.187767 306.002614 
L 51.451734 306.002614 
L 53.64267 292.236241 
L 55.906637 253.204579 
L 58.170604 261.22696 
L 60.36154 238.002576 
L 62.625507 286.815698 
L 64.816443 298.696814 
L 67.08041 293.469075 
L 69.344377 299.336408 
L 71.462282 272.148201 
L 73.726249 306.002614 
L 75.917185 289.256657 
L 78.181152 279.408824 
L 80.372088 290.514265 
L 82.636055 261.464877 
L 84.900022 250.329994 
L 87.090958 270.814312 
L 89.354925 274.806576 
L 91.545861 268.795984 
L 93.809828 279.981086 
L 96.073795 261.748237 
L 98.118668 286.618143 
L 100.382635 291.894117 
L 102.573571 298.232515 
L 104.837538 306.002614 
L 107.028474 305.155672 
L 109.292441 270.481745 
L 111.556408 241.430391 
L 113.747344 276.905894 
L 116.011311 306.002614 
L 118.202247 295.576889 
L 120.466214 250.781469 
L 122.730181 306.002614 
L 124.775055 289.45551 
L 127.039022 306.002614 
L 129.229958 304.993821 
L 131.493925 306.002614 
L 133.684861 305.409168 
L 135.948828 257.744785 
L 138.212795 229.557488 
L 140.403731 229.771654 
L 142.667698 228.784902 
L 144.858634 283.34971 
L 147.122601 292.318204 
L 149.386568 286.903781 
L 151.431442 289.122295 
L 153.695409 306.002614 
L 155.886345 306.002614 
L 158.150312 305.446144 
L 160.341248 306.002614 
L 162.605215 253.501622 
L 164.869182 247.902868 
L 167.060118 238.243347 
L 169.324085 238.98983 
L 171.515021 273.364291 
L 173.778988 271.119838 
L 176.042955 269.116756 
L 178.16086 266.803587 
L 180.424827 268.660438 
L 182.615763 256.852234 
L 184.87973 302.378439 
L 187.070666 306.002614 
L 189.334633 276.292283 
L 191.5986 242.192474 
L 193.789536 244.086209 
L 196.053503 257.145096 
L 198.244439 284.531889 
L 200.508406 272.104888 
L 202.772373 306.002614 
L 204.817246 254.880884 
L 207.081213 290.994112 
L 209.272149 306.002614 
L 211.536116 304.221768 
L 213.727052 302.121565 
L 215.991019 261.8286 
L 218.254986 240.748087 
L 220.445922 242.660676 
L 222.709889 241.41335 
L 224.900825 288.447145 
L 227.164792 277.079269 
L 229.42876 306.002614 
L 231.473633 295.613817 
L 233.7376 262.139175 
L 235.928536 263.081899 
L 238.192503 306.002614 
L 240.383439 306.002614 
L 244.911373 238.862785 
L 247.102309 242.403565 
L 249.366276 254.553601 
L 251.557212 296.195426 
L 253.821179 303.923157 
L 256.085146 298.60179 
L 258.13002 306.002614 
L 269.303793 306.002614 
L 271.56776 296.645106 
L 273.758696 271.803325 
L 276.022663 306.002614 
L 278.213599 272.33306 
L 280.477566 282.807334 
L 282.741533 301.233474 
L 284.859438 278.595687 
L 287.123405 303.649473 
L 289.314341 306.000693 
L 296.033211 306.002614 
L 298.297178 288.447468 
L 300.488114 259.8154 
L 302.752081 263.548977 
L 304.943017 306.002614 
L 309.470951 306.002614 
L 311.515824 293.995735 
L 313.779791 288.66036 
L 315.970727 306.002614 
L 318.234694 306.002614 
L 320.42563 297.932735 
L 322.689597 257.599978 
L 324.953564 239.713517 
L 327.1445 248.217592 
L 329.408467 274.692782 
L 331.599403 287.453809 
L 333.86337 237.745017 
L 338.172211 275.087047 
L 340.436178 306.002614 
L 342.627114 306.000732 
L 344.891081 302.175719 
L 347.082017 306.002614 
L 349.345984 277.717804 
L 351.609951 244.217485 
L 353.800887 244.527036 
L 356.064854 292.290332 
L 358.25579 291.864323 
L 360.519757 294.977663 
L 362.783724 305.863001 
L 364.828598 306.002614 
L 369.283501 306.002614 
L 371.547468 260.61268 
L 373.738404 234.425397 
L 376.002371 233.643281 
L 378.266338 234.514819 
L 380.457274 233.384248 
L 382.721241 233.29346 
L 384.912177 249.558802 
L 387.176144 271.470875 
L 389.440111 253.484084 
L 391.558016 282.57413 
L 393.821983 306.002614 
L 396.012919 306.000713 
L 398.276886 305.521381 
L 400.467822 249.197463 
L 402.731789 260.986839 
L 404.995756 233.281706 
L 407.186692 241.607344 
L 409.450659 305.967069 
L 411.641595 306.002614 
L 413.905562 289.567808 
L 416.169529 261.335909 
L 418.214402 285.919872 
L 420.478369 306.002614 
L 424.933272 306.002614 
L 427.124208 304.968297 
L 429.388175 243.435412 
L 431.652143 236.346298 
L 433.843078 280.672362 
L 436.107045 280.727516 
L 438.297981 255.495974 
L 440.561948 252.5807 
L 442.825916 296.453054 
L 444.870789 294.910562 
L 447.134756 296.315569 
L 447.134756 296.315569 
" style="fill:none;stroke:#4682b4;stroke-linecap:square;stroke-width:1.5;"/>
   </g>
   <g id="patch_15">
    <path d="M 29.25025 309.8635 
L 29.25025 224.924017 
" style="fill:none;stroke:#000000;stroke-linecap:square;stroke-linejoin:miter;stroke-width:0.8;"/>
   </g>
   <g id="patch_16">
    <path d="M 447.134756 309.8635 
L 447.134756 224.924017 
" style="fill:none;stroke:#000000;stroke-linecap:square;stroke-linejoin:miter;stroke-width:0.8;"/>
   </g>
   <g id="patch_17">
    <path d="M 29.25025 309.8635 
L 447.134756 309.8635 
" style="fill:none;stroke:#000000;stroke-linecap:square;stroke-linejoin:miter;stroke-width:0.8;"/>
   </g>
   <g id="patch_18">
    <path d="M 29.25025 224.924017 
L 447.134756 224.924017 
" style="fill:none;stroke:#000000;stroke-linecap:square;stroke-linejoin:miter;stroke-width:0.8;"/>
   </g>
   <g id="legend_3">
    <g id="patch_19">
     <path d="M 36.25025 247.602142 
L 89.467438 247.602142 
Q 91.467438 247.602142 91.467438 245.602142 
L 91.467438 231.924017 
Q 91.467438 229.924017 89.467438 229.924017 
L 36.25025 229.924017 
Q 34.25025 229.924017 34.25025 231.924017 
L 34.25025 245.602142 
Q 34.25025 247.602142 36.25025 247.602142 
z
" style="fill:#ffffff;opacity:0.8;stroke:#cccccc;stroke-linejoin:miter;"/>
    </g>
    <g id="line2d_76">
     <path d="M 38.25025 238.022454 
L 58.25025 238.022454 
" style="fill:none;stroke:#4682b4;stroke-linecap:square;stroke-width:1.5;"/>
    </g>
    <g id="line2d_77"/>
    <g id="text_23">
     <!-- CO2 -->
     <defs>
      <path d="M 64.40625 67.28125 
L 64.40625 56.890625 
Q 59.421875 61.53125 53.78125 63.8125 
Q 48.140625 66.109375 41.796875 66.109375 
Q 29.296875 66.109375 22.65625 58.46875 
Q 16.015625 50.828125 16.015625 36.375 
Q 16.015625 21.96875 22.65625 14.328125 
Q 29.296875 6.6875 41.796875 6.6875 
Q 48.140625 6.6875 53.78125 8.984375 
Q 59.421875 11.28125 64.40625 15.921875 
L 64.40625 5.609375 
Q 59.234375 2.09375 53.4375 0.328125 
Q 47.65625 -1.421875 41.21875 -1.421875 
Q 24.65625 -1.421875 15.125 8.703125 
Q 5.609375 18.84375 5.609375 36.375 
Q 5.609375 53.953125 15.125 64.078125 
Q 24.65625 74.21875 41.21875 74.21875 
Q 47.75 74.21875 53.53125 72.484375 
Q 59.328125 70.75 64.40625 67.28125 
z
" id="DejaVuSans-43"/>
     </defs>
     <g transform="translate(66.25025 241.522454)scale(0.1 -0.1)">
      <use xlink:href="#DejaVuSans-43"/>
      <use x="69.824219" xlink:href="#DejaVuSans-4f"/>
      <use x="148.535156" xlink:href="#DejaVuSans-32"/>
     </g>
    </g>
   </g>
  </g>
 </g>
 <defs>
  <clipPath id="pd5bba1f994">
   <rect height="84.939483" width="417.884506" x="29.25025" y="23.36505"/>
  </clipPath>
  <clipPath id="p7e26e73282">
   <rect height="84.939483" width="417.884506" x="29.25025" y="124.144533"/>
  </clipPath>
  <clipPath id="p75164d91d7">
   <rect height="84.939483" width="417.884506" x="29.25025" y="224.924017"/>
  </clipPath>
 </defs>
</svg>
