<?xml version="1.0" encoding="utf-8" standalone="no"?>
<!DOCTYPE svg PUBLIC "-//W3C//DTD SVG 1.1//EN"
  "http://www.w3.org/Graphics/SVG/1.1/DTD/svg11.dtd">
<!-- Created with matplotlib (http://matplotlib.org/) -->
<svg height="345.6pt" version="1.1" viewBox="0 0 460.8 345.6" width="460.8pt" xmlns="http://www.w3.org/2000/svg" xmlns:xlink="http://www.w3.org/1999/xlink">
 <defs>
  <style type="text/css">
*{stroke-linecap:butt;stroke-linejoin:round;}
  </style>
 </defs>
 <g id="figure_1">
  <g id="patch_1">
   <path d="M 0 345.6 
L 460.8 345.6 
L 460.8 0 
L 0 0 
z
" style="fill:none;"/>
  </g>
  <g id="axes_1">
   <g id="patch_2">
    <path d="M 44.7995 309.8635 
L 443.059553 309.8635 
L 443.059553 23.36505 
L 44.7995 23.36505 
z
" style="fill:none;"/>
   </g>
   <g id="matplotlib.axis_1">
    <g id="xtick_1">
     <g id="line2d_1">
      <path clip-path="url(#p3855585d2b)" d="M 89.276532 309.8635 
L 89.276532 23.36505 
" style="fill:none;stroke:#b0b0b0;stroke-linecap:square;stroke-width:0.8;"/>
     </g>
     <g id="line2d_2">
      <defs>
       <path d="M 0 0 
L 0 3.5 
" id="mb551c425b8" style="stroke:#000000;stroke-width:0.8;"/>
      </defs>
      <g>
       <use style="stroke:#000000;stroke-width:0.8;" x="89.276532" xlink:href="#mb551c425b8" y="309.8635"/>
      </g>
     </g>
     <g id="text_1">
      <!-- 2003 -->
      <defs>
       <path d="M 19.1875 8.296875 
L 53.609375 8.296875 
L 53.609375 0 
L 7.328125 0 
L 7.328125 8.296875 
Q 12.9375 14.109375 22.625 23.890625 
Q 32.328125 33.6875 34.8125 36.53125 
Q 39.546875 41.84375 41.421875 45.53125 
Q 43.3125 49.21875 43.3125 52.78125 
Q 43.3125 58.59375 39.234375 62.25 
Q 35.15625 65.921875 28.609375 65.921875 
Q 23.96875 65.921875 18.8125 64.3125 
Q 13.671875 62.703125 7.8125 59.421875 
L 7.8125 69.390625 
Q 13.765625 71.78125 18.9375 73 
Q 24.125 74.21875 28.421875 74.21875 
Q 39.75 74.21875 46.484375 68.546875 
Q 53.21875 62.890625 53.21875 53.421875 
Q 53.21875 48.921875 51.53125 44.890625 
Q 49.859375 40.875 45.40625 35.40625 
Q 44.1875 33.984375 37.640625 27.21875 
Q 31.109375 20.453125 19.1875 8.296875 
z
" id="DejaVuSans-32"/>
       <path d="M 31.78125 66.40625 
Q 24.171875 66.40625 20.328125 58.90625 
Q 16.5 51.421875 16.5 36.375 
Q 16.5 21.390625 20.328125 13.890625 
Q 24.171875 6.390625 31.78125 6.390625 
Q 39.453125 6.390625 43.28125 13.890625 
Q 47.125 21.390625 47.125 36.375 
Q 47.125 51.421875 43.28125 58.90625 
Q 39.453125 66.40625 31.78125 66.40625 
z
M 31.78125 74.21875 
Q 44.046875 74.21875 50.515625 64.515625 
Q 56.984375 54.828125 56.984375 36.375 
Q 56.984375 17.96875 50.515625 8.265625 
Q 44.046875 -1.421875 31.78125 -1.421875 
Q 19.53125 -1.421875 13.0625 8.265625 
Q 6.59375 17.96875 6.59375 36.375 
Q 6.59375 54.828125 13.0625 64.515625 
Q 19.53125 74.21875 31.78125 74.21875 
z
" id="DejaVuSans-30"/>
       <path d="M 40.578125 39.3125 
Q 47.65625 37.796875 51.625 33 
Q 55.609375 28.21875 55.609375 21.1875 
Q 55.609375 10.40625 48.1875 4.484375 
Q 40.765625 -1.421875 27.09375 -1.421875 
Q 22.515625 -1.421875 17.65625 -0.515625 
Q 12.796875 0.390625 7.625 2.203125 
L 7.625 11.71875 
Q 11.71875 9.328125 16.59375 8.109375 
Q 21.484375 6.890625 26.8125 6.890625 
Q 36.078125 6.890625 40.9375 10.546875 
Q 45.796875 14.203125 45.796875 21.1875 
Q 45.796875 27.640625 41.28125 31.265625 
Q 36.765625 34.90625 28.71875 34.90625 
L 20.21875 34.90625 
L 20.21875 43.015625 
L 29.109375 43.015625 
Q 36.375 43.015625 40.234375 45.921875 
Q 44.09375 48.828125 44.09375 54.296875 
Q 44.09375 59.90625 40.109375 62.90625 
Q 36.140625 65.921875 28.71875 65.921875 
Q 24.65625 65.921875 20.015625 65.03125 
Q 15.375 64.15625 9.8125 62.3125 
L 9.8125 71.09375 
Q 15.4375 72.65625 20.34375 73.4375 
Q 25.25 74.21875 29.59375 74.21875 
Q 40.828125 74.21875 47.359375 69.109375 
Q 53.90625 64.015625 53.90625 55.328125 
Q 53.90625 49.265625 50.4375 45.09375 
Q 46.96875 40.921875 40.578125 39.3125 
z
" id="DejaVuSans-33"/>
      </defs>
      <g transform="translate(76.551532 324.461937)scale(0.1 -0.1)">
       <use xlink:href="#DejaVuSans-32"/>
       <use x="63.623047" xlink:href="#DejaVuSans-30"/>
       <use x="127.246094" xlink:href="#DejaVuSans-30"/>
       <use x="190.869141" xlink:href="#DejaVuSans-33"/>
      </g>
     </g>
    </g>
    <g id="xtick_2">
     <g id="line2d_3">
      <path clip-path="url(#p3855585d2b)" d="M 135.723261 309.8635 
L 135.723261 23.36505 
" style="fill:none;stroke:#b0b0b0;stroke-linecap:square;stroke-width:0.8;"/>
     </g>
     <g id="line2d_4">
      <g>
       <use style="stroke:#000000;stroke-width:0.8;" x="135.723261" xlink:href="#mb551c425b8" y="309.8635"/>
      </g>
     </g>
     <g id="text_2">
      <!-- 2005 -->
      <defs>
       <path d="M 10.796875 72.90625 
L 49.515625 72.90625 
L 49.515625 64.59375 
L 19.828125 64.59375 
L 19.828125 46.734375 
Q 21.96875 47.46875 24.109375 47.828125 
Q 26.265625 48.1875 28.421875 48.1875 
Q 40.625 48.1875 47.75 41.5 
Q 54.890625 34.8125 54.890625 23.390625 
Q 54.890625 11.625 47.5625 5.09375 
Q 40.234375 -1.421875 26.90625 -1.421875 
Q 22.3125 -1.421875 17.546875 -0.640625 
Q 12.796875 0.140625 7.71875 1.703125 
L 7.71875 11.625 
Q 12.109375 9.234375 16.796875 8.0625 
Q 21.484375 6.890625 26.703125 6.890625 
Q 35.15625 6.890625 40.078125 11.328125 
Q 45.015625 15.765625 45.015625 23.390625 
Q 45.015625 31 40.078125 35.4375 
Q 35.15625 39.890625 26.703125 39.890625 
Q 22.75 39.890625 18.8125 39.015625 
Q 14.890625 38.140625 10.796875 36.28125 
z
" id="DejaVuSans-35"/>
      </defs>
      <g transform="translate(122.998261 324.461937)scale(0.1 -0.1)">
       <use xlink:href="#DejaVuSans-32"/>
       <use x="63.623047" xlink:href="#DejaVuSans-30"/>
       <use x="127.246094" xlink:href="#DejaVuSans-30"/>
       <use x="190.869141" xlink:href="#DejaVuSans-35"/>
      </g>
     </g>
    </g>
    <g id="xtick_3">
     <g id="line2d_5">
      <path clip-path="url(#p3855585d2b)" d="M 182.106452 309.8635 
L 182.106452 23.36505 
" style="fill:none;stroke:#b0b0b0;stroke-linecap:square;stroke-width:0.8;"/>
     </g>
     <g id="line2d_6">
      <g>
       <use style="stroke:#000000;stroke-width:0.8;" x="182.106452" xlink:href="#mb551c425b8" y="309.8635"/>
      </g>
     </g>
     <g id="text_3">
      <!-- 2007 -->
      <defs>
       <path d="M 8.203125 72.90625 
L 55.078125 72.90625 
L 55.078125 68.703125 
L 28.609375 0 
L 18.3125 0 
L 43.21875 64.59375 
L 8.203125 64.59375 
z
" id="DejaVuSans-37"/>
      </defs>
      <g transform="translate(169.381452 324.461937)scale(0.1 -0.1)">
       <use xlink:href="#DejaVuSans-32"/>
       <use x="63.623047" xlink:href="#DejaVuSans-30"/>
       <use x="127.246094" xlink:href="#DejaVuSans-30"/>
       <use x="190.869141" xlink:href="#DejaVuSans-37"/>
      </g>
     </g>
    </g>
    <g id="xtick_4">
     <g id="line2d_7">
      <path clip-path="url(#p3855585d2b)" d="M 228.553181 309.8635 
L 228.553181 23.36505 
" style="fill:none;stroke:#b0b0b0;stroke-linecap:square;stroke-width:0.8;"/>
     </g>
     <g id="line2d_8">
      <g>
       <use style="stroke:#000000;stroke-width:0.8;" x="228.553181" xlink:href="#mb551c425b8" y="309.8635"/>
      </g>
     </g>
     <g id="text_4">
      <!-- 2009 -->
      <defs>
       <path d="M 10.984375 1.515625 
L 10.984375 10.5 
Q 14.703125 8.734375 18.5 7.8125 
Q 22.3125 6.890625 25.984375 6.890625 
Q 35.75 6.890625 40.890625 13.453125 
Q 46.046875 20.015625 46.78125 33.40625 
Q 43.953125 29.203125 39.59375 26.953125 
Q 35.25 24.703125 29.984375 24.703125 
Q 19.046875 24.703125 12.671875 31.3125 
Q 6.296875 37.9375 6.296875 49.421875 
Q 6.296875 60.640625 12.9375 67.421875 
Q 19.578125 74.21875 30.609375 74.21875 
Q 43.265625 74.21875 49.921875 64.515625 
Q 56.59375 54.828125 56.59375 36.375 
Q 56.59375 19.140625 48.40625 8.859375 
Q 40.234375 -1.421875 26.421875 -1.421875 
Q 22.703125 -1.421875 18.890625 -0.6875 
Q 15.09375 0.046875 10.984375 1.515625 
z
M 30.609375 32.421875 
Q 37.25 32.421875 41.125 36.953125 
Q 45.015625 41.5 45.015625 49.421875 
Q 45.015625 57.28125 41.125 61.84375 
Q 37.25 66.40625 30.609375 66.40625 
Q 23.96875 66.40625 20.09375 61.84375 
Q 16.21875 57.28125 16.21875 49.421875 
Q 16.21875 41.5 20.09375 36.953125 
Q 23.96875 32.421875 30.609375 32.421875 
z
" id="DejaVuSans-39"/>
      </defs>
      <g transform="translate(215.828181 324.461937)scale(0.1 -0.1)">
       <use xlink:href="#DejaVuSans-32"/>
       <use x="63.623047" xlink:href="#DejaVuSans-30"/>
       <use x="127.246094" xlink:href="#DejaVuSans-30"/>
       <use x="190.869141" xlink:href="#DejaVuSans-39"/>
      </g>
     </g>
    </g>
    <g id="xtick_5">
     <g id="line2d_9">
      <path clip-path="url(#p3855585d2b)" d="M 274.936371 309.8635 
L 274.936371 23.36505 
" style="fill:none;stroke:#b0b0b0;stroke-linecap:square;stroke-width:0.8;"/>
     </g>
     <g id="line2d_10">
      <g>
       <use style="stroke:#000000;stroke-width:0.8;" x="274.936371" xlink:href="#mb551c425b8" y="309.8635"/>
      </g>
     </g>
     <g id="text_5">
      <!-- 2011 -->
      <defs>
       <path d="M 12.40625 8.296875 
L 28.515625 8.296875 
L 28.515625 63.921875 
L 10.984375 60.40625 
L 10.984375 69.390625 
L 28.421875 72.90625 
L 38.28125 72.90625 
L 38.28125 8.296875 
L 54.390625 8.296875 
L 54.390625 0 
L 12.40625 0 
z
" id="DejaVuSans-31"/>
      </defs>
      <g transform="translate(262.211371 324.461937)scale(0.1 -0.1)">
       <use xlink:href="#DejaVuSans-32"/>
       <use x="63.623047" xlink:href="#DejaVuSans-30"/>
       <use x="127.246094" xlink:href="#DejaVuSans-31"/>
       <use x="190.869141" xlink:href="#DejaVuSans-31"/>
      </g>
     </g>
    </g>
    <g id="xtick_6">
     <g id="line2d_11">
      <path clip-path="url(#p3855585d2b)" d="M 321.383101 309.8635 
L 321.383101 23.36505 
" style="fill:none;stroke:#b0b0b0;stroke-linecap:square;stroke-width:0.8;"/>
     </g>
     <g id="line2d_12">
      <g>
       <use style="stroke:#000000;stroke-width:0.8;" x="321.383101" xlink:href="#mb551c425b8" y="309.8635"/>
      </g>
     </g>
     <g id="text_6">
      <!-- 2013 -->
      <g transform="translate(308.658101 324.461937)scale(0.1 -0.1)">
       <use xlink:href="#DejaVuSans-32"/>
       <use x="63.623047" xlink:href="#DejaVuSans-30"/>
       <use x="127.246094" xlink:href="#DejaVuSans-31"/>
       <use x="190.869141" xlink:href="#DejaVuSans-33"/>
      </g>
     </g>
    </g>
    <g id="xtick_7">
     <g id="line2d_13">
      <path clip-path="url(#p3855585d2b)" d="M 367.766291 309.8635 
L 367.766291 23.36505 
" style="fill:none;stroke:#b0b0b0;stroke-linecap:square;stroke-width:0.8;"/>
     </g>
     <g id="line2d_14">
      <g>
       <use style="stroke:#000000;stroke-width:0.8;" x="367.766291" xlink:href="#mb551c425b8" y="309.8635"/>
      </g>
     </g>
     <g id="text_7">
      <!-- 2015 -->
      <g transform="translate(355.041291 324.461937)scale(0.1 -0.1)">
       <use xlink:href="#DejaVuSans-32"/>
       <use x="63.623047" xlink:href="#DejaVuSans-30"/>
       <use x="127.246094" xlink:href="#DejaVuSans-31"/>
       <use x="190.869141" xlink:href="#DejaVuSans-35"/>
      </g>
     </g>
    </g>
    <g id="xtick_8">
     <g id="line2d_15">
      <path clip-path="url(#p3855585d2b)" d="M 414.21302 309.8635 
L 414.21302 23.36505 
" style="fill:none;stroke:#b0b0b0;stroke-linecap:square;stroke-width:0.8;"/>
     </g>
     <g id="line2d_16">
      <g>
       <use style="stroke:#000000;stroke-width:0.8;" x="414.21302" xlink:href="#mb551c425b8" y="309.8635"/>
      </g>
     </g>
     <g id="text_8">
      <!-- 2017 -->
      <g transform="translate(401.48802 324.461937)scale(0.1 -0.1)">
       <use xlink:href="#DejaVuSans-32"/>
       <use x="63.623047" xlink:href="#DejaVuSans-30"/>
       <use x="127.246094" xlink:href="#DejaVuSans-31"/>
       <use x="190.869141" xlink:href="#DejaVuSans-37"/>
      </g>
     </g>
    </g>
    <g id="text_9">
     <!-- Date -->
     <defs>
      <path d="M 19.671875 64.796875 
L 19.671875 8.109375 
L 31.59375 8.109375 
Q 46.6875 8.109375 53.6875 14.9375 
Q 60.6875 21.78125 60.6875 36.53125 
Q 60.6875 51.171875 53.6875 57.984375 
Q 46.6875 64.796875 31.59375 64.796875 
z
M 9.8125 72.90625 
L 30.078125 72.90625 
Q 51.265625 72.90625 61.171875 64.09375 
Q 71.09375 55.28125 71.09375 36.53125 
Q 71.09375 17.671875 61.125 8.828125 
Q 51.171875 0 30.078125 0 
L 9.8125 0 
z
" id="DejaVuSans-44"/>
      <path d="M 34.28125 27.484375 
Q 23.390625 27.484375 19.1875 25 
Q 14.984375 22.515625 14.984375 16.5 
Q 14.984375 11.71875 18.140625 8.90625 
Q 21.296875 6.109375 26.703125 6.109375 
Q 34.1875 6.109375 38.703125 11.40625 
Q 43.21875 16.703125 43.21875 25.484375 
L 43.21875 27.484375 
z
M 52.203125 31.203125 
L 52.203125 0 
L 43.21875 0 
L 43.21875 8.296875 
Q 40.140625 3.328125 35.546875 0.953125 
Q 30.953125 -1.421875 24.3125 -1.421875 
Q 15.921875 -1.421875 10.953125 3.296875 
Q 6 8.015625 6 15.921875 
Q 6 25.140625 12.171875 29.828125 
Q 18.359375 34.515625 30.609375 34.515625 
L 43.21875 34.515625 
L 43.21875 35.40625 
Q 43.21875 41.609375 39.140625 45 
Q 35.0625 48.390625 27.6875 48.390625 
Q 23 48.390625 18.546875 47.265625 
Q 14.109375 46.140625 10.015625 43.890625 
L 10.015625 52.203125 
Q 14.9375 54.109375 19.578125 55.046875 
Q 24.21875 56 28.609375 56 
Q 40.484375 56 46.34375 49.84375 
Q 52.203125 43.703125 52.203125 31.203125 
z
" id="DejaVuSans-61"/>
      <path d="M 18.3125 70.21875 
L 18.3125 54.6875 
L 36.8125 54.6875 
L 36.8125 47.703125 
L 18.3125 47.703125 
L 18.3125 18.015625 
Q 18.3125 11.328125 20.140625 9.421875 
Q 21.96875 7.515625 27.59375 7.515625 
L 36.8125 7.515625 
L 36.8125 0 
L 27.59375 0 
Q 17.1875 0 13.234375 3.875 
Q 9.28125 7.765625 9.28125 18.015625 
L 9.28125 47.703125 
L 2.6875 47.703125 
L 2.6875 54.6875 
L 9.28125 54.6875 
L 9.28125 70.21875 
z
" id="DejaVuSans-74"/>
      <path d="M 56.203125 29.59375 
L 56.203125 25.203125 
L 14.890625 25.203125 
Q 15.484375 15.921875 20.484375 11.0625 
Q 25.484375 6.203125 34.421875 6.203125 
Q 39.59375 6.203125 44.453125 7.46875 
Q 49.3125 8.734375 54.109375 11.28125 
L 54.109375 2.78125 
Q 49.265625 0.734375 44.1875 -0.34375 
Q 39.109375 -1.421875 33.890625 -1.421875 
Q 20.796875 -1.421875 13.15625 6.1875 
Q 5.515625 13.8125 5.515625 26.8125 
Q 5.515625 40.234375 12.765625 48.109375 
Q 20.015625 56 32.328125 56 
Q 43.359375 56 49.78125 48.890625 
Q 56.203125 41.796875 56.203125 29.59375 
z
M 47.21875 32.234375 
Q 47.125 39.59375 43.09375 43.984375 
Q 39.0625 48.390625 32.421875 48.390625 
Q 24.90625 48.390625 20.390625 44.140625 
Q 15.875 39.890625 15.1875 32.171875 
z
" id="DejaVuSans-65"/>
     </defs>
     <g transform="translate(231.978745 338.140062)scale(0.1 -0.1)">
      <use xlink:href="#DejaVuSans-44"/>
      <use x="77.001953" xlink:href="#DejaVuSans-61"/>
      <use x="138.28125" xlink:href="#DejaVuSans-74"/>
      <use x="177.490234" xlink:href="#DejaVuSans-65"/>
     </g>
    </g>
   </g>
   <g id="matplotlib.axis_2">
    <g id="ytick_1">
     <g id="line2d_17">
      <path clip-path="url(#p3855585d2b)" d="M 44.7995 296.840843 
L 443.059553 296.840843 
" style="fill:none;stroke:#b0b0b0;stroke-linecap:square;stroke-width:0.8;"/>
     </g>
     <g id="line2d_18">
      <defs>
       <path d="M 0 0 
L -3.5 0 
" id="m2ef44d24d3" style="stroke:#000000;stroke-width:0.8;"/>
      </defs>
      <g>
       <use style="stroke:#000000;stroke-width:0.8;" x="44.7995" xlink:href="#m2ef44d24d3" y="296.840843"/>
      </g>
     </g>
     <g id="text_10">
      <!-- 0.00 -->
      <defs>
       <path d="M 10.6875 12.40625 
L 21 12.40625 
L 21 0 
L 10.6875 0 
z
" id="DejaVuSans-2e"/>
      </defs>
      <g transform="translate(15.533875 300.640062)scale(0.1 -0.1)">
       <use xlink:href="#DejaVuSans-30"/>
       <use x="63.623047" xlink:href="#DejaVuSans-2e"/>
       <use x="95.410156" xlink:href="#DejaVuSans-30"/>
       <use x="159.033203" xlink:href="#DejaVuSans-30"/>
      </g>
     </g>
    </g>
    <g id="ytick_2">
     <g id="line2d_19">
      <path clip-path="url(#p3855585d2b)" d="M 44.7995 263.185652 
L 443.059553 263.185652 
" style="fill:none;stroke:#b0b0b0;stroke-linecap:square;stroke-width:0.8;"/>
     </g>
     <g id="line2d_20">
      <g>
       <use style="stroke:#000000;stroke-width:0.8;" x="44.7995" xlink:href="#m2ef44d24d3" y="263.185652"/>
      </g>
     </g>
     <g id="text_11">
      <!-- 0.25 -->
      <g transform="translate(15.533875 266.984871)scale(0.1 -0.1)">
       <use xlink:href="#DejaVuSans-30"/>
       <use x="63.623047" xlink:href="#DejaVuSans-2e"/>
       <use x="95.410156" xlink:href="#DejaVuSans-32"/>
       <use x="159.033203" xlink:href="#DejaVuSans-35"/>
      </g>
     </g>
    </g>
    <g id="ytick_3">
     <g id="line2d_21">
      <path clip-path="url(#p3855585d2b)" d="M 44.7995 229.530461 
L 443.059553 229.530461 
" style="fill:none;stroke:#b0b0b0;stroke-linecap:square;stroke-width:0.8;"/>
     </g>
     <g id="line2d_22">
      <g>
       <use style="stroke:#000000;stroke-width:0.8;" x="44.7995" xlink:href="#m2ef44d24d3" y="229.530461"/>
      </g>
     </g>
     <g id="text_12">
      <!-- 0.50 -->
      <g transform="translate(15.533875 233.32968)scale(0.1 -0.1)">
       <use xlink:href="#DejaVuSans-30"/>
       <use x="63.623047" xlink:href="#DejaVuSans-2e"/>
       <use x="95.410156" xlink:href="#DejaVuSans-35"/>
       <use x="159.033203" xlink:href="#DejaVuSans-30"/>
      </g>
     </g>
    </g>
    <g id="ytick_4">
     <g id="line2d_23">
      <path clip-path="url(#p3855585d2b)" d="M 44.7995 195.87527 
L 443.059553 195.87527 
" style="fill:none;stroke:#b0b0b0;stroke-linecap:square;stroke-width:0.8;"/>
     </g>
     <g id="line2d_24">
      <g>
       <use style="stroke:#000000;stroke-width:0.8;" x="44.7995" xlink:href="#m2ef44d24d3" y="195.87527"/>
      </g>
     </g>
     <g id="text_13">
      <!-- 0.75 -->
      <g transform="translate(15.533875 199.674489)scale(0.1 -0.1)">
       <use xlink:href="#DejaVuSans-30"/>
       <use x="63.623047" xlink:href="#DejaVuSans-2e"/>
       <use x="95.410156" xlink:href="#DejaVuSans-37"/>
       <use x="159.033203" xlink:href="#DejaVuSans-35"/>
      </g>
     </g>
    </g>
    <g id="ytick_5">
     <g id="line2d_25">
      <path clip-path="url(#p3855585d2b)" d="M 44.7995 162.220079 
L 443.059553 162.220079 
" style="fill:none;stroke:#b0b0b0;stroke-linecap:square;stroke-width:0.8;"/>
     </g>
     <g id="line2d_26">
      <g>
       <use style="stroke:#000000;stroke-width:0.8;" x="44.7995" xlink:href="#m2ef44d24d3" y="162.220079"/>
      </g>
     </g>
     <g id="text_14">
      <!-- 1.00 -->
      <g transform="translate(15.533875 166.019298)scale(0.1 -0.1)">
       <use xlink:href="#DejaVuSans-31"/>
       <use x="63.623047" xlink:href="#DejaVuSans-2e"/>
       <use x="95.410156" xlink:href="#DejaVuSans-30"/>
       <use x="159.033203" xlink:href="#DejaVuSans-30"/>
      </g>
     </g>
    </g>
    <g id="ytick_6">
     <g id="line2d_27">
      <path clip-path="url(#p3855585d2b)" d="M 44.7995 128.564888 
L 443.059553 128.564888 
" style="fill:none;stroke:#b0b0b0;stroke-linecap:square;stroke-width:0.8;"/>
     </g>
     <g id="line2d_28">
      <g>
       <use style="stroke:#000000;stroke-width:0.8;" x="44.7995" xlink:href="#m2ef44d24d3" y="128.564888"/>
      </g>
     </g>
     <g id="text_15">
      <!-- 1.25 -->
      <g transform="translate(15.533875 132.364107)scale(0.1 -0.1)">
       <use xlink:href="#DejaVuSans-31"/>
       <use x="63.623047" xlink:href="#DejaVuSans-2e"/>
       <use x="95.410156" xlink:href="#DejaVuSans-32"/>
       <use x="159.033203" xlink:href="#DejaVuSans-35"/>
      </g>
     </g>
    </g>
    <g id="ytick_7">
     <g id="line2d_29">
      <path clip-path="url(#p3855585d2b)" d="M 44.7995 94.909697 
L 443.059553 94.909697 
" style="fill:none;stroke:#b0b0b0;stroke-linecap:square;stroke-width:0.8;"/>
     </g>
     <g id="line2d_30">
      <g>
       <use style="stroke:#000000;stroke-width:0.8;" x="44.7995" xlink:href="#m2ef44d24d3" y="94.909697"/>
      </g>
     </g>
     <g id="text_16">
      <!-- 1.50 -->
      <g transform="translate(15.533875 98.708915)scale(0.1 -0.1)">
       <use xlink:href="#DejaVuSans-31"/>
       <use x="63.623047" xlink:href="#DejaVuSans-2e"/>
       <use x="95.410156" xlink:href="#DejaVuSans-35"/>
       <use x="159.033203" xlink:href="#DejaVuSans-30"/>
      </g>
     </g>
    </g>
    <g id="ytick_8">
     <g id="line2d_31">
      <path clip-path="url(#p3855585d2b)" d="M 44.7995 61.254506 
L 443.059553 61.254506 
" style="fill:none;stroke:#b0b0b0;stroke-linecap:square;stroke-width:0.8;"/>
     </g>
     <g id="line2d_32">
      <g>
       <use style="stroke:#000000;stroke-width:0.8;" x="44.7995" xlink:href="#m2ef44d24d3" y="61.254506"/>
      </g>
     </g>
     <g id="text_17">
      <!-- 1.75 -->
      <g transform="translate(15.533875 65.053724)scale(0.1 -0.1)">
       <use xlink:href="#DejaVuSans-31"/>
       <use x="63.623047" xlink:href="#DejaVuSans-2e"/>
       <use x="95.410156" xlink:href="#DejaVuSans-37"/>
       <use x="159.033203" xlink:href="#DejaVuSans-35"/>
      </g>
     </g>
    </g>
    <g id="ytick_9">
     <g id="line2d_33">
      <path clip-path="url(#p3855585d2b)" d="M 44.7995 27.599315 
L 443.059553 27.599315 
" style="fill:none;stroke:#b0b0b0;stroke-linecap:square;stroke-width:0.8;"/>
     </g>
     <g id="line2d_34">
      <g>
       <use style="stroke:#000000;stroke-width:0.8;" x="44.7995" xlink:href="#m2ef44d24d3" y="27.599315"/>
      </g>
     </g>
     <g id="text_18">
      <!-- 2.00 -->
      <g transform="translate(15.533875 31.398533)scale(0.1 -0.1)">
       <use xlink:href="#DejaVuSans-32"/>
       <use x="63.623047" xlink:href="#DejaVuSans-2e"/>
       <use x="95.410156" xlink:href="#DejaVuSans-30"/>
       <use x="159.033203" xlink:href="#DejaVuSans-30"/>
      </g>
     </g>
    </g>
    <g id="text_19">
     <!-- Emissions / mean emissions -->
     <defs>
      <path d="M 9.8125 72.90625 
L 55.90625 72.90625 
L 55.90625 64.59375 
L 19.671875 64.59375 
L 19.671875 43.015625 
L 54.390625 43.015625 
L 54.390625 34.71875 
L 19.671875 34.71875 
L 19.671875 8.296875 
L 56.78125 8.296875 
L 56.78125 0 
L 9.8125 0 
z
" id="DejaVuSans-45"/>
      <path d="M 52 44.1875 
Q 55.375 50.25 60.0625 53.125 
Q 64.75 56 71.09375 56 
Q 79.640625 56 84.28125 50.015625 
Q 88.921875 44.046875 88.921875 33.015625 
L 88.921875 0 
L 79.890625 0 
L 79.890625 32.71875 
Q 79.890625 40.578125 77.09375 44.375 
Q 74.3125 48.1875 68.609375 48.1875 
Q 61.625 48.1875 57.5625 43.546875 
Q 53.515625 38.921875 53.515625 30.90625 
L 53.515625 0 
L 44.484375 0 
L 44.484375 32.71875 
Q 44.484375 40.625 41.703125 44.40625 
Q 38.921875 48.1875 33.109375 48.1875 
Q 26.21875 48.1875 22.15625 43.53125 
Q 18.109375 38.875 18.109375 30.90625 
L 18.109375 0 
L 9.078125 0 
L 9.078125 54.6875 
L 18.109375 54.6875 
L 18.109375 46.1875 
Q 21.1875 51.21875 25.484375 53.609375 
Q 29.78125 56 35.6875 56 
Q 41.65625 56 45.828125 52.96875 
Q 50 49.953125 52 44.1875 
z
" id="DejaVuSans-6d"/>
      <path d="M 9.421875 54.6875 
L 18.40625 54.6875 
L 18.40625 0 
L 9.421875 0 
z
M 9.421875 75.984375 
L 18.40625 75.984375 
L 18.40625 64.59375 
L 9.421875 64.59375 
z
" id="DejaVuSans-69"/>
      <path d="M 44.28125 53.078125 
L 44.28125 44.578125 
Q 40.484375 46.53125 36.375 47.5 
Q 32.28125 48.484375 27.875 48.484375 
Q 21.1875 48.484375 17.84375 46.4375 
Q 14.5 44.390625 14.5 40.28125 
Q 14.5 37.15625 16.890625 35.375 
Q 19.28125 33.59375 26.515625 31.984375 
L 29.59375 31.296875 
Q 39.15625 29.25 43.1875 25.515625 
Q 47.21875 21.78125 47.21875 15.09375 
Q 47.21875 7.46875 41.1875 3.015625 
Q 35.15625 -1.421875 24.609375 -1.421875 
Q 20.21875 -1.421875 15.453125 -0.5625 
Q 10.6875 0.296875 5.421875 2 
L 5.421875 11.28125 
Q 10.40625 8.6875 15.234375 7.390625 
Q 20.0625 6.109375 24.8125 6.109375 
Q 31.15625 6.109375 34.5625 8.28125 
Q 37.984375 10.453125 37.984375 14.40625 
Q 37.984375 18.0625 35.515625 20.015625 
Q 33.0625 21.96875 24.703125 23.78125 
L 21.578125 24.515625 
Q 13.234375 26.265625 9.515625 29.90625 
Q 5.8125 33.546875 5.8125 39.890625 
Q 5.8125 47.609375 11.28125 51.796875 
Q 16.75 56 26.8125 56 
Q 31.78125 56 36.171875 55.265625 
Q 40.578125 54.546875 44.28125 53.078125 
z
" id="DejaVuSans-73"/>
      <path d="M 30.609375 48.390625 
Q 23.390625 48.390625 19.1875 42.75 
Q 14.984375 37.109375 14.984375 27.296875 
Q 14.984375 17.484375 19.15625 11.84375 
Q 23.34375 6.203125 30.609375 6.203125 
Q 37.796875 6.203125 41.984375 11.859375 
Q 46.1875 17.53125 46.1875 27.296875 
Q 46.1875 37.015625 41.984375 42.703125 
Q 37.796875 48.390625 30.609375 48.390625 
z
M 30.609375 56 
Q 42.328125 56 49.015625 48.375 
Q 55.71875 40.765625 55.71875 27.296875 
Q 55.71875 13.875 49.015625 6.21875 
Q 42.328125 -1.421875 30.609375 -1.421875 
Q 18.84375 -1.421875 12.171875 6.21875 
Q 5.515625 13.875 5.515625 27.296875 
Q 5.515625 40.765625 12.171875 48.375 
Q 18.84375 56 30.609375 56 
z
" id="DejaVuSans-6f"/>
      <path d="M 54.890625 33.015625 
L 54.890625 0 
L 45.90625 0 
L 45.90625 32.71875 
Q 45.90625 40.484375 42.875 44.328125 
Q 39.84375 48.1875 33.796875 48.1875 
Q 26.515625 48.1875 22.3125 43.546875 
Q 18.109375 38.921875 18.109375 30.90625 
L 18.109375 0 
L 9.078125 0 
L 9.078125 54.6875 
L 18.109375 54.6875 
L 18.109375 46.1875 
Q 21.34375 51.125 25.703125 53.5625 
Q 30.078125 56 35.796875 56 
Q 45.21875 56 50.046875 50.171875 
Q 54.890625 44.34375 54.890625 33.015625 
z
" id="DejaVuSans-6e"/>
      <path id="DejaVuSans-20"/>
      <path d="M 25.390625 72.90625 
L 33.6875 72.90625 
L 8.296875 -9.28125 
L 0 -9.28125 
z
" id="DejaVuSans-2f"/>
     </defs>
     <g transform="translate(9.454188 236.862713)rotate(-90)scale(0.1 -0.1)">
      <use xlink:href="#DejaVuSans-45"/>
      <use x="63.183594" xlink:href="#DejaVuSans-6d"/>
      <use x="160.595703" xlink:href="#DejaVuSans-69"/>
      <use x="188.378906" xlink:href="#DejaVuSans-73"/>
      <use x="240.478516" xlink:href="#DejaVuSans-73"/>
      <use x="292.578125" xlink:href="#DejaVuSans-69"/>
      <use x="320.361328" xlink:href="#DejaVuSans-6f"/>
      <use x="381.542969" xlink:href="#DejaVuSans-6e"/>
      <use x="444.921875" xlink:href="#DejaVuSans-73"/>
      <use x="497.021484" xlink:href="#DejaVuSans-20"/>
      <use x="528.808594" xlink:href="#DejaVuSans-2f"/>
      <use x="562.5" xlink:href="#DejaVuSans-20"/>
      <use x="594.287109" xlink:href="#DejaVuSans-6d"/>
      <use x="691.699219" xlink:href="#DejaVuSans-65"/>
      <use x="753.222656" xlink:href="#DejaVuSans-61"/>
      <use x="814.501953" xlink:href="#DejaVuSans-6e"/>
      <use x="877.880859" xlink:href="#DejaVuSans-20"/>
      <use x="909.667969" xlink:href="#DejaVuSans-65"/>
      <use x="971.191406" xlink:href="#DejaVuSans-6d"/>
      <use x="1068.603516" xlink:href="#DejaVuSans-69"/>
      <use x="1096.386719" xlink:href="#DejaVuSans-73"/>
      <use x="1148.486328" xlink:href="#DejaVuSans-73"/>
      <use x="1200.585938" xlink:href="#DejaVuSans-69"/>
      <use x="1228.369141" xlink:href="#DejaVuSans-6f"/>
      <use x="1289.550781" xlink:href="#DejaVuSans-6e"/>
      <use x="1352.929688" xlink:href="#DejaVuSans-73"/>
     </g>
    </g>
   </g>
   <g id="line2d_35">
    <path clip-path="url(#p3855585d2b)" d="M 44.7995 130.882106 
L 46.578581 139.053942 
L 48.548278 90.294496 
L 50.454437 147.061746 
L 52.424134 52.411671 
L 54.330293 91.373194 
L 56.29999 186.321386 
L 58.269687 139.962085 
L 60.175845 184.72925 
L 62.145542 78.961286 
L 64.051701 122.048986 
L 66.021398 142.545015 
L 67.991095 169.48475 
L 69.770177 223.708608 
L 71.739874 182.431104 
L 73.646032 283.289069 
L 75.615729 190.853814 
L 77.521888 207.266146 
L 79.491585 139.991673 
L 81.461282 201.434544 
L 83.367441 184.94072 
L 85.337138 206.301395 
L 87.243296 175.822209 
L 89.212993 114.071604 
L 91.182691 107.756823 
L 92.961772 130.182211 
L 96.837627 238.116406 
L 98.807325 126.607176 
L 100.713483 143.952502 
L 102.68318 104.186755 
L 104.652877 197.193293 
L 106.559036 168.455239 
L 108.528733 210.190813 
L 110.434892 221.480263 
L 112.404589 133.721889 
L 114.374286 152.13706 
L 116.216906 99.515093 
L 118.186603 84.494357 
L 120.092761 203.180763 
L 122.062459 170.440236 
L 123.968617 182.497385 
L 125.938314 130.815369 
L 127.908011 136.943053 
L 129.81417 165.469025 
L 131.783867 62.037513 
L 133.690025 121.468809 
L 135.659723 135.241824 
L 137.62942 117.430885 
L 139.408501 137.801095 
L 141.378198 170.29803 
L 143.284357 178.838333 
L 145.254054 207.195256 
L 147.160212 154.302282 
L 149.129909 145.85331 
L 151.099607 126.834508 
L 153.005765 242.370814 
L 154.975462 296.840843 
L 156.881621 228.898811 
L 158.851318 169.027304 
L 160.821015 68.996366 
L 162.600096 116.998403 
L 164.569793 133.375098 
L 166.475952 91.355867 
L 168.445649 163.29441 
L 170.351808 108.661929 
L 172.321505 96.122355 
L 174.291202 97.532464 
L 176.19736 222.334904 
L 178.167057 240.073343 
L 180.073216 148.846522 
L 182.042913 91.383069 
L 184.01261 103.69241 
L 185.791692 100.21315 
L 187.761389 74.323908 
L 189.667547 258.123545 
L 191.637244 199.751726 
L 193.543403 116.433062 
L 195.5131 173.942861 
L 197.482797 124.63428 
L 199.388956 150.239806 
L 201.358653 143.763009 
L 203.264811 92.961093 
L 205.234508 83.176569 
L 207.204206 121.556459 
L 209.046825 97.965844 
L 211.016523 36.387707 
L 212.922681 82.284306 
L 214.892378 221.602736 
L 216.798537 155.754643 
L 218.768234 111.286987 
L 220.737931 159.772029 
L 222.64409 216.073024 
L 224.613787 130.042508 
L 226.519945 127.193382 
L 228.489642 151.799017 
L 230.459339 189.274984 
L 232.238421 160.844817 
L 234.208118 160.796678 
L 236.114276 183.610418 
L 238.083974 186.669639 
L 239.990132 196.326308 
L 241.959829 124.513737 
L 243.929526 135.857478 
L 245.835685 178.750307 
L 247.805382 143.753567 
L 249.71154 118.16291 
L 251.681238 144.746706 
L 255.430016 176.242084 
L 257.399713 147.929383 
L 259.305872 173.502429 
L 261.275569 185.376465 
L 263.181727 172.221875 
L 265.151424 187.5484 
L 267.121122 175.480002 
L 269.02728 167.593113 
L 270.996977 188.637235 
L 272.903136 123.612887 
L 274.872833 147.728494 
L 276.84253 137.255255 
L 278.621611 132.75638 
L 280.591308 163.145462 
L 282.497467 273.276551 
L 284.467164 251.200169 
L 286.373323 202.869957 
L 288.34302 135.431705 
L 290.312717 180.154584 
L 292.218875 165.64267 
L 294.188572 184.664221 
L 296.094731 165.926836 
L 298.064428 154.866754 
L 300.034125 153.222522 
L 301.876745 147.770841 
L 303.846442 211.754117 
L 305.752601 256.987989 
L 307.722298 296.840843 
L 309.628456 213.843016 
L 311.598154 203.63397 
L 313.567851 227.79089 
L 315.474009 246.521468 
L 317.443706 233.21727 
L 319.349865 157.087012 
L 321.319562 221.868647 
L 323.289259 178.042304 
L 325.06834 150.199528 
L 327.038038 153.956029 
L 328.944196 200.46671 
L 330.913893 243.306675 
L 332.820052 186.33735 
L 334.789749 158.032341 
L 336.759446 184.442347 
L 338.665605 165.043449 
L 340.635302 201.356105 
L 342.54146 159.627109 
L 344.511157 166.590711 
L 346.480854 139.702235 
L 348.259936 127.730212 
L 350.229633 180.590312 
L 352.135791 246.074372 
L 354.105488 154.984376 
L 356.011647 177.053982 
L 357.981344 103.191908 
L 359.951041 120.680281 
L 361.8572 84.936857 
L 363.826897 229.089326 
L 365.733055 131.58249 
L 367.702753 138.703115 
L 369.67245 160.058316 
L 373.421228 141.113296 
L 375.327387 191.709506 
L 377.297084 277.853228 
L 379.203242 139.885667 
L 381.172939 120.403611 
L 383.142637 97.595615 
L 385.048795 274.663815 
L 387.018492 296.840843 
L 388.924651 291.533574 
L 390.894348 286.381057 
L 392.864045 288.881522 
L 394.706665 292.082032 
L 396.676362 293.866882 
L 398.582521 294.100221 
L 400.552218 295.394543 
L 402.458376 290.610677 
L 404.428073 291.649587 
L 406.39777 293.50123 
L 408.303929 295.977663 
L 410.273626 292.845993 
L 412.179785 290.353612 
L 414.149482 285.971743 
L 416.119179 289.883553 
L 417.89826 291.508158 
L 421.774116 294.567353 
L 423.743813 294.308573 
L 425.649971 293.619787 
L 427.619669 290.831411 
L 429.589366 291.162735 
L 431.495524 292.945374 
L 433.465221 294.567999 
L 435.37138 296.840843 
L 437.341077 296.583079 
L 439.310774 294.639234 
L 441.089855 293.455362 
L 443.059553 294.244081 
L 443.059553 294.244081 
" style="fill:none;stroke:#1f77b4;stroke-linecap:square;stroke-width:1.5;"/>
   </g>
   <g id="line2d_36">
    <path clip-path="url(#p3855585d2b)" d="M 44.7995 151.447903 
L 46.578581 142.117766 
L 48.548278 133.26235 
L 50.454437 192.920335 
L 52.424134 142.193173 
L 54.330293 153.917873 
L 56.29999 162.82837 
L 58.269687 153.951417 
L 60.175845 198.893655 
L 62.145542 132.192844 
L 64.051701 148.962778 
L 66.021398 137.235727 
L 67.991095 138.797116 
L 69.770177 175.211567 
L 71.739874 145.444295 
L 73.646032 276.229386 
L 75.615729 202.189647 
L 77.521888 166.479945 
L 79.491585 162.401405 
L 81.461282 172.496693 
L 83.367441 174.16255 
L 85.337138 205.573272 
L 87.243296 139.616647 
L 89.212993 137.514944 
L 91.182691 149.684971 
L 92.961772 142.725138 
L 94.931469 161.736368 
L 96.837627 231.996604 
L 98.807325 144.79998 
L 100.713483 168.951894 
L 102.68318 144.782892 
L 104.652877 146.828238 
L 106.559036 146.836199 
L 108.528733 175.54632 
L 110.434892 162.138262 
L 112.404589 135.822167 
L 114.374286 134.747038 
L 116.216906 138.07299 
L 118.186603 153.33626 
L 120.092761 156.589841 
L 122.062459 160.426763 
L 123.968617 160.623032 
L 125.938314 150.73032 
L 127.908011 150.059623 
L 129.81417 171.780882 
L 131.783867 157.617503 
L 133.690025 135.347631 
L 135.659723 138.24289 
L 137.62942 140.269749 
L 139.408501 134.501542 
L 141.378198 132.509395 
L 143.284357 181.66171 
L 145.254054 185.503236 
L 147.160212 148.434099 
L 149.129909 154.305357 
L 151.099607 133.780845 
L 153.005765 248.36713 
L 154.975462 296.840843 
L 156.881621 198.218549 
L 158.851318 142.861491 
L 160.821015 131.290007 
L 162.600096 147.367414 
L 164.569793 141.706377 
L 166.475952 154.865708 
L 168.445649 180.011882 
L 170.351808 142.558026 
L 172.321505 142.469521 
L 174.291202 156.819878 
L 176.19736 148.426648 
L 178.167057 198.162742 
L 180.073216 182.548167 
L 182.042913 150.722033 
L 184.01261 162.880732 
L 185.791692 148.798811 
L 187.761389 147.70663 
L 189.667547 268.094473 
L 191.637244 215.86768 
L 193.543403 142.54264 
L 195.5131 135.732964 
L 197.482797 140.056898 
L 199.388956 128.994078 
L 201.358653 159.506419 
L 203.264811 147.530344 
L 205.234508 124.8056 
L 207.204206 137.329326 
L 209.046825 136.434956 
L 211.016523 125.896369 
L 212.922681 139.42757 
L 214.892378 223.758954 
L 216.798537 160.886584 
L 218.768234 169.774306 
L 220.737931 156.698687 
L 222.64409 186.68378 
L 224.613787 173.954683 
L 226.519945 171.124561 
L 228.489642 177.962371 
L 230.459339 179.127196 
L 232.238421 193.86413 
L 234.208118 181.69072 
L 236.114276 186.348075 
L 238.083974 225.653339 
L 239.990132 155.507443 
L 241.959829 156.465466 
L 243.929526 160.434527 
L 245.835685 189.910389 
L 247.805382 180.961703 
L 249.71154 177.589245 
L 251.681238 180.58173 
L 253.650935 165.027317 
L 255.430016 170.126943 
L 257.399713 179.35898 
L 259.305872 218.765088 
L 261.275569 210.421322 
L 263.181727 176.20205 
L 265.151424 180.93421 
L 267.121122 191.595419 
L 269.02728 169.675298 
L 270.996977 199.149973 
L 272.903136 161.829623 
L 274.872833 153.429461 
L 276.84253 165.566535 
L 278.621611 180.365974 
L 280.591308 177.689258 
L 282.497467 230.106835 
L 284.467164 217.178085 
L 286.373323 181.378399 
L 288.34302 168.740722 
L 290.312717 165.146278 
L 292.218875 178.109842 
L 294.188572 221.900923 
L 296.094731 181.392887 
L 300.034125 187.875332 
L 301.876745 187.517065 
L 303.846442 195.163796 
L 305.752601 254.102179 
L 307.722298 296.840843 
L 309.628456 217.269182 
L 311.598154 172.387258 
L 313.567851 177.649208 
L 315.474009 199.795025 
L 317.443706 204.634266 
L 319.349865 173.079262 
L 321.319562 196.010133 
L 323.289259 197.138726 
L 325.06834 188.90644 
L 327.038038 182.580695 
L 328.944196 185.309985 
L 330.913893 243.884134 
L 332.820052 171.539589 
L 334.789749 163.241003 
L 336.759446 165.464336 
L 338.665605 177.808091 
L 340.635302 221.527454 
L 342.54146 177.931107 
L 344.511157 193.399558 
L 346.480854 182.018116 
L 348.259936 174.232983 
L 350.229633 186.522698 
L 352.135791 232.500263 
L 354.105488 162.751264 
L 356.011647 188.170981 
L 357.981344 161.5921 
L 359.951041 162.348164 
L 361.8572 151.471763 
L 363.826897 253.226667 
L 365.733055 162.144915 
L 367.702753 156.579913 
L 369.67245 173.498705 
L 371.451531 172.59581 
L 373.421228 170.23793 
L 375.327387 170.594874 
L 377.297084 280.012537 
L 379.203242 167.921874 
L 381.172939 172.229116 
L 383.142637 164.118739 
L 385.048795 282.453345 
L 387.018492 296.840843 
L 388.924651 265.608254 
L 390.894348 187.578718 
L 392.864045 190.705674 
L 394.706665 191.492354 
L 396.676362 183.981985 
L 398.582521 198.356609 
L 400.552218 242.514014 
L 402.458376 179.58024 
L 404.428073 182.337507 
L 406.39777 239.009025 
L 408.303929 244.26697 
L 410.273626 217.334805 
L 412.179785 172.754224 
L 414.149482 171.425958 
L 416.119179 175.208403 
L 417.89826 179.673239 
L 419.867957 176.641395 
L 421.774116 212.794735 
L 423.743813 202.84435 
L 425.649971 168.195895 
L 427.619669 172.331107 
L 429.589366 175.416005 
L 431.495524 218.042404 
L 433.465221 224.943326 
L 435.37138 296.840843 
L 437.341077 292.506858 
L 439.310774 210.646074 
L 441.089855 176.833767 
L 443.059553 181.24867 
L 443.059553 181.24867 
" style="fill:none;stroke:#ff7f0e;stroke-linecap:square;stroke-width:1.5;"/>
   </g>
   <g id="line2d_37">
    <path clip-path="url(#p3855585d2b)" d="M 44.7995 150.295155 
L 46.578581 145.95627 
L 48.548278 143.484886 
L 50.454437 196.218223 
L 52.424134 143.720963 
L 54.330293 153.637723 
L 56.29999 160.185864 
L 58.269687 155.082402 
L 60.175845 196.887221 
L 62.145542 129.305745 
L 64.051701 142.289624 
L 66.021398 133.024295 
L 67.991095 140.541805 
L 69.770177 168.326047 
L 71.739874 142.300162 
L 73.646032 274.184014 
L 75.615729 200.35196 
L 77.521888 158.83712 
L 79.491585 161.221354 
L 81.461282 169.128649 
L 83.367441 168.951872 
L 85.337138 200.689406 
L 87.243296 136.759535 
L 89.212993 137.181714 
L 91.182691 150.411066 
L 92.961772 142.963907 
L 94.931469 162.826978 
L 96.837627 231.186426 
L 98.807325 141.768876 
L 100.713483 162.83221 
L 102.68318 143.559295 
L 104.652877 140.836926 
L 106.559036 139.665427 
L 108.528733 173.413144 
L 110.434892 159.84943 
L 112.404589 137.611117 
L 114.374286 133.350213 
L 116.216906 132.194287 
L 120.092761 152.973158 
L 122.062459 158.413028 
L 123.968617 156.599888 
L 125.938314 147.435459 
L 127.908011 144.867117 
L 129.81417 176.470268 
L 131.783867 159.906983 
L 133.690025 131.666411 
L 135.659723 135.813996 
L 137.62942 136.894288 
L 139.408501 133.079427 
L 141.378198 136.969378 
L 143.284357 184.563846 
L 145.254054 187.89334 
L 147.160212 151.620181 
L 149.129909 157.821279 
L 151.099607 142.279655 
L 153.005765 250.867706 
L 154.975462 296.840843 
L 156.881621 204.916055 
L 158.851318 158.239904 
L 160.821015 155.167431 
L 162.600096 163.302824 
L 164.569793 144.885416 
L 166.475952 162.791132 
L 168.445649 187.481158 
L 170.351808 147.918961 
L 172.321505 142.203839 
L 174.291202 151.562173 
L 176.19736 151.740659 
L 178.167057 206.484277 
L 180.073216 180.719131 
L 182.042913 150.230398 
L 184.01261 163.975419 
L 185.791692 155.491906 
L 187.761389 155.965345 
L 189.667547 268.133906 
L 191.637244 218.117198 
L 193.543403 142.946791 
L 195.5131 135.835766 
L 197.482797 141.747526 
L 199.388956 130.550632 
L 201.358653 160.676671 
L 203.264811 149.054507 
L 205.234508 128.39772 
L 207.204206 133.410622 
L 209.046825 135.590205 
L 211.016523 125.145803 
L 212.922681 135.415746 
L 214.892378 225.86834 
L 216.798537 163.759419 
L 218.768234 169.147803 
L 220.737931 158.626168 
L 222.64409 186.771087 
L 224.613787 171.876562 
L 226.519945 171.461701 
L 228.489642 180.445431 
L 230.459339 174.136264 
L 232.238421 186.686675 
L 234.208118 171.745292 
L 236.114276 181.692615 
L 238.083974 228.795384 
L 239.990132 169.21182 
L 241.959829 164.228754 
L 243.929526 164.13568 
L 245.835685 193.850941 
L 247.805382 179.066599 
L 249.71154 176.654732 
L 251.681238 178.938576 
L 253.650935 167.531783 
L 255.430016 167.91092 
L 257.399713 178.732519 
L 259.305872 217.275941 
L 261.275569 213.026416 
L 263.181727 175.497534 
L 265.151424 181.027855 
L 267.121122 187.850145 
L 269.02728 172.876965 
L 270.996977 203.556201 
L 272.903136 166.855003 
L 274.872833 161.217883 
L 278.621611 182.91666 
L 280.591308 176.369943 
L 282.497467 229.293579 
L 284.467164 217.337817 
L 286.373323 178.479988 
L 288.34302 162.341084 
L 290.312717 160.531403 
L 292.218875 178.702505 
L 294.188572 220.30011 
L 296.094731 182.982686 
L 298.064428 186.606311 
L 300.034125 192.629674 
L 301.876745 191.835839 
L 303.846442 197.288387 
L 305.752601 255.119243 
L 307.722298 296.840843 
L 309.628456 223.108585 
L 311.598154 172.653072 
L 313.567851 180.255121 
L 315.474009 196.934469 
L 317.443706 208.012671 
L 319.349865 178.934464 
L 321.319562 195.857114 
L 323.289259 196.994967 
L 325.06834 192.748668 
L 327.038038 186.8381 
L 328.944196 189.342443 
L 330.913893 244.087412 
L 332.820052 173.435442 
L 334.789749 164.694889 
L 336.759446 166.991638 
L 338.665605 177.368027 
L 340.635302 219.306216 
L 342.54146 178.182004 
L 344.511157 192.072857 
L 346.480854 179.455374 
L 348.259936 173.661793 
L 350.229633 185.736099 
L 352.135791 231.896741 
L 354.105488 161.908683 
L 356.011647 181.505099 
L 357.981344 154.662922 
L 359.951041 159.548227 
L 361.8572 149.157195 
L 363.826897 251.136749 
L 365.733055 161.934996 
L 367.702753 153.95386 
L 369.67245 173.630026 
L 371.451531 175.061153 
L 373.421228 169.646302 
L 375.327387 174.633601 
L 377.297084 280.375617 
L 379.203242 168.099757 
L 381.172939 167.458277 
L 383.142637 162.396187 
L 385.048795 282.314843 
L 387.018492 296.840843 
L 388.924651 264.838235 
L 390.894348 186.956036 
L 392.864045 188.990076 
L 394.706665 188.933542 
L 396.676362 181.305115 
L 398.582521 192.706618 
L 400.552218 239.107379 
L 402.458376 173.307315 
L 404.428073 172.633195 
L 406.39777 234.357431 
L 408.303929 240.355429 
L 410.273626 214.388593 
L 412.179785 171.427143 
L 414.149482 169.796231 
L 416.119179 171.697405 
L 417.89826 175.177781 
L 419.867957 173.764598 
L 421.774116 210.583363 
L 423.743813 201.569108 
L 425.649971 167.100172 
L 427.619669 169.673228 
L 429.589366 173.202367 
L 431.495524 216.563856 
L 433.465221 222.648015 
L 435.37138 296.840843 
L 437.341077 292.266673 
L 439.310774 209.500665 
L 441.089855 170.619119 
L 443.059553 173.666791 
L 443.059553 173.666791 
" style="fill:none;stroke:#2ca02c;stroke-linecap:square;stroke-width:1.5;"/>
   </g>
   <g id="patch_3">
    <path d="M 44.7995 309.8635 
L 44.7995 23.36505 
" style="fill:none;stroke:#000000;stroke-linecap:square;stroke-linejoin:miter;stroke-width:0.8;"/>
   </g>
   <g id="patch_4">
    <path d="M 443.059553 309.8635 
L 443.059553 23.36505 
" style="fill:none;stroke:#000000;stroke-linecap:square;stroke-linejoin:miter;stroke-width:0.8;"/>
   </g>
   <g id="patch_5">
    <path d="M 44.7995 309.8635 
L 443.059553 309.8635 
" style="fill:none;stroke:#000000;stroke-linecap:square;stroke-linejoin:miter;stroke-width:0.8;"/>
   </g>
   <g id="patch_6">
    <path d="M 44.7995 23.36505 
L 443.059553 23.36505 
" style="fill:none;stroke:#000000;stroke-linecap:square;stroke-linejoin:miter;stroke-width:0.8;"/>
   </g>
   <g id="text_20">
    <!-- Average monthly normalized emissions -->
    <defs>
     <path d="M 34.1875 63.1875 
L 20.796875 26.90625 
L 47.609375 26.90625 
z
M 28.609375 72.90625 
L 39.796875 72.90625 
L 67.578125 0 
L 57.328125 0 
L 50.6875 18.703125 
L 17.828125 18.703125 
L 11.1875 0 
L 0.78125 0 
z
" id="DejaVuSans-41"/>
     <path d="M 2.984375 54.6875 
L 12.5 54.6875 
L 29.59375 8.796875 
L 46.6875 54.6875 
L 56.203125 54.6875 
L 35.6875 0 
L 23.484375 0 
z
" id="DejaVuSans-76"/>
     <path d="M 41.109375 46.296875 
Q 39.59375 47.171875 37.8125 47.578125 
Q 36.03125 48 33.890625 48 
Q 26.265625 48 22.1875 43.046875 
Q 18.109375 38.09375 18.109375 28.8125 
L 18.109375 0 
L 9.078125 0 
L 9.078125 54.6875 
L 18.109375 54.6875 
L 18.109375 46.1875 
Q 20.953125 51.171875 25.484375 53.578125 
Q 30.03125 56 36.53125 56 
Q 37.453125 56 38.578125 55.875 
Q 39.703125 55.765625 41.0625 55.515625 
z
" id="DejaVuSans-72"/>
     <path d="M 45.40625 27.984375 
Q 45.40625 37.75 41.375 43.109375 
Q 37.359375 48.484375 30.078125 48.484375 
Q 22.859375 48.484375 18.828125 43.109375 
Q 14.796875 37.75 14.796875 27.984375 
Q 14.796875 18.265625 18.828125 12.890625 
Q 22.859375 7.515625 30.078125 7.515625 
Q 37.359375 7.515625 41.375 12.890625 
Q 45.40625 18.265625 45.40625 27.984375 
z
M 54.390625 6.78125 
Q 54.390625 -7.171875 48.1875 -13.984375 
Q 42 -20.796875 29.203125 -20.796875 
Q 24.46875 -20.796875 20.265625 -20.09375 
Q 16.0625 -19.390625 12.109375 -17.921875 
L 12.109375 -9.1875 
Q 16.0625 -11.328125 19.921875 -12.34375 
Q 23.78125 -13.375 27.78125 -13.375 
Q 36.625 -13.375 41.015625 -8.765625 
Q 45.40625 -4.15625 45.40625 5.171875 
L 45.40625 9.625 
Q 42.625 4.78125 38.28125 2.390625 
Q 33.9375 0 27.875 0 
Q 17.828125 0 11.671875 7.65625 
Q 5.515625 15.328125 5.515625 27.984375 
Q 5.515625 40.671875 11.671875 48.328125 
Q 17.828125 56 27.875 56 
Q 33.9375 56 38.28125 53.609375 
Q 42.625 51.21875 45.40625 46.390625 
L 45.40625 54.6875 
L 54.390625 54.6875 
z
" id="DejaVuSans-67"/>
     <path d="M 54.890625 33.015625 
L 54.890625 0 
L 45.90625 0 
L 45.90625 32.71875 
Q 45.90625 40.484375 42.875 44.328125 
Q 39.84375 48.1875 33.796875 48.1875 
Q 26.515625 48.1875 22.3125 43.546875 
Q 18.109375 38.921875 18.109375 30.90625 
L 18.109375 0 
L 9.078125 0 
L 9.078125 75.984375 
L 18.109375 75.984375 
L 18.109375 46.1875 
Q 21.34375 51.125 25.703125 53.5625 
Q 30.078125 56 35.796875 56 
Q 45.21875 56 50.046875 50.171875 
Q 54.890625 44.34375 54.890625 33.015625 
z
" id="DejaVuSans-68"/>
     <path d="M 9.421875 75.984375 
L 18.40625 75.984375 
L 18.40625 0 
L 9.421875 0 
z
" id="DejaVuSans-6c"/>
     <path d="M 32.171875 -5.078125 
Q 28.375 -14.84375 24.75 -17.8125 
Q 21.140625 -20.796875 15.09375 -20.796875 
L 7.90625 -20.796875 
L 7.90625 -13.28125 
L 13.1875 -13.28125 
Q 16.890625 -13.28125 18.9375 -11.515625 
Q 21 -9.765625 23.484375 -3.21875 
L 25.09375 0.875 
L 2.984375 54.6875 
L 12.5 54.6875 
L 29.59375 11.921875 
L 46.6875 54.6875 
L 56.203125 54.6875 
z
" id="DejaVuSans-79"/>
     <path d="M 5.515625 54.6875 
L 48.1875 54.6875 
L 48.1875 46.484375 
L 14.40625 7.171875 
L 48.1875 7.171875 
L 48.1875 0 
L 4.296875 0 
L 4.296875 8.203125 
L 38.09375 47.515625 
L 5.515625 47.515625 
z
" id="DejaVuSans-7a"/>
     <path d="M 45.40625 46.390625 
L 45.40625 75.984375 
L 54.390625 75.984375 
L 54.390625 0 
L 45.40625 0 
L 45.40625 8.203125 
Q 42.578125 3.328125 38.25 0.953125 
Q 33.9375 -1.421875 27.875 -1.421875 
Q 17.96875 -1.421875 11.734375 6.484375 
Q 5.515625 14.40625 5.515625 27.296875 
Q 5.515625 40.1875 11.734375 48.09375 
Q 17.96875 56 27.875 56 
Q 33.9375 56 38.25 53.625 
Q 42.578125 51.265625 45.40625 46.390625 
z
M 14.796875 27.296875 
Q 14.796875 17.390625 18.875 11.75 
Q 22.953125 6.109375 30.078125 6.109375 
Q 37.203125 6.109375 41.296875 11.75 
Q 45.40625 17.390625 45.40625 27.296875 
Q 45.40625 37.203125 41.296875 42.84375 
Q 37.203125 48.484375 30.078125 48.484375 
Q 22.953125 48.484375 18.875 42.84375 
Q 14.796875 37.203125 14.796875 27.296875 
z
" id="DejaVuSans-64"/>
    </defs>
    <g transform="translate(125.365776 17.36505)scale(0.12 -0.12)">
     <use xlink:href="#DejaVuSans-41"/>
     <use x="68.330078" xlink:href="#DejaVuSans-76"/>
     <use x="127.509766" xlink:href="#DejaVuSans-65"/>
     <use x="189.033203" xlink:href="#DejaVuSans-72"/>
     <use x="230.146484" xlink:href="#DejaVuSans-61"/>
     <use x="291.425781" xlink:href="#DejaVuSans-67"/>
     <use x="354.902344" xlink:href="#DejaVuSans-65"/>
     <use x="416.425781" xlink:href="#DejaVuSans-20"/>
     <use x="448.212891" xlink:href="#DejaVuSans-6d"/>
     <use x="545.625" xlink:href="#DejaVuSans-6f"/>
     <use x="606.806641" xlink:href="#DejaVuSans-6e"/>
     <use x="670.185547" xlink:href="#DejaVuSans-74"/>
     <use x="709.394531" xlink:href="#DejaVuSans-68"/>
     <use x="772.773438" xlink:href="#DejaVuSans-6c"/>
     <use x="800.556641" xlink:href="#DejaVuSans-79"/>
     <use x="859.736328" xlink:href="#DejaVuSans-20"/>
     <use x="891.523438" xlink:href="#DejaVuSans-6e"/>
     <use x="954.902344" xlink:href="#DejaVuSans-6f"/>
     <use x="1016.083984" xlink:href="#DejaVuSans-72"/>
     <use x="1057.181641" xlink:href="#DejaVuSans-6d"/>
     <use x="1154.59375" xlink:href="#DejaVuSans-61"/>
     <use x="1215.873047" xlink:href="#DejaVuSans-6c"/>
     <use x="1243.65625" xlink:href="#DejaVuSans-69"/>
     <use x="1271.439453" xlink:href="#DejaVuSans-7a"/>
     <use x="1323.929688" xlink:href="#DejaVuSans-65"/>
     <use x="1385.453125" xlink:href="#DejaVuSans-64"/>
     <use x="1448.929688" xlink:href="#DejaVuSans-20"/>
     <use x="1480.716797" xlink:href="#DejaVuSans-65"/>
     <use x="1542.240234" xlink:href="#DejaVuSans-6d"/>
     <use x="1639.652344" xlink:href="#DejaVuSans-69"/>
     <use x="1667.435547" xlink:href="#DejaVuSans-73"/>
     <use x="1719.535156" xlink:href="#DejaVuSans-73"/>
     <use x="1771.634766" xlink:href="#DejaVuSans-69"/>
     <use x="1799.417969" xlink:href="#DejaVuSans-6f"/>
     <use x="1860.599609" xlink:href="#DejaVuSans-6e"/>
     <use x="1923.978516" xlink:href="#DejaVuSans-73"/>
    </g>
   </g>
   <g id="legend_1">
    <g id="patch_7">
     <path d="M 382.787678 75.399425 
L 436.059553 75.399425 
Q 438.059553 75.399425 438.059553 73.399425 
L 438.059553 30.36505 
Q 438.059553 28.36505 436.059553 28.36505 
L 382.787678 28.36505 
Q 380.787678 28.36505 380.787678 30.36505 
L 380.787678 73.399425 
Q 380.787678 75.399425 382.787678 75.399425 
z
" style="fill:#ffffff;opacity:0.8;stroke:#cccccc;stroke-linejoin:miter;"/>
    </g>
    <g id="line2d_38">
     <path d="M 384.787678 36.463488 
L 404.787678 36.463488 
" style="fill:none;stroke:#1f77b4;stroke-linecap:square;stroke-width:1.5;"/>
    </g>
    <g id="line2d_39"/>
    <g id="text_21">
     <!-- SOx -->
     <defs>
      <path d="M 53.515625 70.515625 
L 53.515625 60.890625 
Q 47.90625 63.578125 42.921875 64.890625 
Q 37.9375 66.21875 33.296875 66.21875 
Q 25.25 66.21875 20.875 63.09375 
Q 16.5 59.96875 16.5 54.203125 
Q 16.5 49.359375 19.40625 46.890625 
Q 22.3125 44.4375 30.421875 42.921875 
L 36.375 41.703125 
Q 47.40625 39.59375 52.65625 34.296875 
Q 57.90625 29 57.90625 20.125 
Q 57.90625 9.515625 50.796875 4.046875 
Q 43.703125 -1.421875 29.984375 -1.421875 
Q 24.8125 -1.421875 18.96875 -0.25 
Q 13.140625 0.921875 6.890625 3.21875 
L 6.890625 13.375 
Q 12.890625 10.015625 18.65625 8.296875 
Q 24.421875 6.59375 29.984375 6.59375 
Q 38.421875 6.59375 43.015625 9.90625 
Q 47.609375 13.234375 47.609375 19.390625 
Q 47.609375 24.75 44.3125 27.78125 
Q 41.015625 30.8125 33.5 32.328125 
L 27.484375 33.5 
Q 16.453125 35.6875 11.515625 40.375 
Q 6.59375 45.0625 6.59375 53.421875 
Q 6.59375 63.09375 13.40625 68.65625 
Q 20.21875 74.21875 32.171875 74.21875 
Q 37.3125 74.21875 42.625 73.28125 
Q 47.953125 72.359375 53.515625 70.515625 
z
" id="DejaVuSans-53"/>
      <path d="M 39.40625 66.21875 
Q 28.65625 66.21875 22.328125 58.203125 
Q 16.015625 50.203125 16.015625 36.375 
Q 16.015625 22.609375 22.328125 14.59375 
Q 28.65625 6.59375 39.40625 6.59375 
Q 50.140625 6.59375 56.421875 14.59375 
Q 62.703125 22.609375 62.703125 36.375 
Q 62.703125 50.203125 56.421875 58.203125 
Q 50.140625 66.21875 39.40625 66.21875 
z
M 39.40625 74.21875 
Q 54.734375 74.21875 63.90625 63.9375 
Q 73.09375 53.65625 73.09375 36.375 
Q 73.09375 19.140625 63.90625 8.859375 
Q 54.734375 -1.421875 39.40625 -1.421875 
Q 24.03125 -1.421875 14.8125 8.828125 
Q 5.609375 19.09375 5.609375 36.375 
Q 5.609375 53.65625 14.8125 63.9375 
Q 24.03125 74.21875 39.40625 74.21875 
z
" id="DejaVuSans-4f"/>
      <path d="M 54.890625 54.6875 
L 35.109375 28.078125 
L 55.90625 0 
L 45.3125 0 
L 29.390625 21.484375 
L 13.484375 0 
L 2.875 0 
L 24.125 28.609375 
L 4.6875 54.6875 
L 15.28125 54.6875 
L 29.78125 35.203125 
L 44.28125 54.6875 
z
" id="DejaVuSans-78"/>
     </defs>
     <g transform="translate(412.787678 39.963488)scale(0.1 -0.1)">
      <use xlink:href="#DejaVuSans-53"/>
      <use x="63.476562" xlink:href="#DejaVuSans-4f"/>
      <use x="142.1875" xlink:href="#DejaVuSans-78"/>
     </g>
    </g>
    <g id="line2d_40">
     <path d="M 384.787678 51.141613 
L 404.787678 51.141613 
" style="fill:none;stroke:#ff7f0e;stroke-linecap:square;stroke-width:1.5;"/>
    </g>
    <g id="line2d_41"/>
    <g id="text_22">
     <!-- NOx -->
     <defs>
      <path d="M 9.8125 72.90625 
L 23.09375 72.90625 
L 55.421875 11.921875 
L 55.421875 72.90625 
L 64.984375 72.90625 
L 64.984375 0 
L 51.703125 0 
L 19.390625 60.984375 
L 19.390625 0 
L 9.8125 0 
z
" id="DejaVuSans-4e"/>
     </defs>
     <g transform="translate(412.787678 54.641613)scale(0.1 -0.1)">
      <use xlink:href="#DejaVuSans-4e"/>
      <use x="74.804688" xlink:href="#DejaVuSans-4f"/>
      <use x="153.515625" xlink:href="#DejaVuSans-78"/>
     </g>
    </g>
    <g id="line2d_42">
     <path d="M 384.787678 65.819738 
L 404.787678 65.819738 
" style="fill:none;stroke:#2ca02c;stroke-linecap:square;stroke-width:1.5;"/>
    </g>
    <g id="line2d_43"/>
    <g id="text_23">
     <!-- CO2 -->
     <defs>
      <path d="M 64.40625 67.28125 
L 64.40625 56.890625 
Q 59.421875 61.53125 53.78125 63.8125 
Q 48.140625 66.109375 41.796875 66.109375 
Q 29.296875 66.109375 22.65625 58.46875 
Q 16.015625 50.828125 16.015625 36.375 
Q 16.015625 21.96875 22.65625 14.328125 
Q 29.296875 6.6875 41.796875 6.6875 
Q 48.140625 6.6875 53.78125 8.984375 
Q 59.421875 11.28125 64.40625 15.921875 
L 64.40625 5.609375 
Q 59.234375 2.09375 53.4375 0.328125 
Q 47.65625 -1.421875 41.21875 -1.421875 
Q 24.65625 -1.421875 15.125 8.703125 
Q 5.609375 18.84375 5.609375 36.375 
Q 5.609375 53.953125 15.125 64.078125 
Q 24.65625 74.21875 41.21875 74.21875 
Q 47.75 74.21875 53.53125 72.484375 
Q 59.328125 70.75 64.40625 67.28125 
z
" id="DejaVuSans-43"/>
     </defs>
     <g transform="translate(412.787678 69.319738)scale(0.1 -0.1)">
      <use xlink:href="#DejaVuSans-43"/>
      <use x="69.824219" xlink:href="#DejaVuSans-4f"/>
      <use x="148.535156" xlink:href="#DejaVuSans-32"/>
     </g>
    </g>
   </g>
  </g>
 </g>
 <defs>
  <clipPath id="p3855585d2b">
   <rect height="286.49845" width="398.260053" x="44.7995" y="23.36505"/>
  </clipPath>
 </defs>
</svg>
