<?xml version="1.0" encoding="utf-8" standalone="no"?>
<!DOCTYPE svg PUBLIC "-//W3C//DTD SVG 1.1//EN"
  "http://www.w3.org/Graphics/SVG/1.1/DTD/svg11.dtd">
<!-- Created with matplotlib (http://matplotlib.org/) -->
<svg height="345.6pt" version="1.1" viewBox="0 0 460.8 345.6" width="460.8pt" xmlns="http://www.w3.org/2000/svg" xmlns:xlink="http://www.w3.org/1999/xlink">
 <defs>
  <style type="text/css">
*{stroke-linecap:butt;stroke-linejoin:round;}
  </style>
 </defs>
 <g id="figure_1">
  <g id="patch_1">
   <path d="M 0 345.6 
L 460.8 345.6 
L 460.8 0 
L 0 0 
z
" style="fill:none;"/>
  </g>
  <g id="axes_1">
   <g id="patch_2">
    <path d="M 44.7995 309.8635 
L 443.009854 309.8635 
L 443.009854 23.36505 
L 44.7995 23.36505 
z
" style="fill:none;"/>
   </g>
   <g id="matplotlib.axis_1">
    <g id="xtick_1">
     <g id="line2d_1">
      <path clip-path="url(#pa10a2fae4a)" d="M 89.270982 309.8635 
L 89.270982 23.36505 
" style="fill:none;stroke:#b0b0b0;stroke-linecap:square;stroke-width:0.8;"/>
     </g>
     <g id="line2d_2">
      <defs>
       <path d="M 0 0 
L 0 3.5 
" id="mb918256703" style="stroke:#000000;stroke-width:0.8;"/>
      </defs>
      <g>
       <use style="stroke:#000000;stroke-width:0.8;" x="89.270982" xlink:href="#mb918256703" y="309.8635"/>
      </g>
     </g>
     <g id="text_1">
      <!-- 2003 -->
      <defs>
       <path d="M 19.1875 8.296875 
L 53.609375 8.296875 
L 53.609375 0 
L 7.328125 0 
L 7.328125 8.296875 
Q 12.9375 14.109375 22.625 23.890625 
Q 32.328125 33.6875 34.8125 36.53125 
Q 39.546875 41.84375 41.421875 45.53125 
Q 43.3125 49.21875 43.3125 52.78125 
Q 43.3125 58.59375 39.234375 62.25 
Q 35.15625 65.921875 28.609375 65.921875 
Q 23.96875 65.921875 18.8125 64.3125 
Q 13.671875 62.703125 7.8125 59.421875 
L 7.8125 69.390625 
Q 13.765625 71.78125 18.9375 73 
Q 24.125 74.21875 28.421875 74.21875 
Q 39.75 74.21875 46.484375 68.546875 
Q 53.21875 62.890625 53.21875 53.421875 
Q 53.21875 48.921875 51.53125 44.890625 
Q 49.859375 40.875 45.40625 35.40625 
Q 44.1875 33.984375 37.640625 27.21875 
Q 31.109375 20.453125 19.1875 8.296875 
z
" id="DejaVuSans-32"/>
       <path d="M 31.78125 66.40625 
Q 24.171875 66.40625 20.328125 58.90625 
Q 16.5 51.421875 16.5 36.375 
Q 16.5 21.390625 20.328125 13.890625 
Q 24.171875 6.390625 31.78125 6.390625 
Q 39.453125 6.390625 43.28125 13.890625 
Q 47.125 21.390625 47.125 36.375 
Q 47.125 51.421875 43.28125 58.90625 
Q 39.453125 66.40625 31.78125 66.40625 
z
M 31.78125 74.21875 
Q 44.046875 74.21875 50.515625 64.515625 
Q 56.984375 54.828125 56.984375 36.375 
Q 56.984375 17.96875 50.515625 8.265625 
Q 44.046875 -1.421875 31.78125 -1.421875 
Q 19.53125 -1.421875 13.0625 8.265625 
Q 6.59375 17.96875 6.59375 36.375 
Q 6.59375 54.828125 13.0625 64.515625 
Q 19.53125 74.21875 31.78125 74.21875 
z
" id="DejaVuSans-30"/>
       <path d="M 40.578125 39.3125 
Q 47.65625 37.796875 51.625 33 
Q 55.609375 28.21875 55.609375 21.1875 
Q 55.609375 10.40625 48.1875 4.484375 
Q 40.765625 -1.421875 27.09375 -1.421875 
Q 22.515625 -1.421875 17.65625 -0.515625 
Q 12.796875 0.390625 7.625 2.203125 
L 7.625 11.71875 
Q 11.71875 9.328125 16.59375 8.109375 
Q 21.484375 6.890625 26.8125 6.890625 
Q 36.078125 6.890625 40.9375 10.546875 
Q 45.796875 14.203125 45.796875 21.1875 
Q 45.796875 27.640625 41.28125 31.265625 
Q 36.765625 34.90625 28.71875 34.90625 
L 20.21875 34.90625 
L 20.21875 43.015625 
L 29.109375 43.015625 
Q 36.375 43.015625 40.234375 45.921875 
Q 44.09375 48.828125 44.09375 54.296875 
Q 44.09375 59.90625 40.109375 62.90625 
Q 36.140625 65.921875 28.71875 65.921875 
Q 24.65625 65.921875 20.015625 65.03125 
Q 15.375 64.15625 9.8125 62.3125 
L 9.8125 71.09375 
Q 15.4375 72.65625 20.34375 73.4375 
Q 25.25 74.21875 29.59375 74.21875 
Q 40.828125 74.21875 47.359375 69.109375 
Q 53.90625 64.015625 53.90625 55.328125 
Q 53.90625 49.265625 50.4375 45.09375 
Q 46.96875 40.921875 40.578125 39.3125 
z
" id="DejaVuSans-33"/>
      </defs>
      <g transform="translate(76.545982 324.461937)scale(0.1 -0.1)">
       <use xlink:href="#DejaVuSans-32"/>
       <use x="63.623047" xlink:href="#DejaVuSans-30"/>
       <use x="127.246094" xlink:href="#DejaVuSans-30"/>
       <use x="190.869141" xlink:href="#DejaVuSans-33"/>
      </g>
     </g>
    </g>
    <g id="xtick_2">
     <g id="line2d_3">
      <path clip-path="url(#pa10a2fae4a)" d="M 135.711915 309.8635 
L 135.711915 23.36505 
" style="fill:none;stroke:#b0b0b0;stroke-linecap:square;stroke-width:0.8;"/>
     </g>
     <g id="line2d_4">
      <g>
       <use style="stroke:#000000;stroke-width:0.8;" x="135.711915" xlink:href="#mb918256703" y="309.8635"/>
      </g>
     </g>
     <g id="text_2">
      <!-- 2005 -->
      <defs>
       <path d="M 10.796875 72.90625 
L 49.515625 72.90625 
L 49.515625 64.59375 
L 19.828125 64.59375 
L 19.828125 46.734375 
Q 21.96875 47.46875 24.109375 47.828125 
Q 26.265625 48.1875 28.421875 48.1875 
Q 40.625 48.1875 47.75 41.5 
Q 54.890625 34.8125 54.890625 23.390625 
Q 54.890625 11.625 47.5625 5.09375 
Q 40.234375 -1.421875 26.90625 -1.421875 
Q 22.3125 -1.421875 17.546875 -0.640625 
Q 12.796875 0.140625 7.71875 1.703125 
L 7.71875 11.625 
Q 12.109375 9.234375 16.796875 8.0625 
Q 21.484375 6.890625 26.703125 6.890625 
Q 35.15625 6.890625 40.078125 11.328125 
Q 45.015625 15.765625 45.015625 23.390625 
Q 45.015625 31 40.078125 35.4375 
Q 35.15625 39.890625 26.703125 39.890625 
Q 22.75 39.890625 18.8125 39.015625 
Q 14.890625 38.140625 10.796875 36.28125 
z
" id="DejaVuSans-35"/>
      </defs>
      <g transform="translate(122.986915 324.461937)scale(0.1 -0.1)">
       <use xlink:href="#DejaVuSans-32"/>
       <use x="63.623047" xlink:href="#DejaVuSans-30"/>
       <use x="127.246094" xlink:href="#DejaVuSans-30"/>
       <use x="190.869141" xlink:href="#DejaVuSans-35"/>
      </g>
     </g>
    </g>
    <g id="xtick_3">
     <g id="line2d_5">
      <path clip-path="url(#pa10a2fae4a)" d="M 182.089317 309.8635 
L 182.089317 23.36505 
" style="fill:none;stroke:#b0b0b0;stroke-linecap:square;stroke-width:0.8;"/>
     </g>
     <g id="line2d_6">
      <g>
       <use style="stroke:#000000;stroke-width:0.8;" x="182.089317" xlink:href="#mb918256703" y="309.8635"/>
      </g>
     </g>
     <g id="text_3">
      <!-- 2007 -->
      <defs>
       <path d="M 8.203125 72.90625 
L 55.078125 72.90625 
L 55.078125 68.703125 
L 28.609375 0 
L 18.3125 0 
L 43.21875 64.59375 
L 8.203125 64.59375 
z
" id="DejaVuSans-37"/>
      </defs>
      <g transform="translate(169.364317 324.461937)scale(0.1 -0.1)">
       <use xlink:href="#DejaVuSans-32"/>
       <use x="63.623047" xlink:href="#DejaVuSans-30"/>
       <use x="127.246094" xlink:href="#DejaVuSans-30"/>
       <use x="190.869141" xlink:href="#DejaVuSans-37"/>
      </g>
     </g>
    </g>
    <g id="xtick_4">
     <g id="line2d_7">
      <path clip-path="url(#pa10a2fae4a)" d="M 228.530251 309.8635 
L 228.530251 23.36505 
" style="fill:none;stroke:#b0b0b0;stroke-linecap:square;stroke-width:0.8;"/>
     </g>
     <g id="line2d_8">
      <g>
       <use style="stroke:#000000;stroke-width:0.8;" x="228.530251" xlink:href="#mb918256703" y="309.8635"/>
      </g>
     </g>
     <g id="text_4">
      <!-- 2009 -->
      <defs>
       <path d="M 10.984375 1.515625 
L 10.984375 10.5 
Q 14.703125 8.734375 18.5 7.8125 
Q 22.3125 6.890625 25.984375 6.890625 
Q 35.75 6.890625 40.890625 13.453125 
Q 46.046875 20.015625 46.78125 33.40625 
Q 43.953125 29.203125 39.59375 26.953125 
Q 35.25 24.703125 29.984375 24.703125 
Q 19.046875 24.703125 12.671875 31.3125 
Q 6.296875 37.9375 6.296875 49.421875 
Q 6.296875 60.640625 12.9375 67.421875 
Q 19.578125 74.21875 30.609375 74.21875 
Q 43.265625 74.21875 49.921875 64.515625 
Q 56.59375 54.828125 56.59375 36.375 
Q 56.59375 19.140625 48.40625 8.859375 
Q 40.234375 -1.421875 26.421875 -1.421875 
Q 22.703125 -1.421875 18.890625 -0.6875 
Q 15.09375 0.046875 10.984375 1.515625 
z
M 30.609375 32.421875 
Q 37.25 32.421875 41.125 36.953125 
Q 45.015625 41.5 45.015625 49.421875 
Q 45.015625 57.28125 41.125 61.84375 
Q 37.25 66.40625 30.609375 66.40625 
Q 23.96875 66.40625 20.09375 61.84375 
Q 16.21875 57.28125 16.21875 49.421875 
Q 16.21875 41.5 20.09375 36.953125 
Q 23.96875 32.421875 30.609375 32.421875 
z
" id="DejaVuSans-39"/>
      </defs>
      <g transform="translate(215.805251 324.461937)scale(0.1 -0.1)">
       <use xlink:href="#DejaVuSans-32"/>
       <use x="63.623047" xlink:href="#DejaVuSans-30"/>
       <use x="127.246094" xlink:href="#DejaVuSans-30"/>
       <use x="190.869141" xlink:href="#DejaVuSans-39"/>
      </g>
     </g>
    </g>
    <g id="xtick_5">
     <g id="line2d_9">
      <path clip-path="url(#pa10a2fae4a)" d="M 274.907653 309.8635 
L 274.907653 23.36505 
" style="fill:none;stroke:#b0b0b0;stroke-linecap:square;stroke-width:0.8;"/>
     </g>
     <g id="line2d_10">
      <g>
       <use style="stroke:#000000;stroke-width:0.8;" x="274.907653" xlink:href="#mb918256703" y="309.8635"/>
      </g>
     </g>
     <g id="text_5">
      <!-- 2011 -->
      <defs>
       <path d="M 12.40625 8.296875 
L 28.515625 8.296875 
L 28.515625 63.921875 
L 10.984375 60.40625 
L 10.984375 69.390625 
L 28.421875 72.90625 
L 38.28125 72.90625 
L 38.28125 8.296875 
L 54.390625 8.296875 
L 54.390625 0 
L 12.40625 0 
z
" id="DejaVuSans-31"/>
      </defs>
      <g transform="translate(262.182653 324.461937)scale(0.1 -0.1)">
       <use xlink:href="#DejaVuSans-32"/>
       <use x="63.623047" xlink:href="#DejaVuSans-30"/>
       <use x="127.246094" xlink:href="#DejaVuSans-31"/>
       <use x="190.869141" xlink:href="#DejaVuSans-31"/>
      </g>
     </g>
    </g>
    <g id="xtick_6">
     <g id="line2d_11">
      <path clip-path="url(#pa10a2fae4a)" d="M 321.348586 309.8635 
L 321.348586 23.36505 
" style="fill:none;stroke:#b0b0b0;stroke-linecap:square;stroke-width:0.8;"/>
     </g>
     <g id="line2d_12">
      <g>
       <use style="stroke:#000000;stroke-width:0.8;" x="321.348586" xlink:href="#mb918256703" y="309.8635"/>
      </g>
     </g>
     <g id="text_6">
      <!-- 2013 -->
      <g transform="translate(308.623586 324.461937)scale(0.1 -0.1)">
       <use xlink:href="#DejaVuSans-32"/>
       <use x="63.623047" xlink:href="#DejaVuSans-30"/>
       <use x="127.246094" xlink:href="#DejaVuSans-31"/>
       <use x="190.869141" xlink:href="#DejaVuSans-33"/>
      </g>
     </g>
    </g>
    <g id="xtick_7">
     <g id="line2d_13">
      <path clip-path="url(#pa10a2fae4a)" d="M 367.725989 309.8635 
L 367.725989 23.36505 
" style="fill:none;stroke:#b0b0b0;stroke-linecap:square;stroke-width:0.8;"/>
     </g>
     <g id="line2d_14">
      <g>
       <use style="stroke:#000000;stroke-width:0.8;" x="367.725989" xlink:href="#mb918256703" y="309.8635"/>
      </g>
     </g>
     <g id="text_7">
      <!-- 2015 -->
      <g transform="translate(355.000989 324.461937)scale(0.1 -0.1)">
       <use xlink:href="#DejaVuSans-32"/>
       <use x="63.623047" xlink:href="#DejaVuSans-30"/>
       <use x="127.246094" xlink:href="#DejaVuSans-31"/>
       <use x="190.869141" xlink:href="#DejaVuSans-35"/>
      </g>
     </g>
    </g>
    <g id="xtick_8">
     <g id="line2d_15">
      <path clip-path="url(#pa10a2fae4a)" d="M 414.166922 309.8635 
L 414.166922 23.36505 
" style="fill:none;stroke:#b0b0b0;stroke-linecap:square;stroke-width:0.8;"/>
     </g>
     <g id="line2d_16">
      <g>
       <use style="stroke:#000000;stroke-width:0.8;" x="414.166922" xlink:href="#mb918256703" y="309.8635"/>
      </g>
     </g>
     <g id="text_8">
      <!-- 2017 -->
      <g transform="translate(401.441922 324.461937)scale(0.1 -0.1)">
       <use xlink:href="#DejaVuSans-32"/>
       <use x="63.623047" xlink:href="#DejaVuSans-30"/>
       <use x="127.246094" xlink:href="#DejaVuSans-31"/>
       <use x="190.869141" xlink:href="#DejaVuSans-37"/>
      </g>
     </g>
    </g>
    <g id="text_9">
     <!-- Date -->
     <defs>
      <path d="M 19.671875 64.796875 
L 19.671875 8.109375 
L 31.59375 8.109375 
Q 46.6875 8.109375 53.6875 14.9375 
Q 60.6875 21.78125 60.6875 36.53125 
Q 60.6875 51.171875 53.6875 57.984375 
Q 46.6875 64.796875 31.59375 64.796875 
z
M 9.8125 72.90625 
L 30.078125 72.90625 
Q 51.265625 72.90625 61.171875 64.09375 
Q 71.09375 55.28125 71.09375 36.53125 
Q 71.09375 17.671875 61.125 8.828125 
Q 51.171875 0 30.078125 0 
L 9.8125 0 
z
" id="DejaVuSans-44"/>
      <path d="M 34.28125 27.484375 
Q 23.390625 27.484375 19.1875 25 
Q 14.984375 22.515625 14.984375 16.5 
Q 14.984375 11.71875 18.140625 8.90625 
Q 21.296875 6.109375 26.703125 6.109375 
Q 34.1875 6.109375 38.703125 11.40625 
Q 43.21875 16.703125 43.21875 25.484375 
L 43.21875 27.484375 
z
M 52.203125 31.203125 
L 52.203125 0 
L 43.21875 0 
L 43.21875 8.296875 
Q 40.140625 3.328125 35.546875 0.953125 
Q 30.953125 -1.421875 24.3125 -1.421875 
Q 15.921875 -1.421875 10.953125 3.296875 
Q 6 8.015625 6 15.921875 
Q 6 25.140625 12.171875 29.828125 
Q 18.359375 34.515625 30.609375 34.515625 
L 43.21875 34.515625 
L 43.21875 35.40625 
Q 43.21875 41.609375 39.140625 45 
Q 35.0625 48.390625 27.6875 48.390625 
Q 23 48.390625 18.546875 47.265625 
Q 14.109375 46.140625 10.015625 43.890625 
L 10.015625 52.203125 
Q 14.9375 54.109375 19.578125 55.046875 
Q 24.21875 56 28.609375 56 
Q 40.484375 56 46.34375 49.84375 
Q 52.203125 43.703125 52.203125 31.203125 
z
" id="DejaVuSans-61"/>
      <path d="M 18.3125 70.21875 
L 18.3125 54.6875 
L 36.8125 54.6875 
L 36.8125 47.703125 
L 18.3125 47.703125 
L 18.3125 18.015625 
Q 18.3125 11.328125 20.140625 9.421875 
Q 21.96875 7.515625 27.59375 7.515625 
L 36.8125 7.515625 
L 36.8125 0 
L 27.59375 0 
Q 17.1875 0 13.234375 3.875 
Q 9.28125 7.765625 9.28125 18.015625 
L 9.28125 47.703125 
L 2.6875 47.703125 
L 2.6875 54.6875 
L 9.28125 54.6875 
L 9.28125 70.21875 
z
" id="DejaVuSans-74"/>
      <path d="M 56.203125 29.59375 
L 56.203125 25.203125 
L 14.890625 25.203125 
Q 15.484375 15.921875 20.484375 11.0625 
Q 25.484375 6.203125 34.421875 6.203125 
Q 39.59375 6.203125 44.453125 7.46875 
Q 49.3125 8.734375 54.109375 11.28125 
L 54.109375 2.78125 
Q 49.265625 0.734375 44.1875 -0.34375 
Q 39.109375 -1.421875 33.890625 -1.421875 
Q 20.796875 -1.421875 13.15625 6.1875 
Q 5.515625 13.8125 5.515625 26.8125 
Q 5.515625 40.234375 12.765625 48.109375 
Q 20.015625 56 32.328125 56 
Q 43.359375 56 49.78125 48.890625 
Q 56.203125 41.796875 56.203125 29.59375 
z
M 47.21875 32.234375 
Q 47.125 39.59375 43.09375 43.984375 
Q 39.0625 48.390625 32.421875 48.390625 
Q 24.90625 48.390625 20.390625 44.140625 
Q 15.875 39.890625 15.1875 32.171875 
z
" id="DejaVuSans-65"/>
     </defs>
     <g transform="translate(231.953896 338.140062)scale(0.1 -0.1)">
      <use xlink:href="#DejaVuSans-44"/>
      <use x="77.001953" xlink:href="#DejaVuSans-61"/>
      <use x="138.28125" xlink:href="#DejaVuSans-74"/>
      <use x="177.490234" xlink:href="#DejaVuSans-65"/>
     </g>
    </g>
   </g>
   <g id="matplotlib.axis_2">
    <g id="ytick_1">
     <g id="line2d_17">
      <path clip-path="url(#pa10a2fae4a)" d="M 44.7995 279.102521 
L 443.009854 279.102521 
" style="fill:none;stroke:#b0b0b0;stroke-linecap:square;stroke-width:0.8;"/>
     </g>
     <g id="line2d_18">
      <defs>
       <path d="M 0 0 
L -3.5 0 
" id="m5cdb434db8" style="stroke:#000000;stroke-width:0.8;"/>
      </defs>
      <g>
       <use style="stroke:#000000;stroke-width:0.8;" x="44.7995" xlink:href="#m5cdb434db8" y="279.102521"/>
      </g>
     </g>
     <g id="text_10">
      <!-- 0.25 -->
      <defs>
       <path d="M 10.6875 12.40625 
L 21 12.40625 
L 21 0 
L 10.6875 0 
z
" id="DejaVuSans-2e"/>
      </defs>
      <g transform="translate(15.533875 282.901739)scale(0.1 -0.1)">
       <use xlink:href="#DejaVuSans-30"/>
       <use x="63.623047" xlink:href="#DejaVuSans-2e"/>
       <use x="95.410156" xlink:href="#DejaVuSans-32"/>
       <use x="159.033203" xlink:href="#DejaVuSans-35"/>
      </g>
     </g>
    </g>
    <g id="ytick_2">
     <g id="line2d_19">
      <path clip-path="url(#pa10a2fae4a)" d="M 44.7995 240.475086 
L 443.009854 240.475086 
" style="fill:none;stroke:#b0b0b0;stroke-linecap:square;stroke-width:0.8;"/>
     </g>
     <g id="line2d_20">
      <g>
       <use style="stroke:#000000;stroke-width:0.8;" x="44.7995" xlink:href="#m5cdb434db8" y="240.475086"/>
      </g>
     </g>
     <g id="text_11">
      <!-- 0.50 -->
      <g transform="translate(15.533875 244.274305)scale(0.1 -0.1)">
       <use xlink:href="#DejaVuSans-30"/>
       <use x="63.623047" xlink:href="#DejaVuSans-2e"/>
       <use x="95.410156" xlink:href="#DejaVuSans-35"/>
       <use x="159.033203" xlink:href="#DejaVuSans-30"/>
      </g>
     </g>
    </g>
    <g id="ytick_3">
     <g id="line2d_21">
      <path clip-path="url(#pa10a2fae4a)" d="M 44.7995 201.847652 
L 443.009854 201.847652 
" style="fill:none;stroke:#b0b0b0;stroke-linecap:square;stroke-width:0.8;"/>
     </g>
     <g id="line2d_22">
      <g>
       <use style="stroke:#000000;stroke-width:0.8;" x="44.7995" xlink:href="#m5cdb434db8" y="201.847652"/>
      </g>
     </g>
     <g id="text_12">
      <!-- 0.75 -->
      <g transform="translate(15.533875 205.646871)scale(0.1 -0.1)">
       <use xlink:href="#DejaVuSans-30"/>
       <use x="63.623047" xlink:href="#DejaVuSans-2e"/>
       <use x="95.410156" xlink:href="#DejaVuSans-37"/>
       <use x="159.033203" xlink:href="#DejaVuSans-35"/>
      </g>
     </g>
    </g>
    <g id="ytick_4">
     <g id="line2d_23">
      <path clip-path="url(#pa10a2fae4a)" d="M 44.7995 163.220218 
L 443.009854 163.220218 
" style="fill:none;stroke:#b0b0b0;stroke-linecap:square;stroke-width:0.8;"/>
     </g>
     <g id="line2d_24">
      <g>
       <use style="stroke:#000000;stroke-width:0.8;" x="44.7995" xlink:href="#m5cdb434db8" y="163.220218"/>
      </g>
     </g>
     <g id="text_13">
      <!-- 1.00 -->
      <g transform="translate(15.533875 167.019437)scale(0.1 -0.1)">
       <use xlink:href="#DejaVuSans-31"/>
       <use x="63.623047" xlink:href="#DejaVuSans-2e"/>
       <use x="95.410156" xlink:href="#DejaVuSans-30"/>
       <use x="159.033203" xlink:href="#DejaVuSans-30"/>
      </g>
     </g>
    </g>
    <g id="ytick_5">
     <g id="line2d_25">
      <path clip-path="url(#pa10a2fae4a)" d="M 44.7995 124.592784 
L 443.009854 124.592784 
" style="fill:none;stroke:#b0b0b0;stroke-linecap:square;stroke-width:0.8;"/>
     </g>
     <g id="line2d_26">
      <g>
       <use style="stroke:#000000;stroke-width:0.8;" x="44.7995" xlink:href="#m5cdb434db8" y="124.592784"/>
      </g>
     </g>
     <g id="text_14">
      <!-- 1.25 -->
      <g transform="translate(15.533875 128.392003)scale(0.1 -0.1)">
       <use xlink:href="#DejaVuSans-31"/>
       <use x="63.623047" xlink:href="#DejaVuSans-2e"/>
       <use x="95.410156" xlink:href="#DejaVuSans-32"/>
       <use x="159.033203" xlink:href="#DejaVuSans-35"/>
      </g>
     </g>
    </g>
    <g id="ytick_6">
     <g id="line2d_27">
      <path clip-path="url(#pa10a2fae4a)" d="M 44.7995 85.96535 
L 443.009854 85.96535 
" style="fill:none;stroke:#b0b0b0;stroke-linecap:square;stroke-width:0.8;"/>
     </g>
     <g id="line2d_28">
      <g>
       <use style="stroke:#000000;stroke-width:0.8;" x="44.7995" xlink:href="#m5cdb434db8" y="85.96535"/>
      </g>
     </g>
     <g id="text_15">
      <!-- 1.50 -->
      <g transform="translate(15.533875 89.764568)scale(0.1 -0.1)">
       <use xlink:href="#DejaVuSans-31"/>
       <use x="63.623047" xlink:href="#DejaVuSans-2e"/>
       <use x="95.410156" xlink:href="#DejaVuSans-35"/>
       <use x="159.033203" xlink:href="#DejaVuSans-30"/>
      </g>
     </g>
    </g>
    <g id="ytick_7">
     <g id="line2d_29">
      <path clip-path="url(#pa10a2fae4a)" d="M 44.7995 47.337915 
L 443.009854 47.337915 
" style="fill:none;stroke:#b0b0b0;stroke-linecap:square;stroke-width:0.8;"/>
     </g>
     <g id="line2d_30">
      <g>
       <use style="stroke:#000000;stroke-width:0.8;" x="44.7995" xlink:href="#m5cdb434db8" y="47.337915"/>
      </g>
     </g>
     <g id="text_16">
      <!-- 1.75 -->
      <g transform="translate(15.533875 51.137134)scale(0.1 -0.1)">
       <use xlink:href="#DejaVuSans-31"/>
       <use x="63.623047" xlink:href="#DejaVuSans-2e"/>
       <use x="95.410156" xlink:href="#DejaVuSans-37"/>
       <use x="159.033203" xlink:href="#DejaVuSans-35"/>
      </g>
     </g>
    </g>
    <g id="text_17">
     <!-- Emissions / mean emissions -->
     <defs>
      <path d="M 9.8125 72.90625 
L 55.90625 72.90625 
L 55.90625 64.59375 
L 19.671875 64.59375 
L 19.671875 43.015625 
L 54.390625 43.015625 
L 54.390625 34.71875 
L 19.671875 34.71875 
L 19.671875 8.296875 
L 56.78125 8.296875 
L 56.78125 0 
L 9.8125 0 
z
" id="DejaVuSans-45"/>
      <path d="M 52 44.1875 
Q 55.375 50.25 60.0625 53.125 
Q 64.75 56 71.09375 56 
Q 79.640625 56 84.28125 50.015625 
Q 88.921875 44.046875 88.921875 33.015625 
L 88.921875 0 
L 79.890625 0 
L 79.890625 32.71875 
Q 79.890625 40.578125 77.09375 44.375 
Q 74.3125 48.1875 68.609375 48.1875 
Q 61.625 48.1875 57.5625 43.546875 
Q 53.515625 38.921875 53.515625 30.90625 
L 53.515625 0 
L 44.484375 0 
L 44.484375 32.71875 
Q 44.484375 40.625 41.703125 44.40625 
Q 38.921875 48.1875 33.109375 48.1875 
Q 26.21875 48.1875 22.15625 43.53125 
Q 18.109375 38.875 18.109375 30.90625 
L 18.109375 0 
L 9.078125 0 
L 9.078125 54.6875 
L 18.109375 54.6875 
L 18.109375 46.1875 
Q 21.1875 51.21875 25.484375 53.609375 
Q 29.78125 56 35.6875 56 
Q 41.65625 56 45.828125 52.96875 
Q 50 49.953125 52 44.1875 
z
" id="DejaVuSans-6d"/>
      <path d="M 9.421875 54.6875 
L 18.40625 54.6875 
L 18.40625 0 
L 9.421875 0 
z
M 9.421875 75.984375 
L 18.40625 75.984375 
L 18.40625 64.59375 
L 9.421875 64.59375 
z
" id="DejaVuSans-69"/>
      <path d="M 44.28125 53.078125 
L 44.28125 44.578125 
Q 40.484375 46.53125 36.375 47.5 
Q 32.28125 48.484375 27.875 48.484375 
Q 21.1875 48.484375 17.84375 46.4375 
Q 14.5 44.390625 14.5 40.28125 
Q 14.5 37.15625 16.890625 35.375 
Q 19.28125 33.59375 26.515625 31.984375 
L 29.59375 31.296875 
Q 39.15625 29.25 43.1875 25.515625 
Q 47.21875 21.78125 47.21875 15.09375 
Q 47.21875 7.46875 41.1875 3.015625 
Q 35.15625 -1.421875 24.609375 -1.421875 
Q 20.21875 -1.421875 15.453125 -0.5625 
Q 10.6875 0.296875 5.421875 2 
L 5.421875 11.28125 
Q 10.40625 8.6875 15.234375 7.390625 
Q 20.0625 6.109375 24.8125 6.109375 
Q 31.15625 6.109375 34.5625 8.28125 
Q 37.984375 10.453125 37.984375 14.40625 
Q 37.984375 18.0625 35.515625 20.015625 
Q 33.0625 21.96875 24.703125 23.78125 
L 21.578125 24.515625 
Q 13.234375 26.265625 9.515625 29.90625 
Q 5.8125 33.546875 5.8125 39.890625 
Q 5.8125 47.609375 11.28125 51.796875 
Q 16.75 56 26.8125 56 
Q 31.78125 56 36.171875 55.265625 
Q 40.578125 54.546875 44.28125 53.078125 
z
" id="DejaVuSans-73"/>
      <path d="M 30.609375 48.390625 
Q 23.390625 48.390625 19.1875 42.75 
Q 14.984375 37.109375 14.984375 27.296875 
Q 14.984375 17.484375 19.15625 11.84375 
Q 23.34375 6.203125 30.609375 6.203125 
Q 37.796875 6.203125 41.984375 11.859375 
Q 46.1875 17.53125 46.1875 27.296875 
Q 46.1875 37.015625 41.984375 42.703125 
Q 37.796875 48.390625 30.609375 48.390625 
z
M 30.609375 56 
Q 42.328125 56 49.015625 48.375 
Q 55.71875 40.765625 55.71875 27.296875 
Q 55.71875 13.875 49.015625 6.21875 
Q 42.328125 -1.421875 30.609375 -1.421875 
Q 18.84375 -1.421875 12.171875 6.21875 
Q 5.515625 13.875 5.515625 27.296875 
Q 5.515625 40.765625 12.171875 48.375 
Q 18.84375 56 30.609375 56 
z
" id="DejaVuSans-6f"/>
      <path d="M 54.890625 33.015625 
L 54.890625 0 
L 45.90625 0 
L 45.90625 32.71875 
Q 45.90625 40.484375 42.875 44.328125 
Q 39.84375 48.1875 33.796875 48.1875 
Q 26.515625 48.1875 22.3125 43.546875 
Q 18.109375 38.921875 18.109375 30.90625 
L 18.109375 0 
L 9.078125 0 
L 9.078125 54.6875 
L 18.109375 54.6875 
L 18.109375 46.1875 
Q 21.34375 51.125 25.703125 53.5625 
Q 30.078125 56 35.796875 56 
Q 45.21875 56 50.046875 50.171875 
Q 54.890625 44.34375 54.890625 33.015625 
z
" id="DejaVuSans-6e"/>
      <path id="DejaVuSans-20"/>
      <path d="M 25.390625 72.90625 
L 33.6875 72.90625 
L 8.296875 -9.28125 
L 0 -9.28125 
z
" id="DejaVuSans-2f"/>
     </defs>
     <g transform="translate(9.454188 236.862713)rotate(-90)scale(0.1 -0.1)">
      <use xlink:href="#DejaVuSans-45"/>
      <use x="63.183594" xlink:href="#DejaVuSans-6d"/>
      <use x="160.595703" xlink:href="#DejaVuSans-69"/>
      <use x="188.378906" xlink:href="#DejaVuSans-73"/>
      <use x="240.478516" xlink:href="#DejaVuSans-73"/>
      <use x="292.578125" xlink:href="#DejaVuSans-69"/>
      <use x="320.361328" xlink:href="#DejaVuSans-6f"/>
      <use x="381.542969" xlink:href="#DejaVuSans-6e"/>
      <use x="444.921875" xlink:href="#DejaVuSans-73"/>
      <use x="497.021484" xlink:href="#DejaVuSans-20"/>
      <use x="528.808594" xlink:href="#DejaVuSans-2f"/>
      <use x="562.5" xlink:href="#DejaVuSans-20"/>
      <use x="594.287109" xlink:href="#DejaVuSans-6d"/>
      <use x="691.699219" xlink:href="#DejaVuSans-65"/>
      <use x="753.222656" xlink:href="#DejaVuSans-61"/>
      <use x="814.501953" xlink:href="#DejaVuSans-6e"/>
      <use x="877.880859" xlink:href="#DejaVuSans-20"/>
      <use x="909.667969" xlink:href="#DejaVuSans-65"/>
      <use x="971.191406" xlink:href="#DejaVuSans-6d"/>
      <use x="1068.603516" xlink:href="#DejaVuSans-69"/>
      <use x="1096.386719" xlink:href="#DejaVuSans-73"/>
      <use x="1148.486328" xlink:href="#DejaVuSans-73"/>
      <use x="1200.585938" xlink:href="#DejaVuSans-69"/>
      <use x="1228.369141" xlink:href="#DejaVuSans-6f"/>
      <use x="1289.550781" xlink:href="#DejaVuSans-6e"/>
      <use x="1352.929688" xlink:href="#DejaVuSans-73"/>
     </g>
    </g>
   </g>
   <g id="line2d_31">
    <path clip-path="url(#pa10a2fae4a)" d="M 44.7995 152.060759 
L 46.578359 162.988154 
L 48.547811 226.528801 
L 50.453731 156.327674 
L 52.423183 174.343802 
L 54.329103 175.810712 
L 56.298555 167.512492 
L 58.268006 178.234657 
L 60.173927 161.519931 
L 62.143378 123.739476 
L 64.049299 128.948229 
L 66.01875 138.28572 
L 67.988201 145.034607 
L 69.767061 195.216306 
L 71.736512 238.177942 
L 73.642432 174.106331 
L 75.611884 192.008868 
L 77.517804 194.31766 
L 79.487256 202.11555 
L 81.456707 176.033554 
L 83.362628 168.470769 
L 85.332079 146.99677 
L 89.207451 191.522663 
L 91.176902 196.534376 
L 92.955762 219.768266 
L 94.925213 261.820178 
L 96.831134 170.373368 
L 98.800585 180.463669 
L 100.706506 186.70239 
L 102.675957 183.914592 
L 104.645408 206.828186 
L 106.551329 203.592424 
L 108.52078 175.376549 
L 110.426701 171.427153 
L 112.396152 147.478747 
L 114.365604 97.156098 
L 116.207994 146.102561 
L 118.177445 249.224559 
L 120.083366 189.348523 
L 122.052817 203.389313 
L 123.958738 237.061419 
L 125.928189 213.470196 
L 127.89764 174.809033 
L 129.803561 162.63654 
L 131.773012 125.163933 
L 133.678933 163.546385 
L 135.648384 145.865943 
L 137.617836 126.007477 
L 139.396695 128.294068 
L 141.366146 233.016102 
L 143.272067 208.391484 
L 145.241518 198.800078 
L 147.147439 199.786922 
L 149.11689 179.25293 
L 151.086342 195.635958 
L 152.992262 215.875451 
L 154.961714 193.546036 
L 156.867634 175.056735 
L 158.837086 159.013192 
L 160.806537 173.023505 
L 162.585396 180.930325 
L 164.554847 198.213538 
L 166.460768 253.635224 
L 168.430219 153.015571 
L 170.33614 149.95782 
L 172.305591 149.957599 
L 174.275043 144.77088 
L 176.180963 161.595538 
L 178.150415 104.355235 
L 180.056335 112.462814 
L 182.025787 151.041315 
L 183.995238 151.04321 
L 185.774097 127.16073 
L 187.743549 131.686317 
L 189.649469 229.36019 
L 191.618921 129.42025 
L 193.524841 137.645723 
L 195.494293 164.471908 
L 197.463744 168.958978 
L 199.369665 139.815847 
L 201.339116 126.502245 
L 203.245037 133.680357 
L 205.214488 58.008088 
L 207.183939 72.008551 
L 209.026329 113.295824 
L 210.995781 142.084978 
L 212.901701 210.448994 
L 214.871153 95.120534 
L 216.777073 119.745092 
L 218.746525 86.770315 
L 222.621897 71.631979 
L 224.591348 119.226116 
L 226.497269 119.199909 
L 228.46672 66.054032 
L 230.436171 52.77046 
L 232.215031 36.387707 
L 234.184482 157.550118 
L 236.090403 221.154118 
L 238.059854 90.552305 
L 239.965775 152.344794 
L 241.935226 123.957187 
L 243.904677 140.075595 
L 245.810598 126.448698 
L 247.780049 86.731158 
L 249.68597 105.414557 
L 251.655421 67.588553 
L 253.624873 86.989426 
L 255.403732 138.79521 
L 257.373183 98.654142 
L 259.279104 106.701157 
L 261.248555 99.484388 
L 263.154476 126.634998 
L 265.123927 112.573326 
L 267.093378 133.871115 
L 268.999299 130.945421 
L 270.96875 189.920281 
L 272.874671 214.981266 
L 274.844122 154.450994 
L 276.813574 130.78506 
L 278.592433 137.203755 
L 280.561884 216.04667 
L 282.467805 217.786055 
L 284.437256 163.691334 
L 286.343177 137.376915 
L 288.312628 101.62846 
L 290.28208 97.028732 
L 292.188 102.08135 
L 294.157452 110.98557 
L 296.063372 76.560196 
L 298.032824 130.1241 
L 300.002275 234.837579 
L 301.844665 200.685566 
L 303.814116 234.497497 
L 305.720037 250.771091 
L 307.689488 254.779574 
L 309.595409 182.676312 
L 311.56486 164.651311 
L 313.534312 143.853596 
L 315.440232 142.750041 
L 317.409684 122.853816 
L 319.315604 124.231142 
L 321.285056 182.594894 
L 323.254507 155.56471 
L 325.033366 158.870065 
L 327.002818 167.800303 
L 328.908738 230.75499 
L 330.87819 100.542707 
L 332.78411 117.48231 
L 334.753562 118.529392 
L 336.723013 126.759751 
L 338.628934 124.846369 
L 342.504305 159.202029 
L 344.473757 115.46643 
L 346.443208 94.424725 
L 348.222067 175.329218 
L 350.191519 208.48717 
L 352.097439 254.202326 
L 354.066891 137.543562 
L 355.972811 144.797942 
L 357.942263 120.757102 
L 359.911714 124.521631 
L 361.817635 168.064787 
L 363.787086 182.185371 
L 365.693007 127.521009 
L 367.662458 138.511526 
L 369.631909 145.30662 
L 371.410769 175.035118 
L 373.38022 171.779203 
L 375.286141 245.78961 
L 377.255592 153.402051 
L 379.161513 165.336286 
L 381.130964 160.57846 
L 383.100415 179.311356 
L 385.006336 172.249892 
L 386.975787 192.477324 
L 388.881708 194.426271 
L 390.851159 185.067536 
L 392.820611 201.058534 
L 394.663001 224.291758 
L 396.632452 264.847829 
L 398.538373 283.721165 
L 402.413745 207.35002 
L 404.383196 191.581509 
L 406.352647 183.025184 
L 408.258568 201.660598 
L 410.228019 202.332417 
L 412.13394 208.30499 
L 414.103391 168.036993 
L 416.072843 179.885518 
L 417.851702 233.492933 
L 419.821153 261.74183 
L 421.727074 284.631331 
L 423.696525 219.750981 
L 425.602446 224.994138 
L 427.571897 210.025243 
L 429.541348 226.038206 
L 431.447269 230.967748 
L 433.41672 202.235034 
L 435.322641 220.520208 
L 437.292092 216.862197 
L 439.261544 234.76415 
L 441.040403 233.702329 
L 443.009854 250.177455 
L 443.009854 250.177455 
" style="fill:none;stroke:#1f77b4;stroke-linecap:square;stroke-width:1.5;"/>
   </g>
   <g id="line2d_32">
    <path clip-path="url(#pa10a2fae4a)" d="M 44.7995 133.439799 
L 46.578359 117.991497 
L 48.547811 211.603892 
L 50.453731 105.967574 
L 52.423183 115.647367 
L 54.329103 97.909228 
L 56.298555 109.428342 
L 58.268006 107.104991 
L 60.173927 116.409939 
L 62.143378 97.600634 
L 66.01875 111.622313 
L 67.988201 114.447719 
L 69.767061 132.34093 
L 71.736512 205.086437 
L 73.642432 121.049521 
L 75.611884 126.101158 
L 77.517804 105.138395 
L 79.487256 117.830279 
L 81.456707 99.100874 
L 83.362628 111.83829 
L 85.332079 103.206086 
L 87.238 122.477642 
L 89.207451 132.14141 
L 91.176902 130.277669 
L 92.955762 165.868736 
L 94.925213 239.836587 
L 96.831134 153.636548 
L 98.800585 145.813269 
L 100.706506 140.396978 
L 102.675957 117.556706 
L 104.645408 124.479324 
L 106.551329 125.260695 
L 108.52078 122.665612 
L 110.426701 126.743948 
L 112.396152 135.223903 
L 114.365604 119.644557 
L 116.207994 141.804269 
L 118.177445 211.506922 
L 120.083366 155.374312 
L 122.052817 145.812418 
L 123.958738 147.529824 
L 125.928189 140.882082 
L 127.89764 129.060603 
L 129.803561 124.776111 
L 131.773012 121.526491 
L 133.678933 129.872951 
L 135.648384 127.192092 
L 137.617836 138.385771 
L 139.396695 155.057148 
L 141.366146 230.908234 
L 143.272067 189.952557 
L 145.241518 172.096057 
L 147.147439 138.295201 
L 149.11689 130.699212 
L 151.086342 144.807648 
L 152.992262 155.731534 
L 154.961714 146.827421 
L 156.867634 149.970227 
L 158.837086 135.872979 
L 160.806537 131.121656 
L 162.585396 132.071166 
L 164.554847 139.874656 
L 166.460768 218.580219 
L 168.430219 143.754017 
L 170.33614 116.014339 
L 172.305591 123.751683 
L 174.275043 129.081414 
L 176.180963 129.843104 
L 178.150415 111.423572 
L 180.056335 111.354266 
L 182.025787 108.839742 
L 183.995238 112.419811 
L 185.774097 120.279901 
L 187.743549 119.862985 
L 189.649469 228.2527 
L 191.618921 126.584727 
L 193.524841 124.922303 
L 195.494293 129.463753 
L 197.463744 122.876902 
L 199.369665 117.697532 
L 201.339116 131.980539 
L 203.245037 149.091749 
L 205.214488 124.914501 
L 207.183939 135.66501 
L 209.026329 146.814653 
L 210.995781 157.285903 
L 212.901701 219.969142 
L 214.871153 133.557328 
L 216.777073 131.063381 
L 218.746525 123.64487 
L 220.715976 129.471275 
L 222.621897 124.600485 
L 224.591348 142.048837 
L 226.497269 147.198718 
L 228.46672 141.733859 
L 230.436171 141.394706 
L 232.215031 136.169129 
L 234.184482 195.10687 
L 236.090403 234.894105 
L 238.059854 146.788017 
L 239.965775 185.561608 
L 241.935226 155.52792 
L 243.904677 158.745333 
L 245.810598 168.568107 
L 247.780049 145.483132 
L 249.68597 133.607715 
L 251.655421 107.390611 
L 253.624873 123.294393 
L 255.403732 153.340118 
L 257.373183 127.754269 
L 259.279104 108.778914 
L 263.154476 149.951618 
L 265.123927 137.115745 
L 267.093378 139.77497 
L 268.999299 128.856361 
L 270.96875 195.398365 
L 272.874671 232.879811 
L 274.844122 180.297782 
L 276.813574 159.182798 
L 278.592433 154.233532 
L 280.561884 215.782933 
L 282.467805 227.030895 
L 284.437256 179.441999 
L 286.343177 161.869601 
L 288.312628 134.868987 
L 290.28208 123.231633 
L 292.188 133.351485 
L 294.157452 116.26853 
L 296.063372 133.25483 
L 298.032824 144.795648 
L 300.002275 242.711532 
L 301.844665 233.986741 
L 303.814116 254.126141 
L 305.720037 262.539068 
L 307.689488 259.424083 
L 309.595409 209.842228 
L 311.56486 194.197677 
L 313.534312 169.958991 
L 315.440232 174.195733 
L 317.409684 147.204001 
L 319.315604 168.092212 
L 321.285056 182.730104 
L 323.254507 153.858581 
L 325.033366 169.124442 
L 327.002818 192.912408 
L 328.908738 256.824059 
L 330.87819 154.680041 
L 332.78411 157.822754 
L 336.723013 152.921559 
L 338.628934 153.976104 
L 340.598385 149.232024 
L 342.504305 163.829175 
L 344.473757 136.358534 
L 346.443208 121.903489 
L 348.222067 171.504751 
L 350.191519 211.189913 
L 352.097439 256.281621 
L 354.066891 167.520388 
L 357.942263 139.685553 
L 359.911714 146.713636 
L 361.817635 165.64647 
L 363.787086 183.136362 
L 365.693007 142.346667 
L 367.662458 143.297364 
L 369.631909 146.747926 
L 371.410769 162.235738 
L 373.38022 189.58382 
L 375.286141 255.742443 
L 377.255592 178.17759 
L 379.161513 188.397913 
L 381.130964 180.267895 
L 383.100415 175.726016 
L 385.006336 177.982741 
L 386.975787 177.375088 
L 388.881708 187.373442 
L 390.851159 199.132602 
L 392.820611 215.87445 
L 394.663001 242.553849 
L 396.632452 275.272518 
L 398.538373 292.9886 
L 400.507824 261.773066 
L 404.383196 242.541255 
L 406.352647 241.688479 
L 408.258568 255.425661 
L 410.228019 252.298354 
L 412.13394 253.046257 
L 414.103391 232.60668 
L 416.072843 232.153823 
L 417.851702 262.310259 
L 419.821153 286.41384 
L 421.727074 296.840843 
L 423.696525 263.703022 
L 425.602446 259.665969 
L 427.571897 246.023598 
L 429.541348 248.991711 
L 431.447269 252.724049 
L 433.41672 240.643965 
L 435.322641 244.583422 
L 437.292092 242.592006 
L 439.261544 253.461871 
L 441.040403 255.246272 
L 443.009854 272.160768 
L 443.009854 272.160768 
" style="fill:none;stroke:#ff7f0e;stroke-linecap:square;stroke-width:1.5;"/>
   </g>
   <g id="line2d_33">
    <path clip-path="url(#pa10a2fae4a)" d="M 44.7995 145.407685 
L 46.578359 127.121337 
L 48.547811 214.736255 
L 50.453731 135.610868 
L 52.423183 138.118983 
L 54.329103 131.123915 
L 56.298555 133.732238 
L 58.268006 136.896562 
L 60.173927 138.474001 
L 62.143378 131.431113 
L 64.049299 134.273455 
L 66.01875 135.463054 
L 67.988201 136.20484 
L 69.767061 158.726013 
L 71.736512 222.890682 
L 73.642432 138.277273 
L 75.611884 144.204886 
L 77.517804 130.48592 
L 79.487256 135.807602 
L 81.456707 129.139032 
L 83.362628 131.433938 
L 85.332079 134.797593 
L 87.238 132.13474 
L 89.207451 136.530679 
L 91.176902 136.482966 
L 92.955762 175.346444 
L 94.925213 230.092922 
L 96.831134 144.697185 
L 98.800585 129.440564 
L 100.706506 146.009277 
L 102.675957 128.357321 
L 104.645408 128.330131 
L 106.551329 128.724869 
L 108.52078 129.508381 
L 112.396152 133.10168 
L 114.365604 124.192146 
L 116.207994 147.698076 
L 118.177445 213.54025 
L 120.083366 145.57323 
L 122.052817 122.971947 
L 123.958738 125.289102 
L 125.928189 122.394985 
L 127.89764 121.639647 
L 129.803561 120.704567 
L 131.773012 113.231786 
L 133.678933 117.24487 
L 135.648384 112.72335 
L 137.617836 126.305755 
L 139.396695 147.048381 
L 141.366146 213.075628 
L 143.272067 165.903949 
L 145.241518 150.106059 
L 147.147439 122.560527 
L 149.11689 124.637002 
L 151.086342 139.287693 
L 152.992262 141.798749 
L 154.961714 124.692364 
L 156.867634 126.187129 
L 158.837086 121.55645 
L 160.806537 119.016235 
L 162.585396 117.707436 
L 164.554847 131.882626 
L 166.460768 222.983511 
L 168.430219 140.307656 
L 170.33614 116.117541 
L 174.275043 126.64879 
L 176.180963 127.537564 
L 178.150415 119.951424 
L 180.056335 121.928471 
L 182.025787 119.534583 
L 183.995238 118.272036 
L 185.774097 122.135958 
L 187.743549 125.46543 
L 189.649469 222.139612 
L 191.618921 129.735228 
L 193.524841 122.906666 
L 195.494293 125.742854 
L 197.463744 122.297432 
L 199.369665 121.559599 
L 201.339116 142.465589 
L 203.245037 150.25079 
L 205.214488 129.990284 
L 207.183939 136.972573 
L 209.026329 140.734526 
L 210.995781 154.905391 
L 212.901701 223.662719 
L 214.871153 146.522423 
L 216.777073 139.332696 
L 218.746525 139.467195 
L 220.715976 144.982067 
L 222.621897 144.265449 
L 224.591348 146.428568 
L 226.497269 140.399637 
L 228.46672 134.648379 
L 230.436171 138.050498 
L 232.215031 135.749595 
L 234.184482 187.687204 
L 236.090403 232.36237 
L 238.059854 155.021937 
L 239.965775 177.590271 
L 241.935226 153.232139 
L 243.904677 158.434118 
L 245.810598 164.336161 
L 247.780049 145.65875 
L 249.68597 147.115504 
L 251.655421 133.692085 
L 253.624873 138.325021 
L 255.403732 169.039215 
L 257.373183 147.83812 
L 259.279104 141.171771 
L 261.248555 148.579579 
L 263.154476 160.852143 
L 265.123927 155.36518 
L 267.093378 148.253556 
L 268.999299 144.835212 
L 270.96875 208.656334 
L 272.874671 242.436963 
L 274.844122 190.764439 
L 276.813574 161.581157 
L 278.592433 159.254133 
L 280.561884 212.546018 
L 282.467805 228.198806 
L 284.437256 172.881658 
L 286.343177 169.278966 
L 288.312628 155.358649 
L 290.28208 146.88154 
L 292.188 152.41331 
L 294.157452 141.463593 
L 296.063372 158.094179 
L 298.032824 160.933829 
L 300.002275 244.530482 
L 301.844665 236.513935 
L 303.814116 247.457753 
L 305.720037 252.881107 
L 307.689488 248.194577 
L 309.595409 190.502214 
L 311.56486 183.784254 
L 313.534312 166.726565 
L 315.440232 173.214615 
L 317.409684 158.120325 
L 319.315604 183.003436 
L 321.285056 182.993861 
L 323.254507 158.101633 
L 325.033366 173.208644 
L 327.002818 200.472508 
L 328.908738 257.484109 
L 330.87819 165.317326 
L 332.78411 164.766382 
L 334.753562 161.768911 
L 336.723013 160.75748 
L 338.628934 162.101678 
L 340.598385 161.846995 
L 342.504305 165.499958 
L 344.473757 151.641673 
L 346.443208 141.753744 
L 348.222067 181.211829 
L 350.191519 209.258686 
L 352.097439 251.993819 
L 354.066891 171.338003 
L 355.972811 159.9307 
L 357.942263 152.21236 
L 359.911714 156.865618 
L 361.817635 169.66666 
L 363.787086 188.877885 
L 365.693007 152.538841 
L 367.662458 158.262599 
L 369.631909 159.333189 
L 371.410769 175.991955 
L 373.38022 185.616696 
L 375.286141 253.087183 
L 377.255592 172.178856 
L 379.161513 178.598152 
L 381.130964 172.348616 
L 383.100415 171.448945 
L 385.006336 174.149587 
L 386.975787 170.974759 
L 388.881708 175.446696 
L 390.851159 181.81436 
L 392.820611 191.069591 
L 394.663001 210.585808 
L 396.632452 247.20584 
L 398.538373 274.777125 
L 400.507824 233.53124 
L 402.413745 217.630973 
L 406.352647 209.211845 
L 408.258568 214.547186 
L 410.228019 210.077785 
L 412.13394 215.075852 
L 414.103391 194.581466 
L 416.072843 193.312606 
L 417.851702 221.995994 
L 419.821153 263.932407 
L 421.727074 282.04357 
L 423.696525 222.943307 
L 425.602446 221.580951 
L 427.571897 208.639792 
L 429.541348 210.369491 
L 431.447269 216.634194 
L 433.41672 200.805212 
L 435.322641 202.528004 
L 437.292092 203.805215 
L 439.261544 215.422216 
L 441.040403 219.083359 
L 443.009854 241.836002 
L 443.009854 241.836002 
" style="fill:none;stroke:#2ca02c;stroke-linecap:square;stroke-width:1.5;"/>
   </g>
   <g id="patch_3">
    <path d="M 44.7995 309.8635 
L 44.7995 23.36505 
" style="fill:none;stroke:#000000;stroke-linecap:square;stroke-linejoin:miter;stroke-width:0.8;"/>
   </g>
   <g id="patch_4">
    <path d="M 443.009854 309.8635 
L 443.009854 23.36505 
" style="fill:none;stroke:#000000;stroke-linecap:square;stroke-linejoin:miter;stroke-width:0.8;"/>
   </g>
   <g id="patch_5">
    <path d="M 44.7995 309.8635 
L 443.009854 309.8635 
" style="fill:none;stroke:#000000;stroke-linecap:square;stroke-linejoin:miter;stroke-width:0.8;"/>
   </g>
   <g id="patch_6">
    <path d="M 44.7995 23.36505 
L 443.009854 23.36505 
" style="fill:none;stroke:#000000;stroke-linecap:square;stroke-linejoin:miter;stroke-width:0.8;"/>
   </g>
   <g id="text_18">
    <!-- Average monthly normalized emissions -->
    <defs>
     <path d="M 34.1875 63.1875 
L 20.796875 26.90625 
L 47.609375 26.90625 
z
M 28.609375 72.90625 
L 39.796875 72.90625 
L 67.578125 0 
L 57.328125 0 
L 50.6875 18.703125 
L 17.828125 18.703125 
L 11.1875 0 
L 0.78125 0 
z
" id="DejaVuSans-41"/>
     <path d="M 2.984375 54.6875 
L 12.5 54.6875 
L 29.59375 8.796875 
L 46.6875 54.6875 
L 56.203125 54.6875 
L 35.6875 0 
L 23.484375 0 
z
" id="DejaVuSans-76"/>
     <path d="M 41.109375 46.296875 
Q 39.59375 47.171875 37.8125 47.578125 
Q 36.03125 48 33.890625 48 
Q 26.265625 48 22.1875 43.046875 
Q 18.109375 38.09375 18.109375 28.8125 
L 18.109375 0 
L 9.078125 0 
L 9.078125 54.6875 
L 18.109375 54.6875 
L 18.109375 46.1875 
Q 20.953125 51.171875 25.484375 53.578125 
Q 30.03125 56 36.53125 56 
Q 37.453125 56 38.578125 55.875 
Q 39.703125 55.765625 41.0625 55.515625 
z
" id="DejaVuSans-72"/>
     <path d="M 45.40625 27.984375 
Q 45.40625 37.75 41.375 43.109375 
Q 37.359375 48.484375 30.078125 48.484375 
Q 22.859375 48.484375 18.828125 43.109375 
Q 14.796875 37.75 14.796875 27.984375 
Q 14.796875 18.265625 18.828125 12.890625 
Q 22.859375 7.515625 30.078125 7.515625 
Q 37.359375 7.515625 41.375 12.890625 
Q 45.40625 18.265625 45.40625 27.984375 
z
M 54.390625 6.78125 
Q 54.390625 -7.171875 48.1875 -13.984375 
Q 42 -20.796875 29.203125 -20.796875 
Q 24.46875 -20.796875 20.265625 -20.09375 
Q 16.0625 -19.390625 12.109375 -17.921875 
L 12.109375 -9.1875 
Q 16.0625 -11.328125 19.921875 -12.34375 
Q 23.78125 -13.375 27.78125 -13.375 
Q 36.625 -13.375 41.015625 -8.765625 
Q 45.40625 -4.15625 45.40625 5.171875 
L 45.40625 9.625 
Q 42.625 4.78125 38.28125 2.390625 
Q 33.9375 0 27.875 0 
Q 17.828125 0 11.671875 7.65625 
Q 5.515625 15.328125 5.515625 27.984375 
Q 5.515625 40.671875 11.671875 48.328125 
Q 17.828125 56 27.875 56 
Q 33.9375 56 38.28125 53.609375 
Q 42.625 51.21875 45.40625 46.390625 
L 45.40625 54.6875 
L 54.390625 54.6875 
z
" id="DejaVuSans-67"/>
     <path d="M 54.890625 33.015625 
L 54.890625 0 
L 45.90625 0 
L 45.90625 32.71875 
Q 45.90625 40.484375 42.875 44.328125 
Q 39.84375 48.1875 33.796875 48.1875 
Q 26.515625 48.1875 22.3125 43.546875 
Q 18.109375 38.921875 18.109375 30.90625 
L 18.109375 0 
L 9.078125 0 
L 9.078125 75.984375 
L 18.109375 75.984375 
L 18.109375 46.1875 
Q 21.34375 51.125 25.703125 53.5625 
Q 30.078125 56 35.796875 56 
Q 45.21875 56 50.046875 50.171875 
Q 54.890625 44.34375 54.890625 33.015625 
z
" id="DejaVuSans-68"/>
     <path d="M 9.421875 75.984375 
L 18.40625 75.984375 
L 18.40625 0 
L 9.421875 0 
z
" id="DejaVuSans-6c"/>
     <path d="M 32.171875 -5.078125 
Q 28.375 -14.84375 24.75 -17.8125 
Q 21.140625 -20.796875 15.09375 -20.796875 
L 7.90625 -20.796875 
L 7.90625 -13.28125 
L 13.1875 -13.28125 
Q 16.890625 -13.28125 18.9375 -11.515625 
Q 21 -9.765625 23.484375 -3.21875 
L 25.09375 0.875 
L 2.984375 54.6875 
L 12.5 54.6875 
L 29.59375 11.921875 
L 46.6875 54.6875 
L 56.203125 54.6875 
z
" id="DejaVuSans-79"/>
     <path d="M 5.515625 54.6875 
L 48.1875 54.6875 
L 48.1875 46.484375 
L 14.40625 7.171875 
L 48.1875 7.171875 
L 48.1875 0 
L 4.296875 0 
L 4.296875 8.203125 
L 38.09375 47.515625 
L 5.515625 47.515625 
z
" id="DejaVuSans-7a"/>
     <path d="M 45.40625 46.390625 
L 45.40625 75.984375 
L 54.390625 75.984375 
L 54.390625 0 
L 45.40625 0 
L 45.40625 8.203125 
Q 42.578125 3.328125 38.25 0.953125 
Q 33.9375 -1.421875 27.875 -1.421875 
Q 17.96875 -1.421875 11.734375 6.484375 
Q 5.515625 14.40625 5.515625 27.296875 
Q 5.515625 40.1875 11.734375 48.09375 
Q 17.96875 56 27.875 56 
Q 33.9375 56 38.25 53.625 
Q 42.578125 51.265625 45.40625 46.390625 
z
M 14.796875 27.296875 
Q 14.796875 17.390625 18.875 11.75 
Q 22.953125 6.109375 30.078125 6.109375 
Q 37.203125 6.109375 41.296875 11.75 
Q 45.40625 17.390625 45.40625 27.296875 
Q 45.40625 37.203125 41.296875 42.84375 
Q 37.203125 48.484375 30.078125 48.484375 
Q 22.953125 48.484375 18.875 42.84375 
Q 14.796875 37.203125 14.796875 27.296875 
z
" id="DejaVuSans-64"/>
    </defs>
    <g transform="translate(125.340927 17.36505)scale(0.12 -0.12)">
     <use xlink:href="#DejaVuSans-41"/>
     <use x="68.330078" xlink:href="#DejaVuSans-76"/>
     <use x="127.509766" xlink:href="#DejaVuSans-65"/>
     <use x="189.033203" xlink:href="#DejaVuSans-72"/>
     <use x="230.146484" xlink:href="#DejaVuSans-61"/>
     <use x="291.425781" xlink:href="#DejaVuSans-67"/>
     <use x="354.902344" xlink:href="#DejaVuSans-65"/>
     <use x="416.425781" xlink:href="#DejaVuSans-20"/>
     <use x="448.212891" xlink:href="#DejaVuSans-6d"/>
     <use x="545.625" xlink:href="#DejaVuSans-6f"/>
     <use x="606.806641" xlink:href="#DejaVuSans-6e"/>
     <use x="670.185547" xlink:href="#DejaVuSans-74"/>
     <use x="709.394531" xlink:href="#DejaVuSans-68"/>
     <use x="772.773438" xlink:href="#DejaVuSans-6c"/>
     <use x="800.556641" xlink:href="#DejaVuSans-79"/>
     <use x="859.736328" xlink:href="#DejaVuSans-20"/>
     <use x="891.523438" xlink:href="#DejaVuSans-6e"/>
     <use x="954.902344" xlink:href="#DejaVuSans-6f"/>
     <use x="1016.083984" xlink:href="#DejaVuSans-72"/>
     <use x="1057.181641" xlink:href="#DejaVuSans-6d"/>
     <use x="1154.59375" xlink:href="#DejaVuSans-61"/>
     <use x="1215.873047" xlink:href="#DejaVuSans-6c"/>
     <use x="1243.65625" xlink:href="#DejaVuSans-69"/>
     <use x="1271.439453" xlink:href="#DejaVuSans-7a"/>
     <use x="1323.929688" xlink:href="#DejaVuSans-65"/>
     <use x="1385.453125" xlink:href="#DejaVuSans-64"/>
     <use x="1448.929688" xlink:href="#DejaVuSans-20"/>
     <use x="1480.716797" xlink:href="#DejaVuSans-65"/>
     <use x="1542.240234" xlink:href="#DejaVuSans-6d"/>
     <use x="1639.652344" xlink:href="#DejaVuSans-69"/>
     <use x="1667.435547" xlink:href="#DejaVuSans-73"/>
     <use x="1719.535156" xlink:href="#DejaVuSans-73"/>
     <use x="1771.634766" xlink:href="#DejaVuSans-69"/>
     <use x="1799.417969" xlink:href="#DejaVuSans-6f"/>
     <use x="1860.599609" xlink:href="#DejaVuSans-6e"/>
     <use x="1923.978516" xlink:href="#DejaVuSans-73"/>
    </g>
   </g>
   <g id="legend_1">
    <g id="patch_7">
     <path d="M 382.737979 75.399425 
L 436.009854 75.399425 
Q 438.009854 75.399425 438.009854 73.399425 
L 438.009854 30.36505 
Q 438.009854 28.36505 436.009854 28.36505 
L 382.737979 28.36505 
Q 380.737979 28.36505 380.737979 30.36505 
L 380.737979 73.399425 
Q 380.737979 75.399425 382.737979 75.399425 
z
" style="fill:#ffffff;opacity:0.8;stroke:#cccccc;stroke-linejoin:miter;"/>
    </g>
    <g id="line2d_34">
     <path d="M 384.737979 36.463488 
L 404.737979 36.463488 
" style="fill:none;stroke:#1f77b4;stroke-linecap:square;stroke-width:1.5;"/>
    </g>
    <g id="line2d_35"/>
    <g id="text_19">
     <!-- SOx -->
     <defs>
      <path d="M 53.515625 70.515625 
L 53.515625 60.890625 
Q 47.90625 63.578125 42.921875 64.890625 
Q 37.9375 66.21875 33.296875 66.21875 
Q 25.25 66.21875 20.875 63.09375 
Q 16.5 59.96875 16.5 54.203125 
Q 16.5 49.359375 19.40625 46.890625 
Q 22.3125 44.4375 30.421875 42.921875 
L 36.375 41.703125 
Q 47.40625 39.59375 52.65625 34.296875 
Q 57.90625 29 57.90625 20.125 
Q 57.90625 9.515625 50.796875 4.046875 
Q 43.703125 -1.421875 29.984375 -1.421875 
Q 24.8125 -1.421875 18.96875 -0.25 
Q 13.140625 0.921875 6.890625 3.21875 
L 6.890625 13.375 
Q 12.890625 10.015625 18.65625 8.296875 
Q 24.421875 6.59375 29.984375 6.59375 
Q 38.421875 6.59375 43.015625 9.90625 
Q 47.609375 13.234375 47.609375 19.390625 
Q 47.609375 24.75 44.3125 27.78125 
Q 41.015625 30.8125 33.5 32.328125 
L 27.484375 33.5 
Q 16.453125 35.6875 11.515625 40.375 
Q 6.59375 45.0625 6.59375 53.421875 
Q 6.59375 63.09375 13.40625 68.65625 
Q 20.21875 74.21875 32.171875 74.21875 
Q 37.3125 74.21875 42.625 73.28125 
Q 47.953125 72.359375 53.515625 70.515625 
z
" id="DejaVuSans-53"/>
      <path d="M 39.40625 66.21875 
Q 28.65625 66.21875 22.328125 58.203125 
Q 16.015625 50.203125 16.015625 36.375 
Q 16.015625 22.609375 22.328125 14.59375 
Q 28.65625 6.59375 39.40625 6.59375 
Q 50.140625 6.59375 56.421875 14.59375 
Q 62.703125 22.609375 62.703125 36.375 
Q 62.703125 50.203125 56.421875 58.203125 
Q 50.140625 66.21875 39.40625 66.21875 
z
M 39.40625 74.21875 
Q 54.734375 74.21875 63.90625 63.9375 
Q 73.09375 53.65625 73.09375 36.375 
Q 73.09375 19.140625 63.90625 8.859375 
Q 54.734375 -1.421875 39.40625 -1.421875 
Q 24.03125 -1.421875 14.8125 8.828125 
Q 5.609375 19.09375 5.609375 36.375 
Q 5.609375 53.65625 14.8125 63.9375 
Q 24.03125 74.21875 39.40625 74.21875 
z
" id="DejaVuSans-4f"/>
      <path d="M 54.890625 54.6875 
L 35.109375 28.078125 
L 55.90625 0 
L 45.3125 0 
L 29.390625 21.484375 
L 13.484375 0 
L 2.875 0 
L 24.125 28.609375 
L 4.6875 54.6875 
L 15.28125 54.6875 
L 29.78125 35.203125 
L 44.28125 54.6875 
z
" id="DejaVuSans-78"/>
     </defs>
     <g transform="translate(412.737979 39.963488)scale(0.1 -0.1)">
      <use xlink:href="#DejaVuSans-53"/>
      <use x="63.476562" xlink:href="#DejaVuSans-4f"/>
      <use x="142.1875" xlink:href="#DejaVuSans-78"/>
     </g>
    </g>
    <g id="line2d_36">
     <path d="M 384.737979 51.141613 
L 404.737979 51.141613 
" style="fill:none;stroke:#ff7f0e;stroke-linecap:square;stroke-width:1.5;"/>
    </g>
    <g id="line2d_37"/>
    <g id="text_20">
     <!-- NOx -->
     <defs>
      <path d="M 9.8125 72.90625 
L 23.09375 72.90625 
L 55.421875 11.921875 
L 55.421875 72.90625 
L 64.984375 72.90625 
L 64.984375 0 
L 51.703125 0 
L 19.390625 60.984375 
L 19.390625 0 
L 9.8125 0 
z
" id="DejaVuSans-4e"/>
     </defs>
     <g transform="translate(412.737979 54.641613)scale(0.1 -0.1)">
      <use xlink:href="#DejaVuSans-4e"/>
      <use x="74.804688" xlink:href="#DejaVuSans-4f"/>
      <use x="153.515625" xlink:href="#DejaVuSans-78"/>
     </g>
    </g>
    <g id="line2d_38">
     <path d="M 384.737979 65.819738 
L 404.737979 65.819738 
" style="fill:none;stroke:#2ca02c;stroke-linecap:square;stroke-width:1.5;"/>
    </g>
    <g id="line2d_39"/>
    <g id="text_21">
     <!-- CO2 -->
     <defs>
      <path d="M 64.40625 67.28125 
L 64.40625 56.890625 
Q 59.421875 61.53125 53.78125 63.8125 
Q 48.140625 66.109375 41.796875 66.109375 
Q 29.296875 66.109375 22.65625 58.46875 
Q 16.015625 50.828125 16.015625 36.375 
Q 16.015625 21.96875 22.65625 14.328125 
Q 29.296875 6.6875 41.796875 6.6875 
Q 48.140625 6.6875 53.78125 8.984375 
Q 59.421875 11.28125 64.40625 15.921875 
L 64.40625 5.609375 
Q 59.234375 2.09375 53.4375 0.328125 
Q 47.65625 -1.421875 41.21875 -1.421875 
Q 24.65625 -1.421875 15.125 8.703125 
Q 5.609375 18.84375 5.609375 36.375 
Q 5.609375 53.953125 15.125 64.078125 
Q 24.65625 74.21875 41.21875 74.21875 
Q 47.75 74.21875 53.53125 72.484375 
Q 59.328125 70.75 64.40625 67.28125 
z
" id="DejaVuSans-43"/>
     </defs>
     <g transform="translate(412.737979 69.319738)scale(0.1 -0.1)">
      <use xlink:href="#DejaVuSans-43"/>
      <use x="69.824219" xlink:href="#DejaVuSans-4f"/>
      <use x="148.535156" xlink:href="#DejaVuSans-32"/>
     </g>
    </g>
   </g>
  </g>
 </g>
 <defs>
  <clipPath id="pa10a2fae4a">
   <rect height="286.49845" width="398.210354" x="44.7995" y="23.36505"/>
  </clipPath>
 </defs>
</svg>
