<?xml version="1.0" encoding="utf-8" standalone="no"?>
<!DOCTYPE svg PUBLIC "-//W3C//DTD SVG 1.1//EN"
  "http://www.w3.org/Graphics/SVG/1.1/DTD/svg11.dtd">
<!-- Created with matplotlib (http://matplotlib.org/) -->
<svg height="345.6pt" version="1.1" viewBox="0 0 460.8 345.6" width="460.8pt" xmlns="http://www.w3.org/2000/svg" xmlns:xlink="http://www.w3.org/1999/xlink">
 <defs>
  <style type="text/css">
*{stroke-linecap:butt;stroke-linejoin:round;}
  </style>
 </defs>
 <g id="figure_1">
  <g id="patch_1">
   <path d="M 0 345.6 
L 460.8 345.6 
L 460.8 0 
L 0 0 
z
" style="fill:none;"/>
  </g>
  <g id="axes_1">
   <g id="patch_2">
    <path d="M 22.381 108.304533 
L 447.48 108.304533 
L 447.48 23.36505 
L 22.381 23.36505 
z
" style="fill:none;"/>
   </g>
   <g id="matplotlib.axis_1">
    <g id="xtick_1">
     <g id="line2d_1">
      <path clip-path="url(#pc272ea4e28)" d="M 69.855362 108.304533 
L 69.855362 23.36505 
" style="fill:none;stroke:#b0b0b0;stroke-linecap:square;stroke-width:0.8;"/>
     </g>
     <g id="line2d_2">
      <defs>
       <path d="M 0 0 
L 0 3.5 
" id="mf1d0d70ba2" style="stroke:#000000;stroke-width:0.8;"/>
      </defs>
      <g>
       <use style="stroke:#000000;stroke-width:0.8;" x="69.855362" xlink:href="#mf1d0d70ba2" y="108.304533"/>
      </g>
     </g>
    </g>
    <g id="xtick_2">
     <g id="line2d_3">
      <path clip-path="url(#pc272ea4e28)" d="M 119.43216 108.304533 
L 119.43216 23.36505 
" style="fill:none;stroke:#b0b0b0;stroke-linecap:square;stroke-width:0.8;"/>
     </g>
     <g id="line2d_4">
      <g>
       <use style="stroke:#000000;stroke-width:0.8;" x="119.43216" xlink:href="#mf1d0d70ba2" y="108.304533"/>
      </g>
     </g>
    </g>
    <g id="xtick_3">
     <g id="line2d_5">
      <path clip-path="url(#pc272ea4e28)" d="M 168.941137 108.304533 
L 168.941137 23.36505 
" style="fill:none;stroke:#b0b0b0;stroke-linecap:square;stroke-width:0.8;"/>
     </g>
     <g id="line2d_6">
      <g>
       <use style="stroke:#000000;stroke-width:0.8;" x="168.941137" xlink:href="#mf1d0d70ba2" y="108.304533"/>
      </g>
     </g>
    </g>
    <g id="xtick_4">
     <g id="line2d_7">
      <path clip-path="url(#pc272ea4e28)" d="M 218.517935 108.304533 
L 218.517935 23.36505 
" style="fill:none;stroke:#b0b0b0;stroke-linecap:square;stroke-width:0.8;"/>
     </g>
     <g id="line2d_8">
      <g>
       <use style="stroke:#000000;stroke-width:0.8;" x="218.517935" xlink:href="#mf1d0d70ba2" y="108.304533"/>
      </g>
     </g>
    </g>
    <g id="xtick_5">
     <g id="line2d_9">
      <path clip-path="url(#pc272ea4e28)" d="M 268.026912 108.304533 
L 268.026912 23.36505 
" style="fill:none;stroke:#b0b0b0;stroke-linecap:square;stroke-width:0.8;"/>
     </g>
     <g id="line2d_10">
      <g>
       <use style="stroke:#000000;stroke-width:0.8;" x="268.026912" xlink:href="#mf1d0d70ba2" y="108.304533"/>
      </g>
     </g>
    </g>
    <g id="xtick_6">
     <g id="line2d_11">
      <path clip-path="url(#pc272ea4e28)" d="M 317.60371 108.304533 
L 317.60371 23.36505 
" style="fill:none;stroke:#b0b0b0;stroke-linecap:square;stroke-width:0.8;"/>
     </g>
     <g id="line2d_12">
      <g>
       <use style="stroke:#000000;stroke-width:0.8;" x="317.60371" xlink:href="#mf1d0d70ba2" y="108.304533"/>
      </g>
     </g>
    </g>
    <g id="xtick_7">
     <g id="line2d_13">
      <path clip-path="url(#pc272ea4e28)" d="M 367.112687 108.304533 
L 367.112687 23.36505 
" style="fill:none;stroke:#b0b0b0;stroke-linecap:square;stroke-width:0.8;"/>
     </g>
     <g id="line2d_14">
      <g>
       <use style="stroke:#000000;stroke-width:0.8;" x="367.112687" xlink:href="#mf1d0d70ba2" y="108.304533"/>
      </g>
     </g>
    </g>
    <g id="xtick_8">
     <g id="line2d_15">
      <path clip-path="url(#pc272ea4e28)" d="M 416.689485 108.304533 
L 416.689485 23.36505 
" style="fill:none;stroke:#b0b0b0;stroke-linecap:square;stroke-width:0.8;"/>
     </g>
     <g id="line2d_16">
      <g>
       <use style="stroke:#000000;stroke-width:0.8;" x="416.689485" xlink:href="#mf1d0d70ba2" y="108.304533"/>
      </g>
     </g>
    </g>
   </g>
   <g id="matplotlib.axis_2">
    <g id="ytick_1">
     <g id="line2d_17">
      <path clip-path="url(#pc272ea4e28)" d="M 22.381 104.443648 
L 447.48 104.443648 
" style="fill:none;stroke:#b0b0b0;stroke-linecap:square;stroke-width:0.8;"/>
     </g>
     <g id="line2d_18">
      <defs>
       <path d="M 0 0 
L -3.5 0 
" id="mb15685b87c" style="stroke:#000000;stroke-width:0.8;"/>
      </defs>
      <g>
       <use style="stroke:#000000;stroke-width:0.8;" x="22.381" xlink:href="#mb15685b87c" y="104.443648"/>
      </g>
     </g>
     <g id="text_1">
      <!-- 0 -->
      <defs>
       <path d="M 31.78125 66.40625 
Q 24.171875 66.40625 20.328125 58.90625 
Q 16.5 51.421875 16.5 36.375 
Q 16.5 21.390625 20.328125 13.890625 
Q 24.171875 6.390625 31.78125 6.390625 
Q 39.453125 6.390625 43.28125 13.890625 
Q 47.125 21.390625 47.125 36.375 
Q 47.125 51.421875 43.28125 58.90625 
Q 39.453125 66.40625 31.78125 66.40625 
z
M 31.78125 74.21875 
Q 44.046875 74.21875 50.515625 64.515625 
Q 56.984375 54.828125 56.984375 36.375 
Q 56.984375 17.96875 50.515625 8.265625 
Q 44.046875 -1.421875 31.78125 -1.421875 
Q 19.53125 -1.421875 13.0625 8.265625 
Q 6.59375 17.96875 6.59375 36.375 
Q 6.59375 54.828125 13.0625 64.515625 
Q 19.53125 74.21875 31.78125 74.21875 
z
" id="DejaVuSans-30"/>
      </defs>
      <g transform="translate(9.0185 108.242866)scale(0.1 -0.1)">
       <use xlink:href="#DejaVuSans-30"/>
      </g>
     </g>
    </g>
    <g id="ytick_2">
     <g id="line2d_19">
      <path clip-path="url(#pc272ea4e28)" d="M 22.381 73.353297 
L 447.48 73.353297 
" style="fill:none;stroke:#b0b0b0;stroke-linecap:square;stroke-width:0.8;"/>
     </g>
     <g id="line2d_20">
      <g>
       <use style="stroke:#000000;stroke-width:0.8;" x="22.381" xlink:href="#mb15685b87c" y="73.353297"/>
      </g>
     </g>
     <g id="text_2">
      <!-- 1 -->
      <defs>
       <path d="M 12.40625 8.296875 
L 28.515625 8.296875 
L 28.515625 63.921875 
L 10.984375 60.40625 
L 10.984375 69.390625 
L 28.421875 72.90625 
L 38.28125 72.90625 
L 38.28125 8.296875 
L 54.390625 8.296875 
L 54.390625 0 
L 12.40625 0 
z
" id="DejaVuSans-31"/>
      </defs>
      <g transform="translate(9.0185 77.152516)scale(0.1 -0.1)">
       <use xlink:href="#DejaVuSans-31"/>
      </g>
     </g>
    </g>
    <g id="ytick_3">
     <g id="line2d_21">
      <path clip-path="url(#pc272ea4e28)" d="M 22.381 42.262946 
L 447.48 42.262946 
" style="fill:none;stroke:#b0b0b0;stroke-linecap:square;stroke-width:0.8;"/>
     </g>
     <g id="line2d_22">
      <g>
       <use style="stroke:#000000;stroke-width:0.8;" x="22.381" xlink:href="#mb15685b87c" y="42.262946"/>
      </g>
     </g>
     <g id="text_3">
      <!-- 2 -->
      <defs>
       <path d="M 19.1875 8.296875 
L 53.609375 8.296875 
L 53.609375 0 
L 7.328125 0 
L 7.328125 8.296875 
Q 12.9375 14.109375 22.625 23.890625 
Q 32.328125 33.6875 34.8125 36.53125 
Q 39.546875 41.84375 41.421875 45.53125 
Q 43.3125 49.21875 43.3125 52.78125 
Q 43.3125 58.59375 39.234375 62.25 
Q 35.15625 65.921875 28.609375 65.921875 
Q 23.96875 65.921875 18.8125 64.3125 
Q 13.671875 62.703125 7.8125 59.421875 
L 7.8125 69.390625 
Q 13.765625 71.78125 18.9375 73 
Q 24.125 74.21875 28.421875 74.21875 
Q 39.75 74.21875 46.484375 68.546875 
Q 53.21875 62.890625 53.21875 53.421875 
Q 53.21875 48.921875 51.53125 44.890625 
Q 49.859375 40.875 45.40625 35.40625 
Q 44.1875 33.984375 37.640625 27.21875 
Q 31.109375 20.453125 19.1875 8.296875 
z
" id="DejaVuSans-32"/>
      </defs>
      <g transform="translate(9.0185 46.062165)scale(0.1 -0.1)">
       <use xlink:href="#DejaVuSans-32"/>
      </g>
     </g>
    </g>
   </g>
   <g id="line2d_23">
    <path clip-path="url(#pc272ea4e28)" d="M 22.381 73.981438 
L 24.279974 87.924299 
L 26.38241 79.509491 
L 28.417026 76.066467 
L 30.519462 81.737821 
L 32.554078 88.049022 
L 34.656514 83.32882 
L 36.75895 87.399433 
L 38.793565 95.805359 
L 40.896001 86.493953 
L 42.930617 76.906624 
L 45.033053 80.892064 
L 47.135489 78.923107 
L 49.034463 79.22121 
L 51.136899 83.295603 
L 53.171515 104.443648 
L 55.273951 102.729932 
L 57.308566 98.346105 
L 59.411002 95.046869 
L 61.513438 99.531065 
L 63.548054 90.761215 
L 65.65049 95.991073 
L 67.685105 104.443648 
L 69.787541 80.168851 
L 71.889977 94.623991 
L 73.788952 90.911014 
L 75.891388 85.974004 
L 77.926003 90.185518 
L 80.028439 97.758316 
L 82.063055 101.671876 
L 84.165491 97.63801 
L 86.267927 94.029517 
L 88.302542 70.42066 
L 90.404978 75.55385 
L 92.439594 77.360138 
L 94.54203 76.672919 
L 96.644466 82.4958 
L 98.611261 80.400222 
L 100.713697 79.019145 
L 102.748313 88.534016 
L 104.850749 90.722048 
L 106.885364 90.989572 
L 108.9878 69.380722 
L 111.090236 63.173343 
L 113.124852 75.048105 
L 115.227288 76.678083 
L 117.261903 74.286913 
L 119.364339 76.213381 
L 121.466775 72.271336 
L 123.36575 79.586118 
L 125.468186 75.180195 
L 127.502801 76.938459 
L 131.639853 79.620239 
L 133.742289 71.192713 
L 135.844725 72.991279 
L 139.981776 75.004125 
L 142.016392 71.916901 
L 144.118828 74.04116 
L 146.221264 80.794649 
L 148.120238 81.335577 
L 150.222674 81.564848 
L 152.25729 81.563414 
L 154.359726 77.178583 
L 156.394341 75.050417 
L 158.496777 61.704026 
L 160.599213 71.387887 
L 162.633829 66.172211 
L 164.736265 74.386761 
L 166.770881 76.164639 
L 168.873317 70.41976 
L 170.975753 66.423672 
L 172.874727 76.238497 
L 174.977163 77.085471 
L 177.011779 90.362122 
L 179.114215 76.947437 
L 181.14883 71.88311 
L 183.251266 70.216496 
L 185.353702 66.823143 
L 187.388318 71.561382 
L 189.490754 75.361945 
L 191.525369 76.781063 
L 193.627805 74.0835 
L 197.697036 62.918678 
L 199.799472 75.442665 
L 201.834088 72.910364 
L 203.936524 71.520241 
L 205.971139 71.004004 
L 208.073575 73.301425 
L 210.176011 67.416239 
L 212.210627 69.160602 
L 214.313063 77.703696 
L 216.347678 76.602503 
L 218.450114 76.303396 
L 220.55255 75.115137 
L 222.451525 77.202691 
L 224.553961 27.225936 
L 226.588576 82.513837 
L 228.691012 82.058809 
L 230.725628 83.421221 
L 232.828064 73.291614 
L 234.9305 65.737118 
L 236.965116 61.831991 
L 239.067552 71.447782 
L 241.102167 77.82628 
L 243.204603 73.215713 
L 245.307039 77.393551 
L 247.206014 75.621108 
L 249.30845 78.076834 
L 251.343065 84.304062 
L 253.445501 79.49796 
L 255.480117 79.311672 
L 257.582553 75.837834 
L 259.684989 75.129766 
L 261.719604 70.16936 
L 263.82204 74.597942 
L 265.856656 76.801338 
L 270.061528 80.674859 
L 271.960502 78.697764 
L 274.062938 84.41278 
L 276.097554 79.917602 
L 278.19999 79.125166 
L 280.234605 78.834682 
L 282.337041 75.718905 
L 284.439477 77.218513 
L 286.474093 69.096221 
L 288.576529 76.508381 
L 290.611144 75.777996 
L 292.71358 76.204259 
L 294.816016 77.507833 
L 296.782811 77.828714 
L 298.885247 79.931165 
L 300.919863 80.75278 
L 303.022299 80.484676 
L 305.056914 72.806856 
L 307.159351 74.641486 
L 309.261787 67.401782 
L 311.296402 71.864792 
L 313.398838 73.232236 
L 315.433454 75.032455 
L 317.53589 73.99796 
L 319.638326 77.026609 
L 321.5373 78.020541 
L 323.639736 78.379406 
L 325.674352 79.680352 
L 327.776788 78.44653 
L 329.811403 69.586194 
L 331.913839 56.320202 
L 334.016275 64.861586 
L 336.050891 67.179368 
L 338.153327 76.340228 
L 340.187942 74.330664 
L 342.290378 63.307074 
L 344.392814 74.309999 
L 346.291789 79.45559 
L 348.394225 75.845235 
L 352.531276 79.997256 
L 354.565892 74.575383 
L 356.668328 73.148589 
L 358.770764 74.168867 
L 360.805379 71.539506 
L 362.907815 71.710941 
L 364.942431 82.359998 
L 367.044867 73.730155 
L 369.147303 70.769318 
L 371.046277 72.084841 
L 373.148713 78.885931 
L 375.183329 74.59299 
L 377.285765 74.692087 
L 379.320381 66.761779 
L 381.422817 68.197282 
L 383.525253 63.974695 
L 385.559868 68.590597 
L 387.662304 69.442854 
L 389.69692 65.669788 
L 391.799356 48.022356 
L 393.901792 69.723568 
L 395.868587 86.752916 
L 397.971023 98.817146 
L 400.005638 91.690652 
L 402.108074 76.523526 
L 404.14269 65.704824 
L 406.245126 66.919181 
L 408.347562 67.859427 
L 410.382177 72.611934 
L 414.519229 79.422116 
L 416.621665 60.050722 
L 418.724101 73.501763 
L 420.623075 77.569314 
L 422.725511 77.0063 
L 424.760127 79.659366 
L 426.862563 77.975804 
L 428.897178 101.073415 
L 430.999614 104.255013 
L 433.10205 80.660918 
L 435.136666 74.080253 
L 437.239102 77.077554 
L 439.273717 71.166735 
L 441.376153 47.029616 
L 443.47859 70.75968 
L 445.377564 72.858483 
L 447.48 73.787812 
L 447.48 73.787812 
" style="fill:none;stroke:#008000;stroke-linecap:square;stroke-width:1.5;"/>
   </g>
   <g id="patch_3">
    <path d="M 22.381 108.304533 
L 22.381 23.36505 
" style="fill:none;stroke:#000000;stroke-linecap:square;stroke-linejoin:miter;stroke-width:0.8;"/>
   </g>
   <g id="patch_4">
    <path d="M 447.48 108.304533 
L 447.48 23.36505 
" style="fill:none;stroke:#000000;stroke-linecap:square;stroke-linejoin:miter;stroke-width:0.8;"/>
   </g>
   <g id="patch_5">
    <path d="M 22.381 108.304533 
L 447.48 108.304533 
" style="fill:none;stroke:#000000;stroke-linecap:square;stroke-linejoin:miter;stroke-width:0.8;"/>
   </g>
   <g id="patch_6">
    <path d="M 22.381 23.36505 
L 447.48 23.36505 
" style="fill:none;stroke:#000000;stroke-linecap:square;stroke-linejoin:miter;stroke-width:0.8;"/>
   </g>
   <g id="text_4">
    <!-- Average monthly normalized emissions -->
    <defs>
     <path d="M 34.1875 63.1875 
L 20.796875 26.90625 
L 47.609375 26.90625 
z
M 28.609375 72.90625 
L 39.796875 72.90625 
L 67.578125 0 
L 57.328125 0 
L 50.6875 18.703125 
L 17.828125 18.703125 
L 11.1875 0 
L 0.78125 0 
z
" id="DejaVuSans-41"/>
     <path d="M 2.984375 54.6875 
L 12.5 54.6875 
L 29.59375 8.796875 
L 46.6875 54.6875 
L 56.203125 54.6875 
L 35.6875 0 
L 23.484375 0 
z
" id="DejaVuSans-76"/>
     <path d="M 56.203125 29.59375 
L 56.203125 25.203125 
L 14.890625 25.203125 
Q 15.484375 15.921875 20.484375 11.0625 
Q 25.484375 6.203125 34.421875 6.203125 
Q 39.59375 6.203125 44.453125 7.46875 
Q 49.3125 8.734375 54.109375 11.28125 
L 54.109375 2.78125 
Q 49.265625 0.734375 44.1875 -0.34375 
Q 39.109375 -1.421875 33.890625 -1.421875 
Q 20.796875 -1.421875 13.15625 6.1875 
Q 5.515625 13.8125 5.515625 26.8125 
Q 5.515625 40.234375 12.765625 48.109375 
Q 20.015625 56 32.328125 56 
Q 43.359375 56 49.78125 48.890625 
Q 56.203125 41.796875 56.203125 29.59375 
z
M 47.21875 32.234375 
Q 47.125 39.59375 43.09375 43.984375 
Q 39.0625 48.390625 32.421875 48.390625 
Q 24.90625 48.390625 20.390625 44.140625 
Q 15.875 39.890625 15.1875 32.171875 
z
" id="DejaVuSans-65"/>
     <path d="M 41.109375 46.296875 
Q 39.59375 47.171875 37.8125 47.578125 
Q 36.03125 48 33.890625 48 
Q 26.265625 48 22.1875 43.046875 
Q 18.109375 38.09375 18.109375 28.8125 
L 18.109375 0 
L 9.078125 0 
L 9.078125 54.6875 
L 18.109375 54.6875 
L 18.109375 46.1875 
Q 20.953125 51.171875 25.484375 53.578125 
Q 30.03125 56 36.53125 56 
Q 37.453125 56 38.578125 55.875 
Q 39.703125 55.765625 41.0625 55.515625 
z
" id="DejaVuSans-72"/>
     <path d="M 34.28125 27.484375 
Q 23.390625 27.484375 19.1875 25 
Q 14.984375 22.515625 14.984375 16.5 
Q 14.984375 11.71875 18.140625 8.90625 
Q 21.296875 6.109375 26.703125 6.109375 
Q 34.1875 6.109375 38.703125 11.40625 
Q 43.21875 16.703125 43.21875 25.484375 
L 43.21875 27.484375 
z
M 52.203125 31.203125 
L 52.203125 0 
L 43.21875 0 
L 43.21875 8.296875 
Q 40.140625 3.328125 35.546875 0.953125 
Q 30.953125 -1.421875 24.3125 -1.421875 
Q 15.921875 -1.421875 10.953125 3.296875 
Q 6 8.015625 6 15.921875 
Q 6 25.140625 12.171875 29.828125 
Q 18.359375 34.515625 30.609375 34.515625 
L 43.21875 34.515625 
L 43.21875 35.40625 
Q 43.21875 41.609375 39.140625 45 
Q 35.0625 48.390625 27.6875 48.390625 
Q 23 48.390625 18.546875 47.265625 
Q 14.109375 46.140625 10.015625 43.890625 
L 10.015625 52.203125 
Q 14.9375 54.109375 19.578125 55.046875 
Q 24.21875 56 28.609375 56 
Q 40.484375 56 46.34375 49.84375 
Q 52.203125 43.703125 52.203125 31.203125 
z
" id="DejaVuSans-61"/>
     <path d="M 45.40625 27.984375 
Q 45.40625 37.75 41.375 43.109375 
Q 37.359375 48.484375 30.078125 48.484375 
Q 22.859375 48.484375 18.828125 43.109375 
Q 14.796875 37.75 14.796875 27.984375 
Q 14.796875 18.265625 18.828125 12.890625 
Q 22.859375 7.515625 30.078125 7.515625 
Q 37.359375 7.515625 41.375 12.890625 
Q 45.40625 18.265625 45.40625 27.984375 
z
M 54.390625 6.78125 
Q 54.390625 -7.171875 48.1875 -13.984375 
Q 42 -20.796875 29.203125 -20.796875 
Q 24.46875 -20.796875 20.265625 -20.09375 
Q 16.0625 -19.390625 12.109375 -17.921875 
L 12.109375 -9.1875 
Q 16.0625 -11.328125 19.921875 -12.34375 
Q 23.78125 -13.375 27.78125 -13.375 
Q 36.625 -13.375 41.015625 -8.765625 
Q 45.40625 -4.15625 45.40625 5.171875 
L 45.40625 9.625 
Q 42.625 4.78125 38.28125 2.390625 
Q 33.9375 0 27.875 0 
Q 17.828125 0 11.671875 7.65625 
Q 5.515625 15.328125 5.515625 27.984375 
Q 5.515625 40.671875 11.671875 48.328125 
Q 17.828125 56 27.875 56 
Q 33.9375 56 38.28125 53.609375 
Q 42.625 51.21875 45.40625 46.390625 
L 45.40625 54.6875 
L 54.390625 54.6875 
z
" id="DejaVuSans-67"/>
     <path id="DejaVuSans-20"/>
     <path d="M 52 44.1875 
Q 55.375 50.25 60.0625 53.125 
Q 64.75 56 71.09375 56 
Q 79.640625 56 84.28125 50.015625 
Q 88.921875 44.046875 88.921875 33.015625 
L 88.921875 0 
L 79.890625 0 
L 79.890625 32.71875 
Q 79.890625 40.578125 77.09375 44.375 
Q 74.3125 48.1875 68.609375 48.1875 
Q 61.625 48.1875 57.5625 43.546875 
Q 53.515625 38.921875 53.515625 30.90625 
L 53.515625 0 
L 44.484375 0 
L 44.484375 32.71875 
Q 44.484375 40.625 41.703125 44.40625 
Q 38.921875 48.1875 33.109375 48.1875 
Q 26.21875 48.1875 22.15625 43.53125 
Q 18.109375 38.875 18.109375 30.90625 
L 18.109375 0 
L 9.078125 0 
L 9.078125 54.6875 
L 18.109375 54.6875 
L 18.109375 46.1875 
Q 21.1875 51.21875 25.484375 53.609375 
Q 29.78125 56 35.6875 56 
Q 41.65625 56 45.828125 52.96875 
Q 50 49.953125 52 44.1875 
z
" id="DejaVuSans-6d"/>
     <path d="M 30.609375 48.390625 
Q 23.390625 48.390625 19.1875 42.75 
Q 14.984375 37.109375 14.984375 27.296875 
Q 14.984375 17.484375 19.15625 11.84375 
Q 23.34375 6.203125 30.609375 6.203125 
Q 37.796875 6.203125 41.984375 11.859375 
Q 46.1875 17.53125 46.1875 27.296875 
Q 46.1875 37.015625 41.984375 42.703125 
Q 37.796875 48.390625 30.609375 48.390625 
z
M 30.609375 56 
Q 42.328125 56 49.015625 48.375 
Q 55.71875 40.765625 55.71875 27.296875 
Q 55.71875 13.875 49.015625 6.21875 
Q 42.328125 -1.421875 30.609375 -1.421875 
Q 18.84375 -1.421875 12.171875 6.21875 
Q 5.515625 13.875 5.515625 27.296875 
Q 5.515625 40.765625 12.171875 48.375 
Q 18.84375 56 30.609375 56 
z
" id="DejaVuSans-6f"/>
     <path d="M 54.890625 33.015625 
L 54.890625 0 
L 45.90625 0 
L 45.90625 32.71875 
Q 45.90625 40.484375 42.875 44.328125 
Q 39.84375 48.1875 33.796875 48.1875 
Q 26.515625 48.1875 22.3125 43.546875 
Q 18.109375 38.921875 18.109375 30.90625 
L 18.109375 0 
L 9.078125 0 
L 9.078125 54.6875 
L 18.109375 54.6875 
L 18.109375 46.1875 
Q 21.34375 51.125 25.703125 53.5625 
Q 30.078125 56 35.796875 56 
Q 45.21875 56 50.046875 50.171875 
Q 54.890625 44.34375 54.890625 33.015625 
z
" id="DejaVuSans-6e"/>
     <path d="M 18.3125 70.21875 
L 18.3125 54.6875 
L 36.8125 54.6875 
L 36.8125 47.703125 
L 18.3125 47.703125 
L 18.3125 18.015625 
Q 18.3125 11.328125 20.140625 9.421875 
Q 21.96875 7.515625 27.59375 7.515625 
L 36.8125 7.515625 
L 36.8125 0 
L 27.59375 0 
Q 17.1875 0 13.234375 3.875 
Q 9.28125 7.765625 9.28125 18.015625 
L 9.28125 47.703125 
L 2.6875 47.703125 
L 2.6875 54.6875 
L 9.28125 54.6875 
L 9.28125 70.21875 
z
" id="DejaVuSans-74"/>
     <path d="M 54.890625 33.015625 
L 54.890625 0 
L 45.90625 0 
L 45.90625 32.71875 
Q 45.90625 40.484375 42.875 44.328125 
Q 39.84375 48.1875 33.796875 48.1875 
Q 26.515625 48.1875 22.3125 43.546875 
Q 18.109375 38.921875 18.109375 30.90625 
L 18.109375 0 
L 9.078125 0 
L 9.078125 75.984375 
L 18.109375 75.984375 
L 18.109375 46.1875 
Q 21.34375 51.125 25.703125 53.5625 
Q 30.078125 56 35.796875 56 
Q 45.21875 56 50.046875 50.171875 
Q 54.890625 44.34375 54.890625 33.015625 
z
" id="DejaVuSans-68"/>
     <path d="M 9.421875 75.984375 
L 18.40625 75.984375 
L 18.40625 0 
L 9.421875 0 
z
" id="DejaVuSans-6c"/>
     <path d="M 32.171875 -5.078125 
Q 28.375 -14.84375 24.75 -17.8125 
Q 21.140625 -20.796875 15.09375 -20.796875 
L 7.90625 -20.796875 
L 7.90625 -13.28125 
L 13.1875 -13.28125 
Q 16.890625 -13.28125 18.9375 -11.515625 
Q 21 -9.765625 23.484375 -3.21875 
L 25.09375 0.875 
L 2.984375 54.6875 
L 12.5 54.6875 
L 29.59375 11.921875 
L 46.6875 54.6875 
L 56.203125 54.6875 
z
" id="DejaVuSans-79"/>
     <path d="M 9.421875 54.6875 
L 18.40625 54.6875 
L 18.40625 0 
L 9.421875 0 
z
M 9.421875 75.984375 
L 18.40625 75.984375 
L 18.40625 64.59375 
L 9.421875 64.59375 
z
" id="DejaVuSans-69"/>
     <path d="M 5.515625 54.6875 
L 48.1875 54.6875 
L 48.1875 46.484375 
L 14.40625 7.171875 
L 48.1875 7.171875 
L 48.1875 0 
L 4.296875 0 
L 4.296875 8.203125 
L 38.09375 47.515625 
L 5.515625 47.515625 
z
" id="DejaVuSans-7a"/>
     <path d="M 45.40625 46.390625 
L 45.40625 75.984375 
L 54.390625 75.984375 
L 54.390625 0 
L 45.40625 0 
L 45.40625 8.203125 
Q 42.578125 3.328125 38.25 0.953125 
Q 33.9375 -1.421875 27.875 -1.421875 
Q 17.96875 -1.421875 11.734375 6.484375 
Q 5.515625 14.40625 5.515625 27.296875 
Q 5.515625 40.1875 11.734375 48.09375 
Q 17.96875 56 27.875 56 
Q 33.9375 56 38.25 53.625 
Q 42.578125 51.265625 45.40625 46.390625 
z
M 14.796875 27.296875 
Q 14.796875 17.390625 18.875 11.75 
Q 22.953125 6.109375 30.078125 6.109375 
Q 37.203125 6.109375 41.296875 11.75 
Q 45.40625 17.390625 45.40625 27.296875 
Q 45.40625 37.203125 41.296875 42.84375 
Q 37.203125 48.484375 30.078125 48.484375 
Q 22.953125 48.484375 18.875 42.84375 
Q 14.796875 37.203125 14.796875 27.296875 
z
" id="DejaVuSans-64"/>
     <path d="M 44.28125 53.078125 
L 44.28125 44.578125 
Q 40.484375 46.53125 36.375 47.5 
Q 32.28125 48.484375 27.875 48.484375 
Q 21.1875 48.484375 17.84375 46.4375 
Q 14.5 44.390625 14.5 40.28125 
Q 14.5 37.15625 16.890625 35.375 
Q 19.28125 33.59375 26.515625 31.984375 
L 29.59375 31.296875 
Q 39.15625 29.25 43.1875 25.515625 
Q 47.21875 21.78125 47.21875 15.09375 
Q 47.21875 7.46875 41.1875 3.015625 
Q 35.15625 -1.421875 24.609375 -1.421875 
Q 20.21875 -1.421875 15.453125 -0.5625 
Q 10.6875 0.296875 5.421875 2 
L 5.421875 11.28125 
Q 10.40625 8.6875 15.234375 7.390625 
Q 20.0625 6.109375 24.8125 6.109375 
Q 31.15625 6.109375 34.5625 8.28125 
Q 37.984375 10.453125 37.984375 14.40625 
Q 37.984375 18.0625 35.515625 20.015625 
Q 33.0625 21.96875 24.703125 23.78125 
L 21.578125 24.515625 
Q 13.234375 26.265625 9.515625 29.90625 
Q 5.8125 33.546875 5.8125 39.890625 
Q 5.8125 47.609375 11.28125 51.796875 
Q 16.75 56 26.8125 56 
Q 31.78125 56 36.171875 55.265625 
Q 40.578125 54.546875 44.28125 53.078125 
z
" id="DejaVuSans-73"/>
    </defs>
    <g transform="translate(116.36675 17.36505)scale(0.12 -0.12)">
     <use xlink:href="#DejaVuSans-41"/>
     <use x="68.330078" xlink:href="#DejaVuSans-76"/>
     <use x="127.509766" xlink:href="#DejaVuSans-65"/>
     <use x="189.033203" xlink:href="#DejaVuSans-72"/>
     <use x="230.146484" xlink:href="#DejaVuSans-61"/>
     <use x="291.425781" xlink:href="#DejaVuSans-67"/>
     <use x="354.902344" xlink:href="#DejaVuSans-65"/>
     <use x="416.425781" xlink:href="#DejaVuSans-20"/>
     <use x="448.212891" xlink:href="#DejaVuSans-6d"/>
     <use x="545.625" xlink:href="#DejaVuSans-6f"/>
     <use x="606.806641" xlink:href="#DejaVuSans-6e"/>
     <use x="670.185547" xlink:href="#DejaVuSans-74"/>
     <use x="709.394531" xlink:href="#DejaVuSans-68"/>
     <use x="772.773438" xlink:href="#DejaVuSans-6c"/>
     <use x="800.556641" xlink:href="#DejaVuSans-79"/>
     <use x="859.736328" xlink:href="#DejaVuSans-20"/>
     <use x="891.523438" xlink:href="#DejaVuSans-6e"/>
     <use x="954.902344" xlink:href="#DejaVuSans-6f"/>
     <use x="1016.083984" xlink:href="#DejaVuSans-72"/>
     <use x="1057.181641" xlink:href="#DejaVuSans-6d"/>
     <use x="1154.59375" xlink:href="#DejaVuSans-61"/>
     <use x="1215.873047" xlink:href="#DejaVuSans-6c"/>
     <use x="1243.65625" xlink:href="#DejaVuSans-69"/>
     <use x="1271.439453" xlink:href="#DejaVuSans-7a"/>
     <use x="1323.929688" xlink:href="#DejaVuSans-65"/>
     <use x="1385.453125" xlink:href="#DejaVuSans-64"/>
     <use x="1448.929688" xlink:href="#DejaVuSans-20"/>
     <use x="1480.716797" xlink:href="#DejaVuSans-65"/>
     <use x="1542.240234" xlink:href="#DejaVuSans-6d"/>
     <use x="1639.652344" xlink:href="#DejaVuSans-69"/>
     <use x="1667.435547" xlink:href="#DejaVuSans-73"/>
     <use x="1719.535156" xlink:href="#DejaVuSans-73"/>
     <use x="1771.634766" xlink:href="#DejaVuSans-69"/>
     <use x="1799.417969" xlink:href="#DejaVuSans-6f"/>
     <use x="1860.599609" xlink:href="#DejaVuSans-6e"/>
     <use x="1923.978516" xlink:href="#DejaVuSans-73"/>
    </g>
   </g>
   <g id="legend_1">
    <g id="patch_7">
     <path d="M 387.897188 46.043175 
L 440.48 46.043175 
Q 442.48 46.043175 442.48 44.043175 
L 442.48 30.36505 
Q 442.48 28.36505 440.48 28.36505 
L 387.897188 28.36505 
Q 385.897188 28.36505 385.897188 30.36505 
L 385.897188 44.043175 
Q 385.897188 46.043175 387.897188 46.043175 
z
" style="fill:#ffffff;opacity:0.8;stroke:#cccccc;stroke-linejoin:miter;"/>
    </g>
    <g id="line2d_24">
     <path d="M 389.897188 36.463488 
L 409.897188 36.463488 
" style="fill:none;stroke:#008000;stroke-linecap:square;stroke-width:1.5;"/>
    </g>
    <g id="line2d_25"/>
    <g id="text_5">
     <!-- SO2 -->
     <defs>
      <path d="M 53.515625 70.515625 
L 53.515625 60.890625 
Q 47.90625 63.578125 42.921875 64.890625 
Q 37.9375 66.21875 33.296875 66.21875 
Q 25.25 66.21875 20.875 63.09375 
Q 16.5 59.96875 16.5 54.203125 
Q 16.5 49.359375 19.40625 46.890625 
Q 22.3125 44.4375 30.421875 42.921875 
L 36.375 41.703125 
Q 47.40625 39.59375 52.65625 34.296875 
Q 57.90625 29 57.90625 20.125 
Q 57.90625 9.515625 50.796875 4.046875 
Q 43.703125 -1.421875 29.984375 -1.421875 
Q 24.8125 -1.421875 18.96875 -0.25 
Q 13.140625 0.921875 6.890625 3.21875 
L 6.890625 13.375 
Q 12.890625 10.015625 18.65625 8.296875 
Q 24.421875 6.59375 29.984375 6.59375 
Q 38.421875 6.59375 43.015625 9.90625 
Q 47.609375 13.234375 47.609375 19.390625 
Q 47.609375 24.75 44.3125 27.78125 
Q 41.015625 30.8125 33.5 32.328125 
L 27.484375 33.5 
Q 16.453125 35.6875 11.515625 40.375 
Q 6.59375 45.0625 6.59375 53.421875 
Q 6.59375 63.09375 13.40625 68.65625 
Q 20.21875 74.21875 32.171875 74.21875 
Q 37.3125 74.21875 42.625 73.28125 
Q 47.953125 72.359375 53.515625 70.515625 
z
" id="DejaVuSans-53"/>
      <path d="M 39.40625 66.21875 
Q 28.65625 66.21875 22.328125 58.203125 
Q 16.015625 50.203125 16.015625 36.375 
Q 16.015625 22.609375 22.328125 14.59375 
Q 28.65625 6.59375 39.40625 6.59375 
Q 50.140625 6.59375 56.421875 14.59375 
Q 62.703125 22.609375 62.703125 36.375 
Q 62.703125 50.203125 56.421875 58.203125 
Q 50.140625 66.21875 39.40625 66.21875 
z
M 39.40625 74.21875 
Q 54.734375 74.21875 63.90625 63.9375 
Q 73.09375 53.65625 73.09375 36.375 
Q 73.09375 19.140625 63.90625 8.859375 
Q 54.734375 -1.421875 39.40625 -1.421875 
Q 24.03125 -1.421875 14.8125 8.828125 
Q 5.609375 19.09375 5.609375 36.375 
Q 5.609375 53.65625 14.8125 63.9375 
Q 24.03125 74.21875 39.40625 74.21875 
z
" id="DejaVuSans-4f"/>
     </defs>
     <g transform="translate(417.897188 39.963488)scale(0.1 -0.1)">
      <use xlink:href="#DejaVuSans-53"/>
      <use x="63.476562" xlink:href="#DejaVuSans-4f"/>
      <use x="142.1875" xlink:href="#DejaVuSans-32"/>
     </g>
    </g>
   </g>
  </g>
  <g id="axes_2">
   <g id="patch_8">
    <path d="M 22.381 209.084017 
L 447.48 209.084017 
L 447.48 124.144533 
L 22.381 124.144533 
z
" style="fill:none;"/>
   </g>
   <g id="matplotlib.axis_3">
    <g id="xtick_9">
     <g id="line2d_26">
      <path clip-path="url(#p14fa8654d1)" d="M 69.855362 209.084017 
L 69.855362 124.144533 
" style="fill:none;stroke:#b0b0b0;stroke-linecap:square;stroke-width:0.8;"/>
     </g>
     <g id="line2d_27">
      <g>
       <use style="stroke:#000000;stroke-width:0.8;" x="69.855362" xlink:href="#mf1d0d70ba2" y="209.084017"/>
      </g>
     </g>
    </g>
    <g id="xtick_10">
     <g id="line2d_28">
      <path clip-path="url(#p14fa8654d1)" d="M 119.43216 209.084017 
L 119.43216 124.144533 
" style="fill:none;stroke:#b0b0b0;stroke-linecap:square;stroke-width:0.8;"/>
     </g>
     <g id="line2d_29">
      <g>
       <use style="stroke:#000000;stroke-width:0.8;" x="119.43216" xlink:href="#mf1d0d70ba2" y="209.084017"/>
      </g>
     </g>
    </g>
    <g id="xtick_11">
     <g id="line2d_30">
      <path clip-path="url(#p14fa8654d1)" d="M 168.941137 209.084017 
L 168.941137 124.144533 
" style="fill:none;stroke:#b0b0b0;stroke-linecap:square;stroke-width:0.8;"/>
     </g>
     <g id="line2d_31">
      <g>
       <use style="stroke:#000000;stroke-width:0.8;" x="168.941137" xlink:href="#mf1d0d70ba2" y="209.084017"/>
      </g>
     </g>
    </g>
    <g id="xtick_12">
     <g id="line2d_32">
      <path clip-path="url(#p14fa8654d1)" d="M 218.517935 209.084017 
L 218.517935 124.144533 
" style="fill:none;stroke:#b0b0b0;stroke-linecap:square;stroke-width:0.8;"/>
     </g>
     <g id="line2d_33">
      <g>
       <use style="stroke:#000000;stroke-width:0.8;" x="218.517935" xlink:href="#mf1d0d70ba2" y="209.084017"/>
      </g>
     </g>
    </g>
    <g id="xtick_13">
     <g id="line2d_34">
      <path clip-path="url(#p14fa8654d1)" d="M 268.026912 209.084017 
L 268.026912 124.144533 
" style="fill:none;stroke:#b0b0b0;stroke-linecap:square;stroke-width:0.8;"/>
     </g>
     <g id="line2d_35">
      <g>
       <use style="stroke:#000000;stroke-width:0.8;" x="268.026912" xlink:href="#mf1d0d70ba2" y="209.084017"/>
      </g>
     </g>
    </g>
    <g id="xtick_14">
     <g id="line2d_36">
      <path clip-path="url(#p14fa8654d1)" d="M 317.60371 209.084017 
L 317.60371 124.144533 
" style="fill:none;stroke:#b0b0b0;stroke-linecap:square;stroke-width:0.8;"/>
     </g>
     <g id="line2d_37">
      <g>
       <use style="stroke:#000000;stroke-width:0.8;" x="317.60371" xlink:href="#mf1d0d70ba2" y="209.084017"/>
      </g>
     </g>
    </g>
    <g id="xtick_15">
     <g id="line2d_38">
      <path clip-path="url(#p14fa8654d1)" d="M 367.112687 209.084017 
L 367.112687 124.144533 
" style="fill:none;stroke:#b0b0b0;stroke-linecap:square;stroke-width:0.8;"/>
     </g>
     <g id="line2d_39">
      <g>
       <use style="stroke:#000000;stroke-width:0.8;" x="367.112687" xlink:href="#mf1d0d70ba2" y="209.084017"/>
      </g>
     </g>
    </g>
    <g id="xtick_16">
     <g id="line2d_40">
      <path clip-path="url(#p14fa8654d1)" d="M 416.689485 209.084017 
L 416.689485 124.144533 
" style="fill:none;stroke:#b0b0b0;stroke-linecap:square;stroke-width:0.8;"/>
     </g>
     <g id="line2d_41">
      <g>
       <use style="stroke:#000000;stroke-width:0.8;" x="416.689485" xlink:href="#mf1d0d70ba2" y="209.084017"/>
      </g>
     </g>
    </g>
   </g>
   <g id="matplotlib.axis_4">
    <g id="ytick_4">
     <g id="line2d_42">
      <path clip-path="url(#p14fa8654d1)" d="M 22.381 205.223131 
L 447.48 205.223131 
" style="fill:none;stroke:#b0b0b0;stroke-linecap:square;stroke-width:0.8;"/>
     </g>
     <g id="line2d_43">
      <g>
       <use style="stroke:#000000;stroke-width:0.8;" x="22.381" xlink:href="#mb15685b87c" y="205.223131"/>
      </g>
     </g>
     <g id="text_6">
      <!-- 0 -->
      <g transform="translate(9.0185 209.02235)scale(0.1 -0.1)">
       <use xlink:href="#DejaVuSans-30"/>
      </g>
     </g>
    </g>
    <g id="ytick_5">
     <g id="line2d_44">
      <path clip-path="url(#p14fa8654d1)" d="M 22.381 167.809705 
L 447.48 167.809705 
" style="fill:none;stroke:#b0b0b0;stroke-linecap:square;stroke-width:0.8;"/>
     </g>
     <g id="line2d_45">
      <g>
       <use style="stroke:#000000;stroke-width:0.8;" x="22.381" xlink:href="#mb15685b87c" y="167.809705"/>
      </g>
     </g>
     <g id="text_7">
      <!-- 2 -->
      <g transform="translate(9.0185 171.608924)scale(0.1 -0.1)">
       <use xlink:href="#DejaVuSans-32"/>
      </g>
     </g>
    </g>
    <g id="ytick_6">
     <g id="line2d_46">
      <path clip-path="url(#p14fa8654d1)" d="M 22.381 130.396279 
L 447.48 130.396279 
" style="fill:none;stroke:#b0b0b0;stroke-linecap:square;stroke-width:0.8;"/>
     </g>
     <g id="line2d_47">
      <g>
       <use style="stroke:#000000;stroke-width:0.8;" x="22.381" xlink:href="#mb15685b87c" y="130.396279"/>
      </g>
     </g>
     <g id="text_8">
      <!-- 4 -->
      <defs>
       <path d="M 37.796875 64.3125 
L 12.890625 25.390625 
L 37.796875 25.390625 
z
M 35.203125 72.90625 
L 47.609375 72.90625 
L 47.609375 25.390625 
L 58.015625 25.390625 
L 58.015625 17.1875 
L 47.609375 17.1875 
L 47.609375 0 
L 37.796875 0 
L 37.796875 17.1875 
L 4.890625 17.1875 
L 4.890625 26.703125 
z
" id="DejaVuSans-34"/>
      </defs>
      <g transform="translate(9.0185 134.195498)scale(0.1 -0.1)">
       <use xlink:href="#DejaVuSans-34"/>
      </g>
     </g>
    </g>
   </g>
   <g id="line2d_48">
    <path clip-path="url(#p14fa8654d1)" d="M 22.381 184.00884 
L 24.279974 189.618865 
L 26.38241 186.05096 
L 28.417026 184.970163 
L 30.519462 184.56051 
L 32.554078 186.992683 
L 34.656514 188.465569 
L 36.75895 186.656932 
L 38.793565 191.625629 
L 40.896001 190.915487 
L 42.930617 184.983302 
L 45.033053 186.587242 
L 47.135489 185.297287 
L 49.034463 187.014259 
L 51.136899 188.456489 
L 53.171515 205.223131 
L 55.273951 201.438179 
L 57.308566 195.895366 
L 59.411002 189.348975 
L 61.513438 195.169682 
L 63.548054 191.358122 
L 65.65049 197.389393 
L 67.685105 205.223131 
L 69.787541 186.549254 
L 71.889977 198.389278 
L 73.788952 193.582703 
L 75.891388 185.750409 
L 77.926003 188.426134 
L 80.028439 198.76814 
L 82.063055 199.777918 
L 84.165491 195.405046 
L 86.267927 197.082484 
L 88.302542 181.98725 
L 90.404978 188.591524 
L 92.439594 191.030301 
L 94.54203 191.731624 
L 96.644466 194.653083 
L 98.611261 193.589589 
L 100.713697 193.153805 
L 102.748313 197.489242 
L 104.850749 198.520757 
L 106.885364 197.014625 
L 108.9878 178.75053 
L 111.090236 147.092914 
L 113.124852 179.869013 
L 115.227288 188.554031 
L 117.261903 189.829675 
L 119.364339 186.718584 
L 121.466775 185.263508 
L 123.36575 193.064585 
L 125.468186 128.005419 
L 127.502801 190.630466 
L 129.605237 190.246275 
L 131.639853 191.14102 
L 133.742289 175.919378 
L 135.844725 176.928746 
L 137.87934 164.56705 
L 139.981776 183.341503 
L 142.016392 181.417161 
L 144.118828 167.417032 
L 146.221264 189.713455 
L 148.120238 191.061314 
L 150.222674 191.031959 
L 152.25729 190.247749 
L 154.359726 186.630812 
L 156.394341 184.013438 
L 158.496777 180.207675 
L 160.599213 184.363278 
L 162.633829 180.625168 
L 164.736265 185.580295 
L 166.770881 187.620117 
L 168.873317 184.323235 
L 170.975753 183.282085 
L 172.874727 188.500349 
L 174.977163 190.919072 
L 177.011779 194.999052 
L 179.114215 188.075019 
L 181.14883 179.708187 
L 183.251266 177.699955 
L 185.353702 176.692843 
L 187.388318 185.082552 
L 189.490754 189.252431 
L 191.525369 191.538167 
L 193.627805 184.963518 
L 195.730241 183.226152 
L 197.697036 181.443968 
L 199.799472 188.615044 
L 201.834088 191.004668 
L 203.936524 186.975479 
L 205.971139 184.308663 
L 208.073575 187.598398 
L 210.176011 182.120973 
L 212.210627 186.932153 
L 214.313063 192.4246 
L 218.450114 191.403659 
L 220.55255 185.467767 
L 222.451525 179.33642 
L 224.553961 191.484506 
L 226.588576 193.156302 
L 230.725628 194.275969 
L 232.828064 186.319665 
L 234.9305 172.672275 
L 236.965116 178.955529 
L 239.067552 181.059041 
L 241.102167 182.214767 
L 243.204603 189.637486 
L 245.307039 191.180313 
L 247.206014 183.720142 
L 249.30845 193.568946 
L 251.343065 195.820873 
L 253.445501 193.999977 
L 255.480117 193.389105 
L 257.582553 191.278013 
L 259.684989 191.235571 
L 261.719604 188.298757 
L 263.82204 190.456841 
L 265.856656 191.974547 
L 267.959092 193.829138 
L 270.061528 194.679807 
L 271.960502 193.741703 
L 274.062938 196.225256 
L 276.097554 194.217139 
L 280.234605 194.085472 
L 282.337041 191.004222 
L 284.439477 192.880517 
L 286.474093 184.946356 
L 288.576529 192.323725 
L 290.611144 192.224446 
L 292.71358 191.49164 
L 294.816016 192.347611 
L 296.782811 190.762763 
L 298.885247 191.11397 
L 300.919863 193.502459 
L 303.022299 193.421878 
L 305.056914 188.452115 
L 307.159351 190.075572 
L 309.261787 185.791357 
L 311.296402 189.812632 
L 315.433454 190.881174 
L 317.53589 189.3421 
L 319.638326 191.042663 
L 321.5373 191.385414 
L 323.639736 191.547379 
L 325.674352 192.317839 
L 327.776788 192.846005 
L 329.811403 180.653873 
L 331.913839 180.721874 
L 334.016275 183.596408 
L 336.050891 185.715753 
L 338.153327 193.040616 
L 340.187942 191.461507 
L 342.290378 181.367659 
L 344.392814 191.633456 
L 346.291789 194.350691 
L 348.394225 190.951069 
L 350.42884 191.156935 
L 352.531276 194.138776 
L 354.565892 192.422069 
L 356.668328 191.696006 
L 358.770764 192.162792 
L 360.805379 190.718499 
L 362.907815 188.712126 
L 364.942431 194.468671 
L 367.044867 191.050529 
L 369.147303 190.176218 
L 371.046277 190.907882 
L 373.148713 192.257145 
L 377.285765 190.784396 
L 379.320381 185.407641 
L 381.422817 186.639727 
L 383.525253 184.419498 
L 385.559868 187.436635 
L 387.662304 178.35411 
L 389.69692 186.612179 
L 391.799356 178.686493 
L 393.901792 188.77852 
L 395.868587 197.26983 
L 397.971023 202.625269 
L 400.005638 199.592885 
L 402.108074 192.391052 
L 404.14269 187.198495 
L 406.245126 187.593312 
L 408.347562 184.136921 
L 410.382177 190.970328 
L 412.484613 192.232662 
L 414.519229 194.261813 
L 416.621665 185.123186 
L 418.724101 191.392495 
L 420.623075 192.196287 
L 422.725511 191.948785 
L 424.760127 192.759771 
L 426.862563 189.627141 
L 428.897178 202.929214 
L 430.999614 205.000144 
L 433.10205 194.891666 
L 435.136666 192.393542 
L 437.239102 193.524593 
L 439.273717 187.327705 
L 441.376153 179.05899 
L 443.47859 190.006715 
L 445.377564 190.375702 
L 447.48 192.204918 
L 447.48 192.204918 
" style="fill:none;stroke:#f97306;stroke-linecap:square;stroke-width:1.5;"/>
   </g>
   <g id="patch_9">
    <path d="M 22.381 209.084017 
L 22.381 124.144533 
" style="fill:none;stroke:#000000;stroke-linecap:square;stroke-linejoin:miter;stroke-width:0.8;"/>
   </g>
   <g id="patch_10">
    <path d="M 447.48 209.084017 
L 447.48 124.144533 
" style="fill:none;stroke:#000000;stroke-linecap:square;stroke-linejoin:miter;stroke-width:0.8;"/>
   </g>
   <g id="patch_11">
    <path d="M 22.381 209.084017 
L 447.48 209.084017 
" style="fill:none;stroke:#000000;stroke-linecap:square;stroke-linejoin:miter;stroke-width:0.8;"/>
   </g>
   <g id="patch_12">
    <path d="M 22.381 124.144533 
L 447.48 124.144533 
" style="fill:none;stroke:#000000;stroke-linecap:square;stroke-linejoin:miter;stroke-width:0.8;"/>
   </g>
   <g id="legend_2">
    <g id="patch_13">
     <path d="M 387.208125 146.822658 
L 440.48 146.822658 
Q 442.48 146.822658 442.48 144.822658 
L 442.48 131.144533 
Q 442.48 129.144533 440.48 129.144533 
L 387.208125 129.144533 
Q 385.208125 129.144533 385.208125 131.144533 
L 385.208125 144.822658 
Q 385.208125 146.822658 387.208125 146.822658 
z
" style="fill:#ffffff;opacity:0.8;stroke:#cccccc;stroke-linejoin:miter;"/>
    </g>
    <g id="line2d_49">
     <path d="M 389.208125 137.242971 
L 409.208125 137.242971 
" style="fill:none;stroke:#f97306;stroke-linecap:square;stroke-width:1.5;"/>
    </g>
    <g id="line2d_50"/>
    <g id="text_9">
     <!-- NOx -->
     <defs>
      <path d="M 9.8125 72.90625 
L 23.09375 72.90625 
L 55.421875 11.921875 
L 55.421875 72.90625 
L 64.984375 72.90625 
L 64.984375 0 
L 51.703125 0 
L 19.390625 60.984375 
L 19.390625 0 
L 9.8125 0 
z
" id="DejaVuSans-4e"/>
      <path d="M 54.890625 54.6875 
L 35.109375 28.078125 
L 55.90625 0 
L 45.3125 0 
L 29.390625 21.484375 
L 13.484375 0 
L 2.875 0 
L 24.125 28.609375 
L 4.6875 54.6875 
L 15.28125 54.6875 
L 29.78125 35.203125 
L 44.28125 54.6875 
z
" id="DejaVuSans-78"/>
     </defs>
     <g transform="translate(417.208125 140.742971)scale(0.1 -0.1)">
      <use xlink:href="#DejaVuSans-4e"/>
      <use x="74.804688" xlink:href="#DejaVuSans-4f"/>
      <use x="153.515625" xlink:href="#DejaVuSans-78"/>
     </g>
    </g>
   </g>
  </g>
  <g id="axes_3">
   <g id="patch_14">
    <path d="M 22.381 309.8635 
L 447.48 309.8635 
L 447.48 224.924017 
L 22.381 224.924017 
z
" style="fill:none;"/>
   </g>
   <g id="matplotlib.axis_5">
    <g id="xtick_17">
     <g id="line2d_51">
      <path clip-path="url(#pdddf3b52ea)" d="M 69.855362 309.8635 
L 69.855362 224.924017 
" style="fill:none;stroke:#b0b0b0;stroke-linecap:square;stroke-width:0.8;"/>
     </g>
     <g id="line2d_52">
      <g>
       <use style="stroke:#000000;stroke-width:0.8;" x="69.855362" xlink:href="#mf1d0d70ba2" y="309.8635"/>
      </g>
     </g>
     <g id="text_10">
      <!-- 2003 -->
      <defs>
       <path d="M 40.578125 39.3125 
Q 47.65625 37.796875 51.625 33 
Q 55.609375 28.21875 55.609375 21.1875 
Q 55.609375 10.40625 48.1875 4.484375 
Q 40.765625 -1.421875 27.09375 -1.421875 
Q 22.515625 -1.421875 17.65625 -0.515625 
Q 12.796875 0.390625 7.625 2.203125 
L 7.625 11.71875 
Q 11.71875 9.328125 16.59375 8.109375 
Q 21.484375 6.890625 26.8125 6.890625 
Q 36.078125 6.890625 40.9375 10.546875 
Q 45.796875 14.203125 45.796875 21.1875 
Q 45.796875 27.640625 41.28125 31.265625 
Q 36.765625 34.90625 28.71875 34.90625 
L 20.21875 34.90625 
L 20.21875 43.015625 
L 29.109375 43.015625 
Q 36.375 43.015625 40.234375 45.921875 
Q 44.09375 48.828125 44.09375 54.296875 
Q 44.09375 59.90625 40.109375 62.90625 
Q 36.140625 65.921875 28.71875 65.921875 
Q 24.65625 65.921875 20.015625 65.03125 
Q 15.375 64.15625 9.8125 62.3125 
L 9.8125 71.09375 
Q 15.4375 72.65625 20.34375 73.4375 
Q 25.25 74.21875 29.59375 74.21875 
Q 40.828125 74.21875 47.359375 69.109375 
Q 53.90625 64.015625 53.90625 55.328125 
Q 53.90625 49.265625 50.4375 45.09375 
Q 46.96875 40.921875 40.578125 39.3125 
z
" id="DejaVuSans-33"/>
      </defs>
      <g transform="translate(57.130362 324.461937)scale(0.1 -0.1)">
       <use xlink:href="#DejaVuSans-32"/>
       <use x="63.623047" xlink:href="#DejaVuSans-30"/>
       <use x="127.246094" xlink:href="#DejaVuSans-30"/>
       <use x="190.869141" xlink:href="#DejaVuSans-33"/>
      </g>
     </g>
    </g>
    <g id="xtick_18">
     <g id="line2d_53">
      <path clip-path="url(#pdddf3b52ea)" d="M 119.43216 309.8635 
L 119.43216 224.924017 
" style="fill:none;stroke:#b0b0b0;stroke-linecap:square;stroke-width:0.8;"/>
     </g>
     <g id="line2d_54">
      <g>
       <use style="stroke:#000000;stroke-width:0.8;" x="119.43216" xlink:href="#mf1d0d70ba2" y="309.8635"/>
      </g>
     </g>
     <g id="text_11">
      <!-- 2005 -->
      <defs>
       <path d="M 10.796875 72.90625 
L 49.515625 72.90625 
L 49.515625 64.59375 
L 19.828125 64.59375 
L 19.828125 46.734375 
Q 21.96875 47.46875 24.109375 47.828125 
Q 26.265625 48.1875 28.421875 48.1875 
Q 40.625 48.1875 47.75 41.5 
Q 54.890625 34.8125 54.890625 23.390625 
Q 54.890625 11.625 47.5625 5.09375 
Q 40.234375 -1.421875 26.90625 -1.421875 
Q 22.3125 -1.421875 17.546875 -0.640625 
Q 12.796875 0.140625 7.71875 1.703125 
L 7.71875 11.625 
Q 12.109375 9.234375 16.796875 8.0625 
Q 21.484375 6.890625 26.703125 6.890625 
Q 35.15625 6.890625 40.078125 11.328125 
Q 45.015625 15.765625 45.015625 23.390625 
Q 45.015625 31 40.078125 35.4375 
Q 35.15625 39.890625 26.703125 39.890625 
Q 22.75 39.890625 18.8125 39.015625 
Q 14.890625 38.140625 10.796875 36.28125 
z
" id="DejaVuSans-35"/>
      </defs>
      <g transform="translate(106.70716 324.461937)scale(0.1 -0.1)">
       <use xlink:href="#DejaVuSans-32"/>
       <use x="63.623047" xlink:href="#DejaVuSans-30"/>
       <use x="127.246094" xlink:href="#DejaVuSans-30"/>
       <use x="190.869141" xlink:href="#DejaVuSans-35"/>
      </g>
     </g>
    </g>
    <g id="xtick_19">
     <g id="line2d_55">
      <path clip-path="url(#pdddf3b52ea)" d="M 168.941137 309.8635 
L 168.941137 224.924017 
" style="fill:none;stroke:#b0b0b0;stroke-linecap:square;stroke-width:0.8;"/>
     </g>
     <g id="line2d_56">
      <g>
       <use style="stroke:#000000;stroke-width:0.8;" x="168.941137" xlink:href="#mf1d0d70ba2" y="309.8635"/>
      </g>
     </g>
     <g id="text_12">
      <!-- 2007 -->
      <defs>
       <path d="M 8.203125 72.90625 
L 55.078125 72.90625 
L 55.078125 68.703125 
L 28.609375 0 
L 18.3125 0 
L 43.21875 64.59375 
L 8.203125 64.59375 
z
" id="DejaVuSans-37"/>
      </defs>
      <g transform="translate(156.216137 324.461937)scale(0.1 -0.1)">
       <use xlink:href="#DejaVuSans-32"/>
       <use x="63.623047" xlink:href="#DejaVuSans-30"/>
       <use x="127.246094" xlink:href="#DejaVuSans-30"/>
       <use x="190.869141" xlink:href="#DejaVuSans-37"/>
      </g>
     </g>
    </g>
    <g id="xtick_20">
     <g id="line2d_57">
      <path clip-path="url(#pdddf3b52ea)" d="M 218.517935 309.8635 
L 218.517935 224.924017 
" style="fill:none;stroke:#b0b0b0;stroke-linecap:square;stroke-width:0.8;"/>
     </g>
     <g id="line2d_58">
      <g>
       <use style="stroke:#000000;stroke-width:0.8;" x="218.517935" xlink:href="#mf1d0d70ba2" y="309.8635"/>
      </g>
     </g>
     <g id="text_13">
      <!-- 2009 -->
      <defs>
       <path d="M 10.984375 1.515625 
L 10.984375 10.5 
Q 14.703125 8.734375 18.5 7.8125 
Q 22.3125 6.890625 25.984375 6.890625 
Q 35.75 6.890625 40.890625 13.453125 
Q 46.046875 20.015625 46.78125 33.40625 
Q 43.953125 29.203125 39.59375 26.953125 
Q 35.25 24.703125 29.984375 24.703125 
Q 19.046875 24.703125 12.671875 31.3125 
Q 6.296875 37.9375 6.296875 49.421875 
Q 6.296875 60.640625 12.9375 67.421875 
Q 19.578125 74.21875 30.609375 74.21875 
Q 43.265625 74.21875 49.921875 64.515625 
Q 56.59375 54.828125 56.59375 36.375 
Q 56.59375 19.140625 48.40625 8.859375 
Q 40.234375 -1.421875 26.421875 -1.421875 
Q 22.703125 -1.421875 18.890625 -0.6875 
Q 15.09375 0.046875 10.984375 1.515625 
z
M 30.609375 32.421875 
Q 37.25 32.421875 41.125 36.953125 
Q 45.015625 41.5 45.015625 49.421875 
Q 45.015625 57.28125 41.125 61.84375 
Q 37.25 66.40625 30.609375 66.40625 
Q 23.96875 66.40625 20.09375 61.84375 
Q 16.21875 57.28125 16.21875 49.421875 
Q 16.21875 41.5 20.09375 36.953125 
Q 23.96875 32.421875 30.609375 32.421875 
z
" id="DejaVuSans-39"/>
      </defs>
      <g transform="translate(205.792935 324.461937)scale(0.1 -0.1)">
       <use xlink:href="#DejaVuSans-32"/>
       <use x="63.623047" xlink:href="#DejaVuSans-30"/>
       <use x="127.246094" xlink:href="#DejaVuSans-30"/>
       <use x="190.869141" xlink:href="#DejaVuSans-39"/>
      </g>
     </g>
    </g>
    <g id="xtick_21">
     <g id="line2d_59">
      <path clip-path="url(#pdddf3b52ea)" d="M 268.026912 309.8635 
L 268.026912 224.924017 
" style="fill:none;stroke:#b0b0b0;stroke-linecap:square;stroke-width:0.8;"/>
     </g>
     <g id="line2d_60">
      <g>
       <use style="stroke:#000000;stroke-width:0.8;" x="268.026912" xlink:href="#mf1d0d70ba2" y="309.8635"/>
      </g>
     </g>
     <g id="text_14">
      <!-- 2011 -->
      <g transform="translate(255.301912 324.461937)scale(0.1 -0.1)">
       <use xlink:href="#DejaVuSans-32"/>
       <use x="63.623047" xlink:href="#DejaVuSans-30"/>
       <use x="127.246094" xlink:href="#DejaVuSans-31"/>
       <use x="190.869141" xlink:href="#DejaVuSans-31"/>
      </g>
     </g>
    </g>
    <g id="xtick_22">
     <g id="line2d_61">
      <path clip-path="url(#pdddf3b52ea)" d="M 317.60371 309.8635 
L 317.60371 224.924017 
" style="fill:none;stroke:#b0b0b0;stroke-linecap:square;stroke-width:0.8;"/>
     </g>
     <g id="line2d_62">
      <g>
       <use style="stroke:#000000;stroke-width:0.8;" x="317.60371" xlink:href="#mf1d0d70ba2" y="309.8635"/>
      </g>
     </g>
     <g id="text_15">
      <!-- 2013 -->
      <g transform="translate(304.87871 324.461937)scale(0.1 -0.1)">
       <use xlink:href="#DejaVuSans-32"/>
       <use x="63.623047" xlink:href="#DejaVuSans-30"/>
       <use x="127.246094" xlink:href="#DejaVuSans-31"/>
       <use x="190.869141" xlink:href="#DejaVuSans-33"/>
      </g>
     </g>
    </g>
    <g id="xtick_23">
     <g id="line2d_63">
      <path clip-path="url(#pdddf3b52ea)" d="M 367.112687 309.8635 
L 367.112687 224.924017 
" style="fill:none;stroke:#b0b0b0;stroke-linecap:square;stroke-width:0.8;"/>
     </g>
     <g id="line2d_64">
      <g>
       <use style="stroke:#000000;stroke-width:0.8;" x="367.112687" xlink:href="#mf1d0d70ba2" y="309.8635"/>
      </g>
     </g>
     <g id="text_16">
      <!-- 2015 -->
      <g transform="translate(354.387687 324.461937)scale(0.1 -0.1)">
       <use xlink:href="#DejaVuSans-32"/>
       <use x="63.623047" xlink:href="#DejaVuSans-30"/>
       <use x="127.246094" xlink:href="#DejaVuSans-31"/>
       <use x="190.869141" xlink:href="#DejaVuSans-35"/>
      </g>
     </g>
    </g>
    <g id="xtick_24">
     <g id="line2d_65">
      <path clip-path="url(#pdddf3b52ea)" d="M 416.689485 309.8635 
L 416.689485 224.924017 
" style="fill:none;stroke:#b0b0b0;stroke-linecap:square;stroke-width:0.8;"/>
     </g>
     <g id="line2d_66">
      <g>
       <use style="stroke:#000000;stroke-width:0.8;" x="416.689485" xlink:href="#mf1d0d70ba2" y="309.8635"/>
      </g>
     </g>
     <g id="text_17">
      <!-- 2017 -->
      <g transform="translate(403.964485 324.461937)scale(0.1 -0.1)">
       <use xlink:href="#DejaVuSans-32"/>
       <use x="63.623047" xlink:href="#DejaVuSans-30"/>
       <use x="127.246094" xlink:href="#DejaVuSans-31"/>
       <use x="190.869141" xlink:href="#DejaVuSans-37"/>
      </g>
     </g>
    </g>
    <g id="text_18">
     <!-- Date -->
     <defs>
      <path d="M 19.671875 64.796875 
L 19.671875 8.109375 
L 31.59375 8.109375 
Q 46.6875 8.109375 53.6875 14.9375 
Q 60.6875 21.78125 60.6875 36.53125 
Q 60.6875 51.171875 53.6875 57.984375 
Q 46.6875 64.796875 31.59375 64.796875 
z
M 9.8125 72.90625 
L 30.078125 72.90625 
Q 51.265625 72.90625 61.171875 64.09375 
Q 71.09375 55.28125 71.09375 36.53125 
Q 71.09375 17.671875 61.125 8.828125 
Q 51.171875 0 30.078125 0 
L 9.8125 0 
z
" id="DejaVuSans-44"/>
     </defs>
     <g transform="translate(222.979719 338.140062)scale(0.1 -0.1)">
      <use xlink:href="#DejaVuSans-44"/>
      <use x="77.001953" xlink:href="#DejaVuSans-61"/>
      <use x="138.28125" xlink:href="#DejaVuSans-74"/>
      <use x="177.490234" xlink:href="#DejaVuSans-65"/>
     </g>
    </g>
   </g>
   <g id="matplotlib.axis_6">
    <g id="ytick_7">
     <g id="line2d_67">
      <path clip-path="url(#pdddf3b52ea)" d="M 22.381 306.002614 
L 447.48 306.002614 
" style="fill:none;stroke:#b0b0b0;stroke-linecap:square;stroke-width:0.8;"/>
     </g>
     <g id="line2d_68">
      <g>
       <use style="stroke:#000000;stroke-width:0.8;" x="22.381" xlink:href="#mb15685b87c" y="306.002614"/>
      </g>
     </g>
     <g id="text_19">
      <!-- 0 -->
      <g transform="translate(9.0185 309.801833)scale(0.1 -0.1)">
       <use xlink:href="#DejaVuSans-30"/>
      </g>
     </g>
    </g>
    <g id="ytick_8">
     <g id="line2d_69">
      <path clip-path="url(#pdddf3b52ea)" d="M 22.381 264.498609 
L 447.48 264.498609 
" style="fill:none;stroke:#b0b0b0;stroke-linecap:square;stroke-width:0.8;"/>
     </g>
     <g id="line2d_70">
      <g>
       <use style="stroke:#000000;stroke-width:0.8;" x="22.381" xlink:href="#mb15685b87c" y="264.498609"/>
      </g>
     </g>
     <g id="text_20">
      <!-- 1 -->
      <g transform="translate(9.0185 268.297827)scale(0.1 -0.1)">
       <use xlink:href="#DejaVuSans-31"/>
      </g>
     </g>
    </g>
   </g>
   <g id="line2d_71">
    <path clip-path="url(#pdddf3b52ea)" d="M 22.381 265.033204 
L 24.279974 283.783517 
L 26.38241 272.467198 
L 28.417026 267.838777 
L 30.519462 275.468257 
L 32.554078 283.951163 
L 34.656514 277.599067 
L 36.75895 283.078416 
L 38.793565 294.383441 
L 40.896001 281.859517 
L 42.930617 268.963545 
L 45.033053 274.326543 
L 47.135489 271.674951 
L 49.034463 272.076396 
L 51.136899 277.558458 
L 53.171515 306.002614 
L 55.273951 303.698211 
L 57.308566 297.800369 
L 59.411002 293.357755 
L 61.513438 299.396801 
L 63.548054 287.597645 
L 65.65049 294.632454 
L 67.685105 306.002614 
L 69.787541 273.353282 
L 71.889977 292.795838 
L 73.788952 287.799724 
L 75.891388 281.157544 
L 77.926003 286.824877 
L 80.028439 297.008668 
L 82.063055 302.272691 
L 84.165491 296.844306 
L 86.267927 291.995411 
L 88.302542 260.238674 
L 90.404978 267.143797 
L 92.439594 269.573777 
L 94.54203 268.650578 
L 96.644466 276.487386 
L 98.611261 273.667553 
L 100.713697 271.806009 
L 102.748313 284.607524 
L 104.850749 287.542143 
L 106.885364 287.909373 
L 108.9878 258.850129 
L 111.090236 250.494817 
L 113.124852 266.463747 
L 115.227288 268.661505 
L 117.261903 265.445304 
L 119.364339 268.034906 
L 121.466775 262.729034 
L 123.36575 272.569462 
L 125.468186 257.256111 
L 127.502801 269.009009 
L 131.639853 272.615702 
L 133.742289 261.284129 
L 135.844725 263.699257 
L 137.87934 263.019649 
L 139.981776 266.412142 
L 142.016392 262.254428 
L 144.118828 264.051587 
L 146.221264 274.198552 
L 148.120238 274.92532 
L 150.222674 275.231398 
L 152.25729 275.231891 
L 154.359726 269.335929 
L 156.394341 266.471045 
L 158.496777 248.522181 
L 160.599213 261.54601 
L 162.633829 254.533594 
L 164.736265 265.578681 
L 166.770881 267.962703 
L 168.873317 260.236641 
L 170.975753 254.86285 
L 172.874727 268.066177 
L 174.977163 269.204414 
L 177.011779 287.060752 
L 179.114215 269.019795 
L 181.14883 262.215828 
L 183.251266 259.966732 
L 185.353702 255.405184 
L 187.388318 261.772772 
L 189.490754 266.884042 
L 191.525369 268.798461 
L 193.627805 265.168513 
L 197.697036 250.149305 
L 199.799472 266.994836 
L 201.834088 263.592206 
L 203.936524 261.721047 
L 205.971139 261.032763 
L 208.073575 263.776295 
L 210.176011 255.456923 
L 212.210627 258.9856 
L 214.313063 270.255664 
L 216.347678 268.638186 
L 218.450114 268.274301 
L 220.55255 267.08221 
L 222.451525 270.157531 
L 224.553961 270.120757 
L 226.588576 276.052852 
L 228.691012 275.254038 
L 230.725628 276.404035 
L 232.828064 264.058122 
L 234.9305 253.429536 
L 236.965116 248.782002 
L 239.067552 261.63745 
L 241.102167 270.208895 
L 243.204603 264.009158 
L 245.307039 269.626506 
L 247.206014 267.245583 
L 249.30845 270.543229 
L 251.343065 278.92012 
L 253.445501 272.459123 
L 255.480117 272.206644 
L 257.582553 267.539211 
L 259.684989 266.584972 
L 261.719604 259.915096 
L 263.82204 265.869315 
L 265.856656 268.831843 
L 267.959092 271.345233 
L 270.061528 274.03965 
L 271.960502 271.387837 
L 274.062938 279.068395 
L 276.097554 273.024248 
L 278.19999 271.958127 
L 280.234605 271.568104 
L 282.337041 267.374897 
L 284.439477 269.399447 
L 286.474093 258.469339 
L 288.576529 268.434543 
L 290.611144 267.454223 
L 292.71358 268.029182 
L 294.816016 269.78317 
L 296.782811 270.231725 
L 298.885247 273.038826 
L 300.919863 274.148803 
L 303.022299 273.785084 
L 305.056914 263.456761 
L 307.159351 265.928022 
L 309.261787 256.193462 
L 311.296402 262.19555 
L 313.398838 264.033691 
L 315.433454 266.450874 
L 317.53589 265.067264 
L 319.638326 269.137909 
L 321.5373 270.472087 
L 323.639736 270.962038 
L 325.674352 272.701547 
L 327.776788 271.04085 
L 329.811403 259.131247 
L 331.913839 241.289991 
L 334.016275 252.78072 
L 336.050891 255.899296 
L 338.153327 268.216355 
L 340.187942 265.502218 
L 342.290378 250.677262 
L 344.392814 265.484778 
L 346.291789 272.399648 
L 348.394225 267.547367 
L 352.531276 273.129759 
L 354.565892 265.837273 
L 356.668328 263.919303 
L 358.770764 265.292187 
L 360.805379 261.758021 
L 362.907815 261.988785 
L 364.942431 276.305608 
L 367.044867 264.697664 
L 369.147303 260.716191 
L 371.046277 262.483606 
L 373.148713 271.634074 
L 375.183329 265.861549 
L 377.285765 265.996796 
L 379.320381 255.331832 
L 381.422817 257.267664 
L 383.525253 251.585858 
L 385.559868 257.783468 
L 387.662304 258.93039 
L 389.69692 253.873896 
L 391.799356 230.178849 
L 393.901792 259.336952 
L 395.868587 282.204987 
L 397.971023 298.436009 
L 400.005638 288.873162 
L 402.108074 268.434267 
L 404.14269 253.891601 
L 406.245126 255.555853 
L 408.347562 256.817794 
L 410.382177 263.195206 
L 414.519229 272.354885 
L 416.621665 246.294989 
L 418.724101 264.390827 
L 420.623075 269.866129 
L 422.725511 269.098032 
L 424.760127 272.682262 
L 426.862563 270.408023 
L 428.897178 301.469444 
L 430.999614 305.748778 
L 433.10205 274.017619 
L 435.136666 265.16781 
L 437.239102 269.20414 
L 439.273717 261.258573 
L 441.376153 228.784902 
L 443.47859 260.711379 
L 445.377564 263.538237 
L 447.48 264.775095 
L 447.48 264.775095 
" style="fill:none;stroke:#4682b4;stroke-linecap:square;stroke-width:1.5;"/>
   </g>
   <g id="patch_15">
    <path d="M 22.381 309.8635 
L 22.381 224.924017 
" style="fill:none;stroke:#000000;stroke-linecap:square;stroke-linejoin:miter;stroke-width:0.8;"/>
   </g>
   <g id="patch_16">
    <path d="M 447.48 309.8635 
L 447.48 224.924017 
" style="fill:none;stroke:#000000;stroke-linecap:square;stroke-linejoin:miter;stroke-width:0.8;"/>
   </g>
   <g id="patch_17">
    <path d="M 22.381 309.8635 
L 447.48 309.8635 
" style="fill:none;stroke:#000000;stroke-linecap:square;stroke-linejoin:miter;stroke-width:0.8;"/>
   </g>
   <g id="patch_18">
    <path d="M 22.381 224.924017 
L 447.48 224.924017 
" style="fill:none;stroke:#000000;stroke-linecap:square;stroke-linejoin:miter;stroke-width:0.8;"/>
   </g>
   <g id="legend_3">
    <g id="patch_19">
     <path d="M 29.381 247.602142 
L 82.598187 247.602142 
Q 84.598187 247.602142 84.598187 245.602142 
L 84.598187 231.924017 
Q 84.598187 229.924017 82.598187 229.924017 
L 29.381 229.924017 
Q 27.381 229.924017 27.381 231.924017 
L 27.381 245.602142 
Q 27.381 247.602142 29.381 247.602142 
z
" style="fill:#ffffff;opacity:0.8;stroke:#cccccc;stroke-linejoin:miter;"/>
    </g>
    <g id="line2d_72">
     <path d="M 31.381 238.022454 
L 51.381 238.022454 
" style="fill:none;stroke:#4682b4;stroke-linecap:square;stroke-width:1.5;"/>
    </g>
    <g id="line2d_73"/>
    <g id="text_21">
     <!-- CO2 -->
     <defs>
      <path d="M 64.40625 67.28125 
L 64.40625 56.890625 
Q 59.421875 61.53125 53.78125 63.8125 
Q 48.140625 66.109375 41.796875 66.109375 
Q 29.296875 66.109375 22.65625 58.46875 
Q 16.015625 50.828125 16.015625 36.375 
Q 16.015625 21.96875 22.65625 14.328125 
Q 29.296875 6.6875 41.796875 6.6875 
Q 48.140625 6.6875 53.78125 8.984375 
Q 59.421875 11.28125 64.40625 15.921875 
L 64.40625 5.609375 
Q 59.234375 2.09375 53.4375 0.328125 
Q 47.65625 -1.421875 41.21875 -1.421875 
Q 24.65625 -1.421875 15.125 8.703125 
Q 5.609375 18.84375 5.609375 36.375 
Q 5.609375 53.953125 15.125 64.078125 
Q 24.65625 74.21875 41.21875 74.21875 
Q 47.75 74.21875 53.53125 72.484375 
Q 59.328125 70.75 64.40625 67.28125 
z
" id="DejaVuSans-43"/>
     </defs>
     <g transform="translate(59.381 241.522454)scale(0.1 -0.1)">
      <use xlink:href="#DejaVuSans-43"/>
      <use x="69.824219" xlink:href="#DejaVuSans-4f"/>
      <use x="148.535156" xlink:href="#DejaVuSans-32"/>
     </g>
    </g>
   </g>
  </g>
 </g>
 <defs>
  <clipPath id="pc272ea4e28">
   <rect height="84.939483" width="425.099" x="22.381" y="23.36505"/>
  </clipPath>
  <clipPath id="p14fa8654d1">
   <rect height="84.939483" width="425.099" x="22.381" y="124.144533"/>
  </clipPath>
  <clipPath id="pdddf3b52ea">
   <rect height="84.939483" width="425.099" x="22.381" y="224.924017"/>
  </clipPath>
 </defs>
</svg>
