<?xml version="1.0" encoding="utf-8" standalone="no"?>
<!DOCTYPE svg PUBLIC "-//W3C//DTD SVG 1.1//EN"
  "http://www.w3.org/Graphics/SVG/1.1/DTD/svg11.dtd">
<!-- Created with matplotlib (http://matplotlib.org/) -->
<svg height="345.6pt" version="1.1" viewBox="0 0 460.8 345.6" width="460.8pt" xmlns="http://www.w3.org/2000/svg" xmlns:xlink="http://www.w3.org/1999/xlink">
 <defs>
  <style type="text/css">
*{stroke-linecap:butt;stroke-linejoin:round;}
  </style>
 </defs>
 <g id="figure_1">
  <g id="patch_1">
   <path d="M 0 345.6 
L 460.8 345.6 
L 460.8 0 
L 0 0 
z
" style="fill:none;"/>
  </g>
  <g id="axes_1">
   <g id="patch_2">
    <path d="M 40.2185 309.8635 
L 447.48 309.8635 
L 447.48 23.36505 
L 40.2185 23.36505 
z
" style="fill:none;"/>
   </g>
   <g id="matplotlib.axis_1">
    <g id="xtick_1">
     <g id="line2d_1">
      <path clip-path="url(#pce66f99a76)" d="M 83.018083 309.8635 
L 83.018083 23.36505 
" style="fill:none;stroke:#b0b0b0;stroke-linecap:square;stroke-width:0.8;"/>
     </g>
     <g id="line2d_2">
      <defs>
       <path d="M 0 0 
L 0 3.5 
" id="mee5ec2f2ad" style="stroke:#000000;stroke-width:0.8;"/>
      </defs>
      <g>
       <use style="stroke:#000000;stroke-width:0.8;" x="83.018083" xlink:href="#mee5ec2f2ad" y="309.8635"/>
      </g>
     </g>
     <g id="text_1">
      <!-- 2004 -->
      <defs>
       <path d="M 19.1875 8.296875 
L 53.609375 8.296875 
L 53.609375 0 
L 7.328125 0 
L 7.328125 8.296875 
Q 12.9375 14.109375 22.625 23.890625 
Q 32.328125 33.6875 34.8125 36.53125 
Q 39.546875 41.84375 41.421875 45.53125 
Q 43.3125 49.21875 43.3125 52.78125 
Q 43.3125 58.59375 39.234375 62.25 
Q 35.15625 65.921875 28.609375 65.921875 
Q 23.96875 65.921875 18.8125 64.3125 
Q 13.671875 62.703125 7.8125 59.421875 
L 7.8125 69.390625 
Q 13.765625 71.78125 18.9375 73 
Q 24.125 74.21875 28.421875 74.21875 
Q 39.75 74.21875 46.484375 68.546875 
Q 53.21875 62.890625 53.21875 53.421875 
Q 53.21875 48.921875 51.53125 44.890625 
Q 49.859375 40.875 45.40625 35.40625 
Q 44.1875 33.984375 37.640625 27.21875 
Q 31.109375 20.453125 19.1875 8.296875 
z
" id="DejaVuSans-32"/>
       <path d="M 31.78125 66.40625 
Q 24.171875 66.40625 20.328125 58.90625 
Q 16.5 51.421875 16.5 36.375 
Q 16.5 21.390625 20.328125 13.890625 
Q 24.171875 6.390625 31.78125 6.390625 
Q 39.453125 6.390625 43.28125 13.890625 
Q 47.125 21.390625 47.125 36.375 
Q 47.125 51.421875 43.28125 58.90625 
Q 39.453125 66.40625 31.78125 66.40625 
z
M 31.78125 74.21875 
Q 44.046875 74.21875 50.515625 64.515625 
Q 56.984375 54.828125 56.984375 36.375 
Q 56.984375 17.96875 50.515625 8.265625 
Q 44.046875 -1.421875 31.78125 -1.421875 
Q 19.53125 -1.421875 13.0625 8.265625 
Q 6.59375 17.96875 6.59375 36.375 
Q 6.59375 54.828125 13.0625 64.515625 
Q 19.53125 74.21875 31.78125 74.21875 
z
" id="DejaVuSans-30"/>
       <path d="M 37.796875 64.3125 
L 12.890625 25.390625 
L 37.796875 25.390625 
z
M 35.203125 72.90625 
L 47.609375 72.90625 
L 47.609375 25.390625 
L 58.015625 25.390625 
L 58.015625 17.1875 
L 47.609375 17.1875 
L 47.609375 0 
L 37.796875 0 
L 37.796875 17.1875 
L 4.890625 17.1875 
L 4.890625 26.703125 
z
" id="DejaVuSans-34"/>
      </defs>
      <g transform="translate(70.293083 324.461937)scale(0.1 -0.1)">
       <use xlink:href="#DejaVuSans-32"/>
       <use x="63.623047" xlink:href="#DejaVuSans-30"/>
       <use x="127.246094" xlink:href="#DejaVuSans-30"/>
       <use x="190.869141" xlink:href="#DejaVuSans-34"/>
      </g>
     </g>
    </g>
    <g id="xtick_2">
     <g id="line2d_3">
      <path clip-path="url(#pce66f99a76)" d="M 134.223476 309.8635 
L 134.223476 23.36505 
" style="fill:none;stroke:#b0b0b0;stroke-linecap:square;stroke-width:0.8;"/>
     </g>
     <g id="line2d_4">
      <g>
       <use style="stroke:#000000;stroke-width:0.8;" x="134.223476" xlink:href="#mee5ec2f2ad" y="309.8635"/>
      </g>
     </g>
     <g id="text_2">
      <!-- 2006 -->
      <defs>
       <path d="M 33.015625 40.375 
Q 26.375 40.375 22.484375 35.828125 
Q 18.609375 31.296875 18.609375 23.390625 
Q 18.609375 15.53125 22.484375 10.953125 
Q 26.375 6.390625 33.015625 6.390625 
Q 39.65625 6.390625 43.53125 10.953125 
Q 47.40625 15.53125 47.40625 23.390625 
Q 47.40625 31.296875 43.53125 35.828125 
Q 39.65625 40.375 33.015625 40.375 
z
M 52.59375 71.296875 
L 52.59375 62.3125 
Q 48.875 64.0625 45.09375 64.984375 
Q 41.3125 65.921875 37.59375 65.921875 
Q 27.828125 65.921875 22.671875 59.328125 
Q 17.53125 52.734375 16.796875 39.40625 
Q 19.671875 43.65625 24.015625 45.921875 
Q 28.375 48.1875 33.59375 48.1875 
Q 44.578125 48.1875 50.953125 41.515625 
Q 57.328125 34.859375 57.328125 23.390625 
Q 57.328125 12.15625 50.6875 5.359375 
Q 44.046875 -1.421875 33.015625 -1.421875 
Q 20.359375 -1.421875 13.671875 8.265625 
Q 6.984375 17.96875 6.984375 36.375 
Q 6.984375 53.65625 15.1875 63.9375 
Q 23.390625 74.21875 37.203125 74.21875 
Q 40.921875 74.21875 44.703125 73.484375 
Q 48.484375 72.75 52.59375 71.296875 
z
" id="DejaVuSans-36"/>
      </defs>
      <g transform="translate(121.498476 324.461937)scale(0.1 -0.1)">
       <use xlink:href="#DejaVuSans-32"/>
       <use x="63.623047" xlink:href="#DejaVuSans-30"/>
       <use x="127.246094" xlink:href="#DejaVuSans-30"/>
       <use x="190.869141" xlink:href="#DejaVuSans-36"/>
      </g>
     </g>
    </g>
    <g id="xtick_3">
     <g id="line2d_5">
      <path clip-path="url(#pce66f99a76)" d="M 185.358821 309.8635 
L 185.358821 23.36505 
" style="fill:none;stroke:#b0b0b0;stroke-linecap:square;stroke-width:0.8;"/>
     </g>
     <g id="line2d_6">
      <g>
       <use style="stroke:#000000;stroke-width:0.8;" x="185.358821" xlink:href="#mee5ec2f2ad" y="309.8635"/>
      </g>
     </g>
     <g id="text_3">
      <!-- 2008 -->
      <defs>
       <path d="M 31.78125 34.625 
Q 24.75 34.625 20.71875 30.859375 
Q 16.703125 27.09375 16.703125 20.515625 
Q 16.703125 13.921875 20.71875 10.15625 
Q 24.75 6.390625 31.78125 6.390625 
Q 38.8125 6.390625 42.859375 10.171875 
Q 46.921875 13.96875 46.921875 20.515625 
Q 46.921875 27.09375 42.890625 30.859375 
Q 38.875 34.625 31.78125 34.625 
z
M 21.921875 38.8125 
Q 15.578125 40.375 12.03125 44.71875 
Q 8.5 49.078125 8.5 55.328125 
Q 8.5 64.0625 14.71875 69.140625 
Q 20.953125 74.21875 31.78125 74.21875 
Q 42.671875 74.21875 48.875 69.140625 
Q 55.078125 64.0625 55.078125 55.328125 
Q 55.078125 49.078125 51.53125 44.71875 
Q 48 40.375 41.703125 38.8125 
Q 48.828125 37.15625 52.796875 32.3125 
Q 56.78125 27.484375 56.78125 20.515625 
Q 56.78125 9.90625 50.3125 4.234375 
Q 43.84375 -1.421875 31.78125 -1.421875 
Q 19.734375 -1.421875 13.25 4.234375 
Q 6.78125 9.90625 6.78125 20.515625 
Q 6.78125 27.484375 10.78125 32.3125 
Q 14.796875 37.15625 21.921875 38.8125 
z
M 18.3125 54.390625 
Q 18.3125 48.734375 21.84375 45.5625 
Q 25.390625 42.390625 31.78125 42.390625 
Q 38.140625 42.390625 41.71875 45.5625 
Q 45.3125 48.734375 45.3125 54.390625 
Q 45.3125 60.0625 41.71875 63.234375 
Q 38.140625 66.40625 31.78125 66.40625 
Q 25.390625 66.40625 21.84375 63.234375 
Q 18.3125 60.0625 18.3125 54.390625 
z
" id="DejaVuSans-38"/>
      </defs>
      <g transform="translate(172.633821 324.461937)scale(0.1 -0.1)">
       <use xlink:href="#DejaVuSans-32"/>
       <use x="63.623047" xlink:href="#DejaVuSans-30"/>
       <use x="127.246094" xlink:href="#DejaVuSans-30"/>
       <use x="190.869141" xlink:href="#DejaVuSans-38"/>
      </g>
     </g>
    </g>
    <g id="xtick_4">
     <g id="line2d_7">
      <path clip-path="url(#pce66f99a76)" d="M 236.564215 309.8635 
L 236.564215 23.36505 
" style="fill:none;stroke:#b0b0b0;stroke-linecap:square;stroke-width:0.8;"/>
     </g>
     <g id="line2d_8">
      <g>
       <use style="stroke:#000000;stroke-width:0.8;" x="236.564215" xlink:href="#mee5ec2f2ad" y="309.8635"/>
      </g>
     </g>
     <g id="text_4">
      <!-- 2010 -->
      <defs>
       <path d="M 12.40625 8.296875 
L 28.515625 8.296875 
L 28.515625 63.921875 
L 10.984375 60.40625 
L 10.984375 69.390625 
L 28.421875 72.90625 
L 38.28125 72.90625 
L 38.28125 8.296875 
L 54.390625 8.296875 
L 54.390625 0 
L 12.40625 0 
z
" id="DejaVuSans-31"/>
      </defs>
      <g transform="translate(223.839215 324.461937)scale(0.1 -0.1)">
       <use xlink:href="#DejaVuSans-32"/>
       <use x="63.623047" xlink:href="#DejaVuSans-30"/>
       <use x="127.246094" xlink:href="#DejaVuSans-31"/>
       <use x="190.869141" xlink:href="#DejaVuSans-30"/>
      </g>
     </g>
    </g>
    <g id="xtick_5">
     <g id="line2d_9">
      <path clip-path="url(#pce66f99a76)" d="M 287.699559 309.8635 
L 287.699559 23.36505 
" style="fill:none;stroke:#b0b0b0;stroke-linecap:square;stroke-width:0.8;"/>
     </g>
     <g id="line2d_10">
      <g>
       <use style="stroke:#000000;stroke-width:0.8;" x="287.699559" xlink:href="#mee5ec2f2ad" y="309.8635"/>
      </g>
     </g>
     <g id="text_5">
      <!-- 2012 -->
      <g transform="translate(274.974559 324.461937)scale(0.1 -0.1)">
       <use xlink:href="#DejaVuSans-32"/>
       <use x="63.623047" xlink:href="#DejaVuSans-30"/>
       <use x="127.246094" xlink:href="#DejaVuSans-31"/>
       <use x="190.869141" xlink:href="#DejaVuSans-32"/>
      </g>
     </g>
    </g>
    <g id="xtick_6">
     <g id="line2d_11">
      <path clip-path="url(#pce66f99a76)" d="M 338.904953 309.8635 
L 338.904953 23.36505 
" style="fill:none;stroke:#b0b0b0;stroke-linecap:square;stroke-width:0.8;"/>
     </g>
     <g id="line2d_12">
      <g>
       <use style="stroke:#000000;stroke-width:0.8;" x="338.904953" xlink:href="#mee5ec2f2ad" y="309.8635"/>
      </g>
     </g>
     <g id="text_6">
      <!-- 2014 -->
      <g transform="translate(326.179953 324.461937)scale(0.1 -0.1)">
       <use xlink:href="#DejaVuSans-32"/>
       <use x="63.623047" xlink:href="#DejaVuSans-30"/>
       <use x="127.246094" xlink:href="#DejaVuSans-31"/>
       <use x="190.869141" xlink:href="#DejaVuSans-34"/>
      </g>
     </g>
    </g>
    <g id="xtick_7">
     <g id="line2d_13">
      <path clip-path="url(#pce66f99a76)" d="M 390.040298 309.8635 
L 390.040298 23.36505 
" style="fill:none;stroke:#b0b0b0;stroke-linecap:square;stroke-width:0.8;"/>
     </g>
     <g id="line2d_14">
      <g>
       <use style="stroke:#000000;stroke-width:0.8;" x="390.040298" xlink:href="#mee5ec2f2ad" y="309.8635"/>
      </g>
     </g>
     <g id="text_7">
      <!-- 2016 -->
      <g transform="translate(377.315298 324.461937)scale(0.1 -0.1)">
       <use xlink:href="#DejaVuSans-32"/>
       <use x="63.623047" xlink:href="#DejaVuSans-30"/>
       <use x="127.246094" xlink:href="#DejaVuSans-31"/>
       <use x="190.869141" xlink:href="#DejaVuSans-36"/>
      </g>
     </g>
    </g>
    <g id="xtick_8">
     <g id="line2d_15">
      <path clip-path="url(#pce66f99a76)" d="M 441.245691 309.8635 
L 441.245691 23.36505 
" style="fill:none;stroke:#b0b0b0;stroke-linecap:square;stroke-width:0.8;"/>
     </g>
     <g id="line2d_16">
      <g>
       <use style="stroke:#000000;stroke-width:0.8;" x="441.245691" xlink:href="#mee5ec2f2ad" y="309.8635"/>
      </g>
     </g>
     <g id="text_8">
      <!-- 2018 -->
      <g transform="translate(428.520691 324.461937)scale(0.1 -0.1)">
       <use xlink:href="#DejaVuSans-32"/>
       <use x="63.623047" xlink:href="#DejaVuSans-30"/>
       <use x="127.246094" xlink:href="#DejaVuSans-31"/>
       <use x="190.869141" xlink:href="#DejaVuSans-38"/>
      </g>
     </g>
    </g>
    <g id="text_9">
     <!-- Date -->
     <defs>
      <path d="M 19.671875 64.796875 
L 19.671875 8.109375 
L 31.59375 8.109375 
Q 46.6875 8.109375 53.6875 14.9375 
Q 60.6875 21.78125 60.6875 36.53125 
Q 60.6875 51.171875 53.6875 57.984375 
Q 46.6875 64.796875 31.59375 64.796875 
z
M 9.8125 72.90625 
L 30.078125 72.90625 
Q 51.265625 72.90625 61.171875 64.09375 
Q 71.09375 55.28125 71.09375 36.53125 
Q 71.09375 17.671875 61.125 8.828125 
Q 51.171875 0 30.078125 0 
L 9.8125 0 
z
" id="DejaVuSans-44"/>
      <path d="M 34.28125 27.484375 
Q 23.390625 27.484375 19.1875 25 
Q 14.984375 22.515625 14.984375 16.5 
Q 14.984375 11.71875 18.140625 8.90625 
Q 21.296875 6.109375 26.703125 6.109375 
Q 34.1875 6.109375 38.703125 11.40625 
Q 43.21875 16.703125 43.21875 25.484375 
L 43.21875 27.484375 
z
M 52.203125 31.203125 
L 52.203125 0 
L 43.21875 0 
L 43.21875 8.296875 
Q 40.140625 3.328125 35.546875 0.953125 
Q 30.953125 -1.421875 24.3125 -1.421875 
Q 15.921875 -1.421875 10.953125 3.296875 
Q 6 8.015625 6 15.921875 
Q 6 25.140625 12.171875 29.828125 
Q 18.359375 34.515625 30.609375 34.515625 
L 43.21875 34.515625 
L 43.21875 35.40625 
Q 43.21875 41.609375 39.140625 45 
Q 35.0625 48.390625 27.6875 48.390625 
Q 23 48.390625 18.546875 47.265625 
Q 14.109375 46.140625 10.015625 43.890625 
L 10.015625 52.203125 
Q 14.9375 54.109375 19.578125 55.046875 
Q 24.21875 56 28.609375 56 
Q 40.484375 56 46.34375 49.84375 
Q 52.203125 43.703125 52.203125 31.203125 
z
" id="DejaVuSans-61"/>
      <path d="M 18.3125 70.21875 
L 18.3125 54.6875 
L 36.8125 54.6875 
L 36.8125 47.703125 
L 18.3125 47.703125 
L 18.3125 18.015625 
Q 18.3125 11.328125 20.140625 9.421875 
Q 21.96875 7.515625 27.59375 7.515625 
L 36.8125 7.515625 
L 36.8125 0 
L 27.59375 0 
Q 17.1875 0 13.234375 3.875 
Q 9.28125 7.765625 9.28125 18.015625 
L 9.28125 47.703125 
L 2.6875 47.703125 
L 2.6875 54.6875 
L 9.28125 54.6875 
L 9.28125 70.21875 
z
" id="DejaVuSans-74"/>
      <path d="M 56.203125 29.59375 
L 56.203125 25.203125 
L 14.890625 25.203125 
Q 15.484375 15.921875 20.484375 11.0625 
Q 25.484375 6.203125 34.421875 6.203125 
Q 39.59375 6.203125 44.453125 7.46875 
Q 49.3125 8.734375 54.109375 11.28125 
L 54.109375 2.78125 
Q 49.265625 0.734375 44.1875 -0.34375 
Q 39.109375 -1.421875 33.890625 -1.421875 
Q 20.796875 -1.421875 13.15625 6.1875 
Q 5.515625 13.8125 5.515625 26.8125 
Q 5.515625 40.234375 12.765625 48.109375 
Q 20.015625 56 32.328125 56 
Q 43.359375 56 49.78125 48.890625 
Q 56.203125 41.796875 56.203125 29.59375 
z
M 47.21875 32.234375 
Q 47.125 39.59375 43.09375 43.984375 
Q 39.0625 48.390625 32.421875 48.390625 
Q 24.90625 48.390625 20.390625 44.140625 
Q 15.875 39.890625 15.1875 32.171875 
z
" id="DejaVuSans-65"/>
     </defs>
     <g transform="translate(231.898469 338.140062)scale(0.1 -0.1)">
      <use xlink:href="#DejaVuSans-44"/>
      <use x="77.001953" xlink:href="#DejaVuSans-61"/>
      <use x="138.28125" xlink:href="#DejaVuSans-74"/>
      <use x="177.490234" xlink:href="#DejaVuSans-65"/>
     </g>
    </g>
   </g>
   <g id="matplotlib.axis_2">
    <g id="ytick_1">
     <g id="line2d_17">
      <path clip-path="url(#pce66f99a76)" d="M 40.2185 296.840843 
L 447.48 296.840843 
" style="fill:none;stroke:#b0b0b0;stroke-linecap:square;stroke-width:0.8;"/>
     </g>
     <g id="line2d_18">
      <defs>
       <path d="M 0 0 
L -3.5 0 
" id="m979ed999ee" style="stroke:#000000;stroke-width:0.8;"/>
      </defs>
      <g>
       <use style="stroke:#000000;stroke-width:0.8;" x="40.2185" xlink:href="#m979ed999ee" y="296.840843"/>
      </g>
     </g>
     <g id="text_10">
      <!-- 0.0 -->
      <defs>
       <path d="M 10.6875 12.40625 
L 21 12.40625 
L 21 0 
L 10.6875 0 
z
" id="DejaVuSans-2e"/>
      </defs>
      <g transform="translate(17.315375 300.640062)scale(0.1 -0.1)">
       <use xlink:href="#DejaVuSans-30"/>
       <use x="63.623047" xlink:href="#DejaVuSans-2e"/>
       <use x="95.410156" xlink:href="#DejaVuSans-30"/>
      </g>
     </g>
    </g>
    <g id="ytick_2">
     <g id="line2d_19">
      <path clip-path="url(#pce66f99a76)" d="M 40.2185 249.700665 
L 447.48 249.700665 
" style="fill:none;stroke:#b0b0b0;stroke-linecap:square;stroke-width:0.8;"/>
     </g>
     <g id="line2d_20">
      <g>
       <use style="stroke:#000000;stroke-width:0.8;" x="40.2185" xlink:href="#m979ed999ee" y="249.700665"/>
      </g>
     </g>
     <g id="text_11">
      <!-- 0.5 -->
      <defs>
       <path d="M 10.796875 72.90625 
L 49.515625 72.90625 
L 49.515625 64.59375 
L 19.828125 64.59375 
L 19.828125 46.734375 
Q 21.96875 47.46875 24.109375 47.828125 
Q 26.265625 48.1875 28.421875 48.1875 
Q 40.625 48.1875 47.75 41.5 
Q 54.890625 34.8125 54.890625 23.390625 
Q 54.890625 11.625 47.5625 5.09375 
Q 40.234375 -1.421875 26.90625 -1.421875 
Q 22.3125 -1.421875 17.546875 -0.640625 
Q 12.796875 0.140625 7.71875 1.703125 
L 7.71875 11.625 
Q 12.109375 9.234375 16.796875 8.0625 
Q 21.484375 6.890625 26.703125 6.890625 
Q 35.15625 6.890625 40.078125 11.328125 
Q 45.015625 15.765625 45.015625 23.390625 
Q 45.015625 31 40.078125 35.4375 
Q 35.15625 39.890625 26.703125 39.890625 
Q 22.75 39.890625 18.8125 39.015625 
Q 14.890625 38.140625 10.796875 36.28125 
z
" id="DejaVuSans-35"/>
      </defs>
      <g transform="translate(17.315375 253.499883)scale(0.1 -0.1)">
       <use xlink:href="#DejaVuSans-30"/>
       <use x="63.623047" xlink:href="#DejaVuSans-2e"/>
       <use x="95.410156" xlink:href="#DejaVuSans-35"/>
      </g>
     </g>
    </g>
    <g id="ytick_3">
     <g id="line2d_21">
      <path clip-path="url(#pce66f99a76)" d="M 40.2185 202.560486 
L 447.48 202.560486 
" style="fill:none;stroke:#b0b0b0;stroke-linecap:square;stroke-width:0.8;"/>
     </g>
     <g id="line2d_22">
      <g>
       <use style="stroke:#000000;stroke-width:0.8;" x="40.2185" xlink:href="#m979ed999ee" y="202.560486"/>
      </g>
     </g>
     <g id="text_12">
      <!-- 1.0 -->
      <g transform="translate(17.315375 206.359705)scale(0.1 -0.1)">
       <use xlink:href="#DejaVuSans-31"/>
       <use x="63.623047" xlink:href="#DejaVuSans-2e"/>
       <use x="95.410156" xlink:href="#DejaVuSans-30"/>
      </g>
     </g>
    </g>
    <g id="ytick_4">
     <g id="line2d_23">
      <path clip-path="url(#pce66f99a76)" d="M 40.2185 155.420308 
L 447.48 155.420308 
" style="fill:none;stroke:#b0b0b0;stroke-linecap:square;stroke-width:0.8;"/>
     </g>
     <g id="line2d_24">
      <g>
       <use style="stroke:#000000;stroke-width:0.8;" x="40.2185" xlink:href="#m979ed999ee" y="155.420308"/>
      </g>
     </g>
     <g id="text_13">
      <!-- 1.5 -->
      <g transform="translate(17.315375 159.219527)scale(0.1 -0.1)">
       <use xlink:href="#DejaVuSans-31"/>
       <use x="63.623047" xlink:href="#DejaVuSans-2e"/>
       <use x="95.410156" xlink:href="#DejaVuSans-35"/>
      </g>
     </g>
    </g>
    <g id="ytick_5">
     <g id="line2d_25">
      <path clip-path="url(#pce66f99a76)" d="M 40.2185 108.280129 
L 447.48 108.280129 
" style="fill:none;stroke:#b0b0b0;stroke-linecap:square;stroke-width:0.8;"/>
     </g>
     <g id="line2d_26">
      <g>
       <use style="stroke:#000000;stroke-width:0.8;" x="40.2185" xlink:href="#m979ed999ee" y="108.280129"/>
      </g>
     </g>
     <g id="text_14">
      <!-- 2.0 -->
      <g transform="translate(17.315375 112.079348)scale(0.1 -0.1)">
       <use xlink:href="#DejaVuSans-32"/>
       <use x="63.623047" xlink:href="#DejaVuSans-2e"/>
       <use x="95.410156" xlink:href="#DejaVuSans-30"/>
      </g>
     </g>
    </g>
    <g id="ytick_6">
     <g id="line2d_27">
      <path clip-path="url(#pce66f99a76)" d="M 40.2185 61.139951 
L 447.48 61.139951 
" style="fill:none;stroke:#b0b0b0;stroke-linecap:square;stroke-width:0.8;"/>
     </g>
     <g id="line2d_28">
      <g>
       <use style="stroke:#000000;stroke-width:0.8;" x="40.2185" xlink:href="#m979ed999ee" y="61.139951"/>
      </g>
     </g>
     <g id="text_15">
      <!-- 2.5 -->
      <g transform="translate(17.315375 64.93917)scale(0.1 -0.1)">
       <use xlink:href="#DejaVuSans-32"/>
       <use x="63.623047" xlink:href="#DejaVuSans-2e"/>
       <use x="95.410156" xlink:href="#DejaVuSans-35"/>
      </g>
     </g>
    </g>
    <g id="text_16">
     <!-- Emissions / mean emissions -->
     <defs>
      <path d="M 9.8125 72.90625 
L 55.90625 72.90625 
L 55.90625 64.59375 
L 19.671875 64.59375 
L 19.671875 43.015625 
L 54.390625 43.015625 
L 54.390625 34.71875 
L 19.671875 34.71875 
L 19.671875 8.296875 
L 56.78125 8.296875 
L 56.78125 0 
L 9.8125 0 
z
" id="DejaVuSans-45"/>
      <path d="M 52 44.1875 
Q 55.375 50.25 60.0625 53.125 
Q 64.75 56 71.09375 56 
Q 79.640625 56 84.28125 50.015625 
Q 88.921875 44.046875 88.921875 33.015625 
L 88.921875 0 
L 79.890625 0 
L 79.890625 32.71875 
Q 79.890625 40.578125 77.09375 44.375 
Q 74.3125 48.1875 68.609375 48.1875 
Q 61.625 48.1875 57.5625 43.546875 
Q 53.515625 38.921875 53.515625 30.90625 
L 53.515625 0 
L 44.484375 0 
L 44.484375 32.71875 
Q 44.484375 40.625 41.703125 44.40625 
Q 38.921875 48.1875 33.109375 48.1875 
Q 26.21875 48.1875 22.15625 43.53125 
Q 18.109375 38.875 18.109375 30.90625 
L 18.109375 0 
L 9.078125 0 
L 9.078125 54.6875 
L 18.109375 54.6875 
L 18.109375 46.1875 
Q 21.1875 51.21875 25.484375 53.609375 
Q 29.78125 56 35.6875 56 
Q 41.65625 56 45.828125 52.96875 
Q 50 49.953125 52 44.1875 
z
" id="DejaVuSans-6d"/>
      <path d="M 9.421875 54.6875 
L 18.40625 54.6875 
L 18.40625 0 
L 9.421875 0 
z
M 9.421875 75.984375 
L 18.40625 75.984375 
L 18.40625 64.59375 
L 9.421875 64.59375 
z
" id="DejaVuSans-69"/>
      <path d="M 44.28125 53.078125 
L 44.28125 44.578125 
Q 40.484375 46.53125 36.375 47.5 
Q 32.28125 48.484375 27.875 48.484375 
Q 21.1875 48.484375 17.84375 46.4375 
Q 14.5 44.390625 14.5 40.28125 
Q 14.5 37.15625 16.890625 35.375 
Q 19.28125 33.59375 26.515625 31.984375 
L 29.59375 31.296875 
Q 39.15625 29.25 43.1875 25.515625 
Q 47.21875 21.78125 47.21875 15.09375 
Q 47.21875 7.46875 41.1875 3.015625 
Q 35.15625 -1.421875 24.609375 -1.421875 
Q 20.21875 -1.421875 15.453125 -0.5625 
Q 10.6875 0.296875 5.421875 2 
L 5.421875 11.28125 
Q 10.40625 8.6875 15.234375 7.390625 
Q 20.0625 6.109375 24.8125 6.109375 
Q 31.15625 6.109375 34.5625 8.28125 
Q 37.984375 10.453125 37.984375 14.40625 
Q 37.984375 18.0625 35.515625 20.015625 
Q 33.0625 21.96875 24.703125 23.78125 
L 21.578125 24.515625 
Q 13.234375 26.265625 9.515625 29.90625 
Q 5.8125 33.546875 5.8125 39.890625 
Q 5.8125 47.609375 11.28125 51.796875 
Q 16.75 56 26.8125 56 
Q 31.78125 56 36.171875 55.265625 
Q 40.578125 54.546875 44.28125 53.078125 
z
" id="DejaVuSans-73"/>
      <path d="M 30.609375 48.390625 
Q 23.390625 48.390625 19.1875 42.75 
Q 14.984375 37.109375 14.984375 27.296875 
Q 14.984375 17.484375 19.15625 11.84375 
Q 23.34375 6.203125 30.609375 6.203125 
Q 37.796875 6.203125 41.984375 11.859375 
Q 46.1875 17.53125 46.1875 27.296875 
Q 46.1875 37.015625 41.984375 42.703125 
Q 37.796875 48.390625 30.609375 48.390625 
z
M 30.609375 56 
Q 42.328125 56 49.015625 48.375 
Q 55.71875 40.765625 55.71875 27.296875 
Q 55.71875 13.875 49.015625 6.21875 
Q 42.328125 -1.421875 30.609375 -1.421875 
Q 18.84375 -1.421875 12.171875 6.21875 
Q 5.515625 13.875 5.515625 27.296875 
Q 5.515625 40.765625 12.171875 48.375 
Q 18.84375 56 30.609375 56 
z
" id="DejaVuSans-6f"/>
      <path d="M 54.890625 33.015625 
L 54.890625 0 
L 45.90625 0 
L 45.90625 32.71875 
Q 45.90625 40.484375 42.875 44.328125 
Q 39.84375 48.1875 33.796875 48.1875 
Q 26.515625 48.1875 22.3125 43.546875 
Q 18.109375 38.921875 18.109375 30.90625 
L 18.109375 0 
L 9.078125 0 
L 9.078125 54.6875 
L 18.109375 54.6875 
L 18.109375 46.1875 
Q 21.34375 51.125 25.703125 53.5625 
Q 30.078125 56 35.796875 56 
Q 45.21875 56 50.046875 50.171875 
Q 54.890625 44.34375 54.890625 33.015625 
z
" id="DejaVuSans-6e"/>
      <path id="DejaVuSans-20"/>
      <path d="M 25.390625 72.90625 
L 33.6875 72.90625 
L 8.296875 -9.28125 
L 0 -9.28125 
z
" id="DejaVuSans-2f"/>
     </defs>
     <g transform="translate(11.235687 236.862713)rotate(-90)scale(0.1 -0.1)">
      <use xlink:href="#DejaVuSans-45"/>
      <use x="63.183594" xlink:href="#DejaVuSans-6d"/>
      <use x="160.595703" xlink:href="#DejaVuSans-69"/>
      <use x="188.378906" xlink:href="#DejaVuSans-73"/>
      <use x="240.478516" xlink:href="#DejaVuSans-73"/>
      <use x="292.578125" xlink:href="#DejaVuSans-69"/>
      <use x="320.361328" xlink:href="#DejaVuSans-6f"/>
      <use x="381.542969" xlink:href="#DejaVuSans-6e"/>
      <use x="444.921875" xlink:href="#DejaVuSans-73"/>
      <use x="497.021484" xlink:href="#DejaVuSans-20"/>
      <use x="528.808594" xlink:href="#DejaVuSans-2f"/>
      <use x="562.5" xlink:href="#DejaVuSans-20"/>
      <use x="594.287109" xlink:href="#DejaVuSans-6d"/>
      <use x="691.699219" xlink:href="#DejaVuSans-65"/>
      <use x="753.222656" xlink:href="#DejaVuSans-61"/>
      <use x="814.501953" xlink:href="#DejaVuSans-6e"/>
      <use x="877.880859" xlink:href="#DejaVuSans-20"/>
      <use x="909.667969" xlink:href="#DejaVuSans-65"/>
      <use x="971.191406" xlink:href="#DejaVuSans-6d"/>
      <use x="1068.603516" xlink:href="#DejaVuSans-69"/>
      <use x="1096.386719" xlink:href="#DejaVuSans-73"/>
      <use x="1148.486328" xlink:href="#DejaVuSans-73"/>
      <use x="1200.585938" xlink:href="#DejaVuSans-69"/>
      <use x="1228.369141" xlink:href="#DejaVuSans-6f"/>
      <use x="1289.550781" xlink:href="#DejaVuSans-6e"/>
      <use x="1352.929688" xlink:href="#DejaVuSans-73"/>
     </g>
    </g>
   </g>
   <g id="line2d_29">
    <path clip-path="url(#pce66f99a76)" d="M 40.2185 296.840843 
L 42.390001 296.840843 
L 44.491453 253.556756 
L 46.662954 216.837369 
L 48.834455 225.232494 
L 50.935908 222.954801 
L 53.107409 258.81423 
L 55.208861 296.840843 
L 57.380362 286.864754 
L 59.551863 256.152497 
L 61.513219 196.015148 
L 63.68472 241.094074 
L 65.786172 192.404597 
L 67.957673 224.321136 
L 70.059126 223.414808 
L 72.230627 208.943677 
L 74.402128 220.866139 
L 76.50358 211.218876 
L 78.675081 225.297414 
L 80.776534 217.57911 
L 82.948035 220.920548 
L 85.119536 242.778292 
L 87.15094 220.781092 
L 89.322441 296.840843 
L 91.423893 230.583886 
L 93.595394 210.362031 
L 95.696847 234.893256 
L 97.868348 209.262714 
L 100.039849 218.492528 
L 102.141301 206.423944 
L 104.312802 296.811165 
L 106.414255 211.274461 
L 108.585756 199.127106 
L 110.757257 226.682381 
L 112.718612 207.776127 
L 114.890113 209.448819 
L 116.991566 296.818482 
L 119.163067 215.584716 
L 121.264519 223.798147 
L 123.43602 236.831591 
L 125.607521 217.164444 
L 127.708974 212.651287 
L 129.880475 293.191085 
L 131.981927 211.018901 
L 134.153428 211.474333 
L 136.324929 210.88634 
L 138.286285 217.926397 
L 140.457786 210.558647 
L 142.559238 278.435459 
L 144.730739 292.570323 
L 146.832192 258.840445 
L 149.003693 211.245566 
L 151.175193 214.387709 
L 153.276646 217.020074 
L 155.448147 296.840843 
L 157.5496 212.615508 
L 161.892601 210.232191 
L 163.853957 208.081429 
L 166.025458 239.759188 
L 168.126911 296.840843 
L 170.298412 295.150442 
L 172.399864 218.839017 
L 174.571365 209.131637 
L 176.742866 244.429742 
L 178.844318 239.079318 
L 181.015819 296.840843 
L 183.117272 242.454618 
L 185.288773 235.078124 
L 187.460274 202.080672 
L 189.491678 204.854677 
L 191.663179 218.621751 
L 193.764631 296.491366 
L 195.936132 295.833033 
L 198.037585 282.594687 
L 200.209086 221.195069 
L 202.380587 206.701762 
L 204.482039 217.904948 
L 206.65354 296.840843 
L 208.754993 292.566613 
L 210.926494 256.299649 
L 213.097995 296.625679 
L 215.05935 296.840843 
L 217.230851 296.840843 
L 219.332304 290.423109 
L 221.503805 296.840843 
L 223.605257 296.840843 
L 225.776758 269.827807 
L 227.948259 296.840843 
L 230.049712 296.064582 
L 232.221213 296.840843 
L 234.322665 296.840843 
L 236.494166 296.222554 
L 238.665667 263.661614 
L 240.627023 296.840843 
L 242.798524 290.120044 
L 244.899976 286.541162 
L 247.071477 296.736352 
L 249.17293 296.840843 
L 251.344431 291.913082 
L 253.515932 296.795708 
L 255.617384 289.551013 
L 257.788885 296.840843 
L 259.890338 293.163344 
L 262.061839 296.840843 
L 266.194695 296.840843 
L 268.366196 284.758863 
L 270.467649 292.277192 
L 272.63915 291.105597 
L 274.740602 290.679946 
L 276.912103 275.184043 
L 279.083604 292.140612 
L 281.185057 295.158624 
L 283.356558 295.348912 
L 285.45801 275.963561 
L 287.629511 207.577877 
L 289.801012 190.966313 
L 291.832416 295.652492 
L 294.003917 281.105394 
L 296.10537 295.071734 
L 298.27687 295.718031 
L 300.378323 286.723248 
L 302.549824 285.353038 
L 304.721325 269.546486 
L 306.822777 270.550814 
L 308.994278 289.056588 
L 311.095731 294.294194 
L 313.267232 292.130719 
L 315.438733 236.805005 
L 317.400088 239.361209 
L 319.571589 232.462763 
L 321.673042 296.840843 
L 323.844543 295.923921 
L 325.945995 273.142824 
L 328.117496 237.08138 
L 330.288997 250.255258 
L 332.39045 249.644781 
L 334.561951 296.840843 
L 336.663403 291.906631 
L 338.834904 192.308618 
L 341.006405 179.739426 
L 342.967761 197.086444 
L 345.139262 189.419973 
L 347.240714 296.192361 
L 349.412215 295.349531 
L 351.513668 289.809128 
L 353.685169 197.735956 
L 355.85667 195.893456 
L 357.958122 194.408821 
L 360.129623 296.840843 
L 362.231076 205.619571 
L 364.402577 197.980799 
L 366.574078 198.579921 
L 368.535433 200.012827 
L 370.706934 192.218966 
L 372.808387 296.840843 
L 374.979888 293.986204 
L 377.08134 237.566407 
L 379.252841 184.473663 
L 381.424342 195.746303 
L 383.525795 198.194294 
L 385.697296 261.012865 
L 387.798748 200.572913 
L 389.970249 196.049265 
L 392.14175 192.307381 
L 394.173154 194.244778 
L 396.344655 195.874907 
L 398.446108 296.840843 
L 400.617609 295.832414 
L 402.719061 274.327981 
L 404.890562 176.338219 
L 407.062063 181.909001 
L 409.163516 196.936303 
L 411.335017 195.882327 
L 413.436469 198.031375 
L 415.60797 193.859904 
L 417.779471 199.112886 
L 419.740827 283.382905 
L 421.912328 288.633678 
L 424.01378 296.840843 
L 426.185281 289.763292 
L 428.286734 281.504726 
L 430.458235 208.53066 
L 432.629735 170.920155 
L 434.731188 182.967429 
L 436.902689 290.672795 
L 439.004141 273.519774 
L 441.175642 190.430875 
L 443.347143 192.244934 
L 445.308499 190.509442 
L 447.48 251.395383 
L 447.48 251.395383 
" style="fill:none;stroke:#1f77b4;stroke-linecap:square;stroke-width:1.5;"/>
   </g>
   <g id="line2d_30">
    <path clip-path="url(#pce66f99a76)" d="M 40.2185 296.840843 
L 42.390001 296.840843 
L 44.491453 274.637117 
L 46.662954 264.456457 
L 48.834455 234.515795 
L 50.935908 218.499716 
L 53.107409 224.62056 
L 55.208861 296.840843 
L 57.380362 291.038068 
L 59.551863 272.011117 
L 61.513219 199.919213 
L 63.68472 197.582645 
L 65.786172 243.840248 
L 67.957673 246.508591 
L 70.059126 211.208507 
L 72.230627 228.830447 
L 74.402128 237.945749 
L 76.50358 197.864894 
L 78.675081 211.219904 
L 80.776534 210.964922 
L 82.948035 195.943913 
L 85.119536 237.631736 
L 87.15094 209.944602 
L 89.322441 296.840843 
L 91.423893 242.764637 
L 93.595394 229.887581 
L 95.696847 264.159422 
L 97.868348 230.719865 
L 100.039849 237.392609 
L 102.141301 190.983575 
L 104.312802 296.56335 
L 106.414255 196.568179 
L 108.585756 168.646085 
L 110.757257 214.426951 
L 112.718612 208.252976 
L 114.890113 205.856436 
L 116.991566 296.563635 
L 119.163067 261.719409 
L 121.264519 276.075747 
L 123.43602 270.443968 
L 125.607521 268.832723 
L 127.708974 261.130209 
L 129.880475 290.188107 
L 131.981927 264.114158 
L 134.153428 248.520972 
L 136.324929 249.919994 
L 140.457786 246.68983 
L 142.559238 283.016682 
L 144.730739 294.815059 
L 146.832192 285.036727 
L 149.003693 268.085911 
L 151.175193 269.968239 
L 153.276646 261.819214 
L 155.448147 296.840843 
L 157.5496 255.251235 
L 159.7211 239.341857 
L 161.892601 229.020622 
L 163.853957 226.133377 
L 166.025458 248.733001 
L 168.126911 296.840843 
L 170.298412 294.162266 
L 172.399864 258.690539 
L 174.571365 249.902511 
L 176.742866 255.131749 
L 178.844318 233.112745 
L 181.015819 296.840843 
L 183.117272 269.953187 
L 185.288773 263.933524 
L 187.460274 247.913926 
L 189.491678 245.585908 
L 191.663179 250.018092 
L 193.764631 295.589092 
L 195.936132 294.255702 
L 198.037585 286.410622 
L 200.209086 249.330625 
L 202.380587 226.562524 
L 204.482039 224.891856 
L 206.65354 296.840843 
L 208.754993 289.424078 
L 210.926494 237.566855 
L 213.097995 295.440656 
L 215.05935 296.840843 
L 217.230851 296.840843 
L 219.332304 275.91155 
L 221.503805 296.840843 
L 223.605257 296.840843 
L 225.776758 272.55911 
L 227.948259 296.840843 
L 230.049712 294.993426 
L 232.221213 296.840843 
L 234.322665 296.840843 
L 236.494166 291.167636 
L 238.665667 251.346308 
L 240.627023 296.840843 
L 242.798524 290.33001 
L 244.899976 279.307798 
L 247.071477 295.909781 
L 249.17293 296.840843 
L 251.344431 287.715051 
L 253.515932 296.395417 
L 255.617384 287.266534 
L 257.788885 296.840843 
L 259.890338 285.621252 
L 262.061839 296.840843 
L 266.194695 296.840843 
L 268.366196 222.143037 
L 270.467649 283.45347 
L 272.63915 254.75033 
L 274.740602 284.214939 
L 276.912103 281.619146 
L 279.083604 292.378911 
L 281.185057 293.314824 
L 283.356558 293.910318 
L 285.45801 282.977741 
L 287.629511 207.802479 
L 289.801012 226.558639 
L 291.832416 289.08807 
L 294.003917 175.619729 
L 296.10537 278.913263 
L 298.27687 221.44372 
L 300.378323 230.379006 
L 302.549824 243.951228 
L 304.721325 147.259717 
L 306.822777 228.810002 
L 308.994278 138.040877 
L 311.095731 36.387707 
L 313.267232 151.27059 
L 315.438733 186.199031 
L 317.400088 195.13342 
L 319.571589 195.112503 
L 321.673042 296.840843 
L 323.844543 294.232295 
L 325.945995 237.022761 
L 328.117496 240.863648 
L 330.288997 255.943442 
L 332.39045 245.257601 
L 334.561951 296.840843 
L 336.663403 288.784854 
L 338.834904 175.784263 
L 341.006405 206.331777 
L 342.967761 220.309883 
L 345.139262 186.308203 
L 347.240714 295.117578 
L 349.412215 292.479535 
L 351.513668 288.07959 
L 353.685169 220.461277 
L 355.85667 216.455163 
L 357.958122 202.291186 
L 360.129623 296.840843 
L 362.231076 211.067997 
L 364.402577 201.910347 
L 366.574078 194.478553 
L 368.535433 196.837401 
L 370.706934 180.602264 
L 372.808387 296.840843 
L 374.979888 289.001503 
L 377.08134 249.916037 
L 379.252841 196.300176 
L 381.424342 206.016307 
L 383.525795 216.017692 
L 385.697296 265.630144 
L 387.798748 197.970678 
L 389.970249 189.990299 
L 392.14175 177.99051 
L 394.173154 193.685696 
L 396.344655 186.964492 
L 398.446108 296.840843 
L 400.617609 291.129854 
L 402.719061 273.851761 
L 404.890562 192.938114 
L 407.062063 235.297767 
L 409.163516 205.868693 
L 411.335017 226.99882 
L 413.436469 213.004236 
L 415.60797 194.628712 
L 417.779471 227.695708 
L 419.740827 286.520822 
L 421.912328 289.1774 
L 424.01378 296.840843 
L 426.185281 282.293696 
L 428.286734 275.312271 
L 430.458235 251.620887 
L 432.629735 231.390238 
L 434.731188 226.280104 
L 436.902689 290.142749 
L 439.004141 269.743324 
L 441.175642 169.783931 
L 443.347143 133.048047 
L 445.308499 140.461505 
L 447.48 232.807131 
L 447.48 232.807131 
" style="fill:none;stroke:#ff7f0e;stroke-linecap:square;stroke-width:1.5;"/>
   </g>
   <g id="line2d_31">
    <path clip-path="url(#pce66f99a76)" d="M 40.2185 296.840843 
L 42.390001 296.840843 
L 44.491453 253.402064 
L 46.662954 216.558292 
L 48.834455 224.985438 
L 50.935908 222.684933 
L 53.107409 258.679141 
L 55.208861 296.840843 
L 57.380362 286.829037 
L 59.551863 255.983432 
L 61.513219 195.65778 
L 63.68472 240.893286 
L 65.786172 192.022827 
L 67.957673 224.084101 
L 70.059126 223.149572 
L 72.230627 208.637493 
L 74.402128 220.609687 
L 76.50358 210.913601 
L 78.675081 225.041037 
L 80.776534 217.288101 
L 82.948035 220.644143 
L 85.119536 242.588676 
L 87.15094 220.507037 
L 89.322441 296.840843 
L 91.423893 230.357702 
L 93.595394 210.05191 
L 95.696847 234.690607 
L 97.868348 208.954487 
L 100.039849 218.199179 
L 102.141301 206.071228 
L 104.312802 296.811712 
L 106.414255 210.965875 
L 108.585756 198.767269 
L 110.757257 226.429769 
L 112.718612 207.454601 
L 114.890113 209.130996 
L 116.991566 296.818833 
L 119.163067 215.281542 
L 121.264519 223.515165 
L 123.43602 236.602266 
L 125.607521 216.874504 
L 127.708974 212.351861 
L 129.880475 293.177391 
L 131.981927 210.69253 
L 134.153428 211.169379 
L 136.324929 210.57752 
L 138.286285 217.638643 
L 140.457786 210.252381 
L 142.559238 278.617699 
L 144.730739 292.612445 
L 146.832192 259.220732 
L 149.003693 212.1011 
L 151.175193 215.224063 
L 153.276646 217.820744 
L 155.448147 296.840843 
L 157.5496 213.45628 
L 161.892601 211.084962 
L 163.853957 208.956926 
L 166.025458 240.331798 
L 168.126911 296.840843 
L 170.298412 295.167148 
L 172.399864 219.628235 
L 174.571365 209.991487 
L 176.742866 244.956584 
L 178.844318 239.646753 
L 181.015819 296.840843 
L 183.117272 243.015249 
L 185.288773 235.691851 
L 187.460274 203.01099 
L 189.491678 205.777491 
L 191.663179 219.397182 
L 193.764631 296.495784 
L 195.936132 295.842748 
L 198.037585 282.738174 
L 200.209086 221.956558 
L 202.380587 207.587763 
L 204.482039 218.698194 
L 206.65354 296.840843 
L 208.754993 292.72385 
L 210.926494 255.403306 
L 213.097995 296.643241 
L 215.05935 296.840843 
L 217.230851 296.840843 
L 219.332304 290.975507 
L 221.503805 296.840843 
L 223.605257 296.840843 
L 225.776758 271.277914 
L 227.948259 296.840843 
L 230.049712 296.082759 
L 232.221213 296.840843 
L 234.322665 296.840843 
L 236.494166 296.402313 
L 238.665667 265.131521 
L 240.627023 296.840843 
L 242.798524 290.457331 
L 244.899976 287.561716 
L 247.071477 296.764614 
L 249.17293 296.840843 
L 251.344431 291.967354 
L 253.515932 296.795812 
L 255.617384 289.623566 
L 257.788885 296.840843 
L 259.890338 293.201766 
L 262.061839 296.840843 
L 266.194695 296.840843 
L 268.366196 284.88354 
L 270.467649 292.322736 
L 272.63915 291.162444 
L 274.740602 290.746661 
L 276.912103 275.404354 
L 279.083604 292.189758 
L 281.185057 295.177136 
L 283.356558 295.363509 
L 285.45801 276.171935 
L 287.629511 208.479578 
L 289.801012 192.040375 
L 291.832416 295.665453 
L 294.003917 281.267399 
L 296.10537 295.065558 
L 298.27687 295.71486 
L 300.378323 286.688733 
L 302.549824 285.314929 
L 304.721325 269.453295 
L 306.822777 270.463667 
L 308.994278 289.027377 
L 311.095731 294.287852 
L 313.267232 292.116498 
L 315.438733 236.593113 
L 317.400088 239.166242 
L 319.571589 232.244745 
L 321.673042 296.840843 
L 323.844543 295.922322 
L 325.945995 273.058905 
L 328.117496 236.8828 
L 330.288997 250.096223 
L 332.39045 249.476798 
L 334.561951 296.840843 
L 336.663403 291.890109 
L 338.834904 191.950263 
L 341.006405 179.348207 
L 342.967761 196.750454 
L 345.139262 189.070477 
L 347.240714 296.190226 
L 349.412215 295.344552 
L 351.513668 289.785838 
L 353.685169 197.393785 
L 355.85667 195.569505 
L 357.958122 194.063962 
L 360.129623 296.840843 
L 362.231076 205.302171 
L 364.402577 197.652775 
L 366.574078 198.241959 
L 368.535433 199.683969 
L 370.706934 191.845197 
L 372.808387 296.840843 
L 374.979888 293.975717 
L 377.08134 237.377607 
L 379.252841 184.106156 
L 381.424342 195.414898 
L 383.525795 197.868367 
L 385.697296 260.891659 
L 387.798748 200.24463 
L 389.970249 195.709484 
L 392.14175 191.953151 
L 394.173154 193.910345 
L 396.344655 195.541075 
L 398.446108 296.840843 
L 400.617609 295.828677 
L 402.719061 274.249894 
L 404.890562 175.934298 
L 407.062063 181.525267 
L 409.163516 196.603184 
L 411.335017 195.542391 
L 413.436469 197.694973 
L 415.60797 193.506169 
L 417.779471 198.783613 
L 419.740827 283.334569 
L 421.912328 288.606707 
L 424.01378 296.840843 
L 426.185281 289.740384 
L 428.286734 281.445725 
L 430.458235 208.239451 
L 432.629735 170.490801 
L 434.731188 182.584541 
L 436.902689 290.656311 
L 439.004141 273.448651 
L 441.175642 190.065547 
L 443.347143 191.89675 
L 445.308499 190.170931 
L 447.48 251.253724 
L 447.48 251.253724 
" style="fill:none;stroke:#2ca02c;stroke-linecap:square;stroke-width:1.5;"/>
   </g>
   <g id="patch_3">
    <path d="M 40.2185 309.8635 
L 40.2185 23.36505 
" style="fill:none;stroke:#000000;stroke-linecap:square;stroke-linejoin:miter;stroke-width:0.8;"/>
   </g>
   <g id="patch_4">
    <path d="M 447.48 309.8635 
L 447.48 23.36505 
" style="fill:none;stroke:#000000;stroke-linecap:square;stroke-linejoin:miter;stroke-width:0.8;"/>
   </g>
   <g id="patch_5">
    <path d="M 40.2185 309.8635 
L 447.48 309.8635 
" style="fill:none;stroke:#000000;stroke-linecap:square;stroke-linejoin:miter;stroke-width:0.8;"/>
   </g>
   <g id="patch_6">
    <path d="M 40.2185 23.36505 
L 447.48 23.36505 
" style="fill:none;stroke:#000000;stroke-linecap:square;stroke-linejoin:miter;stroke-width:0.8;"/>
   </g>
   <g id="text_17">
    <!-- Average monthly normalized emissions -->
    <defs>
     <path d="M 34.1875 63.1875 
L 20.796875 26.90625 
L 47.609375 26.90625 
z
M 28.609375 72.90625 
L 39.796875 72.90625 
L 67.578125 0 
L 57.328125 0 
L 50.6875 18.703125 
L 17.828125 18.703125 
L 11.1875 0 
L 0.78125 0 
z
" id="DejaVuSans-41"/>
     <path d="M 2.984375 54.6875 
L 12.5 54.6875 
L 29.59375 8.796875 
L 46.6875 54.6875 
L 56.203125 54.6875 
L 35.6875 0 
L 23.484375 0 
z
" id="DejaVuSans-76"/>
     <path d="M 41.109375 46.296875 
Q 39.59375 47.171875 37.8125 47.578125 
Q 36.03125 48 33.890625 48 
Q 26.265625 48 22.1875 43.046875 
Q 18.109375 38.09375 18.109375 28.8125 
L 18.109375 0 
L 9.078125 0 
L 9.078125 54.6875 
L 18.109375 54.6875 
L 18.109375 46.1875 
Q 20.953125 51.171875 25.484375 53.578125 
Q 30.03125 56 36.53125 56 
Q 37.453125 56 38.578125 55.875 
Q 39.703125 55.765625 41.0625 55.515625 
z
" id="DejaVuSans-72"/>
     <path d="M 45.40625 27.984375 
Q 45.40625 37.75 41.375 43.109375 
Q 37.359375 48.484375 30.078125 48.484375 
Q 22.859375 48.484375 18.828125 43.109375 
Q 14.796875 37.75 14.796875 27.984375 
Q 14.796875 18.265625 18.828125 12.890625 
Q 22.859375 7.515625 30.078125 7.515625 
Q 37.359375 7.515625 41.375 12.890625 
Q 45.40625 18.265625 45.40625 27.984375 
z
M 54.390625 6.78125 
Q 54.390625 -7.171875 48.1875 -13.984375 
Q 42 -20.796875 29.203125 -20.796875 
Q 24.46875 -20.796875 20.265625 -20.09375 
Q 16.0625 -19.390625 12.109375 -17.921875 
L 12.109375 -9.1875 
Q 16.0625 -11.328125 19.921875 -12.34375 
Q 23.78125 -13.375 27.78125 -13.375 
Q 36.625 -13.375 41.015625 -8.765625 
Q 45.40625 -4.15625 45.40625 5.171875 
L 45.40625 9.625 
Q 42.625 4.78125 38.28125 2.390625 
Q 33.9375 0 27.875 0 
Q 17.828125 0 11.671875 7.65625 
Q 5.515625 15.328125 5.515625 27.984375 
Q 5.515625 40.671875 11.671875 48.328125 
Q 17.828125 56 27.875 56 
Q 33.9375 56 38.28125 53.609375 
Q 42.625 51.21875 45.40625 46.390625 
L 45.40625 54.6875 
L 54.390625 54.6875 
z
" id="DejaVuSans-67"/>
     <path d="M 54.890625 33.015625 
L 54.890625 0 
L 45.90625 0 
L 45.90625 32.71875 
Q 45.90625 40.484375 42.875 44.328125 
Q 39.84375 48.1875 33.796875 48.1875 
Q 26.515625 48.1875 22.3125 43.546875 
Q 18.109375 38.921875 18.109375 30.90625 
L 18.109375 0 
L 9.078125 0 
L 9.078125 75.984375 
L 18.109375 75.984375 
L 18.109375 46.1875 
Q 21.34375 51.125 25.703125 53.5625 
Q 30.078125 56 35.796875 56 
Q 45.21875 56 50.046875 50.171875 
Q 54.890625 44.34375 54.890625 33.015625 
z
" id="DejaVuSans-68"/>
     <path d="M 9.421875 75.984375 
L 18.40625 75.984375 
L 18.40625 0 
L 9.421875 0 
z
" id="DejaVuSans-6c"/>
     <path d="M 32.171875 -5.078125 
Q 28.375 -14.84375 24.75 -17.8125 
Q 21.140625 -20.796875 15.09375 -20.796875 
L 7.90625 -20.796875 
L 7.90625 -13.28125 
L 13.1875 -13.28125 
Q 16.890625 -13.28125 18.9375 -11.515625 
Q 21 -9.765625 23.484375 -3.21875 
L 25.09375 0.875 
L 2.984375 54.6875 
L 12.5 54.6875 
L 29.59375 11.921875 
L 46.6875 54.6875 
L 56.203125 54.6875 
z
" id="DejaVuSans-79"/>
     <path d="M 5.515625 54.6875 
L 48.1875 54.6875 
L 48.1875 46.484375 
L 14.40625 7.171875 
L 48.1875 7.171875 
L 48.1875 0 
L 4.296875 0 
L 4.296875 8.203125 
L 38.09375 47.515625 
L 5.515625 47.515625 
z
" id="DejaVuSans-7a"/>
     <path d="M 45.40625 46.390625 
L 45.40625 75.984375 
L 54.390625 75.984375 
L 54.390625 0 
L 45.40625 0 
L 45.40625 8.203125 
Q 42.578125 3.328125 38.25 0.953125 
Q 33.9375 -1.421875 27.875 -1.421875 
Q 17.96875 -1.421875 11.734375 6.484375 
Q 5.515625 14.40625 5.515625 27.296875 
Q 5.515625 40.1875 11.734375 48.09375 
Q 17.96875 56 27.875 56 
Q 33.9375 56 38.25 53.625 
Q 42.578125 51.265625 45.40625 46.390625 
z
M 14.796875 27.296875 
Q 14.796875 17.390625 18.875 11.75 
Q 22.953125 6.109375 30.078125 6.109375 
Q 37.203125 6.109375 41.296875 11.75 
Q 45.40625 17.390625 45.40625 27.296875 
Q 45.40625 37.203125 41.296875 42.84375 
Q 37.203125 48.484375 30.078125 48.484375 
Q 22.953125 48.484375 18.875 42.84375 
Q 14.796875 37.203125 14.796875 27.296875 
z
" id="DejaVuSans-64"/>
    </defs>
    <g transform="translate(125.2855 17.36505)scale(0.12 -0.12)">
     <use xlink:href="#DejaVuSans-41"/>
     <use x="68.330078" xlink:href="#DejaVuSans-76"/>
     <use x="127.509766" xlink:href="#DejaVuSans-65"/>
     <use x="189.033203" xlink:href="#DejaVuSans-72"/>
     <use x="230.146484" xlink:href="#DejaVuSans-61"/>
     <use x="291.425781" xlink:href="#DejaVuSans-67"/>
     <use x="354.902344" xlink:href="#DejaVuSans-65"/>
     <use x="416.425781" xlink:href="#DejaVuSans-20"/>
     <use x="448.212891" xlink:href="#DejaVuSans-6d"/>
     <use x="545.625" xlink:href="#DejaVuSans-6f"/>
     <use x="606.806641" xlink:href="#DejaVuSans-6e"/>
     <use x="670.185547" xlink:href="#DejaVuSans-74"/>
     <use x="709.394531" xlink:href="#DejaVuSans-68"/>
     <use x="772.773438" xlink:href="#DejaVuSans-6c"/>
     <use x="800.556641" xlink:href="#DejaVuSans-79"/>
     <use x="859.736328" xlink:href="#DejaVuSans-20"/>
     <use x="891.523438" xlink:href="#DejaVuSans-6e"/>
     <use x="954.902344" xlink:href="#DejaVuSans-6f"/>
     <use x="1016.083984" xlink:href="#DejaVuSans-72"/>
     <use x="1057.181641" xlink:href="#DejaVuSans-6d"/>
     <use x="1154.59375" xlink:href="#DejaVuSans-61"/>
     <use x="1215.873047" xlink:href="#DejaVuSans-6c"/>
     <use x="1243.65625" xlink:href="#DejaVuSans-69"/>
     <use x="1271.439453" xlink:href="#DejaVuSans-7a"/>
     <use x="1323.929688" xlink:href="#DejaVuSans-65"/>
     <use x="1385.453125" xlink:href="#DejaVuSans-64"/>
     <use x="1448.929688" xlink:href="#DejaVuSans-20"/>
     <use x="1480.716797" xlink:href="#DejaVuSans-65"/>
     <use x="1542.240234" xlink:href="#DejaVuSans-6d"/>
     <use x="1639.652344" xlink:href="#DejaVuSans-69"/>
     <use x="1667.435547" xlink:href="#DejaVuSans-73"/>
     <use x="1719.535156" xlink:href="#DejaVuSans-73"/>
     <use x="1771.634766" xlink:href="#DejaVuSans-69"/>
     <use x="1799.417969" xlink:href="#DejaVuSans-6f"/>
     <use x="1860.599609" xlink:href="#DejaVuSans-6e"/>
     <use x="1923.978516" xlink:href="#DejaVuSans-73"/>
    </g>
   </g>
   <g id="legend_1">
    <g id="patch_7">
     <path d="M 387.208125 75.399425 
L 440.48 75.399425 
Q 442.48 75.399425 442.48 73.399425 
L 442.48 30.36505 
Q 442.48 28.36505 440.48 28.36505 
L 387.208125 28.36505 
Q 385.208125 28.36505 385.208125 30.36505 
L 385.208125 73.399425 
Q 385.208125 75.399425 387.208125 75.399425 
z
" style="fill:#ffffff;opacity:0.8;stroke:#cccccc;stroke-linejoin:miter;"/>
    </g>
    <g id="line2d_32">
     <path d="M 389.208125 36.463488 
L 409.208125 36.463488 
" style="fill:none;stroke:#1f77b4;stroke-linecap:square;stroke-width:1.5;"/>
    </g>
    <g id="line2d_33"/>
    <g id="text_18">
     <!-- SOx -->
     <defs>
      <path d="M 53.515625 70.515625 
L 53.515625 60.890625 
Q 47.90625 63.578125 42.921875 64.890625 
Q 37.9375 66.21875 33.296875 66.21875 
Q 25.25 66.21875 20.875 63.09375 
Q 16.5 59.96875 16.5 54.203125 
Q 16.5 49.359375 19.40625 46.890625 
Q 22.3125 44.4375 30.421875 42.921875 
L 36.375 41.703125 
Q 47.40625 39.59375 52.65625 34.296875 
Q 57.90625 29 57.90625 20.125 
Q 57.90625 9.515625 50.796875 4.046875 
Q 43.703125 -1.421875 29.984375 -1.421875 
Q 24.8125 -1.421875 18.96875 -0.25 
Q 13.140625 0.921875 6.890625 3.21875 
L 6.890625 13.375 
Q 12.890625 10.015625 18.65625 8.296875 
Q 24.421875 6.59375 29.984375 6.59375 
Q 38.421875 6.59375 43.015625 9.90625 
Q 47.609375 13.234375 47.609375 19.390625 
Q 47.609375 24.75 44.3125 27.78125 
Q 41.015625 30.8125 33.5 32.328125 
L 27.484375 33.5 
Q 16.453125 35.6875 11.515625 40.375 
Q 6.59375 45.0625 6.59375 53.421875 
Q 6.59375 63.09375 13.40625 68.65625 
Q 20.21875 74.21875 32.171875 74.21875 
Q 37.3125 74.21875 42.625 73.28125 
Q 47.953125 72.359375 53.515625 70.515625 
z
" id="DejaVuSans-53"/>
      <path d="M 39.40625 66.21875 
Q 28.65625 66.21875 22.328125 58.203125 
Q 16.015625 50.203125 16.015625 36.375 
Q 16.015625 22.609375 22.328125 14.59375 
Q 28.65625 6.59375 39.40625 6.59375 
Q 50.140625 6.59375 56.421875 14.59375 
Q 62.703125 22.609375 62.703125 36.375 
Q 62.703125 50.203125 56.421875 58.203125 
Q 50.140625 66.21875 39.40625 66.21875 
z
M 39.40625 74.21875 
Q 54.734375 74.21875 63.90625 63.9375 
Q 73.09375 53.65625 73.09375 36.375 
Q 73.09375 19.140625 63.90625 8.859375 
Q 54.734375 -1.421875 39.40625 -1.421875 
Q 24.03125 -1.421875 14.8125 8.828125 
Q 5.609375 19.09375 5.609375 36.375 
Q 5.609375 53.65625 14.8125 63.9375 
Q 24.03125 74.21875 39.40625 74.21875 
z
" id="DejaVuSans-4f"/>
      <path d="M 54.890625 54.6875 
L 35.109375 28.078125 
L 55.90625 0 
L 45.3125 0 
L 29.390625 21.484375 
L 13.484375 0 
L 2.875 0 
L 24.125 28.609375 
L 4.6875 54.6875 
L 15.28125 54.6875 
L 29.78125 35.203125 
L 44.28125 54.6875 
z
" id="DejaVuSans-78"/>
     </defs>
     <g transform="translate(417.208125 39.963488)scale(0.1 -0.1)">
      <use xlink:href="#DejaVuSans-53"/>
      <use x="63.476562" xlink:href="#DejaVuSans-4f"/>
      <use x="142.1875" xlink:href="#DejaVuSans-78"/>
     </g>
    </g>
    <g id="line2d_34">
     <path d="M 389.208125 51.141613 
L 409.208125 51.141613 
" style="fill:none;stroke:#ff7f0e;stroke-linecap:square;stroke-width:1.5;"/>
    </g>
    <g id="line2d_35"/>
    <g id="text_19">
     <!-- NOx -->
     <defs>
      <path d="M 9.8125 72.90625 
L 23.09375 72.90625 
L 55.421875 11.921875 
L 55.421875 72.90625 
L 64.984375 72.90625 
L 64.984375 0 
L 51.703125 0 
L 19.390625 60.984375 
L 19.390625 0 
L 9.8125 0 
z
" id="DejaVuSans-4e"/>
     </defs>
     <g transform="translate(417.208125 54.641613)scale(0.1 -0.1)">
      <use xlink:href="#DejaVuSans-4e"/>
      <use x="74.804688" xlink:href="#DejaVuSans-4f"/>
      <use x="153.515625" xlink:href="#DejaVuSans-78"/>
     </g>
    </g>
    <g id="line2d_36">
     <path d="M 389.208125 65.819738 
L 409.208125 65.819738 
" style="fill:none;stroke:#2ca02c;stroke-linecap:square;stroke-width:1.5;"/>
    </g>
    <g id="line2d_37"/>
    <g id="text_20">
     <!-- CO2 -->
     <defs>
      <path d="M 64.40625 67.28125 
L 64.40625 56.890625 
Q 59.421875 61.53125 53.78125 63.8125 
Q 48.140625 66.109375 41.796875 66.109375 
Q 29.296875 66.109375 22.65625 58.46875 
Q 16.015625 50.828125 16.015625 36.375 
Q 16.015625 21.96875 22.65625 14.328125 
Q 29.296875 6.6875 41.796875 6.6875 
Q 48.140625 6.6875 53.78125 8.984375 
Q 59.421875 11.28125 64.40625 15.921875 
L 64.40625 5.609375 
Q 59.234375 2.09375 53.4375 0.328125 
Q 47.65625 -1.421875 41.21875 -1.421875 
Q 24.65625 -1.421875 15.125 8.703125 
Q 5.609375 18.84375 5.609375 36.375 
Q 5.609375 53.953125 15.125 64.078125 
Q 24.65625 74.21875 41.21875 74.21875 
Q 47.75 74.21875 53.53125 72.484375 
Q 59.328125 70.75 64.40625 67.28125 
z
" id="DejaVuSans-43"/>
     </defs>
     <g transform="translate(417.208125 69.319738)scale(0.1 -0.1)">
      <use xlink:href="#DejaVuSans-43"/>
      <use x="69.824219" xlink:href="#DejaVuSans-4f"/>
      <use x="148.535156" xlink:href="#DejaVuSans-32"/>
     </g>
    </g>
   </g>
  </g>
 </g>
 <defs>
  <clipPath id="pce66f99a76">
   <rect height="286.49845" width="407.2615" x="40.2185" y="23.36505"/>
  </clipPath>
 </defs>
</svg>
