<?xml version="1.0" encoding="utf-8" standalone="no"?>
<!DOCTYPE svg PUBLIC "-//W3C//DTD SVG 1.1//EN"
  "http://www.w3.org/Graphics/SVG/1.1/DTD/svg11.dtd">
<!-- Created with matplotlib (http://matplotlib.org/) -->
<svg height="345.6pt" version="1.1" viewBox="0 0 460.8 345.6" width="460.8pt" xmlns="http://www.w3.org/2000/svg" xmlns:xlink="http://www.w3.org/1999/xlink">
 <defs>
  <style type="text/css">
*{stroke-linecap:butt;stroke-linejoin:round;}
  </style>
 </defs>
 <g id="figure_1">
  <g id="patch_1">
   <path d="M 0 345.6 
L 460.8 345.6 
L 460.8 0 
L 0 0 
z
" style="fill:none;"/>
  </g>
  <g id="axes_1">
   <g id="patch_2">
    <path d="M 29.25025 108.304533 
L 447.48 108.304533 
L 447.48 23.36505 
L 29.25025 23.36505 
z
" style="fill:none;"/>
   </g>
   <g id="matplotlib.axis_1">
    <g id="xtick_1">
     <g id="line2d_1">
      <path clip-path="url(#p530f2ecab6)" d="M 75.957465 108.304533 
L 75.957465 23.36505 
" style="fill:none;stroke:#b0b0b0;stroke-linecap:square;stroke-width:0.8;"/>
     </g>
     <g id="line2d_2">
      <defs>
       <path d="M 0 0 
L 0 3.5 
" id="mfa106a5ab8" style="stroke:#000000;stroke-width:0.8;"/>
      </defs>
      <g>
       <use style="stroke:#000000;stroke-width:0.8;" x="75.957465" xlink:href="#mfa106a5ab8" y="108.304533"/>
      </g>
     </g>
    </g>
    <g id="xtick_2">
     <g id="line2d_3">
      <path clip-path="url(#p530f2ecab6)" d="M 124.733143 108.304533 
L 124.733143 23.36505 
" style="fill:none;stroke:#b0b0b0;stroke-linecap:square;stroke-width:0.8;"/>
     </g>
     <g id="line2d_4">
      <g>
       <use style="stroke:#000000;stroke-width:0.8;" x="124.733143" xlink:href="#mfa106a5ab8" y="108.304533"/>
      </g>
     </g>
    </g>
    <g id="xtick_3">
     <g id="line2d_5">
      <path clip-path="url(#p530f2ecab6)" d="M 173.442096 108.304533 
L 173.442096 23.36505 
" style="fill:none;stroke:#b0b0b0;stroke-linecap:square;stroke-width:0.8;"/>
     </g>
     <g id="line2d_6">
      <g>
       <use style="stroke:#000000;stroke-width:0.8;" x="173.442096" xlink:href="#mfa106a5ab8" y="108.304533"/>
      </g>
     </g>
    </g>
    <g id="xtick_4">
     <g id="line2d_7">
      <path clip-path="url(#p530f2ecab6)" d="M 222.217773 108.304533 
L 222.217773 23.36505 
" style="fill:none;stroke:#b0b0b0;stroke-linecap:square;stroke-width:0.8;"/>
     </g>
     <g id="line2d_8">
      <g>
       <use style="stroke:#000000;stroke-width:0.8;" x="222.217773" xlink:href="#mfa106a5ab8" y="108.304533"/>
      </g>
     </g>
    </g>
    <g id="xtick_5">
     <g id="line2d_9">
      <path clip-path="url(#p530f2ecab6)" d="M 270.926726 108.304533 
L 270.926726 23.36505 
" style="fill:none;stroke:#b0b0b0;stroke-linecap:square;stroke-width:0.8;"/>
     </g>
     <g id="line2d_10">
      <g>
       <use style="stroke:#000000;stroke-width:0.8;" x="270.926726" xlink:href="#mfa106a5ab8" y="108.304533"/>
      </g>
     </g>
    </g>
    <g id="xtick_6">
     <g id="line2d_11">
      <path clip-path="url(#p530f2ecab6)" d="M 319.702404 108.304533 
L 319.702404 23.36505 
" style="fill:none;stroke:#b0b0b0;stroke-linecap:square;stroke-width:0.8;"/>
     </g>
     <g id="line2d_12">
      <g>
       <use style="stroke:#000000;stroke-width:0.8;" x="319.702404" xlink:href="#mfa106a5ab8" y="108.304533"/>
      </g>
     </g>
    </g>
    <g id="xtick_7">
     <g id="line2d_13">
      <path clip-path="url(#p530f2ecab6)" d="M 368.411357 108.304533 
L 368.411357 23.36505 
" style="fill:none;stroke:#b0b0b0;stroke-linecap:square;stroke-width:0.8;"/>
     </g>
     <g id="line2d_14">
      <g>
       <use style="stroke:#000000;stroke-width:0.8;" x="368.411357" xlink:href="#mfa106a5ab8" y="108.304533"/>
      </g>
     </g>
    </g>
    <g id="xtick_8">
     <g id="line2d_15">
      <path clip-path="url(#p530f2ecab6)" d="M 417.187035 108.304533 
L 417.187035 23.36505 
" style="fill:none;stroke:#b0b0b0;stroke-linecap:square;stroke-width:0.8;"/>
     </g>
     <g id="line2d_16">
      <g>
       <use style="stroke:#000000;stroke-width:0.8;" x="417.187035" xlink:href="#mfa106a5ab8" y="108.304533"/>
      </g>
     </g>
    </g>
   </g>
   <g id="matplotlib.axis_2">
    <g id="ytick_1">
     <g id="line2d_17">
      <path clip-path="url(#p530f2ecab6)" d="M 29.25025 104.443648 
L 447.48 104.443648 
" style="fill:none;stroke:#b0b0b0;stroke-linecap:square;stroke-width:0.8;"/>
     </g>
     <g id="line2d_18">
      <defs>
       <path d="M 0 0 
L -3.5 0 
" id="m0c9e16aa57" style="stroke:#000000;stroke-width:0.8;"/>
      </defs>
      <g>
       <use style="stroke:#000000;stroke-width:0.8;" x="29.25025" xlink:href="#m0c9e16aa57" y="104.443648"/>
      </g>
     </g>
     <g id="text_1">
      <!-- 0.0 -->
      <defs>
       <path d="M 31.78125 66.40625 
Q 24.171875 66.40625 20.328125 58.90625 
Q 16.5 51.421875 16.5 36.375 
Q 16.5 21.390625 20.328125 13.890625 
Q 24.171875 6.390625 31.78125 6.390625 
Q 39.453125 6.390625 43.28125 13.890625 
Q 47.125 21.390625 47.125 36.375 
Q 47.125 51.421875 43.28125 58.90625 
Q 39.453125 66.40625 31.78125 66.40625 
z
M 31.78125 74.21875 
Q 44.046875 74.21875 50.515625 64.515625 
Q 56.984375 54.828125 56.984375 36.375 
Q 56.984375 17.96875 50.515625 8.265625 
Q 44.046875 -1.421875 31.78125 -1.421875 
Q 19.53125 -1.421875 13.0625 8.265625 
Q 6.59375 17.96875 6.59375 36.375 
Q 6.59375 54.828125 13.0625 64.515625 
Q 19.53125 74.21875 31.78125 74.21875 
z
" id="DejaVuSans-30"/>
       <path d="M 10.6875 12.40625 
L 21 12.40625 
L 21 0 
L 10.6875 0 
z
" id="DejaVuSans-2e"/>
      </defs>
      <g transform="translate(6.347125 108.242866)scale(0.1 -0.1)">
       <use xlink:href="#DejaVuSans-30"/>
       <use x="63.623047" xlink:href="#DejaVuSans-2e"/>
       <use x="95.410156" xlink:href="#DejaVuSans-30"/>
      </g>
     </g>
    </g>
    <g id="ytick_2">
     <g id="line2d_19">
      <path clip-path="url(#p530f2ecab6)" d="M 29.25025 72.419358 
L 447.48 72.419358 
" style="fill:none;stroke:#b0b0b0;stroke-linecap:square;stroke-width:0.8;"/>
     </g>
     <g id="line2d_20">
      <g>
       <use style="stroke:#000000;stroke-width:0.8;" x="29.25025" xlink:href="#m0c9e16aa57" y="72.419358"/>
      </g>
     </g>
     <g id="text_2">
      <!-- 0.5 -->
      <defs>
       <path d="M 10.796875 72.90625 
L 49.515625 72.90625 
L 49.515625 64.59375 
L 19.828125 64.59375 
L 19.828125 46.734375 
Q 21.96875 47.46875 24.109375 47.828125 
Q 26.265625 48.1875 28.421875 48.1875 
Q 40.625 48.1875 47.75 41.5 
Q 54.890625 34.8125 54.890625 23.390625 
Q 54.890625 11.625 47.5625 5.09375 
Q 40.234375 -1.421875 26.90625 -1.421875 
Q 22.3125 -1.421875 17.546875 -0.640625 
Q 12.796875 0.140625 7.71875 1.703125 
L 7.71875 11.625 
Q 12.109375 9.234375 16.796875 8.0625 
Q 21.484375 6.890625 26.703125 6.890625 
Q 35.15625 6.890625 40.078125 11.328125 
Q 45.015625 15.765625 45.015625 23.390625 
Q 45.015625 31 40.078125 35.4375 
Q 35.15625 39.890625 26.703125 39.890625 
Q 22.75 39.890625 18.8125 39.015625 
Q 14.890625 38.140625 10.796875 36.28125 
z
" id="DejaVuSans-35"/>
      </defs>
      <g transform="translate(6.347125 76.218577)scale(0.1 -0.1)">
       <use xlink:href="#DejaVuSans-30"/>
       <use x="63.623047" xlink:href="#DejaVuSans-2e"/>
       <use x="95.410156" xlink:href="#DejaVuSans-35"/>
      </g>
     </g>
    </g>
    <g id="ytick_3">
     <g id="line2d_21">
      <path clip-path="url(#p530f2ecab6)" d="M 29.25025 40.395069 
L 447.48 40.395069 
" style="fill:none;stroke:#b0b0b0;stroke-linecap:square;stroke-width:0.8;"/>
     </g>
     <g id="line2d_22">
      <g>
       <use style="stroke:#000000;stroke-width:0.8;" x="29.25025" xlink:href="#m0c9e16aa57" y="40.395069"/>
      </g>
     </g>
     <g id="text_3">
      <!-- 1.0 -->
      <defs>
       <path d="M 12.40625 8.296875 
L 28.515625 8.296875 
L 28.515625 63.921875 
L 10.984375 60.40625 
L 10.984375 69.390625 
L 28.421875 72.90625 
L 38.28125 72.90625 
L 38.28125 8.296875 
L 54.390625 8.296875 
L 54.390625 0 
L 12.40625 0 
z
" id="DejaVuSans-31"/>
      </defs>
      <g transform="translate(6.347125 44.194287)scale(0.1 -0.1)">
       <use xlink:href="#DejaVuSans-31"/>
       <use x="63.623047" xlink:href="#DejaVuSans-2e"/>
       <use x="95.410156" xlink:href="#DejaVuSans-30"/>
      </g>
     </g>
    </g>
   </g>
   <g id="line2d_23">
    <path clip-path="url(#p530f2ecab6)" d="M 29.25025 27.938633 
L 31.118539 75.07852 
L 33.187001 27.225936 
L 35.188739 33.321112 
L 37.257201 30.834737 
L 39.258939 32.631872 
L 41.327401 69.731218 
L 43.395864 63.485101 
L 45.397602 81.876742 
L 47.466064 87.447901 
L 49.467802 75.04897 
L 53.604727 104.070633 
L 55.473015 104.443648 
L 57.541478 86.595886 
L 59.543215 102.779177 
L 61.611678 102.666586 
L 63.613415 98.161927 
L 65.681878 94.906315 
L 67.75034 94.444542 
L 69.752078 94.391036 
L 71.82054 97.106576 
L 73.822278 94.48198 
L 75.890741 93.818731 
L 77.959203 103.682264 
L 79.827492 98.656121 
L 81.895954 99.60682 
L 83.897692 99.017962 
L 85.966154 95.307044 
L 87.967892 93.891811 
L 90.036354 89.577379 
L 92.104817 90.403178 
L 94.106555 88.913493 
L 96.175017 98.197905 
L 98.176755 101.790789 
L 100.245217 104.443273 
L 102.31368 102.342259 
L 104.248693 103.37754 
L 106.317155 96.731689 
L 108.318893 103.677395 
L 110.387355 104.443648 
L 112.389093 98.512158 
L 114.457555 95.929483 
L 116.526018 83.994148 
L 118.527756 88.420847 
L 120.596218 94.512703 
L 122.597956 92.353115 
L 124.666418 101.007871 
L 126.734881 98.405759 
L 128.603169 104.443648 
L 132.673369 104.443648 
L 134.741832 104.325302 
L 136.74357 102.110835 
L 138.812032 75.373997 
L 140.880494 73.541882 
L 142.882232 90.278815 
L 144.950695 98.103902 
L 146.952432 100.635993 
L 149.020895 81.125758 
L 151.089357 104.443648 
L 152.957646 103.99335 
L 155.026108 104.443648 
L 157.027846 104.443648 
L 159.096308 103.155325 
L 161.098046 86.516826 
L 163.166508 72.738927 
L 165.234971 81.96916 
L 167.236709 88.415042 
L 169.305171 87.53329 
L 171.306909 98.076013 
L 173.375371 98.431226 
L 175.443834 101.144568 
L 177.312122 104.443648 
L 179.380585 104.443648 
L 181.382322 102.822521 
L 183.450785 92.88657 
L 185.452523 85.234321 
L 187.520985 82.851885 
L 189.589447 71.061486 
L 191.591185 88.235089 
L 193.659648 82.579615 
L 195.661385 101.226936 
L 197.729848 85.220676 
L 199.79831 85.582455 
L 201.733323 92.109547 
L 203.801786 96.442191 
L 205.803524 91.48663 
L 207.871986 96.954149 
L 209.873724 90.583381 
L 211.942186 81.829092 
L 214.010648 80.268499 
L 216.012386 81.289669 
L 218.080849 102.643741 
L 220.082586 104.443648 
L 222.151049 98.256703 
L 224.219511 104.443648 
L 230.158 104.443648 
L 232.226462 90.635751 
L 234.2282 100.900311 
L 236.296663 97.035044 
L 238.365125 95.752339 
L 240.366863 93.033454 
L 242.435325 93.618742 
L 244.437063 100.417727 
L 246.505525 98.113265 
L 248.573988 104.443648 
L 256.580939 104.443648 
L 258.582677 103.043109 
L 260.651139 97.043658 
L 262.719602 97.362368 
L 264.721339 97.051248 
L 266.789802 102.370347 
L 268.791539 104.443648 
L 270.860002 104.074379 
L 272.928464 104.443648 
L 282.937153 104.443648 
L 285.005616 103.70436 
L 287.074078 103.933936 
L 289.075816 103.042722 
L 293.146016 104.443648 
L 295.214478 104.339533 
L 299.217954 104.443648 
L 301.286416 104.443648 
L 303.288154 104.304716 
L 305.356617 104.443648 
L 307.358354 104.443648 
L 309.426817 104.039923 
L 311.495279 102.713401 
L 313.497017 104.443648 
L 315.565479 102.830248 
L 317.567217 103.838386 
L 319.635679 104.443648 
L 331.712831 104.443648 
L 333.781293 102.950467 
L 335.849756 104.443648 
L 337.851493 104.443648 
L 339.919956 103.150082 
L 341.921694 104.443648 
L 343.990156 103.756418 
L 346.058618 104.443648 
L 349.995369 104.443648 
L 354.06557 102.429895 
L 358.13577 103.968017 
L 360.204232 104.055278 
L 362.20597 104.443648 
L 364.274432 103.334717 
L 366.27617 104.443648 
L 370.413095 103.166186 
L 372.281383 103.937789 
L 374.349846 104.443648 
L 376.351584 103.880181 
L 378.420046 104.443648 
L 380.421784 101.90534 
L 384.558709 104.443648 
L 386.560446 102.756345 
L 388.628909 102.158748 
L 390.630647 104.443648 
L 392.699109 104.443648 
L 394.767571 104.042919 
L 396.702585 104.443648 
L 402.841247 104.443648 
L 404.842985 103.621281 
L 406.911447 102.465473 
L 408.97991 104.078124 
L 410.981648 104.39953 
L 413.05011 103.51261 
L 415.051848 104.443648 
L 421.057061 104.443648 
L 423.125523 102.850472 
L 425.127261 104.443648 
L 427.195724 103.356813 
L 429.197461 101.20836 
L 431.265924 102.808527 
L 433.334386 100.270831 
L 435.336124 99.463782 
L 437.404586 100.121026 
L 439.406324 103.598448 
L 441.474787 104.443648 
L 445.411538 104.443648 
L 447.48 103.907346 
L 447.48 103.907346 
" style="fill:none;stroke:#008000;stroke-linecap:square;stroke-width:1.5;"/>
   </g>
   <g id="patch_3">
    <path d="M 29.25025 108.304533 
L 29.25025 23.36505 
" style="fill:none;stroke:#000000;stroke-linecap:square;stroke-linejoin:miter;stroke-width:0.8;"/>
   </g>
   <g id="patch_4">
    <path d="M 447.48 108.304533 
L 447.48 23.36505 
" style="fill:none;stroke:#000000;stroke-linecap:square;stroke-linejoin:miter;stroke-width:0.8;"/>
   </g>
   <g id="patch_5">
    <path d="M 29.25025 108.304533 
L 447.48 108.304533 
" style="fill:none;stroke:#000000;stroke-linecap:square;stroke-linejoin:miter;stroke-width:0.8;"/>
   </g>
   <g id="patch_6">
    <path d="M 29.25025 23.36505 
L 447.48 23.36505 
" style="fill:none;stroke:#000000;stroke-linecap:square;stroke-linejoin:miter;stroke-width:0.8;"/>
   </g>
   <g id="text_4">
    <!-- Average monthly normalized emissions -->
    <defs>
     <path d="M 34.1875 63.1875 
L 20.796875 26.90625 
L 47.609375 26.90625 
z
M 28.609375 72.90625 
L 39.796875 72.90625 
L 67.578125 0 
L 57.328125 0 
L 50.6875 18.703125 
L 17.828125 18.703125 
L 11.1875 0 
L 0.78125 0 
z
" id="DejaVuSans-41"/>
     <path d="M 2.984375 54.6875 
L 12.5 54.6875 
L 29.59375 8.796875 
L 46.6875 54.6875 
L 56.203125 54.6875 
L 35.6875 0 
L 23.484375 0 
z
" id="DejaVuSans-76"/>
     <path d="M 56.203125 29.59375 
L 56.203125 25.203125 
L 14.890625 25.203125 
Q 15.484375 15.921875 20.484375 11.0625 
Q 25.484375 6.203125 34.421875 6.203125 
Q 39.59375 6.203125 44.453125 7.46875 
Q 49.3125 8.734375 54.109375 11.28125 
L 54.109375 2.78125 
Q 49.265625 0.734375 44.1875 -0.34375 
Q 39.109375 -1.421875 33.890625 -1.421875 
Q 20.796875 -1.421875 13.15625 6.1875 
Q 5.515625 13.8125 5.515625 26.8125 
Q 5.515625 40.234375 12.765625 48.109375 
Q 20.015625 56 32.328125 56 
Q 43.359375 56 49.78125 48.890625 
Q 56.203125 41.796875 56.203125 29.59375 
z
M 47.21875 32.234375 
Q 47.125 39.59375 43.09375 43.984375 
Q 39.0625 48.390625 32.421875 48.390625 
Q 24.90625 48.390625 20.390625 44.140625 
Q 15.875 39.890625 15.1875 32.171875 
z
" id="DejaVuSans-65"/>
     <path d="M 41.109375 46.296875 
Q 39.59375 47.171875 37.8125 47.578125 
Q 36.03125 48 33.890625 48 
Q 26.265625 48 22.1875 43.046875 
Q 18.109375 38.09375 18.109375 28.8125 
L 18.109375 0 
L 9.078125 0 
L 9.078125 54.6875 
L 18.109375 54.6875 
L 18.109375 46.1875 
Q 20.953125 51.171875 25.484375 53.578125 
Q 30.03125 56 36.53125 56 
Q 37.453125 56 38.578125 55.875 
Q 39.703125 55.765625 41.0625 55.515625 
z
" id="DejaVuSans-72"/>
     <path d="M 34.28125 27.484375 
Q 23.390625 27.484375 19.1875 25 
Q 14.984375 22.515625 14.984375 16.5 
Q 14.984375 11.71875 18.140625 8.90625 
Q 21.296875 6.109375 26.703125 6.109375 
Q 34.1875 6.109375 38.703125 11.40625 
Q 43.21875 16.703125 43.21875 25.484375 
L 43.21875 27.484375 
z
M 52.203125 31.203125 
L 52.203125 0 
L 43.21875 0 
L 43.21875 8.296875 
Q 40.140625 3.328125 35.546875 0.953125 
Q 30.953125 -1.421875 24.3125 -1.421875 
Q 15.921875 -1.421875 10.953125 3.296875 
Q 6 8.015625 6 15.921875 
Q 6 25.140625 12.171875 29.828125 
Q 18.359375 34.515625 30.609375 34.515625 
L 43.21875 34.515625 
L 43.21875 35.40625 
Q 43.21875 41.609375 39.140625 45 
Q 35.0625 48.390625 27.6875 48.390625 
Q 23 48.390625 18.546875 47.265625 
Q 14.109375 46.140625 10.015625 43.890625 
L 10.015625 52.203125 
Q 14.9375 54.109375 19.578125 55.046875 
Q 24.21875 56 28.609375 56 
Q 40.484375 56 46.34375 49.84375 
Q 52.203125 43.703125 52.203125 31.203125 
z
" id="DejaVuSans-61"/>
     <path d="M 45.40625 27.984375 
Q 45.40625 37.75 41.375 43.109375 
Q 37.359375 48.484375 30.078125 48.484375 
Q 22.859375 48.484375 18.828125 43.109375 
Q 14.796875 37.75 14.796875 27.984375 
Q 14.796875 18.265625 18.828125 12.890625 
Q 22.859375 7.515625 30.078125 7.515625 
Q 37.359375 7.515625 41.375 12.890625 
Q 45.40625 18.265625 45.40625 27.984375 
z
M 54.390625 6.78125 
Q 54.390625 -7.171875 48.1875 -13.984375 
Q 42 -20.796875 29.203125 -20.796875 
Q 24.46875 -20.796875 20.265625 -20.09375 
Q 16.0625 -19.390625 12.109375 -17.921875 
L 12.109375 -9.1875 
Q 16.0625 -11.328125 19.921875 -12.34375 
Q 23.78125 -13.375 27.78125 -13.375 
Q 36.625 -13.375 41.015625 -8.765625 
Q 45.40625 -4.15625 45.40625 5.171875 
L 45.40625 9.625 
Q 42.625 4.78125 38.28125 2.390625 
Q 33.9375 0 27.875 0 
Q 17.828125 0 11.671875 7.65625 
Q 5.515625 15.328125 5.515625 27.984375 
Q 5.515625 40.671875 11.671875 48.328125 
Q 17.828125 56 27.875 56 
Q 33.9375 56 38.28125 53.609375 
Q 42.625 51.21875 45.40625 46.390625 
L 45.40625 54.6875 
L 54.390625 54.6875 
z
" id="DejaVuSans-67"/>
     <path id="DejaVuSans-20"/>
     <path d="M 52 44.1875 
Q 55.375 50.25 60.0625 53.125 
Q 64.75 56 71.09375 56 
Q 79.640625 56 84.28125 50.015625 
Q 88.921875 44.046875 88.921875 33.015625 
L 88.921875 0 
L 79.890625 0 
L 79.890625 32.71875 
Q 79.890625 40.578125 77.09375 44.375 
Q 74.3125 48.1875 68.609375 48.1875 
Q 61.625 48.1875 57.5625 43.546875 
Q 53.515625 38.921875 53.515625 30.90625 
L 53.515625 0 
L 44.484375 0 
L 44.484375 32.71875 
Q 44.484375 40.625 41.703125 44.40625 
Q 38.921875 48.1875 33.109375 48.1875 
Q 26.21875 48.1875 22.15625 43.53125 
Q 18.109375 38.875 18.109375 30.90625 
L 18.109375 0 
L 9.078125 0 
L 9.078125 54.6875 
L 18.109375 54.6875 
L 18.109375 46.1875 
Q 21.1875 51.21875 25.484375 53.609375 
Q 29.78125 56 35.6875 56 
Q 41.65625 56 45.828125 52.96875 
Q 50 49.953125 52 44.1875 
z
" id="DejaVuSans-6d"/>
     <path d="M 30.609375 48.390625 
Q 23.390625 48.390625 19.1875 42.75 
Q 14.984375 37.109375 14.984375 27.296875 
Q 14.984375 17.484375 19.15625 11.84375 
Q 23.34375 6.203125 30.609375 6.203125 
Q 37.796875 6.203125 41.984375 11.859375 
Q 46.1875 17.53125 46.1875 27.296875 
Q 46.1875 37.015625 41.984375 42.703125 
Q 37.796875 48.390625 30.609375 48.390625 
z
M 30.609375 56 
Q 42.328125 56 49.015625 48.375 
Q 55.71875 40.765625 55.71875 27.296875 
Q 55.71875 13.875 49.015625 6.21875 
Q 42.328125 -1.421875 30.609375 -1.421875 
Q 18.84375 -1.421875 12.171875 6.21875 
Q 5.515625 13.875 5.515625 27.296875 
Q 5.515625 40.765625 12.171875 48.375 
Q 18.84375 56 30.609375 56 
z
" id="DejaVuSans-6f"/>
     <path d="M 54.890625 33.015625 
L 54.890625 0 
L 45.90625 0 
L 45.90625 32.71875 
Q 45.90625 40.484375 42.875 44.328125 
Q 39.84375 48.1875 33.796875 48.1875 
Q 26.515625 48.1875 22.3125 43.546875 
Q 18.109375 38.921875 18.109375 30.90625 
L 18.109375 0 
L 9.078125 0 
L 9.078125 54.6875 
L 18.109375 54.6875 
L 18.109375 46.1875 
Q 21.34375 51.125 25.703125 53.5625 
Q 30.078125 56 35.796875 56 
Q 45.21875 56 50.046875 50.171875 
Q 54.890625 44.34375 54.890625 33.015625 
z
" id="DejaVuSans-6e"/>
     <path d="M 18.3125 70.21875 
L 18.3125 54.6875 
L 36.8125 54.6875 
L 36.8125 47.703125 
L 18.3125 47.703125 
L 18.3125 18.015625 
Q 18.3125 11.328125 20.140625 9.421875 
Q 21.96875 7.515625 27.59375 7.515625 
L 36.8125 7.515625 
L 36.8125 0 
L 27.59375 0 
Q 17.1875 0 13.234375 3.875 
Q 9.28125 7.765625 9.28125 18.015625 
L 9.28125 47.703125 
L 2.6875 47.703125 
L 2.6875 54.6875 
L 9.28125 54.6875 
L 9.28125 70.21875 
z
" id="DejaVuSans-74"/>
     <path d="M 54.890625 33.015625 
L 54.890625 0 
L 45.90625 0 
L 45.90625 32.71875 
Q 45.90625 40.484375 42.875 44.328125 
Q 39.84375 48.1875 33.796875 48.1875 
Q 26.515625 48.1875 22.3125 43.546875 
Q 18.109375 38.921875 18.109375 30.90625 
L 18.109375 0 
L 9.078125 0 
L 9.078125 75.984375 
L 18.109375 75.984375 
L 18.109375 46.1875 
Q 21.34375 51.125 25.703125 53.5625 
Q 30.078125 56 35.796875 56 
Q 45.21875 56 50.046875 50.171875 
Q 54.890625 44.34375 54.890625 33.015625 
z
" id="DejaVuSans-68"/>
     <path d="M 9.421875 75.984375 
L 18.40625 75.984375 
L 18.40625 0 
L 9.421875 0 
z
" id="DejaVuSans-6c"/>
     <path d="M 32.171875 -5.078125 
Q 28.375 -14.84375 24.75 -17.8125 
Q 21.140625 -20.796875 15.09375 -20.796875 
L 7.90625 -20.796875 
L 7.90625 -13.28125 
L 13.1875 -13.28125 
Q 16.890625 -13.28125 18.9375 -11.515625 
Q 21 -9.765625 23.484375 -3.21875 
L 25.09375 0.875 
L 2.984375 54.6875 
L 12.5 54.6875 
L 29.59375 11.921875 
L 46.6875 54.6875 
L 56.203125 54.6875 
z
" id="DejaVuSans-79"/>
     <path d="M 9.421875 54.6875 
L 18.40625 54.6875 
L 18.40625 0 
L 9.421875 0 
z
M 9.421875 75.984375 
L 18.40625 75.984375 
L 18.40625 64.59375 
L 9.421875 64.59375 
z
" id="DejaVuSans-69"/>
     <path d="M 5.515625 54.6875 
L 48.1875 54.6875 
L 48.1875 46.484375 
L 14.40625 7.171875 
L 48.1875 7.171875 
L 48.1875 0 
L 4.296875 0 
L 4.296875 8.203125 
L 38.09375 47.515625 
L 5.515625 47.515625 
z
" id="DejaVuSans-7a"/>
     <path d="M 45.40625 46.390625 
L 45.40625 75.984375 
L 54.390625 75.984375 
L 54.390625 0 
L 45.40625 0 
L 45.40625 8.203125 
Q 42.578125 3.328125 38.25 0.953125 
Q 33.9375 -1.421875 27.875 -1.421875 
Q 17.96875 -1.421875 11.734375 6.484375 
Q 5.515625 14.40625 5.515625 27.296875 
Q 5.515625 40.1875 11.734375 48.09375 
Q 17.96875 56 27.875 56 
Q 33.9375 56 38.25 53.625 
Q 42.578125 51.265625 45.40625 46.390625 
z
M 14.796875 27.296875 
Q 14.796875 17.390625 18.875 11.75 
Q 22.953125 6.109375 30.078125 6.109375 
Q 37.203125 6.109375 41.296875 11.75 
Q 45.40625 17.390625 45.40625 27.296875 
Q 45.40625 37.203125 41.296875 42.84375 
Q 37.203125 48.484375 30.078125 48.484375 
Q 22.953125 48.484375 18.875 42.84375 
Q 14.796875 37.203125 14.796875 27.296875 
z
" id="DejaVuSans-64"/>
     <path d="M 44.28125 53.078125 
L 44.28125 44.578125 
Q 40.484375 46.53125 36.375 47.5 
Q 32.28125 48.484375 27.875 48.484375 
Q 21.1875 48.484375 17.84375 46.4375 
Q 14.5 44.390625 14.5 40.28125 
Q 14.5 37.15625 16.890625 35.375 
Q 19.28125 33.59375 26.515625 31.984375 
L 29.59375 31.296875 
Q 39.15625 29.25 43.1875 25.515625 
Q 47.21875 21.78125 47.21875 15.09375 
Q 47.21875 7.46875 41.1875 3.015625 
Q 35.15625 -1.421875 24.609375 -1.421875 
Q 20.21875 -1.421875 15.453125 -0.5625 
Q 10.6875 0.296875 5.421875 2 
L 5.421875 11.28125 
Q 10.40625 8.6875 15.234375 7.390625 
Q 20.0625 6.109375 24.8125 6.109375 
Q 31.15625 6.109375 34.5625 8.28125 
Q 37.984375 10.453125 37.984375 14.40625 
Q 37.984375 18.0625 35.515625 20.015625 
Q 33.0625 21.96875 24.703125 23.78125 
L 21.578125 24.515625 
Q 13.234375 26.265625 9.515625 29.90625 
Q 5.8125 33.546875 5.8125 39.890625 
Q 5.8125 47.609375 11.28125 51.796875 
Q 16.75 56 26.8125 56 
Q 31.78125 56 36.171875 55.265625 
Q 40.578125 54.546875 44.28125 53.078125 
z
" id="DejaVuSans-73"/>
    </defs>
    <g transform="translate(119.801375 17.36505)scale(0.12 -0.12)">
     <use xlink:href="#DejaVuSans-41"/>
     <use x="68.330078" xlink:href="#DejaVuSans-76"/>
     <use x="127.509766" xlink:href="#DejaVuSans-65"/>
     <use x="189.033203" xlink:href="#DejaVuSans-72"/>
     <use x="230.146484" xlink:href="#DejaVuSans-61"/>
     <use x="291.425781" xlink:href="#DejaVuSans-67"/>
     <use x="354.902344" xlink:href="#DejaVuSans-65"/>
     <use x="416.425781" xlink:href="#DejaVuSans-20"/>
     <use x="448.212891" xlink:href="#DejaVuSans-6d"/>
     <use x="545.625" xlink:href="#DejaVuSans-6f"/>
     <use x="606.806641" xlink:href="#DejaVuSans-6e"/>
     <use x="670.185547" xlink:href="#DejaVuSans-74"/>
     <use x="709.394531" xlink:href="#DejaVuSans-68"/>
     <use x="772.773438" xlink:href="#DejaVuSans-6c"/>
     <use x="800.556641" xlink:href="#DejaVuSans-79"/>
     <use x="859.736328" xlink:href="#DejaVuSans-20"/>
     <use x="891.523438" xlink:href="#DejaVuSans-6e"/>
     <use x="954.902344" xlink:href="#DejaVuSans-6f"/>
     <use x="1016.083984" xlink:href="#DejaVuSans-72"/>
     <use x="1057.181641" xlink:href="#DejaVuSans-6d"/>
     <use x="1154.59375" xlink:href="#DejaVuSans-61"/>
     <use x="1215.873047" xlink:href="#DejaVuSans-6c"/>
     <use x="1243.65625" xlink:href="#DejaVuSans-69"/>
     <use x="1271.439453" xlink:href="#DejaVuSans-7a"/>
     <use x="1323.929688" xlink:href="#DejaVuSans-65"/>
     <use x="1385.453125" xlink:href="#DejaVuSans-64"/>
     <use x="1448.929688" xlink:href="#DejaVuSans-20"/>
     <use x="1480.716797" xlink:href="#DejaVuSans-65"/>
     <use x="1542.240234" xlink:href="#DejaVuSans-6d"/>
     <use x="1639.652344" xlink:href="#DejaVuSans-69"/>
     <use x="1667.435547" xlink:href="#DejaVuSans-73"/>
     <use x="1719.535156" xlink:href="#DejaVuSans-73"/>
     <use x="1771.634766" xlink:href="#DejaVuSans-69"/>
     <use x="1799.417969" xlink:href="#DejaVuSans-6f"/>
     <use x="1860.599609" xlink:href="#DejaVuSans-6e"/>
     <use x="1923.978516" xlink:href="#DejaVuSans-73"/>
    </g>
   </g>
   <g id="legend_1">
    <g id="patch_7">
     <path d="M 387.897188 46.043175 
L 440.48 46.043175 
Q 442.48 46.043175 442.48 44.043175 
L 442.48 30.36505 
Q 442.48 28.36505 440.48 28.36505 
L 387.897188 28.36505 
Q 385.897188 28.36505 385.897188 30.36505 
L 385.897188 44.043175 
Q 385.897188 46.043175 387.897188 46.043175 
z
" style="fill:#ffffff;opacity:0.8;stroke:#cccccc;stroke-linejoin:miter;"/>
    </g>
    <g id="line2d_24">
     <path d="M 389.897188 36.463488 
L 409.897188 36.463488 
" style="fill:none;stroke:#008000;stroke-linecap:square;stroke-width:1.5;"/>
    </g>
    <g id="line2d_25"/>
    <g id="text_5">
     <!-- SO2 -->
     <defs>
      <path d="M 53.515625 70.515625 
L 53.515625 60.890625 
Q 47.90625 63.578125 42.921875 64.890625 
Q 37.9375 66.21875 33.296875 66.21875 
Q 25.25 66.21875 20.875 63.09375 
Q 16.5 59.96875 16.5 54.203125 
Q 16.5 49.359375 19.40625 46.890625 
Q 22.3125 44.4375 30.421875 42.921875 
L 36.375 41.703125 
Q 47.40625 39.59375 52.65625 34.296875 
Q 57.90625 29 57.90625 20.125 
Q 57.90625 9.515625 50.796875 4.046875 
Q 43.703125 -1.421875 29.984375 -1.421875 
Q 24.8125 -1.421875 18.96875 -0.25 
Q 13.140625 0.921875 6.890625 3.21875 
L 6.890625 13.375 
Q 12.890625 10.015625 18.65625 8.296875 
Q 24.421875 6.59375 29.984375 6.59375 
Q 38.421875 6.59375 43.015625 9.90625 
Q 47.609375 13.234375 47.609375 19.390625 
Q 47.609375 24.75 44.3125 27.78125 
Q 41.015625 30.8125 33.5 32.328125 
L 27.484375 33.5 
Q 16.453125 35.6875 11.515625 40.375 
Q 6.59375 45.0625 6.59375 53.421875 
Q 6.59375 63.09375 13.40625 68.65625 
Q 20.21875 74.21875 32.171875 74.21875 
Q 37.3125 74.21875 42.625 73.28125 
Q 47.953125 72.359375 53.515625 70.515625 
z
" id="DejaVuSans-53"/>
      <path d="M 39.40625 66.21875 
Q 28.65625 66.21875 22.328125 58.203125 
Q 16.015625 50.203125 16.015625 36.375 
Q 16.015625 22.609375 22.328125 14.59375 
Q 28.65625 6.59375 39.40625 6.59375 
Q 50.140625 6.59375 56.421875 14.59375 
Q 62.703125 22.609375 62.703125 36.375 
Q 62.703125 50.203125 56.421875 58.203125 
Q 50.140625 66.21875 39.40625 66.21875 
z
M 39.40625 74.21875 
Q 54.734375 74.21875 63.90625 63.9375 
Q 73.09375 53.65625 73.09375 36.375 
Q 73.09375 19.140625 63.90625 8.859375 
Q 54.734375 -1.421875 39.40625 -1.421875 
Q 24.03125 -1.421875 14.8125 8.828125 
Q 5.609375 19.09375 5.609375 36.375 
Q 5.609375 53.65625 14.8125 63.9375 
Q 24.03125 74.21875 39.40625 74.21875 
z
" id="DejaVuSans-4f"/>
      <path d="M 19.1875 8.296875 
L 53.609375 8.296875 
L 53.609375 0 
L 7.328125 0 
L 7.328125 8.296875 
Q 12.9375 14.109375 22.625 23.890625 
Q 32.328125 33.6875 34.8125 36.53125 
Q 39.546875 41.84375 41.421875 45.53125 
Q 43.3125 49.21875 43.3125 52.78125 
Q 43.3125 58.59375 39.234375 62.25 
Q 35.15625 65.921875 28.609375 65.921875 
Q 23.96875 65.921875 18.8125 64.3125 
Q 13.671875 62.703125 7.8125 59.421875 
L 7.8125 69.390625 
Q 13.765625 71.78125 18.9375 73 
Q 24.125 74.21875 28.421875 74.21875 
Q 39.75 74.21875 46.484375 68.546875 
Q 53.21875 62.890625 53.21875 53.421875 
Q 53.21875 48.921875 51.53125 44.890625 
Q 49.859375 40.875 45.40625 35.40625 
Q 44.1875 33.984375 37.640625 27.21875 
Q 31.109375 20.453125 19.1875 8.296875 
z
" id="DejaVuSans-32"/>
     </defs>
     <g transform="translate(417.897188 39.963488)scale(0.1 -0.1)">
      <use xlink:href="#DejaVuSans-53"/>
      <use x="63.476562" xlink:href="#DejaVuSans-4f"/>
      <use x="142.1875" xlink:href="#DejaVuSans-32"/>
     </g>
    </g>
   </g>
  </g>
  <g id="axes_2">
   <g id="patch_8">
    <path d="M 29.25025 209.084017 
L 447.48 209.084017 
L 447.48 124.144533 
L 29.25025 124.144533 
z
" style="fill:none;"/>
   </g>
   <g id="matplotlib.axis_3">
    <g id="xtick_9">
     <g id="line2d_26">
      <path clip-path="url(#p24547f1cb7)" d="M 75.957465 209.084017 
L 75.957465 124.144533 
" style="fill:none;stroke:#b0b0b0;stroke-linecap:square;stroke-width:0.8;"/>
     </g>
     <g id="line2d_27">
      <g>
       <use style="stroke:#000000;stroke-width:0.8;" x="75.957465" xlink:href="#mfa106a5ab8" y="209.084017"/>
      </g>
     </g>
    </g>
    <g id="xtick_10">
     <g id="line2d_28">
      <path clip-path="url(#p24547f1cb7)" d="M 124.733143 209.084017 
L 124.733143 124.144533 
" style="fill:none;stroke:#b0b0b0;stroke-linecap:square;stroke-width:0.8;"/>
     </g>
     <g id="line2d_29">
      <g>
       <use style="stroke:#000000;stroke-width:0.8;" x="124.733143" xlink:href="#mfa106a5ab8" y="209.084017"/>
      </g>
     </g>
    </g>
    <g id="xtick_11">
     <g id="line2d_30">
      <path clip-path="url(#p24547f1cb7)" d="M 173.442096 209.084017 
L 173.442096 124.144533 
" style="fill:none;stroke:#b0b0b0;stroke-linecap:square;stroke-width:0.8;"/>
     </g>
     <g id="line2d_31">
      <g>
       <use style="stroke:#000000;stroke-width:0.8;" x="173.442096" xlink:href="#mfa106a5ab8" y="209.084017"/>
      </g>
     </g>
    </g>
    <g id="xtick_12">
     <g id="line2d_32">
      <path clip-path="url(#p24547f1cb7)" d="M 222.217773 209.084017 
L 222.217773 124.144533 
" style="fill:none;stroke:#b0b0b0;stroke-linecap:square;stroke-width:0.8;"/>
     </g>
     <g id="line2d_33">
      <g>
       <use style="stroke:#000000;stroke-width:0.8;" x="222.217773" xlink:href="#mfa106a5ab8" y="209.084017"/>
      </g>
     </g>
    </g>
    <g id="xtick_13">
     <g id="line2d_34">
      <path clip-path="url(#p24547f1cb7)" d="M 270.926726 209.084017 
L 270.926726 124.144533 
" style="fill:none;stroke:#b0b0b0;stroke-linecap:square;stroke-width:0.8;"/>
     </g>
     <g id="line2d_35">
      <g>
       <use style="stroke:#000000;stroke-width:0.8;" x="270.926726" xlink:href="#mfa106a5ab8" y="209.084017"/>
      </g>
     </g>
    </g>
    <g id="xtick_14">
     <g id="line2d_36">
      <path clip-path="url(#p24547f1cb7)" d="M 319.702404 209.084017 
L 319.702404 124.144533 
" style="fill:none;stroke:#b0b0b0;stroke-linecap:square;stroke-width:0.8;"/>
     </g>
     <g id="line2d_37">
      <g>
       <use style="stroke:#000000;stroke-width:0.8;" x="319.702404" xlink:href="#mfa106a5ab8" y="209.084017"/>
      </g>
     </g>
    </g>
    <g id="xtick_15">
     <g id="line2d_38">
      <path clip-path="url(#p24547f1cb7)" d="M 368.411357 209.084017 
L 368.411357 124.144533 
" style="fill:none;stroke:#b0b0b0;stroke-linecap:square;stroke-width:0.8;"/>
     </g>
     <g id="line2d_39">
      <g>
       <use style="stroke:#000000;stroke-width:0.8;" x="368.411357" xlink:href="#mfa106a5ab8" y="209.084017"/>
      </g>
     </g>
    </g>
    <g id="xtick_16">
     <g id="line2d_40">
      <path clip-path="url(#p24547f1cb7)" d="M 417.187035 209.084017 
L 417.187035 124.144533 
" style="fill:none;stroke:#b0b0b0;stroke-linecap:square;stroke-width:0.8;"/>
     </g>
     <g id="line2d_41">
      <g>
       <use style="stroke:#000000;stroke-width:0.8;" x="417.187035" xlink:href="#mfa106a5ab8" y="209.084017"/>
      </g>
     </g>
    </g>
   </g>
   <g id="matplotlib.axis_4">
    <g id="ytick_4">
     <g id="line2d_42">
      <path clip-path="url(#p24547f1cb7)" d="M 29.25025 205.223131 
L 447.48 205.223131 
" style="fill:none;stroke:#b0b0b0;stroke-linecap:square;stroke-width:0.8;"/>
     </g>
     <g id="line2d_43">
      <g>
       <use style="stroke:#000000;stroke-width:0.8;" x="29.25025" xlink:href="#m0c9e16aa57" y="205.223131"/>
      </g>
     </g>
     <g id="text_6">
      <!-- 0 -->
      <g transform="translate(15.88775 209.02235)scale(0.1 -0.1)">
       <use xlink:href="#DejaVuSans-30"/>
      </g>
     </g>
    </g>
    <g id="ytick_5">
     <g id="line2d_44">
      <path clip-path="url(#p24547f1cb7)" d="M 29.25025 180.353484 
L 447.48 180.353484 
" style="fill:none;stroke:#b0b0b0;stroke-linecap:square;stroke-width:0.8;"/>
     </g>
     <g id="line2d_45">
      <g>
       <use style="stroke:#000000;stroke-width:0.8;" x="29.25025" xlink:href="#m0c9e16aa57" y="180.353484"/>
      </g>
     </g>
     <g id="text_7">
      <!-- 1 -->
      <g transform="translate(15.88775 184.152703)scale(0.1 -0.1)">
       <use xlink:href="#DejaVuSans-31"/>
      </g>
     </g>
    </g>
    <g id="ytick_6">
     <g id="line2d_46">
      <path clip-path="url(#p24547f1cb7)" d="M 29.25025 155.483837 
L 447.48 155.483837 
" style="fill:none;stroke:#b0b0b0;stroke-linecap:square;stroke-width:0.8;"/>
     </g>
     <g id="line2d_47">
      <g>
       <use style="stroke:#000000;stroke-width:0.8;" x="29.25025" xlink:href="#m0c9e16aa57" y="155.483837"/>
      </g>
     </g>
     <g id="text_8">
      <!-- 2 -->
      <g transform="translate(15.88775 159.283056)scale(0.1 -0.1)">
       <use xlink:href="#DejaVuSans-32"/>
      </g>
     </g>
    </g>
    <g id="ytick_7">
     <g id="line2d_48">
      <path clip-path="url(#p24547f1cb7)" d="M 29.25025 130.61419 
L 447.48 130.61419 
" style="fill:none;stroke:#b0b0b0;stroke-linecap:square;stroke-width:0.8;"/>
     </g>
     <g id="line2d_49">
      <g>
       <use style="stroke:#000000;stroke-width:0.8;" x="29.25025" xlink:href="#m0c9e16aa57" y="130.61419"/>
      </g>
     </g>
     <g id="text_9">
      <!-- 3 -->
      <defs>
       <path d="M 40.578125 39.3125 
Q 47.65625 37.796875 51.625 33 
Q 55.609375 28.21875 55.609375 21.1875 
Q 55.609375 10.40625 48.1875 4.484375 
Q 40.765625 -1.421875 27.09375 -1.421875 
Q 22.515625 -1.421875 17.65625 -0.515625 
Q 12.796875 0.390625 7.625 2.203125 
L 7.625 11.71875 
Q 11.71875 9.328125 16.59375 8.109375 
Q 21.484375 6.890625 26.8125 6.890625 
Q 36.078125 6.890625 40.9375 10.546875 
Q 45.796875 14.203125 45.796875 21.1875 
Q 45.796875 27.640625 41.28125 31.265625 
Q 36.765625 34.90625 28.71875 34.90625 
L 20.21875 34.90625 
L 20.21875 43.015625 
L 29.109375 43.015625 
Q 36.375 43.015625 40.234375 45.921875 
Q 44.09375 48.828125 44.09375 54.296875 
Q 44.09375 59.90625 40.109375 62.90625 
Q 36.140625 65.921875 28.71875 65.921875 
Q 24.65625 65.921875 20.015625 65.03125 
Q 15.375 64.15625 9.8125 62.3125 
L 9.8125 71.09375 
Q 15.4375 72.65625 20.34375 73.4375 
Q 25.25 74.21875 29.59375 74.21875 
Q 40.828125 74.21875 47.359375 69.109375 
Q 53.90625 64.015625 53.90625 55.328125 
Q 53.90625 49.265625 50.4375 45.09375 
Q 46.96875 40.921875 40.578125 39.3125 
z
" id="DejaVuSans-33"/>
      </defs>
      <g transform="translate(15.88775 134.413409)scale(0.1 -0.1)">
       <use xlink:href="#DejaVuSans-33"/>
      </g>
     </g>
    </g>
   </g>
   <g id="line2d_50">
    <path clip-path="url(#p24547f1cb7)" d="M 29.25025 198.332272 
L 31.118539 202.408051 
L 33.187001 198.348188 
L 35.188739 198.672483 
L 37.257201 198.415066 
L 39.258939 198.440006 
L 41.327401 201.18637 
L 43.395864 199.963307 
L 45.397602 201.654924 
L 47.466064 202.965853 
L 49.467802 201.612258 
L 53.604727 205.149937 
L 55.473015 205.223131 
L 57.541478 203.25275 
L 59.543215 205.024355 
L 61.611678 204.930845 
L 63.613415 204.3617 
L 65.681878 203.96158 
L 67.75034 203.823205 
L 69.752078 203.857634 
L 71.82054 204.292278 
L 73.822278 203.883843 
L 75.890741 204.07034 
L 77.959203 205.089946 
L 79.827492 204.605334 
L 83.897692 204.639087 
L 87.967892 203.454761 
L 90.036354 195.880035 
L 92.104817 196.634363 
L 94.106555 195.88608 
L 96.175017 201.384545 
L 98.176755 203.162713 
L 100.245217 205.222849 
L 102.31368 204.009299 
L 104.248693 204.250798 
L 106.317155 200.97495 
L 108.318893 203.308411 
L 110.387355 205.223131 
L 112.389093 190.401413 
L 114.457555 183.946448 
L 116.526018 154.122057 
L 118.527756 165.177606 
L 120.596218 180.409031 
L 122.597956 175.013254 
L 124.666418 196.6343 
L 126.734881 190.138744 
L 128.603169 205.223131 
L 132.673369 205.223131 
L 134.741832 204.928007 
L 136.74357 199.393372 
L 138.812032 132.591899 
L 140.880494 128.005419 
L 142.882232 169.828432 
L 144.950695 204.388532 
L 146.952432 204.569029 
L 149.020895 193.471589 
L 151.089357 205.223131 
L 152.957646 205.128402 
L 157.027846 205.223131 
L 159.096308 202.561947 
L 161.098046 203.444048 
L 163.166508 202.688533 
L 165.234971 203.055911 
L 167.236709 203.707749 
L 169.305171 203.673819 
L 171.306909 204.591347 
L 173.375371 204.57284 
L 177.312122 205.223131 
L 179.380585 205.223131 
L 181.382322 205.064802 
L 183.450785 203.968345 
L 185.452523 203.648656 
L 187.520985 203.746848 
L 189.589447 202.826127 
L 191.591185 203.82872 
L 193.659648 203.304371 
L 195.661385 204.890666 
L 197.729848 203.407635 
L 199.79831 203.530396 
L 201.733323 204.108473 
L 203.801786 204.580176 
L 205.803524 204.085638 
L 207.871986 204.586555 
L 209.873724 203.908927 
L 216.012386 202.995217 
L 218.080849 205.048683 
L 220.082586 205.223131 
L 222.151049 204.603565 
L 224.219511 205.223131 
L 230.158 205.223131 
L 232.226462 204.095343 
L 234.2282 204.995509 
L 236.296663 204.326205 
L 238.365125 204.118569 
L 240.366863 203.803159 
L 242.435325 204.193653 
L 244.437063 204.790297 
L 246.505525 204.659803 
L 248.573988 205.223131 
L 258.582677 205.119837 
L 260.651139 204.418415 
L 264.721339 204.460885 
L 266.789802 204.984152 
L 268.791539 205.223131 
L 270.860002 205.151338 
L 274.796753 205.223131 
L 282.937153 205.223131 
L 287.074078 204.981217 
L 289.075816 204.993607 
L 293.146016 205.223131 
L 297.282941 205.223131 
L 309.426817 205.160767 
L 311.495279 204.947961 
L 313.497017 205.223131 
L 315.565479 205.032357 
L 327.642631 205.223131 
L 331.712831 205.223131 
L 333.781293 205.085524 
L 335.849756 205.223131 
L 337.851493 205.223131 
L 339.919956 205.050867 
L 341.921694 205.223131 
L 343.990156 205.154113 
L 347.926907 205.223131 
L 349.995369 205.223131 
L 354.06557 205.022359 
L 358.13577 205.156381 
L 360.204232 205.107664 
L 362.20597 205.223131 
L 364.274432 205.127078 
L 366.27617 205.223131 
L 370.413095 205.081613 
L 374.349846 205.223131 
L 376.351584 205.141381 
L 378.420046 205.223131 
L 380.421784 204.900346 
L 384.558709 205.223131 
L 388.628909 204.936636 
L 390.630647 205.223131 
L 402.841247 205.223131 
L 406.911447 204.998767 
L 408.97991 205.166888 
L 421.057061 205.223131 
L 423.125523 205.071667 
L 425.127261 205.223131 
L 427.195724 204.9237 
L 429.197461 204.895675 
L 431.265924 205.0324 
L 435.336124 204.489427 
L 437.404586 204.421185 
L 439.406324 205.123497 
L 443.543249 205.223131 
L 447.48 205.176629 
L 447.48 205.176629 
" style="fill:none;stroke:#f97306;stroke-linecap:square;stroke-width:1.5;"/>
   </g>
   <g id="patch_9">
    <path d="M 29.25025 209.084017 
L 29.25025 124.144533 
" style="fill:none;stroke:#000000;stroke-linecap:square;stroke-linejoin:miter;stroke-width:0.8;"/>
   </g>
   <g id="patch_10">
    <path d="M 447.48 209.084017 
L 447.48 124.144533 
" style="fill:none;stroke:#000000;stroke-linecap:square;stroke-linejoin:miter;stroke-width:0.8;"/>
   </g>
   <g id="patch_11">
    <path d="M 29.25025 209.084017 
L 447.48 209.084017 
" style="fill:none;stroke:#000000;stroke-linecap:square;stroke-linejoin:miter;stroke-width:0.8;"/>
   </g>
   <g id="patch_12">
    <path d="M 29.25025 124.144533 
L 447.48 124.144533 
" style="fill:none;stroke:#000000;stroke-linecap:square;stroke-linejoin:miter;stroke-width:0.8;"/>
   </g>
   <g id="legend_2">
    <g id="patch_13">
     <path d="M 387.208125 146.822658 
L 440.48 146.822658 
Q 442.48 146.822658 442.48 144.822658 
L 442.48 131.144533 
Q 442.48 129.144533 440.48 129.144533 
L 387.208125 129.144533 
Q 385.208125 129.144533 385.208125 131.144533 
L 385.208125 144.822658 
Q 385.208125 146.822658 387.208125 146.822658 
z
" style="fill:#ffffff;opacity:0.8;stroke:#cccccc;stroke-linejoin:miter;"/>
    </g>
    <g id="line2d_51">
     <path d="M 389.208125 137.242971 
L 409.208125 137.242971 
" style="fill:none;stroke:#f97306;stroke-linecap:square;stroke-width:1.5;"/>
    </g>
    <g id="line2d_52"/>
    <g id="text_10">
     <!-- NOx -->
     <defs>
      <path d="M 9.8125 72.90625 
L 23.09375 72.90625 
L 55.421875 11.921875 
L 55.421875 72.90625 
L 64.984375 72.90625 
L 64.984375 0 
L 51.703125 0 
L 19.390625 60.984375 
L 19.390625 0 
L 9.8125 0 
z
" id="DejaVuSans-4e"/>
      <path d="M 54.890625 54.6875 
L 35.109375 28.078125 
L 55.90625 0 
L 45.3125 0 
L 29.390625 21.484375 
L 13.484375 0 
L 2.875 0 
L 24.125 28.609375 
L 4.6875 54.6875 
L 15.28125 54.6875 
L 29.78125 35.203125 
L 44.28125 54.6875 
z
" id="DejaVuSans-78"/>
     </defs>
     <g transform="translate(417.208125 140.742971)scale(0.1 -0.1)">
      <use xlink:href="#DejaVuSans-4e"/>
      <use x="74.804688" xlink:href="#DejaVuSans-4f"/>
      <use x="153.515625" xlink:href="#DejaVuSans-78"/>
     </g>
    </g>
   </g>
  </g>
  <g id="axes_3">
   <g id="patch_14">
    <path d="M 29.25025 309.8635 
L 447.48 309.8635 
L 447.48 224.924017 
L 29.25025 224.924017 
z
" style="fill:none;"/>
   </g>
   <g id="matplotlib.axis_5">
    <g id="xtick_17">
     <g id="line2d_53">
      <path clip-path="url(#pe9ee8136df)" d="M 75.957465 309.8635 
L 75.957465 224.924017 
" style="fill:none;stroke:#b0b0b0;stroke-linecap:square;stroke-width:0.8;"/>
     </g>
     <g id="line2d_54">
      <g>
       <use style="stroke:#000000;stroke-width:0.8;" x="75.957465" xlink:href="#mfa106a5ab8" y="309.8635"/>
      </g>
     </g>
     <g id="text_11">
      <!-- 2003 -->
      <g transform="translate(63.232465 324.461937)scale(0.1 -0.1)">
       <use xlink:href="#DejaVuSans-32"/>
       <use x="63.623047" xlink:href="#DejaVuSans-30"/>
       <use x="127.246094" xlink:href="#DejaVuSans-30"/>
       <use x="190.869141" xlink:href="#DejaVuSans-33"/>
      </g>
     </g>
    </g>
    <g id="xtick_18">
     <g id="line2d_55">
      <path clip-path="url(#pe9ee8136df)" d="M 124.733143 309.8635 
L 124.733143 224.924017 
" style="fill:none;stroke:#b0b0b0;stroke-linecap:square;stroke-width:0.8;"/>
     </g>
     <g id="line2d_56">
      <g>
       <use style="stroke:#000000;stroke-width:0.8;" x="124.733143" xlink:href="#mfa106a5ab8" y="309.8635"/>
      </g>
     </g>
     <g id="text_12">
      <!-- 2005 -->
      <g transform="translate(112.008143 324.461937)scale(0.1 -0.1)">
       <use xlink:href="#DejaVuSans-32"/>
       <use x="63.623047" xlink:href="#DejaVuSans-30"/>
       <use x="127.246094" xlink:href="#DejaVuSans-30"/>
       <use x="190.869141" xlink:href="#DejaVuSans-35"/>
      </g>
     </g>
    </g>
    <g id="xtick_19">
     <g id="line2d_57">
      <path clip-path="url(#pe9ee8136df)" d="M 173.442096 309.8635 
L 173.442096 224.924017 
" style="fill:none;stroke:#b0b0b0;stroke-linecap:square;stroke-width:0.8;"/>
     </g>
     <g id="line2d_58">
      <g>
       <use style="stroke:#000000;stroke-width:0.8;" x="173.442096" xlink:href="#mfa106a5ab8" y="309.8635"/>
      </g>
     </g>
     <g id="text_13">
      <!-- 2007 -->
      <defs>
       <path d="M 8.203125 72.90625 
L 55.078125 72.90625 
L 55.078125 68.703125 
L 28.609375 0 
L 18.3125 0 
L 43.21875 64.59375 
L 8.203125 64.59375 
z
" id="DejaVuSans-37"/>
      </defs>
      <g transform="translate(160.717096 324.461937)scale(0.1 -0.1)">
       <use xlink:href="#DejaVuSans-32"/>
       <use x="63.623047" xlink:href="#DejaVuSans-30"/>
       <use x="127.246094" xlink:href="#DejaVuSans-30"/>
       <use x="190.869141" xlink:href="#DejaVuSans-37"/>
      </g>
     </g>
    </g>
    <g id="xtick_20">
     <g id="line2d_59">
      <path clip-path="url(#pe9ee8136df)" d="M 222.217773 309.8635 
L 222.217773 224.924017 
" style="fill:none;stroke:#b0b0b0;stroke-linecap:square;stroke-width:0.8;"/>
     </g>
     <g id="line2d_60">
      <g>
       <use style="stroke:#000000;stroke-width:0.8;" x="222.217773" xlink:href="#mfa106a5ab8" y="309.8635"/>
      </g>
     </g>
     <g id="text_14">
      <!-- 2009 -->
      <defs>
       <path d="M 10.984375 1.515625 
L 10.984375 10.5 
Q 14.703125 8.734375 18.5 7.8125 
Q 22.3125 6.890625 25.984375 6.890625 
Q 35.75 6.890625 40.890625 13.453125 
Q 46.046875 20.015625 46.78125 33.40625 
Q 43.953125 29.203125 39.59375 26.953125 
Q 35.25 24.703125 29.984375 24.703125 
Q 19.046875 24.703125 12.671875 31.3125 
Q 6.296875 37.9375 6.296875 49.421875 
Q 6.296875 60.640625 12.9375 67.421875 
Q 19.578125 74.21875 30.609375 74.21875 
Q 43.265625 74.21875 49.921875 64.515625 
Q 56.59375 54.828125 56.59375 36.375 
Q 56.59375 19.140625 48.40625 8.859375 
Q 40.234375 -1.421875 26.421875 -1.421875 
Q 22.703125 -1.421875 18.890625 -0.6875 
Q 15.09375 0.046875 10.984375 1.515625 
z
M 30.609375 32.421875 
Q 37.25 32.421875 41.125 36.953125 
Q 45.015625 41.5 45.015625 49.421875 
Q 45.015625 57.28125 41.125 61.84375 
Q 37.25 66.40625 30.609375 66.40625 
Q 23.96875 66.40625 20.09375 61.84375 
Q 16.21875 57.28125 16.21875 49.421875 
Q 16.21875 41.5 20.09375 36.953125 
Q 23.96875 32.421875 30.609375 32.421875 
z
" id="DejaVuSans-39"/>
      </defs>
      <g transform="translate(209.492773 324.461937)scale(0.1 -0.1)">
       <use xlink:href="#DejaVuSans-32"/>
       <use x="63.623047" xlink:href="#DejaVuSans-30"/>
       <use x="127.246094" xlink:href="#DejaVuSans-30"/>
       <use x="190.869141" xlink:href="#DejaVuSans-39"/>
      </g>
     </g>
    </g>
    <g id="xtick_21">
     <g id="line2d_61">
      <path clip-path="url(#pe9ee8136df)" d="M 270.926726 309.8635 
L 270.926726 224.924017 
" style="fill:none;stroke:#b0b0b0;stroke-linecap:square;stroke-width:0.8;"/>
     </g>
     <g id="line2d_62">
      <g>
       <use style="stroke:#000000;stroke-width:0.8;" x="270.926726" xlink:href="#mfa106a5ab8" y="309.8635"/>
      </g>
     </g>
     <g id="text_15">
      <!-- 2011 -->
      <g transform="translate(258.201726 324.461937)scale(0.1 -0.1)">
       <use xlink:href="#DejaVuSans-32"/>
       <use x="63.623047" xlink:href="#DejaVuSans-30"/>
       <use x="127.246094" xlink:href="#DejaVuSans-31"/>
       <use x="190.869141" xlink:href="#DejaVuSans-31"/>
      </g>
     </g>
    </g>
    <g id="xtick_22">
     <g id="line2d_63">
      <path clip-path="url(#pe9ee8136df)" d="M 319.702404 309.8635 
L 319.702404 224.924017 
" style="fill:none;stroke:#b0b0b0;stroke-linecap:square;stroke-width:0.8;"/>
     </g>
     <g id="line2d_64">
      <g>
       <use style="stroke:#000000;stroke-width:0.8;" x="319.702404" xlink:href="#mfa106a5ab8" y="309.8635"/>
      </g>
     </g>
     <g id="text_16">
      <!-- 2013 -->
      <g transform="translate(306.977404 324.461937)scale(0.1 -0.1)">
       <use xlink:href="#DejaVuSans-32"/>
       <use x="63.623047" xlink:href="#DejaVuSans-30"/>
       <use x="127.246094" xlink:href="#DejaVuSans-31"/>
       <use x="190.869141" xlink:href="#DejaVuSans-33"/>
      </g>
     </g>
    </g>
    <g id="xtick_23">
     <g id="line2d_65">
      <path clip-path="url(#pe9ee8136df)" d="M 368.411357 309.8635 
L 368.411357 224.924017 
" style="fill:none;stroke:#b0b0b0;stroke-linecap:square;stroke-width:0.8;"/>
     </g>
     <g id="line2d_66">
      <g>
       <use style="stroke:#000000;stroke-width:0.8;" x="368.411357" xlink:href="#mfa106a5ab8" y="309.8635"/>
      </g>
     </g>
     <g id="text_17">
      <!-- 2015 -->
      <g transform="translate(355.686357 324.461937)scale(0.1 -0.1)">
       <use xlink:href="#DejaVuSans-32"/>
       <use x="63.623047" xlink:href="#DejaVuSans-30"/>
       <use x="127.246094" xlink:href="#DejaVuSans-31"/>
       <use x="190.869141" xlink:href="#DejaVuSans-35"/>
      </g>
     </g>
    </g>
    <g id="xtick_24">
     <g id="line2d_67">
      <path clip-path="url(#pe9ee8136df)" d="M 417.187035 309.8635 
L 417.187035 224.924017 
" style="fill:none;stroke:#b0b0b0;stroke-linecap:square;stroke-width:0.8;"/>
     </g>
     <g id="line2d_68">
      <g>
       <use style="stroke:#000000;stroke-width:0.8;" x="417.187035" xlink:href="#mfa106a5ab8" y="309.8635"/>
      </g>
     </g>
     <g id="text_18">
      <!-- 2017 -->
      <g transform="translate(404.462035 324.461937)scale(0.1 -0.1)">
       <use xlink:href="#DejaVuSans-32"/>
       <use x="63.623047" xlink:href="#DejaVuSans-30"/>
       <use x="127.246094" xlink:href="#DejaVuSans-31"/>
       <use x="190.869141" xlink:href="#DejaVuSans-37"/>
      </g>
     </g>
    </g>
    <g id="text_19">
     <!-- Date -->
     <defs>
      <path d="M 19.671875 64.796875 
L 19.671875 8.109375 
L 31.59375 8.109375 
Q 46.6875 8.109375 53.6875 14.9375 
Q 60.6875 21.78125 60.6875 36.53125 
Q 60.6875 51.171875 53.6875 57.984375 
Q 46.6875 64.796875 31.59375 64.796875 
z
M 9.8125 72.90625 
L 30.078125 72.90625 
Q 51.265625 72.90625 61.171875 64.09375 
Q 71.09375 55.28125 71.09375 36.53125 
Q 71.09375 17.671875 61.125 8.828125 
Q 51.171875 0 30.078125 0 
L 9.8125 0 
z
" id="DejaVuSans-44"/>
     </defs>
     <g transform="translate(226.414344 338.140062)scale(0.1 -0.1)">
      <use xlink:href="#DejaVuSans-44"/>
      <use x="77.001953" xlink:href="#DejaVuSans-61"/>
      <use x="138.28125" xlink:href="#DejaVuSans-74"/>
      <use x="177.490234" xlink:href="#DejaVuSans-65"/>
     </g>
    </g>
   </g>
   <g id="matplotlib.axis_6">
    <g id="ytick_8">
     <g id="line2d_69">
      <path clip-path="url(#pe9ee8136df)" d="M 29.25025 306.002614 
L 447.48 306.002614 
" style="fill:none;stroke:#b0b0b0;stroke-linecap:square;stroke-width:0.8;"/>
     </g>
     <g id="line2d_70">
      <g>
       <use style="stroke:#000000;stroke-width:0.8;" x="29.25025" xlink:href="#m0c9e16aa57" y="306.002614"/>
      </g>
     </g>
     <g id="text_20">
      <!-- 0.0 -->
      <g transform="translate(6.347125 309.801833)scale(0.1 -0.1)">
       <use xlink:href="#DejaVuSans-30"/>
       <use x="63.623047" xlink:href="#DejaVuSans-2e"/>
       <use x="95.410156" xlink:href="#DejaVuSans-30"/>
      </g>
     </g>
    </g>
    <g id="ytick_9">
     <g id="line2d_71">
      <path clip-path="url(#pe9ee8136df)" d="M 29.25025 274.052749 
L 447.48 274.052749 
" style="fill:none;stroke:#b0b0b0;stroke-linecap:square;stroke-width:0.8;"/>
     </g>
     <g id="line2d_72">
      <g>
       <use style="stroke:#000000;stroke-width:0.8;" x="29.25025" xlink:href="#m0c9e16aa57" y="274.052749"/>
      </g>
     </g>
     <g id="text_21">
      <!-- 0.5 -->
      <g transform="translate(6.347125 277.851967)scale(0.1 -0.1)">
       <use xlink:href="#DejaVuSans-30"/>
       <use x="63.623047" xlink:href="#DejaVuSans-2e"/>
       <use x="95.410156" xlink:href="#DejaVuSans-35"/>
      </g>
     </g>
    </g>
    <g id="ytick_10">
     <g id="line2d_73">
      <path clip-path="url(#pe9ee8136df)" d="M 29.25025 242.102883 
L 447.48 242.102883 
" style="fill:none;stroke:#b0b0b0;stroke-linecap:square;stroke-width:0.8;"/>
     </g>
     <g id="line2d_74">
      <g>
       <use style="stroke:#000000;stroke-width:0.8;" x="29.25025" xlink:href="#m0c9e16aa57" y="242.102883"/>
      </g>
     </g>
     <g id="text_22">
      <!-- 1.0 -->
      <g transform="translate(6.347125 245.902102)scale(0.1 -0.1)">
       <use xlink:href="#DejaVuSans-31"/>
       <use x="63.623047" xlink:href="#DejaVuSans-2e"/>
       <use x="95.410156" xlink:href="#DejaVuSans-30"/>
      </g>
     </g>
    </g>
   </g>
   <g id="line2d_75">
    <path clip-path="url(#pe9ee8136df)" d="M 29.25025 229.501341 
L 31.118539 276.632531 
L 33.187001 228.784902 
L 35.188739 234.889313 
L 37.257201 232.407667 
L 39.258939 234.20314 
L 41.327401 271.299403 
L 43.395864 265.042846 
L 45.397602 283.43465 
L 47.466064 289.01243 
L 49.467802 276.611173 
L 53.604727 305.629097 
L 55.473015 306.002614 
L 57.541478 288.160353 
L 59.543215 304.336375 
L 61.611678 304.224619 
L 63.613415 299.719767 
L 65.681878 296.464126 
L 67.75034 296.005022 
L 69.752078 295.954609 
L 71.82054 298.667363 
L 73.822278 296.042173 
L 75.890741 295.380438 
L 77.959203 305.241397 
L 79.827492 300.213565 
L 81.895954 301.16687 
L 83.897692 300.576128 
L 85.966154 296.871489 
L 87.967892 295.451471 
L 90.036354 291.133464 
L 92.104817 291.959039 
L 94.106555 290.472819 
L 96.175017 299.758877 
L 98.176755 303.348524 
L 100.245217 306.002399 
L 102.31368 303.902307 
L 104.248693 304.935985 
L 106.317155 298.296117 
L 108.318893 305.236905 
L 110.387355 306.002614 
L 112.389093 300.071857 
L 114.457555 297.486579 
L 116.526018 285.558332 
L 118.527756 289.977436 
L 120.596218 296.072284 
L 122.597956 293.914352 
L 124.666418 302.564229 
L 126.734881 299.967445 
L 128.603169 306.002614 
L 132.673369 306.002614 
L 134.741832 305.884537 
L 136.74357 303.6697 
L 138.812032 276.938152 
L 140.880494 275.105507 
L 142.882232 291.84004 
L 144.950695 299.665431 
L 146.952432 302.194033 
L 149.020895 282.689503 
L 151.089357 306.002614 
L 152.957646 305.55223 
L 155.026108 306.002614 
L 157.027846 306.002614 
L 159.096308 304.719099 
L 161.098046 288.263399 
L 163.166508 274.552465 
L 165.234971 283.701662 
L 167.236709 290.100805 
L 169.305171 289.224907 
L 171.306909 299.685369 
L 173.375371 300.036801 
L 175.443834 302.727361 
L 177.312122 306.002614 
L 179.380585 306.002614 
L 181.382322 304.394589 
L 183.450785 294.536924 
L 185.452523 286.943823 
L 187.520985 284.583024 
L 189.589447 272.882917 
L 191.591185 289.919914 
L 193.659648 284.312151 
L 195.661385 302.812058 
L 197.729848 286.934686 
L 199.79831 287.288559 
L 201.733323 293.767214 
L 203.801786 298.062011 
L 205.803524 293.14579 
L 207.871986 298.569077 
L 209.873724 292.247718 
L 211.942186 283.561399 
L 214.010648 282.013926 
L 216.012386 283.027152 
L 218.080849 304.215126 
L 220.082586 306.002614 
L 222.151049 299.862089 
L 224.219511 306.002614 
L 230.158 306.002614 
L 232.226462 292.2031 
L 234.2282 302.459824 
L 236.296663 298.59488 
L 238.365125 297.313263 
L 240.366863 294.59556 
L 242.435325 295.179345 
L 244.437063 301.978873 
L 246.505525 299.67461 
L 248.573988 306.002614 
L 256.580939 306.002614 
L 258.582677 304.601061 
L 260.651139 298.608101 
L 262.719602 298.922947 
L 264.721339 298.613633 
L 266.789802 303.929531 
L 268.791539 306.002614 
L 270.860002 305.634359 
L 272.928464 306.002614 
L 282.937153 306.002614 
L 285.005616 305.262456 
L 287.074078 305.493934 
L 289.075816 304.601772 
L 293.146016 306.002614 
L 295.214478 305.898616 
L 299.217954 306.002614 
L 301.286416 306.002614 
L 303.288154 305.863904 
L 305.356617 306.002614 
L 307.358354 306.002614 
L 309.426817 305.598371 
L 311.495279 304.272554 
L 313.497017 306.002614 
L 315.565479 304.388934 
L 317.567217 305.39709 
L 319.635679 306.002614 
L 331.712831 306.002614 
L 333.781293 304.509552 
L 335.849756 306.002614 
L 337.851493 306.002614 
L 339.919956 304.708918 
L 341.921694 306.002614 
L 343.990156 305.316595 
L 346.058618 306.002614 
L 349.995369 306.002614 
L 354.06557 303.990808 
L 358.13577 305.527215 
L 360.204232 305.61428 
L 362.20597 306.002614 
L 364.274432 304.894635 
L 366.27617 306.002614 
L 370.413095 304.726369 
L 372.281383 305.497761 
L 374.349846 306.002614 
L 376.351584 305.438947 
L 378.420046 306.002614 
L 380.421784 303.465642 
L 384.558709 306.002614 
L 386.560446 304.31599 
L 388.628909 303.71885 
L 390.630647 306.002614 
L 392.699109 306.002614 
L 394.767571 305.602258 
L 396.702585 306.002614 
L 402.841247 306.002614 
L 404.842985 305.180188 
L 406.911447 304.024913 
L 408.97991 305.636957 
L 410.981648 305.958117 
L 413.05011 305.07126 
L 415.051848 306.002614 
L 421.057061 306.002614 
L 423.125523 304.409792 
L 425.127261 306.002614 
L 427.195724 304.915055 
L 429.197461 302.771261 
L 431.265924 304.368991 
L 433.334386 301.830936 
L 435.336124 301.023212 
L 437.404586 301.682016 
L 439.406324 305.158005 
L 441.474787 306.002614 
L 445.411538 306.002614 
L 447.48 305.465798 
L 447.48 305.465798 
" style="fill:none;stroke:#4682b4;stroke-linecap:square;stroke-width:1.5;"/>
   </g>
   <g id="patch_15">
    <path d="M 29.25025 309.8635 
L 29.25025 224.924017 
" style="fill:none;stroke:#000000;stroke-linecap:square;stroke-linejoin:miter;stroke-width:0.8;"/>
   </g>
   <g id="patch_16">
    <path d="M 447.48 309.8635 
L 447.48 224.924017 
" style="fill:none;stroke:#000000;stroke-linecap:square;stroke-linejoin:miter;stroke-width:0.8;"/>
   </g>
   <g id="patch_17">
    <path d="M 29.25025 309.8635 
L 447.48 309.8635 
" style="fill:none;stroke:#000000;stroke-linecap:square;stroke-linejoin:miter;stroke-width:0.8;"/>
   </g>
   <g id="patch_18">
    <path d="M 29.25025 224.924017 
L 447.48 224.924017 
" style="fill:none;stroke:#000000;stroke-linecap:square;stroke-linejoin:miter;stroke-width:0.8;"/>
   </g>
   <g id="legend_3">
    <g id="patch_19">
     <path d="M 387.262813 247.602142 
L 440.48 247.602142 
Q 442.48 247.602142 442.48 245.602142 
L 442.48 231.924017 
Q 442.48 229.924017 440.48 229.924017 
L 387.262813 229.924017 
Q 385.262813 229.924017 385.262813 231.924017 
L 385.262813 245.602142 
Q 385.262813 247.602142 387.262813 247.602142 
z
" style="fill:#ffffff;opacity:0.8;stroke:#cccccc;stroke-linejoin:miter;"/>
    </g>
    <g id="line2d_76">
     <path d="M 389.262813 238.022454 
L 409.262813 238.022454 
" style="fill:none;stroke:#4682b4;stroke-linecap:square;stroke-width:1.5;"/>
    </g>
    <g id="line2d_77"/>
    <g id="text_23">
     <!-- CO2 -->
     <defs>
      <path d="M 64.40625 67.28125 
L 64.40625 56.890625 
Q 59.421875 61.53125 53.78125 63.8125 
Q 48.140625 66.109375 41.796875 66.109375 
Q 29.296875 66.109375 22.65625 58.46875 
Q 16.015625 50.828125 16.015625 36.375 
Q 16.015625 21.96875 22.65625 14.328125 
Q 29.296875 6.6875 41.796875 6.6875 
Q 48.140625 6.6875 53.78125 8.984375 
Q 59.421875 11.28125 64.40625 15.921875 
L 64.40625 5.609375 
Q 59.234375 2.09375 53.4375 0.328125 
Q 47.65625 -1.421875 41.21875 -1.421875 
Q 24.65625 -1.421875 15.125 8.703125 
Q 5.609375 18.84375 5.609375 36.375 
Q 5.609375 53.953125 15.125 64.078125 
Q 24.65625 74.21875 41.21875 74.21875 
Q 47.75 74.21875 53.53125 72.484375 
Q 59.328125 70.75 64.40625 67.28125 
z
" id="DejaVuSans-43"/>
     </defs>
     <g transform="translate(417.262813 241.522454)scale(0.1 -0.1)">
      <use xlink:href="#DejaVuSans-43"/>
      <use x="69.824219" xlink:href="#DejaVuSans-4f"/>
      <use x="148.535156" xlink:href="#DejaVuSans-32"/>
     </g>
    </g>
   </g>
  </g>
 </g>
 <defs>
  <clipPath id="p530f2ecab6">
   <rect height="84.939483" width="418.22975" x="29.25025" y="23.36505"/>
  </clipPath>
  <clipPath id="p24547f1cb7">
   <rect height="84.939483" width="418.22975" x="29.25025" y="124.144533"/>
  </clipPath>
  <clipPath id="pe9ee8136df">
   <rect height="84.939483" width="418.22975" x="29.25025" y="224.924017"/>
  </clipPath>
 </defs>
</svg>
