<?xml version="1.0" encoding="utf-8" standalone="no"?>
<!DOCTYPE svg PUBLIC "-//W3C//DTD SVG 1.1//EN"
  "http://www.w3.org/Graphics/SVG/1.1/DTD/svg11.dtd">
<!-- Created with matplotlib (http://matplotlib.org/) -->
<svg height="345.6pt" version="1.1" viewBox="0 0 460.8 345.6" width="460.8pt" xmlns="http://www.w3.org/2000/svg" xmlns:xlink="http://www.w3.org/1999/xlink">
 <defs>
  <style type="text/css">
*{stroke-linecap:butt;stroke-linejoin:round;}
  </style>
 </defs>
 <g id="figure_1">
  <g id="patch_1">
   <path d="M 0 345.6 
L 460.8 345.6 
L 460.8 0 
L 0 0 
z
" style="fill:none;"/>
  </g>
  <g id="axes_1">
   <g id="patch_2">
    <path d="M 44.7995 309.8635 
L 443.009854 309.8635 
L 443.009854 23.36505 
L 44.7995 23.36505 
z
" style="fill:none;"/>
   </g>
   <g id="matplotlib.axis_1">
    <g id="xtick_1">
     <g id="line2d_1">
      <path clip-path="url(#peafc094421)" d="M 89.270982 309.8635 
L 89.270982 23.36505 
" style="fill:none;stroke:#b0b0b0;stroke-linecap:square;stroke-width:0.8;"/>
     </g>
     <g id="line2d_2">
      <defs>
       <path d="M 0 0 
L 0 3.5 
" id="m11a6e5f97f" style="stroke:#000000;stroke-width:0.8;"/>
      </defs>
      <g>
       <use style="stroke:#000000;stroke-width:0.8;" x="89.270982" xlink:href="#m11a6e5f97f" y="309.8635"/>
      </g>
     </g>
     <g id="text_1">
      <!-- 2003 -->
      <defs>
       <path d="M 19.1875 8.296875 
L 53.609375 8.296875 
L 53.609375 0 
L 7.328125 0 
L 7.328125 8.296875 
Q 12.9375 14.109375 22.625 23.890625 
Q 32.328125 33.6875 34.8125 36.53125 
Q 39.546875 41.84375 41.421875 45.53125 
Q 43.3125 49.21875 43.3125 52.78125 
Q 43.3125 58.59375 39.234375 62.25 
Q 35.15625 65.921875 28.609375 65.921875 
Q 23.96875 65.921875 18.8125 64.3125 
Q 13.671875 62.703125 7.8125 59.421875 
L 7.8125 69.390625 
Q 13.765625 71.78125 18.9375 73 
Q 24.125 74.21875 28.421875 74.21875 
Q 39.75 74.21875 46.484375 68.546875 
Q 53.21875 62.890625 53.21875 53.421875 
Q 53.21875 48.921875 51.53125 44.890625 
Q 49.859375 40.875 45.40625 35.40625 
Q 44.1875 33.984375 37.640625 27.21875 
Q 31.109375 20.453125 19.1875 8.296875 
z
" id="DejaVuSans-32"/>
       <path d="M 31.78125 66.40625 
Q 24.171875 66.40625 20.328125 58.90625 
Q 16.5 51.421875 16.5 36.375 
Q 16.5 21.390625 20.328125 13.890625 
Q 24.171875 6.390625 31.78125 6.390625 
Q 39.453125 6.390625 43.28125 13.890625 
Q 47.125 21.390625 47.125 36.375 
Q 47.125 51.421875 43.28125 58.90625 
Q 39.453125 66.40625 31.78125 66.40625 
z
M 31.78125 74.21875 
Q 44.046875 74.21875 50.515625 64.515625 
Q 56.984375 54.828125 56.984375 36.375 
Q 56.984375 17.96875 50.515625 8.265625 
Q 44.046875 -1.421875 31.78125 -1.421875 
Q 19.53125 -1.421875 13.0625 8.265625 
Q 6.59375 17.96875 6.59375 36.375 
Q 6.59375 54.828125 13.0625 64.515625 
Q 19.53125 74.21875 31.78125 74.21875 
z
" id="DejaVuSans-30"/>
       <path d="M 40.578125 39.3125 
Q 47.65625 37.796875 51.625 33 
Q 55.609375 28.21875 55.609375 21.1875 
Q 55.609375 10.40625 48.1875 4.484375 
Q 40.765625 -1.421875 27.09375 -1.421875 
Q 22.515625 -1.421875 17.65625 -0.515625 
Q 12.796875 0.390625 7.625 2.203125 
L 7.625 11.71875 
Q 11.71875 9.328125 16.59375 8.109375 
Q 21.484375 6.890625 26.8125 6.890625 
Q 36.078125 6.890625 40.9375 10.546875 
Q 45.796875 14.203125 45.796875 21.1875 
Q 45.796875 27.640625 41.28125 31.265625 
Q 36.765625 34.90625 28.71875 34.90625 
L 20.21875 34.90625 
L 20.21875 43.015625 
L 29.109375 43.015625 
Q 36.375 43.015625 40.234375 45.921875 
Q 44.09375 48.828125 44.09375 54.296875 
Q 44.09375 59.90625 40.109375 62.90625 
Q 36.140625 65.921875 28.71875 65.921875 
Q 24.65625 65.921875 20.015625 65.03125 
Q 15.375 64.15625 9.8125 62.3125 
L 9.8125 71.09375 
Q 15.4375 72.65625 20.34375 73.4375 
Q 25.25 74.21875 29.59375 74.21875 
Q 40.828125 74.21875 47.359375 69.109375 
Q 53.90625 64.015625 53.90625 55.328125 
Q 53.90625 49.265625 50.4375 45.09375 
Q 46.96875 40.921875 40.578125 39.3125 
z
" id="DejaVuSans-33"/>
      </defs>
      <g transform="translate(76.545982 324.461937)scale(0.1 -0.1)">
       <use xlink:href="#DejaVuSans-32"/>
       <use x="63.623047" xlink:href="#DejaVuSans-30"/>
       <use x="127.246094" xlink:href="#DejaVuSans-30"/>
       <use x="190.869141" xlink:href="#DejaVuSans-33"/>
      </g>
     </g>
    </g>
    <g id="xtick_2">
     <g id="line2d_3">
      <path clip-path="url(#peafc094421)" d="M 135.711915 309.8635 
L 135.711915 23.36505 
" style="fill:none;stroke:#b0b0b0;stroke-linecap:square;stroke-width:0.8;"/>
     </g>
     <g id="line2d_4">
      <g>
       <use style="stroke:#000000;stroke-width:0.8;" x="135.711915" xlink:href="#m11a6e5f97f" y="309.8635"/>
      </g>
     </g>
     <g id="text_2">
      <!-- 2005 -->
      <defs>
       <path d="M 10.796875 72.90625 
L 49.515625 72.90625 
L 49.515625 64.59375 
L 19.828125 64.59375 
L 19.828125 46.734375 
Q 21.96875 47.46875 24.109375 47.828125 
Q 26.265625 48.1875 28.421875 48.1875 
Q 40.625 48.1875 47.75 41.5 
Q 54.890625 34.8125 54.890625 23.390625 
Q 54.890625 11.625 47.5625 5.09375 
Q 40.234375 -1.421875 26.90625 -1.421875 
Q 22.3125 -1.421875 17.546875 -0.640625 
Q 12.796875 0.140625 7.71875 1.703125 
L 7.71875 11.625 
Q 12.109375 9.234375 16.796875 8.0625 
Q 21.484375 6.890625 26.703125 6.890625 
Q 35.15625 6.890625 40.078125 11.328125 
Q 45.015625 15.765625 45.015625 23.390625 
Q 45.015625 31 40.078125 35.4375 
Q 35.15625 39.890625 26.703125 39.890625 
Q 22.75 39.890625 18.8125 39.015625 
Q 14.890625 38.140625 10.796875 36.28125 
z
" id="DejaVuSans-35"/>
      </defs>
      <g transform="translate(122.986915 324.461937)scale(0.1 -0.1)">
       <use xlink:href="#DejaVuSans-32"/>
       <use x="63.623047" xlink:href="#DejaVuSans-30"/>
       <use x="127.246094" xlink:href="#DejaVuSans-30"/>
       <use x="190.869141" xlink:href="#DejaVuSans-35"/>
      </g>
     </g>
    </g>
    <g id="xtick_3">
     <g id="line2d_5">
      <path clip-path="url(#peafc094421)" d="M 182.089317 309.8635 
L 182.089317 23.36505 
" style="fill:none;stroke:#b0b0b0;stroke-linecap:square;stroke-width:0.8;"/>
     </g>
     <g id="line2d_6">
      <g>
       <use style="stroke:#000000;stroke-width:0.8;" x="182.089317" xlink:href="#m11a6e5f97f" y="309.8635"/>
      </g>
     </g>
     <g id="text_3">
      <!-- 2007 -->
      <defs>
       <path d="M 8.203125 72.90625 
L 55.078125 72.90625 
L 55.078125 68.703125 
L 28.609375 0 
L 18.3125 0 
L 43.21875 64.59375 
L 8.203125 64.59375 
z
" id="DejaVuSans-37"/>
      </defs>
      <g transform="translate(169.364317 324.461937)scale(0.1 -0.1)">
       <use xlink:href="#DejaVuSans-32"/>
       <use x="63.623047" xlink:href="#DejaVuSans-30"/>
       <use x="127.246094" xlink:href="#DejaVuSans-30"/>
       <use x="190.869141" xlink:href="#DejaVuSans-37"/>
      </g>
     </g>
    </g>
    <g id="xtick_4">
     <g id="line2d_7">
      <path clip-path="url(#peafc094421)" d="M 228.530251 309.8635 
L 228.530251 23.36505 
" style="fill:none;stroke:#b0b0b0;stroke-linecap:square;stroke-width:0.8;"/>
     </g>
     <g id="line2d_8">
      <g>
       <use style="stroke:#000000;stroke-width:0.8;" x="228.530251" xlink:href="#m11a6e5f97f" y="309.8635"/>
      </g>
     </g>
     <g id="text_4">
      <!-- 2009 -->
      <defs>
       <path d="M 10.984375 1.515625 
L 10.984375 10.5 
Q 14.703125 8.734375 18.5 7.8125 
Q 22.3125 6.890625 25.984375 6.890625 
Q 35.75 6.890625 40.890625 13.453125 
Q 46.046875 20.015625 46.78125 33.40625 
Q 43.953125 29.203125 39.59375 26.953125 
Q 35.25 24.703125 29.984375 24.703125 
Q 19.046875 24.703125 12.671875 31.3125 
Q 6.296875 37.9375 6.296875 49.421875 
Q 6.296875 60.640625 12.9375 67.421875 
Q 19.578125 74.21875 30.609375 74.21875 
Q 43.265625 74.21875 49.921875 64.515625 
Q 56.59375 54.828125 56.59375 36.375 
Q 56.59375 19.140625 48.40625 8.859375 
Q 40.234375 -1.421875 26.421875 -1.421875 
Q 22.703125 -1.421875 18.890625 -0.6875 
Q 15.09375 0.046875 10.984375 1.515625 
z
M 30.609375 32.421875 
Q 37.25 32.421875 41.125 36.953125 
Q 45.015625 41.5 45.015625 49.421875 
Q 45.015625 57.28125 41.125 61.84375 
Q 37.25 66.40625 30.609375 66.40625 
Q 23.96875 66.40625 20.09375 61.84375 
Q 16.21875 57.28125 16.21875 49.421875 
Q 16.21875 41.5 20.09375 36.953125 
Q 23.96875 32.421875 30.609375 32.421875 
z
" id="DejaVuSans-39"/>
      </defs>
      <g transform="translate(215.805251 324.461937)scale(0.1 -0.1)">
       <use xlink:href="#DejaVuSans-32"/>
       <use x="63.623047" xlink:href="#DejaVuSans-30"/>
       <use x="127.246094" xlink:href="#DejaVuSans-30"/>
       <use x="190.869141" xlink:href="#DejaVuSans-39"/>
      </g>
     </g>
    </g>
    <g id="xtick_5">
     <g id="line2d_9">
      <path clip-path="url(#peafc094421)" d="M 274.907653 309.8635 
L 274.907653 23.36505 
" style="fill:none;stroke:#b0b0b0;stroke-linecap:square;stroke-width:0.8;"/>
     </g>
     <g id="line2d_10">
      <g>
       <use style="stroke:#000000;stroke-width:0.8;" x="274.907653" xlink:href="#m11a6e5f97f" y="309.8635"/>
      </g>
     </g>
     <g id="text_5">
      <!-- 2011 -->
      <defs>
       <path d="M 12.40625 8.296875 
L 28.515625 8.296875 
L 28.515625 63.921875 
L 10.984375 60.40625 
L 10.984375 69.390625 
L 28.421875 72.90625 
L 38.28125 72.90625 
L 38.28125 8.296875 
L 54.390625 8.296875 
L 54.390625 0 
L 12.40625 0 
z
" id="DejaVuSans-31"/>
      </defs>
      <g transform="translate(262.182653 324.461937)scale(0.1 -0.1)">
       <use xlink:href="#DejaVuSans-32"/>
       <use x="63.623047" xlink:href="#DejaVuSans-30"/>
       <use x="127.246094" xlink:href="#DejaVuSans-31"/>
       <use x="190.869141" xlink:href="#DejaVuSans-31"/>
      </g>
     </g>
    </g>
    <g id="xtick_6">
     <g id="line2d_11">
      <path clip-path="url(#peafc094421)" d="M 321.348586 309.8635 
L 321.348586 23.36505 
" style="fill:none;stroke:#b0b0b0;stroke-linecap:square;stroke-width:0.8;"/>
     </g>
     <g id="line2d_12">
      <g>
       <use style="stroke:#000000;stroke-width:0.8;" x="321.348586" xlink:href="#m11a6e5f97f" y="309.8635"/>
      </g>
     </g>
     <g id="text_6">
      <!-- 2013 -->
      <g transform="translate(308.623586 324.461937)scale(0.1 -0.1)">
       <use xlink:href="#DejaVuSans-32"/>
       <use x="63.623047" xlink:href="#DejaVuSans-30"/>
       <use x="127.246094" xlink:href="#DejaVuSans-31"/>
       <use x="190.869141" xlink:href="#DejaVuSans-33"/>
      </g>
     </g>
    </g>
    <g id="xtick_7">
     <g id="line2d_13">
      <path clip-path="url(#peafc094421)" d="M 367.725989 309.8635 
L 367.725989 23.36505 
" style="fill:none;stroke:#b0b0b0;stroke-linecap:square;stroke-width:0.8;"/>
     </g>
     <g id="line2d_14">
      <g>
       <use style="stroke:#000000;stroke-width:0.8;" x="367.725989" xlink:href="#m11a6e5f97f" y="309.8635"/>
      </g>
     </g>
     <g id="text_7">
      <!-- 2015 -->
      <g transform="translate(355.000989 324.461937)scale(0.1 -0.1)">
       <use xlink:href="#DejaVuSans-32"/>
       <use x="63.623047" xlink:href="#DejaVuSans-30"/>
       <use x="127.246094" xlink:href="#DejaVuSans-31"/>
       <use x="190.869141" xlink:href="#DejaVuSans-35"/>
      </g>
     </g>
    </g>
    <g id="xtick_8">
     <g id="line2d_15">
      <path clip-path="url(#peafc094421)" d="M 414.166922 309.8635 
L 414.166922 23.36505 
" style="fill:none;stroke:#b0b0b0;stroke-linecap:square;stroke-width:0.8;"/>
     </g>
     <g id="line2d_16">
      <g>
       <use style="stroke:#000000;stroke-width:0.8;" x="414.166922" xlink:href="#m11a6e5f97f" y="309.8635"/>
      </g>
     </g>
     <g id="text_8">
      <!-- 2017 -->
      <g transform="translate(401.441922 324.461937)scale(0.1 -0.1)">
       <use xlink:href="#DejaVuSans-32"/>
       <use x="63.623047" xlink:href="#DejaVuSans-30"/>
       <use x="127.246094" xlink:href="#DejaVuSans-31"/>
       <use x="190.869141" xlink:href="#DejaVuSans-37"/>
      </g>
     </g>
    </g>
    <g id="text_9">
     <!-- Date -->
     <defs>
      <path d="M 19.671875 64.796875 
L 19.671875 8.109375 
L 31.59375 8.109375 
Q 46.6875 8.109375 53.6875 14.9375 
Q 60.6875 21.78125 60.6875 36.53125 
Q 60.6875 51.171875 53.6875 57.984375 
Q 46.6875 64.796875 31.59375 64.796875 
z
M 9.8125 72.90625 
L 30.078125 72.90625 
Q 51.265625 72.90625 61.171875 64.09375 
Q 71.09375 55.28125 71.09375 36.53125 
Q 71.09375 17.671875 61.125 8.828125 
Q 51.171875 0 30.078125 0 
L 9.8125 0 
z
" id="DejaVuSans-44"/>
      <path d="M 34.28125 27.484375 
Q 23.390625 27.484375 19.1875 25 
Q 14.984375 22.515625 14.984375 16.5 
Q 14.984375 11.71875 18.140625 8.90625 
Q 21.296875 6.109375 26.703125 6.109375 
Q 34.1875 6.109375 38.703125 11.40625 
Q 43.21875 16.703125 43.21875 25.484375 
L 43.21875 27.484375 
z
M 52.203125 31.203125 
L 52.203125 0 
L 43.21875 0 
L 43.21875 8.296875 
Q 40.140625 3.328125 35.546875 0.953125 
Q 30.953125 -1.421875 24.3125 -1.421875 
Q 15.921875 -1.421875 10.953125 3.296875 
Q 6 8.015625 6 15.921875 
Q 6 25.140625 12.171875 29.828125 
Q 18.359375 34.515625 30.609375 34.515625 
L 43.21875 34.515625 
L 43.21875 35.40625 
Q 43.21875 41.609375 39.140625 45 
Q 35.0625 48.390625 27.6875 48.390625 
Q 23 48.390625 18.546875 47.265625 
Q 14.109375 46.140625 10.015625 43.890625 
L 10.015625 52.203125 
Q 14.9375 54.109375 19.578125 55.046875 
Q 24.21875 56 28.609375 56 
Q 40.484375 56 46.34375 49.84375 
Q 52.203125 43.703125 52.203125 31.203125 
z
" id="DejaVuSans-61"/>
      <path d="M 18.3125 70.21875 
L 18.3125 54.6875 
L 36.8125 54.6875 
L 36.8125 47.703125 
L 18.3125 47.703125 
L 18.3125 18.015625 
Q 18.3125 11.328125 20.140625 9.421875 
Q 21.96875 7.515625 27.59375 7.515625 
L 36.8125 7.515625 
L 36.8125 0 
L 27.59375 0 
Q 17.1875 0 13.234375 3.875 
Q 9.28125 7.765625 9.28125 18.015625 
L 9.28125 47.703125 
L 2.6875 47.703125 
L 2.6875 54.6875 
L 9.28125 54.6875 
L 9.28125 70.21875 
z
" id="DejaVuSans-74"/>
      <path d="M 56.203125 29.59375 
L 56.203125 25.203125 
L 14.890625 25.203125 
Q 15.484375 15.921875 20.484375 11.0625 
Q 25.484375 6.203125 34.421875 6.203125 
Q 39.59375 6.203125 44.453125 7.46875 
Q 49.3125 8.734375 54.109375 11.28125 
L 54.109375 2.78125 
Q 49.265625 0.734375 44.1875 -0.34375 
Q 39.109375 -1.421875 33.890625 -1.421875 
Q 20.796875 -1.421875 13.15625 6.1875 
Q 5.515625 13.8125 5.515625 26.8125 
Q 5.515625 40.234375 12.765625 48.109375 
Q 20.015625 56 32.328125 56 
Q 43.359375 56 49.78125 48.890625 
Q 56.203125 41.796875 56.203125 29.59375 
z
M 47.21875 32.234375 
Q 47.125 39.59375 43.09375 43.984375 
Q 39.0625 48.390625 32.421875 48.390625 
Q 24.90625 48.390625 20.390625 44.140625 
Q 15.875 39.890625 15.1875 32.171875 
z
" id="DejaVuSans-65"/>
     </defs>
     <g transform="translate(231.953896 338.140062)scale(0.1 -0.1)">
      <use xlink:href="#DejaVuSans-44"/>
      <use x="77.001953" xlink:href="#DejaVuSans-61"/>
      <use x="138.28125" xlink:href="#DejaVuSans-74"/>
      <use x="177.490234" xlink:href="#DejaVuSans-65"/>
     </g>
    </g>
   </g>
   <g id="matplotlib.axis_2">
    <g id="ytick_1">
     <g id="line2d_17">
      <path clip-path="url(#peafc094421)" d="M 44.7995 296.671448 
L 443.009854 296.671448 
" style="fill:none;stroke:#b0b0b0;stroke-linecap:square;stroke-width:0.8;"/>
     </g>
     <g id="line2d_18">
      <defs>
       <path d="M 0 0 
L -3.5 0 
" id="mf8628044e3" style="stroke:#000000;stroke-width:0.8;"/>
      </defs>
      <g>
       <use style="stroke:#000000;stroke-width:0.8;" x="44.7995" xlink:href="#mf8628044e3" y="296.671448"/>
      </g>
     </g>
     <g id="text_10">
      <!-- 0.25 -->
      <defs>
       <path d="M 10.6875 12.40625 
L 21 12.40625 
L 21 0 
L 10.6875 0 
z
" id="DejaVuSans-2e"/>
      </defs>
      <g transform="translate(15.533875 300.470667)scale(0.1 -0.1)">
       <use xlink:href="#DejaVuSans-30"/>
       <use x="63.623047" xlink:href="#DejaVuSans-2e"/>
       <use x="95.410156" xlink:href="#DejaVuSans-32"/>
       <use x="159.033203" xlink:href="#DejaVuSans-35"/>
      </g>
     </g>
    </g>
    <g id="ytick_2">
     <g id="line2d_19">
      <path clip-path="url(#peafc094421)" d="M 44.7995 264.050782 
L 443.009854 264.050782 
" style="fill:none;stroke:#b0b0b0;stroke-linecap:square;stroke-width:0.8;"/>
     </g>
     <g id="line2d_20">
      <g>
       <use style="stroke:#000000;stroke-width:0.8;" x="44.7995" xlink:href="#mf8628044e3" y="264.050782"/>
      </g>
     </g>
     <g id="text_11">
      <!-- 0.50 -->
      <g transform="translate(15.533875 267.850001)scale(0.1 -0.1)">
       <use xlink:href="#DejaVuSans-30"/>
       <use x="63.623047" xlink:href="#DejaVuSans-2e"/>
       <use x="95.410156" xlink:href="#DejaVuSans-35"/>
       <use x="159.033203" xlink:href="#DejaVuSans-30"/>
      </g>
     </g>
    </g>
    <g id="ytick_3">
     <g id="line2d_21">
      <path clip-path="url(#peafc094421)" d="M 44.7995 231.430116 
L 443.009854 231.430116 
" style="fill:none;stroke:#b0b0b0;stroke-linecap:square;stroke-width:0.8;"/>
     </g>
     <g id="line2d_22">
      <g>
       <use style="stroke:#000000;stroke-width:0.8;" x="44.7995" xlink:href="#mf8628044e3" y="231.430116"/>
      </g>
     </g>
     <g id="text_12">
      <!-- 0.75 -->
      <g transform="translate(15.533875 235.229335)scale(0.1 -0.1)">
       <use xlink:href="#DejaVuSans-30"/>
       <use x="63.623047" xlink:href="#DejaVuSans-2e"/>
       <use x="95.410156" xlink:href="#DejaVuSans-37"/>
       <use x="159.033203" xlink:href="#DejaVuSans-35"/>
      </g>
     </g>
    </g>
    <g id="ytick_4">
     <g id="line2d_23">
      <path clip-path="url(#peafc094421)" d="M 44.7995 198.80945 
L 443.009854 198.80945 
" style="fill:none;stroke:#b0b0b0;stroke-linecap:square;stroke-width:0.8;"/>
     </g>
     <g id="line2d_24">
      <g>
       <use style="stroke:#000000;stroke-width:0.8;" x="44.7995" xlink:href="#mf8628044e3" y="198.80945"/>
      </g>
     </g>
     <g id="text_13">
      <!-- 1.00 -->
      <g transform="translate(15.533875 202.608669)scale(0.1 -0.1)">
       <use xlink:href="#DejaVuSans-31"/>
       <use x="63.623047" xlink:href="#DejaVuSans-2e"/>
       <use x="95.410156" xlink:href="#DejaVuSans-30"/>
       <use x="159.033203" xlink:href="#DejaVuSans-30"/>
      </g>
     </g>
    </g>
    <g id="ytick_5">
     <g id="line2d_25">
      <path clip-path="url(#peafc094421)" d="M 44.7995 166.188784 
L 443.009854 166.188784 
" style="fill:none;stroke:#b0b0b0;stroke-linecap:square;stroke-width:0.8;"/>
     </g>
     <g id="line2d_26">
      <g>
       <use style="stroke:#000000;stroke-width:0.8;" x="44.7995" xlink:href="#mf8628044e3" y="166.188784"/>
      </g>
     </g>
     <g id="text_14">
      <!-- 1.25 -->
      <g transform="translate(15.533875 169.988003)scale(0.1 -0.1)">
       <use xlink:href="#DejaVuSans-31"/>
       <use x="63.623047" xlink:href="#DejaVuSans-2e"/>
       <use x="95.410156" xlink:href="#DejaVuSans-32"/>
       <use x="159.033203" xlink:href="#DejaVuSans-35"/>
      </g>
     </g>
    </g>
    <g id="ytick_6">
     <g id="line2d_27">
      <path clip-path="url(#peafc094421)" d="M 44.7995 133.568118 
L 443.009854 133.568118 
" style="fill:none;stroke:#b0b0b0;stroke-linecap:square;stroke-width:0.8;"/>
     </g>
     <g id="line2d_28">
      <g>
       <use style="stroke:#000000;stroke-width:0.8;" x="44.7995" xlink:href="#mf8628044e3" y="133.568118"/>
      </g>
     </g>
     <g id="text_15">
      <!-- 1.50 -->
      <g transform="translate(15.533875 137.367337)scale(0.1 -0.1)">
       <use xlink:href="#DejaVuSans-31"/>
       <use x="63.623047" xlink:href="#DejaVuSans-2e"/>
       <use x="95.410156" xlink:href="#DejaVuSans-35"/>
       <use x="159.033203" xlink:href="#DejaVuSans-30"/>
      </g>
     </g>
    </g>
    <g id="ytick_7">
     <g id="line2d_29">
      <path clip-path="url(#peafc094421)" d="M 44.7995 100.947452 
L 443.009854 100.947452 
" style="fill:none;stroke:#b0b0b0;stroke-linecap:square;stroke-width:0.8;"/>
     </g>
     <g id="line2d_30">
      <g>
       <use style="stroke:#000000;stroke-width:0.8;" x="44.7995" xlink:href="#mf8628044e3" y="100.947452"/>
      </g>
     </g>
     <g id="text_16">
      <!-- 1.75 -->
      <g transform="translate(15.533875 104.746671)scale(0.1 -0.1)">
       <use xlink:href="#DejaVuSans-31"/>
       <use x="63.623047" xlink:href="#DejaVuSans-2e"/>
       <use x="95.410156" xlink:href="#DejaVuSans-37"/>
       <use x="159.033203" xlink:href="#DejaVuSans-35"/>
      </g>
     </g>
    </g>
    <g id="ytick_8">
     <g id="line2d_31">
      <path clip-path="url(#peafc094421)" d="M 44.7995 68.326787 
L 443.009854 68.326787 
" style="fill:none;stroke:#b0b0b0;stroke-linecap:square;stroke-width:0.8;"/>
     </g>
     <g id="line2d_32">
      <g>
       <use style="stroke:#000000;stroke-width:0.8;" x="44.7995" xlink:href="#mf8628044e3" y="68.326787"/>
      </g>
     </g>
     <g id="text_17">
      <!-- 2.00 -->
      <g transform="translate(15.533875 72.126005)scale(0.1 -0.1)">
       <use xlink:href="#DejaVuSans-32"/>
       <use x="63.623047" xlink:href="#DejaVuSans-2e"/>
       <use x="95.410156" xlink:href="#DejaVuSans-30"/>
       <use x="159.033203" xlink:href="#DejaVuSans-30"/>
      </g>
     </g>
    </g>
    <g id="ytick_9">
     <g id="line2d_33">
      <path clip-path="url(#peafc094421)" d="M 44.7995 35.706121 
L 443.009854 35.706121 
" style="fill:none;stroke:#b0b0b0;stroke-linecap:square;stroke-width:0.8;"/>
     </g>
     <g id="line2d_34">
      <g>
       <use style="stroke:#000000;stroke-width:0.8;" x="44.7995" xlink:href="#mf8628044e3" y="35.706121"/>
      </g>
     </g>
     <g id="text_18">
      <!-- 2.25 -->
      <g transform="translate(15.533875 39.505339)scale(0.1 -0.1)">
       <use xlink:href="#DejaVuSans-32"/>
       <use x="63.623047" xlink:href="#DejaVuSans-2e"/>
       <use x="95.410156" xlink:href="#DejaVuSans-32"/>
       <use x="159.033203" xlink:href="#DejaVuSans-35"/>
      </g>
     </g>
    </g>
    <g id="text_19">
     <!-- Emissions / mean emissions -->
     <defs>
      <path d="M 9.8125 72.90625 
L 55.90625 72.90625 
L 55.90625 64.59375 
L 19.671875 64.59375 
L 19.671875 43.015625 
L 54.390625 43.015625 
L 54.390625 34.71875 
L 19.671875 34.71875 
L 19.671875 8.296875 
L 56.78125 8.296875 
L 56.78125 0 
L 9.8125 0 
z
" id="DejaVuSans-45"/>
      <path d="M 52 44.1875 
Q 55.375 50.25 60.0625 53.125 
Q 64.75 56 71.09375 56 
Q 79.640625 56 84.28125 50.015625 
Q 88.921875 44.046875 88.921875 33.015625 
L 88.921875 0 
L 79.890625 0 
L 79.890625 32.71875 
Q 79.890625 40.578125 77.09375 44.375 
Q 74.3125 48.1875 68.609375 48.1875 
Q 61.625 48.1875 57.5625 43.546875 
Q 53.515625 38.921875 53.515625 30.90625 
L 53.515625 0 
L 44.484375 0 
L 44.484375 32.71875 
Q 44.484375 40.625 41.703125 44.40625 
Q 38.921875 48.1875 33.109375 48.1875 
Q 26.21875 48.1875 22.15625 43.53125 
Q 18.109375 38.875 18.109375 30.90625 
L 18.109375 0 
L 9.078125 0 
L 9.078125 54.6875 
L 18.109375 54.6875 
L 18.109375 46.1875 
Q 21.1875 51.21875 25.484375 53.609375 
Q 29.78125 56 35.6875 56 
Q 41.65625 56 45.828125 52.96875 
Q 50 49.953125 52 44.1875 
z
" id="DejaVuSans-6d"/>
      <path d="M 9.421875 54.6875 
L 18.40625 54.6875 
L 18.40625 0 
L 9.421875 0 
z
M 9.421875 75.984375 
L 18.40625 75.984375 
L 18.40625 64.59375 
L 9.421875 64.59375 
z
" id="DejaVuSans-69"/>
      <path d="M 44.28125 53.078125 
L 44.28125 44.578125 
Q 40.484375 46.53125 36.375 47.5 
Q 32.28125 48.484375 27.875 48.484375 
Q 21.1875 48.484375 17.84375 46.4375 
Q 14.5 44.390625 14.5 40.28125 
Q 14.5 37.15625 16.890625 35.375 
Q 19.28125 33.59375 26.515625 31.984375 
L 29.59375 31.296875 
Q 39.15625 29.25 43.1875 25.515625 
Q 47.21875 21.78125 47.21875 15.09375 
Q 47.21875 7.46875 41.1875 3.015625 
Q 35.15625 -1.421875 24.609375 -1.421875 
Q 20.21875 -1.421875 15.453125 -0.5625 
Q 10.6875 0.296875 5.421875 2 
L 5.421875 11.28125 
Q 10.40625 8.6875 15.234375 7.390625 
Q 20.0625 6.109375 24.8125 6.109375 
Q 31.15625 6.109375 34.5625 8.28125 
Q 37.984375 10.453125 37.984375 14.40625 
Q 37.984375 18.0625 35.515625 20.015625 
Q 33.0625 21.96875 24.703125 23.78125 
L 21.578125 24.515625 
Q 13.234375 26.265625 9.515625 29.90625 
Q 5.8125 33.546875 5.8125 39.890625 
Q 5.8125 47.609375 11.28125 51.796875 
Q 16.75 56 26.8125 56 
Q 31.78125 56 36.171875 55.265625 
Q 40.578125 54.546875 44.28125 53.078125 
z
" id="DejaVuSans-73"/>
      <path d="M 30.609375 48.390625 
Q 23.390625 48.390625 19.1875 42.75 
Q 14.984375 37.109375 14.984375 27.296875 
Q 14.984375 17.484375 19.15625 11.84375 
Q 23.34375 6.203125 30.609375 6.203125 
Q 37.796875 6.203125 41.984375 11.859375 
Q 46.1875 17.53125 46.1875 27.296875 
Q 46.1875 37.015625 41.984375 42.703125 
Q 37.796875 48.390625 30.609375 48.390625 
z
M 30.609375 56 
Q 42.328125 56 49.015625 48.375 
Q 55.71875 40.765625 55.71875 27.296875 
Q 55.71875 13.875 49.015625 6.21875 
Q 42.328125 -1.421875 30.609375 -1.421875 
Q 18.84375 -1.421875 12.171875 6.21875 
Q 5.515625 13.875 5.515625 27.296875 
Q 5.515625 40.765625 12.171875 48.375 
Q 18.84375 56 30.609375 56 
z
" id="DejaVuSans-6f"/>
      <path d="M 54.890625 33.015625 
L 54.890625 0 
L 45.90625 0 
L 45.90625 32.71875 
Q 45.90625 40.484375 42.875 44.328125 
Q 39.84375 48.1875 33.796875 48.1875 
Q 26.515625 48.1875 22.3125 43.546875 
Q 18.109375 38.921875 18.109375 30.90625 
L 18.109375 0 
L 9.078125 0 
L 9.078125 54.6875 
L 18.109375 54.6875 
L 18.109375 46.1875 
Q 21.34375 51.125 25.703125 53.5625 
Q 30.078125 56 35.796875 56 
Q 45.21875 56 50.046875 50.171875 
Q 54.890625 44.34375 54.890625 33.015625 
z
" id="DejaVuSans-6e"/>
      <path id="DejaVuSans-20"/>
      <path d="M 25.390625 72.90625 
L 33.6875 72.90625 
L 8.296875 -9.28125 
L 0 -9.28125 
z
" id="DejaVuSans-2f"/>
     </defs>
     <g transform="translate(9.454188 236.862713)rotate(-90)scale(0.1 -0.1)">
      <use xlink:href="#DejaVuSans-45"/>
      <use x="63.183594" xlink:href="#DejaVuSans-6d"/>
      <use x="160.595703" xlink:href="#DejaVuSans-69"/>
      <use x="188.378906" xlink:href="#DejaVuSans-73"/>
      <use x="240.478516" xlink:href="#DejaVuSans-73"/>
      <use x="292.578125" xlink:href="#DejaVuSans-69"/>
      <use x="320.361328" xlink:href="#DejaVuSans-6f"/>
      <use x="381.542969" xlink:href="#DejaVuSans-6e"/>
      <use x="444.921875" xlink:href="#DejaVuSans-73"/>
      <use x="497.021484" xlink:href="#DejaVuSans-20"/>
      <use x="528.808594" xlink:href="#DejaVuSans-2f"/>
      <use x="562.5" xlink:href="#DejaVuSans-20"/>
      <use x="594.287109" xlink:href="#DejaVuSans-6d"/>
      <use x="691.699219" xlink:href="#DejaVuSans-65"/>
      <use x="753.222656" xlink:href="#DejaVuSans-61"/>
      <use x="814.501953" xlink:href="#DejaVuSans-6e"/>
      <use x="877.880859" xlink:href="#DejaVuSans-20"/>
      <use x="909.667969" xlink:href="#DejaVuSans-65"/>
      <use x="971.191406" xlink:href="#DejaVuSans-6d"/>
      <use x="1068.603516" xlink:href="#DejaVuSans-69"/>
      <use x="1096.386719" xlink:href="#DejaVuSans-73"/>
      <use x="1148.486328" xlink:href="#DejaVuSans-73"/>
      <use x="1200.585938" xlink:href="#DejaVuSans-69"/>
      <use x="1228.369141" xlink:href="#DejaVuSans-6f"/>
      <use x="1289.550781" xlink:href="#DejaVuSans-6e"/>
      <use x="1352.929688" xlink:href="#DejaVuSans-73"/>
     </g>
    </g>
   </g>
   <g id="line2d_35">
    <path clip-path="url(#peafc094421)" d="M 44.7995 73.282263 
L 46.578359 56.901089 
L 48.547811 112.314151 
L 50.453731 40.718055 
L 52.423183 65.859132 
L 54.329103 37.96436 
L 56.298555 42.768286 
L 58.268006 77.707281 
L 60.173927 71.124741 
L 62.143378 44.047772 
L 64.049299 45.893087 
L 66.01875 40.747246 
L 67.988201 45.485039 
L 69.767061 55.553186 
L 71.736512 157.702052 
L 73.642432 44.706188 
L 75.611884 52.526376 
L 77.517804 50.224068 
L 79.487256 40.352085 
L 81.456707 53.422782 
L 83.362628 47.854779 
L 85.332079 78.140002 
L 87.238 51.835581 
L 89.207451 72.951567 
L 91.176902 47.526652 
L 92.955762 36.387707 
L 94.925213 125.275843 
L 96.831134 49.167948 
L 98.800585 54.921148 
L 100.706506 85.232467 
L 102.675957 79.132194 
L 104.645408 78.860581 
L 106.551329 67.090896 
L 108.52078 76.868047 
L 110.426701 77.643322 
L 112.396152 61.152549 
L 114.365604 71.112349 
L 116.207994 66.005049 
L 118.177445 69.119832 
L 120.083366 60.082105 
L 122.052817 57.24352 
L 123.958738 52.788952 
L 125.928189 54.104344 
L 127.89764 70.307575 
L 129.803561 67.385851 
L 131.773012 189.573938 
L 133.678933 214.138439 
L 135.648384 93.078026 
L 137.617836 81.291273 
L 139.396695 143.966075 
L 141.366146 197.709304 
L 143.272067 101.488188 
L 145.241518 133.303016 
L 147.147439 197.305116 
L 149.11689 193.226892 
L 151.086342 259.490647 
L 152.992262 231.993411 
L 154.961714 258.819768 
L 156.867634 272.374843 
L 158.837086 285.09722 
L 160.806537 281.260247 
L 162.585396 283.729755 
L 164.554847 270.814103 
L 166.460768 296.840843 
L 168.430219 288.297208 
L 170.33614 288.237945 
L 172.305591 250.303479 
L 174.275043 240.661351 
L 176.180963 225.192515 
L 178.150415 229.287438 
L 180.056335 253.650348 
L 182.025787 258.291244 
L 183.995238 274.093258 
L 185.774097 217.534172 
L 187.743549 247.837174 
L 189.649469 250.302528 
L 191.618921 233.429086 
L 193.524841 235.636729 
L 195.494293 238.12134 
L 197.463744 245.170528 
L 199.369665 259.907934 
L 201.339116 255.159249 
L 203.245037 257.751995 
L 205.214488 268.728519 
L 207.183939 247.99212 
L 209.026329 241.66697 
L 210.995781 254.021928 
L 212.901701 232.51104 
L 214.871153 247.936976 
L 216.777073 255.736703 
L 218.746525 247.426727 
L 220.715976 227.359163 
L 222.621897 231.079843 
L 224.591348 238.896471 
L 226.497269 236.140026 
L 228.46672 237.303201 
L 230.436171 228.746036 
L 232.215031 189.802384 
L 234.184482 237.967712 
L 236.090403 249.784899 
L 238.059854 233.544499 
L 239.965775 247.270044 
L 241.935226 217.347725 
L 243.904677 230.054084 
L 245.810598 247.893084 
L 247.780049 234.761197 
L 249.68597 240.47229 
L 251.655421 220.350775 
L 253.624873 211.378288 
L 255.403732 211.735198 
L 257.373183 246.452501 
L 259.279104 263.813926 
L 261.248555 248.25629 
L 263.154476 230.728324 
L 265.123927 252.947128 
L 267.093378 253.049406 
L 268.999299 227.033068 
L 270.96875 238.666922 
L 272.874671 242.471198 
L 274.844122 237.583622 
L 276.813574 214.053682 
L 278.592433 211.241787 
L 280.561884 181.738191 
L 282.467805 211.407464 
L 284.437256 235.456338 
L 286.343177 232.782638 
L 288.312628 221.946258 
L 290.28208 232.859351 
L 292.188 232.138506 
L 294.157452 270.130159 
L 296.063372 248.624492 
L 298.032824 244.634148 
L 300.002275 229.456695 
L 301.844665 246.143612 
L 303.814116 259.271561 
L 305.720037 257.85925 
L 307.689488 247.654703 
L 309.595409 251.634344 
L 311.56486 238.62365 
L 313.534312 279.214134 
L 315.440232 250.866846 
L 317.409684 248.710755 
L 319.315604 224.039702 
L 321.285056 229.511661 
L 323.254507 216.011075 
L 325.033366 194.959262 
L 327.002818 237.377888 
L 328.908738 224.233999 
L 330.87819 221.254333 
L 332.78411 234.127803 
L 334.753562 217.735025 
L 336.723013 220.819998 
L 338.628934 217.003243 
L 340.598385 221.543647 
L 342.504305 236.765476 
L 344.473757 229.373425 
L 346.443208 244.807128 
L 348.222067 220.90789 
L 352.097439 248.137334 
L 354.066891 256.682892 
L 355.972811 224.799825 
L 357.942263 235.950726 
L 359.911714 233.80445 
L 361.817635 248.084864 
L 365.693007 272.238294 
L 367.662458 267.684949 
L 369.631909 249.872261 
L 371.410769 268.041127 
L 373.38022 259.80629 
L 375.286141 255.394785 
L 377.255592 261.550818 
L 379.161513 256.839094 
L 381.130964 227.44928 
L 383.100415 249.768437 
L 385.006336 245.745974 
L 386.975787 249.634494 
L 388.881708 248.769088 
L 390.851159 249.429397 
L 392.820611 248.923039 
L 394.663001 255.627277 
L 396.632452 285.102668 
L 398.538373 273.033378 
L 400.507824 240.288884 
L 402.413745 231.928787 
L 404.383196 238.30115 
L 406.352647 222.219501 
L 408.258568 215.019126 
L 410.228019 238.580314 
L 412.13394 248.901545 
L 414.103391 235.841572 
L 416.072843 236.196364 
L 417.851702 230.827347 
L 419.821153 265.24046 
L 421.727074 290.122086 
L 423.696525 284.169458 
L 425.602446 268.739957 
L 427.571897 228.182792 
L 429.541348 220.63718 
L 431.447269 230.858916 
L 433.41672 251.867387 
L 435.322641 251.782809 
L 437.292092 235.867127 
L 439.261544 212.73602 
L 441.040403 207.740028 
L 443.009854 206.23259 
L 443.009854 206.23259 
" style="fill:none;stroke:#1f77b4;stroke-linecap:square;stroke-width:1.5;"/>
   </g>
   <g id="line2d_36">
    <path clip-path="url(#peafc094421)" d="M 44.7995 116.65221 
L 46.578359 104.849391 
L 48.547811 157.571511 
L 50.453731 85.625089 
L 52.423183 126.057206 
L 54.329103 115.907106 
L 56.298555 107.908741 
L 58.268006 121.979547 
L 60.173927 103.774926 
L 62.143378 79.131128 
L 64.049299 79.014351 
L 66.01875 98.157882 
L 67.988201 104.705764 
L 69.767061 114.488825 
L 71.736512 192.002159 
L 73.642432 93.027787 
L 75.611884 88.483151 
L 77.517804 100.452662 
L 79.487256 98.552056 
L 81.456707 125.810516 
L 83.362628 111.304551 
L 85.332079 135.520016 
L 87.238 121.447732 
L 89.207451 135.133336 
L 91.176902 120.826701 
L 92.955762 109.312603 
L 94.925213 184.918328 
L 96.831134 122.517597 
L 98.800585 110.375192 
L 100.706506 125.134966 
L 102.675957 113.276538 
L 104.645408 108.691362 
L 106.551329 92.332985 
L 108.52078 112.930101 
L 110.426701 127.602712 
L 112.396152 110.302776 
L 114.365604 129.02747 
L 116.207994 143.317319 
L 118.177445 142.942916 
L 120.083366 135.06844 
L 122.052817 111.977659 
L 123.958738 109.41389 
L 125.928189 116.768641 
L 127.89764 130.176096 
L 129.803561 142.298064 
L 131.773012 220.342229 
L 133.678933 237.339378 
L 135.648384 162.494668 
L 137.617836 173.892697 
L 139.396695 219.017675 
L 141.366146 275.084988 
L 143.272067 225.320366 
L 145.241518 229.532068 
L 147.147439 223.152153 
L 149.11689 219.223809 
L 151.086342 257.242449 
L 152.992262 230.268222 
L 154.961714 221.955304 
L 156.867634 237.394744 
L 158.837086 224.9688 
L 160.806537 226.799209 
L 162.585396 228.727971 
L 164.554847 225.908808 
L 166.460768 269.867511 
L 168.430219 247.957182 
L 170.33614 232.587143 
L 172.305591 233.418002 
L 176.180963 205.797184 
L 178.150415 208.139917 
L 180.056335 218.592746 
L 182.025787 218.747453 
L 183.995238 225.111358 
L 185.774097 197.375222 
L 187.743549 217.447832 
L 189.649469 234.859389 
L 191.618921 198.740379 
L 193.524841 206.123557 
L 195.494293 208.780468 
L 197.463744 207.225043 
L 199.369665 215.053771 
L 201.339116 209.751329 
L 203.245037 219.807491 
L 205.214488 214.922766 
L 207.183939 217.143564 
L 209.026329 214.59116 
L 210.995781 233.948758 
L 212.901701 214.95884 
L 214.871153 223.552016 
L 216.777073 214.905116 
L 218.746525 217.07814 
L 220.715976 210.510641 
L 222.621897 226.930279 
L 224.591348 236.304953 
L 226.497269 210.959323 
L 228.46672 221.644113 
L 230.436171 228.279566 
L 232.215031 214.656497 
L 234.184482 245.68164 
L 236.090403 258.947282 
L 238.059854 235.532656 
L 239.965775 229.623026 
L 241.935226 227.640028 
L 243.904677 221.764323 
L 245.810598 233.647893 
L 247.780049 215.914969 
L 249.68597 229.387769 
L 251.655421 220.280133 
L 253.624873 210.395793 
L 255.403732 196.650673 
L 257.373183 238.287787 
L 259.279104 257.755413 
L 261.248555 226.3925 
L 263.154476 213.317925 
L 265.123927 219.223338 
L 267.093378 209.460096 
L 268.999299 206.426489 
L 270.96875 220.886925 
L 272.874671 220.562585 
L 274.844122 216.085304 
L 276.813574 214.63549 
L 278.592433 210.887534 
L 280.561884 220.915376 
L 282.467805 216.806344 
L 284.437256 220.54561 
L 286.343177 227.077022 
L 288.312628 202.442487 
L 290.28208 205.286582 
L 292.188 209.108669 
L 294.157452 245.948488 
L 296.063372 220.859419 
L 298.032824 204.175373 
L 300.002275 205.186502 
L 301.844665 206.746782 
L 303.814116 221.437947 
L 305.720037 226.606182 
L 307.689488 213.417653 
L 309.595409 209.464765 
L 311.56486 216.692249 
L 313.534312 219.601081 
L 315.440232 226.397639 
L 317.409684 206.004072 
L 319.315604 224.802404 
L 321.285056 213.744164 
L 323.254507 211.189007 
L 325.033366 206.023001 
L 327.002818 232.915958 
L 328.908738 210.001454 
L 330.87819 198.58564 
L 332.78411 195.137499 
L 334.753562 199.464497 
L 336.723013 213.23417 
L 338.628934 197.420232 
L 340.598385 210.176271 
L 342.504305 208.794141 
L 344.473757 198.873669 
L 346.443208 204.030291 
L 348.222067 202.443294 
L 352.097439 242.163821 
L 354.066891 246.785341 
L 355.972811 218.228325 
L 357.942263 198.598874 
L 359.911714 209.174639 
L 361.817635 216.177289 
L 363.787086 227.743692 
L 365.693007 236.755745 
L 369.631909 227.343744 
L 371.410769 239.93342 
L 373.38022 235.692736 
L 377.255592 220.740039 
L 379.161513 210.367979 
L 381.130964 203.852656 
L 383.100415 230.118534 
L 385.006336 207.985606 
L 386.975787 219.661442 
L 388.881708 222.983597 
L 390.851159 220.226829 
L 392.820611 219.463099 
L 394.663001 220.797799 
L 396.632452 270.133741 
L 398.538373 262.629367 
L 400.507824 232.49206 
L 402.413745 222.618455 
L 404.383196 219.879274 
L 406.352647 205.771488 
L 408.258568 213.53827 
L 410.228019 222.740674 
L 412.13394 251.774786 
L 414.103391 215.692366 
L 416.072843 232.429833 
L 417.851702 222.940096 
L 421.727074 274.359379 
L 423.696525 269.165252 
L 425.602446 260.426723 
L 427.571897 231.473612 
L 429.541348 212.461308 
L 431.447269 221.499678 
L 433.41672 250.046477 
L 435.322641 244.827929 
L 437.292092 239.863816 
L 439.261544 230.306196 
L 441.040403 218.529636 
L 443.009854 216.025947 
L 443.009854 216.025947 
" style="fill:none;stroke:#ff7f0e;stroke-linecap:square;stroke-width:1.5;"/>
   </g>
   <g id="line2d_37">
    <path clip-path="url(#peafc094421)" d="M 44.7995 237.69958 
L 46.578359 229.686568 
L 48.547811 252.368189 
L 50.453731 226.155142 
L 52.423183 236.303295 
L 54.329103 226.663551 
L 56.298555 227.275047 
L 58.268006 239.682646 
L 60.173927 237.265224 
L 62.143378 229.511192 
L 64.049299 230.066986 
L 66.01875 230.224261 
L 69.767061 235.448011 
L 71.736512 268.567313 
L 73.642432 230.21888 
L 75.611884 231.899667 
L 77.517804 231.517015 
L 79.487256 228.635711 
L 81.456707 230.384863 
L 83.362628 228.548532 
L 85.332079 238.643118 
L 87.238 230.054758 
L 89.207451 237.007524 
L 91.176902 228.68598 
L 92.955762 224.887195 
L 94.925213 257.03541 
L 96.831134 230.547174 
L 98.800585 231.696112 
L 100.706506 239.984299 
L 102.675957 229.774724 
L 104.645408 230.053701 
L 106.551329 224.327759 
L 108.52078 229.239386 
L 110.426701 230.754467 
L 112.396152 227.053141 
L 114.365604 228.918208 
L 116.207994 227.975105 
L 118.177445 227.195169 
L 120.083366 225.760237 
L 122.052817 224.587077 
L 123.958738 224.947596 
L 125.928189 225.888834 
L 127.89764 230.758969 
L 129.803561 230.846952 
L 131.773012 277.330006 
L 133.678933 283.978648 
L 135.648384 236.314822 
L 137.617836 229.903932 
L 139.396695 254.739588 
L 141.366146 277.731106 
L 143.272067 234.666531 
L 145.241518 232.512028 
L 147.147439 228.125655 
L 149.11689 225.204406 
L 151.086342 262.811102 
L 152.992262 232.577322 
L 154.961714 223.413001 
L 156.867634 238.57834 
L 158.837086 231.690662 
L 160.806537 229.5658 
L 162.585396 232.287997 
L 164.554847 228.696366 
L 166.460768 268.863022 
L 168.430219 250.345572 
L 170.33614 236.193903 
L 172.305591 238.505321 
L 174.275043 222.868073 
L 176.180963 182.135935 
L 178.150415 172.79274 
L 180.056335 201.592345 
L 182.025787 200.725922 
L 183.995238 233.323007 
L 185.774097 179.566254 
L 187.743549 190.036699 
L 189.649469 210.987243 
L 191.618921 177.347276 
L 195.494293 187.385647 
L 197.463744 190.081801 
L 199.369665 195.438297 
L 201.339116 187.060954 
L 203.245037 194.176465 
L 205.214488 192.796534 
L 207.183939 200.840926 
L 209.026329 193.928018 
L 210.995781 203.300521 
L 212.901701 195.023499 
L 214.871153 210.164213 
L 216.777073 194.178141 
L 218.746525 195.5678 
L 220.715976 190.198714 
L 222.621897 203.455764 
L 224.591348 210.867208 
L 226.497269 186.821034 
L 228.46672 195.582852 
L 230.436171 205.344513 
L 232.215031 189.291442 
L 234.184482 218.891043 
L 236.090403 233.243532 
L 238.059854 202.658945 
L 239.965775 197.889475 
L 241.935226 204.060928 
L 243.904677 194.491573 
L 245.810598 209.494815 
L 247.780049 188.070553 
L 249.68597 216.114426 
L 251.655421 177.537501 
L 255.403732 148.988692 
L 257.373183 181.574723 
L 259.279104 203.881871 
L 261.248555 178.029265 
L 263.154476 151.082015 
L 265.123927 149.835331 
L 267.093378 155.926116 
L 268.999299 147.545476 
L 270.96875 173.0313 
L 272.874671 178.662575 
L 274.844122 160.326645 
L 276.813574 155.326336 
L 278.592433 148.640116 
L 280.561884 162.736589 
L 282.467805 171.582487 
L 284.437256 177.142147 
L 286.343177 175.970552 
L 288.312628 150.206884 
L 290.28208 151.182365 
L 292.188 153.929604 
L 294.157452 190.674349 
L 296.063372 165.313419 
L 298.032824 146.260183 
L 300.002275 152.091946 
L 301.844665 153.091308 
L 303.814116 199.09218 
L 305.720037 217.388072 
L 307.689488 174.247534 
L 309.595409 158.750166 
L 311.56486 194.596623 
L 313.534312 190.715639 
L 315.440232 205.150373 
L 317.409684 155.814579 
L 319.315604 181.127895 
L 321.285056 160.307342 
L 323.254507 156.037101 
L 325.033366 153.569875 
L 327.002818 173.462573 
L 328.908738 161.753778 
L 330.87819 146.026839 
L 332.78411 140.203823 
L 334.753562 142.22045 
L 336.723013 156.742924 
L 338.628934 143.633011 
L 340.598385 183.197773 
L 342.504305 154.965504 
L 344.473757 158.699499 
L 346.443208 153.908429 
L 348.222067 158.093399 
L 350.191519 169.379132 
L 352.097439 190.462709 
L 354.066891 194.061965 
L 355.972811 162.395362 
L 357.942263 138.75698 
L 359.911714 147.672555 
L 361.817635 158.605316 
L 363.787086 191.286465 
L 365.693007 204.713959 
L 367.662458 181.867078 
L 369.631909 165.425006 
L 371.410769 186.35416 
L 373.38022 196.266978 
L 377.255592 166.299691 
L 379.161513 159.37888 
L 381.130964 150.136655 
L 383.100415 175.223555 
L 385.006336 158.013533 
L 386.975787 176.582963 
L 388.881708 179.573469 
L 390.851159 181.445149 
L 392.820611 173.479954 
L 394.663001 186.341903 
L 396.632452 236.397482 
L 398.538373 234.559044 
L 400.507824 191.830212 
L 402.413745 163.84623 
L 404.383196 160.233621 
L 406.352647 144.612913 
L 408.258568 154.103816 
L 410.228019 185.063744 
L 412.13394 225.493993 
L 414.103391 171.600303 
L 416.072843 196.034488 
L 417.851702 168.318712 
L 419.821153 193.234674 
L 421.727074 239.652145 
L 423.696525 234.435247 
L 425.602446 212.392784 
L 427.571897 172.167532 
L 429.541348 153.364009 
L 431.447269 171.665844 
L 433.41672 230.40128 
L 435.322641 203.318455 
L 437.292092 185.79684 
L 439.261544 182.530962 
L 441.040403 166.511181 
L 443.009854 169.970492 
L 443.009854 169.970492 
" style="fill:none;stroke:#2ca02c;stroke-linecap:square;stroke-width:1.5;"/>
   </g>
   <g id="patch_3">
    <path d="M 44.7995 309.8635 
L 44.7995 23.36505 
" style="fill:none;stroke:#000000;stroke-linecap:square;stroke-linejoin:miter;stroke-width:0.8;"/>
   </g>
   <g id="patch_4">
    <path d="M 443.009854 309.8635 
L 443.009854 23.36505 
" style="fill:none;stroke:#000000;stroke-linecap:square;stroke-linejoin:miter;stroke-width:0.8;"/>
   </g>
   <g id="patch_5">
    <path d="M 44.7995 309.8635 
L 443.009854 309.8635 
" style="fill:none;stroke:#000000;stroke-linecap:square;stroke-linejoin:miter;stroke-width:0.8;"/>
   </g>
   <g id="patch_6">
    <path d="M 44.7995 23.36505 
L 443.009854 23.36505 
" style="fill:none;stroke:#000000;stroke-linecap:square;stroke-linejoin:miter;stroke-width:0.8;"/>
   </g>
   <g id="text_20">
    <!-- Average monthly normalized emissions -->
    <defs>
     <path d="M 34.1875 63.1875 
L 20.796875 26.90625 
L 47.609375 26.90625 
z
M 28.609375 72.90625 
L 39.796875 72.90625 
L 67.578125 0 
L 57.328125 0 
L 50.6875 18.703125 
L 17.828125 18.703125 
L 11.1875 0 
L 0.78125 0 
z
" id="DejaVuSans-41"/>
     <path d="M 2.984375 54.6875 
L 12.5 54.6875 
L 29.59375 8.796875 
L 46.6875 54.6875 
L 56.203125 54.6875 
L 35.6875 0 
L 23.484375 0 
z
" id="DejaVuSans-76"/>
     <path d="M 41.109375 46.296875 
Q 39.59375 47.171875 37.8125 47.578125 
Q 36.03125 48 33.890625 48 
Q 26.265625 48 22.1875 43.046875 
Q 18.109375 38.09375 18.109375 28.8125 
L 18.109375 0 
L 9.078125 0 
L 9.078125 54.6875 
L 18.109375 54.6875 
L 18.109375 46.1875 
Q 20.953125 51.171875 25.484375 53.578125 
Q 30.03125 56 36.53125 56 
Q 37.453125 56 38.578125 55.875 
Q 39.703125 55.765625 41.0625 55.515625 
z
" id="DejaVuSans-72"/>
     <path d="M 45.40625 27.984375 
Q 45.40625 37.75 41.375 43.109375 
Q 37.359375 48.484375 30.078125 48.484375 
Q 22.859375 48.484375 18.828125 43.109375 
Q 14.796875 37.75 14.796875 27.984375 
Q 14.796875 18.265625 18.828125 12.890625 
Q 22.859375 7.515625 30.078125 7.515625 
Q 37.359375 7.515625 41.375 12.890625 
Q 45.40625 18.265625 45.40625 27.984375 
z
M 54.390625 6.78125 
Q 54.390625 -7.171875 48.1875 -13.984375 
Q 42 -20.796875 29.203125 -20.796875 
Q 24.46875 -20.796875 20.265625 -20.09375 
Q 16.0625 -19.390625 12.109375 -17.921875 
L 12.109375 -9.1875 
Q 16.0625 -11.328125 19.921875 -12.34375 
Q 23.78125 -13.375 27.78125 -13.375 
Q 36.625 -13.375 41.015625 -8.765625 
Q 45.40625 -4.15625 45.40625 5.171875 
L 45.40625 9.625 
Q 42.625 4.78125 38.28125 2.390625 
Q 33.9375 0 27.875 0 
Q 17.828125 0 11.671875 7.65625 
Q 5.515625 15.328125 5.515625 27.984375 
Q 5.515625 40.671875 11.671875 48.328125 
Q 17.828125 56 27.875 56 
Q 33.9375 56 38.28125 53.609375 
Q 42.625 51.21875 45.40625 46.390625 
L 45.40625 54.6875 
L 54.390625 54.6875 
z
" id="DejaVuSans-67"/>
     <path d="M 54.890625 33.015625 
L 54.890625 0 
L 45.90625 0 
L 45.90625 32.71875 
Q 45.90625 40.484375 42.875 44.328125 
Q 39.84375 48.1875 33.796875 48.1875 
Q 26.515625 48.1875 22.3125 43.546875 
Q 18.109375 38.921875 18.109375 30.90625 
L 18.109375 0 
L 9.078125 0 
L 9.078125 75.984375 
L 18.109375 75.984375 
L 18.109375 46.1875 
Q 21.34375 51.125 25.703125 53.5625 
Q 30.078125 56 35.796875 56 
Q 45.21875 56 50.046875 50.171875 
Q 54.890625 44.34375 54.890625 33.015625 
z
" id="DejaVuSans-68"/>
     <path d="M 9.421875 75.984375 
L 18.40625 75.984375 
L 18.40625 0 
L 9.421875 0 
z
" id="DejaVuSans-6c"/>
     <path d="M 32.171875 -5.078125 
Q 28.375 -14.84375 24.75 -17.8125 
Q 21.140625 -20.796875 15.09375 -20.796875 
L 7.90625 -20.796875 
L 7.90625 -13.28125 
L 13.1875 -13.28125 
Q 16.890625 -13.28125 18.9375 -11.515625 
Q 21 -9.765625 23.484375 -3.21875 
L 25.09375 0.875 
L 2.984375 54.6875 
L 12.5 54.6875 
L 29.59375 11.921875 
L 46.6875 54.6875 
L 56.203125 54.6875 
z
" id="DejaVuSans-79"/>
     <path d="M 5.515625 54.6875 
L 48.1875 54.6875 
L 48.1875 46.484375 
L 14.40625 7.171875 
L 48.1875 7.171875 
L 48.1875 0 
L 4.296875 0 
L 4.296875 8.203125 
L 38.09375 47.515625 
L 5.515625 47.515625 
z
" id="DejaVuSans-7a"/>
     <path d="M 45.40625 46.390625 
L 45.40625 75.984375 
L 54.390625 75.984375 
L 54.390625 0 
L 45.40625 0 
L 45.40625 8.203125 
Q 42.578125 3.328125 38.25 0.953125 
Q 33.9375 -1.421875 27.875 -1.421875 
Q 17.96875 -1.421875 11.734375 6.484375 
Q 5.515625 14.40625 5.515625 27.296875 
Q 5.515625 40.1875 11.734375 48.09375 
Q 17.96875 56 27.875 56 
Q 33.9375 56 38.25 53.625 
Q 42.578125 51.265625 45.40625 46.390625 
z
M 14.796875 27.296875 
Q 14.796875 17.390625 18.875 11.75 
Q 22.953125 6.109375 30.078125 6.109375 
Q 37.203125 6.109375 41.296875 11.75 
Q 45.40625 17.390625 45.40625 27.296875 
Q 45.40625 37.203125 41.296875 42.84375 
Q 37.203125 48.484375 30.078125 48.484375 
Q 22.953125 48.484375 18.875 42.84375 
Q 14.796875 37.203125 14.796875 27.296875 
z
" id="DejaVuSans-64"/>
    </defs>
    <g transform="translate(125.340927 17.36505)scale(0.12 -0.12)">
     <use xlink:href="#DejaVuSans-41"/>
     <use x="68.330078" xlink:href="#DejaVuSans-76"/>
     <use x="127.509766" xlink:href="#DejaVuSans-65"/>
     <use x="189.033203" xlink:href="#DejaVuSans-72"/>
     <use x="230.146484" xlink:href="#DejaVuSans-61"/>
     <use x="291.425781" xlink:href="#DejaVuSans-67"/>
     <use x="354.902344" xlink:href="#DejaVuSans-65"/>
     <use x="416.425781" xlink:href="#DejaVuSans-20"/>
     <use x="448.212891" xlink:href="#DejaVuSans-6d"/>
     <use x="545.625" xlink:href="#DejaVuSans-6f"/>
     <use x="606.806641" xlink:href="#DejaVuSans-6e"/>
     <use x="670.185547" xlink:href="#DejaVuSans-74"/>
     <use x="709.394531" xlink:href="#DejaVuSans-68"/>
     <use x="772.773438" xlink:href="#DejaVuSans-6c"/>
     <use x="800.556641" xlink:href="#DejaVuSans-79"/>
     <use x="859.736328" xlink:href="#DejaVuSans-20"/>
     <use x="891.523438" xlink:href="#DejaVuSans-6e"/>
     <use x="954.902344" xlink:href="#DejaVuSans-6f"/>
     <use x="1016.083984" xlink:href="#DejaVuSans-72"/>
     <use x="1057.181641" xlink:href="#DejaVuSans-6d"/>
     <use x="1154.59375" xlink:href="#DejaVuSans-61"/>
     <use x="1215.873047" xlink:href="#DejaVuSans-6c"/>
     <use x="1243.65625" xlink:href="#DejaVuSans-69"/>
     <use x="1271.439453" xlink:href="#DejaVuSans-7a"/>
     <use x="1323.929688" xlink:href="#DejaVuSans-65"/>
     <use x="1385.453125" xlink:href="#DejaVuSans-64"/>
     <use x="1448.929688" xlink:href="#DejaVuSans-20"/>
     <use x="1480.716797" xlink:href="#DejaVuSans-65"/>
     <use x="1542.240234" xlink:href="#DejaVuSans-6d"/>
     <use x="1639.652344" xlink:href="#DejaVuSans-69"/>
     <use x="1667.435547" xlink:href="#DejaVuSans-73"/>
     <use x="1719.535156" xlink:href="#DejaVuSans-73"/>
     <use x="1771.634766" xlink:href="#DejaVuSans-69"/>
     <use x="1799.417969" xlink:href="#DejaVuSans-6f"/>
     <use x="1860.599609" xlink:href="#DejaVuSans-6e"/>
     <use x="1923.978516" xlink:href="#DejaVuSans-73"/>
    </g>
   </g>
   <g id="legend_1">
    <g id="patch_7">
     <path d="M 382.737979 75.399425 
L 436.009854 75.399425 
Q 438.009854 75.399425 438.009854 73.399425 
L 438.009854 30.36505 
Q 438.009854 28.36505 436.009854 28.36505 
L 382.737979 28.36505 
Q 380.737979 28.36505 380.737979 30.36505 
L 380.737979 73.399425 
Q 380.737979 75.399425 382.737979 75.399425 
z
" style="fill:#ffffff;opacity:0.8;stroke:#cccccc;stroke-linejoin:miter;"/>
    </g>
    <g id="line2d_38">
     <path d="M 384.737979 36.463488 
L 404.737979 36.463488 
" style="fill:none;stroke:#1f77b4;stroke-linecap:square;stroke-width:1.5;"/>
    </g>
    <g id="line2d_39"/>
    <g id="text_21">
     <!-- SOx -->
     <defs>
      <path d="M 53.515625 70.515625 
L 53.515625 60.890625 
Q 47.90625 63.578125 42.921875 64.890625 
Q 37.9375 66.21875 33.296875 66.21875 
Q 25.25 66.21875 20.875 63.09375 
Q 16.5 59.96875 16.5 54.203125 
Q 16.5 49.359375 19.40625 46.890625 
Q 22.3125 44.4375 30.421875 42.921875 
L 36.375 41.703125 
Q 47.40625 39.59375 52.65625 34.296875 
Q 57.90625 29 57.90625 20.125 
Q 57.90625 9.515625 50.796875 4.046875 
Q 43.703125 -1.421875 29.984375 -1.421875 
Q 24.8125 -1.421875 18.96875 -0.25 
Q 13.140625 0.921875 6.890625 3.21875 
L 6.890625 13.375 
Q 12.890625 10.015625 18.65625 8.296875 
Q 24.421875 6.59375 29.984375 6.59375 
Q 38.421875 6.59375 43.015625 9.90625 
Q 47.609375 13.234375 47.609375 19.390625 
Q 47.609375 24.75 44.3125 27.78125 
Q 41.015625 30.8125 33.5 32.328125 
L 27.484375 33.5 
Q 16.453125 35.6875 11.515625 40.375 
Q 6.59375 45.0625 6.59375 53.421875 
Q 6.59375 63.09375 13.40625 68.65625 
Q 20.21875 74.21875 32.171875 74.21875 
Q 37.3125 74.21875 42.625 73.28125 
Q 47.953125 72.359375 53.515625 70.515625 
z
" id="DejaVuSans-53"/>
      <path d="M 39.40625 66.21875 
Q 28.65625 66.21875 22.328125 58.203125 
Q 16.015625 50.203125 16.015625 36.375 
Q 16.015625 22.609375 22.328125 14.59375 
Q 28.65625 6.59375 39.40625 6.59375 
Q 50.140625 6.59375 56.421875 14.59375 
Q 62.703125 22.609375 62.703125 36.375 
Q 62.703125 50.203125 56.421875 58.203125 
Q 50.140625 66.21875 39.40625 66.21875 
z
M 39.40625 74.21875 
Q 54.734375 74.21875 63.90625 63.9375 
Q 73.09375 53.65625 73.09375 36.375 
Q 73.09375 19.140625 63.90625 8.859375 
Q 54.734375 -1.421875 39.40625 -1.421875 
Q 24.03125 -1.421875 14.8125 8.828125 
Q 5.609375 19.09375 5.609375 36.375 
Q 5.609375 53.65625 14.8125 63.9375 
Q 24.03125 74.21875 39.40625 74.21875 
z
" id="DejaVuSans-4f"/>
      <path d="M 54.890625 54.6875 
L 35.109375 28.078125 
L 55.90625 0 
L 45.3125 0 
L 29.390625 21.484375 
L 13.484375 0 
L 2.875 0 
L 24.125 28.609375 
L 4.6875 54.6875 
L 15.28125 54.6875 
L 29.78125 35.203125 
L 44.28125 54.6875 
z
" id="DejaVuSans-78"/>
     </defs>
     <g transform="translate(412.737979 39.963488)scale(0.1 -0.1)">
      <use xlink:href="#DejaVuSans-53"/>
      <use x="63.476562" xlink:href="#DejaVuSans-4f"/>
      <use x="142.1875" xlink:href="#DejaVuSans-78"/>
     </g>
    </g>
    <g id="line2d_40">
     <path d="M 384.737979 51.141613 
L 404.737979 51.141613 
" style="fill:none;stroke:#ff7f0e;stroke-linecap:square;stroke-width:1.5;"/>
    </g>
    <g id="line2d_41"/>
    <g id="text_22">
     <!-- NOx -->
     <defs>
      <path d="M 9.8125 72.90625 
L 23.09375 72.90625 
L 55.421875 11.921875 
L 55.421875 72.90625 
L 64.984375 72.90625 
L 64.984375 0 
L 51.703125 0 
L 19.390625 60.984375 
L 19.390625 0 
L 9.8125 0 
z
" id="DejaVuSans-4e"/>
     </defs>
     <g transform="translate(412.737979 54.641613)scale(0.1 -0.1)">
      <use xlink:href="#DejaVuSans-4e"/>
      <use x="74.804688" xlink:href="#DejaVuSans-4f"/>
      <use x="153.515625" xlink:href="#DejaVuSans-78"/>
     </g>
    </g>
    <g id="line2d_42">
     <path d="M 384.737979 65.819738 
L 404.737979 65.819738 
" style="fill:none;stroke:#2ca02c;stroke-linecap:square;stroke-width:1.5;"/>
    </g>
    <g id="line2d_43"/>
    <g id="text_23">
     <!-- CO2 -->
     <defs>
      <path d="M 64.40625 67.28125 
L 64.40625 56.890625 
Q 59.421875 61.53125 53.78125 63.8125 
Q 48.140625 66.109375 41.796875 66.109375 
Q 29.296875 66.109375 22.65625 58.46875 
Q 16.015625 50.828125 16.015625 36.375 
Q 16.015625 21.96875 22.65625 14.328125 
Q 29.296875 6.6875 41.796875 6.6875 
Q 48.140625 6.6875 53.78125 8.984375 
Q 59.421875 11.28125 64.40625 15.921875 
L 64.40625 5.609375 
Q 59.234375 2.09375 53.4375 0.328125 
Q 47.65625 -1.421875 41.21875 -1.421875 
Q 24.65625 -1.421875 15.125 8.703125 
Q 5.609375 18.84375 5.609375 36.375 
Q 5.609375 53.953125 15.125 64.078125 
Q 24.65625 74.21875 41.21875 74.21875 
Q 47.75 74.21875 53.53125 72.484375 
Q 59.328125 70.75 64.40625 67.28125 
z
" id="DejaVuSans-43"/>
     </defs>
     <g transform="translate(412.737979 69.319738)scale(0.1 -0.1)">
      <use xlink:href="#DejaVuSans-43"/>
      <use x="69.824219" xlink:href="#DejaVuSans-4f"/>
      <use x="148.535156" xlink:href="#DejaVuSans-32"/>
     </g>
    </g>
   </g>
  </g>
 </g>
 <defs>
  <clipPath id="peafc094421">
   <rect height="286.49845" width="398.210354" x="44.7995" y="23.36505"/>
  </clipPath>
 </defs>
</svg>
