<?xml version="1.0" encoding="utf-8" standalone="no"?>
<!DOCTYPE svg PUBLIC "-//W3C//DTD SVG 1.1//EN"
  "http://www.w3.org/Graphics/SVG/1.1/DTD/svg11.dtd">
<!-- Created with matplotlib (http://matplotlib.org/) -->
<svg height="345.6pt" version="1.1" viewBox="0 0 460.8 345.6" width="460.8pt" xmlns="http://www.w3.org/2000/svg" xmlns:xlink="http://www.w3.org/1999/xlink">
 <defs>
  <style type="text/css">
*{stroke-linecap:butt;stroke-linejoin:round;}
  </style>
 </defs>
 <g id="figure_1">
  <g id="patch_1">
   <path d="M 0 345.6 
L 460.8 345.6 
L 460.8 0 
L 0 0 
z
" style="fill:none;"/>
  </g>
  <g id="axes_1">
   <g id="patch_2">
    <path d="M 36.124 309.8635 
L 447.48 309.8635 
L 447.48 23.36505 
L 36.124 23.36505 
z
" style="fill:none;"/>
   </g>
   <g id="PolyCollection_1">
    <path clip-path="url(#pd70ca2e146)" d="M 36.124 50.114437 
L 36.124 185.23161 
L 38.158466 243.13897 
L 39.996049 182.61029 
L 42.030516 127.085949 
L 43.999354 183.801799 
L 46.033821 178.797459 
L 48.002659 214.066139 
L 50.037126 163.069534 
L 52.071592 189.044441 
L 54.040431 189.759346 
L 56.074897 232.653687 
L 58.043736 233.368593 
L 60.078202 229.079159 
L 62.112669 193.333875 
L 63.950251 201.674441 
L 65.984718 211.921422 
L 67.953556 214.542743 
L 69.988023 245.283687 
L 71.956862 224.789724 
L 73.991328 172.363308 
L 76.025795 203.342554 
L 77.994633 226.69614 
L 80.0291 193.095573 
L 81.997938 207.87029 
L 84.032405 198.338214 
L 86.066871 192.857271 
L 87.904454 191.665761 
L 89.93892 213.112932 
L 91.907759 240.041046 
L 93.942225 248.619914 
L 95.911064 160.924817 
L 97.94553 245.998593 
L 99.979997 210.491611 
L 101.948835 248.14331 
L 103.983302 266.969159 
L 105.95214 226.934441 
L 107.986607 202.151045 
L 110.021073 184.040101 
L 111.924284 159.018402 
L 113.95875 239.087838 
L 115.927589 246.9518 
L 117.962056 224.313121 
L 119.930894 223.359913 
L 121.965361 160.448214 
L 123.999827 239.564442 
L 125.968666 213.827837 
L 128.003132 167.835572 
L 129.971971 141.860666 
L 132.006437 205.725573 
L 134.040904 200.006328 
L 135.878486 121.605005 
L 137.912953 280.314065 
L 139.881791 195.716894 
L 141.916258 179.274063 
L 143.885096 120.890099 
L 145.919563 143.767081 
L 147.954029 134.235005 
L 149.922868 234.3218 
L 151.957334 142.575572 
L 153.926173 156.397081 
L 155.960639 144.243685 
L 157.995106 108.975005 
L 159.832689 212.87463 
L 161.867155 207.87029 
L 163.835994 196.908403 
L 165.87046 223.121611 
L 167.839299 163.307836 
L 169.873765 181.41878 
L 171.908232 215.019347 
L 173.87707 158.303497 
L 175.911537 181.895384 
L 177.880375 191.42746 
L 179.914842 177.60595 
L 181.949308 158.065195 
L 183.786891 171.886704 
L 185.821357 197.861611 
L 187.790196 149.248025 
L 189.824662 197.861611 
L 191.793501 155.205572 
L 193.827967 101.825948 
L 195.862434 180.703874 
L 197.831272 128.039156 
L 199.865739 164.975949 
L 201.834578 152.107647 
L 203.869044 174.269723 
L 205.903511 159.256704 
L 207.806721 189.282743 
L 209.841188 250.764631 
L 211.810026 264.58614 
L 213.844493 229.555762 
L 215.813331 172.125006 
L 217.847798 167.835572 
L 219.882264 112.787835 
L 221.851103 150.916138 
L 223.885569 190.712554 
L 225.854408 108.260099 
L 227.888874 182.61029 
L 229.923341 135.426515 
L 231.760923 179.750667 
L 233.79539 309.8635 
L 235.764228 268.160669 
L 237.798695 190.23595 
L 239.767534 202.389347 
L 241.802 170.695195 
L 243.836466 181.895384 
L 245.805305 287.701424 
L 247.839772 163.307836 
L 249.80861 136.618024 
L 251.843077 197.861611 
L 253.877543 203.342554 
L 255.715126 170.933497 
L 257.749592 196.431799 
L 259.718431 144.720289 
L 261.752897 188.091233 
L 263.721736 210.968215 
L 265.756202 279.122556 
L 267.790669 234.560102 
L 269.759507 238.372932 
L 271.793974 167.835572 
L 273.762812 148.533119 
L 275.797279 184.516705 
L 277.831745 146.626704 
L 279.669328 195.716894 
L 281.703795 228.840857 
L 283.672633 252.432744 
L 285.7071 156.158779 
L 287.675938 236.943121 
L 289.710405 164.975949 
L 291.744871 158.541798 
L 293.71371 203.342554 
L 295.748176 142.098968 
L 297.717015 289.369537 
L 299.751481 161.401421 
L 301.785948 175.699535 
L 303.689158 241.709159 
L 305.723625 201.674441 
L 307.692463 199.529724 
L 309.72693 205.248969 
L 311.695768 202.86595 
L 313.730235 168.550478 
L 315.764701 225.50463 
L 317.73354 169.503685 
L 319.768006 250.764631 
L 321.736845 165.214251 
L 323.771311 168.550478 
L 325.805778 228.840857 
L 327.643361 245.045385 
L 329.677827 243.853876 
L 331.646666 205.963875 
L 333.681132 195.955195 
L 335.649971 167.358968 
L 337.684437 187.614629 
L 339.718904 191.904063 
L 341.687742 206.678781 
L 343.722209 179.274063 
L 345.691047 283.41199 
L 347.725514 188.091233 
L 349.75998 209.776705 
L 351.597563 206.678781 
L 353.632029 253.862555 
L 355.600868 210.491611 
L 357.635334 208.346894 
L 359.604173 210.968215 
L 361.638639 206.440479 
L 363.673106 206.202177 
L 365.641944 247.428404 
L 367.676411 188.091233 
L 369.64525 247.428404 
L 371.679716 291.990858 
L 373.714183 285.080103 
L 375.551765 230.270668 
L 377.586232 246.236895 
L 379.55507 280.314065 
L 381.589537 235.989913 
L 383.558375 156.873685 
L 385.592842 208.108592 
L 387.627308 184.755007 
L 389.596147 264.824442 
L 391.630613 309.8635 
L 393.599452 309.8635 
L 395.633918 309.8635 
L 397.668385 309.8635 
L 399.571595 281.505575 
L 401.606062 309.8635 
L 403.5749 309.8635 
L 405.609367 276.739537 
L 407.578205 275.548028 
L 409.612672 257.198782 
L 411.647138 262.441423 
L 413.615977 309.8635 
L 415.650444 309.8635 
L 417.619282 276.262933 
L 419.653749 262.441423 
L 421.688215 280.075763 
L 423.525798 276.977839 
L 425.560264 283.173688 
L 427.529103 281.982179 
L 429.563569 282.458782 
L 431.532408 243.13897 
L 433.566874 282.697084 
L 435.601341 282.697084 
L 437.570179 282.458782 
L 439.604646 220.023687 
L 441.573484 238.372932 
L 443.607951 291.037651 
L 445.642417 283.650292 
L 447.48 301.04633 
L 447.48 215.257649 
L 447.48 215.257649 
L 445.642417 130.183873 
L 443.607951 136.856326 
L 441.573484 151.392742 
L 439.604646 133.5201 
L 437.570179 133.996703 
L 435.601341 129.230666 
L 433.566874 127.324251 
L 431.532408 124.464628 
L 429.563569 123.273118 
L 427.529103 127.562552 
L 425.560264 218.117271 
L 423.525798 275.786329 
L 421.688215 125.894439 
L 419.653749 126.371043 
L 417.619282 153.537459 
L 415.650444 214.066139 
L 413.615977 152.822553 
L 411.647138 203.580856 
L 409.612672 130.660477 
L 407.578205 124.70293 
L 405.609367 117.792175 
L 403.5749 215.495951 
L 401.606062 220.976894 
L 399.571595 148.056515 
L 397.668385 186.184818 
L 395.633918 185.708214 
L 393.599452 145.435194 
L 391.630613 123.273118 
L 389.596147 121.843307 
L 387.627308 56.548589 
L 385.592842 58.693306 
L 383.558375 57.9784 
L 381.589537 56.78689 
L 379.55507 60.361419 
L 377.586232 67.748777 
L 375.551765 66.318966 
L 373.714183 116.838967 
L 371.679716 60.123117 
L 369.64525 80.61708 
L 367.676411 121.128401 
L 365.641944 83.953306 
L 363.673106 52.020853 
L 361.638639 53.450664 
L 359.604173 55.833683 
L 357.635334 53.927268 
L 355.600868 56.548589 
L 353.632029 56.071985 
L 351.597563 55.595381 
L 349.75998 52.259154 
L 347.725514 54.16557 
L 345.691047 51.067645 
L 343.722209 56.78689 
L 341.687742 51.067645 
L 339.718904 52.497456 
L 337.684437 52.259154 
L 335.649971 53.927268 
L 333.681132 49.637834 
L 331.646666 52.735758 
L 329.677827 49.637834 
L 327.643361 99.681231 
L 325.805778 57.740098 
L 323.771311 47.016513 
L 321.736845 50.114437 
L 319.768006 48.922928 
L 317.73354 46.539909 
L 315.764701 47.254815 
L 313.730235 47.96972 
L 311.695768 47.493117 
L 309.72693 44.633494 
L 307.692463 46.301607 
L 305.723625 61.314626 
L 303.689158 52.97406 
L 301.785948 51.305947 
L 299.751481 44.871796 
L 297.717015 45.586701 
L 295.748176 45.825003 
L 293.71371 46.063305 
L 291.744871 46.063305 
L 289.710405 46.778211 
L 287.675938 45.586701 
L 285.7071 45.110098 
L 283.672633 47.016513 
L 281.703795 45.3484 
L 279.669328 42.727079 
L 277.831745 43.680286 
L 275.797279 43.441984 
L 273.762812 43.441984 
L 271.793974 47.493117 
L 269.759507 47.254815 
L 267.790669 110.88142 
L 265.756202 42.727079 
L 263.721736 39.390852 
L 261.752897 39.15255 
L 259.718431 40.34406 
L 257.749592 39.867456 
L 255.715126 38.675947 
L 253.877543 42.012173 
L 251.843077 41.058966 
L 249.80861 39.629154 
L 247.839772 38.914248 
L 245.805305 38.437645 
L 243.836466 38.914248 
L 241.802 41.058966 
L 239.767534 38.199343 
L 237.798695 38.675947 
L 235.764228 68.225381 
L 233.79539 110.404816 
L 231.760923 41.058966 
L 229.923341 40.34406 
L 227.888874 39.390852 
L 225.854408 38.437645 
L 223.885569 40.105758 
L 221.851103 38.437645 
L 219.882264 39.15255 
L 217.847798 41.058966 
L 215.813331 41.773871 
L 213.844493 37.007833 
L 211.810026 43.441984 
L 209.841188 138.762741 
L 207.806721 49.16123 
L 205.903511 50.352739 
L 203.869044 45.110098 
L 201.834578 44.395192 
L 199.865739 43.918588 
L 197.831272 44.395192 
L 195.862434 43.441984 
L 193.827967 44.395192 
L 191.793501 45.110098 
L 189.824662 44.15689 
L 187.790196 41.297267 
L 185.821357 40.582362 
L 183.786891 40.582362 
L 181.949308 40.34406 
L 179.914842 39.867456 
L 177.880375 41.773871 
L 175.911537 42.965381 
L 173.87707 41.535569 
L 171.908232 42.488777 
L 169.873765 44.871796 
L 167.839299 43.680286 
L 165.87046 42.250475 
L 163.835994 42.965381 
L 161.867155 113.502741 
L 159.832689 43.918588 
L 157.995106 46.301607 
L 155.960639 45.586701 
L 153.926173 46.539909 
L 151.957334 46.778211 
L 149.922868 46.539909 
L 147.954029 47.731418 
L 145.919563 48.208022 
L 143.885096 47.731418 
L 141.916258 45.825003 
L 139.881791 47.493117 
L 137.912953 99.442929 
L 135.878486 58.693306 
L 134.040904 55.595381 
L 132.006437 50.352739 
L 129.971971 50.591041 
L 128.003132 51.782551 
L 125.968666 52.735758 
L 123.999827 51.305947 
L 121.965361 51.544249 
L 119.930894 51.305947 
L 117.962056 51.544249 
L 115.927589 96.106703 
L 113.95875 97.05991 
L 111.924284 58.216702 
L 110.021073 60.599721 
L 107.986607 60.838023 
L 105.95214 55.595381 
L 103.983302 60.361419 
L 101.948835 121.128401 
L 99.979997 120.890099 
L 97.94553 55.833683 
L 95.911064 51.305947 
L 93.942225 49.399532 
L 91.907759 50.591041 
L 89.93892 59.169909 
L 87.904454 116.838967 
L 86.066871 52.020853 
L 84.032405 52.97406 
L 81.997938 50.591041 
L 80.0291 51.544249 
L 77.994633 51.305947 
L 76.025795 51.782551 
L 73.991328 52.497456 
L 71.956862 55.595381 
L 69.988023 56.78689 
L 67.953556 61.314626 
L 65.984718 54.642173 
L 63.950251 53.212362 
L 62.112669 52.735758 
L 60.078202 53.927268 
L 58.043736 53.450664 
L 56.074897 54.642173 
L 54.040431 48.208022 
L 52.071592 50.591041 
L 50.037126 52.020853 
L 48.002659 79.42557 
L 46.033821 49.876136 
L 43.999354 47.254815 
L 42.030516 48.446324 
L 39.996049 49.16123 
L 38.158466 51.782551 
L 36.124 50.114437 
z
" style="fill:#808080;fill-opacity:0.3;"/>
   </g>
   <g id="PolyCollection_2">
    <path clip-path="url(#pd70ca2e146)" d="M 36.124 56.965617 
L 36.124 148.533119 
L 38.158466 145.971374 
L 39.996049 110.643118 
L 42.030516 67.748777 
L 43.999354 116.600665 
L 46.033821 112.311231 
L 48.002659 133.817977 
L 50.037126 108.081373 
L 52.071592 112.072929 
L 54.040431 109.68991 
L 56.074897 157.588591 
L 58.043736 138.762741 
L 60.078202 125.656137 
L 62.112669 115.647458 
L 63.950251 126.430618 
L 65.984718 169.980289 
L 67.953556 162.831232 
L 69.988023 132.626468 
L 71.956862 138.405289 
L 73.991328 114.217646 
L 76.025795 114.277222 
L 77.994633 180.465572 
L 80.0291 111.834628 
L 81.997938 103.791939 
L 84.032405 110.22609 
L 86.066871 130.958354 
L 87.904454 144.958591 
L 89.93892 148.830996 
L 91.907759 129.051939 
L 93.942225 120.234769 
L 95.911064 84.012882 
L 97.94553 146.388402 
L 99.979997 152.107647 
L 101.948835 157.826893 
L 103.983302 154.31194 
L 105.95214 136.141421 
L 107.986607 100.157835 
L 110.021073 135.247788 
L 111.924284 112.072929 
L 113.95875 185.052884 
L 115.927589 200.24463 
L 117.962056 149.903355 
L 119.930894 115.88576 
L 121.965361 92.413023 
L 123.999827 142.33727 
L 125.968666 98.489722 
L 128.003132 92.293872 
L 129.971971 94.736467 
L 132.006437 95.391797 
L 134.040904 95.153495 
L 135.878486 97.536514 
L 137.912953 163.605714 
L 139.881791 127.86043 
L 141.916258 79.663872 
L 143.885096 60.599721 
L 145.919563 60.599721 
L 147.954029 84.191608 
L 149.922868 80.378778 
L 151.957334 67.987079 
L 153.926173 89.672552 
L 155.960639 81.212834 
L 157.995106 66.676419 
L 159.832689 142.33727 
L 161.867155 146.626704 
L 163.835994 134.949911 
L 165.87046 137.630807 
L 167.839299 77.280853 
L 169.873765 75.851042 
L 171.908232 94.259863 
L 173.87707 73.944627 
L 175.911537 117.792175 
L 177.880375 97.119486 
L 179.914842 82.761797 
L 181.949308 78.234061 
L 183.786891 93.723684 
L 185.821357 100.515288 
L 187.790196 78.531938 
L 189.824662 105.996231 
L 191.793501 75.61274 
L 193.827967 57.263494 
L 195.862434 78.531938 
L 197.831272 86.574627 
L 199.865739 94.736467 
L 201.834578 85.680995 
L 203.869044 86.395901 
L 205.903511 127.324251 
L 207.806721 128.337034 
L 209.841188 163.069534 
L 211.810026 157.588591 
L 213.844493 117.19642 
L 215.813331 66.616843 
L 217.847798 68.523259 
L 219.882264 56.310287 
L 221.851103 75.61274 
L 223.885569 87.349108 
L 225.854408 72.812693 
L 227.888874 79.961749 
L 229.923341 83.476702 
L 231.760923 120.234769 
L 233.79539 187.435903 
L 235.764228 171.648402 
L 237.798695 114.753826 
L 239.767534 128.813637 
L 241.802 80.676655 
L 243.836466 117.136845 
L 245.805305 126.907222 
L 247.839772 88.957646 
L 249.80861 83.953306 
L 251.843077 91.340665 
L 253.877543 140.669156 
L 255.715126 112.847411 
L 257.749592 138.762741 
L 259.718431 85.680995 
L 261.752897 112.906986 
L 263.721736 99.264203 
L 265.756202 148.175666 
L 267.790669 139.001043 
L 269.759507 188.627412 
L 271.793974 120.413496 
L 273.762812 91.161938 
L 275.797279 79.187268 
L 277.831745 95.153495 
L 279.669328 108.021797 
L 281.703795 147.520336 
L 283.672633 165.750431 
L 285.7071 93.723684 
L 287.675938 147.579911 
L 289.710405 70.6084 
L 291.744871 80.914957 
L 293.71371 124.70293 
L 295.748176 92.353448 
L 297.717015 149.724628 
L 299.751481 114.69425 
L 301.785948 102.362127 
L 303.689158 143.528779 
L 305.723625 153.477883 
L 307.692463 124.822081 
L 309.72693 122.141184 
L 311.695768 115.945335 
L 313.730235 118.50708 
L 315.764701 112.072929 
L 317.73354 88.481042 
L 319.768006 129.290241 
L 321.736845 107.545193 
L 323.771311 119.996467 
L 325.805778 178.857035 
L 327.643361 217.402366 
L 329.677827 148.65227 
L 331.646666 104.268542 
L 333.681132 117.136845 
L 335.649971 108.855854 
L 337.684437 120.890099 
L 339.718904 98.132269 
L 341.687742 111.119722 
L 343.722209 150.677836 
L 345.691047 149.784204 
L 347.725514 93.068353 
L 349.75998 152.345949 
L 351.597563 128.992364 
L 353.632029 151.452317 
L 355.600868 129.230666 
L 357.635334 132.626468 
L 359.604173 93.24708 
L 361.638639 102.123825 
L 363.673106 96.702457 
L 365.641944 152.584251 
L 367.676411 155.920478 
L 369.64525 154.96727 
L 371.679716 193.691328 
L 373.714183 250.288027 
L 375.551765 155.980053 
L 377.586232 171.886704 
L 379.55507 154.96727 
L 381.589537 129.707269 
L 383.558375 106.174958 
L 385.592842 124.226326 
L 387.627308 108.260099 
L 389.596147 156.694959 
L 391.630613 309.8635 
L 393.599452 221.751375 
L 395.633918 221.930102 
L 397.668385 269.59048 
L 399.571595 268.160669 
L 401.606062 270.067084 
L 403.5749 276.501235 
L 405.609367 233.904772 
L 407.578205 226.457838 
L 409.612672 223.479064 
L 411.647138 232.653687 
L 413.615977 275.309726 
L 415.650444 275.548028 
L 417.619282 232.653687 
L 419.653749 220.738592 
L 421.688215 251.479536 
L 423.525798 276.501235 
L 425.560264 276.262933 
L 427.529103 252.671046 
L 429.563569 215.019347 
L 431.532408 174.269723 
L 433.566874 252.134867 
L 435.601341 172.839912 
L 437.570179 176.95062 
L 439.604646 183.801799 
L 441.573484 190.533827 
L 443.607951 204.355337 
L 445.642417 263.990386 
L 447.48 275.071424 
L 447.48 234.3218 
L 447.48 234.3218 
L 445.642417 221.930102 
L 443.607951 158.660949 
L 441.573484 161.460997 
L 439.604646 159.912034 
L 437.570179 151.15444 
L 435.601341 144.541562 
L 433.566874 169.324959 
L 431.532408 136.081845 
L 429.563569 159.256704 
L 427.529103 180.882601 
L 425.560264 250.764631 
L 423.525798 276.024631 
L 421.688215 178.499582 
L 419.653749 162.235478 
L 417.619282 219.785385 
L 415.650444 270.305386 
L 413.615977 209.0618 
L 411.647138 219.785385 
L 409.612672 189.163592 
L 407.578205 186.899724 
L 405.609367 169.503685 
L 403.5749 263.632933 
L 401.606062 257.675386 
L 399.571595 224.313121 
L 397.668385 206.380903 
L 395.633918 212.87463 
L 393.599452 168.78878 
L 391.630613 150.201232 
L 389.596147 139.477647 
L 387.627308 69.238164 
L 385.592842 68.64241 
L 383.558375 67.033872 
L 381.589537 94.915193 
L 379.55507 83.357551 
L 377.586232 125.834864 
L 375.551765 91.817269 
L 373.714183 159.97161 
L 371.679716 107.783495 
L 369.64525 124.881656 
L 367.676411 135.188213 
L 365.641944 116.54109 
L 363.673106 60.301843 
L 361.638639 62.267834 
L 359.604173 66.79557 
L 357.635334 71.085004 
L 355.600868 72.514815 
L 353.632029 126.609345 
L 351.597563 78.889391 
L 349.75998 73.944627 
L 347.725514 68.880711 
L 345.691047 75.136136 
L 343.722209 104.208967 
L 341.687742 71.79991 
L 339.718904 60.301843 
L 337.684437 69.119013 
L 335.649971 70.072221 
L 333.681132 68.701985 
L 331.646666 68.940287 
L 329.677827 70.548825 
L 327.643361 170.456893 
L 325.805778 101.468495 
L 323.771311 72.693542 
L 321.736845 69.416891 
L 319.768006 71.323306 
L 317.73354 59.884815 
L 315.764701 62.744438 
L 313.730235 66.974296 
L 311.695768 66.557268 
L 309.72693 66.557268 
L 307.692463 66.497693 
L 305.723625 125.417835 
L 303.689158 118.268779 
L 301.785948 64.591277 
L 299.751481 72.45524 
L 297.717015 85.561844 
L 295.748176 58.63373 
L 293.71371 56.071985 
L 291.744871 56.071985 
L 289.710405 56.310287 
L 287.675938 59.348636 
L 285.7071 55.118777 
L 283.672633 75.374438 
L 281.703795 85.383117 
L 279.669328 71.025428 
L 277.831745 62.44656 
L 275.797279 54.642173 
L 273.762812 57.9784 
L 271.793974 71.561608 
L 269.759507 118.983684 
L 267.790669 119.221986 
L 265.756202 118.745382 
L 263.721736 48.684626 
L 261.752897 56.071985 
L 259.718431 51.484673 
L 257.749592 56.78689 
L 255.715126 49.339956 
L 253.877543 52.735758 
L 251.843077 62.625287 
L 249.80861 52.676183 
L 247.839772 48.208022 
L 245.805305 50.591041 
L 243.836466 49.101654 
L 241.802 49.637834 
L 239.767534 52.497456 
L 237.798695 53.62939 
L 235.764228 129.945571 
L 233.79539 148.533119 
L 231.760923 52.378305 
L 229.923341 50.47189 
L 227.888874 49.876136 
L 225.854408 51.067645 
L 223.885569 51.305947 
L 221.851103 42.250475 
L 219.882264 42.965381 
L 217.847798 44.395192 
L 215.813331 45.586701 
L 213.844493 55.118777 
L 211.810026 140.252128 
L 209.841188 143.290477 
L 207.806721 101.111042 
L 205.903511 109.630335 
L 203.869044 54.16557 
L 201.834578 51.067645 
L 199.865739 73.706325 
L 197.831272 57.680522 
L 195.862434 49.16123 
L 193.827967 47.731418 
L 191.793501 48.208022 
L 189.824662 47.731418 
L 187.790196 46.778211 
L 185.821357 47.254815 
L 183.786891 60.361419 
L 181.949308 49.637834 
L 179.914842 49.637834 
L 177.880375 50.591041 
L 175.911537 56.071985 
L 173.87707 48.684626 
L 171.908232 48.684626 
L 169.873765 49.16123 
L 167.839299 48.446324 
L 165.87046 48.208022 
L 163.835994 63.697645 
L 161.867155 123.213543 
L 159.832689 62.267834 
L 157.995106 50.352739 
L 155.960639 52.259154 
L 153.926173 55.833683 
L 151.957334 52.735758 
L 149.922868 51.782551 
L 147.954029 54.403871 
L 145.919563 51.782551 
L 143.885096 50.591041 
L 141.916258 50.352739 
L 139.881791 117.315571 
L 137.912953 120.115618 
L 135.878486 76.327646 
L 134.040904 72.753117 
L 132.006437 68.165806 
L 129.971971 66.080664 
L 128.003132 66.080664 
L 125.968666 67.272174 
L 123.999827 67.987079 
L 121.965361 60.599721 
L 119.930894 65.127457 
L 117.962056 74.182929 
L 115.927589 166.167459 
L 113.95875 161.878025 
L 111.924284 88.481042 
L 110.021073 85.08524 
L 107.986607 75.374438 
L 105.95214 82.940523 
L 103.983302 133.5201 
L 101.948835 134.711609 
L 99.979997 125.179533 
L 97.94553 126.132741 
L 95.911064 56.548589 
L 93.942225 63.459343 
L 91.907759 65.961513 
L 89.93892 123.273118 
L 87.904454 123.273118 
L 86.066871 70.548825 
L 84.032405 66.318966 
L 81.997938 64.889155 
L 80.0291 67.927504 
L 77.994633 100.157835 
L 76.025795 63.935947 
L 73.991328 64.174249 
L 71.956862 77.519155 
L 69.988023 77.757457 
L 67.953556 125.417835 
L 65.984718 95.034344 
L 63.950251 66.557268 
L 62.112669 77.757457 
L 60.078202 83.715004 
L 58.043736 68.701985 
L 56.074897 81.27241 
L 54.040431 57.263494 
L 52.071592 64.233825 
L 50.037126 80.855382 
L 48.002659 89.195948 
L 46.033821 80.140476 
L 43.999354 52.437881 
L 42.030516 52.497456 
L 39.996049 79.42557 
L 38.158466 58.931607 
L 36.124 56.965617 
z
" style="fill:#808080;fill-opacity:0.6;"/>
   </g>
   <g id="matplotlib.axis_1">
    <g id="xtick_1">
     <g id="line2d_1">
      <path clip-path="url(#pd70ca2e146)" d="M 36.124 309.8635 
L 36.124 23.36505 
" style="fill:none;stroke:#b0b0b0;stroke-linecap:square;stroke-width:0.8;"/>
     </g>
     <g id="line2d_2">
      <defs>
       <path d="M 0 0 
L 0 3.5 
" id="m7662366e61" style="stroke:#000000;stroke-width:0.8;"/>
      </defs>
      <g>
       <use style="stroke:#000000;stroke-width:0.8;" x="36.124" xlink:href="#m7662366e61" y="309.8635"/>
      </g>
     </g>
     <g id="text_1">
      <!-- 2001 -->
      <defs>
       <path d="M 19.1875 8.296875 
L 53.609375 8.296875 
L 53.609375 0 
L 7.328125 0 
L 7.328125 8.296875 
Q 12.9375 14.109375 22.625 23.890625 
Q 32.328125 33.6875 34.8125 36.53125 
Q 39.546875 41.84375 41.421875 45.53125 
Q 43.3125 49.21875 43.3125 52.78125 
Q 43.3125 58.59375 39.234375 62.25 
Q 35.15625 65.921875 28.609375 65.921875 
Q 23.96875 65.921875 18.8125 64.3125 
Q 13.671875 62.703125 7.8125 59.421875 
L 7.8125 69.390625 
Q 13.765625 71.78125 18.9375 73 
Q 24.125 74.21875 28.421875 74.21875 
Q 39.75 74.21875 46.484375 68.546875 
Q 53.21875 62.890625 53.21875 53.421875 
Q 53.21875 48.921875 51.53125 44.890625 
Q 49.859375 40.875 45.40625 35.40625 
Q 44.1875 33.984375 37.640625 27.21875 
Q 31.109375 20.453125 19.1875 8.296875 
z
" id="DejaVuSans-32"/>
       <path d="M 31.78125 66.40625 
Q 24.171875 66.40625 20.328125 58.90625 
Q 16.5 51.421875 16.5 36.375 
Q 16.5 21.390625 20.328125 13.890625 
Q 24.171875 6.390625 31.78125 6.390625 
Q 39.453125 6.390625 43.28125 13.890625 
Q 47.125 21.390625 47.125 36.375 
Q 47.125 51.421875 43.28125 58.90625 
Q 39.453125 66.40625 31.78125 66.40625 
z
M 31.78125 74.21875 
Q 44.046875 74.21875 50.515625 64.515625 
Q 56.984375 54.828125 56.984375 36.375 
Q 56.984375 17.96875 50.515625 8.265625 
Q 44.046875 -1.421875 31.78125 -1.421875 
Q 19.53125 -1.421875 13.0625 8.265625 
Q 6.59375 17.96875 6.59375 36.375 
Q 6.59375 54.828125 13.0625 64.515625 
Q 19.53125 74.21875 31.78125 74.21875 
z
" id="DejaVuSans-30"/>
       <path d="M 12.40625 8.296875 
L 28.515625 8.296875 
L 28.515625 63.921875 
L 10.984375 60.40625 
L 10.984375 69.390625 
L 28.421875 72.90625 
L 38.28125 72.90625 
L 38.28125 8.296875 
L 54.390625 8.296875 
L 54.390625 0 
L 12.40625 0 
z
" id="DejaVuSans-31"/>
      </defs>
      <g transform="translate(23.399 324.461937)scale(0.1 -0.1)">
       <use xlink:href="#DejaVuSans-32"/>
       <use x="63.623047" xlink:href="#DejaVuSans-30"/>
       <use x="127.246094" xlink:href="#DejaVuSans-30"/>
       <use x="190.869141" xlink:href="#DejaVuSans-31"/>
      </g>
     </g>
    </g>
    <g id="xtick_2">
     <g id="line2d_3">
      <path clip-path="url(#pd70ca2e146)" d="M 84.032405 309.8635 
L 84.032405 23.36505 
" style="fill:none;stroke:#b0b0b0;stroke-linecap:square;stroke-width:0.8;"/>
     </g>
     <g id="line2d_4">
      <g>
       <use style="stroke:#000000;stroke-width:0.8;" x="84.032405" xlink:href="#m7662366e61" y="309.8635"/>
      </g>
     </g>
     <g id="text_2">
      <!-- 2003 -->
      <defs>
       <path d="M 40.578125 39.3125 
Q 47.65625 37.796875 51.625 33 
Q 55.609375 28.21875 55.609375 21.1875 
Q 55.609375 10.40625 48.1875 4.484375 
Q 40.765625 -1.421875 27.09375 -1.421875 
Q 22.515625 -1.421875 17.65625 -0.515625 
Q 12.796875 0.390625 7.625 2.203125 
L 7.625 11.71875 
Q 11.71875 9.328125 16.59375 8.109375 
Q 21.484375 6.890625 26.8125 6.890625 
Q 36.078125 6.890625 40.9375 10.546875 
Q 45.796875 14.203125 45.796875 21.1875 
Q 45.796875 27.640625 41.28125 31.265625 
Q 36.765625 34.90625 28.71875 34.90625 
L 20.21875 34.90625 
L 20.21875 43.015625 
L 29.109375 43.015625 
Q 36.375 43.015625 40.234375 45.921875 
Q 44.09375 48.828125 44.09375 54.296875 
Q 44.09375 59.90625 40.109375 62.90625 
Q 36.140625 65.921875 28.71875 65.921875 
Q 24.65625 65.921875 20.015625 65.03125 
Q 15.375 64.15625 9.8125 62.3125 
L 9.8125 71.09375 
Q 15.4375 72.65625 20.34375 73.4375 
Q 25.25 74.21875 29.59375 74.21875 
Q 40.828125 74.21875 47.359375 69.109375 
Q 53.90625 64.015625 53.90625 55.328125 
Q 53.90625 49.265625 50.4375 45.09375 
Q 46.96875 40.921875 40.578125 39.3125 
z
" id="DejaVuSans-33"/>
      </defs>
      <g transform="translate(71.307405 324.461937)scale(0.1 -0.1)">
       <use xlink:href="#DejaVuSans-32"/>
       <use x="63.623047" xlink:href="#DejaVuSans-30"/>
       <use x="127.246094" xlink:href="#DejaVuSans-30"/>
       <use x="190.869141" xlink:href="#DejaVuSans-33"/>
      </g>
     </g>
    </g>
    <g id="xtick_3">
     <g id="line2d_5">
      <path clip-path="url(#pd70ca2e146)" d="M 132.006437 309.8635 
L 132.006437 23.36505 
" style="fill:none;stroke:#b0b0b0;stroke-linecap:square;stroke-width:0.8;"/>
     </g>
     <g id="line2d_6">
      <g>
       <use style="stroke:#000000;stroke-width:0.8;" x="132.006437" xlink:href="#m7662366e61" y="309.8635"/>
      </g>
     </g>
     <g id="text_3">
      <!-- 2005 -->
      <defs>
       <path d="M 10.796875 72.90625 
L 49.515625 72.90625 
L 49.515625 64.59375 
L 19.828125 64.59375 
L 19.828125 46.734375 
Q 21.96875 47.46875 24.109375 47.828125 
Q 26.265625 48.1875 28.421875 48.1875 
Q 40.625 48.1875 47.75 41.5 
Q 54.890625 34.8125 54.890625 23.390625 
Q 54.890625 11.625 47.5625 5.09375 
Q 40.234375 -1.421875 26.90625 -1.421875 
Q 22.3125 -1.421875 17.546875 -0.640625 
Q 12.796875 0.140625 7.71875 1.703125 
L 7.71875 11.625 
Q 12.109375 9.234375 16.796875 8.0625 
Q 21.484375 6.890625 26.703125 6.890625 
Q 35.15625 6.890625 40.078125 11.328125 
Q 45.015625 15.765625 45.015625 23.390625 
Q 45.015625 31 40.078125 35.4375 
Q 35.15625 39.890625 26.703125 39.890625 
Q 22.75 39.890625 18.8125 39.015625 
Q 14.890625 38.140625 10.796875 36.28125 
z
" id="DejaVuSans-35"/>
      </defs>
      <g transform="translate(119.281437 324.461937)scale(0.1 -0.1)">
       <use xlink:href="#DejaVuSans-32"/>
       <use x="63.623047" xlink:href="#DejaVuSans-30"/>
       <use x="127.246094" xlink:href="#DejaVuSans-30"/>
       <use x="190.869141" xlink:href="#DejaVuSans-35"/>
      </g>
     </g>
    </g>
    <g id="xtick_4">
     <g id="line2d_7">
      <path clip-path="url(#pd70ca2e146)" d="M 179.914842 309.8635 
L 179.914842 23.36505 
" style="fill:none;stroke:#b0b0b0;stroke-linecap:square;stroke-width:0.8;"/>
     </g>
     <g id="line2d_8">
      <g>
       <use style="stroke:#000000;stroke-width:0.8;" x="179.914842" xlink:href="#m7662366e61" y="309.8635"/>
      </g>
     </g>
     <g id="text_4">
      <!-- 2007 -->
      <defs>
       <path d="M 8.203125 72.90625 
L 55.078125 72.90625 
L 55.078125 68.703125 
L 28.609375 0 
L 18.3125 0 
L 43.21875 64.59375 
L 8.203125 64.59375 
z
" id="DejaVuSans-37"/>
      </defs>
      <g transform="translate(167.189842 324.461937)scale(0.1 -0.1)">
       <use xlink:href="#DejaVuSans-32"/>
       <use x="63.623047" xlink:href="#DejaVuSans-30"/>
       <use x="127.246094" xlink:href="#DejaVuSans-30"/>
       <use x="190.869141" xlink:href="#DejaVuSans-37"/>
      </g>
     </g>
    </g>
    <g id="xtick_5">
     <g id="line2d_9">
      <path clip-path="url(#pd70ca2e146)" d="M 227.888874 309.8635 
L 227.888874 23.36505 
" style="fill:none;stroke:#b0b0b0;stroke-linecap:square;stroke-width:0.8;"/>
     </g>
     <g id="line2d_10">
      <g>
       <use style="stroke:#000000;stroke-width:0.8;" x="227.888874" xlink:href="#m7662366e61" y="309.8635"/>
      </g>
     </g>
     <g id="text_5">
      <!-- 2009 -->
      <defs>
       <path d="M 10.984375 1.515625 
L 10.984375 10.5 
Q 14.703125 8.734375 18.5 7.8125 
Q 22.3125 6.890625 25.984375 6.890625 
Q 35.75 6.890625 40.890625 13.453125 
Q 46.046875 20.015625 46.78125 33.40625 
Q 43.953125 29.203125 39.59375 26.953125 
Q 35.25 24.703125 29.984375 24.703125 
Q 19.046875 24.703125 12.671875 31.3125 
Q 6.296875 37.9375 6.296875 49.421875 
Q 6.296875 60.640625 12.9375 67.421875 
Q 19.578125 74.21875 30.609375 74.21875 
Q 43.265625 74.21875 49.921875 64.515625 
Q 56.59375 54.828125 56.59375 36.375 
Q 56.59375 19.140625 48.40625 8.859375 
Q 40.234375 -1.421875 26.421875 -1.421875 
Q 22.703125 -1.421875 18.890625 -0.6875 
Q 15.09375 0.046875 10.984375 1.515625 
z
M 30.609375 32.421875 
Q 37.25 32.421875 41.125 36.953125 
Q 45.015625 41.5 45.015625 49.421875 
Q 45.015625 57.28125 41.125 61.84375 
Q 37.25 66.40625 30.609375 66.40625 
Q 23.96875 66.40625 20.09375 61.84375 
Q 16.21875 57.28125 16.21875 49.421875 
Q 16.21875 41.5 20.09375 36.953125 
Q 23.96875 32.421875 30.609375 32.421875 
z
" id="DejaVuSans-39"/>
      </defs>
      <g transform="translate(215.163874 324.461937)scale(0.1 -0.1)">
       <use xlink:href="#DejaVuSans-32"/>
       <use x="63.623047" xlink:href="#DejaVuSans-30"/>
       <use x="127.246094" xlink:href="#DejaVuSans-30"/>
       <use x="190.869141" xlink:href="#DejaVuSans-39"/>
      </g>
     </g>
    </g>
    <g id="xtick_6">
     <g id="line2d_11">
      <path clip-path="url(#pd70ca2e146)" d="M 275.797279 309.8635 
L 275.797279 23.36505 
" style="fill:none;stroke:#b0b0b0;stroke-linecap:square;stroke-width:0.8;"/>
     </g>
     <g id="line2d_12">
      <g>
       <use style="stroke:#000000;stroke-width:0.8;" x="275.797279" xlink:href="#m7662366e61" y="309.8635"/>
      </g>
     </g>
     <g id="text_6">
      <!-- 2011 -->
      <g transform="translate(263.072279 324.461937)scale(0.1 -0.1)">
       <use xlink:href="#DejaVuSans-32"/>
       <use x="63.623047" xlink:href="#DejaVuSans-30"/>
       <use x="127.246094" xlink:href="#DejaVuSans-31"/>
       <use x="190.869141" xlink:href="#DejaVuSans-31"/>
      </g>
     </g>
    </g>
    <g id="xtick_7">
     <g id="line2d_13">
      <path clip-path="url(#pd70ca2e146)" d="M 323.771311 309.8635 
L 323.771311 23.36505 
" style="fill:none;stroke:#b0b0b0;stroke-linecap:square;stroke-width:0.8;"/>
     </g>
     <g id="line2d_14">
      <g>
       <use style="stroke:#000000;stroke-width:0.8;" x="323.771311" xlink:href="#m7662366e61" y="309.8635"/>
      </g>
     </g>
     <g id="text_7">
      <!-- 2013 -->
      <g transform="translate(311.046311 324.461937)scale(0.1 -0.1)">
       <use xlink:href="#DejaVuSans-32"/>
       <use x="63.623047" xlink:href="#DejaVuSans-30"/>
       <use x="127.246094" xlink:href="#DejaVuSans-31"/>
       <use x="190.869141" xlink:href="#DejaVuSans-33"/>
      </g>
     </g>
    </g>
    <g id="xtick_8">
     <g id="line2d_15">
      <path clip-path="url(#pd70ca2e146)" d="M 371.679716 309.8635 
L 371.679716 23.36505 
" style="fill:none;stroke:#b0b0b0;stroke-linecap:square;stroke-width:0.8;"/>
     </g>
     <g id="line2d_16">
      <g>
       <use style="stroke:#000000;stroke-width:0.8;" x="371.679716" xlink:href="#m7662366e61" y="309.8635"/>
      </g>
     </g>
     <g id="text_8">
      <!-- 2015 -->
      <g transform="translate(358.954716 324.461937)scale(0.1 -0.1)">
       <use xlink:href="#DejaVuSans-32"/>
       <use x="63.623047" xlink:href="#DejaVuSans-30"/>
       <use x="127.246094" xlink:href="#DejaVuSans-31"/>
       <use x="190.869141" xlink:href="#DejaVuSans-35"/>
      </g>
     </g>
    </g>
    <g id="xtick_9">
     <g id="line2d_17">
      <path clip-path="url(#pd70ca2e146)" d="M 419.653749 309.8635 
L 419.653749 23.36505 
" style="fill:none;stroke:#b0b0b0;stroke-linecap:square;stroke-width:0.8;"/>
     </g>
     <g id="line2d_18">
      <g>
       <use style="stroke:#000000;stroke-width:0.8;" x="419.653749" xlink:href="#m7662366e61" y="309.8635"/>
      </g>
     </g>
     <g id="text_9">
      <!-- 2017 -->
      <g transform="translate(406.928749 324.461937)scale(0.1 -0.1)">
       <use xlink:href="#DejaVuSans-32"/>
       <use x="63.623047" xlink:href="#DejaVuSans-30"/>
       <use x="127.246094" xlink:href="#DejaVuSans-31"/>
       <use x="190.869141" xlink:href="#DejaVuSans-37"/>
      </g>
     </g>
    </g>
    <g id="text_10">
     <!-- Date -->
     <defs>
      <path d="M 19.671875 64.796875 
L 19.671875 8.109375 
L 31.59375 8.109375 
Q 46.6875 8.109375 53.6875 14.9375 
Q 60.6875 21.78125 60.6875 36.53125 
Q 60.6875 51.171875 53.6875 57.984375 
Q 46.6875 64.796875 31.59375 64.796875 
z
M 9.8125 72.90625 
L 30.078125 72.90625 
Q 51.265625 72.90625 61.171875 64.09375 
Q 71.09375 55.28125 71.09375 36.53125 
Q 71.09375 17.671875 61.125 8.828125 
Q 51.171875 0 30.078125 0 
L 9.8125 0 
z
" id="DejaVuSans-44"/>
      <path d="M 34.28125 27.484375 
Q 23.390625 27.484375 19.1875 25 
Q 14.984375 22.515625 14.984375 16.5 
Q 14.984375 11.71875 18.140625 8.90625 
Q 21.296875 6.109375 26.703125 6.109375 
Q 34.1875 6.109375 38.703125 11.40625 
Q 43.21875 16.703125 43.21875 25.484375 
L 43.21875 27.484375 
z
M 52.203125 31.203125 
L 52.203125 0 
L 43.21875 0 
L 43.21875 8.296875 
Q 40.140625 3.328125 35.546875 0.953125 
Q 30.953125 -1.421875 24.3125 -1.421875 
Q 15.921875 -1.421875 10.953125 3.296875 
Q 6 8.015625 6 15.921875 
Q 6 25.140625 12.171875 29.828125 
Q 18.359375 34.515625 30.609375 34.515625 
L 43.21875 34.515625 
L 43.21875 35.40625 
Q 43.21875 41.609375 39.140625 45 
Q 35.0625 48.390625 27.6875 48.390625 
Q 23 48.390625 18.546875 47.265625 
Q 14.109375 46.140625 10.015625 43.890625 
L 10.015625 52.203125 
Q 14.9375 54.109375 19.578125 55.046875 
Q 24.21875 56 28.609375 56 
Q 40.484375 56 46.34375 49.84375 
Q 52.203125 43.703125 52.203125 31.203125 
z
" id="DejaVuSans-61"/>
      <path d="M 18.3125 70.21875 
L 18.3125 54.6875 
L 36.8125 54.6875 
L 36.8125 47.703125 
L 18.3125 47.703125 
L 18.3125 18.015625 
Q 18.3125 11.328125 20.140625 9.421875 
Q 21.96875 7.515625 27.59375 7.515625 
L 36.8125 7.515625 
L 36.8125 0 
L 27.59375 0 
Q 17.1875 0 13.234375 3.875 
Q 9.28125 7.765625 9.28125 18.015625 
L 9.28125 47.703125 
L 2.6875 47.703125 
L 2.6875 54.6875 
L 9.28125 54.6875 
L 9.28125 70.21875 
z
" id="DejaVuSans-74"/>
      <path d="M 56.203125 29.59375 
L 56.203125 25.203125 
L 14.890625 25.203125 
Q 15.484375 15.921875 20.484375 11.0625 
Q 25.484375 6.203125 34.421875 6.203125 
Q 39.59375 6.203125 44.453125 7.46875 
Q 49.3125 8.734375 54.109375 11.28125 
L 54.109375 2.78125 
Q 49.265625 0.734375 44.1875 -0.34375 
Q 39.109375 -1.421875 33.890625 -1.421875 
Q 20.796875 -1.421875 13.15625 6.1875 
Q 5.515625 13.8125 5.515625 26.8125 
Q 5.515625 40.234375 12.765625 48.109375 
Q 20.015625 56 32.328125 56 
Q 43.359375 56 49.78125 48.890625 
Q 56.203125 41.796875 56.203125 29.59375 
z
M 47.21875 32.234375 
Q 47.125 39.59375 43.09375 43.984375 
Q 39.0625 48.390625 32.421875 48.390625 
Q 24.90625 48.390625 20.390625 44.140625 
Q 15.875 39.890625 15.1875 32.171875 
z
" id="DejaVuSans-65"/>
     </defs>
     <g transform="translate(229.851219 338.140062)scale(0.1 -0.1)">
      <use xlink:href="#DejaVuSans-44"/>
      <use x="77.001953" xlink:href="#DejaVuSans-61"/>
      <use x="138.28125" xlink:href="#DejaVuSans-74"/>
      <use x="177.490234" xlink:href="#DejaVuSans-65"/>
     </g>
    </g>
   </g>
   <g id="matplotlib.axis_2">
    <g id="ytick_1">
     <g id="line2d_19">
      <path clip-path="url(#pd70ca2e146)" d="M 36.124 309.8635 
L 447.48 309.8635 
" style="fill:none;stroke:#b0b0b0;stroke-linecap:square;stroke-width:0.8;"/>
     </g>
     <g id="line2d_20">
      <defs>
       <path d="M 0 0 
L -3.5 0 
" id="m7b7836ef5d" style="stroke:#000000;stroke-width:0.8;"/>
      </defs>
      <g>
       <use style="stroke:#000000;stroke-width:0.8;" x="36.124" xlink:href="#m7b7836ef5d" y="309.8635"/>
      </g>
     </g>
     <g id="text_11">
      <!-- 0 -->
      <g transform="translate(22.7615 313.662719)scale(0.1 -0.1)">
       <use xlink:href="#DejaVuSans-30"/>
      </g>
     </g>
    </g>
    <g id="ytick_2">
     <g id="line2d_21">
      <path clip-path="url(#pd70ca2e146)" d="M 36.124 262.203122 
L 447.48 262.203122 
" style="fill:none;stroke:#b0b0b0;stroke-linecap:square;stroke-width:0.8;"/>
     </g>
     <g id="line2d_22">
      <g>
       <use style="stroke:#000000;stroke-width:0.8;" x="36.124" xlink:href="#m7b7836ef5d" y="262.203122"/>
      </g>
     </g>
     <g id="text_12">
      <!-- 200 -->
      <g transform="translate(10.0365 266.00234)scale(0.1 -0.1)">
       <use xlink:href="#DejaVuSans-32"/>
       <use x="63.623047" xlink:href="#DejaVuSans-30"/>
       <use x="127.246094" xlink:href="#DejaVuSans-30"/>
      </g>
     </g>
    </g>
    <g id="ytick_3">
     <g id="line2d_23">
      <path clip-path="url(#pd70ca2e146)" d="M 36.124 214.542743 
L 447.48 214.542743 
" style="fill:none;stroke:#b0b0b0;stroke-linecap:square;stroke-width:0.8;"/>
     </g>
     <g id="line2d_24">
      <g>
       <use style="stroke:#000000;stroke-width:0.8;" x="36.124" xlink:href="#m7b7836ef5d" y="214.542743"/>
      </g>
     </g>
     <g id="text_13">
      <!-- 400 -->
      <defs>
       <path d="M 37.796875 64.3125 
L 12.890625 25.390625 
L 37.796875 25.390625 
z
M 35.203125 72.90625 
L 47.609375 72.90625 
L 47.609375 25.390625 
L 58.015625 25.390625 
L 58.015625 17.1875 
L 47.609375 17.1875 
L 47.609375 0 
L 37.796875 0 
L 37.796875 17.1875 
L 4.890625 17.1875 
L 4.890625 26.703125 
z
" id="DejaVuSans-34"/>
      </defs>
      <g transform="translate(10.0365 218.341962)scale(0.1 -0.1)">
       <use xlink:href="#DejaVuSans-34"/>
       <use x="63.623047" xlink:href="#DejaVuSans-30"/>
       <use x="127.246094" xlink:href="#DejaVuSans-30"/>
      </g>
     </g>
    </g>
    <g id="ytick_4">
     <g id="line2d_25">
      <path clip-path="url(#pd70ca2e146)" d="M 36.124 166.882365 
L 447.48 166.882365 
" style="fill:none;stroke:#b0b0b0;stroke-linecap:square;stroke-width:0.8;"/>
     </g>
     <g id="line2d_26">
      <g>
       <use style="stroke:#000000;stroke-width:0.8;" x="36.124" xlink:href="#m7b7836ef5d" y="166.882365"/>
      </g>
     </g>
     <g id="text_14">
      <!-- 600 -->
      <defs>
       <path d="M 33.015625 40.375 
Q 26.375 40.375 22.484375 35.828125 
Q 18.609375 31.296875 18.609375 23.390625 
Q 18.609375 15.53125 22.484375 10.953125 
Q 26.375 6.390625 33.015625 6.390625 
Q 39.65625 6.390625 43.53125 10.953125 
Q 47.40625 15.53125 47.40625 23.390625 
Q 47.40625 31.296875 43.53125 35.828125 
Q 39.65625 40.375 33.015625 40.375 
z
M 52.59375 71.296875 
L 52.59375 62.3125 
Q 48.875 64.0625 45.09375 64.984375 
Q 41.3125 65.921875 37.59375 65.921875 
Q 27.828125 65.921875 22.671875 59.328125 
Q 17.53125 52.734375 16.796875 39.40625 
Q 19.671875 43.65625 24.015625 45.921875 
Q 28.375 48.1875 33.59375 48.1875 
Q 44.578125 48.1875 50.953125 41.515625 
Q 57.328125 34.859375 57.328125 23.390625 
Q 57.328125 12.15625 50.6875 5.359375 
Q 44.046875 -1.421875 33.015625 -1.421875 
Q 20.359375 -1.421875 13.671875 8.265625 
Q 6.984375 17.96875 6.984375 36.375 
Q 6.984375 53.65625 15.1875 63.9375 
Q 23.390625 74.21875 37.203125 74.21875 
Q 40.921875 74.21875 44.703125 73.484375 
Q 48.484375 72.75 52.59375 71.296875 
z
" id="DejaVuSans-36"/>
      </defs>
      <g transform="translate(10.0365 170.681583)scale(0.1 -0.1)">
       <use xlink:href="#DejaVuSans-36"/>
       <use x="63.623047" xlink:href="#DejaVuSans-30"/>
       <use x="127.246094" xlink:href="#DejaVuSans-30"/>
      </g>
     </g>
    </g>
    <g id="ytick_5">
     <g id="line2d_27">
      <path clip-path="url(#pd70ca2e146)" d="M 36.124 119.221986 
L 447.48 119.221986 
" style="fill:none;stroke:#b0b0b0;stroke-linecap:square;stroke-width:0.8;"/>
     </g>
     <g id="line2d_28">
      <g>
       <use style="stroke:#000000;stroke-width:0.8;" x="36.124" xlink:href="#m7b7836ef5d" y="119.221986"/>
      </g>
     </g>
     <g id="text_15">
      <!-- 800 -->
      <defs>
       <path d="M 31.78125 34.625 
Q 24.75 34.625 20.71875 30.859375 
Q 16.703125 27.09375 16.703125 20.515625 
Q 16.703125 13.921875 20.71875 10.15625 
Q 24.75 6.390625 31.78125 6.390625 
Q 38.8125 6.390625 42.859375 10.171875 
Q 46.921875 13.96875 46.921875 20.515625 
Q 46.921875 27.09375 42.890625 30.859375 
Q 38.875 34.625 31.78125 34.625 
z
M 21.921875 38.8125 
Q 15.578125 40.375 12.03125 44.71875 
Q 8.5 49.078125 8.5 55.328125 
Q 8.5 64.0625 14.71875 69.140625 
Q 20.953125 74.21875 31.78125 74.21875 
Q 42.671875 74.21875 48.875 69.140625 
Q 55.078125 64.0625 55.078125 55.328125 
Q 55.078125 49.078125 51.53125 44.71875 
Q 48 40.375 41.703125 38.8125 
Q 48.828125 37.15625 52.796875 32.3125 
Q 56.78125 27.484375 56.78125 20.515625 
Q 56.78125 9.90625 50.3125 4.234375 
Q 43.84375 -1.421875 31.78125 -1.421875 
Q 19.734375 -1.421875 13.25 4.234375 
Q 6.78125 9.90625 6.78125 20.515625 
Q 6.78125 27.484375 10.78125 32.3125 
Q 14.796875 37.15625 21.921875 38.8125 
z
M 18.3125 54.390625 
Q 18.3125 48.734375 21.84375 45.5625 
Q 25.390625 42.390625 31.78125 42.390625 
Q 38.140625 42.390625 41.71875 45.5625 
Q 45.3125 48.734375 45.3125 54.390625 
Q 45.3125 60.0625 41.71875 63.234375 
Q 38.140625 66.40625 31.78125 66.40625 
Q 25.390625 66.40625 21.84375 63.234375 
Q 18.3125 60.0625 18.3125 54.390625 
z
" id="DejaVuSans-38"/>
      </defs>
      <g transform="translate(10.0365 123.021205)scale(0.1 -0.1)">
       <use xlink:href="#DejaVuSans-38"/>
       <use x="63.623047" xlink:href="#DejaVuSans-30"/>
       <use x="127.246094" xlink:href="#DejaVuSans-30"/>
      </g>
     </g>
    </g>
    <g id="ytick_6">
     <g id="line2d_29">
      <path clip-path="url(#pd70ca2e146)" d="M 36.124 71.561608 
L 447.48 71.561608 
" style="fill:none;stroke:#b0b0b0;stroke-linecap:square;stroke-width:0.8;"/>
     </g>
     <g id="line2d_30">
      <g>
       <use style="stroke:#000000;stroke-width:0.8;" x="36.124" xlink:href="#m7b7836ef5d" y="71.561608"/>
      </g>
     </g>
     <g id="text_16">
      <!-- 1000 -->
      <g transform="translate(3.674 75.360826)scale(0.1 -0.1)">
       <use xlink:href="#DejaVuSans-31"/>
       <use x="63.623047" xlink:href="#DejaVuSans-30"/>
       <use x="127.246094" xlink:href="#DejaVuSans-30"/>
       <use x="190.869141" xlink:href="#DejaVuSans-30"/>
      </g>
     </g>
    </g>
    <g id="ytick_7">
     <g id="line2d_31">
      <path clip-path="url(#pd70ca2e146)" d="M 36.124 23.901229 
L 447.48 23.901229 
" style="fill:none;stroke:#b0b0b0;stroke-linecap:square;stroke-width:0.8;"/>
     </g>
     <g id="line2d_32">
      <g>
       <use style="stroke:#000000;stroke-width:0.8;" x="36.124" xlink:href="#m7b7836ef5d" y="23.901229"/>
      </g>
     </g>
     <g id="text_17">
      <!-- 1200 -->
      <g transform="translate(3.674 27.700448)scale(0.1 -0.1)">
       <use xlink:href="#DejaVuSans-31"/>
       <use x="63.623047" xlink:href="#DejaVuSans-32"/>
       <use x="127.246094" xlink:href="#DejaVuSans-30"/>
       <use x="190.869141" xlink:href="#DejaVuSans-30"/>
      </g>
     </g>
    </g>
   </g>
   <g id="line2d_33">
    <path clip-path="url(#pd70ca2e146)" d="M 36.124 80.378778 
L 38.158466 85.263967 
L 39.996049 85.144816 
L 42.030516 56.310287 
L 43.999354 73.348872 
L 46.033821 87.766136 
L 48.002659 111.358024 
L 50.037126 88.600193 
L 52.071592 87.170382 
L 54.040431 75.61274 
L 56.074897 109.68991 
L 58.043736 95.272646 
L 60.078202 104.923873 
L 62.112669 94.081137 
L 63.950251 85.74057 
L 65.984718 139.358496 
L 67.953556 142.813874 
L 69.988023 100.87274 
L 71.956862 97.774816 
L 73.991328 81.212834 
L 76.025795 83.595853 
L 77.994633 154.609817 
L 80.0291 89.195948 
L 81.997938 82.166042 
L 84.032405 84.668212 
L 86.066871 121.605005 
L 87.904454 131.375383 
L 89.93892 131.494534 
L 91.907759 99.919533 
L 93.942225 84.42991 
L 95.911064 67.033872 
L 97.94553 134.235005 
L 99.979997 135.426515 
L 101.948835 146.626704 
L 103.983302 143.767081 
L 105.95214 105.281325 
L 107.986607 87.289533 
L 110.021073 100.157835 
L 111.924284 99.442929 
L 113.95875 173.078214 
L 115.927589 183.444346 
L 117.962056 93.842835 
L 119.930894 82.285193 
L 121.965361 71.561608 
L 123.999827 86.693778 
L 125.968666 83.119249 
L 128.003132 78.591514 
L 129.971971 78.234061 
L 132.006437 80.736231 
L 134.040904 82.404344 
L 135.878486 87.051231 
L 137.912953 130.422175 
L 139.881791 120.413496 
L 141.916258 56.071985 
L 143.885096 53.212362 
L 145.919563 53.688966 
L 147.954029 70.846702 
L 149.922868 60.599721 
L 151.957334 58.455004 
L 153.926173 64.2934 
L 155.960639 62.267834 
L 157.995106 57.025192 
L 159.832689 118.50708 
L 161.867155 131.851986 
L 163.835994 105.043024 
L 165.87046 64.174249 
L 167.839299 53.450664 
L 169.873765 54.403871 
L 171.908232 65.484909 
L 173.87707 57.025192 
L 175.911537 80.497929 
L 177.880375 63.697645 
L 179.914842 62.029532 
L 181.949308 59.408211 
L 183.786891 76.565947 
L 185.821357 59.28906 
L 187.790196 64.174249 
L 189.824662 59.765664 
L 191.793501 53.688966 
L 193.827967 49.876136 
L 195.862434 57.263494 
L 197.831272 76.565947 
L 199.865739 77.757457 
L 201.834578 61.552928 
L 203.869044 68.463683 
L 205.903511 117.792175 
L 207.806721 117.434722 
L 209.841188 146.388402 
L 211.810026 148.771421 
L 213.844493 75.851042 
L 215.813331 52.735758 
L 217.847798 50.591041 
L 219.882264 45.110098 
L 221.851103 51.782551 
L 223.885569 63.935947 
L 225.854408 61.195475 
L 227.888874 62.386985 
L 229.923341 64.174249 
L 231.760923 90.149155 
L 233.79539 163.78444 
L 235.764228 144.720289 
L 237.798695 82.880948 
L 239.767534 77.161702 
L 241.802 59.169909 
L 243.836466 78.829815 
L 245.805305 110.166514 
L 247.839772 60.123117 
L 249.80861 66.79557 
L 251.843077 76.327646 
L 253.877543 70.727551 
L 255.715126 67.510476 
L 257.749592 74.063778 
L 259.718431 64.174249 
L 261.752897 77.757457 
L 263.721736 59.169909 
L 265.756202 125.656137 
L 267.790669 125.298684 
L 269.759507 128.51576 
L 271.793974 96.106703 
L 273.762812 67.987079 
L 275.797279 64.412551 
L 279.669328 87.646985 
L 281.703795 104.923873 
L 283.672633 120.413496 
L 285.7071 67.153023 
L 287.675938 121.366703 
L 289.710405 61.076324 
L 291.744871 62.029532 
L 293.71371 74.42123 
L 295.748176 67.987079 
L 297.717015 121.605005 
L 299.751481 93.961986 
L 301.785948 80.61708 
L 303.689158 125.179533 
L 305.723625 140.669156 
L 307.692463 95.630099 
L 309.72693 98.489722 
L 311.695768 90.625759 
L 313.730235 98.728023 
L 315.764701 79.306419 
L 317.73354 68.940287 
L 319.768006 92.413023 
L 321.736845 84.906514 
L 323.771311 96.583306 
L 325.805778 127.681703 
L 327.643361 199.172271 
L 329.677827 93.604533 
L 331.646666 83.953306 
L 333.681132 84.549061 
L 335.649971 84.668212 
L 337.684437 90.983212 
L 339.718904 76.804249 
L 341.687742 89.43425 
L 343.722209 136.618024 
L 345.691047 91.340665 
L 347.725514 77.995759 
L 349.75998 92.532174 
L 351.597563 96.583306 
L 353.632029 137.33293 
L 355.600868 96.583306 
L 357.635334 98.013118 
L 359.604173 77.757457 
L 363.673106 69.416891 
L 365.641944 133.043496 
L 367.676411 145.077741 
L 369.64525 141.384062 
L 371.679716 134.592458 
L 373.714183 205.725573 
L 375.551765 109.332458 
L 377.586232 146.388402 
L 379.55507 117.077269 
L 381.589537 116.362363 
L 383.558375 81.093683 
L 385.592842 84.42991 
L 387.627308 83.715004 
L 389.596147 147.579911 
L 391.630613 226.69614 
L 393.599452 213.589536 
L 395.633918 219.785385 
L 397.668385 244.568782 
L 399.571595 260.177555 
L 401.606062 264.109537 
L 403.5749 276.262933 
L 405.609367 211.68312 
L 407.578205 219.547083 
L 409.612672 199.172271 
L 411.647138 220.023687 
L 413.615977 232.891989 
L 415.650444 273.641612 
L 417.619282 220.261989 
L 419.653749 175.461233 
L 421.688215 238.372932 
L 423.525798 276.262933 
L 425.560264 264.824442 
L 427.529103 225.266328 
L 429.563569 180.942176 
L 431.532408 156.754534 
L 433.566874 220.738592 
L 435.601341 162.712082 
L 437.570179 166.524912 
L 439.604646 171.767553 
L 441.573484 181.299629 
L 443.607951 184.993308 
L 445.642417 235.989913 
L 447.48 260.296706 
L 447.48 260.296706 
" style="fill:none;stroke:#1f77b4;stroke-linecap:square;stroke-width:1.5;"/>
   </g>
   <g id="patch_3">
    <path d="M 36.124 309.8635 
L 36.124 23.36505 
" style="fill:none;stroke:#000000;stroke-linecap:square;stroke-linejoin:miter;stroke-width:0.8;"/>
   </g>
   <g id="patch_4">
    <path d="M 447.48 309.8635 
L 447.48 23.36505 
" style="fill:none;stroke:#000000;stroke-linecap:square;stroke-linejoin:miter;stroke-width:0.8;"/>
   </g>
   <g id="patch_5">
    <path d="M 36.124 309.8635 
L 447.48 309.8635 
" style="fill:none;stroke:#000000;stroke-linecap:square;stroke-linejoin:miter;stroke-width:0.8;"/>
   </g>
   <g id="patch_6">
    <path d="M 36.124 23.36505 
L 447.48 23.36505 
" style="fill:none;stroke:#000000;stroke-linecap:square;stroke-linejoin:miter;stroke-width:0.8;"/>
   </g>
   <g id="text_18">
    <!-- Monthly gross load trend (MW) -->
    <defs>
     <path d="M 9.8125 72.90625 
L 24.515625 72.90625 
L 43.109375 23.296875 
L 61.8125 72.90625 
L 76.515625 72.90625 
L 76.515625 0 
L 66.890625 0 
L 66.890625 64.015625 
L 48.09375 14.015625 
L 38.1875 14.015625 
L 19.390625 64.015625 
L 19.390625 0 
L 9.8125 0 
z
" id="DejaVuSans-4d"/>
     <path d="M 30.609375 48.390625 
Q 23.390625 48.390625 19.1875 42.75 
Q 14.984375 37.109375 14.984375 27.296875 
Q 14.984375 17.484375 19.15625 11.84375 
Q 23.34375 6.203125 30.609375 6.203125 
Q 37.796875 6.203125 41.984375 11.859375 
Q 46.1875 17.53125 46.1875 27.296875 
Q 46.1875 37.015625 41.984375 42.703125 
Q 37.796875 48.390625 30.609375 48.390625 
z
M 30.609375 56 
Q 42.328125 56 49.015625 48.375 
Q 55.71875 40.765625 55.71875 27.296875 
Q 55.71875 13.875 49.015625 6.21875 
Q 42.328125 -1.421875 30.609375 -1.421875 
Q 18.84375 -1.421875 12.171875 6.21875 
Q 5.515625 13.875 5.515625 27.296875 
Q 5.515625 40.765625 12.171875 48.375 
Q 18.84375 56 30.609375 56 
z
" id="DejaVuSans-6f"/>
     <path d="M 54.890625 33.015625 
L 54.890625 0 
L 45.90625 0 
L 45.90625 32.71875 
Q 45.90625 40.484375 42.875 44.328125 
Q 39.84375 48.1875 33.796875 48.1875 
Q 26.515625 48.1875 22.3125 43.546875 
Q 18.109375 38.921875 18.109375 30.90625 
L 18.109375 0 
L 9.078125 0 
L 9.078125 54.6875 
L 18.109375 54.6875 
L 18.109375 46.1875 
Q 21.34375 51.125 25.703125 53.5625 
Q 30.078125 56 35.796875 56 
Q 45.21875 56 50.046875 50.171875 
Q 54.890625 44.34375 54.890625 33.015625 
z
" id="DejaVuSans-6e"/>
     <path d="M 54.890625 33.015625 
L 54.890625 0 
L 45.90625 0 
L 45.90625 32.71875 
Q 45.90625 40.484375 42.875 44.328125 
Q 39.84375 48.1875 33.796875 48.1875 
Q 26.515625 48.1875 22.3125 43.546875 
Q 18.109375 38.921875 18.109375 30.90625 
L 18.109375 0 
L 9.078125 0 
L 9.078125 75.984375 
L 18.109375 75.984375 
L 18.109375 46.1875 
Q 21.34375 51.125 25.703125 53.5625 
Q 30.078125 56 35.796875 56 
Q 45.21875 56 50.046875 50.171875 
Q 54.890625 44.34375 54.890625 33.015625 
z
" id="DejaVuSans-68"/>
     <path d="M 9.421875 75.984375 
L 18.40625 75.984375 
L 18.40625 0 
L 9.421875 0 
z
" id="DejaVuSans-6c"/>
     <path d="M 32.171875 -5.078125 
Q 28.375 -14.84375 24.75 -17.8125 
Q 21.140625 -20.796875 15.09375 -20.796875 
L 7.90625 -20.796875 
L 7.90625 -13.28125 
L 13.1875 -13.28125 
Q 16.890625 -13.28125 18.9375 -11.515625 
Q 21 -9.765625 23.484375 -3.21875 
L 25.09375 0.875 
L 2.984375 54.6875 
L 12.5 54.6875 
L 29.59375 11.921875 
L 46.6875 54.6875 
L 56.203125 54.6875 
z
" id="DejaVuSans-79"/>
     <path id="DejaVuSans-20"/>
     <path d="M 45.40625 27.984375 
Q 45.40625 37.75 41.375 43.109375 
Q 37.359375 48.484375 30.078125 48.484375 
Q 22.859375 48.484375 18.828125 43.109375 
Q 14.796875 37.75 14.796875 27.984375 
Q 14.796875 18.265625 18.828125 12.890625 
Q 22.859375 7.515625 30.078125 7.515625 
Q 37.359375 7.515625 41.375 12.890625 
Q 45.40625 18.265625 45.40625 27.984375 
z
M 54.390625 6.78125 
Q 54.390625 -7.171875 48.1875 -13.984375 
Q 42 -20.796875 29.203125 -20.796875 
Q 24.46875 -20.796875 20.265625 -20.09375 
Q 16.0625 -19.390625 12.109375 -17.921875 
L 12.109375 -9.1875 
Q 16.0625 -11.328125 19.921875 -12.34375 
Q 23.78125 -13.375 27.78125 -13.375 
Q 36.625 -13.375 41.015625 -8.765625 
Q 45.40625 -4.15625 45.40625 5.171875 
L 45.40625 9.625 
Q 42.625 4.78125 38.28125 2.390625 
Q 33.9375 0 27.875 0 
Q 17.828125 0 11.671875 7.65625 
Q 5.515625 15.328125 5.515625 27.984375 
Q 5.515625 40.671875 11.671875 48.328125 
Q 17.828125 56 27.875 56 
Q 33.9375 56 38.28125 53.609375 
Q 42.625 51.21875 45.40625 46.390625 
L 45.40625 54.6875 
L 54.390625 54.6875 
z
" id="DejaVuSans-67"/>
     <path d="M 41.109375 46.296875 
Q 39.59375 47.171875 37.8125 47.578125 
Q 36.03125 48 33.890625 48 
Q 26.265625 48 22.1875 43.046875 
Q 18.109375 38.09375 18.109375 28.8125 
L 18.109375 0 
L 9.078125 0 
L 9.078125 54.6875 
L 18.109375 54.6875 
L 18.109375 46.1875 
Q 20.953125 51.171875 25.484375 53.578125 
Q 30.03125 56 36.53125 56 
Q 37.453125 56 38.578125 55.875 
Q 39.703125 55.765625 41.0625 55.515625 
z
" id="DejaVuSans-72"/>
     <path d="M 44.28125 53.078125 
L 44.28125 44.578125 
Q 40.484375 46.53125 36.375 47.5 
Q 32.28125 48.484375 27.875 48.484375 
Q 21.1875 48.484375 17.84375 46.4375 
Q 14.5 44.390625 14.5 40.28125 
Q 14.5 37.15625 16.890625 35.375 
Q 19.28125 33.59375 26.515625 31.984375 
L 29.59375 31.296875 
Q 39.15625 29.25 43.1875 25.515625 
Q 47.21875 21.78125 47.21875 15.09375 
Q 47.21875 7.46875 41.1875 3.015625 
Q 35.15625 -1.421875 24.609375 -1.421875 
Q 20.21875 -1.421875 15.453125 -0.5625 
Q 10.6875 0.296875 5.421875 2 
L 5.421875 11.28125 
Q 10.40625 8.6875 15.234375 7.390625 
Q 20.0625 6.109375 24.8125 6.109375 
Q 31.15625 6.109375 34.5625 8.28125 
Q 37.984375 10.453125 37.984375 14.40625 
Q 37.984375 18.0625 35.515625 20.015625 
Q 33.0625 21.96875 24.703125 23.78125 
L 21.578125 24.515625 
Q 13.234375 26.265625 9.515625 29.90625 
Q 5.8125 33.546875 5.8125 39.890625 
Q 5.8125 47.609375 11.28125 51.796875 
Q 16.75 56 26.8125 56 
Q 31.78125 56 36.171875 55.265625 
Q 40.578125 54.546875 44.28125 53.078125 
z
" id="DejaVuSans-73"/>
     <path d="M 45.40625 46.390625 
L 45.40625 75.984375 
L 54.390625 75.984375 
L 54.390625 0 
L 45.40625 0 
L 45.40625 8.203125 
Q 42.578125 3.328125 38.25 0.953125 
Q 33.9375 -1.421875 27.875 -1.421875 
Q 17.96875 -1.421875 11.734375 6.484375 
Q 5.515625 14.40625 5.515625 27.296875 
Q 5.515625 40.1875 11.734375 48.09375 
Q 17.96875 56 27.875 56 
Q 33.9375 56 38.25 53.625 
Q 42.578125 51.265625 45.40625 46.390625 
z
M 14.796875 27.296875 
Q 14.796875 17.390625 18.875 11.75 
Q 22.953125 6.109375 30.078125 6.109375 
Q 37.203125 6.109375 41.296875 11.75 
Q 45.40625 17.390625 45.40625 27.296875 
Q 45.40625 37.203125 41.296875 42.84375 
Q 37.203125 48.484375 30.078125 48.484375 
Q 22.953125 48.484375 18.875 42.84375 
Q 14.796875 37.203125 14.796875 27.296875 
z
" id="DejaVuSans-64"/>
     <path d="M 31 75.875 
Q 24.46875 64.65625 21.28125 53.65625 
Q 18.109375 42.671875 18.109375 31.390625 
Q 18.109375 20.125 21.3125 9.0625 
Q 24.515625 -2 31 -13.1875 
L 23.1875 -13.1875 
Q 15.875 -1.703125 12.234375 9.375 
Q 8.59375 20.453125 8.59375 31.390625 
Q 8.59375 42.28125 12.203125 53.3125 
Q 15.828125 64.359375 23.1875 75.875 
z
" id="DejaVuSans-28"/>
     <path d="M 3.328125 72.90625 
L 13.28125 72.90625 
L 28.609375 11.28125 
L 43.890625 72.90625 
L 54.984375 72.90625 
L 70.3125 11.28125 
L 85.59375 72.90625 
L 95.609375 72.90625 
L 77.296875 0 
L 64.890625 0 
L 49.515625 63.28125 
L 33.984375 0 
L 21.578125 0 
z
" id="DejaVuSans-57"/>
     <path d="M 8.015625 75.875 
L 15.828125 75.875 
Q 23.140625 64.359375 26.78125 53.3125 
Q 30.421875 42.28125 30.421875 31.390625 
Q 30.421875 20.453125 26.78125 9.375 
Q 23.140625 -1.703125 15.828125 -13.1875 
L 8.015625 -13.1875 
Q 14.5 -2 17.703125 9.0625 
Q 20.90625 20.125 20.90625 31.390625 
Q 20.90625 42.671875 17.703125 53.65625 
Q 14.5 64.65625 8.015625 75.875 
z
" id="DejaVuSans-29"/>
    </defs>
    <g transform="translate(149.219188 17.36505)scale(0.12 -0.12)">
     <use xlink:href="#DejaVuSans-4d"/>
     <use x="86.279297" xlink:href="#DejaVuSans-6f"/>
     <use x="147.460938" xlink:href="#DejaVuSans-6e"/>
     <use x="210.839844" xlink:href="#DejaVuSans-74"/>
     <use x="250.048828" xlink:href="#DejaVuSans-68"/>
     <use x="313.427734" xlink:href="#DejaVuSans-6c"/>
     <use x="341.210938" xlink:href="#DejaVuSans-79"/>
     <use x="400.390625" xlink:href="#DejaVuSans-20"/>
     <use x="432.177734" xlink:href="#DejaVuSans-67"/>
     <use x="495.654297" xlink:href="#DejaVuSans-72"/>
     <use x="536.736328" xlink:href="#DejaVuSans-6f"/>
     <use x="597.917969" xlink:href="#DejaVuSans-73"/>
     <use x="650.017578" xlink:href="#DejaVuSans-73"/>
     <use x="702.117188" xlink:href="#DejaVuSans-20"/>
     <use x="733.904297" xlink:href="#DejaVuSans-6c"/>
     <use x="761.6875" xlink:href="#DejaVuSans-6f"/>
     <use x="822.869141" xlink:href="#DejaVuSans-61"/>
     <use x="884.148438" xlink:href="#DejaVuSans-64"/>
     <use x="947.625" xlink:href="#DejaVuSans-20"/>
     <use x="979.412109" xlink:href="#DejaVuSans-74"/>
     <use x="1018.621094" xlink:href="#DejaVuSans-72"/>
     <use x="1059.703125" xlink:href="#DejaVuSans-65"/>
     <use x="1121.226562" xlink:href="#DejaVuSans-6e"/>
     <use x="1184.605469" xlink:href="#DejaVuSans-64"/>
     <use x="1248.082031" xlink:href="#DejaVuSans-20"/>
     <use x="1279.869141" xlink:href="#DejaVuSans-28"/>
     <use x="1318.882812" xlink:href="#DejaVuSans-4d"/>
     <use x="1405.162109" xlink:href="#DejaVuSans-57"/>
     <use x="1504.039062" xlink:href="#DejaVuSans-29"/>
    </g>
   </g>
  </g>
 </g>
 <defs>
  <clipPath id="pd70ca2e146">
   <rect height="286.49845" width="411.356" x="36.124" y="23.36505"/>
  </clipPath>
 </defs>
</svg>
