<?xml version="1.0" encoding="utf-8" standalone="no"?>
<!DOCTYPE svg PUBLIC "-//W3C//DTD SVG 1.1//EN"
  "http://www.w3.org/Graphics/SVG/1.1/DTD/svg11.dtd">
<!-- Created with matplotlib (http://matplotlib.org/) -->
<svg height="345.6pt" version="1.1" viewBox="0 0 460.8 345.6" width="460.8pt" xmlns="http://www.w3.org/2000/svg" xmlns:xlink="http://www.w3.org/1999/xlink">
 <defs>
  <style type="text/css">
*{stroke-linecap:butt;stroke-linejoin:round;}
  </style>
 </defs>
 <g id="figure_1">
  <g id="patch_1">
   <path d="M 0 345.6 
L 460.8 345.6 
L 460.8 0 
L 0 0 
z
" style="fill:none;"/>
  </g>
  <g id="axes_1">
   <g id="patch_2">
    <path d="M 31.543 309.8635 
L 447.48 309.8635 
L 447.48 23.36505 
L 31.543 23.36505 
z
" style="fill:none;"/>
   </g>
   <g id="PolyCollection_1">
    <path clip-path="url(#p9e67caeb00)" d="M 31.543 58.54907 
L 31.543 309.8635 
L 33.600123 309.8635 
L 35.45817 309.8635 
L 37.515293 277.551645 
L 39.506057 309.8635 
L 41.56318 309.8635 
L 43.553944 309.8635 
L 45.611067 309.8635 
L 47.66819 309.8635 
L 49.658954 309.8635 
L 51.716077 309.8635 
L 53.706841 309.8635 
L 55.763964 309.8635 
L 57.821087 309.8635 
L 59.679134 309.8635 
L 61.736257 309.8635 
L 63.727021 309.8635 
L 65.784144 309.8635 
L 67.774908 309.8635 
L 69.832031 309.8635 
L 71.889154 309.8635 
L 73.879919 309.8635 
L 75.937042 309.8635 
L 77.927806 309.8635 
L 79.984929 309.8635 
L 82.042052 309.8635 
L 83.900098 309.8635 
L 85.957221 309.8635 
L 87.947986 309.8635 
L 90.005109 309.8635 
L 91.995873 309.8635 
L 94.052996 309.8635 
L 96.110119 309.8635 
L 98.100883 309.8635 
L 100.158006 309.8635 
L 102.14877 309.8635 
L 104.205893 309.8635 
L 106.263016 309.8635 
L 108.187422 309.8635 
L 110.244545 309.8635 
L 112.235309 309.8635 
L 114.292432 309.8635 
L 116.283196 309.8635 
L 118.340319 309.8635 
L 120.397442 309.8635 
L 122.388206 309.8635 
L 124.445329 309.8635 
L 126.436093 309.8635 
L 128.493216 309.8635 
L 130.55034 309.8635 
L 132.408386 309.8635 
L 134.465509 309.8635 
L 136.456273 309.8635 
L 138.513396 309.8635 
L 140.50416 309.8635 
L 142.561284 309.8635 
L 144.618407 309.8635 
L 146.609171 309.8635 
L 148.666294 309.8635 
L 150.657058 309.8635 
L 152.714181 309.8635 
L 154.771304 309.8635 
L 156.629351 309.8635 
L 158.686474 309.8635 
L 160.677238 309.8635 
L 162.734361 309.8635 
L 164.725125 309.8635 
L 166.782248 309.8635 
L 168.839371 309.8635 
L 170.830135 309.8635 
L 172.887258 309.8635 
L 174.878022 309.8635 
L 176.935145 309.8635 
L 178.992268 309.8635 
L 180.850315 309.8635 
L 182.907438 309.8635 
L 184.898202 309.8635 
L 186.955325 309.8635 
L 188.946089 309.8635 
L 191.003212 309.8635 
L 193.060335 309.8635 
L 195.0511 309.8635 
L 197.108223 309.8635 
L 199.098987 309.8635 
L 201.15611 309.8635 
L 203.213233 309.8635 
L 205.137638 309.8635 
L 207.194761 309.8635 
L 209.185525 309.8635 
L 211.242648 309.8635 
L 213.233413 309.8635 
L 215.290536 309.8635 
L 217.347659 309.8635 
L 219.338423 309.8635 
L 221.395546 309.8635 
L 223.38631 309.8635 
L 225.443433 309.8635 
L 227.500556 309.8635 
L 229.358603 309.8635 
L 231.415726 309.8635 
L 233.40649 309.8635 
L 235.463613 309.8635 
L 237.454377 309.8635 
L 239.5115 309.8635 
L 241.568623 309.8635 
L 243.559387 309.8635 
L 245.61651 309.8635 
L 247.607274 309.8635 
L 249.664397 309.8635 
L 251.72152 309.8635 
L 253.579567 309.8635 
L 255.63669 309.8635 
L 257.627454 309.8635 
L 259.684577 309.8635 
L 261.675341 309.8635 
L 263.732464 309.8635 
L 265.789587 309.8635 
L 267.780352 309.8635 
L 269.837475 309.8635 
L 271.828239 309.8635 
L 273.885362 309.8635 
L 275.942485 309.8635 
L 277.800531 309.8635 
L 279.857654 309.8635 
L 281.848419 309.8635 
L 283.905542 309.8635 
L 285.896306 309.8635 
L 287.953429 309.8635 
L 290.010552 309.8635 
L 292.001316 309.8635 
L 294.058439 309.8635 
L 296.049203 309.8635 
L 298.106326 309.8635 
L 300.163449 309.8635 
L 302.087855 309.8635 
L 304.144978 309.8635 
L 306.135742 309.8635 
L 308.192865 309.8635 
L 310.183629 309.8635 
L 312.240752 309.8635 
L 314.297875 309.8635 
L 316.288639 309.8635 
L 318.345762 309.8635 
L 320.336526 309.8635 
L 322.393649 309.8635 
L 324.450772 309.8635 
L 326.308819 309.8635 
L 328.365942 309.8635 
L 330.356706 309.8635 
L 332.413829 309.8635 
L 334.404593 309.8635 
L 336.461716 309.8635 
L 338.51884 309.8635 
L 340.509604 309.8635 
L 342.566727 309.8635 
L 344.557491 309.8635 
L 346.614614 309.8635 
L 348.671737 309.8635 
L 350.529784 309.8635 
L 352.586907 309.8635 
L 354.577671 309.8635 
L 356.634794 309.8635 
L 358.625558 309.8635 
L 360.682681 309.8635 
L 362.739804 309.8635 
L 364.730568 309.8635 
L 366.787691 309.8635 
L 368.778455 309.8635 
L 370.835578 309.8635 
L 372.892701 309.8635 
L 374.750748 309.8635 
L 376.807871 309.8635 
L 378.798635 309.8635 
L 380.855758 309.8635 
L 382.846522 309.8635 
L 384.903645 309.8635 
L 386.960768 309.8635 
L 388.951533 309.8635 
L 391.008656 309.8635 
L 392.99942 309.8635 
L 395.056543 309.8635 
L 397.113666 309.8635 
L 399.038071 309.8635 
L 401.095194 309.8635 
L 403.085958 309.8635 
L 405.143081 309.8635 
L 407.133846 309.8635 
L 409.190969 309.8635 
L 411.248092 309.8635 
L 413.238856 309.8635 
L 415.295979 309.8635 
L 417.286743 309.8635 
L 419.343866 309.8635 
L 421.400989 309.8635 
L 423.259036 309.8635 
L 425.316159 309.8635 
L 427.306923 309.8635 
L 429.364046 309.8635 
L 431.35481 309.8635 
L 433.411933 309.8635 
L 435.469056 309.8635 
L 437.45982 309.8635 
L 439.516943 309.8635 
L 441.507707 309.8635 
L 443.56483 309.8635 
L 445.621953 309.8635 
L 447.48 309.8635 
L 447.48 96.844602 
L 447.48 96.844602 
L 445.621953 107.615221 
L 443.56483 119.582575 
L 441.507707 105.22175 
L 439.516943 76.500101 
L 437.45982 66.926218 
L 435.469056 68.122953 
L 433.411933 68.122953 
L 431.35481 66.926218 
L 429.364046 71.713159 
L 427.306923 110.008692 
L 425.316159 113.598898 
L 423.259036 193.780168 
L 421.400989 222.501817 
L 419.343866 179.419344 
L 417.286743 159.074842 
L 415.295979 119.582575 
L 413.238856 72.909895 
L 411.248092 68.122953 
L 409.190969 60.942541 
L 407.133846 68.122953 
L 405.143081 110.008692 
L 403.085958 129.156458 
L 401.095194 169.845461 
L 399.038071 232.0757 
L 397.113666 46.581716 
L 395.056543 187.796491 
L 392.99942 135.140135 
L 391.008656 137.533605 
L 388.951533 136.33687 
L 386.960768 90.860925 
L 384.903645 106.418485 
L 382.846522 137.533605 
L 380.855758 93.254396 
L 378.798635 309.8635 
L 376.807871 218.911611 
L 374.750748 208.140993 
L 372.892701 131.549928 
L 370.835578 46.581716 
L 368.778455 136.33687 
L 366.787691 44.188246 
L 364.730568 108.811956 
L 362.739804 132.746664 
L 360.682681 86.073984 
L 358.625558 47.778452 
L 356.634794 112.402162 
L 354.577671 46.581716 
L 352.586907 180.616079 
L 350.529784 198.56711 
L 348.671737 205.747522 
L 346.614614 150.697694 
L 344.557491 153.091165 
L 342.566727 161.468313 
L 340.509604 192.583433 
L 338.51884 108.811956 
L 336.461716 80.090307 
L 334.404593 53.762129 
L 332.413829 57.352335 
L 330.356706 154.287901 
L 328.365942 115.992368 
L 326.308819 309.8635 
L 324.450772 115.992368 
L 322.393649 90.860925 
L 320.336526 125.566251 
L 318.345762 309.8635 
L 316.288639 180.616079 
L 314.297875 174.632402 
L 312.240752 81.287042 
L 310.183629 112.402162 
L 308.192865 59.745806 
L 306.135742 77.696836 
L 304.144978 82.483778 
L 302.087855 180.616079 
L 300.163449 309.8635 
L 298.106326 309.8635 
L 296.049203 229.68223 
L 294.058439 259.600614 
L 292.001316 52.565393 
L 290.010552 118.385839 
L 287.953429 53.762129 
L 285.896306 53.762129 
L 283.905542 83.680513 
L 281.848419 309.8635 
L 279.857654 197.370374 
L 277.800531 240.452848 
L 275.942485 147.107488 
L 273.885362 214.12467 
L 271.828239 309.8635 
L 269.837475 247.63326 
L 267.780352 42.99151 
L 265.789587 52.565393 
L 263.732464 62.139276 
L 261.675341 59.745806 
L 259.684577 216.51814 
L 257.627454 309.8635 
L 255.63669 303.879823 
L 253.579567 309.8635 
L 251.72152 309.8635 
L 249.664397 309.8635 
L 247.607274 188.993227 
L 245.61651 220.108346 
L 243.559387 119.582575 
L 241.568623 52.565393 
L 239.5115 42.99151 
L 237.454377 40.598039 
L 235.463613 172.238931 
L 233.40649 172.238931 
L 231.415726 309.8635 
L 229.358603 309.8635 
L 227.500556 309.8635 
L 225.443433 309.8635 
L 223.38631 309.8635 
L 221.395546 209.337728 
L 219.338423 124.369516 
L 217.347659 139.927076 
L 215.290536 135.140135 
L 213.233413 100.434808 
L 211.242648 48.975187 
L 209.185525 75.303365 
L 207.194761 220.108346 
L 205.137638 309.8635 
L 203.213233 89.66419 
L 201.15611 138.730341 
L 199.098987 125.566251 
L 197.108223 88.467455 
L 195.0511 58.54907 
L 193.060335 90.860925 
L 191.003212 38.204569 
L 188.946089 37.007833 
L 186.955325 37.007833 
L 184.898202 50.171923 
L 182.907438 110.008692 
L 180.850315 309.8635 
L 178.992268 223.698553 
L 176.935145 188.993227 
L 174.878022 309.8635 
L 172.887258 105.22175 
L 170.830135 71.713159 
L 168.839371 90.860925 
L 166.782248 47.778452 
L 164.725125 44.188246 
L 162.734361 81.287042 
L 160.677238 93.254396 
L 158.686474 192.583433 
L 156.629351 244.043054 
L 154.771304 309.8635 
L 152.714181 309.8635 
L 150.657058 309.8635 
L 148.666294 309.8635 
L 146.609171 92.057661 
L 144.618407 108.811956 
L 142.561284 74.10663 
L 140.50416 52.565393 
L 138.513396 45.384981 
L 136.456273 46.581716 
L 134.465509 181.812814 
L 132.408386 179.419344 
L 130.55034 179.419344 
L 128.493216 56.155599 
L 126.436093 78.893572 
L 124.445329 66.926218 
L 122.388206 106.418485 
L 120.397442 59.745806 
L 118.340319 47.778452 
L 116.283196 46.581716 
L 114.292432 131.549928 
L 112.235309 95.647867 
L 110.244545 194.976904 
L 108.187422 107.615221 
L 106.263016 119.582575 
L 104.205893 198.56711 
L 102.14877 89.66419 
L 100.158006 199.763845 
L 98.100883 80.090307 
L 96.110119 59.745806 
L 94.052996 82.483778 
L 91.995873 56.155599 
L 90.005109 59.745806 
L 87.947986 56.155599 
L 85.957221 138.730341 
L 83.900098 193.780168 
L 82.042052 309.8635 
L 79.984929 257.207143 
L 77.927806 106.418485 
L 75.937042 171.042196 
L 73.879919 90.860925 
L 71.889154 59.745806 
L 69.832031 57.352335 
L 67.774908 59.745806 
L 65.784144 88.467455 
L 63.727021 78.893572 
L 61.736257 179.419344 
L 59.679134 187.796491 
L 57.821087 144.714018 
L 55.763964 60.942541 
L 53.706841 57.352335 
L 51.716077 59.745806 
L 49.658954 51.368658 
L 47.66819 56.155599 
L 45.611067 47.778452 
L 43.553944 46.581716 
L 41.56318 42.99151 
L 39.506057 45.384981 
L 37.515293 45.384981 
L 35.45817 63.336012 
L 33.600123 62.139276 
L 31.543 58.54907 
z
" style="fill:#808080;fill-opacity:0.3;"/>
   </g>
   <g id="PolyCollection_2">
    <path clip-path="url(#p9e67caeb00)" d="M 31.543 95.647867 
L 31.543 217.714876 
L 33.600123 212.030383 
L 35.45817 309.8635 
L 37.515293 181.812814 
L 39.506057 194.976904 
L 41.56318 199.763845 
L 43.553944 205.747522 
L 45.611067 282.039402 
L 47.66819 309.8635 
L 49.658954 278.74838 
L 51.716077 309.8635 
L 53.706841 309.8635 
L 55.763964 309.8635 
L 57.821087 309.8635 
L 59.679134 309.8635 
L 61.736257 309.8635 
L 63.727021 309.8635 
L 65.784144 308.965948 
L 67.774908 266.781026 
L 69.832031 269.174497 
L 71.889154 309.8635 
L 73.879919 309.8635 
L 75.937042 309.8635 
L 77.927806 309.8635 
L 79.984929 309.8635 
L 82.042052 309.8635 
L 83.900098 309.8635 
L 85.957221 309.8635 
L 87.947986 309.8635 
L 90.005109 309.8635 
L 91.995873 309.8635 
L 94.052996 309.8635 
L 96.110119 309.8635 
L 98.100883 309.8635 
L 100.158006 309.8635 
L 102.14877 309.8635 
L 104.205893 309.8635 
L 106.263016 309.8635 
L 108.187422 309.8635 
L 110.244545 309.8635 
L 112.235309 309.8635 
L 114.292432 309.8635 
L 116.283196 308.666765 
L 118.340319 309.8635 
L 120.397442 309.8635 
L 122.388206 309.8635 
L 124.445329 277.551645 
L 126.436093 308.965948 
L 128.493216 309.8635 
L 130.55034 309.8635 
L 132.408386 309.8635 
L 134.465509 309.8635 
L 136.456273 309.8635 
L 138.513396 309.8635 
L 140.50416 309.8635 
L 142.561284 309.8635 
L 144.618407 309.8635 
L 146.609171 309.8635 
L 148.666294 309.8635 
L 150.657058 309.8635 
L 152.714181 309.8635 
L 154.771304 309.8635 
L 156.629351 309.8635 
L 158.686474 309.8635 
L 160.677238 309.8635 
L 162.734361 309.8635 
L 164.725125 309.8635 
L 166.782248 309.8635 
L 168.839371 309.8635 
L 170.830135 309.8635 
L 172.887258 309.8635 
L 174.878022 309.8635 
L 176.935145 309.8635 
L 178.992268 309.8635 
L 180.850315 309.8635 
L 182.907438 309.8635 
L 184.898202 309.8635 
L 186.955325 309.8635 
L 188.946089 309.8635 
L 191.003212 309.8635 
L 193.060335 309.8635 
L 195.0511 309.8635 
L 197.108223 309.8635 
L 199.098987 309.8635 
L 201.15611 309.8635 
L 203.213233 309.8635 
L 205.137638 309.8635 
L 207.194761 309.8635 
L 209.185525 309.8635 
L 211.242648 309.8635 
L 213.233413 309.8635 
L 215.290536 309.8635 
L 217.347659 309.8635 
L 219.338423 309.8635 
L 221.395546 309.8635 
L 223.38631 309.8635 
L 225.443433 309.8635 
L 227.500556 309.8635 
L 229.358603 309.8635 
L 231.415726 309.8635 
L 233.40649 309.8635 
L 235.463613 309.8635 
L 237.454377 309.8635 
L 239.5115 309.8635 
L 241.568623 309.8635 
L 243.559387 309.8635 
L 245.61651 309.8635 
L 247.607274 309.8635 
L 249.664397 309.8635 
L 251.72152 309.8635 
L 253.579567 309.8635 
L 255.63669 309.8635 
L 257.627454 309.8635 
L 259.684577 309.8635 
L 261.675341 309.8635 
L 263.732464 309.8635 
L 265.789587 309.8635 
L 267.780352 309.8635 
L 269.837475 309.8635 
L 271.828239 309.8635 
L 273.885362 309.8635 
L 275.942485 309.8635 
L 277.800531 309.8635 
L 279.857654 309.8635 
L 281.848419 309.8635 
L 283.905542 309.8635 
L 285.896306 309.8635 
L 287.953429 309.8635 
L 290.010552 309.8635 
L 292.001316 309.8635 
L 294.058439 309.8635 
L 296.049203 309.8635 
L 298.106326 309.8635 
L 300.163449 309.8635 
L 302.087855 309.8635 
L 304.144978 309.8635 
L 306.135742 309.8635 
L 308.192865 309.8635 
L 310.183629 309.8635 
L 312.240752 309.8635 
L 314.297875 309.8635 
L 316.288639 309.8635 
L 318.345762 309.8635 
L 320.336526 309.8635 
L 322.393649 309.8635 
L 324.450772 309.8635 
L 326.308819 309.8635 
L 328.365942 309.8635 
L 330.356706 309.8635 
L 332.413829 309.8635 
L 334.404593 277.551645 
L 336.461716 309.8635 
L 338.51884 309.8635 
L 340.509604 309.8635 
L 342.566727 309.8635 
L 344.557491 309.8635 
L 346.614614 309.8635 
L 348.671737 309.8635 
L 350.529784 309.8635 
L 352.586907 309.8635 
L 354.577671 309.8635 
L 356.634794 309.8635 
L 358.625558 309.8635 
L 360.682681 309.8635 
L 362.739804 309.8635 
L 364.730568 309.8635 
L 366.787691 309.8635 
L 368.778455 309.8635 
L 370.835578 309.8635 
L 372.892701 309.8635 
L 374.750748 309.8635 
L 376.807871 309.8635 
L 378.798635 309.8635 
L 380.855758 309.8635 
L 382.846522 309.8635 
L 384.903645 309.8635 
L 386.960768 309.8635 
L 388.951533 309.8635 
L 391.008656 309.8635 
L 392.99942 309.8635 
L 395.056543 309.8635 
L 397.113666 309.8635 
L 399.038071 309.8635 
L 401.095194 309.8635 
L 403.085958 309.8635 
L 405.143081 309.8635 
L 407.133846 309.8635 
L 409.190969 309.8635 
L 411.248092 309.8635 
L 413.238856 309.8635 
L 415.295979 309.8635 
L 417.286743 309.8635 
L 419.343866 309.8635 
L 421.400989 309.8635 
L 423.259036 309.8635 
L 425.316159 309.8635 
L 427.306923 309.8635 
L 429.364046 309.8635 
L 431.35481 309.8635 
L 433.411933 309.8635 
L 435.469056 309.8635 
L 437.45982 309.8635 
L 439.516943 309.8635 
L 441.507707 309.8635 
L 443.56483 309.8635 
L 445.621953 309.8635 
L 447.48 309.8635 
L 447.48 309.8635 
L 447.48 309.8635 
L 445.621953 247.034893 
L 443.56483 276.055726 
L 441.507707 232.0757 
L 439.516943 276.354909 
L 437.45982 246.735709 
L 435.469056 240.452848 
L 433.411933 232.0757 
L 431.35481 162.066681 
L 429.364046 232.0757 
L 427.306923 309.8635 
L 425.316159 309.8635 
L 423.259036 309.8635 
L 421.400989 309.8635 
L 419.343866 309.8635 
L 417.286743 309.8635 
L 415.295979 309.8635 
L 413.238856 309.8635 
L 411.248092 309.8635 
L 409.190969 245.239789 
L 407.133846 235.665906 
L 405.143081 269.174497 
L 403.085958 309.8635 
L 401.095194 298.494514 
L 399.038071 309.8635 
L 397.113666 271.567968 
L 395.056543 309.8635 
L 392.99942 278.74838 
L 391.008656 308.666765 
L 388.951533 309.8635 
L 386.960768 307.170845 
L 384.903645 247.63326 
L 382.846522 309.8635 
L 380.855758 249.727547 
L 378.798635 309.8635 
L 376.807871 303.879823 
L 374.750748 309.8635 
L 372.892701 309.8635 
L 370.835578 309.8635 
L 368.778455 309.8635 
L 366.787691 276.055726 
L 364.730568 309.8635 
L 362.739804 309.8635 
L 360.682681 309.8635 
L 358.625558 309.8635 
L 356.634794 289.219815 
L 354.577671 309.8635 
L 352.586907 309.8635 
L 350.529784 309.8635 
L 348.671737 309.8635 
L 346.614614 309.8635 
L 344.557491 309.8635 
L 342.566727 309.8635 
L 340.509604 309.8635 
L 338.51884 309.8635 
L 336.461716 238.059377 
L 334.404593 189.890778 
L 332.413829 241.649583 
L 330.356706 309.8635 
L 328.365942 309.8635 
L 326.308819 309.8635 
L 324.450772 309.8635 
L 322.393649 309.8635 
L 320.336526 309.8635 
L 318.345762 309.8635 
L 316.288639 309.8635 
L 314.297875 309.8635 
L 312.240752 239.256113 
L 310.183629 309.8635 
L 308.192865 263.490004 
L 306.135742 309.8635 
L 304.144978 309.8635 
L 302.087855 309.8635 
L 300.163449 309.8635 
L 298.106326 309.8635 
L 296.049203 309.8635 
L 294.058439 309.8635 
L 292.001316 285.629609 
L 290.010552 309.8635 
L 287.953429 209.038544 
L 285.896306 240.452848 
L 283.905542 309.8635 
L 281.848419 309.8635 
L 279.857654 309.8635 
L 277.800531 309.8635 
L 275.942485 309.8635 
L 273.885362 309.8635 
L 271.828239 309.8635 
L 269.837475 309.8635 
L 267.780352 309.8635 
L 265.789587 309.8635 
L 263.732464 269.174497 
L 261.675341 309.8635 
L 259.684577 309.8635 
L 257.627454 309.8635 
L 255.63669 309.8635 
L 253.579567 309.8635 
L 251.72152 309.8635 
L 249.664397 309.8635 
L 247.607274 309.8635 
L 245.61651 309.8635 
L 243.559387 309.8635 
L 241.568623 309.8635 
L 239.5115 247.334076 
L 237.454377 234.169987 
L 235.463613 309.8635 
L 233.40649 279.945115 
L 231.415726 309.8635 
L 229.358603 309.8635 
L 227.500556 309.8635 
L 225.443433 309.8635 
L 223.38631 309.8635 
L 221.395546 309.8635 
L 219.338423 309.8635 
L 217.347659 309.8635 
L 215.290536 270.072049 
L 213.233413 272.465519 
L 211.242648 277.252461 
L 209.185525 309.8635 
L 207.194761 309.8635 
L 205.137638 309.8635 
L 203.213233 309.8635 
L 201.15611 309.8635 
L 199.098987 309.8635 
L 197.108223 309.8635 
L 195.0511 282.338586 
L 193.060335 272.465519 
L 191.003212 220.108346 
L 188.946089 221.305082 
L 186.955325 233.272436 
L 184.898202 218.911611 
L 182.907438 309.8635 
L 180.850315 309.8635 
L 178.992268 309.8635 
L 176.935145 309.8635 
L 174.878022 309.8635 
L 172.887258 266.781026 
L 170.830135 278.74838 
L 168.839371 309.8635 
L 166.782248 267.977762 
L 164.725125 181.51363 
L 162.734361 230.878965 
L 160.677238 309.8635 
L 158.686474 309.8635 
L 156.629351 309.8635 
L 154.771304 309.8635 
L 152.714181 309.8635 
L 150.657058 309.8635 
L 148.666294 309.8635 
L 146.609171 309.8635 
L 144.618407 278.74838 
L 142.561284 244.043054 
L 140.50416 217.714876 
L 138.513396 251.223466 
L 136.456273 309.8635 
L 134.465509 309.8635 
L 132.408386 309.8635 
L 130.55034 308.666765 
L 128.493216 259.600614 
L 126.436093 223.698553 
L 124.445329 218.612427 
L 122.388206 245.239789 
L 120.397442 276.354909 
L 118.340319 196.173639 
L 116.283196 184.206285 
L 114.292432 271.268784 
L 112.235309 266.781026 
L 110.244545 272.764703 
L 108.187422 279.945115 
L 106.263016 309.8635 
L 104.205893 309.8635 
L 102.14877 241.350399 
L 100.158006 265.584291 
L 98.100883 308.666765 
L 96.110119 226.092023 
L 94.052996 203.354051 
L 91.995873 203.054867 
L 90.005109 273.961439 
L 87.947986 283.834505 
L 85.957221 309.8635 
L 83.900098 309.8635 
L 82.042052 309.8635 
L 79.984929 309.8635 
L 77.927806 309.8635 
L 75.937042 309.8635 
L 73.879919 309.8635 
L 71.889154 194.976904 
L 69.832031 180.316895 
L 67.774908 174.632402 
L 65.784144 208.140993 
L 63.727021 264.387556 
L 61.736257 266.781026 
L 59.679134 265.584291 
L 57.821087 272.764703 
L 55.763964 245.838157 
L 53.706841 224.895288 
L 51.716077 229.68223 
L 49.658954 185.40302 
L 47.66819 191.386697 
L 45.611067 130.353193 
L 43.553944 81.287042 
L 41.56318 63.336012 
L 39.506057 77.696836 
L 37.515293 57.352335 
L 35.45817 247.334076 
L 33.600123 84.877249 
L 31.543 95.647867 
z
" style="fill:#808080;fill-opacity:0.6;"/>
   </g>
   <g id="matplotlib.axis_1">
    <g id="xtick_1">
     <g id="line2d_1">
      <path clip-path="url(#p9e67caeb00)" d="M 31.543 309.8635 
L 31.543 23.36505 
" style="fill:none;stroke:#b0b0b0;stroke-linecap:square;stroke-width:0.8;"/>
     </g>
     <g id="line2d_2">
      <defs>
       <path d="M 0 0 
L 0 3.5 
" id="m23961638b6" style="stroke:#000000;stroke-width:0.8;"/>
      </defs>
      <g>
       <use style="stroke:#000000;stroke-width:0.8;" x="31.543" xlink:href="#m23961638b6" y="309.8635"/>
      </g>
     </g>
     <g id="text_1">
      <!-- 2001 -->
      <defs>
       <path d="M 19.1875 8.296875 
L 53.609375 8.296875 
L 53.609375 0 
L 7.328125 0 
L 7.328125 8.296875 
Q 12.9375 14.109375 22.625 23.890625 
Q 32.328125 33.6875 34.8125 36.53125 
Q 39.546875 41.84375 41.421875 45.53125 
Q 43.3125 49.21875 43.3125 52.78125 
Q 43.3125 58.59375 39.234375 62.25 
Q 35.15625 65.921875 28.609375 65.921875 
Q 23.96875 65.921875 18.8125 64.3125 
Q 13.671875 62.703125 7.8125 59.421875 
L 7.8125 69.390625 
Q 13.765625 71.78125 18.9375 73 
Q 24.125 74.21875 28.421875 74.21875 
Q 39.75 74.21875 46.484375 68.546875 
Q 53.21875 62.890625 53.21875 53.421875 
Q 53.21875 48.921875 51.53125 44.890625 
Q 49.859375 40.875 45.40625 35.40625 
Q 44.1875 33.984375 37.640625 27.21875 
Q 31.109375 20.453125 19.1875 8.296875 
z
" id="DejaVuSans-32"/>
       <path d="M 31.78125 66.40625 
Q 24.171875 66.40625 20.328125 58.90625 
Q 16.5 51.421875 16.5 36.375 
Q 16.5 21.390625 20.328125 13.890625 
Q 24.171875 6.390625 31.78125 6.390625 
Q 39.453125 6.390625 43.28125 13.890625 
Q 47.125 21.390625 47.125 36.375 
Q 47.125 51.421875 43.28125 58.90625 
Q 39.453125 66.40625 31.78125 66.40625 
z
M 31.78125 74.21875 
Q 44.046875 74.21875 50.515625 64.515625 
Q 56.984375 54.828125 56.984375 36.375 
Q 56.984375 17.96875 50.515625 8.265625 
Q 44.046875 -1.421875 31.78125 -1.421875 
Q 19.53125 -1.421875 13.0625 8.265625 
Q 6.59375 17.96875 6.59375 36.375 
Q 6.59375 54.828125 13.0625 64.515625 
Q 19.53125 74.21875 31.78125 74.21875 
z
" id="DejaVuSans-30"/>
       <path d="M 12.40625 8.296875 
L 28.515625 8.296875 
L 28.515625 63.921875 
L 10.984375 60.40625 
L 10.984375 69.390625 
L 28.421875 72.90625 
L 38.28125 72.90625 
L 38.28125 8.296875 
L 54.390625 8.296875 
L 54.390625 0 
L 12.40625 0 
z
" id="DejaVuSans-31"/>
      </defs>
      <g transform="translate(18.818 324.461937)scale(0.1 -0.1)">
       <use xlink:href="#DejaVuSans-32"/>
       <use x="63.623047" xlink:href="#DejaVuSans-30"/>
       <use x="127.246094" xlink:href="#DejaVuSans-30"/>
       <use x="190.869141" xlink:href="#DejaVuSans-31"/>
      </g>
     </g>
    </g>
    <g id="xtick_2">
     <g id="line2d_3">
      <path clip-path="url(#p9e67caeb00)" d="M 79.984929 309.8635 
L 79.984929 23.36505 
" style="fill:none;stroke:#b0b0b0;stroke-linecap:square;stroke-width:0.8;"/>
     </g>
     <g id="line2d_4">
      <g>
       <use style="stroke:#000000;stroke-width:0.8;" x="79.984929" xlink:href="#m23961638b6" y="309.8635"/>
      </g>
     </g>
     <g id="text_2">
      <!-- 2003 -->
      <defs>
       <path d="M 40.578125 39.3125 
Q 47.65625 37.796875 51.625 33 
Q 55.609375 28.21875 55.609375 21.1875 
Q 55.609375 10.40625 48.1875 4.484375 
Q 40.765625 -1.421875 27.09375 -1.421875 
Q 22.515625 -1.421875 17.65625 -0.515625 
Q 12.796875 0.390625 7.625 2.203125 
L 7.625 11.71875 
Q 11.71875 9.328125 16.59375 8.109375 
Q 21.484375 6.890625 26.8125 6.890625 
Q 36.078125 6.890625 40.9375 10.546875 
Q 45.796875 14.203125 45.796875 21.1875 
Q 45.796875 27.640625 41.28125 31.265625 
Q 36.765625 34.90625 28.71875 34.90625 
L 20.21875 34.90625 
L 20.21875 43.015625 
L 29.109375 43.015625 
Q 36.375 43.015625 40.234375 45.921875 
Q 44.09375 48.828125 44.09375 54.296875 
Q 44.09375 59.90625 40.109375 62.90625 
Q 36.140625 65.921875 28.71875 65.921875 
Q 24.65625 65.921875 20.015625 65.03125 
Q 15.375 64.15625 9.8125 62.3125 
L 9.8125 71.09375 
Q 15.4375 72.65625 20.34375 73.4375 
Q 25.25 74.21875 29.59375 74.21875 
Q 40.828125 74.21875 47.359375 69.109375 
Q 53.90625 64.015625 53.90625 55.328125 
Q 53.90625 49.265625 50.4375 45.09375 
Q 46.96875 40.921875 40.578125 39.3125 
z
" id="DejaVuSans-33"/>
      </defs>
      <g transform="translate(67.259929 324.461937)scale(0.1 -0.1)">
       <use xlink:href="#DejaVuSans-32"/>
       <use x="63.623047" xlink:href="#DejaVuSans-30"/>
       <use x="127.246094" xlink:href="#DejaVuSans-30"/>
       <use x="190.869141" xlink:href="#DejaVuSans-33"/>
      </g>
     </g>
    </g>
    <g id="xtick_3">
     <g id="line2d_5">
      <path clip-path="url(#p9e67caeb00)" d="M 128.493216 309.8635 
L 128.493216 23.36505 
" style="fill:none;stroke:#b0b0b0;stroke-linecap:square;stroke-width:0.8;"/>
     </g>
     <g id="line2d_6">
      <g>
       <use style="stroke:#000000;stroke-width:0.8;" x="128.493216" xlink:href="#m23961638b6" y="309.8635"/>
      </g>
     </g>
     <g id="text_3">
      <!-- 2005 -->
      <defs>
       <path d="M 10.796875 72.90625 
L 49.515625 72.90625 
L 49.515625 64.59375 
L 19.828125 64.59375 
L 19.828125 46.734375 
Q 21.96875 47.46875 24.109375 47.828125 
Q 26.265625 48.1875 28.421875 48.1875 
Q 40.625 48.1875 47.75 41.5 
Q 54.890625 34.8125 54.890625 23.390625 
Q 54.890625 11.625 47.5625 5.09375 
Q 40.234375 -1.421875 26.90625 -1.421875 
Q 22.3125 -1.421875 17.546875 -0.640625 
Q 12.796875 0.140625 7.71875 1.703125 
L 7.71875 11.625 
Q 12.109375 9.234375 16.796875 8.0625 
Q 21.484375 6.890625 26.703125 6.890625 
Q 35.15625 6.890625 40.078125 11.328125 
Q 45.015625 15.765625 45.015625 23.390625 
Q 45.015625 31 40.078125 35.4375 
Q 35.15625 39.890625 26.703125 39.890625 
Q 22.75 39.890625 18.8125 39.015625 
Q 14.890625 38.140625 10.796875 36.28125 
z
" id="DejaVuSans-35"/>
      </defs>
      <g transform="translate(115.768216 324.461937)scale(0.1 -0.1)">
       <use xlink:href="#DejaVuSans-32"/>
       <use x="63.623047" xlink:href="#DejaVuSans-30"/>
       <use x="127.246094" xlink:href="#DejaVuSans-30"/>
       <use x="190.869141" xlink:href="#DejaVuSans-35"/>
      </g>
     </g>
    </g>
    <g id="xtick_4">
     <g id="line2d_7">
      <path clip-path="url(#p9e67caeb00)" d="M 176.935145 309.8635 
L 176.935145 23.36505 
" style="fill:none;stroke:#b0b0b0;stroke-linecap:square;stroke-width:0.8;"/>
     </g>
     <g id="line2d_8">
      <g>
       <use style="stroke:#000000;stroke-width:0.8;" x="176.935145" xlink:href="#m23961638b6" y="309.8635"/>
      </g>
     </g>
     <g id="text_4">
      <!-- 2007 -->
      <defs>
       <path d="M 8.203125 72.90625 
L 55.078125 72.90625 
L 55.078125 68.703125 
L 28.609375 0 
L 18.3125 0 
L 43.21875 64.59375 
L 8.203125 64.59375 
z
" id="DejaVuSans-37"/>
      </defs>
      <g transform="translate(164.210145 324.461937)scale(0.1 -0.1)">
       <use xlink:href="#DejaVuSans-32"/>
       <use x="63.623047" xlink:href="#DejaVuSans-30"/>
       <use x="127.246094" xlink:href="#DejaVuSans-30"/>
       <use x="190.869141" xlink:href="#DejaVuSans-37"/>
      </g>
     </g>
    </g>
    <g id="xtick_5">
     <g id="line2d_9">
      <path clip-path="url(#p9e67caeb00)" d="M 225.443433 309.8635 
L 225.443433 23.36505 
" style="fill:none;stroke:#b0b0b0;stroke-linecap:square;stroke-width:0.8;"/>
     </g>
     <g id="line2d_10">
      <g>
       <use style="stroke:#000000;stroke-width:0.8;" x="225.443433" xlink:href="#m23961638b6" y="309.8635"/>
      </g>
     </g>
     <g id="text_5">
      <!-- 2009 -->
      <defs>
       <path d="M 10.984375 1.515625 
L 10.984375 10.5 
Q 14.703125 8.734375 18.5 7.8125 
Q 22.3125 6.890625 25.984375 6.890625 
Q 35.75 6.890625 40.890625 13.453125 
Q 46.046875 20.015625 46.78125 33.40625 
Q 43.953125 29.203125 39.59375 26.953125 
Q 35.25 24.703125 29.984375 24.703125 
Q 19.046875 24.703125 12.671875 31.3125 
Q 6.296875 37.9375 6.296875 49.421875 
Q 6.296875 60.640625 12.9375 67.421875 
Q 19.578125 74.21875 30.609375 74.21875 
Q 43.265625 74.21875 49.921875 64.515625 
Q 56.59375 54.828125 56.59375 36.375 
Q 56.59375 19.140625 48.40625 8.859375 
Q 40.234375 -1.421875 26.421875 -1.421875 
Q 22.703125 -1.421875 18.890625 -0.6875 
Q 15.09375 0.046875 10.984375 1.515625 
z
M 30.609375 32.421875 
Q 37.25 32.421875 41.125 36.953125 
Q 45.015625 41.5 45.015625 49.421875 
Q 45.015625 57.28125 41.125 61.84375 
Q 37.25 66.40625 30.609375 66.40625 
Q 23.96875 66.40625 20.09375 61.84375 
Q 16.21875 57.28125 16.21875 49.421875 
Q 16.21875 41.5 20.09375 36.953125 
Q 23.96875 32.421875 30.609375 32.421875 
z
" id="DejaVuSans-39"/>
      </defs>
      <g transform="translate(212.718433 324.461937)scale(0.1 -0.1)">
       <use xlink:href="#DejaVuSans-32"/>
       <use x="63.623047" xlink:href="#DejaVuSans-30"/>
       <use x="127.246094" xlink:href="#DejaVuSans-30"/>
       <use x="190.869141" xlink:href="#DejaVuSans-39"/>
      </g>
     </g>
    </g>
    <g id="xtick_6">
     <g id="line2d_11">
      <path clip-path="url(#p9e67caeb00)" d="M 273.885362 309.8635 
L 273.885362 23.36505 
" style="fill:none;stroke:#b0b0b0;stroke-linecap:square;stroke-width:0.8;"/>
     </g>
     <g id="line2d_12">
      <g>
       <use style="stroke:#000000;stroke-width:0.8;" x="273.885362" xlink:href="#m23961638b6" y="309.8635"/>
      </g>
     </g>
     <g id="text_6">
      <!-- 2011 -->
      <g transform="translate(261.160362 324.461937)scale(0.1 -0.1)">
       <use xlink:href="#DejaVuSans-32"/>
       <use x="63.623047" xlink:href="#DejaVuSans-30"/>
       <use x="127.246094" xlink:href="#DejaVuSans-31"/>
       <use x="190.869141" xlink:href="#DejaVuSans-31"/>
      </g>
     </g>
    </g>
    <g id="xtick_7">
     <g id="line2d_13">
      <path clip-path="url(#p9e67caeb00)" d="M 322.393649 309.8635 
L 322.393649 23.36505 
" style="fill:none;stroke:#b0b0b0;stroke-linecap:square;stroke-width:0.8;"/>
     </g>
     <g id="line2d_14">
      <g>
       <use style="stroke:#000000;stroke-width:0.8;" x="322.393649" xlink:href="#m23961638b6" y="309.8635"/>
      </g>
     </g>
     <g id="text_7">
      <!-- 2013 -->
      <g transform="translate(309.668649 324.461937)scale(0.1 -0.1)">
       <use xlink:href="#DejaVuSans-32"/>
       <use x="63.623047" xlink:href="#DejaVuSans-30"/>
       <use x="127.246094" xlink:href="#DejaVuSans-31"/>
       <use x="190.869141" xlink:href="#DejaVuSans-33"/>
      </g>
     </g>
    </g>
    <g id="xtick_8">
     <g id="line2d_15">
      <path clip-path="url(#p9e67caeb00)" d="M 370.835578 309.8635 
L 370.835578 23.36505 
" style="fill:none;stroke:#b0b0b0;stroke-linecap:square;stroke-width:0.8;"/>
     </g>
     <g id="line2d_16">
      <g>
       <use style="stroke:#000000;stroke-width:0.8;" x="370.835578" xlink:href="#m23961638b6" y="309.8635"/>
      </g>
     </g>
     <g id="text_8">
      <!-- 2015 -->
      <g transform="translate(358.110578 324.461937)scale(0.1 -0.1)">
       <use xlink:href="#DejaVuSans-32"/>
       <use x="63.623047" xlink:href="#DejaVuSans-30"/>
       <use x="127.246094" xlink:href="#DejaVuSans-31"/>
       <use x="190.869141" xlink:href="#DejaVuSans-35"/>
      </g>
     </g>
    </g>
    <g id="xtick_9">
     <g id="line2d_17">
      <path clip-path="url(#p9e67caeb00)" d="M 419.343866 309.8635 
L 419.343866 23.36505 
" style="fill:none;stroke:#b0b0b0;stroke-linecap:square;stroke-width:0.8;"/>
     </g>
     <g id="line2d_18">
      <g>
       <use style="stroke:#000000;stroke-width:0.8;" x="419.343866" xlink:href="#m23961638b6" y="309.8635"/>
      </g>
     </g>
     <g id="text_9">
      <!-- 2017 -->
      <g transform="translate(406.618866 324.461937)scale(0.1 -0.1)">
       <use xlink:href="#DejaVuSans-32"/>
       <use x="63.623047" xlink:href="#DejaVuSans-30"/>
       <use x="127.246094" xlink:href="#DejaVuSans-31"/>
       <use x="190.869141" xlink:href="#DejaVuSans-37"/>
      </g>
     </g>
    </g>
    <g id="text_10">
     <!-- Date -->
     <defs>
      <path d="M 19.671875 64.796875 
L 19.671875 8.109375 
L 31.59375 8.109375 
Q 46.6875 8.109375 53.6875 14.9375 
Q 60.6875 21.78125 60.6875 36.53125 
Q 60.6875 51.171875 53.6875 57.984375 
Q 46.6875 64.796875 31.59375 64.796875 
z
M 9.8125 72.90625 
L 30.078125 72.90625 
Q 51.265625 72.90625 61.171875 64.09375 
Q 71.09375 55.28125 71.09375 36.53125 
Q 71.09375 17.671875 61.125 8.828125 
Q 51.171875 0 30.078125 0 
L 9.8125 0 
z
" id="DejaVuSans-44"/>
      <path d="M 34.28125 27.484375 
Q 23.390625 27.484375 19.1875 25 
Q 14.984375 22.515625 14.984375 16.5 
Q 14.984375 11.71875 18.140625 8.90625 
Q 21.296875 6.109375 26.703125 6.109375 
Q 34.1875 6.109375 38.703125 11.40625 
Q 43.21875 16.703125 43.21875 25.484375 
L 43.21875 27.484375 
z
M 52.203125 31.203125 
L 52.203125 0 
L 43.21875 0 
L 43.21875 8.296875 
Q 40.140625 3.328125 35.546875 0.953125 
Q 30.953125 -1.421875 24.3125 -1.421875 
Q 15.921875 -1.421875 10.953125 3.296875 
Q 6 8.015625 6 15.921875 
Q 6 25.140625 12.171875 29.828125 
Q 18.359375 34.515625 30.609375 34.515625 
L 43.21875 34.515625 
L 43.21875 35.40625 
Q 43.21875 41.609375 39.140625 45 
Q 35.0625 48.390625 27.6875 48.390625 
Q 23 48.390625 18.546875 47.265625 
Q 14.109375 46.140625 10.015625 43.890625 
L 10.015625 52.203125 
Q 14.9375 54.109375 19.578125 55.046875 
Q 24.21875 56 28.609375 56 
Q 40.484375 56 46.34375 49.84375 
Q 52.203125 43.703125 52.203125 31.203125 
z
" id="DejaVuSans-61"/>
      <path d="M 18.3125 70.21875 
L 18.3125 54.6875 
L 36.8125 54.6875 
L 36.8125 47.703125 
L 18.3125 47.703125 
L 18.3125 18.015625 
Q 18.3125 11.328125 20.140625 9.421875 
Q 21.96875 7.515625 27.59375 7.515625 
L 36.8125 7.515625 
L 36.8125 0 
L 27.59375 0 
Q 17.1875 0 13.234375 3.875 
Q 9.28125 7.765625 9.28125 18.015625 
L 9.28125 47.703125 
L 2.6875 47.703125 
L 2.6875 54.6875 
L 9.28125 54.6875 
L 9.28125 70.21875 
z
" id="DejaVuSans-74"/>
      <path d="M 56.203125 29.59375 
L 56.203125 25.203125 
L 14.890625 25.203125 
Q 15.484375 15.921875 20.484375 11.0625 
Q 25.484375 6.203125 34.421875 6.203125 
Q 39.59375 6.203125 44.453125 7.46875 
Q 49.3125 8.734375 54.109375 11.28125 
L 54.109375 2.78125 
Q 49.265625 0.734375 44.1875 -0.34375 
Q 39.109375 -1.421875 33.890625 -1.421875 
Q 20.796875 -1.421875 13.15625 6.1875 
Q 5.515625 13.8125 5.515625 26.8125 
Q 5.515625 40.234375 12.765625 48.109375 
Q 20.015625 56 32.328125 56 
Q 43.359375 56 49.78125 48.890625 
Q 56.203125 41.796875 56.203125 29.59375 
z
M 47.21875 32.234375 
Q 47.125 39.59375 43.09375 43.984375 
Q 39.0625 48.390625 32.421875 48.390625 
Q 24.90625 48.390625 20.390625 44.140625 
Q 15.875 39.890625 15.1875 32.171875 
z
" id="DejaVuSans-65"/>
     </defs>
     <g transform="translate(227.560719 338.140062)scale(0.1 -0.1)">
      <use xlink:href="#DejaVuSans-44"/>
      <use x="77.001953" xlink:href="#DejaVuSans-61"/>
      <use x="138.28125" xlink:href="#DejaVuSans-74"/>
      <use x="177.490234" xlink:href="#DejaVuSans-65"/>
     </g>
    </g>
   </g>
   <g id="matplotlib.axis_2">
    <g id="ytick_1">
     <g id="line2d_19">
      <path clip-path="url(#p9e67caeb00)" d="M 31.543 309.8635 
L 447.48 309.8635 
" style="fill:none;stroke:#b0b0b0;stroke-linecap:square;stroke-width:0.8;"/>
     </g>
     <g id="line2d_20">
      <defs>
       <path d="M 0 0 
L -3.5 0 
" id="mf82ffd77ac" style="stroke:#000000;stroke-width:0.8;"/>
      </defs>
      <g>
       <use style="stroke:#000000;stroke-width:0.8;" x="31.543" xlink:href="#mf82ffd77ac" y="309.8635"/>
      </g>
     </g>
     <g id="text_11">
      <!-- 0 -->
      <g transform="translate(18.1805 313.662719)scale(0.1 -0.1)">
       <use xlink:href="#DejaVuSans-30"/>
      </g>
     </g>
    </g>
    <g id="ytick_2">
     <g id="line2d_21">
      <path clip-path="url(#p9e67caeb00)" d="M 31.543 250.026731 
L 447.48 250.026731 
" style="fill:none;stroke:#b0b0b0;stroke-linecap:square;stroke-width:0.8;"/>
     </g>
     <g id="line2d_22">
      <g>
       <use style="stroke:#000000;stroke-width:0.8;" x="31.543" xlink:href="#mf82ffd77ac" y="250.026731"/>
      </g>
     </g>
     <g id="text_12">
      <!-- 50 -->
      <g transform="translate(11.818 253.82595)scale(0.1 -0.1)">
       <use xlink:href="#DejaVuSans-35"/>
       <use x="63.623047" xlink:href="#DejaVuSans-30"/>
      </g>
     </g>
    </g>
    <g id="ytick_3">
     <g id="line2d_23">
      <path clip-path="url(#p9e67caeb00)" d="M 31.543 190.189962 
L 447.48 190.189962 
" style="fill:none;stroke:#b0b0b0;stroke-linecap:square;stroke-width:0.8;"/>
     </g>
     <g id="line2d_24">
      <g>
       <use style="stroke:#000000;stroke-width:0.8;" x="31.543" xlink:href="#mf82ffd77ac" y="190.189962"/>
      </g>
     </g>
     <g id="text_13">
      <!-- 100 -->
      <g transform="translate(5.4555 193.989181)scale(0.1 -0.1)">
       <use xlink:href="#DejaVuSans-31"/>
       <use x="63.623047" xlink:href="#DejaVuSans-30"/>
       <use x="127.246094" xlink:href="#DejaVuSans-30"/>
      </g>
     </g>
    </g>
    <g id="ytick_4">
     <g id="line2d_25">
      <path clip-path="url(#p9e67caeb00)" d="M 31.543 130.353193 
L 447.48 130.353193 
" style="fill:none;stroke:#b0b0b0;stroke-linecap:square;stroke-width:0.8;"/>
     </g>
     <g id="line2d_26">
      <g>
       <use style="stroke:#000000;stroke-width:0.8;" x="31.543" xlink:href="#mf82ffd77ac" y="130.353193"/>
      </g>
     </g>
     <g id="text_14">
      <!-- 150 -->
      <g transform="translate(5.4555 134.152412)scale(0.1 -0.1)">
       <use xlink:href="#DejaVuSans-31"/>
       <use x="63.623047" xlink:href="#DejaVuSans-35"/>
       <use x="127.246094" xlink:href="#DejaVuSans-30"/>
      </g>
     </g>
    </g>
    <g id="ytick_5">
     <g id="line2d_27">
      <path clip-path="url(#p9e67caeb00)" d="M 31.543 70.516424 
L 447.48 70.516424 
" style="fill:none;stroke:#b0b0b0;stroke-linecap:square;stroke-width:0.8;"/>
     </g>
     <g id="line2d_28">
      <g>
       <use style="stroke:#000000;stroke-width:0.8;" x="31.543" xlink:href="#mf82ffd77ac" y="70.516424"/>
      </g>
     </g>
     <g id="text_15">
      <!-- 200 -->
      <g transform="translate(5.4555 74.315643)scale(0.1 -0.1)">
       <use xlink:href="#DejaVuSans-32"/>
       <use x="63.623047" xlink:href="#DejaVuSans-30"/>
       <use x="127.246094" xlink:href="#DejaVuSans-30"/>
      </g>
     </g>
    </g>
   </g>
   <g id="line2d_29">
    <path clip-path="url(#p9e67caeb00)" d="M 31.543 152.492798 
L 33.600123 131.549928 
L 35.45817 309.8635 
L 37.515293 93.852764 
L 39.506057 180.017711 
L 41.56318 132.148296 
L 43.553944 136.33687 
L 45.611067 221.305082 
L 47.66819 257.207143 
L 49.658954 233.272436 
L 51.716077 282.936954 
L 53.706841 281.141851 
L 55.763964 308.666765 
L 57.821087 309.8635 
L 59.679134 278.74838 
L 61.736257 309.8635 
L 63.727021 309.8635 
L 65.784144 247.034893 
L 67.774908 223.698553 
L 69.832031 224.895288 
L 71.889154 241.051216 
L 73.879919 309.8635 
L 90.005109 309.8635 
L 91.995873 242.846319 
L 94.052996 258.403879 
L 96.110119 309.8635 
L 110.244545 309.8635 
L 112.235309 308.666765 
L 114.292432 309.8635 
L 116.283196 242.846319 
L 118.340319 265.584291 
L 120.397442 309.8635 
L 124.445329 251.223466 
L 126.436093 248.829996 
L 128.493216 282.338586 
L 130.55034 309.8635 
L 138.513396 309.8635 
L 140.50416 248.829996 
L 142.561284 308.068397 
L 144.618407 309.8635 
L 160.677238 309.8635 
L 162.734361 276.354909 
L 164.725125 247.63326 
L 166.782248 309.8635 
L 182.907438 309.8635 
L 184.898202 253.616937 
L 186.955325 309.8635 
L 188.946089 291.314102 
L 191.003212 309.8635 
L 285.896306 309.8635 
L 287.953429 277.551645 
L 290.010552 309.8635 
L 332.413829 309.8635 
L 334.404593 267.379394 
L 336.461716 309.8635 
L 429.364046 309.8635 
L 431.35481 243.444686 
L 433.411933 309.8635 
L 443.56483 309.8635 
L 445.621953 303.879823 
L 447.48 309.8635 
L 447.48 309.8635 
" style="fill:none;stroke:#1f77b4;stroke-linecap:square;stroke-width:1.5;"/>
   </g>
   <g id="patch_3">
    <path d="M 31.543 309.8635 
L 31.543 23.36505 
" style="fill:none;stroke:#000000;stroke-linecap:square;stroke-linejoin:miter;stroke-width:0.8;"/>
   </g>
   <g id="patch_4">
    <path d="M 447.48 309.8635 
L 447.48 23.36505 
" style="fill:none;stroke:#000000;stroke-linecap:square;stroke-linejoin:miter;stroke-width:0.8;"/>
   </g>
   <g id="patch_5">
    <path d="M 31.543 309.8635 
L 447.48 309.8635 
" style="fill:none;stroke:#000000;stroke-linecap:square;stroke-linejoin:miter;stroke-width:0.8;"/>
   </g>
   <g id="patch_6">
    <path d="M 31.543 23.36505 
L 447.48 23.36505 
" style="fill:none;stroke:#000000;stroke-linecap:square;stroke-linejoin:miter;stroke-width:0.8;"/>
   </g>
   <g id="text_16">
    <!-- Monthly gross load trend (MW) -->
    <defs>
     <path d="M 9.8125 72.90625 
L 24.515625 72.90625 
L 43.109375 23.296875 
L 61.8125 72.90625 
L 76.515625 72.90625 
L 76.515625 0 
L 66.890625 0 
L 66.890625 64.015625 
L 48.09375 14.015625 
L 38.1875 14.015625 
L 19.390625 64.015625 
L 19.390625 0 
L 9.8125 0 
z
" id="DejaVuSans-4d"/>
     <path d="M 30.609375 48.390625 
Q 23.390625 48.390625 19.1875 42.75 
Q 14.984375 37.109375 14.984375 27.296875 
Q 14.984375 17.484375 19.15625 11.84375 
Q 23.34375 6.203125 30.609375 6.203125 
Q 37.796875 6.203125 41.984375 11.859375 
Q 46.1875 17.53125 46.1875 27.296875 
Q 46.1875 37.015625 41.984375 42.703125 
Q 37.796875 48.390625 30.609375 48.390625 
z
M 30.609375 56 
Q 42.328125 56 49.015625 48.375 
Q 55.71875 40.765625 55.71875 27.296875 
Q 55.71875 13.875 49.015625 6.21875 
Q 42.328125 -1.421875 30.609375 -1.421875 
Q 18.84375 -1.421875 12.171875 6.21875 
Q 5.515625 13.875 5.515625 27.296875 
Q 5.515625 40.765625 12.171875 48.375 
Q 18.84375 56 30.609375 56 
z
" id="DejaVuSans-6f"/>
     <path d="M 54.890625 33.015625 
L 54.890625 0 
L 45.90625 0 
L 45.90625 32.71875 
Q 45.90625 40.484375 42.875 44.328125 
Q 39.84375 48.1875 33.796875 48.1875 
Q 26.515625 48.1875 22.3125 43.546875 
Q 18.109375 38.921875 18.109375 30.90625 
L 18.109375 0 
L 9.078125 0 
L 9.078125 54.6875 
L 18.109375 54.6875 
L 18.109375 46.1875 
Q 21.34375 51.125 25.703125 53.5625 
Q 30.078125 56 35.796875 56 
Q 45.21875 56 50.046875 50.171875 
Q 54.890625 44.34375 54.890625 33.015625 
z
" id="DejaVuSans-6e"/>
     <path d="M 54.890625 33.015625 
L 54.890625 0 
L 45.90625 0 
L 45.90625 32.71875 
Q 45.90625 40.484375 42.875 44.328125 
Q 39.84375 48.1875 33.796875 48.1875 
Q 26.515625 48.1875 22.3125 43.546875 
Q 18.109375 38.921875 18.109375 30.90625 
L 18.109375 0 
L 9.078125 0 
L 9.078125 75.984375 
L 18.109375 75.984375 
L 18.109375 46.1875 
Q 21.34375 51.125 25.703125 53.5625 
Q 30.078125 56 35.796875 56 
Q 45.21875 56 50.046875 50.171875 
Q 54.890625 44.34375 54.890625 33.015625 
z
" id="DejaVuSans-68"/>
     <path d="M 9.421875 75.984375 
L 18.40625 75.984375 
L 18.40625 0 
L 9.421875 0 
z
" id="DejaVuSans-6c"/>
     <path d="M 32.171875 -5.078125 
Q 28.375 -14.84375 24.75 -17.8125 
Q 21.140625 -20.796875 15.09375 -20.796875 
L 7.90625 -20.796875 
L 7.90625 -13.28125 
L 13.1875 -13.28125 
Q 16.890625 -13.28125 18.9375 -11.515625 
Q 21 -9.765625 23.484375 -3.21875 
L 25.09375 0.875 
L 2.984375 54.6875 
L 12.5 54.6875 
L 29.59375 11.921875 
L 46.6875 54.6875 
L 56.203125 54.6875 
z
" id="DejaVuSans-79"/>
     <path id="DejaVuSans-20"/>
     <path d="M 45.40625 27.984375 
Q 45.40625 37.75 41.375 43.109375 
Q 37.359375 48.484375 30.078125 48.484375 
Q 22.859375 48.484375 18.828125 43.109375 
Q 14.796875 37.75 14.796875 27.984375 
Q 14.796875 18.265625 18.828125 12.890625 
Q 22.859375 7.515625 30.078125 7.515625 
Q 37.359375 7.515625 41.375 12.890625 
Q 45.40625 18.265625 45.40625 27.984375 
z
M 54.390625 6.78125 
Q 54.390625 -7.171875 48.1875 -13.984375 
Q 42 -20.796875 29.203125 -20.796875 
Q 24.46875 -20.796875 20.265625 -20.09375 
Q 16.0625 -19.390625 12.109375 -17.921875 
L 12.109375 -9.1875 
Q 16.0625 -11.328125 19.921875 -12.34375 
Q 23.78125 -13.375 27.78125 -13.375 
Q 36.625 -13.375 41.015625 -8.765625 
Q 45.40625 -4.15625 45.40625 5.171875 
L 45.40625 9.625 
Q 42.625 4.78125 38.28125 2.390625 
Q 33.9375 0 27.875 0 
Q 17.828125 0 11.671875 7.65625 
Q 5.515625 15.328125 5.515625 27.984375 
Q 5.515625 40.671875 11.671875 48.328125 
Q 17.828125 56 27.875 56 
Q 33.9375 56 38.28125 53.609375 
Q 42.625 51.21875 45.40625 46.390625 
L 45.40625 54.6875 
L 54.390625 54.6875 
z
" id="DejaVuSans-67"/>
     <path d="M 41.109375 46.296875 
Q 39.59375 47.171875 37.8125 47.578125 
Q 36.03125 48 33.890625 48 
Q 26.265625 48 22.1875 43.046875 
Q 18.109375 38.09375 18.109375 28.8125 
L 18.109375 0 
L 9.078125 0 
L 9.078125 54.6875 
L 18.109375 54.6875 
L 18.109375 46.1875 
Q 20.953125 51.171875 25.484375 53.578125 
Q 30.03125 56 36.53125 56 
Q 37.453125 56 38.578125 55.875 
Q 39.703125 55.765625 41.0625 55.515625 
z
" id="DejaVuSans-72"/>
     <path d="M 44.28125 53.078125 
L 44.28125 44.578125 
Q 40.484375 46.53125 36.375 47.5 
Q 32.28125 48.484375 27.875 48.484375 
Q 21.1875 48.484375 17.84375 46.4375 
Q 14.5 44.390625 14.5 40.28125 
Q 14.5 37.15625 16.890625 35.375 
Q 19.28125 33.59375 26.515625 31.984375 
L 29.59375 31.296875 
Q 39.15625 29.25 43.1875 25.515625 
Q 47.21875 21.78125 47.21875 15.09375 
Q 47.21875 7.46875 41.1875 3.015625 
Q 35.15625 -1.421875 24.609375 -1.421875 
Q 20.21875 -1.421875 15.453125 -0.5625 
Q 10.6875 0.296875 5.421875 2 
L 5.421875 11.28125 
Q 10.40625 8.6875 15.234375 7.390625 
Q 20.0625 6.109375 24.8125 6.109375 
Q 31.15625 6.109375 34.5625 8.28125 
Q 37.984375 10.453125 37.984375 14.40625 
Q 37.984375 18.0625 35.515625 20.015625 
Q 33.0625 21.96875 24.703125 23.78125 
L 21.578125 24.515625 
Q 13.234375 26.265625 9.515625 29.90625 
Q 5.8125 33.546875 5.8125 39.890625 
Q 5.8125 47.609375 11.28125 51.796875 
Q 16.75 56 26.8125 56 
Q 31.78125 56 36.171875 55.265625 
Q 40.578125 54.546875 44.28125 53.078125 
z
" id="DejaVuSans-73"/>
     <path d="M 45.40625 46.390625 
L 45.40625 75.984375 
L 54.390625 75.984375 
L 54.390625 0 
L 45.40625 0 
L 45.40625 8.203125 
Q 42.578125 3.328125 38.25 0.953125 
Q 33.9375 -1.421875 27.875 -1.421875 
Q 17.96875 -1.421875 11.734375 6.484375 
Q 5.515625 14.40625 5.515625 27.296875 
Q 5.515625 40.1875 11.734375 48.09375 
Q 17.96875 56 27.875 56 
Q 33.9375 56 38.25 53.625 
Q 42.578125 51.265625 45.40625 46.390625 
z
M 14.796875 27.296875 
Q 14.796875 17.390625 18.875 11.75 
Q 22.953125 6.109375 30.078125 6.109375 
Q 37.203125 6.109375 41.296875 11.75 
Q 45.40625 17.390625 45.40625 27.296875 
Q 45.40625 37.203125 41.296875 42.84375 
Q 37.203125 48.484375 30.078125 48.484375 
Q 22.953125 48.484375 18.875 42.84375 
Q 14.796875 37.203125 14.796875 27.296875 
z
" id="DejaVuSans-64"/>
     <path d="M 31 75.875 
Q 24.46875 64.65625 21.28125 53.65625 
Q 18.109375 42.671875 18.109375 31.390625 
Q 18.109375 20.125 21.3125 9.0625 
Q 24.515625 -2 31 -13.1875 
L 23.1875 -13.1875 
Q 15.875 -1.703125 12.234375 9.375 
Q 8.59375 20.453125 8.59375 31.390625 
Q 8.59375 42.28125 12.203125 53.3125 
Q 15.828125 64.359375 23.1875 75.875 
z
" id="DejaVuSans-28"/>
     <path d="M 3.328125 72.90625 
L 13.28125 72.90625 
L 28.609375 11.28125 
L 43.890625 72.90625 
L 54.984375 72.90625 
L 70.3125 11.28125 
L 85.59375 72.90625 
L 95.609375 72.90625 
L 77.296875 0 
L 64.890625 0 
L 49.515625 63.28125 
L 33.984375 0 
L 21.578125 0 
z
" id="DejaVuSans-57"/>
     <path d="M 8.015625 75.875 
L 15.828125 75.875 
Q 23.140625 64.359375 26.78125 53.3125 
Q 30.421875 42.28125 30.421875 31.390625 
Q 30.421875 20.453125 26.78125 9.375 
Q 23.140625 -1.703125 15.828125 -13.1875 
L 8.015625 -13.1875 
Q 14.5 -2 17.703125 9.0625 
Q 20.90625 20.125 20.90625 31.390625 
Q 20.90625 42.671875 17.703125 53.65625 
Q 14.5 64.65625 8.015625 75.875 
z
" id="DejaVuSans-29"/>
    </defs>
    <g transform="translate(146.928688 17.36505)scale(0.12 -0.12)">
     <use xlink:href="#DejaVuSans-4d"/>
     <use x="86.279297" xlink:href="#DejaVuSans-6f"/>
     <use x="147.460938" xlink:href="#DejaVuSans-6e"/>
     <use x="210.839844" xlink:href="#DejaVuSans-74"/>
     <use x="250.048828" xlink:href="#DejaVuSans-68"/>
     <use x="313.427734" xlink:href="#DejaVuSans-6c"/>
     <use x="341.210938" xlink:href="#DejaVuSans-79"/>
     <use x="400.390625" xlink:href="#DejaVuSans-20"/>
     <use x="432.177734" xlink:href="#DejaVuSans-67"/>
     <use x="495.654297" xlink:href="#DejaVuSans-72"/>
     <use x="536.736328" xlink:href="#DejaVuSans-6f"/>
     <use x="597.917969" xlink:href="#DejaVuSans-73"/>
     <use x="650.017578" xlink:href="#DejaVuSans-73"/>
     <use x="702.117188" xlink:href="#DejaVuSans-20"/>
     <use x="733.904297" xlink:href="#DejaVuSans-6c"/>
     <use x="761.6875" xlink:href="#DejaVuSans-6f"/>
     <use x="822.869141" xlink:href="#DejaVuSans-61"/>
     <use x="884.148438" xlink:href="#DejaVuSans-64"/>
     <use x="947.625" xlink:href="#DejaVuSans-20"/>
     <use x="979.412109" xlink:href="#DejaVuSans-74"/>
     <use x="1018.621094" xlink:href="#DejaVuSans-72"/>
     <use x="1059.703125" xlink:href="#DejaVuSans-65"/>
     <use x="1121.226562" xlink:href="#DejaVuSans-6e"/>
     <use x="1184.605469" xlink:href="#DejaVuSans-64"/>
     <use x="1248.082031" xlink:href="#DejaVuSans-20"/>
     <use x="1279.869141" xlink:href="#DejaVuSans-28"/>
     <use x="1318.882812" xlink:href="#DejaVuSans-4d"/>
     <use x="1405.162109" xlink:href="#DejaVuSans-57"/>
     <use x="1504.039062" xlink:href="#DejaVuSans-29"/>
    </g>
   </g>
  </g>
 </g>
 <defs>
  <clipPath id="p9e67caeb00">
   <rect height="286.49845" width="415.937" x="31.543" y="23.36505"/>
  </clipPath>
 </defs>
</svg>
