<?xml version="1.0" encoding="utf-8" standalone="no"?>
<!DOCTYPE svg PUBLIC "-//W3C//DTD SVG 1.1//EN"
  "http://www.w3.org/Graphics/SVG/1.1/DTD/svg11.dtd">
<!-- Created with matplotlib (http://matplotlib.org/) -->
<svg height="345.6pt" version="1.1" viewBox="0 0 460.8 345.6" width="460.8pt" xmlns="http://www.w3.org/2000/svg" xmlns:xlink="http://www.w3.org/1999/xlink">
 <defs>
  <style type="text/css">
*{stroke-linecap:butt;stroke-linejoin:round;}
  </style>
 </defs>
 <g id="figure_1">
  <g id="patch_1">
   <path d="M 0 345.6 
L 460.8 345.6 
L 460.8 0 
L 0 0 
z
" style="fill:none;"/>
  </g>
  <g id="axes_1">
   <g id="patch_2">
    <path d="M 31.543 309.8635 
L 447.48 309.8635 
L 447.48 23.36505 
L 31.543 23.36505 
z
" style="fill:none;"/>
   </g>
   <g id="PolyCollection_1">
    <path clip-path="url(#pe5760e0fb9)" d="M 31.543 133.487185 
L 31.543 231.850899 
L 33.401047 237.503986 
L 35.45817 235.996496 
L 37.448934 288.004897 
L 39.506057 232.981517 
L 41.496821 219.414108 
L 43.553944 246.548925 
L 45.611067 196.048015 
L 47.601831 222.429087 
L 49.658954 289.135514 
L 51.649718 248.433288 
L 53.706841 309.8635 
L 55.763964 230.720282 
L 57.622011 228.459047 
L 59.679134 243.910818 
L 61.669898 276.32185 
L 63.727021 229.966537 
L 65.717785 280.467448 
L 67.774908 259.739462 
L 69.832031 249.187033 
L 71.822796 250.694523 
L 73.879919 275.191233 
L 75.870683 246.172053 
L 77.927806 239.388349 
L 79.984929 265.769421 
L 81.842975 241.649583 
L 83.900098 253.33263 
L 85.890863 247.679543 
L 87.947986 242.026456 
L 89.93875 251.448267 
L 91.995873 238.634604 
L 94.052996 268.784401 
L 96.04376 213.761021 
L 98.100883 244.287691 
L 100.091647 295.542346 
L 102.14877 245.041436 
L 104.205893 227.705302 
L 106.130299 240.895838 
L 108.187422 256.724482 
L 110.178186 297.426709 
L 112.235309 257.855099 
L 114.226073 232.604644 
L 116.283196 250.694523 
L 118.340319 230.720282 
L 120.331083 227.32843 
L 122.388206 237.127114 
L 124.37897 223.559705 
L 126.436093 240.142093 
L 128.493216 214.891638 
L 130.351263 262.000697 
L 132.408386 303.833541 
L 134.39915 210.369169 
L 136.456273 228.082174 
L 138.447037 242.026456 
L 140.50416 213.384148 
L 142.561284 202.077974 
L 144.552048 237.127114 
L 146.609171 267.276911 
L 148.599935 249.187033 
L 150.657058 238.634604 
L 152.714181 239.011476 
L 154.572228 242.026456 
L 156.629351 240.895838 
L 158.620115 245.041436 
L 160.677238 217.152873 
L 162.668002 215.268511 
L 164.725125 263.508186 
L 166.782248 196.424887 
L 168.773012 245.041436 
L 170.830135 266.523166 
L 172.820899 249.940778 
L 174.878022 294.034856 
L 176.935145 207.354189 
L 178.793192 294.788601 
L 180.850315 239.388349 
L 182.841079 266.146294 
L 184.898202 221.675343 
L 186.888966 216.022256 
L 188.946089 248.433288 
L 191.003212 248.81016 
L 192.993977 201.324229 
L 195.0511 228.835919 
L 197.041864 235.996496 
L 199.098987 242.403328 
L 201.15611 194.917397 
L 203.080515 236.373369 
L 205.137638 247.679543 
L 207.128402 258.985717 
L 209.185525 225.82094 
L 211.17629 238.257731 
L 213.233413 228.082174 
L 215.290536 243.157073 
L 217.2813 242.026456 
L 219.338423 236.373369 
L 221.329187 245.79518 
L 223.38631 247.30267 
L 225.443433 263.131314 
L 227.30148 252.202012 
L 229.358603 289.135514 
L 231.349367 275.191233 
L 233.40649 281.598065 
L 235.397254 272.929998 
L 237.454377 245.418308 
L 239.5115 262.377569 
L 241.502264 260.493207 
L 243.559387 266.523166 
L 245.550151 281.221192 
L 247.607274 289.135514 
L 249.664397 272.176253 
L 251.522444 246.172053 
L 253.579567 307.979138 
L 255.570331 287.251152 
L 257.627454 309.8635 
L 259.618218 264.638804 
L 261.675341 260.870079 
L 263.732464 265.015676 
L 265.723229 253.709502 
L 267.780352 273.683743 
L 269.771116 263.131314 
L 271.828239 252.955757 
L 273.885362 247.679543 
L 275.743408 252.202012 
L 277.800531 309.8635 
L 279.791296 287.251152 
L 281.848419 284.613045 
L 283.839183 263.885059 
L 285.896306 248.81016 
L 287.953429 235.619624 
L 289.944193 246.925798 
L 292.001316 268.407529 
L 293.99208 302.326051 
L 296.049203 261.246952 
L 298.106326 263.508186 
L 300.030732 285.743662 
L 302.087855 298.557326 
L 304.078619 297.049836 
L 306.135742 288.381769 
L 308.126506 265.015676 
L 310.183629 264.638804 
L 312.240752 251.071395 
L 314.231516 264.638804 
L 316.288639 261.623824 
L 318.279403 249.563905 
L 320.336526 265.392549 
L 322.393649 251.448267 
L 324.251696 269.915018 
L 326.308819 257.101355 
L 328.299583 260.116334 
L 330.356706 266.523166 
L 332.34747 237.880859 
L 334.404593 228.082174 
L 336.461716 265.392549 
L 338.452481 271.799381 
L 340.509604 275.944978 
L 342.500368 248.056415 
L 344.557491 234.489006 
L 346.614614 266.523166 
L 348.47266 222.80596 
L 350.529784 272.929998 
L 352.520548 279.33683 
L 354.577671 250.31765 
L 356.568435 248.433288 
L 358.625558 205.846699 
L 360.682681 219.414108 
L 362.673445 247.679543 
L 364.730568 238.257731 
L 366.721332 242.026456 
L 368.778455 254.463247 
L 370.835578 259.739462 
L 372.693625 266.523166 
L 374.750748 287.251152 
L 376.741512 283.8593 
L 378.798635 309.8635 
L 380.789399 265.392549 
L 382.846522 266.900039 
L 384.903645 261.246952 
L 386.89441 268.407529 
L 388.951533 266.523166 
L 390.942297 266.523166 
L 392.99942 298.934198 
L 395.056543 272.553126 
L 396.980948 286.874279 
L 399.038071 287.251152 
L 401.028835 265.392549 
L 403.085958 264.638804 
L 405.076723 256.34761 
L 407.133846 257.478227 
L 409.190969 265.015676 
L 411.181733 266.146294 
L 413.238856 267.276911 
L 415.22962 286.874279 
L 417.286743 272.176253 
L 419.343866 286.874279 
L 421.201913 284.236172 
L 423.259036 288.381769 
L 425.2498 289.135514 
L 427.306923 279.713703 
L 429.297687 272.176253 
L 431.35481 266.523166 
L 433.411933 255.216992 
L 435.402697 309.8635 
L 437.45982 309.8635 
L 439.450584 287.251152 
L 441.507707 301.572306 
L 443.56483 274.060616 
L 445.422877 291.019877 
L 447.48 291.019877 
L 447.48 221.675343 
L 447.48 221.675343 
L 445.422877 211.876658 
L 443.56483 163.636983 
L 441.507707 221.29847 
L 439.450584 222.052215 
L 437.45982 220.167853 
L 435.402697 129.71846 
L 433.411933 120.673521 
L 431.35481 127.080353 
L 429.297687 119.166031 
L 427.306923 134.617802 
L 425.2498 221.675343 
L 423.259036 161.375748 
L 421.201913 155.345788 
L 419.343866 149.315829 
L 417.286743 148.562084 
L 415.22962 148.938956 
L 413.238856 148.185211 
L 411.181733 149.315829 
L 409.190969 120.673521 
L 407.133846 123.311628 
L 405.076723 120.296649 
L 403.085958 133.487185 
L 401.028835 148.562084 
L 399.038071 151.577064 
L 396.980948 150.446446 
L 395.056543 148.185211 
L 392.99942 147.808339 
L 390.942297 148.185211 
L 388.951533 148.185211 
L 386.89441 148.562084 
L 384.903645 119.919776 
L 382.846522 117.281669 
L 380.789399 116.151052 
L 378.798635 151.200191 
L 376.741512 218.28349 
L 374.750748 150.823319 
L 372.693625 148.185211 
L 370.835578 148.185211 
L 368.778455 148.185211 
L 366.721332 147.808339 
L 364.730568 160.24513 
L 362.673445 148.562084 
L 360.682681 148.562084 
L 358.625558 148.562084 
L 356.568435 138.386527 
L 354.577671 147.808339 
L 352.520548 153.084553 
L 350.529784 163.26011 
L 348.47266 147.808339 
L 346.614614 147.808339 
L 344.557491 147.431466 
L 342.500368 154.215171 
L 340.509604 156.476406 
L 338.452481 149.692701 
L 336.461716 146.300849 
L 334.404593 121.427266 
L 332.34747 116.904797 
L 330.356706 149.692701 
L 328.299583 148.562084 
L 326.308819 164.390727 
L 324.251696 163.636983 
L 322.393649 148.938956 
L 320.336526 165.144472 
L 318.279403 182.480606 
L 316.288639 170.797559 
L 314.231516 154.592043 
L 312.240752 142.908997 
L 310.183629 148.562084 
L 308.126506 164.013855 
L 306.135742 161.375748 
L 304.078619 237.880859 
L 302.087855 203.208592 
L 300.030732 188.887438 
L 298.106326 186.249331 
L 296.049203 183.234351 
L 293.99208 176.827519 
L 292.001316 151.200191 
L 289.944193 150.446446 
L 287.953429 147.431466 
L 285.896306 150.446446 
L 283.839183 150.069574 
L 281.848419 163.636983 
L 279.791296 232.981517 
L 277.800531 190.018055 
L 275.743408 151.200191 
L 273.885362 150.446446 
L 271.828239 153.838298 
L 269.771116 153.461426 
L 267.780352 148.938956 
L 265.723229 148.185211 
L 263.732464 122.181011 
L 261.675341 143.285869 
L 259.618218 147.054594 
L 257.627454 150.446446 
L 255.570331 165.898217 
L 253.579567 176.073774 
L 251.522444 173.812539 
L 249.664397 158.360768 
L 247.607274 150.823319 
L 245.550151 153.084553 
L 243.559387 148.185211 
L 241.502264 148.562084 
L 239.5115 145.547104 
L 237.454377 117.658541 
L 235.397254 148.938956 
L 233.40649 147.431466 
L 231.349367 196.80176 
L 229.358603 164.7676 
L 227.30148 163.636983 
L 225.443433 162.883238 
L 223.38631 155.722661 
L 221.329187 157.983895 
L 219.338423 128.210971 
L 217.2813 115.020434 
L 215.290536 109.74422 
L 213.233413 114.643562 
L 211.17629 125.949736 
L 209.185525 146.677721 
L 207.128402 155.722661 
L 205.137638 162.129493 
L 203.080515 147.054594 
L 201.15611 147.054594 
L 199.098987 146.300849 
L 197.041864 148.185211 
L 195.0511 124.819118 
L 192.993977 120.296649 
L 191.003212 119.166031 
L 188.946089 114.266689 
L 186.888966 113.512944 
L 184.898202 141.024634 
L 182.841079 147.431466 
L 180.850315 150.823319 
L 178.793192 151.953936 
L 176.935145 144.416487 
L 174.878022 147.054594 
L 172.820899 146.677721 
L 170.830135 135.371547 
L 168.773012 126.326608 
L 166.782248 115.774179 
L 164.725125 115.020434 
L 162.668002 116.527924 
L 160.677238 145.923977 
L 158.620115 148.938956 
L 156.629351 155.722661 
L 154.572228 154.592043 
L 152.714181 148.185211 
L 150.657058 145.923977 
L 148.599935 37.007833 
L 146.609171 144.039614 
L 144.552048 115.020434 
L 142.561284 114.266689 
L 140.50416 114.266689 
L 138.447037 109.74422 
L 136.456273 142.908997 
L 134.39915 154.215171 
L 132.408386 160.24513 
L 130.351263 153.838298 
L 128.493216 147.808339 
L 126.436093 148.185211 
L 124.37897 146.300849 
L 122.388206 146.677721 
L 120.331083 146.300849 
L 118.340319 115.397307 
L 116.283196 115.020434 
L 114.226073 114.643562 
L 112.235309 147.054594 
L 110.178186 214.137893 
L 108.187422 155.722661 
L 106.130299 157.230151 
L 104.205893 150.446446 
L 102.14877 149.692701 
L 100.091647 149.692701 
L 98.100883 121.050394 
L 96.04376 118.412286 
L 94.052996 122.181011 
L 91.995873 119.919776 
L 89.93875 119.919776 
L 87.947986 121.804139 
L 85.890863 126.326608 
L 83.900098 146.300849 
L 81.842975 145.547104 
L 79.984929 146.300849 
L 77.927806 147.054594 
L 75.870683 154.968916 
L 73.879919 133.487185 
L 71.822796 131.22595 
L 69.832031 131.979695 
L 67.774908 133.110313 
L 65.717785 129.71846 
L 63.727021 131.979695 
L 61.669898 138.009655 
L 59.679134 138.7634 
L 57.622011 145.923977 
L 55.763964 159.868258 
L 53.706841 159.114513 
L 51.649718 158.360768 
L 49.658954 132.73344 
L 47.601831 127.457226 
L 45.611067 127.457226 
L 43.553944 129.71846 
L 41.496821 124.819118 
L 39.506057 127.457226 
L 37.448934 131.602823 
L 35.45817 144.793359 
L 33.401047 155.722661 
L 31.543 133.487185 
z
" style="fill:#808080;fill-opacity:0.3;"/>
   </g>
   <g id="PolyCollection_2">
    <path clip-path="url(#pe5760e0fb9)" d="M 31.543 162.129493 
L 31.543 164.013855 
L 33.401047 163.636983 
L 35.45817 204.339209 
L 37.448934 208.955897 
L 39.506057 160.622003 
L 41.496821 164.108073 
L 43.553944 162.129493 
L 45.611067 157.230151 
L 47.601831 174.189412 
L 49.658954 193.504126 
L 51.649718 203.30281 
L 53.706841 192.27929 
L 55.763964 188.510565 
L 57.622011 169.384288 
L 59.679134 211.594004 
L 61.669898 193.78678 
L 63.727021 180.596244 
L 65.717785 220.167853 
L 67.774908 217.529745 
L 69.832031 201.701102 
L 71.822796 202.454847 
L 73.879919 220.921598 
L 75.870683 208.107934 
L 77.927806 169.666942 
L 79.984929 167.876798 
L 81.842975 165.521345 
L 83.900098 207.448407 
L 85.890863 199.062994 
L 87.947986 178.335009 
L 89.93875 167.499925 
L 91.995873 157.983895 
L 94.052996 164.013855 
L 96.04376 158.360768 
L 98.100883 168.913197 
L 100.091647 186.626203 
L 102.14877 170.043814 
L 104.205893 167.028835 
L 106.130299 166.74618 
L 108.187422 236.373369 
L 110.178186 236.750241 
L 112.235309 170.514905 
L 114.226073 164.390727 
L 116.283196 163.26011 
L 118.340319 165.521345 
L 120.331083 170.797559 
L 122.388206 169.666942 
L 124.37897 164.7676 
L 126.436093 165.144472 
L 128.493216 166.369308 
L 130.351263 168.536325 
L 132.408386 172.681922 
L 134.39915 164.390727 
L 136.456273 167.123053 
L 138.447037 164.390727 
L 140.50416 157.983895 
L 142.561284 162.883238 
L 144.552048 165.23869 
L 146.609171 236.373369 
L 148.599935 236.373369 
L 150.657058 164.390727 
L 152.714181 166.74618 
L 154.572228 164.390727 
L 156.629351 164.7676 
L 158.620115 167.028835 
L 160.677238 165.898217 
L 162.668002 164.013855 
L 164.725125 166.651962 
L 166.782248 164.390727 
L 168.773012 165.898217 
L 170.830135 237.127114 
L 172.820899 237.880859 
L 174.878022 170.514905 
L 176.935145 165.144472 
L 178.793192 164.484946 
L 180.850315 165.898217 
L 182.841079 167.028835 
L 184.898202 165.144472 
L 186.888966 166.651962 
L 188.946089 164.861818 
L 191.003212 166.27509 
L 192.993977 165.521345 
L 195.0511 165.898217 
L 197.041864 167.028835 
L 199.098987 166.651962 
L 201.15611 165.144472 
L 203.080515 164.390727 
L 205.137638 237.880859 
L 207.128402 237.503986 
L 209.185525 165.898217 
L 211.17629 167.499925 
L 213.233413 167.028835 
L 215.290536 164.013855 
L 217.2813 165.521345 
L 219.338423 174.943157 
L 221.329187 184.836059 
L 223.38631 176.073774 
L 225.443433 187.379948 
L 227.30148 199.816739 
L 229.358603 253.33263 
L 231.349367 248.433288 
L 233.40649 241.272711 
L 235.397254 235.336969 
L 237.454377 196.519105 
L 239.5115 208.579024 
L 241.502264 224.690322 
L 243.559387 222.052215 
L 245.550151 256.724482 
L 247.607274 229.966537 
L 249.664397 214.137893 
L 251.522444 200.947357 
L 253.579567 295.542346 
L 255.570331 243.157073 
L 257.627454 231.097154 
L 259.618218 215.645383 
L 261.675341 199.157213 
L 263.732464 215.739601 
L 265.723229 217.906618 
L 267.780352 233.735262 
L 269.771116 231.097154 
L 271.828239 227.705302 
L 273.885362 216.493346 
L 275.743408 228.082174 
L 277.800531 256.34761 
L 279.791296 259.739462 
L 281.848419 244.664563 
L 283.839183 225.538285 
L 285.896306 206.600444 
L 287.953429 194.540525 
L 289.944193 214.514766 
L 292.001316 229.683882 
L 293.99208 237.127114 
L 296.049203 230.720282 
L 298.106326 241.272711 
L 300.030732 246.172053 
L 302.087855 286.120535 
L 304.078619 284.236172 
L 306.135742 256.064955 
L 308.126506 248.81016 
L 310.183629 229.966537 
L 312.240752 219.037235 
L 314.231516 229.589664 
L 316.288639 237.975077 
L 318.279403 232.604644 
L 320.336526 233.075735 
L 322.393649 215.645383 
L 324.251696 228.835919 
L 326.308819 221.29847 
L 328.299583 218.28349 
L 330.356706 225.067195 
L 332.34747 195.29427 
L 334.404593 188.981656 
L 336.461716 194.257871 
L 338.452481 226.574685 
L 340.509604 240.518966 
L 342.500368 213.384148 
L 344.557491 182.103733 
L 346.614614 185.118713 
L 348.47266 178.711881 
L 350.529784 239.105694 
L 352.520548 238.634604 
L 354.577671 194.163652 
L 356.568435 180.690462 
L 358.625558 172.305049 
L 360.682681 180.219371 
L 362.673445 172.305049 
L 364.730568 177.581264 
L 366.721332 175.320029 
L 368.778455 212.724621 
L 370.835578 227.516866 
L 372.693625 243.533946 
L 374.750748 264.261931 
L 376.741512 270.291891 
L 378.798635 269.915018 
L 380.789399 222.052215 
L 382.846522 200.28783 
L 384.903645 202.549065 
L 386.89441 233.735262 
L 388.951533 242.026456 
L 390.942297 248.81016 
L 392.99942 246.172053 
L 395.056543 244.664563 
L 396.980948 254.463247 
L 399.038071 248.81016 
L 401.028835 246.548925 
L 403.085958 241.743801 
L 405.076723 217.152873 
L 407.133846 199.062994 
L 409.190969 200.570484 
L 411.181733 214.891638 
L 413.238856 227.705302 
L 415.22962 265.015676 
L 417.286743 226.574685 
L 419.343866 219.508326 
L 421.201913 249.940778 
L 423.259036 268.784401 
L 425.2498 270.009237 
L 427.306923 242.780201 
L 429.297687 222.429087 
L 431.35481 215.268511 
L 433.411933 205.28139 
L 435.402697 262.754442 
L 437.45982 268.407529 
L 439.450584 267.748002 
L 441.507707 267.653784 
L 443.56483 253.33263 
L 445.422877 267.748002 
L 447.48 277.82934 
L 447.48 243.157073 
L 447.48 243.157073 
L 445.422877 241.932238 
L 443.56483 235.242751 
L 441.507707 239.011476 
L 439.450584 240.518966 
L 437.45982 239.671003 
L 435.402697 230.249191 
L 433.411933 154.78048 
L 431.35481 166.180872 
L 429.297687 160.527785 
L 427.306923 203.491246 
L 425.2498 241.178493 
L 423.259036 240.047875 
L 421.201913 215.268511 
L 419.343866 172.681922 
L 417.286743 175.696901 
L 415.22962 230.343409 
L 413.238856 175.696901 
L 411.181733 175.602683 
L 409.190969 158.360768 
L 407.133846 149.315829 
L 405.076723 149.598483 
L 403.085958 192.373508 
L 401.028835 205.375608 
L 399.038071 220.073635 
L 396.980948 227.32843 
L 395.056543 200.476266 
L 392.99942 193.033035 
L 390.942297 212.81884 
L 388.951533 181.632643 
L 386.89441 168.913197 
L 384.903645 152.613463 
L 382.846522 164.390727 
L 380.789399 156.476406 
L 378.798635 240.518966 
L 376.741512 244.287691 
L 374.750748 228.835919 
L 372.693625 191.808199 
L 370.835578 170.043814 
L 368.778455 166.27509 
L 366.721332 163.26011 
L 364.730568 165.144472 
L 362.673445 163.919637 
L 360.682681 164.7676 
L 358.625558 163.636983 
L 356.568435 163.636983 
L 354.577671 164.013855 
L 352.520548 172.681922 
L 350.529784 234.30057 
L 348.47266 163.542764 
L 346.614614 165.898217 
L 344.557491 164.390727 
L 342.500368 169.666942 
L 340.509604 197.743941 
L 338.452481 183.234351 
L 336.461716 163.26011 
L 334.404593 163.26011 
L 332.34747 163.26011 
L 330.356706 185.401368 
L 328.299583 199.816739 
L 326.308819 204.339209 
L 324.251696 202.360629 
L 322.393649 192.656163 
L 320.336526 212.630403 
L 318.279403 218.28349 
L 316.288639 212.630403 
L 314.231516 194.446307 
L 312.240752 169.949596 
L 310.183629 192.561944 
L 308.126506 216.022256 
L 306.135742 221.204252 
L 304.078619 272.83578 
L 302.087855 274.437488 
L 300.030732 221.675343 
L 298.106326 219.79098 
L 296.049203 207.731061 
L 293.99208 220.544725 
L 292.001316 199.439867 
L 289.944193 173.812539 
L 287.953429 164.7676 
L 285.896306 166.27509 
L 283.839183 174.095193 
L 281.848419 214.137893 
L 279.791296 246.925798 
L 277.800531 234.865879 
L 275.743408 203.208592 
L 273.885362 183.611223 
L 271.828239 179.465626 
L 269.771116 186.249331 
L 267.780352 180.502025 
L 265.723229 164.7676 
L 263.732464 164.390727 
L 261.675341 161.375748 
L 259.618218 164.013855 
L 257.627454 177.110173 
L 255.570331 199.345649 
L 253.579567 232.604644 
L 251.522444 185.495586 
L 249.664397 183.988096 
L 247.607274 187.28573 
L 245.550151 224.690322 
L 243.559387 178.240791 
L 241.502264 180.407807 
L 239.5115 164.7676 
L 237.454377 147.714121 
L 235.397254 197.178632 
L 233.40649 209.521205 
L 231.349367 239.765221 
L 229.358603 238.634604 
L 227.30148 168.159452 
L 225.443433 167.405707 
L 223.38631 165.898217 
L 221.329187 165.898217 
L 219.338423 163.26011 
L 217.2813 149.975356 
L 215.290536 146.206631 
L 213.233413 154.120953 
L 211.17629 160.998875 
L 209.185525 162.506365 
L 207.128402 224.31345 
L 205.137638 235.619624 
L 203.080515 162.506365 
L 201.15611 162.506365 
L 199.098987 162.506365 
L 197.041864 162.883238 
L 195.0511 159.868258 
L 192.993977 147.808339 
L 191.003212 139.894017 
L 188.946089 137.915437 
L 186.888966 147.054594 
L 184.898202 160.622003 
L 182.841079 162.506365 
L 180.850315 162.883238 
L 178.793192 162.883238 
L 176.935145 162.506365 
L 174.878022 162.883238 
L 172.820899 211.31135 
L 170.830135 165.144472 
L 168.773012 156.476406 
L 166.782248 142.437906 
L 164.725125 139.894017 
L 162.668002 147.808339 
L 160.677238 163.26011 
L 158.620115 163.26011 
L 156.629351 163.26011 
L 154.572228 163.26011 
L 152.714181 163.26011 
L 150.657058 162.883238 
L 148.599935 231.662463 
L 146.609171 163.636983 
L 144.552048 148.185211 
L 142.561284 137.632782 
L 140.50416 138.009655 
L 138.447037 146.677721 
L 136.456273 162.506365 
L 134.39915 162.506365 
L 132.408386 162.883238 
L 130.351263 162.883238 
L 128.493216 162.883238 
L 126.436093 162.883238 
L 124.37897 162.883238 
L 122.388206 162.883238 
L 120.331083 161.75262 
L 118.340319 145.452886 
L 116.283196 145.170232 
L 114.226073 147.431466 
L 112.235309 162.883238 
L 110.178186 223.182832 
L 108.187422 163.636983 
L 106.130299 162.883238 
L 104.205893 162.506365 
L 102.14877 165.521345 
L 100.091647 165.898217 
L 98.100883 159.77404 
L 96.04376 145.452886 
L 94.052996 147.431466 
L 91.995873 131.979695 
L 89.93875 144.039614 
L 87.947986 157.230151 
L 85.890863 160.24513 
L 83.900098 191.525545 
L 81.842975 162.129493 
L 79.984929 162.883238 
L 77.927806 163.636983 
L 75.870683 172.305049 
L 73.879919 206.977316 
L 71.822796 136.502165 
L 69.832031 137.25591 
L 67.774908 163.26011 
L 65.717785 138.009655 
L 63.727021 151.577064 
L 61.669898 162.883238 
L 59.679134 162.506365 
L 57.622011 162.129493 
L 55.763964 164.013855 
L 53.706841 162.883238 
L 51.649718 162.506365 
L 49.658954 154.215171 
L 47.601831 136.125292 
L 45.611067 135.74842 
L 43.553944 139.894017 
L 41.496821 132.73344 
L 39.506057 134.24093 
L 37.448934 178.523445 
L 35.45817 162.506365 
L 33.401047 162.506365 
L 31.543 162.129493 
z
" style="fill:#808080;fill-opacity:0.6;"/>
   </g>
   <g id="matplotlib.axis_1">
    <g id="xtick_1">
     <g id="line2d_1">
      <path clip-path="url(#pe5760e0fb9)" d="M 77.994165 309.8635 
L 77.994165 23.36505 
" style="fill:none;stroke:#b0b0b0;stroke-linecap:square;stroke-width:0.8;"/>
     </g>
     <g id="line2d_2">
      <defs>
       <path d="M 0 0 
L 0 3.5 
" id="mdfc479d77d" style="stroke:#000000;stroke-width:0.8;"/>
      </defs>
      <g>
       <use style="stroke:#000000;stroke-width:0.8;" x="77.994165" xlink:href="#mdfc479d77d" y="309.8635"/>
      </g>
     </g>
     <g id="text_1">
      <!-- 2003 -->
      <defs>
       <path d="M 19.1875 8.296875 
L 53.609375 8.296875 
L 53.609375 0 
L 7.328125 0 
L 7.328125 8.296875 
Q 12.9375 14.109375 22.625 23.890625 
Q 32.328125 33.6875 34.8125 36.53125 
Q 39.546875 41.84375 41.421875 45.53125 
Q 43.3125 49.21875 43.3125 52.78125 
Q 43.3125 58.59375 39.234375 62.25 
Q 35.15625 65.921875 28.609375 65.921875 
Q 23.96875 65.921875 18.8125 64.3125 
Q 13.671875 62.703125 7.8125 59.421875 
L 7.8125 69.390625 
Q 13.765625 71.78125 18.9375 73 
Q 24.125 74.21875 28.421875 74.21875 
Q 39.75 74.21875 46.484375 68.546875 
Q 53.21875 62.890625 53.21875 53.421875 
Q 53.21875 48.921875 51.53125 44.890625 
Q 49.859375 40.875 45.40625 35.40625 
Q 44.1875 33.984375 37.640625 27.21875 
Q 31.109375 20.453125 19.1875 8.296875 
z
" id="DejaVuSans-32"/>
       <path d="M 31.78125 66.40625 
Q 24.171875 66.40625 20.328125 58.90625 
Q 16.5 51.421875 16.5 36.375 
Q 16.5 21.390625 20.328125 13.890625 
Q 24.171875 6.390625 31.78125 6.390625 
Q 39.453125 6.390625 43.28125 13.890625 
Q 47.125 21.390625 47.125 36.375 
Q 47.125 51.421875 43.28125 58.90625 
Q 39.453125 66.40625 31.78125 66.40625 
z
M 31.78125 74.21875 
Q 44.046875 74.21875 50.515625 64.515625 
Q 56.984375 54.828125 56.984375 36.375 
Q 56.984375 17.96875 50.515625 8.265625 
Q 44.046875 -1.421875 31.78125 -1.421875 
Q 19.53125 -1.421875 13.0625 8.265625 
Q 6.59375 17.96875 6.59375 36.375 
Q 6.59375 54.828125 13.0625 64.515625 
Q 19.53125 74.21875 31.78125 74.21875 
z
" id="DejaVuSans-30"/>
       <path d="M 40.578125 39.3125 
Q 47.65625 37.796875 51.625 33 
Q 55.609375 28.21875 55.609375 21.1875 
Q 55.609375 10.40625 48.1875 4.484375 
Q 40.765625 -1.421875 27.09375 -1.421875 
Q 22.515625 -1.421875 17.65625 -0.515625 
Q 12.796875 0.390625 7.625 2.203125 
L 7.625 11.71875 
Q 11.71875 9.328125 16.59375 8.109375 
Q 21.484375 6.890625 26.8125 6.890625 
Q 36.078125 6.890625 40.9375 10.546875 
Q 45.796875 14.203125 45.796875 21.1875 
Q 45.796875 27.640625 41.28125 31.265625 
Q 36.765625 34.90625 28.71875 34.90625 
L 20.21875 34.90625 
L 20.21875 43.015625 
L 29.109375 43.015625 
Q 36.375 43.015625 40.234375 45.921875 
Q 44.09375 48.828125 44.09375 54.296875 
Q 44.09375 59.90625 40.109375 62.90625 
Q 36.140625 65.921875 28.71875 65.921875 
Q 24.65625 65.921875 20.015625 65.03125 
Q 15.375 64.15625 9.8125 62.3125 
L 9.8125 71.09375 
Q 15.4375 72.65625 20.34375 73.4375 
Q 25.25 74.21875 29.59375 74.21875 
Q 40.828125 74.21875 47.359375 69.109375 
Q 53.90625 64.015625 53.90625 55.328125 
Q 53.90625 49.265625 50.4375 45.09375 
Q 46.96875 40.921875 40.578125 39.3125 
z
" id="DejaVuSans-33"/>
      </defs>
      <g transform="translate(65.269165 324.461937)scale(0.1 -0.1)">
       <use xlink:href="#DejaVuSans-32"/>
       <use x="63.623047" xlink:href="#DejaVuSans-30"/>
       <use x="127.246094" xlink:href="#DejaVuSans-30"/>
       <use x="190.869141" xlink:href="#DejaVuSans-33"/>
      </g>
     </g>
    </g>
    <g id="xtick_2">
     <g id="line2d_3">
      <path clip-path="url(#pe5760e0fb9)" d="M 126.502452 309.8635 
L 126.502452 23.36505 
" style="fill:none;stroke:#b0b0b0;stroke-linecap:square;stroke-width:0.8;"/>
     </g>
     <g id="line2d_4">
      <g>
       <use style="stroke:#000000;stroke-width:0.8;" x="126.502452" xlink:href="#mdfc479d77d" y="309.8635"/>
      </g>
     </g>
     <g id="text_2">
      <!-- 2005 -->
      <defs>
       <path d="M 10.796875 72.90625 
L 49.515625 72.90625 
L 49.515625 64.59375 
L 19.828125 64.59375 
L 19.828125 46.734375 
Q 21.96875 47.46875 24.109375 47.828125 
Q 26.265625 48.1875 28.421875 48.1875 
Q 40.625 48.1875 47.75 41.5 
Q 54.890625 34.8125 54.890625 23.390625 
Q 54.890625 11.625 47.5625 5.09375 
Q 40.234375 -1.421875 26.90625 -1.421875 
Q 22.3125 -1.421875 17.546875 -0.640625 
Q 12.796875 0.140625 7.71875 1.703125 
L 7.71875 11.625 
Q 12.109375 9.234375 16.796875 8.0625 
Q 21.484375 6.890625 26.703125 6.890625 
Q 35.15625 6.890625 40.078125 11.328125 
Q 45.015625 15.765625 45.015625 23.390625 
Q 45.015625 31 40.078125 35.4375 
Q 35.15625 39.890625 26.703125 39.890625 
Q 22.75 39.890625 18.8125 39.015625 
Q 14.890625 38.140625 10.796875 36.28125 
z
" id="DejaVuSans-35"/>
      </defs>
      <g transform="translate(113.777452 324.461937)scale(0.1 -0.1)">
       <use xlink:href="#DejaVuSans-32"/>
       <use x="63.623047" xlink:href="#DejaVuSans-30"/>
       <use x="127.246094" xlink:href="#DejaVuSans-30"/>
       <use x="190.869141" xlink:href="#DejaVuSans-35"/>
      </g>
     </g>
    </g>
    <g id="xtick_3">
     <g id="line2d_5">
      <path clip-path="url(#pe5760e0fb9)" d="M 174.944381 309.8635 
L 174.944381 23.36505 
" style="fill:none;stroke:#b0b0b0;stroke-linecap:square;stroke-width:0.8;"/>
     </g>
     <g id="line2d_6">
      <g>
       <use style="stroke:#000000;stroke-width:0.8;" x="174.944381" xlink:href="#mdfc479d77d" y="309.8635"/>
      </g>
     </g>
     <g id="text_3">
      <!-- 2007 -->
      <defs>
       <path d="M 8.203125 72.90625 
L 55.078125 72.90625 
L 55.078125 68.703125 
L 28.609375 0 
L 18.3125 0 
L 43.21875 64.59375 
L 8.203125 64.59375 
z
" id="DejaVuSans-37"/>
      </defs>
      <g transform="translate(162.219381 324.461937)scale(0.1 -0.1)">
       <use xlink:href="#DejaVuSans-32"/>
       <use x="63.623047" xlink:href="#DejaVuSans-30"/>
       <use x="127.246094" xlink:href="#DejaVuSans-30"/>
       <use x="190.869141" xlink:href="#DejaVuSans-37"/>
      </g>
     </g>
    </g>
    <g id="xtick_4">
     <g id="line2d_7">
      <path clip-path="url(#pe5760e0fb9)" d="M 223.452669 309.8635 
L 223.452669 23.36505 
" style="fill:none;stroke:#b0b0b0;stroke-linecap:square;stroke-width:0.8;"/>
     </g>
     <g id="line2d_8">
      <g>
       <use style="stroke:#000000;stroke-width:0.8;" x="223.452669" xlink:href="#mdfc479d77d" y="309.8635"/>
      </g>
     </g>
     <g id="text_4">
      <!-- 2009 -->
      <defs>
       <path d="M 10.984375 1.515625 
L 10.984375 10.5 
Q 14.703125 8.734375 18.5 7.8125 
Q 22.3125 6.890625 25.984375 6.890625 
Q 35.75 6.890625 40.890625 13.453125 
Q 46.046875 20.015625 46.78125 33.40625 
Q 43.953125 29.203125 39.59375 26.953125 
Q 35.25 24.703125 29.984375 24.703125 
Q 19.046875 24.703125 12.671875 31.3125 
Q 6.296875 37.9375 6.296875 49.421875 
Q 6.296875 60.640625 12.9375 67.421875 
Q 19.578125 74.21875 30.609375 74.21875 
Q 43.265625 74.21875 49.921875 64.515625 
Q 56.59375 54.828125 56.59375 36.375 
Q 56.59375 19.140625 48.40625 8.859375 
Q 40.234375 -1.421875 26.421875 -1.421875 
Q 22.703125 -1.421875 18.890625 -0.6875 
Q 15.09375 0.046875 10.984375 1.515625 
z
M 30.609375 32.421875 
Q 37.25 32.421875 41.125 36.953125 
Q 45.015625 41.5 45.015625 49.421875 
Q 45.015625 57.28125 41.125 61.84375 
Q 37.25 66.40625 30.609375 66.40625 
Q 23.96875 66.40625 20.09375 61.84375 
Q 16.21875 57.28125 16.21875 49.421875 
Q 16.21875 41.5 20.09375 36.953125 
Q 23.96875 32.421875 30.609375 32.421875 
z
" id="DejaVuSans-39"/>
      </defs>
      <g transform="translate(210.727669 324.461937)scale(0.1 -0.1)">
       <use xlink:href="#DejaVuSans-32"/>
       <use x="63.623047" xlink:href="#DejaVuSans-30"/>
       <use x="127.246094" xlink:href="#DejaVuSans-30"/>
       <use x="190.869141" xlink:href="#DejaVuSans-39"/>
      </g>
     </g>
    </g>
    <g id="xtick_5">
     <g id="line2d_9">
      <path clip-path="url(#pe5760e0fb9)" d="M 271.894598 309.8635 
L 271.894598 23.36505 
" style="fill:none;stroke:#b0b0b0;stroke-linecap:square;stroke-width:0.8;"/>
     </g>
     <g id="line2d_10">
      <g>
       <use style="stroke:#000000;stroke-width:0.8;" x="271.894598" xlink:href="#mdfc479d77d" y="309.8635"/>
      </g>
     </g>
     <g id="text_5">
      <!-- 2011 -->
      <defs>
       <path d="M 12.40625 8.296875 
L 28.515625 8.296875 
L 28.515625 63.921875 
L 10.984375 60.40625 
L 10.984375 69.390625 
L 28.421875 72.90625 
L 38.28125 72.90625 
L 38.28125 8.296875 
L 54.390625 8.296875 
L 54.390625 0 
L 12.40625 0 
z
" id="DejaVuSans-31"/>
      </defs>
      <g transform="translate(259.169598 324.461937)scale(0.1 -0.1)">
       <use xlink:href="#DejaVuSans-32"/>
       <use x="63.623047" xlink:href="#DejaVuSans-30"/>
       <use x="127.246094" xlink:href="#DejaVuSans-31"/>
       <use x="190.869141" xlink:href="#DejaVuSans-31"/>
      </g>
     </g>
    </g>
    <g id="xtick_6">
     <g id="line2d_11">
      <path clip-path="url(#pe5760e0fb9)" d="M 320.402885 309.8635 
L 320.402885 23.36505 
" style="fill:none;stroke:#b0b0b0;stroke-linecap:square;stroke-width:0.8;"/>
     </g>
     <g id="line2d_12">
      <g>
       <use style="stroke:#000000;stroke-width:0.8;" x="320.402885" xlink:href="#mdfc479d77d" y="309.8635"/>
      </g>
     </g>
     <g id="text_6">
      <!-- 2013 -->
      <g transform="translate(307.677885 324.461937)scale(0.1 -0.1)">
       <use xlink:href="#DejaVuSans-32"/>
       <use x="63.623047" xlink:href="#DejaVuSans-30"/>
       <use x="127.246094" xlink:href="#DejaVuSans-31"/>
       <use x="190.869141" xlink:href="#DejaVuSans-33"/>
      </g>
     </g>
    </g>
    <g id="xtick_7">
     <g id="line2d_13">
      <path clip-path="url(#pe5760e0fb9)" d="M 368.844814 309.8635 
L 368.844814 23.36505 
" style="fill:none;stroke:#b0b0b0;stroke-linecap:square;stroke-width:0.8;"/>
     </g>
     <g id="line2d_14">
      <g>
       <use style="stroke:#000000;stroke-width:0.8;" x="368.844814" xlink:href="#mdfc479d77d" y="309.8635"/>
      </g>
     </g>
     <g id="text_7">
      <!-- 2015 -->
      <g transform="translate(356.119814 324.461937)scale(0.1 -0.1)">
       <use xlink:href="#DejaVuSans-32"/>
       <use x="63.623047" xlink:href="#DejaVuSans-30"/>
       <use x="127.246094" xlink:href="#DejaVuSans-31"/>
       <use x="190.869141" xlink:href="#DejaVuSans-35"/>
      </g>
     </g>
    </g>
    <g id="xtick_8">
     <g id="line2d_15">
      <path clip-path="url(#pe5760e0fb9)" d="M 417.353102 309.8635 
L 417.353102 23.36505 
" style="fill:none;stroke:#b0b0b0;stroke-linecap:square;stroke-width:0.8;"/>
     </g>
     <g id="line2d_16">
      <g>
       <use style="stroke:#000000;stroke-width:0.8;" x="417.353102" xlink:href="#mdfc479d77d" y="309.8635"/>
      </g>
     </g>
     <g id="text_8">
      <!-- 2017 -->
      <g transform="translate(404.628102 324.461937)scale(0.1 -0.1)">
       <use xlink:href="#DejaVuSans-32"/>
       <use x="63.623047" xlink:href="#DejaVuSans-30"/>
       <use x="127.246094" xlink:href="#DejaVuSans-31"/>
       <use x="190.869141" xlink:href="#DejaVuSans-37"/>
      </g>
     </g>
    </g>
    <g id="text_9">
     <!-- Date -->
     <defs>
      <path d="M 19.671875 64.796875 
L 19.671875 8.109375 
L 31.59375 8.109375 
Q 46.6875 8.109375 53.6875 14.9375 
Q 60.6875 21.78125 60.6875 36.53125 
Q 60.6875 51.171875 53.6875 57.984375 
Q 46.6875 64.796875 31.59375 64.796875 
z
M 9.8125 72.90625 
L 30.078125 72.90625 
Q 51.265625 72.90625 61.171875 64.09375 
Q 71.09375 55.28125 71.09375 36.53125 
Q 71.09375 17.671875 61.125 8.828125 
Q 51.171875 0 30.078125 0 
L 9.8125 0 
z
" id="DejaVuSans-44"/>
      <path d="M 34.28125 27.484375 
Q 23.390625 27.484375 19.1875 25 
Q 14.984375 22.515625 14.984375 16.5 
Q 14.984375 11.71875 18.140625 8.90625 
Q 21.296875 6.109375 26.703125 6.109375 
Q 34.1875 6.109375 38.703125 11.40625 
Q 43.21875 16.703125 43.21875 25.484375 
L 43.21875 27.484375 
z
M 52.203125 31.203125 
L 52.203125 0 
L 43.21875 0 
L 43.21875 8.296875 
Q 40.140625 3.328125 35.546875 0.953125 
Q 30.953125 -1.421875 24.3125 -1.421875 
Q 15.921875 -1.421875 10.953125 3.296875 
Q 6 8.015625 6 15.921875 
Q 6 25.140625 12.171875 29.828125 
Q 18.359375 34.515625 30.609375 34.515625 
L 43.21875 34.515625 
L 43.21875 35.40625 
Q 43.21875 41.609375 39.140625 45 
Q 35.0625 48.390625 27.6875 48.390625 
Q 23 48.390625 18.546875 47.265625 
Q 14.109375 46.140625 10.015625 43.890625 
L 10.015625 52.203125 
Q 14.9375 54.109375 19.578125 55.046875 
Q 24.21875 56 28.609375 56 
Q 40.484375 56 46.34375 49.84375 
Q 52.203125 43.703125 52.203125 31.203125 
z
" id="DejaVuSans-61"/>
      <path d="M 18.3125 70.21875 
L 18.3125 54.6875 
L 36.8125 54.6875 
L 36.8125 47.703125 
L 18.3125 47.703125 
L 18.3125 18.015625 
Q 18.3125 11.328125 20.140625 9.421875 
Q 21.96875 7.515625 27.59375 7.515625 
L 36.8125 7.515625 
L 36.8125 0 
L 27.59375 0 
Q 17.1875 0 13.234375 3.875 
Q 9.28125 7.765625 9.28125 18.015625 
L 9.28125 47.703125 
L 2.6875 47.703125 
L 2.6875 54.6875 
L 9.28125 54.6875 
L 9.28125 70.21875 
z
" id="DejaVuSans-74"/>
      <path d="M 56.203125 29.59375 
L 56.203125 25.203125 
L 14.890625 25.203125 
Q 15.484375 15.921875 20.484375 11.0625 
Q 25.484375 6.203125 34.421875 6.203125 
Q 39.59375 6.203125 44.453125 7.46875 
Q 49.3125 8.734375 54.109375 11.28125 
L 54.109375 2.78125 
Q 49.265625 0.734375 44.1875 -0.34375 
Q 39.109375 -1.421875 33.890625 -1.421875 
Q 20.796875 -1.421875 13.15625 6.1875 
Q 5.515625 13.8125 5.515625 26.8125 
Q 5.515625 40.234375 12.765625 48.109375 
Q 20.015625 56 32.328125 56 
Q 43.359375 56 49.78125 48.890625 
Q 56.203125 41.796875 56.203125 29.59375 
z
M 47.21875 32.234375 
Q 47.125 39.59375 43.09375 43.984375 
Q 39.0625 48.390625 32.421875 48.390625 
Q 24.90625 48.390625 20.390625 44.140625 
Q 15.875 39.890625 15.1875 32.171875 
z
" id="DejaVuSans-65"/>
     </defs>
     <g transform="translate(227.560719 338.140062)scale(0.1 -0.1)">
      <use xlink:href="#DejaVuSans-44"/>
      <use x="77.001953" xlink:href="#DejaVuSans-61"/>
      <use x="138.28125" xlink:href="#DejaVuSans-74"/>
      <use x="177.490234" xlink:href="#DejaVuSans-65"/>
     </g>
    </g>
   </g>
   <g id="matplotlib.axis_2">
    <g id="ytick_1">
     <g id="line2d_17">
      <path clip-path="url(#pe5760e0fb9)" d="M 31.543 309.8635 
L 447.48 309.8635 
" style="fill:none;stroke:#b0b0b0;stroke-linecap:square;stroke-width:0.8;"/>
     </g>
     <g id="line2d_18">
      <defs>
       <path d="M 0 0 
L -3.5 0 
" id="m9933254600" style="stroke:#000000;stroke-width:0.8;"/>
      </defs>
      <g>
       <use style="stroke:#000000;stroke-width:0.8;" x="31.543" xlink:href="#m9933254600" y="309.8635"/>
      </g>
     </g>
     <g id="text_10">
      <!-- 0 -->
      <g transform="translate(18.1805 313.662719)scale(0.1 -0.1)">
       <use xlink:href="#DejaVuSans-30"/>
      </g>
     </g>
    </g>
    <g id="ytick_2">
     <g id="line2d_19">
      <path clip-path="url(#pe5760e0fb9)" d="M 31.543 272.176253 
L 447.48 272.176253 
" style="fill:none;stroke:#b0b0b0;stroke-linecap:square;stroke-width:0.8;"/>
     </g>
     <g id="line2d_20">
      <g>
       <use style="stroke:#000000;stroke-width:0.8;" x="31.543" xlink:href="#m9933254600" y="272.176253"/>
      </g>
     </g>
     <g id="text_11">
      <!-- 100 -->
      <g transform="translate(5.4555 275.975472)scale(0.1 -0.1)">
       <use xlink:href="#DejaVuSans-31"/>
       <use x="63.623047" xlink:href="#DejaVuSans-30"/>
       <use x="127.246094" xlink:href="#DejaVuSans-30"/>
      </g>
     </g>
    </g>
    <g id="ytick_3">
     <g id="line2d_21">
      <path clip-path="url(#pe5760e0fb9)" d="M 31.543 234.489006 
L 447.48 234.489006 
" style="fill:none;stroke:#b0b0b0;stroke-linecap:square;stroke-width:0.8;"/>
     </g>
     <g id="line2d_22">
      <g>
       <use style="stroke:#000000;stroke-width:0.8;" x="31.543" xlink:href="#m9933254600" y="234.489006"/>
      </g>
     </g>
     <g id="text_12">
      <!-- 200 -->
      <g transform="translate(5.4555 238.288225)scale(0.1 -0.1)">
       <use xlink:href="#DejaVuSans-32"/>
       <use x="63.623047" xlink:href="#DejaVuSans-30"/>
       <use x="127.246094" xlink:href="#DejaVuSans-30"/>
      </g>
     </g>
    </g>
    <g id="ytick_4">
     <g id="line2d_23">
      <path clip-path="url(#pe5760e0fb9)" d="M 31.543 196.80176 
L 447.48 196.80176 
" style="fill:none;stroke:#b0b0b0;stroke-linecap:square;stroke-width:0.8;"/>
     </g>
     <g id="line2d_24">
      <g>
       <use style="stroke:#000000;stroke-width:0.8;" x="31.543" xlink:href="#m9933254600" y="196.80176"/>
      </g>
     </g>
     <g id="text_13">
      <!-- 300 -->
      <g transform="translate(5.4555 200.600978)scale(0.1 -0.1)">
       <use xlink:href="#DejaVuSans-33"/>
       <use x="63.623047" xlink:href="#DejaVuSans-30"/>
       <use x="127.246094" xlink:href="#DejaVuSans-30"/>
      </g>
     </g>
    </g>
    <g id="ytick_5">
     <g id="line2d_25">
      <path clip-path="url(#pe5760e0fb9)" d="M 31.543 159.114513 
L 447.48 159.114513 
" style="fill:none;stroke:#b0b0b0;stroke-linecap:square;stroke-width:0.8;"/>
     </g>
     <g id="line2d_26">
      <g>
       <use style="stroke:#000000;stroke-width:0.8;" x="31.543" xlink:href="#m9933254600" y="159.114513"/>
      </g>
     </g>
     <g id="text_14">
      <!-- 400 -->
      <defs>
       <path d="M 37.796875 64.3125 
L 12.890625 25.390625 
L 37.796875 25.390625 
z
M 35.203125 72.90625 
L 47.609375 72.90625 
L 47.609375 25.390625 
L 58.015625 25.390625 
L 58.015625 17.1875 
L 47.609375 17.1875 
L 47.609375 0 
L 37.796875 0 
L 37.796875 17.1875 
L 4.890625 17.1875 
L 4.890625 26.703125 
z
" id="DejaVuSans-34"/>
      </defs>
      <g transform="translate(5.4555 162.913732)scale(0.1 -0.1)">
       <use xlink:href="#DejaVuSans-34"/>
       <use x="63.623047" xlink:href="#DejaVuSans-30"/>
       <use x="127.246094" xlink:href="#DejaVuSans-30"/>
      </g>
     </g>
    </g>
    <g id="ytick_6">
     <g id="line2d_27">
      <path clip-path="url(#pe5760e0fb9)" d="M 31.543 121.427266 
L 447.48 121.427266 
" style="fill:none;stroke:#b0b0b0;stroke-linecap:square;stroke-width:0.8;"/>
     </g>
     <g id="line2d_28">
      <g>
       <use style="stroke:#000000;stroke-width:0.8;" x="31.543" xlink:href="#m9933254600" y="121.427266"/>
      </g>
     </g>
     <g id="text_15">
      <!-- 500 -->
      <g transform="translate(5.4555 125.226485)scale(0.1 -0.1)">
       <use xlink:href="#DejaVuSans-35"/>
       <use x="63.623047" xlink:href="#DejaVuSans-30"/>
       <use x="127.246094" xlink:href="#DejaVuSans-30"/>
      </g>
     </g>
    </g>
    <g id="ytick_7">
     <g id="line2d_29">
      <path clip-path="url(#pe5760e0fb9)" d="M 31.543 83.740019 
L 447.48 83.740019 
" style="fill:none;stroke:#b0b0b0;stroke-linecap:square;stroke-width:0.8;"/>
     </g>
     <g id="line2d_30">
      <g>
       <use style="stroke:#000000;stroke-width:0.8;" x="31.543" xlink:href="#m9933254600" y="83.740019"/>
      </g>
     </g>
     <g id="text_16">
      <!-- 600 -->
      <defs>
       <path d="M 33.015625 40.375 
Q 26.375 40.375 22.484375 35.828125 
Q 18.609375 31.296875 18.609375 23.390625 
Q 18.609375 15.53125 22.484375 10.953125 
Q 26.375 6.390625 33.015625 6.390625 
Q 39.65625 6.390625 43.53125 10.953125 
Q 47.40625 15.53125 47.40625 23.390625 
Q 47.40625 31.296875 43.53125 35.828125 
Q 39.65625 40.375 33.015625 40.375 
z
M 52.59375 71.296875 
L 52.59375 62.3125 
Q 48.875 64.0625 45.09375 64.984375 
Q 41.3125 65.921875 37.59375 65.921875 
Q 27.828125 65.921875 22.671875 59.328125 
Q 17.53125 52.734375 16.796875 39.40625 
Q 19.671875 43.65625 24.015625 45.921875 
Q 28.375 48.1875 33.59375 48.1875 
Q 44.578125 48.1875 50.953125 41.515625 
Q 57.328125 34.859375 57.328125 23.390625 
Q 57.328125 12.15625 50.6875 5.359375 
Q 44.046875 -1.421875 33.015625 -1.421875 
Q 20.359375 -1.421875 13.671875 8.265625 
Q 6.984375 17.96875 6.984375 36.375 
Q 6.984375 53.65625 15.1875 63.9375 
Q 23.390625 74.21875 37.203125 74.21875 
Q 40.921875 74.21875 44.703125 73.484375 
Q 48.484375 72.75 52.59375 71.296875 
z
" id="DejaVuSans-36"/>
      </defs>
      <g transform="translate(5.4555 87.539238)scale(0.1 -0.1)">
       <use xlink:href="#DejaVuSans-36"/>
       <use x="63.623047" xlink:href="#DejaVuSans-30"/>
       <use x="127.246094" xlink:href="#DejaVuSans-30"/>
      </g>
     </g>
    </g>
    <g id="ytick_8">
     <g id="line2d_31">
      <path clip-path="url(#pe5760e0fb9)" d="M 31.543 46.052773 
L 447.48 46.052773 
" style="fill:none;stroke:#b0b0b0;stroke-linecap:square;stroke-width:0.8;"/>
     </g>
     <g id="line2d_32">
      <g>
       <use style="stroke:#000000;stroke-width:0.8;" x="31.543" xlink:href="#m9933254600" y="46.052773"/>
      </g>
     </g>
     <g id="text_17">
      <!-- 700 -->
      <g transform="translate(5.4555 49.851991)scale(0.1 -0.1)">
       <use xlink:href="#DejaVuSans-37"/>
       <use x="63.623047" xlink:href="#DejaVuSans-30"/>
       <use x="127.246094" xlink:href="#DejaVuSans-30"/>
      </g>
     </g>
    </g>
   </g>
   <g id="line2d_33">
    <path clip-path="url(#pe5760e0fb9)" d="M 31.543 162.883238 
L 33.401047 162.883238 
L 35.45817 163.636983 
L 37.448934 205.092954 
L 39.506057 139.894017 
L 41.496821 144.039614 
L 43.553944 150.446446 
L 45.611067 149.692701 
L 47.601831 150.823319 
L 49.658954 162.883238 
L 51.649718 164.7676 
L 53.706841 166.27509 
L 55.763964 170.232251 
L 57.622011 163.636983 
L 59.679134 170.797559 
L 61.669898 166.651962 
L 63.727021 164.390727 
L 65.717785 167.78258 
L 67.774908 179.654062 
L 69.832031 159.114513 
L 71.822796 153.27299 
L 73.879919 210.934477 
L 75.870683 191.902418 
L 77.927806 164.956036 
L 79.984929 163.636983 
L 81.842975 162.883238 
L 83.900098 196.80176 
L 85.890863 170.420687 
L 87.947986 168.536325 
L 89.93875 154.592043 
L 91.995873 151.200191 
L 94.052996 155.722661 
L 96.04376 154.592043 
L 98.100883 165.898217 
L 100.091647 168.159452 
L 102.14877 167.028835 
L 104.205893 163.636983 
L 106.130299 163.26011 
L 108.187422 228.459047 
L 110.178186 233.735262 
L 112.235309 164.013855 
L 114.226073 154.215171 
L 116.283196 154.215171 
L 118.340319 154.592043 
L 120.331083 164.013855 
L 122.388206 164.390727 
L 124.37897 163.26011 
L 128.493216 164.013855 
L 130.351263 164.013855 
L 132.408386 163.26011 
L 134.39915 162.883238 
L 136.456273 163.636983 
L 138.447037 160.24513 
L 140.50416 150.25801 
L 142.561284 154.215171 
L 144.552048 162.506365 
L 146.609171 220.921598 
L 148.599935 236.373369 
L 150.657058 163.26011 
L 152.714181 164.013855 
L 156.629351 163.26011 
L 158.620115 163.636983 
L 160.677238 163.26011 
L 162.668002 162.506365 
L 164.725125 162.883238 
L 166.782248 160.622003 
L 168.773012 163.636983 
L 170.830135 223.936577 
L 172.820899 237.127114 
L 174.878022 164.7676 
L 176.935145 163.636983 
L 180.850315 163.636983 
L 182.841079 164.013855 
L 184.898202 162.883238 
L 186.888966 162.506365 
L 188.946089 158.73764 
L 191.003212 160.998875 
L 192.993977 161.375748 
L 195.0511 163.26011 
L 197.041864 164.390727 
L 203.080515 163.26011 
L 205.137638 236.373369 
L 207.128402 235.996496 
L 209.185525 163.636983 
L 211.17629 164.013855 
L 213.233413 163.26011 
L 215.290536 161.187311 
L 217.2813 162.883238 
L 219.338423 165.521345 
L 221.329187 170.985996 
L 223.38631 169.29007 
L 227.30148 174.189412 
L 229.358603 241.83802 
L 231.349367 242.780201 
L 233.40649 229.589664 
L 235.397254 219.414108 
L 237.454377 175.696901 
L 239.5115 191.525545 
L 241.502264 209.238551 
L 243.559387 205.846699 
L 245.550151 242.591765 
L 249.664397 190.394928 
L 251.522444 188.510565 
L 253.579567 248.998596 
L 257.627454 214.326329 
L 259.618218 174.943157 
L 261.675341 168.536325 
L 263.732464 180.030935 
L 265.723229 180.973116 
L 267.780352 216.776 
L 269.771116 213.949457 
L 271.828239 213.949457 
L 273.885362 199.251431 
L 275.743408 215.645383 
L 277.800531 248.056415 
L 279.791296 253.709502 
L 281.848419 230.720282 
L 283.839183 200.758921 
L 285.896306 186.437767 
L 287.953429 173.058794 
L 289.944193 195.29427 
L 292.001316 214.891638 
L 293.99208 228.459047 
L 296.049203 218.660363 
L 298.106326 230.343409 
L 300.030732 234.489006 
L 302.087855 280.090575 
L 304.078619 279.33683 
L 306.135742 239.388349 
L 308.126506 234.865879 
L 310.183629 209.80386 
L 312.240752 198.30925 
L 314.231516 211.122913 
L 316.288639 226.951557 
L 318.279403 226.197812 
L 320.336526 223.182832 
L 322.393649 205.846699 
L 324.251696 214.891638 
L 326.308819 213.384148 
L 330.356706 203.585464 
L 332.34747 172.305049 
L 336.461716 176.450646 
L 338.452481 205.469826 
L 340.509604 222.429087 
L 342.500368 187.003076 
L 344.557491 171.174432 
L 346.614614 173.058794 
L 348.47266 168.536325 
L 350.529784 237.127114 
L 352.520548 206.78888 
L 354.577671 169.855378 
L 356.568435 167.405707 
L 358.625558 167.028835 
L 360.682681 171.174432 
L 362.673445 167.028835 
L 364.730568 169.666942 
L 366.721332 166.086654 
L 368.778455 175.696901 
L 370.835578 200.193612 
L 372.693625 226.763121 
L 374.750748 243.722382 
L 376.741512 254.086375 
L 378.798635 252.955757 
L 380.789399 178.146573 
L 382.846522 175.320029 
L 384.903645 172.870358 
L 386.89441 202.077974 
L 388.951533 210.746041 
L 390.942297 239.011476 
L 392.99942 227.139993 
L 395.056543 226.009376 
L 396.980948 244.287691 
L 399.038071 240.895838 
L 401.028835 229.212792 
L 403.085958 226.197812 
L 405.076723 184.364968 
L 407.133846 175.696901 
L 409.190969 178.523445 
L 411.181733 197.555505 
L 413.238856 201.512666 
L 415.22962 247.114234 
L 417.286743 203.208592 
L 419.343866 204.339209 
L 421.201913 234.489006 
L 423.259036 255.593865 
L 425.2498 253.897939 
L 427.306923 227.705302 
L 429.297687 187.191512 
L 431.35481 190.394928 
L 433.411933 179.27719 
L 435.402697 243.157073 
L 437.45982 254.651683 
L 439.450584 256.536046 
L 443.56483 242.214892 
L 445.422877 252.578885 
L 447.48 262.000697 
L 447.48 262.000697 
" style="fill:none;stroke:#1f77b4;stroke-linecap:square;stroke-width:1.5;"/>
   </g>
   <g id="patch_3">
    <path d="M 31.543 309.8635 
L 31.543 23.36505 
" style="fill:none;stroke:#000000;stroke-linecap:square;stroke-linejoin:miter;stroke-width:0.8;"/>
   </g>
   <g id="patch_4">
    <path d="M 447.48 309.8635 
L 447.48 23.36505 
" style="fill:none;stroke:#000000;stroke-linecap:square;stroke-linejoin:miter;stroke-width:0.8;"/>
   </g>
   <g id="patch_5">
    <path d="M 31.543 309.8635 
L 447.48 309.8635 
" style="fill:none;stroke:#000000;stroke-linecap:square;stroke-linejoin:miter;stroke-width:0.8;"/>
   </g>
   <g id="patch_6">
    <path d="M 31.543 23.36505 
L 447.48 23.36505 
" style="fill:none;stroke:#000000;stroke-linecap:square;stroke-linejoin:miter;stroke-width:0.8;"/>
   </g>
   <g id="text_18">
    <!-- Monthly gross load trend (MW) -->
    <defs>
     <path d="M 9.8125 72.90625 
L 24.515625 72.90625 
L 43.109375 23.296875 
L 61.8125 72.90625 
L 76.515625 72.90625 
L 76.515625 0 
L 66.890625 0 
L 66.890625 64.015625 
L 48.09375 14.015625 
L 38.1875 14.015625 
L 19.390625 64.015625 
L 19.390625 0 
L 9.8125 0 
z
" id="DejaVuSans-4d"/>
     <path d="M 30.609375 48.390625 
Q 23.390625 48.390625 19.1875 42.75 
Q 14.984375 37.109375 14.984375 27.296875 
Q 14.984375 17.484375 19.15625 11.84375 
Q 23.34375 6.203125 30.609375 6.203125 
Q 37.796875 6.203125 41.984375 11.859375 
Q 46.1875 17.53125 46.1875 27.296875 
Q 46.1875 37.015625 41.984375 42.703125 
Q 37.796875 48.390625 30.609375 48.390625 
z
M 30.609375 56 
Q 42.328125 56 49.015625 48.375 
Q 55.71875 40.765625 55.71875 27.296875 
Q 55.71875 13.875 49.015625 6.21875 
Q 42.328125 -1.421875 30.609375 -1.421875 
Q 18.84375 -1.421875 12.171875 6.21875 
Q 5.515625 13.875 5.515625 27.296875 
Q 5.515625 40.765625 12.171875 48.375 
Q 18.84375 56 30.609375 56 
z
" id="DejaVuSans-6f"/>
     <path d="M 54.890625 33.015625 
L 54.890625 0 
L 45.90625 0 
L 45.90625 32.71875 
Q 45.90625 40.484375 42.875 44.328125 
Q 39.84375 48.1875 33.796875 48.1875 
Q 26.515625 48.1875 22.3125 43.546875 
Q 18.109375 38.921875 18.109375 30.90625 
L 18.109375 0 
L 9.078125 0 
L 9.078125 54.6875 
L 18.109375 54.6875 
L 18.109375 46.1875 
Q 21.34375 51.125 25.703125 53.5625 
Q 30.078125 56 35.796875 56 
Q 45.21875 56 50.046875 50.171875 
Q 54.890625 44.34375 54.890625 33.015625 
z
" id="DejaVuSans-6e"/>
     <path d="M 54.890625 33.015625 
L 54.890625 0 
L 45.90625 0 
L 45.90625 32.71875 
Q 45.90625 40.484375 42.875 44.328125 
Q 39.84375 48.1875 33.796875 48.1875 
Q 26.515625 48.1875 22.3125 43.546875 
Q 18.109375 38.921875 18.109375 30.90625 
L 18.109375 0 
L 9.078125 0 
L 9.078125 75.984375 
L 18.109375 75.984375 
L 18.109375 46.1875 
Q 21.34375 51.125 25.703125 53.5625 
Q 30.078125 56 35.796875 56 
Q 45.21875 56 50.046875 50.171875 
Q 54.890625 44.34375 54.890625 33.015625 
z
" id="DejaVuSans-68"/>
     <path d="M 9.421875 75.984375 
L 18.40625 75.984375 
L 18.40625 0 
L 9.421875 0 
z
" id="DejaVuSans-6c"/>
     <path d="M 32.171875 -5.078125 
Q 28.375 -14.84375 24.75 -17.8125 
Q 21.140625 -20.796875 15.09375 -20.796875 
L 7.90625 -20.796875 
L 7.90625 -13.28125 
L 13.1875 -13.28125 
Q 16.890625 -13.28125 18.9375 -11.515625 
Q 21 -9.765625 23.484375 -3.21875 
L 25.09375 0.875 
L 2.984375 54.6875 
L 12.5 54.6875 
L 29.59375 11.921875 
L 46.6875 54.6875 
L 56.203125 54.6875 
z
" id="DejaVuSans-79"/>
     <path id="DejaVuSans-20"/>
     <path d="M 45.40625 27.984375 
Q 45.40625 37.75 41.375 43.109375 
Q 37.359375 48.484375 30.078125 48.484375 
Q 22.859375 48.484375 18.828125 43.109375 
Q 14.796875 37.75 14.796875 27.984375 
Q 14.796875 18.265625 18.828125 12.890625 
Q 22.859375 7.515625 30.078125 7.515625 
Q 37.359375 7.515625 41.375 12.890625 
Q 45.40625 18.265625 45.40625 27.984375 
z
M 54.390625 6.78125 
Q 54.390625 -7.171875 48.1875 -13.984375 
Q 42 -20.796875 29.203125 -20.796875 
Q 24.46875 -20.796875 20.265625 -20.09375 
Q 16.0625 -19.390625 12.109375 -17.921875 
L 12.109375 -9.1875 
Q 16.0625 -11.328125 19.921875 -12.34375 
Q 23.78125 -13.375 27.78125 -13.375 
Q 36.625 -13.375 41.015625 -8.765625 
Q 45.40625 -4.15625 45.40625 5.171875 
L 45.40625 9.625 
Q 42.625 4.78125 38.28125 2.390625 
Q 33.9375 0 27.875 0 
Q 17.828125 0 11.671875 7.65625 
Q 5.515625 15.328125 5.515625 27.984375 
Q 5.515625 40.671875 11.671875 48.328125 
Q 17.828125 56 27.875 56 
Q 33.9375 56 38.28125 53.609375 
Q 42.625 51.21875 45.40625 46.390625 
L 45.40625 54.6875 
L 54.390625 54.6875 
z
" id="DejaVuSans-67"/>
     <path d="M 41.109375 46.296875 
Q 39.59375 47.171875 37.8125 47.578125 
Q 36.03125 48 33.890625 48 
Q 26.265625 48 22.1875 43.046875 
Q 18.109375 38.09375 18.109375 28.8125 
L 18.109375 0 
L 9.078125 0 
L 9.078125 54.6875 
L 18.109375 54.6875 
L 18.109375 46.1875 
Q 20.953125 51.171875 25.484375 53.578125 
Q 30.03125 56 36.53125 56 
Q 37.453125 56 38.578125 55.875 
Q 39.703125 55.765625 41.0625 55.515625 
z
" id="DejaVuSans-72"/>
     <path d="M 44.28125 53.078125 
L 44.28125 44.578125 
Q 40.484375 46.53125 36.375 47.5 
Q 32.28125 48.484375 27.875 48.484375 
Q 21.1875 48.484375 17.84375 46.4375 
Q 14.5 44.390625 14.5 40.28125 
Q 14.5 37.15625 16.890625 35.375 
Q 19.28125 33.59375 26.515625 31.984375 
L 29.59375 31.296875 
Q 39.15625 29.25 43.1875 25.515625 
Q 47.21875 21.78125 47.21875 15.09375 
Q 47.21875 7.46875 41.1875 3.015625 
Q 35.15625 -1.421875 24.609375 -1.421875 
Q 20.21875 -1.421875 15.453125 -0.5625 
Q 10.6875 0.296875 5.421875 2 
L 5.421875 11.28125 
Q 10.40625 8.6875 15.234375 7.390625 
Q 20.0625 6.109375 24.8125 6.109375 
Q 31.15625 6.109375 34.5625 8.28125 
Q 37.984375 10.453125 37.984375 14.40625 
Q 37.984375 18.0625 35.515625 20.015625 
Q 33.0625 21.96875 24.703125 23.78125 
L 21.578125 24.515625 
Q 13.234375 26.265625 9.515625 29.90625 
Q 5.8125 33.546875 5.8125 39.890625 
Q 5.8125 47.609375 11.28125 51.796875 
Q 16.75 56 26.8125 56 
Q 31.78125 56 36.171875 55.265625 
Q 40.578125 54.546875 44.28125 53.078125 
z
" id="DejaVuSans-73"/>
     <path d="M 45.40625 46.390625 
L 45.40625 75.984375 
L 54.390625 75.984375 
L 54.390625 0 
L 45.40625 0 
L 45.40625 8.203125 
Q 42.578125 3.328125 38.25 0.953125 
Q 33.9375 -1.421875 27.875 -1.421875 
Q 17.96875 -1.421875 11.734375 6.484375 
Q 5.515625 14.40625 5.515625 27.296875 
Q 5.515625 40.1875 11.734375 48.09375 
Q 17.96875 56 27.875 56 
Q 33.9375 56 38.25 53.625 
Q 42.578125 51.265625 45.40625 46.390625 
z
M 14.796875 27.296875 
Q 14.796875 17.390625 18.875 11.75 
Q 22.953125 6.109375 30.078125 6.109375 
Q 37.203125 6.109375 41.296875 11.75 
Q 45.40625 17.390625 45.40625 27.296875 
Q 45.40625 37.203125 41.296875 42.84375 
Q 37.203125 48.484375 30.078125 48.484375 
Q 22.953125 48.484375 18.875 42.84375 
Q 14.796875 37.203125 14.796875 27.296875 
z
" id="DejaVuSans-64"/>
     <path d="M 31 75.875 
Q 24.46875 64.65625 21.28125 53.65625 
Q 18.109375 42.671875 18.109375 31.390625 
Q 18.109375 20.125 21.3125 9.0625 
Q 24.515625 -2 31 -13.1875 
L 23.1875 -13.1875 
Q 15.875 -1.703125 12.234375 9.375 
Q 8.59375 20.453125 8.59375 31.390625 
Q 8.59375 42.28125 12.203125 53.3125 
Q 15.828125 64.359375 23.1875 75.875 
z
" id="DejaVuSans-28"/>
     <path d="M 3.328125 72.90625 
L 13.28125 72.90625 
L 28.609375 11.28125 
L 43.890625 72.90625 
L 54.984375 72.90625 
L 70.3125 11.28125 
L 85.59375 72.90625 
L 95.609375 72.90625 
L 77.296875 0 
L 64.890625 0 
L 49.515625 63.28125 
L 33.984375 0 
L 21.578125 0 
z
" id="DejaVuSans-57"/>
     <path d="M 8.015625 75.875 
L 15.828125 75.875 
Q 23.140625 64.359375 26.78125 53.3125 
Q 30.421875 42.28125 30.421875 31.390625 
Q 30.421875 20.453125 26.78125 9.375 
Q 23.140625 -1.703125 15.828125 -13.1875 
L 8.015625 -13.1875 
Q 14.5 -2 17.703125 9.0625 
Q 20.90625 20.125 20.90625 31.390625 
Q 20.90625 42.671875 17.703125 53.65625 
Q 14.5 64.65625 8.015625 75.875 
z
" id="DejaVuSans-29"/>
    </defs>
    <g transform="translate(146.928688 17.36505)scale(0.12 -0.12)">
     <use xlink:href="#DejaVuSans-4d"/>
     <use x="86.279297" xlink:href="#DejaVuSans-6f"/>
     <use x="147.460938" xlink:href="#DejaVuSans-6e"/>
     <use x="210.839844" xlink:href="#DejaVuSans-74"/>
     <use x="250.048828" xlink:href="#DejaVuSans-68"/>
     <use x="313.427734" xlink:href="#DejaVuSans-6c"/>
     <use x="341.210938" xlink:href="#DejaVuSans-79"/>
     <use x="400.390625" xlink:href="#DejaVuSans-20"/>
     <use x="432.177734" xlink:href="#DejaVuSans-67"/>
     <use x="495.654297" xlink:href="#DejaVuSans-72"/>
     <use x="536.736328" xlink:href="#DejaVuSans-6f"/>
     <use x="597.917969" xlink:href="#DejaVuSans-73"/>
     <use x="650.017578" xlink:href="#DejaVuSans-73"/>
     <use x="702.117188" xlink:href="#DejaVuSans-20"/>
     <use x="733.904297" xlink:href="#DejaVuSans-6c"/>
     <use x="761.6875" xlink:href="#DejaVuSans-6f"/>
     <use x="822.869141" xlink:href="#DejaVuSans-61"/>
     <use x="884.148438" xlink:href="#DejaVuSans-64"/>
     <use x="947.625" xlink:href="#DejaVuSans-20"/>
     <use x="979.412109" xlink:href="#DejaVuSans-74"/>
     <use x="1018.621094" xlink:href="#DejaVuSans-72"/>
     <use x="1059.703125" xlink:href="#DejaVuSans-65"/>
     <use x="1121.226562" xlink:href="#DejaVuSans-6e"/>
     <use x="1184.605469" xlink:href="#DejaVuSans-64"/>
     <use x="1248.082031" xlink:href="#DejaVuSans-20"/>
     <use x="1279.869141" xlink:href="#DejaVuSans-28"/>
     <use x="1318.882812" xlink:href="#DejaVuSans-4d"/>
     <use x="1405.162109" xlink:href="#DejaVuSans-57"/>
     <use x="1504.039062" xlink:href="#DejaVuSans-29"/>
    </g>
   </g>
  </g>
 </g>
 <defs>
  <clipPath id="pe5760e0fb9">
   <rect height="286.49845" width="415.937" x="31.543" y="23.36505"/>
  </clipPath>
 </defs>
</svg>
