<?xml version="1.0" encoding="utf-8" standalone="no"?>
<!DOCTYPE svg PUBLIC "-//W3C//DTD SVG 1.1//EN"
  "http://www.w3.org/Graphics/SVG/1.1/DTD/svg11.dtd">
<!-- Created with matplotlib (http://matplotlib.org/) -->
<svg height="345.6pt" version="1.1" viewBox="0 0 460.8 345.6" width="460.8pt" xmlns="http://www.w3.org/2000/svg" xmlns:xlink="http://www.w3.org/1999/xlink">
 <defs>
  <style type="text/css">
*{stroke-linecap:butt;stroke-linejoin:round;}
  </style>
 </defs>
 <g id="figure_1">
  <g id="patch_1">
   <path d="M 0 345.6 
L 460.8 345.6 
L 460.8 0 
L 0 0 
z
" style="fill:none;"/>
  </g>
  <g id="axes_1">
   <g id="patch_2">
    <path d="M 36.124 309.8635 
L 447.48 309.8635 
L 447.48 23.36505 
L 36.124 23.36505 
z
" style="fill:none;"/>
   </g>
   <g id="PolyCollection_1">
    <path clip-path="url(#pb1c709dc17)" d="M 36.124 51.081441 
L 36.124 141.985461 
L 37.961583 154.766595 
L 39.996049 138.108038 
L 41.964888 188.945357 
L 43.999354 187.07845 
L 45.968193 197.274635 
L 48.002659 149.45309 
L 50.037126 198.854326 
L 52.005964 196.412986 
L 54.040431 194.115254 
L 56.009269 222.693295 
L 58.043736 105.652575 
L 60.078202 194.833295 
L 61.915785 119.726183 
L 63.950251 134.517832 
L 65.91909 151.463605 
L 67.953556 160.941749 
L 69.922395 165.537213 
L 71.956862 158.500409 
L 73.991328 137.820822 
L 75.960167 200.434017 
L 77.994633 199.715976 
L 79.963472 211.348244 
L 81.997938 146.437316 
L 84.032405 165.249997 
L 85.869987 188.658141 
L 87.904454 269.509583 
L 89.873292 175.446182 
L 91.907759 188.083708 
L 93.876597 154.192162 
L 95.911064 189.663398 
L 97.94553 135.953915 
L 99.914369 198.423501 
L 101.948835 244.665356 
L 103.917674 223.411336 
L 105.95214 228.150408 
L 107.986607 200.434017 
L 109.889817 118.720925 
L 111.924284 225.278243 
L 113.893123 197.849068 
L 115.927589 132.507317 
L 117.896428 138.395255 
L 119.930894 223.554944 
L 121.965361 187.940099 
L 123.934199 148.447832 
L 125.968666 208.476079 
L 127.937504 170.419894 
L 129.971971 121.018657 
L 132.006437 169.127419 
L 133.84402 142.84711 
L 135.878486 194.402471 
L 137.847325 257.877315 
L 139.881791 219.533914 
L 141.85063 137.102781 
L 143.885096 198.136285 
L 145.919563 208.188862 
L 147.888401 167.834945 
L 149.922868 129.204327 
L 151.891706 196.269378 
L 153.926173 167.260512 
L 155.960639 156.920718 
L 157.798222 309.8635 
L 159.832689 176.45144 
L 161.801527 230.017315 
L 163.835994 220.395563 
L 165.804832 167.691337 
L 167.839299 185.211543 
L 169.873765 129.922368 
L 171.842604 309.8635 
L 173.87707 227.001542 
L 175.845909 189.088965 
L 177.880375 162.090615 
L 179.914842 146.293708 
L 181.752424 219.677522 
L 183.786891 168.983811 
L 185.755729 146.437316 
L 187.790196 261.323913 
L 189.759034 213.645975 
L 191.793501 159.649275 
L 193.827967 164.531955 
L 195.796806 212.497109 
L 197.831272 309.8635 
L 199.800111 309.8635 
L 201.834578 273.530614 
L 203.869044 309.8635 
L 205.772255 286.598964 
L 207.806721 259.026181 
L 209.77556 218.097831 
L 211.810026 192.82278 
L 213.778865 140.40577 
L 215.813331 186.216801 
L 217.847798 193.828038 
L 219.816636 265.775769 
L 221.851103 236.910511 
L 223.819941 201.295666 
L 225.854408 189.51979 
L 227.888874 210.486594 
L 229.726457 257.015666 
L 231.760923 242.080408 
L 233.729762 215.369274 
L 235.764228 143.134327 
L 237.733067 199.428759 
L 239.767534 201.00845 
L 241.802 204.742264 
L 243.770839 213.789584 
L 245.805305 227.719584 
L 247.774144 165.968038 
L 249.80861 188.801749 
L 251.843077 255.00515 
L 253.680659 275.541129 
L 255.715126 259.026181 
L 257.683964 263.908861 
L 259.718431 258.595356 
L 261.687269 218.385048 
L 263.721736 224.847419 
L 265.756202 182.770203 
L 267.725041 159.505667 
L 269.759507 185.355151 
L 271.728346 190.525048 
L 273.762812 144.570409 
L 275.797279 171.568759 
L 277.634862 200.577625 
L 279.669328 157.63876 
L 281.638167 201.152058 
L 283.672633 267.642676 
L 285.641472 174.728141 
L 287.675938 199.572367 
L 289.710405 134.374224 
L 291.679243 149.022265 
L 293.71371 234.181955 
L 295.682548 147.298966 
L 297.717015 186.360409 
L 299.751481 193.109996 
L 301.654692 194.546079 
L 303.689158 197.274635 
L 305.657997 275.971954 
L 307.692463 209.481336 
L 309.661302 211.63546 
L 311.695768 213.789584 
L 313.730235 156.77711 
L 315.699073 158.356801 
L 317.73354 309.8635 
L 319.702378 233.607522 
L 321.736845 162.808656 
L 323.771311 189.950615 
L 325.608894 196.987419 
L 327.643361 174.584533 
L 329.612199 255.723191 
L 331.646666 237.341336 
L 333.615504 226.714326 
L 335.649971 157.925976 
L 337.684437 223.411336 
L 339.653276 192.391955 
L 341.687742 235.330821 
L 343.656581 203.44979 
L 345.691047 163.526698 
L 347.725514 208.763295 
L 349.563096 208.476079 
L 351.597563 222.118862 
L 353.566401 292.630511 
L 355.600868 185.929584 
L 357.569706 209.337728 
L 359.604173 200.721233 
L 361.638639 266.49381 
L 363.607478 200.721233 
L 365.641944 251.127728 
L 367.610783 221.113604 
L 369.64525 197.274635 
L 371.679716 250.266078 
L 373.517299 231.30979 
L 375.551765 268.073501 
L 377.520604 274.248655 
L 379.55507 252.707418 
L 381.523909 250.12247 
L 383.558375 244.665356 
L 385.592842 215.800099 
L 387.56168 186.360409 
L 389.596147 267.786284 
L 391.564985 225.709068 
L 393.599452 234.325563 
L 395.633918 201.870099 
L 397.537129 269.940408 
L 399.571595 231.30979 
L 401.540434 224.991027 
L 403.5749 214.651233 
L 405.543739 151.03278 
L 407.578205 196.412986 
L 409.612672 202.588141 
L 411.581511 309.8635 
L 413.615977 158.931234 
L 415.584816 197.561852 
L 417.619282 233.894738 
L 419.653749 267.929892 
L 421.491331 211.204635 
L 423.525798 211.061027 
L 425.494636 187.365666 
L 427.529103 262.759995 
L 429.497941 165.680821 
L 431.532408 193.971646 
L 433.566874 246.963088 
L 435.535713 229.012058 
L 437.570179 204.885872 
L 439.539018 193.684429 
L 441.573484 269.796799 
L 443.607951 272.956181 
L 445.445534 265.488552 
L 447.48 258.020923 
L 447.48 183.919069 
L 447.48 183.919069 
L 445.445534 184.062677 
L 443.607951 182.19577 
L 441.573484 66.016699 
L 439.539018 65.011441 
L 437.570179 57.543812 
L 435.535713 58.118245 
L 433.566874 56.538555 
L 431.532408 58.54907 
L 429.497941 60.559586 
L 427.529103 66.303915 
L 425.494636 62.426493 
L 423.525798 60.128761 
L 421.491331 62.857318 
L 419.653749 62.713709 
L 417.619282 64.149792 
L 415.584816 60.415977 
L 413.615977 37.007833 
L 411.581511 66.591132 
L 409.612672 64.006184 
L 407.578205 58.979895 
L 405.543739 58.54907 
L 403.5749 56.251338 
L 401.540434 88.706802 
L 399.571595 63.431751 
L 397.537129 80.233915 
L 395.633918 61.421235 
L 393.599452 54.528039 
L 391.564985 79.659482 
L 389.596147 65.585874 
L 387.56168 58.118245 
L 385.592842 57.112988 
L 383.558375 59.41072 
L 381.523909 57.400204 
L 379.55507 62.713709 
L 377.520604 115.84876 
L 375.551765 112.258554 
L 373.517299 108.381131 
L 371.679716 51.655874 
L 369.64525 53.66639 
L 367.610783 85.978245 
L 365.641944 59.267111 
L 363.607478 51.368658 
L 361.638639 53.379173 
L 359.604173 47.778452 
L 357.569706 53.809998 
L 355.600868 55.964122 
L 353.566401 68.745256 
L 351.597563 61.564843 
L 349.563096 50.650617 
L 347.725514 57.687421 
L 345.691047 54.528039 
L 343.656581 57.112988 
L 341.687742 50.076184 
L 339.653276 37.007833 
L 337.684437 51.368658 
L 335.649971 48.065668 
L 333.615504 52.230307 
L 331.646666 53.235565 
L 329.612199 127.768245 
L 327.643361 57.687421 
L 325.608894 51.799483 
L 323.771311 37.007833 
L 321.736845 52.80474 
L 319.702378 51.799483 
L 317.73354 127.624636 
L 315.699073 50.507008 
L 313.730235 50.3634 
L 311.695768 50.219792 
L 309.661302 56.825771 
L 307.692463 67.165565 
L 305.657997 83.249688 
L 303.689158 124.89608 
L 301.654692 69.894122 
L 299.751481 61.134019 
L 297.717015 55.389689 
L 295.682548 55.389689 
L 293.71371 51.655874 
L 291.679243 50.076184 
L 289.710405 49.358142 
L 287.675938 50.3634 
L 285.641472 49.214534 
L 283.672633 51.081441 
L 281.638167 51.655874 
L 279.669328 52.230307 
L 277.634862 101.200719 
L 275.797279 49.214534 
L 273.762812 48.927318 
L 271.728346 103.642059 
L 269.759507 48.352885 
L 267.725041 49.214534 
L 265.756202 49.788967 
L 263.721736 48.065668 
L 261.687269 50.076184 
L 259.718431 52.80474 
L 257.683964 126.332162 
L 255.715126 106.083399 
L 253.680659 126.906595 
L 251.843077 71.904637 
L 249.80861 51.081441 
L 247.774144 51.22505 
L 245.805305 50.3634 
L 243.770839 49.070926 
L 241.802 49.214534 
L 239.767534 50.507008 
L 237.733067 49.214534 
L 235.764228 50.937833 
L 233.729762 47.491235 
L 231.760923 100.051853 
L 229.726457 105.078142 
L 227.888874 57.400204 
L 225.854408 55.102472 
L 223.819941 55.533297 
L 221.851103 105.796183 
L 219.816636 61.421235 
L 217.847798 55.964122 
L 215.813331 53.809998 
L 213.778865 53.809998 
L 211.810026 54.097215 
L 209.77556 52.373916 
L 207.806721 91.866183 
L 205.772255 121.736698 
L 203.869044 88.994018 
L 201.834578 60.703194 
L 199.800111 41.316081 
L 197.831272 130.209585 
L 195.796806 53.66639 
L 193.827967 52.373916 
L 191.793501 53.235565 
L 189.759034 41.316081 
L 187.790196 50.794225 
L 185.755729 52.230307 
L 183.786891 51.799483 
L 181.752424 52.373916 
L 179.914842 54.384431 
L 177.880375 53.235565 
L 175.845909 52.086699 
L 173.87707 51.943091 
L 171.842604 51.655874 
L 169.873765 51.799483 
L 167.839299 51.655874 
L 165.804832 51.943091 
L 163.835994 52.517524 
L 161.801527 69.463297 
L 159.832689 51.799483 
L 157.798222 52.086699 
L 155.960639 52.086699 
L 153.926173 51.081441 
L 151.891706 52.230307 
L 149.922868 51.799483 
L 147.888401 52.517524 
L 145.919563 52.230307 
L 143.885096 50.219792 
L 141.85063 51.368658 
L 139.881791 53.235565 
L 137.847325 102.493193 
L 135.878486 51.943091 
L 133.84402 52.230307 
L 132.006437 52.517524 
L 129.971971 49.932575 
L 127.937504 53.809998 
L 125.968666 58.118245 
L 123.934199 53.809998 
L 121.965361 50.937833 
L 119.930894 53.379173 
L 117.896428 52.373916 
L 115.927589 49.932575 
L 113.893123 53.953606 
L 111.924284 53.522782 
L 109.889817 52.517524 
L 107.986607 53.091957 
L 105.95214 55.389689 
L 103.917674 54.528039 
L 101.948835 132.2201 
L 99.914369 56.251338 
L 97.94553 55.676905 
L 95.911064 54.240823 
L 93.876597 53.953606 
L 91.907759 53.379173 
L 89.873292 52.661132 
L 87.904454 103.067626 
L 85.869987 52.80474 
L 84.032405 52.373916 
L 81.997938 54.097215 
L 79.963472 54.528039 
L 77.994633 55.676905 
L 75.960167 53.091957 
L 73.991328 53.522782 
L 71.956862 55.676905 
L 69.922395 55.102472 
L 67.953556 53.66639 
L 65.91909 51.943091 
L 63.950251 52.661132 
L 61.915785 52.661132 
L 60.078202 51.655874 
L 58.043736 51.368658 
L 56.009269 61.85206 
L 54.040431 52.230307 
L 52.005964 52.517524 
L 50.037126 51.368658 
L 48.002659 51.22505 
L 45.968193 51.081441 
L 43.999354 51.655874 
L 41.964888 101.200719 
L 39.996049 50.794225 
L 37.961583 50.076184 
L 36.124 51.081441 
z
" style="fill:#808080;fill-opacity:0.3;"/>
   </g>
   <g id="PolyCollection_2">
    <path clip-path="url(#pb1c709dc17)" d="M 36.124 53.091957 
L 36.124 57.866931 
L 37.961583 103.785668 
L 39.996049 57.831029 
L 41.964888 130.712214 
L 43.999354 111.001982 
L 45.968193 108.991466 
L 48.002659 95.061467 
L 50.037126 150.458347 
L 52.005964 141.985461 
L 54.040431 133.799791 
L 56.009269 158.392703 
L 58.043736 68.781158 
L 60.078202 104.970436 
L 61.915785 92.189302 
L 63.950251 61.313529 
L 65.91909 76.392395 
L 67.953556 111.396905 
L 69.922395 87.198915 
L 71.956862 133.548476 
L 73.991328 76.500101 
L 75.960167 131.645667 
L 77.994633 123.352291 
L 79.963472 184.349893 
L 81.997938 91.435358 
L 84.032405 114.735796 
L 85.869987 156.346285 
L 87.904454 183.667754 
L 89.873292 133.656183 
L 91.907759 105.078142 
L 93.876597 108.417033 
L 95.911064 96.174431 
L 97.94553 67.632292 
L 99.914369 141.44693 
L 101.948835 198.603012 
L 103.917674 142.739404 
L 105.95214 136.707858 
L 107.986607 79.44407 
L 109.889817 63.611261 
L 111.924284 105.437162 
L 113.893123 139.831337 
L 115.927589 64.006184 
L 117.896428 106.26291 
L 119.930894 130.963528 
L 121.965361 79.838993 
L 123.934199 69.319689 
L 125.968666 145.467961 
L 127.937504 103.606157 
L 129.971971 68.350333 
L 132.006437 112.832987 
L 133.84402 63.180436 
L 135.878486 105.114044 
L 137.847325 138.287549 
L 139.881791 133.26126 
L 141.85063 69.17608 
L 143.885096 93.37407 
L 145.919563 71.222498 
L 147.888401 68.924766 
L 149.922868 61.026312 
L 151.891706 106.693735 
L 153.926173 107.806698 
L 155.960639 76.464199 
L 157.798222 133.799791 
L 159.832689 78.079792 
L 161.801527 208.045254 
L 163.835994 77.218142 
L 165.804832 72.622678 
L 167.839299 56.825771 
L 169.873765 59.985153 
L 171.842604 130.927626 
L 173.87707 136.528348 
L 175.845909 108.273425 
L 177.880375 65.442266 
L 179.914842 62.139276 
L 181.752424 137.210487 
L 183.786891 109.960822 
L 185.755729 105.22175 
L 187.790196 133.225358 
L 189.759034 132.39961 
L 191.793501 93.050951 
L 193.827967 104.934534 
L 195.796806 138.826079 
L 197.831272 141.339224 
L 199.800111 209.624945 
L 201.834578 187.365666 
L 203.869044 186.934842 
L 205.772255 232.135537 
L 207.806721 181.046904 
L 209.77556 106.801441 
L 211.810026 111.432807 
L 213.778865 85.296106 
L 215.813331 91.327652 
L 217.847798 99.944147 
L 219.816636 186.934842 
L 221.851103 156.346285 
L 223.819941 130.927626 
L 225.854408 128.773502 
L 227.888874 134.517832 
L 229.726457 178.749172 
L 231.760923 187.904197 
L 233.729762 132.866337 
L 235.764228 89.317137 
L 237.733067 107.124559 
L 239.767534 108.093915 
L 241.802 70.755771 
L 243.770839 110.930178 
L 245.805305 112.150848 
L 247.774144 124.249843 
L 249.80861 113.299714 
L 251.843077 161.982909 
L 253.680659 206.07064 
L 255.715126 189.447986 
L 257.683964 188.406826 
L 259.718431 183.057419 
L 261.687269 135.487188 
L 263.721736 143.995976 
L 265.756202 116.997626 
L 267.725041 91.004534 
L 269.759507 128.953013 
L 271.728346 135.164069 
L 273.762812 122.957368 
L 275.797279 106.514224 
L 277.634862 161.947007 
L 279.669328 114.987111 
L 281.638167 122.777858 
L 283.672633 185.103837 
L 285.641472 129.635152 
L 287.675938 131.071234 
L 289.710405 60.451879 
L 291.679243 81.131467 
L 293.71371 119.726183 
L 295.682548 114.017755 
L 297.717015 131.825178 
L 299.751481 142.84711 
L 301.654692 146.042394 
L 303.689158 168.44528 
L 305.657997 198.854326 
L 307.692463 127.33742 
L 309.661302 108.991466 
L 311.695768 90.573709 
L 313.730235 118.756827 
L 315.699073 107.411776 
L 317.73354 226.139893 
L 319.702378 180.903295 
L 321.736845 116.171879 
L 323.771311 126.655281 
L 325.608894 138.251646 
L 327.643361 140.549378 
L 329.612199 163.670306 
L 331.646666 182.626594 
L 333.615504 146.186002 
L 335.649971 106.945049 
L 337.684437 186.863038 
L 339.653276 119.15175 
L 341.687742 144.426801 
L 343.656581 129.240229 
L 345.691047 129.096621 
L 347.725514 179.790332 
L 349.563096 111.684121 
L 351.597563 157.064327 
L 353.566401 161.803399 
L 355.600868 138.754275 
L 357.569706 137.569507 
L 359.604173 119.187652 
L 361.638639 187.940099 
L 363.607478 135.7026 
L 365.641944 157.782368 
L 367.610783 170.132677 
L 369.64525 123.352291 
L 371.679716 159.074842 
L 373.517299 181.046904 
L 375.551765 211.743166 
L 377.520604 225.026929 
L 379.55507 150.745564 
L 381.523909 160.367316 
L 383.558375 157.423347 
L 385.592842 133.08175 
L 387.56168 143.565152 
L 389.596147 207.470821 
L 391.564985 182.339378 
L 393.599452 170.024971 
L 395.633918 122.957368 
L 397.537129 202.157316 
L 399.571595 158.536311 
L 401.540434 198.208089 
L 403.5749 146.939945 
L 405.543739 99.369714 
L 407.578205 131.609765 
L 409.612672 140.764791 
L 411.581511 171.317445 
L 413.615977 83.536905 
L 415.584816 138.897884 
L 417.619282 147.765693 
L 419.653749 149.991621 
L 421.491331 149.022265 
L 423.525798 119.187652 
L 425.494636 104.970436 
L 427.529103 192.391955 
L 429.497941 123.459997 
L 431.532408 155.807755 
L 433.566874 113.730539 
L 435.535713 142.775306 
L 437.570179 111.396905 
L 439.539018 122.885564 
L 441.573484 185.642368 
L 443.607951 236.874609 
L 445.445534 235.330821 
L 447.48 237.772161 
L 447.48 193.540821 
L 447.48 193.540821 
L 445.445534 188.801749 
L 443.607951 192.248347 
L 441.573484 111.432807 
L 439.539018 88.240075 
L 437.570179 66.698838 
L 435.535713 68.242627 
L 433.566874 63.970281 
L 431.532408 67.129663 
L 429.497941 72.730384 
L 427.529103 91.866183 
L 425.494636 78.2234 
L 423.525798 78.941441 
L 421.491331 91.435358 
L 419.653749 83.96773 
L 417.619282 92.656029 
L 415.584816 83.10608 
L 413.615977 71.725127 
L 411.581511 87.234817 
L 409.612672 87.522034 
L 407.578205 71.473812 
L 405.543739 65.69358 
L 403.5749 87.773348 
L 401.540434 150.889172 
L 399.571595 128.199069 
L 397.537129 144.678115 
L 395.633918 71.43791 
L 393.599452 93.158657 
L 391.564985 131.896982 
L 389.596147 148.986363 
L 387.56168 83.213786 
L 385.592842 66.303915 
L 383.558375 97.107884 
L 381.523909 84.362652 
L 379.55507 112.043142 
L 377.520604 171.676466 
L 375.551765 149.883914 
L 373.517299 148.699146 
L 371.679716 109.027369 
L 369.64525 82.208529 
L 367.610783 108.811956 
L 365.641944 82.782962 
L 363.607478 74.597292 
L 361.638639 101.55974 
L 359.604173 59.123503 
L 357.569706 84.793477 
L 355.600868 89.245333 
L 353.566401 117.93108 
L 351.597563 110.96608 
L 349.563096 69.463297 
L 347.725514 91.686673 
L 345.691047 87.414328 
L 343.656581 89.245333 
L 341.687742 106.191106 
L 339.653276 105.22175 
L 337.684437 84.649869 
L 335.649971 64.437008 
L 333.615504 71.473812 
L 331.646666 97.21559 
L 329.612199 141.26742 
L 327.643361 114.987111 
L 325.608894 74.776802 
L 323.771311 73.592034 
L 321.736845 70.612163 
L 319.702378 127.481028 
L 317.73354 156.310383 
L 315.699073 60.380075 
L 313.730235 89.424843 
L 311.695768 58.979895 
L 309.661302 70.612163 
L 307.692463 90.430101 
L 305.657997 135.52309 
L 303.689158 138.754275 
L 301.654692 118.541415 
L 299.751481 114.233167 
L 297.717015 95.133271 
L 295.682548 80.951956 
L 293.71371 65.011441 
L 291.679243 54.528039 
L 289.710405 52.373916 
L 287.675938 64.975539 
L 285.641472 66.842446 
L 283.672633 109.529997 
L 281.638167 59.697936 
L 279.669328 75.028116 
L 277.634862 107.232265 
L 275.797279 55.246081 
L 273.762812 60.559586 
L 271.728346 127.33742 
L 269.759507 72.47907 
L 267.725041 53.091957 
L 265.756202 56.789869 
L 263.721736 63.000926 
L 261.687269 60.236467 
L 259.718431 107.447678 
L 257.683964 133.727987 
L 255.715126 170.168579 
L 253.680659 131.17894 
L 251.843077 104.503709 
L 249.80861 64.437008 
L 247.774144 59.374818 
L 245.805305 62.570101 
L 243.770839 56.071828 
L 241.802 53.630488 
L 239.767534 57.220694 
L 237.733067 57.112988 
L 235.764228 64.149792 
L 233.729762 72.873993 
L 231.760923 108.919662 
L 229.726457 115.561544 
L 227.888874 70.181338 
L 225.854408 63.144534 
L 223.819941 109.637704 
L 221.851103 108.811956 
L 219.816636 114.699894 
L 217.847798 61.995668 
L 215.813331 60.667292 
L 213.778865 61.134019 
L 211.810026 63.575359 
L 209.77556 62.857318 
L 207.806721 130.927626 
L 205.772255 184.062677 
L 203.869044 142.416286 
L 201.834578 135.810306 
L 199.800111 132.902239 
L 197.831272 133.943399 
L 195.796806 130.784018 
L 193.827967 55.246081 
L 191.793501 60.092859 
L 189.759034 59.841544 
L 187.790196 56.825771 
L 185.755729 54.922962 
L 183.786891 93.302266 
L 181.752424 70.863477 
L 179.914842 56.251338 
L 177.880375 57.831029 
L 175.845909 58.118245 
L 173.87707 104.503709 
L 171.842604 58.405462 
L 169.873765 53.235565 
L 167.839299 52.948349 
L 165.804832 56.251338 
L 163.835994 59.554328 
L 161.801527 130.784018 
L 159.832689 61.995668 
L 157.798222 60.272369 
L 155.960639 56.825771 
L 153.926173 59.805642 
L 151.891706 55.641003 
L 149.922868 53.66639 
L 147.888401 55.246081 
L 145.919563 55.820514 
L 143.885096 57.974637 
L 141.85063 55.246081 
L 139.881791 104.216492 
L 137.847325 130.784018 
L 135.878486 54.384431 
L 133.84402 54.240823 
L 132.006437 57.831029 
L 129.971971 55.497395 
L 127.937504 59.087601 
L 125.968666 106.370616 
L 123.934199 60.703194 
L 121.965361 60.846802 
L 119.930894 62.570101 
L 117.896428 58.261854 
L 115.927589 55.102472 
L 113.893123 131.645667 
L 111.924284 59.123503 
L 109.889817 55.389689 
L 107.986607 56.394946 
L 105.95214 60.380075 
L 103.917674 87.522034 
L 101.948835 137.533605 
L 99.914369 64.867833 
L 97.94553 60.415977 
L 95.911064 60.99041 
L 93.876597 58.54907 
L 91.907759 58.261854 
L 89.873292 60.236467 
L 87.904454 108.093915 
L 85.869987 106.370616 
L 84.032405 59.087601 
L 81.997938 59.805642 
L 79.963472 106.227008 
L 77.994633 106.945049 
L 75.960167 59.697936 
L 73.991328 59.123503 
L 71.956862 64.257498 
L 69.922395 61.564843 
L 67.953556 61.241725 
L 65.91909 57.220694 
L 63.950251 55.676905 
L 61.915785 58.36956 
L 60.078202 56.969379 
L 58.043736 57.543812 
L 56.009269 117.859276 
L 54.040431 61.421235 
L 52.005964 114.556286 
L 50.037126 130.065976 
L 48.002659 54.097215 
L 45.968193 55.389689 
L 43.999354 69.391493 
L 41.964888 103.785668 
L 39.996049 52.661132 
L 37.961583 54.958864 
L 36.124 53.091957 
z
" style="fill:#808080;fill-opacity:0.6;"/>
   </g>
   <g id="matplotlib.axis_1">
    <g id="xtick_1">
     <g id="line2d_1">
      <path clip-path="url(#pb1c709dc17)" d="M 82.063566 309.8635 
L 82.063566 23.36505 
" style="fill:none;stroke:#b0b0b0;stroke-linecap:square;stroke-width:0.8;"/>
     </g>
     <g id="line2d_2">
      <defs>
       <path d="M 0 0 
L 0 3.5 
" id="m8261189e2a" style="stroke:#000000;stroke-width:0.8;"/>
      </defs>
      <g>
       <use style="stroke:#000000;stroke-width:0.8;" x="82.063566" xlink:href="#m8261189e2a" y="309.8635"/>
      </g>
     </g>
     <g id="text_1">
      <!-- 2003 -->
      <defs>
       <path d="M 19.1875 8.296875 
L 53.609375 8.296875 
L 53.609375 0 
L 7.328125 0 
L 7.328125 8.296875 
Q 12.9375 14.109375 22.625 23.890625 
Q 32.328125 33.6875 34.8125 36.53125 
Q 39.546875 41.84375 41.421875 45.53125 
Q 43.3125 49.21875 43.3125 52.78125 
Q 43.3125 58.59375 39.234375 62.25 
Q 35.15625 65.921875 28.609375 65.921875 
Q 23.96875 65.921875 18.8125 64.3125 
Q 13.671875 62.703125 7.8125 59.421875 
L 7.8125 69.390625 
Q 13.765625 71.78125 18.9375 73 
Q 24.125 74.21875 28.421875 74.21875 
Q 39.75 74.21875 46.484375 68.546875 
Q 53.21875 62.890625 53.21875 53.421875 
Q 53.21875 48.921875 51.53125 44.890625 
Q 49.859375 40.875 45.40625 35.40625 
Q 44.1875 33.984375 37.640625 27.21875 
Q 31.109375 20.453125 19.1875 8.296875 
z
" id="DejaVuSans-32"/>
       <path d="M 31.78125 66.40625 
Q 24.171875 66.40625 20.328125 58.90625 
Q 16.5 51.421875 16.5 36.375 
Q 16.5 21.390625 20.328125 13.890625 
Q 24.171875 6.390625 31.78125 6.390625 
Q 39.453125 6.390625 43.28125 13.890625 
Q 47.125 21.390625 47.125 36.375 
Q 47.125 51.421875 43.28125 58.90625 
Q 39.453125 66.40625 31.78125 66.40625 
z
M 31.78125 74.21875 
Q 44.046875 74.21875 50.515625 64.515625 
Q 56.984375 54.828125 56.984375 36.375 
Q 56.984375 17.96875 50.515625 8.265625 
Q 44.046875 -1.421875 31.78125 -1.421875 
Q 19.53125 -1.421875 13.0625 8.265625 
Q 6.59375 17.96875 6.59375 36.375 
Q 6.59375 54.828125 13.0625 64.515625 
Q 19.53125 74.21875 31.78125 74.21875 
z
" id="DejaVuSans-30"/>
       <path d="M 40.578125 39.3125 
Q 47.65625 37.796875 51.625 33 
Q 55.609375 28.21875 55.609375 21.1875 
Q 55.609375 10.40625 48.1875 4.484375 
Q 40.765625 -1.421875 27.09375 -1.421875 
Q 22.515625 -1.421875 17.65625 -0.515625 
Q 12.796875 0.390625 7.625 2.203125 
L 7.625 11.71875 
Q 11.71875 9.328125 16.59375 8.109375 
Q 21.484375 6.890625 26.8125 6.890625 
Q 36.078125 6.890625 40.9375 10.546875 
Q 45.796875 14.203125 45.796875 21.1875 
Q 45.796875 27.640625 41.28125 31.265625 
Q 36.765625 34.90625 28.71875 34.90625 
L 20.21875 34.90625 
L 20.21875 43.015625 
L 29.109375 43.015625 
Q 36.375 43.015625 40.234375 45.921875 
Q 44.09375 48.828125 44.09375 54.296875 
Q 44.09375 59.90625 40.109375 62.90625 
Q 36.140625 65.921875 28.71875 65.921875 
Q 24.65625 65.921875 20.015625 65.03125 
Q 15.375 64.15625 9.8125 62.3125 
L 9.8125 71.09375 
Q 15.4375 72.65625 20.34375 73.4375 
Q 25.25 74.21875 29.59375 74.21875 
Q 40.828125 74.21875 47.359375 69.109375 
Q 53.90625 64.015625 53.90625 55.328125 
Q 53.90625 49.265625 50.4375 45.09375 
Q 46.96875 40.921875 40.578125 39.3125 
z
" id="DejaVuSans-33"/>
      </defs>
      <g transform="translate(69.338566 324.461937)scale(0.1 -0.1)">
       <use xlink:href="#DejaVuSans-32"/>
       <use x="63.623047" xlink:href="#DejaVuSans-30"/>
       <use x="127.246094" xlink:href="#DejaVuSans-30"/>
       <use x="190.869141" xlink:href="#DejaVuSans-33"/>
      </g>
     </g>
    </g>
    <g id="xtick_2">
     <g id="line2d_3">
      <path clip-path="url(#pb1c709dc17)" d="M 130.037599 309.8635 
L 130.037599 23.36505 
" style="fill:none;stroke:#b0b0b0;stroke-linecap:square;stroke-width:0.8;"/>
     </g>
     <g id="line2d_4">
      <g>
       <use style="stroke:#000000;stroke-width:0.8;" x="130.037599" xlink:href="#m8261189e2a" y="309.8635"/>
      </g>
     </g>
     <g id="text_2">
      <!-- 2005 -->
      <defs>
       <path d="M 10.796875 72.90625 
L 49.515625 72.90625 
L 49.515625 64.59375 
L 19.828125 64.59375 
L 19.828125 46.734375 
Q 21.96875 47.46875 24.109375 47.828125 
Q 26.265625 48.1875 28.421875 48.1875 
Q 40.625 48.1875 47.75 41.5 
Q 54.890625 34.8125 54.890625 23.390625 
Q 54.890625 11.625 47.5625 5.09375 
Q 40.234375 -1.421875 26.90625 -1.421875 
Q 22.3125 -1.421875 17.546875 -0.640625 
Q 12.796875 0.140625 7.71875 1.703125 
L 7.71875 11.625 
Q 12.109375 9.234375 16.796875 8.0625 
Q 21.484375 6.890625 26.703125 6.890625 
Q 35.15625 6.890625 40.078125 11.328125 
Q 45.015625 15.765625 45.015625 23.390625 
Q 45.015625 31 40.078125 35.4375 
Q 35.15625 39.890625 26.703125 39.890625 
Q 22.75 39.890625 18.8125 39.015625 
Q 14.890625 38.140625 10.796875 36.28125 
z
" id="DejaVuSans-35"/>
      </defs>
      <g transform="translate(117.312599 324.461937)scale(0.1 -0.1)">
       <use xlink:href="#DejaVuSans-32"/>
       <use x="63.623047" xlink:href="#DejaVuSans-30"/>
       <use x="127.246094" xlink:href="#DejaVuSans-30"/>
       <use x="190.869141" xlink:href="#DejaVuSans-35"/>
      </g>
     </g>
    </g>
    <g id="xtick_3">
     <g id="line2d_5">
      <path clip-path="url(#pb1c709dc17)" d="M 177.946003 309.8635 
L 177.946003 23.36505 
" style="fill:none;stroke:#b0b0b0;stroke-linecap:square;stroke-width:0.8;"/>
     </g>
     <g id="line2d_6">
      <g>
       <use style="stroke:#000000;stroke-width:0.8;" x="177.946003" xlink:href="#m8261189e2a" y="309.8635"/>
      </g>
     </g>
     <g id="text_3">
      <!-- 2007 -->
      <defs>
       <path d="M 8.203125 72.90625 
L 55.078125 72.90625 
L 55.078125 68.703125 
L 28.609375 0 
L 18.3125 0 
L 43.21875 64.59375 
L 8.203125 64.59375 
z
" id="DejaVuSans-37"/>
      </defs>
      <g transform="translate(165.221003 324.461937)scale(0.1 -0.1)">
       <use xlink:href="#DejaVuSans-32"/>
       <use x="63.623047" xlink:href="#DejaVuSans-30"/>
       <use x="127.246094" xlink:href="#DejaVuSans-30"/>
       <use x="190.869141" xlink:href="#DejaVuSans-37"/>
      </g>
     </g>
    </g>
    <g id="xtick_4">
     <g id="line2d_7">
      <path clip-path="url(#pb1c709dc17)" d="M 225.920036 309.8635 
L 225.920036 23.36505 
" style="fill:none;stroke:#b0b0b0;stroke-linecap:square;stroke-width:0.8;"/>
     </g>
     <g id="line2d_8">
      <g>
       <use style="stroke:#000000;stroke-width:0.8;" x="225.920036" xlink:href="#m8261189e2a" y="309.8635"/>
      </g>
     </g>
     <g id="text_4">
      <!-- 2009 -->
      <defs>
       <path d="M 10.984375 1.515625 
L 10.984375 10.5 
Q 14.703125 8.734375 18.5 7.8125 
Q 22.3125 6.890625 25.984375 6.890625 
Q 35.75 6.890625 40.890625 13.453125 
Q 46.046875 20.015625 46.78125 33.40625 
Q 43.953125 29.203125 39.59375 26.953125 
Q 35.25 24.703125 29.984375 24.703125 
Q 19.046875 24.703125 12.671875 31.3125 
Q 6.296875 37.9375 6.296875 49.421875 
Q 6.296875 60.640625 12.9375 67.421875 
Q 19.578125 74.21875 30.609375 74.21875 
Q 43.265625 74.21875 49.921875 64.515625 
Q 56.59375 54.828125 56.59375 36.375 
Q 56.59375 19.140625 48.40625 8.859375 
Q 40.234375 -1.421875 26.421875 -1.421875 
Q 22.703125 -1.421875 18.890625 -0.6875 
Q 15.09375 0.046875 10.984375 1.515625 
z
M 30.609375 32.421875 
Q 37.25 32.421875 41.125 36.953125 
Q 45.015625 41.5 45.015625 49.421875 
Q 45.015625 57.28125 41.125 61.84375 
Q 37.25 66.40625 30.609375 66.40625 
Q 23.96875 66.40625 20.09375 61.84375 
Q 16.21875 57.28125 16.21875 49.421875 
Q 16.21875 41.5 20.09375 36.953125 
Q 23.96875 32.421875 30.609375 32.421875 
z
" id="DejaVuSans-39"/>
      </defs>
      <g transform="translate(213.195036 324.461937)scale(0.1 -0.1)">
       <use xlink:href="#DejaVuSans-32"/>
       <use x="63.623047" xlink:href="#DejaVuSans-30"/>
       <use x="127.246094" xlink:href="#DejaVuSans-30"/>
       <use x="190.869141" xlink:href="#DejaVuSans-39"/>
      </g>
     </g>
    </g>
    <g id="xtick_5">
     <g id="line2d_9">
      <path clip-path="url(#pb1c709dc17)" d="M 273.82844 309.8635 
L 273.82844 23.36505 
" style="fill:none;stroke:#b0b0b0;stroke-linecap:square;stroke-width:0.8;"/>
     </g>
     <g id="line2d_10">
      <g>
       <use style="stroke:#000000;stroke-width:0.8;" x="273.82844" xlink:href="#m8261189e2a" y="309.8635"/>
      </g>
     </g>
     <g id="text_5">
      <!-- 2011 -->
      <defs>
       <path d="M 12.40625 8.296875 
L 28.515625 8.296875 
L 28.515625 63.921875 
L 10.984375 60.40625 
L 10.984375 69.390625 
L 28.421875 72.90625 
L 38.28125 72.90625 
L 38.28125 8.296875 
L 54.390625 8.296875 
L 54.390625 0 
L 12.40625 0 
z
" id="DejaVuSans-31"/>
      </defs>
      <g transform="translate(261.10344 324.461937)scale(0.1 -0.1)">
       <use xlink:href="#DejaVuSans-32"/>
       <use x="63.623047" xlink:href="#DejaVuSans-30"/>
       <use x="127.246094" xlink:href="#DejaVuSans-31"/>
       <use x="190.869141" xlink:href="#DejaVuSans-31"/>
      </g>
     </g>
    </g>
    <g id="xtick_6">
     <g id="line2d_11">
      <path clip-path="url(#pb1c709dc17)" d="M 321.802473 309.8635 
L 321.802473 23.36505 
" style="fill:none;stroke:#b0b0b0;stroke-linecap:square;stroke-width:0.8;"/>
     </g>
     <g id="line2d_12">
      <g>
       <use style="stroke:#000000;stroke-width:0.8;" x="321.802473" xlink:href="#m8261189e2a" y="309.8635"/>
      </g>
     </g>
     <g id="text_6">
      <!-- 2013 -->
      <g transform="translate(309.077473 324.461937)scale(0.1 -0.1)">
       <use xlink:href="#DejaVuSans-32"/>
       <use x="63.623047" xlink:href="#DejaVuSans-30"/>
       <use x="127.246094" xlink:href="#DejaVuSans-31"/>
       <use x="190.869141" xlink:href="#DejaVuSans-33"/>
      </g>
     </g>
    </g>
    <g id="xtick_7">
     <g id="line2d_13">
      <path clip-path="url(#pb1c709dc17)" d="M 369.710877 309.8635 
L 369.710877 23.36505 
" style="fill:none;stroke:#b0b0b0;stroke-linecap:square;stroke-width:0.8;"/>
     </g>
     <g id="line2d_14">
      <g>
       <use style="stroke:#000000;stroke-width:0.8;" x="369.710877" xlink:href="#m8261189e2a" y="309.8635"/>
      </g>
     </g>
     <g id="text_7">
      <!-- 2015 -->
      <g transform="translate(356.985877 324.461937)scale(0.1 -0.1)">
       <use xlink:href="#DejaVuSans-32"/>
       <use x="63.623047" xlink:href="#DejaVuSans-30"/>
       <use x="127.246094" xlink:href="#DejaVuSans-31"/>
       <use x="190.869141" xlink:href="#DejaVuSans-35"/>
      </g>
     </g>
    </g>
    <g id="xtick_8">
     <g id="line2d_15">
      <path clip-path="url(#pb1c709dc17)" d="M 417.68491 309.8635 
L 417.68491 23.36505 
" style="fill:none;stroke:#b0b0b0;stroke-linecap:square;stroke-width:0.8;"/>
     </g>
     <g id="line2d_16">
      <g>
       <use style="stroke:#000000;stroke-width:0.8;" x="417.68491" xlink:href="#m8261189e2a" y="309.8635"/>
      </g>
     </g>
     <g id="text_8">
      <!-- 2017 -->
      <g transform="translate(404.95991 324.461937)scale(0.1 -0.1)">
       <use xlink:href="#DejaVuSans-32"/>
       <use x="63.623047" xlink:href="#DejaVuSans-30"/>
       <use x="127.246094" xlink:href="#DejaVuSans-31"/>
       <use x="190.869141" xlink:href="#DejaVuSans-37"/>
      </g>
     </g>
    </g>
    <g id="text_9">
     <!-- Date -->
     <defs>
      <path d="M 19.671875 64.796875 
L 19.671875 8.109375 
L 31.59375 8.109375 
Q 46.6875 8.109375 53.6875 14.9375 
Q 60.6875 21.78125 60.6875 36.53125 
Q 60.6875 51.171875 53.6875 57.984375 
Q 46.6875 64.796875 31.59375 64.796875 
z
M 9.8125 72.90625 
L 30.078125 72.90625 
Q 51.265625 72.90625 61.171875 64.09375 
Q 71.09375 55.28125 71.09375 36.53125 
Q 71.09375 17.671875 61.125 8.828125 
Q 51.171875 0 30.078125 0 
L 9.8125 0 
z
" id="DejaVuSans-44"/>
      <path d="M 34.28125 27.484375 
Q 23.390625 27.484375 19.1875 25 
Q 14.984375 22.515625 14.984375 16.5 
Q 14.984375 11.71875 18.140625 8.90625 
Q 21.296875 6.109375 26.703125 6.109375 
Q 34.1875 6.109375 38.703125 11.40625 
Q 43.21875 16.703125 43.21875 25.484375 
L 43.21875 27.484375 
z
M 52.203125 31.203125 
L 52.203125 0 
L 43.21875 0 
L 43.21875 8.296875 
Q 40.140625 3.328125 35.546875 0.953125 
Q 30.953125 -1.421875 24.3125 -1.421875 
Q 15.921875 -1.421875 10.953125 3.296875 
Q 6 8.015625 6 15.921875 
Q 6 25.140625 12.171875 29.828125 
Q 18.359375 34.515625 30.609375 34.515625 
L 43.21875 34.515625 
L 43.21875 35.40625 
Q 43.21875 41.609375 39.140625 45 
Q 35.0625 48.390625 27.6875 48.390625 
Q 23 48.390625 18.546875 47.265625 
Q 14.109375 46.140625 10.015625 43.890625 
L 10.015625 52.203125 
Q 14.9375 54.109375 19.578125 55.046875 
Q 24.21875 56 28.609375 56 
Q 40.484375 56 46.34375 49.84375 
Q 52.203125 43.703125 52.203125 31.203125 
z
" id="DejaVuSans-61"/>
      <path d="M 18.3125 70.21875 
L 18.3125 54.6875 
L 36.8125 54.6875 
L 36.8125 47.703125 
L 18.3125 47.703125 
L 18.3125 18.015625 
Q 18.3125 11.328125 20.140625 9.421875 
Q 21.96875 7.515625 27.59375 7.515625 
L 36.8125 7.515625 
L 36.8125 0 
L 27.59375 0 
Q 17.1875 0 13.234375 3.875 
Q 9.28125 7.765625 9.28125 18.015625 
L 9.28125 47.703125 
L 2.6875 47.703125 
L 2.6875 54.6875 
L 9.28125 54.6875 
L 9.28125 70.21875 
z
" id="DejaVuSans-74"/>
      <path d="M 56.203125 29.59375 
L 56.203125 25.203125 
L 14.890625 25.203125 
Q 15.484375 15.921875 20.484375 11.0625 
Q 25.484375 6.203125 34.421875 6.203125 
Q 39.59375 6.203125 44.453125 7.46875 
Q 49.3125 8.734375 54.109375 11.28125 
L 54.109375 2.78125 
Q 49.265625 0.734375 44.1875 -0.34375 
Q 39.109375 -1.421875 33.890625 -1.421875 
Q 20.796875 -1.421875 13.15625 6.1875 
Q 5.515625 13.8125 5.515625 26.8125 
Q 5.515625 40.234375 12.765625 48.109375 
Q 20.015625 56 32.328125 56 
Q 43.359375 56 49.78125 48.890625 
Q 56.203125 41.796875 56.203125 29.59375 
z
M 47.21875 32.234375 
Q 47.125 39.59375 43.09375 43.984375 
Q 39.0625 48.390625 32.421875 48.390625 
Q 24.90625 48.390625 20.390625 44.140625 
Q 15.875 39.890625 15.1875 32.171875 
z
" id="DejaVuSans-65"/>
     </defs>
     <g transform="translate(229.851219 338.140062)scale(0.1 -0.1)">
      <use xlink:href="#DejaVuSans-44"/>
      <use x="77.001953" xlink:href="#DejaVuSans-61"/>
      <use x="138.28125" xlink:href="#DejaVuSans-74"/>
      <use x="177.490234" xlink:href="#DejaVuSans-65"/>
     </g>
    </g>
   </g>
   <g id="matplotlib.axis_2">
    <g id="ytick_1">
     <g id="line2d_17">
      <path clip-path="url(#pb1c709dc17)" d="M 36.124 309.8635 
L 447.48 309.8635 
" style="fill:none;stroke:#b0b0b0;stroke-linecap:square;stroke-width:0.8;"/>
     </g>
     <g id="line2d_18">
      <defs>
       <path d="M 0 0 
L -3.5 0 
" id="m872e0bed0b" style="stroke:#000000;stroke-width:0.8;"/>
      </defs>
      <g>
       <use style="stroke:#000000;stroke-width:0.8;" x="36.124" xlink:href="#m872e0bed0b" y="309.8635"/>
      </g>
     </g>
     <g id="text_10">
      <!-- 0 -->
      <g transform="translate(22.7615 313.662719)scale(0.1 -0.1)">
       <use xlink:href="#DejaVuSans-30"/>
      </g>
     </g>
    </g>
    <g id="ytick_2">
     <g id="line2d_19">
      <path clip-path="url(#pb1c709dc17)" d="M 36.124 273.961439 
L 447.48 273.961439 
" style="fill:none;stroke:#b0b0b0;stroke-linecap:square;stroke-width:0.8;"/>
     </g>
     <g id="line2d_20">
      <g>
       <use style="stroke:#000000;stroke-width:0.8;" x="36.124" xlink:href="#m872e0bed0b" y="273.961439"/>
      </g>
     </g>
     <g id="text_11">
      <!-- 250 -->
      <g transform="translate(10.0365 277.760657)scale(0.1 -0.1)">
       <use xlink:href="#DejaVuSans-32"/>
       <use x="63.623047" xlink:href="#DejaVuSans-35"/>
       <use x="127.246094" xlink:href="#DejaVuSans-30"/>
      </g>
     </g>
    </g>
    <g id="ytick_3">
     <g id="line2d_21">
      <path clip-path="url(#pb1c709dc17)" d="M 36.124 238.059377 
L 447.48 238.059377 
" style="fill:none;stroke:#b0b0b0;stroke-linecap:square;stroke-width:0.8;"/>
     </g>
     <g id="line2d_22">
      <g>
       <use style="stroke:#000000;stroke-width:0.8;" x="36.124" xlink:href="#m872e0bed0b" y="238.059377"/>
      </g>
     </g>
     <g id="text_12">
      <!-- 500 -->
      <g transform="translate(10.0365 241.858596)scale(0.1 -0.1)">
       <use xlink:href="#DejaVuSans-35"/>
       <use x="63.623047" xlink:href="#DejaVuSans-30"/>
       <use x="127.246094" xlink:href="#DejaVuSans-30"/>
      </g>
     </g>
    </g>
    <g id="ytick_4">
     <g id="line2d_23">
      <path clip-path="url(#pb1c709dc17)" d="M 36.124 202.157316 
L 447.48 202.157316 
" style="fill:none;stroke:#b0b0b0;stroke-linecap:square;stroke-width:0.8;"/>
     </g>
     <g id="line2d_24">
      <g>
       <use style="stroke:#000000;stroke-width:0.8;" x="36.124" xlink:href="#m872e0bed0b" y="202.157316"/>
      </g>
     </g>
     <g id="text_13">
      <!-- 750 -->
      <g transform="translate(10.0365 205.956535)scale(0.1 -0.1)">
       <use xlink:href="#DejaVuSans-37"/>
       <use x="63.623047" xlink:href="#DejaVuSans-35"/>
       <use x="127.246094" xlink:href="#DejaVuSans-30"/>
      </g>
     </g>
    </g>
    <g id="ytick_5">
     <g id="line2d_25">
      <path clip-path="url(#pb1c709dc17)" d="M 36.124 166.255254 
L 447.48 166.255254 
" style="fill:none;stroke:#b0b0b0;stroke-linecap:square;stroke-width:0.8;"/>
     </g>
     <g id="line2d_26">
      <g>
       <use style="stroke:#000000;stroke-width:0.8;" x="36.124" xlink:href="#m872e0bed0b" y="166.255254"/>
      </g>
     </g>
     <g id="text_14">
      <!-- 1000 -->
      <g transform="translate(3.674 170.054473)scale(0.1 -0.1)">
       <use xlink:href="#DejaVuSans-31"/>
       <use x="63.623047" xlink:href="#DejaVuSans-30"/>
       <use x="127.246094" xlink:href="#DejaVuSans-30"/>
       <use x="190.869141" xlink:href="#DejaVuSans-30"/>
      </g>
     </g>
    </g>
    <g id="ytick_6">
     <g id="line2d_27">
      <path clip-path="url(#pb1c709dc17)" d="M 36.124 130.353193 
L 447.48 130.353193 
" style="fill:none;stroke:#b0b0b0;stroke-linecap:square;stroke-width:0.8;"/>
     </g>
     <g id="line2d_28">
      <g>
       <use style="stroke:#000000;stroke-width:0.8;" x="36.124" xlink:href="#m872e0bed0b" y="130.353193"/>
      </g>
     </g>
     <g id="text_15">
      <!-- 1250 -->
      <g transform="translate(3.674 134.152412)scale(0.1 -0.1)">
       <use xlink:href="#DejaVuSans-31"/>
       <use x="63.623047" xlink:href="#DejaVuSans-32"/>
       <use x="127.246094" xlink:href="#DejaVuSans-35"/>
       <use x="190.869141" xlink:href="#DejaVuSans-30"/>
      </g>
     </g>
    </g>
    <g id="ytick_7">
     <g id="line2d_29">
      <path clip-path="url(#pb1c709dc17)" d="M 36.124 94.451132 
L 447.48 94.451132 
" style="fill:none;stroke:#b0b0b0;stroke-linecap:square;stroke-width:0.8;"/>
     </g>
     <g id="line2d_30">
      <g>
       <use style="stroke:#000000;stroke-width:0.8;" x="36.124" xlink:href="#m872e0bed0b" y="94.451132"/>
      </g>
     </g>
     <g id="text_16">
      <!-- 1500 -->
      <g transform="translate(3.674 98.25035)scale(0.1 -0.1)">
       <use xlink:href="#DejaVuSans-31"/>
       <use x="63.623047" xlink:href="#DejaVuSans-35"/>
       <use x="127.246094" xlink:href="#DejaVuSans-30"/>
       <use x="190.869141" xlink:href="#DejaVuSans-30"/>
      </g>
     </g>
    </g>
    <g id="ytick_8">
     <g id="line2d_31">
      <path clip-path="url(#pb1c709dc17)" d="M 36.124 58.54907 
L 447.48 58.54907 
" style="fill:none;stroke:#b0b0b0;stroke-linecap:square;stroke-width:0.8;"/>
     </g>
     <g id="line2d_32">
      <g>
       <use style="stroke:#000000;stroke-width:0.8;" x="36.124" xlink:href="#m872e0bed0b" y="58.54907"/>
      </g>
     </g>
     <g id="text_17">
      <!-- 1750 -->
      <g transform="translate(3.674 62.348289)scale(0.1 -0.1)">
       <use xlink:href="#DejaVuSans-31"/>
       <use x="63.623047" xlink:href="#DejaVuSans-37"/>
       <use x="127.246094" xlink:href="#DejaVuSans-35"/>
       <use x="190.869141" xlink:href="#DejaVuSans-30"/>
      </g>
     </g>
    </g>
   </g>
   <g id="line2d_33">
    <path clip-path="url(#pb1c709dc17)" d="M 36.124 54.169019 
L 37.961583 65.944895 
L 39.996049 53.809998 
L 41.964888 107.088657 
L 43.999354 104.647317 
L 45.968193 81.454585 
L 48.002659 58.979895 
L 50.037126 134.087007 
L 52.005964 134.015203 
L 54.040431 121.234069 
L 56.009269 136.815564 
L 58.043736 61.277627 
L 60.078202 62.785513 
L 61.915785 65.083245 
L 63.950251 57.472008 
L 65.91909 63.575359 
L 67.953556 71.186596 
L 69.922395 67.883606 
L 71.956862 75.494843 
L 73.991328 63.503555 
L 75.960167 71.2584 
L 77.994633 110.678863 
L 79.963472 124.967884 
L 81.997938 76.571905 
L 84.032405 69.894122 
L 85.869987 118.720925 
L 87.904454 118.864533 
L 89.873292 107.30407 
L 91.907759 64.221596 
L 93.876597 64.867833 
L 95.911064 88.994018 
L 97.94553 63.431751 
L 99.914369 113.263812 
L 101.948835 154.407574 
L 103.917674 107.806698 
L 105.95214 94.810152 
L 107.986607 59.626132 
L 109.889817 58.692678 
L 111.924284 65.226854 
L 113.893123 133.943399 
L 115.927589 58.19005 
L 117.896428 65.729482 
L 119.930894 68.673451 
L 121.965361 64.077988 
L 123.934199 64.437008 
L 125.968666 110.463451 
L 127.937504 66.519328 
L 129.971971 59.554328 
L 132.006437 100.123657 
L 133.84402 56.969379 
L 135.878486 58.692678 
L 137.847325 132.507317 
L 139.881791 109.386389 
L 141.85063 59.338916 
L 143.885096 62.282885 
L 145.919563 58.979895 
L 147.888401 58.54907 
L 149.922868 55.964122 
L 151.891706 61.062214 
L 153.926173 71.330204 
L 155.960639 63.359946 
L 157.798222 100.051853 
L 159.832689 68.027214 
L 161.801527 143.780564 
L 163.835994 63.862575 
L 165.804832 61.421235 
L 167.839299 53.522782 
L 169.873765 54.097215 
L 171.842604 68.386235 
L 173.87707 106.657832 
L 175.845909 76.069276 
L 177.880375 60.272369 
L 179.914842 58.118245 
L 181.752424 105.939791 
L 183.786891 104.503709 
L 185.755729 62.426493 
L 187.790196 62.282885 
L 189.759034 65.298658 
L 191.793501 65.729482 
L 193.827967 62.570101 
L 195.796806 132.2201 
L 197.831272 135.379482 
L 199.800111 143.062523 
L 201.834578 144.354997 
L 203.869044 160.0801 
L 205.772255 211.204635 
L 207.806721 133.799791 
L 209.77556 71.330204 
L 211.810026 77.289946 
L 213.778865 70.971183 
L 215.813331 67.883606 
L 217.847798 70.39675 
L 219.816636 139.974945 
L 221.851103 113.981853 
L 223.819941 112.330358 
L 225.854408 84.829379 
L 227.888874 86.050049 
L 229.726457 148.017007 
L 231.760923 157.279739 
L 233.729762 104.862729 
L 235.764228 72.622678 
L 237.733067 68.242627 
L 239.767534 65.442266 
L 241.802 57.831029 
L 243.770839 65.155049 
L 245.805305 94.738348 
L 247.774144 78.007987 
L 249.80861 84.254946 
L 251.843077 114.269069 
L 253.680659 182.19577 
L 255.715126 182.913811 
L 257.683964 178.461955 
L 259.718431 137.749018 
L 261.687269 78.58242 
L 263.721736 104.934534 
L 265.756202 88.132369 
L 267.725041 61.421235 
L 269.759507 102.708606 
L 271.728346 129.060719 
L 273.762812 86.839895 
L 275.797279 66.160307 
L 277.634862 114.771698 
L 279.669328 107.232265 
L 281.638167 80.018503 
L 283.672633 134.087007 
L 285.641472 98.759379 
L 287.675938 126.260358 
L 289.710405 54.312627 
L 291.679243 58.836287 
L 293.71371 105.939791 
L 295.682548 96.605255 
L 297.717015 116.638606 
L 299.751481 127.624636 
L 301.654692 131.932884 
L 303.689158 151.391801 
L 305.657997 162.52144 
L 307.692463 108.52474 
L 309.661302 81.310977 
L 311.695768 66.088503 
L 313.730235 108.955564 
L 315.699073 78.58242 
L 317.73354 186.432213 
L 319.702378 142.48809 
L 321.736845 89.568451 
L 323.771311 101.775152 
L 325.608894 98.328554 
L 327.643361 130.568605 
L 329.612199 150.314739 
L 331.646666 141.698244 
L 335.649971 77.648967 
L 337.684437 138.179842 
L 339.653276 111.109688 
L 341.687742 129.491544 
L 343.656581 99.692833 
L 345.691047 97.03608 
L 347.725514 114.915307 
L 349.563096 79.372266 
L 351.597563 128.270873 
L 353.566401 134.948657 
L 355.600868 109.458193 
L 357.569706 111.755925 
L 359.604173 69.965926 
L 361.638639 159.433863 
L 363.607478 111.3251 
L 365.641944 101.775152 
L 367.610783 137.96443 
L 369.64525 104.934534 
L 371.679716 134.158811 
L 373.517299 164.819172 
L 375.551765 185.211543 
L 377.520604 213.358759 
L 379.55507 132.866337 
L 381.523909 100.769894 
L 383.558375 128.845306 
L 385.592842 110.248039 
L 387.56168 105.22175 
L 389.596147 191.96113 
L 391.564985 137.892626 
L 393.599452 115.776956 
L 395.633918 90.717317 
L 397.537129 160.367316 
L 399.571595 139.256904 
L 401.540434 176.666852 
L 403.5749 123.316389 
L 405.543739 79.156853 
L 407.578205 90.501905 
L 409.612672 114.125461 
L 411.581511 149.883914 
L 413.615977 76.643709 
L 415.584816 122.81376 
L 417.619282 124.608863 
L 419.653749 119.654379 
L 421.491331 117.787471 
L 423.525798 97.682317 
L 425.494636 89.209431 
L 427.529103 125.901337 
L 429.497941 94.522936 
L 431.532408 96.748864 
L 433.566874 82.603451 
L 435.535713 100.267266 
L 437.570179 79.300462 
L 439.539018 110.535255 
L 441.573484 150.817368 
L 443.607951 202.803553 
L 445.445534 197.059223 
L 447.48 235.330821 
L 447.48 235.330821 
" style="fill:none;stroke:#1f77b4;stroke-linecap:square;stroke-width:1.5;"/>
   </g>
   <g id="patch_3">
    <path d="M 36.124 309.8635 
L 36.124 23.36505 
" style="fill:none;stroke:#000000;stroke-linecap:square;stroke-linejoin:miter;stroke-width:0.8;"/>
   </g>
   <g id="patch_4">
    <path d="M 447.48 309.8635 
L 447.48 23.36505 
" style="fill:none;stroke:#000000;stroke-linecap:square;stroke-linejoin:miter;stroke-width:0.8;"/>
   </g>
   <g id="patch_5">
    <path d="M 36.124 309.8635 
L 447.48 309.8635 
" style="fill:none;stroke:#000000;stroke-linecap:square;stroke-linejoin:miter;stroke-width:0.8;"/>
   </g>
   <g id="patch_6">
    <path d="M 36.124 23.36505 
L 447.48 23.36505 
" style="fill:none;stroke:#000000;stroke-linecap:square;stroke-linejoin:miter;stroke-width:0.8;"/>
   </g>
   <g id="text_18">
    <!-- Monthly gross load trend (MW) -->
    <defs>
     <path d="M 9.8125 72.90625 
L 24.515625 72.90625 
L 43.109375 23.296875 
L 61.8125 72.90625 
L 76.515625 72.90625 
L 76.515625 0 
L 66.890625 0 
L 66.890625 64.015625 
L 48.09375 14.015625 
L 38.1875 14.015625 
L 19.390625 64.015625 
L 19.390625 0 
L 9.8125 0 
z
" id="DejaVuSans-4d"/>
     <path d="M 30.609375 48.390625 
Q 23.390625 48.390625 19.1875 42.75 
Q 14.984375 37.109375 14.984375 27.296875 
Q 14.984375 17.484375 19.15625 11.84375 
Q 23.34375 6.203125 30.609375 6.203125 
Q 37.796875 6.203125 41.984375 11.859375 
Q 46.1875 17.53125 46.1875 27.296875 
Q 46.1875 37.015625 41.984375 42.703125 
Q 37.796875 48.390625 30.609375 48.390625 
z
M 30.609375 56 
Q 42.328125 56 49.015625 48.375 
Q 55.71875 40.765625 55.71875 27.296875 
Q 55.71875 13.875 49.015625 6.21875 
Q 42.328125 -1.421875 30.609375 -1.421875 
Q 18.84375 -1.421875 12.171875 6.21875 
Q 5.515625 13.875 5.515625 27.296875 
Q 5.515625 40.765625 12.171875 48.375 
Q 18.84375 56 30.609375 56 
z
" id="DejaVuSans-6f"/>
     <path d="M 54.890625 33.015625 
L 54.890625 0 
L 45.90625 0 
L 45.90625 32.71875 
Q 45.90625 40.484375 42.875 44.328125 
Q 39.84375 48.1875 33.796875 48.1875 
Q 26.515625 48.1875 22.3125 43.546875 
Q 18.109375 38.921875 18.109375 30.90625 
L 18.109375 0 
L 9.078125 0 
L 9.078125 54.6875 
L 18.109375 54.6875 
L 18.109375 46.1875 
Q 21.34375 51.125 25.703125 53.5625 
Q 30.078125 56 35.796875 56 
Q 45.21875 56 50.046875 50.171875 
Q 54.890625 44.34375 54.890625 33.015625 
z
" id="DejaVuSans-6e"/>
     <path d="M 54.890625 33.015625 
L 54.890625 0 
L 45.90625 0 
L 45.90625 32.71875 
Q 45.90625 40.484375 42.875 44.328125 
Q 39.84375 48.1875 33.796875 48.1875 
Q 26.515625 48.1875 22.3125 43.546875 
Q 18.109375 38.921875 18.109375 30.90625 
L 18.109375 0 
L 9.078125 0 
L 9.078125 75.984375 
L 18.109375 75.984375 
L 18.109375 46.1875 
Q 21.34375 51.125 25.703125 53.5625 
Q 30.078125 56 35.796875 56 
Q 45.21875 56 50.046875 50.171875 
Q 54.890625 44.34375 54.890625 33.015625 
z
" id="DejaVuSans-68"/>
     <path d="M 9.421875 75.984375 
L 18.40625 75.984375 
L 18.40625 0 
L 9.421875 0 
z
" id="DejaVuSans-6c"/>
     <path d="M 32.171875 -5.078125 
Q 28.375 -14.84375 24.75 -17.8125 
Q 21.140625 -20.796875 15.09375 -20.796875 
L 7.90625 -20.796875 
L 7.90625 -13.28125 
L 13.1875 -13.28125 
Q 16.890625 -13.28125 18.9375 -11.515625 
Q 21 -9.765625 23.484375 -3.21875 
L 25.09375 0.875 
L 2.984375 54.6875 
L 12.5 54.6875 
L 29.59375 11.921875 
L 46.6875 54.6875 
L 56.203125 54.6875 
z
" id="DejaVuSans-79"/>
     <path id="DejaVuSans-20"/>
     <path d="M 45.40625 27.984375 
Q 45.40625 37.75 41.375 43.109375 
Q 37.359375 48.484375 30.078125 48.484375 
Q 22.859375 48.484375 18.828125 43.109375 
Q 14.796875 37.75 14.796875 27.984375 
Q 14.796875 18.265625 18.828125 12.890625 
Q 22.859375 7.515625 30.078125 7.515625 
Q 37.359375 7.515625 41.375 12.890625 
Q 45.40625 18.265625 45.40625 27.984375 
z
M 54.390625 6.78125 
Q 54.390625 -7.171875 48.1875 -13.984375 
Q 42 -20.796875 29.203125 -20.796875 
Q 24.46875 -20.796875 20.265625 -20.09375 
Q 16.0625 -19.390625 12.109375 -17.921875 
L 12.109375 -9.1875 
Q 16.0625 -11.328125 19.921875 -12.34375 
Q 23.78125 -13.375 27.78125 -13.375 
Q 36.625 -13.375 41.015625 -8.765625 
Q 45.40625 -4.15625 45.40625 5.171875 
L 45.40625 9.625 
Q 42.625 4.78125 38.28125 2.390625 
Q 33.9375 0 27.875 0 
Q 17.828125 0 11.671875 7.65625 
Q 5.515625 15.328125 5.515625 27.984375 
Q 5.515625 40.671875 11.671875 48.328125 
Q 17.828125 56 27.875 56 
Q 33.9375 56 38.28125 53.609375 
Q 42.625 51.21875 45.40625 46.390625 
L 45.40625 54.6875 
L 54.390625 54.6875 
z
" id="DejaVuSans-67"/>
     <path d="M 41.109375 46.296875 
Q 39.59375 47.171875 37.8125 47.578125 
Q 36.03125 48 33.890625 48 
Q 26.265625 48 22.1875 43.046875 
Q 18.109375 38.09375 18.109375 28.8125 
L 18.109375 0 
L 9.078125 0 
L 9.078125 54.6875 
L 18.109375 54.6875 
L 18.109375 46.1875 
Q 20.953125 51.171875 25.484375 53.578125 
Q 30.03125 56 36.53125 56 
Q 37.453125 56 38.578125 55.875 
Q 39.703125 55.765625 41.0625 55.515625 
z
" id="DejaVuSans-72"/>
     <path d="M 44.28125 53.078125 
L 44.28125 44.578125 
Q 40.484375 46.53125 36.375 47.5 
Q 32.28125 48.484375 27.875 48.484375 
Q 21.1875 48.484375 17.84375 46.4375 
Q 14.5 44.390625 14.5 40.28125 
Q 14.5 37.15625 16.890625 35.375 
Q 19.28125 33.59375 26.515625 31.984375 
L 29.59375 31.296875 
Q 39.15625 29.25 43.1875 25.515625 
Q 47.21875 21.78125 47.21875 15.09375 
Q 47.21875 7.46875 41.1875 3.015625 
Q 35.15625 -1.421875 24.609375 -1.421875 
Q 20.21875 -1.421875 15.453125 -0.5625 
Q 10.6875 0.296875 5.421875 2 
L 5.421875 11.28125 
Q 10.40625 8.6875 15.234375 7.390625 
Q 20.0625 6.109375 24.8125 6.109375 
Q 31.15625 6.109375 34.5625 8.28125 
Q 37.984375 10.453125 37.984375 14.40625 
Q 37.984375 18.0625 35.515625 20.015625 
Q 33.0625 21.96875 24.703125 23.78125 
L 21.578125 24.515625 
Q 13.234375 26.265625 9.515625 29.90625 
Q 5.8125 33.546875 5.8125 39.890625 
Q 5.8125 47.609375 11.28125 51.796875 
Q 16.75 56 26.8125 56 
Q 31.78125 56 36.171875 55.265625 
Q 40.578125 54.546875 44.28125 53.078125 
z
" id="DejaVuSans-73"/>
     <path d="M 45.40625 46.390625 
L 45.40625 75.984375 
L 54.390625 75.984375 
L 54.390625 0 
L 45.40625 0 
L 45.40625 8.203125 
Q 42.578125 3.328125 38.25 0.953125 
Q 33.9375 -1.421875 27.875 -1.421875 
Q 17.96875 -1.421875 11.734375 6.484375 
Q 5.515625 14.40625 5.515625 27.296875 
Q 5.515625 40.1875 11.734375 48.09375 
Q 17.96875 56 27.875 56 
Q 33.9375 56 38.25 53.625 
Q 42.578125 51.265625 45.40625 46.390625 
z
M 14.796875 27.296875 
Q 14.796875 17.390625 18.875 11.75 
Q 22.953125 6.109375 30.078125 6.109375 
Q 37.203125 6.109375 41.296875 11.75 
Q 45.40625 17.390625 45.40625 27.296875 
Q 45.40625 37.203125 41.296875 42.84375 
Q 37.203125 48.484375 30.078125 48.484375 
Q 22.953125 48.484375 18.875 42.84375 
Q 14.796875 37.203125 14.796875 27.296875 
z
" id="DejaVuSans-64"/>
     <path d="M 31 75.875 
Q 24.46875 64.65625 21.28125 53.65625 
Q 18.109375 42.671875 18.109375 31.390625 
Q 18.109375 20.125 21.3125 9.0625 
Q 24.515625 -2 31 -13.1875 
L 23.1875 -13.1875 
Q 15.875 -1.703125 12.234375 9.375 
Q 8.59375 20.453125 8.59375 31.390625 
Q 8.59375 42.28125 12.203125 53.3125 
Q 15.828125 64.359375 23.1875 75.875 
z
" id="DejaVuSans-28"/>
     <path d="M 3.328125 72.90625 
L 13.28125 72.90625 
L 28.609375 11.28125 
L 43.890625 72.90625 
L 54.984375 72.90625 
L 70.3125 11.28125 
L 85.59375 72.90625 
L 95.609375 72.90625 
L 77.296875 0 
L 64.890625 0 
L 49.515625 63.28125 
L 33.984375 0 
L 21.578125 0 
z
" id="DejaVuSans-57"/>
     <path d="M 8.015625 75.875 
L 15.828125 75.875 
Q 23.140625 64.359375 26.78125 53.3125 
Q 30.421875 42.28125 30.421875 31.390625 
Q 30.421875 20.453125 26.78125 9.375 
Q 23.140625 -1.703125 15.828125 -13.1875 
L 8.015625 -13.1875 
Q 14.5 -2 17.703125 9.0625 
Q 20.90625 20.125 20.90625 31.390625 
Q 20.90625 42.671875 17.703125 53.65625 
Q 14.5 64.65625 8.015625 75.875 
z
" id="DejaVuSans-29"/>
    </defs>
    <g transform="translate(149.219188 17.36505)scale(0.12 -0.12)">
     <use xlink:href="#DejaVuSans-4d"/>
     <use x="86.279297" xlink:href="#DejaVuSans-6f"/>
     <use x="147.460938" xlink:href="#DejaVuSans-6e"/>
     <use x="210.839844" xlink:href="#DejaVuSans-74"/>
     <use x="250.048828" xlink:href="#DejaVuSans-68"/>
     <use x="313.427734" xlink:href="#DejaVuSans-6c"/>
     <use x="341.210938" xlink:href="#DejaVuSans-79"/>
     <use x="400.390625" xlink:href="#DejaVuSans-20"/>
     <use x="432.177734" xlink:href="#DejaVuSans-67"/>
     <use x="495.654297" xlink:href="#DejaVuSans-72"/>
     <use x="536.736328" xlink:href="#DejaVuSans-6f"/>
     <use x="597.917969" xlink:href="#DejaVuSans-73"/>
     <use x="650.017578" xlink:href="#DejaVuSans-73"/>
     <use x="702.117188" xlink:href="#DejaVuSans-20"/>
     <use x="733.904297" xlink:href="#DejaVuSans-6c"/>
     <use x="761.6875" xlink:href="#DejaVuSans-6f"/>
     <use x="822.869141" xlink:href="#DejaVuSans-61"/>
     <use x="884.148438" xlink:href="#DejaVuSans-64"/>
     <use x="947.625" xlink:href="#DejaVuSans-20"/>
     <use x="979.412109" xlink:href="#DejaVuSans-74"/>
     <use x="1018.621094" xlink:href="#DejaVuSans-72"/>
     <use x="1059.703125" xlink:href="#DejaVuSans-65"/>
     <use x="1121.226562" xlink:href="#DejaVuSans-6e"/>
     <use x="1184.605469" xlink:href="#DejaVuSans-64"/>
     <use x="1248.082031" xlink:href="#DejaVuSans-20"/>
     <use x="1279.869141" xlink:href="#DejaVuSans-28"/>
     <use x="1318.882812" xlink:href="#DejaVuSans-4d"/>
     <use x="1405.162109" xlink:href="#DejaVuSans-57"/>
     <use x="1504.039062" xlink:href="#DejaVuSans-29"/>
    </g>
   </g>
  </g>
 </g>
 <defs>
  <clipPath id="pb1c709dc17">
   <rect height="286.49845" width="411.356" x="36.124" y="23.36505"/>
  </clipPath>
 </defs>
</svg>
