<?xml version="1.0" encoding="utf-8" standalone="no"?>
<!DOCTYPE svg PUBLIC "-//W3C//DTD SVG 1.1//EN"
  "http://www.w3.org/Graphics/SVG/1.1/DTD/svg11.dtd">
<!-- Created with matplotlib (http://matplotlib.org/) -->
<svg height="345.6pt" version="1.1" viewBox="0 0 460.8 345.6" width="460.8pt" xmlns="http://www.w3.org/2000/svg" xmlns:xlink="http://www.w3.org/1999/xlink">
 <defs>
  <style type="text/css">
*{stroke-linecap:butt;stroke-linejoin:round;}
  </style>
 </defs>
 <g id="figure_1">
  <g id="patch_1">
   <path d="M 0 345.6 
L 460.8 345.6 
L 460.8 0 
L 0 0 
z
" style="fill:none;"/>
  </g>
  <g id="axes_1">
   <g id="patch_2">
    <path d="M 36.124 309.8635 
L 447.48 309.8635 
L 447.48 23.36505 
L 36.124 23.36505 
z
" style="fill:none;"/>
   </g>
   <g id="PolyCollection_1">
    <path clip-path="url(#pd9df2dce83)" d="M 36.124 80.72504 
L 36.124 226.677468 
L 38.31771 236.133541 
L 40.299125 234.214917 
L 42.492835 217.084351 
L 44.61578 232.296294 
L 46.80949 238.737387 
L 48.932436 274.50601 
L 51.126146 255.730909 
L 53.319855 278.069168 
L 55.442801 276.287589 
L 57.636511 286.154796 
L 59.759456 268.339006 
L 61.953166 303.011273 
L 64.146876 303.011273 
L 66.128291 273.409654 
L 68.322001 294.788601 
L 70.444946 303.285362 
L 72.638656 289.30682 
L 74.761601 296.296091 
L 76.955311 303.285362 
L 79.149021 303.285362 
L 81.271966 294.514512 
L 83.465676 289.580909 
L 85.588621 300.544472 
L 87.782331 303.011273 
L 89.976041 303.011273 
L 91.957457 303.148318 
L 94.151167 309.8635 
L 96.274112 303.285362 
L 98.467822 303.422407 
L 100.590767 303.011273 
L 102.784477 303.011273 
L 104.978187 303.011273 
L 107.101132 309.726455 
L 109.294842 309.8635 
L 111.417787 309.8635 
L 113.611497 309.8635 
L 115.805207 302.874229 
L 117.857387 296.159047 
L 120.051097 303.011273 
L 122.174042 292.3218 
L 124.367752 303.148318 
L 126.490697 303.148318 
L 128.684407 309.8635 
L 130.878117 309.8635 
L 133.001062 309.8635 
L 135.194772 309.8635 
L 137.317718 309.8635 
L 139.511427 309.8635 
L 141.705137 309.8635 
L 143.686553 309.8635 
L 145.880263 309.8635 
L 148.003208 309.8635 
L 150.196918 303.011273 
L 152.319863 302.874229 
L 154.513573 309.8635 
L 156.707283 309.8635 
L 158.830228 309.8635 
L 161.023938 309.8635 
L 163.146883 309.8635 
L 165.340593 309.8635 
L 167.534303 309.8635 
L 169.515719 309.8635 
L 171.709429 309.8635 
L 173.832374 309.8635 
L 176.026084 309.8635 
L 178.149029 309.8635 
L 180.342739 309.8635 
L 182.536449 309.8635 
L 184.659394 309.8635 
L 186.853104 303.011273 
L 188.976049 309.8635 
L 191.169759 309.8635 
L 193.363469 309.8635 
L 195.344884 309.8635 
L 197.538594 309.8635 
L 199.661539 309.8635 
L 201.855249 309.8635 
L 203.978194 309.8635 
L 206.171904 309.8635 
L 208.365614 309.8635 
L 210.488559 309.8635 
L 212.682269 309.8635 
L 214.805215 309.8635 
L 216.998924 309.8635 
L 219.192634 309.8635 
L 221.244815 309.8635 
L 223.438525 309.8635 
L 225.56147 309.8635 
L 227.75518 309.8635 
L 229.878125 309.8635 
L 232.071835 309.8635 
L 234.265545 309.8635 
L 236.38849 309.8635 
L 238.5822 309.8635 
L 240.705145 309.8635 
L 242.898855 309.8635 
L 245.092565 309.8635 
L 247.07398 309.8635 
L 249.26769 309.8635 
L 251.390635 309.8635 
L 253.584345 309.8635 
L 255.707291 309.8635 
L 257.901001 309.8635 
L 260.09471 309.8635 
L 262.217656 309.8635 
L 264.411366 309.8635 
L 266.534311 309.8635 
L 268.728021 309.8635 
L 270.921731 309.8635 
L 272.903146 309.8635 
L 275.096856 309.8635 
L 277.219801 309.8635 
L 279.413511 309.8635 
L 281.536456 309.8635 
L 283.730166 309.8635 
L 285.923876 309.8635 
L 288.046821 309.8635 
L 290.240531 309.8635 
L 292.363476 309.8635 
L 294.557186 309.8635 
L 296.750896 309.8635 
L 298.732312 309.8635 
L 300.926022 309.8635 
L 303.048967 309.8635 
L 305.242677 309.8635 
L 307.365622 309.8635 
L 309.559332 309.8635 
L 311.753042 309.8635 
L 313.875987 309.8635 
L 316.069697 309.8635 
L 318.192642 309.8635 
L 320.386352 309.8635 
L 322.580062 309.8635 
L 324.632242 309.8635 
L 326.825952 309.8635 
L 328.948897 309.8635 
L 331.142607 309.8635 
L 333.265552 309.8635 
L 335.459262 309.8635 
L 337.652972 309.8635 
L 339.775917 309.8635 
L 341.969627 309.8635 
L 344.092573 309.8635 
L 346.286282 309.8635 
L 348.479992 309.8635 
L 350.461408 309.8635 
L 352.655118 309.8635 
L 354.778063 309.8635 
L 356.971773 309.8635 
L 359.094718 309.8635 
L 361.288428 309.8635 
L 363.482138 309.8635 
L 365.605083 309.8635 
L 367.798793 309.8635 
L 369.921738 309.8635 
L 372.115448 309.8635 
L 374.309158 309.8635 
L 376.290574 309.8635 
L 378.484284 309.8635 
L 380.607229 309.8635 
L 382.800939 309.8635 
L 384.923884 309.8635 
L 387.117594 309.8635 
L 389.311304 309.8635 
L 391.434249 309.8635 
L 393.627959 309.8635 
L 395.750904 309.8635 
L 397.944614 309.8635 
L 400.138324 309.8635 
L 402.119739 309.8635 
L 404.313449 309.8635 
L 406.436394 309.8635 
L 408.630104 309.8635 
L 410.753049 309.8635 
L 412.946759 309.8635 
L 415.140469 309.8635 
L 417.263414 309.8635 
L 419.457124 309.8635 
L 421.580069 309.8635 
L 423.773779 309.8635 
L 425.967489 309.8635 
L 428.01967 309.8635 
L 430.21338 309.8635 
L 432.336325 309.8635 
L 434.530035 309.8635 
L 436.65298 309.8635 
L 438.84669 309.8635 
L 441.0404 309.8635 
L 443.163345 309.8635 
L 445.357055 309.8635 
L 447.48 309.8635 
L 447.48 309.8635 
L 447.48 309.8635 
L 445.357055 309.8635 
L 443.163345 309.8635 
L 441.0404 309.8635 
L 438.84669 264.775848 
L 436.65298 202.420586 
L 434.530035 226.540423 
L 432.336325 154.866132 
L 430.21338 279.987792 
L 428.01967 291.362488 
L 425.967489 309.8635 
L 423.773779 295.336779 
L 421.580069 287.114107 
L 419.457124 277.109856 
L 417.263414 265.73516 
L 415.140469 235.174229 
L 412.946759 266.146294 
L 410.753049 213.521193 
L 408.630104 226.540423 
L 406.436394 268.201962 
L 404.313449 214.480505 
L 402.119739 275.465322 
L 400.138324 300.133338 
L 397.944614 309.8635 
L 395.750904 287.251152 
L 393.627959 309.8635 
L 391.434249 275.739411 
L 389.311304 206.943055 
L 387.117594 268.201962 
L 384.923884 309.8635 
L 382.800939 289.580909 
L 380.607229 236.818764 
L 378.484284 211.054391 
L 376.290574 309.8635 
L 374.309158 265.872205 
L 372.115448 309.8635 
L 369.921738 266.557427 
L 367.798793 282.454593 
L 365.605083 274.231921 
L 363.482138 270.942852 
L 361.288428 272.724431 
L 359.094718 256.416132 
L 356.971773 229.418359 
L 354.778063 309.8635 
L 352.655118 208.998723 
L 350.461408 279.576658 
L 348.479992 266.831516 
L 346.286282 309.8635 
L 344.092573 255.45682 
L 341.969627 238.874432 
L 339.775917 224.6218 
L 337.652972 236.133541 
L 335.459262 155.277266 
L 333.265552 282.317549 
L 331.142607 289.992043 
L 328.948897 309.8635 
L 326.825952 188.853177 
L 324.632242 299.311071 
L 322.580062 309.8635 
L 320.386352 309.8635 
L 318.192642 309.8635 
L 316.069697 263.131314 
L 313.875987 231.611071 
L 311.753042 225.581112 
L 309.559332 309.8635 
L 307.365622 309.8635 
L 305.242677 309.8635 
L 303.048967 309.8635 
L 300.926022 273.957832 
L 298.732312 215.302772 
L 296.750896 309.8635 
L 294.557186 309.8635 
L 292.363476 309.8635 
L 290.240531 309.8635 
L 288.046821 309.8635 
L 285.923876 220.510464 
L 283.730166 226.677468 
L 281.536456 240.65601 
L 279.413511 309.8635 
L 277.219801 309.8635 
L 275.096856 265.461071 
L 272.903146 269.435363 
L 270.921731 309.8635 
L 268.728021 309.8635 
L 266.534311 220.784553 
L 264.411366 309.8635 
L 262.217656 309.8635 
L 260.09471 221.195687 
L 257.901001 265.049937 
L 255.707291 223.11431 
L 253.584345 238.189209 
L 251.390635 235.585363 
L 249.26769 232.844472 
L 247.07398 293.82929 
L 245.092565 302.874229 
L 242.898855 309.8635 
L 240.705145 265.73516 
L 238.5822 309.8635 
L 236.38849 302.737184 
L 234.265545 220.784553 
L 232.071835 220.784553 
L 229.878125 152.67342 
L 227.75518 266.283338 
L 225.56147 197.212893 
L 223.438525 233.940828 
L 221.244815 263.268359 
L 219.192634 309.8635 
L 216.998924 309.8635 
L 214.805215 309.8635 
L 212.682269 284.099128 
L 210.488559 309.8635 
L 208.365614 157.607023 
L 206.171904 135.679898 
L 203.978194 211.876658 
L 201.855249 286.565929 
L 199.661539 309.8635 
L 197.538594 309.8635 
L 195.344884 309.8635 
L 193.363469 309.8635 
L 191.169759 309.8635 
L 188.976049 265.461071 
L 186.853104 265.598116 
L 184.659394 266.146294 
L 182.536449 309.8635 
L 180.342739 309.8635 
L 178.149029 131.431517 
L 176.026084 234.626051 
L 173.832374 270.531719 
L 171.709429 265.049937 
L 169.515719 265.049937 
L 167.534303 220.784553 
L 165.340593 309.8635 
L 163.146883 309.8635 
L 161.023938 266.283338 
L 158.830228 297.803581 
L 156.707283 265.73516 
L 154.513573 220.647509 
L 152.319863 176.519169 
L 150.196918 274.50601 
L 148.003208 191.457023 
L 145.880263 309.8635 
L 143.686553 309.8635 
L 141.705137 270.531719 
L 139.511427 265.461071 
L 137.317718 265.461071 
L 135.194772 268.339006 
L 133.001062 294.788601 
L 130.878117 136.228076 
L 128.684407 171.996699 
L 126.490697 181.178683 
L 124.367752 146.232327 
L 122.174042 169.941031 
L 120.051097 210.232124 
L 117.857387 220.510464 
L 115.805207 245.452569 
L 113.611497 265.598116 
L 111.417787 291.910666 
L 109.294842 265.186982 
L 107.101132 168.159452 
L 104.978187 167.20014 
L 102.784477 131.020383 
L 100.590767 137.87261 
L 98.467822 165.144472 
L 96.274112 172.681922 
L 94.151167 175.285768 
L 91.957457 168.296497 
L 89.976041 166.789007 
L 87.782331 265.049937 
L 85.588621 158.840424 
L 83.465676 123.619979 
L 81.271966 126.08678 
L 79.149021 129.375849 
L 76.955311 73.461679 
L 74.761601 112.108238 
L 72.638656 126.634958 
L 70.444946 148.562084 
L 68.322001 175.833946 
L 66.128291 157.469978 
L 64.146876 179.671193 
L 61.953166 172.956011 
L 59.759456 96.75925 
L 57.636511 64.553785 
L 55.442801 37.144878 
L 53.319855 38.241234 
L 51.126146 37.007833 
L 48.932436 39.474635 
L 46.80949 41.941437 
L 44.61578 46.87504 
L 42.492835 80.862084 
L 40.299125 81.684351 
L 38.31771 83.328886 
L 36.124 80.72504 
z
" style="fill:#808080;fill-opacity:0.3;"/>
   </g>
   <g id="PolyCollection_2">
    <path clip-path="url(#pd9df2dce83)" d="M 36.124 124.305201 
L 36.124 174.874634 
L 38.31771 113.341639 
L 40.299125 125.572863 
L 42.492835 179.260059 
L 44.61578 165.624128 
L 46.80949 161.204442 
L 48.932436 170.386426 
L 51.126146 205.57261 
L 53.319855 221.91517 
L 55.442801 200.262134 
L 57.636511 214.925899 
L 59.759456 228.698875 
L 61.953166 291.259705 
L 64.146876 298.351759 
L 66.128291 235.448318 
L 68.322001 271.628075 
L 70.444946 284.304694 
L 72.638656 272.450342 
L 74.761601 264.022103 
L 76.955311 287.662286 
L 79.149021 268.476051 
L 81.271966 273.101304 
L 83.465676 274.780099 
L 85.588621 281.221192 
L 87.782331 298.111931 
L 89.976041 286.60019 
L 91.957457 272.724431 
L 94.151167 295.06269 
L 96.274112 288.895686 
L 98.467822 303.011273 
L 100.590767 278.206213 
L 102.784477 289.992043 
L 104.978187 294.959907 
L 107.101132 295.06269 
L 109.294842 302.90849 
L 111.417787 309.8635 
L 113.611497 295.336779 
L 115.805207 294.240423 
L 117.857387 280.398925 
L 120.051097 280.673014 
L 122.174042 271.902164 
L 124.367752 299.927771 
L 126.490697 296.604441 
L 128.684407 298.009148 
L 130.878117 302.874229 
L 133.001062 309.8635 
L 135.194772 309.8635 
L 137.317718 309.8635 
L 139.511427 303.011273 
L 141.705137 309.8635 
L 143.686553 309.8635 
L 145.880263 309.8635 
L 148.003208 302.874229 
L 150.196918 302.326051 
L 152.319863 296.604441 
L 154.513573 302.874229 
L 156.707283 309.8635 
L 158.830228 309.8635 
L 161.023938 309.8635 
L 163.146883 309.8635 
L 165.340593 309.8635 
L 167.534303 309.8635 
L 169.515719 309.8635 
L 171.709429 309.8635 
L 173.832374 309.8635 
L 176.026084 309.8635 
L 178.149029 302.326051 
L 180.342739 309.8635 
L 182.536449 309.8635 
L 184.659394 309.8635 
L 186.853104 302.874229 
L 188.976049 309.8635 
L 191.169759 309.8635 
L 193.363469 309.8635 
L 195.344884 309.8635 
L 197.538594 309.8635 
L 199.661539 309.8635 
L 201.855249 309.8635 
L 203.978194 309.8635 
L 206.171904 309.8635 
L 208.365614 309.8635 
L 210.488559 309.8635 
L 212.682269 309.8635 
L 214.805215 309.8635 
L 216.998924 309.8635 
L 219.192634 309.8635 
L 221.244815 309.8635 
L 223.438525 309.8635 
L 225.56147 309.8635 
L 227.75518 309.8635 
L 229.878125 309.8635 
L 232.071835 309.8635 
L 234.265545 309.8635 
L 236.38849 309.8635 
L 238.5822 309.8635 
L 240.705145 309.8635 
L 242.898855 309.8635 
L 245.092565 309.8635 
L 247.07398 309.8635 
L 249.26769 309.8635 
L 251.390635 309.8635 
L 253.584345 309.8635 
L 255.707291 309.8635 
L 257.901001 309.8635 
L 260.09471 309.8635 
L 262.217656 309.8635 
L 264.411366 309.8635 
L 266.534311 309.8635 
L 268.728021 309.8635 
L 270.921731 309.8635 
L 272.903146 309.8635 
L 275.096856 309.8635 
L 277.219801 309.8635 
L 279.413511 309.8635 
L 281.536456 309.8635 
L 283.730166 309.8635 
L 285.923876 309.8635 
L 288.046821 309.8635 
L 290.240531 309.8635 
L 292.363476 309.8635 
L 294.557186 309.8635 
L 296.750896 309.8635 
L 298.732312 309.8635 
L 300.926022 309.8635 
L 303.048967 309.8635 
L 305.242677 309.8635 
L 307.365622 309.8635 
L 309.559332 309.8635 
L 311.753042 309.8635 
L 313.875987 309.8635 
L 316.069697 309.8635 
L 318.192642 309.8635 
L 320.386352 309.8635 
L 322.580062 309.8635 
L 324.632242 309.8635 
L 326.825952 309.8635 
L 328.948897 309.8635 
L 331.142607 309.8635 
L 333.265552 309.8635 
L 335.459262 309.8635 
L 337.652972 309.8635 
L 339.775917 309.8635 
L 341.969627 303.011273 
L 344.092573 309.8635 
L 346.286282 309.8635 
L 348.479992 309.8635 
L 350.461408 309.8635 
L 352.655118 309.8635 
L 354.778063 309.8635 
L 356.971773 309.8635 
L 359.094718 309.8635 
L 361.288428 309.8635 
L 363.482138 309.8635 
L 365.605083 309.8635 
L 367.798793 309.8635 
L 369.921738 309.8635 
L 372.115448 309.8635 
L 374.309158 309.8635 
L 376.290574 309.8635 
L 378.484284 309.8635 
L 380.607229 309.8635 
L 382.800939 309.8635 
L 384.923884 309.8635 
L 387.117594 309.8635 
L 389.311304 309.8635 
L 391.434249 309.8635 
L 393.627959 309.8635 
L 395.750904 309.8635 
L 397.944614 309.8635 
L 400.138324 309.8635 
L 402.119739 309.8635 
L 404.313449 309.8635 
L 406.436394 309.8635 
L 408.630104 309.8635 
L 410.753049 309.8635 
L 412.946759 309.8635 
L 415.140469 309.8635 
L 417.263414 309.8635 
L 419.457124 309.8635 
L 421.580069 309.8635 
L 423.773779 309.8635 
L 425.967489 309.8635 
L 428.01967 309.8635 
L 430.21338 309.8635 
L 432.336325 309.8635 
L 434.530035 309.8635 
L 436.65298 309.8635 
L 438.84669 309.8635 
L 441.0404 309.8635 
L 443.163345 309.8635 
L 445.357055 309.8635 
L 447.48 309.8635 
L 447.48 309.8635 
L 447.48 309.8635 
L 445.357055 309.8635 
L 443.163345 309.8635 
L 441.0404 309.8635 
L 438.84669 309.8635 
L 436.65298 309.8635 
L 434.530035 299.448115 
L 432.336325 309.8635 
L 430.21338 309.8635 
L 428.01967 309.8635 
L 425.967489 309.8635 
L 423.773779 309.8635 
L 421.580069 309.8635 
L 419.457124 309.8635 
L 417.263414 309.8635 
L 415.140469 309.8635 
L 412.946759 309.8635 
L 410.753049 309.8635 
L 408.630104 309.8635 
L 406.436394 309.8635 
L 404.313449 281.495282 
L 402.119739 309.8635 
L 400.138324 309.8635 
L 397.944614 309.8635 
L 395.750904 309.8635 
L 393.627959 309.8635 
L 391.434249 309.8635 
L 389.311304 309.8635 
L 387.117594 309.8635 
L 384.923884 309.8635 
L 382.800939 309.8635 
L 380.607229 309.8635 
L 378.484284 309.8635 
L 376.290574 309.8635 
L 374.309158 309.8635 
L 372.115448 309.8635 
L 369.921738 309.8635 
L 367.798793 309.8635 
L 365.605083 309.8635 
L 363.482138 309.8635 
L 361.288428 309.8635 
L 359.094718 309.8635 
L 356.971773 302.874229 
L 354.778063 309.8635 
L 352.655118 297.255403 
L 350.461408 309.8635 
L 348.479992 302.874229 
L 346.286282 309.8635 
L 344.092573 309.8635 
L 341.969627 293.966334 
L 339.775917 295.884958 
L 337.652972 309.8635 
L 335.459262 298.351759 
L 333.265552 309.8635 
L 331.142607 309.8635 
L 328.948897 309.8635 
L 326.825952 303.011273 
L 324.632242 309.8635 
L 322.580062 309.8635 
L 320.386352 309.8635 
L 318.192642 309.8635 
L 316.069697 309.8635 
L 313.875987 309.8635 
L 311.753042 309.8635 
L 309.559332 309.8635 
L 307.365622 309.8635 
L 305.242677 309.8635 
L 303.048967 309.8635 
L 300.926022 309.8635 
L 298.732312 309.8635 
L 296.750896 309.8635 
L 294.557186 309.8635 
L 292.363476 309.8635 
L 290.240531 309.8635 
L 288.046821 309.8635 
L 285.923876 309.8635 
L 283.730166 309.8635 
L 281.536456 309.8635 
L 279.413511 309.8635 
L 277.219801 309.8635 
L 275.096856 309.8635 
L 272.903146 309.8635 
L 270.921731 309.8635 
L 268.728021 309.8635 
L 266.534311 309.8635 
L 264.411366 309.8635 
L 262.217656 309.8635 
L 260.09471 295.473824 
L 257.901001 309.8635 
L 255.707291 309.8635 
L 253.584345 309.8635 
L 251.390635 296.022002 
L 249.26769 309.8635 
L 247.07398 309.8635 
L 245.092565 309.8635 
L 242.898855 309.8635 
L 240.705145 309.8635 
L 238.5822 309.8635 
L 236.38849 309.8635 
L 234.265545 309.8635 
L 232.071835 309.8635 
L 229.878125 309.8635 
L 227.75518 309.8635 
L 225.56147 300.133338 
L 223.438525 309.8635 
L 221.244815 309.8635 
L 219.192634 309.8635 
L 216.998924 309.8635 
L 214.805215 309.8635 
L 212.682269 309.8635 
L 210.488559 309.8635 
L 208.365614 309.8635 
L 206.171904 283.482427 
L 203.978194 309.8635 
L 201.855249 309.8635 
L 199.661539 309.8635 
L 197.538594 309.8635 
L 195.344884 309.8635 
L 193.363469 309.8635 
L 191.169759 309.8635 
L 188.976049 309.8635 
L 186.853104 301.914917 
L 184.659394 309.8635 
L 182.536449 309.8635 
L 180.342739 309.8635 
L 178.149029 261.589563 
L 176.026084 280.947103 
L 173.832374 298.899937 
L 171.709429 300.133338 
L 169.515719 309.8635 
L 167.534303 309.8635 
L 165.340593 309.8635 
L 163.146883 309.8635 
L 161.023938 309.8635 
L 158.830228 309.8635 
L 156.707283 303.148318 
L 154.513573 273.820788 
L 152.319863 243.773774 
L 150.196918 294.651557 
L 148.003208 275.944978 
L 145.880263 309.8635 
L 143.686553 309.8635 
L 141.705137 303.936324 
L 139.511427 282.934249 
L 137.317718 286.017751 
L 135.194772 290.81431 
L 133.001062 309.8635 
L 130.878117 257.649533 
L 128.684407 266.386122 
L 126.490697 257.512488 
L 124.367752 271.867903 
L 122.174042 236.133541 
L 120.051097 251.037134 
L 117.857387 252.44184 
L 115.805207 272.039209 
L 113.611497 280.947103 
L 111.417787 309.8635 
L 109.294842 283.927822 
L 107.101132 265.186982 
L 104.978187 267.790828 
L 102.784477 255.833693 
L 100.590767 242.74594 
L 98.467822 265.872205 
L 96.274112 271.353986 
L 94.151167 272.587387 
L 91.957457 240.381921 
L 89.976041 226.060768 
L 87.782331 284.236172 
L 85.588621 209.409857 
L 83.465676 209.546901 
L 81.271966 201.289968 
L 79.149021 208.553328 
L 76.955311 229.795231 
L 74.761601 203.105808 
L 72.638656 213.521193 
L 70.444946 235.996496 
L 68.322001 233.221345 
L 66.128291 177.341436 
L 64.146876 272.861476 
L 61.953166 250.797306 
L 59.759456 148.733389 
L 57.636511 120.844827 
L 55.442801 69.898521 
L 53.319855 86.035515 
L 51.126146 75.997003 
L 48.932436 104.125394 
L 46.80949 124.819118 
L 44.61578 104.399483 
L 42.492835 83.054797 
L 40.299125 90.729291 
L 38.31771 104.570788 
L 36.124 124.305201 
z
" style="fill:#808080;fill-opacity:0.6;"/>
   </g>
   <g id="matplotlib.axis_1">
    <g id="xtick_1">
     <g id="line2d_1">
      <path clip-path="url(#pd9df2dce83)" d="M 36.124 309.8635 
L 36.124 23.36505 
" style="fill:none;stroke:#b0b0b0;stroke-linecap:square;stroke-width:0.8;"/>
     </g>
     <g id="line2d_2">
      <defs>
       <path d="M 0 0 
L 0 3.5 
" id="ma9913b62a1" style="stroke:#000000;stroke-width:0.8;"/>
      </defs>
      <g>
       <use style="stroke:#000000;stroke-width:0.8;" x="36.124" xlink:href="#ma9913b62a1" y="309.8635"/>
      </g>
     </g>
     <g id="text_1">
      <!-- 2001 -->
      <defs>
       <path d="M 19.1875 8.296875 
L 53.609375 8.296875 
L 53.609375 0 
L 7.328125 0 
L 7.328125 8.296875 
Q 12.9375 14.109375 22.625 23.890625 
Q 32.328125 33.6875 34.8125 36.53125 
Q 39.546875 41.84375 41.421875 45.53125 
Q 43.3125 49.21875 43.3125 52.78125 
Q 43.3125 58.59375 39.234375 62.25 
Q 35.15625 65.921875 28.609375 65.921875 
Q 23.96875 65.921875 18.8125 64.3125 
Q 13.671875 62.703125 7.8125 59.421875 
L 7.8125 69.390625 
Q 13.765625 71.78125 18.9375 73 
Q 24.125 74.21875 28.421875 74.21875 
Q 39.75 74.21875 46.484375 68.546875 
Q 53.21875 62.890625 53.21875 53.421875 
Q 53.21875 48.921875 51.53125 44.890625 
Q 49.859375 40.875 45.40625 35.40625 
Q 44.1875 33.984375 37.640625 27.21875 
Q 31.109375 20.453125 19.1875 8.296875 
z
" id="DejaVuSans-32"/>
       <path d="M 31.78125 66.40625 
Q 24.171875 66.40625 20.328125 58.90625 
Q 16.5 51.421875 16.5 36.375 
Q 16.5 21.390625 20.328125 13.890625 
Q 24.171875 6.390625 31.78125 6.390625 
Q 39.453125 6.390625 43.28125 13.890625 
Q 47.125 21.390625 47.125 36.375 
Q 47.125 51.421875 43.28125 58.90625 
Q 39.453125 66.40625 31.78125 66.40625 
z
M 31.78125 74.21875 
Q 44.046875 74.21875 50.515625 64.515625 
Q 56.984375 54.828125 56.984375 36.375 
Q 56.984375 17.96875 50.515625 8.265625 
Q 44.046875 -1.421875 31.78125 -1.421875 
Q 19.53125 -1.421875 13.0625 8.265625 
Q 6.59375 17.96875 6.59375 36.375 
Q 6.59375 54.828125 13.0625 64.515625 
Q 19.53125 74.21875 31.78125 74.21875 
z
" id="DejaVuSans-30"/>
       <path d="M 12.40625 8.296875 
L 28.515625 8.296875 
L 28.515625 63.921875 
L 10.984375 60.40625 
L 10.984375 69.390625 
L 28.421875 72.90625 
L 38.28125 72.90625 
L 38.28125 8.296875 
L 54.390625 8.296875 
L 54.390625 0 
L 12.40625 0 
z
" id="DejaVuSans-31"/>
      </defs>
      <g transform="translate(23.399 324.461937)scale(0.1 -0.1)">
       <use xlink:href="#DejaVuSans-32"/>
       <use x="63.623047" xlink:href="#DejaVuSans-30"/>
       <use x="127.246094" xlink:href="#DejaVuSans-30"/>
       <use x="190.869141" xlink:href="#DejaVuSans-31"/>
      </g>
     </g>
    </g>
    <g id="xtick_2">
     <g id="line2d_3">
      <path clip-path="url(#pd9df2dce83)" d="M 87.782331 309.8635 
L 87.782331 23.36505 
" style="fill:none;stroke:#b0b0b0;stroke-linecap:square;stroke-width:0.8;"/>
     </g>
     <g id="line2d_4">
      <g>
       <use style="stroke:#000000;stroke-width:0.8;" x="87.782331" xlink:href="#ma9913b62a1" y="309.8635"/>
      </g>
     </g>
     <g id="text_2">
      <!-- 2003 -->
      <defs>
       <path d="M 40.578125 39.3125 
Q 47.65625 37.796875 51.625 33 
Q 55.609375 28.21875 55.609375 21.1875 
Q 55.609375 10.40625 48.1875 4.484375 
Q 40.765625 -1.421875 27.09375 -1.421875 
Q 22.515625 -1.421875 17.65625 -0.515625 
Q 12.796875 0.390625 7.625 2.203125 
L 7.625 11.71875 
Q 11.71875 9.328125 16.59375 8.109375 
Q 21.484375 6.890625 26.8125 6.890625 
Q 36.078125 6.890625 40.9375 10.546875 
Q 45.796875 14.203125 45.796875 21.1875 
Q 45.796875 27.640625 41.28125 31.265625 
Q 36.765625 34.90625 28.71875 34.90625 
L 20.21875 34.90625 
L 20.21875 43.015625 
L 29.109375 43.015625 
Q 36.375 43.015625 40.234375 45.921875 
Q 44.09375 48.828125 44.09375 54.296875 
Q 44.09375 59.90625 40.109375 62.90625 
Q 36.140625 65.921875 28.71875 65.921875 
Q 24.65625 65.921875 20.015625 65.03125 
Q 15.375 64.15625 9.8125 62.3125 
L 9.8125 71.09375 
Q 15.4375 72.65625 20.34375 73.4375 
Q 25.25 74.21875 29.59375 74.21875 
Q 40.828125 74.21875 47.359375 69.109375 
Q 53.90625 64.015625 53.90625 55.328125 
Q 53.90625 49.265625 50.4375 45.09375 
Q 46.96875 40.921875 40.578125 39.3125 
z
" id="DejaVuSans-33"/>
      </defs>
      <g transform="translate(75.057331 324.461937)scale(0.1 -0.1)">
       <use xlink:href="#DejaVuSans-32"/>
       <use x="63.623047" xlink:href="#DejaVuSans-30"/>
       <use x="127.246094" xlink:href="#DejaVuSans-30"/>
       <use x="190.869141" xlink:href="#DejaVuSans-33"/>
      </g>
     </g>
    </g>
    <g id="xtick_3">
     <g id="line2d_5">
      <path clip-path="url(#pd9df2dce83)" d="M 139.511427 309.8635 
L 139.511427 23.36505 
" style="fill:none;stroke:#b0b0b0;stroke-linecap:square;stroke-width:0.8;"/>
     </g>
     <g id="line2d_6">
      <g>
       <use style="stroke:#000000;stroke-width:0.8;" x="139.511427" xlink:href="#ma9913b62a1" y="309.8635"/>
      </g>
     </g>
     <g id="text_3">
      <!-- 2005 -->
      <defs>
       <path d="M 10.796875 72.90625 
L 49.515625 72.90625 
L 49.515625 64.59375 
L 19.828125 64.59375 
L 19.828125 46.734375 
Q 21.96875 47.46875 24.109375 47.828125 
Q 26.265625 48.1875 28.421875 48.1875 
Q 40.625 48.1875 47.75 41.5 
Q 54.890625 34.8125 54.890625 23.390625 
Q 54.890625 11.625 47.5625 5.09375 
Q 40.234375 -1.421875 26.90625 -1.421875 
Q 22.3125 -1.421875 17.546875 -0.640625 
Q 12.796875 0.140625 7.71875 1.703125 
L 7.71875 11.625 
Q 12.109375 9.234375 16.796875 8.0625 
Q 21.484375 6.890625 26.703125 6.890625 
Q 35.15625 6.890625 40.078125 11.328125 
Q 45.015625 15.765625 45.015625 23.390625 
Q 45.015625 31 40.078125 35.4375 
Q 35.15625 39.890625 26.703125 39.890625 
Q 22.75 39.890625 18.8125 39.015625 
Q 14.890625 38.140625 10.796875 36.28125 
z
" id="DejaVuSans-35"/>
      </defs>
      <g transform="translate(126.786427 324.461937)scale(0.1 -0.1)">
       <use xlink:href="#DejaVuSans-32"/>
       <use x="63.623047" xlink:href="#DejaVuSans-30"/>
       <use x="127.246094" xlink:href="#DejaVuSans-30"/>
       <use x="190.869141" xlink:href="#DejaVuSans-35"/>
      </g>
     </g>
    </g>
    <g id="xtick_4">
     <g id="line2d_7">
      <path clip-path="url(#pd9df2dce83)" d="M 191.169759 309.8635 
L 191.169759 23.36505 
" style="fill:none;stroke:#b0b0b0;stroke-linecap:square;stroke-width:0.8;"/>
     </g>
     <g id="line2d_8">
      <g>
       <use style="stroke:#000000;stroke-width:0.8;" x="191.169759" xlink:href="#ma9913b62a1" y="309.8635"/>
      </g>
     </g>
     <g id="text_4">
      <!-- 2007 -->
      <defs>
       <path d="M 8.203125 72.90625 
L 55.078125 72.90625 
L 55.078125 68.703125 
L 28.609375 0 
L 18.3125 0 
L 43.21875 64.59375 
L 8.203125 64.59375 
z
" id="DejaVuSans-37"/>
      </defs>
      <g transform="translate(178.444759 324.461937)scale(0.1 -0.1)">
       <use xlink:href="#DejaVuSans-32"/>
       <use x="63.623047" xlink:href="#DejaVuSans-30"/>
       <use x="127.246094" xlink:href="#DejaVuSans-30"/>
       <use x="190.869141" xlink:href="#DejaVuSans-37"/>
      </g>
     </g>
    </g>
    <g id="xtick_5">
     <g id="line2d_9">
      <path clip-path="url(#pd9df2dce83)" d="M 242.898855 309.8635 
L 242.898855 23.36505 
" style="fill:none;stroke:#b0b0b0;stroke-linecap:square;stroke-width:0.8;"/>
     </g>
     <g id="line2d_10">
      <g>
       <use style="stroke:#000000;stroke-width:0.8;" x="242.898855" xlink:href="#ma9913b62a1" y="309.8635"/>
      </g>
     </g>
     <g id="text_5">
      <!-- 2009 -->
      <defs>
       <path d="M 10.984375 1.515625 
L 10.984375 10.5 
Q 14.703125 8.734375 18.5 7.8125 
Q 22.3125 6.890625 25.984375 6.890625 
Q 35.75 6.890625 40.890625 13.453125 
Q 46.046875 20.015625 46.78125 33.40625 
Q 43.953125 29.203125 39.59375 26.953125 
Q 35.25 24.703125 29.984375 24.703125 
Q 19.046875 24.703125 12.671875 31.3125 
Q 6.296875 37.9375 6.296875 49.421875 
Q 6.296875 60.640625 12.9375 67.421875 
Q 19.578125 74.21875 30.609375 74.21875 
Q 43.265625 74.21875 49.921875 64.515625 
Q 56.59375 54.828125 56.59375 36.375 
Q 56.59375 19.140625 48.40625 8.859375 
Q 40.234375 -1.421875 26.421875 -1.421875 
Q 22.703125 -1.421875 18.890625 -0.6875 
Q 15.09375 0.046875 10.984375 1.515625 
z
M 30.609375 32.421875 
Q 37.25 32.421875 41.125 36.953125 
Q 45.015625 41.5 45.015625 49.421875 
Q 45.015625 57.28125 41.125 61.84375 
Q 37.25 66.40625 30.609375 66.40625 
Q 23.96875 66.40625 20.09375 61.84375 
Q 16.21875 57.28125 16.21875 49.421875 
Q 16.21875 41.5 20.09375 36.953125 
Q 23.96875 32.421875 30.609375 32.421875 
z
" id="DejaVuSans-39"/>
      </defs>
      <g transform="translate(230.173855 324.461937)scale(0.1 -0.1)">
       <use xlink:href="#DejaVuSans-32"/>
       <use x="63.623047" xlink:href="#DejaVuSans-30"/>
       <use x="127.246094" xlink:href="#DejaVuSans-30"/>
       <use x="190.869141" xlink:href="#DejaVuSans-39"/>
      </g>
     </g>
    </g>
    <g id="xtick_6">
     <g id="line2d_11">
      <path clip-path="url(#pd9df2dce83)" d="M 294.557186 309.8635 
L 294.557186 23.36505 
" style="fill:none;stroke:#b0b0b0;stroke-linecap:square;stroke-width:0.8;"/>
     </g>
     <g id="line2d_12">
      <g>
       <use style="stroke:#000000;stroke-width:0.8;" x="294.557186" xlink:href="#ma9913b62a1" y="309.8635"/>
      </g>
     </g>
     <g id="text_6">
      <!-- 2011 -->
      <g transform="translate(281.832186 324.461937)scale(0.1 -0.1)">
       <use xlink:href="#DejaVuSans-32"/>
       <use x="63.623047" xlink:href="#DejaVuSans-30"/>
       <use x="127.246094" xlink:href="#DejaVuSans-31"/>
       <use x="190.869141" xlink:href="#DejaVuSans-31"/>
      </g>
     </g>
    </g>
    <g id="xtick_7">
     <g id="line2d_13">
      <path clip-path="url(#pd9df2dce83)" d="M 346.286282 309.8635 
L 346.286282 23.36505 
" style="fill:none;stroke:#b0b0b0;stroke-linecap:square;stroke-width:0.8;"/>
     </g>
     <g id="line2d_14">
      <g>
       <use style="stroke:#000000;stroke-width:0.8;" x="346.286282" xlink:href="#ma9913b62a1" y="309.8635"/>
      </g>
     </g>
     <g id="text_7">
      <!-- 2013 -->
      <g transform="translate(333.561282 324.461937)scale(0.1 -0.1)">
       <use xlink:href="#DejaVuSans-32"/>
       <use x="63.623047" xlink:href="#DejaVuSans-30"/>
       <use x="127.246094" xlink:href="#DejaVuSans-31"/>
       <use x="190.869141" xlink:href="#DejaVuSans-33"/>
      </g>
     </g>
    </g>
    <g id="xtick_8">
     <g id="line2d_15">
      <path clip-path="url(#pd9df2dce83)" d="M 397.944614 309.8635 
L 397.944614 23.36505 
" style="fill:none;stroke:#b0b0b0;stroke-linecap:square;stroke-width:0.8;"/>
     </g>
     <g id="line2d_16">
      <g>
       <use style="stroke:#000000;stroke-width:0.8;" x="397.944614" xlink:href="#ma9913b62a1" y="309.8635"/>
      </g>
     </g>
     <g id="text_8">
      <!-- 2015 -->
      <g transform="translate(385.219614 324.461937)scale(0.1 -0.1)">
       <use xlink:href="#DejaVuSans-32"/>
       <use x="63.623047" xlink:href="#DejaVuSans-30"/>
       <use x="127.246094" xlink:href="#DejaVuSans-31"/>
       <use x="190.869141" xlink:href="#DejaVuSans-35"/>
      </g>
     </g>
    </g>
    <g id="text_9">
     <!-- Date -->
     <defs>
      <path d="M 19.671875 64.796875 
L 19.671875 8.109375 
L 31.59375 8.109375 
Q 46.6875 8.109375 53.6875 14.9375 
Q 60.6875 21.78125 60.6875 36.53125 
Q 60.6875 51.171875 53.6875 57.984375 
Q 46.6875 64.796875 31.59375 64.796875 
z
M 9.8125 72.90625 
L 30.078125 72.90625 
Q 51.265625 72.90625 61.171875 64.09375 
Q 71.09375 55.28125 71.09375 36.53125 
Q 71.09375 17.671875 61.125 8.828125 
Q 51.171875 0 30.078125 0 
L 9.8125 0 
z
" id="DejaVuSans-44"/>
      <path d="M 34.28125 27.484375 
Q 23.390625 27.484375 19.1875 25 
Q 14.984375 22.515625 14.984375 16.5 
Q 14.984375 11.71875 18.140625 8.90625 
Q 21.296875 6.109375 26.703125 6.109375 
Q 34.1875 6.109375 38.703125 11.40625 
Q 43.21875 16.703125 43.21875 25.484375 
L 43.21875 27.484375 
z
M 52.203125 31.203125 
L 52.203125 0 
L 43.21875 0 
L 43.21875 8.296875 
Q 40.140625 3.328125 35.546875 0.953125 
Q 30.953125 -1.421875 24.3125 -1.421875 
Q 15.921875 -1.421875 10.953125 3.296875 
Q 6 8.015625 6 15.921875 
Q 6 25.140625 12.171875 29.828125 
Q 18.359375 34.515625 30.609375 34.515625 
L 43.21875 34.515625 
L 43.21875 35.40625 
Q 43.21875 41.609375 39.140625 45 
Q 35.0625 48.390625 27.6875 48.390625 
Q 23 48.390625 18.546875 47.265625 
Q 14.109375 46.140625 10.015625 43.890625 
L 10.015625 52.203125 
Q 14.9375 54.109375 19.578125 55.046875 
Q 24.21875 56 28.609375 56 
Q 40.484375 56 46.34375 49.84375 
Q 52.203125 43.703125 52.203125 31.203125 
z
" id="DejaVuSans-61"/>
      <path d="M 18.3125 70.21875 
L 18.3125 54.6875 
L 36.8125 54.6875 
L 36.8125 47.703125 
L 18.3125 47.703125 
L 18.3125 18.015625 
Q 18.3125 11.328125 20.140625 9.421875 
Q 21.96875 7.515625 27.59375 7.515625 
L 36.8125 7.515625 
L 36.8125 0 
L 27.59375 0 
Q 17.1875 0 13.234375 3.875 
Q 9.28125 7.765625 9.28125 18.015625 
L 9.28125 47.703125 
L 2.6875 47.703125 
L 2.6875 54.6875 
L 9.28125 54.6875 
L 9.28125 70.21875 
z
" id="DejaVuSans-74"/>
      <path d="M 56.203125 29.59375 
L 56.203125 25.203125 
L 14.890625 25.203125 
Q 15.484375 15.921875 20.484375 11.0625 
Q 25.484375 6.203125 34.421875 6.203125 
Q 39.59375 6.203125 44.453125 7.46875 
Q 49.3125 8.734375 54.109375 11.28125 
L 54.109375 2.78125 
Q 49.265625 0.734375 44.1875 -0.34375 
Q 39.109375 -1.421875 33.890625 -1.421875 
Q 20.796875 -1.421875 13.15625 6.1875 
Q 5.515625 13.8125 5.515625 26.8125 
Q 5.515625 40.234375 12.765625 48.109375 
Q 20.015625 56 32.328125 56 
Q 43.359375 56 49.78125 48.890625 
Q 56.203125 41.796875 56.203125 29.59375 
z
M 47.21875 32.234375 
Q 47.125 39.59375 43.09375 43.984375 
Q 39.0625 48.390625 32.421875 48.390625 
Q 24.90625 48.390625 20.390625 44.140625 
Q 15.875 39.890625 15.1875 32.171875 
z
" id="DejaVuSans-65"/>
     </defs>
     <g transform="translate(229.851219 338.140062)scale(0.1 -0.1)">
      <use xlink:href="#DejaVuSans-44"/>
      <use x="77.001953" xlink:href="#DejaVuSans-61"/>
      <use x="138.28125" xlink:href="#DejaVuSans-74"/>
      <use x="177.490234" xlink:href="#DejaVuSans-65"/>
     </g>
    </g>
   </g>
   <g id="matplotlib.axis_2">
    <g id="ytick_1">
     <g id="line2d_17">
      <path clip-path="url(#pd9df2dce83)" d="M 36.124 309.8635 
L 447.48 309.8635 
" style="fill:none;stroke:#b0b0b0;stroke-linecap:square;stroke-width:0.8;"/>
     </g>
     <g id="line2d_18">
      <defs>
       <path d="M 0 0 
L -3.5 0 
" id="mc1ba2e63a8" style="stroke:#000000;stroke-width:0.8;"/>
      </defs>
      <g>
       <use style="stroke:#000000;stroke-width:0.8;" x="36.124" xlink:href="#mc1ba2e63a8" y="309.8635"/>
      </g>
     </g>
     <g id="text_10">
      <!-- 0 -->
      <g transform="translate(22.7615 313.662719)scale(0.1 -0.1)">
       <use xlink:href="#DejaVuSans-30"/>
      </g>
     </g>
    </g>
    <g id="ytick_2">
     <g id="line2d_19">
      <path clip-path="url(#pd9df2dce83)" d="M 36.124 275.602367 
L 447.48 275.602367 
" style="fill:none;stroke:#b0b0b0;stroke-linecap:square;stroke-width:0.8;"/>
     </g>
     <g id="line2d_20">
      <g>
       <use style="stroke:#000000;stroke-width:0.8;" x="36.124" xlink:href="#mc1ba2e63a8" y="275.602367"/>
      </g>
     </g>
     <g id="text_11">
      <!-- 250 -->
      <g transform="translate(10.0365 279.401585)scale(0.1 -0.1)">
       <use xlink:href="#DejaVuSans-32"/>
       <use x="63.623047" xlink:href="#DejaVuSans-35"/>
       <use x="127.246094" xlink:href="#DejaVuSans-30"/>
      </g>
     </g>
    </g>
    <g id="ytick_3">
     <g id="line2d_21">
      <path clip-path="url(#pd9df2dce83)" d="M 36.124 241.341233 
L 447.48 241.341233 
" style="fill:none;stroke:#b0b0b0;stroke-linecap:square;stroke-width:0.8;"/>
     </g>
     <g id="line2d_22">
      <g>
       <use style="stroke:#000000;stroke-width:0.8;" x="36.124" xlink:href="#mc1ba2e63a8" y="241.341233"/>
      </g>
     </g>
     <g id="text_12">
      <!-- 500 -->
      <g transform="translate(10.0365 245.140452)scale(0.1 -0.1)">
       <use xlink:href="#DejaVuSans-35"/>
       <use x="63.623047" xlink:href="#DejaVuSans-30"/>
       <use x="127.246094" xlink:href="#DejaVuSans-30"/>
      </g>
     </g>
    </g>
    <g id="ytick_4">
     <g id="line2d_23">
      <path clip-path="url(#pd9df2dce83)" d="M 36.124 207.0801 
L 447.48 207.0801 
" style="fill:none;stroke:#b0b0b0;stroke-linecap:square;stroke-width:0.8;"/>
     </g>
     <g id="line2d_24">
      <g>
       <use style="stroke:#000000;stroke-width:0.8;" x="36.124" xlink:href="#mc1ba2e63a8" y="207.0801"/>
      </g>
     </g>
     <g id="text_13">
      <!-- 750 -->
      <g transform="translate(10.0365 210.879318)scale(0.1 -0.1)">
       <use xlink:href="#DejaVuSans-37"/>
       <use x="63.623047" xlink:href="#DejaVuSans-35"/>
       <use x="127.246094" xlink:href="#DejaVuSans-30"/>
      </g>
     </g>
    </g>
    <g id="ytick_5">
     <g id="line2d_25">
      <path clip-path="url(#pd9df2dce83)" d="M 36.124 172.818966 
L 447.48 172.818966 
" style="fill:none;stroke:#b0b0b0;stroke-linecap:square;stroke-width:0.8;"/>
     </g>
     <g id="line2d_26">
      <g>
       <use style="stroke:#000000;stroke-width:0.8;" x="36.124" xlink:href="#mc1ba2e63a8" y="172.818966"/>
      </g>
     </g>
     <g id="text_14">
      <!-- 1000 -->
      <g transform="translate(3.674 176.618185)scale(0.1 -0.1)">
       <use xlink:href="#DejaVuSans-31"/>
       <use x="63.623047" xlink:href="#DejaVuSans-30"/>
       <use x="127.246094" xlink:href="#DejaVuSans-30"/>
       <use x="190.869141" xlink:href="#DejaVuSans-30"/>
      </g>
     </g>
    </g>
    <g id="ytick_6">
     <g id="line2d_27">
      <path clip-path="url(#pd9df2dce83)" d="M 36.124 138.557833 
L 447.48 138.557833 
" style="fill:none;stroke:#b0b0b0;stroke-linecap:square;stroke-width:0.8;"/>
     </g>
     <g id="line2d_28">
      <g>
       <use style="stroke:#000000;stroke-width:0.8;" x="36.124" xlink:href="#mc1ba2e63a8" y="138.557833"/>
      </g>
     </g>
     <g id="text_15">
      <!-- 1250 -->
      <g transform="translate(3.674 142.357052)scale(0.1 -0.1)">
       <use xlink:href="#DejaVuSans-31"/>
       <use x="63.623047" xlink:href="#DejaVuSans-32"/>
       <use x="127.246094" xlink:href="#DejaVuSans-35"/>
       <use x="190.869141" xlink:href="#DejaVuSans-30"/>
      </g>
     </g>
    </g>
    <g id="ytick_7">
     <g id="line2d_29">
      <path clip-path="url(#pd9df2dce83)" d="M 36.124 104.296699 
L 447.48 104.296699 
" style="fill:none;stroke:#b0b0b0;stroke-linecap:square;stroke-width:0.8;"/>
     </g>
     <g id="line2d_30">
      <g>
       <use style="stroke:#000000;stroke-width:0.8;" x="36.124" xlink:href="#mc1ba2e63a8" y="104.296699"/>
      </g>
     </g>
     <g id="text_16">
      <!-- 1500 -->
      <g transform="translate(3.674 108.095918)scale(0.1 -0.1)">
       <use xlink:href="#DejaVuSans-31"/>
       <use x="63.623047" xlink:href="#DejaVuSans-35"/>
       <use x="127.246094" xlink:href="#DejaVuSans-30"/>
       <use x="190.869141" xlink:href="#DejaVuSans-30"/>
      </g>
     </g>
    </g>
    <g id="ytick_8">
     <g id="line2d_31">
      <path clip-path="url(#pd9df2dce83)" d="M 36.124 70.035566 
L 447.48 70.035566 
" style="fill:none;stroke:#b0b0b0;stroke-linecap:square;stroke-width:0.8;"/>
     </g>
     <g id="line2d_32">
      <g>
       <use style="stroke:#000000;stroke-width:0.8;" x="36.124" xlink:href="#mc1ba2e63a8" y="70.035566"/>
      </g>
     </g>
     <g id="text_17">
      <!-- 1750 -->
      <g transform="translate(3.674 73.834785)scale(0.1 -0.1)">
       <use xlink:href="#DejaVuSans-31"/>
       <use x="63.623047" xlink:href="#DejaVuSans-37"/>
       <use x="127.246094" xlink:href="#DejaVuSans-35"/>
       <use x="190.869141" xlink:href="#DejaVuSans-30"/>
      </g>
     </g>
    </g>
    <g id="ytick_9">
     <g id="line2d_33">
      <path clip-path="url(#pd9df2dce83)" d="M 36.124 35.774433 
L 447.48 35.774433 
" style="fill:none;stroke:#b0b0b0;stroke-linecap:square;stroke-width:0.8;"/>
     </g>
     <g id="line2d_34">
      <g>
       <use style="stroke:#000000;stroke-width:0.8;" x="36.124" xlink:href="#mc1ba2e63a8" y="35.774433"/>
      </g>
     </g>
     <g id="text_18">
      <!-- 2000 -->
      <g transform="translate(3.674 39.573651)scale(0.1 -0.1)">
       <use xlink:href="#DejaVuSans-32"/>
       <use x="63.623047" xlink:href="#DejaVuSans-30"/>
       <use x="127.246094" xlink:href="#DejaVuSans-30"/>
       <use x="190.869141" xlink:href="#DejaVuSans-30"/>
      </g>
     </g>
    </g>
   </g>
   <g id="line2d_35">
    <path clip-path="url(#pd9df2dce83)" d="M 36.124 153.016031 
L 38.31771 106.489412 
L 40.299125 105.461578 
L 42.492835 105.256011 
L 44.61578 123.208845 
L 46.80949 140.682023 
L 48.932436 144.176659 
L 51.126146 105.324533 
L 53.319855 138.557833 
L 55.442801 111.697104 
L 57.636511 161.992448 
L 59.759456 185.084452 
L 61.953166 271.079897 
L 64.146876 291.499532 
L 66.128291 201.872407 
L 68.322001 256.484654 
L 70.444946 260.458946 
L 72.638656 247.645282 
L 74.761601 237.229897 
L 76.955311 267.379695 
L 79.149021 246.000747 
L 83.465676 248.19346 
L 85.588621 250.591739 
L 87.782331 293.144067 
L 89.976041 264.638804 
L 91.957457 258.677367 
L 94.151167 279.439614 
L 96.274112 278.343257 
L 98.467822 295.473824 
L 100.590767 265.049937 
L 102.784477 280.947103 
L 104.978187 287.114107 
L 107.101132 281.221192 
L 109.294842 298.762893 
L 111.417787 309.8635 
L 113.611497 294.103379 
L 115.805207 280.398925 
L 117.857387 266.557427 
L 120.051097 266.557427 
L 122.174042 257.375444 
L 124.367752 288.484553 
L 126.490697 276.630201 
L 128.684407 287.114107 
L 130.878117 281.084148 
L 133.001062 309.8635 
L 135.194772 302.874229 
L 137.317718 302.326051 
L 139.511427 299.242549 
L 141.705137 309.8635 
L 145.880263 309.8635 
L 148.003208 298.625848 
L 150.196918 299.996294 
L 152.319863 281.632326 
L 154.513573 291.910666 
L 156.707283 309.8635 
L 171.709429 309.8635 
L 173.832374 302.874229 
L 176.026084 309.8635 
L 178.149029 289.30682 
L 180.342739 309.8635 
L 184.659394 309.8635 
L 186.853104 302.874229 
L 188.976049 309.8635 
L 203.978194 309.8635 
L 206.171904 302.874229 
L 208.365614 309.8635 
L 257.901001 309.8635 
L 260.09471 302.874229 
L 262.217656 309.8635 
L 337.652972 309.8635 
L 339.775917 296.638702 
L 341.969627 302.189006 
L 344.092573 309.8635 
L 402.119739 309.8635 
L 404.313449 296.159047 
L 406.436394 309.8635 
L 447.48 309.8635 
L 447.48 309.8635 
" style="fill:none;stroke:#1f77b4;stroke-linecap:square;stroke-width:1.5;"/>
   </g>
   <g id="patch_3">
    <path d="M 36.124 309.8635 
L 36.124 23.36505 
" style="fill:none;stroke:#000000;stroke-linecap:square;stroke-linejoin:miter;stroke-width:0.8;"/>
   </g>
   <g id="patch_4">
    <path d="M 447.48 309.8635 
L 447.48 23.36505 
" style="fill:none;stroke:#000000;stroke-linecap:square;stroke-linejoin:miter;stroke-width:0.8;"/>
   </g>
   <g id="patch_5">
    <path d="M 36.124 309.8635 
L 447.48 309.8635 
" style="fill:none;stroke:#000000;stroke-linecap:square;stroke-linejoin:miter;stroke-width:0.8;"/>
   </g>
   <g id="patch_6">
    <path d="M 36.124 23.36505 
L 447.48 23.36505 
" style="fill:none;stroke:#000000;stroke-linecap:square;stroke-linejoin:miter;stroke-width:0.8;"/>
   </g>
   <g id="text_19">
    <!-- Monthly gross load trend (MW) -->
    <defs>
     <path d="M 9.8125 72.90625 
L 24.515625 72.90625 
L 43.109375 23.296875 
L 61.8125 72.90625 
L 76.515625 72.90625 
L 76.515625 0 
L 66.890625 0 
L 66.890625 64.015625 
L 48.09375 14.015625 
L 38.1875 14.015625 
L 19.390625 64.015625 
L 19.390625 0 
L 9.8125 0 
z
" id="DejaVuSans-4d"/>
     <path d="M 30.609375 48.390625 
Q 23.390625 48.390625 19.1875 42.75 
Q 14.984375 37.109375 14.984375 27.296875 
Q 14.984375 17.484375 19.15625 11.84375 
Q 23.34375 6.203125 30.609375 6.203125 
Q 37.796875 6.203125 41.984375 11.859375 
Q 46.1875 17.53125 46.1875 27.296875 
Q 46.1875 37.015625 41.984375 42.703125 
Q 37.796875 48.390625 30.609375 48.390625 
z
M 30.609375 56 
Q 42.328125 56 49.015625 48.375 
Q 55.71875 40.765625 55.71875 27.296875 
Q 55.71875 13.875 49.015625 6.21875 
Q 42.328125 -1.421875 30.609375 -1.421875 
Q 18.84375 -1.421875 12.171875 6.21875 
Q 5.515625 13.875 5.515625 27.296875 
Q 5.515625 40.765625 12.171875 48.375 
Q 18.84375 56 30.609375 56 
z
" id="DejaVuSans-6f"/>
     <path d="M 54.890625 33.015625 
L 54.890625 0 
L 45.90625 0 
L 45.90625 32.71875 
Q 45.90625 40.484375 42.875 44.328125 
Q 39.84375 48.1875 33.796875 48.1875 
Q 26.515625 48.1875 22.3125 43.546875 
Q 18.109375 38.921875 18.109375 30.90625 
L 18.109375 0 
L 9.078125 0 
L 9.078125 54.6875 
L 18.109375 54.6875 
L 18.109375 46.1875 
Q 21.34375 51.125 25.703125 53.5625 
Q 30.078125 56 35.796875 56 
Q 45.21875 56 50.046875 50.171875 
Q 54.890625 44.34375 54.890625 33.015625 
z
" id="DejaVuSans-6e"/>
     <path d="M 54.890625 33.015625 
L 54.890625 0 
L 45.90625 0 
L 45.90625 32.71875 
Q 45.90625 40.484375 42.875 44.328125 
Q 39.84375 48.1875 33.796875 48.1875 
Q 26.515625 48.1875 22.3125 43.546875 
Q 18.109375 38.921875 18.109375 30.90625 
L 18.109375 0 
L 9.078125 0 
L 9.078125 75.984375 
L 18.109375 75.984375 
L 18.109375 46.1875 
Q 21.34375 51.125 25.703125 53.5625 
Q 30.078125 56 35.796875 56 
Q 45.21875 56 50.046875 50.171875 
Q 54.890625 44.34375 54.890625 33.015625 
z
" id="DejaVuSans-68"/>
     <path d="M 9.421875 75.984375 
L 18.40625 75.984375 
L 18.40625 0 
L 9.421875 0 
z
" id="DejaVuSans-6c"/>
     <path d="M 32.171875 -5.078125 
Q 28.375 -14.84375 24.75 -17.8125 
Q 21.140625 -20.796875 15.09375 -20.796875 
L 7.90625 -20.796875 
L 7.90625 -13.28125 
L 13.1875 -13.28125 
Q 16.890625 -13.28125 18.9375 -11.515625 
Q 21 -9.765625 23.484375 -3.21875 
L 25.09375 0.875 
L 2.984375 54.6875 
L 12.5 54.6875 
L 29.59375 11.921875 
L 46.6875 54.6875 
L 56.203125 54.6875 
z
" id="DejaVuSans-79"/>
     <path id="DejaVuSans-20"/>
     <path d="M 45.40625 27.984375 
Q 45.40625 37.75 41.375 43.109375 
Q 37.359375 48.484375 30.078125 48.484375 
Q 22.859375 48.484375 18.828125 43.109375 
Q 14.796875 37.75 14.796875 27.984375 
Q 14.796875 18.265625 18.828125 12.890625 
Q 22.859375 7.515625 30.078125 7.515625 
Q 37.359375 7.515625 41.375 12.890625 
Q 45.40625 18.265625 45.40625 27.984375 
z
M 54.390625 6.78125 
Q 54.390625 -7.171875 48.1875 -13.984375 
Q 42 -20.796875 29.203125 -20.796875 
Q 24.46875 -20.796875 20.265625 -20.09375 
Q 16.0625 -19.390625 12.109375 -17.921875 
L 12.109375 -9.1875 
Q 16.0625 -11.328125 19.921875 -12.34375 
Q 23.78125 -13.375 27.78125 -13.375 
Q 36.625 -13.375 41.015625 -8.765625 
Q 45.40625 -4.15625 45.40625 5.171875 
L 45.40625 9.625 
Q 42.625 4.78125 38.28125 2.390625 
Q 33.9375 0 27.875 0 
Q 17.828125 0 11.671875 7.65625 
Q 5.515625 15.328125 5.515625 27.984375 
Q 5.515625 40.671875 11.671875 48.328125 
Q 17.828125 56 27.875 56 
Q 33.9375 56 38.28125 53.609375 
Q 42.625 51.21875 45.40625 46.390625 
L 45.40625 54.6875 
L 54.390625 54.6875 
z
" id="DejaVuSans-67"/>
     <path d="M 41.109375 46.296875 
Q 39.59375 47.171875 37.8125 47.578125 
Q 36.03125 48 33.890625 48 
Q 26.265625 48 22.1875 43.046875 
Q 18.109375 38.09375 18.109375 28.8125 
L 18.109375 0 
L 9.078125 0 
L 9.078125 54.6875 
L 18.109375 54.6875 
L 18.109375 46.1875 
Q 20.953125 51.171875 25.484375 53.578125 
Q 30.03125 56 36.53125 56 
Q 37.453125 56 38.578125 55.875 
Q 39.703125 55.765625 41.0625 55.515625 
z
" id="DejaVuSans-72"/>
     <path d="M 44.28125 53.078125 
L 44.28125 44.578125 
Q 40.484375 46.53125 36.375 47.5 
Q 32.28125 48.484375 27.875 48.484375 
Q 21.1875 48.484375 17.84375 46.4375 
Q 14.5 44.390625 14.5 40.28125 
Q 14.5 37.15625 16.890625 35.375 
Q 19.28125 33.59375 26.515625 31.984375 
L 29.59375 31.296875 
Q 39.15625 29.25 43.1875 25.515625 
Q 47.21875 21.78125 47.21875 15.09375 
Q 47.21875 7.46875 41.1875 3.015625 
Q 35.15625 -1.421875 24.609375 -1.421875 
Q 20.21875 -1.421875 15.453125 -0.5625 
Q 10.6875 0.296875 5.421875 2 
L 5.421875 11.28125 
Q 10.40625 8.6875 15.234375 7.390625 
Q 20.0625 6.109375 24.8125 6.109375 
Q 31.15625 6.109375 34.5625 8.28125 
Q 37.984375 10.453125 37.984375 14.40625 
Q 37.984375 18.0625 35.515625 20.015625 
Q 33.0625 21.96875 24.703125 23.78125 
L 21.578125 24.515625 
Q 13.234375 26.265625 9.515625 29.90625 
Q 5.8125 33.546875 5.8125 39.890625 
Q 5.8125 47.609375 11.28125 51.796875 
Q 16.75 56 26.8125 56 
Q 31.78125 56 36.171875 55.265625 
Q 40.578125 54.546875 44.28125 53.078125 
z
" id="DejaVuSans-73"/>
     <path d="M 45.40625 46.390625 
L 45.40625 75.984375 
L 54.390625 75.984375 
L 54.390625 0 
L 45.40625 0 
L 45.40625 8.203125 
Q 42.578125 3.328125 38.25 0.953125 
Q 33.9375 -1.421875 27.875 -1.421875 
Q 17.96875 -1.421875 11.734375 6.484375 
Q 5.515625 14.40625 5.515625 27.296875 
Q 5.515625 40.1875 11.734375 48.09375 
Q 17.96875 56 27.875 56 
Q 33.9375 56 38.25 53.625 
Q 42.578125 51.265625 45.40625 46.390625 
z
M 14.796875 27.296875 
Q 14.796875 17.390625 18.875 11.75 
Q 22.953125 6.109375 30.078125 6.109375 
Q 37.203125 6.109375 41.296875 11.75 
Q 45.40625 17.390625 45.40625 27.296875 
Q 45.40625 37.203125 41.296875 42.84375 
Q 37.203125 48.484375 30.078125 48.484375 
Q 22.953125 48.484375 18.875 42.84375 
Q 14.796875 37.203125 14.796875 27.296875 
z
" id="DejaVuSans-64"/>
     <path d="M 31 75.875 
Q 24.46875 64.65625 21.28125 53.65625 
Q 18.109375 42.671875 18.109375 31.390625 
Q 18.109375 20.125 21.3125 9.0625 
Q 24.515625 -2 31 -13.1875 
L 23.1875 -13.1875 
Q 15.875 -1.703125 12.234375 9.375 
Q 8.59375 20.453125 8.59375 31.390625 
Q 8.59375 42.28125 12.203125 53.3125 
Q 15.828125 64.359375 23.1875 75.875 
z
" id="DejaVuSans-28"/>
     <path d="M 3.328125 72.90625 
L 13.28125 72.90625 
L 28.609375 11.28125 
L 43.890625 72.90625 
L 54.984375 72.90625 
L 70.3125 11.28125 
L 85.59375 72.90625 
L 95.609375 72.90625 
L 77.296875 0 
L 64.890625 0 
L 49.515625 63.28125 
L 33.984375 0 
L 21.578125 0 
z
" id="DejaVuSans-57"/>
     <path d="M 8.015625 75.875 
L 15.828125 75.875 
Q 23.140625 64.359375 26.78125 53.3125 
Q 30.421875 42.28125 30.421875 31.390625 
Q 30.421875 20.453125 26.78125 9.375 
Q 23.140625 -1.703125 15.828125 -13.1875 
L 8.015625 -13.1875 
Q 14.5 -2 17.703125 9.0625 
Q 20.90625 20.125 20.90625 31.390625 
Q 20.90625 42.671875 17.703125 53.65625 
Q 14.5 64.65625 8.015625 75.875 
z
" id="DejaVuSans-29"/>
    </defs>
    <g transform="translate(149.219188 17.36505)scale(0.12 -0.12)">
     <use xlink:href="#DejaVuSans-4d"/>
     <use x="86.279297" xlink:href="#DejaVuSans-6f"/>
     <use x="147.460938" xlink:href="#DejaVuSans-6e"/>
     <use x="210.839844" xlink:href="#DejaVuSans-74"/>
     <use x="250.048828" xlink:href="#DejaVuSans-68"/>
     <use x="313.427734" xlink:href="#DejaVuSans-6c"/>
     <use x="341.210938" xlink:href="#DejaVuSans-79"/>
     <use x="400.390625" xlink:href="#DejaVuSans-20"/>
     <use x="432.177734" xlink:href="#DejaVuSans-67"/>
     <use x="495.654297" xlink:href="#DejaVuSans-72"/>
     <use x="536.736328" xlink:href="#DejaVuSans-6f"/>
     <use x="597.917969" xlink:href="#DejaVuSans-73"/>
     <use x="650.017578" xlink:href="#DejaVuSans-73"/>
     <use x="702.117188" xlink:href="#DejaVuSans-20"/>
     <use x="733.904297" xlink:href="#DejaVuSans-6c"/>
     <use x="761.6875" xlink:href="#DejaVuSans-6f"/>
     <use x="822.869141" xlink:href="#DejaVuSans-61"/>
     <use x="884.148438" xlink:href="#DejaVuSans-64"/>
     <use x="947.625" xlink:href="#DejaVuSans-20"/>
     <use x="979.412109" xlink:href="#DejaVuSans-74"/>
     <use x="1018.621094" xlink:href="#DejaVuSans-72"/>
     <use x="1059.703125" xlink:href="#DejaVuSans-65"/>
     <use x="1121.226562" xlink:href="#DejaVuSans-6e"/>
     <use x="1184.605469" xlink:href="#DejaVuSans-64"/>
     <use x="1248.082031" xlink:href="#DejaVuSans-20"/>
     <use x="1279.869141" xlink:href="#DejaVuSans-28"/>
     <use x="1318.882812" xlink:href="#DejaVuSans-4d"/>
     <use x="1405.162109" xlink:href="#DejaVuSans-57"/>
     <use x="1504.039062" xlink:href="#DejaVuSans-29"/>
    </g>
   </g>
  </g>
 </g>
 <defs>
  <clipPath id="pd9df2dce83">
   <rect height="286.49845" width="411.356" x="36.124" y="23.36505"/>
  </clipPath>
 </defs>
</svg>
