<?xml version="1.0" encoding="utf-8" standalone="no"?>
<!DOCTYPE svg PUBLIC "-//W3C//DTD SVG 1.1//EN"
  "http://www.w3.org/Graphics/SVG/1.1/DTD/svg11.dtd">
<!-- Created with matplotlib (http://matplotlib.org/) -->
<svg height="345.6pt" version="1.1" viewBox="0 0 460.8 345.6" width="460.8pt" xmlns="http://www.w3.org/2000/svg" xmlns:xlink="http://www.w3.org/1999/xlink">
 <defs>
  <style type="text/css">
*{stroke-linecap:butt;stroke-linejoin:round;}
  </style>
 </defs>
 <g id="figure_1">
  <g id="patch_1">
   <path d="M 0 345.6 
L 460.8 345.6 
L 460.8 0 
L 0 0 
z
" style="fill:none;"/>
  </g>
  <g id="axes_1">
   <g id="patch_2">
    <path d="M 31.543 309.8635 
L 447.48 309.8635 
L 447.48 23.36505 
L 31.543 23.36505 
z
" style="fill:none;"/>
   </g>
   <g id="PolyCollection_1">
    <path clip-path="url(#p05b44a9f6d)" d="M 31.543 43.859013 
L 31.543 288.118452 
L 33.600123 296.756896 
L 35.45817 309.8635 
L 37.515293 309.8635 
L 39.506057 309.8635 
L 41.56318 309.8635 
L 43.553944 309.8635 
L 45.611067 309.8635 
L 47.66819 309.8635 
L 49.658954 309.8635 
L 51.716077 309.8635 
L 53.706841 309.8635 
L 55.763964 309.8635 
L 57.821087 309.8635 
L 59.679134 309.8635 
L 61.736257 309.8635 
L 63.727021 309.8635 
L 65.784144 309.8635 
L 67.774908 309.8635 
L 69.832031 309.8635 
L 71.889154 309.8635 
L 73.879919 309.8635 
L 75.937042 309.8635 
L 77.927806 309.8635 
L 79.984929 309.8635 
L 82.042052 309.8635 
L 83.900098 309.8635 
L 85.957221 309.8635 
L 87.947986 309.8635 
L 90.005109 309.8635 
L 91.995873 309.8635 
L 94.052996 309.8635 
L 96.110119 309.8635 
L 98.100883 309.8635 
L 100.158006 309.8635 
L 102.14877 309.8635 
L 104.205893 309.8635 
L 106.263016 309.8635 
L 108.187422 309.8635 
L 110.244545 309.8635 
L 112.235309 309.8635 
L 114.292432 309.8635 
L 116.283196 309.8635 
L 118.340319 309.8635 
L 120.397442 303.012321 
L 122.388206 309.8635 
L 124.445329 309.8635 
L 126.436093 309.8635 
L 128.493216 309.8635 
L 130.55034 309.8635 
L 132.408386 309.8635 
L 134.465509 309.8635 
L 136.456273 309.8635 
L 138.513396 309.8635 
L 140.50416 309.8635 
L 142.561284 309.8635 
L 144.618407 309.8635 
L 146.609171 309.8635 
L 148.666294 309.8635 
L 150.657058 309.8635 
L 152.714181 309.8635 
L 154.771304 309.8635 
L 156.629351 294.076 
L 158.686474 309.8635 
L 160.677238 309.8635 
L 162.734361 302.714443 
L 164.725125 301.225056 
L 166.782248 309.8635 
L 168.839371 309.8635 
L 170.830135 309.8635 
L 172.887258 309.8635 
L 174.878022 302.118689 
L 176.935145 309.8635 
L 178.992268 309.8635 
L 180.850315 309.8635 
L 182.907438 309.8635 
L 184.898202 309.8635 
L 186.955325 309.8635 
L 188.946089 309.8635 
L 191.003212 309.8635 
L 193.060335 309.8635 
L 195.0511 309.8635 
L 197.108223 309.8635 
L 199.098987 309.8635 
L 201.15611 309.8635 
L 203.213233 309.8635 
L 205.137638 309.8635 
L 207.194761 309.8635 
L 209.185525 309.8635 
L 211.242648 309.8635 
L 213.233413 301.225056 
L 215.290536 292.586613 
L 217.347659 301.225056 
L 219.338423 309.8635 
L 221.395546 309.8635 
L 223.38631 309.8635 
L 225.443433 309.8635 
L 227.500556 309.8635 
L 229.358603 309.8635 
L 231.415726 309.8635 
L 233.40649 309.8635 
L 235.463613 309.8635 
L 237.454377 309.8635 
L 239.5115 309.8635 
L 241.568623 309.8635 
L 243.559387 309.8635 
L 245.61651 309.8635 
L 247.607274 309.8635 
L 249.664397 309.8635 
L 251.72152 309.8635 
L 253.579567 309.8635 
L 255.63669 309.8635 
L 257.627454 309.8635 
L 259.684577 309.8635 
L 261.675341 309.8635 
L 263.732464 309.8635 
L 265.789587 309.8635 
L 267.780352 309.8635 
L 269.837475 309.8635 
L 271.828239 309.8635 
L 273.885362 309.8635 
L 275.942485 309.8635 
L 277.800531 309.8635 
L 279.857654 309.8635 
L 281.848419 309.8635 
L 283.905542 309.8635 
L 285.896306 309.8635 
L 287.953429 309.8635 
L 290.010552 309.8635 
L 292.001316 309.8635 
L 294.058439 309.8635 
L 296.049203 309.8635 
L 298.106326 309.8635 
L 300.163449 309.8635 
L 302.087855 309.8635 
L 304.144978 309.8635 
L 306.135742 309.8635 
L 308.192865 309.8635 
L 310.183629 309.8635 
L 312.240752 309.8635 
L 314.297875 309.8635 
L 316.288639 309.8635 
L 318.345762 309.8635 
L 320.336526 309.8635 
L 322.393649 309.8635 
L 324.450772 309.8635 
L 326.308819 309.8635 
L 328.365942 309.8635 
L 330.356706 309.8635 
L 332.413829 309.8635 
L 334.404593 309.8635 
L 336.461716 309.8635 
L 338.51884 309.8635 
L 340.509604 309.8635 
L 342.566727 309.8635 
L 344.557491 309.8635 
L 346.614614 309.8635 
L 348.671737 309.8635 
L 350.529784 309.8635 
L 352.586907 309.8635 
L 354.577671 309.8635 
L 356.634794 309.8635 
L 358.625558 309.8635 
L 360.682681 309.8635 
L 362.739804 309.8635 
L 364.730568 309.8635 
L 366.787691 309.8635 
L 368.778455 309.8635 
L 370.835578 309.8635 
L 372.892701 309.8635 
L 374.750748 309.8635 
L 376.807871 309.8635 
L 378.798635 309.8635 
L 380.855758 309.8635 
L 382.846522 309.8635 
L 384.903645 309.8635 
L 386.960768 309.8635 
L 388.951533 309.8635 
L 391.008656 309.8635 
L 392.99942 309.8635 
L 395.056543 309.8635 
L 397.113666 309.8635 
L 399.038071 309.8635 
L 401.095194 309.8635 
L 403.085958 309.8635 
L 405.143081 309.8635 
L 407.133846 309.8635 
L 409.190969 309.8635 
L 411.248092 309.8635 
L 413.238856 309.8635 
L 415.295979 309.8635 
L 417.286743 309.8635 
L 419.343866 309.8635 
L 421.400989 309.8635 
L 423.259036 309.8635 
L 425.316159 309.8635 
L 427.306923 309.8635 
L 429.364046 309.8635 
L 431.35481 309.8635 
L 433.411933 309.8635 
L 435.469056 309.8635 
L 437.45982 309.8635 
L 439.516943 309.8635 
L 441.507707 309.8635 
L 443.56483 309.8635 
L 445.621953 309.8635 
L 447.48 309.8635 
L 447.48 309.8635 
L 447.48 309.8635 
L 445.621953 309.8635 
L 443.56483 309.8635 
L 441.507707 298.842037 
L 439.516943 252.671046 
L 437.45982 111.179297 
L 435.469056 124.881656 
L 433.411933 112.072929 
L 431.35481 118.030477 
L 429.364046 115.051703 
L 427.306923 140.967034 
L 425.316159 308.671991 
L 423.259036 309.8635 
L 421.400989 261.607367 
L 419.343866 298.246283 
L 417.286743 263.096754 
L 415.295979 120.115618 
L 413.238856 117.136845 
L 411.248092 112.072929 
L 409.190969 111.179297 
L 407.133846 110.88142 
L 405.143081 112.072929 
L 403.085958 307.778358 
L 401.095194 210.670337 
L 399.038071 233.309017 
L 397.113666 309.8635 
L 395.056543 282.160905 
L 392.99942 309.8635 
L 391.008656 309.8635 
L 388.951533 142.456421 
L 386.960768 140.967034 
L 384.903645 148.116091 
L 382.846522 126.073166 
L 380.855758 119.519864 
L 378.798635 287.522698 
L 376.807871 216.925762 
L 374.750748 309.8635 
L 372.892701 309.8635 
L 370.835578 309.8635 
L 368.778455 182.07411 
L 366.787691 126.371043 
L 364.730568 119.817741 
L 362.739804 119.519864 
L 360.682681 142.456421 
L 358.625558 137.98826 
L 356.634794 123.690147 
L 354.577671 120.413496 
L 352.586907 204.414913 
L 350.529784 206.202177 
L 348.671737 210.968215 
L 346.614614 123.988024 
L 344.557491 191.308309 
L 342.566727 119.817741 
L 340.509604 147.520336 
L 338.51884 116.243213 
L 336.461716 163.903591 
L 334.404593 121.605005 
L 332.413829 111.477175 
L 330.356706 115.051703 
L 328.365942 284.543924 
L 326.308819 289.309962 
L 324.450772 233.904772 
L 322.393649 206.500054 
L 320.336526 218.415149 
L 318.345762 230.032366 
L 316.288639 112.370807 
L 314.297875 112.668684 
L 312.240752 111.477175 
L 310.183629 112.966561 
L 308.192865 217.223639 
L 306.135742 293.182368 
L 304.144978 299.437792 
L 302.087855 270.841565 
L 300.163449 285.437556 
L 298.106326 296.161141 
L 296.049203 309.8635 
L 294.058439 210.37246 
L 292.001316 218.713026 
L 290.010552 217.521517 
L 287.953429 116.54109 
L 285.896306 159.733308 
L 283.905542 263.394631 
L 281.848419 257.437084 
L 279.857654 224.074819 
L 277.800531 301.820811 
L 275.942485 281.863028 
L 273.885362 266.373405 
L 271.828239 230.032366 
L 269.837475 112.072929 
L 267.780352 112.072929 
L 265.789587 111.775052 
L 263.732464 111.775052 
L 261.675341 112.072929 
L 259.684577 221.6918 
L 257.627454 277.692745 
L 255.63669 188.627412 
L 253.579567 212.457602 
L 251.72152 309.8635 
L 249.664397 309.8635 
L 247.607274 248.500763 
L 245.61651 210.968215 
L 243.559387 210.37246 
L 241.568623 111.179297 
L 239.5115 111.775052 
L 237.454377 112.370807 
L 235.463613 113.860194 
L 233.40649 115.34958 
L 231.415726 210.670337 
L 229.358603 224.968451 
L 227.500556 234.798404 
L 225.443433 130.839203 
L 223.38631 121.307128 
L 221.395546 213.053356 
L 219.338423 111.775052 
L 217.347659 111.477175 
L 215.290536 114.753826 
L 213.233413 112.370807 
L 211.242648 119.817741 
L 209.185525 112.072929 
L 207.194761 112.370807 
L 205.137638 229.138734 
L 203.213233 309.8635 
L 201.15611 210.968215 
L 199.098987 212.159724 
L 197.108223 118.030477 
L 195.0511 111.775052 
L 193.060335 111.477175 
L 191.003212 110.583543 
L 188.946089 110.583543 
L 186.955325 110.88142 
L 184.898202 211.861847 
L 182.907438 278.586377 
L 180.850315 309.8635 
L 178.992268 241.053829 
L 176.935145 198.159488 
L 174.878022 112.668684 
L 172.887258 112.072929 
L 170.830135 296.459019 
L 168.839371 114.455948 
L 166.782248 112.072929 
L 164.725125 112.072929 
L 162.734361 112.370807 
L 160.677238 211.861847 
L 158.686474 141.562789 
L 156.629351 113.860194 
L 154.771304 112.370807 
L 152.714181 157.052412 
L 150.657058 111.775052 
L 148.666294 109.68991 
L 146.609171 113.860194 
L 144.618407 112.072929 
L 142.561284 112.370807 
L 140.50416 113.264439 
L 138.513396 113.264439 
L 136.456273 113.264439 
L 134.465509 309.8635 
L 132.408386 149.009723 
L 130.55034 121.307128 
L 128.493216 209.776705 
L 126.436093 294.373877 
L 124.445329 211.861847 
L 122.388206 244.032602 
L 120.397442 113.860194 
L 118.340319 210.968215 
L 116.283196 211.266092 
L 114.292432 309.8635 
L 112.235309 309.8635 
L 110.244545 309.8635 
L 108.187422 309.8635 
L 106.263016 309.8635 
L 104.205893 309.8635 
L 102.14877 309.8635 
L 100.158006 274.416094 
L 98.100883 140.371279 
L 96.110119 211.266092 
L 94.052996 113.264439 
L 91.995873 123.392269 
L 90.005109 194.882837 
L 87.947986 309.8635 
L 85.957221 270.543688 
L 83.900098 132.030713 
L 82.042052 215.138498 
L 79.984929 309.8635 
L 77.927806 219.606658 
L 75.937042 140.371279 
L 73.879919 214.84062 
L 71.889154 47.433541 
L 69.832031 74.242504 
L 67.774908 37.901465 
L 65.784144 37.007833 
L 63.727021 259.820103 
L 61.736257 283.948169 
L 59.679134 58.157126 
L 57.821087 149.605477 
L 55.763964 165.988733 
L 53.706841 130.243449 
L 51.716077 122.498637 
L 49.658954 122.20076 
L 47.66819 121.902882 
L 45.611067 48.922928 
L 43.553944 55.178353 
L 41.56318 98.072693 
L 39.506057 186.542271 
L 37.515293 233.904772 
L 35.45817 172.542035 
L 33.600123 171.648402 
L 31.543 43.859013 
z
" style="fill:#808080;fill-opacity:0.3;"/>
   </g>
   <g id="PolyCollection_2">
    <path clip-path="url(#p05b44a9f6d)" d="M 31.543 60.465676 
L 31.543 177.978296 
L 33.600123 237.181423 
L 35.45817 280.969396 
L 37.515293 309.8635 
L 39.506057 294.448346 
L 41.56318 302.416566 
L 43.553944 309.8635 
L 45.611067 266.969159 
L 47.66819 309.8635 
L 49.658954 309.8635 
L 51.716077 309.8635 
L 53.706841 309.8635 
L 55.763964 301.522934 
L 57.821087 309.8635 
L 59.679134 287.22482 
L 61.736257 309.8635 
L 63.727021 309.8635 
L 65.784144 309.8635 
L 67.774908 297.129243 
L 69.832031 309.8635 
L 71.889154 302.416566 
L 73.879919 309.8635 
L 75.937042 309.8635 
L 77.927806 309.8635 
L 79.984929 309.8635 
L 82.042052 309.8635 
L 83.900098 309.8635 
L 85.957221 309.8635 
L 87.947986 309.8635 
L 90.005109 309.8635 
L 91.995873 301.225056 
L 94.052996 301.820811 
L 96.110119 309.8635 
L 98.100883 309.8635 
L 100.158006 309.8635 
L 102.14877 309.8635 
L 104.205893 309.8635 
L 106.263016 309.8635 
L 108.187422 309.8635 
L 110.244545 309.8635 
L 112.235309 309.8635 
L 114.292432 309.8635 
L 116.283196 309.8635 
L 118.340319 302.416566 
L 120.397442 294.746224 
L 122.388206 309.8635 
L 124.445329 309.8635 
L 126.436093 309.8635 
L 128.493216 309.8635 
L 130.55034 301.522934 
L 132.408386 309.8635 
L 134.465509 309.8635 
L 136.456273 309.8635 
L 138.513396 309.8635 
L 140.50416 299.214384 
L 142.561284 301.820811 
L 144.618407 309.8635 
L 146.609171 300.927179 
L 148.666294 300.331424 
L 150.657058 291.990858 
L 152.714181 309.8635 
L 154.771304 309.8635 
L 156.629351 291.692981 
L 158.686474 300.331424 
L 160.677238 309.8635 
L 162.734361 299.73567 
L 164.725125 291.692981 
L 166.782248 300.927179 
L 168.839371 309.8635 
L 170.830135 309.8635 
L 172.887258 309.8635 
L 174.878022 291.990858 
L 176.935145 309.8635 
L 178.992268 309.8635 
L 180.850315 309.8635 
L 182.907438 309.8635 
L 184.898202 309.8635 
L 186.955325 309.8635 
L 188.946089 300.331424 
L 191.003212 292.88449 
L 193.060335 300.927179 
L 195.0511 309.8635 
L 197.108223 309.8635 
L 199.098987 309.8635 
L 201.15611 309.8635 
L 203.213233 309.8635 
L 205.137638 309.8635 
L 207.194761 309.8635 
L 209.185525 309.8635 
L 211.242648 287.22482 
L 213.233413 291.395103 
L 215.290536 288.490799 
L 217.347659 291.990858 
L 219.338423 300.405894 
L 221.395546 300.927179 
L 223.38631 300.927179 
L 225.443433 309.8635 
L 227.500556 309.8635 
L 229.358603 309.8635 
L 231.415726 309.8635 
L 233.40649 305.618748 
L 235.463613 309.8635 
L 237.454377 300.927179 
L 239.5115 309.8635 
L 241.568623 300.927179 
L 243.559387 309.8635 
L 245.61651 309.8635 
L 247.607274 309.8635 
L 249.664397 309.8635 
L 251.72152 309.8635 
L 253.579567 309.8635 
L 255.63669 309.8635 
L 257.627454 309.8635 
L 259.684577 309.8635 
L 261.675341 309.8635 
L 263.732464 309.8635 
L 265.789587 309.8635 
L 267.780352 309.8635 
L 269.837475 309.8635 
L 271.828239 309.8635 
L 273.885362 309.8635 
L 275.942485 309.8635 
L 277.800531 309.8635 
L 279.857654 309.8635 
L 281.848419 309.8635 
L 283.905542 309.8635 
L 285.896306 309.8635 
L 287.953429 309.8635 
L 290.010552 309.8635 
L 292.001316 309.8635 
L 294.058439 309.8635 
L 296.049203 309.8635 
L 298.106326 309.8635 
L 300.163449 309.8635 
L 302.087855 309.8635 
L 304.144978 309.8635 
L 306.135742 309.8635 
L 308.192865 309.8635 
L 310.183629 309.8635 
L 312.240752 309.8635 
L 314.297875 309.8635 
L 316.288639 309.8635 
L 318.345762 309.8635 
L 320.336526 309.8635 
L 322.393649 309.8635 
L 324.450772 309.8635 
L 326.308819 309.8635 
L 328.365942 309.8635 
L 330.356706 309.8635 
L 332.413829 309.8635 
L 334.404593 309.8635 
L 336.461716 309.8635 
L 338.51884 309.8635 
L 340.509604 309.8635 
L 342.566727 309.8635 
L 344.557491 309.8635 
L 346.614614 309.8635 
L 348.671737 309.8635 
L 350.529784 309.8635 
L 352.586907 309.8635 
L 354.577671 309.8635 
L 356.634794 309.8635 
L 358.625558 309.8635 
L 360.682681 309.8635 
L 362.739804 309.8635 
L 364.730568 309.8635 
L 366.787691 309.8635 
L 368.778455 309.8635 
L 370.835578 309.8635 
L 372.892701 309.8635 
L 374.750748 309.8635 
L 376.807871 309.8635 
L 378.798635 309.8635 
L 380.855758 309.8635 
L 382.846522 309.8635 
L 384.903645 309.8635 
L 386.960768 309.8635 
L 388.951533 309.8635 
L 391.008656 309.8635 
L 392.99942 309.8635 
L 395.056543 309.8635 
L 397.113666 309.8635 
L 399.038071 309.8635 
L 401.095194 309.8635 
L 403.085958 309.8635 
L 405.143081 309.8635 
L 407.133846 309.8635 
L 409.190969 309.8635 
L 411.248092 309.8635 
L 413.238856 309.8635 
L 415.295979 309.8635 
L 417.286743 309.8635 
L 419.343866 309.8635 
L 421.400989 309.8635 
L 423.259036 309.8635 
L 425.316159 309.8635 
L 427.306923 309.8635 
L 429.364046 309.8635 
L 431.35481 309.8635 
L 433.411933 309.8635 
L 435.469056 309.8635 
L 437.45982 309.8635 
L 439.516943 309.8635 
L 441.507707 309.8635 
L 443.56483 309.8635 
L 445.621953 309.8635 
L 447.48 309.8635 
L 447.48 309.8635 
L 447.48 309.8635 
L 445.621953 309.8635 
L 443.56483 309.8635 
L 441.507707 309.8635 
L 439.516943 309.8635 
L 437.45982 309.8635 
L 435.469056 309.8635 
L 433.411933 300.629302 
L 431.35481 309.8635 
L 429.364046 300.927179 
L 427.306923 309.8635 
L 425.316159 309.8635 
L 423.259036 309.8635 
L 421.400989 309.8635 
L 419.343866 309.8635 
L 417.286743 309.8635 
L 415.295979 307.703889 
L 413.238856 300.927179 
L 411.248092 309.8635 
L 409.190969 309.8635 
L 407.133846 309.8635 
L 405.143081 309.8635 
L 403.085958 309.8635 
L 401.095194 309.8635 
L 399.038071 309.8635 
L 397.113666 309.8635 
L 395.056543 309.8635 
L 392.99942 309.8635 
L 391.008656 309.8635 
L 388.951533 309.8635 
L 386.960768 301.89528 
L 384.903645 300.927179 
L 382.846522 300.927179 
L 380.855758 300.927179 
L 378.798635 309.8635 
L 376.807871 309.8635 
L 374.750748 309.8635 
L 372.892701 309.8635 
L 370.835578 309.8635 
L 368.778455 309.8635 
L 366.787691 301.820811 
L 364.730568 308.523052 
L 362.739804 300.629302 
L 360.682681 309.8635 
L 358.625558 295.565386 
L 356.634794 309.8635 
L 354.577671 309.8635 
L 352.586907 309.8635 
L 350.529784 300.629302 
L 348.671737 301.225056 
L 346.614614 300.927179 
L 344.557491 300.629302 
L 342.566727 288.41633 
L 340.509604 309.8635 
L 338.51884 309.8635 
L 336.461716 299.959078 
L 334.404593 291.692981 
L 332.413829 291.097226 
L 330.356706 306.810257 
L 328.365942 309.8635 
L 326.308819 309.8635 
L 324.450772 300.927179 
L 322.393649 300.629302 
L 320.336526 309.8635 
L 318.345762 309.8635 
L 316.288639 291.990858 
L 314.297875 286.852474 
L 312.240752 263.692508 
L 310.183629 309.8635 
L 308.192865 309.8635 
L 306.135742 309.8635 
L 304.144978 309.8635 
L 302.087855 309.8635 
L 300.163449 309.8635 
L 298.106326 309.8635 
L 296.049203 309.8635 
L 294.058439 309.8635 
L 292.001316 309.8635 
L 290.010552 300.927179 
L 287.953429 291.395103 
L 285.896306 300.331424 
L 283.905542 309.8635 
L 281.848419 309.8635 
L 279.857654 309.8635 
L 277.800531 309.8635 
L 275.942485 300.629302 
L 273.885362 309.8635 
L 271.828239 309.8635 
L 269.837475 300.927179 
L 267.780352 309.8635 
L 265.789587 291.692981 
L 263.732464 309.8635 
L 261.675341 291.692981 
L 259.684577 309.8635 
L 257.627454 309.8635 
L 255.63669 309.8635 
L 253.579567 309.8635 
L 251.72152 309.8635 
L 249.664397 309.8635 
L 247.607274 309.8635 
L 245.61651 309.8635 
L 243.559387 299.437792 
L 241.568623 254.160433 
L 239.5115 286.554596 
L 237.454377 286.629066 
L 235.463613 309.8635 
L 233.40649 286.331188 
L 231.415726 286.331188 
L 229.358603 309.8635 
L 227.500556 300.927179 
L 225.443433 285.735433 
L 223.38631 279.405539 
L 221.395546 284.543924 
L 219.338423 219.010904 
L 217.347659 233.234548 
L 215.290536 210.000113 
L 213.233413 247.234784 
L 211.242648 249.91568 
L 209.185525 264.213794 
L 207.194761 309.8635 
L 205.137638 309.8635 
L 203.213233 309.8635 
L 201.15611 309.8635 
L 199.098987 309.8635 
L 197.108223 289.756778 
L 195.0511 186.765679 
L 193.060335 282.384313 
L 191.003212 210.37246 
L 188.946089 263.320162 
L 186.955325 279.405539 
L 184.898202 309.8635 
L 182.907438 309.8635 
L 180.850315 309.8635 
L 178.992268 309.8635 
L 176.935145 291.692981 
L 174.878022 262.798876 
L 172.887258 263.394631 
L 170.830135 309.8635 
L 168.839371 286.629066 
L 166.782248 286.926943 
L 164.725125 223.181187 
L 162.734361 265.181895 
L 160.677238 287.522698 
L 158.686474 255.798758 
L 156.629351 262.798876 
L 154.771304 262.798876 
L 152.714181 288.043983 
L 150.657058 262.798876 
L 148.666294 262.500999 
L 146.609171 286.852474 
L 144.618407 290.427002 
L 142.561284 268.681954 
L 140.50416 248.202885 
L 138.513396 261.532897 
L 136.456273 268.0862 
L 134.465509 309.8635 
L 132.408386 301.150587 
L 130.55034 262.724407 
L 128.493216 286.331188 
L 126.436093 309.8635 
L 124.445329 309.8635 
L 122.388206 309.8635 
L 120.397442 247.607131 
L 118.340319 266.969159 
L 116.283196 274.937379 
L 114.292432 309.8635 
L 112.235309 309.8635 
L 110.244545 309.8635 
L 108.187422 309.8635 
L 106.263016 309.8635 
L 104.205893 309.8635 
L 102.14877 309.8635 
L 100.158006 309.8635 
L 98.100883 309.8635 
L 96.110119 299.73567 
L 94.052996 284.841801 
L 91.995873 229.287673 
L 90.005109 301.820811 
L 87.947986 309.8635 
L 85.957221 309.8635 
L 83.900098 294.671754 
L 82.042052 309.8635 
L 79.984929 309.8635 
L 77.927806 295.565386 
L 75.937042 302.118689 
L 73.879919 309.8635 
L 71.889154 244.553888 
L 69.832031 235.543097 
L 67.774908 158.541798 
L 65.784144 241.575114 
L 63.727021 309.8635 
L 61.736257 309.8635 
L 59.679134 211.861847 
L 57.821087 234.351588 
L 55.763964 245.745397 
L 53.706841 263.915916 
L 51.716077 270.394749 
L 49.658954 257.139206 
L 47.66819 182.371988 
L 45.611067 143.64793 
L 43.553944 158.467329 
L 41.56318 216.627885 
L 39.506057 237.702708 
L 37.515293 294.299408 
L 35.45817 211.861847 
L 33.600123 174.031421 
L 31.543 60.465676 
z
" style="fill:#808080;fill-opacity:0.6;"/>
   </g>
   <g id="matplotlib.axis_1">
    <g id="xtick_1">
     <g id="line2d_1">
      <path clip-path="url(#p05b44a9f6d)" d="M 31.543 309.8635 
L 31.543 23.36505 
" style="fill:none;stroke:#b0b0b0;stroke-linecap:square;stroke-width:0.8;"/>
     </g>
     <g id="line2d_2">
      <defs>
       <path d="M 0 0 
L 0 3.5 
" id="m1d145e0bc1" style="stroke:#000000;stroke-width:0.8;"/>
      </defs>
      <g>
       <use style="stroke:#000000;stroke-width:0.8;" x="31.543" xlink:href="#m1d145e0bc1" y="309.8635"/>
      </g>
     </g>
     <g id="text_1">
      <!-- 2001 -->
      <defs>
       <path d="M 19.1875 8.296875 
L 53.609375 8.296875 
L 53.609375 0 
L 7.328125 0 
L 7.328125 8.296875 
Q 12.9375 14.109375 22.625 23.890625 
Q 32.328125 33.6875 34.8125 36.53125 
Q 39.546875 41.84375 41.421875 45.53125 
Q 43.3125 49.21875 43.3125 52.78125 
Q 43.3125 58.59375 39.234375 62.25 
Q 35.15625 65.921875 28.609375 65.921875 
Q 23.96875 65.921875 18.8125 64.3125 
Q 13.671875 62.703125 7.8125 59.421875 
L 7.8125 69.390625 
Q 13.765625 71.78125 18.9375 73 
Q 24.125 74.21875 28.421875 74.21875 
Q 39.75 74.21875 46.484375 68.546875 
Q 53.21875 62.890625 53.21875 53.421875 
Q 53.21875 48.921875 51.53125 44.890625 
Q 49.859375 40.875 45.40625 35.40625 
Q 44.1875 33.984375 37.640625 27.21875 
Q 31.109375 20.453125 19.1875 8.296875 
z
" id="DejaVuSans-32"/>
       <path d="M 31.78125 66.40625 
Q 24.171875 66.40625 20.328125 58.90625 
Q 16.5 51.421875 16.5 36.375 
Q 16.5 21.390625 20.328125 13.890625 
Q 24.171875 6.390625 31.78125 6.390625 
Q 39.453125 6.390625 43.28125 13.890625 
Q 47.125 21.390625 47.125 36.375 
Q 47.125 51.421875 43.28125 58.90625 
Q 39.453125 66.40625 31.78125 66.40625 
z
M 31.78125 74.21875 
Q 44.046875 74.21875 50.515625 64.515625 
Q 56.984375 54.828125 56.984375 36.375 
Q 56.984375 17.96875 50.515625 8.265625 
Q 44.046875 -1.421875 31.78125 -1.421875 
Q 19.53125 -1.421875 13.0625 8.265625 
Q 6.59375 17.96875 6.59375 36.375 
Q 6.59375 54.828125 13.0625 64.515625 
Q 19.53125 74.21875 31.78125 74.21875 
z
" id="DejaVuSans-30"/>
       <path d="M 12.40625 8.296875 
L 28.515625 8.296875 
L 28.515625 63.921875 
L 10.984375 60.40625 
L 10.984375 69.390625 
L 28.421875 72.90625 
L 38.28125 72.90625 
L 38.28125 8.296875 
L 54.390625 8.296875 
L 54.390625 0 
L 12.40625 0 
z
" id="DejaVuSans-31"/>
      </defs>
      <g transform="translate(18.818 324.461937)scale(0.1 -0.1)">
       <use xlink:href="#DejaVuSans-32"/>
       <use x="63.623047" xlink:href="#DejaVuSans-30"/>
       <use x="127.246094" xlink:href="#DejaVuSans-30"/>
       <use x="190.869141" xlink:href="#DejaVuSans-31"/>
      </g>
     </g>
    </g>
    <g id="xtick_2">
     <g id="line2d_3">
      <path clip-path="url(#p05b44a9f6d)" d="M 79.984929 309.8635 
L 79.984929 23.36505 
" style="fill:none;stroke:#b0b0b0;stroke-linecap:square;stroke-width:0.8;"/>
     </g>
     <g id="line2d_4">
      <g>
       <use style="stroke:#000000;stroke-width:0.8;" x="79.984929" xlink:href="#m1d145e0bc1" y="309.8635"/>
      </g>
     </g>
     <g id="text_2">
      <!-- 2003 -->
      <defs>
       <path d="M 40.578125 39.3125 
Q 47.65625 37.796875 51.625 33 
Q 55.609375 28.21875 55.609375 21.1875 
Q 55.609375 10.40625 48.1875 4.484375 
Q 40.765625 -1.421875 27.09375 -1.421875 
Q 22.515625 -1.421875 17.65625 -0.515625 
Q 12.796875 0.390625 7.625 2.203125 
L 7.625 11.71875 
Q 11.71875 9.328125 16.59375 8.109375 
Q 21.484375 6.890625 26.8125 6.890625 
Q 36.078125 6.890625 40.9375 10.546875 
Q 45.796875 14.203125 45.796875 21.1875 
Q 45.796875 27.640625 41.28125 31.265625 
Q 36.765625 34.90625 28.71875 34.90625 
L 20.21875 34.90625 
L 20.21875 43.015625 
L 29.109375 43.015625 
Q 36.375 43.015625 40.234375 45.921875 
Q 44.09375 48.828125 44.09375 54.296875 
Q 44.09375 59.90625 40.109375 62.90625 
Q 36.140625 65.921875 28.71875 65.921875 
Q 24.65625 65.921875 20.015625 65.03125 
Q 15.375 64.15625 9.8125 62.3125 
L 9.8125 71.09375 
Q 15.4375 72.65625 20.34375 73.4375 
Q 25.25 74.21875 29.59375 74.21875 
Q 40.828125 74.21875 47.359375 69.109375 
Q 53.90625 64.015625 53.90625 55.328125 
Q 53.90625 49.265625 50.4375 45.09375 
Q 46.96875 40.921875 40.578125 39.3125 
z
" id="DejaVuSans-33"/>
      </defs>
      <g transform="translate(67.259929 324.461937)scale(0.1 -0.1)">
       <use xlink:href="#DejaVuSans-32"/>
       <use x="63.623047" xlink:href="#DejaVuSans-30"/>
       <use x="127.246094" xlink:href="#DejaVuSans-30"/>
       <use x="190.869141" xlink:href="#DejaVuSans-33"/>
      </g>
     </g>
    </g>
    <g id="xtick_3">
     <g id="line2d_5">
      <path clip-path="url(#p05b44a9f6d)" d="M 128.493216 309.8635 
L 128.493216 23.36505 
" style="fill:none;stroke:#b0b0b0;stroke-linecap:square;stroke-width:0.8;"/>
     </g>
     <g id="line2d_6">
      <g>
       <use style="stroke:#000000;stroke-width:0.8;" x="128.493216" xlink:href="#m1d145e0bc1" y="309.8635"/>
      </g>
     </g>
     <g id="text_3">
      <!-- 2005 -->
      <defs>
       <path d="M 10.796875 72.90625 
L 49.515625 72.90625 
L 49.515625 64.59375 
L 19.828125 64.59375 
L 19.828125 46.734375 
Q 21.96875 47.46875 24.109375 47.828125 
Q 26.265625 48.1875 28.421875 48.1875 
Q 40.625 48.1875 47.75 41.5 
Q 54.890625 34.8125 54.890625 23.390625 
Q 54.890625 11.625 47.5625 5.09375 
Q 40.234375 -1.421875 26.90625 -1.421875 
Q 22.3125 -1.421875 17.546875 -0.640625 
Q 12.796875 0.140625 7.71875 1.703125 
L 7.71875 11.625 
Q 12.109375 9.234375 16.796875 8.0625 
Q 21.484375 6.890625 26.703125 6.890625 
Q 35.15625 6.890625 40.078125 11.328125 
Q 45.015625 15.765625 45.015625 23.390625 
Q 45.015625 31 40.078125 35.4375 
Q 35.15625 39.890625 26.703125 39.890625 
Q 22.75 39.890625 18.8125 39.015625 
Q 14.890625 38.140625 10.796875 36.28125 
z
" id="DejaVuSans-35"/>
      </defs>
      <g transform="translate(115.768216 324.461937)scale(0.1 -0.1)">
       <use xlink:href="#DejaVuSans-32"/>
       <use x="63.623047" xlink:href="#DejaVuSans-30"/>
       <use x="127.246094" xlink:href="#DejaVuSans-30"/>
       <use x="190.869141" xlink:href="#DejaVuSans-35"/>
      </g>
     </g>
    </g>
    <g id="xtick_4">
     <g id="line2d_7">
      <path clip-path="url(#p05b44a9f6d)" d="M 176.935145 309.8635 
L 176.935145 23.36505 
" style="fill:none;stroke:#b0b0b0;stroke-linecap:square;stroke-width:0.8;"/>
     </g>
     <g id="line2d_8">
      <g>
       <use style="stroke:#000000;stroke-width:0.8;" x="176.935145" xlink:href="#m1d145e0bc1" y="309.8635"/>
      </g>
     </g>
     <g id="text_4">
      <!-- 2007 -->
      <defs>
       <path d="M 8.203125 72.90625 
L 55.078125 72.90625 
L 55.078125 68.703125 
L 28.609375 0 
L 18.3125 0 
L 43.21875 64.59375 
L 8.203125 64.59375 
z
" id="DejaVuSans-37"/>
      </defs>
      <g transform="translate(164.210145 324.461937)scale(0.1 -0.1)">
       <use xlink:href="#DejaVuSans-32"/>
       <use x="63.623047" xlink:href="#DejaVuSans-30"/>
       <use x="127.246094" xlink:href="#DejaVuSans-30"/>
       <use x="190.869141" xlink:href="#DejaVuSans-37"/>
      </g>
     </g>
    </g>
    <g id="xtick_5">
     <g id="line2d_9">
      <path clip-path="url(#p05b44a9f6d)" d="M 225.443433 309.8635 
L 225.443433 23.36505 
" style="fill:none;stroke:#b0b0b0;stroke-linecap:square;stroke-width:0.8;"/>
     </g>
     <g id="line2d_10">
      <g>
       <use style="stroke:#000000;stroke-width:0.8;" x="225.443433" xlink:href="#m1d145e0bc1" y="309.8635"/>
      </g>
     </g>
     <g id="text_5">
      <!-- 2009 -->
      <defs>
       <path d="M 10.984375 1.515625 
L 10.984375 10.5 
Q 14.703125 8.734375 18.5 7.8125 
Q 22.3125 6.890625 25.984375 6.890625 
Q 35.75 6.890625 40.890625 13.453125 
Q 46.046875 20.015625 46.78125 33.40625 
Q 43.953125 29.203125 39.59375 26.953125 
Q 35.25 24.703125 29.984375 24.703125 
Q 19.046875 24.703125 12.671875 31.3125 
Q 6.296875 37.9375 6.296875 49.421875 
Q 6.296875 60.640625 12.9375 67.421875 
Q 19.578125 74.21875 30.609375 74.21875 
Q 43.265625 74.21875 49.921875 64.515625 
Q 56.59375 54.828125 56.59375 36.375 
Q 56.59375 19.140625 48.40625 8.859375 
Q 40.234375 -1.421875 26.421875 -1.421875 
Q 22.703125 -1.421875 18.890625 -0.6875 
Q 15.09375 0.046875 10.984375 1.515625 
z
M 30.609375 32.421875 
Q 37.25 32.421875 41.125 36.953125 
Q 45.015625 41.5 45.015625 49.421875 
Q 45.015625 57.28125 41.125 61.84375 
Q 37.25 66.40625 30.609375 66.40625 
Q 23.96875 66.40625 20.09375 61.84375 
Q 16.21875 57.28125 16.21875 49.421875 
Q 16.21875 41.5 20.09375 36.953125 
Q 23.96875 32.421875 30.609375 32.421875 
z
" id="DejaVuSans-39"/>
      </defs>
      <g transform="translate(212.718433 324.461937)scale(0.1 -0.1)">
       <use xlink:href="#DejaVuSans-32"/>
       <use x="63.623047" xlink:href="#DejaVuSans-30"/>
       <use x="127.246094" xlink:href="#DejaVuSans-30"/>
       <use x="190.869141" xlink:href="#DejaVuSans-39"/>
      </g>
     </g>
    </g>
    <g id="xtick_6">
     <g id="line2d_11">
      <path clip-path="url(#p05b44a9f6d)" d="M 273.885362 309.8635 
L 273.885362 23.36505 
" style="fill:none;stroke:#b0b0b0;stroke-linecap:square;stroke-width:0.8;"/>
     </g>
     <g id="line2d_12">
      <g>
       <use style="stroke:#000000;stroke-width:0.8;" x="273.885362" xlink:href="#m1d145e0bc1" y="309.8635"/>
      </g>
     </g>
     <g id="text_6">
      <!-- 2011 -->
      <g transform="translate(261.160362 324.461937)scale(0.1 -0.1)">
       <use xlink:href="#DejaVuSans-32"/>
       <use x="63.623047" xlink:href="#DejaVuSans-30"/>
       <use x="127.246094" xlink:href="#DejaVuSans-31"/>
       <use x="190.869141" xlink:href="#DejaVuSans-31"/>
      </g>
     </g>
    </g>
    <g id="xtick_7">
     <g id="line2d_13">
      <path clip-path="url(#p05b44a9f6d)" d="M 322.393649 309.8635 
L 322.393649 23.36505 
" style="fill:none;stroke:#b0b0b0;stroke-linecap:square;stroke-width:0.8;"/>
     </g>
     <g id="line2d_14">
      <g>
       <use style="stroke:#000000;stroke-width:0.8;" x="322.393649" xlink:href="#m1d145e0bc1" y="309.8635"/>
      </g>
     </g>
     <g id="text_7">
      <!-- 2013 -->
      <g transform="translate(309.668649 324.461937)scale(0.1 -0.1)">
       <use xlink:href="#DejaVuSans-32"/>
       <use x="63.623047" xlink:href="#DejaVuSans-30"/>
       <use x="127.246094" xlink:href="#DejaVuSans-31"/>
       <use x="190.869141" xlink:href="#DejaVuSans-33"/>
      </g>
     </g>
    </g>
    <g id="xtick_8">
     <g id="line2d_15">
      <path clip-path="url(#p05b44a9f6d)" d="M 370.835578 309.8635 
L 370.835578 23.36505 
" style="fill:none;stroke:#b0b0b0;stroke-linecap:square;stroke-width:0.8;"/>
     </g>
     <g id="line2d_16">
      <g>
       <use style="stroke:#000000;stroke-width:0.8;" x="370.835578" xlink:href="#m1d145e0bc1" y="309.8635"/>
      </g>
     </g>
     <g id="text_8">
      <!-- 2015 -->
      <g transform="translate(358.110578 324.461937)scale(0.1 -0.1)">
       <use xlink:href="#DejaVuSans-32"/>
       <use x="63.623047" xlink:href="#DejaVuSans-30"/>
       <use x="127.246094" xlink:href="#DejaVuSans-31"/>
       <use x="190.869141" xlink:href="#DejaVuSans-35"/>
      </g>
     </g>
    </g>
    <g id="xtick_9">
     <g id="line2d_17">
      <path clip-path="url(#p05b44a9f6d)" d="M 419.343866 309.8635 
L 419.343866 23.36505 
" style="fill:none;stroke:#b0b0b0;stroke-linecap:square;stroke-width:0.8;"/>
     </g>
     <g id="line2d_18">
      <g>
       <use style="stroke:#000000;stroke-width:0.8;" x="419.343866" xlink:href="#m1d145e0bc1" y="309.8635"/>
      </g>
     </g>
     <g id="text_9">
      <!-- 2017 -->
      <g transform="translate(406.618866 324.461937)scale(0.1 -0.1)">
       <use xlink:href="#DejaVuSans-32"/>
       <use x="63.623047" xlink:href="#DejaVuSans-30"/>
       <use x="127.246094" xlink:href="#DejaVuSans-31"/>
       <use x="190.869141" xlink:href="#DejaVuSans-37"/>
      </g>
     </g>
    </g>
    <g id="text_10">
     <!-- Date -->
     <defs>
      <path d="M 19.671875 64.796875 
L 19.671875 8.109375 
L 31.59375 8.109375 
Q 46.6875 8.109375 53.6875 14.9375 
Q 60.6875 21.78125 60.6875 36.53125 
Q 60.6875 51.171875 53.6875 57.984375 
Q 46.6875 64.796875 31.59375 64.796875 
z
M 9.8125 72.90625 
L 30.078125 72.90625 
Q 51.265625 72.90625 61.171875 64.09375 
Q 71.09375 55.28125 71.09375 36.53125 
Q 71.09375 17.671875 61.125 8.828125 
Q 51.171875 0 30.078125 0 
L 9.8125 0 
z
" id="DejaVuSans-44"/>
      <path d="M 34.28125 27.484375 
Q 23.390625 27.484375 19.1875 25 
Q 14.984375 22.515625 14.984375 16.5 
Q 14.984375 11.71875 18.140625 8.90625 
Q 21.296875 6.109375 26.703125 6.109375 
Q 34.1875 6.109375 38.703125 11.40625 
Q 43.21875 16.703125 43.21875 25.484375 
L 43.21875 27.484375 
z
M 52.203125 31.203125 
L 52.203125 0 
L 43.21875 0 
L 43.21875 8.296875 
Q 40.140625 3.328125 35.546875 0.953125 
Q 30.953125 -1.421875 24.3125 -1.421875 
Q 15.921875 -1.421875 10.953125 3.296875 
Q 6 8.015625 6 15.921875 
Q 6 25.140625 12.171875 29.828125 
Q 18.359375 34.515625 30.609375 34.515625 
L 43.21875 34.515625 
L 43.21875 35.40625 
Q 43.21875 41.609375 39.140625 45 
Q 35.0625 48.390625 27.6875 48.390625 
Q 23 48.390625 18.546875 47.265625 
Q 14.109375 46.140625 10.015625 43.890625 
L 10.015625 52.203125 
Q 14.9375 54.109375 19.578125 55.046875 
Q 24.21875 56 28.609375 56 
Q 40.484375 56 46.34375 49.84375 
Q 52.203125 43.703125 52.203125 31.203125 
z
" id="DejaVuSans-61"/>
      <path d="M 18.3125 70.21875 
L 18.3125 54.6875 
L 36.8125 54.6875 
L 36.8125 47.703125 
L 18.3125 47.703125 
L 18.3125 18.015625 
Q 18.3125 11.328125 20.140625 9.421875 
Q 21.96875 7.515625 27.59375 7.515625 
L 36.8125 7.515625 
L 36.8125 0 
L 27.59375 0 
Q 17.1875 0 13.234375 3.875 
Q 9.28125 7.765625 9.28125 18.015625 
L 9.28125 47.703125 
L 2.6875 47.703125 
L 2.6875 54.6875 
L 9.28125 54.6875 
L 9.28125 70.21875 
z
" id="DejaVuSans-74"/>
      <path d="M 56.203125 29.59375 
L 56.203125 25.203125 
L 14.890625 25.203125 
Q 15.484375 15.921875 20.484375 11.0625 
Q 25.484375 6.203125 34.421875 6.203125 
Q 39.59375 6.203125 44.453125 7.46875 
Q 49.3125 8.734375 54.109375 11.28125 
L 54.109375 2.78125 
Q 49.265625 0.734375 44.1875 -0.34375 
Q 39.109375 -1.421875 33.890625 -1.421875 
Q 20.796875 -1.421875 13.15625 6.1875 
Q 5.515625 13.8125 5.515625 26.8125 
Q 5.515625 40.234375 12.765625 48.109375 
Q 20.015625 56 32.328125 56 
Q 43.359375 56 49.78125 48.890625 
Q 56.203125 41.796875 56.203125 29.59375 
z
M 47.21875 32.234375 
Q 47.125 39.59375 43.09375 43.984375 
Q 39.0625 48.390625 32.421875 48.390625 
Q 24.90625 48.390625 20.390625 44.140625 
Q 15.875 39.890625 15.1875 32.171875 
z
" id="DejaVuSans-65"/>
     </defs>
     <g transform="translate(227.560719 338.140062)scale(0.1 -0.1)">
      <use xlink:href="#DejaVuSans-44"/>
      <use x="77.001953" xlink:href="#DejaVuSans-61"/>
      <use x="138.28125" xlink:href="#DejaVuSans-74"/>
      <use x="177.490234" xlink:href="#DejaVuSans-65"/>
     </g>
    </g>
   </g>
   <g id="matplotlib.axis_2">
    <g id="ytick_1">
     <g id="line2d_19">
      <path clip-path="url(#p05b44a9f6d)" d="M 31.543 309.8635 
L 447.48 309.8635 
" style="fill:none;stroke:#b0b0b0;stroke-linecap:square;stroke-width:0.8;"/>
     </g>
     <g id="line2d_20">
      <defs>
       <path d="M 0 0 
L -3.5 0 
" id="m2c06078cec" style="stroke:#000000;stroke-width:0.8;"/>
      </defs>
      <g>
       <use style="stroke:#000000;stroke-width:0.8;" x="31.543" xlink:href="#m2c06078cec" y="309.8635"/>
      </g>
     </g>
     <g id="text_11">
      <!-- 0 -->
      <g transform="translate(18.1805 313.662719)scale(0.1 -0.1)">
       <use xlink:href="#DejaVuSans-30"/>
      </g>
     </g>
    </g>
    <g id="ytick_2">
     <g id="line2d_21">
      <path clip-path="url(#p05b44a9f6d)" d="M 31.543 250.288027 
L 447.48 250.288027 
" style="fill:none;stroke:#b0b0b0;stroke-linecap:square;stroke-width:0.8;"/>
     </g>
     <g id="line2d_22">
      <g>
       <use style="stroke:#000000;stroke-width:0.8;" x="31.543" xlink:href="#m2c06078cec" y="250.288027"/>
      </g>
     </g>
     <g id="text_12">
      <!-- 200 -->
      <g transform="translate(5.4555 254.087246)scale(0.1 -0.1)">
       <use xlink:href="#DejaVuSans-32"/>
       <use x="63.623047" xlink:href="#DejaVuSans-30"/>
       <use x="127.246094" xlink:href="#DejaVuSans-30"/>
      </g>
     </g>
    </g>
    <g id="ytick_3">
     <g id="line2d_23">
      <path clip-path="url(#p05b44a9f6d)" d="M 31.543 190.712554 
L 447.48 190.712554 
" style="fill:none;stroke:#b0b0b0;stroke-linecap:square;stroke-width:0.8;"/>
     </g>
     <g id="line2d_24">
      <g>
       <use style="stroke:#000000;stroke-width:0.8;" x="31.543" xlink:href="#m2c06078cec" y="190.712554"/>
      </g>
     </g>
     <g id="text_13">
      <!-- 400 -->
      <defs>
       <path d="M 37.796875 64.3125 
L 12.890625 25.390625 
L 37.796875 25.390625 
z
M 35.203125 72.90625 
L 47.609375 72.90625 
L 47.609375 25.390625 
L 58.015625 25.390625 
L 58.015625 17.1875 
L 47.609375 17.1875 
L 47.609375 0 
L 37.796875 0 
L 37.796875 17.1875 
L 4.890625 17.1875 
L 4.890625 26.703125 
z
" id="DejaVuSans-34"/>
      </defs>
      <g transform="translate(5.4555 194.511773)scale(0.1 -0.1)">
       <use xlink:href="#DejaVuSans-34"/>
       <use x="63.623047" xlink:href="#DejaVuSans-30"/>
       <use x="127.246094" xlink:href="#DejaVuSans-30"/>
      </g>
     </g>
    </g>
    <g id="ytick_4">
     <g id="line2d_25">
      <path clip-path="url(#p05b44a9f6d)" d="M 31.543 131.137081 
L 447.48 131.137081 
" style="fill:none;stroke:#b0b0b0;stroke-linecap:square;stroke-width:0.8;"/>
     </g>
     <g id="line2d_26">
      <g>
       <use style="stroke:#000000;stroke-width:0.8;" x="31.543" xlink:href="#m2c06078cec" y="131.137081"/>
      </g>
     </g>
     <g id="text_14">
      <!-- 600 -->
      <defs>
       <path d="M 33.015625 40.375 
Q 26.375 40.375 22.484375 35.828125 
Q 18.609375 31.296875 18.609375 23.390625 
Q 18.609375 15.53125 22.484375 10.953125 
Q 26.375 6.390625 33.015625 6.390625 
Q 39.65625 6.390625 43.53125 10.953125 
Q 47.40625 15.53125 47.40625 23.390625 
Q 47.40625 31.296875 43.53125 35.828125 
Q 39.65625 40.375 33.015625 40.375 
z
M 52.59375 71.296875 
L 52.59375 62.3125 
Q 48.875 64.0625 45.09375 64.984375 
Q 41.3125 65.921875 37.59375 65.921875 
Q 27.828125 65.921875 22.671875 59.328125 
Q 17.53125 52.734375 16.796875 39.40625 
Q 19.671875 43.65625 24.015625 45.921875 
Q 28.375 48.1875 33.59375 48.1875 
Q 44.578125 48.1875 50.953125 41.515625 
Q 57.328125 34.859375 57.328125 23.390625 
Q 57.328125 12.15625 50.6875 5.359375 
Q 44.046875 -1.421875 33.015625 -1.421875 
Q 20.359375 -1.421875 13.671875 8.265625 
Q 6.984375 17.96875 6.984375 36.375 
Q 6.984375 53.65625 15.1875 63.9375 
Q 23.390625 74.21875 37.203125 74.21875 
Q 40.921875 74.21875 44.703125 73.484375 
Q 48.484375 72.75 52.59375 71.296875 
z
" id="DejaVuSans-36"/>
      </defs>
      <g transform="translate(5.4555 134.9363)scale(0.1 -0.1)">
       <use xlink:href="#DejaVuSans-36"/>
       <use x="63.623047" xlink:href="#DejaVuSans-30"/>
       <use x="127.246094" xlink:href="#DejaVuSans-30"/>
      </g>
     </g>
    </g>
    <g id="ytick_5">
     <g id="line2d_27">
      <path clip-path="url(#p05b44a9f6d)" d="M 31.543 71.561608 
L 447.48 71.561608 
" style="fill:none;stroke:#b0b0b0;stroke-linecap:square;stroke-width:0.8;"/>
     </g>
     <g id="line2d_28">
      <g>
       <use style="stroke:#000000;stroke-width:0.8;" x="31.543" xlink:href="#m2c06078cec" y="71.561608"/>
      </g>
     </g>
     <g id="text_15">
      <!-- 800 -->
      <defs>
       <path d="M 31.78125 34.625 
Q 24.75 34.625 20.71875 30.859375 
Q 16.703125 27.09375 16.703125 20.515625 
Q 16.703125 13.921875 20.71875 10.15625 
Q 24.75 6.390625 31.78125 6.390625 
Q 38.8125 6.390625 42.859375 10.171875 
Q 46.921875 13.96875 46.921875 20.515625 
Q 46.921875 27.09375 42.890625 30.859375 
Q 38.875 34.625 31.78125 34.625 
z
M 21.921875 38.8125 
Q 15.578125 40.375 12.03125 44.71875 
Q 8.5 49.078125 8.5 55.328125 
Q 8.5 64.0625 14.71875 69.140625 
Q 20.953125 74.21875 31.78125 74.21875 
Q 42.671875 74.21875 48.875 69.140625 
Q 55.078125 64.0625 55.078125 55.328125 
Q 55.078125 49.078125 51.53125 44.71875 
Q 48 40.375 41.703125 38.8125 
Q 48.828125 37.15625 52.796875 32.3125 
Q 56.78125 27.484375 56.78125 20.515625 
Q 56.78125 9.90625 50.3125 4.234375 
Q 43.84375 -1.421875 31.78125 -1.421875 
Q 19.734375 -1.421875 13.25 4.234375 
Q 6.78125 9.90625 6.78125 20.515625 
Q 6.78125 27.484375 10.78125 32.3125 
Q 14.796875 37.15625 21.921875 38.8125 
z
M 18.3125 54.390625 
Q 18.3125 48.734375 21.84375 45.5625 
Q 25.390625 42.390625 31.78125 42.390625 
Q 38.140625 42.390625 41.71875 45.5625 
Q 45.3125 48.734375 45.3125 54.390625 
Q 45.3125 60.0625 41.71875 63.234375 
Q 38.140625 66.40625 31.78125 66.40625 
Q 25.390625 66.40625 21.84375 63.234375 
Q 18.3125 60.0625 18.3125 54.390625 
z
" id="DejaVuSans-38"/>
      </defs>
      <g transform="translate(5.4555 75.360826)scale(0.1 -0.1)">
       <use xlink:href="#DejaVuSans-38"/>
       <use x="63.623047" xlink:href="#DejaVuSans-30"/>
       <use x="127.246094" xlink:href="#DejaVuSans-30"/>
      </g>
     </g>
    </g>
   </g>
   <g id="line2d_29">
    <path clip-path="url(#p05b44a9f6d)" d="M 31.543 92.710901 
L 33.600123 186.989087 
L 35.45817 235.840975 
L 37.515293 309.8635 
L 39.506057 279.182131 
L 41.56318 263.54357 
L 43.553944 261.458428 
L 45.611067 224.819512 
L 47.66819 269.501117 
L 49.658954 309.8635 
L 51.716077 300.927179 
L 53.706841 296.459019 
L 55.763964 283.352414 
L 57.821087 279.628947 
L 59.679134 253.415739 
L 61.736257 309.8635 
L 63.727021 309.8635 
L 65.784144 296.459019 
L 67.774908 270.543688 
L 69.832031 294.373877 
L 71.889154 293.182368 
L 73.879919 309.8635 
L 90.005109 309.8635 
L 91.995873 281.714089 
L 94.052996 294.373877 
L 98.100883 309.8635 
L 114.292432 309.8635 
L 116.283196 297.948405 
L 118.340319 287.522698 
L 120.397442 273.224584 
L 122.388206 309.8635 
L 126.436093 309.8635 
L 128.493216 301.522934 
L 130.55034 288.863146 
L 132.408386 309.8635 
L 136.456273 309.8635 
L 138.513396 289.161023 
L 140.50416 278.288499 
L 142.561284 290.203594 
L 144.618407 300.927179 
L 146.609171 300.331424 
L 148.666294 291.097226 
L 150.657058 290.203594 
L 152.714181 300.927179 
L 154.771304 291.692981 
L 156.629351 288.41633 
L 158.686474 286.629066 
L 160.677238 309.8635 
L 164.725125 272.330952 
L 166.782248 300.033547 
L 168.839371 297.352651 
L 170.830135 309.8635 
L 172.887258 291.692981 
L 174.878022 287.22482 
L 176.935145 309.8635 
L 184.898202 309.8635 
L 186.955325 295.11857 
L 188.946089 290.799349 
L 191.003212 286.033311 
L 193.060335 299.139915 
L 195.0511 290.948287 
L 197.108223 309.8635 
L 209.185525 309.8635 
L 211.242648 275.607603 
L 213.233413 274.267155 
L 215.290536 263.692508 
L 217.347659 275.756542 
L 219.338423 275.90548 
L 221.395546 287.22482 
L 223.38631 287.22482 
L 225.443433 300.331424 
L 227.500556 309.8635 
L 229.358603 309.8635 
L 231.415726 299.437792 
L 233.40649 300.331424 
L 235.463613 309.8635 
L 237.454377 298.54416 
L 239.5115 300.927179 
L 241.568623 291.692981 
L 243.559387 300.927179 
L 245.61651 309.8635 
L 285.896306 309.8635 
L 287.953429 300.182486 
L 290.010552 309.8635 
L 310.183629 309.8635 
L 312.240752 292.288735 
L 314.297875 300.629302 
L 316.288639 309.8635 
L 330.356706 309.8635 
L 332.413829 300.331424 
L 334.404593 309.8635 
L 340.509604 309.8635 
L 342.566727 308.820929 
L 344.557491 309.8635 
L 447.48 309.8635 
L 447.48 309.8635 
" style="fill:none;stroke:#1f77b4;stroke-linecap:square;stroke-width:1.5;"/>
   </g>
   <g id="patch_3">
    <path d="M 31.543 309.8635 
L 31.543 23.36505 
" style="fill:none;stroke:#000000;stroke-linecap:square;stroke-linejoin:miter;stroke-width:0.8;"/>
   </g>
   <g id="patch_4">
    <path d="M 447.48 309.8635 
L 447.48 23.36505 
" style="fill:none;stroke:#000000;stroke-linecap:square;stroke-linejoin:miter;stroke-width:0.8;"/>
   </g>
   <g id="patch_5">
    <path d="M 31.543 309.8635 
L 447.48 309.8635 
" style="fill:none;stroke:#000000;stroke-linecap:square;stroke-linejoin:miter;stroke-width:0.8;"/>
   </g>
   <g id="patch_6">
    <path d="M 31.543 23.36505 
L 447.48 23.36505 
" style="fill:none;stroke:#000000;stroke-linecap:square;stroke-linejoin:miter;stroke-width:0.8;"/>
   </g>
   <g id="text_16">
    <!-- Monthly gross load trend (MW) -->
    <defs>
     <path d="M 9.8125 72.90625 
L 24.515625 72.90625 
L 43.109375 23.296875 
L 61.8125 72.90625 
L 76.515625 72.90625 
L 76.515625 0 
L 66.890625 0 
L 66.890625 64.015625 
L 48.09375 14.015625 
L 38.1875 14.015625 
L 19.390625 64.015625 
L 19.390625 0 
L 9.8125 0 
z
" id="DejaVuSans-4d"/>
     <path d="M 30.609375 48.390625 
Q 23.390625 48.390625 19.1875 42.75 
Q 14.984375 37.109375 14.984375 27.296875 
Q 14.984375 17.484375 19.15625 11.84375 
Q 23.34375 6.203125 30.609375 6.203125 
Q 37.796875 6.203125 41.984375 11.859375 
Q 46.1875 17.53125 46.1875 27.296875 
Q 46.1875 37.015625 41.984375 42.703125 
Q 37.796875 48.390625 30.609375 48.390625 
z
M 30.609375 56 
Q 42.328125 56 49.015625 48.375 
Q 55.71875 40.765625 55.71875 27.296875 
Q 55.71875 13.875 49.015625 6.21875 
Q 42.328125 -1.421875 30.609375 -1.421875 
Q 18.84375 -1.421875 12.171875 6.21875 
Q 5.515625 13.875 5.515625 27.296875 
Q 5.515625 40.765625 12.171875 48.375 
Q 18.84375 56 30.609375 56 
z
" id="DejaVuSans-6f"/>
     <path d="M 54.890625 33.015625 
L 54.890625 0 
L 45.90625 0 
L 45.90625 32.71875 
Q 45.90625 40.484375 42.875 44.328125 
Q 39.84375 48.1875 33.796875 48.1875 
Q 26.515625 48.1875 22.3125 43.546875 
Q 18.109375 38.921875 18.109375 30.90625 
L 18.109375 0 
L 9.078125 0 
L 9.078125 54.6875 
L 18.109375 54.6875 
L 18.109375 46.1875 
Q 21.34375 51.125 25.703125 53.5625 
Q 30.078125 56 35.796875 56 
Q 45.21875 56 50.046875 50.171875 
Q 54.890625 44.34375 54.890625 33.015625 
z
" id="DejaVuSans-6e"/>
     <path d="M 54.890625 33.015625 
L 54.890625 0 
L 45.90625 0 
L 45.90625 32.71875 
Q 45.90625 40.484375 42.875 44.328125 
Q 39.84375 48.1875 33.796875 48.1875 
Q 26.515625 48.1875 22.3125 43.546875 
Q 18.109375 38.921875 18.109375 30.90625 
L 18.109375 0 
L 9.078125 0 
L 9.078125 75.984375 
L 18.109375 75.984375 
L 18.109375 46.1875 
Q 21.34375 51.125 25.703125 53.5625 
Q 30.078125 56 35.796875 56 
Q 45.21875 56 50.046875 50.171875 
Q 54.890625 44.34375 54.890625 33.015625 
z
" id="DejaVuSans-68"/>
     <path d="M 9.421875 75.984375 
L 18.40625 75.984375 
L 18.40625 0 
L 9.421875 0 
z
" id="DejaVuSans-6c"/>
     <path d="M 32.171875 -5.078125 
Q 28.375 -14.84375 24.75 -17.8125 
Q 21.140625 -20.796875 15.09375 -20.796875 
L 7.90625 -20.796875 
L 7.90625 -13.28125 
L 13.1875 -13.28125 
Q 16.890625 -13.28125 18.9375 -11.515625 
Q 21 -9.765625 23.484375 -3.21875 
L 25.09375 0.875 
L 2.984375 54.6875 
L 12.5 54.6875 
L 29.59375 11.921875 
L 46.6875 54.6875 
L 56.203125 54.6875 
z
" id="DejaVuSans-79"/>
     <path id="DejaVuSans-20"/>
     <path d="M 45.40625 27.984375 
Q 45.40625 37.75 41.375 43.109375 
Q 37.359375 48.484375 30.078125 48.484375 
Q 22.859375 48.484375 18.828125 43.109375 
Q 14.796875 37.75 14.796875 27.984375 
Q 14.796875 18.265625 18.828125 12.890625 
Q 22.859375 7.515625 30.078125 7.515625 
Q 37.359375 7.515625 41.375 12.890625 
Q 45.40625 18.265625 45.40625 27.984375 
z
M 54.390625 6.78125 
Q 54.390625 -7.171875 48.1875 -13.984375 
Q 42 -20.796875 29.203125 -20.796875 
Q 24.46875 -20.796875 20.265625 -20.09375 
Q 16.0625 -19.390625 12.109375 -17.921875 
L 12.109375 -9.1875 
Q 16.0625 -11.328125 19.921875 -12.34375 
Q 23.78125 -13.375 27.78125 -13.375 
Q 36.625 -13.375 41.015625 -8.765625 
Q 45.40625 -4.15625 45.40625 5.171875 
L 45.40625 9.625 
Q 42.625 4.78125 38.28125 2.390625 
Q 33.9375 0 27.875 0 
Q 17.828125 0 11.671875 7.65625 
Q 5.515625 15.328125 5.515625 27.984375 
Q 5.515625 40.671875 11.671875 48.328125 
Q 17.828125 56 27.875 56 
Q 33.9375 56 38.28125 53.609375 
Q 42.625 51.21875 45.40625 46.390625 
L 45.40625 54.6875 
L 54.390625 54.6875 
z
" id="DejaVuSans-67"/>
     <path d="M 41.109375 46.296875 
Q 39.59375 47.171875 37.8125 47.578125 
Q 36.03125 48 33.890625 48 
Q 26.265625 48 22.1875 43.046875 
Q 18.109375 38.09375 18.109375 28.8125 
L 18.109375 0 
L 9.078125 0 
L 9.078125 54.6875 
L 18.109375 54.6875 
L 18.109375 46.1875 
Q 20.953125 51.171875 25.484375 53.578125 
Q 30.03125 56 36.53125 56 
Q 37.453125 56 38.578125 55.875 
Q 39.703125 55.765625 41.0625 55.515625 
z
" id="DejaVuSans-72"/>
     <path d="M 44.28125 53.078125 
L 44.28125 44.578125 
Q 40.484375 46.53125 36.375 47.5 
Q 32.28125 48.484375 27.875 48.484375 
Q 21.1875 48.484375 17.84375 46.4375 
Q 14.5 44.390625 14.5 40.28125 
Q 14.5 37.15625 16.890625 35.375 
Q 19.28125 33.59375 26.515625 31.984375 
L 29.59375 31.296875 
Q 39.15625 29.25 43.1875 25.515625 
Q 47.21875 21.78125 47.21875 15.09375 
Q 47.21875 7.46875 41.1875 3.015625 
Q 35.15625 -1.421875 24.609375 -1.421875 
Q 20.21875 -1.421875 15.453125 -0.5625 
Q 10.6875 0.296875 5.421875 2 
L 5.421875 11.28125 
Q 10.40625 8.6875 15.234375 7.390625 
Q 20.0625 6.109375 24.8125 6.109375 
Q 31.15625 6.109375 34.5625 8.28125 
Q 37.984375 10.453125 37.984375 14.40625 
Q 37.984375 18.0625 35.515625 20.015625 
Q 33.0625 21.96875 24.703125 23.78125 
L 21.578125 24.515625 
Q 13.234375 26.265625 9.515625 29.90625 
Q 5.8125 33.546875 5.8125 39.890625 
Q 5.8125 47.609375 11.28125 51.796875 
Q 16.75 56 26.8125 56 
Q 31.78125 56 36.171875 55.265625 
Q 40.578125 54.546875 44.28125 53.078125 
z
" id="DejaVuSans-73"/>
     <path d="M 45.40625 46.390625 
L 45.40625 75.984375 
L 54.390625 75.984375 
L 54.390625 0 
L 45.40625 0 
L 45.40625 8.203125 
Q 42.578125 3.328125 38.25 0.953125 
Q 33.9375 -1.421875 27.875 -1.421875 
Q 17.96875 -1.421875 11.734375 6.484375 
Q 5.515625 14.40625 5.515625 27.296875 
Q 5.515625 40.1875 11.734375 48.09375 
Q 17.96875 56 27.875 56 
Q 33.9375 56 38.25 53.625 
Q 42.578125 51.265625 45.40625 46.390625 
z
M 14.796875 27.296875 
Q 14.796875 17.390625 18.875 11.75 
Q 22.953125 6.109375 30.078125 6.109375 
Q 37.203125 6.109375 41.296875 11.75 
Q 45.40625 17.390625 45.40625 27.296875 
Q 45.40625 37.203125 41.296875 42.84375 
Q 37.203125 48.484375 30.078125 48.484375 
Q 22.953125 48.484375 18.875 42.84375 
Q 14.796875 37.203125 14.796875 27.296875 
z
" id="DejaVuSans-64"/>
     <path d="M 31 75.875 
Q 24.46875 64.65625 21.28125 53.65625 
Q 18.109375 42.671875 18.109375 31.390625 
Q 18.109375 20.125 21.3125 9.0625 
Q 24.515625 -2 31 -13.1875 
L 23.1875 -13.1875 
Q 15.875 -1.703125 12.234375 9.375 
Q 8.59375 20.453125 8.59375 31.390625 
Q 8.59375 42.28125 12.203125 53.3125 
Q 15.828125 64.359375 23.1875 75.875 
z
" id="DejaVuSans-28"/>
     <path d="M 3.328125 72.90625 
L 13.28125 72.90625 
L 28.609375 11.28125 
L 43.890625 72.90625 
L 54.984375 72.90625 
L 70.3125 11.28125 
L 85.59375 72.90625 
L 95.609375 72.90625 
L 77.296875 0 
L 64.890625 0 
L 49.515625 63.28125 
L 33.984375 0 
L 21.578125 0 
z
" id="DejaVuSans-57"/>
     <path d="M 8.015625 75.875 
L 15.828125 75.875 
Q 23.140625 64.359375 26.78125 53.3125 
Q 30.421875 42.28125 30.421875 31.390625 
Q 30.421875 20.453125 26.78125 9.375 
Q 23.140625 -1.703125 15.828125 -13.1875 
L 8.015625 -13.1875 
Q 14.5 -2 17.703125 9.0625 
Q 20.90625 20.125 20.90625 31.390625 
Q 20.90625 42.671875 17.703125 53.65625 
Q 14.5 64.65625 8.015625 75.875 
z
" id="DejaVuSans-29"/>
    </defs>
    <g transform="translate(146.928688 17.36505)scale(0.12 -0.12)">
     <use xlink:href="#DejaVuSans-4d"/>
     <use x="86.279297" xlink:href="#DejaVuSans-6f"/>
     <use x="147.460938" xlink:href="#DejaVuSans-6e"/>
     <use x="210.839844" xlink:href="#DejaVuSans-74"/>
     <use x="250.048828" xlink:href="#DejaVuSans-68"/>
     <use x="313.427734" xlink:href="#DejaVuSans-6c"/>
     <use x="341.210938" xlink:href="#DejaVuSans-79"/>
     <use x="400.390625" xlink:href="#DejaVuSans-20"/>
     <use x="432.177734" xlink:href="#DejaVuSans-67"/>
     <use x="495.654297" xlink:href="#DejaVuSans-72"/>
     <use x="536.736328" xlink:href="#DejaVuSans-6f"/>
     <use x="597.917969" xlink:href="#DejaVuSans-73"/>
     <use x="650.017578" xlink:href="#DejaVuSans-73"/>
     <use x="702.117188" xlink:href="#DejaVuSans-20"/>
     <use x="733.904297" xlink:href="#DejaVuSans-6c"/>
     <use x="761.6875" xlink:href="#DejaVuSans-6f"/>
     <use x="822.869141" xlink:href="#DejaVuSans-61"/>
     <use x="884.148438" xlink:href="#DejaVuSans-64"/>
     <use x="947.625" xlink:href="#DejaVuSans-20"/>
     <use x="979.412109" xlink:href="#DejaVuSans-74"/>
     <use x="1018.621094" xlink:href="#DejaVuSans-72"/>
     <use x="1059.703125" xlink:href="#DejaVuSans-65"/>
     <use x="1121.226562" xlink:href="#DejaVuSans-6e"/>
     <use x="1184.605469" xlink:href="#DejaVuSans-64"/>
     <use x="1248.082031" xlink:href="#DejaVuSans-20"/>
     <use x="1279.869141" xlink:href="#DejaVuSans-28"/>
     <use x="1318.882812" xlink:href="#DejaVuSans-4d"/>
     <use x="1405.162109" xlink:href="#DejaVuSans-57"/>
     <use x="1504.039062" xlink:href="#DejaVuSans-29"/>
    </g>
   </g>
  </g>
 </g>
 <defs>
  <clipPath id="p05b44a9f6d">
   <rect height="286.49845" width="415.937" x="31.543" y="23.36505"/>
  </clipPath>
 </defs>
</svg>
