<?xml version="1.0" encoding="utf-8" standalone="no"?>
<!DOCTYPE svg PUBLIC "-//W3C//DTD SVG 1.1//EN"
  "http://www.w3.org/Graphics/SVG/1.1/DTD/svg11.dtd">
<!-- Created with matplotlib (http://matplotlib.org/) -->
<svg height="345.6pt" version="1.1" viewBox="0 0 460.8 345.6" width="460.8pt" xmlns="http://www.w3.org/2000/svg" xmlns:xlink="http://www.w3.org/1999/xlink">
 <defs>
  <style type="text/css">
*{stroke-linecap:butt;stroke-linejoin:round;}
  </style>
 </defs>
 <g id="figure_1">
  <g id="patch_1">
   <path d="M 0 345.6 
L 460.8 345.6 
L 460.8 0 
L 0 0 
z
" style="fill:none;"/>
  </g>
  <g id="axes_1">
   <g id="patch_2">
    <path d="M 31.543 309.8635 
L 447.48 309.8635 
L 447.48 23.36505 
L 31.543 23.36505 
z
" style="fill:none;"/>
   </g>
   <g id="PolyCollection_1">
    <path clip-path="url(#p59492c66dd)" d="M 31.543 45.579216 
L 31.543 208.435477 
L 33.546481 91.293254 
L 35.764621 214.149732 
L 37.911208 157.007184 
L 40.129348 309.8635 
L 42.275935 119.864528 
L 44.494075 195.578404 
L 46.712215 231.292497 
L 48.858801 154.150057 
L 51.076941 131.293038 
L 53.223528 231.292497 
L 55.441668 207.006914 
L 57.659808 189.864149 
L 59.663289 118.435964 
L 61.881429 211.292605 
L 64.028016 122.721655 
L 66.246156 217.00686 
L 68.392743 231.292497 
L 70.610883 305.577809 
L 72.829023 309.8635 
L 74.975609 309.8635 
L 77.193749 208.435477 
L 79.340336 217.00686 
L 81.558476 219.863987 
L 83.776616 212.721168 
L 85.780097 151.292929 
L 87.998237 195.578404 
L 90.144824 192.721277 
L 92.362964 211.292605 
L 94.509551 189.864149 
L 96.727691 121.293092 
L 98.945831 208.435477 
L 101.092418 215.578296 
L 103.310557 232.72106 
L 105.457144 208.435477 
L 107.675284 239.863879 
L 109.893424 239.863879 
L 111.968458 152.721493 
L 114.186598 185.578458 
L 116.333185 237.006751 
L 118.551325 239.863879 
L 120.697912 209.864041 
L 122.916052 217.00686 
L 125.134191 208.435477 
L 127.280778 309.8635 
L 129.498918 227.006805 
L 131.645505 309.8635 
L 133.863645 225.578242 
L 136.081785 198.435531 
L 138.085266 242.721006 
L 140.303406 188.435586 
L 142.449993 309.8635 
L 144.668133 111.293146 
L 146.81472 231.292497 
L 149.03286 159.864312 
L 151.250999 231.292497 
L 153.397586 228.435369 
L 155.615726 132.721601 
L 157.762313 204.149786 
L 159.980453 232.72106 
L 162.198593 229.863933 
L 164.202074 109.864582 
L 166.420214 309.8635 
L 168.566801 239.863879 
L 170.784941 309.8635 
L 172.931528 232.72106 
L 175.149668 237.006751 
L 177.367808 235.578188 
L 179.514394 207.006914 
L 181.732534 309.8635 
L 183.879121 191.292713 
L 186.097261 207.006914 
L 188.315401 207.006914 
L 190.318882 309.8635 
L 192.537022 231.292497 
L 194.683609 207.006914 
L 196.901749 158.435748 
L 199.048336 238.435315 
L 201.266476 231.292497 
L 203.484616 309.8635 
L 205.631202 309.8635 
L 207.849342 177.007076 
L 209.995929 161.292875 
L 212.214069 309.8635 
L 214.432209 214.149732 
L 216.507243 164.150003 
L 218.725383 309.8635 
L 220.87197 238.435315 
L 223.09011 248.435261 
L 225.236697 214.149732 
L 227.454837 114.150273 
L 229.672976 309.8635 
L 231.819563 231.292497 
L 234.037703 167.00713 
L 236.18429 239.863879 
L 238.40243 141.292983 
L 240.62057 209.864041 
L 242.624051 309.8635 
L 244.842191 309.8635 
L 246.988778 209.864041 
L 249.206918 208.435477 
L 251.353505 235.578188 
L 253.571645 167.00713 
L 255.789784 232.72106 
L 257.936371 127.007346 
L 260.154511 231.292497 
L 262.301098 204.149786 
L 264.519238 309.8635 
L 266.737378 207.006914 
L 268.740859 151.292929 
L 270.958999 227.006805 
L 273.105586 178.43564 
L 275.323726 208.435477 
L 277.470313 131.293038 
L 279.688453 134.150165 
L 281.906592 309.8635 
L 284.053179 202.721223 
L 286.271319 267.006589 
L 288.417906 244.14957 
L 290.636046 138.435856 
L 292.854186 199.864095 
L 294.857667 211.292605 
L 297.075807 138.435856 
L 299.222394 145.578675 
L 301.440534 242.721006 
L 303.587121 205.57835 
L 305.805261 144.150111 
L 308.0234 135.578729 
L 310.169987 281.292226 
L 312.388127 135.578729 
L 314.534714 142.721547 
L 316.752854 208.435477 
L 318.970994 208.435477 
L 321.046028 242.721006 
L 323.264168 135.578729 
L 325.410755 134.150165 
L 327.628895 237.006751 
L 329.775482 212.721168 
L 331.993622 134.150165 
L 334.211761 207.006914 
L 336.358348 207.006914 
L 338.576488 171.292821 
L 340.723075 234.149624 
L 342.941215 167.00713 
L 345.159355 208.435477 
L 347.162836 309.8635 
L 349.380976 208.435477 
L 351.527563 238.435315 
L 353.745703 309.8635 
L 355.89229 239.863879 
L 358.11043 152.721493 
L 360.328569 209.864041 
L 362.475156 198.435531 
L 364.693296 138.435856 
L 366.839883 197.006968 
L 369.058023 241.292442 
L 371.276163 139.86442 
L 373.279644 178.43564 
L 375.497784 249.863825 
L 377.644371 239.863879 
L 379.862511 151.292929 
L 382.009098 144.150111 
L 384.227238 205.57835 
L 386.445377 227.006805 
L 388.591964 208.435477 
L 390.810104 208.435477 
L 392.956691 211.292605 
L 395.174831 118.435964 
L 397.392971 208.435477 
L 399.396452 88.436127 
L 401.614592 202.721223 
L 403.761179 309.8635 
L 405.979319 309.8635 
L 408.125906 309.8635 
L 410.344046 309.8635 
L 412.562185 309.8635 
L 414.708772 309.8635 
L 416.926912 309.8635 
L 419.073499 309.8635 
L 421.291639 309.8635 
L 423.509779 309.8635 
L 425.584813 309.8635 
L 427.802953 309.8635 
L 429.94954 309.8635 
L 432.16768 309.8635 
L 434.314267 309.8635 
L 436.532407 309.8635 
L 438.750546 309.8635 
L 440.897133 309.8635 
L 443.115273 309.8635 
L 445.26186 309.8635 
L 447.48 309.8635 
L 447.48 309.8635 
L 447.48 309.8635 
L 445.26186 309.8635 
L 443.115273 309.8635 
L 440.897133 309.8635 
L 438.750546 309.8635 
L 436.532407 309.8635 
L 434.314267 309.8635 
L 432.16768 309.8635 
L 429.94954 309.8635 
L 427.802953 309.8635 
L 425.584813 309.8635 
L 423.509779 309.8635 
L 421.291639 309.8635 
L 419.073499 309.8635 
L 416.926912 309.8635 
L 414.708772 309.8635 
L 412.562185 309.8635 
L 410.344046 309.8635 
L 408.125906 309.8635 
L 405.979319 309.8635 
L 403.761179 45.579216 
L 401.614592 42.722088 
L 399.396452 44.150652 
L 397.392971 44.150652 
L 395.174831 45.579216 
L 392.956691 44.150652 
L 390.810104 44.150652 
L 388.591964 42.722088 
L 386.445377 44.150652 
L 384.227238 45.579216 
L 382.009098 47.007779 
L 379.862511 47.007779 
L 377.644371 47.007779 
L 375.497784 48.436343 
L 373.279644 47.007779 
L 371.276163 45.579216 
L 369.058023 48.436343 
L 366.839883 44.150652 
L 364.693296 47.007779 
L 362.475156 45.579216 
L 360.328569 47.007779 
L 358.11043 45.579216 
L 355.89229 45.579216 
L 353.745703 44.150652 
L 351.527563 47.007779 
L 349.380976 44.150652 
L 347.162836 47.007779 
L 345.159355 44.150652 
L 342.941215 47.007779 
L 340.723075 45.579216 
L 338.576488 47.007779 
L 336.358348 45.579216 
L 334.211761 45.579216 
L 331.993622 47.007779 
L 329.775482 47.007779 
L 327.628895 47.007779 
L 325.410755 47.007779 
L 323.264168 44.150652 
L 321.046028 45.579216 
L 318.970994 45.579216 
L 316.752854 45.579216 
L 314.534714 45.579216 
L 312.388127 47.007779 
L 310.169987 47.007779 
L 308.0234 47.007779 
L 305.805261 47.007779 
L 303.587121 45.579216 
L 301.440534 45.579216 
L 299.222394 44.150652 
L 297.075807 45.579216 
L 294.857667 44.150652 
L 292.854186 45.579216 
L 290.636046 45.579216 
L 288.417906 55.579161 
L 286.271319 48.436343 
L 284.053179 45.579216 
L 281.906592 47.007779 
L 279.688453 45.579216 
L 277.470313 45.579216 
L 275.323726 47.007779 
L 273.105586 45.579216 
L 270.958999 45.579216 
L 268.740859 45.579216 
L 266.737378 45.579216 
L 264.519238 42.722088 
L 262.301098 44.150652 
L 260.154511 45.579216 
L 257.936371 57.007725 
L 255.789784 44.150652 
L 253.571645 45.579216 
L 251.353505 45.579216 
L 249.206918 45.579216 
L 246.988778 45.579216 
L 244.842191 148.435802 
L 242.624051 47.007779 
L 240.62057 37.007833 
L 238.40243 45.579216 
L 236.18429 37.007833 
L 234.037703 47.007779 
L 231.819563 45.579216 
L 229.672976 47.007779 
L 227.454837 48.436343 
L 225.236697 49.864907 
L 223.09011 49.864907 
L 220.87197 48.436343 
L 218.725383 184.149894 
L 216.507243 52.722034 
L 214.432209 52.722034 
L 212.214069 49.864907 
L 209.995929 42.722088 
L 207.849342 44.150652 
L 205.631202 48.436343 
L 203.484616 51.29347 
L 201.266476 49.864907 
L 199.048336 49.864907 
L 196.901749 49.864907 
L 194.683609 48.436343 
L 192.537022 49.864907 
L 190.318882 48.436343 
L 188.315401 45.579216 
L 186.097261 47.007779 
L 183.879121 47.007779 
L 181.732534 48.436343 
L 179.514394 48.436343 
L 177.367808 48.436343 
L 175.149668 48.436343 
L 172.931528 47.007779 
L 170.784941 47.007779 
L 168.566801 45.579216 
L 166.420214 41.293524 
L 164.202074 41.293524 
L 162.198593 41.293524 
L 159.980453 42.722088 
L 157.762313 44.150652 
L 155.615726 44.150652 
L 153.397586 45.579216 
L 151.250999 38.436397 
L 149.03286 39.864961 
L 146.81472 38.436397 
L 144.668133 37.007833 
L 142.449993 38.436397 
L 140.303406 38.436397 
L 138.085266 37.007833 
L 136.081785 37.007833 
L 133.863645 145.578675 
L 131.645505 145.578675 
L 129.498918 45.579216 
L 127.280778 45.579216 
L 125.134191 45.579216 
L 122.916052 45.579216 
L 120.697912 45.579216 
L 118.551325 47.007779 
L 116.333185 48.436343 
L 114.186598 47.007779 
L 111.968458 45.579216 
L 109.893424 47.007779 
L 107.675284 45.579216 
L 105.457144 47.007779 
L 103.310557 44.150652 
L 101.092418 44.150652 
L 98.945831 44.150652 
L 96.727691 44.150652 
L 94.509551 44.150652 
L 92.362964 44.150652 
L 90.144824 42.722088 
L 87.998237 44.150652 
L 85.780097 45.579216 
L 83.776616 44.150652 
L 81.558476 42.722088 
L 79.340336 44.150652 
L 77.193749 42.722088 
L 74.975609 45.579216 
L 72.829023 45.579216 
L 70.610883 44.150652 
L 68.392743 44.150652 
L 66.246156 42.722088 
L 64.028016 42.722088 
L 61.881429 42.722088 
L 59.663289 44.150652 
L 57.659808 41.293524 
L 55.441668 45.579216 
L 53.223528 47.007779 
L 51.076941 44.150652 
L 48.858801 44.150652 
L 46.712215 42.722088 
L 44.494075 44.150652 
L 42.275935 42.722088 
L 40.129348 44.150652 
L 37.911208 44.150652 
L 35.764621 44.150652 
L 33.546481 45.579216 
L 31.543 45.579216 
z
" style="fill:#808080;fill-opacity:0.3;"/>
   </g>
   <g id="PolyCollection_2">
    <path clip-path="url(#p59492c66dd)" d="M 31.543 49.864907 
L 31.543 57.007725 
L 33.546481 51.29347 
L 35.764621 79.864744 
L 37.911208 51.29347 
L 40.129348 77.007617 
L 42.275935 51.29347 
L 44.494075 75.579053 
L 46.712215 51.29347 
L 48.858801 51.29347 
L 51.076941 84.150435 
L 53.223528 207.006914 
L 55.441668 61.293416 
L 57.659808 70.221939 
L 59.663289 64.150544 
L 61.881429 84.150435 
L 64.028016 49.864907 
L 66.246156 92.721818 
L 68.392743 109.864582 
L 70.610883 104.150327 
L 72.829023 108.436018 
L 74.975609 207.006914 
L 77.193749 52.722034 
L 79.340336 49.864907 
L 81.558476 74.15049 
L 83.776616 77.007617 
L 85.780097 49.864907 
L 87.998237 59.864853 
L 90.144824 78.793322 
L 92.362964 57.007725 
L 94.509551 50.222048 
L 96.727691 49.864907 
L 98.945831 51.650611 
L 101.092418 51.29347 
L 103.310557 85.578999 
L 105.457144 87.007563 
L 107.675284 152.721493 
L 109.893424 149.864366 
L 111.968458 78.436181 
L 114.186598 87.007563 
L 116.333185 208.435477 
L 118.551325 208.435477 
L 120.697912 87.007563 
L 122.916052 94.150381 
L 125.134191 68.436235 
L 127.280778 81.293308 
L 129.498918 152.721493 
L 131.645505 151.292929 
L 133.863645 151.292929 
L 136.081785 157.007184 
L 138.085266 161.292875 
L 140.303406 51.29347 
L 142.449993 52.722034 
L 144.668133 69.864798 
L 146.81472 71.293362 
L 149.03286 51.29347 
L 151.250999 72.721926 
L 153.397586 89.86469 
L 155.615726 54.150598 
L 157.762313 64.150544 
L 159.980453 99.864636 
L 162.198593 74.15049 
L 164.202074 54.150598 
L 166.420214 152.721493 
L 168.566801 109.864582 
L 170.784941 108.436018 
L 172.931528 108.436018 
L 175.149668 112.721709 
L 177.367808 72.721926 
L 179.514394 64.507685 
L 181.732534 55.579161 
L 183.879121 154.150057 
L 186.097261 88.436127 
L 188.315401 54.150598 
L 190.318882 111.293146 
L 192.537022 205.57835 
L 194.683609 54.150598 
L 196.901749 55.579161 
L 199.048336 85.578999 
L 201.266476 58.436289 
L 203.484616 55.579161 
L 205.631202 149.864366 
L 207.849342 58.436289 
L 209.995929 82.721872 
L 212.214069 58.436289 
L 214.432209 59.864853 
L 216.507243 74.15049 
L 218.725383 232.006778 
L 220.87197 209.864041 
L 223.09011 89.86469 
L 225.236697 98.436072 
L 227.454837 54.150598 
L 229.672976 100.221777 
L 231.819563 79.864744 
L 234.037703 108.436018 
L 236.18429 142.721547 
L 238.40243 109.864582 
L 240.62057 121.650233 
L 242.624051 124.150219 
L 244.842191 202.721223 
L 246.988778 139.86442 
L 249.206918 99.864636 
L 251.353505 109.864582 
L 253.571645 92.721818 
L 255.789784 97.007509 
L 257.936371 88.793267 
L 260.154511 101.2932 
L 262.301098 125.578783 
L 264.519238 171.292821 
L 266.737378 99.864636 
L 268.740859 78.436181 
L 270.958999 98.436072 
L 273.105586 78.436181 
L 275.323726 99.864636 
L 277.470313 98.436072 
L 279.688453 57.007725 
L 281.906592 118.435964 
L 284.053179 98.436072 
L 286.271319 132.721601 
L 288.417906 207.006914 
L 290.636046 64.150544 
L 292.854186 108.436018 
L 294.857667 128.43591 
L 297.075807 124.150219 
L 299.222394 112.721709 
L 301.440534 131.293038 
L 303.587121 129.864474 
L 305.805261 95.578945 
L 308.0234 65.579107 
L 310.169987 77.007617 
L 312.388127 81.293308 
L 314.534714 52.722034 
L 316.752854 82.721872 
L 318.970994 107.364596 
L 321.046028 205.57835 
L 323.264168 112.721709 
L 325.410755 99.864636 
L 327.628895 121.293092 
L 329.775482 111.650287 
L 331.993622 117.007401 
L 334.211761 95.578945 
L 336.358348 88.436127 
L 338.576488 94.150381 
L 340.723075 115.578837 
L 342.941215 109.864582 
L 345.159355 70.936221 
L 347.162836 208.435477 
L 349.380976 109.507441 
L 351.527563 125.578783 
L 353.745703 149.864366 
L 355.89229 174.86423 
L 358.11043 124.150219 
L 360.328569 131.293038 
L 362.475156 129.864474 
L 364.693296 127.007346 
L 366.839883 127.007346 
L 369.058023 129.864474 
L 371.276163 127.007346 
L 373.279644 125.935924 
L 375.497784 129.864474 
L 377.644371 129.864474 
L 379.862511 125.578783 
L 382.009098 125.578783 
L 384.227238 131.293038 
L 386.445377 87.007563 
L 388.591964 55.936302 
L 390.810104 75.936194 
L 392.956691 84.150435 
L 395.174831 54.150598 
L 397.392971 61.293416 
L 399.396452 79.864744 
L 401.614592 89.86469 
L 403.761179 309.8635 
L 405.979319 309.8635 
L 408.125906 309.8635 
L 410.344046 309.8635 
L 412.562185 309.8635 
L 414.708772 309.8635 
L 416.926912 309.8635 
L 419.073499 309.8635 
L 421.291639 309.8635 
L 423.509779 309.8635 
L 425.584813 309.8635 
L 427.802953 309.8635 
L 429.94954 309.8635 
L 432.16768 309.8635 
L 434.314267 309.8635 
L 436.532407 309.8635 
L 438.750546 309.8635 
L 440.897133 309.8635 
L 443.115273 309.8635 
L 445.26186 309.8635 
L 447.48 309.8635 
L 447.48 309.8635 
L 447.48 309.8635 
L 445.26186 309.8635 
L 443.115273 309.8635 
L 440.897133 309.8635 
L 438.750546 309.8635 
L 436.532407 309.8635 
L 434.314267 309.8635 
L 432.16768 309.8635 
L 429.94954 309.8635 
L 427.802953 309.8635 
L 425.584813 309.8635 
L 423.509779 309.8635 
L 421.291639 309.8635 
L 419.073499 309.8635 
L 416.926912 309.8635 
L 414.708772 309.8635 
L 412.562185 309.8635 
L 410.344046 309.8635 
L 408.125906 309.8635 
L 405.979319 309.8635 
L 403.761179 79.864744 
L 401.614592 49.864907 
L 399.396452 47.007779 
L 397.392971 47.007779 
L 395.174831 47.007779 
L 392.956691 49.864907 
L 390.810104 47.007779 
L 388.591964 48.436343 
L 386.445377 51.29347 
L 384.227238 52.722034 
L 382.009098 52.722034 
L 379.862511 52.722034 
L 377.644371 62.364839 
L 375.497784 62.364839 
L 373.279644 48.436343 
L 371.276163 51.29347 
L 369.058023 49.864907 
L 366.839883 49.864907 
L 364.693296 49.864907 
L 362.475156 49.864907 
L 360.328569 49.864907 
L 358.11043 57.007725 
L 355.89229 68.436235 
L 353.745703 52.722034 
L 351.527563 48.436343 
L 349.380976 48.436343 
L 347.162836 207.006914 
L 345.159355 48.436343 
L 342.941215 49.864907 
L 340.723075 51.29347 
L 338.576488 49.864907 
L 336.358348 49.864907 
L 334.211761 48.436343 
L 331.993622 51.29347 
L 329.775482 51.29347 
L 327.628895 52.722034 
L 325.410755 51.29347 
L 323.264168 49.864907 
L 321.046028 49.864907 
L 318.970994 48.436343 
L 316.752854 48.436343 
L 314.534714 48.436343 
L 312.388127 48.436343 
L 310.169987 49.864907 
L 308.0234 48.436343 
L 305.805261 49.864907 
L 303.587121 48.436343 
L 301.440534 51.29347 
L 299.222394 47.007779 
L 297.075807 48.436343 
L 294.857667 48.436343 
L 292.854186 49.864907 
L 290.636046 48.436343 
L 288.417906 139.86442 
L 286.271319 82.721872 
L 284.053179 49.864907 
L 281.906592 49.864907 
L 279.688453 49.864907 
L 277.470313 49.864907 
L 275.323726 49.864907 
L 273.105586 49.864907 
L 270.958999 49.864907 
L 268.740859 48.436343 
L 266.737378 60.936275 
L 264.519238 55.579161 
L 262.301098 57.007725 
L 260.154511 62.72198 
L 257.936371 64.150544 
L 255.789784 49.864907 
L 253.571645 51.29347 
L 251.353505 54.150598 
L 249.206918 54.150598 
L 246.988778 52.722034 
L 244.842191 152.721493 
L 242.624051 51.29347 
L 240.62057 55.579161 
L 238.40243 49.864907 
L 236.18429 49.864907 
L 234.037703 52.722034 
L 231.819563 48.436343 
L 229.672976 49.864907 
L 227.454837 51.29347 
L 225.236697 54.150598 
L 223.09011 54.150598 
L 220.87197 208.435477 
L 218.725383 208.435477 
L 216.507243 57.007725 
L 214.432209 54.150598 
L 212.214069 54.150598 
L 209.995929 52.722034 
L 207.849342 52.722034 
L 205.631202 55.579161 
L 203.484616 52.722034 
L 201.266476 54.150598 
L 199.048336 52.722034 
L 196.901749 52.722034 
L 194.683609 51.29347 
L 192.537022 52.722034 
L 190.318882 52.722034 
L 188.315401 49.864907 
L 186.097261 51.29347 
L 183.879121 49.864907 
L 181.732534 49.864907 
L 179.514394 51.29347 
L 177.367808 52.722034 
L 175.149668 54.150598 
L 172.931528 51.29347 
L 170.784941 52.722034 
L 168.566801 52.722034 
L 166.420214 57.007725 
L 164.202074 48.436343 
L 162.198593 48.436343 
L 159.980453 47.007779 
L 157.762313 48.436343 
L 155.615726 48.436343 
L 153.397586 49.864907 
L 151.250999 47.007779 
L 149.03286 42.722088 
L 146.81472 42.722088 
L 144.668133 42.722088 
L 142.449993 42.722088 
L 140.303406 41.293524 
L 138.085266 41.293524 
L 136.081785 90.936113 
L 133.863645 149.864366 
L 131.645505 149.864366 
L 129.498918 69.864798 
L 127.280778 52.722034 
L 125.134191 49.864907 
L 122.916052 48.436343 
L 120.697912 49.864907 
L 118.551325 207.006914 
L 116.333185 59.864853 
L 114.186598 58.436289 
L 111.968458 52.722034 
L 109.893424 69.864798 
L 107.675284 57.007725 
L 105.457144 51.29347 
L 103.310557 48.436343 
L 101.092418 47.007779 
L 98.945831 47.007779 
L 96.727691 47.007779 
L 94.509551 47.007779 
L 92.362964 47.007779 
L 90.144824 47.007779 
L 87.998237 48.436343 
L 85.780097 47.007779 
L 83.776616 47.007779 
L 81.558476 48.436343 
L 79.340336 47.007779 
L 77.193749 48.436343 
L 74.975609 64.150544 
L 72.829023 51.29347 
L 70.610883 48.436343 
L 68.392743 49.864907 
L 66.246156 47.007779 
L 64.028016 47.007779 
L 61.881429 68.436235 
L 59.663289 48.436343 
L 57.659808 47.007779 
L 55.441668 48.436343 
L 53.223528 51.29347 
L 51.076941 48.436343 
L 48.858801 47.007779 
L 46.712215 47.007779 
L 44.494075 47.007779 
L 42.275935 47.007779 
L 40.129348 48.436343 
L 37.911208 48.436343 
L 35.764621 49.864907 
L 33.546481 49.864907 
L 31.543 49.864907 
z
" style="fill:#808080;fill-opacity:0.6;"/>
   </g>
   <g id="matplotlib.axis_1">
    <g id="xtick_1">
     <g id="line2d_1">
      <path clip-path="url(#p59492c66dd)" d="M 81.630029 309.8635 
L 81.630029 23.36505 
" style="fill:none;stroke:#b0b0b0;stroke-linecap:square;stroke-width:0.8;"/>
     </g>
     <g id="line2d_2">
      <defs>
       <path d="M 0 0 
L 0 3.5 
" id="m19e18f6c37" style="stroke:#000000;stroke-width:0.8;"/>
      </defs>
      <g>
       <use style="stroke:#000000;stroke-width:0.8;" x="81.630029" xlink:href="#m19e18f6c37" y="309.8635"/>
      </g>
     </g>
     <g id="text_1">
      <!-- 2003 -->
      <defs>
       <path d="M 19.1875 8.296875 
L 53.609375 8.296875 
L 53.609375 0 
L 7.328125 0 
L 7.328125 8.296875 
Q 12.9375 14.109375 22.625 23.890625 
Q 32.328125 33.6875 34.8125 36.53125 
Q 39.546875 41.84375 41.421875 45.53125 
Q 43.3125 49.21875 43.3125 52.78125 
Q 43.3125 58.59375 39.234375 62.25 
Q 35.15625 65.921875 28.609375 65.921875 
Q 23.96875 65.921875 18.8125 64.3125 
Q 13.671875 62.703125 7.8125 59.421875 
L 7.8125 69.390625 
Q 13.765625 71.78125 18.9375 73 
Q 24.125 74.21875 28.421875 74.21875 
Q 39.75 74.21875 46.484375 68.546875 
Q 53.21875 62.890625 53.21875 53.421875 
Q 53.21875 48.921875 51.53125 44.890625 
Q 49.859375 40.875 45.40625 35.40625 
Q 44.1875 33.984375 37.640625 27.21875 
Q 31.109375 20.453125 19.1875 8.296875 
z
" id="DejaVuSans-32"/>
       <path d="M 31.78125 66.40625 
Q 24.171875 66.40625 20.328125 58.90625 
Q 16.5 51.421875 16.5 36.375 
Q 16.5 21.390625 20.328125 13.890625 
Q 24.171875 6.390625 31.78125 6.390625 
Q 39.453125 6.390625 43.28125 13.890625 
Q 47.125 21.390625 47.125 36.375 
Q 47.125 51.421875 43.28125 58.90625 
Q 39.453125 66.40625 31.78125 66.40625 
z
M 31.78125 74.21875 
Q 44.046875 74.21875 50.515625 64.515625 
Q 56.984375 54.828125 56.984375 36.375 
Q 56.984375 17.96875 50.515625 8.265625 
Q 44.046875 -1.421875 31.78125 -1.421875 
Q 19.53125 -1.421875 13.0625 8.265625 
Q 6.59375 17.96875 6.59375 36.375 
Q 6.59375 54.828125 13.0625 64.515625 
Q 19.53125 74.21875 31.78125 74.21875 
z
" id="DejaVuSans-30"/>
       <path d="M 40.578125 39.3125 
Q 47.65625 37.796875 51.625 33 
Q 55.609375 28.21875 55.609375 21.1875 
Q 55.609375 10.40625 48.1875 4.484375 
Q 40.765625 -1.421875 27.09375 -1.421875 
Q 22.515625 -1.421875 17.65625 -0.515625 
Q 12.796875 0.390625 7.625 2.203125 
L 7.625 11.71875 
Q 11.71875 9.328125 16.59375 8.109375 
Q 21.484375 6.890625 26.8125 6.890625 
Q 36.078125 6.890625 40.9375 10.546875 
Q 45.796875 14.203125 45.796875 21.1875 
Q 45.796875 27.640625 41.28125 31.265625 
Q 36.765625 34.90625 28.71875 34.90625 
L 20.21875 34.90625 
L 20.21875 43.015625 
L 29.109375 43.015625 
Q 36.375 43.015625 40.234375 45.921875 
Q 44.09375 48.828125 44.09375 54.296875 
Q 44.09375 59.90625 40.109375 62.90625 
Q 36.140625 65.921875 28.71875 65.921875 
Q 24.65625 65.921875 20.015625 65.03125 
Q 15.375 64.15625 9.8125 62.3125 
L 9.8125 71.09375 
Q 15.4375 72.65625 20.34375 73.4375 
Q 25.25 74.21875 29.59375 74.21875 
Q 40.828125 74.21875 47.359375 69.109375 
Q 53.90625 64.015625 53.90625 55.328125 
Q 53.90625 49.265625 50.4375 45.09375 
Q 46.96875 40.921875 40.578125 39.3125 
z
" id="DejaVuSans-33"/>
      </defs>
      <g transform="translate(68.905029 324.461937)scale(0.1 -0.1)">
       <use xlink:href="#DejaVuSans-32"/>
       <use x="63.623047" xlink:href="#DejaVuSans-30"/>
       <use x="127.246094" xlink:href="#DejaVuSans-30"/>
       <use x="190.869141" xlink:href="#DejaVuSans-33"/>
      </g>
     </g>
    </g>
    <g id="xtick_2">
     <g id="line2d_3">
      <path clip-path="url(#p59492c66dd)" d="M 133.935198 309.8635 
L 133.935198 23.36505 
" style="fill:none;stroke:#b0b0b0;stroke-linecap:square;stroke-width:0.8;"/>
     </g>
     <g id="line2d_4">
      <g>
       <use style="stroke:#000000;stroke-width:0.8;" x="133.935198" xlink:href="#m19e18f6c37" y="309.8635"/>
      </g>
     </g>
     <g id="text_2">
      <!-- 2005 -->
      <defs>
       <path d="M 10.796875 72.90625 
L 49.515625 72.90625 
L 49.515625 64.59375 
L 19.828125 64.59375 
L 19.828125 46.734375 
Q 21.96875 47.46875 24.109375 47.828125 
Q 26.265625 48.1875 28.421875 48.1875 
Q 40.625 48.1875 47.75 41.5 
Q 54.890625 34.8125 54.890625 23.390625 
Q 54.890625 11.625 47.5625 5.09375 
Q 40.234375 -1.421875 26.90625 -1.421875 
Q 22.3125 -1.421875 17.546875 -0.640625 
Q 12.796875 0.140625 7.71875 1.703125 
L 7.71875 11.625 
Q 12.109375 9.234375 16.796875 8.0625 
Q 21.484375 6.890625 26.703125 6.890625 
Q 35.15625 6.890625 40.078125 11.328125 
Q 45.015625 15.765625 45.015625 23.390625 
Q 45.015625 31 40.078125 35.4375 
Q 35.15625 39.890625 26.703125 39.890625 
Q 22.75 39.890625 18.8125 39.015625 
Q 14.890625 38.140625 10.796875 36.28125 
z
" id="DejaVuSans-35"/>
      </defs>
      <g transform="translate(121.210198 324.461937)scale(0.1 -0.1)">
       <use xlink:href="#DejaVuSans-32"/>
       <use x="63.623047" xlink:href="#DejaVuSans-30"/>
       <use x="127.246094" xlink:href="#DejaVuSans-30"/>
       <use x="190.869141" xlink:href="#DejaVuSans-35"/>
      </g>
     </g>
    </g>
    <g id="xtick_3">
     <g id="line2d_5">
      <path clip-path="url(#p59492c66dd)" d="M 186.168814 309.8635 
L 186.168814 23.36505 
" style="fill:none;stroke:#b0b0b0;stroke-linecap:square;stroke-width:0.8;"/>
     </g>
     <g id="line2d_6">
      <g>
       <use style="stroke:#000000;stroke-width:0.8;" x="186.168814" xlink:href="#m19e18f6c37" y="309.8635"/>
      </g>
     </g>
     <g id="text_3">
      <!-- 2007 -->
      <defs>
       <path d="M 8.203125 72.90625 
L 55.078125 72.90625 
L 55.078125 68.703125 
L 28.609375 0 
L 18.3125 0 
L 43.21875 64.59375 
L 8.203125 64.59375 
z
" id="DejaVuSans-37"/>
      </defs>
      <g transform="translate(173.443814 324.461937)scale(0.1 -0.1)">
       <use xlink:href="#DejaVuSans-32"/>
       <use x="63.623047" xlink:href="#DejaVuSans-30"/>
       <use x="127.246094" xlink:href="#DejaVuSans-30"/>
       <use x="190.869141" xlink:href="#DejaVuSans-37"/>
      </g>
     </g>
    </g>
    <g id="xtick_4">
     <g id="line2d_7">
      <path clip-path="url(#p59492c66dd)" d="M 238.473983 309.8635 
L 238.473983 23.36505 
" style="fill:none;stroke:#b0b0b0;stroke-linecap:square;stroke-width:0.8;"/>
     </g>
     <g id="line2d_8">
      <g>
       <use style="stroke:#000000;stroke-width:0.8;" x="238.473983" xlink:href="#m19e18f6c37" y="309.8635"/>
      </g>
     </g>
     <g id="text_4">
      <!-- 2009 -->
      <defs>
       <path d="M 10.984375 1.515625 
L 10.984375 10.5 
Q 14.703125 8.734375 18.5 7.8125 
Q 22.3125 6.890625 25.984375 6.890625 
Q 35.75 6.890625 40.890625 13.453125 
Q 46.046875 20.015625 46.78125 33.40625 
Q 43.953125 29.203125 39.59375 26.953125 
Q 35.25 24.703125 29.984375 24.703125 
Q 19.046875 24.703125 12.671875 31.3125 
Q 6.296875 37.9375 6.296875 49.421875 
Q 6.296875 60.640625 12.9375 67.421875 
Q 19.578125 74.21875 30.609375 74.21875 
Q 43.265625 74.21875 49.921875 64.515625 
Q 56.59375 54.828125 56.59375 36.375 
Q 56.59375 19.140625 48.40625 8.859375 
Q 40.234375 -1.421875 26.421875 -1.421875 
Q 22.703125 -1.421875 18.890625 -0.6875 
Q 15.09375 0.046875 10.984375 1.515625 
z
M 30.609375 32.421875 
Q 37.25 32.421875 41.125 36.953125 
Q 45.015625 41.5 45.015625 49.421875 
Q 45.015625 57.28125 41.125 61.84375 
Q 37.25 66.40625 30.609375 66.40625 
Q 23.96875 66.40625 20.09375 61.84375 
Q 16.21875 57.28125 16.21875 49.421875 
Q 16.21875 41.5 20.09375 36.953125 
Q 23.96875 32.421875 30.609375 32.421875 
z
" id="DejaVuSans-39"/>
      </defs>
      <g transform="translate(225.748983 324.461937)scale(0.1 -0.1)">
       <use xlink:href="#DejaVuSans-32"/>
       <use x="63.623047" xlink:href="#DejaVuSans-30"/>
       <use x="127.246094" xlink:href="#DejaVuSans-30"/>
       <use x="190.869141" xlink:href="#DejaVuSans-39"/>
      </g>
     </g>
    </g>
    <g id="xtick_5">
     <g id="line2d_9">
      <path clip-path="url(#p59492c66dd)" d="M 290.707599 309.8635 
L 290.707599 23.36505 
" style="fill:none;stroke:#b0b0b0;stroke-linecap:square;stroke-width:0.8;"/>
     </g>
     <g id="line2d_10">
      <g>
       <use style="stroke:#000000;stroke-width:0.8;" x="290.707599" xlink:href="#m19e18f6c37" y="309.8635"/>
      </g>
     </g>
     <g id="text_5">
      <!-- 2011 -->
      <defs>
       <path d="M 12.40625 8.296875 
L 28.515625 8.296875 
L 28.515625 63.921875 
L 10.984375 60.40625 
L 10.984375 69.390625 
L 28.421875 72.90625 
L 38.28125 72.90625 
L 38.28125 8.296875 
L 54.390625 8.296875 
L 54.390625 0 
L 12.40625 0 
z
" id="DejaVuSans-31"/>
      </defs>
      <g transform="translate(277.982599 324.461937)scale(0.1 -0.1)">
       <use xlink:href="#DejaVuSans-32"/>
       <use x="63.623047" xlink:href="#DejaVuSans-30"/>
       <use x="127.246094" xlink:href="#DejaVuSans-31"/>
       <use x="190.869141" xlink:href="#DejaVuSans-31"/>
      </g>
     </g>
    </g>
    <g id="xtick_6">
     <g id="line2d_11">
      <path clip-path="url(#p59492c66dd)" d="M 343.012768 309.8635 
L 343.012768 23.36505 
" style="fill:none;stroke:#b0b0b0;stroke-linecap:square;stroke-width:0.8;"/>
     </g>
     <g id="line2d_12">
      <g>
       <use style="stroke:#000000;stroke-width:0.8;" x="343.012768" xlink:href="#m19e18f6c37" y="309.8635"/>
      </g>
     </g>
     <g id="text_6">
      <!-- 2013 -->
      <g transform="translate(330.287768 324.461937)scale(0.1 -0.1)">
       <use xlink:href="#DejaVuSans-32"/>
       <use x="63.623047" xlink:href="#DejaVuSans-30"/>
       <use x="127.246094" xlink:href="#DejaVuSans-31"/>
       <use x="190.869141" xlink:href="#DejaVuSans-33"/>
      </g>
     </g>
    </g>
    <g id="xtick_7">
     <g id="line2d_13">
      <path clip-path="url(#p59492c66dd)" d="M 395.246384 309.8635 
L 395.246384 23.36505 
" style="fill:none;stroke:#b0b0b0;stroke-linecap:square;stroke-width:0.8;"/>
     </g>
     <g id="line2d_14">
      <g>
       <use style="stroke:#000000;stroke-width:0.8;" x="395.246384" xlink:href="#m19e18f6c37" y="309.8635"/>
      </g>
     </g>
     <g id="text_7">
      <!-- 2015 -->
      <g transform="translate(382.521384 324.461937)scale(0.1 -0.1)">
       <use xlink:href="#DejaVuSans-32"/>
       <use x="63.623047" xlink:href="#DejaVuSans-30"/>
       <use x="127.246094" xlink:href="#DejaVuSans-31"/>
       <use x="190.869141" xlink:href="#DejaVuSans-35"/>
      </g>
     </g>
    </g>
    <g id="text_8">
     <!-- Date -->
     <defs>
      <path d="M 19.671875 64.796875 
L 19.671875 8.109375 
L 31.59375 8.109375 
Q 46.6875 8.109375 53.6875 14.9375 
Q 60.6875 21.78125 60.6875 36.53125 
Q 60.6875 51.171875 53.6875 57.984375 
Q 46.6875 64.796875 31.59375 64.796875 
z
M 9.8125 72.90625 
L 30.078125 72.90625 
Q 51.265625 72.90625 61.171875 64.09375 
Q 71.09375 55.28125 71.09375 36.53125 
Q 71.09375 17.671875 61.125 8.828125 
Q 51.171875 0 30.078125 0 
L 9.8125 0 
z
" id="DejaVuSans-44"/>
      <path d="M 34.28125 27.484375 
Q 23.390625 27.484375 19.1875 25 
Q 14.984375 22.515625 14.984375 16.5 
Q 14.984375 11.71875 18.140625 8.90625 
Q 21.296875 6.109375 26.703125 6.109375 
Q 34.1875 6.109375 38.703125 11.40625 
Q 43.21875 16.703125 43.21875 25.484375 
L 43.21875 27.484375 
z
M 52.203125 31.203125 
L 52.203125 0 
L 43.21875 0 
L 43.21875 8.296875 
Q 40.140625 3.328125 35.546875 0.953125 
Q 30.953125 -1.421875 24.3125 -1.421875 
Q 15.921875 -1.421875 10.953125 3.296875 
Q 6 8.015625 6 15.921875 
Q 6 25.140625 12.171875 29.828125 
Q 18.359375 34.515625 30.609375 34.515625 
L 43.21875 34.515625 
L 43.21875 35.40625 
Q 43.21875 41.609375 39.140625 45 
Q 35.0625 48.390625 27.6875 48.390625 
Q 23 48.390625 18.546875 47.265625 
Q 14.109375 46.140625 10.015625 43.890625 
L 10.015625 52.203125 
Q 14.9375 54.109375 19.578125 55.046875 
Q 24.21875 56 28.609375 56 
Q 40.484375 56 46.34375 49.84375 
Q 52.203125 43.703125 52.203125 31.203125 
z
" id="DejaVuSans-61"/>
      <path d="M 18.3125 70.21875 
L 18.3125 54.6875 
L 36.8125 54.6875 
L 36.8125 47.703125 
L 18.3125 47.703125 
L 18.3125 18.015625 
Q 18.3125 11.328125 20.140625 9.421875 
Q 21.96875 7.515625 27.59375 7.515625 
L 36.8125 7.515625 
L 36.8125 0 
L 27.59375 0 
Q 17.1875 0 13.234375 3.875 
Q 9.28125 7.765625 9.28125 18.015625 
L 9.28125 47.703125 
L 2.6875 47.703125 
L 2.6875 54.6875 
L 9.28125 54.6875 
L 9.28125 70.21875 
z
" id="DejaVuSans-74"/>
      <path d="M 56.203125 29.59375 
L 56.203125 25.203125 
L 14.890625 25.203125 
Q 15.484375 15.921875 20.484375 11.0625 
Q 25.484375 6.203125 34.421875 6.203125 
Q 39.59375 6.203125 44.453125 7.46875 
Q 49.3125 8.734375 54.109375 11.28125 
L 54.109375 2.78125 
Q 49.265625 0.734375 44.1875 -0.34375 
Q 39.109375 -1.421875 33.890625 -1.421875 
Q 20.796875 -1.421875 13.15625 6.1875 
Q 5.515625 13.8125 5.515625 26.8125 
Q 5.515625 40.234375 12.765625 48.109375 
Q 20.015625 56 32.328125 56 
Q 43.359375 56 49.78125 48.890625 
Q 56.203125 41.796875 56.203125 29.59375 
z
M 47.21875 32.234375 
Q 47.125 39.59375 43.09375 43.984375 
Q 39.0625 48.390625 32.421875 48.390625 
Q 24.90625 48.390625 20.390625 44.140625 
Q 15.875 39.890625 15.1875 32.171875 
z
" id="DejaVuSans-65"/>
     </defs>
     <g transform="translate(227.560719 338.140062)scale(0.1 -0.1)">
      <use xlink:href="#DejaVuSans-44"/>
      <use x="77.001953" xlink:href="#DejaVuSans-61"/>
      <use x="138.28125" xlink:href="#DejaVuSans-74"/>
      <use x="177.490234" xlink:href="#DejaVuSans-65"/>
     </g>
    </g>
   </g>
   <g id="matplotlib.axis_2">
    <g id="ytick_1">
     <g id="line2d_15">
      <path clip-path="url(#p59492c66dd)" d="M 31.543 309.8635 
L 447.48 309.8635 
" style="fill:none;stroke:#b0b0b0;stroke-linecap:square;stroke-width:0.8;"/>
     </g>
     <g id="line2d_16">
      <defs>
       <path d="M 0 0 
L -3.5 0 
" id="mc6befcc0f4" style="stroke:#000000;stroke-width:0.8;"/>
      </defs>
      <g>
       <use style="stroke:#000000;stroke-width:0.8;" x="31.543" xlink:href="#mc6befcc0f4" y="309.8635"/>
      </g>
     </g>
     <g id="text_9">
      <!-- 0 -->
      <g transform="translate(18.1805 313.662719)scale(0.1 -0.1)">
       <use xlink:href="#DejaVuSans-30"/>
      </g>
     </g>
    </g>
    <g id="ytick_2">
     <g id="line2d_17">
      <path clip-path="url(#p59492c66dd)" d="M 31.543 274.149408 
L 447.48 274.149408 
" style="fill:none;stroke:#b0b0b0;stroke-linecap:square;stroke-width:0.8;"/>
     </g>
     <g id="line2d_18">
      <g>
       <use style="stroke:#000000;stroke-width:0.8;" x="31.543" xlink:href="#mc6befcc0f4" y="274.149408"/>
      </g>
     </g>
     <g id="text_10">
      <!-- 25 -->
      <g transform="translate(11.818 277.948626)scale(0.1 -0.1)">
       <use xlink:href="#DejaVuSans-32"/>
       <use x="63.623047" xlink:href="#DejaVuSans-35"/>
      </g>
     </g>
    </g>
    <g id="ytick_3">
     <g id="line2d_19">
      <path clip-path="url(#p59492c66dd)" d="M 31.543 238.435315 
L 447.48 238.435315 
" style="fill:none;stroke:#b0b0b0;stroke-linecap:square;stroke-width:0.8;"/>
     </g>
     <g id="line2d_20">
      <g>
       <use style="stroke:#000000;stroke-width:0.8;" x="31.543" xlink:href="#mc6befcc0f4" y="238.435315"/>
      </g>
     </g>
     <g id="text_11">
      <!-- 50 -->
      <g transform="translate(11.818 242.234534)scale(0.1 -0.1)">
       <use xlink:href="#DejaVuSans-35"/>
       <use x="63.623047" xlink:href="#DejaVuSans-30"/>
      </g>
     </g>
    </g>
    <g id="ytick_4">
     <g id="line2d_21">
      <path clip-path="url(#p59492c66dd)" d="M 31.543 202.721223 
L 447.48 202.721223 
" style="fill:none;stroke:#b0b0b0;stroke-linecap:square;stroke-width:0.8;"/>
     </g>
     <g id="line2d_22">
      <g>
       <use style="stroke:#000000;stroke-width:0.8;" x="31.543" xlink:href="#mc6befcc0f4" y="202.721223"/>
      </g>
     </g>
     <g id="text_12">
      <!-- 75 -->
      <g transform="translate(11.818 206.520441)scale(0.1 -0.1)">
       <use xlink:href="#DejaVuSans-37"/>
       <use x="63.623047" xlink:href="#DejaVuSans-35"/>
      </g>
     </g>
    </g>
    <g id="ytick_5">
     <g id="line2d_23">
      <path clip-path="url(#p59492c66dd)" d="M 31.543 167.00713 
L 447.48 167.00713 
" style="fill:none;stroke:#b0b0b0;stroke-linecap:square;stroke-width:0.8;"/>
     </g>
     <g id="line2d_24">
      <g>
       <use style="stroke:#000000;stroke-width:0.8;" x="31.543" xlink:href="#mc6befcc0f4" y="167.00713"/>
      </g>
     </g>
     <g id="text_13">
      <!-- 100 -->
      <g transform="translate(5.4555 170.806349)scale(0.1 -0.1)">
       <use xlink:href="#DejaVuSans-31"/>
       <use x="63.623047" xlink:href="#DejaVuSans-30"/>
       <use x="127.246094" xlink:href="#DejaVuSans-30"/>
      </g>
     </g>
    </g>
    <g id="ytick_6">
     <g id="line2d_25">
      <path clip-path="url(#p59492c66dd)" d="M 31.543 131.293038 
L 447.48 131.293038 
" style="fill:none;stroke:#b0b0b0;stroke-linecap:square;stroke-width:0.8;"/>
     </g>
     <g id="line2d_26">
      <g>
       <use style="stroke:#000000;stroke-width:0.8;" x="31.543" xlink:href="#mc6befcc0f4" y="131.293038"/>
      </g>
     </g>
     <g id="text_14">
      <!-- 125 -->
      <g transform="translate(5.4555 135.092256)scale(0.1 -0.1)">
       <use xlink:href="#DejaVuSans-31"/>
       <use x="63.623047" xlink:href="#DejaVuSans-32"/>
       <use x="127.246094" xlink:href="#DejaVuSans-35"/>
      </g>
     </g>
    </g>
    <g id="ytick_7">
     <g id="line2d_27">
      <path clip-path="url(#p59492c66dd)" d="M 31.543 95.578945 
L 447.48 95.578945 
" style="fill:none;stroke:#b0b0b0;stroke-linecap:square;stroke-width:0.8;"/>
     </g>
     <g id="line2d_28">
      <g>
       <use style="stroke:#000000;stroke-width:0.8;" x="31.543" xlink:href="#mc6befcc0f4" y="95.578945"/>
      </g>
     </g>
     <g id="text_15">
      <!-- 150 -->
      <g transform="translate(5.4555 99.378164)scale(0.1 -0.1)">
       <use xlink:href="#DejaVuSans-31"/>
       <use x="63.623047" xlink:href="#DejaVuSans-35"/>
       <use x="127.246094" xlink:href="#DejaVuSans-30"/>
      </g>
     </g>
    </g>
    <g id="ytick_8">
     <g id="line2d_29">
      <path clip-path="url(#p59492c66dd)" d="M 31.543 59.864853 
L 447.48 59.864853 
" style="fill:none;stroke:#b0b0b0;stroke-linecap:square;stroke-width:0.8;"/>
     </g>
     <g id="line2d_30">
      <g>
       <use style="stroke:#000000;stroke-width:0.8;" x="31.543" xlink:href="#mc6befcc0f4" y="59.864853"/>
      </g>
     </g>
     <g id="text_16">
      <!-- 175 -->
      <g transform="translate(5.4555 63.664071)scale(0.1 -0.1)">
       <use xlink:href="#DejaVuSans-31"/>
       <use x="63.623047" xlink:href="#DejaVuSans-37"/>
       <use x="127.246094" xlink:href="#DejaVuSans-35"/>
      </g>
     </g>
    </g>
    <g id="ytick_9">
     <g id="line2d_31">
      <path clip-path="url(#p59492c66dd)" d="M 31.543 24.15076 
L 447.48 24.15076 
" style="fill:none;stroke:#b0b0b0;stroke-linecap:square;stroke-width:0.8;"/>
     </g>
     <g id="line2d_32">
      <g>
       <use style="stroke:#000000;stroke-width:0.8;" x="31.543" xlink:href="#mc6befcc0f4" y="24.15076"/>
      </g>
     </g>
     <g id="text_17">
      <!-- 200 -->
      <g transform="translate(5.4555 27.949979)scale(0.1 -0.1)">
       <use xlink:href="#DejaVuSans-32"/>
       <use x="63.623047" xlink:href="#DejaVuSans-30"/>
       <use x="127.246094" xlink:href="#DejaVuSans-30"/>
      </g>
     </g>
    </g>
   </g>
   <g id="line2d_33">
    <path clip-path="url(#p59492c66dd)" d="M 31.543 51.29347 
L 33.546481 49.864907 
L 35.764621 52.722034 
L 37.911208 49.864907 
L 40.129348 49.864907 
L 42.275935 48.436343 
L 48.858801 48.436343 
L 51.076941 51.29347 
L 53.223528 89.86469 
L 55.441668 51.29347 
L 57.659808 54.150598 
L 59.663289 51.29347 
L 61.881429 78.436181 
L 64.028016 48.436343 
L 66.246156 48.436343 
L 68.392743 56.293443 
L 70.610883 52.722034 
L 72.829023 77.007617 
L 74.975609 93.436099 
L 77.193749 49.864907 
L 79.340336 48.436343 
L 81.558476 69.864798 
L 83.776616 48.436343 
L 85.780097 48.436343 
L 87.998237 49.864907 
L 92.362964 49.864907 
L 94.509551 48.436343 
L 101.092418 48.436343 
L 103.310557 69.864798 
L 105.457144 82.721872 
L 107.675284 91.293254 
L 109.893424 79.864744 
L 111.968458 62.72198 
L 114.186598 64.150544 
L 116.333185 77.007617 
L 118.551325 208.435477 
L 120.697912 52.722034 
L 122.916052 49.864907 
L 125.134191 52.722034 
L 127.280778 69.864798 
L 129.498918 149.864366 
L 131.645505 151.292929 
L 133.863645 151.292929 
L 136.081785 149.864366 
L 138.085266 44.150652 
L 142.449993 44.150652 
L 144.668133 47.007779 
L 146.81472 45.579216 
L 149.03286 45.579216 
L 151.250999 64.150544 
L 153.397586 61.293416 
L 155.615726 49.864907 
L 157.762313 51.29347 
L 159.980453 59.864853 
L 162.198593 51.29347 
L 164.202074 51.29347 
L 166.420214 67.007671 
L 168.566801 74.15049 
L 170.784941 59.864853 
L 172.931528 54.150598 
L 175.149668 81.293308 
L 177.367808 55.579161 
L 179.514394 54.150598 
L 181.732534 51.29347 
L 183.879121 90.578972 
L 186.097261 52.722034 
L 188.315401 52.722034 
L 190.318882 54.150598 
L 192.537022 55.579161 
L 194.683609 52.722034 
L 196.901749 52.722034 
L 201.266476 55.579161 
L 203.484616 54.150598 
L 205.631202 84.150435 
L 207.849342 54.150598 
L 209.995929 54.150598 
L 212.214069 55.579161 
L 214.432209 55.579161 
L 216.507243 59.864853 
L 218.725383 208.435477 
L 220.87197 208.435477 
L 223.09011 58.436289 
L 225.236697 57.007725 
L 227.454837 51.29347 
L 229.672976 51.29347 
L 231.819563 49.864907 
L 234.037703 78.436181 
L 236.18429 61.293416 
L 238.40243 55.579161 
L 240.62057 84.150435 
L 242.624051 67.007671 
L 244.842191 177.007076 
L 246.988778 95.578945 
L 249.206918 74.15049 
L 251.353505 88.436127 
L 253.571645 68.436235 
L 255.789784 62.72198 
L 257.936371 67.007671 
L 260.154511 78.436181 
L 262.301098 81.293308 
L 264.519238 149.864366 
L 266.737378 81.293308 
L 268.740859 54.150598 
L 270.958999 54.150598 
L 273.105586 52.722034 
L 275.323726 71.293362 
L 277.470313 52.722034 
L 279.688453 51.29347 
L 281.906592 51.29347 
L 284.053179 59.864853 
L 286.271319 97.007509 
L 288.417906 155.57862 
L 290.636046 55.579161 
L 292.854186 58.436289 
L 294.857667 81.293308 
L 297.075807 66.293389 
L 299.222394 59.864853 
L 301.440534 119.864528 
L 303.587121 67.007671 
L 305.805261 52.722034 
L 308.0234 49.864907 
L 310.169987 51.29347 
L 312.388127 51.29347 
L 314.534714 48.436343 
L 316.752854 55.579161 
L 318.970994 71.293362 
L 321.046028 77.007617 
L 323.264168 64.150544 
L 325.410755 81.293308 
L 327.628895 95.578945 
L 329.775482 84.150435 
L 331.993622 92.721818 
L 334.211761 51.29347 
L 336.358348 51.29347 
L 338.576488 52.722034 
L 340.723075 84.150435 
L 342.941215 71.293362 
L 345.159355 49.864907 
L 347.162836 207.006914 
L 349.380976 54.150598 
L 351.527563 91.293254 
L 353.745703 114.150273 
L 355.89229 125.578783 
L 358.11043 74.15049 
L 360.328569 68.436235 
L 362.475156 64.150544 
L 364.693296 87.007563 
L 366.839883 54.86488 
L 369.058023 75.579053 
L 371.276163 94.150381 
L 373.279644 52.722034 
L 375.497784 127.007346 
L 377.644371 125.578783 
L 379.862511 64.150544 
L 382.009098 84.150435 
L 384.227238 67.721953 
L 386.445377 52.722034 
L 388.591964 51.29347 
L 390.810104 48.436343 
L 392.956691 78.436181 
L 395.174831 48.436343 
L 397.392971 51.29347 
L 399.396452 49.864907 
L 401.614592 82.721872 
L 403.761179 309.8635 
L 447.48 309.8635 
L 447.48 309.8635 
" style="fill:none;stroke:#1f77b4;stroke-linecap:square;stroke-width:1.5;"/>
   </g>
   <g id="patch_3">
    <path d="M 31.543 309.8635 
L 31.543 23.36505 
" style="fill:none;stroke:#000000;stroke-linecap:square;stroke-linejoin:miter;stroke-width:0.8;"/>
   </g>
   <g id="patch_4">
    <path d="M 447.48 309.8635 
L 447.48 23.36505 
" style="fill:none;stroke:#000000;stroke-linecap:square;stroke-linejoin:miter;stroke-width:0.8;"/>
   </g>
   <g id="patch_5">
    <path d="M 31.543 309.8635 
L 447.48 309.8635 
" style="fill:none;stroke:#000000;stroke-linecap:square;stroke-linejoin:miter;stroke-width:0.8;"/>
   </g>
   <g id="patch_6">
    <path d="M 31.543 23.36505 
L 447.48 23.36505 
" style="fill:none;stroke:#000000;stroke-linecap:square;stroke-linejoin:miter;stroke-width:0.8;"/>
   </g>
   <g id="text_18">
    <!-- Monthly gross load trend (MW) -->
    <defs>
     <path d="M 9.8125 72.90625 
L 24.515625 72.90625 
L 43.109375 23.296875 
L 61.8125 72.90625 
L 76.515625 72.90625 
L 76.515625 0 
L 66.890625 0 
L 66.890625 64.015625 
L 48.09375 14.015625 
L 38.1875 14.015625 
L 19.390625 64.015625 
L 19.390625 0 
L 9.8125 0 
z
" id="DejaVuSans-4d"/>
     <path d="M 30.609375 48.390625 
Q 23.390625 48.390625 19.1875 42.75 
Q 14.984375 37.109375 14.984375 27.296875 
Q 14.984375 17.484375 19.15625 11.84375 
Q 23.34375 6.203125 30.609375 6.203125 
Q 37.796875 6.203125 41.984375 11.859375 
Q 46.1875 17.53125 46.1875 27.296875 
Q 46.1875 37.015625 41.984375 42.703125 
Q 37.796875 48.390625 30.609375 48.390625 
z
M 30.609375 56 
Q 42.328125 56 49.015625 48.375 
Q 55.71875 40.765625 55.71875 27.296875 
Q 55.71875 13.875 49.015625 6.21875 
Q 42.328125 -1.421875 30.609375 -1.421875 
Q 18.84375 -1.421875 12.171875 6.21875 
Q 5.515625 13.875 5.515625 27.296875 
Q 5.515625 40.765625 12.171875 48.375 
Q 18.84375 56 30.609375 56 
z
" id="DejaVuSans-6f"/>
     <path d="M 54.890625 33.015625 
L 54.890625 0 
L 45.90625 0 
L 45.90625 32.71875 
Q 45.90625 40.484375 42.875 44.328125 
Q 39.84375 48.1875 33.796875 48.1875 
Q 26.515625 48.1875 22.3125 43.546875 
Q 18.109375 38.921875 18.109375 30.90625 
L 18.109375 0 
L 9.078125 0 
L 9.078125 54.6875 
L 18.109375 54.6875 
L 18.109375 46.1875 
Q 21.34375 51.125 25.703125 53.5625 
Q 30.078125 56 35.796875 56 
Q 45.21875 56 50.046875 50.171875 
Q 54.890625 44.34375 54.890625 33.015625 
z
" id="DejaVuSans-6e"/>
     <path d="M 54.890625 33.015625 
L 54.890625 0 
L 45.90625 0 
L 45.90625 32.71875 
Q 45.90625 40.484375 42.875 44.328125 
Q 39.84375 48.1875 33.796875 48.1875 
Q 26.515625 48.1875 22.3125 43.546875 
Q 18.109375 38.921875 18.109375 30.90625 
L 18.109375 0 
L 9.078125 0 
L 9.078125 75.984375 
L 18.109375 75.984375 
L 18.109375 46.1875 
Q 21.34375 51.125 25.703125 53.5625 
Q 30.078125 56 35.796875 56 
Q 45.21875 56 50.046875 50.171875 
Q 54.890625 44.34375 54.890625 33.015625 
z
" id="DejaVuSans-68"/>
     <path d="M 9.421875 75.984375 
L 18.40625 75.984375 
L 18.40625 0 
L 9.421875 0 
z
" id="DejaVuSans-6c"/>
     <path d="M 32.171875 -5.078125 
Q 28.375 -14.84375 24.75 -17.8125 
Q 21.140625 -20.796875 15.09375 -20.796875 
L 7.90625 -20.796875 
L 7.90625 -13.28125 
L 13.1875 -13.28125 
Q 16.890625 -13.28125 18.9375 -11.515625 
Q 21 -9.765625 23.484375 -3.21875 
L 25.09375 0.875 
L 2.984375 54.6875 
L 12.5 54.6875 
L 29.59375 11.921875 
L 46.6875 54.6875 
L 56.203125 54.6875 
z
" id="DejaVuSans-79"/>
     <path id="DejaVuSans-20"/>
     <path d="M 45.40625 27.984375 
Q 45.40625 37.75 41.375 43.109375 
Q 37.359375 48.484375 30.078125 48.484375 
Q 22.859375 48.484375 18.828125 43.109375 
Q 14.796875 37.75 14.796875 27.984375 
Q 14.796875 18.265625 18.828125 12.890625 
Q 22.859375 7.515625 30.078125 7.515625 
Q 37.359375 7.515625 41.375 12.890625 
Q 45.40625 18.265625 45.40625 27.984375 
z
M 54.390625 6.78125 
Q 54.390625 -7.171875 48.1875 -13.984375 
Q 42 -20.796875 29.203125 -20.796875 
Q 24.46875 -20.796875 20.265625 -20.09375 
Q 16.0625 -19.390625 12.109375 -17.921875 
L 12.109375 -9.1875 
Q 16.0625 -11.328125 19.921875 -12.34375 
Q 23.78125 -13.375 27.78125 -13.375 
Q 36.625 -13.375 41.015625 -8.765625 
Q 45.40625 -4.15625 45.40625 5.171875 
L 45.40625 9.625 
Q 42.625 4.78125 38.28125 2.390625 
Q 33.9375 0 27.875 0 
Q 17.828125 0 11.671875 7.65625 
Q 5.515625 15.328125 5.515625 27.984375 
Q 5.515625 40.671875 11.671875 48.328125 
Q 17.828125 56 27.875 56 
Q 33.9375 56 38.28125 53.609375 
Q 42.625 51.21875 45.40625 46.390625 
L 45.40625 54.6875 
L 54.390625 54.6875 
z
" id="DejaVuSans-67"/>
     <path d="M 41.109375 46.296875 
Q 39.59375 47.171875 37.8125 47.578125 
Q 36.03125 48 33.890625 48 
Q 26.265625 48 22.1875 43.046875 
Q 18.109375 38.09375 18.109375 28.8125 
L 18.109375 0 
L 9.078125 0 
L 9.078125 54.6875 
L 18.109375 54.6875 
L 18.109375 46.1875 
Q 20.953125 51.171875 25.484375 53.578125 
Q 30.03125 56 36.53125 56 
Q 37.453125 56 38.578125 55.875 
Q 39.703125 55.765625 41.0625 55.515625 
z
" id="DejaVuSans-72"/>
     <path d="M 44.28125 53.078125 
L 44.28125 44.578125 
Q 40.484375 46.53125 36.375 47.5 
Q 32.28125 48.484375 27.875 48.484375 
Q 21.1875 48.484375 17.84375 46.4375 
Q 14.5 44.390625 14.5 40.28125 
Q 14.5 37.15625 16.890625 35.375 
Q 19.28125 33.59375 26.515625 31.984375 
L 29.59375 31.296875 
Q 39.15625 29.25 43.1875 25.515625 
Q 47.21875 21.78125 47.21875 15.09375 
Q 47.21875 7.46875 41.1875 3.015625 
Q 35.15625 -1.421875 24.609375 -1.421875 
Q 20.21875 -1.421875 15.453125 -0.5625 
Q 10.6875 0.296875 5.421875 2 
L 5.421875 11.28125 
Q 10.40625 8.6875 15.234375 7.390625 
Q 20.0625 6.109375 24.8125 6.109375 
Q 31.15625 6.109375 34.5625 8.28125 
Q 37.984375 10.453125 37.984375 14.40625 
Q 37.984375 18.0625 35.515625 20.015625 
Q 33.0625 21.96875 24.703125 23.78125 
L 21.578125 24.515625 
Q 13.234375 26.265625 9.515625 29.90625 
Q 5.8125 33.546875 5.8125 39.890625 
Q 5.8125 47.609375 11.28125 51.796875 
Q 16.75 56 26.8125 56 
Q 31.78125 56 36.171875 55.265625 
Q 40.578125 54.546875 44.28125 53.078125 
z
" id="DejaVuSans-73"/>
     <path d="M 45.40625 46.390625 
L 45.40625 75.984375 
L 54.390625 75.984375 
L 54.390625 0 
L 45.40625 0 
L 45.40625 8.203125 
Q 42.578125 3.328125 38.25 0.953125 
Q 33.9375 -1.421875 27.875 -1.421875 
Q 17.96875 -1.421875 11.734375 6.484375 
Q 5.515625 14.40625 5.515625 27.296875 
Q 5.515625 40.1875 11.734375 48.09375 
Q 17.96875 56 27.875 56 
Q 33.9375 56 38.25 53.625 
Q 42.578125 51.265625 45.40625 46.390625 
z
M 14.796875 27.296875 
Q 14.796875 17.390625 18.875 11.75 
Q 22.953125 6.109375 30.078125 6.109375 
Q 37.203125 6.109375 41.296875 11.75 
Q 45.40625 17.390625 45.40625 27.296875 
Q 45.40625 37.203125 41.296875 42.84375 
Q 37.203125 48.484375 30.078125 48.484375 
Q 22.953125 48.484375 18.875 42.84375 
Q 14.796875 37.203125 14.796875 27.296875 
z
" id="DejaVuSans-64"/>
     <path d="M 31 75.875 
Q 24.46875 64.65625 21.28125 53.65625 
Q 18.109375 42.671875 18.109375 31.390625 
Q 18.109375 20.125 21.3125 9.0625 
Q 24.515625 -2 31 -13.1875 
L 23.1875 -13.1875 
Q 15.875 -1.703125 12.234375 9.375 
Q 8.59375 20.453125 8.59375 31.390625 
Q 8.59375 42.28125 12.203125 53.3125 
Q 15.828125 64.359375 23.1875 75.875 
z
" id="DejaVuSans-28"/>
     <path d="M 3.328125 72.90625 
L 13.28125 72.90625 
L 28.609375 11.28125 
L 43.890625 72.90625 
L 54.984375 72.90625 
L 70.3125 11.28125 
L 85.59375 72.90625 
L 95.609375 72.90625 
L 77.296875 0 
L 64.890625 0 
L 49.515625 63.28125 
L 33.984375 0 
L 21.578125 0 
z
" id="DejaVuSans-57"/>
     <path d="M 8.015625 75.875 
L 15.828125 75.875 
Q 23.140625 64.359375 26.78125 53.3125 
Q 30.421875 42.28125 30.421875 31.390625 
Q 30.421875 20.453125 26.78125 9.375 
Q 23.140625 -1.703125 15.828125 -13.1875 
L 8.015625 -13.1875 
Q 14.5 -2 17.703125 9.0625 
Q 20.90625 20.125 20.90625 31.390625 
Q 20.90625 42.671875 17.703125 53.65625 
Q 14.5 64.65625 8.015625 75.875 
z
" id="DejaVuSans-29"/>
    </defs>
    <g transform="translate(146.928688 17.36505)scale(0.12 -0.12)">
     <use xlink:href="#DejaVuSans-4d"/>
     <use x="86.279297" xlink:href="#DejaVuSans-6f"/>
     <use x="147.460938" xlink:href="#DejaVuSans-6e"/>
     <use x="210.839844" xlink:href="#DejaVuSans-74"/>
     <use x="250.048828" xlink:href="#DejaVuSans-68"/>
     <use x="313.427734" xlink:href="#DejaVuSans-6c"/>
     <use x="341.210938" xlink:href="#DejaVuSans-79"/>
     <use x="400.390625" xlink:href="#DejaVuSans-20"/>
     <use x="432.177734" xlink:href="#DejaVuSans-67"/>
     <use x="495.654297" xlink:href="#DejaVuSans-72"/>
     <use x="536.736328" xlink:href="#DejaVuSans-6f"/>
     <use x="597.917969" xlink:href="#DejaVuSans-73"/>
     <use x="650.017578" xlink:href="#DejaVuSans-73"/>
     <use x="702.117188" xlink:href="#DejaVuSans-20"/>
     <use x="733.904297" xlink:href="#DejaVuSans-6c"/>
     <use x="761.6875" xlink:href="#DejaVuSans-6f"/>
     <use x="822.869141" xlink:href="#DejaVuSans-61"/>
     <use x="884.148438" xlink:href="#DejaVuSans-64"/>
     <use x="947.625" xlink:href="#DejaVuSans-20"/>
     <use x="979.412109" xlink:href="#DejaVuSans-74"/>
     <use x="1018.621094" xlink:href="#DejaVuSans-72"/>
     <use x="1059.703125" xlink:href="#DejaVuSans-65"/>
     <use x="1121.226562" xlink:href="#DejaVuSans-6e"/>
     <use x="1184.605469" xlink:href="#DejaVuSans-64"/>
     <use x="1248.082031" xlink:href="#DejaVuSans-20"/>
     <use x="1279.869141" xlink:href="#DejaVuSans-28"/>
     <use x="1318.882812" xlink:href="#DejaVuSans-4d"/>
     <use x="1405.162109" xlink:href="#DejaVuSans-57"/>
     <use x="1504.039062" xlink:href="#DejaVuSans-29"/>
    </g>
   </g>
  </g>
 </g>
 <defs>
  <clipPath id="p59492c66dd">
   <rect height="286.49845" width="415.937" x="31.543" y="23.36505"/>
  </clipPath>
 </defs>
</svg>
