<?xml version="1.0" encoding="utf-8" standalone="no"?>
<!DOCTYPE svg PUBLIC "-//W3C//DTD SVG 1.1//EN"
  "http://www.w3.org/Graphics/SVG/1.1/DTD/svg11.dtd">
<!-- Created with matplotlib (http://matplotlib.org/) -->
<svg height="345.6pt" version="1.1" viewBox="0 0 460.8 345.6" width="460.8pt" xmlns="http://www.w3.org/2000/svg" xmlns:xlink="http://www.w3.org/1999/xlink">
 <defs>
  <style type="text/css">
*{stroke-linecap:butt;stroke-linejoin:round;}
  </style>
 </defs>
 <g id="figure_1">
  <g id="patch_1">
   <path d="M 0 345.6 
L 460.8 345.6 
L 460.8 0 
L 0 0 
z
" style="fill:none;"/>
  </g>
  <g id="axes_1">
   <g id="patch_2">
    <path d="M 31.543 309.8635 
L 447.48 309.8635 
L 447.48 23.36505 
L 31.543 23.36505 
z
" style="fill:none;"/>
   </g>
   <g id="PolyCollection_1">
    <path clip-path="url(#pcfc50eb7db)" d="M 31.543 135.733388 
L 31.543 309.8635 
L 33.600123 267.108339 
L 35.45817 286.542503 
L 37.515293 276.436737 
L 39.506057 290.429336 
L 41.56318 286.542503 
L 43.553944 290.429336 
L 45.611067 294.316169 
L 47.66819 286.542503 
L 49.658954 309.8635 
L 51.716077 309.8635 
L 53.706841 309.8635 
L 55.763964 309.8635 
L 57.821087 309.8635 
L 59.679134 309.8635 
L 61.736257 309.8635 
L 63.727021 309.8635 
L 65.784144 309.8635 
L 67.774908 309.8635 
L 69.832031 309.8635 
L 71.889154 309.8635 
L 73.879919 309.8635 
L 75.937042 309.8635 
L 77.927806 309.8635 
L 79.984929 309.8635 
L 82.042052 309.8635 
L 83.900098 309.8635 
L 85.957221 309.8635 
L 87.947986 309.8635 
L 90.005109 309.8635 
L 91.995873 309.8635 
L 94.052996 309.8635 
L 96.110119 309.8635 
L 98.100883 309.8635 
L 100.158006 309.8635 
L 102.14877 309.8635 
L 104.205893 309.8635 
L 106.263016 309.8635 
L 108.187422 309.8635 
L 110.244545 309.8635 
L 112.235309 309.8635 
L 114.292432 309.8635 
L 116.283196 309.8635 
L 118.340319 309.8635 
L 120.397442 309.8635 
L 122.388206 309.8635 
L 124.445329 309.8635 
L 126.436093 309.8635 
L 128.493216 309.8635 
L 130.55034 309.8635 
L 132.408386 309.8635 
L 134.465509 309.8635 
L 136.456273 309.8635 
L 138.513396 309.8635 
L 140.50416 309.8635 
L 142.561284 309.8635 
L 144.618407 309.8635 
L 146.609171 309.8635 
L 148.666294 309.8635 
L 150.657058 309.8635 
L 152.714181 309.8635 
L 154.771304 309.8635 
L 156.629351 309.8635 
L 158.686474 309.8635 
L 160.677238 309.8635 
L 162.734361 309.8635 
L 164.725125 309.8635 
L 166.782248 309.8635 
L 168.839371 309.8635 
L 170.830135 309.8635 
L 172.887258 309.8635 
L 174.878022 309.8635 
L 176.935145 309.8635 
L 178.992268 309.8635 
L 180.850315 309.8635 
L 182.907438 309.8635 
L 184.898202 309.8635 
L 186.955325 309.8635 
L 188.946089 309.8635 
L 191.003212 309.8635 
L 193.060335 309.8635 
L 195.0511 309.8635 
L 197.108223 309.8635 
L 199.098987 309.8635 
L 201.15611 309.8635 
L 203.213233 309.8635 
L 205.137638 309.8635 
L 207.194761 309.8635 
L 209.185525 309.8635 
L 211.242648 309.8635 
L 213.233413 309.8635 
L 215.290536 309.8635 
L 217.347659 309.8635 
L 219.338423 309.8635 
L 221.395546 309.8635 
L 223.38631 309.8635 
L 225.443433 309.8635 
L 227.500556 309.8635 
L 229.358603 309.8635 
L 231.415726 309.8635 
L 233.40649 309.8635 
L 235.463613 309.8635 
L 237.454377 309.8635 
L 239.5115 309.8635 
L 241.568623 309.8635 
L 243.559387 309.8635 
L 245.61651 309.8635 
L 247.607274 309.8635 
L 249.664397 309.8635 
L 251.72152 309.8635 
L 253.579567 309.8635 
L 255.63669 309.8635 
L 257.627454 309.8635 
L 259.684577 309.8635 
L 261.675341 309.8635 
L 263.732464 309.8635 
L 265.789587 309.8635 
L 267.780352 309.8635 
L 269.837475 309.8635 
L 271.828239 309.8635 
L 273.885362 309.8635 
L 275.942485 309.8635 
L 277.800531 309.8635 
L 279.857654 309.8635 
L 281.848419 309.8635 
L 283.905542 309.8635 
L 285.896306 309.8635 
L 287.953429 309.8635 
L 290.010552 309.8635 
L 292.001316 309.8635 
L 294.058439 309.8635 
L 296.049203 309.8635 
L 298.106326 309.8635 
L 300.163449 309.8635 
L 302.087855 309.8635 
L 304.144978 309.8635 
L 306.135742 309.8635 
L 308.192865 309.8635 
L 310.183629 309.8635 
L 312.240752 309.8635 
L 314.297875 309.8635 
L 316.288639 309.8635 
L 318.345762 309.8635 
L 320.336526 309.8635 
L 322.393649 309.8635 
L 324.450772 309.8635 
L 326.308819 309.8635 
L 328.365942 309.8635 
L 330.356706 309.8635 
L 332.413829 309.8635 
L 334.404593 309.8635 
L 336.461716 309.8635 
L 338.51884 309.8635 
L 340.509604 309.8635 
L 342.566727 287.319869 
L 344.557491 292.761435 
L 346.614614 291.206702 
L 348.671737 309.8635 
L 350.529784 309.8635 
L 352.586907 309.8635 
L 354.577671 309.8635 
L 356.634794 309.8635 
L 358.625558 301.312468 
L 360.682681 309.8635 
L 362.739804 309.8635 
L 364.730568 309.8635 
L 366.787691 309.8635 
L 368.778455 309.8635 
L 370.835578 309.8635 
L 372.892701 309.8635 
L 374.750748 309.8635 
L 376.807871 309.8635 
L 378.798635 309.8635 
L 380.855758 309.8635 
L 382.846522 309.8635 
L 384.903645 309.8635 
L 386.960768 309.8635 
L 388.951533 309.8635 
L 391.008656 309.8635 
L 392.99942 309.8635 
L 395.056543 309.8635 
L 397.113666 309.8635 
L 399.038071 309.8635 
L 401.095194 309.8635 
L 403.085958 309.8635 
L 405.143081 309.8635 
L 407.133846 309.8635 
L 409.190969 309.8635 
L 411.248092 309.8635 
L 413.238856 309.8635 
L 415.295979 309.8635 
L 417.286743 309.8635 
L 419.343866 309.8635 
L 421.400989 309.8635 
L 423.259036 309.8635 
L 425.316159 309.8635 
L 427.306923 309.8635 
L 429.364046 309.8635 
L 431.35481 309.8635 
L 433.411933 309.8635 
L 435.469056 309.8635 
L 437.45982 309.8635 
L 439.516943 309.8635 
L 441.507707 309.8635 
L 443.56483 309.8635 
L 445.621953 309.8635 
L 447.48 309.8635 
L 447.48 253.893107 
L 447.48 253.893107 
L 445.621953 232.126843 
L 443.56483 265.553605 
L 441.507707 263.221506 
L 439.516943 264.776239 
L 437.45982 235.236309 
L 435.469056 115.521857 
L 433.411933 97.642426 
L 431.35481 123.295523 
L 429.364046 191.703781 
L 427.306923 217.356878 
L 425.316159 222.021077 
L 423.259036 246.896808 
L 421.400989 218.134245 
L 419.343866 248.451541 
L 417.286743 215.802145 
L 415.295979 213.470045 
L 413.238856 213.470045 
L 411.248092 167.605417 
L 409.190969 128.737089 
L 407.133846 126.404989 
L 405.143081 148.171253 
L 403.085958 218.134245 
L 401.095194 196.367981 
L 399.038071 211.915312 
L 397.113666 216.579511 
L 395.056543 218.134245 
L 392.99942 233.681576 
L 391.008656 214.247412 
L 388.951533 213.470045 
L 386.960768 116.299224 
L 384.903645 114.744491 
L 382.846522 154.390186 
L 380.855758 196.367981 
L 378.798635 246.896808 
L 376.807871 239.900509 
L 374.750748 246.119441 
L 372.892701 217.356878 
L 370.835578 245.342075 
L 368.778455 184.707482 
L 366.787691 132.623922 
L 364.730568 201.809547 
L 362.739804 179.265916 
L 360.682681 90.646127 
L 358.625558 141.174954 
L 356.634794 197.922714 
L 354.577671 205.696379 
L 352.586907 205.696379 
L 350.529784 181.598016 
L 348.671737 239.123142 
L 346.614614 202.586913 
L 344.557491 155.167552 
L 342.566727 158.277019 
L 340.509604 205.696379 
L 338.51884 134.956021 
L 336.461716 141.952321 
L 334.404593 107.748191 
L 332.413829 126.404989 
L 330.356706 230.57211 
L 328.365942 215.802145 
L 326.308819 211.915312 
L 324.450772 187.816948 
L 322.393649 244.564708 
L 320.336526 229.017377 
L 318.345762 221.243711 
L 316.288639 218.911611 
L 314.297875 144.28442 
L 312.240752 130.291822 
L 310.183629 129.514455 
L 308.192865 133.401288 
L 306.135742 176.15645 
L 304.144978 221.243711 
L 302.087855 213.470045 
L 300.163449 215.024778 
L 298.106326 229.794743 
L 296.049203 219.688978 
L 294.058439 218.911611 
L 292.001316 243.787341 
L 290.010552 175.379083 
L 287.953429 141.952321 
L 285.896306 59.551464 
L 283.905542 134.178655 
L 281.848419 216.579511 
L 279.857654 227.462643 
L 277.800531 183.930115 
L 275.942485 208.028479 
L 273.885362 211.137945 
L 271.828239 211.915312 
L 269.837475 168.382784 
L 267.780352 125.627623 
L 265.789587 137.288121 
L 263.732464 70.434596 
L 261.675341 83.649828 
L 259.684577 155.167552 
L 257.627454 225.90791 
L 255.63669 208.805846 
L 253.579567 210.360579 
L 251.72152 219.688978 
L 249.664397 155.944919 
L 247.607274 120.186057 
L 245.61651 134.178655 
L 243.559387 117.07659 
L 241.568623 71.211962 
L 239.5115 103.083992 
L 237.454377 92.20086 
L 235.463613 77.430895 
L 233.40649 104.638725 
L 231.415726 215.024778 
L 229.358603 185.484849 
L 227.500556 144.28442 
L 225.443433 140.397587 
L 223.38631 178.488549 
L 221.395546 111.635024 
L 219.338423 102.306625 
L 217.347659 37.007833 
L 215.290536 61.106197 
L 213.233413 96.087693 
L 211.242648 97.642426 
L 209.185525 173.82435 
L 207.194761 221.243711 
L 205.137638 292.761435 
L 203.213233 210.360579 
L 201.15611 212.692679 
L 199.098987 212.692679 
L 197.108223 124.850256 
L 195.0511 84.427194 
L 193.060335 67.32513 
L 191.003212 57.996731 
L 188.946089 72.766696 
L 186.955325 64.99303 
L 184.898202 58.774097 
L 182.907438 103.083992 
L 180.850315 203.36428 
L 178.992268 213.470045 
L 176.935145 214.247412 
L 174.878022 83.649828 
L 172.887258 51.777798 
L 170.830135 67.32513 
L 168.839371 47.113599 
L 166.782248 54.887264 
L 164.725125 47.890965 
L 162.734361 120.963423 
L 160.677238 151.280719 
L 158.686474 309.8635 
L 156.629351 260.889406 
L 154.771304 229.794743 
L 152.714181 270.995171 
L 150.657058 211.915312 
L 148.666294 212.692679 
L 146.609171 215.802145 
L 144.618407 214.247412 
L 142.561284 154.390186 
L 140.50416 44.781499 
L 138.513396 218.134245 
L 136.456273 215.802145 
L 134.465509 215.024778 
L 132.408386 215.024778 
L 130.55034 213.470045 
L 128.493216 213.470045 
L 126.436093 211.137945 
L 124.445329 211.137945 
L 122.388206 213.470045 
L 120.397442 143.507054 
L 118.340319 46.336232 
L 116.283196 43.226766 
L 114.292432 95.310326 
L 112.235309 213.470045 
L 110.244545 212.692679 
L 108.187422 163.718585 
L 106.263016 178.488549 
L 104.205893 207.251113 
L 102.14877 210.360579 
L 100.158006 207.251113 
L 98.100883 132.623922 
L 96.110119 70.434596 
L 94.052996 58.774097 
L 91.995873 58.774097 
L 90.005109 81.317728 
L 87.947986 61.106197 
L 85.957221 103.861358 
L 83.900098 137.288121 
L 82.042052 211.137945 
L 79.984929 210.360579 
L 77.927806 211.137945 
L 75.937042 99.197159 
L 73.879919 89.86876 
L 71.889154 130.291822 
L 69.832031 140.397587 
L 67.774908 146.61652 
L 65.784144 155.944919 
L 63.727021 134.178655 
L 61.736257 134.178655 
L 59.679134 141.174954 
L 57.821087 233.681576 
L 55.763964 239.123142 
L 53.706841 183.930115 
L 51.716077 211.137945 
L 49.658954 137.288121 
L 47.66819 131.846555 
L 45.611067 131.846555 
L 43.553944 131.069189 
L 41.56318 129.514455 
L 39.506057 129.514455 
L 37.515293 127.182356 
L 35.45817 125.627623 
L 33.600123 124.850256 
L 31.543 135.733388 
z
" style="fill:#808080;fill-opacity:0.3;"/>
   </g>
   <g id="PolyCollection_2">
    <path clip-path="url(#pcfc50eb7db)" d="M 31.543 178.488549 
L 31.543 228.24001 
L 33.600123 208.222821 
L 35.45817 225.90791 
L 37.515293 210.360579 
L 39.506057 225.90791 
L 41.56318 229.794743 
L 43.553944 250.783641 
L 45.611067 250.783641 
L 47.66819 268.663072 
L 49.658954 277.991471 
L 51.716077 309.8635 
L 53.706841 286.542503 
L 55.763964 286.542503 
L 57.821087 286.542503 
L 59.679134 276.436737 
L 61.736257 286.542503 
L 63.727021 285.765136 
L 65.784144 309.086133 
L 67.774908 305.393642 
L 69.832031 286.542503 
L 71.889154 253.11574 
L 73.879919 274.104638 
L 75.937042 309.8635 
L 77.927806 309.8635 
L 79.984929 296.648268 
L 82.042052 309.8635 
L 83.900098 309.8635 
L 85.957221 303.838909 
L 87.947986 309.8635 
L 90.005109 309.8635 
L 91.995873 309.8635 
L 94.052996 309.8635 
L 96.110119 309.8635 
L 98.100883 309.8635 
L 100.158006 309.8635 
L 102.14877 309.8635 
L 104.205893 309.8635 
L 106.263016 309.8635 
L 108.187422 309.8635 
L 110.244545 309.8635 
L 112.235309 309.8635 
L 114.292432 309.8635 
L 116.283196 309.8635 
L 118.340319 309.8635 
L 120.397442 309.8635 
L 122.388206 309.8635 
L 124.445329 309.8635 
L 126.436093 309.8635 
L 128.493216 309.8635 
L 130.55034 309.8635 
L 132.408386 309.8635 
L 134.465509 309.8635 
L 136.456273 309.8635 
L 138.513396 309.8635 
L 140.50416 309.8635 
L 142.561284 309.8635 
L 144.618407 309.8635 
L 146.609171 309.8635 
L 148.666294 309.8635 
L 150.657058 309.8635 
L 152.714181 309.8635 
L 154.771304 309.8635 
L 156.629351 309.8635 
L 158.686474 309.8635 
L 160.677238 309.8635 
L 162.734361 309.8635 
L 164.725125 309.8635 
L 166.782248 309.8635 
L 168.839371 309.8635 
L 170.830135 309.8635 
L 172.887258 309.8635 
L 174.878022 309.8635 
L 176.935145 309.8635 
L 178.992268 309.8635 
L 180.850315 309.8635 
L 182.907438 309.8635 
L 184.898202 309.8635 
L 186.955325 297.425635 
L 188.946089 309.8635 
L 191.003212 297.814318 
L 193.060335 212.692679 
L 195.0511 275.659371 
L 197.108223 309.8635 
L 199.098987 309.8635 
L 201.15611 309.8635 
L 203.213233 309.8635 
L 205.137638 309.8635 
L 207.194761 309.8635 
L 209.185525 309.8635 
L 211.242648 309.8635 
L 213.233413 293.927485 
L 215.290536 294.316169 
L 217.347659 270.412146 
L 219.338423 263.998872 
L 221.395546 274.298979 
L 223.38631 292.17841 
L 225.443433 282.850012 
L 227.500556 309.8635 
L 229.358603 309.8635 
L 231.415726 309.8635 
L 233.40649 309.8635 
L 235.463613 309.8635 
L 237.454377 309.8635 
L 239.5115 300.729443 
L 241.568623 309.8635 
L 243.559387 275.659371 
L 245.61651 283.433037 
L 247.607274 258.557306 
L 249.664397 306.36535 
L 251.72152 309.8635 
L 253.579567 309.8635 
L 255.63669 309.8635 
L 257.627454 309.8635 
L 259.684577 309.8635 
L 261.675341 309.8635 
L 263.732464 291.984069 
L 265.789587 309.8635 
L 267.780352 309.8635 
L 269.837475 309.8635 
L 271.828239 309.8635 
L 273.885362 309.8635 
L 275.942485 309.8635 
L 277.800531 309.8635 
L 279.857654 309.8635 
L 281.848419 309.8635 
L 283.905542 309.8635 
L 285.896306 287.514211 
L 287.953429 297.814318 
L 290.010552 309.8635 
L 292.001316 309.8635 
L 294.058439 309.8635 
L 296.049203 309.8635 
L 298.106326 309.8635 
L 300.163449 309.8635 
L 302.087855 309.8635 
L 304.144978 309.8635 
L 306.135742 309.8635 
L 308.192865 309.8635 
L 310.183629 309.8635 
L 312.240752 309.280475 
L 314.297875 309.8635 
L 316.288639 299.757735 
L 318.345762 309.8635 
L 320.336526 309.8635 
L 322.393649 309.8635 
L 324.450772 309.8635 
L 326.308819 292.761435 
L 328.365942 309.8635 
L 330.356706 309.8635 
L 332.413829 279.546204 
L 334.404593 263.221506 
L 336.461716 279.546204 
L 338.51884 279.740545 
L 340.509604 286.542503 
L 342.566727 284.98777 
L 344.557491 282.65567 
L 346.614614 267.885705 
L 348.671737 278.185812 
L 350.529784 288.097236 
L 352.586907 309.8635 
L 354.577671 309.8635 
L 356.634794 302.284176 
L 358.625558 274.298979 
L 360.682681 282.65567 
L 362.739804 291.206702 
L 364.730568 300.535101 
L 366.787691 281.878303 
L 368.778455 309.8635 
L 370.835578 309.8635 
L 372.892701 309.8635 
L 374.750748 309.8635 
L 376.807871 309.8635 
L 378.798635 309.8635 
L 380.855758 309.8635 
L 382.846522 288.874603 
L 384.903645 307.142717 
L 386.960768 309.8635 
L 388.951533 309.8635 
L 391.008656 309.8635 
L 392.99942 309.8635 
L 395.056543 309.8635 
L 397.113666 309.8635 
L 399.038071 309.8635 
L 401.095194 309.8635 
L 403.085958 309.8635 
L 405.143081 309.8635 
L 407.133846 309.8635 
L 409.190969 309.8635 
L 411.248092 309.8635 
L 413.238856 309.8635 
L 415.295979 309.8635 
L 417.286743 309.8635 
L 419.343866 309.8635 
L 421.400989 309.8635 
L 423.259036 309.8635 
L 425.316159 309.8635 
L 427.306923 309.8635 
L 429.364046 309.8635 
L 431.35481 309.8635 
L 433.411933 309.8635 
L 435.469056 309.8635 
L 437.45982 309.8635 
L 439.516943 309.8635 
L 441.507707 309.8635 
L 443.56483 309.8635 
L 445.621953 309.8635 
L 447.48 309.8635 
L 447.48 309.8635 
L 447.48 309.8635 
L 445.621953 309.8635 
L 443.56483 309.8635 
L 441.507707 309.8635 
L 439.516943 309.8635 
L 437.45982 309.669158 
L 435.469056 291.984069 
L 433.411933 253.698765 
L 431.35481 260.695064 
L 429.364046 308.308767 
L 427.306923 292.761435 
L 425.316159 302.867201 
L 423.259036 295.870902 
L 421.400989 309.8635 
L 419.343866 309.8635 
L 417.286743 309.8635 
L 415.295979 309.8635 
L 413.238856 294.899193 
L 411.248092 300.535101 
L 409.190969 243.787341 
L 407.133846 242.232608 
L 405.143081 284.98777 
L 403.085958 309.8635 
L 401.095194 289.651969 
L 399.038071 309.8635 
L 397.113666 309.8635 
L 395.056543 309.8635 
L 392.99942 309.8635 
L 391.008656 302.089834 
L 388.951533 295.870902 
L 386.960768 263.221506 
L 384.903645 239.900509 
L 382.846522 245.342075 
L 380.855758 265.553605 
L 378.798635 309.8635 
L 376.807871 302.089834 
L 374.750748 309.8635 
L 372.892701 309.8635 
L 370.835578 309.8635 
L 368.778455 280.32357 
L 366.787691 261.666773 
L 364.730568 277.214104 
L 362.739804 269.440438 
L 360.682681 239.123142 
L 358.625558 235.236309 
L 356.634794 272.355563 
L 354.577671 270.217805 
L 352.586907 283.433037 
L 350.529784 267.108339 
L 348.671737 267.108339 
L 346.614614 257.002573 
L 344.557491 245.342075 
L 342.566727 266.913997 
L 340.509604 267.108339 
L 338.51884 251.561007 
L 336.461716 237.568409 
L 334.404593 203.169938 
L 332.413829 232.904209 
L 330.356706 280.32357 
L 328.365942 302.284176 
L 326.308819 275.659371 
L 324.450772 277.991471 
L 322.393649 304.227592 
L 320.336526 309.8635 
L 318.345762 278.574495 
L 316.288639 272.549905 
L 314.297875 253.893107 
L 312.240752 210.360579 
L 310.183629 223.381469 
L 308.192865 230.57211 
L 306.135742 274.882004 
L 304.144978 309.8635 
L 302.087855 301.312468 
L 300.163449 309.8635 
L 298.106326 309.8635 
L 296.049203 309.8635 
L 294.058439 309.8635 
L 292.001316 309.8635 
L 290.010552 275.659371 
L 287.953429 219.688978 
L 285.896306 203.36428 
L 283.905542 258.557306 
L 281.848419 291.012361 
L 279.857654 309.8635 
L 277.800531 258.557306 
L 275.942485 309.8635 
L 273.885362 309.8635 
L 271.828239 292.761435 
L 269.837475 258.557306 
L 267.780352 258.557306 
L 265.789587 214.247412 
L 263.732464 177.711183 
L 261.675341 185.290507 
L 259.684577 274.687663 
L 257.627454 297.425635 
L 255.63669 258.557306 
L 253.579567 258.557306 
L 251.72152 258.557306 
L 249.664397 258.557306 
L 247.607274 209.583212 
L 245.61651 225.90791 
L 243.559387 190.732073 
L 241.568623 177.516841 
L 239.5115 167.605417 
L 237.454377 174.601717 
L 235.463613 201.03218 
L 233.40649 206.473746 
L 231.415726 258.557306 
L 229.358603 258.557306 
L 227.500556 233.681576 
L 225.443433 222.604102 
L 223.38631 216.579511 
L 221.395546 198.505739 
L 219.338423 178.488549 
L 217.347659 159.63741 
L 215.290536 169.160151 
L 213.233413 171.297909 
L 211.242648 182.958407 
L 209.185525 309.8635 
L 207.194761 309.8635 
L 205.137638 309.8635 
L 203.213233 309.8635 
L 201.15611 281.683962 
L 199.098987 258.557306 
L 197.108223 211.915312 
L 195.0511 162.941218 
L 193.060335 157.499652 
L 191.003212 155.944919 
L 188.946089 161.386485 
L 186.955325 154.390186 
L 184.898202 154.390186 
L 182.907438 221.826736 
L 180.850315 263.221506 
L 178.992268 309.8635 
L 176.935145 290.234994 
L 174.878022 232.126843 
L 172.887258 246.896808 
L 170.830135 242.815633 
L 168.839371 170.909225 
L 166.782248 178.294208 
L 164.725125 137.093779 
L 162.734361 243.593 
L 160.677238 308.891792 
L 158.686474 309.8635 
L 156.629351 309.8635 
L 154.771304 309.8635 
L 152.714181 309.8635 
L 150.657058 309.669158 
L 148.666294 309.8635 
L 146.609171 309.8635 
L 144.618407 275.659371 
L 142.561284 234.264601 
L 140.50416 179.071574 
L 138.513396 275.659371 
L 136.456273 279.351862 
L 134.465509 309.8635 
L 132.408386 282.461328 
L 130.55034 275.659371 
L 128.493216 275.659371 
L 126.436093 266.913997 
L 124.445329 269.246097 
L 122.388206 265.359264 
L 120.397442 258.557306 
L 118.340319 196.951005 
L 116.283196 183.735774 
L 114.292432 221.243711 
L 112.235309 247.479833 
L 110.244545 260.112039 
L 108.187422 309.8635 
L 106.263016 261.472431 
L 104.205893 309.8635 
L 102.14877 309.8635 
L 100.158006 309.8635 
L 98.100883 222.021077 
L 96.110119 217.939903 
L 94.052996 132.623922 
L 91.995873 111.635024 
L 90.005109 217.356878 
L 87.947986 251.561007 
L 85.957221 195.396272 
L 83.900098 212.498337 
L 82.042052 215.024778 
L 79.984929 214.247412 
L 77.927806 246.896808 
L 75.937042 246.896808 
L 73.879919 169.160151 
L 71.889154 166.828051 
L 69.832031 204.141646 
L 67.774908 207.056771 
L 65.784144 226.685277 
L 63.727021 218.134245 
L 61.736257 212.498337 
L 59.679134 238.9288 
L 57.821087 271.772538 
L 55.763964 278.768837 
L 53.706841 252.338374 
L 51.716077 257.002573 
L 49.658954 236.791042 
L 47.66819 169.937517 
L 45.611067 164.495951 
L 43.553944 169.743175 
L 41.56318 161.386485 
L 39.506057 151.280719 
L 37.515293 147.393887 
L 35.45817 167.605417 
L 33.600123 153.612819 
L 31.543 178.488549 
z
" style="fill:#808080;fill-opacity:0.6;"/>
   </g>
   <g id="matplotlib.axis_1">
    <g id="xtick_1">
     <g id="line2d_1">
      <path clip-path="url(#pcfc50eb7db)" d="M 31.543 309.8635 
L 31.543 23.36505 
" style="fill:none;stroke:#b0b0b0;stroke-linecap:square;stroke-width:0.8;"/>
     </g>
     <g id="line2d_2">
      <defs>
       <path d="M 0 0 
L 0 3.5 
" id="m578bfbf01a" style="stroke:#000000;stroke-width:0.8;"/>
      </defs>
      <g>
       <use style="stroke:#000000;stroke-width:0.8;" x="31.543" xlink:href="#m578bfbf01a" y="309.8635"/>
      </g>
     </g>
     <g id="text_1">
      <!-- 2001 -->
      <defs>
       <path d="M 19.1875 8.296875 
L 53.609375 8.296875 
L 53.609375 0 
L 7.328125 0 
L 7.328125 8.296875 
Q 12.9375 14.109375 22.625 23.890625 
Q 32.328125 33.6875 34.8125 36.53125 
Q 39.546875 41.84375 41.421875 45.53125 
Q 43.3125 49.21875 43.3125 52.78125 
Q 43.3125 58.59375 39.234375 62.25 
Q 35.15625 65.921875 28.609375 65.921875 
Q 23.96875 65.921875 18.8125 64.3125 
Q 13.671875 62.703125 7.8125 59.421875 
L 7.8125 69.390625 
Q 13.765625 71.78125 18.9375 73 
Q 24.125 74.21875 28.421875 74.21875 
Q 39.75 74.21875 46.484375 68.546875 
Q 53.21875 62.890625 53.21875 53.421875 
Q 53.21875 48.921875 51.53125 44.890625 
Q 49.859375 40.875 45.40625 35.40625 
Q 44.1875 33.984375 37.640625 27.21875 
Q 31.109375 20.453125 19.1875 8.296875 
z
" id="DejaVuSans-32"/>
       <path d="M 31.78125 66.40625 
Q 24.171875 66.40625 20.328125 58.90625 
Q 16.5 51.421875 16.5 36.375 
Q 16.5 21.390625 20.328125 13.890625 
Q 24.171875 6.390625 31.78125 6.390625 
Q 39.453125 6.390625 43.28125 13.890625 
Q 47.125 21.390625 47.125 36.375 
Q 47.125 51.421875 43.28125 58.90625 
Q 39.453125 66.40625 31.78125 66.40625 
z
M 31.78125 74.21875 
Q 44.046875 74.21875 50.515625 64.515625 
Q 56.984375 54.828125 56.984375 36.375 
Q 56.984375 17.96875 50.515625 8.265625 
Q 44.046875 -1.421875 31.78125 -1.421875 
Q 19.53125 -1.421875 13.0625 8.265625 
Q 6.59375 17.96875 6.59375 36.375 
Q 6.59375 54.828125 13.0625 64.515625 
Q 19.53125 74.21875 31.78125 74.21875 
z
" id="DejaVuSans-30"/>
       <path d="M 12.40625 8.296875 
L 28.515625 8.296875 
L 28.515625 63.921875 
L 10.984375 60.40625 
L 10.984375 69.390625 
L 28.421875 72.90625 
L 38.28125 72.90625 
L 38.28125 8.296875 
L 54.390625 8.296875 
L 54.390625 0 
L 12.40625 0 
z
" id="DejaVuSans-31"/>
      </defs>
      <g transform="translate(18.818 324.461937)scale(0.1 -0.1)">
       <use xlink:href="#DejaVuSans-32"/>
       <use x="63.623047" xlink:href="#DejaVuSans-30"/>
       <use x="127.246094" xlink:href="#DejaVuSans-30"/>
       <use x="190.869141" xlink:href="#DejaVuSans-31"/>
      </g>
     </g>
    </g>
    <g id="xtick_2">
     <g id="line2d_3">
      <path clip-path="url(#pcfc50eb7db)" d="M 79.984929 309.8635 
L 79.984929 23.36505 
" style="fill:none;stroke:#b0b0b0;stroke-linecap:square;stroke-width:0.8;"/>
     </g>
     <g id="line2d_4">
      <g>
       <use style="stroke:#000000;stroke-width:0.8;" x="79.984929" xlink:href="#m578bfbf01a" y="309.8635"/>
      </g>
     </g>
     <g id="text_2">
      <!-- 2003 -->
      <defs>
       <path d="M 40.578125 39.3125 
Q 47.65625 37.796875 51.625 33 
Q 55.609375 28.21875 55.609375 21.1875 
Q 55.609375 10.40625 48.1875 4.484375 
Q 40.765625 -1.421875 27.09375 -1.421875 
Q 22.515625 -1.421875 17.65625 -0.515625 
Q 12.796875 0.390625 7.625 2.203125 
L 7.625 11.71875 
Q 11.71875 9.328125 16.59375 8.109375 
Q 21.484375 6.890625 26.8125 6.890625 
Q 36.078125 6.890625 40.9375 10.546875 
Q 45.796875 14.203125 45.796875 21.1875 
Q 45.796875 27.640625 41.28125 31.265625 
Q 36.765625 34.90625 28.71875 34.90625 
L 20.21875 34.90625 
L 20.21875 43.015625 
L 29.109375 43.015625 
Q 36.375 43.015625 40.234375 45.921875 
Q 44.09375 48.828125 44.09375 54.296875 
Q 44.09375 59.90625 40.109375 62.90625 
Q 36.140625 65.921875 28.71875 65.921875 
Q 24.65625 65.921875 20.015625 65.03125 
Q 15.375 64.15625 9.8125 62.3125 
L 9.8125 71.09375 
Q 15.4375 72.65625 20.34375 73.4375 
Q 25.25 74.21875 29.59375 74.21875 
Q 40.828125 74.21875 47.359375 69.109375 
Q 53.90625 64.015625 53.90625 55.328125 
Q 53.90625 49.265625 50.4375 45.09375 
Q 46.96875 40.921875 40.578125 39.3125 
z
" id="DejaVuSans-33"/>
      </defs>
      <g transform="translate(67.259929 324.461937)scale(0.1 -0.1)">
       <use xlink:href="#DejaVuSans-32"/>
       <use x="63.623047" xlink:href="#DejaVuSans-30"/>
       <use x="127.246094" xlink:href="#DejaVuSans-30"/>
       <use x="190.869141" xlink:href="#DejaVuSans-33"/>
      </g>
     </g>
    </g>
    <g id="xtick_3">
     <g id="line2d_5">
      <path clip-path="url(#pcfc50eb7db)" d="M 128.493216 309.8635 
L 128.493216 23.36505 
" style="fill:none;stroke:#b0b0b0;stroke-linecap:square;stroke-width:0.8;"/>
     </g>
     <g id="line2d_6">
      <g>
       <use style="stroke:#000000;stroke-width:0.8;" x="128.493216" xlink:href="#m578bfbf01a" y="309.8635"/>
      </g>
     </g>
     <g id="text_3">
      <!-- 2005 -->
      <defs>
       <path d="M 10.796875 72.90625 
L 49.515625 72.90625 
L 49.515625 64.59375 
L 19.828125 64.59375 
L 19.828125 46.734375 
Q 21.96875 47.46875 24.109375 47.828125 
Q 26.265625 48.1875 28.421875 48.1875 
Q 40.625 48.1875 47.75 41.5 
Q 54.890625 34.8125 54.890625 23.390625 
Q 54.890625 11.625 47.5625 5.09375 
Q 40.234375 -1.421875 26.90625 -1.421875 
Q 22.3125 -1.421875 17.546875 -0.640625 
Q 12.796875 0.140625 7.71875 1.703125 
L 7.71875 11.625 
Q 12.109375 9.234375 16.796875 8.0625 
Q 21.484375 6.890625 26.703125 6.890625 
Q 35.15625 6.890625 40.078125 11.328125 
Q 45.015625 15.765625 45.015625 23.390625 
Q 45.015625 31 40.078125 35.4375 
Q 35.15625 39.890625 26.703125 39.890625 
Q 22.75 39.890625 18.8125 39.015625 
Q 14.890625 38.140625 10.796875 36.28125 
z
" id="DejaVuSans-35"/>
      </defs>
      <g transform="translate(115.768216 324.461937)scale(0.1 -0.1)">
       <use xlink:href="#DejaVuSans-32"/>
       <use x="63.623047" xlink:href="#DejaVuSans-30"/>
       <use x="127.246094" xlink:href="#DejaVuSans-30"/>
       <use x="190.869141" xlink:href="#DejaVuSans-35"/>
      </g>
     </g>
    </g>
    <g id="xtick_4">
     <g id="line2d_7">
      <path clip-path="url(#pcfc50eb7db)" d="M 176.935145 309.8635 
L 176.935145 23.36505 
" style="fill:none;stroke:#b0b0b0;stroke-linecap:square;stroke-width:0.8;"/>
     </g>
     <g id="line2d_8">
      <g>
       <use style="stroke:#000000;stroke-width:0.8;" x="176.935145" xlink:href="#m578bfbf01a" y="309.8635"/>
      </g>
     </g>
     <g id="text_4">
      <!-- 2007 -->
      <defs>
       <path d="M 8.203125 72.90625 
L 55.078125 72.90625 
L 55.078125 68.703125 
L 28.609375 0 
L 18.3125 0 
L 43.21875 64.59375 
L 8.203125 64.59375 
z
" id="DejaVuSans-37"/>
      </defs>
      <g transform="translate(164.210145 324.461937)scale(0.1 -0.1)">
       <use xlink:href="#DejaVuSans-32"/>
       <use x="63.623047" xlink:href="#DejaVuSans-30"/>
       <use x="127.246094" xlink:href="#DejaVuSans-30"/>
       <use x="190.869141" xlink:href="#DejaVuSans-37"/>
      </g>
     </g>
    </g>
    <g id="xtick_5">
     <g id="line2d_9">
      <path clip-path="url(#pcfc50eb7db)" d="M 225.443433 309.8635 
L 225.443433 23.36505 
" style="fill:none;stroke:#b0b0b0;stroke-linecap:square;stroke-width:0.8;"/>
     </g>
     <g id="line2d_10">
      <g>
       <use style="stroke:#000000;stroke-width:0.8;" x="225.443433" xlink:href="#m578bfbf01a" y="309.8635"/>
      </g>
     </g>
     <g id="text_5">
      <!-- 2009 -->
      <defs>
       <path d="M 10.984375 1.515625 
L 10.984375 10.5 
Q 14.703125 8.734375 18.5 7.8125 
Q 22.3125 6.890625 25.984375 6.890625 
Q 35.75 6.890625 40.890625 13.453125 
Q 46.046875 20.015625 46.78125 33.40625 
Q 43.953125 29.203125 39.59375 26.953125 
Q 35.25 24.703125 29.984375 24.703125 
Q 19.046875 24.703125 12.671875 31.3125 
Q 6.296875 37.9375 6.296875 49.421875 
Q 6.296875 60.640625 12.9375 67.421875 
Q 19.578125 74.21875 30.609375 74.21875 
Q 43.265625 74.21875 49.921875 64.515625 
Q 56.59375 54.828125 56.59375 36.375 
Q 56.59375 19.140625 48.40625 8.859375 
Q 40.234375 -1.421875 26.421875 -1.421875 
Q 22.703125 -1.421875 18.890625 -0.6875 
Q 15.09375 0.046875 10.984375 1.515625 
z
M 30.609375 32.421875 
Q 37.25 32.421875 41.125 36.953125 
Q 45.015625 41.5 45.015625 49.421875 
Q 45.015625 57.28125 41.125 61.84375 
Q 37.25 66.40625 30.609375 66.40625 
Q 23.96875 66.40625 20.09375 61.84375 
Q 16.21875 57.28125 16.21875 49.421875 
Q 16.21875 41.5 20.09375 36.953125 
Q 23.96875 32.421875 30.609375 32.421875 
z
" id="DejaVuSans-39"/>
      </defs>
      <g transform="translate(212.718433 324.461937)scale(0.1 -0.1)">
       <use xlink:href="#DejaVuSans-32"/>
       <use x="63.623047" xlink:href="#DejaVuSans-30"/>
       <use x="127.246094" xlink:href="#DejaVuSans-30"/>
       <use x="190.869141" xlink:href="#DejaVuSans-39"/>
      </g>
     </g>
    </g>
    <g id="xtick_6">
     <g id="line2d_11">
      <path clip-path="url(#pcfc50eb7db)" d="M 273.885362 309.8635 
L 273.885362 23.36505 
" style="fill:none;stroke:#b0b0b0;stroke-linecap:square;stroke-width:0.8;"/>
     </g>
     <g id="line2d_12">
      <g>
       <use style="stroke:#000000;stroke-width:0.8;" x="273.885362" xlink:href="#m578bfbf01a" y="309.8635"/>
      </g>
     </g>
     <g id="text_6">
      <!-- 2011 -->
      <g transform="translate(261.160362 324.461937)scale(0.1 -0.1)">
       <use xlink:href="#DejaVuSans-32"/>
       <use x="63.623047" xlink:href="#DejaVuSans-30"/>
       <use x="127.246094" xlink:href="#DejaVuSans-31"/>
       <use x="190.869141" xlink:href="#DejaVuSans-31"/>
      </g>
     </g>
    </g>
    <g id="xtick_7">
     <g id="line2d_13">
      <path clip-path="url(#pcfc50eb7db)" d="M 322.393649 309.8635 
L 322.393649 23.36505 
" style="fill:none;stroke:#b0b0b0;stroke-linecap:square;stroke-width:0.8;"/>
     </g>
     <g id="line2d_14">
      <g>
       <use style="stroke:#000000;stroke-width:0.8;" x="322.393649" xlink:href="#m578bfbf01a" y="309.8635"/>
      </g>
     </g>
     <g id="text_7">
      <!-- 2013 -->
      <g transform="translate(309.668649 324.461937)scale(0.1 -0.1)">
       <use xlink:href="#DejaVuSans-32"/>
       <use x="63.623047" xlink:href="#DejaVuSans-30"/>
       <use x="127.246094" xlink:href="#DejaVuSans-31"/>
       <use x="190.869141" xlink:href="#DejaVuSans-33"/>
      </g>
     </g>
    </g>
    <g id="xtick_8">
     <g id="line2d_15">
      <path clip-path="url(#pcfc50eb7db)" d="M 370.835578 309.8635 
L 370.835578 23.36505 
" style="fill:none;stroke:#b0b0b0;stroke-linecap:square;stroke-width:0.8;"/>
     </g>
     <g id="line2d_16">
      <g>
       <use style="stroke:#000000;stroke-width:0.8;" x="370.835578" xlink:href="#m578bfbf01a" y="309.8635"/>
      </g>
     </g>
     <g id="text_8">
      <!-- 2015 -->
      <g transform="translate(358.110578 324.461937)scale(0.1 -0.1)">
       <use xlink:href="#DejaVuSans-32"/>
       <use x="63.623047" xlink:href="#DejaVuSans-30"/>
       <use x="127.246094" xlink:href="#DejaVuSans-31"/>
       <use x="190.869141" xlink:href="#DejaVuSans-35"/>
      </g>
     </g>
    </g>
    <g id="xtick_9">
     <g id="line2d_17">
      <path clip-path="url(#pcfc50eb7db)" d="M 419.343866 309.8635 
L 419.343866 23.36505 
" style="fill:none;stroke:#b0b0b0;stroke-linecap:square;stroke-width:0.8;"/>
     </g>
     <g id="line2d_18">
      <g>
       <use style="stroke:#000000;stroke-width:0.8;" x="419.343866" xlink:href="#m578bfbf01a" y="309.8635"/>
      </g>
     </g>
     <g id="text_9">
      <!-- 2017 -->
      <g transform="translate(406.618866 324.461937)scale(0.1 -0.1)">
       <use xlink:href="#DejaVuSans-32"/>
       <use x="63.623047" xlink:href="#DejaVuSans-30"/>
       <use x="127.246094" xlink:href="#DejaVuSans-31"/>
       <use x="190.869141" xlink:href="#DejaVuSans-37"/>
      </g>
     </g>
    </g>
    <g id="text_10">
     <!-- Date -->
     <defs>
      <path d="M 19.671875 64.796875 
L 19.671875 8.109375 
L 31.59375 8.109375 
Q 46.6875 8.109375 53.6875 14.9375 
Q 60.6875 21.78125 60.6875 36.53125 
Q 60.6875 51.171875 53.6875 57.984375 
Q 46.6875 64.796875 31.59375 64.796875 
z
M 9.8125 72.90625 
L 30.078125 72.90625 
Q 51.265625 72.90625 61.171875 64.09375 
Q 71.09375 55.28125 71.09375 36.53125 
Q 71.09375 17.671875 61.125 8.828125 
Q 51.171875 0 30.078125 0 
L 9.8125 0 
z
" id="DejaVuSans-44"/>
      <path d="M 34.28125 27.484375 
Q 23.390625 27.484375 19.1875 25 
Q 14.984375 22.515625 14.984375 16.5 
Q 14.984375 11.71875 18.140625 8.90625 
Q 21.296875 6.109375 26.703125 6.109375 
Q 34.1875 6.109375 38.703125 11.40625 
Q 43.21875 16.703125 43.21875 25.484375 
L 43.21875 27.484375 
z
M 52.203125 31.203125 
L 52.203125 0 
L 43.21875 0 
L 43.21875 8.296875 
Q 40.140625 3.328125 35.546875 0.953125 
Q 30.953125 -1.421875 24.3125 -1.421875 
Q 15.921875 -1.421875 10.953125 3.296875 
Q 6 8.015625 6 15.921875 
Q 6 25.140625 12.171875 29.828125 
Q 18.359375 34.515625 30.609375 34.515625 
L 43.21875 34.515625 
L 43.21875 35.40625 
Q 43.21875 41.609375 39.140625 45 
Q 35.0625 48.390625 27.6875 48.390625 
Q 23 48.390625 18.546875 47.265625 
Q 14.109375 46.140625 10.015625 43.890625 
L 10.015625 52.203125 
Q 14.9375 54.109375 19.578125 55.046875 
Q 24.21875 56 28.609375 56 
Q 40.484375 56 46.34375 49.84375 
Q 52.203125 43.703125 52.203125 31.203125 
z
" id="DejaVuSans-61"/>
      <path d="M 18.3125 70.21875 
L 18.3125 54.6875 
L 36.8125 54.6875 
L 36.8125 47.703125 
L 18.3125 47.703125 
L 18.3125 18.015625 
Q 18.3125 11.328125 20.140625 9.421875 
Q 21.96875 7.515625 27.59375 7.515625 
L 36.8125 7.515625 
L 36.8125 0 
L 27.59375 0 
Q 17.1875 0 13.234375 3.875 
Q 9.28125 7.765625 9.28125 18.015625 
L 9.28125 47.703125 
L 2.6875 47.703125 
L 2.6875 54.6875 
L 9.28125 54.6875 
L 9.28125 70.21875 
z
" id="DejaVuSans-74"/>
      <path d="M 56.203125 29.59375 
L 56.203125 25.203125 
L 14.890625 25.203125 
Q 15.484375 15.921875 20.484375 11.0625 
Q 25.484375 6.203125 34.421875 6.203125 
Q 39.59375 6.203125 44.453125 7.46875 
Q 49.3125 8.734375 54.109375 11.28125 
L 54.109375 2.78125 
Q 49.265625 0.734375 44.1875 -0.34375 
Q 39.109375 -1.421875 33.890625 -1.421875 
Q 20.796875 -1.421875 13.15625 6.1875 
Q 5.515625 13.8125 5.515625 26.8125 
Q 5.515625 40.234375 12.765625 48.109375 
Q 20.015625 56 32.328125 56 
Q 43.359375 56 49.78125 48.890625 
Q 56.203125 41.796875 56.203125 29.59375 
z
M 47.21875 32.234375 
Q 47.125 39.59375 43.09375 43.984375 
Q 39.0625 48.390625 32.421875 48.390625 
Q 24.90625 48.390625 20.390625 44.140625 
Q 15.875 39.890625 15.1875 32.171875 
z
" id="DejaVuSans-65"/>
     </defs>
     <g transform="translate(227.560719 338.140062)scale(0.1 -0.1)">
      <use xlink:href="#DejaVuSans-44"/>
      <use x="77.001953" xlink:href="#DejaVuSans-61"/>
      <use x="138.28125" xlink:href="#DejaVuSans-74"/>
      <use x="177.490234" xlink:href="#DejaVuSans-65"/>
     </g>
    </g>
   </g>
   <g id="matplotlib.axis_2">
    <g id="ytick_1">
     <g id="line2d_19">
      <path clip-path="url(#pcfc50eb7db)" d="M 31.543 309.8635 
L 447.48 309.8635 
" style="fill:none;stroke:#b0b0b0;stroke-linecap:square;stroke-width:0.8;"/>
     </g>
     <g id="line2d_20">
      <defs>
       <path d="M 0 0 
L -3.5 0 
" id="mdf6dbe9de1" style="stroke:#000000;stroke-width:0.8;"/>
      </defs>
      <g>
       <use style="stroke:#000000;stroke-width:0.8;" x="31.543" xlink:href="#mdf6dbe9de1" y="309.8635"/>
      </g>
     </g>
     <g id="text_11">
      <!-- 0 -->
      <g transform="translate(18.1805 313.662719)scale(0.1 -0.1)">
       <use xlink:href="#DejaVuSans-30"/>
      </g>
     </g>
    </g>
    <g id="ytick_2">
     <g id="line2d_21">
      <path clip-path="url(#pcfc50eb7db)" d="M 31.543 270.995171 
L 447.48 270.995171 
" style="fill:none;stroke:#b0b0b0;stroke-linecap:square;stroke-width:0.8;"/>
     </g>
     <g id="line2d_22">
      <g>
       <use style="stroke:#000000;stroke-width:0.8;" x="31.543" xlink:href="#mdf6dbe9de1" y="270.995171"/>
      </g>
     </g>
     <g id="text_12">
      <!-- 50 -->
      <g transform="translate(11.818 274.79439)scale(0.1 -0.1)">
       <use xlink:href="#DejaVuSans-35"/>
       <use x="63.623047" xlink:href="#DejaVuSans-30"/>
      </g>
     </g>
    </g>
    <g id="ytick_3">
     <g id="line2d_23">
      <path clip-path="url(#pcfc50eb7db)" d="M 31.543 232.126843 
L 447.48 232.126843 
" style="fill:none;stroke:#b0b0b0;stroke-linecap:square;stroke-width:0.8;"/>
     </g>
     <g id="line2d_24">
      <g>
       <use style="stroke:#000000;stroke-width:0.8;" x="31.543" xlink:href="#mdf6dbe9de1" y="232.126843"/>
      </g>
     </g>
     <g id="text_13">
      <!-- 100 -->
      <g transform="translate(5.4555 235.926062)scale(0.1 -0.1)">
       <use xlink:href="#DejaVuSans-31"/>
       <use x="63.623047" xlink:href="#DejaVuSans-30"/>
       <use x="127.246094" xlink:href="#DejaVuSans-30"/>
      </g>
     </g>
    </g>
    <g id="ytick_4">
     <g id="line2d_25">
      <path clip-path="url(#pcfc50eb7db)" d="M 31.543 193.258514 
L 447.48 193.258514 
" style="fill:none;stroke:#b0b0b0;stroke-linecap:square;stroke-width:0.8;"/>
     </g>
     <g id="line2d_26">
      <g>
       <use style="stroke:#000000;stroke-width:0.8;" x="31.543" xlink:href="#mdf6dbe9de1" y="193.258514"/>
      </g>
     </g>
     <g id="text_14">
      <!-- 150 -->
      <g transform="translate(5.4555 197.057733)scale(0.1 -0.1)">
       <use xlink:href="#DejaVuSans-31"/>
       <use x="63.623047" xlink:href="#DejaVuSans-35"/>
       <use x="127.246094" xlink:href="#DejaVuSans-30"/>
      </g>
     </g>
    </g>
    <g id="ytick_5">
     <g id="line2d_27">
      <path clip-path="url(#pcfc50eb7db)" d="M 31.543 154.390186 
L 447.48 154.390186 
" style="fill:none;stroke:#b0b0b0;stroke-linecap:square;stroke-width:0.8;"/>
     </g>
     <g id="line2d_28">
      <g>
       <use style="stroke:#000000;stroke-width:0.8;" x="31.543" xlink:href="#mdf6dbe9de1" y="154.390186"/>
      </g>
     </g>
     <g id="text_15">
      <!-- 200 -->
      <g transform="translate(5.4555 158.189404)scale(0.1 -0.1)">
       <use xlink:href="#DejaVuSans-32"/>
       <use x="63.623047" xlink:href="#DejaVuSans-30"/>
       <use x="127.246094" xlink:href="#DejaVuSans-30"/>
      </g>
     </g>
    </g>
    <g id="ytick_6">
     <g id="line2d_29">
      <path clip-path="url(#pcfc50eb7db)" d="M 31.543 115.521857 
L 447.48 115.521857 
" style="fill:none;stroke:#b0b0b0;stroke-linecap:square;stroke-width:0.8;"/>
     </g>
     <g id="line2d_30">
      <g>
       <use style="stroke:#000000;stroke-width:0.8;" x="31.543" xlink:href="#mdf6dbe9de1" y="115.521857"/>
      </g>
     </g>
     <g id="text_16">
      <!-- 250 -->
      <g transform="translate(5.4555 119.321076)scale(0.1 -0.1)">
       <use xlink:href="#DejaVuSans-32"/>
       <use x="63.623047" xlink:href="#DejaVuSans-35"/>
       <use x="127.246094" xlink:href="#DejaVuSans-30"/>
      </g>
     </g>
    </g>
    <g id="ytick_7">
     <g id="line2d_31">
      <path clip-path="url(#pcfc50eb7db)" d="M 31.543 76.653528 
L 447.48 76.653528 
" style="fill:none;stroke:#b0b0b0;stroke-linecap:square;stroke-width:0.8;"/>
     </g>
     <g id="line2d_32">
      <g>
       <use style="stroke:#000000;stroke-width:0.8;" x="31.543" xlink:href="#mdf6dbe9de1" y="76.653528"/>
      </g>
     </g>
     <g id="text_17">
      <!-- 300 -->
      <g transform="translate(5.4555 80.452747)scale(0.1 -0.1)">
       <use xlink:href="#DejaVuSans-33"/>
       <use x="63.623047" xlink:href="#DejaVuSans-30"/>
       <use x="127.246094" xlink:href="#DejaVuSans-30"/>
      </g>
     </g>
    </g>
    <g id="ytick_8">
     <g id="line2d_33">
      <path clip-path="url(#pcfc50eb7db)" d="M 31.543 37.7852 
L 447.48 37.7852 
" style="fill:none;stroke:#b0b0b0;stroke-linecap:square;stroke-width:0.8;"/>
     </g>
     <g id="line2d_34">
      <g>
       <use style="stroke:#000000;stroke-width:0.8;" x="31.543" xlink:href="#mdf6dbe9de1" y="37.7852"/>
      </g>
     </g>
     <g id="text_18">
      <!-- 350 -->
      <g transform="translate(5.4555 41.584419)scale(0.1 -0.1)">
       <use xlink:href="#DejaVuSans-33"/>
       <use x="63.623047" xlink:href="#DejaVuSans-35"/>
       <use x="127.246094" xlink:href="#DejaVuSans-30"/>
      </g>
     </g>
    </g>
   </g>
   <g id="line2d_35">
    <path clip-path="url(#pcfc50eb7db)" d="M 31.543 208.805846 
L 33.600123 177.711183 
L 35.45817 195.979297 
L 37.515293 180.820649 
L 39.506057 192.481148 
L 41.56318 200.254813 
L 43.553944 221.243711 
L 45.611067 214.247412 
L 47.66819 228.24001 
L 51.716077 308.69745 
L 53.706841 276.436737 
L 55.763964 286.542503 
L 57.821087 277.214104 
L 59.679134 260.112039 
L 61.736257 254.670473 
L 63.727021 252.338374 
L 65.784144 254.670473 
L 67.774908 242.232608 
L 69.832031 247.285491 
L 71.889154 200.254813 
L 73.879919 198.70008 
L 75.937042 288.485919 
L 77.927806 278.768837 
L 79.984929 250.006274 
L 82.042052 248.062858 
L 83.900098 267.497022 
L 85.957221 232.126843 
L 87.947986 282.65567 
L 90.005109 281.48962 
L 91.995873 189.371681 
L 94.052996 218.911611 
L 96.110119 291.206702 
L 98.100883 293.538802 
L 100.158006 309.8635 
L 110.244545 309.8635 
L 114.292432 265.553605 
L 116.283196 249.228907 
L 118.340319 252.338374 
L 120.397442 309.8635 
L 138.513396 309.8635 
L 140.50416 258.557306 
L 142.561284 263.221506 
L 144.618407 309.8635 
L 160.677238 309.8635 
L 162.734361 300.535101 
L 164.725125 222.798444 
L 166.782248 258.557306 
L 168.839371 255.059157 
L 170.830135 277.991471 
L 172.887258 309.8635 
L 174.878022 268.663072 
L 176.935145 309.8635 
L 180.850315 309.8635 
L 182.907438 258.557306 
L 184.898202 227.07396 
L 186.955325 191.703781 
L 188.946089 206.473746 
L 191.003212 195.201931 
L 193.060335 176.15645 
L 195.0511 215.413462 
L 197.108223 258.557306 
L 199.098987 258.557306 
L 201.15611 309.8635 
L 209.185525 309.8635 
L 211.242648 256.225207 
L 213.233413 208.805846 
L 215.290536 207.251113 
L 217.347659 193.258514 
L 219.338423 222.409761 
L 221.395546 224.353177 
L 223.38631 246.508124 
L 225.443433 258.557306 
L 227.500556 258.557306 
L 229.358603 275.659371 
L 231.415726 288.874603 
L 233.40649 269.051755 
L 235.463613 258.557306 
L 237.454377 214.636095 
L 239.5115 205.696379 
L 241.568623 224.353177 
L 243.559387 222.021077 
L 245.61651 258.557306 
L 247.607274 224.353177 
L 249.664397 260.112039 
L 251.72152 258.557306 
L 253.579567 263.221506 
L 255.63669 258.557306 
L 257.627454 309.8635 
L 259.684577 309.8635 
L 261.675341 241.455242 
L 263.732464 229.40606 
L 265.789587 258.557306 
L 267.780352 309.8635 
L 269.837475 285.765136 
L 271.828239 309.8635 
L 281.848419 309.8635 
L 283.905542 275.659371 
L 285.896306 246.119441 
L 287.953429 260.889406 
L 290.010552 309.8635 
L 306.135742 309.8635 
L 308.192865 277.214104 
L 310.183629 270.217805 
L 312.240752 258.557306 
L 314.297875 279.546204 
L 316.288639 287.319869 
L 318.345762 293.538802 
L 320.336526 309.8635 
L 322.393649 309.8635 
L 324.450772 287.319869 
L 326.308819 285.376453 
L 328.365942 309.8635 
L 330.356706 300.535101 
L 332.413829 257.77994 
L 334.404593 234.847626 
L 336.461716 259.334673 
L 338.51884 266.330972 
L 340.509604 280.32357 
L 342.566727 280.32357 
L 344.557491 267.108339 
L 346.614614 263.998872 
L 348.671737 271.383855 
L 350.529784 269.440438 
L 352.586907 291.206702 
L 354.577671 288.874603 
L 356.634794 287.319869 
L 358.625558 253.893107 
L 360.682681 260.112039 
L 362.739804 286.542503 
L 364.730568 287.319869 
L 366.787691 270.995171 
L 368.778455 302.089834 
L 370.835578 309.8635 
L 378.798635 309.8635 
L 380.855758 288.097236 
L 382.846522 263.998872 
L 384.903645 267.108339 
L 386.960768 294.704852 
L 388.951533 309.8635 
L 405.143081 309.8635 
L 407.133846 288.097236 
L 409.190969 277.991471 
L 411.248092 309.8635 
L 429.364046 309.8635 
L 431.35481 308.308767 
L 433.411933 309.8635 
L 447.48 309.8635 
L 447.48 309.8635 
" style="fill:none;stroke:#1f77b4;stroke-linecap:square;stroke-width:1.5;"/>
   </g>
   <g id="patch_3">
    <path d="M 31.543 309.8635 
L 31.543 23.36505 
" style="fill:none;stroke:#000000;stroke-linecap:square;stroke-linejoin:miter;stroke-width:0.8;"/>
   </g>
   <g id="patch_4">
    <path d="M 447.48 309.8635 
L 447.48 23.36505 
" style="fill:none;stroke:#000000;stroke-linecap:square;stroke-linejoin:miter;stroke-width:0.8;"/>
   </g>
   <g id="patch_5">
    <path d="M 31.543 309.8635 
L 447.48 309.8635 
" style="fill:none;stroke:#000000;stroke-linecap:square;stroke-linejoin:miter;stroke-width:0.8;"/>
   </g>
   <g id="patch_6">
    <path d="M 31.543 23.36505 
L 447.48 23.36505 
" style="fill:none;stroke:#000000;stroke-linecap:square;stroke-linejoin:miter;stroke-width:0.8;"/>
   </g>
   <g id="text_19">
    <!-- Monthly gross load trend (MW) -->
    <defs>
     <path d="M 9.8125 72.90625 
L 24.515625 72.90625 
L 43.109375 23.296875 
L 61.8125 72.90625 
L 76.515625 72.90625 
L 76.515625 0 
L 66.890625 0 
L 66.890625 64.015625 
L 48.09375 14.015625 
L 38.1875 14.015625 
L 19.390625 64.015625 
L 19.390625 0 
L 9.8125 0 
z
" id="DejaVuSans-4d"/>
     <path d="M 30.609375 48.390625 
Q 23.390625 48.390625 19.1875 42.75 
Q 14.984375 37.109375 14.984375 27.296875 
Q 14.984375 17.484375 19.15625 11.84375 
Q 23.34375 6.203125 30.609375 6.203125 
Q 37.796875 6.203125 41.984375 11.859375 
Q 46.1875 17.53125 46.1875 27.296875 
Q 46.1875 37.015625 41.984375 42.703125 
Q 37.796875 48.390625 30.609375 48.390625 
z
M 30.609375 56 
Q 42.328125 56 49.015625 48.375 
Q 55.71875 40.765625 55.71875 27.296875 
Q 55.71875 13.875 49.015625 6.21875 
Q 42.328125 -1.421875 30.609375 -1.421875 
Q 18.84375 -1.421875 12.171875 6.21875 
Q 5.515625 13.875 5.515625 27.296875 
Q 5.515625 40.765625 12.171875 48.375 
Q 18.84375 56 30.609375 56 
z
" id="DejaVuSans-6f"/>
     <path d="M 54.890625 33.015625 
L 54.890625 0 
L 45.90625 0 
L 45.90625 32.71875 
Q 45.90625 40.484375 42.875 44.328125 
Q 39.84375 48.1875 33.796875 48.1875 
Q 26.515625 48.1875 22.3125 43.546875 
Q 18.109375 38.921875 18.109375 30.90625 
L 18.109375 0 
L 9.078125 0 
L 9.078125 54.6875 
L 18.109375 54.6875 
L 18.109375 46.1875 
Q 21.34375 51.125 25.703125 53.5625 
Q 30.078125 56 35.796875 56 
Q 45.21875 56 50.046875 50.171875 
Q 54.890625 44.34375 54.890625 33.015625 
z
" id="DejaVuSans-6e"/>
     <path d="M 54.890625 33.015625 
L 54.890625 0 
L 45.90625 0 
L 45.90625 32.71875 
Q 45.90625 40.484375 42.875 44.328125 
Q 39.84375 48.1875 33.796875 48.1875 
Q 26.515625 48.1875 22.3125 43.546875 
Q 18.109375 38.921875 18.109375 30.90625 
L 18.109375 0 
L 9.078125 0 
L 9.078125 75.984375 
L 18.109375 75.984375 
L 18.109375 46.1875 
Q 21.34375 51.125 25.703125 53.5625 
Q 30.078125 56 35.796875 56 
Q 45.21875 56 50.046875 50.171875 
Q 54.890625 44.34375 54.890625 33.015625 
z
" id="DejaVuSans-68"/>
     <path d="M 9.421875 75.984375 
L 18.40625 75.984375 
L 18.40625 0 
L 9.421875 0 
z
" id="DejaVuSans-6c"/>
     <path d="M 32.171875 -5.078125 
Q 28.375 -14.84375 24.75 -17.8125 
Q 21.140625 -20.796875 15.09375 -20.796875 
L 7.90625 -20.796875 
L 7.90625 -13.28125 
L 13.1875 -13.28125 
Q 16.890625 -13.28125 18.9375 -11.515625 
Q 21 -9.765625 23.484375 -3.21875 
L 25.09375 0.875 
L 2.984375 54.6875 
L 12.5 54.6875 
L 29.59375 11.921875 
L 46.6875 54.6875 
L 56.203125 54.6875 
z
" id="DejaVuSans-79"/>
     <path id="DejaVuSans-20"/>
     <path d="M 45.40625 27.984375 
Q 45.40625 37.75 41.375 43.109375 
Q 37.359375 48.484375 30.078125 48.484375 
Q 22.859375 48.484375 18.828125 43.109375 
Q 14.796875 37.75 14.796875 27.984375 
Q 14.796875 18.265625 18.828125 12.890625 
Q 22.859375 7.515625 30.078125 7.515625 
Q 37.359375 7.515625 41.375 12.890625 
Q 45.40625 18.265625 45.40625 27.984375 
z
M 54.390625 6.78125 
Q 54.390625 -7.171875 48.1875 -13.984375 
Q 42 -20.796875 29.203125 -20.796875 
Q 24.46875 -20.796875 20.265625 -20.09375 
Q 16.0625 -19.390625 12.109375 -17.921875 
L 12.109375 -9.1875 
Q 16.0625 -11.328125 19.921875 -12.34375 
Q 23.78125 -13.375 27.78125 -13.375 
Q 36.625 -13.375 41.015625 -8.765625 
Q 45.40625 -4.15625 45.40625 5.171875 
L 45.40625 9.625 
Q 42.625 4.78125 38.28125 2.390625 
Q 33.9375 0 27.875 0 
Q 17.828125 0 11.671875 7.65625 
Q 5.515625 15.328125 5.515625 27.984375 
Q 5.515625 40.671875 11.671875 48.328125 
Q 17.828125 56 27.875 56 
Q 33.9375 56 38.28125 53.609375 
Q 42.625 51.21875 45.40625 46.390625 
L 45.40625 54.6875 
L 54.390625 54.6875 
z
" id="DejaVuSans-67"/>
     <path d="M 41.109375 46.296875 
Q 39.59375 47.171875 37.8125 47.578125 
Q 36.03125 48 33.890625 48 
Q 26.265625 48 22.1875 43.046875 
Q 18.109375 38.09375 18.109375 28.8125 
L 18.109375 0 
L 9.078125 0 
L 9.078125 54.6875 
L 18.109375 54.6875 
L 18.109375 46.1875 
Q 20.953125 51.171875 25.484375 53.578125 
Q 30.03125 56 36.53125 56 
Q 37.453125 56 38.578125 55.875 
Q 39.703125 55.765625 41.0625 55.515625 
z
" id="DejaVuSans-72"/>
     <path d="M 44.28125 53.078125 
L 44.28125 44.578125 
Q 40.484375 46.53125 36.375 47.5 
Q 32.28125 48.484375 27.875 48.484375 
Q 21.1875 48.484375 17.84375 46.4375 
Q 14.5 44.390625 14.5 40.28125 
Q 14.5 37.15625 16.890625 35.375 
Q 19.28125 33.59375 26.515625 31.984375 
L 29.59375 31.296875 
Q 39.15625 29.25 43.1875 25.515625 
Q 47.21875 21.78125 47.21875 15.09375 
Q 47.21875 7.46875 41.1875 3.015625 
Q 35.15625 -1.421875 24.609375 -1.421875 
Q 20.21875 -1.421875 15.453125 -0.5625 
Q 10.6875 0.296875 5.421875 2 
L 5.421875 11.28125 
Q 10.40625 8.6875 15.234375 7.390625 
Q 20.0625 6.109375 24.8125 6.109375 
Q 31.15625 6.109375 34.5625 8.28125 
Q 37.984375 10.453125 37.984375 14.40625 
Q 37.984375 18.0625 35.515625 20.015625 
Q 33.0625 21.96875 24.703125 23.78125 
L 21.578125 24.515625 
Q 13.234375 26.265625 9.515625 29.90625 
Q 5.8125 33.546875 5.8125 39.890625 
Q 5.8125 47.609375 11.28125 51.796875 
Q 16.75 56 26.8125 56 
Q 31.78125 56 36.171875 55.265625 
Q 40.578125 54.546875 44.28125 53.078125 
z
" id="DejaVuSans-73"/>
     <path d="M 45.40625 46.390625 
L 45.40625 75.984375 
L 54.390625 75.984375 
L 54.390625 0 
L 45.40625 0 
L 45.40625 8.203125 
Q 42.578125 3.328125 38.25 0.953125 
Q 33.9375 -1.421875 27.875 -1.421875 
Q 17.96875 -1.421875 11.734375 6.484375 
Q 5.515625 14.40625 5.515625 27.296875 
Q 5.515625 40.1875 11.734375 48.09375 
Q 17.96875 56 27.875 56 
Q 33.9375 56 38.25 53.625 
Q 42.578125 51.265625 45.40625 46.390625 
z
M 14.796875 27.296875 
Q 14.796875 17.390625 18.875 11.75 
Q 22.953125 6.109375 30.078125 6.109375 
Q 37.203125 6.109375 41.296875 11.75 
Q 45.40625 17.390625 45.40625 27.296875 
Q 45.40625 37.203125 41.296875 42.84375 
Q 37.203125 48.484375 30.078125 48.484375 
Q 22.953125 48.484375 18.875 42.84375 
Q 14.796875 37.203125 14.796875 27.296875 
z
" id="DejaVuSans-64"/>
     <path d="M 31 75.875 
Q 24.46875 64.65625 21.28125 53.65625 
Q 18.109375 42.671875 18.109375 31.390625 
Q 18.109375 20.125 21.3125 9.0625 
Q 24.515625 -2 31 -13.1875 
L 23.1875 -13.1875 
Q 15.875 -1.703125 12.234375 9.375 
Q 8.59375 20.453125 8.59375 31.390625 
Q 8.59375 42.28125 12.203125 53.3125 
Q 15.828125 64.359375 23.1875 75.875 
z
" id="DejaVuSans-28"/>
     <path d="M 3.328125 72.90625 
L 13.28125 72.90625 
L 28.609375 11.28125 
L 43.890625 72.90625 
L 54.984375 72.90625 
L 70.3125 11.28125 
L 85.59375 72.90625 
L 95.609375 72.90625 
L 77.296875 0 
L 64.890625 0 
L 49.515625 63.28125 
L 33.984375 0 
L 21.578125 0 
z
" id="DejaVuSans-57"/>
     <path d="M 8.015625 75.875 
L 15.828125 75.875 
Q 23.140625 64.359375 26.78125 53.3125 
Q 30.421875 42.28125 30.421875 31.390625 
Q 30.421875 20.453125 26.78125 9.375 
Q 23.140625 -1.703125 15.828125 -13.1875 
L 8.015625 -13.1875 
Q 14.5 -2 17.703125 9.0625 
Q 20.90625 20.125 20.90625 31.390625 
Q 20.90625 42.671875 17.703125 53.65625 
Q 14.5 64.65625 8.015625 75.875 
z
" id="DejaVuSans-29"/>
    </defs>
    <g transform="translate(146.928688 17.36505)scale(0.12 -0.12)">
     <use xlink:href="#DejaVuSans-4d"/>
     <use x="86.279297" xlink:href="#DejaVuSans-6f"/>
     <use x="147.460938" xlink:href="#DejaVuSans-6e"/>
     <use x="210.839844" xlink:href="#DejaVuSans-74"/>
     <use x="250.048828" xlink:href="#DejaVuSans-68"/>
     <use x="313.427734" xlink:href="#DejaVuSans-6c"/>
     <use x="341.210938" xlink:href="#DejaVuSans-79"/>
     <use x="400.390625" xlink:href="#DejaVuSans-20"/>
     <use x="432.177734" xlink:href="#DejaVuSans-67"/>
     <use x="495.654297" xlink:href="#DejaVuSans-72"/>
     <use x="536.736328" xlink:href="#DejaVuSans-6f"/>
     <use x="597.917969" xlink:href="#DejaVuSans-73"/>
     <use x="650.017578" xlink:href="#DejaVuSans-73"/>
     <use x="702.117188" xlink:href="#DejaVuSans-20"/>
     <use x="733.904297" xlink:href="#DejaVuSans-6c"/>
     <use x="761.6875" xlink:href="#DejaVuSans-6f"/>
     <use x="822.869141" xlink:href="#DejaVuSans-61"/>
     <use x="884.148438" xlink:href="#DejaVuSans-64"/>
     <use x="947.625" xlink:href="#DejaVuSans-20"/>
     <use x="979.412109" xlink:href="#DejaVuSans-74"/>
     <use x="1018.621094" xlink:href="#DejaVuSans-72"/>
     <use x="1059.703125" xlink:href="#DejaVuSans-65"/>
     <use x="1121.226562" xlink:href="#DejaVuSans-6e"/>
     <use x="1184.605469" xlink:href="#DejaVuSans-64"/>
     <use x="1248.082031" xlink:href="#DejaVuSans-20"/>
     <use x="1279.869141" xlink:href="#DejaVuSans-28"/>
     <use x="1318.882812" xlink:href="#DejaVuSans-4d"/>
     <use x="1405.162109" xlink:href="#DejaVuSans-57"/>
     <use x="1504.039062" xlink:href="#DejaVuSans-29"/>
    </g>
   </g>
  </g>
 </g>
 <defs>
  <clipPath id="pcfc50eb7db">
   <rect height="286.49845" width="415.937" x="31.543" y="23.36505"/>
  </clipPath>
 </defs>
</svg>
