<?xml version="1.0" encoding="utf-8" standalone="no"?>
<!DOCTYPE svg PUBLIC "-//W3C//DTD SVG 1.1//EN"
  "http://www.w3.org/Graphics/SVG/1.1/DTD/svg11.dtd">
<!-- Created with matplotlib (http://matplotlib.org/) -->
<svg height="345.6pt" version="1.1" viewBox="0 0 460.8 345.6" width="460.8pt" xmlns="http://www.w3.org/2000/svg" xmlns:xlink="http://www.w3.org/1999/xlink">
 <defs>
  <style type="text/css">
*{stroke-linecap:butt;stroke-linejoin:round;}
  </style>
 </defs>
 <g id="figure_1">
  <g id="patch_1">
   <path d="M 0 345.6 
L 460.8 345.6 
L 460.8 0 
L 0 0 
z
" style="fill:none;"/>
  </g>
  <g id="axes_1">
   <g id="patch_2">
    <path d="M 31.543 309.8635 
L 447.48 309.8635 
L 447.48 23.36505 
L 31.543 23.36505 
z
" style="fill:none;"/>
   </g>
   <g id="PolyCollection_1">
    <path clip-path="url(#p0f3327b83a)" d="M 31.543 60.923469 
L 31.543 196.807766 
L 34.276527 142.454047 
L 36.745519 239.203666 
L 39.479046 234.855369 
L 42.124395 225.071699 
L 44.857922 228.332922 
L 47.503271 231.594145 
L 50.236798 192.459468 
L 52.970325 195.720691 
L 55.615674 207.678509 
L 58.349201 282.686641 
L 60.994549 309.8635 
L 63.728076 201.156063 
L 66.461603 228.332922 
L 68.930596 135.931601 
L 71.664123 220.723402 
L 74.309471 194.633617 
L 77.042998 182.675799 
L 79.688347 175.066278 
L 82.421874 241.377815 
L 85.155401 243.551963 
L 87.80075 216.375104 
L 90.534277 242.464889 
L 93.179626 201.156063 
L 95.913153 309.8635 
L 98.64668 287.034938 
L 101.115672 269.641748 
L 103.849199 232.68122 
L 106.494548 269.641748 
L 109.228075 269.641748 
L 111.873423 194.633617 
L 114.60695 289.209087 
L 117.340477 227.245848 
L 119.985826 309.8635 
L 122.719353 197.89484 
L 125.364702 213.113881 
L 128.098229 232.68122 
L 130.831756 233.768294 
L 133.388926 246.813187 
L 136.122453 309.8635 
L 138.767802 222.89755 
L 141.501329 265.293451 
L 144.146678 209.852658 
L 146.880205 268.554674 
L 149.613732 309.8635 
L 152.259081 309.8635 
L 154.992608 272.902971 
L 157.637957 217.462179 
L 160.371484 276.164195 
L 163.105011 306.602277 
L 165.574003 230.507071 
L 168.30753 309.8635 
L 170.952879 309.8635 
L 173.686406 227.245848 
L 176.331754 287.034938 
L 179.065281 309.8635 
L 181.798808 212.026807 
L 184.444157 216.375104 
L 187.177684 309.8635 
L 189.823033 309.8635 
L 192.55656 309.8635 
L 195.290087 301.166905 
L 197.759079 225.071699 
L 200.492606 283.773715 
L 203.137955 216.375104 
L 205.871482 270.728823 
L 208.516831 228.332922 
L 211.250358 207.678509 
L 213.983885 282.686641 
L 216.629233 309.8635 
L 219.36276 268.554674 
L 222.008109 222.89755 
L 224.741636 251.161484 
L 227.475163 309.8635 
L 229.944155 309.8635 
L 232.677682 269.641748 
L 235.323031 222.89755 
L 238.056558 228.332922 
L 240.701907 203.330212 
L 243.435434 205.504361 
L 246.168961 221.810476 
L 248.81431 309.8635 
L 251.547837 284.86079 
L 254.193185 217.462179 
L 256.926713 207.678509 
L 259.66024 214.200956 
L 262.21741 309.8635 
L 264.950937 309.8635 
L 267.596286 271.815897 
L 270.329813 206.591435 
L 272.975162 205.504361 
L 275.708689 264.206376 
L 278.442216 216.375104 
L 281.087564 309.8635 
L 283.821091 309.8635 
L 286.46644 269.641748 
L 289.199967 284.86079 
L 291.933494 309.8635 
L 294.402486 309.8635 
L 297.136013 231.594145 
L 299.781362 284.86079 
L 302.514889 219.636327 
L 305.160238 285.947864 
L 307.893765 269.641748 
L 310.627292 232.68122 
L 313.272641 309.8635 
L 316.006168 240.29074 
L 318.651516 309.8635 
L 321.385043 309.8635 
L 324.11857 309.8635 
L 326.587563 309.8635 
L 329.32109 309.8635 
L 331.966438 309.8635 
L 334.699965 288.122013 
L 337.345314 309.8635 
L 340.078841 309.8635 
L 342.812368 278.338343 
L 345.457717 309.8635 
L 348.191244 309.8635 
L 350.836593 273.990046 
L 353.57012 284.86079 
L 356.303647 309.8635 
L 358.772639 309.8635 
L 361.506166 309.8635 
L 364.151515 309.8635 
L 366.885042 309.8635 
L 369.530391 309.8635 
L 372.263918 283.773715 
L 374.997445 309.8635 
L 377.642793 282.686641 
L 380.37632 309.8635 
L 383.021669 309.8635 
L 385.755196 285.947864 
L 388.488723 283.773715 
L 391.045894 285.947864 
L 393.779421 309.8635 
L 396.424769 289.209087 
L 399.158296 309.8635 
L 401.803645 237.029517 
L 404.537172 214.200956 
L 407.270699 283.773715 
L 409.916048 309.8635 
L 412.649575 268.554674 
L 415.294924 237.029517 
L 418.028451 309.8635 
L 420.761978 241.377815 
L 423.23097 309.8635 
L 425.964497 284.86079 
L 428.609846 268.554674 
L 431.343373 309.8635 
L 433.988721 309.8635 
L 436.722248 309.8635 
L 439.455775 220.723402 
L 442.101124 220.723402 
L 444.834651 284.86079 
L 447.48 309.8635 
L 447.48 157.673088 
L 447.48 157.673088 
L 444.834651 159.847237 
L 442.101124 158.760163 
L 439.455775 159.847237 
L 436.722248 160.934311 
L 433.988721 198.981914 
L 431.343373 146.802345 
L 428.609846 144.628196 
L 425.964497 141.366973 
L 423.23097 147.889419 
L 420.761978 146.802345 
L 418.028451 145.71527 
L 415.294924 144.628196 
L 412.649575 147.889419 
L 409.916048 147.889419 
L 407.270699 145.71527 
L 404.537172 144.628196 
L 401.803645 143.541122 
L 399.158296 142.454047 
L 396.424769 141.366973 
L 393.779421 166.369683 
L 391.045894 145.71527 
L 388.488723 143.541122 
L 385.755196 144.628196 
L 383.021669 139.192824 
L 380.37632 145.71527 
L 377.642793 145.71527 
L 374.997445 145.71527 
L 372.263918 145.71527 
L 369.530391 154.411865 
L 366.885042 263.119302 
L 364.151515 143.541122 
L 361.506166 135.931601 
L 358.772639 155.49894 
L 356.303647 154.411865 
L 353.57012 148.976493 
L 350.836593 147.889419 
L 348.191244 144.628196 
L 345.457717 151.150642 
L 342.812368 147.889419 
L 340.078841 146.802345 
L 337.345314 146.802345 
L 334.699965 143.541122 
L 331.966438 150.063568 
L 329.32109 188.111171 
L 326.587563 264.206376 
L 324.11857 262.032228 
L 321.385043 144.628196 
L 318.651516 146.802345 
L 316.006168 190.285319 
L 313.272641 144.628196 
L 310.627292 146.802345 
L 307.893765 142.454047 
L 305.160238 142.454047 
L 302.514889 145.71527 
L 299.781362 142.454047 
L 297.136013 150.063568 
L 294.402486 190.285319 
L 291.933494 262.032228 
L 289.199967 144.628196 
L 286.46644 140.279898 
L 283.821091 143.541122 
L 281.087564 142.454047 
L 278.442216 141.366973 
L 275.708689 138.10575 
L 272.975162 138.10575 
L 270.329813 137.018675 
L 267.596286 153.324791 
L 264.950937 201.156063 
L 262.21741 146.802345 
L 259.66024 143.541122 
L 256.926713 141.366973 
L 254.193185 142.454047 
L 251.547837 143.541122 
L 248.81431 145.71527 
L 246.168961 142.454047 
L 243.435434 141.366973 
L 240.701907 137.018675 
L 238.056558 138.10575 
L 235.323031 143.541122 
L 232.677682 140.279898 
L 229.944155 144.628196 
L 227.475163 139.192824 
L 224.741636 127.235006 
L 222.008109 148.976493 
L 219.36276 142.454047 
L 216.629233 148.976493 
L 213.983885 141.366973 
L 211.250358 132.670378 
L 208.516831 135.931601 
L 205.871482 139.192824 
L 203.137955 135.931601 
L 200.492606 137.018675 
L 197.759079 139.192824 
L 195.290087 144.628196 
L 192.55656 258.771005 
L 189.823033 259.858079 
L 187.177684 142.454047 
L 184.444157 135.931601 
L 181.798808 140.279898 
L 179.065281 138.10575 
L 176.331754 128.32208 
L 173.686406 139.192824 
L 170.952879 139.192824 
L 168.30753 128.32208 
L 165.574003 148.976493 
L 163.105011 173.979204 
L 160.371484 150.063568 
L 157.637957 145.71527 
L 154.992608 139.192824 
L 152.259081 142.454047 
L 149.613732 144.628196 
L 146.880205 139.192824 
L 144.146678 132.670378 
L 141.501329 139.192824 
L 138.767802 140.279898 
L 136.122453 139.192824 
L 133.388926 143.541122 
L 130.831756 184.849948 
L 128.098229 143.541122 
L 125.364702 138.10575 
L 122.719353 140.279898 
L 119.985826 131.583303 
L 117.340477 142.454047 
L 114.60695 129.409155 
L 111.873423 130.496229 
L 109.228075 139.192824 
L 106.494548 135.931601 
L 103.849199 146.802345 
L 101.115672 146.802345 
L 98.64668 158.760163 
L 95.913153 151.150642 
L 93.179626 103.31937 
L 90.534277 64.184693 
L 87.80075 75.055436 
L 85.155401 75.055436 
L 82.421874 48.965651 
L 79.688347 42.443205 
L 77.042998 60.923469 
L 74.309471 56.575172 
L 71.664123 72.881288 
L 68.930596 42.443205 
L 66.461603 56.575172 
L 63.728076 68.53299 
L 60.994549 56.575172 
L 58.349201 45.704428 
L 55.615674 44.617354 
L 52.970325 45.704428 
L 50.236798 37.007833 
L 47.503271 38.094908 
L 44.857922 43.53028 
L 42.124395 63.097618 
L 39.479046 67.445916 
L 36.745519 66.358841 
L 34.276527 70.707139 
L 31.543 60.923469 
z
" style="fill:#808080;fill-opacity:0.3;"/>
   </g>
   <g id="PolyCollection_2">
    <path clip-path="url(#p0f3327b83a)" d="M 31.543 80.490808 
L 31.543 102.232295 
L 34.276527 103.31937 
L 36.745519 129.409155 
L 39.479046 188.111171 
L 42.124395 194.633617 
L 44.857922 168.543832 
L 47.503271 115.277188 
L 50.236798 118.538411 
L 52.970325 160.934311 
L 55.615674 140.279898 
L 58.349201 132.670378 
L 60.994549 156.586014 
L 63.728076 128.32208 
L 66.461603 87.013254 
L 68.930596 113.103039 
L 71.664123 187.024096 
L 74.309471 123.973783 
L 77.042998 134.844527 
L 79.688347 114.190114 
L 82.421874 123.158477 
L 85.155401 157.673088 
L 87.80075 118.538411 
L 90.534277 131.583303 
L 93.179626 152.237716 
L 95.913153 309.8635 
L 98.64668 263.119302 
L 101.115672 191.372394 
L 103.849199 189.198245 
L 106.494548 187.024096 
L 109.228075 178.59927 
L 111.873423 151.150642 
L 114.60695 156.586014 
L 117.340477 182.675799 
L 119.985826 190.557088 
L 122.719353 159.847237 
L 125.364702 155.49894 
L 128.098229 194.633617 
L 130.831756 191.372394 
L 133.388926 191.372394 
L 136.122453 159.847237 
L 138.767802 183.762873 
L 141.501329 147.889419 
L 144.146678 151.150642 
L 146.880205 168.543832 
L 149.613732 216.646873 
L 152.259081 204.689055 
L 154.992608 193.818311 
L 157.637957 162.021386 
L 160.371484 198.981914 
L 163.105011 272.902971 
L 165.574003 192.459468 
L 168.30753 191.372394 
L 170.952879 194.633617 
L 173.686406 192.459468 
L 176.331754 207.678509 
L 179.065281 207.678509 
L 181.798808 150.063568 
L 184.444157 206.591435 
L 187.177684 208.765584 
L 189.823033 267.4676 
L 192.55656 309.8635 
L 195.290087 264.206376 
L 197.759079 172.892129 
L 200.492606 183.762873 
L 203.137955 166.369683 
L 205.871482 150.063568 
L 208.516831 173.163898 
L 211.250358 147.074113 
L 213.983885 162.293154 
L 216.629233 181.588724 
L 219.36276 168.543832 
L 222.008109 177.240427 
L 224.741636 176.153353 
L 227.475163 199.253683 
L 229.944155 309.8635 
L 232.677682 176.153353 
L 235.323031 182.675799 
L 238.056558 179.414576 
L 240.701907 146.802345 
L 243.435434 150.063568 
L 246.168961 153.324791 
L 248.81431 265.293451 
L 251.547837 264.206376 
L 254.193185 169.630906 
L 256.926713 153.596559 
L 259.66024 151.150642 
L 262.21741 309.8635 
L 264.950937 309.8635 
L 267.596286 200.068989 
L 270.329813 169.630906 
L 272.975162 152.237716 
L 275.708689 158.760163 
L 278.442216 182.675799 
L 281.087564 309.8635 
L 283.821091 266.380525 
L 286.46644 262.032228 
L 289.199967 263.119302 
L 291.933494 268.554674 
L 294.402486 309.8635 
L 297.136013 198.981914 
L 299.781362 187.024096 
L 302.514889 182.675799 
L 305.160238 196.807766 
L 307.893765 188.111171 
L 310.627292 183.762873 
L 313.272641 202.243137 
L 316.006168 238.116592 
L 318.651516 238.116592 
L 321.385043 266.380525 
L 324.11857 277.251269 
L 326.587563 309.8635 
L 329.32109 242.464889 
L 331.966438 281.599566 
L 334.699965 264.206376 
L 337.345314 265.293451 
L 340.078841 230.507071 
L 342.812368 205.504361 
L 345.457717 309.8635 
L 348.191244 258.771005 
L 350.836593 206.591435 
L 353.57012 203.330212 
L 356.303647 309.8635 
L 358.772639 309.8635 
L 361.506166 265.293451 
L 364.151515 309.8635 
L 366.885042 283.773715 
L 369.530391 277.251269 
L 372.263918 205.504361 
L 374.997445 209.852658 
L 377.642793 205.504361 
L 380.37632 309.8635 
L 383.021669 264.206376 
L 385.755196 203.330212 
L 388.488723 207.678509 
L 391.045894 215.28803 
L 393.779421 309.8635 
L 396.424769 264.206376 
L 399.158296 208.765584 
L 401.803645 183.762873 
L 404.537172 201.156063 
L 407.270699 210.939732 
L 409.916048 307.417583 
L 412.649575 195.720691 
L 415.294924 207.678509 
L 418.028451 271.815897 
L 420.761978 212.026807 
L 423.23097 288.393781 
L 425.964497 218.549253 
L 428.609846 210.939732 
L 431.343373 236.214211 
L 433.988721 282.686641 
L 436.722248 213.113881 
L 439.455775 207.678509 
L 442.101124 214.200956 
L 444.834651 213.113881 
L 447.48 309.8635 
L 447.48 175.066278 
L 447.48 175.066278 
L 444.834651 173.979204 
L 442.101124 166.369683 
L 439.455775 163.923766 
L 436.722248 171.805055 
L 433.988721 218.549253 
L 431.343373 167.456758 
L 428.609846 156.586014 
L 425.964497 163.923766 
L 423.23097 195.720691 
L 420.761978 168.543832 
L 418.028451 178.327501 
L 415.294924 177.240427 
L 412.649575 151.150642 
L 409.916048 165.282609 
L 407.270699 151.150642 
L 404.537172 150.063568 
L 401.803645 148.976493 
L 399.158296 147.889419 
L 396.424769 181.316956 
L 393.779421 234.855369 
L 391.045894 205.504361 
L 388.488723 196.535997 
L 385.755196 176.968658 
L 383.021669 159.847237 
L 380.37632 265.293451 
L 377.642793 152.237716 
L 374.997445 155.49894 
L 372.263918 158.760163 
L 369.530391 264.206376 
L 366.885042 267.4676 
L 364.151515 266.380525 
L 361.506166 155.49894 
L 358.772639 275.07712 
L 356.303647 198.981914 
L 353.57012 155.49894 
L 350.836593 156.586014 
L 348.191244 164.195535 
L 345.457717 188.654708 
L 342.812368 158.760163 
L 340.078841 153.324791 
L 337.345314 151.150642 
L 334.699965 190.285319 
L 331.966438 208.765584 
L 329.32109 222.89755 
L 326.587563 267.4676 
L 324.11857 265.293451 
L 321.385043 198.981914 
L 318.651516 203.330212 
L 316.006168 207.406741 
L 313.272641 156.586014 
L 310.627292 151.150642 
L 307.893765 150.063568 
L 305.160238 147.889419 
L 302.514889 148.976493 
L 299.781362 154.411865 
L 297.136013 173.707435 
L 294.402486 197.89484 
L 291.933494 268.554674 
L 289.199967 151.150642 
L 286.46644 146.802345 
L 283.821091 148.976493 
L 281.087564 148.976493 
L 278.442216 147.889419 
L 275.708689 148.976493 
L 272.975162 143.541122 
L 270.329813 145.71527 
L 267.596286 163.10846 
L 264.950937 263.119302 
L 262.21741 151.150642 
L 259.66024 147.889419 
L 256.926713 147.889419 
L 254.193185 146.802345 
L 251.547837 148.976493 
L 248.81431 150.063568 
L 246.168961 145.71527 
L 243.435434 144.628196 
L 240.701907 143.541122 
L 238.056558 144.628196 
L 235.323031 173.707435 
L 232.677682 150.063568 
L 229.944155 153.324791 
L 227.475163 156.586014 
L 224.741636 152.237716 
L 222.008109 155.49894 
L 219.36276 151.150642 
L 216.629233 173.979204 
L 213.983885 145.71527 
L 211.250358 140.279898 
L 208.516831 143.541122 
L 205.871482 144.628196 
L 203.137955 143.541122 
L 200.492606 142.454047 
L 197.759079 147.889419 
L 195.290087 203.330212 
L 192.55656 263.119302 
L 189.823033 263.119302 
L 187.177684 146.802345 
L 184.444157 145.71527 
L 181.798808 145.71527 
L 179.065281 145.71527 
L 176.331754 144.628196 
L 173.686406 143.541122 
L 170.952879 175.066278 
L 168.30753 156.586014 
L 165.574003 159.575468 
L 163.105011 271.815897 
L 160.371484 155.49894 
L 157.637957 154.411865 
L 154.992608 158.488394 
L 152.259081 150.063568 
L 149.613732 173.979204 
L 146.880205 146.802345 
L 144.146678 145.71527 
L 141.501329 144.628196 
L 138.767802 147.889419 
L 136.122453 151.150642 
L 133.388926 187.024096 
L 130.831756 189.198245 
L 128.098229 190.285319 
L 125.364702 146.802345 
L 122.719353 145.71527 
L 119.985826 145.71527 
L 117.340477 153.324791 
L 114.60695 143.541122 
L 111.873423 145.71527 
L 109.228075 146.802345 
L 106.494548 153.324791 
L 103.849199 183.762873 
L 101.115672 182.675799 
L 98.64668 181.588724 
L 95.913153 264.206376 
L 93.179626 145.71527 
L 90.534277 105.493519 
L 87.80075 94.622775 
L 85.155401 95.438081 
L 82.421874 87.013254 
L 79.688347 73.696593 
L 77.042998 84.839106 
L 74.309471 78.316659 
L 71.664123 132.670378 
L 68.930596 80.490808 
L 66.461603 70.43537 
L 63.728076 87.013254 
L 60.994549 112.015965 
L 58.349201 115.277188 
L 55.615674 92.448626 
L 52.970325 102.232295 
L 50.236798 58.749321 
L 47.503271 57.662246 
L 44.857922 71.794213 
L 42.124395 185.937022 
L 39.479046 100.058147 
L 36.745519 95.438081 
L 34.276527 82.664957 
L 31.543 80.490808 
z
" style="fill:#808080;fill-opacity:0.6;"/>
   </g>
   <g id="matplotlib.axis_1">
    <g id="xtick_1">
     <g id="line2d_1">
      <path clip-path="url(#p0f3327b83a)" d="M 63.728076 309.8635 
L 63.728076 23.36505 
" style="fill:none;stroke:#b0b0b0;stroke-linecap:square;stroke-width:0.8;"/>
     </g>
     <g id="line2d_2">
      <defs>
       <path d="M 0 0 
L 0 3.5 
" id="m760260a653" style="stroke:#000000;stroke-width:0.8;"/>
      </defs>
      <g>
       <use style="stroke:#000000;stroke-width:0.8;" x="63.728076" xlink:href="#m760260a653" y="309.8635"/>
      </g>
     </g>
     <g id="text_1">
      <!-- 2002 -->
      <defs>
       <path d="M 19.1875 8.296875 
L 53.609375 8.296875 
L 53.609375 0 
L 7.328125 0 
L 7.328125 8.296875 
Q 12.9375 14.109375 22.625 23.890625 
Q 32.328125 33.6875 34.8125 36.53125 
Q 39.546875 41.84375 41.421875 45.53125 
Q 43.3125 49.21875 43.3125 52.78125 
Q 43.3125 58.59375 39.234375 62.25 
Q 35.15625 65.921875 28.609375 65.921875 
Q 23.96875 65.921875 18.8125 64.3125 
Q 13.671875 62.703125 7.8125 59.421875 
L 7.8125 69.390625 
Q 13.765625 71.78125 18.9375 73 
Q 24.125 74.21875 28.421875 74.21875 
Q 39.75 74.21875 46.484375 68.546875 
Q 53.21875 62.890625 53.21875 53.421875 
Q 53.21875 48.921875 51.53125 44.890625 
Q 49.859375 40.875 45.40625 35.40625 
Q 44.1875 33.984375 37.640625 27.21875 
Q 31.109375 20.453125 19.1875 8.296875 
z
" id="DejaVuSans-32"/>
       <path d="M 31.78125 66.40625 
Q 24.171875 66.40625 20.328125 58.90625 
Q 16.5 51.421875 16.5 36.375 
Q 16.5 21.390625 20.328125 13.890625 
Q 24.171875 6.390625 31.78125 6.390625 
Q 39.453125 6.390625 43.28125 13.890625 
Q 47.125 21.390625 47.125 36.375 
Q 47.125 51.421875 43.28125 58.90625 
Q 39.453125 66.40625 31.78125 66.40625 
z
M 31.78125 74.21875 
Q 44.046875 74.21875 50.515625 64.515625 
Q 56.984375 54.828125 56.984375 36.375 
Q 56.984375 17.96875 50.515625 8.265625 
Q 44.046875 -1.421875 31.78125 -1.421875 
Q 19.53125 -1.421875 13.0625 8.265625 
Q 6.59375 17.96875 6.59375 36.375 
Q 6.59375 54.828125 13.0625 64.515625 
Q 19.53125 74.21875 31.78125 74.21875 
z
" id="DejaVuSans-30"/>
      </defs>
      <g transform="translate(51.003076 324.461937)scale(0.1 -0.1)">
       <use xlink:href="#DejaVuSans-32"/>
       <use x="63.623047" xlink:href="#DejaVuSans-30"/>
       <use x="127.246094" xlink:href="#DejaVuSans-30"/>
       <use x="190.869141" xlink:href="#DejaVuSans-32"/>
      </g>
     </g>
    </g>
    <g id="xtick_2">
     <g id="line2d_3">
      <path clip-path="url(#p0f3327b83a)" d="M 128.098229 309.8635 
L 128.098229 23.36505 
" style="fill:none;stroke:#b0b0b0;stroke-linecap:square;stroke-width:0.8;"/>
     </g>
     <g id="line2d_4">
      <g>
       <use style="stroke:#000000;stroke-width:0.8;" x="128.098229" xlink:href="#m760260a653" y="309.8635"/>
      </g>
     </g>
     <g id="text_2">
      <!-- 2004 -->
      <defs>
       <path d="M 37.796875 64.3125 
L 12.890625 25.390625 
L 37.796875 25.390625 
z
M 35.203125 72.90625 
L 47.609375 72.90625 
L 47.609375 25.390625 
L 58.015625 25.390625 
L 58.015625 17.1875 
L 47.609375 17.1875 
L 47.609375 0 
L 37.796875 0 
L 37.796875 17.1875 
L 4.890625 17.1875 
L 4.890625 26.703125 
z
" id="DejaVuSans-34"/>
      </defs>
      <g transform="translate(115.373229 324.461937)scale(0.1 -0.1)">
       <use xlink:href="#DejaVuSans-32"/>
       <use x="63.623047" xlink:href="#DejaVuSans-30"/>
       <use x="127.246094" xlink:href="#DejaVuSans-30"/>
       <use x="190.869141" xlink:href="#DejaVuSans-34"/>
      </g>
     </g>
    </g>
    <g id="xtick_3">
     <g id="line2d_5">
      <path clip-path="url(#p0f3327b83a)" d="M 192.55656 309.8635 
L 192.55656 23.36505 
" style="fill:none;stroke:#b0b0b0;stroke-linecap:square;stroke-width:0.8;"/>
     </g>
     <g id="line2d_6">
      <g>
       <use style="stroke:#000000;stroke-width:0.8;" x="192.55656" xlink:href="#m760260a653" y="309.8635"/>
      </g>
     </g>
     <g id="text_3">
      <!-- 2006 -->
      <defs>
       <path d="M 33.015625 40.375 
Q 26.375 40.375 22.484375 35.828125 
Q 18.609375 31.296875 18.609375 23.390625 
Q 18.609375 15.53125 22.484375 10.953125 
Q 26.375 6.390625 33.015625 6.390625 
Q 39.65625 6.390625 43.53125 10.953125 
Q 47.40625 15.53125 47.40625 23.390625 
Q 47.40625 31.296875 43.53125 35.828125 
Q 39.65625 40.375 33.015625 40.375 
z
M 52.59375 71.296875 
L 52.59375 62.3125 
Q 48.875 64.0625 45.09375 64.984375 
Q 41.3125 65.921875 37.59375 65.921875 
Q 27.828125 65.921875 22.671875 59.328125 
Q 17.53125 52.734375 16.796875 39.40625 
Q 19.671875 43.65625 24.015625 45.921875 
Q 28.375 48.1875 33.59375 48.1875 
Q 44.578125 48.1875 50.953125 41.515625 
Q 57.328125 34.859375 57.328125 23.390625 
Q 57.328125 12.15625 50.6875 5.359375 
Q 44.046875 -1.421875 33.015625 -1.421875 
Q 20.359375 -1.421875 13.671875 8.265625 
Q 6.984375 17.96875 6.984375 36.375 
Q 6.984375 53.65625 15.1875 63.9375 
Q 23.390625 74.21875 37.203125 74.21875 
Q 40.921875 74.21875 44.703125 73.484375 
Q 48.484375 72.75 52.59375 71.296875 
z
" id="DejaVuSans-36"/>
      </defs>
      <g transform="translate(179.83156 324.461937)scale(0.1 -0.1)">
       <use xlink:href="#DejaVuSans-32"/>
       <use x="63.623047" xlink:href="#DejaVuSans-30"/>
       <use x="127.246094" xlink:href="#DejaVuSans-30"/>
       <use x="190.869141" xlink:href="#DejaVuSans-36"/>
      </g>
     </g>
    </g>
    <g id="xtick_4">
     <g id="line2d_7">
      <path clip-path="url(#p0f3327b83a)" d="M 256.926713 309.8635 
L 256.926713 23.36505 
" style="fill:none;stroke:#b0b0b0;stroke-linecap:square;stroke-width:0.8;"/>
     </g>
     <g id="line2d_8">
      <g>
       <use style="stroke:#000000;stroke-width:0.8;" x="256.926713" xlink:href="#m760260a653" y="309.8635"/>
      </g>
     </g>
     <g id="text_4">
      <!-- 2008 -->
      <defs>
       <path d="M 31.78125 34.625 
Q 24.75 34.625 20.71875 30.859375 
Q 16.703125 27.09375 16.703125 20.515625 
Q 16.703125 13.921875 20.71875 10.15625 
Q 24.75 6.390625 31.78125 6.390625 
Q 38.8125 6.390625 42.859375 10.171875 
Q 46.921875 13.96875 46.921875 20.515625 
Q 46.921875 27.09375 42.890625 30.859375 
Q 38.875 34.625 31.78125 34.625 
z
M 21.921875 38.8125 
Q 15.578125 40.375 12.03125 44.71875 
Q 8.5 49.078125 8.5 55.328125 
Q 8.5 64.0625 14.71875 69.140625 
Q 20.953125 74.21875 31.78125 74.21875 
Q 42.671875 74.21875 48.875 69.140625 
Q 55.078125 64.0625 55.078125 55.328125 
Q 55.078125 49.078125 51.53125 44.71875 
Q 48 40.375 41.703125 38.8125 
Q 48.828125 37.15625 52.796875 32.3125 
Q 56.78125 27.484375 56.78125 20.515625 
Q 56.78125 9.90625 50.3125 4.234375 
Q 43.84375 -1.421875 31.78125 -1.421875 
Q 19.734375 -1.421875 13.25 4.234375 
Q 6.78125 9.90625 6.78125 20.515625 
Q 6.78125 27.484375 10.78125 32.3125 
Q 14.796875 37.15625 21.921875 38.8125 
z
M 18.3125 54.390625 
Q 18.3125 48.734375 21.84375 45.5625 
Q 25.390625 42.390625 31.78125 42.390625 
Q 38.140625 42.390625 41.71875 45.5625 
Q 45.3125 48.734375 45.3125 54.390625 
Q 45.3125 60.0625 41.71875 63.234375 
Q 38.140625 66.40625 31.78125 66.40625 
Q 25.390625 66.40625 21.84375 63.234375 
Q 18.3125 60.0625 18.3125 54.390625 
z
" id="DejaVuSans-38"/>
      </defs>
      <g transform="translate(244.201713 324.461937)scale(0.1 -0.1)">
       <use xlink:href="#DejaVuSans-32"/>
       <use x="63.623047" xlink:href="#DejaVuSans-30"/>
       <use x="127.246094" xlink:href="#DejaVuSans-30"/>
       <use x="190.869141" xlink:href="#DejaVuSans-38"/>
      </g>
     </g>
    </g>
    <g id="xtick_5">
     <g id="line2d_9">
      <path clip-path="url(#p0f3327b83a)" d="M 321.385043 309.8635 
L 321.385043 23.36505 
" style="fill:none;stroke:#b0b0b0;stroke-linecap:square;stroke-width:0.8;"/>
     </g>
     <g id="line2d_10">
      <g>
       <use style="stroke:#000000;stroke-width:0.8;" x="321.385043" xlink:href="#m760260a653" y="309.8635"/>
      </g>
     </g>
     <g id="text_5">
      <!-- 2010 -->
      <defs>
       <path d="M 12.40625 8.296875 
L 28.515625 8.296875 
L 28.515625 63.921875 
L 10.984375 60.40625 
L 10.984375 69.390625 
L 28.421875 72.90625 
L 38.28125 72.90625 
L 38.28125 8.296875 
L 54.390625 8.296875 
L 54.390625 0 
L 12.40625 0 
z
" id="DejaVuSans-31"/>
      </defs>
      <g transform="translate(308.660043 324.461937)scale(0.1 -0.1)">
       <use xlink:href="#DejaVuSans-32"/>
       <use x="63.623047" xlink:href="#DejaVuSans-30"/>
       <use x="127.246094" xlink:href="#DejaVuSans-31"/>
       <use x="190.869141" xlink:href="#DejaVuSans-30"/>
      </g>
     </g>
    </g>
    <g id="xtick_6">
     <g id="line2d_11">
      <path clip-path="url(#p0f3327b83a)" d="M 385.755196 309.8635 
L 385.755196 23.36505 
" style="fill:none;stroke:#b0b0b0;stroke-linecap:square;stroke-width:0.8;"/>
     </g>
     <g id="line2d_12">
      <g>
       <use style="stroke:#000000;stroke-width:0.8;" x="385.755196" xlink:href="#m760260a653" y="309.8635"/>
      </g>
     </g>
     <g id="text_6">
      <!-- 2012 -->
      <g transform="translate(373.030196 324.461937)scale(0.1 -0.1)">
       <use xlink:href="#DejaVuSans-32"/>
       <use x="63.623047" xlink:href="#DejaVuSans-30"/>
       <use x="127.246094" xlink:href="#DejaVuSans-31"/>
       <use x="190.869141" xlink:href="#DejaVuSans-32"/>
      </g>
     </g>
    </g>
    <g id="text_7">
     <!-- Date -->
     <defs>
      <path d="M 19.671875 64.796875 
L 19.671875 8.109375 
L 31.59375 8.109375 
Q 46.6875 8.109375 53.6875 14.9375 
Q 60.6875 21.78125 60.6875 36.53125 
Q 60.6875 51.171875 53.6875 57.984375 
Q 46.6875 64.796875 31.59375 64.796875 
z
M 9.8125 72.90625 
L 30.078125 72.90625 
Q 51.265625 72.90625 61.171875 64.09375 
Q 71.09375 55.28125 71.09375 36.53125 
Q 71.09375 17.671875 61.125 8.828125 
Q 51.171875 0 30.078125 0 
L 9.8125 0 
z
" id="DejaVuSans-44"/>
      <path d="M 34.28125 27.484375 
Q 23.390625 27.484375 19.1875 25 
Q 14.984375 22.515625 14.984375 16.5 
Q 14.984375 11.71875 18.140625 8.90625 
Q 21.296875 6.109375 26.703125 6.109375 
Q 34.1875 6.109375 38.703125 11.40625 
Q 43.21875 16.703125 43.21875 25.484375 
L 43.21875 27.484375 
z
M 52.203125 31.203125 
L 52.203125 0 
L 43.21875 0 
L 43.21875 8.296875 
Q 40.140625 3.328125 35.546875 0.953125 
Q 30.953125 -1.421875 24.3125 -1.421875 
Q 15.921875 -1.421875 10.953125 3.296875 
Q 6 8.015625 6 15.921875 
Q 6 25.140625 12.171875 29.828125 
Q 18.359375 34.515625 30.609375 34.515625 
L 43.21875 34.515625 
L 43.21875 35.40625 
Q 43.21875 41.609375 39.140625 45 
Q 35.0625 48.390625 27.6875 48.390625 
Q 23 48.390625 18.546875 47.265625 
Q 14.109375 46.140625 10.015625 43.890625 
L 10.015625 52.203125 
Q 14.9375 54.109375 19.578125 55.046875 
Q 24.21875 56 28.609375 56 
Q 40.484375 56 46.34375 49.84375 
Q 52.203125 43.703125 52.203125 31.203125 
z
" id="DejaVuSans-61"/>
      <path d="M 18.3125 70.21875 
L 18.3125 54.6875 
L 36.8125 54.6875 
L 36.8125 47.703125 
L 18.3125 47.703125 
L 18.3125 18.015625 
Q 18.3125 11.328125 20.140625 9.421875 
Q 21.96875 7.515625 27.59375 7.515625 
L 36.8125 7.515625 
L 36.8125 0 
L 27.59375 0 
Q 17.1875 0 13.234375 3.875 
Q 9.28125 7.765625 9.28125 18.015625 
L 9.28125 47.703125 
L 2.6875 47.703125 
L 2.6875 54.6875 
L 9.28125 54.6875 
L 9.28125 70.21875 
z
" id="DejaVuSans-74"/>
      <path d="M 56.203125 29.59375 
L 56.203125 25.203125 
L 14.890625 25.203125 
Q 15.484375 15.921875 20.484375 11.0625 
Q 25.484375 6.203125 34.421875 6.203125 
Q 39.59375 6.203125 44.453125 7.46875 
Q 49.3125 8.734375 54.109375 11.28125 
L 54.109375 2.78125 
Q 49.265625 0.734375 44.1875 -0.34375 
Q 39.109375 -1.421875 33.890625 -1.421875 
Q 20.796875 -1.421875 13.15625 6.1875 
Q 5.515625 13.8125 5.515625 26.8125 
Q 5.515625 40.234375 12.765625 48.109375 
Q 20.015625 56 32.328125 56 
Q 43.359375 56 49.78125 48.890625 
Q 56.203125 41.796875 56.203125 29.59375 
z
M 47.21875 32.234375 
Q 47.125 39.59375 43.09375 43.984375 
Q 39.0625 48.390625 32.421875 48.390625 
Q 24.90625 48.390625 20.390625 44.140625 
Q 15.875 39.890625 15.1875 32.171875 
z
" id="DejaVuSans-65"/>
     </defs>
     <g transform="translate(227.560719 338.140062)scale(0.1 -0.1)">
      <use xlink:href="#DejaVuSans-44"/>
      <use x="77.001953" xlink:href="#DejaVuSans-61"/>
      <use x="138.28125" xlink:href="#DejaVuSans-74"/>
      <use x="177.490234" xlink:href="#DejaVuSans-65"/>
     </g>
    </g>
   </g>
   <g id="matplotlib.axis_2">
    <g id="ytick_1">
     <g id="line2d_13">
      <path clip-path="url(#p0f3327b83a)" d="M 31.543 309.8635 
L 447.48 309.8635 
" style="fill:none;stroke:#b0b0b0;stroke-linecap:square;stroke-width:0.8;"/>
     </g>
     <g id="line2d_14">
      <defs>
       <path d="M 0 0 
L -3.5 0 
" id="m8f6822ddbd" style="stroke:#000000;stroke-width:0.8;"/>
      </defs>
      <g>
       <use style="stroke:#000000;stroke-width:0.8;" x="31.543" xlink:href="#m8f6822ddbd" y="309.8635"/>
      </g>
     </g>
     <g id="text_8">
      <!-- 0 -->
      <g transform="translate(18.1805 313.662719)scale(0.1 -0.1)">
       <use xlink:href="#DejaVuSans-30"/>
      </g>
     </g>
    </g>
    <g id="ytick_2">
     <g id="line2d_15">
      <path clip-path="url(#p0f3327b83a)" d="M 31.543 255.509782 
L 447.48 255.509782 
" style="fill:none;stroke:#b0b0b0;stroke-linecap:square;stroke-width:0.8;"/>
     </g>
     <g id="line2d_16">
      <g>
       <use style="stroke:#000000;stroke-width:0.8;" x="31.543" xlink:href="#m8f6822ddbd" y="255.509782"/>
      </g>
     </g>
     <g id="text_9">
      <!-- 50 -->
      <defs>
       <path d="M 10.796875 72.90625 
L 49.515625 72.90625 
L 49.515625 64.59375 
L 19.828125 64.59375 
L 19.828125 46.734375 
Q 21.96875 47.46875 24.109375 47.828125 
Q 26.265625 48.1875 28.421875 48.1875 
Q 40.625 48.1875 47.75 41.5 
Q 54.890625 34.8125 54.890625 23.390625 
Q 54.890625 11.625 47.5625 5.09375 
Q 40.234375 -1.421875 26.90625 -1.421875 
Q 22.3125 -1.421875 17.546875 -0.640625 
Q 12.796875 0.140625 7.71875 1.703125 
L 7.71875 11.625 
Q 12.109375 9.234375 16.796875 8.0625 
Q 21.484375 6.890625 26.703125 6.890625 
Q 35.15625 6.890625 40.078125 11.328125 
Q 45.015625 15.765625 45.015625 23.390625 
Q 45.015625 31 40.078125 35.4375 
Q 35.15625 39.890625 26.703125 39.890625 
Q 22.75 39.890625 18.8125 39.015625 
Q 14.890625 38.140625 10.796875 36.28125 
z
" id="DejaVuSans-35"/>
      </defs>
      <g transform="translate(11.818 259.309)scale(0.1 -0.1)">
       <use xlink:href="#DejaVuSans-35"/>
       <use x="63.623047" xlink:href="#DejaVuSans-30"/>
      </g>
     </g>
    </g>
    <g id="ytick_3">
     <g id="line2d_17">
      <path clip-path="url(#p0f3327b83a)" d="M 31.543 201.156063 
L 447.48 201.156063 
" style="fill:none;stroke:#b0b0b0;stroke-linecap:square;stroke-width:0.8;"/>
     </g>
     <g id="line2d_18">
      <g>
       <use style="stroke:#000000;stroke-width:0.8;" x="31.543" xlink:href="#m8f6822ddbd" y="201.156063"/>
      </g>
     </g>
     <g id="text_10">
      <!-- 100 -->
      <g transform="translate(5.4555 204.955282)scale(0.1 -0.1)">
       <use xlink:href="#DejaVuSans-31"/>
       <use x="63.623047" xlink:href="#DejaVuSans-30"/>
       <use x="127.246094" xlink:href="#DejaVuSans-30"/>
      </g>
     </g>
    </g>
    <g id="ytick_4">
     <g id="line2d_19">
      <path clip-path="url(#p0f3327b83a)" d="M 31.543 146.802345 
L 447.48 146.802345 
" style="fill:none;stroke:#b0b0b0;stroke-linecap:square;stroke-width:0.8;"/>
     </g>
     <g id="line2d_20">
      <g>
       <use style="stroke:#000000;stroke-width:0.8;" x="31.543" xlink:href="#m8f6822ddbd" y="146.802345"/>
      </g>
     </g>
     <g id="text_11">
      <!-- 150 -->
      <g transform="translate(5.4555 150.601563)scale(0.1 -0.1)">
       <use xlink:href="#DejaVuSans-31"/>
       <use x="63.623047" xlink:href="#DejaVuSans-35"/>
       <use x="127.246094" xlink:href="#DejaVuSans-30"/>
      </g>
     </g>
    </g>
    <g id="ytick_5">
     <g id="line2d_21">
      <path clip-path="url(#p0f3327b83a)" d="M 31.543 92.448626 
L 447.48 92.448626 
" style="fill:none;stroke:#b0b0b0;stroke-linecap:square;stroke-width:0.8;"/>
     </g>
     <g id="line2d_22">
      <g>
       <use style="stroke:#000000;stroke-width:0.8;" x="31.543" xlink:href="#m8f6822ddbd" y="92.448626"/>
      </g>
     </g>
     <g id="text_12">
      <!-- 200 -->
      <g transform="translate(5.4555 96.247845)scale(0.1 -0.1)">
       <use xlink:href="#DejaVuSans-32"/>
       <use x="63.623047" xlink:href="#DejaVuSans-30"/>
       <use x="127.246094" xlink:href="#DejaVuSans-30"/>
      </g>
     </g>
    </g>
    <g id="ytick_6">
     <g id="line2d_23">
      <path clip-path="url(#p0f3327b83a)" d="M 31.543 38.094908 
L 447.48 38.094908 
" style="fill:none;stroke:#b0b0b0;stroke-linecap:square;stroke-width:0.8;"/>
     </g>
     <g id="line2d_24">
      <g>
       <use style="stroke:#000000;stroke-width:0.8;" x="31.543" xlink:href="#m8f6822ddbd" y="38.094908"/>
      </g>
     </g>
     <g id="text_13">
      <!-- 250 -->
      <g transform="translate(5.4555 41.894126)scale(0.1 -0.1)">
       <use xlink:href="#DejaVuSans-32"/>
       <use x="63.623047" xlink:href="#DejaVuSans-35"/>
       <use x="127.246094" xlink:href="#DejaVuSans-30"/>
      </g>
     </g>
    </g>
   </g>
   <g id="line2d_25">
    <path clip-path="url(#p0f3327b83a)" d="M 31.543 88.100329 
L 34.276527 88.100329 
L 36.745519 123.973783 
L 39.479046 175.609815 
L 42.124395 189.198245 
L 44.857922 98.971072 
L 47.503271 84.839106 
L 50.236798 101.145221 
L 52.970325 133.757452 
L 55.615674 125.060857 
L 58.349201 118.538411 
L 60.994549 127.235006 
L 63.728076 115.277188 
L 66.461603 78.316659 
L 68.930596 106.580593 
L 71.664123 156.586014 
L 74.309471 91.361552 
L 77.042998 95.709849 
L 79.688347 85.382643 
L 82.421874 96.796924 
L 85.155401 126.147932 
L 87.80075 110.92889 
L 90.534277 109.841816 
L 93.179626 148.976493 
L 95.913153 266.380525 
L 98.64668 187.024096 
L 101.115672 185.937022 
L 103.849199 185.937022 
L 106.494548 180.50165 
L 109.228075 150.063568 
L 111.873423 147.889419 
L 114.60695 147.889419 
L 117.340477 176.153353 
L 119.985826 155.49894 
L 122.719353 147.889419 
L 125.364702 147.889419 
L 128.098229 192.459468 
L 130.831756 190.285319 
L 133.388926 189.198245 
L 136.122453 154.411865 
L 138.767802 178.327501 
L 141.501329 145.71527 
L 144.146678 147.889419 
L 146.880205 152.237716 
L 149.613732 191.372394 
L 152.259081 153.324791 
L 154.992608 165.282609 
L 157.637957 156.586014 
L 160.371484 159.847237 
L 163.105011 272.902971 
L 165.574003 190.285319 
L 168.30753 171.805055 
L 170.952879 182.675799 
L 173.686406 146.802345 
L 176.331754 163.10846 
L 179.065281 157.673088 
L 181.798808 147.889419 
L 184.444157 167.456758 
L 187.177684 203.330212 
L 189.823033 264.206376 
L 192.55656 264.206376 
L 195.290087 263.119302 
L 197.759079 151.150642 
L 200.492606 145.71527 
L 203.137955 145.71527 
L 205.871482 146.802345 
L 208.516831 145.71527 
L 211.250358 143.541122 
L 213.983885 155.49894 
L 216.629233 178.327501 
L 219.36276 154.411865 
L 222.008109 170.717981 
L 224.741636 156.586014 
L 227.475163 160.934311 
L 229.944155 190.285319 
L 232.677682 172.892129 
L 235.323031 178.327501 
L 238.056558 177.240427 
L 240.701907 145.71527 
L 246.168961 147.889419 
L 248.81431 200.068989 
L 251.547837 200.068989 
L 254.193185 151.150642 
L 259.66024 148.976493 
L 262.21741 309.8635 
L 264.950937 309.8635 
L 267.596286 177.240427 
L 270.329813 150.063568 
L 272.975162 146.802345 
L 275.708689 153.324791 
L 278.442216 172.892129 
L 281.087564 160.390774 
L 283.821091 260.945153 
L 286.46644 168.543832 
L 289.199967 263.119302 
L 291.933494 268.554674 
L 294.402486 210.939732 
L 297.136013 194.633617 
L 299.781362 158.760163 
L 302.514889 153.324791 
L 305.160238 168.543832 
L 307.893765 153.324791 
L 310.627292 152.781254 
L 313.272641 190.285319 
L 316.006168 237.029517 
L 318.651516 233.768294 
L 321.385043 264.206376 
L 324.11857 266.380525 
L 326.587563 279.425418 
L 329.32109 228.332922 
L 331.966438 262.032228 
L 334.699965 203.330212 
L 337.345314 207.678509 
L 340.078841 196.807766 
L 342.812368 165.282609 
L 345.457717 203.330212 
L 348.191244 177.240427 
L 350.836593 183.762873 
L 353.57012 158.760163 
L 356.303647 215.28803 
L 358.772639 309.8635 
L 361.506166 200.068989 
L 364.151515 273.990046 
L 366.885042 270.728823 
L 369.530391 269.641748 
L 372.263918 196.807766 
L 374.997445 202.243137 
L 377.642793 197.351303 
L 380.37632 283.773715 
L 383.021669 202.243137 
L 385.755196 201.156063 
L 388.488723 204.417286 
L 391.045894 212.026807 
L 393.779421 309.8635 
L 396.424769 212.026807 
L 399.158296 165.826146 
L 401.803645 151.150642 
L 404.537172 161.477849 
L 407.270699 166.369683 
L 409.916048 204.417286 
L 412.649575 159.847237 
L 415.294924 205.504361 
L 418.028451 206.591435 
L 420.761978 204.417286 
L 423.23097 207.678509 
L 425.964497 201.6996 
L 428.609846 187.024096 
L 431.343373 202.243137 
L 433.988721 271.815897 
L 436.722248 204.417286 
L 439.455775 165.282609 
L 442.101124 189.741782 
L 444.834651 190.285319 
L 447.48 212.026807 
L 447.48 212.026807 
" style="fill:none;stroke:#1f77b4;stroke-linecap:square;stroke-width:1.5;"/>
   </g>
   <g id="patch_3">
    <path d="M 31.543 309.8635 
L 31.543 23.36505 
" style="fill:none;stroke:#000000;stroke-linecap:square;stroke-linejoin:miter;stroke-width:0.8;"/>
   </g>
   <g id="patch_4">
    <path d="M 447.48 309.8635 
L 447.48 23.36505 
" style="fill:none;stroke:#000000;stroke-linecap:square;stroke-linejoin:miter;stroke-width:0.8;"/>
   </g>
   <g id="patch_5">
    <path d="M 31.543 309.8635 
L 447.48 309.8635 
" style="fill:none;stroke:#000000;stroke-linecap:square;stroke-linejoin:miter;stroke-width:0.8;"/>
   </g>
   <g id="patch_6">
    <path d="M 31.543 23.36505 
L 447.48 23.36505 
" style="fill:none;stroke:#000000;stroke-linecap:square;stroke-linejoin:miter;stroke-width:0.8;"/>
   </g>
   <g id="text_14">
    <!-- Monthly gross load trend (MW) -->
    <defs>
     <path d="M 9.8125 72.90625 
L 24.515625 72.90625 
L 43.109375 23.296875 
L 61.8125 72.90625 
L 76.515625 72.90625 
L 76.515625 0 
L 66.890625 0 
L 66.890625 64.015625 
L 48.09375 14.015625 
L 38.1875 14.015625 
L 19.390625 64.015625 
L 19.390625 0 
L 9.8125 0 
z
" id="DejaVuSans-4d"/>
     <path d="M 30.609375 48.390625 
Q 23.390625 48.390625 19.1875 42.75 
Q 14.984375 37.109375 14.984375 27.296875 
Q 14.984375 17.484375 19.15625 11.84375 
Q 23.34375 6.203125 30.609375 6.203125 
Q 37.796875 6.203125 41.984375 11.859375 
Q 46.1875 17.53125 46.1875 27.296875 
Q 46.1875 37.015625 41.984375 42.703125 
Q 37.796875 48.390625 30.609375 48.390625 
z
M 30.609375 56 
Q 42.328125 56 49.015625 48.375 
Q 55.71875 40.765625 55.71875 27.296875 
Q 55.71875 13.875 49.015625 6.21875 
Q 42.328125 -1.421875 30.609375 -1.421875 
Q 18.84375 -1.421875 12.171875 6.21875 
Q 5.515625 13.875 5.515625 27.296875 
Q 5.515625 40.765625 12.171875 48.375 
Q 18.84375 56 30.609375 56 
z
" id="DejaVuSans-6f"/>
     <path d="M 54.890625 33.015625 
L 54.890625 0 
L 45.90625 0 
L 45.90625 32.71875 
Q 45.90625 40.484375 42.875 44.328125 
Q 39.84375 48.1875 33.796875 48.1875 
Q 26.515625 48.1875 22.3125 43.546875 
Q 18.109375 38.921875 18.109375 30.90625 
L 18.109375 0 
L 9.078125 0 
L 9.078125 54.6875 
L 18.109375 54.6875 
L 18.109375 46.1875 
Q 21.34375 51.125 25.703125 53.5625 
Q 30.078125 56 35.796875 56 
Q 45.21875 56 50.046875 50.171875 
Q 54.890625 44.34375 54.890625 33.015625 
z
" id="DejaVuSans-6e"/>
     <path d="M 54.890625 33.015625 
L 54.890625 0 
L 45.90625 0 
L 45.90625 32.71875 
Q 45.90625 40.484375 42.875 44.328125 
Q 39.84375 48.1875 33.796875 48.1875 
Q 26.515625 48.1875 22.3125 43.546875 
Q 18.109375 38.921875 18.109375 30.90625 
L 18.109375 0 
L 9.078125 0 
L 9.078125 75.984375 
L 18.109375 75.984375 
L 18.109375 46.1875 
Q 21.34375 51.125 25.703125 53.5625 
Q 30.078125 56 35.796875 56 
Q 45.21875 56 50.046875 50.171875 
Q 54.890625 44.34375 54.890625 33.015625 
z
" id="DejaVuSans-68"/>
     <path d="M 9.421875 75.984375 
L 18.40625 75.984375 
L 18.40625 0 
L 9.421875 0 
z
" id="DejaVuSans-6c"/>
     <path d="M 32.171875 -5.078125 
Q 28.375 -14.84375 24.75 -17.8125 
Q 21.140625 -20.796875 15.09375 -20.796875 
L 7.90625 -20.796875 
L 7.90625 -13.28125 
L 13.1875 -13.28125 
Q 16.890625 -13.28125 18.9375 -11.515625 
Q 21 -9.765625 23.484375 -3.21875 
L 25.09375 0.875 
L 2.984375 54.6875 
L 12.5 54.6875 
L 29.59375 11.921875 
L 46.6875 54.6875 
L 56.203125 54.6875 
z
" id="DejaVuSans-79"/>
     <path id="DejaVuSans-20"/>
     <path d="M 45.40625 27.984375 
Q 45.40625 37.75 41.375 43.109375 
Q 37.359375 48.484375 30.078125 48.484375 
Q 22.859375 48.484375 18.828125 43.109375 
Q 14.796875 37.75 14.796875 27.984375 
Q 14.796875 18.265625 18.828125 12.890625 
Q 22.859375 7.515625 30.078125 7.515625 
Q 37.359375 7.515625 41.375 12.890625 
Q 45.40625 18.265625 45.40625 27.984375 
z
M 54.390625 6.78125 
Q 54.390625 -7.171875 48.1875 -13.984375 
Q 42 -20.796875 29.203125 -20.796875 
Q 24.46875 -20.796875 20.265625 -20.09375 
Q 16.0625 -19.390625 12.109375 -17.921875 
L 12.109375 -9.1875 
Q 16.0625 -11.328125 19.921875 -12.34375 
Q 23.78125 -13.375 27.78125 -13.375 
Q 36.625 -13.375 41.015625 -8.765625 
Q 45.40625 -4.15625 45.40625 5.171875 
L 45.40625 9.625 
Q 42.625 4.78125 38.28125 2.390625 
Q 33.9375 0 27.875 0 
Q 17.828125 0 11.671875 7.65625 
Q 5.515625 15.328125 5.515625 27.984375 
Q 5.515625 40.671875 11.671875 48.328125 
Q 17.828125 56 27.875 56 
Q 33.9375 56 38.28125 53.609375 
Q 42.625 51.21875 45.40625 46.390625 
L 45.40625 54.6875 
L 54.390625 54.6875 
z
" id="DejaVuSans-67"/>
     <path d="M 41.109375 46.296875 
Q 39.59375 47.171875 37.8125 47.578125 
Q 36.03125 48 33.890625 48 
Q 26.265625 48 22.1875 43.046875 
Q 18.109375 38.09375 18.109375 28.8125 
L 18.109375 0 
L 9.078125 0 
L 9.078125 54.6875 
L 18.109375 54.6875 
L 18.109375 46.1875 
Q 20.953125 51.171875 25.484375 53.578125 
Q 30.03125 56 36.53125 56 
Q 37.453125 56 38.578125 55.875 
Q 39.703125 55.765625 41.0625 55.515625 
z
" id="DejaVuSans-72"/>
     <path d="M 44.28125 53.078125 
L 44.28125 44.578125 
Q 40.484375 46.53125 36.375 47.5 
Q 32.28125 48.484375 27.875 48.484375 
Q 21.1875 48.484375 17.84375 46.4375 
Q 14.5 44.390625 14.5 40.28125 
Q 14.5 37.15625 16.890625 35.375 
Q 19.28125 33.59375 26.515625 31.984375 
L 29.59375 31.296875 
Q 39.15625 29.25 43.1875 25.515625 
Q 47.21875 21.78125 47.21875 15.09375 
Q 47.21875 7.46875 41.1875 3.015625 
Q 35.15625 -1.421875 24.609375 -1.421875 
Q 20.21875 -1.421875 15.453125 -0.5625 
Q 10.6875 0.296875 5.421875 2 
L 5.421875 11.28125 
Q 10.40625 8.6875 15.234375 7.390625 
Q 20.0625 6.109375 24.8125 6.109375 
Q 31.15625 6.109375 34.5625 8.28125 
Q 37.984375 10.453125 37.984375 14.40625 
Q 37.984375 18.0625 35.515625 20.015625 
Q 33.0625 21.96875 24.703125 23.78125 
L 21.578125 24.515625 
Q 13.234375 26.265625 9.515625 29.90625 
Q 5.8125 33.546875 5.8125 39.890625 
Q 5.8125 47.609375 11.28125 51.796875 
Q 16.75 56 26.8125 56 
Q 31.78125 56 36.171875 55.265625 
Q 40.578125 54.546875 44.28125 53.078125 
z
" id="DejaVuSans-73"/>
     <path d="M 45.40625 46.390625 
L 45.40625 75.984375 
L 54.390625 75.984375 
L 54.390625 0 
L 45.40625 0 
L 45.40625 8.203125 
Q 42.578125 3.328125 38.25 0.953125 
Q 33.9375 -1.421875 27.875 -1.421875 
Q 17.96875 -1.421875 11.734375 6.484375 
Q 5.515625 14.40625 5.515625 27.296875 
Q 5.515625 40.1875 11.734375 48.09375 
Q 17.96875 56 27.875 56 
Q 33.9375 56 38.25 53.625 
Q 42.578125 51.265625 45.40625 46.390625 
z
M 14.796875 27.296875 
Q 14.796875 17.390625 18.875 11.75 
Q 22.953125 6.109375 30.078125 6.109375 
Q 37.203125 6.109375 41.296875 11.75 
Q 45.40625 17.390625 45.40625 27.296875 
Q 45.40625 37.203125 41.296875 42.84375 
Q 37.203125 48.484375 30.078125 48.484375 
Q 22.953125 48.484375 18.875 42.84375 
Q 14.796875 37.203125 14.796875 27.296875 
z
" id="DejaVuSans-64"/>
     <path d="M 31 75.875 
Q 24.46875 64.65625 21.28125 53.65625 
Q 18.109375 42.671875 18.109375 31.390625 
Q 18.109375 20.125 21.3125 9.0625 
Q 24.515625 -2 31 -13.1875 
L 23.1875 -13.1875 
Q 15.875 -1.703125 12.234375 9.375 
Q 8.59375 20.453125 8.59375 31.390625 
Q 8.59375 42.28125 12.203125 53.3125 
Q 15.828125 64.359375 23.1875 75.875 
z
" id="DejaVuSans-28"/>
     <path d="M 3.328125 72.90625 
L 13.28125 72.90625 
L 28.609375 11.28125 
L 43.890625 72.90625 
L 54.984375 72.90625 
L 70.3125 11.28125 
L 85.59375 72.90625 
L 95.609375 72.90625 
L 77.296875 0 
L 64.890625 0 
L 49.515625 63.28125 
L 33.984375 0 
L 21.578125 0 
z
" id="DejaVuSans-57"/>
     <path d="M 8.015625 75.875 
L 15.828125 75.875 
Q 23.140625 64.359375 26.78125 53.3125 
Q 30.421875 42.28125 30.421875 31.390625 
Q 30.421875 20.453125 26.78125 9.375 
Q 23.140625 -1.703125 15.828125 -13.1875 
L 8.015625 -13.1875 
Q 14.5 -2 17.703125 9.0625 
Q 20.90625 20.125 20.90625 31.390625 
Q 20.90625 42.671875 17.703125 53.65625 
Q 14.5 64.65625 8.015625 75.875 
z
" id="DejaVuSans-29"/>
    </defs>
    <g transform="translate(146.928688 17.36505)scale(0.12 -0.12)">
     <use xlink:href="#DejaVuSans-4d"/>
     <use x="86.279297" xlink:href="#DejaVuSans-6f"/>
     <use x="147.460938" xlink:href="#DejaVuSans-6e"/>
     <use x="210.839844" xlink:href="#DejaVuSans-74"/>
     <use x="250.048828" xlink:href="#DejaVuSans-68"/>
     <use x="313.427734" xlink:href="#DejaVuSans-6c"/>
     <use x="341.210938" xlink:href="#DejaVuSans-79"/>
     <use x="400.390625" xlink:href="#DejaVuSans-20"/>
     <use x="432.177734" xlink:href="#DejaVuSans-67"/>
     <use x="495.654297" xlink:href="#DejaVuSans-72"/>
     <use x="536.736328" xlink:href="#DejaVuSans-6f"/>
     <use x="597.917969" xlink:href="#DejaVuSans-73"/>
     <use x="650.017578" xlink:href="#DejaVuSans-73"/>
     <use x="702.117188" xlink:href="#DejaVuSans-20"/>
     <use x="733.904297" xlink:href="#DejaVuSans-6c"/>
     <use x="761.6875" xlink:href="#DejaVuSans-6f"/>
     <use x="822.869141" xlink:href="#DejaVuSans-61"/>
     <use x="884.148438" xlink:href="#DejaVuSans-64"/>
     <use x="947.625" xlink:href="#DejaVuSans-20"/>
     <use x="979.412109" xlink:href="#DejaVuSans-74"/>
     <use x="1018.621094" xlink:href="#DejaVuSans-72"/>
     <use x="1059.703125" xlink:href="#DejaVuSans-65"/>
     <use x="1121.226562" xlink:href="#DejaVuSans-6e"/>
     <use x="1184.605469" xlink:href="#DejaVuSans-64"/>
     <use x="1248.082031" xlink:href="#DejaVuSans-20"/>
     <use x="1279.869141" xlink:href="#DejaVuSans-28"/>
     <use x="1318.882812" xlink:href="#DejaVuSans-4d"/>
     <use x="1405.162109" xlink:href="#DejaVuSans-57"/>
     <use x="1504.039062" xlink:href="#DejaVuSans-29"/>
    </g>
   </g>
  </g>
 </g>
 <defs>
  <clipPath id="p0f3327b83a">
   <rect height="286.49845" width="415.937" x="31.543" y="23.36505"/>
  </clipPath>
 </defs>
</svg>
