<?xml version="1.0" encoding="utf-8" standalone="no"?>
<!DOCTYPE svg PUBLIC "-//W3C//DTD SVG 1.1//EN"
  "http://www.w3.org/Graphics/SVG/1.1/DTD/svg11.dtd">
<!-- Created with matplotlib (http://matplotlib.org/) -->
<svg height="345.6pt" version="1.1" viewBox="0 0 460.8 345.6" width="460.8pt" xmlns="http://www.w3.org/2000/svg" xmlns:xlink="http://www.w3.org/1999/xlink">
 <defs>
  <style type="text/css">
*{stroke-linecap:butt;stroke-linejoin:round;}
  </style>
 </defs>
 <g id="figure_1">
  <g id="patch_1">
   <path d="M 0 345.6 
L 460.8 345.6 
L 460.8 0 
L 0 0 
z
" style="fill:none;"/>
  </g>
  <g id="axes_1">
   <g id="patch_2">
    <path d="M 36.124 309.8635 
L 444.785034 309.8635 
L 444.785034 23.36505 
L 36.124 23.36505 
z
" style="fill:none;"/>
   </g>
   <g id="PolyCollection_1">
    <path clip-path="url(#p80d7585cf3)" d="M 36.124 309.8635 
L 36.124 309.8635 
L 38.108434 309.8635 
L 40.159015 309.8635 
L 42.143449 280.943314 
L 44.19403 309.8635 
L 46.244612 309.8635 
L 48.229045 309.8635 
L 50.279627 309.8635 
L 52.26406 309.8635 
L 54.314642 309.8635 
L 56.365223 309.8635 
L 58.217361 237.940255 
L 60.267943 309.8635 
L 62.252376 309.8635 
L 64.302958 274.153357 
L 66.287391 278.177035 
L 68.337973 279.685915 
L 70.388554 309.8635 
L 72.372988 245.987611 
L 74.423569 309.8635 
L 76.408003 247.74797 
L 78.458584 309.8635 
L 80.509166 268.87228 
L 82.361304 309.8635 
L 84.411885 309.8635 
L 86.396319 309.8635 
L 88.4469 309.8635 
L 90.431334 249.508329 
L 92.481915 277.674076 
L 94.532497 250.765729 
L 96.51693 309.8635 
L 98.567512 279.182955 
L 100.551945 278.177035 
L 102.602527 309.8635 
L 104.653108 309.8635 
L 106.571394 309.8635 
L 108.621976 287.230311 
L 110.606409 279.182955 
L 112.656991 309.8635 
L 114.641424 279.937395 
L 116.692006 309.8635 
L 118.742587 278.428515 
L 120.727021 274.656317 
L 122.777602 259.064565 
L 124.762036 279.685915 
L 126.812617 309.8635 
L 128.863199 309.8635 
L 130.715337 309.8635 
L 132.765918 309.8635 
L 134.750352 309.8635 
L 136.800933 309.8635 
L 138.785367 309.8635 
L 140.835948 309.8635 
L 142.88653 217.318905 
L 144.870963 241.712453 
L 146.921545 309.8635 
L 148.905978 236.682856 
L 150.95656 309.8635 
L 153.007141 309.8635 
L 154.859279 309.8635 
L 156.909861 309.8635 
L 158.894294 309.8635 
L 160.944876 309.8635 
L 162.92931 309.8635 
L 164.979891 309.8635 
L 167.030472 281.697754 
L 169.014906 260.573444 
L 171.065487 309.8635 
L 173.049921 309.8635 
L 175.100502 309.8635 
L 177.151084 309.8635 
L 179.003222 309.8635 
L 181.053803 309.8635 
L 183.038237 309.8635 
L 185.088818 309.8635 
L 187.073252 309.8635 
L 189.123834 309.8635 
L 191.174415 257.304206 
L 193.158849 256.549766 
L 195.20943 252.023128 
L 197.193864 216.312986 
L 199.244445 309.8635 
L 201.295027 244.227252 
L 203.213312 309.8635 
L 205.263894 309.8635 
L 207.248327 309.8635 
L 209.298909 309.8635 
L 211.283343 309.8635 
L 213.333924 309.8635 
L 215.384505 309.8635 
L 217.368939 309.8635 
L 219.41952 309.8635 
L 221.403954 309.8635 
L 223.454535 254.789407 
L 225.505117 309.8635 
L 227.357255 309.8635 
L 229.407836 309.8635 
L 231.39227 309.8635 
L 233.442851 309.8635 
L 235.427285 309.8635 
L 237.477867 309.8635 
L 239.528448 309.8635 
L 241.512882 260.321964 
L 243.563463 309.8635 
L 245.547897 309.8635 
L 247.598478 309.8635 
L 249.64906 309.8635 
L 251.501198 309.8635 
L 253.551779 309.8635 
L 255.536213 309.8635 
L 257.586794 309.8635 
L 259.571228 309.8635 
L 261.621809 309.8635 
L 263.672391 309.8635 
L 265.656824 309.8635 
L 267.707406 309.8635 
L 269.691839 309.8635 
L 271.742421 309.8635 
L 273.793002 309.8635 
L 275.64514 309.8635 
L 277.695722 309.8635 
L 279.680155 309.8635 
L 281.730737 309.8635 
L 283.71517 309.8635 
L 285.765752 309.8635 
L 287.816333 309.8635 
L 289.800767 309.8635 
L 291.851348 309.8635 
L 293.835782 309.8635 
L 295.886363 309.8635 
L 297.936945 309.8635 
L 299.855231 309.8635 
L 301.905812 309.8635 
L 303.890246 309.8635 
L 305.940827 309.8635 
L 307.925261 309.8635 
L 309.975842 309.8635 
L 312.026424 309.8635 
L 314.010857 309.8635 
L 316.061439 309.8635 
L 318.045872 309.8635 
L 320.096454 309.8635 
L 322.147035 309.8635 
L 323.999173 309.8635 
L 326.049755 309.8635 
L 328.034188 309.8635 
L 330.08477 309.8635 
L 332.069203 309.8635 
L 334.119785 309.8635 
L 336.170366 309.8635 
L 338.1548 309.8635 
L 340.205381 309.8635 
L 342.189815 309.8635 
L 344.240396 309.8635 
L 346.290978 309.8635 
L 348.143116 309.8635 
L 350.193697 309.8635 
L 352.178131 309.8635 
L 354.228712 309.8635 
L 356.213146 309.8635 
L 358.263727 309.8635 
L 360.314309 309.8635 
L 362.298742 309.8635 
L 364.349324 309.8635 
L 366.333757 309.8635 
L 368.384339 309.8635 
L 370.43492 309.8635 
L 372.287058 309.8635 
L 374.33764 309.8635 
L 376.322073 309.8635 
L 378.372655 309.8635 
L 380.357089 309.8635 
L 382.40767 309.8635 
L 384.458251 309.8635 
L 386.442685 309.8635 
L 388.493266 309.8635 
L 390.4777 309.8635 
L 392.528281 309.8635 
L 394.578863 309.8635 
L 396.497149 309.8635 
L 398.54773 309.8635 
L 400.532164 309.8635 
L 402.582745 309.8635 
L 404.567179 309.8635 
L 406.61776 309.8635 
L 408.668342 309.8635 
L 410.652775 309.8635 
L 412.703357 309.8635 
L 414.68779 309.8635 
L 416.738372 309.8635 
L 418.788953 309.8635 
L 420.641091 309.8635 
L 422.691673 309.8635 
L 424.676106 309.8635 
L 426.726688 309.8635 
L 428.711122 309.8635 
L 430.761703 309.8635 
L 432.812284 309.8635 
L 434.796718 309.8635 
L 436.847299 309.8635 
L 438.831733 309.8635 
L 440.882314 309.8635 
L 442.932896 309.8635 
L 444.785034 309.8635 
L 444.785034 234.419537 
L 444.785034 234.419537 
L 442.932896 309.8635 
L 440.882314 309.8635 
L 438.831733 309.8635 
L 436.847299 309.8635 
L 434.796718 309.8635 
L 432.812284 309.8635 
L 430.761703 309.8635 
L 428.711122 309.8635 
L 426.726688 309.8635 
L 424.676106 309.8635 
L 422.691673 309.8635 
L 420.641091 309.8635 
L 418.788953 309.8635 
L 416.738372 309.8635 
L 414.68779 309.8635 
L 412.703357 309.8635 
L 410.652775 309.8635 
L 408.668342 309.8635 
L 406.61776 309.8635 
L 404.567179 309.8635 
L 402.582745 309.8635 
L 400.532164 309.8635 
L 398.54773 309.8635 
L 396.497149 309.8635 
L 394.578863 286.475871 
L 392.528281 309.8635 
L 390.4777 171.046608 
L 388.493266 167.02293 
L 386.442685 168.531809 
L 384.458251 170.040688 
L 382.40767 173.561407 
L 380.357089 173.561407 
L 378.372655 174.064366 
L 376.322073 167.52589 
L 374.33764 165.262571 
L 372.287058 203.236032 
L 370.43492 286.475871 
L 368.384339 309.8635 
L 366.333757 309.8635 
L 364.349324 309.8635 
L 362.298742 167.777369 
L 360.314309 168.783289 
L 358.263727 169.537729 
L 356.213146 170.292168 
L 354.228712 171.549568 
L 352.178131 171.549568 
L 350.193697 309.8635 
L 348.143116 167.777369 
L 346.290978 166.77145 
L 344.240396 164.256651 
L 342.189815 162.244812 
L 340.205381 286.475871 
L 338.1548 169.034769 
L 336.170366 170.795128 
L 334.119785 242.969853 
L 332.069203 175.070286 
L 330.08477 170.795128 
L 328.034188 257.807165 
L 326.049755 309.8635 
L 323.999173 309.8635 
L 322.147035 167.27441 
L 320.096454 296.786546 
L 318.045872 168.280329 
L 316.061439 171.549568 
L 314.010857 172.806967 
L 312.026424 172.806967 
L 309.975842 172.555487 
L 307.925261 173.561407 
L 305.940827 304.582423 
L 303.890246 309.8635 
L 301.905812 309.8635 
L 299.855231 309.8635 
L 297.936945 309.8635 
L 295.886363 309.8635 
L 293.835782 172.806967 
L 291.851348 170.543648 
L 289.800767 170.795128 
L 287.816333 172.555487 
L 285.765752 173.058447 
L 283.71517 174.064366 
L 281.730737 175.824725 
L 279.680155 309.8635 
L 277.695722 309.8635 
L 275.64514 237.688775 
L 273.793002 165.514051 
L 271.742421 165.76553 
L 269.691839 166.77145 
L 267.707406 166.77145 
L 265.656824 166.51997 
L 263.672391 170.795128 
L 261.621809 171.046608 
L 259.571228 171.549568 
L 257.586794 172.555487 
L 255.536213 172.806967 
L 253.551779 170.795128 
L 251.501198 173.309927 
L 249.64906 172.555487 
L 247.598478 171.298088 
L 245.547897 171.801047 
L 243.563463 170.543648 
L 241.512882 170.795128 
L 239.528448 172.555487 
L 237.477867 171.046608 
L 235.427285 172.304007 
L 233.442851 171.549568 
L 231.39227 167.777369 
L 229.407836 169.286249 
L 227.357255 199.715314 
L 225.505117 166.77145 
L 223.454535 167.27441 
L 221.403954 165.76553 
L 219.41952 169.286249 
L 217.368939 169.789208 
L 215.384505 170.795128 
L 213.333924 172.806967 
L 211.283343 173.309927 
L 209.298909 169.789208 
L 207.248327 169.286249 
L 205.263894 165.514051 
L 203.213312 165.76553 
L 201.295027 166.51997 
L 199.244445 164.508131 
L 197.193864 166.01701 
L 195.20943 165.76553 
L 193.158849 166.77145 
L 191.174415 168.028849 
L 189.123834 167.52589 
L 187.073252 168.280329 
L 185.088818 292.259909 
L 183.038237 168.783289 
L 181.053803 166.51997 
L 179.003222 169.789208 
L 177.151084 167.27441 
L 175.100502 165.76553 
L 173.049921 164.759611 
L 171.065487 166.01701 
L 169.014906 165.514051 
L 167.030472 169.537729 
L 164.979891 168.280329 
L 162.92931 172.555487 
L 160.944876 168.531809 
L 158.894294 168.280329 
L 156.909861 309.8635 
L 154.859279 133.073146 
L 153.007141 177.585085 
L 150.95656 45.055189 
L 148.905978 40.528552 
L 146.921545 37.007833 
L 144.870963 38.013753 
L 142.88653 37.762273 
L 140.835948 46.312589 
L 138.785367 51.593666 
L 136.800933 196.446075 
L 134.750352 224.360342 
L 132.765918 220.588144 
L 130.715337 220.336664 
L 128.863199 309.8635 
L 126.812617 220.336664 
L 124.762036 220.085184 
L 122.777602 220.085184 
L 120.727021 220.839624 
L 118.742587 219.833704 
L 116.692006 220.336664 
L 114.641424 221.342583 
L 112.656991 220.588144 
L 110.606409 222.348503 
L 108.621976 222.348503 
L 106.571394 221.594063 
L 104.653108 220.839624 
L 102.602527 221.342583 
L 100.551945 221.091103 
L 98.567512 212.792267 
L 96.51693 221.845543 
L 94.532497 223.102942 
L 92.481915 222.599983 
L 90.431334 222.097023 
L 88.4469 219.330744 
L 86.396319 228.13254 
L 84.411885 220.839624 
L 82.361304 221.342583 
L 80.509166 220.336664 
L 78.458584 221.342583 
L 76.408003 221.342583 
L 74.423569 219.833704 
L 72.372988 220.839624 
L 70.388554 214.804106 
L 68.337973 215.810026 
L 66.287391 216.061506 
L 64.302958 218.324825 
L 62.252376 218.324825 
L 60.267943 220.839624 
L 58.217361 217.570385 
L 56.365223 218.324825 
L 54.314642 217.570385 
L 52.26406 220.336664 
L 50.279627 219.079264 
L 48.229045 217.570385 
L 46.244612 219.079264 
L 44.19403 218.324825 
L 42.143449 215.558546 
L 40.159015 236.431376 
L 38.108434 309.8635 
L 36.124 309.8635 
z
" style="fill:#808080;fill-opacity:0.3;"/>
   </g>
   <g id="PolyCollection_2">
    <path clip-path="url(#p80d7585cf3)" d="M 36.124 309.8635 
L 36.124 309.8635 
L 38.108434 309.8635 
L 40.159015 309.8635 
L 42.143449 229.389939 
L 44.19403 309.8635 
L 46.244612 233.916577 
L 48.229045 276.605286 
L 50.279627 224.863302 
L 52.26406 309.8635 
L 54.314642 227.88106 
L 56.365223 222.851463 
L 58.217361 221.594063 
L 60.267943 269.62672 
L 62.252376 263.842682 
L 64.302958 245.484651 
L 66.287391 242.969853 
L 68.337973 245.987611 
L 70.388554 244.038642 
L 72.372988 238.946175 
L 74.423569 245.107432 
L 76.408003 238.506085 
L 78.458584 238.946175 
L 80.509166 236.179896 
L 82.361304 309.8635 
L 84.411885 243.975772 
L 86.396319 309.8635 
L 88.4469 309.8635 
L 90.431334 237.688775 
L 92.481915 243.221333 
L 94.532497 241.460973 
L 96.51693 274.656317 
L 98.567512 243.975772 
L 100.551945 243.472812 
L 102.602527 248.50241 
L 104.653108 309.8635 
L 106.571394 247.49649 
L 108.621976 271.135599 
L 110.606409 241.963933 
L 112.656991 273.398918 
L 114.641424 239.952094 
L 116.692006 237.437295 
L 118.742587 239.197655 
L 120.727021 235.488326 
L 122.777602 233.413617 
L 124.762036 236.431376 
L 126.812617 237.437295 
L 128.863199 309.8635 
L 130.715337 280.943314 
L 132.765918 309.8635 
L 134.750352 309.8635 
L 136.800933 309.8635 
L 138.785367 216.375856 
L 140.835948 183.620602 
L 142.88653 147.218889 
L 144.870963 171.423828 
L 146.921545 179.345444 
L 148.905978 179.156834 
L 150.95656 309.8635 
L 153.007141 309.8635 
L 154.859279 309.8635 
L 156.909861 309.8635 
L 158.894294 309.8635 
L 160.944876 309.8635 
L 162.92931 233.790837 
L 164.979891 244.478732 
L 167.030472 244.478732 
L 169.014906 242.969853 
L 171.065487 249.508329 
L 173.049921 246.742051 
L 175.100502 241.523843 
L 177.151084 241.523843 
L 179.003222 309.8635 
L 181.053803 309.8635 
L 183.038237 309.8635 
L 185.088818 309.8635 
L 187.073252 244.290122 
L 189.123834 216.438726 
L 191.174415 243.724292 
L 193.158849 184.249301 
L 195.20943 179.659794 
L 197.193864 177.082125 
L 199.244445 186.07253 
L 201.295027 182.614682 
L 203.213312 309.8635 
L 205.263894 241.963933 
L 207.248327 309.8635 
L 209.298909 309.8635 
L 211.283343 286.538741 
L 213.333924 199.149484 
L 215.384505 243.032723 
L 217.368939 245.547521 
L 219.41952 242.969853 
L 221.403954 244.478732 
L 223.454535 238.003125 
L 225.505117 244.101512 
L 227.357255 309.8635 
L 229.407836 309.8635 
L 231.39227 309.8635 
L 233.442851 309.8635 
L 235.427285 224.611822 
L 237.477867 309.8635 
L 239.528448 309.8635 
L 241.512882 193.931277 
L 243.563463 241.712453 
L 245.547897 216.878815 
L 247.598478 239.260525 
L 249.64906 210.340339 
L 251.501198 309.8635 
L 253.551779 309.8635 
L 255.536213 309.8635 
L 257.586794 309.8635 
L 259.571228 309.8635 
L 261.621809 258.813085 
L 263.672391 309.8635 
L 265.656824 241.963933 
L 267.707406 309.8635 
L 269.691839 309.8635 
L 271.742421 309.8635 
L 273.793002 309.8635 
L 275.64514 309.8635 
L 277.695722 309.8635 
L 279.680155 309.8635 
L 281.730737 309.8635 
L 283.71517 309.8635 
L 285.765752 309.8635 
L 287.816333 309.8635 
L 289.800767 309.8635 
L 291.851348 309.8635 
L 293.835782 309.8635 
L 295.886363 309.8635 
L 297.936945 309.8635 
L 299.855231 309.8635 
L 301.905812 309.8635 
L 303.890246 309.8635 
L 305.940827 309.8635 
L 307.925261 309.8635 
L 309.975842 243.975772 
L 312.026424 217.884735 
L 314.010857 223.605902 
L 316.061439 309.8635 
L 318.045872 309.8635 
L 320.096454 309.8635 
L 322.147035 309.8635 
L 323.999173 309.8635 
L 326.049755 309.8635 
L 328.034188 309.8635 
L 330.08477 309.8635 
L 332.069203 309.8635 
L 334.119785 309.8635 
L 336.170366 309.8635 
L 338.1548 309.8635 
L 340.205381 309.8635 
L 342.189815 243.095593 
L 344.240396 281.006184 
L 346.290978 213.295227 
L 348.143116 309.8635 
L 350.193697 309.8635 
L 352.178131 309.8635 
L 354.228712 309.8635 
L 356.213146 309.8635 
L 358.263727 309.8635 
L 360.314309 309.8635 
L 362.298742 309.8635 
L 364.349324 309.8635 
L 366.333757 309.8635 
L 368.384339 309.8635 
L 370.43492 309.8635 
L 372.287058 309.8635 
L 374.33764 309.8635 
L 376.322073 234.419537 
L 378.372655 309.8635 
L 380.357089 309.8635 
L 382.40767 309.8635 
L 384.458251 309.8635 
L 386.442685 309.8635 
L 388.493266 309.8635 
L 390.4777 309.8635 
L 392.528281 309.8635 
L 394.578863 309.8635 
L 396.497149 309.8635 
L 398.54773 309.8635 
L 400.532164 309.8635 
L 402.582745 309.8635 
L 404.567179 309.8635 
L 406.61776 309.8635 
L 408.668342 309.8635 
L 410.652775 309.8635 
L 412.703357 309.8635 
L 414.68779 309.8635 
L 416.738372 309.8635 
L 418.788953 309.8635 
L 420.641091 309.8635 
L 422.691673 309.8635 
L 424.676106 309.8635 
L 426.726688 309.8635 
L 428.711122 309.8635 
L 430.761703 309.8635 
L 432.812284 309.8635 
L 434.796718 309.8635 
L 436.847299 309.8635 
L 438.831733 309.8635 
L 440.882314 309.8635 
L 442.932896 309.8635 
L 444.785034 309.8635 
L 444.785034 309.8635 
L 444.785034 309.8635 
L 442.932896 309.8635 
L 440.882314 309.8635 
L 438.831733 309.8635 
L 436.847299 309.8635 
L 434.796718 309.8635 
L 432.812284 309.8635 
L 430.761703 309.8635 
L 428.711122 309.8635 
L 426.726688 309.8635 
L 424.676106 309.8635 
L 422.691673 309.8635 
L 420.641091 309.8635 
L 418.788953 309.8635 
L 416.738372 309.8635 
L 414.68779 309.8635 
L 412.703357 309.8635 
L 410.652775 309.8635 
L 408.668342 309.8635 
L 406.61776 309.8635 
L 404.567179 309.8635 
L 402.582745 309.8635 
L 400.532164 309.8635 
L 398.54773 309.8635 
L 396.497149 309.8635 
L 394.578863 309.8635 
L 392.528281 309.8635 
L 390.4777 309.8635 
L 388.493266 244.855952 
L 386.442685 184.815131 
L 384.458251 228.82411 
L 382.40767 250.702859 
L 380.357089 214.804106 
L 378.372655 249.759809 
L 376.322073 176.076205 
L 374.33764 207.6998 
L 372.287058 252.023128 
L 370.43492 309.8635 
L 368.384339 309.8635 
L 366.333757 309.8635 
L 364.349324 309.8635 
L 362.298742 260.762054 
L 360.314309 215.810026 
L 358.263727 223.480162 
L 356.213146 215.307066 
L 354.228712 215.998636 
L 352.178131 286.727351 
L 350.193697 309.8635 
L 348.143116 197.326255 
L 346.290978 169.789208 
L 344.240396 169.789208 
L 342.189815 202.230113 
L 340.205381 309.8635 
L 338.1548 195.188676 
L 336.170366 180.854323 
L 334.119785 309.8635 
L 332.069203 214.049667 
L 330.08477 177.773695 
L 328.034188 309.8635 
L 326.049755 309.8635 
L 323.999173 309.8635 
L 322.147035 217.570385 
L 320.096454 309.8635 
L 318.045872 219.582224 
L 316.061439 206.002311 
L 314.010857 175.573246 
L 312.026424 177.585085 
L 309.975842 182.614682 
L 307.925261 184.878001 
L 305.940827 309.8635 
L 303.890246 309.8635 
L 301.905812 309.8635 
L 299.855231 309.8635 
L 297.936945 309.8635 
L 295.886363 309.8635 
L 293.835782 190.221948 
L 291.851348 232.030478 
L 289.800767 259.190305 
L 287.816333 183.620602 
L 285.765752 188.335849 
L 283.71517 222.411373 
L 281.730737 309.8635 
L 279.680155 309.8635 
L 277.695722 309.8635 
L 275.64514 309.8635 
L 273.793002 200.972713 
L 271.742421 251.205819 
L 269.691839 259.567525 
L 267.707406 179.596924 
L 265.656824 172.806967 
L 263.672391 238.380345 
L 261.621809 177.836565 
L 259.571228 185.632441 
L 257.586794 309.8635 
L 255.536213 309.8635 
L 253.551779 238.631825 
L 251.501198 237.625905 
L 249.64906 174.818806 
L 247.598478 174.315846 
L 245.547897 173.812886 
L 243.563463 175.070286 
L 241.512882 174.567326 
L 239.528448 240.455054 
L 237.477867 175.573246 
L 235.427285 178.088044 
L 233.442851 209.774509 
L 231.39227 180.602843 
L 229.407836 262.711023 
L 227.357255 309.8635 
L 225.505117 180.854323 
L 223.454535 176.327685 
L 221.403954 174.315846 
L 219.41952 183.117642 
L 217.368939 183.872082 
L 215.384505 183.369122 
L 213.333924 179.345444 
L 211.283343 179.093964 
L 209.298909 235.362586 
L 207.248327 185.632441 
L 205.263894 170.795128 
L 203.213312 176.076205 
L 201.295027 170.480778 
L 199.244445 169.286249 
L 197.193864 169.537729 
L 195.20943 169.537729 
L 193.158849 170.292168 
L 191.174415 175.573246 
L 189.123834 173.812886 
L 187.073252 175.070286 
L 185.088818 309.8635 
L 183.038237 309.8635 
L 181.053803 178.528134 
L 179.003222 309.8635 
L 177.151084 171.046608 
L 175.100502 172.744097 
L 173.049921 171.738177 
L 171.065487 171.549568 
L 169.014906 172.492617 
L 167.030472 175.573246 
L 164.979891 175.321766 
L 162.92931 177.585085 
L 160.944876 183.243382 
L 158.894294 201.852893 
L 156.909861 309.8635 
L 154.859279 309.8635 
L 153.007141 187.3928 
L 150.95656 197.892085 
L 148.905978 53.794115 
L 146.921545 41.785951 
L 144.870963 50.084787 
L 142.88653 52.851066 
L 140.835948 59.829632 
L 138.785367 65.362189 
L 136.800933 250.514249 
L 134.750352 284.464032 
L 132.765918 266.608961 
L 130.715337 225.806351 
L 128.863199 309.8635 
L 126.812617 221.091103 
L 124.762036 224.297472 
L 122.777602 223.605902 
L 120.727021 225.617741 
L 118.742587 225.366261 
L 116.692006 225.869221 
L 114.641424 227.62958 
L 112.656991 230.395859 
L 110.606409 229.892899 
L 108.621976 230.898819 
L 106.571394 233.413617 
L 104.653108 309.8635 
L 102.602527 232.156218 
L 100.551945 232.659178 
L 98.567512 229.641419 
L 96.51693 243.221333 
L 94.532497 231.653258 
L 92.481915 231.401778 
L 90.431334 228.38402 
L 88.4469 234.419537 
L 86.396319 271.827169 
L 84.411885 230.898819 
L 82.361304 230.144379 
L 80.509166 225.366261 
L 78.458584 228.38402 
L 76.408003 230.395859 
L 74.423569 231.401778 
L 72.372988 232.407698 
L 70.388554 226.623661 
L 68.337973 225.366261 
L 66.287391 225.114781 
L 64.302958 229.389939 
L 62.252376 222.599983 
L 60.267943 262.333803 
L 58.217361 220.336664 
L 56.365223 220.588144 
L 54.314642 220.085184 
L 52.26406 303.827983 
L 50.279627 220.839624 
L 48.229045 221.845543 
L 46.244612 222.097023 
L 44.19403 223.354422 
L 42.143449 222.097023 
L 40.159015 309.8635 
L 38.108434 309.8635 
L 36.124 309.8635 
z
" style="fill:#808080;fill-opacity:0.6;"/>
   </g>
   <g id="matplotlib.axis_1">
    <g id="xtick_1">
     <g id="line2d_1">
      <path clip-path="url(#p80d7585cf3)" d="M 54.314642 309.8635 
L 54.314642 23.36505 
" style="fill:none;stroke:#b0b0b0;stroke-linecap:square;stroke-width:0.8;"/>
     </g>
     <g id="line2d_2">
      <defs>
       <path d="M 0 0 
L 0 3.5 
" id="mea359bead9" style="stroke:#000000;stroke-width:0.8;"/>
      </defs>
      <g>
       <use style="stroke:#000000;stroke-width:0.8;" x="54.314642" xlink:href="#mea359bead9" y="309.8635"/>
      </g>
     </g>
     <g id="text_1">
      <!-- 2002 -->
      <defs>
       <path d="M 19.1875 8.296875 
L 53.609375 8.296875 
L 53.609375 0 
L 7.328125 0 
L 7.328125 8.296875 
Q 12.9375 14.109375 22.625 23.890625 
Q 32.328125 33.6875 34.8125 36.53125 
Q 39.546875 41.84375 41.421875 45.53125 
Q 43.3125 49.21875 43.3125 52.78125 
Q 43.3125 58.59375 39.234375 62.25 
Q 35.15625 65.921875 28.609375 65.921875 
Q 23.96875 65.921875 18.8125 64.3125 
Q 13.671875 62.703125 7.8125 59.421875 
L 7.8125 69.390625 
Q 13.765625 71.78125 18.9375 73 
Q 24.125 74.21875 28.421875 74.21875 
Q 39.75 74.21875 46.484375 68.546875 
Q 53.21875 62.890625 53.21875 53.421875 
Q 53.21875 48.921875 51.53125 44.890625 
Q 49.859375 40.875 45.40625 35.40625 
Q 44.1875 33.984375 37.640625 27.21875 
Q 31.109375 20.453125 19.1875 8.296875 
z
" id="DejaVuSans-32"/>
       <path d="M 31.78125 66.40625 
Q 24.171875 66.40625 20.328125 58.90625 
Q 16.5 51.421875 16.5 36.375 
Q 16.5 21.390625 20.328125 13.890625 
Q 24.171875 6.390625 31.78125 6.390625 
Q 39.453125 6.390625 43.28125 13.890625 
Q 47.125 21.390625 47.125 36.375 
Q 47.125 51.421875 43.28125 58.90625 
Q 39.453125 66.40625 31.78125 66.40625 
z
M 31.78125 74.21875 
Q 44.046875 74.21875 50.515625 64.515625 
Q 56.984375 54.828125 56.984375 36.375 
Q 56.984375 17.96875 50.515625 8.265625 
Q 44.046875 -1.421875 31.78125 -1.421875 
Q 19.53125 -1.421875 13.0625 8.265625 
Q 6.59375 17.96875 6.59375 36.375 
Q 6.59375 54.828125 13.0625 64.515625 
Q 19.53125 74.21875 31.78125 74.21875 
z
" id="DejaVuSans-30"/>
      </defs>
      <g transform="translate(41.589642 324.461937)scale(0.1 -0.1)">
       <use xlink:href="#DejaVuSans-32"/>
       <use x="63.623047" xlink:href="#DejaVuSans-30"/>
       <use x="127.246094" xlink:href="#DejaVuSans-30"/>
       <use x="190.869141" xlink:href="#DejaVuSans-32"/>
      </g>
     </g>
    </g>
    <g id="xtick_2">
     <g id="line2d_3">
      <path clip-path="url(#p80d7585cf3)" d="M 102.602527 309.8635 
L 102.602527 23.36505 
" style="fill:none;stroke:#b0b0b0;stroke-linecap:square;stroke-width:0.8;"/>
     </g>
     <g id="line2d_4">
      <g>
       <use style="stroke:#000000;stroke-width:0.8;" x="102.602527" xlink:href="#mea359bead9" y="309.8635"/>
      </g>
     </g>
     <g id="text_2">
      <!-- 2004 -->
      <defs>
       <path d="M 37.796875 64.3125 
L 12.890625 25.390625 
L 37.796875 25.390625 
z
M 35.203125 72.90625 
L 47.609375 72.90625 
L 47.609375 25.390625 
L 58.015625 25.390625 
L 58.015625 17.1875 
L 47.609375 17.1875 
L 47.609375 0 
L 37.796875 0 
L 37.796875 17.1875 
L 4.890625 17.1875 
L 4.890625 26.703125 
z
" id="DejaVuSans-34"/>
      </defs>
      <g transform="translate(89.877527 324.461937)scale(0.1 -0.1)">
       <use xlink:href="#DejaVuSans-32"/>
       <use x="63.623047" xlink:href="#DejaVuSans-30"/>
       <use x="127.246094" xlink:href="#DejaVuSans-30"/>
       <use x="190.869141" xlink:href="#DejaVuSans-34"/>
      </g>
     </g>
    </g>
    <g id="xtick_3">
     <g id="line2d_5">
      <path clip-path="url(#p80d7585cf3)" d="M 150.95656 309.8635 
L 150.95656 23.36505 
" style="fill:none;stroke:#b0b0b0;stroke-linecap:square;stroke-width:0.8;"/>
     </g>
     <g id="line2d_6">
      <g>
       <use style="stroke:#000000;stroke-width:0.8;" x="150.95656" xlink:href="#mea359bead9" y="309.8635"/>
      </g>
     </g>
     <g id="text_3">
      <!-- 2006 -->
      <defs>
       <path d="M 33.015625 40.375 
Q 26.375 40.375 22.484375 35.828125 
Q 18.609375 31.296875 18.609375 23.390625 
Q 18.609375 15.53125 22.484375 10.953125 
Q 26.375 6.390625 33.015625 6.390625 
Q 39.65625 6.390625 43.53125 10.953125 
Q 47.40625 15.53125 47.40625 23.390625 
Q 47.40625 31.296875 43.53125 35.828125 
Q 39.65625 40.375 33.015625 40.375 
z
M 52.59375 71.296875 
L 52.59375 62.3125 
Q 48.875 64.0625 45.09375 64.984375 
Q 41.3125 65.921875 37.59375 65.921875 
Q 27.828125 65.921875 22.671875 59.328125 
Q 17.53125 52.734375 16.796875 39.40625 
Q 19.671875 43.65625 24.015625 45.921875 
Q 28.375 48.1875 33.59375 48.1875 
Q 44.578125 48.1875 50.953125 41.515625 
Q 57.328125 34.859375 57.328125 23.390625 
Q 57.328125 12.15625 50.6875 5.359375 
Q 44.046875 -1.421875 33.015625 -1.421875 
Q 20.359375 -1.421875 13.671875 8.265625 
Q 6.984375 17.96875 6.984375 36.375 
Q 6.984375 53.65625 15.1875 63.9375 
Q 23.390625 74.21875 37.203125 74.21875 
Q 40.921875 74.21875 44.703125 73.484375 
Q 48.484375 72.75 52.59375 71.296875 
z
" id="DejaVuSans-36"/>
      </defs>
      <g transform="translate(138.23156 324.461937)scale(0.1 -0.1)">
       <use xlink:href="#DejaVuSans-32"/>
       <use x="63.623047" xlink:href="#DejaVuSans-30"/>
       <use x="127.246094" xlink:href="#DejaVuSans-30"/>
       <use x="190.869141" xlink:href="#DejaVuSans-36"/>
      </g>
     </g>
    </g>
    <g id="xtick_4">
     <g id="line2d_7">
      <path clip-path="url(#p80d7585cf3)" d="M 199.244445 309.8635 
L 199.244445 23.36505 
" style="fill:none;stroke:#b0b0b0;stroke-linecap:square;stroke-width:0.8;"/>
     </g>
     <g id="line2d_8">
      <g>
       <use style="stroke:#000000;stroke-width:0.8;" x="199.244445" xlink:href="#mea359bead9" y="309.8635"/>
      </g>
     </g>
     <g id="text_4">
      <!-- 2008 -->
      <defs>
       <path d="M 31.78125 34.625 
Q 24.75 34.625 20.71875 30.859375 
Q 16.703125 27.09375 16.703125 20.515625 
Q 16.703125 13.921875 20.71875 10.15625 
Q 24.75 6.390625 31.78125 6.390625 
Q 38.8125 6.390625 42.859375 10.171875 
Q 46.921875 13.96875 46.921875 20.515625 
Q 46.921875 27.09375 42.890625 30.859375 
Q 38.875 34.625 31.78125 34.625 
z
M 21.921875 38.8125 
Q 15.578125 40.375 12.03125 44.71875 
Q 8.5 49.078125 8.5 55.328125 
Q 8.5 64.0625 14.71875 69.140625 
Q 20.953125 74.21875 31.78125 74.21875 
Q 42.671875 74.21875 48.875 69.140625 
Q 55.078125 64.0625 55.078125 55.328125 
Q 55.078125 49.078125 51.53125 44.71875 
Q 48 40.375 41.703125 38.8125 
Q 48.828125 37.15625 52.796875 32.3125 
Q 56.78125 27.484375 56.78125 20.515625 
Q 56.78125 9.90625 50.3125 4.234375 
Q 43.84375 -1.421875 31.78125 -1.421875 
Q 19.734375 -1.421875 13.25 4.234375 
Q 6.78125 9.90625 6.78125 20.515625 
Q 6.78125 27.484375 10.78125 32.3125 
Q 14.796875 37.15625 21.921875 38.8125 
z
M 18.3125 54.390625 
Q 18.3125 48.734375 21.84375 45.5625 
Q 25.390625 42.390625 31.78125 42.390625 
Q 38.140625 42.390625 41.71875 45.5625 
Q 45.3125 48.734375 45.3125 54.390625 
Q 45.3125 60.0625 41.71875 63.234375 
Q 38.140625 66.40625 31.78125 66.40625 
Q 25.390625 66.40625 21.84375 63.234375 
Q 18.3125 60.0625 18.3125 54.390625 
z
" id="DejaVuSans-38"/>
      </defs>
      <g transform="translate(186.519445 324.461937)scale(0.1 -0.1)">
       <use xlink:href="#DejaVuSans-32"/>
       <use x="63.623047" xlink:href="#DejaVuSans-30"/>
       <use x="127.246094" xlink:href="#DejaVuSans-30"/>
       <use x="190.869141" xlink:href="#DejaVuSans-38"/>
      </g>
     </g>
    </g>
    <g id="xtick_5">
     <g id="line2d_9">
      <path clip-path="url(#p80d7585cf3)" d="M 247.598478 309.8635 
L 247.598478 23.36505 
" style="fill:none;stroke:#b0b0b0;stroke-linecap:square;stroke-width:0.8;"/>
     </g>
     <g id="line2d_10">
      <g>
       <use style="stroke:#000000;stroke-width:0.8;" x="247.598478" xlink:href="#mea359bead9" y="309.8635"/>
      </g>
     </g>
     <g id="text_5">
      <!-- 2010 -->
      <defs>
       <path d="M 12.40625 8.296875 
L 28.515625 8.296875 
L 28.515625 63.921875 
L 10.984375 60.40625 
L 10.984375 69.390625 
L 28.421875 72.90625 
L 38.28125 72.90625 
L 38.28125 8.296875 
L 54.390625 8.296875 
L 54.390625 0 
L 12.40625 0 
z
" id="DejaVuSans-31"/>
      </defs>
      <g transform="translate(234.873478 324.461937)scale(0.1 -0.1)">
       <use xlink:href="#DejaVuSans-32"/>
       <use x="63.623047" xlink:href="#DejaVuSans-30"/>
       <use x="127.246094" xlink:href="#DejaVuSans-31"/>
       <use x="190.869141" xlink:href="#DejaVuSans-30"/>
      </g>
     </g>
    </g>
    <g id="xtick_6">
     <g id="line2d_11">
      <path clip-path="url(#p80d7585cf3)" d="M 295.886363 309.8635 
L 295.886363 23.36505 
" style="fill:none;stroke:#b0b0b0;stroke-linecap:square;stroke-width:0.8;"/>
     </g>
     <g id="line2d_12">
      <g>
       <use style="stroke:#000000;stroke-width:0.8;" x="295.886363" xlink:href="#mea359bead9" y="309.8635"/>
      </g>
     </g>
     <g id="text_6">
      <!-- 2012 -->
      <g transform="translate(283.161363 324.461937)scale(0.1 -0.1)">
       <use xlink:href="#DejaVuSans-32"/>
       <use x="63.623047" xlink:href="#DejaVuSans-30"/>
       <use x="127.246094" xlink:href="#DejaVuSans-31"/>
       <use x="190.869141" xlink:href="#DejaVuSans-32"/>
      </g>
     </g>
    </g>
    <g id="xtick_7">
     <g id="line2d_13">
      <path clip-path="url(#p80d7585cf3)" d="M 344.240396 309.8635 
L 344.240396 23.36505 
" style="fill:none;stroke:#b0b0b0;stroke-linecap:square;stroke-width:0.8;"/>
     </g>
     <g id="line2d_14">
      <g>
       <use style="stroke:#000000;stroke-width:0.8;" x="344.240396" xlink:href="#mea359bead9" y="309.8635"/>
      </g>
     </g>
     <g id="text_7">
      <!-- 2014 -->
      <g transform="translate(331.515396 324.461937)scale(0.1 -0.1)">
       <use xlink:href="#DejaVuSans-32"/>
       <use x="63.623047" xlink:href="#DejaVuSans-30"/>
       <use x="127.246094" xlink:href="#DejaVuSans-31"/>
       <use x="190.869141" xlink:href="#DejaVuSans-34"/>
      </g>
     </g>
    </g>
    <g id="xtick_8">
     <g id="line2d_15">
      <path clip-path="url(#p80d7585cf3)" d="M 392.528281 309.8635 
L 392.528281 23.36505 
" style="fill:none;stroke:#b0b0b0;stroke-linecap:square;stroke-width:0.8;"/>
     </g>
     <g id="line2d_16">
      <g>
       <use style="stroke:#000000;stroke-width:0.8;" x="392.528281" xlink:href="#mea359bead9" y="309.8635"/>
      </g>
     </g>
     <g id="text_8">
      <!-- 2016 -->
      <g transform="translate(379.803281 324.461937)scale(0.1 -0.1)">
       <use xlink:href="#DejaVuSans-32"/>
       <use x="63.623047" xlink:href="#DejaVuSans-30"/>
       <use x="127.246094" xlink:href="#DejaVuSans-31"/>
       <use x="190.869141" xlink:href="#DejaVuSans-36"/>
      </g>
     </g>
    </g>
    <g id="xtick_9">
     <g id="line2d_17">
      <path clip-path="url(#p80d7585cf3)" d="M 440.882314 309.8635 
L 440.882314 23.36505 
" style="fill:none;stroke:#b0b0b0;stroke-linecap:square;stroke-width:0.8;"/>
     </g>
     <g id="line2d_18">
      <g>
       <use style="stroke:#000000;stroke-width:0.8;" x="440.882314" xlink:href="#mea359bead9" y="309.8635"/>
      </g>
     </g>
     <g id="text_9">
      <!-- 2018 -->
      <g transform="translate(428.157314 324.461937)scale(0.1 -0.1)">
       <use xlink:href="#DejaVuSans-32"/>
       <use x="63.623047" xlink:href="#DejaVuSans-30"/>
       <use x="127.246094" xlink:href="#DejaVuSans-31"/>
       <use x="190.869141" xlink:href="#DejaVuSans-38"/>
      </g>
     </g>
    </g>
    <g id="text_10">
     <!-- Date -->
     <defs>
      <path d="M 19.671875 64.796875 
L 19.671875 8.109375 
L 31.59375 8.109375 
Q 46.6875 8.109375 53.6875 14.9375 
Q 60.6875 21.78125 60.6875 36.53125 
Q 60.6875 51.171875 53.6875 57.984375 
Q 46.6875 64.796875 31.59375 64.796875 
z
M 9.8125 72.90625 
L 30.078125 72.90625 
Q 51.265625 72.90625 61.171875 64.09375 
Q 71.09375 55.28125 71.09375 36.53125 
Q 71.09375 17.671875 61.125 8.828125 
Q 51.171875 0 30.078125 0 
L 9.8125 0 
z
" id="DejaVuSans-44"/>
      <path d="M 34.28125 27.484375 
Q 23.390625 27.484375 19.1875 25 
Q 14.984375 22.515625 14.984375 16.5 
Q 14.984375 11.71875 18.140625 8.90625 
Q 21.296875 6.109375 26.703125 6.109375 
Q 34.1875 6.109375 38.703125 11.40625 
Q 43.21875 16.703125 43.21875 25.484375 
L 43.21875 27.484375 
z
M 52.203125 31.203125 
L 52.203125 0 
L 43.21875 0 
L 43.21875 8.296875 
Q 40.140625 3.328125 35.546875 0.953125 
Q 30.953125 -1.421875 24.3125 -1.421875 
Q 15.921875 -1.421875 10.953125 3.296875 
Q 6 8.015625 6 15.921875 
Q 6 25.140625 12.171875 29.828125 
Q 18.359375 34.515625 30.609375 34.515625 
L 43.21875 34.515625 
L 43.21875 35.40625 
Q 43.21875 41.609375 39.140625 45 
Q 35.0625 48.390625 27.6875 48.390625 
Q 23 48.390625 18.546875 47.265625 
Q 14.109375 46.140625 10.015625 43.890625 
L 10.015625 52.203125 
Q 14.9375 54.109375 19.578125 55.046875 
Q 24.21875 56 28.609375 56 
Q 40.484375 56 46.34375 49.84375 
Q 52.203125 43.703125 52.203125 31.203125 
z
" id="DejaVuSans-61"/>
      <path d="M 18.3125 70.21875 
L 18.3125 54.6875 
L 36.8125 54.6875 
L 36.8125 47.703125 
L 18.3125 47.703125 
L 18.3125 18.015625 
Q 18.3125 11.328125 20.140625 9.421875 
Q 21.96875 7.515625 27.59375 7.515625 
L 36.8125 7.515625 
L 36.8125 0 
L 27.59375 0 
Q 17.1875 0 13.234375 3.875 
Q 9.28125 7.765625 9.28125 18.015625 
L 9.28125 47.703125 
L 2.6875 47.703125 
L 2.6875 54.6875 
L 9.28125 54.6875 
L 9.28125 70.21875 
z
" id="DejaVuSans-74"/>
      <path d="M 56.203125 29.59375 
L 56.203125 25.203125 
L 14.890625 25.203125 
Q 15.484375 15.921875 20.484375 11.0625 
Q 25.484375 6.203125 34.421875 6.203125 
Q 39.59375 6.203125 44.453125 7.46875 
Q 49.3125 8.734375 54.109375 11.28125 
L 54.109375 2.78125 
Q 49.265625 0.734375 44.1875 -0.34375 
Q 39.109375 -1.421875 33.890625 -1.421875 
Q 20.796875 -1.421875 13.15625 6.1875 
Q 5.515625 13.8125 5.515625 26.8125 
Q 5.515625 40.234375 12.765625 48.109375 
Q 20.015625 56 32.328125 56 
Q 43.359375 56 49.78125 48.890625 
Q 56.203125 41.796875 56.203125 29.59375 
z
M 47.21875 32.234375 
Q 47.125 39.59375 43.09375 43.984375 
Q 39.0625 48.390625 32.421875 48.390625 
Q 24.90625 48.390625 20.390625 44.140625 
Q 15.875 39.890625 15.1875 32.171875 
z
" id="DejaVuSans-65"/>
     </defs>
     <g transform="translate(228.503736 338.140062)scale(0.1 -0.1)">
      <use xlink:href="#DejaVuSans-44"/>
      <use x="77.001953" xlink:href="#DejaVuSans-61"/>
      <use x="138.28125" xlink:href="#DejaVuSans-74"/>
      <use x="177.490234" xlink:href="#DejaVuSans-65"/>
     </g>
    </g>
   </g>
   <g id="matplotlib.axis_2">
    <g id="ytick_1">
     <g id="line2d_19">
      <path clip-path="url(#p80d7585cf3)" d="M 36.124 309.8635 
L 444.785034 309.8635 
" style="fill:none;stroke:#b0b0b0;stroke-linecap:square;stroke-width:0.8;"/>
     </g>
     <g id="line2d_20">
      <defs>
       <path d="M 0 0 
L -3.5 0 
" id="m913bea2c4b" style="stroke:#000000;stroke-width:0.8;"/>
      </defs>
      <g>
       <use style="stroke:#000000;stroke-width:0.8;" x="36.124" xlink:href="#m913bea2c4b" y="309.8635"/>
      </g>
     </g>
     <g id="text_11">
      <!-- 0 -->
      <g transform="translate(22.7615 313.662719)scale(0.1 -0.1)">
       <use xlink:href="#DejaVuSans-30"/>
      </g>
     </g>
    </g>
    <g id="ytick_2">
     <g id="line2d_21">
      <path clip-path="url(#p80d7585cf3)" d="M 36.124 259.567525 
L 444.785034 259.567525 
" style="fill:none;stroke:#b0b0b0;stroke-linecap:square;stroke-width:0.8;"/>
     </g>
     <g id="line2d_22">
      <g>
       <use style="stroke:#000000;stroke-width:0.8;" x="36.124" xlink:href="#m913bea2c4b" y="259.567525"/>
      </g>
     </g>
     <g id="text_12">
      <!-- 200 -->
      <g transform="translate(10.0365 263.366743)scale(0.1 -0.1)">
       <use xlink:href="#DejaVuSans-32"/>
       <use x="63.623047" xlink:href="#DejaVuSans-30"/>
       <use x="127.246094" xlink:href="#DejaVuSans-30"/>
      </g>
     </g>
    </g>
    <g id="ytick_3">
     <g id="line2d_23">
      <path clip-path="url(#p80d7585cf3)" d="M 36.124 209.271549 
L 444.785034 209.271549 
" style="fill:none;stroke:#b0b0b0;stroke-linecap:square;stroke-width:0.8;"/>
     </g>
     <g id="line2d_24">
      <g>
       <use style="stroke:#000000;stroke-width:0.8;" x="36.124" xlink:href="#m913bea2c4b" y="209.271549"/>
      </g>
     </g>
     <g id="text_13">
      <!-- 400 -->
      <g transform="translate(10.0365 213.070768)scale(0.1 -0.1)">
       <use xlink:href="#DejaVuSans-34"/>
       <use x="63.623047" xlink:href="#DejaVuSans-30"/>
       <use x="127.246094" xlink:href="#DejaVuSans-30"/>
      </g>
     </g>
    </g>
    <g id="ytick_4">
     <g id="line2d_25">
      <path clip-path="url(#p80d7585cf3)" d="M 36.124 158.975574 
L 444.785034 158.975574 
" style="fill:none;stroke:#b0b0b0;stroke-linecap:square;stroke-width:0.8;"/>
     </g>
     <g id="line2d_26">
      <g>
       <use style="stroke:#000000;stroke-width:0.8;" x="36.124" xlink:href="#m913bea2c4b" y="158.975574"/>
      </g>
     </g>
     <g id="text_14">
      <!-- 600 -->
      <g transform="translate(10.0365 162.774792)scale(0.1 -0.1)">
       <use xlink:href="#DejaVuSans-36"/>
       <use x="63.623047" xlink:href="#DejaVuSans-30"/>
       <use x="127.246094" xlink:href="#DejaVuSans-30"/>
      </g>
     </g>
    </g>
    <g id="ytick_5">
     <g id="line2d_27">
      <path clip-path="url(#p80d7585cf3)" d="M 36.124 108.679598 
L 444.785034 108.679598 
" style="fill:none;stroke:#b0b0b0;stroke-linecap:square;stroke-width:0.8;"/>
     </g>
     <g id="line2d_28">
      <g>
       <use style="stroke:#000000;stroke-width:0.8;" x="36.124" xlink:href="#m913bea2c4b" y="108.679598"/>
      </g>
     </g>
     <g id="text_15">
      <!-- 800 -->
      <g transform="translate(10.0365 112.478817)scale(0.1 -0.1)">
       <use xlink:href="#DejaVuSans-38"/>
       <use x="63.623047" xlink:href="#DejaVuSans-30"/>
       <use x="127.246094" xlink:href="#DejaVuSans-30"/>
      </g>
     </g>
    </g>
    <g id="ytick_6">
     <g id="line2d_29">
      <path clip-path="url(#p80d7585cf3)" d="M 36.124 58.383623 
L 444.785034 58.383623 
" style="fill:none;stroke:#b0b0b0;stroke-linecap:square;stroke-width:0.8;"/>
     </g>
     <g id="line2d_30">
      <g>
       <use style="stroke:#000000;stroke-width:0.8;" x="36.124" xlink:href="#m913bea2c4b" y="58.383623"/>
      </g>
     </g>
     <g id="text_16">
      <!-- 1000 -->
      <g transform="translate(3.674 62.182842)scale(0.1 -0.1)">
       <use xlink:href="#DejaVuSans-31"/>
       <use x="63.623047" xlink:href="#DejaVuSans-30"/>
       <use x="127.246094" xlink:href="#DejaVuSans-30"/>
       <use x="190.869141" xlink:href="#DejaVuSans-30"/>
      </g>
     </g>
    </g>
   </g>
   <g id="line2d_31">
    <path clip-path="url(#p80d7585cf3)" d="M 36.124 309.8635 
L 40.159015 309.8635 
L 42.143449 224.611822 
L 44.19403 229.389939 
L 46.244612 225.492001 
L 48.229045 224.108862 
L 50.279627 221.342583 
L 52.26406 309.8635 
L 54.314642 220.588144 
L 56.365223 221.342583 
L 58.217361 220.839624 
L 60.267943 264.094162 
L 62.252376 236.808596 
L 64.302958 241.712453 
L 66.287391 234.168057 
L 68.337973 237.437295 
L 70.388554 236.054156 
L 72.372988 236.431376 
L 74.423569 236.431376 
L 76.408003 235.173976 
L 78.458584 233.539357 
L 80.509166 229.892899 
L 82.361304 266.986181 
L 84.411885 235.425456 
L 86.396319 309.8635 
L 88.4469 268.74654 
L 90.431334 232.407698 
L 92.481915 237.437295 
L 94.532497 236.431376 
L 96.51693 271.638559 
L 98.567512 236.179896 
L 100.551945 238.065995 
L 102.602527 240.203574 
L 104.653108 309.8635 
L 106.571394 240.455054 
L 108.621976 241.083754 
L 110.606409 234.922497 
L 112.656991 240.958014 
L 114.641424 232.407698 
L 116.692006 230.395859 
L 118.742587 230.395859 
L 120.727021 229.389939 
L 122.777602 227.88106 
L 124.762036 228.76124 
L 126.812617 221.845543 
L 128.863199 309.8635 
L 130.715337 267.363401 
L 132.765918 278.931475 
L 134.750352 309.8635 
L 136.800933 306.342782 
L 138.785367 152.562837 
L 140.835948 126.28319 
L 142.88653 94.722465 
L 144.870963 94.848205 
L 146.921545 63.28748 
L 148.905978 94.470985 
L 150.95656 214.426887 
L 153.007141 205.876571 
L 154.859279 309.8635 
L 158.894294 309.8635 
L 160.944876 228.38402 
L 162.92931 186.38688 
L 164.979891 189.656119 
L 167.030472 192.422397 
L 169.014906 177.082125 
L 171.065487 206.505271 
L 173.049921 228.38402 
L 175.100502 183.369122 
L 177.151084 182.363202 
L 179.003222 309.8635 
L 181.053803 249.25685 
L 183.038237 309.8635 
L 185.088818 309.8635 
L 187.073252 191.416478 
L 189.123834 176.830645 
L 191.174415 206.505271 
L 193.158849 173.309927 
L 195.20943 171.801047 
L 197.193864 172.052527 
L 199.244445 172.178267 
L 201.295027 175.573246 
L 203.213312 205.247871 
L 205.263894 184.123561 
L 207.248327 293.391568 
L 209.298909 309.8635 
L 211.283343 195.440156 
L 213.333924 183.872082 
L 215.384505 191.542218 
L 217.368939 203.487512 
L 219.41952 205.750831 
L 221.403954 192.170918 
L 223.454535 193.176837 
L 225.505117 197.200515 
L 227.357255 309.8635 
L 229.407836 309.8635 
L 231.39227 247.74797 
L 233.442851 309.8635 
L 235.427285 197.703475 
L 237.477867 207.13397 
L 239.528448 309.8635 
L 241.512882 175.824725 
L 243.563463 204.241952 
L 245.547897 174.818806 
L 247.598478 188.0215 
L 249.64906 182.614682 
L 251.501198 309.8635 
L 257.586794 309.8635 
L 259.571228 221.594063 
L 261.621809 239.197655 
L 263.672391 253.029048 
L 265.656824 188.775939 
L 267.707406 242.215413 
L 269.691839 309.8635 
L 271.742421 309.8635 
L 273.793002 255.543847 
L 275.64514 309.8635 
L 283.71517 309.8635 
L 285.765752 251.645908 
L 287.816333 230.395859 
L 289.800767 309.8635 
L 305.940827 309.8635 
L 307.925261 261.830843 
L 309.975842 199.715314 
L 312.026424 179.345444 
L 314.010857 183.746342 
L 316.061439 289.36789 
L 318.045872 309.8635 
L 328.034188 309.8635 
L 330.08477 216.564466 
L 332.069203 258.813085 
L 334.119785 309.8635 
L 336.170366 235.676936 
L 338.1548 228.50976 
L 340.205381 309.8635 
L 342.189815 237.940255 
L 344.240396 183.872082 
L 346.290978 179.596924 
L 348.143116 257.052726 
L 350.193697 309.8635 
L 370.43492 309.8635 
L 372.287058 260.573444 
L 374.33764 286.475871 
L 376.322073 190.410558 
L 378.372655 309.8635 
L 380.357089 259.316045 
L 382.40767 309.8635 
L 384.458251 268.74654 
L 386.442685 239.449134 
L 388.493266 309.8635 
L 444.785034 309.8635 
L 444.785034 309.8635 
" style="fill:none;stroke:#1f77b4;stroke-linecap:square;stroke-width:1.5;"/>
   </g>
   <g id="patch_3">
    <path d="M 36.124 309.8635 
L 36.124 23.36505 
" style="fill:none;stroke:#000000;stroke-linecap:square;stroke-linejoin:miter;stroke-width:0.8;"/>
   </g>
   <g id="patch_4">
    <path d="M 444.785034 309.8635 
L 444.785034 23.36505 
" style="fill:none;stroke:#000000;stroke-linecap:square;stroke-linejoin:miter;stroke-width:0.8;"/>
   </g>
   <g id="patch_5">
    <path d="M 36.124 309.8635 
L 444.785034 309.8635 
" style="fill:none;stroke:#000000;stroke-linecap:square;stroke-linejoin:miter;stroke-width:0.8;"/>
   </g>
   <g id="patch_6">
    <path d="M 36.124 23.36505 
L 444.785034 23.36505 
" style="fill:none;stroke:#000000;stroke-linecap:square;stroke-linejoin:miter;stroke-width:0.8;"/>
   </g>
   <g id="text_17">
    <!-- Monthly gross load trend (MW) -->
    <defs>
     <path d="M 9.8125 72.90625 
L 24.515625 72.90625 
L 43.109375 23.296875 
L 61.8125 72.90625 
L 76.515625 72.90625 
L 76.515625 0 
L 66.890625 0 
L 66.890625 64.015625 
L 48.09375 14.015625 
L 38.1875 14.015625 
L 19.390625 64.015625 
L 19.390625 0 
L 9.8125 0 
z
" id="DejaVuSans-4d"/>
     <path d="M 30.609375 48.390625 
Q 23.390625 48.390625 19.1875 42.75 
Q 14.984375 37.109375 14.984375 27.296875 
Q 14.984375 17.484375 19.15625 11.84375 
Q 23.34375 6.203125 30.609375 6.203125 
Q 37.796875 6.203125 41.984375 11.859375 
Q 46.1875 17.53125 46.1875 27.296875 
Q 46.1875 37.015625 41.984375 42.703125 
Q 37.796875 48.390625 30.609375 48.390625 
z
M 30.609375 56 
Q 42.328125 56 49.015625 48.375 
Q 55.71875 40.765625 55.71875 27.296875 
Q 55.71875 13.875 49.015625 6.21875 
Q 42.328125 -1.421875 30.609375 -1.421875 
Q 18.84375 -1.421875 12.171875 6.21875 
Q 5.515625 13.875 5.515625 27.296875 
Q 5.515625 40.765625 12.171875 48.375 
Q 18.84375 56 30.609375 56 
z
" id="DejaVuSans-6f"/>
     <path d="M 54.890625 33.015625 
L 54.890625 0 
L 45.90625 0 
L 45.90625 32.71875 
Q 45.90625 40.484375 42.875 44.328125 
Q 39.84375 48.1875 33.796875 48.1875 
Q 26.515625 48.1875 22.3125 43.546875 
Q 18.109375 38.921875 18.109375 30.90625 
L 18.109375 0 
L 9.078125 0 
L 9.078125 54.6875 
L 18.109375 54.6875 
L 18.109375 46.1875 
Q 21.34375 51.125 25.703125 53.5625 
Q 30.078125 56 35.796875 56 
Q 45.21875 56 50.046875 50.171875 
Q 54.890625 44.34375 54.890625 33.015625 
z
" id="DejaVuSans-6e"/>
     <path d="M 54.890625 33.015625 
L 54.890625 0 
L 45.90625 0 
L 45.90625 32.71875 
Q 45.90625 40.484375 42.875 44.328125 
Q 39.84375 48.1875 33.796875 48.1875 
Q 26.515625 48.1875 22.3125 43.546875 
Q 18.109375 38.921875 18.109375 30.90625 
L 18.109375 0 
L 9.078125 0 
L 9.078125 75.984375 
L 18.109375 75.984375 
L 18.109375 46.1875 
Q 21.34375 51.125 25.703125 53.5625 
Q 30.078125 56 35.796875 56 
Q 45.21875 56 50.046875 50.171875 
Q 54.890625 44.34375 54.890625 33.015625 
z
" id="DejaVuSans-68"/>
     <path d="M 9.421875 75.984375 
L 18.40625 75.984375 
L 18.40625 0 
L 9.421875 0 
z
" id="DejaVuSans-6c"/>
     <path d="M 32.171875 -5.078125 
Q 28.375 -14.84375 24.75 -17.8125 
Q 21.140625 -20.796875 15.09375 -20.796875 
L 7.90625 -20.796875 
L 7.90625 -13.28125 
L 13.1875 -13.28125 
Q 16.890625 -13.28125 18.9375 -11.515625 
Q 21 -9.765625 23.484375 -3.21875 
L 25.09375 0.875 
L 2.984375 54.6875 
L 12.5 54.6875 
L 29.59375 11.921875 
L 46.6875 54.6875 
L 56.203125 54.6875 
z
" id="DejaVuSans-79"/>
     <path id="DejaVuSans-20"/>
     <path d="M 45.40625 27.984375 
Q 45.40625 37.75 41.375 43.109375 
Q 37.359375 48.484375 30.078125 48.484375 
Q 22.859375 48.484375 18.828125 43.109375 
Q 14.796875 37.75 14.796875 27.984375 
Q 14.796875 18.265625 18.828125 12.890625 
Q 22.859375 7.515625 30.078125 7.515625 
Q 37.359375 7.515625 41.375 12.890625 
Q 45.40625 18.265625 45.40625 27.984375 
z
M 54.390625 6.78125 
Q 54.390625 -7.171875 48.1875 -13.984375 
Q 42 -20.796875 29.203125 -20.796875 
Q 24.46875 -20.796875 20.265625 -20.09375 
Q 16.0625 -19.390625 12.109375 -17.921875 
L 12.109375 -9.1875 
Q 16.0625 -11.328125 19.921875 -12.34375 
Q 23.78125 -13.375 27.78125 -13.375 
Q 36.625 -13.375 41.015625 -8.765625 
Q 45.40625 -4.15625 45.40625 5.171875 
L 45.40625 9.625 
Q 42.625 4.78125 38.28125 2.390625 
Q 33.9375 0 27.875 0 
Q 17.828125 0 11.671875 7.65625 
Q 5.515625 15.328125 5.515625 27.984375 
Q 5.515625 40.671875 11.671875 48.328125 
Q 17.828125 56 27.875 56 
Q 33.9375 56 38.28125 53.609375 
Q 42.625 51.21875 45.40625 46.390625 
L 45.40625 54.6875 
L 54.390625 54.6875 
z
" id="DejaVuSans-67"/>
     <path d="M 41.109375 46.296875 
Q 39.59375 47.171875 37.8125 47.578125 
Q 36.03125 48 33.890625 48 
Q 26.265625 48 22.1875 43.046875 
Q 18.109375 38.09375 18.109375 28.8125 
L 18.109375 0 
L 9.078125 0 
L 9.078125 54.6875 
L 18.109375 54.6875 
L 18.109375 46.1875 
Q 20.953125 51.171875 25.484375 53.578125 
Q 30.03125 56 36.53125 56 
Q 37.453125 56 38.578125 55.875 
Q 39.703125 55.765625 41.0625 55.515625 
z
" id="DejaVuSans-72"/>
     <path d="M 44.28125 53.078125 
L 44.28125 44.578125 
Q 40.484375 46.53125 36.375 47.5 
Q 32.28125 48.484375 27.875 48.484375 
Q 21.1875 48.484375 17.84375 46.4375 
Q 14.5 44.390625 14.5 40.28125 
Q 14.5 37.15625 16.890625 35.375 
Q 19.28125 33.59375 26.515625 31.984375 
L 29.59375 31.296875 
Q 39.15625 29.25 43.1875 25.515625 
Q 47.21875 21.78125 47.21875 15.09375 
Q 47.21875 7.46875 41.1875 3.015625 
Q 35.15625 -1.421875 24.609375 -1.421875 
Q 20.21875 -1.421875 15.453125 -0.5625 
Q 10.6875 0.296875 5.421875 2 
L 5.421875 11.28125 
Q 10.40625 8.6875 15.234375 7.390625 
Q 20.0625 6.109375 24.8125 6.109375 
Q 31.15625 6.109375 34.5625 8.28125 
Q 37.984375 10.453125 37.984375 14.40625 
Q 37.984375 18.0625 35.515625 20.015625 
Q 33.0625 21.96875 24.703125 23.78125 
L 21.578125 24.515625 
Q 13.234375 26.265625 9.515625 29.90625 
Q 5.8125 33.546875 5.8125 39.890625 
Q 5.8125 47.609375 11.28125 51.796875 
Q 16.75 56 26.8125 56 
Q 31.78125 56 36.171875 55.265625 
Q 40.578125 54.546875 44.28125 53.078125 
z
" id="DejaVuSans-73"/>
     <path d="M 45.40625 46.390625 
L 45.40625 75.984375 
L 54.390625 75.984375 
L 54.390625 0 
L 45.40625 0 
L 45.40625 8.203125 
Q 42.578125 3.328125 38.25 0.953125 
Q 33.9375 -1.421875 27.875 -1.421875 
Q 17.96875 -1.421875 11.734375 6.484375 
Q 5.515625 14.40625 5.515625 27.296875 
Q 5.515625 40.1875 11.734375 48.09375 
Q 17.96875 56 27.875 56 
Q 33.9375 56 38.25 53.625 
Q 42.578125 51.265625 45.40625 46.390625 
z
M 14.796875 27.296875 
Q 14.796875 17.390625 18.875 11.75 
Q 22.953125 6.109375 30.078125 6.109375 
Q 37.203125 6.109375 41.296875 11.75 
Q 45.40625 17.390625 45.40625 27.296875 
Q 45.40625 37.203125 41.296875 42.84375 
Q 37.203125 48.484375 30.078125 48.484375 
Q 22.953125 48.484375 18.875 42.84375 
Q 14.796875 37.203125 14.796875 27.296875 
z
" id="DejaVuSans-64"/>
     <path d="M 31 75.875 
Q 24.46875 64.65625 21.28125 53.65625 
Q 18.109375 42.671875 18.109375 31.390625 
Q 18.109375 20.125 21.3125 9.0625 
Q 24.515625 -2 31 -13.1875 
L 23.1875 -13.1875 
Q 15.875 -1.703125 12.234375 9.375 
Q 8.59375 20.453125 8.59375 31.390625 
Q 8.59375 42.28125 12.203125 53.3125 
Q 15.828125 64.359375 23.1875 75.875 
z
" id="DejaVuSans-28"/>
     <path d="M 3.328125 72.90625 
L 13.28125 72.90625 
L 28.609375 11.28125 
L 43.890625 72.90625 
L 54.984375 72.90625 
L 70.3125 11.28125 
L 85.59375 72.90625 
L 95.609375 72.90625 
L 77.296875 0 
L 64.890625 0 
L 49.515625 63.28125 
L 33.984375 0 
L 21.578125 0 
z
" id="DejaVuSans-57"/>
     <path d="M 8.015625 75.875 
L 15.828125 75.875 
Q 23.140625 64.359375 26.78125 53.3125 
Q 30.421875 42.28125 30.421875 31.390625 
Q 30.421875 20.453125 26.78125 9.375 
Q 23.140625 -1.703125 15.828125 -13.1875 
L 8.015625 -13.1875 
Q 14.5 -2 17.703125 9.0625 
Q 20.90625 20.125 20.90625 31.390625 
Q 20.90625 42.671875 17.703125 53.65625 
Q 14.5 64.65625 8.015625 75.875 
z
" id="DejaVuSans-29"/>
    </defs>
    <g transform="translate(147.871704 17.36505)scale(0.12 -0.12)">
     <use xlink:href="#DejaVuSans-4d"/>
     <use x="86.279297" xlink:href="#DejaVuSans-6f"/>
     <use x="147.460938" xlink:href="#DejaVuSans-6e"/>
     <use x="210.839844" xlink:href="#DejaVuSans-74"/>
     <use x="250.048828" xlink:href="#DejaVuSans-68"/>
     <use x="313.427734" xlink:href="#DejaVuSans-6c"/>
     <use x="341.210938" xlink:href="#DejaVuSans-79"/>
     <use x="400.390625" xlink:href="#DejaVuSans-20"/>
     <use x="432.177734" xlink:href="#DejaVuSans-67"/>
     <use x="495.654297" xlink:href="#DejaVuSans-72"/>
     <use x="536.736328" xlink:href="#DejaVuSans-6f"/>
     <use x="597.917969" xlink:href="#DejaVuSans-73"/>
     <use x="650.017578" xlink:href="#DejaVuSans-73"/>
     <use x="702.117188" xlink:href="#DejaVuSans-20"/>
     <use x="733.904297" xlink:href="#DejaVuSans-6c"/>
     <use x="761.6875" xlink:href="#DejaVuSans-6f"/>
     <use x="822.869141" xlink:href="#DejaVuSans-61"/>
     <use x="884.148438" xlink:href="#DejaVuSans-64"/>
     <use x="947.625" xlink:href="#DejaVuSans-20"/>
     <use x="979.412109" xlink:href="#DejaVuSans-74"/>
     <use x="1018.621094" xlink:href="#DejaVuSans-72"/>
     <use x="1059.703125" xlink:href="#DejaVuSans-65"/>
     <use x="1121.226562" xlink:href="#DejaVuSans-6e"/>
     <use x="1184.605469" xlink:href="#DejaVuSans-64"/>
     <use x="1248.082031" xlink:href="#DejaVuSans-20"/>
     <use x="1279.869141" xlink:href="#DejaVuSans-28"/>
     <use x="1318.882812" xlink:href="#DejaVuSans-4d"/>
     <use x="1405.162109" xlink:href="#DejaVuSans-57"/>
     <use x="1504.039062" xlink:href="#DejaVuSans-29"/>
    </g>
   </g>
  </g>
 </g>
 <defs>
  <clipPath id="p80d7585cf3">
   <rect height="286.49845" width="408.661034" x="36.124" y="23.36505"/>
  </clipPath>
 </defs>
</svg>
