<?xml version="1.0" encoding="utf-8" standalone="no"?>
<!DOCTYPE svg PUBLIC "-//W3C//DTD SVG 1.1//EN"
  "http://www.w3.org/Graphics/SVG/1.1/DTD/svg11.dtd">
<!-- Created with matplotlib (http://matplotlib.org/) -->
<svg height="345.6pt" version="1.1" viewBox="0 0 460.8 345.6" width="460.8pt" xmlns="http://www.w3.org/2000/svg" xmlns:xlink="http://www.w3.org/1999/xlink">
 <defs>
  <style type="text/css">
*{stroke-linecap:butt;stroke-linejoin:round;}
  </style>
 </defs>
 <g id="figure_1">
  <g id="patch_1">
   <path d="M 0 345.6 
L 460.8 345.6 
L 460.8 0 
L 0 0 
z
" style="fill:none;"/>
  </g>
  <g id="axes_1">
   <g id="patch_2">
    <path d="M 36.124 309.8635 
L 446.82081 309.8635 
L 446.82081 23.36505 
L 36.124 23.36505 
z
" style="fill:none;"/>
   </g>
   <g id="PolyCollection_1">
    <path clip-path="url(#p40202022ce)" d="M 36.124 309.8635 
L 36.124 309.8635 
L 38.184463 309.8635 
L 40.17846 309.8635 
L 42.238923 280.943314 
L 44.299386 309.8635 
L 46.293382 309.8635 
L 48.353845 309.8635 
L 50.347842 309.8635 
L 52.408305 309.8635 
L 54.468768 309.8635 
L 56.329831 309.8635 
L 58.390294 237.940255 
L 60.384291 309.8635 
L 62.444754 309.8635 
L 64.43875 274.153357 
L 66.499213 278.177035 
L 68.559676 279.685915 
L 70.553673 309.8635 
L 72.614136 245.987611 
L 74.608132 309.8635 
L 76.668595 247.74797 
L 78.729058 309.8635 
L 80.590122 268.87228 
L 82.650585 309.8635 
L 84.644581 309.8635 
L 86.705044 309.8635 
L 88.699041 309.8635 
L 90.759504 249.508329 
L 92.819967 277.674076 
L 94.813963 250.765729 
L 96.874426 309.8635 
L 98.868423 279.182955 
L 100.928886 278.177035 
L 102.989349 309.8635 
L 104.916879 309.8635 
L 106.977342 309.8635 
L 108.971338 287.230311 
L 111.031801 279.182955 
L 113.025798 309.8635 
L 115.086261 279.937395 
L 117.146724 309.8635 
L 119.14072 278.428515 
L 121.201184 274.656317 
L 123.19518 259.064565 
L 125.255643 279.685915 
L 127.316106 309.8635 
L 129.177169 309.8635 
L 131.237633 309.8635 
L 133.231629 309.8635 
L 135.292092 309.8635 
L 137.286089 309.8635 
L 139.346552 309.8635 
L 141.407015 309.8635 
L 143.401011 217.318905 
L 145.461474 241.712453 
L 147.455471 309.8635 
L 149.515934 236.682856 
L 151.576397 309.8635 
L 153.43746 309.8635 
L 155.497923 309.8635 
L 157.49192 309.8635 
L 159.552383 309.8635 
L 161.546379 309.8635 
L 163.606842 309.8635 
L 165.667305 309.8635 
L 167.661302 281.697754 
L 169.721765 260.573444 
L 171.715761 309.8635 
L 173.776224 309.8635 
L 175.836687 309.8635 
L 177.697751 309.8635 
L 179.758214 309.8635 
L 181.75221 309.8635 
L 183.812673 309.8635 
L 185.80667 309.8635 
L 187.867133 309.8635 
L 189.927596 309.8635 
L 191.921592 257.304206 
L 193.982055 256.549766 
L 195.976052 252.023128 
L 198.036515 216.312986 
L 200.096978 309.8635 
L 202.024508 244.227252 
L 204.084971 309.8635 
L 206.078967 309.8635 
L 208.13943 309.8635 
L 210.133427 309.8635 
L 212.19389 309.8635 
L 214.254353 309.8635 
L 216.248349 309.8635 
L 218.308813 309.8635 
L 220.302809 309.8635 
L 222.363272 309.8635 
L 224.423735 254.789407 
L 226.284798 309.8635 
L 228.345262 309.8635 
L 230.339258 309.8635 
L 232.399721 309.8635 
L 234.393718 309.8635 
L 236.454181 309.8635 
L 238.514644 309.8635 
L 240.50864 309.8635 
L 242.569103 260.321964 
L 244.5631 309.8635 
L 246.623563 309.8635 
L 248.684026 309.8635 
L 250.545089 309.8635 
L 252.605552 309.8635 
L 254.599549 309.8635 
L 256.660012 309.8635 
L 258.654008 309.8635 
L 260.714471 309.8635 
L 262.774934 309.8635 
L 264.768931 309.8635 
L 266.829394 309.8635 
L 268.82339 309.8635 
L 270.883853 309.8635 
L 272.944316 309.8635 
L 274.80538 309.8635 
L 276.865843 309.8635 
L 278.859839 309.8635 
L 280.920302 309.8635 
L 282.914299 309.8635 
L 284.974762 309.8635 
L 287.035225 309.8635 
L 289.029221 309.8635 
L 291.089684 309.8635 
L 293.083681 309.8635 
L 295.144144 309.8635 
L 297.204607 309.8635 
L 299.132137 309.8635 
L 301.1926 309.8635 
L 303.186596 309.8635 
L 305.247059 309.8635 
L 307.241056 309.8635 
L 309.301519 309.8635 
L 311.361982 309.8635 
L 313.355978 309.8635 
L 315.416442 309.8635 
L 317.410438 309.8635 
L 319.470901 309.8635 
L 321.531364 309.8635 
L 323.392427 309.8635 
L 325.45289 309.8635 
L 327.446887 309.8635 
L 329.50735 309.8635 
L 331.501347 309.8635 
L 333.56181 309.8635 
L 335.622273 309.8635 
L 337.616269 309.8635 
L 339.676732 309.8635 
L 341.670729 309.8635 
L 343.731192 309.8635 
L 345.791655 309.8635 
L 347.652718 309.8635 
L 349.713181 309.8635 
L 351.707178 309.8635 
L 353.767641 309.8635 
L 355.761637 309.8635 
L 357.8221 309.8635 
L 359.882563 309.8635 
L 361.87656 309.8635 
L 363.937023 309.8635 
L 365.931019 309.8635 
L 367.991482 309.8635 
L 370.051945 309.8635 
L 371.913009 309.8635 
L 373.973472 309.8635 
L 375.967468 309.8635 
L 378.027931 309.8635 
L 380.021928 309.8635 
L 382.082391 309.8635 
L 384.142854 309.8635 
L 386.13685 309.8635 
L 388.197313 309.8635 
L 390.19131 309.8635 
L 392.251773 309.8635 
L 394.312236 309.8635 
L 396.239766 309.8635 
L 398.300229 309.8635 
L 400.294225 309.8635 
L 402.354688 309.8635 
L 404.348685 309.8635 
L 406.409148 309.8635 
L 408.469611 309.8635 
L 410.463607 309.8635 
L 412.52407 309.8635 
L 414.518067 309.8635 
L 416.57853 309.8635 
L 418.638993 309.8635 
L 420.500056 309.8635 
L 422.560519 309.8635 
L 424.554516 309.8635 
L 426.614979 309.8635 
L 428.608976 309.8635 
L 430.669439 309.8635 
L 432.729902 309.8635 
L 434.723898 309.8635 
L 436.784361 309.8635 
L 438.778358 309.8635 
L 440.838821 309.8635 
L 442.899284 309.8635 
L 444.760347 309.8635 
L 446.82081 309.8635 
L 446.82081 234.419537 
L 446.82081 234.419537 
L 444.760347 309.8635 
L 442.899284 309.8635 
L 440.838821 309.8635 
L 438.778358 309.8635 
L 436.784361 309.8635 
L 434.723898 309.8635 
L 432.729902 309.8635 
L 430.669439 309.8635 
L 428.608976 309.8635 
L 426.614979 309.8635 
L 424.554516 309.8635 
L 422.560519 309.8635 
L 420.500056 309.8635 
L 418.638993 309.8635 
L 416.57853 309.8635 
L 414.518067 309.8635 
L 412.52407 309.8635 
L 410.463607 309.8635 
L 408.469611 309.8635 
L 406.409148 309.8635 
L 404.348685 309.8635 
L 402.354688 309.8635 
L 400.294225 309.8635 
L 398.300229 309.8635 
L 396.239766 286.475871 
L 394.312236 309.8635 
L 392.251773 171.046608 
L 390.19131 167.02293 
L 388.197313 168.531809 
L 386.13685 170.040688 
L 384.142854 173.561407 
L 382.082391 173.561407 
L 380.021928 174.064366 
L 378.027931 167.52589 
L 375.967468 165.262571 
L 373.973472 203.236032 
L 371.913009 286.475871 
L 370.051945 309.8635 
L 367.991482 309.8635 
L 365.931019 309.8635 
L 363.937023 167.777369 
L 361.87656 168.783289 
L 359.882563 169.537729 
L 357.8221 170.292168 
L 355.761637 171.549568 
L 353.767641 171.549568 
L 351.707178 309.8635 
L 349.713181 167.777369 
L 347.652718 166.77145 
L 345.791655 164.256651 
L 343.731192 162.244812 
L 341.670729 286.475871 
L 339.676732 169.034769 
L 337.616269 170.795128 
L 335.622273 242.969853 
L 333.56181 175.070286 
L 331.501347 170.795128 
L 329.50735 257.807165 
L 327.446887 309.8635 
L 325.45289 309.8635 
L 323.392427 167.27441 
L 321.531364 296.786546 
L 319.470901 168.280329 
L 317.410438 171.549568 
L 315.416442 172.806967 
L 313.355978 172.806967 
L 311.361982 172.555487 
L 309.301519 173.561407 
L 307.241056 304.582423 
L 305.247059 309.8635 
L 303.186596 309.8635 
L 301.1926 309.8635 
L 299.132137 309.8635 
L 297.204607 309.8635 
L 295.144144 172.806967 
L 293.083681 170.543648 
L 291.089684 170.795128 
L 289.029221 172.555487 
L 287.035225 173.058447 
L 284.974762 174.064366 
L 282.914299 175.824725 
L 280.920302 309.8635 
L 278.859839 309.8635 
L 276.865843 237.688775 
L 274.80538 165.514051 
L 272.944316 165.76553 
L 270.883853 166.77145 
L 268.82339 166.77145 
L 266.829394 166.51997 
L 264.768931 170.795128 
L 262.774934 171.046608 
L 260.714471 171.549568 
L 258.654008 172.555487 
L 256.660012 172.806967 
L 254.599549 170.795128 
L 252.605552 173.309927 
L 250.545089 172.555487 
L 248.684026 171.298088 
L 246.623563 171.801047 
L 244.5631 170.543648 
L 242.569103 170.795128 
L 240.50864 172.555487 
L 238.514644 171.046608 
L 236.454181 172.304007 
L 234.393718 171.549568 
L 232.399721 167.777369 
L 230.339258 169.286249 
L 228.345262 199.715314 
L 226.284798 166.77145 
L 224.423735 167.27441 
L 222.363272 165.76553 
L 220.302809 169.286249 
L 218.308813 169.789208 
L 216.248349 170.795128 
L 214.254353 172.806967 
L 212.19389 173.309927 
L 210.133427 169.789208 
L 208.13943 169.286249 
L 206.078967 165.514051 
L 204.084971 165.76553 
L 202.024508 166.51997 
L 200.096978 164.508131 
L 198.036515 166.01701 
L 195.976052 165.76553 
L 193.982055 166.77145 
L 191.921592 168.028849 
L 189.927596 167.52589 
L 187.867133 168.280329 
L 185.80667 292.259909 
L 183.812673 168.783289 
L 181.75221 166.51997 
L 179.758214 169.789208 
L 177.697751 167.27441 
L 175.836687 165.76553 
L 173.776224 164.759611 
L 171.715761 166.01701 
L 169.721765 165.514051 
L 167.661302 169.537729 
L 165.667305 168.280329 
L 163.606842 172.555487 
L 161.546379 168.531809 
L 159.552383 168.280329 
L 157.49192 309.8635 
L 155.497923 133.073146 
L 153.43746 177.585085 
L 151.576397 45.055189 
L 149.515934 40.528552 
L 147.455471 37.007833 
L 145.461474 38.013753 
L 143.401011 37.762273 
L 141.407015 46.312589 
L 139.346552 51.593666 
L 137.286089 196.446075 
L 135.292092 224.360342 
L 133.231629 220.588144 
L 131.237633 220.336664 
L 129.177169 309.8635 
L 127.316106 220.336664 
L 125.255643 220.085184 
L 123.19518 220.085184 
L 121.201184 220.839624 
L 119.14072 219.833704 
L 117.146724 220.336664 
L 115.086261 221.342583 
L 113.025798 220.588144 
L 111.031801 222.348503 
L 108.971338 222.348503 
L 106.977342 221.594063 
L 104.916879 220.839624 
L 102.989349 221.342583 
L 100.928886 221.091103 
L 98.868423 212.792267 
L 96.874426 221.845543 
L 94.813963 223.102942 
L 92.819967 222.599983 
L 90.759504 222.097023 
L 88.699041 219.330744 
L 86.705044 228.13254 
L 84.644581 220.839624 
L 82.650585 221.342583 
L 80.590122 220.336664 
L 78.729058 221.342583 
L 76.668595 221.342583 
L 74.608132 219.833704 
L 72.614136 220.839624 
L 70.553673 214.804106 
L 68.559676 215.810026 
L 66.499213 216.061506 
L 64.43875 218.324825 
L 62.444754 218.324825 
L 60.384291 220.839624 
L 58.390294 217.570385 
L 56.329831 218.324825 
L 54.468768 217.570385 
L 52.408305 220.336664 
L 50.347842 219.079264 
L 48.353845 217.570385 
L 46.293382 219.079264 
L 44.299386 218.324825 
L 42.238923 215.558546 
L 40.17846 236.431376 
L 38.184463 309.8635 
L 36.124 309.8635 
z
" style="fill:#808080;fill-opacity:0.3;"/>
   </g>
   <g id="PolyCollection_2">
    <path clip-path="url(#p40202022ce)" d="M 36.124 309.8635 
L 36.124 309.8635 
L 38.184463 309.8635 
L 40.17846 309.8635 
L 42.238923 229.389939 
L 44.299386 309.8635 
L 46.293382 233.916577 
L 48.353845 276.605286 
L 50.347842 224.863302 
L 52.408305 309.8635 
L 54.468768 227.88106 
L 56.329831 222.851463 
L 58.390294 221.594063 
L 60.384291 269.62672 
L 62.444754 263.842682 
L 64.43875 245.484651 
L 66.499213 242.969853 
L 68.559676 245.987611 
L 70.553673 244.038642 
L 72.614136 238.946175 
L 74.608132 245.107432 
L 76.668595 238.506085 
L 78.729058 238.946175 
L 80.590122 236.179896 
L 82.650585 309.8635 
L 84.644581 243.975772 
L 86.705044 309.8635 
L 88.699041 309.8635 
L 90.759504 237.688775 
L 92.819967 243.221333 
L 94.813963 241.460973 
L 96.874426 274.656317 
L 98.868423 243.975772 
L 100.928886 243.472812 
L 102.989349 248.50241 
L 104.916879 309.8635 
L 106.977342 247.49649 
L 108.971338 271.135599 
L 111.031801 241.963933 
L 113.025798 273.398918 
L 115.086261 239.952094 
L 117.146724 237.437295 
L 119.14072 239.197655 
L 121.201184 235.488326 
L 123.19518 233.413617 
L 125.255643 236.431376 
L 127.316106 237.437295 
L 129.177169 309.8635 
L 131.237633 280.943314 
L 133.231629 309.8635 
L 135.292092 309.8635 
L 137.286089 309.8635 
L 139.346552 216.375856 
L 141.407015 183.620602 
L 143.401011 147.218889 
L 145.461474 171.423828 
L 147.455471 179.345444 
L 149.515934 179.156834 
L 151.576397 309.8635 
L 153.43746 309.8635 
L 155.497923 309.8635 
L 157.49192 309.8635 
L 159.552383 309.8635 
L 161.546379 309.8635 
L 163.606842 233.790837 
L 165.667305 244.478732 
L 167.661302 244.478732 
L 169.721765 242.969853 
L 171.715761 249.508329 
L 173.776224 246.742051 
L 175.836687 241.523843 
L 177.697751 241.523843 
L 179.758214 309.8635 
L 181.75221 309.8635 
L 183.812673 309.8635 
L 185.80667 309.8635 
L 187.867133 244.290122 
L 189.927596 216.438726 
L 191.921592 243.724292 
L 193.982055 184.249301 
L 195.976052 179.659794 
L 198.036515 177.082125 
L 200.096978 186.07253 
L 202.024508 182.614682 
L 204.084971 309.8635 
L 206.078967 241.963933 
L 208.13943 309.8635 
L 210.133427 309.8635 
L 212.19389 286.538741 
L 214.254353 199.149484 
L 216.248349 243.032723 
L 218.308813 245.547521 
L 220.302809 242.969853 
L 222.363272 244.478732 
L 224.423735 238.003125 
L 226.284798 244.101512 
L 228.345262 309.8635 
L 230.339258 309.8635 
L 232.399721 309.8635 
L 234.393718 309.8635 
L 236.454181 224.611822 
L 238.514644 309.8635 
L 240.50864 309.8635 
L 242.569103 193.931277 
L 244.5631 241.712453 
L 246.623563 216.878815 
L 248.684026 239.260525 
L 250.545089 210.340339 
L 252.605552 309.8635 
L 254.599549 309.8635 
L 256.660012 309.8635 
L 258.654008 309.8635 
L 260.714471 309.8635 
L 262.774934 258.813085 
L 264.768931 309.8635 
L 266.829394 241.963933 
L 268.82339 309.8635 
L 270.883853 309.8635 
L 272.944316 309.8635 
L 274.80538 309.8635 
L 276.865843 309.8635 
L 278.859839 309.8635 
L 280.920302 309.8635 
L 282.914299 309.8635 
L 284.974762 309.8635 
L 287.035225 309.8635 
L 289.029221 309.8635 
L 291.089684 309.8635 
L 293.083681 309.8635 
L 295.144144 309.8635 
L 297.204607 309.8635 
L 299.132137 309.8635 
L 301.1926 309.8635 
L 303.186596 309.8635 
L 305.247059 309.8635 
L 307.241056 309.8635 
L 309.301519 309.8635 
L 311.361982 243.975772 
L 313.355978 217.884735 
L 315.416442 223.605902 
L 317.410438 309.8635 
L 319.470901 309.8635 
L 321.531364 309.8635 
L 323.392427 309.8635 
L 325.45289 309.8635 
L 327.446887 309.8635 
L 329.50735 309.8635 
L 331.501347 309.8635 
L 333.56181 309.8635 
L 335.622273 309.8635 
L 337.616269 309.8635 
L 339.676732 309.8635 
L 341.670729 309.8635 
L 343.731192 243.095593 
L 345.791655 281.006184 
L 347.652718 213.295227 
L 349.713181 309.8635 
L 351.707178 309.8635 
L 353.767641 309.8635 
L 355.761637 309.8635 
L 357.8221 309.8635 
L 359.882563 309.8635 
L 361.87656 309.8635 
L 363.937023 309.8635 
L 365.931019 309.8635 
L 367.991482 309.8635 
L 370.051945 309.8635 
L 371.913009 309.8635 
L 373.973472 309.8635 
L 375.967468 309.8635 
L 378.027931 234.419537 
L 380.021928 309.8635 
L 382.082391 309.8635 
L 384.142854 309.8635 
L 386.13685 309.8635 
L 388.197313 309.8635 
L 390.19131 309.8635 
L 392.251773 309.8635 
L 394.312236 309.8635 
L 396.239766 309.8635 
L 398.300229 309.8635 
L 400.294225 309.8635 
L 402.354688 309.8635 
L 404.348685 309.8635 
L 406.409148 309.8635 
L 408.469611 309.8635 
L 410.463607 309.8635 
L 412.52407 309.8635 
L 414.518067 309.8635 
L 416.57853 309.8635 
L 418.638993 309.8635 
L 420.500056 309.8635 
L 422.560519 309.8635 
L 424.554516 309.8635 
L 426.614979 309.8635 
L 428.608976 309.8635 
L 430.669439 309.8635 
L 432.729902 309.8635 
L 434.723898 309.8635 
L 436.784361 309.8635 
L 438.778358 309.8635 
L 440.838821 309.8635 
L 442.899284 309.8635 
L 444.760347 309.8635 
L 446.82081 309.8635 
L 446.82081 309.8635 
L 446.82081 309.8635 
L 444.760347 309.8635 
L 442.899284 309.8635 
L 440.838821 309.8635 
L 438.778358 309.8635 
L 436.784361 309.8635 
L 434.723898 309.8635 
L 432.729902 309.8635 
L 430.669439 309.8635 
L 428.608976 309.8635 
L 426.614979 309.8635 
L 424.554516 309.8635 
L 422.560519 309.8635 
L 420.500056 309.8635 
L 418.638993 309.8635 
L 416.57853 309.8635 
L 414.518067 309.8635 
L 412.52407 309.8635 
L 410.463607 309.8635 
L 408.469611 309.8635 
L 406.409148 309.8635 
L 404.348685 309.8635 
L 402.354688 309.8635 
L 400.294225 309.8635 
L 398.300229 309.8635 
L 396.239766 309.8635 
L 394.312236 309.8635 
L 392.251773 309.8635 
L 390.19131 244.855952 
L 388.197313 184.815131 
L 386.13685 228.82411 
L 384.142854 250.702859 
L 382.082391 214.804106 
L 380.021928 249.759809 
L 378.027931 176.076205 
L 375.967468 207.6998 
L 373.973472 252.023128 
L 371.913009 309.8635 
L 370.051945 309.8635 
L 367.991482 309.8635 
L 365.931019 309.8635 
L 363.937023 260.762054 
L 361.87656 215.810026 
L 359.882563 223.480162 
L 357.8221 215.307066 
L 355.761637 215.998636 
L 353.767641 286.727351 
L 351.707178 309.8635 
L 349.713181 197.326255 
L 347.652718 169.789208 
L 345.791655 169.789208 
L 343.731192 202.230113 
L 341.670729 309.8635 
L 339.676732 195.188676 
L 337.616269 180.854323 
L 335.622273 309.8635 
L 333.56181 214.049667 
L 331.501347 177.773695 
L 329.50735 309.8635 
L 327.446887 309.8635 
L 325.45289 309.8635 
L 323.392427 217.570385 
L 321.531364 309.8635 
L 319.470901 219.582224 
L 317.410438 206.002311 
L 315.416442 175.573246 
L 313.355978 177.585085 
L 311.361982 182.614682 
L 309.301519 184.878001 
L 307.241056 309.8635 
L 305.247059 309.8635 
L 303.186596 309.8635 
L 301.1926 309.8635 
L 299.132137 309.8635 
L 297.204607 309.8635 
L 295.144144 190.221948 
L 293.083681 232.030478 
L 291.089684 259.190305 
L 289.029221 183.620602 
L 287.035225 188.335849 
L 284.974762 222.411373 
L 282.914299 309.8635 
L 280.920302 309.8635 
L 278.859839 309.8635 
L 276.865843 309.8635 
L 274.80538 200.972713 
L 272.944316 251.205819 
L 270.883853 259.567525 
L 268.82339 179.596924 
L 266.829394 172.806967 
L 264.768931 238.380345 
L 262.774934 177.836565 
L 260.714471 185.632441 
L 258.654008 309.8635 
L 256.660012 309.8635 
L 254.599549 238.631825 
L 252.605552 237.625905 
L 250.545089 174.818806 
L 248.684026 174.315846 
L 246.623563 173.812886 
L 244.5631 175.070286 
L 242.569103 174.567326 
L 240.50864 240.455054 
L 238.514644 175.573246 
L 236.454181 178.088044 
L 234.393718 209.774509 
L 232.399721 180.602843 
L 230.339258 262.711023 
L 228.345262 309.8635 
L 226.284798 180.854323 
L 224.423735 176.327685 
L 222.363272 174.315846 
L 220.302809 183.117642 
L 218.308813 183.872082 
L 216.248349 183.369122 
L 214.254353 179.345444 
L 212.19389 179.093964 
L 210.133427 235.362586 
L 208.13943 185.632441 
L 206.078967 170.795128 
L 204.084971 176.076205 
L 202.024508 170.480778 
L 200.096978 169.286249 
L 198.036515 169.537729 
L 195.976052 169.537729 
L 193.982055 170.292168 
L 191.921592 175.573246 
L 189.927596 173.812886 
L 187.867133 175.070286 
L 185.80667 309.8635 
L 183.812673 309.8635 
L 181.75221 178.528134 
L 179.758214 309.8635 
L 177.697751 171.046608 
L 175.836687 172.744097 
L 173.776224 171.738177 
L 171.715761 171.549568 
L 169.721765 172.492617 
L 167.661302 175.573246 
L 165.667305 175.321766 
L 163.606842 177.585085 
L 161.546379 183.243382 
L 159.552383 201.852893 
L 157.49192 309.8635 
L 155.497923 309.8635 
L 153.43746 187.3928 
L 151.576397 197.892085 
L 149.515934 53.794115 
L 147.455471 41.785951 
L 145.461474 50.084787 
L 143.401011 52.851066 
L 141.407015 59.829632 
L 139.346552 65.362189 
L 137.286089 250.514249 
L 135.292092 284.464032 
L 133.231629 266.608961 
L 131.237633 225.806351 
L 129.177169 309.8635 
L 127.316106 221.091103 
L 125.255643 224.297472 
L 123.19518 223.605902 
L 121.201184 225.617741 
L 119.14072 225.366261 
L 117.146724 225.869221 
L 115.086261 227.62958 
L 113.025798 230.395859 
L 111.031801 229.892899 
L 108.971338 230.898819 
L 106.977342 233.413617 
L 104.916879 309.8635 
L 102.989349 232.156218 
L 100.928886 232.659178 
L 98.868423 229.641419 
L 96.874426 243.221333 
L 94.813963 231.653258 
L 92.819967 231.401778 
L 90.759504 228.38402 
L 88.699041 234.419537 
L 86.705044 271.827169 
L 84.644581 230.898819 
L 82.650585 230.144379 
L 80.590122 225.366261 
L 78.729058 228.38402 
L 76.668595 230.395859 
L 74.608132 231.401778 
L 72.614136 232.407698 
L 70.553673 226.623661 
L 68.559676 225.366261 
L 66.499213 225.114781 
L 64.43875 229.389939 
L 62.444754 222.599983 
L 60.384291 262.333803 
L 58.390294 220.336664 
L 56.329831 220.588144 
L 54.468768 220.085184 
L 52.408305 303.827983 
L 50.347842 220.839624 
L 48.353845 221.845543 
L 46.293382 222.097023 
L 44.299386 223.354422 
L 42.238923 222.097023 
L 40.17846 309.8635 
L 38.184463 309.8635 
L 36.124 309.8635 
z
" style="fill:#808080;fill-opacity:0.6;"/>
   </g>
   <g id="matplotlib.axis_1">
    <g id="xtick_1">
     <g id="line2d_1">
      <path clip-path="url(#p40202022ce)" d="M 52.474771 309.8635 
L 52.474771 23.36505 
" style="fill:none;stroke:#b0b0b0;stroke-linecap:square;stroke-width:0.8;"/>
     </g>
     <g id="line2d_2">
      <defs>
       <path d="M 0 0 
L 0 3.5 
" id="m1dce978fbf" style="stroke:#000000;stroke-width:0.8;"/>
      </defs>
      <g>
       <use style="stroke:#000000;stroke-width:0.8;" x="52.474771" xlink:href="#m1dce978fbf" y="309.8635"/>
      </g>
     </g>
     <g id="text_1">
      <!-- 2002 -->
      <defs>
       <path d="M 19.1875 8.296875 
L 53.609375 8.296875 
L 53.609375 0 
L 7.328125 0 
L 7.328125 8.296875 
Q 12.9375 14.109375 22.625 23.890625 
Q 32.328125 33.6875 34.8125 36.53125 
Q 39.546875 41.84375 41.421875 45.53125 
Q 43.3125 49.21875 43.3125 52.78125 
Q 43.3125 58.59375 39.234375 62.25 
Q 35.15625 65.921875 28.609375 65.921875 
Q 23.96875 65.921875 18.8125 64.3125 
Q 13.671875 62.703125 7.8125 59.421875 
L 7.8125 69.390625 
Q 13.765625 71.78125 18.9375 73 
Q 24.125 74.21875 28.421875 74.21875 
Q 39.75 74.21875 46.484375 68.546875 
Q 53.21875 62.890625 53.21875 53.421875 
Q 53.21875 48.921875 51.53125 44.890625 
Q 49.859375 40.875 45.40625 35.40625 
Q 44.1875 33.984375 37.640625 27.21875 
Q 31.109375 20.453125 19.1875 8.296875 
z
" id="DejaVuSans-32"/>
       <path d="M 31.78125 66.40625 
Q 24.171875 66.40625 20.328125 58.90625 
Q 16.5 51.421875 16.5 36.375 
Q 16.5 21.390625 20.328125 13.890625 
Q 24.171875 6.390625 31.78125 6.390625 
Q 39.453125 6.390625 43.28125 13.890625 
Q 47.125 21.390625 47.125 36.375 
Q 47.125 51.421875 43.28125 58.90625 
Q 39.453125 66.40625 31.78125 66.40625 
z
M 31.78125 74.21875 
Q 44.046875 74.21875 50.515625 64.515625 
Q 56.984375 54.828125 56.984375 36.375 
Q 56.984375 17.96875 50.515625 8.265625 
Q 44.046875 -1.421875 31.78125 -1.421875 
Q 19.53125 -1.421875 13.0625 8.265625 
Q 6.59375 17.96875 6.59375 36.375 
Q 6.59375 54.828125 13.0625 64.515625 
Q 19.53125 74.21875 31.78125 74.21875 
z
" id="DejaVuSans-30"/>
      </defs>
      <g transform="translate(39.749771 324.461937)scale(0.1 -0.1)">
       <use xlink:href="#DejaVuSans-32"/>
       <use x="63.623047" xlink:href="#DejaVuSans-30"/>
       <use x="127.246094" xlink:href="#DejaVuSans-30"/>
       <use x="190.869141" xlink:href="#DejaVuSans-32"/>
      </g>
     </g>
    </g>
    <g id="xtick_2">
     <g id="line2d_3">
      <path clip-path="url(#p40202022ce)" d="M 100.995352 309.8635 
L 100.995352 23.36505 
" style="fill:none;stroke:#b0b0b0;stroke-linecap:square;stroke-width:0.8;"/>
     </g>
     <g id="line2d_4">
      <g>
       <use style="stroke:#000000;stroke-width:0.8;" x="100.995352" xlink:href="#m1dce978fbf" y="309.8635"/>
      </g>
     </g>
     <g id="text_2">
      <!-- 2004 -->
      <defs>
       <path d="M 37.796875 64.3125 
L 12.890625 25.390625 
L 37.796875 25.390625 
z
M 35.203125 72.90625 
L 47.609375 72.90625 
L 47.609375 25.390625 
L 58.015625 25.390625 
L 58.015625 17.1875 
L 47.609375 17.1875 
L 47.609375 0 
L 37.796875 0 
L 37.796875 17.1875 
L 4.890625 17.1875 
L 4.890625 26.703125 
z
" id="DejaVuSans-34"/>
      </defs>
      <g transform="translate(88.270352 324.461937)scale(0.1 -0.1)">
       <use xlink:href="#DejaVuSans-32"/>
       <use x="63.623047" xlink:href="#DejaVuSans-30"/>
       <use x="127.246094" xlink:href="#DejaVuSans-30"/>
       <use x="190.869141" xlink:href="#DejaVuSans-34"/>
      </g>
     </g>
    </g>
    <g id="xtick_3">
     <g id="line2d_5">
      <path clip-path="url(#p40202022ce)" d="M 149.5824 309.8635 
L 149.5824 23.36505 
" style="fill:none;stroke:#b0b0b0;stroke-linecap:square;stroke-width:0.8;"/>
     </g>
     <g id="line2d_6">
      <g>
       <use style="stroke:#000000;stroke-width:0.8;" x="149.5824" xlink:href="#m1dce978fbf" y="309.8635"/>
      </g>
     </g>
     <g id="text_3">
      <!-- 2006 -->
      <defs>
       <path d="M 33.015625 40.375 
Q 26.375 40.375 22.484375 35.828125 
Q 18.609375 31.296875 18.609375 23.390625 
Q 18.609375 15.53125 22.484375 10.953125 
Q 26.375 6.390625 33.015625 6.390625 
Q 39.65625 6.390625 43.53125 10.953125 
Q 47.40625 15.53125 47.40625 23.390625 
Q 47.40625 31.296875 43.53125 35.828125 
Q 39.65625 40.375 33.015625 40.375 
z
M 52.59375 71.296875 
L 52.59375 62.3125 
Q 48.875 64.0625 45.09375 64.984375 
Q 41.3125 65.921875 37.59375 65.921875 
Q 27.828125 65.921875 22.671875 59.328125 
Q 17.53125 52.734375 16.796875 39.40625 
Q 19.671875 43.65625 24.015625 45.921875 
Q 28.375 48.1875 33.59375 48.1875 
Q 44.578125 48.1875 50.953125 41.515625 
Q 57.328125 34.859375 57.328125 23.390625 
Q 57.328125 12.15625 50.6875 5.359375 
Q 44.046875 -1.421875 33.015625 -1.421875 
Q 20.359375 -1.421875 13.671875 8.265625 
Q 6.984375 17.96875 6.984375 36.375 
Q 6.984375 53.65625 15.1875 63.9375 
Q 23.390625 74.21875 37.203125 74.21875 
Q 40.921875 74.21875 44.703125 73.484375 
Q 48.484375 72.75 52.59375 71.296875 
z
" id="DejaVuSans-36"/>
      </defs>
      <g transform="translate(136.8574 324.461937)scale(0.1 -0.1)">
       <use xlink:href="#DejaVuSans-32"/>
       <use x="63.623047" xlink:href="#DejaVuSans-30"/>
       <use x="127.246094" xlink:href="#DejaVuSans-30"/>
       <use x="190.869141" xlink:href="#DejaVuSans-36"/>
      </g>
     </g>
    </g>
    <g id="xtick_4">
     <g id="line2d_7">
      <path clip-path="url(#p40202022ce)" d="M 198.102981 309.8635 
L 198.102981 23.36505 
" style="fill:none;stroke:#b0b0b0;stroke-linecap:square;stroke-width:0.8;"/>
     </g>
     <g id="line2d_8">
      <g>
       <use style="stroke:#000000;stroke-width:0.8;" x="198.102981" xlink:href="#m1dce978fbf" y="309.8635"/>
      </g>
     </g>
     <g id="text_4">
      <!-- 2008 -->
      <defs>
       <path d="M 31.78125 34.625 
Q 24.75 34.625 20.71875 30.859375 
Q 16.703125 27.09375 16.703125 20.515625 
Q 16.703125 13.921875 20.71875 10.15625 
Q 24.75 6.390625 31.78125 6.390625 
Q 38.8125 6.390625 42.859375 10.171875 
Q 46.921875 13.96875 46.921875 20.515625 
Q 46.921875 27.09375 42.890625 30.859375 
Q 38.875 34.625 31.78125 34.625 
z
M 21.921875 38.8125 
Q 15.578125 40.375 12.03125 44.71875 
Q 8.5 49.078125 8.5 55.328125 
Q 8.5 64.0625 14.71875 69.140625 
Q 20.953125 74.21875 31.78125 74.21875 
Q 42.671875 74.21875 48.875 69.140625 
Q 55.078125 64.0625 55.078125 55.328125 
Q 55.078125 49.078125 51.53125 44.71875 
Q 48 40.375 41.703125 38.8125 
Q 48.828125 37.15625 52.796875 32.3125 
Q 56.78125 27.484375 56.78125 20.515625 
Q 56.78125 9.90625 50.3125 4.234375 
Q 43.84375 -1.421875 31.78125 -1.421875 
Q 19.734375 -1.421875 13.25 4.234375 
Q 6.78125 9.90625 6.78125 20.515625 
Q 6.78125 27.484375 10.78125 32.3125 
Q 14.796875 37.15625 21.921875 38.8125 
z
M 18.3125 54.390625 
Q 18.3125 48.734375 21.84375 45.5625 
Q 25.390625 42.390625 31.78125 42.390625 
Q 38.140625 42.390625 41.71875 45.5625 
Q 45.3125 48.734375 45.3125 54.390625 
Q 45.3125 60.0625 41.71875 63.234375 
Q 38.140625 66.40625 31.78125 66.40625 
Q 25.390625 66.40625 21.84375 63.234375 
Q 18.3125 60.0625 18.3125 54.390625 
z
" id="DejaVuSans-38"/>
      </defs>
      <g transform="translate(185.377981 324.461937)scale(0.1 -0.1)">
       <use xlink:href="#DejaVuSans-32"/>
       <use x="63.623047" xlink:href="#DejaVuSans-30"/>
       <use x="127.246094" xlink:href="#DejaVuSans-30"/>
       <use x="190.869141" xlink:href="#DejaVuSans-38"/>
      </g>
     </g>
    </g>
    <g id="xtick_5">
     <g id="line2d_9">
      <path clip-path="url(#p40202022ce)" d="M 246.690029 309.8635 
L 246.690029 23.36505 
" style="fill:none;stroke:#b0b0b0;stroke-linecap:square;stroke-width:0.8;"/>
     </g>
     <g id="line2d_10">
      <g>
       <use style="stroke:#000000;stroke-width:0.8;" x="246.690029" xlink:href="#m1dce978fbf" y="309.8635"/>
      </g>
     </g>
     <g id="text_5">
      <!-- 2010 -->
      <defs>
       <path d="M 12.40625 8.296875 
L 28.515625 8.296875 
L 28.515625 63.921875 
L 10.984375 60.40625 
L 10.984375 69.390625 
L 28.421875 72.90625 
L 38.28125 72.90625 
L 38.28125 8.296875 
L 54.390625 8.296875 
L 54.390625 0 
L 12.40625 0 
z
" id="DejaVuSans-31"/>
      </defs>
      <g transform="translate(233.965029 324.461937)scale(0.1 -0.1)">
       <use xlink:href="#DejaVuSans-32"/>
       <use x="63.623047" xlink:href="#DejaVuSans-30"/>
       <use x="127.246094" xlink:href="#DejaVuSans-31"/>
       <use x="190.869141" xlink:href="#DejaVuSans-30"/>
      </g>
     </g>
    </g>
    <g id="xtick_6">
     <g id="line2d_11">
      <path clip-path="url(#p40202022ce)" d="M 295.21061 309.8635 
L 295.21061 23.36505 
" style="fill:none;stroke:#b0b0b0;stroke-linecap:square;stroke-width:0.8;"/>
     </g>
     <g id="line2d_12">
      <g>
       <use style="stroke:#000000;stroke-width:0.8;" x="295.21061" xlink:href="#m1dce978fbf" y="309.8635"/>
      </g>
     </g>
     <g id="text_6">
      <!-- 2012 -->
      <g transform="translate(282.48561 324.461937)scale(0.1 -0.1)">
       <use xlink:href="#DejaVuSans-32"/>
       <use x="63.623047" xlink:href="#DejaVuSans-30"/>
       <use x="127.246094" xlink:href="#DejaVuSans-31"/>
       <use x="190.869141" xlink:href="#DejaVuSans-32"/>
      </g>
     </g>
    </g>
    <g id="xtick_7">
     <g id="line2d_13">
      <path clip-path="url(#p40202022ce)" d="M 343.797658 309.8635 
L 343.797658 23.36505 
" style="fill:none;stroke:#b0b0b0;stroke-linecap:square;stroke-width:0.8;"/>
     </g>
     <g id="line2d_14">
      <g>
       <use style="stroke:#000000;stroke-width:0.8;" x="343.797658" xlink:href="#m1dce978fbf" y="309.8635"/>
      </g>
     </g>
     <g id="text_7">
      <!-- 2014 -->
      <g transform="translate(331.072658 324.461937)scale(0.1 -0.1)">
       <use xlink:href="#DejaVuSans-32"/>
       <use x="63.623047" xlink:href="#DejaVuSans-30"/>
       <use x="127.246094" xlink:href="#DejaVuSans-31"/>
       <use x="190.869141" xlink:href="#DejaVuSans-34"/>
      </g>
     </g>
    </g>
    <g id="xtick_8">
     <g id="line2d_15">
      <path clip-path="url(#p40202022ce)" d="M 392.318239 309.8635 
L 392.318239 23.36505 
" style="fill:none;stroke:#b0b0b0;stroke-linecap:square;stroke-width:0.8;"/>
     </g>
     <g id="line2d_16">
      <g>
       <use style="stroke:#000000;stroke-width:0.8;" x="392.318239" xlink:href="#m1dce978fbf" y="309.8635"/>
      </g>
     </g>
     <g id="text_8">
      <!-- 2016 -->
      <g transform="translate(379.593239 324.461937)scale(0.1 -0.1)">
       <use xlink:href="#DejaVuSans-32"/>
       <use x="63.623047" xlink:href="#DejaVuSans-30"/>
       <use x="127.246094" xlink:href="#DejaVuSans-31"/>
       <use x="190.869141" xlink:href="#DejaVuSans-36"/>
      </g>
     </g>
    </g>
    <g id="xtick_9">
     <g id="line2d_17">
      <path clip-path="url(#p40202022ce)" d="M 440.905287 309.8635 
L 440.905287 23.36505 
" style="fill:none;stroke:#b0b0b0;stroke-linecap:square;stroke-width:0.8;"/>
     </g>
     <g id="line2d_18">
      <g>
       <use style="stroke:#000000;stroke-width:0.8;" x="440.905287" xlink:href="#m1dce978fbf" y="309.8635"/>
      </g>
     </g>
     <g id="text_9">
      <!-- 2018 -->
      <g transform="translate(428.180287 324.461937)scale(0.1 -0.1)">
       <use xlink:href="#DejaVuSans-32"/>
       <use x="63.623047" xlink:href="#DejaVuSans-30"/>
       <use x="127.246094" xlink:href="#DejaVuSans-31"/>
       <use x="190.869141" xlink:href="#DejaVuSans-38"/>
      </g>
     </g>
    </g>
    <g id="text_10">
     <!-- Date -->
     <defs>
      <path d="M 19.671875 64.796875 
L 19.671875 8.109375 
L 31.59375 8.109375 
Q 46.6875 8.109375 53.6875 14.9375 
Q 60.6875 21.78125 60.6875 36.53125 
Q 60.6875 51.171875 53.6875 57.984375 
Q 46.6875 64.796875 31.59375 64.796875 
z
M 9.8125 72.90625 
L 30.078125 72.90625 
Q 51.265625 72.90625 61.171875 64.09375 
Q 71.09375 55.28125 71.09375 36.53125 
Q 71.09375 17.671875 61.125 8.828125 
Q 51.171875 0 30.078125 0 
L 9.8125 0 
z
" id="DejaVuSans-44"/>
      <path d="M 34.28125 27.484375 
Q 23.390625 27.484375 19.1875 25 
Q 14.984375 22.515625 14.984375 16.5 
Q 14.984375 11.71875 18.140625 8.90625 
Q 21.296875 6.109375 26.703125 6.109375 
Q 34.1875 6.109375 38.703125 11.40625 
Q 43.21875 16.703125 43.21875 25.484375 
L 43.21875 27.484375 
z
M 52.203125 31.203125 
L 52.203125 0 
L 43.21875 0 
L 43.21875 8.296875 
Q 40.140625 3.328125 35.546875 0.953125 
Q 30.953125 -1.421875 24.3125 -1.421875 
Q 15.921875 -1.421875 10.953125 3.296875 
Q 6 8.015625 6 15.921875 
Q 6 25.140625 12.171875 29.828125 
Q 18.359375 34.515625 30.609375 34.515625 
L 43.21875 34.515625 
L 43.21875 35.40625 
Q 43.21875 41.609375 39.140625 45 
Q 35.0625 48.390625 27.6875 48.390625 
Q 23 48.390625 18.546875 47.265625 
Q 14.109375 46.140625 10.015625 43.890625 
L 10.015625 52.203125 
Q 14.9375 54.109375 19.578125 55.046875 
Q 24.21875 56 28.609375 56 
Q 40.484375 56 46.34375 49.84375 
Q 52.203125 43.703125 52.203125 31.203125 
z
" id="DejaVuSans-61"/>
      <path d="M 18.3125 70.21875 
L 18.3125 54.6875 
L 36.8125 54.6875 
L 36.8125 47.703125 
L 18.3125 47.703125 
L 18.3125 18.015625 
Q 18.3125 11.328125 20.140625 9.421875 
Q 21.96875 7.515625 27.59375 7.515625 
L 36.8125 7.515625 
L 36.8125 0 
L 27.59375 0 
Q 17.1875 0 13.234375 3.875 
Q 9.28125 7.765625 9.28125 18.015625 
L 9.28125 47.703125 
L 2.6875 47.703125 
L 2.6875 54.6875 
L 9.28125 54.6875 
L 9.28125 70.21875 
z
" id="DejaVuSans-74"/>
      <path d="M 56.203125 29.59375 
L 56.203125 25.203125 
L 14.890625 25.203125 
Q 15.484375 15.921875 20.484375 11.0625 
Q 25.484375 6.203125 34.421875 6.203125 
Q 39.59375 6.203125 44.453125 7.46875 
Q 49.3125 8.734375 54.109375 11.28125 
L 54.109375 2.78125 
Q 49.265625 0.734375 44.1875 -0.34375 
Q 39.109375 -1.421875 33.890625 -1.421875 
Q 20.796875 -1.421875 13.15625 6.1875 
Q 5.515625 13.8125 5.515625 26.8125 
Q 5.515625 40.234375 12.765625 48.109375 
Q 20.015625 56 32.328125 56 
Q 43.359375 56 49.78125 48.890625 
Q 56.203125 41.796875 56.203125 29.59375 
z
M 47.21875 32.234375 
Q 47.125 39.59375 43.09375 43.984375 
Q 39.0625 48.390625 32.421875 48.390625 
Q 24.90625 48.390625 20.390625 44.140625 
Q 15.875 39.890625 15.1875 32.171875 
z
" id="DejaVuSans-65"/>
     </defs>
     <g transform="translate(229.521624 338.140062)scale(0.1 -0.1)">
      <use xlink:href="#DejaVuSans-44"/>
      <use x="77.001953" xlink:href="#DejaVuSans-61"/>
      <use x="138.28125" xlink:href="#DejaVuSans-74"/>
      <use x="177.490234" xlink:href="#DejaVuSans-65"/>
     </g>
    </g>
   </g>
   <g id="matplotlib.axis_2">
    <g id="ytick_1">
     <g id="line2d_19">
      <path clip-path="url(#p40202022ce)" d="M 36.124 309.8635 
L 446.82081 309.8635 
" style="fill:none;stroke:#b0b0b0;stroke-linecap:square;stroke-width:0.8;"/>
     </g>
     <g id="line2d_20">
      <defs>
       <path d="M 0 0 
L -3.5 0 
" id="m0cba64693a" style="stroke:#000000;stroke-width:0.8;"/>
      </defs>
      <g>
       <use style="stroke:#000000;stroke-width:0.8;" x="36.124" xlink:href="#m0cba64693a" y="309.8635"/>
      </g>
     </g>
     <g id="text_11">
      <!-- 0 -->
      <g transform="translate(22.7615 313.662719)scale(0.1 -0.1)">
       <use xlink:href="#DejaVuSans-30"/>
      </g>
     </g>
    </g>
    <g id="ytick_2">
     <g id="line2d_21">
      <path clip-path="url(#p40202022ce)" d="M 36.124 259.567525 
L 446.82081 259.567525 
" style="fill:none;stroke:#b0b0b0;stroke-linecap:square;stroke-width:0.8;"/>
     </g>
     <g id="line2d_22">
      <g>
       <use style="stroke:#000000;stroke-width:0.8;" x="36.124" xlink:href="#m0cba64693a" y="259.567525"/>
      </g>
     </g>
     <g id="text_12">
      <!-- 200 -->
      <g transform="translate(10.0365 263.366743)scale(0.1 -0.1)">
       <use xlink:href="#DejaVuSans-32"/>
       <use x="63.623047" xlink:href="#DejaVuSans-30"/>
       <use x="127.246094" xlink:href="#DejaVuSans-30"/>
      </g>
     </g>
    </g>
    <g id="ytick_3">
     <g id="line2d_23">
      <path clip-path="url(#p40202022ce)" d="M 36.124 209.271549 
L 446.82081 209.271549 
" style="fill:none;stroke:#b0b0b0;stroke-linecap:square;stroke-width:0.8;"/>
     </g>
     <g id="line2d_24">
      <g>
       <use style="stroke:#000000;stroke-width:0.8;" x="36.124" xlink:href="#m0cba64693a" y="209.271549"/>
      </g>
     </g>
     <g id="text_13">
      <!-- 400 -->
      <g transform="translate(10.0365 213.070768)scale(0.1 -0.1)">
       <use xlink:href="#DejaVuSans-34"/>
       <use x="63.623047" xlink:href="#DejaVuSans-30"/>
       <use x="127.246094" xlink:href="#DejaVuSans-30"/>
      </g>
     </g>
    </g>
    <g id="ytick_4">
     <g id="line2d_25">
      <path clip-path="url(#p40202022ce)" d="M 36.124 158.975574 
L 446.82081 158.975574 
" style="fill:none;stroke:#b0b0b0;stroke-linecap:square;stroke-width:0.8;"/>
     </g>
     <g id="line2d_26">
      <g>
       <use style="stroke:#000000;stroke-width:0.8;" x="36.124" xlink:href="#m0cba64693a" y="158.975574"/>
      </g>
     </g>
     <g id="text_14">
      <!-- 600 -->
      <g transform="translate(10.0365 162.774792)scale(0.1 -0.1)">
       <use xlink:href="#DejaVuSans-36"/>
       <use x="63.623047" xlink:href="#DejaVuSans-30"/>
       <use x="127.246094" xlink:href="#DejaVuSans-30"/>
      </g>
     </g>
    </g>
    <g id="ytick_5">
     <g id="line2d_27">
      <path clip-path="url(#p40202022ce)" d="M 36.124 108.679598 
L 446.82081 108.679598 
" style="fill:none;stroke:#b0b0b0;stroke-linecap:square;stroke-width:0.8;"/>
     </g>
     <g id="line2d_28">
      <g>
       <use style="stroke:#000000;stroke-width:0.8;" x="36.124" xlink:href="#m0cba64693a" y="108.679598"/>
      </g>
     </g>
     <g id="text_15">
      <!-- 800 -->
      <g transform="translate(10.0365 112.478817)scale(0.1 -0.1)">
       <use xlink:href="#DejaVuSans-38"/>
       <use x="63.623047" xlink:href="#DejaVuSans-30"/>
       <use x="127.246094" xlink:href="#DejaVuSans-30"/>
      </g>
     </g>
    </g>
    <g id="ytick_6">
     <g id="line2d_29">
      <path clip-path="url(#p40202022ce)" d="M 36.124 58.383623 
L 446.82081 58.383623 
" style="fill:none;stroke:#b0b0b0;stroke-linecap:square;stroke-width:0.8;"/>
     </g>
     <g id="line2d_30">
      <g>
       <use style="stroke:#000000;stroke-width:0.8;" x="36.124" xlink:href="#m0cba64693a" y="58.383623"/>
      </g>
     </g>
     <g id="text_16">
      <!-- 1000 -->
      <g transform="translate(3.674 62.182842)scale(0.1 -0.1)">
       <use xlink:href="#DejaVuSans-31"/>
       <use x="63.623047" xlink:href="#DejaVuSans-30"/>
       <use x="127.246094" xlink:href="#DejaVuSans-30"/>
       <use x="190.869141" xlink:href="#DejaVuSans-30"/>
      </g>
     </g>
    </g>
   </g>
   <g id="line2d_31">
    <path clip-path="url(#p40202022ce)" d="M 36.124 309.8635 
L 40.17846 309.8635 
L 42.238923 224.611822 
L 44.299386 229.389939 
L 46.293382 225.492001 
L 48.353845 224.108862 
L 50.347842 221.342583 
L 52.408305 309.8635 
L 54.468768 220.588144 
L 56.329831 221.342583 
L 58.390294 220.839624 
L 60.384291 264.094162 
L 62.444754 236.808596 
L 64.43875 241.712453 
L 66.499213 234.168057 
L 68.559676 237.437295 
L 70.553673 236.054156 
L 72.614136 236.431376 
L 74.608132 236.431376 
L 76.668595 235.173976 
L 78.729058 233.539357 
L 80.590122 229.892899 
L 82.650585 266.986181 
L 84.644581 235.425456 
L 86.705044 309.8635 
L 88.699041 268.74654 
L 90.759504 232.407698 
L 92.819967 237.437295 
L 94.813963 236.431376 
L 96.874426 271.638559 
L 98.868423 236.179896 
L 100.928886 238.065995 
L 102.989349 240.203574 
L 104.916879 309.8635 
L 106.977342 240.455054 
L 108.971338 241.083754 
L 111.031801 234.922497 
L 113.025798 240.958014 
L 115.086261 232.407698 
L 117.146724 230.395859 
L 119.14072 230.395859 
L 121.201184 229.389939 
L 123.19518 227.88106 
L 125.255643 228.76124 
L 127.316106 221.845543 
L 129.177169 309.8635 
L 131.237633 267.363401 
L 133.231629 278.931475 
L 135.292092 309.8635 
L 137.286089 306.342782 
L 139.346552 152.562837 
L 141.407015 126.28319 
L 143.401011 94.722465 
L 145.461474 94.848205 
L 147.455471 63.28748 
L 149.515934 94.470985 
L 151.576397 214.426887 
L 153.43746 205.876571 
L 155.497923 309.8635 
L 159.552383 309.8635 
L 161.546379 228.38402 
L 163.606842 186.38688 
L 165.667305 189.656119 
L 167.661302 192.422397 
L 169.721765 177.082125 
L 171.715761 206.505271 
L 173.776224 228.38402 
L 175.836687 183.369122 
L 177.697751 182.363202 
L 179.758214 309.8635 
L 181.75221 249.25685 
L 183.812673 309.8635 
L 185.80667 309.8635 
L 187.867133 191.416478 
L 189.927596 176.830645 
L 191.921592 206.505271 
L 193.982055 173.309927 
L 195.976052 171.801047 
L 198.036515 172.052527 
L 200.096978 172.178267 
L 202.024508 175.573246 
L 204.084971 205.247871 
L 206.078967 184.123561 
L 208.13943 293.391568 
L 210.133427 309.8635 
L 212.19389 195.440156 
L 214.254353 183.872082 
L 216.248349 191.542218 
L 218.308813 203.487512 
L 220.302809 205.750831 
L 222.363272 192.170918 
L 224.423735 193.176837 
L 226.284798 197.200515 
L 228.345262 309.8635 
L 230.339258 309.8635 
L 232.399721 247.74797 
L 234.393718 309.8635 
L 236.454181 197.703475 
L 238.514644 207.13397 
L 240.50864 309.8635 
L 242.569103 175.824725 
L 244.5631 204.241952 
L 246.623563 174.818806 
L 248.684026 188.0215 
L 250.545089 182.614682 
L 252.605552 309.8635 
L 258.654008 309.8635 
L 260.714471 221.594063 
L 262.774934 239.197655 
L 264.768931 253.029048 
L 266.829394 188.775939 
L 268.82339 242.215413 
L 270.883853 309.8635 
L 272.944316 309.8635 
L 274.80538 255.543847 
L 276.865843 309.8635 
L 284.974762 309.8635 
L 287.035225 251.645908 
L 289.029221 230.395859 
L 291.089684 309.8635 
L 307.241056 309.8635 
L 309.301519 261.830843 
L 311.361982 199.715314 
L 313.355978 179.345444 
L 315.416442 183.746342 
L 317.410438 289.36789 
L 319.470901 309.8635 
L 329.50735 309.8635 
L 331.501347 216.564466 
L 333.56181 258.813085 
L 335.622273 309.8635 
L 337.616269 235.676936 
L 339.676732 228.50976 
L 341.670729 309.8635 
L 343.731192 237.940255 
L 345.791655 183.872082 
L 347.652718 179.596924 
L 349.713181 257.052726 
L 351.707178 309.8635 
L 371.913009 309.8635 
L 373.973472 260.573444 
L 375.967468 286.475871 
L 378.027931 190.410558 
L 380.021928 309.8635 
L 382.082391 259.316045 
L 384.142854 309.8635 
L 386.13685 268.74654 
L 388.197313 239.449134 
L 390.19131 309.8635 
L 446.82081 309.8635 
L 446.82081 309.8635 
" style="fill:none;stroke:#1f77b4;stroke-linecap:square;stroke-width:1.5;"/>
   </g>
   <g id="patch_3">
    <path d="M 36.124 309.8635 
L 36.124 23.36505 
" style="fill:none;stroke:#000000;stroke-linecap:square;stroke-linejoin:miter;stroke-width:0.8;"/>
   </g>
   <g id="patch_4">
    <path d="M 446.82081 309.8635 
L 446.82081 23.36505 
" style="fill:none;stroke:#000000;stroke-linecap:square;stroke-linejoin:miter;stroke-width:0.8;"/>
   </g>
   <g id="patch_5">
    <path d="M 36.124 309.8635 
L 446.82081 309.8635 
" style="fill:none;stroke:#000000;stroke-linecap:square;stroke-linejoin:miter;stroke-width:0.8;"/>
   </g>
   <g id="patch_6">
    <path d="M 36.124 23.36505 
L 446.82081 23.36505 
" style="fill:none;stroke:#000000;stroke-linecap:square;stroke-linejoin:miter;stroke-width:0.8;"/>
   </g>
   <g id="text_17">
    <!-- Monthly gross load trend (MW) -->
    <defs>
     <path d="M 9.8125 72.90625 
L 24.515625 72.90625 
L 43.109375 23.296875 
L 61.8125 72.90625 
L 76.515625 72.90625 
L 76.515625 0 
L 66.890625 0 
L 66.890625 64.015625 
L 48.09375 14.015625 
L 38.1875 14.015625 
L 19.390625 64.015625 
L 19.390625 0 
L 9.8125 0 
z
" id="DejaVuSans-4d"/>
     <path d="M 30.609375 48.390625 
Q 23.390625 48.390625 19.1875 42.75 
Q 14.984375 37.109375 14.984375 27.296875 
Q 14.984375 17.484375 19.15625 11.84375 
Q 23.34375 6.203125 30.609375 6.203125 
Q 37.796875 6.203125 41.984375 11.859375 
Q 46.1875 17.53125 46.1875 27.296875 
Q 46.1875 37.015625 41.984375 42.703125 
Q 37.796875 48.390625 30.609375 48.390625 
z
M 30.609375 56 
Q 42.328125 56 49.015625 48.375 
Q 55.71875 40.765625 55.71875 27.296875 
Q 55.71875 13.875 49.015625 6.21875 
Q 42.328125 -1.421875 30.609375 -1.421875 
Q 18.84375 -1.421875 12.171875 6.21875 
Q 5.515625 13.875 5.515625 27.296875 
Q 5.515625 40.765625 12.171875 48.375 
Q 18.84375 56 30.609375 56 
z
" id="DejaVuSans-6f"/>
     <path d="M 54.890625 33.015625 
L 54.890625 0 
L 45.90625 0 
L 45.90625 32.71875 
Q 45.90625 40.484375 42.875 44.328125 
Q 39.84375 48.1875 33.796875 48.1875 
Q 26.515625 48.1875 22.3125 43.546875 
Q 18.109375 38.921875 18.109375 30.90625 
L 18.109375 0 
L 9.078125 0 
L 9.078125 54.6875 
L 18.109375 54.6875 
L 18.109375 46.1875 
Q 21.34375 51.125 25.703125 53.5625 
Q 30.078125 56 35.796875 56 
Q 45.21875 56 50.046875 50.171875 
Q 54.890625 44.34375 54.890625 33.015625 
z
" id="DejaVuSans-6e"/>
     <path d="M 54.890625 33.015625 
L 54.890625 0 
L 45.90625 0 
L 45.90625 32.71875 
Q 45.90625 40.484375 42.875 44.328125 
Q 39.84375 48.1875 33.796875 48.1875 
Q 26.515625 48.1875 22.3125 43.546875 
Q 18.109375 38.921875 18.109375 30.90625 
L 18.109375 0 
L 9.078125 0 
L 9.078125 75.984375 
L 18.109375 75.984375 
L 18.109375 46.1875 
Q 21.34375 51.125 25.703125 53.5625 
Q 30.078125 56 35.796875 56 
Q 45.21875 56 50.046875 50.171875 
Q 54.890625 44.34375 54.890625 33.015625 
z
" id="DejaVuSans-68"/>
     <path d="M 9.421875 75.984375 
L 18.40625 75.984375 
L 18.40625 0 
L 9.421875 0 
z
" id="DejaVuSans-6c"/>
     <path d="M 32.171875 -5.078125 
Q 28.375 -14.84375 24.75 -17.8125 
Q 21.140625 -20.796875 15.09375 -20.796875 
L 7.90625 -20.796875 
L 7.90625 -13.28125 
L 13.1875 -13.28125 
Q 16.890625 -13.28125 18.9375 -11.515625 
Q 21 -9.765625 23.484375 -3.21875 
L 25.09375 0.875 
L 2.984375 54.6875 
L 12.5 54.6875 
L 29.59375 11.921875 
L 46.6875 54.6875 
L 56.203125 54.6875 
z
" id="DejaVuSans-79"/>
     <path id="DejaVuSans-20"/>
     <path d="M 45.40625 27.984375 
Q 45.40625 37.75 41.375 43.109375 
Q 37.359375 48.484375 30.078125 48.484375 
Q 22.859375 48.484375 18.828125 43.109375 
Q 14.796875 37.75 14.796875 27.984375 
Q 14.796875 18.265625 18.828125 12.890625 
Q 22.859375 7.515625 30.078125 7.515625 
Q 37.359375 7.515625 41.375 12.890625 
Q 45.40625 18.265625 45.40625 27.984375 
z
M 54.390625 6.78125 
Q 54.390625 -7.171875 48.1875 -13.984375 
Q 42 -20.796875 29.203125 -20.796875 
Q 24.46875 -20.796875 20.265625 -20.09375 
Q 16.0625 -19.390625 12.109375 -17.921875 
L 12.109375 -9.1875 
Q 16.0625 -11.328125 19.921875 -12.34375 
Q 23.78125 -13.375 27.78125 -13.375 
Q 36.625 -13.375 41.015625 -8.765625 
Q 45.40625 -4.15625 45.40625 5.171875 
L 45.40625 9.625 
Q 42.625 4.78125 38.28125 2.390625 
Q 33.9375 0 27.875 0 
Q 17.828125 0 11.671875 7.65625 
Q 5.515625 15.328125 5.515625 27.984375 
Q 5.515625 40.671875 11.671875 48.328125 
Q 17.828125 56 27.875 56 
Q 33.9375 56 38.28125 53.609375 
Q 42.625 51.21875 45.40625 46.390625 
L 45.40625 54.6875 
L 54.390625 54.6875 
z
" id="DejaVuSans-67"/>
     <path d="M 41.109375 46.296875 
Q 39.59375 47.171875 37.8125 47.578125 
Q 36.03125 48 33.890625 48 
Q 26.265625 48 22.1875 43.046875 
Q 18.109375 38.09375 18.109375 28.8125 
L 18.109375 0 
L 9.078125 0 
L 9.078125 54.6875 
L 18.109375 54.6875 
L 18.109375 46.1875 
Q 20.953125 51.171875 25.484375 53.578125 
Q 30.03125 56 36.53125 56 
Q 37.453125 56 38.578125 55.875 
Q 39.703125 55.765625 41.0625 55.515625 
z
" id="DejaVuSans-72"/>
     <path d="M 44.28125 53.078125 
L 44.28125 44.578125 
Q 40.484375 46.53125 36.375 47.5 
Q 32.28125 48.484375 27.875 48.484375 
Q 21.1875 48.484375 17.84375 46.4375 
Q 14.5 44.390625 14.5 40.28125 
Q 14.5 37.15625 16.890625 35.375 
Q 19.28125 33.59375 26.515625 31.984375 
L 29.59375 31.296875 
Q 39.15625 29.25 43.1875 25.515625 
Q 47.21875 21.78125 47.21875 15.09375 
Q 47.21875 7.46875 41.1875 3.015625 
Q 35.15625 -1.421875 24.609375 -1.421875 
Q 20.21875 -1.421875 15.453125 -0.5625 
Q 10.6875 0.296875 5.421875 2 
L 5.421875 11.28125 
Q 10.40625 8.6875 15.234375 7.390625 
Q 20.0625 6.109375 24.8125 6.109375 
Q 31.15625 6.109375 34.5625 8.28125 
Q 37.984375 10.453125 37.984375 14.40625 
Q 37.984375 18.0625 35.515625 20.015625 
Q 33.0625 21.96875 24.703125 23.78125 
L 21.578125 24.515625 
Q 13.234375 26.265625 9.515625 29.90625 
Q 5.8125 33.546875 5.8125 39.890625 
Q 5.8125 47.609375 11.28125 51.796875 
Q 16.75 56 26.8125 56 
Q 31.78125 56 36.171875 55.265625 
Q 40.578125 54.546875 44.28125 53.078125 
z
" id="DejaVuSans-73"/>
     <path d="M 45.40625 46.390625 
L 45.40625 75.984375 
L 54.390625 75.984375 
L 54.390625 0 
L 45.40625 0 
L 45.40625 8.203125 
Q 42.578125 3.328125 38.25 0.953125 
Q 33.9375 -1.421875 27.875 -1.421875 
Q 17.96875 -1.421875 11.734375 6.484375 
Q 5.515625 14.40625 5.515625 27.296875 
Q 5.515625 40.1875 11.734375 48.09375 
Q 17.96875 56 27.875 56 
Q 33.9375 56 38.25 53.625 
Q 42.578125 51.265625 45.40625 46.390625 
z
M 14.796875 27.296875 
Q 14.796875 17.390625 18.875 11.75 
Q 22.953125 6.109375 30.078125 6.109375 
Q 37.203125 6.109375 41.296875 11.75 
Q 45.40625 17.390625 45.40625 27.296875 
Q 45.40625 37.203125 41.296875 42.84375 
Q 37.203125 48.484375 30.078125 48.484375 
Q 22.953125 48.484375 18.875 42.84375 
Q 14.796875 37.203125 14.796875 27.296875 
z
" id="DejaVuSans-64"/>
     <path d="M 31 75.875 
Q 24.46875 64.65625 21.28125 53.65625 
Q 18.109375 42.671875 18.109375 31.390625 
Q 18.109375 20.125 21.3125 9.0625 
Q 24.515625 -2 31 -13.1875 
L 23.1875 -13.1875 
Q 15.875 -1.703125 12.234375 9.375 
Q 8.59375 20.453125 8.59375 31.390625 
Q 8.59375 42.28125 12.203125 53.3125 
Q 15.828125 64.359375 23.1875 75.875 
z
" id="DejaVuSans-28"/>
     <path d="M 3.328125 72.90625 
L 13.28125 72.90625 
L 28.609375 11.28125 
L 43.890625 72.90625 
L 54.984375 72.90625 
L 70.3125 11.28125 
L 85.59375 72.90625 
L 95.609375 72.90625 
L 77.296875 0 
L 64.890625 0 
L 49.515625 63.28125 
L 33.984375 0 
L 21.578125 0 
z
" id="DejaVuSans-57"/>
     <path d="M 8.015625 75.875 
L 15.828125 75.875 
Q 23.140625 64.359375 26.78125 53.3125 
Q 30.421875 42.28125 30.421875 31.390625 
Q 30.421875 20.453125 26.78125 9.375 
Q 23.140625 -1.703125 15.828125 -13.1875 
L 8.015625 -13.1875 
Q 14.5 -2 17.703125 9.0625 
Q 20.90625 20.125 20.90625 31.390625 
Q 20.90625 42.671875 17.703125 53.65625 
Q 14.5 64.65625 8.015625 75.875 
z
" id="DejaVuSans-29"/>
    </defs>
    <g transform="translate(148.889593 17.36505)scale(0.12 -0.12)">
     <use xlink:href="#DejaVuSans-4d"/>
     <use x="86.279297" xlink:href="#DejaVuSans-6f"/>
     <use x="147.460938" xlink:href="#DejaVuSans-6e"/>
     <use x="210.839844" xlink:href="#DejaVuSans-74"/>
     <use x="250.048828" xlink:href="#DejaVuSans-68"/>
     <use x="313.427734" xlink:href="#DejaVuSans-6c"/>
     <use x="341.210938" xlink:href="#DejaVuSans-79"/>
     <use x="400.390625" xlink:href="#DejaVuSans-20"/>
     <use x="432.177734" xlink:href="#DejaVuSans-67"/>
     <use x="495.654297" xlink:href="#DejaVuSans-72"/>
     <use x="536.736328" xlink:href="#DejaVuSans-6f"/>
     <use x="597.917969" xlink:href="#DejaVuSans-73"/>
     <use x="650.017578" xlink:href="#DejaVuSans-73"/>
     <use x="702.117188" xlink:href="#DejaVuSans-20"/>
     <use x="733.904297" xlink:href="#DejaVuSans-6c"/>
     <use x="761.6875" xlink:href="#DejaVuSans-6f"/>
     <use x="822.869141" xlink:href="#DejaVuSans-61"/>
     <use x="884.148438" xlink:href="#DejaVuSans-64"/>
     <use x="947.625" xlink:href="#DejaVuSans-20"/>
     <use x="979.412109" xlink:href="#DejaVuSans-74"/>
     <use x="1018.621094" xlink:href="#DejaVuSans-72"/>
     <use x="1059.703125" xlink:href="#DejaVuSans-65"/>
     <use x="1121.226562" xlink:href="#DejaVuSans-6e"/>
     <use x="1184.605469" xlink:href="#DejaVuSans-64"/>
     <use x="1248.082031" xlink:href="#DejaVuSans-20"/>
     <use x="1279.869141" xlink:href="#DejaVuSans-28"/>
     <use x="1318.882812" xlink:href="#DejaVuSans-4d"/>
     <use x="1405.162109" xlink:href="#DejaVuSans-57"/>
     <use x="1504.039062" xlink:href="#DejaVuSans-29"/>
    </g>
   </g>
  </g>
 </g>
 <defs>
  <clipPath id="p40202022ce">
   <rect height="286.49845" width="410.69681" x="36.124" y="23.36505"/>
  </clipPath>
 </defs>
</svg>
