<?xml version="1.0" encoding="utf-8" standalone="no"?>
<!DOCTYPE svg PUBLIC "-//W3C//DTD SVG 1.1//EN"
  "http://www.w3.org/Graphics/SVG/1.1/DTD/svg11.dtd">
<!-- Created with matplotlib (http://matplotlib.org/) -->
<svg height="345.6pt" version="1.1" viewBox="0 0 460.8 345.6" width="460.8pt" xmlns="http://www.w3.org/2000/svg" xmlns:xlink="http://www.w3.org/1999/xlink">
 <defs>
  <style type="text/css">
*{stroke-linecap:butt;stroke-linejoin:round;}
  </style>
 </defs>
 <g id="figure_1">
  <g id="patch_1">
   <path d="M 0 345.6 
L 460.8 345.6 
L 460.8 0 
L 0 0 
z
" style="fill:none;"/>
  </g>
  <g id="axes_1">
   <g id="patch_2">
    <path d="M 31.543 309.8635 
L 444.986372 309.8635 
L 444.986372 23.36505 
L 31.543 23.36505 
z
" style="fill:none;"/>
   </g>
   <g id="PolyCollection_1">
    <path clip-path="url(#pc09cb4112b)" d="M 31.543 309.8635 
L 31.543 309.8635 
L 33.676718 309.8635 
L 35.881559 309.8635 
L 38.015277 309.8635 
L 40.220119 309.8635 
L 42.42496 309.8635 
L 44.558678 309.8635 
L 46.76352 309.8635 
L 48.897238 309.8635 
L 51.102079 309.8635 
L 53.306921 309.8635 
L 55.298391 309.8635 
L 57.503232 309.8635 
L 59.63695 309.8635 
L 61.841792 309.8635 
L 63.975509 309.8635 
L 66.180351 309.8635 
L 68.385193 309.8635 
L 70.51891 309.8635 
L 72.723752 309.8635 
L 74.85747 309.8635 
L 77.062312 309.8635 
L 79.267153 309.8635 
L 81.329747 309.8635 
L 83.534589 309.8635 
L 85.668306 309.8635 
L 87.873148 309.8635 
L 90.006866 309.8635 
L 92.211707 309.8635 
L 94.416549 309.8635 
L 96.550267 309.8635 
L 98.755108 309.8635 
L 100.888826 309.8635 
L 103.093668 309.8635 
L 105.298509 309.8635 
L 107.289979 309.8635 
L 109.494821 309.8635 
L 111.628539 309.8635 
L 113.83338 309.8635 
L 115.967098 309.8635 
L 118.17194 309.8635 
L 120.376781 309.8635 
L 122.510499 309.8635 
L 124.715341 309.8635 
L 126.849058 309.8635 
L 129.0539 309.8635 
L 131.258742 309.8635 
L 133.250212 309.8635 
L 135.455053 309.8635 
L 137.588771 309.8635 
L 139.793613 309.8635 
L 141.92733 309.8635 
L 144.132172 309.8635 
L 146.337014 309.8635 
L 148.470731 309.8635 
L 150.675573 309.8635 
L 152.809291 309.8635 
L 155.014132 309.8635 
L 157.218974 309.8635 
L 159.210444 309.8635 
L 161.415286 309.8635 
L 163.549003 309.8635 
L 165.753845 309.8635 
L 167.887563 309.8635 
L 170.092404 229.771538 
L 172.297246 309.8635 
L 174.430964 309.8635 
L 176.635805 309.8635 
L 178.769523 309.8635 
L 180.974365 309.8635 
L 183.179206 309.8635 
L 185.2418 309.8635 
L 187.446642 309.8635 
L 189.58036 309.8635 
L 191.785201 309.8635 
L 193.918919 309.8635 
L 196.123761 309.8635 
L 198.328602 309.8635 
L 200.46232 309.8635 
L 202.667162 309.8635 
L 204.800879 309.8635 
L 207.005721 309.8635 
L 209.210563 309.8635 
L 211.202033 309.8635 
L 213.406874 309.8635 
L 215.540592 309.8635 
L 217.745434 309.8635 
L 219.879151 309.8635 
L 222.083993 309.8635 
L 224.288835 309.8635 
L 226.422552 309.8635 
L 228.627394 309.8635 
L 230.761112 309.8635 
L 232.965953 309.8635 
L 235.170795 309.8635 
L 237.162265 309.8635 
L 239.367107 309.8635 
L 241.500824 309.8635 
L 243.705666 309.8635 
L 245.839384 237.916483 
L 248.044225 309.8635 
L 250.249067 237.463986 
L 252.382785 309.8635 
L 254.587626 309.8635 
L 256.721344 309.8635 
L 258.926186 309.8635 
L 261.131027 309.8635 
L 263.122497 309.8635 
L 265.327339 309.8635 
L 267.461057 309.8635 
L 269.665898 309.8635 
L 271.799616 309.8635 
L 274.004458 238.821477 
L 276.209299 309.8635 
L 278.343017 309.8635 
L 280.547859 309.8635 
L 282.681577 309.8635 
L 284.886418 309.8635 
L 287.09126 309.8635 
L 289.153854 309.8635 
L 291.358695 309.8635 
L 293.492413 309.8635 
L 295.697255 309.8635 
L 297.830972 309.8635 
L 300.035814 309.8635 
L 302.240656 309.8635 
L 304.374373 309.8635 
L 306.579215 309.8635 
L 308.712933 309.8635 
L 310.917774 309.8635 
L 313.122616 309.8635 
L 315.114086 309.8635 
L 317.318928 309.8635 
L 319.452645 309.8635 
L 321.657487 309.8635 
L 323.791205 309.8635 
L 325.996046 309.8635 
L 328.200888 309.8635 
L 330.334606 309.8635 
L 332.539447 309.8635 
L 334.673165 309.8635 
L 336.878007 309.8635 
L 339.082848 309.8635 
L 341.074318 309.8635 
L 343.27916 309.8635 
L 345.412878 309.8635 
L 347.617719 309.8635 
L 349.751437 309.8635 
L 351.956279 309.8635 
L 354.16112 309.8635 
L 356.294838 309.8635 
L 358.49968 309.8635 
L 360.633397 309.8635 
L 362.838239 309.8635 
L 365.043081 309.8635 
L 367.034551 309.8635 
L 369.239392 309.8635 
L 371.37311 309.8635 
L 373.577952 309.8635 
L 375.711669 309.8635 
L 377.916511 309.8635 
L 380.121353 237.011489 
L 382.25507 215.744132 
L 384.459912 292.216119 
L 386.59363 309.8635 
L 388.798471 309.8635 
L 391.003313 309.8635 
L 393.065907 309.8635 
L 395.270749 309.8635 
L 397.404466 309.8635 
L 399.609308 309.8635 
L 401.743026 168.231952 
L 403.947867 309.8635 
L 406.152709 237.916483 
L 408.286427 304.886033 
L 410.491268 309.8635 
L 412.624986 309.8635 
L 414.829828 309.8635 
L 417.034669 309.8635 
L 419.026139 309.8635 
L 421.230981 309.8635 
L 423.364699 309.8635 
L 425.56954 309.8635 
L 427.703258 309.8635 
L 429.9081 309.8635 
L 432.112941 309.8635 
L 434.246659 237.011489 
L 436.451501 309.8635 
L 438.585218 309.8635 
L 440.79006 309.8635 
L 442.994902 309.8635 
L 444.986372 309.8635 
L 444.986372 129.317213 
L 444.986372 129.317213 
L 442.994902 309.8635 
L 440.79006 309.411003 
L 438.585218 309.8635 
L 436.451501 179.544376 
L 434.246659 46.962766 
L 432.112941 46.057773 
L 429.9081 46.510269 
L 427.703258 46.057773 
L 425.56954 40.175312 
L 423.364699 46.962766 
L 421.230981 45.605276 
L 419.026139 204.884205 
L 417.034669 221.626593 
L 414.829828 152.847055 
L 412.624986 207.14669 
L 410.491268 309.8635 
L 408.286427 46.962766 
L 406.152709 46.057773 
L 403.947867 46.057773 
L 401.743026 46.510269 
L 399.609308 39.722815 
L 397.404466 46.962766 
L 395.270749 51.940233 
L 393.065907 176.376897 
L 391.003313 309.8635 
L 388.798471 309.411003 
L 386.59363 100.357408 
L 384.459912 99.452414 
L 382.25507 48.320257 
L 380.121353 46.510269 
L 377.916511 43.795288 
L 375.711669 45.152779 
L 373.577952 37.007833 
L 371.37311 47.415263 
L 369.239392 43.342791 
L 367.034551 203.526714 
L 365.043081 204.884205 
L 362.838239 309.8635 
L 360.633397 198.096751 
L 358.49968 309.8635 
L 356.294838 45.152779 
L 354.16112 46.057773 
L 351.956279 45.605276 
L 349.751437 45.152779 
L 347.617719 39.722815 
L 345.412878 46.510269 
L 343.27916 72.302596 
L 341.074318 192.21429 
L 339.082848 116.647298 
L 336.878007 109.859844 
L 334.673165 60.537675 
L 332.539447 309.8635 
L 330.334606 46.510269 
L 328.200888 45.605276 
L 325.996046 45.605276 
L 323.791205 45.605276 
L 321.657487 41.9853 
L 319.452645 43.795288 
L 317.318928 62.347663 
L 315.114086 221.174096 
L 313.122616 199.906739 
L 310.917774 51.487736 
L 308.712933 309.8635 
L 306.579215 302.171052 
L 304.374373 45.605276 
L 302.240656 45.605276 
L 300.035814 45.605276 
L 297.830972 45.605276 
L 295.697255 37.912827 
L 293.492413 46.510269 
L 291.358695 77.280063 
L 289.153854 118.909783 
L 287.09126 120.267274 
L 284.886418 98.094923 
L 282.681577 192.21429 
L 280.547859 76.827566 
L 278.343017 63.252657 
L 276.209299 45.152779 
L 274.004458 45.152779 
L 271.799616 44.700282 
L 269.665898 42.890294 
L 267.461057 309.8635 
L 265.327339 46.962766 
L 263.122497 309.8635 
L 261.131027 192.21429 
L 258.926186 192.21429 
L 256.721344 309.8635 
L 254.587626 309.8635 
L 252.382785 96.737432 
L 250.249067 37.46033 
L 248.044225 44.700282 
L 245.839384 45.152779 
L 243.705666 39.722815 
L 241.500824 46.510269 
L 239.367107 77.280063 
L 237.162265 46.510269 
L 235.170795 309.8635 
L 232.965953 309.8635 
L 230.761112 309.8635 
L 228.627394 204.431708 
L 226.422552 68.682621 
L 224.288835 69.587614 
L 222.083993 41.9853 
L 219.879151 70.945105 
L 217.745434 94.474947 
L 215.540592 61.895166 
L 213.406874 53.297724 
L 211.202033 309.8635 
L 209.210563 202.621721 
L 207.005721 204.431708 
L 204.800879 202.621721 
L 202.667162 195.381769 
L 200.46232 49.225251 
L 198.328602 63.252657 
L 196.123761 59.180184 
L 193.918919 52.845227 
L 191.785201 38.365324 
L 189.58036 74.112584 
L 187.446642 80.900038 
L 185.2418 198.096751 
L 183.179206 309.8635 
L 180.974365 63.252657 
L 178.769523 62.347663 
L 176.635805 69.587614 
L 174.430964 59.180184 
L 172.297246 55.107712 
L 170.092404 54.202718 
L 167.887563 56.465203 
L 165.753845 70.492608 
L 163.549003 63.252657 
L 161.415286 309.8635 
L 159.210444 309.8635 
L 157.218974 309.8635 
L 155.014132 309.8635 
L 152.809291 135.199674 
L 150.675573 76.375069 
L 148.470731 43.342791 
L 146.337014 60.990172 
L 144.132172 55.107712 
L 141.92733 50.130245 
L 139.793613 51.940233 
L 137.588771 39.722815 
L 135.455053 38.817821 
L 133.250212 78.185057 
L 131.258742 131.579698 
L 129.0539 309.8635 
L 126.849058 142.892122 
L 124.715341 151.942061 
L 122.510499 148.774582 
L 120.376781 144.249613 
L 118.17194 136.557164 
L 115.967098 125.697237 
L 113.83338 149.227079 
L 111.628539 129.76971 
L 109.494821 164.611976 
L 107.289979 171.39943 
L 105.298509 146.059601 
L 103.093668 154.657043 
L 100.888826 142.892122 
L 98.755108 150.58457 
L 96.550267 151.489564 
L 94.416549 160.992 
L 92.211707 151.037067 
L 90.006866 146.059601 
L 87.873148 151.489564 
L 85.668306 147.417091 
L 83.534589 136.104667 
L 81.329747 151.942061 
L 79.267153 138.367152 
L 77.062312 121.624765 
L 74.85747 166.874461 
L 72.723752 154.657043 
L 70.51891 144.249613 
L 68.385193 128.864716 
L 66.180351 140.629637 
L 63.975509 141.082134 
L 61.841792 123.434753 
L 59.63695 143.797116 
L 57.503232 153.299552 
L 55.298391 144.70211 
L 53.306921 156.919528 
L 51.102079 229.319041 
L 48.897238 189.951806 
L 46.76352 172.756921 
L 44.558678 152.847055 
L 42.42496 124.339747 
L 40.220119 122.982256 
L 38.015277 122.077262 
L 35.881559 110.312341 
L 33.676718 309.8635 
L 31.543 309.8635 
z
" style="fill:#808080;fill-opacity:0.3;"/>
   </g>
   <g id="PolyCollection_2">
    <path clip-path="url(#pc09cb4112b)" d="M 31.543 309.8635 
L 31.543 309.8635 
L 33.676718 309.8635 
L 35.881559 309.8635 
L 38.015277 297.306709 
L 40.220119 309.8635 
L 42.42496 309.8635 
L 44.558678 309.8635 
L 46.76352 309.8635 
L 48.897238 309.8635 
L 51.102079 309.8635 
L 53.306921 309.8635 
L 55.298391 309.8635 
L 57.503232 309.8635 
L 59.63695 309.8635 
L 61.841792 309.8635 
L 63.975509 242.89395 
L 66.180351 233.844011 
L 68.385193 290.066758 
L 70.51891 309.8635 
L 72.723752 309.8635 
L 74.85747 309.8635 
L 77.062312 309.8635 
L 79.267153 309.8635 
L 81.329747 309.8635 
L 83.534589 309.8635 
L 85.668306 309.8635 
L 87.873148 309.8635 
L 90.006866 306.243524 
L 92.211707 309.8635 
L 94.416549 309.8635 
L 96.550267 309.8635 
L 98.755108 309.8635 
L 100.888826 309.8635 
L 103.093668 309.8635 
L 105.298509 309.8635 
L 107.289979 309.8635 
L 109.494821 309.8635 
L 111.628539 309.8635 
L 113.83338 309.8635 
L 115.967098 309.8635 
L 118.17194 265.971295 
L 120.376781 309.8635 
L 122.510499 309.8635 
L 124.715341 309.8635 
L 126.849058 309.8635 
L 129.0539 309.8635 
L 131.258742 309.8635 
L 133.250212 309.8635 
L 135.455053 309.8635 
L 137.588771 309.8635 
L 139.793613 309.8635 
L 141.92733 125.697237 
L 144.132172 113.47982 
L 146.337014 162.57574 
L 148.470731 115.402932 
L 150.675573 309.8635 
L 152.809291 309.8635 
L 155.014132 309.8635 
L 157.218974 309.8635 
L 159.210444 309.8635 
L 161.415286 309.8635 
L 163.549003 309.8635 
L 165.753845 300.24794 
L 167.887563 207.599187 
L 170.092404 208.504181 
L 172.297246 216.196629 
L 174.430964 308.166636 
L 176.635805 309.8635 
L 178.769523 309.8635 
L 180.974365 309.8635 
L 183.179206 309.8635 
L 185.2418 309.8635 
L 187.446642 309.8635 
L 189.58036 309.8635 
L 191.785201 309.8635 
L 193.918919 309.8635 
L 196.123761 225.699066 
L 198.328602 309.8635 
L 200.46232 309.8635 
L 202.667162 309.8635 
L 204.800879 309.8635 
L 207.005721 309.8635 
L 209.210563 309.8635 
L 211.202033 309.8635 
L 213.406874 309.8635 
L 215.540592 309.8635 
L 217.745434 309.8635 
L 219.879151 288.143646 
L 222.083993 304.886033 
L 224.288835 309.8635 
L 226.422552 309.8635 
L 228.627394 309.8635 
L 230.761112 309.8635 
L 232.965953 309.8635 
L 235.170795 309.8635 
L 237.162265 309.8635 
L 239.367107 309.8635 
L 241.500824 309.8635 
L 243.705666 227.056556 
L 245.839384 156.014534 
L 248.044225 154.657043 
L 250.249067 162.349491 
L 252.382785 309.8635 
L 254.587626 309.8635 
L 256.721344 309.8635 
L 258.926186 309.8635 
L 261.131027 309.8635 
L 263.122497 309.8635 
L 265.327339 309.8635 
L 267.461057 309.8635 
L 269.665898 238.029608 
L 271.799616 157.485149 
L 274.004458 144.249613 
L 276.209299 213.594772 
L 278.343017 309.8635 
L 280.547859 309.8635 
L 282.681577 309.8635 
L 284.886418 309.8635 
L 287.09126 309.8635 
L 289.153854 309.8635 
L 291.358695 309.8635 
L 293.492413 238.36898 
L 295.697255 200.019863 
L 297.830972 205.902324 
L 300.035814 123.434753 
L 302.240656 145.607104 
L 304.374373 163.480734 
L 306.579215 309.8635 
L 308.712933 309.8635 
L 310.917774 309.8635 
L 313.122616 309.8635 
L 315.114086 309.8635 
L 317.318928 309.8635 
L 319.452645 309.8635 
L 321.657487 237.011489 
L 323.791205 224.341575 
L 325.996046 166.874461 
L 328.200888 237.463986 
L 330.334606 309.8635 
L 332.539447 309.8635 
L 334.673165 309.8635 
L 336.878007 309.8635 
L 339.082848 309.8635 
L 341.074318 309.8635 
L 343.27916 309.8635 
L 345.412878 309.8635 
L 347.617719 309.8635 
L 349.751437 309.8635 
L 351.956279 265.405674 
L 354.16112 309.8635 
L 356.294838 309.8635 
L 358.49968 309.8635 
L 360.633397 309.8635 
L 362.838239 309.8635 
L 365.043081 309.8635 
L 367.034551 309.8635 
L 369.239392 309.8635 
L 371.37311 309.8635 
L 373.577952 157.824522 
L 375.711669 153.752049 
L 377.916511 154.31767 
L 380.121353 151.942061 
L 382.25507 157.937646 
L 384.459912 205.336702 
L 386.59363 309.8635 
L 388.798471 309.8635 
L 391.003313 309.8635 
L 393.065907 309.8635 
L 395.270749 309.8635 
L 397.404466 150.58457 
L 399.609308 195.494893 
L 401.743026 130.674704 
L 403.947867 127.62035 
L 406.152709 132.145319 
L 408.286427 156.467031 
L 410.491268 309.8635 
L 412.624986 309.8635 
L 414.829828 309.8635 
L 417.034669 309.8635 
L 419.026139 309.8635 
L 421.230981 309.8635 
L 423.364699 158.277019 
L 425.56954 165.51697 
L 427.703258 119.475404 
L 429.9081 114.950435 
L 432.112941 124.565995 
L 434.246659 121.285392 
L 436.451501 309.8635 
L 438.585218 309.8635 
L 440.79006 309.8635 
L 442.994902 309.8635 
L 444.986372 309.8635 
L 444.986372 309.8635 
L 444.986372 309.8635 
L 442.994902 309.8635 
L 440.79006 309.8635 
L 438.585218 309.8635 
L 436.451501 226.151562 
L 434.246659 74.451957 
L 432.112941 49.225251 
L 429.9081 47.86776 
L 427.703258 48.320257 
L 425.56954 71.736975 
L 423.364699 82.257529 
L 421.230981 309.8635 
L 419.026139 309.8635 
L 417.034669 309.8635 
L 414.829828 309.8635 
L 412.624986 309.8635 
L 410.491268 309.8635 
L 408.286427 101.714899 
L 406.152709 48.320257 
L 403.947867 47.86776 
L 401.743026 49.225251 
L 399.609308 50.922115 
L 397.404466 66.420136 
L 395.270749 309.8635 
L 393.065907 309.8635 
L 391.003313 309.8635 
L 388.798471 309.8635 
L 386.59363 220.721599 
L 384.459912 204.431708 
L 382.25507 132.937189 
L 380.121353 48.772754 
L 377.916511 48.320257 
L 375.711669 79.88192 
L 373.577952 58.727687 
L 371.37311 164.159479 
L 369.239392 216.875375 
L 367.034551 309.8635 
L 365.043081 309.8635 
L 362.838239 309.8635 
L 360.633397 309.8635 
L 358.49968 309.8635 
L 356.294838 135.652171 
L 354.16112 131.466574 
L 351.956279 132.484692 
L 349.751437 141.082134 
L 347.617719 135.652171 
L 345.412878 154.657043 
L 343.27916 309.8635 
L 341.074318 309.8635 
L 339.082848 309.8635 
L 336.878007 309.8635 
L 334.673165 309.8635 
L 332.539447 309.8635 
L 330.334606 152.733931 
L 328.200888 116.647298 
L 325.996046 50.582742 
L 323.791205 48.772754 
L 321.657487 56.465203 
L 319.452645 216.762251 
L 317.318928 206.581069 
L 315.114086 309.8635 
L 313.122616 309.8635 
L 310.917774 309.8635 
L 308.712933 309.8635 
L 306.579215 309.8635 
L 304.374373 93.796202 
L 302.240656 50.130245 
L 300.035814 48.320257 
L 297.830972 56.691451 
L 295.697255 92.099338 
L 293.492413 78.524429 
L 291.358695 309.8635 
L 289.153854 309.8635 
L 287.09126 309.8635 
L 284.886418 309.8635 
L 282.681577 309.8635 
L 280.547859 294.478603 
L 278.343017 309.8635 
L 276.209299 48.320257 
L 274.004458 47.415263 
L 271.799616 47.415263 
L 269.665898 101.036153 
L 267.461057 309.8635 
L 265.327339 309.8635 
L 263.122497 309.8635 
L 261.131027 309.8635 
L 258.926186 309.8635 
L 256.721344 309.8635 
L 254.587626 309.8635 
L 252.382785 309.8635 
L 250.249067 65.967639 
L 248.044225 47.86776 
L 245.839384 54.542091 
L 243.705666 111.217335 
L 241.500824 309.8635 
L 239.367107 309.8635 
L 237.162265 309.8635 
L 235.170795 309.8635 
L 232.965953 309.8635 
L 230.761112 309.8635 
L 228.627394 309.8635 
L 226.422552 201.26423 
L 224.288835 167.66633 
L 222.083993 76.375069 
L 219.879151 96.284935 
L 217.745434 309.8635 
L 215.540592 215.291635 
L 213.406874 212.802902 
L 211.202033 309.8635 
L 209.210563 309.8635 
L 207.005721 309.8635 
L 204.800879 309.8635 
L 202.667162 309.8635 
L 200.46232 116.986671 
L 198.328602 145.041482 
L 196.123761 70.492608 
L 193.918919 94.81432 
L 191.785201 141.421507 
L 189.58036 309.8635 
L 187.446642 204.431708 
L 185.2418 309.8635 
L 183.179206 309.8635 
L 180.974365 225.246569 
L 178.769523 147.756464 
L 176.635805 191.309297 
L 174.430964 98.434296 
L 172.297246 75.922572 
L 170.092404 72.302596 
L 167.887563 72.755093 
L 165.753845 87.687493 
L 163.549003 120.267274 
L 161.415286 309.8635 
L 159.210444 309.8635 
L 157.218974 309.8635 
L 155.014132 309.8635 
L 152.809291 309.8635 
L 150.675573 309.8635 
L 148.470731 84.40689 
L 146.337014 101.262402 
L 144.132172 80.900038 
L 141.92733 75.017578 
L 139.793613 98.54742 
L 137.588771 100.357408 
L 135.455053 160.539503 
L 133.250212 309.8635 
L 131.258742 309.8635 
L 129.0539 309.8635 
L 126.849058 207.486063 
L 124.715341 238.36898 
L 122.510499 186.671203 
L 120.376781 171.738803 
L 118.17194 171.39943 
L 115.967098 172.756921 
L 113.83338 243.346447 
L 111.628539 214.726014 
L 109.494821 309.8635 
L 107.289979 309.8635 
L 105.298509 180.901867 
L 103.093668 237.916483 
L 100.888826 180.44937 
L 98.755108 238.821477 
L 96.550267 227.509053 
L 94.416549 245.156435 
L 92.211707 192.101166 
L 90.006866 171.851927 
L 87.873148 189.951806 
L 85.668306 175.019406 
L 83.534589 214.839138 
L 81.329747 178.639382 
L 79.267153 165.969467 
L 77.062312 158.729515 
L 74.85747 309.8635 
L 72.723752 251.491392 
L 70.51891 155.10954 
L 68.385193 162.349491 
L 66.180351 160.087006 
L 63.975509 170.494436 
L 61.841792 187.1237 
L 59.63695 289.84051 
L 57.503232 248.77641 
L 55.298391 190.743675 
L 53.306921 246.966423 
L 51.102079 309.8635 
L 48.897238 232.034023 
L 46.76352 253.527629 
L 44.558678 309.8635 
L 42.42496 226.943432 
L 40.220119 190.291178 
L 38.015277 172.756921 
L 35.881559 227.056556 
L 33.676718 309.8635 
L 31.543 309.8635 
z
" style="fill:#808080;fill-opacity:0.6;"/>
   </g>
   <g id="matplotlib.axis_1">
    <g id="xtick_1">
     <g id="line2d_1">
      <path clip-path="url(#pc09cb4112b)" d="M 77.062312 309.8635 
L 77.062312 23.36505 
" style="fill:none;stroke:#b0b0b0;stroke-linecap:square;stroke-width:0.8;"/>
     </g>
     <g id="line2d_2">
      <defs>
       <path d="M 0 0 
L 0 3.5 
" id="m2514cadf10" style="stroke:#000000;stroke-width:0.8;"/>
      </defs>
      <g>
       <use style="stroke:#000000;stroke-width:0.8;" x="77.062312" xlink:href="#m2514cadf10" y="309.8635"/>
      </g>
     </g>
     <g id="text_1">
      <!-- 2004 -->
      <defs>
       <path d="M 19.1875 8.296875 
L 53.609375 8.296875 
L 53.609375 0 
L 7.328125 0 
L 7.328125 8.296875 
Q 12.9375 14.109375 22.625 23.890625 
Q 32.328125 33.6875 34.8125 36.53125 
Q 39.546875 41.84375 41.421875 45.53125 
Q 43.3125 49.21875 43.3125 52.78125 
Q 43.3125 58.59375 39.234375 62.25 
Q 35.15625 65.921875 28.609375 65.921875 
Q 23.96875 65.921875 18.8125 64.3125 
Q 13.671875 62.703125 7.8125 59.421875 
L 7.8125 69.390625 
Q 13.765625 71.78125 18.9375 73 
Q 24.125 74.21875 28.421875 74.21875 
Q 39.75 74.21875 46.484375 68.546875 
Q 53.21875 62.890625 53.21875 53.421875 
Q 53.21875 48.921875 51.53125 44.890625 
Q 49.859375 40.875 45.40625 35.40625 
Q 44.1875 33.984375 37.640625 27.21875 
Q 31.109375 20.453125 19.1875 8.296875 
z
" id="DejaVuSans-32"/>
       <path d="M 31.78125 66.40625 
Q 24.171875 66.40625 20.328125 58.90625 
Q 16.5 51.421875 16.5 36.375 
Q 16.5 21.390625 20.328125 13.890625 
Q 24.171875 6.390625 31.78125 6.390625 
Q 39.453125 6.390625 43.28125 13.890625 
Q 47.125 21.390625 47.125 36.375 
Q 47.125 51.421875 43.28125 58.90625 
Q 39.453125 66.40625 31.78125 66.40625 
z
M 31.78125 74.21875 
Q 44.046875 74.21875 50.515625 64.515625 
Q 56.984375 54.828125 56.984375 36.375 
Q 56.984375 17.96875 50.515625 8.265625 
Q 44.046875 -1.421875 31.78125 -1.421875 
Q 19.53125 -1.421875 13.0625 8.265625 
Q 6.59375 17.96875 6.59375 36.375 
Q 6.59375 54.828125 13.0625 64.515625 
Q 19.53125 74.21875 31.78125 74.21875 
z
" id="DejaVuSans-30"/>
       <path d="M 37.796875 64.3125 
L 12.890625 25.390625 
L 37.796875 25.390625 
z
M 35.203125 72.90625 
L 47.609375 72.90625 
L 47.609375 25.390625 
L 58.015625 25.390625 
L 58.015625 17.1875 
L 47.609375 17.1875 
L 47.609375 0 
L 37.796875 0 
L 37.796875 17.1875 
L 4.890625 17.1875 
L 4.890625 26.703125 
z
" id="DejaVuSans-34"/>
      </defs>
      <g transform="translate(64.337312 324.461937)scale(0.1 -0.1)">
       <use xlink:href="#DejaVuSans-32"/>
       <use x="63.623047" xlink:href="#DejaVuSans-30"/>
       <use x="127.246094" xlink:href="#DejaVuSans-30"/>
       <use x="190.869141" xlink:href="#DejaVuSans-34"/>
      </g>
     </g>
    </g>
    <g id="xtick_2">
     <g id="line2d_3">
      <path clip-path="url(#pc09cb4112b)" d="M 129.0539 309.8635 
L 129.0539 23.36505 
" style="fill:none;stroke:#b0b0b0;stroke-linecap:square;stroke-width:0.8;"/>
     </g>
     <g id="line2d_4">
      <g>
       <use style="stroke:#000000;stroke-width:0.8;" x="129.0539" xlink:href="#m2514cadf10" y="309.8635"/>
      </g>
     </g>
     <g id="text_2">
      <!-- 2006 -->
      <defs>
       <path d="M 33.015625 40.375 
Q 26.375 40.375 22.484375 35.828125 
Q 18.609375 31.296875 18.609375 23.390625 
Q 18.609375 15.53125 22.484375 10.953125 
Q 26.375 6.390625 33.015625 6.390625 
Q 39.65625 6.390625 43.53125 10.953125 
Q 47.40625 15.53125 47.40625 23.390625 
Q 47.40625 31.296875 43.53125 35.828125 
Q 39.65625 40.375 33.015625 40.375 
z
M 52.59375 71.296875 
L 52.59375 62.3125 
Q 48.875 64.0625 45.09375 64.984375 
Q 41.3125 65.921875 37.59375 65.921875 
Q 27.828125 65.921875 22.671875 59.328125 
Q 17.53125 52.734375 16.796875 39.40625 
Q 19.671875 43.65625 24.015625 45.921875 
Q 28.375 48.1875 33.59375 48.1875 
Q 44.578125 48.1875 50.953125 41.515625 
Q 57.328125 34.859375 57.328125 23.390625 
Q 57.328125 12.15625 50.6875 5.359375 
Q 44.046875 -1.421875 33.015625 -1.421875 
Q 20.359375 -1.421875 13.671875 8.265625 
Q 6.984375 17.96875 6.984375 36.375 
Q 6.984375 53.65625 15.1875 63.9375 
Q 23.390625 74.21875 37.203125 74.21875 
Q 40.921875 74.21875 44.703125 73.484375 
Q 48.484375 72.75 52.59375 71.296875 
z
" id="DejaVuSans-36"/>
      </defs>
      <g transform="translate(116.3289 324.461937)scale(0.1 -0.1)">
       <use xlink:href="#DejaVuSans-32"/>
       <use x="63.623047" xlink:href="#DejaVuSans-30"/>
       <use x="127.246094" xlink:href="#DejaVuSans-30"/>
       <use x="190.869141" xlink:href="#DejaVuSans-36"/>
      </g>
     </g>
    </g>
    <g id="xtick_3">
     <g id="line2d_5">
      <path clip-path="url(#pc09cb4112b)" d="M 180.974365 309.8635 
L 180.974365 23.36505 
" style="fill:none;stroke:#b0b0b0;stroke-linecap:square;stroke-width:0.8;"/>
     </g>
     <g id="line2d_6">
      <g>
       <use style="stroke:#000000;stroke-width:0.8;" x="180.974365" xlink:href="#m2514cadf10" y="309.8635"/>
      </g>
     </g>
     <g id="text_3">
      <!-- 2008 -->
      <defs>
       <path d="M 31.78125 34.625 
Q 24.75 34.625 20.71875 30.859375 
Q 16.703125 27.09375 16.703125 20.515625 
Q 16.703125 13.921875 20.71875 10.15625 
Q 24.75 6.390625 31.78125 6.390625 
Q 38.8125 6.390625 42.859375 10.171875 
Q 46.921875 13.96875 46.921875 20.515625 
Q 46.921875 27.09375 42.890625 30.859375 
Q 38.875 34.625 31.78125 34.625 
z
M 21.921875 38.8125 
Q 15.578125 40.375 12.03125 44.71875 
Q 8.5 49.078125 8.5 55.328125 
Q 8.5 64.0625 14.71875 69.140625 
Q 20.953125 74.21875 31.78125 74.21875 
Q 42.671875 74.21875 48.875 69.140625 
Q 55.078125 64.0625 55.078125 55.328125 
Q 55.078125 49.078125 51.53125 44.71875 
Q 48 40.375 41.703125 38.8125 
Q 48.828125 37.15625 52.796875 32.3125 
Q 56.78125 27.484375 56.78125 20.515625 
Q 56.78125 9.90625 50.3125 4.234375 
Q 43.84375 -1.421875 31.78125 -1.421875 
Q 19.734375 -1.421875 13.25 4.234375 
Q 6.78125 9.90625 6.78125 20.515625 
Q 6.78125 27.484375 10.78125 32.3125 
Q 14.796875 37.15625 21.921875 38.8125 
z
M 18.3125 54.390625 
Q 18.3125 48.734375 21.84375 45.5625 
Q 25.390625 42.390625 31.78125 42.390625 
Q 38.140625 42.390625 41.71875 45.5625 
Q 45.3125 48.734375 45.3125 54.390625 
Q 45.3125 60.0625 41.71875 63.234375 
Q 38.140625 66.40625 31.78125 66.40625 
Q 25.390625 66.40625 21.84375 63.234375 
Q 18.3125 60.0625 18.3125 54.390625 
z
" id="DejaVuSans-38"/>
      </defs>
      <g transform="translate(168.249365 324.461937)scale(0.1 -0.1)">
       <use xlink:href="#DejaVuSans-32"/>
       <use x="63.623047" xlink:href="#DejaVuSans-30"/>
       <use x="127.246094" xlink:href="#DejaVuSans-30"/>
       <use x="190.869141" xlink:href="#DejaVuSans-38"/>
      </g>
     </g>
    </g>
    <g id="xtick_4">
     <g id="line2d_7">
      <path clip-path="url(#pc09cb4112b)" d="M 232.965953 309.8635 
L 232.965953 23.36505 
" style="fill:none;stroke:#b0b0b0;stroke-linecap:square;stroke-width:0.8;"/>
     </g>
     <g id="line2d_8">
      <g>
       <use style="stroke:#000000;stroke-width:0.8;" x="232.965953" xlink:href="#m2514cadf10" y="309.8635"/>
      </g>
     </g>
     <g id="text_4">
      <!-- 2010 -->
      <defs>
       <path d="M 12.40625 8.296875 
L 28.515625 8.296875 
L 28.515625 63.921875 
L 10.984375 60.40625 
L 10.984375 69.390625 
L 28.421875 72.90625 
L 38.28125 72.90625 
L 38.28125 8.296875 
L 54.390625 8.296875 
L 54.390625 0 
L 12.40625 0 
z
" id="DejaVuSans-31"/>
      </defs>
      <g transform="translate(220.240953 324.461937)scale(0.1 -0.1)">
       <use xlink:href="#DejaVuSans-32"/>
       <use x="63.623047" xlink:href="#DejaVuSans-30"/>
       <use x="127.246094" xlink:href="#DejaVuSans-31"/>
       <use x="190.869141" xlink:href="#DejaVuSans-30"/>
      </g>
     </g>
    </g>
    <g id="xtick_5">
     <g id="line2d_9">
      <path clip-path="url(#pc09cb4112b)" d="M 284.886418 309.8635 
L 284.886418 23.36505 
" style="fill:none;stroke:#b0b0b0;stroke-linecap:square;stroke-width:0.8;"/>
     </g>
     <g id="line2d_10">
      <g>
       <use style="stroke:#000000;stroke-width:0.8;" x="284.886418" xlink:href="#m2514cadf10" y="309.8635"/>
      </g>
     </g>
     <g id="text_5">
      <!-- 2012 -->
      <g transform="translate(272.161418 324.461937)scale(0.1 -0.1)">
       <use xlink:href="#DejaVuSans-32"/>
       <use x="63.623047" xlink:href="#DejaVuSans-30"/>
       <use x="127.246094" xlink:href="#DejaVuSans-31"/>
       <use x="190.869141" xlink:href="#DejaVuSans-32"/>
      </g>
     </g>
    </g>
    <g id="xtick_6">
     <g id="line2d_11">
      <path clip-path="url(#pc09cb4112b)" d="M 336.878007 309.8635 
L 336.878007 23.36505 
" style="fill:none;stroke:#b0b0b0;stroke-linecap:square;stroke-width:0.8;"/>
     </g>
     <g id="line2d_12">
      <g>
       <use style="stroke:#000000;stroke-width:0.8;" x="336.878007" xlink:href="#m2514cadf10" y="309.8635"/>
      </g>
     </g>
     <g id="text_6">
      <!-- 2014 -->
      <g transform="translate(324.153007 324.461937)scale(0.1 -0.1)">
       <use xlink:href="#DejaVuSans-32"/>
       <use x="63.623047" xlink:href="#DejaVuSans-30"/>
       <use x="127.246094" xlink:href="#DejaVuSans-31"/>
       <use x="190.869141" xlink:href="#DejaVuSans-34"/>
      </g>
     </g>
    </g>
    <g id="xtick_7">
     <g id="line2d_13">
      <path clip-path="url(#pc09cb4112b)" d="M 388.798471 309.8635 
L 388.798471 23.36505 
" style="fill:none;stroke:#b0b0b0;stroke-linecap:square;stroke-width:0.8;"/>
     </g>
     <g id="line2d_14">
      <g>
       <use style="stroke:#000000;stroke-width:0.8;" x="388.798471" xlink:href="#m2514cadf10" y="309.8635"/>
      </g>
     </g>
     <g id="text_7">
      <!-- 2016 -->
      <g transform="translate(376.073471 324.461937)scale(0.1 -0.1)">
       <use xlink:href="#DejaVuSans-32"/>
       <use x="63.623047" xlink:href="#DejaVuSans-30"/>
       <use x="127.246094" xlink:href="#DejaVuSans-31"/>
       <use x="190.869141" xlink:href="#DejaVuSans-36"/>
      </g>
     </g>
    </g>
    <g id="xtick_8">
     <g id="line2d_15">
      <path clip-path="url(#pc09cb4112b)" d="M 440.79006 309.8635 
L 440.79006 23.36505 
" style="fill:none;stroke:#b0b0b0;stroke-linecap:square;stroke-width:0.8;"/>
     </g>
     <g id="line2d_16">
      <g>
       <use style="stroke:#000000;stroke-width:0.8;" x="440.79006" xlink:href="#m2514cadf10" y="309.8635"/>
      </g>
     </g>
     <g id="text_8">
      <!-- 2018 -->
      <g transform="translate(428.06506 324.461937)scale(0.1 -0.1)">
       <use xlink:href="#DejaVuSans-32"/>
       <use x="63.623047" xlink:href="#DejaVuSans-30"/>
       <use x="127.246094" xlink:href="#DejaVuSans-31"/>
       <use x="190.869141" xlink:href="#DejaVuSans-38"/>
      </g>
     </g>
    </g>
    <g id="text_9">
     <!-- Date -->
     <defs>
      <path d="M 19.671875 64.796875 
L 19.671875 8.109375 
L 31.59375 8.109375 
Q 46.6875 8.109375 53.6875 14.9375 
Q 60.6875 21.78125 60.6875 36.53125 
Q 60.6875 51.171875 53.6875 57.984375 
Q 46.6875 64.796875 31.59375 64.796875 
z
M 9.8125 72.90625 
L 30.078125 72.90625 
Q 51.265625 72.90625 61.171875 64.09375 
Q 71.09375 55.28125 71.09375 36.53125 
Q 71.09375 17.671875 61.125 8.828125 
Q 51.171875 0 30.078125 0 
L 9.8125 0 
z
" id="DejaVuSans-44"/>
      <path d="M 34.28125 27.484375 
Q 23.390625 27.484375 19.1875 25 
Q 14.984375 22.515625 14.984375 16.5 
Q 14.984375 11.71875 18.140625 8.90625 
Q 21.296875 6.109375 26.703125 6.109375 
Q 34.1875 6.109375 38.703125 11.40625 
Q 43.21875 16.703125 43.21875 25.484375 
L 43.21875 27.484375 
z
M 52.203125 31.203125 
L 52.203125 0 
L 43.21875 0 
L 43.21875 8.296875 
Q 40.140625 3.328125 35.546875 0.953125 
Q 30.953125 -1.421875 24.3125 -1.421875 
Q 15.921875 -1.421875 10.953125 3.296875 
Q 6 8.015625 6 15.921875 
Q 6 25.140625 12.171875 29.828125 
Q 18.359375 34.515625 30.609375 34.515625 
L 43.21875 34.515625 
L 43.21875 35.40625 
Q 43.21875 41.609375 39.140625 45 
Q 35.0625 48.390625 27.6875 48.390625 
Q 23 48.390625 18.546875 47.265625 
Q 14.109375 46.140625 10.015625 43.890625 
L 10.015625 52.203125 
Q 14.9375 54.109375 19.578125 55.046875 
Q 24.21875 56 28.609375 56 
Q 40.484375 56 46.34375 49.84375 
Q 52.203125 43.703125 52.203125 31.203125 
z
" id="DejaVuSans-61"/>
      <path d="M 18.3125 70.21875 
L 18.3125 54.6875 
L 36.8125 54.6875 
L 36.8125 47.703125 
L 18.3125 47.703125 
L 18.3125 18.015625 
Q 18.3125 11.328125 20.140625 9.421875 
Q 21.96875 7.515625 27.59375 7.515625 
L 36.8125 7.515625 
L 36.8125 0 
L 27.59375 0 
Q 17.1875 0 13.234375 3.875 
Q 9.28125 7.765625 9.28125 18.015625 
L 9.28125 47.703125 
L 2.6875 47.703125 
L 2.6875 54.6875 
L 9.28125 54.6875 
L 9.28125 70.21875 
z
" id="DejaVuSans-74"/>
      <path d="M 56.203125 29.59375 
L 56.203125 25.203125 
L 14.890625 25.203125 
Q 15.484375 15.921875 20.484375 11.0625 
Q 25.484375 6.203125 34.421875 6.203125 
Q 39.59375 6.203125 44.453125 7.46875 
Q 49.3125 8.734375 54.109375 11.28125 
L 54.109375 2.78125 
Q 49.265625 0.734375 44.1875 -0.34375 
Q 39.109375 -1.421875 33.890625 -1.421875 
Q 20.796875 -1.421875 13.15625 6.1875 
Q 5.515625 13.8125 5.515625 26.8125 
Q 5.515625 40.234375 12.765625 48.109375 
Q 20.015625 56 32.328125 56 
Q 43.359375 56 49.78125 48.890625 
Q 56.203125 41.796875 56.203125 29.59375 
z
M 47.21875 32.234375 
Q 47.125 39.59375 43.09375 43.984375 
Q 39.0625 48.390625 32.421875 48.390625 
Q 24.90625 48.390625 20.390625 44.140625 
Q 15.875 39.890625 15.1875 32.171875 
z
" id="DejaVuSans-65"/>
     </defs>
     <g transform="translate(226.313905 338.140062)scale(0.1 -0.1)">
      <use xlink:href="#DejaVuSans-44"/>
      <use x="77.001953" xlink:href="#DejaVuSans-61"/>
      <use x="138.28125" xlink:href="#DejaVuSans-74"/>
      <use x="177.490234" xlink:href="#DejaVuSans-65"/>
     </g>
    </g>
   </g>
   <g id="matplotlib.axis_2">
    <g id="ytick_1">
     <g id="line2d_17">
      <path clip-path="url(#pc09cb4112b)" d="M 31.543 309.8635 
L 444.986372 309.8635 
" style="fill:none;stroke:#b0b0b0;stroke-linecap:square;stroke-width:0.8;"/>
     </g>
     <g id="line2d_18">
      <defs>
       <path d="M 0 0 
L -3.5 0 
" id="ma2591b7c23" style="stroke:#000000;stroke-width:0.8;"/>
      </defs>
      <g>
       <use style="stroke:#000000;stroke-width:0.8;" x="31.543" xlink:href="#ma2591b7c23" y="309.8635"/>
      </g>
     </g>
     <g id="text_10">
      <!-- 0 -->
      <g transform="translate(18.1805 313.662719)scale(0.1 -0.1)">
       <use xlink:href="#DejaVuSans-30"/>
      </g>
     </g>
    </g>
    <g id="ytick_2">
     <g id="line2d_19">
      <path clip-path="url(#pc09cb4112b)" d="M 31.543 264.613804 
L 444.986372 264.613804 
" style="fill:none;stroke:#b0b0b0;stroke-linecap:square;stroke-width:0.8;"/>
     </g>
     <g id="line2d_20">
      <g>
       <use style="stroke:#000000;stroke-width:0.8;" x="31.543" xlink:href="#ma2591b7c23" y="264.613804"/>
      </g>
     </g>
     <g id="text_11">
      <!-- 100 -->
      <g transform="translate(5.4555 268.413023)scale(0.1 -0.1)">
       <use xlink:href="#DejaVuSans-31"/>
       <use x="63.623047" xlink:href="#DejaVuSans-30"/>
       <use x="127.246094" xlink:href="#DejaVuSans-30"/>
      </g>
     </g>
    </g>
    <g id="ytick_3">
     <g id="line2d_21">
      <path clip-path="url(#pc09cb4112b)" d="M 31.543 219.364108 
L 444.986372 219.364108 
" style="fill:none;stroke:#b0b0b0;stroke-linecap:square;stroke-width:0.8;"/>
     </g>
     <g id="line2d_22">
      <g>
       <use style="stroke:#000000;stroke-width:0.8;" x="31.543" xlink:href="#ma2591b7c23" y="219.364108"/>
      </g>
     </g>
     <g id="text_12">
      <!-- 200 -->
      <g transform="translate(5.4555 223.163327)scale(0.1 -0.1)">
       <use xlink:href="#DejaVuSans-32"/>
       <use x="63.623047" xlink:href="#DejaVuSans-30"/>
       <use x="127.246094" xlink:href="#DejaVuSans-30"/>
      </g>
     </g>
    </g>
    <g id="ytick_4">
     <g id="line2d_23">
      <path clip-path="url(#pc09cb4112b)" d="M 31.543 174.114412 
L 444.986372 174.114412 
" style="fill:none;stroke:#b0b0b0;stroke-linecap:square;stroke-width:0.8;"/>
     </g>
     <g id="line2d_24">
      <g>
       <use style="stroke:#000000;stroke-width:0.8;" x="31.543" xlink:href="#ma2591b7c23" y="174.114412"/>
      </g>
     </g>
     <g id="text_13">
      <!-- 300 -->
      <defs>
       <path d="M 40.578125 39.3125 
Q 47.65625 37.796875 51.625 33 
Q 55.609375 28.21875 55.609375 21.1875 
Q 55.609375 10.40625 48.1875 4.484375 
Q 40.765625 -1.421875 27.09375 -1.421875 
Q 22.515625 -1.421875 17.65625 -0.515625 
Q 12.796875 0.390625 7.625 2.203125 
L 7.625 11.71875 
Q 11.71875 9.328125 16.59375 8.109375 
Q 21.484375 6.890625 26.8125 6.890625 
Q 36.078125 6.890625 40.9375 10.546875 
Q 45.796875 14.203125 45.796875 21.1875 
Q 45.796875 27.640625 41.28125 31.265625 
Q 36.765625 34.90625 28.71875 34.90625 
L 20.21875 34.90625 
L 20.21875 43.015625 
L 29.109375 43.015625 
Q 36.375 43.015625 40.234375 45.921875 
Q 44.09375 48.828125 44.09375 54.296875 
Q 44.09375 59.90625 40.109375 62.90625 
Q 36.140625 65.921875 28.71875 65.921875 
Q 24.65625 65.921875 20.015625 65.03125 
Q 15.375 64.15625 9.8125 62.3125 
L 9.8125 71.09375 
Q 15.4375 72.65625 20.34375 73.4375 
Q 25.25 74.21875 29.59375 74.21875 
Q 40.828125 74.21875 47.359375 69.109375 
Q 53.90625 64.015625 53.90625 55.328125 
Q 53.90625 49.265625 50.4375 45.09375 
Q 46.96875 40.921875 40.578125 39.3125 
z
" id="DejaVuSans-33"/>
      </defs>
      <g transform="translate(5.4555 177.913631)scale(0.1 -0.1)">
       <use xlink:href="#DejaVuSans-33"/>
       <use x="63.623047" xlink:href="#DejaVuSans-30"/>
       <use x="127.246094" xlink:href="#DejaVuSans-30"/>
      </g>
     </g>
    </g>
    <g id="ytick_5">
     <g id="line2d_25">
      <path clip-path="url(#pc09cb4112b)" d="M 31.543 128.864716 
L 444.986372 128.864716 
" style="fill:none;stroke:#b0b0b0;stroke-linecap:square;stroke-width:0.8;"/>
     </g>
     <g id="line2d_26">
      <g>
       <use style="stroke:#000000;stroke-width:0.8;" x="31.543" xlink:href="#ma2591b7c23" y="128.864716"/>
      </g>
     </g>
     <g id="text_14">
      <!-- 400 -->
      <g transform="translate(5.4555 132.663935)scale(0.1 -0.1)">
       <use xlink:href="#DejaVuSans-34"/>
       <use x="63.623047" xlink:href="#DejaVuSans-30"/>
       <use x="127.246094" xlink:href="#DejaVuSans-30"/>
      </g>
     </g>
    </g>
    <g id="ytick_6">
     <g id="line2d_27">
      <path clip-path="url(#pc09cb4112b)" d="M 31.543 83.61502 
L 444.986372 83.61502 
" style="fill:none;stroke:#b0b0b0;stroke-linecap:square;stroke-width:0.8;"/>
     </g>
     <g id="line2d_28">
      <g>
       <use style="stroke:#000000;stroke-width:0.8;" x="31.543" xlink:href="#ma2591b7c23" y="83.61502"/>
      </g>
     </g>
     <g id="text_15">
      <!-- 500 -->
      <defs>
       <path d="M 10.796875 72.90625 
L 49.515625 72.90625 
L 49.515625 64.59375 
L 19.828125 64.59375 
L 19.828125 46.734375 
Q 21.96875 47.46875 24.109375 47.828125 
Q 26.265625 48.1875 28.421875 48.1875 
Q 40.625 48.1875 47.75 41.5 
Q 54.890625 34.8125 54.890625 23.390625 
Q 54.890625 11.625 47.5625 5.09375 
Q 40.234375 -1.421875 26.90625 -1.421875 
Q 22.3125 -1.421875 17.546875 -0.640625 
Q 12.796875 0.140625 7.71875 1.703125 
L 7.71875 11.625 
Q 12.109375 9.234375 16.796875 8.0625 
Q 21.484375 6.890625 26.703125 6.890625 
Q 35.15625 6.890625 40.078125 11.328125 
Q 45.015625 15.765625 45.015625 23.390625 
Q 45.015625 31 40.078125 35.4375 
Q 35.15625 39.890625 26.703125 39.890625 
Q 22.75 39.890625 18.8125 39.015625 
Q 14.890625 38.140625 10.796875 36.28125 
z
" id="DejaVuSans-35"/>
      </defs>
      <g transform="translate(5.4555 87.414239)scale(0.1 -0.1)">
       <use xlink:href="#DejaVuSans-35"/>
       <use x="63.623047" xlink:href="#DejaVuSans-30"/>
       <use x="127.246094" xlink:href="#DejaVuSans-30"/>
      </g>
     </g>
    </g>
    <g id="ytick_7">
     <g id="line2d_29">
      <path clip-path="url(#pc09cb4112b)" d="M 31.543 38.365324 
L 444.986372 38.365324 
" style="fill:none;stroke:#b0b0b0;stroke-linecap:square;stroke-width:0.8;"/>
     </g>
     <g id="line2d_30">
      <g>
       <use style="stroke:#000000;stroke-width:0.8;" x="31.543" xlink:href="#ma2591b7c23" y="38.365324"/>
      </g>
     </g>
     <g id="text_16">
      <!-- 600 -->
      <g transform="translate(5.4555 42.164543)scale(0.1 -0.1)">
       <use xlink:href="#DejaVuSans-36"/>
       <use x="63.623047" xlink:href="#DejaVuSans-30"/>
       <use x="127.246094" xlink:href="#DejaVuSans-30"/>
      </g>
     </g>
    </g>
   </g>
   <g id="line2d_31">
    <path clip-path="url(#pc09cb4112b)" d="M 31.543 309.8635 
L 35.881559 309.8635 
L 38.015277 218.232866 
L 40.220119 228.866544 
L 42.42496 293.799858 
L 44.558678 309.8635 
L 61.841792 309.8635 
L 63.975509 183.616848 
L 66.180351 182.711854 
L 68.385193 206.920442 
L 70.51891 234.070259 
L 72.723752 309.8635 
L 74.85747 309.8635 
L 77.062312 246.061429 
L 79.267153 241.083962 
L 81.329747 309.8635 
L 83.534589 309.8635 
L 85.668306 251.943889 
L 87.873148 309.184755 
L 90.006866 224.567823 
L 92.211707 260.541331 
L 94.416549 309.8635 
L 98.755108 309.8635 
L 100.888826 242.89395 
L 103.093668 309.8635 
L 105.298509 266.876289 
L 107.289979 309.8635 
L 113.83338 309.8635 
L 115.967098 245.382683 
L 118.17194 209.861672 
L 120.376781 232.48652 
L 122.510499 251.491392 
L 124.715341 309.8635 
L 126.849058 256.016362 
L 129.0539 309.8635 
L 135.455053 309.8635 
L 137.588771 294.9311 
L 139.793613 114.384813 
L 141.92733 102.619892 
L 144.132172 107.597359 
L 146.337014 111.669832 
L 148.470731 100.357408 
L 150.675573 309.8635 
L 163.549003 309.8635 
L 165.753845 119.588528 
L 167.887563 89.044984 
L 170.092404 89.949978 
L 172.297246 108.95485 
L 174.430964 202.621721 
L 176.635805 222.531587 
L 178.769523 309.8635 
L 185.2418 309.8635 
L 187.446642 286.333658 
L 189.58036 309.8635 
L 191.785201 309.8635 
L 193.918919 204.884205 
L 196.123761 142.439625 
L 198.328602 309.8635 
L 200.46232 205.789199 
L 202.667162 309.8635 
L 217.745434 309.8635 
L 219.879151 201.037981 
L 222.083993 110.312341 
L 224.288835 309.8635 
L 226.422552 216.196629 
L 228.627394 309.8635 
L 241.500824 309.8635 
L 243.705666 162.349491 
L 245.839384 127.959722 
L 248.044225 116.194801 
L 250.249067 132.484692 
L 252.382785 309.8635 
L 267.461057 309.8635 
L 269.665898 158.277019 
L 271.799616 106.918614 
L 274.004458 101.036153 
L 276.209299 143.797116 
L 278.343017 309.8635 
L 291.358695 309.8635 
L 293.492413 158.503267 
L 295.697255 143.570867 
L 297.830972 122.529759 
L 300.035814 96.058687 
L 302.240656 119.588528 
L 304.374373 137.688407 
L 306.579215 309.8635 
L 319.452645 309.8635 
L 321.657487 151.942061 
L 323.791205 138.140904 
L 325.996046 136.104667 
L 328.200888 166.421964 
L 330.334606 223.889078 
L 332.539447 309.8635 
L 343.27916 309.8635 
L 345.412878 234.749005 
L 347.617719 162.801988 
L 349.751437 164.611976 
L 351.956279 161.444497 
L 354.16112 165.064473 
L 356.294838 164.611976 
L 358.49968 309.8635 
L 371.37311 309.8635 
L 373.577952 141.987128 
L 375.711669 141.082134 
L 377.916511 132.032195 
L 380.121353 129.76971 
L 382.25507 144.249613 
L 384.459912 204.884205 
L 386.59363 309.8635 
L 395.270749 309.8635 
L 397.404466 124.113498 
L 399.609308 128.185971 
L 401.743026 109.407347 
L 403.947867 105.787371 
L 406.152709 110.086092 
L 408.286427 149.679576 
L 410.491268 309.8635 
L 421.230981 309.8635 
L 423.364699 132.937189 
L 425.56954 134.747177 
L 427.703258 88.366238 
L 429.9081 82.257529 
L 432.112941 85.425008 
L 434.246659 85.425008 
L 436.451501 309.8635 
L 444.986372 309.8635 
L 444.986372 309.8635 
" style="fill:none;stroke:#1f77b4;stroke-linecap:square;stroke-width:1.5;"/>
   </g>
   <g id="patch_3">
    <path d="M 31.543 309.8635 
L 31.543 23.36505 
" style="fill:none;stroke:#000000;stroke-linecap:square;stroke-linejoin:miter;stroke-width:0.8;"/>
   </g>
   <g id="patch_4">
    <path d="M 444.986372 309.8635 
L 444.986372 23.36505 
" style="fill:none;stroke:#000000;stroke-linecap:square;stroke-linejoin:miter;stroke-width:0.8;"/>
   </g>
   <g id="patch_5">
    <path d="M 31.543 309.8635 
L 444.986372 309.8635 
" style="fill:none;stroke:#000000;stroke-linecap:square;stroke-linejoin:miter;stroke-width:0.8;"/>
   </g>
   <g id="patch_6">
    <path d="M 31.543 23.36505 
L 444.986372 23.36505 
" style="fill:none;stroke:#000000;stroke-linecap:square;stroke-linejoin:miter;stroke-width:0.8;"/>
   </g>
   <g id="text_17">
    <!-- Monthly gross load trend (MW) -->
    <defs>
     <path d="M 9.8125 72.90625 
L 24.515625 72.90625 
L 43.109375 23.296875 
L 61.8125 72.90625 
L 76.515625 72.90625 
L 76.515625 0 
L 66.890625 0 
L 66.890625 64.015625 
L 48.09375 14.015625 
L 38.1875 14.015625 
L 19.390625 64.015625 
L 19.390625 0 
L 9.8125 0 
z
" id="DejaVuSans-4d"/>
     <path d="M 30.609375 48.390625 
Q 23.390625 48.390625 19.1875 42.75 
Q 14.984375 37.109375 14.984375 27.296875 
Q 14.984375 17.484375 19.15625 11.84375 
Q 23.34375 6.203125 30.609375 6.203125 
Q 37.796875 6.203125 41.984375 11.859375 
Q 46.1875 17.53125 46.1875 27.296875 
Q 46.1875 37.015625 41.984375 42.703125 
Q 37.796875 48.390625 30.609375 48.390625 
z
M 30.609375 56 
Q 42.328125 56 49.015625 48.375 
Q 55.71875 40.765625 55.71875 27.296875 
Q 55.71875 13.875 49.015625 6.21875 
Q 42.328125 -1.421875 30.609375 -1.421875 
Q 18.84375 -1.421875 12.171875 6.21875 
Q 5.515625 13.875 5.515625 27.296875 
Q 5.515625 40.765625 12.171875 48.375 
Q 18.84375 56 30.609375 56 
z
" id="DejaVuSans-6f"/>
     <path d="M 54.890625 33.015625 
L 54.890625 0 
L 45.90625 0 
L 45.90625 32.71875 
Q 45.90625 40.484375 42.875 44.328125 
Q 39.84375 48.1875 33.796875 48.1875 
Q 26.515625 48.1875 22.3125 43.546875 
Q 18.109375 38.921875 18.109375 30.90625 
L 18.109375 0 
L 9.078125 0 
L 9.078125 54.6875 
L 18.109375 54.6875 
L 18.109375 46.1875 
Q 21.34375 51.125 25.703125 53.5625 
Q 30.078125 56 35.796875 56 
Q 45.21875 56 50.046875 50.171875 
Q 54.890625 44.34375 54.890625 33.015625 
z
" id="DejaVuSans-6e"/>
     <path d="M 54.890625 33.015625 
L 54.890625 0 
L 45.90625 0 
L 45.90625 32.71875 
Q 45.90625 40.484375 42.875 44.328125 
Q 39.84375 48.1875 33.796875 48.1875 
Q 26.515625 48.1875 22.3125 43.546875 
Q 18.109375 38.921875 18.109375 30.90625 
L 18.109375 0 
L 9.078125 0 
L 9.078125 75.984375 
L 18.109375 75.984375 
L 18.109375 46.1875 
Q 21.34375 51.125 25.703125 53.5625 
Q 30.078125 56 35.796875 56 
Q 45.21875 56 50.046875 50.171875 
Q 54.890625 44.34375 54.890625 33.015625 
z
" id="DejaVuSans-68"/>
     <path d="M 9.421875 75.984375 
L 18.40625 75.984375 
L 18.40625 0 
L 9.421875 0 
z
" id="DejaVuSans-6c"/>
     <path d="M 32.171875 -5.078125 
Q 28.375 -14.84375 24.75 -17.8125 
Q 21.140625 -20.796875 15.09375 -20.796875 
L 7.90625 -20.796875 
L 7.90625 -13.28125 
L 13.1875 -13.28125 
Q 16.890625 -13.28125 18.9375 -11.515625 
Q 21 -9.765625 23.484375 -3.21875 
L 25.09375 0.875 
L 2.984375 54.6875 
L 12.5 54.6875 
L 29.59375 11.921875 
L 46.6875 54.6875 
L 56.203125 54.6875 
z
" id="DejaVuSans-79"/>
     <path id="DejaVuSans-20"/>
     <path d="M 45.40625 27.984375 
Q 45.40625 37.75 41.375 43.109375 
Q 37.359375 48.484375 30.078125 48.484375 
Q 22.859375 48.484375 18.828125 43.109375 
Q 14.796875 37.75 14.796875 27.984375 
Q 14.796875 18.265625 18.828125 12.890625 
Q 22.859375 7.515625 30.078125 7.515625 
Q 37.359375 7.515625 41.375 12.890625 
Q 45.40625 18.265625 45.40625 27.984375 
z
M 54.390625 6.78125 
Q 54.390625 -7.171875 48.1875 -13.984375 
Q 42 -20.796875 29.203125 -20.796875 
Q 24.46875 -20.796875 20.265625 -20.09375 
Q 16.0625 -19.390625 12.109375 -17.921875 
L 12.109375 -9.1875 
Q 16.0625 -11.328125 19.921875 -12.34375 
Q 23.78125 -13.375 27.78125 -13.375 
Q 36.625 -13.375 41.015625 -8.765625 
Q 45.40625 -4.15625 45.40625 5.171875 
L 45.40625 9.625 
Q 42.625 4.78125 38.28125 2.390625 
Q 33.9375 0 27.875 0 
Q 17.828125 0 11.671875 7.65625 
Q 5.515625 15.328125 5.515625 27.984375 
Q 5.515625 40.671875 11.671875 48.328125 
Q 17.828125 56 27.875 56 
Q 33.9375 56 38.28125 53.609375 
Q 42.625 51.21875 45.40625 46.390625 
L 45.40625 54.6875 
L 54.390625 54.6875 
z
" id="DejaVuSans-67"/>
     <path d="M 41.109375 46.296875 
Q 39.59375 47.171875 37.8125 47.578125 
Q 36.03125 48 33.890625 48 
Q 26.265625 48 22.1875 43.046875 
Q 18.109375 38.09375 18.109375 28.8125 
L 18.109375 0 
L 9.078125 0 
L 9.078125 54.6875 
L 18.109375 54.6875 
L 18.109375 46.1875 
Q 20.953125 51.171875 25.484375 53.578125 
Q 30.03125 56 36.53125 56 
Q 37.453125 56 38.578125 55.875 
Q 39.703125 55.765625 41.0625 55.515625 
z
" id="DejaVuSans-72"/>
     <path d="M 44.28125 53.078125 
L 44.28125 44.578125 
Q 40.484375 46.53125 36.375 47.5 
Q 32.28125 48.484375 27.875 48.484375 
Q 21.1875 48.484375 17.84375 46.4375 
Q 14.5 44.390625 14.5 40.28125 
Q 14.5 37.15625 16.890625 35.375 
Q 19.28125 33.59375 26.515625 31.984375 
L 29.59375 31.296875 
Q 39.15625 29.25 43.1875 25.515625 
Q 47.21875 21.78125 47.21875 15.09375 
Q 47.21875 7.46875 41.1875 3.015625 
Q 35.15625 -1.421875 24.609375 -1.421875 
Q 20.21875 -1.421875 15.453125 -0.5625 
Q 10.6875 0.296875 5.421875 2 
L 5.421875 11.28125 
Q 10.40625 8.6875 15.234375 7.390625 
Q 20.0625 6.109375 24.8125 6.109375 
Q 31.15625 6.109375 34.5625 8.28125 
Q 37.984375 10.453125 37.984375 14.40625 
Q 37.984375 18.0625 35.515625 20.015625 
Q 33.0625 21.96875 24.703125 23.78125 
L 21.578125 24.515625 
Q 13.234375 26.265625 9.515625 29.90625 
Q 5.8125 33.546875 5.8125 39.890625 
Q 5.8125 47.609375 11.28125 51.796875 
Q 16.75 56 26.8125 56 
Q 31.78125 56 36.171875 55.265625 
Q 40.578125 54.546875 44.28125 53.078125 
z
" id="DejaVuSans-73"/>
     <path d="M 45.40625 46.390625 
L 45.40625 75.984375 
L 54.390625 75.984375 
L 54.390625 0 
L 45.40625 0 
L 45.40625 8.203125 
Q 42.578125 3.328125 38.25 0.953125 
Q 33.9375 -1.421875 27.875 -1.421875 
Q 17.96875 -1.421875 11.734375 6.484375 
Q 5.515625 14.40625 5.515625 27.296875 
Q 5.515625 40.1875 11.734375 48.09375 
Q 17.96875 56 27.875 56 
Q 33.9375 56 38.25 53.625 
Q 42.578125 51.265625 45.40625 46.390625 
z
M 14.796875 27.296875 
Q 14.796875 17.390625 18.875 11.75 
Q 22.953125 6.109375 30.078125 6.109375 
Q 37.203125 6.109375 41.296875 11.75 
Q 45.40625 17.390625 45.40625 27.296875 
Q 45.40625 37.203125 41.296875 42.84375 
Q 37.203125 48.484375 30.078125 48.484375 
Q 22.953125 48.484375 18.875 42.84375 
Q 14.796875 37.203125 14.796875 27.296875 
z
" id="DejaVuSans-64"/>
     <path d="M 31 75.875 
Q 24.46875 64.65625 21.28125 53.65625 
Q 18.109375 42.671875 18.109375 31.390625 
Q 18.109375 20.125 21.3125 9.0625 
Q 24.515625 -2 31 -13.1875 
L 23.1875 -13.1875 
Q 15.875 -1.703125 12.234375 9.375 
Q 8.59375 20.453125 8.59375 31.390625 
Q 8.59375 42.28125 12.203125 53.3125 
Q 15.828125 64.359375 23.1875 75.875 
z
" id="DejaVuSans-28"/>
     <path d="M 3.328125 72.90625 
L 13.28125 72.90625 
L 28.609375 11.28125 
L 43.890625 72.90625 
L 54.984375 72.90625 
L 70.3125 11.28125 
L 85.59375 72.90625 
L 95.609375 72.90625 
L 77.296875 0 
L 64.890625 0 
L 49.515625 63.28125 
L 33.984375 0 
L 21.578125 0 
z
" id="DejaVuSans-57"/>
     <path d="M 8.015625 75.875 
L 15.828125 75.875 
Q 23.140625 64.359375 26.78125 53.3125 
Q 30.421875 42.28125 30.421875 31.390625 
Q 30.421875 20.453125 26.78125 9.375 
Q 23.140625 -1.703125 15.828125 -13.1875 
L 8.015625 -13.1875 
Q 14.5 -2 17.703125 9.0625 
Q 20.90625 20.125 20.90625 31.390625 
Q 20.90625 42.671875 17.703125 53.65625 
Q 14.5 64.65625 8.015625 75.875 
z
" id="DejaVuSans-29"/>
    </defs>
    <g transform="translate(145.681873 17.36505)scale(0.12 -0.12)">
     <use xlink:href="#DejaVuSans-4d"/>
     <use x="86.279297" xlink:href="#DejaVuSans-6f"/>
     <use x="147.460938" xlink:href="#DejaVuSans-6e"/>
     <use x="210.839844" xlink:href="#DejaVuSans-74"/>
     <use x="250.048828" xlink:href="#DejaVuSans-68"/>
     <use x="313.427734" xlink:href="#DejaVuSans-6c"/>
     <use x="341.210938" xlink:href="#DejaVuSans-79"/>
     <use x="400.390625" xlink:href="#DejaVuSans-20"/>
     <use x="432.177734" xlink:href="#DejaVuSans-67"/>
     <use x="495.654297" xlink:href="#DejaVuSans-72"/>
     <use x="536.736328" xlink:href="#DejaVuSans-6f"/>
     <use x="597.917969" xlink:href="#DejaVuSans-73"/>
     <use x="650.017578" xlink:href="#DejaVuSans-73"/>
     <use x="702.117188" xlink:href="#DejaVuSans-20"/>
     <use x="733.904297" xlink:href="#DejaVuSans-6c"/>
     <use x="761.6875" xlink:href="#DejaVuSans-6f"/>
     <use x="822.869141" xlink:href="#DejaVuSans-61"/>
     <use x="884.148438" xlink:href="#DejaVuSans-64"/>
     <use x="947.625" xlink:href="#DejaVuSans-20"/>
     <use x="979.412109" xlink:href="#DejaVuSans-74"/>
     <use x="1018.621094" xlink:href="#DejaVuSans-72"/>
     <use x="1059.703125" xlink:href="#DejaVuSans-65"/>
     <use x="1121.226562" xlink:href="#DejaVuSans-6e"/>
     <use x="1184.605469" xlink:href="#DejaVuSans-64"/>
     <use x="1248.082031" xlink:href="#DejaVuSans-20"/>
     <use x="1279.869141" xlink:href="#DejaVuSans-28"/>
     <use x="1318.882812" xlink:href="#DejaVuSans-4d"/>
     <use x="1405.162109" xlink:href="#DejaVuSans-57"/>
     <use x="1504.039062" xlink:href="#DejaVuSans-29"/>
    </g>
   </g>
  </g>
 </g>
 <defs>
  <clipPath id="pc09cb4112b">
   <rect height="286.49845" width="413.443372" x="31.543" y="23.36505"/>
  </clipPath>
 </defs>
</svg>
