<?xml version="1.0" encoding="utf-8" standalone="no"?>
<!DOCTYPE svg PUBLIC "-//W3C//DTD SVG 1.1//EN"
  "http://www.w3.org/Graphics/SVG/1.1/DTD/svg11.dtd">
<!-- Created with matplotlib (http://matplotlib.org/) -->
<svg height="345.6pt" version="1.1" viewBox="0 0 460.8 345.6" width="460.8pt" xmlns="http://www.w3.org/2000/svg" xmlns:xlink="http://www.w3.org/1999/xlink">
 <defs>
  <style type="text/css">
*{stroke-linecap:butt;stroke-linejoin:round;}
  </style>
 </defs>
 <g id="figure_1">
  <g id="patch_1">
   <path d="M 0 345.6 
L 460.8 345.6 
L 460.8 0 
L 0 0 
z
" style="fill:none;"/>
  </g>
  <g id="axes_1">
   <g id="patch_2">
    <path d="M 31.543 309.8635 
L 446.014456 309.8635 
L 446.014456 23.36505 
L 31.543 23.36505 
z
" style="fill:none;"/>
   </g>
   <g id="PolyCollection_1">
    <path clip-path="url(#pc58e8a5e2f)" d="M 31.543 226.528272 
L 31.543 309.8635 
L 34.179028 309.8635 
L 36.902923 309.8635 
L 39.538951 309.8635 
L 42.262847 165.594987 
L 44.986742 221.151805 
L 47.62277 228.320427 
L 50.346666 309.8635 
L 52.982694 309.8635 
L 55.706589 309.8635 
L 58.430485 309.8635 
L 60.890777 309.8635 
L 63.614673 309.8635 
L 66.250701 309.8635 
L 68.974596 309.8635 
L 71.610624 309.8635 
L 74.33452 309.8635 
L 77.058415 309.8635 
L 79.694443 254.306681 
L 82.418339 309.8635 
L 85.054367 255.202759 
L 87.778262 309.8635 
L 90.502158 257.890992 
L 92.96245 309.8635 
L 95.686346 309.8635 
L 98.322374 309.8635 
L 101.046269 309.8635 
L 103.682297 309.8635 
L 106.406193 309.8635 
L 109.130088 254.75472 
L 111.766116 252.066487 
L 114.490012 309.8635 
L 117.12604 242.209632 
L 119.849935 244.001787 
L 122.573831 309.8635 
L 125.121991 309.8635 
L 127.845887 309.8635 
L 130.481914 309.8635 
L 133.20581 309.8635 
L 135.841838 309.8635 
L 138.565733 309.8635 
L 141.289629 309.8635 
L 143.925657 309.8635 
L 146.649552 309.8635 
L 149.28558 309.8635 
L 152.009476 309.8635 
L 154.733371 309.8635 
L 157.193664 309.8635 
L 159.91756 309.8635 
L 162.553587 309.8635 
L 165.277483 309.8635 
L 167.913511 309.8635 
L 170.637406 185.308696 
L 173.361302 309.8635 
L 175.99733 226.528272 
L 178.721225 309.8635 
L 181.357253 309.8635 
L 184.081149 309.8635 
L 186.805044 309.8635 
L 189.265337 309.8635 
L 191.989233 309.8635 
L 194.62526 309.8635 
L 197.349156 309.8635 
L 199.985184 309.8635 
L 202.709079 309.8635 
L 205.432975 309.8635 
L 208.069003 309.8635 
L 210.792898 309.8635 
L 213.428926 309.8635 
L 216.152822 309.8635 
L 218.876717 309.8635 
L 221.33701 309.8635 
L 224.060905 309.8635 
L 226.696933 309.8635 
L 229.420829 309.8635 
L 232.056857 309.8635 
L 234.780752 309.8635 
L 237.504648 309.8635 
L 240.140676 309.8635 
L 242.864571 309.8635 
L 245.500599 309.8635 
L 248.224495 309.8635 
L 250.94839 309.8635 
L 253.496551 309.8635 
L 256.220446 309.8635 
L 258.856474 309.8635 
L 261.58037 309.8635 
L 264.216397 309.8635 
L 266.940293 309.8635 
L 269.664188 309.8635 
L 272.300216 309.8635 
L 275.024112 309.8635 
L 277.66014 309.8635 
L 280.384035 309.8635 
L 283.107931 309.8635 
L 285.568224 309.8635 
L 288.292119 309.8635 
L 290.928147 309.8635 
L 293.652042 309.8635 
L 296.28807 309.8635 
L 299.011966 309.8635 
L 301.735861 309.8635 
L 304.371889 309.8635 
L 307.095785 309.8635 
L 309.731813 219.807689 
L 312.455708 309.8635 
L 315.179604 309.8635 
L 317.639897 309.8635 
L 320.363792 309.8635 
L 322.99982 309.8635 
L 325.723715 309.8635 
L 328.359743 309.8635 
L 331.083639 309.8635 
L 333.807534 309.8635 
L 336.443562 309.8635 
L 339.167458 309.8635 
L 341.803486 186.652813 
L 344.527381 309.8635 
L 347.251277 309.8635 
L 349.71157 224.736116 
L 352.435465 225.184155 
L 355.071493 309.8635 
L 357.795388 309.8635 
L 360.431416 309.8635 
L 363.155312 226.080233 
L 365.879207 226.080233 
L 368.515235 309.8635 
L 371.239131 309.8635 
L 373.875159 309.8635 
L 376.599054 309.8635 
L 379.32295 309.8635 
L 381.87111 309.8635 
L 384.595006 309.8635 
L 387.231034 309.8635 
L 389.954929 309.8635 
L 392.590957 309.8635 
L 395.314852 226.080233 
L 398.038748 309.8635 
L 400.674776 309.8635 
L 403.398671 309.8635 
L 406.034699 309.8635 
L 408.758595 309.8635 
L 411.48249 309.8635 
L 413.942783 309.8635 
L 416.666679 309.8635 
L 419.302707 309.8635 
L 422.026602 309.8635 
L 424.66263 309.8635 
L 427.386525 226.080233 
L 430.110421 309.8635 
L 432.746449 309.8635 
L 435.470344 309.8635 
L 438.106372 309.8635 
L 440.830268 309.8635 
L 443.554163 309.8635 
L 446.014456 309.8635 
L 446.014456 309.8635 
L 446.014456 309.8635 
L 443.554163 309.8635 
L 440.830268 309.8635 
L 438.106372 51.345077 
L 435.470344 54.929388 
L 432.746449 54.03331 
L 430.110421 63.442126 
L 427.386525 56.273504 
L 424.66263 53.137232 
L 422.026602 54.03331 
L 419.302707 48.656844 
L 416.666679 54.03331 
L 413.942783 52.241155 
L 411.48249 54.481349 
L 408.758595 42.832339 
L 406.034699 45.520572 
L 403.398671 46.416649 
L 400.674776 50.897038 
L 398.038748 55.377427 
L 395.314852 54.03331 
L 392.590957 54.03331 
L 389.954929 53.137232 
L 387.231034 54.481349 
L 384.595006 50.448999 
L 381.87111 56.273504 
L 379.32295 50.448999 
L 376.599054 46.864688 
L 373.875159 43.280377 
L 371.239131 43.728416 
L 368.515235 50.448999 
L 365.879207 51.345077 
L 363.155312 53.137232 
L 360.431416 54.03331 
L 357.795388 52.241155 
L 355.071493 53.585271 
L 352.435465 43.728416 
L 349.71157 46.416649 
L 347.251277 46.416649 
L 344.527381 40.592144 
L 341.803486 44.176455 
L 339.167458 43.728416 
L 336.443562 45.072533 
L 333.807534 50.897038 
L 331.083639 51.793116 
L 328.359743 55.377427 
L 325.723715 53.585271 
L 322.99982 51.793116 
L 320.363792 50.897038 
L 317.639897 56.273504 
L 315.179604 118.102867 
L 312.455708 43.728416 
L 309.731813 41.040183 
L 307.095785 46.416649 
L 304.371889 46.864688 
L 301.735861 53.137232 
L 299.011966 51.793116 
L 296.28807 52.241155 
L 293.652042 60.305854 
L 290.928147 50.00096 
L 288.292119 44.624494 
L 285.568224 45.072533 
L 283.107931 48.656844 
L 280.384035 41.936261 
L 277.66014 45.520572 
L 275.024112 44.624494 
L 272.300216 46.416649 
L 269.664188 48.656844 
L 266.940293 50.448999 
L 264.216397 50.448999 
L 261.58037 50.897038 
L 258.856474 62.09801 
L 256.220446 43.728416 
L 253.496551 45.072533 
L 250.94839 41.488222 
L 248.224495 47.312727 
L 245.500599 46.864688 
L 242.864571 44.176455 
L 240.140676 48.208805 
L 237.504648 50.897038 
L 234.780752 53.137232 
L 232.056857 52.689193 
L 229.420829 50.00096 
L 226.696933 42.832339 
L 224.060905 65.68232 
L 221.33701 46.416649 
L 218.876717 44.176455 
L 216.152822 43.728416 
L 213.428926 42.832339 
L 210.792898 40.592144 
L 208.069003 44.176455 
L 205.432975 48.208805 
L 202.709079 45.968611 
L 199.985184 50.448999 
L 197.349156 47.760766 
L 194.62526 46.416649 
L 191.989233 50.448999 
L 189.265337 41.936261 
L 186.805044 43.280377 
L 184.081149 43.280377 
L 181.357253 39.696067 
L 178.721225 45.520572 
L 175.99733 44.176455 
L 173.361302 54.929388 
L 170.637406 50.00096 
L 167.913511 50.00096 
L 165.277483 56.273504 
L 162.553587 46.864688 
L 159.91756 49.104883 
L 157.193664 55.825466 
L 154.733371 52.241155 
L 152.009476 62.09801 
L 149.28558 54.929388 
L 146.649552 48.656844 
L 143.925657 51.345077 
L 141.289629 49.552921 
L 138.565733 49.104883 
L 135.841838 51.793116 
L 133.20581 46.864688 
L 130.481914 42.3843 
L 127.845887 41.040183 
L 125.121991 51.345077 
L 122.573831 41.040183 
L 119.849935 39.248028 
L 117.12604 42.3843 
L 114.490012 57.169582 
L 111.766116 47.760766 
L 109.130088 54.929388 
L 106.406193 52.689193 
L 103.682297 60.753893 
L 101.046269 56.721543 
L 98.322374 50.897038 
L 95.686346 54.481349 
L 92.96245 51.793116 
L 90.502158 50.00096 
L 87.778262 43.280377 
L 85.054367 50.448999 
L 82.418339 147.225393 
L 79.694443 149.017549 
L 77.058415 149.465588 
L 74.33452 151.705782 
L 71.610624 157.082248 
L 68.974596 154.842054 
L 66.250701 151.705782 
L 63.614673 241.313554 
L 60.890777 58.06566 
L 58.430485 57.617621 
L 55.706589 77.331331 
L 52.982694 41.040183 
L 50.346666 39.248028 
L 47.62277 40.592144 
L 44.986742 45.968611 
L 42.262847 48.208805 
L 39.538951 50.00096 
L 36.902923 43.728416 
L 34.179028 37.007833 
L 31.543 226.528272 
z
" style="fill:#808080;fill-opacity:0.3;"/>
   </g>
   <g id="PolyCollection_2">
    <path clip-path="url(#pc58e8a5e2f)" d="M 31.543 309.8635 
L 31.543 309.8635 
L 34.179028 309.8635 
L 36.902923 309.8635 
L 39.538951 309.8635 
L 42.262847 101.077391 
L 44.986742 110.598216 
L 47.62277 91.220536 
L 50.346666 189.005017 
L 52.982694 125.271489 
L 55.706589 309.8635 
L 58.430485 134.456286 
L 60.890777 287.909596 
L 63.614673 309.8635 
L 66.250701 309.8635 
L 68.974596 309.8635 
L 71.610624 199.75795 
L 74.33452 207.37461 
L 77.058415 237.729243 
L 79.694443 178.140075 
L 82.418339 309.8635 
L 85.054367 236.497136 
L 87.778262 233.696894 
L 90.502158 229.664544 
L 92.96245 309.8635 
L 95.686346 309.8635 
L 98.322374 252.066487 
L 101.046269 299.894635 
L 103.682297 251.618448 
L 106.406193 116.534731 
L 109.130088 162.458715 
L 111.766116 98.501167 
L 114.490012 309.8635 
L 117.12604 85.060001 
L 119.849935 76.995302 
L 122.573831 309.8635 
L 125.121991 309.8635 
L 127.845887 96.597002 
L 130.481914 309.8635 
L 133.20581 309.8635 
L 135.841838 158.090336 
L 138.565733 107.461944 
L 141.289629 128.8558 
L 143.925657 150.361665 
L 146.649552 309.8635 
L 149.28558 185.308696 
L 152.009476 309.8635 
L 154.733371 146.329316 
L 157.193664 309.8635 
L 159.91756 309.8635 
L 162.553587 282.869159 
L 165.277483 309.8635 
L 167.913511 165.594987 
L 170.637406 124.93546 
L 173.361302 196.957707 
L 175.99733 99.397245 
L 178.721225 188.556978 
L 181.357253 190.797173 
L 184.081149 149.913626 
L 186.805044 152.60186 
L 189.265337 178.812133 
L 191.989233 309.8635 
L 194.62526 309.8635 
L 197.349156 309.8635 
L 199.985184 234.256942 
L 202.709079 209.950834 
L 205.432975 245.345904 
L 208.069003 309.8635 
L 210.792898 301.350762 
L 213.428926 226.528272 
L 216.152822 309.8635 
L 218.876717 309.8635 
L 221.33701 309.8635 
L 224.060905 309.8635 
L 226.696933 309.8635 
L 229.420829 309.8635 
L 232.056857 309.8635 
L 234.780752 309.8635 
L 237.504648 309.8635 
L 240.140676 309.8635 
L 242.864571 309.8635 
L 245.500599 256.098837 
L 248.224495 232.240767 
L 250.94839 309.8635 
L 253.496551 309.8635 
L 256.220446 309.8635 
L 258.856474 309.8635 
L 261.58037 270.54809 
L 264.216397 250.498351 
L 266.940293 133.112169 
L 269.664188 189.341046 
L 272.300216 188.893007 
L 275.024112 155.290093 
L 277.66014 309.8635 
L 280.384035 188.444969 
L 283.107931 158.762394 
L 285.568224 309.8635 
L 288.292119 164.698909 
L 290.928147 309.8635 
L 293.652042 216.671417 
L 296.28807 200.093979 
L 299.011966 161.562637 
L 301.735861 141.848927 
L 304.371889 140.50481 
L 307.095785 192.029279 
L 309.731813 123.143304 
L 312.455708 309.8635 
L 315.179604 309.8635 
L 317.639897 219.583669 
L 320.363792 309.8635 
L 322.99982 309.8635 
L 325.723715 309.8635 
L 328.359743 309.8635 
L 331.083639 266.963779 
L 333.807534 269.540002 
L 336.443562 309.8635 
L 339.167458 137.032509 
L 341.803486 117.20679 
L 344.527381 134.344276 
L 347.251277 202.782212 
L 349.71157 113.28645 
L 352.435465 115.974683 
L 355.071493 309.8635 
L 357.795388 186.764823 
L 360.431416 192.477318 
L 363.155312 192.029279 
L 365.879207 191.133202 
L 368.515235 94.020778 
L 371.239131 309.8635 
L 373.875159 224.400087 
L 376.599054 186.204774 
L 379.32295 134.232266 
L 381.87111 226.528272 
L 384.595006 309.8635 
L 387.231034 309.8635 
L 389.954929 309.8635 
L 392.590957 258.003002 
L 395.314852 112.726401 
L 398.038748 138.712655 
L 400.674776 213.759164 
L 403.398671 309.8635 
L 406.034699 189.117027 
L 408.758595 138.712655 
L 411.48249 299.446596 
L 413.942783 309.8635 
L 416.666679 309.8635 
L 419.302707 309.8635 
L 422.026602 309.8635 
L 424.66263 118.102867 
L 427.386525 137.816577 
L 430.110421 309.8635 
L 432.746449 309.8635 
L 435.470344 309.8635 
L 438.106372 309.8635 
L 440.830268 309.8635 
L 443.554163 309.8635 
L 446.014456 309.8635 
L 446.014456 309.8635 
L 446.014456 309.8635 
L 443.554163 309.8635 
L 440.830268 309.8635 
L 438.106372 72.850942 
L 435.470344 187.548891 
L 432.746449 291.941946 
L 430.110421 192.925357 
L 427.386525 67.474476 
L 424.66263 69.154622 
L 422.026602 104.213663 
L 419.302707 136.472461 
L 416.666679 225.632194 
L 413.942783 225.968223 
L 411.48249 121.687178 
L 408.758595 59.409776 
L 406.034699 85.844069 
L 403.398671 138.712655 
L 400.674776 94.244798 
L 398.038748 96.933031 
L 395.314852 67.026437 
L 392.590957 66.914427 
L 389.954929 71.954865 
L 387.231034 138.264616 
L 384.595006 178.364094 
L 381.87111 134.680305 
L 379.32295 67.474476 
L 376.599054 65.234282 
L 373.875159 100.181313 
L 371.239131 131.544033 
L 368.515235 61.649971 
L 365.879207 69.266631 
L 363.155312 73.74702 
L 360.431416 70.162709 
L 357.795388 64.786243 
L 355.071493 199.64594 
L 352.435465 60.753893 
L 349.71157 63.442126 
L 347.251277 65.234282 
L 344.527381 58.849728 
L 341.803486 60.753893 
L 339.167458 61.649971 
L 336.443562 69.266631 
L 333.807534 72.738933 
L 331.083639 75.875205 
L 328.359743 75.539175 
L 325.723715 79.571525 
L 322.99982 72.402903 
L 320.363792 88.980341 
L 317.639897 94.132788 
L 315.179604 309.8635 
L 312.455708 59.745806 
L 309.731813 50.897038 
L 307.095785 62.546048 
L 304.371889 63.890165 
L 301.735861 74.531088 
L 299.011966 67.922515 
L 296.28807 94.356808 
L 293.652042 88.308283 
L 290.928147 79.011477 
L 288.292119 63.442126 
L 285.568224 66.578398 
L 283.107931 62.994087 
L 280.384035 64.338204 
L 277.66014 164.25087 
L 275.024112 60.305854 
L 272.300216 66.578398 
L 269.664188 66.130359 
L 266.940293 67.922515 
L 264.216397 70.162709 
L 261.58037 69.71467 
L 258.856474 163.018763 
L 256.220446 79.571525 
L 253.496551 86.180098 
L 250.94839 75.091137 
L 248.224495 62.546048 
L 245.500599 91.220536 
L 242.864571 121.799188 
L 240.140676 115.302624 
L 237.504648 91.108526 
L 234.780752 89.42838 
L 232.056857 104.661701 
L 229.420829 162.906753 
L 226.696933 309.8635 
L 224.060905 309.8635 
L 221.33701 226.528272 
L 218.876717 165.931016 
L 216.152822 109.14209 
L 213.428926 80.355593 
L 210.792898 65.234282 
L 208.069003 72.290894 
L 205.432975 69.71467 
L 202.709079 71.506826 
L 199.985184 119.783013 
L 197.349156 159.994501 
L 194.62526 226.080233 
L 191.989233 82.595787 
L 189.265337 61.201932 
L 186.805044 60.305854 
L 184.081149 59.409776 
L 181.357253 59.857815 
L 178.721225 61.201932 
L 175.99733 60.305854 
L 173.361302 80.019564 
L 170.637406 66.578398 
L 167.913511 70.162709 
L 165.277483 141.400888 
L 162.553587 70.610748 
L 159.91756 165.482977 
L 157.193664 88.868332 
L 154.733371 80.019564 
L 152.009476 216.111368 
L 149.28558 68.370554 
L 146.649552 86.740147 
L 143.925657 73.74702 
L 141.289629 68.370554 
L 138.565733 67.922515 
L 135.841838 70.162709 
L 133.20581 72.402903 
L 130.481914 90.324458 
L 127.845887 60.753893 
L 125.121991 122.023207 
L 122.573831 69.266631 
L 119.849935 58.06566 
L 117.12604 58.513699 
L 114.490012 232.688806 
L 111.766116 63.442126 
L 109.130088 67.474476 
L 106.406193 66.578398 
L 103.682297 78.227409 
L 101.046269 89.31637 
L 98.322374 74.195059 
L 95.686346 100.965381 
L 92.96245 194.941532 
L 90.502158 70.610748 
L 87.778262 70.162709 
L 85.054367 79.011477 
L 82.418339 233.696894 
L 79.694443 156.634209 
L 77.058415 160.666559 
L 74.33452 159.322443 
L 71.610624 163.802831 
L 68.974596 173.435667 
L 66.250701 184.412619 
L 63.614673 309.8635 
L 60.890777 118.102867 
L 58.430485 73.74702 
L 55.706589 309.8635 
L 52.982694 74.195059 
L 50.346666 65.68232 
L 47.62277 64.338204 
L 44.986742 63.890165 
L 42.262847 63.890165 
L 39.538951 79.459515 
L 36.902923 205.358436 
L 34.179028 186.092765 
L 31.543 309.8635 
z
" style="fill:#808080;fill-opacity:0.6;"/>
   </g>
   <g id="matplotlib.axis_1">
    <g id="xtick_1">
     <g id="line2d_1">
      <path clip-path="url(#pc58e8a5e2f)" d="M 55.706589 309.8635 
L 55.706589 23.36505 
" style="fill:none;stroke:#b0b0b0;stroke-linecap:square;stroke-width:0.8;"/>
     </g>
     <g id="line2d_2">
      <defs>
       <path d="M 0 0 
L 0 3.5 
" id="m342bca65a6" style="stroke:#000000;stroke-width:0.8;"/>
      </defs>
      <g>
       <use style="stroke:#000000;stroke-width:0.8;" x="55.706589" xlink:href="#m342bca65a6" y="309.8635"/>
      </g>
     </g>
     <g id="text_1">
      <!-- 2006 -->
      <defs>
       <path d="M 19.1875 8.296875 
L 53.609375 8.296875 
L 53.609375 0 
L 7.328125 0 
L 7.328125 8.296875 
Q 12.9375 14.109375 22.625 23.890625 
Q 32.328125 33.6875 34.8125 36.53125 
Q 39.546875 41.84375 41.421875 45.53125 
Q 43.3125 49.21875 43.3125 52.78125 
Q 43.3125 58.59375 39.234375 62.25 
Q 35.15625 65.921875 28.609375 65.921875 
Q 23.96875 65.921875 18.8125 64.3125 
Q 13.671875 62.703125 7.8125 59.421875 
L 7.8125 69.390625 
Q 13.765625 71.78125 18.9375 73 
Q 24.125 74.21875 28.421875 74.21875 
Q 39.75 74.21875 46.484375 68.546875 
Q 53.21875 62.890625 53.21875 53.421875 
Q 53.21875 48.921875 51.53125 44.890625 
Q 49.859375 40.875 45.40625 35.40625 
Q 44.1875 33.984375 37.640625 27.21875 
Q 31.109375 20.453125 19.1875 8.296875 
z
" id="DejaVuSans-32"/>
       <path d="M 31.78125 66.40625 
Q 24.171875 66.40625 20.328125 58.90625 
Q 16.5 51.421875 16.5 36.375 
Q 16.5 21.390625 20.328125 13.890625 
Q 24.171875 6.390625 31.78125 6.390625 
Q 39.453125 6.390625 43.28125 13.890625 
Q 47.125 21.390625 47.125 36.375 
Q 47.125 51.421875 43.28125 58.90625 
Q 39.453125 66.40625 31.78125 66.40625 
z
M 31.78125 74.21875 
Q 44.046875 74.21875 50.515625 64.515625 
Q 56.984375 54.828125 56.984375 36.375 
Q 56.984375 17.96875 50.515625 8.265625 
Q 44.046875 -1.421875 31.78125 -1.421875 
Q 19.53125 -1.421875 13.0625 8.265625 
Q 6.59375 17.96875 6.59375 36.375 
Q 6.59375 54.828125 13.0625 64.515625 
Q 19.53125 74.21875 31.78125 74.21875 
z
" id="DejaVuSans-30"/>
       <path d="M 33.015625 40.375 
Q 26.375 40.375 22.484375 35.828125 
Q 18.609375 31.296875 18.609375 23.390625 
Q 18.609375 15.53125 22.484375 10.953125 
Q 26.375 6.390625 33.015625 6.390625 
Q 39.65625 6.390625 43.53125 10.953125 
Q 47.40625 15.53125 47.40625 23.390625 
Q 47.40625 31.296875 43.53125 35.828125 
Q 39.65625 40.375 33.015625 40.375 
z
M 52.59375 71.296875 
L 52.59375 62.3125 
Q 48.875 64.0625 45.09375 64.984375 
Q 41.3125 65.921875 37.59375 65.921875 
Q 27.828125 65.921875 22.671875 59.328125 
Q 17.53125 52.734375 16.796875 39.40625 
Q 19.671875 43.65625 24.015625 45.921875 
Q 28.375 48.1875 33.59375 48.1875 
Q 44.578125 48.1875 50.953125 41.515625 
Q 57.328125 34.859375 57.328125 23.390625 
Q 57.328125 12.15625 50.6875 5.359375 
Q 44.046875 -1.421875 33.015625 -1.421875 
Q 20.359375 -1.421875 13.671875 8.265625 
Q 6.984375 17.96875 6.984375 36.375 
Q 6.984375 53.65625 15.1875 63.9375 
Q 23.390625 74.21875 37.203125 74.21875 
Q 40.921875 74.21875 44.703125 73.484375 
Q 48.484375 72.75 52.59375 71.296875 
z
" id="DejaVuSans-36"/>
      </defs>
      <g transform="translate(42.981589 324.461937)scale(0.1 -0.1)">
       <use xlink:href="#DejaVuSans-32"/>
       <use x="63.623047" xlink:href="#DejaVuSans-30"/>
       <use x="127.246094" xlink:href="#DejaVuSans-30"/>
       <use x="190.869141" xlink:href="#DejaVuSans-36"/>
      </g>
     </g>
    </g>
    <g id="xtick_2">
     <g id="line2d_3">
      <path clip-path="url(#pc58e8a5e2f)" d="M 119.849935 309.8635 
L 119.849935 23.36505 
" style="fill:none;stroke:#b0b0b0;stroke-linecap:square;stroke-width:0.8;"/>
     </g>
     <g id="line2d_4">
      <g>
       <use style="stroke:#000000;stroke-width:0.8;" x="119.849935" xlink:href="#m342bca65a6" y="309.8635"/>
      </g>
     </g>
     <g id="text_2">
      <!-- 2008 -->
      <defs>
       <path d="M 31.78125 34.625 
Q 24.75 34.625 20.71875 30.859375 
Q 16.703125 27.09375 16.703125 20.515625 
Q 16.703125 13.921875 20.71875 10.15625 
Q 24.75 6.390625 31.78125 6.390625 
Q 38.8125 6.390625 42.859375 10.171875 
Q 46.921875 13.96875 46.921875 20.515625 
Q 46.921875 27.09375 42.890625 30.859375 
Q 38.875 34.625 31.78125 34.625 
z
M 21.921875 38.8125 
Q 15.578125 40.375 12.03125 44.71875 
Q 8.5 49.078125 8.5 55.328125 
Q 8.5 64.0625 14.71875 69.140625 
Q 20.953125 74.21875 31.78125 74.21875 
Q 42.671875 74.21875 48.875 69.140625 
Q 55.078125 64.0625 55.078125 55.328125 
Q 55.078125 49.078125 51.53125 44.71875 
Q 48 40.375 41.703125 38.8125 
Q 48.828125 37.15625 52.796875 32.3125 
Q 56.78125 27.484375 56.78125 20.515625 
Q 56.78125 9.90625 50.3125 4.234375 
Q 43.84375 -1.421875 31.78125 -1.421875 
Q 19.734375 -1.421875 13.25 4.234375 
Q 6.78125 9.90625 6.78125 20.515625 
Q 6.78125 27.484375 10.78125 32.3125 
Q 14.796875 37.15625 21.921875 38.8125 
z
M 18.3125 54.390625 
Q 18.3125 48.734375 21.84375 45.5625 
Q 25.390625 42.390625 31.78125 42.390625 
Q 38.140625 42.390625 41.71875 45.5625 
Q 45.3125 48.734375 45.3125 54.390625 
Q 45.3125 60.0625 41.71875 63.234375 
Q 38.140625 66.40625 31.78125 66.40625 
Q 25.390625 66.40625 21.84375 63.234375 
Q 18.3125 60.0625 18.3125 54.390625 
z
" id="DejaVuSans-38"/>
      </defs>
      <g transform="translate(107.124935 324.461937)scale(0.1 -0.1)">
       <use xlink:href="#DejaVuSans-32"/>
       <use x="63.623047" xlink:href="#DejaVuSans-30"/>
       <use x="127.246094" xlink:href="#DejaVuSans-30"/>
       <use x="190.869141" xlink:href="#DejaVuSans-38"/>
      </g>
     </g>
    </g>
    <g id="xtick_3">
     <g id="line2d_5">
      <path clip-path="url(#pc58e8a5e2f)" d="M 184.081149 309.8635 
L 184.081149 23.36505 
" style="fill:none;stroke:#b0b0b0;stroke-linecap:square;stroke-width:0.8;"/>
     </g>
     <g id="line2d_6">
      <g>
       <use style="stroke:#000000;stroke-width:0.8;" x="184.081149" xlink:href="#m342bca65a6" y="309.8635"/>
      </g>
     </g>
     <g id="text_3">
      <!-- 2010 -->
      <defs>
       <path d="M 12.40625 8.296875 
L 28.515625 8.296875 
L 28.515625 63.921875 
L 10.984375 60.40625 
L 10.984375 69.390625 
L 28.421875 72.90625 
L 38.28125 72.90625 
L 38.28125 8.296875 
L 54.390625 8.296875 
L 54.390625 0 
L 12.40625 0 
z
" id="DejaVuSans-31"/>
      </defs>
      <g transform="translate(171.356149 324.461937)scale(0.1 -0.1)">
       <use xlink:href="#DejaVuSans-32"/>
       <use x="63.623047" xlink:href="#DejaVuSans-30"/>
       <use x="127.246094" xlink:href="#DejaVuSans-31"/>
       <use x="190.869141" xlink:href="#DejaVuSans-30"/>
      </g>
     </g>
    </g>
    <g id="xtick_4">
     <g id="line2d_7">
      <path clip-path="url(#pc58e8a5e2f)" d="M 248.224495 309.8635 
L 248.224495 23.36505 
" style="fill:none;stroke:#b0b0b0;stroke-linecap:square;stroke-width:0.8;"/>
     </g>
     <g id="line2d_8">
      <g>
       <use style="stroke:#000000;stroke-width:0.8;" x="248.224495" xlink:href="#m342bca65a6" y="309.8635"/>
      </g>
     </g>
     <g id="text_4">
      <!-- 2012 -->
      <g transform="translate(235.499495 324.461937)scale(0.1 -0.1)">
       <use xlink:href="#DejaVuSans-32"/>
       <use x="63.623047" xlink:href="#DejaVuSans-30"/>
       <use x="127.246094" xlink:href="#DejaVuSans-31"/>
       <use x="190.869141" xlink:href="#DejaVuSans-32"/>
      </g>
     </g>
    </g>
    <g id="xtick_5">
     <g id="line2d_9">
      <path clip-path="url(#pc58e8a5e2f)" d="M 312.455708 309.8635 
L 312.455708 23.36505 
" style="fill:none;stroke:#b0b0b0;stroke-linecap:square;stroke-width:0.8;"/>
     </g>
     <g id="line2d_10">
      <g>
       <use style="stroke:#000000;stroke-width:0.8;" x="312.455708" xlink:href="#m342bca65a6" y="309.8635"/>
      </g>
     </g>
     <g id="text_5">
      <!-- 2014 -->
      <defs>
       <path d="M 37.796875 64.3125 
L 12.890625 25.390625 
L 37.796875 25.390625 
z
M 35.203125 72.90625 
L 47.609375 72.90625 
L 47.609375 25.390625 
L 58.015625 25.390625 
L 58.015625 17.1875 
L 47.609375 17.1875 
L 47.609375 0 
L 37.796875 0 
L 37.796875 17.1875 
L 4.890625 17.1875 
L 4.890625 26.703125 
z
" id="DejaVuSans-34"/>
      </defs>
      <g transform="translate(299.730708 324.461937)scale(0.1 -0.1)">
       <use xlink:href="#DejaVuSans-32"/>
       <use x="63.623047" xlink:href="#DejaVuSans-30"/>
       <use x="127.246094" xlink:href="#DejaVuSans-31"/>
       <use x="190.869141" xlink:href="#DejaVuSans-34"/>
      </g>
     </g>
    </g>
    <g id="xtick_6">
     <g id="line2d_11">
      <path clip-path="url(#pc58e8a5e2f)" d="M 376.599054 309.8635 
L 376.599054 23.36505 
" style="fill:none;stroke:#b0b0b0;stroke-linecap:square;stroke-width:0.8;"/>
     </g>
     <g id="line2d_12">
      <g>
       <use style="stroke:#000000;stroke-width:0.8;" x="376.599054" xlink:href="#m342bca65a6" y="309.8635"/>
      </g>
     </g>
     <g id="text_6">
      <!-- 2016 -->
      <g transform="translate(363.874054 324.461937)scale(0.1 -0.1)">
       <use xlink:href="#DejaVuSans-32"/>
       <use x="63.623047" xlink:href="#DejaVuSans-30"/>
       <use x="127.246094" xlink:href="#DejaVuSans-31"/>
       <use x="190.869141" xlink:href="#DejaVuSans-36"/>
      </g>
     </g>
    </g>
    <g id="xtick_7">
     <g id="line2d_13">
      <path clip-path="url(#pc58e8a5e2f)" d="M 440.830268 309.8635 
L 440.830268 23.36505 
" style="fill:none;stroke:#b0b0b0;stroke-linecap:square;stroke-width:0.8;"/>
     </g>
     <g id="line2d_14">
      <g>
       <use style="stroke:#000000;stroke-width:0.8;" x="440.830268" xlink:href="#m342bca65a6" y="309.8635"/>
      </g>
     </g>
     <g id="text_7">
      <!-- 2018 -->
      <g transform="translate(428.105268 324.461937)scale(0.1 -0.1)">
       <use xlink:href="#DejaVuSans-32"/>
       <use x="63.623047" xlink:href="#DejaVuSans-30"/>
       <use x="127.246094" xlink:href="#DejaVuSans-31"/>
       <use x="190.869141" xlink:href="#DejaVuSans-38"/>
      </g>
     </g>
    </g>
    <g id="text_8">
     <!-- Date -->
     <defs>
      <path d="M 19.671875 64.796875 
L 19.671875 8.109375 
L 31.59375 8.109375 
Q 46.6875 8.109375 53.6875 14.9375 
Q 60.6875 21.78125 60.6875 36.53125 
Q 60.6875 51.171875 53.6875 57.984375 
Q 46.6875 64.796875 31.59375 64.796875 
z
M 9.8125 72.90625 
L 30.078125 72.90625 
Q 51.265625 72.90625 61.171875 64.09375 
Q 71.09375 55.28125 71.09375 36.53125 
Q 71.09375 17.671875 61.125 8.828125 
Q 51.171875 0 30.078125 0 
L 9.8125 0 
z
" id="DejaVuSans-44"/>
      <path d="M 34.28125 27.484375 
Q 23.390625 27.484375 19.1875 25 
Q 14.984375 22.515625 14.984375 16.5 
Q 14.984375 11.71875 18.140625 8.90625 
Q 21.296875 6.109375 26.703125 6.109375 
Q 34.1875 6.109375 38.703125 11.40625 
Q 43.21875 16.703125 43.21875 25.484375 
L 43.21875 27.484375 
z
M 52.203125 31.203125 
L 52.203125 0 
L 43.21875 0 
L 43.21875 8.296875 
Q 40.140625 3.328125 35.546875 0.953125 
Q 30.953125 -1.421875 24.3125 -1.421875 
Q 15.921875 -1.421875 10.953125 3.296875 
Q 6 8.015625 6 15.921875 
Q 6 25.140625 12.171875 29.828125 
Q 18.359375 34.515625 30.609375 34.515625 
L 43.21875 34.515625 
L 43.21875 35.40625 
Q 43.21875 41.609375 39.140625 45 
Q 35.0625 48.390625 27.6875 48.390625 
Q 23 48.390625 18.546875 47.265625 
Q 14.109375 46.140625 10.015625 43.890625 
L 10.015625 52.203125 
Q 14.9375 54.109375 19.578125 55.046875 
Q 24.21875 56 28.609375 56 
Q 40.484375 56 46.34375 49.84375 
Q 52.203125 43.703125 52.203125 31.203125 
z
" id="DejaVuSans-61"/>
      <path d="M 18.3125 70.21875 
L 18.3125 54.6875 
L 36.8125 54.6875 
L 36.8125 47.703125 
L 18.3125 47.703125 
L 18.3125 18.015625 
Q 18.3125 11.328125 20.140625 9.421875 
Q 21.96875 7.515625 27.59375 7.515625 
L 36.8125 7.515625 
L 36.8125 0 
L 27.59375 0 
Q 17.1875 0 13.234375 3.875 
Q 9.28125 7.765625 9.28125 18.015625 
L 9.28125 47.703125 
L 2.6875 47.703125 
L 2.6875 54.6875 
L 9.28125 54.6875 
L 9.28125 70.21875 
z
" id="DejaVuSans-74"/>
      <path d="M 56.203125 29.59375 
L 56.203125 25.203125 
L 14.890625 25.203125 
Q 15.484375 15.921875 20.484375 11.0625 
Q 25.484375 6.203125 34.421875 6.203125 
Q 39.59375 6.203125 44.453125 7.46875 
Q 49.3125 8.734375 54.109375 11.28125 
L 54.109375 2.78125 
Q 49.265625 0.734375 44.1875 -0.34375 
Q 39.109375 -1.421875 33.890625 -1.421875 
Q 20.796875 -1.421875 13.15625 6.1875 
Q 5.515625 13.8125 5.515625 26.8125 
Q 5.515625 40.234375 12.765625 48.109375 
Q 20.015625 56 32.328125 56 
Q 43.359375 56 49.78125 48.890625 
Q 56.203125 41.796875 56.203125 29.59375 
z
M 47.21875 32.234375 
Q 47.125 39.59375 43.09375 43.984375 
Q 39.0625 48.390625 32.421875 48.390625 
Q 24.90625 48.390625 20.390625 44.140625 
Q 15.875 39.890625 15.1875 32.171875 
z
" id="DejaVuSans-65"/>
     </defs>
     <g transform="translate(226.827947 338.140062)scale(0.1 -0.1)">
      <use xlink:href="#DejaVuSans-44"/>
      <use x="77.001953" xlink:href="#DejaVuSans-61"/>
      <use x="138.28125" xlink:href="#DejaVuSans-74"/>
      <use x="177.490234" xlink:href="#DejaVuSans-65"/>
     </g>
    </g>
   </g>
   <g id="matplotlib.axis_2">
    <g id="ytick_1">
     <g id="line2d_15">
      <path clip-path="url(#pc58e8a5e2f)" d="M 31.543 309.8635 
L 446.014456 309.8635 
" style="fill:none;stroke:#b0b0b0;stroke-linecap:square;stroke-width:0.8;"/>
     </g>
     <g id="line2d_16">
      <defs>
       <path d="M 0 0 
L -3.5 0 
" id="m48471e6204" style="stroke:#000000;stroke-width:0.8;"/>
      </defs>
      <g>
       <use style="stroke:#000000;stroke-width:0.8;" x="31.543" xlink:href="#m48471e6204" y="309.8635"/>
      </g>
     </g>
     <g id="text_9">
      <!-- 0 -->
      <g transform="translate(18.1805 313.662719)scale(0.1 -0.1)">
       <use xlink:href="#DejaVuSans-30"/>
      </g>
     </g>
    </g>
    <g id="ytick_2">
     <g id="line2d_17">
      <path clip-path="url(#pc58e8a5e2f)" d="M 31.543 265.059614 
L 446.014456 265.059614 
" style="fill:none;stroke:#b0b0b0;stroke-linecap:square;stroke-width:0.8;"/>
     </g>
     <g id="line2d_18">
      <g>
       <use style="stroke:#000000;stroke-width:0.8;" x="31.543" xlink:href="#m48471e6204" y="265.059614"/>
      </g>
     </g>
     <g id="text_10">
      <!-- 100 -->
      <g transform="translate(5.4555 268.858833)scale(0.1 -0.1)">
       <use xlink:href="#DejaVuSans-31"/>
       <use x="63.623047" xlink:href="#DejaVuSans-30"/>
       <use x="127.246094" xlink:href="#DejaVuSans-30"/>
      </g>
     </g>
    </g>
    <g id="ytick_3">
     <g id="line2d_19">
      <path clip-path="url(#pc58e8a5e2f)" d="M 31.543 220.255728 
L 446.014456 220.255728 
" style="fill:none;stroke:#b0b0b0;stroke-linecap:square;stroke-width:0.8;"/>
     </g>
     <g id="line2d_20">
      <g>
       <use style="stroke:#000000;stroke-width:0.8;" x="31.543" xlink:href="#m48471e6204" y="220.255728"/>
      </g>
     </g>
     <g id="text_11">
      <!-- 200 -->
      <g transform="translate(5.4555 224.054946)scale(0.1 -0.1)">
       <use xlink:href="#DejaVuSans-32"/>
       <use x="63.623047" xlink:href="#DejaVuSans-30"/>
       <use x="127.246094" xlink:href="#DejaVuSans-30"/>
      </g>
     </g>
    </g>
    <g id="ytick_4">
     <g id="line2d_21">
      <path clip-path="url(#pc58e8a5e2f)" d="M 31.543 175.451842 
L 446.014456 175.451842 
" style="fill:none;stroke:#b0b0b0;stroke-linecap:square;stroke-width:0.8;"/>
     </g>
     <g id="line2d_22">
      <g>
       <use style="stroke:#000000;stroke-width:0.8;" x="31.543" xlink:href="#m48471e6204" y="175.451842"/>
      </g>
     </g>
     <g id="text_12">
      <!-- 300 -->
      <defs>
       <path d="M 40.578125 39.3125 
Q 47.65625 37.796875 51.625 33 
Q 55.609375 28.21875 55.609375 21.1875 
Q 55.609375 10.40625 48.1875 4.484375 
Q 40.765625 -1.421875 27.09375 -1.421875 
Q 22.515625 -1.421875 17.65625 -0.515625 
Q 12.796875 0.390625 7.625 2.203125 
L 7.625 11.71875 
Q 11.71875 9.328125 16.59375 8.109375 
Q 21.484375 6.890625 26.8125 6.890625 
Q 36.078125 6.890625 40.9375 10.546875 
Q 45.796875 14.203125 45.796875 21.1875 
Q 45.796875 27.640625 41.28125 31.265625 
Q 36.765625 34.90625 28.71875 34.90625 
L 20.21875 34.90625 
L 20.21875 43.015625 
L 29.109375 43.015625 
Q 36.375 43.015625 40.234375 45.921875 
Q 44.09375 48.828125 44.09375 54.296875 
Q 44.09375 59.90625 40.109375 62.90625 
Q 36.140625 65.921875 28.71875 65.921875 
Q 24.65625 65.921875 20.015625 65.03125 
Q 15.375 64.15625 9.8125 62.3125 
L 9.8125 71.09375 
Q 15.4375 72.65625 20.34375 73.4375 
Q 25.25 74.21875 29.59375 74.21875 
Q 40.828125 74.21875 47.359375 69.109375 
Q 53.90625 64.015625 53.90625 55.328125 
Q 53.90625 49.265625 50.4375 45.09375 
Q 46.96875 40.921875 40.578125 39.3125 
z
" id="DejaVuSans-33"/>
      </defs>
      <g transform="translate(5.4555 179.25106)scale(0.1 -0.1)">
       <use xlink:href="#DejaVuSans-33"/>
       <use x="63.623047" xlink:href="#DejaVuSans-30"/>
       <use x="127.246094" xlink:href="#DejaVuSans-30"/>
      </g>
     </g>
    </g>
    <g id="ytick_5">
     <g id="line2d_23">
      <path clip-path="url(#pc58e8a5e2f)" d="M 31.543 130.647955 
L 446.014456 130.647955 
" style="fill:none;stroke:#b0b0b0;stroke-linecap:square;stroke-width:0.8;"/>
     </g>
     <g id="line2d_24">
      <g>
       <use style="stroke:#000000;stroke-width:0.8;" x="31.543" xlink:href="#m48471e6204" y="130.647955"/>
      </g>
     </g>
     <g id="text_13">
      <!-- 400 -->
      <g transform="translate(5.4555 134.447174)scale(0.1 -0.1)">
       <use xlink:href="#DejaVuSans-34"/>
       <use x="63.623047" xlink:href="#DejaVuSans-30"/>
       <use x="127.246094" xlink:href="#DejaVuSans-30"/>
      </g>
     </g>
    </g>
    <g id="ytick_6">
     <g id="line2d_25">
      <path clip-path="url(#pc58e8a5e2f)" d="M 31.543 85.844069 
L 446.014456 85.844069 
" style="fill:none;stroke:#b0b0b0;stroke-linecap:square;stroke-width:0.8;"/>
     </g>
     <g id="line2d_26">
      <g>
       <use style="stroke:#000000;stroke-width:0.8;" x="31.543" xlink:href="#m48471e6204" y="85.844069"/>
      </g>
     </g>
     <g id="text_14">
      <!-- 500 -->
      <defs>
       <path d="M 10.796875 72.90625 
L 49.515625 72.90625 
L 49.515625 64.59375 
L 19.828125 64.59375 
L 19.828125 46.734375 
Q 21.96875 47.46875 24.109375 47.828125 
Q 26.265625 48.1875 28.421875 48.1875 
Q 40.625 48.1875 47.75 41.5 
Q 54.890625 34.8125 54.890625 23.390625 
Q 54.890625 11.625 47.5625 5.09375 
Q 40.234375 -1.421875 26.90625 -1.421875 
Q 22.3125 -1.421875 17.546875 -0.640625 
Q 12.796875 0.140625 7.71875 1.703125 
L 7.71875 11.625 
Q 12.109375 9.234375 16.796875 8.0625 
Q 21.484375 6.890625 26.703125 6.890625 
Q 35.15625 6.890625 40.078125 11.328125 
Q 45.015625 15.765625 45.015625 23.390625 
Q 45.015625 31 40.078125 35.4375 
Q 35.15625 39.890625 26.703125 39.890625 
Q 22.75 39.890625 18.8125 39.015625 
Q 14.890625 38.140625 10.796875 36.28125 
z
" id="DejaVuSans-35"/>
      </defs>
      <g transform="translate(5.4555 89.643288)scale(0.1 -0.1)">
       <use xlink:href="#DejaVuSans-35"/>
       <use x="63.623047" xlink:href="#DejaVuSans-30"/>
       <use x="127.246094" xlink:href="#DejaVuSans-30"/>
      </g>
     </g>
    </g>
    <g id="ytick_7">
     <g id="line2d_27">
      <path clip-path="url(#pc58e8a5e2f)" d="M 31.543 41.040183 
L 446.014456 41.040183 
" style="fill:none;stroke:#b0b0b0;stroke-linecap:square;stroke-width:0.8;"/>
     </g>
     <g id="line2d_28">
      <g>
       <use style="stroke:#000000;stroke-width:0.8;" x="31.543" xlink:href="#m48471e6204" y="41.040183"/>
      </g>
     </g>
     <g id="text_15">
      <!-- 600 -->
      <g transform="translate(5.4555 44.839402)scale(0.1 -0.1)">
       <use xlink:href="#DejaVuSans-36"/>
       <use x="63.623047" xlink:href="#DejaVuSans-30"/>
       <use x="127.246094" xlink:href="#DejaVuSans-30"/>
      </g>
     </g>
    </g>
   </g>
   <g id="line2d_29">
    <path clip-path="url(#pc58e8a5e2f)" d="M 31.543 309.8635 
L 34.179028 297.766451 
L 36.902923 309.8635 
L 39.538951 201.662115 
L 42.262847 68.370554 
L 44.986742 74.195059 
L 47.62277 71.954865 
L 50.346666 91.220536 
L 52.982694 99.061216 
L 55.706589 309.8635 
L 58.430485 94.804846 
L 60.890777 204.126329 
L 63.614673 309.8635 
L 66.250701 253.858642 
L 68.974596 237.281204 
L 71.610624 170.075375 
L 74.33452 166.491064 
L 77.058415 171.419492 
L 79.694443 162.010676 
L 82.418339 309.8635 
L 85.054367 229.664544 
L 87.778262 95.252885 
L 90.502158 101.077391 
L 92.96245 309.8635 
L 95.686346 243.553748 
L 98.322374 93.46073 
L 101.046269 233.248855 
L 103.682297 232.352777 
L 106.406193 75.539175 
L 109.130088 84.275933 
L 111.766116 72.626923 
L 114.490012 309.8635 
L 117.12604 63.890165 
L 119.849935 62.994087 
L 122.573831 92.564652 
L 125.121991 309.8635 
L 127.845887 67.922515 
L 130.481914 236.161107 
L 133.20581 134.232266 
L 135.841838 87.188186 
L 138.565733 76.883292 
L 141.289629 85.844069 
L 143.925657 92.116613 
L 146.649552 156.18617 
L 149.28558 92.564652 
L 152.009476 309.8635 
L 154.733371 106.901896 
L 157.193664 183.96458 
L 159.91756 309.8635 
L 162.553587 154.169996 
L 165.277483 198.525843 
L 167.913511 105.10974 
L 170.637406 72.850942 
L 173.361302 188.220949 
L 175.99733 65.234282 
L 178.721225 88.532302 
L 181.357253 71.954865 
L 184.081149 75.091137 
L 186.805044 78.899467 
L 189.265337 75.987214 
L 191.989233 190.909182 
L 194.62526 309.8635 
L 197.349156 226.528272 
L 199.985184 191.581241 
L 202.709079 166.939103 
L 205.432975 168.955278 
L 208.069003 212.863086 
L 210.792898 145.881277 
L 213.428926 162.458715 
L 216.152822 165.146948 
L 218.876717 199.64594 
L 221.33701 309.8635 
L 229.420829 309.8635 
L 232.056857 305.83115 
L 234.780752 190.237124 
L 237.504648 188.444969 
L 240.140676 209.054756 
L 242.864571 309.8635 
L 245.500599 162.682734 
L 248.224495 107.349935 
L 250.94839 150.585685 
L 253.496551 151.033724 
L 256.220446 203.230251 
L 258.856474 309.8635 
L 261.58037 150.809704 
L 264.216397 91.892594 
L 266.940293 77.77937 
L 269.664188 77.77937 
L 272.300216 86.292108 
L 275.024112 70.610748 
L 277.66014 309.8635 
L 280.384035 157.754307 
L 283.107931 80.691622 
L 285.568224 271.332158 
L 288.292119 78.227409 
L 290.928147 221.599844 
L 293.652042 108.694051 
L 296.28807 150.137646 
L 299.011966 74.195059 
L 301.735861 102.869546 
L 304.371889 74.195059 
L 307.095785 78.227409 
L 309.731813 58.06566 
L 312.455708 309.8635 
L 315.179604 309.8635 
L 317.639897 193.373396 
L 320.363792 185.308696 
L 322.99982 137.368538 
L 325.723715 239.969438 
L 328.359743 183.516541 
L 331.083639 146.329316 
L 333.807534 135.576383 
L 336.443562 141.624907 
L 339.167458 90.548477 
L 341.803486 69.71467 
L 344.527381 66.130359 
L 347.251277 136.472461 
L 349.71157 80.019564 
L 352.435465 72.850942 
L 355.071493 222.943961 
L 357.795388 80.915642 
L 360.431416 187.100852 
L 363.155312 189.341046 
L 365.879207 134.008247 
L 368.515235 67.474476 
L 371.239131 192.029279 
L 373.875159 186.204774 
L 376.599054 96.597002 
L 379.32295 90.996516 
L 381.87111 210.622892 
L 384.595006 225.408175 
L 387.231034 309.8635 
L 389.954929 134.680305 
L 392.590957 95.476905 
L 395.314852 74.419078 
L 398.038748 136.024422 
L 400.674776 138.264616 
L 403.398671 309.8635 
L 406.034699 135.128344 
L 408.758595 104.437682 
L 411.48249 166.043025 
L 413.942783 309.8635 
L 416.666679 309.8635 
L 419.302707 230.336602 
L 422.026602 181.276347 
L 424.66263 93.23671 
L 427.386525 92.116613 
L 430.110421 309.8635 
L 432.746449 309.8635 
L 435.470344 246.466001 
L 438.106372 188.444969 
L 440.830268 309.8635 
L 446.014456 309.8635 
L 446.014456 309.8635 
" style="fill:none;stroke:#1f77b4;stroke-linecap:square;stroke-width:1.5;"/>
   </g>
   <g id="patch_3">
    <path d="M 31.543 309.8635 
L 31.543 23.36505 
" style="fill:none;stroke:#000000;stroke-linecap:square;stroke-linejoin:miter;stroke-width:0.8;"/>
   </g>
   <g id="patch_4">
    <path d="M 446.014456 309.8635 
L 446.014456 23.36505 
" style="fill:none;stroke:#000000;stroke-linecap:square;stroke-linejoin:miter;stroke-width:0.8;"/>
   </g>
   <g id="patch_5">
    <path d="M 31.543 309.8635 
L 446.014456 309.8635 
" style="fill:none;stroke:#000000;stroke-linecap:square;stroke-linejoin:miter;stroke-width:0.8;"/>
   </g>
   <g id="patch_6">
    <path d="M 31.543 23.36505 
L 446.014456 23.36505 
" style="fill:none;stroke:#000000;stroke-linecap:square;stroke-linejoin:miter;stroke-width:0.8;"/>
   </g>
   <g id="text_16">
    <!-- Monthly gross load trend (MW) -->
    <defs>
     <path d="M 9.8125 72.90625 
L 24.515625 72.90625 
L 43.109375 23.296875 
L 61.8125 72.90625 
L 76.515625 72.90625 
L 76.515625 0 
L 66.890625 0 
L 66.890625 64.015625 
L 48.09375 14.015625 
L 38.1875 14.015625 
L 19.390625 64.015625 
L 19.390625 0 
L 9.8125 0 
z
" id="DejaVuSans-4d"/>
     <path d="M 30.609375 48.390625 
Q 23.390625 48.390625 19.1875 42.75 
Q 14.984375 37.109375 14.984375 27.296875 
Q 14.984375 17.484375 19.15625 11.84375 
Q 23.34375 6.203125 30.609375 6.203125 
Q 37.796875 6.203125 41.984375 11.859375 
Q 46.1875 17.53125 46.1875 27.296875 
Q 46.1875 37.015625 41.984375 42.703125 
Q 37.796875 48.390625 30.609375 48.390625 
z
M 30.609375 56 
Q 42.328125 56 49.015625 48.375 
Q 55.71875 40.765625 55.71875 27.296875 
Q 55.71875 13.875 49.015625 6.21875 
Q 42.328125 -1.421875 30.609375 -1.421875 
Q 18.84375 -1.421875 12.171875 6.21875 
Q 5.515625 13.875 5.515625 27.296875 
Q 5.515625 40.765625 12.171875 48.375 
Q 18.84375 56 30.609375 56 
z
" id="DejaVuSans-6f"/>
     <path d="M 54.890625 33.015625 
L 54.890625 0 
L 45.90625 0 
L 45.90625 32.71875 
Q 45.90625 40.484375 42.875 44.328125 
Q 39.84375 48.1875 33.796875 48.1875 
Q 26.515625 48.1875 22.3125 43.546875 
Q 18.109375 38.921875 18.109375 30.90625 
L 18.109375 0 
L 9.078125 0 
L 9.078125 54.6875 
L 18.109375 54.6875 
L 18.109375 46.1875 
Q 21.34375 51.125 25.703125 53.5625 
Q 30.078125 56 35.796875 56 
Q 45.21875 56 50.046875 50.171875 
Q 54.890625 44.34375 54.890625 33.015625 
z
" id="DejaVuSans-6e"/>
     <path d="M 54.890625 33.015625 
L 54.890625 0 
L 45.90625 0 
L 45.90625 32.71875 
Q 45.90625 40.484375 42.875 44.328125 
Q 39.84375 48.1875 33.796875 48.1875 
Q 26.515625 48.1875 22.3125 43.546875 
Q 18.109375 38.921875 18.109375 30.90625 
L 18.109375 0 
L 9.078125 0 
L 9.078125 75.984375 
L 18.109375 75.984375 
L 18.109375 46.1875 
Q 21.34375 51.125 25.703125 53.5625 
Q 30.078125 56 35.796875 56 
Q 45.21875 56 50.046875 50.171875 
Q 54.890625 44.34375 54.890625 33.015625 
z
" id="DejaVuSans-68"/>
     <path d="M 9.421875 75.984375 
L 18.40625 75.984375 
L 18.40625 0 
L 9.421875 0 
z
" id="DejaVuSans-6c"/>
     <path d="M 32.171875 -5.078125 
Q 28.375 -14.84375 24.75 -17.8125 
Q 21.140625 -20.796875 15.09375 -20.796875 
L 7.90625 -20.796875 
L 7.90625 -13.28125 
L 13.1875 -13.28125 
Q 16.890625 -13.28125 18.9375 -11.515625 
Q 21 -9.765625 23.484375 -3.21875 
L 25.09375 0.875 
L 2.984375 54.6875 
L 12.5 54.6875 
L 29.59375 11.921875 
L 46.6875 54.6875 
L 56.203125 54.6875 
z
" id="DejaVuSans-79"/>
     <path id="DejaVuSans-20"/>
     <path d="M 45.40625 27.984375 
Q 45.40625 37.75 41.375 43.109375 
Q 37.359375 48.484375 30.078125 48.484375 
Q 22.859375 48.484375 18.828125 43.109375 
Q 14.796875 37.75 14.796875 27.984375 
Q 14.796875 18.265625 18.828125 12.890625 
Q 22.859375 7.515625 30.078125 7.515625 
Q 37.359375 7.515625 41.375 12.890625 
Q 45.40625 18.265625 45.40625 27.984375 
z
M 54.390625 6.78125 
Q 54.390625 -7.171875 48.1875 -13.984375 
Q 42 -20.796875 29.203125 -20.796875 
Q 24.46875 -20.796875 20.265625 -20.09375 
Q 16.0625 -19.390625 12.109375 -17.921875 
L 12.109375 -9.1875 
Q 16.0625 -11.328125 19.921875 -12.34375 
Q 23.78125 -13.375 27.78125 -13.375 
Q 36.625 -13.375 41.015625 -8.765625 
Q 45.40625 -4.15625 45.40625 5.171875 
L 45.40625 9.625 
Q 42.625 4.78125 38.28125 2.390625 
Q 33.9375 0 27.875 0 
Q 17.828125 0 11.671875 7.65625 
Q 5.515625 15.328125 5.515625 27.984375 
Q 5.515625 40.671875 11.671875 48.328125 
Q 17.828125 56 27.875 56 
Q 33.9375 56 38.28125 53.609375 
Q 42.625 51.21875 45.40625 46.390625 
L 45.40625 54.6875 
L 54.390625 54.6875 
z
" id="DejaVuSans-67"/>
     <path d="M 41.109375 46.296875 
Q 39.59375 47.171875 37.8125 47.578125 
Q 36.03125 48 33.890625 48 
Q 26.265625 48 22.1875 43.046875 
Q 18.109375 38.09375 18.109375 28.8125 
L 18.109375 0 
L 9.078125 0 
L 9.078125 54.6875 
L 18.109375 54.6875 
L 18.109375 46.1875 
Q 20.953125 51.171875 25.484375 53.578125 
Q 30.03125 56 36.53125 56 
Q 37.453125 56 38.578125 55.875 
Q 39.703125 55.765625 41.0625 55.515625 
z
" id="DejaVuSans-72"/>
     <path d="M 44.28125 53.078125 
L 44.28125 44.578125 
Q 40.484375 46.53125 36.375 47.5 
Q 32.28125 48.484375 27.875 48.484375 
Q 21.1875 48.484375 17.84375 46.4375 
Q 14.5 44.390625 14.5 40.28125 
Q 14.5 37.15625 16.890625 35.375 
Q 19.28125 33.59375 26.515625 31.984375 
L 29.59375 31.296875 
Q 39.15625 29.25 43.1875 25.515625 
Q 47.21875 21.78125 47.21875 15.09375 
Q 47.21875 7.46875 41.1875 3.015625 
Q 35.15625 -1.421875 24.609375 -1.421875 
Q 20.21875 -1.421875 15.453125 -0.5625 
Q 10.6875 0.296875 5.421875 2 
L 5.421875 11.28125 
Q 10.40625 8.6875 15.234375 7.390625 
Q 20.0625 6.109375 24.8125 6.109375 
Q 31.15625 6.109375 34.5625 8.28125 
Q 37.984375 10.453125 37.984375 14.40625 
Q 37.984375 18.0625 35.515625 20.015625 
Q 33.0625 21.96875 24.703125 23.78125 
L 21.578125 24.515625 
Q 13.234375 26.265625 9.515625 29.90625 
Q 5.8125 33.546875 5.8125 39.890625 
Q 5.8125 47.609375 11.28125 51.796875 
Q 16.75 56 26.8125 56 
Q 31.78125 56 36.171875 55.265625 
Q 40.578125 54.546875 44.28125 53.078125 
z
" id="DejaVuSans-73"/>
     <path d="M 45.40625 46.390625 
L 45.40625 75.984375 
L 54.390625 75.984375 
L 54.390625 0 
L 45.40625 0 
L 45.40625 8.203125 
Q 42.578125 3.328125 38.25 0.953125 
Q 33.9375 -1.421875 27.875 -1.421875 
Q 17.96875 -1.421875 11.734375 6.484375 
Q 5.515625 14.40625 5.515625 27.296875 
Q 5.515625 40.1875 11.734375 48.09375 
Q 17.96875 56 27.875 56 
Q 33.9375 56 38.25 53.625 
Q 42.578125 51.265625 45.40625 46.390625 
z
M 14.796875 27.296875 
Q 14.796875 17.390625 18.875 11.75 
Q 22.953125 6.109375 30.078125 6.109375 
Q 37.203125 6.109375 41.296875 11.75 
Q 45.40625 17.390625 45.40625 27.296875 
Q 45.40625 37.203125 41.296875 42.84375 
Q 37.203125 48.484375 30.078125 48.484375 
Q 22.953125 48.484375 18.875 42.84375 
Q 14.796875 37.203125 14.796875 27.296875 
z
" id="DejaVuSans-64"/>
     <path d="M 31 75.875 
Q 24.46875 64.65625 21.28125 53.65625 
Q 18.109375 42.671875 18.109375 31.390625 
Q 18.109375 20.125 21.3125 9.0625 
Q 24.515625 -2 31 -13.1875 
L 23.1875 -13.1875 
Q 15.875 -1.703125 12.234375 9.375 
Q 8.59375 20.453125 8.59375 31.390625 
Q 8.59375 42.28125 12.203125 53.3125 
Q 15.828125 64.359375 23.1875 75.875 
z
" id="DejaVuSans-28"/>
     <path d="M 3.328125 72.90625 
L 13.28125 72.90625 
L 28.609375 11.28125 
L 43.890625 72.90625 
L 54.984375 72.90625 
L 70.3125 11.28125 
L 85.59375 72.90625 
L 95.609375 72.90625 
L 77.296875 0 
L 64.890625 0 
L 49.515625 63.28125 
L 33.984375 0 
L 21.578125 0 
z
" id="DejaVuSans-57"/>
     <path d="M 8.015625 75.875 
L 15.828125 75.875 
Q 23.140625 64.359375 26.78125 53.3125 
Q 30.421875 42.28125 30.421875 31.390625 
Q 30.421875 20.453125 26.78125 9.375 
Q 23.140625 -1.703125 15.828125 -13.1875 
L 8.015625 -13.1875 
Q 14.5 -2 17.703125 9.0625 
Q 20.90625 20.125 20.90625 31.390625 
Q 20.90625 42.671875 17.703125 53.65625 
Q 14.5 64.65625 8.015625 75.875 
z
" id="DejaVuSans-29"/>
    </defs>
    <g transform="translate(146.195916 17.36505)scale(0.12 -0.12)">
     <use xlink:href="#DejaVuSans-4d"/>
     <use x="86.279297" xlink:href="#DejaVuSans-6f"/>
     <use x="147.460938" xlink:href="#DejaVuSans-6e"/>
     <use x="210.839844" xlink:href="#DejaVuSans-74"/>
     <use x="250.048828" xlink:href="#DejaVuSans-68"/>
     <use x="313.427734" xlink:href="#DejaVuSans-6c"/>
     <use x="341.210938" xlink:href="#DejaVuSans-79"/>
     <use x="400.390625" xlink:href="#DejaVuSans-20"/>
     <use x="432.177734" xlink:href="#DejaVuSans-67"/>
     <use x="495.654297" xlink:href="#DejaVuSans-72"/>
     <use x="536.736328" xlink:href="#DejaVuSans-6f"/>
     <use x="597.917969" xlink:href="#DejaVuSans-73"/>
     <use x="650.017578" xlink:href="#DejaVuSans-73"/>
     <use x="702.117188" xlink:href="#DejaVuSans-20"/>
     <use x="733.904297" xlink:href="#DejaVuSans-6c"/>
     <use x="761.6875" xlink:href="#DejaVuSans-6f"/>
     <use x="822.869141" xlink:href="#DejaVuSans-61"/>
     <use x="884.148438" xlink:href="#DejaVuSans-64"/>
     <use x="947.625" xlink:href="#DejaVuSans-20"/>
     <use x="979.412109" xlink:href="#DejaVuSans-74"/>
     <use x="1018.621094" xlink:href="#DejaVuSans-72"/>
     <use x="1059.703125" xlink:href="#DejaVuSans-65"/>
     <use x="1121.226562" xlink:href="#DejaVuSans-6e"/>
     <use x="1184.605469" xlink:href="#DejaVuSans-64"/>
     <use x="1248.082031" xlink:href="#DejaVuSans-20"/>
     <use x="1279.869141" xlink:href="#DejaVuSans-28"/>
     <use x="1318.882812" xlink:href="#DejaVuSans-4d"/>
     <use x="1405.162109" xlink:href="#DejaVuSans-57"/>
     <use x="1504.039062" xlink:href="#DejaVuSans-29"/>
    </g>
   </g>
  </g>
 </g>
 <defs>
  <clipPath id="pc58e8a5e2f">
   <rect height="286.49845" width="414.471456" x="31.543" y="23.36505"/>
  </clipPath>
 </defs>
</svg>
