<?xml version="1.0" encoding="utf-8" standalone="no"?>
<!DOCTYPE svg PUBLIC "-//W3C//DTD SVG 1.1//EN"
  "http://www.w3.org/Graphics/SVG/1.1/DTD/svg11.dtd">
<!-- Created with matplotlib (http://matplotlib.org/) -->
<svg height="345.6pt" version="1.1" viewBox="0 0 460.8 345.6" width="460.8pt" xmlns="http://www.w3.org/2000/svg" xmlns:xlink="http://www.w3.org/1999/xlink">
 <defs>
  <style type="text/css">
*{stroke-linecap:butt;stroke-linejoin:round;}
  </style>
 </defs>
 <g id="figure_1">
  <g id="patch_1">
   <path d="M 0 345.6 
L 460.8 345.6 
L 460.8 0 
L 0 0 
z
" style="fill:none;"/>
  </g>
  <g id="axes_1">
   <g id="patch_2">
    <path d="M 26.962 309.8635 
L 446.886092 309.8635 
L 446.886092 23.36505 
L 26.962 23.36505 
z
" style="fill:none;"/>
   </g>
   <g id="PolyCollection_1">
    <path clip-path="url(#p080005d5d5)" d="M 26.962 309.8635 
L 26.962 309.8635 
L 29.100598 309.8635 
L 31.170209 309.8635 
L 33.308807 309.8635 
L 35.378418 309.8635 
L 37.517017 309.8635 
L 39.655615 309.8635 
L 41.587252 309.8635 
L 43.72585 309.8635 
L 45.795461 309.8635 
L 47.934059 309.8635 
L 50.00367 309.8635 
L 52.142268 309.8635 
L 54.280867 309.8635 
L 56.350478 309.8635 
L 58.489076 309.8635 
L 60.558687 309.8635 
L 62.697285 309.8635 
L 64.835883 309.8635 
L 66.76752 309.8635 
L 68.906118 309.8635 
L 70.975729 309.8635 
L 73.114328 309.8635 
L 75.183939 309.8635 
L 77.322537 309.8635 
L 79.461135 309.8635 
L 81.530746 309.8635 
L 83.669344 309.8635 
L 85.738955 309.8635 
L 87.877553 309.8635 
L 90.016152 309.8635 
L 92.016776 309.8635 
L 94.155374 309.8635 
L 96.224985 309.8635 
L 98.363583 309.8635 
L 100.433194 309.8635 
L 102.571792 309.8635 
L 104.71039 309.8635 
L 106.780001 309.8635 
L 108.9186 309.8635 
L 110.988211 309.8635 
L 113.126809 309.8635 
L 115.265407 309.8635 
L 117.197044 309.8635 
L 119.335642 309.8635 
L 121.405253 309.8635 
L 123.543851 309.8635 
L 125.613462 309.8635 
L 127.752061 309.8635 
L 129.890659 309.8635 
L 131.96027 309.8635 
L 134.098868 309.8635 
L 136.168479 309.8635 
L 138.307077 309.8635 
L 140.445675 309.8635 
L 142.377312 309.8635 
L 144.515911 309.8635 
L 146.585522 309.8635 
L 148.72412 309.8635 
L 150.793731 309.8635 
L 152.932329 309.8635 
L 155.070927 309.8635 
L 157.140538 309.8635 
L 159.279136 309.8635 
L 161.348748 309.8635 
L 163.487346 309.8635 
L 165.625944 309.8635 
L 167.557581 309.8635 
L 169.696179 309.8635 
L 171.76579 309.8635 
L 173.904388 309.8635 
L 175.973999 309.8635 
L 178.112597 309.8635 
L 180.251196 309.8635 
L 182.320807 309.8635 
L 184.459405 309.8635 
L 186.529016 309.8635 
L 188.667614 309.8635 
L 190.806212 309.8635 
L 192.806836 309.8635 
L 194.945434 309.8635 
L 197.015045 309.8635 
L 199.153644 309.8635 
L 201.223255 309.8635 
L 203.361853 309.8635 
L 205.500451 309.8635 
L 207.570062 309.8635 
L 209.70866 309.8635 
L 211.778271 309.8635 
L 213.916869 309.8635 
L 216.055468 309.8635 
L 217.987105 309.8635 
L 220.125703 309.8635 
L 222.195314 309.8635 
L 224.333912 309.8635 
L 226.403523 309.8635 
L 228.542121 309.8635 
L 230.680719 309.8635 
L 232.750331 309.8635 
L 234.888929 309.8635 
L 236.95854 309.8635 
L 239.097138 309.8635 
L 241.235736 309.8635 
L 243.167373 309.8635 
L 245.305971 309.8635 
L 247.375582 309.8635 
L 249.51418 309.8635 
L 251.583792 309.8635 
L 253.72239 309.8635 
L 255.860988 309.8635 
L 257.930599 309.8635 
L 260.069197 309.8635 
L 262.138808 309.8635 
L 264.277406 309.8635 
L 266.416004 309.8635 
L 268.347641 309.8635 
L 270.48624 309.8635 
L 272.555851 309.8635 
L 274.694449 309.8635 
L 276.76406 309.8635 
L 278.902658 309.8635 
L 281.041256 309.8635 
L 283.110867 309.8635 
L 285.249465 309.8635 
L 287.319077 309.8635 
L 289.457675 309.8635 
L 291.596273 309.8635 
L 293.596897 309.8635 
L 295.735495 309.8635 
L 297.805106 309.8635 
L 299.943704 309.8635 
L 302.013315 309.8635 
L 304.151913 309.8635 
L 306.290512 309.8635 
L 308.360123 309.8635 
L 310.498721 309.8635 
L 312.568332 309.8635 
L 314.70693 309.8635 
L 316.845528 309.8635 
L 318.777165 309.8635 
L 320.915763 309.8635 
L 322.985375 309.8635 
L 325.123973 309.8635 
L 327.193584 309.8635 
L 329.332182 309.8635 
L 331.47078 309.8635 
L 333.540391 309.8635 
L 335.678989 309.8635 
L 337.7486 309.8635 
L 339.887199 309.8635 
L 342.025797 309.8635 
L 343.957434 309.8635 
L 346.096032 309.8635 
L 348.165643 309.8635 
L 350.304241 309.8635 
L 352.373852 309.8635 
L 354.51245 309.8635 
L 356.651048 309.8635 
L 358.72066 309.8635 
L 360.859258 309.8635 
L 362.928869 309.8635 
L 365.067467 309.8635 
L 367.206065 309.8635 
L 369.137702 309.8635 
L 371.2763 309.8635 
L 373.345911 309.8635 
L 375.484509 309.8635 
L 377.554121 309.8635 
L 379.692719 309.8635 
L 381.831317 309.8635 
L 383.900928 309.8635 
L 386.039526 309.8635 
L 388.109137 309.8635 
L 390.247735 309.8635 
L 392.386333 309.8635 
L 394.386958 309.8635 
L 396.525556 309.8635 
L 398.595167 309.8635 
L 400.733765 309.8635 
L 402.803376 309.8635 
L 404.941974 309.8635 
L 407.080572 309.8635 
L 409.150183 309.8635 
L 411.288782 309.8635 
L 413.358393 309.8635 
L 415.496991 309.8635 
L 417.635589 309.8635 
L 419.567226 309.8635 
L 421.705824 309.8635 
L 423.775435 309.8635 
L 425.914033 309.8635 
L 427.983644 309.8635 
L 430.122243 309.8635 
L 432.260841 309.8635 
L 434.330452 309.8635 
L 436.46905 309.8635 
L 438.538661 309.8635 
L 440.677259 309.8635 
L 442.815857 309.8635 
L 444.747494 309.8635 
L 446.886092 309.8635 
L 446.886092 183.180512 
L 446.886092 183.180512 
L 444.747494 183.180512 
L 442.815857 309.8635 
L 440.677259 163.690821 
L 438.538661 178.308089 
L 436.46905 188.052935 
L 434.330452 192.925357 
L 432.260841 158.818399 
L 430.122243 309.8635 
L 427.983644 149.073554 
L 425.914033 153.945976 
L 423.775435 153.945976 
L 421.705824 309.8635 
L 419.567226 183.180512 
L 417.635589 158.818399 
L 415.496991 309.8635 
L 413.358393 163.690821 
L 411.288782 163.690821 
L 409.150183 153.945976 
L 407.080572 163.690821 
L 404.941974 158.818399 
L 402.803376 144.201131 
L 400.733765 153.945976 
L 398.595167 261.139274 
L 396.525556 153.945976 
L 394.386958 270.884119 
L 392.386333 280.628964 
L 390.247735 183.180512 
L 388.109137 309.8635 
L 386.039526 280.628964 
L 383.900928 280.628964 
L 381.831317 280.628964 
L 379.692719 300.118655 
L 377.554121 163.690821 
L 375.484509 309.8635 
L 373.345911 309.8635 
L 371.2763 173.435667 
L 369.137702 183.180512 
L 367.206065 178.308089 
L 365.067467 183.180512 
L 362.928869 183.180512 
L 360.859258 183.180512 
L 358.72066 280.628964 
L 356.651048 280.628964 
L 354.51245 270.884119 
L 352.373852 309.8635 
L 350.304241 309.8635 
L 348.165643 241.649583 
L 346.096032 241.649583 
L 343.957434 309.8635 
L 342.025797 309.8635 
L 339.887199 309.8635 
L 337.7486 309.8635 
L 335.678989 241.649583 
L 333.540391 231.904738 
L 331.47078 236.777161 
L 329.332182 227.032315 
L 327.193584 309.8635 
L 325.123973 309.8635 
L 322.985375 309.8635 
L 320.915763 144.201131 
L 318.777165 309.8635 
L 316.845528 71.114792 
L 314.70693 309.8635 
L 312.568332 139.328708 
L 310.498721 139.328708 
L 308.360123 139.328708 
L 306.290512 149.073554 
L 304.151913 139.328708 
L 302.013315 309.8635 
L 299.943704 158.818399 
L 297.805106 134.456286 
L 295.735495 144.201131 
L 293.596897 309.8635 
L 291.596273 309.8635 
L 289.457675 173.435667 
L 287.319077 173.435667 
L 285.249465 163.690821 
L 283.110867 144.201131 
L 281.041256 144.201131 
L 278.902658 134.456286 
L 276.76406 134.456286 
L 274.694449 309.8635 
L 272.555851 134.456286 
L 270.48624 134.456286 
L 268.347641 309.8635 
L 266.416004 153.945976 
L 264.277406 134.456286 
L 262.138808 192.925357 
L 260.069197 37.007833 
L 257.930599 153.945976 
L 255.860988 134.456286 
L 253.72239 309.8635 
L 251.583792 183.180512 
L 249.51418 144.201131 
L 247.375582 144.201131 
L 245.305971 202.670202 
L 243.167373 144.201131 
L 241.235736 309.8635 
L 239.097138 134.456286 
L 236.95854 134.456286 
L 234.888929 134.456286 
L 232.750331 144.201131 
L 230.680719 149.073554 
L 228.542121 144.201131 
L 226.403523 309.8635 
L 224.333912 134.456286 
L 222.195314 134.456286 
L 220.125703 144.201131 
L 217.987105 134.456286 
L 216.055468 134.456286 
L 213.916869 144.201131 
L 211.778271 139.328708 
L 209.70866 153.945976 
L 207.570062 144.201131 
L 205.500451 153.945976 
L 203.361853 144.201131 
L 201.223255 251.394429 
L 199.153644 251.394429 
L 197.015045 290.37381 
L 194.945434 261.139274 
L 192.806836 280.628964 
L 190.806212 178.308089 
L 188.667614 134.456286 
L 186.529016 139.328708 
L 184.459405 158.818399 
L 182.320807 158.818399 
L 180.251196 139.328708 
L 178.112597 144.201131 
L 175.973999 139.328708 
L 173.904388 139.328708 
L 171.76579 192.925357 
L 169.696179 144.201131 
L 167.557581 153.945976 
L 165.625944 309.8635 
L 163.487346 309.8635 
L 161.348748 290.37381 
L 159.279136 134.456286 
L 157.140538 153.945976 
L 155.070927 309.8635 
L 152.932329 158.818399 
L 150.793731 144.201131 
L 148.72412 139.328708 
L 146.585522 309.8635 
L 144.515911 309.8635 
L 142.377312 309.8635 
L 140.445675 309.8635 
L 138.307077 309.8635 
L 136.168479 309.8635 
L 134.098868 309.8635 
L 131.96027 309.8635 
L 129.890659 309.8635 
L 127.752061 309.8635 
L 125.613462 309.8635 
L 123.543851 309.8635 
L 121.405253 309.8635 
L 119.335642 309.8635 
L 117.197044 309.8635 
L 115.265407 309.8635 
L 113.126809 309.8635 
L 110.988211 309.8635 
L 108.9186 309.8635 
L 106.780001 309.8635 
L 104.71039 309.8635 
L 102.571792 309.8635 
L 100.433194 309.8635 
L 98.363583 309.8635 
L 96.224985 309.8635 
L 94.155374 309.8635 
L 92.016776 309.8635 
L 90.016152 309.8635 
L 87.877553 309.8635 
L 85.738955 309.8635 
L 83.669344 134.456286 
L 81.530746 139.328708 
L 79.461135 139.328708 
L 77.322537 134.456286 
L 75.183939 134.456286 
L 73.114328 217.28747 
L 70.975729 192.925357 
L 68.906118 309.8635 
L 66.76752 114.966595 
L 64.835883 309.8635 
L 62.697285 309.8635 
L 60.558687 309.8635 
L 58.489076 153.945976 
L 56.350478 134.456286 
L 54.280867 212.415048 
L 52.142268 134.456286 
L 50.00367 114.966595 
L 47.934059 124.71144 
L 45.795461 124.71144 
L 43.72585 309.8635 
L 41.587252 309.8635 
L 39.655615 309.8635 
L 37.517017 222.159893 
L 35.378418 163.690821 
L 33.308807 222.159893 
L 31.170209 309.8635 
L 29.100598 124.71144 
L 26.962 309.8635 
z
" style="fill:#808080;fill-opacity:0.3;"/>
   </g>
   <g id="PolyCollection_2">
    <path clip-path="url(#p080005d5d5)" d="M 26.962 309.8635 
L 26.962 309.8635 
L 29.100598 309.8635 
L 31.170209 309.8635 
L 33.308807 309.8635 
L 35.378418 309.8635 
L 37.517017 309.8635 
L 39.655615 309.8635 
L 41.587252 309.8635 
L 43.72585 309.8635 
L 45.795461 309.8635 
L 47.934059 309.8635 
L 50.00367 309.8635 
L 52.142268 309.8635 
L 54.280867 309.8635 
L 56.350478 309.8635 
L 58.489076 309.8635 
L 60.558687 309.8635 
L 62.697285 309.8635 
L 64.835883 309.8635 
L 66.76752 309.8635 
L 68.906118 309.8635 
L 70.975729 309.8635 
L 73.114328 309.8635 
L 75.183939 309.8635 
L 77.322537 309.8635 
L 79.461135 309.8635 
L 81.530746 309.8635 
L 83.669344 309.8635 
L 85.738955 309.8635 
L 87.877553 309.8635 
L 90.016152 309.8635 
L 92.016776 309.8635 
L 94.155374 309.8635 
L 96.224985 309.8635 
L 98.363583 309.8635 
L 100.433194 309.8635 
L 102.571792 309.8635 
L 104.71039 309.8635 
L 106.780001 309.8635 
L 108.9186 309.8635 
L 110.988211 309.8635 
L 113.126809 309.8635 
L 115.265407 309.8635 
L 117.197044 309.8635 
L 119.335642 309.8635 
L 121.405253 309.8635 
L 123.543851 309.8635 
L 125.613462 309.8635 
L 127.752061 309.8635 
L 129.890659 309.8635 
L 131.96027 309.8635 
L 134.098868 309.8635 
L 136.168479 309.8635 
L 138.307077 309.8635 
L 140.445675 309.8635 
L 142.377312 309.8635 
L 144.515911 309.8635 
L 146.585522 309.8635 
L 148.72412 309.8635 
L 150.793731 309.8635 
L 152.932329 309.8635 
L 155.070927 309.8635 
L 157.140538 309.8635 
L 159.279136 309.8635 
L 161.348748 309.8635 
L 163.487346 309.8635 
L 165.625944 309.8635 
L 167.557581 309.8635 
L 169.696179 309.8635 
L 171.76579 309.8635 
L 173.904388 309.8635 
L 175.973999 309.8635 
L 178.112597 309.8635 
L 180.251196 309.8635 
L 182.320807 309.8635 
L 184.459405 309.8635 
L 186.529016 309.8635 
L 188.667614 309.8635 
L 190.806212 309.8635 
L 192.806836 309.8635 
L 194.945434 309.8635 
L 197.015045 309.8635 
L 199.153644 309.8635 
L 201.223255 309.8635 
L 203.361853 309.8635 
L 205.500451 309.8635 
L 207.570062 309.8635 
L 209.70866 309.8635 
L 211.778271 309.8635 
L 213.916869 309.8635 
L 216.055468 309.8635 
L 217.987105 309.8635 
L 220.125703 309.8635 
L 222.195314 309.8635 
L 224.333912 309.8635 
L 226.403523 309.8635 
L 228.542121 309.8635 
L 230.680719 309.8635 
L 232.750331 309.8635 
L 234.888929 309.8635 
L 236.95854 309.8635 
L 239.097138 309.8635 
L 241.235736 309.8635 
L 243.167373 309.8635 
L 245.305971 309.8635 
L 247.375582 309.8635 
L 249.51418 309.8635 
L 251.583792 309.8635 
L 253.72239 309.8635 
L 255.860988 309.8635 
L 257.930599 309.8635 
L 260.069197 309.8635 
L 262.138808 309.8635 
L 264.277406 309.8635 
L 266.416004 309.8635 
L 268.347641 309.8635 
L 270.48624 309.8635 
L 272.555851 309.8635 
L 274.694449 309.8635 
L 276.76406 309.8635 
L 278.902658 309.8635 
L 281.041256 309.8635 
L 283.110867 309.8635 
L 285.249465 309.8635 
L 287.319077 309.8635 
L 289.457675 309.8635 
L 291.596273 309.8635 
L 293.596897 309.8635 
L 295.735495 309.8635 
L 297.805106 309.8635 
L 299.943704 309.8635 
L 302.013315 309.8635 
L 304.151913 309.8635 
L 306.290512 309.8635 
L 308.360123 309.8635 
L 310.498721 309.8635 
L 312.568332 309.8635 
L 314.70693 309.8635 
L 316.845528 309.8635 
L 318.777165 309.8635 
L 320.915763 309.8635 
L 322.985375 309.8635 
L 325.123973 309.8635 
L 327.193584 309.8635 
L 329.332182 309.8635 
L 331.47078 309.8635 
L 333.540391 309.8635 
L 335.678989 309.8635 
L 337.7486 309.8635 
L 339.887199 309.8635 
L 342.025797 309.8635 
L 343.957434 309.8635 
L 346.096032 309.8635 
L 348.165643 309.8635 
L 350.304241 309.8635 
L 352.373852 309.8635 
L 354.51245 309.8635 
L 356.651048 309.8635 
L 358.72066 309.8635 
L 360.859258 309.8635 
L 362.928869 309.8635 
L 365.067467 309.8635 
L 367.206065 309.8635 
L 369.137702 309.8635 
L 371.2763 309.8635 
L 373.345911 309.8635 
L 375.484509 309.8635 
L 377.554121 309.8635 
L 379.692719 309.8635 
L 381.831317 309.8635 
L 383.900928 309.8635 
L 386.039526 309.8635 
L 388.109137 309.8635 
L 390.247735 309.8635 
L 392.386333 309.8635 
L 394.386958 309.8635 
L 396.525556 309.8635 
L 398.595167 309.8635 
L 400.733765 309.8635 
L 402.803376 309.8635 
L 404.941974 309.8635 
L 407.080572 309.8635 
L 409.150183 309.8635 
L 411.288782 309.8635 
L 413.358393 309.8635 
L 415.496991 309.8635 
L 417.635589 309.8635 
L 419.567226 309.8635 
L 421.705824 309.8635 
L 423.775435 309.8635 
L 425.914033 309.8635 
L 427.983644 309.8635 
L 430.122243 309.8635 
L 432.260841 309.8635 
L 434.330452 309.8635 
L 436.46905 309.8635 
L 438.538661 309.8635 
L 440.677259 309.8635 
L 442.815857 309.8635 
L 444.747494 309.8635 
L 446.886092 309.8635 
L 446.886092 309.8635 
L 446.886092 309.8635 
L 444.747494 309.8635 
L 442.815857 309.8635 
L 440.677259 309.8635 
L 438.538661 309.8635 
L 436.46905 309.8635 
L 434.330452 309.8635 
L 432.260841 309.8635 
L 430.122243 309.8635 
L 427.983644 309.8635 
L 425.914033 309.8635 
L 423.775435 309.8635 
L 421.705824 309.8635 
L 419.567226 309.8635 
L 417.635589 309.8635 
L 415.496991 309.8635 
L 413.358393 309.8635 
L 411.288782 309.8635 
L 409.150183 309.8635 
L 407.080572 309.8635 
L 404.941974 309.8635 
L 402.803376 309.8635 
L 400.733765 309.8635 
L 398.595167 309.8635 
L 396.525556 309.8635 
L 394.386958 309.8635 
L 392.386333 309.8635 
L 390.247735 309.8635 
L 388.109137 309.8635 
L 386.039526 309.8635 
L 383.900928 309.8635 
L 381.831317 309.8635 
L 379.692719 309.8635 
L 377.554121 309.8635 
L 375.484509 309.8635 
L 373.345911 309.8635 
L 371.2763 309.8635 
L 369.137702 309.8635 
L 367.206065 309.8635 
L 365.067467 309.8635 
L 362.928869 309.8635 
L 360.859258 309.8635 
L 358.72066 309.8635 
L 356.651048 309.8635 
L 354.51245 309.8635 
L 352.373852 309.8635 
L 350.304241 309.8635 
L 348.165643 309.8635 
L 346.096032 309.8635 
L 343.957434 309.8635 
L 342.025797 309.8635 
L 339.887199 309.8635 
L 337.7486 309.8635 
L 335.678989 309.8635 
L 333.540391 309.8635 
L 331.47078 309.8635 
L 329.332182 309.8635 
L 327.193584 309.8635 
L 325.123973 309.8635 
L 322.985375 309.8635 
L 320.915763 309.8635 
L 318.777165 309.8635 
L 316.845528 309.8635 
L 314.70693 309.8635 
L 312.568332 309.8635 
L 310.498721 309.8635 
L 308.360123 309.8635 
L 306.290512 309.8635 
L 304.151913 309.8635 
L 302.013315 309.8635 
L 299.943704 309.8635 
L 297.805106 309.8635 
L 295.735495 309.8635 
L 293.596897 309.8635 
L 291.596273 309.8635 
L 289.457675 309.8635 
L 287.319077 309.8635 
L 285.249465 309.8635 
L 283.110867 309.8635 
L 281.041256 309.8635 
L 278.902658 309.8635 
L 276.76406 309.8635 
L 274.694449 309.8635 
L 272.555851 309.8635 
L 270.48624 309.8635 
L 268.347641 309.8635 
L 266.416004 309.8635 
L 264.277406 309.8635 
L 262.138808 309.8635 
L 260.069197 309.8635 
L 257.930599 309.8635 
L 255.860988 309.8635 
L 253.72239 309.8635 
L 251.583792 309.8635 
L 249.51418 309.8635 
L 247.375582 309.8635 
L 245.305971 309.8635 
L 243.167373 309.8635 
L 241.235736 309.8635 
L 239.097138 309.8635 
L 236.95854 309.8635 
L 234.888929 309.8635 
L 232.750331 309.8635 
L 230.680719 309.8635 
L 228.542121 309.8635 
L 226.403523 309.8635 
L 224.333912 309.8635 
L 222.195314 309.8635 
L 220.125703 309.8635 
L 217.987105 309.8635 
L 216.055468 309.8635 
L 213.916869 309.8635 
L 211.778271 309.8635 
L 209.70866 309.8635 
L 207.570062 309.8635 
L 205.500451 309.8635 
L 203.361853 309.8635 
L 201.223255 309.8635 
L 199.153644 309.8635 
L 197.015045 309.8635 
L 194.945434 309.8635 
L 192.806836 309.8635 
L 190.806212 309.8635 
L 188.667614 309.8635 
L 186.529016 309.8635 
L 184.459405 309.8635 
L 182.320807 309.8635 
L 180.251196 309.8635 
L 178.112597 309.8635 
L 175.973999 309.8635 
L 173.904388 309.8635 
L 171.76579 309.8635 
L 169.696179 309.8635 
L 167.557581 309.8635 
L 165.625944 309.8635 
L 163.487346 309.8635 
L 161.348748 309.8635 
L 159.279136 309.8635 
L 157.140538 309.8635 
L 155.070927 309.8635 
L 152.932329 309.8635 
L 150.793731 309.8635 
L 148.72412 309.8635 
L 146.585522 309.8635 
L 144.515911 309.8635 
L 142.377312 309.8635 
L 140.445675 309.8635 
L 138.307077 309.8635 
L 136.168479 309.8635 
L 134.098868 309.8635 
L 131.96027 309.8635 
L 129.890659 309.8635 
L 127.752061 309.8635 
L 125.613462 309.8635 
L 123.543851 309.8635 
L 121.405253 309.8635 
L 119.335642 309.8635 
L 117.197044 309.8635 
L 115.265407 309.8635 
L 113.126809 309.8635 
L 110.988211 309.8635 
L 108.9186 309.8635 
L 106.780001 309.8635 
L 104.71039 309.8635 
L 102.571792 309.8635 
L 100.433194 309.8635 
L 98.363583 309.8635 
L 96.224985 309.8635 
L 94.155374 309.8635 
L 92.016776 309.8635 
L 90.016152 309.8635 
L 87.877553 309.8635 
L 85.738955 309.8635 
L 83.669344 309.8635 
L 81.530746 309.8635 
L 79.461135 251.394429 
L 77.322537 275.756542 
L 75.183939 309.8635 
L 73.114328 309.8635 
L 70.975729 309.8635 
L 68.906118 309.8635 
L 66.76752 309.8635 
L 64.835883 309.8635 
L 62.697285 309.8635 
L 60.558687 309.8635 
L 58.489076 309.8635 
L 56.350478 309.8635 
L 54.280867 309.8635 
L 52.142268 309.8635 
L 50.00367 309.8635 
L 47.934059 309.8635 
L 45.795461 309.8635 
L 43.72585 309.8635 
L 41.587252 309.8635 
L 39.655615 309.8635 
L 37.517017 309.8635 
L 35.378418 309.8635 
L 33.308807 309.8635 
L 31.170209 309.8635 
L 29.100598 309.8635 
L 26.962 309.8635 
z
" style="fill:#808080;fill-opacity:0.6;"/>
   </g>
   <g id="matplotlib.axis_1">
    <g id="xtick_1">
     <g id="line2d_1">
      <path clip-path="url(#p080005d5d5)" d="M 37.586004 309.8635 
L 37.586004 23.36505 
" style="fill:none;stroke:#b0b0b0;stroke-linecap:square;stroke-width:0.8;"/>
     </g>
     <g id="line2d_2">
      <defs>
       <path d="M 0 0 
L 0 3.5 
" id="m9f63f462b8" style="stroke:#000000;stroke-width:0.8;"/>
      </defs>
      <g>
       <use style="stroke:#000000;stroke-width:0.8;" x="37.586004" xlink:href="#m9f63f462b8" y="309.8635"/>
      </g>
     </g>
     <g id="text_1">
      <!-- 2002 -->
      <defs>
       <path d="M 19.1875 8.296875 
L 53.609375 8.296875 
L 53.609375 0 
L 7.328125 0 
L 7.328125 8.296875 
Q 12.9375 14.109375 22.625 23.890625 
Q 32.328125 33.6875 34.8125 36.53125 
Q 39.546875 41.84375 41.421875 45.53125 
Q 43.3125 49.21875 43.3125 52.78125 
Q 43.3125 58.59375 39.234375 62.25 
Q 35.15625 65.921875 28.609375 65.921875 
Q 23.96875 65.921875 18.8125 64.3125 
Q 13.671875 62.703125 7.8125 59.421875 
L 7.8125 69.390625 
Q 13.765625 71.78125 18.9375 73 
Q 24.125 74.21875 28.421875 74.21875 
Q 39.75 74.21875 46.484375 68.546875 
Q 53.21875 62.890625 53.21875 53.421875 
Q 53.21875 48.921875 51.53125 44.890625 
Q 49.859375 40.875 45.40625 35.40625 
Q 44.1875 33.984375 37.640625 27.21875 
Q 31.109375 20.453125 19.1875 8.296875 
z
" id="DejaVuSans-32"/>
       <path d="M 31.78125 66.40625 
Q 24.171875 66.40625 20.328125 58.90625 
Q 16.5 51.421875 16.5 36.375 
Q 16.5 21.390625 20.328125 13.890625 
Q 24.171875 6.390625 31.78125 6.390625 
Q 39.453125 6.390625 43.28125 13.890625 
Q 47.125 21.390625 47.125 36.375 
Q 47.125 51.421875 43.28125 58.90625 
Q 39.453125 66.40625 31.78125 66.40625 
z
M 31.78125 74.21875 
Q 44.046875 74.21875 50.515625 64.515625 
Q 56.984375 54.828125 56.984375 36.375 
Q 56.984375 17.96875 50.515625 8.265625 
Q 44.046875 -1.421875 31.78125 -1.421875 
Q 19.53125 -1.421875 13.0625 8.265625 
Q 6.59375 17.96875 6.59375 36.375 
Q 6.59375 54.828125 13.0625 64.515625 
Q 19.53125 74.21875 31.78125 74.21875 
z
" id="DejaVuSans-30"/>
      </defs>
      <g transform="translate(24.861004 324.461937)scale(0.1 -0.1)">
       <use xlink:href="#DejaVuSans-32"/>
       <use x="63.623047" xlink:href="#DejaVuSans-30"/>
       <use x="127.246094" xlink:href="#DejaVuSans-30"/>
       <use x="190.869141" xlink:href="#DejaVuSans-32"/>
      </g>
     </g>
    </g>
    <g id="xtick_2">
     <g id="line2d_3">
      <path clip-path="url(#p080005d5d5)" d="M 87.94654 309.8635 
L 87.94654 23.36505 
" style="fill:none;stroke:#b0b0b0;stroke-linecap:square;stroke-width:0.8;"/>
     </g>
     <g id="line2d_4">
      <g>
       <use style="stroke:#000000;stroke-width:0.8;" x="87.94654" xlink:href="#m9f63f462b8" y="309.8635"/>
      </g>
     </g>
     <g id="text_2">
      <!-- 2004 -->
      <defs>
       <path d="M 37.796875 64.3125 
L 12.890625 25.390625 
L 37.796875 25.390625 
z
M 35.203125 72.90625 
L 47.609375 72.90625 
L 47.609375 25.390625 
L 58.015625 25.390625 
L 58.015625 17.1875 
L 47.609375 17.1875 
L 47.609375 0 
L 37.796875 0 
L 37.796875 17.1875 
L 4.890625 17.1875 
L 4.890625 26.703125 
z
" id="DejaVuSans-34"/>
      </defs>
      <g transform="translate(75.22154 324.461937)scale(0.1 -0.1)">
       <use xlink:href="#DejaVuSans-32"/>
       <use x="63.623047" xlink:href="#DejaVuSans-30"/>
       <use x="127.246094" xlink:href="#DejaVuSans-30"/>
       <use x="190.869141" xlink:href="#DejaVuSans-34"/>
      </g>
     </g>
    </g>
    <g id="xtick_3">
     <g id="line2d_5">
      <path clip-path="url(#p080005d5d5)" d="M 138.376064 309.8635 
L 138.376064 23.36505 
" style="fill:none;stroke:#b0b0b0;stroke-linecap:square;stroke-width:0.8;"/>
     </g>
     <g id="line2d_6">
      <g>
       <use style="stroke:#000000;stroke-width:0.8;" x="138.376064" xlink:href="#m9f63f462b8" y="309.8635"/>
      </g>
     </g>
     <g id="text_3">
      <!-- 2006 -->
      <defs>
       <path d="M 33.015625 40.375 
Q 26.375 40.375 22.484375 35.828125 
Q 18.609375 31.296875 18.609375 23.390625 
Q 18.609375 15.53125 22.484375 10.953125 
Q 26.375 6.390625 33.015625 6.390625 
Q 39.65625 6.390625 43.53125 10.953125 
Q 47.40625 15.53125 47.40625 23.390625 
Q 47.40625 31.296875 43.53125 35.828125 
Q 39.65625 40.375 33.015625 40.375 
z
M 52.59375 71.296875 
L 52.59375 62.3125 
Q 48.875 64.0625 45.09375 64.984375 
Q 41.3125 65.921875 37.59375 65.921875 
Q 27.828125 65.921875 22.671875 59.328125 
Q 17.53125 52.734375 16.796875 39.40625 
Q 19.671875 43.65625 24.015625 45.921875 
Q 28.375 48.1875 33.59375 48.1875 
Q 44.578125 48.1875 50.953125 41.515625 
Q 57.328125 34.859375 57.328125 23.390625 
Q 57.328125 12.15625 50.6875 5.359375 
Q 44.046875 -1.421875 33.015625 -1.421875 
Q 20.359375 -1.421875 13.671875 8.265625 
Q 6.984375 17.96875 6.984375 36.375 
Q 6.984375 53.65625 15.1875 63.9375 
Q 23.390625 74.21875 37.203125 74.21875 
Q 40.921875 74.21875 44.703125 73.484375 
Q 48.484375 72.75 52.59375 71.296875 
z
" id="DejaVuSans-36"/>
      </defs>
      <g transform="translate(125.651064 324.461937)scale(0.1 -0.1)">
       <use xlink:href="#DejaVuSans-32"/>
       <use x="63.623047" xlink:href="#DejaVuSans-30"/>
       <use x="127.246094" xlink:href="#DejaVuSans-30"/>
       <use x="190.869141" xlink:href="#DejaVuSans-36"/>
      </g>
     </g>
    </g>
    <g id="xtick_4">
     <g id="line2d_7">
      <path clip-path="url(#p080005d5d5)" d="M 188.736601 309.8635 
L 188.736601 23.36505 
" style="fill:none;stroke:#b0b0b0;stroke-linecap:square;stroke-width:0.8;"/>
     </g>
     <g id="line2d_8">
      <g>
       <use style="stroke:#000000;stroke-width:0.8;" x="188.736601" xlink:href="#m9f63f462b8" y="309.8635"/>
      </g>
     </g>
     <g id="text_4">
      <!-- 2008 -->
      <defs>
       <path d="M 31.78125 34.625 
Q 24.75 34.625 20.71875 30.859375 
Q 16.703125 27.09375 16.703125 20.515625 
Q 16.703125 13.921875 20.71875 10.15625 
Q 24.75 6.390625 31.78125 6.390625 
Q 38.8125 6.390625 42.859375 10.171875 
Q 46.921875 13.96875 46.921875 20.515625 
Q 46.921875 27.09375 42.890625 30.859375 
Q 38.875 34.625 31.78125 34.625 
z
M 21.921875 38.8125 
Q 15.578125 40.375 12.03125 44.71875 
Q 8.5 49.078125 8.5 55.328125 
Q 8.5 64.0625 14.71875 69.140625 
Q 20.953125 74.21875 31.78125 74.21875 
Q 42.671875 74.21875 48.875 69.140625 
Q 55.078125 64.0625 55.078125 55.328125 
Q 55.078125 49.078125 51.53125 44.71875 
Q 48 40.375 41.703125 38.8125 
Q 48.828125 37.15625 52.796875 32.3125 
Q 56.78125 27.484375 56.78125 20.515625 
Q 56.78125 9.90625 50.3125 4.234375 
Q 43.84375 -1.421875 31.78125 -1.421875 
Q 19.734375 -1.421875 13.25 4.234375 
Q 6.78125 9.90625 6.78125 20.515625 
Q 6.78125 27.484375 10.78125 32.3125 
Q 14.796875 37.15625 21.921875 38.8125 
z
M 18.3125 54.390625 
Q 18.3125 48.734375 21.84375 45.5625 
Q 25.390625 42.390625 31.78125 42.390625 
Q 38.140625 42.390625 41.71875 45.5625 
Q 45.3125 48.734375 45.3125 54.390625 
Q 45.3125 60.0625 41.71875 63.234375 
Q 38.140625 66.40625 31.78125 66.40625 
Q 25.390625 66.40625 21.84375 63.234375 
Q 18.3125 60.0625 18.3125 54.390625 
z
" id="DejaVuSans-38"/>
      </defs>
      <g transform="translate(176.011601 324.461937)scale(0.1 -0.1)">
       <use xlink:href="#DejaVuSans-32"/>
       <use x="63.623047" xlink:href="#DejaVuSans-30"/>
       <use x="127.246094" xlink:href="#DejaVuSans-30"/>
       <use x="190.869141" xlink:href="#DejaVuSans-38"/>
      </g>
     </g>
    </g>
    <g id="xtick_5">
     <g id="line2d_9">
      <path clip-path="url(#p080005d5d5)" d="M 239.166125 309.8635 
L 239.166125 23.36505 
" style="fill:none;stroke:#b0b0b0;stroke-linecap:square;stroke-width:0.8;"/>
     </g>
     <g id="line2d_10">
      <g>
       <use style="stroke:#000000;stroke-width:0.8;" x="239.166125" xlink:href="#m9f63f462b8" y="309.8635"/>
      </g>
     </g>
     <g id="text_5">
      <!-- 2010 -->
      <defs>
       <path d="M 12.40625 8.296875 
L 28.515625 8.296875 
L 28.515625 63.921875 
L 10.984375 60.40625 
L 10.984375 69.390625 
L 28.421875 72.90625 
L 38.28125 72.90625 
L 38.28125 8.296875 
L 54.390625 8.296875 
L 54.390625 0 
L 12.40625 0 
z
" id="DejaVuSans-31"/>
      </defs>
      <g transform="translate(226.441125 324.461937)scale(0.1 -0.1)">
       <use xlink:href="#DejaVuSans-32"/>
       <use x="63.623047" xlink:href="#DejaVuSans-30"/>
       <use x="127.246094" xlink:href="#DejaVuSans-31"/>
       <use x="190.869141" xlink:href="#DejaVuSans-30"/>
      </g>
     </g>
    </g>
    <g id="xtick_6">
     <g id="line2d_11">
      <path clip-path="url(#p080005d5d5)" d="M 289.526662 309.8635 
L 289.526662 23.36505 
" style="fill:none;stroke:#b0b0b0;stroke-linecap:square;stroke-width:0.8;"/>
     </g>
     <g id="line2d_12">
      <g>
       <use style="stroke:#000000;stroke-width:0.8;" x="289.526662" xlink:href="#m9f63f462b8" y="309.8635"/>
      </g>
     </g>
     <g id="text_6">
      <!-- 2012 -->
      <g transform="translate(276.801662 324.461937)scale(0.1 -0.1)">
       <use xlink:href="#DejaVuSans-32"/>
       <use x="63.623047" xlink:href="#DejaVuSans-30"/>
       <use x="127.246094" xlink:href="#DejaVuSans-31"/>
       <use x="190.869141" xlink:href="#DejaVuSans-32"/>
      </g>
     </g>
    </g>
    <g id="xtick_7">
     <g id="line2d_13">
      <path clip-path="url(#p080005d5d5)" d="M 339.956186 309.8635 
L 339.956186 23.36505 
" style="fill:none;stroke:#b0b0b0;stroke-linecap:square;stroke-width:0.8;"/>
     </g>
     <g id="line2d_14">
      <g>
       <use style="stroke:#000000;stroke-width:0.8;" x="339.956186" xlink:href="#m9f63f462b8" y="309.8635"/>
      </g>
     </g>
     <g id="text_7">
      <!-- 2014 -->
      <g transform="translate(327.231186 324.461937)scale(0.1 -0.1)">
       <use xlink:href="#DejaVuSans-32"/>
       <use x="63.623047" xlink:href="#DejaVuSans-30"/>
       <use x="127.246094" xlink:href="#DejaVuSans-31"/>
       <use x="190.869141" xlink:href="#DejaVuSans-34"/>
      </g>
     </g>
    </g>
    <g id="xtick_8">
     <g id="line2d_15">
      <path clip-path="url(#p080005d5d5)" d="M 390.316722 309.8635 
L 390.316722 23.36505 
" style="fill:none;stroke:#b0b0b0;stroke-linecap:square;stroke-width:0.8;"/>
     </g>
     <g id="line2d_16">
      <g>
       <use style="stroke:#000000;stroke-width:0.8;" x="390.316722" xlink:href="#m9f63f462b8" y="309.8635"/>
      </g>
     </g>
     <g id="text_8">
      <!-- 2016 -->
      <g transform="translate(377.591722 324.461937)scale(0.1 -0.1)">
       <use xlink:href="#DejaVuSans-32"/>
       <use x="63.623047" xlink:href="#DejaVuSans-30"/>
       <use x="127.246094" xlink:href="#DejaVuSans-31"/>
       <use x="190.869141" xlink:href="#DejaVuSans-36"/>
      </g>
     </g>
    </g>
    <g id="xtick_9">
     <g id="line2d_17">
      <path clip-path="url(#p080005d5d5)" d="M 440.746246 309.8635 
L 440.746246 23.36505 
" style="fill:none;stroke:#b0b0b0;stroke-linecap:square;stroke-width:0.8;"/>
     </g>
     <g id="line2d_18">
      <g>
       <use style="stroke:#000000;stroke-width:0.8;" x="440.746246" xlink:href="#m9f63f462b8" y="309.8635"/>
      </g>
     </g>
     <g id="text_9">
      <!-- 2018 -->
      <g transform="translate(428.021246 324.461937)scale(0.1 -0.1)">
       <use xlink:href="#DejaVuSans-32"/>
       <use x="63.623047" xlink:href="#DejaVuSans-30"/>
       <use x="127.246094" xlink:href="#DejaVuSans-31"/>
       <use x="190.869141" xlink:href="#DejaVuSans-38"/>
      </g>
     </g>
    </g>
    <g id="text_10">
     <!-- Date -->
     <defs>
      <path d="M 19.671875 64.796875 
L 19.671875 8.109375 
L 31.59375 8.109375 
Q 46.6875 8.109375 53.6875 14.9375 
Q 60.6875 21.78125 60.6875 36.53125 
Q 60.6875 51.171875 53.6875 57.984375 
Q 46.6875 64.796875 31.59375 64.796875 
z
M 9.8125 72.90625 
L 30.078125 72.90625 
Q 51.265625 72.90625 61.171875 64.09375 
Q 71.09375 55.28125 71.09375 36.53125 
Q 71.09375 17.671875 61.125 8.828125 
Q 51.171875 0 30.078125 0 
L 9.8125 0 
z
" id="DejaVuSans-44"/>
      <path d="M 34.28125 27.484375 
Q 23.390625 27.484375 19.1875 25 
Q 14.984375 22.515625 14.984375 16.5 
Q 14.984375 11.71875 18.140625 8.90625 
Q 21.296875 6.109375 26.703125 6.109375 
Q 34.1875 6.109375 38.703125 11.40625 
Q 43.21875 16.703125 43.21875 25.484375 
L 43.21875 27.484375 
z
M 52.203125 31.203125 
L 52.203125 0 
L 43.21875 0 
L 43.21875 8.296875 
Q 40.140625 3.328125 35.546875 0.953125 
Q 30.953125 -1.421875 24.3125 -1.421875 
Q 15.921875 -1.421875 10.953125 3.296875 
Q 6 8.015625 6 15.921875 
Q 6 25.140625 12.171875 29.828125 
Q 18.359375 34.515625 30.609375 34.515625 
L 43.21875 34.515625 
L 43.21875 35.40625 
Q 43.21875 41.609375 39.140625 45 
Q 35.0625 48.390625 27.6875 48.390625 
Q 23 48.390625 18.546875 47.265625 
Q 14.109375 46.140625 10.015625 43.890625 
L 10.015625 52.203125 
Q 14.9375 54.109375 19.578125 55.046875 
Q 24.21875 56 28.609375 56 
Q 40.484375 56 46.34375 49.84375 
Q 52.203125 43.703125 52.203125 31.203125 
z
" id="DejaVuSans-61"/>
      <path d="M 18.3125 70.21875 
L 18.3125 54.6875 
L 36.8125 54.6875 
L 36.8125 47.703125 
L 18.3125 47.703125 
L 18.3125 18.015625 
Q 18.3125 11.328125 20.140625 9.421875 
Q 21.96875 7.515625 27.59375 7.515625 
L 36.8125 7.515625 
L 36.8125 0 
L 27.59375 0 
Q 17.1875 0 13.234375 3.875 
Q 9.28125 7.765625 9.28125 18.015625 
L 9.28125 47.703125 
L 2.6875 47.703125 
L 2.6875 54.6875 
L 9.28125 54.6875 
L 9.28125 70.21875 
z
" id="DejaVuSans-74"/>
      <path d="M 56.203125 29.59375 
L 56.203125 25.203125 
L 14.890625 25.203125 
Q 15.484375 15.921875 20.484375 11.0625 
Q 25.484375 6.203125 34.421875 6.203125 
Q 39.59375 6.203125 44.453125 7.46875 
Q 49.3125 8.734375 54.109375 11.28125 
L 54.109375 2.78125 
Q 49.265625 0.734375 44.1875 -0.34375 
Q 39.109375 -1.421875 33.890625 -1.421875 
Q 20.796875 -1.421875 13.15625 6.1875 
Q 5.515625 13.8125 5.515625 26.8125 
Q 5.515625 40.234375 12.765625 48.109375 
Q 20.015625 56 32.328125 56 
Q 43.359375 56 49.78125 48.890625 
Q 56.203125 41.796875 56.203125 29.59375 
z
M 47.21875 32.234375 
Q 47.125 39.59375 43.09375 43.984375 
Q 39.0625 48.390625 32.421875 48.390625 
Q 24.90625 48.390625 20.390625 44.140625 
Q 15.875 39.890625 15.1875 32.171875 
z
" id="DejaVuSans-65"/>
     </defs>
     <g transform="translate(224.973265 338.140062)scale(0.1 -0.1)">
      <use xlink:href="#DejaVuSans-44"/>
      <use x="77.001953" xlink:href="#DejaVuSans-61"/>
      <use x="138.28125" xlink:href="#DejaVuSans-74"/>
      <use x="177.490234" xlink:href="#DejaVuSans-65"/>
     </g>
    </g>
   </g>
   <g id="matplotlib.axis_2">
    <g id="ytick_1">
     <g id="line2d_19">
      <path clip-path="url(#p080005d5d5)" d="M 26.962 309.8635 
L 446.886092 309.8635 
" style="fill:none;stroke:#b0b0b0;stroke-linecap:square;stroke-width:0.8;"/>
     </g>
     <g id="line2d_20">
      <defs>
       <path d="M 0 0 
L -3.5 0 
" id="m13d18b8bf3" style="stroke:#000000;stroke-width:0.8;"/>
      </defs>
      <g>
       <use style="stroke:#000000;stroke-width:0.8;" x="26.962" xlink:href="#m13d18b8bf3" y="309.8635"/>
      </g>
     </g>
     <g id="text_11">
      <!-- 0 -->
      <g transform="translate(13.5995 313.662719)scale(0.1 -0.1)">
       <use xlink:href="#DejaVuSans-30"/>
      </g>
     </g>
    </g>
    <g id="ytick_2">
     <g id="line2d_21">
      <path clip-path="url(#p080005d5d5)" d="M 26.962 261.139274 
L 446.886092 261.139274 
" style="fill:none;stroke:#b0b0b0;stroke-linecap:square;stroke-width:0.8;"/>
     </g>
     <g id="line2d_22">
      <g>
       <use style="stroke:#000000;stroke-width:0.8;" x="26.962" xlink:href="#m13d18b8bf3" y="261.139274"/>
      </g>
     </g>
     <g id="text_12">
      <!-- 10 -->
      <g transform="translate(7.237 264.938493)scale(0.1 -0.1)">
       <use xlink:href="#DejaVuSans-31"/>
       <use x="63.623047" xlink:href="#DejaVuSans-30"/>
      </g>
     </g>
    </g>
    <g id="ytick_3">
     <g id="line2d_23">
      <path clip-path="url(#p080005d5d5)" d="M 26.962 212.415048 
L 446.886092 212.415048 
" style="fill:none;stroke:#b0b0b0;stroke-linecap:square;stroke-width:0.8;"/>
     </g>
     <g id="line2d_24">
      <g>
       <use style="stroke:#000000;stroke-width:0.8;" x="26.962" xlink:href="#m13d18b8bf3" y="212.415048"/>
      </g>
     </g>
     <g id="text_13">
      <!-- 20 -->
      <g transform="translate(7.237 216.214266)scale(0.1 -0.1)">
       <use xlink:href="#DejaVuSans-32"/>
       <use x="63.623047" xlink:href="#DejaVuSans-30"/>
      </g>
     </g>
    </g>
    <g id="ytick_4">
     <g id="line2d_25">
      <path clip-path="url(#p080005d5d5)" d="M 26.962 163.690821 
L 446.886092 163.690821 
" style="fill:none;stroke:#b0b0b0;stroke-linecap:square;stroke-width:0.8;"/>
     </g>
     <g id="line2d_26">
      <g>
       <use style="stroke:#000000;stroke-width:0.8;" x="26.962" xlink:href="#m13d18b8bf3" y="163.690821"/>
      </g>
     </g>
     <g id="text_14">
      <!-- 30 -->
      <defs>
       <path d="M 40.578125 39.3125 
Q 47.65625 37.796875 51.625 33 
Q 55.609375 28.21875 55.609375 21.1875 
Q 55.609375 10.40625 48.1875 4.484375 
Q 40.765625 -1.421875 27.09375 -1.421875 
Q 22.515625 -1.421875 17.65625 -0.515625 
Q 12.796875 0.390625 7.625 2.203125 
L 7.625 11.71875 
Q 11.71875 9.328125 16.59375 8.109375 
Q 21.484375 6.890625 26.8125 6.890625 
Q 36.078125 6.890625 40.9375 10.546875 
Q 45.796875 14.203125 45.796875 21.1875 
Q 45.796875 27.640625 41.28125 31.265625 
Q 36.765625 34.90625 28.71875 34.90625 
L 20.21875 34.90625 
L 20.21875 43.015625 
L 29.109375 43.015625 
Q 36.375 43.015625 40.234375 45.921875 
Q 44.09375 48.828125 44.09375 54.296875 
Q 44.09375 59.90625 40.109375 62.90625 
Q 36.140625 65.921875 28.71875 65.921875 
Q 24.65625 65.921875 20.015625 65.03125 
Q 15.375 64.15625 9.8125 62.3125 
L 9.8125 71.09375 
Q 15.4375 72.65625 20.34375 73.4375 
Q 25.25 74.21875 29.59375 74.21875 
Q 40.828125 74.21875 47.359375 69.109375 
Q 53.90625 64.015625 53.90625 55.328125 
Q 53.90625 49.265625 50.4375 45.09375 
Q 46.96875 40.921875 40.578125 39.3125 
z
" id="DejaVuSans-33"/>
      </defs>
      <g transform="translate(7.237 167.49004)scale(0.1 -0.1)">
       <use xlink:href="#DejaVuSans-33"/>
       <use x="63.623047" xlink:href="#DejaVuSans-30"/>
      </g>
     </g>
    </g>
    <g id="ytick_5">
     <g id="line2d_27">
      <path clip-path="url(#p080005d5d5)" d="M 26.962 114.966595 
L 446.886092 114.966595 
" style="fill:none;stroke:#b0b0b0;stroke-linecap:square;stroke-width:0.8;"/>
     </g>
     <g id="line2d_28">
      <g>
       <use style="stroke:#000000;stroke-width:0.8;" x="26.962" xlink:href="#m13d18b8bf3" y="114.966595"/>
      </g>
     </g>
     <g id="text_15">
      <!-- 40 -->
      <g transform="translate(7.237 118.765814)scale(0.1 -0.1)">
       <use xlink:href="#DejaVuSans-34"/>
       <use x="63.623047" xlink:href="#DejaVuSans-30"/>
      </g>
     </g>
    </g>
    <g id="ytick_6">
     <g id="line2d_29">
      <path clip-path="url(#p080005d5d5)" d="M 26.962 66.242369 
L 446.886092 66.242369 
" style="fill:none;stroke:#b0b0b0;stroke-linecap:square;stroke-width:0.8;"/>
     </g>
     <g id="line2d_30">
      <g>
       <use style="stroke:#000000;stroke-width:0.8;" x="26.962" xlink:href="#m13d18b8bf3" y="66.242369"/>
      </g>
     </g>
     <g id="text_16">
      <!-- 50 -->
      <defs>
       <path d="M 10.796875 72.90625 
L 49.515625 72.90625 
L 49.515625 64.59375 
L 19.828125 64.59375 
L 19.828125 46.734375 
Q 21.96875 47.46875 24.109375 47.828125 
Q 26.265625 48.1875 28.421875 48.1875 
Q 40.625 48.1875 47.75 41.5 
Q 54.890625 34.8125 54.890625 23.390625 
Q 54.890625 11.625 47.5625 5.09375 
Q 40.234375 -1.421875 26.90625 -1.421875 
Q 22.3125 -1.421875 17.546875 -0.640625 
Q 12.796875 0.140625 7.71875 1.703125 
L 7.71875 11.625 
Q 12.109375 9.234375 16.796875 8.0625 
Q 21.484375 6.890625 26.703125 6.890625 
Q 35.15625 6.890625 40.078125 11.328125 
Q 45.015625 15.765625 45.015625 23.390625 
Q 45.015625 31 40.078125 35.4375 
Q 35.15625 39.890625 26.703125 39.890625 
Q 22.75 39.890625 18.8125 39.015625 
Q 14.890625 38.140625 10.796875 36.28125 
z
" id="DejaVuSans-35"/>
      </defs>
      <g transform="translate(7.237 70.041588)scale(0.1 -0.1)">
       <use xlink:href="#DejaVuSans-35"/>
       <use x="63.623047" xlink:href="#DejaVuSans-30"/>
      </g>
     </g>
    </g>
   </g>
   <g id="line2d_31">
    <path clip-path="url(#p080005d5d5)" d="M 26.962 309.8635 
L 446.886092 309.8635 
L 446.886092 309.8635 
" style="fill:none;stroke:#1f77b4;stroke-linecap:square;stroke-width:1.5;"/>
   </g>
   <g id="patch_3">
    <path d="M 26.962 309.8635 
L 26.962 23.36505 
" style="fill:none;stroke:#000000;stroke-linecap:square;stroke-linejoin:miter;stroke-width:0.8;"/>
   </g>
   <g id="patch_4">
    <path d="M 446.886092 309.8635 
L 446.886092 23.36505 
" style="fill:none;stroke:#000000;stroke-linecap:square;stroke-linejoin:miter;stroke-width:0.8;"/>
   </g>
   <g id="patch_5">
    <path d="M 26.962 309.8635 
L 446.886092 309.8635 
" style="fill:none;stroke:#000000;stroke-linecap:square;stroke-linejoin:miter;stroke-width:0.8;"/>
   </g>
   <g id="patch_6">
    <path d="M 26.962 23.36505 
L 446.886092 23.36505 
" style="fill:none;stroke:#000000;stroke-linecap:square;stroke-linejoin:miter;stroke-width:0.8;"/>
   </g>
   <g id="text_17">
    <!-- Monthly gross load trend (MW) -->
    <defs>
     <path d="M 9.8125 72.90625 
L 24.515625 72.90625 
L 43.109375 23.296875 
L 61.8125 72.90625 
L 76.515625 72.90625 
L 76.515625 0 
L 66.890625 0 
L 66.890625 64.015625 
L 48.09375 14.015625 
L 38.1875 14.015625 
L 19.390625 64.015625 
L 19.390625 0 
L 9.8125 0 
z
" id="DejaVuSans-4d"/>
     <path d="M 30.609375 48.390625 
Q 23.390625 48.390625 19.1875 42.75 
Q 14.984375 37.109375 14.984375 27.296875 
Q 14.984375 17.484375 19.15625 11.84375 
Q 23.34375 6.203125 30.609375 6.203125 
Q 37.796875 6.203125 41.984375 11.859375 
Q 46.1875 17.53125 46.1875 27.296875 
Q 46.1875 37.015625 41.984375 42.703125 
Q 37.796875 48.390625 30.609375 48.390625 
z
M 30.609375 56 
Q 42.328125 56 49.015625 48.375 
Q 55.71875 40.765625 55.71875 27.296875 
Q 55.71875 13.875 49.015625 6.21875 
Q 42.328125 -1.421875 30.609375 -1.421875 
Q 18.84375 -1.421875 12.171875 6.21875 
Q 5.515625 13.875 5.515625 27.296875 
Q 5.515625 40.765625 12.171875 48.375 
Q 18.84375 56 30.609375 56 
z
" id="DejaVuSans-6f"/>
     <path d="M 54.890625 33.015625 
L 54.890625 0 
L 45.90625 0 
L 45.90625 32.71875 
Q 45.90625 40.484375 42.875 44.328125 
Q 39.84375 48.1875 33.796875 48.1875 
Q 26.515625 48.1875 22.3125 43.546875 
Q 18.109375 38.921875 18.109375 30.90625 
L 18.109375 0 
L 9.078125 0 
L 9.078125 54.6875 
L 18.109375 54.6875 
L 18.109375 46.1875 
Q 21.34375 51.125 25.703125 53.5625 
Q 30.078125 56 35.796875 56 
Q 45.21875 56 50.046875 50.171875 
Q 54.890625 44.34375 54.890625 33.015625 
z
" id="DejaVuSans-6e"/>
     <path d="M 54.890625 33.015625 
L 54.890625 0 
L 45.90625 0 
L 45.90625 32.71875 
Q 45.90625 40.484375 42.875 44.328125 
Q 39.84375 48.1875 33.796875 48.1875 
Q 26.515625 48.1875 22.3125 43.546875 
Q 18.109375 38.921875 18.109375 30.90625 
L 18.109375 0 
L 9.078125 0 
L 9.078125 75.984375 
L 18.109375 75.984375 
L 18.109375 46.1875 
Q 21.34375 51.125 25.703125 53.5625 
Q 30.078125 56 35.796875 56 
Q 45.21875 56 50.046875 50.171875 
Q 54.890625 44.34375 54.890625 33.015625 
z
" id="DejaVuSans-68"/>
     <path d="M 9.421875 75.984375 
L 18.40625 75.984375 
L 18.40625 0 
L 9.421875 0 
z
" id="DejaVuSans-6c"/>
     <path d="M 32.171875 -5.078125 
Q 28.375 -14.84375 24.75 -17.8125 
Q 21.140625 -20.796875 15.09375 -20.796875 
L 7.90625 -20.796875 
L 7.90625 -13.28125 
L 13.1875 -13.28125 
Q 16.890625 -13.28125 18.9375 -11.515625 
Q 21 -9.765625 23.484375 -3.21875 
L 25.09375 0.875 
L 2.984375 54.6875 
L 12.5 54.6875 
L 29.59375 11.921875 
L 46.6875 54.6875 
L 56.203125 54.6875 
z
" id="DejaVuSans-79"/>
     <path id="DejaVuSans-20"/>
     <path d="M 45.40625 27.984375 
Q 45.40625 37.75 41.375 43.109375 
Q 37.359375 48.484375 30.078125 48.484375 
Q 22.859375 48.484375 18.828125 43.109375 
Q 14.796875 37.75 14.796875 27.984375 
Q 14.796875 18.265625 18.828125 12.890625 
Q 22.859375 7.515625 30.078125 7.515625 
Q 37.359375 7.515625 41.375 12.890625 
Q 45.40625 18.265625 45.40625 27.984375 
z
M 54.390625 6.78125 
Q 54.390625 -7.171875 48.1875 -13.984375 
Q 42 -20.796875 29.203125 -20.796875 
Q 24.46875 -20.796875 20.265625 -20.09375 
Q 16.0625 -19.390625 12.109375 -17.921875 
L 12.109375 -9.1875 
Q 16.0625 -11.328125 19.921875 -12.34375 
Q 23.78125 -13.375 27.78125 -13.375 
Q 36.625 -13.375 41.015625 -8.765625 
Q 45.40625 -4.15625 45.40625 5.171875 
L 45.40625 9.625 
Q 42.625 4.78125 38.28125 2.390625 
Q 33.9375 0 27.875 0 
Q 17.828125 0 11.671875 7.65625 
Q 5.515625 15.328125 5.515625 27.984375 
Q 5.515625 40.671875 11.671875 48.328125 
Q 17.828125 56 27.875 56 
Q 33.9375 56 38.28125 53.609375 
Q 42.625 51.21875 45.40625 46.390625 
L 45.40625 54.6875 
L 54.390625 54.6875 
z
" id="DejaVuSans-67"/>
     <path d="M 41.109375 46.296875 
Q 39.59375 47.171875 37.8125 47.578125 
Q 36.03125 48 33.890625 48 
Q 26.265625 48 22.1875 43.046875 
Q 18.109375 38.09375 18.109375 28.8125 
L 18.109375 0 
L 9.078125 0 
L 9.078125 54.6875 
L 18.109375 54.6875 
L 18.109375 46.1875 
Q 20.953125 51.171875 25.484375 53.578125 
Q 30.03125 56 36.53125 56 
Q 37.453125 56 38.578125 55.875 
Q 39.703125 55.765625 41.0625 55.515625 
z
" id="DejaVuSans-72"/>
     <path d="M 44.28125 53.078125 
L 44.28125 44.578125 
Q 40.484375 46.53125 36.375 47.5 
Q 32.28125 48.484375 27.875 48.484375 
Q 21.1875 48.484375 17.84375 46.4375 
Q 14.5 44.390625 14.5 40.28125 
Q 14.5 37.15625 16.890625 35.375 
Q 19.28125 33.59375 26.515625 31.984375 
L 29.59375 31.296875 
Q 39.15625 29.25 43.1875 25.515625 
Q 47.21875 21.78125 47.21875 15.09375 
Q 47.21875 7.46875 41.1875 3.015625 
Q 35.15625 -1.421875 24.609375 -1.421875 
Q 20.21875 -1.421875 15.453125 -0.5625 
Q 10.6875 0.296875 5.421875 2 
L 5.421875 11.28125 
Q 10.40625 8.6875 15.234375 7.390625 
Q 20.0625 6.109375 24.8125 6.109375 
Q 31.15625 6.109375 34.5625 8.28125 
Q 37.984375 10.453125 37.984375 14.40625 
Q 37.984375 18.0625 35.515625 20.015625 
Q 33.0625 21.96875 24.703125 23.78125 
L 21.578125 24.515625 
Q 13.234375 26.265625 9.515625 29.90625 
Q 5.8125 33.546875 5.8125 39.890625 
Q 5.8125 47.609375 11.28125 51.796875 
Q 16.75 56 26.8125 56 
Q 31.78125 56 36.171875 55.265625 
Q 40.578125 54.546875 44.28125 53.078125 
z
" id="DejaVuSans-73"/>
     <path d="M 45.40625 46.390625 
L 45.40625 75.984375 
L 54.390625 75.984375 
L 54.390625 0 
L 45.40625 0 
L 45.40625 8.203125 
Q 42.578125 3.328125 38.25 0.953125 
Q 33.9375 -1.421875 27.875 -1.421875 
Q 17.96875 -1.421875 11.734375 6.484375 
Q 5.515625 14.40625 5.515625 27.296875 
Q 5.515625 40.1875 11.734375 48.09375 
Q 17.96875 56 27.875 56 
Q 33.9375 56 38.25 53.625 
Q 42.578125 51.265625 45.40625 46.390625 
z
M 14.796875 27.296875 
Q 14.796875 17.390625 18.875 11.75 
Q 22.953125 6.109375 30.078125 6.109375 
Q 37.203125 6.109375 41.296875 11.75 
Q 45.40625 17.390625 45.40625 27.296875 
Q 45.40625 37.203125 41.296875 42.84375 
Q 37.203125 48.484375 30.078125 48.484375 
Q 22.953125 48.484375 18.875 42.84375 
Q 14.796875 37.203125 14.796875 27.296875 
z
" id="DejaVuSans-64"/>
     <path d="M 31 75.875 
Q 24.46875 64.65625 21.28125 53.65625 
Q 18.109375 42.671875 18.109375 31.390625 
Q 18.109375 20.125 21.3125 9.0625 
Q 24.515625 -2 31 -13.1875 
L 23.1875 -13.1875 
Q 15.875 -1.703125 12.234375 9.375 
Q 8.59375 20.453125 8.59375 31.390625 
Q 8.59375 42.28125 12.203125 53.3125 
Q 15.828125 64.359375 23.1875 75.875 
z
" id="DejaVuSans-28"/>
     <path d="M 3.328125 72.90625 
L 13.28125 72.90625 
L 28.609375 11.28125 
L 43.890625 72.90625 
L 54.984375 72.90625 
L 70.3125 11.28125 
L 85.59375 72.90625 
L 95.609375 72.90625 
L 77.296875 0 
L 64.890625 0 
L 49.515625 63.28125 
L 33.984375 0 
L 21.578125 0 
z
" id="DejaVuSans-57"/>
     <path d="M 8.015625 75.875 
L 15.828125 75.875 
Q 23.140625 64.359375 26.78125 53.3125 
Q 30.421875 42.28125 30.421875 31.390625 
Q 30.421875 20.453125 26.78125 9.375 
Q 23.140625 -1.703125 15.828125 -13.1875 
L 8.015625 -13.1875 
Q 14.5 -2 17.703125 9.0625 
Q 20.90625 20.125 20.90625 31.390625 
Q 20.90625 42.671875 17.703125 53.65625 
Q 14.5 64.65625 8.015625 75.875 
z
" id="DejaVuSans-29"/>
    </defs>
    <g transform="translate(144.341234 17.36505)scale(0.12 -0.12)">
     <use xlink:href="#DejaVuSans-4d"/>
     <use x="86.279297" xlink:href="#DejaVuSans-6f"/>
     <use x="147.460938" xlink:href="#DejaVuSans-6e"/>
     <use x="210.839844" xlink:href="#DejaVuSans-74"/>
     <use x="250.048828" xlink:href="#DejaVuSans-68"/>
     <use x="313.427734" xlink:href="#DejaVuSans-6c"/>
     <use x="341.210938" xlink:href="#DejaVuSans-79"/>
     <use x="400.390625" xlink:href="#DejaVuSans-20"/>
     <use x="432.177734" xlink:href="#DejaVuSans-67"/>
     <use x="495.654297" xlink:href="#DejaVuSans-72"/>
     <use x="536.736328" xlink:href="#DejaVuSans-6f"/>
     <use x="597.917969" xlink:href="#DejaVuSans-73"/>
     <use x="650.017578" xlink:href="#DejaVuSans-73"/>
     <use x="702.117188" xlink:href="#DejaVuSans-20"/>
     <use x="733.904297" xlink:href="#DejaVuSans-6c"/>
     <use x="761.6875" xlink:href="#DejaVuSans-6f"/>
     <use x="822.869141" xlink:href="#DejaVuSans-61"/>
     <use x="884.148438" xlink:href="#DejaVuSans-64"/>
     <use x="947.625" xlink:href="#DejaVuSans-20"/>
     <use x="979.412109" xlink:href="#DejaVuSans-74"/>
     <use x="1018.621094" xlink:href="#DejaVuSans-72"/>
     <use x="1059.703125" xlink:href="#DejaVuSans-65"/>
     <use x="1121.226562" xlink:href="#DejaVuSans-6e"/>
     <use x="1184.605469" xlink:href="#DejaVuSans-64"/>
     <use x="1248.082031" xlink:href="#DejaVuSans-20"/>
     <use x="1279.869141" xlink:href="#DejaVuSans-28"/>
     <use x="1318.882812" xlink:href="#DejaVuSans-4d"/>
     <use x="1405.162109" xlink:href="#DejaVuSans-57"/>
     <use x="1504.039062" xlink:href="#DejaVuSans-29"/>
    </g>
   </g>
  </g>
 </g>
 <defs>
  <clipPath id="p080005d5d5">
   <rect height="286.49845" width="419.924092" x="26.962" y="23.36505"/>
  </clipPath>
 </defs>
</svg>
