<?xml version="1.0" encoding="utf-8" standalone="no"?>
<!DOCTYPE svg PUBLIC "-//W3C//DTD SVG 1.1//EN"
  "http://www.w3.org/Graphics/SVG/1.1/DTD/svg11.dtd">
<!-- Created with matplotlib (http://matplotlib.org/) -->
<svg height="345.6pt" version="1.1" viewBox="0 0 460.8 345.6" width="460.8pt" xmlns="http://www.w3.org/2000/svg" xmlns:xlink="http://www.w3.org/1999/xlink">
 <defs>
  <style type="text/css">
*{stroke-linecap:butt;stroke-linejoin:round;}
  </style>
 </defs>
 <g id="figure_1">
  <g id="patch_1">
   <path d="M 0 345.6 
L 460.8 345.6 
L 460.8 0 
L 0 0 
z
" style="fill:none;"/>
  </g>
  <g id="axes_1">
   <g id="patch_2">
    <path d="M 31.543 309.8635 
L 445.103165 309.8635 
L 445.103165 23.36505 
L 31.543 23.36505 
z
" style="fill:none;"/>
   </g>
   <g id="PolyCollection_1">
    <path clip-path="url(#pdcdfc5b2e5)" d="M 31.543 309.8635 
L 31.543 309.8635 
L 33.783539 309.8635 
L 36.024078 309.8635 
L 38.192342 309.8635 
L 40.432881 309.8635 
L 42.601145 309.8635 
L 44.841684 309.8635 
L 47.082223 309.8635 
L 49.105936 309.8635 
L 51.346475 309.8635 
L 53.514739 309.8635 
L 55.755278 309.8635 
L 57.923542 309.8635 
L 60.164081 309.8635 
L 62.40462 157.527121 
L 64.572884 309.8635 
L 66.813423 309.8635 
L 68.981687 309.8635 
L 71.222226 309.8635 
L 73.462765 309.8635 
L 75.558753 309.8635 
L 77.799293 309.8635 
L 79.967556 309.8635 
L 82.208095 309.8635 
L 84.376359 309.8635 
L 86.616898 309.8635 
L 88.857437 309.8635 
L 91.025701 309.8635 
L 93.26624 309.8635 
L 95.434504 309.8635 
L 97.675043 309.8635 
L 99.915582 309.8635 
L 101.939295 309.8635 
L 104.179834 309.8635 
L 106.348098 309.8635 
L 108.588637 309.8635 
L 110.756901 309.8635 
L 112.99744 309.8635 
L 115.237979 309.8635 
L 117.406243 309.8635 
L 119.646782 309.8635 
L 121.815046 309.8635 
L 124.055585 309.8635 
L 126.296124 309.8635 
L 128.319837 309.8635 
L 130.560376 309.8635 
L 132.72864 309.8635 
L 134.969179 309.8635 
L 137.137443 309.8635 
L 139.377982 78.466468 
L 141.618521 78.466468 
L 143.786785 309.8635 
L 146.027324 309.8635 
L 148.195588 309.8635 
L 150.436127 309.8635 
L 152.676666 309.8635 
L 154.700379 309.8635 
L 156.940918 309.8635 
L 159.109182 309.8635 
L 161.349721 309.8635 
L 163.517985 309.8635 
L 165.758524 309.8635 
L 167.999063 81.358931 
L 170.167327 82.323085 
L 172.407866 309.8635 
L 174.57613 309.8635 
L 176.816669 309.8635 
L 179.057208 309.8635 
L 181.153196 309.8635 
L 183.393735 309.8635 
L 185.561999 309.8635 
L 187.802538 309.8635 
L 189.970802 309.8635 
L 192.211341 309.8635 
L 194.45188 309.8635 
L 196.620144 309.8635 
L 198.860683 309.8635 
L 201.028947 309.8635 
L 203.269486 309.8635 
L 205.510025 309.8635 
L 207.533738 309.8635 
L 209.774277 309.8635 
L 211.942541 309.8635 
L 214.18308 309.8635 
L 216.351344 309.8635 
L 218.591883 89.072165 
L 220.832422 309.8635 
L 223.000686 309.8635 
L 225.241225 309.8635 
L 227.409489 309.8635 
L 229.650028 309.8635 
L 231.890567 309.8635 
L 233.91428 309.8635 
L 236.154819 309.8635 
L 238.323083 309.8635 
L 240.563622 309.8635 
L 242.731886 309.8635 
L 244.972425 94.857091 
L 247.212964 309.8635 
L 249.381228 309.8635 
L 251.621767 309.8635 
L 253.79003 309.8635 
L 256.03057 309.8635 
L 258.271109 309.8635 
L 260.294822 309.8635 
L 262.535361 309.8635 
L 264.703625 309.8635 
L 266.944164 309.8635 
L 269.112427 309.8635 
L 271.352967 309.8635 
L 273.593506 309.8635 
L 275.761769 309.8635 
L 278.002309 309.8635 
L 280.170572 309.8635 
L 282.411111 309.8635 
L 284.651651 309.8635 
L 286.747639 309.8635 
L 288.988178 309.8635 
L 291.156442 309.8635 
L 293.396981 309.8635 
L 295.565245 309.8635 
L 297.805784 309.8635 
L 300.046323 309.8635 
L 302.214587 309.8635 
L 304.455126 309.8635 
L 306.62339 309.8635 
L 308.863929 309.8635 
L 311.104468 309.8635 
L 313.128181 309.8635 
L 315.36872 309.8635 
L 317.536984 309.8635 
L 319.777523 309.8635 
L 321.945787 309.8635 
L 324.186326 151.742195 
L 326.426865 309.8635 
L 328.595129 309.8635 
L 330.835668 309.8635 
L 333.003931 309.8635 
L 335.244471 309.8635 
L 337.48501 309.8635 
L 339.508723 309.8635 
L 341.749262 309.8635 
L 343.917525 309.8635 
L 346.158065 309.8635 
L 348.326328 309.8635 
L 350.566868 309.8635 
L 352.807407 309.8635 
L 354.97567 309.8635 
L 357.21621 309.8635 
L 359.384473 309.8635 
L 361.625012 309.8635 
L 363.865552 309.8635 
L 365.889264 309.8635 
L 368.129804 309.8635 
L 370.298067 309.8635 
L 372.538606 77.502314 
L 374.70687 76.53816 
L 376.947409 309.8635 
L 379.187949 77.502314 
L 381.356212 79.430622 
L 383.596751 309.8635 
L 385.765015 309.8635 
L 388.005554 309.8635 
L 390.246093 309.8635 
L 392.342082 309.8635 
L 394.582621 309.8635 
L 396.750885 309.8635 
L 398.991424 309.8635 
L 401.159687 309.8635 
L 403.400227 77.502314 
L 405.640766 309.8635 
L 407.80903 309.8635 
L 410.049569 309.8635 
L 412.217832 309.8635 
L 414.458372 309.8635 
L 416.698911 309.8635 
L 418.722624 309.8635 
L 420.963163 309.8635 
L 423.131426 309.8635 
L 425.371966 309.8635 
L 427.540229 309.8635 
L 429.780768 70.753234 
L 432.021308 309.8635 
L 434.189571 309.8635 
L 436.430111 309.8635 
L 438.598374 309.8635 
L 440.838913 309.8635 
L 443.079453 309.8635 
L 445.103165 309.8635 
L 445.103165 49.541839 
L 445.103165 49.541839 
L 443.079453 43.756913 
L 440.838913 46.649376 
L 438.598374 44.721068 
L 436.430111 48.577685 
L 434.189571 50.505994 
L 432.021308 58.219228 
L 429.780768 57.255074 
L 427.540229 57.255074 
L 425.371966 66.896617 
L 423.131426 309.8635 
L 420.963163 309.8635 
L 418.722624 309.8635 
L 416.698911 52.434302 
L 414.458372 48.577685 
L 412.217832 48.577685 
L 410.049569 309.8635 
L 407.80903 171.989435 
L 405.640766 62.075845 
L 403.400227 64.004154 
L 401.159687 64.004154 
L 398.991424 60.147537 
L 396.750885 198.985756 
L 394.582621 309.8635 
L 392.342082 309.8635 
L 390.246093 56.290919 
L 388.005554 54.362611 
L 385.765015 53.398456 
L 383.596751 53.398456 
L 381.356212 61.111691 
L 379.187949 60.147537 
L 376.947409 62.075845 
L 374.70687 63.039999 
L 372.538606 62.075845 
L 370.298067 63.039999 
L 368.129804 309.8635 
L 365.889264 309.8635 
L 363.865552 309.8635 
L 361.625012 64.968308 
L 359.384473 54.362611 
L 357.21621 55.326765 
L 354.97567 64.004154 
L 352.807407 62.075845 
L 350.566868 63.039999 
L 348.326328 59.183382 
L 346.158065 309.8635 
L 343.917525 72.681542 
L 341.749262 309.8635 
L 339.508723 309.8635 
L 337.48501 62.075845 
L 335.244471 62.075845 
L 333.003931 60.147537 
L 330.835668 60.147537 
L 328.595129 65.932462 
L 326.426865 68.824925 
L 324.186326 73.645697 
L 321.945787 71.717388 
L 319.777523 70.753234 
L 317.536984 309.8635 
L 315.36872 309.8635 
L 313.128181 83.28724 
L 311.104468 89.072165 
L 308.863929 309.8635 
L 306.62339 309.8635 
L 304.455126 309.8635 
L 302.214587 64.968308 
L 300.046323 61.111691 
L 297.805784 63.039999 
L 295.565245 309.8635 
L 293.396981 309.8635 
L 291.156442 309.8635 
L 288.988178 309.8635 
L 286.747639 61.111691 
L 284.651651 62.075845 
L 282.411111 62.075845 
L 280.170572 60.147537 
L 278.002309 62.075845 
L 275.761769 309.8635 
L 273.593506 67.860771 
L 271.352967 73.645697 
L 269.112427 309.8635 
L 266.944164 309.8635 
L 264.703625 309.8635 
L 262.535361 309.8635 
L 260.294822 309.8635 
L 258.271109 309.8635 
L 256.03057 56.290919 
L 253.79003 59.183382 
L 251.621767 60.147537 
L 249.381228 61.111691 
L 247.212964 68.824925 
L 244.972425 70.753234 
L 242.731886 72.681542 
L 240.563622 309.8635 
L 238.323083 309.8635 
L 236.154819 67.860771 
L 233.91428 66.896617 
L 231.890567 64.004154 
L 229.650028 309.8635 
L 227.409489 64.004154 
L 225.241225 63.039999 
L 223.000686 77.502314 
L 220.832422 76.53816 
L 218.591883 68.824925 
L 216.351344 74.609851 
L 214.18308 77.502314 
L 211.942541 82.323085 
L 209.774277 309.8635 
L 207.533738 79.430622 
L 205.510025 80.394777 
L 203.269486 309.8635 
L 201.028947 76.53816 
L 198.860683 76.53816 
L 196.620144 73.645697 
L 194.45188 71.717388 
L 192.211341 64.968308 
L 189.970802 72.681542 
L 187.802538 309.8635 
L 185.561999 74.609851 
L 183.393735 70.753234 
L 181.153196 71.717388 
L 179.057208 72.681542 
L 176.816669 65.932462 
L 174.57613 72.681542 
L 172.407866 71.717388 
L 170.167327 73.645697 
L 167.999063 71.717388 
L 165.758524 69.78908 
L 163.517985 70.753234 
L 161.349721 309.8635 
L 159.109182 74.609851 
L 156.940918 309.8635 
L 154.700379 309.8635 
L 152.676666 69.78908 
L 150.436127 62.075845 
L 148.195588 60.147537 
L 146.027324 52.434302 
L 143.786785 59.183382 
L 141.618521 61.111691 
L 139.377982 56.290919 
L 137.137443 43.756913 
L 134.969179 72.681542 
L 132.72864 309.8635 
L 130.560376 145.957269 
L 128.319837 309.8635 
L 126.296124 62.075845 
L 124.055585 309.8635 
L 121.815046 42.792759 
L 119.646782 64.968308 
L 117.406243 309.8635 
L 115.237979 63.039999 
L 112.99744 43.756913 
L 110.756901 51.470148 
L 108.588637 67.860771 
L 106.348098 309.8635 
L 104.179834 57.255074 
L 101.939295 59.183382 
L 99.915582 57.255074 
L 97.675043 37.007833 
L 95.434504 138.244035 
L 93.26624 143.064806 
L 91.025701 144.028961 
L 88.857437 144.028961 
L 86.616898 146.921423 
L 84.376359 144.028961 
L 82.208095 143.064806 
L 79.967556 142.100652 
L 77.799293 140.172343 
L 75.558753 309.8635 
L 73.462765 136.315726 
L 71.222226 139.208189 
L 68.981687 309.8635 
L 66.813423 141.136498 
L 64.572884 146.921423 
L 62.40462 136.315726 
L 60.164081 137.27988 
L 57.923542 137.27988 
L 55.755278 145.957269 
L 53.514739 309.8635 
L 51.346475 309.8635 
L 49.105936 143.064806 
L 47.082223 142.100652 
L 44.841684 142.100652 
L 42.601145 142.100652 
L 40.432881 141.136498 
L 38.192342 144.993115 
L 36.024078 143.064806 
L 33.783539 309.8635 
L 31.543 309.8635 
z
" style="fill:#808080;fill-opacity:0.3;"/>
   </g>
   <g id="PolyCollection_2">
    <path clip-path="url(#pdcdfc5b2e5)" d="M 31.543 309.8635 
L 31.543 309.8635 
L 33.783539 309.8635 
L 36.024078 309.8635 
L 38.192342 309.8635 
L 40.432881 309.8635 
L 42.601145 309.8635 
L 44.841684 309.8635 
L 47.082223 146.921423 
L 49.105936 309.8635 
L 51.346475 309.8635 
L 53.514739 309.8635 
L 55.755278 309.8635 
L 57.923542 155.598812 
L 60.164081 309.8635 
L 62.40462 152.706349 
L 64.572884 309.8635 
L 66.813423 309.8635 
L 68.981687 309.8635 
L 71.222226 309.8635 
L 73.462765 309.8635 
L 75.558753 309.8635 
L 77.799293 309.8635 
L 79.967556 309.8635 
L 82.208095 309.8635 
L 84.376359 309.8635 
L 86.616898 157.527121 
L 88.857437 309.8635 
L 91.025701 309.8635 
L 93.26624 309.8635 
L 95.434504 309.8635 
L 97.675043 309.8635 
L 99.915582 309.8635 
L 101.939295 309.8635 
L 104.179834 309.8635 
L 106.348098 309.8635 
L 108.588637 309.8635 
L 110.756901 309.8635 
L 112.99744 72.681542 
L 115.237979 309.8635 
L 117.406243 309.8635 
L 119.646782 309.8635 
L 121.815046 309.8635 
L 124.055585 309.8635 
L 126.296124 309.8635 
L 128.319837 309.8635 
L 130.560376 309.8635 
L 132.72864 309.8635 
L 134.969179 309.8635 
L 137.137443 309.8635 
L 139.377982 71.717388 
L 141.618521 72.681542 
L 143.786785 68.824925 
L 146.027324 309.8635 
L 148.195588 309.8635 
L 150.436127 309.8635 
L 152.676666 309.8635 
L 154.700379 309.8635 
L 156.940918 309.8635 
L 159.109182 309.8635 
L 161.349721 309.8635 
L 163.517985 80.394777 
L 165.758524 76.53816 
L 167.999063 76.53816 
L 170.167327 78.466468 
L 172.407866 309.8635 
L 174.57613 309.8635 
L 176.816669 309.8635 
L 179.057208 309.8635 
L 181.153196 309.8635 
L 183.393735 309.8635 
L 185.561999 309.8635 
L 187.802538 309.8635 
L 189.970802 309.8635 
L 192.211341 80.394777 
L 194.45188 81.358931 
L 196.620144 309.8635 
L 198.860683 309.8635 
L 201.028947 309.8635 
L 203.269486 309.8635 
L 205.510025 87.143857 
L 207.533738 309.8635 
L 209.774277 309.8635 
L 211.942541 309.8635 
L 214.18308 309.8635 
L 216.351344 309.8635 
L 218.591883 86.179703 
L 220.832422 86.179703 
L 223.000686 87.143857 
L 225.241225 309.8635 
L 227.409489 309.8635 
L 229.650028 309.8635 
L 231.890567 309.8635 
L 233.91428 309.8635 
L 236.154819 309.8635 
L 238.323083 309.8635 
L 240.563622 309.8635 
L 242.731886 309.8635 
L 244.972425 81.358931 
L 247.212964 78.707507 
L 249.381228 293.472877 
L 251.621767 309.8635 
L 253.79003 309.8635 
L 256.03057 309.8635 
L 258.271109 309.8635 
L 260.294822 309.8635 
L 262.535361 309.8635 
L 264.703625 309.8635 
L 266.944164 309.8635 
L 269.112427 309.8635 
L 271.352967 309.8635 
L 273.593506 309.8635 
L 275.761769 309.8635 
L 278.002309 309.8635 
L 280.170572 309.8635 
L 282.411111 309.8635 
L 284.651651 309.8635 
L 286.747639 309.8635 
L 288.988178 309.8635 
L 291.156442 309.8635 
L 293.396981 309.8635 
L 295.565245 309.8635 
L 297.805784 309.8635 
L 300.046323 309.8635 
L 302.214587 309.8635 
L 304.455126 309.8635 
L 306.62339 309.8635 
L 308.863929 309.8635 
L 311.104468 309.8635 
L 313.128181 309.8635 
L 315.36872 309.8635 
L 317.536984 309.8635 
L 319.777523 309.8635 
L 321.945787 309.8635 
L 324.186326 83.28724 
L 326.426865 84.251394 
L 328.595129 309.8635 
L 330.835668 309.8635 
L 333.003931 68.824925 
L 335.244471 309.8635 
L 337.48501 309.8635 
L 339.508723 309.8635 
L 341.749262 309.8635 
L 343.917525 309.8635 
L 346.158065 309.8635 
L 348.326328 309.8635 
L 350.566868 79.430622 
L 352.807407 77.502314 
L 354.97567 309.8635 
L 357.21621 309.8635 
L 359.384473 309.8635 
L 361.625012 309.8635 
L 363.865552 309.8635 
L 365.889264 309.8635 
L 368.129804 309.8635 
L 370.298067 309.8635 
L 372.538606 70.753234 
L 374.70687 72.681542 
L 376.947409 74.609851 
L 379.187949 71.717388 
L 381.356212 70.753234 
L 383.596751 72.681542 
L 385.765015 309.8635 
L 388.005554 309.8635 
L 390.246093 309.8635 
L 392.342082 309.8635 
L 394.582621 309.8635 
L 396.750885 309.8635 
L 398.991424 71.717388 
L 401.159687 309.8635 
L 403.400227 70.753234 
L 405.640766 69.78908 
L 407.80903 309.8635 
L 410.049569 309.8635 
L 412.217832 309.8635 
L 414.458372 309.8635 
L 416.698911 309.8635 
L 418.722624 309.8635 
L 420.963163 309.8635 
L 423.131426 309.8635 
L 425.371966 309.8635 
L 427.540229 64.968308 
L 429.780768 64.968308 
L 432.021308 309.8635 
L 434.189571 309.8635 
L 436.430111 309.8635 
L 438.598374 309.8635 
L 440.838913 309.8635 
L 443.079453 309.8635 
L 445.103165 309.8635 
L 445.103165 309.8635 
L 445.103165 309.8635 
L 443.079453 309.8635 
L 440.838913 309.8635 
L 438.598374 48.577685 
L 436.430111 56.290919 
L 434.189571 60.147537 
L 432.021308 64.968308 
L 429.780768 64.004154 
L 427.540229 62.075845 
L 425.371966 309.8635 
L 423.131426 309.8635 
L 420.963163 309.8635 
L 418.722624 309.8635 
L 416.698911 65.932462 
L 414.458372 56.290919 
L 412.217832 309.8635 
L 410.049569 309.8635 
L 407.80903 309.8635 
L 405.640766 64.968308 
L 403.400227 64.004154 
L 401.159687 64.968308 
L 398.991424 64.004154 
L 396.750885 309.8635 
L 394.582621 309.8635 
L 392.342082 309.8635 
L 390.246093 64.968308 
L 388.005554 62.075845 
L 385.765015 64.004154 
L 383.596751 61.111691 
L 381.356212 64.004154 
L 379.187949 64.004154 
L 376.947409 64.004154 
L 374.70687 64.004154 
L 372.538606 64.004154 
L 370.298067 69.78908 
L 368.129804 309.8635 
L 365.889264 309.8635 
L 363.865552 309.8635 
L 361.625012 309.8635 
L 359.384473 309.8635 
L 357.21621 309.8635 
L 354.97567 309.8635 
L 352.807407 71.717388 
L 350.566868 74.609851 
L 348.326328 79.430622 
L 346.158065 309.8635 
L 343.917525 309.8635 
L 341.749262 309.8635 
L 339.508723 309.8635 
L 337.48501 65.932462 
L 335.244471 64.004154 
L 333.003931 64.004154 
L 330.835668 74.609851 
L 328.595129 72.681542 
L 326.426865 79.430622 
L 324.186326 78.466468 
L 321.945787 76.53816 
L 319.777523 309.8635 
L 317.536984 309.8635 
L 315.36872 309.8635 
L 313.128181 89.072165 
L 311.104468 309.8635 
L 308.863929 309.8635 
L 306.62339 309.8635 
L 304.455126 309.8635 
L 302.214587 71.717388 
L 300.046323 65.932462 
L 297.805784 294.437031 
L 295.565245 309.8635 
L 293.396981 309.8635 
L 291.156442 309.8635 
L 288.988178 309.8635 
L 286.747639 309.8635 
L 284.651651 71.717388 
L 282.411111 309.8635 
L 280.170572 71.717388 
L 278.002309 69.78908 
L 275.761769 309.8635 
L 273.593506 77.502314 
L 271.352967 309.8635 
L 269.112427 309.8635 
L 266.944164 309.8635 
L 264.703625 309.8635 
L 262.535361 309.8635 
L 260.294822 309.8635 
L 258.271109 309.8635 
L 256.03057 309.8635 
L 253.79003 309.8635 
L 251.621767 309.8635 
L 249.381228 67.860771 
L 247.212964 73.645697 
L 244.972425 76.53816 
L 242.731886 80.394777 
L 240.563622 309.8635 
L 238.323083 309.8635 
L 236.154819 73.645697 
L 233.91428 73.645697 
L 231.890567 309.8635 
L 229.650028 309.8635 
L 227.409489 71.717388 
L 225.241225 87.143857 
L 223.000686 84.251394 
L 220.832422 82.323085 
L 218.591883 81.358931 
L 216.351344 83.28724 
L 214.18308 309.8635 
L 211.942541 309.8635 
L 209.774277 309.8635 
L 207.533738 309.8635 
L 205.510025 83.28724 
L 203.269486 309.8635 
L 201.028947 80.153738 
L 198.860683 82.323085 
L 196.620144 79.430622 
L 194.45188 76.53816 
L 192.211341 76.53816 
L 189.970802 78.466468 
L 187.802538 309.8635 
L 185.561999 309.8635 
L 183.393735 76.53816 
L 181.153196 74.609851 
L 179.057208 75.574005 
L 176.816669 74.609851 
L 174.57613 73.645697 
L 172.407866 77.502314 
L 170.167327 76.53816 
L 167.999063 73.645697 
L 165.758524 72.681542 
L 163.517985 73.645697 
L 161.349721 309.8635 
L 159.109182 309.8635 
L 156.940918 309.8635 
L 154.700379 309.8635 
L 152.676666 279.010562 
L 150.436127 69.78908 
L 148.195588 309.8635 
L 146.027324 74.609851 
L 143.786785 64.968308 
L 141.618521 67.860771 
L 139.377982 67.860771 
L 137.137443 64.004154 
L 134.969179 309.8635 
L 132.72864 309.8635 
L 130.560376 309.8635 
L 128.319837 309.8635 
L 126.296124 309.8635 
L 124.055585 309.8635 
L 121.815046 63.039999 
L 119.646782 309.8635 
L 117.406243 309.8635 
L 115.237979 68.824925 
L 112.99744 66.896617 
L 110.756901 68.824925 
L 108.588637 309.8635 
L 106.348098 309.8635 
L 104.179834 309.8635 
L 101.939295 309.8635 
L 99.915582 99.436824 
L 97.675043 59.183382 
L 95.434504 146.921423 
L 93.26624 145.957269 
L 91.025701 151.742195 
L 88.857437 149.813886 
L 86.616898 151.742195 
L 84.376359 151.742195 
L 82.208095 208.868337 
L 79.967556 147.885578 
L 77.799293 148.849732 
L 75.558753 309.8635 
L 73.462765 144.028961 
L 71.222226 309.8635 
L 68.981687 309.8635 
L 66.813423 309.8635 
L 64.572884 153.670504 
L 62.40462 148.849732 
L 60.164081 149.813886 
L 57.923542 148.849732 
L 55.755278 309.8635 
L 53.514739 309.8635 
L 51.346475 309.8635 
L 49.105936 145.957269 
L 47.082223 144.028961 
L 44.841684 309.8635 
L 42.601145 144.028961 
L 40.432881 309.8635 
L 38.192342 309.8635 
L 36.024078 149.813886 
L 33.783539 309.8635 
L 31.543 309.8635 
z
" style="fill:#808080;fill-opacity:0.6;"/>
   </g>
   <g id="matplotlib.axis_1">
    <g id="xtick_1">
     <g id="line2d_1">
      <path clip-path="url(#pdcdfc5b2e5)" d="M 71.222226 309.8635 
L 71.222226 23.36505 
" style="fill:none;stroke:#b0b0b0;stroke-linecap:square;stroke-width:0.8;"/>
     </g>
     <g id="line2d_2">
      <defs>
       <path d="M 0 0 
L 0 3.5 
" id="m482b276b17" style="stroke:#000000;stroke-width:0.8;"/>
      </defs>
      <g>
       <use style="stroke:#000000;stroke-width:0.8;" x="71.222226" xlink:href="#m482b276b17" y="309.8635"/>
      </g>
     </g>
     <g id="text_1">
      <!-- 2004 -->
      <defs>
       <path d="M 19.1875 8.296875 
L 53.609375 8.296875 
L 53.609375 0 
L 7.328125 0 
L 7.328125 8.296875 
Q 12.9375 14.109375 22.625 23.890625 
Q 32.328125 33.6875 34.8125 36.53125 
Q 39.546875 41.84375 41.421875 45.53125 
Q 43.3125 49.21875 43.3125 52.78125 
Q 43.3125 58.59375 39.234375 62.25 
Q 35.15625 65.921875 28.609375 65.921875 
Q 23.96875 65.921875 18.8125 64.3125 
Q 13.671875 62.703125 7.8125 59.421875 
L 7.8125 69.390625 
Q 13.765625 71.78125 18.9375 73 
Q 24.125 74.21875 28.421875 74.21875 
Q 39.75 74.21875 46.484375 68.546875 
Q 53.21875 62.890625 53.21875 53.421875 
Q 53.21875 48.921875 51.53125 44.890625 
Q 49.859375 40.875 45.40625 35.40625 
Q 44.1875 33.984375 37.640625 27.21875 
Q 31.109375 20.453125 19.1875 8.296875 
z
" id="DejaVuSans-32"/>
       <path d="M 31.78125 66.40625 
Q 24.171875 66.40625 20.328125 58.90625 
Q 16.5 51.421875 16.5 36.375 
Q 16.5 21.390625 20.328125 13.890625 
Q 24.171875 6.390625 31.78125 6.390625 
Q 39.453125 6.390625 43.28125 13.890625 
Q 47.125 21.390625 47.125 36.375 
Q 47.125 51.421875 43.28125 58.90625 
Q 39.453125 66.40625 31.78125 66.40625 
z
M 31.78125 74.21875 
Q 44.046875 74.21875 50.515625 64.515625 
Q 56.984375 54.828125 56.984375 36.375 
Q 56.984375 17.96875 50.515625 8.265625 
Q 44.046875 -1.421875 31.78125 -1.421875 
Q 19.53125 -1.421875 13.0625 8.265625 
Q 6.59375 17.96875 6.59375 36.375 
Q 6.59375 54.828125 13.0625 64.515625 
Q 19.53125 74.21875 31.78125 74.21875 
z
" id="DejaVuSans-30"/>
       <path d="M 37.796875 64.3125 
L 12.890625 25.390625 
L 37.796875 25.390625 
z
M 35.203125 72.90625 
L 47.609375 72.90625 
L 47.609375 25.390625 
L 58.015625 25.390625 
L 58.015625 17.1875 
L 47.609375 17.1875 
L 47.609375 0 
L 37.796875 0 
L 37.796875 17.1875 
L 4.890625 17.1875 
L 4.890625 26.703125 
z
" id="DejaVuSans-34"/>
      </defs>
      <g transform="translate(58.497226 324.461937)scale(0.1 -0.1)">
       <use xlink:href="#DejaVuSans-32"/>
       <use x="63.623047" xlink:href="#DejaVuSans-30"/>
       <use x="127.246094" xlink:href="#DejaVuSans-30"/>
       <use x="190.869141" xlink:href="#DejaVuSans-34"/>
      </g>
     </g>
    </g>
    <g id="xtick_2">
     <g id="line2d_3">
      <path clip-path="url(#pdcdfc5b2e5)" d="M 124.055585 309.8635 
L 124.055585 23.36505 
" style="fill:none;stroke:#b0b0b0;stroke-linecap:square;stroke-width:0.8;"/>
     </g>
     <g id="line2d_4">
      <g>
       <use style="stroke:#000000;stroke-width:0.8;" x="124.055585" xlink:href="#m482b276b17" y="309.8635"/>
      </g>
     </g>
     <g id="text_2">
      <!-- 2006 -->
      <defs>
       <path d="M 33.015625 40.375 
Q 26.375 40.375 22.484375 35.828125 
Q 18.609375 31.296875 18.609375 23.390625 
Q 18.609375 15.53125 22.484375 10.953125 
Q 26.375 6.390625 33.015625 6.390625 
Q 39.65625 6.390625 43.53125 10.953125 
Q 47.40625 15.53125 47.40625 23.390625 
Q 47.40625 31.296875 43.53125 35.828125 
Q 39.65625 40.375 33.015625 40.375 
z
M 52.59375 71.296875 
L 52.59375 62.3125 
Q 48.875 64.0625 45.09375 64.984375 
Q 41.3125 65.921875 37.59375 65.921875 
Q 27.828125 65.921875 22.671875 59.328125 
Q 17.53125 52.734375 16.796875 39.40625 
Q 19.671875 43.65625 24.015625 45.921875 
Q 28.375 48.1875 33.59375 48.1875 
Q 44.578125 48.1875 50.953125 41.515625 
Q 57.328125 34.859375 57.328125 23.390625 
Q 57.328125 12.15625 50.6875 5.359375 
Q 44.046875 -1.421875 33.015625 -1.421875 
Q 20.359375 -1.421875 13.671875 8.265625 
Q 6.984375 17.96875 6.984375 36.375 
Q 6.984375 53.65625 15.1875 63.9375 
Q 23.390625 74.21875 37.203125 74.21875 
Q 40.921875 74.21875 44.703125 73.484375 
Q 48.484375 72.75 52.59375 71.296875 
z
" id="DejaVuSans-36"/>
      </defs>
      <g transform="translate(111.330585 324.461937)scale(0.1 -0.1)">
       <use xlink:href="#DejaVuSans-32"/>
       <use x="63.623047" xlink:href="#DejaVuSans-30"/>
       <use x="127.246094" xlink:href="#DejaVuSans-30"/>
       <use x="190.869141" xlink:href="#DejaVuSans-36"/>
      </g>
     </g>
    </g>
    <g id="xtick_3">
     <g id="line2d_5">
      <path clip-path="url(#pdcdfc5b2e5)" d="M 176.816669 309.8635 
L 176.816669 23.36505 
" style="fill:none;stroke:#b0b0b0;stroke-linecap:square;stroke-width:0.8;"/>
     </g>
     <g id="line2d_6">
      <g>
       <use style="stroke:#000000;stroke-width:0.8;" x="176.816669" xlink:href="#m482b276b17" y="309.8635"/>
      </g>
     </g>
     <g id="text_3">
      <!-- 2008 -->
      <defs>
       <path d="M 31.78125 34.625 
Q 24.75 34.625 20.71875 30.859375 
Q 16.703125 27.09375 16.703125 20.515625 
Q 16.703125 13.921875 20.71875 10.15625 
Q 24.75 6.390625 31.78125 6.390625 
Q 38.8125 6.390625 42.859375 10.171875 
Q 46.921875 13.96875 46.921875 20.515625 
Q 46.921875 27.09375 42.890625 30.859375 
Q 38.875 34.625 31.78125 34.625 
z
M 21.921875 38.8125 
Q 15.578125 40.375 12.03125 44.71875 
Q 8.5 49.078125 8.5 55.328125 
Q 8.5 64.0625 14.71875 69.140625 
Q 20.953125 74.21875 31.78125 74.21875 
Q 42.671875 74.21875 48.875 69.140625 
Q 55.078125 64.0625 55.078125 55.328125 
Q 55.078125 49.078125 51.53125 44.71875 
Q 48 40.375 41.703125 38.8125 
Q 48.828125 37.15625 52.796875 32.3125 
Q 56.78125 27.484375 56.78125 20.515625 
Q 56.78125 9.90625 50.3125 4.234375 
Q 43.84375 -1.421875 31.78125 -1.421875 
Q 19.734375 -1.421875 13.25 4.234375 
Q 6.78125 9.90625 6.78125 20.515625 
Q 6.78125 27.484375 10.78125 32.3125 
Q 14.796875 37.15625 21.921875 38.8125 
z
M 18.3125 54.390625 
Q 18.3125 48.734375 21.84375 45.5625 
Q 25.390625 42.390625 31.78125 42.390625 
Q 38.140625 42.390625 41.71875 45.5625 
Q 45.3125 48.734375 45.3125 54.390625 
Q 45.3125 60.0625 41.71875 63.234375 
Q 38.140625 66.40625 31.78125 66.40625 
Q 25.390625 66.40625 21.84375 63.234375 
Q 18.3125 60.0625 18.3125 54.390625 
z
" id="DejaVuSans-38"/>
      </defs>
      <g transform="translate(164.091669 324.461937)scale(0.1 -0.1)">
       <use xlink:href="#DejaVuSans-32"/>
       <use x="63.623047" xlink:href="#DejaVuSans-30"/>
       <use x="127.246094" xlink:href="#DejaVuSans-30"/>
       <use x="190.869141" xlink:href="#DejaVuSans-38"/>
      </g>
     </g>
    </g>
    <g id="xtick_4">
     <g id="line2d_7">
      <path clip-path="url(#pdcdfc5b2e5)" d="M 229.650028 309.8635 
L 229.650028 23.36505 
" style="fill:none;stroke:#b0b0b0;stroke-linecap:square;stroke-width:0.8;"/>
     </g>
     <g id="line2d_8">
      <g>
       <use style="stroke:#000000;stroke-width:0.8;" x="229.650028" xlink:href="#m482b276b17" y="309.8635"/>
      </g>
     </g>
     <g id="text_4">
      <!-- 2010 -->
      <defs>
       <path d="M 12.40625 8.296875 
L 28.515625 8.296875 
L 28.515625 63.921875 
L 10.984375 60.40625 
L 10.984375 69.390625 
L 28.421875 72.90625 
L 38.28125 72.90625 
L 38.28125 8.296875 
L 54.390625 8.296875 
L 54.390625 0 
L 12.40625 0 
z
" id="DejaVuSans-31"/>
      </defs>
      <g transform="translate(216.925028 324.461937)scale(0.1 -0.1)">
       <use xlink:href="#DejaVuSans-32"/>
       <use x="63.623047" xlink:href="#DejaVuSans-30"/>
       <use x="127.246094" xlink:href="#DejaVuSans-31"/>
       <use x="190.869141" xlink:href="#DejaVuSans-30"/>
      </g>
     </g>
    </g>
    <g id="xtick_5">
     <g id="line2d_9">
      <path clip-path="url(#pdcdfc5b2e5)" d="M 282.411111 309.8635 
L 282.411111 23.36505 
" style="fill:none;stroke:#b0b0b0;stroke-linecap:square;stroke-width:0.8;"/>
     </g>
     <g id="line2d_10">
      <g>
       <use style="stroke:#000000;stroke-width:0.8;" x="282.411111" xlink:href="#m482b276b17" y="309.8635"/>
      </g>
     </g>
     <g id="text_5">
      <!-- 2012 -->
      <g transform="translate(269.686111 324.461937)scale(0.1 -0.1)">
       <use xlink:href="#DejaVuSans-32"/>
       <use x="63.623047" xlink:href="#DejaVuSans-30"/>
       <use x="127.246094" xlink:href="#DejaVuSans-31"/>
       <use x="190.869141" xlink:href="#DejaVuSans-32"/>
      </g>
     </g>
    </g>
    <g id="xtick_6">
     <g id="line2d_11">
      <path clip-path="url(#pdcdfc5b2e5)" d="M 335.244471 309.8635 
L 335.244471 23.36505 
" style="fill:none;stroke:#b0b0b0;stroke-linecap:square;stroke-width:0.8;"/>
     </g>
     <g id="line2d_12">
      <g>
       <use style="stroke:#000000;stroke-width:0.8;" x="335.244471" xlink:href="#m482b276b17" y="309.8635"/>
      </g>
     </g>
     <g id="text_6">
      <!-- 2014 -->
      <g transform="translate(322.519471 324.461937)scale(0.1 -0.1)">
       <use xlink:href="#DejaVuSans-32"/>
       <use x="63.623047" xlink:href="#DejaVuSans-30"/>
       <use x="127.246094" xlink:href="#DejaVuSans-31"/>
       <use x="190.869141" xlink:href="#DejaVuSans-34"/>
      </g>
     </g>
    </g>
    <g id="xtick_7">
     <g id="line2d_13">
      <path clip-path="url(#pdcdfc5b2e5)" d="M 388.005554 309.8635 
L 388.005554 23.36505 
" style="fill:none;stroke:#b0b0b0;stroke-linecap:square;stroke-width:0.8;"/>
     </g>
     <g id="line2d_14">
      <g>
       <use style="stroke:#000000;stroke-width:0.8;" x="388.005554" xlink:href="#m482b276b17" y="309.8635"/>
      </g>
     </g>
     <g id="text_7">
      <!-- 2016 -->
      <g transform="translate(375.280554 324.461937)scale(0.1 -0.1)">
       <use xlink:href="#DejaVuSans-32"/>
       <use x="63.623047" xlink:href="#DejaVuSans-30"/>
       <use x="127.246094" xlink:href="#DejaVuSans-31"/>
       <use x="190.869141" xlink:href="#DejaVuSans-36"/>
      </g>
     </g>
    </g>
    <g id="xtick_8">
     <g id="line2d_15">
      <path clip-path="url(#pdcdfc5b2e5)" d="M 440.838913 309.8635 
L 440.838913 23.36505 
" style="fill:none;stroke:#b0b0b0;stroke-linecap:square;stroke-width:0.8;"/>
     </g>
     <g id="line2d_16">
      <g>
       <use style="stroke:#000000;stroke-width:0.8;" x="440.838913" xlink:href="#m482b276b17" y="309.8635"/>
      </g>
     </g>
     <g id="text_8">
      <!-- 2018 -->
      <g transform="translate(428.113913 324.461937)scale(0.1 -0.1)">
       <use xlink:href="#DejaVuSans-32"/>
       <use x="63.623047" xlink:href="#DejaVuSans-30"/>
       <use x="127.246094" xlink:href="#DejaVuSans-31"/>
       <use x="190.869141" xlink:href="#DejaVuSans-38"/>
      </g>
     </g>
    </g>
    <g id="text_9">
     <!-- Date -->
     <defs>
      <path d="M 19.671875 64.796875 
L 19.671875 8.109375 
L 31.59375 8.109375 
Q 46.6875 8.109375 53.6875 14.9375 
Q 60.6875 21.78125 60.6875 36.53125 
Q 60.6875 51.171875 53.6875 57.984375 
Q 46.6875 64.796875 31.59375 64.796875 
z
M 9.8125 72.90625 
L 30.078125 72.90625 
Q 51.265625 72.90625 61.171875 64.09375 
Q 71.09375 55.28125 71.09375 36.53125 
Q 71.09375 17.671875 61.125 8.828125 
Q 51.171875 0 30.078125 0 
L 9.8125 0 
z
" id="DejaVuSans-44"/>
      <path d="M 34.28125 27.484375 
Q 23.390625 27.484375 19.1875 25 
Q 14.984375 22.515625 14.984375 16.5 
Q 14.984375 11.71875 18.140625 8.90625 
Q 21.296875 6.109375 26.703125 6.109375 
Q 34.1875 6.109375 38.703125 11.40625 
Q 43.21875 16.703125 43.21875 25.484375 
L 43.21875 27.484375 
z
M 52.203125 31.203125 
L 52.203125 0 
L 43.21875 0 
L 43.21875 8.296875 
Q 40.140625 3.328125 35.546875 0.953125 
Q 30.953125 -1.421875 24.3125 -1.421875 
Q 15.921875 -1.421875 10.953125 3.296875 
Q 6 8.015625 6 15.921875 
Q 6 25.140625 12.171875 29.828125 
Q 18.359375 34.515625 30.609375 34.515625 
L 43.21875 34.515625 
L 43.21875 35.40625 
Q 43.21875 41.609375 39.140625 45 
Q 35.0625 48.390625 27.6875 48.390625 
Q 23 48.390625 18.546875 47.265625 
Q 14.109375 46.140625 10.015625 43.890625 
L 10.015625 52.203125 
Q 14.9375 54.109375 19.578125 55.046875 
Q 24.21875 56 28.609375 56 
Q 40.484375 56 46.34375 49.84375 
Q 52.203125 43.703125 52.203125 31.203125 
z
" id="DejaVuSans-61"/>
      <path d="M 18.3125 70.21875 
L 18.3125 54.6875 
L 36.8125 54.6875 
L 36.8125 47.703125 
L 18.3125 47.703125 
L 18.3125 18.015625 
Q 18.3125 11.328125 20.140625 9.421875 
Q 21.96875 7.515625 27.59375 7.515625 
L 36.8125 7.515625 
L 36.8125 0 
L 27.59375 0 
Q 17.1875 0 13.234375 3.875 
Q 9.28125 7.765625 9.28125 18.015625 
L 9.28125 47.703125 
L 2.6875 47.703125 
L 2.6875 54.6875 
L 9.28125 54.6875 
L 9.28125 70.21875 
z
" id="DejaVuSans-74"/>
      <path d="M 56.203125 29.59375 
L 56.203125 25.203125 
L 14.890625 25.203125 
Q 15.484375 15.921875 20.484375 11.0625 
Q 25.484375 6.203125 34.421875 6.203125 
Q 39.59375 6.203125 44.453125 7.46875 
Q 49.3125 8.734375 54.109375 11.28125 
L 54.109375 2.78125 
Q 49.265625 0.734375 44.1875 -0.34375 
Q 39.109375 -1.421875 33.890625 -1.421875 
Q 20.796875 -1.421875 13.15625 6.1875 
Q 5.515625 13.8125 5.515625 26.8125 
Q 5.515625 40.234375 12.765625 48.109375 
Q 20.015625 56 32.328125 56 
Q 43.359375 56 49.78125 48.890625 
Q 56.203125 41.796875 56.203125 29.59375 
z
M 47.21875 32.234375 
Q 47.125 39.59375 43.09375 43.984375 
Q 39.0625 48.390625 32.421875 48.390625 
Q 24.90625 48.390625 20.390625 44.140625 
Q 15.875 39.890625 15.1875 32.171875 
z
" id="DejaVuSans-65"/>
     </defs>
     <g transform="translate(226.372301 338.140062)scale(0.1 -0.1)">
      <use xlink:href="#DejaVuSans-44"/>
      <use x="77.001953" xlink:href="#DejaVuSans-61"/>
      <use x="138.28125" xlink:href="#DejaVuSans-74"/>
      <use x="177.490234" xlink:href="#DejaVuSans-65"/>
     </g>
    </g>
   </g>
   <g id="matplotlib.axis_2">
    <g id="ytick_1">
     <g id="line2d_17">
      <path clip-path="url(#pdcdfc5b2e5)" d="M 31.543 309.8635 
L 445.103165 309.8635 
" style="fill:none;stroke:#b0b0b0;stroke-linecap:square;stroke-width:0.8;"/>
     </g>
     <g id="line2d_18">
      <defs>
       <path d="M 0 0 
L -3.5 0 
" id="m6370d1a892" style="stroke:#000000;stroke-width:0.8;"/>
      </defs>
      <g>
       <use style="stroke:#000000;stroke-width:0.8;" x="31.543" xlink:href="#m6370d1a892" y="309.8635"/>
      </g>
     </g>
     <g id="text_10">
      <!-- 0 -->
      <g transform="translate(18.1805 313.662719)scale(0.1 -0.1)">
       <use xlink:href="#DejaVuSans-30"/>
      </g>
     </g>
    </g>
    <g id="ytick_2">
     <g id="line2d_19">
      <path clip-path="url(#pdcdfc5b2e5)" d="M 31.543 261.655785 
L 445.103165 261.655785 
" style="fill:none;stroke:#b0b0b0;stroke-linecap:square;stroke-width:0.8;"/>
     </g>
     <g id="line2d_20">
      <g>
       <use style="stroke:#000000;stroke-width:0.8;" x="31.543" xlink:href="#m6370d1a892" y="261.655785"/>
      </g>
     </g>
     <g id="text_11">
      <!-- 50 -->
      <defs>
       <path d="M 10.796875 72.90625 
L 49.515625 72.90625 
L 49.515625 64.59375 
L 19.828125 64.59375 
L 19.828125 46.734375 
Q 21.96875 47.46875 24.109375 47.828125 
Q 26.265625 48.1875 28.421875 48.1875 
Q 40.625 48.1875 47.75 41.5 
Q 54.890625 34.8125 54.890625 23.390625 
Q 54.890625 11.625 47.5625 5.09375 
Q 40.234375 -1.421875 26.90625 -1.421875 
Q 22.3125 -1.421875 17.546875 -0.640625 
Q 12.796875 0.140625 7.71875 1.703125 
L 7.71875 11.625 
Q 12.109375 9.234375 16.796875 8.0625 
Q 21.484375 6.890625 26.703125 6.890625 
Q 35.15625 6.890625 40.078125 11.328125 
Q 45.015625 15.765625 45.015625 23.390625 
Q 45.015625 31 40.078125 35.4375 
Q 35.15625 39.890625 26.703125 39.890625 
Q 22.75 39.890625 18.8125 39.015625 
Q 14.890625 38.140625 10.796875 36.28125 
z
" id="DejaVuSans-35"/>
      </defs>
      <g transform="translate(11.818 265.455004)scale(0.1 -0.1)">
       <use xlink:href="#DejaVuSans-35"/>
       <use x="63.623047" xlink:href="#DejaVuSans-30"/>
      </g>
     </g>
    </g>
    <g id="ytick_3">
     <g id="line2d_21">
      <path clip-path="url(#pdcdfc5b2e5)" d="M 31.543 213.44807 
L 445.103165 213.44807 
" style="fill:none;stroke:#b0b0b0;stroke-linecap:square;stroke-width:0.8;"/>
     </g>
     <g id="line2d_22">
      <g>
       <use style="stroke:#000000;stroke-width:0.8;" x="31.543" xlink:href="#m6370d1a892" y="213.44807"/>
      </g>
     </g>
     <g id="text_12">
      <!-- 100 -->
      <g transform="translate(5.4555 217.247289)scale(0.1 -0.1)">
       <use xlink:href="#DejaVuSans-31"/>
       <use x="63.623047" xlink:href="#DejaVuSans-30"/>
       <use x="127.246094" xlink:href="#DejaVuSans-30"/>
      </g>
     </g>
    </g>
    <g id="ytick_4">
     <g id="line2d_23">
      <path clip-path="url(#pdcdfc5b2e5)" d="M 31.543 165.240355 
L 445.103165 165.240355 
" style="fill:none;stroke:#b0b0b0;stroke-linecap:square;stroke-width:0.8;"/>
     </g>
     <g id="line2d_24">
      <g>
       <use style="stroke:#000000;stroke-width:0.8;" x="31.543" xlink:href="#m6370d1a892" y="165.240355"/>
      </g>
     </g>
     <g id="text_13">
      <!-- 150 -->
      <g transform="translate(5.4555 169.039574)scale(0.1 -0.1)">
       <use xlink:href="#DejaVuSans-31"/>
       <use x="63.623047" xlink:href="#DejaVuSans-35"/>
       <use x="127.246094" xlink:href="#DejaVuSans-30"/>
      </g>
     </g>
    </g>
    <g id="ytick_5">
     <g id="line2d_25">
      <path clip-path="url(#pdcdfc5b2e5)" d="M 31.543 117.03264 
L 445.103165 117.03264 
" style="fill:none;stroke:#b0b0b0;stroke-linecap:square;stroke-width:0.8;"/>
     </g>
     <g id="line2d_26">
      <g>
       <use style="stroke:#000000;stroke-width:0.8;" x="31.543" xlink:href="#m6370d1a892" y="117.03264"/>
      </g>
     </g>
     <g id="text_14">
      <!-- 200 -->
      <g transform="translate(5.4555 120.831859)scale(0.1 -0.1)">
       <use xlink:href="#DejaVuSans-32"/>
       <use x="63.623047" xlink:href="#DejaVuSans-30"/>
       <use x="127.246094" xlink:href="#DejaVuSans-30"/>
      </g>
     </g>
    </g>
    <g id="ytick_6">
     <g id="line2d_27">
      <path clip-path="url(#pdcdfc5b2e5)" d="M 31.543 68.824925 
L 445.103165 68.824925 
" style="fill:none;stroke:#b0b0b0;stroke-linecap:square;stroke-width:0.8;"/>
     </g>
     <g id="line2d_28">
      <g>
       <use style="stroke:#000000;stroke-width:0.8;" x="31.543" xlink:href="#m6370d1a892" y="68.824925"/>
      </g>
     </g>
     <g id="text_15">
      <!-- 250 -->
      <g transform="translate(5.4555 72.624144)scale(0.1 -0.1)">
       <use xlink:href="#DejaVuSans-32"/>
       <use x="63.623047" xlink:href="#DejaVuSans-35"/>
       <use x="127.246094" xlink:href="#DejaVuSans-30"/>
      </g>
     </g>
    </g>
   </g>
   <g id="line2d_29">
    <path clip-path="url(#pdcdfc5b2e5)" d="M 31.543 309.8635 
L 40.432881 309.8635 
L 42.601145 144.993115 
L 44.841684 309.8635 
L 47.082223 144.993115 
L 49.105936 309.8635 
L 55.755278 309.8635 
L 57.923542 151.742195 
L 60.164081 152.706349 
L 62.40462 150.778041 
L 64.572884 309.8635 
L 71.222226 309.8635 
L 73.462765 149.813886 
L 75.558753 309.8635 
L 82.208095 309.8635 
L 84.376359 155.116735 
L 86.616898 154.634658 
L 88.857437 309.8635 
L 95.434504 309.8635 
L 97.675043 68.824925 
L 99.915582 309.8635 
L 110.756901 309.8635 
L 112.99744 68.824925 
L 115.237979 309.8635 
L 119.646782 309.8635 
L 121.815046 64.968308 
L 124.055585 309.8635 
L 134.969179 309.8635 
L 137.137443 69.78908 
L 141.618521 69.78908 
L 143.786785 67.860771 
L 146.027324 309.8635 
L 161.349721 309.8635 
L 163.517985 75.574005 
L 165.758524 74.609851 
L 167.999063 75.574005 
L 170.167327 77.502314 
L 172.407866 309.8635 
L 174.57613 78.948545 
L 176.816669 77.502314 
L 179.057208 76.53816 
L 181.153196 77.502314 
L 183.393735 77.502314 
L 185.561999 309.8635 
L 189.970802 309.8635 
L 192.211341 78.466468 
L 196.620144 80.394777 
L 198.860683 309.8635 
L 201.028947 83.28724 
L 203.269486 309.8635 
L 205.510025 85.215548 
L 207.533738 309.8635 
L 214.18308 309.8635 
L 216.351344 86.179703 
L 218.591883 84.251394 
L 220.832422 84.251394 
L 223.000686 85.215548 
L 225.241225 309.8635 
L 231.890567 309.8635 
L 233.91428 76.53816 
L 236.154819 76.53816 
L 238.323083 309.8635 
L 240.563622 309.8635 
L 242.731886 83.769317 
L 244.972425 77.502314 
L 247.212964 76.53816 
L 249.381228 71.717388 
L 251.621767 309.8635 
L 271.352967 309.8635 
L 273.593506 196.57537 
L 275.761769 309.8635 
L 297.805784 309.8635 
L 300.046323 76.53816 
L 302.214587 77.502314 
L 304.455126 309.8635 
L 319.777523 309.8635 
L 321.945787 79.9127 
L 324.186326 80.394777 
L 326.426865 81.358931 
L 328.595129 309.8635 
L 330.835668 309.8635 
L 333.003931 65.932462 
L 335.244471 65.932462 
L 337.48501 309.8635 
L 348.326328 309.8635 
L 350.566868 76.53816 
L 352.807407 74.609851 
L 354.97567 309.8635 
L 368.129804 309.8635 
L 370.298067 71.717388 
L 372.538606 64.968308 
L 374.70687 64.004154 
L 376.947409 70.753234 
L 379.187949 67.860771 
L 383.596751 64.004154 
L 385.765015 309.8635 
L 388.005554 64.968308 
L 390.246093 309.8635 
L 396.750885 309.8635 
L 398.991424 64.968308 
L 401.159687 70.753234 
L 403.400227 64.968308 
L 405.640766 64.968308 
L 407.80903 309.8635 
L 412.217832 309.8635 
L 414.458372 62.075845 
L 416.698911 309.8635 
L 425.371966 309.8635 
L 427.540229 64.004154 
L 429.780768 64.004154 
L 432.021308 309.8635 
L 434.189571 309.8635 
L 436.430111 60.147537 
L 438.598374 51.470148 
L 440.838913 309.8635 
L 445.103165 309.8635 
L 445.103165 309.8635 
" style="fill:none;stroke:#1f77b4;stroke-linecap:square;stroke-width:1.5;"/>
   </g>
   <g id="patch_3">
    <path d="M 31.543 309.8635 
L 31.543 23.36505 
" style="fill:none;stroke:#000000;stroke-linecap:square;stroke-linejoin:miter;stroke-width:0.8;"/>
   </g>
   <g id="patch_4">
    <path d="M 445.103165 309.8635 
L 445.103165 23.36505 
" style="fill:none;stroke:#000000;stroke-linecap:square;stroke-linejoin:miter;stroke-width:0.8;"/>
   </g>
   <g id="patch_5">
    <path d="M 31.543 309.8635 
L 445.103165 309.8635 
" style="fill:none;stroke:#000000;stroke-linecap:square;stroke-linejoin:miter;stroke-width:0.8;"/>
   </g>
   <g id="patch_6">
    <path d="M 31.543 23.36505 
L 445.103165 23.36505 
" style="fill:none;stroke:#000000;stroke-linecap:square;stroke-linejoin:miter;stroke-width:0.8;"/>
   </g>
   <g id="text_16">
    <!-- Monthly gross load trend (MW) -->
    <defs>
     <path d="M 9.8125 72.90625 
L 24.515625 72.90625 
L 43.109375 23.296875 
L 61.8125 72.90625 
L 76.515625 72.90625 
L 76.515625 0 
L 66.890625 0 
L 66.890625 64.015625 
L 48.09375 14.015625 
L 38.1875 14.015625 
L 19.390625 64.015625 
L 19.390625 0 
L 9.8125 0 
z
" id="DejaVuSans-4d"/>
     <path d="M 30.609375 48.390625 
Q 23.390625 48.390625 19.1875 42.75 
Q 14.984375 37.109375 14.984375 27.296875 
Q 14.984375 17.484375 19.15625 11.84375 
Q 23.34375 6.203125 30.609375 6.203125 
Q 37.796875 6.203125 41.984375 11.859375 
Q 46.1875 17.53125 46.1875 27.296875 
Q 46.1875 37.015625 41.984375 42.703125 
Q 37.796875 48.390625 30.609375 48.390625 
z
M 30.609375 56 
Q 42.328125 56 49.015625 48.375 
Q 55.71875 40.765625 55.71875 27.296875 
Q 55.71875 13.875 49.015625 6.21875 
Q 42.328125 -1.421875 30.609375 -1.421875 
Q 18.84375 -1.421875 12.171875 6.21875 
Q 5.515625 13.875 5.515625 27.296875 
Q 5.515625 40.765625 12.171875 48.375 
Q 18.84375 56 30.609375 56 
z
" id="DejaVuSans-6f"/>
     <path d="M 54.890625 33.015625 
L 54.890625 0 
L 45.90625 0 
L 45.90625 32.71875 
Q 45.90625 40.484375 42.875 44.328125 
Q 39.84375 48.1875 33.796875 48.1875 
Q 26.515625 48.1875 22.3125 43.546875 
Q 18.109375 38.921875 18.109375 30.90625 
L 18.109375 0 
L 9.078125 0 
L 9.078125 54.6875 
L 18.109375 54.6875 
L 18.109375 46.1875 
Q 21.34375 51.125 25.703125 53.5625 
Q 30.078125 56 35.796875 56 
Q 45.21875 56 50.046875 50.171875 
Q 54.890625 44.34375 54.890625 33.015625 
z
" id="DejaVuSans-6e"/>
     <path d="M 54.890625 33.015625 
L 54.890625 0 
L 45.90625 0 
L 45.90625 32.71875 
Q 45.90625 40.484375 42.875 44.328125 
Q 39.84375 48.1875 33.796875 48.1875 
Q 26.515625 48.1875 22.3125 43.546875 
Q 18.109375 38.921875 18.109375 30.90625 
L 18.109375 0 
L 9.078125 0 
L 9.078125 75.984375 
L 18.109375 75.984375 
L 18.109375 46.1875 
Q 21.34375 51.125 25.703125 53.5625 
Q 30.078125 56 35.796875 56 
Q 45.21875 56 50.046875 50.171875 
Q 54.890625 44.34375 54.890625 33.015625 
z
" id="DejaVuSans-68"/>
     <path d="M 9.421875 75.984375 
L 18.40625 75.984375 
L 18.40625 0 
L 9.421875 0 
z
" id="DejaVuSans-6c"/>
     <path d="M 32.171875 -5.078125 
Q 28.375 -14.84375 24.75 -17.8125 
Q 21.140625 -20.796875 15.09375 -20.796875 
L 7.90625 -20.796875 
L 7.90625 -13.28125 
L 13.1875 -13.28125 
Q 16.890625 -13.28125 18.9375 -11.515625 
Q 21 -9.765625 23.484375 -3.21875 
L 25.09375 0.875 
L 2.984375 54.6875 
L 12.5 54.6875 
L 29.59375 11.921875 
L 46.6875 54.6875 
L 56.203125 54.6875 
z
" id="DejaVuSans-79"/>
     <path id="DejaVuSans-20"/>
     <path d="M 45.40625 27.984375 
Q 45.40625 37.75 41.375 43.109375 
Q 37.359375 48.484375 30.078125 48.484375 
Q 22.859375 48.484375 18.828125 43.109375 
Q 14.796875 37.75 14.796875 27.984375 
Q 14.796875 18.265625 18.828125 12.890625 
Q 22.859375 7.515625 30.078125 7.515625 
Q 37.359375 7.515625 41.375 12.890625 
Q 45.40625 18.265625 45.40625 27.984375 
z
M 54.390625 6.78125 
Q 54.390625 -7.171875 48.1875 -13.984375 
Q 42 -20.796875 29.203125 -20.796875 
Q 24.46875 -20.796875 20.265625 -20.09375 
Q 16.0625 -19.390625 12.109375 -17.921875 
L 12.109375 -9.1875 
Q 16.0625 -11.328125 19.921875 -12.34375 
Q 23.78125 -13.375 27.78125 -13.375 
Q 36.625 -13.375 41.015625 -8.765625 
Q 45.40625 -4.15625 45.40625 5.171875 
L 45.40625 9.625 
Q 42.625 4.78125 38.28125 2.390625 
Q 33.9375 0 27.875 0 
Q 17.828125 0 11.671875 7.65625 
Q 5.515625 15.328125 5.515625 27.984375 
Q 5.515625 40.671875 11.671875 48.328125 
Q 17.828125 56 27.875 56 
Q 33.9375 56 38.28125 53.609375 
Q 42.625 51.21875 45.40625 46.390625 
L 45.40625 54.6875 
L 54.390625 54.6875 
z
" id="DejaVuSans-67"/>
     <path d="M 41.109375 46.296875 
Q 39.59375 47.171875 37.8125 47.578125 
Q 36.03125 48 33.890625 48 
Q 26.265625 48 22.1875 43.046875 
Q 18.109375 38.09375 18.109375 28.8125 
L 18.109375 0 
L 9.078125 0 
L 9.078125 54.6875 
L 18.109375 54.6875 
L 18.109375 46.1875 
Q 20.953125 51.171875 25.484375 53.578125 
Q 30.03125 56 36.53125 56 
Q 37.453125 56 38.578125 55.875 
Q 39.703125 55.765625 41.0625 55.515625 
z
" id="DejaVuSans-72"/>
     <path d="M 44.28125 53.078125 
L 44.28125 44.578125 
Q 40.484375 46.53125 36.375 47.5 
Q 32.28125 48.484375 27.875 48.484375 
Q 21.1875 48.484375 17.84375 46.4375 
Q 14.5 44.390625 14.5 40.28125 
Q 14.5 37.15625 16.890625 35.375 
Q 19.28125 33.59375 26.515625 31.984375 
L 29.59375 31.296875 
Q 39.15625 29.25 43.1875 25.515625 
Q 47.21875 21.78125 47.21875 15.09375 
Q 47.21875 7.46875 41.1875 3.015625 
Q 35.15625 -1.421875 24.609375 -1.421875 
Q 20.21875 -1.421875 15.453125 -0.5625 
Q 10.6875 0.296875 5.421875 2 
L 5.421875 11.28125 
Q 10.40625 8.6875 15.234375 7.390625 
Q 20.0625 6.109375 24.8125 6.109375 
Q 31.15625 6.109375 34.5625 8.28125 
Q 37.984375 10.453125 37.984375 14.40625 
Q 37.984375 18.0625 35.515625 20.015625 
Q 33.0625 21.96875 24.703125 23.78125 
L 21.578125 24.515625 
Q 13.234375 26.265625 9.515625 29.90625 
Q 5.8125 33.546875 5.8125 39.890625 
Q 5.8125 47.609375 11.28125 51.796875 
Q 16.75 56 26.8125 56 
Q 31.78125 56 36.171875 55.265625 
Q 40.578125 54.546875 44.28125 53.078125 
z
" id="DejaVuSans-73"/>
     <path d="M 45.40625 46.390625 
L 45.40625 75.984375 
L 54.390625 75.984375 
L 54.390625 0 
L 45.40625 0 
L 45.40625 8.203125 
Q 42.578125 3.328125 38.25 0.953125 
Q 33.9375 -1.421875 27.875 -1.421875 
Q 17.96875 -1.421875 11.734375 6.484375 
Q 5.515625 14.40625 5.515625 27.296875 
Q 5.515625 40.1875 11.734375 48.09375 
Q 17.96875 56 27.875 56 
Q 33.9375 56 38.25 53.625 
Q 42.578125 51.265625 45.40625 46.390625 
z
M 14.796875 27.296875 
Q 14.796875 17.390625 18.875 11.75 
Q 22.953125 6.109375 30.078125 6.109375 
Q 37.203125 6.109375 41.296875 11.75 
Q 45.40625 17.390625 45.40625 27.296875 
Q 45.40625 37.203125 41.296875 42.84375 
Q 37.203125 48.484375 30.078125 48.484375 
Q 22.953125 48.484375 18.875 42.84375 
Q 14.796875 37.203125 14.796875 27.296875 
z
" id="DejaVuSans-64"/>
     <path d="M 31 75.875 
Q 24.46875 64.65625 21.28125 53.65625 
Q 18.109375 42.671875 18.109375 31.390625 
Q 18.109375 20.125 21.3125 9.0625 
Q 24.515625 -2 31 -13.1875 
L 23.1875 -13.1875 
Q 15.875 -1.703125 12.234375 9.375 
Q 8.59375 20.453125 8.59375 31.390625 
Q 8.59375 42.28125 12.203125 53.3125 
Q 15.828125 64.359375 23.1875 75.875 
z
" id="DejaVuSans-28"/>
     <path d="M 3.328125 72.90625 
L 13.28125 72.90625 
L 28.609375 11.28125 
L 43.890625 72.90625 
L 54.984375 72.90625 
L 70.3125 11.28125 
L 85.59375 72.90625 
L 95.609375 72.90625 
L 77.296875 0 
L 64.890625 0 
L 49.515625 63.28125 
L 33.984375 0 
L 21.578125 0 
z
" id="DejaVuSans-57"/>
     <path d="M 8.015625 75.875 
L 15.828125 75.875 
Q 23.140625 64.359375 26.78125 53.3125 
Q 30.421875 42.28125 30.421875 31.390625 
Q 30.421875 20.453125 26.78125 9.375 
Q 23.140625 -1.703125 15.828125 -13.1875 
L 8.015625 -13.1875 
Q 14.5 -2 17.703125 9.0625 
Q 20.90625 20.125 20.90625 31.390625 
Q 20.90625 42.671875 17.703125 53.65625 
Q 14.5 64.65625 8.015625 75.875 
z
" id="DejaVuSans-29"/>
    </defs>
    <g transform="translate(145.74027 17.36505)scale(0.12 -0.12)">
     <use xlink:href="#DejaVuSans-4d"/>
     <use x="86.279297" xlink:href="#DejaVuSans-6f"/>
     <use x="147.460938" xlink:href="#DejaVuSans-6e"/>
     <use x="210.839844" xlink:href="#DejaVuSans-74"/>
     <use x="250.048828" xlink:href="#DejaVuSans-68"/>
     <use x="313.427734" xlink:href="#DejaVuSans-6c"/>
     <use x="341.210938" xlink:href="#DejaVuSans-79"/>
     <use x="400.390625" xlink:href="#DejaVuSans-20"/>
     <use x="432.177734" xlink:href="#DejaVuSans-67"/>
     <use x="495.654297" xlink:href="#DejaVuSans-72"/>
     <use x="536.736328" xlink:href="#DejaVuSans-6f"/>
     <use x="597.917969" xlink:href="#DejaVuSans-73"/>
     <use x="650.017578" xlink:href="#DejaVuSans-73"/>
     <use x="702.117188" xlink:href="#DejaVuSans-20"/>
     <use x="733.904297" xlink:href="#DejaVuSans-6c"/>
     <use x="761.6875" xlink:href="#DejaVuSans-6f"/>
     <use x="822.869141" xlink:href="#DejaVuSans-61"/>
     <use x="884.148438" xlink:href="#DejaVuSans-64"/>
     <use x="947.625" xlink:href="#DejaVuSans-20"/>
     <use x="979.412109" xlink:href="#DejaVuSans-74"/>
     <use x="1018.621094" xlink:href="#DejaVuSans-72"/>
     <use x="1059.703125" xlink:href="#DejaVuSans-65"/>
     <use x="1121.226562" xlink:href="#DejaVuSans-6e"/>
     <use x="1184.605469" xlink:href="#DejaVuSans-64"/>
     <use x="1248.082031" xlink:href="#DejaVuSans-20"/>
     <use x="1279.869141" xlink:href="#DejaVuSans-28"/>
     <use x="1318.882812" xlink:href="#DejaVuSans-4d"/>
     <use x="1405.162109" xlink:href="#DejaVuSans-57"/>
     <use x="1504.039062" xlink:href="#DejaVuSans-29"/>
    </g>
   </g>
  </g>
 </g>
 <defs>
  <clipPath id="pdcdfc5b2e5">
   <rect height="286.49845" width="413.560165" x="31.543" y="23.36505"/>
  </clipPath>
 </defs>
</svg>
