<?xml version="1.0" encoding="utf-8" standalone="no"?>
<!DOCTYPE svg PUBLIC "-//W3C//DTD SVG 1.1//EN"
  "http://www.w3.org/Graphics/SVG/1.1/DTD/svg11.dtd">
<!-- Created with matplotlib (http://matplotlib.org/) -->
<svg height="345.6pt" version="1.1" viewBox="0 0 460.8 345.6" width="460.8pt" xmlns="http://www.w3.org/2000/svg" xmlns:xlink="http://www.w3.org/1999/xlink">
 <defs>
  <style type="text/css">
*{stroke-linecap:butt;stroke-linejoin:round;}
  </style>
 </defs>
 <g id="figure_1">
  <g id="patch_1">
   <path d="M 0 345.6 
L 460.8 345.6 
L 460.8 0 
L 0 0 
z
" style="fill:none;"/>
  </g>
  <g id="axes_1">
   <g id="patch_2">
    <path d="M 31.543 309.8635 
L 447.48 309.8635 
L 447.48 23.36505 
L 31.543 23.36505 
z
" style="fill:none;"/>
   </g>
   <g id="PolyCollection_1">
    <path clip-path="url(#p3d52018876)" d="M 31.543 309.8635 
L 31.543 309.8635 
L 34.445757 309.8635 
L 37.067602 309.8635 
L 39.970359 309.8635 
L 42.779479 309.8635 
L 45.682236 309.8635 
L 48.491356 190.743675 
L 51.394113 150.018949 
L 54.29687 142.892122 
L 57.10599 309.8635 
L 60.008747 141.874004 
L 62.817867 140.855886 
L 65.720624 309.8635 
L 68.623381 309.8635 
L 71.245226 309.8635 
L 74.147983 309.8635 
L 76.957103 309.8635 
L 79.85986 309.8635 
L 82.66898 220.269102 
L 85.571737 217.214748 
L 88.474494 309.8635 
L 91.283614 309.8635 
L 94.186371 309.8635 
L 96.995491 309.8635 
L 99.898248 161.218249 
L 102.801005 140.855886 
L 105.516487 138.819649 
L 108.419244 126.602231 
L 111.228364 309.8635 
L 114.131121 309.8635 
L 116.940241 144.928358 
L 119.842998 309.8635 
L 122.745755 309.8635 
L 125.554875 220.269102 
L 128.457632 136.783413 
L 131.266752 309.8635 
L 134.169509 138.819649 
L 137.072266 226.377811 
L 139.694111 220.269102 
L 142.596868 309.8635 
L 145.405988 309.8635 
L 148.308745 142.892122 
L 151.117865 139.837767 
L 154.020622 138.819649 
L 156.923379 309.8635 
L 159.732499 309.8635 
L 162.635256 309.8635 
L 165.444376 126.602231 
L 168.347133 128.638468 
L 171.24989 309.8635 
L 173.871735 132.71094 
L 176.774492 135.765295 
L 179.583612 309.8635 
L 182.486369 309.8635 
L 185.295489 138.819649 
L 188.198246 136.783413 
L 191.101003 125.584113 
L 193.910122 309.8635 
L 196.81288 309.8635 
L 199.621999 132.71094 
L 202.524756 309.8635 
L 205.427514 309.8635 
L 208.049359 309.8635 
L 210.952116 309.8635 
L 213.761235 309.8635 
L 216.663993 309.8635 
L 219.473112 309.8635 
L 222.375869 219.250984 
L 225.278627 309.8635 
L 228.087746 309.8635 
L 230.990503 309.8635 
L 233.799623 309.8635 
L 236.70238 227.395929 
L 239.605137 251.830765 
L 242.32062 263.030065 
L 245.223377 266.084419 
L 248.032497 309.8635 
L 250.935254 227.395929 
L 253.744373 145.946476 
L 256.647131 140.855886 
L 259.549888 309.8635 
L 262.359007 141.874004 
L 265.261765 309.8635 
L 268.070884 227.395929 
L 270.973641 225.359693 
L 273.876398 134.747177 
L 276.498244 134.747177 
L 279.401001 229.432165 
L 282.21012 309.8635 
L 285.112878 309.8635 
L 287.921997 197.870502 
L 290.824754 215.178511 
L 293.727511 192.779912 
L 296.536631 309.8635 
L 299.439388 309.8635 
L 302.248508 131.692822 
L 305.151265 309.8635 
L 308.054022 202.961093 
L 310.675867 123.547877 
L 313.578624 309.8635 
L 316.387744 309.8635 
L 319.290501 229.432165 
L 322.099621 228.414047 
L 325.002378 228.414047 
L 327.905135 214.160393 
L 330.714255 309.8635 
L 333.617012 164.272603 
L 336.426132 133.729058 
L 339.328889 221.28722 
L 342.231646 219.250984 
L 344.853491 131.692822 
L 347.756248 309.8635 
L 350.565368 309.8635 
L 353.468125 134.747177 
L 356.277245 223.323456 
L 359.180002 132.71094 
L 362.082759 294.591728 
L 364.891879 309.8635 
L 367.794636 122.529759 
L 370.603756 128.638468 
L 373.506513 219.250984 
L 376.40927 218.232866 
L 379.124752 309.8635 
L 382.027509 309.8635 
L 384.836629 309.8635 
L 387.739386 309.8635 
L 390.548506 217.214748 
L 393.451263 128.638468 
L 396.35402 309.8635 
L 399.16314 309.8635 
L 402.065897 309.8635 
L 404.875017 222.305338 
L 407.777774 219.250984 
L 410.680531 220.269102 
L 413.302376 309.8635 
L 416.205133 309.8635 
L 419.014253 309.8635 
L 421.91701 221.28722 
L 424.72613 220.269102 
L 427.628887 131.692822 
L 430.531644 222.305338 
L 433.340764 129.656586 
L 436.243521 238.595229 
L 439.052641 309.8635 
L 441.955398 224.341575 
L 444.858155 309.8635 
L 447.48 220.269102 
L 447.48 71.623851 
L 447.48 71.623851 
L 444.858155 59.406433 
L 441.955398 73.660087 
L 439.052641 70.605733 
L 436.243521 55.33396 
L 433.340764 59.406433 
L 430.531644 62.460787 
L 427.628887 57.370197 
L 424.72613 62.460787 
L 421.91701 48.207133 
L 419.014253 141.874004 
L 416.205133 309.8635 
L 413.302376 44.13466 
L 410.680531 184.634966 
L 407.777774 55.33396 
L 404.875017 57.370197 
L 402.065897 65.515142 
L 399.16314 59.406433 
L 396.35402 53.297724 
L 393.451263 58.388315 
L 390.548506 52.279606 
L 387.739386 53.297724 
L 384.836629 63.478905 
L 382.027509 63.478905 
L 379.124752 64.497024 
L 376.40927 56.352078 
L 373.506513 60.424551 
L 370.603756 65.515142 
L 367.794636 59.406433 
L 364.891879 50.243369 
L 362.082759 48.207133 
L 359.180002 56.352078 
L 356.277245 58.388315 
L 353.468125 58.388315 
L 350.565368 59.406433 
L 347.756248 59.406433 
L 344.853491 57.370197 
L 342.231646 58.388315 
L 339.328889 59.406433 
L 336.426132 59.406433 
L 333.617012 55.33396 
L 330.714255 59.406433 
L 327.905135 55.33396 
L 325.002378 46.170897 
L 322.099621 59.406433 
L 319.290501 54.315842 
L 316.387744 59.406433 
L 313.578624 54.315842 
L 310.675867 54.315842 
L 308.054022 45.152779 
L 305.151265 57.370197 
L 302.248508 39.04407 
L 299.439388 57.370197 
L 296.536631 56.352078 
L 293.727511 55.33396 
L 290.824754 55.33396 
L 287.921997 57.370197 
L 285.112878 61.442669 
L 282.21012 63.478905 
L 279.401001 50.243369 
L 276.498244 53.297724 
L 273.876398 55.33396 
L 270.973641 58.388315 
L 268.070884 66.53326 
L 265.261765 70.605733 
L 262.359007 49.225251 
L 259.549888 54.315842 
L 256.647131 55.33396 
L 253.744373 56.352078 
L 250.935254 51.261488 
L 248.032497 61.442669 
L 245.223377 53.297724 
L 242.32062 47.189015 
L 239.605137 52.279606 
L 236.70238 49.225251 
L 233.799623 49.225251 
L 230.990503 59.406433 
L 228.087746 45.152779 
L 225.278627 52.279606 
L 222.375869 60.424551 
L 219.473112 52.279606 
L 216.663993 57.370197 
L 213.761235 63.478905 
L 210.952116 71.623851 
L 208.049359 74.678205 
L 205.427514 57.370197 
L 202.524756 55.33396 
L 199.621999 57.370197 
L 196.81288 39.04407 
L 193.910122 53.297724 
L 191.101003 57.370197 
L 188.198246 57.370197 
L 185.295489 57.370197 
L 182.486369 55.33396 
L 179.583612 60.424551 
L 176.774492 58.388315 
L 173.871735 51.261488 
L 171.24989 49.225251 
L 168.347133 50.243369 
L 165.444376 41.080306 
L 162.635256 56.352078 
L 159.732499 51.261488 
L 156.923379 52.279606 
L 154.020622 53.297724 
L 151.117865 53.297724 
L 148.308745 53.297724 
L 145.405988 49.225251 
L 142.596868 49.225251 
L 139.694111 51.261488 
L 137.072266 58.388315 
L 134.169509 55.33396 
L 131.266752 56.352078 
L 128.457632 56.352078 
L 125.554875 55.33396 
L 122.745755 47.189015 
L 119.842998 52.279606 
L 116.940241 52.279606 
L 114.131121 51.261488 
L 111.228364 55.33396 
L 108.419244 46.170897 
L 105.516487 52.279606 
L 102.801005 55.33396 
L 99.898248 47.189015 
L 96.995491 37.007833 
L 94.186371 54.315842 
L 91.283614 46.170897 
L 88.474494 50.243369 
L 85.571737 53.297724 
L 82.66898 55.33396 
L 79.85986 52.279606 
L 76.957103 46.170897 
L 74.147983 39.04407 
L 71.245226 184.634966 
L 68.623381 184.634966 
L 65.720624 47.189015 
L 62.817867 44.13466 
L 60.008747 49.225251 
L 57.10599 73.660087 
L 54.29687 85.877505 
L 51.394113 81.805032 
L 48.491356 69.587614 
L 45.682236 85.877505 
L 42.779479 91.986214 
L 39.970359 309.8635 
L 37.067602 61.442669 
L 34.445757 40.062188 
L 31.543 309.8635 
z
" style="fill:#808080;fill-opacity:0.3;"/>
   </g>
   <g id="PolyCollection_2">
    <path clip-path="url(#p3d52018876)" d="M 31.543 309.8635 
L 31.543 309.8635 
L 34.445757 309.8635 
L 37.067602 309.8635 
L 39.970359 309.8635 
L 42.779479 309.8635 
L 45.682236 309.8635 
L 48.491356 136.783413 
L 51.394113 132.71094 
L 54.29687 128.638468 
L 57.10599 309.8635 
L 60.008747 110.312341 
L 62.817867 102.167396 
L 65.720624 200.924857 
L 68.623381 309.8635 
L 71.245226 309.8635 
L 74.147983 124.565995 
L 76.957103 134.747177 
L 79.85986 130.674704 
L 82.66898 122.529759 
L 85.571737 105.22175 
L 88.474494 108.530634 
L 91.283614 128.638468 
L 94.186371 110.312341 
L 96.995491 196.852384 
L 99.898248 104.203632 
L 102.801005 112.348577 
L 105.516487 101.149277 
L 108.419244 75.696323 
L 111.228364 309.8635 
L 114.131121 309.8635 
L 116.940241 120.493522 
L 119.842998 112.348577 
L 122.745755 126.602231 
L 125.554875 118.457286 
L 128.457632 114.384813 
L 131.266752 309.8635 
L 134.169509 110.312341 
L 137.072266 124.565995 
L 139.694111 114.384813 
L 142.596868 309.8635 
L 145.405988 222.305338 
L 148.308745 116.42105 
L 151.117865 113.366695 
L 154.020622 102.167396 
L 156.923379 103.185514 
L 159.732499 309.8635 
L 162.635256 309.8635 
L 165.444376 98.094923 
L 168.347133 100.131159 
L 171.24989 202.961093 
L 173.871735 85.877505 
L 176.774492 90.204507 
L 179.583612 309.8635 
L 182.486369 309.8635 
L 185.295489 114.384813 
L 188.198246 104.203632 
L 191.101003 90.968096 
L 193.910122 94.02245 
L 196.81288 309.8635 
L 199.621999 104.203632 
L 202.524756 309.8635 
L 205.427514 136.783413 
L 208.049359 309.8635 
L 210.952116 309.8635 
L 213.761235 309.8635 
L 216.663993 309.8635 
L 219.473112 214.160393 
L 222.375869 117.439168 
L 225.278627 106.239868 
L 228.087746 309.8635 
L 230.990503 115.657461 
L 233.799623 105.22175 
L 236.70238 106.239868 
L 239.605137 94.02245 
L 242.32062 108.276104 
L 245.223377 202.961093 
L 248.032497 309.8635 
L 250.935254 126.856761 
L 253.744373 122.529759 
L 256.647131 107.257986 
L 259.549888 104.203632 
L 262.359007 107.512516 
L 265.261765 309.8635 
L 268.070884 201.942975 
L 270.973641 200.924857 
L 273.876398 104.203632 
L 276.498244 105.22175 
L 279.401001 124.565995 
L 282.21012 212.124157 
L 285.112878 309.8635 
L 287.921997 116.42105 
L 290.824754 108.276104 
L 293.727511 106.239868 
L 296.536631 309.8635 
L 299.439388 309.8635 
L 302.248508 102.167396 
L 305.151265 212.124157 
L 308.054022 101.149277 
L 310.675867 102.167396 
L 313.578624 309.8635 
L 316.387744 283.392428 
L 319.290501 203.215623 
L 322.099621 203.979211 
L 325.002378 194.052559 
L 327.905135 104.203632 
L 330.714255 309.8635 
L 333.617012 102.167396 
L 336.426132 107.257986 
L 339.328889 116.42105 
L 342.231646 116.42105 
L 344.853491 112.348577 
L 347.756248 309.8635 
L 350.565368 120.493522 
L 353.468125 112.348577 
L 356.277245 115.402932 
L 359.180002 108.276104 
L 362.082759 110.312341 
L 364.891879 309.8635 
L 367.794636 102.167396 
L 370.603756 106.239868 
L 373.506513 104.203632 
L 376.40927 112.348577 
L 379.124752 309.8635 
L 382.027509 309.8635 
L 384.836629 212.124157 
L 387.739386 206.015448 
L 390.548506 108.276104 
L 393.451263 107.257986 
L 396.35402 213.142275 
L 399.16314 309.8635 
L 402.065897 309.8635 
L 404.875017 200.924857 
L 407.777774 203.979211 
L 410.680531 210.08792 
L 413.302376 214.160393 
L 416.205133 309.8635 
L 419.014253 309.8635 
L 421.91701 202.961093 
L 424.72613 118.457286 
L 427.628887 109.294223 
L 430.531644 109.294223 
L 433.340764 107.257986 
L 436.243521 198.888621 
L 439.052641 309.8635 
L 441.955398 208.051684 
L 444.858155 209.069802 
L 447.48 209.069802 
L 447.48 198.888621 
L 447.48 198.888621 
L 444.858155 196.852384 
L 441.955398 200.924857 
L 439.052641 203.979211 
L 436.243521 85.622975 
L 433.340764 91.986214 
L 430.531644 90.968096 
L 427.628887 88.931859 
L 424.72613 95.040568 
L 421.91701 96.058687 
L 419.014253 211.106039 
L 416.205133 309.8635 
L 413.302376 200.924857 
L 410.680531 201.942975 
L 407.777774 102.167396 
L 404.875017 98.094923 
L 402.065897 197.870502 
L 399.16314 202.706564 
L 396.35402 95.040568 
L 393.451263 87.913741 
L 390.548506 89.949978 
L 387.739386 100.131159 
L 384.836629 190.743675 
L 382.027509 202.961093 
L 379.124752 106.239868 
L 376.40927 94.02245 
L 373.506513 83.841269 
L 370.603756 87.913741 
L 367.794636 81.805032 
L 364.891879 104.203632 
L 362.082759 87.913741 
L 359.180002 83.841269 
L 356.277245 89.949978 
L 353.468125 89.949978 
L 350.565368 94.02245 
L 347.756248 98.094923 
L 344.853491 85.877505 
L 342.231646 89.949978 
L 339.328889 89.949978 
L 336.426132 89.949978 
L 333.617012 85.877505 
L 330.714255 106.239868 
L 327.905135 81.805032 
L 325.002378 86.895623 
L 322.099621 96.058687 
L 319.290501 100.131159 
L 316.387744 94.02245 
L 313.578624 93.004332 
L 310.675867 81.805032 
L 308.054022 81.805032 
L 305.151265 89.949978 
L 302.248508 79.768796 
L 299.439388 97.840393 
L 296.536631 102.167396 
L 293.727511 79.768796 
L 290.824754 78.750678 
L 287.921997 82.82315 
L 285.112878 209.833391 
L 282.21012 114.384813 
L 279.401001 83.841269 
L 276.498244 72.641969 
L 273.876398 79.768796 
L 270.973641 100.131159 
L 268.070884 110.312341 
L 265.261765 207.033566 
L 262.359007 74.678205 
L 259.549888 75.696323 
L 256.647131 77.73256 
L 253.744373 87.913741 
L 250.935254 91.986214 
L 248.032497 208.051684 
L 245.223377 94.02245 
L 242.32062 74.678205 
L 239.605137 69.587614 
L 236.70238 79.768796 
L 233.799623 75.696323 
L 230.990503 89.949978 
L 228.087746 97.585864 
L 225.278627 75.696323 
L 222.375869 96.058687 
L 219.473112 109.294223 
L 216.663993 197.615973 
L 213.761235 309.8635 
L 210.952116 200.670327 
L 208.049359 207.033566 
L 205.427514 96.058687 
L 202.524756 89.949978 
L 199.621999 77.73256 
L 196.81288 83.841269 
L 193.910122 75.696323 
L 191.101003 71.623851 
L 188.198246 75.696323 
L 185.295489 84.859387 
L 182.486369 204.99733 
L 179.583612 110.312341 
L 176.774492 68.569496 
L 173.871735 63.478905 
L 171.24989 71.623851 
L 168.347133 71.623851 
L 165.444376 73.660087 
L 162.635256 114.384813 
L 159.732499 70.605733 
L 156.923379 77.73256 
L 154.020622 75.696323 
L 151.117865 86.895623 
L 148.308745 83.841269 
L 145.405988 103.185514 
L 142.596868 85.622975 
L 139.694111 81.805032 
L 137.072266 91.986214 
L 134.169509 75.696323 
L 131.266752 83.841269 
L 128.457632 82.82315 
L 125.554875 88.931859 
L 122.745755 79.768796 
L 119.842998 77.73256 
L 116.940241 84.859387 
L 114.131121 93.004332 
L 111.228364 118.457286 
L 108.419244 57.370197 
L 105.516487 71.623851 
L 102.801005 72.641969 
L 99.898248 72.641969 
L 96.995491 85.622975 
L 94.186371 79.768796 
L 91.283614 83.841269 
L 88.474494 77.73256 
L 85.571737 72.641969 
L 82.66898 89.949978 
L 79.85986 89.949978 
L 76.957103 87.913741 
L 74.147983 82.568621 
L 71.245226 218.232866 
L 68.623381 217.214748 
L 65.720624 87.913741 
L 62.817867 77.73256 
L 60.008747 77.73256 
L 57.10599 102.167396 
L 54.29687 106.239868 
L 51.394113 114.384813 
L 48.491356 107.257986 
L 45.682236 134.747177 
L 42.779479 140.855886 
L 39.970359 309.8635 
L 37.067602 309.8635 
L 34.445757 309.8635 
L 31.543 309.8635 
z
" style="fill:#808080;fill-opacity:0.6;"/>
   </g>
   <g id="matplotlib.axis_1">
    <g id="xtick_1">
     <g id="line2d_1">
      <path clip-path="url(#p3d52018876)" d="M 65.720624 309.8635 
L 65.720624 23.36505 
" style="fill:none;stroke:#b0b0b0;stroke-linecap:square;stroke-width:0.8;"/>
     </g>
     <g id="line2d_2">
      <defs>
       <path d="M 0 0 
L 0 3.5 
" id="me6d2edc27f" style="stroke:#000000;stroke-width:0.8;"/>
      </defs>
      <g>
       <use style="stroke:#000000;stroke-width:0.8;" x="65.720624" xlink:href="#me6d2edc27f" y="309.8635"/>
      </g>
     </g>
     <g id="text_1">
      <!-- 2007 -->
      <defs>
       <path d="M 19.1875 8.296875 
L 53.609375 8.296875 
L 53.609375 0 
L 7.328125 0 
L 7.328125 8.296875 
Q 12.9375 14.109375 22.625 23.890625 
Q 32.328125 33.6875 34.8125 36.53125 
Q 39.546875 41.84375 41.421875 45.53125 
Q 43.3125 49.21875 43.3125 52.78125 
Q 43.3125 58.59375 39.234375 62.25 
Q 35.15625 65.921875 28.609375 65.921875 
Q 23.96875 65.921875 18.8125 64.3125 
Q 13.671875 62.703125 7.8125 59.421875 
L 7.8125 69.390625 
Q 13.765625 71.78125 18.9375 73 
Q 24.125 74.21875 28.421875 74.21875 
Q 39.75 74.21875 46.484375 68.546875 
Q 53.21875 62.890625 53.21875 53.421875 
Q 53.21875 48.921875 51.53125 44.890625 
Q 49.859375 40.875 45.40625 35.40625 
Q 44.1875 33.984375 37.640625 27.21875 
Q 31.109375 20.453125 19.1875 8.296875 
z
" id="DejaVuSans-32"/>
       <path d="M 31.78125 66.40625 
Q 24.171875 66.40625 20.328125 58.90625 
Q 16.5 51.421875 16.5 36.375 
Q 16.5 21.390625 20.328125 13.890625 
Q 24.171875 6.390625 31.78125 6.390625 
Q 39.453125 6.390625 43.28125 13.890625 
Q 47.125 21.390625 47.125 36.375 
Q 47.125 51.421875 43.28125 58.90625 
Q 39.453125 66.40625 31.78125 66.40625 
z
M 31.78125 74.21875 
Q 44.046875 74.21875 50.515625 64.515625 
Q 56.984375 54.828125 56.984375 36.375 
Q 56.984375 17.96875 50.515625 8.265625 
Q 44.046875 -1.421875 31.78125 -1.421875 
Q 19.53125 -1.421875 13.0625 8.265625 
Q 6.59375 17.96875 6.59375 36.375 
Q 6.59375 54.828125 13.0625 64.515625 
Q 19.53125 74.21875 31.78125 74.21875 
z
" id="DejaVuSans-30"/>
       <path d="M 8.203125 72.90625 
L 55.078125 72.90625 
L 55.078125 68.703125 
L 28.609375 0 
L 18.3125 0 
L 43.21875 64.59375 
L 8.203125 64.59375 
z
" id="DejaVuSans-37"/>
      </defs>
      <g transform="translate(52.995624 324.461937)scale(0.1 -0.1)">
       <use xlink:href="#DejaVuSans-32"/>
       <use x="63.623047" xlink:href="#DejaVuSans-30"/>
       <use x="127.246094" xlink:href="#DejaVuSans-30"/>
       <use x="190.869141" xlink:href="#DejaVuSans-37"/>
      </g>
     </g>
    </g>
    <g id="xtick_2">
     <g id="line2d_3">
      <path clip-path="url(#p3d52018876)" d="M 134.169509 309.8635 
L 134.169509 23.36505 
" style="fill:none;stroke:#b0b0b0;stroke-linecap:square;stroke-width:0.8;"/>
     </g>
     <g id="line2d_4">
      <g>
       <use style="stroke:#000000;stroke-width:0.8;" x="134.169509" xlink:href="#me6d2edc27f" y="309.8635"/>
      </g>
     </g>
     <g id="text_2">
      <!-- 2009 -->
      <defs>
       <path d="M 10.984375 1.515625 
L 10.984375 10.5 
Q 14.703125 8.734375 18.5 7.8125 
Q 22.3125 6.890625 25.984375 6.890625 
Q 35.75 6.890625 40.890625 13.453125 
Q 46.046875 20.015625 46.78125 33.40625 
Q 43.953125 29.203125 39.59375 26.953125 
Q 35.25 24.703125 29.984375 24.703125 
Q 19.046875 24.703125 12.671875 31.3125 
Q 6.296875 37.9375 6.296875 49.421875 
Q 6.296875 60.640625 12.9375 67.421875 
Q 19.578125 74.21875 30.609375 74.21875 
Q 43.265625 74.21875 49.921875 64.515625 
Q 56.59375 54.828125 56.59375 36.375 
Q 56.59375 19.140625 48.40625 8.859375 
Q 40.234375 -1.421875 26.421875 -1.421875 
Q 22.703125 -1.421875 18.890625 -0.6875 
Q 15.09375 0.046875 10.984375 1.515625 
z
M 30.609375 32.421875 
Q 37.25 32.421875 41.125 36.953125 
Q 45.015625 41.5 45.015625 49.421875 
Q 45.015625 57.28125 41.125 61.84375 
Q 37.25 66.40625 30.609375 66.40625 
Q 23.96875 66.40625 20.09375 61.84375 
Q 16.21875 57.28125 16.21875 49.421875 
Q 16.21875 41.5 20.09375 36.953125 
Q 23.96875 32.421875 30.609375 32.421875 
z
" id="DejaVuSans-39"/>
      </defs>
      <g transform="translate(121.444509 324.461937)scale(0.1 -0.1)">
       <use xlink:href="#DejaVuSans-32"/>
       <use x="63.623047" xlink:href="#DejaVuSans-30"/>
       <use x="127.246094" xlink:href="#DejaVuSans-30"/>
       <use x="190.869141" xlink:href="#DejaVuSans-39"/>
      </g>
     </g>
    </g>
    <g id="xtick_3">
     <g id="line2d_5">
      <path clip-path="url(#p3d52018876)" d="M 202.524756 309.8635 
L 202.524756 23.36505 
" style="fill:none;stroke:#b0b0b0;stroke-linecap:square;stroke-width:0.8;"/>
     </g>
     <g id="line2d_6">
      <g>
       <use style="stroke:#000000;stroke-width:0.8;" x="202.524756" xlink:href="#me6d2edc27f" y="309.8635"/>
      </g>
     </g>
     <g id="text_3">
      <!-- 2011 -->
      <defs>
       <path d="M 12.40625 8.296875 
L 28.515625 8.296875 
L 28.515625 63.921875 
L 10.984375 60.40625 
L 10.984375 69.390625 
L 28.421875 72.90625 
L 38.28125 72.90625 
L 38.28125 8.296875 
L 54.390625 8.296875 
L 54.390625 0 
L 12.40625 0 
z
" id="DejaVuSans-31"/>
      </defs>
      <g transform="translate(189.799756 324.461937)scale(0.1 -0.1)">
       <use xlink:href="#DejaVuSans-32"/>
       <use x="63.623047" xlink:href="#DejaVuSans-30"/>
       <use x="127.246094" xlink:href="#DejaVuSans-31"/>
       <use x="190.869141" xlink:href="#DejaVuSans-31"/>
      </g>
     </g>
    </g>
    <g id="xtick_4">
     <g id="line2d_7">
      <path clip-path="url(#p3d52018876)" d="M 270.973641 309.8635 
L 270.973641 23.36505 
" style="fill:none;stroke:#b0b0b0;stroke-linecap:square;stroke-width:0.8;"/>
     </g>
     <g id="line2d_8">
      <g>
       <use style="stroke:#000000;stroke-width:0.8;" x="270.973641" xlink:href="#me6d2edc27f" y="309.8635"/>
      </g>
     </g>
     <g id="text_4">
      <!-- 2013 -->
      <defs>
       <path d="M 40.578125 39.3125 
Q 47.65625 37.796875 51.625 33 
Q 55.609375 28.21875 55.609375 21.1875 
Q 55.609375 10.40625 48.1875 4.484375 
Q 40.765625 -1.421875 27.09375 -1.421875 
Q 22.515625 -1.421875 17.65625 -0.515625 
Q 12.796875 0.390625 7.625 2.203125 
L 7.625 11.71875 
Q 11.71875 9.328125 16.59375 8.109375 
Q 21.484375 6.890625 26.8125 6.890625 
Q 36.078125 6.890625 40.9375 10.546875 
Q 45.796875 14.203125 45.796875 21.1875 
Q 45.796875 27.640625 41.28125 31.265625 
Q 36.765625 34.90625 28.71875 34.90625 
L 20.21875 34.90625 
L 20.21875 43.015625 
L 29.109375 43.015625 
Q 36.375 43.015625 40.234375 45.921875 
Q 44.09375 48.828125 44.09375 54.296875 
Q 44.09375 59.90625 40.109375 62.90625 
Q 36.140625 65.921875 28.71875 65.921875 
Q 24.65625 65.921875 20.015625 65.03125 
Q 15.375 64.15625 9.8125 62.3125 
L 9.8125 71.09375 
Q 15.4375 72.65625 20.34375 73.4375 
Q 25.25 74.21875 29.59375 74.21875 
Q 40.828125 74.21875 47.359375 69.109375 
Q 53.90625 64.015625 53.90625 55.328125 
Q 53.90625 49.265625 50.4375 45.09375 
Q 46.96875 40.921875 40.578125 39.3125 
z
" id="DejaVuSans-33"/>
      </defs>
      <g transform="translate(258.248641 324.461937)scale(0.1 -0.1)">
       <use xlink:href="#DejaVuSans-32"/>
       <use x="63.623047" xlink:href="#DejaVuSans-30"/>
       <use x="127.246094" xlink:href="#DejaVuSans-31"/>
       <use x="190.869141" xlink:href="#DejaVuSans-33"/>
      </g>
     </g>
    </g>
    <g id="xtick_5">
     <g id="line2d_9">
      <path clip-path="url(#p3d52018876)" d="M 339.328889 309.8635 
L 339.328889 23.36505 
" style="fill:none;stroke:#b0b0b0;stroke-linecap:square;stroke-width:0.8;"/>
     </g>
     <g id="line2d_10">
      <g>
       <use style="stroke:#000000;stroke-width:0.8;" x="339.328889" xlink:href="#me6d2edc27f" y="309.8635"/>
      </g>
     </g>
     <g id="text_5">
      <!-- 2015 -->
      <defs>
       <path d="M 10.796875 72.90625 
L 49.515625 72.90625 
L 49.515625 64.59375 
L 19.828125 64.59375 
L 19.828125 46.734375 
Q 21.96875 47.46875 24.109375 47.828125 
Q 26.265625 48.1875 28.421875 48.1875 
Q 40.625 48.1875 47.75 41.5 
Q 54.890625 34.8125 54.890625 23.390625 
Q 54.890625 11.625 47.5625 5.09375 
Q 40.234375 -1.421875 26.90625 -1.421875 
Q 22.3125 -1.421875 17.546875 -0.640625 
Q 12.796875 0.140625 7.71875 1.703125 
L 7.71875 11.625 
Q 12.109375 9.234375 16.796875 8.0625 
Q 21.484375 6.890625 26.703125 6.890625 
Q 35.15625 6.890625 40.078125 11.328125 
Q 45.015625 15.765625 45.015625 23.390625 
Q 45.015625 31 40.078125 35.4375 
Q 35.15625 39.890625 26.703125 39.890625 
Q 22.75 39.890625 18.8125 39.015625 
Q 14.890625 38.140625 10.796875 36.28125 
z
" id="DejaVuSans-35"/>
      </defs>
      <g transform="translate(326.603889 324.461937)scale(0.1 -0.1)">
       <use xlink:href="#DejaVuSans-32"/>
       <use x="63.623047" xlink:href="#DejaVuSans-30"/>
       <use x="127.246094" xlink:href="#DejaVuSans-31"/>
       <use x="190.869141" xlink:href="#DejaVuSans-35"/>
      </g>
     </g>
    </g>
    <g id="xtick_6">
     <g id="line2d_11">
      <path clip-path="url(#p3d52018876)" d="M 407.777774 309.8635 
L 407.777774 23.36505 
" style="fill:none;stroke:#b0b0b0;stroke-linecap:square;stroke-width:0.8;"/>
     </g>
     <g id="line2d_12">
      <g>
       <use style="stroke:#000000;stroke-width:0.8;" x="407.777774" xlink:href="#me6d2edc27f" y="309.8635"/>
      </g>
     </g>
     <g id="text_6">
      <!-- 2017 -->
      <g transform="translate(395.052774 324.461937)scale(0.1 -0.1)">
       <use xlink:href="#DejaVuSans-32"/>
       <use x="63.623047" xlink:href="#DejaVuSans-30"/>
       <use x="127.246094" xlink:href="#DejaVuSans-31"/>
       <use x="190.869141" xlink:href="#DejaVuSans-37"/>
      </g>
     </g>
    </g>
    <g id="text_7">
     <!-- Date -->
     <defs>
      <path d="M 19.671875 64.796875 
L 19.671875 8.109375 
L 31.59375 8.109375 
Q 46.6875 8.109375 53.6875 14.9375 
Q 60.6875 21.78125 60.6875 36.53125 
Q 60.6875 51.171875 53.6875 57.984375 
Q 46.6875 64.796875 31.59375 64.796875 
z
M 9.8125 72.90625 
L 30.078125 72.90625 
Q 51.265625 72.90625 61.171875 64.09375 
Q 71.09375 55.28125 71.09375 36.53125 
Q 71.09375 17.671875 61.125 8.828125 
Q 51.171875 0 30.078125 0 
L 9.8125 0 
z
" id="DejaVuSans-44"/>
      <path d="M 34.28125 27.484375 
Q 23.390625 27.484375 19.1875 25 
Q 14.984375 22.515625 14.984375 16.5 
Q 14.984375 11.71875 18.140625 8.90625 
Q 21.296875 6.109375 26.703125 6.109375 
Q 34.1875 6.109375 38.703125 11.40625 
Q 43.21875 16.703125 43.21875 25.484375 
L 43.21875 27.484375 
z
M 52.203125 31.203125 
L 52.203125 0 
L 43.21875 0 
L 43.21875 8.296875 
Q 40.140625 3.328125 35.546875 0.953125 
Q 30.953125 -1.421875 24.3125 -1.421875 
Q 15.921875 -1.421875 10.953125 3.296875 
Q 6 8.015625 6 15.921875 
Q 6 25.140625 12.171875 29.828125 
Q 18.359375 34.515625 30.609375 34.515625 
L 43.21875 34.515625 
L 43.21875 35.40625 
Q 43.21875 41.609375 39.140625 45 
Q 35.0625 48.390625 27.6875 48.390625 
Q 23 48.390625 18.546875 47.265625 
Q 14.109375 46.140625 10.015625 43.890625 
L 10.015625 52.203125 
Q 14.9375 54.109375 19.578125 55.046875 
Q 24.21875 56 28.609375 56 
Q 40.484375 56 46.34375 49.84375 
Q 52.203125 43.703125 52.203125 31.203125 
z
" id="DejaVuSans-61"/>
      <path d="M 18.3125 70.21875 
L 18.3125 54.6875 
L 36.8125 54.6875 
L 36.8125 47.703125 
L 18.3125 47.703125 
L 18.3125 18.015625 
Q 18.3125 11.328125 20.140625 9.421875 
Q 21.96875 7.515625 27.59375 7.515625 
L 36.8125 7.515625 
L 36.8125 0 
L 27.59375 0 
Q 17.1875 0 13.234375 3.875 
Q 9.28125 7.765625 9.28125 18.015625 
L 9.28125 47.703125 
L 2.6875 47.703125 
L 2.6875 54.6875 
L 9.28125 54.6875 
L 9.28125 70.21875 
z
" id="DejaVuSans-74"/>
      <path d="M 56.203125 29.59375 
L 56.203125 25.203125 
L 14.890625 25.203125 
Q 15.484375 15.921875 20.484375 11.0625 
Q 25.484375 6.203125 34.421875 6.203125 
Q 39.59375 6.203125 44.453125 7.46875 
Q 49.3125 8.734375 54.109375 11.28125 
L 54.109375 2.78125 
Q 49.265625 0.734375 44.1875 -0.34375 
Q 39.109375 -1.421875 33.890625 -1.421875 
Q 20.796875 -1.421875 13.15625 6.1875 
Q 5.515625 13.8125 5.515625 26.8125 
Q 5.515625 40.234375 12.765625 48.109375 
Q 20.015625 56 32.328125 56 
Q 43.359375 56 49.78125 48.890625 
Q 56.203125 41.796875 56.203125 29.59375 
z
M 47.21875 32.234375 
Q 47.125 39.59375 43.09375 43.984375 
Q 39.0625 48.390625 32.421875 48.390625 
Q 24.90625 48.390625 20.390625 44.140625 
Q 15.875 39.890625 15.1875 32.171875 
z
" id="DejaVuSans-65"/>
     </defs>
     <g transform="translate(227.560719 338.140062)scale(0.1 -0.1)">
      <use xlink:href="#DejaVuSans-44"/>
      <use x="77.001953" xlink:href="#DejaVuSans-61"/>
      <use x="138.28125" xlink:href="#DejaVuSans-74"/>
      <use x="177.490234" xlink:href="#DejaVuSans-65"/>
     </g>
    </g>
   </g>
   <g id="matplotlib.axis_2">
    <g id="ytick_1">
     <g id="line2d_13">
      <path clip-path="url(#p3d52018876)" d="M 31.543 309.8635 
L 447.48 309.8635 
" style="fill:none;stroke:#b0b0b0;stroke-linecap:square;stroke-width:0.8;"/>
     </g>
     <g id="line2d_14">
      <defs>
       <path d="M 0 0 
L -3.5 0 
" id="md26353d25f" style="stroke:#000000;stroke-width:0.8;"/>
      </defs>
      <g>
       <use style="stroke:#000000;stroke-width:0.8;" x="31.543" xlink:href="#md26353d25f" y="309.8635"/>
      </g>
     </g>
     <g id="text_8">
      <!-- 0 -->
      <g transform="translate(18.1805 313.662719)scale(0.1 -0.1)">
       <use xlink:href="#DejaVuSans-30"/>
      </g>
     </g>
    </g>
    <g id="ytick_2">
     <g id="line2d_15">
      <path clip-path="url(#p3d52018876)" d="M 31.543 258.957592 
L 447.48 258.957592 
" style="fill:none;stroke:#b0b0b0;stroke-linecap:square;stroke-width:0.8;"/>
     </g>
     <g id="line2d_16">
      <g>
       <use style="stroke:#000000;stroke-width:0.8;" x="31.543" xlink:href="#md26353d25f" y="258.957592"/>
      </g>
     </g>
     <g id="text_9">
      <!-- 50 -->
      <g transform="translate(11.818 262.756811)scale(0.1 -0.1)">
       <use xlink:href="#DejaVuSans-35"/>
       <use x="63.623047" xlink:href="#DejaVuSans-30"/>
      </g>
     </g>
    </g>
    <g id="ytick_3">
     <g id="line2d_17">
      <path clip-path="url(#p3d52018876)" d="M 31.543 208.051684 
L 447.48 208.051684 
" style="fill:none;stroke:#b0b0b0;stroke-linecap:square;stroke-width:0.8;"/>
     </g>
     <g id="line2d_18">
      <g>
       <use style="stroke:#000000;stroke-width:0.8;" x="31.543" xlink:href="#md26353d25f" y="208.051684"/>
      </g>
     </g>
     <g id="text_10">
      <!-- 100 -->
      <g transform="translate(5.4555 211.850903)scale(0.1 -0.1)">
       <use xlink:href="#DejaVuSans-31"/>
       <use x="63.623047" xlink:href="#DejaVuSans-30"/>
       <use x="127.246094" xlink:href="#DejaVuSans-30"/>
      </g>
     </g>
    </g>
    <g id="ytick_4">
     <g id="line2d_19">
      <path clip-path="url(#p3d52018876)" d="M 31.543 157.145776 
L 447.48 157.145776 
" style="fill:none;stroke:#b0b0b0;stroke-linecap:square;stroke-width:0.8;"/>
     </g>
     <g id="line2d_20">
      <g>
       <use style="stroke:#000000;stroke-width:0.8;" x="31.543" xlink:href="#md26353d25f" y="157.145776"/>
      </g>
     </g>
     <g id="text_11">
      <!-- 150 -->
      <g transform="translate(5.4555 160.944995)scale(0.1 -0.1)">
       <use xlink:href="#DejaVuSans-31"/>
       <use x="63.623047" xlink:href="#DejaVuSans-35"/>
       <use x="127.246094" xlink:href="#DejaVuSans-30"/>
      </g>
     </g>
    </g>
    <g id="ytick_5">
     <g id="line2d_21">
      <path clip-path="url(#p3d52018876)" d="M 31.543 106.239868 
L 447.48 106.239868 
" style="fill:none;stroke:#b0b0b0;stroke-linecap:square;stroke-width:0.8;"/>
     </g>
     <g id="line2d_22">
      <g>
       <use style="stroke:#000000;stroke-width:0.8;" x="31.543" xlink:href="#md26353d25f" y="106.239868"/>
      </g>
     </g>
     <g id="text_12">
      <!-- 200 -->
      <g transform="translate(5.4555 110.039087)scale(0.1 -0.1)">
       <use xlink:href="#DejaVuSans-32"/>
       <use x="63.623047" xlink:href="#DejaVuSans-30"/>
       <use x="127.246094" xlink:href="#DejaVuSans-30"/>
      </g>
     </g>
    </g>
    <g id="ytick_6">
     <g id="line2d_23">
      <path clip-path="url(#p3d52018876)" d="M 31.543 55.33396 
L 447.48 55.33396 
" style="fill:none;stroke:#b0b0b0;stroke-linecap:square;stroke-width:0.8;"/>
     </g>
     <g id="line2d_24">
      <g>
       <use style="stroke:#000000;stroke-width:0.8;" x="31.543" xlink:href="#md26353d25f" y="55.33396"/>
      </g>
     </g>
     <g id="text_13">
      <!-- 250 -->
      <g transform="translate(5.4555 59.133179)scale(0.1 -0.1)">
       <use xlink:href="#DejaVuSans-32"/>
       <use x="63.623047" xlink:href="#DejaVuSans-35"/>
       <use x="127.246094" xlink:href="#DejaVuSans-30"/>
      </g>
     </g>
    </g>
   </g>
   <g id="line2d_25">
    <path clip-path="url(#p3d52018876)" d="M 31.543 309.8635 
L 42.779479 309.8635 
L 45.682236 148.491772 
L 48.491356 122.529759 
L 51.394113 124.565995 
L 54.29687 120.493522 
L 57.10599 122.529759 
L 60.008747 91.986214 
L 62.817867 89.949978 
L 65.720624 110.312341 
L 68.623381 309.8635 
L 71.245226 309.8635 
L 74.147983 108.276104 
L 76.957103 110.312341 
L 79.85986 111.839518 
L 82.66898 109.803282 
L 85.571737 87.404682 
L 88.474494 91.986214 
L 91.283614 104.203632 
L 94.186371 97.076805 
L 96.995491 110.312341 
L 99.898248 85.877505 
L 102.801005 89.949978 
L 105.516487 85.877505 
L 108.419244 63.478905 
L 111.228364 309.8635 
L 114.131121 120.493522 
L 116.940241 104.203632 
L 119.842998 93.004332 
L 122.745755 102.167396 
L 125.554875 104.203632 
L 128.457632 100.131159 
L 131.266752 104.203632 
L 134.169509 91.986214 
L 137.072266 108.785164 
L 139.694111 99.113041 
L 142.596868 116.42105 
L 145.405988 128.638468 
L 148.308745 102.167396 
L 151.117865 100.131159 
L 154.020622 87.404682 
L 156.923379 89.949978 
L 159.732499 87.913741 
L 162.635256 309.8635 
L 165.444376 87.913741 
L 168.347133 84.859387 
L 171.24989 89.949978 
L 173.871735 71.623851 
L 176.774492 76.714442 
L 179.583612 309.8635 
L 182.486369 309.8635 
L 185.295489 99.113041 
L 188.198246 85.877505 
L 191.101003 79.768796 
L 193.910122 83.841269 
L 196.81288 309.8635 
L 199.621999 91.986214 
L 202.524756 106.239868 
L 205.427514 113.366695 
L 208.049359 309.8635 
L 210.952116 210.08792 
L 213.761235 309.8635 
L 216.663993 309.8635 
L 219.473112 204.99733 
L 222.375869 106.239868 
L 225.278627 87.913741 
L 228.087746 309.8635 
L 230.990503 103.694573 
L 233.799623 89.949978 
L 236.70238 94.02245 
L 239.605137 79.768796 
L 242.32062 89.949978 
L 245.223377 126.602231 
L 248.032497 309.8635 
L 250.935254 110.312341 
L 253.744373 108.276104 
L 256.647131 89.949978 
L 259.549888 87.913741 
L 262.359007 90.459037 
L 265.261765 309.8635 
L 268.070884 191.761794 
L 270.973641 186.671203 
L 273.876398 91.986214 
L 276.498244 86.386564 
L 279.401001 107.257986 
L 282.21012 199.906739 
L 285.112878 309.8635 
L 287.921997 100.131159 
L 290.824754 91.986214 
L 293.727511 89.949978 
L 296.536631 309.8635 
L 299.439388 120.493522 
L 302.248508 89.949978 
L 305.151265 102.167396 
L 308.054022 94.02245 
L 310.675867 92.495273 
L 313.578624 112.348577 
L 316.387744 112.348577 
L 319.290501 190.743675 
L 322.099621 119.984463 
L 325.002378 102.167396 
L 327.905135 95.040568 
L 330.714255 190.234616 
L 333.617012 95.040568 
L 336.426132 100.131159 
L 342.231646 104.203632 
L 344.853491 100.131159 
L 347.756248 123.547877 
L 350.565368 108.276104 
L 353.468125 102.167396 
L 356.277245 102.167396 
L 359.180002 97.076805 
L 362.082759 100.131159 
L 364.891879 309.8635 
L 367.794636 91.986214 
L 370.603756 98.094923 
L 373.506513 94.02245 
L 376.40927 102.676455 
L 379.124752 197.870502 
L 382.027509 309.8635 
L 384.836629 203.979211 
L 387.739386 118.457286 
L 390.548506 100.131159 
L 393.451263 98.094923 
L 396.35402 108.276104 
L 399.16314 309.8635 
L 402.065897 204.99733 
L 404.875017 113.366695 
L 407.777774 194.816148 
L 410.680531 206.015448 
L 413.302376 207.033566 
L 416.205133 309.8635 
L 419.014253 309.8635 
L 421.91701 113.366695 
L 424.72613 105.22175 
L 427.628887 101.149277 
L 430.531644 100.131159 
L 433.340764 100.131159 
L 436.243521 99.6221 
L 439.052641 302.736673 
L 441.955398 204.99733 
L 444.858155 203.979211 
L 447.48 204.99733 
L 447.48 204.99733 
" style="fill:none;stroke:#1f77b4;stroke-linecap:square;stroke-width:1.5;"/>
   </g>
   <g id="patch_3">
    <path d="M 31.543 309.8635 
L 31.543 23.36505 
" style="fill:none;stroke:#000000;stroke-linecap:square;stroke-linejoin:miter;stroke-width:0.8;"/>
   </g>
   <g id="patch_4">
    <path d="M 447.48 309.8635 
L 447.48 23.36505 
" style="fill:none;stroke:#000000;stroke-linecap:square;stroke-linejoin:miter;stroke-width:0.8;"/>
   </g>
   <g id="patch_5">
    <path d="M 31.543 309.8635 
L 447.48 309.8635 
" style="fill:none;stroke:#000000;stroke-linecap:square;stroke-linejoin:miter;stroke-width:0.8;"/>
   </g>
   <g id="patch_6">
    <path d="M 31.543 23.36505 
L 447.48 23.36505 
" style="fill:none;stroke:#000000;stroke-linecap:square;stroke-linejoin:miter;stroke-width:0.8;"/>
   </g>
   <g id="text_14">
    <!-- Monthly gross load trend (MW) -->
    <defs>
     <path d="M 9.8125 72.90625 
L 24.515625 72.90625 
L 43.109375 23.296875 
L 61.8125 72.90625 
L 76.515625 72.90625 
L 76.515625 0 
L 66.890625 0 
L 66.890625 64.015625 
L 48.09375 14.015625 
L 38.1875 14.015625 
L 19.390625 64.015625 
L 19.390625 0 
L 9.8125 0 
z
" id="DejaVuSans-4d"/>
     <path d="M 30.609375 48.390625 
Q 23.390625 48.390625 19.1875 42.75 
Q 14.984375 37.109375 14.984375 27.296875 
Q 14.984375 17.484375 19.15625 11.84375 
Q 23.34375 6.203125 30.609375 6.203125 
Q 37.796875 6.203125 41.984375 11.859375 
Q 46.1875 17.53125 46.1875 27.296875 
Q 46.1875 37.015625 41.984375 42.703125 
Q 37.796875 48.390625 30.609375 48.390625 
z
M 30.609375 56 
Q 42.328125 56 49.015625 48.375 
Q 55.71875 40.765625 55.71875 27.296875 
Q 55.71875 13.875 49.015625 6.21875 
Q 42.328125 -1.421875 30.609375 -1.421875 
Q 18.84375 -1.421875 12.171875 6.21875 
Q 5.515625 13.875 5.515625 27.296875 
Q 5.515625 40.765625 12.171875 48.375 
Q 18.84375 56 30.609375 56 
z
" id="DejaVuSans-6f"/>
     <path d="M 54.890625 33.015625 
L 54.890625 0 
L 45.90625 0 
L 45.90625 32.71875 
Q 45.90625 40.484375 42.875 44.328125 
Q 39.84375 48.1875 33.796875 48.1875 
Q 26.515625 48.1875 22.3125 43.546875 
Q 18.109375 38.921875 18.109375 30.90625 
L 18.109375 0 
L 9.078125 0 
L 9.078125 54.6875 
L 18.109375 54.6875 
L 18.109375 46.1875 
Q 21.34375 51.125 25.703125 53.5625 
Q 30.078125 56 35.796875 56 
Q 45.21875 56 50.046875 50.171875 
Q 54.890625 44.34375 54.890625 33.015625 
z
" id="DejaVuSans-6e"/>
     <path d="M 54.890625 33.015625 
L 54.890625 0 
L 45.90625 0 
L 45.90625 32.71875 
Q 45.90625 40.484375 42.875 44.328125 
Q 39.84375 48.1875 33.796875 48.1875 
Q 26.515625 48.1875 22.3125 43.546875 
Q 18.109375 38.921875 18.109375 30.90625 
L 18.109375 0 
L 9.078125 0 
L 9.078125 75.984375 
L 18.109375 75.984375 
L 18.109375 46.1875 
Q 21.34375 51.125 25.703125 53.5625 
Q 30.078125 56 35.796875 56 
Q 45.21875 56 50.046875 50.171875 
Q 54.890625 44.34375 54.890625 33.015625 
z
" id="DejaVuSans-68"/>
     <path d="M 9.421875 75.984375 
L 18.40625 75.984375 
L 18.40625 0 
L 9.421875 0 
z
" id="DejaVuSans-6c"/>
     <path d="M 32.171875 -5.078125 
Q 28.375 -14.84375 24.75 -17.8125 
Q 21.140625 -20.796875 15.09375 -20.796875 
L 7.90625 -20.796875 
L 7.90625 -13.28125 
L 13.1875 -13.28125 
Q 16.890625 -13.28125 18.9375 -11.515625 
Q 21 -9.765625 23.484375 -3.21875 
L 25.09375 0.875 
L 2.984375 54.6875 
L 12.5 54.6875 
L 29.59375 11.921875 
L 46.6875 54.6875 
L 56.203125 54.6875 
z
" id="DejaVuSans-79"/>
     <path id="DejaVuSans-20"/>
     <path d="M 45.40625 27.984375 
Q 45.40625 37.75 41.375 43.109375 
Q 37.359375 48.484375 30.078125 48.484375 
Q 22.859375 48.484375 18.828125 43.109375 
Q 14.796875 37.75 14.796875 27.984375 
Q 14.796875 18.265625 18.828125 12.890625 
Q 22.859375 7.515625 30.078125 7.515625 
Q 37.359375 7.515625 41.375 12.890625 
Q 45.40625 18.265625 45.40625 27.984375 
z
M 54.390625 6.78125 
Q 54.390625 -7.171875 48.1875 -13.984375 
Q 42 -20.796875 29.203125 -20.796875 
Q 24.46875 -20.796875 20.265625 -20.09375 
Q 16.0625 -19.390625 12.109375 -17.921875 
L 12.109375 -9.1875 
Q 16.0625 -11.328125 19.921875 -12.34375 
Q 23.78125 -13.375 27.78125 -13.375 
Q 36.625 -13.375 41.015625 -8.765625 
Q 45.40625 -4.15625 45.40625 5.171875 
L 45.40625 9.625 
Q 42.625 4.78125 38.28125 2.390625 
Q 33.9375 0 27.875 0 
Q 17.828125 0 11.671875 7.65625 
Q 5.515625 15.328125 5.515625 27.984375 
Q 5.515625 40.671875 11.671875 48.328125 
Q 17.828125 56 27.875 56 
Q 33.9375 56 38.28125 53.609375 
Q 42.625 51.21875 45.40625 46.390625 
L 45.40625 54.6875 
L 54.390625 54.6875 
z
" id="DejaVuSans-67"/>
     <path d="M 41.109375 46.296875 
Q 39.59375 47.171875 37.8125 47.578125 
Q 36.03125 48 33.890625 48 
Q 26.265625 48 22.1875 43.046875 
Q 18.109375 38.09375 18.109375 28.8125 
L 18.109375 0 
L 9.078125 0 
L 9.078125 54.6875 
L 18.109375 54.6875 
L 18.109375 46.1875 
Q 20.953125 51.171875 25.484375 53.578125 
Q 30.03125 56 36.53125 56 
Q 37.453125 56 38.578125 55.875 
Q 39.703125 55.765625 41.0625 55.515625 
z
" id="DejaVuSans-72"/>
     <path d="M 44.28125 53.078125 
L 44.28125 44.578125 
Q 40.484375 46.53125 36.375 47.5 
Q 32.28125 48.484375 27.875 48.484375 
Q 21.1875 48.484375 17.84375 46.4375 
Q 14.5 44.390625 14.5 40.28125 
Q 14.5 37.15625 16.890625 35.375 
Q 19.28125 33.59375 26.515625 31.984375 
L 29.59375 31.296875 
Q 39.15625 29.25 43.1875 25.515625 
Q 47.21875 21.78125 47.21875 15.09375 
Q 47.21875 7.46875 41.1875 3.015625 
Q 35.15625 -1.421875 24.609375 -1.421875 
Q 20.21875 -1.421875 15.453125 -0.5625 
Q 10.6875 0.296875 5.421875 2 
L 5.421875 11.28125 
Q 10.40625 8.6875 15.234375 7.390625 
Q 20.0625 6.109375 24.8125 6.109375 
Q 31.15625 6.109375 34.5625 8.28125 
Q 37.984375 10.453125 37.984375 14.40625 
Q 37.984375 18.0625 35.515625 20.015625 
Q 33.0625 21.96875 24.703125 23.78125 
L 21.578125 24.515625 
Q 13.234375 26.265625 9.515625 29.90625 
Q 5.8125 33.546875 5.8125 39.890625 
Q 5.8125 47.609375 11.28125 51.796875 
Q 16.75 56 26.8125 56 
Q 31.78125 56 36.171875 55.265625 
Q 40.578125 54.546875 44.28125 53.078125 
z
" id="DejaVuSans-73"/>
     <path d="M 45.40625 46.390625 
L 45.40625 75.984375 
L 54.390625 75.984375 
L 54.390625 0 
L 45.40625 0 
L 45.40625 8.203125 
Q 42.578125 3.328125 38.25 0.953125 
Q 33.9375 -1.421875 27.875 -1.421875 
Q 17.96875 -1.421875 11.734375 6.484375 
Q 5.515625 14.40625 5.515625 27.296875 
Q 5.515625 40.1875 11.734375 48.09375 
Q 17.96875 56 27.875 56 
Q 33.9375 56 38.25 53.625 
Q 42.578125 51.265625 45.40625 46.390625 
z
M 14.796875 27.296875 
Q 14.796875 17.390625 18.875 11.75 
Q 22.953125 6.109375 30.078125 6.109375 
Q 37.203125 6.109375 41.296875 11.75 
Q 45.40625 17.390625 45.40625 27.296875 
Q 45.40625 37.203125 41.296875 42.84375 
Q 37.203125 48.484375 30.078125 48.484375 
Q 22.953125 48.484375 18.875 42.84375 
Q 14.796875 37.203125 14.796875 27.296875 
z
" id="DejaVuSans-64"/>
     <path d="M 31 75.875 
Q 24.46875 64.65625 21.28125 53.65625 
Q 18.109375 42.671875 18.109375 31.390625 
Q 18.109375 20.125 21.3125 9.0625 
Q 24.515625 -2 31 -13.1875 
L 23.1875 -13.1875 
Q 15.875 -1.703125 12.234375 9.375 
Q 8.59375 20.453125 8.59375 31.390625 
Q 8.59375 42.28125 12.203125 53.3125 
Q 15.828125 64.359375 23.1875 75.875 
z
" id="DejaVuSans-28"/>
     <path d="M 3.328125 72.90625 
L 13.28125 72.90625 
L 28.609375 11.28125 
L 43.890625 72.90625 
L 54.984375 72.90625 
L 70.3125 11.28125 
L 85.59375 72.90625 
L 95.609375 72.90625 
L 77.296875 0 
L 64.890625 0 
L 49.515625 63.28125 
L 33.984375 0 
L 21.578125 0 
z
" id="DejaVuSans-57"/>
     <path d="M 8.015625 75.875 
L 15.828125 75.875 
Q 23.140625 64.359375 26.78125 53.3125 
Q 30.421875 42.28125 30.421875 31.390625 
Q 30.421875 20.453125 26.78125 9.375 
Q 23.140625 -1.703125 15.828125 -13.1875 
L 8.015625 -13.1875 
Q 14.5 -2 17.703125 9.0625 
Q 20.90625 20.125 20.90625 31.390625 
Q 20.90625 42.671875 17.703125 53.65625 
Q 14.5 64.65625 8.015625 75.875 
z
" id="DejaVuSans-29"/>
    </defs>
    <g transform="translate(146.928688 17.36505)scale(0.12 -0.12)">
     <use xlink:href="#DejaVuSans-4d"/>
     <use x="86.279297" xlink:href="#DejaVuSans-6f"/>
     <use x="147.460938" xlink:href="#DejaVuSans-6e"/>
     <use x="210.839844" xlink:href="#DejaVuSans-74"/>
     <use x="250.048828" xlink:href="#DejaVuSans-68"/>
     <use x="313.427734" xlink:href="#DejaVuSans-6c"/>
     <use x="341.210938" xlink:href="#DejaVuSans-79"/>
     <use x="400.390625" xlink:href="#DejaVuSans-20"/>
     <use x="432.177734" xlink:href="#DejaVuSans-67"/>
     <use x="495.654297" xlink:href="#DejaVuSans-72"/>
     <use x="536.736328" xlink:href="#DejaVuSans-6f"/>
     <use x="597.917969" xlink:href="#DejaVuSans-73"/>
     <use x="650.017578" xlink:href="#DejaVuSans-73"/>
     <use x="702.117188" xlink:href="#DejaVuSans-20"/>
     <use x="733.904297" xlink:href="#DejaVuSans-6c"/>
     <use x="761.6875" xlink:href="#DejaVuSans-6f"/>
     <use x="822.869141" xlink:href="#DejaVuSans-61"/>
     <use x="884.148438" xlink:href="#DejaVuSans-64"/>
     <use x="947.625" xlink:href="#DejaVuSans-20"/>
     <use x="979.412109" xlink:href="#DejaVuSans-74"/>
     <use x="1018.621094" xlink:href="#DejaVuSans-72"/>
     <use x="1059.703125" xlink:href="#DejaVuSans-65"/>
     <use x="1121.226562" xlink:href="#DejaVuSans-6e"/>
     <use x="1184.605469" xlink:href="#DejaVuSans-64"/>
     <use x="1248.082031" xlink:href="#DejaVuSans-20"/>
     <use x="1279.869141" xlink:href="#DejaVuSans-28"/>
     <use x="1318.882812" xlink:href="#DejaVuSans-4d"/>
     <use x="1405.162109" xlink:href="#DejaVuSans-57"/>
     <use x="1504.039062" xlink:href="#DejaVuSans-29"/>
    </g>
   </g>
  </g>
 </g>
 <defs>
  <clipPath id="p3d52018876">
   <rect height="286.49845" width="415.937" x="31.543" y="23.36505"/>
  </clipPath>
 </defs>
</svg>
