<?xml version="1.0" encoding="utf-8" standalone="no"?>
<!DOCTYPE svg PUBLIC "-//W3C//DTD SVG 1.1//EN"
  "http://www.w3.org/Graphics/SVG/1.1/DTD/svg11.dtd">
<!-- Created with matplotlib (http://matplotlib.org/) -->
<svg height="345.6pt" version="1.1" viewBox="0 0 460.8 345.6" width="460.8pt" xmlns="http://www.w3.org/2000/svg" xmlns:xlink="http://www.w3.org/1999/xlink">
 <defs>
  <style type="text/css">
*{stroke-linecap:butt;stroke-linejoin:round;}
  </style>
 </defs>
 <g id="figure_1">
  <g id="patch_1">
   <path d="M 0 345.6 
L 460.8 345.6 
L 460.8 0 
L 0 0 
z
" style="fill:none;"/>
  </g>
  <g id="axes_1">
   <g id="patch_2">
    <path d="M 31.543 309.8635 
L 447.48 309.8635 
L 447.48 23.36505 
L 31.543 23.36505 
z
" style="fill:none;"/>
   </g>
   <g id="PolyCollection_1">
    <path clip-path="url(#p44991fb67e)" d="M 31.543 309.8635 
L 31.543 309.8635 
L 34.505106 309.8635 
L 37.37166 309.8635 
L 40.333766 309.8635 
L 43.295872 309.8635 
L 46.162426 309.8635 
L 49.124532 309.8635 
L 51.991086 309.8635 
L 54.953192 309.8635 
L 57.915298 309.8635 
L 60.590748 309.8635 
L 63.552854 309.8635 
L 66.419408 309.8635 
L 69.381514 309.8635 
L 72.248068 309.8635 
L 75.210174 309.8635 
L 78.17228 309.8635 
L 81.038834 309.8635 
L 84.00094 309.8635 
L 86.867494 309.8635 
L 89.8296 309.8635 
L 92.791706 309.8635 
L 95.562708 309.8635 
L 98.524814 309.8635 
L 101.391368 309.8635 
L 104.353474 309.8635 
L 107.220028 309.8635 
L 110.182134 309.8635 
L 113.14424 309.8635 
L 116.010794 309.8635 
L 118.9729 309.8635 
L 121.839454 309.8635 
L 124.80156 309.8635 
L 127.763666 309.8635 
L 130.439116 309.8635 
L 133.401222 309.8635 
L 136.267776 309.8635 
L 139.229882 309.8635 
L 142.096436 309.8635 
L 145.058542 309.8635 
L 148.020648 309.8635 
L 150.887202 309.8635 
L 153.849308 309.8635 
L 156.715862 309.8635 
L 159.677968 309.8635 
L 162.640074 309.8635 
L 165.315525 309.8635 
L 168.277631 309.8635 
L 171.144185 309.8635 
L 174.106291 309.8635 
L 176.972845 309.8635 
L 179.934951 309.8635 
L 182.897057 309.8635 
L 185.763611 309.8635 
L 188.725717 309.8635 
L 191.592271 309.8635 
L 194.554377 309.8635 
L 197.516482 309.8635 
L 200.191933 309.8635 
L 203.154039 309.8635 
L 206.020593 309.8635 
L 208.982699 309.8635 
L 211.849253 309.8635 
L 214.811359 309.8635 
L 217.773465 309.8635 
L 220.640019 309.8635 
L 223.602125 309.8635 
L 226.468679 309.8635 
L 229.430785 309.8635 
L 232.392891 309.8635 
L 235.163893 309.8635 
L 238.125999 309.8635 
L 240.992553 309.8635 
L 243.954659 309.8635 
L 246.821213 309.8635 
L 249.783319 309.8635 
L 252.745425 309.8635 
L 255.611979 309.8635 
L 258.574085 309.8635 
L 261.440639 309.8635 
L 264.402745 309.8635 
L 267.364851 309.8635 
L 270.040301 309.8635 
L 273.002407 309.8635 
L 275.868961 309.8635 
L 278.831067 309.8635 
L 281.697621 309.8635 
L 284.659727 309.8635 
L 287.621833 309.8635 
L 290.488387 309.8635 
L 293.450493 309.8635 
L 296.317047 309.8635 
L 299.279153 309.8635 
L 302.241259 309.8635 
L 304.916709 309.8635 
L 307.878815 309.8635 
L 310.745369 309.8635 
L 313.707475 309.8635 
L 316.574029 309.8635 
L 319.536135 309.8635 
L 322.498241 309.8635 
L 325.364795 309.8635 
L 328.326901 309.8635 
L 331.193455 309.8635 
L 334.155561 309.8635 
L 337.117667 309.8635 
L 339.793118 309.8635 
L 342.755224 309.8635 
L 345.621778 309.8635 
L 348.583884 309.8635 
L 351.450438 309.8635 
L 354.412544 309.8635 
L 357.374649 309.8635 
L 360.241204 309.8635 
L 363.203309 309.8635 
L 366.069864 309.8635 
L 369.031969 309.8635 
L 371.994075 309.8635 
L 374.765078 309.8635 
L 377.727184 309.8635 
L 380.593738 309.8635 
L 383.555844 309.8635 
L 386.422398 309.8635 
L 389.384504 309.8635 
L 392.346609 309.8635 
L 395.213164 309.8635 
L 398.175269 309.8635 
L 401.041824 309.8635 
L 404.003929 309.8635 
L 406.966035 309.8635 
L 409.641486 309.8635 
L 412.603592 309.8635 
L 415.470146 309.8635 
L 418.432252 309.8635 
L 421.298806 309.8635 
L 424.260912 309.8635 
L 427.223018 309.8635 
L 430.089572 309.8635 
L 433.051678 309.8635 
L 435.918232 309.8635 
L 438.880338 309.8635 
L 441.842444 309.8635 
L 444.517894 309.8635 
L 447.48 309.8635 
L 447.48 108.246012 
L 447.48 108.246012 
L 444.517894 49.104883 
L 441.842444 39.696067 
L 438.880338 132.440111 
L 435.918232 174.107725 
L 433.051678 41.040183 
L 430.089572 46.416649 
L 427.223018 41.040183 
L 424.260912 108.246012 
L 421.298806 41.040183 
L 418.432252 46.416649 
L 415.470146 129.751878 
L 412.603592 41.040183 
L 409.641486 113.622479 
L 406.966035 114.966595 
L 404.003929 67.922515 
L 401.041824 180.828308 
L 398.175269 67.922515 
L 395.213164 41.040183 
L 392.346609 39.696067 
L 389.384504 38.35195 
L 386.422398 37.007833 
L 383.555844 121.687178 
L 380.593738 123.031295 
L 377.727184 192.925357 
L 374.765078 206.366523 
L 371.994075 163.354792 
L 369.031969 186.204774 
L 366.069864 192.925357 
L 363.203309 42.3843 
L 360.241204 41.040183 
L 357.374649 38.35195 
L 354.412544 39.696067 
L 351.450438 38.35195 
L 348.583884 248.034137 
L 345.621778 191.581241 
L 342.755224 75.987214 
L 339.793118 152.60186 
L 337.117667 110.934245 
L 334.155561 58.513699 
L 331.193455 179.484191 
L 328.326901 98.837196 
L 325.364795 42.3843 
L 322.498241 200.990057 
L 319.536135 39.696067 
L 316.574029 73.298981 
L 313.707475 41.040183 
L 310.745369 45.072533 
L 307.878815 86.740147 
L 304.916709 41.040183 
L 302.241259 192.925357 
L 299.279153 123.031295 
L 296.317047 203.67829 
L 293.450493 241.313554 
L 290.488387 47.760766 
L 287.621833 41.040183 
L 284.659727 41.040183 
L 281.697621 50.448999 
L 278.831067 174.107725 
L 275.868961 182.172424 
L 273.002407 210.398873 
L 270.040301 207.71064 
L 267.364851 187.548891 
L 264.402745 242.657671 
L 261.440639 180.828308 
L 258.574085 41.040183 
L 255.611979 43.728416 
L 252.745425 41.040183 
L 249.783319 37.007833 
L 246.821213 200.990057 
L 243.954659 137.816577 
L 240.992553 113.622479 
L 238.125999 264.163536 
L 235.163893 225.184155 
L 232.392891 309.8635 
L 229.430785 229.216505 
L 226.468679 163.354792 
L 223.602125 171.419492 
L 220.640019 50.448999 
L 217.773465 84.051914 
L 214.811359 50.448999 
L 211.849253 42.3843 
L 208.982699 182.172424 
L 206.020593 209.054756 
L 203.154039 131.095994 
L 200.191933 135.128344 
L 197.516482 203.67829 
L 194.554377 241.313554 
L 191.592271 241.313554 
L 188.725717 237.281204 
L 185.763611 176.795958 
L 182.897057 176.795958 
L 179.934951 176.795958 
L 176.972845 269.540002 
L 174.106291 249.378254 
L 171.144185 252.066487 
L 168.277631 260.131186 
L 165.315525 242.657671 
L 162.640074 241.313554 
L 159.677968 207.71064 
L 156.715862 242.657671 
L 153.849308 179.484191 
L 150.887202 175.451842 
L 148.020648 241.313554 
L 145.058542 241.313554 
L 142.096436 256.098837 
L 139.229882 178.140075 
L 136.267776 242.657671 
L 133.401222 210.398873 
L 130.439116 242.657671 
L 127.763666 249.378254 
L 124.80156 245.345904 
L 121.839454 175.451842 
L 118.9729 176.795958 
L 116.010794 175.451842 
L 113.14424 175.451842 
L 110.182134 180.828308 
L 107.220028 175.451842 
L 104.353474 191.581241 
L 101.391368 174.107725 
L 98.524814 172.763608 
L 95.562708 242.657671 
L 92.791706 174.107725 
L 89.8296 246.690021 
L 86.867494 196.957707 
L 84.00094 174.107725 
L 81.038834 214.431222 
L 78.17228 175.451842 
L 75.210174 175.451842 
L 72.248068 174.107725 
L 69.381514 187.548891 
L 66.419408 175.451842 
L 63.552854 225.184155 
L 60.590748 176.795958 
L 57.915298 254.75472 
L 54.953192 195.61359 
L 51.991086 175.451842 
L 49.124532 175.451842 
L 46.162426 174.107725 
L 43.295872 174.107725 
L 40.333766 174.107725 
L 37.37166 174.107725 
L 34.505106 174.107725 
L 31.543 309.8635 
z
" style="fill:#808080;fill-opacity:0.3;"/>
   </g>
   <g id="PolyCollection_2">
    <path clip-path="url(#p44991fb67e)" d="M 31.543 309.8635 
L 31.543 309.8635 
L 34.505106 309.8635 
L 37.37166 309.8635 
L 40.333766 309.8635 
L 43.295872 309.8635 
L 46.162426 309.8635 
L 49.124532 309.8635 
L 51.991086 309.8635 
L 54.953192 309.8635 
L 57.915298 309.8635 
L 60.590748 309.8635 
L 63.552854 309.8635 
L 66.419408 309.8635 
L 69.381514 309.8635 
L 72.248068 309.8635 
L 75.210174 309.8635 
L 78.17228 309.8635 
L 81.038834 309.8635 
L 84.00094 309.8635 
L 86.867494 309.8635 
L 89.8296 309.8635 
L 92.791706 309.8635 
L 95.562708 309.8635 
L 98.524814 309.8635 
L 101.391368 309.8635 
L 104.353474 309.8635 
L 107.220028 309.8635 
L 110.182134 309.8635 
L 113.14424 309.8635 
L 116.010794 309.8635 
L 118.9729 309.8635 
L 121.839454 309.8635 
L 124.80156 309.8635 
L 127.763666 309.8635 
L 130.439116 309.8635 
L 133.401222 309.8635 
L 136.267776 309.8635 
L 139.229882 309.8635 
L 142.096436 309.8635 
L 145.058542 309.8635 
L 148.020648 309.8635 
L 150.887202 309.8635 
L 153.849308 309.8635 
L 156.715862 309.8635 
L 159.677968 309.8635 
L 162.640074 309.8635 
L 165.315525 309.8635 
L 168.277631 309.8635 
L 171.144185 309.8635 
L 174.106291 309.8635 
L 176.972845 309.8635 
L 179.934951 309.8635 
L 182.897057 309.8635 
L 185.763611 309.8635 
L 188.725717 309.8635 
L 191.592271 309.8635 
L 194.554377 309.8635 
L 197.516482 309.8635 
L 200.191933 309.8635 
L 203.154039 309.8635 
L 206.020593 309.8635 
L 208.982699 309.8635 
L 211.849253 309.8635 
L 214.811359 309.8635 
L 217.773465 309.8635 
L 220.640019 309.8635 
L 223.602125 309.8635 
L 226.468679 309.8635 
L 229.430785 309.8635 
L 232.392891 309.8635 
L 235.163893 309.8635 
L 238.125999 309.8635 
L 240.992553 309.8635 
L 243.954659 309.8635 
L 246.821213 309.8635 
L 249.783319 309.8635 
L 252.745425 309.8635 
L 255.611979 309.8635 
L 258.574085 309.8635 
L 261.440639 309.8635 
L 264.402745 309.8635 
L 267.364851 309.8635 
L 270.040301 309.8635 
L 273.002407 309.8635 
L 275.868961 309.8635 
L 278.831067 309.8635 
L 281.697621 309.8635 
L 284.659727 309.8635 
L 287.621833 309.8635 
L 290.488387 309.8635 
L 293.450493 309.8635 
L 296.317047 309.8635 
L 299.279153 309.8635 
L 302.241259 309.8635 
L 304.916709 309.8635 
L 307.878815 309.8635 
L 310.745369 309.8635 
L 313.707475 309.8635 
L 316.574029 309.8635 
L 319.536135 309.8635 
L 322.498241 309.8635 
L 325.364795 309.8635 
L 328.326901 309.8635 
L 331.193455 309.8635 
L 334.155561 309.8635 
L 337.117667 309.8635 
L 339.793118 309.8635 
L 342.755224 309.8635 
L 345.621778 309.8635 
L 348.583884 309.8635 
L 351.450438 309.8635 
L 354.412544 309.8635 
L 357.374649 309.8635 
L 360.241204 309.8635 
L 363.203309 309.8635 
L 366.069864 309.8635 
L 369.031969 309.8635 
L 371.994075 309.8635 
L 374.765078 309.8635 
L 377.727184 309.8635 
L 380.593738 309.8635 
L 383.555844 309.8635 
L 386.422398 309.8635 
L 389.384504 309.8635 
L 392.346609 309.8635 
L 395.213164 309.8635 
L 398.175269 309.8635 
L 401.041824 309.8635 
L 404.003929 309.8635 
L 406.966035 309.8635 
L 409.641486 309.8635 
L 412.603592 309.8635 
L 415.470146 309.8635 
L 418.432252 309.8635 
L 421.298806 309.8635 
L 424.260912 309.8635 
L 427.223018 309.8635 
L 430.089572 309.8635 
L 433.051678 309.8635 
L 435.918232 309.8635 
L 438.880338 309.8635 
L 441.842444 309.8635 
L 444.517894 309.8635 
L 447.48 309.8635 
L 447.48 309.8635 
L 447.48 309.8635 
L 444.517894 309.8635 
L 441.842444 309.8635 
L 438.880338 309.8635 
L 435.918232 283.989256 
L 433.051678 282.981168 
L 430.089572 309.8635 
L 427.223018 309.8635 
L 424.260912 309.8635 
L 421.298806 309.8635 
L 418.432252 309.8635 
L 415.470146 309.8635 
L 412.603592 306.839238 
L 409.641486 309.8635 
L 406.966035 309.8635 
L 404.003929 309.8635 
L 401.041824 309.8635 
L 398.175269 309.8635 
L 395.213164 309.8635 
L 392.346609 309.8635 
L 389.384504 309.527471 
L 386.422398 309.8635 
L 383.555844 309.8635 
L 380.593738 309.8635 
L 377.727184 309.8635 
L 374.765078 309.8635 
L 371.994075 309.8635 
L 369.031969 309.8635 
L 366.069864 309.8635 
L 363.203309 309.8635 
L 360.241204 309.8635 
L 357.374649 309.8635 
L 354.412544 309.8635 
L 351.450438 309.8635 
L 348.583884 309.8635 
L 345.621778 309.8635 
L 342.755224 309.8635 
L 339.793118 284.325285 
L 337.117667 309.8635 
L 334.155561 309.8635 
L 331.193455 309.8635 
L 328.326901 309.8635 
L 325.364795 309.8635 
L 322.498241 309.8635 
L 319.536135 309.8635 
L 316.574029 309.8635 
L 313.707475 309.8635 
L 310.745369 246.690021 
L 307.878815 309.8635 
L 304.916709 309.8635 
L 302.241259 309.8635 
L 299.279153 309.8635 
L 296.317047 309.8635 
L 293.450493 309.8635 
L 290.488387 309.8635 
L 287.621833 309.8635 
L 284.659727 309.8635 
L 281.697621 309.8635 
L 278.831067 309.8635 
L 275.868961 309.8635 
L 273.002407 309.8635 
L 270.040301 309.8635 
L 267.364851 309.8635 
L 264.402745 309.8635 
L 261.440639 309.8635 
L 258.574085 309.8635 
L 255.611979 291.045868 
L 252.745425 249.378254 
L 249.783319 266.851769 
L 246.821213 309.8635 
L 243.954659 309.8635 
L 240.992553 309.8635 
L 238.125999 309.8635 
L 235.163893 309.8635 
L 232.392891 309.8635 
L 229.430785 309.8635 
L 226.468679 309.8635 
L 223.602125 309.8635 
L 220.640019 309.8635 
L 217.773465 309.8635 
L 214.811359 309.8635 
L 211.849253 309.8635 
L 208.982699 309.8635 
L 206.020593 309.8635 
L 203.154039 309.8635 
L 200.191933 309.8635 
L 197.516482 309.8635 
L 194.554377 309.8635 
L 191.592271 309.8635 
L 188.725717 309.8635 
L 185.763611 309.8635 
L 182.897057 309.8635 
L 179.934951 309.8635 
L 176.972845 309.8635 
L 174.106291 309.8635 
L 171.144185 309.8635 
L 168.277631 309.8635 
L 165.315525 309.8635 
L 162.640074 309.8635 
L 159.677968 309.8635 
L 156.715862 309.8635 
L 153.849308 309.8635 
L 150.887202 309.8635 
L 148.020648 309.8635 
L 145.058542 309.8635 
L 142.096436 309.8635 
L 139.229882 309.8635 
L 136.267776 309.8635 
L 133.401222 309.8635 
L 130.439116 309.8635 
L 127.763666 309.8635 
L 124.80156 309.8635 
L 121.839454 309.8635 
L 118.9729 309.8635 
L 116.010794 237.953263 
L 113.14424 274.916469 
L 110.182134 309.8635 
L 107.220028 309.8635 
L 104.353474 309.8635 
L 101.391368 309.8635 
L 98.524814 309.8635 
L 95.562708 309.8635 
L 92.791706 309.8635 
L 89.8296 309.8635 
L 86.867494 309.8635 
L 84.00094 309.8635 
L 81.038834 309.8635 
L 78.17228 309.8635 
L 75.210174 309.8635 
L 72.248068 309.8635 
L 69.381514 309.8635 
L 66.419408 309.8635 
L 63.552854 309.8635 
L 60.590748 309.8635 
L 57.915298 309.8635 
L 54.953192 309.8635 
L 51.991086 309.8635 
L 49.124532 309.8635 
L 46.162426 309.8635 
L 43.295872 309.8635 
L 40.333766 242.657671 
L 37.37166 309.8635 
L 34.505106 309.8635 
L 31.543 309.8635 
z
" style="fill:#808080;fill-opacity:0.6;"/>
   </g>
   <g id="matplotlib.axis_1">
    <g id="xtick_1">
     <g id="line2d_1">
      <path clip-path="url(#p44991fb67e)" d="M 89.925152 309.8635 
L 89.925152 23.36505 
" style="fill:none;stroke:#b0b0b0;stroke-linecap:square;stroke-width:0.8;"/>
     </g>
     <g id="line2d_2">
      <defs>
       <path d="M 0 0 
L 0 3.5 
" id="m86475db49e" style="stroke:#000000;stroke-width:0.8;"/>
      </defs>
      <g>
       <use style="stroke:#000000;stroke-width:0.8;" x="89.925152" xlink:href="#m86475db49e" y="309.8635"/>
      </g>
     </g>
     <g id="text_1">
      <!-- 2008 -->
      <defs>
       <path d="M 19.1875 8.296875 
L 53.609375 8.296875 
L 53.609375 0 
L 7.328125 0 
L 7.328125 8.296875 
Q 12.9375 14.109375 22.625 23.890625 
Q 32.328125 33.6875 34.8125 36.53125 
Q 39.546875 41.84375 41.421875 45.53125 
Q 43.3125 49.21875 43.3125 52.78125 
Q 43.3125 58.59375 39.234375 62.25 
Q 35.15625 65.921875 28.609375 65.921875 
Q 23.96875 65.921875 18.8125 64.3125 
Q 13.671875 62.703125 7.8125 59.421875 
L 7.8125 69.390625 
Q 13.765625 71.78125 18.9375 73 
Q 24.125 74.21875 28.421875 74.21875 
Q 39.75 74.21875 46.484375 68.546875 
Q 53.21875 62.890625 53.21875 53.421875 
Q 53.21875 48.921875 51.53125 44.890625 
Q 49.859375 40.875 45.40625 35.40625 
Q 44.1875 33.984375 37.640625 27.21875 
Q 31.109375 20.453125 19.1875 8.296875 
z
" id="DejaVuSans-32"/>
       <path d="M 31.78125 66.40625 
Q 24.171875 66.40625 20.328125 58.90625 
Q 16.5 51.421875 16.5 36.375 
Q 16.5 21.390625 20.328125 13.890625 
Q 24.171875 6.390625 31.78125 6.390625 
Q 39.453125 6.390625 43.28125 13.890625 
Q 47.125 21.390625 47.125 36.375 
Q 47.125 51.421875 43.28125 58.90625 
Q 39.453125 66.40625 31.78125 66.40625 
z
M 31.78125 74.21875 
Q 44.046875 74.21875 50.515625 64.515625 
Q 56.984375 54.828125 56.984375 36.375 
Q 56.984375 17.96875 50.515625 8.265625 
Q 44.046875 -1.421875 31.78125 -1.421875 
Q 19.53125 -1.421875 13.0625 8.265625 
Q 6.59375 17.96875 6.59375 36.375 
Q 6.59375 54.828125 13.0625 64.515625 
Q 19.53125 74.21875 31.78125 74.21875 
z
" id="DejaVuSans-30"/>
       <path d="M 31.78125 34.625 
Q 24.75 34.625 20.71875 30.859375 
Q 16.703125 27.09375 16.703125 20.515625 
Q 16.703125 13.921875 20.71875 10.15625 
Q 24.75 6.390625 31.78125 6.390625 
Q 38.8125 6.390625 42.859375 10.171875 
Q 46.921875 13.96875 46.921875 20.515625 
Q 46.921875 27.09375 42.890625 30.859375 
Q 38.875 34.625 31.78125 34.625 
z
M 21.921875 38.8125 
Q 15.578125 40.375 12.03125 44.71875 
Q 8.5 49.078125 8.5 55.328125 
Q 8.5 64.0625 14.71875 69.140625 
Q 20.953125 74.21875 31.78125 74.21875 
Q 42.671875 74.21875 48.875 69.140625 
Q 55.078125 64.0625 55.078125 55.328125 
Q 55.078125 49.078125 51.53125 44.71875 
Q 48 40.375 41.703125 38.8125 
Q 48.828125 37.15625 52.796875 32.3125 
Q 56.78125 27.484375 56.78125 20.515625 
Q 56.78125 9.90625 50.3125 4.234375 
Q 43.84375 -1.421875 31.78125 -1.421875 
Q 19.734375 -1.421875 13.25 4.234375 
Q 6.78125 9.90625 6.78125 20.515625 
Q 6.78125 27.484375 10.78125 32.3125 
Q 14.796875 37.15625 21.921875 38.8125 
z
M 18.3125 54.390625 
Q 18.3125 48.734375 21.84375 45.5625 
Q 25.390625 42.390625 31.78125 42.390625 
Q 38.140625 42.390625 41.71875 45.5625 
Q 45.3125 48.734375 45.3125 54.390625 
Q 45.3125 60.0625 41.71875 63.234375 
Q 38.140625 66.40625 31.78125 66.40625 
Q 25.390625 66.40625 21.84375 63.234375 
Q 18.3125 60.0625 18.3125 54.390625 
z
" id="DejaVuSans-38"/>
      </defs>
      <g transform="translate(77.200152 324.461937)scale(0.1 -0.1)">
       <use xlink:href="#DejaVuSans-32"/>
       <use x="63.623047" xlink:href="#DejaVuSans-30"/>
       <use x="127.246094" xlink:href="#DejaVuSans-30"/>
       <use x="190.869141" xlink:href="#DejaVuSans-38"/>
      </g>
     </g>
    </g>
    <g id="xtick_2">
     <g id="line2d_3">
      <path clip-path="url(#p44991fb67e)" d="M 159.77352 309.8635 
L 159.77352 23.36505 
" style="fill:none;stroke:#b0b0b0;stroke-linecap:square;stroke-width:0.8;"/>
     </g>
     <g id="line2d_4">
      <g>
       <use style="stroke:#000000;stroke-width:0.8;" x="159.77352" xlink:href="#m86475db49e" y="309.8635"/>
      </g>
     </g>
     <g id="text_2">
      <!-- 2010 -->
      <defs>
       <path d="M 12.40625 8.296875 
L 28.515625 8.296875 
L 28.515625 63.921875 
L 10.984375 60.40625 
L 10.984375 69.390625 
L 28.421875 72.90625 
L 38.28125 72.90625 
L 38.28125 8.296875 
L 54.390625 8.296875 
L 54.390625 0 
L 12.40625 0 
z
" id="DejaVuSans-31"/>
      </defs>
      <g transform="translate(147.04852 324.461937)scale(0.1 -0.1)">
       <use xlink:href="#DejaVuSans-32"/>
       <use x="63.623047" xlink:href="#DejaVuSans-30"/>
       <use x="127.246094" xlink:href="#DejaVuSans-31"/>
       <use x="190.869141" xlink:href="#DejaVuSans-30"/>
      </g>
     </g>
    </g>
    <g id="xtick_3">
     <g id="line2d_5">
      <path clip-path="url(#p44991fb67e)" d="M 229.526337 309.8635 
L 229.526337 23.36505 
" style="fill:none;stroke:#b0b0b0;stroke-linecap:square;stroke-width:0.8;"/>
     </g>
     <g id="line2d_6">
      <g>
       <use style="stroke:#000000;stroke-width:0.8;" x="229.526337" xlink:href="#m86475db49e" y="309.8635"/>
      </g>
     </g>
     <g id="text_3">
      <!-- 2012 -->
      <g transform="translate(216.801337 324.461937)scale(0.1 -0.1)">
       <use xlink:href="#DejaVuSans-32"/>
       <use x="63.623047" xlink:href="#DejaVuSans-30"/>
       <use x="127.246094" xlink:href="#DejaVuSans-31"/>
       <use x="190.869141" xlink:href="#DejaVuSans-32"/>
      </g>
     </g>
    </g>
    <g id="xtick_4">
     <g id="line2d_7">
      <path clip-path="url(#p44991fb67e)" d="M 299.374705 309.8635 
L 299.374705 23.36505 
" style="fill:none;stroke:#b0b0b0;stroke-linecap:square;stroke-width:0.8;"/>
     </g>
     <g id="line2d_8">
      <g>
       <use style="stroke:#000000;stroke-width:0.8;" x="299.374705" xlink:href="#m86475db49e" y="309.8635"/>
      </g>
     </g>
     <g id="text_4">
      <!-- 2014 -->
      <defs>
       <path d="M 37.796875 64.3125 
L 12.890625 25.390625 
L 37.796875 25.390625 
z
M 35.203125 72.90625 
L 47.609375 72.90625 
L 47.609375 25.390625 
L 58.015625 25.390625 
L 58.015625 17.1875 
L 47.609375 17.1875 
L 47.609375 0 
L 37.796875 0 
L 37.796875 17.1875 
L 4.890625 17.1875 
L 4.890625 26.703125 
z
" id="DejaVuSans-34"/>
      </defs>
      <g transform="translate(286.649705 324.461937)scale(0.1 -0.1)">
       <use xlink:href="#DejaVuSans-32"/>
       <use x="63.623047" xlink:href="#DejaVuSans-30"/>
       <use x="127.246094" xlink:href="#DejaVuSans-31"/>
       <use x="190.869141" xlink:href="#DejaVuSans-34"/>
      </g>
     </g>
    </g>
    <g id="xtick_5">
     <g id="line2d_9">
      <path clip-path="url(#p44991fb67e)" d="M 369.127521 309.8635 
L 369.127521 23.36505 
" style="fill:none;stroke:#b0b0b0;stroke-linecap:square;stroke-width:0.8;"/>
     </g>
     <g id="line2d_10">
      <g>
       <use style="stroke:#000000;stroke-width:0.8;" x="369.127521" xlink:href="#m86475db49e" y="309.8635"/>
      </g>
     </g>
     <g id="text_5">
      <!-- 2016 -->
      <defs>
       <path d="M 33.015625 40.375 
Q 26.375 40.375 22.484375 35.828125 
Q 18.609375 31.296875 18.609375 23.390625 
Q 18.609375 15.53125 22.484375 10.953125 
Q 26.375 6.390625 33.015625 6.390625 
Q 39.65625 6.390625 43.53125 10.953125 
Q 47.40625 15.53125 47.40625 23.390625 
Q 47.40625 31.296875 43.53125 35.828125 
Q 39.65625 40.375 33.015625 40.375 
z
M 52.59375 71.296875 
L 52.59375 62.3125 
Q 48.875 64.0625 45.09375 64.984375 
Q 41.3125 65.921875 37.59375 65.921875 
Q 27.828125 65.921875 22.671875 59.328125 
Q 17.53125 52.734375 16.796875 39.40625 
Q 19.671875 43.65625 24.015625 45.921875 
Q 28.375 48.1875 33.59375 48.1875 
Q 44.578125 48.1875 50.953125 41.515625 
Q 57.328125 34.859375 57.328125 23.390625 
Q 57.328125 12.15625 50.6875 5.359375 
Q 44.046875 -1.421875 33.015625 -1.421875 
Q 20.359375 -1.421875 13.671875 8.265625 
Q 6.984375 17.96875 6.984375 36.375 
Q 6.984375 53.65625 15.1875 63.9375 
Q 23.390625 74.21875 37.203125 74.21875 
Q 40.921875 74.21875 44.703125 73.484375 
Q 48.484375 72.75 52.59375 71.296875 
z
" id="DejaVuSans-36"/>
      </defs>
      <g transform="translate(356.402521 324.461937)scale(0.1 -0.1)">
       <use xlink:href="#DejaVuSans-32"/>
       <use x="63.623047" xlink:href="#DejaVuSans-30"/>
       <use x="127.246094" xlink:href="#DejaVuSans-31"/>
       <use x="190.869141" xlink:href="#DejaVuSans-36"/>
      </g>
     </g>
    </g>
    <g id="xtick_6">
     <g id="line2d_11">
      <path clip-path="url(#p44991fb67e)" d="M 438.97589 309.8635 
L 438.97589 23.36505 
" style="fill:none;stroke:#b0b0b0;stroke-linecap:square;stroke-width:0.8;"/>
     </g>
     <g id="line2d_12">
      <g>
       <use style="stroke:#000000;stroke-width:0.8;" x="438.97589" xlink:href="#m86475db49e" y="309.8635"/>
      </g>
     </g>
     <g id="text_6">
      <!-- 2018 -->
      <g transform="translate(426.25089 324.461937)scale(0.1 -0.1)">
       <use xlink:href="#DejaVuSans-32"/>
       <use x="63.623047" xlink:href="#DejaVuSans-30"/>
       <use x="127.246094" xlink:href="#DejaVuSans-31"/>
       <use x="190.869141" xlink:href="#DejaVuSans-38"/>
      </g>
     </g>
    </g>
    <g id="text_7">
     <!-- Date -->
     <defs>
      <path d="M 19.671875 64.796875 
L 19.671875 8.109375 
L 31.59375 8.109375 
Q 46.6875 8.109375 53.6875 14.9375 
Q 60.6875 21.78125 60.6875 36.53125 
Q 60.6875 51.171875 53.6875 57.984375 
Q 46.6875 64.796875 31.59375 64.796875 
z
M 9.8125 72.90625 
L 30.078125 72.90625 
Q 51.265625 72.90625 61.171875 64.09375 
Q 71.09375 55.28125 71.09375 36.53125 
Q 71.09375 17.671875 61.125 8.828125 
Q 51.171875 0 30.078125 0 
L 9.8125 0 
z
" id="DejaVuSans-44"/>
      <path d="M 34.28125 27.484375 
Q 23.390625 27.484375 19.1875 25 
Q 14.984375 22.515625 14.984375 16.5 
Q 14.984375 11.71875 18.140625 8.90625 
Q 21.296875 6.109375 26.703125 6.109375 
Q 34.1875 6.109375 38.703125 11.40625 
Q 43.21875 16.703125 43.21875 25.484375 
L 43.21875 27.484375 
z
M 52.203125 31.203125 
L 52.203125 0 
L 43.21875 0 
L 43.21875 8.296875 
Q 40.140625 3.328125 35.546875 0.953125 
Q 30.953125 -1.421875 24.3125 -1.421875 
Q 15.921875 -1.421875 10.953125 3.296875 
Q 6 8.015625 6 15.921875 
Q 6 25.140625 12.171875 29.828125 
Q 18.359375 34.515625 30.609375 34.515625 
L 43.21875 34.515625 
L 43.21875 35.40625 
Q 43.21875 41.609375 39.140625 45 
Q 35.0625 48.390625 27.6875 48.390625 
Q 23 48.390625 18.546875 47.265625 
Q 14.109375 46.140625 10.015625 43.890625 
L 10.015625 52.203125 
Q 14.9375 54.109375 19.578125 55.046875 
Q 24.21875 56 28.609375 56 
Q 40.484375 56 46.34375 49.84375 
Q 52.203125 43.703125 52.203125 31.203125 
z
" id="DejaVuSans-61"/>
      <path d="M 18.3125 70.21875 
L 18.3125 54.6875 
L 36.8125 54.6875 
L 36.8125 47.703125 
L 18.3125 47.703125 
L 18.3125 18.015625 
Q 18.3125 11.328125 20.140625 9.421875 
Q 21.96875 7.515625 27.59375 7.515625 
L 36.8125 7.515625 
L 36.8125 0 
L 27.59375 0 
Q 17.1875 0 13.234375 3.875 
Q 9.28125 7.765625 9.28125 18.015625 
L 9.28125 47.703125 
L 2.6875 47.703125 
L 2.6875 54.6875 
L 9.28125 54.6875 
L 9.28125 70.21875 
z
" id="DejaVuSans-74"/>
      <path d="M 56.203125 29.59375 
L 56.203125 25.203125 
L 14.890625 25.203125 
Q 15.484375 15.921875 20.484375 11.0625 
Q 25.484375 6.203125 34.421875 6.203125 
Q 39.59375 6.203125 44.453125 7.46875 
Q 49.3125 8.734375 54.109375 11.28125 
L 54.109375 2.78125 
Q 49.265625 0.734375 44.1875 -0.34375 
Q 39.109375 -1.421875 33.890625 -1.421875 
Q 20.796875 -1.421875 13.15625 6.1875 
Q 5.515625 13.8125 5.515625 26.8125 
Q 5.515625 40.234375 12.765625 48.109375 
Q 20.015625 56 32.328125 56 
Q 43.359375 56 49.78125 48.890625 
Q 56.203125 41.796875 56.203125 29.59375 
z
M 47.21875 32.234375 
Q 47.125 39.59375 43.09375 43.984375 
Q 39.0625 48.390625 32.421875 48.390625 
Q 24.90625 48.390625 20.390625 44.140625 
Q 15.875 39.890625 15.1875 32.171875 
z
" id="DejaVuSans-65"/>
     </defs>
     <g transform="translate(227.560719 338.140062)scale(0.1 -0.1)">
      <use xlink:href="#DejaVuSans-44"/>
      <use x="77.001953" xlink:href="#DejaVuSans-61"/>
      <use x="138.28125" xlink:href="#DejaVuSans-74"/>
      <use x="177.490234" xlink:href="#DejaVuSans-65"/>
     </g>
    </g>
   </g>
   <g id="matplotlib.axis_2">
    <g id="ytick_1">
     <g id="line2d_13">
      <path clip-path="url(#p44991fb67e)" d="M 31.543 309.8635 
L 447.48 309.8635 
" style="fill:none;stroke:#b0b0b0;stroke-linecap:square;stroke-width:0.8;"/>
     </g>
     <g id="line2d_14">
      <defs>
       <path d="M 0 0 
L -3.5 0 
" id="m4b739a6f04" style="stroke:#000000;stroke-width:0.8;"/>
      </defs>
      <g>
       <use style="stroke:#000000;stroke-width:0.8;" x="31.543" xlink:href="#m4b739a6f04" y="309.8635"/>
      </g>
     </g>
     <g id="text_8">
      <!-- 0 -->
      <g transform="translate(18.1805 313.662719)scale(0.1 -0.1)">
       <use xlink:href="#DejaVuSans-30"/>
      </g>
     </g>
    </g>
    <g id="ytick_2">
     <g id="line2d_15">
      <path clip-path="url(#p44991fb67e)" d="M 31.543 276.260585 
L 447.48 276.260585 
" style="fill:none;stroke:#b0b0b0;stroke-linecap:square;stroke-width:0.8;"/>
     </g>
     <g id="line2d_16">
      <g>
       <use style="stroke:#000000;stroke-width:0.8;" x="31.543" xlink:href="#m4b739a6f04" y="276.260585"/>
      </g>
     </g>
     <g id="text_9">
      <!-- 25 -->
      <defs>
       <path d="M 10.796875 72.90625 
L 49.515625 72.90625 
L 49.515625 64.59375 
L 19.828125 64.59375 
L 19.828125 46.734375 
Q 21.96875 47.46875 24.109375 47.828125 
Q 26.265625 48.1875 28.421875 48.1875 
Q 40.625 48.1875 47.75 41.5 
Q 54.890625 34.8125 54.890625 23.390625 
Q 54.890625 11.625 47.5625 5.09375 
Q 40.234375 -1.421875 26.90625 -1.421875 
Q 22.3125 -1.421875 17.546875 -0.640625 
Q 12.796875 0.140625 7.71875 1.703125 
L 7.71875 11.625 
Q 12.109375 9.234375 16.796875 8.0625 
Q 21.484375 6.890625 26.703125 6.890625 
Q 35.15625 6.890625 40.078125 11.328125 
Q 45.015625 15.765625 45.015625 23.390625 
Q 45.015625 31 40.078125 35.4375 
Q 35.15625 39.890625 26.703125 39.890625 
Q 22.75 39.890625 18.8125 39.015625 
Q 14.890625 38.140625 10.796875 36.28125 
z
" id="DejaVuSans-35"/>
      </defs>
      <g transform="translate(11.818 280.059804)scale(0.1 -0.1)">
       <use xlink:href="#DejaVuSans-32"/>
       <use x="63.623047" xlink:href="#DejaVuSans-35"/>
      </g>
     </g>
    </g>
    <g id="ytick_3">
     <g id="line2d_17">
      <path clip-path="url(#p44991fb67e)" d="M 31.543 242.657671 
L 447.48 242.657671 
" style="fill:none;stroke:#b0b0b0;stroke-linecap:square;stroke-width:0.8;"/>
     </g>
     <g id="line2d_18">
      <g>
       <use style="stroke:#000000;stroke-width:0.8;" x="31.543" xlink:href="#m4b739a6f04" y="242.657671"/>
      </g>
     </g>
     <g id="text_10">
      <!-- 50 -->
      <g transform="translate(11.818 246.45689)scale(0.1 -0.1)">
       <use xlink:href="#DejaVuSans-35"/>
       <use x="63.623047" xlink:href="#DejaVuSans-30"/>
      </g>
     </g>
    </g>
    <g id="ytick_4">
     <g id="line2d_19">
      <path clip-path="url(#p44991fb67e)" d="M 31.543 209.054756 
L 447.48 209.054756 
" style="fill:none;stroke:#b0b0b0;stroke-linecap:square;stroke-width:0.8;"/>
     </g>
     <g id="line2d_20">
      <g>
       <use style="stroke:#000000;stroke-width:0.8;" x="31.543" xlink:href="#m4b739a6f04" y="209.054756"/>
      </g>
     </g>
     <g id="text_11">
      <!-- 75 -->
      <defs>
       <path d="M 8.203125 72.90625 
L 55.078125 72.90625 
L 55.078125 68.703125 
L 28.609375 0 
L 18.3125 0 
L 43.21875 64.59375 
L 8.203125 64.59375 
z
" id="DejaVuSans-37"/>
      </defs>
      <g transform="translate(11.818 212.853975)scale(0.1 -0.1)">
       <use xlink:href="#DejaVuSans-37"/>
       <use x="63.623047" xlink:href="#DejaVuSans-35"/>
      </g>
     </g>
    </g>
    <g id="ytick_5">
     <g id="line2d_21">
      <path clip-path="url(#p44991fb67e)" d="M 31.543 175.451842 
L 447.48 175.451842 
" style="fill:none;stroke:#b0b0b0;stroke-linecap:square;stroke-width:0.8;"/>
     </g>
     <g id="line2d_22">
      <g>
       <use style="stroke:#000000;stroke-width:0.8;" x="31.543" xlink:href="#m4b739a6f04" y="175.451842"/>
      </g>
     </g>
     <g id="text_12">
      <!-- 100 -->
      <g transform="translate(5.4555 179.25106)scale(0.1 -0.1)">
       <use xlink:href="#DejaVuSans-31"/>
       <use x="63.623047" xlink:href="#DejaVuSans-30"/>
       <use x="127.246094" xlink:href="#DejaVuSans-30"/>
      </g>
     </g>
    </g>
    <g id="ytick_6">
     <g id="line2d_23">
      <path clip-path="url(#p44991fb67e)" d="M 31.543 141.848927 
L 447.48 141.848927 
" style="fill:none;stroke:#b0b0b0;stroke-linecap:square;stroke-width:0.8;"/>
     </g>
     <g id="line2d_24">
      <g>
       <use style="stroke:#000000;stroke-width:0.8;" x="31.543" xlink:href="#m4b739a6f04" y="141.848927"/>
      </g>
     </g>
     <g id="text_13">
      <!-- 125 -->
      <g transform="translate(5.4555 145.648146)scale(0.1 -0.1)">
       <use xlink:href="#DejaVuSans-31"/>
       <use x="63.623047" xlink:href="#DejaVuSans-32"/>
       <use x="127.246094" xlink:href="#DejaVuSans-35"/>
      </g>
     </g>
    </g>
    <g id="ytick_7">
     <g id="line2d_25">
      <path clip-path="url(#p44991fb67e)" d="M 31.543 108.246012 
L 447.48 108.246012 
" style="fill:none;stroke:#b0b0b0;stroke-linecap:square;stroke-width:0.8;"/>
     </g>
     <g id="line2d_26">
      <g>
       <use style="stroke:#000000;stroke-width:0.8;" x="31.543" xlink:href="#m4b739a6f04" y="108.246012"/>
      </g>
     </g>
     <g id="text_14">
      <!-- 150 -->
      <g transform="translate(5.4555 112.045231)scale(0.1 -0.1)">
       <use xlink:href="#DejaVuSans-31"/>
       <use x="63.623047" xlink:href="#DejaVuSans-35"/>
       <use x="127.246094" xlink:href="#DejaVuSans-30"/>
      </g>
     </g>
    </g>
    <g id="ytick_8">
     <g id="line2d_27">
      <path clip-path="url(#p44991fb67e)" d="M 31.543 74.643098 
L 447.48 74.643098 
" style="fill:none;stroke:#b0b0b0;stroke-linecap:square;stroke-width:0.8;"/>
     </g>
     <g id="line2d_28">
      <g>
       <use style="stroke:#000000;stroke-width:0.8;" x="31.543" xlink:href="#m4b739a6f04" y="74.643098"/>
      </g>
     </g>
     <g id="text_15">
      <!-- 175 -->
      <g transform="translate(5.4555 78.442316)scale(0.1 -0.1)">
       <use xlink:href="#DejaVuSans-31"/>
       <use x="63.623047" xlink:href="#DejaVuSans-37"/>
       <use x="127.246094" xlink:href="#DejaVuSans-35"/>
      </g>
     </g>
    </g>
    <g id="ytick_9">
     <g id="line2d_29">
      <path clip-path="url(#p44991fb67e)" d="M 31.543 41.040183 
L 447.48 41.040183 
" style="fill:none;stroke:#b0b0b0;stroke-linecap:square;stroke-width:0.8;"/>
     </g>
     <g id="line2d_30">
      <g>
       <use style="stroke:#000000;stroke-width:0.8;" x="31.543" xlink:href="#m4b739a6f04" y="41.040183"/>
      </g>
     </g>
     <g id="text_16">
      <!-- 200 -->
      <g transform="translate(5.4555 44.839402)scale(0.1 -0.1)">
       <use xlink:href="#DejaVuSans-32"/>
       <use x="63.623047" xlink:href="#DejaVuSans-30"/>
       <use x="127.246094" xlink:href="#DejaVuSans-30"/>
      </g>
     </g>
    </g>
   </g>
   <g id="line2d_31">
    <path clip-path="url(#p44991fb67e)" d="M 31.543 309.8635 
L 447.48 309.8635 
L 447.48 309.8635 
" style="fill:none;stroke:#1f77b4;stroke-linecap:square;stroke-width:1.5;"/>
   </g>
   <g id="patch_3">
    <path d="M 31.543 309.8635 
L 31.543 23.36505 
" style="fill:none;stroke:#000000;stroke-linecap:square;stroke-linejoin:miter;stroke-width:0.8;"/>
   </g>
   <g id="patch_4">
    <path d="M 447.48 309.8635 
L 447.48 23.36505 
" style="fill:none;stroke:#000000;stroke-linecap:square;stroke-linejoin:miter;stroke-width:0.8;"/>
   </g>
   <g id="patch_5">
    <path d="M 31.543 309.8635 
L 447.48 309.8635 
" style="fill:none;stroke:#000000;stroke-linecap:square;stroke-linejoin:miter;stroke-width:0.8;"/>
   </g>
   <g id="patch_6">
    <path d="M 31.543 23.36505 
L 447.48 23.36505 
" style="fill:none;stroke:#000000;stroke-linecap:square;stroke-linejoin:miter;stroke-width:0.8;"/>
   </g>
   <g id="text_17">
    <!-- Monthly gross load trend (MW) -->
    <defs>
     <path d="M 9.8125 72.90625 
L 24.515625 72.90625 
L 43.109375 23.296875 
L 61.8125 72.90625 
L 76.515625 72.90625 
L 76.515625 0 
L 66.890625 0 
L 66.890625 64.015625 
L 48.09375 14.015625 
L 38.1875 14.015625 
L 19.390625 64.015625 
L 19.390625 0 
L 9.8125 0 
z
" id="DejaVuSans-4d"/>
     <path d="M 30.609375 48.390625 
Q 23.390625 48.390625 19.1875 42.75 
Q 14.984375 37.109375 14.984375 27.296875 
Q 14.984375 17.484375 19.15625 11.84375 
Q 23.34375 6.203125 30.609375 6.203125 
Q 37.796875 6.203125 41.984375 11.859375 
Q 46.1875 17.53125 46.1875 27.296875 
Q 46.1875 37.015625 41.984375 42.703125 
Q 37.796875 48.390625 30.609375 48.390625 
z
M 30.609375 56 
Q 42.328125 56 49.015625 48.375 
Q 55.71875 40.765625 55.71875 27.296875 
Q 55.71875 13.875 49.015625 6.21875 
Q 42.328125 -1.421875 30.609375 -1.421875 
Q 18.84375 -1.421875 12.171875 6.21875 
Q 5.515625 13.875 5.515625 27.296875 
Q 5.515625 40.765625 12.171875 48.375 
Q 18.84375 56 30.609375 56 
z
" id="DejaVuSans-6f"/>
     <path d="M 54.890625 33.015625 
L 54.890625 0 
L 45.90625 0 
L 45.90625 32.71875 
Q 45.90625 40.484375 42.875 44.328125 
Q 39.84375 48.1875 33.796875 48.1875 
Q 26.515625 48.1875 22.3125 43.546875 
Q 18.109375 38.921875 18.109375 30.90625 
L 18.109375 0 
L 9.078125 0 
L 9.078125 54.6875 
L 18.109375 54.6875 
L 18.109375 46.1875 
Q 21.34375 51.125 25.703125 53.5625 
Q 30.078125 56 35.796875 56 
Q 45.21875 56 50.046875 50.171875 
Q 54.890625 44.34375 54.890625 33.015625 
z
" id="DejaVuSans-6e"/>
     <path d="M 54.890625 33.015625 
L 54.890625 0 
L 45.90625 0 
L 45.90625 32.71875 
Q 45.90625 40.484375 42.875 44.328125 
Q 39.84375 48.1875 33.796875 48.1875 
Q 26.515625 48.1875 22.3125 43.546875 
Q 18.109375 38.921875 18.109375 30.90625 
L 18.109375 0 
L 9.078125 0 
L 9.078125 75.984375 
L 18.109375 75.984375 
L 18.109375 46.1875 
Q 21.34375 51.125 25.703125 53.5625 
Q 30.078125 56 35.796875 56 
Q 45.21875 56 50.046875 50.171875 
Q 54.890625 44.34375 54.890625 33.015625 
z
" id="DejaVuSans-68"/>
     <path d="M 9.421875 75.984375 
L 18.40625 75.984375 
L 18.40625 0 
L 9.421875 0 
z
" id="DejaVuSans-6c"/>
     <path d="M 32.171875 -5.078125 
Q 28.375 -14.84375 24.75 -17.8125 
Q 21.140625 -20.796875 15.09375 -20.796875 
L 7.90625 -20.796875 
L 7.90625 -13.28125 
L 13.1875 -13.28125 
Q 16.890625 -13.28125 18.9375 -11.515625 
Q 21 -9.765625 23.484375 -3.21875 
L 25.09375 0.875 
L 2.984375 54.6875 
L 12.5 54.6875 
L 29.59375 11.921875 
L 46.6875 54.6875 
L 56.203125 54.6875 
z
" id="DejaVuSans-79"/>
     <path id="DejaVuSans-20"/>
     <path d="M 45.40625 27.984375 
Q 45.40625 37.75 41.375 43.109375 
Q 37.359375 48.484375 30.078125 48.484375 
Q 22.859375 48.484375 18.828125 43.109375 
Q 14.796875 37.75 14.796875 27.984375 
Q 14.796875 18.265625 18.828125 12.890625 
Q 22.859375 7.515625 30.078125 7.515625 
Q 37.359375 7.515625 41.375 12.890625 
Q 45.40625 18.265625 45.40625 27.984375 
z
M 54.390625 6.78125 
Q 54.390625 -7.171875 48.1875 -13.984375 
Q 42 -20.796875 29.203125 -20.796875 
Q 24.46875 -20.796875 20.265625 -20.09375 
Q 16.0625 -19.390625 12.109375 -17.921875 
L 12.109375 -9.1875 
Q 16.0625 -11.328125 19.921875 -12.34375 
Q 23.78125 -13.375 27.78125 -13.375 
Q 36.625 -13.375 41.015625 -8.765625 
Q 45.40625 -4.15625 45.40625 5.171875 
L 45.40625 9.625 
Q 42.625 4.78125 38.28125 2.390625 
Q 33.9375 0 27.875 0 
Q 17.828125 0 11.671875 7.65625 
Q 5.515625 15.328125 5.515625 27.984375 
Q 5.515625 40.671875 11.671875 48.328125 
Q 17.828125 56 27.875 56 
Q 33.9375 56 38.28125 53.609375 
Q 42.625 51.21875 45.40625 46.390625 
L 45.40625 54.6875 
L 54.390625 54.6875 
z
" id="DejaVuSans-67"/>
     <path d="M 41.109375 46.296875 
Q 39.59375 47.171875 37.8125 47.578125 
Q 36.03125 48 33.890625 48 
Q 26.265625 48 22.1875 43.046875 
Q 18.109375 38.09375 18.109375 28.8125 
L 18.109375 0 
L 9.078125 0 
L 9.078125 54.6875 
L 18.109375 54.6875 
L 18.109375 46.1875 
Q 20.953125 51.171875 25.484375 53.578125 
Q 30.03125 56 36.53125 56 
Q 37.453125 56 38.578125 55.875 
Q 39.703125 55.765625 41.0625 55.515625 
z
" id="DejaVuSans-72"/>
     <path d="M 44.28125 53.078125 
L 44.28125 44.578125 
Q 40.484375 46.53125 36.375 47.5 
Q 32.28125 48.484375 27.875 48.484375 
Q 21.1875 48.484375 17.84375 46.4375 
Q 14.5 44.390625 14.5 40.28125 
Q 14.5 37.15625 16.890625 35.375 
Q 19.28125 33.59375 26.515625 31.984375 
L 29.59375 31.296875 
Q 39.15625 29.25 43.1875 25.515625 
Q 47.21875 21.78125 47.21875 15.09375 
Q 47.21875 7.46875 41.1875 3.015625 
Q 35.15625 -1.421875 24.609375 -1.421875 
Q 20.21875 -1.421875 15.453125 -0.5625 
Q 10.6875 0.296875 5.421875 2 
L 5.421875 11.28125 
Q 10.40625 8.6875 15.234375 7.390625 
Q 20.0625 6.109375 24.8125 6.109375 
Q 31.15625 6.109375 34.5625 8.28125 
Q 37.984375 10.453125 37.984375 14.40625 
Q 37.984375 18.0625 35.515625 20.015625 
Q 33.0625 21.96875 24.703125 23.78125 
L 21.578125 24.515625 
Q 13.234375 26.265625 9.515625 29.90625 
Q 5.8125 33.546875 5.8125 39.890625 
Q 5.8125 47.609375 11.28125 51.796875 
Q 16.75 56 26.8125 56 
Q 31.78125 56 36.171875 55.265625 
Q 40.578125 54.546875 44.28125 53.078125 
z
" id="DejaVuSans-73"/>
     <path d="M 45.40625 46.390625 
L 45.40625 75.984375 
L 54.390625 75.984375 
L 54.390625 0 
L 45.40625 0 
L 45.40625 8.203125 
Q 42.578125 3.328125 38.25 0.953125 
Q 33.9375 -1.421875 27.875 -1.421875 
Q 17.96875 -1.421875 11.734375 6.484375 
Q 5.515625 14.40625 5.515625 27.296875 
Q 5.515625 40.1875 11.734375 48.09375 
Q 17.96875 56 27.875 56 
Q 33.9375 56 38.25 53.625 
Q 42.578125 51.265625 45.40625 46.390625 
z
M 14.796875 27.296875 
Q 14.796875 17.390625 18.875 11.75 
Q 22.953125 6.109375 30.078125 6.109375 
Q 37.203125 6.109375 41.296875 11.75 
Q 45.40625 17.390625 45.40625 27.296875 
Q 45.40625 37.203125 41.296875 42.84375 
Q 37.203125 48.484375 30.078125 48.484375 
Q 22.953125 48.484375 18.875 42.84375 
Q 14.796875 37.203125 14.796875 27.296875 
z
" id="DejaVuSans-64"/>
     <path d="M 31 75.875 
Q 24.46875 64.65625 21.28125 53.65625 
Q 18.109375 42.671875 18.109375 31.390625 
Q 18.109375 20.125 21.3125 9.0625 
Q 24.515625 -2 31 -13.1875 
L 23.1875 -13.1875 
Q 15.875 -1.703125 12.234375 9.375 
Q 8.59375 20.453125 8.59375 31.390625 
Q 8.59375 42.28125 12.203125 53.3125 
Q 15.828125 64.359375 23.1875 75.875 
z
" id="DejaVuSans-28"/>
     <path d="M 3.328125 72.90625 
L 13.28125 72.90625 
L 28.609375 11.28125 
L 43.890625 72.90625 
L 54.984375 72.90625 
L 70.3125 11.28125 
L 85.59375 72.90625 
L 95.609375 72.90625 
L 77.296875 0 
L 64.890625 0 
L 49.515625 63.28125 
L 33.984375 0 
L 21.578125 0 
z
" id="DejaVuSans-57"/>
     <path d="M 8.015625 75.875 
L 15.828125 75.875 
Q 23.140625 64.359375 26.78125 53.3125 
Q 30.421875 42.28125 30.421875 31.390625 
Q 30.421875 20.453125 26.78125 9.375 
Q 23.140625 -1.703125 15.828125 -13.1875 
L 8.015625 -13.1875 
Q 14.5 -2 17.703125 9.0625 
Q 20.90625 20.125 20.90625 31.390625 
Q 20.90625 42.671875 17.703125 53.65625 
Q 14.5 64.65625 8.015625 75.875 
z
" id="DejaVuSans-29"/>
    </defs>
    <g transform="translate(146.928688 17.36505)scale(0.12 -0.12)">
     <use xlink:href="#DejaVuSans-4d"/>
     <use x="86.279297" xlink:href="#DejaVuSans-6f"/>
     <use x="147.460938" xlink:href="#DejaVuSans-6e"/>
     <use x="210.839844" xlink:href="#DejaVuSans-74"/>
     <use x="250.048828" xlink:href="#DejaVuSans-68"/>
     <use x="313.427734" xlink:href="#DejaVuSans-6c"/>
     <use x="341.210938" xlink:href="#DejaVuSans-79"/>
     <use x="400.390625" xlink:href="#DejaVuSans-20"/>
     <use x="432.177734" xlink:href="#DejaVuSans-67"/>
     <use x="495.654297" xlink:href="#DejaVuSans-72"/>
     <use x="536.736328" xlink:href="#DejaVuSans-6f"/>
     <use x="597.917969" xlink:href="#DejaVuSans-73"/>
     <use x="650.017578" xlink:href="#DejaVuSans-73"/>
     <use x="702.117188" xlink:href="#DejaVuSans-20"/>
     <use x="733.904297" xlink:href="#DejaVuSans-6c"/>
     <use x="761.6875" xlink:href="#DejaVuSans-6f"/>
     <use x="822.869141" xlink:href="#DejaVuSans-61"/>
     <use x="884.148438" xlink:href="#DejaVuSans-64"/>
     <use x="947.625" xlink:href="#DejaVuSans-20"/>
     <use x="979.412109" xlink:href="#DejaVuSans-74"/>
     <use x="1018.621094" xlink:href="#DejaVuSans-72"/>
     <use x="1059.703125" xlink:href="#DejaVuSans-65"/>
     <use x="1121.226562" xlink:href="#DejaVuSans-6e"/>
     <use x="1184.605469" xlink:href="#DejaVuSans-64"/>
     <use x="1248.082031" xlink:href="#DejaVuSans-20"/>
     <use x="1279.869141" xlink:href="#DejaVuSans-28"/>
     <use x="1318.882812" xlink:href="#DejaVuSans-4d"/>
     <use x="1405.162109" xlink:href="#DejaVuSans-57"/>
     <use x="1504.039062" xlink:href="#DejaVuSans-29"/>
    </g>
   </g>
  </g>
 </g>
 <defs>
  <clipPath id="p44991fb67e">
   <rect height="286.49845" width="415.937" x="31.543" y="23.36505"/>
  </clipPath>
 </defs>
</svg>
