<?xml version="1.0" encoding="utf-8" standalone="no"?>
<!DOCTYPE svg PUBLIC "-//W3C//DTD SVG 1.1//EN"
  "http://www.w3.org/Graphics/SVG/1.1/DTD/svg11.dtd">
<!-- Created with matplotlib (http://matplotlib.org/) -->
<svg height="345.6pt" version="1.1" viewBox="0 0 460.8 345.6" width="460.8pt" xmlns="http://www.w3.org/2000/svg" xmlns:xlink="http://www.w3.org/1999/xlink">
 <defs>
  <style type="text/css">
*{stroke-linecap:butt;stroke-linejoin:round;}
  </style>
 </defs>
 <g id="figure_1">
  <g id="patch_1">
   <path d="M 0 345.6 
L 460.8 345.6 
L 460.8 0 
L 0 0 
z
" style="fill:none;"/>
  </g>
  <g id="axes_1">
   <g id="patch_2">
    <path d="M 31.543 309.8635 
L 447.48 309.8635 
L 447.48 23.36505 
L 31.543 23.36505 
z
" style="fill:none;"/>
   </g>
   <g id="PolyCollection_1">
    <path clip-path="url(#p4916f91fd1)" d="M 31.543 244.223693 
L 31.543 309.8635 
L 33.401047 309.8635 
L 35.45817 309.8635 
L 37.448934 309.8635 
L 39.506057 309.8635 
L 41.496821 309.8635 
L 43.553944 309.8635 
L 45.611067 309.8635 
L 47.601831 309.8635 
L 49.658954 309.8635 
L 51.649718 309.8635 
L 53.706841 309.8635 
L 55.763964 268.677739 
L 57.622011 309.8635 
L 59.679134 309.8635 
L 61.669898 309.8635 
L 63.727021 309.8635 
L 65.717785 309.8635 
L 67.774908 309.8635 
L 69.832031 309.8635 
L 71.822796 309.8635 
L 73.879919 309.8635 
L 75.870683 309.8635 
L 77.927806 309.8635 
L 79.984929 309.8635 
L 81.842975 309.8635 
L 83.900098 309.8635 
L 85.890863 309.8635 
L 87.947986 309.8635 
L 89.93875 309.8635 
L 91.995873 309.8635 
L 94.052996 309.8635 
L 96.04376 309.8635 
L 98.100883 309.8635 
L 100.091647 309.8635 
L 102.14877 309.8635 
L 104.205893 309.8635 
L 106.130299 309.8635 
L 108.187422 309.8635 
L 110.178186 309.8635 
L 112.235309 309.8635 
L 114.226073 309.8635 
L 116.283196 309.8635 
L 118.340319 309.8635 
L 120.331083 309.8635 
L 122.388206 309.8635 
L 124.37897 309.8635 
L 126.436093 309.8635 
L 128.493216 309.8635 
L 130.351263 309.8635 
L 132.408386 309.8635 
L 134.39915 309.8635 
L 136.456273 309.8635 
L 138.447037 309.8635 
L 140.50416 309.8635 
L 142.561284 309.8635 
L 144.552048 309.8635 
L 146.609171 309.8635 
L 148.599935 281.548289 
L 150.657058 281.548289 
L 152.714181 309.8635 
L 154.572228 309.8635 
L 156.629351 309.8635 
L 158.620115 309.8635 
L 160.677238 309.8635 
L 162.668002 309.8635 
L 164.725125 309.8635 
L 166.782248 309.8635 
L 168.773012 309.8635 
L 170.830135 309.8635 
L 172.820899 309.8635 
L 174.878022 309.8635 
L 176.935145 309.8635 
L 178.793192 309.8635 
L 180.850315 309.8635 
L 182.841079 309.8635 
L 184.898202 309.8635 
L 186.888966 309.8635 
L 188.946089 309.8635 
L 191.003212 309.8635 
L 192.993977 309.8635 
L 195.0511 309.8635 
L 197.041864 309.8635 
L 199.098987 309.8635 
L 201.15611 309.8635 
L 203.080515 309.8635 
L 205.137638 309.8635 
L 207.128402 309.8635 
L 209.185525 309.8635 
L 211.17629 309.8635 
L 213.233413 309.8635 
L 215.290536 309.8635 
L 217.2813 309.8635 
L 219.338423 309.8635 
L 221.329187 309.8635 
L 223.38631 309.8635 
L 225.443433 309.8635 
L 227.30148 309.8635 
L 229.358603 309.8635 
L 231.349367 309.8635 
L 233.40649 309.8635 
L 235.397254 309.8635 
L 237.454377 309.8635 
L 239.5115 309.8635 
L 241.502264 309.8635 
L 243.559387 309.8635 
L 245.550151 309.8635 
L 247.607274 309.8635 
L 249.664397 309.8635 
L 251.522444 309.8635 
L 253.579567 309.8635 
L 255.570331 309.8635 
L 257.627454 309.8635 
L 259.618218 309.8635 
L 261.675341 309.8635 
L 263.732464 309.8635 
L 265.723229 309.8635 
L 267.780352 309.8635 
L 269.771116 309.8635 
L 271.828239 309.8635 
L 273.885362 309.8635 
L 275.743408 309.8635 
L 277.800531 309.8635 
L 279.791296 309.8635 
L 281.848419 309.8635 
L 283.839183 309.8635 
L 285.896306 309.8635 
L 287.953429 309.8635 
L 289.944193 309.8635 
L 292.001316 309.8635 
L 293.99208 309.8635 
L 296.049203 309.8635 
L 298.106326 309.8635 
L 300.030732 309.8635 
L 302.087855 309.8635 
L 304.078619 309.8635 
L 306.135742 309.8635 
L 308.126506 309.8635 
L 310.183629 309.8635 
L 312.240752 309.8635 
L 314.231516 309.8635 
L 316.288639 309.8635 
L 318.279403 309.8635 
L 320.336526 309.8635 
L 322.393649 309.8635 
L 324.251696 309.8635 
L 326.308819 309.8635 
L 328.299583 309.8635 
L 330.356706 309.8635 
L 332.34747 309.8635 
L 334.404593 309.8635 
L 336.461716 309.8635 
L 338.452481 309.8635 
L 340.509604 309.8635 
L 342.500368 309.8635 
L 344.557491 309.8635 
L 346.614614 309.8635 
L 348.47266 309.8635 
L 350.529784 309.8635 
L 352.520548 309.8635 
L 354.577671 309.8635 
L 356.568435 309.8635 
L 358.625558 309.8635 
L 360.682681 309.8635 
L 362.673445 309.8635 
L 364.730568 309.8635 
L 366.721332 309.8635 
L 368.778455 309.8635 
L 370.835578 309.8635 
L 372.693625 309.8635 
L 374.750748 309.8635 
L 376.741512 309.8635 
L 378.798635 309.8635 
L 380.789399 309.8635 
L 382.846522 309.8635 
L 384.903645 309.8635 
L 386.89441 309.8635 
L 388.951533 309.8635 
L 390.942297 309.8635 
L 392.99942 309.8635 
L 395.056543 309.8635 
L 396.980948 309.8635 
L 399.038071 309.8635 
L 401.028835 309.8635 
L 403.085958 309.8635 
L 405.076723 309.8635 
L 407.133846 309.8635 
L 409.190969 309.8635 
L 411.181733 309.8635 
L 413.238856 309.8635 
L 415.22962 309.8635 
L 417.286743 309.8635 
L 419.343866 309.8635 
L 421.201913 309.8635 
L 423.259036 309.8635 
L 425.2498 285.409454 
L 427.306923 309.8635 
L 429.297687 309.8635 
L 431.35481 309.8635 
L 433.411933 309.8635 
L 435.402697 309.8635 
L 437.45982 309.8635 
L 439.450584 309.8635 
L 441.507707 309.8635 
L 443.56483 309.8635 
L 445.422877 309.8635 
L 447.48 309.8635 
L 447.48 245.510748 
L 447.48 245.510748 
L 445.422877 97.49942 
L 443.56483 199.176767 
L 441.507707 106.508805 
L 439.450584 123.24052 
L 437.45982 185.019162 
L 435.402697 66.610099 
L 433.411933 55.026604 
L 431.35481 120.66641 
L 429.297687 116.805245 
L 427.306923 105.22175 
L 425.2498 159.278061 
L 423.259036 124.527575 
L 421.201913 100.07353 
L 419.343866 136.111071 
L 417.286743 214.621428 
L 415.22962 192.741492 
L 413.238856 75.619484 
L 411.181733 115.51819 
L 409.190969 132.249906 
L 407.133846 118.0923 
L 405.076723 125.814631 
L 403.085958 201.750877 
L 401.028835 83.341814 
L 399.038071 191.454437 
L 396.980948 185.019162 
L 395.056543 147.694566 
L 392.99942 167.000392 
L 390.942297 242.936638 
L 388.951533 65.323044 
L 386.89441 120.66641 
L 384.903645 85.915925 
L 382.846522 57.600714 
L 380.789399 49.878384 
L 378.798635 82.054759 
L 376.741512 79.480649 
L 374.750748 210.760263 
L 372.693625 226.204923 
L 370.835578 120.66641 
L 368.778455 204.324987 
L 366.721332 227.491978 
L 364.730568 37.007833 
L 362.673445 94.92531 
L 360.682681 100.07353 
L 358.625558 112.94408 
L 356.568435 120.66641 
L 354.577671 147.694566 
L 352.520548 119.379355 
L 350.529784 251.946024 
L 348.47266 174.722722 
L 346.614614 121.953465 
L 344.557491 48.591329 
L 342.500368 147.694566 
L 340.509604 133.536961 
L 338.452481 48.591329 
L 336.461716 43.443108 
L 334.404593 48.591329 
L 332.34747 52.452494 
L 330.356706 105.22175 
L 328.299583 182.445052 
L 326.308819 235.214308 
L 324.251696 181.157997 
L 322.393649 156.703951 
L 320.336526 155.416896 
L 318.279403 128.388741 
L 316.288639 155.416896 
L 314.231516 143.833401 
L 312.240752 143.833401 
L 310.183629 114.231135 
L 308.126506 239.075473 
L 306.135742 248.084858 
L 304.078619 248.084858 
L 302.087855 267.390684 
L 300.030732 249.371914 
L 298.106326 254.520134 
L 296.049203 249.371914 
L 293.99208 250.658969 
L 292.001316 278.974179 
L 289.944193 248.084858 
L 287.953429 250.658969 
L 285.896306 250.658969 
L 283.839183 248.084858 
L 281.848419 251.946024 
L 279.791296 251.946024 
L 277.800531 246.797803 
L 275.743408 248.084858 
L 273.885362 246.797803 
L 271.828239 254.520134 
L 269.771116 248.084858 
L 267.780352 246.797803 
L 265.723229 246.797803 
L 263.732464 246.797803 
L 261.675341 254.520134 
L 259.618218 245.510748 
L 257.627454 245.510748 
L 255.570331 286.696509 
L 253.579567 257.094244 
L 251.522444 309.8635 
L 249.664397 264.816574 
L 247.607274 248.084858 
L 245.550151 248.084858 
L 243.559387 250.658969 
L 241.502264 248.084858 
L 239.5115 246.797803 
L 237.454377 248.084858 
L 235.397254 250.658969 
L 233.40649 246.797803 
L 231.349367 245.510748 
L 229.358603 309.8635 
L 227.30148 284.122399 
L 225.443433 250.658969 
L 223.38631 246.797803 
L 221.329187 257.094244 
L 219.338423 248.084858 
L 217.2813 246.797803 
L 215.290536 248.084858 
L 213.233413 248.084858 
L 211.17629 246.797803 
L 209.185525 246.797803 
L 207.128402 246.797803 
L 205.137638 253.233079 
L 203.080515 257.094244 
L 201.15611 248.084858 
L 199.098987 246.797803 
L 197.041864 246.797803 
L 195.0511 246.797803 
L 192.993977 248.084858 
L 191.003212 246.797803 
L 188.946089 249.371914 
L 186.888966 248.084858 
L 184.898202 245.510748 
L 182.841079 255.807189 
L 180.850315 251.946024 
L 178.793192 245.510748 
L 176.935145 245.510748 
L 174.878022 269.964794 
L 172.820899 309.8635 
L 170.830135 250.658969 
L 168.773012 248.084858 
L 166.782248 246.797803 
L 164.725125 248.084858 
L 162.668002 249.371914 
L 160.677238 246.797803 
L 158.620115 259.668354 
L 156.629351 245.510748 
L 154.572228 246.797803 
L 152.714181 245.510748 
L 150.657058 245.510748 
L 148.599935 245.510748 
L 146.609171 245.510748 
L 144.552048 245.510748 
L 142.561284 245.510748 
L 140.50416 245.510748 
L 138.447037 245.510748 
L 136.456273 245.510748 
L 134.39915 257.094244 
L 132.408386 249.371914 
L 130.351263 246.797803 
L 128.493216 245.510748 
L 126.436093 245.510748 
L 124.37897 245.510748 
L 122.388206 245.510748 
L 120.331083 245.510748 
L 118.340319 245.510748 
L 116.283196 245.510748 
L 114.226073 245.510748 
L 112.235309 244.223693 
L 110.178186 248.084858 
L 108.187422 309.8635 
L 106.130299 250.658969 
L 104.205893 245.510748 
L 102.14877 245.510748 
L 100.091647 245.510748 
L 98.100883 308.576445 
L 96.04376 245.510748 
L 94.052996 246.797803 
L 91.995873 246.797803 
L 89.93875 246.797803 
L 87.947986 249.371914 
L 85.890863 309.8635 
L 83.900098 249.371914 
L 81.842975 248.084858 
L 79.984929 245.510748 
L 77.927806 248.084858 
L 75.870683 245.510748 
L 73.879919 245.510748 
L 71.822796 245.510748 
L 69.832031 246.797803 
L 67.774908 245.510748 
L 65.717785 246.797803 
L 63.727021 262.242464 
L 61.669898 248.084858 
L 59.679134 245.510748 
L 57.622011 245.510748 
L 55.763964 245.510748 
L 53.706841 245.510748 
L 51.649718 245.510748 
L 49.658954 245.510748 
L 47.601831 244.223693 
L 45.611067 245.510748 
L 43.553944 245.510748 
L 41.496821 245.510748 
L 39.506057 245.510748 
L 37.448934 245.510748 
L 35.45817 244.223693 
L 33.401047 245.510748 
L 31.543 244.223693 
z
" style="fill:#808080;fill-opacity:0.3;"/>
   </g>
   <g id="PolyCollection_2">
    <path clip-path="url(#p4916f91fd1)" d="M 31.543 245.510748 
L 31.543 259.668354 
L 33.401047 259.668354 
L 35.45817 257.094244 
L 37.448934 309.8635 
L 39.506057 249.371914 
L 41.496821 309.8635 
L 43.553944 309.8635 
L 45.611067 246.797803 
L 47.601831 253.233079 
L 49.658954 309.8635 
L 51.649718 309.8635 
L 53.706841 255.807189 
L 55.763964 258.381299 
L 57.622011 258.381299 
L 59.679134 255.807189 
L 61.669898 309.8635 
L 63.727021 309.8635 
L 65.717785 309.8635 
L 67.774908 309.8635 
L 69.832031 309.8635 
L 71.822796 309.8635 
L 73.879919 309.8635 
L 75.870683 309.8635 
L 77.927806 309.8635 
L 79.984929 309.8635 
L 81.842975 309.8635 
L 83.900098 309.8635 
L 85.890863 309.8635 
L 87.947986 309.8635 
L 89.93875 309.8635 
L 91.995873 309.8635 
L 94.052996 309.8635 
L 96.04376 309.8635 
L 98.100883 309.8635 
L 100.091647 309.8635 
L 102.14877 309.8635 
L 104.205893 309.8635 
L 106.130299 309.8635 
L 108.187422 309.8635 
L 110.178186 309.8635 
L 112.235309 309.8635 
L 114.226073 309.8635 
L 116.283196 309.8635 
L 118.340319 309.8635 
L 120.331083 309.8635 
L 122.388206 309.8635 
L 124.37897 309.8635 
L 126.436093 309.8635 
L 128.493216 309.8635 
L 130.351263 309.8635 
L 132.408386 309.8635 
L 134.39915 309.8635 
L 136.456273 309.8635 
L 138.447037 309.8635 
L 140.50416 309.8635 
L 142.561284 309.8635 
L 144.552048 309.8635 
L 146.609171 309.8635 
L 148.599935 268.999503 
L 150.657058 268.677739 
L 152.714181 273.825959 
L 154.572228 273.825959 
L 156.629351 275.113014 
L 158.620115 309.8635 
L 160.677238 309.8635 
L 162.668002 309.8635 
L 164.725125 309.8635 
L 166.782248 309.8635 
L 168.773012 309.8635 
L 170.830135 309.8635 
L 172.820899 309.8635 
L 174.878022 309.8635 
L 176.935145 309.8635 
L 178.793192 309.8635 
L 180.850315 309.8635 
L 182.841079 309.8635 
L 184.898202 309.8635 
L 186.888966 309.8635 
L 188.946089 309.8635 
L 191.003212 309.8635 
L 192.993977 309.8635 
L 195.0511 309.8635 
L 197.041864 309.8635 
L 199.098987 309.8635 
L 201.15611 309.8635 
L 203.080515 309.8635 
L 205.137638 309.8635 
L 207.128402 309.8635 
L 209.185525 309.8635 
L 211.17629 309.8635 
L 213.233413 309.8635 
L 215.290536 309.8635 
L 217.2813 309.8635 
L 219.338423 309.8635 
L 221.329187 309.8635 
L 223.38631 309.8635 
L 225.443433 309.8635 
L 227.30148 309.8635 
L 229.358603 309.8635 
L 231.349367 309.8635 
L 233.40649 309.8635 
L 235.397254 309.8635 
L 237.454377 309.8635 
L 239.5115 309.8635 
L 241.502264 309.8635 
L 243.559387 309.8635 
L 245.550151 309.8635 
L 247.607274 309.8635 
L 249.664397 309.8635 
L 251.522444 309.8635 
L 253.579567 309.8635 
L 255.570331 309.8635 
L 257.627454 309.8635 
L 259.618218 289.270619 
L 261.675341 309.8635 
L 263.732464 309.8635 
L 265.723229 309.8635 
L 267.780352 309.8635 
L 269.771116 309.8635 
L 271.828239 309.8635 
L 273.885362 309.8635 
L 275.743408 309.8635 
L 277.800531 309.8635 
L 279.791296 309.8635 
L 281.848419 282.835344 
L 283.839183 309.8635 
L 285.896306 309.8635 
L 287.953429 309.8635 
L 289.944193 309.8635 
L 292.001316 309.8635 
L 293.99208 309.8635 
L 296.049203 309.8635 
L 298.106326 309.8635 
L 300.030732 309.8635 
L 302.087855 309.8635 
L 304.078619 309.8635 
L 306.135742 309.8635 
L 308.126506 309.8635 
L 310.183629 309.8635 
L 312.240752 309.8635 
L 314.231516 309.8635 
L 316.288639 309.8635 
L 318.279403 284.122399 
L 320.336526 309.8635 
L 322.393649 309.8635 
L 324.251696 309.8635 
L 326.308819 309.8635 
L 328.299583 309.8635 
L 330.356706 309.8635 
L 332.34747 309.8635 
L 334.404593 309.8635 
L 336.461716 309.8635 
L 338.452481 309.8635 
L 340.509604 309.8635 
L 342.500368 309.8635 
L 344.557491 309.8635 
L 346.614614 309.8635 
L 348.47266 309.8635 
L 350.529784 309.8635 
L 352.520548 309.8635 
L 354.577671 309.8635 
L 356.568435 309.8635 
L 358.625558 309.8635 
L 360.682681 309.8635 
L 362.673445 309.8635 
L 364.730568 300.532351 
L 366.721332 309.8635 
L 368.778455 309.8635 
L 370.835578 309.8635 
L 372.693625 309.8635 
L 374.750748 309.8635 
L 376.741512 309.8635 
L 378.798635 309.8635 
L 380.789399 309.8635 
L 382.846522 309.8635 
L 384.903645 309.8635 
L 386.89441 309.8635 
L 388.951533 287.983564 
L 390.942297 309.8635 
L 392.99942 309.8635 
L 395.056543 309.8635 
L 396.980948 309.8635 
L 399.038071 309.8635 
L 401.028835 296.99295 
L 403.085958 309.8635 
L 405.076723 309.8635 
L 407.133846 309.8635 
L 409.190969 309.8635 
L 411.181733 309.8635 
L 413.238856 309.8635 
L 415.22962 309.8635 
L 417.286743 309.8635 
L 419.343866 309.8635 
L 421.201913 309.8635 
L 423.259036 309.8635 
L 425.2498 269.964794 
L 427.306923 309.8635 
L 429.297687 309.8635 
L 431.35481 309.8635 
L 433.411933 309.8635 
L 435.402697 309.8635 
L 437.45982 309.8635 
L 439.450584 309.8635 
L 441.507707 309.8635 
L 443.56483 309.8635 
L 445.422877 309.8635 
L 447.48 309.8635 
L 447.48 309.8635 
L 447.48 309.8635 
L 445.422877 309.8635 
L 443.56483 309.8635 
L 441.507707 208.186153 
L 439.450584 309.8635 
L 437.45982 309.8635 
L 435.402697 251.62426 
L 433.411933 230.066088 
L 431.35481 258.381299 
L 429.297687 260.955409 
L 427.306923 264.816574 
L 425.2498 249.05015 
L 423.259036 269.964794 
L 421.201913 309.8635 
L 419.343866 309.8635 
L 417.286743 309.8635 
L 415.22962 266.103629 
L 413.238856 257.094244 
L 411.181733 267.390684 
L 409.190969 306.967626 
L 407.133846 289.270619 
L 405.076723 276.400069 
L 403.085958 309.8635 
L 401.028835 251.946024 
L 399.038071 267.390684 
L 396.980948 309.8635 
L 395.056543 309.8635 
L 392.99942 309.8635 
L 390.942297 309.8635 
L 388.951533 195.315602 
L 386.89441 264.816574 
L 384.903645 219.769648 
L 382.846522 212.047318 
L 380.789399 223.309049 
L 378.798635 268.677739 
L 376.741512 218.482593 
L 374.750748 293.131785 
L 372.693625 309.8635 
L 370.835578 309.8635 
L 368.778455 309.8635 
L 366.721332 309.8635 
L 364.730568 213.334373 
L 362.673445 228.779033 
L 360.682681 205.612042 
L 358.625558 194.028547 
L 356.568435 226.204923 
L 354.577671 259.668354 
L 352.520548 260.955409 
L 350.529784 309.8635 
L 348.47266 276.078305 
L 346.614614 228.779033 
L 344.557491 244.223693 
L 342.500368 228.779033 
L 340.509604 246.47604 
L 338.452481 304.393516 
L 336.461716 241.649583 
L 334.404593 245.510748 
L 332.34747 259.668354 
L 330.356706 309.8635 
L 328.299583 309.8635 
L 326.308819 309.8635 
L 324.251696 309.8635 
L 322.393649 309.8635 
L 320.336526 264.816574 
L 318.279403 174.722722 
L 316.288639 278.974179 
L 314.231516 269.964794 
L 312.240752 267.06892 
L 310.183629 309.8635 
L 308.126506 309.8635 
L 306.135742 275.113014 
L 304.078619 309.8635 
L 302.087855 309.8635 
L 300.030732 309.8635 
L 298.106326 255.807189 
L 296.049203 309.8635 
L 293.99208 309.8635 
L 292.001316 309.8635 
L 289.944193 309.8635 
L 287.953429 289.270619 
L 285.896306 309.8635 
L 283.839183 268.677739 
L 281.848419 266.103629 
L 279.791296 277.36536 
L 277.800531 264.816574 
L 275.743408 309.8635 
L 273.885362 273.825959 
L 271.828239 309.8635 
L 269.771116 269.64303 
L 267.780352 309.8635 
L 265.723229 309.8635 
L 263.732464 309.8635 
L 261.675341 309.8635 
L 259.618218 268.677739 
L 257.627454 269.964794 
L 255.570331 309.8635 
L 253.579567 309.8635 
L 251.522444 309.8635 
L 249.664397 309.8635 
L 247.607274 309.8635 
L 245.550151 263.529519 
L 243.559387 268.677739 
L 241.502264 275.113014 
L 239.5115 288.948856 
L 237.454377 278.974179 
L 235.397254 309.8635 
L 233.40649 309.8635 
L 231.349367 309.8635 
L 229.358603 309.8635 
L 227.30148 309.8635 
L 225.443433 309.8635 
L 223.38631 277.687124 
L 221.329187 309.8635 
L 219.338423 306.645862 
L 217.2813 269.964794 
L 215.290536 278.974179 
L 213.233413 281.548289 
L 211.17629 286.696509 
L 209.185525 309.8635 
L 207.128402 309.8635 
L 205.137638 309.8635 
L 203.080515 309.8635 
L 201.15611 277.687124 
L 199.098987 277.687124 
L 197.041864 278.974179 
L 195.0511 276.078305 
L 192.993977 273.825959 
L 191.003212 267.390684 
L 188.946089 276.400069 
L 186.888966 287.983564 
L 184.898202 309.8635 
L 182.841079 309.8635 
L 180.850315 309.8635 
L 178.793192 259.668354 
L 176.935145 309.8635 
L 174.878022 309.8635 
L 172.820899 309.8635 
L 170.830135 266.103629 
L 168.773012 309.8635 
L 166.782248 277.687124 
L 164.725125 275.113014 
L 162.668002 275.113014 
L 160.677238 268.677739 
L 158.620115 309.8635 
L 156.629351 263.207755 
L 154.572228 260.955409 
L 152.714181 263.529519 
L 150.657058 255.807189 
L 148.599935 258.381299 
L 146.609171 257.094244 
L 144.552048 281.548289 
L 142.561284 251.946024 
L 140.50416 262.242464 
L 138.447037 309.8635 
L 136.456273 309.8635 
L 134.39915 309.8635 
L 132.408386 309.8635 
L 130.351263 309.8635 
L 128.493216 309.8635 
L 126.436093 309.8635 
L 124.37897 281.548289 
L 122.388206 309.8635 
L 120.331083 256.77248 
L 118.340319 253.233079 
L 116.283196 276.400069 
L 114.226073 309.8635 
L 112.235309 309.8635 
L 110.178186 309.8635 
L 108.187422 309.8635 
L 106.130299 309.8635 
L 104.205893 309.8635 
L 102.14877 309.8635 
L 100.091647 309.8635 
L 98.100883 309.8635 
L 96.04376 309.8635 
L 94.052996 309.8635 
L 91.995873 254.520134 
L 89.93875 309.8635 
L 87.947986 309.8635 
L 85.890863 309.8635 
L 83.900098 309.8635 
L 81.842975 309.8635 
L 79.984929 309.8635 
L 77.927806 309.8635 
L 75.870683 296.349422 
L 73.879919 309.8635 
L 71.822796 257.094244 
L 69.832031 309.8635 
L 67.774908 246.797803 
L 65.717785 309.8635 
L 63.727021 309.8635 
L 61.669898 309.8635 
L 59.679134 248.084858 
L 57.622011 250.658969 
L 55.763964 250.658969 
L 53.706841 248.084858 
L 51.649718 254.520134 
L 49.658954 245.510748 
L 47.601831 245.510748 
L 45.611067 245.510748 
L 43.553944 246.797803 
L 41.496821 246.797803 
L 39.506057 245.510748 
L 37.448934 309.8635 
L 35.45817 246.797803 
L 33.401047 249.371914 
L 31.543 245.510748 
z
" style="fill:#808080;fill-opacity:0.6;"/>
   </g>
   <g id="matplotlib.axis_1">
    <g id="xtick_1">
     <g id="line2d_1">
      <path clip-path="url(#p4916f91fd1)" d="M 77.994165 309.8635 
L 77.994165 23.36505 
" style="fill:none;stroke:#b0b0b0;stroke-linecap:square;stroke-width:0.8;"/>
     </g>
     <g id="line2d_2">
      <defs>
       <path d="M 0 0 
L 0 3.5 
" id="m8534d03a2b" style="stroke:#000000;stroke-width:0.8;"/>
      </defs>
      <g>
       <use style="stroke:#000000;stroke-width:0.8;" x="77.994165" xlink:href="#m8534d03a2b" y="309.8635"/>
      </g>
     </g>
     <g id="text_1">
      <!-- 2003 -->
      <defs>
       <path d="M 19.1875 8.296875 
L 53.609375 8.296875 
L 53.609375 0 
L 7.328125 0 
L 7.328125 8.296875 
Q 12.9375 14.109375 22.625 23.890625 
Q 32.328125 33.6875 34.8125 36.53125 
Q 39.546875 41.84375 41.421875 45.53125 
Q 43.3125 49.21875 43.3125 52.78125 
Q 43.3125 58.59375 39.234375 62.25 
Q 35.15625 65.921875 28.609375 65.921875 
Q 23.96875 65.921875 18.8125 64.3125 
Q 13.671875 62.703125 7.8125 59.421875 
L 7.8125 69.390625 
Q 13.765625 71.78125 18.9375 73 
Q 24.125 74.21875 28.421875 74.21875 
Q 39.75 74.21875 46.484375 68.546875 
Q 53.21875 62.890625 53.21875 53.421875 
Q 53.21875 48.921875 51.53125 44.890625 
Q 49.859375 40.875 45.40625 35.40625 
Q 44.1875 33.984375 37.640625 27.21875 
Q 31.109375 20.453125 19.1875 8.296875 
z
" id="DejaVuSans-32"/>
       <path d="M 31.78125 66.40625 
Q 24.171875 66.40625 20.328125 58.90625 
Q 16.5 51.421875 16.5 36.375 
Q 16.5 21.390625 20.328125 13.890625 
Q 24.171875 6.390625 31.78125 6.390625 
Q 39.453125 6.390625 43.28125 13.890625 
Q 47.125 21.390625 47.125 36.375 
Q 47.125 51.421875 43.28125 58.90625 
Q 39.453125 66.40625 31.78125 66.40625 
z
M 31.78125 74.21875 
Q 44.046875 74.21875 50.515625 64.515625 
Q 56.984375 54.828125 56.984375 36.375 
Q 56.984375 17.96875 50.515625 8.265625 
Q 44.046875 -1.421875 31.78125 -1.421875 
Q 19.53125 -1.421875 13.0625 8.265625 
Q 6.59375 17.96875 6.59375 36.375 
Q 6.59375 54.828125 13.0625 64.515625 
Q 19.53125 74.21875 31.78125 74.21875 
z
" id="DejaVuSans-30"/>
       <path d="M 40.578125 39.3125 
Q 47.65625 37.796875 51.625 33 
Q 55.609375 28.21875 55.609375 21.1875 
Q 55.609375 10.40625 48.1875 4.484375 
Q 40.765625 -1.421875 27.09375 -1.421875 
Q 22.515625 -1.421875 17.65625 -0.515625 
Q 12.796875 0.390625 7.625 2.203125 
L 7.625 11.71875 
Q 11.71875 9.328125 16.59375 8.109375 
Q 21.484375 6.890625 26.8125 6.890625 
Q 36.078125 6.890625 40.9375 10.546875 
Q 45.796875 14.203125 45.796875 21.1875 
Q 45.796875 27.640625 41.28125 31.265625 
Q 36.765625 34.90625 28.71875 34.90625 
L 20.21875 34.90625 
L 20.21875 43.015625 
L 29.109375 43.015625 
Q 36.375 43.015625 40.234375 45.921875 
Q 44.09375 48.828125 44.09375 54.296875 
Q 44.09375 59.90625 40.109375 62.90625 
Q 36.140625 65.921875 28.71875 65.921875 
Q 24.65625 65.921875 20.015625 65.03125 
Q 15.375 64.15625 9.8125 62.3125 
L 9.8125 71.09375 
Q 15.4375 72.65625 20.34375 73.4375 
Q 25.25 74.21875 29.59375 74.21875 
Q 40.828125 74.21875 47.359375 69.109375 
Q 53.90625 64.015625 53.90625 55.328125 
Q 53.90625 49.265625 50.4375 45.09375 
Q 46.96875 40.921875 40.578125 39.3125 
z
" id="DejaVuSans-33"/>
      </defs>
      <g transform="translate(65.269165 324.461937)scale(0.1 -0.1)">
       <use xlink:href="#DejaVuSans-32"/>
       <use x="63.623047" xlink:href="#DejaVuSans-30"/>
       <use x="127.246094" xlink:href="#DejaVuSans-30"/>
       <use x="190.869141" xlink:href="#DejaVuSans-33"/>
      </g>
     </g>
    </g>
    <g id="xtick_2">
     <g id="line2d_3">
      <path clip-path="url(#p4916f91fd1)" d="M 126.502452 309.8635 
L 126.502452 23.36505 
" style="fill:none;stroke:#b0b0b0;stroke-linecap:square;stroke-width:0.8;"/>
     </g>
     <g id="line2d_4">
      <g>
       <use style="stroke:#000000;stroke-width:0.8;" x="126.502452" xlink:href="#m8534d03a2b" y="309.8635"/>
      </g>
     </g>
     <g id="text_2">
      <!-- 2005 -->
      <defs>
       <path d="M 10.796875 72.90625 
L 49.515625 72.90625 
L 49.515625 64.59375 
L 19.828125 64.59375 
L 19.828125 46.734375 
Q 21.96875 47.46875 24.109375 47.828125 
Q 26.265625 48.1875 28.421875 48.1875 
Q 40.625 48.1875 47.75 41.5 
Q 54.890625 34.8125 54.890625 23.390625 
Q 54.890625 11.625 47.5625 5.09375 
Q 40.234375 -1.421875 26.90625 -1.421875 
Q 22.3125 -1.421875 17.546875 -0.640625 
Q 12.796875 0.140625 7.71875 1.703125 
L 7.71875 11.625 
Q 12.109375 9.234375 16.796875 8.0625 
Q 21.484375 6.890625 26.703125 6.890625 
Q 35.15625 6.890625 40.078125 11.328125 
Q 45.015625 15.765625 45.015625 23.390625 
Q 45.015625 31 40.078125 35.4375 
Q 35.15625 39.890625 26.703125 39.890625 
Q 22.75 39.890625 18.8125 39.015625 
Q 14.890625 38.140625 10.796875 36.28125 
z
" id="DejaVuSans-35"/>
      </defs>
      <g transform="translate(113.777452 324.461937)scale(0.1 -0.1)">
       <use xlink:href="#DejaVuSans-32"/>
       <use x="63.623047" xlink:href="#DejaVuSans-30"/>
       <use x="127.246094" xlink:href="#DejaVuSans-30"/>
       <use x="190.869141" xlink:href="#DejaVuSans-35"/>
      </g>
     </g>
    </g>
    <g id="xtick_3">
     <g id="line2d_5">
      <path clip-path="url(#p4916f91fd1)" d="M 174.944381 309.8635 
L 174.944381 23.36505 
" style="fill:none;stroke:#b0b0b0;stroke-linecap:square;stroke-width:0.8;"/>
     </g>
     <g id="line2d_6">
      <g>
       <use style="stroke:#000000;stroke-width:0.8;" x="174.944381" xlink:href="#m8534d03a2b" y="309.8635"/>
      </g>
     </g>
     <g id="text_3">
      <!-- 2007 -->
      <defs>
       <path d="M 8.203125 72.90625 
L 55.078125 72.90625 
L 55.078125 68.703125 
L 28.609375 0 
L 18.3125 0 
L 43.21875 64.59375 
L 8.203125 64.59375 
z
" id="DejaVuSans-37"/>
      </defs>
      <g transform="translate(162.219381 324.461937)scale(0.1 -0.1)">
       <use xlink:href="#DejaVuSans-32"/>
       <use x="63.623047" xlink:href="#DejaVuSans-30"/>
       <use x="127.246094" xlink:href="#DejaVuSans-30"/>
       <use x="190.869141" xlink:href="#DejaVuSans-37"/>
      </g>
     </g>
    </g>
    <g id="xtick_4">
     <g id="line2d_7">
      <path clip-path="url(#p4916f91fd1)" d="M 223.452669 309.8635 
L 223.452669 23.36505 
" style="fill:none;stroke:#b0b0b0;stroke-linecap:square;stroke-width:0.8;"/>
     </g>
     <g id="line2d_8">
      <g>
       <use style="stroke:#000000;stroke-width:0.8;" x="223.452669" xlink:href="#m8534d03a2b" y="309.8635"/>
      </g>
     </g>
     <g id="text_4">
      <!-- 2009 -->
      <defs>
       <path d="M 10.984375 1.515625 
L 10.984375 10.5 
Q 14.703125 8.734375 18.5 7.8125 
Q 22.3125 6.890625 25.984375 6.890625 
Q 35.75 6.890625 40.890625 13.453125 
Q 46.046875 20.015625 46.78125 33.40625 
Q 43.953125 29.203125 39.59375 26.953125 
Q 35.25 24.703125 29.984375 24.703125 
Q 19.046875 24.703125 12.671875 31.3125 
Q 6.296875 37.9375 6.296875 49.421875 
Q 6.296875 60.640625 12.9375 67.421875 
Q 19.578125 74.21875 30.609375 74.21875 
Q 43.265625 74.21875 49.921875 64.515625 
Q 56.59375 54.828125 56.59375 36.375 
Q 56.59375 19.140625 48.40625 8.859375 
Q 40.234375 -1.421875 26.421875 -1.421875 
Q 22.703125 -1.421875 18.890625 -0.6875 
Q 15.09375 0.046875 10.984375 1.515625 
z
M 30.609375 32.421875 
Q 37.25 32.421875 41.125 36.953125 
Q 45.015625 41.5 45.015625 49.421875 
Q 45.015625 57.28125 41.125 61.84375 
Q 37.25 66.40625 30.609375 66.40625 
Q 23.96875 66.40625 20.09375 61.84375 
Q 16.21875 57.28125 16.21875 49.421875 
Q 16.21875 41.5 20.09375 36.953125 
Q 23.96875 32.421875 30.609375 32.421875 
z
" id="DejaVuSans-39"/>
      </defs>
      <g transform="translate(210.727669 324.461937)scale(0.1 -0.1)">
       <use xlink:href="#DejaVuSans-32"/>
       <use x="63.623047" xlink:href="#DejaVuSans-30"/>
       <use x="127.246094" xlink:href="#DejaVuSans-30"/>
       <use x="190.869141" xlink:href="#DejaVuSans-39"/>
      </g>
     </g>
    </g>
    <g id="xtick_5">
     <g id="line2d_9">
      <path clip-path="url(#p4916f91fd1)" d="M 271.894598 309.8635 
L 271.894598 23.36505 
" style="fill:none;stroke:#b0b0b0;stroke-linecap:square;stroke-width:0.8;"/>
     </g>
     <g id="line2d_10">
      <g>
       <use style="stroke:#000000;stroke-width:0.8;" x="271.894598" xlink:href="#m8534d03a2b" y="309.8635"/>
      </g>
     </g>
     <g id="text_5">
      <!-- 2011 -->
      <defs>
       <path d="M 12.40625 8.296875 
L 28.515625 8.296875 
L 28.515625 63.921875 
L 10.984375 60.40625 
L 10.984375 69.390625 
L 28.421875 72.90625 
L 38.28125 72.90625 
L 38.28125 8.296875 
L 54.390625 8.296875 
L 54.390625 0 
L 12.40625 0 
z
" id="DejaVuSans-31"/>
      </defs>
      <g transform="translate(259.169598 324.461937)scale(0.1 -0.1)">
       <use xlink:href="#DejaVuSans-32"/>
       <use x="63.623047" xlink:href="#DejaVuSans-30"/>
       <use x="127.246094" xlink:href="#DejaVuSans-31"/>
       <use x="190.869141" xlink:href="#DejaVuSans-31"/>
      </g>
     </g>
    </g>
    <g id="xtick_6">
     <g id="line2d_11">
      <path clip-path="url(#p4916f91fd1)" d="M 320.402885 309.8635 
L 320.402885 23.36505 
" style="fill:none;stroke:#b0b0b0;stroke-linecap:square;stroke-width:0.8;"/>
     </g>
     <g id="line2d_12">
      <g>
       <use style="stroke:#000000;stroke-width:0.8;" x="320.402885" xlink:href="#m8534d03a2b" y="309.8635"/>
      </g>
     </g>
     <g id="text_6">
      <!-- 2013 -->
      <g transform="translate(307.677885 324.461937)scale(0.1 -0.1)">
       <use xlink:href="#DejaVuSans-32"/>
       <use x="63.623047" xlink:href="#DejaVuSans-30"/>
       <use x="127.246094" xlink:href="#DejaVuSans-31"/>
       <use x="190.869141" xlink:href="#DejaVuSans-33"/>
      </g>
     </g>
    </g>
    <g id="xtick_7">
     <g id="line2d_13">
      <path clip-path="url(#p4916f91fd1)" d="M 368.844814 309.8635 
L 368.844814 23.36505 
" style="fill:none;stroke:#b0b0b0;stroke-linecap:square;stroke-width:0.8;"/>
     </g>
     <g id="line2d_14">
      <g>
       <use style="stroke:#000000;stroke-width:0.8;" x="368.844814" xlink:href="#m8534d03a2b" y="309.8635"/>
      </g>
     </g>
     <g id="text_7">
      <!-- 2015 -->
      <g transform="translate(356.119814 324.461937)scale(0.1 -0.1)">
       <use xlink:href="#DejaVuSans-32"/>
       <use x="63.623047" xlink:href="#DejaVuSans-30"/>
       <use x="127.246094" xlink:href="#DejaVuSans-31"/>
       <use x="190.869141" xlink:href="#DejaVuSans-35"/>
      </g>
     </g>
    </g>
    <g id="xtick_8">
     <g id="line2d_15">
      <path clip-path="url(#p4916f91fd1)" d="M 417.353102 309.8635 
L 417.353102 23.36505 
" style="fill:none;stroke:#b0b0b0;stroke-linecap:square;stroke-width:0.8;"/>
     </g>
     <g id="line2d_16">
      <g>
       <use style="stroke:#000000;stroke-width:0.8;" x="417.353102" xlink:href="#m8534d03a2b" y="309.8635"/>
      </g>
     </g>
     <g id="text_8">
      <!-- 2017 -->
      <g transform="translate(404.628102 324.461937)scale(0.1 -0.1)">
       <use xlink:href="#DejaVuSans-32"/>
       <use x="63.623047" xlink:href="#DejaVuSans-30"/>
       <use x="127.246094" xlink:href="#DejaVuSans-31"/>
       <use x="190.869141" xlink:href="#DejaVuSans-37"/>
      </g>
     </g>
    </g>
    <g id="text_9">
     <!-- Date -->
     <defs>
      <path d="M 19.671875 64.796875 
L 19.671875 8.109375 
L 31.59375 8.109375 
Q 46.6875 8.109375 53.6875 14.9375 
Q 60.6875 21.78125 60.6875 36.53125 
Q 60.6875 51.171875 53.6875 57.984375 
Q 46.6875 64.796875 31.59375 64.796875 
z
M 9.8125 72.90625 
L 30.078125 72.90625 
Q 51.265625 72.90625 61.171875 64.09375 
Q 71.09375 55.28125 71.09375 36.53125 
Q 71.09375 17.671875 61.125 8.828125 
Q 51.171875 0 30.078125 0 
L 9.8125 0 
z
" id="DejaVuSans-44"/>
      <path d="M 34.28125 27.484375 
Q 23.390625 27.484375 19.1875 25 
Q 14.984375 22.515625 14.984375 16.5 
Q 14.984375 11.71875 18.140625 8.90625 
Q 21.296875 6.109375 26.703125 6.109375 
Q 34.1875 6.109375 38.703125 11.40625 
Q 43.21875 16.703125 43.21875 25.484375 
L 43.21875 27.484375 
z
M 52.203125 31.203125 
L 52.203125 0 
L 43.21875 0 
L 43.21875 8.296875 
Q 40.140625 3.328125 35.546875 0.953125 
Q 30.953125 -1.421875 24.3125 -1.421875 
Q 15.921875 -1.421875 10.953125 3.296875 
Q 6 8.015625 6 15.921875 
Q 6 25.140625 12.171875 29.828125 
Q 18.359375 34.515625 30.609375 34.515625 
L 43.21875 34.515625 
L 43.21875 35.40625 
Q 43.21875 41.609375 39.140625 45 
Q 35.0625 48.390625 27.6875 48.390625 
Q 23 48.390625 18.546875 47.265625 
Q 14.109375 46.140625 10.015625 43.890625 
L 10.015625 52.203125 
Q 14.9375 54.109375 19.578125 55.046875 
Q 24.21875 56 28.609375 56 
Q 40.484375 56 46.34375 49.84375 
Q 52.203125 43.703125 52.203125 31.203125 
z
" id="DejaVuSans-61"/>
      <path d="M 18.3125 70.21875 
L 18.3125 54.6875 
L 36.8125 54.6875 
L 36.8125 47.703125 
L 18.3125 47.703125 
L 18.3125 18.015625 
Q 18.3125 11.328125 20.140625 9.421875 
Q 21.96875 7.515625 27.59375 7.515625 
L 36.8125 7.515625 
L 36.8125 0 
L 27.59375 0 
Q 17.1875 0 13.234375 3.875 
Q 9.28125 7.765625 9.28125 18.015625 
L 9.28125 47.703125 
L 2.6875 47.703125 
L 2.6875 54.6875 
L 9.28125 54.6875 
L 9.28125 70.21875 
z
" id="DejaVuSans-74"/>
      <path d="M 56.203125 29.59375 
L 56.203125 25.203125 
L 14.890625 25.203125 
Q 15.484375 15.921875 20.484375 11.0625 
Q 25.484375 6.203125 34.421875 6.203125 
Q 39.59375 6.203125 44.453125 7.46875 
Q 49.3125 8.734375 54.109375 11.28125 
L 54.109375 2.78125 
Q 49.265625 0.734375 44.1875 -0.34375 
Q 39.109375 -1.421875 33.890625 -1.421875 
Q 20.796875 -1.421875 13.15625 6.1875 
Q 5.515625 13.8125 5.515625 26.8125 
Q 5.515625 40.234375 12.765625 48.109375 
Q 20.015625 56 32.328125 56 
Q 43.359375 56 49.78125 48.890625 
Q 56.203125 41.796875 56.203125 29.59375 
z
M 47.21875 32.234375 
Q 47.125 39.59375 43.09375 43.984375 
Q 39.0625 48.390625 32.421875 48.390625 
Q 24.90625 48.390625 20.390625 44.140625 
Q 15.875 39.890625 15.1875 32.171875 
z
" id="DejaVuSans-65"/>
     </defs>
     <g transform="translate(227.560719 338.140062)scale(0.1 -0.1)">
      <use xlink:href="#DejaVuSans-44"/>
      <use x="77.001953" xlink:href="#DejaVuSans-61"/>
      <use x="138.28125" xlink:href="#DejaVuSans-74"/>
      <use x="177.490234" xlink:href="#DejaVuSans-65"/>
     </g>
    </g>
   </g>
   <g id="matplotlib.axis_2">
    <g id="ytick_1">
     <g id="line2d_17">
      <path clip-path="url(#p4916f91fd1)" d="M 31.543 309.8635 
L 447.48 309.8635 
" style="fill:none;stroke:#b0b0b0;stroke-linecap:square;stroke-width:0.8;"/>
     </g>
     <g id="line2d_18">
      <defs>
       <path d="M 0 0 
L -3.5 0 
" id="me5dd605643" style="stroke:#000000;stroke-width:0.8;"/>
      </defs>
      <g>
       <use style="stroke:#000000;stroke-width:0.8;" x="31.543" xlink:href="#me5dd605643" y="309.8635"/>
      </g>
     </g>
     <g id="text_10">
      <!-- 0 -->
      <g transform="translate(18.1805 313.662719)scale(0.1 -0.1)">
       <use xlink:href="#DejaVuSans-30"/>
      </g>
     </g>
    </g>
    <g id="ytick_2">
     <g id="line2d_19">
      <path clip-path="url(#p4916f91fd1)" d="M 31.543 277.687124 
L 447.48 277.687124 
" style="fill:none;stroke:#b0b0b0;stroke-linecap:square;stroke-width:0.8;"/>
     </g>
     <g id="line2d_20">
      <g>
       <use style="stroke:#000000;stroke-width:0.8;" x="31.543" xlink:href="#me5dd605643" y="277.687124"/>
      </g>
     </g>
     <g id="text_11">
      <!-- 25 -->
      <g transform="translate(11.818 281.486343)scale(0.1 -0.1)">
       <use xlink:href="#DejaVuSans-32"/>
       <use x="63.623047" xlink:href="#DejaVuSans-35"/>
      </g>
     </g>
    </g>
    <g id="ytick_3">
     <g id="line2d_21">
      <path clip-path="url(#p4916f91fd1)" d="M 31.543 245.510748 
L 447.48 245.510748 
" style="fill:none;stroke:#b0b0b0;stroke-linecap:square;stroke-width:0.8;"/>
     </g>
     <g id="line2d_22">
      <g>
       <use style="stroke:#000000;stroke-width:0.8;" x="31.543" xlink:href="#me5dd605643" y="245.510748"/>
      </g>
     </g>
     <g id="text_12">
      <!-- 50 -->
      <g transform="translate(11.818 249.309967)scale(0.1 -0.1)">
       <use xlink:href="#DejaVuSans-35"/>
       <use x="63.623047" xlink:href="#DejaVuSans-30"/>
      </g>
     </g>
    </g>
    <g id="ytick_4">
     <g id="line2d_23">
      <path clip-path="url(#p4916f91fd1)" d="M 31.543 213.334373 
L 447.48 213.334373 
" style="fill:none;stroke:#b0b0b0;stroke-linecap:square;stroke-width:0.8;"/>
     </g>
     <g id="line2d_24">
      <g>
       <use style="stroke:#000000;stroke-width:0.8;" x="31.543" xlink:href="#me5dd605643" y="213.334373"/>
      </g>
     </g>
     <g id="text_13">
      <!-- 75 -->
      <g transform="translate(11.818 217.133591)scale(0.1 -0.1)">
       <use xlink:href="#DejaVuSans-37"/>
       <use x="63.623047" xlink:href="#DejaVuSans-35"/>
      </g>
     </g>
    </g>
    <g id="ytick_5">
     <g id="line2d_25">
      <path clip-path="url(#p4916f91fd1)" d="M 31.543 181.157997 
L 447.48 181.157997 
" style="fill:none;stroke:#b0b0b0;stroke-linecap:square;stroke-width:0.8;"/>
     </g>
     <g id="line2d_26">
      <g>
       <use style="stroke:#000000;stroke-width:0.8;" x="31.543" xlink:href="#me5dd605643" y="181.157997"/>
      </g>
     </g>
     <g id="text_14">
      <!-- 100 -->
      <g transform="translate(5.4555 184.957216)scale(0.1 -0.1)">
       <use xlink:href="#DejaVuSans-31"/>
       <use x="63.623047" xlink:href="#DejaVuSans-30"/>
       <use x="127.246094" xlink:href="#DejaVuSans-30"/>
      </g>
     </g>
    </g>
    <g id="ytick_6">
     <g id="line2d_27">
      <path clip-path="url(#p4916f91fd1)" d="M 31.543 148.981621 
L 447.48 148.981621 
" style="fill:none;stroke:#b0b0b0;stroke-linecap:square;stroke-width:0.8;"/>
     </g>
     <g id="line2d_28">
      <g>
       <use style="stroke:#000000;stroke-width:0.8;" x="31.543" xlink:href="#me5dd605643" y="148.981621"/>
      </g>
     </g>
     <g id="text_15">
      <!-- 125 -->
      <g transform="translate(5.4555 152.78084)scale(0.1 -0.1)">
       <use xlink:href="#DejaVuSans-31"/>
       <use x="63.623047" xlink:href="#DejaVuSans-32"/>
       <use x="127.246094" xlink:href="#DejaVuSans-35"/>
      </g>
     </g>
    </g>
    <g id="ytick_7">
     <g id="line2d_29">
      <path clip-path="url(#p4916f91fd1)" d="M 31.543 116.805245 
L 447.48 116.805245 
" style="fill:none;stroke:#b0b0b0;stroke-linecap:square;stroke-width:0.8;"/>
     </g>
     <g id="line2d_30">
      <g>
       <use style="stroke:#000000;stroke-width:0.8;" x="31.543" xlink:href="#me5dd605643" y="116.805245"/>
      </g>
     </g>
     <g id="text_16">
      <!-- 150 -->
      <g transform="translate(5.4555 120.604464)scale(0.1 -0.1)">
       <use xlink:href="#DejaVuSans-31"/>
       <use x="63.623047" xlink:href="#DejaVuSans-35"/>
       <use x="127.246094" xlink:href="#DejaVuSans-30"/>
      </g>
     </g>
    </g>
    <g id="ytick_8">
     <g id="line2d_31">
      <path clip-path="url(#p4916f91fd1)" d="M 31.543 84.628869 
L 447.48 84.628869 
" style="fill:none;stroke:#b0b0b0;stroke-linecap:square;stroke-width:0.8;"/>
     </g>
     <g id="line2d_32">
      <g>
       <use style="stroke:#000000;stroke-width:0.8;" x="31.543" xlink:href="#me5dd605643" y="84.628869"/>
      </g>
     </g>
     <g id="text_17">
      <!-- 175 -->
      <g transform="translate(5.4555 88.428088)scale(0.1 -0.1)">
       <use xlink:href="#DejaVuSans-31"/>
       <use x="63.623047" xlink:href="#DejaVuSans-37"/>
       <use x="127.246094" xlink:href="#DejaVuSans-35"/>
      </g>
     </g>
    </g>
    <g id="ytick_9">
     <g id="line2d_33">
      <path clip-path="url(#p4916f91fd1)" d="M 31.543 52.452494 
L 447.48 52.452494 
" style="fill:none;stroke:#b0b0b0;stroke-linecap:square;stroke-width:0.8;"/>
     </g>
     <g id="line2d_34">
      <g>
       <use style="stroke:#000000;stroke-width:0.8;" x="31.543" xlink:href="#me5dd605643" y="52.452494"/>
      </g>
     </g>
     <g id="text_18">
      <!-- 200 -->
      <g transform="translate(5.4555 56.251712)scale(0.1 -0.1)">
       <use xlink:href="#DejaVuSans-32"/>
       <use x="63.623047" xlink:href="#DejaVuSans-30"/>
       <use x="127.246094" xlink:href="#DejaVuSans-30"/>
      </g>
     </g>
    </g>
   </g>
   <g id="line2d_35">
    <path clip-path="url(#p4916f91fd1)" d="M 31.543 250.658969 
L 33.401047 255.807189 
L 35.45817 249.371914 
L 37.448934 309.8635 
L 39.506057 246.797803 
L 41.496821 249.371914 
L 43.553944 255.807189 
L 45.611067 245.510748 
L 47.601831 246.797803 
L 49.658954 249.371914 
L 51.649718 309.8635 
L 53.706841 250.658969 
L 55.763964 254.520134 
L 57.622011 254.520134 
L 59.679134 248.084858 
L 61.669898 309.8635 
L 65.717785 309.8635 
L 67.774908 258.381299 
L 69.832031 309.8635 
L 89.93875 309.8635 
L 91.995873 279.617707 
L 94.052996 309.8635 
L 144.552048 309.8635 
L 146.609171 266.747156 
L 148.599935 263.529519 
L 150.657058 262.242464 
L 152.714181 268.677739 
L 156.629351 268.677739 
L 158.620115 309.8635 
L 160.677238 277.687124 
L 162.668002 281.548289 
L 164.725125 280.261234 
L 166.782248 309.8635 
L 168.773012 309.8635 
L 170.830135 277.687124 
L 172.820899 309.8635 
L 176.935145 309.8635 
L 178.793192 267.390684 
L 180.850315 309.8635 
L 186.888966 309.8635 
L 188.946089 280.261234 
L 191.003212 309.8635 
L 197.041864 309.8635 
L 199.098987 307.28939 
L 201.15611 309.8635 
L 215.290536 309.8635 
L 217.2813 284.122399 
L 219.338423 309.8635 
L 243.559387 309.8635 
L 245.550151 269.964794 
L 247.607274 309.8635 
L 255.570331 309.8635 
L 257.627454 287.983564 
L 259.618218 278.974179 
L 261.675341 309.8635 
L 275.743408 309.8635 
L 277.800531 272.538904 
L 279.791296 309.8635 
L 281.848419 271.895377 
L 283.839183 277.687124 
L 285.896306 309.8635 
L 296.049203 309.8635 
L 298.106326 271.251849 
L 300.030732 309.8635 
L 316.288639 309.8635 
L 318.279403 219.769648 
L 320.336526 309.8635 
L 332.34747 309.8635 
L 334.404593 284.122399 
L 336.461716 309.8635 
L 338.452481 309.8635 
L 340.509604 266.103629 
L 342.500368 282.191817 
L 344.557491 309.8635 
L 350.529784 309.8635 
L 352.520548 281.548289 
L 354.577671 287.983564 
L 356.568435 282.835344 
L 358.625558 233.927253 
L 360.682681 271.251849 
L 362.673445 297.636477 
L 364.730568 266.103629 
L 366.721332 309.8635 
L 374.750748 309.8635 
L 376.741512 285.409454 
L 378.798635 309.8635 
L 380.789399 287.983564 
L 382.846522 269.964794 
L 384.903645 284.122399 
L 386.89441 287.983564 
L 388.951533 260.311881 
L 390.942297 309.8635 
L 399.038071 309.8635 
L 401.028835 271.251849 
L 403.085958 309.8635 
L 411.181733 309.8635 
L 413.238856 264.816574 
L 415.22962 309.8635 
L 423.259036 309.8635 
L 425.2498 263.529519 
L 427.306923 271.251849 
L 429.297687 309.8635 
L 431.35481 309.8635 
L 433.411933 298.280005 
L 435.402697 303.428225 
L 437.45982 309.8635 
L 439.450584 309.8635 
L 441.507707 235.214308 
L 443.56483 309.8635 
L 447.48 309.8635 
L 447.48 309.8635 
" style="fill:none;stroke:#1f77b4;stroke-linecap:square;stroke-width:1.5;"/>
   </g>
   <g id="patch_3">
    <path d="M 31.543 309.8635 
L 31.543 23.36505 
" style="fill:none;stroke:#000000;stroke-linecap:square;stroke-linejoin:miter;stroke-width:0.8;"/>
   </g>
   <g id="patch_4">
    <path d="M 447.48 309.8635 
L 447.48 23.36505 
" style="fill:none;stroke:#000000;stroke-linecap:square;stroke-linejoin:miter;stroke-width:0.8;"/>
   </g>
   <g id="patch_5">
    <path d="M 31.543 309.8635 
L 447.48 309.8635 
" style="fill:none;stroke:#000000;stroke-linecap:square;stroke-linejoin:miter;stroke-width:0.8;"/>
   </g>
   <g id="patch_6">
    <path d="M 31.543 23.36505 
L 447.48 23.36505 
" style="fill:none;stroke:#000000;stroke-linecap:square;stroke-linejoin:miter;stroke-width:0.8;"/>
   </g>
   <g id="text_19">
    <!-- Monthly gross load trend (MW) -->
    <defs>
     <path d="M 9.8125 72.90625 
L 24.515625 72.90625 
L 43.109375 23.296875 
L 61.8125 72.90625 
L 76.515625 72.90625 
L 76.515625 0 
L 66.890625 0 
L 66.890625 64.015625 
L 48.09375 14.015625 
L 38.1875 14.015625 
L 19.390625 64.015625 
L 19.390625 0 
L 9.8125 0 
z
" id="DejaVuSans-4d"/>
     <path d="M 30.609375 48.390625 
Q 23.390625 48.390625 19.1875 42.75 
Q 14.984375 37.109375 14.984375 27.296875 
Q 14.984375 17.484375 19.15625 11.84375 
Q 23.34375 6.203125 30.609375 6.203125 
Q 37.796875 6.203125 41.984375 11.859375 
Q 46.1875 17.53125 46.1875 27.296875 
Q 46.1875 37.015625 41.984375 42.703125 
Q 37.796875 48.390625 30.609375 48.390625 
z
M 30.609375 56 
Q 42.328125 56 49.015625 48.375 
Q 55.71875 40.765625 55.71875 27.296875 
Q 55.71875 13.875 49.015625 6.21875 
Q 42.328125 -1.421875 30.609375 -1.421875 
Q 18.84375 -1.421875 12.171875 6.21875 
Q 5.515625 13.875 5.515625 27.296875 
Q 5.515625 40.765625 12.171875 48.375 
Q 18.84375 56 30.609375 56 
z
" id="DejaVuSans-6f"/>
     <path d="M 54.890625 33.015625 
L 54.890625 0 
L 45.90625 0 
L 45.90625 32.71875 
Q 45.90625 40.484375 42.875 44.328125 
Q 39.84375 48.1875 33.796875 48.1875 
Q 26.515625 48.1875 22.3125 43.546875 
Q 18.109375 38.921875 18.109375 30.90625 
L 18.109375 0 
L 9.078125 0 
L 9.078125 54.6875 
L 18.109375 54.6875 
L 18.109375 46.1875 
Q 21.34375 51.125 25.703125 53.5625 
Q 30.078125 56 35.796875 56 
Q 45.21875 56 50.046875 50.171875 
Q 54.890625 44.34375 54.890625 33.015625 
z
" id="DejaVuSans-6e"/>
     <path d="M 54.890625 33.015625 
L 54.890625 0 
L 45.90625 0 
L 45.90625 32.71875 
Q 45.90625 40.484375 42.875 44.328125 
Q 39.84375 48.1875 33.796875 48.1875 
Q 26.515625 48.1875 22.3125 43.546875 
Q 18.109375 38.921875 18.109375 30.90625 
L 18.109375 0 
L 9.078125 0 
L 9.078125 75.984375 
L 18.109375 75.984375 
L 18.109375 46.1875 
Q 21.34375 51.125 25.703125 53.5625 
Q 30.078125 56 35.796875 56 
Q 45.21875 56 50.046875 50.171875 
Q 54.890625 44.34375 54.890625 33.015625 
z
" id="DejaVuSans-68"/>
     <path d="M 9.421875 75.984375 
L 18.40625 75.984375 
L 18.40625 0 
L 9.421875 0 
z
" id="DejaVuSans-6c"/>
     <path d="M 32.171875 -5.078125 
Q 28.375 -14.84375 24.75 -17.8125 
Q 21.140625 -20.796875 15.09375 -20.796875 
L 7.90625 -20.796875 
L 7.90625 -13.28125 
L 13.1875 -13.28125 
Q 16.890625 -13.28125 18.9375 -11.515625 
Q 21 -9.765625 23.484375 -3.21875 
L 25.09375 0.875 
L 2.984375 54.6875 
L 12.5 54.6875 
L 29.59375 11.921875 
L 46.6875 54.6875 
L 56.203125 54.6875 
z
" id="DejaVuSans-79"/>
     <path id="DejaVuSans-20"/>
     <path d="M 45.40625 27.984375 
Q 45.40625 37.75 41.375 43.109375 
Q 37.359375 48.484375 30.078125 48.484375 
Q 22.859375 48.484375 18.828125 43.109375 
Q 14.796875 37.75 14.796875 27.984375 
Q 14.796875 18.265625 18.828125 12.890625 
Q 22.859375 7.515625 30.078125 7.515625 
Q 37.359375 7.515625 41.375 12.890625 
Q 45.40625 18.265625 45.40625 27.984375 
z
M 54.390625 6.78125 
Q 54.390625 -7.171875 48.1875 -13.984375 
Q 42 -20.796875 29.203125 -20.796875 
Q 24.46875 -20.796875 20.265625 -20.09375 
Q 16.0625 -19.390625 12.109375 -17.921875 
L 12.109375 -9.1875 
Q 16.0625 -11.328125 19.921875 -12.34375 
Q 23.78125 -13.375 27.78125 -13.375 
Q 36.625 -13.375 41.015625 -8.765625 
Q 45.40625 -4.15625 45.40625 5.171875 
L 45.40625 9.625 
Q 42.625 4.78125 38.28125 2.390625 
Q 33.9375 0 27.875 0 
Q 17.828125 0 11.671875 7.65625 
Q 5.515625 15.328125 5.515625 27.984375 
Q 5.515625 40.671875 11.671875 48.328125 
Q 17.828125 56 27.875 56 
Q 33.9375 56 38.28125 53.609375 
Q 42.625 51.21875 45.40625 46.390625 
L 45.40625 54.6875 
L 54.390625 54.6875 
z
" id="DejaVuSans-67"/>
     <path d="M 41.109375 46.296875 
Q 39.59375 47.171875 37.8125 47.578125 
Q 36.03125 48 33.890625 48 
Q 26.265625 48 22.1875 43.046875 
Q 18.109375 38.09375 18.109375 28.8125 
L 18.109375 0 
L 9.078125 0 
L 9.078125 54.6875 
L 18.109375 54.6875 
L 18.109375 46.1875 
Q 20.953125 51.171875 25.484375 53.578125 
Q 30.03125 56 36.53125 56 
Q 37.453125 56 38.578125 55.875 
Q 39.703125 55.765625 41.0625 55.515625 
z
" id="DejaVuSans-72"/>
     <path d="M 44.28125 53.078125 
L 44.28125 44.578125 
Q 40.484375 46.53125 36.375 47.5 
Q 32.28125 48.484375 27.875 48.484375 
Q 21.1875 48.484375 17.84375 46.4375 
Q 14.5 44.390625 14.5 40.28125 
Q 14.5 37.15625 16.890625 35.375 
Q 19.28125 33.59375 26.515625 31.984375 
L 29.59375 31.296875 
Q 39.15625 29.25 43.1875 25.515625 
Q 47.21875 21.78125 47.21875 15.09375 
Q 47.21875 7.46875 41.1875 3.015625 
Q 35.15625 -1.421875 24.609375 -1.421875 
Q 20.21875 -1.421875 15.453125 -0.5625 
Q 10.6875 0.296875 5.421875 2 
L 5.421875 11.28125 
Q 10.40625 8.6875 15.234375 7.390625 
Q 20.0625 6.109375 24.8125 6.109375 
Q 31.15625 6.109375 34.5625 8.28125 
Q 37.984375 10.453125 37.984375 14.40625 
Q 37.984375 18.0625 35.515625 20.015625 
Q 33.0625 21.96875 24.703125 23.78125 
L 21.578125 24.515625 
Q 13.234375 26.265625 9.515625 29.90625 
Q 5.8125 33.546875 5.8125 39.890625 
Q 5.8125 47.609375 11.28125 51.796875 
Q 16.75 56 26.8125 56 
Q 31.78125 56 36.171875 55.265625 
Q 40.578125 54.546875 44.28125 53.078125 
z
" id="DejaVuSans-73"/>
     <path d="M 45.40625 46.390625 
L 45.40625 75.984375 
L 54.390625 75.984375 
L 54.390625 0 
L 45.40625 0 
L 45.40625 8.203125 
Q 42.578125 3.328125 38.25 0.953125 
Q 33.9375 -1.421875 27.875 -1.421875 
Q 17.96875 -1.421875 11.734375 6.484375 
Q 5.515625 14.40625 5.515625 27.296875 
Q 5.515625 40.1875 11.734375 48.09375 
Q 17.96875 56 27.875 56 
Q 33.9375 56 38.25 53.625 
Q 42.578125 51.265625 45.40625 46.390625 
z
M 14.796875 27.296875 
Q 14.796875 17.390625 18.875 11.75 
Q 22.953125 6.109375 30.078125 6.109375 
Q 37.203125 6.109375 41.296875 11.75 
Q 45.40625 17.390625 45.40625 27.296875 
Q 45.40625 37.203125 41.296875 42.84375 
Q 37.203125 48.484375 30.078125 48.484375 
Q 22.953125 48.484375 18.875 42.84375 
Q 14.796875 37.203125 14.796875 27.296875 
z
" id="DejaVuSans-64"/>
     <path d="M 31 75.875 
Q 24.46875 64.65625 21.28125 53.65625 
Q 18.109375 42.671875 18.109375 31.390625 
Q 18.109375 20.125 21.3125 9.0625 
Q 24.515625 -2 31 -13.1875 
L 23.1875 -13.1875 
Q 15.875 -1.703125 12.234375 9.375 
Q 8.59375 20.453125 8.59375 31.390625 
Q 8.59375 42.28125 12.203125 53.3125 
Q 15.828125 64.359375 23.1875 75.875 
z
" id="DejaVuSans-28"/>
     <path d="M 3.328125 72.90625 
L 13.28125 72.90625 
L 28.609375 11.28125 
L 43.890625 72.90625 
L 54.984375 72.90625 
L 70.3125 11.28125 
L 85.59375 72.90625 
L 95.609375 72.90625 
L 77.296875 0 
L 64.890625 0 
L 49.515625 63.28125 
L 33.984375 0 
L 21.578125 0 
z
" id="DejaVuSans-57"/>
     <path d="M 8.015625 75.875 
L 15.828125 75.875 
Q 23.140625 64.359375 26.78125 53.3125 
Q 30.421875 42.28125 30.421875 31.390625 
Q 30.421875 20.453125 26.78125 9.375 
Q 23.140625 -1.703125 15.828125 -13.1875 
L 8.015625 -13.1875 
Q 14.5 -2 17.703125 9.0625 
Q 20.90625 20.125 20.90625 31.390625 
Q 20.90625 42.671875 17.703125 53.65625 
Q 14.5 64.65625 8.015625 75.875 
z
" id="DejaVuSans-29"/>
    </defs>
    <g transform="translate(146.928688 17.36505)scale(0.12 -0.12)">
     <use xlink:href="#DejaVuSans-4d"/>
     <use x="86.279297" xlink:href="#DejaVuSans-6f"/>
     <use x="147.460938" xlink:href="#DejaVuSans-6e"/>
     <use x="210.839844" xlink:href="#DejaVuSans-74"/>
     <use x="250.048828" xlink:href="#DejaVuSans-68"/>
     <use x="313.427734" xlink:href="#DejaVuSans-6c"/>
     <use x="341.210938" xlink:href="#DejaVuSans-79"/>
     <use x="400.390625" xlink:href="#DejaVuSans-20"/>
     <use x="432.177734" xlink:href="#DejaVuSans-67"/>
     <use x="495.654297" xlink:href="#DejaVuSans-72"/>
     <use x="536.736328" xlink:href="#DejaVuSans-6f"/>
     <use x="597.917969" xlink:href="#DejaVuSans-73"/>
     <use x="650.017578" xlink:href="#DejaVuSans-73"/>
     <use x="702.117188" xlink:href="#DejaVuSans-20"/>
     <use x="733.904297" xlink:href="#DejaVuSans-6c"/>
     <use x="761.6875" xlink:href="#DejaVuSans-6f"/>
     <use x="822.869141" xlink:href="#DejaVuSans-61"/>
     <use x="884.148438" xlink:href="#DejaVuSans-64"/>
     <use x="947.625" xlink:href="#DejaVuSans-20"/>
     <use x="979.412109" xlink:href="#DejaVuSans-74"/>
     <use x="1018.621094" xlink:href="#DejaVuSans-72"/>
     <use x="1059.703125" xlink:href="#DejaVuSans-65"/>
     <use x="1121.226562" xlink:href="#DejaVuSans-6e"/>
     <use x="1184.605469" xlink:href="#DejaVuSans-64"/>
     <use x="1248.082031" xlink:href="#DejaVuSans-20"/>
     <use x="1279.869141" xlink:href="#DejaVuSans-28"/>
     <use x="1318.882812" xlink:href="#DejaVuSans-4d"/>
     <use x="1405.162109" xlink:href="#DejaVuSans-57"/>
     <use x="1504.039062" xlink:href="#DejaVuSans-29"/>
    </g>
   </g>
  </g>
 </g>
 <defs>
  <clipPath id="p4916f91fd1">
   <rect height="286.49845" width="415.937" x="31.543" y="23.36505"/>
  </clipPath>
 </defs>
</svg>
