<?xml version="1.0" encoding="utf-8" standalone="no"?>
<!DOCTYPE svg PUBLIC "-//W3C//DTD SVG 1.1//EN"
  "http://www.w3.org/Graphics/SVG/1.1/DTD/svg11.dtd">
<!-- Created with matplotlib (http://matplotlib.org/) -->
<svg height="345.6pt" version="1.1" viewBox="0 0 460.8 345.6" width="460.8pt" xmlns="http://www.w3.org/2000/svg" xmlns:xlink="http://www.w3.org/1999/xlink">
 <defs>
  <style type="text/css">
*{stroke-linecap:butt;stroke-linejoin:round;}
  </style>
 </defs>
 <g id="figure_1">
  <g id="patch_1">
   <path d="M 0 345.6 
L 460.8 345.6 
L 460.8 0 
L 0 0 
z
" style="fill:none;"/>
  </g>
  <g id="axes_1">
   <g id="patch_2">
    <path d="M 36.124 309.8635 
L 447.48 309.8635 
L 447.48 23.36505 
L 36.124 23.36505 
z
" style="fill:none;"/>
   </g>
   <g id="PolyCollection_1">
    <path clip-path="url(#pf17674f950)" d="M 36.124 39.409732 
L 36.124 142.571271 
L 37.961583 160.10513 
L 39.996049 161.786459 
L 41.964888 176.798325 
L 43.999354 207.18234 
L 45.968193 120.473805 
L 48.002659 176.798325 
L 50.037126 169.952914 
L 52.005964 188.327437 
L 54.040431 309.8635 
L 56.009269 155.301333 
L 58.043736 175.47728 
L 60.078202 149.296587 
L 61.915785 245.852906 
L 63.950251 165.629497 
L 65.91909 241.169204 
L 67.953556 219.191833 
L 69.922395 261.465246 
L 71.956862 199.976645 
L 73.991328 182.442786 
L 75.960167 139.448803 
L 77.994633 136.806715 
L 79.963472 198.655601 
L 81.997938 191.57 
L 84.032405 161.426174 
L 85.869987 192.53076 
L 87.904454 309.62331 
L 89.873292 202.858923 
L 91.907759 213.066991 
L 93.876597 206.581866 
L 95.911064 185.685349 
L 97.94553 250.656703 
L 99.914369 149.536777 
L 101.948835 163.587883 
L 103.917674 134.164627 
L 105.95214 182.562881 
L 107.986607 184.964779 
L 109.889817 157.823327 
L 111.924284 220.272687 
L 113.893123 182.923166 
L 115.927589 270.11208 
L 117.896428 215.94927 
L 119.930894 205.981391 
L 121.965361 184.24421 
L 123.934199 122.635514 
L 125.968666 156.622377 
L 127.937504 152.05877 
L 129.971971 177.759084 
L 132.006437 187.366678 
L 133.84402 213.547371 
L 135.878486 196.253702 
L 137.847325 250.296418 
L 139.881791 218.591358 
L 141.85063 191.57 
L 143.885096 167.551015 
L 145.919563 182.082501 
L 147.888401 146.414309 
L 149.922868 159.024276 
L 151.891706 156.141998 
L 153.926173 149.296587 
L 155.960639 192.170475 
L 157.798222 193.491519 
L 159.832689 280.200054 
L 161.801527 224.596104 
L 163.835994 254.25955 
L 165.804832 228.799426 
L 167.839299 225.316674 
L 169.873765 180.281077 
L 171.842604 144.73298 
L 173.87707 184.4844 
L 175.845909 180.881552 
L 177.880375 225.676958 
L 179.914842 153.620004 
L 181.752424 179.560508 
L 183.786891 215.588985 
L 185.755729 256.060974 
L 187.790196 238.767305 
L 189.759034 190.128861 
L 191.793501 187.366678 
L 193.827967 130.681874 
L 195.796806 247.053855 
L 197.831272 306.620937 
L 199.800111 126.718741 
L 201.834578 181.842311 
L 203.869044 246.573475 
L 205.772255 128.279975 
L 207.806721 164.188358 
L 209.77556 245.732811 
L 211.810026 233.002749 
L 213.778865 248.494994 
L 215.813331 165.149117 
L 217.847798 138.127759 
L 219.816636 176.43804 
L 221.851103 156.742472 
L 223.819941 191.930285 
L 225.854408 124.196748 
L 227.888874 158.784086 
L 229.726457 123.235989 
L 231.760923 154.700859 
L 233.729762 219.912402 
L 235.764228 217.390409 
L 237.733067 252.097842 
L 239.767534 204.540252 
L 241.802 181.121742 
L 243.770839 172.955287 
L 245.805305 176.19785 
L 247.774144 175.357185 
L 249.80861 183.643735 
L 251.843077 125.157507 
L 253.680659 140.409563 
L 255.715126 168.271585 
L 257.683964 234.563983 
L 259.718431 213.307181 
L 261.687269 256.541354 
L 263.721736 181.121742 
L 265.756202 172.234717 
L 267.725041 229.519996 
L 269.759507 187.006393 
L 271.728346 309.8635 
L 273.762812 144.2526 
L 275.797279 195.292943 
L 277.634862 209.103859 
L 279.669328 255.100215 
L 281.638167 239.728065 
L 283.672633 250.056228 
L 285.641472 232.402274 
L 287.675938 225.436769 
L 289.710405 180.401172 
L 291.679243 240.328539 
L 293.71371 147.615258 
L 295.682548 182.803071 
L 297.717015 182.202596 
L 299.751481 170.193104 
L 301.654692 152.178865 
L 303.689158 229.640091 
L 305.657997 255.580594 
L 307.692463 279.359389 
L 309.661302 235.524742 
L 311.695768 205.380916 
L 313.730235 190.008766 
L 315.699073 189.168102 
L 317.73354 193.971899 
L 319.702378 169.712724 
L 321.736845 173.916046 
L 323.771311 202.138353 
L 325.608894 138.127759 
L 327.643361 184.364305 
L 329.612199 225.797053 
L 331.646666 236.365407 
L 333.615504 188.327437 
L 335.649971 173.315572 
L 337.684437 201.778069 
L 339.653276 214.868415 
L 341.687742 199.496265 
L 343.656581 141.610512 
L 345.691047 199.85655 
L 347.725514 199.85655 
L 349.563096 154.460669 
L 351.597563 228.799426 
L 353.566401 239.60797 
L 355.600868 233.963508 
L 357.569706 255.340405 
L 359.604173 188.927912 
L 361.638639 188.447532 
L 363.607478 164.788832 
L 365.641944 227.718572 
L 367.610783 216.549744 
L 369.64525 230.240566 
L 371.679716 231.681705 
L 373.517299 230.480755 
L 375.551765 208.1431 
L 377.520604 181.602121 
L 379.55507 201.417784 
L 381.523909 173.075382 
L 383.558375 153.860194 
L 385.592842 173.795951 
L 387.56168 191.57 
L 389.596147 231.681705 
L 391.564985 255.340405 
L 393.599452 215.588985 
L 395.633918 211.505757 
L 397.537129 228.799426 
L 399.571595 257.382018 
L 401.540434 267.349897 
L 403.5749 245.132336 
L 405.543739 223.27506 
L 407.578205 194.692468 
L 409.612672 156.502282 
L 411.581511 308.302266 
L 413.615977 224.115724 
L 415.584816 229.519996 
L 417.619282 186.766203 
L 419.653749 208.623479 
L 421.491331 215.2287 
L 423.525798 243.931387 
L 425.494636 251.857652 
L 427.529103 249.215564 
L 429.497941 224.115724 
L 431.532408 191.209715 
L 433.566874 188.207342 
L 435.535713 216.309554 
L 437.570179 206.822055 
L 439.539018 201.177594 
L 441.573484 206.341676 
L 443.607951 212.586612 
L 445.445534 228.919521 
L 447.48 246.813665 
L 447.48 59.945964 
L 447.48 59.945964 
L 445.445534 65.23014 
L 443.607951 47.576187 
L 441.573484 53.220648 
L 439.539018 47.936471 
L 437.570179 53.821123 
L 435.535713 41.331251 
L 433.566874 39.770017 
L 431.532408 41.691535 
L 429.497941 58.865109 
L 427.529103 115.790103 
L 425.494636 139.929183 
L 423.525798 111.947066 
L 421.491331 49.85799 
L 419.653749 39.169542 
L 417.619282 38.208783 
L 415.584816 57.303875 
L 413.615977 106.422699 
L 411.581511 48.296756 
L 409.612672 44.213529 
L 407.578205 41.451346 
L 405.543739 40.970966 
L 403.5749 113.988679 
L 401.540434 147.014783 
L 399.571595 133.083772 
L 397.537129 50.81875 
L 395.633918 41.211156 
L 393.599452 47.936471 
L 391.564985 61.267008 
L 389.596147 107.503554 
L 387.56168 47.576187 
L 385.592842 40.610681 
L 383.558375 37.007833 
L 381.523909 37.608308 
L 379.55507 79.401341 
L 377.520604 41.57144 
L 375.551765 44.333624 
L 373.517299 54.421597 
L 371.679716 53.220648 
L 369.64525 45.294383 
L 367.610783 40.850871 
L 365.641944 42.5322 
L 363.607478 40.250396 
L 361.638639 39.529827 
L 359.604173 39.289637 
L 357.569706 38.929352 
L 355.600868 107.383459 
L 353.566401 54.661787 
L 351.597563 40.250396 
L 349.563096 39.770017 
L 347.725514 39.049447 
L 345.691047 51.659414 
L 343.656581 39.049447 
L 341.687742 41.57144 
L 339.653276 40.970966 
L 337.684437 40.250396 
L 335.649971 40.970966 
L 333.615504 41.691535 
L 331.646666 46.014953 
L 329.612199 107.503554 
L 327.643361 41.331251 
L 325.608894 40.370491 
L 323.771311 39.409732 
L 321.736845 39.529827 
L 319.702378 42.05182 
L 317.73354 40.370491 
L 315.699073 39.649922 
L 313.730235 40.610681 
L 311.695768 43.01258 
L 309.661302 44.934098 
L 307.692463 113.388205 
L 305.657997 109.425072 
L 303.689158 65.350235 
L 301.654692 42.29201 
L 299.751481 43.132674 
L 297.717015 39.289637 
L 295.682548 47.816376 
L 293.71371 42.29201 
L 291.679243 41.691535 
L 289.710405 42.5322 
L 287.675938 44.333624 
L 285.641472 113.388205 
L 283.672633 126.358457 
L 281.638167 60.306249 
L 279.669328 53.701028 
L 277.634862 44.213529 
L 275.797279 46.255142 
L 273.762812 40.130301 
L 271.728346 39.289637 
L 269.759507 40.970966 
L 267.725041 38.929352 
L 265.756202 39.770017 
L 263.721736 39.649922 
L 261.687269 62.107672 
L 259.718431 107.983933 
L 257.683964 107.623648 
L 255.715126 44.333624 
L 253.680659 42.412105 
L 251.843077 40.490586 
L 249.80861 38.328877 
L 247.774144 38.569067 
L 245.805305 39.529827 
L 243.770839 38.929352 
L 241.802 37.488213 
L 239.767534 38.809257 
L 237.733067 49.6178 
L 235.764228 106.062414 
L 233.729762 53.821123 
L 231.760923 48.657041 
L 229.726457 49.137421 
L 227.888874 46.255142 
L 225.854408 43.132674 
L 223.819941 44.213529 
L 221.851103 45.054193 
L 219.816636 46.014953 
L 217.847798 45.654668 
L 215.813331 42.892485 
L 213.778865 46.495332 
L 211.810026 110.986306 
L 209.77556 109.304977 
L 207.806721 47.816376 
L 205.772255 43.492959 
L 203.869044 43.733149 
L 201.834578 42.652295 
L 199.800111 41.931725 
L 197.831272 44.333624 
L 195.796806 42.77239 
L 193.827967 42.29201 
L 191.793501 45.414478 
L 189.759034 45.894858 
L 187.790196 109.304977 
L 185.755729 108.344218 
L 183.786891 51.299129 
L 181.752424 46.855617 
L 179.914842 49.497705 
L 177.880375 45.174288 
L 175.845909 46.375237 
L 173.87707 46.375237 
L 171.842604 45.174288 
L 169.873765 44.693908 
L 167.839299 47.576187 
L 165.804832 48.897231 
L 163.835994 95.734251 
L 161.801527 98.13615 
L 159.832689 47.816376 
L 157.798222 51.899604 
L 155.960639 50.938844 
L 153.926173 50.938844 
L 151.891706 51.539319 
L 149.922868 49.257516 
L 147.888401 47.936471 
L 145.919563 46.375237 
L 143.885096 48.536946 
L 141.85063 50.33837 
L 139.881791 115.429819 
L 137.847325 88.648651 
L 135.878486 55.742641 
L 133.84402 58.745015 
L 132.006437 61.987577 
L 129.971971 48.536946 
L 127.937504 46.975712 
L 125.968666 50.698655 
L 123.934199 51.899604 
L 121.965361 52.860363 
L 119.930894 49.017326 
L 117.896428 50.57856 
L 115.927589 116.510673 
L 113.893123 51.179034 
L 111.924284 55.982831 
L 109.889817 46.855617 
L 107.986607 46.375237 
L 105.95214 45.054193 
L 103.917674 43.973339 
L 101.948835 45.654668 
L 99.914369 68.472703 
L 97.94553 48.176661 
L 95.911064 50.33837 
L 93.876597 61.867483 
L 91.907759 71.354982 
L 89.873292 68.112419 
L 87.904454 48.056566 
L 85.869987 49.257516 
L 84.032405 46.135048 
L 81.997938 44.934098 
L 79.963472 47.095807 
L 77.994633 45.294383 
L 75.960167 45.054193 
L 73.991328 45.894858 
L 71.956862 49.257516 
L 69.922395 50.33837 
L 67.953556 51.299129 
L 65.91909 49.017326 
L 63.950251 42.652295 
L 61.915785 43.973339 
L 60.078202 45.654668 
L 58.043736 44.213529 
L 56.009269 43.973339 
L 54.040431 47.335997 
L 52.005964 45.294383 
L 50.037126 45.414478 
L 48.002659 43.252769 
L 45.968193 42.412105 
L 43.999354 41.81163 
L 41.964888 105.341845 
L 39.996049 40.610681 
L 37.961583 41.211156 
L 36.124 39.409732 
z
" style="fill:#808080;fill-opacity:0.3;"/>
   </g>
   <g id="PolyCollection_2">
    <path clip-path="url(#pf17674f950)" d="M 36.124 45.174288 
L 36.124 66.611232 
L 37.961583 63.338645 
L 39.996049 79.821674 
L 41.964888 111.106401 
L 43.999354 118.522263 
L 45.968193 69.943866 
L 48.002659 68.953083 
L 50.037126 115.309724 
L 52.005964 136.116169 
L 54.040431 133.113796 
L 56.009269 62.377886 
L 58.043736 112.54754 
L 60.078202 75.378161 
L 61.915785 119.30288 
L 63.950251 116.750863 
L 65.91909 161.005842 
L 67.953556 146.804617 
L 69.922395 186.435942 
L 71.956862 115.940222 
L 73.991328 118.912571 
L 75.960167 80.302053 
L 77.994633 72.345765 
L 79.963472 123.386107 
L 81.997938 71.955456 
L 84.032405 77.29968 
L 85.869987 83.514593 
L 87.904454 118.192002 
L 89.873292 142.451176 
L 91.907759 138.427996 
L 93.876597 132.753511 
L 95.911064 119.873331 
L 97.94553 180.281077 
L 99.914369 129.480925 
L 101.948835 112.217279 
L 103.917674 90.600193 
L 105.95214 114.589154 
L 107.986607 94.383183 
L 109.889817 122.995799 
L 111.924284 128.40007 
L 113.893123 124.466962 
L 115.927589 187.756986 
L 117.896428 120.713995 
L 119.930894 139.448803 
L 121.965361 79.671555 
L 123.934199 70.664436 
L 125.968666 117.141171 
L 127.937504 122.545443 
L 129.971971 119.663165 
L 132.006437 122.035039 
L 133.84402 130.831992 
L 135.878486 127.34924 
L 137.847325 153.379814 
L 139.881791 175.116996 
L 141.85063 116.780886 
L 143.885096 117.711622 
L 145.919563 81.112694 
L 147.888401 64.749761 
L 149.922868 119.032666 
L 151.891706 69.97389 
L 153.926173 107.683696 
L 155.960639 89.639434 
L 157.798222 124.436938 
L 159.832689 79.821674 
L 161.801527 170.943697 
L 163.835994 175.747494 
L 165.804832 119.122737 
L 167.839299 114.709249 
L 169.873765 59.015228 
L 171.842604 58.14454 
L 173.87707 116.030293 
L 175.845909 85.766372 
L 177.880375 116.270483 
L 179.914842 77.689989 
L 181.752424 116.750863 
L 183.786891 183.52364 
L 185.755729 143.562054 
L 187.790196 165.65952 
L 189.759034 116.150388 
L 191.793501 114.018703 
L 193.827967 71.415029 
L 195.796806 113.388205 
L 197.831272 111.376615 
L 199.800111 57.063686 
L 201.834578 83.724759 
L 203.869044 101.91914 
L 205.772255 61.146913 
L 207.806721 115.219652 
L 209.77556 124.196748 
L 211.810026 163.167551 
L 213.778865 171.153863 
L 215.813331 87.35763 
L 217.847798 56.13295 
L 219.816636 61.567245 
L 221.851103 117.111147 
L 223.819941 118.912571 
L 225.854408 53.100553 
L 227.888874 92.161427 
L 229.726457 76.48904 
L 231.760923 64.149286 
L 233.729762 181.001647 
L 235.764228 162.987408 
L 237.733067 202.288472 
L 239.767534 88.798769 
L 241.802 45.804786 
L 243.770839 55.41238 
L 245.805305 108.344218 
L 247.774144 100.297858 
L 249.80861 110.025547 
L 251.843077 108.254147 
L 253.680659 57.42397 
L 255.715126 113.388205 
L 257.683964 157.643184 
L 259.718431 175.116996 
L 261.687269 217.990883 
L 263.721736 99.367122 
L 265.756202 115.549913 
L 267.725041 116.510673 
L 269.759507 119.873331 
L 271.728346 77.269657 
L 273.762812 59.585679 
L 275.797279 145.093265 
L 277.634862 142.811461 
L 279.669328 153.980289 
L 281.638167 186.435942 
L 283.672633 216.819958 
L 285.641472 204.570276 
L 287.675938 158.483849 
L 289.710405 100.057668 
L 291.679243 127.10905 
L 293.71371 105.582035 
L 295.682548 136.506478 
L 297.717015 96.755058 
L 299.751481 97.925983 
L 301.654692 92.611783 
L 303.689158 154.700859 
L 305.657997 230.270589 
L 307.692463 228.078857 
L 309.661302 163.617907 
L 311.695768 139.41878 
L 313.730235 97.925983 
L 315.699073 76.879348 
L 317.73354 103.360279 
L 319.702378 103.600469 
L 321.736845 88.438484 
L 323.771311 109.905452 
L 325.608894 86.186705 
L 327.643361 135.005291 
L 329.612199 172.024551 
L 331.646666 155.661618 
L 333.615504 96.244654 
L 335.649971 105.22175 
L 337.684437 75.918589 
L 339.653276 124.677128 
L 341.687742 110.896235 
L 343.656581 93.482471 
L 345.691047 89.189078 
L 347.725514 74.117165 
L 349.563096 96.544892 
L 351.597563 169.982938 
L 353.566401 190.03879 
L 355.600868 184.364305 
L 357.569706 169.052202 
L 359.604173 107.143269 
L 361.638639 99.487217 
L 363.607478 97.295485 
L 365.641944 135.215457 
L 367.610783 118.552287 
L 369.64525 139.208613 
L 371.679716 163.137527 
L 373.517299 171.153863 
L 375.551765 115.309724 
L 377.520604 113.988679 
L 379.55507 134.645006 
L 381.523909 109.605215 
L 383.558375 84.475352 
L 385.592842 118.58231 
L 387.56168 126.418504 
L 389.596147 153.379814 
L 391.564985 173.195477 
L 393.599452 152.118818 
L 395.633918 137.317118 
L 397.537129 162.146744 
L 399.571595 218.861572 
L 401.540434 245.492621 
L 403.5749 212.856825 
L 405.543739 145.453549 
L 407.578205 102.189353 
L 409.612672 75.318114 
L 411.581511 165.749592 
L 413.615977 171.904456 
L 415.584816 174.066165 
L 417.619282 104.230967 
L 419.653749 130.922064 
L 421.491331 170.012961 
L 423.525798 191.209715 
L 425.494636 223.395155 
L 427.529103 205.050655 
L 429.497941 191.209715 
L 431.532408 126.748765 
L 433.566874 113.808537 
L 435.535713 135.035315 
L 437.570179 155.961855 
L 439.539018 161.486222 
L 441.573484 134.645006 
L 443.607951 173.015334 
L 445.445534 193.761733 
L 447.48 186.976369 
L 447.48 128.970521 
L 447.48 128.970521 
L 445.445534 139.508851 
L 443.607951 113.868585 
L 441.573484 96.274678 
L 439.539018 108.494337 
L 437.570179 108.314194 
L 435.535713 82.373691 
L 433.566874 52.740268 
L 431.532408 64.599642 
L 429.497941 128.910474 
L 427.529103 163.918144 
L 425.494636 198.865767 
L 423.525798 163.948168 
L 421.491331 109.845405 
L 419.653749 81.262813 
L 417.619282 54.061313 
L 415.584816 128.370047 
L 413.615977 127.319216 
L 411.581511 114.709249 
L 409.612672 50.698655 
L 407.578205 56.072902 
L 405.543739 85.496159 
L 403.5749 173.195477 
L 401.540434 210.665093 
L 399.571595 191.660071 
L 397.537129 99.66736 
L 395.633918 93.062139 
L 393.599452 93.602566 
L 391.564985 117.561503 
L 389.596147 119.272856 
L 387.56168 111.947066 
L 385.592842 64.059215 
L 383.558375 49.017326 
L 381.523909 46.225119 
L 379.55507 93.692637 
L 377.520604 68.142442 
L 375.551765 70.724483 
L 373.517299 113.688442 
L 371.679716 93.572542 
L 369.64525 75.52828 
L 367.610783 70.003914 
L 365.641944 55.712618 
L 363.607478 55.982831 
L 361.638639 48.296756 
L 359.604173 46.495332 
L 357.569706 73.576738 
L 355.600868 128.850426 
L 353.566401 135.125386 
L 351.597563 88.168271 
L 349.563096 48.296756 
L 347.725514 46.255142 
L 345.691047 63.518788 
L 343.656581 58.985204 
L 341.687742 66.911469 
L 339.653276 55.862736 
L 337.684437 45.054193 
L 335.649971 46.014953 
L 333.615504 55.742641 
L 331.646666 112.067161 
L 329.612199 129.330806 
L 327.643361 108.434289 
L 325.608894 54.871953 
L 323.771311 58.38473 
L 321.736845 59.705774 
L 319.702378 60.756604 
L 317.73354 57.273852 
L 315.699073 44.934098 
L 313.730235 58.024445 
L 311.695768 67.391849 
L 309.661302 107.983933 
L 307.692463 164.068263 
L 305.657997 196.914224 
L 303.689158 104.951536 
L 301.654692 64.269381 
L 299.751481 65.320212 
L 297.717015 43.01258 
L 295.682548 110.746116 
L 293.71371 67.031564 
L 291.679243 58.084492 
L 289.710405 49.85799 
L 287.675938 98.586505 
L 285.641472 135.005291 
L 283.672633 160.315296 
L 281.638167 133.474081 
L 279.669328 110.956283 
L 277.634862 94.503278 
L 275.797279 72.886192 
L 273.762812 47.095807 
L 271.728346 42.77239 
L 269.759507 70.874602 
L 267.725041 40.850871 
L 265.756202 45.024169 
L 263.721736 42.892485 
L 261.687269 140.22942 
L 259.718431 110.145642 
L 257.683964 110.265737 
L 255.715126 48.777136 
L 253.680659 44.934098 
L 251.843077 53.460838 
L 249.80861 49.6178 
L 247.774144 40.490586 
L 245.805305 42.171915 
L 243.770839 42.412105 
L 241.802 40.130301 
L 239.767534 40.850871 
L 237.733067 141.580488 
L 235.764228 110.505927 
L 233.729762 118.672381 
L 231.760923 53.340743 
L 229.726457 52.500078 
L 227.888874 50.938844 
L 225.854408 48.296756 
L 223.819941 51.299129 
L 221.851103 49.257516 
L 219.816636 49.6178 
L 217.847798 48.897231 
L 215.813331 47.666258 
L 213.778865 87.027369 
L 211.810026 116.510673 
L 209.77556 113.388205 
L 207.806721 55.142167 
L 205.772255 47.696282 
L 203.869044 49.37761 
L 201.834578 49.257516 
L 199.800111 45.174288 
L 197.831272 48.056566 
L 195.796806 52.770292 
L 193.827967 46.495332 
L 191.793501 48.897231 
L 189.759034 52.740268 
L 187.790196 119.873331 
L 185.755729 110.716093 
L 183.786891 58.504825 
L 181.752424 52.860363 
L 179.914842 51.539319 
L 177.880375 50.698655 
L 175.845909 48.897231 
L 173.87707 50.218275 
L 171.842604 50.698655 
L 169.873765 48.657041 
L 167.839299 51.779509 
L 165.804832 55.112143 
L 163.835994 125.757982 
L 161.801527 129.330806 
L 159.832689 54.181407 
L 157.798222 61.987577 
L 155.960639 59.345489 
L 153.926173 59.585679 
L 151.891706 57.42397 
L 149.922868 55.982831 
L 147.888401 54.631763 
L 145.919563 50.81875 
L 143.885096 57.784255 
L 141.85063 59.945964 
L 139.881791 122.275229 
L 137.847325 123.356083 
L 135.878486 62.437933 
L 133.84402 67.391849 
L 132.006437 83.364474 
L 129.971971 58.955181 
L 127.937504 59.525632 
L 125.968666 58.985204 
L 123.934199 59.075276 
L 121.965361 59.825869 
L 119.930894 61.507198 
L 117.896428 61.867483 
L 115.927589 126.238362 
L 113.893123 61.116889 
L 111.924284 66.761351 
L 109.889817 59.465584 
L 107.986607 53.100553 
L 105.95214 52.710245 
L 103.917674 50.068156 
L 101.948835 70.484293 
L 99.914369 74.957829 
L 97.94553 59.465584 
L 95.911064 60.666533 
L 93.876597 117.111147 
L 91.907759 119.032666 
L 89.873292 112.697659 
L 87.904454 64.869856 
L 85.869987 62.588052 
L 84.032405 54.751858 
L 81.997938 57.544065 
L 79.963472 64.749761 
L 77.994633 55.862736 
L 75.960167 52.379984 
L 73.991328 62.347862 
L 71.956862 61.597269 
L 69.922395 112.997896 
L 67.953556 115.910198 
L 65.91909 119.032666 
L 63.950251 52.10977 
L 61.915785 53.911194 
L 60.078202 51.179034 
L 58.043736 50.81875 
L 56.009269 50.188251 
L 54.040431 66.070805 
L 52.005964 55.982831 
L 50.037126 49.978085 
L 48.002659 47.456092 
L 45.968193 45.774763 
L 43.999354 51.539319 
L 41.964888 109.184882 
L 39.996049 49.227492 
L 37.961583 47.816376 
L 36.124 45.174288 
z
" style="fill:#808080;fill-opacity:0.6;"/>
   </g>
   <g id="matplotlib.axis_1">
    <g id="xtick_1">
     <g id="line2d_1">
      <path clip-path="url(#pf17674f950)" d="M 82.063566 309.8635 
L 82.063566 23.36505 
" style="fill:none;stroke:#b0b0b0;stroke-linecap:square;stroke-width:0.8;"/>
     </g>
     <g id="line2d_2">
      <defs>
       <path d="M 0 0 
L 0 3.5 
" id="mb8aeecf752" style="stroke:#000000;stroke-width:0.8;"/>
      </defs>
      <g>
       <use style="stroke:#000000;stroke-width:0.8;" x="82.063566" xlink:href="#mb8aeecf752" y="309.8635"/>
      </g>
     </g>
     <g id="text_1">
      <!-- 2003 -->
      <defs>
       <path d="M 19.1875 8.296875 
L 53.609375 8.296875 
L 53.609375 0 
L 7.328125 0 
L 7.328125 8.296875 
Q 12.9375 14.109375 22.625 23.890625 
Q 32.328125 33.6875 34.8125 36.53125 
Q 39.546875 41.84375 41.421875 45.53125 
Q 43.3125 49.21875 43.3125 52.78125 
Q 43.3125 58.59375 39.234375 62.25 
Q 35.15625 65.921875 28.609375 65.921875 
Q 23.96875 65.921875 18.8125 64.3125 
Q 13.671875 62.703125 7.8125 59.421875 
L 7.8125 69.390625 
Q 13.765625 71.78125 18.9375 73 
Q 24.125 74.21875 28.421875 74.21875 
Q 39.75 74.21875 46.484375 68.546875 
Q 53.21875 62.890625 53.21875 53.421875 
Q 53.21875 48.921875 51.53125 44.890625 
Q 49.859375 40.875 45.40625 35.40625 
Q 44.1875 33.984375 37.640625 27.21875 
Q 31.109375 20.453125 19.1875 8.296875 
z
" id="DejaVuSans-32"/>
       <path d="M 31.78125 66.40625 
Q 24.171875 66.40625 20.328125 58.90625 
Q 16.5 51.421875 16.5 36.375 
Q 16.5 21.390625 20.328125 13.890625 
Q 24.171875 6.390625 31.78125 6.390625 
Q 39.453125 6.390625 43.28125 13.890625 
Q 47.125 21.390625 47.125 36.375 
Q 47.125 51.421875 43.28125 58.90625 
Q 39.453125 66.40625 31.78125 66.40625 
z
M 31.78125 74.21875 
Q 44.046875 74.21875 50.515625 64.515625 
Q 56.984375 54.828125 56.984375 36.375 
Q 56.984375 17.96875 50.515625 8.265625 
Q 44.046875 -1.421875 31.78125 -1.421875 
Q 19.53125 -1.421875 13.0625 8.265625 
Q 6.59375 17.96875 6.59375 36.375 
Q 6.59375 54.828125 13.0625 64.515625 
Q 19.53125 74.21875 31.78125 74.21875 
z
" id="DejaVuSans-30"/>
       <path d="M 40.578125 39.3125 
Q 47.65625 37.796875 51.625 33 
Q 55.609375 28.21875 55.609375 21.1875 
Q 55.609375 10.40625 48.1875 4.484375 
Q 40.765625 -1.421875 27.09375 -1.421875 
Q 22.515625 -1.421875 17.65625 -0.515625 
Q 12.796875 0.390625 7.625 2.203125 
L 7.625 11.71875 
Q 11.71875 9.328125 16.59375 8.109375 
Q 21.484375 6.890625 26.8125 6.890625 
Q 36.078125 6.890625 40.9375 10.546875 
Q 45.796875 14.203125 45.796875 21.1875 
Q 45.796875 27.640625 41.28125 31.265625 
Q 36.765625 34.90625 28.71875 34.90625 
L 20.21875 34.90625 
L 20.21875 43.015625 
L 29.109375 43.015625 
Q 36.375 43.015625 40.234375 45.921875 
Q 44.09375 48.828125 44.09375 54.296875 
Q 44.09375 59.90625 40.109375 62.90625 
Q 36.140625 65.921875 28.71875 65.921875 
Q 24.65625 65.921875 20.015625 65.03125 
Q 15.375 64.15625 9.8125 62.3125 
L 9.8125 71.09375 
Q 15.4375 72.65625 20.34375 73.4375 
Q 25.25 74.21875 29.59375 74.21875 
Q 40.828125 74.21875 47.359375 69.109375 
Q 53.90625 64.015625 53.90625 55.328125 
Q 53.90625 49.265625 50.4375 45.09375 
Q 46.96875 40.921875 40.578125 39.3125 
z
" id="DejaVuSans-33"/>
      </defs>
      <g transform="translate(69.338566 324.461937)scale(0.1 -0.1)">
       <use xlink:href="#DejaVuSans-32"/>
       <use x="63.623047" xlink:href="#DejaVuSans-30"/>
       <use x="127.246094" xlink:href="#DejaVuSans-30"/>
       <use x="190.869141" xlink:href="#DejaVuSans-33"/>
      </g>
     </g>
    </g>
    <g id="xtick_2">
     <g id="line2d_3">
      <path clip-path="url(#pf17674f950)" d="M 130.037599 309.8635 
L 130.037599 23.36505 
" style="fill:none;stroke:#b0b0b0;stroke-linecap:square;stroke-width:0.8;"/>
     </g>
     <g id="line2d_4">
      <g>
       <use style="stroke:#000000;stroke-width:0.8;" x="130.037599" xlink:href="#mb8aeecf752" y="309.8635"/>
      </g>
     </g>
     <g id="text_2">
      <!-- 2005 -->
      <defs>
       <path d="M 10.796875 72.90625 
L 49.515625 72.90625 
L 49.515625 64.59375 
L 19.828125 64.59375 
L 19.828125 46.734375 
Q 21.96875 47.46875 24.109375 47.828125 
Q 26.265625 48.1875 28.421875 48.1875 
Q 40.625 48.1875 47.75 41.5 
Q 54.890625 34.8125 54.890625 23.390625 
Q 54.890625 11.625 47.5625 5.09375 
Q 40.234375 -1.421875 26.90625 -1.421875 
Q 22.3125 -1.421875 17.546875 -0.640625 
Q 12.796875 0.140625 7.71875 1.703125 
L 7.71875 11.625 
Q 12.109375 9.234375 16.796875 8.0625 
Q 21.484375 6.890625 26.703125 6.890625 
Q 35.15625 6.890625 40.078125 11.328125 
Q 45.015625 15.765625 45.015625 23.390625 
Q 45.015625 31 40.078125 35.4375 
Q 35.15625 39.890625 26.703125 39.890625 
Q 22.75 39.890625 18.8125 39.015625 
Q 14.890625 38.140625 10.796875 36.28125 
z
" id="DejaVuSans-35"/>
      </defs>
      <g transform="translate(117.312599 324.461937)scale(0.1 -0.1)">
       <use xlink:href="#DejaVuSans-32"/>
       <use x="63.623047" xlink:href="#DejaVuSans-30"/>
       <use x="127.246094" xlink:href="#DejaVuSans-30"/>
       <use x="190.869141" xlink:href="#DejaVuSans-35"/>
      </g>
     </g>
    </g>
    <g id="xtick_3">
     <g id="line2d_5">
      <path clip-path="url(#pf17674f950)" d="M 177.946003 309.8635 
L 177.946003 23.36505 
" style="fill:none;stroke:#b0b0b0;stroke-linecap:square;stroke-width:0.8;"/>
     </g>
     <g id="line2d_6">
      <g>
       <use style="stroke:#000000;stroke-width:0.8;" x="177.946003" xlink:href="#mb8aeecf752" y="309.8635"/>
      </g>
     </g>
     <g id="text_3">
      <!-- 2007 -->
      <defs>
       <path d="M 8.203125 72.90625 
L 55.078125 72.90625 
L 55.078125 68.703125 
L 28.609375 0 
L 18.3125 0 
L 43.21875 64.59375 
L 8.203125 64.59375 
z
" id="DejaVuSans-37"/>
      </defs>
      <g transform="translate(165.221003 324.461937)scale(0.1 -0.1)">
       <use xlink:href="#DejaVuSans-32"/>
       <use x="63.623047" xlink:href="#DejaVuSans-30"/>
       <use x="127.246094" xlink:href="#DejaVuSans-30"/>
       <use x="190.869141" xlink:href="#DejaVuSans-37"/>
      </g>
     </g>
    </g>
    <g id="xtick_4">
     <g id="line2d_7">
      <path clip-path="url(#pf17674f950)" d="M 225.920036 309.8635 
L 225.920036 23.36505 
" style="fill:none;stroke:#b0b0b0;stroke-linecap:square;stroke-width:0.8;"/>
     </g>
     <g id="line2d_8">
      <g>
       <use style="stroke:#000000;stroke-width:0.8;" x="225.920036" xlink:href="#mb8aeecf752" y="309.8635"/>
      </g>
     </g>
     <g id="text_4">
      <!-- 2009 -->
      <defs>
       <path d="M 10.984375 1.515625 
L 10.984375 10.5 
Q 14.703125 8.734375 18.5 7.8125 
Q 22.3125 6.890625 25.984375 6.890625 
Q 35.75 6.890625 40.890625 13.453125 
Q 46.046875 20.015625 46.78125 33.40625 
Q 43.953125 29.203125 39.59375 26.953125 
Q 35.25 24.703125 29.984375 24.703125 
Q 19.046875 24.703125 12.671875 31.3125 
Q 6.296875 37.9375 6.296875 49.421875 
Q 6.296875 60.640625 12.9375 67.421875 
Q 19.578125 74.21875 30.609375 74.21875 
Q 43.265625 74.21875 49.921875 64.515625 
Q 56.59375 54.828125 56.59375 36.375 
Q 56.59375 19.140625 48.40625 8.859375 
Q 40.234375 -1.421875 26.421875 -1.421875 
Q 22.703125 -1.421875 18.890625 -0.6875 
Q 15.09375 0.046875 10.984375 1.515625 
z
M 30.609375 32.421875 
Q 37.25 32.421875 41.125 36.953125 
Q 45.015625 41.5 45.015625 49.421875 
Q 45.015625 57.28125 41.125 61.84375 
Q 37.25 66.40625 30.609375 66.40625 
Q 23.96875 66.40625 20.09375 61.84375 
Q 16.21875 57.28125 16.21875 49.421875 
Q 16.21875 41.5 20.09375 36.953125 
Q 23.96875 32.421875 30.609375 32.421875 
z
" id="DejaVuSans-39"/>
      </defs>
      <g transform="translate(213.195036 324.461937)scale(0.1 -0.1)">
       <use xlink:href="#DejaVuSans-32"/>
       <use x="63.623047" xlink:href="#DejaVuSans-30"/>
       <use x="127.246094" xlink:href="#DejaVuSans-30"/>
       <use x="190.869141" xlink:href="#DejaVuSans-39"/>
      </g>
     </g>
    </g>
    <g id="xtick_5">
     <g id="line2d_9">
      <path clip-path="url(#pf17674f950)" d="M 273.82844 309.8635 
L 273.82844 23.36505 
" style="fill:none;stroke:#b0b0b0;stroke-linecap:square;stroke-width:0.8;"/>
     </g>
     <g id="line2d_10">
      <g>
       <use style="stroke:#000000;stroke-width:0.8;" x="273.82844" xlink:href="#mb8aeecf752" y="309.8635"/>
      </g>
     </g>
     <g id="text_5">
      <!-- 2011 -->
      <defs>
       <path d="M 12.40625 8.296875 
L 28.515625 8.296875 
L 28.515625 63.921875 
L 10.984375 60.40625 
L 10.984375 69.390625 
L 28.421875 72.90625 
L 38.28125 72.90625 
L 38.28125 8.296875 
L 54.390625 8.296875 
L 54.390625 0 
L 12.40625 0 
z
" id="DejaVuSans-31"/>
      </defs>
      <g transform="translate(261.10344 324.461937)scale(0.1 -0.1)">
       <use xlink:href="#DejaVuSans-32"/>
       <use x="63.623047" xlink:href="#DejaVuSans-30"/>
       <use x="127.246094" xlink:href="#DejaVuSans-31"/>
       <use x="190.869141" xlink:href="#DejaVuSans-31"/>
      </g>
     </g>
    </g>
    <g id="xtick_6">
     <g id="line2d_11">
      <path clip-path="url(#pf17674f950)" d="M 321.802473 309.8635 
L 321.802473 23.36505 
" style="fill:none;stroke:#b0b0b0;stroke-linecap:square;stroke-width:0.8;"/>
     </g>
     <g id="line2d_12">
      <g>
       <use style="stroke:#000000;stroke-width:0.8;" x="321.802473" xlink:href="#mb8aeecf752" y="309.8635"/>
      </g>
     </g>
     <g id="text_6">
      <!-- 2013 -->
      <g transform="translate(309.077473 324.461937)scale(0.1 -0.1)">
       <use xlink:href="#DejaVuSans-32"/>
       <use x="63.623047" xlink:href="#DejaVuSans-30"/>
       <use x="127.246094" xlink:href="#DejaVuSans-31"/>
       <use x="190.869141" xlink:href="#DejaVuSans-33"/>
      </g>
     </g>
    </g>
    <g id="xtick_7">
     <g id="line2d_13">
      <path clip-path="url(#pf17674f950)" d="M 369.710877 309.8635 
L 369.710877 23.36505 
" style="fill:none;stroke:#b0b0b0;stroke-linecap:square;stroke-width:0.8;"/>
     </g>
     <g id="line2d_14">
      <g>
       <use style="stroke:#000000;stroke-width:0.8;" x="369.710877" xlink:href="#mb8aeecf752" y="309.8635"/>
      </g>
     </g>
     <g id="text_7">
      <!-- 2015 -->
      <g transform="translate(356.985877 324.461937)scale(0.1 -0.1)">
       <use xlink:href="#DejaVuSans-32"/>
       <use x="63.623047" xlink:href="#DejaVuSans-30"/>
       <use x="127.246094" xlink:href="#DejaVuSans-31"/>
       <use x="190.869141" xlink:href="#DejaVuSans-35"/>
      </g>
     </g>
    </g>
    <g id="xtick_8">
     <g id="line2d_15">
      <path clip-path="url(#pf17674f950)" d="M 417.68491 309.8635 
L 417.68491 23.36505 
" style="fill:none;stroke:#b0b0b0;stroke-linecap:square;stroke-width:0.8;"/>
     </g>
     <g id="line2d_16">
      <g>
       <use style="stroke:#000000;stroke-width:0.8;" x="417.68491" xlink:href="#mb8aeecf752" y="309.8635"/>
      </g>
     </g>
     <g id="text_8">
      <!-- 2017 -->
      <g transform="translate(404.95991 324.461937)scale(0.1 -0.1)">
       <use xlink:href="#DejaVuSans-32"/>
       <use x="63.623047" xlink:href="#DejaVuSans-30"/>
       <use x="127.246094" xlink:href="#DejaVuSans-31"/>
       <use x="190.869141" xlink:href="#DejaVuSans-37"/>
      </g>
     </g>
    </g>
    <g id="text_9">
     <!-- Date -->
     <defs>
      <path d="M 19.671875 64.796875 
L 19.671875 8.109375 
L 31.59375 8.109375 
Q 46.6875 8.109375 53.6875 14.9375 
Q 60.6875 21.78125 60.6875 36.53125 
Q 60.6875 51.171875 53.6875 57.984375 
Q 46.6875 64.796875 31.59375 64.796875 
z
M 9.8125 72.90625 
L 30.078125 72.90625 
Q 51.265625 72.90625 61.171875 64.09375 
Q 71.09375 55.28125 71.09375 36.53125 
Q 71.09375 17.671875 61.125 8.828125 
Q 51.171875 0 30.078125 0 
L 9.8125 0 
z
" id="DejaVuSans-44"/>
      <path d="M 34.28125 27.484375 
Q 23.390625 27.484375 19.1875 25 
Q 14.984375 22.515625 14.984375 16.5 
Q 14.984375 11.71875 18.140625 8.90625 
Q 21.296875 6.109375 26.703125 6.109375 
Q 34.1875 6.109375 38.703125 11.40625 
Q 43.21875 16.703125 43.21875 25.484375 
L 43.21875 27.484375 
z
M 52.203125 31.203125 
L 52.203125 0 
L 43.21875 0 
L 43.21875 8.296875 
Q 40.140625 3.328125 35.546875 0.953125 
Q 30.953125 -1.421875 24.3125 -1.421875 
Q 15.921875 -1.421875 10.953125 3.296875 
Q 6 8.015625 6 15.921875 
Q 6 25.140625 12.171875 29.828125 
Q 18.359375 34.515625 30.609375 34.515625 
L 43.21875 34.515625 
L 43.21875 35.40625 
Q 43.21875 41.609375 39.140625 45 
Q 35.0625 48.390625 27.6875 48.390625 
Q 23 48.390625 18.546875 47.265625 
Q 14.109375 46.140625 10.015625 43.890625 
L 10.015625 52.203125 
Q 14.9375 54.109375 19.578125 55.046875 
Q 24.21875 56 28.609375 56 
Q 40.484375 56 46.34375 49.84375 
Q 52.203125 43.703125 52.203125 31.203125 
z
" id="DejaVuSans-61"/>
      <path d="M 18.3125 70.21875 
L 18.3125 54.6875 
L 36.8125 54.6875 
L 36.8125 47.703125 
L 18.3125 47.703125 
L 18.3125 18.015625 
Q 18.3125 11.328125 20.140625 9.421875 
Q 21.96875 7.515625 27.59375 7.515625 
L 36.8125 7.515625 
L 36.8125 0 
L 27.59375 0 
Q 17.1875 0 13.234375 3.875 
Q 9.28125 7.765625 9.28125 18.015625 
L 9.28125 47.703125 
L 2.6875 47.703125 
L 2.6875 54.6875 
L 9.28125 54.6875 
L 9.28125 70.21875 
z
" id="DejaVuSans-74"/>
      <path d="M 56.203125 29.59375 
L 56.203125 25.203125 
L 14.890625 25.203125 
Q 15.484375 15.921875 20.484375 11.0625 
Q 25.484375 6.203125 34.421875 6.203125 
Q 39.59375 6.203125 44.453125 7.46875 
Q 49.3125 8.734375 54.109375 11.28125 
L 54.109375 2.78125 
Q 49.265625 0.734375 44.1875 -0.34375 
Q 39.109375 -1.421875 33.890625 -1.421875 
Q 20.796875 -1.421875 13.15625 6.1875 
Q 5.515625 13.8125 5.515625 26.8125 
Q 5.515625 40.234375 12.765625 48.109375 
Q 20.015625 56 32.328125 56 
Q 43.359375 56 49.78125 48.890625 
Q 56.203125 41.796875 56.203125 29.59375 
z
M 47.21875 32.234375 
Q 47.125 39.59375 43.09375 43.984375 
Q 39.0625 48.390625 32.421875 48.390625 
Q 24.90625 48.390625 20.390625 44.140625 
Q 15.875 39.890625 15.1875 32.171875 
z
" id="DejaVuSans-65"/>
     </defs>
     <g transform="translate(229.851219 338.140062)scale(0.1 -0.1)">
      <use xlink:href="#DejaVuSans-44"/>
      <use x="77.001953" xlink:href="#DejaVuSans-61"/>
      <use x="138.28125" xlink:href="#DejaVuSans-74"/>
      <use x="177.490234" xlink:href="#DejaVuSans-65"/>
     </g>
    </g>
   </g>
   <g id="matplotlib.axis_2">
    <g id="ytick_1">
     <g id="line2d_17">
      <path clip-path="url(#pf17674f950)" d="M 36.124 309.8635 
L 447.48 309.8635 
" style="fill:none;stroke:#b0b0b0;stroke-linecap:square;stroke-width:0.8;"/>
     </g>
     <g id="line2d_18">
      <defs>
       <path d="M 0 0 
L -3.5 0 
" id="m599370884a" style="stroke:#000000;stroke-width:0.8;"/>
      </defs>
      <g>
       <use style="stroke:#000000;stroke-width:0.8;" x="36.124" xlink:href="#m599370884a" y="309.8635"/>
      </g>
     </g>
     <g id="text_10">
      <!-- 0 -->
      <g transform="translate(22.7615 313.662719)scale(0.1 -0.1)">
       <use xlink:href="#DejaVuSans-30"/>
      </g>
     </g>
    </g>
    <g id="ytick_2">
     <g id="line2d_19">
      <path clip-path="url(#pf17674f950)" d="M 36.124 249.816038 
L 447.48 249.816038 
" style="fill:none;stroke:#b0b0b0;stroke-linecap:square;stroke-width:0.8;"/>
     </g>
     <g id="line2d_20">
      <g>
       <use style="stroke:#000000;stroke-width:0.8;" x="36.124" xlink:href="#m599370884a" y="249.816038"/>
      </g>
     </g>
     <g id="text_11">
      <!-- 500 -->
      <g transform="translate(10.0365 253.615257)scale(0.1 -0.1)">
       <use xlink:href="#DejaVuSans-35"/>
       <use x="63.623047" xlink:href="#DejaVuSans-30"/>
       <use x="127.246094" xlink:href="#DejaVuSans-30"/>
      </g>
     </g>
    </g>
    <g id="ytick_3">
     <g id="line2d_21">
      <path clip-path="url(#pf17674f950)" d="M 36.124 189.768576 
L 447.48 189.768576 
" style="fill:none;stroke:#b0b0b0;stroke-linecap:square;stroke-width:0.8;"/>
     </g>
     <g id="line2d_22">
      <g>
       <use style="stroke:#000000;stroke-width:0.8;" x="36.124" xlink:href="#m599370884a" y="189.768576"/>
      </g>
     </g>
     <g id="text_12">
      <!-- 1000 -->
      <g transform="translate(3.674 193.567795)scale(0.1 -0.1)">
       <use xlink:href="#DejaVuSans-31"/>
       <use x="63.623047" xlink:href="#DejaVuSans-30"/>
       <use x="127.246094" xlink:href="#DejaVuSans-30"/>
       <use x="190.869141" xlink:href="#DejaVuSans-30"/>
      </g>
     </g>
    </g>
    <g id="ytick_4">
     <g id="line2d_23">
      <path clip-path="url(#pf17674f950)" d="M 36.124 129.721114 
L 447.48 129.721114 
" style="fill:none;stroke:#b0b0b0;stroke-linecap:square;stroke-width:0.8;"/>
     </g>
     <g id="line2d_24">
      <g>
       <use style="stroke:#000000;stroke-width:0.8;" x="36.124" xlink:href="#m599370884a" y="129.721114"/>
      </g>
     </g>
     <g id="text_13">
      <!-- 1500 -->
      <g transform="translate(3.674 133.520333)scale(0.1 -0.1)">
       <use xlink:href="#DejaVuSans-31"/>
       <use x="63.623047" xlink:href="#DejaVuSans-35"/>
       <use x="127.246094" xlink:href="#DejaVuSans-30"/>
       <use x="190.869141" xlink:href="#DejaVuSans-30"/>
      </g>
     </g>
    </g>
    <g id="ytick_5">
     <g id="line2d_25">
      <path clip-path="url(#pf17674f950)" d="M 36.124 69.673653 
L 447.48 69.673653 
" style="fill:none;stroke:#b0b0b0;stroke-linecap:square;stroke-width:0.8;"/>
     </g>
     <g id="line2d_26">
      <g>
       <use style="stroke:#000000;stroke-width:0.8;" x="36.124" xlink:href="#m599370884a" y="69.673653"/>
      </g>
     </g>
     <g id="text_14">
      <!-- 2000 -->
      <g transform="translate(3.674 73.472871)scale(0.1 -0.1)">
       <use xlink:href="#DejaVuSans-32"/>
       <use x="63.623047" xlink:href="#DejaVuSans-30"/>
       <use x="127.246094" xlink:href="#DejaVuSans-30"/>
       <use x="190.869141" xlink:href="#DejaVuSans-30"/>
      </g>
     </g>
    </g>
   </g>
   <g id="line2d_27">
    <path clip-path="url(#pf17674f950)" d="M 36.124 51.239082 
L 37.961583 55.202214 
L 39.996049 57.844303 
L 41.964888 110.025547 
L 43.999354 110.866211 
L 45.968193 48.777136 
L 48.002659 50.938844 
L 50.037126 56.042879 
L 52.005964 113.087968 
L 54.040431 113.448252 
L 56.009269 53.580933 
L 58.043736 55.682594 
L 60.078202 58.745015 
L 61.915785 62.40791 
L 63.950251 109.124835 
L 65.91909 127.799596 
L 67.953556 124.016606 
L 69.922395 146.474356 
L 71.956862 79.161152 
L 73.991328 73.216453 
L 75.960167 60.426343 
L 77.994633 61.987577 
L 79.963472 114.048727 
L 81.997938 63.428717 
L 84.032405 62.888289 
L 85.869987 70.694459 
L 87.904454 79.941769 
L 89.873292 133.444057 
L 91.907759 124.436938 
L 93.876597 121.194375 
L 95.911064 72.796121 
L 97.94553 116.090341 
L 99.914369 80.84248 
L 101.948835 76.819301 
L 103.917674 58.264635 
L 105.95214 69.433463 
L 107.986607 59.585679 
L 109.889817 91.170644 
L 111.924284 106.182509 
L 113.893123 116.510673 
L 115.927589 176.498087 
L 117.896428 77.900155 
L 119.930894 76.098731 
L 121.965361 63.308622 
L 123.934199 63.428717 
L 125.968666 64.989951 
L 127.937504 73.636785 
L 129.971971 84.925708 
L 132.006437 89.36922 
L 133.84402 83.904901 
L 135.878486 118.011859 
L 137.847325 139.568898 
L 139.881791 131.582586 
L 141.85063 75.978636 
L 143.885096 63.608859 
L 145.919563 53.220648 
L 147.888401 57.66416 
L 149.922868 64.629666 
L 151.891706 60.966771 
L 153.926173 65.049998 
L 155.960639 65.049998 
L 157.798222 77.119538 
L 159.832689 58.38473 
L 161.801527 158.183611 
L 163.835994 156.382188 
L 165.804832 81.56305 
L 167.839299 54.901977 
L 169.873765 50.878797 
L 171.842604 53.100553 
L 173.87707 61.267008 
L 175.845909 51.058939 
L 177.880375 59.585679 
L 179.914842 54.901977 
L 181.752424 70.694459 
L 183.786891 119.993426 
L 185.755729 115.790103 
L 187.790196 134.404816 
L 189.759034 66.731327 
L 191.793501 59.345489 
L 193.827967 48.596993 
L 195.796806 75.077924 
L 197.831272 63.068432 
L 199.800111 50.09818 
L 201.834578 51.899604 
L 203.869044 52.860363 
L 205.772255 51.179034 
L 207.806721 58.324682 
L 209.77556 115.309724 
L 211.810026 119.032666 
L 213.778865 133.804342 
L 215.813331 51.058939 
L 217.847798 50.33837 
L 219.816636 52.139794 
L 221.851103 52.560126 
L 223.819941 114.168822 
L 225.854408 49.737895 
L 227.888874 54.661787 
L 229.726457 55.022072 
L 231.760923 55.622547 
L 233.729762 131.822776 
L 235.764228 126.298409 
L 237.733067 165.869686 
L 239.767534 47.335997 
L 241.802 41.57144 
L 243.770839 43.973339 
L 245.805305 49.557753 
L 247.774144 52.620173 
L 249.80861 71.955456 
L 251.843077 61.747388 
L 253.680659 48.056566 
L 255.715126 88.828793 
L 257.683964 116.030293 
L 259.718431 114.288917 
L 261.687269 183.28345 
L 263.721736 53.220648 
L 265.756202 78.26044 
L 267.725041 43.973339 
L 269.759507 118.552287 
L 271.728346 54.541692 
L 273.762812 54.661787 
L 275.797279 129.12064 
L 277.634862 123.115894 
L 279.669328 128.820403 
L 281.638167 156.502282 
L 283.672633 192.891044 
L 285.641472 166.169924 
L 287.675938 126.598646 
L 289.710405 67.391849 
L 291.679243 88.108223 
L 293.71371 85.285993 
L 295.682548 123.235989 
L 297.717015 58.38473 
L 299.751481 81.262813 
L 301.654692 74.957829 
L 303.689158 123.956558 
L 305.657997 213.547371 
L 307.692463 204.600299 
L 309.661302 135.005291 
L 311.695768 99.457194 
L 313.730235 71.835361 
L 315.699073 57.544065 
L 317.73354 77.419775 
L 319.702378 73.75688 
L 321.736845 73.576738 
L 323.771311 73.99707 
L 325.608894 65.170093 
L 327.643361 124.436938 
L 329.612199 145.753787 
L 331.646666 129.721114 
L 333.615504 76.098731 
L 335.649971 63.308622 
L 337.684437 54.36155 
L 339.653276 84.805613 
L 341.687742 86.847227 
L 343.656581 70.093985 
L 345.691047 72.255693 
L 347.725514 55.622547 
L 349.563096 63.608859 
L 351.597563 128.520165 
L 353.566401 154.280526 
L 355.600868 151.458296 
L 357.569706 111.106401 
L 359.604173 71.775314 
L 361.638639 71.715266 
L 363.607478 68.112419 
L 365.641944 83.544616 
L 367.610783 87.627844 
L 369.64525 103.060041 
L 371.679716 127.739548 
L 373.517299 144.793027 
L 375.551765 87.447701 
L 377.520604 85.045803 
L 379.55507 108.824598 
L 381.523909 80.962575 
L 383.558375 67.511944 
L 385.592842 109.545167 
L 387.56168 117.111147 
L 389.596147 132.723488 
L 391.564985 132.123013 
L 393.599452 126.418504 
L 395.633918 116.090341 
L 397.537129 136.386383 
L 399.571595 206.581866 
L 401.540434 226.877908 
L 403.5749 193.611614 
L 405.543739 120.653948 
L 407.578205 69.913842 
L 409.612672 58.324682 
L 411.581511 131.642633 
L 413.615977 148.99635 
L 415.584816 154.100384 
L 417.619282 71.114792 
L 419.653749 111.706876 
L 421.491331 138.608139 
L 423.525798 178.119369 
L 425.494636 208.203147 
L 427.529103 180.100935 
L 429.497941 162.146744 
L 431.532408 98.976814 
L 433.566874 82.343667 
L 435.535713 112.067161 
L 437.570179 129.240735 
L 439.539018 135.245481 
L 441.573484 106.002367 
L 443.607951 146.534404 
L 445.445534 174.276331 
L 447.48 154.580764 
L 447.48 154.580764 
" style="fill:none;stroke:#1f77b4;stroke-linecap:square;stroke-width:1.5;"/>
   </g>
   <g id="patch_3">
    <path d="M 36.124 309.8635 
L 36.124 23.36505 
" style="fill:none;stroke:#000000;stroke-linecap:square;stroke-linejoin:miter;stroke-width:0.8;"/>
   </g>
   <g id="patch_4">
    <path d="M 447.48 309.8635 
L 447.48 23.36505 
" style="fill:none;stroke:#000000;stroke-linecap:square;stroke-linejoin:miter;stroke-width:0.8;"/>
   </g>
   <g id="patch_5">
    <path d="M 36.124 309.8635 
L 447.48 309.8635 
" style="fill:none;stroke:#000000;stroke-linecap:square;stroke-linejoin:miter;stroke-width:0.8;"/>
   </g>
   <g id="patch_6">
    <path d="M 36.124 23.36505 
L 447.48 23.36505 
" style="fill:none;stroke:#000000;stroke-linecap:square;stroke-linejoin:miter;stroke-width:0.8;"/>
   </g>
   <g id="text_15">
    <!-- Monthly gross load trend (MW) -->
    <defs>
     <path d="M 9.8125 72.90625 
L 24.515625 72.90625 
L 43.109375 23.296875 
L 61.8125 72.90625 
L 76.515625 72.90625 
L 76.515625 0 
L 66.890625 0 
L 66.890625 64.015625 
L 48.09375 14.015625 
L 38.1875 14.015625 
L 19.390625 64.015625 
L 19.390625 0 
L 9.8125 0 
z
" id="DejaVuSans-4d"/>
     <path d="M 30.609375 48.390625 
Q 23.390625 48.390625 19.1875 42.75 
Q 14.984375 37.109375 14.984375 27.296875 
Q 14.984375 17.484375 19.15625 11.84375 
Q 23.34375 6.203125 30.609375 6.203125 
Q 37.796875 6.203125 41.984375 11.859375 
Q 46.1875 17.53125 46.1875 27.296875 
Q 46.1875 37.015625 41.984375 42.703125 
Q 37.796875 48.390625 30.609375 48.390625 
z
M 30.609375 56 
Q 42.328125 56 49.015625 48.375 
Q 55.71875 40.765625 55.71875 27.296875 
Q 55.71875 13.875 49.015625 6.21875 
Q 42.328125 -1.421875 30.609375 -1.421875 
Q 18.84375 -1.421875 12.171875 6.21875 
Q 5.515625 13.875 5.515625 27.296875 
Q 5.515625 40.765625 12.171875 48.375 
Q 18.84375 56 30.609375 56 
z
" id="DejaVuSans-6f"/>
     <path d="M 54.890625 33.015625 
L 54.890625 0 
L 45.90625 0 
L 45.90625 32.71875 
Q 45.90625 40.484375 42.875 44.328125 
Q 39.84375 48.1875 33.796875 48.1875 
Q 26.515625 48.1875 22.3125 43.546875 
Q 18.109375 38.921875 18.109375 30.90625 
L 18.109375 0 
L 9.078125 0 
L 9.078125 54.6875 
L 18.109375 54.6875 
L 18.109375 46.1875 
Q 21.34375 51.125 25.703125 53.5625 
Q 30.078125 56 35.796875 56 
Q 45.21875 56 50.046875 50.171875 
Q 54.890625 44.34375 54.890625 33.015625 
z
" id="DejaVuSans-6e"/>
     <path d="M 54.890625 33.015625 
L 54.890625 0 
L 45.90625 0 
L 45.90625 32.71875 
Q 45.90625 40.484375 42.875 44.328125 
Q 39.84375 48.1875 33.796875 48.1875 
Q 26.515625 48.1875 22.3125 43.546875 
Q 18.109375 38.921875 18.109375 30.90625 
L 18.109375 0 
L 9.078125 0 
L 9.078125 75.984375 
L 18.109375 75.984375 
L 18.109375 46.1875 
Q 21.34375 51.125 25.703125 53.5625 
Q 30.078125 56 35.796875 56 
Q 45.21875 56 50.046875 50.171875 
Q 54.890625 44.34375 54.890625 33.015625 
z
" id="DejaVuSans-68"/>
     <path d="M 9.421875 75.984375 
L 18.40625 75.984375 
L 18.40625 0 
L 9.421875 0 
z
" id="DejaVuSans-6c"/>
     <path d="M 32.171875 -5.078125 
Q 28.375 -14.84375 24.75 -17.8125 
Q 21.140625 -20.796875 15.09375 -20.796875 
L 7.90625 -20.796875 
L 7.90625 -13.28125 
L 13.1875 -13.28125 
Q 16.890625 -13.28125 18.9375 -11.515625 
Q 21 -9.765625 23.484375 -3.21875 
L 25.09375 0.875 
L 2.984375 54.6875 
L 12.5 54.6875 
L 29.59375 11.921875 
L 46.6875 54.6875 
L 56.203125 54.6875 
z
" id="DejaVuSans-79"/>
     <path id="DejaVuSans-20"/>
     <path d="M 45.40625 27.984375 
Q 45.40625 37.75 41.375 43.109375 
Q 37.359375 48.484375 30.078125 48.484375 
Q 22.859375 48.484375 18.828125 43.109375 
Q 14.796875 37.75 14.796875 27.984375 
Q 14.796875 18.265625 18.828125 12.890625 
Q 22.859375 7.515625 30.078125 7.515625 
Q 37.359375 7.515625 41.375 12.890625 
Q 45.40625 18.265625 45.40625 27.984375 
z
M 54.390625 6.78125 
Q 54.390625 -7.171875 48.1875 -13.984375 
Q 42 -20.796875 29.203125 -20.796875 
Q 24.46875 -20.796875 20.265625 -20.09375 
Q 16.0625 -19.390625 12.109375 -17.921875 
L 12.109375 -9.1875 
Q 16.0625 -11.328125 19.921875 -12.34375 
Q 23.78125 -13.375 27.78125 -13.375 
Q 36.625 -13.375 41.015625 -8.765625 
Q 45.40625 -4.15625 45.40625 5.171875 
L 45.40625 9.625 
Q 42.625 4.78125 38.28125 2.390625 
Q 33.9375 0 27.875 0 
Q 17.828125 0 11.671875 7.65625 
Q 5.515625 15.328125 5.515625 27.984375 
Q 5.515625 40.671875 11.671875 48.328125 
Q 17.828125 56 27.875 56 
Q 33.9375 56 38.28125 53.609375 
Q 42.625 51.21875 45.40625 46.390625 
L 45.40625 54.6875 
L 54.390625 54.6875 
z
" id="DejaVuSans-67"/>
     <path d="M 41.109375 46.296875 
Q 39.59375 47.171875 37.8125 47.578125 
Q 36.03125 48 33.890625 48 
Q 26.265625 48 22.1875 43.046875 
Q 18.109375 38.09375 18.109375 28.8125 
L 18.109375 0 
L 9.078125 0 
L 9.078125 54.6875 
L 18.109375 54.6875 
L 18.109375 46.1875 
Q 20.953125 51.171875 25.484375 53.578125 
Q 30.03125 56 36.53125 56 
Q 37.453125 56 38.578125 55.875 
Q 39.703125 55.765625 41.0625 55.515625 
z
" id="DejaVuSans-72"/>
     <path d="M 44.28125 53.078125 
L 44.28125 44.578125 
Q 40.484375 46.53125 36.375 47.5 
Q 32.28125 48.484375 27.875 48.484375 
Q 21.1875 48.484375 17.84375 46.4375 
Q 14.5 44.390625 14.5 40.28125 
Q 14.5 37.15625 16.890625 35.375 
Q 19.28125 33.59375 26.515625 31.984375 
L 29.59375 31.296875 
Q 39.15625 29.25 43.1875 25.515625 
Q 47.21875 21.78125 47.21875 15.09375 
Q 47.21875 7.46875 41.1875 3.015625 
Q 35.15625 -1.421875 24.609375 -1.421875 
Q 20.21875 -1.421875 15.453125 -0.5625 
Q 10.6875 0.296875 5.421875 2 
L 5.421875 11.28125 
Q 10.40625 8.6875 15.234375 7.390625 
Q 20.0625 6.109375 24.8125 6.109375 
Q 31.15625 6.109375 34.5625 8.28125 
Q 37.984375 10.453125 37.984375 14.40625 
Q 37.984375 18.0625 35.515625 20.015625 
Q 33.0625 21.96875 24.703125 23.78125 
L 21.578125 24.515625 
Q 13.234375 26.265625 9.515625 29.90625 
Q 5.8125 33.546875 5.8125 39.890625 
Q 5.8125 47.609375 11.28125 51.796875 
Q 16.75 56 26.8125 56 
Q 31.78125 56 36.171875 55.265625 
Q 40.578125 54.546875 44.28125 53.078125 
z
" id="DejaVuSans-73"/>
     <path d="M 45.40625 46.390625 
L 45.40625 75.984375 
L 54.390625 75.984375 
L 54.390625 0 
L 45.40625 0 
L 45.40625 8.203125 
Q 42.578125 3.328125 38.25 0.953125 
Q 33.9375 -1.421875 27.875 -1.421875 
Q 17.96875 -1.421875 11.734375 6.484375 
Q 5.515625 14.40625 5.515625 27.296875 
Q 5.515625 40.1875 11.734375 48.09375 
Q 17.96875 56 27.875 56 
Q 33.9375 56 38.25 53.625 
Q 42.578125 51.265625 45.40625 46.390625 
z
M 14.796875 27.296875 
Q 14.796875 17.390625 18.875 11.75 
Q 22.953125 6.109375 30.078125 6.109375 
Q 37.203125 6.109375 41.296875 11.75 
Q 45.40625 17.390625 45.40625 27.296875 
Q 45.40625 37.203125 41.296875 42.84375 
Q 37.203125 48.484375 30.078125 48.484375 
Q 22.953125 48.484375 18.875 42.84375 
Q 14.796875 37.203125 14.796875 27.296875 
z
" id="DejaVuSans-64"/>
     <path d="M 31 75.875 
Q 24.46875 64.65625 21.28125 53.65625 
Q 18.109375 42.671875 18.109375 31.390625 
Q 18.109375 20.125 21.3125 9.0625 
Q 24.515625 -2 31 -13.1875 
L 23.1875 -13.1875 
Q 15.875 -1.703125 12.234375 9.375 
Q 8.59375 20.453125 8.59375 31.390625 
Q 8.59375 42.28125 12.203125 53.3125 
Q 15.828125 64.359375 23.1875 75.875 
z
" id="DejaVuSans-28"/>
     <path d="M 3.328125 72.90625 
L 13.28125 72.90625 
L 28.609375 11.28125 
L 43.890625 72.90625 
L 54.984375 72.90625 
L 70.3125 11.28125 
L 85.59375 72.90625 
L 95.609375 72.90625 
L 77.296875 0 
L 64.890625 0 
L 49.515625 63.28125 
L 33.984375 0 
L 21.578125 0 
z
" id="DejaVuSans-57"/>
     <path d="M 8.015625 75.875 
L 15.828125 75.875 
Q 23.140625 64.359375 26.78125 53.3125 
Q 30.421875 42.28125 30.421875 31.390625 
Q 30.421875 20.453125 26.78125 9.375 
Q 23.140625 -1.703125 15.828125 -13.1875 
L 8.015625 -13.1875 
Q 14.5 -2 17.703125 9.0625 
Q 20.90625 20.125 20.90625 31.390625 
Q 20.90625 42.671875 17.703125 53.65625 
Q 14.5 64.65625 8.015625 75.875 
z
" id="DejaVuSans-29"/>
    </defs>
    <g transform="translate(149.219188 17.36505)scale(0.12 -0.12)">
     <use xlink:href="#DejaVuSans-4d"/>
     <use x="86.279297" xlink:href="#DejaVuSans-6f"/>
     <use x="147.460938" xlink:href="#DejaVuSans-6e"/>
     <use x="210.839844" xlink:href="#DejaVuSans-74"/>
     <use x="250.048828" xlink:href="#DejaVuSans-68"/>
     <use x="313.427734" xlink:href="#DejaVuSans-6c"/>
     <use x="341.210938" xlink:href="#DejaVuSans-79"/>
     <use x="400.390625" xlink:href="#DejaVuSans-20"/>
     <use x="432.177734" xlink:href="#DejaVuSans-67"/>
     <use x="495.654297" xlink:href="#DejaVuSans-72"/>
     <use x="536.736328" xlink:href="#DejaVuSans-6f"/>
     <use x="597.917969" xlink:href="#DejaVuSans-73"/>
     <use x="650.017578" xlink:href="#DejaVuSans-73"/>
     <use x="702.117188" xlink:href="#DejaVuSans-20"/>
     <use x="733.904297" xlink:href="#DejaVuSans-6c"/>
     <use x="761.6875" xlink:href="#DejaVuSans-6f"/>
     <use x="822.869141" xlink:href="#DejaVuSans-61"/>
     <use x="884.148438" xlink:href="#DejaVuSans-64"/>
     <use x="947.625" xlink:href="#DejaVuSans-20"/>
     <use x="979.412109" xlink:href="#DejaVuSans-74"/>
     <use x="1018.621094" xlink:href="#DejaVuSans-72"/>
     <use x="1059.703125" xlink:href="#DejaVuSans-65"/>
     <use x="1121.226562" xlink:href="#DejaVuSans-6e"/>
     <use x="1184.605469" xlink:href="#DejaVuSans-64"/>
     <use x="1248.082031" xlink:href="#DejaVuSans-20"/>
     <use x="1279.869141" xlink:href="#DejaVuSans-28"/>
     <use x="1318.882812" xlink:href="#DejaVuSans-4d"/>
     <use x="1405.162109" xlink:href="#DejaVuSans-57"/>
     <use x="1504.039062" xlink:href="#DejaVuSans-29"/>
    </g>
   </g>
  </g>
 </g>
 <defs>
  <clipPath id="pf17674f950">
   <rect height="286.49845" width="411.356" x="36.124" y="23.36505"/>
  </clipPath>
 </defs>
</svg>
