<?xml version="1.0" encoding="utf-8" standalone="no"?>
<!DOCTYPE svg PUBLIC "-//W3C//DTD SVG 1.1//EN"
  "http://www.w3.org/Graphics/SVG/1.1/DTD/svg11.dtd">
<!-- Created with matplotlib (http://matplotlib.org/) -->
<svg height="345.6pt" version="1.1" viewBox="0 0 460.8 345.6" width="460.8pt" xmlns="http://www.w3.org/2000/svg" xmlns:xlink="http://www.w3.org/1999/xlink">
 <defs>
  <style type="text/css">
*{stroke-linecap:butt;stroke-linejoin:round;}
  </style>
 </defs>
 <g id="figure_1">
  <g id="patch_1">
   <path d="M 0 345.6 
L 460.8 345.6 
L 460.8 0 
L 0 0 
z
" style="fill:none;"/>
  </g>
  <g id="axes_1">
   <g id="patch_2">
    <path d="M 36.124 309.8635 
L 447.48 309.8635 
L 447.48 23.36505 
L 36.124 23.36505 
z
" style="fill:none;"/>
   </g>
   <g id="PolyCollection_1">
    <path clip-path="url(#p52d569c739)" d="M 36.124 46.742745 
L 36.124 194.991542 
L 37.961583 186.369192 
L 39.996049 184.70035 
L 41.964888 184.42221 
L 43.999354 240.328417 
L 45.968193 309.8635 
L 48.002659 233.374908 
L 50.037126 240.328417 
L 52.005964 182.197087 
L 54.040431 309.8635 
L 56.009269 191.653858 
L 58.043736 243.666101 
L 60.078202 196.660384 
L 61.915785 231.706066 
L 63.950251 301.51929 
L 65.91909 309.8635 
L 67.953556 183.309648 
L 69.922395 239.772136 
L 71.956862 309.8635 
L 73.991328 309.8635 
L 75.960167 225.308839 
L 77.994633 309.8635 
L 79.963472 309.8635 
L 81.997938 309.8635 
L 84.032405 184.42221 
L 85.869987 309.8635 
L 87.904454 180.806385 
L 89.873292 75.113059 
L 91.907759 210.845541 
L 93.876597 106.542917 
L 95.911064 137.972774 
L 97.94553 141.032318 
L 99.914369 309.8635 
L 101.948835 202.779472 
L 103.917674 215.017646 
L 105.95214 113.774565 
L 107.986607 309.8635 
L 109.889817 240.884697 
L 111.924284 191.097578 
L 113.893123 309.8635 
L 115.927589 193.04456 
L 117.896428 205.560875 
L 119.930894 309.8635 
L 121.965361 309.8635 
L 123.934199 232.540487 
L 125.968666 203.335752 
L 127.937504 197.216665 
L 129.971971 309.8635 
L 132.006437 191.375718 
L 133.84402 201.11063 
L 135.878486 240.328417 
L 137.847325 256.460556 
L 139.881791 187.481753 
L 141.85063 309.8635 
L 143.885096 309.8635 
L 145.919563 210.845541 
L 147.888401 309.8635 
L 149.922868 309.8635 
L 151.891706 197.772946 
L 153.926173 226.4214 
L 155.960639 195.547823 
L 157.798222 193.04456 
L 159.832689 204.726454 
L 161.801527 214.183225 
L 163.835994 233.653049 
L 165.804832 207.229717 
L 167.839299 191.097578 
L 169.873765 195.269683 
L 171.842604 217.242769 
L 173.87707 230.037224 
L 175.845909 309.8635 
L 177.880375 234.48747 
L 179.914842 179.693824 
L 181.752424 104.595934 
L 183.786891 205.004594 
L 185.755729 309.8635 
L 187.790196 199.441788 
L 189.759034 219.746032 
L 191.793501 178.303122 
L 193.827967 248.116346 
L 195.796806 177.746842 
L 197.831272 209.45484 
L 199.800111 177.468701 
L 201.834578 201.11063 
L 203.869044 126.01274 
L 205.772255 309.8635 
L 207.806721 196.938525 
L 209.77556 177.468701 
L 211.810026 280.936905 
L 213.778865 207.229717 
L 215.813331 180.250105 
L 217.847798 190.263157 
L 219.816636 130.184845 
L 221.851103 193.3227 
L 223.819941 196.382244 
L 225.854408 205.282735 
L 227.888874 102.370812 
L 229.726457 309.8635 
L 231.760923 192.76642 
L 233.729762 240.884697 
L 235.764228 208.342278 
L 237.733067 221.136734 
L 239.767534 186.369192 
L 241.802 195.269683 
L 243.770839 191.097578 
L 245.805305 197.494805 
L 247.774144 199.163647 
L 249.80861 246.447504 
L 251.843077 197.216665 
L 253.680659 236.434452 
L 255.715126 184.42221 
L 257.683964 196.104104 
L 259.718431 212.514383 
L 261.687269 205.560875 
L 263.721736 133.800669 
L 265.756202 125.178319 
L 267.725041 309.8635 
L 269.759507 309.8635 
L 271.728346 309.8635 
L 273.762812 204.726454 
L 275.797279 235.321891 
L 277.634862 309.8635 
L 279.669328 309.8635 
L 281.638167 180.250105 
L 283.672633 216.408348 
L 285.641472 205.282735 
L 287.675938 211.123682 
L 289.710405 202.501331 
L 291.679243 205.839015 
L 293.71371 309.8635 
L 295.682548 309.8635 
L 297.717015 309.8635 
L 299.751481 174.965438 
L 301.654692 176.35614 
L 303.689158 208.342278 
L 305.657997 187.759894 
L 307.692463 141.588599 
L 309.661302 206.951577 
L 311.695768 146.038844 
L 313.730235 230.037224 
L 315.699073 208.064138 
L 317.73354 214.739506 
L 319.702378 157.442598 
L 321.736845 212.514383 
L 323.771311 122.675056 
L 325.608894 137.972774 
L 327.643361 127.125301 
L 329.612199 182.197087 
L 331.646666 212.514383 
L 333.615504 212.514383 
L 335.649971 194.713402 
L 337.684437 209.73298 
L 339.653276 213.348804 
L 341.687742 219.467892 
L 343.656581 133.522529 
L 345.691047 182.475227 
L 347.725514 210.289261 
L 349.563096 131.853687 
L 351.597563 221.414874 
L 353.566401 169.958913 
L 355.600868 138.807195 
L 357.569706 215.295787 
L 359.604173 218.911611 
L 361.638639 218.911611 
L 363.607478 259.241959 
L 365.641944 240.328417 
L 367.610783 224.752558 
L 369.64525 194.157121 
L 371.679716 202.779472 
L 373.517299 133.522529 
L 375.551765 191.653858 
L 377.520604 128.516003 
L 379.55507 157.720738 
L 381.523909 217.520909 
L 383.558375 216.964629 
L 385.592842 202.779472 
L 387.56168 212.514383 
L 389.596147 247.560065 
L 391.564985 243.666101 
L 393.599452 207.507857 
L 395.633918 226.4214 
L 397.537129 230.593505 
L 399.571595 270.923853 
L 401.540434 270.923853 
L 403.5749 254.235433 
L 405.543739 197.216665 
L 407.578205 198.329226 
L 409.612672 253.957293 
L 411.581511 223.918137 
L 413.615977 210.289261 
L 415.584816 214.739506 
L 417.619282 209.176699 
L 419.653749 254.513574 
L 421.491331 242.83168 
L 423.525798 268.976871 
L 425.494636 266.751748 
L 427.529103 266.195468 
L 429.497941 236.434452 
L 431.532408 228.646523 
L 433.566874 238.937715 
L 435.535713 239.215855 
L 437.570179 247.003785 
L 439.539018 267.586169 
L 441.573484 229.202803 
L 443.607951 238.103294 
L 445.445534 237.547013 
L 447.48 272.314555 
L 447.48 41.179938 
L 447.48 41.179938 
L 445.445534 43.405061 
L 443.607951 42.014359 
L 441.573484 41.458079 
L 439.539018 44.517622 
L 437.570179 42.57064 
L 435.535713 46.186464 
L 433.566874 45.073903 
L 431.532408 42.57064 
L 429.497941 45.073903 
L 427.529103 42.014359 
L 425.494636 50.91485 
L 423.525798 49.802289 
L 421.491331 46.186464 
L 419.653749 43.126921 
L 417.619282 42.2925 
L 415.584816 44.239482 
L 413.615977 43.683201 
L 411.581511 42.57064 
L 409.612672 44.239482 
L 407.578205 43.126921 
L 405.543739 49.246008 
L 403.5749 42.57064 
L 401.540434 80.954006 
L 399.571595 129.350424 
L 397.537129 43.683201 
L 395.633918 42.84878 
L 393.599452 40.901798 
L 391.564985 41.179938 
L 389.596147 165.786808 
L 387.56168 51.749271 
L 385.592842 50.358569 
L 383.558375 53.974394 
L 381.523909 53.974394 
L 379.55507 51.471131 
L 377.520604 51.19299 
L 375.551765 49.802289 
L 373.517299 48.689727 
L 371.679716 47.855306 
L 369.64525 45.630184 
L 367.610783 47.299026 
L 365.641944 180.806385 
L 363.607478 52.861832 
L 361.638639 52.027411 
L 359.604173 50.63671 
L 357.569706 50.080429 
L 355.600868 48.689727 
L 353.566401 47.855306 
L 351.597563 48.133447 
L 349.563096 47.855306 
L 347.725514 47.855306 
L 345.691047 47.020885 
L 343.656581 46.742745 
L 341.687742 45.908324 
L 339.653276 48.689727 
L 337.684437 47.577166 
L 335.649971 48.133447 
L 333.615504 44.517622 
L 331.646666 48.411587 
L 329.612199 47.299026 
L 327.643361 47.020885 
L 325.608894 44.517622 
L 323.771311 44.239482 
L 321.736845 42.2925 
L 319.702378 43.961342 
L 317.73354 42.57064 
L 315.699073 40.901798 
L 313.730235 42.014359 
L 311.695768 46.186464 
L 309.661302 41.179938 
L 307.692463 41.458079 
L 305.657997 40.901798 
L 303.689158 37.285974 
L 301.654692 39.511096 
L 299.751481 38.954816 
L 297.717015 39.232956 
L 295.682548 172.740316 
L 293.71371 72.053515 
L 291.679243 45.630184 
L 289.710405 45.352043 
L 287.675938 43.126921 
L 285.641472 42.2925 
L 283.672633 42.2925 
L 281.638167 40.623658 
L 279.669328 40.345517 
L 277.634862 39.511096 
L 275.797279 39.511096 
L 273.762812 37.007833 
L 271.728346 46.186464 
L 269.759507 176.912421 
L 267.725041 53.139973 
L 265.756202 50.91485 
L 263.721736 50.080429 
L 261.687269 49.524148 
L 259.718431 42.2925 
L 257.683964 55.921376 
L 255.715126 54.252534 
L 253.680659 52.861832 
L 251.843077 52.305552 
L 249.80861 52.027411 
L 247.774144 50.63671 
L 245.805305 50.63671 
L 243.770839 48.689727 
L 241.802 49.524148 
L 239.767534 47.020885 
L 237.733067 50.91485 
L 235.764228 48.689727 
L 233.729762 46.742745 
L 231.760923 47.855306 
L 229.726457 48.133447 
L 227.888874 48.689727 
L 225.854408 46.742745 
L 223.819941 47.299026 
L 221.851103 48.411587 
L 219.816636 47.299026 
L 217.847798 48.133447 
L 215.813331 46.742745 
L 213.778865 43.405061 
L 211.810026 43.405061 
L 209.77556 43.126921 
L 207.806721 44.239482 
L 205.772255 44.795763 
L 203.869044 43.126921 
L 201.834578 43.405061 
L 199.800111 41.179938 
L 197.831272 42.57064 
L 195.796806 41.458079 
L 193.827967 42.57064 
L 191.793501 43.126921 
L 189.759034 43.126921 
L 187.790196 42.014359 
L 185.755729 41.179938 
L 183.786891 43.126921 
L 181.752424 42.2925 
L 179.914842 43.683201 
L 177.880375 45.073903 
L 175.845909 45.630184 
L 173.87707 177.746842 
L 171.842604 48.967868 
L 169.873765 48.689727 
L 167.839299 48.133447 
L 165.804832 48.133447 
L 163.835994 47.299026 
L 161.801527 48.133447 
L 159.832689 46.186464 
L 157.798222 44.239482 
L 155.960639 45.630184 
L 153.926173 45.630184 
L 151.891706 44.517622 
L 149.922868 45.630184 
L 147.888401 49.802289 
L 145.919563 50.080429 
L 143.885096 48.689727 
L 141.85063 47.020885 
L 139.881791 46.464605 
L 137.847325 45.908324 
L 135.878486 47.577166 
L 133.84402 46.742745 
L 132.006437 46.742745 
L 129.971971 46.742745 
L 127.937504 46.186464 
L 125.968666 45.352043 
L 123.934199 44.239482 
L 121.965361 46.742745 
L 119.930894 45.352043 
L 117.896428 45.352043 
L 115.927589 44.795763 
L 113.893123 47.020885 
L 111.924284 46.464605 
L 109.889817 45.908324 
L 107.986607 45.073903 
L 105.95214 44.517622 
L 103.917674 44.517622 
L 101.948835 46.186464 
L 99.914369 45.352043 
L 97.94553 46.742745 
L 95.911064 46.464605 
L 93.876597 45.630184 
L 91.907759 45.908324 
L 89.873292 44.517622 
L 87.904454 45.352043 
L 85.869987 48.133447 
L 84.032405 49.524148 
L 81.997938 48.133447 
L 79.963472 180.250105 
L 77.994633 179.971964 
L 75.960167 51.749271 
L 73.991328 50.63671 
L 71.956862 47.855306 
L 69.922395 51.749271 
L 67.953556 50.358569 
L 65.91909 49.246008 
L 63.950251 48.133447 
L 61.915785 47.299026 
L 60.078202 50.91485 
L 58.043736 47.855306 
L 56.009269 46.742745 
L 54.040431 46.464605 
L 52.005964 48.133447 
L 50.037126 48.133447 
L 48.002659 49.524148 
L 45.968193 51.471131 
L 43.999354 51.471131 
L 41.964888 46.742745 
L 39.996049 47.299026 
L 37.961583 47.020885 
L 36.124 46.742745 
z
" style="fill:#808080;fill-opacity:0.3;"/>
   </g>
   <g id="PolyCollection_2">
    <path clip-path="url(#p52d569c739)" d="M 36.124 50.63671 
L 36.124 66.490709 
L 37.961583 68.785366 
L 39.996049 106.890592 
L 41.964888 63.431165 
L 43.999354 186.925473 
L 45.968193 309.8635 
L 48.002659 107.933618 
L 50.037126 111.340837 
L 52.005964 74.000498 
L 54.040431 67.88141 
L 56.009269 65.378147 
L 58.043736 175.591254 
L 60.078202 78.798418 
L 61.915785 96.321259 
L 63.950251 117.66853 
L 65.91909 130.810661 
L 67.953556 71.84491 
L 69.922395 181.918947 
L 71.956862 140.893248 
L 73.991328 60.649762 
L 75.960167 69.828393 
L 77.994633 186.786403 
L 79.963472 197.772946 
L 81.997938 178.859403 
L 84.032405 72.887936 
L 85.869987 178.303122 
L 87.904454 176.912421 
L 89.873292 47.577166 
L 91.907759 177.190561 
L 93.876597 48.967868 
L 95.911064 50.63671 
L 97.94553 49.802289 
L 99.914369 60.997437 
L 101.948835 60.927902 
L 103.917674 65.656288 
L 105.95214 67.88141 
L 107.986607 179.693824 
L 109.889817 162.727264 
L 111.924284 69.550252 
L 113.893123 179.415684 
L 115.927589 62.318604 
L 117.896428 108.698504 
L 119.930894 107.377338 
L 121.965361 179.971964 
L 123.934199 177.190561 
L 125.968666 85.960532 
L 127.937504 77.546787 
L 129.971971 76.573296 
L 132.006437 79.285164 
L 133.84402 110.645486 
L 135.878486 91.036593 
L 137.847325 58.98092 
L 139.881791 82.275173 
L 141.85063 103.066162 
L 143.885096 113.8441 
L 145.919563 84.361225 
L 147.888401 180.250105 
L 149.922868 180.528245 
L 151.891706 100.423829 
L 153.926173 93.748461 
L 155.960639 72.679331 
L 157.798222 72.679331 
L 159.832689 94.026602 
L 161.801527 178.581263 
L 163.835994 128.516003 
L 165.804832 77.894462 
L 167.839299 69.897928 
L 169.873765 65.169542 
L 171.842604 183.657324 
L 173.87707 185.326166 
L 175.845909 179.971964 
L 177.880375 104.595934 
L 179.914842 63.431165 
L 181.752424 45.630184 
L 183.786891 73.791892 
L 185.755729 102.370812 
L 187.790196 68.715831 
L 189.759034 74.417708 
L 191.793501 47.577166 
L 193.827967 118.642021 
L 195.796806 67.4642 
L 197.831272 69.550252 
L 199.800111 126.499485 
L 201.834578 74.556778 
L 203.869044 47.577166 
L 205.772255 179.971964 
L 207.806721 63.153025 
L 209.77556 67.60327 
L 211.810026 72.887936 
L 213.778865 80.954006 
L 215.813331 58.98092 
L 217.847798 52.861832 
L 219.816636 55.921376 
L 221.851103 91.523339 
L 223.819941 60.719297 
L 225.854408 65.378147 
L 227.888874 52.027411 
L 229.726457 179.971964 
L 231.760923 67.60327 
L 233.729762 79.841445 
L 235.764228 92.010084 
L 237.733067 184.70035 
L 239.767534 55.365095 
L 241.802 76.573296 
L 243.770839 65.934428 
L 245.805305 72.331656 
L 247.774144 72.957471 
L 249.80861 77.060041 
L 251.843077 84.01355 
L 253.680659 71.497235 
L 255.715126 63.431165 
L 257.683964 181.918947 
L 259.718431 101.11918 
L 261.687269 84.917506 
L 263.721736 73.166077 
L 265.756202 71.497235 
L 267.725041 178.859403 
L 269.759507 201.38877 
L 271.728346 199.024577 
L 273.762812 75.530269 
L 275.797279 172.184035 
L 277.634862 174.756833 
L 279.669328 95.278233 
L 281.638167 78.798418 
L 283.672633 102.927092 
L 285.641472 100.423829 
L 287.675938 88.881005 
L 289.710405 79.285164 
L 291.679243 86.794953 
L 293.71371 190.263157 
L 295.682548 309.8635 
L 297.717015 186.925473 
L 299.751481 86.586348 
L 301.654692 73.444217 
L 303.689158 92.6359 
L 305.657997 91.523339 
L 307.692463 93.609391 
L 309.661302 95.417303 
L 311.695768 102.788022 
L 313.730235 178.094517 
L 315.699073 129.97624 
L 317.73354 89.506821 
L 319.702378 92.91404 
L 321.736845 123.439942 
L 323.771311 89.437286 
L 325.608894 86.586348 
L 327.643361 90.688918 
L 329.612199 96.251724 
L 331.646666 178.928938 
L 333.615504 95.973584 
L 335.649971 86.238672 
L 337.684437 95.139163 
L 339.653276 94.930558 
L 341.687742 114.887127 
L 343.656581 83.526804 
L 345.691047 86.238672 
L 347.725514 90.688918 
L 349.563096 90.202172 
L 351.597563 126.01274 
L 353.566401 101.814531 
L 355.600868 89.993567 
L 357.569706 86.099602 
L 359.604173 96.251724 
L 361.638639 94.026602 
L 363.607478 107.864083 
L 365.641944 197.494805 
L 367.610783 185.534771 
L 369.64525 84.361225 
L 371.679716 78.172603 
L 373.517299 94.861023 
L 375.551765 97.920566 
L 377.520604 93.539856 
L 379.55507 103.552908 
L 381.523909 102.648952 
L 383.558375 129.072284 
L 385.592842 84.29169 
L 387.56168 179.693824 
L 389.596147 229.202803 
L 391.564985 227.533961 
L 393.599452 94.652417 
L 395.633918 107.655478 
L 397.537129 163.839825 
L 399.571595 241.162838 
L 401.540434 247.003785 
L 403.5749 218.424866 
L 405.543739 143.535581 
L 407.578205 98.268242 
L 409.612672 96.321259 
L 411.581511 97.990101 
L 413.615977 76.017015 
L 415.584816 135.260906 
L 417.619282 90.688918 
L 419.653749 88.81147 
L 421.491331 198.468297 
L 423.525798 235.182821 
L 425.494636 213.626945 
L 427.529103 204.726454 
L 429.497941 211.819033 
L 431.532408 93.539856 
L 433.566874 177.468701 
L 435.535713 148.542107 
L 437.570179 152.436072 
L 439.539018 146.108379 
L 441.573484 101.953601 
L 443.607951 142.214414 
L 445.445534 188.94199 
L 447.48 225.100234 
L 447.48 79.77191 
L 447.48 79.77191 
L 445.445534 70.801884 
L 443.607951 71.497235 
L 441.573484 55.29556 
L 439.539018 65.864893 
L 437.570179 58.563709 
L 435.535713 68.437691 
L 433.566874 60.580227 
L 431.532408 56.686262 
L 429.497941 79.007024 
L 427.529103 92.079619 
L 425.494636 105.013145 
L 423.525798 162.935869 
L 421.491331 73.930963 
L 419.653749 50.845315 
L 417.619282 62.596744 
L 415.584816 70.036998 
L 413.615977 48.689727 
L 411.581511 53.974394 
L 409.612672 56.199516 
L 407.578205 56.199516 
L 405.543739 79.563304 
L 403.5749 117.66853 
L 401.540434 195.756428 
L 399.571595 200.832489 
L 397.537129 80.814936 
L 395.633918 64.821867 
L 393.599452 57.590218 
L 391.564985 114.261311 
L 389.596147 181.918947 
L 387.56168 63.987446 
L 385.592842 60.649762 
L 383.558375 79.563304 
L 381.523909 63.153025 
L 379.55507 63.987446 
L 377.520604 70.593279 
L 375.551765 68.437691 
L 373.517299 66.490709 
L 371.679716 58.076964 
L 369.64525 58.702779 
L 367.610783 63.08349 
L 365.641944 183.031508 
L 363.607478 65.656288 
L 361.638639 55.086955 
L 359.604173 56.199516 
L 357.569706 54.530674 
L 355.600868 55.365095 
L 353.566401 63.77884 
L 351.597563 80.954006 
L 349.563096 60.371621 
L 347.725514 55.573701 
L 345.691047 52.305552 
L 343.656581 50.63671 
L 341.687742 52.027411 
L 339.653276 54.182999 
L 337.684437 52.305552 
L 335.649971 51.679736 
L 333.615504 50.91485 
L 331.646666 68.159551 
L 329.612199 63.153025 
L 327.643361 63.431165 
L 325.608894 66.768849 
L 323.771311 55.29556 
L 321.736845 63.987446 
L 319.702378 60.580227 
L 317.73354 45.908324 
L 315.699073 47.855306 
L 313.730235 57.242543 
L 311.695768 59.25906 
L 309.661302 46.464605 
L 307.692463 47.785771 
L 305.657997 55.086955 
L 303.689158 53.418113 
L 301.654692 43.126921 
L 299.751481 51.679736 
L 297.717015 73.096542 
L 295.682548 189.150595 
L 293.71371 90.967058 
L 291.679243 50.080429 
L 289.710405 49.454613 
L 287.675938 49.246008 
L 285.641472 62.596744 
L 283.672633 52.583692 
L 281.638167 46.742745 
L 279.669328 48.063912 
L 277.634862 58.563709 
L 275.797279 48.411587 
L 273.762812 48.689727 
L 271.728346 178.859403 
L 269.759507 179.415684 
L 267.725041 79.007024 
L 265.756202 53.696253 
L 263.721736 53.418113 
L 261.687269 53.418113 
L 259.718431 50.91485 
L 257.683964 58.424639 
L 255.715126 57.033937 
L 253.680659 56.755797 
L 251.843077 55.921376 
L 249.80861 55.365095 
L 247.774144 52.861832 
L 245.805305 53.418113 
L 243.770839 52.583692 
L 241.802 52.305552 
L 239.767534 50.358569 
L 237.733067 69.272112 
L 235.764228 53.418113 
L 233.729762 49.524148 
L 231.760923 49.802289 
L 229.726457 53.557183 
L 227.888874 50.358569 
L 225.854408 49.524148 
L 223.819941 50.358569 
L 221.851103 50.358569 
L 219.816636 49.246008 
L 217.847798 49.802289 
L 215.813331 49.246008 
L 213.778865 47.020885 
L 211.810026 45.352043 
L 209.77556 45.630184 
L 207.806721 45.908324 
L 205.772255 49.732754 
L 203.869044 45.630184 
L 201.834578 47.020885 
L 199.800111 55.921376 
L 197.831272 44.517622 
L 195.796806 44.239482 
L 193.827967 44.795763 
L 191.793501 44.795763 
L 189.759034 45.352043 
L 187.790196 44.239482 
L 185.755729 44.239482 
L 183.786891 44.517622 
L 181.752424 44.239482 
L 179.914842 45.908324 
L 177.880375 52.861832 
L 175.845909 136.582073 
L 173.87707 178.859403 
L 171.842604 70.523743 
L 169.873765 50.358569 
L 167.839299 50.358569 
L 165.804832 49.524148 
L 163.835994 50.080429 
L 161.801527 58.911385 
L 159.832689 49.246008 
L 157.798222 47.299026 
L 155.960639 48.898333 
L 153.926173 47.855306 
L 151.891706 50.63671 
L 149.922868 179.693824 
L 147.888401 52.305552 
L 145.919563 51.749271 
L 143.885096 51.19299 
L 141.85063 50.080429 
L 139.881791 49.524148 
L 137.847325 47.577166 
L 135.878486 48.967868 
L 133.84402 58.702779 
L 132.006437 54.252534 
L 129.971971 48.689727 
L 127.937504 47.577166 
L 125.968666 47.299026 
L 123.934199 50.77578 
L 121.965361 69.828393 
L 119.930894 48.133447 
L 117.896428 47.855306 
L 115.927589 47.020885 
L 113.893123 49.802289 
L 111.924284 48.411587 
L 109.889817 49.246008 
L 107.986607 47.299026 
L 105.95214 47.020885 
L 103.917674 47.299026 
L 101.948835 47.299026 
L 99.914369 47.577166 
L 97.94553 48.411587 
L 95.911064 48.411587 
L 93.876597 47.577166 
L 91.907759 47.299026 
L 89.873292 46.186464 
L 87.904454 50.358569 
L 85.869987 50.63671 
L 84.032405 50.63671 
L 81.997938 52.305552 
L 79.963472 181.362666 
L 77.994633 181.849412 
L 75.960167 53.696253 
L 73.991328 52.792297 
L 71.956862 53.696253 
L 69.922395 57.868358 
L 67.953556 55.365095 
L 65.91909 53.139973 
L 63.950251 56.477657 
L 61.915785 52.861832 
L 60.078202 53.418113 
L 58.043736 52.027411 
L 56.009269 50.010894 
L 54.040431 50.63671 
L 52.005964 53.696253 
L 50.037126 51.401596 
L 48.002659 56.477657 
L 45.968193 176.912421 
L 43.999354 181.640806 
L 41.964888 55.01742 
L 39.996049 51.471131 
L 37.961583 50.567175 
L 36.124 50.63671 
z
" style="fill:#808080;fill-opacity:0.6;"/>
   </g>
   <g id="matplotlib.axis_1">
    <g id="xtick_1">
     <g id="line2d_1">
      <path clip-path="url(#p52d569c739)" d="M 82.063566 309.8635 
L 82.063566 23.36505 
" style="fill:none;stroke:#b0b0b0;stroke-linecap:square;stroke-width:0.8;"/>
     </g>
     <g id="line2d_2">
      <defs>
       <path d="M 0 0 
L 0 3.5 
" id="mef8a0f2b11" style="stroke:#000000;stroke-width:0.8;"/>
      </defs>
      <g>
       <use style="stroke:#000000;stroke-width:0.8;" x="82.063566" xlink:href="#mef8a0f2b11" y="309.8635"/>
      </g>
     </g>
     <g id="text_1">
      <!-- 2003 -->
      <defs>
       <path d="M 19.1875 8.296875 
L 53.609375 8.296875 
L 53.609375 0 
L 7.328125 0 
L 7.328125 8.296875 
Q 12.9375 14.109375 22.625 23.890625 
Q 32.328125 33.6875 34.8125 36.53125 
Q 39.546875 41.84375 41.421875 45.53125 
Q 43.3125 49.21875 43.3125 52.78125 
Q 43.3125 58.59375 39.234375 62.25 
Q 35.15625 65.921875 28.609375 65.921875 
Q 23.96875 65.921875 18.8125 64.3125 
Q 13.671875 62.703125 7.8125 59.421875 
L 7.8125 69.390625 
Q 13.765625 71.78125 18.9375 73 
Q 24.125 74.21875 28.421875 74.21875 
Q 39.75 74.21875 46.484375 68.546875 
Q 53.21875 62.890625 53.21875 53.421875 
Q 53.21875 48.921875 51.53125 44.890625 
Q 49.859375 40.875 45.40625 35.40625 
Q 44.1875 33.984375 37.640625 27.21875 
Q 31.109375 20.453125 19.1875 8.296875 
z
" id="DejaVuSans-32"/>
       <path d="M 31.78125 66.40625 
Q 24.171875 66.40625 20.328125 58.90625 
Q 16.5 51.421875 16.5 36.375 
Q 16.5 21.390625 20.328125 13.890625 
Q 24.171875 6.390625 31.78125 6.390625 
Q 39.453125 6.390625 43.28125 13.890625 
Q 47.125 21.390625 47.125 36.375 
Q 47.125 51.421875 43.28125 58.90625 
Q 39.453125 66.40625 31.78125 66.40625 
z
M 31.78125 74.21875 
Q 44.046875 74.21875 50.515625 64.515625 
Q 56.984375 54.828125 56.984375 36.375 
Q 56.984375 17.96875 50.515625 8.265625 
Q 44.046875 -1.421875 31.78125 -1.421875 
Q 19.53125 -1.421875 13.0625 8.265625 
Q 6.59375 17.96875 6.59375 36.375 
Q 6.59375 54.828125 13.0625 64.515625 
Q 19.53125 74.21875 31.78125 74.21875 
z
" id="DejaVuSans-30"/>
       <path d="M 40.578125 39.3125 
Q 47.65625 37.796875 51.625 33 
Q 55.609375 28.21875 55.609375 21.1875 
Q 55.609375 10.40625 48.1875 4.484375 
Q 40.765625 -1.421875 27.09375 -1.421875 
Q 22.515625 -1.421875 17.65625 -0.515625 
Q 12.796875 0.390625 7.625 2.203125 
L 7.625 11.71875 
Q 11.71875 9.328125 16.59375 8.109375 
Q 21.484375 6.890625 26.8125 6.890625 
Q 36.078125 6.890625 40.9375 10.546875 
Q 45.796875 14.203125 45.796875 21.1875 
Q 45.796875 27.640625 41.28125 31.265625 
Q 36.765625 34.90625 28.71875 34.90625 
L 20.21875 34.90625 
L 20.21875 43.015625 
L 29.109375 43.015625 
Q 36.375 43.015625 40.234375 45.921875 
Q 44.09375 48.828125 44.09375 54.296875 
Q 44.09375 59.90625 40.109375 62.90625 
Q 36.140625 65.921875 28.71875 65.921875 
Q 24.65625 65.921875 20.015625 65.03125 
Q 15.375 64.15625 9.8125 62.3125 
L 9.8125 71.09375 
Q 15.4375 72.65625 20.34375 73.4375 
Q 25.25 74.21875 29.59375 74.21875 
Q 40.828125 74.21875 47.359375 69.109375 
Q 53.90625 64.015625 53.90625 55.328125 
Q 53.90625 49.265625 50.4375 45.09375 
Q 46.96875 40.921875 40.578125 39.3125 
z
" id="DejaVuSans-33"/>
      </defs>
      <g transform="translate(69.338566 324.461937)scale(0.1 -0.1)">
       <use xlink:href="#DejaVuSans-32"/>
       <use x="63.623047" xlink:href="#DejaVuSans-30"/>
       <use x="127.246094" xlink:href="#DejaVuSans-30"/>
       <use x="190.869141" xlink:href="#DejaVuSans-33"/>
      </g>
     </g>
    </g>
    <g id="xtick_2">
     <g id="line2d_3">
      <path clip-path="url(#p52d569c739)" d="M 130.037599 309.8635 
L 130.037599 23.36505 
" style="fill:none;stroke:#b0b0b0;stroke-linecap:square;stroke-width:0.8;"/>
     </g>
     <g id="line2d_4">
      <g>
       <use style="stroke:#000000;stroke-width:0.8;" x="130.037599" xlink:href="#mef8a0f2b11" y="309.8635"/>
      </g>
     </g>
     <g id="text_2">
      <!-- 2005 -->
      <defs>
       <path d="M 10.796875 72.90625 
L 49.515625 72.90625 
L 49.515625 64.59375 
L 19.828125 64.59375 
L 19.828125 46.734375 
Q 21.96875 47.46875 24.109375 47.828125 
Q 26.265625 48.1875 28.421875 48.1875 
Q 40.625 48.1875 47.75 41.5 
Q 54.890625 34.8125 54.890625 23.390625 
Q 54.890625 11.625 47.5625 5.09375 
Q 40.234375 -1.421875 26.90625 -1.421875 
Q 22.3125 -1.421875 17.546875 -0.640625 
Q 12.796875 0.140625 7.71875 1.703125 
L 7.71875 11.625 
Q 12.109375 9.234375 16.796875 8.0625 
Q 21.484375 6.890625 26.703125 6.890625 
Q 35.15625 6.890625 40.078125 11.328125 
Q 45.015625 15.765625 45.015625 23.390625 
Q 45.015625 31 40.078125 35.4375 
Q 35.15625 39.890625 26.703125 39.890625 
Q 22.75 39.890625 18.8125 39.015625 
Q 14.890625 38.140625 10.796875 36.28125 
z
" id="DejaVuSans-35"/>
      </defs>
      <g transform="translate(117.312599 324.461937)scale(0.1 -0.1)">
       <use xlink:href="#DejaVuSans-32"/>
       <use x="63.623047" xlink:href="#DejaVuSans-30"/>
       <use x="127.246094" xlink:href="#DejaVuSans-30"/>
       <use x="190.869141" xlink:href="#DejaVuSans-35"/>
      </g>
     </g>
    </g>
    <g id="xtick_3">
     <g id="line2d_5">
      <path clip-path="url(#p52d569c739)" d="M 177.946003 309.8635 
L 177.946003 23.36505 
" style="fill:none;stroke:#b0b0b0;stroke-linecap:square;stroke-width:0.8;"/>
     </g>
     <g id="line2d_6">
      <g>
       <use style="stroke:#000000;stroke-width:0.8;" x="177.946003" xlink:href="#mef8a0f2b11" y="309.8635"/>
      </g>
     </g>
     <g id="text_3">
      <!-- 2007 -->
      <defs>
       <path d="M 8.203125 72.90625 
L 55.078125 72.90625 
L 55.078125 68.703125 
L 28.609375 0 
L 18.3125 0 
L 43.21875 64.59375 
L 8.203125 64.59375 
z
" id="DejaVuSans-37"/>
      </defs>
      <g transform="translate(165.221003 324.461937)scale(0.1 -0.1)">
       <use xlink:href="#DejaVuSans-32"/>
       <use x="63.623047" xlink:href="#DejaVuSans-30"/>
       <use x="127.246094" xlink:href="#DejaVuSans-30"/>
       <use x="190.869141" xlink:href="#DejaVuSans-37"/>
      </g>
     </g>
    </g>
    <g id="xtick_4">
     <g id="line2d_7">
      <path clip-path="url(#p52d569c739)" d="M 225.920036 309.8635 
L 225.920036 23.36505 
" style="fill:none;stroke:#b0b0b0;stroke-linecap:square;stroke-width:0.8;"/>
     </g>
     <g id="line2d_8">
      <g>
       <use style="stroke:#000000;stroke-width:0.8;" x="225.920036" xlink:href="#mef8a0f2b11" y="309.8635"/>
      </g>
     </g>
     <g id="text_4">
      <!-- 2009 -->
      <defs>
       <path d="M 10.984375 1.515625 
L 10.984375 10.5 
Q 14.703125 8.734375 18.5 7.8125 
Q 22.3125 6.890625 25.984375 6.890625 
Q 35.75 6.890625 40.890625 13.453125 
Q 46.046875 20.015625 46.78125 33.40625 
Q 43.953125 29.203125 39.59375 26.953125 
Q 35.25 24.703125 29.984375 24.703125 
Q 19.046875 24.703125 12.671875 31.3125 
Q 6.296875 37.9375 6.296875 49.421875 
Q 6.296875 60.640625 12.9375 67.421875 
Q 19.578125 74.21875 30.609375 74.21875 
Q 43.265625 74.21875 49.921875 64.515625 
Q 56.59375 54.828125 56.59375 36.375 
Q 56.59375 19.140625 48.40625 8.859375 
Q 40.234375 -1.421875 26.421875 -1.421875 
Q 22.703125 -1.421875 18.890625 -0.6875 
Q 15.09375 0.046875 10.984375 1.515625 
z
M 30.609375 32.421875 
Q 37.25 32.421875 41.125 36.953125 
Q 45.015625 41.5 45.015625 49.421875 
Q 45.015625 57.28125 41.125 61.84375 
Q 37.25 66.40625 30.609375 66.40625 
Q 23.96875 66.40625 20.09375 61.84375 
Q 16.21875 57.28125 16.21875 49.421875 
Q 16.21875 41.5 20.09375 36.953125 
Q 23.96875 32.421875 30.609375 32.421875 
z
" id="DejaVuSans-39"/>
      </defs>
      <g transform="translate(213.195036 324.461937)scale(0.1 -0.1)">
       <use xlink:href="#DejaVuSans-32"/>
       <use x="63.623047" xlink:href="#DejaVuSans-30"/>
       <use x="127.246094" xlink:href="#DejaVuSans-30"/>
       <use x="190.869141" xlink:href="#DejaVuSans-39"/>
      </g>
     </g>
    </g>
    <g id="xtick_5">
     <g id="line2d_9">
      <path clip-path="url(#p52d569c739)" d="M 273.82844 309.8635 
L 273.82844 23.36505 
" style="fill:none;stroke:#b0b0b0;stroke-linecap:square;stroke-width:0.8;"/>
     </g>
     <g id="line2d_10">
      <g>
       <use style="stroke:#000000;stroke-width:0.8;" x="273.82844" xlink:href="#mef8a0f2b11" y="309.8635"/>
      </g>
     </g>
     <g id="text_5">
      <!-- 2011 -->
      <defs>
       <path d="M 12.40625 8.296875 
L 28.515625 8.296875 
L 28.515625 63.921875 
L 10.984375 60.40625 
L 10.984375 69.390625 
L 28.421875 72.90625 
L 38.28125 72.90625 
L 38.28125 8.296875 
L 54.390625 8.296875 
L 54.390625 0 
L 12.40625 0 
z
" id="DejaVuSans-31"/>
      </defs>
      <g transform="translate(261.10344 324.461937)scale(0.1 -0.1)">
       <use xlink:href="#DejaVuSans-32"/>
       <use x="63.623047" xlink:href="#DejaVuSans-30"/>
       <use x="127.246094" xlink:href="#DejaVuSans-31"/>
       <use x="190.869141" xlink:href="#DejaVuSans-31"/>
      </g>
     </g>
    </g>
    <g id="xtick_6">
     <g id="line2d_11">
      <path clip-path="url(#p52d569c739)" d="M 321.802473 309.8635 
L 321.802473 23.36505 
" style="fill:none;stroke:#b0b0b0;stroke-linecap:square;stroke-width:0.8;"/>
     </g>
     <g id="line2d_12">
      <g>
       <use style="stroke:#000000;stroke-width:0.8;" x="321.802473" xlink:href="#mef8a0f2b11" y="309.8635"/>
      </g>
     </g>
     <g id="text_6">
      <!-- 2013 -->
      <g transform="translate(309.077473 324.461937)scale(0.1 -0.1)">
       <use xlink:href="#DejaVuSans-32"/>
       <use x="63.623047" xlink:href="#DejaVuSans-30"/>
       <use x="127.246094" xlink:href="#DejaVuSans-31"/>
       <use x="190.869141" xlink:href="#DejaVuSans-33"/>
      </g>
     </g>
    </g>
    <g id="xtick_7">
     <g id="line2d_13">
      <path clip-path="url(#p52d569c739)" d="M 369.710877 309.8635 
L 369.710877 23.36505 
" style="fill:none;stroke:#b0b0b0;stroke-linecap:square;stroke-width:0.8;"/>
     </g>
     <g id="line2d_14">
      <g>
       <use style="stroke:#000000;stroke-width:0.8;" x="369.710877" xlink:href="#mef8a0f2b11" y="309.8635"/>
      </g>
     </g>
     <g id="text_7">
      <!-- 2015 -->
      <g transform="translate(356.985877 324.461937)scale(0.1 -0.1)">
       <use xlink:href="#DejaVuSans-32"/>
       <use x="63.623047" xlink:href="#DejaVuSans-30"/>
       <use x="127.246094" xlink:href="#DejaVuSans-31"/>
       <use x="190.869141" xlink:href="#DejaVuSans-35"/>
      </g>
     </g>
    </g>
    <g id="xtick_8">
     <g id="line2d_15">
      <path clip-path="url(#p52d569c739)" d="M 417.68491 309.8635 
L 417.68491 23.36505 
" style="fill:none;stroke:#b0b0b0;stroke-linecap:square;stroke-width:0.8;"/>
     </g>
     <g id="line2d_16">
      <g>
       <use style="stroke:#000000;stroke-width:0.8;" x="417.68491" xlink:href="#mef8a0f2b11" y="309.8635"/>
      </g>
     </g>
     <g id="text_8">
      <!-- 2017 -->
      <g transform="translate(404.95991 324.461937)scale(0.1 -0.1)">
       <use xlink:href="#DejaVuSans-32"/>
       <use x="63.623047" xlink:href="#DejaVuSans-30"/>
       <use x="127.246094" xlink:href="#DejaVuSans-31"/>
       <use x="190.869141" xlink:href="#DejaVuSans-37"/>
      </g>
     </g>
    </g>
    <g id="text_9">
     <!-- Date -->
     <defs>
      <path d="M 19.671875 64.796875 
L 19.671875 8.109375 
L 31.59375 8.109375 
Q 46.6875 8.109375 53.6875 14.9375 
Q 60.6875 21.78125 60.6875 36.53125 
Q 60.6875 51.171875 53.6875 57.984375 
Q 46.6875 64.796875 31.59375 64.796875 
z
M 9.8125 72.90625 
L 30.078125 72.90625 
Q 51.265625 72.90625 61.171875 64.09375 
Q 71.09375 55.28125 71.09375 36.53125 
Q 71.09375 17.671875 61.125 8.828125 
Q 51.171875 0 30.078125 0 
L 9.8125 0 
z
" id="DejaVuSans-44"/>
      <path d="M 34.28125 27.484375 
Q 23.390625 27.484375 19.1875 25 
Q 14.984375 22.515625 14.984375 16.5 
Q 14.984375 11.71875 18.140625 8.90625 
Q 21.296875 6.109375 26.703125 6.109375 
Q 34.1875 6.109375 38.703125 11.40625 
Q 43.21875 16.703125 43.21875 25.484375 
L 43.21875 27.484375 
z
M 52.203125 31.203125 
L 52.203125 0 
L 43.21875 0 
L 43.21875 8.296875 
Q 40.140625 3.328125 35.546875 0.953125 
Q 30.953125 -1.421875 24.3125 -1.421875 
Q 15.921875 -1.421875 10.953125 3.296875 
Q 6 8.015625 6 15.921875 
Q 6 25.140625 12.171875 29.828125 
Q 18.359375 34.515625 30.609375 34.515625 
L 43.21875 34.515625 
L 43.21875 35.40625 
Q 43.21875 41.609375 39.140625 45 
Q 35.0625 48.390625 27.6875 48.390625 
Q 23 48.390625 18.546875 47.265625 
Q 14.109375 46.140625 10.015625 43.890625 
L 10.015625 52.203125 
Q 14.9375 54.109375 19.578125 55.046875 
Q 24.21875 56 28.609375 56 
Q 40.484375 56 46.34375 49.84375 
Q 52.203125 43.703125 52.203125 31.203125 
z
" id="DejaVuSans-61"/>
      <path d="M 18.3125 70.21875 
L 18.3125 54.6875 
L 36.8125 54.6875 
L 36.8125 47.703125 
L 18.3125 47.703125 
L 18.3125 18.015625 
Q 18.3125 11.328125 20.140625 9.421875 
Q 21.96875 7.515625 27.59375 7.515625 
L 36.8125 7.515625 
L 36.8125 0 
L 27.59375 0 
Q 17.1875 0 13.234375 3.875 
Q 9.28125 7.765625 9.28125 18.015625 
L 9.28125 47.703125 
L 2.6875 47.703125 
L 2.6875 54.6875 
L 9.28125 54.6875 
L 9.28125 70.21875 
z
" id="DejaVuSans-74"/>
      <path d="M 56.203125 29.59375 
L 56.203125 25.203125 
L 14.890625 25.203125 
Q 15.484375 15.921875 20.484375 11.0625 
Q 25.484375 6.203125 34.421875 6.203125 
Q 39.59375 6.203125 44.453125 7.46875 
Q 49.3125 8.734375 54.109375 11.28125 
L 54.109375 2.78125 
Q 49.265625 0.734375 44.1875 -0.34375 
Q 39.109375 -1.421875 33.890625 -1.421875 
Q 20.796875 -1.421875 13.15625 6.1875 
Q 5.515625 13.8125 5.515625 26.8125 
Q 5.515625 40.234375 12.765625 48.109375 
Q 20.015625 56 32.328125 56 
Q 43.359375 56 49.78125 48.890625 
Q 56.203125 41.796875 56.203125 29.59375 
z
M 47.21875 32.234375 
Q 47.125 39.59375 43.09375 43.984375 
Q 39.0625 48.390625 32.421875 48.390625 
Q 24.90625 48.390625 20.390625 44.140625 
Q 15.875 39.890625 15.1875 32.171875 
z
" id="DejaVuSans-65"/>
     </defs>
     <g transform="translate(229.851219 338.140062)scale(0.1 -0.1)">
      <use xlink:href="#DejaVuSans-44"/>
      <use x="77.001953" xlink:href="#DejaVuSans-61"/>
      <use x="138.28125" xlink:href="#DejaVuSans-74"/>
      <use x="177.490234" xlink:href="#DejaVuSans-65"/>
     </g>
    </g>
   </g>
   <g id="matplotlib.axis_2">
    <g id="ytick_1">
     <g id="line2d_17">
      <path clip-path="url(#p52d569c739)" d="M 36.124 309.8635 
L 447.48 309.8635 
" style="fill:none;stroke:#b0b0b0;stroke-linecap:square;stroke-width:0.8;"/>
     </g>
     <g id="line2d_18">
      <defs>
       <path d="M 0 0 
L -3.5 0 
" id="m176fee8063" style="stroke:#000000;stroke-width:0.8;"/>
      </defs>
      <g>
       <use style="stroke:#000000;stroke-width:0.8;" x="36.124" xlink:href="#m176fee8063" y="309.8635"/>
      </g>
     </g>
     <g id="text_10">
      <!-- 0 -->
      <g transform="translate(22.7615 313.662719)scale(0.1 -0.1)">
       <use xlink:href="#DejaVuSans-30"/>
      </g>
     </g>
    </g>
    <g id="ytick_2">
     <g id="line2d_19">
      <path clip-path="url(#p52d569c739)" d="M 36.124 254.235433 
L 447.48 254.235433 
" style="fill:none;stroke:#b0b0b0;stroke-linecap:square;stroke-width:0.8;"/>
     </g>
     <g id="line2d_20">
      <g>
       <use style="stroke:#000000;stroke-width:0.8;" x="36.124" xlink:href="#m176fee8063" y="254.235433"/>
      </g>
     </g>
     <g id="text_11">
      <!-- 200 -->
      <g transform="translate(10.0365 258.034652)scale(0.1 -0.1)">
       <use xlink:href="#DejaVuSans-32"/>
       <use x="63.623047" xlink:href="#DejaVuSans-30"/>
       <use x="127.246094" xlink:href="#DejaVuSans-30"/>
      </g>
     </g>
    </g>
    <g id="ytick_3">
     <g id="line2d_21">
      <path clip-path="url(#p52d569c739)" d="M 36.124 198.607367 
L 447.48 198.607367 
" style="fill:none;stroke:#b0b0b0;stroke-linecap:square;stroke-width:0.8;"/>
     </g>
     <g id="line2d_22">
      <g>
       <use style="stroke:#000000;stroke-width:0.8;" x="36.124" xlink:href="#m176fee8063" y="198.607367"/>
      </g>
     </g>
     <g id="text_12">
      <!-- 400 -->
      <defs>
       <path d="M 37.796875 64.3125 
L 12.890625 25.390625 
L 37.796875 25.390625 
z
M 35.203125 72.90625 
L 47.609375 72.90625 
L 47.609375 25.390625 
L 58.015625 25.390625 
L 58.015625 17.1875 
L 47.609375 17.1875 
L 47.609375 0 
L 37.796875 0 
L 37.796875 17.1875 
L 4.890625 17.1875 
L 4.890625 26.703125 
z
" id="DejaVuSans-34"/>
      </defs>
      <g transform="translate(10.0365 202.406586)scale(0.1 -0.1)">
       <use xlink:href="#DejaVuSans-34"/>
       <use x="63.623047" xlink:href="#DejaVuSans-30"/>
       <use x="127.246094" xlink:href="#DejaVuSans-30"/>
      </g>
     </g>
    </g>
    <g id="ytick_4">
     <g id="line2d_23">
      <path clip-path="url(#p52d569c739)" d="M 36.124 142.9793 
L 447.48 142.9793 
" style="fill:none;stroke:#b0b0b0;stroke-linecap:square;stroke-width:0.8;"/>
     </g>
     <g id="line2d_24">
      <g>
       <use style="stroke:#000000;stroke-width:0.8;" x="36.124" xlink:href="#m176fee8063" y="142.9793"/>
      </g>
     </g>
     <g id="text_13">
      <!-- 600 -->
      <defs>
       <path d="M 33.015625 40.375 
Q 26.375 40.375 22.484375 35.828125 
Q 18.609375 31.296875 18.609375 23.390625 
Q 18.609375 15.53125 22.484375 10.953125 
Q 26.375 6.390625 33.015625 6.390625 
Q 39.65625 6.390625 43.53125 10.953125 
Q 47.40625 15.53125 47.40625 23.390625 
Q 47.40625 31.296875 43.53125 35.828125 
Q 39.65625 40.375 33.015625 40.375 
z
M 52.59375 71.296875 
L 52.59375 62.3125 
Q 48.875 64.0625 45.09375 64.984375 
Q 41.3125 65.921875 37.59375 65.921875 
Q 27.828125 65.921875 22.671875 59.328125 
Q 17.53125 52.734375 16.796875 39.40625 
Q 19.671875 43.65625 24.015625 45.921875 
Q 28.375 48.1875 33.59375 48.1875 
Q 44.578125 48.1875 50.953125 41.515625 
Q 57.328125 34.859375 57.328125 23.390625 
Q 57.328125 12.15625 50.6875 5.359375 
Q 44.046875 -1.421875 33.015625 -1.421875 
Q 20.359375 -1.421875 13.671875 8.265625 
Q 6.984375 17.96875 6.984375 36.375 
Q 6.984375 53.65625 15.1875 63.9375 
Q 23.390625 74.21875 37.203125 74.21875 
Q 40.921875 74.21875 44.703125 73.484375 
Q 48.484375 72.75 52.59375 71.296875 
z
" id="DejaVuSans-36"/>
      </defs>
      <g transform="translate(10.0365 146.778519)scale(0.1 -0.1)">
       <use xlink:href="#DejaVuSans-36"/>
       <use x="63.623047" xlink:href="#DejaVuSans-30"/>
       <use x="127.246094" xlink:href="#DejaVuSans-30"/>
      </g>
     </g>
    </g>
    <g id="ytick_5">
     <g id="line2d_25">
      <path clip-path="url(#p52d569c739)" d="M 36.124 87.351234 
L 447.48 87.351234 
" style="fill:none;stroke:#b0b0b0;stroke-linecap:square;stroke-width:0.8;"/>
     </g>
     <g id="line2d_26">
      <g>
       <use style="stroke:#000000;stroke-width:0.8;" x="36.124" xlink:href="#m176fee8063" y="87.351234"/>
      </g>
     </g>
     <g id="text_14">
      <!-- 800 -->
      <defs>
       <path d="M 31.78125 34.625 
Q 24.75 34.625 20.71875 30.859375 
Q 16.703125 27.09375 16.703125 20.515625 
Q 16.703125 13.921875 20.71875 10.15625 
Q 24.75 6.390625 31.78125 6.390625 
Q 38.8125 6.390625 42.859375 10.171875 
Q 46.921875 13.96875 46.921875 20.515625 
Q 46.921875 27.09375 42.890625 30.859375 
Q 38.875 34.625 31.78125 34.625 
z
M 21.921875 38.8125 
Q 15.578125 40.375 12.03125 44.71875 
Q 8.5 49.078125 8.5 55.328125 
Q 8.5 64.0625 14.71875 69.140625 
Q 20.953125 74.21875 31.78125 74.21875 
Q 42.671875 74.21875 48.875 69.140625 
Q 55.078125 64.0625 55.078125 55.328125 
Q 55.078125 49.078125 51.53125 44.71875 
Q 48 40.375 41.703125 38.8125 
Q 48.828125 37.15625 52.796875 32.3125 
Q 56.78125 27.484375 56.78125 20.515625 
Q 56.78125 9.90625 50.3125 4.234375 
Q 43.84375 -1.421875 31.78125 -1.421875 
Q 19.734375 -1.421875 13.25 4.234375 
Q 6.78125 9.90625 6.78125 20.515625 
Q 6.78125 27.484375 10.78125 32.3125 
Q 14.796875 37.15625 21.921875 38.8125 
z
M 18.3125 54.390625 
Q 18.3125 48.734375 21.84375 45.5625 
Q 25.390625 42.390625 31.78125 42.390625 
Q 38.140625 42.390625 41.71875 45.5625 
Q 45.3125 48.734375 45.3125 54.390625 
Q 45.3125 60.0625 41.71875 63.234375 
Q 38.140625 66.40625 31.78125 66.40625 
Q 25.390625 66.40625 21.84375 63.234375 
Q 18.3125 60.0625 18.3125 54.390625 
z
" id="DejaVuSans-38"/>
      </defs>
      <g transform="translate(10.0365 91.150452)scale(0.1 -0.1)">
       <use xlink:href="#DejaVuSans-38"/>
       <use x="63.623047" xlink:href="#DejaVuSans-30"/>
       <use x="127.246094" xlink:href="#DejaVuSans-30"/>
      </g>
     </g>
    </g>
    <g id="ytick_6">
     <g id="line2d_27">
      <path clip-path="url(#p52d569c739)" d="M 36.124 31.723167 
L 447.48 31.723167 
" style="fill:none;stroke:#b0b0b0;stroke-linecap:square;stroke-width:0.8;"/>
     </g>
     <g id="line2d_28">
      <g>
       <use style="stroke:#000000;stroke-width:0.8;" x="36.124" xlink:href="#m176fee8063" y="31.723167"/>
      </g>
     </g>
     <g id="text_15">
      <!-- 1000 -->
      <g transform="translate(3.674 35.522386)scale(0.1 -0.1)">
       <use xlink:href="#DejaVuSans-31"/>
       <use x="63.623047" xlink:href="#DejaVuSans-30"/>
       <use x="127.246094" xlink:href="#DejaVuSans-30"/>
       <use x="190.869141" xlink:href="#DejaVuSans-30"/>
      </g>
     </g>
    </g>
   </g>
   <g id="line2d_29">
    <path clip-path="url(#p52d569c739)" d="M 36.124 59.67627 
L 37.961583 56.199516 
L 39.996049 54.252534 
L 41.964888 59.11999 
L 43.999354 184.144069 
L 45.968193 180.250105 
L 48.002659 74.834919 
L 50.037126 58.146499 
L 52.005964 57.590218 
L 54.040431 52.861832 
L 56.009269 54.669744 
L 58.043736 61.206042 
L 60.078202 55.921376 
L 61.915785 60.093481 
L 63.950251 75.530269 
L 65.91909 60.649762 
L 67.953556 57.590218 
L 69.922395 79.563304 
L 71.956862 58.424639 
L 73.991328 54.530674 
L 75.960167 55.643236 
L 77.994633 182.475227 
L 79.963472 182.197087 
L 81.997938 64.960937 
L 84.032405 51.749271 
L 85.869987 60.232551 
L 87.904454 51.471131 
L 89.873292 46.742745 
L 91.907759 49.802289 
L 93.876597 48.133447 
L 95.911064 49.524148 
L 99.914369 48.411587 
L 103.917674 47.855306 
L 105.95214 65.100007 
L 107.986607 68.437691 
L 109.889817 86.516813 
L 111.924284 50.358569 
L 113.893123 153.826773 
L 115.927589 48.689727 
L 117.896428 63.848375 
L 119.930894 56.060446 
L 121.965361 178.303122 
L 123.934199 70.245603 
L 125.968666 51.610201 
L 127.937504 48.967868 
L 129.971971 53.139973 
L 132.006437 63.987446 
L 133.84402 76.36469 
L 135.878486 51.471131 
L 137.847325 48.689727 
L 139.881791 53.835323 
L 141.85063 61.762323 
L 143.885096 60.927902 
L 145.919563 52.861832 
L 147.888401 168.568211 
L 149.922868 179.971964 
L 151.891706 71.914445 
L 153.926173 58.841849 
L 155.960639 58.563709 
L 157.798222 49.802289 
L 159.832689 68.854901 
L 161.801527 83.596339 
L 163.835994 69.828393 
L 165.804832 52.861832 
L 167.839299 51.471131 
L 169.873765 51.19299 
L 171.842604 178.581263 
L 173.87707 179.415684 
L 175.845909 179.137543 
L 177.880375 70.940954 
L 179.914842 48.411587 
L 181.752424 44.795763 
L 183.786891 52.027411 
L 185.755729 48.828797 
L 187.790196 49.941359 
L 189.759034 62.596744 
L 191.793501 45.352043 
L 193.827967 52.027411 
L 195.796806 45.630184 
L 197.831272 50.219499 
L 199.800111 71.497235 
L 201.834578 68.993972 
L 203.869044 46.464605 
L 205.772255 69.272112 
L 207.806721 46.881815 
L 209.77556 47.020885 
L 211.810026 46.742745 
L 213.778865 58.146499 
L 215.813331 50.63671 
L 217.847798 50.63671 
L 219.816636 50.358569 
L 221.851103 51.749271 
L 223.819941 51.471131 
L 225.854408 51.749271 
L 227.888874 51.19299 
L 229.726457 91.245198 
L 231.760923 51.471131 
L 233.729762 50.63671 
L 235.764228 55.921376 
L 237.733067 147.290475 
L 239.767534 51.19299 
L 241.802 53.418113 
L 243.770839 53.418113 
L 245.805305 62.596744 
L 247.774144 53.974394 
L 249.80861 60.649762 
L 251.843077 58.702779 
L 253.680659 63.987446 
L 255.715126 57.868358 
L 257.683964 71.219094 
L 259.718431 59.39813 
L 261.687269 57.312078 
L 263.721736 55.365095 
L 265.756202 55.921376 
L 267.725041 178.303122 
L 269.759507 190.541297 
L 271.728346 180.389175 
L 273.762812 60.371621 
L 275.797279 67.32513 
L 277.634862 83.735409 
L 279.669328 73.583287 
L 281.638167 68.159551 
L 283.672633 74.000498 
L 285.641472 76.503761 
L 287.675938 69.272112 
L 289.710405 55.643236 
L 291.679243 71.636305 
L 293.71371 174.131017 
L 295.682548 203.892033 
L 297.717015 128.933213 
L 299.751481 70.801884 
L 301.654692 58.702779 
L 303.689158 73.722357 
L 305.657997 72.331656 
L 307.692463 71.914445 
L 309.661302 62.318604 
L 311.695768 78.172603 
L 313.730235 91.245198 
L 315.699073 70.662814 
L 317.73354 73.722357 
L 319.702378 77.060041 
L 321.736845 84.7089 
L 323.771311 74.000498 
L 325.608894 77.894462 
L 327.643361 76.920971 
L 329.612199 81.510287 
L 331.646666 89.993567 
L 333.615504 74.000498 
L 335.649971 74.000498 
L 337.684437 74.973989 
L 339.653276 77.199111 
L 341.687742 73.166077 
L 343.656581 67.88141 
L 345.691047 72.748866 
L 347.725514 74.139568 
L 349.563096 75.66934 
L 351.597563 98.476847 
L 353.566401 82.622848 
L 355.600868 73.444217 
L 357.569706 67.32513 
L 359.604173 74.834919 
L 361.638639 71.775375 
L 363.607478 79.007024 
L 365.641944 186.508262 
L 367.610783 104.874075 
L 369.64525 67.88141 
L 371.679716 66.212568 
L 373.517299 78.728883 
L 375.551765 82.622848 
L 377.520604 79.007024 
L 379.55507 82.761918 
L 381.523909 81.371216 
L 383.558375 109.880601 
L 385.592842 69.272112 
L 387.56168 96.251724 
L 389.596147 198.190156 
L 391.564985 207.785998 
L 393.599452 73.444217 
L 395.633918 80.954006 
L 397.537129 117.39039 
L 399.571595 219.885102 
L 401.540434 227.673032 
L 403.5749 179.554754 
L 405.543739 109.60246 
L 407.578205 69.967463 
L 409.612672 70.106533 
L 411.581511 68.437691 
L 413.615977 55.365095 
L 415.584816 92.77497 
L 417.619282 74.973989 
L 419.653749 63.709305 
L 423.525798 206.951577 
L 425.494636 167.316579 
L 427.529103 149.515598 
L 429.497941 134.77416 
L 431.532408 67.046989 
L 433.566874 99.450338 
L 435.535713 103.066162 
L 437.570179 85.265181 
L 439.539018 88.741935 
L 441.573484 73.861427 
L 443.607951 102.370812 
L 445.445534 116.834109 
L 447.48 165.091457 
L 447.48 165.091457 
" style="fill:none;stroke:#1f77b4;stroke-linecap:square;stroke-width:1.5;"/>
   </g>
   <g id="patch_3">
    <path d="M 36.124 309.8635 
L 36.124 23.36505 
" style="fill:none;stroke:#000000;stroke-linecap:square;stroke-linejoin:miter;stroke-width:0.8;"/>
   </g>
   <g id="patch_4">
    <path d="M 447.48 309.8635 
L 447.48 23.36505 
" style="fill:none;stroke:#000000;stroke-linecap:square;stroke-linejoin:miter;stroke-width:0.8;"/>
   </g>
   <g id="patch_5">
    <path d="M 36.124 309.8635 
L 447.48 309.8635 
" style="fill:none;stroke:#000000;stroke-linecap:square;stroke-linejoin:miter;stroke-width:0.8;"/>
   </g>
   <g id="patch_6">
    <path d="M 36.124 23.36505 
L 447.48 23.36505 
" style="fill:none;stroke:#000000;stroke-linecap:square;stroke-linejoin:miter;stroke-width:0.8;"/>
   </g>
   <g id="text_16">
    <!-- Monthly gross load trend (MW) -->
    <defs>
     <path d="M 9.8125 72.90625 
L 24.515625 72.90625 
L 43.109375 23.296875 
L 61.8125 72.90625 
L 76.515625 72.90625 
L 76.515625 0 
L 66.890625 0 
L 66.890625 64.015625 
L 48.09375 14.015625 
L 38.1875 14.015625 
L 19.390625 64.015625 
L 19.390625 0 
L 9.8125 0 
z
" id="DejaVuSans-4d"/>
     <path d="M 30.609375 48.390625 
Q 23.390625 48.390625 19.1875 42.75 
Q 14.984375 37.109375 14.984375 27.296875 
Q 14.984375 17.484375 19.15625 11.84375 
Q 23.34375 6.203125 30.609375 6.203125 
Q 37.796875 6.203125 41.984375 11.859375 
Q 46.1875 17.53125 46.1875 27.296875 
Q 46.1875 37.015625 41.984375 42.703125 
Q 37.796875 48.390625 30.609375 48.390625 
z
M 30.609375 56 
Q 42.328125 56 49.015625 48.375 
Q 55.71875 40.765625 55.71875 27.296875 
Q 55.71875 13.875 49.015625 6.21875 
Q 42.328125 -1.421875 30.609375 -1.421875 
Q 18.84375 -1.421875 12.171875 6.21875 
Q 5.515625 13.875 5.515625 27.296875 
Q 5.515625 40.765625 12.171875 48.375 
Q 18.84375 56 30.609375 56 
z
" id="DejaVuSans-6f"/>
     <path d="M 54.890625 33.015625 
L 54.890625 0 
L 45.90625 0 
L 45.90625 32.71875 
Q 45.90625 40.484375 42.875 44.328125 
Q 39.84375 48.1875 33.796875 48.1875 
Q 26.515625 48.1875 22.3125 43.546875 
Q 18.109375 38.921875 18.109375 30.90625 
L 18.109375 0 
L 9.078125 0 
L 9.078125 54.6875 
L 18.109375 54.6875 
L 18.109375 46.1875 
Q 21.34375 51.125 25.703125 53.5625 
Q 30.078125 56 35.796875 56 
Q 45.21875 56 50.046875 50.171875 
Q 54.890625 44.34375 54.890625 33.015625 
z
" id="DejaVuSans-6e"/>
     <path d="M 54.890625 33.015625 
L 54.890625 0 
L 45.90625 0 
L 45.90625 32.71875 
Q 45.90625 40.484375 42.875 44.328125 
Q 39.84375 48.1875 33.796875 48.1875 
Q 26.515625 48.1875 22.3125 43.546875 
Q 18.109375 38.921875 18.109375 30.90625 
L 18.109375 0 
L 9.078125 0 
L 9.078125 75.984375 
L 18.109375 75.984375 
L 18.109375 46.1875 
Q 21.34375 51.125 25.703125 53.5625 
Q 30.078125 56 35.796875 56 
Q 45.21875 56 50.046875 50.171875 
Q 54.890625 44.34375 54.890625 33.015625 
z
" id="DejaVuSans-68"/>
     <path d="M 9.421875 75.984375 
L 18.40625 75.984375 
L 18.40625 0 
L 9.421875 0 
z
" id="DejaVuSans-6c"/>
     <path d="M 32.171875 -5.078125 
Q 28.375 -14.84375 24.75 -17.8125 
Q 21.140625 -20.796875 15.09375 -20.796875 
L 7.90625 -20.796875 
L 7.90625 -13.28125 
L 13.1875 -13.28125 
Q 16.890625 -13.28125 18.9375 -11.515625 
Q 21 -9.765625 23.484375 -3.21875 
L 25.09375 0.875 
L 2.984375 54.6875 
L 12.5 54.6875 
L 29.59375 11.921875 
L 46.6875 54.6875 
L 56.203125 54.6875 
z
" id="DejaVuSans-79"/>
     <path id="DejaVuSans-20"/>
     <path d="M 45.40625 27.984375 
Q 45.40625 37.75 41.375 43.109375 
Q 37.359375 48.484375 30.078125 48.484375 
Q 22.859375 48.484375 18.828125 43.109375 
Q 14.796875 37.75 14.796875 27.984375 
Q 14.796875 18.265625 18.828125 12.890625 
Q 22.859375 7.515625 30.078125 7.515625 
Q 37.359375 7.515625 41.375 12.890625 
Q 45.40625 18.265625 45.40625 27.984375 
z
M 54.390625 6.78125 
Q 54.390625 -7.171875 48.1875 -13.984375 
Q 42 -20.796875 29.203125 -20.796875 
Q 24.46875 -20.796875 20.265625 -20.09375 
Q 16.0625 -19.390625 12.109375 -17.921875 
L 12.109375 -9.1875 
Q 16.0625 -11.328125 19.921875 -12.34375 
Q 23.78125 -13.375 27.78125 -13.375 
Q 36.625 -13.375 41.015625 -8.765625 
Q 45.40625 -4.15625 45.40625 5.171875 
L 45.40625 9.625 
Q 42.625 4.78125 38.28125 2.390625 
Q 33.9375 0 27.875 0 
Q 17.828125 0 11.671875 7.65625 
Q 5.515625 15.328125 5.515625 27.984375 
Q 5.515625 40.671875 11.671875 48.328125 
Q 17.828125 56 27.875 56 
Q 33.9375 56 38.28125 53.609375 
Q 42.625 51.21875 45.40625 46.390625 
L 45.40625 54.6875 
L 54.390625 54.6875 
z
" id="DejaVuSans-67"/>
     <path d="M 41.109375 46.296875 
Q 39.59375 47.171875 37.8125 47.578125 
Q 36.03125 48 33.890625 48 
Q 26.265625 48 22.1875 43.046875 
Q 18.109375 38.09375 18.109375 28.8125 
L 18.109375 0 
L 9.078125 0 
L 9.078125 54.6875 
L 18.109375 54.6875 
L 18.109375 46.1875 
Q 20.953125 51.171875 25.484375 53.578125 
Q 30.03125 56 36.53125 56 
Q 37.453125 56 38.578125 55.875 
Q 39.703125 55.765625 41.0625 55.515625 
z
" id="DejaVuSans-72"/>
     <path d="M 44.28125 53.078125 
L 44.28125 44.578125 
Q 40.484375 46.53125 36.375 47.5 
Q 32.28125 48.484375 27.875 48.484375 
Q 21.1875 48.484375 17.84375 46.4375 
Q 14.5 44.390625 14.5 40.28125 
Q 14.5 37.15625 16.890625 35.375 
Q 19.28125 33.59375 26.515625 31.984375 
L 29.59375 31.296875 
Q 39.15625 29.25 43.1875 25.515625 
Q 47.21875 21.78125 47.21875 15.09375 
Q 47.21875 7.46875 41.1875 3.015625 
Q 35.15625 -1.421875 24.609375 -1.421875 
Q 20.21875 -1.421875 15.453125 -0.5625 
Q 10.6875 0.296875 5.421875 2 
L 5.421875 11.28125 
Q 10.40625 8.6875 15.234375 7.390625 
Q 20.0625 6.109375 24.8125 6.109375 
Q 31.15625 6.109375 34.5625 8.28125 
Q 37.984375 10.453125 37.984375 14.40625 
Q 37.984375 18.0625 35.515625 20.015625 
Q 33.0625 21.96875 24.703125 23.78125 
L 21.578125 24.515625 
Q 13.234375 26.265625 9.515625 29.90625 
Q 5.8125 33.546875 5.8125 39.890625 
Q 5.8125 47.609375 11.28125 51.796875 
Q 16.75 56 26.8125 56 
Q 31.78125 56 36.171875 55.265625 
Q 40.578125 54.546875 44.28125 53.078125 
z
" id="DejaVuSans-73"/>
     <path d="M 45.40625 46.390625 
L 45.40625 75.984375 
L 54.390625 75.984375 
L 54.390625 0 
L 45.40625 0 
L 45.40625 8.203125 
Q 42.578125 3.328125 38.25 0.953125 
Q 33.9375 -1.421875 27.875 -1.421875 
Q 17.96875 -1.421875 11.734375 6.484375 
Q 5.515625 14.40625 5.515625 27.296875 
Q 5.515625 40.1875 11.734375 48.09375 
Q 17.96875 56 27.875 56 
Q 33.9375 56 38.25 53.625 
Q 42.578125 51.265625 45.40625 46.390625 
z
M 14.796875 27.296875 
Q 14.796875 17.390625 18.875 11.75 
Q 22.953125 6.109375 30.078125 6.109375 
Q 37.203125 6.109375 41.296875 11.75 
Q 45.40625 17.390625 45.40625 27.296875 
Q 45.40625 37.203125 41.296875 42.84375 
Q 37.203125 48.484375 30.078125 48.484375 
Q 22.953125 48.484375 18.875 42.84375 
Q 14.796875 37.203125 14.796875 27.296875 
z
" id="DejaVuSans-64"/>
     <path d="M 31 75.875 
Q 24.46875 64.65625 21.28125 53.65625 
Q 18.109375 42.671875 18.109375 31.390625 
Q 18.109375 20.125 21.3125 9.0625 
Q 24.515625 -2 31 -13.1875 
L 23.1875 -13.1875 
Q 15.875 -1.703125 12.234375 9.375 
Q 8.59375 20.453125 8.59375 31.390625 
Q 8.59375 42.28125 12.203125 53.3125 
Q 15.828125 64.359375 23.1875 75.875 
z
" id="DejaVuSans-28"/>
     <path d="M 3.328125 72.90625 
L 13.28125 72.90625 
L 28.609375 11.28125 
L 43.890625 72.90625 
L 54.984375 72.90625 
L 70.3125 11.28125 
L 85.59375 72.90625 
L 95.609375 72.90625 
L 77.296875 0 
L 64.890625 0 
L 49.515625 63.28125 
L 33.984375 0 
L 21.578125 0 
z
" id="DejaVuSans-57"/>
     <path d="M 8.015625 75.875 
L 15.828125 75.875 
Q 23.140625 64.359375 26.78125 53.3125 
Q 30.421875 42.28125 30.421875 31.390625 
Q 30.421875 20.453125 26.78125 9.375 
Q 23.140625 -1.703125 15.828125 -13.1875 
L 8.015625 -13.1875 
Q 14.5 -2 17.703125 9.0625 
Q 20.90625 20.125 20.90625 31.390625 
Q 20.90625 42.671875 17.703125 53.65625 
Q 14.5 64.65625 8.015625 75.875 
z
" id="DejaVuSans-29"/>
    </defs>
    <g transform="translate(149.219188 17.36505)scale(0.12 -0.12)">
     <use xlink:href="#DejaVuSans-4d"/>
     <use x="86.279297" xlink:href="#DejaVuSans-6f"/>
     <use x="147.460938" xlink:href="#DejaVuSans-6e"/>
     <use x="210.839844" xlink:href="#DejaVuSans-74"/>
     <use x="250.048828" xlink:href="#DejaVuSans-68"/>
     <use x="313.427734" xlink:href="#DejaVuSans-6c"/>
     <use x="341.210938" xlink:href="#DejaVuSans-79"/>
     <use x="400.390625" xlink:href="#DejaVuSans-20"/>
     <use x="432.177734" xlink:href="#DejaVuSans-67"/>
     <use x="495.654297" xlink:href="#DejaVuSans-72"/>
     <use x="536.736328" xlink:href="#DejaVuSans-6f"/>
     <use x="597.917969" xlink:href="#DejaVuSans-73"/>
     <use x="650.017578" xlink:href="#DejaVuSans-73"/>
     <use x="702.117188" xlink:href="#DejaVuSans-20"/>
     <use x="733.904297" xlink:href="#DejaVuSans-6c"/>
     <use x="761.6875" xlink:href="#DejaVuSans-6f"/>
     <use x="822.869141" xlink:href="#DejaVuSans-61"/>
     <use x="884.148438" xlink:href="#DejaVuSans-64"/>
     <use x="947.625" xlink:href="#DejaVuSans-20"/>
     <use x="979.412109" xlink:href="#DejaVuSans-74"/>
     <use x="1018.621094" xlink:href="#DejaVuSans-72"/>
     <use x="1059.703125" xlink:href="#DejaVuSans-65"/>
     <use x="1121.226562" xlink:href="#DejaVuSans-6e"/>
     <use x="1184.605469" xlink:href="#DejaVuSans-64"/>
     <use x="1248.082031" xlink:href="#DejaVuSans-20"/>
     <use x="1279.869141" xlink:href="#DejaVuSans-28"/>
     <use x="1318.882812" xlink:href="#DejaVuSans-4d"/>
     <use x="1405.162109" xlink:href="#DejaVuSans-57"/>
     <use x="1504.039062" xlink:href="#DejaVuSans-29"/>
    </g>
   </g>
  </g>
 </g>
 <defs>
  <clipPath id="p52d569c739">
   <rect height="286.49845" width="411.356" x="36.124" y="23.36505"/>
  </clipPath>
 </defs>
</svg>
